<svg id="Layer_1" data-name="Layer 1" xmlns="http://www.w3.org/2000/svg" viewBox="0 0 424.329 287.922"><defs><style>.cls-1,.cls-2,.cls-5,.cls-9{fill:none;}.cls-1{stroke:#000;}.cls-1,.cls-9{stroke-miterlimit:10;}.cls-2{stroke:#25408f;}.cls-3{fill:#25408f;}.cls-4{fill:#231f20;}.cls-5,.cls-7{stroke:#d2232a;}.cls-5,.cls-6,.cls-7,.cls-8{opacity:0.38;}.cls-6{fill:#b12229;}.cls-7{fill:#d2232a;}.cls-9{stroke:#24418f;}</style></defs><title>Defined_Benefit_Plans</title><rect class="cls-1" x="0.5" y="0.5" width="423.329" height="286.922"/><rect class="cls-2" x="11.845" y="55.223" width="182.803" height="29.597"/><rect class="cls-3" x="11.845" y="47.244" width="182.803" height="7.979"/><rect class="cls-2" x="11.845" y="47.244" width="182.803" height="7.979"/><path class="cls-4" d="M52.125,79.011V70.7h2.862a6.922,6.922,0,0,1,1.479.119,2.814,2.814,0,0,1,1.219.595,3.386,3.386,0,0,1,.983,1.42,5.582,5.582,0,0,1,.326,1.975,5.8,5.8,0,0,1-.221,1.677,4.062,4.062,0,0,1-.566,1.21,3.008,3.008,0,0,1-.757.754,3.082,3.082,0,0,1-.992.417,5.671,5.671,0,0,1-1.334.142h-3Zm1.1-.98H55a4.307,4.307,0,0,0,1.29-.153,1.846,1.846,0,0,0,.745-0.431,2.623,2.623,0,0,0,.609-1.051,5.141,5.141,0,0,0,.218-1.6,3.867,3.867,0,0,0-.428-2,2.153,2.153,0,0,0-1.04-.938,4.3,4.3,0,0,0-1.423-.17H53.225v6.347Z" transform="translate(-5.171 -5.362)"/><path class="cls-4" d="M64.5,77.073l1.054,0.13a2.572,2.572,0,0,1-.924,1.434,3.129,3.129,0,0,1-3.817-.3,3.178,3.178,0,0,1-.774-2.281,3.325,3.325,0,0,1,.782-2.357,2.648,2.648,0,0,1,2.029-.839,2.573,2.573,0,0,1,1.972.822,3.265,3.265,0,0,1,.765,2.313c0,0.061,0,.151-0.005.272H61.091a2.315,2.315,0,0,0,.561,1.519,1.67,1.67,0,0,0,1.258.527,1.56,1.56,0,0,0,.958-0.295A1.959,1.959,0,0,0,64.5,77.073Zm-3.35-1.649h3.361a2.041,2.041,0,0,0-.385-1.139,1.563,1.563,0,0,0-1.264-.589,1.62,1.62,0,0,0-1.182.47A1.864,1.864,0,0,0,61.147,75.424Z" transform="translate(-5.171 -5.362)"/><path class="cls-4" d="M67.076,79.011V73.786h-0.9V72.993h0.9V72.352a2.8,2.8,0,0,1,.107-0.9,1.306,1.306,0,0,1,.519-0.643,1.868,1.868,0,0,1,1.04-.247,4.966,4.966,0,0,1,.952.1l-0.153.89a3.446,3.446,0,0,0-.6-0.057,0.894,0.894,0,0,0-.658.2,1.076,1.076,0,0,0-.192.742v0.556h1.173v0.793H68.09v5.225H67.076Z" transform="translate(-5.171 -5.362)"/><path class="cls-4" d="M70.062,71.876V70.7h1.021v1.173H70.062Zm0,7.135V72.993h1.021v6.019H70.062Z" transform="translate(-5.171 -5.362)"/><path class="cls-4" d="M72.635,79.011V72.993h0.918v0.855a2.163,2.163,0,0,1,1.916-.992,2.514,2.514,0,0,1,1,.2,1.575,1.575,0,0,1,.683.513,1.969,1.969,0,0,1,.317.754,5.81,5.81,0,0,1,.057.992v3.7h-1.02V75.35a2.741,2.741,0,0,0-.119-0.932,0.979,0.979,0,0,0-.422-0.493,1.346,1.346,0,0,0-.711-0.184,1.652,1.652,0,0,0-1.125.414,2.042,2.042,0,0,0-.473,1.57v3.287h-1.02Z" transform="translate(-5.171 -5.362)"/><path class="cls-4" d="M83.21,77.073l1.054,0.13a2.572,2.572,0,0,1-.924,1.434,3.129,3.129,0,0,1-3.817-.3,3.178,3.178,0,0,1-.774-2.281,3.325,3.325,0,0,1,.782-2.357,2.648,2.648,0,0,1,2.029-.839,2.573,2.573,0,0,1,1.972.822,3.265,3.265,0,0,1,.765,2.313c0,0.061,0,.151-0.005.272H79.8a2.315,2.315,0,0,0,.561,1.519,1.67,1.67,0,0,0,1.258.527,1.56,1.56,0,0,0,.958-0.295A1.959,1.959,0,0,0,83.21,77.073Zm-3.35-1.649h3.361a2.041,2.041,0,0,0-.385-1.139,1.563,1.563,0,0,0-1.264-.589,1.62,1.62,0,0,0-1.182.47A1.864,1.864,0,0,0,79.861,75.424Z" transform="translate(-5.171 -5.362)"/><path class="cls-4" d="M89.45,79.011V78.252a1.873,1.873,0,0,1-1.683.9,2.358,2.358,0,0,1-1.323-.4,2.606,2.606,0,0,1-.936-1.108,3.833,3.833,0,0,1-.332-1.635,4.271,4.271,0,0,1,.3-1.635,2.369,2.369,0,0,1,.9-1.125,2.409,2.409,0,0,1,1.343-.391,2.01,2.01,0,0,1,.969.229,2.033,2.033,0,0,1,.691.6V70.7H90.4v8.308H89.45Zm-3.225-3a2.613,2.613,0,0,0,.487,1.729,1.47,1.47,0,0,0,1.15.572A1.442,1.442,0,0,0,89,77.762a2.522,2.522,0,0,0,.468-1.669,2.83,2.83,0,0,0-.476-1.813,1.463,1.463,0,0,0-1.173-.578,1.414,1.414,0,0,0-1.136.555A2.742,2.742,0,0,0,86.226,76.008Z" transform="translate(-5.171 -5.362)"/><path class="cls-4" d="M95.31,79.011V70.7h3.117a3.862,3.862,0,0,1,1.527.252,1.968,1.968,0,0,1,.9.776,2.047,2.047,0,0,1,.326,1.1,1.883,1.883,0,0,1-.289,1,2.063,2.063,0,0,1-.873.759,2.171,2.171,0,0,1,1.159.754,2.018,2.018,0,0,1,.4,1.258,2.431,2.431,0,0,1-.246,1.085,2.1,2.1,0,0,1-.609.773,2.54,2.54,0,0,1-.91.411,5.549,5.549,0,0,1-1.34.139H95.31Zm1.1-4.817h1.8a4,4,0,0,0,1.048-.1,1.165,1.165,0,0,0,.632-0.414,1.193,1.193,0,0,0,.212-0.726,1.334,1.334,0,0,0-.2-0.728,1,1,0,0,0-.566-0.431,4.727,4.727,0,0,0-1.264-.116H96.41v2.51Zm0,3.837h2.068a4.776,4.776,0,0,0,.748-0.04,1.8,1.8,0,0,0,.635-0.227,1.208,1.208,0,0,0,.419-0.462,1.448,1.448,0,0,0,.164-0.7,1.382,1.382,0,0,0-.238-0.808,1.255,1.255,0,0,0-.66-0.481,4.088,4.088,0,0,0-1.216-.139H96.41v2.856Z" transform="translate(-5.171 -5.362)"/><path class="cls-4" d="M107.086,77.073l1.054,0.13a2.572,2.572,0,0,1-.924,1.434,3.129,3.129,0,0,1-3.817-.3,3.178,3.178,0,0,1-.774-2.281,3.325,3.325,0,0,1,.782-2.357,2.648,2.648,0,0,1,2.029-.839,2.573,2.573,0,0,1,1.972.822,3.265,3.265,0,0,1,.765,2.313c0,0.061,0,.151-0.005.272H103.68a2.315,2.315,0,0,0,.561,1.519,1.67,1.67,0,0,0,1.258.527,1.56,1.56,0,0,0,.958-0.295A1.959,1.959,0,0,0,107.086,77.073Zm-3.35-1.649H107.1a2.041,2.041,0,0,0-.385-1.139,1.563,1.563,0,0,0-1.264-.589,1.62,1.62,0,0,0-1.182.47A1.864,1.864,0,0,0,103.737,75.424Z" transform="translate(-5.171 -5.362)"/><path class="cls-4" d="M109.421,79.011V72.993h0.918v0.855a2.163,2.163,0,0,1,1.916-.992,2.514,2.514,0,0,1,1,.2,1.575,1.575,0,0,1,.683.513,1.969,1.969,0,0,1,.317.754,5.81,5.81,0,0,1,.057.992v3.7h-1.02V75.35a2.741,2.741,0,0,0-.119-0.932,0.979,0.979,0,0,0-.422-0.493,1.346,1.346,0,0,0-.711-0.184,1.652,1.652,0,0,0-1.125.414,2.042,2.042,0,0,0-.473,1.57v3.287h-1.02Z" transform="translate(-5.171 -5.362)"/><path class="cls-4" d="M120,77.073l1.054,0.13a2.572,2.572,0,0,1-.924,1.434,3.129,3.129,0,0,1-3.817-.3,3.178,3.178,0,0,1-.774-2.281,3.325,3.325,0,0,1,.782-2.357,2.648,2.648,0,0,1,2.029-.839,2.573,2.573,0,0,1,1.972.822,3.265,3.265,0,0,1,.765,2.313c0,0.061,0,.151-0.005.272H116.59a2.315,2.315,0,0,0,.561,1.519,1.67,1.67,0,0,0,1.258.527,1.56,1.56,0,0,0,.958-0.295A1.959,1.959,0,0,0,120,77.073Zm-3.35-1.649h3.361a2.041,2.041,0,0,0-.385-1.139,1.563,1.563,0,0,0-1.264-.589,1.62,1.62,0,0,0-1.182.47A1.864,1.864,0,0,0,116.647,75.424Z" transform="translate(-5.171 -5.362)"/><path class="cls-4" d="M122.575,79.011V73.786h-0.9V72.993h0.9V72.352a2.8,2.8,0,0,1,.107-0.9,1.306,1.306,0,0,1,.519-0.643,1.868,1.868,0,0,1,1.04-.247,4.966,4.966,0,0,1,.952.1l-0.153.89a3.446,3.446,0,0,0-.6-0.057,0.894,0.894,0,0,0-.658.2,1.076,1.076,0,0,0-.192.742v0.556h1.173v0.793H123.59v5.225h-1.015Z" transform="translate(-5.171 -5.362)"/><path class="cls-4" d="M125.562,71.876V70.7h1.021v1.173h-1.021Zm0,7.135V72.993h1.021v6.019h-1.021Z" transform="translate(-5.171 -5.362)"/><path class="cls-4" d="M130.362,78.1l0.147,0.9a3.808,3.808,0,0,1-.771.09,1.751,1.751,0,0,1-.862-0.175,0.985,0.985,0,0,1-.431-0.462,3.659,3.659,0,0,1-.125-1.2V73.786h-0.748V72.993h0.748V71.5l1.014-.612v2.1h1.026v0.793h-1.026v3.519a1.765,1.765,0,0,0,.054.561,0.422,0.422,0,0,0,.176.2,0.68,0.68,0,0,0,.348.074A3.263,3.263,0,0,0,130.362,78.1Z" transform="translate(-5.171 -5.362)"/><path class="cls-4" d="M134.714,79.011V70.7h3.134a7.594,7.594,0,0,1,1.264.079,2.514,2.514,0,0,1,1.025.388,2.038,2.038,0,0,1,.666.8,2.7,2.7,0,0,1-.422,2.927,3.232,3.232,0,0,1-2.437.734h-2.131v3.377h-1.1Zm1.1-4.358h2.148a2.276,2.276,0,0,0,1.513-.4,1.413,1.413,0,0,0,.448-1.116,1.5,1.5,0,0,0-.263-0.893,1.231,1.231,0,0,0-.694-0.49,4.685,4.685,0,0,0-1.026-.074h-2.125v2.97Z" transform="translate(-5.171 -5.362)"/><path class="cls-4" d="M142.3,79.011V70.7h1.021v8.308H142.3Z" transform="translate(-5.171 -5.362)"/><path class="cls-4" d="M148.831,78.269a3.8,3.8,0,0,1-1.091.68,3.152,3.152,0,0,1-1.125.2,2.187,2.187,0,0,1-1.524-.485,1.6,1.6,0,0,1-.533-1.238,1.678,1.678,0,0,1,.728-1.394,2.48,2.48,0,0,1,.734-0.334,7.269,7.269,0,0,1,.907-0.153,9.3,9.3,0,0,0,1.819-.352c0-.14.006-0.229,0.006-0.266a1.127,1.127,0,0,0-.289-0.878A1.708,1.708,0,0,0,147.3,73.7a1.8,1.8,0,0,0-1.062.252,1.545,1.545,0,0,0-.507.893l-1-.136a2.465,2.465,0,0,1,.448-1.035,1.961,1.961,0,0,1,.9-0.606,4.009,4.009,0,0,1,1.366-.213,3.611,3.611,0,0,1,1.252.182,1.647,1.647,0,0,1,.708.456,1.607,1.607,0,0,1,.317.694,5.731,5.731,0,0,1,.051.941v1.36a14.411,14.411,0,0,0,.065,1.8,2.27,2.27,0,0,0,.258.723h-1.065A2.159,2.159,0,0,1,148.831,78.269Zm-0.085-2.278a7.509,7.509,0,0,1-1.666.385,3.844,3.844,0,0,0-.89.2,0.886,0.886,0,0,0-.4.332,0.9,0.9,0,0,0,.167,1.165,1.33,1.33,0,0,0,.9.272,2.1,2.1,0,0,0,1.048-.258,1.591,1.591,0,0,0,.675-0.706,2.467,2.467,0,0,0,.164-1.02V75.991Z" transform="translate(-5.171 -5.362)"/><path class="cls-4" d="M151.359,79.011V72.993h0.918v0.855a2.163,2.163,0,0,1,1.916-.992,2.514,2.514,0,0,1,1,.2,1.575,1.575,0,0,1,.683.513,1.969,1.969,0,0,1,.317.754,5.81,5.81,0,0,1,.057.992v3.7h-1.02V75.35a2.741,2.741,0,0,0-.119-0.932,0.979,0.979,0,0,0-.422-0.493,1.346,1.346,0,0,0-.711-0.184,1.652,1.652,0,0,0-1.125.414,2.042,2.042,0,0,0-.473,1.57v3.287h-1.02Z" transform="translate(-5.171 -5.362)"/><path class="cls-4" d="M157.406,77.215l1.009-.159a1.409,1.409,0,0,0,.473.929,1.65,1.65,0,0,0,1.085.323,1.6,1.6,0,0,0,1.043-.286,0.856,0.856,0,0,0,.34-0.672,0.62,0.62,0,0,0-.3-0.544,4.414,4.414,0,0,0-1.043-.346,9.495,9.495,0,0,1-1.556-.49,1.485,1.485,0,0,1-.881-1.38,1.547,1.547,0,0,1,.185-0.745,1.649,1.649,0,0,1,.5-0.57,2.1,2.1,0,0,1,.649-0.3,3.091,3.091,0,0,1,.881-0.122,3.488,3.488,0,0,1,1.244.2,1.693,1.693,0,0,1,.791.553,2.157,2.157,0,0,1,.352.932l-1,.136a1.093,1.093,0,0,0-.394-0.726,1.442,1.442,0,0,0-.921-0.261,1.668,1.668,0,0,0-1,.232,0.677,0.677,0,0,0-.3.544,0.562,0.562,0,0,0,.125.357,0.892,0.892,0,0,0,.391.272q0.153,0.057.9,0.261a12.56,12.56,0,0,1,1.51.474,1.533,1.533,0,0,1,.671.535,1.5,1.5,0,0,1,.244.873,1.713,1.713,0,0,1-.3.96,1.926,1.926,0,0,1-.859.7,3.128,3.128,0,0,1-1.269.247,2.826,2.826,0,0,1-1.788-.488A2.265,2.265,0,0,1,157.406,77.215Z" transform="translate(-5.171 -5.362)"/><rect class="cls-5" x="11.845" y="104.116" width="182.803" height="29.597"/><rect class="cls-6" x="11.845" y="96.137" width="182.803" height="7.979"/><rect class="cls-7" x="11.845" y="96.137" width="182.803" height="7.979"/><g class="cls-8"><path class="cls-4" d="M39.124,127.9v-8.308h2.862a6.922,6.922,0,0,1,1.479.119,2.814,2.814,0,0,1,1.219.595,3.386,3.386,0,0,1,.983,1.42,5.582,5.582,0,0,1,.326,1.975,5.8,5.8,0,0,1-.221,1.677,4.062,4.062,0,0,1-.566,1.21,3.008,3.008,0,0,1-.757.754,3.082,3.082,0,0,1-.992.417,5.671,5.671,0,0,1-1.334.142h-3Zm1.1-.98H42a4.307,4.307,0,0,0,1.29-.153,1.846,1.846,0,0,0,.745-0.431,2.623,2.623,0,0,0,.609-1.051,5.141,5.141,0,0,0,.218-1.6,3.867,3.867,0,0,0-.428-2,2.153,2.153,0,0,0-1.04-.938,4.3,4.3,0,0,0-1.423-.17H40.223v6.347Z" transform="translate(-5.171 -5.362)"/><path class="cls-4" d="M51.5,125.965l1.054,0.13a2.572,2.572,0,0,1-.924,1.434,3.129,3.129,0,0,1-3.817-.3,3.178,3.178,0,0,1-.774-2.281,3.325,3.325,0,0,1,.782-2.357,2.648,2.648,0,0,1,2.029-.839,2.573,2.573,0,0,1,1.972.822,3.265,3.265,0,0,1,.765,2.313c0,0.061,0,.151-0.005.272H48.089a2.315,2.315,0,0,0,.561,1.519,1.67,1.67,0,0,0,1.258.527,1.56,1.56,0,0,0,.958-0.295A1.959,1.959,0,0,0,51.5,125.965Zm-3.35-1.649h3.361a2.041,2.041,0,0,0-.385-1.139,1.563,1.563,0,0,0-1.264-.589,1.62,1.62,0,0,0-1.182.47A1.864,1.864,0,0,0,48.146,124.315Z" transform="translate(-5.171 -5.362)"/><path class="cls-4" d="M54.074,127.9v-5.225h-0.9v-0.793h0.9v-0.641a2.8,2.8,0,0,1,.107-0.9A1.306,1.306,0,0,1,54.7,119.7a1.868,1.868,0,0,1,1.04-.247,4.966,4.966,0,0,1,.952.1l-0.153.89a3.446,3.446,0,0,0-.6-0.057,0.894,0.894,0,0,0-.658.2,1.076,1.076,0,0,0-.192.742v0.556h1.173v0.793H55.089V127.9H54.074Z" transform="translate(-5.171 -5.362)"/><path class="cls-4" d="M57.061,120.768v-1.173h1.021v1.173H57.061Zm0,7.135v-6.019h1.021V127.9H57.061Z" transform="translate(-5.171 -5.362)"/><path class="cls-4" d="M59.634,127.9v-6.019h0.918v0.855a2.163,2.163,0,0,1,1.916-.992,2.514,2.514,0,0,1,1,.2,1.575,1.575,0,0,1,.683.513,1.969,1.969,0,0,1,.317.754,5.81,5.81,0,0,1,.057.992v3.7H63.5v-3.661a2.741,2.741,0,0,0-.119-0.932,0.979,0.979,0,0,0-.422-0.493,1.346,1.346,0,0,0-.711-0.184,1.652,1.652,0,0,0-1.125.414,2.042,2.042,0,0,0-.473,1.57V127.9h-1.02Z" transform="translate(-5.171 -5.362)"/><path class="cls-4" d="M70.209,125.965l1.054,0.13a2.572,2.572,0,0,1-.924,1.434,3.129,3.129,0,0,1-3.817-.3,3.178,3.178,0,0,1-.774-2.281,3.325,3.325,0,0,1,.782-2.357,2.648,2.648,0,0,1,2.029-.839,2.573,2.573,0,0,1,1.972.822,3.265,3.265,0,0,1,.765,2.313c0,0.061,0,.151-0.005.272H66.8a2.315,2.315,0,0,0,.561,1.519,1.67,1.67,0,0,0,1.258.527,1.56,1.56,0,0,0,.958-0.295A1.959,1.959,0,0,0,70.209,125.965Zm-3.35-1.649H70.22a2.041,2.041,0,0,0-.385-1.139,1.563,1.563,0,0,0-1.264-.589,1.62,1.62,0,0,0-1.182.47A1.864,1.864,0,0,0,66.859,124.315Z" transform="translate(-5.171 -5.362)"/><path class="cls-4" d="M76.449,127.9v-0.759a1.873,1.873,0,0,1-1.683.9,2.358,2.358,0,0,1-1.323-.4,2.606,2.606,0,0,1-.936-1.108,3.833,3.833,0,0,1-.332-1.635,4.271,4.271,0,0,1,.3-1.635,2.369,2.369,0,0,1,.9-1.125,2.409,2.409,0,0,1,1.343-.391,2.01,2.01,0,0,1,.969.229,2.033,2.033,0,0,1,.691.6v-2.981H77.4V127.9H76.449Zm-3.225-3a2.613,2.613,0,0,0,.487,1.729,1.47,1.47,0,0,0,1.15.572A1.442,1.442,0,0,0,76,126.653a2.522,2.522,0,0,0,.468-1.669,2.83,2.83,0,0,0-.476-1.813,1.463,1.463,0,0,0-1.173-.578,1.414,1.414,0,0,0-1.136.555A2.742,2.742,0,0,0,73.224,124.9Z" transform="translate(-5.171 -5.362)"/><path class="cls-4" d="M88.282,124.99l1.1,0.278a3.7,3.7,0,0,1-1.244,2.066,3.426,3.426,0,0,1-2.2.711,3.946,3.946,0,0,1-2.185-.547,3.414,3.414,0,0,1-1.281-1.584,5.656,5.656,0,0,1-.439-2.227,4.9,4.9,0,0,1,.5-2.264,3.4,3.4,0,0,1,1.411-1.468,4.123,4.123,0,0,1,2.015-.5,3.4,3.4,0,0,1,2.1.635,3.3,3.3,0,0,1,1.185,1.785l-1.083.255a2.567,2.567,0,0,0-.839-1.32,2.234,2.234,0,0,0-1.383-.414,2.688,2.688,0,0,0-1.6.459,2.426,2.426,0,0,0-.9,1.233,4.96,4.96,0,0,0-.261,1.6,5.069,5.069,0,0,0,.309,1.851,2.3,2.3,0,0,0,.96,1.182,2.693,2.693,0,0,0,1.411.391,2.362,2.362,0,0,0,1.564-.533A2.722,2.722,0,0,0,88.282,124.99Z" transform="translate(-5.171 -5.362)"/><path class="cls-4" d="M90.226,124.894a3.1,3.1,0,0,1,.93-2.477,2.8,2.8,0,0,1,1.893-.669,2.7,2.7,0,0,1,2.029.813,3.093,3.093,0,0,1,.788,2.247,3.98,3.98,0,0,1-.349,1.828A2.469,2.469,0,0,1,94.5,127.67a2.952,2.952,0,0,1-1.454.369A2.707,2.707,0,0,1,91,127.229,3.238,3.238,0,0,1,90.226,124.894Zm1.048,0a2.567,2.567,0,0,0,.5,1.731,1.68,1.68,0,0,0,2.534,0,2.626,2.626,0,0,0,.5-1.763,2.487,2.487,0,0,0-.507-1.691,1.682,1.682,0,0,0-2.531,0A2.554,2.554,0,0,0,91.274,124.894Z" transform="translate(-5.171 -5.362)"/><path class="cls-4" d="M97.06,127.9v-6.019h0.918v0.855a2.163,2.163,0,0,1,1.916-.992,2.514,2.514,0,0,1,1,.2,1.575,1.575,0,0,1,.683.513,1.969,1.969,0,0,1,.317.754,5.81,5.81,0,0,1,.057.992v3.7h-1.02v-3.661a2.741,2.741,0,0,0-.119-0.932,0.979,0.979,0,0,0-.422-0.493,1.346,1.346,0,0,0-.711-0.184,1.652,1.652,0,0,0-1.125.414,2.042,2.042,0,0,0-.473,1.57V127.9H97.06Z" transform="translate(-5.171 -5.362)"/><path class="cls-4" d="M105.742,126.99l0.147,0.9a3.808,3.808,0,0,1-.771.09,1.751,1.751,0,0,1-.862-0.175,0.985,0.985,0,0,1-.431-0.462,3.659,3.659,0,0,1-.125-1.2v-3.462h-0.748v-0.793H103.7v-1.491l1.014-.612v2.1h1.026v0.793h-1.026V126.2a1.765,1.765,0,0,0,.054.561,0.422,0.422,0,0,0,.176.2,0.68,0.68,0,0,0,.348.074A3.263,3.263,0,0,0,105.742,126.99Z" transform="translate(-5.171 -5.362)"/><path class="cls-4" d="M106.729,127.9v-6.019h0.918V122.8a2.494,2.494,0,0,1,.649-0.845,1.134,1.134,0,0,1,.654-0.2,2,2,0,0,1,1.049.329l-0.352.947a1.459,1.459,0,0,0-.748-0.221,0.972,0.972,0,0,0-.6.2,1.091,1.091,0,0,0-.38.558,3.978,3.978,0,0,0-.17,1.19V127.9h-1.02Z" transform="translate(-5.171 -5.362)"/><path class="cls-4" d="M110.61,120.768v-1.173h1.021v1.173H110.61Zm0,7.135v-6.019h1.021V127.9H110.61Z" transform="translate(-5.171 -5.362)"/><path class="cls-4" d="M114.125,127.9h-0.947v-8.308h1.02v2.964a2.02,2.02,0,0,1,1.649-.811,2.524,2.524,0,0,1,1.051.224,2.148,2.148,0,0,1,.816.629,3.038,3.038,0,0,1,.5.978,4.028,4.028,0,0,1,.182,1.224,3.437,3.437,0,0,1-.765,2.392,2.394,2.394,0,0,1-1.836.845,1.916,1.916,0,0,1-1.671-.89V127.9Zm-0.012-3.055a3.118,3.118,0,0,0,.295,1.564,1.458,1.458,0,0,0,2.459.207,2.638,2.638,0,0,0,.487-1.731,2.686,2.686,0,0,0-.467-1.74,1.424,1.424,0,0,0-1.131-.561,1.467,1.467,0,0,0-1.156.581A2.548,2.548,0,0,0,114.113,124.848Z" transform="translate(-5.171 -5.362)"/><path class="cls-4" d="M123.583,127.9v-0.884a2.2,2.2,0,0,1-1.91,1.021,2.436,2.436,0,0,1-.995-0.2,1.64,1.64,0,0,1-.686-0.513,1.926,1.926,0,0,1-.314-0.756,5.181,5.181,0,0,1-.062-0.952v-3.729h1.021v3.338a5.962,5.962,0,0,0,.062,1.077,1.063,1.063,0,0,0,.408.632,1.262,1.262,0,0,0,.771.23,1.682,1.682,0,0,0,.862-0.235,1.306,1.306,0,0,0,.569-0.641,3.214,3.214,0,0,0,.167-1.176v-3.225h1.02V127.9h-0.913Z" transform="translate(-5.171 -5.362)"/><path class="cls-4" d="M128.321,126.99l0.147,0.9a3.808,3.808,0,0,1-.771.09,1.751,1.751,0,0,1-.862-0.175,0.985,0.985,0,0,1-.431-0.462,3.659,3.659,0,0,1-.125-1.2v-3.462h-0.748v-0.793h0.748v-1.491l1.014-.612v2.1h1.026v0.793h-1.026V126.2a1.765,1.765,0,0,0,.054.561,0.422,0.422,0,0,0,.176.2,0.68,0.68,0,0,0,.348.074A3.263,3.263,0,0,0,128.321,126.99Z" transform="translate(-5.171 -5.362)"/><path class="cls-4" d="M129.324,120.768v-1.173h1.021v1.173h-1.021Zm0,7.135v-6.019h1.021V127.9h-1.021Z" transform="translate(-5.171 -5.362)"/><path class="cls-4" d="M131.517,124.894a3.1,3.1,0,0,1,.93-2.477,2.8,2.8,0,0,1,1.893-.669,2.7,2.7,0,0,1,2.029.813,3.093,3.093,0,0,1,.788,2.247,3.98,3.98,0,0,1-.349,1.828,2.469,2.469,0,0,1-1.015,1.034,2.952,2.952,0,0,1-1.454.369,2.707,2.707,0,0,1-2.043-.811A3.238,3.238,0,0,1,131.517,124.894Zm1.048,0a2.567,2.567,0,0,0,.5,1.731,1.68,1.68,0,0,0,2.534,0,2.626,2.626,0,0,0,.5-1.763,2.487,2.487,0,0,0-.507-1.691,1.682,1.682,0,0,0-2.531,0A2.554,2.554,0,0,0,132.565,124.894Z" transform="translate(-5.171 -5.362)"/><path class="cls-4" d="M138.352,127.9v-6.019h0.918v0.855a2.163,2.163,0,0,1,1.916-.992,2.514,2.514,0,0,1,1,.2,1.575,1.575,0,0,1,.683.513,1.969,1.969,0,0,1,.317.754,5.81,5.81,0,0,1,.057.992v3.7h-1.02v-3.661a2.741,2.741,0,0,0-.119-0.932,0.979,0.979,0,0,0-.422-0.493,1.346,1.346,0,0,0-.711-0.184,1.652,1.652,0,0,0-1.125.414,2.042,2.042,0,0,0-.473,1.57V127.9h-1.02Z" transform="translate(-5.171 -5.362)"/><path class="cls-4" d="M148.162,127.9v-8.308H151.3a7.594,7.594,0,0,1,1.264.079,2.514,2.514,0,0,1,1.025.388,2.038,2.038,0,0,1,.666.8,2.7,2.7,0,0,1-.422,2.927,3.232,3.232,0,0,1-2.437.734h-2.131V127.9h-1.1Zm1.1-4.358h2.148a2.276,2.276,0,0,0,1.513-.4,1.413,1.413,0,0,0,.448-1.116,1.5,1.5,0,0,0-.263-0.893,1.231,1.231,0,0,0-.694-0.49,4.685,4.685,0,0,0-1.026-.074h-2.125v2.97Z" transform="translate(-5.171 -5.362)"/><path class="cls-4" d="M155.75,127.9v-8.308h1.021V127.9H155.75Z" transform="translate(-5.171 -5.362)"/><path class="cls-4" d="M162.279,127.161a3.8,3.8,0,0,1-1.091.68,3.152,3.152,0,0,1-1.125.2,2.187,2.187,0,0,1-1.524-.485,1.6,1.6,0,0,1-.533-1.238,1.678,1.678,0,0,1,.728-1.394,2.48,2.48,0,0,1,.734-0.334,7.269,7.269,0,0,1,.907-0.153,9.3,9.3,0,0,0,1.819-.352c0-.14.006-0.229,0.006-0.266a1.127,1.127,0,0,0-.289-0.878,1.708,1.708,0,0,0-1.162-.346,1.8,1.8,0,0,0-1.062.252,1.545,1.545,0,0,0-.507.893l-1-.136a2.465,2.465,0,0,1,.448-1.035,1.961,1.961,0,0,1,.9-0.606,4.009,4.009,0,0,1,1.366-.213,3.611,3.611,0,0,1,1.252.182,1.647,1.647,0,0,1,.708.456,1.607,1.607,0,0,1,.317.694,5.731,5.731,0,0,1,.051.941v1.36a14.411,14.411,0,0,0,.065,1.8,2.27,2.27,0,0,0,.258.723h-1.065A2.159,2.159,0,0,1,162.279,127.161Zm-0.085-2.278a7.509,7.509,0,0,1-1.666.385,3.844,3.844,0,0,0-.89.2,0.886,0.886,0,0,0-.4.332,0.9,0.9,0,0,0,.167,1.165,1.33,1.33,0,0,0,.9.272,2.1,2.1,0,0,0,1.048-.258,1.591,1.591,0,0,0,.675-0.706,2.467,2.467,0,0,0,.164-1.02v-0.374Z" transform="translate(-5.171 -5.362)"/><path class="cls-4" d="M164.807,127.9v-6.019h0.918v0.855a2.163,2.163,0,0,1,1.916-.992,2.514,2.514,0,0,1,1,.2,1.575,1.575,0,0,1,.683.513,1.969,1.969,0,0,1,.317.754,5.81,5.81,0,0,1,.057.992v3.7h-1.02v-3.661a2.741,2.741,0,0,0-.119-0.932,0.979,0.979,0,0,0-.422-0.493,1.346,1.346,0,0,0-.711-0.184,1.652,1.652,0,0,0-1.125.414,2.042,2.042,0,0,0-.473,1.57V127.9h-1.02Z" transform="translate(-5.171 -5.362)"/><path class="cls-4" d="M170.854,126.106l1.009-.159a1.409,1.409,0,0,0,.473.929,1.65,1.65,0,0,0,1.085.323,1.6,1.6,0,0,0,1.043-.286,0.856,0.856,0,0,0,.34-0.672,0.62,0.62,0,0,0-.3-0.544,4.414,4.414,0,0,0-1.043-.346,9.495,9.495,0,0,1-1.556-.49,1.485,1.485,0,0,1-.881-1.38,1.547,1.547,0,0,1,.185-0.745,1.649,1.649,0,0,1,.5-0.57,2.1,2.1,0,0,1,.649-0.3,3.091,3.091,0,0,1,.881-0.122,3.488,3.488,0,0,1,1.244.2,1.693,1.693,0,0,1,.791.553,2.157,2.157,0,0,1,.352.932l-1,.136a1.093,1.093,0,0,0-.394-0.726,1.442,1.442,0,0,0-.921-0.261,1.668,1.668,0,0,0-1,.232,0.677,0.677,0,0,0-.3.544,0.562,0.562,0,0,0,.125.357,0.892,0.892,0,0,0,.391.272q0.153,0.057.9,0.261a12.56,12.56,0,0,1,1.51.474,1.533,1.533,0,0,1,.671.535,1.5,1.5,0,0,1,.244.873,1.713,1.713,0,0,1-.3.96,1.926,1.926,0,0,1-.859.7,3.128,3.128,0,0,1-1.269.247,2.826,2.826,0,0,1-1.788-.488A2.265,2.265,0,0,1,170.854,126.106Z" transform="translate(-5.171 -5.362)"/></g><path class="cls-4" d="M178.067,33.675a6.155,6.155,0,0,0,1.511.791L178.884,35.8a4.281,4.281,0,0,1-.835-0.351q-0.089-.045-1.256-0.829a5.025,5.025,0,0,1-2.034.4,4.464,4.464,0,0,1-3.375-1.269,4.93,4.93,0,0,1-1.221-3.564,4.926,4.926,0,0,1,1.224-3.561,4.4,4.4,0,0,1,3.322-1.272,4.35,4.35,0,0,1,3.3,1.272,4.943,4.943,0,0,1,1.218,3.561,6.154,6.154,0,0,1-.338,2.129A4.432,4.432,0,0,1,178.067,33.675ZM176.55,32.61a2.82,2.82,0,0,0,.545-1.033,4.84,4.84,0,0,0,.182-1.39,3.544,3.544,0,0,0-.714-2.419,2.581,2.581,0,0,0-3.739,0,3.532,3.532,0,0,0-.717,2.417,3.614,3.614,0,0,0,.717,2.452,2.315,2.315,0,0,0,1.813.813,2.211,2.211,0,0,0,.771-0.134,5.465,5.465,0,0,0-1.167-.586l0.529-1.078A6.422,6.422,0,0,1,176.55,32.61Z" transform="translate(-5.171 -5.362)"/><path class="cls-4" d="M185.145,34.861V33.847a2.612,2.612,0,0,1-.973.854,2.728,2.728,0,0,1-1.272.312,2.488,2.488,0,0,1-1.224-.3,1.769,1.769,0,0,1-.784-0.842,3.754,3.754,0,0,1-.242-1.5V28.09h1.792V31.2a8.612,8.612,0,0,0,.1,1.75,0.951,0.951,0,0,0,.36.51,1.107,1.107,0,0,0,.663.188,1.41,1.41,0,0,0,.823-0.252,1.28,1.28,0,0,0,.5-0.625,7.251,7.251,0,0,0,.134-1.827V28.09h1.792v6.771h-1.664Z" transform="translate(-5.171 -5.362)"/><path class="cls-4" d="M190,30.156l-1.625-.293a2.532,2.532,0,0,1,.943-1.454,3.454,3.454,0,0,1,1.989-.472,4.289,4.289,0,0,1,1.785.284,1.779,1.779,0,0,1,.826.72,3.691,3.691,0,0,1,.239,1.6l-0.019,2.091a7.235,7.235,0,0,0,.086,1.316,3.828,3.828,0,0,0,.322.909h-1.772q-0.07-.179-0.172-0.529c-0.03-.106-0.051-0.176-0.064-0.21a3.213,3.213,0,0,1-.982.669,2.807,2.807,0,0,1-1.116.223,2.307,2.307,0,0,1-1.648-.567,1.885,1.885,0,0,1-.6-1.435,1.921,1.921,0,0,1,.274-1.023,1.791,1.791,0,0,1,.768-0.689,6.022,6.022,0,0,1,1.425-.417,9.744,9.744,0,0,0,1.741-.44V30.264a0.928,0.928,0,0,0-.255-0.736,1.527,1.527,0,0,0-.963-0.22,1.286,1.286,0,0,0-.746.188A1.313,1.313,0,0,0,190,30.156Zm2.4,1.454a11.2,11.2,0,0,1-1.09.274,3.3,3.3,0,0,0-.976.313,0.748,0.748,0,0,0-.351.631,0.88,0.88,0,0,0,.281.65,0.979,0.979,0,0,0,.714.274,1.55,1.55,0,0,0,.925-0.319,1.12,1.12,0,0,0,.427-0.593,3.532,3.532,0,0,0,.07-0.874V31.609Z" transform="translate(-5.171 -5.362)"/><path class="cls-4" d="M195.925,34.861V25.514h1.792v9.347h-1.792Z" transform="translate(-5.171 -5.362)"/><path class="cls-4" d="M199.553,27.172V25.514h1.792v1.658h-1.792Zm0,7.689V28.09h1.792v6.771h-1.792Z" transform="translate(-5.171 -5.362)"/><path class="cls-4" d="M202.4,28.09h0.995V27.58a3.391,3.391,0,0,1,.182-1.275,1.443,1.443,0,0,1,.669-0.686,2.571,2.571,0,0,1,1.234-.265,4.981,4.981,0,0,1,1.5.23l-0.243,1.25a3.543,3.543,0,0,0-.822-0.1,0.734,0.734,0,0,0-.558.182,1.055,1.055,0,0,0-.169.7V28.09h1.339V29.5h-1.339v5.362h-1.792V29.5H202.4V28.09Z" transform="translate(-5.171 -5.362)"/><path class="cls-4" d="M207.529,27.172V25.514h1.792v1.658h-1.792Zm0,7.689V28.09h1.792v6.771h-1.792Z" transform="translate(-5.171 -5.362)"/><path class="cls-4" d="M215.078,32.706l1.785,0.3a2.927,2.927,0,0,1-1.087,1.5,3.192,3.192,0,0,1-1.858.513A3.028,3.028,0,0,1,211.3,33.86a3.877,3.877,0,0,1-.669-2.333,3.737,3.737,0,0,1,.88-2.636,2.9,2.9,0,0,1,2.225-.953,3.006,3.006,0,0,1,2.384,1,4.416,4.416,0,0,1,.835,3.057H212.47a1.812,1.812,0,0,0,.434,1.24,1.356,1.356,0,0,0,1.033.443,1.1,1.1,0,0,0,.708-0.229A1.418,1.418,0,0,0,215.078,32.706Zm0.1-1.811a1.725,1.725,0,0,0-.4-1.183,1.232,1.232,0,0,0-.931-0.4,1.245,1.245,0,0,0-.969.427,1.652,1.652,0,0,0-.376,1.16h2.678Z" transform="translate(-5.171 -5.362)"/><path class="cls-4" d="M224.629,34.861h-1.664V33.866a2.689,2.689,0,0,1-.979.864,2.506,2.506,0,0,1-1.138.284,2.577,2.577,0,0,1-2-.94,3.825,3.825,0,0,1-.832-2.624,3.782,3.782,0,0,1,.81-2.617,2.64,2.64,0,0,1,2.047-.9,2.535,2.535,0,0,1,1.963.943V25.514h1.792v9.347Zm-4.782-3.532a3.1,3.1,0,0,0,.3,1.568,1.354,1.354,0,0,0,1.211.7,1.318,1.318,0,0,0,1.052-.526,2.426,2.426,0,0,0,.434-1.571,2.656,2.656,0,0,0-.421-1.68,1.383,1.383,0,0,0-2.145-.006A2.289,2.289,0,0,0,219.847,31.329Z" transform="translate(-5.171 -5.362)"/><path class="cls-4" d="M230.036,34.861V25.514h3.028a11,11,0,0,1,2.244.14,2.45,2.45,0,0,1,1.345.915,2.9,2.9,0,0,1,.542,1.82,3.047,3.047,0,0,1-.312,1.447,2.557,2.557,0,0,1-.794.921,2.733,2.733,0,0,1-.979.443,10.765,10.765,0,0,1-1.957.134h-1.23v3.526h-1.887Zm1.887-7.766v2.652h1.033a4.883,4.883,0,0,0,1.492-.146,1.24,1.24,0,0,0,.59-0.459,1.256,1.256,0,0,0,.213-0.727,1.209,1.209,0,0,0-.3-0.842,1.307,1.307,0,0,0-.759-0.414,9.069,9.069,0,0,0-1.358-.064h-0.912Z" transform="translate(-5.171 -5.362)"/><path class="cls-4" d="M238.731,34.861V25.514h1.792v9.347h-1.792Z" transform="translate(-5.171 -5.362)"/><path class="cls-4" d="M243.7,30.156l-1.625-.293a2.532,2.532,0,0,1,.943-1.454,3.454,3.454,0,0,1,1.989-.472,4.289,4.289,0,0,1,1.785.284,1.779,1.779,0,0,1,.826.72,3.691,3.691,0,0,1,.239,1.6l-0.019,2.091a7.235,7.235,0,0,0,.086,1.316,3.828,3.828,0,0,0,.322.909h-1.772q-0.07-.179-0.172-0.529c-0.03-.106-0.051-0.176-0.064-0.21a3.213,3.213,0,0,1-.982.669,2.807,2.807,0,0,1-1.116.223,2.307,2.307,0,0,1-1.648-.567,1.885,1.885,0,0,1-.6-1.435,1.921,1.921,0,0,1,.274-1.023,1.791,1.791,0,0,1,.768-0.689,6.022,6.022,0,0,1,1.425-.417,9.744,9.744,0,0,0,1.741-.44V30.264a0.928,0.928,0,0,0-.255-0.736,1.527,1.527,0,0,0-.963-0.22,1.286,1.286,0,0,0-.746.188A1.313,1.313,0,0,0,243.7,30.156Zm2.4,1.454a11.2,11.2,0,0,1-1.09.274,3.3,3.3,0,0,0-.976.313,0.748,0.748,0,0,0-.351.631,0.88,0.88,0,0,0,.281.65,0.979,0.979,0,0,0,.714.274,1.55,1.55,0,0,0,.925-0.319,1.12,1.12,0,0,0,.427-0.593,3.532,3.532,0,0,0,.07-0.874V31.609Z" transform="translate(-5.171 -5.362)"/><path class="cls-4" d="M255.78,34.861h-1.792V31.405a5.354,5.354,0,0,0-.115-1.418,1,1,0,0,0-.373-0.5,1.066,1.066,0,0,0-.622-0.179,1.437,1.437,0,0,0-.835.255,1.287,1.287,0,0,0-.507.676,5.846,5.846,0,0,0-.137,1.556v3.067h-1.792V28.09h1.664v0.995a2.776,2.776,0,0,1,3.315-.934,1.818,1.818,0,0,1,.743.545,1.972,1.972,0,0,1,.351.752,5.591,5.591,0,0,1,.1,1.205v4.208Z" transform="translate(-5.171 -5.362)"/><path class="cls-4" d="M256.966,32.929l1.8-.274a1.318,1.318,0,0,0,.465.794,1.573,1.573,0,0,0,.982.271,1.768,1.768,0,0,0,1.045-.255,0.569,0.569,0,0,0,.236-0.478,0.471,0.471,0,0,0-.127-0.338,1.426,1.426,0,0,0-.6-0.236,9.66,9.66,0,0,1-2.748-.874,1.744,1.744,0,0,1-.8-1.524,1.877,1.877,0,0,1,.695-1.479,3.246,3.246,0,0,1,2.155-.6,3.76,3.76,0,0,1,2.065.453,2.315,2.315,0,0,1,.931,1.339l-1.69.313a1.043,1.043,0,0,0-.411-0.606,1.5,1.5,0,0,0-.864-0.21,1.946,1.946,0,0,0-1.014.2,0.425,0.425,0,0,0-.2.363,0.4,0.4,0,0,0,.179.325,6.7,6.7,0,0,0,1.673.5,4.987,4.987,0,0,1,2,.8,1.658,1.658,0,0,1,.561,1.333,2.045,2.045,0,0,1-.778,1.6,3.444,3.444,0,0,1-2.3.669,3.776,3.776,0,0,1-2.19-.561A2.582,2.582,0,0,1,256.966,32.929Z" transform="translate(-5.171 -5.362)"/><line class="cls-9" x1="194.648" y1="67.9" x2="213.033" y2="67.9"/><line class="cls-9" x1="213.033" y1="67.9" x2="213.033" y2="241.908"/><line class="cls-9" x1="213.033" y1="165.83" x2="231.418" y2="165.83"/><line class="cls-9" x1="213.033" y1="88.121" x2="231.418" y2="88.121"/><line class="cls-9" x1="213.033" y1="241.908" x2="231.418" y2="241.908"/><rect class="cls-2" x="231.418" y="77.313" width="182.803" height="29.597"/><rect class="cls-3" x="231.418" y="69.333" width="182.803" height="7.979"/><rect class="cls-2" x="231.418" y="69.333" width="182.803" height="7.979"/><path class="cls-4" d="M246.972,101.1V93.772h-2.737v-0.98h6.585v0.98h-2.749V101.1h-1.1Z" transform="translate(-5.171 -5.362)"/><path class="cls-4" d="M251.806,101.1V95.082h0.918v0.913a2.494,2.494,0,0,1,.649-0.845,1.134,1.134,0,0,1,.654-0.2,2,2,0,0,1,1.049.329l-0.352.947A1.459,1.459,0,0,0,253.977,96a0.972,0.972,0,0,0-.6.2,1.091,1.091,0,0,0-.38.558,3.978,3.978,0,0,0-.17,1.19V101.1h-1.02Z" transform="translate(-5.171 -5.362)"/><path class="cls-4" d="M259.609,100.358a3.8,3.8,0,0,1-1.091.68,3.152,3.152,0,0,1-1.125.2,2.187,2.187,0,0,1-1.524-.485,1.6,1.6,0,0,1-.533-1.238,1.678,1.678,0,0,1,.728-1.394,2.48,2.48,0,0,1,.734-0.334,7.269,7.269,0,0,1,.907-0.153,9.3,9.3,0,0,0,1.819-.352c0-.14.006-0.229,0.006-0.266a1.127,1.127,0,0,0-.289-0.878,1.708,1.708,0,0,0-1.162-.346,1.8,1.8,0,0,0-1.062.252,1.545,1.545,0,0,0-.507.893l-1-.136a2.465,2.465,0,0,1,.448-1.035,1.961,1.961,0,0,1,.9-0.606,4.009,4.009,0,0,1,1.366-.213,3.611,3.611,0,0,1,1.252.182,1.647,1.647,0,0,1,.708.456,1.607,1.607,0,0,1,.317.694,5.731,5.731,0,0,1,.051.941v1.36a14.411,14.411,0,0,0,.065,1.8,2.27,2.27,0,0,0,.258.723h-1.065A2.159,2.159,0,0,1,259.609,100.358Zm-0.085-2.278a7.509,7.509,0,0,1-1.666.385,3.844,3.844,0,0,0-.89.2,0.886,0.886,0,0,0-.4.332,0.9,0.9,0,0,0,.167,1.165,1.33,1.33,0,0,0,.9.272,2.1,2.1,0,0,0,1.048-.258,1.591,1.591,0,0,0,.675-0.706,2.467,2.467,0,0,0,.164-1.02V98.08Z" transform="translate(-5.171 -5.362)"/><path class="cls-4" d="M266.042,101.1v-0.759a1.873,1.873,0,0,1-1.683.9,2.358,2.358,0,0,1-1.323-.4,2.606,2.606,0,0,1-.936-1.108,3.833,3.833,0,0,1-.332-1.635,4.271,4.271,0,0,1,.3-1.635,2.369,2.369,0,0,1,.9-1.125,2.409,2.409,0,0,1,1.343-.391,2.01,2.01,0,0,1,.969.229,2.033,2.033,0,0,1,.691.6V92.792h1.014V101.1h-0.946Zm-3.225-3a2.613,2.613,0,0,0,.487,1.729,1.47,1.47,0,0,0,1.15.572,1.442,1.442,0,0,0,1.136-.547,2.522,2.522,0,0,0,.468-1.669,2.83,2.83,0,0,0-.476-1.813,1.463,1.463,0,0,0-1.173-.578,1.414,1.414,0,0,0-1.136.555A2.742,2.742,0,0,0,262.817,98.1Z" transform="translate(-5.171 -5.362)"/><path class="cls-4" d="M268.6,93.965V92.792h1.021v1.173H268.6Zm0,7.135V95.082h1.021V101.1H268.6Z" transform="translate(-5.171 -5.362)"/><path class="cls-4" d="M273.4,100.188l0.147,0.9a3.808,3.808,0,0,1-.771.09,1.751,1.751,0,0,1-.862-0.175,0.985,0.985,0,0,1-.431-0.462,3.659,3.659,0,0,1-.125-1.2V95.875H270.61V95.082h0.748V93.591l1.014-.612v2.1H273.4v0.793h-1.026v3.519a1.765,1.765,0,0,0,.054.561,0.422,0.422,0,0,0,.176.2,0.68,0.68,0,0,0,.348.074A3.263,3.263,0,0,0,273.4,100.188Z" transform="translate(-5.171 -5.362)"/><path class="cls-4" d="M274.4,93.965V92.792h1.021v1.173H274.4Zm0,7.135V95.082h1.021V101.1H274.4Z" transform="translate(-5.171 -5.362)"/><path class="cls-4" d="M276.594,98.091a3.1,3.1,0,0,1,.93-2.477,2.8,2.8,0,0,1,1.893-.669,2.7,2.7,0,0,1,2.029.813,3.093,3.093,0,0,1,.788,2.247,3.98,3.98,0,0,1-.349,1.828,2.469,2.469,0,0,1-1.015,1.034,2.952,2.952,0,0,1-1.454.369,2.707,2.707,0,0,1-2.043-.811A3.238,3.238,0,0,1,276.594,98.091Zm1.048,0a2.567,2.567,0,0,0,.5,1.731,1.68,1.68,0,0,0,2.534,0,2.626,2.626,0,0,0,.5-1.763,2.487,2.487,0,0,0-.507-1.691,1.682,1.682,0,0,0-2.531,0A2.554,2.554,0,0,0,277.643,98.091Z" transform="translate(-5.171 -5.362)"/><path class="cls-4" d="M283.429,101.1V95.082h0.918v0.855a2.163,2.163,0,0,1,1.916-.992,2.514,2.514,0,0,1,1,.2,1.575,1.575,0,0,1,.683.513,1.969,1.969,0,0,1,.317.754,5.81,5.81,0,0,1,.057.992v3.7H287.3V97.439a2.741,2.741,0,0,0-.119-0.932,0.979,0.979,0,0,0-.422-0.493,1.346,1.346,0,0,0-.711-0.184,1.652,1.652,0,0,0-1.125.414,2.042,2.042,0,0,0-.473,1.57V101.1h-1.02Z" transform="translate(-5.171 -5.362)"/><path class="cls-4" d="M293.812,100.358a3.8,3.8,0,0,1-1.091.68,3.152,3.152,0,0,1-1.125.2,2.187,2.187,0,0,1-1.524-.485,1.6,1.6,0,0,1-.533-1.238,1.678,1.678,0,0,1,.728-1.394A2.48,2.48,0,0,1,291,97.785a7.269,7.269,0,0,1,.907-0.153,9.3,9.3,0,0,0,1.819-.352c0-.14.006-0.229,0.006-0.266a1.127,1.127,0,0,0-.289-0.878,1.708,1.708,0,0,0-1.162-.346,1.8,1.8,0,0,0-1.062.252,1.545,1.545,0,0,0-.507.893l-1-.136a2.465,2.465,0,0,1,.448-1.035,1.961,1.961,0,0,1,.9-0.606,4.009,4.009,0,0,1,1.366-.213,3.611,3.611,0,0,1,1.252.182,1.647,1.647,0,0,1,.708.456,1.607,1.607,0,0,1,.317.694,5.731,5.731,0,0,1,.051.941v1.36a14.411,14.411,0,0,0,.065,1.8,2.27,2.27,0,0,0,.258.723h-1.065A2.159,2.159,0,0,1,293.812,100.358Zm-0.085-2.278a7.509,7.509,0,0,1-1.666.385,3.844,3.844,0,0,0-.89.2,0.886,0.886,0,0,0-.4.332,0.9,0.9,0,0,0,.167,1.165,1.33,1.33,0,0,0,.9.272,2.1,2.1,0,0,0,1.048-.258,1.591,1.591,0,0,0,.675-0.706,2.467,2.467,0,0,0,.164-1.02V98.08Z" transform="translate(-5.171 -5.362)"/><path class="cls-4" d="M296.316,101.1V92.792h1.021V101.1h-1.021Z" transform="translate(-5.171 -5.362)"/><path class="cls-4" d="M302.272,101.1V92.792h2.862a6.92,6.92,0,0,1,1.479.119,2.808,2.808,0,0,1,1.219.595,3.386,3.386,0,0,1,.983,1.42,5.583,5.583,0,0,1,.325,1.975,5.8,5.8,0,0,1-.221,1.677,4.074,4.074,0,0,1-.566,1.21,3,3,0,0,1-.757.754,3.079,3.079,0,0,1-.991.417,5.681,5.681,0,0,1-1.335.142h-3Zm1.1-.98h1.773a4.3,4.3,0,0,0,1.289-.153,1.847,1.847,0,0,0,.746-0.431,2.633,2.633,0,0,0,.608-1.051,5.14,5.14,0,0,0,.219-1.6,3.867,3.867,0,0,0-.428-2,2.152,2.152,0,0,0-1.04-.938,4.306,4.306,0,0,0-1.423-.17h-1.745v6.347Z" transform="translate(-5.171 -5.362)"/><path class="cls-4" d="M314.644,99.162l1.055,0.13a2.572,2.572,0,0,1-.924,1.434,3.129,3.129,0,0,1-3.817-.3,3.177,3.177,0,0,1-.773-2.281,3.325,3.325,0,0,1,.782-2.357A2.648,2.648,0,0,1,313,94.945a2.572,2.572,0,0,1,1.972.822,3.267,3.267,0,0,1,.766,2.313c0,0.061,0,.151-0.006.272h-4.488a2.31,2.31,0,0,0,.561,1.519,1.67,1.67,0,0,0,1.259.527,1.557,1.557,0,0,0,.957-0.295A1.949,1.949,0,0,0,314.644,99.162Zm-3.349-1.649h3.36a2.034,2.034,0,0,0-.386-1.139,1.562,1.562,0,0,0-1.264-.589,1.622,1.622,0,0,0-1.182.47A1.863,1.863,0,0,0,311.295,97.513Z" transform="translate(-5.171 -5.362)"/><path class="cls-4" d="M317.223,101.1V95.875h-0.9V95.082h0.9V94.441a2.817,2.817,0,0,1,.107-0.9,1.306,1.306,0,0,1,.519-0.643,1.87,1.87,0,0,1,1.04-.247,4.966,4.966,0,0,1,.952.1l-0.153.89a3.429,3.429,0,0,0-.6-0.057,0.894,0.894,0,0,0-.657.2,1.078,1.078,0,0,0-.192.742v0.556h1.173v0.793h-1.173V101.1h-1.015Z" transform="translate(-5.171 -5.362)"/><path class="cls-4" d="M320.209,93.965V92.792h1.021v1.173h-1.021Zm0,7.135V95.082h1.021V101.1h-1.021Z" transform="translate(-5.171 -5.362)"/><path class="cls-4" d="M322.782,101.1V95.082H323.7v0.855a2.162,2.162,0,0,1,1.915-.992,2.511,2.511,0,0,1,1,.2,1.575,1.575,0,0,1,.684.513,1.984,1.984,0,0,1,.317.754,5.916,5.916,0,0,1,.057.992v3.7h-1.021V97.439a2.754,2.754,0,0,0-.119-0.932,0.979,0.979,0,0,0-.422-0.493,1.345,1.345,0,0,0-.711-0.184,1.652,1.652,0,0,0-1.125.414,2.041,2.041,0,0,0-.474,1.57V101.1h-1.021Z" transform="translate(-5.171 -5.362)"/><path class="cls-4" d="M333.357,99.162l1.055,0.13a2.572,2.572,0,0,1-.924,1.434,3.129,3.129,0,0,1-3.817-.3,3.177,3.177,0,0,1-.773-2.281,3.325,3.325,0,0,1,.782-2.357,2.648,2.648,0,0,1,2.029-.839,2.572,2.572,0,0,1,1.972.822,3.267,3.267,0,0,1,.766,2.313c0,0.061,0,.151-0.006.272h-4.488a2.31,2.31,0,0,0,.561,1.519,1.67,1.67,0,0,0,1.259.527,1.557,1.557,0,0,0,.957-0.295A1.949,1.949,0,0,0,333.357,99.162Zm-3.349-1.649h3.36a2.034,2.034,0,0,0-.386-1.139,1.562,1.562,0,0,0-1.264-.589,1.622,1.622,0,0,0-1.182.47A1.863,1.863,0,0,0,330.009,97.513Z" transform="translate(-5.171 -5.362)"/><path class="cls-4" d="M339.6,101.1v-0.759a1.873,1.873,0,0,1-1.684.9,2.36,2.36,0,0,1-1.323-.4,2.6,2.6,0,0,1-.935-1.108,3.819,3.819,0,0,1-.332-1.635,4.28,4.28,0,0,1,.3-1.635,2.364,2.364,0,0,1,.9-1.125,2.407,2.407,0,0,1,1.343-.391,2.008,2.008,0,0,1,.969.229,2.033,2.033,0,0,1,.691.6V92.792h1.015V101.1H339.6Zm-3.225-3a2.613,2.613,0,0,0,.487,1.729,1.47,1.47,0,0,0,1.15.572,1.445,1.445,0,0,0,1.137-.547,2.523,2.523,0,0,0,.467-1.669,2.83,2.83,0,0,0-.476-1.813,1.464,1.464,0,0,0-1.173-.578,1.413,1.413,0,0,0-1.137.555A2.745,2.745,0,0,0,336.373,98.1Z" transform="translate(-5.171 -5.362)"/><path class="cls-4" d="M345.457,101.1V92.792h3.117a3.859,3.859,0,0,1,1.527.252,1.97,1.97,0,0,1,.9.776,2.052,2.052,0,0,1,.326,1.1,1.888,1.888,0,0,1-.289,1,2.073,2.073,0,0,1-.873.759,2.169,2.169,0,0,1,1.159.754,2.022,2.022,0,0,1,.405,1.258,2.419,2.419,0,0,1-.247,1.085,2.092,2.092,0,0,1-.609.773,2.537,2.537,0,0,1-.909.411,5.545,5.545,0,0,1-1.34.139h-3.169Zm1.1-4.817h1.8a4.006,4.006,0,0,0,1.049-.1,1.167,1.167,0,0,0,.632-0.414,1.193,1.193,0,0,0,.212-0.726,1.33,1.33,0,0,0-.2-0.728,1,1,0,0,0-.566-0.431,4.728,4.728,0,0,0-1.264-.116h-1.661v2.51Zm0,3.837h2.069a4.789,4.789,0,0,0,.748-0.04,1.808,1.808,0,0,0,.635-0.227,1.2,1.2,0,0,0,.419-0.462,1.448,1.448,0,0,0,.164-0.7,1.385,1.385,0,0,0-.237-0.808,1.255,1.255,0,0,0-.661-0.481,4.081,4.081,0,0,0-1.215-.139h-1.922v2.856Z" transform="translate(-5.171 -5.362)"/><path class="cls-4" d="M357.233,99.162l1.055,0.13a2.572,2.572,0,0,1-.924,1.434,3.129,3.129,0,0,1-3.817-.3,3.177,3.177,0,0,1-.773-2.281,3.325,3.325,0,0,1,.782-2.357,2.648,2.648,0,0,1,2.029-.839,2.572,2.572,0,0,1,1.972.822,3.267,3.267,0,0,1,.766,2.313c0,0.061,0,.151-0.006.272h-4.488a2.31,2.31,0,0,0,.561,1.519,1.67,1.67,0,0,0,1.259.527,1.557,1.557,0,0,0,.957-0.295A1.949,1.949,0,0,0,357.233,99.162Zm-3.349-1.649h3.36a2.034,2.034,0,0,0-.386-1.139,1.562,1.562,0,0,0-1.264-.589,1.622,1.622,0,0,0-1.182.47A1.863,1.863,0,0,0,353.885,97.513Z" transform="translate(-5.171 -5.362)"/><path class="cls-4" d="M359.568,101.1V95.082h0.919v0.855a2.162,2.162,0,0,1,1.915-.992,2.511,2.511,0,0,1,1,.2,1.575,1.575,0,0,1,.684.513,1.984,1.984,0,0,1,.317.754,5.916,5.916,0,0,1,.057.992v3.7h-1.021V97.439a2.754,2.754,0,0,0-.119-0.932,0.979,0.979,0,0,0-.422-0.493,1.345,1.345,0,0,0-.711-0.184,1.652,1.652,0,0,0-1.125.414,2.041,2.041,0,0,0-.474,1.57V101.1h-1.021Z" transform="translate(-5.171 -5.362)"/><path class="cls-4" d="M370.144,99.162l1.055,0.13a2.572,2.572,0,0,1-.924,1.434,3.129,3.129,0,0,1-3.817-.3,3.177,3.177,0,0,1-.773-2.281,3.325,3.325,0,0,1,.782-2.357,2.648,2.648,0,0,1,2.029-.839,2.572,2.572,0,0,1,1.972.822,3.267,3.267,0,0,1,.766,2.313c0,0.061,0,.151-0.006.272h-4.488a2.31,2.31,0,0,0,.561,1.519,1.67,1.67,0,0,0,1.259.527,1.557,1.557,0,0,0,.957-0.295A1.949,1.949,0,0,0,370.144,99.162Zm-3.349-1.649h3.36a2.034,2.034,0,0,0-.386-1.139,1.562,1.562,0,0,0-1.264-.589,1.622,1.622,0,0,0-1.182.47A1.863,1.863,0,0,0,366.795,97.513Z" transform="translate(-5.171 -5.362)"/><path class="cls-4" d="M372.723,101.1V95.875h-0.9V95.082h0.9V94.441a2.817,2.817,0,0,1,.107-0.9,1.306,1.306,0,0,1,.519-0.643,1.87,1.87,0,0,1,1.04-.247,4.966,4.966,0,0,1,.952.1l-0.153.89a3.429,3.429,0,0,0-.6-0.057,0.894,0.894,0,0,0-.657.2,1.078,1.078,0,0,0-.192.742v0.556h1.173v0.793h-1.173V101.1h-1.015Z" transform="translate(-5.171 -5.362)"/><path class="cls-4" d="M375.709,93.965V92.792h1.021v1.173h-1.021Zm0,7.135V95.082h1.021V101.1h-1.021Z" transform="translate(-5.171 -5.362)"/><path class="cls-4" d="M380.509,100.188l0.147,0.9a3.808,3.808,0,0,1-.771.09,1.75,1.75,0,0,1-.861-0.175,0.982,0.982,0,0,1-.431-0.462,3.627,3.627,0,0,1-.125-1.2V95.875h-0.748V95.082h0.748V93.591l1.015-.612v2.1h1.025v0.793h-1.025v3.519a1.771,1.771,0,0,0,.054.561,0.427,0.427,0,0,0,.176.2,0.681,0.681,0,0,0,.349.074A3.251,3.251,0,0,0,380.509,100.188Z" transform="translate(-5.171 -5.362)"/><path class="cls-4" d="M384.861,101.1V92.792H388a7.587,7.587,0,0,1,1.264.079,2.519,2.519,0,0,1,1.026.388,2.05,2.05,0,0,1,.666.8,2.7,2.7,0,0,1-.423,2.927,3.232,3.232,0,0,1-2.437.734h-2.131V101.1h-1.1Zm1.1-4.358h2.147a2.278,2.278,0,0,0,1.514-.4,1.415,1.415,0,0,0,.447-1.116,1.5,1.5,0,0,0-.264-0.893,1.231,1.231,0,0,0-.694-0.49,4.674,4.674,0,0,0-1.025-.074h-2.125v2.97Z" transform="translate(-5.171 -5.362)"/><path class="cls-4" d="M392.45,101.1V92.792h1.021V101.1H392.45Z" transform="translate(-5.171 -5.362)"/><path class="cls-4" d="M398.979,100.358a3.8,3.8,0,0,1-1.091.68,3.152,3.152,0,0,1-1.125.2,2.188,2.188,0,0,1-1.524-.485,1.6,1.6,0,0,1-.533-1.238,1.651,1.651,0,0,1,.2-0.808,1.678,1.678,0,0,1,.527-0.586,2.483,2.483,0,0,1,.734-0.334,7.258,7.258,0,0,1,.906-0.153,9.283,9.283,0,0,0,1.819-.352c0-.14.006-0.229,0.006-0.266a1.127,1.127,0,0,0-.289-0.878,1.708,1.708,0,0,0-1.162-.346,1.8,1.8,0,0,0-1.062.252,1.542,1.542,0,0,0-.507.893l-1-.136a2.472,2.472,0,0,1,.448-1.035,1.963,1.963,0,0,1,.9-0.606,4,4,0,0,1,1.365-.213,3.614,3.614,0,0,1,1.253.182,1.654,1.654,0,0,1,.708.456,1.6,1.6,0,0,1,.317.694,5.731,5.731,0,0,1,.051.941v1.36a14.31,14.31,0,0,0,.065,1.8,2.246,2.246,0,0,0,.258.723h-1.065A2.17,2.17,0,0,1,398.979,100.358Zm-0.085-2.278a7.509,7.509,0,0,1-1.666.385,3.844,3.844,0,0,0-.89.2,0.884,0.884,0,0,0-.4.332,0.9,0.9,0,0,0,.167,1.165,1.33,1.33,0,0,0,.9.272,2.1,2.1,0,0,0,1.048-.258,1.586,1.586,0,0,0,.675-0.706,2.467,2.467,0,0,0,.164-1.02V98.08Z" transform="translate(-5.171 -5.362)"/><path class="cls-4" d="M401.506,101.1V95.082h0.919v0.855a2.162,2.162,0,0,1,1.915-.992,2.511,2.511,0,0,1,1,.2,1.575,1.575,0,0,1,.684.513,1.984,1.984,0,0,1,.317.754,5.916,5.916,0,0,1,.057.992v3.7h-1.021V97.439a2.754,2.754,0,0,0-.119-0.932,0.979,0.979,0,0,0-.422-0.493,1.345,1.345,0,0,0-.711-0.184,1.652,1.652,0,0,0-1.125.414,2.041,2.041,0,0,0-.474,1.57V101.1h-1.021Z" transform="translate(-5.171 -5.362)"/><path class="cls-4" d="M407.554,99.3l1.009-.159a1.409,1.409,0,0,0,.473.929,1.65,1.65,0,0,0,1.085.323,1.6,1.6,0,0,0,1.043-.286,0.856,0.856,0,0,0,.34-0.672,0.619,0.619,0,0,0-.3-0.544,4.405,4.405,0,0,0-1.043-.346,9.495,9.495,0,0,1-1.556-.49,1.484,1.484,0,0,1-.881-1.38,1.558,1.558,0,0,1,.184-0.745,1.655,1.655,0,0,1,.5-0.57,2.094,2.094,0,0,1,.648-0.3,3.1,3.1,0,0,1,.882-0.122,3.494,3.494,0,0,1,1.244.2,1.694,1.694,0,0,1,.79.553,2.163,2.163,0,0,1,.352.932l-1,.136a1.092,1.092,0,0,0-.395-0.726,1.44,1.44,0,0,0-.921-0.261,1.667,1.667,0,0,0-1,.232,0.677,0.677,0,0,0-.3.544,0.563,0.563,0,0,0,.125.357,0.893,0.893,0,0,0,.392.272c0.1,0.038.4,0.125,0.9,0.261a12.516,12.516,0,0,1,1.511.474,1.537,1.537,0,0,1,.672.535,1.5,1.5,0,0,1,.243.873,1.706,1.706,0,0,1-.3.96,1.924,1.924,0,0,1-.858.7,3.129,3.129,0,0,1-1.27.247,2.827,2.827,0,0,1-1.788-.488A2.268,2.268,0,0,1,407.554,99.3Z" transform="translate(-5.171 -5.362)"/><rect class="cls-2" x="231.948" y="155.022" width="182.803" height="29.597"/><rect class="cls-3" x="231.948" y="147.042" width="182.803" height="7.979"/><rect class="cls-2" x="231.948" y="147.042" width="182.803" height="7.979"/><path class="cls-4" d="M291.769,178.083v-1.989h-3.6v-0.935l3.792-5.384h0.833v5.384h1.122v0.935h-1.122v1.989h-1.02Zm0-2.924v-3.746l-2.6,3.746h2.6Z" transform="translate(-5.171 -5.362)"/><path class="cls-4" d="M298.8,178.083h-1.021v-6.5a5.279,5.279,0,0,1-.966.7,6.9,6.9,0,0,1-1.074.527v-0.986a6.138,6.138,0,0,0,1.5-.975,3.821,3.821,0,0,0,.907-1.111H298.8v8.342Z" transform="translate(-5.171 -5.362)"/><path class="cls-4" d="M306.77,177.1v0.98h-5.491a1.8,1.8,0,0,1,.119-0.708,3.749,3.749,0,0,1,.671-1.1,10.556,10.556,0,0,1,1.335-1.258,11.258,11.258,0,0,0,1.83-1.76,2.106,2.106,0,0,0,.477-1.227,1.363,1.363,0,0,0-.434-1.023,1.564,1.564,0,0,0-1.131-.417,1.592,1.592,0,0,0-1.179.442,1.671,1.671,0,0,0-.447,1.224l-1.049-.108a2.583,2.583,0,0,1,.811-1.788,2.766,2.766,0,0,1,1.887-.615,2.635,2.635,0,0,1,1.894.663,2.176,2.176,0,0,1,.7,1.644,2.5,2.5,0,0,1-.2.98,3.83,3.83,0,0,1-.678,1.015A16.573,16.573,0,0,1,304.3,175.5q-0.918.771-1.179,1.045a3.367,3.367,0,0,0-.431.553h4.074Z" transform="translate(-5.171 -5.362)"/><path class="cls-4" d="M310.1,180.526a10.2,10.2,0,0,1-1.429-2.493,7.838,7.838,0,0,1-.147-5.543,10.872,10.872,0,0,1,1.576-2.856h0.73q-0.686,1.178-.906,1.683a9.171,9.171,0,0,0-.544,1.632,9.447,9.447,0,0,0-.244,2.131,10.233,10.233,0,0,0,1.694,5.446H310.1Z" transform="translate(-5.171 -5.362)"/><path class="cls-4" d="M316.132,176.146l1.055,0.13a2.572,2.572,0,0,1-.924,1.434,3.129,3.129,0,0,1-3.817-.3,3.177,3.177,0,0,1-.773-2.281,3.325,3.325,0,0,1,.782-2.357,2.648,2.648,0,0,1,2.029-.839,2.572,2.572,0,0,1,1.972.822,3.267,3.267,0,0,1,.766,2.313c0,0.061,0,.151-0.006.272h-4.488a2.31,2.31,0,0,0,.561,1.519,1.67,1.67,0,0,0,1.259.527,1.557,1.557,0,0,0,.957-0.295A1.949,1.949,0,0,0,316.132,176.146Zm-3.349-1.649h3.36a2.034,2.034,0,0,0-.386-1.139,1.562,1.562,0,0,0-1.264-.589,1.622,1.622,0,0,0-1.182.47A1.863,1.863,0,0,0,312.783,174.5Z" transform="translate(-5.171 -5.362)"/><path class="cls-4" d="M319.136,180.526h-0.73a10.233,10.233,0,0,0,1.694-5.446,9.277,9.277,0,0,0-.244-2.114,8.839,8.839,0,0,0-.538-1.632,19.112,19.112,0,0,0-.912-1.7h0.73a10.872,10.872,0,0,1,1.576,2.856,7.819,7.819,0,0,1-.15,5.543A10.383,10.383,0,0,1,319.136,180.526Z" transform="translate(-5.171 -5.362)"/><path class="cls-4" d="M324.282,180.526a10.2,10.2,0,0,1-1.429-2.493,7.838,7.838,0,0,1-.147-5.543,10.872,10.872,0,0,1,1.576-2.856h0.73q-0.686,1.178-.906,1.683a9.171,9.171,0,0,0-.544,1.632,9.447,9.447,0,0,0-.244,2.131,10.233,10.233,0,0,0,1.694,5.446h-0.73Z" transform="translate(-5.171 -5.362)"/><path class="cls-4" d="M325.92,175.89l1.021-.136a2.248,2.248,0,0,0,.6,1.25,1.476,1.476,0,0,0,1.028.382,1.65,1.65,0,0,0,1.216-.5,1.681,1.681,0,0,0,.5-1.235,1.567,1.567,0,0,0-.459-1.159,1.588,1.588,0,0,0-1.168-.456,2.924,2.924,0,0,0-.72.113l0.113-.9a1.5,1.5,0,0,0,.165.011,2.1,2.1,0,0,0,1.173-.34,1.164,1.164,0,0,0,.521-1.048,1.242,1.242,0,0,0-.38-0.93,1.349,1.349,0,0,0-.98-0.368,1.39,1.39,0,0,0-.992.374,1.881,1.881,0,0,0-.51,1.122l-1.02-.181a2.616,2.616,0,0,1,.85-1.59,2.459,2.459,0,0,1,1.649-.564,2.713,2.713,0,0,1,1.252.292,2.112,2.112,0,0,1,.876.8,2.044,2.044,0,0,1,.3,1.071,1.748,1.748,0,0,1-.289.98,1.965,1.965,0,0,1-.855.7,1.928,1.928,0,0,1,1.145.706,2.146,2.146,0,0,1,.408,1.34,2.454,2.454,0,0,1-.793,1.845,2.793,2.793,0,0,1-2.007.757,2.612,2.612,0,0,1-1.816-.652A2.523,2.523,0,0,1,325.92,175.89Z" transform="translate(-5.171 -5.362)"/><path class="cls-4" d="M333.321,180.526h-0.73a10.233,10.233,0,0,0,1.694-5.446,9.277,9.277,0,0,0-.244-2.114,8.839,8.839,0,0,0-.538-1.632,19.112,19.112,0,0,0-.912-1.7h0.73a10.872,10.872,0,0,1,1.576,2.856,7.819,7.819,0,0,1-.15,5.543A10.383,10.383,0,0,1,333.321,180.526Z" transform="translate(-5.171 -5.362)"/><path class="cls-4" d="M339.872,178.083v-8.308h3.134a7.587,7.587,0,0,1,1.264.079,2.519,2.519,0,0,1,1.026.388,2.05,2.05,0,0,1,.666.8,2.7,2.7,0,0,1-.423,2.927,3.232,3.232,0,0,1-2.437.734h-2.131v3.377h-1.1Zm1.1-4.358h2.147a2.278,2.278,0,0,0,1.514-.4,1.415,1.415,0,0,0,.447-1.116,1.5,1.5,0,0,0-.264-0.893,1.231,1.231,0,0,0-.694-0.49,4.674,4.674,0,0,0-1.025-.074h-2.125v2.97Z" transform="translate(-5.171 -5.362)"/><path class="cls-4" d="M347.461,178.083v-8.308h1.021v8.308h-1.021Z" transform="translate(-5.171 -5.362)"/><path class="cls-4" d="M353.989,177.341a3.8,3.8,0,0,1-1.091.68,3.152,3.152,0,0,1-1.125.2,2.188,2.188,0,0,1-1.524-.485,1.6,1.6,0,0,1-.533-1.238,1.651,1.651,0,0,1,.2-0.808,1.678,1.678,0,0,1,.527-0.586,2.483,2.483,0,0,1,.734-0.334,7.258,7.258,0,0,1,.906-0.153,9.283,9.283,0,0,0,1.819-.352c0-.14.006-0.229,0.006-0.266a1.127,1.127,0,0,0-.289-0.878,1.708,1.708,0,0,0-1.162-.346,1.8,1.8,0,0,0-1.062.252,1.542,1.542,0,0,0-.507.893l-1-.136a2.472,2.472,0,0,1,.448-1.035,1.963,1.963,0,0,1,.9-0.606,4,4,0,0,1,1.365-.213,3.614,3.614,0,0,1,1.253.182,1.654,1.654,0,0,1,.708.456,1.6,1.6,0,0,1,.317.694,5.731,5.731,0,0,1,.051.941v1.36a14.31,14.31,0,0,0,.065,1.8,2.246,2.246,0,0,0,.258.723h-1.065A2.17,2.17,0,0,1,353.989,177.341Zm-0.085-2.278a7.509,7.509,0,0,1-1.666.385,3.844,3.844,0,0,0-.89.2,0.884,0.884,0,0,0-.4.332,0.9,0.9,0,0,0,.167,1.165,1.33,1.33,0,0,0,.9.272,2.1,2.1,0,0,0,1.048-.258,1.586,1.586,0,0,0,.675-0.706,2.467,2.467,0,0,0,.164-1.02v-0.374Z" transform="translate(-5.171 -5.362)"/><path class="cls-4" d="M356.517,178.083v-6.019h0.919v0.855a2.162,2.162,0,0,1,1.915-.992,2.511,2.511,0,0,1,1,.2,1.575,1.575,0,0,1,.684.513,1.984,1.984,0,0,1,.317.754,5.916,5.916,0,0,1,.057.992v3.7h-1.021v-3.661a2.754,2.754,0,0,0-.119-0.932,0.979,0.979,0,0,0-.422-0.493,1.345,1.345,0,0,0-.711-0.184,1.652,1.652,0,0,0-1.125.414,2.041,2.041,0,0,0-.474,1.57v3.287h-1.021Z" transform="translate(-5.171 -5.362)"/><path class="cls-4" d="M362.564,176.287l1.009-.159a1.409,1.409,0,0,0,.473.929,1.65,1.65,0,0,0,1.085.323,1.6,1.6,0,0,0,1.043-.286,0.856,0.856,0,0,0,.34-0.672,0.619,0.619,0,0,0-.3-0.544,4.405,4.405,0,0,0-1.043-.346,9.495,9.495,0,0,1-1.556-.49,1.484,1.484,0,0,1-.881-1.38,1.558,1.558,0,0,1,.184-0.745,1.655,1.655,0,0,1,.5-0.57,2.094,2.094,0,0,1,.648-0.3,3.1,3.1,0,0,1,.882-0.122,3.494,3.494,0,0,1,1.244.2,1.694,1.694,0,0,1,.79.553,2.163,2.163,0,0,1,.352.932l-1,.136a1.092,1.092,0,0,0-.395-0.726,1.44,1.44,0,0,0-.921-0.261,1.667,1.667,0,0,0-1,.232,0.677,0.677,0,0,0-.3.544,0.563,0.563,0,0,0,.125.357,0.893,0.893,0,0,0,.392.272c0.1,0.038.4,0.125,0.9,0.261a12.516,12.516,0,0,1,1.511.474,1.537,1.537,0,0,1,.672.535,1.5,1.5,0,0,1,.243.873,1.706,1.706,0,0,1-.3.96,1.924,1.924,0,0,1-.858.7,3.129,3.129,0,0,1-1.27.247,2.827,2.827,0,0,1-1.788-.488A2.268,2.268,0,0,1,362.564,176.287Z" transform="translate(-5.171 -5.362)"/><rect class="cls-2" x="231.948" y="231.099" width="182.803" height="29.597"/><rect class="cls-3" x="231.948" y="223.12" width="182.803" height="7.979"/><rect class="cls-2" x="231.948" y="223.12" width="182.803" height="7.979"/><path class="cls-4" d="M283.234,251.973l1.1,0.278a3.7,3.7,0,0,1-1.244,2.066,3.426,3.426,0,0,1-2.2.711,3.946,3.946,0,0,1-2.185-.547,3.414,3.414,0,0,1-1.281-1.584,5.656,5.656,0,0,1-.439-2.227,4.9,4.9,0,0,1,.5-2.264,3.4,3.4,0,0,1,1.411-1.468,4.123,4.123,0,0,1,2.015-.5,3.4,3.4,0,0,1,2.1.635,3.3,3.3,0,0,1,1.185,1.785l-1.083.255a2.567,2.567,0,0,0-.839-1.32,2.234,2.234,0,0,0-1.383-.414,2.688,2.688,0,0,0-1.6.459,2.426,2.426,0,0,0-.9,1.233,4.96,4.96,0,0,0-.261,1.6,5.069,5.069,0,0,0,.309,1.851,2.3,2.3,0,0,0,.96,1.182,2.693,2.693,0,0,0,1.411.391,2.362,2.362,0,0,0,1.564-.533A2.722,2.722,0,0,0,283.234,251.973Z" transform="translate(-5.171 -5.362)"/><path class="cls-4" d="M289.485,254.144a3.8,3.8,0,0,1-1.091.68,3.152,3.152,0,0,1-1.125.2,2.187,2.187,0,0,1-1.524-.485,1.6,1.6,0,0,1-.533-1.238,1.678,1.678,0,0,1,.728-1.394,2.48,2.48,0,0,1,.734-0.334,7.269,7.269,0,0,1,.907-0.153,9.3,9.3,0,0,0,1.819-.352c0-.14.006-0.229,0.006-0.266a1.127,1.127,0,0,0-.289-0.878,1.708,1.708,0,0,0-1.162-.346,1.8,1.8,0,0,0-1.062.252,1.545,1.545,0,0,0-.507.893l-1-.136a2.465,2.465,0,0,1,.448-1.035,1.961,1.961,0,0,1,.9-0.606,4.009,4.009,0,0,1,1.366-.213,3.611,3.611,0,0,1,1.252.182,1.647,1.647,0,0,1,.708.456,1.607,1.607,0,0,1,.317.694,5.731,5.731,0,0,1,.051.941v1.36a14.411,14.411,0,0,0,.065,1.8,2.27,2.27,0,0,0,.258.723h-1.065A2.159,2.159,0,0,1,289.485,254.144Zm-0.085-2.278a7.509,7.509,0,0,1-1.666.385,3.844,3.844,0,0,0-.89.2,0.886,0.886,0,0,0-.4.332,0.9,0.9,0,0,0,.167,1.165,1.33,1.33,0,0,0,.9.272,2.1,2.1,0,0,0,1.048-.258,1.591,1.591,0,0,0,.675-0.706,2.467,2.467,0,0,0,.164-1.02v-0.374Z" transform="translate(-5.171 -5.362)"/><path class="cls-4" d="M291.6,253.09l1.009-.159a1.409,1.409,0,0,0,.473.929,1.65,1.65,0,0,0,1.085.323,1.6,1.6,0,0,0,1.043-.286,0.856,0.856,0,0,0,.34-0.672,0.62,0.62,0,0,0-.3-0.544,4.414,4.414,0,0,0-1.043-.346,9.495,9.495,0,0,1-1.556-.49,1.485,1.485,0,0,1-.881-1.38,1.547,1.547,0,0,1,.185-0.745,1.649,1.649,0,0,1,.5-0.57,2.1,2.1,0,0,1,.649-0.3,3.091,3.091,0,0,1,.881-0.122,3.488,3.488,0,0,1,1.244.2,1.693,1.693,0,0,1,.791.553,2.157,2.157,0,0,1,.352.932l-1,.136a1.093,1.093,0,0,0-.394-0.726,1.442,1.442,0,0,0-.921-0.261,1.668,1.668,0,0,0-1,.232,0.677,0.677,0,0,0-.3.544,0.562,0.562,0,0,0,.125.357,0.892,0.892,0,0,0,.391.272q0.153,0.057.9,0.261a12.56,12.56,0,0,1,1.51.474,1.533,1.533,0,0,1,.671.535,1.5,1.5,0,0,1,.244.873,1.713,1.713,0,0,1-.3.96,1.926,1.926,0,0,1-.859.7,3.128,3.128,0,0,1-1.269.247,2.826,2.826,0,0,1-1.788-.488A2.265,2.265,0,0,1,291.6,253.09Z" transform="translate(-5.171 -5.362)"/><path class="cls-4" d="M297.816,254.886v-8.308h1.02v2.981a2.28,2.28,0,0,1,1.8-.828A2.427,2.427,0,0,1,301.8,249a1.547,1.547,0,0,1,.706.728,3.363,3.363,0,0,1,.212,1.349v3.814H301.7v-3.814a1.573,1.573,0,0,0-.332-1.114,1.231,1.231,0,0,0-.937-0.349,1.656,1.656,0,0,0-.854.235,1.33,1.33,0,0,0-.569.638,2.928,2.928,0,0,0-.17,1.111v3.292h-1.02Z" transform="translate(-5.171 -5.362)"/><path class="cls-4" d="M307.58,254.886v-8.308H310.7a3.859,3.859,0,0,1,1.527.252,1.97,1.97,0,0,1,.9.776,2.052,2.052,0,0,1,.326,1.1,1.888,1.888,0,0,1-.289,1,2.073,2.073,0,0,1-.873.759,2.169,2.169,0,0,1,1.159.754,2.022,2.022,0,0,1,.405,1.258,2.419,2.419,0,0,1-.247,1.085,2.092,2.092,0,0,1-.609.773,2.537,2.537,0,0,1-.909.411,5.545,5.545,0,0,1-1.34.139H307.58Zm1.1-4.817h1.8a4.006,4.006,0,0,0,1.049-.1,1.167,1.167,0,0,0,.632-0.414,1.193,1.193,0,0,0,.212-0.726,1.33,1.33,0,0,0-.2-0.728,1,1,0,0,0-.566-0.431,4.728,4.728,0,0,0-1.264-.116H308.68v2.51Zm0,3.837h2.069a4.789,4.789,0,0,0,.748-0.04,1.808,1.808,0,0,0,.635-0.227,1.2,1.2,0,0,0,.419-0.462,1.448,1.448,0,0,0,.164-0.7,1.385,1.385,0,0,0-.237-0.808,1.255,1.255,0,0,0-.661-0.481,4.081,4.081,0,0,0-1.215-.139H308.68v2.856Z" transform="translate(-5.171 -5.362)"/><path class="cls-4" d="M319.164,254.144a3.8,3.8,0,0,1-1.091.68,3.152,3.152,0,0,1-1.125.2,2.188,2.188,0,0,1-1.524-.485,1.6,1.6,0,0,1-.533-1.238,1.651,1.651,0,0,1,.2-0.808,1.678,1.678,0,0,1,.527-0.586,2.483,2.483,0,0,1,.734-0.334,7.258,7.258,0,0,1,.906-0.153,9.283,9.283,0,0,0,1.819-.352c0-.14.006-0.229,0.006-0.266a1.127,1.127,0,0,0-.289-0.878,1.708,1.708,0,0,0-1.162-.346,1.8,1.8,0,0,0-1.062.252,1.542,1.542,0,0,0-.507.893l-1-.136a2.472,2.472,0,0,1,.448-1.035,1.963,1.963,0,0,1,.9-0.606,4,4,0,0,1,1.365-.213,3.614,3.614,0,0,1,1.253.182,1.654,1.654,0,0,1,.708.456,1.6,1.6,0,0,1,.317.694,5.731,5.731,0,0,1,.051.941v1.36a14.31,14.31,0,0,0,.065,1.8,2.246,2.246,0,0,0,.258.723h-1.065A2.17,2.17,0,0,1,319.164,254.144Zm-0.085-2.278a7.509,7.509,0,0,1-1.666.385,3.844,3.844,0,0,0-.89.2,0.884,0.884,0,0,0-.4.332,0.9,0.9,0,0,0,.167,1.165,1.33,1.33,0,0,0,.9.272,2.1,2.1,0,0,0,1.048-.258,1.586,1.586,0,0,0,.675-0.706,2.467,2.467,0,0,0,.164-1.02v-0.374Z" transform="translate(-5.171 -5.362)"/><path class="cls-4" d="M321.669,254.886v-8.308h1.021v8.308h-1.021Z" transform="translate(-5.171 -5.362)"/><path class="cls-4" d="M328.2,254.144a3.8,3.8,0,0,1-1.091.68,3.152,3.152,0,0,1-1.125.2,2.188,2.188,0,0,1-1.524-.485,1.6,1.6,0,0,1-.533-1.238,1.651,1.651,0,0,1,.2-0.808,1.678,1.678,0,0,1,.527-0.586,2.483,2.483,0,0,1,.734-0.334,7.258,7.258,0,0,1,.906-0.153,9.283,9.283,0,0,0,1.819-.352c0-.14.006-0.229,0.006-0.266a1.127,1.127,0,0,0-.289-0.878,1.708,1.708,0,0,0-1.162-.346,1.8,1.8,0,0,0-1.062.252,1.542,1.542,0,0,0-.507.893l-1-.136a2.472,2.472,0,0,1,.448-1.035,1.963,1.963,0,0,1,.9-0.606,4,4,0,0,1,1.365-.213,3.614,3.614,0,0,1,1.253.182,1.654,1.654,0,0,1,.708.456,1.6,1.6,0,0,1,.317.694,5.731,5.731,0,0,1,.051.941v1.36a14.31,14.31,0,0,0,.065,1.8,2.246,2.246,0,0,0,.258.723H328.4A2.17,2.17,0,0,1,328.2,254.144Zm-0.085-2.278a7.509,7.509,0,0,1-1.666.385,3.844,3.844,0,0,0-.89.2,0.884,0.884,0,0,0-.4.332,0.9,0.9,0,0,0,.167,1.165,1.33,1.33,0,0,0,.9.272,2.1,2.1,0,0,0,1.048-.258,1.586,1.586,0,0,0,.675-0.706,2.467,2.467,0,0,0,.164-1.02v-0.374Z" transform="translate(-5.171 -5.362)"/><path class="cls-4" d="M330.726,254.886v-6.019h0.919v0.855a2.162,2.162,0,0,1,1.915-.992,2.511,2.511,0,0,1,1,.2,1.575,1.575,0,0,1,.684.513,1.984,1.984,0,0,1,.317.754,5.916,5.916,0,0,1,.057.992v3.7H334.6v-3.661a2.754,2.754,0,0,0-.119-0.932,0.979,0.979,0,0,0-.422-0.493,1.345,1.345,0,0,0-.711-0.184,1.652,1.652,0,0,0-1.125.414,2.041,2.041,0,0,0-.474,1.57v3.287h-1.021Z" transform="translate(-5.171 -5.362)"/><path class="cls-4" d="M341.107,252.682l1,0.13a2.6,2.6,0,0,1-.842,1.624,2.451,2.451,0,0,1-1.663.587,2.586,2.586,0,0,1-1.986-.808,3.28,3.28,0,0,1-.751-2.315,4.2,4.2,0,0,1,.323-1.706,2.254,2.254,0,0,1,.983-1.1,2.918,2.918,0,0,1,1.437-.366,2.5,2.5,0,0,1,1.6.5,2.272,2.272,0,0,1,.8,1.408l-0.992.153a1.648,1.648,0,0,0-.5-0.912,1.3,1.3,0,0,0-.869-0.306,1.583,1.583,0,0,0-1.253.553,2.622,2.622,0,0,0-.481,1.748,2.707,2.707,0,0,0,.465,1.763,1.511,1.511,0,0,0,1.213.55,1.43,1.43,0,0,0,1-.369A1.828,1.828,0,0,0,341.107,252.682Z" transform="translate(-5.171 -5.362)"/><path class="cls-4" d="M347.1,252.948l1.055,0.13a2.572,2.572,0,0,1-.924,1.434,3.129,3.129,0,0,1-3.817-.3,3.177,3.177,0,0,1-.773-2.281,3.325,3.325,0,0,1,.782-2.357,2.648,2.648,0,0,1,2.029-.839,2.572,2.572,0,0,1,1.972.822,3.267,3.267,0,0,1,.766,2.313c0,0.061,0,.151-0.006.272H343.7a2.31,2.31,0,0,0,.561,1.519,1.67,1.67,0,0,0,1.259.527,1.557,1.557,0,0,0,.957-0.295A1.949,1.949,0,0,0,347.1,252.948Zm-3.349-1.649h3.36a2.034,2.034,0,0,0-.386-1.139,1.562,1.562,0,0,0-1.264-.589,1.622,1.622,0,0,0-1.182.47A1.863,1.863,0,0,0,343.755,251.3Z" transform="translate(-5.171 -5.362)"/><path class="cls-4" d="M352.794,254.886v-8.308h3.134a7.587,7.587,0,0,1,1.264.079,2.519,2.519,0,0,1,1.026.388,2.05,2.05,0,0,1,.666.8,2.7,2.7,0,0,1-.423,2.927,3.232,3.232,0,0,1-2.437.734h-2.131v3.377h-1.1Zm1.1-4.358h2.147a2.278,2.278,0,0,0,1.514-.4,1.415,1.415,0,0,0,.447-1.116,1.5,1.5,0,0,0-.264-0.893,1.231,1.231,0,0,0-.694-0.49,4.674,4.674,0,0,0-1.025-.074h-2.125v2.97Z" transform="translate(-5.171 -5.362)"/><path class="cls-4" d="M360.382,254.886v-8.308H361.4v8.308h-1.021Z" transform="translate(-5.171 -5.362)"/><path class="cls-4" d="M366.911,254.144a3.8,3.8,0,0,1-1.091.68,3.152,3.152,0,0,1-1.125.2,2.188,2.188,0,0,1-1.524-.485,1.6,1.6,0,0,1-.533-1.238,1.651,1.651,0,0,1,.2-0.808,1.678,1.678,0,0,1,.527-0.586,2.483,2.483,0,0,1,.734-0.334,7.258,7.258,0,0,1,.906-0.153,9.283,9.283,0,0,0,1.819-.352c0-.14.006-0.229,0.006-0.266a1.127,1.127,0,0,0-.289-0.878,1.708,1.708,0,0,0-1.162-.346,1.8,1.8,0,0,0-1.062.252,1.542,1.542,0,0,0-.507.893l-1-.136a2.472,2.472,0,0,1,.448-1.035,1.963,1.963,0,0,1,.9-0.606,4,4,0,0,1,1.365-.213,3.614,3.614,0,0,1,1.253.182,1.654,1.654,0,0,1,.708.456,1.6,1.6,0,0,1,.317.694,5.731,5.731,0,0,1,.051.941v1.36a14.31,14.31,0,0,0,.065,1.8,2.246,2.246,0,0,0,.258.723h-1.065A2.17,2.17,0,0,1,366.911,254.144Zm-0.085-2.278a7.509,7.509,0,0,1-1.666.385,3.844,3.844,0,0,0-.89.2,0.884,0.884,0,0,0-.4.332,0.9,0.9,0,0,0,.167,1.165,1.33,1.33,0,0,0,.9.272,2.1,2.1,0,0,0,1.048-.258,1.586,1.586,0,0,0,.675-0.706,2.467,2.467,0,0,0,.164-1.02v-0.374Z" transform="translate(-5.171 -5.362)"/><path class="cls-4" d="M369.438,254.886v-6.019h0.919v0.855a2.162,2.162,0,0,1,1.915-.992,2.511,2.511,0,0,1,1,.2,1.575,1.575,0,0,1,.684.513,1.984,1.984,0,0,1,.317.754,5.916,5.916,0,0,1,.057.992v3.7H373.31v-3.661a2.754,2.754,0,0,0-.119-0.932,0.979,0.979,0,0,0-.422-0.493,1.345,1.345,0,0,0-.711-0.184,1.652,1.652,0,0,0-1.125.414,2.041,2.041,0,0,0-.474,1.57v3.287h-1.021Z" transform="translate(-5.171 -5.362)"/><path class="cls-4" d="M375.486,253.09l1.009-.159a1.409,1.409,0,0,0,.473.929,1.65,1.65,0,0,0,1.085.323,1.6,1.6,0,0,0,1.043-.286,0.856,0.856,0,0,0,.34-0.672,0.619,0.619,0,0,0-.3-0.544,4.405,4.405,0,0,0-1.043-.346,9.495,9.495,0,0,1-1.556-.49,1.484,1.484,0,0,1-.881-1.38,1.558,1.558,0,0,1,.184-0.745,1.655,1.655,0,0,1,.5-0.57,2.094,2.094,0,0,1,.648-0.3,3.1,3.1,0,0,1,.882-0.122,3.494,3.494,0,0,1,1.244.2,1.694,1.694,0,0,1,.79.553,2.163,2.163,0,0,1,.352.932l-1,.136a1.092,1.092,0,0,0-.395-0.726,1.44,1.44,0,0,0-.921-0.261,1.667,1.667,0,0,0-1,.232,0.677,0.677,0,0,0-.3.544,0.563,0.563,0,0,0,.125.357,0.893,0.893,0,0,0,.392.272c0.1,0.038.4,0.125,0.9,0.261a12.516,12.516,0,0,1,1.511.474,1.537,1.537,0,0,1,.672.535,1.5,1.5,0,0,1,.243.873,1.706,1.706,0,0,1-.3.96,1.924,1.924,0,0,1-.858.7,3.129,3.129,0,0,1-1.27.247,2.827,2.827,0,0,1-1.788-.488A2.268,2.268,0,0,1,375.486,253.09Z" transform="translate(-5.171 -5.362)"/></svg>