<svg id="Layer_1" data-name="Layer 1" xmlns="http://www.w3.org/2000/svg" xmlns:xlink="http://www.w3.org/1999/xlink" viewBox="0 0 274.059 186.087"><defs><style>.cls-1,.cls-10,.cls-11,.cls-2,.cls-6,.cls-8{fill:none;}.cls-2{stroke:#89c64d;}.cls-3{fill:#89c64d;}.cls-4{clip-path:url(#clip-path);}.cls-5{fill:#231f20;}.cls-6{stroke:#25408f;}.cls-7{fill:#25408f;}.cls-8{stroke:#b12229;}.cls-9{fill:#b12229;}.cls-10{stroke:#d2232a;}.cls-11{stroke:#231f20;stroke-miterlimit:10;}</style><clipPath id="clip-path" transform="translate(-4.839 -5.251)"><rect class="cls-1" x="44.07" y="45.054" width="194.163" height="134.409"/></clipPath></defs><title>IRAs_Established_Employers</title><rect class="cls-2" x="46.038" y="48.042" width="180.55" height="29.232"/><rect class="cls-3" x="46.038" y="40.161" width="180.55" height="7.881"/><g class="cls-4"><rect class="cls-2" x="46.038" y="40.161" width="180.55" height="7.881"/></g><path class="cls-5" d="M121.187,68.525l1.153-.1a2.536,2.536,0,0,0,.381,1.137,2.078,2.078,0,0,0,.929.718,3.518,3.518,0,0,0,1.417.274,3.39,3.39,0,0,0,1.234-.208,1.715,1.715,0,0,0,.8-0.57,1.325,1.325,0,0,0,.261-0.791,1.2,1.2,0,0,0-.252-0.759,1.865,1.865,0,0,0-.831-0.544,16.277,16.277,0,0,0-1.644-.45,8.423,8.423,0,0,1-1.782-.576,2.5,2.5,0,0,1-.985-0.86,2.1,2.1,0,0,1-.324-1.149,2.343,2.343,0,0,1,.4-1.307,2.458,2.458,0,0,1,1.159-.923,4.395,4.395,0,0,1,1.694-.315,4.63,4.63,0,0,1,1.811.331,2.615,2.615,0,0,1,1.206.973,2.794,2.794,0,0,1,.453,1.455l-1.171.088a1.891,1.891,0,0,0-.639-1.323,2.488,2.488,0,0,0-1.609-.447,2.581,2.581,0,0,0-1.615.406,1.218,1.218,0,0,0-.507.979,1.049,1.049,0,0,0,.359.818,4.861,4.861,0,0,0,1.842.658,12.165,12.165,0,0,1,2.043.589,2.8,2.8,0,0,1,1.19.941,2.3,2.3,0,0,1,.384,1.313,2.516,2.516,0,0,1-.422,1.389,2.783,2.783,0,0,1-1.212,1.014,4.227,4.227,0,0,1-1.779.362,5.308,5.308,0,0,1-2.1-.365,2.934,2.934,0,0,1-1.329-1.1A3.116,3.116,0,0,1,121.187,68.525Z" transform="translate(-4.839 -5.251)"/><path class="cls-5" d="M130.229,71.491V62.26H136.9v1.089h-5.453v2.827h5.107V67.26h-5.107V70.4h5.667v1.089h-6.889Z" transform="translate(-4.839 -5.251)"/><path class="cls-5" d="M138.807,71.491V62.26h3.482a8.431,8.431,0,0,1,1.4.088,2.786,2.786,0,0,1,1.14.432,2.265,2.265,0,0,1,.74.891,3,3,0,0,1-.469,3.252,3.6,3.6,0,0,1-2.708.815h-2.368v3.753h-1.222Zm1.222-4.842h2.386a2.532,2.532,0,0,0,1.682-.441,1.571,1.571,0,0,0,.5-1.241,1.667,1.667,0,0,0-.292-0.992,1.369,1.369,0,0,0-.771-0.544,5.207,5.207,0,0,0-1.14-.082h-2.361v3.3Z" transform="translate(-4.839 -5.251)"/><path class="cls-5" d="M151.2,71.491V62.26h1.222v9.231H151.2Z" transform="translate(-4.839 -5.251)"/><path class="cls-5" d="M154.593,71.491V62.26h4.093a5.456,5.456,0,0,1,1.876.249,2.054,2.054,0,0,1,1.026.878,2.619,2.619,0,0,1,.384,1.392,2.32,2.32,0,0,1-.636,1.656,3.216,3.216,0,0,1-1.964.856,3.16,3.16,0,0,1,.737.46,6.358,6.358,0,0,1,1.014,1.228l1.606,2.513h-1.537l-1.222-1.92q-0.535-.831-0.882-1.272a2.764,2.764,0,0,0-.62-0.617,1.822,1.822,0,0,0-.557-0.246,3.672,3.672,0,0,0-.68-0.044h-1.417v4.1h-1.222Zm1.222-5.157h2.626a3.933,3.933,0,0,0,1.31-.173,1.393,1.393,0,0,0,.718-0.554,1.5,1.5,0,0,0,.246-0.828,1.376,1.376,0,0,0-.476-1.077,2.225,2.225,0,0,0-1.5-.422h-2.922v3.054Z" transform="translate(-4.839 -5.251)"/><path class="cls-5" d="M162.758,71.491L166.3,62.26h1.316l3.778,9.231h-1.392l-1.077-2.8h-3.86l-1.014,2.8h-1.3Zm2.664-3.791h3.129l-0.963-2.557q-0.441-1.165-.655-1.914a11.815,11.815,0,0,1-.5,1.763Z" transform="translate(-4.839 -5.251)"/><rect class="cls-6" x="46.038" y="96.332" width="180.55" height="29.232"/><rect class="cls-7" x="46.038" y="88.451" width="180.55" height="7.881"/><rect class="cls-6" x="46.038" y="88.451" width="180.55" height="7.881"/><path class="cls-5" d="M111.767,116.816l1.153-.1a2.536,2.536,0,0,0,.381,1.137,2.078,2.078,0,0,0,.929.718,3.518,3.518,0,0,0,1.417.274,3.39,3.39,0,0,0,1.234-.208,1.715,1.715,0,0,0,.8-0.57,1.325,1.325,0,0,0,.261-0.791,1.2,1.2,0,0,0-.252-0.759,1.865,1.865,0,0,0-.831-0.544,16.277,16.277,0,0,0-1.644-.45,8.423,8.423,0,0,1-1.782-.576,2.5,2.5,0,0,1-.985-0.86,2.1,2.1,0,0,1-.324-1.149,2.343,2.343,0,0,1,.4-1.307,2.458,2.458,0,0,1,1.159-.923,4.395,4.395,0,0,1,1.694-.315,4.63,4.63,0,0,1,1.811.331,2.615,2.615,0,0,1,1.206.973,2.794,2.794,0,0,1,.453,1.455l-1.171.088a1.891,1.891,0,0,0-.639-1.323,2.488,2.488,0,0,0-1.609-.447,2.581,2.581,0,0,0-1.615.406,1.218,1.218,0,0,0-.507.979,1.049,1.049,0,0,0,.359.818,4.861,4.861,0,0,0,1.842.658,12.165,12.165,0,0,1,2.043.589,2.8,2.8,0,0,1,1.19.941,2.3,2.3,0,0,1,.384,1.313,2.516,2.516,0,0,1-.422,1.389,2.783,2.783,0,0,1-1.212,1.014,4.227,4.227,0,0,1-1.779.362,5.308,5.308,0,0,1-2.1-.365,2.934,2.934,0,0,1-1.329-1.1A3.116,3.116,0,0,1,111.767,116.816Z" transform="translate(-4.839 -5.251)"/><path class="cls-5" d="M120.992,119.782V110.55h1.222v9.231h-1.222Z" transform="translate(-4.839 -5.251)"/><path class="cls-5" d="M124.33,119.782V110.55h1.839l2.185,6.536q0.3,0.913.441,1.367,0.157-.5.491-1.48l2.21-6.423h1.644v9.231h-1.177v-7.727l-2.683,7.727h-1.1l-2.67-7.859v7.859H124.33Z" transform="translate(-4.839 -5.251)"/><path class="cls-5" d="M135.11,119.782V110.55h3.482a8.431,8.431,0,0,1,1.4.088,2.786,2.786,0,0,1,1.14.432,2.265,2.265,0,0,1,.74.891,3,3,0,0,1-.469,3.252,3.6,3.6,0,0,1-2.708.815h-2.368v3.753H135.11Zm1.222-4.842h2.386a2.532,2.532,0,0,0,1.682-.441,1.571,1.571,0,0,0,.5-1.241,1.667,1.667,0,0,0-.292-0.992,1.369,1.369,0,0,0-.771-0.544,5.207,5.207,0,0,0-1.14-.082h-2.361v3.3Z" transform="translate(-4.839 -5.251)"/><path class="cls-5" d="M143.661,119.782V110.55h1.222v8.142h4.547v1.089h-5.769Z" transform="translate(-4.839 -5.251)"/><path class="cls-5" d="M150.909,119.782V110.55h6.675v1.089h-5.453v2.827h5.107v1.083h-5.107v3.142H157.8v1.089h-6.889Z" transform="translate(-4.839 -5.251)"/><path class="cls-5" d="M163.277,119.782V110.55H164.5v9.231h-1.222Z" transform="translate(-4.839 -5.251)"/><path class="cls-5" d="M166.671,119.782V110.55h4.093a5.456,5.456,0,0,1,1.876.249,2.054,2.054,0,0,1,1.026.878,2.619,2.619,0,0,1,.384,1.392,2.32,2.32,0,0,1-.636,1.656,3.216,3.216,0,0,1-1.964.856,3.16,3.16,0,0,1,.737.46,6.358,6.358,0,0,1,1.014,1.228l1.606,2.513H173.27l-1.222-1.92q-0.535-.831-0.882-1.272a2.764,2.764,0,0,0-.62-0.617,1.822,1.822,0,0,0-.557-0.246,3.672,3.672,0,0,0-.68-0.044h-1.417v4.1h-1.222Zm1.222-5.157h2.626a3.933,3.933,0,0,0,1.31-.173,1.393,1.393,0,0,0,.718-0.554,1.5,1.5,0,0,0,.246-0.828,1.376,1.376,0,0,0-.476-1.077,2.225,2.225,0,0,0-1.5-.422h-2.922v3.054Z" transform="translate(-4.839 -5.251)"/><path class="cls-5" d="M174.823,119.782l3.545-9.231h1.316l3.778,9.231h-1.392l-1.077-2.8h-3.86l-1.014,2.8h-1.3Zm2.664-3.791h3.129l-0.963-2.557q-0.441-1.165-.655-1.914a11.815,11.815,0,0,1-.5,1.763Z" transform="translate(-4.839 -5.251)"/><g class="cls-4"><rect class="cls-8" x="46.038" y="144.622" width="180.55" height="29.232"/></g><rect class="cls-9" x="46.038" y="136.741" width="180.55" height="7.881"/><rect class="cls-10" x="46.038" y="136.741" width="180.55" height="7.881"/><path class="cls-5" d="M126.527,168.071v-6.687h1.014v0.938a2.385,2.385,0,0,1,.838-0.791,2.354,2.354,0,0,1,1.19-.3,2.2,2.2,0,0,1,1.218.309,1.654,1.654,0,0,1,.671.863,2.4,2.4,0,0,1,2.065-1.171,2.037,2.037,0,0,1,1.53.551,2.357,2.357,0,0,1,.535,1.7v4.59h-1.127v-4.213a3.106,3.106,0,0,0-.11-0.979,0.954,0.954,0,0,0-.4-0.482,1.251,1.251,0,0,0-.68-0.183,1.585,1.585,0,0,0-1.171.469,2.067,2.067,0,0,0-.466,1.5v3.885H130.5v-4.345a1.913,1.913,0,0,0-.277-1.133,1.049,1.049,0,0,0-.907-0.378,1.648,1.648,0,0,0-.885.252,1.432,1.432,0,0,0-.589.737,4.153,4.153,0,0,0-.183,1.4v3.47h-1.133Z" transform="translate(-4.839 -5.251)"/><path class="cls-5" d="M137.219,170.647l-0.126-1.064a2.515,2.515,0,0,0,.648.1,1.249,1.249,0,0,0,.6-0.125,1.032,1.032,0,0,0,.372-0.353,5.566,5.566,0,0,0,.347-0.844q0.031-.094.1-0.277l-2.538-6.7h1.221l1.392,3.873q0.27,0.737.485,1.549a15.129,15.129,0,0,1,.466-1.524l1.429-3.9h1.134l-2.544,6.8a13.273,13.273,0,0,1-.636,1.518,2.246,2.246,0,0,1-.692.822,1.637,1.637,0,0,1-.932.261A2.27,2.27,0,0,1,137.219,170.647Z" transform="translate(-4.839 -5.251)"/><path class="cls-5" d="M143.881,168.071V158.84h4.093a5.456,5.456,0,0,1,1.876.249,2.054,2.054,0,0,1,1.026.878,2.619,2.619,0,0,1,.384,1.392,2.32,2.32,0,0,1-.636,1.656,3.216,3.216,0,0,1-1.964.856,3.16,3.16,0,0,1,.737.46,6.358,6.358,0,0,1,1.014,1.228l1.606,2.513h-1.537l-1.222-1.92q-0.535-.831-0.882-1.272a2.764,2.764,0,0,0-.62-0.617,1.822,1.822,0,0,0-.557-0.246,3.672,3.672,0,0,0-.68-0.044H145.1v4.1h-1.222Zm1.222-5.157h2.626a3.933,3.933,0,0,0,1.31-.173,1.393,1.393,0,0,0,.718-0.554,1.5,1.5,0,0,0,.246-0.828,1.376,1.376,0,0,0-.476-1.077,2.225,2.225,0,0,0-1.5-.422H145.1v3.054Z" transform="translate(-4.839 -5.251)"/><path class="cls-5" d="M152.046,168.071l3.545-9.231h1.316l3.778,9.231h-1.392l-1.077-2.8h-3.86l-1.014,2.8h-1.3Zm2.664-3.791h3.129l-0.963-2.557q-0.441-1.165-.655-1.914a11.815,11.815,0,0,1-.5,1.763Z" transform="translate(-4.839 -5.251)"/><rect class="cls-11" x="0.5" y="0.5" width="273.059" height="185.087"/><path class="cls-5" d="M52.3,29.49V20.259h1.864V29.49H52.3Z" transform="translate(-4.839 -5.251)"/><path class="cls-5" d="M55.943,29.49V20.259h3.923a6.726,6.726,0,0,1,2.15.249,2.122,2.122,0,0,1,1.074.885,2.662,2.662,0,0,1,.4,1.455,2.466,2.466,0,0,1-.611,1.716,2.934,2.934,0,0,1-1.826.853,4.345,4.345,0,0,1,1,.774,10.465,10.465,0,0,1,1.061,1.5l1.127,1.8H62.014l-1.348-2.009a13.054,13.054,0,0,0-.982-1.357,1.43,1.43,0,0,0-.561-0.384,3.067,3.067,0,0,0-.938-0.1H57.807V29.49H55.943Zm1.864-5.327h1.379a7.11,7.11,0,0,0,1.675-.114,1,1,0,0,0,.522-0.39,1.2,1.2,0,0,0,.189-0.693,1.107,1.107,0,0,0-.249-0.752,1.139,1.139,0,0,0-.7-0.362q-0.227-.031-1.36-0.032H57.807v2.343Z" transform="translate(-4.839 -5.251)"/><path class="cls-5" d="M73.575,29.49H71.547l-0.806-2.1h-3.69l-0.762,2.1H64.312l3.6-9.231h1.971Zm-3.432-3.652-1.272-3.426-1.247,3.426h2.519Z" transform="translate(-4.839 -5.251)"/><path class="cls-5" d="M73.928,27.582l1.776-.271a1.3,1.3,0,0,0,.459.784,1.552,1.552,0,0,0,.97.268,1.751,1.751,0,0,0,1.033-.252,0.563,0.563,0,0,0,.233-0.473,0.465,0.465,0,0,0-.125-0.333,1.411,1.411,0,0,0-.592-0.233,9.546,9.546,0,0,1-2.714-.863,1.723,1.723,0,0,1-.793-1.5,1.853,1.853,0,0,1,.687-1.461,3.205,3.205,0,0,1,2.128-.592,3.714,3.714,0,0,1,2.04.447,2.287,2.287,0,0,1,.919,1.322l-1.669.309a1.032,1.032,0,0,0-.406-0.6,1.485,1.485,0,0,0-.854-0.208,1.924,1.924,0,0,0-1,.195,0.419,0.419,0,0,0-.2.359,0.391,0.391,0,0,0,.176.321,6.644,6.644,0,0,0,1.653.5,4.919,4.919,0,0,1,1.974.787,1.635,1.635,0,0,1,.554,1.316,2.019,2.019,0,0,1-.768,1.581,3.4,3.4,0,0,1-2.273.662,3.734,3.734,0,0,1-2.163-.554A2.554,2.554,0,0,1,73.928,27.582Z" transform="translate(-4.839 -5.251)"/><path class="cls-5" d="M82.063,24.572V22.8h1.77v1.77h-1.77Zm0,4.918v-1.77h1.77v1.77h-1.77Z" transform="translate(-4.839 -5.251)"/><path class="cls-5" d="M89.254,26.524l1.153-.1a2.536,2.536,0,0,0,.381,1.137,2.078,2.078,0,0,0,.929.718,3.518,3.518,0,0,0,1.417.274,3.39,3.39,0,0,0,1.234-.208,1.715,1.715,0,0,0,.8-0.57,1.325,1.325,0,0,0,.261-0.791,1.2,1.2,0,0,0-.252-0.759,1.865,1.865,0,0,0-.831-0.544,16.277,16.277,0,0,0-1.644-.45,8.423,8.423,0,0,1-1.782-.576,2.5,2.5,0,0,1-.985-0.86,2.1,2.1,0,0,1-.324-1.149,2.343,2.343,0,0,1,.4-1.307,2.458,2.458,0,0,1,1.159-.923,4.395,4.395,0,0,1,1.694-.315,4.63,4.63,0,0,1,1.811.331,2.615,2.615,0,0,1,1.206.973,2.794,2.794,0,0,1,.453,1.455l-1.171.088a1.891,1.891,0,0,0-.639-1.323,2.488,2.488,0,0,0-1.609-.447,2.581,2.581,0,0,0-1.615.406,1.218,1.218,0,0,0-.507.979,1.049,1.049,0,0,0,.359.818,4.861,4.861,0,0,0,1.842.658,12.165,12.165,0,0,1,2.043.589,2.8,2.8,0,0,1,1.19.941,2.3,2.3,0,0,1,.384,1.313,2.516,2.516,0,0,1-.422,1.389,2.783,2.783,0,0,1-1.212,1.014,4.227,4.227,0,0,1-1.779.362,5.308,5.308,0,0,1-2.1-.365,2.934,2.934,0,0,1-1.329-1.1A3.116,3.116,0,0,1,89.254,26.524Z" transform="translate(-4.839 -5.251)"/><path class="cls-5" d="M98.127,32.053V22.8H99.16v0.869a2.546,2.546,0,0,1,.825-0.765,2.269,2.269,0,0,1,1.115-.255,2.646,2.646,0,0,1,1.511.441,2.708,2.708,0,0,1,.989,1.244,4.538,4.538,0,0,1,.334,1.76,4.471,4.471,0,0,1-.369,1.848,2.777,2.777,0,0,1-1.07,1.259,2.748,2.748,0,0,1-1.477.438A2.13,2.13,0,0,1,100,29.4a2.312,2.312,0,0,1-.74-0.6v3.256H98.127Zm1.026-5.869a2.908,2.908,0,0,0,.523,1.908,1.6,1.6,0,0,0,1.266.617,1.638,1.638,0,0,0,1.294-.639,3.033,3.033,0,0,0,.539-1.98,2.959,2.959,0,0,0-.526-1.915,1.584,1.584,0,0,0-1.256-.636,1.633,1.633,0,0,0-1.282.677A3.032,3.032,0,0,0,99.154,26.184Z" transform="translate(-4.839 -5.251)"/><path class="cls-5" d="M104.878,26.147a3.448,3.448,0,0,1,1.033-2.752,3.113,3.113,0,0,1,2.1-.743,3,3,0,0,1,2.254.9,3.438,3.438,0,0,1,.875,2.5,4.424,4.424,0,0,1-.387,2.031,2.744,2.744,0,0,1-1.127,1.149,3.281,3.281,0,0,1-1.615.41,3.005,3.005,0,0,1-2.27-.9A3.6,3.6,0,0,1,104.878,26.147Zm1.165,0a2.847,2.847,0,0,0,.561,1.924,1.865,1.865,0,0,0,2.814,0,2.915,2.915,0,0,0,.561-1.958,2.765,2.765,0,0,0-.563-1.88,1.868,1.868,0,0,0-2.812,0A2.833,2.833,0,0,0,106.043,26.147Z" transform="translate(-4.839 -5.251)"/><path class="cls-5" d="M112.472,29.49V22.8h1.02v0.951a2.4,2.4,0,0,1,2.128-1.1,2.8,2.8,0,0,1,1.111.217,1.746,1.746,0,0,1,.759.57,2.189,2.189,0,0,1,.353.837,6.489,6.489,0,0,1,.063,1.1V29.49h-1.134V25.422a3.05,3.05,0,0,0-.132-1.036,1.09,1.09,0,0,0-.469-0.548,1.5,1.5,0,0,0-.791-0.2,1.836,1.836,0,0,0-1.25.46,2.267,2.267,0,0,0-.526,1.744V29.49h-1.133Z" transform="translate(-4.839 -5.251)"/><path class="cls-5" d="M119.191,27.494l1.121-.176a1.566,1.566,0,0,0,.526,1.033,1.833,1.833,0,0,0,1.206.359,1.772,1.772,0,0,0,1.159-.318,0.952,0.952,0,0,0,.377-0.747,0.689,0.689,0,0,0-.333-0.6,4.925,4.925,0,0,0-1.159-.384,10.557,10.557,0,0,1-1.729-.545,1.65,1.65,0,0,1-.979-1.533,1.719,1.719,0,0,1,.205-0.828,1.831,1.831,0,0,1,.557-0.633,2.332,2.332,0,0,1,.721-0.331,3.429,3.429,0,0,1,.979-0.136,3.866,3.866,0,0,1,1.382.227,1.878,1.878,0,0,1,.878.614,2.4,2.4,0,0,1,.39,1.036l-1.108.151a1.213,1.213,0,0,0-.437-0.806,1.6,1.6,0,0,0-1.023-.29,1.85,1.85,0,0,0-1.115.258,0.752,0.752,0,0,0-.334.6,0.625,0.625,0,0,0,.139.4,1,1,0,0,0,.435.3q0.17,0.064,1,.29a13.812,13.812,0,0,1,1.678.526,1.7,1.7,0,0,1,.747.595,1.663,1.663,0,0,1,.271.97,1.9,1.9,0,0,1-.331,1.067,2.136,2.136,0,0,1-.954.775,3.472,3.472,0,0,1-1.411.274,3.139,3.139,0,0,1-1.986-.542A2.517,2.517,0,0,1,119.191,27.494Z" transform="translate(-4.839 -5.251)"/><path class="cls-5" d="M125.67,26.147a3.448,3.448,0,0,1,1.033-2.752,3.113,3.113,0,0,1,2.1-.743,3,3,0,0,1,2.254.9,3.438,3.438,0,0,1,.875,2.5,4.424,4.424,0,0,1-.387,2.031,2.744,2.744,0,0,1-1.127,1.149,3.281,3.281,0,0,1-1.615.41,3.005,3.005,0,0,1-2.27-.9A3.6,3.6,0,0,1,125.67,26.147Zm1.165,0a2.847,2.847,0,0,0,.561,1.924,1.865,1.865,0,0,0,2.814,0,2.915,2.915,0,0,0,.561-1.958,2.765,2.765,0,0,0-.563-1.88,1.868,1.868,0,0,0-2.812,0A2.833,2.833,0,0,0,126.835,26.147Z" transform="translate(-4.839 -5.251)"/><path class="cls-5" d="M133.252,29.49V22.8h1.02v1.014a2.767,2.767,0,0,1,.721-0.938,1.257,1.257,0,0,1,.728-0.227,2.213,2.213,0,0,1,1.165.365l-0.39,1.052a1.624,1.624,0,0,0-.831-0.246,1.079,1.079,0,0,0-.667.224,1.21,1.21,0,0,0-.422.62,4.432,4.432,0,0,0-.188,1.323v3.5h-1.134Z" transform="translate(-4.839 -5.251)"/><path class="cls-5" d="M142.138,27.336l1.171,0.145a2.857,2.857,0,0,1-1.026,1.593,3.476,3.476,0,0,1-4.241-.337,3.53,3.53,0,0,1-.86-2.535,3.7,3.7,0,0,1,.869-2.62,2.942,2.942,0,0,1,2.254-.932,2.861,2.861,0,0,1,2.191.913,3.63,3.63,0,0,1,.85,2.569c0,0.067,0,.168-0.006.3h-4.987a2.567,2.567,0,0,0,.624,1.688,1.854,1.854,0,0,0,1.4.586,1.734,1.734,0,0,0,1.064-.328A2.173,2.173,0,0,0,142.138,27.336ZM138.416,25.5h3.734a2.272,2.272,0,0,0-.428-1.266,1.738,1.738,0,0,0-1.4-.655,1.8,1.8,0,0,0-1.313.523A2.066,2.066,0,0,0,138.416,25.5Z" transform="translate(-4.839 -5.251)"/><path class="cls-5" d="M149.071,29.49V28.647a2.082,2.082,0,0,1-1.871,1,2.626,2.626,0,0,1-1.47-.441,2.9,2.9,0,0,1-1.039-1.231,4.256,4.256,0,0,1-.368-1.817,4.754,4.754,0,0,1,.333-1.817,2.635,2.635,0,0,1,1-1.25,2.677,2.677,0,0,1,1.492-.435,2.232,2.232,0,0,1,1.077.255,2.257,2.257,0,0,1,.768.664V20.259h1.127V29.49h-1.051Zm-3.583-3.337a2.9,2.9,0,0,0,.542,1.92,1.632,1.632,0,0,0,1.278.636,1.6,1.6,0,0,0,1.262-.608,2.8,2.8,0,0,0,.52-1.854,3.146,3.146,0,0,0-.529-2.015,1.628,1.628,0,0,0-1.3-.642,1.57,1.57,0,0,0-1.262.617A3.047,3.047,0,0,0,145.488,26.153Z" transform="translate(-4.839 -5.251)"/><path class="cls-5" d="M156.533,29.49h-1.052V20.259h1.133v3.293a2.244,2.244,0,0,1,1.833-.9,2.806,2.806,0,0,1,1.168.249,2.392,2.392,0,0,1,.907.7,3.389,3.389,0,0,1,.557,1.086,4.482,4.482,0,0,1,.2,1.36,3.821,3.821,0,0,1-.85,2.657,2.66,2.66,0,0,1-2.041.938,2.129,2.129,0,0,1-1.857-.989V29.49ZM156.52,26.1a3.469,3.469,0,0,0,.328,1.738,1.62,1.62,0,0,0,2.733.23,2.933,2.933,0,0,0,.542-1.924,2.984,2.984,0,0,0-.52-1.933,1.582,1.582,0,0,0-1.256-.624,1.63,1.63,0,0,0-1.285.646A2.835,2.835,0,0,0,156.52,26.1Z" transform="translate(-4.839 -5.251)"/><path class="cls-5" d="M162.609,32.066L162.483,31a2.515,2.515,0,0,0,.648.1,1.249,1.249,0,0,0,.6-0.125,1.032,1.032,0,0,0,.372-0.353,5.566,5.566,0,0,0,.347-0.844q0.031-.094.1-0.277l-2.538-6.7h1.221l1.392,3.873q0.27,0.737.485,1.549a15.129,15.129,0,0,1,.466-1.524l1.429-3.9h1.134L165.6,29.6a13.273,13.273,0,0,1-.636,1.518,2.246,2.246,0,0,1-.692.822,1.637,1.637,0,0,1-.932.261A2.27,2.27,0,0,1,162.609,32.066Z" transform="translate(-4.839 -5.251)"/><path class="cls-5" d="M172.861,29.49V20.259h6.675v1.089h-5.453v2.827h5.107v1.083h-5.107V28.4h5.667V29.49h-6.889Z" transform="translate(-4.839 -5.251)"/><path class="cls-5" d="M181.292,29.49V22.8h1.014v0.938a2.385,2.385,0,0,1,.838-0.791,2.354,2.354,0,0,1,1.19-.3,2.2,2.2,0,0,1,1.218.309,1.654,1.654,0,0,1,.671.863,2.4,2.4,0,0,1,2.065-1.171,2.037,2.037,0,0,1,1.53.551,2.357,2.357,0,0,1,.535,1.7v4.59h-1.127V25.277a3.106,3.106,0,0,0-.11-0.979,0.954,0.954,0,0,0-.4-0.482,1.251,1.251,0,0,0-.68-0.183,1.585,1.585,0,0,0-1.171.469,2.067,2.067,0,0,0-.466,1.5V29.49h-1.133V25.145a1.913,1.913,0,0,0-.277-1.133,1.049,1.049,0,0,0-.907-0.378,1.648,1.648,0,0,0-.885.252,1.432,1.432,0,0,0-.589.737,4.153,4.153,0,0,0-.183,1.4v3.47h-1.133Z" transform="translate(-4.839 -5.251)"/><path class="cls-5" d="M192.036,32.053V22.8h1.033v0.869a2.546,2.546,0,0,1,.825-0.765,2.269,2.269,0,0,1,1.115-.255,2.646,2.646,0,0,1,1.511.441,2.708,2.708,0,0,1,.989,1.244,4.538,4.538,0,0,1,.334,1.76,4.471,4.471,0,0,1-.369,1.848A2.777,2.777,0,0,1,196.4,29.2a2.748,2.748,0,0,1-1.477.438,2.13,2.13,0,0,1-1.017-.24,2.312,2.312,0,0,1-.74-0.6v3.256h-1.133Zm1.026-5.869a2.908,2.908,0,0,0,.523,1.908,1.6,1.6,0,0,0,1.266.617,1.638,1.638,0,0,0,1.294-.639,3.033,3.033,0,0,0,.539-1.98,2.959,2.959,0,0,0-.526-1.915,1.584,1.584,0,0,0-1.256-.636,1.633,1.633,0,0,0-1.282.677A3.032,3.032,0,0,0,193.062,26.184Z" transform="translate(-4.839 -5.251)"/><path class="cls-5" d="M199.183,29.49V20.259h1.134V29.49h-1.134Z" transform="translate(-4.839 -5.251)"/><path class="cls-5" d="M201.651,26.147a3.448,3.448,0,0,1,1.033-2.752,3.113,3.113,0,0,1,2.1-.743,3,3,0,0,1,2.254.9,3.438,3.438,0,0,1,.875,2.5,4.424,4.424,0,0,1-.387,2.031,2.744,2.744,0,0,1-1.127,1.149,3.281,3.281,0,0,1-1.615.41,3.005,3.005,0,0,1-2.27-.9A3.6,3.6,0,0,1,201.651,26.147Zm1.165,0a2.847,2.847,0,0,0,.561,1.924,1.865,1.865,0,0,0,2.814,0,2.915,2.915,0,0,0,.561-1.958,2.765,2.765,0,0,0-.563-1.88,1.868,1.868,0,0,0-2.812,0A2.833,2.833,0,0,0,202.816,26.147Z" transform="translate(-4.839 -5.251)"/><path class="cls-5" d="M209.195,32.066L209.069,31a2.515,2.515,0,0,0,.648.1,1.249,1.249,0,0,0,.6-0.125,1.032,1.032,0,0,0,.372-0.353,5.566,5.566,0,0,0,.347-0.844q0.031-.094.1-0.277L208.6,22.8h1.221l1.392,3.873q0.27,0.737.485,1.549a15.129,15.129,0,0,1,.466-1.524l1.429-3.9h1.134l-2.544,6.8a13.273,13.273,0,0,1-.636,1.518,2.246,2.246,0,0,1-.692.822,1.637,1.637,0,0,1-.932.261A2.27,2.27,0,0,1,209.195,32.066Z" transform="translate(-4.839 -5.251)"/><path class="cls-5" d="M220.271,27.336l1.171,0.145a2.857,2.857,0,0,1-1.026,1.593,3.476,3.476,0,0,1-4.241-.337,3.53,3.53,0,0,1-.86-2.535,3.7,3.7,0,0,1,.869-2.62,2.942,2.942,0,0,1,2.254-.932,2.861,2.861,0,0,1,2.191.913,3.63,3.63,0,0,1,.85,2.569c0,0.067,0,.168-0.006.3h-4.987a2.567,2.567,0,0,0,.624,1.688,1.854,1.854,0,0,0,1.4.586,1.734,1.734,0,0,0,1.064-.328A2.173,2.173,0,0,0,220.271,27.336ZM216.55,25.5h3.734a2.272,2.272,0,0,0-.428-1.266,1.738,1.738,0,0,0-1.4-.655,1.8,1.8,0,0,0-1.313.523A2.066,2.066,0,0,0,216.55,25.5Z" transform="translate(-4.839 -5.251)"/><path class="cls-5" d="M222.853,29.49V22.8h1.02v1.014a2.767,2.767,0,0,1,.721-0.938,1.257,1.257,0,0,1,.728-0.227,2.213,2.213,0,0,1,1.165.365l-0.39,1.052a1.624,1.624,0,0,0-.831-0.246,1.079,1.079,0,0,0-.667.224,1.21,1.21,0,0,0-.422.62,4.432,4.432,0,0,0-.188,1.323v3.5h-1.134Z" transform="translate(-4.839 -5.251)"/><path class="cls-5" d="M226.707,27.494l1.121-.176a1.566,1.566,0,0,0,.526,1.033,1.833,1.833,0,0,0,1.206.359,1.772,1.772,0,0,0,1.159-.318,0.952,0.952,0,0,0,.377-0.747,0.689,0.689,0,0,0-.333-0.6,4.925,4.925,0,0,0-1.159-.384,10.557,10.557,0,0,1-1.729-.545,1.65,1.65,0,0,1-.979-1.533,1.719,1.719,0,0,1,.205-0.828,1.831,1.831,0,0,1,.557-0.633,2.332,2.332,0,0,1,.721-0.331,3.429,3.429,0,0,1,.979-0.136,3.866,3.866,0,0,1,1.382.227,1.878,1.878,0,0,1,.878.614,2.4,2.4,0,0,1,.39,1.036l-1.108.151a1.213,1.213,0,0,0-.437-0.806,1.6,1.6,0,0,0-1.023-.29,1.85,1.85,0,0,0-1.115.258,0.752,0.752,0,0,0-.334.6,0.625,0.625,0,0,0,.139.4,1,1,0,0,0,.435.3q0.17,0.064,1,.29a13.812,13.812,0,0,1,1.678.526,1.7,1.7,0,0,1,.747.595,1.663,1.663,0,0,1,.271.97,1.9,1.9,0,0,1-.331,1.067,2.136,2.136,0,0,1-.954.775,3.472,3.472,0,0,1-1.411.274,3.139,3.139,0,0,1-1.986-.542A2.517,2.517,0,0,1,226.707,27.494Z" transform="translate(-4.839 -5.251)"/></svg>