<svg id="Layer_1" data-name="Layer 1" xmlns="http://www.w3.org/2000/svg" xmlns:xlink="http://www.w3.org/1999/xlink" viewBox="0 0 382.118 259.333"><defs><style>.cls-1,.cls-10,.cls-11,.cls-2,.cls-6,.cls-8{fill:none;}.cls-2{stroke:#89c64d;}.cls-3{fill:#89c64d;}.cls-4{clip-path:url(#clip-path);}.cls-5{fill:#231f20;}.cls-6{stroke:#25408f;}.cls-7{fill:#25408f;}.cls-8{stroke:#b12229;}.cls-9{fill:#b12229;}.cls-10{stroke:#d2232a;}.cls-11{stroke:#231f20;stroke-miterlimit:10;}</style><clipPath id="clip-path" transform="translate(-4.839 -5.251)"><rect class="cls-1" x="59.398" y="60.608" width="271" height="187.6"/></clipPath></defs><title>IRAs_Established_Employers</title><rect class="cls-2" x="64.059" y="66.857" width="252" height="40.8"/><rect class="cls-3" x="64.059" y="55.857" width="252" height="11"/><g class="cls-4"><rect class="cls-2" x="64.059" y="55.857" width="252" height="11"/></g><path class="cls-5" d="M167.033,93.368l1.608-.141a3.558,3.558,0,0,0,.532,1.587,2.916,2.916,0,0,0,1.3,1,4.926,4.926,0,0,0,1.978.382,4.739,4.739,0,0,0,1.723-.29,2.389,2.389,0,0,0,1.112-.795,1.846,1.846,0,0,0,.365-1.1,1.675,1.675,0,0,0-.352-1.059,2.6,2.6,0,0,0-1.16-.761,22.722,22.722,0,0,0-2.294-.628,11.715,11.715,0,0,1-2.487-.8,3.487,3.487,0,0,1-1.375-1.2,2.942,2.942,0,0,1-.453-1.6,3.273,3.273,0,0,1,.554-1.823,3.429,3.429,0,0,1,1.617-1.288,6.135,6.135,0,0,1,2.364-.439,6.441,6.441,0,0,1,2.527.462,3.637,3.637,0,0,1,1.683,1.357,3.9,3.9,0,0,1,.633,2.03l-1.635.123a2.638,2.638,0,0,0-.892-1.846,3.472,3.472,0,0,0-2.246-.624,3.61,3.61,0,0,0-2.254.566,1.7,1.7,0,0,0-.708,1.367,1.465,1.465,0,0,0,.5,1.143,6.773,6.773,0,0,0,2.571.918,17.089,17.089,0,0,1,2.852.822,3.907,3.907,0,0,1,1.661,1.314,3.2,3.2,0,0,1,.536,1.832,3.5,3.5,0,0,1-.589,1.938,3.873,3.873,0,0,1-1.692,1.416,5.909,5.909,0,0,1-2.483.5,7.414,7.414,0,0,1-2.931-.51,4.1,4.1,0,0,1-1.854-1.534A4.344,4.344,0,0,1,167.033,93.368Z" transform="translate(-4.839 -5.251)"/><path class="cls-5" d="M179.654,97.507V84.623h9.316v1.521h-7.611v3.946h7.128V91.6h-7.128v4.386h7.91v1.521h-9.615Z" transform="translate(-4.839 -5.251)"/><path class="cls-5" d="M191.624,97.507V84.623h4.86a11.735,11.735,0,0,1,1.96.123,3.9,3.9,0,0,1,1.591.6,3.167,3.167,0,0,1,1.033,1.244,4.193,4.193,0,0,1-.655,4.539q-1.046,1.14-3.779,1.139h-3.3v5.238h-1.705Zm1.705-6.759h3.331a3.533,3.533,0,0,0,2.347-.615A2.192,2.192,0,0,0,199.7,88.4a2.333,2.333,0,0,0-.409-1.385,1.914,1.914,0,0,0-1.077-.76,7.285,7.285,0,0,0-1.591-.114h-3.3v4.605Z" transform="translate(-4.839 -5.251)"/><path class="cls-5" d="M208.921,97.507V84.623h1.705V97.507h-1.705Z" transform="translate(-4.839 -5.251)"/><path class="cls-5" d="M213.659,97.507V84.623h5.713a7.6,7.6,0,0,1,2.619.348,2.863,2.863,0,0,1,1.433,1.226,3.658,3.658,0,0,1,.536,1.942,3.24,3.24,0,0,1-.888,2.312,4.492,4.492,0,0,1-2.742,1.2,4.422,4.422,0,0,1,1.028.642A8.86,8.86,0,0,1,222.773,94l2.241,3.507H222.87l-1.705-2.681q-0.747-1.16-1.23-1.775a3.869,3.869,0,0,0-.866-0.861,2.559,2.559,0,0,0-.778-0.343,5.122,5.122,0,0,0-.949-0.062h-1.978v5.722h-1.705Zm1.705-7.2h3.665a5.5,5.5,0,0,0,1.828-.241,1.945,1.945,0,0,0,1-.773,2.094,2.094,0,0,0,.343-1.156,1.92,1.92,0,0,0-.664-1.5,3.1,3.1,0,0,0-2.1-.589h-4.078v4.263Z" transform="translate(-4.839 -5.251)"/><path class="cls-5" d="M225.054,97.507L230,84.623h1.837l5.273,12.885H235.17l-1.5-3.9H228.28l-1.415,3.9h-1.811Zm3.718-5.291h4.368L231.8,88.648q-0.615-1.626-.914-2.672a16.425,16.425,0,0,1-.694,2.461Z" transform="translate(-4.839 -5.251)"/><rect class="cls-6" x="64.059" y="134.257" width="252" height="40.8"/><rect class="cls-7" x="64.059" y="123.257" width="252" height="11"/><rect class="cls-6" x="64.059" y="123.257" width="252" height="11"/><path class="cls-5" d="M153.884,160.768l1.608-.141a3.558,3.558,0,0,0,.532,1.587,2.916,2.916,0,0,0,1.3,1,4.926,4.926,0,0,0,1.978.382,4.739,4.739,0,0,0,1.723-.29,2.389,2.389,0,0,0,1.112-.795,1.846,1.846,0,0,0,.365-1.1,1.675,1.675,0,0,0-.352-1.059,2.6,2.6,0,0,0-1.16-.761,22.722,22.722,0,0,0-2.294-.628,11.715,11.715,0,0,1-2.487-.8,3.487,3.487,0,0,1-1.375-1.2,2.942,2.942,0,0,1-.453-1.6,3.273,3.273,0,0,1,.554-1.823,3.429,3.429,0,0,1,1.617-1.288,6.135,6.135,0,0,1,2.364-.439,6.441,6.441,0,0,1,2.527.462,3.637,3.637,0,0,1,1.683,1.357,3.9,3.9,0,0,1,.633,2.03l-1.635.123a2.638,2.638,0,0,0-.892-1.846,3.472,3.472,0,0,0-2.246-.624,3.61,3.61,0,0,0-2.254.566,1.7,1.7,0,0,0-.708,1.367,1.465,1.465,0,0,0,.5,1.143,6.773,6.773,0,0,0,2.571.918,17.089,17.089,0,0,1,2.852.822,3.907,3.907,0,0,1,1.661,1.314,3.2,3.2,0,0,1,.536,1.832,3.5,3.5,0,0,1-.589,1.938,3.873,3.873,0,0,1-1.692,1.416,5.909,5.909,0,0,1-2.483.5,7.414,7.414,0,0,1-2.931-.51,4.1,4.1,0,0,1-1.854-1.534A4.344,4.344,0,0,1,153.884,160.768Z" transform="translate(-4.839 -5.251)"/><path class="cls-5" d="M166.76,164.908V152.023h1.705v12.885H166.76Z" transform="translate(-4.839 -5.251)"/><path class="cls-5" d="M171.418,164.908V152.023h2.566l3.05,9.123q0.422,1.274.615,1.907,0.22-.7.686-2.065l3.085-8.965h2.294v12.885h-1.644V154.124l-3.744,10.784h-1.538l-3.727-10.969v10.969h-1.644Z" transform="translate(-4.839 -5.251)"/><path class="cls-5" d="M186.465,164.908V152.023h4.86a11.735,11.735,0,0,1,1.96.123,3.9,3.9,0,0,1,1.591.6,3.167,3.167,0,0,1,1.033,1.244,4.193,4.193,0,0,1-.655,4.539q-1.046,1.14-3.779,1.139h-3.3v5.238h-1.705Zm1.705-6.759H191.5a3.533,3.533,0,0,0,2.347-.615,2.192,2.192,0,0,0,.694-1.731,2.333,2.333,0,0,0-.409-1.385,1.914,1.914,0,0,0-1.077-.76,7.285,7.285,0,0,0-1.591-.114h-3.3v4.605Z" transform="translate(-4.839 -5.251)"/><path class="cls-5" d="M198.4,164.908V152.023h1.705v11.364h6.346v1.521H198.4Z" transform="translate(-4.839 -5.251)"/><path class="cls-5" d="M208.517,164.908V152.023h9.316v1.521h-7.611v3.946h7.128V159h-7.128v4.386h7.91v1.521h-9.615Z" transform="translate(-4.839 -5.251)"/><path class="cls-5" d="M225.779,164.908V152.023h1.705v12.885h-1.705Z" transform="translate(-4.839 -5.251)"/><path class="cls-5" d="M230.516,164.908V152.023h5.713a7.6,7.6,0,0,1,2.619.348,2.863,2.863,0,0,1,1.433,1.226,3.658,3.658,0,0,1,.536,1.942,3.24,3.24,0,0,1-.888,2.312,4.492,4.492,0,0,1-2.742,1.2,4.422,4.422,0,0,1,1.028.642,8.86,8.86,0,0,1,1.415,1.714l2.241,3.507h-2.145l-1.705-2.681q-0.747-1.16-1.23-1.775a3.869,3.869,0,0,0-.866-0.861,2.559,2.559,0,0,0-.778-0.343,5.122,5.122,0,0,0-.949-0.062h-1.978v5.722h-1.705Zm1.705-7.2h3.665a5.5,5.5,0,0,0,1.828-.241,1.945,1.945,0,0,0,1-.773,2.094,2.094,0,0,0,.343-1.156,1.92,1.92,0,0,0-.664-1.5,3.1,3.1,0,0,0-2.1-.589h-4.078v4.263Z" transform="translate(-4.839 -5.251)"/><path class="cls-5" d="M241.893,164.908l4.948-12.885h1.837l5.273,12.885H252.01l-1.5-3.9h-5.388l-1.415,3.9h-1.811Zm3.718-5.291h4.368l-1.345-3.568q-0.615-1.626-.914-2.672a16.425,16.425,0,0,1-.694,2.461Z" transform="translate(-4.839 -5.251)"/><g class="cls-4"><rect class="cls-8" x="64.059" y="201.657" width="252" height="40.8"/></g><rect class="cls-9" x="64.059" y="190.657" width="252" height="11"/><rect class="cls-10" x="64.059" y="190.657" width="252" height="11"/><path class="cls-5" d="M174.485,232.307v-9.334H175.9v1.31a3.326,3.326,0,0,1,1.169-1.1,3.284,3.284,0,0,1,1.661-.418,3.07,3.07,0,0,1,1.7.431,2.3,2.3,0,0,1,.936,1.2,3.351,3.351,0,0,1,2.883-1.635,2.842,2.842,0,0,1,2.136.77,3.285,3.285,0,0,1,.747,2.368v6.407h-1.573v-5.88a4.326,4.326,0,0,0-.154-1.366,1.325,1.325,0,0,0-.558-0.673,1.742,1.742,0,0,0-.949-0.255,2.212,2.212,0,0,0-1.635.654,2.887,2.887,0,0,0-.65,2.1v5.423h-1.582v-6.064a2.668,2.668,0,0,0-.387-1.582,1.464,1.464,0,0,0-1.266-.527,2.3,2.3,0,0,0-1.235.352,1.994,1.994,0,0,0-.822,1.028,5.788,5.788,0,0,0-.255,1.951v4.843h-1.582Z" transform="translate(-4.839 -5.251)"/><path class="cls-5" d="M189.409,235.9l-0.176-1.485a3.525,3.525,0,0,0,.905.141,1.737,1.737,0,0,0,.844-0.176,1.437,1.437,0,0,0,.519-0.492,7.76,7.76,0,0,0,.483-1.178q0.044-.132.141-0.387l-3.542-9.352h1.705l1.942,5.405q0.378,1.028.677,2.162a21.286,21.286,0,0,1,.65-2.127l2-5.44h1.582l-3.551,9.492a18.632,18.632,0,0,1-.888,2.118,3.134,3.134,0,0,1-.967,1.147,2.291,2.291,0,0,1-1.3.364A3.168,3.168,0,0,1,189.409,235.9Z" transform="translate(-4.839 -5.251)"/><path class="cls-5" d="M198.707,232.307V219.422h5.713a7.6,7.6,0,0,1,2.619.348A2.863,2.863,0,0,1,208.472,221a3.658,3.658,0,0,1,.536,1.942,3.24,3.24,0,0,1-.888,2.312,4.492,4.492,0,0,1-2.742,1.2,4.422,4.422,0,0,1,1.028.642,8.86,8.86,0,0,1,1.415,1.714l2.241,3.507h-2.145l-1.705-2.681q-0.747-1.16-1.23-1.775a3.869,3.869,0,0,0-.866-0.861,2.559,2.559,0,0,0-.778-0.343,5.122,5.122,0,0,0-.949-0.062h-1.978v5.722h-1.705Zm1.705-7.2h3.665a5.5,5.5,0,0,0,1.828-.241,1.945,1.945,0,0,0,1-.773,2.094,2.094,0,0,0,.343-1.156,1.92,1.92,0,0,0-.664-1.5,3.1,3.1,0,0,0-2.1-.589h-4.078v4.263Z" transform="translate(-4.839 -5.251)"/><path class="cls-5" d="M210.1,232.307l4.948-12.885h1.837l5.273,12.885h-1.942l-1.5-3.9h-5.388l-1.415,3.9H210.1Zm3.718-5.291h4.368l-1.345-3.568q-0.615-1.626-.914-2.672a16.425,16.425,0,0,1-.694,2.461Z" transform="translate(-4.839 -5.251)"/><rect class="cls-11" x="0.5" y="0.5" width="381.118" height="258.333"/><path class="cls-5" d="M70.88,38.884V26h2.6V38.884h-2.6Z" transform="translate(-4.839 -5.251)"/><path class="cls-5" d="M75.969,38.884V26h5.476a9.369,9.369,0,0,1,3,.348,2.96,2.96,0,0,1,1.5,1.234,3.712,3.712,0,0,1,.563,2.03,3.441,3.441,0,0,1-.853,2.4,4.094,4.094,0,0,1-2.549,1.19A6.069,6.069,0,0,1,84.5,34.279a14.685,14.685,0,0,1,1.481,2.092l1.573,2.514H84.442l-1.881-2.8a18.16,18.16,0,0,0-1.371-1.894,2.01,2.01,0,0,0-.782-0.537,4.323,4.323,0,0,0-1.31-.145H78.571v5.379h-2.6Zm2.6-7.436H80.5a9.94,9.94,0,0,0,2.338-.158,1.4,1.4,0,0,0,.729-0.545,1.678,1.678,0,0,0,.264-0.967,1.548,1.548,0,0,0-.347-1.051,1.6,1.6,0,0,0-.98-0.5q-0.316-.044-1.9-0.044h-2.03v3.27Z" transform="translate(-4.839 -5.251)"/><path class="cls-5" d="M100.579,38.884h-2.83l-1.125-2.927h-5.15L90.41,38.884H87.65L92.668,26h2.751Zm-4.79-5.1-1.775-4.781-1.74,4.781h3.516Z" transform="translate(-4.839 -5.251)"/><path class="cls-5" d="M101.071,36.221l2.479-.378a1.812,1.812,0,0,0,.642,1.094,2.162,2.162,0,0,0,1.354.374,2.444,2.444,0,0,0,1.441-.352,0.785,0.785,0,0,0,.325-0.659,0.648,0.648,0,0,0-.176-0.466,1.968,1.968,0,0,0-.826-0.325,13.323,13.323,0,0,1-3.788-1.2,2.4,2.4,0,0,1-1.107-2.1,2.589,2.589,0,0,1,.958-2.039,4.474,4.474,0,0,1,2.971-.826,5.183,5.183,0,0,1,2.848.624,3.189,3.189,0,0,1,1.283,1.846l-2.329.431a1.44,1.44,0,0,0-.567-0.835,2.073,2.073,0,0,0-1.191-.29,2.683,2.683,0,0,0-1.4.272,0.585,0.585,0,0,0-.281.5,0.546,0.546,0,0,0,.246.448,9.266,9.266,0,0,0,2.307.694,6.868,6.868,0,0,1,2.755,1.1,2.283,2.283,0,0,1,.773,1.837,2.819,2.819,0,0,1-1.072,2.206,4.746,4.746,0,0,1-3.173.923,5.206,5.206,0,0,1-3.019-.773A3.563,3.563,0,0,1,101.071,36.221Z" transform="translate(-4.839 -5.251)"/><path class="cls-5" d="M112.426,32.02V29.55h2.47v2.47h-2.47Zm0,6.864v-2.47h2.47v2.47h-2.47Z" transform="translate(-4.839 -5.251)"/><path class="cls-5" d="M122.463,34.745l1.608-.141a3.558,3.558,0,0,0,.532,1.587,2.916,2.916,0,0,0,1.3,1,4.926,4.926,0,0,0,1.978.382,4.739,4.739,0,0,0,1.723-.29,2.389,2.389,0,0,0,1.112-.795,1.846,1.846,0,0,0,.365-1.1,1.675,1.675,0,0,0-.352-1.059,2.6,2.6,0,0,0-1.16-.761,22.722,22.722,0,0,0-2.294-.628,11.715,11.715,0,0,1-2.487-.8,3.487,3.487,0,0,1-1.375-1.2,2.942,2.942,0,0,1-.453-1.6,3.273,3.273,0,0,1,.554-1.823,3.429,3.429,0,0,1,1.617-1.288,6.135,6.135,0,0,1,2.364-.439,6.441,6.441,0,0,1,2.527.462A3.637,3.637,0,0,1,131.7,27.6a3.9,3.9,0,0,1,.633,2.03l-1.635.123a2.638,2.638,0,0,0-.892-1.846,3.472,3.472,0,0,0-2.246-.624,3.61,3.61,0,0,0-2.254.566,1.7,1.7,0,0,0-.708,1.367,1.465,1.465,0,0,0,.5,1.143,6.773,6.773,0,0,0,2.571.918,17.089,17.089,0,0,1,2.852.822,3.907,3.907,0,0,1,1.661,1.314,3.2,3.2,0,0,1,.536,1.832,3.5,3.5,0,0,1-.589,1.938,3.873,3.873,0,0,1-1.692,1.416,5.909,5.909,0,0,1-2.483.5,7.414,7.414,0,0,1-2.931-.51,4.1,4.1,0,0,1-1.854-1.534A4.344,4.344,0,0,1,122.463,34.745Z" transform="translate(-4.839 -5.251)"/><path class="cls-5" d="M134.847,42.461V29.55h1.441v1.213a3.565,3.565,0,0,1,1.151-1.068A3.174,3.174,0,0,1,139,29.339a3.688,3.688,0,0,1,2.109.615,3.772,3.772,0,0,1,1.38,1.736,6.332,6.332,0,0,1,.466,2.456,6.234,6.234,0,0,1-.514,2.579,3.91,3.91,0,0,1-3.555,2.369,2.977,2.977,0,0,1-1.419-.334,3.232,3.232,0,0,1-1.033-.844v4.544h-1.582Zm1.433-8.191a4.06,4.06,0,0,0,.729,2.663,2.237,2.237,0,0,0,1.767.861,2.285,2.285,0,0,0,1.806-.893,4.229,4.229,0,0,0,.751-2.764,4.124,4.124,0,0,0-.734-2.672,2.209,2.209,0,0,0-1.753-.888,2.28,2.28,0,0,0-1.789.944A4.231,4.231,0,0,0,136.28,34.27Z" transform="translate(-4.839 -5.251)"/><path class="cls-5" d="M144.269,34.217a4.811,4.811,0,0,1,1.441-3.841,4.343,4.343,0,0,1,2.936-1.037,4.188,4.188,0,0,1,3.146,1.262,4.8,4.8,0,0,1,1.222,3.484,6.17,6.17,0,0,1-.541,2.834,3.822,3.822,0,0,1-1.573,1.6,4.58,4.58,0,0,1-2.254.571,4.2,4.2,0,0,1-3.168-1.257A5.02,5.02,0,0,1,144.269,34.217Zm1.626,0a3.973,3.973,0,0,0,.782,2.685,2.6,2.6,0,0,0,3.929,0,4.07,4.07,0,0,0,.782-2.733,3.86,3.86,0,0,0-.787-2.624,2.609,2.609,0,0,0-3.924,0A3.958,3.958,0,0,0,145.895,34.217Z" transform="translate(-4.839 -5.251)"/><path class="cls-5" d="M154.869,38.884V29.55h1.424v1.327a3.355,3.355,0,0,1,2.971-1.538,3.914,3.914,0,0,1,1.551.3,2.448,2.448,0,0,1,1.059.8,3.053,3.053,0,0,1,.492,1.169,9.059,9.059,0,0,1,.088,1.538v5.739h-1.582V33.207a4.259,4.259,0,0,0-.185-1.445A1.527,1.527,0,0,0,160.032,31a2.092,2.092,0,0,0-1.1-.285,2.563,2.563,0,0,0-1.745.642,3.165,3.165,0,0,0-.734,2.435v5.1h-1.582Z" transform="translate(-4.839 -5.251)"/><path class="cls-5" d="M164.247,36.1l1.564-.246a2.187,2.187,0,0,0,.734,1.441,2.558,2.558,0,0,0,1.683.5,2.473,2.473,0,0,0,1.617-.443,1.328,1.328,0,0,0,.527-1.042,0.961,0.961,0,0,0-.466-0.844,6.861,6.861,0,0,0-1.617-.536,14.769,14.769,0,0,1-2.413-.76,2.305,2.305,0,0,1-1.367-2.141,2.409,2.409,0,0,1,.286-1.156,2.569,2.569,0,0,1,.778-0.883,3.261,3.261,0,0,1,1.006-.461,4.785,4.785,0,0,1,1.367-.189,5.4,5.4,0,0,1,1.929.316,2.618,2.618,0,0,1,1.226.857,3.341,3.341,0,0,1,.545,1.445l-1.547.211a1.692,1.692,0,0,0-.611-1.125,2.234,2.234,0,0,0-1.428-.4,2.586,2.586,0,0,0-1.556.36,1.049,1.049,0,0,0-.466.844,0.873,0.873,0,0,0,.193.554,1.4,1.4,0,0,0,.606.422q0.237,0.088,1.4.4a19.431,19.431,0,0,1,2.342.734,2.375,2.375,0,0,1,1.042.83A2.318,2.318,0,0,1,172,36.142a2.66,2.66,0,0,1-.461,1.49,2.981,2.981,0,0,1-1.332,1.08,4.831,4.831,0,0,1-1.969.383,4.386,4.386,0,0,1-2.773-.756A3.515,3.515,0,0,1,164.247,36.1Z" transform="translate(-4.839 -5.251)"/><path class="cls-5" d="M173.29,34.217a4.811,4.811,0,0,1,1.441-3.841,4.343,4.343,0,0,1,2.936-1.037,4.188,4.188,0,0,1,3.146,1.262,4.8,4.8,0,0,1,1.222,3.484,6.17,6.17,0,0,1-.541,2.834,3.822,3.822,0,0,1-1.573,1.6,4.58,4.58,0,0,1-2.254.571,4.2,4.2,0,0,1-3.168-1.257A5.02,5.02,0,0,1,173.29,34.217Zm1.626,0A3.973,3.973,0,0,0,175.7,36.9a2.6,2.6,0,0,0,3.929,0,4.07,4.07,0,0,0,.782-2.733,3.86,3.86,0,0,0-.787-2.624,2.609,2.609,0,0,0-3.924,0A3.958,3.958,0,0,0,174.916,34.217Z" transform="translate(-4.839 -5.251)"/><path class="cls-5" d="M183.872,38.884V29.55H185.3v1.415a3.861,3.861,0,0,1,1.006-1.31,1.757,1.757,0,0,1,1.015-.316,3.086,3.086,0,0,1,1.626.51L188.4,31.317a2.264,2.264,0,0,0-1.16-.343,1.507,1.507,0,0,0-.932.313,1.689,1.689,0,0,0-.589.865A6.162,6.162,0,0,0,185.455,34v4.887h-1.582Z" transform="translate(-4.839 -5.251)"/><path class="cls-5" d="M196.274,35.878l1.635,0.2a3.989,3.989,0,0,1-1.433,2.224,4.853,4.853,0,0,1-5.919-.471,4.925,4.925,0,0,1-1.2-3.537,5.158,5.158,0,0,1,1.213-3.656,4.106,4.106,0,0,1,3.146-1.3,3.99,3.99,0,0,1,3.059,1.274,5.064,5.064,0,0,1,1.187,3.586q0,0.141-.009.422h-6.961a3.587,3.587,0,0,0,.87,2.355,2.59,2.59,0,0,0,1.951.817,2.421,2.421,0,0,0,1.485-.457A3.034,3.034,0,0,0,196.274,35.878Zm-5.194-2.558h5.212a3.162,3.162,0,0,0-.6-1.767,2.425,2.425,0,0,0-1.96-.914,2.513,2.513,0,0,0-1.833.729A2.887,2.887,0,0,0,191.08,33.321Z" transform="translate(-4.839 -5.251)"/><path class="cls-5" d="M205.951,38.884V37.707a2.9,2.9,0,0,1-2.61,1.389,3.66,3.66,0,0,1-2.052-.615,4.041,4.041,0,0,1-1.45-1.719,5.933,5.933,0,0,1-.514-2.535,6.634,6.634,0,0,1,.466-2.535,3.675,3.675,0,0,1,1.4-1.745,3.736,3.736,0,0,1,2.083-.606,3.109,3.109,0,0,1,2.575,1.283V26h1.573V38.884h-1.468Zm-5-4.658a4.054,4.054,0,0,0,.756,2.681,2.279,2.279,0,0,0,1.784.888,2.237,2.237,0,0,0,1.762-.848,3.912,3.912,0,0,0,.725-2.589,4.389,4.389,0,0,0-.738-2.813,2.271,2.271,0,0,0-1.819-.9,2.192,2.192,0,0,0-1.762.861A4.251,4.251,0,0,0,200.95,34.226Z" transform="translate(-4.839 -5.251)"/><path class="cls-5" d="M216.366,38.884H214.9V26h1.582v4.6a3.13,3.13,0,0,1,2.558-1.257,3.918,3.918,0,0,1,1.63.348,3.337,3.337,0,0,1,1.266.975,4.729,4.729,0,0,1,.778,1.517,6.251,6.251,0,0,1,.281,1.9,5.332,5.332,0,0,1-1.187,3.709,3.711,3.711,0,0,1-2.848,1.31,2.972,2.972,0,0,1-2.593-1.38v1.169Zm-0.018-4.737a4.844,4.844,0,0,0,.457,2.426,2.262,2.262,0,0,0,3.814.321,4.1,4.1,0,0,0,.756-2.686,4.165,4.165,0,0,0-.725-2.7,2.208,2.208,0,0,0-1.753-.87,2.278,2.278,0,0,0-1.793.9A3.958,3.958,0,0,0,216.348,34.147Z" transform="translate(-4.839 -5.251)"/><path class="cls-5" d="M224.847,42.479l-0.176-1.485a3.525,3.525,0,0,0,.905.141,1.737,1.737,0,0,0,.844-0.176,1.437,1.437,0,0,0,.519-0.492,7.76,7.76,0,0,0,.483-1.178q0.044-.132.141-0.387l-3.542-9.352h1.705l1.942,5.405q0.378,1.028.677,2.162a21.286,21.286,0,0,1,.65-2.127l2-5.44h1.582l-3.551,9.492a18.632,18.632,0,0,1-.888,2.118,3.134,3.134,0,0,1-.967,1.147,2.291,2.291,0,0,1-1.3.364A3.168,3.168,0,0,1,224.847,42.479Z" transform="translate(-4.839 -5.251)"/><path class="cls-5" d="M239.156,38.884V26h9.316V27.52h-7.611v3.946h7.128v1.512h-7.128v4.386h7.91v1.521h-9.615Z" transform="translate(-4.839 -5.251)"/><path class="cls-5" d="M250.924,38.884V29.55h1.415v1.31a3.326,3.326,0,0,1,1.169-1.1,3.284,3.284,0,0,1,1.661-.418,3.069,3.069,0,0,1,1.7.431,2.306,2.306,0,0,1,.937,1.2,3.351,3.351,0,0,1,2.883-1.635,2.842,2.842,0,0,1,2.136.77,3.285,3.285,0,0,1,.747,2.368v6.407H262V33a4.322,4.322,0,0,0-.154-1.366,1.324,1.324,0,0,0-.558-0.673,1.742,1.742,0,0,0-.949-0.255,2.212,2.212,0,0,0-1.635.654,2.887,2.887,0,0,0-.65,2.1v5.423H256.47V32.82a2.668,2.668,0,0,0-.387-1.582,1.464,1.464,0,0,0-1.266-.527,2.3,2.3,0,0,0-1.235.352,1.994,1.994,0,0,0-.822,1.028,5.788,5.788,0,0,0-.255,1.951v4.843h-1.582Z" transform="translate(-4.839 -5.251)"/><path class="cls-5" d="M265.918,42.461V29.55h1.441v1.213a3.565,3.565,0,0,1,1.151-1.068,3.174,3.174,0,0,1,1.556-.355,3.688,3.688,0,0,1,2.109.615,3.772,3.772,0,0,1,1.38,1.736,6.332,6.332,0,0,1,.466,2.456,6.218,6.218,0,0,1-.515,2.579,3.91,3.91,0,0,1-3.555,2.369,2.982,2.982,0,0,1-1.42-.334,3.23,3.23,0,0,1-1.032-.844v4.544h-1.582Zm1.433-8.191a4.06,4.06,0,0,0,.729,2.663,2.237,2.237,0,0,0,1.767.861,2.287,2.287,0,0,0,1.807-.893,4.235,4.235,0,0,0,.751-2.764,4.13,4.13,0,0,0-.733-2.672,2.212,2.212,0,0,0-1.754-.888,2.281,2.281,0,0,0-1.789.944A4.231,4.231,0,0,0,267.351,34.27Z" transform="translate(-4.839 -5.251)"/><path class="cls-5" d="M275.894,38.884V26h1.582V38.884h-1.582Z" transform="translate(-4.839 -5.251)"/><path class="cls-5" d="M279.339,34.217a4.811,4.811,0,0,1,1.441-3.841,4.343,4.343,0,0,1,2.936-1.037,4.188,4.188,0,0,1,3.146,1.262,4.8,4.8,0,0,1,1.222,3.484,6.183,6.183,0,0,1-.54,2.834,3.83,3.83,0,0,1-1.574,1.6,4.579,4.579,0,0,1-2.254.571,4.193,4.193,0,0,1-3.168-1.257A5.016,5.016,0,0,1,279.339,34.217Zm1.626,0a3.973,3.973,0,0,0,.782,2.685,2.6,2.6,0,0,0,3.929,0,4.07,4.07,0,0,0,.782-2.733,3.86,3.86,0,0,0-.787-2.624,2.608,2.608,0,0,0-3.924,0A3.958,3.958,0,0,0,280.965,34.217Z" transform="translate(-4.839 -5.251)"/><path class="cls-5" d="M289.869,42.479l-0.176-1.485a3.525,3.525,0,0,0,.905.141,1.737,1.737,0,0,0,.844-0.176,1.437,1.437,0,0,0,.519-0.492,7.76,7.76,0,0,0,.483-1.178q0.044-.132.141-0.387l-3.542-9.352h1.705l1.942,5.405q0.378,1.028.677,2.162a21.286,21.286,0,0,1,.65-2.127l2-5.44h1.582l-3.551,9.492a18.632,18.632,0,0,1-.888,2.118,3.134,3.134,0,0,1-.967,1.147,2.291,2.291,0,0,1-1.3.364A3.168,3.168,0,0,1,289.869,42.479Z" transform="translate(-4.839 -5.251)"/><path class="cls-5" d="M305.329,35.878l1.635,0.2a3.989,3.989,0,0,1-1.433,2.224,4.307,4.307,0,0,1-2.672.791,4.264,4.264,0,0,1-3.247-1.262,4.921,4.921,0,0,1-1.2-3.537,5.158,5.158,0,0,1,1.213-3.656,4.106,4.106,0,0,1,3.146-1.3,3.99,3.99,0,0,1,3.059,1.274,5.064,5.064,0,0,1,1.187,3.586q0,0.141-.009.422h-6.961a3.587,3.587,0,0,0,.87,2.355,2.59,2.59,0,0,0,1.951.817,2.421,2.421,0,0,0,1.485-.457A3.034,3.034,0,0,0,305.329,35.878Zm-5.194-2.558h5.212a3.162,3.162,0,0,0-.6-1.767,2.425,2.425,0,0,0-1.96-.914,2.514,2.514,0,0,0-1.833.729A2.887,2.887,0,0,0,300.134,33.321Z" transform="translate(-4.839 -5.251)"/><path class="cls-5" d="M308.932,38.884V29.55h1.424v1.415a3.849,3.849,0,0,1,1.007-1.31,1.753,1.753,0,0,1,1.015-.316,3.086,3.086,0,0,1,1.626.51l-0.545,1.468a2.264,2.264,0,0,0-1.16-.343,1.507,1.507,0,0,0-.932.313,1.689,1.689,0,0,0-.589.865A6.162,6.162,0,0,0,310.514,34v4.887h-1.582Z" transform="translate(-4.839 -5.251)"/><path class="cls-5" d="M314.311,36.1l1.564-.246a2.186,2.186,0,0,0,.733,1.441,2.559,2.559,0,0,0,1.684.5,2.473,2.473,0,0,0,1.617-.443,1.328,1.328,0,0,0,.527-1.042,0.961,0.961,0,0,0-.466-0.844,6.861,6.861,0,0,0-1.617-.536,14.812,14.812,0,0,1-2.413-.76,2.3,2.3,0,0,1-1.366-2.141,2.4,2.4,0,0,1,.286-1.156,2.557,2.557,0,0,1,.777-0.883,3.258,3.258,0,0,1,1.006-.461,4.789,4.789,0,0,1,1.367-.189,5.409,5.409,0,0,1,1.93.316,2.621,2.621,0,0,1,1.226.857,3.341,3.341,0,0,1,.545,1.445l-1.547.211a1.7,1.7,0,0,0-.61-1.125,2.238,2.238,0,0,0-1.429-.4,2.586,2.586,0,0,0-1.556.36,1.049,1.049,0,0,0-.466.844,0.873,0.873,0,0,0,.193.554,1.4,1.4,0,0,0,.606.422q0.237,0.088,1.4.4a19.507,19.507,0,0,1,2.343.734,2.38,2.38,0,0,1,1.041.83,2.318,2.318,0,0,1,.378,1.354,2.653,2.653,0,0,1-.462,1.49,2.974,2.974,0,0,1-1.331,1.08,4.831,4.831,0,0,1-1.969.383,4.382,4.382,0,0,1-2.772-.756A3.511,3.511,0,0,1,314.311,36.1Z" transform="translate(-4.839 -5.251)"/></svg>