<svg id="Layer_1" data-name="Layer 1" xmlns="http://www.w3.org/2000/svg" viewBox="0 0 308.436 177.138"><defs><style>.cls-1,.cls-4,.cls-7{fill:none;}.cls-1{stroke:#25408f;}.cls-2{fill:#25408f;}.cls-3{fill:#231f20;}.cls-4,.cls-6{stroke:#23a84a;}.cls-5{fill:#b12229;}.cls-6{fill:#23a84a;}.cls-7{stroke:#231f20;stroke-miterlimit:10;}</style></defs><title>Tax-Exempt_Organization</title><rect class="cls-1" x="53.602" y="61.354" width="203.28" height="32.912"/><rect class="cls-2" x="53.602" y="52.48" width="203.28" height="8.873"/><rect class="cls-1" x="53.602" y="52.48" width="203.28" height="8.873"/><path class="cls-3" d="M125.452,91.205v-2.35h-4.258v-1.1l4.479-6.361h0.984V87.75h1.326v1.1h-1.326v2.35h-1.206Zm0-3.455V83.324l-3.073,4.426h3.073Z" transform="translate(-5.171 -9.362)"/><path class="cls-3" d="M129.216,86.364a8.985,8.985,0,0,1,.358-2.8,3.486,3.486,0,0,1,1.065-1.637,2.722,2.722,0,0,1,1.778-.576,2.9,2.9,0,0,1,1.386.318,2.652,2.652,0,0,1,.984.917,4.928,4.928,0,0,1,.609,1.46,9.684,9.684,0,0,1,.221,2.32,9.016,9.016,0,0,1-.355,2.789,3.488,3.488,0,0,1-1.062,1.641,2.721,2.721,0,0,1-1.784.579,2.693,2.693,0,0,1-2.23-1.018A6.467,6.467,0,0,1,129.216,86.364Zm1.239,0a6.16,6.16,0,0,0,.565,3.218,1.617,1.617,0,0,0,2.792,0,6.161,6.161,0,0,0,.566-3.214,6.156,6.156,0,0,0-.566-3.221,1.68,1.68,0,0,0-1.41-.8,1.544,1.544,0,0,0-1.326.7A6.227,6.227,0,0,0,130.455,86.364Z" transform="translate(-5.171 -9.362)"/><path class="cls-3" d="M136.849,88.614l1.206-.161a2.651,2.651,0,0,0,.707,1.477,1.743,1.743,0,0,0,1.215.452,1.947,1.947,0,0,0,1.437-.589A1.987,1.987,0,0,0,142,88.333a1.848,1.848,0,0,0-.542-1.369,1.874,1.874,0,0,0-1.379-.539,3.452,3.452,0,0,0-.85.134L139.36,85.5a1.758,1.758,0,0,0,.194.014,2.483,2.483,0,0,0,1.386-.4,1.376,1.376,0,0,0,.616-1.239,1.466,1.466,0,0,0-.449-1.1,1.594,1.594,0,0,0-1.158-.435,1.64,1.64,0,0,0-1.172.442,2.215,2.215,0,0,0-.6,1.326l-1.206-.214a3.1,3.1,0,0,1,1-1.878,2.906,2.906,0,0,1,1.949-.666,3.207,3.207,0,0,1,1.479.345,2.492,2.492,0,0,1,1.035.941,2.418,2.418,0,0,1,.358,1.266,2.069,2.069,0,0,1-.342,1.158,2.333,2.333,0,0,1-1.011.831,2.277,2.277,0,0,1,1.353.833,2.538,2.538,0,0,1,.482,1.583,2.9,2.9,0,0,1-.937,2.18,3.3,3.3,0,0,1-2.37.894,3.083,3.083,0,0,1-2.146-.77A2.979,2.979,0,0,1,136.849,88.614Z" transform="translate(-5.171 -9.362)"/><path class="cls-3" d="M147.107,94.091a12.024,12.024,0,0,1-1.687-2.946,9.245,9.245,0,0,1-.174-6.549,12.839,12.839,0,0,1,1.862-3.375h0.864q-0.811,1.393-1.071,1.989a10.853,10.853,0,0,0-.643,1.929,11.2,11.2,0,0,0-.288,2.518,12.081,12.081,0,0,0,2,6.435h-0.864Z" transform="translate(-5.171 -9.362)"/><path class="cls-3" d="M150.482,91.205h-1.118V81.389h1.205v3.5a2.385,2.385,0,0,1,1.949-.958,2.985,2.985,0,0,1,1.242.265,2.537,2.537,0,0,1,.964.743,3.593,3.593,0,0,1,.593,1.155,4.77,4.77,0,0,1,.214,1.446,4.062,4.062,0,0,1-.9,2.826,2.827,2.827,0,0,1-2.169,1,2.263,2.263,0,0,1-1.975-1.051v0.891ZM150.468,87.6a3.691,3.691,0,0,0,.348,1.848,1.723,1.723,0,0,0,2.906.245,3.119,3.119,0,0,0,.576-2.046,3.175,3.175,0,0,0-.552-2.056,1.682,1.682,0,0,0-1.336-.663,1.732,1.732,0,0,0-1.366.686A3.013,3.013,0,0,0,150.468,87.6Z" transform="translate(-5.171 -9.362)"/><path class="cls-3" d="M157.787,94.091h-0.864a12.081,12.081,0,0,0,2-6.435,11,11,0,0,0-.288-2.5A10.5,10.5,0,0,0,158,83.23a22.534,22.534,0,0,0-1.078-2.009h0.864a12.839,12.839,0,0,1,1.862,3.375,9.222,9.222,0,0,1-.178,6.549A12.257,12.257,0,0,1,157.787,94.091Z" transform="translate(-5.171 -9.362)"/><path class="cls-3" d="M165.528,91.205V81.389h3.7a8.939,8.939,0,0,1,1.493.094,2.956,2.956,0,0,1,1.212.459,2.4,2.4,0,0,1,.787.947,3.2,3.2,0,0,1-.5,3.458,3.823,3.823,0,0,1-2.879.867h-2.518v3.991h-1.3Zm1.3-5.149h2.538a2.689,2.689,0,0,0,1.788-.469,1.669,1.669,0,0,0,.529-1.319,1.775,1.775,0,0,0-.311-1.055,1.458,1.458,0,0,0-.82-0.579,5.55,5.55,0,0,0-1.212-.087h-2.511v3.508Z" transform="translate(-5.171 -9.362)"/><path class="cls-3" d="M174.493,91.205V81.389H175.7v9.816h-1.206Z" transform="translate(-5.171 -9.362)"/><path class="cls-3" d="M182.208,90.328a4.5,4.5,0,0,1-1.289.8,3.725,3.725,0,0,1-1.329.234,2.587,2.587,0,0,1-1.8-.572,1.889,1.889,0,0,1-.629-1.463,1.983,1.983,0,0,1,.86-1.647,2.928,2.928,0,0,1,.867-0.4,8.6,8.6,0,0,1,1.071-.181,11,11,0,0,0,2.149-.415q0.007-.248.007-0.314a1.33,1.33,0,0,0-.342-1.038,2.019,2.019,0,0,0-1.373-.408,2.128,2.128,0,0,0-1.255.3,1.824,1.824,0,0,0-.6,1.055l-1.178-.161A2.916,2.916,0,0,1,177.9,84.9a2.318,2.318,0,0,1,1.065-.716,4.744,4.744,0,0,1,1.614-.251,4.276,4.276,0,0,1,1.479.214,1.952,1.952,0,0,1,.837.539,1.893,1.893,0,0,1,.375.82,6.735,6.735,0,0,1,.061,1.111v1.607a17.1,17.1,0,0,0,.077,2.126,2.691,2.691,0,0,0,.3.854h-1.259A2.555,2.555,0,0,1,182.208,90.328Zm-0.1-2.692a8.838,8.838,0,0,1-1.969.455,4.568,4.568,0,0,0-1.051.241,1.047,1.047,0,0,0-.475.392,1.065,1.065,0,0,0,.2,1.376,1.569,1.569,0,0,0,1.068.322,2.485,2.485,0,0,0,1.239-.3,1.873,1.873,0,0,0,.8-0.834,2.91,2.91,0,0,0,.194-1.205V87.636Z" transform="translate(-5.171 -9.362)"/><path class="cls-3" d="M185.193,91.205V84.094h1.085V85.1a2.556,2.556,0,0,1,2.263-1.172,2.971,2.971,0,0,1,1.182.231,1.866,1.866,0,0,1,.807.606,2.34,2.34,0,0,1,.375.891,6.929,6.929,0,0,1,.067,1.172v4.373h-1.205V86.879a3.25,3.25,0,0,0-.141-1.1,1.159,1.159,0,0,0-.5-0.583,1.587,1.587,0,0,0-.84-0.217,1.95,1.95,0,0,0-1.329.489,2.409,2.409,0,0,0-.559,1.854v3.884h-1.206Z" transform="translate(-5.171 -9.362)"/><path class="cls-3" d="M192.338,89.083l1.192-.187a1.666,1.666,0,0,0,.559,1.1,1.949,1.949,0,0,0,1.282.382,1.882,1.882,0,0,0,1.232-.338,1.011,1.011,0,0,0,.4-0.793,0.731,0.731,0,0,0-.355-0.643,5.2,5.2,0,0,0-1.232-.409,11.218,11.218,0,0,1-1.838-.579,1.755,1.755,0,0,1-1.042-1.63,1.835,1.835,0,0,1,.218-0.881,1.953,1.953,0,0,1,.593-0.673,2.493,2.493,0,0,1,.767-0.352,3.654,3.654,0,0,1,1.041-.144,4.116,4.116,0,0,1,1.47.241,2,2,0,0,1,.934.653,2.55,2.55,0,0,1,.416,1.1l-1.179.161a1.288,1.288,0,0,0-.465-0.857,1.7,1.7,0,0,0-1.088-.308,1.971,1.971,0,0,0-1.186.274,0.8,0.8,0,0,0-.355.643,0.666,0.666,0,0,0,.147.422,1.066,1.066,0,0,0,.462.321q0.181,0.067,1.065.308a14.8,14.8,0,0,1,1.784.559,1.807,1.807,0,0,1,.793.633,1.766,1.766,0,0,1,.288,1.031,2.024,2.024,0,0,1-.352,1.135,2.272,2.272,0,0,1-1.014.824,3.7,3.7,0,0,1-1.5.291,3.342,3.342,0,0,1-2.113-.576A2.677,2.677,0,0,1,192.338,89.083Z" transform="translate(-5.171 -9.362)"/><rect class="cls-4" x="53.602" y="115.723" width="203.28" height="32.912"/><rect class="cls-5" x="53.602" y="106.85" width="203.28" height="8.873"/><rect class="cls-6" x="53.602" y="106.85" width="203.28" height="8.873"/><path class="cls-3" d="M87.207,141.724v-1.152l4.158-.007v3.643a7.325,7.325,0,0,1-1.975,1.148,5.857,5.857,0,0,1-2.089.385,5.57,5.57,0,0,1-2.628-.62,4.092,4.092,0,0,1-1.785-1.791,5.638,5.638,0,0,1-.6-2.618,6.076,6.076,0,0,1,.6-2.675,3.982,3.982,0,0,1,1.724-1.845,5.4,5.4,0,0,1,2.591-.6,5.133,5.133,0,0,1,1.925.345,3.19,3.19,0,0,1,1.349.96,4.267,4.267,0,0,1,.743,1.607l-1.171.321a3.635,3.635,0,0,0-.549-1.179,2.253,2.253,0,0,0-.937-0.686,3.437,3.437,0,0,0-1.353-.258,3.985,3.985,0,0,0-1.54.271,2.869,2.869,0,0,0-1.048.713,3.4,3.4,0,0,0-.62.971,5.139,5.139,0,0,0-.375,1.976,4.8,4.8,0,0,0,.452,2.2,2.892,2.892,0,0,0,1.316,1.312,4.068,4.068,0,0,0,1.834.429,4.363,4.363,0,0,0,1.647-.325,4.258,4.258,0,0,0,1.219-.693v-1.828H87.207Z" transform="translate(-5.171 -9.362)"/><path class="cls-3" d="M92.677,142.019a3.666,3.666,0,0,1,1.1-2.926,3.312,3.312,0,0,1,2.237-.79,3.19,3.19,0,0,1,2.4.961,3.656,3.656,0,0,1,.931,2.655,4.7,4.7,0,0,1-.412,2.159,2.916,2.916,0,0,1-1.2,1.222,3.491,3.491,0,0,1-1.717.435,3.2,3.2,0,0,1-2.414-.958A3.824,3.824,0,0,1,92.677,142.019Zm1.238,0a3.029,3.029,0,0,0,.6,2.046,1.984,1.984,0,0,0,2.993,0,3.1,3.1,0,0,0,.6-2.083,2.94,2.94,0,0,0-.6-2,1.987,1.987,0,0,0-2.99,0A3.013,3.013,0,0,0,93.916,142.019Z" transform="translate(-5.171 -9.362)"/><path class="cls-3" d="M102.728,145.574l-2.705-7.111h1.272l1.527,4.259q0.248,0.69.455,1.433,0.161-.562.449-1.353l1.58-4.339h1.239l-2.691,7.111h-1.125Z" transform="translate(-5.171 -9.362)"/><path class="cls-3" d="M112.477,143.284l1.246,0.154a3.04,3.04,0,0,1-1.092,1.694,3.7,3.7,0,0,1-4.51-.358,3.753,3.753,0,0,1-.914-2.695,3.929,3.929,0,0,1,.924-2.786,3.128,3.128,0,0,1,2.4-.991,3.041,3.041,0,0,1,2.331.971,3.857,3.857,0,0,1,.9,2.732c0,0.071,0,.179-0.007.321h-5.3a2.73,2.73,0,0,0,.663,1.794,1.973,1.973,0,0,0,1.486.623,1.843,1.843,0,0,0,1.132-.349A2.311,2.311,0,0,0,112.477,143.284Zm-3.958-1.949h3.971a2.406,2.406,0,0,0-.455-1.346,1.848,1.848,0,0,0-1.493-.7,1.913,1.913,0,0,0-1.4.556A2.2,2.2,0,0,0,108.52,141.335Z" transform="translate(-5.171 -9.362)"/><path class="cls-3" d="M115.223,145.574v-7.111h1.084v1.078a2.942,2.942,0,0,1,.767-1,1.339,1.339,0,0,1,.773-0.241,2.352,2.352,0,0,1,1.238.389l-0.415,1.118a1.722,1.722,0,0,0-.884-0.261,1.148,1.148,0,0,0-.71.238,1.286,1.286,0,0,0-.448.66,4.68,4.68,0,0,0-.2,1.406v3.723h-1.205Z" transform="translate(-5.171 -9.362)"/><path class="cls-3" d="M119.8,145.574v-7.111h1.085v1.011a2.556,2.556,0,0,1,2.263-1.172,2.971,2.971,0,0,1,1.182.231,1.866,1.866,0,0,1,.807.606,2.34,2.34,0,0,1,.375.891,6.929,6.929,0,0,1,.067,1.172v4.373h-1.205v-4.326a3.25,3.25,0,0,0-.141-1.1,1.159,1.159,0,0,0-.5-0.583,1.587,1.587,0,0,0-.84-0.217,1.95,1.95,0,0,0-1.329.489,2.409,2.409,0,0,0-.559,1.854v3.884H119.8Z" transform="translate(-5.171 -9.362)"/><path class="cls-3" d="M127.429,145.574v-7.111h1.078v1a2.533,2.533,0,0,1,.891-0.84,2.5,2.5,0,0,1,1.266-.318,2.339,2.339,0,0,1,1.3.328,1.757,1.757,0,0,1,.713.917,2.554,2.554,0,0,1,2.2-1.246,2.165,2.165,0,0,1,1.627.586,2.5,2.5,0,0,1,.569,1.8v4.881h-1.2v-4.479a3.3,3.3,0,0,0-.117-1.042,1.01,1.01,0,0,0-.425-0.512,1.327,1.327,0,0,0-.723-0.194,1.682,1.682,0,0,0-1.245.5,2.2,2.2,0,0,0-.5,1.6v4.131h-1.206v-4.62a2.035,2.035,0,0,0-.294-1.206,1.116,1.116,0,0,0-.964-0.4,1.752,1.752,0,0,0-.94.268,1.52,1.52,0,0,0-.626.784,4.411,4.411,0,0,0-.194,1.486v3.689h-1.206Z" transform="translate(-5.171 -9.362)"/><path class="cls-3" d="M143.721,143.284l1.246,0.154a3.04,3.04,0,0,1-1.092,1.694,3.7,3.7,0,0,1-4.51-.358,3.753,3.753,0,0,1-.914-2.695,3.929,3.929,0,0,1,.924-2.786,3.128,3.128,0,0,1,2.4-.991,3.041,3.041,0,0,1,2.331.971,3.857,3.857,0,0,1,.9,2.732c0,0.071,0,.179-0.007.321h-5.3a2.73,2.73,0,0,0,.663,1.794,1.973,1.973,0,0,0,1.486.623,1.843,1.843,0,0,0,1.132-.349A2.311,2.311,0,0,0,143.721,143.284Zm-3.958-1.949h3.971a2.406,2.406,0,0,0-.455-1.346,1.848,1.848,0,0,0-1.493-.7,1.913,1.913,0,0,0-1.4.556A2.2,2.2,0,0,0,139.763,141.335Z" transform="translate(-5.171 -9.362)"/><path class="cls-3" d="M146.479,145.574v-7.111h1.085v1.011a2.556,2.556,0,0,1,2.263-1.172,2.971,2.971,0,0,1,1.182.231,1.866,1.866,0,0,1,.807.606,2.34,2.34,0,0,1,.375.891,6.929,6.929,0,0,1,.067,1.172v4.373h-1.205v-4.326a3.25,3.25,0,0,0-.141-1.1,1.159,1.159,0,0,0-.5-0.583,1.587,1.587,0,0,0-.84-0.217,1.95,1.95,0,0,0-1.329.489,2.409,2.409,0,0,0-.559,1.854v3.884h-1.206Z" transform="translate(-5.171 -9.362)"/><path class="cls-3" d="M156.738,144.5l0.174,1.065a4.478,4.478,0,0,1-.911.107,2.062,2.062,0,0,1-1.018-.208,1.16,1.16,0,0,1-.509-0.546,4.3,4.3,0,0,1-.147-1.423V139.4h-0.884v-0.937h0.884V136.7l1.2-.723v2.484h1.212V139.4h-1.212v4.158a2.1,2.1,0,0,0,.063.663,0.5,0.5,0,0,0,.208.234,0.8,0.8,0,0,0,.412.087A3.92,3.92,0,0,0,156.738,144.5Z" transform="translate(-5.171 -9.362)"/><path class="cls-3" d="M165.255,145.574v-2.35H161v-1.1l4.479-6.361h0.984v6.361h1.326v1.1H166.46v2.35h-1.206Zm0-3.455v-4.426l-3.073,4.426h3.073Z" transform="translate(-5.171 -9.362)"/><path class="cls-3" d="M169.018,143l1.265-.107a2.268,2.268,0,0,0,.653,1.389,1.77,1.77,0,0,0,1.235.465,1.925,1.925,0,0,0,1.473-.656,2.474,2.474,0,0,0,.6-1.741,2.236,2.236,0,0,0-.579-1.627,2.02,2.02,0,0,0-1.517-.6,2.1,2.1,0,0,0-1.051.265,2.04,2.04,0,0,0-.736.686l-1.132-.147,0.951-5.042h4.881v1.152h-3.917l-0.529,2.638a3.2,3.2,0,0,1,1.855-.616,2.94,2.94,0,0,1,2.169.89,3.113,3.113,0,0,1,.884,2.29,3.574,3.574,0,0,1-.777,2.3,3.112,3.112,0,0,1-2.578,1.192,3.176,3.176,0,0,1-2.187-.75A2.926,2.926,0,0,1,169.018,143Z" transform="translate(-5.171 -9.362)"/><path class="cls-3" d="M176.725,137.043v-1.158h6.354v0.938a13.385,13.385,0,0,0-1.858,2.651,16.125,16.125,0,0,0-1.423,3.4,12.657,12.657,0,0,0-.462,2.7H178.1a12.051,12.051,0,0,1,.456-2.8,14.711,14.711,0,0,1,1.249-3.164,13.589,13.589,0,0,1,1.731-2.568h-4.808Z" transform="translate(-5.171 -9.362)"/><path class="cls-3" d="M186.91,148.46a12.024,12.024,0,0,1-1.687-2.946,9.245,9.245,0,0,1-.174-6.549,12.839,12.839,0,0,1,1.862-3.375h0.864q-0.811,1.393-1.071,1.989a10.853,10.853,0,0,0-.643,1.929,11.2,11.2,0,0,0-.288,2.518,12.081,12.081,0,0,0,2,6.435H186.91Z" transform="translate(-5.171 -9.362)"/><path class="cls-3" d="M190.285,145.574h-1.118v-9.816h1.205v3.5a2.385,2.385,0,0,1,1.949-.958,2.985,2.985,0,0,1,1.242.265,2.537,2.537,0,0,1,.964.743,3.593,3.593,0,0,1,.593,1.155,4.77,4.77,0,0,1,.214,1.446,4.062,4.062,0,0,1-.9,2.826,2.827,2.827,0,0,1-2.169,1,2.263,2.263,0,0,1-1.975-1.051v0.891Zm-0.014-3.609a3.691,3.691,0,0,0,.348,1.848,1.723,1.723,0,0,0,2.906.245,3.119,3.119,0,0,0,.576-2.046,3.175,3.175,0,0,0-.552-2.056,1.682,1.682,0,0,0-1.336-.663,1.732,1.732,0,0,0-1.366.686A3.013,3.013,0,0,0,190.271,141.965Z" transform="translate(-5.171 -9.362)"/><path class="cls-3" d="M197.589,148.46h-0.864a12.081,12.081,0,0,0,2-6.435,11,11,0,0,0-.288-2.5,10.5,10.5,0,0,0-.636-1.929,22.534,22.534,0,0,0-1.078-2.009h0.864a12.839,12.839,0,0,1,1.862,3.375,9.222,9.222,0,0,1-.178,6.549A12.257,12.257,0,0,1,197.589,148.46Z" transform="translate(-5.171 -9.362)"/><path class="cls-3" d="M205.33,145.574v-9.816h3.7a8.939,8.939,0,0,1,1.493.094,2.956,2.956,0,0,1,1.212.459,2.4,2.4,0,0,1,.787.947,3.2,3.2,0,0,1-.5,3.458,3.823,3.823,0,0,1-2.879.867h-2.518v3.991h-1.3Zm1.3-5.149h2.538a2.689,2.689,0,0,0,1.788-.469,1.669,1.669,0,0,0,.529-1.319,1.775,1.775,0,0,0-.311-1.055,1.458,1.458,0,0,0-.82-0.579,5.55,5.55,0,0,0-1.212-.087h-2.511v3.508Z" transform="translate(-5.171 -9.362)"/><path class="cls-3" d="M214.3,145.574v-9.816H215.5v9.816H214.3Z" transform="translate(-5.171 -9.362)"/><path class="cls-3" d="M222.01,144.7a4.5,4.5,0,0,1-1.289.8,3.725,3.725,0,0,1-1.329.234,2.587,2.587,0,0,1-1.8-.572,1.889,1.889,0,0,1-.629-1.463,1.983,1.983,0,0,1,.86-1.647,2.928,2.928,0,0,1,.867-0.4,8.6,8.6,0,0,1,1.071-.181,11,11,0,0,0,2.149-.415q0.007-.248.007-0.314a1.33,1.33,0,0,0-.342-1.038,2.019,2.019,0,0,0-1.373-.408,2.128,2.128,0,0,0-1.255.3,1.824,1.824,0,0,0-.6,1.055l-1.178-.161a2.916,2.916,0,0,1,.529-1.222,2.318,2.318,0,0,1,1.065-.716,4.744,4.744,0,0,1,1.614-.251,4.276,4.276,0,0,1,1.479.214,1.952,1.952,0,0,1,.837.539,1.893,1.893,0,0,1,.375.82,6.735,6.735,0,0,1,.061,1.111v1.607a17.1,17.1,0,0,0,.077,2.126,2.691,2.691,0,0,0,.3.854H222.25A2.555,2.555,0,0,1,222.01,144.7Zm-0.1-2.692a8.838,8.838,0,0,1-1.969.455,4.568,4.568,0,0,0-1.051.241,1.047,1.047,0,0,0-.475.392,1.065,1.065,0,0,0,.2,1.376,1.569,1.569,0,0,0,1.068.322,2.485,2.485,0,0,0,1.239-.3,1.873,1.873,0,0,0,.8-0.834,2.91,2.91,0,0,0,.194-1.205v-0.442Z" transform="translate(-5.171 -9.362)"/><path class="cls-3" d="M225,145.574v-7.111h1.085v1.011a2.556,2.556,0,0,1,2.263-1.172,2.971,2.971,0,0,1,1.182.231,1.866,1.866,0,0,1,.807.606,2.34,2.34,0,0,1,.375.891,6.929,6.929,0,0,1,.067,1.172v4.373H229.57v-4.326a3.25,3.25,0,0,0-.141-1.1,1.159,1.159,0,0,0-.5-0.583,1.587,1.587,0,0,0-.84-0.217,1.95,1.95,0,0,0-1.329.489,2.409,2.409,0,0,0-.559,1.854v3.884H225Z" transform="translate(-5.171 -9.362)"/><path class="cls-3" d="M232.141,143.452l1.192-.187a1.666,1.666,0,0,0,.559,1.1,1.949,1.949,0,0,0,1.282.382,1.882,1.882,0,0,0,1.232-.338,1.011,1.011,0,0,0,.4-0.793,0.731,0.731,0,0,0-.355-0.643,5.2,5.2,0,0,0-1.232-.409,11.218,11.218,0,0,1-1.838-.579,1.755,1.755,0,0,1-1.042-1.63,1.835,1.835,0,0,1,.218-0.881,1.953,1.953,0,0,1,.593-0.673,2.493,2.493,0,0,1,.767-0.352,3.654,3.654,0,0,1,1.041-.144,4.116,4.116,0,0,1,1.47.241,2,2,0,0,1,.934.653,2.55,2.55,0,0,1,.416,1.1l-1.179.161a1.288,1.288,0,0,0-.465-0.857,1.7,1.7,0,0,0-1.088-.308,1.971,1.971,0,0,0-1.186.274,0.8,0.8,0,0,0-.355.643,0.666,0.666,0,0,0,.147.422,1.066,1.066,0,0,0,.462.321q0.181,0.067,1.065.308a14.8,14.8,0,0,1,1.784.559,1.807,1.807,0,0,1,.793.633,1.766,1.766,0,0,1,.288,1.031,2.024,2.024,0,0,1-.352,1.135,2.272,2.272,0,0,1-1.014.824,3.7,3.7,0,0,1-1.5.291,3.342,3.342,0,0,1-2.113-.576A2.677,2.677,0,0,1,232.141,143.452Z" transform="translate(-5.171 -9.362)"/><rect class="cls-7" x="0.5" y="0.5" width="307.436" height="176.138"/><path class="cls-3" d="M19.508,42.11V33.954H16.6V32.293h7.8v1.661H21.49V42.11H19.508Z" transform="translate(-5.171 -9.362)"/><path class="cls-3" d="M27.068,37.168L25.36,36.86a2.66,2.66,0,0,1,.991-1.527,3.629,3.629,0,0,1,2.089-.5,4.5,4.5,0,0,1,1.875.3,1.869,1.869,0,0,1,.867.756,3.887,3.887,0,0,1,.251,1.684l-0.02,2.2a7.6,7.6,0,0,0,.09,1.383,4.032,4.032,0,0,0,.338.954H29.98q-0.074-.187-0.181-0.556c-0.031-.112-0.054-0.185-0.067-0.221a3.4,3.4,0,0,1-1.031.7,2.955,2.955,0,0,1-1.172.234,2.424,2.424,0,0,1-1.731-.6,1.981,1.981,0,0,1-.633-1.507,2.023,2.023,0,0,1,.288-1.075,1.884,1.884,0,0,1,.807-0.723,6.305,6.305,0,0,1,1.5-.438,10.271,10.271,0,0,0,1.828-.462V37.282a0.973,0.973,0,0,0-.268-0.773,1.6,1.6,0,0,0-1.011-.231,1.35,1.35,0,0,0-.784.2A1.371,1.371,0,0,0,27.068,37.168Zm2.518,1.526a11.75,11.75,0,0,1-1.145.288,3.429,3.429,0,0,0-1.024.328,0.784,0.784,0,0,0-.368.663,0.923,0.923,0,0,0,.294.683,1.029,1.029,0,0,0,.75.288,1.631,1.631,0,0,0,.971-0.335,1.177,1.177,0,0,0,.449-0.623,3.7,3.7,0,0,0,.074-0.917V38.695Z" transform="translate(-5.171 -9.362)"/><path class="cls-3" d="M32.385,42.11l2.564-3.663L32.492,35h2.3l1.259,1.956L37.373,35h2.209l-2.41,3.368L39.8,42.11h-2.31l-1.446-2.2-1.46,2.2h-2.2Z" transform="translate(-5.171 -9.362)"/><path class="cls-3" d="M40.7,39.492V37.61h3.7v1.881H40.7Z" transform="translate(-5.171 -9.362)"/><path class="cls-3" d="M45.5,42.11V32.293h7.279v1.661h-5.3V36.13h4.928v1.654H47.477v2.672h5.484V42.11H45.5Z" transform="translate(-5.171 -9.362)"/><path class="cls-3" d="M53.725,42.11l2.564-3.663L53.832,35h2.3l1.259,1.956L58.713,35h2.209l-2.41,3.368,2.631,3.743h-2.31l-1.446-2.2-1.46,2.2h-2.2Z" transform="translate(-5.171 -9.362)"/><path class="cls-3" d="M66.374,39.847l1.875,0.314a3.074,3.074,0,0,1-1.142,1.57,3.354,3.354,0,0,1-1.952.539,3.181,3.181,0,0,1-2.746-1.212,4.071,4.071,0,0,1-.7-2.451,3.926,3.926,0,0,1,.924-2.769,3.044,3.044,0,0,1,2.337-1,3.159,3.159,0,0,1,2.5,1.048,4.638,4.638,0,0,1,.877,3.211H63.635a1.9,1.9,0,0,0,.455,1.3,1.423,1.423,0,0,0,1.085.465,1.152,1.152,0,0,0,.743-0.241A1.493,1.493,0,0,0,66.374,39.847Zm0.107-1.9a1.81,1.81,0,0,0-.422-1.242,1.3,1.3,0,0,0-.978-0.425,1.308,1.308,0,0,0-1.018.448,1.738,1.738,0,0,0-.4,1.219H66.48Z" transform="translate(-5.171 -9.362)"/><path class="cls-3" d="M69.741,35h1.734V35.97a2.79,2.79,0,0,1,2.216-1.132,2.388,2.388,0,0,1,1.185.281,2.162,2.162,0,0,1,.824.851,3.289,3.289,0,0,1,1.011-.851,2.482,2.482,0,0,1,1.159-.281,2.58,2.58,0,0,1,1.326.318,1.945,1.945,0,0,1,.81.934,4.042,4.042,0,0,1,.194,1.473V42.11H78.319V38.045a3.027,3.027,0,0,0-.194-1.366,0.892,0.892,0,0,0-.8-0.4,1.282,1.282,0,0,0-.743.241,1.338,1.338,0,0,0-.5.707,5.07,5.07,0,0,0-.154,1.47V42.11H74.04v-3.9a5.41,5.41,0,0,0-.1-1.339,0.857,0.857,0,0,0-.312-0.449,0.983,0.983,0,0,0-.572-0.147,1.37,1.37,0,0,0-.783.234,1.284,1.284,0,0,0-.5.676,5.018,5.018,0,0,0-.151,1.466V42.11H69.741V35Z" transform="translate(-5.171 -9.362)"/><path class="cls-3" d="M82.021,35h1.754v1.045a2.622,2.622,0,0,1,.924-0.871,2.549,2.549,0,0,1,1.292-.335,2.711,2.711,0,0,1,2.1.971,3.927,3.927,0,0,1,.864,2.705,4.047,4.047,0,0,1-.871,2.769,2.711,2.711,0,0,1-2.109.988,2.4,2.4,0,0,1-1.068-.234,3.6,3.6,0,0,1-1.007-.8v3.582H82.021V35Zm1.861,3.435a2.741,2.741,0,0,0,.476,1.771,1.455,1.455,0,0,0,1.159.572,1.361,1.361,0,0,0,1.091-.525,2.71,2.71,0,0,0,.435-1.725,2.57,2.57,0,0,0-.449-1.661,1.387,1.387,0,0,0-1.111-.542,1.443,1.443,0,0,0-1.145.532A2.368,2.368,0,0,0,83.883,38.434Z" transform="translate(-5.171 -9.362)"/><path class="cls-3" d="M93.713,35v1.5H92.427v2.866a7.042,7.042,0,0,0,.037,1.014,0.411,0.411,0,0,0,.167.238,0.53,0.53,0,0,0,.318.094,2.449,2.449,0,0,0,.757-0.181l0.161,1.459a3.741,3.741,0,0,1-1.487.281,2.347,2.347,0,0,1-.917-0.171,1.337,1.337,0,0,1-.6-0.442,1.742,1.742,0,0,1-.264-0.733,9.057,9.057,0,0,1-.061-1.326V36.5H89.675V35h0.864V33.586l1.888-1.1V35h1.286Z" transform="translate(-5.171 -9.362)"/><path class="cls-3" d="M98.44,37.262a6.25,6.25,0,0,1,.449-2.518A4.625,4.625,0,0,1,99.8,33.4a3.818,3.818,0,0,1,1.269-.884,5.39,5.39,0,0,1,2.116-.389,4.61,4.61,0,0,1,3.472,1.346,5.158,5.158,0,0,1,1.3,3.743,5.14,5.14,0,0,1-1.292,3.719,4.573,4.573,0,0,1-3.455,1.343,4.62,4.62,0,0,1-3.482-1.336A5.071,5.071,0,0,1,98.44,37.262Zm2.042-.067a3.678,3.678,0,0,0,.77,2.528,2.648,2.648,0,0,0,3.9.007,3.75,3.75,0,0,0,.76-2.561,3.693,3.693,0,0,0-.74-2.518,2.741,2.741,0,0,0-3.94.01A3.708,3.708,0,0,0,100.482,37.195Z" transform="translate(-5.171 -9.362)"/><path class="cls-3" d="M111.3,42.11h-1.882V35h1.748V36.01a3.037,3.037,0,0,1,.807-0.944,1.483,1.483,0,0,1,.813-0.228,2.391,2.391,0,0,1,1.239.355l-0.583,1.641a1.65,1.65,0,0,0-.884-0.308,1.043,1.043,0,0,0-.669.218,1.487,1.487,0,0,0-.432.787,11.176,11.176,0,0,0-.157,2.384v2.2Z" transform="translate(-5.171 -9.362)"/><path class="cls-3" d="M114.658,42.579l2.149,0.261a0.732,0.732,0,0,0,.248.516,1.414,1.414,0,0,0,.844.2,2.194,2.194,0,0,0,1.1-.221,0.914,0.914,0,0,0,.375-0.476A2.852,2.852,0,0,0,119.466,42V40.958a2.546,2.546,0,0,1-2.129,1.152,2.621,2.621,0,0,1-2.27-1.212,4.12,4.12,0,0,1-.656-2.384,3.92,3.92,0,0,1,.86-2.732,2.777,2.777,0,0,1,2.14-.944A2.6,2.6,0,0,1,119.586,36V35h1.761V41.38a6.368,6.368,0,0,1-.208,1.882,2.336,2.336,0,0,1-.583.978,2.582,2.582,0,0,1-1,.556,5.276,5.276,0,0,1-1.584.2,4.1,4.1,0,0,1-2.564-.619,1.944,1.944,0,0,1-.756-1.57C114.651,42.744,114.653,42.668,114.658,42.579Zm1.681-4.171a2.564,2.564,0,0,0,.439,1.657,1.356,1.356,0,0,0,1.081.525,1.494,1.494,0,0,0,1.165-.539,2.349,2.349,0,0,0,.476-1.6,2.492,2.492,0,0,0-.455-1.641,1.446,1.446,0,0,0-1.152-.536,1.389,1.389,0,0,0-1.115.525A2.466,2.466,0,0,0,116.338,38.407Z" transform="translate(-5.171 -9.362)"/><path class="cls-3" d="M124.615,37.168l-1.708-.308a2.66,2.66,0,0,1,.991-1.527,3.629,3.629,0,0,1,2.089-.5,4.5,4.5,0,0,1,1.875.3,1.869,1.869,0,0,1,.867.756,3.887,3.887,0,0,1,.251,1.684l-0.02,2.2a7.6,7.6,0,0,0,.09,1.383,4.032,4.032,0,0,0,.338.954h-1.861q-0.074-.187-0.181-0.556c-0.031-.112-0.054-0.185-0.067-0.221a3.4,3.4,0,0,1-1.031.7,2.955,2.955,0,0,1-1.172.234,2.424,2.424,0,0,1-1.731-.6,1.981,1.981,0,0,1-.633-1.507A2.023,2.023,0,0,1,123,39.093a1.884,1.884,0,0,1,.807-0.723,6.305,6.305,0,0,1,1.5-.438,10.271,10.271,0,0,0,1.828-.462V37.282a0.973,0.973,0,0,0-.268-0.773,1.6,1.6,0,0,0-1.011-.231,1.35,1.35,0,0,0-.784.2A1.371,1.371,0,0,0,124.615,37.168Zm2.518,1.526a11.75,11.75,0,0,1-1.145.288,3.429,3.429,0,0,0-1.024.328,0.784,0.784,0,0,0-.368.663,0.923,0.923,0,0,0,.294.683,1.029,1.029,0,0,0,.75.288,1.631,1.631,0,0,0,.971-0.335,1.177,1.177,0,0,0,.449-0.623,3.7,3.7,0,0,0,.074-0.917V38.695Z" transform="translate(-5.171 -9.362)"/><path class="cls-3" d="M137.3,42.11h-1.881V38.48a5.621,5.621,0,0,0-.121-1.49,1.046,1.046,0,0,0-.392-0.525,1.119,1.119,0,0,0-.653-0.187,1.51,1.51,0,0,0-.877.268,1.348,1.348,0,0,0-.532.71,6.124,6.124,0,0,0-.144,1.634V42.11h-1.882V35h1.748v1.045a2.913,2.913,0,0,1,3.482-.981,1.909,1.909,0,0,1,.78.572,2.072,2.072,0,0,1,.368.79,5.869,5.869,0,0,1,.1,1.266V42.11Z" transform="translate(-5.171 -9.362)"/><path class="cls-3" d="M139.212,34.035V32.293h1.881v1.741h-1.881Zm0,8.075V35h1.881V42.11h-1.881Z" transform="translate(-5.171 -9.362)"/><path class="cls-3" d="M142.265,42.11V40.644l2.665-3.06q0.656-.75.971-1.065-0.328.021-.864,0.027l-2.511.014V35h5.879v1.333l-2.718,3.134L144.729,40.5q0.783-.047.971-0.047h2.913V42.11h-6.348Z" transform="translate(-5.171 -9.362)"/><path class="cls-3" d="M151.285,37.168l-1.708-.308a2.66,2.66,0,0,1,.991-1.527,3.629,3.629,0,0,1,2.089-.5,4.5,4.5,0,0,1,1.875.3,1.869,1.869,0,0,1,.867.756,3.887,3.887,0,0,1,.251,1.684l-0.02,2.2a7.6,7.6,0,0,0,.09,1.383,4.032,4.032,0,0,0,.338.954H154.2q-0.074-.187-0.181-0.556c-0.031-.112-0.054-0.185-0.067-0.221a3.4,3.4,0,0,1-1.031.7,2.955,2.955,0,0,1-1.172.234,2.424,2.424,0,0,1-1.731-.6,1.981,1.981,0,0,1-.633-1.507,2.023,2.023,0,0,1,.288-1.075,1.884,1.884,0,0,1,.807-0.723,6.305,6.305,0,0,1,1.5-.438,10.271,10.271,0,0,0,1.828-.462V37.282a0.973,0.973,0,0,0-.268-0.773,1.6,1.6,0,0,0-1.011-.231,1.35,1.35,0,0,0-.784.2A1.371,1.371,0,0,0,151.285,37.168Zm2.518,1.526a11.75,11.75,0,0,1-1.145.288,3.429,3.429,0,0,0-1.024.328,0.784,0.784,0,0,0-.368.663,0.923,0.923,0,0,0,.294.683,1.029,1.029,0,0,0,.75.288,1.631,1.631,0,0,0,.971-0.335,1.177,1.177,0,0,0,.449-0.623,3.7,3.7,0,0,0,.074-0.917V38.695Z" transform="translate(-5.171 -9.362)"/><path class="cls-3" d="M160.766,35v1.5H159.48v2.866a7.042,7.042,0,0,0,.037,1.014,0.411,0.411,0,0,0,.167.238,0.53,0.53,0,0,0,.318.094,2.449,2.449,0,0,0,.757-0.181l0.161,1.459a3.741,3.741,0,0,1-1.487.281,2.347,2.347,0,0,1-.917-0.171,1.337,1.337,0,0,1-.6-0.442,1.742,1.742,0,0,1-.264-0.733,9.057,9.057,0,0,1-.061-1.326V36.5h-0.864V35h0.864V33.586l1.888-1.1V35h1.286Z" transform="translate(-5.171 -9.362)"/><path class="cls-3" d="M162.072,34.035V32.293h1.881v1.741h-1.881Zm0,8.075V35h1.881V42.11h-1.881Z" transform="translate(-5.171 -9.362)"/><path class="cls-3" d="M165.446,38.454a3.848,3.848,0,0,1,.462-1.815,3.169,3.169,0,0,1,1.309-1.339,3.884,3.884,0,0,1,1.892-.462,3.551,3.551,0,0,1,2.645,1.048,3.621,3.621,0,0,1,1.031,2.648,3.666,3.666,0,0,1-1.041,2.675,3.519,3.519,0,0,1-2.622,1.061,4.131,4.131,0,0,1-1.865-.442,3.03,3.03,0,0,1-1.349-1.3A4.316,4.316,0,0,1,165.446,38.454Zm1.929,0.1a2.358,2.358,0,0,0,.5,1.621,1.642,1.642,0,0,0,2.475,0,2.391,2.391,0,0,0,.5-1.634,2.347,2.347,0,0,0-.5-1.607,1.642,1.642,0,0,0-2.475,0A2.357,2.357,0,0,0,167.375,38.554Z" transform="translate(-5.171 -9.362)"/><path class="cls-3" d="M180.727,42.11h-1.881V38.48a5.621,5.621,0,0,0-.121-1.49,1.046,1.046,0,0,0-.392-0.525,1.119,1.119,0,0,0-.653-0.187,1.51,1.51,0,0,0-.877.268,1.348,1.348,0,0,0-.532.71,6.124,6.124,0,0,0-.144,1.634V42.11h-1.882V35h1.748v1.045a2.913,2.913,0,0,1,3.482-.981,1.909,1.909,0,0,1,.78.572,2.072,2.072,0,0,1,.368.79,5.869,5.869,0,0,1,.1,1.266V42.11Z" transform="translate(-5.171 -9.362)"/><path class="cls-3" d="M181.972,40.081l1.888-.288a1.385,1.385,0,0,0,.489.833,1.651,1.651,0,0,0,1.031.285,1.86,1.86,0,0,0,1.1-.268,0.6,0.6,0,0,0,.248-0.5,0.5,0.5,0,0,0-.134-0.355,1.507,1.507,0,0,0-.629-0.248,10.152,10.152,0,0,1-2.886-.917,1.831,1.831,0,0,1-.844-1.6,1.972,1.972,0,0,1,.73-1.554,3.408,3.408,0,0,1,2.263-.629,3.948,3.948,0,0,1,2.169.476,2.43,2.43,0,0,1,.978,1.406l-1.774.328a1.1,1.1,0,0,0-.432-0.636,1.58,1.58,0,0,0-.908-0.221,2.041,2.041,0,0,0-1.064.208,0.445,0.445,0,0,0-.214.381,0.417,0.417,0,0,0,.188.342,7.058,7.058,0,0,0,1.758.529,5.237,5.237,0,0,1,2.1.837,1.741,1.741,0,0,1,.589,1.4,2.148,2.148,0,0,1-.817,1.681,3.617,3.617,0,0,1-2.417.7,3.963,3.963,0,0,1-2.3-.589A2.714,2.714,0,0,1,181.972,40.081Z" transform="translate(-5.171 -9.362)"/><path class="cls-3" d="M195.479,37.168l-1.708-.308a2.66,2.66,0,0,1,.991-1.527,3.629,3.629,0,0,1,2.089-.5,4.5,4.5,0,0,1,1.875.3,1.869,1.869,0,0,1,.867.756,3.887,3.887,0,0,1,.251,1.684l-0.02,2.2a7.6,7.6,0,0,0,.09,1.383,4.032,4.032,0,0,0,.338.954h-1.861q-0.074-.187-0.181-0.556c-0.031-.112-0.054-0.185-0.067-0.221a3.4,3.4,0,0,1-1.031.7,2.955,2.955,0,0,1-1.172.234,2.424,2.424,0,0,1-1.731-.6,1.981,1.981,0,0,1-.633-1.507,2.023,2.023,0,0,1,.288-1.075,1.884,1.884,0,0,1,.807-0.723,6.305,6.305,0,0,1,1.5-.438A10.271,10.271,0,0,0,198,37.47V37.282a0.973,0.973,0,0,0-.268-0.773,1.6,1.6,0,0,0-1.011-.231,1.35,1.35,0,0,0-.784.2A1.371,1.371,0,0,0,195.479,37.168ZM198,38.695a11.75,11.75,0,0,1-1.145.288,3.429,3.429,0,0,0-1.024.328,0.784,0.784,0,0,0-.368.663,0.923,0.923,0,0,0,.294.683,1.029,1.029,0,0,0,.75.288,1.631,1.631,0,0,0,.971-0.335,1.177,1.177,0,0,0,.449-0.623A3.7,3.7,0,0,0,198,39.07V38.695Z" transform="translate(-5.171 -9.362)"/><path class="cls-3" d="M208.167,42.11h-1.881V38.48a5.621,5.621,0,0,0-.121-1.49,1.046,1.046,0,0,0-.392-0.525,1.119,1.119,0,0,0-.653-0.187,1.51,1.51,0,0,0-.877.268,1.348,1.348,0,0,0-.532.71,6.124,6.124,0,0,0-.144,1.634V42.11h-1.882V35h1.748v1.045a2.913,2.913,0,0,1,3.482-.981,1.909,1.909,0,0,1,.78.572,2.072,2.072,0,0,1,.368.79,5.869,5.869,0,0,1,.1,1.266V42.11Z" transform="translate(-5.171 -9.362)"/><path class="cls-3" d="M216.6,42.11h-1.748V41.065a2.819,2.819,0,0,1-1.028.907,2.635,2.635,0,0,1-1.195.3,2.708,2.708,0,0,1-2.1-.988,4.015,4.015,0,0,1-.874-2.755,3.969,3.969,0,0,1,.851-2.749,2.772,2.772,0,0,1,2.149-.941,2.662,2.662,0,0,1,2.062.991V32.293H216.6V42.11ZM211.575,38.4a3.253,3.253,0,0,0,.314,1.647,1.422,1.422,0,0,0,1.272.737,1.384,1.384,0,0,0,1.1-.553,2.547,2.547,0,0,0,.456-1.65,2.791,2.791,0,0,0-.442-1.764,1.4,1.4,0,0,0-1.132-.539,1.413,1.413,0,0,0-1.122.532A2.4,2.4,0,0,0,211.575,38.4Z" transform="translate(-5.171 -9.362)"/><path class="cls-3" d="M226.842,38.5V36.847h4.272v3.911a5.372,5.372,0,0,1-1.8,1.061,6.562,6.562,0,0,1-2.394.459,5.368,5.368,0,0,1-2.685-.646,4.105,4.105,0,0,1-1.721-1.848,5.974,5.974,0,0,1-.576-2.615,5.655,5.655,0,0,1,.643-2.726,4.331,4.331,0,0,1,1.882-1.828,5.078,5.078,0,0,1,2.35-.489,4.689,4.689,0,0,1,2.856.767,3.46,3.46,0,0,1,1.322,2.119l-1.968.368a2.08,2.08,0,0,0-.78-1.142,2.36,2.36,0,0,0-1.43-.418,2.684,2.684,0,0,0-2.065.824,3.468,3.468,0,0,0-.767,2.444,3.845,3.845,0,0,0,.777,2.622,2.594,2.594,0,0,0,2.036.874,3.412,3.412,0,0,0,1.249-.244,4.286,4.286,0,0,0,1.075-.593V38.5h-2.27Z" transform="translate(-5.171 -9.362)"/><path class="cls-3" d="M232.493,38.454a3.848,3.848,0,0,1,.462-1.815,3.169,3.169,0,0,1,1.309-1.339,3.884,3.884,0,0,1,1.892-.462,3.551,3.551,0,0,1,2.645,1.048,3.621,3.621,0,0,1,1.031,2.648,3.666,3.666,0,0,1-1.041,2.675,3.519,3.519,0,0,1-2.622,1.061,4.131,4.131,0,0,1-1.865-.442,3.03,3.03,0,0,1-1.349-1.3A4.316,4.316,0,0,1,232.493,38.454Zm1.929,0.1a2.358,2.358,0,0,0,.5,1.621,1.642,1.642,0,0,0,2.475,0,2.391,2.391,0,0,0,.5-1.634,2.347,2.347,0,0,0-.5-1.607,1.642,1.642,0,0,0-2.475,0A2.357,2.357,0,0,0,234.422,38.554Z" transform="translate(-5.171 -9.362)"/><path class="cls-3" d="M243.26,42.11L240.395,35h1.975l1.339,3.629L244.1,39.84q0.155-.462.194-0.609,0.094-.3.2-0.6L245.845,35h1.935l-2.826,7.111H243.26Z" transform="translate(-5.171 -9.362)"/><path class="cls-3" d="M253.05,39.847l1.875,0.314a3.074,3.074,0,0,1-1.142,1.57,3.354,3.354,0,0,1-1.952.539,3.181,3.181,0,0,1-2.746-1.212,4.071,4.071,0,0,1-.7-2.451,3.926,3.926,0,0,1,.924-2.769,3.044,3.044,0,0,1,2.337-1,3.159,3.159,0,0,1,2.5,1.048,4.638,4.638,0,0,1,.877,3.211h-4.714a1.9,1.9,0,0,0,.455,1.3,1.423,1.423,0,0,0,1.085.465,1.152,1.152,0,0,0,.743-0.241A1.493,1.493,0,0,0,253.05,39.847Zm0.107-1.9a1.81,1.81,0,0,0-.422-1.242,1.3,1.3,0,0,0-.978-0.425,1.308,1.308,0,0,0-1.018.448,1.738,1.738,0,0,0-.4,1.219h2.813Z" transform="translate(-5.171 -9.362)"/><path class="cls-3" d="M258.359,42.11h-1.881V35h1.748V36.01a3.037,3.037,0,0,1,.807-0.944,1.488,1.488,0,0,1,.814-0.228,2.392,2.392,0,0,1,1.238.355L260.5,36.833a1.653,1.653,0,0,0-.885-0.308,1.043,1.043,0,0,0-.669.218,1.48,1.48,0,0,0-.432.787,11.12,11.12,0,0,0-.158,2.384v2.2Z" transform="translate(-5.171 -9.362)"/><path class="cls-3" d="M268.363,42.11h-1.881V38.48a5.571,5.571,0,0,0-.121-1.49,1.045,1.045,0,0,0-.392-0.525,1.119,1.119,0,0,0-.652-0.187,1.515,1.515,0,0,0-.878.268,1.353,1.353,0,0,0-.532.71,6.151,6.151,0,0,0-.144,1.634V42.11h-1.882V35h1.748v1.045a2.912,2.912,0,0,1,3.481-.981,1.911,1.911,0,0,1,.78.572,2.072,2.072,0,0,1,.368.79,5.875,5.875,0,0,1,.1,1.266V42.11Z" transform="translate(-5.171 -9.362)"/><path class="cls-3" d="M270.132,35h1.734V35.97a2.79,2.79,0,0,1,2.216-1.132,2.387,2.387,0,0,1,1.186.281,2.158,2.158,0,0,1,.823.851,3.281,3.281,0,0,1,1.012-.851,2.478,2.478,0,0,1,1.158-.281,2.584,2.584,0,0,1,1.326.318,1.949,1.949,0,0,1,.81.934,4.042,4.042,0,0,1,.194,1.473V42.11h-1.882V38.045a3.02,3.02,0,0,0-.194-1.366,0.89,0.89,0,0,0-.8-0.4,1.28,1.28,0,0,0-.743.241,1.337,1.337,0,0,0-.5.707,5.094,5.094,0,0,0-.153,1.47V42.11h-1.882v-3.9a5.385,5.385,0,0,0-.1-1.339,0.854,0.854,0,0,0-.312-0.449,0.984,0.984,0,0,0-.572-0.147,1.369,1.369,0,0,0-.783.234,1.284,1.284,0,0,0-.5.676,5.022,5.022,0,0,0-.15,1.466V42.11h-1.882V35Z" transform="translate(-5.171 -9.362)"/><path class="cls-3" d="M286.584,39.847l1.875,0.314a3.079,3.079,0,0,1-1.142,1.57,3.355,3.355,0,0,1-1.952.539,3.181,3.181,0,0,1-2.745-1.212,4.071,4.071,0,0,1-.7-2.451,3.926,3.926,0,0,1,.924-2.769,3.044,3.044,0,0,1,2.337-1,3.157,3.157,0,0,1,2.5,1.048,4.641,4.641,0,0,1,.878,3.211h-4.715a1.9,1.9,0,0,0,.456,1.3,1.422,1.422,0,0,0,1.084.465,1.155,1.155,0,0,0,.744-0.241A1.493,1.493,0,0,0,286.584,39.847Zm0.106-1.9a1.81,1.81,0,0,0-.421-1.242,1.359,1.359,0,0,0-2,.023,1.736,1.736,0,0,0-.395,1.219h2.812Z" transform="translate(-5.171 -9.362)"/><path class="cls-3" d="M296.56,42.11h-1.881V38.48a5.571,5.571,0,0,0-.121-1.49,1.045,1.045,0,0,0-.392-0.525,1.119,1.119,0,0,0-.652-0.187,1.515,1.515,0,0,0-.878.268,1.353,1.353,0,0,0-.532.71,6.151,6.151,0,0,0-.144,1.634V42.11h-1.882V35h1.748v1.045a2.912,2.912,0,0,1,3.481-.981,1.911,1.911,0,0,1,.78.572,2.072,2.072,0,0,1,.368.79,5.875,5.875,0,0,1,.1,1.266V42.11Z" transform="translate(-5.171 -9.362)"/><path class="cls-3" d="M301.729,35v1.5h-1.285v2.866a7.2,7.2,0,0,0,.036,1.014,0.414,0.414,0,0,0,.168.238,0.529,0.529,0,0,0,.317.094,2.44,2.44,0,0,0,.757-0.181l0.161,1.459a3.742,3.742,0,0,1-1.486.281,2.352,2.352,0,0,1-.918-0.171,1.331,1.331,0,0,1-.6-0.442,1.729,1.729,0,0,1-.265-0.733,9.13,9.13,0,0,1-.061-1.326V36.5h-0.863V35h0.863V33.586l1.889-1.1V35h1.285Z" transform="translate(-5.171 -9.362)"/></svg>