<svg id="Layer_1" data-name="Layer 1" xmlns="http://www.w3.org/2000/svg" viewBox="0 0 268.616 154.324"><defs><style>.cls-1,.cls-4,.cls-6,.cls-7{fill:none;}.cls-1{stroke:#25408f;}.cls-2{fill:#25408f;}.cls-3{fill:#231f20;}.cls-4{stroke:#b12229;}.cls-5{fill:#b12229;}.cls-6{stroke:#d2232a;}.cls-7{stroke:#231f20;stroke-miterlimit:10;}</style></defs><title>Types_of_Qualified_Plans</title><rect class="cls-1" x="46.724" y="53.472" width="176.951" height="28.649"/><rect class="cls-2" x="46.724" y="45.748" width="176.951" height="7.724"/><rect class="cls-1" x="46.724" y="45.748" width="176.951" height="7.724"/><path class="cls-3" d="M85.619,77.658V68.611h3.117a7.563,7.563,0,0,1,1.611.129,3.071,3.071,0,0,1,1.327.648,3.68,3.68,0,0,1,1.071,1.546,6.065,6.065,0,0,1,.355,2.151,6.308,6.308,0,0,1-.241,1.827,4.438,4.438,0,0,1-.617,1.318,3.28,3.28,0,0,1-.824.821,3.362,3.362,0,0,1-1.08.454,6.157,6.157,0,0,1-1.454.154H85.619Zm1.2-1.068h1.932a4.684,4.684,0,0,0,1.4-.167,2.011,2.011,0,0,0,.812-0.469,2.855,2.855,0,0,0,.663-1.145,5.59,5.59,0,0,0,.238-1.744,4.212,4.212,0,0,0-.466-2.182,2.35,2.35,0,0,0-1.133-1.021,4.689,4.689,0,0,0-1.549-.185h-1.9V76.59Z" transform="translate(-5.503 -6.351)"/><path class="cls-3" d="M99.091,75.547l1.148,0.142a2.8,2.8,0,0,1-1.006,1.562,3.409,3.409,0,0,1-4.157-.33,3.461,3.461,0,0,1-.842-2.484,3.621,3.621,0,0,1,.852-2.567,2.883,2.883,0,0,1,2.209-.913,2.8,2.8,0,0,1,2.148.895,3.557,3.557,0,0,1,.833,2.518q0,0.1-.006.3H95.382a2.516,2.516,0,0,0,.611,1.654,1.818,1.818,0,0,0,1.37.574,1.7,1.7,0,0,0,1.043-.321A2.127,2.127,0,0,0,99.091,75.547Zm-3.647-1.8H99.1a2.218,2.218,0,0,0-.419-1.24,1.7,1.7,0,0,0-1.376-.642,1.765,1.765,0,0,0-1.287.512A2.029,2.029,0,0,0,95.444,73.751Z" transform="translate(-5.503 -6.351)"/><path class="cls-3" d="M101.9,77.658v-5.69h-0.981V71.1H101.9v-0.7a3.055,3.055,0,0,1,.117-0.981,1.417,1.417,0,0,1,.564-0.7,2.034,2.034,0,0,1,1.133-.269,5.461,5.461,0,0,1,1.037.111l-0.167.969a3.7,3.7,0,0,0-.654-0.062,0.973,0.973,0,0,0-.716.216,1.168,1.168,0,0,0-.21.808v0.6h1.278v0.864H103v5.69h-1.1Z" transform="translate(-5.503 -6.351)"/><path class="cls-3" d="M105.152,69.888V68.611h1.111v1.277h-1.111Zm0,7.77V71.1h1.111v6.554h-1.111Z" transform="translate(-5.503 -6.351)"/><path class="cls-3" d="M107.953,77.658V71.1h1v0.932a2.356,2.356,0,0,1,2.086-1.08,2.735,2.735,0,0,1,1.089.213,1.711,1.711,0,0,1,.744.559,2.145,2.145,0,0,1,.346.821,6.377,6.377,0,0,1,.062,1.08v4.03h-1.111V73.671a2.992,2.992,0,0,0-.129-1.015,1.069,1.069,0,0,0-.46-0.537,1.463,1.463,0,0,0-.774-0.2,1.8,1.8,0,0,0-1.225.451,2.221,2.221,0,0,0-.516,1.709v3.58h-1.111Z" transform="translate(-5.503 -6.351)"/><path class="cls-3" d="M119.47,75.547l1.148,0.142a2.8,2.8,0,0,1-1.006,1.562,3.409,3.409,0,0,1-4.157-.33,3.461,3.461,0,0,1-.842-2.484,3.621,3.621,0,0,1,.852-2.567,2.883,2.883,0,0,1,2.209-.913,2.8,2.8,0,0,1,2.148.895,3.557,3.557,0,0,1,.833,2.518q0,0.1-.006.3h-4.888a2.516,2.516,0,0,0,.611,1.654,1.818,1.818,0,0,0,1.37.574,1.7,1.7,0,0,0,1.043-.321A2.127,2.127,0,0,0,119.47,75.547Zm-3.647-1.8h3.66a2.218,2.218,0,0,0-.419-1.24,1.7,1.7,0,0,0-1.376-.642,1.765,1.765,0,0,0-1.287.512A2.029,2.029,0,0,0,115.822,73.751Z" transform="translate(-5.503 -6.351)"/><path class="cls-3" d="M126.265,77.658V76.831a2.038,2.038,0,0,1-1.833.975,2.572,2.572,0,0,1-1.441-.432,2.842,2.842,0,0,1-1.019-1.207,4.171,4.171,0,0,1-.361-1.781,4.655,4.655,0,0,1,.327-1.78,2.578,2.578,0,0,1,.981-1.225,2.621,2.621,0,0,1,1.463-.426,2.186,2.186,0,0,1,1.808.9V68.611h1.1v9.047h-1.031Zm-3.512-3.271a2.845,2.845,0,0,0,.531,1.882,1.6,1.6,0,0,0,1.253.624,1.571,1.571,0,0,0,1.237-.6,2.746,2.746,0,0,0,.509-1.817,3.083,3.083,0,0,0-.519-1.975,1.6,1.6,0,0,0-1.277-.629,1.539,1.539,0,0,0-1.237.6A2.981,2.981,0,0,0,122.753,74.387Z" transform="translate(-5.503 -6.351)"/><path class="cls-3" d="M132.646,77.658V68.611h3.395a4.2,4.2,0,0,1,1.663.274,2.14,2.14,0,0,1,.981.846,2.229,2.229,0,0,1,.354,1.194,2.055,2.055,0,0,1-.314,1.093,2.247,2.247,0,0,1-.951.827,2.365,2.365,0,0,1,1.262.821,2.2,2.2,0,0,1,.441,1.37,2.648,2.648,0,0,1-.269,1.182,2.293,2.293,0,0,1-.664.842,2.767,2.767,0,0,1-.99.447,6.015,6.015,0,0,1-1.46.151h-3.45Zm1.2-5.246H135.8a4.369,4.369,0,0,0,1.142-.1,1.271,1.271,0,0,0,.688-0.451,1.3,1.3,0,0,0,.231-0.79,1.455,1.455,0,0,0-.216-0.793,1.1,1.1,0,0,0-.617-0.469,5.171,5.171,0,0,0-1.376-.126h-1.808v2.734Zm0,4.178H136.1a5.2,5.2,0,0,0,.815-0.043A1.95,1.95,0,0,0,137.6,76.3a1.31,1.31,0,0,0,.457-0.5,1.575,1.575,0,0,0,.179-0.762,1.5,1.5,0,0,0-.259-0.879,1.366,1.366,0,0,0-.719-0.524,4.449,4.449,0,0,0-1.324-.151h-2.092v3.11Z" transform="translate(-5.503 -6.351)"/><path class="cls-3" d="M145.47,75.547l1.148,0.142a2.8,2.8,0,0,1-1.006,1.562,3.409,3.409,0,0,1-4.157-.33,3.461,3.461,0,0,1-.842-2.484,3.621,3.621,0,0,1,.852-2.567,2.883,2.883,0,0,1,2.209-.913,2.8,2.8,0,0,1,2.148.895,3.557,3.557,0,0,1,.833,2.518q0,0.1-.006.3h-4.888a2.516,2.516,0,0,0,.611,1.654,1.818,1.818,0,0,0,1.37.574,1.7,1.7,0,0,0,1.043-.321A2.127,2.127,0,0,0,145.47,75.547Zm-3.647-1.8h3.66a2.218,2.218,0,0,0-.419-1.24,1.7,1.7,0,0,0-1.376-.642,1.765,1.765,0,0,0-1.287.512A2.029,2.029,0,0,0,141.823,73.751Z" transform="translate(-5.503 -6.351)"/><path class="cls-3" d="M148.013,77.658V71.1h1v0.932a2.356,2.356,0,0,1,2.086-1.08,2.735,2.735,0,0,1,1.089.213,1.711,1.711,0,0,1,.744.559,2.145,2.145,0,0,1,.346.821,6.377,6.377,0,0,1,.062,1.08v4.03h-1.111V73.671a2.992,2.992,0,0,0-.129-1.015,1.069,1.069,0,0,0-.46-0.537,1.463,1.463,0,0,0-.774-0.2,1.8,1.8,0,0,0-1.225.451,2.221,2.221,0,0,0-.516,1.709v3.58h-1.111Z" transform="translate(-5.503 -6.351)"/><path class="cls-3" d="M159.529,75.547l1.148,0.142a2.8,2.8,0,0,1-1.006,1.562,3.409,3.409,0,0,1-4.157-.33,3.461,3.461,0,0,1-.842-2.484,3.621,3.621,0,0,1,.852-2.567,2.883,2.883,0,0,1,2.209-.913,2.8,2.8,0,0,1,2.148.895,3.557,3.557,0,0,1,.833,2.518q0,0.1-.006.3H155.82a2.516,2.516,0,0,0,.611,1.654,1.818,1.818,0,0,0,1.37.574,1.7,1.7,0,0,0,1.043-.321A2.127,2.127,0,0,0,159.529,75.547Zm-3.647-1.8h3.66a2.218,2.218,0,0,0-.419-1.24,1.7,1.7,0,0,0-1.376-.642,1.765,1.765,0,0,0-1.287.512A2.029,2.029,0,0,0,155.882,73.751Z" transform="translate(-5.503 -6.351)"/><path class="cls-3" d="M162.337,77.658v-5.69h-0.981V71.1h0.981v-0.7a3.055,3.055,0,0,1,.117-0.981,1.417,1.417,0,0,1,.564-0.7,2.034,2.034,0,0,1,1.133-.269,5.461,5.461,0,0,1,1.037.111l-0.167.969a3.7,3.7,0,0,0-.654-0.062,0.973,0.973,0,0,0-.716.216,1.168,1.168,0,0,0-.21.808v0.6h1.278v0.864h-1.278v5.69h-1.1Z" transform="translate(-5.503 -6.351)"/><path class="cls-3" d="M165.59,69.888V68.611H166.7v1.277H165.59Zm0,7.77V71.1H166.7v6.554H165.59Z" transform="translate(-5.503 -6.351)"/><path class="cls-3" d="M170.817,76.664l0.16,0.981a4.145,4.145,0,0,1-.839.1,1.9,1.9,0,0,1-.938-0.191,1.072,1.072,0,0,1-.469-0.5,3.982,3.982,0,0,1-.136-1.312V71.968h-0.814V71.1H168.6V69.481l1.1-.667V71.1h1.117v0.864H169.7V75.8a1.935,1.935,0,0,0,.059.611,0.46,0.46,0,0,0,.191.216,0.736,0.736,0,0,0,.379.081A3.622,3.622,0,0,0,170.817,76.664Z" transform="translate(-5.503 -6.351)"/><path class="cls-3" d="M175.557,77.658V68.611h3.413a8.236,8.236,0,0,1,1.376.086,2.726,2.726,0,0,1,1.117.422,2.22,2.22,0,0,1,.725.874,2.945,2.945,0,0,1-.46,3.188,3.522,3.522,0,0,1-2.654.8h-2.32v3.678h-1.2Zm1.2-4.746h2.339a2.484,2.484,0,0,0,1.648-.432,1.539,1.539,0,0,0,.488-1.216,1.635,1.635,0,0,0-.287-0.972,1.342,1.342,0,0,0-.756-0.534,5.1,5.1,0,0,0-1.117-.081h-2.314v3.234Z" transform="translate(-5.503 -6.351)"/><path class="cls-3" d="M183.821,77.658V68.611h1.111v9.047h-1.111Z" transform="translate(-5.503 -6.351)"/><path class="cls-3" d="M190.93,76.849a4.122,4.122,0,0,1-1.188.741,3.432,3.432,0,0,1-1.225.216,2.384,2.384,0,0,1-1.66-.527,1.742,1.742,0,0,1-.58-1.349,1.828,1.828,0,0,1,.793-1.518,2.708,2.708,0,0,1,.8-0.364,7.9,7.9,0,0,1,.988-0.167,10.167,10.167,0,0,0,1.981-.383q0.006-.229.006-0.29a1.226,1.226,0,0,0-.314-0.957,1.86,1.86,0,0,0-1.265-.376,1.966,1.966,0,0,0-1.157.274,1.677,1.677,0,0,0-.552.972l-1.086-.148a2.689,2.689,0,0,1,.488-1.126,2.134,2.134,0,0,1,.981-0.66,4.378,4.378,0,0,1,1.487-.231,3.948,3.948,0,0,1,1.364.2,1.8,1.8,0,0,1,.771.5,1.739,1.739,0,0,1,.345.756,6.243,6.243,0,0,1,.056,1.024v1.481a15.678,15.678,0,0,0,.071,1.959,2.454,2.454,0,0,0,.281.787h-1.161A2.362,2.362,0,0,1,190.93,76.849Zm-0.092-2.481a8.156,8.156,0,0,1-1.814.42,4.2,4.2,0,0,0-.969.222,0.967,0.967,0,0,0-.438.361,0.982,0.982,0,0,0,.182,1.269,1.448,1.448,0,0,0,.984.3,2.287,2.287,0,0,0,1.142-.281,1.727,1.727,0,0,0,.734-0.768,2.68,2.68,0,0,0,.179-1.111V74.368Z" transform="translate(-5.503 -6.351)"/><path class="cls-3" d="M193.683,77.658V71.1h1v0.932a2.356,2.356,0,0,1,2.086-1.08,2.735,2.735,0,0,1,1.089.213,1.711,1.711,0,0,1,.744.559,2.145,2.145,0,0,1,.346.821,6.377,6.377,0,0,1,.062,1.08v4.03H197.9V73.671a2.992,2.992,0,0,0-.129-1.015,1.069,1.069,0,0,0-.46-0.537,1.463,1.463,0,0,0-.774-0.2,1.8,1.8,0,0,0-1.225.451,2.221,2.221,0,0,0-.516,1.709v3.58h-1.111Z" transform="translate(-5.503 -6.351)"/><path class="cls-3" d="M200.268,75.7l1.1-.173a1.534,1.534,0,0,0,.515,1.012,1.8,1.8,0,0,0,1.182.352,1.736,1.736,0,0,0,1.136-.312,0.932,0.932,0,0,0,.37-0.731,0.675,0.675,0,0,0-.327-0.593,4.83,4.83,0,0,0-1.136-.376,10.321,10.321,0,0,1-1.694-.534,1.619,1.619,0,0,1-.96-1.5,1.688,1.688,0,0,1,.2-0.812,1.8,1.8,0,0,1,.546-0.62,2.3,2.3,0,0,1,.707-0.324,3.363,3.363,0,0,1,.959-0.132,3.786,3.786,0,0,1,1.355.222,1.842,1.842,0,0,1,.861.6,2.356,2.356,0,0,1,.383,1.015l-1.086.148a1.188,1.188,0,0,0-.429-0.79,1.568,1.568,0,0,0-1-.284,1.817,1.817,0,0,0-1.092.253,0.737,0.737,0,0,0-.327.593,0.611,0.611,0,0,0,.136.389,0.976,0.976,0,0,0,.426.3q0.166,0.062.981,0.284a13.658,13.658,0,0,1,1.645.516,1.673,1.673,0,0,1,.731.583,1.63,1.63,0,0,1,.265.951,1.866,1.866,0,0,1-.324,1.046,2.1,2.1,0,0,1-.935.759,3.407,3.407,0,0,1-1.382.268,3.078,3.078,0,0,1-1.947-.531A2.466,2.466,0,0,1,200.268,75.7Z" transform="translate(-5.503 -6.351)"/><rect class="cls-4" x="46.724" y="100.799" width="176.951" height="28.649"/><rect class="cls-5" x="46.724" y="93.075" width="176.951" height="7.724"/><rect class="cls-6" x="46.724" y="93.075" width="176.951" height="7.724"/><path class="cls-3" d="M70.926,124.985v-9.047h3.117a7.563,7.563,0,0,1,1.611.129,3.071,3.071,0,0,1,1.327.648,3.68,3.68,0,0,1,1.071,1.546,6.065,6.065,0,0,1,.355,2.151,6.308,6.308,0,0,1-.241,1.827,4.438,4.438,0,0,1-.617,1.318,3.28,3.28,0,0,1-.824.821,3.362,3.362,0,0,1-1.08.454,6.157,6.157,0,0,1-1.454.154H70.926Zm1.2-1.068h1.932a4.684,4.684,0,0,0,1.4-.167,2.011,2.011,0,0,0,.812-0.469,2.855,2.855,0,0,0,.663-1.145,5.59,5.59,0,0,0,.238-1.744,4.212,4.212,0,0,0-.466-2.182,2.35,2.35,0,0,0-1.133-1.021,4.689,4.689,0,0,0-1.549-.185h-1.9v6.912Z" transform="translate(-5.503 -6.351)"/><path class="cls-3" d="M84.4,122.874l1.148,0.142a2.8,2.8,0,0,1-1.006,1.562,3.409,3.409,0,0,1-4.157-.33,3.461,3.461,0,0,1-.842-2.484,3.621,3.621,0,0,1,.852-2.567,2.883,2.883,0,0,1,2.209-.913,2.8,2.8,0,0,1,2.148.895,3.557,3.557,0,0,1,.833,2.518q0,0.1-.006.3H80.69a2.516,2.516,0,0,0,.611,1.654,1.818,1.818,0,0,0,1.37.574,1.7,1.7,0,0,0,1.043-.321A2.127,2.127,0,0,0,84.4,122.874Zm-3.647-1.8h3.66a2.218,2.218,0,0,0-.419-1.24,1.7,1.7,0,0,0-1.376-.642,1.765,1.765,0,0,0-1.287.512A2.029,2.029,0,0,0,80.752,121.078Z" transform="translate(-5.503 -6.351)"/><path class="cls-3" d="M87.207,124.985V119.3H86.226v-0.864h0.981v-0.7a3.055,3.055,0,0,1,.117-0.981,1.417,1.417,0,0,1,.564-0.7,2.034,2.034,0,0,1,1.133-.269,5.461,5.461,0,0,1,1.037.111l-0.167.969a3.7,3.7,0,0,0-.654-0.062,0.973,0.973,0,0,0-.716.216,1.168,1.168,0,0,0-.21.808v0.6h1.278V119.3H88.312v5.69h-1.1Z" transform="translate(-5.503 -6.351)"/><path class="cls-3" d="M90.46,117.215v-1.277H91.57v1.277H90.46Zm0,7.77v-6.554H91.57v6.554H90.46Z" transform="translate(-5.503 -6.351)"/><path class="cls-3" d="M93.261,124.985v-6.554h1v0.932a2.356,2.356,0,0,1,2.086-1.08,2.735,2.735,0,0,1,1.089.213,1.711,1.711,0,0,1,.744.559,2.145,2.145,0,0,1,.346.821,6.377,6.377,0,0,1,.062,1.08v4.03H97.476V121a2.992,2.992,0,0,0-.129-1.015,1.069,1.069,0,0,0-.46-0.537,1.463,1.463,0,0,0-.774-0.2,1.8,1.8,0,0,0-1.225.451,2.221,2.221,0,0,0-.516,1.709v3.58H93.261Z" transform="translate(-5.503 -6.351)"/><path class="cls-3" d="M104.777,122.874l1.148,0.142a2.8,2.8,0,0,1-1.006,1.562,3.409,3.409,0,0,1-4.157-.33,3.461,3.461,0,0,1-.842-2.484,3.621,3.621,0,0,1,.852-2.567,2.883,2.883,0,0,1,2.209-.913,2.8,2.8,0,0,1,2.148.895,3.557,3.557,0,0,1,.833,2.518q0,0.1-.006.3h-4.888a2.516,2.516,0,0,0,.611,1.654,1.818,1.818,0,0,0,1.37.574,1.7,1.7,0,0,0,1.043-.321A2.127,2.127,0,0,0,104.777,122.874Zm-3.647-1.8h3.66a2.218,2.218,0,0,0-.419-1.24,1.7,1.7,0,0,0-1.376-.642,1.765,1.765,0,0,0-1.287.512A2.029,2.029,0,0,0,101.13,121.078Z" transform="translate(-5.503 -6.351)"/><path class="cls-3" d="M111.572,124.985v-0.827a2.038,2.038,0,0,1-1.833.975,2.572,2.572,0,0,1-1.441-.432,2.842,2.842,0,0,1-1.019-1.207,4.171,4.171,0,0,1-.361-1.781,4.655,4.655,0,0,1,.327-1.78,2.578,2.578,0,0,1,.981-1.225,2.621,2.621,0,0,1,1.463-.426,2.186,2.186,0,0,1,1.808.9v-3.246h1.1v9.047h-1.031Zm-3.512-3.271a2.845,2.845,0,0,0,.531,1.882,1.6,1.6,0,0,0,1.253.624,1.571,1.571,0,0,0,1.237-.6,2.746,2.746,0,0,0,.509-1.817,3.083,3.083,0,0,0-.519-1.975,1.6,1.6,0,0,0-1.277-.629,1.539,1.539,0,0,0-1.237.6A2.981,2.981,0,0,0,108.061,121.714Z" transform="translate(-5.503 -6.351)"/><path class="cls-3" d="M124.459,121.813l1.2,0.3a4.03,4.03,0,0,1-1.355,2.25,3.733,3.733,0,0,1-2.391.774,4.3,4.3,0,0,1-2.379-.6,3.718,3.718,0,0,1-1.395-1.725,6.156,6.156,0,0,1-.479-2.426,5.334,5.334,0,0,1,.54-2.465,3.7,3.7,0,0,1,1.537-1.6,4.5,4.5,0,0,1,2.194-.546,3.711,3.711,0,0,1,2.283.691,3.59,3.59,0,0,1,1.29,1.944l-1.179.277a2.8,2.8,0,0,0-.914-1.437,2.434,2.434,0,0,0-1.506-.451,2.925,2.925,0,0,0-1.744.5,2.641,2.641,0,0,0-.984,1.342,5.411,5.411,0,0,0-.284,1.737,5.522,5.522,0,0,0,.336,2.015,2.506,2.506,0,0,0,1.046,1.287,2.936,2.936,0,0,0,1.537.426,2.575,2.575,0,0,0,1.7-.58A2.97,2.97,0,0,0,124.459,121.813Z" transform="translate(-5.503 -6.351)"/><path class="cls-3" d="M126.575,121.708a3.379,3.379,0,0,1,1.012-2.7,3.051,3.051,0,0,1,2.062-.728,2.942,2.942,0,0,1,2.209.885,3.371,3.371,0,0,1,.858,2.447,4.331,4.331,0,0,1-.38,1.99,2.687,2.687,0,0,1-1.1,1.126,3.22,3.22,0,0,1-1.583.4,2.947,2.947,0,0,1-2.225-.882A3.526,3.526,0,0,1,126.575,121.708Zm1.142,0a2.792,2.792,0,0,0,.549,1.885,1.829,1.829,0,0,0,2.758,0,2.858,2.858,0,0,0,.549-1.919,2.708,2.708,0,0,0-.552-1.842,1.831,1.831,0,0,0-2.755,0A2.781,2.781,0,0,0,127.717,121.708Z" transform="translate(-5.503 -6.351)"/><path class="cls-3" d="M134.018,124.985v-6.554h1v0.932a2.356,2.356,0,0,1,2.086-1.08,2.735,2.735,0,0,1,1.089.213,1.711,1.711,0,0,1,.744.559,2.145,2.145,0,0,1,.346.821,6.377,6.377,0,0,1,.062,1.08v4.03h-1.111V121a2.992,2.992,0,0,0-.129-1.015,1.069,1.069,0,0,0-.46-0.537,1.463,1.463,0,0,0-.774-0.2,1.8,1.8,0,0,0-1.225.451,2.221,2.221,0,0,0-.516,1.709v3.58h-1.111Z" transform="translate(-5.503 -6.351)"/><path class="cls-3" d="M143.473,123.992l0.16,0.981a4.145,4.145,0,0,1-.839.1,1.9,1.9,0,0,1-.938-0.191,1.072,1.072,0,0,1-.469-0.5,3.982,3.982,0,0,1-.136-1.312V119.3h-0.814v-0.864h0.814v-1.623l1.1-.667v2.29h1.117V119.3h-1.117v3.833a1.935,1.935,0,0,0,.059.611,0.46,0.46,0,0,0,.191.216,0.736,0.736,0,0,0,.379.081A3.622,3.622,0,0,0,143.473,123.992Z" transform="translate(-5.503 -6.351)"/><path class="cls-3" d="M144.547,124.985v-6.554h1v0.994a2.7,2.7,0,0,1,.707-0.919,1.231,1.231,0,0,1,.713-0.222,2.166,2.166,0,0,1,1.142.358l-0.383,1.031a1.587,1.587,0,0,0-.814-0.241,1.058,1.058,0,0,0-.654.219,1.188,1.188,0,0,0-.414.608,4.341,4.341,0,0,0-.185,1.3v3.431h-1.111Z" transform="translate(-5.503 -6.351)"/><path class="cls-3" d="M148.775,117.215v-1.277h1.111v1.277h-1.111Zm0,7.77v-6.554h1.111v6.554h-1.111Z" transform="translate(-5.503 -6.351)"/><path class="cls-3" d="M152.6,124.985h-1.03v-9.047h1.111v3.228a2.2,2.2,0,0,1,1.8-.882,2.747,2.747,0,0,1,1.145.244,2.338,2.338,0,0,1,.889.685,3.313,3.313,0,0,1,.546,1.064,4.383,4.383,0,0,1,.2,1.333,3.742,3.742,0,0,1-.833,2.6,2.6,2.6,0,0,1-2,.919,2.087,2.087,0,0,1-1.821-.969v0.821Zm-0.012-3.327a3.4,3.4,0,0,0,.321,1.7,1.588,1.588,0,0,0,2.679.225,2.875,2.875,0,0,0,.531-1.885,2.924,2.924,0,0,0-.509-1.895,1.55,1.55,0,0,0-1.231-.611,1.6,1.6,0,0,0-1.259.633A2.776,2.776,0,0,0,152.588,121.659Z" transform="translate(-5.503 -6.351)"/><path class="cls-3" d="M162.9,124.985v-0.963a2.4,2.4,0,0,1-2.08,1.111,2.644,2.644,0,0,1-1.083-.222,1.78,1.78,0,0,1-.747-0.559,2.083,2.083,0,0,1-.342-0.824,5.623,5.623,0,0,1-.068-1.037v-4.061h1.111v3.635a6.461,6.461,0,0,0,.068,1.172,1.156,1.156,0,0,0,.444.688,1.374,1.374,0,0,0,.839.25,1.831,1.831,0,0,0,.938-0.256,1.423,1.423,0,0,0,.62-0.7,3.492,3.492,0,0,0,.182-1.28v-3.512h1.111v6.554H162.9Z" transform="translate(-5.503 -6.351)"/><path class="cls-3" d="M168.061,123.992l0.16,0.981a4.145,4.145,0,0,1-.839.1,1.9,1.9,0,0,1-.938-0.191,1.072,1.072,0,0,1-.469-0.5,3.982,3.982,0,0,1-.136-1.312V119.3h-0.814v-0.864h0.814v-1.623l1.1-.667v2.29h1.117V119.3h-1.117v3.833a1.935,1.935,0,0,0,.059.611,0.46,0.46,0,0,0,.191.216,0.736,0.736,0,0,0,.379.081A3.622,3.622,0,0,0,168.061,123.992Z" transform="translate(-5.503 -6.351)"/><path class="cls-3" d="M169.153,117.215v-1.277h1.111v1.277h-1.111Zm0,7.77v-6.554h1.111v6.554h-1.111Z" transform="translate(-5.503 -6.351)"/><path class="cls-3" d="M171.541,121.708a3.379,3.379,0,0,1,1.012-2.7,3.051,3.051,0,0,1,2.062-.728,2.942,2.942,0,0,1,2.209.885,3.371,3.371,0,0,1,.858,2.447,4.33,4.33,0,0,1-.38,1.99,2.687,2.687,0,0,1-1.1,1.126,3.22,3.22,0,0,1-1.583.4,2.947,2.947,0,0,1-2.225-.882A3.526,3.526,0,0,1,171.541,121.708Zm1.142,0a2.792,2.792,0,0,0,.549,1.885,1.829,1.829,0,0,0,2.758,0,2.858,2.858,0,0,0,.549-1.919,2.708,2.708,0,0,0-.552-1.842,1.831,1.831,0,0,0-2.755,0A2.781,2.781,0,0,0,172.683,121.708Z" transform="translate(-5.503 -6.351)"/><path class="cls-3" d="M178.984,124.985v-6.554h1v0.932a2.356,2.356,0,0,1,2.086-1.08,2.735,2.735,0,0,1,1.089.213,1.711,1.711,0,0,1,.744.559,2.145,2.145,0,0,1,.346.821,6.377,6.377,0,0,1,.062,1.08v4.03H183.2V121a2.992,2.992,0,0,0-.129-1.015,1.069,1.069,0,0,0-.46-0.537,1.463,1.463,0,0,0-.774-0.2,1.8,1.8,0,0,0-1.225.451,2.221,2.221,0,0,0-.516,1.709v3.58h-1.111Z" transform="translate(-5.503 -6.351)"/><path class="cls-3" d="M189.667,124.985v-9.047h3.413a8.236,8.236,0,0,1,1.376.086,2.726,2.726,0,0,1,1.117.422,2.22,2.22,0,0,1,.725.874,2.945,2.945,0,0,1-.46,3.188,3.522,3.522,0,0,1-2.654.8h-2.32v3.678h-1.2Zm1.2-4.746H193.2a2.484,2.484,0,0,0,1.648-.432,1.539,1.539,0,0,0,.488-1.216,1.635,1.635,0,0,0-.287-0.972,1.342,1.342,0,0,0-.756-0.534,5.1,5.1,0,0,0-1.117-.081h-2.314v3.234Z" transform="translate(-5.503 -6.351)"/><path class="cls-3" d="M197.931,124.985v-9.047h1.111v9.047h-1.111Z" transform="translate(-5.503 -6.351)"/><path class="cls-3" d="M205.04,124.177a4.122,4.122,0,0,1-1.188.741,3.432,3.432,0,0,1-1.225.216,2.384,2.384,0,0,1-1.66-.527,1.742,1.742,0,0,1-.58-1.349,1.828,1.828,0,0,1,.793-1.518,2.708,2.708,0,0,1,.8-0.364,7.9,7.9,0,0,1,.988-0.167,10.167,10.167,0,0,0,1.981-.383q0.006-.229.006-0.29a1.226,1.226,0,0,0-.314-0.957,1.86,1.86,0,0,0-1.265-.376,1.966,1.966,0,0,0-1.157.274,1.677,1.677,0,0,0-.552.972l-1.086-.148a2.689,2.689,0,0,1,.488-1.126,2.134,2.134,0,0,1,.981-0.66,4.378,4.378,0,0,1,1.487-.231,3.948,3.948,0,0,1,1.364.2,1.8,1.8,0,0,1,.771.5,1.739,1.739,0,0,1,.345.756,6.243,6.243,0,0,1,.056,1.024v1.481a15.678,15.678,0,0,0,.071,1.959,2.454,2.454,0,0,0,.281.787h-1.161A2.362,2.362,0,0,1,205.04,124.177Zm-0.092-2.481a8.156,8.156,0,0,1-1.814.42,4.2,4.2,0,0,0-.969.222,0.967,0.967,0,0,0-.438.361,0.982,0.982,0,0,0,.182,1.269,1.448,1.448,0,0,0,.984.3,2.287,2.287,0,0,0,1.142-.281,1.727,1.727,0,0,0,.734-0.768,2.68,2.68,0,0,0,.179-1.111V121.7Z" transform="translate(-5.503 -6.351)"/><path class="cls-3" d="M207.793,124.985v-6.554h1v0.932a2.356,2.356,0,0,1,2.086-1.08,2.735,2.735,0,0,1,1.089.213,1.711,1.711,0,0,1,.744.559,2.145,2.145,0,0,1,.346.821,6.377,6.377,0,0,1,.062,1.08v4.03h-1.111V121a2.992,2.992,0,0,0-.129-1.015,1.069,1.069,0,0,0-.46-0.537,1.463,1.463,0,0,0-.774-0.2,1.8,1.8,0,0,0-1.225.451,2.221,2.221,0,0,0-.516,1.709v3.58h-1.111Z" transform="translate(-5.503 -6.351)"/><path class="cls-3" d="M214.378,123.029l1.1-.173a1.534,1.534,0,0,0,.515,1.012,1.8,1.8,0,0,0,1.182.352,1.736,1.736,0,0,0,1.136-.312,0.932,0.932,0,0,0,.37-0.731,0.675,0.675,0,0,0-.327-0.593,4.83,4.83,0,0,0-1.136-.376,10.321,10.321,0,0,1-1.694-.534,1.619,1.619,0,0,1-.96-1.5,1.688,1.688,0,0,1,.2-0.812,1.8,1.8,0,0,1,.546-0.62,2.3,2.3,0,0,1,.707-0.324,3.363,3.363,0,0,1,.959-0.132,3.786,3.786,0,0,1,1.355.222,1.842,1.842,0,0,1,.861.6,2.356,2.356,0,0,1,.383,1.015l-1.086.148a1.188,1.188,0,0,0-.429-0.79,1.568,1.568,0,0,0-1-.284,1.817,1.817,0,0,0-1.092.253,0.737,0.737,0,0,0-.327.593,0.611,0.611,0,0,0,.136.389,0.976,0.976,0,0,0,.426.3q0.166,0.062.981,0.284a13.658,13.658,0,0,1,1.645.516,1.673,1.673,0,0,1,.731.583,1.63,1.63,0,0,1,.265.951,1.866,1.866,0,0,1-.324,1.046,2.1,2.1,0,0,1-.935.759,3.407,3.407,0,0,1-1.382.268,3.078,3.078,0,0,1-1.947-.531A2.466,2.466,0,0,1,214.378,123.029Z" transform="translate(-5.503 -6.351)"/><rect class="cls-7" x="0.5" y="0.5" width="267.616" height="153.324"/><path class="cls-3" d="M102.8,33.774a5.962,5.962,0,0,0,1.462.765l-0.672,1.29a4.169,4.169,0,0,1-.809-0.339q-0.086-.043-1.216-0.8a4.861,4.861,0,0,1-1.969.389,4.322,4.322,0,0,1-3.268-1.228,4.774,4.774,0,0,1-1.182-3.45,4.767,4.767,0,0,1,1.185-3.447,4.252,4.252,0,0,1,3.215-1.231,4.208,4.208,0,0,1,3.19,1.231,4.781,4.781,0,0,1,1.179,3.447,5.962,5.962,0,0,1-.327,2.062A4.3,4.3,0,0,1,102.8,33.774Zm-1.469-1.031a2.731,2.731,0,0,0,.527-1,4.693,4.693,0,0,0,.176-1.346,3.43,3.43,0,0,0-.691-2.342,2.5,2.5,0,0,0-3.62,0,3.421,3.421,0,0,0-.694,2.339,3.5,3.5,0,0,0,.694,2.373,2.239,2.239,0,0,0,1.756.787,2.141,2.141,0,0,0,.747-0.13A5.3,5.3,0,0,0,99.1,32.86l0.512-1.043A6.227,6.227,0,0,1,101.336,32.743Z" transform="translate(-5.503 -6.351)"/><path class="cls-3" d="M109.655,34.922V33.94a2.523,2.523,0,0,1-.941.827,2.636,2.636,0,0,1-1.231.3,2.407,2.407,0,0,1-1.185-.29,1.715,1.715,0,0,1-.759-0.814,3.636,3.636,0,0,1-.234-1.45V28.367h1.734v3.012a8.338,8.338,0,0,0,.1,1.694,0.922,0.922,0,0,0,.349.494,1.072,1.072,0,0,0,.642.182,1.364,1.364,0,0,0,.8-0.244,1.241,1.241,0,0,0,.481-0.6,7.025,7.025,0,0,0,.129-1.769V28.367h1.734v6.554h-1.611Z" transform="translate(-5.503 -6.351)"/><path class="cls-3" d="M114.358,30.367l-1.574-.284a2.451,2.451,0,0,1,.914-1.407,3.34,3.34,0,0,1,1.925-.457,4.15,4.15,0,0,1,1.728.274,1.725,1.725,0,0,1,.8.7,3.578,3.578,0,0,1,.231,1.552l-0.019,2.024a7.01,7.01,0,0,0,.083,1.274,3.719,3.719,0,0,0,.312.879h-1.716q-0.067-.173-0.167-0.512-0.043-.155-0.062-0.2a3.128,3.128,0,0,1-.951.648,2.721,2.721,0,0,1-1.08.216,2.23,2.23,0,0,1-1.6-.549,1.824,1.824,0,0,1-.583-1.388,1.865,1.865,0,0,1,.265-0.991,1.733,1.733,0,0,1,.744-0.667,5.815,5.815,0,0,1,1.379-.4,9.455,9.455,0,0,0,1.685-.426V30.472a0.9,0.9,0,0,0-.247-0.713,1.478,1.478,0,0,0-.932-0.213,1.244,1.244,0,0,0-.722.182A1.267,1.267,0,0,0,114.358,30.367Zm2.321,1.407a10.721,10.721,0,0,1-1.056.265,3.188,3.188,0,0,0-.944.3,0.723,0.723,0,0,0-.339.611,0.852,0.852,0,0,0,.271.629,0.948,0.948,0,0,0,.691.266,1.5,1.5,0,0,0,.9-0.309,1.085,1.085,0,0,0,.414-0.574,3.438,3.438,0,0,0,.068-0.845V31.774Z" transform="translate(-5.503 -6.351)"/><path class="cls-3" d="M120.091,34.922V25.874h1.734v9.047h-1.734Z" transform="translate(-5.503 -6.351)"/><path class="cls-3" d="M123.6,27.479v-1.6h1.734v1.6H123.6Zm0,7.443V28.367h1.734v6.554H123.6Z" transform="translate(-5.503 -6.351)"/><path class="cls-3" d="M126.355,28.367h0.963V27.874a3.282,3.282,0,0,1,.176-1.234,1.392,1.392,0,0,1,.648-0.664,2.491,2.491,0,0,1,1.194-.256,4.817,4.817,0,0,1,1.45.222l-0.234,1.209a3.421,3.421,0,0,0-.8-0.1,0.71,0.71,0,0,0-.54.176,1.017,1.017,0,0,0-.164.676v0.463h1.3v1.364h-1.3v5.19h-1.734v-5.19h-0.963V28.367Z" transform="translate(-5.503 -6.351)"/><path class="cls-3" d="M131.323,27.479v-1.6h1.734v1.6h-1.734Zm0,7.443V28.367h1.734v6.554h-1.734Z" transform="translate(-5.503 -6.351)"/><path class="cls-3" d="M138.63,32.836l1.728,0.29a2.832,2.832,0,0,1-1.052,1.447,3.093,3.093,0,0,1-1.8.5,2.932,2.932,0,0,1-2.53-1.117,3.752,3.752,0,0,1-.648-2.259,3.619,3.619,0,0,1,.852-2.552,2.806,2.806,0,0,1,2.154-.922,2.908,2.908,0,0,1,2.308.966,4.276,4.276,0,0,1,.809,2.959h-4.345a1.754,1.754,0,0,0,.419,1.2,1.314,1.314,0,0,0,1,.429,1.063,1.063,0,0,0,.685-0.222A1.372,1.372,0,0,0,138.63,32.836Zm0.1-1.753a1.667,1.667,0,0,0-.389-1.145,1.251,1.251,0,0,0-1.839.021,1.6,1.6,0,0,0-.364,1.123h2.592Z" transform="translate(-5.503 -6.351)"/><path class="cls-3" d="M147.876,34.922h-1.611V33.959a2.606,2.606,0,0,1-.947.836,2.431,2.431,0,0,1-1.1.274,2.5,2.5,0,0,1-1.935-.91,3.7,3.7,0,0,1-.805-2.54,3.661,3.661,0,0,1,.784-2.534,2.556,2.556,0,0,1,1.981-.867,2.453,2.453,0,0,1,1.9.913V25.874h1.734v9.047ZM143.247,31.5a3,3,0,0,0,.29,1.518,1.311,1.311,0,0,0,1.173.679,1.276,1.276,0,0,0,1.018-.509,2.351,2.351,0,0,0,.42-1.521,2.571,2.571,0,0,0-.407-1.626,1.29,1.29,0,0,0-1.043-.5,1.3,1.3,0,0,0-1.034.491A2.22,2.22,0,0,0,143.247,31.5Z" transform="translate(-5.503 -6.351)"/><path class="cls-3" d="M153.109,34.922V25.874h2.932a10.645,10.645,0,0,1,2.172.136,2.372,2.372,0,0,1,1.3.886,2.809,2.809,0,0,1,.524,1.762,2.95,2.95,0,0,1-.3,1.4,2.483,2.483,0,0,1-.769.892,2.648,2.648,0,0,1-.947.429,10.426,10.426,0,0,1-1.895.129h-1.191v3.413h-1.827Zm1.827-7.517v2.567h1a4.743,4.743,0,0,0,1.444-.142,1.2,1.2,0,0,0,.571-0.445,1.216,1.216,0,0,0,.207-0.7,1.169,1.169,0,0,0-.29-0.815,1.261,1.261,0,0,0-.734-0.4,8.786,8.786,0,0,0-1.314-.062h-0.882Z" transform="translate(-5.503 -6.351)"/><path class="cls-3" d="M161.527,34.922V25.874h1.734v9.047h-1.734Z" transform="translate(-5.503 -6.351)"/><path class="cls-3" d="M166.335,30.367l-1.574-.284a2.451,2.451,0,0,1,.914-1.407,3.34,3.34,0,0,1,1.925-.457,4.15,4.15,0,0,1,1.728.274,1.725,1.725,0,0,1,.8.7,3.578,3.578,0,0,1,.231,1.552l-0.019,2.024a7.01,7.01,0,0,0,.083,1.274,3.719,3.719,0,0,0,.312.879h-1.716q-0.067-.173-0.167-0.512-0.043-.155-0.062-0.2a3.128,3.128,0,0,1-.951.648,2.721,2.721,0,0,1-1.08.216,2.23,2.23,0,0,1-1.6-.549,1.824,1.824,0,0,1-.583-1.388,1.865,1.865,0,0,1,.265-0.991,1.733,1.733,0,0,1,.744-0.667,5.815,5.815,0,0,1,1.379-.4,9.455,9.455,0,0,0,1.685-.426V30.472a0.9,0.9,0,0,0-.247-0.713,1.478,1.478,0,0,0-.932-0.213,1.244,1.244,0,0,0-.722.182A1.267,1.267,0,0,0,166.335,30.367Zm2.321,1.407a10.721,10.721,0,0,1-1.056.265,3.188,3.188,0,0,0-.944.3,0.723,0.723,0,0,0-.339.611,0.852,0.852,0,0,0,.271.629,0.948,0.948,0,0,0,.691.266,1.5,1.5,0,0,0,.9-0.309,1.085,1.085,0,0,0,.414-0.574,3.438,3.438,0,0,0,.068-0.845V31.774Z" transform="translate(-5.503 -6.351)"/><path class="cls-3" d="M178.03,34.922H176.3V31.576a5.16,5.16,0,0,0-.111-1.373,0.963,0.963,0,0,0-.361-0.484,1.031,1.031,0,0,0-.6-0.173,1.392,1.392,0,0,0-.809.247,1.242,1.242,0,0,0-.491.654,5.661,5.661,0,0,0-.133,1.506v2.969h-1.734V28.367h1.611V29.33a2.686,2.686,0,0,1,3.209-.9,1.759,1.759,0,0,1,.719.528,1.919,1.919,0,0,1,.339.728,5.437,5.437,0,0,1,.1,1.167v4.073Z" transform="translate(-5.503 -6.351)"/><path class="cls-3" d="M179.178,33.052l1.74-.265a1.274,1.274,0,0,0,.451.768,1.519,1.519,0,0,0,.95.263,1.717,1.717,0,0,0,1.012-.247,0.551,0.551,0,0,0,.229-0.463,0.456,0.456,0,0,0-.124-0.327,1.39,1.39,0,0,0-.58-0.229,9.353,9.353,0,0,1-2.66-.845,1.688,1.688,0,0,1-.777-1.475,1.818,1.818,0,0,1,.672-1.432,3.142,3.142,0,0,1,2.086-.58,3.643,3.643,0,0,1,2,.438,2.239,2.239,0,0,1,.9,1.3l-1.636.3a1.01,1.01,0,0,0-.4-0.586,1.455,1.455,0,0,0-.836-0.2,1.884,1.884,0,0,0-.981.191,0.41,0.41,0,0,0-.2.352,0.383,0.383,0,0,0,.173.315,6.521,6.521,0,0,0,1.62.487,4.829,4.829,0,0,1,1.935.771,1.6,1.6,0,0,1,.543,1.29,1.98,1.98,0,0,1-.753,1.549,3.332,3.332,0,0,1-2.228.648,3.653,3.653,0,0,1-2.12-.543A2.5,2.5,0,0,1,179.178,33.052Z" transform="translate(-5.503 -6.351)"/></svg>