<svg id="Layer_1" data-name="Layer 1" xmlns="http://www.w3.org/2000/svg" viewBox="0 0 868.193 203.174"><defs><style>.cls-1,.cls-2,.cls-8{fill:none;}.cls-1,.cls-9{stroke:#af6f29;}.cls-2{stroke:#231f20;}.cls-3{fill:#00a180;}.cls-4{fill:#9c2d2c;}.cls-5{fill:#fff;}.cls-6{fill:#29538c;}.cls-7{fill:#5e5f5f;}.cls-8{stroke:#000;stroke-width:3px;}.cls-9{fill:#af6f29;}</style></defs><title>Charitable_ Remainder_Trusts</title><line class="cls-1" x1="212.739" y1="127.561" x2="212.739" y2="98.246"/><line class="cls-1" x1="422.937" y1="83.696" x2="422.937" y2="54.38"/><line class="cls-1" x1="441.567" y1="142.219" x2="441.567" y2="112.903"/><line class="cls-1" x1="651.525" y1="96.28" x2="651.525" y2="66.965"/><rect class="cls-2" x="0.5" y="0.5" width="867.193" height="202.174"/><rect class="cls-3" x="248.613" y="66.965" width="138.69" height="59.76"/><rect class="cls-4" x="477.201" y="66.965" width="138.69" height="59.76"/><polygon points="701.386 96.024 684.435 79.293 684.435 112.754 701.386 96.024"/><path class="cls-5" d="M301.894,103.324V92.293h3.8a9.207,9.207,0,0,1,1.964.158,3.738,3.738,0,0,1,1.618.79,4.488,4.488,0,0,1,1.306,1.885,7.407,7.407,0,0,1,.433,2.622,7.719,7.719,0,0,1-.293,2.228,5.416,5.416,0,0,1-.752,1.606,4,4,0,0,1-1,1,4.087,4.087,0,0,1-1.316.553,7.512,7.512,0,0,1-1.772.188h-3.98Zm1.459-1.3h2.355a5.719,5.719,0,0,0,1.711-.2,2.451,2.451,0,0,0,.99-0.572,3.476,3.476,0,0,0,.809-1.4,6.814,6.814,0,0,0,.29-2.125,5.129,5.129,0,0,0-.568-2.66,2.862,2.862,0,0,0-1.38-1.246,5.713,5.713,0,0,0-1.889-.226h-2.318v8.427Z" transform="translate(-3.784 -3.261)"/><path class="cls-5" d="M312.346,99.328a4.119,4.119,0,0,1,1.234-3.288,3.718,3.718,0,0,1,2.513-.888,3.586,3.586,0,0,1,2.694,1.08,4.108,4.108,0,0,1,1.046,2.983,5.285,5.285,0,0,1-.463,2.427,3.274,3.274,0,0,1-1.347,1.373,3.922,3.922,0,0,1-1.93.489,3.591,3.591,0,0,1-2.712-1.076A4.3,4.3,0,0,1,312.346,99.328Zm1.392,0a3.4,3.4,0,0,0,.669,2.3,2.23,2.23,0,0,0,3.363,0,3.482,3.482,0,0,0,.67-2.34,3.3,3.3,0,0,0-.673-2.246,2.233,2.233,0,0,0-3.36,0A3.39,3.39,0,0,0,313.738,99.328Z" transform="translate(-3.784 -3.261)"/><path class="cls-5" d="M321.42,103.324V95.333h1.219v1.136a2.873,2.873,0,0,1,2.543-1.316,3.339,3.339,0,0,1,1.328.259,2.093,2.093,0,0,1,.907.681,2.611,2.611,0,0,1,.421,1,7.736,7.736,0,0,1,.075,1.316v4.914h-1.354V98.463a3.647,3.647,0,0,0-.158-1.238,1.3,1.3,0,0,0-.561-0.654,1.784,1.784,0,0,0-.944-0.245,2.194,2.194,0,0,0-1.494.549,2.708,2.708,0,0,0-.628,2.084v4.364H321.42Z" transform="translate(-3.784 -3.261)"/><path class="cls-5" d="M329.486,99.328a4.119,4.119,0,0,1,1.234-3.288,3.718,3.718,0,0,1,2.513-.888,3.586,3.586,0,0,1,2.694,1.08,4.108,4.108,0,0,1,1.046,2.983,5.285,5.285,0,0,1-.463,2.427,3.274,3.274,0,0,1-1.347,1.373,3.922,3.922,0,0,1-1.93.489,3.591,3.591,0,0,1-2.712-1.076A4.3,4.3,0,0,1,329.486,99.328Zm1.392,0a3.4,3.4,0,0,0,.669,2.3,2.23,2.23,0,0,0,3.363,0,3.482,3.482,0,0,0,.67-2.34,3.3,3.3,0,0,0-.673-2.246,2.233,2.233,0,0,0-3.36,0A3.39,3.39,0,0,0,330.878,99.328Z" transform="translate(-3.784 -3.261)"/><path class="cls-5" d="M338.546,103.324V95.333h1.219v1.211a3.3,3.3,0,0,1,.861-1.121,1.5,1.5,0,0,1,.869-0.271,2.642,2.642,0,0,1,1.392.437l-0.466,1.256a1.936,1.936,0,0,0-.993-0.293,1.292,1.292,0,0,0-.8.267,1.446,1.446,0,0,0-.5.741,5.262,5.262,0,0,0-.226,1.58v4.184h-1.354Z" transform="translate(-3.784 -3.261)"/><path class="cls-5" d="M536.586,103.654V93.925h-3.634v-1.3H541.7v1.3h-3.649v9.729h-1.46Z" transform="translate(-3.784 -3.261)"/><path class="cls-5" d="M543,103.654V95.663h1.219v1.211a3.3,3.3,0,0,1,.861-1.121,1.506,1.506,0,0,1,.869-0.271,2.645,2.645,0,0,1,1.393.437l-0.467,1.256a1.936,1.936,0,0,0-.993-0.293,1.292,1.292,0,0,0-.8.267,1.452,1.452,0,0,0-.5.741,5.278,5.278,0,0,0-.226,1.58v4.184H543Z" transform="translate(-3.784 -3.261)"/><path class="cls-5" d="M553.389,103.654V102.48a2.926,2.926,0,0,1-2.536,1.354,3.23,3.23,0,0,1-1.32-.271,2.169,2.169,0,0,1-.91-0.681,2.544,2.544,0,0,1-.418-1,6.914,6.914,0,0,1-.083-1.264V95.663h1.354V100.1a7.842,7.842,0,0,0,.083,1.43,1.408,1.408,0,0,0,.542.839,1.678,1.678,0,0,0,1.023.3,2.231,2.231,0,0,0,1.144-.312,1.735,1.735,0,0,0,.756-0.851,4.255,4.255,0,0,0,.222-1.561V95.663H554.6v7.991h-1.211Z" transform="translate(-3.784 -3.261)"/><path class="cls-5" d="M556.18,101.269l1.34-.21a1.871,1.871,0,0,0,.628,1.234,2.193,2.193,0,0,0,1.441.429,2.114,2.114,0,0,0,1.384-.38,1.135,1.135,0,0,0,.452-0.892,0.821,0.821,0,0,0-.4-0.722,5.851,5.851,0,0,0-1.384-.459,12.652,12.652,0,0,1-2.065-.651,1.971,1.971,0,0,1-1.17-1.833,2.056,2.056,0,0,1,.244-0.989,2.189,2.189,0,0,1,.666-0.756,2.8,2.8,0,0,1,.861-0.4,4.094,4.094,0,0,1,1.17-.162,4.621,4.621,0,0,1,1.651.271,2.239,2.239,0,0,1,1.05.733,2.866,2.866,0,0,1,.467,1.238l-1.324.181a1.449,1.449,0,0,0-.523-0.963,1.912,1.912,0,0,0-1.223-.346,2.212,2.212,0,0,0-1.331.309,0.9,0.9,0,0,0-.4.723,0.747,0.747,0,0,0,.166.474,1.19,1.19,0,0,0,.519.361q0.2,0.075,1.2.346a16.62,16.62,0,0,1,2.006.628,2.034,2.034,0,0,1,.892.711,1.984,1.984,0,0,1,.323,1.159,2.278,2.278,0,0,1-.395,1.275,2.554,2.554,0,0,1-1.141.926,4.152,4.152,0,0,1-1.686.327,3.753,3.753,0,0,1-2.373-.647A3.012,3.012,0,0,1,556.18,101.269Z" transform="translate(-3.784 -3.261)"/><path class="cls-5" d="M567.384,102.443l0.2,1.2a5.046,5.046,0,0,1-1.023.121,2.316,2.316,0,0,1-1.144-.233,1.3,1.3,0,0,1-.572-0.613,4.846,4.846,0,0,1-.166-1.6v-4.6h-0.993V95.663h0.993V93.684l1.348-.813v2.792h1.361v1.053h-1.361v4.673a2.354,2.354,0,0,0,.071.745,0.564,0.564,0,0,0,.233.264,0.9,0.9,0,0,0,.463.1A4.385,4.385,0,0,0,567.384,102.443Z" transform="translate(-3.784 -3.261)"/><rect class="cls-6" x="19.85" y="66.965" width="138.69" height="59.76"/><rect class="cls-7" x="704.449" y="66.965" width="138.69" height="59.76"/><path class="cls-5" d="M82.358,103.379V92.348h1.46v11.031h-1.46Z" transform="translate(-3.784 -3.261)"/><path class="cls-5" d="M86.414,103.379V92.348h4.891a6.507,6.507,0,0,1,2.242.3,2.453,2.453,0,0,1,1.227,1.049,3.136,3.136,0,0,1,.459,1.663,2.773,2.773,0,0,1-.76,1.979,3.847,3.847,0,0,1-2.348,1.023,3.8,3.8,0,0,1,.88.549,7.6,7.6,0,0,1,1.211,1.467l1.919,3H94.3l-1.46-2.295q-0.639-.993-1.053-1.52a3.315,3.315,0,0,0-.741-0.737,2.189,2.189,0,0,0-.666-0.293,4.38,4.38,0,0,0-.812-0.053H87.874v4.9h-1.46Zm1.46-6.163h3.138a4.7,4.7,0,0,0,1.565-.207,1.665,1.665,0,0,0,.858-0.662,1.792,1.792,0,0,0,.293-0.989,1.643,1.643,0,0,0-.568-1.287,2.659,2.659,0,0,0-1.794-.5H87.874v3.649Z" transform="translate(-3.784 -3.261)"/><path class="cls-5" d="M97.024,99.835l1.377-.121a3.036,3.036,0,0,0,.455,1.358,2.487,2.487,0,0,0,1.11.858,4.21,4.21,0,0,0,1.693.327,4.059,4.059,0,0,0,1.475-.249,2.043,2.043,0,0,0,.952-0.681,1.581,1.581,0,0,0,.313-0.944,1.435,1.435,0,0,0-.3-0.907,2.232,2.232,0,0,0-.993-0.651,19.55,19.55,0,0,0-1.964-.538A10.021,10.021,0,0,1,99.01,97.6a2.986,2.986,0,0,1-1.178-1.027,2.519,2.519,0,0,1-.387-1.374,2.8,2.8,0,0,1,.474-1.561,2.934,2.934,0,0,1,1.384-1.1,5.258,5.258,0,0,1,2.024-.376,5.525,5.525,0,0,1,2.164.4,3.12,3.12,0,0,1,1.441,1.163,3.336,3.336,0,0,1,.542,1.738l-1.4.105a2.259,2.259,0,0,0-.764-1.58,2.974,2.974,0,0,0-1.922-.534,3.084,3.084,0,0,0-1.93.485,1.455,1.455,0,0,0-.606,1.17,1.253,1.253,0,0,0,.429.978,5.809,5.809,0,0,0,2.2.787,14.581,14.581,0,0,1,2.442.7,3.35,3.35,0,0,1,1.422,1.125,2.74,2.74,0,0,1,.459,1.569,3,3,0,0,1-.5,1.659,3.322,3.322,0,0,1-1.449,1.211,5.043,5.043,0,0,1-2.125.433,6.343,6.343,0,0,1-2.509-.437,3.512,3.512,0,0,1-1.588-1.313A3.72,3.72,0,0,1,97.024,99.835Z" transform="translate(-3.784 -3.261)"/><path class="cls-5" d="M762.47,99.841l1.46,0.369a4.918,4.918,0,0,1-1.652,2.743,4.547,4.547,0,0,1-2.915.944,5.239,5.239,0,0,1-2.9-.726,4.536,4.536,0,0,1-1.7-2.1,7.506,7.506,0,0,1-.583-2.957,6.5,6.5,0,0,1,.658-3.006,4.515,4.515,0,0,1,1.874-1.949,5.472,5.472,0,0,1,2.675-.666,4.522,4.522,0,0,1,2.784.843,4.376,4.376,0,0,1,1.572,2.37l-1.437.338a3.411,3.411,0,0,0-1.113-1.753,2.967,2.967,0,0,0-1.836-.549,3.568,3.568,0,0,0-2.126.609,3.221,3.221,0,0,0-1.2,1.637,6.6,6.6,0,0,0-.346,2.118,6.729,6.729,0,0,0,.41,2.457,3.054,3.054,0,0,0,1.275,1.569,3.573,3.573,0,0,0,1.873.519,3.142,3.142,0,0,0,2.077-.707A3.626,3.626,0,0,0,762.47,99.841Z" transform="translate(-3.784 -3.261)"/><path class="cls-5" d="M765.555,103.709V92.678h1.354v3.958a3.025,3.025,0,0,1,2.393-1.1,3.233,3.233,0,0,1,1.543.35,2.056,2.056,0,0,1,.937.967,4.452,4.452,0,0,1,.282,1.791v5.064h-1.354V98.645a2.09,2.09,0,0,0-.44-1.479,1.635,1.635,0,0,0-1.245-.463,2.2,2.2,0,0,0-1.132.313,1.76,1.76,0,0,0-.757.846,3.893,3.893,0,0,0-.226,1.475v4.372h-1.354Z" transform="translate(-3.784 -3.261)"/><path class="cls-5" d="M779.34,102.723a5.034,5.034,0,0,1-1.448.9,4.189,4.189,0,0,1-1.494.264,2.9,2.9,0,0,1-2.024-.644,2.125,2.125,0,0,1-.707-1.644,2.181,2.181,0,0,1,.268-1.072,2.214,2.214,0,0,1,.7-0.779,3.312,3.312,0,0,1,.975-0.444,9.688,9.688,0,0,1,1.2-.2,12.364,12.364,0,0,0,2.415-.466c0-.186.008-0.3,0.008-0.354a1.494,1.494,0,0,0-.384-1.166,2.267,2.267,0,0,0-1.543-.459,2.389,2.389,0,0,0-1.41.335,2.045,2.045,0,0,0-.674,1.185L773.9,98a3.276,3.276,0,0,1,.595-1.374,2.606,2.606,0,0,1,1.2-.8,5.326,5.326,0,0,1,1.813-.282,4.8,4.8,0,0,1,1.663.241,2.2,2.2,0,0,1,.94.605,2.136,2.136,0,0,1,.421.922,7.664,7.664,0,0,1,.067,1.249v1.806a19.147,19.147,0,0,0,.087,2.389,3,3,0,0,0,.343.959H779.61A2.864,2.864,0,0,1,779.34,102.723ZM779.226,99.7a9.9,9.9,0,0,1-2.212.512,5.146,5.146,0,0,0-1.182.271,1.178,1.178,0,0,0-.534.44,1.2,1.2,0,0,0,.222,1.546,1.766,1.766,0,0,0,1.2.361,2.8,2.8,0,0,0,1.393-.342,2.111,2.111,0,0,0,.9-0.937,3.27,3.27,0,0,0,.218-1.354V99.7Z" transform="translate(-3.784 -3.261)"/><path class="cls-5" d="M782.681,103.709V95.718H783.9V96.93a3.3,3.3,0,0,1,.861-1.121,1.506,1.506,0,0,1,.869-0.271,2.645,2.645,0,0,1,1.393.437l-0.467,1.256a1.936,1.936,0,0,0-.993-0.293,1.292,1.292,0,0,0-.8.267,1.452,1.452,0,0,0-.5.741,5.278,5.278,0,0,0-.226,1.58v4.184h-1.354Z" transform="translate(-3.784 -3.261)"/><path class="cls-5" d="M787.834,94.236V92.678h1.354v1.558h-1.354Zm0,9.473V95.718h1.354v7.991h-1.354Z" transform="translate(-3.784 -3.261)"/><path class="cls-5" d="M794.207,102.5l0.2,1.2a5.046,5.046,0,0,1-1.023.121,2.316,2.316,0,0,1-1.144-.233,1.3,1.3,0,0,1-.572-0.613,4.846,4.846,0,0,1-.166-1.6v-4.6H790.5V95.718H791.5V93.739l1.348-.813v2.792h1.361v1.053h-1.361v4.673a2.354,2.354,0,0,0,.071.745,0.564,0.564,0,0,0,.233.264,0.9,0.9,0,0,0,.463.1A4.385,4.385,0,0,0,794.207,102.5Z" transform="translate(-3.784 -3.261)"/><path class="cls-5" d="M795.472,106.786l-0.151-1.272a3.008,3.008,0,0,0,.775.121,1.492,1.492,0,0,0,.723-0.15,1.229,1.229,0,0,0,.443-0.421,6.564,6.564,0,0,0,.414-1.008q0.038-.113.12-0.331l-3.032-8.006h1.46l1.663,4.627q0.324,0.88.579,1.851a18.163,18.163,0,0,1,.557-1.821l1.708-4.657h1.354l-3.04,8.126a15.963,15.963,0,0,1-.76,1.813,2.673,2.673,0,0,1-.827.982,1.959,1.959,0,0,1-1.114.313A2.705,2.705,0,0,1,795.472,106.786Z" transform="translate(-3.784 -3.261)"/><line class="cls-8" x1="615.891" y1="96.024" x2="687.159" y2="96.024"/><polygon points="162.878 96.714 179.829 113.445 179.829 79.984 162.878 96.714"/><line class="cls-8" x1="248.374" y1="96.714" x2="177.105" y2="96.714"/><polygon points="472.798 83.696 455.847 66.965 455.847 100.426 472.798 83.696"/><line class="cls-8" x1="387.303" y1="83.696" x2="458.572" y2="83.696"/><polygon points="391.706 111.654 408.657 128.385 408.657 94.923 391.706 111.654"/><line class="cls-8" x1="477.201" y1="111.654" x2="405.933" y2="111.654"/><rect class="cls-9" x="197.452" y="127.561" width="30.575" height="30.575"/><rect class="cls-9" x="407.65" y="23.805" width="30.575" height="30.575"/><rect class="cls-9" x="426.279" y="142.849" width="30.575" height="30.575"/><rect class="cls-9" x="636.238" y="35.935" width="30.575" height="30.575"/><path class="cls-5" d="M220.034,148.5v1.964h-7.412a5.1,5.1,0,0,1,.722-2.111,14.047,14.047,0,0,1,2.378-2.645,14.863,14.863,0,0,0,1.753-1.806,2.324,2.324,0,0,0,.437-1.294,1.471,1.471,0,0,0-.38-1.087,1.615,1.615,0,0,0-2.1.019,2.047,2.047,0,0,0-.452,1.324l-2.107-.211a3.455,3.455,0,0,1,1.182-2.505,3.965,3.965,0,0,1,2.483-.76,3.589,3.589,0,0,1,2.566.88,2.888,2.888,0,0,1,.933,2.19,3.82,3.82,0,0,1-.267,1.418,5.78,5.78,0,0,1-.847,1.411,13.578,13.578,0,0,1-1.384,1.407q-1,.918-1.268,1.219a3.65,3.65,0,0,0-.433.587h4.2Z" transform="translate(-3.784 -3.261)"/><path class="cls-5" d="M212.239,152.907v-1.618h8.57v1.618h-8.57Z" transform="translate(-3.784 -3.261)"/><path class="cls-5" d="M428.5,47.025h-2.114V39.057a7.292,7.292,0,0,1-2.731,1.6V38.741a6.111,6.111,0,0,0,1.8-1.027,3.9,3.9,0,0,0,1.332-1.765H428.5V47.025Z" transform="translate(-3.784 -3.261)"/><path class="cls-5" d="M422.436,49.467V47.849h8.57v1.618h-8.57Z" transform="translate(-3.784 -3.261)"/><path class="cls-5" d="M441.646,162.1l2.046-.249a1.934,1.934,0,0,0,.527,1.2,1.489,1.489,0,0,0,2.141-.083,1.926,1.926,0,0,0,.448-1.339,1.8,1.8,0,0,0-.429-1.264,1.367,1.367,0,0,0-1.046-.467,3.682,3.682,0,0,0-.97.158l0.233-1.723a1.853,1.853,0,0,0,1.31-.373,1.326,1.326,0,0,0,.451-1.049,1.14,1.14,0,0,0-1.211-1.219,1.274,1.274,0,0,0-.925.376,1.767,1.767,0,0,0-.467,1.1l-1.949-.331a4.36,4.36,0,0,1,.613-1.6,2.767,2.767,0,0,1,1.144-.94,3.838,3.838,0,0,1,1.644-.343,3.281,3.281,0,0,1,2.5.994,2.515,2.515,0,0,1-.813,4.153,2.565,2.565,0,0,1,1.516.911,2.64,2.64,0,0,1,.568,1.708,3.312,3.312,0,0,1-1.061,2.475,3.962,3.962,0,0,1-5.124.162A3.384,3.384,0,0,1,441.646,162.1Z" transform="translate(-3.784 -3.261)"/><path class="cls-5" d="M441.066,167.464v-1.618h8.57v1.618h-8.57Z" transform="translate(-3.784 -3.261)"/><path class="cls-5" d="M655.826,59.429v-2.22h-4.515V55.358l4.785-7.005h1.776v7h1.369v1.858h-1.369v2.22h-2.047Zm0-4.078V51.58l-2.536,3.77h2.536Z" transform="translate(-3.784 -3.261)"/><path class="cls-5" d="M651.025,61.87V60.252h8.57V61.87h-8.57Z" transform="translate(-3.784 -3.261)"/></svg>