<svg xmlns="http://www.w3.org/2000/svg" width="300" height="203" viewBox="0 0 300 203">
  <defs>
    <style>
      .cls-1, .cls-2 {
        fill: #8b8b8b;
        fill-rule: evenodd;
      }

      .cls-1 {
        stroke: #000;
        stroke-linejoin: round;
        stroke-width: 1px;
      }

      .cls-3 {
        font-size: 75px;
        fill: #013377;
        font-family: "Source Sans Pro";
        font-weight: 700;
      }
    </style>
  </defs>
  <path class="cls-1" d="M162.375,43.554L164,35.294l-2.75-10.263-7.125-2.878-7.25,4.255L145,34.543l1,7.76,2.875,3.379-1.625,3.755-7.875,4.506L132.5,60.95,129,72.339l-2,9.512-0.875,4.255-2.75,4.506-3.25,10.262-1.375,7.259-2.875,8.01,1,3.254,4.375,4.881,3.5-1.377,2-3.754-0.625-3.755L129,103.628l4.625-13.267,6.5-3.629,3.5-8.385L142.5,87.483l-0.625,6.383,3.625,2.378-1.375,7.51-0.875,12.891L146,129.66l1.125,5.882-0.875,14.017,0.125,15.77,1.375,14.517,1.625,3.254-1.625,7.385-3.375,3L143,198.369l4.375,2.5,7.5-.5,6.75-4.255,2.5-7.134L166,184.1l0.875-10.388-4-7.134-0.625-13.642-1-14.768,1.625-11.514,0.375,11.389,2.5,6.883-1,9.137L164,161.949l0.625,5.257,1.875,3.755,1.125,7.133-0.75,7.76,6-1.126,0.875-3.38,0.875-5.006-1.875-1.627,4.75-4.255-0.25-7.76,3.625-14.893-0.75-13.642,5-17.9-5-16.77,3.125-4.881,1-10.638-2.5-8.51,3.875,4,3.625,7.885,3.625,6.633,2.625,8.385,0.875,7.885L199,115.017l3.75-.626,5-3.88-3.25-6.758-2.25-6.133-5.125-14.893-4-7.885,1.875-2-7.125-16.02-9.625-8.886-11.125-1.5-3.375-.25Z"/>
  <path class="cls-2" d="M160.5,186.73l12-1.377-2.875-8.26L168,167.456l-1.875-3.629h-5.25Z"/>
  <text id="Spouse:_1_3_or_1_2" data-name="Spouse: 1/3 or 1/2" class="cls-3" transform="translate(61.371 10.167) scale(0.125 0.125)">Spouse: 1/3 or 1/2</text>
  <text id="Children:_1_2_or_1_3" data-name="Children: 1/2 or 1/3" class="cls-3" transform="translate(207.253 78.71) scale(0.125 0.125)">Children: 1/2 or 1/3</text>
</svg>
