<svg id="Layer_1" data-name="Layer 1" xmlns="http://www.w3.org/2000/svg" viewBox="0 0 322.99 170.225"><defs><style>.cls-1,.cls-10,.cls-4,.cls-7{fill:none;}.cls-1,.cls-2{stroke:#89c64d;}.cls-2{fill:#89c64d;}.cls-10,.cls-2{stroke-miterlimit:10;}.cls-3{fill:#231f20;}.cls-4,.cls-6{stroke:#25408f;}.cls-5,.cls-6{fill:#25408f;}.cls-7{stroke:#b12229;}.cls-8{fill:#b12229;}.cls-9{fill:#d2232a;stroke:#d2232a;}.cls-10{stroke:#231f20;}</style></defs><title>Minimizing_Estate_Taxes</title><rect class="cls-1" x="29.62" y="20.993" width="263.745" height="31.609"/><rect class="cls-2" x="29.62" y="12.471" width="263.745" height="8.522"/><path class="cls-3" d="M56.184,44.62l3.833-9.982H61.44l4.085,9.982h-1.5L62.857,41.6H58.683l-1.1,3.023h-1.4Zm2.88-4.1h3.384l-1.042-2.765q-0.477-1.26-.708-2.07a12.705,12.705,0,0,1-.538,1.906Z" transform="translate(-6.413 -3.948)"/><path class="cls-3" d="M66.425,47.391v-10h1.117v0.94a2.752,2.752,0,0,1,.892-0.828,2.455,2.455,0,0,1,1.206-.276,2.858,2.858,0,0,1,1.634.477,2.925,2.925,0,0,1,1.069,1.345,4.906,4.906,0,0,1,.361,1.9,4.832,4.832,0,0,1-.4,2,3.028,3.028,0,0,1-2.754,1.835,2.31,2.31,0,0,1-1.1-.259,2.5,2.5,0,0,1-.8-0.654v3.521H66.425Zm1.11-6.346a3.144,3.144,0,0,0,.565,2.063,1.734,1.734,0,0,0,1.369.667,1.772,1.772,0,0,0,1.4-.691,3.277,3.277,0,0,0,.582-2.141,3.2,3.2,0,0,0-.568-2.07,1.712,1.712,0,0,0-1.358-.687,1.766,1.766,0,0,0-1.386.732A3.274,3.274,0,0,0,67.535,41.045Z" transform="translate(-6.413 -3.948)"/><path class="cls-3" d="M74.181,47.391v-10H75.3v0.94a2.752,2.752,0,0,1,.892-0.828,2.455,2.455,0,0,1,1.206-.276,2.858,2.858,0,0,1,1.634.477A2.925,2.925,0,0,1,80.1,39.046a4.906,4.906,0,0,1,.361,1.9,4.832,4.832,0,0,1-.4,2,3.028,3.028,0,0,1-2.754,1.835,2.31,2.31,0,0,1-1.1-.259,2.5,2.5,0,0,1-.8-0.654v3.521H74.181Zm1.11-6.346a3.144,3.144,0,0,0,.565,2.063,1.734,1.734,0,0,0,1.369.667,1.772,1.772,0,0,0,1.4-.691,3.277,3.277,0,0,0,.582-2.141,3.2,3.2,0,0,0-.568-2.07,1.712,1.712,0,0,0-1.358-.687,1.766,1.766,0,0,0-1.386.732A3.274,3.274,0,0,0,75.291,41.045Z" transform="translate(-6.413 -3.948)"/><path class="cls-3" d="M81.909,44.62V34.637h1.226V44.62H81.909Z" transform="translate(-6.413 -3.948)"/><path class="cls-3" d="M85.042,36.047v-1.41h1.226v1.41H85.042Zm0,8.573V37.388h1.226V44.62H85.042Z" transform="translate(-6.413 -3.948)"/><path class="cls-3" d="M92.852,41.971l1.205,0.157a3.126,3.126,0,0,1-1.011,1.951,2.944,2.944,0,0,1-2,.705,3.1,3.1,0,0,1-2.387-.971,3.935,3.935,0,0,1-.9-2.781,5.035,5.035,0,0,1,.388-2.05,2.7,2.7,0,0,1,1.181-1.317,3.5,3.5,0,0,1,1.726-.439,3,3,0,0,1,1.927.6,2.732,2.732,0,0,1,.96,1.692L92.75,39.7a1.98,1.98,0,0,0-.6-1.1,1.559,1.559,0,0,0-1.045-.368,1.9,1.9,0,0,0-1.5.664,3.152,3.152,0,0,0-.579,2.1,3.259,3.259,0,0,0,.558,2.118,1.816,1.816,0,0,0,1.457.661,1.717,1.717,0,0,0,1.206-.443A2.2,2.2,0,0,0,92.852,41.971Z" transform="translate(-6.413 -3.948)"/><path class="cls-3" d="M99.824,43.728a4.577,4.577,0,0,1-1.311.817,3.792,3.792,0,0,1-1.352.238A2.629,2.629,0,0,1,95.33,44.2a1.921,1.921,0,0,1-.64-1.488,2.015,2.015,0,0,1,.875-1.675,2.967,2.967,0,0,1,.882-0.4,8.774,8.774,0,0,1,1.089-.184,11.174,11.174,0,0,0,2.186-.422q0.007-.252.006-0.32a1.353,1.353,0,0,0-.347-1.055,2.051,2.051,0,0,0-1.4-.416,2.162,2.162,0,0,0-1.276.3,1.849,1.849,0,0,0-.609,1.072l-1.2-.163a2.974,2.974,0,0,1,.538-1.243,2.358,2.358,0,0,1,1.083-.729,4.837,4.837,0,0,1,1.641-.255,4.337,4.337,0,0,1,1.5.218,1.981,1.981,0,0,1,.851.548,1.93,1.93,0,0,1,.381.834,6.868,6.868,0,0,1,.062,1.13v1.634a17.351,17.351,0,0,0,.078,2.162,2.73,2.73,0,0,0,.31.868h-1.28A2.59,2.59,0,0,1,99.824,43.728Zm-0.1-2.737a8.99,8.99,0,0,1-2,.463,4.667,4.667,0,0,0-1.069.245,1.067,1.067,0,0,0-.483.4,1.083,1.083,0,0,0,.2,1.4,1.6,1.6,0,0,0,1.086.327,2.528,2.528,0,0,0,1.26-.31,1.908,1.908,0,0,0,.81-0.848,2.957,2.957,0,0,0,.2-1.226V40.99Z" transform="translate(-6.413 -3.948)"/><path class="cls-3" d="M105.537,43.523l0.177,1.083a4.54,4.54,0,0,1-.926.109,2.1,2.1,0,0,1-1.035-.211,1.179,1.179,0,0,1-.517-0.555,4.379,4.379,0,0,1-.15-1.447V38.341h-0.9V37.388h0.9V35.6l1.219-.735v2.526h1.232v0.953H104.3V42.57a2.123,2.123,0,0,0,.065.674,0.508,0.508,0,0,0,.211.238,0.815,0.815,0,0,0,.418.088A3.983,3.983,0,0,0,105.537,43.523Z" transform="translate(-6.413 -3.948)"/><path class="cls-3" d="M106.743,36.047v-1.41h1.226v1.41h-1.226Zm0,8.573V37.388h1.226V44.62h-1.226Z" transform="translate(-6.413 -3.948)"/><path class="cls-3" d="M109.377,41a3.727,3.727,0,0,1,1.117-2.976,3.365,3.365,0,0,1,2.274-.8,3.244,3.244,0,0,1,2.438.978,3.716,3.716,0,0,1,.947,2.7,4.781,4.781,0,0,1-.419,2.2,2.963,2.963,0,0,1-1.219,1.243,3.552,3.552,0,0,1-1.747.443,3.251,3.251,0,0,1-2.455-.974A3.889,3.889,0,0,1,109.377,41Zm1.26,0a3.08,3.08,0,0,0,.606,2.08,2.018,2.018,0,0,0,3.044,0,3.153,3.153,0,0,0,.606-2.118,2.987,2.987,0,0,0-.609-2.032,2.02,2.02,0,0,0-3.041,0A3.067,3.067,0,0,0,110.637,41Z" transform="translate(-6.413 -3.948)"/><path class="cls-3" d="M117.589,44.62V37.388h1.1v1.028a2.6,2.6,0,0,1,2.3-1.192,3.027,3.027,0,0,1,1.2.235,1.892,1.892,0,0,1,.82.617,2.362,2.362,0,0,1,.381.905,7.028,7.028,0,0,1,.068,1.192V44.62H122.24v-4.4a3.294,3.294,0,0,0-.143-1.12,1.177,1.177,0,0,0-.507-0.592,1.613,1.613,0,0,0-.854-0.221,1.985,1.985,0,0,0-1.352.5,2.453,2.453,0,0,0-.568,1.886V44.62h-1.226Z" transform="translate(-6.413 -3.948)"/><path class="cls-3" d="M136.5,41.12l1.321,0.333a4.448,4.448,0,0,1-1.495,2.482,4.119,4.119,0,0,1-2.639.855,4.741,4.741,0,0,1-2.625-.657,4.1,4.1,0,0,1-1.539-1.9,6.794,6.794,0,0,1-.528-2.676,5.879,5.879,0,0,1,.6-2.72,4.08,4.08,0,0,1,1.7-1.764,4.952,4.952,0,0,1,2.421-.6,4.091,4.091,0,0,1,2.519.762,3.963,3.963,0,0,1,1.423,2.145l-1.3.307a3.085,3.085,0,0,0-1.008-1.587,2.686,2.686,0,0,0-1.661-.5,3.228,3.228,0,0,0-1.924.552,2.911,2.911,0,0,0-1.086,1.481,5.959,5.959,0,0,0-.313,1.917,6.088,6.088,0,0,0,.372,2.223,2.761,2.761,0,0,0,1.154,1.419,3.236,3.236,0,0,0,1.7.47,2.842,2.842,0,0,0,1.879-.64A3.278,3.278,0,0,0,136.5,41.12Z" transform="translate(-6.413 -3.948)"/><path class="cls-3" d="M139.277,44.62V37.388h1.1v1.1a2.994,2.994,0,0,1,.78-1.015,1.363,1.363,0,0,1,.786-0.245,2.392,2.392,0,0,1,1.26.4l-0.422,1.137a1.758,1.758,0,0,0-.9-0.266,1.166,1.166,0,0,0-.722.242,1.307,1.307,0,0,0-.457.671,4.772,4.772,0,0,0-.2,1.43V44.62h-1.226Z" transform="translate(-6.413 -3.948)"/><path class="cls-3" d="M148.885,42.291l1.267,0.156a3.094,3.094,0,0,1-1.11,1.723,3.761,3.761,0,0,1-4.586-.364,3.818,3.818,0,0,1-.929-2.741,4,4,0,0,1,.939-2.833,3.181,3.181,0,0,1,2.438-1.008,3.093,3.093,0,0,1,2.37.987,3.924,3.924,0,0,1,.919,2.778c0,0.073,0,.182-0.007.327h-5.393a2.78,2.78,0,0,0,.674,1.825,2.008,2.008,0,0,0,1.512.633,1.877,1.877,0,0,0,1.151-.354A2.35,2.35,0,0,0,148.885,42.291ZM144.86,40.31H148.9a2.45,2.45,0,0,0-.463-1.369,1.878,1.878,0,0,0-1.518-.708,1.947,1.947,0,0,0-1.42.565A2.236,2.236,0,0,0,144.86,40.31Z" transform="translate(-6.413 -3.948)"/><path class="cls-3" d="M156.381,44.62V43.707a2.25,2.25,0,0,1-2.022,1.076,2.838,2.838,0,0,1-1.59-.477,3.136,3.136,0,0,1-1.124-1.332,4.6,4.6,0,0,1-.4-1.964,5.139,5.139,0,0,1,.361-1.964,2.845,2.845,0,0,1,1.083-1.352,2.892,2.892,0,0,1,1.614-.47,2.413,2.413,0,0,1,2,.994V34.637h1.219V44.62h-1.137Zm-3.875-3.609a3.141,3.141,0,0,0,.585,2.077,1.767,1.767,0,0,0,1.382.688,1.734,1.734,0,0,0,1.365-.657,3.029,3.029,0,0,0,.562-2.005,3.4,3.4,0,0,0-.572-2.179,1.758,1.758,0,0,0-1.409-.695,1.7,1.7,0,0,0-1.365.667A3.291,3.291,0,0,0,152.507,41.011Z" transform="translate(-6.413 -3.948)"/><path class="cls-3" d="M159.453,36.047v-1.41h1.226v1.41h-1.226Zm0,8.573V37.388h1.226V44.62h-1.226Z" transform="translate(-6.413 -3.948)"/><path class="cls-3" d="M165.22,43.523l0.177,1.083a4.54,4.54,0,0,1-.926.109,2.1,2.1,0,0,1-1.035-.211,1.179,1.179,0,0,1-.517-0.555,4.379,4.379,0,0,1-.15-1.447V38.341h-0.9V37.388h0.9V35.6l1.219-.735v2.526h1.232v0.953h-1.232V42.57a2.123,2.123,0,0,0,.065.674,0.508,0.508,0,0,0,.211.238,0.815,0.815,0,0,0,.418.088A3.983,3.983,0,0,0,165.22,43.523Z" transform="translate(-6.413 -3.948)"/><path class="cls-3" d="M165.5,44.79l2.894-10.323h0.98L166.486,44.79H165.5Z" transform="translate(-6.413 -3.948)"/><path class="cls-3" d="M170.477,44.62V34.637h7.218v1.178h-5.9v3.057h5.522v1.171H171.8v3.4h6.128V44.62h-7.449Z" transform="translate(-6.413 -3.948)"/><path class="cls-3" d="M178.777,44.62l2.642-3.759-2.444-3.473h1.532l1.11,1.7q0.313,0.484.5,0.811,0.3-.45.552-0.8l1.219-1.709h1.464l-2.5,3.4,2.69,3.827h-1.5l-1.484-2.247-0.4-.606-1.9,2.853h-1.484Z" transform="translate(-6.413 -3.948)"/><path class="cls-3" d="M191.286,41.971l1.205,0.157a3.126,3.126,0,0,1-1.011,1.951,2.944,2.944,0,0,1-2,.705,3.1,3.1,0,0,1-2.387-.971,3.935,3.935,0,0,1-.9-2.781,5.035,5.035,0,0,1,.388-2.05,2.7,2.7,0,0,1,1.181-1.317,3.5,3.5,0,0,1,1.726-.439,3,3,0,0,1,1.927.6,2.732,2.732,0,0,1,.96,1.692l-1.191.184a1.98,1.98,0,0,0-.6-1.1,1.559,1.559,0,0,0-1.045-.368,1.9,1.9,0,0,0-1.5.664,3.152,3.152,0,0,0-.579,2.1,3.259,3.259,0,0,0,.558,2.118,1.816,1.816,0,0,0,1.457.661,1.717,1.717,0,0,0,1.206-.443A2.2,2.2,0,0,0,191.286,41.971Z" transform="translate(-6.413 -3.948)"/><path class="cls-3" d="M193.512,44.62V34.637h1.226V44.62h-1.226Z" transform="translate(-6.413 -3.948)"/><path class="cls-3" d="M201.377,44.62V43.558a2.648,2.648,0,0,1-2.295,1.226,2.927,2.927,0,0,1-1.195-.245,1.972,1.972,0,0,1-.824-0.616,2.316,2.316,0,0,1-.378-0.909,6.242,6.242,0,0,1-.075-1.144v-4.48h1.226V41.4a7.159,7.159,0,0,0,.075,1.293,1.277,1.277,0,0,0,.49.759,1.519,1.519,0,0,0,.926.276,2.018,2.018,0,0,0,1.035-.283,1.569,1.569,0,0,0,.684-0.769,3.865,3.865,0,0,0,.2-1.413V37.388h1.226V44.62h-1.1Z" transform="translate(-6.413 -3.948)"/><path class="cls-3" d="M203.9,42.461l1.212-.19a1.692,1.692,0,0,0,.568,1.117,1.982,1.982,0,0,0,1.3.388,1.918,1.918,0,0,0,1.253-.344,1.029,1.029,0,0,0,.408-0.807,0.745,0.745,0,0,0-.361-0.654,5.322,5.322,0,0,0-1.253-.415,11.425,11.425,0,0,1-1.869-.589,1.784,1.784,0,0,1-1.059-1.658,1.863,1.863,0,0,1,.221-0.9,1.985,1.985,0,0,1,.6-0.685,2.534,2.534,0,0,1,.78-0.357,3.706,3.706,0,0,1,1.059-.146,4.194,4.194,0,0,1,1.495.245,2.033,2.033,0,0,1,.95.664,2.6,2.6,0,0,1,.422,1.12l-1.2.164a1.311,1.311,0,0,0-.473-0.872,1.73,1.73,0,0,0-1.106-.313,2,2,0,0,0-1.205.279,0.813,0.813,0,0,0-.361.654,0.678,0.678,0,0,0,.15.429,1.082,1.082,0,0,0,.47.327q0.184,0.068,1.083.313a15.076,15.076,0,0,1,1.814.569,1.842,1.842,0,0,1,.807.643,1.8,1.8,0,0,1,.292,1.049,2.058,2.058,0,0,1-.357,1.154,2.308,2.308,0,0,1-1.032.837,3.756,3.756,0,0,1-1.525.3,3.4,3.4,0,0,1-2.148-.586A2.719,2.719,0,0,1,203.9,42.461Z" transform="translate(-6.413 -3.948)"/><path class="cls-3" d="M211.373,36.047v-1.41H212.6v1.41h-1.226Zm0,8.573V37.388H212.6V44.62h-1.226Z" transform="translate(-6.413 -3.948)"/><path class="cls-3" d="M214.008,41a3.727,3.727,0,0,1,1.117-2.976,3.365,3.365,0,0,1,2.274-.8,3.244,3.244,0,0,1,2.438.978,3.716,3.716,0,0,1,.947,2.7,4.781,4.781,0,0,1-.419,2.2,2.963,2.963,0,0,1-1.219,1.243,3.552,3.552,0,0,1-1.747.443,3.251,3.251,0,0,1-2.455-.974A3.889,3.889,0,0,1,214.008,41Zm1.26,0a3.08,3.08,0,0,0,.606,2.08,2.018,2.018,0,0,0,3.044,0,3.153,3.153,0,0,0,.606-2.118,2.987,2.987,0,0,0-.609-2.032,2.02,2.02,0,0,0-3.041,0A3.067,3.067,0,0,0,215.268,41Z" transform="translate(-6.413 -3.948)"/><path class="cls-3" d="M222.22,44.62V37.388h1.1v1.028a2.6,2.6,0,0,1,2.3-1.192,3.027,3.027,0,0,1,1.2.235,1.892,1.892,0,0,1,.82.617,2.362,2.362,0,0,1,.381.905,7.028,7.028,0,0,1,.068,1.192V44.62h-1.226v-4.4a3.294,3.294,0,0,0-.143-1.12,1.177,1.177,0,0,0-.507-0.592,1.613,1.613,0,0,0-.854-0.221,1.985,1.985,0,0,0-1.352.5,2.453,2.453,0,0,0-.568,1.886V44.62H222.22Z" transform="translate(-6.413 -3.948)"/><path class="cls-3" d="M232.911,44.62l3.833-9.982h1.423l4.085,9.982h-1.5L239.584,41.6H235.41l-1.1,3.023h-1.4Zm2.88-4.1h3.384l-1.042-2.765q-0.477-1.26-.708-2.07a12.705,12.705,0,0,1-.538,1.906Z" transform="translate(-6.413 -3.948)"/><path class="cls-3" d="M243.152,44.62V37.388h1.1V38.4a2.575,2.575,0,0,1,.906-0.854,2.541,2.541,0,0,1,1.287-.324,2.378,2.378,0,0,1,1.318.334,1.786,1.786,0,0,1,.725.933,2.6,2.6,0,0,1,2.233-1.267,2.2,2.2,0,0,1,1.655.6,2.546,2.546,0,0,1,.579,1.835V44.62h-1.219V40.064a3.367,3.367,0,0,0-.119-1.059,1.028,1.028,0,0,0-.433-0.521,1.353,1.353,0,0,0-.735-0.2,1.711,1.711,0,0,0-1.267.507,2.234,2.234,0,0,0-.5,1.624v4.2h-1.226v-4.7a2.066,2.066,0,0,0-.3-1.226,1.136,1.136,0,0,0-.981-0.409,1.781,1.781,0,0,0-.957.272,1.544,1.544,0,0,0-.637.8,4.481,4.481,0,0,0-.2,1.512V44.62h-1.226Z" transform="translate(-6.413 -3.948)"/><path class="cls-3" d="M254.312,41a3.726,3.726,0,0,1,1.117-2.976,3.364,3.364,0,0,1,2.274-.8,3.244,3.244,0,0,1,2.438.978,3.718,3.718,0,0,1,.946,2.7,4.781,4.781,0,0,1-.419,2.2,2.963,2.963,0,0,1-1.219,1.243,3.548,3.548,0,0,1-1.746.443,3.251,3.251,0,0,1-2.455-.974A3.891,3.891,0,0,1,254.312,41Zm1.26,0a3.077,3.077,0,0,0,.606,2.08,2.016,2.016,0,0,0,3.043,0,3.15,3.15,0,0,0,.606-2.118,2.987,2.987,0,0,0-.609-2.032,2.02,2.02,0,0,0-3.04,0A3.064,3.064,0,0,0,255.571,41Z" transform="translate(-6.413 -3.948)"/><path class="cls-3" d="M267.263,44.62V43.558a2.646,2.646,0,0,1-2.295,1.226,2.93,2.93,0,0,1-1.194-.245,1.975,1.975,0,0,1-.824-0.616,2.3,2.3,0,0,1-.378-0.909,6.232,6.232,0,0,1-.075-1.144v-4.48h1.226V41.4a7.144,7.144,0,0,0,.075,1.293,1.279,1.279,0,0,0,.49.759,1.519,1.519,0,0,0,.927.276,2.015,2.015,0,0,0,1.034-.283,1.57,1.57,0,0,0,.685-0.769,3.865,3.865,0,0,0,.2-1.413V37.388h1.226V44.62h-1.1Z" transform="translate(-6.413 -3.948)"/><path class="cls-3" d="M270.279,44.62V37.388h1.1v1.028a2.6,2.6,0,0,1,2.3-1.192,3.022,3.022,0,0,1,1.2.235,1.9,1.9,0,0,1,.821.617,2.369,2.369,0,0,1,.381.905,7.066,7.066,0,0,1,.068,1.192V44.62h-1.226v-4.4a3.292,3.292,0,0,0-.144-1.12,1.178,1.178,0,0,0-.507-0.592,1.616,1.616,0,0,0-.854-0.221,1.984,1.984,0,0,0-1.352.5,2.449,2.449,0,0,0-.569,1.886V44.62h-1.226Z" transform="translate(-6.413 -3.948)"/><path class="cls-3" d="M280.712,43.523l0.177,1.083a4.54,4.54,0,0,1-.926.109,2.1,2.1,0,0,1-1.035-.211,1.18,1.18,0,0,1-.518-0.555,4.388,4.388,0,0,1-.15-1.447V38.341h-0.9V37.388h0.9V35.6l1.22-.735v2.526h1.232v0.953h-1.232V42.57a2.144,2.144,0,0,0,.064.674,0.508,0.508,0,0,0,.211.238,0.816,0.816,0,0,0,.419.088A4,4,0,0,0,280.712,43.523Z" transform="translate(-6.413 -3.948)"/><rect class="cls-4" x="29.62" y="73.211" width="263.745" height="31.609"/><rect class="cls-5" x="47.439" y="64.689" width="195.234" height="8.522"/><rect class="cls-6" x="29.62" y="64.689" width="263.745" height="8.522"/><path class="cls-3" d="M99.253,96.837V86.854h7.218v1.178h-5.9V91.09H106.1v1.171h-5.522v3.4H106.7v1.178H99.253Z" transform="translate(-6.413 -3.948)"/><path class="cls-3" d="M107.88,94.678l1.212-.19a1.692,1.692,0,0,0,.568,1.117,1.982,1.982,0,0,0,1.3.388,1.918,1.918,0,0,0,1.253-.344,1.029,1.029,0,0,0,.408-0.807,0.745,0.745,0,0,0-.361-0.654,5.322,5.322,0,0,0-1.253-.415,11.425,11.425,0,0,1-1.869-.589,1.784,1.784,0,0,1-1.059-1.658,1.863,1.863,0,0,1,.221-0.9,1.985,1.985,0,0,1,.6-0.685,2.534,2.534,0,0,1,.78-0.357,3.706,3.706,0,0,1,1.059-.146,4.194,4.194,0,0,1,1.495.245,2.033,2.033,0,0,1,.95.664,2.6,2.6,0,0,1,.422,1.12l-1.2.164a1.311,1.311,0,0,0-.473-0.872,1.73,1.73,0,0,0-1.106-.313,2,2,0,0,0-1.205.279,0.813,0.813,0,0,0-.361.654,0.678,0.678,0,0,0,.15.429,1.082,1.082,0,0,0,.47.327q0.184,0.068,1.083.313a15.076,15.076,0,0,1,1.814.569,1.842,1.842,0,0,1,.807.643,1.8,1.8,0,0,1,.292,1.049,2.058,2.058,0,0,1-.357,1.154,2.308,2.308,0,0,1-1.032.837,3.756,3.756,0,0,1-1.525.3,3.4,3.4,0,0,1-2.148-.586A2.719,2.719,0,0,1,107.88,94.678Z" transform="translate(-6.413 -3.948)"/><path class="cls-3" d="M118.019,95.741l0.177,1.083a4.54,4.54,0,0,1-.926.109,2.1,2.1,0,0,1-1.035-.211,1.179,1.179,0,0,1-.517-0.555,4.379,4.379,0,0,1-.15-1.447V90.559h-0.9V89.605h0.9V87.814l1.219-.735v2.526h1.232v0.953h-1.232v4.229a2.123,2.123,0,0,0,.065.674,0.508,0.508,0,0,0,.211.238,0.815,0.815,0,0,0,.418.088A3.983,3.983,0,0,0,118.019,95.741Z" transform="translate(-6.413 -3.948)"/><path class="cls-3" d="M123.937,95.945a4.577,4.577,0,0,1-1.311.817,3.792,3.792,0,0,1-1.352.238,2.629,2.629,0,0,1-1.832-.583,1.921,1.921,0,0,1-.64-1.488,2.015,2.015,0,0,1,.875-1.675,2.967,2.967,0,0,1,.882-0.4,8.774,8.774,0,0,1,1.089-.184,11.174,11.174,0,0,0,2.186-.422q0.007-.252.006-0.32a1.353,1.353,0,0,0-.347-1.055,2.051,2.051,0,0,0-1.4-.416,2.162,2.162,0,0,0-1.276.3,1.849,1.849,0,0,0-.609,1.072l-1.2-.163a2.974,2.974,0,0,1,.538-1.243,2.358,2.358,0,0,1,1.083-.729,4.837,4.837,0,0,1,1.641-.255,4.337,4.337,0,0,1,1.5.218,1.981,1.981,0,0,1,.851.548,1.93,1.93,0,0,1,.381.834,6.868,6.868,0,0,1,.062,1.13v1.634a17.351,17.351,0,0,0,.078,2.162,2.73,2.73,0,0,0,.31.868h-1.28A2.59,2.59,0,0,1,123.937,95.945Zm-0.1-2.737a8.99,8.99,0,0,1-2,.463,4.667,4.667,0,0,0-1.069.245,1.067,1.067,0,0,0-.483.4,1.083,1.083,0,0,0,.2,1.4,1.6,1.6,0,0,0,1.086.327,2.528,2.528,0,0,0,1.26-.31,1.908,1.908,0,0,0,.81-0.848,2.957,2.957,0,0,0,.2-1.226v-0.45Z" transform="translate(-6.413 -3.948)"/><path class="cls-3" d="M129.649,95.741l0.177,1.083a4.54,4.54,0,0,1-.926.109,2.1,2.1,0,0,1-1.035-.211,1.179,1.179,0,0,1-.517-0.555,4.379,4.379,0,0,1-.15-1.447V90.559h-0.9V89.605h0.9V87.814l1.219-.735v2.526h1.232v0.953h-1.232v4.229a2.123,2.123,0,0,0,.065.674,0.508,0.508,0,0,0,.211.238,0.815,0.815,0,0,0,.418.088A3.983,3.983,0,0,0,129.649,95.741Z" transform="translate(-6.413 -3.948)"/><path class="cls-3" d="M135.8,94.508l1.267,0.156a3.094,3.094,0,0,1-1.11,1.723,3.761,3.761,0,0,1-4.586-.364,3.818,3.818,0,0,1-.929-2.741,4,4,0,0,1,.939-2.833,3.181,3.181,0,0,1,2.438-1.008,3.093,3.093,0,0,1,2.37.987,3.924,3.924,0,0,1,.919,2.778c0,0.073,0,.182-0.007.327h-5.393a2.78,2.78,0,0,0,.674,1.825,2.008,2.008,0,0,0,1.512.633,1.877,1.877,0,0,0,1.151-.354A2.35,2.35,0,0,0,135.8,94.508Zm-4.024-1.981h4.038a2.45,2.45,0,0,0-.463-1.369,1.878,1.878,0,0,0-1.518-.708,1.947,1.947,0,0,0-1.42.565A2.236,2.236,0,0,0,131.774,92.527Z" transform="translate(-6.413 -3.948)"/><path class="cls-3" d="M145.174,96.837v-8.8h-3.289V86.854H149.8v1.178h-3.3v8.8h-1.321Z" transform="translate(-6.413 -3.948)"/><path class="cls-3" d="M155.715,95.945a4.577,4.577,0,0,1-1.311.817,3.792,3.792,0,0,1-1.352.238,2.629,2.629,0,0,1-1.832-.583,1.921,1.921,0,0,1-.64-1.488,2.015,2.015,0,0,1,.875-1.675,2.967,2.967,0,0,1,.882-0.4,8.774,8.774,0,0,1,1.089-.184,11.174,11.174,0,0,0,2.186-.422q0.007-.252.006-0.32a1.353,1.353,0,0,0-.347-1.055,2.051,2.051,0,0,0-1.4-.416,2.162,2.162,0,0,0-1.276.3,1.849,1.849,0,0,0-.609,1.072l-1.2-.163a2.974,2.974,0,0,1,.538-1.243,2.358,2.358,0,0,1,1.083-.729,4.837,4.837,0,0,1,1.641-.255,4.337,4.337,0,0,1,1.5.218,1.981,1.981,0,0,1,.851.548,1.93,1.93,0,0,1,.381.834,6.868,6.868,0,0,1,.062,1.13v1.634a17.351,17.351,0,0,0,.078,2.162,2.73,2.73,0,0,0,.31.868h-1.28A2.59,2.59,0,0,1,155.715,95.945Zm-0.1-2.737a8.99,8.99,0,0,1-2,.463,4.667,4.667,0,0,0-1.069.245,1.067,1.067,0,0,0-.483.4,1.083,1.083,0,0,0,.2,1.4,1.6,1.6,0,0,0,1.086.327,2.528,2.528,0,0,0,1.26-.31,1.908,1.908,0,0,0,.81-0.848,2.957,2.957,0,0,0,.2-1.226v-0.45Z" transform="translate(-6.413 -3.948)"/><path class="cls-3" d="M157.935,96.837l2.642-3.759-2.444-3.473h1.532l1.11,1.7q0.313,0.484.5,0.811,0.3-.45.552-0.8l1.219-1.709h1.464l-2.5,3.4,2.69,3.827h-1.5l-1.484-2.247-0.4-.606-1.9,2.853h-1.484Z" transform="translate(-6.413 -3.948)"/><path class="cls-3" d="M169.756,96.837V86.854h3.439a8.341,8.341,0,0,1,1.777.143,3.387,3.387,0,0,1,1.464.715,4.064,4.064,0,0,1,1.181,1.706,6.688,6.688,0,0,1,.392,2.373,6.963,6.963,0,0,1-.266,2.015,4.884,4.884,0,0,1-.681,1.454,3.613,3.613,0,0,1-.909.905,3.7,3.7,0,0,1-1.191.5,6.791,6.791,0,0,1-1.6.17h-3.6Zm1.321-1.178h2.131a5.172,5.172,0,0,0,1.549-.184,2.216,2.216,0,0,0,.9-0.518,3.151,3.151,0,0,0,.732-1.263,6.173,6.173,0,0,0,.262-1.923,4.644,4.644,0,0,0-.514-2.407,2.589,2.589,0,0,0-1.25-1.127,5.164,5.164,0,0,0-1.709-.2h-2.1v7.626Z" transform="translate(-6.413 -3.948)"/><path class="cls-3" d="M184.621,94.508l1.267,0.156a3.094,3.094,0,0,1-1.11,1.723,3.761,3.761,0,0,1-4.586-.364,3.818,3.818,0,0,1-.929-2.741,4,4,0,0,1,.939-2.833,3.181,3.181,0,0,1,2.438-1.008,3.093,3.093,0,0,1,2.37.987,3.924,3.924,0,0,1,.919,2.778c0,0.073,0,.182-0.007.327h-5.393a2.78,2.78,0,0,0,.674,1.825,2.008,2.008,0,0,0,1.512.633,1.877,1.877,0,0,0,1.151-.354A2.35,2.35,0,0,0,184.621,94.508ZM180.6,92.527h4.038a2.45,2.45,0,0,0-.463-1.369,1.878,1.878,0,0,0-1.518-.708,1.947,1.947,0,0,0-1.42.565A2.236,2.236,0,0,0,180.6,92.527Z" transform="translate(-6.413 -3.948)"/><path class="cls-3" d="M192.117,96.837V95.924A2.25,2.25,0,0,1,190.095,97a2.838,2.838,0,0,1-1.59-.477,3.136,3.136,0,0,1-1.124-1.332,4.6,4.6,0,0,1-.4-1.964,5.139,5.139,0,0,1,.361-1.964,2.845,2.845,0,0,1,1.083-1.352,2.892,2.892,0,0,1,1.614-.47,2.413,2.413,0,0,1,2,.994V86.854h1.219v9.982h-1.137Zm-3.875-3.609a3.141,3.141,0,0,0,.585,2.077,1.767,1.767,0,0,0,1.382.688,1.734,1.734,0,0,0,1.365-.657,3.029,3.029,0,0,0,.562-2.005,3.4,3.4,0,0,0-.572-2.179,1.758,1.758,0,0,0-1.409-.695,1.7,1.7,0,0,0-1.365.667A3.291,3.291,0,0,0,188.243,93.228Z" transform="translate(-6.413 -3.948)"/><path class="cls-3" d="M199.921,96.837V95.775A2.648,2.648,0,0,1,197.626,97a2.927,2.927,0,0,1-1.195-.245,1.972,1.972,0,0,1-.824-0.616,2.316,2.316,0,0,1-.378-0.909,6.242,6.242,0,0,1-.075-1.144v-4.48h1.226v4.011a7.159,7.159,0,0,0,.075,1.293,1.277,1.277,0,0,0,.49.759,1.519,1.519,0,0,0,.926.276,2.018,2.018,0,0,0,1.035-.283,1.569,1.569,0,0,0,.684-0.769,3.865,3.865,0,0,0,.2-1.413V89.605h1.226v7.231h-1.1Z" transform="translate(-6.413 -3.948)"/><path class="cls-3" d="M207.656,94.188l1.205,0.157A3.126,3.126,0,0,1,207.85,96.3a2.944,2.944,0,0,1-2,.705,3.1,3.1,0,0,1-2.387-.971,3.935,3.935,0,0,1-.9-2.781,5.035,5.035,0,0,1,.388-2.05,2.7,2.7,0,0,1,1.181-1.317,3.5,3.5,0,0,1,1.726-.439,3,3,0,0,1,1.927.6,2.732,2.732,0,0,1,.96,1.692l-1.191.184a1.98,1.98,0,0,0-.6-1.1,1.559,1.559,0,0,0-1.045-.368,1.9,1.9,0,0,0-1.5.664,3.152,3.152,0,0,0-.579,2.1,3.259,3.259,0,0,0,.558,2.118,1.816,1.816,0,0,0,1.457.661,1.717,1.717,0,0,0,1.206-.443A2.2,2.2,0,0,0,207.656,94.188Z" transform="translate(-6.413 -3.948)"/><path class="cls-3" d="M212.586,95.741l0.177,1.083a4.54,4.54,0,0,1-.926.109,2.1,2.1,0,0,1-1.035-.211,1.179,1.179,0,0,1-.517-0.555,4.379,4.379,0,0,1-.15-1.447V90.559h-0.9V89.605h0.9V87.814l1.219-.735v2.526h1.232v0.953h-1.232v4.229a2.123,2.123,0,0,0,.065.674,0.508,0.508,0,0,0,.211.238,0.815,0.815,0,0,0,.418.088A3.983,3.983,0,0,0,212.586,95.741Z" transform="translate(-6.413 -3.948)"/><path class="cls-3" d="M213.792,88.264v-1.41h1.226v1.41h-1.226Zm0,8.573V89.605h1.226v7.231h-1.226Z" transform="translate(-6.413 -3.948)"/><path class="cls-3" d="M216.426,93.221a3.727,3.727,0,0,1,1.117-2.976,3.365,3.365,0,0,1,2.274-.8,3.244,3.244,0,0,1,2.438.978,3.716,3.716,0,0,1,.947,2.7,4.781,4.781,0,0,1-.419,2.2,2.963,2.963,0,0,1-1.219,1.243,3.552,3.552,0,0,1-1.747.443,3.251,3.251,0,0,1-2.455-.974A3.889,3.889,0,0,1,216.426,93.221Zm1.26,0a3.08,3.08,0,0,0,.606,2.08,2.018,2.018,0,0,0,3.044,0,3.153,3.153,0,0,0,.606-2.118,2.987,2.987,0,0,0-.609-2.032,2.02,2.02,0,0,0-3.041,0A3.067,3.067,0,0,0,217.686,93.221Z" transform="translate(-6.413 -3.948)"/><path class="cls-3" d="M224.639,96.837V89.605h1.1v1.028a2.6,2.6,0,0,1,2.3-1.192,3.027,3.027,0,0,1,1.2.235,1.892,1.892,0,0,1,.82.617,2.362,2.362,0,0,1,.381.905,7.028,7.028,0,0,1,.068,1.192v4.446h-1.226v-4.4a3.294,3.294,0,0,0-.143-1.12,1.177,1.177,0,0,0-.507-0.592,1.613,1.613,0,0,0-.854-0.221,1.985,1.985,0,0,0-1.352.5,2.453,2.453,0,0,0-.568,1.886v3.949h-1.226Z" transform="translate(-6.413 -3.948)"/><path class="cls-3" d="M231.9,94.678l1.212-.19a1.692,1.692,0,0,0,.568,1.117,1.982,1.982,0,0,0,1.3.388,1.918,1.918,0,0,0,1.253-.344,1.029,1.029,0,0,0,.408-0.807,0.745,0.745,0,0,0-.361-0.654,5.322,5.322,0,0,0-1.253-.415,11.425,11.425,0,0,1-1.869-.589,1.784,1.784,0,0,1-1.059-1.658,1.863,1.863,0,0,1,.221-0.9,1.985,1.985,0,0,1,.6-0.685,2.534,2.534,0,0,1,.78-0.357,3.706,3.706,0,0,1,1.059-.146,4.194,4.194,0,0,1,1.495.245,2.033,2.033,0,0,1,.95.664,2.6,2.6,0,0,1,.422,1.12l-1.2.164a1.311,1.311,0,0,0-.473-0.872,1.73,1.73,0,0,0-1.106-.313,2,2,0,0,0-1.205.279,0.813,0.813,0,0,0-.361.654,0.678,0.678,0,0,0,.15.429,1.082,1.082,0,0,0,.47.327q0.184,0.068,1.083.313a15.076,15.076,0,0,1,1.814.569,1.842,1.842,0,0,1,.807.643,1.8,1.8,0,0,1,.292,1.049,2.058,2.058,0,0,1-.357,1.154,2.308,2.308,0,0,1-1.032.837A3.756,3.756,0,0,1,235,97a3.4,3.4,0,0,1-2.148-.586A2.719,2.719,0,0,1,231.9,94.678Z" transform="translate(-6.413 -3.948)"/><rect class="cls-7" x="29.62" y="125.428" width="263.745" height="31.609"/><rect class="cls-8" x="47.439" y="116.906" width="195.234" height="8.522"/><rect class="cls-9" x="29.62" y="116.906" width="263.745" height="8.522"/><path class="cls-3" d="M114.141,145.138v-1.171l4.229-.007v3.7a7.476,7.476,0,0,1-2.009,1.168,5.965,5.965,0,0,1-2.125.392,5.666,5.666,0,0,1-2.672-.63,4.165,4.165,0,0,1-1.815-1.822,5.731,5.731,0,0,1-.613-2.662,6.176,6.176,0,0,1,.609-2.72,4.05,4.05,0,0,1,1.753-1.876,5.494,5.494,0,0,1,2.635-.613,5.219,5.219,0,0,1,1.958.351,3.248,3.248,0,0,1,1.372.977,4.329,4.329,0,0,1,.756,1.634l-1.191.327a3.686,3.686,0,0,0-.559-1.2,2.289,2.289,0,0,0-.953-0.7,3.5,3.5,0,0,0-1.375-.262,4.056,4.056,0,0,0-1.566.276,2.931,2.931,0,0,0-1.065.725,3.468,3.468,0,0,0-.63.987,5.223,5.223,0,0,0-.381,2.009,4.876,4.876,0,0,0,.459,2.233A2.941,2.941,0,0,0,112.3,147.6a4.142,4.142,0,0,0,1.866.436,4.429,4.429,0,0,0,1.675-.33,4.323,4.323,0,0,0,1.239-.7v-1.859h-2.935Z" transform="translate(-6.413 -3.948)"/><path class="cls-3" d="M120.167,140.481v-1.41h1.226v1.41h-1.226Zm0,8.573v-7.231h1.226v7.231h-1.226Z" transform="translate(-6.413 -3.948)"/><path class="cls-3" d="M123.551,149.054v-6.278h-1.083v-0.953h1.083v-0.77a3.378,3.378,0,0,1,.129-1.083,1.569,1.569,0,0,1,.623-0.773,2.247,2.247,0,0,1,1.25-.3,5.971,5.971,0,0,1,1.144.123l-0.184,1.069a4.106,4.106,0,0,0-.722-0.068,1.072,1.072,0,0,0-.79.238,1.288,1.288,0,0,0-.232.892v0.667h1.41v0.953h-1.41v6.278h-1.219Z" transform="translate(-6.413 -3.948)"/><path class="cls-3" d="M129.809,147.958l0.177,1.083a4.54,4.54,0,0,1-.926.109,2.1,2.1,0,0,1-1.035-.211,1.179,1.179,0,0,1-.517-0.555,4.379,4.379,0,0,1-.15-1.447v-4.161h-0.9v-0.953h0.9v-1.791l1.219-.735v2.526h1.232v0.953h-1.232V147a2.123,2.123,0,0,0,.065.674,0.508,0.508,0,0,0,.211.238,0.815,0.815,0,0,0,.418.088A3.983,3.983,0,0,0,129.809,147.958Z" transform="translate(-6.413 -3.948)"/><path class="cls-3" d="M137.579,149.054v-8.8H134.29v-1.178H142.2v1.178h-3.3v8.8h-1.321Z" transform="translate(-6.413 -3.948)"/><path class="cls-3" d="M148.119,148.162a4.577,4.577,0,0,1-1.311.817,3.792,3.792,0,0,1-1.352.238,2.629,2.629,0,0,1-1.832-.583,1.921,1.921,0,0,1-.64-1.488,2.015,2.015,0,0,1,.875-1.675,2.967,2.967,0,0,1,.882-0.4,8.774,8.774,0,0,1,1.089-.184,11.174,11.174,0,0,0,2.186-.422q0.007-.252.006-0.32a1.353,1.353,0,0,0-.347-1.055,2.051,2.051,0,0,0-1.4-.416,2.162,2.162,0,0,0-1.276.3,1.849,1.849,0,0,0-.609,1.072l-1.2-.163a2.974,2.974,0,0,1,.538-1.243,2.358,2.358,0,0,1,1.083-.729,4.837,4.837,0,0,1,1.641-.255,4.337,4.337,0,0,1,1.5.218,1.981,1.981,0,0,1,.851.548,1.93,1.93,0,0,1,.381.834,6.868,6.868,0,0,1,.062,1.13v1.634a17.351,17.351,0,0,0,.078,2.162,2.73,2.73,0,0,0,.31.868h-1.28A2.59,2.59,0,0,1,148.119,148.162Zm-0.1-2.737a8.99,8.99,0,0,1-2,.463,4.667,4.667,0,0,0-1.069.245,1.067,1.067,0,0,0-.483.4,1.083,1.083,0,0,0,.2,1.4,1.6,1.6,0,0,0,1.086.327,2.528,2.528,0,0,0,1.26-.31,1.908,1.908,0,0,0,.81-0.848,2.957,2.957,0,0,0,.2-1.226v-0.45Z" transform="translate(-6.413 -3.948)"/><path class="cls-3" d="M150.339,149.054l2.642-3.759-2.444-3.473h1.532l1.11,1.7q0.313,0.484.5,0.811,0.3-.45.552-0.8l1.219-1.709h1.464l-2.5,3.4,2.69,3.827h-1.5l-1.484-2.247-0.4-.606-1.9,2.853h-1.484Z" transform="translate(-6.413 -3.948)"/><path class="cls-3" d="M162.187,149.054v-9.982H169.4v1.178h-5.9v3.057h5.522v1.171h-5.522v3.4h6.128v1.178h-7.449Z" transform="translate(-6.413 -3.948)"/><path class="cls-3" d="M170.487,149.054l2.642-3.759-2.444-3.473h1.532l1.11,1.7q0.313,0.484.5,0.811,0.3-.45.552-0.8l1.219-1.709h1.464l-2.5,3.4,2.69,3.827h-1.5l-1.484-2.247-0.4-.606-1.9,2.853h-1.484Z" transform="translate(-6.413 -3.948)"/><path class="cls-3" d="M183,146.4l1.205,0.157a3.126,3.126,0,0,1-1.011,1.951,2.944,2.944,0,0,1-2,.705,3.1,3.1,0,0,1-2.387-.971,3.935,3.935,0,0,1-.9-2.781,5.035,5.035,0,0,1,.388-2.05,2.7,2.7,0,0,1,1.181-1.317,3.5,3.5,0,0,1,1.726-.439,3,3,0,0,1,1.927.6,2.732,2.732,0,0,1,.96,1.692l-1.191.184a1.98,1.98,0,0,0-.6-1.1,1.559,1.559,0,0,0-1.045-.368,1.9,1.9,0,0,0-1.5.664,3.152,3.152,0,0,0-.579,2.1,3.259,3.259,0,0,0,.558,2.118,1.816,1.816,0,0,0,1.457.661,1.717,1.717,0,0,0,1.206-.443A2.2,2.2,0,0,0,183,146.4Z" transform="translate(-6.413 -3.948)"/><path class="cls-3" d="M185.223,149.054v-9.982h1.226v9.982h-1.226Z" transform="translate(-6.413 -3.948)"/><path class="cls-3" d="M193.087,149.054v-1.062a2.648,2.648,0,0,1-2.295,1.226,2.927,2.927,0,0,1-1.195-.245,1.972,1.972,0,0,1-.824-0.616,2.316,2.316,0,0,1-.378-0.909,6.242,6.242,0,0,1-.075-1.144v-4.48h1.226v4.011a7.159,7.159,0,0,0,.075,1.293,1.277,1.277,0,0,0,.49.759,1.519,1.519,0,0,0,.926.276,2.018,2.018,0,0,0,1.035-.283,1.569,1.569,0,0,0,.684-0.769,3.865,3.865,0,0,0,.2-1.413v-3.875h1.226v7.231h-1.1Z" transform="translate(-6.413 -3.948)"/><path class="cls-3" d="M195.614,146.9l1.212-.19a1.692,1.692,0,0,0,.568,1.117,1.982,1.982,0,0,0,1.3.388,1.918,1.918,0,0,0,1.253-.344,1.029,1.029,0,0,0,.408-0.807A0.745,0.745,0,0,0,200,146.4a5.322,5.322,0,0,0-1.253-.415,11.425,11.425,0,0,1-1.869-.589,1.784,1.784,0,0,1-1.059-1.658,1.863,1.863,0,0,1,.221-0.9,1.985,1.985,0,0,1,.6-0.685,2.534,2.534,0,0,1,.78-0.357,3.706,3.706,0,0,1,1.059-.146,4.194,4.194,0,0,1,1.495.245,2.033,2.033,0,0,1,.95.664,2.6,2.6,0,0,1,.422,1.12l-1.2.164a1.311,1.311,0,0,0-.473-0.872,1.73,1.73,0,0,0-1.106-.313,2,2,0,0,0-1.205.279,0.813,0.813,0,0,0-.361.654,0.678,0.678,0,0,0,.15.429,1.082,1.082,0,0,0,.47.327q0.184,0.068,1.083.313a15.076,15.076,0,0,1,1.814.569,1.842,1.842,0,0,1,.807.643,1.8,1.8,0,0,1,.292,1.049,2.058,2.058,0,0,1-.357,1.154,2.308,2.308,0,0,1-1.032.837,3.756,3.756,0,0,1-1.525.3,3.4,3.4,0,0,1-2.148-.586A2.719,2.719,0,0,1,195.614,146.9Z" transform="translate(-6.413 -3.948)"/><path class="cls-3" d="M203.083,140.481v-1.41h1.226v1.41h-1.226Zm0,8.573v-7.231h1.226v7.231h-1.226Z" transform="translate(-6.413 -3.948)"/><path class="cls-3" d="M205.718,145.438a3.727,3.727,0,0,1,1.117-2.976,3.365,3.365,0,0,1,2.274-.8,3.244,3.244,0,0,1,2.438.978,3.716,3.716,0,0,1,.947,2.7,4.781,4.781,0,0,1-.419,2.2,2.963,2.963,0,0,1-1.219,1.243,3.552,3.552,0,0,1-1.747.443,3.251,3.251,0,0,1-2.455-.974A3.889,3.889,0,0,1,205.718,145.438Zm1.26,0a3.08,3.08,0,0,0,.606,2.08,2.018,2.018,0,0,0,3.044,0,3.153,3.153,0,0,0,.606-2.118,2.987,2.987,0,0,0-.609-2.032,2.02,2.02,0,0,0-3.041,0A3.067,3.067,0,0,0,206.978,145.438Z" transform="translate(-6.413 -3.948)"/><path class="cls-3" d="M213.931,149.054v-7.231h1.1v1.028a2.6,2.6,0,0,1,2.3-1.192,3.027,3.027,0,0,1,1.2.235,1.892,1.892,0,0,1,.82.617,2.362,2.362,0,0,1,.381.905,7.028,7.028,0,0,1,.068,1.192v4.446h-1.226v-4.4a3.294,3.294,0,0,0-.143-1.12,1.177,1.177,0,0,0-.507-0.592,1.613,1.613,0,0,0-.854-0.221,1.985,1.985,0,0,0-1.352.5,2.453,2.453,0,0,0-.568,1.886v3.949h-1.226Z" transform="translate(-6.413 -3.948)"/><path class="cls-3" d="M221.2,146.9l1.212-.19a1.692,1.692,0,0,0,.568,1.117,1.982,1.982,0,0,0,1.3.388,1.918,1.918,0,0,0,1.253-.344,1.029,1.029,0,0,0,.408-0.807,0.745,0.745,0,0,0-.361-0.654,5.322,5.322,0,0,0-1.253-.415,11.425,11.425,0,0,1-1.869-.589,1.784,1.784,0,0,1-1.059-1.658,1.863,1.863,0,0,1,.221-0.9,1.985,1.985,0,0,1,.6-0.685,2.534,2.534,0,0,1,.78-0.357,3.706,3.706,0,0,1,1.059-.146,4.194,4.194,0,0,1,1.495.245,2.033,2.033,0,0,1,.95.664,2.6,2.6,0,0,1,.422,1.12l-1.2.164a1.311,1.311,0,0,0-.473-0.872,1.73,1.73,0,0,0-1.106-.313,2,2,0,0,0-1.205.279,0.813,0.813,0,0,0-.361.654,0.678,0.678,0,0,0,.15.429,1.082,1.082,0,0,0,.47.327q0.184,0.068,1.083.313a15.076,15.076,0,0,1,1.814.569,1.842,1.842,0,0,1,.807.643,1.8,1.8,0,0,1,.292,1.049,2.058,2.058,0,0,1-.357,1.154,2.308,2.308,0,0,1-1.032.837,3.756,3.756,0,0,1-1.525.3,3.4,3.4,0,0,1-2.148-.586A2.719,2.719,0,0,1,221.2,146.9Z" transform="translate(-6.413 -3.948)"/><rect class="cls-10" x="0.5" y="0.5" width="321.99" height="169.225"/></svg>