<svg id="Layer_1" data-name="Layer 1" xmlns="http://www.w3.org/2000/svg" viewBox="0 0 384 436.85"><defs><style>.cls-1{fill:#bcbec0;}.cls-2{fill:#fff;}.cls-3{fill:#231f20;}</style></defs><title>Planning_Minimize_Estate_Taxes_Simpler</title><rect class="cls-1" width="384" height="436.85"/><rect class="cls-2" x="127.389" y="270.663" width="192.458" height="91.647"/><rect class="cls-2" x="127.389" y="23.828" width="192.458" height="43.99"/><rect class="cls-2" x="214.453" y="67.819" width="18.329" height="52.239"/><polygon class="cls-2" points="223.618 139.609 246.835 116.086 200.401 116.086 223.618 139.609"/><rect class="cls-2" x="127.389" y="147.399" width="192.458" height="43.99"/><rect class="cls-2" x="214.453" y="191.389" width="18.329" height="52.239"/><polygon class="cls-2" points="223.618 263.179 246.835 239.656 200.401 239.656 223.618 263.179"/><path class="cls-3" d="M193.18,57.274V55.663a5.952,5.952,0,0,1-1.965-.542,3.426,3.426,0,0,1-1.307-1.257,4.506,4.506,0,0,1-.64-2.121l1.62-.3a4.08,4.08,0,0,0,.662,1.906,2.348,2.348,0,0,0,1.629.958V49.174a6.7,6.7,0,0,1-2.031-.77,2.971,2.971,0,0,1-1.187-1.19,3.791,3.791,0,0,1,.8-4.511,4.231,4.231,0,0,1,2.416-.877v-0.77h0.948v0.77a3.977,3.977,0,0,1,2.229.823,3.662,3.662,0,0,1,1.271,2.408l-1.665.25a2.761,2.761,0,0,0-.595-1.454,2.2,2.2,0,0,0-1.24-.667v4.645a12.866,12.866,0,0,1,1.611.474,4,4,0,0,1,1.227.806,3.267,3.267,0,0,1,.729,1.128,4.146,4.146,0,0,1-.811,4.206,3.907,3.907,0,0,1-2.757,1.2v1.628H193.18Zm0-14.1a2.389,2.389,0,0,0-1.481.752,2.238,2.238,0,0,0-.08,2.819,3.164,3.164,0,0,0,1.562.886V43.169ZM194.128,54.3a2.391,2.391,0,0,0,1.554-.814,2.525,2.525,0,0,0,.612-1.727,2.163,2.163,0,0,0-.434-1.41,3.751,3.751,0,0,0-1.732-.953v4.9Z" transform="translate(-6 -4.368)"/><path class="cls-3" d="M199.579,51.922l1.611-.215a3.542,3.542,0,0,0,.944,1.973,2.33,2.33,0,0,0,1.624.6,2.6,2.6,0,0,0,1.92-.787,2.661,2.661,0,0,0,.783-1.951,2.473,2.473,0,0,0-.726-1.831,2.5,2.5,0,0,0-1.843-.72,4.628,4.628,0,0,0-1.137.179l0.179-1.414a2.389,2.389,0,0,0,.26.018,3.319,3.319,0,0,0,1.853-.537,1.838,1.838,0,0,0,.823-1.656,1.961,1.961,0,0,0-.6-1.468,2.133,2.133,0,0,0-1.549-.582,2.191,2.191,0,0,0-1.565.591,2.962,2.962,0,0,0-.806,1.772l-1.611-.287a4.143,4.143,0,0,1,1.343-2.51,3.881,3.881,0,0,1,2.6-.891,4.291,4.291,0,0,1,1.978.461,3.339,3.339,0,0,1,1.383,1.257,3.231,3.231,0,0,1,.479,1.692,2.766,2.766,0,0,1-.456,1.548,3.115,3.115,0,0,1-1.352,1.109,3.048,3.048,0,0,1,1.808,1.114,3.391,3.391,0,0,1,.645,2.117,3.871,3.871,0,0,1-1.253,2.914,4.407,4.407,0,0,1-3.168,1.195,4.122,4.122,0,0,1-2.868-1.029A3.98,3.98,0,0,1,199.579,51.922Z" transform="translate(-6 -4.368)"/><path class="cls-3" d="M210.632,55.386V53.551h1.835v1.835a3.26,3.26,0,0,1-.358,1.633,2.333,2.333,0,0,1-1.137.962l-0.447-.689a1.531,1.531,0,0,0,.752-0.658,2.813,2.813,0,0,0,.269-1.249h-0.913Z" transform="translate(-6 -4.368)"/><path class="cls-3" d="M214.964,43.983V42.435h8.493v1.253a17.9,17.9,0,0,0-2.483,3.544,21.576,21.576,0,0,0-1.9,4.546,16.92,16.92,0,0,0-.618,3.607H216.8a16.069,16.069,0,0,1,.608-3.741,19.659,19.659,0,0,1,1.669-4.229,18.128,18.128,0,0,1,2.313-3.433h-6.426Z" transform="translate(-6 -4.368)"/><path class="cls-3" d="M225.05,48.915a12,12,0,0,1,.479-3.746,4.663,4.663,0,0,1,1.423-2.188,3.64,3.64,0,0,1,2.377-.77,3.879,3.879,0,0,1,1.853.425,3.533,3.533,0,0,1,1.315,1.226,6.6,6.6,0,0,1,.814,1.951,12.946,12.946,0,0,1,.295,3.1,12.066,12.066,0,0,1-.474,3.728,4.659,4.659,0,0,1-1.419,2.193,3.639,3.639,0,0,1-2.385.774,3.6,3.6,0,0,1-2.98-1.36Q225.05,52.611,225.05,48.915Zm1.655,0q0,3.231.757,4.3a2.161,2.161,0,0,0,3.732,0q0.756-1.074.756-4.3,0-3.24-.756-4.305a2.247,2.247,0,0,0-1.885-1.065,2.064,2.064,0,0,0-1.771.94Q226.706,45.684,226.705,48.915Z" transform="translate(-6 -4.368)"/><path class="cls-3" d="M235.244,48.915a12,12,0,0,1,.479-3.746,4.663,4.663,0,0,1,1.423-2.188,3.64,3.64,0,0,1,2.377-.77,3.879,3.879,0,0,1,1.853.425,3.533,3.533,0,0,1,1.315,1.226,6.6,6.6,0,0,1,.814,1.951,12.946,12.946,0,0,1,.295,3.1,12.066,12.066,0,0,1-.474,3.728,4.659,4.659,0,0,1-1.419,2.193,3.639,3.639,0,0,1-2.385.774,3.6,3.6,0,0,1-2.98-1.36Q235.244,52.611,235.244,48.915Zm1.655,0q0,3.231.757,4.3a2.161,2.161,0,0,0,3.732,0q0.756-1.074.756-4.3,0-3.24-.756-4.305a2.247,2.247,0,0,0-1.885-1.065,2.064,2.064,0,0,0-1.771.94Q236.9,45.684,236.9,48.915Z" transform="translate(-6 -4.368)"/><path class="cls-3" d="M246.307,55.386V53.551h1.835v1.835a3.26,3.26,0,0,1-.358,1.633,2.333,2.333,0,0,1-1.137.962l-0.447-.689a1.531,1.531,0,0,0,.752-0.658,2.813,2.813,0,0,0,.269-1.249h-0.913Z" transform="translate(-6 -4.368)"/><path class="cls-3" d="M250.53,48.915a12,12,0,0,1,.479-3.746,4.663,4.663,0,0,1,1.423-2.188,3.64,3.64,0,0,1,2.377-.77,3.879,3.879,0,0,1,1.853.425,3.533,3.533,0,0,1,1.315,1.226,6.6,6.6,0,0,1,.814,1.951,12.946,12.946,0,0,1,.295,3.1,12.066,12.066,0,0,1-.474,3.728,4.659,4.659,0,0,1-1.419,2.193,3.639,3.639,0,0,1-2.385.774,3.6,3.6,0,0,1-2.98-1.36Q250.53,52.611,250.53,48.915Zm1.655,0q0,3.231.757,4.3a2.161,2.161,0,0,0,3.732,0q0.756-1.074.756-4.3,0-3.24-.756-4.305a2.247,2.247,0,0,0-1.885-1.065,2.064,2.064,0,0,0-1.771.94Q252.187,45.684,252.186,48.915Z" transform="translate(-6 -4.368)"/><path class="cls-3" d="M260.725,48.915a12,12,0,0,1,.479-3.746,4.663,4.663,0,0,1,1.423-2.188,3.64,3.64,0,0,1,2.377-.77,3.879,3.879,0,0,1,1.853.425,3.533,3.533,0,0,1,1.315,1.226,6.6,6.6,0,0,1,.814,1.951,12.946,12.946,0,0,1,.295,3.1,12.066,12.066,0,0,1-.474,3.728,4.659,4.659,0,0,1-1.419,2.193,3.639,3.639,0,0,1-2.385.774,3.6,3.6,0,0,1-2.98-1.36Q260.725,52.611,260.725,48.915Zm1.655,0q0,3.231.757,4.3a2.161,2.161,0,0,0,3.732,0q0.756-1.074.756-4.3,0-3.24-.756-4.305a2.247,2.247,0,0,0-1.885-1.065,2.064,2.064,0,0,0-1.771.94Q262.381,45.684,262.38,48.915Z" transform="translate(-6 -4.368)"/><path class="cls-3" d="M270.918,48.915a12,12,0,0,1,.479-3.746,4.663,4.663,0,0,1,1.423-2.188,3.64,3.64,0,0,1,2.377-.77,3.879,3.879,0,0,1,1.853.425,3.533,3.533,0,0,1,1.315,1.226,6.6,6.6,0,0,1,.814,1.951,12.946,12.946,0,0,1,.295,3.1A12.066,12.066,0,0,1,279,52.643a4.659,4.659,0,0,1-1.419,2.193,3.639,3.639,0,0,1-2.385.774,3.6,3.6,0,0,1-2.98-1.36Q270.918,52.611,270.918,48.915Zm1.655,0q0,3.231.757,4.3a2.161,2.161,0,0,0,3.732,0q0.756-1.074.756-4.3,0-3.24-.756-4.305a2.247,2.247,0,0,0-1.885-1.065,2.064,2.064,0,0,0-1.771.94Q272.574,45.684,272.573,48.915Z" transform="translate(-6 -4.368)"/><path class="cls-3" d="M189.717,179.419V166.3h8.852v1.548h-7.115v4.063h6.157v1.548h-6.157v5.96h-1.736Z" transform="translate(-6 -4.368)"/><path class="cls-3" d="M200.626,168.151V166.3h1.611v1.853h-1.611Zm0,11.268v-9.5h1.611v9.5h-1.611Z" transform="translate(-6 -4.368)"/><path class="cls-3" d="M204.672,179.419v-9.5h1.45v1.441a3.924,3.924,0,0,1,1.024-1.333,1.79,1.79,0,0,1,1.033-.322,3.146,3.146,0,0,1,1.656.519l-0.555,1.495a2.311,2.311,0,0,0-1.182-.349,1.534,1.534,0,0,0-.948.317,1.723,1.723,0,0,0-.6.882,6.284,6.284,0,0,0-.268,1.879v4.976h-1.611Z" transform="translate(-6 -4.368)"/><path class="cls-3" d="M209.983,176.583l1.594-.251a2.22,2.22,0,0,0,.747,1.468,2.6,2.6,0,0,0,1.714.51,2.517,2.517,0,0,0,1.646-.452,1.351,1.351,0,0,0,.537-1.061,0.978,0.978,0,0,0-.475-0.859,6.988,6.988,0,0,0-1.646-.546,14.991,14.991,0,0,1-2.457-.774,2.345,2.345,0,0,1-1.392-2.179,2.454,2.454,0,0,1,.291-1.177,2.616,2.616,0,0,1,.792-0.9,3.329,3.329,0,0,1,1.025-.47,4.881,4.881,0,0,1,1.392-.192,5.5,5.5,0,0,1,1.964.322,2.673,2.673,0,0,1,1.249.873,3.413,3.413,0,0,1,.555,1.472l-1.575.215a1.724,1.724,0,0,0-.622-1.146,2.275,2.275,0,0,0-1.454-.412,2.631,2.631,0,0,0-1.584.367,1.068,1.068,0,0,0-.475.859,0.886,0.886,0,0,0,.2.564,1.419,1.419,0,0,0,.617.43q0.242,0.089,1.423.412a19.876,19.876,0,0,1,2.386.747,2.425,2.425,0,0,1,1.061.846,2.364,2.364,0,0,1,.385,1.378,2.7,2.7,0,0,1-.471,1.517,3.031,3.031,0,0,1-1.355,1.1,4.94,4.94,0,0,1-2,.389,4.464,4.464,0,0,1-2.823-.77A3.583,3.583,0,0,1,209.983,176.583Z" transform="translate(-6 -4.368)"/><path class="cls-3" d="M223.311,177.979l0.232,1.423a5.96,5.96,0,0,1-1.217.144,2.754,2.754,0,0,1-1.36-.278,1.555,1.555,0,0,1-.681-0.729,5.786,5.786,0,0,1-.2-1.9v-5.469h-1.182v-1.253h1.182v-2.354l1.6-.967v3.32h1.62v1.253h-1.62v5.558a2.805,2.805,0,0,0,.085.886,0.673,0.673,0,0,0,.277.313,1.075,1.075,0,0,0,.551.116A5.2,5.2,0,0,0,223.311,177.979Z" transform="translate(-6 -4.368)"/><path class="cls-3" d="M230.184,179.419V166.3h4.52a10.949,10.949,0,0,1,2.336.188,4.449,4.449,0,0,1,1.925.94,5.35,5.35,0,0,1,1.553,2.242,8.809,8.809,0,0,1,.515,3.119,9.17,9.17,0,0,1-.35,2.649,6.438,6.438,0,0,1-.895,1.911,4.768,4.768,0,0,1-1.2,1.19,4.877,4.877,0,0,1-1.566.658,8.946,8.946,0,0,1-2.107.224h-4.734Zm1.736-1.548h2.8a6.794,6.794,0,0,0,2.035-.242,2.913,2.913,0,0,0,1.178-.68,4.14,4.14,0,0,0,.962-1.66,8.12,8.12,0,0,0,.345-2.528,6.108,6.108,0,0,0-.676-3.164,3.4,3.4,0,0,0-1.643-1.481,6.782,6.782,0,0,0-2.246-.269H231.92v10.024Z" transform="translate(-6 -4.368)"/><path class="cls-3" d="M249.722,176.358l1.665,0.206a4.061,4.061,0,0,1-1.459,2.264,4.943,4.943,0,0,1-6.028-.479,5.019,5.019,0,0,1-1.222-3.6,5.253,5.253,0,0,1,1.235-3.723,4.182,4.182,0,0,1,3.2-1.325,4.062,4.062,0,0,1,3.114,1.3,5.156,5.156,0,0,1,1.209,3.651c0,0.1,0,.239-0.01.43h-7.088a3.652,3.652,0,0,0,.886,2.4,2.638,2.638,0,0,0,1.987.832,2.464,2.464,0,0,0,1.513-.465A3.1,3.1,0,0,0,249.722,176.358Zm-5.289-2.6h5.307a3.22,3.22,0,0,0-.608-1.8,2.47,2.47,0,0,0-2-.931,2.558,2.558,0,0,0-1.865.743A2.938,2.938,0,0,0,244.433,173.754Z" transform="translate(-6 -4.368)"/><path class="cls-3" d="M259.372,178.247a5.988,5.988,0,0,1-1.723,1.074,4.972,4.972,0,0,1-1.776.313,3.454,3.454,0,0,1-2.407-.765,2.524,2.524,0,0,1-.842-1.956,2.653,2.653,0,0,1,1.15-2.2,3.913,3.913,0,0,1,1.159-.528,11.486,11.486,0,0,1,1.432-.242,14.694,14.694,0,0,0,2.873-.555q0.009-.331.009-0.42a1.781,1.781,0,0,0-.456-1.388,2.7,2.7,0,0,0-1.835-.546,2.841,2.841,0,0,0-1.678.4,2.431,2.431,0,0,0-.8,1.41l-1.575-.215a3.906,3.906,0,0,1,.707-1.633,3.1,3.1,0,0,1,1.423-.958,6.342,6.342,0,0,1,2.157-.336,5.715,5.715,0,0,1,1.979.287,2.606,2.606,0,0,1,1.118.72,2.532,2.532,0,0,1,.5,1.1,9.049,9.049,0,0,1,.081,1.485v2.148a22.88,22.88,0,0,0,.1,2.842,3.569,3.569,0,0,0,.407,1.141h-1.683A3.42,3.42,0,0,1,259.372,178.247Zm-0.134-3.6a11.81,11.81,0,0,1-2.632.609,6.049,6.049,0,0,0-1.4.322,1.4,1.4,0,0,0-.636.523,1.425,1.425,0,0,0,.264,1.839,2.1,2.1,0,0,0,1.428.429,3.32,3.32,0,0,0,1.656-.407,2.506,2.506,0,0,0,1.064-1.114,3.891,3.891,0,0,0,.26-1.611v-0.591Z" transform="translate(-6 -4.368)"/><path class="cls-3" d="M266.882,177.979l0.232,1.423a5.96,5.96,0,0,1-1.217.144,2.754,2.754,0,0,1-1.36-.278,1.555,1.555,0,0,1-.681-0.729,5.786,5.786,0,0,1-.2-1.9v-5.469h-1.182v-1.253h1.182v-2.354l1.6-.967v3.32h1.62v1.253h-1.62v5.558a2.805,2.805,0,0,0,.085.886,0.673,0.673,0,0,0,.277.313,1.075,1.075,0,0,0,.551.116A5.2,5.2,0,0,0,266.882,177.979Z" transform="translate(-6 -4.368)"/><path class="cls-3" d="M268.457,179.419V166.3h1.611v4.708a3.6,3.6,0,0,1,2.846-1.307,3.835,3.835,0,0,1,1.835.417,2.44,2.44,0,0,1,1.114,1.15,5.3,5.3,0,0,1,.336,2.13v6.023h-1.611V173.4a2.49,2.49,0,0,0-.523-1.758,1.947,1.947,0,0,0-1.481-.551,2.612,2.612,0,0,0-1.347.372,2.1,2.1,0,0,0-.9,1.007,4.631,4.631,0,0,0-.269,1.754v5.2h-1.611Z" transform="translate(-6 -4.368)"/><path class="cls-3" d="M177.36,312.674l1.638-.143a3.614,3.614,0,0,0,.541,1.615,2.958,2.958,0,0,0,1.32,1.021,5,5,0,0,0,2.014.389,4.818,4.818,0,0,0,1.754-.295,2.438,2.438,0,0,0,1.132-.81,1.882,1.882,0,0,0,.372-1.124,1.711,1.711,0,0,0-.358-1.078,2.658,2.658,0,0,0-1.182-.774,23.428,23.428,0,0,0-2.336-.64,11.969,11.969,0,0,1-2.533-.818,3.549,3.549,0,0,1-1.4-1.222,2.993,2.993,0,0,1-.461-1.634,3.34,3.34,0,0,1,.563-1.857,3.491,3.491,0,0,1,1.647-1.311,6.237,6.237,0,0,1,2.408-.448,6.572,6.572,0,0,1,2.573.471,3.7,3.7,0,0,1,1.714,1.383,3.967,3.967,0,0,1,.645,2.067l-1.665.125a2.687,2.687,0,0,0-.909-1.88,3.54,3.54,0,0,0-2.287-.635,3.668,3.668,0,0,0-2.3.577,1.731,1.731,0,0,0-.721,1.392,1.491,1.491,0,0,0,.51,1.163,6.9,6.9,0,0,0,2.618.936,17.358,17.358,0,0,1,2.9.837,3.977,3.977,0,0,1,1.692,1.338,3.262,3.262,0,0,1,.546,1.866,3.573,3.573,0,0,1-.6,1.974,3.948,3.948,0,0,1-1.723,1.44,6.007,6.007,0,0,1-2.528.515,7.557,7.557,0,0,1-2.985-.519,4.186,4.186,0,0,1-1.888-1.562A4.424,4.424,0,0,1,177.36,312.674Z" transform="translate(-6 -4.368)"/><path class="cls-3" d="M196.478,313.829l1.665,0.205a4.064,4.064,0,0,1-1.459,2.265,4.943,4.943,0,0,1-6.028-.479,5.018,5.018,0,0,1-1.222-3.6,5.252,5.252,0,0,1,1.235-3.723,4.179,4.179,0,0,1,3.2-1.325,4.062,4.062,0,0,1,3.114,1.3,5.155,5.155,0,0,1,1.209,3.651c0,0.1,0,.239-0.01.43H191.1a3.65,3.65,0,0,0,.886,2.4,2.639,2.639,0,0,0,1.987.833,2.464,2.464,0,0,0,1.513-.466A3.1,3.1,0,0,0,196.478,313.829Zm-5.289-2.6H196.5a3.216,3.216,0,0,0-.608-1.8,2.467,2.467,0,0,0-2-.931,2.558,2.558,0,0,0-1.865.742A2.938,2.938,0,0,0,191.188,311.225Z" transform="translate(-6 -4.368)"/><path class="cls-3" d="M206.367,313.408l1.585,0.206a4.111,4.111,0,0,1-1.329,2.563A3.871,3.871,0,0,1,204,317.1a4.082,4.082,0,0,1-3.138-1.275,5.177,5.177,0,0,1-1.186-3.656,6.6,6.6,0,0,1,.511-2.693,3.552,3.552,0,0,1,1.553-1.732A4.605,4.605,0,0,1,204,307.17a3.946,3.946,0,0,1,2.532.783,3.592,3.592,0,0,1,1.263,2.224l-1.566.242a2.6,2.6,0,0,0-.792-1.441,2.049,2.049,0,0,0-1.374-.482,2.5,2.5,0,0,0-1.978.872,4.139,4.139,0,0,0-.761,2.761,4.284,4.284,0,0,0,.733,2.784,2.39,2.39,0,0,0,1.915.868,2.26,2.26,0,0,0,1.585-.582A2.89,2.89,0,0,0,206.367,313.408Z" transform="translate(-6 -4.368)"/><path class="cls-3" d="M208.345,312.138a4.9,4.9,0,0,1,1.468-3.911,4.422,4.422,0,0,1,2.989-1.057,4.267,4.267,0,0,1,3.2,1.284A4.888,4.888,0,0,1,217.25,312a6.285,6.285,0,0,1-.551,2.887,3.888,3.888,0,0,1-1.6,1.633,4.668,4.668,0,0,1-2.3.582,4.273,4.273,0,0,1-3.227-1.28A5.11,5.11,0,0,1,208.345,312.138Zm1.656,0a4.045,4.045,0,0,0,.8,2.733,2.652,2.652,0,0,0,4,0,4.142,4.142,0,0,0,.8-2.783,3.926,3.926,0,0,0-.8-2.672,2.657,2.657,0,0,0-4,0A4.032,4.032,0,0,0,210,312.138Z" transform="translate(-6 -4.368)"/><path class="cls-3" d="M219.139,316.89v-9.5h1.45v1.352a3.417,3.417,0,0,1,3.025-1.566,3.981,3.981,0,0,1,1.579.309,2.484,2.484,0,0,1,1.078.811,3.1,3.1,0,0,1,.5,1.19,9.244,9.244,0,0,1,.089,1.565v5.845h-1.61v-5.781a4.323,4.323,0,0,0-.188-1.473,1.544,1.544,0,0,0-.667-0.778,2.114,2.114,0,0,0-1.123-.291,2.61,2.61,0,0,0-1.776.653,3.223,3.223,0,0,0-.747,2.479v5.191h-1.611Z" transform="translate(-6 -4.368)"/><path class="cls-3" d="M235.5,316.89v-1.2a2.958,2.958,0,0,1-2.658,1.414,3.726,3.726,0,0,1-2.09-.627,4.107,4.107,0,0,1-1.477-1.749,6.039,6.039,0,0,1-.523-2.582,6.752,6.752,0,0,1,.474-2.582,3.743,3.743,0,0,1,1.423-1.776,3.8,3.8,0,0,1,2.121-.618,3.178,3.178,0,0,1,1.531.362,3.217,3.217,0,0,1,1.092.944V303.77h1.6v13.12H235.5Zm-5.093-4.743a4.13,4.13,0,0,0,.77,2.729,2.323,2.323,0,0,0,1.817.9,2.278,2.278,0,0,0,1.794-.864,3.981,3.981,0,0,0,.738-2.636,4.467,4.467,0,0,0-.752-2.864,2.311,2.311,0,0,0-1.853-.912,2.229,2.229,0,0,0-1.794.877A4.329,4.329,0,0,0,230.406,312.146Z" transform="translate(-6 -4.368)"/><path class="cls-3" d="M244.824,316.89V303.77h4.52a10.988,10.988,0,0,1,2.336.188,4.448,4.448,0,0,1,1.925.939,5.351,5.351,0,0,1,1.553,2.242,8.811,8.811,0,0,1,.515,3.119,9.176,9.176,0,0,1-.35,2.649,6.431,6.431,0,0,1-.895,1.91,4.744,4.744,0,0,1-1.2,1.19,4.855,4.855,0,0,1-1.566.658,8.92,8.92,0,0,1-2.107.224h-4.734Zm1.736-1.548h2.8a6.791,6.791,0,0,0,2.035-.242,2.918,2.918,0,0,0,1.178-.68,4.151,4.151,0,0,0,.962-1.66,8.127,8.127,0,0,0,.345-2.529,6.1,6.1,0,0,0-.676-3.163,3.4,3.4,0,0,0-1.643-1.481,6.8,6.8,0,0,0-2.246-.269h-2.757v10.024Z" transform="translate(-6 -4.368)"/><path class="cls-3" d="M264.362,313.829l1.665,0.205a4.064,4.064,0,0,1-1.459,2.265,4.943,4.943,0,0,1-6.028-.479,5.018,5.018,0,0,1-1.222-3.6,5.252,5.252,0,0,1,1.235-3.723,4.179,4.179,0,0,1,3.2-1.325,4.062,4.062,0,0,1,3.114,1.3,5.155,5.155,0,0,1,1.209,3.651c0,0.1,0,.239-0.01.43h-7.088a3.65,3.65,0,0,0,.886,2.4,2.639,2.639,0,0,0,1.987.833,2.464,2.464,0,0,0,1.513-.466A3.1,3.1,0,0,0,264.362,313.829Zm-5.289-2.6h5.307a3.216,3.216,0,0,0-.608-1.8,2.467,2.467,0,0,0-2-.931,2.558,2.558,0,0,0-1.865.742A2.938,2.938,0,0,0,259.073,311.225Z" transform="translate(-6 -4.368)"/><path class="cls-3" d="M274,315.717a5.991,5.991,0,0,1-1.723,1.074,4.972,4.972,0,0,1-1.776.313,3.452,3.452,0,0,1-2.407-.766,2.522,2.522,0,0,1-.842-1.955,2.655,2.655,0,0,1,1.15-2.2,3.911,3.911,0,0,1,1.159-.527,11.467,11.467,0,0,1,1.432-.242,14.731,14.731,0,0,0,2.873-.555c0.006-.221.009-0.361,0.009-0.421a1.78,1.78,0,0,0-.456-1.387,2.7,2.7,0,0,0-1.835-.546,2.841,2.841,0,0,0-1.678.4,2.428,2.428,0,0,0-.8,1.409l-1.575-.215a3.914,3.914,0,0,1,.707-1.634,3.1,3.1,0,0,1,1.423-.957,6.354,6.354,0,0,1,2.157-.336,5.727,5.727,0,0,1,1.979.286,2.611,2.611,0,0,1,1.118.721,2.535,2.535,0,0,1,.5,1.1,9.049,9.049,0,0,1,.081,1.485v2.148a22.9,22.9,0,0,0,.1,2.842A3.575,3.575,0,0,0,276,316.89h-1.683A3.417,3.417,0,0,1,274,315.717Zm-0.134-3.6a11.787,11.787,0,0,1-2.632.608,6.1,6.1,0,0,0-1.4.322,1.409,1.409,0,0,0-.636.523,1.426,1.426,0,0,0,.264,1.84,2.1,2.1,0,0,0,1.428.43,3.326,3.326,0,0,0,1.656-.407,2.513,2.513,0,0,0,1.064-1.114,3.9,3.9,0,0,0,.26-1.611v-0.591Z" transform="translate(-6 -4.368)"/><path class="cls-3" d="M281.5,315.448l0.232,1.424a6.022,6.022,0,0,1-1.217.143,2.749,2.749,0,0,1-1.36-.277,1.553,1.553,0,0,1-.681-0.729,5.778,5.778,0,0,1-.2-1.9v-5.469H277.1v-1.253h1.182v-2.354l1.6-.967v3.32h1.62v1.253h-1.62V314.2a2.815,2.815,0,0,0,.085.887,0.671,0.671,0,0,0,.277.313,1.069,1.069,0,0,0,.551.117A5.226,5.226,0,0,0,281.5,315.448Z" transform="translate(-6 -4.368)"/><path class="cls-3" d="M283.079,316.89V303.77h1.611v4.707a3.6,3.6,0,0,1,2.846-1.307,3.841,3.841,0,0,1,1.835.416,2.441,2.441,0,0,1,1.114,1.15,5.3,5.3,0,0,1,.336,2.13v6.023H289.21v-6.023a2.491,2.491,0,0,0-.523-1.759,1.95,1.95,0,0,0-1.481-.55,2.616,2.616,0,0,0-1.347.371,2.1,2.1,0,0,0-.9,1.007,4.632,4.632,0,0,0-.269,1.754v5.2h-1.611Z" transform="translate(-6 -4.368)"/><path class="cls-3" d="M193.2,340.773v-1.611a5.976,5.976,0,0,1-1.965-.541,3.428,3.428,0,0,1-1.307-1.258,4.509,4.509,0,0,1-.64-2.121l1.62-.3a4.078,4.078,0,0,0,.662,1.906,2.347,2.347,0,0,0,1.629.958v-5.128a6.743,6.743,0,0,1-2.031-.77,2.98,2.98,0,0,1-1.187-1.19,3.791,3.791,0,0,1,.8-4.511,4.221,4.221,0,0,1,2.416-.877v-0.771h0.948v0.771a3.967,3.967,0,0,1,2.229.823,3.661,3.661,0,0,1,1.271,2.407l-1.665.251a2.766,2.766,0,0,0-.595-1.455,2.2,2.2,0,0,0-1.24-.666v4.645a12.839,12.839,0,0,1,1.611.475,3.982,3.982,0,0,1,1.227.806,3.254,3.254,0,0,1,.729,1.127,4.147,4.147,0,0,1-.811,4.207,3.906,3.906,0,0,1-2.757,1.2v1.629H193.2Zm0-14.105a2.392,2.392,0,0,0-1.481.752,2.238,2.238,0,0,0-.08,2.819,3.167,3.167,0,0,0,1.562.886v-4.457Zm0.948,11.134a2.387,2.387,0,0,0,1.554-.814,2.525,2.525,0,0,0,.612-1.728,2.163,2.163,0,0,0-.434-1.409,3.747,3.747,0,0,0-1.732-.953v4.9Z" transform="translate(-6 -4.368)"/><path class="cls-3" d="M199.6,335.421l1.611-.215a3.54,3.54,0,0,0,.944,1.974,2.328,2.328,0,0,0,1.624.6A2.6,2.6,0,0,0,205.7,337a2.658,2.658,0,0,0,.783-1.951,2.472,2.472,0,0,0-.726-1.83,2.5,2.5,0,0,0-1.843-.721,4.635,4.635,0,0,0-1.137.18l0.179-1.414a2.5,2.5,0,0,0,.26.018,3.315,3.315,0,0,0,1.853-.537,1.837,1.837,0,0,0,.823-1.655,1.96,1.96,0,0,0-.6-1.468,2.133,2.133,0,0,0-1.549-.582,2.193,2.193,0,0,0-1.565.591,2.962,2.962,0,0,0-.806,1.771l-1.611-.286A4.143,4.143,0,0,1,201.1,326.6a3.885,3.885,0,0,1,2.6-.89,4.285,4.285,0,0,1,1.978.461,3.328,3.328,0,0,1,1.383,1.257,3.229,3.229,0,0,1,.479,1.691,2.767,2.767,0,0,1-.456,1.549,3.122,3.122,0,0,1-1.352,1.109,3.05,3.05,0,0,1,1.808,1.114,3.393,3.393,0,0,1,.645,2.117,3.871,3.871,0,0,1-1.253,2.913,4.409,4.409,0,0,1-3.168,1.194,4.12,4.12,0,0,1-2.868-1.029A3.979,3.979,0,0,1,199.6,335.421Z" transform="translate(-6 -4.368)"/><path class="cls-3" d="M210.651,338.885V337.05h1.835v1.835a3.264,3.264,0,0,1-.358,1.634,2.337,2.337,0,0,1-1.137.962l-0.447-.689a1.53,1.53,0,0,0,.752-0.658,2.809,2.809,0,0,0,.269-1.248h-0.913Z" transform="translate(-6 -4.368)"/><path class="cls-3" d="M214.983,327.482v-1.548h8.493v1.253a17.9,17.9,0,0,0-2.483,3.544,21.569,21.569,0,0,0-1.9,4.547,16.91,16.91,0,0,0-.618,3.606h-1.655a16.068,16.068,0,0,1,.608-3.741,19.649,19.649,0,0,1,1.669-4.229,18.112,18.112,0,0,1,2.313-3.433h-6.426Z" transform="translate(-6 -4.368)"/><path class="cls-3" d="M225.069,332.414a12,12,0,0,1,.479-3.745,4.66,4.66,0,0,1,1.423-2.188,3.637,3.637,0,0,1,2.377-.77,3.879,3.879,0,0,1,1.853.425,3.54,3.54,0,0,1,1.315,1.226,6.6,6.6,0,0,1,.814,1.951,12.956,12.956,0,0,1,.295,3.1,12.066,12.066,0,0,1-.474,3.728,4.657,4.657,0,0,1-1.419,2.192,3.636,3.636,0,0,1-2.385.774,3.6,3.6,0,0,1-2.98-1.36Q225.069,336.11,225.069,332.414Zm1.655,0q0,3.231.757,4.3a2.161,2.161,0,0,0,3.732,0q0.756-1.074.756-4.3,0-3.24-.756-4.3a2.247,2.247,0,0,0-1.885-1.065,2.065,2.065,0,0,0-1.771.939Q226.726,329.183,226.725,332.414Z" transform="translate(-6 -4.368)"/><path class="cls-3" d="M235.264,332.414a12,12,0,0,1,.479-3.745,4.66,4.66,0,0,1,1.423-2.188,3.637,3.637,0,0,1,2.377-.77,3.879,3.879,0,0,1,1.853.425,3.54,3.54,0,0,1,1.315,1.226,6.6,6.6,0,0,1,.814,1.951,12.956,12.956,0,0,1,.295,3.1,12.066,12.066,0,0,1-.474,3.728,4.657,4.657,0,0,1-1.419,2.192,3.636,3.636,0,0,1-2.385.774,3.6,3.6,0,0,1-2.98-1.36Q235.264,336.11,235.264,332.414Zm1.655,0q0,3.231.757,4.3a2.161,2.161,0,0,0,3.732,0q0.756-1.074.756-4.3,0-3.24-.756-4.3a2.247,2.247,0,0,0-1.885-1.065,2.065,2.065,0,0,0-1.771.939Q236.92,329.183,236.919,332.414Z" transform="translate(-6 -4.368)"/><path class="cls-3" d="M246.326,338.885V337.05h1.835v1.835a3.264,3.264,0,0,1-.358,1.634,2.337,2.337,0,0,1-1.137.962l-0.447-.689a1.53,1.53,0,0,0,.752-0.658,2.809,2.809,0,0,0,.269-1.248h-0.913Z" transform="translate(-6 -4.368)"/><path class="cls-3" d="M250.55,332.414a12,12,0,0,1,.479-3.745,4.66,4.66,0,0,1,1.423-2.188,3.637,3.637,0,0,1,2.377-.77,3.879,3.879,0,0,1,1.853.425A3.54,3.54,0,0,1,258,327.361a6.6,6.6,0,0,1,.814,1.951,12.956,12.956,0,0,1,.295,3.1,12.066,12.066,0,0,1-.474,3.728,4.657,4.657,0,0,1-1.419,2.192,3.636,3.636,0,0,1-2.385.774,3.6,3.6,0,0,1-2.98-1.36Q250.55,336.11,250.55,332.414Zm1.655,0q0,3.231.757,4.3a2.161,2.161,0,0,0,3.732,0q0.756-1.074.756-4.3,0-3.24-.756-4.3a2.247,2.247,0,0,0-1.885-1.065,2.065,2.065,0,0,0-1.771.939Q252.206,329.183,252.205,332.414Z" transform="translate(-6 -4.368)"/><path class="cls-3" d="M260.744,332.414a12,12,0,0,1,.479-3.745,4.66,4.66,0,0,1,1.423-2.188,3.637,3.637,0,0,1,2.377-.77,3.879,3.879,0,0,1,1.853.425,3.54,3.54,0,0,1,1.315,1.226,6.6,6.6,0,0,1,.814,1.951,12.956,12.956,0,0,1,.295,3.1,12.066,12.066,0,0,1-.474,3.728,4.657,4.657,0,0,1-1.419,2.192,3.636,3.636,0,0,1-2.385.774,3.6,3.6,0,0,1-2.98-1.36Q260.744,336.11,260.744,332.414Zm1.655,0q0,3.231.757,4.3a2.161,2.161,0,0,0,3.732,0q0.756-1.074.756-4.3,0-3.24-.756-4.3A2.247,2.247,0,0,0,265,327.044a2.065,2.065,0,0,0-1.771.939Q262.4,329.183,262.4,332.414Z" transform="translate(-6 -4.368)"/><path class="cls-3" d="M270.938,332.414a12,12,0,0,1,.479-3.745,4.66,4.66,0,0,1,1.423-2.188,3.637,3.637,0,0,1,2.377-.77,3.879,3.879,0,0,1,1.853.425,3.54,3.54,0,0,1,1.315,1.226,6.6,6.6,0,0,1,.814,1.951,12.956,12.956,0,0,1,.295,3.1,12.066,12.066,0,0,1-.474,3.728,4.657,4.657,0,0,1-1.419,2.192,3.636,3.636,0,0,1-2.385.774,3.6,3.6,0,0,1-2.98-1.36Q270.938,336.11,270.938,332.414Zm1.655,0q0,3.231.757,4.3a2.161,2.161,0,0,0,3.732,0q0.756-1.074.756-4.3,0-3.24-.756-4.3a2.247,2.247,0,0,0-1.885-1.065,2.065,2.065,0,0,0-1.771.939Q272.594,329.183,272.593,332.414Z" transform="translate(-6 -4.368)"/><path class="cls-3" d="M151.908,387.916V376.344h-4.323V374.8h10.4v1.548h-4.341v11.572h-1.736Z" transform="translate(-6 -4.368)"/><path class="cls-3" d="M164.443,386.743a5.992,5.992,0,0,1-1.723,1.074,4.974,4.974,0,0,1-1.776.313,3.453,3.453,0,0,1-2.408-.766,2.525,2.525,0,0,1-.841-1.955,2.6,2.6,0,0,1,.318-1.275,2.638,2.638,0,0,1,.833-0.927,3.914,3.914,0,0,1,1.159-.527,11.512,11.512,0,0,1,1.432-.242,14.739,14.739,0,0,0,2.873-.555c0.006-.221.009-0.361,0.009-0.421a1.778,1.778,0,0,0-.457-1.387,2.694,2.694,0,0,0-1.834-.546,2.844,2.844,0,0,0-1.678.4,2.43,2.43,0,0,0-.8,1.409l-1.575-.215a3.9,3.9,0,0,1,.707-1.634,3.1,3.1,0,0,1,1.423-.957,6.349,6.349,0,0,1,2.157-.336,5.723,5.723,0,0,1,1.978.286,2.613,2.613,0,0,1,1.119.721,2.541,2.541,0,0,1,.5,1.1,9.065,9.065,0,0,1,.081,1.485v2.148a22.9,22.9,0,0,0,.1,2.842,3.6,3.6,0,0,0,.407,1.141h-1.682A3.4,3.4,0,0,1,164.443,386.743Zm-0.134-3.6a11.788,11.788,0,0,1-2.631.608,6.112,6.112,0,0,0-1.405.322,1.405,1.405,0,0,0-.635.523,1.425,1.425,0,0,0,.264,1.84,2.1,2.1,0,0,0,1.427.43,3.322,3.322,0,0,0,1.656-.407,2.509,2.509,0,0,0,1.065-1.114,3.9,3.9,0,0,0,.26-1.611v-0.591Z" transform="translate(-6 -4.368)"/><path class="cls-3" d="M167.36,387.916l3.473-4.94-3.213-4.564h2.014l1.458,2.229q0.412,0.636.663,1.065,0.393-.592.725-1.048l1.6-2.246h1.924l-3.285,4.475,3.535,5.03h-1.978l-1.951-2.953-0.519-.8-2.5,3.75H167.36Z" transform="translate(-6 -4.368)"/><path class="cls-3" d="M183.618,386.743a5.992,5.992,0,0,1-1.723,1.074,4.974,4.974,0,0,1-1.776.313,3.453,3.453,0,0,1-2.408-.766,2.525,2.525,0,0,1-.841-1.955,2.6,2.6,0,0,1,.318-1.275,2.638,2.638,0,0,1,.833-0.927,3.914,3.914,0,0,1,1.159-.527,11.512,11.512,0,0,1,1.432-.242,14.739,14.739,0,0,0,2.873-.555c0.006-.221.009-0.361,0.009-0.421a1.778,1.778,0,0,0-.457-1.387,2.694,2.694,0,0,0-1.834-.546,2.844,2.844,0,0,0-1.678.4,2.43,2.43,0,0,0-.8,1.409l-1.575-.215a3.9,3.9,0,0,1,.707-1.634,3.1,3.1,0,0,1,1.423-.957,6.349,6.349,0,0,1,2.157-.336,5.723,5.723,0,0,1,1.978.286,2.613,2.613,0,0,1,1.119.721,2.541,2.541,0,0,1,.5,1.1,9.065,9.065,0,0,1,.081,1.485v2.148a22.9,22.9,0,0,0,.1,2.842,3.6,3.6,0,0,0,.407,1.141H183.94A3.4,3.4,0,0,1,183.618,386.743Zm-0.134-3.6a11.788,11.788,0,0,1-2.631.608,6.112,6.112,0,0,0-1.405.322,1.405,1.405,0,0,0-.635.523,1.425,1.425,0,0,0,.264,1.84,2.1,2.1,0,0,0,1.427.43,3.322,3.322,0,0,0,1.656-.407,2.509,2.509,0,0,0,1.065-1.114,3.9,3.9,0,0,0,.26-1.611v-0.591Z" transform="translate(-6 -4.368)"/><path class="cls-3" d="M189.1,387.916h-1.5V374.8h1.611v4.681a3.186,3.186,0,0,1,2.6-1.28,4,4,0,0,1,1.66.354,3.405,3.405,0,0,1,1.288.993,4.78,4.78,0,0,1,.792,1.544,6.356,6.356,0,0,1,.287,1.934,5.431,5.431,0,0,1-1.208,3.776,3.779,3.779,0,0,1-2.9,1.334,3.025,3.025,0,0,1-2.64-1.405v1.19Zm-0.019-4.824a4.933,4.933,0,0,0,.466,2.471,2.3,2.3,0,0,0,3.884.326,4.164,4.164,0,0,0,.77-2.734,4.241,4.241,0,0,0-.738-2.747,2.247,2.247,0,0,0-1.785-.886,2.319,2.319,0,0,0-1.826.917A4.029,4.029,0,0,0,189.077,383.092Z" transform="translate(-6 -4.368)"/><path class="cls-3" d="M197.769,387.916V374.8h1.61v13.12h-1.61Z" transform="translate(-6 -4.368)"/><path class="cls-3" d="M208.383,384.855l1.665,0.205a4.064,4.064,0,0,1-1.459,2.265,4.943,4.943,0,0,1-6.028-.479,5.018,5.018,0,0,1-1.222-3.6,5.252,5.252,0,0,1,1.235-3.723,4.179,4.179,0,0,1,3.2-1.325,4.062,4.062,0,0,1,3.114,1.3,5.155,5.155,0,0,1,1.209,3.651c0,0.1,0,.239-0.01.43H203a3.65,3.65,0,0,0,.886,2.4,2.639,2.639,0,0,0,1.987.833,2.464,2.464,0,0,0,1.513-.466A3.1,3.1,0,0,0,208.383,384.855Zm-5.289-2.6H208.4a3.216,3.216,0,0,0-.608-1.8,2.467,2.467,0,0,0-2-.931,2.558,2.558,0,0,0-1.865.742A2.938,2.938,0,0,0,203.094,382.251Z" transform="translate(-6 -4.368)"/><path class="cls-3" d="M217.4,387.916V374.8h9.486v1.548h-7.75v4.019H226.4V381.9h-7.258v4.467H227.2v1.548H217.4Z" transform="translate(-6 -4.368)"/><path class="cls-3" d="M228.743,385.079l1.594-.251a2.22,2.22,0,0,0,.747,1.468,2.6,2.6,0,0,0,1.714.511,2.52,2.52,0,0,0,1.646-.452,1.352,1.352,0,0,0,.537-1.061,0.978,0.978,0,0,0-.475-0.859,6.964,6.964,0,0,0-1.646-.546,15.089,15.089,0,0,1-2.457-.774,2.343,2.343,0,0,1-1.392-2.179,2.458,2.458,0,0,1,.291-1.178,2.625,2.625,0,0,1,.792-0.9,3.353,3.353,0,0,1,1.025-.47,4.881,4.881,0,0,1,1.392-.192,5.5,5.5,0,0,1,1.964.322,2.67,2.67,0,0,1,1.249.873,3.406,3.406,0,0,1,.555,1.472l-1.575.215a1.723,1.723,0,0,0-.622-1.146,2.275,2.275,0,0,0-1.454-.411,2.635,2.635,0,0,0-1.584.366,1.069,1.069,0,0,0-.475.859,0.885,0.885,0,0,0,.2.563,1.411,1.411,0,0,0,.617.43q0.242,0.091,1.423.412a20.061,20.061,0,0,1,2.386.747,2.431,2.431,0,0,1,1.061.846,2.369,2.369,0,0,1,.385,1.379,2.7,2.7,0,0,1-.471,1.517,3.024,3.024,0,0,1-1.355,1.1,4.932,4.932,0,0,1-2,.39,4.467,4.467,0,0,1-2.823-.77A3.585,3.585,0,0,1,228.743,385.079Z" transform="translate(-6 -4.368)"/><path class="cls-3" d="M242.07,386.475L242.3,387.9a6.022,6.022,0,0,1-1.217.143,2.749,2.749,0,0,1-1.36-.277,1.553,1.553,0,0,1-.681-0.729,5.778,5.778,0,0,1-.2-1.9v-5.469h-1.182v-1.253h1.182v-2.354l1.6-.967v3.32h1.62v1.253h-1.62v5.558a2.815,2.815,0,0,0,.085.887,0.671,0.671,0,0,0,.277.313,1.069,1.069,0,0,0,.551.117A5.226,5.226,0,0,0,242.07,386.475Z" transform="translate(-6 -4.368)"/><path class="cls-3" d="M249.517,386.743a5.991,5.991,0,0,1-1.723,1.074,4.972,4.972,0,0,1-1.776.313,3.452,3.452,0,0,1-2.407-.766,2.522,2.522,0,0,1-.842-1.955,2.655,2.655,0,0,1,1.15-2.2,3.911,3.911,0,0,1,1.159-.527,11.467,11.467,0,0,1,1.432-.242,14.731,14.731,0,0,0,2.873-.555c0.006-.221.009-0.361,0.009-0.421a1.78,1.78,0,0,0-.456-1.387,2.7,2.7,0,0,0-1.835-.546,2.841,2.841,0,0,0-1.678.4,2.428,2.428,0,0,0-.8,1.409l-1.575-.215a3.914,3.914,0,0,1,.707-1.634,3.1,3.1,0,0,1,1.423-.957,6.354,6.354,0,0,1,2.157-.336,5.727,5.727,0,0,1,1.979.286,2.611,2.611,0,0,1,1.118.721,2.535,2.535,0,0,1,.5,1.1,9.049,9.049,0,0,1,.081,1.485v2.148a22.9,22.9,0,0,0,.1,2.842,3.575,3.575,0,0,0,.407,1.141h-1.683A3.417,3.417,0,0,1,249.517,386.743Zm-0.134-3.6a11.787,11.787,0,0,1-2.632.608,6.1,6.1,0,0,0-1.4.322,1.409,1.409,0,0,0-.636.523,1.426,1.426,0,0,0,.264,1.84,2.1,2.1,0,0,0,1.428.43,3.326,3.326,0,0,0,1.656-.407,2.513,2.513,0,0,0,1.064-1.114,3.9,3.9,0,0,0,.26-1.611v-0.591Z" transform="translate(-6 -4.368)"/><path class="cls-3" d="M257.026,386.475l0.232,1.424a6.022,6.022,0,0,1-1.217.143,2.749,2.749,0,0,1-1.36-.277,1.553,1.553,0,0,1-.681-0.729,5.778,5.778,0,0,1-.2-1.9v-5.469h-1.182v-1.253H253.8v-2.354l1.6-.967v3.32h1.62v1.253h-1.62v5.558a2.815,2.815,0,0,0,.085.887,0.671,0.671,0,0,0,.277.313,1.069,1.069,0,0,0,.551.117A5.226,5.226,0,0,0,257.026,386.475Z" transform="translate(-6 -4.368)"/><path class="cls-3" d="M264.925,384.855l1.665,0.205a4.064,4.064,0,0,1-1.459,2.265,4.943,4.943,0,0,1-6.028-.479,5.018,5.018,0,0,1-1.222-3.6,5.252,5.252,0,0,1,1.235-3.723,4.179,4.179,0,0,1,3.2-1.325,4.062,4.062,0,0,1,3.114,1.3,5.155,5.155,0,0,1,1.209,3.651c0,0.1,0,.239-0.01.43h-7.088a3.65,3.65,0,0,0,.886,2.4,2.639,2.639,0,0,0,1.987.833,2.464,2.464,0,0,0,1.513-.466A3.1,3.1,0,0,0,264.925,384.855Zm-5.289-2.6h5.307a3.216,3.216,0,0,0-.608-1.8,2.467,2.467,0,0,0-2-.931,2.558,2.558,0,0,0-1.865.742A2.938,2.938,0,0,0,259.636,382.251Z" transform="translate(-6 -4.368)"/><path class="cls-3" d="M151.908,409.911V398.339h-4.323v-1.548h10.4v1.548h-4.341v11.572h-1.736Z" transform="translate(-6 -4.368)"/><path class="cls-3" d="M164.443,408.738a5.992,5.992,0,0,1-1.723,1.074,4.974,4.974,0,0,1-1.776.313,3.453,3.453,0,0,1-2.408-.766,2.525,2.525,0,0,1-.841-1.955,2.6,2.6,0,0,1,.318-1.275,2.638,2.638,0,0,1,.833-0.927,3.914,3.914,0,0,1,1.159-.527,11.512,11.512,0,0,1,1.432-.242,14.739,14.739,0,0,0,2.873-.555c0.006-.221.009-0.361,0.009-0.421a1.778,1.778,0,0,0-.457-1.387,2.694,2.694,0,0,0-1.834-.546,2.844,2.844,0,0,0-1.678.4,2.43,2.43,0,0,0-.8,1.409l-1.575-.215a3.9,3.9,0,0,1,.707-1.634,3.1,3.1,0,0,1,1.423-.957,6.349,6.349,0,0,1,2.157-.336,5.723,5.723,0,0,1,1.978.286,2.613,2.613,0,0,1,1.119.721,2.541,2.541,0,0,1,.5,1.1,9.065,9.065,0,0,1,.081,1.485v2.148a22.9,22.9,0,0,0,.1,2.842,3.6,3.6,0,0,0,.407,1.141h-1.682A3.4,3.4,0,0,1,164.443,408.738Zm-0.134-3.6a11.788,11.788,0,0,1-2.631.608,6.112,6.112,0,0,0-1.405.322,1.405,1.405,0,0,0-.635.523,1.425,1.425,0,0,0,.264,1.84,2.1,2.1,0,0,0,1.427.43,3.322,3.322,0,0,0,1.656-.407,2.509,2.509,0,0,0,1.065-1.114,3.9,3.9,0,0,0,.26-1.611v-0.591Z" transform="translate(-6 -4.368)"/><path class="cls-3" d="M167.36,409.911l3.473-4.94-3.213-4.564h2.014l1.458,2.229q0.412,0.636.663,1.065,0.393-.592.725-1.048l1.6-2.246h1.924l-3.285,4.475,3.535,5.03h-1.978l-1.951-2.953-0.519-.8-2.5,3.75H167.36Z" transform="translate(-6 -4.368)"/><path class="cls-3" d="M183.618,408.738a5.992,5.992,0,0,1-1.723,1.074,4.974,4.974,0,0,1-1.776.313,3.453,3.453,0,0,1-2.408-.766,2.525,2.525,0,0,1-.841-1.955,2.6,2.6,0,0,1,.318-1.275,2.638,2.638,0,0,1,.833-0.927,3.914,3.914,0,0,1,1.159-.527,11.512,11.512,0,0,1,1.432-.242,14.739,14.739,0,0,0,2.873-.555c0.006-.221.009-0.361,0.009-0.421a1.778,1.778,0,0,0-.457-1.387,2.694,2.694,0,0,0-1.834-.546,2.844,2.844,0,0,0-1.678.4,2.43,2.43,0,0,0-.8,1.409l-1.575-.215a3.9,3.9,0,0,1,.707-1.634,3.1,3.1,0,0,1,1.423-.957,6.349,6.349,0,0,1,2.157-.336,5.723,5.723,0,0,1,1.978.286,2.613,2.613,0,0,1,1.119.721,2.541,2.541,0,0,1,.5,1.1,9.065,9.065,0,0,1,.081,1.485v2.148a22.9,22.9,0,0,0,.1,2.842,3.6,3.6,0,0,0,.407,1.141H183.94A3.4,3.4,0,0,1,183.618,408.738Zm-0.134-3.6a11.788,11.788,0,0,1-2.631.608,6.112,6.112,0,0,0-1.405.322,1.405,1.405,0,0,0-.635.523,1.425,1.425,0,0,0,.264,1.84,2.1,2.1,0,0,0,1.427.43,3.322,3.322,0,0,0,1.656-.407,2.509,2.509,0,0,0,1.065-1.114,3.9,3.9,0,0,0,.26-1.611v-0.591Z" transform="translate(-6 -4.368)"/><path class="cls-3" d="M189.1,409.911h-1.5v-13.12h1.611v4.681a3.186,3.186,0,0,1,2.6-1.28,4,4,0,0,1,1.66.354,3.405,3.405,0,0,1,1.288.993,4.78,4.78,0,0,1,.792,1.544,6.356,6.356,0,0,1,.287,1.934,5.431,5.431,0,0,1-1.208,3.776,3.779,3.779,0,0,1-2.9,1.334,3.025,3.025,0,0,1-2.64-1.405v1.19Zm-0.019-4.824a4.933,4.933,0,0,0,.466,2.471,2.3,2.3,0,0,0,3.884.326,4.164,4.164,0,0,0,.77-2.734,4.241,4.241,0,0,0-.738-2.747,2.247,2.247,0,0,0-1.785-.886,2.319,2.319,0,0,0-1.826.917A4.029,4.029,0,0,0,189.077,405.087Z" transform="translate(-6 -4.368)"/><path class="cls-3" d="M197.769,409.911v-13.12h1.61v13.12h-1.61Z" transform="translate(-6 -4.368)"/><path class="cls-3" d="M208.383,406.851l1.665,0.205a4.064,4.064,0,0,1-1.459,2.265,4.943,4.943,0,0,1-6.028-.479,5.018,5.018,0,0,1-1.222-3.6,5.252,5.252,0,0,1,1.235-3.723,4.179,4.179,0,0,1,3.2-1.325,4.062,4.062,0,0,1,3.114,1.3,5.155,5.155,0,0,1,1.209,3.651c0,0.1,0,.239-0.01.43H203a3.65,3.65,0,0,0,.886,2.4,2.639,2.639,0,0,0,1.987.833,2.464,2.464,0,0,0,1.513-.466A3.1,3.1,0,0,0,208.383,406.851Zm-5.289-2.6H208.4a3.216,3.216,0,0,0-.608-1.8,2.467,2.467,0,0,0-2-.931,2.558,2.558,0,0,0-1.865.742A2.938,2.938,0,0,0,203.094,404.246Z" transform="translate(-6 -4.368)"/><path class="cls-3" d="M217.368,409.911v-13.12h4.949a11.915,11.915,0,0,1,2,.125,3.948,3.948,0,0,1,1.62.613,3.208,3.208,0,0,1,1.051,1.266,4.272,4.272,0,0,1-.666,4.623q-1.065,1.159-3.849,1.159H219.1v5.334h-1.736Zm1.736-6.883H222.5a3.594,3.594,0,0,0,2.39-.626,2.233,2.233,0,0,0,.707-1.764,2.371,2.371,0,0,0-.416-1.409,1.949,1.949,0,0,0-1.1-.774,7.457,7.457,0,0,0-1.62-.116H219.1v4.689Z" transform="translate(-6 -4.368)"/><path class="cls-3" d="M234.8,408.738a5.991,5.991,0,0,1-1.723,1.074,4.972,4.972,0,0,1-1.776.313,3.452,3.452,0,0,1-2.407-.766,2.522,2.522,0,0,1-.842-1.955,2.655,2.655,0,0,1,1.15-2.2,3.911,3.911,0,0,1,1.159-.527,11.467,11.467,0,0,1,1.432-.242,14.731,14.731,0,0,0,2.873-.555c0.006-.221.009-0.361,0.009-0.421a1.78,1.78,0,0,0-.456-1.387,2.7,2.7,0,0,0-1.835-.546,2.841,2.841,0,0,0-1.678.4,2.428,2.428,0,0,0-.8,1.409l-1.575-.215a3.914,3.914,0,0,1,.707-1.634,3.1,3.1,0,0,1,1.423-.957,6.354,6.354,0,0,1,2.157-.336,5.727,5.727,0,0,1,1.979.286,2.611,2.611,0,0,1,1.118.721,2.535,2.535,0,0,1,.5,1.1,9.049,9.049,0,0,1,.081,1.485v2.148a22.9,22.9,0,0,0,.1,2.842,3.575,3.575,0,0,0,.407,1.141h-1.683A3.417,3.417,0,0,1,234.8,408.738Zm-0.134-3.6a11.787,11.787,0,0,1-2.632.608,6.1,6.1,0,0,0-1.4.322,1.409,1.409,0,0,0-.636.523,1.426,1.426,0,0,0,.264,1.84,2.1,2.1,0,0,0,1.428.43,3.326,3.326,0,0,0,1.656-.407,2.513,2.513,0,0,0,1.064-1.114,3.9,3.9,0,0,0,.26-1.611v-0.591Z" transform="translate(-6 -4.368)"/><path class="cls-3" d="M238.8,398.644v-1.853h1.611v1.853H238.8Zm0,11.268v-9.5h1.611v9.5H238.8Z" transform="translate(-6 -4.368)"/><path class="cls-3" d="M249.032,409.911v-1.2a2.958,2.958,0,0,1-2.658,1.414,3.726,3.726,0,0,1-2.09-.627,4.107,4.107,0,0,1-1.477-1.749,6.039,6.039,0,0,1-.523-2.582,6.752,6.752,0,0,1,.474-2.582,3.743,3.743,0,0,1,1.423-1.776,3.8,3.8,0,0,1,2.121-.618,3.178,3.178,0,0,1,1.531.362,3.217,3.217,0,0,1,1.092.944v-4.707h1.6v13.12h-1.494Zm-5.093-4.743a4.13,4.13,0,0,0,.77,2.729,2.323,2.323,0,0,0,1.817.9,2.278,2.278,0,0,0,1.794-.864,3.981,3.981,0,0,0,.738-2.636,4.467,4.467,0,0,0-.752-2.864,2.311,2.311,0,0,0-1.853-.912,2.229,2.229,0,0,0-1.794.877A4.329,4.329,0,0,0,243.939,405.168Z" transform="translate(-6 -4.368)"/><path class="cls-3" d="M253.507,402.241v-1.835h1.835v1.835h-1.835Zm0,7.67v-1.835h1.835v1.835h-1.835Z" transform="translate(-6 -4.368)"/><path class="cls-3" d="M266.6,411.8v-1.611a5.976,5.976,0,0,1-1.965-.541,3.427,3.427,0,0,1-1.307-1.258,4.509,4.509,0,0,1-.64-2.121l1.62-.3a4.078,4.078,0,0,0,.662,1.906,2.347,2.347,0,0,0,1.629.958V403.7a6.743,6.743,0,0,1-2.031-.77,2.98,2.98,0,0,1-1.187-1.19,3.791,3.791,0,0,1,.8-4.511,4.221,4.221,0,0,1,2.416-.877v-0.771h0.948v0.771a3.967,3.967,0,0,1,2.229.823,3.661,3.661,0,0,1,1.271,2.407l-1.665.251a2.766,2.766,0,0,0-.595-1.455,2.2,2.2,0,0,0-1.24-.666v4.645a12.839,12.839,0,0,1,1.611.475,3.982,3.982,0,0,1,1.227.806,3.254,3.254,0,0,1,.729,1.127,4.147,4.147,0,0,1-.811,4.207,3.906,3.906,0,0,1-2.757,1.2V411.8H266.6Zm0-14.105a2.392,2.392,0,0,0-1.481.752,2.238,2.238,0,0,0-.08,2.819,3.167,3.167,0,0,0,1.562.886v-4.457Zm0.948,11.134a2.387,2.387,0,0,0,1.554-.814,2.525,2.525,0,0,0,.612-1.728,2.163,2.163,0,0,0-.434-1.409,3.747,3.747,0,0,0-1.732-.953v4.9Z" transform="translate(-6 -4.368)"/><path class="cls-3" d="M273.232,406.877l1.549-.143a2.687,2.687,0,0,0,.752,1.584,2.064,2.064,0,0,0,1.423.492,2.446,2.446,0,0,0,1.3-.341,2.784,2.784,0,0,0,.918-0.908,5.356,5.356,0,0,0,.6-1.534,8.088,8.088,0,0,0,.241-1.97q0-.107-0.009-0.322a3.683,3.683,0,0,1-1.32,1.249,3.586,3.586,0,0,1-1.812.479,3.662,3.662,0,0,1-2.756-1.182,4.321,4.321,0,0,1-1.128-3.114,4.429,4.429,0,0,1,1.177-3.213,3.931,3.931,0,0,1,2.949-1.217,4.207,4.207,0,0,1,2.34.688,4.309,4.309,0,0,1,1.611,1.965,9.67,9.67,0,0,1,.551,3.691,11.974,11.974,0,0,1-.546,4.006,4.7,4.7,0,0,1-1.625,2.269,4.207,4.207,0,0,1-2.528.778A3.466,3.466,0,0,1,273.232,406.877Zm6.6-5.79a3.156,3.156,0,0,0-.738-2.2,2.315,2.315,0,0,0-1.776-.814,2.455,2.455,0,0,0-1.871.877,3.251,3.251,0,0,0-.8,2.273,2.808,2.808,0,0,0,.757,2.036,2.489,2.489,0,0,0,1.866.783,2.388,2.388,0,0,0,1.839-.783A3.082,3.082,0,0,0,279.829,401.087Z" transform="translate(-6 -4.368)"/><path class="cls-3" d="M283.185,403.44a12,12,0,0,1,.479-3.745,4.66,4.66,0,0,1,1.423-2.188,3.637,3.637,0,0,1,2.377-.77,3.879,3.879,0,0,1,1.853.425,3.54,3.54,0,0,1,1.315,1.226,6.6,6.6,0,0,1,.814,1.951,12.956,12.956,0,0,1,.295,3.1,12.066,12.066,0,0,1-.474,3.728,4.657,4.657,0,0,1-1.419,2.192,3.636,3.636,0,0,1-2.385.774,3.6,3.6,0,0,1-2.98-1.36Q283.185,407.137,283.185,403.44Zm1.655,0q0,3.231.757,4.3a2.161,2.161,0,0,0,3.732,0q0.756-1.074.756-4.3,0-3.24-.756-4.3a2.247,2.247,0,0,0-1.885-1.065,2.065,2.065,0,0,0-1.771.939Q284.841,400.209,284.84,403.44Z" transform="translate(-6 -4.368)"/><path class="cls-3" d="M294.247,409.911v-1.835h1.835v1.835a3.264,3.264,0,0,1-.358,1.634,2.337,2.337,0,0,1-1.137.962l-0.447-.689a1.53,1.53,0,0,0,.752-0.658,2.809,2.809,0,0,0,.269-1.248h-0.913Z" transform="translate(-6 -4.368)"/><path class="cls-3" d="M298.472,403.44a12,12,0,0,1,.479-3.745,4.66,4.66,0,0,1,1.423-2.188,3.637,3.637,0,0,1,2.377-.77,3.879,3.879,0,0,1,1.853.425,3.54,3.54,0,0,1,1.315,1.226,6.6,6.6,0,0,1,.814,1.951,12.956,12.956,0,0,1,.295,3.1,12.066,12.066,0,0,1-.474,3.728,4.657,4.657,0,0,1-1.419,2.192,3.636,3.636,0,0,1-2.385.774,3.6,3.6,0,0,1-2.98-1.36Q298.472,407.137,298.472,403.44Zm1.655,0q0,3.231.757,4.3a2.161,2.161,0,0,0,3.732,0q0.756-1.074.756-4.3,0-3.24-.756-4.3a2.247,2.247,0,0,0-1.885-1.065,2.065,2.065,0,0,0-1.771.939Q300.128,400.209,300.127,403.44Z" transform="translate(-6 -4.368)"/><path class="cls-3" d="M308.665,403.44a12,12,0,0,1,.479-3.745,4.66,4.66,0,0,1,1.423-2.188,3.637,3.637,0,0,1,2.377-.77,3.879,3.879,0,0,1,1.853.425,3.54,3.54,0,0,1,1.315,1.226,6.6,6.6,0,0,1,.814,1.951,12.956,12.956,0,0,1,.295,3.1,12.066,12.066,0,0,1-.474,3.728,4.657,4.657,0,0,1-1.419,2.192,3.636,3.636,0,0,1-2.385.774,3.6,3.6,0,0,1-2.98-1.36Q308.665,407.137,308.665,403.44Zm1.655,0q0,3.231.757,4.3a2.161,2.161,0,0,0,3.732,0q0.756-1.074.756-4.3,0-3.24-.756-4.3a2.247,2.247,0,0,0-1.885-1.065,2.065,2.065,0,0,0-1.771.939Q310.321,400.209,310.32,403.44Z" transform="translate(-6 -4.368)"/><path class="cls-3" d="M318.859,403.44a12,12,0,0,1,.479-3.745,4.66,4.66,0,0,1,1.423-2.188,3.637,3.637,0,0,1,2.377-.77,3.879,3.879,0,0,1,1.853.425,3.54,3.54,0,0,1,1.315,1.226,6.6,6.6,0,0,1,.814,1.951,12.956,12.956,0,0,1,.295,3.1,12.066,12.066,0,0,1-.474,3.728,4.657,4.657,0,0,1-1.419,2.192,3.636,3.636,0,0,1-2.385.774,3.6,3.6,0,0,1-2.98-1.36Q318.859,407.137,318.859,403.44Zm1.655,0q0,3.231.757,4.3a2.161,2.161,0,0,0,3.732,0q0.756-1.074.756-4.3,0-3.24-.756-4.3a2.247,2.247,0,0,0-1.885-1.065,2.065,2.065,0,0,0-1.771.939Q320.516,400.209,320.515,403.44Z" transform="translate(-6 -4.368)"/><path class="cls-3" d="M62.929,147.552h1.736v7.581a8.972,8.972,0,0,1-.448,3.142,3.83,3.83,0,0,1-1.615,1.893,5.721,5.721,0,0,1-3.065.729,6.3,6.3,0,0,1-3.016-.635,3.629,3.629,0,0,1-1.674-1.839,8.767,8.767,0,0,1-.5-3.289v-7.581h1.736v7.572a7.379,7.379,0,0,0,.318,2.52,2.408,2.408,0,0,0,1.092,1.248,3.786,3.786,0,0,0,1.893.439,3.619,3.619,0,0,0,2.73-.868,5,5,0,0,0,.814-3.338v-7.572Z" transform="translate(-6 -4.368)"/><path class="cls-3" d="M67.35,160.672v-9.5H68.8v1.352a3.417,3.417,0,0,1,3.025-1.566,3.964,3.964,0,0,1,1.58.309,2.483,2.483,0,0,1,1.079.81,3.106,3.106,0,0,1,.5,1.19,9.229,9.229,0,0,1,.09,1.566v5.844H73.463v-5.782a4.335,4.335,0,0,0-.188-1.472,1.548,1.548,0,0,0-.667-0.779,2.122,2.122,0,0,0-1.123-.291,2.61,2.61,0,0,0-1.777.653,3.223,3.223,0,0,0-.747,2.479v5.191H67.35Z" transform="translate(-6 -4.368)"/><path class="cls-3" d="M77.508,160.672V147.552h1.611v13.121H77.508Z" transform="translate(-6 -4.368)"/><path class="cls-3" d="M81.625,149.4v-1.853h1.611V149.4H81.625Zm0,11.268v-9.5h1.611v9.5H81.625Z" transform="translate(-6 -4.368)"/><path class="cls-3" d="M85.688,160.672v-9.5h1.441V152.5a3.387,3.387,0,0,1,1.19-1.123,3.347,3.347,0,0,1,1.692-.425,3.129,3.129,0,0,1,1.731.438,2.347,2.347,0,0,1,.953,1.227,3.413,3.413,0,0,1,2.936-1.665,2.893,2.893,0,0,1,2.175.783,3.347,3.347,0,0,1,.761,2.412v6.524h-1.6v-5.987a4.427,4.427,0,0,0-.156-1.392,1.351,1.351,0,0,0-.568-0.685,1.776,1.776,0,0,0-.967-0.259,2.25,2.25,0,0,0-1.665.667,2.938,2.938,0,0,0-.662,2.135v5.522H91.336V154.5a2.721,2.721,0,0,0-.394-1.611,1.492,1.492,0,0,0-1.289-.537,2.34,2.34,0,0,0-1.257.358,2.034,2.034,0,0,0-.837,1.047,5.9,5.9,0,0,0-.259,1.987v4.931H85.688Z" transform="translate(-6 -4.368)"/><path class="cls-3" d="M100.966,149.4v-1.853h1.611V149.4h-1.611Zm0,11.268v-9.5h1.611v9.5h-1.611Z" transform="translate(-6 -4.368)"/><path class="cls-3" d="M108.547,159.231l0.232,1.423a5.956,5.956,0,0,1-1.217.144,2.752,2.752,0,0,1-1.36-.278,1.549,1.549,0,0,1-.68-0.729,5.763,5.763,0,0,1-.2-1.9V152.42h-1.181v-1.253h1.181v-2.354l1.6-.967v3.32h1.62v1.253h-1.62v5.558a2.805,2.805,0,0,0,.085.886,0.671,0.671,0,0,0,.278.313,1.069,1.069,0,0,0,.55.116A5.2,5.2,0,0,0,108.547,159.231Z" transform="translate(-6 -4.368)"/><path class="cls-3" d="M116.445,157.611l1.665,0.206a4.058,4.058,0,0,1-1.459,2.264,4.941,4.941,0,0,1-6.027-.479A5.019,5.019,0,0,1,109.4,156a5.253,5.253,0,0,1,1.235-3.723,4.182,4.182,0,0,1,3.2-1.325,4.064,4.064,0,0,1,3.115,1.3,5.158,5.158,0,0,1,1.208,3.651q0,0.144-.009.43h-7.088a3.652,3.652,0,0,0,.886,2.4,2.637,2.637,0,0,0,1.987.832,2.463,2.463,0,0,0,1.512-.465A3.087,3.087,0,0,0,116.445,157.611Zm-5.29-2.6h5.308a3.223,3.223,0,0,0-.609-1.8,2.47,2.47,0,0,0-2-.931,2.56,2.56,0,0,0-1.866.743A2.941,2.941,0,0,0,111.156,155.007Z" transform="translate(-6 -4.368)"/><path class="cls-3" d="M126.3,160.672v-1.2a2.956,2.956,0,0,1-2.658,1.414,3.728,3.728,0,0,1-2.09-.626,4.117,4.117,0,0,1-1.477-1.75,6.045,6.045,0,0,1-.523-2.582,6.757,6.757,0,0,1,.475-2.582,3.74,3.74,0,0,1,1.423-1.776,3.8,3.8,0,0,1,2.121-.618,3.172,3.172,0,0,1,2.622,1.307v-4.708h1.6v13.121H126.3Zm-5.092-4.744a4.128,4.128,0,0,0,.77,2.73,2.321,2.321,0,0,0,1.817.9,2.277,2.277,0,0,0,1.794-.864,3.982,3.982,0,0,0,.738-2.636,4.471,4.471,0,0,0-.751-2.864,2.313,2.313,0,0,0-1.853-.913,2.232,2.232,0,0,0-1.795.877A4.33,4.33,0,0,0,121.207,155.929Z" transform="translate(-6 -4.368)"/><path class="cls-3" d="M76.774,182.667V169.547h2.613l3.106,9.29q0.429,1.3.626,1.942,0.223-.716.7-2.1l3.142-9.129H89.3v13.121H87.622V171.686l-3.812,10.981H82.243L78.448,171.5v11.169H76.774Z" transform="translate(-6 -4.368)"/><path class="cls-3" d="M98.093,181.5a5.99,5.99,0,0,1-1.723,1.074,4.974,4.974,0,0,1-1.776.313,3.455,3.455,0,0,1-2.408-.765,2.527,2.527,0,0,1-.841-1.956,2.6,2.6,0,0,1,.318-1.275,2.628,2.628,0,0,1,.833-0.926,3.916,3.916,0,0,1,1.159-.528,11.531,11.531,0,0,1,1.432-.242,14.7,14.7,0,0,0,2.873-.555q0.009-.331.009-0.42a1.78,1.78,0,0,0-.457-1.388,2.7,2.7,0,0,0-1.834-.546,2.844,2.844,0,0,0-1.678.4,2.433,2.433,0,0,0-.8,1.41l-1.575-.215a3.894,3.894,0,0,1,.707-1.633,3.1,3.1,0,0,1,1.423-.958,6.337,6.337,0,0,1,2.157-.336,5.71,5.71,0,0,1,1.978.287,2.608,2.608,0,0,1,1.119.72,2.539,2.539,0,0,1,.5,1.1,9.065,9.065,0,0,1,.081,1.485v2.148a22.88,22.88,0,0,0,.1,2.842,3.593,3.593,0,0,0,.407,1.141H98.416A3.4,3.4,0,0,1,98.093,181.5Zm-0.134-3.6a11.811,11.811,0,0,1-2.631.609,6.06,6.06,0,0,0-1.405.322,1.4,1.4,0,0,0-.635.523,1.424,1.424,0,0,0,.264,1.839,2.1,2.1,0,0,0,1.427.429,3.317,3.317,0,0,0,1.656-.407A2.5,2.5,0,0,0,97.7,180.1a3.891,3.891,0,0,0,.26-1.611V177.9Z" transform="translate(-6 -4.368)"/><path class="cls-3" d="M102.067,182.667v-9.5h1.45V174.6a3.936,3.936,0,0,1,1.025-1.333,1.788,1.788,0,0,1,1.034-.322,3.146,3.146,0,0,1,1.656.519l-0.555,1.495a2.306,2.306,0,0,0-1.181-.349,1.536,1.536,0,0,0-.949.317,1.722,1.722,0,0,0-.6.882,6.268,6.268,0,0,0-.269,1.879v4.976h-1.611Z" transform="translate(-6 -4.368)"/><path class="cls-3" d="M108.2,171.4v-1.853h1.611V171.4H108.2Zm0,11.268v-9.5h1.611v9.5H108.2Z" transform="translate(-6 -4.368)"/><path class="cls-3" d="M115.778,181.227l0.232,1.423a5.956,5.956,0,0,1-1.217.144,2.752,2.752,0,0,1-1.36-.278,1.549,1.549,0,0,1-.68-0.729,5.763,5.763,0,0,1-.2-1.9v-5.469h-1.181v-1.253h1.181v-2.354l1.6-.967v3.32h1.62v1.253h-1.62v5.558a2.805,2.805,0,0,0,.085.886,0.671,0.671,0,0,0,.278.313,1.069,1.069,0,0,0,.55.116A5.2,5.2,0,0,0,115.778,181.227Z" transform="translate(-6 -4.368)"/><path class="cls-3" d="M123.226,181.5a5.99,5.99,0,0,1-1.723,1.074,4.974,4.974,0,0,1-1.776.313,3.455,3.455,0,0,1-2.408-.765,2.527,2.527,0,0,1-.841-1.956,2.6,2.6,0,0,1,.318-1.275,2.628,2.628,0,0,1,.833-0.926,3.916,3.916,0,0,1,1.159-.528,11.531,11.531,0,0,1,1.432-.242,14.7,14.7,0,0,0,2.873-.555q0.009-.331.009-0.42a1.78,1.78,0,0,0-.457-1.388,2.7,2.7,0,0,0-1.834-.546,2.844,2.844,0,0,0-1.678.4,2.433,2.433,0,0,0-.8,1.41l-1.575-.215a3.894,3.894,0,0,1,.707-1.633,3.1,3.1,0,0,1,1.423-.958,6.337,6.337,0,0,1,2.157-.336,5.71,5.71,0,0,1,1.978.287,2.608,2.608,0,0,1,1.119.72,2.539,2.539,0,0,1,.5,1.1,9.065,9.065,0,0,1,.081,1.485v2.148a22.88,22.88,0,0,0,.1,2.842,3.593,3.593,0,0,0,.407,1.141h-1.682A3.4,3.4,0,0,1,123.226,181.5Zm-0.134-3.6a11.811,11.811,0,0,1-2.631.609,6.06,6.06,0,0,0-1.405.322,1.4,1.4,0,0,0-.635.523,1.424,1.424,0,0,0,.264,1.839,2.1,2.1,0,0,0,1.427.429,3.317,3.317,0,0,0,1.656-.407,2.5,2.5,0,0,0,1.065-1.114,3.891,3.891,0,0,0,.26-1.611V177.9Z" transform="translate(-6 -4.368)"/><path class="cls-3" d="M127.181,182.667V169.547h1.611v13.121h-1.611Z" transform="translate(-6 -4.368)"/><path class="cls-3" d="M50.764,204.664V191.543h4.52a10.946,10.946,0,0,1,2.336.188,4.447,4.447,0,0,1,1.924.94,5.336,5.336,0,0,1,1.553,2.242,8.8,8.8,0,0,1,.515,3.119,9.154,9.154,0,0,1-.349,2.649,6.414,6.414,0,0,1-.9,1.911,4.759,4.759,0,0,1-1.195,1.19,4.883,4.883,0,0,1-1.566.658,8.956,8.956,0,0,1-2.108.224H50.764Zm1.736-1.548h2.8a6.8,6.8,0,0,0,2.036-.242,2.912,2.912,0,0,0,1.177-.68,4.141,4.141,0,0,0,.962-1.66,8.121,8.121,0,0,0,.344-2.528,6.1,6.1,0,0,0-.676-3.164A3.4,3.4,0,0,0,57.5,193.36a6.783,6.783,0,0,0-2.247-.269H52.5v10.024Z" transform="translate(-6 -4.368)"/><path class="cls-3" d="M70.3,201.6l1.665,0.206a4.058,4.058,0,0,1-1.459,2.264,4.941,4.941,0,0,1-6.027-.479,5.019,5.019,0,0,1-1.222-3.6,5.253,5.253,0,0,1,1.235-3.723,4.182,4.182,0,0,1,3.2-1.325,4.064,4.064,0,0,1,3.115,1.3,5.158,5.158,0,0,1,1.208,3.651q0,0.144-.009.43H64.922a3.652,3.652,0,0,0,.886,2.4,2.637,2.637,0,0,0,1.987.832,2.463,2.463,0,0,0,1.512-.465A3.087,3.087,0,0,0,70.3,201.6Zm-5.29-2.6h5.308a3.223,3.223,0,0,0-.609-1.8,2.47,2.47,0,0,0-2-.931,2.56,2.56,0,0,0-1.866.743A2.941,2.941,0,0,0,65.012,199Z" transform="translate(-6 -4.368)"/><path class="cls-3" d="M80.155,204.664v-1.2a2.956,2.956,0,0,1-2.658,1.414,3.728,3.728,0,0,1-2.09-.626,4.117,4.117,0,0,1-1.477-1.75,6.045,6.045,0,0,1-.523-2.582,6.757,6.757,0,0,1,.475-2.582,3.74,3.74,0,0,1,1.423-1.776,3.8,3.8,0,0,1,2.121-.618,3.172,3.172,0,0,1,2.622,1.307v-4.708h1.6v13.121H80.155Zm-5.092-4.744a4.128,4.128,0,0,0,.77,2.73,2.321,2.321,0,0,0,1.817.9,2.277,2.277,0,0,0,1.794-.864,3.982,3.982,0,0,0,.738-2.636,4.471,4.471,0,0,0-.751-2.864,2.313,2.313,0,0,0-1.853-.913,2.232,2.232,0,0,0-1.795.877A4.33,4.33,0,0,0,75.063,199.92Z" transform="translate(-6 -4.368)"/><path class="cls-3" d="M90.412,204.664v-1.4a3.48,3.48,0,0,1-3.016,1.611,3.843,3.843,0,0,1-1.571-.322,2.588,2.588,0,0,1-1.083-.81,3.028,3.028,0,0,1-.5-1.195,8.147,8.147,0,0,1-.1-1.5v-5.889h1.611v5.271a9.365,9.365,0,0,0,.1,1.7,1.681,1.681,0,0,0,.645,1,2,2,0,0,0,1.217.362,2.654,2.654,0,0,0,1.36-.372,2.067,2.067,0,0,0,.9-1.011,5.08,5.08,0,0,0,.264-1.857v-5.093h1.611v9.5H90.412Z" transform="translate(-6 -4.368)"/><path class="cls-3" d="M100.579,201.183l1.584,0.206a4.111,4.111,0,0,1-1.329,2.564,3.871,3.871,0,0,1-2.627.926A4.081,4.081,0,0,1,95.07,203.6a5.175,5.175,0,0,1-1.186-3.656,6.622,6.622,0,0,1,.51-2.694,3.559,3.559,0,0,1,1.553-1.731,4.6,4.6,0,0,1,2.269-.578,3.944,3.944,0,0,1,2.533.783,3.591,3.591,0,0,1,1.262,2.224l-1.566.242a2.6,2.6,0,0,0-.792-1.441,2.051,2.051,0,0,0-1.374-.483,2.5,2.5,0,0,0-1.978.873,4.146,4.146,0,0,0-.761,2.761,4.281,4.281,0,0,0,.734,2.783,2.388,2.388,0,0,0,1.916.868,2.258,2.258,0,0,0,1.584-.582A2.888,2.888,0,0,0,100.579,201.183Z" transform="translate(-6 -4.368)"/><path class="cls-3" d="M107.059,203.223l0.232,1.423a5.956,5.956,0,0,1-1.217.144,2.752,2.752,0,0,1-1.36-.278,1.549,1.549,0,0,1-.68-0.729,5.763,5.763,0,0,1-.2-1.9v-5.469h-1.181v-1.253h1.181v-2.354l1.6-.967v3.32h1.62v1.253h-1.62v5.558a2.805,2.805,0,0,0,.085.886,0.671,0.671,0,0,0,.278.313,1.069,1.069,0,0,0,.55.116A5.2,5.2,0,0,0,107.059,203.223Z" transform="translate(-6 -4.368)"/><path class="cls-3" d="M108.643,193.4v-1.853h1.611V193.4h-1.611Zm0,11.268v-9.5h1.611v9.5h-1.611Z" transform="translate(-6 -4.368)"/><path class="cls-3" d="M112.106,199.912A4.9,4.9,0,0,1,113.574,196a4.423,4.423,0,0,1,2.989-1.056,4.263,4.263,0,0,1,3.2,1.285,4.884,4.884,0,0,1,1.244,3.548,6.29,6.29,0,0,1-.55,2.886,3.9,3.9,0,0,1-1.6,1.633,4.661,4.661,0,0,1-2.3.582,4.272,4.272,0,0,1-3.226-1.28A5.111,5.111,0,0,1,112.106,199.912Zm1.656,0a4.047,4.047,0,0,0,.8,2.734,2.653,2.653,0,0,0,4,0,4.147,4.147,0,0,0,.8-2.784,3.928,3.928,0,0,0-.8-2.671,2.655,2.655,0,0,0-4,0A4.028,4.028,0,0,0,113.762,199.912Z" transform="translate(-6 -4.368)"/><path class="cls-3" d="M122.9,204.664v-9.5h1.45v1.352a3.417,3.417,0,0,1,3.025-1.566,3.964,3.964,0,0,1,1.58.309,2.483,2.483,0,0,1,1.079.81,3.106,3.106,0,0,1,.5,1.19,9.229,9.229,0,0,1,.09,1.566v5.844h-1.611v-5.782a4.335,4.335,0,0,0-.188-1.472,1.548,1.548,0,0,0-.667-0.779,2.122,2.122,0,0,0-1.123-.291,2.61,2.61,0,0,0-1.777.653,3.223,3.223,0,0,0-.747,2.479v5.191H122.9Z" transform="translate(-6 -4.368)"/></svg>