<svg id="Layer_1" data-name="Layer 1" xmlns="http://www.w3.org/2000/svg" viewBox="0 0 412.176 367.687"><defs><style>.cls-1{fill:#bcbec0;}.cls-2{fill:#11675d;}.cls-3{fill:#00a182;}.cls-4{fill:#11675c;}.cls-5{fill:#fff;}.cls-6{fill:#231f20;}.cls-7{fill:#02a180;}.cls-8{fill:#29538c;}.cls-10,.cls-12,.cls-13,.cls-9{fill:none;}.cls-10,.cls-9{stroke:#fff;stroke-linecap:round;stroke-linejoin:round;stroke-width:2px;}.cls-9{stroke-dasharray:0.001 4.029;}.cls-11{fill:#e2f3f7;}.cls-12{stroke:#25408f;stroke-width:0.666px;}.cls-13{stroke:#000;stroke-width:3px;}</style></defs><title>Preserve_Applicable_Exclusion_Amount</title><rect class="cls-1" width="412.176" height="367.687"/><rect class="cls-2" x="37.619" y="74.584" width="137.392" height="31.404"/><rect class="cls-3" x="37.619" y="159.855" width="137.392" height="65.425"/><polygon points="106.315 157.238 122.89 140.445 89.741 140.445 106.315 157.238"/><rect class="cls-4" x="238.255" y="74.584" width="137.392" height="31.404"/><polygon points="306.951 224.625 323.525 207.833 290.377 207.833 306.951 224.625"/><path class="cls-5" d="M85.844,101.341v-1.15a4.261,4.261,0,0,1-1.4-.387,2.441,2.441,0,0,1-.933-0.9,3.208,3.208,0,0,1-.457-1.515l1.157-.217a2.914,2.914,0,0,0,.473,1.361,1.679,1.679,0,0,0,1.163.684V95.559a4.8,4.8,0,0,1-1.45-.549,2.127,2.127,0,0,1-.847-0.85,2.707,2.707,0,0,1,.572-3.22,3.023,3.023,0,0,1,1.725-.626V89.764h0.677v0.549a2.837,2.837,0,0,1,1.591.588,2.613,2.613,0,0,1,.908,1.719l-1.188.179a1.972,1.972,0,0,0-.425-1.038,1.568,1.568,0,0,0-.885-0.476V94.6a9.119,9.119,0,0,1,1.15.339,2.846,2.846,0,0,1,.875.575,2.315,2.315,0,0,1,.521.805,2.8,2.8,0,0,1-2.546,3.859v1.163H85.844Zm0-10.069a1.7,1.7,0,0,0-1.057.537,1.6,1.6,0,0,0-.058,2.013,2.262,2.262,0,0,0,1.115.632V91.272Zm0.677,7.948a1.709,1.709,0,0,0,1.109-.582,1.8,1.8,0,0,0,.438-1.233,1.544,1.544,0,0,0-.31-1.006,2.674,2.674,0,0,0-1.236-.681v3.5Z" transform="translate(-5.542 -6)"/><path class="cls-5" d="M94.738,99.993h-1.15V92.665a5.966,5.966,0,0,1-1.089.792,7.708,7.708,0,0,1-1.211.594V92.939a6.934,6.934,0,0,0,1.687-1.1A4.32,4.32,0,0,0,94,90.588h0.741v9.4Z" transform="translate(-5.542 -6)"/><path class="cls-5" d="M98.3,99.993v-1.31h1.31v1.31a2.324,2.324,0,0,1-.256,1.166,1.667,1.667,0,0,1-.811.687l-0.32-.492a1.092,1.092,0,0,0,.537-0.47,2,2,0,0,0,.191-0.891H98.3Z" transform="translate(-5.542 -6)"/><path class="cls-5" d="M103.089,94.914a2.162,2.162,0,0,1-1.061-.747A1.956,1.956,0,0,1,101.683,93a2.274,2.274,0,0,1,.735-1.719,3.092,3.092,0,0,1,3.929.016,2.305,2.305,0,0,1,.748,1.734,1.909,1.909,0,0,1-.342,1.134,2.154,2.154,0,0,1-1.038.744,2.52,2.52,0,0,1,1.313.908,2.491,2.491,0,0,1,.45,1.495,2.69,2.69,0,0,1-.85,2.019,3.462,3.462,0,0,1-4.473,0,2.731,2.731,0,0,1-.85-2.048,2.474,2.474,0,0,1,.463-1.53A2.32,2.32,0,0,1,103.089,94.914Zm-0.6,2.377a2.083,2.083,0,0,0,.233.952,1.649,1.649,0,0,0,.693.712,2.029,2.029,0,0,0,.99.252,1.853,1.853,0,0,0,1.361-.531,1.813,1.813,0,0,0,.537-1.348,1.847,1.847,0,0,0-.552-1.374,1.9,1.9,0,0,0-1.383-.543A1.829,1.829,0,0,0,102.488,97.291Zm0.371-4.325a1.459,1.459,0,0,0,.428,1.086,1.517,1.517,0,0,0,1.112.422,1.488,1.488,0,0,0,1.089-.418,1.385,1.385,0,0,0,.425-1.026,1.435,1.435,0,0,0-.437-1.063,1.49,1.49,0,0,0-1.089-.431,1.505,1.505,0,0,0-1.093.421A1.358,1.358,0,0,0,102.859,92.965Z" transform="translate(-5.542 -6)"/><path class="cls-5" d="M108.6,97.54l1.208-.1a2.165,2.165,0,0,0,.623,1.326,1.69,1.69,0,0,0,1.179.444,1.836,1.836,0,0,0,1.406-.626,2.36,2.36,0,0,0,.575-1.661,2.135,2.135,0,0,0-.553-1.553,1.929,1.929,0,0,0-1.447-.568,2,2,0,0,0-1,.252,1.943,1.943,0,0,0-.7.655l-1.08-.141,0.907-4.811h4.658v1.1h-3.738l-0.5,2.517a3.049,3.049,0,0,1,1.77-.588,2.805,2.805,0,0,1,2.07.85,2.971,2.971,0,0,1,.843,2.185,3.411,3.411,0,0,1-.741,2.2,2.968,2.968,0,0,1-2.46,1.137,3.029,3.029,0,0,1-2.086-.715A2.792,2.792,0,0,1,108.6,97.54Z" transform="translate(-5.542 -6)"/><path class="cls-5" d="M115.873,95.374a8.58,8.58,0,0,1,.342-2.674,3.327,3.327,0,0,1,1.016-1.562,2.6,2.6,0,0,1,1.7-.549,2.768,2.768,0,0,1,1.322.3,2.533,2.533,0,0,1,.939.875,4.7,4.7,0,0,1,.582,1.393,9.253,9.253,0,0,1,.21,2.214,8.6,8.6,0,0,1-.338,2.661A3.328,3.328,0,0,1,120.63,99.6a2.6,2.6,0,0,1-1.7.553,2.569,2.569,0,0,1-2.127-.971A6.171,6.171,0,0,1,115.873,95.374Zm1.182,0a5.867,5.867,0,0,0,.54,3.07,1.542,1.542,0,0,0,2.664,0,5.873,5.873,0,0,0,.54-3.066,5.871,5.871,0,0,0-.54-3.073,1.6,1.6,0,0,0-1.345-.76,1.473,1.473,0,0,0-1.265.671A5.941,5.941,0,0,0,117.055,95.374Z" transform="translate(-5.542 -6)"/><path class="cls-5" d="M123.77,99.993v-1.31h1.31v1.31a2.324,2.324,0,0,1-.256,1.166,1.667,1.667,0,0,1-.811.687l-0.32-.492a1.092,1.092,0,0,0,.537-0.47,2,2,0,0,0,.191-0.891H123.77Z" transform="translate(-5.542 -6)"/><path class="cls-5" d="M126.786,95.374a8.58,8.58,0,0,1,.342-2.674,3.327,3.327,0,0,1,1.016-1.562,2.6,2.6,0,0,1,1.7-.549,2.768,2.768,0,0,1,1.322.3,2.533,2.533,0,0,1,.939.875,4.7,4.7,0,0,1,.582,1.393,9.253,9.253,0,0,1,.21,2.214,8.6,8.6,0,0,1-.338,2.661,3.328,3.328,0,0,1-1.013,1.565,2.6,2.6,0,0,1-1.7.553,2.569,2.569,0,0,1-2.127-.971A6.171,6.171,0,0,1,126.786,95.374Zm1.182,0a5.867,5.867,0,0,0,.54,3.07,1.542,1.542,0,0,0,2.664,0,5.873,5.873,0,0,0,.54-3.066,5.871,5.871,0,0,0-.54-3.073,1.6,1.6,0,0,0-1.345-.76,1.473,1.473,0,0,0-1.265.671A5.941,5.941,0,0,0,127.968,95.374Z" transform="translate(-5.542 -6)"/><path class="cls-5" d="M134.063,95.374A8.58,8.58,0,0,1,134.4,92.7a3.327,3.327,0,0,1,1.016-1.562,2.6,2.6,0,0,1,1.7-.549,2.768,2.768,0,0,1,1.322.3,2.533,2.533,0,0,1,.939.875,4.7,4.7,0,0,1,.582,1.393,9.253,9.253,0,0,1,.21,2.214,8.6,8.6,0,0,1-.338,2.661A3.328,3.328,0,0,1,138.82,99.6a2.6,2.6,0,0,1-1.7.553,2.569,2.569,0,0,1-2.127-.971A6.171,6.171,0,0,1,134.063,95.374Zm1.182,0a5.867,5.867,0,0,0,.54,3.07,1.542,1.542,0,0,0,2.664,0,5.873,5.873,0,0,0,.54-3.066,5.871,5.871,0,0,0-.54-3.073,1.6,1.6,0,0,0-1.345-.76,1.473,1.473,0,0,0-1.265.671A5.941,5.941,0,0,0,135.245,95.374Z" transform="translate(-5.542 -6)"/><path class="cls-5" d="M141.34,95.374a8.58,8.58,0,0,1,.342-2.674,3.327,3.327,0,0,1,1.016-1.562,2.6,2.6,0,0,1,1.7-.549,2.768,2.768,0,0,1,1.322.3,2.533,2.533,0,0,1,.939.875,4.7,4.7,0,0,1,.582,1.393,9.253,9.253,0,0,1,.21,2.214,8.6,8.6,0,0,1-.338,2.661A3.328,3.328,0,0,1,146.1,99.6a2.6,2.6,0,0,1-1.7.553,2.569,2.569,0,0,1-2.127-.971A6.171,6.171,0,0,1,141.34,95.374Zm1.182,0a5.867,5.867,0,0,0,.54,3.07,1.542,1.542,0,0,0,2.664,0,5.873,5.873,0,0,0,.54-3.066,5.871,5.871,0,0,0-.54-3.073,1.6,1.6,0,0,0-1.345-.76,1.473,1.473,0,0,0-1.265.671A5.941,5.941,0,0,0,142.522,95.374Z" transform="translate(-5.542 -6)"/><path class="cls-5" d="M286.477,101.668v-1.15a4.254,4.254,0,0,1-1.4-.387,2.446,2.446,0,0,1-.934-0.9,3.208,3.208,0,0,1-.456-1.515l1.156-.217a2.914,2.914,0,0,0,.473,1.361,1.677,1.677,0,0,0,1.163.684V95.886a4.793,4.793,0,0,1-1.45-.549,2.114,2.114,0,0,1-.847-0.85,2.7,2.7,0,0,1,.571-3.22,3.023,3.023,0,0,1,1.726-.626V90.091h0.677v0.549a2.837,2.837,0,0,1,1.591.588,2.608,2.608,0,0,1,.907,1.719l-1.188.179a1.964,1.964,0,0,0-.425-1.038,1.565,1.565,0,0,0-.885-0.476v3.316a9.146,9.146,0,0,1,1.15.339,2.846,2.846,0,0,1,.875.575,2.314,2.314,0,0,1,.521.805,2.739,2.739,0,0,1,.183,1.01,2.761,2.761,0,0,1-2.729,2.849v1.163h-0.677Zm0-10.069a1.707,1.707,0,0,0-1.058.537,1.6,1.6,0,0,0-.058,2.013,2.264,2.264,0,0,0,1.115.632V91.6Zm0.677,7.948a1.708,1.708,0,0,0,1.108-.582,1.8,1.8,0,0,0,.438-1.233,1.541,1.541,0,0,0-.31-1.006,2.669,2.669,0,0,0-1.236-.681v3.5Z" transform="translate(-5.542 -6)"/><path class="cls-5" d="M295.37,100.32h-1.15V92.992a5.927,5.927,0,0,1-1.089.792,7.708,7.708,0,0,1-1.211.594V93.267a6.934,6.934,0,0,0,1.687-1.1,4.32,4.32,0,0,0,1.022-1.252h0.741v9.4Z" transform="translate(-5.542 -6)"/><path class="cls-5" d="M298.936,100.32v-1.31h1.31v1.31a2.319,2.319,0,0,1-.256,1.166,1.664,1.664,0,0,1-.812.687l-0.319-.492a1.092,1.092,0,0,0,.537-0.47,2,2,0,0,0,.191-0.891h-0.651Z" transform="translate(-5.542 -6)"/><path class="cls-5" d="M303.72,95.241a2.166,2.166,0,0,1-1.061-.747,1.959,1.959,0,0,1-.345-1.163,2.276,2.276,0,0,1,.734-1.719,3.093,3.093,0,0,1,3.93.016,2.308,2.308,0,0,1,.748,1.734,1.907,1.907,0,0,1-.343,1.134,2.147,2.147,0,0,1-1.038.744,2.522,2.522,0,0,1,1.313.908,2.494,2.494,0,0,1,.45,1.495,2.69,2.69,0,0,1-.85,2.019,3.462,3.462,0,0,1-4.473,0,2.731,2.731,0,0,1-.85-2.048,2.477,2.477,0,0,1,.463-1.53A2.325,2.325,0,0,1,303.72,95.241Zm-0.6,2.377a2.083,2.083,0,0,0,.233.952,1.646,1.646,0,0,0,.693.712,2.029,2.029,0,0,0,.99.252A1.856,1.856,0,0,0,306.4,99a1.814,1.814,0,0,0,.536-1.348,1.843,1.843,0,0,0-.553-1.374A1.893,1.893,0,0,0,305,95.739,1.83,1.83,0,0,0,303.119,97.618Zm0.371-4.325a1.459,1.459,0,0,0,.428,1.086,1.517,1.517,0,0,0,1.112.422,1.487,1.487,0,0,0,1.089-.418,1.385,1.385,0,0,0,.425-1.026,1.434,1.434,0,0,0-.437-1.063,1.609,1.609,0,0,0-2.182-.01A1.357,1.357,0,0,0,303.49,93.292Z" transform="translate(-5.542 -6)"/><path class="cls-5" d="M309.228,97.867l1.208-.1a2.16,2.16,0,0,0,.623,1.326,1.689,1.689,0,0,0,1.179.444,1.836,1.836,0,0,0,1.405-.626,2.358,2.358,0,0,0,.575-1.661,2.135,2.135,0,0,0-.553-1.553,1.927,1.927,0,0,0-1.447-.568,2,2,0,0,0-1,.252,1.943,1.943,0,0,0-.7.655l-1.08-.141,0.908-4.811H315v1.1H311.26l-0.5,2.517a3.051,3.051,0,0,1,1.77-.588,2.806,2.806,0,0,1,2.07.85,2.968,2.968,0,0,1,.843,2.185,3.411,3.411,0,0,1-.741,2.2,2.967,2.967,0,0,1-2.459,1.137,3.031,3.031,0,0,1-2.087-.715A2.8,2.8,0,0,1,309.228,97.867Z" transform="translate(-5.542 -6)"/><path class="cls-5" d="M316.5,95.7a8.58,8.58,0,0,1,.342-2.674,3.326,3.326,0,0,1,1.016-1.562,2.6,2.6,0,0,1,1.7-.549,2.774,2.774,0,0,1,1.323.3,2.534,2.534,0,0,1,.938.875,4.7,4.7,0,0,1,.582,1.393,9.249,9.249,0,0,1,.211,2.214,8.6,8.6,0,0,1-.339,2.661,3.325,3.325,0,0,1-1.013,1.565,2.6,2.6,0,0,1-1.7.553,2.569,2.569,0,0,1-2.127-.971A6.168,6.168,0,0,1,316.5,95.7Zm1.182,0a5.877,5.877,0,0,0,.54,3.07,1.543,1.543,0,0,0,2.665,0,5.88,5.88,0,0,0,.539-3.066,5.879,5.879,0,0,0-.539-3.073,1.6,1.6,0,0,0-1.346-.76,1.473,1.473,0,0,0-1.265.671A5.936,5.936,0,0,0,317.687,95.7Z" transform="translate(-5.542 -6)"/><path class="cls-5" d="M324.4,100.32v-1.31h1.31v1.31a2.319,2.319,0,0,1-.256,1.166,1.664,1.664,0,0,1-.812.687l-0.319-.492a1.092,1.092,0,0,0,.537-0.47,2,2,0,0,0,.191-0.891H324.4Z" transform="translate(-5.542 -6)"/><path class="cls-5" d="M327.418,95.7a8.58,8.58,0,0,1,.342-2.674,3.326,3.326,0,0,1,1.016-1.562,2.6,2.6,0,0,1,1.7-.549,2.774,2.774,0,0,1,1.323.3,2.534,2.534,0,0,1,.938.875,4.7,4.7,0,0,1,.582,1.393,9.249,9.249,0,0,1,.211,2.214,8.6,8.6,0,0,1-.339,2.661,3.325,3.325,0,0,1-1.013,1.565,2.6,2.6,0,0,1-1.7.553,2.569,2.569,0,0,1-2.127-.971A6.168,6.168,0,0,1,327.418,95.7Zm1.182,0a5.877,5.877,0,0,0,.54,3.07,1.543,1.543,0,0,0,2.665,0,5.88,5.88,0,0,0,.539-3.066,5.879,5.879,0,0,0-.539-3.073,1.6,1.6,0,0,0-1.346-.76,1.473,1.473,0,0,0-1.265.671A5.936,5.936,0,0,0,328.6,95.7Z" transform="translate(-5.542 -6)"/><path class="cls-5" d="M334.7,95.7a8.58,8.58,0,0,1,.342-2.674,3.326,3.326,0,0,1,1.016-1.562,2.6,2.6,0,0,1,1.7-.549,2.774,2.774,0,0,1,1.323.3,2.534,2.534,0,0,1,.938.875,4.7,4.7,0,0,1,.582,1.393A9.249,9.249,0,0,1,340.8,95.7a8.6,8.6,0,0,1-.339,2.661,3.325,3.325,0,0,1-1.013,1.565,2.6,2.6,0,0,1-1.7.553,2.569,2.569,0,0,1-2.127-.971A6.168,6.168,0,0,1,334.7,95.7Zm1.182,0a5.877,5.877,0,0,0,.54,3.07,1.543,1.543,0,0,0,2.665,0,5.88,5.88,0,0,0,.539-3.066,5.879,5.879,0,0,0-.539-3.073,1.6,1.6,0,0,0-1.346-.76,1.473,1.473,0,0,0-1.265.671A5.936,5.936,0,0,0,335.877,95.7Z" transform="translate(-5.542 -6)"/><path class="cls-5" d="M341.972,95.7a8.58,8.58,0,0,1,.342-2.674,3.326,3.326,0,0,1,1.016-1.562,2.6,2.6,0,0,1,1.7-.549,2.774,2.774,0,0,1,1.323.3,2.534,2.534,0,0,1,.938.875,4.7,4.7,0,0,1,.582,1.393,9.249,9.249,0,0,1,.211,2.214,8.6,8.6,0,0,1-.339,2.661,3.325,3.325,0,0,1-1.013,1.565,2.6,2.6,0,0,1-1.7.553,2.569,2.569,0,0,1-2.127-.971A6.168,6.168,0,0,1,341.972,95.7Zm1.182,0a5.877,5.877,0,0,0,.54,3.07,1.543,1.543,0,0,0,2.665,0A5.88,5.88,0,0,0,346.9,95.7a5.879,5.879,0,0,0-.539-3.073,1.6,1.6,0,0,0-1.346-.76,1.473,1.473,0,0,0-1.265.671A5.936,5.936,0,0,0,343.153,95.7Z" transform="translate(-5.542 -6)"/><path class="cls-5" d="M66.752,192.452l1.24,0.313a4.173,4.173,0,0,1-1.4,2.329,3.864,3.864,0,0,1-2.476.8,4.448,4.448,0,0,1-2.463-.617,3.847,3.847,0,0,1-1.444-1.786,6.37,6.37,0,0,1-.5-2.511,5.517,5.517,0,0,1,.559-2.553,3.83,3.83,0,0,1,1.591-1.655,4.646,4.646,0,0,1,2.271-.565,3.841,3.841,0,0,1,2.364.716,3.718,3.718,0,0,1,1.335,2.013l-1.221.287a2.893,2.893,0,0,0-.945-1.488,2.52,2.52,0,0,0-1.559-.467,3.03,3.03,0,0,0-1.8.518,2.732,2.732,0,0,0-1.019,1.39,5.587,5.587,0,0,0-.294,1.8,5.71,5.71,0,0,0,.348,2.086,2.591,2.591,0,0,0,1.083,1.332,3.036,3.036,0,0,0,1.591.441,2.665,2.665,0,0,0,1.763-.6A3.073,3.073,0,0,0,66.752,192.452Z" transform="translate(-5.542 -6)"/><path class="cls-5" d="M69.359,195.736v-6.785h1.035v1.028a2.809,2.809,0,0,1,.731-0.952,1.278,1.278,0,0,1,.738-0.23,2.243,2.243,0,0,1,1.182.371l-0.4,1.067a1.646,1.646,0,0,0-.843-0.249,1.1,1.1,0,0,0-.677.227,1.23,1.23,0,0,0-.428.629,4.473,4.473,0,0,0-.191,1.342v3.552h-1.15Z" transform="translate(-5.542 -6)"/><path class="cls-5" d="M78.256,193.551l1.188,0.147a2.9,2.9,0,0,1-1.042,1.616,3.528,3.528,0,0,1-4.3-.342,3.583,3.583,0,0,1-.872-2.571,3.75,3.75,0,0,1,.882-2.658A2.985,2.985,0,0,1,76.4,188.8a2.9,2.9,0,0,1,2.223.926,3.681,3.681,0,0,1,.863,2.607c0,0.068,0,.17-0.007.307h-5.06a2.607,2.607,0,0,0,.633,1.712,1.882,1.882,0,0,0,1.418.594,1.759,1.759,0,0,0,1.08-.332A2.208,2.208,0,0,0,78.256,193.551Zm-3.776-1.859h3.789a2.3,2.3,0,0,0-.434-1.284,1.764,1.764,0,0,0-1.425-.665,1.828,1.828,0,0,0-1.333.53A2.1,2.1,0,0,0,74.48,191.692Z" transform="translate(-5.542 -6)"/><path class="cls-5" d="M85.291,195.736V194.88a2.111,2.111,0,0,1-1.9,1.009,2.66,2.66,0,0,1-1.492-.447,2.941,2.941,0,0,1-1.054-1.249,4.32,4.32,0,0,1-.374-1.843,4.828,4.828,0,0,1,.338-1.843,2.671,2.671,0,0,1,1.016-1.268,2.714,2.714,0,0,1,1.514-.441,2.26,2.26,0,0,1,1.093.259,2.283,2.283,0,0,1,.779.674V186.37h1.144v9.367H85.291Zm-3.635-3.386A2.947,2.947,0,0,0,82.2,194.3a1.657,1.657,0,0,0,1.3.645,1.627,1.627,0,0,0,1.281-.616,2.845,2.845,0,0,0,.527-1.882,3.191,3.191,0,0,0-.537-2.044,1.65,1.65,0,0,0-1.322-.652,1.594,1.594,0,0,0-1.281.626A3.09,3.09,0,0,0,81.655,192.35Z" transform="translate(-5.542 -6)"/><path class="cls-5" d="M88.172,187.692V186.37h1.15v1.323h-1.15Zm0,8.044v-6.785h1.15v6.785h-1.15Z" transform="translate(-5.542 -6)"/><path class="cls-5" d="M93.584,194.708l0.166,1.016a4.284,4.284,0,0,1-.869.1,1.968,1.968,0,0,1-.971-0.2,1.111,1.111,0,0,1-.486-0.521,4.113,4.113,0,0,1-.141-1.357v-3.9H90.44v-0.895h0.843v-1.681l1.144-.69v2.371h1.157v0.895H92.427v3.967a2,2,0,0,0,.061.633,0.479,0.479,0,0,0,.2.224,0.768,0.768,0,0,0,.393.083A3.755,3.755,0,0,0,93.584,194.708Z" transform="translate(-5.542 -6)"/><path class="cls-5" d="M98.069,192.727l1.169-.1a2.587,2.587,0,0,0,.387,1.153,2.109,2.109,0,0,0,.942.729,3.564,3.564,0,0,0,1.438.278,3.456,3.456,0,0,0,1.252-.21,1.737,1.737,0,0,0,.808-0.579,1.34,1.34,0,0,0,.265-0.8,1.222,1.222,0,0,0-.255-0.77,1.893,1.893,0,0,0-.844-0.552,16.377,16.377,0,0,0-1.667-.457,8.528,8.528,0,0,1-1.808-.584,2.539,2.539,0,0,1-1-.872,2.138,2.138,0,0,1-.329-1.166,2.377,2.377,0,0,1,.4-1.326A2.489,2.489,0,0,1,100,186.53a4.449,4.449,0,0,1,1.718-.32,4.7,4.7,0,0,1,1.837.335,2.648,2.648,0,0,1,1.224.987,2.839,2.839,0,0,1,.46,1.476l-1.188.089a1.914,1.914,0,0,0-.648-1.342,2.525,2.525,0,0,0-1.632-.454,2.618,2.618,0,0,0-1.639.412,1.236,1.236,0,0,0-.515.994,1.066,1.066,0,0,0,.364.831,4.951,4.951,0,0,0,1.869.667,12.432,12.432,0,0,1,2.073.6,2.841,2.841,0,0,1,1.208.956,2.327,2.327,0,0,1,.39,1.332,2.546,2.546,0,0,1-.428,1.409,2.818,2.818,0,0,1-1.23,1.029,4.288,4.288,0,0,1-1.8.367,5.389,5.389,0,0,1-2.131-.371,2.985,2.985,0,0,1-1.348-1.115A3.163,3.163,0,0,1,98.069,192.727Z" transform="translate(-5.542 -6)"/><path class="cls-5" d="M107.071,195.736V186.37h1.15v3.361a2.57,2.57,0,0,1,2.032-.933,2.743,2.743,0,0,1,1.31.3,1.744,1.744,0,0,1,.8.821,3.784,3.784,0,0,1,.24,1.521v4.3h-1.15v-4.3a1.774,1.774,0,0,0-.374-1.255,1.388,1.388,0,0,0-1.057-.393,1.866,1.866,0,0,0-.962.265,1.5,1.5,0,0,0-.642.719,3.308,3.308,0,0,0-.191,1.252v3.712h-1.15Z" transform="translate(-5.542 -6)"/><path class="cls-5" d="M118.993,193.551l1.188,0.147a2.9,2.9,0,0,1-1.042,1.616,3.528,3.528,0,0,1-4.3-.342,3.583,3.583,0,0,1-.872-2.571,3.75,3.75,0,0,1,.882-2.658,2.985,2.985,0,0,1,2.288-.945,2.9,2.9,0,0,1,2.223.926,3.681,3.681,0,0,1,.863,2.607c0,0.068,0,.17-0.007.307h-5.06a2.607,2.607,0,0,0,.633,1.712,1.882,1.882,0,0,0,1.418.594,1.759,1.759,0,0,0,1.08-.332A2.208,2.208,0,0,0,118.993,193.551Zm-3.776-1.859h3.789a2.3,2.3,0,0,0-.434-1.284,1.764,1.764,0,0,0-1.425-.665,1.828,1.828,0,0,0-1.333.53A2.1,2.1,0,0,0,115.217,191.692Z" transform="translate(-5.542 -6)"/><path class="cls-5" d="M121.6,195.736V186.37h1.15v9.367H121.6Z" transform="translate(-5.542 -6)"/><path class="cls-5" d="M127.043,194.708l0.166,1.016a4.284,4.284,0,0,1-.869.1,1.968,1.968,0,0,1-.971-0.2,1.111,1.111,0,0,1-.486-0.521,4.113,4.113,0,0,1-.141-1.357v-3.9H123.9v-0.895h0.843v-1.681l1.144-.69v2.371h1.157v0.895h-1.157v3.967a2,2,0,0,0,.061.633,0.479,0.479,0,0,0,.2.224,0.768,0.768,0,0,0,.393.083A3.755,3.755,0,0,0,127.043,194.708Z" transform="translate(-5.542 -6)"/><path class="cls-5" d="M132.682,193.551l1.188,0.147a2.9,2.9,0,0,1-1.042,1.616,3.528,3.528,0,0,1-4.3-.342,3.583,3.583,0,0,1-.872-2.571,3.75,3.75,0,0,1,.882-2.658,2.985,2.985,0,0,1,2.288-.945,2.9,2.9,0,0,1,2.223.926,3.681,3.681,0,0,1,.863,2.607c0,0.068,0,.17-0.007.307h-5.06a2.607,2.607,0,0,0,.633,1.712,1.882,1.882,0,0,0,1.418.594,1.759,1.759,0,0,0,1.08-.332A2.208,2.208,0,0,0,132.682,193.551Zm-3.776-1.859h3.789a2.3,2.3,0,0,0-.434-1.284,1.764,1.764,0,0,0-1.425-.665,1.828,1.828,0,0,0-1.333.53A2.1,2.1,0,0,0,128.906,191.692Z" transform="translate(-5.542 -6)"/><path class="cls-5" d="M135.3,195.736v-6.785h1.035v1.028a2.809,2.809,0,0,1,.731-0.952,1.278,1.278,0,0,1,.738-0.23,2.243,2.243,0,0,1,1.182.371l-0.4,1.067a1.646,1.646,0,0,0-.843-0.249,1.1,1.1,0,0,0-.677.227,1.23,1.23,0,0,0-.428.629,4.473,4.473,0,0,0-.191,1.342v3.552H135.3Z" transform="translate(-5.542 -6)"/><path class="cls-5" d="M145.837,195.736v-8.261h-3.086V186.37h7.424v1.105h-3.1v8.261h-1.24Z" transform="translate(-5.542 -6)"/><path class="cls-5" d="M150.7,195.736v-6.785h1.035v1.028a2.809,2.809,0,0,1,.731-0.952,1.278,1.278,0,0,1,.738-0.23,2.243,2.243,0,0,1,1.182.371l-0.4,1.067a1.646,1.646,0,0,0-.843-0.249,1.1,1.1,0,0,0-.677.227,1.23,1.23,0,0,0-.428.629,4.473,4.473,0,0,0-.191,1.342v3.552H150.7Z" transform="translate(-5.542 -6)"/><path class="cls-5" d="M159.516,195.736v-1a2.484,2.484,0,0,1-2.153,1.15,2.742,2.742,0,0,1-1.121-.23,1.848,1.848,0,0,1-.773-0.578,2.169,2.169,0,0,1-.354-0.853,5.835,5.835,0,0,1-.07-1.073v-4.2h1.15v3.763a6.7,6.7,0,0,0,.07,1.214,1.2,1.2,0,0,0,.46.712,1.427,1.427,0,0,0,.869.259,1.893,1.893,0,0,0,.971-0.265,1.474,1.474,0,0,0,.642-0.722,3.624,3.624,0,0,0,.188-1.326v-3.635h1.15v6.785h-1.028Z" transform="translate(-5.542 -6)"/><path class="cls-5" d="M161.886,193.711l1.137-.179a1.59,1.59,0,0,0,.534,1.048,1.86,1.86,0,0,0,1.224.364,1.8,1.8,0,0,0,1.175-.322,0.965,0.965,0,0,0,.384-0.757,0.7,0.7,0,0,0-.339-0.613,5,5,0,0,0-1.176-.39,10.727,10.727,0,0,1-1.753-.553,1.675,1.675,0,0,1-.994-1.556,1.75,1.75,0,0,1,.208-0.84,1.866,1.866,0,0,1,.565-0.642,2.386,2.386,0,0,1,.731-0.335,3.491,3.491,0,0,1,.994-0.137,3.927,3.927,0,0,1,1.4.23,1.906,1.906,0,0,1,.892.623,2.441,2.441,0,0,1,.4,1.051l-1.125.153a1.233,1.233,0,0,0-.444-0.818,1.626,1.626,0,0,0-1.039-.294,1.878,1.878,0,0,0-1.131.262,0.763,0.763,0,0,0-.338.613,0.634,0.634,0,0,0,.141.4,1.007,1.007,0,0,0,.44.307q0.173,0.064,1.016.294a14.2,14.2,0,0,1,1.7.534,1.73,1.73,0,0,1,.757.6,1.686,1.686,0,0,1,.274.984,1.929,1.929,0,0,1-.335,1.083,2.167,2.167,0,0,1-.968.786,3.528,3.528,0,0,1-1.431.278,3.188,3.188,0,0,1-2.016-.549A2.556,2.556,0,0,1,161.886,193.711Z" transform="translate(-5.542 -6)"/><path class="cls-5" d="M171.4,194.708l0.166,1.016a4.284,4.284,0,0,1-.869.1,1.968,1.968,0,0,1-.971-0.2,1.111,1.111,0,0,1-.486-0.521,4.113,4.113,0,0,1-.141-1.357v-3.9h-0.843v-0.895H169.1v-1.681l1.144-.69v2.371H171.4v0.895h-1.157v3.967a2,2,0,0,0,.061.633,0.479,0.479,0,0,0,.2.224,0.768,0.768,0,0,0,.393.083A3.755,3.755,0,0,0,171.4,194.708Z" transform="translate(-5.542 -6)"/><path class="cls-5" d="M85.844,212.787v-1.15a4.261,4.261,0,0,1-1.4-.387,2.441,2.441,0,0,1-.933-0.9,3.208,3.208,0,0,1-.457-1.515l1.157-.217a2.914,2.914,0,0,0,.473,1.361,1.679,1.679,0,0,0,1.163.684V207a4.8,4.8,0,0,1-1.45-.549,2.127,2.127,0,0,1-.847-0.85,2.707,2.707,0,0,1,.572-3.22,3.023,3.023,0,0,1,1.725-.626v-0.549h0.677v0.549a2.837,2.837,0,0,1,1.591.588,2.613,2.613,0,0,1,.908,1.719l-1.188.179a1.972,1.972,0,0,0-.425-1.038,1.568,1.568,0,0,0-.885-0.476v3.316a9.119,9.119,0,0,1,1.15.339,2.846,2.846,0,0,1,.875.575,2.315,2.315,0,0,1,.521.805,2.8,2.8,0,0,1-2.546,3.859v1.163H85.844Zm0-10.069a1.7,1.7,0,0,0-1.057.537,1.6,1.6,0,0,0-.058,2.013,2.262,2.262,0,0,0,1.115.632v-3.182Zm0.677,7.948a1.709,1.709,0,0,0,1.109-.582,1.8,1.8,0,0,0,.438-1.233,1.544,1.544,0,0,0-.31-1.006,2.674,2.674,0,0,0-1.236-.681v3.5Z" transform="translate(-5.542 -6)"/><path class="cls-5" d="M94.738,211.438h-1.15V204.11a5.966,5.966,0,0,1-1.089.792,7.708,7.708,0,0,1-1.211.594v-1.112a6.934,6.934,0,0,0,1.687-1.1A4.32,4.32,0,0,0,94,202.034h0.741v9.4Z" transform="translate(-5.542 -6)"/><path class="cls-5" d="M98.3,211.438v-1.31h1.31v1.31a2.324,2.324,0,0,1-.256,1.166,1.667,1.667,0,0,1-.811.687l-0.32-.492a1.092,1.092,0,0,0,.537-0.47,2,2,0,0,0,.191-0.891H98.3Z" transform="translate(-5.542 -6)"/><path class="cls-5" d="M103.089,206.359a2.162,2.162,0,0,1-1.061-.747,1.956,1.956,0,0,1-.345-1.163,2.274,2.274,0,0,1,.735-1.719,3.092,3.092,0,0,1,3.929.016,2.305,2.305,0,0,1,.748,1.734,1.909,1.909,0,0,1-.342,1.134,2.154,2.154,0,0,1-1.038.744,2.52,2.52,0,0,1,1.313.908,2.491,2.491,0,0,1,.45,1.495,2.69,2.69,0,0,1-.85,2.019,3.462,3.462,0,0,1-4.473,0,2.731,2.731,0,0,1-.85-2.048,2.474,2.474,0,0,1,.463-1.53A2.32,2.32,0,0,1,103.089,206.359Zm-0.6,2.377a2.083,2.083,0,0,0,.233.952,1.649,1.649,0,0,0,.693.712,2.029,2.029,0,0,0,.99.252,1.853,1.853,0,0,0,1.361-.531,1.813,1.813,0,0,0,.537-1.348,1.847,1.847,0,0,0-.552-1.374,1.9,1.9,0,0,0-1.383-.543A1.829,1.829,0,0,0,102.488,208.736Zm0.371-4.325a1.459,1.459,0,0,0,.428,1.086,1.517,1.517,0,0,0,1.112.422,1.488,1.488,0,0,0,1.089-.418,1.385,1.385,0,0,0,.425-1.026,1.435,1.435,0,0,0-.437-1.063,1.49,1.49,0,0,0-1.089-.431,1.505,1.505,0,0,0-1.093.421A1.358,1.358,0,0,0,102.859,204.411Z" transform="translate(-5.542 -6)"/><path class="cls-5" d="M108.6,208.985l1.208-.1a2.165,2.165,0,0,0,.623,1.326,1.69,1.69,0,0,0,1.179.444,1.836,1.836,0,0,0,1.406-.626,2.36,2.36,0,0,0,.575-1.661,2.135,2.135,0,0,0-.553-1.553,1.929,1.929,0,0,0-1.447-.568,2,2,0,0,0-1,.252,1.943,1.943,0,0,0-.7.655l-1.08-.141,0.907-4.811h4.658v1.1h-3.738l-0.5,2.517a3.049,3.049,0,0,1,1.77-.588,2.805,2.805,0,0,1,2.07.85,2.971,2.971,0,0,1,.843,2.185,3.411,3.411,0,0,1-.741,2.2,2.968,2.968,0,0,1-2.46,1.137,3.029,3.029,0,0,1-2.086-.715A2.792,2.792,0,0,1,108.6,208.985Z" transform="translate(-5.542 -6)"/><path class="cls-5" d="M115.873,206.819a8.58,8.58,0,0,1,.342-2.674,3.327,3.327,0,0,1,1.016-1.562,2.6,2.6,0,0,1,1.7-.549,2.768,2.768,0,0,1,1.322.3,2.533,2.533,0,0,1,.939.875,4.7,4.7,0,0,1,.582,1.393,9.253,9.253,0,0,1,.21,2.214,8.6,8.6,0,0,1-.338,2.661,3.328,3.328,0,0,1-1.013,1.565,2.6,2.6,0,0,1-1.7.553,2.569,2.569,0,0,1-2.127-.971A6.171,6.171,0,0,1,115.873,206.819Zm1.182,0a5.867,5.867,0,0,0,.54,3.07,1.542,1.542,0,0,0,2.664,0,9,9,0,0,0,0-6.14,1.6,1.6,0,0,0-1.345-.76,1.473,1.473,0,0,0-1.265.671A5.941,5.941,0,0,0,117.055,206.819Z" transform="translate(-5.542 -6)"/><path class="cls-5" d="M123.77,211.438v-1.31h1.31v1.31a2.324,2.324,0,0,1-.256,1.166,1.667,1.667,0,0,1-.811.687l-0.32-.492a1.092,1.092,0,0,0,.537-0.47,2,2,0,0,0,.191-0.891H123.77Z" transform="translate(-5.542 -6)"/><path class="cls-5" d="M126.786,206.819a8.58,8.58,0,0,1,.342-2.674,3.327,3.327,0,0,1,1.016-1.562,2.6,2.6,0,0,1,1.7-.549,2.768,2.768,0,0,1,1.322.3,2.533,2.533,0,0,1,.939.875,4.7,4.7,0,0,1,.582,1.393,9.253,9.253,0,0,1,.21,2.214,8.6,8.6,0,0,1-.338,2.661,3.328,3.328,0,0,1-1.013,1.565,2.6,2.6,0,0,1-1.7.553,2.569,2.569,0,0,1-2.127-.971A6.171,6.171,0,0,1,126.786,206.819Zm1.182,0a5.867,5.867,0,0,0,.54,3.07,1.542,1.542,0,0,0,2.664,0,9,9,0,0,0,0-6.14,1.6,1.6,0,0,0-1.345-.76,1.473,1.473,0,0,0-1.265.671A5.941,5.941,0,0,0,127.968,206.819Z" transform="translate(-5.542 -6)"/><path class="cls-5" d="M134.063,206.819a8.58,8.58,0,0,1,.342-2.674,3.327,3.327,0,0,1,1.016-1.562,2.6,2.6,0,0,1,1.7-.549,2.768,2.768,0,0,1,1.322.3,2.533,2.533,0,0,1,.939.875,4.7,4.7,0,0,1,.582,1.393,9.253,9.253,0,0,1,.21,2.214,8.6,8.6,0,0,1-.338,2.661,3.328,3.328,0,0,1-1.013,1.565,2.6,2.6,0,0,1-1.7.553,2.569,2.569,0,0,1-2.127-.971A6.171,6.171,0,0,1,134.063,206.819Zm1.182,0a5.867,5.867,0,0,0,.54,3.07,1.542,1.542,0,0,0,2.664,0,9,9,0,0,0,0-6.14,1.6,1.6,0,0,0-1.345-.76,1.473,1.473,0,0,0-1.265.671A5.941,5.941,0,0,0,135.245,206.819Z" transform="translate(-5.542 -6)"/><path class="cls-5" d="M141.34,206.819a8.58,8.58,0,0,1,.342-2.674,3.327,3.327,0,0,1,1.016-1.562,2.6,2.6,0,0,1,1.7-.549,2.768,2.768,0,0,1,1.322.3,2.533,2.533,0,0,1,.939.875,4.7,4.7,0,0,1,.582,1.393,9.253,9.253,0,0,1,.21,2.214,8.6,8.6,0,0,1-.338,2.661,3.328,3.328,0,0,1-1.013,1.565,2.6,2.6,0,0,1-1.7.553,2.569,2.569,0,0,1-2.127-.971A6.171,6.171,0,0,1,141.34,206.819Zm1.182,0a5.867,5.867,0,0,0,.54,3.07,1.542,1.542,0,0,0,2.664,0,9,9,0,0,0,0-6.14,1.6,1.6,0,0,0-1.345-.76,1.473,1.473,0,0,0-1.265.671A5.941,5.941,0,0,0,142.522,206.819Z" transform="translate(-5.542 -6)"/><path class="cls-6" d="M277.829,313.933v-9.366H279.1l4.919,7.354v-7.354h1.188v9.366h-1.271l-4.919-7.36v7.36h-1.188Z" transform="translate(-5.542 -6)"/><path class="cls-6" d="M286.716,310.54a3.494,3.494,0,0,1,1.048-2.792,3.155,3.155,0,0,1,2.134-.754,3.043,3.043,0,0,1,2.287.917,3.489,3.489,0,0,1,.889,2.533,4.48,4.48,0,0,1-.394,2.061,2.783,2.783,0,0,1-1.144,1.166,3.334,3.334,0,0,1-1.639.415,3.05,3.05,0,0,1-2.3-.914A3.65,3.65,0,0,1,286.716,310.54Zm1.182,0a2.887,2.887,0,0,0,.569,1.952,1.892,1.892,0,0,0,2.855,0,2.957,2.957,0,0,0,.568-1.986,2.8,2.8,0,0,0-.571-1.907,1.9,1.9,0,0,0-2.853,0A2.875,2.875,0,0,0,287.9,310.54Z" transform="translate(-5.542 -6)"/><path class="cls-6" d="M294.421,313.933v-6.785h1.035v0.965a2.439,2.439,0,0,1,2.159-1.118,2.824,2.824,0,0,1,1.128.221,1.77,1.77,0,0,1,.771.578,2.226,2.226,0,0,1,.357.85,6.559,6.559,0,0,1,.063,1.118v4.172h-1.149v-4.127a3.091,3.091,0,0,0-.135-1.052,1.107,1.107,0,0,0-.476-0.556,1.511,1.511,0,0,0-.8-0.208,1.865,1.865,0,0,0-1.269.467,2.3,2.3,0,0,0-.533,1.77v3.706h-1.15Z" transform="translate(-5.542 -6)"/><path class="cls-6" d="M301.251,311.121v-1.156h3.533v1.156h-3.533Z" transform="translate(-5.542 -6)"/><path class="cls-6" d="M308.566,312.9l0.167,1.016a4.265,4.265,0,0,1-.869.1,1.971,1.971,0,0,1-.972-0.2,1.111,1.111,0,0,1-.485-0.521,4.122,4.122,0,0,1-.141-1.358v-3.9h-0.843v-0.895h0.843v-1.681l1.144-.689v2.37h1.156v0.895H307.41v3.968a2.009,2.009,0,0,0,.061.632,0.478,0.478,0,0,0,.2.224,0.764,0.764,0,0,0,.394.083A3.8,3.8,0,0,0,308.566,312.9Z" transform="translate(-5.542 -6)"/><path class="cls-6" d="M313.9,313.1a4.286,4.286,0,0,1-1.229.767,3.552,3.552,0,0,1-1.269.224,2.467,2.467,0,0,1-1.719-.546,1.8,1.8,0,0,1-.6-1.4,1.889,1.889,0,0,1,.821-1.571,2.792,2.792,0,0,1,.827-0.377,8.261,8.261,0,0,1,1.022-.173,10.47,10.47,0,0,0,2.051-.4c0-.157.007-0.257,0.007-0.3a1.27,1.27,0,0,0-.326-0.99,1.925,1.925,0,0,0-1.31-.39,2.033,2.033,0,0,0-1.2.284,1.737,1.737,0,0,0-.572,1.006l-1.124-.153a2.787,2.787,0,0,1,.5-1.166,2.214,2.214,0,0,1,1.016-.684,4.546,4.546,0,0,1,1.54-.239,4.092,4.092,0,0,1,1.412.2,1.869,1.869,0,0,1,.8.515,1.821,1.821,0,0,1,.357.782,6.506,6.506,0,0,1,.058,1.061v1.534a16.33,16.33,0,0,0,.073,2.028,2.539,2.539,0,0,0,.291.814h-1.2A2.442,2.442,0,0,1,313.9,313.1Zm-0.1-2.568a8.456,8.456,0,0,1-1.878.435,4.377,4.377,0,0,0-1,.229,1.006,1.006,0,0,0-.453.374,1.015,1.015,0,0,0,.188,1.313,1.494,1.494,0,0,0,1.019.308,2.38,2.38,0,0,0,1.183-.291,1.793,1.793,0,0,0,.76-0.8,2.766,2.766,0,0,0,.186-1.149v-0.422Z" transform="translate(-5.542 -6)"/><path class="cls-6" d="M315.979,313.933l2.479-3.526-2.294-3.259H317.6l1.041,1.591q0.294,0.454.473,0.761,0.281-.422.518-0.748l1.145-1.6h1.373l-2.345,3.194,2.523,3.591h-1.412l-1.393-2.108-0.37-.568-1.783,2.677h-1.393Z" transform="translate(-5.542 -6)"/><path class="cls-6" d="M327.6,313.1a4.286,4.286,0,0,1-1.229.767,3.552,3.552,0,0,1-1.269.224,2.467,2.467,0,0,1-1.719-.546,1.8,1.8,0,0,1-.6-1.4,1.889,1.889,0,0,1,.821-1.571,2.792,2.792,0,0,1,.827-0.377,8.261,8.261,0,0,1,1.022-.173,10.47,10.47,0,0,0,2.051-.4c0-.157.007-0.257,0.007-0.3a1.27,1.27,0,0,0-.326-0.99,1.925,1.925,0,0,0-1.31-.39,2.033,2.033,0,0,0-1.2.284,1.737,1.737,0,0,0-.572,1.006l-1.124-.153a2.787,2.787,0,0,1,.5-1.166,2.214,2.214,0,0,1,1.016-.684,4.546,4.546,0,0,1,1.54-.239,4.092,4.092,0,0,1,1.412.2,1.869,1.869,0,0,1,.8.515,1.821,1.821,0,0,1,.357.782,6.506,6.506,0,0,1,.058,1.061v1.534a16.33,16.33,0,0,0,.073,2.028,2.539,2.539,0,0,0,.291.814h-1.2A2.442,2.442,0,0,1,327.6,313.1Zm-0.1-2.568a8.456,8.456,0,0,1-1.878.435,4.377,4.377,0,0,0-1,.229,1.006,1.006,0,0,0-.453.374,1.015,1.015,0,0,0,.188,1.313,1.494,1.494,0,0,0,1.019.308,2.38,2.38,0,0,0,1.183-.291,1.793,1.793,0,0,0,.76-0.8,2.766,2.766,0,0,0,.186-1.149v-0.422Z" transform="translate(-5.542 -6)"/><path class="cls-6" d="M331.509,313.933h-1.066v-9.366h1.149v3.341a2.278,2.278,0,0,1,1.859-.913,2.853,2.853,0,0,1,1.186.252,2.436,2.436,0,0,1,.92.71,3.439,3.439,0,0,1,.565,1.1,4.565,4.565,0,0,1,.2,1.38,3.875,3.875,0,0,1-.862,2.7,2.7,2.7,0,0,1-2.07.952,2.16,2.16,0,0,1-1.885-1v0.85Zm-0.013-3.443a3.526,3.526,0,0,0,.332,1.763,1.644,1.644,0,0,0,2.773.233,2.976,2.976,0,0,0,.549-1.952,3.026,3.026,0,0,0-.526-1.961,1.605,1.605,0,0,0-1.274-.633,1.655,1.655,0,0,0-1.3.655A2.874,2.874,0,0,0,331.5,310.489Z" transform="translate(-5.542 -6)"/><path class="cls-6" d="M337.7,313.933v-9.366h1.15v9.366H337.7Z" transform="translate(-5.542 -6)"/><path class="cls-6" d="M345.277,311.747l1.188,0.147a2.9,2.9,0,0,1-1.042,1.616,3.527,3.527,0,0,1-4.3-.342,3.578,3.578,0,0,1-.872-2.571,3.75,3.75,0,0,1,.882-2.658,2.984,2.984,0,0,1,2.287-.945,2.9,2.9,0,0,1,2.224.927,3.683,3.683,0,0,1,.862,2.606c0,0.068,0,.17-0.007.307h-5.06a2.6,2.6,0,0,0,.632,1.712,1.883,1.883,0,0,0,1.419.595,1.762,1.762,0,0,0,1.079-.332A2.2,2.2,0,0,0,345.277,311.747Zm-3.776-1.858h3.789a2.3,2.3,0,0,0-.435-1.284,1.763,1.763,0,0,0-1.425-.665,1.826,1.826,0,0,0-1.332.53A2.1,2.1,0,0,0,341.5,309.889Z" transform="translate(-5.542 -6)"/><path class="cls-6" d="M356.19,311.747l1.188,0.147a2.9,2.9,0,0,1-1.042,1.616,3.527,3.527,0,0,1-4.3-.342,3.578,3.578,0,0,1-.872-2.571,3.75,3.75,0,0,1,.882-2.658,2.984,2.984,0,0,1,2.287-.945,2.9,2.9,0,0,1,2.224.927,3.683,3.683,0,0,1,.862,2.606c0,0.068,0,.17-0.007.307h-5.06a2.6,2.6,0,0,0,.632,1.712,1.883,1.883,0,0,0,1.419.595,1.762,1.762,0,0,0,1.079-.332A2.2,2.2,0,0,0,356.19,311.747Zm-3.776-1.858H356.2a2.3,2.3,0,0,0-.435-1.284,1.763,1.763,0,0,0-1.425-.665,1.826,1.826,0,0,0-1.332.53A2.1,2.1,0,0,0,352.414,309.889Z" transform="translate(-5.542 -6)"/><path class="cls-6" d="M358.362,311.907l1.138-.179a1.587,1.587,0,0,0,.533,1.048,1.863,1.863,0,0,0,1.224.364,1.794,1.794,0,0,0,1.176-.323,0.965,0.965,0,0,0,.383-0.757,0.7,0.7,0,0,0-.338-0.613,4.972,4.972,0,0,0-1.176-.39,10.7,10.7,0,0,1-1.754-.553,1.676,1.676,0,0,1-.994-1.556,1.741,1.741,0,0,1,.208-0.84,1.872,1.872,0,0,1,.565-0.643,2.358,2.358,0,0,1,.731-0.335,3.47,3.47,0,0,1,.994-0.138,3.931,3.931,0,0,1,1.4.229,1.906,1.906,0,0,1,.891.623,2.427,2.427,0,0,1,.4,1.052l-1.125.153a1.228,1.228,0,0,0-.443-0.818,1.628,1.628,0,0,0-1.038-.294A1.886,1.886,0,0,0,360,308.2a0.762,0.762,0,0,0-.339.613,0.636,0.636,0,0,0,.141.4,1.018,1.018,0,0,0,.44.307q0.173,0.063,1.016.294a13.972,13.972,0,0,1,1.7.533,1.729,1.729,0,0,1,.757.6,1.686,1.686,0,0,1,.275.984,1.933,1.933,0,0,1-.336,1.083,2.165,2.165,0,0,1-.968.785,3.519,3.519,0,0,1-1.432.278,3.185,3.185,0,0,1-2.016-.55A2.556,2.556,0,0,1,358.362,311.907Z" transform="translate(-5.542 -6)"/><path class="cls-6" d="M367.875,312.9l0.167,1.016a4.265,4.265,0,0,1-.869.1,1.971,1.971,0,0,1-.972-0.2,1.111,1.111,0,0,1-.485-0.521,4.122,4.122,0,0,1-.141-1.358v-3.9h-0.843v-0.895h0.843v-1.681l1.144-.689v2.37h1.156v0.895h-1.156v3.968a2.009,2.009,0,0,0,.061.632,0.478,0.478,0,0,0,.2.224,0.764,0.764,0,0,0,.394.083A3.8,3.8,0,0,0,367.875,312.9Z" transform="translate(-5.542 -6)"/><path class="cls-6" d="M373.192,313.1a4.286,4.286,0,0,1-1.229.767,3.552,3.552,0,0,1-1.269.224,2.467,2.467,0,0,1-1.719-.546,1.8,1.8,0,0,1-.6-1.4,1.889,1.889,0,0,1,.821-1.571,2.792,2.792,0,0,1,.827-0.377,8.261,8.261,0,0,1,1.022-.173,10.47,10.47,0,0,0,2.051-.4c0-.157.007-0.257,0.007-0.3a1.27,1.27,0,0,0-.326-0.99,1.925,1.925,0,0,0-1.31-.39,2.033,2.033,0,0,0-1.2.284,1.737,1.737,0,0,0-.572,1.006l-1.124-.153a2.787,2.787,0,0,1,.5-1.166,2.214,2.214,0,0,1,1.016-.684,4.546,4.546,0,0,1,1.54-.239,4.092,4.092,0,0,1,1.412.2,1.869,1.869,0,0,1,.8.515,1.821,1.821,0,0,1,.357.782,6.506,6.506,0,0,1,.058,1.061v1.534a16.33,16.33,0,0,0,.073,2.028,2.539,2.539,0,0,0,.291.814h-1.2A2.442,2.442,0,0,1,373.192,313.1Zm-0.1-2.568a8.456,8.456,0,0,1-1.878.435,4.377,4.377,0,0,0-1,.229,1.006,1.006,0,0,0-.453.374,1.015,1.015,0,0,0,.188,1.313,1.494,1.494,0,0,0,1.019.308,2.38,2.38,0,0,0,1.183-.291,1.793,1.793,0,0,0,.76-0.8,2.766,2.766,0,0,0,.186-1.149v-0.422Z" transform="translate(-5.542 -6)"/><path class="cls-6" d="M378.553,312.9l0.167,1.016a4.265,4.265,0,0,1-.869.1,1.971,1.971,0,0,1-.972-0.2,1.111,1.111,0,0,1-.485-0.521,4.122,4.122,0,0,1-.141-1.358v-3.9H375.41v-0.895h0.843v-1.681l1.144-.689v2.37h1.156v0.895H377.4v3.968a2.009,2.009,0,0,0,.061.632,0.478,0.478,0,0,0,.2.224,0.764,0.764,0,0,0,.394.083A3.8,3.8,0,0,0,378.553,312.9Z" transform="translate(-5.542 -6)"/><path class="cls-6" d="M384.191,311.747l1.188,0.147a2.9,2.9,0,0,1-1.042,1.616,3.527,3.527,0,0,1-4.3-.342,3.578,3.578,0,0,1-.872-2.571,3.75,3.75,0,0,1,.882-2.658,2.984,2.984,0,0,1,2.287-.945,2.9,2.9,0,0,1,2.224.927,3.683,3.683,0,0,1,.862,2.606c0,0.068,0,.17-0.007.307h-5.06a2.6,2.6,0,0,0,.632,1.712,1.883,1.883,0,0,0,1.419.595,1.762,1.762,0,0,0,1.079-.332A2.2,2.2,0,0,0,384.191,311.747Zm-3.776-1.858H384.2a2.3,2.3,0,0,0-.435-1.284,1.763,1.763,0,0,0-1.425-.665,1.826,1.826,0,0,0-1.332.53A2.1,2.1,0,0,0,380.415,309.889Z" transform="translate(-5.542 -6)"/><path class="cls-6" d="M44.746,117.679h4.949V118.6H45.833V121.5h3.273v0.917H45.833v3.849H44.746v-8.588Z" transform="translate(-5.542 -6)"/><path class="cls-6" d="M50.908,117.9a0.748,0.748,0,0,1,1.493,0A0.748,0.748,0,0,1,50.908,117.9Zm0.2,2h1.073v6.363H51.1V119.9Z" transform="translate(-5.542 -6)"/><path class="cls-6" d="M54.324,119.9h0.89l0.092,1.152h0.039a2.176,2.176,0,0,1,1.807-1.31,1.578,1.578,0,0,1,.681.131l-0.209.942a1.782,1.782,0,0,0-.615-0.1,1.916,1.916,0,0,0-1.61,1.466v4.085H54.324V119.9Z" transform="translate(-5.542 -6)"/><path class="cls-6" d="M58.576,124.828a2.863,2.863,0,0,0,1.872.759,1.066,1.066,0,0,0,1.257-1c0-.655-0.759-0.942-1.453-1.2-0.9-.327-1.9-0.759-1.9-1.833a1.912,1.912,0,0,1,2.187-1.807,3.178,3.178,0,0,1,1.977.72l-0.511.681a2.364,2.364,0,0,0-1.453-.563,0.987,0.987,0,0,0-1.166.917c0,0.6.694,0.825,1.414,1.1,0.917,0.341,1.938.72,1.938,1.925,0,1.034-.825,1.9-2.33,1.9a3.829,3.829,0,0,1-2.37-.877Z" transform="translate(-5.542 -6)"/><path class="cls-6" d="M64.412,120.782H63.469V119.97l1-.065,0.131-1.78h0.9v1.78h1.715v0.877H65.5v3.535c0,0.786.249,1.23,0.982,1.23a2.31,2.31,0,0,0,.72-0.17l0.209,0.812a3.934,3.934,0,0,1-1.178.236c-1.362,0-1.82-.864-1.82-2.121v-3.521Z" transform="translate(-5.542 -6)"/><path class="cls-6" d="M71.4,117.679h2.147c2.645,0,4.059,1.532,4.059,4.255s-1.414,4.333-4.006,4.333H71.4v-8.588Zm2.069,7.7c2,0,3.011-1.27,3.011-3.443s-1.008-3.365-3.011-3.365H72.486v6.808h0.982Z" transform="translate(-5.542 -6)"/><path class="cls-6" d="M81.724,119.748c1.624,0,2.54,1.166,2.54,2.985a3.835,3.835,0,0,1-.039.589H79.93a2.118,2.118,0,0,0,2.121,2.239,2.874,2.874,0,0,0,1.584-.5l0.38,0.707a3.79,3.79,0,0,1-2.095.655A3.366,3.366,0,0,1,81.724,119.748Zm1.6,2.867c0-1.3-.576-2.016-1.571-2.016a1.986,1.986,0,0,0-1.833,2.016h3.4Z" transform="translate(-5.542 -6)"/><path class="cls-6" d="M89.261,122.235a1.328,1.328,0,0,0-1.309-1.6,3.423,3.423,0,0,0-1.9.681l-0.432-.746a4.722,4.722,0,0,1,2.5-.825c1.558,0,2.213,1.035,2.213,2.619v3.9H89.444l-0.091-.759H89.327a3.457,3.457,0,0,1-2.108.917,1.735,1.735,0,0,1-1.872-1.807C85.347,123.23,86.551,122.536,89.261,122.235Zm-1.741,3.325a2.607,2.607,0,0,0,1.741-.851v-1.767c-2.134.262-2.854,0.785-2.854,1.6A0.975,0.975,0,0,0,87.52,125.561Z" transform="translate(-5.542 -6)"/><path class="cls-6" d="M92.544,120.782H91.6V119.97L92.6,119.9l0.131-1.78h0.9v1.78h1.715v0.877H93.63v3.535c0,0.786.249,1.23,0.982,1.23a2.31,2.31,0,0,0,.72-0.17l0.209,0.812a3.934,3.934,0,0,1-1.178.236c-1.362,0-1.82-.864-1.82-2.121v-3.521Z" transform="translate(-5.542 -6)"/><path class="cls-6" d="M96.783,116.946h1.073v2.54l-0.039,1.309a3.043,3.043,0,0,1,2.121-1.047c1.335,0,1.938.864,1.938,2.488v4.032H100.8v-3.888c0-1.191-.367-1.7-1.2-1.7a2.435,2.435,0,0,0-1.741.982v4.608H96.783v-9.321Z" transform="translate(-5.542 -6)"/><rect class="cls-7" x="238.255" y="227.242" width="137.392" height="65.425"/><path class="cls-5" d="M275.174,259.019l1.169-.1a2.589,2.589,0,0,0,.387,1.153,2.115,2.115,0,0,0,.942.729,3.581,3.581,0,0,0,1.438.277,3.439,3.439,0,0,0,1.252-.211,1.736,1.736,0,0,0,.809-0.578,1.341,1.341,0,0,0,.266-0.8,1.22,1.22,0,0,0-.256-0.77,1.9,1.9,0,0,0-.844-0.553,16.63,16.63,0,0,0-1.667-.457,8.461,8.461,0,0,1-1.809-.585,2.527,2.527,0,0,1-1-.872,2.14,2.14,0,0,1-.329-1.166,2.385,2.385,0,0,1,.4-1.325,2.493,2.493,0,0,1,1.176-.937,4.464,4.464,0,0,1,1.719-.319,4.7,4.7,0,0,1,1.837.336,2.652,2.652,0,0,1,1.224.986,2.841,2.841,0,0,1,.46,1.477l-1.188.089a1.918,1.918,0,0,0-.648-1.342,2.526,2.526,0,0,0-1.632-.453,2.624,2.624,0,0,0-1.64.412,1.234,1.234,0,0,0-.514.993,1.065,1.065,0,0,0,.364.831,4.937,4.937,0,0,0,1.868.667,12.453,12.453,0,0,1,2.073.6,2.847,2.847,0,0,1,1.208.955,2.329,2.329,0,0,1,.39,1.332,2.548,2.548,0,0,1-.428,1.409,2.818,2.818,0,0,1-1.23,1.028,4.279,4.279,0,0,1-1.8.368,5.39,5.39,0,0,1-2.131-.371,2.973,2.973,0,0,1-1.348-1.115A3.152,3.152,0,0,1,275.174,259.019Z" transform="translate(-5.542 -6)"/><path class="cls-5" d="M288.821,259.843l1.188,0.147a2.9,2.9,0,0,1-1.042,1.616,3.527,3.527,0,0,1-4.3-.342,3.578,3.578,0,0,1-.872-2.571,3.75,3.75,0,0,1,.882-2.658,2.984,2.984,0,0,1,2.287-.945,2.9,2.9,0,0,1,2.224.927,3.683,3.683,0,0,1,.862,2.606c0,0.068,0,.17-0.007.307h-5.06a2.6,2.6,0,0,0,.632,1.712,1.883,1.883,0,0,0,1.419.595,1.762,1.762,0,0,0,1.079-.332A2.2,2.2,0,0,0,288.821,259.843Zm-3.776-1.858h3.789a2.3,2.3,0,0,0-.435-1.284,1.763,1.763,0,0,0-1.425-.665,1.826,1.826,0,0,0-1.332.53A2.1,2.1,0,0,0,285.045,257.984Z" transform="translate(-5.542 -6)"/><path class="cls-5" d="M295.881,259.543l1.131,0.146a2.932,2.932,0,0,1-.948,1.831,2.769,2.769,0,0,1-1.876.661,2.916,2.916,0,0,1-2.239-.91,3.7,3.7,0,0,1-.847-2.61,4.73,4.73,0,0,1,.364-1.923,2.539,2.539,0,0,1,1.108-1.236,3.3,3.3,0,0,1,1.62-.412,2.817,2.817,0,0,1,1.808.559,2.564,2.564,0,0,1,.9,1.588l-1.118.173a1.859,1.859,0,0,0-.565-1.029,1.466,1.466,0,0,0-.98-0.345,1.787,1.787,0,0,0-1.412.623,2.955,2.955,0,0,0-.543,1.971,3.06,3.06,0,0,0,.523,1.987,1.707,1.707,0,0,0,1.367.62,1.608,1.608,0,0,0,1.131-.416A2.057,2.057,0,0,0,295.881,259.543Z" transform="translate(-5.542 -6)"/><path class="cls-5" d="M297.306,258.636a3.494,3.494,0,0,1,1.048-2.792,3.155,3.155,0,0,1,2.134-.754,3.043,3.043,0,0,1,2.287.917,3.489,3.489,0,0,1,.889,2.533,4.48,4.48,0,0,1-.394,2.061,2.783,2.783,0,0,1-1.144,1.166,3.334,3.334,0,0,1-1.639.415,3.05,3.05,0,0,1-2.3-.914A3.65,3.65,0,0,1,297.306,258.636Zm1.182,0a2.887,2.887,0,0,0,.569,1.952,1.892,1.892,0,0,0,2.855,0,2.957,2.957,0,0,0,.568-1.986,2.8,2.8,0,0,0-.571-1.907,1.9,1.9,0,0,0-2.853,0A2.875,2.875,0,0,0,298.487,258.636Z" transform="translate(-5.542 -6)"/><path class="cls-5" d="M305.011,262.028v-6.785h1.035v0.965a2.439,2.439,0,0,1,2.159-1.118,2.824,2.824,0,0,1,1.128.221,1.77,1.77,0,0,1,.771.578,2.226,2.226,0,0,1,.357.85,6.559,6.559,0,0,1,.063,1.118v4.172h-1.149V257.9a3.091,3.091,0,0,0-.135-1.052,1.107,1.107,0,0,0-.476-0.556,1.511,1.511,0,0,0-.8-0.208,1.865,1.865,0,0,0-1.269.467,2.3,2.3,0,0,0-.533,1.77v3.706h-1.15Z" transform="translate(-5.542 -6)"/><path class="cls-5" d="M316.69,262.028v-0.856a2.109,2.109,0,0,1-1.9,1.01,2.665,2.665,0,0,1-1.492-.447,2.943,2.943,0,0,1-1.054-1.249,4.32,4.32,0,0,1-.374-1.844,4.809,4.809,0,0,1,.339-1.843,2.672,2.672,0,0,1,1.016-1.269,2.714,2.714,0,0,1,1.515-.44,2.257,2.257,0,0,1,1.092.259,2.283,2.283,0,0,1,.779.674v-3.36h1.145v9.366H316.69Zm-3.636-3.387a2.949,2.949,0,0,0,.55,1.949,1.656,1.656,0,0,0,1.3.646,1.627,1.627,0,0,0,1.281-.617,2.839,2.839,0,0,0,.527-1.881,3.194,3.194,0,0,0-.537-2.045,1.65,1.65,0,0,0-1.322-.651,1.591,1.591,0,0,0-1.281.626A3.089,3.089,0,0,0,313.055,258.642Z" transform="translate(-5.542 -6)"/><path class="cls-5" d="M323.349,262.028v-9.366h3.227a7.859,7.859,0,0,1,1.667.134,3.181,3.181,0,0,1,1.374.671,3.817,3.817,0,0,1,1.108,1.6,6.277,6.277,0,0,1,.367,2.227,6.552,6.552,0,0,1-.249,1.892,4.583,4.583,0,0,1-.639,1.363,3.387,3.387,0,0,1-.854.851,3.486,3.486,0,0,1-1.118.469,6.325,6.325,0,0,1-1.5.16h-3.38Zm1.239-1.105h2a4.88,4.88,0,0,0,1.453-.172,2.073,2.073,0,0,0,.84-0.486,2.954,2.954,0,0,0,.688-1.185,5.8,5.8,0,0,0,.246-1.806,4.357,4.357,0,0,0-.482-2.258,2.43,2.43,0,0,0-1.173-1.058,4.84,4.84,0,0,0-1.6-.191h-1.968v7.155Z" transform="translate(-5.542 -6)"/><path class="cls-5" d="M337.3,259.843l1.188,0.147a2.9,2.9,0,0,1-1.042,1.616,3.527,3.527,0,0,1-4.3-.342,3.578,3.578,0,0,1-.872-2.571,3.75,3.75,0,0,1,.882-2.658,2.984,2.984,0,0,1,2.287-.945,2.9,2.9,0,0,1,2.224.927,3.683,3.683,0,0,1,.862,2.606c0,0.068,0,.17-0.007.307h-5.06a2.6,2.6,0,0,0,.632,1.712,1.883,1.883,0,0,0,1.419.595,1.762,1.762,0,0,0,1.079-.332A2.2,2.2,0,0,0,337.3,259.843Zm-3.776-1.858h3.789a2.3,2.3,0,0,0-.435-1.284,1.763,1.763,0,0,0-1.425-.665,1.826,1.826,0,0,0-1.332.53A2.1,2.1,0,0,0,333.52,257.984Z" transform="translate(-5.542 -6)"/><path class="cls-5" d="M344.172,261.191a4.286,4.286,0,0,1-1.229.767,3.552,3.552,0,0,1-1.269.224,2.467,2.467,0,0,1-1.719-.546,1.8,1.8,0,0,1-.6-1.4,1.889,1.889,0,0,1,.821-1.571,2.792,2.792,0,0,1,.827-0.377,8.261,8.261,0,0,1,1.022-.173,10.47,10.47,0,0,0,2.051-.4c0-.157.007-0.257,0.007-0.3a1.27,1.27,0,0,0-.326-0.99,1.925,1.925,0,0,0-1.31-.39,2.033,2.033,0,0,0-1.2.284,1.737,1.737,0,0,0-.572,1.006l-1.124-.153a2.787,2.787,0,0,1,.5-1.166,2.214,2.214,0,0,1,1.016-.684,4.546,4.546,0,0,1,1.54-.239,4.092,4.092,0,0,1,1.412.2,1.869,1.869,0,0,1,.8.515,1.821,1.821,0,0,1,.357.782,6.506,6.506,0,0,1,.058,1.061v1.534a16.33,16.33,0,0,0,.073,2.028,2.539,2.539,0,0,0,.291.814h-1.2A2.442,2.442,0,0,1,344.172,261.191Zm-0.1-2.568a8.456,8.456,0,0,1-1.878.435,4.377,4.377,0,0,0-1,.229,1.006,1.006,0,0,0-.453.374,1.015,1.015,0,0,0,.188,1.313,1.494,1.494,0,0,0,1.019.308,2.38,2.38,0,0,0,1.183-.291,1.793,1.793,0,0,0,.76-0.8,2.766,2.766,0,0,0,.186-1.149v-0.422Z" transform="translate(-5.542 -6)"/><path class="cls-5" d="M349.532,261l0.167,1.016a4.265,4.265,0,0,1-.869.1,1.971,1.971,0,0,1-.972-0.2,1.111,1.111,0,0,1-.485-0.521,4.122,4.122,0,0,1-.141-1.358v-3.9H346.39v-0.895h0.843v-1.681l1.144-.689v2.37h1.156v0.895h-1.156v3.968a2.009,2.009,0,0,0,.061.632,0.478,0.478,0,0,0,.2.224,0.764,0.764,0,0,0,.394.083A3.8,3.8,0,0,0,349.532,261Z" transform="translate(-5.542 -6)"/><path class="cls-5" d="M350.657,262.028v-9.366h1.15v3.36a2.567,2.567,0,0,1,2.031-.933,2.741,2.741,0,0,1,1.311.3,1.743,1.743,0,0,1,.795.821,3.774,3.774,0,0,1,.239,1.521v4.3h-1.149v-4.3a1.779,1.779,0,0,0-.374-1.256,1.39,1.39,0,0,0-1.058-.393,1.87,1.87,0,0,0-.961.265,1.5,1.5,0,0,0-.643.719,3.3,3.3,0,0,0-.191,1.253v3.712h-1.15Z" transform="translate(-5.542 -6)"/><path class="cls-5" d="M286.48,279.078v-1.149a4.231,4.231,0,0,1-1.4-.387,2.45,2.45,0,0,1-.934-0.9,3.208,3.208,0,0,1-.456-1.515l1.156-.217a2.909,2.909,0,0,0,.473,1.36,1.675,1.675,0,0,0,1.163.684V273.3a4.82,4.82,0,0,1-1.45-.55,2.116,2.116,0,0,1-.847-0.85,2.705,2.705,0,0,1,.571-3.221,3.027,3.027,0,0,1,1.726-.626V267.5h0.677v0.55a2.841,2.841,0,0,1,1.591.588,2.61,2.61,0,0,1,.907,1.719l-1.188.179a1.963,1.963,0,0,0-.425-1.038,1.565,1.565,0,0,0-.885-0.476v3.315a9.061,9.061,0,0,1,1.15.339,2.838,2.838,0,0,1,.875.575,2.312,2.312,0,0,1,.521.8,2.741,2.741,0,0,1,.183,1.01,2.761,2.761,0,0,1-2.729,2.85v1.162H286.48Zm0-10.068a1.7,1.7,0,0,0-1.058.536,1.6,1.6,0,0,0-.058,2.013,2.276,2.276,0,0,0,1.115.633V269.01Zm0.677,7.947a1.7,1.7,0,0,0,1.108-.581,1.8,1.8,0,0,0,.438-1.233,1.54,1.54,0,0,0-.31-1.006,2.664,2.664,0,0,0-1.236-.681v3.5Z" transform="translate(-5.542 -6)"/><path class="cls-5" d="M295.374,277.73h-1.15V270.4a5.927,5.927,0,0,1-1.089.792,7.658,7.658,0,0,1-1.211.594v-1.111a6.963,6.963,0,0,0,1.687-1.1,4.321,4.321,0,0,0,1.022-1.253h0.741v9.405Z" transform="translate(-5.542 -6)"/><path class="cls-5" d="M298.939,277.73v-1.31h1.31v1.31a2.319,2.319,0,0,1-.256,1.166,1.658,1.658,0,0,1-.812.687l-0.319-.491a1.1,1.1,0,0,0,.537-0.47,2,2,0,0,0,.191-0.892h-0.651Z" transform="translate(-5.542 -6)"/><path class="cls-5" d="M303.724,272.651a2.168,2.168,0,0,1-1.061-.748,1.956,1.956,0,0,1-.345-1.162,2.275,2.275,0,0,1,.734-1.719,3.09,3.09,0,0,1,3.93.016,2.306,2.306,0,0,1,.748,1.734,1.91,1.91,0,0,1-.343,1.135,2.154,2.154,0,0,1-1.038.744,2.388,2.388,0,0,1,1.764,2.4,2.69,2.69,0,0,1-.85,2.019,3.46,3.46,0,0,1-4.473,0,2.733,2.733,0,0,1-.85-2.048,2.476,2.476,0,0,1,.463-1.53A2.319,2.319,0,0,1,303.724,272.651Zm-0.6,2.377a2.083,2.083,0,0,0,.233.951,1.645,1.645,0,0,0,.693.713,2.029,2.029,0,0,0,.99.252,1.857,1.857,0,0,0,1.361-.53,1.815,1.815,0,0,0,.536-1.348,1.843,1.843,0,0,0-.553-1.374,1.891,1.891,0,0,0-1.383-.543A1.831,1.831,0,0,0,303.123,275.028Zm0.371-4.326a1.457,1.457,0,0,0,.428,1.086,1.517,1.517,0,0,0,1.112.422,1.489,1.489,0,0,0,1.089-.418,1.385,1.385,0,0,0,.425-1.025,1.436,1.436,0,0,0-.437-1.064,1.609,1.609,0,0,0-2.182-.009A1.354,1.354,0,0,0,303.494,270.7Z" transform="translate(-5.542 -6)"/><path class="cls-5" d="M309.231,275.277l1.208-.1a2.164,2.164,0,0,0,.623,1.326,1.69,1.69,0,0,0,1.179.443,1.834,1.834,0,0,0,1.405-.626,2.356,2.356,0,0,0,.575-1.661,2.135,2.135,0,0,0-.553-1.553,1.927,1.927,0,0,0-1.447-.568,2.008,2.008,0,0,0-1,.252,1.953,1.953,0,0,0-.7.655l-1.08-.141,0.908-4.811H315v1.1h-3.737l-0.5,2.518a3.044,3.044,0,0,1,1.77-.588,2.805,2.805,0,0,1,2.07.85,2.968,2.968,0,0,1,.843,2.185,3.411,3.411,0,0,1-.741,2.2,2.969,2.969,0,0,1-2.459,1.138,3.034,3.034,0,0,1-2.087-.716A2.8,2.8,0,0,1,309.231,275.277Z" transform="translate(-5.542 -6)"/><path class="cls-5" d="M316.509,273.111a8.58,8.58,0,0,1,.342-2.674,3.326,3.326,0,0,1,1.016-1.562,2.6,2.6,0,0,1,1.7-.55,2.774,2.774,0,0,1,1.323.3,2.523,2.523,0,0,1,.938.876,4.686,4.686,0,0,1,.582,1.393,9.247,9.247,0,0,1,.211,2.214,8.6,8.6,0,0,1-.339,2.661,3.332,3.332,0,0,1-1.013,1.565,2.6,2.6,0,0,1-1.7.553,2.569,2.569,0,0,1-2.127-.972A6.168,6.168,0,0,1,316.509,273.111Zm1.182,0a5.876,5.876,0,0,0,.54,3.069,1.543,1.543,0,0,0,2.665,0,9.01,9.01,0,0,0,0-6.14,1.6,1.6,0,0,0-1.346-.761,1.473,1.473,0,0,0-1.265.671A5.938,5.938,0,0,0,317.69,273.111Z" transform="translate(-5.542 -6)"/><path class="cls-5" d="M324.406,277.73v-1.31h1.31v1.31a2.319,2.319,0,0,1-.256,1.166,1.658,1.658,0,0,1-.812.687l-0.319-.491a1.1,1.1,0,0,0,.537-0.47,2,2,0,0,0,.191-0.892h-0.651Z" transform="translate(-5.542 -6)"/><path class="cls-5" d="M327.422,273.111a8.58,8.58,0,0,1,.342-2.674,3.326,3.326,0,0,1,1.016-1.562,2.6,2.6,0,0,1,1.7-.55,2.774,2.774,0,0,1,1.323.3,2.523,2.523,0,0,1,.938.876,4.686,4.686,0,0,1,.582,1.393,9.247,9.247,0,0,1,.211,2.214,8.6,8.6,0,0,1-.339,2.661,3.332,3.332,0,0,1-1.013,1.565,2.6,2.6,0,0,1-1.7.553,2.569,2.569,0,0,1-2.127-.972A6.168,6.168,0,0,1,327.422,273.111Zm1.182,0a5.876,5.876,0,0,0,.54,3.069,1.543,1.543,0,0,0,2.665,0,9.01,9.01,0,0,0,0-6.14,1.6,1.6,0,0,0-1.346-.761,1.473,1.473,0,0,0-1.265.671A5.938,5.938,0,0,0,328.6,273.111Z" transform="translate(-5.542 -6)"/><path class="cls-5" d="M334.7,273.111a8.58,8.58,0,0,1,.342-2.674,3.326,3.326,0,0,1,1.016-1.562,2.6,2.6,0,0,1,1.7-.55,2.774,2.774,0,0,1,1.323.3,2.523,2.523,0,0,1,.938.876,4.686,4.686,0,0,1,.582,1.393,9.247,9.247,0,0,1,.211,2.214,8.6,8.6,0,0,1-.339,2.661,3.332,3.332,0,0,1-1.013,1.565,2.6,2.6,0,0,1-1.7.553,2.569,2.569,0,0,1-2.127-.972A6.168,6.168,0,0,1,334.7,273.111Zm1.182,0a5.876,5.876,0,0,0,.54,3.069,1.543,1.543,0,0,0,2.665,0,9.01,9.01,0,0,0,0-6.14,1.6,1.6,0,0,0-1.346-.761,1.473,1.473,0,0,0-1.265.671A5.938,5.938,0,0,0,335.881,273.111Z" transform="translate(-5.542 -6)"/><path class="cls-5" d="M341.976,273.111a8.58,8.58,0,0,1,.342-2.674,3.326,3.326,0,0,1,1.016-1.562,2.6,2.6,0,0,1,1.7-.55,2.774,2.774,0,0,1,1.323.3,2.523,2.523,0,0,1,.938.876,4.686,4.686,0,0,1,.582,1.393,9.247,9.247,0,0,1,.211,2.214,8.6,8.6,0,0,1-.339,2.661,3.332,3.332,0,0,1-1.013,1.565,2.6,2.6,0,0,1-1.7.553,2.569,2.569,0,0,1-2.127-.972A6.168,6.168,0,0,1,341.976,273.111Zm1.182,0a5.876,5.876,0,0,0,.54,3.069,1.543,1.543,0,0,0,2.665,0,9.01,9.01,0,0,0,0-6.14,1.6,1.6,0,0,0-1.346-.761,1.473,1.473,0,0,0-1.265.671A5.938,5.938,0,0,0,343.157,273.111Z" transform="translate(-5.542 -6)"/><path class="cls-6" d="M44.66,245.424v-9.367h1.271l4.92,7.354v-7.354h1.188v9.367H50.768l-4.919-7.36v7.36H44.66Z" transform="translate(-5.542 -6)"/><path class="cls-6" d="M53.547,242.031a3.5,3.5,0,0,1,1.048-2.792,3.157,3.157,0,0,1,2.134-.754,3.045,3.045,0,0,1,2.287.917,3.488,3.488,0,0,1,.888,2.534A4.493,4.493,0,0,1,59.512,244a2.784,2.784,0,0,1-1.144,1.166,3.335,3.335,0,0,1-1.639.415,3.05,3.05,0,0,1-2.3-.914A3.648,3.648,0,0,1,53.547,242.031Zm1.182,0a2.891,2.891,0,0,0,.569,1.952,1.894,1.894,0,0,0,2.856,0,2.96,2.96,0,0,0,.569-1.987,2.8,2.8,0,0,0-.572-1.907,1.9,1.9,0,0,0-2.853,0A2.878,2.878,0,0,0,54.729,242.031Z" transform="translate(-5.542 -6)"/><path class="cls-6" d="M69.533,243.239l1.188,0.147A2.9,2.9,0,0,1,69.68,245a3.528,3.528,0,0,1-4.3-.342,3.583,3.583,0,0,1-.872-2.571,3.75,3.75,0,0,1,.882-2.658,2.985,2.985,0,0,1,2.288-.945,2.9,2.9,0,0,1,2.223.926,3.681,3.681,0,0,1,.863,2.607c0,0.068,0,.17-0.007.307h-5.06a2.607,2.607,0,0,0,.633,1.712,1.882,1.882,0,0,0,1.418.594,1.759,1.759,0,0,0,1.08-.332A2.208,2.208,0,0,0,69.533,243.239Zm-3.776-1.859h3.789a2.3,2.3,0,0,0-.434-1.284,1.764,1.764,0,0,0-1.425-.665,1.828,1.828,0,0,0-1.333.53A2.1,2.1,0,0,0,65.757,241.379Z" transform="translate(-5.542 -6)"/><path class="cls-6" d="M71.7,243.4l1.137-.179a1.59,1.59,0,0,0,.534,1.048,1.86,1.86,0,0,0,1.224.364,1.8,1.8,0,0,0,1.175-.322,0.965,0.965,0,0,0,.384-0.757,0.7,0.7,0,0,0-.339-0.613,5,5,0,0,0-1.176-.39A10.727,10.727,0,0,1,72.89,242a1.675,1.675,0,0,1-.994-1.556,1.75,1.75,0,0,1,.208-0.84,1.866,1.866,0,0,1,.565-0.642,2.386,2.386,0,0,1,.731-0.335,3.491,3.491,0,0,1,.994-0.137,3.927,3.927,0,0,1,1.4.23,1.906,1.906,0,0,1,.892.623,2.441,2.441,0,0,1,.4,1.051l-1.125.153a1.233,1.233,0,0,0-.444-0.818,1.626,1.626,0,0,0-1.039-.294,1.878,1.878,0,0,0-1.131.262,0.763,0.763,0,0,0-.338.613,0.634,0.634,0,0,0,.141.4,1.007,1.007,0,0,0,.44.307q0.173,0.064,1.016.294a14.2,14.2,0,0,1,1.7.534,1.73,1.73,0,0,1,.757.6,1.686,1.686,0,0,1,.274.984A1.929,1.929,0,0,1,77,244.513a2.167,2.167,0,0,1-.968.786,3.528,3.528,0,0,1-1.431.278,3.188,3.188,0,0,1-2.016-.549A2.556,2.556,0,0,1,71.7,243.4Z" transform="translate(-5.542 -6)"/><path class="cls-6" d="M81.218,244.4l0.166,1.016a4.284,4.284,0,0,1-.869.1,1.968,1.968,0,0,1-.971-0.2,1.111,1.111,0,0,1-.486-0.521,4.113,4.113,0,0,1-.141-1.357v-3.9H78.075v-0.895h0.843v-1.681l1.144-.69v2.371h1.157v0.895H80.062V243.5a2,2,0,0,0,.061.633,0.479,0.479,0,0,0,.2.224,0.768,0.768,0,0,0,.393.083A3.755,3.755,0,0,0,81.218,244.4Z" transform="translate(-5.542 -6)"/><path class="cls-6" d="M86.535,244.587a4.281,4.281,0,0,1-1.23.767,3.554,3.554,0,0,1-1.268.224,2.466,2.466,0,0,1-1.719-.546,1.8,1.8,0,0,1-.6-1.4,1.854,1.854,0,0,1,.227-0.91,1.876,1.876,0,0,1,.594-0.662,2.8,2.8,0,0,1,.827-0.377,8.187,8.187,0,0,1,1.022-.172,10.53,10.53,0,0,0,2.051-.4q0.007-.237.006-0.3a1.269,1.269,0,0,0-.326-0.99,1.925,1.925,0,0,0-1.31-.39,2.031,2.031,0,0,0-1.2.285,1.736,1.736,0,0,0-.572,1.006l-1.125-.153a2.781,2.781,0,0,1,.5-1.166,2.211,2.211,0,0,1,1.016-.684,4.532,4.532,0,0,1,1.54-.239,4.075,4.075,0,0,1,1.412.2,1.864,1.864,0,0,1,.8.515,1.81,1.81,0,0,1,.358.783,6.5,6.5,0,0,1,.058,1.061v1.533a16.329,16.329,0,0,0,.073,2.029,2.561,2.561,0,0,0,.291.814h-1.2A2.442,2.442,0,0,1,86.535,244.587Zm-0.1-2.568a8.432,8.432,0,0,1-1.878.434,4.335,4.335,0,0,0-1,.23,1,1,0,0,0-.454.374,1.017,1.017,0,0,0,.188,1.313,1.5,1.5,0,0,0,1.019.307,2.369,2.369,0,0,0,1.182-.291,1.792,1.792,0,0,0,.761-0.8,2.779,2.779,0,0,0,.185-1.15v-0.421Z" transform="translate(-5.542 -6)"/><path class="cls-6" d="M91.9,244.4l0.166,1.016a4.284,4.284,0,0,1-.869.1,1.968,1.968,0,0,1-.971-0.2,1.111,1.111,0,0,1-.486-0.521,4.113,4.113,0,0,1-.141-1.357v-3.9H88.752v-0.895H89.6v-1.681l1.144-.69v2.371H91.9v0.895H90.739V243.5a2,2,0,0,0,.061.633,0.479,0.479,0,0,0,.2.224,0.768,0.768,0,0,0,.393.083A3.755,3.755,0,0,0,91.9,244.4Z" transform="translate(-5.542 -6)"/><path class="cls-6" d="M97.547,243.239l1.188,0.147A2.9,2.9,0,0,1,97.694,245a3.528,3.528,0,0,1-4.3-.342,3.583,3.583,0,0,1-.872-2.571,3.75,3.75,0,0,1,.882-2.658,2.985,2.985,0,0,1,2.288-.945,2.9,2.9,0,0,1,2.223.926,3.681,3.681,0,0,1,.863,2.607c0,0.068,0,.17-0.007.307h-5.06a2.607,2.607,0,0,0,.633,1.712,1.882,1.882,0,0,0,1.418.594,1.759,1.759,0,0,0,1.08-.332A2.208,2.208,0,0,0,97.547,243.239Zm-3.776-1.859H97.56a2.3,2.3,0,0,0-.434-1.284,1.764,1.764,0,0,0-1.425-.665,1.828,1.828,0,0,0-1.333.53A2.1,2.1,0,0,0,93.771,241.379Z" transform="translate(-5.542 -6)"/><path class="cls-6" d="M106.326,244.4l0.166,1.016a4.284,4.284,0,0,1-.869.1,1.968,1.968,0,0,1-.971-0.2,1.111,1.111,0,0,1-.486-0.521,4.113,4.113,0,0,1-.141-1.357v-3.9h-0.843v-0.895h0.843v-1.681l1.144-.69v2.371h1.157v0.895h-1.157V243.5a2,2,0,0,0,.061.633,0.479,0.479,0,0,0,.2.224,0.768,0.768,0,0,0,.393.083A3.755,3.755,0,0,0,106.326,244.4Z" transform="translate(-5.542 -6)"/><path class="cls-6" d="M111.642,244.587a4.281,4.281,0,0,1-1.23.767,3.554,3.554,0,0,1-1.268.224,2.466,2.466,0,0,1-1.719-.546,1.8,1.8,0,0,1-.6-1.4,1.854,1.854,0,0,1,.227-0.91,1.876,1.876,0,0,1,.594-0.662,2.8,2.8,0,0,1,.827-0.377,8.187,8.187,0,0,1,1.022-.172,10.53,10.53,0,0,0,2.051-.4q0.007-.237.006-0.3a1.269,1.269,0,0,0-.326-0.99,1.925,1.925,0,0,0-1.31-.39,2.031,2.031,0,0,0-1.2.285,1.736,1.736,0,0,0-.572,1.006l-1.125-.153a2.781,2.781,0,0,1,.5-1.166,2.211,2.211,0,0,1,1.016-.684,4.532,4.532,0,0,1,1.54-.239,4.075,4.075,0,0,1,1.412.2,1.864,1.864,0,0,1,.8.515,1.81,1.81,0,0,1,.358.783,6.5,6.5,0,0,1,.058,1.061v1.533a16.329,16.329,0,0,0,.073,2.029,2.561,2.561,0,0,0,.291.814h-1.2A2.442,2.442,0,0,1,111.642,244.587Zm-0.1-2.568a8.432,8.432,0,0,1-1.878.434,4.335,4.335,0,0,0-1,.23,1,1,0,0,0-.454.374,1.017,1.017,0,0,0,.188,1.313,1.5,1.5,0,0,0,1.019.307,2.369,2.369,0,0,0,1.182-.291,1.792,1.792,0,0,0,.761-0.8,2.779,2.779,0,0,0,.185-1.15v-0.421Z" transform="translate(-5.542 -6)"/><path class="cls-6" d="M113.725,245.424L116.2,241.9l-2.293-3.258h1.438l1.042,1.591q0.294,0.453.473,0.76,0.281-.422.518-0.748l1.144-1.6H119.9l-2.345,3.194,2.524,3.591h-1.412l-1.393-2.108-0.371-.569-1.782,2.677h-1.393Z" transform="translate(-5.542 -6)"/><rect class="cls-8" x="37.619" y="18.973" width="137.392" height="31.404"/><rect class="cls-8" x="238.255" y="18.973" width="137.392" height="31.404"/><path class="cls-5" d="M84.437,41.427l1.169-.1a2.587,2.587,0,0,0,.387,1.153,2.109,2.109,0,0,0,.942.729,3.564,3.564,0,0,0,1.438.278,3.456,3.456,0,0,0,1.252-.21,1.737,1.737,0,0,0,.808-0.579,1.34,1.34,0,0,0,.265-0.8,1.222,1.222,0,0,0-.255-0.77,1.893,1.893,0,0,0-.844-0.552,16.377,16.377,0,0,0-1.667-.457,8.528,8.528,0,0,1-1.808-.584,2.539,2.539,0,0,1-1-.872,2.138,2.138,0,0,1-.329-1.166,2.377,2.377,0,0,1,.4-1.326,2.489,2.489,0,0,1,1.176-.936,4.449,4.449,0,0,1,1.718-.32,4.7,4.7,0,0,1,1.837.335,2.648,2.648,0,0,1,1.224.987,2.839,2.839,0,0,1,.46,1.476l-1.188.089a1.914,1.914,0,0,0-.648-1.342A2.525,2.525,0,0,0,88.142,36a2.618,2.618,0,0,0-1.639.412,1.236,1.236,0,0,0-.515.994,1.066,1.066,0,0,0,.364.831,4.951,4.951,0,0,0,1.869.667,12.432,12.432,0,0,1,2.073.6,2.841,2.841,0,0,1,1.208.956,2.327,2.327,0,0,1,.39,1.332,2.546,2.546,0,0,1-.428,1.409,2.818,2.818,0,0,1-1.23,1.029,4.288,4.288,0,0,1-1.8.367,5.389,5.389,0,0,1-2.131-.371,2.985,2.985,0,0,1-1.348-1.115A3.163,3.163,0,0,1,84.437,41.427Z" transform="translate(-5.542 -6)"/><path class="cls-5" d="M93.438,47.037V37.651h1.048v0.882a2.58,2.58,0,0,1,.837-0.776,2.294,2.294,0,0,1,1.131-.259,2.679,2.679,0,0,1,1.533.447,2.743,2.743,0,0,1,1,1.262,4.6,4.6,0,0,1,.339,1.786,4.533,4.533,0,0,1-.374,1.875,2.821,2.821,0,0,1-1.086,1.278,2.791,2.791,0,0,1-1.5.444,2.167,2.167,0,0,1-1.032-.243,2.349,2.349,0,0,1-.75-0.613v3.3h-1.15Zm1.042-5.955a2.951,2.951,0,0,0,.53,1.936,1.626,1.626,0,0,0,1.284.626A1.661,1.661,0,0,0,97.607,43a3.076,3.076,0,0,0,.546-2.009,3,3,0,0,0-.533-1.942,1.607,1.607,0,0,0-1.275-.645,1.657,1.657,0,0,0-1.3.687A3.073,3.073,0,0,0,94.48,41.082Z" transform="translate(-5.542 -6)"/><path class="cls-5" d="M100.288,41.044a3.5,3.5,0,0,1,1.048-2.792,3.157,3.157,0,0,1,2.134-.754,3.045,3.045,0,0,1,2.287.917,3.488,3.488,0,0,1,.888,2.534,4.493,4.493,0,0,1-.393,2.061,2.784,2.784,0,0,1-1.144,1.166,3.335,3.335,0,0,1-1.639.415,3.05,3.05,0,0,1-2.3-.914A3.648,3.648,0,0,1,100.288,41.044Zm1.182,0A2.891,2.891,0,0,0,102.039,43a1.894,1.894,0,0,0,2.856,0,2.96,2.96,0,0,0,.569-1.987,2.8,2.8,0,0,0-.572-1.907,1.9,1.9,0,0,0-2.853,0A2.878,2.878,0,0,0,101.47,41.044Z" transform="translate(-5.542 -6)"/><path class="cls-5" d="M112.44,44.437v-1a2.484,2.484,0,0,1-2.153,1.15,2.742,2.742,0,0,1-1.121-.23,1.848,1.848,0,0,1-.773-0.578,2.169,2.169,0,0,1-.354-0.853,5.835,5.835,0,0,1-.07-1.073v-4.2h1.15v3.763a6.7,6.7,0,0,0,.07,1.214,1.2,1.2,0,0,0,.46.712,1.427,1.427,0,0,0,.869.259,1.893,1.893,0,0,0,.971-0.265,1.474,1.474,0,0,0,.642-0.722,3.624,3.624,0,0,0,.188-1.326V37.651h1.15v6.785H112.44Z" transform="translate(-5.542 -6)"/><path class="cls-5" d="M114.81,42.411l1.137-.179a1.59,1.59,0,0,0,.534,1.048,1.86,1.86,0,0,0,1.224.364,1.8,1.8,0,0,0,1.175-.322,0.965,0.965,0,0,0,.384-0.757,0.7,0.7,0,0,0-.339-0.613,5,5,0,0,0-1.176-.39A10.727,10.727,0,0,1,116,41.009,1.675,1.675,0,0,1,115,39.453a1.75,1.75,0,0,1,.208-0.84,1.866,1.866,0,0,1,.565-0.642,2.386,2.386,0,0,1,.731-0.335A3.491,3.491,0,0,1,117.5,37.5a3.927,3.927,0,0,1,1.4.23,1.906,1.906,0,0,1,.892.623,2.441,2.441,0,0,1,.4,1.051l-1.125.153a1.233,1.233,0,0,0-.444-0.818,1.626,1.626,0,0,0-1.039-.294,1.878,1.878,0,0,0-1.131.262,0.763,0.763,0,0,0-.338.613,0.634,0.634,0,0,0,.141.4,1.007,1.007,0,0,0,.44.307q0.173,0.064,1.016.294a14.2,14.2,0,0,1,1.7.534,1.73,1.73,0,0,1,.757.6,1.686,1.686,0,0,1,.274.984,1.929,1.929,0,0,1-.335,1.083,2.167,2.167,0,0,1-.968.786,3.528,3.528,0,0,1-1.431.278,3.188,3.188,0,0,1-2.016-.549A2.556,2.556,0,0,1,114.81,42.411Z" transform="translate(-5.542 -6)"/><path class="cls-5" d="M126.458,42.251l1.188,0.147a2.9,2.9,0,0,1-1.042,1.616,3.528,3.528,0,0,1-4.3-.342,3.583,3.583,0,0,1-.872-2.571,3.75,3.75,0,0,1,.882-2.658A2.985,2.985,0,0,1,124.6,37.5a2.9,2.9,0,0,1,2.223.926,3.681,3.681,0,0,1,.863,2.607c0,0.068,0,.17-0.007.307h-5.06a2.607,2.607,0,0,0,.633,1.712,1.882,1.882,0,0,0,1.418.594,1.759,1.759,0,0,0,1.08-.332A2.208,2.208,0,0,0,126.458,42.251Zm-3.776-1.859h3.789a2.3,2.3,0,0,0-.434-1.284,1.764,1.764,0,0,0-1.425-.665,1.828,1.828,0,0,0-1.333.53A2.1,2.1,0,0,0,122.682,40.392Z" transform="translate(-5.542 -6)"/><path class="cls-5" d="M132.521,44.6l0.556-2.722H132V40.922h1.271l0.473-2.319H132V37.651h1.936l0.556-2.741h0.958l-0.556,2.741H136.9l0.556-2.741h0.965l-0.556,2.741h1.105V38.6h-1.3L137.2,40.922h1.776v0.952h-1.968L136.45,44.6h-0.958l0.55-2.722h-2.006L133.479,44.6h-0.958Zm1.706-3.674h2.006l0.479-2.319H134.7Z" transform="translate(-5.542 -6)"/><path class="cls-5" d="M144.015,44.437h-1.15V37.108a5.966,5.966,0,0,1-1.089.792,7.708,7.708,0,0,1-1.211.594V37.383a6.934,6.934,0,0,0,1.687-1.1,4.32,4.32,0,0,0,1.022-1.252h0.741v9.4Z" transform="translate(-5.542 -6)"/><path class="cls-5" d="M285.068,41.754l1.169-.1a2.587,2.587,0,0,0,.387,1.153,2.109,2.109,0,0,0,.942.729,3.564,3.564,0,0,0,1.438.278,3.45,3.45,0,0,0,1.252-.21,1.736,1.736,0,0,0,.809-0.579,1.34,1.34,0,0,0,.266-0.8,1.223,1.223,0,0,0-.256-0.77,1.9,1.9,0,0,0-.844-0.552,16.354,16.354,0,0,0-1.667-.457,8.524,8.524,0,0,1-1.809-.584,2.539,2.539,0,0,1-1-.872,2.143,2.143,0,0,1-.329-1.166,2.384,2.384,0,0,1,.4-1.326A2.492,2.492,0,0,1,287,35.557a4.455,4.455,0,0,1,1.719-.32,4.7,4.7,0,0,1,1.837.335,2.648,2.648,0,0,1,1.224.987,2.839,2.839,0,0,1,.46,1.476l-1.188.089a1.916,1.916,0,0,0-.648-1.342,2.523,2.523,0,0,0-1.632-.454,2.62,2.62,0,0,0-1.64.412,1.235,1.235,0,0,0-.514.994,1.064,1.064,0,0,0,.364.831,4.943,4.943,0,0,0,1.868.667,12.417,12.417,0,0,1,2.073.6,2.836,2.836,0,0,1,1.208.956,2.327,2.327,0,0,1,.39,1.332,2.55,2.55,0,0,1-.428,1.409,2.822,2.822,0,0,1-1.23,1.029,4.286,4.286,0,0,1-1.8.367,5.39,5.39,0,0,1-2.131-.371,2.978,2.978,0,0,1-1.348-1.115A3.155,3.155,0,0,1,285.068,41.754Z" transform="translate(-5.542 -6)"/><path class="cls-5" d="M294.07,47.364V37.979h1.048V38.86a2.583,2.583,0,0,1,.837-0.776,2.3,2.3,0,0,1,1.131-.259,2.678,2.678,0,0,1,1.533.447,2.748,2.748,0,0,1,1,1.262,4.609,4.609,0,0,1,.338,1.786,4.54,4.54,0,0,1-.373,1.875,2.817,2.817,0,0,1-1.087,1.278,2.787,2.787,0,0,1-1.5.444,2.164,2.164,0,0,1-1.031-.243,2.345,2.345,0,0,1-.751-0.613v3.3h-1.15Zm1.042-5.955a2.951,2.951,0,0,0,.53,1.936,1.625,1.625,0,0,0,1.284.626,1.661,1.661,0,0,0,1.313-.648,3.076,3.076,0,0,0,.547-2.009,3,3,0,0,0-.534-1.942,1.605,1.605,0,0,0-1.274-.645,1.656,1.656,0,0,0-1.3.687A3.073,3.073,0,0,0,295.112,41.409Z" transform="translate(-5.542 -6)"/><path class="cls-5" d="M300.92,41.371a3.5,3.5,0,0,1,1.048-2.792,3.157,3.157,0,0,1,2.134-.754,3.045,3.045,0,0,1,2.287.917,3.491,3.491,0,0,1,.889,2.534,4.479,4.479,0,0,1-.394,2.061A2.777,2.777,0,0,1,305.74,44.5a3.334,3.334,0,0,1-1.639.415A3.052,3.052,0,0,1,301.8,44,3.652,3.652,0,0,1,300.92,41.371Zm1.182,0a2.885,2.885,0,0,0,.569,1.952,1.893,1.893,0,0,0,2.855,0,2.96,2.96,0,0,0,.568-1.987,2.8,2.8,0,0,0-.571-1.907,1.9,1.9,0,0,0-2.853,0A2.873,2.873,0,0,0,302.1,41.371Z" transform="translate(-5.542 -6)"/><path class="cls-5" d="M313.072,44.764v-1a2.484,2.484,0,0,1-2.153,1.15,2.742,2.742,0,0,1-1.121-.23,1.844,1.844,0,0,1-.773-0.578,2.177,2.177,0,0,1-.354-0.853,5.835,5.835,0,0,1-.07-1.073v-4.2h1.15v3.763a6.7,6.7,0,0,0,.07,1.214,1.2,1.2,0,0,0,.46.712,1.426,1.426,0,0,0,.869.259,1.893,1.893,0,0,0,.971-0.265,1.468,1.468,0,0,0,.642-0.722,3.613,3.613,0,0,0,.188-1.326V37.979h1.15v6.785h-1.028Z" transform="translate(-5.542 -6)"/><path class="cls-5" d="M315.442,42.738l1.138-.179a1.588,1.588,0,0,0,.533,1.048,1.86,1.86,0,0,0,1.224.364,1.8,1.8,0,0,0,1.176-.322,0.967,0.967,0,0,0,.383-0.757,0.7,0.7,0,0,0-.338-0.613,5.02,5.02,0,0,0-1.176-.39,10.7,10.7,0,0,1-1.754-.553,1.694,1.694,0,0,1-.741-0.646,1.711,1.711,0,0,1-.253-0.91,1.745,1.745,0,0,1,.208-0.84,1.866,1.866,0,0,1,.565-0.642,2.38,2.38,0,0,1,.731-0.335,3.487,3.487,0,0,1,.994-0.137,3.931,3.931,0,0,1,1.4.23,1.9,1.9,0,0,1,.891.623,2.423,2.423,0,0,1,.4,1.051l-1.125.153a1.228,1.228,0,0,0-.443-0.818,1.625,1.625,0,0,0-1.038-.294,1.878,1.878,0,0,0-1.131.262,0.761,0.761,0,0,0-.339.613,0.634,0.634,0,0,0,.141.4,1.01,1.01,0,0,0,.44.307q0.173,0.064,1.016.294a14.129,14.129,0,0,1,1.7.534,1.726,1.726,0,0,1,.757.6,1.683,1.683,0,0,1,.275.984,1.93,1.93,0,0,1-.336,1.083,2.167,2.167,0,0,1-.968.786,3.527,3.527,0,0,1-1.432.278,3.191,3.191,0,0,1-2.016-.549A2.557,2.557,0,0,1,315.442,42.738Z" transform="translate(-5.542 -6)"/><path class="cls-5" d="M327.09,42.579l1.188,0.147a2.9,2.9,0,0,1-1.042,1.616,3.527,3.527,0,0,1-4.3-.342,3.578,3.578,0,0,1-.872-2.571,3.75,3.75,0,0,1,.882-2.658,2.982,2.982,0,0,1,2.287-.945,2.9,2.9,0,0,1,2.224.926,3.685,3.685,0,0,1,.862,2.607c0,0.068,0,.17-0.007.307h-5.06a2.607,2.607,0,0,0,.632,1.712,1.884,1.884,0,0,0,1.419.594,1.755,1.755,0,0,0,1.079-.332A2.2,2.2,0,0,0,327.09,42.579Zm-3.776-1.859H327.1a2.306,2.306,0,0,0-.435-1.284,1.764,1.764,0,0,0-1.425-.665,1.826,1.826,0,0,0-1.332.53A2.1,2.1,0,0,0,323.313,40.719Z" transform="translate(-5.542 -6)"/><path class="cls-5" d="M333.153,44.923l0.556-2.722h-1.08V41.25H333.9l0.473-2.319h-1.744V37.979h1.937l0.556-2.741h0.958l-0.556,2.741h2.013l0.556-2.741h0.965L338.5,37.979h1.105V38.93h-1.3L337.83,41.25h1.776V42.2h-1.968l-0.557,2.722h-0.958l0.55-2.722h-2.007l-0.556,2.722h-0.958Zm1.706-3.674h2.006l0.479-2.319h-2.013Z" transform="translate(-5.542 -6)"/><path class="cls-5" d="M346.359,43.658v1.105h-6.19a2.037,2.037,0,0,1,.134-0.8,4.226,4.226,0,0,1,.757-1.246,11.856,11.856,0,0,1,1.5-1.418,12.755,12.755,0,0,0,2.063-1.984,2.372,2.372,0,0,0,.537-1.383,1.537,1.537,0,0,0-.489-1.153,1.761,1.761,0,0,0-1.274-.469,1.8,1.8,0,0,0-1.329.5,1.89,1.89,0,0,0-.5,1.38l-1.182-.122a2.909,2.909,0,0,1,.914-2.016,3.113,3.113,0,0,1,2.127-.693,2.966,2.966,0,0,1,2.134.748,2.453,2.453,0,0,1,.786,1.853,2.809,2.809,0,0,1-.229,1.1,4.283,4.283,0,0,1-.764,1.144,18.572,18.572,0,0,1-1.773,1.648q-1.034.869-1.329,1.179a3.827,3.827,0,0,0-.485.623h4.594Z" transform="translate(-5.542 -6)"/><polygon points="236.638 244.753 226.527 223.435 215.19 254.584 236.638 244.753"/><line class="cls-9" x1="206.633" y1="15.733" x2="206.633" y2="206.836"/><path class="cls-10" d="M212.175,215.032h0m0-197.692h0" transform="translate(-5.542 -6)"/><rect class="cls-11" x="79.164" y="272.167" width="146.75" height="77.201"/><polygon class="cls-12" points="78.437 272.167 78.437 349.368 78.437 350.096 79.164 350.096 225.914 350.096 226.641 350.096 226.641 349.368 226.641 272.167 226.641 271.44 225.914 271.44 79.164 271.44 78.437 271.44 78.437 272.167"/><rect class="cls-12" x="79.891" y="272.894" width="145.295" height="75.747"/><path class="cls-6" d="M91.834,294.894l1.169-.1a2.589,2.589,0,0,0,.387,1.153,2.115,2.115,0,0,0,.942.729,3.581,3.581,0,0,0,1.438.277,3.446,3.446,0,0,0,1.252-.211,1.737,1.737,0,0,0,.808-0.578,1.341,1.341,0,0,0,.265-0.8,1.219,1.219,0,0,0-.255-0.77A1.893,1.893,0,0,0,97,294.038a16.653,16.653,0,0,0-1.667-.457A8.465,8.465,0,0,1,93.521,293a2.527,2.527,0,0,1-1-.872,2.136,2.136,0,0,1-.329-1.166,2.377,2.377,0,0,1,.4-1.325,2.49,2.49,0,0,1,1.176-.937,4.458,4.458,0,0,1,1.718-.319,4.7,4.7,0,0,1,1.837.336,2.652,2.652,0,0,1,1.224.986,2.841,2.841,0,0,1,.46,1.477l-1.188.089a1.916,1.916,0,0,0-.648-1.342,2.528,2.528,0,0,0-1.632-.453,2.621,2.621,0,0,0-1.639.412,1.235,1.235,0,0,0-.515.993,1.067,1.067,0,0,0,.364.831,4.944,4.944,0,0,0,1.869.667,12.468,12.468,0,0,1,2.073.6,2.851,2.851,0,0,1,1.208.955,2.329,2.329,0,0,1,.39,1.332,2.544,2.544,0,0,1-.428,1.409,2.814,2.814,0,0,1-1.23,1.028,4.28,4.28,0,0,1-1.8.368,5.388,5.388,0,0,1-2.131-.371,2.98,2.98,0,0,1-1.348-1.115A3.16,3.16,0,0,1,91.834,294.894Z" transform="translate(-5.542 -6)"/><path class="cls-6" d="M105.283,297.9v-1a2.485,2.485,0,0,1-2.153,1.15,2.726,2.726,0,0,1-1.121-.23,1.844,1.844,0,0,1-.773-0.578,2.158,2.158,0,0,1-.354-0.853,5.839,5.839,0,0,1-.07-1.073v-4.2h1.15v3.763a6.7,6.7,0,0,0,.07,1.214,1.2,1.2,0,0,0,.46.713,1.423,1.423,0,0,0,.869.259,1.894,1.894,0,0,0,.971-0.266,1.473,1.473,0,0,0,.642-0.722,3.624,3.624,0,0,0,.188-1.325v-3.636h1.15V297.9h-1.028Z" transform="translate(-5.542 -6)"/><path class="cls-6" d="M108.1,297.9v-6.785h1.035v1.028a2.807,2.807,0,0,1,.731-0.952,1.277,1.277,0,0,1,.738-0.229,2.242,2.242,0,0,1,1.182.37l-0.4,1.067a1.646,1.646,0,0,0-.843-0.249,1.094,1.094,0,0,0-.677.227,1.233,1.233,0,0,0-.428.629,4.478,4.478,0,0,0-.191,1.342V297.9H108.1Z" transform="translate(-5.542 -6)"/><path class="cls-6" d="M114.6,297.9l-2.582-6.785h1.214l1.457,4.063q0.236,0.658.434,1.367,0.154-.536.428-1.291l1.508-4.14h1.182l-2.568,6.785H114.6Z" transform="translate(-5.542 -6)"/><path class="cls-6" d="M119.269,289.859v-1.322h1.15v1.322h-1.15Zm0,8.044v-6.785h1.15V297.9h-1.15Z" transform="translate(-5.542 -6)"/><path class="cls-6" d="M124.054,297.9l-2.582-6.785h1.214l1.457,4.063q0.236,0.658.434,1.367,0.154-.536.428-1.291l1.508-4.14H127.7l-2.568,6.785h-1.073Z" transform="translate(-5.542 -6)"/><path class="cls-6" d="M128.718,289.859v-1.322h1.15v1.322h-1.15Zm0,8.044v-6.785h1.15V297.9h-1.15Z" transform="translate(-5.542 -6)"/><path class="cls-6" d="M131.618,297.9v-6.785h1.035v0.965a2.44,2.44,0,0,1,2.16-1.118,2.823,2.823,0,0,1,1.127.221,1.763,1.763,0,0,1,.77.578,2.219,2.219,0,0,1,.358.85,6.6,6.6,0,0,1,.064,1.118V297.9h-1.15v-4.127a3.108,3.108,0,0,0-.134-1.052,1.11,1.11,0,0,0-.476-0.556,1.512,1.512,0,0,0-.8-0.208,1.866,1.866,0,0,0-1.269.467,2.3,2.3,0,0,0-.533,1.77V297.9h-1.15Z" transform="translate(-5.542 -6)"/><path class="cls-6" d="M138.685,298.466l1.118,0.166a1.064,1.064,0,0,0,.39.754,1.914,1.914,0,0,0,1.169.319,2.055,2.055,0,0,0,1.233-.319,1.573,1.573,0,0,0,.587-0.895,7.329,7.329,0,0,0,.083-1.476,2.367,2.367,0,0,1-1.878.888,2.561,2.561,0,0,1-2.166-1.01,3.885,3.885,0,0,1-.767-2.421,4.5,4.5,0,0,1,.351-1.792,2.81,2.81,0,0,1,1.019-1.269,2.756,2.756,0,0,1,1.569-.447,2.431,2.431,0,0,1,1.98.971v-0.817h1.061v5.865a5.561,5.561,0,0,1-.323,2.246,2.356,2.356,0,0,1-1.022,1.044,3.54,3.54,0,0,1-1.722.384,3.247,3.247,0,0,1-1.961-.547A1.846,1.846,0,0,1,138.685,298.466Zm0.952-4.076a2.944,2.944,0,0,0,.53,1.948,1.75,1.75,0,0,0,2.658,0,2.847,2.847,0,0,0,.537-1.913,2.785,2.785,0,0,0-.553-1.879,1.711,1.711,0,0,0-1.332-.632,1.659,1.659,0,0,0-1.3.623A2.767,2.767,0,0,0,139.637,294.39Z" transform="translate(-5.542 -6)"/><path class="cls-6" d="M149.348,295.878l1.137-.179a1.589,1.589,0,0,0,.534,1.048,1.863,1.863,0,0,0,1.224.364,1.793,1.793,0,0,0,1.175-.323,0.963,0.963,0,0,0,.384-0.757,0.7,0.7,0,0,0-.339-0.613,4.955,4.955,0,0,0-1.176-.39,10.727,10.727,0,0,1-1.753-.553,1.675,1.675,0,0,1-.994-1.556,1.746,1.746,0,0,1,.208-0.84,1.872,1.872,0,0,1,.565-0.643,2.363,2.363,0,0,1,.731-0.335,3.473,3.473,0,0,1,.994-0.138,3.928,3.928,0,0,1,1.4.229,1.91,1.91,0,0,1,.892.623,2.445,2.445,0,0,1,.4,1.052l-1.125.153a1.233,1.233,0,0,0-.444-0.818,1.629,1.629,0,0,0-1.039-.294,1.886,1.886,0,0,0-1.131.262,0.764,0.764,0,0,0-.338.613,0.636,0.636,0,0,0,.141.4,1.015,1.015,0,0,0,.44.307q0.173,0.063,1.016.294a14.044,14.044,0,0,1,1.7.533,1.734,1.734,0,0,1,.757.6,1.689,1.689,0,0,1,.274.984,1.933,1.933,0,0,1-.335,1.083,2.165,2.165,0,0,1-.968.785,3.52,3.52,0,0,1-1.431.278,3.182,3.182,0,0,1-2.016-.55A2.554,2.554,0,0,1,149.348,295.878Z" transform="translate(-5.542 -6)"/><path class="cls-6" d="M156.351,300.5v-9.386H157.4V292a2.569,2.569,0,0,1,.837-0.776,2.294,2.294,0,0,1,1.131-.259,2.683,2.683,0,0,1,1.533.447,2.743,2.743,0,0,1,1,1.262,4.6,4.6,0,0,1,.339,1.786,4.529,4.529,0,0,1-.374,1.875,2.842,2.842,0,0,1-2.584,1.722,2.162,2.162,0,0,1-1.032-.243,2.336,2.336,0,0,1-.75-0.613v3.3h-1.15Zm1.042-5.955a2.955,2.955,0,0,0,.53,1.937,1.627,1.627,0,0,0,1.284.626,1.664,1.664,0,0,0,1.313-.648,3.078,3.078,0,0,0,.546-2.01,3,3,0,0,0-.533-1.942,1.609,1.609,0,0,0-1.275-.646,1.657,1.657,0,0,0-1.3.688A3.072,3.072,0,0,0,157.392,294.549Z" transform="translate(-5.542 -6)"/><path class="cls-6" d="M163.2,294.511a3.5,3.5,0,0,1,1.048-2.792,3.155,3.155,0,0,1,2.134-.754,3.043,3.043,0,0,1,2.287.917,3.486,3.486,0,0,1,.888,2.533,4.494,4.494,0,0,1-.393,2.061,2.789,2.789,0,0,1-1.144,1.166,3.335,3.335,0,0,1-1.639.415,3.049,3.049,0,0,1-2.3-.914A3.646,3.646,0,0,1,163.2,294.511Zm1.182,0a2.892,2.892,0,0,0,.569,1.952,1.893,1.893,0,0,0,2.856,0,2.957,2.957,0,0,0,.569-1.986,2.8,2.8,0,0,0-.572-1.907,1.9,1.9,0,0,0-2.853,0A2.88,2.88,0,0,0,164.382,294.511Z" transform="translate(-5.542 -6)"/><path class="cls-6" d="M175.353,297.9v-1a2.485,2.485,0,0,1-2.153,1.15,2.726,2.726,0,0,1-1.121-.23,1.844,1.844,0,0,1-.773-0.578,2.158,2.158,0,0,1-.354-0.853,5.839,5.839,0,0,1-.07-1.073v-4.2h1.15v3.763a6.7,6.7,0,0,0,.07,1.214,1.2,1.2,0,0,0,.46.713,1.423,1.423,0,0,0,.869.259,1.894,1.894,0,0,0,.971-0.266,1.473,1.473,0,0,0,.642-0.722,3.624,3.624,0,0,0,.188-1.325v-3.636h1.15V297.9h-1.028Z" transform="translate(-5.542 -6)"/><path class="cls-6" d="M177.722,295.878l1.137-.179a1.589,1.589,0,0,0,.534,1.048,1.863,1.863,0,0,0,1.224.364,1.793,1.793,0,0,0,1.175-.323,0.963,0.963,0,0,0,.384-0.757,0.7,0.7,0,0,0-.339-0.613,4.955,4.955,0,0,0-1.176-.39,10.727,10.727,0,0,1-1.753-.553,1.675,1.675,0,0,1-.994-1.556,1.746,1.746,0,0,1,.208-0.84,1.872,1.872,0,0,1,.565-0.643,2.363,2.363,0,0,1,.731-0.335,3.473,3.473,0,0,1,.994-0.138,3.928,3.928,0,0,1,1.4.229,1.91,1.91,0,0,1,.892.623,2.445,2.445,0,0,1,.4,1.052l-1.125.153a1.233,1.233,0,0,0-.444-0.818,1.629,1.629,0,0,0-1.039-.294,1.886,1.886,0,0,0-1.131.262,0.764,0.764,0,0,0-.338.613,0.636,0.636,0,0,0,.141.4,1.015,1.015,0,0,0,.44.307q0.173,0.063,1.016.294a14.044,14.044,0,0,1,1.7.533,1.734,1.734,0,0,1,.757.6,1.689,1.689,0,0,1,.274.984,1.933,1.933,0,0,1-.335,1.083,2.165,2.165,0,0,1-.968.785,3.52,3.52,0,0,1-1.431.278,3.182,3.182,0,0,1-2.016-.55A2.554,2.554,0,0,1,177.722,295.878Z" transform="translate(-5.542 -6)"/><path class="cls-6" d="M189.37,295.718l1.188,0.147a2.9,2.9,0,0,1-1.042,1.616,3.528,3.528,0,0,1-4.3-.342,3.583,3.583,0,0,1-.872-2.571,3.75,3.75,0,0,1,.882-2.658,2.986,2.986,0,0,1,2.288-.945,2.9,2.9,0,0,1,2.223.927,3.679,3.679,0,0,1,.863,2.606c0,0.068,0,.17-0.007.307h-5.06a2.6,2.6,0,0,0,.633,1.712,1.881,1.881,0,0,0,1.418.595,1.766,1.766,0,0,0,1.08-.332A2.209,2.209,0,0,0,189.37,295.718Zm-3.776-1.858h3.789a2.3,2.3,0,0,0-.434-1.284,1.763,1.763,0,0,0-1.425-.665,1.828,1.828,0,0,0-1.333.53A2.1,2.1,0,0,0,185.594,293.859Z" transform="translate(-5.542 -6)"/><path class="cls-6" d="M92.1,313.605V306.82h1.035v1.028a2.807,2.807,0,0,1,.731-0.952,1.277,1.277,0,0,1,.738-0.229,2.242,2.242,0,0,1,1.182.37l-0.4,1.067a1.646,1.646,0,0,0-.843-0.249,1.094,1.094,0,0,0-.677.227,1.233,1.233,0,0,0-.428.629,4.478,4.478,0,0,0-.191,1.342v3.553H92.1Z" transform="translate(-5.542 -6)"/><path class="cls-6" d="M100.993,311.42l1.188,0.147a2.9,2.9,0,0,1-1.042,1.616,3.528,3.528,0,0,1-4.3-.342,3.583,3.583,0,0,1-.872-2.571,3.75,3.75,0,0,1,.882-2.658,2.986,2.986,0,0,1,2.288-.945,2.9,2.9,0,0,1,2.223.927,3.679,3.679,0,0,1,.863,2.606c0,0.068,0,.17-0.007.307h-5.06a2.6,2.6,0,0,0,.633,1.712,1.881,1.881,0,0,0,1.418.595,1.766,1.766,0,0,0,1.08-.332A2.209,2.209,0,0,0,100.993,311.42Zm-3.776-1.858h3.789a2.3,2.3,0,0,0-.434-1.284,1.763,1.763,0,0,0-1.425-.665,1.828,1.828,0,0,0-1.333.53A2.1,2.1,0,0,0,97.217,309.562Z" transform="translate(-5.542 -6)"/><path class="cls-6" d="M108.053,311.12l1.131,0.146a2.932,2.932,0,0,1-.949,1.831,2.765,2.765,0,0,1-1.875.661,2.914,2.914,0,0,1-2.239-.91,3.7,3.7,0,0,1-.847-2.61,4.714,4.714,0,0,1,.364-1.923,2.536,2.536,0,0,1,1.108-1.236,3.292,3.292,0,0,1,1.62-.412,2.819,2.819,0,0,1,1.808.559,2.568,2.568,0,0,1,.9,1.588l-1.118.173a1.859,1.859,0,0,0-.565-1.029,1.465,1.465,0,0,0-.98-0.345,1.785,1.785,0,0,0-1.412.623,2.955,2.955,0,0,0-.543,1.971,3.058,3.058,0,0,0,.523,1.987,1.706,1.706,0,0,0,1.368.62,1.611,1.611,0,0,0,1.131-.416A2.057,2.057,0,0,0,108.053,311.12Z" transform="translate(-5.542 -6)"/><path class="cls-6" d="M114.551,311.42l1.188,0.147a2.9,2.9,0,0,1-1.042,1.616,3.528,3.528,0,0,1-4.3-.342,3.583,3.583,0,0,1-.872-2.571,3.75,3.75,0,0,1,.882-2.658,2.986,2.986,0,0,1,2.288-.945,2.9,2.9,0,0,1,2.223.927,3.679,3.679,0,0,1,.863,2.606c0,0.068,0,.17-0.007.307h-5.06a2.6,2.6,0,0,0,.633,1.712,1.881,1.881,0,0,0,1.418.595,1.766,1.766,0,0,0,1.08-.332A2.209,2.209,0,0,0,114.551,311.42Zm-3.776-1.858h3.789a2.3,2.3,0,0,0-.434-1.284,1.763,1.763,0,0,0-1.425-.665,1.828,1.828,0,0,0-1.333.53A2.1,2.1,0,0,0,110.775,309.562Z" transform="translate(-5.542 -6)"/><path class="cls-6" d="M117.19,305.562v-1.322h1.15v1.322h-1.15Zm0,8.044V306.82h1.15v6.785h-1.15Z" transform="translate(-5.542 -6)"/><path class="cls-6" d="M121.976,313.605l-2.582-6.785h1.214l1.457,4.063q0.236,0.658.434,1.367,0.154-.536.428-1.291l1.508-4.14h1.182l-2.568,6.785h-1.073Z" transform="translate(-5.542 -6)"/><path class="cls-6" d="M131.239,311.42l1.188,0.147a2.9,2.9,0,0,1-1.042,1.616,3.528,3.528,0,0,1-4.3-.342,3.583,3.583,0,0,1-.872-2.571,3.75,3.75,0,0,1,.882-2.658,2.986,2.986,0,0,1,2.288-.945,2.9,2.9,0,0,1,2.223.927,3.679,3.679,0,0,1,.863,2.606c0,0.068,0,.17-0.007.307H127.4a2.6,2.6,0,0,0,.633,1.712,1.881,1.881,0,0,0,1.418.595,1.766,1.766,0,0,0,1.08-.332A2.209,2.209,0,0,0,131.239,311.42Zm-3.776-1.858h3.789a2.3,2.3,0,0,0-.434-1.284,1.763,1.763,0,0,0-1.425-.665,1.828,1.828,0,0,0-1.333.53A2.1,2.1,0,0,0,127.463,309.562Z" transform="translate(-5.542 -6)"/><path class="cls-6" d="M133.411,311.58l1.137-.179a1.589,1.589,0,0,0,.534,1.048,1.863,1.863,0,0,0,1.224.364,1.793,1.793,0,0,0,1.175-.323,0.963,0.963,0,0,0,.384-0.757,0.7,0.7,0,0,0-.339-0.613,4.955,4.955,0,0,0-1.176-.39,10.727,10.727,0,0,1-1.753-.553,1.675,1.675,0,0,1-.994-1.556,1.746,1.746,0,0,1,.208-0.84,1.872,1.872,0,0,1,.565-0.643,2.363,2.363,0,0,1,.731-0.335,3.473,3.473,0,0,1,.994-0.138,3.928,3.928,0,0,1,1.4.229,1.91,1.91,0,0,1,.892.623,2.445,2.445,0,0,1,.4,1.052l-1.125.153a1.233,1.233,0,0,0-.444-0.818,1.629,1.629,0,0,0-1.039-.294,1.886,1.886,0,0,0-1.131.262,0.764,0.764,0,0,0-.338.613,0.636,0.636,0,0,0,.141.4,1.015,1.015,0,0,0,.44.307q0.173,0.063,1.016.294a14.044,14.044,0,0,1,1.7.533,1.734,1.734,0,0,1,.757.6,1.689,1.689,0,0,1,.274.984,1.933,1.933,0,0,1-.335,1.083,2.165,2.165,0,0,1-.968.785,3.52,3.52,0,0,1-1.431.278,3.182,3.182,0,0,1-2.016-.55A2.554,2.554,0,0,1,133.411,311.58Z" transform="translate(-5.542 -6)"/><path class="cls-6" d="M144.056,305.562v-1.322h1.15v1.322h-1.15Zm0,8.044V306.82h1.15v6.785h-1.15Z" transform="translate(-5.542 -6)"/><path class="cls-6" d="M146.956,313.605V306.82h1.035v0.965a2.44,2.44,0,0,1,2.16-1.118,2.823,2.823,0,0,1,1.127.221,1.763,1.763,0,0,1,.77.578,2.219,2.219,0,0,1,.358.85,6.6,6.6,0,0,1,.064,1.118v4.172h-1.15v-4.127a3.108,3.108,0,0,0-.134-1.052,1.11,1.11,0,0,0-.476-0.556,1.512,1.512,0,0,0-.8-0.208,1.866,1.866,0,0,0-1.269.467,2.3,2.3,0,0,0-.533,1.77v3.706h-1.15Z" transform="translate(-5.542 -6)"/><path class="cls-6" d="M158.661,311.12l1.131,0.146a2.932,2.932,0,0,1-.949,1.831,2.765,2.765,0,0,1-1.875.661,2.914,2.914,0,0,1-2.239-.91,3.7,3.7,0,0,1-.847-2.61,4.714,4.714,0,0,1,.364-1.923,2.536,2.536,0,0,1,1.108-1.236,3.292,3.292,0,0,1,1.62-.412,2.819,2.819,0,0,1,1.808.559,2.568,2.568,0,0,1,.9,1.588l-1.118.173a1.859,1.859,0,0,0-.565-1.029,1.465,1.465,0,0,0-.98-0.345,1.785,1.785,0,0,0-1.412.623,2.955,2.955,0,0,0-.543,1.971,3.058,3.058,0,0,0,.523,1.987,1.706,1.706,0,0,0,1.368.62,1.611,1.611,0,0,0,1.131-.416A2.057,2.057,0,0,0,158.661,311.12Z" transform="translate(-5.542 -6)"/><path class="cls-6" d="M160.073,310.213a3.5,3.5,0,0,1,1.048-2.792,3.155,3.155,0,0,1,2.134-.754,3.043,3.043,0,0,1,2.287.917,3.486,3.486,0,0,1,.888,2.533,4.494,4.494,0,0,1-.393,2.061,2.789,2.789,0,0,1-1.144,1.166,3.335,3.335,0,0,1-1.639.415,3.049,3.049,0,0,1-2.3-.914A3.646,3.646,0,0,1,160.073,310.213Zm1.182,0a2.892,2.892,0,0,0,.569,1.952,1.893,1.893,0,0,0,2.856,0,2.957,2.957,0,0,0,.569-1.986,2.8,2.8,0,0,0-.572-1.907,1.9,1.9,0,0,0-2.853,0A2.88,2.88,0,0,0,161.254,310.213Z" transform="translate(-5.542 -6)"/><path class="cls-6" d="M167.778,313.605V306.82h1.029v0.952a2.418,2.418,0,0,1,.85-0.8,2.391,2.391,0,0,1,1.208-.3,2.236,2.236,0,0,1,1.236.313,1.678,1.678,0,0,1,.681.876,2.437,2.437,0,0,1,2.1-1.188,2.067,2.067,0,0,1,1.552.559,2.391,2.391,0,0,1,.543,1.723v4.657h-1.144v-4.274a3.154,3.154,0,0,0-.112-0.993,0.968,0.968,0,0,0-.406-0.489,1.273,1.273,0,0,0-.69-0.186,1.6,1.6,0,0,0-1.188.477,2.1,2.1,0,0,0-.473,1.523v3.942h-1.15V309.2a1.94,1.94,0,0,0-.281-1.15,1.064,1.064,0,0,0-.92-0.384,1.674,1.674,0,0,0-.9.256,1.452,1.452,0,0,0-.6.748,4.208,4.208,0,0,0-.185,1.418v3.521h-1.15Z" transform="translate(-5.542 -6)"/><path class="cls-6" d="M183.323,311.42l1.188,0.147a2.9,2.9,0,0,1-1.042,1.616,3.528,3.528,0,0,1-4.3-.342,3.583,3.583,0,0,1-.872-2.571,3.75,3.75,0,0,1,.882-2.658,2.986,2.986,0,0,1,2.288-.945,2.9,2.9,0,0,1,2.223.927,3.679,3.679,0,0,1,.863,2.606c0,0.068,0,.17-0.007.307h-5.06a2.6,2.6,0,0,0,.633,1.712,1.881,1.881,0,0,0,1.418.595,1.766,1.766,0,0,0,1.08-.332A2.209,2.209,0,0,0,183.323,311.42Zm-3.776-1.858h3.789a2.3,2.3,0,0,0-.434-1.284,1.763,1.763,0,0,0-1.425-.665,1.828,1.828,0,0,0-1.333.53A2.1,2.1,0,0,0,179.547,309.562Z" transform="translate(-5.542 -6)"/><path class="cls-6" d="M194.018,312.769a4.281,4.281,0,0,1-1.23.767,3.543,3.543,0,0,1-1.268.224,2.466,2.466,0,0,1-1.719-.546,1.8,1.8,0,0,1-.6-1.4,1.892,1.892,0,0,1,.821-1.571,2.787,2.787,0,0,1,.827-0.377,8.261,8.261,0,0,1,1.022-.173,10.485,10.485,0,0,0,2.051-.4c0-.157.006-0.257,0.006-0.3a1.269,1.269,0,0,0-.326-0.99,1.925,1.925,0,0,0-1.31-.39,2.031,2.031,0,0,0-1.2.284,1.735,1.735,0,0,0-.572,1.006l-1.125-.153a2.781,2.781,0,0,1,.5-1.166,2.214,2.214,0,0,1,1.016-.684,4.544,4.544,0,0,1,1.54-.239,4.087,4.087,0,0,1,1.412.2,1.86,1.86,0,0,1,.8.515,1.816,1.816,0,0,1,.358.782,6.506,6.506,0,0,1,.058,1.061v1.534a16.33,16.33,0,0,0,.073,2.028,2.561,2.561,0,0,0,.291.814h-1.2A2.442,2.442,0,0,1,194.018,312.769Zm-0.1-2.568a8.455,8.455,0,0,1-1.878.435,4.373,4.373,0,0,0-1,.229,1,1,0,0,0-.454.374,1.016,1.016,0,0,0,.188,1.313,1.5,1.5,0,0,0,1.019.308,2.375,2.375,0,0,0,1.182-.291,1.793,1.793,0,0,0,.761-0.8,2.775,2.775,0,0,0,.185-1.149V310.2Z" transform="translate(-5.542 -6)"/><path class="cls-6" d="M196.868,313.605V306.82H197.9v0.965a2.44,2.44,0,0,1,2.16-1.118,2.823,2.823,0,0,1,1.127.221,1.763,1.763,0,0,1,.77.578,2.219,2.219,0,0,1,.358.85,6.6,6.6,0,0,1,.064,1.118v4.172h-1.15v-4.127a3.108,3.108,0,0,0-.134-1.052,1.11,1.11,0,0,0-.476-0.556,1.512,1.512,0,0,0-.8-0.208,1.866,1.866,0,0,0-1.269.467,2.3,2.3,0,0,0-.533,1.77v3.706h-1.15Z" transform="translate(-5.542 -6)"/><path class="cls-6" d="M208.547,313.605v-0.856a2.109,2.109,0,0,1-1.9,1.01,2.664,2.664,0,0,1-1.492-.447,2.944,2.944,0,0,1-1.054-1.249,4.32,4.32,0,0,1-.374-1.844,4.827,4.827,0,0,1,.338-1.843,2.672,2.672,0,0,1,1.016-1.269,2.714,2.714,0,0,1,1.514-.44,2.26,2.26,0,0,1,1.093.259,2.283,2.283,0,0,1,.779.674v-3.36h1.144v9.366h-1.067Zm-3.635-3.387a2.949,2.949,0,0,0,.549,1.949,1.656,1.656,0,0,0,1.3.646,1.628,1.628,0,0,0,1.281-.617,2.842,2.842,0,0,0,.527-1.881,3.191,3.191,0,0,0-.537-2.045,1.65,1.65,0,0,0-1.322-.651,1.592,1.592,0,0,0-1.281.626A3.089,3.089,0,0,0,204.912,310.219Z" transform="translate(-5.542 -6)"/><path class="cls-6" d="M92.108,331.908v-9.386h1.048V323.4a2.569,2.569,0,0,1,.837-0.776,2.294,2.294,0,0,1,1.131-.259,2.683,2.683,0,0,1,1.533.447,2.743,2.743,0,0,1,1,1.262A4.6,4.6,0,0,1,98,325.864a4.529,4.529,0,0,1-.374,1.875,2.842,2.842,0,0,1-2.584,1.722,2.162,2.162,0,0,1-1.032-.243,2.336,2.336,0,0,1-.75-0.613v3.3h-1.15Zm1.042-5.955a2.955,2.955,0,0,0,.53,1.937,1.627,1.627,0,0,0,1.284.626,1.664,1.664,0,0,0,1.313-.648,3.078,3.078,0,0,0,.546-2.01,3,3,0,0,0-.533-1.942,1.609,1.609,0,0,0-1.275-.646,1.657,1.657,0,0,0-1.3.688A3.072,3.072,0,0,0,93.15,325.953Z" transform="translate(-5.542 -6)"/><path class="cls-6" d="M99.373,329.308v-6.785h1.035v1.028a2.807,2.807,0,0,1,.731-0.952,1.277,1.277,0,0,1,.738-0.229,2.242,2.242,0,0,1,1.182.37l-0.4,1.067a1.646,1.646,0,0,0-.843-0.249,1.094,1.094,0,0,0-.677.227,1.233,1.233,0,0,0-.428.629,4.478,4.478,0,0,0-.191,1.342v3.553h-1.15Z" transform="translate(-5.542 -6)"/><path class="cls-6" d="M103.75,321.264v-1.322h1.15v1.322h-1.15Zm0,8.044v-6.785h1.15v6.785h-1.15Z" transform="translate(-5.542 -6)"/><path class="cls-6" d="M106.65,329.308v-6.785h1.035v0.965a2.44,2.44,0,0,1,2.16-1.118,2.823,2.823,0,0,1,1.127.221,1.763,1.763,0,0,1,.77.578,2.219,2.219,0,0,1,.358.85,6.6,6.6,0,0,1,.064,1.118v4.172h-1.15v-4.127a3.108,3.108,0,0,0-.134-1.052,1.11,1.11,0,0,0-.476-0.556,1.512,1.512,0,0,0-.8-0.208,1.866,1.866,0,0,0-1.269.467,2.3,2.3,0,0,0-.533,1.77v3.706h-1.15Z" transform="translate(-5.542 -6)"/><path class="cls-6" d="M118.355,326.822l1.131,0.146a2.932,2.932,0,0,1-.949,1.831,2.765,2.765,0,0,1-1.875.661,2.914,2.914,0,0,1-2.239-.91,3.7,3.7,0,0,1-.847-2.61,4.714,4.714,0,0,1,.364-1.923,2.536,2.536,0,0,1,1.108-1.236,3.292,3.292,0,0,1,1.62-.412,2.819,2.819,0,0,1,1.808.559,2.568,2.568,0,0,1,.9,1.588l-1.118.173a1.859,1.859,0,0,0-.565-1.029,1.465,1.465,0,0,0-.98-0.345,1.785,1.785,0,0,0-1.412.623,2.955,2.955,0,0,0-.543,1.971,3.058,3.058,0,0,0,.523,1.987,1.706,1.706,0,0,0,1.368.62,1.611,1.611,0,0,0,1.131-.416A2.057,2.057,0,0,0,118.355,326.822Z" transform="translate(-5.542 -6)"/><path class="cls-6" d="M120.477,321.264v-1.322h1.15v1.322h-1.15Zm0,8.044v-6.785h1.15v6.785h-1.15Z" transform="translate(-5.542 -6)"/><path class="cls-6" d="M123.377,331.908v-9.386h1.048V323.4a2.569,2.569,0,0,1,.837-0.776,2.294,2.294,0,0,1,1.131-.259,2.683,2.683,0,0,1,1.533.447,2.743,2.743,0,0,1,1,1.262,4.6,4.6,0,0,1,.339,1.786,4.529,4.529,0,0,1-.374,1.875,2.842,2.842,0,0,1-2.584,1.722,2.162,2.162,0,0,1-1.032-.243,2.336,2.336,0,0,1-.75-0.613v3.3h-1.15Zm1.042-5.955a2.955,2.955,0,0,0,.53,1.937,1.627,1.627,0,0,0,1.284.626,1.664,1.664,0,0,0,1.313-.648,3.078,3.078,0,0,0,.546-2.01,3,3,0,0,0-.533-1.942,1.609,1.609,0,0,0-1.275-.646,1.657,1.657,0,0,0-1.3.688A3.072,3.072,0,0,0,124.418,325.953Z" transform="translate(-5.542 -6)"/><path class="cls-6" d="M134.9,328.471a4.281,4.281,0,0,1-1.23.767,3.543,3.543,0,0,1-1.268.224,2.466,2.466,0,0,1-1.719-.546,1.8,1.8,0,0,1-.6-1.4,1.892,1.892,0,0,1,.821-1.571,2.787,2.787,0,0,1,.827-0.377,8.261,8.261,0,0,1,1.022-.173,10.485,10.485,0,0,0,2.051-.4c0-.157.006-0.257,0.006-0.3a1.269,1.269,0,0,0-.326-0.99,1.925,1.925,0,0,0-1.31-.39,2.031,2.031,0,0,0-1.2.284,1.735,1.735,0,0,0-.572,1.006l-1.125-.153a2.781,2.781,0,0,1,.5-1.166,2.214,2.214,0,0,1,1.016-.684,4.544,4.544,0,0,1,1.54-.239,4.087,4.087,0,0,1,1.412.2,1.86,1.86,0,0,1,.8.515,1.816,1.816,0,0,1,.358.782,6.506,6.506,0,0,1,.058,1.061v1.534a16.33,16.33,0,0,0,.073,2.028,2.561,2.561,0,0,0,.291.814h-1.2A2.442,2.442,0,0,1,134.9,328.471Zm-0.1-2.568a8.455,8.455,0,0,1-1.878.435,4.373,4.373,0,0,0-1,.229,1,1,0,0,0-.454.374,1.016,1.016,0,0,0,.188,1.313,1.5,1.5,0,0,0,1.019.308,2.375,2.375,0,0,0,1.182-.291,1.793,1.793,0,0,0,.761-0.8,2.775,2.775,0,0,0,.185-1.149V325.9Z" transform="translate(-5.542 -6)"/><path class="cls-6" d="M137.723,329.308v-9.366h1.15v9.366h-1.15Z" transform="translate(-5.542 -6)"/><path class="cls-6" d="M148.718,328.471a4.281,4.281,0,0,1-1.23.767,3.543,3.543,0,0,1-1.268.224,2.466,2.466,0,0,1-1.719-.546,1.8,1.8,0,0,1-.6-1.4,1.892,1.892,0,0,1,.821-1.571,2.787,2.787,0,0,1,.827-0.377,8.261,8.261,0,0,1,1.022-.173,10.485,10.485,0,0,0,2.051-.4c0-.157.006-0.257,0.006-0.3a1.269,1.269,0,0,0-.326-0.99,1.925,1.925,0,0,0-1.31-.39,2.031,2.031,0,0,0-1.2.284,1.735,1.735,0,0,0-.572,1.006l-1.125-.153a2.781,2.781,0,0,1,.5-1.166,2.214,2.214,0,0,1,1.016-.684,4.544,4.544,0,0,1,1.54-.239,4.087,4.087,0,0,1,1.412.2,1.86,1.86,0,0,1,.8.515,1.816,1.816,0,0,1,.358.782,6.506,6.506,0,0,1,.058,1.061v1.534a16.33,16.33,0,0,0,.073,2.028,2.561,2.561,0,0,0,.291.814h-1.2A2.442,2.442,0,0,1,148.718,328.471Zm-0.1-2.568a8.455,8.455,0,0,1-1.878.435,4.373,4.373,0,0,0-1,.229,1,1,0,0,0-.454.374,1.016,1.016,0,0,0,.188,1.313,1.5,1.5,0,0,0,1.019.308,2.375,2.375,0,0,0,1.182-.291,1.793,1.793,0,0,0,.761-0.8,2.775,2.775,0,0,0,.185-1.149V325.9Z" transform="translate(-5.542 -6)"/><path class="cls-6" d="M154.079,328.279l0.166,1.016a4.253,4.253,0,0,1-.869.1,1.968,1.968,0,0,1-.971-0.2,1.11,1.11,0,0,1-.486-0.521,4.122,4.122,0,0,1-.141-1.358v-3.9h-0.843v-0.895h0.843v-1.681l1.144-.689v2.37h1.157v0.895h-1.157v3.968a1.989,1.989,0,0,0,.061.632,0.477,0.477,0,0,0,.2.224,0.763,0.763,0,0,0,.393.083A3.809,3.809,0,0,0,154.079,328.279Z" transform="translate(-5.542 -6)"/><path class="cls-6" d="M161.369,329.308v-8.261h-3.086v-1.105h7.424v1.105h-3.1v8.261h-1.24Z" transform="translate(-5.542 -6)"/><path class="cls-6" d="M166.23,329.308v-6.785h1.035v1.028A2.807,2.807,0,0,1,168,322.6a1.277,1.277,0,0,1,.738-0.229,2.242,2.242,0,0,1,1.182.37l-0.4,1.067a1.646,1.646,0,0,0-.843-0.249,1.094,1.094,0,0,0-.677.227,1.233,1.233,0,0,0-.428.629,4.478,4.478,0,0,0-.191,1.342v3.553h-1.15Z" transform="translate(-5.542 -6)"/><path class="cls-6" d="M175.047,329.308v-1a2.485,2.485,0,0,1-2.153,1.15,2.726,2.726,0,0,1-1.121-.23,1.844,1.844,0,0,1-.773-0.578,2.158,2.158,0,0,1-.354-0.853,5.839,5.839,0,0,1-.07-1.073v-4.2h1.15v3.763a6.7,6.7,0,0,0,.07,1.214,1.2,1.2,0,0,0,.46.713,1.424,1.424,0,0,0,.869.259,1.894,1.894,0,0,0,.971-0.266,1.473,1.473,0,0,0,.642-0.722,3.624,3.624,0,0,0,.188-1.325v-3.636h1.15v6.785h-1.028Z" transform="translate(-5.542 -6)"/><path class="cls-6" d="M177.417,327.282l1.137-.179a1.589,1.589,0,0,0,.534,1.048,1.863,1.863,0,0,0,1.224.364,1.793,1.793,0,0,0,1.175-.323,0.963,0.963,0,0,0,.384-0.757,0.7,0.7,0,0,0-.339-0.613,4.955,4.955,0,0,0-1.176-.39,10.727,10.727,0,0,1-1.753-.553,1.675,1.675,0,0,1-.994-1.556,1.746,1.746,0,0,1,.208-0.84,1.872,1.872,0,0,1,.565-0.643,2.363,2.363,0,0,1,.731-0.335,3.473,3.473,0,0,1,.994-0.138,3.928,3.928,0,0,1,1.4.229,1.91,1.91,0,0,1,.892.623,2.445,2.445,0,0,1,.4,1.052l-1.125.153a1.233,1.233,0,0,0-.444-0.818,1.629,1.629,0,0,0-1.039-.294,1.886,1.886,0,0,0-1.131.262,0.764,0.764,0,0,0-.338.613,0.636,0.636,0,0,0,.141.4,1.015,1.015,0,0,0,.44.307q0.173,0.063,1.016.294a14.044,14.044,0,0,1,1.7.533,1.734,1.734,0,0,1,.757.6,1.689,1.689,0,0,1,.274.984,1.933,1.933,0,0,1-.335,1.083,2.165,2.165,0,0,1-.968.785,3.52,3.52,0,0,1-1.431.278,3.182,3.182,0,0,1-2.016-.55A2.554,2.554,0,0,1,177.417,327.282Z" transform="translate(-5.542 -6)"/><path class="cls-6" d="M186.931,328.279l0.166,1.016a4.253,4.253,0,0,1-.869.1,1.968,1.968,0,0,1-.971-0.2,1.11,1.11,0,0,1-.486-0.521,4.122,4.122,0,0,1-.141-1.358v-3.9h-0.843v-0.895h0.843v-1.681l1.144-.689v2.37h1.157v0.895h-1.157v3.968a1.989,1.989,0,0,0,.061.632,0.477,0.477,0,0,0,.2.224,0.763,0.763,0,0,0,.393.083A3.809,3.809,0,0,0,186.931,328.279Z" transform="translate(-5.542 -6)"/><path class="cls-6" d="M192.583,327.122l1.188,0.147a2.9,2.9,0,0,1-1.042,1.616,3.528,3.528,0,0,1-4.3-.342,3.583,3.583,0,0,1-.872-2.571,3.75,3.75,0,0,1,.882-2.658,2.986,2.986,0,0,1,2.288-.945,2.9,2.9,0,0,1,2.223.927,3.679,3.679,0,0,1,.863,2.606c0,0.068,0,.17-0.007.307h-5.06a2.6,2.6,0,0,0,.633,1.712,1.881,1.881,0,0,0,1.418.595,1.766,1.766,0,0,0,1.08-.332A2.209,2.209,0,0,0,192.583,327.122Zm-3.776-1.858H192.6a2.3,2.3,0,0,0-.434-1.284,1.763,1.763,0,0,0-1.425-.665,1.828,1.828,0,0,0-1.333.53A2.1,2.1,0,0,0,188.807,325.264Z" transform="translate(-5.542 -6)"/><path class="cls-6" d="M199.859,327.122l1.188,0.147a2.9,2.9,0,0,1-1.042,1.616,3.528,3.528,0,0,1-4.3-.342,3.583,3.583,0,0,1-.872-2.571,3.75,3.75,0,0,1,.882-2.658,2.986,2.986,0,0,1,2.288-.945,2.9,2.9,0,0,1,2.223.927,3.679,3.679,0,0,1,.863,2.606c0,0.068,0,.17-0.007.307h-5.06a2.6,2.6,0,0,0,.633,1.712,1.881,1.881,0,0,0,1.418.595,1.766,1.766,0,0,0,1.08-.332A2.209,2.209,0,0,0,199.859,327.122Zm-3.776-1.858h3.789a2.3,2.3,0,0,0-.434-1.284,1.763,1.763,0,0,0-1.425-.665,1.828,1.828,0,0,0-1.333.53A2.1,2.1,0,0,0,196.083,325.264Z" transform="translate(-5.542 -6)"/><path class="cls-6" d="M202.3,321.181v-1.335h1.233V320.9a2.815,2.815,0,0,1-.2,1.233,1.744,1.744,0,0,1-.856.779l-0.281-.454a1,1,0,0,0,.515-0.443,1.869,1.869,0,0,0,.188-0.834h-0.6Z" transform="translate(-5.542 -6)"/><path class="cls-6" d="M204.18,327.282l1.137-.179a1.589,1.589,0,0,0,.534,1.048,1.863,1.863,0,0,0,1.224.364,1.793,1.793,0,0,0,1.175-.323,0.963,0.963,0,0,0,.384-0.757,0.7,0.7,0,0,0-.339-0.613,4.955,4.955,0,0,0-1.176-.39,10.727,10.727,0,0,1-1.753-.553,1.675,1.675,0,0,1-.994-1.556,1.746,1.746,0,0,1,.208-0.84,1.872,1.872,0,0,1,.565-0.643,2.363,2.363,0,0,1,.731-0.335,3.473,3.473,0,0,1,.994-0.138,3.928,3.928,0,0,1,1.4.229,1.91,1.91,0,0,1,.892.623,2.445,2.445,0,0,1,.4,1.052l-1.125.153a1.233,1.233,0,0,0-.444-0.818,1.629,1.629,0,0,0-1.039-.294,1.886,1.886,0,0,0-1.131.262,0.764,0.764,0,0,0-.338.613,0.636,0.636,0,0,0,.141.4,1.015,1.015,0,0,0,.44.307q0.173,0.063,1.016.294a14.044,14.044,0,0,1,1.7.533,1.734,1.734,0,0,1,.757.6,1.689,1.689,0,0,1,.274.984,1.933,1.933,0,0,1-.335,1.083,2.165,2.165,0,0,1-.968.785,3.52,3.52,0,0,1-1.431.278,3.182,3.182,0,0,1-2.016-.55A2.554,2.554,0,0,1,204.18,327.282Z" transform="translate(-5.542 -6)"/><path class="cls-6" d="M96.511,345.01v-0.856a2.109,2.109,0,0,1-1.9,1.01,2.664,2.664,0,0,1-1.492-.447,2.944,2.944,0,0,1-1.054-1.249,4.32,4.32,0,0,1-.374-1.844,4.827,4.827,0,0,1,.338-1.843,2.672,2.672,0,0,1,1.016-1.269,2.714,2.714,0,0,1,1.514-.44,2.26,2.26,0,0,1,1.093.259,2.283,2.283,0,0,1,.779.674v-3.36h1.144v9.366H96.511Zm-3.635-3.387a2.949,2.949,0,0,0,.549,1.949,1.656,1.656,0,0,0,1.3.646A1.628,1.628,0,0,0,96,343.6a2.842,2.842,0,0,0,.527-1.881,3.191,3.191,0,0,0-.537-2.045,1.65,1.65,0,0,0-1.322-.651,1.592,1.592,0,0,0-1.281.626A3.089,3.089,0,0,0,92.875,341.623Z" transform="translate(-5.542 -6)"/><path class="cls-6" d="M99.393,336.966v-1.322h1.15v1.322h-1.15Zm0,8.044v-6.785h1.15v6.785h-1.15Z" transform="translate(-5.542 -6)"/><path class="cls-6" d="M101.833,342.984l1.137-.179a1.589,1.589,0,0,0,.534,1.048,1.863,1.863,0,0,0,1.224.364,1.793,1.793,0,0,0,1.175-.323,0.963,0.963,0,0,0,.384-0.757,0.7,0.7,0,0,0-.339-0.613,4.955,4.955,0,0,0-1.176-.39,10.727,10.727,0,0,1-1.753-.553,1.675,1.675,0,0,1-.994-1.556,1.746,1.746,0,0,1,.208-0.84,1.872,1.872,0,0,1,.565-0.643,2.363,2.363,0,0,1,.731-0.335,3.473,3.473,0,0,1,.994-0.138,3.928,3.928,0,0,1,1.4.229,1.91,1.91,0,0,1,.892.623,2.445,2.445,0,0,1,.4,1.052l-1.125.153a1.233,1.233,0,0,0-.444-0.818,1.629,1.629,0,0,0-1.039-.294,1.886,1.886,0,0,0-1.131.262,0.764,0.764,0,0,0-.338.613,0.636,0.636,0,0,0,.141.4,1.015,1.015,0,0,0,.44.307q0.173,0.063,1.016.294a14.044,14.044,0,0,1,1.7.533,1.734,1.734,0,0,1,.757.6,1.689,1.689,0,0,1,.274.984,1.933,1.933,0,0,1-.335,1.083,2.165,2.165,0,0,1-.968.785,3.52,3.52,0,0,1-1.431.278,3.182,3.182,0,0,1-2.016-.55A2.554,2.554,0,0,1,101.833,342.984Z" transform="translate(-5.542 -6)"/><path class="cls-6" d="M113.263,342.524l1.131,0.146a2.932,2.932,0,0,1-.949,1.831,2.765,2.765,0,0,1-1.875.661,2.914,2.914,0,0,1-2.239-.91,3.7,3.7,0,0,1-.847-2.61,4.714,4.714,0,0,1,.364-1.923,2.536,2.536,0,0,1,1.108-1.236,3.292,3.292,0,0,1,1.62-.412,2.819,2.819,0,0,1,1.808.559,2.568,2.568,0,0,1,.9,1.588l-1.118.173a1.859,1.859,0,0,0-.565-1.029,1.465,1.465,0,0,0-.98-0.345,1.785,1.785,0,0,0-1.412.623,2.955,2.955,0,0,0-.543,1.971,3.058,3.058,0,0,0,.523,1.987,1.706,1.706,0,0,0,1.368.62,1.611,1.611,0,0,0,1.131-.416A2.057,2.057,0,0,0,113.263,342.524Z" transform="translate(-5.542 -6)"/><path class="cls-6" d="M115.365,345.01v-6.785H116.4v1.028a2.807,2.807,0,0,1,.731-0.952,1.277,1.277,0,0,1,.738-0.229,2.242,2.242,0,0,1,1.182.37l-0.4,1.067a1.646,1.646,0,0,0-.843-0.249,1.094,1.094,0,0,0-.677.227,1.233,1.233,0,0,0-.428.629,4.478,4.478,0,0,0-.191,1.342v3.553h-1.15Z" transform="translate(-5.542 -6)"/><path class="cls-6" d="M124.249,342.824l1.188,0.147a2.9,2.9,0,0,1-1.042,1.616,3.528,3.528,0,0,1-4.3-.342,3.583,3.583,0,0,1-.872-2.571,3.75,3.75,0,0,1,.882-2.658,2.986,2.986,0,0,1,2.288-.945,2.9,2.9,0,0,1,2.223.927,3.679,3.679,0,0,1,.863,2.606c0,0.068,0,.17-0.007.307h-5.06a2.6,2.6,0,0,0,.633,1.712,1.881,1.881,0,0,0,1.418.595,1.766,1.766,0,0,0,1.08-.332A2.209,2.209,0,0,0,124.249,342.824Zm-3.776-1.858h3.789a2.3,2.3,0,0,0-.434-1.284,1.763,1.763,0,0,0-1.425-.665,1.828,1.828,0,0,0-1.333.53A2.1,2.1,0,0,0,120.473,340.966Z" transform="translate(-5.542 -6)"/><path class="cls-6" d="M129.223,343.981L129.389,345a4.253,4.253,0,0,1-.869.1,1.968,1.968,0,0,1-.971-0.2,1.11,1.11,0,0,1-.486-0.521,4.122,4.122,0,0,1-.141-1.358v-3.9h-0.843v-0.895h0.843v-1.681l1.144-.689v2.37h1.157v0.895h-1.157v3.968a1.989,1.989,0,0,0,.061.632,0.477,0.477,0,0,0,.2.224,0.763,0.763,0,0,0,.393.083A3.809,3.809,0,0,0,129.223,343.981Z" transform="translate(-5.542 -6)"/><path class="cls-6" d="M130.354,336.966v-1.322h1.15v1.322h-1.15Zm0,8.044v-6.785h1.15v6.785h-1.15Z" transform="translate(-5.542 -6)"/><path class="cls-6" d="M132.826,341.617a3.5,3.5,0,0,1,1.048-2.792,3.155,3.155,0,0,1,2.134-.754,3.043,3.043,0,0,1,2.287.917,3.486,3.486,0,0,1,.888,2.533,4.494,4.494,0,0,1-.393,2.061,2.789,2.789,0,0,1-1.144,1.166,3.335,3.335,0,0,1-1.639.415,3.049,3.049,0,0,1-2.3-.914A3.646,3.646,0,0,1,132.826,341.617Zm1.182,0a2.892,2.892,0,0,0,.569,1.952,1.893,1.893,0,0,0,2.856,0,2.957,2.957,0,0,0,.569-1.986,2.8,2.8,0,0,0-.572-1.907,1.9,1.9,0,0,0-2.853,0A2.88,2.88,0,0,0,134.008,341.617Z" transform="translate(-5.542 -6)"/><path class="cls-6" d="M140.531,345.01v-6.785h1.035v0.965a2.44,2.44,0,0,1,2.16-1.118,2.823,2.823,0,0,1,1.127.221,1.763,1.763,0,0,1,.77.578,2.219,2.219,0,0,1,.358.85,6.6,6.6,0,0,1,.064,1.118v4.172h-1.15v-4.127a3.108,3.108,0,0,0-.134-1.052,1.11,1.11,0,0,0-.476-0.556,1.512,1.512,0,0,0-.8-0.208,1.866,1.866,0,0,0-1.269.467,2.3,2.3,0,0,0-.533,1.77v3.706h-1.15Z" transform="translate(-5.542 -6)"/><line class="cls-13" x1="306.951" y1="104.734" x2="306.951" y2="210.531"/><line class="cls-13" x1="175.011" y1="225.279" x2="225.356" y2="239.859"/><line class="cls-13" x1="106.315" y1="104.734" x2="106.315" y2="140.445"/></svg>