<svg id="Layer_1" data-name="Layer 1" xmlns="http://www.w3.org/2000/svg" xmlns:xlink="http://www.w3.org/1999/xlink" viewBox="0 0 333.119 249.919"><defs><style>.cls-1{fill:none;}.cls-2{fill:#f3efea;}.cls-3{fill:#b8cdde;}.cls-4,.cls-6{fill:#394cff;}.cls-5,.cls-6{stroke:#231f20;stroke-width:0.5px;}.cls-5{fill:url(#New_Pattern_Swatch_1);}</style><pattern id="New_Pattern_Swatch_1" data-name="New Pattern Swatch 1" width="52.35" height="49.225" patternTransform="translate(37.367 28.452) scale(0.422)" patternUnits="userSpaceOnUse" viewBox="0 0 52.35 49.225"><rect class="cls-1" width="52.35" height="49.225"/><rect class="cls-2" width="52.35" height="49.225"/></pattern></defs><title>Origin_and_Scope_of_Community_Property</title><rect class="cls-3" width="333.119" height="249.919"/><rect class="cls-4" x="30.528" y="31.434" width="37.948" height="9.306"/><path id="HI" class="cls-5" d="M88.858,213.438l2.118.888.724-.111.557-1.331-.223-1.165-1.449-.166-1.393.61Zm10.59,3.44,1.282,1.886.836-.111.39-.166.5.444,1.282-.056.334-.5-1-.61-.669-1.277-.725-1.22-2.006,1Zm6.967,3.052.446-.666,1.616.333.223-.167,2.118.222-.112.444-.892.5-1.5-.111Zm1.839,1.776.669,1.331,1.059-.388.112-.555-.558-.721-1.282-.111Zm2.4-.389.78-1,1.616.832,1.505.388,1.5.944v.665l-1.226.61-1.672.333-.836-.5Zm5.741,5.326.557-.444,1.17.555,2.62,1.22,1.171.721.557.832.669,1.5,1.393.888-.112.443-1.337,1.11-1.449.5-.5-.222-1.059.61-.836,1.109-.78,1-.613-.056-1.226-.888-.112-1.554.223-.832-.557-1.942-.725-.61-.056-.888.781-.333.724-1.055.167-.333-.558-.61Z"/><path id="AK" class="cls-5" d="M59.485,192.189l-.112,29.295.558.333,1.059.056.5-.389h.892l.056,1,2.4,2.33L65,225.7l1.171-.665.223-.056.111-1.054.5-.555.39-.055.669-.5,1.059.721.223,1,.669.388.39.832,1.338.61,1.171,2.053.947,1.331.78.943.5,1.276,1.728.61,1.783.721.334,1.5.167,1.054-.334,1.165-.613.777-.557-.278-.5-1.054-.947-.5-.613-.389-.279.278.5.943.056,1.276-.39.166-.669-.666-.724-.444.167.555.446.61-.279.278a1.177,1.177,0,0,1-.446-.333c-.167-.222-.725-1.165-.725-1.165l-.334-.777s-.112.444-.335.333a1.524,1.524,0,0,1-.446-.5l.613-.666-.5-.5v-1.72H71.97l-.279,1.165-.39.167-.334-1.276-.223-1.276-.279-.166.111,1.942v.389l-.5-.444-1.226-2.053-.724-.166-.223-1.277-.557-1-.557-.389v-.777l.724-.444-.167-.111-.892.221-1.17-.832-.892-1-1.672-.887-1.393-.888.446-1.11v-.554l-.613.554-1,.389-1.282-.389-1.951-.832H55.027l-.223.167-2.23-1.332-.724-.111-.948-2-1.226.111-1.226.5.167,1.554.39-1,.334.111-.5,1.5,1.115-.943.223.555-1.338,1.5-.446-.111-.167-.666-.446-.277-.446.388-.947-.61-1.059.721-.613.721-1.17.721-1.616-.056-.167-.721,1.282-.222v-.444l-.78-.222.334-.832.78-1.332v-.61l.056-.277,1.5-.777.334.443h.948l-.446-.887-1.282-.111-1.728.943-.836,1.165-.613.888-.39.777-1.449.5-1.059.888-.111.554.78.333.279.721-.947,1.109-2.229,1.443-2.675,1.442-.724.388-1.839.389-1.839.777.613.444-.5.5-.167.389-.947-.333-1.115.056-.279.777h-.335l.112-.833-1.226.444-1,.333-1.171-.444-1,.666H20.972l-.724.443-.558.278-.724-.111-.892-.389-.78.222-.334.333-.557-.389v-.666l1.059-.444,2.174.222,1.505-.555.724-.721,1-.222.613-.277.947.055.557.444.334-.111.78-.943,1.059-.333,1.171-.222.446-.111.223.167h.279l.446-1.276,1.393-.5.669-1.276.78-1.553.557-.5.111-.888-.557.444-1.171.222-.223-.832-.446-.111-.334.333-.056,1-.5-.056-.5-2-.446.444-.39-.167-.112-.666-1.393.055-.725.389-.892-.111.5-.5.167-.888-.223-.666.5-.333.446-.056-.223-.61v-1.5l-.334-.333-.279.5H23.926l-.5-.444-.223-1.331-.724-1.221v-.333l.724-.277.056-.721.39-.389-.279-.166-.446.166-.39-.943.334-1.72,1.56-1.109.892-.555.669-1.276.948-.444.891.389.112.832.836-.111,1.115-.832.558.222.334.222h.557l.78-.444.279-1.5s.112-1,.334-1.165a1.544,1.544,0,0,0,.334-.333l-.39-.666-.892.278-1.114.278L30,203.451l-1.226-.61-1.728-.055-1.226-1.276.167-1.331.223-.832-.725-.61-.669-1.276.167-.278,2.341-.167h.724l.334.333h.223l-.056-.555,1.337-.222.892.111.5.389-.5.721-.167.5.947.555,1.728.61.613-.333-.78-1.5-.334-1.11.334-.277-1.171-.666-.167-.389.167-.555-.279-1.331-1-1.609-.836-1.443,1-.666h1.115l.613.222,1.449-.056,1.282-1.22.39-1.055,1.282-.832.557.332.947-.221,1.282-.721.39-.055.334.277,1.561-.055.948-1.054h.39l1.226.832.669.721-.167.388.223.389.557-.555,1.338.111.111,1.276.669.5,2.452.222,2.174,1.442.5-.333,1.783.888.725-.222.669-.278,1.672.666ZM7.038,233.856l1.17-.777,1.171-.333.892.111.167.555.669.167.669-.666-.111-.555.948-.222,1,.888-.39.61-1.5.389-.948-.166-1.282-.389-1.5.5-.557.111Zm43.642-12.262.836-.5-.334-.61-.613.333Z"/><path id="FL" class="cls-5" d="M266.949,170.73l.781,2.512,1.286,3.344,1.839,3.218,1.282,2.164,1.672,1.887c.522.585,1.4,1.076,1.642,1.864.139.452-.067.724-.147,1.142a2.226,2.226,0,0,0,.25,1.334l.539,1.373,1,1,.892,1.831,1.226,2,1.561,2.83.446,2.608c.026.627.046,1.254.073,1.88.019.45.017.907.047,1.355a15.225,15.225,0,0,1,.159,2.642c-.01.1-.715.383-.832.441a6.675,6.675,0,0,1-.113,1.364,4.548,4.548,0,0,0,.108.808l.167.666-.947,1.109-1.059.5-1.338.055-.5.555-.836.333-.446-.167-.39-.333s-.107-.963-.111-1a7.119,7.119,0,0,0-1.449-2.941,2.279,2.279,0,0,0-1.3-.723c-.158-.043-1.188-.282-1.261-.165l-.279.443c.092-.157-.681-1.032-.775-1.172a3.68,3.68,0,0,1-.506-1.539,2.628,2.628,0,0,0-1.137-1.529c-.683-.362-.458.327-1.022.438-.332.065-.621-.256-.774-.538-.21-.389-.24-.86-.459-1.245-.387-.681-.949-1.234-1.329-1.929a8.227,8.227,0,0,0-.686-1.252l-.892-1.054c-.375-.443-.821-.855-1.226-1.276a6.578,6.578,0,0,0,.725-.832c.492-.833,1.162-1.411,1.059-2.441-.034-.342-1.835-.247-2.117-.111.037.075.075.149.112.224.11.2.669.263.872.321-.019.177-.655,1.917-.759,1.723a11.092,11.092,0,0,1-.728-2.136,5.913,5.913,0,0,1-.445-1.816,8.019,8.019,0,0,1,.5-1.646v-3.273a7.642,7.642,0,0,1-.921-1.314,2.388,2.388,0,0,0-1.611-1.275,3.187,3.187,0,0,1-1.983-1.295c-.294-.467-1.039-.325-1.312-.983-.284-.683-.348-.647-.95-1a1.649,1.649,0,0,1-.592-.6c-.544-.829-1.045-.912-1.939-1.247a6.006,6.006,0,0,0-1.545-.485,6.478,6.478,0,0,0-1.743.262c-.258.052.129.834.137.9a.659.659,0,0,1-.082.488c-.41-.012-.818-.184-1.207.018-.281.146-.452.513-.689.721a8.9,8.9,0,0,1-1.671,1.091h-1.338c-.413,0-.755.328-1.124.406-.038-.3-.066-.6-.1-.906-.019-.158-.442-.576-.577-.674a16.366,16.366,0,0,0-2.649-1.409,9.376,9.376,0,0,0-1.679-.8l-2.619-.61-1.5.222-2.062.167-2.062.721-1.2.21-.082-2.763-.892-.666-.613-.61.112-1.054,3.511-.443,8.806-1,2.341-.222,1.874.1.892,1.332.5.5,2.792.177,3.731-.222,7.417-.444,1.878-.231,1.761.07.147,1,.77.278.081-1.589-.527-1.432.451-.494,1.915.156Z"/><path id="NH" class="cls-5" d="M308.66,68.9l.3-.37.376-1.129-.876-.313-.167-1.054-1.338-.388-.111-.943-2.508-8.045-1.587-4.991h-.309l-.223.555-.223-.167-.334-.333-.5.666-.016,1.727.108,1.945.668.943v1.387l-1.281,1.737-.892.388V60.9l.39.61v2.941l-.279,3.162-.055,1.664.334.444-.055,1.553-.167.61.334.243,5.788-1.519.749-.207.636-.952Z"/><g id="MI"><path id="MI-" class="cls-5" d="M245.588,80.843a11.708,11.708,0,0,0-.817-2.324c-.285-.837-.557-1.68-.794-2.532a4.84,4.84,0,0,0-.96-1.867,1.972,1.972,0,0,0-2.339-.339c-.7.362-.861,1.122-1.153,1.782a8.73,8.73,0,0,1-1.07,1.618l-.39.222-.5-.222s-.89-.5-.836-.72c.127-.529.085-1.234.477-1.695.311-.365.743-.353.94-.81a5.241,5.241,0,0,0,.2-.825,3.489,3.489,0,0,1,.177-.72c.156-.295.386-.32.616-.547.809-.794.38-3.54-.317-4.272-.1-.1-1.075-.837-.813-1.117.193-.207.66-.175.767-.451.166-.428-.547-.726-.709-1.048-.129-.257-.238-.674-.486-.833-.347-.223-.992-.109-1.411-.234a4.512,4.512,0,0,1-1-.32l-1.895-1.165a1.276,1.276,0,0,0-1.17.22c-.069.1-.732-.459-.843-.511-.681-.321-2.659-.147-2.558.956.09.98.158,1.265,1.166,1.5.054.013.142.233.164.28-.108-.236-2,.576-2.147.839-.568.993.03,1.948-.042,2.961-.031.432-.719,1.2-1.2,1.081l-.223-.055c0-.368-.022-.743,0-1.11a11.4,11.4,0,0,1,.667-2c.122-.454-.836.038-.952.22-.159.249-.028,1.1-.329,1.22l-.947.388-.613.666-.056.333.223.277c.076.094-.1.6-.163.7-.2.282-.669.18-.825.443s.177.875.264,1.134l-.39,2.108c-.217,1.175-.689,2.172-.167,3.385l-.279.832-.111.278-.111.943c-.031.261.632,1.081.784,1.356.289.522.566,1.05.82,1.59a8.68,8.68,0,0,1,.755,5.146,12.134,12.134,0,0,1-.757,2.557,11.856,11.856,0,0,1-.531,1.659,5.33,5.33,0,0,1-1.025,1.068l1.52-.056,7.384-.777,2.509-.339.033.572,2.362-.416,3.551-.516,1.329-.158.047-.2.056-.5c.176-.31.333-.65.535-.943.256-.37.665-.677.794-1.122.111-.384-.266-1.264.008-1.54.214-.216.728-.452.878-.668.251-.365-.068-.836.127-1.22.111-.219.351-1.012.643-1,.245.014.243.366.548.4C246.189,84.56,245.646,81.462,245.588,80.843Z"/><path id="SP-" class="cls-5" d="M200.641,58.184l.247-.2c.41-.331,1.251-.457,1.748-.785.308-.2.407-.59.711-.788a3.36,3.36,0,0,1,1.252-.245,4.018,4.018,0,0,0,1.474-.724c.414-.262.916-.357,1.313-.63.45-.309.5-.758.757-1.206.282-.494.685-.59,1.073-.956.269-.254.488-.555.744-.82a4.008,4.008,0,0,1,2.067-1.127c.238-.057,1.787-.275,1.736.237-.066.656-.928.444-1.343.73s-.511.841-.912,1.094c-.608.385-.339.355-.583,1-.125.33-.419.519-.605.809a2.37,2.37,0,0,0-.346,1.2c-.049.394.586-.191.613-.222l1.222-1a1.5,1.5,0,0,0,1.1.533,2.144,2.144,0,0,1,1.246.241l.5.389.5,1.054.947.943c.292.291,1.575-.212,1.84-.388.162.129.841.779,1.114.61.392-.244.841-.277,1.219-.506.508-.309,1.036-1.148,1.568-1.325l1.17-.388L225.3,55.6l1.561-.666a2.4,2.4,0,0,1,1.383-.4s-.163,1.893.457,2.139c1.032.409,2.485-.254,3.509-.522.445-.117.289-.453.884-.233.081.03-.007,1.7.023,1.887a2.006,2.006,0,0,0,1.1,1.564l.446.222a1.926,1.926,0,0,1,.417.332c-.023-.023-.95-.031-1.111-.054-.289-.041-.578-.075-.867-.112l-.725.222-.78-.055-1.115.5h-.613l-2.007-.444a2.123,2.123,0,0,0-2.452.943c-.153.2-1.838.088-2.142.139-.984.164-1.147.513-1.481,1.415l-.446.389-.167-.055c-.457-.152-.32-.46-.829-.373a5.048,5.048,0,0,0-1.233.651h-.223c-.375,0-.236-.637-.657-.446-.3.137-.544,1.139-.681,1.445l-.334,1.387-1.1,2.4-.405-.355-.473-.354-.67-3.531-1.222-.47-.708-.785-4.178-.941-.985-.353-2.837-.746-2.721-.392Z"/></g><path id="VT" class="cls-5" d="M296.14,72.888l.109-1.834-1-3.7-.222-.111-1-.444.279-1-.279-.721-.931-1.592.334-1.332-.279-1.776-.836-2.219-.278-1.689,9.108-2.31.106,1.9.661.941v1.387l-1.278,1.736-.892.392,0,.384.452.522-.107,2.779-.21,3.177-.079,1.907.334.444-.056,1.569-.167.58.35.25-2.564.517Z"/><path id="ME" class="cls-5" d="M323.108,47.189a2.189,2.189,0,0,1,.716.6l.78,1.276v.666c0,1.393-1.764,1.983-2.564,2.885L320.368,54.5h-.445c-.436,0-.3-.771-.824-.672-.232.044-.5.511-.7.649-.246.166-.732.238-.8.6-.052.288.38.476.4.766s-.256.821-.29,1.146a1.356,1.356,0,0,1-.587-.07c-.164-.132-.124-.395-.184-.582-.137-.428-.324-.884-.851-.893-.582-.01-.451.365-.525.775a4.426,4.426,0,0,0-.12,1.321,2.3,2.3,0,0,1-.207,1.326c-.342.57-1.042.363-1.291,1.013a3.914,3.914,0,0,1-.092.5,5.617,5.617,0,0,1-2.386,1.029,1.221,1.221,0,0,0-1.207.659c-.377.62.062.92-.086,1.5-.059.234-.283.275-.369.48a4.262,4.262,0,0,0-.076,1.325l-.388,2.148-.848-.4-.167-1.054-1.338-.388-.111-.943L304.362,56.7l-1.62-5.024.49-.041.522.141v-.888l.451-1.543A13.084,13.084,0,0,0,305.3,47.4a1.937,1.937,0,0,0,.135-.927c-.05-.312-.5-.713-.5-.957a4.511,4.511,0,0,1,.379-2.523c.519-.979-.295-1.986.068-2.969l.613-1.664c.3-.915.495-1.861.814-2.773a4.467,4.467,0,0,1,.662-1.368c.1-.122,1.143-.675,1.143-.3v.389c0,.4,1.063,1.326,1.393,1,.218-.217.165-.4.319-.608a6.076,6.076,0,0,1,1.352-1c.371-.266.532-.582,1.047-.56a5.161,5.161,0,0,1,1.3.44,2.54,2.54,0,0,1,1.809,1.713c.672,2.2,1.328,4.411,2,6.614a18.764,18.764,0,0,0,.7,2.288c.295.647.987.317,1.672.378.574.051.568.15.784.666,0,0,.055,1.648.055,1.664.006.235.785.694,1.018.635s.146-.344.316-.421A1.206,1.206,0,0,1,323.108,47.189Z"/><path id="RI" class="cls-5" d="M306.34,81.413l-1.274-5.133,2.162-.633.756.661,1.14,1.483.926,1.511c-.459.247-.935.658-1.48.5.12.034-1.128,1.2-1.226,1.276Z"/><path id="NY" class="cls-5" d="M291.277,84.793l-.39-.333-.892-.055-.78-.666-.562-2.1-1.193.031-.842-.929-6.684,1.5-14.826,3-2.6.421-.254-2.22.492-.386.445-.389.334-.555.613-.388.668-.609c.146-.133.243-.637.391-.835.379-.506.979-.715.812-1.432a1.158,1.158,0,0,0-1.035-1.007,5.219,5.219,0,0,1-.518-1.467,1.079,1.079,0,0,1,.852-1.252l1.5-.5,1.394-.444,1.114-.166,2.174-.055c.158,0,.486.306.694.349a1.373,1.373,0,0,0,.709-.064,12.13,12.13,0,0,0,1.439-.617c.727-.316,1.538-.008,2.253-.534.659-.485.666-1.449,1.319-1.892a1.33,1.33,0,0,1,.831-.126c.443,0,.723-.558.709-.953-.014-.413-.405-.573-.486-.933l-.111-.5c-.023-.1.243-.419.283-.528.319-.86-.049-.488-.507-.694l-.611-.276c-1.47-.665,1.308-2.714,1.67-3.164l.223-.277.5-1,1-1.554.947-1.276.725-.832.833-.627,1.061-.427a8.917,8.917,0,0,1,2.508-.386,9.9,9.9,0,0,0,2.063-.5l2.608-.711.179,1.709.836,2.219.278,1.775-.334,1.332.892,1.554.279.721-.279,1,1,.444.223.111,1.059,3.773-.185,1.737-.167,3.717.279,1.887.279,1.221.5,2.5V84.9l-.391.777.634.684.275.576-.669.61.111.444.446-.111.5-.444.78-.888.39-.222c1.494.6,2.729-.408,4.069-1.054.565-.276,1.939-2.5,2.669-.924.247.533-.6,1-.942,1.257l-1.338,1L301.1,88.434l-.892.333-2.007.666-1.393.389-.405-.183-.084-1.266.167-.943-.056-.721-.97-.583-1.56-.333-1.338-.388Z"/><path id="PA" class="cls-5" d="M289.465,97.13l.451-.093.8-.43.418-.852.557-.777,1.114-1.054v-.277l-.836-.555-1.227-.832-.334-.888-.947-.111-.056-.389-.279-.943.781-.389.056-.832-.446-.444.056-.555.669-1.054V85.6l.93-.908-.318-.232-.869-.066-.791-.666-.535-2.1-1.208.034-.846-.928-6.237,1.441-14.826,3-3.066.5-.214-2.238-1.849,1.739-.446.166-1.449,1.033,1,6.568.855,3.339,1.232,6.61,1.127-.219,4.117-.516,13.076-2.631,5.13-.969L287.924,98l.092-.082.725-.555Z"/><path id="NJ" class="cls-5" d="M291.035,84.7l-.8.938v1.054l-.669,1.054-.056.555.446.444-.056.832-.78.389.278.943.056.388.947.111.334.888,1.226.832.836.555v.277l-1.028.926-.558.777-.5.943-.78.444-.159.55-.084.416-.21.895.377.77,1.115,1,1.672.777c.344.162.792,0,1.123.179.549.3.135.483.059.977-.2,1.295.671.506,1.1.009l.278-1.664.948-1.387,1.06-2.22a5.906,5.906,0,0,0,.39-1.886l-.223-.389-.056-3.218-.556-1.162c.108.226-1.224.372-1.34.385l-.167-.166c.15.149,1.136-1.112,1.136-1.374l-.132-1.179.2-.943-.041-.676-.967-.6-1.756-.4-1.427-.474Z"/><path id="DE" class="cls-5" d="M289.639,98.361l.127-.737.129-.58-.56.136-.556.161-.761.605.593,1.731.78,1.942.725,3.329.557,2.164,1.728-.055c.7-.134,1.4-.3,2.106-.4,0,0-.492-1.829-.553-1.977-.192-.47-.184-.407-.675-.526-.409-.1-.93-.256-1.1-.707l-.613-1.609-.669-1.221-1.085-.985-.3-.72Z"/><path id="MD" class="cls-5" d="M294.522,106.645l-2.072.413-1.773.04-.636-2.376-.664-3.147-.887-2.124-.445-1.509-2.588.557-5.129.969-12.912,2.592.39,1.72.334,1.942.111-.111.725-.832.781-.9.836-.211.5-.5.613-.888.446.222,1-.111.892-.721.692-.5.636-.167.567.388,1,.5.669.61.418.527,1.421.583v1l1.9.444.394.186.487-.7.994.676-.441.852-.264,1.367-.613.888v.721l.223.61,1.746.465,1.487-.021,1.059.333.723.111a6.456,6.456,0,0,0,.338-.7,4.928,4.928,0,0,0-.549-1.391c-.307-.478-.766-.7-1-1.239-.19-.431-.34-.885-.509-1.325-.182-.476.273-1.112.41-1.551a1.324,1.324,0,0,0,.062-.741c-.08-.293-.4-.493-.443-.788-.061-.422.369-.921.594-1.227.117-.159,1.368-1.116,1.342-1.187a.843.843,0,0,1,.073.47c-.064.172-.358.233-.423.416-.128.364-.633,1.167-.375,1.561.1.147.5.18.654.211a12.049,12.049,0,0,1,.145,1.637c-.11.453-.51.305-.681.611s0,.8.085,1.122c.331-.639.718-.6,1.1-.053-.132-.186-.476.861-.488.9-.217.814.258,1.271.726,1.883.078.1.752.1.881.111.659.051.888-.332,1.35.2.276.321.522.678.782,1.013l.469.184,2.294-.96C294.708,109.4,294.586,106.632,294.522,106.645Z"/><path id="VA" class="cls-5" d="M291.63,111.317a2.7,2.7,0,0,0,.032-.654c-.016-.211,1.9-.8,2.174-.786a5.1,5.1,0,0,1-.215,1.016,18.787,18.787,0,0,1-.983,1.944c-.308.838,0,1.72-.2,2.576a11.085,11.085,0,0,1-.441,1.221c-.445,1.231-1.146-.856-1.176-1.308a6.9,6.9,0,0,1,.183-2.07C291.169,112.594,291.516,111.992,291.63,111.317Zm1.233,9.727-20.057,4.316-12.9,1.812-2.3-.129-.891.662-2.53.075-2.89.335-3.763.554,3.609-1.926,0-.712.524-.737,3.639-3.947,1.361,1.537,1.3.331.876-.391.772-.45.875.461,1.349-.49.648-1.564.9.185.984-.731.62.169.975-1.262.12-.715-.332-.438.346-.641,1.818-4.213.213-1.969.424-.179.751.838,1.357-.1.665-2.6.963-.193.362-.941.89-.806.956-1.955.029-1.739L277.9,104.8c.235.117.287-1.733.287-1.733l1.26.549.023,1.008,1.995.446.735.4.572.705-.226,1.252-.671.889.038.707.2.636,1.717.435,1.535.014,1.058.329.67.106.246,1.06c.031.108.88.142,1.008.21.54.288.353.747.3,1.3-.055.584-.065.648.413,1.029-.114.457-.262.738.259.934l-.076.475-.929-.033c-.341-.012.519.872.549.9.2.21.167.31.294.53a6.879,6.879,0,0,0,.445.57,2,2,0,0,1,.352,1.044,8.862,8.862,0,0,1-.88.474c.364.345.383.464.831.423.414-.038.842-.293,1.258-.371.563-.1.585.076.838.526C292.273,120.1,292.578,120.571,292.863,121.044Z"/><path id="WV" class="cls-5" d="M267.421,102.029l.384,1.7.373,2.07.735-.885.78-1.054.875-.211.5-.5.613-.888.5.222,1-.111.892-.721.692-.5.637-.167.449.349,1.256.625.668.61.474.444-.262,1.907-2.012-.872-1.464-.557-.034,1.777-.948,1.9-.872.833-.411.944-.912.172-.309,1.236-.36,1.356-1.369.117-.8-.837-.37.192-.218,1.877-.465,1.213-1.71,3.76.309.4-.071.655-.969,1.333-.623-.187-1.023.741-.876-.2-.69,1.564a7.1,7.1,0,0,1-1.352.47c-.055-.005-.851-.429-.851-.429l-.805.473-.831.359-1.291-.305-.386-.4-.756-1.037-1.083-.683-.59-1.243-1.478-1.19-.223-.777-.892-.5-.279-.555-.083-1.8.752-.028.669-.277.056-.943.558-.5.056-1.72.334-1.332.446-.222.446.389.167.61.613-.333.167-.555-.391-.61v-.832l.334-.444.781-1.165.446-.5.724.166.78-.555,1.059-1.165.78-1.332.111-1.942.167-1.72V98.1l-.39-1.054.334-.5.443-.444,1.2,6.8,1.6-.258Z"/><path id="OH" class="cls-5" d="M258.505,86.366l-2.1,1.391a14.568,14.568,0,0,0-2.306,1.917,6.091,6.091,0,0,1-2.307,1.627,30.6,30.6,0,0,0-3.3,1.171l-.725.055c-.649-.585-.994-1.076-1.9-.963a2.719,2.719,0,0,1-1.507-.14c-.57-.25-.9-.666-1.552-.651a12.092,12.092,0,0,0-1.394.2l-3.511.555-3.864.75.446,5.021.612,4.716.892,8.045.2,1.658,1.421-.044.837-.277,1.159.516.714,1.5,1.772-.006.652.727.607-.022.875-.461.864.127,1.869.166.6-.732.809-.444.714-.234.222.943.613.333,1.2.8.752-.028.459-.169.063-.948.547-.5.034-1.645.353-1.41.448-.206.455.394.186.582.592-.356.151-.5-.385-.653.023-.794.258-.368.742-1.135.362-.53.725.166.78-.555,1.059-1.165.955-1.4.111-1.735.167-1.72-.061-1.821-.33-.994.121-.409.622-.6-.789-3.105Z"/><path id="IN" class="cls-5" d="M218.6,122.966l.023-.981.167-1.554.78-1,.612-1.332.892-1.442-.167-2-.613-.943-.112-1.11.279-1.886-.167-2.386-.446-5.493-.445-5.271s-.333-4-.335-4.022a5.165,5.165,0,0,0,1.446.455,1.583,1.583,0,0,0,1.229-.594l.975-.555,1.756-.055,7.58-.777,1.922-.183.518,5.476,1.466,12.644.207,1.981-.128.777.423.616.033.471-.869.549-1.22.532-1.1.189-.206,1.671-1.577,1.137-.964,1.376.111.816-.2.526h-1.147l-.547-.555-.86.433-.925.516.056,1.049-.412.088-.161-.349-.747-.516-1.121.46-.534,1.032-.5-.278-.5-.549-1.539.166-1.928.333Z"/><path id="IL" class="cls-5" d="M218.586,123.094l.011-1.108.2-1.595.8-1,.643-1.4.77-1.371-.128-1.8-.692-1.216-.033-1.148.24-1.809-.285-2.464-.368-5.415-.446-5.154-.318-3.995-.094-.316a13.006,13.006,0,0,0-1.229-2.708,5.543,5.543,0,0,1-.634-2.838l-15.789.892.079.814.788.235.316.392.158.628,1.34,1.177.236.785-.236,1.177-.631,1.255-.237.863-.788.628-.631.235-1.813.471-.236.628-.237.706.237.471.63.549-.079,1.412-.63.55-.237.549v.942l-.631.157-.551.392-.079.471.079.706-.591.451-.355.961.158,1.255.788,2.511,2.522,2.589,1.892,1.255-.079,1.491.316.471,2.207.157.946.471-.237,1.256-.789,2.04-.236,1.1.789,1.334,2.207,1.8,1.576.235.709,1.726.709,1.1-.315,1.02.551,1.413.63.706.488-.3.313-.712.763-.6.735-.211.9.405,1.251.472.41-.1.069-.775-.444-.828.1-.815.634-.463,1.042-.278.434-.158-.211-.476-.273-.808.494-.336Z"/><path id="CT" class="cls-5" d="M306.34,81.4,305.072,76.3l-1.627.316-7.319,1.628.345,1.107.5,2.5.061,3.077-.42.746.662.663,1.473-1.34c.466-.421.89-.887,1.357-1.307a1.59,1.59,0,0,1,1.1-.443,9.561,9.561,0,0,0,1.15-.465,9.531,9.531,0,0,0,1.3-.283C303.8,82.424,306.354,81.456,306.34,81.4Z"/><path id="WI" class="cls-6" d="M217.043,87.753l-.023-1.084-.407-1.554c-.06-.565-.095-1.139-.179-1.7a4.043,4.043,0,0,1-.145-2.147,9.753,9.753,0,0,1,.827-2.033l-.224-1.165-.223-1.221.167-.61.669-.833a4.689,4.689,0,0,0,.042-.7c-.028-.281-.219-.5-.245-.769-.035-.357.109-.711.107-1.071a3.451,3.451,0,0,1,.293-1.894l.594-1.215,1-2.33c.025-.348.141-.778-.061-1.087-.627.094-1.387,1.817-1.722,2.308l-.948,1.387c-.162.237-.455.388-.623.639-.352.527-.387.767-1,1.025-.117.048-.318.544-.39.665a4.024,4.024,0,0,1-.5-.111c-.349-.109.986-2.767,1.114-3.052l.613-.555.342-.809-.883-.653-.681-3.558-1.223-.461-.671-.792-4.182-.934-.991-.348-2.832-.744-2.73-.4-1.3-1.761-.259.19-.413-.055c-.353-.046-.438-.363-.858-.312-.356.044-.877.464-1.051.033-.2-.5.29-1.02.593-1.359.132-.147.575-.479.46-.724-.1-.21-.961-.227-1.114-.165a7.152,7.152,0,0,0-1.166.742l-2.564,1.11-1,.222-1-.166-.339-.3-.73.973-.079.941v2.9l-.394.549L188.9,64.107l-.788,2.04.158.078.867.706.236,1.1-.631,1.1v1.334l.158,2.275,1.025,1.02h1.182l.631,1.1,1.182.157,1.34,1.962,2.443,1.412.71.942.315,2.55.236,1.138.788.549.079.471-.709,1.177.079,1.1.867,1.334.867.392,1.025.157.463.474Z"/><path id="NC" class="cls-5" d="M292.864,121.025l.718,1.685c.255.6.645,1.166.959,1.735.38.69,1.125,1.244,1.292,2.035a2.454,2.454,0,0,1-.8.116c.491-.034.293,1.018.223,1.245-.174.561-.806.739-1.063,1.241-.2.381-.084,1.139-.553,1.342l-1.282.555-.836-.111a5.7,5.7,0,0,1-.98-.371,4.42,4.42,0,0,1,.033.648h.668l.279.444-.668,2.164H292.3l.222.554c-.153-.4.711-.725.976-.775a2.889,2.889,0,0,1-.419,1.053c-.242.38-.473.771-.726,1.145-.444.656-1.4.407-2.116.576l-1.784.832-2.229,1.831-1.171,1.609c-.462.635-.262,1.472-.487,2.18-.311.983-1.079.946-1.965,1.037l-1.88.459-3.429-2.815-4.348-2.607-1-.278-4.348.5-1.474.257-.557-1.11-1.024-.726-5.685.166-2.508.278-3.121,1.554-2.118.888-7.3.888.172-1.392.613-.5.947-.222.223-1.276,1.449-.943,1.338-.5L250,135.2l1.505-.721.223-1.054,1.337-1.331.224-.055s0,.388.278.388a3.043,3.043,0,0,1,.669.111l.78-1.22.725-.222.781.111.557-1.221,1-.888.167-.721.065-1.252,1.474-.008,2.482-.293,5.433-.774,5.218-.716,7.462-1.62,6.89-1.462,3.853-.825Z"/><path id="DC" class="cls-5" d="M282.809,106.105l-.641-.626-.425-.235.5-.694,1,.669Z"/><path id="MA" class="cls-5" d="M314.523,76.977c-.613.24-2.059,1.64-2.7,1.336-.381-.182-.246-.952.078-1.116-.218.111-.89.3-1,.5l-.279.5.167.777-.713.343-.947-1.554-1.171-1.5-.714-.622-2.253.644-1.755.361-7.128,1.576-.23-1.636.222-3.634,1.479-.305,2.341-.444,6.084-1.592.78-.222.66-.96,1.286-.57a4.812,4.812,0,0,1,.557.831c.721,1.186-.148,1.351-.394,2.458l-.112.5a2.913,2.913,0,0,0,.473.621c.384.271.749-.212,1.221.05a3.44,3.44,0,0,1,1.033,1.278c.436.726.867,1.576,1.8,1.7.967.131,1.869-.388,1.319-1.393-.238-.434-1.677-1.149-.727-1.377,1.05-.251,1.606.995,1.87,1.775C316.149,76.422,315.394,76.636,314.523,76.977Z"/><path id="TN" class="cls-5" d="M245.18,129.241l-17.891,1.72-5.434.61-1.593.176-1.334-.01-.076,1.407-2.822.091-2.4.222-2.789-.043-.488,2.428-.585,1.881-1.135.944-.465,1.5-.112.888-1.393.777.5,1.22-.334,1.5-.334.271,37.29-3.572.139-1.357.624-.512.977-.257.232-1.275,1.413-.928,1.4-.513,1.408-1.225,1.529-.7.179-1.053,1.4-1.367.19-.04s.011.388.29.388a2.814,2.814,0,0,1,.669.122l.78-1.231.714-.222.784.1.551-1.213,1.019-.907.146-.665.106-1.274-.74-.069-.9.7-2.411.01-6.33.819Z"/><path id="AR" class="cls-5" d="M209.72,137.752l-1.372.246-1.763-.218.145-.55,1.027-.881.325-1.255-.63-1.02-27.036.863.552,2.354v2.824l.473,3.766.078,12.985.789.667,1.024-.471.946.393.234,2.256,19.177-.391.4-.717-.1-1.218-.63-1.02.551-.51-.551-.862.236-.862.472-1.923.868-.708-.236-.784,1.261-1.843.946-.47-.04-.513-.119-.626.985-1.922.829-.431.132-1.176.61-.426-1.084-.166-.462-1.377.967-.815.19-.693.441-1.388Z"/><path id="MO" class="cls-5" d="M197.52,105.168l-.869-1.06-.394-.785-22.189.824-.788.039.433.863-.079.785.868,1.334,1.064,1.412,1.065.941.745.078.516.314v1.02l-.631.549-.158.784.709,1.177.867,1.02.867.628.473,4,.108,12.38.078,1.609.158,1.847,7.735-.3,8-.235,7.173-.275,4.018-.079.748,1.176-.236,1.135-1.065.825-.2.631,1.855.157,1.343-.236.593-1.886.224-2.01.723-.877.895-.51.018-1.047.351-.664-.584-.873-.459.338-.687-.764-.443-1.634.276-.864-.67-1.176-.632-1.571-1.654-.274-2.4-1.922-.593-1.412.275-1.1.71-2.079.158-.983-.672-.354L202.8,115.8l-.355-.588-.038-1.452-1.892-1.177-2.4-2.667-.788-2.511-.079-1.45Z"/><path id="GA" class="cls-5" d="M236.773,142.041v.749l.056.721.223,1.165,1.171,2.719.836,3.384.5,2.108.558,1.664.5,2.386.724,2.164.892,1.165.167,1.165.669.278.056.721-.613,1.665-.167,1.109-.056.666.558,1.5.111,1.831-.278.832.223.278.5.278.07,1.1.77,1.15.776.742,2.731.055,3.73-.222,7.417-.444,1.877-.232,1.578.01.056,1,.892.278.111-1.5-.558-1.554.391-.555,2.007.278,1.716.109-.267-2.162.78-3.44a5.146,5.146,0,0,0,.334-2.33c.372-.694,1.378-1.744.973-2.6-.221.06-.44.151-.658.23l-.892-.444-.223-.721-.445-1.22-.781-.721-.892-.222-.557-1.664-1.008-2.174-1.449-.666-.725-.666-.446-.888-.724-.666-.78-.444-.781-1-1.059-.777-1.561-.61-.167-.5-.836-1-.167-.5-1.17-1.705-1.214.033-1.294-.809-.49-.444-.111-.61.3-.666.768-.382-.219-.72Z"/><path id="SC" class="cls-5" d="M268.716,160.1l-.613.333-.891-.444-.223-.721-.446-1.221-.781-.721-.891-.222-.558-1.665-.948-2.053-1.449-.666-.725-.666-.446-.888-.724-.666-.78-.444-.78-1-1.059-.777-1.56-.61-.167-.5-.836-1-.167-.5L253.5,143.9l-1.171.055-1.393-.832-.446-.444-.111-.61.279-.666.78-.333-.176-.786,1.988-.8,3.143-1.575,2.681-.278,5.556-.145.909.644.579,1.152,1.483-.209,4.348-.5,1,.277,4.347,2.607,3.485,2.787c-.437.438-.877.874-1.31,1.316a8.12,8.12,0,0,0-1.45,2.666c-.251.594.094,1.336-.243,1.948-.13.235-.35.388-.495.608a7.393,7.393,0,0,1-.341.7c-.215.258-.464.194-.733.337a2.005,2.005,0,0,0-.612.572c-.68.866-1.365,1.854-1.979,2.771l-.558.277c-.765.382-1.109,1.23-2.061,1.277-.01.293.129.572.1.865-.032.359-.253.532-.489.791a7.087,7.087,0,0,1-1.175,1.284Z"/><path id="KY" class="cls-5" d="M255.288,121.353l-.791.824-1.234,1.371-1.7,1.876-.419.589-.021.721-1.51.742-1.95,1.166-2.494.617-17.883,1.681-5.434.61-1.593.176-1.334-.01-.078,1.449-2.82.049-2.4.222-2.754-.02.417-.453.862-.529.079-1.1.315-.628-.554-.871.276-.655.78-.61.725-.221.947.443,1.226.444.39-.111.056-.777-.446-.833.112-.777.668-.5.892-.222.557-.222-.278-.61-.223-.665.519-.342c0-.013.432-1.209.427-1.255l1.053-.508,1.834-.333,1.549-.166.48.558.527.3.549-1.067,1.1-.44.76.509.142.343.4-.09-.056-1.014,1.079-.6.741-.368.528.57,1.144-.015.2-.54-.126-.777.9-1.372,1.647-1.18.243-1.66,1.008-.156,1.307-.565.843-.586-.069-.537-.393-.5.2-1.028,1.443-.04.793-.256,1.154.49.708,1.5,1.77,0,.707.758.557-.051.9-.439,1.806.2.888.075.582-.706.9-.489.649-.243.223.974.7.363.911.715.04,1.947.278.54.893.534.266.787,1.434,1.18.623,1.244Z"/><path id="AL" class="cls-5" d="M222.642,178.031l-.514-4.916-.947-6.435.056-4.827.279-10.652-.056-5.715.057-2.2,15.337-1.242-.051.749.056.721.224,1.165,1.17,2.718.836,3.385.5,2.108.557,1.664.5,2.386.725,2.164.892,1.165.167,1.165.669.278.055.721-.613,1.664-.167,1.11-.056.666.558,1.5.111,1.831-.279.832.223.278.5.277.113.992-1.929-.121-2.341.222-8.806,1-3.59.483-.076.987.613.61.892.666.2,2.723a7.08,7.08,0,0,1-1.357.633,2.611,2.611,0,0,1-1.244.157c.231.033.532-.574.69-.684v-.333l-.591-1.146c-.253-.492-.661-1.147-1.3-1.1-.132.01-.393,1.3-.447,1.465l-.446.943-.223-.055Z"/><path id="LA" class="cls-6" d="M214.6,177.6l-1.132-1.086.348-1.888-.228-.306-3.194.345-8.629.158-.236-.822.315-2.9,1.143-2.04,1.735-2.983-.2-.823.433-.233.158-.67-.788-.705-.038-.666-.631-1.492-.05-2.176-19.126.318.01,3.285.236,3.217.236,1.333.867,1.413.315,1.726,1.5,1.883.079,1.1.236.235-.236,2.9-1.025,1.726.552.706-.237.863-.236,2.511-.473,1.1.042,1.241,1.616-.522a8.124,8.124,0,0,1,2.212.007,11.567,11.567,0,0,1,2.423.257c1.056.249,2.083.677,3.109,1.028l2.23.389a2.941,2.941,0,0,0,1.177-.243,1.976,1.976,0,0,1,1.219.132,6.164,6.164,0,0,0,1.131.324c.352-.848-.153-.857-.85-1.1-.141-.049-.514.116-.7.106-.849-.044-1.277-.8-.348-1.174.562-.226.7-.027,1.159.344.046.037.447-.259.519-.277.837-.2,1.145.333,1.493.973a1.5,1.5,0,0,0,1,.834c.233.059.516,0,.739.069,1.091.356-.135,1.576.875,2.134a8.364,8.364,0,0,0,2.016.922c.327.079,1.661.153,1.832-.268a1.4,1.4,0,0,1,1.222-1.055c.238-.059.45-.391.7-.377.728.038.37.82.344,1.256.218,0,.907-.049,1.077-.238.3-.329.455-.91.892-1.084a1,1,0,0,1-.668-.141,2.058,2.058,0,0,0,.171-1.025c.094.268.947-.561,1.1-.518.372.1.058,1.241.46,1.241a4.722,4.722,0,0,1,2.083.419c.393.2.62.617,1,.82a2.126,2.126,0,0,0,1.093.148c.1,0,.32.232.4.3.307.148.773-1.332.774-1.515,0,.152-.892-.42-.964-.47a5.774,5.774,0,0,0-2.659-.752c-.216-.15-.433-.3-.647-.452-.552-.4-.3-.724-.078-1.268l.78.111.056-.222-.613-.333v-.166h1.114l.613-1.054c.015-.025-.53-1.388-.558-1.609a1.381,1.381,0,0,0-1.17.777l-.223.888c-.032.128-1.052-.339-1.15-.474-.392-.545.748-1.707,1.025-2.206l-.365-.828Z"/><path id="MS" class="cls-5" d="M222.729,177.663l-.087.431h-1.784l-.5-.278-.724-.111c-.39-.06-1.109.4-1.5.484-.459.1-1.02-.109-1.445.118-.477.256-.485.935-.9,1.23l-.38.267-.387-.854-.394-1.334-1.182-1.1.394-1.9-.236-.314-.631.079-2.73.3-8.463.129-.266-.764.3-2.875,1.075-1.947,1.8-3.139-.153-.835.426-.225.15-.659-.8-.714-.039-.735-.634-1.414-.037-2.046.457-.852-.077-1.172-.61-1.058.526-.509-.541-.858.158-.567.544-2.24.857-.7-.221-.813,1.261-1.819.976-.466-.076-.575-.1-.577.991-1.91.809-.423.053-.307,12.874-1.332.064,2.157.056,5.715-.278,10.652-.056,4.827.948,6.436Z"/><path id="IA" class="cls-5" d="M201.227,88.513l.091.956.767.2.329.42.172.637,1.307,1.153.236.821-.232,1.175-.546,1.109-.276.941-.749.55-.592.2-1.924.638-.479,1.321.251.471.635.577-.1,1.385-.608.528-.266.564.043.953-.65.157-.56.379-.1.464.1.726-.535.383-.852-1.075-.436-.841-22.663.863-.316.057-.708-1.55-.079-2.275-.552-1.412-.236-1.8-.788-1.255-.316-1.648-.946-2.589-.394-1.844-.473-.745-.552-.941.674-1.662.473-1.962-.946-.706-.157-.942.316-.863h.591l28.5-.436.288,1.436.777.536.088.489-.7,1.163.066,1.1.867,1.3.872.444,1.062.172Z"/><path id="MN" class="cls-5" d="M168.834,64.228l-.158-2.9-.63-2.511-.631-4.629-.158-3.374-.63-1.177-.552-1.726V44.377l.236-1.334-.628-1.871,10.389.012c.036-.918.054-1.889.115-2.823.57-.129,1.443-.028,1.7.545a11.08,11.08,0,0,1,.25,1.723l.5,2.108c.388.386.526.573,1.075.573.733,0,1.041-.313,1.266.481.039.137,1.237.09,1.372.094s.63-.067.735.03a1.943,1.943,0,0,1,.066.708h1.672a2.855,2.855,0,0,1,.361-.689,1.429,1.429,0,0,1,.942-.361c.164.024.342.239.523.293.561.168.815-.008,1.311.3a8.631,8.631,0,0,0,.933.62l1.839.832a4.159,4.159,0,0,0,.836.166c.129.026.3-.7.685-.366.126.108.122.688.151.865l.892.444.167-.166.446.055a5.654,5.654,0,0,0,.03.689c.132.189.607.258.822.306,1.42.317,1.718-.609,2.8-1.2.646-.354.851-.313,1.139.319l.167.444h.334l.334-.277c.231-.191,1.265-.035,1.6-.061,1.193-.093,1.465-.058,2.082,1h.223l.246-.372c.151-.228.8-.2,1.02-.17.183.022.343-.07.451.1a1.412,1.412,0,0,1-.151.726l-1.358.63-3.187,1.394-1.647.689-1.058.888c-.507.741-.925,1.669-1.495,2.344-.374.443-.97.745-1.382,1.2l-.914,1.007-.445.055-1.492.946-.85,1.1-.079,1.1.033,2.761-.474.579L188.9,64.1l-.769,2.053.99.767.235,1.107-.64,1.112.059,1.286.127,2.31,1.044,1.03H191.1l.653,1.075,1.165.173,1.33,1.946,2.443,1.413.739.987.231,2.21-28,.393-.116-12.244-.158-1.02-1.419-1.177-.393-.628v-.55l.709-.549.473-.471Z"/><path id="OK" class="cls-5" d="M136.117,130.122l-5.752-.437-.3,3.759,7.056.4,11.052.448-.805,8.38-.158,6.12.079.55,1.5,1.255.709.392.237-.078.237-.706.473.628h.709v-.471l.946.471-.158,1.334,1.419.078.867.392,1.419.235.867.628.788-.706,1.182.235.867,1.177h.315v.785l.788.235.788-.784.631.235h.867l.315.863,2.172.714.473-.236.631-1.412h.394l.394.706,1.418.236,1.261.47,1.025.314.631-.314.236-.863h1.5l.709.314.946-.706h.394l.237.549h1.419l.551-.706.631.157.709.863,1.1.628,1.1.313.669.384-.134-12.773-.473-3.766-.055-3.045-.5-2.244-.269-2.464-.023-1.31-4.185.11-16-.157-15.528-.706Z"/><path id="TX" class="cls-6" d="M129.608,133.469c2.552.123,5.1.253,7.655.365,2.471.108,4.944.183,7.415.273l3.473.127c-.182,2.626-.565,5.24-.786,7.862-.092,1.092-.057,2.211-.084,3.308-.02.8.033,1.6,0,2.39a2.972,2.972,0,0,0,0,1.229,4.874,4.874,0,0,0,1.512,1.592c.619.473.918.311,1.2-.394.375.607.407.629,1.121.634-.022-.163.016-.333,0-.5a4.185,4.185,0,0,0,.968.472q-.062.681-.124,1.362a8.672,8.672,0,0,1,1.351.033c.367.068.7.313,1.064.41a10.791,10.791,0,0,1,1.305.177,3.868,3.868,0,0,1,.883.718c.605-.578.943-.94,1.846-.539.564.25.614,1.2,1.306,1.254q-.027.338-.055.675c.183.066.587.3.769.269.275-.053.463-.565.735-.648a8.979,8.979,0,0,1,1.566.168c.175.39.2.694.519.9a5.643,5.643,0,0,0,1.656.544c.947.191,1.2-.72,1.387-1.574.613-.148.5.495.856.738.291.2.977.118,1.333.211.7.182,1.772.847,2.445.756.658-.089.6-.661.791-1.144a4.219,4.219,0,0,1,2.159.334c.252-.178.645-.642.929-.712.476-.118.509.213.709.556a4.556,4.556,0,0,0,1.265,0c.294-.1.452-.424.657-.7.829.179,1.029.78,1.724,1.2s1.472.535,2.162.938a8.089,8.089,0,0,1,.994.765,3.662,3.662,0,0,1,1.032-.448,3.16,3.16,0,0,1,.945.383c.242,2.891.046,5.808.417,8.691a4.562,4.562,0,0,0,.717,2.019,7.587,7.587,0,0,1,.711,2.177,6.442,6.442,0,0,0,1.2,1.786,4.525,4.525,0,0,1,.57,1.71,7.3,7.3,0,0,1-.184,2.694,6.1,6.1,0,0,1-1,1.918c.365.462.5.592.421,1.121-.057.389-.14.747-.176,1.144a13.284,13.284,0,0,1-.153,1.706c-.09.393-.374.73-.469,1.119a4.139,4.139,0,0,0,.04,1.34,18.158,18.158,0,0,0-2.3.706c-.578.248-1.148.519-1.719.782a5.762,5.762,0,0,0-1.3.583c-.281.259-.367.65-.68.919a12.222,12.222,0,0,1-1.189.864,20.608,20.608,0,0,0-2.261,1.948,17.385,17.385,0,0,1-4.7,2.777c-1.722.775-3.126,1.944-4.777,2.824a7.937,7.937,0,0,1-1.167.347c-.438.158-.522.361-.817.777-.209.294-.526,1.009-.847,1.18-.356.188-1.071-.112-1.394.126-.728.539.244.885.365,1.339.106.4-.182.949-.291,1.318-.341,1.154-.7,2.305-.962,3.481a4.245,4.245,0,0,0,.057,2.464c.226.8.458,1.626.61,2.446.1.558.1,1.2.258,1.736.191.651.993,1.038.391,1.6a1.979,1.979,0,0,1-1.42.467,17.3,17.3,0,0,1-1.536-.987,4.619,4.619,0,0,0-1.755-.463,5.7,5.7,0,0,1-1.717-.073c-.634-.227-1-.881-1.619-1.116-.578-.218-1.257-.206-1.849-.413a18.476,18.476,0,0,1-2.084-.92c-1.1-.551-1.262-2.143-1.468-3.239-.167-.886-1.025-.615-1.337-1.378-.2-.481.22-1.04.244-1.516.03-.59-.605-.7-.608-1.236,0-.861.638-1.425-.271-2.072-.283-.2-.719-.194-1-.4a2.874,2.874,0,0,1-.476-.579,9.894,9.894,0,0,1-.961-1.366,11.71,11.71,0,0,0-.882-1.7c-.267-.341-1.486-.767-1.562-1.032a27.228,27.228,0,0,0-2.414-6.473c-1.058-1.8-2.761-4.193-4.7-5.108a4.95,4.95,0,0,0-2.6-.295,3.554,3.554,0,0,1-1.676-.377,3.943,3.943,0,0,0-4.888,2.015,6.452,6.452,0,0,1-1.739,2.959c-1.26,1.088-2.491.191-3.643-.6-1.689-1.156-3.692-2.165-5-3.769-1.606-1.962-1.229-4.614-2.052-6.883-.856-2.36-3.4-3.415-5.022-5.182-1.47-1.6-2.717-3.326-4.278-4.852-.34-.333-.675-.671-1.008-1.01-.05-.532-.142-1.069-.216-1.6,1.167.1,2.334.2,3.5.3l5.9.555c1.156.109,2.312.241,3.47.323,1.631.116,3.268.18,4.9.269l3.12.171c.36.019,1.472.283,1.79.1.018-.01.08,0,.1.005.252-2.187.546-4.373.757-6.564.141-1.469.211-2.948.315-4.42q.321-4.527.637-9.056c.131-1.863.251-3.727.393-5.589.057-.757.129-1.513.194-2.27a18.778,18.778,0,0,1,.339-3.952,1.558,1.558,0,0,0,.028-.328,2.866,2.866,0,0,1,.473.01C129.884,133.46,129.746,133.467,129.608,133.469Z"/><path id="NM" class="cls-6" d="M104.332,165.537l-.267-1.63,2.98.18,10.4,1.011,9.4.58.764-6.421,1.33-19.177.6-6.654.542.044.285-3.831L94.51,125.99l-6.032,41.334,5.33.683.446-3.44Z"/><path id="KS" class="cls-5" d="M180.088,131.343l-4.35.07-15.89-.157-15.362-.706-8.492-.432,1.343-22.169,7.614.232,13.89.289,15.274.339h1.757l.753.742.7-.007.565.347-.021,1.033-.631.592-.115.766.636,1.168,1.018,1.1.8.554.449,3.858Z"/><path id="NE" class="cls-5" d="M172.578,102.624l1.114,2.409-.045.79,1.193,1.886.937,1.082h-1.741l-14.992-.322-14.062-.305-7.672-.269.37-7.32-11.142-1,1.5-15.1,5.36.353,6.936.392,6.148.392,8.2.392,3.705-.157.709.784,1.655,1.02.394.314,1.5-.471,1.34-.157.946-.078.63.471,1.4.549,1.025.549.158.55.315.706h.63l.275.016.309,1.607,1.006,2.906.2,1.289.87,1.3.2,1.755.554,1.456Z"/><path id="SD" class="cls-5" d="M169.251,90.037l-.017-.2-1-1.663.641-1.617.514-2.02-.959-.714-.133-.941.273-.877,1.1.005-.042-1.718-.115-10.356-.212-1.293L167.9,67.5l-.338-.576-.021-.552.7-.525.528-.572.085-.912-20.086-.549-18.893-1.184-1.836,21.859,5.03.31,6.878.414,6.117.318,8.2.448,4.131-.146.678.771,1.791,1.117.263.248,1.566-.5,2.255-.211.577.459,1.45.548,1.016.562.137.509.359.769Z"/><path id="ND" class="cls-5" d="M168.857,64.26l-.212-2.894-.578-2.339-.652-4.47-.158-3.771-.6-1.056-.605-1.783.011-3.585.215-1.312-.632-1.877-9.875-.193-6.41-.222-9.141-.444-7.911-.732L129.9,62.638l18.939,1.148Z"/><path id="WY" class="cls-5" d="M129.233,69.188l-36.8-4.618L87.576,94.928l39.05,4.663Z"/><path id="MT" class="cls-5" d="M132.278,39.567,121.7,38.6l-10.088-1.22L101.526,36,90.379,34.165,84.025,33,72.743,30.621,71.2,37.947l1.182,2.589-.473,1.569.631,1.569,1.1.471,1.593,3.7.929,1.09.158.392,1.182.392.158.706-2.443,6.041v.863l.867,1.1H76.4l1.656-1.02.236-.392.552.235-.079,1.8.946,4.315,1.025.863.315.236.631.785-.158,1.177.237,1.177.394.314.788-.785h.946l1.1.549.867-.314h1.419l1.261.549.946-.157.158-1.02,1.025-.236.473.471.158,1.1.492.287.651-3.787,36.8,4.609Z"/><path id="CO" class="cls-5" d="M136.01,130.171l1.69-29.627L98.607,96.2,94.4,126.385Z"/><path id="ID" class="cls-6" d="M56.176,80.585,59.2,68.5l.473-1.452.867-2.04-.433-.784-.867.039-.276-.353.158-.392.118-1.059,1.537-1.883.63-.157.394-.392.2-1.1.315-.235,1.34-2,1.34-1.491.079-1.295L63.89,53l-.529-1.51,4.7-21.739,4.661.868L71.2,37.958l1.227,2.569-.545,1.6.679,1.593,1.082.431,1.322,3.28,1.211,1.523.175.392,1.152.392.127.72-2.4,5.964-.057.881.907,1.14.312-.017,1.693-1.038.234-.376.539.226-.1,1.837.945,4.319,1.351,1.091.579.743-.247,1.4.368.963.366.375.855-.807.982.017,1.006.458.959-.234,1.308-.055,1.372.549.946-.1.171-1.042,1.011-.263.435.52.152,1.01.491.417-2.891,18.4S58.588,81.1,56.176,80.585Z"/><path id="UT" class="cls-5" d="M94.453,126.444l-28.874-4.075,7.1-38.624,16.129,3-.512,3.648-.8,4.521,2.692.319,5.657.619,2.831.294Z"/><path id="AZ" class="cls-6" d="M54.946,151.334a.973.973,0,0,0-.587,1.65,10.906,10.906,0,0,0,2.14,1.274l3.38,1.9c.245.137.5.265.738.414l4.18,2.607,5.072,2.941,5.8,3.44,4.236.832,8.6.928,5.949-40.885-28.87-4.09-1.066,5.633-.554.005-.591.9-.867-.039-.433-.942-.946-.118-.315-.393H60.5l-.315.2-.67.353-.039,2.393-.079.588-.2,4.315-.512.745-.2,1.138.946,1.687.433,2,.276.353.355.2-.039.785-.552.471-1.182.589-.67.666-.512,1.256-.2,1.687-.985.942-.709.235.047.285-.158.589.158.274,1.261.2-.2.942-.512.745Z"/><path id="NV" class="cls-6" d="M72.7,83.705l-8.15,44.212-.632.12-.542.826-.818,0-.508-.941-.9-.13-.266-.38-.358-.018-.958.564-.107,2.329-.125,1.983-.12,2.949-.5.717-.841-.369L34.053,99.808l6.547-23.2Z"/><path id="OR" class="cls-5" d="M56.26,80.258l3.051-11.944.362-1.452.811-1.93-.212-.4-.867-.016-.442-.573.158-.5.174-1.114,1.537-1.883.63-.377.394-.392.513-1.224,1.4-1.946,1.229-1.325L65.073,54l-1.127-.847-.615-1.593-4.366-1.24-5.2-1.216-5.32.039-.158-.471-1.892.706-1.537-.2-.828-.549-.433.235-1.616-.078-.591-.471-1.813-.706-.276.039-1.5-.51-.67.628L35,47.647l-2.049-1.412.236-.275.079-2.668-.788-1.334-1.419-.2-.237-.863-.812-.16-2,.707-.781,2.219-1.115,3.44L25,49.325l-1.728,4.827-2.229,4.661L18.261,63.14l-.669,1-.279,2.94.133,4.146Z"/><path id="WA" class="cls-6" d="M40.325,22.959a2.32,2.32,0,0,1,1.412.09c1.3.37,2.537.9,3.867,1.185,2.577.548,5.074,1.29,7.621,1.973,2.435.653,4.88,1.239,7.326,1.852,2.261.567,4.536,1.037,6.818,1.518l.686.145-1.593,7.4L63.928,48.88l-.574,2.664c-1.736-.487-3.46-1.019-5.218-1.422a26.373,26.373,0,0,0-6.012-1.009q-1.829,0-3.659.007c-.032-.158-.128-.3-.157-.461a7.763,7.763,0,0,1-2.017.735,3.324,3.324,0,0,1-2.238-.783,2.556,2.556,0,0,1-2.481-.133,6.841,6.841,0,0,0-2.3-.832,12.36,12.36,0,0,1-1.47-.518c-.351.311-.5.542-.913.605a5.283,5.283,0,0,1-1.775-.081,8.217,8.217,0,0,1-2.168-1.419c.577-.392.3-1.91.291-2.5a2.487,2.487,0,0,0-.8-1.789,4.6,4.6,0,0,0-1.386-.19l-.234-.862a3.191,3.191,0,0,0-2.009.265c-.192.066-.634-.994-.668-1.118-.232-.848.176-1.006.946-1.1.226-.028.409-.857.421-1.027.06-.784-.531-.3-.794-.875a1.652,1.652,0,0,1,.112-.945c.273-.415.979-.318,1.416-.432-.219.057-.9-1.192-.974-1.353a5.066,5.066,0,0,1-.408-2.01c-.005-.549.226-1.1.222-1.674a9.318,9.318,0,0,0-.006-2.079c-.1-.4-.5-.646-.575-1.055-.1-.559.234-2.937.9-3.135.618-.185,1.365.995,1.753,1.361a7.422,7.422,0,0,0,1.684,1.214,35.937,35.937,0,0,0,3.576,1.424,4.257,4.257,0,0,0,2.038.321c0-.5-.068-.7.247-1.049a1.906,1.906,0,0,1,.7-.479c.385-.031.468.859.449.863l-.781.166c-.137.872.017.6.505,1.229.24.308.366,1.356.7,1.495a.455.455,0,0,0,.367-.115,5.033,5.033,0,0,1-.09-3.254c.4-1.322-.156-2.285-.484-3.54C39.907,23.394,40.041,23.089,40.325,22.959Z"/><path id="CA" class="cls-6" d="M54.872,151.186l1.358-.167.512-.691.188-1.009-1.224-.2-.177-.23.164-.7-.055-.2.663-.212,1.049-.972.2-1.714.476-1.168.67-.743,1.213-.546.57-.551.024-.724-.343-.2-.353-.368-.4-2.007-.926-1.658.2-1.2-.834-.353L34.035,99.814l6.517-23.2L17.424,71.226l-.52,1.625c-.25.781.256,1.845-.056,2.552l-1.135,2.578c-.155.352-.347,1.218-.648,1.472a7.992,7.992,0,0,0-1.058.888c-.308.373-.22.437-.727.666-.246.112-.434,1.175-.5,1.441-.32,1.274.771,2.818,1.226,4a5.724,5.724,0,0,1,.359,2.512,4.048,4.048,0,0,1-.28,1.207c-.09.217-.389.569-.413.775a10.664,10.664,0,0,0-.266,3.757,9.059,9.059,0,0,0,1.269,2.4l.781,1.664.446,1.387a7.3,7.3,0,0,0-.225,1.78c.157.8.944,1.352,1.47,1.9.748.782.163,1.879-.13,2.755l.056,2.83.724,1.276a2.242,2.242,0,0,0,.862.921c.367.158.566,0,.821.321a2.384,2.384,0,0,1,.268.756l-.39,1.219a1.364,1.364,0,0,1-1.115.556q-.14.666-.279,1.332l.167,1a9.5,9.5,0,0,1,1.414,2.224c.474,1.238.686,2.54,1.205,3.768l1.17,2a6.041,6.041,0,0,1,.481.849c.384,1.073.949,1.712.468,2.864a13.049,13.049,0,0,0-.452,1.8,2.035,2.035,0,0,0,.506,2.257l1.449.166,1.561.61a8.98,8.98,0,0,0,1.152.623c.442.157.928.065,1.344.307a4.519,4.519,0,0,1,.849.845l.892,1.665.39.777,1.338.721c.725.391,1.626-.012,2.119.907a1.853,1.853,0,0,1,.243.938.652.652,0,0,1-.45.522c.147.346.84.553,1.21.574l.947.055c.458.032.71-.438,1.106-.421.487.02,1.028.968,1.321,1.285a8.122,8.122,0,0,1,.554,1.233,4.884,4.884,0,0,1,.728,2.1v3.218l.167.61,3.456.5,6.8.943Z"/></svg>