<svg id="Layer_1" data-name="Layer 1" xmlns="http://www.w3.org/2000/svg" viewBox="0 0 169.208 282.867"><defs><style>.cls-1{fill:#277a00;stroke:#231f20;stroke-width:0.5px;}.cls-2{fill:#fff;}</style></defs><title>The_Nature_of_Community_Property_01</title><path id="CA" class="cls-1" d="M173.114,287.319l4.8-.591,1.809-2.439.663-3.563-4.323-.714-.625-.811.58-2.463-.194-.715,2.341-.75,3.7-3.432.708-6.052,1.68-4.124,2.366-2.624,4.284-1.927,2.013-1.945.084-2.556-1.21-.7-1.245-1.3-1.406-7.087-3.269-5.853.689-4.246-2.946-1.248L99.545,105.938l23.009-81.916L40.9,5s-1.825,5.706-1.835,5.737c-.881,2.757.9,6.514-.2,9.01q-2,4.551-4.008,9.1c-.548,1.244-1.226,4.3-2.286,5.2a28.216,28.216,0,0,0-3.734,3.136c-1.089,1.318-.776,1.541-2.567,2.351-.867.4-1.533,4.147-1.77,5.09-1.13,4.5,2.722,9.949,4.328,14.106A20.209,20.209,0,0,1,30.1,67.6a14.294,14.294,0,0,1-.989,4.262c-.319.767-1.374,2.009-1.458,2.735-.5,4.348-2.016,8.89-.939,13.265.762,3.094,2.843,5.8,4.48,8.483l2.756,5.877,1.573,4.9c-.185,1.841-1.142,4.514-.793,6.283.554,2.808,3.334,4.773,5.189,6.712,2.641,2.761.576,6.633-.46,9.728l.2,9.991,2.558,4.5a7.915,7.915,0,0,0,3.045,3.251c1.295.559,2-.017,2.9,1.133a8.418,8.418,0,0,1,.945,2.669l-1.377,4.305c-.333,1.039-2.953,2.184-3.936,1.963q-.5,2.35-.985,4.7l.591,3.526c1.874,2.518,3.861,4.889,4.994,7.853,1.673,4.371,2.422,8.968,4.255,13.3l4.133,7.053a21.329,21.329,0,0,1,1.7,3c1.357,3.788,3.352,6.043,1.653,10.111a46.072,46.072,0,0,0-1.6,6.345c-.888,3.5-.632,5.241,1.787,7.97l5.117.587,5.51,2.155a31.706,31.706,0,0,0,4.066,2.2c1.56.555,3.276.229,4.744,1.083a15.954,15.954,0,0,1,3,2.984L85.9,236.4l1.377,2.742L92,241.692c2.559,1.379,5.742-.041,7.481,3.2a6.542,6.542,0,0,1,.857,3.311,2.3,2.3,0,0,1-1.589,1.844c.518,1.223,2.967,1.953,4.273,2.026,0,0,3.293.191,3.344.2,1.618.114,2.508-1.545,3.9-1.488,1.72.07,3.63,3.418,4.664,4.536.842.909,1.3,3.207,1.956,4.354a17.245,17.245,0,0,1,2.57,7.4v11.363l.591,2.154,12.2,1.763,24.008,3.33Z" transform="translate(-24.047 -4.704)"/><path class="cls-2" d="M44.5,67.146l1.086.274a3.659,3.659,0,0,1-1.229,2.042,3.387,3.387,0,0,1-2.17.7,3.9,3.9,0,0,1-2.159-.541,3.376,3.376,0,0,1-1.266-1.565,5.586,5.586,0,0,1-.434-2.2,4.841,4.841,0,0,1,.49-2.238,3.36,3.36,0,0,1,1.395-1.451,4.08,4.08,0,0,1,1.991-.5,3.368,3.368,0,0,1,2.073.627,3.258,3.258,0,0,1,1.17,1.764l-1.07.252a2.536,2.536,0,0,0-.829-1.305,2.208,2.208,0,0,0-1.367-.409,2.653,2.653,0,0,0-1.582.454,2.4,2.4,0,0,0-.894,1.218,4.9,4.9,0,0,0-.258,1.577,5.008,5.008,0,0,0,.306,1.829,2.271,2.271,0,0,0,.949,1.168,2.66,2.66,0,0,0,1.395.387,2.336,2.336,0,0,0,1.546-.527A2.692,2.692,0,0,0,44.5,67.146Z" transform="translate(-24.047 -4.704)"/><path class="cls-2" d="M46.421,67.05a3.066,3.066,0,0,1,.918-2.448,2.767,2.767,0,0,1,1.871-.661,2.67,2.67,0,0,1,2.005.8,3.061,3.061,0,0,1,.778,2.221,3.937,3.937,0,0,1-.344,1.806,2.439,2.439,0,0,1-1,1.022,2.919,2.919,0,0,1-1.437.364,2.674,2.674,0,0,1-2.02-.8A3.2,3.2,0,0,1,46.421,67.05Zm1.036,0a2.532,2.532,0,0,0,.5,1.711,1.659,1.659,0,0,0,2.5,0,2.6,2.6,0,0,0,.5-1.742,2.456,2.456,0,0,0-.5-1.672,1.662,1.662,0,0,0-2.5,0A2.521,2.521,0,0,0,47.457,67.05Z" transform="translate(-24.047 -4.704)"/><path class="cls-2" d="M53.176,70.024V64.076h.9v.835a2.1,2.1,0,0,1,1.8-.969,1.959,1.959,0,0,1,1.084.274,1.471,1.471,0,0,1,.6.768A2.134,2.134,0,0,1,59.4,63.941a1.811,1.811,0,0,1,1.361.49,2.1,2.1,0,0,1,.476,1.509v4.083h-1V66.277a2.756,2.756,0,0,0-.1-.871.846.846,0,0,0-.356-.429,1.112,1.112,0,0,0-.6-.162,1.409,1.409,0,0,0-1.042.417,1.838,1.838,0,0,0-.415,1.336v3.456H56.71V66.16a1.7,1.7,0,0,0-.247-1.008.933.933,0,0,0-.807-.336,1.467,1.467,0,0,0-.787.224,1.271,1.271,0,0,0-.524.656,3.684,3.684,0,0,0-.163,1.243v3.086Z" transform="translate(-24.047 -4.704)"/><path class="cls-2" d="M62.732,70.024V64.076h.9v.835a2.1,2.1,0,0,1,1.8-.969,1.959,1.959,0,0,1,1.084.274,1.471,1.471,0,0,1,.6.768,2.134,2.134,0,0,1,1.837-1.042,1.811,1.811,0,0,1,1.361.49,2.1,2.1,0,0,1,.476,1.509v4.083h-1V66.277a2.756,2.756,0,0,0-.1-.871.846.846,0,0,0-.356-.429,1.112,1.112,0,0,0-.6-.162,1.409,1.409,0,0,0-1.042.417,1.838,1.838,0,0,0-.415,1.336v3.456H66.266V66.16a1.7,1.7,0,0,0-.247-1.008.933.933,0,0,0-.807-.336,1.467,1.467,0,0,0-.787.224,1.271,1.271,0,0,0-.524.656,3.684,3.684,0,0,0-.163,1.243v3.086Z" transform="translate(-24.047 -4.704)"/><path class="cls-2" d="M76.186,70.024V69.15A2.177,2.177,0,0,1,74.3,70.159a2.4,2.4,0,0,1-.983-.2,1.614,1.614,0,0,1-.678-.507,1.891,1.891,0,0,1-.311-.748,5.13,5.13,0,0,1-.062-.941V64.076h1.008v3.3a5.893,5.893,0,0,0,.062,1.064,1.051,1.051,0,0,0,.4.625,1.25,1.25,0,0,0,.762.227,1.656,1.656,0,0,0,.851-.232,1.29,1.29,0,0,0,.563-.633,3.171,3.171,0,0,0,.166-1.162V64.076h1.008v5.949Z" transform="translate(-24.047 -4.704)"/><path class="cls-2" d="M78.667,70.024V64.076h.907v.846a2.138,2.138,0,0,1,1.893-.98,2.484,2.484,0,0,1,.989.193,1.555,1.555,0,0,1,.675.507,1.95,1.95,0,0,1,.314.745,5.8,5.8,0,0,1,.056.98v3.658H82.493V66.406a2.724,2.724,0,0,0-.118-.921A.973.973,0,0,0,81.958,65a1.33,1.33,0,0,0-.7-.182,1.635,1.635,0,0,0-1.112.409,2.018,2.018,0,0,0-.468,1.552v3.249Z" transform="translate(-24.047 -4.704)"/><path class="cls-2" d="M85.053,62.973v-1.16h1.008v1.16Zm0,7.052V64.076h1.008v5.949Z" transform="translate(-24.047 -4.704)"/><path class="cls-2" d="M89.8,69.123l.146.891a3.752,3.752,0,0,1-.762.09,1.725,1.725,0,0,1-.852-.174.971.971,0,0,1-.425-.457,3.6,3.6,0,0,1-.124-1.19V64.86h-.739v-.784h.739V62.6l1-.6v2.078H89.8v.784H88.783v3.479a1.752,1.752,0,0,0,.053.555.418.418,0,0,0,.173.2.669.669,0,0,0,.345.073A3.241,3.241,0,0,0,89.8,69.123Z" transform="translate(-24.047 -4.704)"/><path class="cls-2" d="M90.738,72.315l-.112-.947a2.258,2.258,0,0,0,.577.09,1.105,1.105,0,0,0,.538-.112.915.915,0,0,0,.331-.313,4.983,4.983,0,0,0,.308-.75q.028-.084.09-.247l-2.257-5.96H91.3l1.238,3.445q.241.656.431,1.378a13.57,13.57,0,0,1,.415-1.355l1.271-3.467h1.008L93.4,70.125a11.876,11.876,0,0,1-.566,1.35,1.989,1.989,0,0,1-.616.731,1.456,1.456,0,0,1-.829.232A2.021,2.021,0,0,1,90.738,72.315Z" transform="translate(-24.047 -4.704)"/><path class="cls-2" d="M30.981,83.79V75.579h3.1a7.476,7.476,0,0,1,1.249.079,2.474,2.474,0,0,1,1.014.383,2.016,2.016,0,0,1,.658.793,2.672,2.672,0,0,1-.417,2.893,3.2,3.2,0,0,1-2.409.725H32.068V83.79Zm1.087-4.307h2.123a2.252,2.252,0,0,0,1.5-.392,1.4,1.4,0,0,0,.443-1.1,1.483,1.483,0,0,0-.261-.882,1.215,1.215,0,0,0-.686-.484,4.626,4.626,0,0,0-1.014-.073h-2.1Z" transform="translate(-24.047 -4.704)"/><path class="cls-2" d="M38.493,83.79V77.841H39.4v.9a2.455,2.455,0,0,1,.642-.834,1.12,1.12,0,0,1,.646-.2,1.97,1.97,0,0,1,1.037.325l-.348.936a1.442,1.442,0,0,0-.739-.218.962.962,0,0,0-.594.2,1.079,1.079,0,0,0-.375.552,3.918,3.918,0,0,0-.168,1.176V83.79Z" transform="translate(-24.047 -4.704)"/><path class="cls-2" d="M41.948,80.816a3.066,3.066,0,0,1,.918-2.448,2.767,2.767,0,0,1,1.871-.661,2.67,2.67,0,0,1,2.005.8,3.061,3.061,0,0,1,.778,2.221,3.937,3.937,0,0,1-.344,1.806,2.439,2.439,0,0,1-1,1.022,2.919,2.919,0,0,1-1.437.364,2.674,2.674,0,0,1-2.02-.8A3.2,3.2,0,0,1,41.948,80.816Zm1.036,0a2.532,2.532,0,0,0,.5,1.711,1.659,1.659,0,0,0,2.5,0,2.6,2.6,0,0,0,.5-1.742,2.456,2.456,0,0,0-.5-1.672,1.662,1.662,0,0,0-2.5,0A2.521,2.521,0,0,0,42.984,80.816Z" transform="translate(-24.047 -4.704)"/><path class="cls-2" d="M48.7,86.07V77.841h.918v.773a2.256,2.256,0,0,1,.734-.68,2.014,2.014,0,0,1,.991-.227,2.351,2.351,0,0,1,1.344.392,2.4,2.4,0,0,1,.879,1.106,4.033,4.033,0,0,1,.3,1.565,3.971,3.971,0,0,1-.328,1.644,2.49,2.49,0,0,1-2.266,1.509,1.9,1.9,0,0,1-.9-.213,2.059,2.059,0,0,1-.658-.538v2.9Zm.913-5.22a2.586,2.586,0,0,0,.465,1.7,1.424,1.424,0,0,0,1.125.549,1.459,1.459,0,0,0,1.151-.569,2.7,2.7,0,0,0,.479-1.762,2.63,2.63,0,0,0-.468-1.7,1.409,1.409,0,0,0-1.118-.565,1.451,1.451,0,0,0-1.14.6A2.693,2.693,0,0,0,49.616,80.85Z" transform="translate(-24.047 -4.704)"/><path class="cls-2" d="M59.155,81.875,60.2,82a2.544,2.544,0,0,1-.913,1.417,3.094,3.094,0,0,1-3.772-.3,3.14,3.14,0,0,1-.765-2.254,3.288,3.288,0,0,1,.773-2.33,2.617,2.617,0,0,1,2.005-.829,2.544,2.544,0,0,1,1.949.812,3.226,3.226,0,0,1,.756,2.286c0,.06,0,.149-.006.269H55.789a2.285,2.285,0,0,0,.555,1.5,1.65,1.65,0,0,0,1.243.521,1.542,1.542,0,0,0,.947-.292A1.932,1.932,0,0,0,59.155,81.875Zm-3.31-1.63h3.321a2.013,2.013,0,0,0-.381-1.126,1.546,1.546,0,0,0-1.249-.583A1.6,1.6,0,0,0,56.369,79,1.841,1.841,0,0,0,55.845,80.245Z" transform="translate(-24.047 -4.704)"/><path class="cls-2" d="M61.452,83.79V77.841h.907v.9A2.455,2.455,0,0,1,63,77.909a1.12,1.12,0,0,1,.646-.2,1.97,1.97,0,0,1,1.037.325l-.348.936a1.442,1.442,0,0,0-.739-.218.962.962,0,0,0-.594.2,1.079,1.079,0,0,0-.375.552,3.918,3.918,0,0,0-.168,1.176V83.79Z" transform="translate(-24.047 -4.704)"/><path class="cls-2" d="M67.484,82.888l.146.891a3.752,3.752,0,0,1-.762.09,1.725,1.725,0,0,1-.852-.174.971.971,0,0,1-.425-.457,3.6,3.6,0,0,1-.124-1.19V78.625h-.739v-.784h.739V76.368l1-.6v2.078h1.014v.784H66.471V82.1a1.752,1.752,0,0,0,.053.555.418.418,0,0,0,.173.2.669.669,0,0,0,.345.073A3.241,3.241,0,0,0,67.484,82.888Z" transform="translate(-24.047 -4.704)"/><path class="cls-2" d="M68.425,86.081l-.112-.947a2.258,2.258,0,0,0,.577.09,1.105,1.105,0,0,0,.538-.112.915.915,0,0,0,.331-.313,4.983,4.983,0,0,0,.308-.75q.028-.084.09-.247L67.9,77.841h1.086l1.238,3.445q.241.656.431,1.378a13.57,13.57,0,0,1,.415-1.355l1.271-3.467h1.008l-2.263,6.049a11.876,11.876,0,0,1-.566,1.35,1.989,1.989,0,0,1-.616.731,1.456,1.456,0,0,1-.829.232A2.021,2.021,0,0,1,68.425,86.081Z" transform="translate(-24.047 -4.704)"/><path class="cls-2" d="M77.152,81.152l1.025-.09a2.255,2.255,0,0,0,.339,1.011,1.85,1.85,0,0,0,.826.639,3.133,3.133,0,0,0,1.26.244,3.012,3.012,0,0,0,1.1-.185,1.52,1.52,0,0,0,.708-.507,1.173,1.173,0,0,0,.232-.7,1.069,1.069,0,0,0-.224-.675,1.659,1.659,0,0,0-.739-.484,14.442,14.442,0,0,0-1.462-.4,7.457,7.457,0,0,1-1.585-.513,2.218,2.218,0,0,1-.876-.765,1.873,1.873,0,0,1-.289-1.022,2.091,2.091,0,0,1,.353-1.163,2.185,2.185,0,0,1,1.031-.82,3.9,3.9,0,0,1,1.507-.28,4.121,4.121,0,0,1,1.61.294,2.327,2.327,0,0,1,1.073.866,2.49,2.49,0,0,1,.4,1.294L82.4,77.97a1.682,1.682,0,0,0-.568-1.176,2.214,2.214,0,0,0-1.431-.4,2.3,2.3,0,0,0-1.437.361,1.084,1.084,0,0,0-.451.871.934.934,0,0,0,.319.729,4.33,4.33,0,0,0,1.638.585,10.833,10.833,0,0,1,1.818.523,2.493,2.493,0,0,1,1.059.837,2.042,2.042,0,0,1,.341,1.168,2.233,2.233,0,0,1-.375,1.235,2.471,2.471,0,0,1-1.078.9,3.755,3.755,0,0,1-1.583.322,4.722,4.722,0,0,1-1.868-.325,2.614,2.614,0,0,1-1.182-.977A2.774,2.774,0,0,1,77.152,81.152Z" transform="translate(-24.047 -4.704)"/><path class="cls-2" d="M87.246,82.888l.146.891a3.752,3.752,0,0,1-.762.09,1.725,1.725,0,0,1-.852-.174.971.971,0,0,1-.425-.457,3.6,3.6,0,0,1-.124-1.19V78.625H84.49v-.784h.739V76.368l1-.6v2.078h1.014v.784H86.232V82.1a1.752,1.752,0,0,0,.053.555.418.418,0,0,0,.173.2.669.669,0,0,0,.345.073A3.241,3.241,0,0,0,87.246,82.888Z" transform="translate(-24.047 -4.704)"/><path class="cls-2" d="M92.113,83.056a3.763,3.763,0,0,1-1.078.672,3.121,3.121,0,0,1-1.112.2,2.165,2.165,0,0,1-1.507-.479,1.581,1.581,0,0,1-.526-1.224,1.657,1.657,0,0,1,.72-1.378,2.457,2.457,0,0,1,.725-.331,7.208,7.208,0,0,1,.9-.151,9.192,9.192,0,0,0,1.8-.348c0-.138.006-.226.006-.263a1.113,1.113,0,0,0-.286-.868,1.689,1.689,0,0,0-1.148-.342,1.782,1.782,0,0,0-1.05.25,1.521,1.521,0,0,0-.5.882l-.986-.135a2.441,2.441,0,0,1,.443-1.022,1.936,1.936,0,0,1,.891-.6,3.967,3.967,0,0,1,1.35-.21,3.581,3.581,0,0,1,1.238.179,1.633,1.633,0,0,1,.7.451,1.589,1.589,0,0,1,.314.686,5.669,5.669,0,0,1,.05.93V81.3a14.253,14.253,0,0,0,.064,1.778,2.242,2.242,0,0,0,.255.714H92.314A2.136,2.136,0,0,1,92.113,83.056ZM92.029,80.8a7.391,7.391,0,0,1-1.646.381,3.792,3.792,0,0,0-.879.2.878.878,0,0,0-.4.328.89.89,0,0,0,.166,1.151,1.312,1.312,0,0,0,.893.269A2.077,2.077,0,0,0,91.2,82.88a1.57,1.57,0,0,0,.667-.7,2.444,2.444,0,0,0,.162-1.008Z" transform="translate(-24.047 -4.704)"/><path class="cls-2" d="M96.813,82.888l.146.891a3.752,3.752,0,0,1-.762.09,1.725,1.725,0,0,1-.852-.174.971.971,0,0,1-.425-.457,3.6,3.6,0,0,1-.124-1.19V78.625h-.739v-.784H94.8V76.368l1-.6v2.078h1.014v.784H95.8V82.1a1.752,1.752,0,0,0,.053.555.418.418,0,0,0,.173.2.669.669,0,0,0,.345.073A3.241,3.241,0,0,0,96.813,82.888Z" transform="translate(-24.047 -4.704)"/><path class="cls-2" d="M101.87,81.875l1.042.129A2.544,2.544,0,0,1,102,83.42a3.094,3.094,0,0,1-3.772-.3,3.14,3.14,0,0,1-.765-2.254,3.288,3.288,0,0,1,.773-2.33,2.617,2.617,0,0,1,2.005-.829,2.544,2.544,0,0,1,1.949.812,3.226,3.226,0,0,1,.756,2.286c0,.06,0,.149-.006.269H98.5a2.285,2.285,0,0,0,.555,1.5,1.65,1.65,0,0,0,1.243.521,1.542,1.542,0,0,0,.947-.292A1.932,1.932,0,0,0,101.87,81.875Zm-3.31-1.63h3.321a2.013,2.013,0,0,0-.381-1.126,1.546,1.546,0,0,0-1.249-.583A1.6,1.6,0,0,0,99.083,79,1.841,1.841,0,0,0,98.56,80.245Z" transform="translate(-24.047 -4.704)"/><path class="cls-2" d="M65.123,168.444l1.025-.09a2.255,2.255,0,0,0,.339,1.011,1.85,1.85,0,0,0,.826.639,3.133,3.133,0,0,0,1.26.244,3.012,3.012,0,0,0,1.1-.185,1.52,1.52,0,0,0,.708-.507,1.173,1.173,0,0,0,.232-.7,1.069,1.069,0,0,0-.224-.675,1.659,1.659,0,0,0-.739-.484,14.442,14.442,0,0,0-1.462-.4,7.457,7.457,0,0,1-1.585-.513,2.218,2.218,0,0,1-.876-.765,1.873,1.873,0,0,1-.289-1.022,2.091,2.091,0,0,1,.353-1.163,2.185,2.185,0,0,1,1.031-.82,3.9,3.9,0,0,1,1.507-.28,4.121,4.121,0,0,1,1.61.294,2.327,2.327,0,0,1,1.073.866,2.49,2.49,0,0,1,.4,1.294l-1.042.078a1.682,1.682,0,0,0-.568-1.176,2.214,2.214,0,0,0-1.431-.4,2.3,2.3,0,0,0-1.437.361,1.084,1.084,0,0,0-.451.871.934.934,0,0,0,.319.729,4.33,4.33,0,0,0,1.638.585,10.833,10.833,0,0,1,1.818.523,2.493,2.493,0,0,1,1.059.837,2.042,2.042,0,0,1,.341,1.168A2.233,2.233,0,0,1,71.284,170a2.471,2.471,0,0,1-1.078.9,3.755,3.755,0,0,1-1.583.322,4.722,4.722,0,0,1-1.868-.325,2.614,2.614,0,0,1-1.182-.977A2.774,2.774,0,0,1,65.123,168.444Z" transform="translate(-24.047 -4.704)"/><path class="cls-2" d="M73.015,173.362v-8.229h.918v.773a2.256,2.256,0,0,1,.734-.68,2.014,2.014,0,0,1,.991-.227,2.351,2.351,0,0,1,1.344.392,2.4,2.4,0,0,1,.879,1.106,4.033,4.033,0,0,1,.3,1.565,3.971,3.971,0,0,1-.328,1.644,2.49,2.49,0,0,1-2.266,1.509,1.9,1.9,0,0,1-.9-.213,2.059,2.059,0,0,1-.658-.538v2.9Zm.913-5.22a2.586,2.586,0,0,0,.465,1.7,1.424,1.424,0,0,0,1.125.549,1.459,1.459,0,0,0,1.151-.569,2.7,2.7,0,0,0,.479-1.762,2.63,2.63,0,0,0-.468-1.7,1.409,1.409,0,0,0-1.118-.565,1.451,1.451,0,0,0-1.14.6A2.693,2.693,0,0,0,73.928,168.142Z" transform="translate(-24.047 -4.704)"/><path class="cls-2" d="M79.02,168.108a3.066,3.066,0,0,1,.918-2.448A2.767,2.767,0,0,1,81.809,165a2.67,2.67,0,0,1,2.005.8,3.061,3.061,0,0,1,.778,2.221,3.937,3.937,0,0,1-.344,1.806,2.439,2.439,0,0,1-1,1.022,2.919,2.919,0,0,1-1.437.364,2.674,2.674,0,0,1-2.02-.8A3.2,3.2,0,0,1,79.02,168.108Zm1.036,0a2.532,2.532,0,0,0,.5,1.711,1.659,1.659,0,0,0,2.5,0,2.6,2.6,0,0,0,.5-1.742,2.456,2.456,0,0,0-.5-1.672,1.662,1.662,0,0,0-2.5,0A2.521,2.521,0,0,0,80.056,168.108Z" transform="translate(-24.047 -4.704)"/><path class="cls-2" d="M89.673,171.082v-.874a2.177,2.177,0,0,1-1.888,1.008,2.4,2.4,0,0,1-.983-.2,1.614,1.614,0,0,1-.678-.507,1.891,1.891,0,0,1-.311-.748,5.13,5.13,0,0,1-.062-.941v-3.686h1.008v3.3a5.893,5.893,0,0,0,.062,1.064,1.051,1.051,0,0,0,.4.625,1.25,1.25,0,0,0,.762.227,1.656,1.656,0,0,0,.851-.232,1.29,1.29,0,0,0,.563-.633,3.171,3.171,0,0,0,.166-1.162v-3.187h1.008v5.949Z" transform="translate(-24.047 -4.704)"/><path class="cls-2" d="M91.751,169.307l1-.157a1.394,1.394,0,0,0,.467.919,1.631,1.631,0,0,0,1.073.319,1.574,1.574,0,0,0,1.031-.283.845.845,0,0,0,.336-.664.611.611,0,0,0-.3-.538,4.358,4.358,0,0,0-1.03-.342,9.384,9.384,0,0,1-1.538-.484,1.468,1.468,0,0,1-.871-1.364,1.529,1.529,0,0,1,.182-.736,1.625,1.625,0,0,1,.5-.563,2.074,2.074,0,0,1,.641-.294,3.041,3.041,0,0,1,.871-.121,3.447,3.447,0,0,1,1.229.2,1.668,1.668,0,0,1,.781.546,2.133,2.133,0,0,1,.348.921l-.986.134a1.077,1.077,0,0,0-.39-.717,1.422,1.422,0,0,0-.91-.258,1.65,1.65,0,0,0-.991.229.668.668,0,0,0-.3.538.557.557,0,0,0,.123.353.886.886,0,0,0,.387.269q.151.056.891.257a12.479,12.479,0,0,1,1.493.468,1.518,1.518,0,0,1,.664.529,1.478,1.478,0,0,1,.241.863,1.69,1.69,0,0,1-.294.949,1.9,1.9,0,0,1-.849.689,3.085,3.085,0,0,1-1.254.244,2.8,2.8,0,0,1-1.768-.481A2.241,2.241,0,0,1,91.751,169.307Z" transform="translate(-24.047 -4.704)"/><path class="cls-2" d="M101.962,169.167,103,169.3a2.544,2.544,0,0,1-.913,1.417,3.094,3.094,0,0,1-3.772-.3,3.14,3.14,0,0,1-.765-2.254,3.288,3.288,0,0,1,.773-2.33,2.617,2.617,0,0,1,2.005-.829,2.544,2.544,0,0,1,1.949.812,3.226,3.226,0,0,1,.756,2.286c0,.06,0,.149-.006.269H98.6a2.285,2.285,0,0,0,.555,1.5,1.65,1.65,0,0,0,1.243.521,1.542,1.542,0,0,0,.947-.292A1.932,1.932,0,0,0,101.962,169.167Zm-3.31-1.63h3.321a2.013,2.013,0,0,0-.381-1.126,1.546,1.546,0,0,0-1.249-.583,1.6,1.6,0,0,0-1.168.465A1.841,1.841,0,0,0,98.652,167.537Z" transform="translate(-24.047 -4.704)"/><path class="cls-2" d="M103.867,169.307l1-.157a1.394,1.394,0,0,0,.467.919,1.631,1.631,0,0,0,1.073.319,1.574,1.574,0,0,0,1.031-.283.845.845,0,0,0,.336-.664.611.611,0,0,0-.3-.538,4.358,4.358,0,0,0-1.03-.342,9.384,9.384,0,0,1-1.538-.484,1.468,1.468,0,0,1-.871-1.364,1.529,1.529,0,0,1,.182-.736,1.625,1.625,0,0,1,.5-.563,2.074,2.074,0,0,1,.641-.294,3.041,3.041,0,0,1,.871-.121,3.447,3.447,0,0,1,1.229.2,1.668,1.668,0,0,1,.781.546,2.133,2.133,0,0,1,.348.921l-.986.134a1.077,1.077,0,0,0-.39-.717,1.422,1.422,0,0,0-.91-.258,1.65,1.65,0,0,0-.991.229.668.668,0,0,0-.3.538.557.557,0,0,0,.123.353.886.886,0,0,0,.387.269q.151.056.891.257a12.479,12.479,0,0,1,1.493.468,1.518,1.518,0,0,1,.664.529,1.478,1.478,0,0,1,.241.863,1.69,1.69,0,0,1-.294.949,1.9,1.9,0,0,1-.849.689,3.085,3.085,0,0,1-1.254.244,2.8,2.8,0,0,1-1.768-.481A2.241,2.241,0,0,1,103.867,169.307Z" transform="translate(-24.047 -4.704)"/><path class="cls-2" d="M113.193,171.082v-8.211H114.2v2.946a2.252,2.252,0,0,1,1.781-.818,2.4,2.4,0,0,1,1.148.261,1.529,1.529,0,0,1,.7.72,3.316,3.316,0,0,1,.21,1.333v3.77H117.03v-3.77a1.555,1.555,0,0,0-.328-1.1,1.217,1.217,0,0,0-.927-.345,1.638,1.638,0,0,0-.843.232,1.313,1.313,0,0,0-.562.63,2.887,2.887,0,0,0-.168,1.1v3.254Z" transform="translate(-24.047 -4.704)"/><path class="cls-2" d="M123.455,170.348a3.763,3.763,0,0,1-1.078.672,3.121,3.121,0,0,1-1.112.2,2.165,2.165,0,0,1-1.507-.479,1.581,1.581,0,0,1-.526-1.224,1.657,1.657,0,0,1,.72-1.378,2.457,2.457,0,0,1,.725-.331,7.208,7.208,0,0,1,.9-.151,9.192,9.192,0,0,0,1.8-.348c0-.138.006-.226.006-.263a1.113,1.113,0,0,0-.286-.868,1.689,1.689,0,0,0-1.148-.342,1.782,1.782,0,0,0-1.05.25,1.521,1.521,0,0,0-.5.882l-.986-.135a2.441,2.441,0,0,1,.443-1.022,1.936,1.936,0,0,1,.891-.6,3.967,3.967,0,0,1,1.35-.21,3.581,3.581,0,0,1,1.238.179,1.633,1.633,0,0,1,.7.451,1.589,1.589,0,0,1,.314.686,5.669,5.669,0,0,1,.05.93v1.344a14.253,14.253,0,0,0,.064,1.778,2.242,2.242,0,0,0,.255.714h-1.053A2.136,2.136,0,0,1,123.455,170.348Zm-.084-2.251a7.391,7.391,0,0,1-1.646.381,3.792,3.792,0,0,0-.879.2.878.878,0,0,0-.4.328.89.89,0,0,0,.166,1.151,1.312,1.312,0,0,0,.893.269,2.077,2.077,0,0,0,1.036-.255,1.57,1.57,0,0,0,.667-.7,2.444,2.444,0,0,0,.162-1.008Z" transform="translate(-24.047 -4.704)"/><path class="cls-2" d="M127.605,171.082l-2.263-5.949h1.064l1.277,3.563q.207.577.381,1.2.135-.47.375-1.131l1.322-3.63H130.8l-2.251,5.949Z" transform="translate(-24.047 -4.704)"/><path class="cls-2" d="M135.761,169.167l1.042.129a2.544,2.544,0,0,1-.913,1.417,3.094,3.094,0,0,1-3.772-.3,3.14,3.14,0,0,1-.765-2.254,3.288,3.288,0,0,1,.773-2.33,2.617,2.617,0,0,1,2.005-.829,2.544,2.544,0,0,1,1.949.812,3.226,3.226,0,0,1,.756,2.286c0,.06,0,.149-.006.269h-4.436a2.285,2.285,0,0,0,.555,1.5,1.65,1.65,0,0,0,1.243.521,1.542,1.542,0,0,0,.947-.292A1.932,1.932,0,0,0,135.761,169.167Zm-3.31-1.63h3.321a2.013,2.013,0,0,0-.381-1.126,1.546,1.546,0,0,0-1.249-.583,1.6,1.6,0,0,0-1.168.465A1.841,1.841,0,0,0,132.451,167.537Z" transform="translate(-24.047 -4.704)"/><path class="cls-2" d="M73.068,184.114a3.763,3.763,0,0,1-1.078.672,3.121,3.121,0,0,1-1.112.2,2.165,2.165,0,0,1-1.507-.479,1.581,1.581,0,0,1-.526-1.224,1.657,1.657,0,0,1,.72-1.378,2.457,2.457,0,0,1,.725-.331,7.208,7.208,0,0,1,.9-.151,9.192,9.192,0,0,0,1.8-.348c0-.138.006-.226.006-.263a1.113,1.113,0,0,0-.286-.868,1.689,1.689,0,0,0-1.148-.342,1.782,1.782,0,0,0-1.05.25,1.521,1.521,0,0,0-.5.882l-.986-.135a2.441,2.441,0,0,1,.443-1.022,1.936,1.936,0,0,1,.891-.6,3.967,3.967,0,0,1,1.35-.21,3.581,3.581,0,0,1,1.238.179,1.633,1.633,0,0,1,.7.451,1.589,1.589,0,0,1,.314.686,5.669,5.669,0,0,1,.05.93v1.344a14.253,14.253,0,0,0,.064,1.778,2.242,2.242,0,0,0,.255.714H73.27A2.136,2.136,0,0,1,73.068,184.114Zm-.084-2.251a7.391,7.391,0,0,1-1.646.381,3.792,3.792,0,0,0-.879.2.878.878,0,0,0-.4.328.89.89,0,0,0,.166,1.151,1.312,1.312,0,0,0,.893.269,2.077,2.077,0,0,0,1.036-.255,1.57,1.57,0,0,0,.667-.7,2.444,2.444,0,0,0,.162-1.008Z" transform="translate(-24.047 -4.704)"/><path class="cls-2" d="M75.567,184.848V178.9h.907v.846a2.138,2.138,0,0,1,1.893-.98,2.484,2.484,0,0,1,.989.193,1.555,1.555,0,0,1,.675.507,1.95,1.95,0,0,1,.314.745,5.8,5.8,0,0,1,.056.98v3.658H79.393v-3.619a2.724,2.724,0,0,0-.118-.921.973.973,0,0,0-.417-.487,1.33,1.33,0,0,0-.7-.182,1.635,1.635,0,0,0-1.112.409,2.018,2.018,0,0,0-.468,1.552v3.249Z" transform="translate(-24.047 -4.704)"/><path class="cls-2" d="M89.032,184.848v-.874a2.177,2.177,0,0,1-1.888,1.008,2.4,2.4,0,0,1-.983-.2,1.614,1.614,0,0,1-.678-.507,1.891,1.891,0,0,1-.311-.748,5.13,5.13,0,0,1-.062-.941V178.9H86.12v3.3a5.893,5.893,0,0,0,.062,1.064,1.051,1.051,0,0,0,.4.625,1.25,1.25,0,0,0,.762.227,1.656,1.656,0,0,0,.851-.232,1.29,1.29,0,0,0,.563-.633,3.171,3.171,0,0,0,.166-1.162V178.9h1.008v5.949Z" transform="translate(-24.047 -4.704)"/><path class="cls-2" d="M91.514,184.848V178.9h.907v.846a2.138,2.138,0,0,1,1.893-.98,2.484,2.484,0,0,1,.989.193,1.555,1.555,0,0,1,.675.507,1.95,1.95,0,0,1,.314.745,5.8,5.8,0,0,1,.056.98v3.658H95.339v-3.619a2.724,2.724,0,0,0-.118-.921.973.973,0,0,0-.417-.487,1.33,1.33,0,0,0-.7-.182,1.635,1.635,0,0,0-1.112.409,2.018,2.018,0,0,0-.468,1.552v3.249Z" transform="translate(-24.047 -4.704)"/><path class="cls-2" d="M101.752,184.848v-.75a1.85,1.85,0,0,1-1.664.885,2.329,2.329,0,0,1-1.308-.392,2.576,2.576,0,0,1-.924-1.095,3.788,3.788,0,0,1-.328-1.616,4.231,4.231,0,0,1,.3-1.616,2.336,2.336,0,0,1,.891-1.112,2.38,2.38,0,0,1,1.328-.387,1.98,1.98,0,0,1,.958.227,2,2,0,0,1,.684.591v-2.946h1v8.211Zm-3.187-2.969a2.583,2.583,0,0,0,.482,1.708,1.453,1.453,0,0,0,1.137.566,1.425,1.425,0,0,0,1.123-.541,2.493,2.493,0,0,0,.462-1.65,2.8,2.8,0,0,0-.471-1.792,1.447,1.447,0,0,0-1.159-.571,1.4,1.4,0,0,0-1.123.549A2.707,2.707,0,0,0,98.565,181.879Z" transform="translate(-24.047 -4.704)"/><path class="cls-2" d="M104.279,177.8v-1.16h1.008v1.16Zm0,7.052V178.9h1.008v5.949Z" transform="translate(-24.047 -4.704)"/><path class="cls-2" d="M108.474,184.848l-2.263-5.949h1.064l1.277,3.563q.207.577.381,1.2.135-.47.375-1.131l1.322-3.63h1.036l-2.251,5.949Z" transform="translate(-24.047 -4.704)"/><path class="cls-2" d="M112.563,177.8v-1.16h1.008v1.16Zm0,7.052V178.9h1.008v5.949Z" transform="translate(-24.047 -4.704)"/><path class="cls-2" d="M118.965,184.848v-.75a1.85,1.85,0,0,1-1.664.885,2.329,2.329,0,0,1-1.308-.392,2.576,2.576,0,0,1-.924-1.095,3.788,3.788,0,0,1-.328-1.616,4.231,4.231,0,0,1,.3-1.616,2.336,2.336,0,0,1,.891-1.112,2.38,2.38,0,0,1,1.328-.387,1.98,1.98,0,0,1,.958.227,2,2,0,0,1,.684.591v-2.946h1v8.211Zm-3.187-2.969a2.583,2.583,0,0,0,.482,1.708,1.453,1.453,0,0,0,1.137.566,1.425,1.425,0,0,0,1.123-.541,2.493,2.493,0,0,0,.462-1.65,2.8,2.8,0,0,0-.471-1.792,1.447,1.447,0,0,0-1.159-.571,1.4,1.4,0,0,0-1.123.549A2.707,2.707,0,0,0,115.778,181.879Z" transform="translate(-24.047 -4.704)"/><path class="cls-2" d="M125.558,182.932l1.042.129a2.544,2.544,0,0,1-.913,1.417,3.094,3.094,0,0,1-3.772-.3,3.14,3.14,0,0,1-.765-2.254,3.288,3.288,0,0,1,.773-2.33,2.617,2.617,0,0,1,2.005-.829,2.544,2.544,0,0,1,1.949.812,3.226,3.226,0,0,1,.756,2.286c0,.06,0,.149-.006.269h-4.436a2.285,2.285,0,0,0,.555,1.5,1.65,1.65,0,0,0,1.243.521,1.542,1.542,0,0,0,.947-.292A1.932,1.932,0,0,0,125.558,182.932Zm-3.31-1.63h3.321a2.013,2.013,0,0,0-.381-1.126,1.546,1.546,0,0,0-1.249-.583,1.6,1.6,0,0,0-1.168.465A1.841,1.841,0,0,0,122.248,181.3Z" transform="translate(-24.047 -4.704)"/><path class="cls-2" d="M131.725,184.848v-.75a1.85,1.85,0,0,1-1.664.885,2.329,2.329,0,0,1-1.308-.392,2.576,2.576,0,0,1-.924-1.095,3.788,3.788,0,0,1-.328-1.616,4.231,4.231,0,0,1,.3-1.616,2.336,2.336,0,0,1,.891-1.112,2.38,2.38,0,0,1,1.328-.387,1.98,1.98,0,0,1,.958.227,2,2,0,0,1,.684.591v-2.946h1v8.211Zm-3.187-2.969a2.583,2.583,0,0,0,.482,1.708,1.453,1.453,0,0,0,1.137.566,1.425,1.425,0,0,0,1.123-.541,2.493,2.493,0,0,0,.462-1.65,2.8,2.8,0,0,0-.471-1.792,1.447,1.447,0,0,0-1.159-.571,1.4,1.4,0,0,0-1.123.549A2.707,2.707,0,0,0,128.538,181.879Z" transform="translate(-24.047 -4.704)"/><path class="cls-2" d="M61.225,198.613V190.4h1.008v2.946a2.252,2.252,0,0,1,1.781-.818,2.4,2.4,0,0,1,1.148.261,1.529,1.529,0,0,1,.7.72,3.316,3.316,0,0,1,.21,1.333v3.77H65.062v-3.77a1.555,1.555,0,0,0-.328-1.1,1.217,1.217,0,0,0-.927-.345,1.638,1.638,0,0,0-.843.232,1.313,1.313,0,0,0-.562.63,2.887,2.887,0,0,0-.168,1.1v3.254Z" transform="translate(-24.047 -4.704)"/><path class="cls-2" d="M71.486,197.879a3.763,3.763,0,0,1-1.078.672,3.121,3.121,0,0,1-1.112.2,2.165,2.165,0,0,1-1.507-.479,1.581,1.581,0,0,1-.526-1.224,1.657,1.657,0,0,1,.72-1.378,2.457,2.457,0,0,1,.725-.331,7.208,7.208,0,0,1,.9-.151,9.192,9.192,0,0,0,1.8-.348c0-.138.006-.226.006-.263a1.113,1.113,0,0,0-.286-.868,1.689,1.689,0,0,0-1.148-.342,1.782,1.782,0,0,0-1.05.25,1.521,1.521,0,0,0-.5.882l-.986-.135a2.441,2.441,0,0,1,.443-1.022,1.936,1.936,0,0,1,.891-.6,3.967,3.967,0,0,1,1.35-.21,3.581,3.581,0,0,1,1.238.179,1.633,1.633,0,0,1,.7.451,1.589,1.589,0,0,1,.314.686,5.669,5.669,0,0,1,.05.93v1.344a14.253,14.253,0,0,0,.064,1.778,2.242,2.242,0,0,0,.255.714H71.688A2.136,2.136,0,0,1,71.486,197.879Zm-.084-2.251a7.391,7.391,0,0,1-1.646.381,3.792,3.792,0,0,0-.879.2.878.878,0,0,0-.4.328.89.89,0,0,0,.166,1.151,1.312,1.312,0,0,0,.893.269,2.077,2.077,0,0,0,1.036-.255,1.57,1.57,0,0,0,.667-.7A2.444,2.444,0,0,0,71.4,196Z" transform="translate(-24.047 -4.704)"/><path class="cls-2" d="M73.962,198.613V190.4H74.97v8.211Z" transform="translate(-24.047 -4.704)"/><path class="cls-2" d="M76.773,198.613v-5.165h-.891v-.784h.891v-.633a2.763,2.763,0,0,1,.106-.891,1.293,1.293,0,0,1,.512-.636,1.85,1.85,0,0,1,1.028-.244,4.926,4.926,0,0,1,.941.1l-.151.879a3.36,3.36,0,0,0-.594-.056.885.885,0,0,0-.65.2,1.064,1.064,0,0,0-.19.734v.549h1.16v.784h-1.16v5.165Z" transform="translate(-24.047 -4.704)"/><path class="cls-2" d="M82.531,195.639a3.066,3.066,0,0,1,.918-2.448,2.767,2.767,0,0,1,1.871-.661,2.67,2.67,0,0,1,2.005.8,3.061,3.061,0,0,1,.778,2.221,3.937,3.937,0,0,1-.344,1.806,2.439,2.439,0,0,1-1,1.022,2.919,2.919,0,0,1-1.437.364,2.674,2.674,0,0,1-2.02-.8A3.2,3.2,0,0,1,82.531,195.639Zm1.036,0a2.532,2.532,0,0,0,.5,1.711,1.659,1.659,0,0,0,2.5,0,2.6,2.6,0,0,0,.5-1.742,2.456,2.456,0,0,0-.5-1.672,1.662,1.662,0,0,0-2.5,0A2.521,2.521,0,0,0,83.567,195.639Z" transform="translate(-24.047 -4.704)"/><path class="cls-2" d="M89.527,198.613v-5.165h-.891v-.784h.891v-.633a2.763,2.763,0,0,1,.106-.891,1.293,1.293,0,0,1,.512-.636,1.85,1.85,0,0,1,1.028-.244,4.926,4.926,0,0,1,.941.1l-.151.879a3.36,3.36,0,0,0-.594-.056.885.885,0,0,0-.65.2,1.064,1.064,0,0,0-.19.734v.549h1.16v.784H90.53v5.165Z" transform="translate(-24.047 -4.704)"/><path class="cls-2" d="M96.758,198.613l-1.82-5.949H95.98l.946,3.434.353,1.277q.022-.1.308-1.227l.946-3.484H99.57l.891,3.451.3,1.137.341-1.148,1.02-3.439h.98l-1.86,5.949h-1.047l-.947-3.562-.229-1.014-1.2,4.576Z" transform="translate(-24.047 -4.704)"/><path class="cls-2" d="M103.945,198.613V190.4h1.008v2.946a2.252,2.252,0,0,1,1.781-.818,2.4,2.4,0,0,1,1.148.261,1.529,1.529,0,0,1,.7.72,3.316,3.316,0,0,1,.21,1.333v3.77h-1.008v-3.77a1.555,1.555,0,0,0-.328-1.1,1.217,1.217,0,0,0-.927-.345,1.638,1.638,0,0,0-.843.232,1.313,1.313,0,0,0-.562.63,2.887,2.887,0,0,0-.168,1.1v3.254Z" transform="translate(-24.047 -4.704)"/><path class="cls-2" d="M114.206,197.879a3.763,3.763,0,0,1-1.078.672,3.121,3.121,0,0,1-1.112.2,2.165,2.165,0,0,1-1.507-.479,1.581,1.581,0,0,1-.526-1.224,1.657,1.657,0,0,1,.72-1.378,2.457,2.457,0,0,1,.725-.331,7.208,7.208,0,0,1,.9-.151,9.192,9.192,0,0,0,1.8-.348c0-.138.006-.226.006-.263a1.113,1.113,0,0,0-.286-.868,1.689,1.689,0,0,0-1.148-.342,1.782,1.782,0,0,0-1.05.25,1.521,1.521,0,0,0-.5.882l-.986-.135a2.441,2.441,0,0,1,.443-1.022,1.936,1.936,0,0,1,.891-.6,3.967,3.967,0,0,1,1.35-.21,3.581,3.581,0,0,1,1.238.179,1.633,1.633,0,0,1,.7.451,1.589,1.589,0,0,1,.314.686,5.669,5.669,0,0,1,.05.93v1.344a14.253,14.253,0,0,0,.064,1.778,2.242,2.242,0,0,0,.255.714h-1.053A2.136,2.136,0,0,1,114.206,197.879Zm-.084-2.251a7.391,7.391,0,0,1-1.646.381,3.792,3.792,0,0,0-.879.2.878.878,0,0,0-.4.328.89.89,0,0,0,.166,1.151,1.312,1.312,0,0,0,.893.269,2.077,2.077,0,0,0,1.036-.255,1.57,1.57,0,0,0,.667-.7,2.444,2.444,0,0,0,.162-1.008Z" transform="translate(-24.047 -4.704)"/><path class="cls-2" d="M118.906,197.711l.146.891a3.752,3.752,0,0,1-.762.09,1.725,1.725,0,0,1-.852-.174.971.971,0,0,1-.425-.457,3.6,3.6,0,0,1-.124-1.19v-3.422h-.739v-.784h.739v-1.473l1-.6v2.078h1.014v.784h-1.014v3.479a1.752,1.752,0,0,0,.053.555.418.418,0,0,0,.173.2.669.669,0,0,0,.345.073A3.241,3.241,0,0,0,118.906,197.711Z" transform="translate(-24.047 -4.704)"/><path class="cls-2" d="M123.963,196.7l1.042.129a2.544,2.544,0,0,1-.913,1.417,3.094,3.094,0,0,1-3.772-.3,3.14,3.14,0,0,1-.765-2.254,3.288,3.288,0,0,1,.773-2.33,2.617,2.617,0,0,1,2.005-.829,2.544,2.544,0,0,1,1.949.812,3.226,3.226,0,0,1,.756,2.286c0,.06,0,.149-.006.269H120.6a2.285,2.285,0,0,0,.555,1.5,1.65,1.65,0,0,0,1.243.521,1.542,1.542,0,0,0,.947-.292A1.932,1.932,0,0,0,123.963,196.7Zm-3.31-1.63h3.321a2.013,2.013,0,0,0-.381-1.126,1.546,1.546,0,0,0-1.249-.583,1.6,1.6,0,0,0-1.168.465A1.841,1.841,0,0,0,120.653,195.068Z" transform="translate(-24.047 -4.704)"/><path class="cls-2" d="M127.924,198.613l-2.263-5.949h1.064L128,196.227q.207.577.381,1.2.135-.47.375-1.131l1.322-3.63h1.036l-2.251,5.949Z" transform="translate(-24.047 -4.704)"/><path class="cls-2" d="M136.079,196.7l1.042.129a2.544,2.544,0,0,1-.913,1.417,3.094,3.094,0,0,1-3.772-.3,3.14,3.14,0,0,1-.765-2.254,3.288,3.288,0,0,1,.773-2.33,2.617,2.617,0,0,1,2.005-.829,2.544,2.544,0,0,1,1.949.812,3.226,3.226,0,0,1,.756,2.286c0,.06,0,.149-.006.269h-4.436a2.285,2.285,0,0,0,.555,1.5,1.65,1.65,0,0,0,1.243.521,1.542,1.542,0,0,0,.947-.292A1.932,1.932,0,0,0,136.079,196.7Zm-3.31-1.63h3.321a2.013,2.013,0,0,0-.381-1.126,1.546,1.546,0,0,0-1.249-.583,1.6,1.6,0,0,0-1.168.465A1.841,1.841,0,0,0,132.769,195.068Z" transform="translate(-24.047 -4.704)"/><path class="cls-2" d="M138.376,198.613v-5.949h.907v.9a2.455,2.455,0,0,1,.642-.834,1.12,1.12,0,0,1,.646-.2,1.97,1.97,0,0,1,1.037.325l-.348.936a1.442,1.442,0,0,0-.739-.218.962.962,0,0,0-.594.2,1.079,1.079,0,0,0-.375.552,3.918,3.918,0,0,0-.168,1.176v3.114Z" transform="translate(-24.047 -4.704)"/><path class="cls-2" d="M70.718,210.463l1.042.129a2.544,2.544,0,0,1-.913,1.417,3.094,3.094,0,0,1-3.772-.3,3.14,3.14,0,0,1-.765-2.254,3.288,3.288,0,0,1,.773-2.33,2.617,2.617,0,0,1,2.005-.829,2.544,2.544,0,0,1,1.949.812,3.226,3.226,0,0,1,.756,2.286c0,.06,0,.149-.006.269H67.352a2.285,2.285,0,0,0,.555,1.5,1.65,1.65,0,0,0,1.243.521,1.542,1.542,0,0,0,.947-.292A1.932,1.932,0,0,0,70.718,210.463Zm-3.31-1.63h3.321a2.013,2.013,0,0,0-.381-1.126,1.546,1.546,0,0,0-1.249-.583,1.6,1.6,0,0,0-1.168.465A1.841,1.841,0,0,0,67.408,208.833Z" transform="translate(-24.047 -4.704)"/><path class="cls-2" d="M73.032,205.327v-1.16H74.04v1.16Zm0,7.052V206.43H74.04v5.949Z" transform="translate(-24.047 -4.704)"/><path class="cls-2" d="M77.776,211.477l.146.891a3.752,3.752,0,0,1-.762.09,1.725,1.725,0,0,1-.852-.174.971.971,0,0,1-.425-.457,3.6,3.6,0,0,1-.124-1.19v-3.422H75.02v-.784h.739v-1.473l1-.6v2.078h1.014v.784H76.762v3.479a1.752,1.752,0,0,0,.053.555.418.418,0,0,0,.173.2.669.669,0,0,0,.345.073A3.241,3.241,0,0,0,77.776,211.477Z" transform="translate(-24.047 -4.704)"/><path class="cls-2" d="M78.762,212.379v-8.211H79.77v2.946a2.252,2.252,0,0,1,1.781-.818,2.4,2.4,0,0,1,1.148.261,1.529,1.529,0,0,1,.7.72,3.316,3.316,0,0,1,.21,1.333v3.77H82.6v-3.77a1.555,1.555,0,0,0-.328-1.1,1.217,1.217,0,0,0-.927-.345,1.638,1.638,0,0,0-.843.232,1.313,1.313,0,0,0-.562.63,2.887,2.887,0,0,0-.168,1.1v3.254Z" transform="translate(-24.047 -4.704)"/><path class="cls-2" d="M89.213,210.463l1.042.129a2.544,2.544,0,0,1-.913,1.417,3.094,3.094,0,0,1-3.772-.3,3.14,3.14,0,0,1-.765-2.254,3.288,3.288,0,0,1,.773-2.33,2.617,2.617,0,0,1,2.005-.829,2.544,2.544,0,0,1,1.949.812,3.226,3.226,0,0,1,.756,2.286c0,.06,0,.149-.006.269H85.847a2.285,2.285,0,0,0,.555,1.5,1.65,1.65,0,0,0,1.243.521,1.542,1.542,0,0,0,.947-.292A1.932,1.932,0,0,0,89.213,210.463Zm-3.31-1.63h3.321a2.013,2.013,0,0,0-.381-1.126,1.546,1.546,0,0,0-1.249-.583,1.6,1.6,0,0,0-1.168.465A1.841,1.841,0,0,0,85.9,208.833Z" transform="translate(-24.047 -4.704)"/><path class="cls-2" d="M91.51,212.379V206.43h.907v.9a2.455,2.455,0,0,1,.642-.834,1.12,1.12,0,0,1,.646-.2,1.97,1.97,0,0,1,1.037.325l-.348.936a1.442,1.442,0,0,0-.739-.218.962.962,0,0,0-.594.2,1.079,1.079,0,0,0-.375.552,3.918,3.918,0,0,0-.168,1.176v3.114Z" transform="translate(-24.047 -4.704)"/><path class="cls-2" d="M98.153,209.4a3.066,3.066,0,0,1,.918-2.448,2.767,2.767,0,0,1,1.871-.661,2.67,2.67,0,0,1,2.005.8,3.061,3.061,0,0,1,.778,2.221,3.937,3.937,0,0,1-.344,1.806,2.439,2.439,0,0,1-1,1.022,2.919,2.919,0,0,1-1.437.364,2.674,2.674,0,0,1-2.02-.8A3.2,3.2,0,0,1,98.153,209.4Zm1.036,0a2.532,2.532,0,0,0,.5,1.711,1.659,1.659,0,0,0,2.5,0,2.6,2.6,0,0,0,.5-1.742,2.456,2.456,0,0,0-.5-1.672,1.662,1.662,0,0,0-2.5,0A2.521,2.521,0,0,0,99.189,209.4Z" transform="translate(-24.047 -4.704)"/><path class="cls-2" d="M105.149,212.379v-5.165h-.891v-.784h.891V205.8a2.763,2.763,0,0,1,.106-.891,1.293,1.293,0,0,1,.512-.636,1.85,1.85,0,0,1,1.028-.244,4.926,4.926,0,0,1,.941.1l-.151.879a3.36,3.36,0,0,0-.594-.056.885.885,0,0,0-.65.2,1.064,1.064,0,0,0-.19.734v.549h1.16v.784h-1.16v5.165Z" transform="translate(-24.047 -4.704)"/><path class="cls-2" d="M113.483,211.477l.146.891a3.752,3.752,0,0,1-.762.09,1.725,1.725,0,0,1-.852-.174.971.971,0,0,1-.425-.457,3.6,3.6,0,0,1-.124-1.19v-3.422h-.739v-.784h.739v-1.473l1-.6v2.078h1.014v.784H112.47v3.479a1.752,1.752,0,0,0,.053.555.418.418,0,0,0,.173.2.669.669,0,0,0,.345.073A3.241,3.241,0,0,0,113.483,211.477Z" transform="translate(-24.047 -4.704)"/><path class="cls-2" d="M114.469,212.379v-8.211h1.008v2.946a2.252,2.252,0,0,1,1.781-.818,2.4,2.4,0,0,1,1.148.261,1.529,1.529,0,0,1,.7.72,3.316,3.316,0,0,1,.21,1.333v3.77h-1.008v-3.77a1.555,1.555,0,0,0-.328-1.1,1.217,1.217,0,0,0-.927-.345,1.638,1.638,0,0,0-.843.232,1.313,1.313,0,0,0-.562.63,2.887,2.887,0,0,0-.168,1.1v3.254Z" transform="translate(-24.047 -4.704)"/><path class="cls-2" d="M124.921,210.463l1.042.129a2.544,2.544,0,0,1-.913,1.417,3.094,3.094,0,0,1-3.772-.3,3.14,3.14,0,0,1-.765-2.254,3.288,3.288,0,0,1,.773-2.33,2.617,2.617,0,0,1,2.005-.829,2.544,2.544,0,0,1,1.949.812,3.226,3.226,0,0,1,.756,2.286c0,.06,0,.149-.006.269h-4.436a2.285,2.285,0,0,0,.555,1.5,1.65,1.65,0,0,0,1.243.521,1.542,1.542,0,0,0,.947-.292A1.932,1.932,0,0,0,124.921,210.463Zm-3.31-1.63h3.321a2.013,2.013,0,0,0-.381-1.126,1.546,1.546,0,0,0-1.249-.583,1.6,1.6,0,0,0-1.168.465A1.841,1.841,0,0,0,121.611,208.833Z" transform="translate(-24.047 -4.704)"/><path class="cls-2" d="M127.229,212.379V206.43h.9v.835a2.1,2.1,0,0,1,1.8-.969,1.959,1.959,0,0,1,1.084.274,1.471,1.471,0,0,1,.6.768,2.134,2.134,0,0,1,1.837-1.042,1.811,1.811,0,0,1,1.361.49,2.1,2.1,0,0,1,.476,1.509v4.083h-1v-3.747a2.756,2.756,0,0,0-.1-.871.846.846,0,0,0-.356-.429,1.112,1.112,0,0,0-.6-.162,1.409,1.409,0,0,0-1.042.417,1.838,1.838,0,0,0-.415,1.336v3.456h-1.008v-3.865a1.7,1.7,0,0,0-.247-1.008.933.933,0,0,0-.807-.336,1.467,1.467,0,0,0-.787.224,1.271,1.271,0,0,0-.524.656,3.684,3.684,0,0,0-.163,1.243v3.086Z" transform="translate(-24.047 -4.704)"/><path class="cls-2" d="M89.847,224.229l1.042.129a2.544,2.544,0,0,1-.913,1.417,3.094,3.094,0,0,1-3.772-.3,3.14,3.14,0,0,1-.765-2.254,3.288,3.288,0,0,1,.773-2.33,2.617,2.617,0,0,1,2.005-.829,2.544,2.544,0,0,1,1.949.812,3.226,3.226,0,0,1,.756,2.286c0,.06,0,.149-.006.269H86.48a2.285,2.285,0,0,0,.555,1.5,1.65,1.65,0,0,0,1.243.521,1.542,1.542,0,0,0,.947-.292A1.932,1.932,0,0,0,89.847,224.229Zm-3.31-1.63h3.321a2.013,2.013,0,0,0-.381-1.126,1.546,1.546,0,0,0-1.249-.583,1.6,1.6,0,0,0-1.168.465A1.841,1.841,0,0,0,86.537,222.6Z" transform="translate(-24.047 -4.704)"/><path class="cls-2" d="M96.036,225.411a3.763,3.763,0,0,1-1.078.672,3.121,3.121,0,0,1-1.112.2,2.165,2.165,0,0,1-1.507-.479,1.581,1.581,0,0,1-.526-1.224,1.657,1.657,0,0,1,.72-1.378,2.457,2.457,0,0,1,.725-.331,7.208,7.208,0,0,1,.9-.151,9.192,9.192,0,0,0,1.8-.348c0-.138.006-.226.006-.263a1.113,1.113,0,0,0-.286-.868,1.689,1.689,0,0,0-1.148-.342,1.782,1.782,0,0,0-1.05.25,1.521,1.521,0,0,0-.5.882l-.986-.135a2.441,2.441,0,0,1,.443-1.022,1.936,1.936,0,0,1,.891-.6,3.967,3.967,0,0,1,1.35-.21,3.581,3.581,0,0,1,1.238.179,1.633,1.633,0,0,1,.7.451,1.589,1.589,0,0,1,.314.686,5.669,5.669,0,0,1,.05.93v1.344a14.253,14.253,0,0,0,.064,1.778,2.242,2.242,0,0,0,.255.714H96.238A2.136,2.136,0,0,1,96.036,225.411Zm-.084-2.251a7.391,7.391,0,0,1-1.646.381,3.792,3.792,0,0,0-.879.2.878.878,0,0,0-.4.328.89.89,0,0,0,.166,1.151,1.312,1.312,0,0,0,.893.269,2.077,2.077,0,0,0,1.036-.255,1.57,1.57,0,0,0,.667-.7,2.444,2.444,0,0,0,.162-1.008Z" transform="translate(-24.047 -4.704)"/><path class="cls-2" d="M98.523,226.145V220.2h.907v.9a2.455,2.455,0,0,1,.642-.834,1.12,1.12,0,0,1,.646-.2,1.97,1.97,0,0,1,1.037.325l-.348.936a1.442,1.442,0,0,0-.739-.218.962.962,0,0,0-.594.2,1.079,1.079,0,0,0-.375.552,3.918,3.918,0,0,0-.168,1.176v3.114Z" transform="translate(-24.047 -4.704)"/><path class="cls-2" d="M102.354,226.145V220.2h.907v.846a2.138,2.138,0,0,1,1.893-.98,2.484,2.484,0,0,1,.989.193,1.555,1.555,0,0,1,.675.507,1.95,1.95,0,0,1,.314.745,5.8,5.8,0,0,1,.056.98v3.658H106.18v-3.619a2.724,2.724,0,0,0-.118-.921.973.973,0,0,0-.417-.487,1.33,1.33,0,0,0-.7-.182,1.635,1.635,0,0,0-1.112.409,2.018,2.018,0,0,0-.468,1.552v3.249Z" transform="translate(-24.047 -4.704)"/><path class="cls-2" d="M108.331,224.369l1-.157a1.394,1.394,0,0,0,.467.919,1.631,1.631,0,0,0,1.073.319,1.574,1.574,0,0,0,1.031-.283.845.845,0,0,0,.336-.664.611.611,0,0,0-.3-.538,4.358,4.358,0,0,0-1.03-.342,9.384,9.384,0,0,1-1.538-.484,1.468,1.468,0,0,1-.871-1.364,1.529,1.529,0,0,1,.182-.736,1.625,1.625,0,0,1,.5-.563,2.074,2.074,0,0,1,.641-.294,3.041,3.041,0,0,1,.871-.121,3.447,3.447,0,0,1,1.229.2,1.668,1.668,0,0,1,.781.546,2.133,2.133,0,0,1,.348.921l-.986.134a1.077,1.077,0,0,0-.39-.717,1.422,1.422,0,0,0-.91-.258,1.65,1.65,0,0,0-.991.229.668.668,0,0,0-.3.538.557.557,0,0,0,.123.353.886.886,0,0,0,.387.269q.151.056.891.257a12.479,12.479,0,0,1,1.493.468,1.518,1.518,0,0,1,.664.529,1.478,1.478,0,0,1,.241.863,1.69,1.69,0,0,1-.294.949,1.9,1.9,0,0,1-.849.689,3.085,3.085,0,0,1-1.254.244,2.8,2.8,0,0,1-1.768-.481A2.241,2.241,0,0,1,108.331,224.369Z" transform="translate(-24.047 -4.704)"/><path class="cls-2" d="M114.756,226.145V225H115.9v1.148Z" transform="translate(-24.047 -4.704)"/></svg>