<svg id="Layer_1" data-name="Layer 1" xmlns="http://www.w3.org/2000/svg" viewBox="0 0 303.362 227.481"><defs><style>.cls-1{fill:#005abc;stroke:#231f20;stroke-width:0.5px;}.cls-2{fill:#fff;}</style></defs><title>The_Nature_of_Community_Property_02</title><path id="FL" class="cls-1" d="M231.7,11.474l4.316,13.878,7.105,18.475,10.163,17.779,7.083,11.955L269.6,83.985c2.885,3.231,7.727,5.945,9.074,10.3.77,2.5-.369,4-.811,6.312-.533,2.789.362,4.77,1.383,7.372q1.487,3.794,2.978,7.589l5.544,5.519L292.7,131.2l6.775,11.034,8.623,15.635,2.463,14.407c.141,3.464.253,6.928.4,10.389.1,2.486.1,5.009.262,7.486.349,5.162,1.377,9.352.88,14.6-.055.577-3.952,2.117-4.6,2.436.552-.271-.59,6.96-.624,7.534a25.129,25.129,0,0,0,.6,4.462l.925,3.678-5.235,6.13-5.852,2.76-7.39.305-2.771,3.067-4.619,1.839-2.464-.921-2.156-1.839s-.592-5.321-.615-5.515c-.677-6.073-4.742-11.3-8.008-16.248-1.468-2.224-4.756-3.336-7.2-3.992-.875-.237-6.565-1.559-6.969-.914,0,0-1.531,2.438-1.54,2.45.506-.868-3.765-5.7-4.282-6.474-1.828-2.739-2.208-5.285-2.794-8.5-.543-2.976-3.617-7.035-6.283-8.45-3.771-2-2.53,1.807-5.649,2.418-1.837.36-3.432-1.415-4.275-2.974-1.16-2.149-1.326-4.749-2.539-6.878-2.14-3.762-5.243-6.821-7.345-10.656-1.185-2.16-2.24-5.045-3.788-6.916,0,0-4.883-5.772-4.929-5.825-2.071-2.447-4.537-4.722-6.775-7.051,1.247-1.431,3.051-2.985,4-4.6,2.721-4.6,6.422-7.8,5.852-13.488-.189-1.889-10.138-1.367-11.7-.611.2.413.412.823.617,1.235.606,1.11,3.7,1.454,4.82,1.775-.107.98-3.616,10.594-4.2,9.519-1.935-3.592-2.883-7.908-4.024-11.8-.864-2.951-2.678-6.886-2.461-10.031.2-2.937,1.894-6.262,2.778-9.095V93.487a42.224,42.224,0,0,1-5.088-7.26,13.2,13.2,0,0,0-8.9-7.044c-4.432-1.256-8.423-3.12-10.959-7.153-1.623-2.579-5.74-1.8-7.249-5.43-1.568-3.774-1.921-3.573-5.248-5.508a9.111,9.111,0,0,1-3.27-3.322c-3-4.578-5.775-5.041-10.715-6.891-2.687-.925-5.4-2.457-8.534-2.678-3.343-.237-6.406.807-9.63,1.449-1.426.285.713,4.605.754,4.97a3.643,3.643,0,0,1-.453,2.7c-2.268-.066-4.519-1.016-6.668.1-1.552.809-2.5,2.835-3.808,3.986a49.168,49.168,0,0,1-9.231,6.03h-7.393c-2.283,0-4.173,1.814-6.21,2.245-.207-1.657-.367-3.338-.563-5-.1-.873-2.441-3.181-3.186-3.724-4.453-3.25-9.685-5.419-14.637-7.784-2.851-1.363-6.2-3.712-9.279-4.43L55.884,45.361l-8.313,1.226-11.394.921L24.782,51.491l-6.627,1.162L17.7,37.387l-4.927-3.678L9.387,30.336,10,24.512l19.4-2.45,48.655-5.519,12.935-1.226,10.355.531,4.929,7.358,2.769,2.76,15.425.975,20.614-1.226,40.978-2.452,10.376-1.279,9.728.388.811,5.517,4.257,1.534.447-8.78-2.912-7.912L211.264,10l10.581.861Z" transform="translate(-9.125 -9.741)"/><path class="cls-2" d="M223.057,91.57l1,.251a3.355,3.355,0,0,1-1.128,1.873,3.108,3.108,0,0,1-1.991.645,3.577,3.577,0,0,1-1.981-.5,3.1,3.1,0,0,1-1.162-1.437,5.123,5.123,0,0,1-.4-2.02,4.438,4.438,0,0,1,.45-2.053A3.083,3.083,0,0,1,219.124,87a3.737,3.737,0,0,1,1.827-.455,3.09,3.09,0,0,1,1.9.575,2.994,2.994,0,0,1,1.074,1.619l-.982.231a2.328,2.328,0,0,0-.76-1.2,2.028,2.028,0,0,0-1.254-.375,2.436,2.436,0,0,0-1.452.416,2.2,2.2,0,0,0-.82,1.118,4.51,4.51,0,0,0-.236,1.447,4.59,4.59,0,0,0,.28,1.678,2.086,2.086,0,0,0,.871,1.071,2.441,2.441,0,0,0,1.279.354A2.146,2.146,0,0,0,222.271,93,2.473,2.473,0,0,0,223.057,91.57Z" transform="translate(-9.125 -9.741)"/><path class="cls-2" d="M224.82,91.482a2.812,2.812,0,0,1,.843-2.246,2.538,2.538,0,0,1,1.716-.606,2.448,2.448,0,0,1,1.839.737,2.806,2.806,0,0,1,.714,2.038,3.613,3.613,0,0,1-.316,1.657,2.241,2.241,0,0,1-.92.938,2.677,2.677,0,0,1-1.318.334,2.453,2.453,0,0,1-1.853-.735A2.935,2.935,0,0,1,224.82,91.482Zm.951,0a2.326,2.326,0,0,0,.457,1.57,1.523,1.523,0,0,0,2.3,0,2.379,2.379,0,0,0,.458-1.6,2.255,2.255,0,0,0-.46-1.534,1.525,1.525,0,0,0-2.294,0A2.315,2.315,0,0,0,225.771,91.482Z" transform="translate(-9.125 -9.741)"/><path class="cls-2" d="M231.017,94.211V88.753h.827v.766a1.924,1.924,0,0,1,1.655-.889,1.794,1.794,0,0,1,.994.252,1.344,1.344,0,0,1,.547.7,1.959,1.959,0,0,1,1.686-.956,1.661,1.661,0,0,1,1.249.45,1.92,1.92,0,0,1,.437,1.385v3.746h-.92V90.773a2.528,2.528,0,0,0-.09-.8.776.776,0,0,0-.326-.393,1.017,1.017,0,0,0-.555-.149,1.29,1.29,0,0,0-.956.383,1.684,1.684,0,0,0-.38,1.226v3.17h-.925V90.665a1.558,1.558,0,0,0-.226-.925.856.856,0,0,0-.74-.308,1.344,1.344,0,0,0-.722.206,1.167,1.167,0,0,0-.48.6,3.39,3.39,0,0,0-.149,1.141v2.832Z" transform="translate(-9.125 -9.741)"/><path class="cls-2" d="M239.784,94.211V88.753h.827v.766a1.924,1.924,0,0,1,1.655-.889,1.794,1.794,0,0,1,.994.252,1.344,1.344,0,0,1,.547.7,1.959,1.959,0,0,1,1.686-.956,1.661,1.661,0,0,1,1.249.45,1.92,1.92,0,0,1,.437,1.385v3.746h-.92V90.773a2.528,2.528,0,0,0-.09-.8.776.776,0,0,0-.326-.393,1.017,1.017,0,0,0-.555-.149,1.29,1.29,0,0,0-.956.383,1.684,1.684,0,0,0-.38,1.226v3.17h-.925V90.665a1.558,1.558,0,0,0-.226-.925.856.856,0,0,0-.74-.308,1.344,1.344,0,0,0-.722.206,1.167,1.167,0,0,0-.48.6,3.39,3.39,0,0,0-.149,1.141v2.832Z" transform="translate(-9.125 -9.741)"/><path class="cls-2" d="M248.206,91.482a2.812,2.812,0,0,1,.843-2.246,2.538,2.538,0,0,1,1.716-.606,2.448,2.448,0,0,1,1.839.737,2.806,2.806,0,0,1,.714,2.038A3.613,3.613,0,0,1,253,93.063a2.241,2.241,0,0,1-.92.938,2.677,2.677,0,0,1-1.318.334,2.453,2.453,0,0,1-1.853-.735A2.935,2.935,0,0,1,248.206,91.482Zm.951,0a2.326,2.326,0,0,0,.457,1.57,1.523,1.523,0,0,0,2.3,0,2.379,2.379,0,0,0,.458-1.6,2.255,2.255,0,0,0-.46-1.534,1.525,1.525,0,0,0-2.294,0A2.315,2.315,0,0,0,249.157,91.482Z" transform="translate(-9.125 -9.741)"/><path class="cls-2" d="M254.4,94.211V88.753h.833v.776a1.961,1.961,0,0,1,1.737-.9,2.279,2.279,0,0,1,.907.177,1.427,1.427,0,0,1,.619.465,1.79,1.79,0,0,1,.288.684,5.311,5.311,0,0,1,.051.9v3.355h-.925v-3.32a2.5,2.5,0,0,0-.108-.845.892.892,0,0,0-.383-.447,1.219,1.219,0,0,0-.645-.167,1.5,1.5,0,0,0-1.02.375,1.85,1.85,0,0,0-.429,1.423v2.98Z" transform="translate(-9.125 -9.741)"/><path class="cls-2" d="M215.586,106.84V99.307h1v6.644h3.71v.889Z" transform="translate(-9.125 -9.741)"/><path class="cls-2" d="M224.923,106.167a3.434,3.434,0,0,1-.989.617,2.853,2.853,0,0,1-1.02.18,1.983,1.983,0,0,1-1.382-.439,1.45,1.45,0,0,1-.483-1.123,1.492,1.492,0,0,1,.182-.732,1.513,1.513,0,0,1,.478-.532,2.262,2.262,0,0,1,.666-.3,6.707,6.707,0,0,1,.822-.139,8.469,8.469,0,0,0,1.649-.318c0-.127.005-.208.005-.242a1.021,1.021,0,0,0-.262-.8,1.549,1.549,0,0,0-1.054-.313,1.635,1.635,0,0,0-.963.229,1.4,1.4,0,0,0-.46.81l-.9-.124a2.234,2.234,0,0,1,.406-.937,1.778,1.778,0,0,1,.817-.55,3.632,3.632,0,0,1,1.238-.193,3.274,3.274,0,0,1,1.136.165,1.493,1.493,0,0,1,.642.414,1.457,1.457,0,0,1,.288.629,5.229,5.229,0,0,1,.046.853v1.233a13.155,13.155,0,0,0,.059,1.631,2.068,2.068,0,0,0,.234.655h-.966A1.953,1.953,0,0,1,224.923,106.167Zm-.077-2.065a6.8,6.8,0,0,1-1.511.349,3.514,3.514,0,0,0-.807.185.809.809,0,0,0-.365.3.818.818,0,0,0,.152,1.056,1.207,1.207,0,0,0,.82.247,1.907,1.907,0,0,0,.95-.234,1.44,1.44,0,0,0,.612-.64,2.24,2.24,0,0,0,.149-.925Z" transform="translate(-9.125 -9.741)"/><path class="cls-2" d="M228.222,106.84l-1.67-5.458h.956l.868,3.15.324,1.171q.021-.087.283-1.125l.869-3.2h.951l.817,3.166.272,1.043.313-1.054.935-3.155h.9l-1.706,5.458h-.961l-.869-3.268-.21-.93-1.1,4.2Z" transform="translate(-9.125 -9.741)"/><path class="cls-2" d="M237.518,104.419l.94-.082a2.074,2.074,0,0,0,.311.927,1.693,1.693,0,0,0,.758.586,2.873,2.873,0,0,0,1.156.224,2.778,2.778,0,0,0,1.007-.169,1.4,1.4,0,0,0,.65-.465,1.078,1.078,0,0,0,.213-.645.983.983,0,0,0-.206-.619,1.528,1.528,0,0,0-.678-.444,13.4,13.4,0,0,0-1.341-.368,6.868,6.868,0,0,1-1.454-.47,2.037,2.037,0,0,1-.8-.7,1.717,1.717,0,0,1-.265-.938,1.914,1.914,0,0,1,.324-1.066,2,2,0,0,1,.945-.753,3.586,3.586,0,0,1,1.382-.257,3.782,3.782,0,0,1,1.478.27,2.132,2.132,0,0,1,.984.794,2.281,2.281,0,0,1,.37,1.187l-.956.072a1.543,1.543,0,0,0-.521-1.08,2.031,2.031,0,0,0-1.313-.365,2.107,2.107,0,0,0-1.318.332.994.994,0,0,0-.414.8.858.858,0,0,0,.292.668,3.975,3.975,0,0,0,1.5.537,10.017,10.017,0,0,1,1.667.48,2.285,2.285,0,0,1,.971.769,1.871,1.871,0,0,1,.313,1.071,2.051,2.051,0,0,1-.344,1.133,2.267,2.267,0,0,1-.989.827,3.451,3.451,0,0,1-1.452.3,4.334,4.334,0,0,1-1.714-.3,2.4,2.4,0,0,1-1.084-.9A2.544,2.544,0,0,1,237.518,104.419Z" transform="translate(-9.125 -9.741)"/><path class="cls-2" d="M246.778,106.013l.133.817a3.436,3.436,0,0,1-.7.082,1.585,1.585,0,0,1-.781-.159.89.89,0,0,1-.39-.419,3.3,3.3,0,0,1-.113-1.092V102.1h-.678v-.72h.678v-1.351l.92-.555v1.906h.93v.72h-.93v3.191a1.6,1.6,0,0,0,.049.509.381.381,0,0,0,.159.18.612.612,0,0,0,.316.067A3.01,3.01,0,0,0,246.778,106.013Z" transform="translate(-9.125 -9.741)"/><path class="cls-2" d="M251.243,106.167a3.434,3.434,0,0,1-.989.617,2.853,2.853,0,0,1-1.02.18,1.983,1.983,0,0,1-1.382-.439,1.45,1.45,0,0,1-.483-1.123,1.492,1.492,0,0,1,.182-.732,1.513,1.513,0,0,1,.478-.532,2.262,2.262,0,0,1,.666-.3,6.707,6.707,0,0,1,.822-.139,8.469,8.469,0,0,0,1.649-.318c0-.127.005-.208.005-.242a1.021,1.021,0,0,0-.262-.8,1.549,1.549,0,0,0-1.054-.313,1.635,1.635,0,0,0-.963.229,1.4,1.4,0,0,0-.46.81l-.9-.124a2.234,2.234,0,0,1,.406-.937,1.778,1.778,0,0,1,.817-.55,3.632,3.632,0,0,1,1.238-.193,3.274,3.274,0,0,1,1.136.165,1.493,1.493,0,0,1,.642.414,1.457,1.457,0,0,1,.288.629,5.229,5.229,0,0,1,.046.853v1.233a13.155,13.155,0,0,0,.059,1.631,2.068,2.068,0,0,0,.234.655h-.966A1.953,1.953,0,0,1,251.243,106.167Zm-.077-2.065a6.8,6.8,0,0,1-1.511.349,3.514,3.514,0,0,0-.807.185.809.809,0,0,0-.365.3.818.818,0,0,0,.152,1.056,1.207,1.207,0,0,0,.82.247,1.907,1.907,0,0,0,.95-.234,1.44,1.44,0,0,0,.612-.64,2.24,2.24,0,0,0,.149-.925Z" transform="translate(-9.125 -9.741)"/><path class="cls-2" d="M255.555,106.013l.133.817a3.436,3.436,0,0,1-.7.082,1.585,1.585,0,0,1-.781-.159.89.89,0,0,1-.39-.419,3.3,3.3,0,0,1-.113-1.092V102.1h-.678v-.72h.678v-1.351l.92-.555v1.906h.93v.72h-.93v3.191a1.6,1.6,0,0,0,.049.509.381.381,0,0,0,.159.18.612.612,0,0,0,.316.067A3.01,3.01,0,0,0,255.555,106.013Z" transform="translate(-9.125 -9.741)"/><path class="cls-2" d="M260.195,105.083l.956.118a2.332,2.332,0,0,1-.837,1.3,2.836,2.836,0,0,1-3.461-.275,2.88,2.88,0,0,1-.7-2.068,3.015,3.015,0,0,1,.709-2.138,2.4,2.4,0,0,1,1.839-.76,2.335,2.335,0,0,1,1.789.745,2.961,2.961,0,0,1,.693,2.1c0,.055,0,.137,0,.247h-4.07a2.094,2.094,0,0,0,.509,1.377,1.513,1.513,0,0,0,1.141.478,1.416,1.416,0,0,0,.869-.267A1.775,1.775,0,0,0,260.195,105.083Zm-3.037-1.5h3.047a1.847,1.847,0,0,0-.35-1.033,1.417,1.417,0,0,0-1.146-.535,1.47,1.47,0,0,0-1.071.427A1.687,1.687,0,0,0,257.158,103.587Z" transform="translate(-9.125 -9.741)"/><path class="cls-2" d="M225.664,137.811v-7.533h5.447v.889h-4.45v2.308h4.167v.884h-4.167v2.564h4.625v.889Z" transform="translate(-9.125 -9.741)"/><path class="cls-2" d="M236.106,137.137a3.434,3.434,0,0,1-.989.617,2.853,2.853,0,0,1-1.02.18,1.983,1.983,0,0,1-1.382-.439,1.45,1.45,0,0,1-.483-1.123,1.492,1.492,0,0,1,.182-.732,1.513,1.513,0,0,1,.478-.532,2.262,2.262,0,0,1,.666-.3,6.707,6.707,0,0,1,.822-.139,8.469,8.469,0,0,0,1.649-.318c0-.127.005-.208.005-.242a1.021,1.021,0,0,0-.262-.8,1.549,1.549,0,0,0-1.054-.313,1.635,1.635,0,0,0-.963.229,1.4,1.4,0,0,0-.46.81l-.9-.124a2.234,2.234,0,0,1,.406-.937,1.778,1.778,0,0,1,.817-.55,3.632,3.632,0,0,1,1.238-.193,3.274,3.274,0,0,1,1.136.165,1.493,1.493,0,0,1,.642.414,1.457,1.457,0,0,1,.288.629,5.229,5.229,0,0,1,.046.853v1.233a13.155,13.155,0,0,0,.059,1.631,2.068,2.068,0,0,0,.234.655h-.966A1.953,1.953,0,0,1,236.106,137.137Zm-.077-2.065a6.8,6.8,0,0,1-1.511.349,3.514,3.514,0,0,0-.807.185.809.809,0,0,0-.365.3.818.818,0,0,0,.152,1.056,1.207,1.207,0,0,0,.82.247,1.907,1.907,0,0,0,.95-.234,1.44,1.44,0,0,0,.612-.64,2.24,2.24,0,0,0,.149-.925Z" transform="translate(-9.125 -9.741)"/><path class="cls-2" d="M241.959,135.812l.91.118a2.361,2.361,0,0,1-.763,1.472,2.224,2.224,0,0,1-1.508.532,2.343,2.343,0,0,1-1.8-.732,2.973,2.973,0,0,1-.681-2.1,3.8,3.8,0,0,1,.293-1.547,2.04,2.04,0,0,1,.892-.994,2.642,2.642,0,0,1,1.3-.332,2.265,2.265,0,0,1,1.454.45,2.062,2.062,0,0,1,.725,1.277l-.9.139a1.493,1.493,0,0,0-.455-.827,1.177,1.177,0,0,0-.789-.278,1.435,1.435,0,0,0-1.136.5,2.379,2.379,0,0,0-.437,1.585,2.456,2.456,0,0,0,.421,1.6,1.37,1.37,0,0,0,1.1.5,1.3,1.3,0,0,0,.91-.334A1.658,1.658,0,0,0,241.959,135.812Z" transform="translate(-9.125 -9.741)"/><path class="cls-2" d="M243.66,137.811v-7.533h.925v2.7a2.067,2.067,0,0,1,1.634-.75,2.2,2.2,0,0,1,1.053.239,1.4,1.4,0,0,1,.64.661,3.043,3.043,0,0,1,.193,1.223v3.458h-.925v-3.458a1.431,1.431,0,0,0-.3-1.01,1.118,1.118,0,0,0-.851-.316,1.5,1.5,0,0,0-.773.213,1.2,1.2,0,0,0-.516.578,2.65,2.65,0,0,0-.154,1.007v2.985Z" transform="translate(-9.125 -9.741)"/><path class="cls-2" d="M252.067,136.182l.915-.144a1.279,1.279,0,0,0,.429.843,1.5,1.5,0,0,0,.984.293,1.448,1.448,0,0,0,.946-.259.776.776,0,0,0,.308-.609.563.563,0,0,0-.272-.493,4.041,4.041,0,0,0-.946-.313,8.655,8.655,0,0,1-1.411-.444,1.345,1.345,0,0,1-.8-1.251,1.407,1.407,0,0,1,.167-.676,1.5,1.5,0,0,1,.455-.516,1.9,1.9,0,0,1,.588-.27,2.8,2.8,0,0,1,.8-.11,3.154,3.154,0,0,1,1.128.185,1.531,1.531,0,0,1,.717.5,1.96,1.96,0,0,1,.318.845l-.9.124a.988.988,0,0,0-.357-.658,1.307,1.307,0,0,0-.835-.237,1.509,1.509,0,0,0-.909.211.613.613,0,0,0-.272.493.51.51,0,0,0,.113.324.815.815,0,0,0,.355.247q.138.052.817.237a11.335,11.335,0,0,1,1.37.429,1.392,1.392,0,0,1,.609.486,1.357,1.357,0,0,1,.221.791,1.553,1.553,0,0,1-.27.871,1.744,1.744,0,0,1-.779.632,2.834,2.834,0,0,1-1.151.224,2.565,2.565,0,0,1-1.621-.442A2.053,2.053,0,0,1,252.067,136.182Z" transform="translate(-9.125 -9.741)"/><path class="cls-2" d="M257.7,139.9v-7.549h.843v.709a2.074,2.074,0,0,1,.673-.625,1.85,1.85,0,0,1,.91-.208,2.158,2.158,0,0,1,1.233.36,2.21,2.21,0,0,1,.807,1.015,3.705,3.705,0,0,1,.272,1.437,3.642,3.642,0,0,1-.3,1.508,2.286,2.286,0,0,1-2.079,1.385,1.743,1.743,0,0,1-.83-.2,1.893,1.893,0,0,1-.6-.494V139.9Zm.837-4.789a2.373,2.373,0,0,0,.427,1.557,1.308,1.308,0,0,0,1.033.5,1.338,1.338,0,0,0,1.056-.521,2.475,2.475,0,0,0,.439-1.616,2.413,2.413,0,0,0-.429-1.562,1.292,1.292,0,0,0-1.025-.519,1.331,1.331,0,0,0-1.045.552A2.472,2.472,0,0,0,258.537,135.113Z" transform="translate(-9.125 -9.741)"/><path class="cls-2" d="M263.208,135.082a2.812,2.812,0,0,1,.843-2.246,2.538,2.538,0,0,1,1.716-.606,2.448,2.448,0,0,1,1.839.737,2.806,2.806,0,0,1,.714,2.038,3.613,3.613,0,0,1-.316,1.657,2.241,2.241,0,0,1-.92.938,2.677,2.677,0,0,1-1.318.334,2.453,2.453,0,0,1-1.853-.735A2.935,2.935,0,0,1,263.208,135.082Zm.951,0a2.326,2.326,0,0,0,.457,1.57,1.523,1.523,0,0,0,2.3,0,2.379,2.379,0,0,0,.458-1.6,2.255,2.255,0,0,0-.46-1.534,1.525,1.525,0,0,0-2.294,0A2.315,2.315,0,0,0,264.159,135.082Z" transform="translate(-9.125 -9.741)"/><path class="cls-2" d="M272.981,137.811v-.8a2,2,0,0,1-1.731.925,2.211,2.211,0,0,1-.9-.185,1.488,1.488,0,0,1-.622-.465,1.746,1.746,0,0,1-.285-.686,4.709,4.709,0,0,1-.056-.863v-3.381h.925v3.027a5.357,5.357,0,0,0,.057.977.965.965,0,0,0,.37.573,1.147,1.147,0,0,0,.7.208,1.522,1.522,0,0,0,.781-.213,1.186,1.186,0,0,0,.517-.581,2.91,2.91,0,0,0,.152-1.066v-2.924h.925v5.458Z" transform="translate(-9.125 -9.741)"/><path class="cls-2" d="M274.888,136.182l.915-.144a1.279,1.279,0,0,0,.429.843,1.5,1.5,0,0,0,.984.293,1.448,1.448,0,0,0,.946-.259.776.776,0,0,0,.308-.609.563.563,0,0,0-.272-.493,4.041,4.041,0,0,0-.946-.313,8.655,8.655,0,0,1-1.411-.444,1.345,1.345,0,0,1-.8-1.251,1.407,1.407,0,0,1,.167-.676,1.5,1.5,0,0,1,.455-.516,1.9,1.9,0,0,1,.588-.27,2.8,2.8,0,0,1,.8-.11,3.154,3.154,0,0,1,1.128.185,1.531,1.531,0,0,1,.717.5,1.96,1.96,0,0,1,.318.845l-.9.124a.988.988,0,0,0-.357-.658,1.307,1.307,0,0,0-.835-.237,1.509,1.509,0,0,0-.909.211.613.613,0,0,0-.272.493.51.51,0,0,0,.113.324.815.815,0,0,0,.355.247q.138.052.817.237a11.335,11.335,0,0,1,1.37.429,1.392,1.392,0,0,1,.609.486,1.357,1.357,0,0,1,.221.791,1.553,1.553,0,0,1-.27.871,1.744,1.744,0,0,1-.779.632,2.834,2.834,0,0,1-1.151.224,2.565,2.565,0,0,1-1.621-.442A2.053,2.053,0,0,1,274.888,136.182Z" transform="translate(-9.125 -9.741)"/><path class="cls-2" d="M284.256,136.053l.956.118a2.332,2.332,0,0,1-.837,1.3,2.836,2.836,0,0,1-3.461-.275,2.88,2.88,0,0,1-.7-2.068,3.015,3.015,0,0,1,.709-2.138,2.4,2.4,0,0,1,1.839-.76,2.335,2.335,0,0,1,1.789.745,2.961,2.961,0,0,1,.693,2.1c0,.055,0,.137,0,.247h-4.07a2.094,2.094,0,0,0,.509,1.377,1.513,1.513,0,0,0,1.141.478,1.416,1.416,0,0,0,.869-.267A1.775,1.775,0,0,0,284.256,136.053Zm-3.037-1.5h3.047a1.847,1.847,0,0,0-.35-1.033,1.417,1.417,0,0,0-1.146-.535,1.47,1.47,0,0,0-1.071.427A1.687,1.687,0,0,0,281.219,134.558Z" transform="translate(-9.125 -9.741)"/><path class="cls-2" d="M223.434,147.711a2.812,2.812,0,0,1,.843-2.246,2.538,2.538,0,0,1,1.716-.606,2.448,2.448,0,0,1,1.839.737,2.806,2.806,0,0,1,.714,2.038,3.613,3.613,0,0,1-.316,1.657,2.241,2.241,0,0,1-.92.938,2.677,2.677,0,0,1-1.318.334,2.453,2.453,0,0,1-1.853-.735A2.935,2.935,0,0,1,223.434,147.711Zm.951,0a2.326,2.326,0,0,0,.457,1.57,1.523,1.523,0,0,0,2.3,0,2.379,2.379,0,0,0,.458-1.6,2.255,2.255,0,0,0-.46-1.534,1.525,1.525,0,0,0-2.294,0A2.315,2.315,0,0,0,224.385,147.711Z" transform="translate(-9.125 -9.741)"/><path class="cls-2" d="M230.638,150.439l-1.67-5.458h.956l.868,3.15.324,1.171q.021-.087.283-1.125l.869-3.2h.951l.817,3.166.272,1.043.313-1.054.935-3.155h.9l-1.706,5.458h-.961l-.869-3.268-.21-.93-1.1,4.2Z" transform="translate(-9.125 -9.741)"/><path class="cls-2" d="M237.231,150.439v-5.458h.833v.776a1.961,1.961,0,0,1,1.737-.9,2.279,2.279,0,0,1,.907.177,1.427,1.427,0,0,1,.619.465,1.79,1.79,0,0,1,.288.684,5.311,5.311,0,0,1,.051.9v3.355h-.925v-3.32a2.5,2.5,0,0,0-.108-.845.892.892,0,0,0-.383-.447,1.219,1.219,0,0,0-.645-.167,1.5,1.5,0,0,0-1.02.375,1.85,1.85,0,0,0-.429,1.423v2.98Z" transform="translate(-9.125 -9.741)"/><path class="cls-2" d="M242.714,148.811l.915-.144a1.279,1.279,0,0,0,.429.843,1.5,1.5,0,0,0,.984.293,1.448,1.448,0,0,0,.946-.259.776.776,0,0,0,.308-.609.563.563,0,0,0-.272-.493,4.041,4.041,0,0,0-.946-.313,8.655,8.655,0,0,1-1.411-.444,1.345,1.345,0,0,1-.8-1.251,1.407,1.407,0,0,1,.167-.676,1.5,1.5,0,0,1,.455-.516,1.9,1.9,0,0,1,.588-.27,2.8,2.8,0,0,1,.8-.11,3.154,3.154,0,0,1,1.128.185,1.531,1.531,0,0,1,.717.5,1.96,1.96,0,0,1,.318.845l-.9.124a.988.988,0,0,0-.357-.658,1.307,1.307,0,0,0-.835-.237,1.509,1.509,0,0,0-.909.211.613.613,0,0,0-.272.493.51.51,0,0,0,.113.324.815.815,0,0,0,.355.247q.138.052.817.237a11.335,11.335,0,0,1,1.37.429,1.392,1.392,0,0,1,.609.486,1.357,1.357,0,0,1,.221.791,1.553,1.553,0,0,1-.27.871,1.744,1.744,0,0,1-.779.632,2.834,2.834,0,0,1-1.151.224,2.565,2.565,0,0,1-1.621-.442A2.053,2.053,0,0,1,242.714,148.811Z" transform="translate(-9.125 -9.741)"/><path class="cls-2" d="M252.277,150.439l-1.67-5.458h.956l.868,3.15.324,1.171q.021-.087.283-1.125l.869-3.2h.951l.817,3.166.272,1.043.313-1.054.935-3.155h.9l-1.706,5.458h-.961l-.869-3.268-.21-.93-1.1,4.2Z" transform="translate(-9.125 -9.741)"/><path class="cls-2" d="M258.871,150.439v-7.533h.925v2.7a2.067,2.067,0,0,1,1.634-.75,2.2,2.2,0,0,1,1.053.239,1.4,1.4,0,0,1,.64.661,3.043,3.043,0,0,1,.193,1.223v3.458h-.925v-3.458a1.431,1.431,0,0,0-.3-1.01,1.118,1.118,0,0,0-.851-.316,1.5,1.5,0,0,0-.773.213,1.2,1.2,0,0,0-.516.578,2.65,2.65,0,0,0-.154,1.007v2.985Z" transform="translate(-9.125 -9.741)"/><path class="cls-2" d="M268.285,149.766a3.434,3.434,0,0,1-.989.617,2.853,2.853,0,0,1-1.02.18,1.983,1.983,0,0,1-1.382-.439A1.45,1.45,0,0,1,264.41,149a1.492,1.492,0,0,1,.182-.732,1.513,1.513,0,0,1,.478-.532,2.262,2.262,0,0,1,.666-.3,6.707,6.707,0,0,1,.822-.139,8.469,8.469,0,0,0,1.649-.318c0-.127.005-.208.005-.242a1.021,1.021,0,0,0-.262-.8,1.549,1.549,0,0,0-1.054-.313,1.635,1.635,0,0,0-.963.229,1.4,1.4,0,0,0-.46.81l-.9-.124a2.234,2.234,0,0,1,.406-.937,1.778,1.778,0,0,1,.817-.55,3.632,3.632,0,0,1,1.238-.193,3.274,3.274,0,0,1,1.136.165,1.493,1.493,0,0,1,.642.414,1.457,1.457,0,0,1,.288.629,5.229,5.229,0,0,1,.046.853v1.233a13.155,13.155,0,0,0,.059,1.631,2.068,2.068,0,0,0,.234.655h-.966A1.953,1.953,0,0,1,268.285,149.766Zm-.077-2.065a6.8,6.8,0,0,1-1.511.349,3.514,3.514,0,0,0-.807.185.809.809,0,0,0-.365.3.818.818,0,0,0,.152,1.056,1.207,1.207,0,0,0,.82.247,1.907,1.907,0,0,0,.95-.234,1.44,1.44,0,0,0,.612-.64,2.24,2.24,0,0,0,.149-.925Z" transform="translate(-9.125 -9.741)"/><path class="cls-2" d="M272.6,149.612l.133.817a3.436,3.436,0,0,1-.7.082,1.585,1.585,0,0,1-.781-.159.89.89,0,0,1-.39-.419,3.3,3.3,0,0,1-.113-1.092V145.7h-.678v-.72h.678v-1.351l.92-.555v1.906h.93v.72h-.93v3.191a1.6,1.6,0,0,0,.049.509.381.381,0,0,0,.159.18.612.612,0,0,0,.316.067A3.01,3.01,0,0,0,272.6,149.612Z" transform="translate(-9.125 -9.741)"/><path class="cls-2" d="M275.016,150.439l-2.076-5.458h.976l1.172,3.269q.19.529.349,1.1.124-.431.344-1.038l1.213-3.33h.951l-2.066,5.458Z" transform="translate(-9.125 -9.741)"/><path class="cls-2" d="M282.5,148.682l.956.118a2.332,2.332,0,0,1-.837,1.3,2.836,2.836,0,0,1-3.461-.275,2.88,2.88,0,0,1-.7-2.068,3.015,3.015,0,0,1,.709-2.138,2.4,2.4,0,0,1,1.839-.76,2.335,2.335,0,0,1,1.789.745,2.961,2.961,0,0,1,.693,2.1c0,.055,0,.137,0,.247h-4.07a2.094,2.094,0,0,0,.509,1.377,1.513,1.513,0,0,0,1.141.478,1.416,1.416,0,0,0,.869-.267A1.775,1.775,0,0,0,282.5,148.682Zm-3.037-1.5h3.047a1.847,1.847,0,0,0-.35-1.033,1.417,1.417,0,0,0-1.146-.535,1.47,1.47,0,0,0-1.071.427A1.687,1.687,0,0,0,279.461,147.187Z" transform="translate(-9.125 -9.741)"/><path class="cls-2" d="M284.605,150.439v-5.458h.833v.828a2.25,2.25,0,0,1,.588-.766,1.024,1.024,0,0,1,.593-.185,1.8,1.8,0,0,1,.951.3l-.318.858a1.323,1.323,0,0,0-.679-.2.881.881,0,0,0-.544.183.987.987,0,0,0-.344.506,3.593,3.593,0,0,0-.154,1.079v2.857Z" transform="translate(-9.125 -9.741)"/><path class="cls-2" d="M224.063,163.068v-7.533h.925v2.7a2.067,2.067,0,0,1,1.634-.75,2.2,2.2,0,0,1,1.053.239,1.4,1.4,0,0,1,.64.661,3.043,3.043,0,0,1,.193,1.223v3.458h-.925V159.61a1.431,1.431,0,0,0-.3-1.01,1.118,1.118,0,0,0-.851-.316,1.5,1.5,0,0,0-.773.213,1.2,1.2,0,0,0-.516.578,2.65,2.65,0,0,0-.154,1.007v2.985Z" transform="translate(-9.125 -9.741)"/><path class="cls-2" d="M233.652,161.311l.956.118a2.332,2.332,0,0,1-.837,1.3,2.836,2.836,0,0,1-3.461-.275,2.88,2.88,0,0,1-.7-2.068,3.015,3.015,0,0,1,.709-2.138,2.4,2.4,0,0,1,1.839-.76,2.335,2.335,0,0,1,1.789.745,2.961,2.961,0,0,1,.693,2.1c0,.055,0,.137,0,.247h-4.07a2.094,2.094,0,0,0,.509,1.377,1.513,1.513,0,0,0,1.141.478,1.416,1.416,0,0,0,.869-.267A1.775,1.775,0,0,0,233.652,161.311Zm-3.037-1.5h3.047a1.847,1.847,0,0,0-.35-1.033,1.417,1.417,0,0,0-1.146-.535,1.47,1.47,0,0,0-1.071.427A1.687,1.687,0,0,0,230.615,159.815Z" transform="translate(-9.125 -9.741)"/><path class="cls-2" d="M235.076,163.2l2.184-7.79H238l-2.179,7.79Z" transform="translate(-9.125 -9.741)"/><path class="cls-2" d="M238.323,161.439l.915-.144a1.279,1.279,0,0,0,.429.843,1.5,1.5,0,0,0,.984.293,1.448,1.448,0,0,0,.946-.259.776.776,0,0,0,.308-.609.563.563,0,0,0-.272-.493,4.041,4.041,0,0,0-.946-.313,8.655,8.655,0,0,1-1.411-.444,1.345,1.345,0,0,1-.8-1.251,1.407,1.407,0,0,1,.167-.676,1.5,1.5,0,0,1,.455-.516,1.9,1.9,0,0,1,.588-.27,2.8,2.8,0,0,1,.8-.11,3.154,3.154,0,0,1,1.128.185,1.531,1.531,0,0,1,.717.5,1.96,1.96,0,0,1,.318.845l-.9.124a.988.988,0,0,0-.357-.658,1.307,1.307,0,0,0-.835-.237,1.509,1.509,0,0,0-.909.211.613.613,0,0,0-.272.493.51.51,0,0,0,.113.324.815.815,0,0,0,.355.247q.138.052.817.237a11.335,11.335,0,0,1,1.37.429,1.392,1.392,0,0,1,.609.486,1.357,1.357,0,0,1,.221.791,1.553,1.553,0,0,1-.27.871,1.744,1.744,0,0,1-.779.632,2.834,2.834,0,0,1-1.151.224,2.565,2.565,0,0,1-1.621-.442A2.053,2.053,0,0,1,238.323,161.439Z" transform="translate(-9.125 -9.741)"/><path class="cls-2" d="M243.956,163.068v-7.533h.925v2.7a2.067,2.067,0,0,1,1.634-.75,2.2,2.2,0,0,1,1.053.239,1.4,1.4,0,0,1,.64.661,3.043,3.043,0,0,1,.193,1.223v3.458h-.925V159.61a1.431,1.431,0,0,0-.3-1.01,1.118,1.118,0,0,0-.851-.316,1.5,1.5,0,0,0-.773.213,1.2,1.2,0,0,0-.516.578,2.65,2.65,0,0,0-.154,1.007v2.985Z" transform="translate(-9.125 -9.741)"/><path class="cls-2" d="M253.544,161.311l.956.118a2.332,2.332,0,0,1-.837,1.3,2.836,2.836,0,0,1-3.461-.275,2.88,2.88,0,0,1-.7-2.068,3.015,3.015,0,0,1,.709-2.138,2.4,2.4,0,0,1,1.839-.76,2.335,2.335,0,0,1,1.789.745,2.961,2.961,0,0,1,.693,2.1c0,.055,0,.137,0,.247h-4.07a2.094,2.094,0,0,0,.509,1.377,1.513,1.513,0,0,0,1.141.478,1.416,1.416,0,0,0,.869-.267A1.775,1.775,0,0,0,253.544,161.311Zm-3.037-1.5h3.047a1.847,1.847,0,0,0-.35-1.033,1.417,1.417,0,0,0-1.146-.535,1.47,1.47,0,0,0-1.071.427A1.687,1.687,0,0,0,250.507,159.815Z" transform="translate(-9.125 -9.741)"/><path class="cls-2" d="M262.321,161.311l.956.118a2.332,2.332,0,0,1-.837,1.3,2.836,2.836,0,0,1-3.461-.275,2.88,2.88,0,0,1-.7-2.068,3.015,3.015,0,0,1,.709-2.138,2.4,2.4,0,0,1,1.839-.76,2.335,2.335,0,0,1,1.789.745,2.961,2.961,0,0,1,.693,2.1c0,.055,0,.137,0,.247h-4.07a2.094,2.094,0,0,0,.509,1.377,1.513,1.513,0,0,0,1.141.478,1.416,1.416,0,0,0,.869-.267A1.775,1.775,0,0,0,262.321,161.311Zm-3.037-1.5h3.047a1.847,1.847,0,0,0-.35-1.033,1.417,1.417,0,0,0-1.146-.535,1.47,1.47,0,0,0-1.071.427A1.687,1.687,0,0,0,259.284,159.815Z" transform="translate(-9.125 -9.741)"/><path class="cls-2" d="M268,162.4a3.434,3.434,0,0,1-.989.617,2.853,2.853,0,0,1-1.02.18,1.983,1.983,0,0,1-1.382-.439,1.45,1.45,0,0,1-.483-1.123,1.492,1.492,0,0,1,.182-.732,1.513,1.513,0,0,1,.478-.532,2.262,2.262,0,0,1,.666-.3,6.707,6.707,0,0,1,.822-.139,8.469,8.469,0,0,0,1.649-.318c0-.127.005-.208.005-.242a1.021,1.021,0,0,0-.262-.8,1.549,1.549,0,0,0-1.054-.313,1.635,1.635,0,0,0-.963.229,1.4,1.4,0,0,0-.46.81l-.9-.124a2.234,2.234,0,0,1,.406-.937,1.778,1.778,0,0,1,.817-.55,3.632,3.632,0,0,1,1.238-.193,3.274,3.274,0,0,1,1.136.165,1.493,1.493,0,0,1,.642.414,1.457,1.457,0,0,1,.288.629,5.229,5.229,0,0,1,.046.853v1.233a13.155,13.155,0,0,0,.059,1.631,2.068,2.068,0,0,0,.234.655h-.966A1.953,1.953,0,0,1,268,162.4Zm-.077-2.065a6.8,6.8,0,0,1-1.511.349,3.514,3.514,0,0,0-.807.185.809.809,0,0,0-.365.3.818.818,0,0,0,.152,1.056,1.207,1.207,0,0,0,.82.247,1.907,1.907,0,0,0,.95-.234,1.44,1.44,0,0,0,.612-.64,2.24,2.24,0,0,0,.149-.925Z" transform="translate(-9.125 -9.741)"/><path class="cls-2" d="M270.281,163.068v-5.458h.833v.828a2.25,2.25,0,0,1,.588-.766,1.024,1.024,0,0,1,.593-.185,1.8,1.8,0,0,1,.951.3l-.318.858a1.323,1.323,0,0,0-.679-.2.881.881,0,0,0-.544.183.987.987,0,0,0-.344.506,3.593,3.593,0,0,0-.154,1.079v2.857Z" transform="translate(-9.125 -9.741)"/><path class="cls-2" d="M273.8,163.068v-5.458h.833v.776a1.961,1.961,0,0,1,1.737-.9,2.279,2.279,0,0,1,.907.177,1.427,1.427,0,0,1,.619.465,1.79,1.79,0,0,1,.288.684,5.311,5.311,0,0,1,.051.9v3.355h-.925v-3.32a2.5,2.5,0,0,0-.108-.845.892.892,0,0,0-.383-.447,1.219,1.219,0,0,0-.645-.167,1.5,1.5,0,0,0-1.02.375,1.85,1.85,0,0,0-.429,1.423v2.98Z" transform="translate(-9.125 -9.741)"/><path class="cls-2" d="M279.279,161.439l.915-.144a1.279,1.279,0,0,0,.429.843,1.5,1.5,0,0,0,.984.293,1.448,1.448,0,0,0,.946-.259.776.776,0,0,0,.308-.609.563.563,0,0,0-.272-.493,4.041,4.041,0,0,0-.946-.313,8.655,8.655,0,0,1-1.411-.444,1.345,1.345,0,0,1-.8-1.251,1.407,1.407,0,0,1,.167-.676,1.5,1.5,0,0,1,.455-.516,1.9,1.9,0,0,1,.588-.27,2.8,2.8,0,0,1,.8-.11,3.154,3.154,0,0,1,1.128.185,1.531,1.531,0,0,1,.717.5,1.96,1.96,0,0,1,.318.845l-.9.124a.988.988,0,0,0-.357-.658,1.307,1.307,0,0,0-.835-.237,1.509,1.509,0,0,0-.909.211.613.613,0,0,0-.272.493.51.51,0,0,0,.113.324.815.815,0,0,0,.355.247q.138.052.817.237a11.335,11.335,0,0,1,1.37.429,1.392,1.392,0,0,1,.609.486,1.357,1.357,0,0,1,.221.791,1.553,1.553,0,0,1-.27.871,1.744,1.744,0,0,1-.779.632,2.834,2.834,0,0,1-1.151.224,2.565,2.565,0,0,1-1.621-.442A2.053,2.053,0,0,1,279.279,161.439Z" transform="translate(-9.125 -9.741)"/><path class="cls-2" d="M285.173,163.068v-1.053h1.054v1.053Z" transform="translate(-9.125 -9.741)"/></svg>