<svg id="Layer_1" data-name="Layer 1" xmlns="http://www.w3.org/2000/svg" xmlns:xlink="http://www.w3.org/1999/xlink" viewBox="0 0 400.901 300.772"><defs><style>.cls-1{fill:none;}.cls-2{fill:#f3efea;}.cls-3{fill:#b8cdde;}.cls-4,.cls-6{fill:#394cff;}.cls-5,.cls-6{stroke:#231f20;stroke-width:0.5px;}.cls-5{fill:url(#New_Pattern_Swatch_1);}</style><pattern id="New_Pattern_Swatch_1" data-name="New Pattern Swatch 1" width="52.35" height="49.225" patternTransform="translate(31.717 53.827) scale(0.508)" patternUnits="userSpaceOnUse" viewBox="0 0 52.35 49.225"><rect class="cls-1" width="52.35" height="49.225"/><rect class="cls-2" width="52.35" height="49.225"/></pattern></defs><title>Types_of_Jointly_Owned_Property</title><rect class="cls-3" width="400.901" height="300.772"/><rect class="cls-4" x="36.74" y="37.83" width="45.67" height="11.199"/><path id="HI" class="cls-5" d="M106.939,256.868l2.549,1.068.872-.134.671-1.6-.268-1.4-1.744-.2-1.677.734Zm12.745,4.14,1.543,2.27,1.006-.134.47-.2.6.534,1.543-.067.4-.6-1.208-.735-.8-1.536-.872-1.469-2.415,1.2Zm8.385,3.673.537-.8,1.945.4.269-.2,2.549.267-.134.535-1.073.6-1.811-.134Zm2.214,2.137.8,1.6,1.274-.467.134-.668-.671-.868-1.542-.134Zm2.884-.468.939-1.2,1.945,1,1.811.467,1.811,1.136v.8l-1.476.735-2.013.4-1.006-.6Zm6.909,6.41.671-.534,1.409.668,3.153,1.469,1.409.868.671,1,.805,1.8,1.677,1.069-.134.534-1.609,1.336-1.744.6-.6-.267-1.274.735-1.006,1.335-.939,1.2-.738-.067-1.476-1.068-.134-1.87.268-1-.67-2.337-.872-.735-.067-1.068.939-.4.872-1.269.2-.4-.671-.734Z"/><path id="AK" class="cls-5" d="M71.589,231.295l-.134,35.255.671.4,1.274.067.6-.468h1.073l.067,1.2,2.885,2.8.2,1.068,1.409-.8.268-.067.134-1.269.6-.668.47-.066.805-.6,1.274.868.269,1.2.8.467.47,1,1.61.734,1.409,2.471,1.14,1.6.939,1.135.6,1.536,2.08.734,2.146.868.4,1.8.2,1.269-.4,1.4-.738.935-.671-.334-.6-1.268-1.14-.6-.738-.468-.335.334.6,1.135.067,1.536-.469.2-.8-.8-.872-.534.2.668.537.735-.335.334a1.417,1.417,0,0,1-.537-.4c-.2-.267-.872-1.4-.872-1.4l-.4-.935s-.134.534-.4.4a1.834,1.834,0,0,1-.537-.6l.738-.8-.6-.6v-2.07h-.336l-.335,1.4-.47.2-.4-1.536-.268-1.536-.335-.2.134,2.337v.468l-.6-.534-1.476-2.471-.872-.2-.269-1.536-.671-1.2-.671-.468V274.5l.872-.534-.2-.133-1.073.267-1.408-1-1.073-1.2-2.012-1.068L73.8,269.755l.536-1.336v-.667l-.738.667-1.207.468-1.543-.468-2.348-1H66.223l-.268.2-2.683-1.6-.872-.134-1.14-2.4-1.476.134-1.476.6.2,1.87.47-1.2.4.134-.6,1.8,1.342-1.135.268.668-1.61,1.8-.537-.134-.2-.8-.536-.334-.537.467-1.14-.735-1.274.868-.738.868-1.408.868-1.945-.067-.2-.868,1.543-.267v-.535l-.939-.267.4-1,.939-1.6v-.735l.067-.334,1.811-.935.4.534h1.14l-.537-1.068-1.543-.134-2.08,1.135-1.006,1.4-.738,1.069-.469.935-1.744.6-1.275,1.069-.134.667.939.4.335.868-1.14,1.335-2.683,1.737-3.22,1.736-.872.467-2.214.468-2.214.935.738.534-.6.6-.2.468-1.14-.4-1.342.067-.335.935h-.4l.134-1L30.4,278.5l-1.207.4-1.409-.534-1.207.8H25.239l-.872.534-.671.334-.872-.134-1.073-.468-.939.267-.4.4-.671-.468v-.8l1.274-.534,2.616.267,1.812-.668.872-.868,1.207-.267.738-.334,1.14.067.671.534.4-.134.939-1.135,1.274-.4,1.409-.267.536-.134.268.2h.336l.537-1.536,1.677-.6.8-1.536.939-1.869.671-.6L40,267.953l-.671.534-1.409.267-.268-1-.537-.134-.4.4-.067,1.2-.6-.067-.6-2.4-.537.534-.469-.2-.134-.8-1.677.067-.872.468-1.073-.134.6-.6.2-1.068-.268-.8.6-.4.537-.067-.268-.734v-1.8l-.4-.4-.335.6H28.794l-.6-.534-.268-1.6L27.05,257.8v-.4l.872-.334.067-.868.469-.468-.335-.2-.537.2-.469-1.135.4-2.07,1.878-1.335,1.073-.668.8-1.535,1.14-.535,1.073.468.135,1,1.006-.134,1.341-1,.671.267.4.267h.671l.939-.534.335-1.8s.134-1.2.4-1.4a1.858,1.858,0,0,0,.4-.4l-.47-.8-1.073.334-1.341.334-.805-.2-1.476-.735-2.079-.067-1.476-1.536.2-1.6.268-1-.872-.735-.8-1.535.2-.334,2.817-.2h.872l.4.4h.268l-.067-.668,1.609-.267,1.074.134.6.468-.6.868-.2.6,1.14.668,2.079.735.738-.4-.939-1.8-.4-1.336.4-.334-1.409-.8-.2-.468.2-.668-.335-1.6-1.207-1.937L35.9,228.958l1.208-.8h1.341l.738.267,1.744-.067,1.543-1.468.469-1.269,1.543-1,.671.4,1.14-.267,1.543-.868.469-.067.4.334,1.878-.067,1.14-1.269H52.2l1.476,1,.805.868-.2.467.268.468.671-.668,1.61.134.134,1.536.805.6,2.951.267,2.616,1.736.6-.4,2.146,1.069.872-.267.8-.334,2.012.8ZM8.47,281.44l1.408-.935,1.409-.4,1.074.134.2.668.8.2.8-.8-.134-.668,1.14-.267,1.207,1.068-.469.735-1.811.468-1.14-.2-1.543-.468-1.811.6-.671.134Zm52.522-14.756,1.006-.6-.4-.734-.738.4Z"/><path id="FL" class="cls-5" d="M321.267,205.469l.94,3.023,1.548,4.024,2.214,3.873,1.543,2.6,2.012,2.27c.628.7,1.683,1.295,1.977,2.244.168.544-.08.872-.177,1.375a2.679,2.679,0,0,0,.3,1.606l.649,1.653,1.208,1.2,1.073,2.2,1.476,2.4,1.878,3.406.537,3.138c.031.754.055,1.509.087,2.263.023.542.021,1.091.057,1.631a18.323,18.323,0,0,1,.192,3.179c-.012.126-.861.461-1,.531a8.033,8.033,0,0,1-.136,1.641,5.474,5.474,0,0,0,.13.972l.2.8-1.14,1.335-1.275.6-1.61.067-.6.668-1.006.4-.537-.2-.47-.4s-.129-1.159-.134-1.2a8.567,8.567,0,0,0-1.744-3.539,2.743,2.743,0,0,0-1.567-.87c-.191-.052-1.43-.34-1.518-.2l-.336.534c.11-.189-.82-1.242-.933-1.41a4.428,4.428,0,0,1-.609-1.852,3.162,3.162,0,0,0-1.368-1.841c-.821-.436-.551.394-1.231.527-.4.078-.748-.308-.931-.648-.253-.468-.289-1.034-.553-1.5-.466-.82-1.142-1.486-1.6-2.321a9.9,9.9,0,0,0-.825-1.506l-1.074-1.269c-.451-.533-.988-1.028-1.476-1.536a7.917,7.917,0,0,0,.872-1c.593-1,1.4-1.7,1.275-2.938-.041-.412-2.208-.3-2.548-.133.044.09.09.179.134.269.132.242.805.317,1.05.387-.023.213-.788,2.308-.914,2.073a13.349,13.349,0,0,1-.877-2.57,7.117,7.117,0,0,1-.536-2.185,9.651,9.651,0,0,1,.605-1.981v-3.939a9.2,9.2,0,0,1-1.108-1.581,2.874,2.874,0,0,0-1.938-1.534,3.835,3.835,0,0,1-2.387-1.558c-.353-.562-1.25-.392-1.579-1.183-.342-.822-.418-.778-1.143-1.2a1.984,1.984,0,0,1-.712-.724c-.654-1-1.258-1.1-2.334-1.5a7.228,7.228,0,0,0-1.859-.583,7.8,7.8,0,0,0-2.1.316c-.311.062.155,1,.164,1.083a.793.793,0,0,1-.1.587c-.494-.014-.984-.221-1.452.022-.338.176-.544.618-.829.868a10.71,10.71,0,0,1-2.011,1.313H293.5c-.5,0-.909.4-1.353.489-.045-.361-.08-.727-.123-1.09-.022-.19-.532-.693-.694-.811a19.7,19.7,0,0,0-3.188-1.7,11.284,11.284,0,0,0-2.021-.965l-3.152-.735-1.811.267-2.482.2-2.482.868-1.443.253-.1-3.325-1.073-.8-.738-.735.134-1.269,4.226-.534,10.6-1.2,2.817-.267,2.255.116,1.074,1.6.6.6,3.36.212,4.49-.267,8.926-.534,2.26-.278,2.119.084.177,1.2.927.334.1-1.912-.634-1.723.543-.595,2.3.188Z"/><path id="NH" class="cls-5" d="M371.465,82.915l.361-.445.452-1.359-1.055-.377-.2-1.269L369.412,79l-.134-1.135-3.018-9.682-1.91-6.007-.372,0-.269.668-.269-.2-.4-.4-.6.8-.02,2.078.13,2.341.8,1.135v1.669l-1.542,2.091-1.074.467v.468l.47.734v3.539l-.336,3.806-.067,2,.4.535-.066,1.87-.2.734.4.293,6.966-1.828.9-.249.765-1.145Z"/><g id="MI"><path id="MI-" class="cls-5" d="M295.559,97.293a14.09,14.09,0,0,0-.983-2.8c-.342-1.007-.671-2.022-.956-3.047a5.825,5.825,0,0,0-1.156-2.247,2.373,2.373,0,0,0-2.815-.408c-.838.435-1.036,1.351-1.388,2.145a10.506,10.506,0,0,1-1.288,1.948l-.47.267-.6-.267s-1.071-.6-1.006-.867c.153-.637.1-1.485.574-2.039.374-.439.894-.425,1.131-.975a6.307,6.307,0,0,0,.241-.993,4.2,4.2,0,0,1,.213-.867c.188-.355.464-.386.741-.658.974-.956.457-4.261-.381-5.141-.119-.123-1.294-1.007-.978-1.345.232-.249.794-.21.923-.543.2-.515-.658-.874-.853-1.262-.155-.309-.287-.811-.585-1-.418-.268-1.193-.131-1.7-.281a5.43,5.43,0,0,1-1.2-.385l-2.28-1.4a1.535,1.535,0,0,0-1.408.265c-.083.125-.881-.552-1.014-.615-.819-.387-3.2-.177-3.078,1.151.109,1.18.19,1.523,1.4,1.8.066.015.171.281.2.337-.13-.284-2.4.694-2.584,1.009-.684,1.195.036,2.344-.051,3.563-.038.52-.866,1.446-1.447,1.3l-.268-.067c0-.443-.027-.894,0-1.336a13.718,13.718,0,0,1,.8-2.4c.146-.547-1.006.045-1.146.265-.192.3-.034,1.32-.4,1.469l-1.14.467-.738.8-.067.4.269.334c.091.114-.118.727-.2.84-.236.34-.806.217-.993.534s.213,1.053.317,1.364l-.47,2.537c-.262,1.414-.829,2.614-.2,4.073l-.336,1-.134.334-.134,1.135c-.037.314.76,1.3.944,1.632.348.628.681,1.264.987,1.913a10.446,10.446,0,0,1,.909,6.193,14.6,14.6,0,0,1-.911,3.077,14.268,14.268,0,0,1-.639,2,6.414,6.414,0,0,1-1.234,1.285l1.83-.067,8.887-.935,3.02-.408.039.688,2.843-.5,4.273-.621,1.6-.19.057-.243.067-.6c.212-.373.4-.782.644-1.134.308-.446.8-.815.956-1.35.134-.462-.321-1.521.009-1.854.257-.259.876-.544,1.056-.8.3-.44-.082-1.006.152-1.468.134-.263.423-1.218.774-1.2.295.016.293.441.659.486C296.283,101.766,295.629,98.038,295.559,97.293Z"/><path id="SP-" class="cls-5" d="M241.467,70.023l.3-.24c.493-.4,1.505-.55,2.1-.945.371-.245.49-.71.856-.948a4.044,4.044,0,0,1,1.506-.3A4.835,4.835,0,0,0,248,66.723c.5-.315,1.1-.43,1.58-.759.541-.372.6-.913.911-1.451.339-.595.824-.71,1.292-1.15.324-.305.587-.667.9-.987a4.823,4.823,0,0,1,2.487-1.357c.287-.068,2.15-.331,2.089.285-.079.789-1.117.534-1.617.879-.484.334-.615,1.012-1.1,1.317-.732.463-.408.427-.7,1.2-.15.4-.5.625-.729.974a2.852,2.852,0,0,0-.416,1.441c-.059.474.705-.23.738-.268l1.471-1.2a1.8,1.8,0,0,0,1.322.641,2.58,2.58,0,0,1,1.5.29l.6.468.6,1.268,1.14,1.135c.351.35,1.9-.255,2.215-.467.2.156,1.013.938,1.34.734.472-.293,1.012-.333,1.467-.609.612-.372,1.246-1.381,1.887-1.594l1.408-.467,2.75-.134,1.878-.8a2.894,2.894,0,0,1,1.664-.477s-.2,2.278.55,2.574c1.242.492,2.991-.306,4.223-.628.535-.14.347-.545,1.064-.281.1.036-.009,2.043.028,2.271a2.414,2.414,0,0,0,1.324,1.882l.537.267a2.317,2.317,0,0,1,.5.4c-.028-.027-1.144-.037-1.337-.065-.347-.049-.7-.09-1.044-.135l-.872.267-.939-.067-1.342.6h-.738l-2.415-.534a2.555,2.555,0,0,0-2.951,1.135c-.184.243-2.212.106-2.578.167-1.185.2-1.38.617-1.782,1.7l-.537.468-.2-.067c-.55-.182-.385-.554-1-.449a6.075,6.075,0,0,0-1.484.783h-.268c-.452,0-.284-.767-.791-.537-.362.165-.655,1.37-.82,1.739l-.4,1.669-1.32,2.891-.488-.427-.569-.426-.806-4.249-1.47-.566-.852-.944-5.029-1.133-1.185-.425-3.415-.9-3.275-.472Z"/></g><path id="VT" class="cls-5" d="M356.4,87.72l.131-2.208-1.2-4.454-.268-.134-1.208-.534.336-1.2-.336-.868-1.12-1.916.4-1.6-.336-2.137-1.006-2.671-.334-2.033,10.962-2.78.128,2.281.8,1.132v1.669l-1.538,2.089-1.073.472,0,.463.544.628-.129,3.345-.253,3.824-.095,2.3.4.534-.067,1.888-.2.7.421.3-3.086.622Z"/><path id="ME" class="cls-5" d="M388.853,56.791a2.634,2.634,0,0,1,.861.725l.939,1.536v.8c0,1.676-2.123,2.387-3.085,3.472l-2.012,2.27h-.536c-.525,0-.361-.928-.992-.808-.279.053-.6.615-.848.781-.3.2-.881.286-.961.725-.063.347.458.573.479.922.02.332-.308.988-.349,1.379a1.632,1.632,0,0,1-.706-.084c-.2-.159-.149-.475-.221-.7-.164-.515-.39-1.064-1.024-1.074-.7-.012-.543.44-.632.933a5.326,5.326,0,0,0-.144,1.59,2.766,2.766,0,0,1-.25,1.6c-.412.685-1.254.437-1.553,1.22a4.711,4.711,0,0,1-.11.6,6.76,6.76,0,0,1-2.872,1.238,1.47,1.47,0,0,0-1.452.793c-.454.746.074,1.107-.1,1.806-.071.281-.34.331-.444.578a5.129,5.129,0,0,0-.091,1.594l-.467,2.585-1.021-.477-.2-1.269-1.61-.467-.134-1.135-3.018-9.682-1.95-6.047.589-.049.628.17V61.243l.543-1.857a15.746,15.746,0,0,0,1.314-2.34,2.331,2.331,0,0,0,.162-1.116c-.06-.376-.6-.858-.6-1.152a5.429,5.429,0,0,1,.456-3.037c.625-1.178-.354-2.39.081-3.574l.738-2c.362-1.1.6-2.24.98-3.337a5.375,5.375,0,0,1,.8-1.647c.123-.147,1.375-.813,1.375-.358v.468c0,.478,1.28,1.6,1.677,1.2.263-.261.2-.479.384-.732a7.312,7.312,0,0,1,1.627-1.2c.446-.32.641-.7,1.26-.674a6.212,6.212,0,0,1,1.569.529,3.056,3.056,0,0,1,2.178,2.062c.809,2.651,1.6,5.308,2.4,7.96a22.582,22.582,0,0,0,.837,2.754c.355.779,1.187.382,2.012.455.691.061.683.18.944.8,0,0,.066,1.984.066,2,.007.283.945.835,1.225.764s.175-.414.38-.507A1.451,1.451,0,0,1,388.853,56.791Z"/><path id="RI" class="cls-5" d="M368.674,97.978,367.14,91.8l2.6-.762.909.8,1.372,1.784,1.115,1.818c-.552.3-1.126.792-1.781.6.145.041-1.357,1.442-1.476,1.536Z"/><path id="NY" class="cls-5" d="M350.545,102.047l-.47-.4L349,101.579l-.939-.8-.677-2.531-1.435.037-1.014-1.119-8.044,1.81-17.842,3.606-3.125.507-.306-2.672.593-.465.536-.468.4-.668.738-.467.8-.733c.175-.16.292-.766.471-1.005.456-.609,1.178-.86.977-1.724a1.394,1.394,0,0,0-1.246-1.212,6.281,6.281,0,0,1-.623-1.766A1.3,1.3,0,0,1,319.3,90.4l1.811-.6,1.677-.534,1.341-.2L326.745,89c.19,0,.585.369.835.419a1.652,1.652,0,0,0,.854-.077,14.6,14.6,0,0,0,1.732-.743c.875-.381,1.851-.009,2.712-.643.793-.584.8-1.743,1.587-2.277a1.6,1.6,0,0,1,1-.152c.534,0,.87-.672.853-1.147-.017-.5-.488-.689-.585-1.123,0,0-.127-.567-.134-.6-.028-.124.292-.5.341-.635.384-1.035-.059-.587-.61-.835l-.736-.332c-1.769-.8,1.574-3.266,2.01-3.807l.268-.334.6-1.2,1.207-1.87,1.14-1.536.872-1,1-.754,1.277-.514a10.732,10.732,0,0,1,3.019-.464,11.917,11.917,0,0,0,2.483-.6l3.139-.855.215,2.057,1.007,2.671.335,2.136-.4,1.6,1.074,1.87.336.868-.336,1.2,1.207.535.269.134,1.274,4.54-.222,2.09-.2,4.474.336,2.27.336,1.469.6,3v3.339l-.47.935.763.823.331.693-.8.735.134.534.537-.134.6-.534.939-1.068.47-.267c1.8.716,3.284-.491,4.9-1.268.68-.332,2.334-3.011,3.212-1.112.3.642-.721,1.2-1.133,1.512l-1.61,1.2-2.951,2.2-1.073.4-2.415.8-1.677.468-.488-.22-.1-1.523.2-1.135-.067-.868-1.167-.7-1.878-.4-1.61-.467Z"/><path id="PA" class="cls-5" d="M348.365,116.894l.543-.112.966-.517.5-1.026.671-.935,1.341-1.269V112.7l-1.006-.668-1.476-1-.4-1.068-1.14-.133-.067-.468-.336-1.135.94-.468.067-1-.537-.534.067-.668.8-1.269V103.02l1.119-1.093-.382-.279-1.046-.08-.953-.8-.643-2.526-1.454.041-1.019-1.117L337.42,98.9l-17.842,3.606-3.69.6-.258-2.694-2.225,2.093-.537.2-1.743,1.243,1.208,7.9,1.029,4.019,1.482,7.956,1.357-.263,4.955-.621,15.737-3.166,6.173-1.166,3.443-.67.111-.1.872-.668Z"/><path id="NJ" class="cls-5" d="M350.255,101.929l-.963,1.129v1.269l-.805,1.269-.067.668.537.534-.067,1-.939.468.335,1.135.067.467,1.14.134.4,1.068,1.476,1,1.006.668v.334l-1.237,1.114-.671.935-.6,1.135-.939.534-.192.662-.1.5-.253,1.077.453.927,1.342,1.2,2.012.935c.413.195.953,0,1.352.215.661.356.163.581.072,1.176-.239,1.558.807.61,1.328.011l.335-2,1.141-1.669,1.275-2.671a7.108,7.108,0,0,0,.469-2.269l-.269-.468-.067-3.873-.669-1.4c.13.272-1.473.447-1.612.463l-.2-.2c.18.179,1.367-1.338,1.367-1.654l-.159-1.418.238-1.135-.05-.813-1.164-.723-2.113-.486-1.717-.571Z"/><path id="DE" class="cls-5" d="M348.573,118.376l.152-.887.156-.7-.674.164-.67.193-.915.729.713,2.083.939,2.337.872,4.006.671,2.6,2.079-.067c.842-.161,1.686-.36,2.535-.477.005,0-.593-2.2-.666-2.38-.231-.566-.222-.49-.812-.633-.492-.119-1.12-.309-1.326-.851l-.738-1.936-.805-1.469-1.305-1.186-.359-.866Z"/><path id="MD" class="cls-5" d="M354.451,128.344l-2.493.5-2.134.048-.765-2.859-.8-3.787-1.067-2.556-.535-1.816-3.114.67-6.172,1.166-15.54,3.119.469,2.07.4,2.337.134-.134.872-1,.94-1.081,1.006-.254.6-.6.738-1.068.537.267,1.207-.133,1.074-.868.832-.6.765-.2.683.467,1.207.6.8.734.5.634,1.711.7v1.2l2.281.534.475.224.586-.838,1.2.814-.531,1.026-.317,1.646-.738,1.069v.868l.268.734,2.1.56,1.789-.025,1.274.4.87.133a7.77,7.77,0,0,0,.407-.845,5.931,5.931,0,0,0-.661-1.674c-.369-.575-.922-.838-1.209-1.491-.228-.519-.409-1.065-.613-1.595-.219-.573.328-1.338.493-1.866a1.593,1.593,0,0,0,.075-.891c-.1-.352-.482-.594-.533-.948-.073-.508.444-1.108.714-1.477.14-.192,1.647-1.343,1.615-1.429a1.014,1.014,0,0,1,.088.565c-.076.207-.431.28-.509.5-.154.438-.761,1.4-.452,1.879.115.176.6.217.787.254a14.5,14.5,0,0,1,.175,1.97c-.132.546-.614.367-.819.735s-.006.962.1,1.351c.4-.769.865-.719,1.326-.064-.158-.224-.573,1.036-.587,1.088-.261.98.31,1.53.874,2.266.094.123.9.122,1.061.134.793.062,1.069-.4,1.624.245.333.386.628.816.941,1.219l.564.221,2.761-1.156C354.674,131.663,354.528,128.329,354.451,128.344Z"/><path id="VA" class="cls-5" d="M350.97,133.967a3.255,3.255,0,0,0,.039-.787c-.019-.254,2.292-.967,2.617-.946a6.139,6.139,0,0,1-.259,1.222,22.61,22.61,0,0,1-1.183,2.34c-.371,1.008,0,2.071-.238,3.1a13.34,13.34,0,0,1-.531,1.47c-.536,1.481-1.379-1.03-1.416-1.574a8.3,8.3,0,0,1,.22-2.491C350.415,135.5,350.832,134.779,350.97,133.967Zm1.484,11.706-24.138,5.194-15.529,2.181-2.771-.155-1.073.8-3.045.091-3.478.4-4.529.667,4.343-2.318-.005-.857.631-.887,4.379-4.75,1.638,1.849,1.57.4,1.055-.471.929-.542,1.053.555,1.624-.59.779-1.882,1.079.223,1.185-.88.746.2,1.173-1.518.144-.86-.4-.527.416-.771,2.188-5.071.256-2.369.51-.216.9,1.009,1.634-.124.8-3.128,1.16-.232.435-1.132,1.071-.969,1.15-2.352.035-2.093,4.076,1.579c.282.141.345-2.085.345-2.085l1.516.66.028,1.214,2.4.537.885.486.688.849-.272,1.507-.808,1.07.046.85.244.765,2.066.524,1.847.016,1.273.4.807.128.3,1.276c.038.13,1.059.171,1.213.253.65.346.425.9.362,1.563-.067.7-.078.78.5,1.238-.137.55-.315.888.311,1.124l-.092.572-1.118-.039c-.41-.014.624,1.05.661,1.087.243.252.2.373.353.638a8.278,8.278,0,0,0,.535.686,2.411,2.411,0,0,1,.424,1.257,10.665,10.665,0,0,1-1.059.571c.438.415.461.559,1,.509.5-.046,1.013-.353,1.513-.446.677-.126.7.091,1.009.633C351.744,144.543,352.111,145.1,352.454,145.673Z"/><path id="WV" class="cls-5" d="M321.835,122.79l.462,2.042.449,2.491.884-1.066.939-1.269,1.053-.254.6-.6.738-1.068.6.267,1.208-.134,1.073-.868.832-.6.766-.2.541.42,1.512.753.8.734.57.534-.316,2.295-2.421-1.05-1.762-.67-.041,2.139-1.141,2.287-1.05,1-.494,1.136-1.1.206-.372,1.488-.433,1.632-1.647.14-.964-1.007-.445.231-.263,2.259-.559,1.46-2.058,4.525.372.479-.085.788-1.166,1.6-.75-.225-1.232.892-1.055-.237-.83,1.882a8.541,8.541,0,0,1-1.628.565c-.067-.006-1.025-.516-1.025-.516l-.969.57-1,.432-1.554-.368-.465-.483-.91-1.248-1.3-.822-.71-1.5-1.778-1.433-.268-.935-1.073-.6-.336-.668-.1-2.17.905-.034.8-.334.067-1.135.671-.6.067-2.07.4-1.6.537-.267.537.468.2.735.738-.4.2-.668-.47-.734v-1l.4-.534.94-1.4.537-.6.872.2.939-.668,1.275-1.4.939-1.6.134-2.337.2-2.07v-1.936l-.469-1.268.4-.6.533-.534,1.449,8.189,1.921-.31Z"/><path id="OH" class="cls-5" d="M311.105,103.94l-2.528,1.674a17.532,17.532,0,0,0-2.775,2.308,7.33,7.33,0,0,1-2.777,1.958,36.83,36.83,0,0,0-3.974,1.41l-.872.067c-.781-.7-1.2-1.3-2.286-1.159a3.273,3.273,0,0,1-1.814-.169c-.685-.3-1.077-.8-1.868-.784a14.552,14.552,0,0,0-1.678.242l-4.226.668-4.65.9.537,6.043.737,5.676L284,132.457l.235,2,1.71-.053,1.007-.334,1.4.621.859,1.8,2.132-.007.785.875.731-.027,1.053-.554,1.039.153,2.25.2.716-.881.973-.534.86-.281.268,1.135.738.4,1.442.968.905-.033.553-.2.076-1.141.658-.6.041-1.979.425-1.7.539-.248.548.474.224.7.713-.428.182-.6-.463-.786.027-.956.311-.443.893-1.365.436-.638.872.2.939-.668,1.274-1.4,1.15-1.685.134-2.088.2-2.07-.073-2.192-.4-1.2.146-.492.748-.723-.95-3.737Z"/><path id="IN" class="cls-5" d="M263.075,147.987l.027-1.181.2-1.87.939-1.2.737-1.6,1.074-1.736-.2-2.4-.738-1.135-.135-1.336.336-2.27-.2-2.871-.537-6.61-.536-6.344s-.4-4.812-.4-4.841a6.216,6.216,0,0,0,1.741.548,1.9,1.9,0,0,0,1.479-.714l1.174-.668,2.113-.067,9.122-.935,2.314-.22.624,6.591,1.764,15.217.249,2.384-.154.935.509.742.04.567-1.046.661-1.468.641-1.329.227-.248,2.011-1.9,1.368-1.161,1.656.134.982-.241.634h-1.38l-.658-.668-1.034.521-1.113.621.067,1.262-.5.106-.194-.42-.9-.621-1.35.554-.643,1.242-.6-.334-.6-.66-1.852.2-2.321.4Z"/><path id="IL" class="cls-5" d="M263.063,148.14l.013-1.334.235-1.919.968-1.2.774-1.683.927-1.65-.154-2.169-.832-1.463-.04-1.382.288-2.177-.342-2.965-.443-6.516-.537-6.2-.383-4.808-.113-.38a15.652,15.652,0,0,0-1.48-3.259,6.671,6.671,0,0,1-.763-3.415l-19,1.073.095.98.948.283.38.472.19.755,1.613,1.416.284.945-.284,1.416-.759,1.511-.285,1.039-.948.755-.759.283-2.182.567-.284.755-.285.85.285.567.758.661-.095,1.7-.758.661-.285.661V124.1l-.759.189-.664.472-.1.567.1.85-.712.543-.427,1.157.191,1.511.949,3.022,3.035,3.116,2.277,1.511-.1,1.794.38.567,2.656.189,1.139.566-.285,1.511-.949,2.455-.284,1.322.949,1.606,2.656,2.172,1.9.283.854,2.078.854,1.322-.379,1.228.664,1.7.758.85.587-.364.377-.857.918-.722.885-.254,1.08.487,1.5.568.493-.124.083-.933-.534-1,.126-.981.763-.557,1.254-.335.523-.19-.254-.573-.329-.972.595-.4Z"/><path id="CT" class="cls-5" d="M368.673,97.965l-1.526-6.146-1.958.38-8.808,1.959.415,1.332.6,3,.073,3.7-.506.9.8.8,1.773-1.613c.56-.507,1.071-1.067,1.633-1.572a1.914,1.914,0,0,1,1.325-.533,11.506,11.506,0,0,0,1.384-.559,11.471,11.471,0,0,0,1.561-.34C365.621,99.2,368.69,98.031,368.673,97.965Z"/><path id="WI" class="cls-6" d="M261.206,105.609l-.027-1.3-.489-1.87c-.072-.68-.114-1.371-.216-2.047-.152-1.006-.489-1.543-.175-2.584a11.737,11.737,0,0,1,.995-2.447l-.269-1.4-.268-1.469.2-.734.8-1a5.643,5.643,0,0,0,.05-.841c-.033-.339-.263-.6-.294-.925-.042-.43.131-.856.129-1.289a4.153,4.153,0,0,1,.353-2.28l.715-1.463,1.207-2.8c.03-.419.17-.936-.073-1.308-.755.113-1.669,2.187-2.073,2.777l-1.141,1.669c-.195.285-.548.467-.75.769-.424.635-.466.923-1.2,1.234-.14.058-.383.654-.47.8a4.843,4.843,0,0,1-.6-.133c-.419-.131,1.187-3.33,1.341-3.673l.738-.668.411-.974-1.062-.785-.82-4.282-1.472-.554-.808-.953-5.033-1.124-1.193-.418-3.409-.9-3.285-.478-1.563-2.119-.311.228-.5-.067c-.424-.055-.528-.437-1.032-.375-.428.053-1.055.559-1.265.039-.243-.6.349-1.228.714-1.635.159-.177.692-.577.554-.871-.119-.253-1.156-.274-1.34-.2a8.608,8.608,0,0,0-1.4.893l-3.085,1.336-1.207.267-1.207-.2-.408-.363-.878,1.171L230,71.391v3.494l-.475.661-2.182,1.6-.949,2.456.19.094,1.043.85.284,1.322-.759,1.322V84.8l.19,2.738,1.233,1.228H230l.759,1.322,1.423.189,1.613,2.361,2.941,1.7.854,1.133.379,3.069.284,1.369.949.661.095.567-.853,1.416.095,1.322,1.043,1.605,1.043.472,1.233.189.557.57Z"/><path id="NC" class="cls-5" d="M352.455,145.651l.864,2.028c.306.72.776,1.4,1.154,2.088.457.83,1.354,1.5,1.555,2.45a2.953,2.953,0,0,1-.963.139c.591-.041.353,1.225.269,1.5-.209.676-.97.889-1.28,1.494-.235.458-.1,1.371-.666,1.615l-1.543.668-1.006-.134a6.854,6.854,0,0,1-1.179-.446,5.319,5.319,0,0,1,.039.78h.8l.336.534-.8,2.6h1.744l.268.666c-.185-.48.855-.872,1.175-.933a3.477,3.477,0,0,1-.5,1.268c-.291.458-.569.928-.874,1.377-.535.789-1.68.49-2.546.693l-2.147,1-2.683,2.2-1.41,1.937c-.556.764-.315,1.771-.586,2.624-.375,1.183-1.3,1.138-2.365,1.248l-2.262.552-4.127-3.388-5.233-3.138-1.207-.334-5.232.6-1.775.31-.671-1.336-1.232-.874-6.842.2-3.018.334-3.756,1.87L302.2,168.92l-8.788,1.069.207-1.675.738-.6,1.14-.267.269-1.536,1.744-1.135,1.61-.6,1.744-1.469,1.811-.868.269-1.269,1.609-1.6.269-.066s0,.467.335.467a3.662,3.662,0,0,1,.8.134l.939-1.469.872-.268.94.134.67-1.469,1.208-1.068.2-.868.078-1.507,1.774-.009,2.987-.353,6.538-.931,6.28-.861,8.98-1.95,8.292-1.759,4.637-.993Z"/><path id="DC" class="cls-5" d="M340.355,127.7l-.771-.754-.511-.283.6-.835,1.2.8Z"/><path id="MA" class="cls-5" d="M378.521,92.64c-.738.289-2.478,1.974-3.245,1.608-.458-.219-.3-1.145.093-1.343-.262.133-1.072.36-1.208.6l-.336.6.2.935-.858.413-1.14-1.87-1.409-1.8-.859-.749-2.711.775-2.113.434-8.579,1.9-.276-1.969.268-4.373,1.78-.368,2.817-.534,7.322-1.916.939-.267L370,83.558l1.548-.686a5.791,5.791,0,0,1,.671,1c.868,1.428-.179,1.626-.475,2.959l-.134.6a3.506,3.506,0,0,0,.569.748c.462.326.9-.255,1.469.061a4.139,4.139,0,0,1,1.243,1.538c.524.874,1.044,1.9,2.168,2.048,1.164.157,2.249-.467,1.587-1.676-.286-.522-2.019-1.383-.875-1.657,1.264-.3,1.933,1.2,2.25,2.136C380.478,91.972,379.569,92.229,378.521,92.64Z"/><path id="TN" class="cls-5" d="M295.069,155.538l-21.531,2.07-6.539.735-1.917.212-1.605-.011-.092,1.694-3.4.109-2.884.267-3.357-.052-.587,2.922-.7,2.264-1.367,1.136-.559,1.81-.135,1.068-1.676.935.6,1.469-.4,1.8-.4.326,44.877-4.3.167-1.634.751-.616,1.176-.31.279-1.535,1.7-1.117,1.679-.617,1.695-1.475,1.841-.837.216-1.267,1.687-1.645.228-.048s.013.467.348.467a3.387,3.387,0,0,1,.806.147l.939-1.482.859-.268.944.122.664-1.459,1.226-1.092.175-.8L310.9,153l-.891-.083-1.08.838-2.9.012-7.618.986Z"/><path id="AR" class="cls-5" d="M252.393,165.781l-1.651.3-2.121-.262.175-.662,1.236-1.06.391-1.51-.758-1.227-32.537,1.039.664,2.833v3.4l.569,4.533.094,15.628.95.8,1.232-.566,1.139.473.282,2.715,23.079-.471.476-.863-.119-1.466-.758-1.227.664-.613-.664-1.037.284-1.037.568-2.315,1.045-.852-.284-.944,1.517-2.218L249,178.6l-.048-.617-.143-.753L250,174.917l1-.519.159-1.416.735-.513-1.3-.2-.556-1.657,1.164-.981.229-.834.531-1.671Z"/><path id="MO" class="cls-5" d="M237.711,126.568l-1.046-1.275-.474-.944-26.7.992-.949.047.522,1.039-.1.944,1.044,1.605,1.28,1.7,1.281,1.133.9.094.621.378v1.228l-.759.661-.19.944.854,1.416,1.043,1.228,1.043.755.569,4.816.131,14.9.094,1.936.19,2.223,9.309-.358,9.629-.283,8.632-.331,4.836-.1.9,1.416-.284,1.365-1.281.993-.238.759,2.232.189,1.616-.283.713-2.269.27-2.419.87-1.055,1.077-.614.021-1.26.422-.8-.7-1.051-.552.407-.826-.92-.534-1.966.333-1.039-.807-1.416-.76-1.89-1.99-.33-2.892-2.313-.713-1.7.332-1.322.855-2.5.19-1.183-.809-.426-2.844-.329-.427-.707-.046-1.747-2.277-1.417-2.894-3.21-.949-3.022-.1-1.745Z"/><path id="GA" class="cls-5" d="M284.951,170.944v.9l.067.868.268,1.4,1.409,3.273,1.006,4.073.6,2.537.671,2,.6,2.871.872,2.6,1.073,1.4.2,1.4.8.334.067.868-.738,2-.2,1.335-.067.8.671,1.8.134,2.2-.335,1,.268.334.6.334.084,1.329.927,1.384.934.893,3.287.067,4.489-.267,8.926-.534,2.259-.279,1.9.012.067,1.2,1.074.334.134-1.8-.671-1.87.47-.668,2.415.334,2.065.131-.322-2.6.939-4.14a6.194,6.194,0,0,0,.4-2.8c.448-.835,1.658-2.1,1.17-3.123-.266.072-.53.181-.792.276l-1.073-.534-.269-.868-.536-1.469-.94-.868-1.073-.267-.671-2-1.214-2.616-1.744-.8-.872-.8-.537-1.068-.872-.8-.939-.534-.94-1.2-1.274-.935-1.878-.735-.2-.6-1.006-1.2-.2-.6-1.408-2.052-1.461.04-1.558-.973-.589-.534-.134-.734.361-.8.924-.459-.263-.866Z"/><path id="SC" class="cls-5" d="M323.394,192.675l-.738.4-1.073-.535-.269-.868-.537-1.469-.94-.868-1.073-.267-.671-2-1.141-2.47-1.744-.8-.872-.8-.537-1.069-.872-.8-.939-.534-.939-1.2-1.275-.935-1.878-.735-.2-.6-1.006-1.2-.2-.6-1.408-2.137-1.409.067-1.677-1-.537-.534-.134-.735.336-.8.939-.4-.212-.946,2.393-.965,3.782-1.9,3.226-.334,6.686-.174,1.094.775.7,1.387,1.785-.252,5.233-.6,1.207.334,5.232,3.138,4.194,3.354c-.526.528-1.056,1.052-1.577,1.584a9.772,9.772,0,0,0-1.745,3.208c-.3.715.113,1.608-.292,2.344-.156.282-.421.467-.6.732a8.9,8.9,0,0,1-.411.843c-.259.31-.558.234-.882.405a2.413,2.413,0,0,0-.737.688c-.819,1.042-1.643,2.231-2.382,3.335l-.671.334c-.921.459-1.335,1.48-2.481,1.537-.012.352.155.688.123,1.041-.039.432-.3.64-.588.952a8.529,8.529,0,0,1-1.414,1.545Z"/><path id="KY" class="cls-5" d="M307.233,146.045l-.952.992-1.485,1.649-2.044,2.257-.5.708-.026.868-1.817.893-2.347,1.4-3,.743-21.522,2.023-6.539.735-1.917.211-1.605-.011-.094,1.743-3.394.06-2.884.267-3.314-.024.5-.545,1.037-.637.1-1.321.379-.756-.667-1.048.333-.788.939-.735.872-.267,1.14.534,1.476.535.47-.134.067-.935-.537-1,.135-.935.8-.6,1.074-.268.671-.267-.335-.735-.269-.8.625-.411c0-.015.52-1.455.514-1.511l1.267-.611,2.207-.4,1.864-.2.578.672.634.36.66-1.284,1.322-.53.914.613.171.412.487-.109-.067-1.22,1.3-.722.891-.443.635.686,1.377-.018.243-.649-.152-.935,1.079-1.652,1.982-1.42.293-2,1.214-.188,1.573-.68,1.014-.706-.083-.646-.474-.6.235-1.237,1.736-.049.954-.308,1.389.59.852,1.8,2.13,0,.851.912.67-.061,1.079-.528,2.174.237,1.069.09.7-.849,1.086-.589.781-.292.269,1.172.848.437,1.1.86.049,2.343.335.649,1.075.643.321.948,1.726,1.42.75,1.5Z"/><path id="AL" class="cls-5" d="M267.945,214.256l-.619-5.916-1.14-7.745.067-5.809.336-12.82-.067-6.878.069-2.651,18.458-1.495-.062.9.067.868.269,1.4,1.408,3.271,1.006,4.073.6,2.537.671,2,.6,2.872.872,2.6,1.074,1.4.2,1.4.805.334.067.868-.738,2-.2,1.336-.067.8.671,1.8.134,2.2-.336,1,.269.334.6.334.136,1.193-2.322-.146-2.817.267-10.6,1.2-4.32.581-.092,1.188.738.735,1.073.8.241,3.278a8.52,8.52,0,0,1-1.633.762,3.142,3.142,0,0,1-1.5.189c.278.04.641-.691.83-.823v-.4L272,212.744c-.3-.592-.8-1.38-1.569-1.319-.159.012-.473,1.57-.538,1.764l-.537,1.135-.269-.066Z"/><path id="LA" class="cls-6" d="M258.26,213.738,256.9,212.43l.419-2.272-.274-.369-3.843.415-10.385.19-.284-.989.379-3.493,1.375-2.456,2.088-3.59-.238-.991.521-.281.19-.807-.949-.849-.046-.8-.76-1.8-.061-2.618-23.018.382.012,3.954.284,3.872.284,1.6,1.044,1.7.379,2.077,1.8,2.266.095,1.322.284.283-.284,3.494-1.233,2.077.664.85-.285,1.038-.284,3.022-.569,1.322.051,1.494,1.945-.628a9.777,9.777,0,0,1,2.662.009,13.921,13.921,0,0,1,2.916.309c1.271.3,2.507.815,3.741,1.237l2.684.468a3.539,3.539,0,0,0,1.416-.292,2.378,2.378,0,0,1,1.467.159,7.418,7.418,0,0,0,1.361.39c.423-1.021-.185-1.032-1.023-1.324-.169-.059-.618.14-.846.128-1.022-.053-1.537-.965-.419-1.413.677-.272.848-.033,1.395.413.055.045.538-.312.624-.333,1.007-.241,1.377.4,1.8,1.171a1.8,1.8,0,0,0,1.2,1c.281.071.62,0,.889.083,1.312.428-.163,1.9,1.053,2.569a10.066,10.066,0,0,0,2.427,1.109c.394.1,2,.184,2.2-.323a1.681,1.681,0,0,1,1.471-1.269c.286-.071.542-.47.842-.454.876.046.445.987.414,1.511.263,0,1.091-.06,1.3-.287.357-.4.547-1.095,1.073-1.3a1.2,1.2,0,0,1-.8-.17,2.477,2.477,0,0,0,.205-1.234c.113.322,1.139-.675,1.32-.624.448.126.07,1.494.554,1.494a5.683,5.683,0,0,1,2.507.5c.473.235.746.743,1.205.987a2.559,2.559,0,0,0,1.316.178c.124,0,.385.279.48.355.37.178.93-1.6.931-1.824,0,.183-1.073-.506-1.16-.565a6.949,6.949,0,0,0-3.2-.9c-.26-.181-.521-.36-.778-.544-.665-.476-.364-.872-.094-1.526l.939.134.067-.267-.738-.4v-.2h1.341l.738-1.268c.018-.03-.638-1.67-.671-1.937a1.663,1.663,0,0,0-1.408.935l-.269,1.068c-.039.154-1.266-.407-1.384-.571-.472-.656.9-2.054,1.234-2.655l-.44-1Z"/><path id="MS" class="cls-5" d="M268.049,213.814l-.1.518H265.8l-.6-.334-.872-.134c-.47-.072-1.335.478-1.807.582-.553.122-1.228-.132-1.739.142-.574.308-.583,1.126-1.083,1.48l-.458.321-.466-1.028-.474-1.605-1.423-1.322.475-2.29-.284-.378-.759.095-3.286.36-10.184.155-.32-.92.362-3.46,1.294-2.343,2.169-3.777-.185-1,.513-.271.181-.793-.961-.859-.047-.885-.762-1.7-.045-2.463.55-1.025-.092-1.411-.735-1.273.633-.613-.651-1.032.19-.682.654-2.7,1.032-.841-.267-.978,1.518-2.189,1.175-.56-.092-.692-.12-.694,1.193-2.3.973-.509.064-.369,15.494-1.6.077,2.6.067,6.878-.335,12.82-.067,5.809,1.141,7.745Z"/><path id="IA" class="cls-5" d="M242.172,106.524l.11,1.151.923.238.4.506.207.766,1.573,1.387.284.988-.279,1.414-.657,1.335-.332,1.132-.9.662-.712.236-2.315.768-.577,1.59.3.567.764.695-.118,1.667-.732.635-.32.679.052,1.146-.782.189-.675.456-.116.559.116.873-.643.461-1.025-1.294-.524-1.012-27.275,1.039-.381.068-.852-1.865-.095-2.738-.664-1.7-.284-2.172-.949-1.511-.38-1.983-1.138-3.116-.475-2.22-.569-.9-.664-1.133.811-2,.569-2.361-1.139-.85-.189-1.133.38-1.039h.711l34.3-.524.346,1.728.935.645.106.588-.842,1.4.079,1.324,1.043,1.569,1.049.535,1.278.207Z"/><path id="MN" class="cls-5" d="M203.188,77.3,203,73.8l-.758-3.022-.759-5.571-.19-4.06-.759-1.416-.664-2.078V53.407l.284-1.606L199.4,49.55l12.5.014c.044-1.1.065-2.273.139-3.4.686-.155,1.737-.033,2.043.656a13.335,13.335,0,0,1,.3,2.074l.6,2.537c.467.465.633.69,1.294.69.883,0,1.253-.376,1.523.579.047.165,1.489.108,1.651.113s.758-.08.885.036a2.338,2.338,0,0,1,.08.852h2.012a3.435,3.435,0,0,1,.434-.829A1.719,1.719,0,0,1,224,52.44c.2.029.412.288.629.353.676.2.981-.009,1.577.366a10.387,10.387,0,0,0,1.122.746l2.213,1a5.006,5.006,0,0,0,1.007.2c.156.031.355-.839.824-.44.151.13.146.828.182,1.041l1.074.534.2-.2.537.067a6.8,6.8,0,0,0,.036.829c.159.227.73.311.989.369,1.709.382,2.068-.733,3.372-1.449.777-.427,1.024-.377,1.371.384l.2.534h.4l.4-.334c.277-.23,1.522-.042,1.921-.073,1.436-.112,1.763-.069,2.506,1.208h.269l.3-.447c.181-.275.958-.237,1.227-.2.22.027.413-.084.543.118a1.7,1.7,0,0,1-.181.874l-1.635.759-3.836,1.677-1.982.829-1.274,1.068c-.611.891-1.113,2.009-1.8,2.821-.45.533-1.167.9-1.663,1.442l-1.1,1.211-.536.067-1.8,1.139-1.023,1.324-.095,1.318.039,3.322-.571.7-2.109,1.553-.925,2.471,1.191.923.283,1.333-.77,1.338.071,1.548.152,2.78,1.256,1.24h1.381l.785,1.294,1.4.208,1.6,2.342,2.94,1.7.889,1.188.278,2.66-33.7.473-.14-14.736-.19-1.228-1.708-1.416-.474-.755v-.661l.853-.661.569-.567Z"/><path id="OK" class="cls-5" d="M163.814,156.6l-6.923-.526-.365,4.524,8.491.478,13.3.539-.969,10.086-.19,7.365.095.662,1.8,1.511.854.472.285-.094.285-.85.569.755h.853v-.566l1.138.566-.19,1.605,1.708.094,1.044.472,1.707.283,1.043.755.949-.85,1.423.283,1.043,1.416h.379v.945l.948.283.949-.944.759.283h1.044l.379,1.039,2.614.859.569-.284.759-1.7h.474l.475.85,1.707.284,1.518.566,1.233.378.759-.378.284-1.038h1.8l.854.378,1.139-.85h.474l.285.661h1.708l.664-.85.759.189.854,1.039,1.328.755,1.328.377.806.462-.162-15.372-.569-4.533-.066-3.665-.6-2.7-.324-2.966-.028-1.576-5.036.132-19.257-.189-18.687-.85Z"/><path id="TX" class="cls-6" d="M155.98,160.627c3.071.147,6.142.3,9.213.439,2.973.131,5.949.22,8.924.329l4.18.153c-.219,3.16-.681,6.306-.946,9.462-.11,1.314-.068,2.661-.1,3.981-.024.957.039,1.92,0,2.876a3.577,3.577,0,0,0,0,1.479,5.866,5.866,0,0,0,1.82,1.915c.745.57,1.105.375,1.444-.474.451.73.49.756,1.349.763-.026-.2.019-.4,0-.6a5.036,5.036,0,0,0,1.165.568q-.074.82-.149,1.639a10.436,10.436,0,0,1,1.626.039c.441.082.842.377,1.28.493a12.986,12.986,0,0,1,1.571.212,4.655,4.655,0,0,1,1.062.864c.729-.7,1.135-1.131,2.222-.649.679.3.739,1.439,1.572,1.509q-.032.407-.066.813c.221.079.706.366.926.324.332-.064.557-.68.885-.779a10.806,10.806,0,0,1,1.884.2c.21.47.243.835.625,1.081a6.792,6.792,0,0,0,1.993.655c1.139.23,1.449-.866,1.669-1.895.738-.178.606.6,1.03.888.35.242,1.175.142,1.6.254.844.219,2.132,1.02,2.942.909.792-.108.726-.8.952-1.376a5.078,5.078,0,0,1,2.6.4c.3-.214.776-.772,1.118-.857.572-.142.613.256.854.669a5.483,5.483,0,0,0,1.522,0c.354-.125.545-.511.791-.838,1,.215,1.239.939,2.074,1.445s1.772.644,2.6,1.129a9.735,9.735,0,0,1,1.2.921,4.407,4.407,0,0,1,1.241-.539,3.8,3.8,0,0,1,1.138.461c.291,3.48.055,6.99.5,10.459a5.491,5.491,0,0,0,.863,2.43,9.131,9.131,0,0,1,.855,2.62,7.752,7.752,0,0,0,1.447,2.149,5.446,5.446,0,0,1,.686,2.058,8.782,8.782,0,0,1-.222,3.242,7.345,7.345,0,0,1-1.208,2.308c.439.556.6.712.506,1.349-.069.468-.169.9-.212,1.376a15.987,15.987,0,0,1-.184,2.054c-.108.473-.45.879-.564,1.347a4.981,4.981,0,0,0,.049,1.613,21.853,21.853,0,0,0-2.773.85c-.7.3-1.381.624-2.069.941a6.934,6.934,0,0,0-1.563.7c-.338.312-.442.783-.818,1.106a14.709,14.709,0,0,1-1.431,1.04,24.8,24.8,0,0,0-2.721,2.344,20.923,20.923,0,0,1-5.658,3.343c-2.072.932-3.761,2.34-5.749,3.4a9.551,9.551,0,0,1-1.4.417c-.528.19-.628.435-.983.936-.252.354-.633,1.215-1.02,1.42-.428.227-1.289-.135-1.678.152-.876.649.293,1.065.439,1.611.128.478-.219,1.143-.35,1.586-.41,1.389-.844,2.774-1.158,4.19a5.108,5.108,0,0,0,.068,2.965c.272.967.551,1.957.734,2.944.124.672.121,1.44.311,2.089.23.784,1.2,1.249.471,1.922a2.381,2.381,0,0,1-1.709.562,20.815,20.815,0,0,1-1.848-1.187,5.559,5.559,0,0,0-2.112-.557,6.864,6.864,0,0,1-2.066-.088c-.763-.274-1.2-1.06-1.949-1.343-.7-.263-1.513-.248-2.225-.5a22.235,22.235,0,0,1-2.508-1.107c-1.325-.663-1.518-2.579-1.767-3.9-.2-1.066-1.233-.741-1.609-1.658-.236-.579.265-1.251.294-1.824.036-.71-.728-.845-.732-1.488-.006-1.036.768-1.715-.326-2.493-.34-.242-.865-.233-1.2-.477a3.458,3.458,0,0,1-.573-.7,11.907,11.907,0,0,1-1.157-1.643,14.093,14.093,0,0,0-1.061-2.049c-.321-.41-1.789-.923-1.88-1.242a32.769,32.769,0,0,0-2.9-7.79c-1.273-2.165-3.322-5.047-5.659-6.148a5.957,5.957,0,0,0-3.125-.355,4.277,4.277,0,0,1-2.017-.454,4.745,4.745,0,0,0-5.882,2.425,7.765,7.765,0,0,1-2.093,3.561c-1.517,1.309-3,.229-4.384-.72-2.033-1.391-4.443-2.605-6.023-4.536-1.933-2.362-1.479-5.553-2.47-8.284-1.03-2.84-4.092-4.109-6.044-6.236-1.77-1.929-3.27-4-5.148-5.839-.41-.4-.812-.808-1.213-1.216-.06-.641-.171-1.286-.26-1.926,1.4.12,2.808.235,4.211.367l7.1.668c1.391.131,2.782.29,4.176.389,1.963.139,3.932.216,5.9.324l3.755.206c.433.023,1.772.341,2.155.118.022-.012.1,0,.124.006.3-2.632.657-5.262.911-7.9.17-1.768.254-3.548.379-5.32q.386-5.449.766-10.9c.158-2.242.3-4.485.473-6.726.069-.911.155-1.821.233-2.732.124-1.45-.049-3.371.408-4.757a1.875,1.875,0,0,0,.034-.4,3.45,3.45,0,0,1,.569.012C156.312,160.617,156.146,160.625,155.98,160.627Z"/><path id="NM" class="cls-6" d="M125.561,199.22l-.322-1.961,3.587.217,12.519,1.217,11.314.7.919-7.727,1.6-23.079.721-8.008.652.053.343-4.611-43.154-4.393-7.26,49.744,6.415.821.537-4.14Z"/><path id="KS" class="cls-5" d="M216.732,158.069l-5.236.084-19.124-.189-18.488-.85-10.219-.52,1.616-26.68,9.163.279,16.717.347,18.382.408h2.115l.906.893.837-.009.68.418-.026,1.243-.759.713-.138.922.765,1.405,1.225,1.32.965.667.54,4.643Z"/><path id="NE" class="cls-5" d="M207.694,123.506l1.341,2.9-.054.951,1.435,2.269,1.128,1.3h-2.1l-18.042-.388-16.923-.368-9.233-.324.445-8.809-13.41-1.206,1.8-18.177,6.45.425,8.348.472,7.4.472,9.865.472,4.459-.189.854.944,1.992,1.228.474.377,1.8-.566,1.613-.189,1.139-.094.759.567,1.683.661,1.234.661.19.661.379.85h.758l.332.019.371,1.934,1.211,3.5.238,1.551,1.047,1.559.236,2.112.667,1.752Z"/><path id="SD" class="cls-5" d="M203.69,108.358l-.02-.24-1.2-2,.772-1.946.619-2.431-1.154-.859-.16-1.133.329-1.055,1.323.006-.051-2.068-.139-12.463-.256-1.556-1.69-1.376-.407-.693-.026-.664.838-.632.636-.688.1-1.1L179.032,76.8l-22.737-1.425-2.21,26.307,6.054.373,8.278.5,7.362.383,9.866.539,4.972-.175.816.927,2.156,1.344.317.3,1.884-.6,2.714-.254.695.552,1.745.659,1.222.676.165.613.432.926Z"/><path id="ND" class="cls-5" d="M203.216,77.336l-.255-3.483-.7-2.815-.785-5.379-.19-4.538-.722-1.271L199.84,57.7l.013-4.314.259-1.579-.761-2.258-11.885-.233-7.714-.267-11-.534-9.521-.881-2.9,27.746,22.793,1.381Z"/><path id="WY" class="cls-5" d="M155.529,83.266l-44.29-5.558L105.4,114.244l47,5.611Z"/><path id="MT" class="cls-5" d="M159.194,47.619l-12.728-1.16L134.325,44.99l-12.141-1.669-13.415-2.2-7.647-1.4L87.544,36.851l-1.859,8.817,1.423,3.116-.569,1.888.759,1.889,1.328.567,1.917,4.448,1.118,1.312.19.472,1.423.472.19.85-2.94,7.271v1.039l1.043,1.322h.379l1.992-1.228.284-.472.664.283-.095,2.172,1.138,5.194L97.164,77.3l.379.283.759.944-.19,1.417.285,1.416.474.378.949-.944h1.138l1.328.661,1.044-.378h1.708l1.518.661,1.138-.189.19-1.228,1.233-.283.569.567.19,1.322.592.345.783-4.558,44.291,5.547Z"/><path id="CO" class="cls-5" d="M163.685,156.658,165.719,121l-47.048-5.223L113.6,152.1Z"/><path id="ID" class="cls-6" d="M67.607,96.983l3.639-14.548.569-1.747,1.043-2.455-.522-.944-1.044.047-.332-.425.19-.472.142-1.275,1.85-2.266.758-.189.475-.472.237-1.322.379-.283,1.613-2.408,1.612-1.794.1-1.558L76.89,63.785l-.637-1.818,5.653-26.162,5.609,1.044-1.829,8.832,1.477,3.092L86.508,50.7l.817,1.917,1.3.518,1.591,3.947,1.458,1.833.21.472,1.386.472.153.866L90.533,67.9l-.069,1.06,1.092,1.372.376-.02,2.038-1.25.281-.452.648.272-.116,2.211,1.137,5.2L97.546,77.6l.7.894-.3,1.687.443,1.16.44.451,1.029-.971,1.182.02,1.211.552,1.154-.282,1.574-.066,1.651.661,1.138-.123.206-1.254,1.217-.316.523.626.183,1.216.591.5-3.48,22.142S70.509,97.6,67.607,96.983Z"/><path id="UT" class="cls-5" d="M113.672,152.172l-34.75-4.9,8.542-46.483,19.41,3.612-.616,4.391-.959,5.441,3.239.383,6.808.745,3.407.354Z"/><path id="AZ" class="cls-6" d="M66.127,182.127a1.171,1.171,0,0,0-.706,1.985A13.125,13.125,0,0,0,68,185.646l4.068,2.283c.295.165.6.319.888.5l5.031,3.138,6.1,3.539,6.976,4.14,5.1,1,10.353,1.117,7.16-49.2-34.744-4.922-1.283,6.779-.666.006-.711,1.086-1.044-.047-.522-1.133-1.138-.141-.379-.473h-.38l-.379.236-.807.425-.047,2.88-.1.708-.237,5.193-.616.9-.237,1.37,1.138,2.03.521,2.408.332.425.427.236-.047.944-.664.567-1.423.708-.807.8-.616,1.511-.237,2.03-1.186,1.134-.854.283.056.342-.19.708.19.33,1.518.236-.238,1.134-.616.9Z"/><path id="NV" class="cls-6" d="M87.488,100.738l-9.808,53.208-.76.144-.652.994-.984,0-.611-1.133-1.087-.157-.32-.458-.431-.022L71.681,154l-.129,2.8-.15,2.387-.145,3.549-.6.863-1.012-.444L40.982,120.117,48.861,92.2Z"/><path id="OR" class="cls-5" d="M67.708,96.589,71.38,82.215l.436-1.747.977-2.323-.255-.48-1.043-.019-.532-.69.19-.6.209-1.341,1.85-2.266.759-.454.474-.472.617-1.472L76.74,68l1.479-1.6.1-1.426-1.357-1.02-.74-1.917-5.254-1.492L64.7,59.09l-6.4.047-.19-.566-2.277.85-1.849-.236-1-.661-.522.283-1.945-.094-.711-.566-2.182-.85-.332.047-1.8-.613-.806.755-2.561-.142-2.466-1.7.284-.331.1-3.21L39.089,50.5l-1.707-.236L37.1,49.222l-.977-.193-2.406.85-.939,2.671-1.341,4.14-1.342,2.671L28.013,65.17,25.33,70.779l-3.354,5.208-.8,1.2-.336,3.539L21,85.717Z"/><path id="WA" class="cls-6" d="M48.53,27.631a2.792,2.792,0,0,1,1.7.108c1.568.446,3.053,1.085,4.654,1.426,3.1.66,6.106,1.552,9.172,2.374,2.93.786,5.873,1.491,8.816,2.229,2.722.682,5.459,1.248,8.2,1.827l.826.174-1.917,8.9L76.936,58.826l-.69,3.206c-2.089-.586-4.165-1.226-6.279-1.711a31.74,31.74,0,0,0-7.235-1.215q-2.2,0-4.4.009c-.038-.19-.154-.365-.189-.555a9.343,9.343,0,0,1-2.428.884,4,4,0,0,1-2.693-.943,3.076,3.076,0,0,1-2.986-.16,8.233,8.233,0,0,0-2.769-1,14.875,14.875,0,0,1-1.769-.624c-.422.374-.6.653-1.1.729a6.358,6.358,0,0,1-2.136-.1,9.889,9.889,0,0,1-2.61-1.708c.694-.472.363-2.3.35-3.011a2.994,2.994,0,0,0-.963-2.153,5.538,5.538,0,0,0-1.668-.228l-.281-1.037a3.84,3.84,0,0,0-2.418.319c-.232.08-.763-1.2-.8-1.345-.28-1.02.211-1.211,1.138-1.319.272-.033.492-1.031.507-1.236.072-.944-.64-.363-.955-1.053a1.989,1.989,0,0,1,.135-1.137c.329-.5,1.178-.383,1.7-.519-.263.068-1.086-1.435-1.172-1.628a6.1,6.1,0,0,1-.491-2.419c-.006-.661.271-1.327.267-2.015a11.214,11.214,0,0,0-.007-2.5c-.124-.484-.6-.778-.691-1.269-.119-.673.281-3.535,1.079-3.773.744-.223,1.642,1.2,2.11,1.638a8.932,8.932,0,0,0,2.027,1.461,43.249,43.249,0,0,0,4.3,1.714,5.123,5.123,0,0,0,2.453.386c0-.6-.082-.841.3-1.263a2.294,2.294,0,0,1,.839-.577c.463-.037.563,1.033.54,1.038l-.939.2c-.165,1.049.021.725.608,1.479.288.371.441,1.632.845,1.8a.548.548,0,0,0,.442-.139,6.057,6.057,0,0,1-.108-3.916c.481-1.591-.188-2.75-.583-4.26C48.027,28.155,48.188,27.787,48.53,27.631Z"/><path id="CA" class="cls-6" d="M66.037,181.95l1.635-.2.616-.831.226-1.215-1.473-.243-.213-.276.2-.839-.066-.244.8-.256,1.262-1.17.241-2.063.573-1.406.806-.894,1.46-.657.686-.663.029-.871-.412-.239-.424-.443-.479-2.416-1.114-1.995.235-1.447-1-.425L40.96,120.124,48.8,92.2,20.97,85.719l-.625,1.955c-.3.94.308,2.22-.067,3.071l-1.366,3.1c-.187.424-.418,1.466-.779,1.771a9.618,9.618,0,0,0-1.273,1.069c-.371.449-.265.525-.875.8-.3.135-.522,1.414-.6,1.735-.385,1.533.928,3.391,1.475,4.808a6.888,6.888,0,0,1,.432,3.023,4.872,4.872,0,0,1-.337,1.453c-.109.262-.468.685-.5.932-.171,1.482-.687,3.03-.32,4.521a10.9,10.9,0,0,0,1.527,2.892l.939,2,.536,1.669a8.787,8.787,0,0,0-.27,2.142c.189.957,1.136,1.627,1.769,2.288.9.941.2,2.261-.157,3.316l.067,3.406.872,1.535a2.7,2.7,0,0,0,1.038,1.108c.441.191.682-.006.988.386a2.869,2.869,0,0,1,.322.91l-.469,1.468a1.641,1.641,0,0,1-1.342.669q-.169.8-.336,1.6l.2,1.2a11.435,11.435,0,0,1,1.7,2.677c.57,1.49.825,3.057,1.45,4.535l1.409,2.4a7.27,7.27,0,0,1,.579,1.022c.463,1.291,1.142,2.06.563,3.446a15.7,15.7,0,0,0-.544,2.163,2.449,2.449,0,0,0,.609,2.717l1.744.2,1.878.735a10.807,10.807,0,0,0,1.386.75c.532.189,1.117.078,1.617.369a5.438,5.438,0,0,1,1.022,1.017l1.073,2,.469.935,1.61.868c.872.47,1.957-.014,2.55,1.092a2.23,2.23,0,0,1,.292,1.129.784.784,0,0,1-.542.628c.176.417,1.011.666,1.457.69l1.14.067c.551.039.855-.527,1.331-.507.586.024,1.237,1.165,1.59,1.546a9.774,9.774,0,0,1,.667,1.484,5.878,5.878,0,0,1,.876,2.523v3.873l.2.734,4.159.6,8.183,1.135Z"/></svg>