<svg id="Layer_1" data-name="Layer 1" xmlns="http://www.w3.org/2000/svg" viewBox="0 0 378.697 456.183"><defs><style>.cls-1{fill:#bcbec0;}.cls-2{fill:#fff;}.cls-3{fill:#231f20;}</style></defs><title>Planning_Minimize_Estate_Taxes_Simpler</title><rect class="cls-1" width="378.697" height="456.183"/><rect class="cls-2" x="125.63" y="282.642" width="189.8" height="95.703"/><rect class="cls-2" x="125.63" y="24.883" width="189.8" height="45.937"/><rect class="cls-2" x="211.492" y="70.82" width="18.076" height="54.551"/><polygon class="cls-2" points="220.53 145.787 243.427 121.223 197.633 121.223 220.53 145.787"/><rect class="cls-2" x="125.63" y="153.922" width="189.8" height="45.937"/><rect class="cls-2" x="211.492" y="199.859" width="18.076" height="54.551"/><polygon class="cls-2" points="220.53 274.826 243.427 250.263 197.633 250.263 220.53 274.826"/><path class="cls-3" d="M193.317,62.768V61.085a5.622,5.622,0,0,1-1.937-.565,3.461,3.461,0,0,1-1.289-1.313,4.9,4.9,0,0,1-.631-2.215l1.6-.318a4.414,4.414,0,0,0,.654,1.991,2.29,2.29,0,0,0,1.605,1V54.309a6.425,6.425,0,0,1-2-.8,3.031,3.031,0,0,1-1.169-1.243,3.875,3.875,0,0,1-.41-1.8,3.777,3.777,0,0,1,1.2-2.907,4.041,4.041,0,0,1,2.383-.916v-0.8h0.936v0.8a3.8,3.8,0,0,1,2.2.86A3.887,3.887,0,0,1,197.7,50.01l-1.643.262a2.968,2.968,0,0,0-.586-1.519,2.137,2.137,0,0,0-1.223-.7v4.851a12,12,0,0,1,1.588.5,3.933,3.933,0,0,1,1.211.841,3.44,3.44,0,0,1,.719,1.178,4.533,4.533,0,0,1-.8,4.393,3.762,3.762,0,0,1-2.719,1.252v1.7h-0.936Zm0-14.729a2.313,2.313,0,0,0-1.461.785,2.447,2.447,0,0,0-.08,2.944,3.1,3.1,0,0,0,1.541.925V48.038Zm0.936,11.626a2.316,2.316,0,0,0,1.531-.851,2.735,2.735,0,0,0,.605-1.8,2.341,2.341,0,0,0-.43-1.472,3.645,3.645,0,0,0-1.707-1v5.122Z" transform="translate(-8.722 -7.52)"/><path class="cls-3" d="M199.628,57.179l1.589-.225a3.8,3.8,0,0,0,.932,2.061,2.226,2.226,0,0,0,1.6.631,2.5,2.5,0,0,0,1.894-.823,2.862,2.862,0,0,0,.772-2.037,2.665,2.665,0,0,0-.715-1.912,2.4,2.4,0,0,0-1.818-.752,4.326,4.326,0,0,0-1.121.187l0.177-1.477a2.234,2.234,0,0,0,.256.019,3.141,3.141,0,0,0,1.827-.561,1.957,1.957,0,0,0,.812-1.729,2.111,2.111,0,0,0-.591-1.533,2.039,2.039,0,0,0-1.527-.607,2.1,2.1,0,0,0-1.545.617,3.174,3.174,0,0,0-.794,1.851l-1.589-.3a4.4,4.4,0,0,1,1.324-2.622,3.694,3.694,0,0,1,2.568-.93,4.038,4.038,0,0,1,1.95.481,3.37,3.37,0,0,1,1.364,1.313,3.527,3.527,0,0,1,.472,1.767,3.018,3.018,0,0,1-.45,1.617,3.115,3.115,0,0,1-1.333,1.159,2.987,2.987,0,0,1,1.783,1.164,3.687,3.687,0,0,1,.636,2.21,4.161,4.161,0,0,1-1.235,3.042,4.215,4.215,0,0,1-3.125,1.248,3.934,3.934,0,0,1-2.829-1.075A4.254,4.254,0,0,1,199.628,57.179Z" transform="translate(-8.722 -7.52)"/><path class="cls-3" d="M210.528,60.8V58.879h1.81V60.8a3.566,3.566,0,0,1-.354,1.706,2.34,2.34,0,0,1-1.121,1l-0.441-.72a1.54,1.54,0,0,0,.742-0.687,3.081,3.081,0,0,0,.265-1.3h-0.9Z" transform="translate(-8.722 -7.52)"/><path class="cls-3" d="M214.8,48.889V47.272h8.376V48.58a18.7,18.7,0,0,0-2.449,3.7,23.273,23.273,0,0,0-1.876,4.748,18.592,18.592,0,0,0-.608,3.767H216.61a17.677,17.677,0,0,1,.6-3.907,21.271,21.271,0,0,1,1.646-4.416,19.018,19.018,0,0,1,2.281-3.584H214.8Z" transform="translate(-8.722 -7.52)"/><path class="cls-3" d="M224.747,54.038a13.208,13.208,0,0,1,.473-3.911,4.894,4.894,0,0,1,1.4-2.285,3.457,3.457,0,0,1,2.343-.8,3.651,3.651,0,0,1,1.827.444,3.584,3.584,0,0,1,1.3,1.281,7.084,7.084,0,0,1,.8,2.037,14.292,14.292,0,0,1,.292,3.238,13.275,13.275,0,0,1-.468,3.893,4.9,4.9,0,0,1-1.4,2.29,3.781,3.781,0,0,1-5.291-.612Q224.747,57.9,224.747,54.038Zm1.633,0q0,3.374.746,4.491a2.073,2.073,0,0,0,3.681,0q0.746-1.121.746-4.486,0-3.383-.746-4.5a2.188,2.188,0,0,0-1.858-1.112,2.007,2.007,0,0,0-1.747.981Q226.379,50.665,226.38,54.038Z" transform="translate(-8.722 -7.52)"/><path class="cls-3" d="M234.8,54.038a13.208,13.208,0,0,1,.473-3.911,4.894,4.894,0,0,1,1.4-2.285,3.457,3.457,0,0,1,2.343-.8,3.651,3.651,0,0,1,1.827.444,3.584,3.584,0,0,1,1.3,1.281,7.084,7.084,0,0,1,.8,2.037,14.292,14.292,0,0,1,.292,3.238,13.275,13.275,0,0,1-.468,3.893,4.9,4.9,0,0,1-1.4,2.29,3.781,3.781,0,0,1-5.291-.612Q234.8,57.9,234.8,54.038Zm1.633,0q0,3.374.746,4.491a2.073,2.073,0,0,0,3.681,0q0.746-1.121.746-4.486,0-3.383-.746-4.5A2.188,2.188,0,0,0,239,48.431a2.007,2.007,0,0,0-1.747.981Q236.433,50.665,236.434,54.038Z" transform="translate(-8.722 -7.52)"/><path class="cls-3" d="M245.71,60.8V58.879h1.81V60.8a3.566,3.566,0,0,1-.354,1.706,2.34,2.34,0,0,1-1.121,1l-0.441-.72a1.54,1.54,0,0,0,.742-0.687,3.081,3.081,0,0,0,.265-1.3h-0.9Z" transform="translate(-8.722 -7.52)"/><path class="cls-3" d="M249.876,54.038a13.208,13.208,0,0,1,.473-3.911,4.894,4.894,0,0,1,1.4-2.285,3.457,3.457,0,0,1,2.343-.8,3.651,3.651,0,0,1,1.827.444,3.584,3.584,0,0,1,1.3,1.281,7.084,7.084,0,0,1,.8,2.037,14.292,14.292,0,0,1,.292,3.238,13.275,13.275,0,0,1-.468,3.893,4.9,4.9,0,0,1-1.4,2.29,3.781,3.781,0,0,1-5.291-.612Q249.876,57.9,249.876,54.038Zm1.633,0q0,3.374.746,4.491a2.073,2.073,0,0,0,3.681,0q0.746-1.121.746-4.486,0-3.383-.746-4.5a2.188,2.188,0,0,0-1.858-1.112,2.007,2.007,0,0,0-1.747.981Q251.508,50.665,251.509,54.038Z" transform="translate(-8.722 -7.52)"/><path class="cls-3" d="M259.929,54.038a13.208,13.208,0,0,1,.473-3.911,4.894,4.894,0,0,1,1.4-2.285,3.457,3.457,0,0,1,2.343-.8,3.651,3.651,0,0,1,1.827.444,3.584,3.584,0,0,1,1.3,1.281,7.084,7.084,0,0,1,.8,2.037,14.292,14.292,0,0,1,.292,3.238,13.275,13.275,0,0,1-.468,3.893,4.9,4.9,0,0,1-1.4,2.29,3.781,3.781,0,0,1-5.291-.612Q259.929,57.9,259.929,54.038Zm1.633,0q0,3.374.746,4.491a2.073,2.073,0,0,0,3.681,0q0.746-1.121.746-4.486,0-3.383-.746-4.5a2.188,2.188,0,0,0-1.858-1.112,2.007,2.007,0,0,0-1.747.981Q261.561,50.665,261.562,54.038Z" transform="translate(-8.722 -7.52)"/><path class="cls-3" d="M269.983,54.038a13.208,13.208,0,0,1,.473-3.911,4.894,4.894,0,0,1,1.4-2.285,3.457,3.457,0,0,1,2.343-.8,3.651,3.651,0,0,1,1.827.444,3.584,3.584,0,0,1,1.3,1.281,7.084,7.084,0,0,1,.8,2.037,14.292,14.292,0,0,1,.292,3.238,13.275,13.275,0,0,1-.468,3.893,4.9,4.9,0,0,1-1.4,2.29,3.781,3.781,0,0,1-5.291-.612Q269.983,57.9,269.983,54.038Zm1.633,0q0,3.374.746,4.491a2.073,2.073,0,0,0,3.681,0q0.746-1.121.746-4.486,0-3.383-.746-4.5a2.188,2.188,0,0,0-1.858-1.112,2.007,2.007,0,0,0-1.747.981Q271.615,50.665,271.615,54.038Z" transform="translate(-8.722 -7.52)"/><path class="cls-3" d="M189.9,190.317v-13.7h8.729v1.617h-7.018v4.243h6.072v1.617h-6.072v6.225H189.9Z" transform="translate(-8.722 -7.52)"/><path class="cls-3" d="M200.659,178.551v-1.935h1.589v1.935h-1.589Zm0,11.767v-9.925h1.589v9.925h-1.589Z" transform="translate(-8.722 -7.52)"/><path class="cls-3" d="M204.65,190.317v-9.925h1.43v1.5a4.1,4.1,0,0,1,1.011-1.393,1.7,1.7,0,0,1,1.02-.336,2.979,2.979,0,0,1,1.633.542l-0.547,1.561a2.182,2.182,0,0,0-1.165-.364,1.457,1.457,0,0,0-.936.332,1.8,1.8,0,0,0-.592.92,6.9,6.9,0,0,0-.265,1.963v5.2H204.65Z" transform="translate(-8.722 -7.52)"/><path class="cls-3" d="M209.888,187.355l1.571-.261a2.375,2.375,0,0,0,.737,1.533,2.474,2.474,0,0,0,1.69.533,2.387,2.387,0,0,0,1.624-.472,1.442,1.442,0,0,0,.529-1.107,1.039,1.039,0,0,0-.468-0.9,6.638,6.638,0,0,0-1.624-.57,14.226,14.226,0,0,1-2.423-.809,2.393,2.393,0,0,1-1.023-.944,2.6,2.6,0,0,1-.349-1.332,2.693,2.693,0,0,1,1.067-2.168,3.185,3.185,0,0,1,1.011-.491,4.561,4.561,0,0,1,1.372-.2,5.154,5.154,0,0,1,1.938.336,2.642,2.642,0,0,1,1.231.912,3.681,3.681,0,0,1,.547,1.537l-1.553.225a1.834,1.834,0,0,0-.613-1.2,2.157,2.157,0,0,0-1.435-.43,2.486,2.486,0,0,0-1.562.383,1.135,1.135,0,0,0-.468.9,0.961,0.961,0,0,0,.194.589,1.393,1.393,0,0,0,.609.449q0.237,0.094,1.4.43a18.717,18.717,0,0,1,2.352.781,2.414,2.414,0,0,1,1.046.883,2.572,2.572,0,0,1,.38,1.439,2.943,2.943,0,0,1-.463,1.584,3.04,3.04,0,0,1-1.338,1.15,4.63,4.63,0,0,1-1.977.406,4.227,4.227,0,0,1-2.785-.8A3.8,3.8,0,0,1,209.888,187.355Z" transform="translate(-8.722 -7.52)"/><path class="cls-3" d="M223.03,188.813l0.229,1.486a5.587,5.587,0,0,1-1.2.149,2.6,2.6,0,0,1-1.342-.29,1.6,1.6,0,0,1-.671-0.762,6.379,6.379,0,0,1-.194-1.986V181.7h-1.165v-1.308h1.165v-2.458l1.58-1.009v3.467h1.6V181.7h-1.6v5.8a3.105,3.105,0,0,0,.084.925,0.693,0.693,0,0,0,.273.327,1.01,1.01,0,0,0,.543.121A4.834,4.834,0,0,0,223.03,188.813Z" transform="translate(-8.722 -7.52)"/><path class="cls-3" d="M229.809,190.317v-13.7h4.457a10.221,10.221,0,0,1,2.3.2,4.288,4.288,0,0,1,1.9.981A5.6,5.6,0,0,1,240,180.135a9.693,9.693,0,0,1,.507,3.257,10.1,10.1,0,0,1-.344,2.766,6.9,6.9,0,0,1-.883,2A4.842,4.842,0,0,1,238.1,189.4a4.656,4.656,0,0,1-1.544.687,8.332,8.332,0,0,1-2.079.234h-4.669Zm1.712-1.617h2.763a6.369,6.369,0,0,0,2.009-.252,2.837,2.837,0,0,0,1.16-.71A4.382,4.382,0,0,0,238.4,186a8.942,8.942,0,0,0,.34-2.641,6.686,6.686,0,0,0-.667-3.3,3.429,3.429,0,0,0-1.619-1.547,6.357,6.357,0,0,0-2.216-.28h-2.719V188.7Z" transform="translate(-8.722 -7.52)"/><path class="cls-3" d="M249.077,187.121l1.642,0.215a4.271,4.271,0,0,1-1.438,2.365,4.665,4.665,0,0,1-5.944-.5,5.431,5.431,0,0,1-1.205-3.762,5.694,5.694,0,0,1,1.218-3.888,4.015,4.015,0,0,1,3.16-1.383,3.9,3.9,0,0,1,3.071,1.355,5.588,5.588,0,0,1,1.191,3.813c0,0.1,0,.25-0.009.449h-6.99a3.941,3.941,0,0,0,.874,2.5,2.533,2.533,0,0,0,1.959.869,2.339,2.339,0,0,0,1.492-.486A3.241,3.241,0,0,0,249.077,187.121Zm-5.217-2.72h5.234a3.483,3.483,0,0,0-.6-1.878,2.384,2.384,0,0,0-1.968-.972,2.453,2.453,0,0,0-1.841.776A3.166,3.166,0,0,0,243.86,184.4Z" transform="translate(-8.722 -7.52)"/><path class="cls-3" d="M258.595,189.093a5.881,5.881,0,0,1-1.7,1.121,4.668,4.668,0,0,1-1.752.327,3.288,3.288,0,0,1-2.375-.8,2.713,2.713,0,0,1-.829-2.042,2.843,2.843,0,0,1,.313-1.332,2.7,2.7,0,0,1,.82-0.967,3.763,3.763,0,0,1,1.144-.551,10.734,10.734,0,0,1,1.412-.252,13.808,13.808,0,0,0,2.833-.58q0.009-.346.009-0.439a1.925,1.925,0,0,0-.45-1.449,2.56,2.56,0,0,0-1.81-.57,2.682,2.682,0,0,0-1.654.416,2.57,2.57,0,0,0-.79,1.472l-1.554-.225a4.212,4.212,0,0,1,.7-1.706,3.053,3.053,0,0,1,1.4-1,5.951,5.951,0,0,1,2.127-.351,5.351,5.351,0,0,1,1.951.3,2.559,2.559,0,0,1,1.1.752,2.727,2.727,0,0,1,.5,1.145,10.066,10.066,0,0,1,.079,1.552v2.243a25.266,25.266,0,0,0,.1,2.968,3.877,3.877,0,0,0,.4,1.191h-1.659A3.715,3.715,0,0,1,258.595,189.093Zm-0.133-3.757a11.1,11.1,0,0,1-2.595.636,5.723,5.723,0,0,0-1.386.336,1.406,1.406,0,0,0-.627.546,1.5,1.5,0,0,0-.221.8,1.468,1.468,0,0,0,.481,1.122,1.993,1.993,0,0,0,1.407.449,3.134,3.134,0,0,0,1.633-.425,2.563,2.563,0,0,0,1.051-1.164,4.276,4.276,0,0,0,.256-1.683v-0.617Z" transform="translate(-8.722 -7.52)"/><path class="cls-3" d="M266,188.813l0.229,1.486a5.587,5.587,0,0,1-1.2.149,2.6,2.6,0,0,1-1.342-.29,1.6,1.6,0,0,1-.671-0.762,6.379,6.379,0,0,1-.194-1.986V181.7h-1.165v-1.308h1.165v-2.458l1.58-1.009v3.467H266V181.7h-1.6v5.8a3.105,3.105,0,0,0,.084.925,0.693,0.693,0,0,0,.273.327,1.01,1.01,0,0,0,.543.121A4.834,4.834,0,0,0,266,188.813Z" transform="translate(-8.722 -7.52)"/><path class="cls-3" d="M267.554,190.317v-13.7h1.589v4.916a3.471,3.471,0,0,1,2.807-1.365,3.615,3.615,0,0,1,1.81.435,2.5,2.5,0,0,1,1.1,1.2,5.828,5.828,0,0,1,.331,2.224v6.29H273.6v-6.29a2.706,2.706,0,0,0-.516-1.836,1.865,1.865,0,0,0-1.461-.575,2.473,2.473,0,0,0-1.329.388,2.16,2.16,0,0,0-.887,1.052,5.081,5.081,0,0,0-.265,1.832v5.43h-1.589Z" transform="translate(-8.722 -7.52)"/><path class="cls-3" d="M177.715,329.47l1.615-.149a3.921,3.921,0,0,0,.534,1.688,2.947,2.947,0,0,0,1.3,1.065,4.7,4.7,0,0,0,1.986.406,4.512,4.512,0,0,0,1.73-.309,2.41,2.41,0,0,0,1.117-.846,2.044,2.044,0,0,0,.366-1.173,1.851,1.851,0,0,0-.353-1.126,2.608,2.608,0,0,0-1.165-.809,21.691,21.691,0,0,0-2.3-.668,11.359,11.359,0,0,1-2.5-.855,3.577,3.577,0,0,1-1.381-1.275,3.263,3.263,0,0,1-.455-1.706,3.633,3.633,0,0,1,.556-1.939,3.491,3.491,0,0,1,1.624-1.369,5.861,5.861,0,0,1,2.375-.467,6.171,6.171,0,0,1,2.538.49,3.709,3.709,0,0,1,1.69,1.444,4.325,4.325,0,0,1,.636,2.159l-1.642.13a2.867,2.867,0,0,0-.9-1.962,3.351,3.351,0,0,0-2.255-.664,3.465,3.465,0,0,0-2.264.6,1.841,1.841,0,0,0-.71,1.453,1.6,1.6,0,0,0,.5,1.215,6.592,6.592,0,0,0,2.582.977,16.36,16.36,0,0,1,2.864.874,3.966,3.966,0,0,1,1.668,1.4,3.548,3.548,0,0,1,.539,1.948,3.886,3.886,0,0,1-.591,2.061,3.959,3.959,0,0,1-1.7,1.5,5.637,5.637,0,0,1-2.493.537,7.08,7.08,0,0,1-2.944-.542,4.182,4.182,0,0,1-1.862-1.631A4.817,4.817,0,0,1,177.715,329.47Z" transform="translate(-8.722 -7.52)"/><path class="cls-3" d="M196.567,330.676l1.643,0.215a4.269,4.269,0,0,1-1.439,2.364,4.661,4.661,0,0,1-5.944-.5,5.431,5.431,0,0,1-1.2-3.762,5.693,5.693,0,0,1,1.217-3.888,4.015,4.015,0,0,1,3.16-1.383,3.9,3.9,0,0,1,3.072,1.354,5.6,5.6,0,0,1,1.191,3.813c0,0.1,0,.249-0.01.448h-6.99a3.933,3.933,0,0,0,.875,2.5,2.528,2.528,0,0,0,1.959.869,2.346,2.346,0,0,0,1.492-.485A3.247,3.247,0,0,0,196.567,330.676Zm-5.217-2.72h5.234a3.486,3.486,0,0,0-.6-1.879,2.385,2.385,0,0,0-1.969-.972,2.452,2.452,0,0,0-1.84.775A3.168,3.168,0,0,0,191.351,327.956Z" transform="translate(-8.722 -7.52)"/><path class="cls-3" d="M206.321,330.236l1.562,0.215a4.375,4.375,0,0,1-1.311,2.678,3.688,3.688,0,0,1-2.591.968,3.915,3.915,0,0,1-3.093-1.332,5.606,5.606,0,0,1-1.17-3.818,7.271,7.271,0,0,1,.5-2.812,3.65,3.65,0,0,1,1.531-1.809,4.342,4.342,0,0,1,2.237-.6,3.746,3.746,0,0,1,2.5.817,3.8,3.8,0,0,1,1.245,2.322l-1.545.253a2.758,2.758,0,0,0-.781-1.5,1.952,1.952,0,0,0-1.354-.5,2.408,2.408,0,0,0-1.951.911,4.51,4.51,0,0,0-.75,2.884,4.666,4.666,0,0,0,.724,2.906,2.3,2.3,0,0,0,1.889.906,2.155,2.155,0,0,0,1.563-.607A3.1,3.1,0,0,0,206.321,330.236Z" transform="translate(-8.722 -7.52)"/><path class="cls-3" d="M208.272,328.909a5.281,5.281,0,0,1,1.447-4.084,4.214,4.214,0,0,1,2.948-1.1,4.088,4.088,0,0,1,3.159,1.341,5.285,5.285,0,0,1,1.228,3.706,6.906,6.906,0,0,1-.543,3.014,3.973,3.973,0,0,1-1.58,1.706,4.407,4.407,0,0,1-2.264.607,4.1,4.1,0,0,1-3.183-1.337A5.537,5.537,0,0,1,208.272,328.909Zm1.633,0a4.4,4.4,0,0,0,.785,2.855,2.522,2.522,0,0,0,3.945,0,4.509,4.509,0,0,0,.785-2.906,4.27,4.27,0,0,0-.789-2.79,2.526,2.526,0,0,0-3.941,0A4.385,4.385,0,0,0,209.9,328.909Z" transform="translate(-8.722 -7.52)"/><path class="cls-3" d="M218.916,333.872v-9.926h1.43v1.411a3.321,3.321,0,0,1,2.983-1.635,3.724,3.724,0,0,1,1.558.322,2.481,2.481,0,0,1,1.064.846,3.378,3.378,0,0,1,.494,1.243,10.233,10.233,0,0,1,.088,1.636v6.1h-1.589v-6.037a4.772,4.772,0,0,0-.186-1.538,1.594,1.594,0,0,0-.657-0.812,2,2,0,0,0-1.107-.3,2.494,2.494,0,0,0-1.752.682,3.5,3.5,0,0,0-.737,2.589v5.421h-1.589Z" transform="translate(-8.722 -7.52)"/><path class="cls-3" d="M235.05,333.872V332.62a2.877,2.877,0,0,1-2.621,1.477,3.533,3.533,0,0,1-2.061-.654,4.252,4.252,0,0,1-1.457-1.827,6.643,6.643,0,0,1-.516-2.7,7.409,7.409,0,0,1,.468-2.7,3.87,3.87,0,0,1,1.4-1.855,3.6,3.6,0,0,1,2.092-.645,2.989,2.989,0,0,1,1.509.378,3.219,3.219,0,0,1,1.077.986v-4.916h1.58v13.7H235.05Zm-5.021-4.953a4.5,4.5,0,0,0,.759,2.851,2.247,2.247,0,0,0,1.792.943,2.2,2.2,0,0,0,1.77-.9,4.335,4.335,0,0,0,.729-2.753,4.871,4.871,0,0,0-.742-2.99,2.236,2.236,0,0,0-1.827-.953,2.157,2.157,0,0,0-1.77.916A4.719,4.719,0,0,0,230.028,328.919Z" transform="translate(-8.722 -7.52)"/><path class="cls-3" d="M244.247,333.872v-13.7H248.7a10.221,10.221,0,0,1,2.3.2,4.288,4.288,0,0,1,1.9.981,5.593,5.593,0,0,1,1.532,2.341,9.692,9.692,0,0,1,.507,3.257,10.1,10.1,0,0,1-.344,2.767,6.906,6.906,0,0,1-.883,2,4.819,4.819,0,0,1-1.179,1.243,4.667,4.667,0,0,1-1.544.688,8.379,8.379,0,0,1-2.079.233h-4.669Zm1.712-1.617h2.763a6.371,6.371,0,0,0,2.009-.252,2.842,2.842,0,0,0,1.16-.71,4.386,4.386,0,0,0,.949-1.734,8.935,8.935,0,0,0,.34-2.64,6.683,6.683,0,0,0-.667-3.3,3.429,3.429,0,0,0-1.619-1.547,6.334,6.334,0,0,0-2.216-.28h-2.719v10.467Z" transform="translate(-8.722 -7.52)"/><path class="cls-3" d="M263.516,330.676l1.642,0.215a4.268,4.268,0,0,1-1.438,2.364,4.661,4.661,0,0,1-5.944-.5,5.429,5.429,0,0,1-1.205-3.762,5.693,5.693,0,0,1,1.218-3.888,4.015,4.015,0,0,1,3.16-1.383,3.9,3.9,0,0,1,3.071,1.354,5.591,5.591,0,0,1,1.191,3.813q0,0.149-.009.448h-6.99a3.939,3.939,0,0,0,.874,2.5,2.529,2.529,0,0,0,1.959.869,2.344,2.344,0,0,0,1.492-.485A3.248,3.248,0,0,0,263.516,330.676Zm-5.217-2.72h5.234a3.486,3.486,0,0,0-.6-1.879,2.384,2.384,0,0,0-1.968-.972,2.455,2.455,0,0,0-1.841.775A3.167,3.167,0,0,0,258.3,327.956Z" transform="translate(-8.722 -7.52)"/><path class="cls-3" d="M273.016,332.648a5.886,5.886,0,0,1-1.7,1.122,4.677,4.677,0,0,1-1.752.327,3.287,3.287,0,0,1-2.375-.8,2.711,2.711,0,0,1-.829-2.042,2.84,2.84,0,0,1,.313-1.331,2.692,2.692,0,0,1,.82-0.968,3.775,3.775,0,0,1,1.144-.552,10.834,10.834,0,0,1,1.412-.252,13.882,13.882,0,0,0,2.833-.579q0.009-.346.009-0.439a1.928,1.928,0,0,0-.45-1.449,2.56,2.56,0,0,0-1.81-.569,2.682,2.682,0,0,0-1.654.416,2.568,2.568,0,0,0-.79,1.472l-1.554-.225a4.2,4.2,0,0,1,.7-1.705,3.046,3.046,0,0,1,1.4-1,5.929,5.929,0,0,1,2.127-.351,5.352,5.352,0,0,1,1.951.3,2.563,2.563,0,0,1,1.1.752,2.734,2.734,0,0,1,.5,1.146,10.055,10.055,0,0,1,.079,1.551v2.243a25.26,25.26,0,0,0,.1,2.968,3.877,3.877,0,0,0,.4,1.191h-1.659A3.715,3.715,0,0,1,273.016,332.648Zm-0.133-3.757a11.149,11.149,0,0,1-2.595.636,5.751,5.751,0,0,0-1.386.336,1.413,1.413,0,0,0-.627.547,1.5,1.5,0,0,0-.221.8,1.468,1.468,0,0,0,.481,1.122,1.993,1.993,0,0,0,1.407.448,3.134,3.134,0,0,0,1.633-.425,2.562,2.562,0,0,0,1.051-1.164,4.27,4.27,0,0,0,.256-1.682v-0.617Z" transform="translate(-8.722 -7.52)"/><path class="cls-3" d="M280.42,332.367l0.229,1.486a5.587,5.587,0,0,1-1.2.149,2.59,2.59,0,0,1-1.342-.29,1.588,1.588,0,0,1-.671-0.762,6.371,6.371,0,0,1-.194-1.985v-5.711h-1.165v-1.309h1.165v-2.458l1.58-1.009v3.467h1.6v1.309h-1.6v5.8a3.1,3.1,0,0,0,.084.926,0.693,0.693,0,0,0,.273.327,1.01,1.01,0,0,0,.543.121A4.834,4.834,0,0,0,280.42,332.367Z" transform="translate(-8.722 -7.52)"/><path class="cls-3" d="M281.974,333.872v-13.7h1.589v4.916a3.469,3.469,0,0,1,2.807-1.364,3.61,3.61,0,0,1,1.81.435,2.49,2.49,0,0,1,1.1,1.2,5.834,5.834,0,0,1,.331,2.225v6.29H288.02v-6.29a2.7,2.7,0,0,0-.516-1.836,1.862,1.862,0,0,0-1.461-.575,2.478,2.478,0,0,0-1.329.388,2.16,2.16,0,0,0-.887,1.052,5.082,5.082,0,0,0-.265,1.832v5.43h-1.589Z" transform="translate(-8.722 -7.52)"/><path class="cls-3" d="M193.335,358.813v-1.682a5.638,5.638,0,0,1-1.937-.565,3.467,3.467,0,0,1-1.289-1.313,4.9,4.9,0,0,1-.631-2.215l1.6-.317a4.413,4.413,0,0,0,.653,1.99,2.294,2.294,0,0,0,1.605,1v-5.355a6.411,6.411,0,0,1-2-.8,3.021,3.021,0,0,1-1.17-1.243,3.873,3.873,0,0,1-.41-1.8,3.777,3.777,0,0,1,1.2-2.906,4.044,4.044,0,0,1,2.383-.916v-0.8h0.936v0.8a3.8,3.8,0,0,1,2.2.86,3.889,3.889,0,0,1,1.253,2.514l-1.642.262a2.967,2.967,0,0,0-.587-1.519,2.129,2.129,0,0,0-1.223-.7v4.851a12.107,12.107,0,0,1,1.589.5,3.928,3.928,0,0,1,1.21.841,3.416,3.416,0,0,1,.719,1.178,4.533,4.533,0,0,1-.8,4.393,3.759,3.759,0,0,1-2.719,1.253v1.7h-0.936Zm0-14.729a2.315,2.315,0,0,0-1.46.784,2.444,2.444,0,0,0-.08,2.944,3.1,3.1,0,0,0,1.54.926v-4.654Zm0.936,11.626a2.318,2.318,0,0,0,1.532-.851,2.735,2.735,0,0,0,.6-1.8,2.343,2.343,0,0,0-.429-1.472,3.645,3.645,0,0,0-1.708-1v5.122Z" transform="translate(-8.722 -7.52)"/><path class="cls-3" d="M199.646,353.224l1.589-.224a3.8,3.8,0,0,0,.932,2.061,2.224,2.224,0,0,0,1.6.631,2.5,2.5,0,0,0,1.894-.822,2.865,2.865,0,0,0,.772-2.038,2.664,2.664,0,0,0-.715-1.911,2.4,2.4,0,0,0-1.818-.752,4.347,4.347,0,0,0-1.121.187l0.177-1.477a2.216,2.216,0,0,0,.256.019,3.14,3.14,0,0,0,1.827-.561,1.957,1.957,0,0,0,.812-1.729,2.111,2.111,0,0,0-.591-1.533,2.037,2.037,0,0,0-1.527-.607,2.1,2.1,0,0,0-1.545.617,3.171,3.171,0,0,0-.794,1.851l-1.589-.3a4.4,4.4,0,0,1,1.324-2.621,3.694,3.694,0,0,1,2.568-.93,4.043,4.043,0,0,1,1.95.48,3.371,3.371,0,0,1,1.364,1.313,3.527,3.527,0,0,1,.472,1.767,3.016,3.016,0,0,1-.45,1.616,3.113,3.113,0,0,1-1.333,1.159,2.987,2.987,0,0,1,1.783,1.164,3.685,3.685,0,0,1,.636,2.21,4.162,4.162,0,0,1-1.235,3.042,4.215,4.215,0,0,1-3.125,1.248,3.934,3.934,0,0,1-2.829-1.075A4.253,4.253,0,0,1,199.646,353.224Z" transform="translate(-8.722 -7.52)"/><path class="cls-3" d="M210.547,356.841v-1.916h1.81v1.916a3.57,3.57,0,0,1-.354,1.706,2.338,2.338,0,0,1-1.121,1l-0.441-.72a1.539,1.539,0,0,0,.742-0.687,3.081,3.081,0,0,0,.265-1.3h-0.9Z" transform="translate(-8.722 -7.52)"/><path class="cls-3" d="M214.818,344.934v-1.616h8.376v1.309a18.689,18.689,0,0,0-2.449,3.7,23.277,23.277,0,0,0-1.876,4.748,18.6,18.6,0,0,0-.608,3.767h-1.633a17.665,17.665,0,0,1,.6-3.906,21.261,21.261,0,0,1,1.646-4.416,19.012,19.012,0,0,1,2.281-3.585h-6.337Z" transform="translate(-8.722 -7.52)"/><path class="cls-3" d="M224.766,350.084a13.2,13.2,0,0,1,.473-3.911,4.884,4.884,0,0,1,1.4-2.285,3.454,3.454,0,0,1,2.343-.8,3.65,3.65,0,0,1,1.827.443,3.579,3.579,0,0,1,1.3,1.28,7.085,7.085,0,0,1,.8,2.038,14.283,14.283,0,0,1,.292,3.238,13.278,13.278,0,0,1-.468,3.893,4.9,4.9,0,0,1-1.4,2.289,3.782,3.782,0,0,1-5.291-.611Q224.766,353.943,224.766,350.084Zm1.633,0q0,3.374.746,4.49a2.072,2.072,0,0,0,3.681,0q0.746-1.121.746-4.485,0-3.384-.746-4.5a2.188,2.188,0,0,0-1.858-1.111,2.006,2.006,0,0,0-1.747.98Q226.4,346.71,226.4,350.084Z" transform="translate(-8.722 -7.52)"/><path class="cls-3" d="M234.818,350.084a13.2,13.2,0,0,1,.473-3.911,4.884,4.884,0,0,1,1.4-2.285,3.454,3.454,0,0,1,2.343-.8,3.65,3.65,0,0,1,1.827.443,3.579,3.579,0,0,1,1.3,1.28,7.085,7.085,0,0,1,.8,2.038,14.283,14.283,0,0,1,.292,3.238,13.278,13.278,0,0,1-.468,3.893,4.9,4.9,0,0,1-1.4,2.289,3.782,3.782,0,0,1-5.291-.611Q234.818,353.943,234.818,350.084Zm1.633,0q0,3.374.746,4.49a2.072,2.072,0,0,0,3.681,0q0.746-1.121.746-4.485,0-3.384-.746-4.5a2.188,2.188,0,0,0-1.858-1.111,2.006,2.006,0,0,0-1.747.98Q236.451,346.71,236.451,350.084Z" transform="translate(-8.722 -7.52)"/><path class="cls-3" d="M245.729,356.841v-1.916h1.81v1.916a3.57,3.57,0,0,1-.354,1.706,2.338,2.338,0,0,1-1.121,1l-0.441-.72a1.539,1.539,0,0,0,.742-0.687,3.081,3.081,0,0,0,.265-1.3h-0.9Z" transform="translate(-8.722 -7.52)"/><path class="cls-3" d="M249.894,350.084a13.2,13.2,0,0,1,.473-3.911,4.884,4.884,0,0,1,1.4-2.285,3.454,3.454,0,0,1,2.343-.8,3.65,3.65,0,0,1,1.827.443,3.579,3.579,0,0,1,1.3,1.28,7.085,7.085,0,0,1,.8,2.038,14.283,14.283,0,0,1,.292,3.238,13.278,13.278,0,0,1-.468,3.893,4.9,4.9,0,0,1-1.4,2.289,3.782,3.782,0,0,1-5.291-.611Q249.894,353.943,249.894,350.084Zm1.633,0q0,3.374.746,4.49a2.072,2.072,0,0,0,3.681,0q0.746-1.121.746-4.485,0-3.384-.746-4.5a2.188,2.188,0,0,0-1.858-1.111,2.006,2.006,0,0,0-1.747.98Q251.526,346.71,251.526,350.084Z" transform="translate(-8.722 -7.52)"/><path class="cls-3" d="M259.947,350.084a13.2,13.2,0,0,1,.473-3.911,4.884,4.884,0,0,1,1.4-2.285,3.454,3.454,0,0,1,2.343-.8,3.65,3.65,0,0,1,1.827.443,3.579,3.579,0,0,1,1.3,1.28,7.085,7.085,0,0,1,.8,2.038,14.283,14.283,0,0,1,.292,3.238,13.278,13.278,0,0,1-.468,3.893,4.9,4.9,0,0,1-1.4,2.289,3.782,3.782,0,0,1-5.291-.611Q259.947,353.943,259.947,350.084Zm1.633,0q0,3.374.746,4.49a2.072,2.072,0,0,0,3.681,0q0.746-1.121.746-4.485,0-3.384-.746-4.5a2.188,2.188,0,0,0-1.858-1.111,2.006,2.006,0,0,0-1.747.98Q261.58,346.71,261.58,350.084Z" transform="translate(-8.722 -7.52)"/><path class="cls-3" d="M270,350.084a13.2,13.2,0,0,1,.473-3.911,4.884,4.884,0,0,1,1.4-2.285,3.454,3.454,0,0,1,2.343-.8,3.65,3.65,0,0,1,1.827.443,3.579,3.579,0,0,1,1.3,1.28,7.085,7.085,0,0,1,.8,2.038,14.283,14.283,0,0,1,.292,3.238,13.278,13.278,0,0,1-.468,3.893,4.9,4.9,0,0,1-1.4,2.289,3.782,3.782,0,0,1-5.291-.611Q270,353.943,270,350.084Zm1.633,0q0,3.374.746,4.49a2.072,2.072,0,0,0,3.681,0q0.746-1.121.746-4.485,0-3.384-.746-4.5a2.188,2.188,0,0,0-1.858-1.111,2.006,2.006,0,0,0-1.747.98Q271.632,346.71,271.633,350.084Z" transform="translate(-8.722 -7.52)"/><path class="cls-3" d="M152.614,408.042V395.958h-4.263v-1.617h10.256v1.617h-4.281v12.084h-1.712Z" transform="translate(-8.722 -7.52)"/><path class="cls-3" d="M164.976,406.817a5.873,5.873,0,0,1-1.7,1.122,4.67,4.67,0,0,1-1.752.327,3.283,3.283,0,0,1-2.374-.8,2.71,2.71,0,0,1-.83-2.042,2.84,2.84,0,0,1,.313-1.331,2.7,2.7,0,0,1,.821-0.968,3.772,3.772,0,0,1,1.143-.552,10.86,10.86,0,0,1,1.413-.252,13.874,13.874,0,0,0,2.833-.579q0.009-.346.009-0.439a1.926,1.926,0,0,0-.45-1.449,2.56,2.56,0,0,0-1.809-.569,2.685,2.685,0,0,0-1.655.416,2.577,2.577,0,0,0-.79,1.472l-1.553-.225a4.191,4.191,0,0,1,.7-1.705,3.052,3.052,0,0,1,1.4-1,5.926,5.926,0,0,1,2.127-.351,5.346,5.346,0,0,1,1.95.3,2.563,2.563,0,0,1,1.1.752,2.727,2.727,0,0,1,.494,1.146,9.973,9.973,0,0,1,.08,1.551v2.243a25.146,25.146,0,0,0,.1,2.968,3.877,3.877,0,0,0,.4,1.191h-1.659A3.715,3.715,0,0,1,164.976,406.817Zm-0.132-3.757a11.149,11.149,0,0,1-2.595.636,5.751,5.751,0,0,0-1.386.336,1.407,1.407,0,0,0-.627.547,1.5,1.5,0,0,0-.221.8,1.469,1.469,0,0,0,.481,1.122,2,2,0,0,0,1.408.448,3.135,3.135,0,0,0,1.633-.425,2.561,2.561,0,0,0,1.05-1.164,4.279,4.279,0,0,0,.256-1.682v-0.617Z" transform="translate(-8.722 -7.52)"/><path class="cls-3" d="M167.854,408.042l3.425-5.159-3.169-4.767H170.1l1.438,2.327q0.406,0.664.653,1.112,0.388-.617.715-1.093l1.58-2.347h1.9l-3.239,4.674,3.486,5.252h-1.951l-1.924-3.084-0.512-.832-2.462,3.916h-1.924Z" transform="translate(-8.722 -7.52)"/><path class="cls-3" d="M183.887,406.817a5.873,5.873,0,0,1-1.7,1.122,4.67,4.67,0,0,1-1.752.327,3.283,3.283,0,0,1-2.374-.8,2.71,2.71,0,0,1-.83-2.042,2.84,2.84,0,0,1,.313-1.331,2.7,2.7,0,0,1,.821-0.968,3.772,3.772,0,0,1,1.143-.552,10.86,10.86,0,0,1,1.413-.252,13.874,13.874,0,0,0,2.833-.579q0.009-.346.009-0.439a1.926,1.926,0,0,0-.45-1.449,2.56,2.56,0,0,0-1.809-.569,2.685,2.685,0,0,0-1.655.416,2.577,2.577,0,0,0-.79,1.472l-1.553-.225a4.191,4.191,0,0,1,.7-1.705,3.052,3.052,0,0,1,1.4-1,5.926,5.926,0,0,1,2.127-.351,5.346,5.346,0,0,1,1.95.3,2.563,2.563,0,0,1,1.1.752,2.727,2.727,0,0,1,.494,1.146,9.973,9.973,0,0,1,.08,1.551v2.243a25.146,25.146,0,0,0,.1,2.968,3.877,3.877,0,0,0,.4,1.191H184.2A3.715,3.715,0,0,1,183.887,406.817Zm-0.132-3.757a11.149,11.149,0,0,1-2.595.636,5.751,5.751,0,0,0-1.386.336,1.407,1.407,0,0,0-.627.547,1.5,1.5,0,0,0-.221.8,1.469,1.469,0,0,0,.481,1.122,2,2,0,0,0,1.408.448,3.135,3.135,0,0,0,1.633-.425,2.561,2.561,0,0,0,1.05-1.164,4.279,4.279,0,0,0,.256-1.682v-0.617Z" transform="translate(-8.722 -7.52)"/><path class="cls-3" d="M189.288,408.042h-1.474v-13.7H189.4v4.888a3.086,3.086,0,0,1,2.569-1.336,3.751,3.751,0,0,1,1.637.369,3.369,3.369,0,0,1,1.271,1.037,5.165,5.165,0,0,1,.781,1.612,7.032,7.032,0,0,1,.281,2.019,5.887,5.887,0,0,1-1.191,3.944,3.641,3.641,0,0,1-2.859,1.393,2.944,2.944,0,0,1-2.6-1.468v1.243ZM189.271,403a5.407,5.407,0,0,0,.459,2.579,2.272,2.272,0,0,0,2.029,1.3,2.242,2.242,0,0,0,1.8-.958,4.536,4.536,0,0,0,.76-2.854,4.612,4.612,0,0,0-.729-2.869,2.177,2.177,0,0,0-1.762-.926,2.244,2.244,0,0,0-1.8.958A4.382,4.382,0,0,0,189.271,403Z" transform="translate(-8.722 -7.52)"/><path class="cls-3" d="M197.841,408.042v-13.7h1.589v13.7h-1.589Z" transform="translate(-8.722 -7.52)"/><path class="cls-3" d="M208.309,404.846l1.642,0.215a4.268,4.268,0,0,1-1.438,2.364,4.661,4.661,0,0,1-5.944-.5,5.429,5.429,0,0,1-1.205-3.762,5.693,5.693,0,0,1,1.218-3.888,4.015,4.015,0,0,1,3.16-1.383,3.9,3.9,0,0,1,3.071,1.354A5.591,5.591,0,0,1,210,403.061q0,0.149-.009.448H203a3.939,3.939,0,0,0,.874,2.5,2.529,2.529,0,0,0,1.959.869,2.344,2.344,0,0,0,1.492-.485A3.248,3.248,0,0,0,208.309,404.846Zm-5.217-2.72h5.234a3.486,3.486,0,0,0-.6-1.879,2.384,2.384,0,0,0-1.968-.972,2.455,2.455,0,0,0-1.841.775A3.167,3.167,0,0,0,203.092,402.126Z" transform="translate(-8.722 -7.52)"/><path class="cls-3" d="M217.206,408.042v-13.7h9.356v1.617h-7.644v4.2h7.157v1.607h-7.157v4.663h7.943v1.617h-9.656Z" transform="translate(-8.722 -7.52)"/><path class="cls-3" d="M228.389,405.079l1.571-.262a2.376,2.376,0,0,0,.737,1.533,2.476,2.476,0,0,0,1.69.532,2.387,2.387,0,0,0,1.624-.472,1.442,1.442,0,0,0,.529-1.107,1.039,1.039,0,0,0-.468-0.9,6.631,6.631,0,0,0-1.624-.57,14.247,14.247,0,0,1-2.423-.808,2.4,2.4,0,0,1-1.023-.944,2.6,2.6,0,0,1-.349-1.332,2.7,2.7,0,0,1,1.067-2.168,3.206,3.206,0,0,1,1.011-.491,4.561,4.561,0,0,1,1.372-.2,5.164,5.164,0,0,1,1.938.336,2.645,2.645,0,0,1,1.231.911,3.691,3.691,0,0,1,.547,1.538l-1.553.224a1.836,1.836,0,0,0-.613-1.2,2.16,2.16,0,0,0-1.435-.43,2.49,2.49,0,0,0-1.562.383,1.136,1.136,0,0,0-.468.9,0.959,0.959,0,0,0,.194.589,1.405,1.405,0,0,0,.609.449q0.237,0.092,1.4.43a18.737,18.737,0,0,1,2.352.78,2.416,2.416,0,0,1,1.046.883,2.575,2.575,0,0,1,.38,1.439,2.944,2.944,0,0,1-.463,1.584,3.039,3.039,0,0,1-1.338,1.149,4.623,4.623,0,0,1-1.977.407,4.232,4.232,0,0,1-2.785-.8A3.8,3.8,0,0,1,228.389,405.079Z" transform="translate(-8.722 -7.52)"/><path class="cls-3" d="M241.531,406.537l0.229,1.486a5.587,5.587,0,0,1-1.2.149,2.59,2.59,0,0,1-1.342-.29,1.588,1.588,0,0,1-.671-0.762,6.371,6.371,0,0,1-.194-1.985v-5.711h-1.165v-1.309h1.165v-2.458l1.58-1.009v3.467h1.6v1.309h-1.6v5.8a3.1,3.1,0,0,0,.084.926,0.693,0.693,0,0,0,.273.327,1.01,1.01,0,0,0,.543.121A4.834,4.834,0,0,0,241.531,406.537Z" transform="translate(-8.722 -7.52)"/><path class="cls-3" d="M248.876,406.817a5.886,5.886,0,0,1-1.7,1.122,4.677,4.677,0,0,1-1.752.327,3.287,3.287,0,0,1-2.375-.8,2.711,2.711,0,0,1-.829-2.042,2.84,2.84,0,0,1,.313-1.331,2.692,2.692,0,0,1,.82-0.968,3.775,3.775,0,0,1,1.144-.552,10.834,10.834,0,0,1,1.412-.252,13.882,13.882,0,0,0,2.833-.579q0.009-.346.009-0.439a1.928,1.928,0,0,0-.45-1.449,2.56,2.56,0,0,0-1.81-.569,2.682,2.682,0,0,0-1.654.416,2.568,2.568,0,0,0-.79,1.472l-1.554-.225a4.2,4.2,0,0,1,.7-1.705,3.046,3.046,0,0,1,1.4-1,5.929,5.929,0,0,1,2.127-.351,5.352,5.352,0,0,1,1.951.3,2.563,2.563,0,0,1,1.1.752,2.734,2.734,0,0,1,.5,1.146,10.055,10.055,0,0,1,.079,1.551v2.243a25.26,25.26,0,0,0,.1,2.968,3.877,3.877,0,0,0,.4,1.191h-1.659A3.715,3.715,0,0,1,248.876,406.817Zm-0.133-3.757a11.149,11.149,0,0,1-2.595.636,5.751,5.751,0,0,0-1.386.336,1.413,1.413,0,0,0-.627.547,1.5,1.5,0,0,0-.221.8,1.468,1.468,0,0,0,.481,1.122,1.993,1.993,0,0,0,1.407.448,3.134,3.134,0,0,0,1.633-.425,2.562,2.562,0,0,0,1.051-1.164,4.27,4.27,0,0,0,.256-1.682v-0.617Z" transform="translate(-8.722 -7.52)"/><path class="cls-3" d="M256.281,406.537l0.229,1.486a5.587,5.587,0,0,1-1.2.149,2.59,2.59,0,0,1-1.342-.29,1.588,1.588,0,0,1-.671-0.762,6.371,6.371,0,0,1-.194-1.985v-5.711h-1.165v-1.309H253.1v-2.458l1.58-1.009v3.467h1.6v1.309h-1.6v5.8a3.1,3.1,0,0,0,.084.926,0.693,0.693,0,0,0,.273.327,1.01,1.01,0,0,0,.543.121A4.834,4.834,0,0,0,256.281,406.537Z" transform="translate(-8.722 -7.52)"/><path class="cls-3" d="M264.07,404.846l1.642,0.215a4.268,4.268,0,0,1-1.438,2.364,4.661,4.661,0,0,1-5.944-.5,5.429,5.429,0,0,1-1.205-3.762,5.693,5.693,0,0,1,1.218-3.888,4.015,4.015,0,0,1,3.16-1.383,3.9,3.9,0,0,1,3.071,1.354,5.591,5.591,0,0,1,1.191,3.813q0,0.149-.009.448h-6.99a3.939,3.939,0,0,0,.874,2.5,2.529,2.529,0,0,0,1.959.869,2.344,2.344,0,0,0,1.492-.485A3.248,3.248,0,0,0,264.07,404.846Zm-5.217-2.72h5.234a3.486,3.486,0,0,0-.6-1.879,2.384,2.384,0,0,0-1.968-.972,2.455,2.455,0,0,0-1.841.775A3.167,3.167,0,0,0,258.854,402.126Z" transform="translate(-8.722 -7.52)"/><path class="cls-3" d="M152.614,431.011V418.927h-4.263V417.31h10.256v1.617h-4.281v12.084h-1.712Z" transform="translate(-8.722 -7.52)"/><path class="cls-3" d="M164.976,429.786a5.873,5.873,0,0,1-1.7,1.122,4.67,4.67,0,0,1-1.752.327,3.283,3.283,0,0,1-2.374-.8,2.71,2.71,0,0,1-.83-2.042,2.84,2.84,0,0,1,.313-1.331,2.7,2.7,0,0,1,.821-0.968,3.772,3.772,0,0,1,1.143-.552,10.86,10.86,0,0,1,1.413-.252,13.874,13.874,0,0,0,2.833-.579q0.009-.346.009-0.439a1.926,1.926,0,0,0-.45-1.449,2.56,2.56,0,0,0-1.809-.569,2.685,2.685,0,0,0-1.655.416,2.577,2.577,0,0,0-.79,1.472l-1.553-.225a4.191,4.191,0,0,1,.7-1.705,3.052,3.052,0,0,1,1.4-1,5.926,5.926,0,0,1,2.127-.351,5.346,5.346,0,0,1,1.95.3,2.563,2.563,0,0,1,1.1.752,2.727,2.727,0,0,1,.494,1.146,9.973,9.973,0,0,1,.08,1.551v2.243a25.146,25.146,0,0,0,.1,2.968,3.877,3.877,0,0,0,.4,1.191h-1.659A3.715,3.715,0,0,1,164.976,429.786Zm-0.132-3.757a11.149,11.149,0,0,1-2.595.636,5.751,5.751,0,0,0-1.386.336,1.407,1.407,0,0,0-.627.547,1.5,1.5,0,0,0-.221.8,1.469,1.469,0,0,0,.481,1.122,2,2,0,0,0,1.408.448,3.135,3.135,0,0,0,1.633-.425,2.561,2.561,0,0,0,1.05-1.164,4.279,4.279,0,0,0,.256-1.682v-0.617Z" transform="translate(-8.722 -7.52)"/><path class="cls-3" d="M167.854,431.011l3.425-5.159-3.169-4.767H170.1l1.438,2.327q0.406,0.664.653,1.112,0.388-.617.715-1.093l1.58-2.347h1.9l-3.239,4.674,3.486,5.252h-1.951l-1.924-3.084-0.512-.832-2.462,3.916h-1.924Z" transform="translate(-8.722 -7.52)"/><path class="cls-3" d="M183.887,429.786a5.873,5.873,0,0,1-1.7,1.122,4.67,4.67,0,0,1-1.752.327,3.283,3.283,0,0,1-2.374-.8,2.71,2.71,0,0,1-.83-2.042,2.84,2.84,0,0,1,.313-1.331,2.7,2.7,0,0,1,.821-0.968,3.772,3.772,0,0,1,1.143-.552,10.86,10.86,0,0,1,1.413-.252,13.874,13.874,0,0,0,2.833-.579q0.009-.346.009-0.439a1.926,1.926,0,0,0-.45-1.449,2.56,2.56,0,0,0-1.809-.569,2.685,2.685,0,0,0-1.655.416,2.577,2.577,0,0,0-.79,1.472l-1.553-.225a4.191,4.191,0,0,1,.7-1.705,3.052,3.052,0,0,1,1.4-1,5.926,5.926,0,0,1,2.127-.351,5.346,5.346,0,0,1,1.95.3,2.563,2.563,0,0,1,1.1.752,2.727,2.727,0,0,1,.494,1.146,9.973,9.973,0,0,1,.08,1.551v2.243a25.146,25.146,0,0,0,.1,2.968,3.877,3.877,0,0,0,.4,1.191H184.2A3.715,3.715,0,0,1,183.887,429.786Zm-0.132-3.757a11.149,11.149,0,0,1-2.595.636,5.751,5.751,0,0,0-1.386.336,1.407,1.407,0,0,0-.627.547,1.5,1.5,0,0,0-.221.8,1.469,1.469,0,0,0,.481,1.122,2,2,0,0,0,1.408.448,3.135,3.135,0,0,0,1.633-.425,2.561,2.561,0,0,0,1.05-1.164,4.279,4.279,0,0,0,.256-1.682v-0.617Z" transform="translate(-8.722 -7.52)"/><path class="cls-3" d="M189.288,431.011h-1.474v-13.7H189.4V422.2a3.086,3.086,0,0,1,2.569-1.336,3.751,3.751,0,0,1,1.637.369,3.369,3.369,0,0,1,1.271,1.037,5.165,5.165,0,0,1,.781,1.612,7.032,7.032,0,0,1,.281,2.019,5.887,5.887,0,0,1-1.191,3.944,3.641,3.641,0,0,1-2.859,1.393,2.944,2.944,0,0,1-2.6-1.468v1.243Zm-0.018-5.037a5.407,5.407,0,0,0,.459,2.579,2.272,2.272,0,0,0,2.029,1.3,2.242,2.242,0,0,0,1.8-.958,4.536,4.536,0,0,0,.76-2.854,4.612,4.612,0,0,0-.729-2.869,2.177,2.177,0,0,0-1.762-.926,2.244,2.244,0,0,0-1.8.958A4.382,4.382,0,0,0,189.271,425.974Z" transform="translate(-8.722 -7.52)"/><path class="cls-3" d="M197.841,431.011v-13.7h1.589v13.7h-1.589Z" transform="translate(-8.722 -7.52)"/><path class="cls-3" d="M208.309,427.815l1.642,0.215a4.268,4.268,0,0,1-1.438,2.364,4.661,4.661,0,0,1-5.944-.5,5.429,5.429,0,0,1-1.205-3.762,5.693,5.693,0,0,1,1.218-3.888,4.015,4.015,0,0,1,3.16-1.383,3.9,3.9,0,0,1,3.071,1.354A5.591,5.591,0,0,1,210,426.029q0,0.149-.009.448H203a3.939,3.939,0,0,0,.874,2.5,2.529,2.529,0,0,0,1.959.869,2.344,2.344,0,0,0,1.492-.485A3.248,3.248,0,0,0,208.309,427.815Zm-5.217-2.72h5.234a3.486,3.486,0,0,0-.6-1.879,2.384,2.384,0,0,0-1.968-.972,2.455,2.455,0,0,0-1.841.775A3.167,3.167,0,0,0,203.092,425.095Z" transform="translate(-8.722 -7.52)"/><path class="cls-3" d="M217.171,431.011v-13.7h4.881a11.176,11.176,0,0,1,1.969.131,3.77,3.77,0,0,1,1.6.641,3.32,3.32,0,0,1,1.036,1.322,4.669,4.669,0,0,1-.657,4.827q-1.05,1.21-3.795,1.21h-3.319v5.57h-1.712Zm1.712-7.187h3.346a3.408,3.408,0,0,0,2.356-.653,2.4,2.4,0,0,0,.7-1.842,2.582,2.582,0,0,0-.41-1.472,1.926,1.926,0,0,0-1.081-.809,6.931,6.931,0,0,0-1.6-.121h-3.311v4.9Z" transform="translate(-8.722 -7.52)"/><path class="cls-3" d="M234.364,429.786a5.886,5.886,0,0,1-1.7,1.122,4.677,4.677,0,0,1-1.752.327,3.287,3.287,0,0,1-2.375-.8,2.711,2.711,0,0,1-.829-2.042,2.84,2.84,0,0,1,.313-1.331,2.692,2.692,0,0,1,.82-0.968,3.775,3.775,0,0,1,1.144-.552,10.834,10.834,0,0,1,1.412-.252,13.882,13.882,0,0,0,2.833-.579q0.009-.346.009-0.439a1.928,1.928,0,0,0-.45-1.449,2.56,2.56,0,0,0-1.81-.569,2.682,2.682,0,0,0-1.654.416,2.568,2.568,0,0,0-.79,1.472l-1.554-.225a4.2,4.2,0,0,1,.7-1.705,3.046,3.046,0,0,1,1.4-1,5.929,5.929,0,0,1,2.127-.351,5.352,5.352,0,0,1,1.951.3,2.563,2.563,0,0,1,1.1.752,2.734,2.734,0,0,1,.5,1.146,10.055,10.055,0,0,1,.079,1.551v2.243a25.26,25.26,0,0,0,.1,2.968,3.877,3.877,0,0,0,.4,1.191h-1.659A3.715,3.715,0,0,1,234.364,429.786Zm-0.133-3.757a11.149,11.149,0,0,1-2.595.636,5.751,5.751,0,0,0-1.386.336,1.413,1.413,0,0,0-.627.547,1.5,1.5,0,0,0-.221.8,1.468,1.468,0,0,0,.481,1.122,1.993,1.993,0,0,0,1.407.448,3.134,3.134,0,0,0,1.633-.425,2.562,2.562,0,0,0,1.051-1.164,4.27,4.27,0,0,0,.256-1.682v-0.617Z" transform="translate(-8.722 -7.52)"/><path class="cls-3" d="M238.309,419.244V417.31H239.9v1.935h-1.589Zm0,11.767v-9.926H239.9v9.926h-1.589Z" transform="translate(-8.722 -7.52)"/><path class="cls-3" d="M248.4,431.011v-1.252a2.877,2.877,0,0,1-2.621,1.477,3.533,3.533,0,0,1-2.061-.654,4.252,4.252,0,0,1-1.457-1.827,6.643,6.643,0,0,1-.516-2.7,7.409,7.409,0,0,1,.468-2.7,3.87,3.87,0,0,1,1.4-1.855,3.6,3.6,0,0,1,2.092-.645,2.989,2.989,0,0,1,1.509.378,3.219,3.219,0,0,1,1.077.986V417.31h1.58v13.7H248.4Zm-5.021-4.953a4.5,4.5,0,0,0,.759,2.851,2.247,2.247,0,0,0,1.792.943,2.2,2.2,0,0,0,1.77-.9,4.335,4.335,0,0,0,.729-2.753,4.871,4.871,0,0,0-.742-2.99,2.236,2.236,0,0,0-1.827-.953,2.157,2.157,0,0,0-1.77.916A4.719,4.719,0,0,0,243.375,426.058Z" transform="translate(-8.722 -7.52)"/><path class="cls-3" d="M252.811,423v-1.916h1.81V423h-1.81Zm0,8.01v-1.916h1.81v1.916h-1.81Z" transform="translate(-8.722 -7.52)"/><path class="cls-3" d="M265.723,432.983V431.3a5.638,5.638,0,0,1-1.937-.565,3.47,3.47,0,0,1-1.289-1.313,4.892,4.892,0,0,1-.631-2.215l1.6-.317a4.413,4.413,0,0,0,.653,1.99,2.294,2.294,0,0,0,1.605,1v-5.355a6.411,6.411,0,0,1-2-.8,3.024,3.024,0,0,1-1.17-1.243,3.873,3.873,0,0,1-.41-1.8,3.779,3.779,0,0,1,1.2-2.906,4.044,4.044,0,0,1,2.383-.916v-0.8h0.936v0.8a3.8,3.8,0,0,1,2.2.86,3.889,3.889,0,0,1,1.253,2.514l-1.642.262a2.967,2.967,0,0,0-.587-1.519,2.129,2.129,0,0,0-1.223-.7v4.851a12.107,12.107,0,0,1,1.589.5,3.928,3.928,0,0,1,1.21.841,3.416,3.416,0,0,1,.719,1.178,4.533,4.533,0,0,1-.8,4.393,3.759,3.759,0,0,1-2.719,1.253v1.7h-0.936Zm0-14.729a2.315,2.315,0,0,0-1.46.784,2.444,2.444,0,0,0-.08,2.944,3.1,3.1,0,0,0,1.54.926v-4.654Zm0.936,11.626a2.318,2.318,0,0,0,1.532-.851,2.735,2.735,0,0,0,.6-1.8,2.343,2.343,0,0,0-.429-1.472,3.645,3.645,0,0,0-1.708-1v5.122Z" transform="translate(-8.722 -7.52)"/><path class="cls-3" d="M272.264,427.843l1.527-.149a2.865,2.865,0,0,0,.741,1.653,1.969,1.969,0,0,0,1.4.515,2.314,2.314,0,0,0,1.284-.355,2.819,2.819,0,0,0,.905-0.948,5.779,5.779,0,0,0,.591-1.6,8.909,8.909,0,0,0,.238-2.057c0-.075,0-0.187-0.009-0.336a3.747,3.747,0,0,1-1.3,1.3,3.39,3.39,0,0,1-1.787.5,3.523,3.523,0,0,1-2.719-1.234,4.672,4.672,0,0,1-1.112-3.252,4.78,4.78,0,0,1,1.161-3.355,3.775,3.775,0,0,1,2.908-1.271,3.984,3.984,0,0,1,2.308.719,4.451,4.451,0,0,1,1.589,2.052,10.635,10.635,0,0,1,.543,3.855,13.181,13.181,0,0,1-.538,4.183,4.9,4.9,0,0,1-1.6,2.369,3.988,3.988,0,0,1-2.493.813,3.5,3.5,0,0,1-2.48-.893A3.925,3.925,0,0,1,272.264,427.843Zm6.5-6.047a3.42,3.42,0,0,0-.728-2.3,2.232,2.232,0,0,0-1.752-.85,2.366,2.366,0,0,0-1.845.915,3.517,3.517,0,0,0-.786,2.374,3.035,3.035,0,0,0,.746,2.127,2.392,2.392,0,0,0,1.84.817,2.3,2.3,0,0,0,1.814-.817A3.344,3.344,0,0,0,278.769,421.8Z" transform="translate(-8.722 -7.52)"/><path class="cls-3" d="M282.078,424.254a13.2,13.2,0,0,1,.473-3.911,4.884,4.884,0,0,1,1.4-2.285,3.454,3.454,0,0,1,2.343-.8,3.65,3.65,0,0,1,1.827.443,3.579,3.579,0,0,1,1.3,1.28,7.085,7.085,0,0,1,.8,2.038,14.283,14.283,0,0,1,.292,3.238,13.278,13.278,0,0,1-.468,3.893,4.9,4.9,0,0,1-1.4,2.289,3.782,3.782,0,0,1-5.291-.611Q282.078,428.113,282.078,424.254Zm1.633,0q0,3.374.746,4.49a2.072,2.072,0,0,0,3.681,0q0.746-1.121.746-4.485,0-3.384-.746-4.5a2.188,2.188,0,0,0-1.858-1.111,2.006,2.006,0,0,0-1.747.98Q283.711,420.879,283.711,424.254Z" transform="translate(-8.722 -7.52)"/><path class="cls-3" d="M292.987,431.011v-1.916h1.81v1.916a3.57,3.57,0,0,1-.354,1.706,2.338,2.338,0,0,1-1.121,1l-0.441-.72a1.539,1.539,0,0,0,.742-0.687,3.081,3.081,0,0,0,.265-1.3h-0.9Z" transform="translate(-8.722 -7.52)"/><path class="cls-3" d="M297.153,424.254a13.2,13.2,0,0,1,.473-3.911,4.884,4.884,0,0,1,1.4-2.285,3.454,3.454,0,0,1,2.343-.8,3.65,3.65,0,0,1,1.827.443,3.579,3.579,0,0,1,1.3,1.28,7.085,7.085,0,0,1,.8,2.038,14.283,14.283,0,0,1,.292,3.238,13.278,13.278,0,0,1-.468,3.893,4.9,4.9,0,0,1-1.4,2.289,3.782,3.782,0,0,1-5.291-.611Q297.153,428.113,297.153,424.254Zm1.633,0q0,3.374.746,4.49a2.072,2.072,0,0,0,3.681,0q0.746-1.121.746-4.485,0-3.384-.746-4.5a2.188,2.188,0,0,0-1.858-1.111,2.006,2.006,0,0,0-1.747.98Q298.786,420.879,298.786,424.254Z" transform="translate(-8.722 -7.52)"/><path class="cls-3" d="M307.206,424.254a13.2,13.2,0,0,1,.473-3.911,4.884,4.884,0,0,1,1.4-2.285,3.454,3.454,0,0,1,2.343-.8,3.65,3.65,0,0,1,1.827.443,3.579,3.579,0,0,1,1.3,1.28,7.085,7.085,0,0,1,.8,2.038,14.283,14.283,0,0,1,.292,3.238,13.278,13.278,0,0,1-.468,3.893,4.9,4.9,0,0,1-1.4,2.289,3.782,3.782,0,0,1-5.291-.611Q307.206,428.113,307.206,424.254Zm1.633,0q0,3.374.746,4.49a2.072,2.072,0,0,0,3.681,0q0.746-1.121.746-4.485,0-3.384-.746-4.5a2.188,2.188,0,0,0-1.858-1.111,2.006,2.006,0,0,0-1.747.98Q308.838,420.879,308.839,424.254Z" transform="translate(-8.722 -7.52)"/><path class="cls-3" d="M317.26,424.254a13.2,13.2,0,0,1,.473-3.911,4.884,4.884,0,0,1,1.4-2.285,3.454,3.454,0,0,1,2.343-.8,3.65,3.65,0,0,1,1.827.443,3.579,3.579,0,0,1,1.3,1.28,7.085,7.085,0,0,1,.8,2.038,14.283,14.283,0,0,1,.292,3.238,13.278,13.278,0,0,1-.468,3.893,4.9,4.9,0,0,1-1.4,2.289,3.782,3.782,0,0,1-5.291-.611Q317.26,428.113,317.26,424.254Zm1.633,0q0,3.374.746,4.49a2.072,2.072,0,0,0,3.681,0q0.746-1.121.746-4.485,0-3.384-.746-4.5a2.188,2.188,0,0,0-1.858-1.111,2.006,2.006,0,0,0-1.747.98Q318.892,420.879,318.893,424.254Z" transform="translate(-8.722 -7.52)"/><path class="cls-3" d="M64.864,162.261h1.712v7.916a9.869,9.869,0,0,1-.441,3.28,3.951,3.951,0,0,1-1.593,1.977,5.4,5.4,0,0,1-3.023.762,5.929,5.929,0,0,1-2.974-.664,3.715,3.715,0,0,1-1.65-1.921,9.639,9.639,0,0,1-.495-3.435v-7.916h1.712v7.907a8.129,8.129,0,0,0,.313,2.631,2.479,2.479,0,0,0,1.077,1.3,3.569,3.569,0,0,0,1.867.458,3.444,3.444,0,0,0,2.692-.907q0.8-.906.8-3.486v-7.907Z" transform="translate(-8.722 -7.52)"/><path class="cls-3" d="M69.225,175.962v-9.925h1.43v1.411a3.32,3.32,0,0,1,2.983-1.636,3.721,3.721,0,0,1,1.558.323,2.468,2.468,0,0,1,1.063.846,3.353,3.353,0,0,1,.494,1.243,10.154,10.154,0,0,1,.088,1.635v6.1H75.253v-6.038a4.782,4.782,0,0,0-.185-1.537,1.6,1.6,0,0,0-.658-0.813,2.005,2.005,0,0,0-1.107-.3,2.491,2.491,0,0,0-1.752.683,3.494,3.494,0,0,0-.737,2.588v5.421H69.225Z" transform="translate(-8.722 -7.52)"/><path class="cls-3" d="M79.243,175.962v-13.7h1.589v13.7H79.243Z" transform="translate(-8.722 -7.52)"/><path class="cls-3" d="M83.3,164.2v-1.935h1.589V164.2H83.3Zm0,11.767v-9.925h1.589v9.925H83.3Z" transform="translate(-8.722 -7.52)"/><path class="cls-3" d="M87.31,175.962v-9.925h1.421v1.393a3.42,3.42,0,0,1,1.174-1.173,3.155,3.155,0,0,1,1.668-.444,2.954,2.954,0,0,1,1.708.458,2.438,2.438,0,0,1,.94,1.281,3.329,3.329,0,0,1,2.9-1.739,2.766,2.766,0,0,1,2.145.818,3.631,3.631,0,0,1,.75,2.519v6.813h-1.58V169.71a4.858,4.858,0,0,0-.154-1.453,1.4,1.4,0,0,0-.561-0.715,1.676,1.676,0,0,0-.953-0.271,2.156,2.156,0,0,0-1.642.7,3.186,3.186,0,0,0-.653,2.229v5.767H92.879v-6.449a2.967,2.967,0,0,0-.388-1.682,1.435,1.435,0,0,0-1.271-.561,2.217,2.217,0,0,0-1.24.374,2.1,2.1,0,0,0-.825,1.093,6.5,6.5,0,0,0-.256,2.075v5.149H87.31Z" transform="translate(-8.722 -7.52)"/><path class="cls-3" d="M102.376,164.2v-1.935h1.589V164.2h-1.589Zm0,11.767v-9.925h1.589v9.925h-1.589Z" transform="translate(-8.722 -7.52)"/><path class="cls-3" d="M109.852,174.458l0.229,1.486a5.584,5.584,0,0,1-1.2.149,2.6,2.6,0,0,1-1.342-.29,1.594,1.594,0,0,1-.671-0.762,6.368,6.368,0,0,1-.194-1.986v-5.71H105.51v-1.308h1.165v-2.458l1.58-1.009v3.467h1.6v1.308h-1.6v5.8a3.105,3.105,0,0,0,.084.925,0.691,0.691,0,0,0,.274.327,1.007,1.007,0,0,0,.542.121A4.834,4.834,0,0,0,109.852,174.458Z" transform="translate(-8.722 -7.52)"/><path class="cls-3" d="M117.642,172.766l1.642,0.215a4.275,4.275,0,0,1-1.439,2.365,4.665,4.665,0,0,1-5.944-.5,5.433,5.433,0,0,1-1.2-3.762,5.691,5.691,0,0,1,1.218-3.888,4.015,4.015,0,0,1,3.16-1.383,3.9,3.9,0,0,1,3.071,1.355,5.586,5.586,0,0,1,1.191,3.813c0,0.1,0,.25-0.009.449h-6.99a3.946,3.946,0,0,0,.874,2.5,2.534,2.534,0,0,0,1.959.869,2.337,2.337,0,0,0,1.492-.486A3.238,3.238,0,0,0,117.642,172.766Zm-5.216-2.72h5.234a3.5,3.5,0,0,0-.6-1.878,2.384,2.384,0,0,0-1.968-.972,2.451,2.451,0,0,0-1.84.776A3.158,3.158,0,0,0,112.425,170.046Z" transform="translate(-8.722 -7.52)"/><path class="cls-3" d="M127.359,175.962V174.71a2.877,2.877,0,0,1-2.622,1.477,3.533,3.533,0,0,1-2.061-.654,4.25,4.25,0,0,1-1.456-1.827,6.635,6.635,0,0,1-.517-2.7,7.425,7.425,0,0,1,.468-2.7,3.877,3.877,0,0,1,1.4-1.855,3.605,3.605,0,0,1,2.092-.645,2.987,2.987,0,0,1,1.509.379,3.22,3.22,0,0,1,1.077.986v-4.916h1.58v13.7h-1.474Zm-5.022-4.953a4.488,4.488,0,0,0,.759,2.85,2.246,2.246,0,0,0,1.792.944,2.2,2.2,0,0,0,1.77-.9,4.335,4.335,0,0,0,.728-2.752,4.872,4.872,0,0,0-.741-2.991,2.238,2.238,0,0,0-1.827-.954,2.159,2.159,0,0,0-1.77.916A4.717,4.717,0,0,0,122.337,171.009Z" transform="translate(-8.722 -7.52)"/><path class="cls-3" d="M78.519,198.931v-13.7H81.1l3.063,9.7q0.424,1.355.618,2.028,0.22-.747.688-2.2l3.1-9.533h2.3v13.7h-1.65V187.464l-3.76,11.467H83.911l-3.742-11.664v11.664h-1.65Z" transform="translate(-8.722 -7.52)"/><path class="cls-3" d="M99.543,197.707a5.868,5.868,0,0,1-1.7,1.121,4.66,4.66,0,0,1-1.752.327,3.285,3.285,0,0,1-2.374-.8,2.711,2.711,0,0,1-.83-2.042,2.842,2.842,0,0,1,.313-1.332,2.7,2.7,0,0,1,.821-0.967,3.76,3.76,0,0,1,1.143-.551,10.76,10.76,0,0,1,1.413-.252,13.8,13.8,0,0,0,2.833-.58q0.009-.346.009-0.439a1.923,1.923,0,0,0-.45-1.449,2.56,2.56,0,0,0-1.809-.57,2.685,2.685,0,0,0-1.655.416,2.578,2.578,0,0,0-.79,1.472l-1.553-.225a4.2,4.2,0,0,1,.7-1.706,3.059,3.059,0,0,1,1.4-1,5.948,5.948,0,0,1,2.127-.351,5.345,5.345,0,0,1,1.95.3,2.56,2.56,0,0,1,1.1.752,2.72,2.72,0,0,1,.494,1.145,9.984,9.984,0,0,1,.08,1.552v2.243a25.152,25.152,0,0,0,.1,2.968,3.877,3.877,0,0,0,.4,1.191H99.86A3.715,3.715,0,0,1,99.543,197.707ZM99.41,193.95a11.1,11.1,0,0,1-2.595.636,5.723,5.723,0,0,0-1.386.336,1.4,1.4,0,0,0-.627.546,1.5,1.5,0,0,0-.221.8,1.47,1.47,0,0,0,.481,1.122,2,2,0,0,0,1.408.449,3.135,3.135,0,0,0,1.633-.425,2.562,2.562,0,0,0,1.05-1.164,4.285,4.285,0,0,0,.256-1.683V193.95Z" transform="translate(-8.722 -7.52)"/><path class="cls-3" d="M103.462,198.931v-9.925h1.43v1.5a4.1,4.1,0,0,1,1.011-1.393,1.7,1.7,0,0,1,1.02-.336,2.98,2.98,0,0,1,1.633.542l-0.547,1.561a2.178,2.178,0,0,0-1.165-.364,1.459,1.459,0,0,0-.936.332,1.8,1.8,0,0,0-.591.92,6.922,6.922,0,0,0-.265,1.963v5.2h-1.589Z" transform="translate(-8.722 -7.52)"/><path class="cls-3" d="M109.507,187.165V185.23H111.1v1.935h-1.589Zm0,11.767v-9.925H111.1v9.925h-1.589Z" transform="translate(-8.722 -7.52)"/><path class="cls-3" d="M116.983,197.426l0.229,1.486a5.584,5.584,0,0,1-1.2.149,2.6,2.6,0,0,1-1.342-.29,1.594,1.594,0,0,1-.671-0.762,6.368,6.368,0,0,1-.194-1.986v-5.71h-1.165v-1.308h1.165v-2.458l1.58-1.009v3.467h1.6v1.308h-1.6v5.8a3.105,3.105,0,0,0,.084.925,0.691,0.691,0,0,0,.274.327,1.007,1.007,0,0,0,.542.121A4.834,4.834,0,0,0,116.983,197.426Z" transform="translate(-8.722 -7.52)"/><path class="cls-3" d="M124.328,197.707a5.868,5.868,0,0,1-1.7,1.121,4.66,4.66,0,0,1-1.752.327,3.285,3.285,0,0,1-2.374-.8,2.711,2.711,0,0,1-.83-2.042,2.842,2.842,0,0,1,.313-1.332,2.7,2.7,0,0,1,.821-0.967,3.76,3.76,0,0,1,1.143-.551,10.76,10.76,0,0,1,1.413-.252,13.8,13.8,0,0,0,2.833-.58q0.009-.346.009-0.439a1.923,1.923,0,0,0-.45-1.449,2.56,2.56,0,0,0-1.809-.57,2.685,2.685,0,0,0-1.655.416,2.578,2.578,0,0,0-.79,1.472l-1.553-.225a4.2,4.2,0,0,1,.7-1.706,3.059,3.059,0,0,1,1.4-1,5.948,5.948,0,0,1,2.127-.351,5.345,5.345,0,0,1,1.95.3,2.56,2.56,0,0,1,1.1.752,2.72,2.72,0,0,1,.494,1.145,9.984,9.984,0,0,1,.08,1.552v2.243a25.152,25.152,0,0,0,.1,2.968,3.877,3.877,0,0,0,.4,1.191h-1.659A3.715,3.715,0,0,1,124.328,197.707ZM124.2,193.95a11.1,11.1,0,0,1-2.595.636,5.723,5.723,0,0,0-1.386.336,1.4,1.4,0,0,0-.627.546,1.5,1.5,0,0,0-.221.8,1.47,1.47,0,0,0,.481,1.122,2,2,0,0,0,1.408.449,3.135,3.135,0,0,0,1.633-.425,2.562,2.562,0,0,0,1.05-1.164,4.285,4.285,0,0,0,.256-1.683V193.95Z" transform="translate(-8.722 -7.52)"/><path class="cls-3" d="M128.229,198.931v-13.7h1.589v13.7h-1.589Z" transform="translate(-8.722 -7.52)"/><path class="cls-3" d="M52.867,221.9V208.2h4.458a10.222,10.222,0,0,1,2.3.2,4.29,4.29,0,0,1,1.9.981,5.589,5.589,0,0,1,1.531,2.341,9.681,9.681,0,0,1,.507,3.257,10.1,10.1,0,0,1-.344,2.766,6.89,6.89,0,0,1-.882,2,4.841,4.841,0,0,1-1.178,1.243,4.657,4.657,0,0,1-1.545.687,8.322,8.322,0,0,1-2.079.234H52.867Zm1.712-1.617h2.763a6.36,6.36,0,0,0,2.008-.252,2.842,2.842,0,0,0,1.161-.71,4.381,4.381,0,0,0,.949-1.733,8.942,8.942,0,0,0,.34-2.641,6.686,6.686,0,0,0-.667-3.3,3.425,3.425,0,0,0-1.62-1.547,6.356,6.356,0,0,0-2.215-.28H54.58v10.468Z" transform="translate(-8.722 -7.52)"/><path class="cls-3" d="M72.135,218.7l1.642,0.215a4.275,4.275,0,0,1-1.439,2.365,4.665,4.665,0,0,1-5.944-.5,5.433,5.433,0,0,1-1.2-3.762,5.691,5.691,0,0,1,1.218-3.888,4.015,4.015,0,0,1,3.16-1.383,3.9,3.9,0,0,1,3.071,1.355,5.586,5.586,0,0,1,1.191,3.813c0,0.1,0,.25-0.009.449h-6.99a3.946,3.946,0,0,0,.874,2.5,2.534,2.534,0,0,0,1.959.869,2.337,2.337,0,0,0,1.492-.486A3.238,3.238,0,0,0,72.135,218.7Zm-5.216-2.72h5.234a3.5,3.5,0,0,0-.6-1.878,2.384,2.384,0,0,0-1.968-.972,2.451,2.451,0,0,0-1.84.776A3.158,3.158,0,0,0,66.919,215.985Z" transform="translate(-8.722 -7.52)"/><path class="cls-3" d="M81.853,221.9v-1.252a2.877,2.877,0,0,1-2.622,1.477,3.533,3.533,0,0,1-2.061-.654,4.25,4.25,0,0,1-1.456-1.827,6.635,6.635,0,0,1-.517-2.7,7.425,7.425,0,0,1,.468-2.7,3.877,3.877,0,0,1,1.4-1.855,3.605,3.605,0,0,1,2.092-.645,2.987,2.987,0,0,1,1.509.379,3.22,3.22,0,0,1,1.077.986V208.2h1.58v13.7H81.853Zm-5.022-4.953a4.488,4.488,0,0,0,.759,2.85,2.246,2.246,0,0,0,1.792.944,2.2,2.2,0,0,0,1.77-.9,4.335,4.335,0,0,0,.728-2.752,4.872,4.872,0,0,0-.741-2.991,2.238,2.238,0,0,0-1.827-.954,2.159,2.159,0,0,0-1.77.916A4.717,4.717,0,0,0,76.831,216.948Z" transform="translate(-8.722 -7.52)"/><path class="cls-3" d="M91.967,221.9v-1.458a3.384,3.384,0,0,1-2.974,1.682,3.607,3.607,0,0,1-1.549-.336,2.569,2.569,0,0,1-1.068-.846,3.264,3.264,0,0,1-.49-1.248,9.011,9.011,0,0,1-.1-1.57v-6.149h1.589v5.5a10.347,10.347,0,0,0,.1,1.775,1.762,1.762,0,0,0,.635,1.042,1.892,1.892,0,0,0,1.2.379,2.5,2.5,0,0,0,1.342-.388,2.12,2.12,0,0,0,.887-1.056,5.59,5.59,0,0,0,.26-1.939v-5.318h1.589V221.9H91.967Z" transform="translate(-8.722 -7.52)"/><path class="cls-3" d="M101.994,218.265l1.563,0.215a4.375,4.375,0,0,1-1.311,2.677,3.69,3.69,0,0,1-2.59.967,3.917,3.917,0,0,1-3.094-1.332,5.61,5.61,0,0,1-1.169-3.818,7.272,7.272,0,0,1,.5-2.813,3.65,3.65,0,0,1,1.532-1.809,4.345,4.345,0,0,1,2.237-.6,3.747,3.747,0,0,1,2.5.818,3.8,3.8,0,0,1,1.244,2.323l-1.544.252a2.76,2.76,0,0,0-.781-1.5,1.953,1.953,0,0,0-1.354-.5,2.408,2.408,0,0,0-1.951.911,4.508,4.508,0,0,0-.75,2.883,4.667,4.667,0,0,0,.724,2.907,2.3,2.3,0,0,0,1.889.907,2.155,2.155,0,0,0,1.562-.608A3.092,3.092,0,0,0,101.994,218.265Z" transform="translate(-8.722 -7.52)"/><path class="cls-3" d="M108.384,220.4l0.229,1.486a5.584,5.584,0,0,1-1.2.149,2.6,2.6,0,0,1-1.342-.29,1.594,1.594,0,0,1-.671-0.762,6.368,6.368,0,0,1-.194-1.986v-5.71h-1.165v-1.308h1.165v-2.458l1.58-1.009v3.467h1.6v1.308h-1.6v5.8a3.105,3.105,0,0,0,.084.925,0.691,0.691,0,0,0,.274.327,1.007,1.007,0,0,0,.542.121A4.834,4.834,0,0,0,108.384,220.4Z" transform="translate(-8.722 -7.52)"/><path class="cls-3" d="M109.947,210.134V208.2h1.589v1.935h-1.589Zm0,11.767v-9.925h1.589V221.9h-1.589Z" transform="translate(-8.722 -7.52)"/><path class="cls-3" d="M113.362,216.938a5.279,5.279,0,0,1,1.448-4.084,4.215,4.215,0,0,1,2.948-1.1,4.088,4.088,0,0,1,3.16,1.341,5.285,5.285,0,0,1,1.227,3.706,6.9,6.9,0,0,1-.543,3.014,3.966,3.966,0,0,1-1.58,1.706,4.4,4.4,0,0,1-2.264.607,4.093,4.093,0,0,1-3.182-1.336A5.536,5.536,0,0,1,113.362,216.938Zm1.633,0a4.4,4.4,0,0,0,.786,2.855,2.521,2.521,0,0,0,3.945,0,4.5,4.5,0,0,0,.786-2.906,4.269,4.269,0,0,0-.79-2.79,2.524,2.524,0,0,0-3.941,0A4.379,4.379,0,0,0,115,216.938Z" transform="translate(-8.722 -7.52)"/><path class="cls-3" d="M124.007,221.9v-9.925h1.43v1.411a3.32,3.32,0,0,1,2.983-1.636,3.721,3.721,0,0,1,1.558.323,2.468,2.468,0,0,1,1.063.846,3.353,3.353,0,0,1,.494,1.243,10.154,10.154,0,0,1,.088,1.635v6.1h-1.589v-6.038a4.782,4.782,0,0,0-.185-1.537,1.6,1.6,0,0,0-.658-0.813,2.005,2.005,0,0,0-1.107-.3,2.491,2.491,0,0,0-1.752.683,3.494,3.494,0,0,0-.737,2.588V221.9h-1.589Z" transform="translate(-8.722 -7.52)"/></svg>