<svg id="Layer_1" data-name="Layer 1" xmlns="http://www.w3.org/2000/svg" viewBox="0 0 378 337.2"><defs><style>.cls-1{fill:#bcbec0;}.cls-2{fill:#11675d;}.cls-3{fill:#11675c;}.cls-4{fill:#fff;}.cls-5{fill:#231f20;}.cls-6{fill:#02a180;}.cls-7{fill:#29538c;}.cls-11,.cls-12,.cls-8,.cls-9{fill:none;}.cls-8,.cls-9{stroke:#fff;stroke-linecap:round;stroke-linejoin:round;stroke-width:2px;}.cls-8{stroke-dasharray:0.001 4.029;}.cls-10{fill:#e2f3f7;}.cls-11{stroke:#25408f;stroke-width:0.666px;}.cls-12{stroke:#000;stroke-width:3px;}.cls-13{fill:#00a182;}</style></defs><title>Preserve_Applicable_Exclusion_Amount</title><rect class="cls-1" width="378" height="337.2"/><rect class="cls-2" x="34.5" y="68.4" width="126" height="28.8"/><polygon points="97.5 144.2 112.7 128.8 82.3 128.8 97.5 144.2"/><rect class="cls-3" x="218.5" y="68.4" width="126" height="28.8"/><polygon points="281.5 206 296.7 190.6 266.3 190.6 281.5 206"/><path class="cls-4" d="M77.8,92.052V91a3.894,3.894,0,0,1-1.286-.354,2.242,2.242,0,0,1-.855-0.823,2.946,2.946,0,0,1-.419-1.389l1.061-.2a2.675,2.675,0,0,0,.434,1.248,1.538,1.538,0,0,0,1.066.627V86.75a4.406,4.406,0,0,1-1.33-.5,1.948,1.948,0,0,1-.776-0.779,2.482,2.482,0,0,1,.524-2.953,2.772,2.772,0,0,1,1.582-.574v-0.5h0.621v0.5a2.6,2.6,0,0,1,1.459.539,2.4,2.4,0,0,1,.832,1.576l-1.09.164a1.8,1.8,0,0,0-.39-0.952,1.437,1.437,0,0,0-.812-0.437v3.041a8.364,8.364,0,0,1,1.055.311,2.605,2.605,0,0,1,.8.527,2.121,2.121,0,0,1,.478.738,2.715,2.715,0,0,1-.53,2.754,2.558,2.558,0,0,1-1.8.785v1.066H77.8Zm0-9.234a1.563,1.563,0,0,0-.97.492,1.464,1.464,0,0,0-.053,1.846,2.079,2.079,0,0,0,1.022.58V82.818Zm0.621,7.289a1.564,1.564,0,0,0,1.017-.533,1.652,1.652,0,0,0,.4-1.131,1.416,1.416,0,0,0-.284-0.923,2.453,2.453,0,0,0-1.134-.624v3.211Z" transform="translate(-4.156 -4.616)"/><path class="cls-4" d="M85.957,90.816H84.9V84.1a5.451,5.451,0,0,1-1,.727,7.082,7.082,0,0,1-1.11.545v-1.02a6.369,6.369,0,0,0,1.547-1.008,3.964,3.964,0,0,0,.938-1.148h0.68v8.625Z" transform="translate(-4.156 -4.616)"/><path class="cls-4" d="M89.226,90.816v-1.2h1.2v1.2a2.132,2.132,0,0,1-.234,1.069,1.528,1.528,0,0,1-.744.63l-0.293-.451a1,1,0,0,0,.492-0.431,1.835,1.835,0,0,0,.176-0.817h-0.6Z" transform="translate(-4.156 -4.616)"/><path class="cls-4" d="M93.615,86.158a1.985,1.985,0,0,1-.973-0.686,1.793,1.793,0,0,1-.316-1.066A2.085,2.085,0,0,1,93,82.83a2.836,2.836,0,0,1,3.6.015,2.115,2.115,0,0,1,.686,1.591,1.752,1.752,0,0,1-.313,1.04,1.977,1.977,0,0,1-.952.683,2.309,2.309,0,0,1,1.2.832,2.285,2.285,0,0,1,.413,1.371,2.468,2.468,0,0,1-.779,1.852,3.174,3.174,0,0,1-4.1,0,2.5,2.5,0,0,1-.779-1.878,2.27,2.27,0,0,1,.425-1.4A2.127,2.127,0,0,1,93.615,86.158Zm-0.551,2.18a1.908,1.908,0,0,0,.214.873,1.509,1.509,0,0,0,.636.653,1.859,1.859,0,0,0,.908.231,1.7,1.7,0,0,0,1.248-.486,1.664,1.664,0,0,0,.492-1.236,1.692,1.692,0,0,0-.507-1.26,1.737,1.737,0,0,0-1.269-.5A1.678,1.678,0,0,0,93.064,88.338Zm0.34-3.967a1.337,1.337,0,0,0,.393,1,1.391,1.391,0,0,0,1.02.387,1.364,1.364,0,0,0,1-.384,1.269,1.269,0,0,0,.39-0.94,1.316,1.316,0,0,0-.4-0.976,1.367,1.367,0,0,0-1-.4,1.381,1.381,0,0,0-1,.387A1.245,1.245,0,0,0,93.4,84.371Z" transform="translate(-4.156 -4.616)"/><path class="cls-4" d="M98.665,88.566l1.107-.094a1.986,1.986,0,0,0,.571,1.216,1.551,1.551,0,0,0,1.081.407,1.684,1.684,0,0,0,1.289-.574A2.164,2.164,0,0,0,103.242,88a1.956,1.956,0,0,0-.507-1.424,1.767,1.767,0,0,0-1.327-.521,1.839,1.839,0,0,0-.92.231,1.786,1.786,0,0,0-.645.6l-0.99-.129,0.832-4.412h4.271v1.008h-3.428l-0.463,2.309a2.8,2.8,0,0,1,1.623-.539,2.571,2.571,0,0,1,1.9.779,2.724,2.724,0,0,1,.773,2,3.128,3.128,0,0,1-.68,2.016,2.723,2.723,0,0,1-2.256,1.043,2.779,2.779,0,0,1-1.913-.656A2.561,2.561,0,0,1,98.665,88.566Z" transform="translate(-4.156 -4.616)"/><path class="cls-4" d="M105.339,86.58a7.86,7.86,0,0,1,.313-2.452,3.05,3.05,0,0,1,.932-1.433,2.382,2.382,0,0,1,1.556-.5,2.538,2.538,0,0,1,1.213.278,2.319,2.319,0,0,1,.861.8,4.306,4.306,0,0,1,.533,1.277,8.487,8.487,0,0,1,.193,2.03,7.882,7.882,0,0,1-.311,2.44,3.051,3.051,0,0,1-.929,1.436,2.382,2.382,0,0,1-1.562.507,2.357,2.357,0,0,1-1.951-.891A5.661,5.661,0,0,1,105.339,86.58Zm1.084,0a5.386,5.386,0,0,0,.5,2.815,1.414,1.414,0,0,0,2.443,0,5.388,5.388,0,0,0,.5-2.812,5.384,5.384,0,0,0-.5-2.818,1.47,1.47,0,0,0-1.233-.7,1.351,1.351,0,0,0-1.16.615A5.448,5.448,0,0,0,106.423,86.58Z" transform="translate(-4.156 -4.616)"/><path class="cls-4" d="M112.582,90.816v-1.2h1.2v1.2a2.132,2.132,0,0,1-.234,1.069,1.528,1.528,0,0,1-.744.63l-0.293-.451A1,1,0,0,0,113,91.633a1.835,1.835,0,0,0,.176-0.817h-0.6Z" transform="translate(-4.156 -4.616)"/><path class="cls-4" d="M115.347,86.58a7.86,7.86,0,0,1,.313-2.452,3.05,3.05,0,0,1,.932-1.433,2.382,2.382,0,0,1,1.556-.5,2.538,2.538,0,0,1,1.213.278,2.319,2.319,0,0,1,.861.8,4.306,4.306,0,0,1,.533,1.277,8.487,8.487,0,0,1,.193,2.03,7.882,7.882,0,0,1-.311,2.44,3.051,3.051,0,0,1-.929,1.436,2.382,2.382,0,0,1-1.562.507,2.357,2.357,0,0,1-1.951-.891A5.661,5.661,0,0,1,115.347,86.58Zm1.084,0a5.386,5.386,0,0,0,.5,2.815,1.414,1.414,0,0,0,2.443,0,5.388,5.388,0,0,0,.5-2.812,5.384,5.384,0,0,0-.5-2.818,1.47,1.47,0,0,0-1.233-.7,1.351,1.351,0,0,0-1.16.615A5.448,5.448,0,0,0,116.431,86.58Z" transform="translate(-4.156 -4.616)"/><path class="cls-4" d="M122.021,86.58a7.86,7.86,0,0,1,.313-2.452,3.05,3.05,0,0,1,.932-1.433,2.382,2.382,0,0,1,1.556-.5,2.538,2.538,0,0,1,1.213.278,2.319,2.319,0,0,1,.861.8,4.306,4.306,0,0,1,.533,1.277,8.487,8.487,0,0,1,.193,2.03,7.882,7.882,0,0,1-.311,2.44,3.051,3.051,0,0,1-.929,1.436,2.382,2.382,0,0,1-1.562.507,2.357,2.357,0,0,1-1.951-.891A5.661,5.661,0,0,1,122.021,86.58Zm1.084,0a5.386,5.386,0,0,0,.5,2.815,1.414,1.414,0,0,0,2.443,0,5.388,5.388,0,0,0,.5-2.812,5.384,5.384,0,0,0-.5-2.818,1.47,1.47,0,0,0-1.233-.7,1.351,1.351,0,0,0-1.16.615A5.448,5.448,0,0,0,123.1,86.58Z" transform="translate(-4.156 -4.616)"/><path class="cls-4" d="M128.695,86.58a7.86,7.86,0,0,1,.313-2.452,3.05,3.05,0,0,1,.932-1.433,2.382,2.382,0,0,1,1.556-.5,2.538,2.538,0,0,1,1.213.278,2.319,2.319,0,0,1,.861.8,4.306,4.306,0,0,1,.533,1.277,8.487,8.487,0,0,1,.193,2.03,7.882,7.882,0,0,1-.311,2.44,3.051,3.051,0,0,1-.929,1.436,2.382,2.382,0,0,1-1.562.507,2.357,2.357,0,0,1-1.951-.891A5.661,5.661,0,0,1,128.695,86.58Zm1.084,0a5.386,5.386,0,0,0,.5,2.815,1.414,1.414,0,0,0,2.443,0,5.388,5.388,0,0,0,.5-2.812,5.384,5.384,0,0,0-.5-2.818,1.47,1.47,0,0,0-1.233-.7,1.351,1.351,0,0,0-1.16.615A5.448,5.448,0,0,0,129.779,86.58Z" transform="translate(-4.156 -4.616)"/><path class="cls-4" d="M261.8,92.352V91.3a3.894,3.894,0,0,1-1.286-.354,2.242,2.242,0,0,1-.855-0.823,2.946,2.946,0,0,1-.419-1.389l1.061-.2a2.675,2.675,0,0,0,.434,1.248,1.538,1.538,0,0,0,1.066.627V87.049a4.406,4.406,0,0,1-1.33-.5,1.948,1.948,0,0,1-.776-0.779,2.482,2.482,0,0,1,.524-2.953,2.772,2.772,0,0,1,1.582-.574v-0.5h0.621v0.5a2.6,2.6,0,0,1,1.459.539,2.4,2.4,0,0,1,.832,1.576l-1.09.164a1.8,1.8,0,0,0-.39-0.952,1.437,1.437,0,0,0-.812-0.437v3.041a8.364,8.364,0,0,1,1.055.311,2.605,2.605,0,0,1,.8.527,2.121,2.121,0,0,1,.478.738,2.715,2.715,0,0,1-.53,2.754,2.558,2.558,0,0,1-1.8.785v1.066H261.8Zm0-9.234a1.563,1.563,0,0,0-.97.492,1.464,1.464,0,0,0-.053,1.846,2.079,2.079,0,0,0,1.022.58V83.118Zm0.621,7.289a1.564,1.564,0,0,0,1.017-.533,1.652,1.652,0,0,0,.4-1.131,1.416,1.416,0,0,0-.284-0.923,2.453,2.453,0,0,0-1.134-.624v3.211Z" transform="translate(-4.156 -4.616)"/><path class="cls-4" d="M269.953,91.116H268.9V84.4a5.451,5.451,0,0,1-1,.727,7.082,7.082,0,0,1-1.11.545v-1.02a6.369,6.369,0,0,0,1.547-1.008,3.964,3.964,0,0,0,.938-1.148h0.68v8.625Z" transform="translate(-4.156 -4.616)"/><path class="cls-4" d="M273.222,91.116v-1.2h1.2v1.2a2.132,2.132,0,0,1-.234,1.069,1.528,1.528,0,0,1-.744.63l-0.293-.451a1,1,0,0,0,.492-0.431,1.835,1.835,0,0,0,.176-0.817h-0.6Z" transform="translate(-4.156 -4.616)"/><path class="cls-4" d="M277.611,86.458a1.985,1.985,0,0,1-.973-0.686,1.793,1.793,0,0,1-.316-1.066A2.085,2.085,0,0,1,277,83.13a2.836,2.836,0,0,1,3.6.015,2.115,2.115,0,0,1,.686,1.591,1.752,1.752,0,0,1-.313,1.04,1.977,1.977,0,0,1-.952.683,2.309,2.309,0,0,1,1.2.832,2.285,2.285,0,0,1,.413,1.371,2.468,2.468,0,0,1-.779,1.852,3.174,3.174,0,0,1-4.1,0,2.5,2.5,0,0,1-.779-1.878,2.27,2.27,0,0,1,.425-1.4A2.127,2.127,0,0,1,277.611,86.458Zm-0.551,2.18a1.908,1.908,0,0,0,.214.873,1.509,1.509,0,0,0,.636.653,1.859,1.859,0,0,0,.908.231,1.7,1.7,0,0,0,1.248-.486,1.664,1.664,0,0,0,.492-1.236,1.692,1.692,0,0,0-.507-1.26,1.737,1.737,0,0,0-1.269-.5A1.678,1.678,0,0,0,277.06,88.637Zm0.34-3.967a1.337,1.337,0,0,0,.393,1,1.391,1.391,0,0,0,1.02.387,1.364,1.364,0,0,0,1-.384,1.269,1.269,0,0,0,.39-0.94,1.316,1.316,0,0,0-.4-0.976,1.367,1.367,0,0,0-1-.4,1.381,1.381,0,0,0-1,.387A1.245,1.245,0,0,0,277.4,84.671Z" transform="translate(-4.156 -4.616)"/><path class="cls-4" d="M282.662,88.866l1.107-.094a1.986,1.986,0,0,0,.571,1.216,1.551,1.551,0,0,0,1.081.407,1.684,1.684,0,0,0,1.289-.574,2.164,2.164,0,0,0,.527-1.523,1.956,1.956,0,0,0-.507-1.424,1.767,1.767,0,0,0-1.327-.521,1.839,1.839,0,0,0-.92.231,1.786,1.786,0,0,0-.645.6l-0.99-.129,0.832-4.412h4.271v1.008h-3.428l-0.463,2.309a2.8,2.8,0,0,1,1.623-.539,2.571,2.571,0,0,1,1.9.779,2.724,2.724,0,0,1,.773,2,3.128,3.128,0,0,1-.68,2.016,2.723,2.723,0,0,1-2.256,1.043,2.779,2.779,0,0,1-1.913-.656A2.561,2.561,0,0,1,282.662,88.866Z" transform="translate(-4.156 -4.616)"/><path class="cls-4" d="M289.335,86.88a7.86,7.86,0,0,1,.313-2.452,3.05,3.05,0,0,1,.932-1.433,2.382,2.382,0,0,1,1.556-.5,2.538,2.538,0,0,1,1.213.278,2.319,2.319,0,0,1,.861.8,4.306,4.306,0,0,1,.533,1.277,8.487,8.487,0,0,1,.193,2.03,7.882,7.882,0,0,1-.311,2.44,3.051,3.051,0,0,1-.929,1.436,2.382,2.382,0,0,1-1.562.507,2.357,2.357,0,0,1-1.951-.891A5.661,5.661,0,0,1,289.335,86.88Zm1.084,0a5.386,5.386,0,0,0,.5,2.815,1.414,1.414,0,0,0,2.443,0,5.388,5.388,0,0,0,.5-2.812,5.384,5.384,0,0,0-.5-2.818,1.47,1.47,0,0,0-1.233-.7,1.351,1.351,0,0,0-1.16.615A5.448,5.448,0,0,0,290.419,86.88Z" transform="translate(-4.156 -4.616)"/><path class="cls-4" d="M296.578,91.116v-1.2h1.2v1.2a2.132,2.132,0,0,1-.234,1.069,1.528,1.528,0,0,1-.744.63l-0.293-.451A1,1,0,0,0,297,91.933a1.835,1.835,0,0,0,.176-0.817h-0.6Z" transform="translate(-4.156 -4.616)"/><path class="cls-4" d="M299.343,86.88a7.86,7.86,0,0,1,.313-2.452,3.05,3.05,0,0,1,.932-1.433,2.382,2.382,0,0,1,1.556-.5,2.538,2.538,0,0,1,1.213.278,2.319,2.319,0,0,1,.861.8,4.306,4.306,0,0,1,.533,1.277,8.487,8.487,0,0,1,.193,2.03,7.882,7.882,0,0,1-.311,2.44,3.051,3.051,0,0,1-.929,1.436,2.382,2.382,0,0,1-1.562.507,2.357,2.357,0,0,1-1.951-.891A5.661,5.661,0,0,1,299.343,86.88Zm1.084,0a5.386,5.386,0,0,0,.5,2.815,1.414,1.414,0,0,0,2.443,0,5.388,5.388,0,0,0,.5-2.812,5.384,5.384,0,0,0-.5-2.818,1.47,1.47,0,0,0-1.233-.7,1.351,1.351,0,0,0-1.16.615A5.448,5.448,0,0,0,300.427,86.88Z" transform="translate(-4.156 -4.616)"/><path class="cls-4" d="M306.017,86.88a7.86,7.86,0,0,1,.313-2.452,3.05,3.05,0,0,1,.932-1.433,2.382,2.382,0,0,1,1.556-.5,2.538,2.538,0,0,1,1.213.278,2.319,2.319,0,0,1,.861.8,4.306,4.306,0,0,1,.533,1.277,8.487,8.487,0,0,1,.193,2.03,7.882,7.882,0,0,1-.311,2.44,3.051,3.051,0,0,1-.929,1.436,2.382,2.382,0,0,1-1.562.507,2.357,2.357,0,0,1-1.951-.891A5.661,5.661,0,0,1,306.017,86.88Zm1.084,0a5.386,5.386,0,0,0,.5,2.815,1.414,1.414,0,0,0,2.443,0,5.388,5.388,0,0,0,.5-2.812,5.384,5.384,0,0,0-.5-2.818,1.47,1.47,0,0,0-1.233-.7,1.351,1.351,0,0,0-1.16.615A5.448,5.448,0,0,0,307.1,86.88Z" transform="translate(-4.156 -4.616)"/><path class="cls-4" d="M312.691,86.88A7.86,7.86,0,0,1,313,84.427a3.05,3.05,0,0,1,.932-1.433,2.382,2.382,0,0,1,1.556-.5,2.538,2.538,0,0,1,1.213.278,2.319,2.319,0,0,1,.861.8,4.306,4.306,0,0,1,.533,1.277,8.487,8.487,0,0,1,.193,2.03,7.882,7.882,0,0,1-.311,2.44,3.051,3.051,0,0,1-.929,1.436,2.382,2.382,0,0,1-1.562.507,2.357,2.357,0,0,1-1.951-.891A5.661,5.661,0,0,1,312.691,86.88Zm1.084,0a5.386,5.386,0,0,0,.5,2.815,1.414,1.414,0,0,0,2.443,0,5.388,5.388,0,0,0,.5-2.812,5.384,5.384,0,0,0-.5-2.818,1.47,1.47,0,0,0-1.233-.7,1.351,1.351,0,0,0-1.16.615A5.448,5.448,0,0,0,313.775,86.88Z" transform="translate(-4.156 -4.616)"/><path class="cls-5" d="M253.867,287.017v-8.59h1.166l4.512,6.744v-6.744h1.09v8.59h-1.166l-4.512-6.75v6.75h-1.09Z" transform="translate(-4.156 -4.616)"/><path class="cls-5" d="M262.017,283.905a3.207,3.207,0,0,1,.961-2.561,2.9,2.9,0,0,1,1.957-.691,2.792,2.792,0,0,1,2.1.841,3.2,3.2,0,0,1,.814,2.323,4.117,4.117,0,0,1-.36,1.89,2.551,2.551,0,0,1-1.049,1.069,3.054,3.054,0,0,1-1.5.381,2.8,2.8,0,0,1-2.112-.838A3.347,3.347,0,0,1,262.017,283.905Zm1.084,0a2.65,2.65,0,0,0,.521,1.79,1.736,1.736,0,0,0,2.619,0,2.713,2.713,0,0,0,.521-1.822,2.571,2.571,0,0,0-.524-1.749,1.739,1.739,0,0,0-2.616,0A2.639,2.639,0,0,0,263.1,283.905Z" transform="translate(-4.156 -4.616)"/><path class="cls-5" d="M269.083,287.017v-6.223h0.949v0.885a2.237,2.237,0,0,1,1.98-1.025,2.6,2.6,0,0,1,1.034.2,1.627,1.627,0,0,1,.706.53,2.035,2.035,0,0,1,.328.779,6.039,6.039,0,0,1,.059,1.025v3.826h-1.055v-3.785a2.841,2.841,0,0,0-.123-0.964,1.014,1.014,0,0,0-.437-0.51,1.389,1.389,0,0,0-.735-0.19,1.709,1.709,0,0,0-1.163.428,2.11,2.11,0,0,0-.489,1.623v3.4h-1.055Z" transform="translate(-4.156 -4.616)"/><path class="cls-5" d="M275.347,284.439v-1.061h3.24v1.061h-3.24Z" transform="translate(-4.156 -4.616)"/><path class="cls-5" d="M282.056,286.073l0.152,0.932a3.912,3.912,0,0,1-.8.094,1.8,1.8,0,0,1-.891-0.182,1.017,1.017,0,0,1-.445-0.478,3.776,3.776,0,0,1-.129-1.245v-3.58h-0.773v-0.82h0.773v-1.541L281,278.62v2.174h1.061v0.82H281v3.639a1.838,1.838,0,0,0,.056.58,0.439,0.439,0,0,0,.182.205,0.7,0.7,0,0,0,.36.076A3.431,3.431,0,0,0,282.056,286.073Z" transform="translate(-4.156 -4.616)"/><path class="cls-5" d="M286.944,286.249a3.927,3.927,0,0,1-1.128.7,3.259,3.259,0,0,1-1.163.205,2.262,2.262,0,0,1-1.576-.5,1.654,1.654,0,0,1-.551-1.28,1.7,1.7,0,0,1,.208-0.835,1.722,1.722,0,0,1,.545-0.606,2.562,2.562,0,0,1,.759-0.346,7.536,7.536,0,0,1,.938-0.158,9.64,9.64,0,0,0,1.881-.363q0.006-.217.006-0.275a1.164,1.164,0,0,0-.3-0.908,1.765,1.765,0,0,0-1.2-.357,1.863,1.863,0,0,0-1.1.261,1.593,1.593,0,0,0-.524.923l-1.031-.141a2.555,2.555,0,0,1,.463-1.069,2.029,2.029,0,0,1,.932-0.627,4.155,4.155,0,0,1,1.412-.22,3.738,3.738,0,0,1,1.295.188,1.706,1.706,0,0,1,.732.472,1.659,1.659,0,0,1,.328.718,5.938,5.938,0,0,1,.053.973v1.406a14.926,14.926,0,0,0,.067,1.86,2.347,2.347,0,0,0,.267.747h-1.1A2.236,2.236,0,0,1,286.944,286.249Zm-0.088-2.355a7.738,7.738,0,0,1-1.723.4,3.985,3.985,0,0,0-.92.211,0.917,0.917,0,0,0-.416.343,0.932,0.932,0,0,0,.173,1.2,1.374,1.374,0,0,0,.935.281,2.175,2.175,0,0,0,1.084-.267,1.642,1.642,0,0,0,.7-0.729,2.548,2.548,0,0,0,.17-1.055v-0.387Z" transform="translate(-4.156 -4.616)"/><path class="cls-5" d="M288.854,287.017l2.273-3.234-2.1-2.988h1.318l0.955,1.459q0.27,0.416.434,0.7,0.258-.387.475-0.686l1.049-1.471h1.26l-2.15,2.93,2.314,3.293h-1.295l-1.277-1.934-0.34-.521-1.635,2.455h-1.277Z" transform="translate(-4.156 -4.616)"/><path class="cls-5" d="M299.509,286.249a3.927,3.927,0,0,1-1.128.7,3.259,3.259,0,0,1-1.163.205,2.262,2.262,0,0,1-1.576-.5,1.654,1.654,0,0,1-.551-1.28,1.7,1.7,0,0,1,.208-0.835,1.722,1.722,0,0,1,.545-0.606,2.562,2.562,0,0,1,.759-0.346,7.536,7.536,0,0,1,.938-0.158,9.64,9.64,0,0,0,1.881-.363q0.006-.217.006-0.275a1.164,1.164,0,0,0-.3-0.908,1.765,1.765,0,0,0-1.2-.357,1.863,1.863,0,0,0-1.1.261,1.593,1.593,0,0,0-.524.923l-1.031-.141a2.555,2.555,0,0,1,.463-1.069,2.029,2.029,0,0,1,.932-0.627,4.155,4.155,0,0,1,1.412-.22,3.738,3.738,0,0,1,1.295.188,1.706,1.706,0,0,1,.732.472,1.659,1.659,0,0,1,.328.718,5.938,5.938,0,0,1,.053.973v1.406a14.926,14.926,0,0,0,.067,1.86,2.347,2.347,0,0,0,.267.747h-1.1A2.236,2.236,0,0,1,299.509,286.249Zm-0.088-2.355a7.738,7.738,0,0,1-1.723.4,3.985,3.985,0,0,0-.92.211,0.917,0.917,0,0,0-.416.343,0.932,0.932,0,0,0,.173,1.2,1.374,1.374,0,0,0,.935.281,2.175,2.175,0,0,0,1.084-.267,1.642,1.642,0,0,0,.7-0.729,2.548,2.548,0,0,0,.17-1.055v-0.387Z" transform="translate(-4.156 -4.616)"/><path class="cls-5" d="M303.1,287.017h-0.979v-8.59h1.055v3.064a2.087,2.087,0,0,1,1.705-.838,2.611,2.611,0,0,1,1.087.231,2.22,2.22,0,0,1,.844.65,3.144,3.144,0,0,1,.519,1.011,4.167,4.167,0,0,1,.188,1.266,3.555,3.555,0,0,1-.791,2.473,2.474,2.474,0,0,1-1.9.873,1.981,1.981,0,0,1-1.729-.92v0.779Zm-0.012-3.158a3.23,3.23,0,0,0,.3,1.617,1.508,1.508,0,0,0,2.543.214,2.729,2.729,0,0,0,.5-1.79,2.776,2.776,0,0,0-.483-1.8,1.472,1.472,0,0,0-1.169-.58,1.517,1.517,0,0,0-1.2.6A2.637,2.637,0,0,0,303.083,283.859Z" transform="translate(-4.156 -4.616)"/><path class="cls-5" d="M308.773,287.017v-8.59h1.055v8.59h-1.055Z" transform="translate(-4.156 -4.616)"/><path class="cls-5" d="M315.722,285.013l1.09,0.135a2.659,2.659,0,0,1-.955,1.482,3.236,3.236,0,0,1-3.946-.313,3.285,3.285,0,0,1-.8-2.358,3.438,3.438,0,0,1,.809-2.437,2.737,2.737,0,0,1,2.1-.867,2.66,2.66,0,0,1,2.039.85,3.376,3.376,0,0,1,.791,2.391q0,0.094-.006.281H312.2a2.391,2.391,0,0,0,.58,1.57,1.727,1.727,0,0,0,1.3.545,1.614,1.614,0,0,0,.99-0.3A2.023,2.023,0,0,0,315.722,285.013Zm-3.463-1.705h3.475a2.108,2.108,0,0,0-.4-1.178,1.616,1.616,0,0,0-1.307-.609,1.675,1.675,0,0,0-1.222.486A1.925,1.925,0,0,0,312.259,283.308Z" transform="translate(-4.156 -4.616)"/><path class="cls-5" d="M325.73,285.013l1.09,0.135a2.659,2.659,0,0,1-.955,1.482,3.236,3.236,0,0,1-3.946-.313,3.285,3.285,0,0,1-.8-2.358,3.438,3.438,0,0,1,.809-2.437,2.737,2.737,0,0,1,2.1-.867,2.66,2.66,0,0,1,2.039.85,3.376,3.376,0,0,1,.791,2.391q0,0.094-.006.281h-4.641a2.391,2.391,0,0,0,.58,1.57,1.727,1.727,0,0,0,1.3.545,1.614,1.614,0,0,0,.99-0.3A2.023,2.023,0,0,0,325.73,285.013Zm-3.463-1.705h3.475a2.108,2.108,0,0,0-.4-1.178,1.616,1.616,0,0,0-1.307-.609,1.675,1.675,0,0,0-1.222.486A1.925,1.925,0,0,0,322.267,283.308Z" transform="translate(-4.156 -4.616)"/><path class="cls-5" d="M327.722,285.159l1.043-.164a1.458,1.458,0,0,0,.489.961,1.705,1.705,0,0,0,1.122.334,1.648,1.648,0,0,0,1.078-.3,0.885,0.885,0,0,0,.352-0.694,0.641,0.641,0,0,0-.311-0.562,4.574,4.574,0,0,0-1.078-.357,9.838,9.838,0,0,1-1.608-.507,1.535,1.535,0,0,1-.911-1.427,1.6,1.6,0,0,1,.19-0.771,1.708,1.708,0,0,1,.519-0.589,2.174,2.174,0,0,1,.671-0.308,3.19,3.19,0,0,1,.911-0.126,3.6,3.6,0,0,1,1.286.211,1.749,1.749,0,0,1,.817.571,2.232,2.232,0,0,1,.363.964l-1.031.141a1.128,1.128,0,0,0-.407-0.75,1.489,1.489,0,0,0-.952-0.27,1.724,1.724,0,0,0-1.037.24,0.7,0.7,0,0,0-.311.563,0.582,0.582,0,0,0,.129.369,0.93,0.93,0,0,0,.4.281q0.158,0.059.932,0.27a12.969,12.969,0,0,1,1.562.489,1.584,1.584,0,0,1,.694.554,1.546,1.546,0,0,1,.252.9,1.771,1.771,0,0,1-.308.993,1.988,1.988,0,0,1-.888.721,3.231,3.231,0,0,1-1.312.255,2.924,2.924,0,0,1-1.849-.5A2.343,2.343,0,0,1,327.722,285.159Z" transform="translate(-4.156 -4.616)"/><path class="cls-5" d="M336.447,286.073l0.152,0.932a3.912,3.912,0,0,1-.8.094,1.8,1.8,0,0,1-.891-0.182,1.017,1.017,0,0,1-.445-0.478,3.776,3.776,0,0,1-.129-1.245v-3.58h-0.773v-0.82h0.773v-1.541l1.049-.633v2.174h1.061v0.82h-1.061v3.639a1.838,1.838,0,0,0,.056.58,0.439,0.439,0,0,0,.182.205,0.7,0.7,0,0,0,.36.076A3.431,3.431,0,0,0,336.447,286.073Z" transform="translate(-4.156 -4.616)"/><path class="cls-5" d="M341.323,286.249a3.927,3.927,0,0,1-1.128.7,3.259,3.259,0,0,1-1.163.205,2.262,2.262,0,0,1-1.576-.5,1.654,1.654,0,0,1-.551-1.28,1.7,1.7,0,0,1,.208-0.835,1.722,1.722,0,0,1,.545-0.606,2.562,2.562,0,0,1,.759-0.346,7.536,7.536,0,0,1,.938-0.158,9.64,9.64,0,0,0,1.881-.363q0.006-.217.006-0.275a1.164,1.164,0,0,0-.3-0.908,1.765,1.765,0,0,0-1.2-.357,1.863,1.863,0,0,0-1.1.261,1.593,1.593,0,0,0-.524.923l-1.031-.141a2.555,2.555,0,0,1,.463-1.069,2.029,2.029,0,0,1,.932-0.627,4.155,4.155,0,0,1,1.412-.22,3.738,3.738,0,0,1,1.295.188,1.706,1.706,0,0,1,.732.472,1.659,1.659,0,0,1,.328.718,5.938,5.938,0,0,1,.053.973v1.406a14.926,14.926,0,0,0,.067,1.86,2.347,2.347,0,0,0,.267.747h-1.1A2.236,2.236,0,0,1,341.323,286.249Zm-0.088-2.355a7.738,7.738,0,0,1-1.723.4,3.985,3.985,0,0,0-.92.211,0.917,0.917,0,0,0-.416.343,0.932,0.932,0,0,0,.173,1.2,1.374,1.374,0,0,0,.935.281,2.175,2.175,0,0,0,1.084-.267,1.642,1.642,0,0,0,.7-0.729,2.548,2.548,0,0,0,.17-1.055v-0.387Z" transform="translate(-4.156 -4.616)"/><path class="cls-5" d="M346.239,286.073l0.152,0.932a3.912,3.912,0,0,1-.8.094,1.8,1.8,0,0,1-.891-0.182,1.017,1.017,0,0,1-.445-0.478,3.776,3.776,0,0,1-.129-1.245v-3.58h-0.773v-0.82h0.773v-1.541l1.049-.633v2.174h1.061v0.82h-1.061v3.639a1.838,1.838,0,0,0,.056.58,0.439,0.439,0,0,0,.182.205,0.7,0.7,0,0,0,.36.076A3.431,3.431,0,0,0,346.239,286.073Z" transform="translate(-4.156 -4.616)"/><path class="cls-5" d="M351.41,285.013l1.09,0.135a2.659,2.659,0,0,1-.955,1.482,3.236,3.236,0,0,1-3.946-.313,3.285,3.285,0,0,1-.8-2.358,3.438,3.438,0,0,1,.809-2.437,2.737,2.737,0,0,1,2.1-.867,2.66,2.66,0,0,1,2.039.85,3.376,3.376,0,0,1,.791,2.391q0,0.094-.006.281h-4.641a2.391,2.391,0,0,0,.58,1.57,1.727,1.727,0,0,0,1.3.545,1.614,1.614,0,0,0,.99-0.3A2.023,2.023,0,0,0,351.41,285.013Zm-3.463-1.705h3.475a2.108,2.108,0,0,0-.4-1.178,1.616,1.616,0,0,0-1.307-.609,1.675,1.675,0,0,0-1.222.486A1.925,1.925,0,0,0,347.947,283.308Z" transform="translate(-4.156 -4.616)"/><path class="cls-5" d="M40.013,114.912v-8.59h5.795v1.014H41.149V110h4.031v1.014H41.149v3.9H40.013Z" transform="translate(-4.156 -4.616)"/><path class="cls-5" d="M47.155,107.535v-1.213H48.21v1.213H47.155Zm0,7.377v-6.223H48.21v6.223H47.155Z" transform="translate(-4.156 -4.616)"/><path class="cls-5" d="M49.8,114.912v-6.223h0.949v0.943a2.574,2.574,0,0,1,.671-0.873,1.171,1.171,0,0,1,.677-0.211,2.057,2.057,0,0,1,1.084.34l-0.363.979a1.509,1.509,0,0,0-.773-0.229,1,1,0,0,0-.621.208,1.127,1.127,0,0,0-.393.577,4.108,4.108,0,0,0-.176,1.23v3.258H49.8Z" transform="translate(-4.156 -4.616)"/><path class="cls-5" d="M53.282,113.054l1.043-.164a1.458,1.458,0,0,0,.489.961,1.705,1.705,0,0,0,1.122.334,1.648,1.648,0,0,0,1.078-.3,0.885,0.885,0,0,0,.352-0.694,0.641,0.641,0,0,0-.311-0.562,4.574,4.574,0,0,0-1.078-.357,9.838,9.838,0,0,1-1.608-.507,1.535,1.535,0,0,1-.911-1.427,1.6,1.6,0,0,1,.19-0.771,1.708,1.708,0,0,1,.519-0.589,2.174,2.174,0,0,1,.671-0.308,3.19,3.19,0,0,1,.911-0.126,3.6,3.6,0,0,1,1.286.211,1.749,1.749,0,0,1,.817.571,2.232,2.232,0,0,1,.363.964l-1.031.141a1.128,1.128,0,0,0-.407-0.75,1.489,1.489,0,0,0-.952-0.27,1.724,1.724,0,0,0-1.037.24,0.7,0.7,0,0,0-.311.563,0.582,0.582,0,0,0,.129.369,0.93,0.93,0,0,0,.4.281q0.158,0.059.932,0.27a12.969,12.969,0,0,1,1.562.489,1.584,1.584,0,0,1,.694.554,1.546,1.546,0,0,1,.252.9,1.771,1.771,0,0,1-.308.993,1.988,1.988,0,0,1-.888.721,3.231,3.231,0,0,1-1.312.255,2.924,2.924,0,0,1-1.849-.5A2.343,2.343,0,0,1,53.282,113.054Z" transform="translate(-4.156 -4.616)"/><path class="cls-5" d="M62.006,113.968l0.152,0.932a3.912,3.912,0,0,1-.8.094,1.8,1.8,0,0,1-.891-0.182,1.017,1.017,0,0,1-.445-0.478,3.776,3.776,0,0,1-.129-1.245v-3.58H59.124v-0.82H59.9v-1.541l1.049-.633v2.174h1.061v0.82H60.946v3.639a1.838,1.838,0,0,0,.056.58,0.439,0.439,0,0,0,.182.205,0.7,0.7,0,0,0,.36.076A3.431,3.431,0,0,0,62.006,113.968Z" transform="translate(-4.156 -4.616)"/><path class="cls-5" d="M66.506,114.912v-8.59h2.959a7.177,7.177,0,0,1,1.529.123,2.909,2.909,0,0,1,1.26.615,3.5,3.5,0,0,1,1.017,1.468,5.762,5.762,0,0,1,.337,2.042,6,6,0,0,1-.229,1.734,4.208,4.208,0,0,1-.586,1.251,3.113,3.113,0,0,1-.782.779,3.188,3.188,0,0,1-1.025.431,5.852,5.852,0,0,1-1.38.146h-3.1Zm1.137-1.014h1.834a4.451,4.451,0,0,0,1.333-.158,1.907,1.907,0,0,0,.771-0.445,2.71,2.71,0,0,0,.63-1.087,5.314,5.314,0,0,0,.226-1.655,4,4,0,0,0-.442-2.071,2.226,2.226,0,0,0-1.075-.97,4.444,4.444,0,0,0-1.471-.176h-1.8V113.9Z" transform="translate(-4.156 -4.616)"/><path class="cls-5" d="M79.3,112.908l1.09,0.135a2.659,2.659,0,0,1-.955,1.482,3.236,3.236,0,0,1-3.946-.313,3.285,3.285,0,0,1-.8-2.358,3.438,3.438,0,0,1,.809-2.437,2.737,2.737,0,0,1,2.1-.867,2.66,2.66,0,0,1,2.039.85,3.376,3.376,0,0,1,.791,2.391q0,0.094-.006.281H75.776a2.391,2.391,0,0,0,.58,1.57,1.727,1.727,0,0,0,1.3.545,1.614,1.614,0,0,0,.99-0.3A2.023,2.023,0,0,0,79.3,112.908ZM75.834,111.2h3.475a2.108,2.108,0,0,0-.4-1.178,1.616,1.616,0,0,0-1.307-.609,1.675,1.675,0,0,0-1.222.486A1.925,1.925,0,0,0,75.834,111.2Z" transform="translate(-4.156 -4.616)"/><path class="cls-5" d="M85.616,114.144a3.927,3.927,0,0,1-1.128.7,3.259,3.259,0,0,1-1.163.205,2.262,2.262,0,0,1-1.576-.5,1.654,1.654,0,0,1-.551-1.28,1.7,1.7,0,0,1,.208-0.835,1.722,1.722,0,0,1,.545-0.606,2.562,2.562,0,0,1,.759-0.346,7.536,7.536,0,0,1,.938-0.158,9.64,9.64,0,0,0,1.881-.363q0.006-.217.006-0.275a1.164,1.164,0,0,0-.3-0.908,1.765,1.765,0,0,0-1.2-.357,1.863,1.863,0,0,0-1.1.261,1.593,1.593,0,0,0-.524.923l-1.031-.141a2.555,2.555,0,0,1,.463-1.069,2.029,2.029,0,0,1,.932-0.627,4.155,4.155,0,0,1,1.412-.22,3.738,3.738,0,0,1,1.295.188,1.706,1.706,0,0,1,.732.472,1.659,1.659,0,0,1,.328.718,5.938,5.938,0,0,1,.053.973V112.3a14.926,14.926,0,0,0,.067,1.86,2.347,2.347,0,0,0,.267.747h-1.1A2.236,2.236,0,0,1,85.616,114.144Zm-0.088-2.355a7.738,7.738,0,0,1-1.723.4,3.985,3.985,0,0,0-.92.211,0.917,0.917,0,0,0-.416.343,0.932,0.932,0,0,0,.173,1.2,1.374,1.374,0,0,0,.935.281,2.175,2.175,0,0,0,1.084-.267,1.642,1.642,0,0,0,.7-0.729,2.548,2.548,0,0,0,.17-1.055v-0.387Z" transform="translate(-4.156 -4.616)"/><path class="cls-5" d="M90.532,113.968l0.152,0.932a3.912,3.912,0,0,1-.8.094A1.8,1.8,0,0,1,89,114.812a1.017,1.017,0,0,1-.445-0.478,3.776,3.776,0,0,1-.129-1.245v-3.58H87.649v-0.82h0.773v-1.541l1.049-.633v2.174h1.061v0.82H89.471v3.639a1.838,1.838,0,0,0,.056.58,0.439,0.439,0,0,0,.182.205,0.7,0.7,0,0,0,.36.076A3.431,3.431,0,0,0,90.532,113.968Z" transform="translate(-4.156 -4.616)"/><path class="cls-5" d="M91.563,114.912v-8.59h1.055V109.4a2.356,2.356,0,0,1,1.863-.855,2.513,2.513,0,0,1,1.2.272,1.6,1.6,0,0,1,.729.753,3.471,3.471,0,0,1,.22,1.395v3.943H95.577v-3.943a1.629,1.629,0,0,0-.343-1.151,1.275,1.275,0,0,0-.97-0.36,1.71,1.71,0,0,0-.882.243,1.373,1.373,0,0,0-.589.659,3.028,3.028,0,0,0-.176,1.148v3.4H91.563Z" transform="translate(-4.156 -4.616)"/><rect class="cls-6" x="218.5" y="208.4" width="126" height="60"/><path class="cls-4" d="M251.431,236.656l1.072-.094a2.368,2.368,0,0,0,.354,1.058,1.935,1.935,0,0,0,.864.668,3.273,3.273,0,0,0,1.318.255,3.159,3.159,0,0,0,1.148-.193,1.593,1.593,0,0,0,.741-0.53,1.23,1.23,0,0,0,.243-0.735,1.118,1.118,0,0,0-.234-0.706,1.736,1.736,0,0,0-.773-0.507,15.117,15.117,0,0,0-1.529-.419,7.814,7.814,0,0,1-1.658-.536,2.325,2.325,0,0,1-.917-0.8,1.96,1.96,0,0,1-.3-1.069,2.183,2.183,0,0,1,.369-1.216,2.286,2.286,0,0,1,1.078-.858,4.09,4.09,0,0,1,1.576-.293,4.306,4.306,0,0,1,1.685.308,2.43,2.43,0,0,1,1.122.905,2.6,2.6,0,0,1,.422,1.354l-1.09.082a1.758,1.758,0,0,0-.595-1.23,2.315,2.315,0,0,0-1.5-.416,2.4,2.4,0,0,0-1.5.378,1.133,1.133,0,0,0-.472.911,0.977,0.977,0,0,0,.334.762,4.526,4.526,0,0,0,1.714.612,11.336,11.336,0,0,1,1.9.548,2.6,2.6,0,0,1,1.107.876,2.134,2.134,0,0,1,.357,1.222,2.336,2.336,0,0,1-.393,1.292,2.585,2.585,0,0,1-1.128.943,3.93,3.93,0,0,1-1.655.337,4.942,4.942,0,0,1-1.954-.34A2.737,2.737,0,0,1,251.9,238.2,2.9,2.9,0,0,1,251.431,236.656Z" transform="translate(-4.156 -4.616)"/><path class="cls-4" d="M263.947,237.412l1.09,0.135a2.659,2.659,0,0,1-.955,1.482,3.236,3.236,0,0,1-3.946-.313,3.285,3.285,0,0,1-.8-2.358,3.438,3.438,0,0,1,.809-2.437,2.737,2.737,0,0,1,2.1-.867,2.66,2.66,0,0,1,2.039.85,3.376,3.376,0,0,1,.791,2.391q0,0.094-.006.281h-4.641a2.391,2.391,0,0,0,.58,1.57,1.727,1.727,0,0,0,1.3.545,1.614,1.614,0,0,0,.99-0.3A2.023,2.023,0,0,0,263.947,237.412Zm-3.463-1.705h3.475a2.108,2.108,0,0,0-.4-1.178,1.616,1.616,0,0,0-1.307-.609,1.675,1.675,0,0,0-1.222.486A1.925,1.925,0,0,0,260.484,235.707Z" transform="translate(-4.156 -4.616)"/><path class="cls-4" d="M270.421,237.137l1.037,0.135a2.69,2.69,0,0,1-.87,1.679,2.535,2.535,0,0,1-1.72.606,2.672,2.672,0,0,1-2.054-.835,3.388,3.388,0,0,1-.776-2.394,4.331,4.331,0,0,1,.334-1.764,2.329,2.329,0,0,1,1.017-1.134,3.016,3.016,0,0,1,1.485-.378,2.582,2.582,0,0,1,1.658.513,2.351,2.351,0,0,1,.826,1.456l-1.025.158a1.7,1.7,0,0,0-.519-0.943,1.342,1.342,0,0,0-.9-0.316,1.637,1.637,0,0,0-1.295.571,2.712,2.712,0,0,0-.5,1.808,2.8,2.8,0,0,0,.48,1.822,1.564,1.564,0,0,0,1.254.568,1.478,1.478,0,0,0,1.037-.381A1.89,1.89,0,0,0,270.421,237.137Z" transform="translate(-4.156 -4.616)"/><path class="cls-4" d="M271.728,236.3a3.207,3.207,0,0,1,.961-2.561,2.9,2.9,0,0,1,1.957-.691,2.792,2.792,0,0,1,2.1.841,3.2,3.2,0,0,1,.814,2.323,4.117,4.117,0,0,1-.36,1.89,2.551,2.551,0,0,1-1.049,1.069,3.054,3.054,0,0,1-1.5.381,2.8,2.8,0,0,1-2.112-.838A3.347,3.347,0,0,1,271.728,236.3Zm1.084,0a2.65,2.65,0,0,0,.521,1.79,1.736,1.736,0,0,0,2.619,0,2.713,2.713,0,0,0,.521-1.822,2.571,2.571,0,0,0-.524-1.749,1.739,1.739,0,0,0-2.616,0A2.639,2.639,0,0,0,272.812,236.3Z" transform="translate(-4.156 -4.616)"/><path class="cls-4" d="M278.794,239.416v-6.223h0.949v0.885a2.237,2.237,0,0,1,1.98-1.025,2.6,2.6,0,0,1,1.034.2,1.627,1.627,0,0,1,.706.53,2.035,2.035,0,0,1,.328.779,6.039,6.039,0,0,1,.059,1.025v3.826H282.8v-3.785a2.841,2.841,0,0,0-.123-0.964,1.014,1.014,0,0,0-.437-0.51,1.389,1.389,0,0,0-.735-0.19,1.709,1.709,0,0,0-1.163.428,2.11,2.11,0,0,0-.489,1.623v3.4h-1.055Z" transform="translate(-4.156 -4.616)"/><path class="cls-4" d="M289.505,239.416v-0.785a1.935,1.935,0,0,1-1.74.926,2.44,2.44,0,0,1-1.368-.41A2.7,2.7,0,0,1,285.43,238a3.959,3.959,0,0,1-.343-1.69,4.424,4.424,0,0,1,.311-1.69,2.449,2.449,0,0,1,.932-1.163,2.491,2.491,0,0,1,1.389-.4,2.075,2.075,0,0,1,1.717.855v-3.082h1.049v8.59h-0.979Zm-3.334-3.105a2.7,2.7,0,0,0,.5,1.787,1.519,1.519,0,0,0,1.189.592,1.492,1.492,0,0,0,1.175-.565,2.607,2.607,0,0,0,.483-1.726,2.926,2.926,0,0,0-.492-1.875,1.514,1.514,0,0,0-1.213-.6,1.461,1.461,0,0,0-1.175.574A2.834,2.834,0,0,0,286.171,236.311Z" transform="translate(-4.156 -4.616)"/><path class="cls-4" d="M295.611,239.416v-8.59h2.959a7.177,7.177,0,0,1,1.529.123,2.909,2.909,0,0,1,1.26.615,3.5,3.5,0,0,1,1.017,1.468,5.762,5.762,0,0,1,.337,2.042,6,6,0,0,1-.229,1.734,4.208,4.208,0,0,1-.586,1.251,3.113,3.113,0,0,1-.782.779,3.188,3.188,0,0,1-1.025.431,5.852,5.852,0,0,1-1.38.146h-3.1Zm1.137-1.014h1.834a4.451,4.451,0,0,0,1.333-.158,1.907,1.907,0,0,0,.771-0.445,2.71,2.71,0,0,0,.63-1.087,5.314,5.314,0,0,0,.226-1.655,4,4,0,0,0-.442-2.071,2.226,2.226,0,0,0-1.075-.97,4.444,4.444,0,0,0-1.471-.176h-1.8V238.4Z" transform="translate(-4.156 -4.616)"/><path class="cls-4" d="M308.4,237.412l1.09,0.135a2.659,2.659,0,0,1-.955,1.482,3.236,3.236,0,0,1-3.946-.313,3.285,3.285,0,0,1-.8-2.358,3.438,3.438,0,0,1,.809-2.437,2.737,2.737,0,0,1,2.1-.867,2.66,2.66,0,0,1,2.039.85,3.376,3.376,0,0,1,.791,2.391q0,0.094-.006.281H304.88a2.391,2.391,0,0,0,.58,1.57,1.727,1.727,0,0,0,1.3.545,1.614,1.614,0,0,0,.99-0.3A2.023,2.023,0,0,0,308.4,237.412Zm-3.463-1.705h3.475a2.108,2.108,0,0,0-.4-1.178,1.616,1.616,0,0,0-1.307-.609,1.675,1.675,0,0,0-1.222.486A1.925,1.925,0,0,0,304.939,235.707Z" transform="translate(-4.156 -4.616)"/><path class="cls-4" d="M314.708,238.649a3.927,3.927,0,0,1-1.128.7,3.259,3.259,0,0,1-1.163.205,2.262,2.262,0,0,1-1.576-.5,1.654,1.654,0,0,1-.551-1.28,1.7,1.7,0,0,1,.208-0.835,1.722,1.722,0,0,1,.545-0.606,2.562,2.562,0,0,1,.759-0.346,7.536,7.536,0,0,1,.938-0.158,9.64,9.64,0,0,0,1.881-.363q0.006-.217.006-0.275a1.164,1.164,0,0,0-.3-0.908,1.765,1.765,0,0,0-1.2-.357,1.863,1.863,0,0,0-1.1.261,1.593,1.593,0,0,0-.524.923l-1.031-.141a2.555,2.555,0,0,1,.463-1.069,2.029,2.029,0,0,1,.932-0.627,4.155,4.155,0,0,1,1.412-.22,3.738,3.738,0,0,1,1.295.188,1.706,1.706,0,0,1,.732.472,1.659,1.659,0,0,1,.328.718,5.938,5.938,0,0,1,.053.973v1.406a14.926,14.926,0,0,0,.067,1.86,2.347,2.347,0,0,0,.267.747h-1.1A2.236,2.236,0,0,1,314.708,238.649Zm-0.088-2.355a7.738,7.738,0,0,1-1.723.4,3.985,3.985,0,0,0-.92.211,0.917,0.917,0,0,0-.416.343,0.932,0.932,0,0,0,.173,1.2,1.374,1.374,0,0,0,.935.281,2.175,2.175,0,0,0,1.084-.267,1.642,1.642,0,0,0,.7-0.729,2.548,2.548,0,0,0,.17-1.055v-0.387Z" transform="translate(-4.156 -4.616)"/><path class="cls-4" d="M319.624,238.473l0.152,0.932a3.912,3.912,0,0,1-.8.094,1.8,1.8,0,0,1-.891-0.182,1.017,1.017,0,0,1-.445-0.478,3.776,3.776,0,0,1-.129-1.245v-3.58h-0.773v-0.82h0.773v-1.541l1.049-.633v2.174h1.061v0.82h-1.061v3.639a1.838,1.838,0,0,0,.056.58,0.439,0.439,0,0,0,.182.205,0.7,0.7,0,0,0,.36.076A3.431,3.431,0,0,0,319.624,238.473Z" transform="translate(-4.156 -4.616)"/><path class="cls-4" d="M320.656,239.416v-8.59h1.055v3.082a2.356,2.356,0,0,1,1.863-.855,2.513,2.513,0,0,1,1.2.272,1.6,1.6,0,0,1,.729.753,3.471,3.471,0,0,1,.22,1.395v3.943h-1.055v-3.943a1.629,1.629,0,0,0-.343-1.151,1.275,1.275,0,0,0-.97-0.36,1.71,1.71,0,0,0-.882.243,1.373,1.373,0,0,0-.589.659,3.028,3.028,0,0,0-.176,1.148v3.4h-1.055Z" transform="translate(-4.156 -4.616)"/><path class="cls-4" d="M261.8,255.053V254a3.894,3.894,0,0,1-1.286-.354,2.242,2.242,0,0,1-.855-0.823,2.946,2.946,0,0,1-.419-1.389l1.061-.2a2.675,2.675,0,0,0,.434,1.248,1.538,1.538,0,0,0,1.066.627V249.75a4.406,4.406,0,0,1-1.33-.5,1.948,1.948,0,0,1-.776-0.779,2.482,2.482,0,0,1,.524-2.953,2.772,2.772,0,0,1,1.582-.574v-0.5h0.621v0.5a2.6,2.6,0,0,1,1.459.539,2.4,2.4,0,0,1,.832,1.576l-1.09.164a1.8,1.8,0,0,0-.39-0.952,1.437,1.437,0,0,0-.812-0.437v3.041a8.364,8.364,0,0,1,1.055.311,2.605,2.605,0,0,1,.8.527,2.121,2.121,0,0,1,.478.738,2.715,2.715,0,0,1-.53,2.754,2.558,2.558,0,0,1-1.8.785v1.066H261.8Zm0-9.234a1.563,1.563,0,0,0-.97.492,1.464,1.464,0,0,0-.053,1.846,2.079,2.079,0,0,0,1.022.58v-2.918Zm0.621,7.289a1.564,1.564,0,0,0,1.017-.533,1.652,1.652,0,0,0,.4-1.131,1.416,1.416,0,0,0-.284-0.923,2.453,2.453,0,0,0-1.134-.624v3.211Z" transform="translate(-4.156 -4.616)"/><path class="cls-4" d="M269.957,253.817H268.9V247.1a5.451,5.451,0,0,1-1,.727,7.082,7.082,0,0,1-1.11.545v-1.02a6.369,6.369,0,0,0,1.547-1.008,3.964,3.964,0,0,0,.938-1.148h0.68v8.625Z" transform="translate(-4.156 -4.616)"/><path class="cls-4" d="M273.226,253.817v-1.2h1.2v1.2a2.132,2.132,0,0,1-.234,1.069,1.528,1.528,0,0,1-.744.63l-0.293-.451a1,1,0,0,0,.492-0.431,1.835,1.835,0,0,0,.176-0.817h-0.6Z" transform="translate(-4.156 -4.616)"/><path class="cls-4" d="M277.615,249.158a1.985,1.985,0,0,1-.973-0.686,1.793,1.793,0,0,1-.316-1.066A2.085,2.085,0,0,1,277,245.83a2.836,2.836,0,0,1,3.6.015,2.115,2.115,0,0,1,.686,1.591,1.752,1.752,0,0,1-.313,1.04,1.977,1.977,0,0,1-.952.683,2.309,2.309,0,0,1,1.2.832,2.285,2.285,0,0,1,.413,1.371,2.468,2.468,0,0,1-.779,1.852,3.174,3.174,0,0,1-4.1,0,2.5,2.5,0,0,1-.779-1.878,2.27,2.27,0,0,1,.425-1.4A2.127,2.127,0,0,1,277.615,249.158Zm-0.551,2.18a1.908,1.908,0,0,0,.214.873,1.509,1.509,0,0,0,.636.653,1.859,1.859,0,0,0,.908.231,1.7,1.7,0,0,0,1.248-.486,1.664,1.664,0,0,0,.492-1.236,1.692,1.692,0,0,0-.507-1.26,1.737,1.737,0,0,0-1.269-.5A1.678,1.678,0,0,0,277.064,251.338Zm0.34-3.967a1.337,1.337,0,0,0,.393,1,1.391,1.391,0,0,0,1.02.387,1.364,1.364,0,0,0,1-.384,1.269,1.269,0,0,0,.39-0.94,1.316,1.316,0,0,0-.4-0.976,1.367,1.367,0,0,0-1-.4,1.381,1.381,0,0,0-1,.387A1.245,1.245,0,0,0,277.4,247.371Z" transform="translate(-4.156 -4.616)"/><path class="cls-4" d="M282.666,251.567l1.107-.094a1.986,1.986,0,0,0,.571,1.216,1.551,1.551,0,0,0,1.081.407,1.684,1.684,0,0,0,1.289-.574,2.164,2.164,0,0,0,.527-1.523,1.956,1.956,0,0,0-.507-1.424,1.767,1.767,0,0,0-1.327-.521,1.839,1.839,0,0,0-.92.231,1.786,1.786,0,0,0-.645.6l-0.99-.129,0.832-4.412h4.271v1.008h-3.428l-0.463,2.309a2.8,2.8,0,0,1,1.623-.539,2.571,2.571,0,0,1,1.9.779,2.724,2.724,0,0,1,.773,2,3.128,3.128,0,0,1-.68,2.016,2.723,2.723,0,0,1-2.256,1.043,2.779,2.779,0,0,1-1.913-.656A2.561,2.561,0,0,1,282.666,251.567Z" transform="translate(-4.156 -4.616)"/><path class="cls-4" d="M289.339,249.58a7.86,7.86,0,0,1,.313-2.452,3.05,3.05,0,0,1,.932-1.433,2.382,2.382,0,0,1,1.556-.5,2.538,2.538,0,0,1,1.213.278,2.319,2.319,0,0,1,.861.8,4.306,4.306,0,0,1,.533,1.277,8.487,8.487,0,0,1,.193,2.03,7.882,7.882,0,0,1-.311,2.44,3.051,3.051,0,0,1-.929,1.436,2.382,2.382,0,0,1-1.562.507,2.357,2.357,0,0,1-1.951-.891A5.661,5.661,0,0,1,289.339,249.58Zm1.084,0a5.386,5.386,0,0,0,.5,2.815,1.414,1.414,0,0,0,2.443,0,8.252,8.252,0,0,0,0-5.631,1.47,1.47,0,0,0-1.233-.7,1.351,1.351,0,0,0-1.16.615A5.448,5.448,0,0,0,290.423,249.58Z" transform="translate(-4.156 -4.616)"/><path class="cls-4" d="M296.582,253.817v-1.2h1.2v1.2a2.132,2.132,0,0,1-.234,1.069,1.528,1.528,0,0,1-.744.63l-0.293-.451a1,1,0,0,0,.492-0.431,1.835,1.835,0,0,0,.176-0.817h-0.6Z" transform="translate(-4.156 -4.616)"/><path class="cls-4" d="M299.347,249.58a7.86,7.86,0,0,1,.313-2.452,3.05,3.05,0,0,1,.932-1.433,2.382,2.382,0,0,1,1.556-.5,2.538,2.538,0,0,1,1.213.278,2.319,2.319,0,0,1,.861.8,4.306,4.306,0,0,1,.533,1.277,8.487,8.487,0,0,1,.193,2.03,7.882,7.882,0,0,1-.311,2.44,3.051,3.051,0,0,1-.929,1.436,2.382,2.382,0,0,1-1.562.507,2.357,2.357,0,0,1-1.951-.891A5.661,5.661,0,0,1,299.347,249.58Zm1.084,0a5.386,5.386,0,0,0,.5,2.815,1.414,1.414,0,0,0,2.443,0,8.252,8.252,0,0,0,0-5.631,1.47,1.47,0,0,0-1.233-.7,1.351,1.351,0,0,0-1.16.615A5.448,5.448,0,0,0,300.431,249.58Z" transform="translate(-4.156 -4.616)"/><path class="cls-4" d="M306.021,249.58a7.86,7.86,0,0,1,.313-2.452,3.05,3.05,0,0,1,.932-1.433,2.382,2.382,0,0,1,1.556-.5,2.538,2.538,0,0,1,1.213.278,2.319,2.319,0,0,1,.861.8,4.306,4.306,0,0,1,.533,1.277,8.487,8.487,0,0,1,.193,2.03,7.882,7.882,0,0,1-.311,2.44,3.051,3.051,0,0,1-.929,1.436,2.382,2.382,0,0,1-1.562.507,2.357,2.357,0,0,1-1.951-.891A5.661,5.661,0,0,1,306.021,249.58Zm1.084,0a5.386,5.386,0,0,0,.5,2.815,1.414,1.414,0,0,0,2.443,0,8.252,8.252,0,0,0,0-5.631,1.47,1.47,0,0,0-1.233-.7,1.351,1.351,0,0,0-1.16.615A5.448,5.448,0,0,0,307.1,249.58Z" transform="translate(-4.156 -4.616)"/><path class="cls-4" d="M312.695,249.58a7.86,7.86,0,0,1,.313-2.452,3.05,3.05,0,0,1,.932-1.433,2.382,2.382,0,0,1,1.556-.5,2.538,2.538,0,0,1,1.213.278,2.319,2.319,0,0,1,.861.8,4.306,4.306,0,0,1,.533,1.277,8.487,8.487,0,0,1,.193,2.03,7.882,7.882,0,0,1-.311,2.44,3.051,3.051,0,0,1-.929,1.436,2.382,2.382,0,0,1-1.562.507,2.357,2.357,0,0,1-1.951-.891A5.661,5.661,0,0,1,312.695,249.58Zm1.084,0a5.386,5.386,0,0,0,.5,2.815,1.414,1.414,0,0,0,2.443,0,8.252,8.252,0,0,0,0-5.631,1.47,1.47,0,0,0-1.233-.7,1.351,1.351,0,0,0-1.16.615A5.448,5.448,0,0,0,313.779,249.58Z" transform="translate(-4.156 -4.616)"/><path class="cls-5" d="M40.03,224.189V215.6H41.2l4.512,6.745V215.6H46.8v8.59H45.632l-4.512-6.75v6.75H40.03Z" transform="translate(-4.156 -4.616)"/><path class="cls-5" d="M48.181,221.077a3.208,3.208,0,0,1,.961-2.561,2.9,2.9,0,0,1,1.957-.691,2.792,2.792,0,0,1,2.1.841,3.2,3.2,0,0,1,.814,2.324,4.117,4.117,0,0,1-.36,1.89,2.551,2.551,0,0,1-1.049,1.069,3.054,3.054,0,0,1-1.5.381,2.8,2.8,0,0,1-2.112-.838A3.347,3.347,0,0,1,48.181,221.077Zm1.084,0a2.65,2.65,0,0,0,.521,1.79,1.736,1.736,0,0,0,2.619,0,2.713,2.713,0,0,0,.521-1.822,2.571,2.571,0,0,0-.524-1.749,1.738,1.738,0,0,0-2.616,0A2.639,2.639,0,0,0,49.265,221.077Z" transform="translate(-4.156 -4.616)"/><path class="cls-5" d="M62.841,222.185l1.09,0.135a2.659,2.659,0,0,1-.955,1.482,3.236,3.236,0,0,1-3.946-.313,3.285,3.285,0,0,1-.8-2.358,3.44,3.44,0,0,1,.809-2.438,2.737,2.737,0,0,1,2.1-.867,2.66,2.66,0,0,1,2.039.85,3.378,3.378,0,0,1,.791,2.391q0,0.094-.006.281H59.319a2.391,2.391,0,0,0,.58,1.57,1.727,1.727,0,0,0,1.3.545,1.614,1.614,0,0,0,.99-0.3A2.023,2.023,0,0,0,62.841,222.185Zm-3.463-1.705h3.475a2.108,2.108,0,0,0-.4-1.178,1.615,1.615,0,0,0-1.307-.61,1.674,1.674,0,0,0-1.222.487A1.925,1.925,0,0,0,59.378,220.48Z" transform="translate(-4.156 -4.616)"/><path class="cls-5" d="M64.833,222.331l1.043-.164a1.458,1.458,0,0,0,.489.961,1.705,1.705,0,0,0,1.122.334,1.648,1.648,0,0,0,1.078-.3,0.885,0.885,0,0,0,.352-0.694,0.641,0.641,0,0,0-.311-0.562,4.574,4.574,0,0,0-1.078-.357,9.838,9.838,0,0,1-1.608-.507,1.535,1.535,0,0,1-.911-1.427,1.6,1.6,0,0,1,.19-0.771,1.708,1.708,0,0,1,.519-0.589,2.174,2.174,0,0,1,.671-0.308,3.19,3.19,0,0,1,.911-0.126,3.6,3.6,0,0,1,1.286.211,1.749,1.749,0,0,1,.817.571,2.235,2.235,0,0,1,.363.964l-1.031.141a1.13,1.13,0,0,0-.407-0.75,1.489,1.489,0,0,0-.952-0.27,1.724,1.724,0,0,0-1.037.24,0.7,0.7,0,0,0-.311.563,0.582,0.582,0,0,0,.129.369,0.93,0.93,0,0,0,.4.281q0.158,0.059.932,0.27a12.969,12.969,0,0,1,1.562.489,1.584,1.584,0,0,1,.694.554,1.546,1.546,0,0,1,.252.9,1.771,1.771,0,0,1-.308.993,1.988,1.988,0,0,1-.888.721,3.231,3.231,0,0,1-1.312.255,2.924,2.924,0,0,1-1.849-.5A2.343,2.343,0,0,1,64.833,222.331Z" transform="translate(-4.156 -4.616)"/><path class="cls-5" d="M73.558,223.245l0.152,0.932a3.912,3.912,0,0,1-.8.094,1.8,1.8,0,0,1-.891-0.182,1.017,1.017,0,0,1-.445-0.478,3.776,3.776,0,0,1-.129-1.245v-3.581H70.675v-0.82h0.773v-1.541l1.049-.633v2.174h1.061v0.82H72.5v3.639a1.838,1.838,0,0,0,.056.58,0.439,0.439,0,0,0,.182.205,0.7,0.7,0,0,0,.36.076A3.431,3.431,0,0,0,73.558,223.245Z" transform="translate(-4.156 -4.616)"/><path class="cls-5" d="M78.434,223.421a3.927,3.927,0,0,1-1.128.7,3.259,3.259,0,0,1-1.163.205,2.262,2.262,0,0,1-1.576-.5,1.654,1.654,0,0,1-.551-1.28,1.7,1.7,0,0,1,.208-0.835,1.722,1.722,0,0,1,.545-0.606,2.562,2.562,0,0,1,.759-0.346,7.536,7.536,0,0,1,.938-0.158,9.64,9.64,0,0,0,1.881-.363q0.006-.217.006-0.275a1.166,1.166,0,0,0-.3-0.909,1.765,1.765,0,0,0-1.2-.357,1.863,1.863,0,0,0-1.1.261,1.6,1.6,0,0,0-.524.923l-1.031-.141a2.557,2.557,0,0,1,.463-1.07,2.029,2.029,0,0,1,.932-0.627,4.155,4.155,0,0,1,1.412-.22,3.738,3.738,0,0,1,1.295.188,1.706,1.706,0,0,1,.732.472,1.658,1.658,0,0,1,.328.718,5.938,5.938,0,0,1,.053.973v1.406a14.926,14.926,0,0,0,.067,1.86,2.347,2.347,0,0,0,.267.747h-1.1A2.236,2.236,0,0,1,78.434,223.421Zm-0.088-2.355a7.738,7.738,0,0,1-1.723.4,3.985,3.985,0,0,0-.92.211,0.917,0.917,0,0,0-.416.343,0.932,0.932,0,0,0,.173,1.2,1.374,1.374,0,0,0,.935.281,2.175,2.175,0,0,0,1.084-.267,1.642,1.642,0,0,0,.7-0.729,2.548,2.548,0,0,0,.17-1.055v-0.387Z" transform="translate(-4.156 -4.616)"/><path class="cls-5" d="M83.35,223.245l0.152,0.932a3.912,3.912,0,0,1-.8.094,1.8,1.8,0,0,1-.891-0.182,1.017,1.017,0,0,1-.445-0.478,3.776,3.776,0,0,1-.129-1.245v-3.581H80.467v-0.82H81.24v-1.541l1.049-.633v2.174H83.35v0.82H82.289v3.639a1.838,1.838,0,0,0,.056.58,0.439,0.439,0,0,0,.182.205,0.7,0.7,0,0,0,.36.076A3.431,3.431,0,0,0,83.35,223.245Z" transform="translate(-4.156 -4.616)"/><path class="cls-5" d="M88.532,222.185l1.09,0.135a2.659,2.659,0,0,1-.955,1.482,3.236,3.236,0,0,1-3.946-.313,3.285,3.285,0,0,1-.8-2.358,3.44,3.44,0,0,1,.809-2.438,2.737,2.737,0,0,1,2.1-.867,2.66,2.66,0,0,1,2.039.85,3.378,3.378,0,0,1,.791,2.391q0,0.094-.006.281H85.011a2.391,2.391,0,0,0,.58,1.57,1.727,1.727,0,0,0,1.3.545,1.614,1.614,0,0,0,.99-0.3A2.023,2.023,0,0,0,88.532,222.185Zm-3.463-1.705h3.475a2.108,2.108,0,0,0-.4-1.178,1.615,1.615,0,0,0-1.307-.61,1.674,1.674,0,0,0-1.222.487A1.925,1.925,0,0,0,85.069,220.48Z" transform="translate(-4.156 -4.616)"/><path class="cls-5" d="M96.583,223.245l0.152,0.932a3.912,3.912,0,0,1-.8.094,1.8,1.8,0,0,1-.891-0.182,1.017,1.017,0,0,1-.445-0.478,3.776,3.776,0,0,1-.129-1.245v-3.581H93.7v-0.82h0.773v-1.541l1.049-.633v2.174h1.061v0.82H95.522v3.639a1.838,1.838,0,0,0,.056.58,0.439,0.439,0,0,0,.182.205,0.7,0.7,0,0,0,.36.076A3.431,3.431,0,0,0,96.583,223.245Z" transform="translate(-4.156 -4.616)"/><path class="cls-5" d="M101.459,223.421a3.927,3.927,0,0,1-1.128.7,3.259,3.259,0,0,1-1.163.205,2.262,2.262,0,0,1-1.576-.5,1.654,1.654,0,0,1-.551-1.28,1.7,1.7,0,0,1,.208-0.835,1.722,1.722,0,0,1,.545-0.606,2.562,2.562,0,0,1,.759-0.346,7.536,7.536,0,0,1,.938-0.158,9.64,9.64,0,0,0,1.881-.363q0.006-.217.006-0.275a1.166,1.166,0,0,0-.3-0.909,1.765,1.765,0,0,0-1.2-.357,1.863,1.863,0,0,0-1.1.261,1.6,1.6,0,0,0-.524.923l-1.031-.141a2.557,2.557,0,0,1,.463-1.07,2.029,2.029,0,0,1,.932-0.627,4.155,4.155,0,0,1,1.412-.22,3.738,3.738,0,0,1,1.295.188,1.706,1.706,0,0,1,.732.472,1.658,1.658,0,0,1,.328.718,5.938,5.938,0,0,1,.053.973v1.406a14.926,14.926,0,0,0,.067,1.86,2.347,2.347,0,0,0,.267.747h-1.1A2.236,2.236,0,0,1,101.459,223.421Zm-0.088-2.355a7.738,7.738,0,0,1-1.723.4,3.985,3.985,0,0,0-.92.211,0.917,0.917,0,0,0-.416.343,0.932,0.932,0,0,0,.173,1.2,1.374,1.374,0,0,0,.935.281,2.175,2.175,0,0,0,1.084-.267,1.642,1.642,0,0,0,.7-0.729,2.548,2.548,0,0,0,.17-1.055v-0.387Z" transform="translate(-4.156 -4.616)"/><path class="cls-5" d="M103.369,224.189l2.273-3.234-2.1-2.989h1.318l0.955,1.459q0.27,0.416.434,0.7,0.258-.387.475-0.686l1.049-1.471h1.26l-2.15,2.93,2.314,3.293H107.9l-1.277-1.934-0.34-.521-1.635,2.455h-1.277Z" transform="translate(-4.156 -4.616)"/><rect class="cls-7" x="34.5" y="17.4" width="126" height="28.8"/><rect class="cls-7" x="218.5" y="17.4" width="126" height="28.8"/><path class="cls-4" d="M76.509,37.106l1.072-.094a2.368,2.368,0,0,0,.354,1.058,1.935,1.935,0,0,0,.864.668,3.273,3.273,0,0,0,1.318.255,3.159,3.159,0,0,0,1.148-.193,1.593,1.593,0,0,0,.741-0.53,1.23,1.23,0,0,0,.243-0.735,1.118,1.118,0,0,0-.234-0.706,1.736,1.736,0,0,0-.773-0.507,15.117,15.117,0,0,0-1.529-.419,7.814,7.814,0,0,1-1.658-.536,2.325,2.325,0,0,1-.917-0.8,1.96,1.96,0,0,1-.3-1.069,2.183,2.183,0,0,1,.369-1.216,2.286,2.286,0,0,1,1.078-.858,4.09,4.09,0,0,1,1.576-.293,4.306,4.306,0,0,1,1.685.308,2.43,2.43,0,0,1,1.122.905,2.6,2.6,0,0,1,.422,1.354L82,33.778a1.758,1.758,0,0,0-.595-1.23,2.315,2.315,0,0,0-1.5-.416,2.4,2.4,0,0,0-1.5.378,1.133,1.133,0,0,0-.472.911,0.977,0.977,0,0,0,.334.762,4.526,4.526,0,0,0,1.714.612,11.336,11.336,0,0,1,1.9.548,2.6,2.6,0,0,1,1.107.876,2.134,2.134,0,0,1,.357,1.222,2.336,2.336,0,0,1-.393,1.292,2.585,2.585,0,0,1-1.128.943,3.93,3.93,0,0,1-1.655.337,4.942,4.942,0,0,1-1.954-.34,2.737,2.737,0,0,1-1.236-1.022A2.9,2.9,0,0,1,76.509,37.106Z" transform="translate(-4.156 -4.616)"/><path class="cls-4" d="M84.765,42.251V33.643h0.961v0.809a2.369,2.369,0,0,1,.768-0.712,2.109,2.109,0,0,1,1.037-.237,2.459,2.459,0,0,1,1.406.41,2.517,2.517,0,0,1,.92,1.157,4.225,4.225,0,0,1,.311,1.638,4.16,4.16,0,0,1-.343,1.72,2.584,2.584,0,0,1-1,1.172,2.558,2.558,0,0,1-1.374.407,1.985,1.985,0,0,1-.946-0.223,2.155,2.155,0,0,1-.688-0.562v3.029H84.765ZM85.72,36.79a2.707,2.707,0,0,0,.486,1.775,1.491,1.491,0,0,0,1.178.574,1.525,1.525,0,0,0,1.2-.595,2.822,2.822,0,0,0,.5-1.843,2.749,2.749,0,0,0-.489-1.781,1.473,1.473,0,0,0-1.169-.592,1.519,1.519,0,0,0-1.192.63A2.818,2.818,0,0,0,85.72,36.79Z" transform="translate(-4.156 -4.616)"/><path class="cls-4" d="M91.046,36.755a3.207,3.207,0,0,1,.961-2.561,2.9,2.9,0,0,1,1.957-.691,2.792,2.792,0,0,1,2.1.841,3.2,3.2,0,0,1,.814,2.323,4.117,4.117,0,0,1-.36,1.89,2.551,2.551,0,0,1-1.049,1.069,3.054,3.054,0,0,1-1.5.381,2.8,2.8,0,0,1-2.112-.838A3.347,3.347,0,0,1,91.046,36.755Zm1.084,0a2.65,2.65,0,0,0,.521,1.79,1.736,1.736,0,0,0,2.619,0,2.713,2.713,0,0,0,.521-1.822,2.571,2.571,0,0,0-.524-1.749,1.739,1.739,0,0,0-2.616,0A2.639,2.639,0,0,0,92.13,36.755Z" transform="translate(-4.156 -4.616)"/><path class="cls-4" d="M102.191,39.866V38.952a2.278,2.278,0,0,1-1.975,1.055,2.516,2.516,0,0,1-1.028-.211,1.694,1.694,0,0,1-.709-0.53,1.987,1.987,0,0,1-.325-0.782,5.356,5.356,0,0,1-.064-0.984V33.643h1.055v3.451a6.15,6.15,0,0,0,.064,1.113,1.1,1.1,0,0,0,.422.653,1.307,1.307,0,0,0,.8.237,1.736,1.736,0,0,0,.891-0.243,1.352,1.352,0,0,0,.589-0.662,3.322,3.322,0,0,0,.173-1.216V33.643h1.055v6.223h-0.943Z" transform="translate(-4.156 -4.616)"/><path class="cls-4" d="M104.365,38.008l1.043-.164a1.458,1.458,0,0,0,.489.961,1.705,1.705,0,0,0,1.122.334,1.648,1.648,0,0,0,1.078-.3,0.885,0.885,0,0,0,.352-0.694,0.641,0.641,0,0,0-.311-0.562,4.574,4.574,0,0,0-1.078-.357,9.838,9.838,0,0,1-1.608-.507,1.535,1.535,0,0,1-.911-1.427,1.6,1.6,0,0,1,.19-0.771,1.708,1.708,0,0,1,.519-0.589,2.174,2.174,0,0,1,.671-0.308,3.19,3.19,0,0,1,.911-0.126,3.6,3.6,0,0,1,1.286.211,1.749,1.749,0,0,1,.817.571,2.232,2.232,0,0,1,.363.964l-1.031.141a1.128,1.128,0,0,0-.407-0.75,1.489,1.489,0,0,0-.952-0.27,1.724,1.724,0,0,0-1.037.24,0.7,0.7,0,0,0-.311.563,0.582,0.582,0,0,0,.129.369,0.93,0.93,0,0,0,.4.281q0.158,0.059.932,0.27a12.969,12.969,0,0,1,1.562.489,1.584,1.584,0,0,1,.694.554,1.546,1.546,0,0,1,.252.9,1.771,1.771,0,0,1-.308.993,1.988,1.988,0,0,1-.888.721,3.231,3.231,0,0,1-1.312.255,2.924,2.924,0,0,1-1.849-.5A2.343,2.343,0,0,1,104.365,38.008Z" transform="translate(-4.156 -4.616)"/><path class="cls-4" d="M115.046,37.862L116.136,38a2.659,2.659,0,0,1-.955,1.482,3.236,3.236,0,0,1-3.946-.313,3.285,3.285,0,0,1-.8-2.358,3.438,3.438,0,0,1,.809-2.437,2.737,2.737,0,0,1,2.1-.867,2.66,2.66,0,0,1,2.039.85,3.376,3.376,0,0,1,.791,2.391q0,0.094-.006.281h-4.641a2.391,2.391,0,0,0,.58,1.57,1.727,1.727,0,0,0,1.3.545,1.614,1.614,0,0,0,.99-0.3A2.023,2.023,0,0,0,115.046,37.862Zm-3.463-1.705h3.475a2.108,2.108,0,0,0-.4-1.178,1.616,1.616,0,0,0-1.307-.609,1.675,1.675,0,0,0-1.222.486A1.925,1.925,0,0,0,111.583,36.157Z" transform="translate(-4.156 -4.616)"/><path class="cls-4" d="M120.607,40.012l0.51-2.5h-0.99V36.643h1.166l0.434-2.127h-1.6V33.643H121.9l0.51-2.514h0.879l-0.51,2.514h1.846l0.51-2.514h0.885l-0.51,2.514h1.014v0.873h-1.189L124.9,36.643h1.629v0.873h-1.8l-0.51,2.5h-0.879l0.5-2.5H122l-0.51,2.5h-0.879Zm1.564-3.369h1.84l0.439-2.127H122.6Z" transform="translate(-4.156 -4.616)"/><path class="cls-4" d="M131.148,39.866h-1.055V33.145a5.451,5.451,0,0,1-1,.727,7.082,7.082,0,0,1-1.11.545V33.4a6.369,6.369,0,0,0,1.547-1.008,3.964,3.964,0,0,0,.938-1.148h0.68v8.625Z" transform="translate(-4.156 -4.616)"/><path class="cls-4" d="M260.505,37.406l1.072-.094a2.368,2.368,0,0,0,.354,1.058,1.935,1.935,0,0,0,.864.668,3.273,3.273,0,0,0,1.318.255,3.159,3.159,0,0,0,1.148-.193,1.593,1.593,0,0,0,.741-0.53,1.23,1.23,0,0,0,.243-0.735,1.118,1.118,0,0,0-.234-0.706,1.736,1.736,0,0,0-.773-0.507,15.117,15.117,0,0,0-1.529-.419,7.814,7.814,0,0,1-1.658-.536,2.325,2.325,0,0,1-.917-0.8,1.96,1.96,0,0,1-.3-1.069,2.183,2.183,0,0,1,.369-1.216,2.286,2.286,0,0,1,1.078-.858,4.09,4.09,0,0,1,1.576-.293,4.306,4.306,0,0,1,1.685.308,2.43,2.43,0,0,1,1.122.905A2.6,2.6,0,0,1,267.085,34l-1.09.082a1.758,1.758,0,0,0-.595-1.23,2.315,2.315,0,0,0-1.5-.416,2.4,2.4,0,0,0-1.5.378,1.133,1.133,0,0,0-.472.911,0.977,0.977,0,0,0,.334.762,4.526,4.526,0,0,0,1.714.612,11.336,11.336,0,0,1,1.9.548,2.6,2.6,0,0,1,1.107.876,2.134,2.134,0,0,1,.357,1.222,2.336,2.336,0,0,1-.393,1.292,2.585,2.585,0,0,1-1.128.943,3.93,3.93,0,0,1-1.655.337,4.942,4.942,0,0,1-1.954-.34,2.737,2.737,0,0,1-1.236-1.022A2.9,2.9,0,0,1,260.505,37.406Z" transform="translate(-4.156 -4.616)"/><path class="cls-4" d="M268.761,42.55V33.943h0.961v0.809a2.369,2.369,0,0,1,.768-0.712,2.109,2.109,0,0,1,1.037-.237,2.459,2.459,0,0,1,1.406.41,2.517,2.517,0,0,1,.92,1.157,4.225,4.225,0,0,1,.311,1.638,4.16,4.16,0,0,1-.343,1.72,2.584,2.584,0,0,1-1,1.172,2.558,2.558,0,0,1-1.374.407,1.985,1.985,0,0,1-.946-0.223,2.155,2.155,0,0,1-.688-0.562V42.55h-1.055Zm0.955-5.461a2.707,2.707,0,0,0,.486,1.775,1.491,1.491,0,0,0,1.178.574,1.525,1.525,0,0,0,1.2-.595,2.822,2.822,0,0,0,.5-1.843,2.749,2.749,0,0,0-.489-1.781,1.473,1.473,0,0,0-1.169-.592,1.519,1.519,0,0,0-1.192.63A2.818,2.818,0,0,0,269.716,37.09Z" transform="translate(-4.156 -4.616)"/><path class="cls-4" d="M275.042,37.054A3.207,3.207,0,0,1,276,34.494a2.9,2.9,0,0,1,1.957-.691,2.792,2.792,0,0,1,2.1.841,3.2,3.2,0,0,1,.814,2.323,4.117,4.117,0,0,1-.36,1.89,2.551,2.551,0,0,1-1.049,1.069,3.054,3.054,0,0,1-1.5.381,2.8,2.8,0,0,1-2.112-.838A3.347,3.347,0,0,1,275.042,37.054Zm1.084,0a2.65,2.65,0,0,0,.521,1.79,1.736,1.736,0,0,0,2.619,0,2.713,2.713,0,0,0,.521-1.822,2.571,2.571,0,0,0-.524-1.749,1.739,1.739,0,0,0-2.616,0A2.639,2.639,0,0,0,276.126,37.054Z" transform="translate(-4.156 -4.616)"/><path class="cls-4" d="M286.187,40.166V39.252a2.278,2.278,0,0,1-1.975,1.055,2.516,2.516,0,0,1-1.028-.211,1.694,1.694,0,0,1-.709-0.53,1.987,1.987,0,0,1-.325-0.782,5.356,5.356,0,0,1-.064-0.984V33.943h1.055v3.451a6.15,6.15,0,0,0,.064,1.113,1.1,1.1,0,0,0,.422.653,1.307,1.307,0,0,0,.8.237,1.736,1.736,0,0,0,.891-0.243,1.352,1.352,0,0,0,.589-0.662,3.322,3.322,0,0,0,.173-1.216V33.943h1.055v6.223h-0.943Z" transform="translate(-4.156 -4.616)"/><path class="cls-4" d="M288.361,38.308l1.043-.164a1.458,1.458,0,0,0,.489.961,1.705,1.705,0,0,0,1.122.334,1.648,1.648,0,0,0,1.078-.3,0.885,0.885,0,0,0,.352-0.694,0.641,0.641,0,0,0-.311-0.562,4.574,4.574,0,0,0-1.078-.357,9.838,9.838,0,0,1-1.608-.507,1.535,1.535,0,0,1-.911-1.427,1.6,1.6,0,0,1,.19-0.771,1.708,1.708,0,0,1,.519-0.589,2.174,2.174,0,0,1,.671-0.308,3.19,3.19,0,0,1,.911-0.126,3.6,3.6,0,0,1,1.286.211,1.749,1.749,0,0,1,.817.571,2.232,2.232,0,0,1,.363.964l-1.031.141a1.128,1.128,0,0,0-.407-0.75,1.489,1.489,0,0,0-.952-0.27,1.724,1.724,0,0,0-1.037.24,0.7,0.7,0,0,0-.311.563,0.582,0.582,0,0,0,.129.369,0.93,0.93,0,0,0,.4.281q0.158,0.059.932,0.27a12.969,12.969,0,0,1,1.562.489,1.584,1.584,0,0,1,.694.554,1.546,1.546,0,0,1,.252.9,1.771,1.771,0,0,1-.308.993,1.988,1.988,0,0,1-.888.721,3.231,3.231,0,0,1-1.312.255,2.924,2.924,0,0,1-1.849-.5A2.343,2.343,0,0,1,288.361,38.308Z" transform="translate(-4.156 -4.616)"/><path class="cls-4" d="M299.042,38.162l1.09,0.135a2.659,2.659,0,0,1-.955,1.482,3.236,3.236,0,0,1-3.946-.313,3.285,3.285,0,0,1-.8-2.358,3.438,3.438,0,0,1,.809-2.437,2.737,2.737,0,0,1,2.1-.867,2.66,2.66,0,0,1,2.039.85,3.376,3.376,0,0,1,.791,2.391q0,0.094-.006.281h-4.641a2.391,2.391,0,0,0,.58,1.57,1.727,1.727,0,0,0,1.3.545,1.614,1.614,0,0,0,.99-0.3A2.023,2.023,0,0,0,299.042,38.162Zm-3.463-1.705h3.475a2.108,2.108,0,0,0-.4-1.178,1.616,1.616,0,0,0-1.307-.609,1.675,1.675,0,0,0-1.222.486A1.925,1.925,0,0,0,295.58,36.457Z" transform="translate(-4.156 -4.616)"/><path class="cls-4" d="M304.6,40.312l0.51-2.5h-0.99V36.943h1.166l0.434-2.127h-1.6V33.943H305.9l0.51-2.514h0.879l-0.51,2.514h1.846l0.51-2.514h0.885l-0.51,2.514h1.014v0.873h-1.189l-0.439,2.127h1.629v0.873h-1.8l-0.51,2.5h-0.879l0.5-2.5h-1.84l-0.51,2.5H304.6Zm1.564-3.369h1.84l0.439-2.127H306.6Z" transform="translate(-4.156 -4.616)"/><path class="cls-4" d="M316.714,39.152v1.014h-5.678a1.866,1.866,0,0,1,.123-0.732,3.875,3.875,0,0,1,.694-1.143,10.878,10.878,0,0,1,1.38-1.3,11.7,11.7,0,0,0,1.893-1.819,2.178,2.178,0,0,0,.492-1.269,1.409,1.409,0,0,0-.448-1.058A1.617,1.617,0,0,0,314,32.414a1.647,1.647,0,0,0-1.219.457,1.729,1.729,0,0,0-.463,1.266l-1.084-.111a2.668,2.668,0,0,1,.838-1.849,2.858,2.858,0,0,1,1.951-.636,2.723,2.723,0,0,1,1.957.686,2.251,2.251,0,0,1,.721,1.7,2.577,2.577,0,0,1-.211,1.014,3.934,3.934,0,0,1-.7,1.049,17.058,17.058,0,0,1-1.626,1.512q-0.949.8-1.219,1.081a3.468,3.468,0,0,0-.445.571h4.213Z" transform="translate(-4.156 -4.616)"/><polygon points="217.017 224.459 207.744 204.909 197.347 233.475 217.017 224.459"/><line class="cls-8" x1="189.5" y1="14.429" x2="189.5" y2="189.686"/><path class="cls-9" d="M193.656,196.316h0m0-181.3h0" transform="translate(-4.156 -4.616)"/><rect class="cls-10" x="72.6" y="249.6" width="134.582" height="70.8"/><polygon class="cls-11" points="71.933 249.6 71.933 320.4 71.933 321.067 72.6 321.067 207.182 321.067 207.849 321.067 207.849 320.4 207.849 249.6 207.849 248.933 207.182 248.933 72.6 248.933 71.933 248.933 71.933 249.6"/><rect class="cls-11" x="73.267" y="250.267" width="133.248" height="69.466"/><path class="cls-5" d="M83.293,269.557l1.072-.094a2.368,2.368,0,0,0,.354,1.058,1.935,1.935,0,0,0,.864.668,3.273,3.273,0,0,0,1.318.255,3.159,3.159,0,0,0,1.148-.193,1.593,1.593,0,0,0,.741-0.53,1.23,1.23,0,0,0,.243-0.735,1.118,1.118,0,0,0-.234-0.706,1.736,1.736,0,0,0-.773-0.507,15.117,15.117,0,0,0-1.529-.419,7.814,7.814,0,0,1-1.658-.536,2.325,2.325,0,0,1-.917-0.8,1.96,1.96,0,0,1-.3-1.069,2.183,2.183,0,0,1,.369-1.216,2.286,2.286,0,0,1,1.078-.858,4.09,4.09,0,0,1,1.576-.293,4.306,4.306,0,0,1,1.685.308,2.43,2.43,0,0,1,1.122.905,2.6,2.6,0,0,1,.422,1.354l-1.09.082a1.758,1.758,0,0,0-.595-1.23,2.315,2.315,0,0,0-1.5-.416,2.4,2.4,0,0,0-1.5.378,1.133,1.133,0,0,0-.472.911,0.977,0.977,0,0,0,.334.762,4.526,4.526,0,0,0,1.714.612,11.336,11.336,0,0,1,1.9.548,2.6,2.6,0,0,1,1.107.876,2.134,2.134,0,0,1,.357,1.222,2.336,2.336,0,0,1-.393,1.292,2.585,2.585,0,0,1-1.128.943,3.93,3.93,0,0,1-1.655.337,4.942,4.942,0,0,1-1.954-.34,2.737,2.737,0,0,1-1.236-1.022A2.9,2.9,0,0,1,83.293,269.557Z" transform="translate(-4.156 -4.616)"/><path class="cls-5" d="M95.627,272.317V271.4a2.278,2.278,0,0,1-1.975,1.055,2.516,2.516,0,0,1-1.028-.211,1.694,1.694,0,0,1-.709-0.53,1.987,1.987,0,0,1-.325-0.782,5.356,5.356,0,0,1-.064-0.984v-3.855H92.58v3.451a6.15,6.15,0,0,0,.064,1.113,1.1,1.1,0,0,0,.422.653,1.307,1.307,0,0,0,.8.237,1.736,1.736,0,0,0,.891-0.243,1.352,1.352,0,0,0,.589-0.662,3.322,3.322,0,0,0,.173-1.216v-3.334H96.57v6.223H95.627Z" transform="translate(-4.156 -4.616)"/><path class="cls-5" d="M98.211,272.317v-6.223H99.16v0.943a2.574,2.574,0,0,1,.671-0.873,1.171,1.171,0,0,1,.677-0.211,2.057,2.057,0,0,1,1.084.34l-0.363.979a1.509,1.509,0,0,0-.773-0.229,1,1,0,0,0-.621.208,1.127,1.127,0,0,0-.393.577,4.108,4.108,0,0,0-.176,1.23v3.258H98.211Z" transform="translate(-4.156 -4.616)"/><path class="cls-5" d="M104.175,272.317l-2.367-6.223h1.113l1.336,3.727q0.217,0.6.4,1.254,0.141-.492.393-1.184l1.383-3.8h1.084l-2.355,6.223h-0.984Z" transform="translate(-4.156 -4.616)"/><path class="cls-5" d="M108.453,264.94v-1.213h1.055v1.213h-1.055Zm0,7.377v-6.223h1.055v6.223h-1.055Z" transform="translate(-4.156 -4.616)"/><path class="cls-5" d="M112.841,272.317l-2.367-6.223h1.113l1.336,3.727q0.217,0.6.4,1.254,0.141-.492.393-1.184l1.383-3.8h1.084l-2.355,6.223h-0.984Z" transform="translate(-4.156 -4.616)"/><path class="cls-5" d="M117.119,264.94v-1.213h1.055v1.213h-1.055Zm0,7.377v-6.223h1.055v6.223h-1.055Z" transform="translate(-4.156 -4.616)"/><path class="cls-5" d="M119.779,272.317v-6.223h0.949v0.885a2.237,2.237,0,0,1,1.98-1.025,2.6,2.6,0,0,1,1.034.2,1.627,1.627,0,0,1,.706.53,2.035,2.035,0,0,1,.328.779,6.039,6.039,0,0,1,.059,1.025v3.826h-1.055v-3.785a2.841,2.841,0,0,0-.123-0.964,1.014,1.014,0,0,0-.437-0.51,1.389,1.389,0,0,0-.735-0.19,1.709,1.709,0,0,0-1.163.428,2.11,2.11,0,0,0-.489,1.623v3.4h-1.055Z" transform="translate(-4.156 -4.616)"/><path class="cls-5" d="M126.259,272.832l1.025,0.152a0.977,0.977,0,0,0,.357.691,1.756,1.756,0,0,0,1.072.293,1.883,1.883,0,0,0,1.131-.293,1.442,1.442,0,0,0,.539-0.82,6.736,6.736,0,0,0,.076-1.354,2.169,2.169,0,0,1-1.723.814,2.349,2.349,0,0,1-1.986-.926,3.565,3.565,0,0,1-.7-2.221,4.133,4.133,0,0,1,.322-1.644,2.578,2.578,0,0,1,.935-1.163,2.524,2.524,0,0,1,1.438-.41,2.231,2.231,0,0,1,1.816.891v-0.75h0.973v5.379a5.1,5.1,0,0,1-.3,2.06,2.164,2.164,0,0,1-.937.958,3.249,3.249,0,0,1-1.579.352,2.978,2.978,0,0,1-1.8-.5A1.694,1.694,0,0,1,126.259,272.832Zm0.873-3.738a2.7,2.7,0,0,0,.486,1.787,1.6,1.6,0,0,0,2.438,0,2.612,2.612,0,0,0,.492-1.755,2.552,2.552,0,0,0-.507-1.723,1.567,1.567,0,0,0-1.222-.58,1.522,1.522,0,0,0-1.2.571A2.537,2.537,0,0,0,127.132,269.094Z" transform="translate(-4.156 -4.616)"/><path class="cls-5" d="M136.039,270.459l1.043-.164a1.458,1.458,0,0,0,.489.961,1.705,1.705,0,0,0,1.122.334,1.648,1.648,0,0,0,1.078-.3,0.885,0.885,0,0,0,.352-0.694,0.641,0.641,0,0,0-.311-0.562,4.574,4.574,0,0,0-1.078-.357,9.838,9.838,0,0,1-1.608-.507,1.535,1.535,0,0,1-.911-1.427,1.6,1.6,0,0,1,.19-0.771,1.708,1.708,0,0,1,.519-0.589,2.174,2.174,0,0,1,.671-0.308,3.19,3.19,0,0,1,.911-0.126,3.6,3.6,0,0,1,1.286.211,1.749,1.749,0,0,1,.817.571,2.232,2.232,0,0,1,.363.964l-1.031.141a1.128,1.128,0,0,0-.407-0.75,1.489,1.489,0,0,0-.952-0.27,1.724,1.724,0,0,0-1.037.24,0.7,0.7,0,0,0-.311.563,0.582,0.582,0,0,0,.129.369,0.93,0.93,0,0,0,.4.281q0.158,0.059.932,0.27a12.969,12.969,0,0,1,1.562.489,1.584,1.584,0,0,1,.694.554,1.546,1.546,0,0,1,.252.9,1.771,1.771,0,0,1-.308.993,1.988,1.988,0,0,1-.888.721,3.231,3.231,0,0,1-1.312.255,2.924,2.924,0,0,1-1.849-.5A2.343,2.343,0,0,1,136.039,270.459Z" transform="translate(-4.156 -4.616)"/><path class="cls-5" d="M142.46,274.7v-8.607h0.961V266.9a2.369,2.369,0,0,1,.768-0.712,2.109,2.109,0,0,1,1.037-.237,2.459,2.459,0,0,1,1.406.41,2.517,2.517,0,0,1,.92,1.157,4.225,4.225,0,0,1,.311,1.638,4.16,4.16,0,0,1-.343,1.72,2.584,2.584,0,0,1-1,1.172,2.558,2.558,0,0,1-1.374.407,1.985,1.985,0,0,1-.946-0.223,2.155,2.155,0,0,1-.688-0.562V274.7H142.46Zm0.955-5.461a2.707,2.707,0,0,0,.486,1.775,1.491,1.491,0,0,0,1.178.574,1.525,1.525,0,0,0,1.2-.595,2.822,2.822,0,0,0,.5-1.843,2.749,2.749,0,0,0-.489-1.781,1.473,1.473,0,0,0-1.169-.592,1.519,1.519,0,0,0-1.192.63A2.818,2.818,0,0,0,143.416,269.24Z" transform="translate(-4.156 -4.616)"/><path class="cls-5" d="M148.742,269.205a3.207,3.207,0,0,1,.961-2.561,2.9,2.9,0,0,1,1.957-.691,2.792,2.792,0,0,1,2.1.841,3.2,3.2,0,0,1,.814,2.323,4.117,4.117,0,0,1-.36,1.89,2.551,2.551,0,0,1-1.049,1.069,3.054,3.054,0,0,1-1.5.381,2.8,2.8,0,0,1-2.112-.838A3.347,3.347,0,0,1,148.742,269.205Zm1.084,0a2.65,2.65,0,0,0,.521,1.79,1.736,1.736,0,0,0,2.619,0,2.713,2.713,0,0,0,.521-1.822,2.571,2.571,0,0,0-.524-1.749,1.739,1.739,0,0,0-2.616,0A2.639,2.639,0,0,0,149.826,269.205Z" transform="translate(-4.156 -4.616)"/><path class="cls-5" d="M159.886,272.317V271.4a2.278,2.278,0,0,1-1.975,1.055,2.516,2.516,0,0,1-1.028-.211,1.694,1.694,0,0,1-.709-0.53,1.987,1.987,0,0,1-.325-0.782,5.356,5.356,0,0,1-.064-0.984v-3.855h1.055v3.451a6.15,6.15,0,0,0,.064,1.113,1.1,1.1,0,0,0,.422.653,1.307,1.307,0,0,0,.8.237,1.736,1.736,0,0,0,.891-0.243,1.352,1.352,0,0,0,.589-0.662,3.322,3.322,0,0,0,.173-1.216v-3.334h1.055v6.223h-0.943Z" transform="translate(-4.156 -4.616)"/><path class="cls-5" d="M162.06,270.459l1.043-.164a1.458,1.458,0,0,0,.489.961,1.705,1.705,0,0,0,1.122.334,1.648,1.648,0,0,0,1.078-.3,0.885,0.885,0,0,0,.352-0.694,0.641,0.641,0,0,0-.311-0.562,4.574,4.574,0,0,0-1.078-.357,9.838,9.838,0,0,1-1.608-.507,1.535,1.535,0,0,1-.911-1.427,1.6,1.6,0,0,1,.19-0.771,1.708,1.708,0,0,1,.519-0.589,2.174,2.174,0,0,1,.671-0.308,3.19,3.19,0,0,1,.911-0.126,3.6,3.6,0,0,1,1.286.211,1.749,1.749,0,0,1,.817.571,2.232,2.232,0,0,1,.363.964l-1.031.141a1.128,1.128,0,0,0-.407-0.75,1.489,1.489,0,0,0-.952-0.27,1.724,1.724,0,0,0-1.037.24,0.7,0.7,0,0,0-.311.563,0.582,0.582,0,0,0,.129.369,0.93,0.93,0,0,0,.4.281q0.158,0.059.932,0.27a12.969,12.969,0,0,1,1.562.489,1.584,1.584,0,0,1,.694.554,1.546,1.546,0,0,1,.252.9,1.771,1.771,0,0,1-.308.993,1.988,1.988,0,0,1-.888.721,3.231,3.231,0,0,1-1.312.255,2.924,2.924,0,0,1-1.849-.5A2.343,2.343,0,0,1,162.06,270.459Z" transform="translate(-4.156 -4.616)"/><path class="cls-5" d="M172.742,270.313l1.09,0.135a2.659,2.659,0,0,1-.955,1.482,3.236,3.236,0,0,1-3.946-.313,3.285,3.285,0,0,1-.8-2.358,3.438,3.438,0,0,1,.809-2.437,2.737,2.737,0,0,1,2.1-.867,2.66,2.66,0,0,1,2.039.85,3.376,3.376,0,0,1,.791,2.391q0,0.094-.006.281H169.22a2.391,2.391,0,0,0,.58,1.57,1.727,1.727,0,0,0,1.3.545,1.614,1.614,0,0,0,.99-0.3A2.023,2.023,0,0,0,172.742,270.313Zm-3.463-1.705h3.475a2.108,2.108,0,0,0-.4-1.178,1.616,1.616,0,0,0-1.307-.609,1.675,1.675,0,0,0-1.222.486A1.925,1.925,0,0,0,169.279,268.608Z" transform="translate(-4.156 -4.616)"/><path class="cls-5" d="M83.533,286.717v-6.223h0.949v0.943a2.574,2.574,0,0,1,.671-0.873,1.171,1.171,0,0,1,.677-0.211,2.057,2.057,0,0,1,1.084.34l-0.363.979a1.509,1.509,0,0,0-.773-0.229,1,1,0,0,0-.621.208,1.127,1.127,0,0,0-.393.577,4.108,4.108,0,0,0-.176,1.23v3.258H83.533Z" transform="translate(-4.156 -4.616)"/><path class="cls-5" d="M91.693,284.713l1.09,0.135a2.659,2.659,0,0,1-.955,1.482,3.236,3.236,0,0,1-3.946-.313,3.285,3.285,0,0,1-.8-2.358,3.438,3.438,0,0,1,.809-2.437,2.737,2.737,0,0,1,2.1-.867,2.66,2.66,0,0,1,2.039.85,3.376,3.376,0,0,1,.791,2.391q0,0.094-.006.281H88.171a2.391,2.391,0,0,0,.58,1.57,1.727,1.727,0,0,0,1.3.545,1.614,1.614,0,0,0,.99-0.3A2.023,2.023,0,0,0,91.693,284.713Zm-3.463-1.705H91.7a2.108,2.108,0,0,0-.4-1.178A1.616,1.616,0,0,0,90,281.221a1.675,1.675,0,0,0-1.222.486A1.925,1.925,0,0,0,88.23,283.008Z" transform="translate(-4.156 -4.616)"/><path class="cls-5" d="M98.167,284.438l1.037,0.135a2.69,2.69,0,0,1-.87,1.679,2.535,2.535,0,0,1-1.72.606,2.672,2.672,0,0,1-2.054-.835,3.388,3.388,0,0,1-.776-2.394,4.331,4.331,0,0,1,.334-1.764,2.329,2.329,0,0,1,1.017-1.134,3.016,3.016,0,0,1,1.485-.378,2.582,2.582,0,0,1,1.658.513,2.351,2.351,0,0,1,.826,1.456l-1.025.158a1.7,1.7,0,0,0-.519-0.943,1.342,1.342,0,0,0-.9-0.316,1.637,1.637,0,0,0-1.295.571,2.712,2.712,0,0,0-.5,1.808,2.8,2.8,0,0,0,.48,1.822,1.564,1.564,0,0,0,1.254.568,1.478,1.478,0,0,0,1.037-.381A1.89,1.89,0,0,0,98.167,284.438Z" transform="translate(-4.156 -4.616)"/><path class="cls-5" d="M104.126,284.713l1.09,0.135a2.659,2.659,0,0,1-.955,1.482,3.236,3.236,0,0,1-3.946-.313,3.285,3.285,0,0,1-.8-2.358,3.438,3.438,0,0,1,.809-2.437,2.737,2.737,0,0,1,2.1-.867,2.66,2.66,0,0,1,2.039.85,3.376,3.376,0,0,1,.791,2.391q0,0.094-.006.281H100.6a2.391,2.391,0,0,0,.58,1.57,1.727,1.727,0,0,0,1.3.545,1.614,1.614,0,0,0,.99-0.3A2.023,2.023,0,0,0,104.126,284.713Zm-3.463-1.705h3.475a2.108,2.108,0,0,0-.4-1.178,1.616,1.616,0,0,0-1.307-.609,1.675,1.675,0,0,0-1.222.486A1.925,1.925,0,0,0,100.664,283.008Z" transform="translate(-4.156 -4.616)"/><path class="cls-5" d="M106.546,279.34v-1.213H107.6v1.213h-1.055Zm0,7.377v-6.223H107.6v6.223h-1.055Z" transform="translate(-4.156 -4.616)"/><path class="cls-5" d="M110.935,286.717l-2.367-6.223h1.113l1.336,3.727q0.217,0.6.4,1.254,0.141-.492.393-1.184l1.383-3.8h1.084l-2.355,6.223h-0.984Z" transform="translate(-4.156 -4.616)"/><path class="cls-5" d="M119.431,284.713l1.09,0.135a2.659,2.659,0,0,1-.955,1.482,3.236,3.236,0,0,1-3.946-.313,3.285,3.285,0,0,1-.8-2.358,3.438,3.438,0,0,1,.809-2.437,2.737,2.737,0,0,1,2.1-.867,2.66,2.66,0,0,1,2.039.85,3.376,3.376,0,0,1,.791,2.391q0,0.094-.006.281h-4.641a2.391,2.391,0,0,0,.58,1.57,1.727,1.727,0,0,0,1.3.545,1.614,1.614,0,0,0,.99-0.3A2.023,2.023,0,0,0,119.431,284.713Zm-3.463-1.705h3.475a2.108,2.108,0,0,0-.4-1.178,1.616,1.616,0,0,0-1.307-.609,1.675,1.675,0,0,0-1.222.486A1.925,1.925,0,0,0,115.968,283.008Z" transform="translate(-4.156 -4.616)"/><path class="cls-5" d="M121.423,284.86l1.043-.164a1.458,1.458,0,0,0,.489.961,1.705,1.705,0,0,0,1.122.334,1.648,1.648,0,0,0,1.078-.3,0.885,0.885,0,0,0,.352-0.694,0.641,0.641,0,0,0-.311-0.562,4.574,4.574,0,0,0-1.078-.357,9.838,9.838,0,0,1-1.608-.507,1.535,1.535,0,0,1-.911-1.427,1.6,1.6,0,0,1,.19-0.771,1.708,1.708,0,0,1,.519-0.589,2.174,2.174,0,0,1,.671-0.308,3.19,3.19,0,0,1,.911-0.126,3.6,3.6,0,0,1,1.286.211,1.749,1.749,0,0,1,.817.571,2.232,2.232,0,0,1,.363.964l-1.031.141a1.128,1.128,0,0,0-.407-0.75,1.489,1.489,0,0,0-.952-0.27,1.724,1.724,0,0,0-1.037.24,0.7,0.7,0,0,0-.311.563,0.582,0.582,0,0,0,.129.369,0.93,0.93,0,0,0,.4.281q0.158,0.059.932,0.27a12.969,12.969,0,0,1,1.562.489,1.584,1.584,0,0,1,.694.554,1.546,1.546,0,0,1,.252.9,1.771,1.771,0,0,1-.308.993,1.988,1.988,0,0,1-.888.721,3.231,3.231,0,0,1-1.312.255,2.924,2.924,0,0,1-1.849-.5A2.343,2.343,0,0,1,121.423,284.86Z" transform="translate(-4.156 -4.616)"/><path class="cls-5" d="M131.185,279.34v-1.213h1.055v1.213h-1.055Zm0,7.377v-6.223h1.055v6.223h-1.055Z" transform="translate(-4.156 -4.616)"/><path class="cls-5" d="M133.845,286.717v-6.223h0.949v0.885a2.237,2.237,0,0,1,1.98-1.025,2.6,2.6,0,0,1,1.034.2,1.627,1.627,0,0,1,.706.53,2.035,2.035,0,0,1,.328.779,6.039,6.039,0,0,1,.059,1.025v3.826h-1.055v-3.785a2.841,2.841,0,0,0-.123-0.964,1.014,1.014,0,0,0-.437-0.51,1.389,1.389,0,0,0-.735-0.19,1.709,1.709,0,0,0-1.163.428,2.11,2.11,0,0,0-.489,1.623v3.4h-1.055Z" transform="translate(-4.156 -4.616)"/><path class="cls-5" d="M144.579,284.438l1.037,0.135a2.69,2.69,0,0,1-.87,1.679,2.535,2.535,0,0,1-1.72.606,2.672,2.672,0,0,1-2.054-.835,3.388,3.388,0,0,1-.776-2.394,4.331,4.331,0,0,1,.334-1.764,2.329,2.329,0,0,1,1.017-1.134,3.016,3.016,0,0,1,1.485-.378,2.582,2.582,0,0,1,1.658.513,2.351,2.351,0,0,1,.826,1.456l-1.025.158a1.7,1.7,0,0,0-.519-0.943,1.342,1.342,0,0,0-.9-0.316,1.637,1.637,0,0,0-1.295.571,2.712,2.712,0,0,0-.5,1.808,2.8,2.8,0,0,0,.48,1.822,1.564,1.564,0,0,0,1.254.568,1.478,1.478,0,0,0,1.037-.381A1.89,1.89,0,0,0,144.579,284.438Z" transform="translate(-4.156 -4.616)"/><path class="cls-5" d="M145.874,283.606a3.207,3.207,0,0,1,.961-2.561,2.9,2.9,0,0,1,1.957-.691,2.792,2.792,0,0,1,2.1.841,3.2,3.2,0,0,1,.814,2.323,4.117,4.117,0,0,1-.36,1.89,2.551,2.551,0,0,1-1.049,1.069,3.054,3.054,0,0,1-1.5.381,2.8,2.8,0,0,1-2.112-.838A3.347,3.347,0,0,1,145.874,283.606Zm1.084,0a2.65,2.65,0,0,0,.521,1.79,1.736,1.736,0,0,0,2.619,0,2.713,2.713,0,0,0,.521-1.822,2.571,2.571,0,0,0-.524-1.749,1.739,1.739,0,0,0-2.616,0A2.639,2.639,0,0,0,146.957,283.606Z" transform="translate(-4.156 -4.616)"/><path class="cls-5" d="M152.94,286.717v-6.223h0.943v0.873a2.218,2.218,0,0,1,.779-0.735,2.189,2.189,0,0,1,1.107-.278,2.047,2.047,0,0,1,1.134.287,1.537,1.537,0,0,1,.624.8,2.234,2.234,0,0,1,1.922-1.09,1.894,1.894,0,0,1,1.424.513,2.191,2.191,0,0,1,.5,1.579v4.271h-1.049V282.8a2.886,2.886,0,0,0-.1-0.911,0.883,0.883,0,0,0-.372-0.448,1.161,1.161,0,0,0-.633-0.17,1.473,1.473,0,0,0-1.09.437,1.923,1.923,0,0,0-.434,1.4v3.615h-1.055v-4.043a1.779,1.779,0,0,0-.258-1.055,0.976,0.976,0,0,0-.844-0.352,1.533,1.533,0,0,0-.823.234,1.329,1.329,0,0,0-.548.686,3.859,3.859,0,0,0-.17,1.3v3.229H152.94Z" transform="translate(-4.156 -4.616)"/><path class="cls-5" d="M167.2,284.713l1.09,0.135a2.659,2.659,0,0,1-.955,1.482,3.236,3.236,0,0,1-3.946-.313,3.285,3.285,0,0,1-.8-2.358,3.438,3.438,0,0,1,.809-2.437,2.737,2.737,0,0,1,2.1-.867,2.66,2.66,0,0,1,2.039.85,3.376,3.376,0,0,1,.791,2.391q0,0.094-.006.281h-4.641a2.391,2.391,0,0,0,.58,1.57,1.727,1.727,0,0,0,1.3.545,1.614,1.614,0,0,0,.99-0.3A2.023,2.023,0,0,0,167.2,284.713Zm-3.463-1.705h3.475a2.108,2.108,0,0,0-.4-1.178,1.616,1.616,0,0,0-1.307-.609,1.675,1.675,0,0,0-1.222.486A1.925,1.925,0,0,0,163.733,283.008Z" transform="translate(-4.156 -4.616)"/><path class="cls-5" d="M177,285.949a3.927,3.927,0,0,1-1.128.7,3.259,3.259,0,0,1-1.163.205,2.262,2.262,0,0,1-1.576-.5,1.654,1.654,0,0,1-.551-1.28,1.7,1.7,0,0,1,.208-0.835,1.722,1.722,0,0,1,.545-0.606,2.562,2.562,0,0,1,.759-0.346,7.536,7.536,0,0,1,.938-0.158,9.64,9.64,0,0,0,1.881-.363q0.006-.217.006-0.275a1.164,1.164,0,0,0-.3-0.908,1.765,1.765,0,0,0-1.2-.357,1.863,1.863,0,0,0-1.1.261,1.593,1.593,0,0,0-.524.923l-1.031-.141a2.555,2.555,0,0,1,.463-1.069,2.029,2.029,0,0,1,.932-0.627,4.155,4.155,0,0,1,1.412-.22,3.738,3.738,0,0,1,1.295.188,1.706,1.706,0,0,1,.732.472,1.659,1.659,0,0,1,.328.718,5.938,5.938,0,0,1,.053.973v1.406a14.926,14.926,0,0,0,.067,1.86,2.347,2.347,0,0,0,.267.747h-1.1A2.236,2.236,0,0,1,177,285.949Zm-0.088-2.355a7.738,7.738,0,0,1-1.723.4,3.985,3.985,0,0,0-.92.211,0.917,0.917,0,0,0-.416.343,0.932,0.932,0,0,0,.173,1.2,1.374,1.374,0,0,0,.935.281,2.175,2.175,0,0,0,1.084-.267,1.642,1.642,0,0,0,.7-0.729,2.548,2.548,0,0,0,.17-1.055v-0.387Z" transform="translate(-4.156 -4.616)"/><path class="cls-5" d="M179.618,286.717v-6.223h0.949v0.885a2.237,2.237,0,0,1,1.98-1.025,2.6,2.6,0,0,1,1.034.2,1.627,1.627,0,0,1,.706.53,2.035,2.035,0,0,1,.328.779,6.039,6.039,0,0,1,.059,1.025v3.826H183.62v-3.785a2.841,2.841,0,0,0-.123-0.964,1.014,1.014,0,0,0-.437-0.51,1.389,1.389,0,0,0-.735-0.19,1.709,1.709,0,0,0-1.163.428,2.11,2.11,0,0,0-.489,1.623v3.4h-1.055Z" transform="translate(-4.156 -4.616)"/><path class="cls-5" d="M190.329,286.717v-0.785a1.935,1.935,0,0,1-1.74.926,2.44,2.44,0,0,1-1.368-.41,2.7,2.7,0,0,1-.967-1.146,3.959,3.959,0,0,1-.343-1.69,4.424,4.424,0,0,1,.311-1.69,2.449,2.449,0,0,1,.932-1.163,2.491,2.491,0,0,1,1.389-.4,2.075,2.075,0,0,1,1.717.855v-3.082h1.049v8.59h-0.979Zm-3.334-3.105a2.7,2.7,0,0,0,.5,1.787,1.519,1.519,0,0,0,1.189.592,1.492,1.492,0,0,0,1.175-.565,2.607,2.607,0,0,0,.483-1.726,2.926,2.926,0,0,0-.492-1.875,1.514,1.514,0,0,0-1.213-.6,1.461,1.461,0,0,0-1.175.574A2.834,2.834,0,0,0,186.995,283.611Z" transform="translate(-4.156 -4.616)"/><path class="cls-5" d="M83.545,303.5v-8.607h0.961V295.7a2.369,2.369,0,0,1,.768-0.712,2.109,2.109,0,0,1,1.037-.237,2.459,2.459,0,0,1,1.406.41,2.517,2.517,0,0,1,.92,1.157,4.225,4.225,0,0,1,.311,1.638,4.16,4.16,0,0,1-.343,1.72,2.584,2.584,0,0,1-1,1.172,2.558,2.558,0,0,1-1.374.407,1.985,1.985,0,0,1-.946-0.223,2.155,2.155,0,0,1-.688-0.562V303.5H83.545ZM84.5,298.04a2.707,2.707,0,0,0,.486,1.775,1.491,1.491,0,0,0,1.178.574,1.525,1.525,0,0,0,1.2-.595,2.822,2.822,0,0,0,.5-1.843,2.749,2.749,0,0,0-.489-1.781,1.473,1.473,0,0,0-1.169-.592,1.519,1.519,0,0,0-1.192.63A2.818,2.818,0,0,0,84.5,298.04Z" transform="translate(-4.156 -4.616)"/><path class="cls-5" d="M90.207,301.116v-6.223h0.949v0.943a2.574,2.574,0,0,1,.671-0.873,1.171,1.171,0,0,1,.677-0.211,2.057,2.057,0,0,1,1.084.34l-0.363.979a1.509,1.509,0,0,0-.773-0.229,1,1,0,0,0-.621.208,1.127,1.127,0,0,0-.393.577,4.108,4.108,0,0,0-.176,1.23v3.258H90.207Z" transform="translate(-4.156 -4.616)"/><path class="cls-5" d="M94.221,293.739v-1.213h1.055v1.213H94.221Zm0,7.377v-6.223h1.055v6.223H94.221Z" transform="translate(-4.156 -4.616)"/><path class="cls-5" d="M96.881,301.116v-6.223H97.83v0.885a2.237,2.237,0,0,1,1.98-1.025,2.6,2.6,0,0,1,1.034.2,1.627,1.627,0,0,1,.706.53,2.035,2.035,0,0,1,.328.779,6.039,6.039,0,0,1,.059,1.025v3.826h-1.055v-3.785a2.841,2.841,0,0,0-.123-0.964,1.014,1.014,0,0,0-.437-0.51,1.389,1.389,0,0,0-.735-0.19,1.709,1.709,0,0,0-1.163.428,2.11,2.11,0,0,0-.489,1.623v3.4H96.881Z" transform="translate(-4.156 -4.616)"/><path class="cls-5" d="M107.615,298.837l1.037,0.135a2.69,2.69,0,0,1-.87,1.679,2.535,2.535,0,0,1-1.72.606,2.672,2.672,0,0,1-2.054-.835,3.388,3.388,0,0,1-.776-2.394,4.331,4.331,0,0,1,.334-1.764,2.329,2.329,0,0,1,1.017-1.134,3.016,3.016,0,0,1,1.485-.378,2.582,2.582,0,0,1,1.658.513,2.351,2.351,0,0,1,.826,1.456l-1.025.158a1.7,1.7,0,0,0-.519-0.943,1.342,1.342,0,0,0-.9-0.316,1.637,1.637,0,0,0-1.295.571,2.712,2.712,0,0,0-.5,1.808,2.8,2.8,0,0,0,.48,1.822,1.564,1.564,0,0,0,1.254.568,1.478,1.478,0,0,0,1.037-.381A1.89,1.89,0,0,0,107.615,298.837Z" transform="translate(-4.156 -4.616)"/><path class="cls-5" d="M109.561,293.739v-1.213h1.055v1.213h-1.055Zm0,7.377v-6.223h1.055v6.223h-1.055Z" transform="translate(-4.156 -4.616)"/><path class="cls-5" d="M112.221,303.5v-8.607h0.961V295.7a2.369,2.369,0,0,1,.768-0.712,2.109,2.109,0,0,1,1.037-.237,2.459,2.459,0,0,1,1.406.41,2.517,2.517,0,0,1,.92,1.157,4.225,4.225,0,0,1,.311,1.638,4.16,4.16,0,0,1-.343,1.72,2.584,2.584,0,0,1-1,1.172,2.558,2.558,0,0,1-1.374.407,1.985,1.985,0,0,1-.946-0.223,2.155,2.155,0,0,1-.688-0.562V303.5h-1.055Zm0.955-5.461a2.707,2.707,0,0,0,.486,1.775,1.491,1.491,0,0,0,1.178.574,1.525,1.525,0,0,0,1.2-.595,2.822,2.822,0,0,0,.5-1.843,2.749,2.749,0,0,0-.489-1.781,1.473,1.473,0,0,0-1.169-.592,1.519,1.519,0,0,0-1.192.63A2.818,2.818,0,0,0,113.176,298.04Z" transform="translate(-4.156 -4.616)"/><path class="cls-5" d="M122.787,300.349a3.927,3.927,0,0,1-1.128.7,3.259,3.259,0,0,1-1.163.205,2.262,2.262,0,0,1-1.576-.5,1.654,1.654,0,0,1-.551-1.28,1.7,1.7,0,0,1,.208-0.835,1.722,1.722,0,0,1,.545-0.606,2.562,2.562,0,0,1,.759-0.346,7.536,7.536,0,0,1,.938-0.158,9.64,9.64,0,0,0,1.881-.363q0.006-.217.006-0.275a1.164,1.164,0,0,0-.3-0.908,1.765,1.765,0,0,0-1.2-.357,1.863,1.863,0,0,0-1.1.261,1.593,1.593,0,0,0-.524.923l-1.031-.141a2.555,2.555,0,0,1,.463-1.069,2.029,2.029,0,0,1,.932-0.627,4.155,4.155,0,0,1,1.412-.22,3.738,3.738,0,0,1,1.295.188,1.706,1.706,0,0,1,.732.472,1.659,1.659,0,0,1,.328.718,5.938,5.938,0,0,1,.053.973v1.406a14.926,14.926,0,0,0,.067,1.86,2.347,2.347,0,0,0,.267.747H123A2.236,2.236,0,0,1,122.787,300.349Zm-0.088-2.355a7.738,7.738,0,0,1-1.723.4,3.985,3.985,0,0,0-.92.211,0.917,0.917,0,0,0-.416.343,0.932,0.932,0,0,0,.173,1.2,1.374,1.374,0,0,0,.935.281,2.175,2.175,0,0,0,1.084-.267,1.642,1.642,0,0,0,.7-0.729,2.548,2.548,0,0,0,.17-1.055v-0.387Z" transform="translate(-4.156 -4.616)"/><path class="cls-5" d="M125.377,301.116v-8.59h1.055v8.59h-1.055Z" transform="translate(-4.156 -4.616)"/><path class="cls-5" d="M135.461,300.349a3.927,3.927,0,0,1-1.128.7,3.259,3.259,0,0,1-1.163.205,2.262,2.262,0,0,1-1.576-.5,1.654,1.654,0,0,1-.551-1.28,1.7,1.7,0,0,1,.208-0.835,1.722,1.722,0,0,1,.545-0.606,2.562,2.562,0,0,1,.759-0.346,7.536,7.536,0,0,1,.938-0.158,9.64,9.64,0,0,0,1.881-.363q0.006-.217.006-0.275a1.164,1.164,0,0,0-.3-0.908,1.765,1.765,0,0,0-1.2-.357,1.863,1.863,0,0,0-1.1.261,1.593,1.593,0,0,0-.524.923l-1.031-.141a2.555,2.555,0,0,1,.463-1.069,2.029,2.029,0,0,1,.932-0.627,4.155,4.155,0,0,1,1.412-.22,3.738,3.738,0,0,1,1.295.188,1.706,1.706,0,0,1,.732.472,1.659,1.659,0,0,1,.328.718,5.938,5.938,0,0,1,.053.973v1.406a14.926,14.926,0,0,0,.067,1.86,2.347,2.347,0,0,0,.267.747h-1.1A2.236,2.236,0,0,1,135.461,300.349Zm-0.088-2.355a7.738,7.738,0,0,1-1.723.4,3.985,3.985,0,0,0-.92.211,0.917,0.917,0,0,0-.416.343,0.932,0.932,0,0,0,.173,1.2,1.374,1.374,0,0,0,.935.281,2.175,2.175,0,0,0,1.084-.267,1.642,1.642,0,0,0,.7-0.729,2.548,2.548,0,0,0,.17-1.055v-0.387Z" transform="translate(-4.156 -4.616)"/><path class="cls-5" d="M140.377,300.173l0.152,0.932a3.912,3.912,0,0,1-.8.094,1.8,1.8,0,0,1-.891-0.182,1.017,1.017,0,0,1-.445-0.478,3.776,3.776,0,0,1-.129-1.245v-3.58h-0.773v-0.82h0.773v-1.541l1.049-.633v2.174h1.061v0.82h-1.061v3.639a1.838,1.838,0,0,0,.056.58,0.439,0.439,0,0,0,.182.205,0.7,0.7,0,0,0,.36.076A3.431,3.431,0,0,0,140.377,300.173Z" transform="translate(-4.156 -4.616)"/><path class="cls-5" d="M147.062,301.116V293.54h-2.83v-1.014h6.809v1.014H148.2v7.576h-1.137Z" transform="translate(-4.156 -4.616)"/><path class="cls-5" d="M151.52,301.116v-6.223h0.949v0.943a2.574,2.574,0,0,1,.671-0.873,1.171,1.171,0,0,1,.677-0.211,2.057,2.057,0,0,1,1.084.34l-0.363.979a1.509,1.509,0,0,0-.773-0.229,1,1,0,0,0-.621.208,1.127,1.127,0,0,0-.393.577,4.108,4.108,0,0,0-.176,1.23v3.258H151.52Z" transform="translate(-4.156 -4.616)"/><path class="cls-5" d="M159.606,301.116V300.2a2.278,2.278,0,0,1-1.975,1.055,2.516,2.516,0,0,1-1.028-.211,1.694,1.694,0,0,1-.709-0.53,1.987,1.987,0,0,1-.325-0.782,5.356,5.356,0,0,1-.064-0.984v-3.855h1.055v3.451a6.15,6.15,0,0,0,.064,1.113,1.1,1.1,0,0,0,.422.653,1.307,1.307,0,0,0,.8.237,1.736,1.736,0,0,0,.891-0.243,1.352,1.352,0,0,0,.589-0.662,3.322,3.322,0,0,0,.173-1.216v-3.334h1.055v6.223h-0.943Z" transform="translate(-4.156 -4.616)"/><path class="cls-5" d="M161.78,299.259l1.043-.164a1.458,1.458,0,0,0,.489.961,1.705,1.705,0,0,0,1.122.334,1.648,1.648,0,0,0,1.078-.3,0.885,0.885,0,0,0,.352-0.694,0.641,0.641,0,0,0-.311-0.562,4.574,4.574,0,0,0-1.078-.357,9.838,9.838,0,0,1-1.608-.507,1.535,1.535,0,0,1-.911-1.427,1.6,1.6,0,0,1,.19-0.771,1.708,1.708,0,0,1,.519-0.589,2.174,2.174,0,0,1,.671-0.308,3.19,3.19,0,0,1,.911-0.126,3.6,3.6,0,0,1,1.286.211,1.749,1.749,0,0,1,.817.571,2.232,2.232,0,0,1,.363.964l-1.031.141a1.128,1.128,0,0,0-.407-0.75,1.489,1.489,0,0,0-.952-0.27,1.724,1.724,0,0,0-1.037.24,0.7,0.7,0,0,0-.311.563,0.582,0.582,0,0,0,.129.369,0.93,0.93,0,0,0,.4.281q0.158,0.059.932,0.27a12.969,12.969,0,0,1,1.562.489,1.584,1.584,0,0,1,.694.554,1.546,1.546,0,0,1,.252.9,1.771,1.771,0,0,1-.308.993,1.988,1.988,0,0,1-.888.721,3.231,3.231,0,0,1-1.312.255,2.924,2.924,0,0,1-1.849-.5A2.343,2.343,0,0,1,161.78,299.259Z" transform="translate(-4.156 -4.616)"/><path class="cls-5" d="M170.5,300.173l0.152,0.932a3.912,3.912,0,0,1-.8.094,1.8,1.8,0,0,1-.891-0.182,1.017,1.017,0,0,1-.445-0.478,3.776,3.776,0,0,1-.129-1.245v-3.58h-0.773v-0.82H168.4v-1.541l1.049-.633v2.174H170.5v0.82h-1.061v3.639a1.838,1.838,0,0,0,.056.58,0.439,0.439,0,0,0,.182.205,0.7,0.7,0,0,0,.36.076A3.431,3.431,0,0,0,170.5,300.173Z" transform="translate(-4.156 -4.616)"/><path class="cls-5" d="M175.688,299.112l1.09,0.135a2.659,2.659,0,0,1-.955,1.482,3.236,3.236,0,0,1-3.946-.313,3.285,3.285,0,0,1-.8-2.358,3.438,3.438,0,0,1,.809-2.437,2.737,2.737,0,0,1,2.1-.867,2.66,2.66,0,0,1,2.039.85,3.376,3.376,0,0,1,.791,2.391q0,0.094-.006.281h-4.641a2.391,2.391,0,0,0,.58,1.57,1.727,1.727,0,0,0,1.3.545,1.614,1.614,0,0,0,.99-0.3A2.023,2.023,0,0,0,175.688,299.112Zm-3.463-1.705H175.7a2.108,2.108,0,0,0-.4-1.178,1.616,1.616,0,0,0-1.307-.609,1.675,1.675,0,0,0-1.222.486A1.925,1.925,0,0,0,172.225,297.407Z" transform="translate(-4.156 -4.616)"/><path class="cls-5" d="M182.362,299.112l1.09,0.135a2.659,2.659,0,0,1-.955,1.482,3.236,3.236,0,0,1-3.946-.313,3.285,3.285,0,0,1-.8-2.358,3.438,3.438,0,0,1,.809-2.437,2.737,2.737,0,0,1,2.1-.867,2.66,2.66,0,0,1,2.039.85,3.376,3.376,0,0,1,.791,2.391q0,0.094-.006.281H178.84a2.391,2.391,0,0,0,.58,1.57,1.727,1.727,0,0,0,1.3.545,1.614,1.614,0,0,0,.99-0.3A2.023,2.023,0,0,0,182.362,299.112Zm-3.463-1.705h3.475a2.108,2.108,0,0,0-.4-1.178,1.616,1.616,0,0,0-1.307-.609,1.675,1.675,0,0,0-1.222.486A1.925,1.925,0,0,0,178.9,297.407Z" transform="translate(-4.156 -4.616)"/><path class="cls-5" d="M184.6,293.663v-1.225h1.131v0.967a2.585,2.585,0,0,1-.182,1.131,1.6,1.6,0,0,1-.785.715l-0.258-.416a0.916,0.916,0,0,0,.472-0.407,1.708,1.708,0,0,0,.173-0.765H184.6Z" transform="translate(-4.156 -4.616)"/><path class="cls-5" d="M186.324,299.259l1.043-.164a1.458,1.458,0,0,0,.489.961,1.705,1.705,0,0,0,1.122.334,1.648,1.648,0,0,0,1.078-.3,0.885,0.885,0,0,0,.352-0.694,0.641,0.641,0,0,0-.311-0.562,4.574,4.574,0,0,0-1.078-.357,9.838,9.838,0,0,1-1.608-.507,1.535,1.535,0,0,1-.911-1.427,1.6,1.6,0,0,1,.19-0.771,1.708,1.708,0,0,1,.519-0.589,2.174,2.174,0,0,1,.671-0.308,3.19,3.19,0,0,1,.911-0.126,3.6,3.6,0,0,1,1.286.211,1.749,1.749,0,0,1,.817.571,2.232,2.232,0,0,1,.363.964l-1.031.141a1.128,1.128,0,0,0-.407-0.75,1.489,1.489,0,0,0-.952-0.27,1.724,1.724,0,0,0-1.037.24,0.7,0.7,0,0,0-.311.563,0.582,0.582,0,0,0,.129.369,0.93,0.93,0,0,0,.4.281q0.158,0.059.932,0.27a12.969,12.969,0,0,1,1.562.489,1.584,1.584,0,0,1,.694.554,1.546,1.546,0,0,1,.252.9,1.771,1.771,0,0,1-.308.993,1.988,1.988,0,0,1-.888.721,3.231,3.231,0,0,1-1.312.255,2.924,2.924,0,0,1-1.849-.5A2.343,2.343,0,0,1,186.324,299.259Z" transform="translate(-4.156 -4.616)"/><path class="cls-5" d="M87.582,315.517v-0.785a1.935,1.935,0,0,1-1.74.926,2.44,2.44,0,0,1-1.368-.41,2.7,2.7,0,0,1-.967-1.146,3.959,3.959,0,0,1-.343-1.69,4.424,4.424,0,0,1,.311-1.69,2.449,2.449,0,0,1,.932-1.163,2.491,2.491,0,0,1,1.389-.4,2.075,2.075,0,0,1,1.717.855v-3.082h1.049v8.59H87.582Zm-3.334-3.105a2.7,2.7,0,0,0,.5,1.787,1.519,1.519,0,0,0,1.189.592,1.492,1.492,0,0,0,1.175-.565A2.607,2.607,0,0,0,87.6,312.5a2.926,2.926,0,0,0-.492-1.875,1.514,1.514,0,0,0-1.213-.6,1.461,1.461,0,0,0-1.175.574A2.834,2.834,0,0,0,84.248,312.411Z" transform="translate(-4.156 -4.616)"/><path class="cls-5" d="M90.225,308.14v-1.213h1.055v1.213H90.225Zm0,7.377v-6.223h1.055v6.223H90.225Z" transform="translate(-4.156 -4.616)"/><path class="cls-5" d="M92.463,313.659l1.043-.164a1.458,1.458,0,0,0,.489.961,1.705,1.705,0,0,0,1.122.334,1.648,1.648,0,0,0,1.078-.3,0.885,0.885,0,0,0,.352-0.694,0.641,0.641,0,0,0-.311-0.562,4.574,4.574,0,0,0-1.078-.357,9.838,9.838,0,0,1-1.608-.507,1.535,1.535,0,0,1-.911-1.427,1.6,1.6,0,0,1,.19-0.771,1.708,1.708,0,0,1,.519-0.589,2.174,2.174,0,0,1,.671-0.308,3.19,3.19,0,0,1,.911-0.126,3.6,3.6,0,0,1,1.286.211,1.749,1.749,0,0,1,.817.571,2.232,2.232,0,0,1,.363.964l-1.031.141a1.128,1.128,0,0,0-.407-0.75,1.489,1.489,0,0,0-.952-0.27,1.724,1.724,0,0,0-1.037.24,0.7,0.7,0,0,0-.311.563,0.582,0.582,0,0,0,.129.369,0.93,0.93,0,0,0,.4.281q0.158,0.059.932,0.27a12.969,12.969,0,0,1,1.562.489,1.584,1.584,0,0,1,.694.554,1.546,1.546,0,0,1,.252.9,1.771,1.771,0,0,1-.308.993,1.988,1.988,0,0,1-.888.721,3.231,3.231,0,0,1-1.312.255,2.924,2.924,0,0,1-1.849-.5A2.343,2.343,0,0,1,92.463,313.659Z" transform="translate(-4.156 -4.616)"/><path class="cls-5" d="M102.945,313.237l1.037,0.135a2.69,2.69,0,0,1-.87,1.679,2.535,2.535,0,0,1-1.72.606,2.672,2.672,0,0,1-2.054-.835,3.388,3.388,0,0,1-.776-2.394,4.331,4.331,0,0,1,.334-1.764,2.329,2.329,0,0,1,1.017-1.134,3.016,3.016,0,0,1,1.485-.378,2.582,2.582,0,0,1,1.658.513,2.351,2.351,0,0,1,.826,1.456l-1.025.158a1.7,1.7,0,0,0-.519-0.943,1.342,1.342,0,0,0-.9-0.316,1.637,1.637,0,0,0-1.295.571,2.712,2.712,0,0,0-.5,1.808,2.8,2.8,0,0,0,.48,1.822,1.564,1.564,0,0,0,1.254.568,1.478,1.478,0,0,0,1.037-.381A1.89,1.89,0,0,0,102.945,313.237Z" transform="translate(-4.156 -4.616)"/><path class="cls-5" d="M104.873,315.517v-6.223h0.949v0.943a2.574,2.574,0,0,1,.671-0.873,1.171,1.171,0,0,1,.677-0.211,2.057,2.057,0,0,1,1.084.34l-0.363.979a1.509,1.509,0,0,0-.773-0.229,1,1,0,0,0-.621.208,1.127,1.127,0,0,0-.393.577,4.108,4.108,0,0,0-.176,1.23v3.258h-1.055Z" transform="translate(-4.156 -4.616)"/><path class="cls-5" d="M113.02,313.513l1.09,0.135a2.659,2.659,0,0,1-.955,1.482,3.236,3.236,0,0,1-3.946-.313,3.285,3.285,0,0,1-.8-2.358,3.438,3.438,0,0,1,.809-2.437,2.737,2.737,0,0,1,2.1-.867,2.66,2.66,0,0,1,2.039.85,3.376,3.376,0,0,1,.791,2.391q0,0.094-.006.281H109.5a2.391,2.391,0,0,0,.58,1.57,1.727,1.727,0,0,0,1.3.545,1.614,1.614,0,0,0,.99-0.3A2.023,2.023,0,0,0,113.02,313.513Zm-3.463-1.705h3.475a2.108,2.108,0,0,0-.4-1.178,1.616,1.616,0,0,0-1.307-.609,1.675,1.675,0,0,0-1.222.486A1.925,1.925,0,0,0,109.558,311.808Z" transform="translate(-4.156 -4.616)"/><path class="cls-5" d="M117.582,314.573l0.152,0.932a3.912,3.912,0,0,1-.8.094,1.8,1.8,0,0,1-.891-0.182,1.017,1.017,0,0,1-.445-0.478,3.776,3.776,0,0,1-.129-1.245v-3.58H114.7v-0.82h0.773v-1.541l1.049-.633v2.174h1.061v0.82h-1.061v3.639a1.838,1.838,0,0,0,.056.58,0.439,0.439,0,0,0,.182.205,0.7,0.7,0,0,0,.36.076A3.431,3.431,0,0,0,117.582,314.573Z" transform="translate(-4.156 -4.616)"/><path class="cls-5" d="M118.619,308.14v-1.213h1.055v1.213h-1.055Zm0,7.377v-6.223h1.055v6.223h-1.055Z" transform="translate(-4.156 -4.616)"/><path class="cls-5" d="M120.886,312.405a3.207,3.207,0,0,1,.961-2.561,2.9,2.9,0,0,1,1.957-.691,2.792,2.792,0,0,1,2.1.841,3.2,3.2,0,0,1,.814,2.323,4.117,4.117,0,0,1-.36,1.89,2.551,2.551,0,0,1-1.049,1.069,3.054,3.054,0,0,1-1.5.381,2.8,2.8,0,0,1-2.112-.838A3.347,3.347,0,0,1,120.886,312.405Zm1.084,0a2.65,2.65,0,0,0,.521,1.79,1.736,1.736,0,0,0,2.619,0,2.713,2.713,0,0,0,.521-1.822,2.571,2.571,0,0,0-.524-1.749,1.739,1.739,0,0,0-2.616,0A2.639,2.639,0,0,0,121.97,312.405Z" transform="translate(-4.156 -4.616)"/><path class="cls-5" d="M127.953,315.517v-6.223H128.9v0.885a2.237,2.237,0,0,1,1.98-1.025,2.6,2.6,0,0,1,1.034.2,1.627,1.627,0,0,1,.706.53,2.035,2.035,0,0,1,.328.779,6.039,6.039,0,0,1,.059,1.025v3.826h-1.055v-3.785a2.841,2.841,0,0,0-.123-0.964,1.014,1.014,0,0,0-.437-0.51,1.389,1.389,0,0,0-.735-0.19,1.709,1.709,0,0,0-1.163.428,2.11,2.11,0,0,0-.489,1.623v3.4h-1.055Z" transform="translate(-4.156 -4.616)"/><line class="cls-12" x1="281.5" y1="95.325" x2="281.5" y2="193.075"/><line class="cls-12" x1="97.5" y1="96.05" x2="97.5" y2="128.8"/><line class="cls-12" x1="154.888" y1="201.179" x2="206.67" y2="219.971"/><rect class="cls-13" x="34.5" y="146.6" width="126" height="60"/><path class="cls-4" d="M60.291,175.608l1.137,0.287a3.826,3.826,0,0,1-1.286,2.136,3.544,3.544,0,0,1-2.271.735,4.08,4.08,0,0,1-2.259-.565,3.531,3.531,0,0,1-1.324-1.638,5.843,5.843,0,0,1-.454-2.3,5.062,5.062,0,0,1,.513-2.341,3.513,3.513,0,0,1,1.459-1.518,4.263,4.263,0,0,1,2.083-.519,3.521,3.521,0,0,1,2.168.656,3.408,3.408,0,0,1,1.225,1.846l-1.119.264a2.655,2.655,0,0,0-.867-1.365,2.311,2.311,0,0,0-1.43-.428,2.777,2.777,0,0,0-1.655.475,2.506,2.506,0,0,0-.935,1.274,5.131,5.131,0,0,0-.27,1.649,5.242,5.242,0,0,0,.319,1.913,2.379,2.379,0,0,0,.993,1.222,2.785,2.785,0,0,0,1.459.4,2.445,2.445,0,0,0,1.617-.551A2.819,2.819,0,0,0,60.291,175.608Z" transform="translate(-4.156 -4.616)"/><path class="cls-4" d="M62.682,178.62V172.4h0.949v0.943a2.574,2.574,0,0,1,.671-0.873,1.171,1.171,0,0,1,.677-0.211,2.057,2.057,0,0,1,1.084.34l-0.363.979a1.509,1.509,0,0,0-.773-0.229,1,1,0,0,0-.621.208,1.127,1.127,0,0,0-.393.577,4.108,4.108,0,0,0-.176,1.23v3.258H62.682Z" transform="translate(-4.156 -4.616)"/><path class="cls-4" d="M70.841,176.616l1.09,0.135a2.659,2.659,0,0,1-.955,1.482,3.236,3.236,0,0,1-3.946-.313,3.285,3.285,0,0,1-.8-2.358,3.438,3.438,0,0,1,.809-2.437,2.737,2.737,0,0,1,2.1-.867,2.66,2.66,0,0,1,2.039.85,3.376,3.376,0,0,1,.791,2.391q0,0.094-.006.281H67.32a2.391,2.391,0,0,0,.58,1.57,1.727,1.727,0,0,0,1.3.545,1.614,1.614,0,0,0,.99-0.3A2.023,2.023,0,0,0,70.841,176.616Zm-3.463-1.705h3.475a2.108,2.108,0,0,0-.4-1.178,1.616,1.616,0,0,0-1.307-.609,1.675,1.675,0,0,0-1.222.486A1.925,1.925,0,0,0,67.378,174.911Z" transform="translate(-4.156 -4.616)"/><path class="cls-4" d="M77.292,178.62v-0.785a1.935,1.935,0,0,1-1.74.926,2.44,2.44,0,0,1-1.368-.41,2.7,2.7,0,0,1-.967-1.146,3.959,3.959,0,0,1-.343-1.69,4.424,4.424,0,0,1,.311-1.69,2.449,2.449,0,0,1,.932-1.163,2.491,2.491,0,0,1,1.389-.4,2.075,2.075,0,0,1,1.717.855V170.03h1.049v8.59H77.292Zm-3.334-3.105a2.7,2.7,0,0,0,.5,1.787,1.519,1.519,0,0,0,1.189.592,1.492,1.492,0,0,0,1.175-.565,2.607,2.607,0,0,0,.483-1.726,2.926,2.926,0,0,0-.492-1.875,1.514,1.514,0,0,0-1.213-.6,1.461,1.461,0,0,0-1.175.574A2.834,2.834,0,0,0,73.958,175.514Z" transform="translate(-4.156 -4.616)"/><path class="cls-4" d="M79.935,171.243V170.03H80.99v1.213H79.935Zm0,7.377V172.4H80.99v6.223H79.935Z" transform="translate(-4.156 -4.616)"/><path class="cls-4" d="M84.9,177.676l0.152,0.932a3.912,3.912,0,0,1-.8.094,1.8,1.8,0,0,1-.891-0.182,1.017,1.017,0,0,1-.445-0.478,3.776,3.776,0,0,1-.129-1.245v-3.58H82.015V172.4h0.773v-1.541l1.049-.633V172.4H84.9v0.82H83.837v3.639a1.838,1.838,0,0,0,.056.58,0.439,0.439,0,0,0,.182.205,0.7,0.7,0,0,0,.36.076A3.431,3.431,0,0,0,84.9,177.676Z" transform="translate(-4.156 -4.616)"/><path class="cls-4" d="M89.011,175.86l1.072-.094a2.368,2.368,0,0,0,.354,1.058,1.935,1.935,0,0,0,.864.668,3.273,3.273,0,0,0,1.318.255,3.159,3.159,0,0,0,1.148-.193,1.593,1.593,0,0,0,.741-0.53,1.23,1.23,0,0,0,.243-0.735,1.118,1.118,0,0,0-.234-0.706,1.736,1.736,0,0,0-.773-0.507,15.117,15.117,0,0,0-1.529-.419,7.814,7.814,0,0,1-1.658-.536,2.325,2.325,0,0,1-.917-0.8,1.96,1.96,0,0,1-.3-1.069,2.183,2.183,0,0,1,.369-1.216,2.286,2.286,0,0,1,1.078-.858,4.09,4.09,0,0,1,1.576-.293,4.306,4.306,0,0,1,1.685.308,2.43,2.43,0,0,1,1.122.905,2.6,2.6,0,0,1,.422,1.354l-1.09.082a1.758,1.758,0,0,0-.595-1.23,2.315,2.315,0,0,0-1.5-.416,2.4,2.4,0,0,0-1.5.378,1.133,1.133,0,0,0-.472.911,0.977,0.977,0,0,0,.334.762,4.526,4.526,0,0,0,1.714.612,11.336,11.336,0,0,1,1.9.548,2.6,2.6,0,0,1,1.107.876,2.134,2.134,0,0,1,.357,1.222,2.336,2.336,0,0,1-.393,1.292,2.585,2.585,0,0,1-1.128.943,3.93,3.93,0,0,1-1.655.337,4.942,4.942,0,0,1-1.954-.34,2.737,2.737,0,0,1-1.236-1.022A2.9,2.9,0,0,1,89.011,175.86Z" transform="translate(-4.156 -4.616)"/><path class="cls-4" d="M97.267,178.62v-8.59h1.055v3.082a2.356,2.356,0,0,1,1.863-.855,2.513,2.513,0,0,1,1.2.272,1.6,1.6,0,0,1,.729.753,3.471,3.471,0,0,1,.22,1.395v3.943h-1.055v-3.943a1.629,1.629,0,0,0-.343-1.151,1.275,1.275,0,0,0-.97-0.36,1.71,1.71,0,0,0-.882.243,1.373,1.373,0,0,0-.589.659,3.028,3.028,0,0,0-.176,1.148v3.4H97.267Z" transform="translate(-4.156 -4.616)"/><path class="cls-4" d="M108.2,176.616l1.09,0.135a2.659,2.659,0,0,1-.955,1.482,3.236,3.236,0,0,1-3.946-.313,3.285,3.285,0,0,1-.8-2.358,3.438,3.438,0,0,1,.809-2.437,2.737,2.737,0,0,1,2.1-.867,2.66,2.66,0,0,1,2.039.85,3.376,3.376,0,0,1,.791,2.391q0,0.094-.006.281h-4.641a2.391,2.391,0,0,0,.58,1.57,1.727,1.727,0,0,0,1.3.545,1.614,1.614,0,0,0,.99-0.3A2.023,2.023,0,0,0,108.2,176.616Zm-3.463-1.705h3.475a2.108,2.108,0,0,0-.4-1.178,1.616,1.616,0,0,0-1.307-.609,1.675,1.675,0,0,0-1.222.486A1.925,1.925,0,0,0,104.738,174.911Z" transform="translate(-4.156 -4.616)"/><path class="cls-4" d="M110.591,178.62v-8.59h1.055v8.59h-1.055Z" transform="translate(-4.156 -4.616)"/><path class="cls-4" d="M115.583,177.676l0.152,0.932a3.912,3.912,0,0,1-.8.094,1.8,1.8,0,0,1-.891-0.182,1.017,1.017,0,0,1-.445-0.478,3.776,3.776,0,0,1-.129-1.245v-3.58H112.7V172.4h0.773v-1.541l1.049-.633V172.4h1.061v0.82h-1.061v3.639a1.838,1.838,0,0,0,.056.58,0.439,0.439,0,0,0,.182.205,0.7,0.7,0,0,0,.36.076A3.431,3.431,0,0,0,115.583,177.676Z" transform="translate(-4.156 -4.616)"/><path class="cls-4" d="M120.754,176.616l1.09,0.135a2.659,2.659,0,0,1-.955,1.482,3.236,3.236,0,0,1-3.946-.313,3.285,3.285,0,0,1-.8-2.358,3.438,3.438,0,0,1,.809-2.437,2.737,2.737,0,0,1,2.1-.867,2.66,2.66,0,0,1,2.039.85,3.376,3.376,0,0,1,.791,2.391q0,0.094-.006.281h-4.641a2.391,2.391,0,0,0,.58,1.57,1.727,1.727,0,0,0,1.3.545,1.614,1.614,0,0,0,.99-0.3A2.023,2.023,0,0,0,120.754,176.616Zm-3.463-1.705h3.475a2.108,2.108,0,0,0-.4-1.178,1.616,1.616,0,0,0-1.307-.609,1.675,1.675,0,0,0-1.222.486A1.925,1.925,0,0,0,117.291,174.911Z" transform="translate(-4.156 -4.616)"/><path class="cls-4" d="M123.157,178.62V172.4h0.949v0.943a2.574,2.574,0,0,1,.671-0.873,1.171,1.171,0,0,1,.677-0.211,2.057,2.057,0,0,1,1.084.34l-0.363.979a1.509,1.509,0,0,0-.773-0.229,1,1,0,0,0-.621.208,1.127,1.127,0,0,0-.393.577,4.108,4.108,0,0,0-.176,1.23v3.258h-1.055Z" transform="translate(-4.156 -4.616)"/><path class="cls-4" d="M132.819,178.62v-7.576h-2.83V170.03H136.8v1.014h-2.842v7.576h-1.137Z" transform="translate(-4.156 -4.616)"/><path class="cls-4" d="M137.277,178.62V172.4h0.949v0.943a2.574,2.574,0,0,1,.671-0.873,1.171,1.171,0,0,1,.677-0.211,2.057,2.057,0,0,1,1.084.34l-0.363.979a1.509,1.509,0,0,0-.773-0.229,1,1,0,0,0-.621.208,1.127,1.127,0,0,0-.393.577,4.108,4.108,0,0,0-.176,1.23v3.258h-1.055Z" transform="translate(-4.156 -4.616)"/><path class="cls-4" d="M145.363,178.62v-0.914a2.278,2.278,0,0,1-1.975,1.055,2.516,2.516,0,0,1-1.028-.211,1.694,1.694,0,0,1-.709-0.53,1.987,1.987,0,0,1-.325-0.782,5.356,5.356,0,0,1-.064-0.984V172.4h1.055v3.451a6.15,6.15,0,0,0,.064,1.113,1.1,1.1,0,0,0,.422.653,1.307,1.307,0,0,0,.8.237,1.736,1.736,0,0,0,.891-0.243,1.352,1.352,0,0,0,.589-0.662,3.322,3.322,0,0,0,.173-1.216V172.4h1.055v6.223h-0.943Z" transform="translate(-4.156 -4.616)"/><path class="cls-4" d="M147.537,176.762l1.043-.164a1.458,1.458,0,0,0,.489.961,1.705,1.705,0,0,0,1.122.334,1.648,1.648,0,0,0,1.078-.3,0.885,0.885,0,0,0,.352-0.694,0.641,0.641,0,0,0-.311-0.562,4.574,4.574,0,0,0-1.078-.357,9.838,9.838,0,0,1-1.608-.507,1.535,1.535,0,0,1-.911-1.427,1.6,1.6,0,0,1,.19-0.771,1.708,1.708,0,0,1,.519-0.589,2.174,2.174,0,0,1,.671-0.308,3.19,3.19,0,0,1,.911-0.126,3.6,3.6,0,0,1,1.286.211,1.749,1.749,0,0,1,.817.571,2.232,2.232,0,0,1,.363.964l-1.031.141a1.128,1.128,0,0,0-.407-0.75,1.489,1.489,0,0,0-.952-0.27,1.724,1.724,0,0,0-1.037.24,0.7,0.7,0,0,0-.311.563,0.582,0.582,0,0,0,.129.369,0.93,0.93,0,0,0,.4.281q0.158,0.059.932,0.27a12.969,12.969,0,0,1,1.562.489,1.584,1.584,0,0,1,.694.554,1.546,1.546,0,0,1,.252.9,1.771,1.771,0,0,1-.308.993,1.988,1.988,0,0,1-.888.721,3.231,3.231,0,0,1-1.312.255,2.924,2.924,0,0,1-1.849-.5A2.343,2.343,0,0,1,147.537,176.762Z" transform="translate(-4.156 -4.616)"/><path class="cls-4" d="M156.261,177.676l0.152,0.932a3.912,3.912,0,0,1-.8.094,1.8,1.8,0,0,1-.891-0.182,1.017,1.017,0,0,1-.445-0.478,3.776,3.776,0,0,1-.129-1.245v-3.58h-0.773V172.4h0.773v-1.541l1.049-.633V172.4h1.061v0.82H155.2v3.639a1.838,1.838,0,0,0,.056.58,0.439,0.439,0,0,0,.182.205,0.7,0.7,0,0,0,.36.076A3.431,3.431,0,0,0,156.261,177.676Z" transform="translate(-4.156 -4.616)"/><path class="cls-4" d="M77.8,194.257V193.2a3.894,3.894,0,0,1-1.286-.354,2.242,2.242,0,0,1-.855-0.823,2.946,2.946,0,0,1-.419-1.389l1.061-.2a2.675,2.675,0,0,0,.434,1.248,1.538,1.538,0,0,0,1.066.627v-3.357a4.406,4.406,0,0,1-1.33-.5,1.948,1.948,0,0,1-.776-0.779,2.482,2.482,0,0,1,.524-2.953,2.772,2.772,0,0,1,1.582-.574v-0.5h0.621v0.5a2.6,2.6,0,0,1,1.459.539,2.4,2.4,0,0,1,.832,1.576l-1.09.164a1.8,1.8,0,0,0-.39-0.952,1.437,1.437,0,0,0-.812-0.437v3.041a8.364,8.364,0,0,1,1.055.311,2.605,2.605,0,0,1,.8.527,2.121,2.121,0,0,1,.478.738,2.715,2.715,0,0,1-.53,2.754,2.558,2.558,0,0,1-1.8.785v1.066H77.8Zm0-9.234a1.563,1.563,0,0,0-.97.492,1.464,1.464,0,0,0-.053,1.846,2.079,2.079,0,0,0,1.022.58v-2.918Zm0.621,7.289a1.564,1.564,0,0,0,1.017-.533,1.652,1.652,0,0,0,.4-1.131,1.416,1.416,0,0,0-.284-0.923,2.453,2.453,0,0,0-1.134-.624v3.211Z" transform="translate(-4.156 -4.616)"/><path class="cls-4" d="M85.957,193.02H84.9V186.3a5.451,5.451,0,0,1-1,.727,7.082,7.082,0,0,1-1.11.545v-1.02a6.369,6.369,0,0,0,1.547-1.008,3.964,3.964,0,0,0,.938-1.148h0.68v8.625Z" transform="translate(-4.156 -4.616)"/><path class="cls-4" d="M89.226,193.02v-1.2h1.2v1.2a2.132,2.132,0,0,1-.234,1.069,1.528,1.528,0,0,1-.744.63l-0.293-.451a1,1,0,0,0,.492-0.431,1.835,1.835,0,0,0,.176-0.817h-0.6Z" transform="translate(-4.156 -4.616)"/><path class="cls-4" d="M93.615,188.362a1.985,1.985,0,0,1-.973-0.686,1.793,1.793,0,0,1-.316-1.066A2.085,2.085,0,0,1,93,185.034a2.836,2.836,0,0,1,3.6.015,2.115,2.115,0,0,1,.686,1.591,1.752,1.752,0,0,1-.313,1.04,1.977,1.977,0,0,1-.952.683,2.309,2.309,0,0,1,1.2.832,2.285,2.285,0,0,1,.413,1.371,2.468,2.468,0,0,1-.779,1.852,3.174,3.174,0,0,1-4.1,0,2.5,2.5,0,0,1-.779-1.878,2.27,2.27,0,0,1,.425-1.4A2.127,2.127,0,0,1,93.615,188.362Zm-0.551,2.18a1.908,1.908,0,0,0,.214.873,1.509,1.509,0,0,0,.636.653,1.859,1.859,0,0,0,.908.231,1.7,1.7,0,0,0,1.248-.486,1.664,1.664,0,0,0,.492-1.236,1.692,1.692,0,0,0-.507-1.26,1.737,1.737,0,0,0-1.269-.5A1.678,1.678,0,0,0,93.064,190.542Zm0.34-3.967a1.337,1.337,0,0,0,.393,1,1.391,1.391,0,0,0,1.02.387,1.364,1.364,0,0,0,1-.384,1.269,1.269,0,0,0,.39-0.94,1.316,1.316,0,0,0-.4-0.976,1.367,1.367,0,0,0-1-.4,1.381,1.381,0,0,0-1,.387A1.245,1.245,0,0,0,93.4,186.575Z" transform="translate(-4.156 -4.616)"/><path class="cls-4" d="M98.665,190.77l1.107-.094a1.986,1.986,0,0,0,.571,1.216,1.551,1.551,0,0,0,1.081.407,1.684,1.684,0,0,0,1.289-.574,2.164,2.164,0,0,0,.527-1.523,1.956,1.956,0,0,0-.507-1.424,1.767,1.767,0,0,0-1.327-.521,1.839,1.839,0,0,0-.92.231,1.786,1.786,0,0,0-.645.6l-0.99-.129,0.832-4.412h4.271v1.008h-3.428l-0.463,2.309a2.8,2.8,0,0,1,1.623-.539,2.571,2.571,0,0,1,1.9.779,2.724,2.724,0,0,1,.773,2,3.128,3.128,0,0,1-.68,2.016,2.723,2.723,0,0,1-2.256,1.043,2.779,2.779,0,0,1-1.913-.656A2.561,2.561,0,0,1,98.665,190.77Z" transform="translate(-4.156 -4.616)"/><path class="cls-4" d="M105.339,188.784a7.86,7.86,0,0,1,.313-2.452,3.05,3.05,0,0,1,.932-1.433,2.382,2.382,0,0,1,1.556-.5,2.538,2.538,0,0,1,1.213.278,2.319,2.319,0,0,1,.861.8,4.306,4.306,0,0,1,.533,1.277,8.487,8.487,0,0,1,.193,2.03,7.882,7.882,0,0,1-.311,2.44,3.051,3.051,0,0,1-.929,1.436,2.382,2.382,0,0,1-1.562.507,2.357,2.357,0,0,1-1.951-.891A5.661,5.661,0,0,1,105.339,188.784Zm1.084,0a5.386,5.386,0,0,0,.5,2.815,1.414,1.414,0,0,0,2.443,0,8.252,8.252,0,0,0,0-5.631,1.47,1.47,0,0,0-1.233-.7,1.351,1.351,0,0,0-1.16.615A5.448,5.448,0,0,0,106.423,188.784Z" transform="translate(-4.156 -4.616)"/><path class="cls-4" d="M112.582,193.02v-1.2h1.2v1.2a2.132,2.132,0,0,1-.234,1.069,1.528,1.528,0,0,1-.744.63l-0.293-.451a1,1,0,0,0,.492-0.431,1.835,1.835,0,0,0,.176-0.817h-0.6Z" transform="translate(-4.156 -4.616)"/><path class="cls-4" d="M115.347,188.784a7.86,7.86,0,0,1,.313-2.452,3.05,3.05,0,0,1,.932-1.433,2.382,2.382,0,0,1,1.556-.5,2.538,2.538,0,0,1,1.213.278,2.319,2.319,0,0,1,.861.8,4.306,4.306,0,0,1,.533,1.277,8.487,8.487,0,0,1,.193,2.03,7.882,7.882,0,0,1-.311,2.44,3.051,3.051,0,0,1-.929,1.436,2.382,2.382,0,0,1-1.562.507,2.357,2.357,0,0,1-1.951-.891A5.661,5.661,0,0,1,115.347,188.784Zm1.084,0a5.386,5.386,0,0,0,.5,2.815,1.414,1.414,0,0,0,2.443,0,8.252,8.252,0,0,0,0-5.631,1.47,1.47,0,0,0-1.233-.7,1.351,1.351,0,0,0-1.16.615A5.448,5.448,0,0,0,116.431,188.784Z" transform="translate(-4.156 -4.616)"/><path class="cls-4" d="M122.021,188.784a7.86,7.86,0,0,1,.313-2.452,3.05,3.05,0,0,1,.932-1.433,2.382,2.382,0,0,1,1.556-.5,2.538,2.538,0,0,1,1.213.278,2.319,2.319,0,0,1,.861.8,4.306,4.306,0,0,1,.533,1.277,8.487,8.487,0,0,1,.193,2.03,7.882,7.882,0,0,1-.311,2.44,3.051,3.051,0,0,1-.929,1.436,2.382,2.382,0,0,1-1.562.507,2.357,2.357,0,0,1-1.951-.891A5.661,5.661,0,0,1,122.021,188.784Zm1.084,0a5.386,5.386,0,0,0,.5,2.815,1.414,1.414,0,0,0,2.443,0,8.252,8.252,0,0,0,0-5.631,1.47,1.47,0,0,0-1.233-.7,1.351,1.351,0,0,0-1.16.615A5.448,5.448,0,0,0,123.1,188.784Z" transform="translate(-4.156 -4.616)"/><path class="cls-4" d="M128.695,188.784a7.86,7.86,0,0,1,.313-2.452,3.05,3.05,0,0,1,.932-1.433,2.382,2.382,0,0,1,1.556-.5,2.538,2.538,0,0,1,1.213.278,2.319,2.319,0,0,1,.861.8,4.306,4.306,0,0,1,.533,1.277,8.487,8.487,0,0,1,.193,2.03,7.882,7.882,0,0,1-.311,2.44,3.051,3.051,0,0,1-.929,1.436,2.382,2.382,0,0,1-1.562.507,2.357,2.357,0,0,1-1.951-.891A5.661,5.661,0,0,1,128.695,188.784Zm1.084,0a5.386,5.386,0,0,0,.5,2.815,1.414,1.414,0,0,0,2.443,0,8.252,8.252,0,0,0,0-5.631,1.47,1.47,0,0,0-1.233-.7,1.351,1.351,0,0,0-1.16.615A5.448,5.448,0,0,0,129.779,188.784Z" transform="translate(-4.156 -4.616)"/></svg>