<svg id="Copyright" xmlns="http://www.w3.org/2000/svg" viewBox="0 0 122.167 77"><defs><style>.cls-1{fill:#fff;stroke:red;}.cls-2{fill:red;}</style></defs><title>fuel_levels_jetski</title><rect class="cls-1" x="0.5" y="0.5" width="121.167" height="76"/><path class="cls-2" d="M21.166,23.169H20.507l-1.97-5.689-1.915,5.689H15.963L13,14.026H14.67l1.693,5.443,1.829-5.443h0.7l1.835,5.443,1.688-5.443h1.669Z" transform="translate(-4.936 -4.5)"/><path class="cls-2" d="M28.148,22.388a1.492,1.492,0,0,1-.729.563,2.781,2.781,0,0,1-1.087.218,2.457,2.457,0,0,1-1.675-.533,1.9,1.9,0,0,1-.609-1.511,2.118,2.118,0,0,1,.858-1.792,4,4,0,0,1,2.441-.646,2.7,2.7,0,0,1,.641.092q0-1.164-1.472-1.164a3.26,3.26,0,0,0-1.453.29L24.731,16.71a4.324,4.324,0,0,1,1.89-.382,3.065,3.065,0,0,1,2.211.687,3.648,3.648,0,0,1,.7,2.6v1.41a1.9,1.9,0,0,0,.529,1.656,0.834,0.834,0,0,1-.425.41,1.718,1.718,0,0,1-.536.077,0.852,0.852,0,0,1-.6-0.246A1.254,1.254,0,0,1,28.148,22.388ZM28,19.943a3.241,3.241,0,0,0-.592-0.08q-1.822,0-1.822,1.194a0.852,0.852,0,0,0,1.028.887A1.225,1.225,0,0,0,28,20.559V19.943Z" transform="translate(-4.936 -4.5)"/><path class="cls-2" d="M35.008,17.887a1.617,1.617,0,0,0-.905-0.271,1.228,1.228,0,0,0-.951.486,1.766,1.766,0,0,0-.416,1.188v3.756H31.2V16.452h1.539v0.6a2.19,2.19,0,0,1,1.719-.727,2.457,2.457,0,0,1,1.206.24Z" transform="translate(-4.936 -4.5)"/><path class="cls-2" d="M40.826,23.046V19.235A1.909,1.909,0,0,0,40.5,18a1.3,1.3,0,0,0-1.056-.388,1.635,1.635,0,0,0-.724.191,1.674,1.674,0,0,0-.6.474v4.766H36.584V16.452h1.108l0.283,0.616a2.3,2.3,0,0,1,1.854-.739,2.461,2.461,0,0,1,1.856.705A2.719,2.719,0,0,1,42.366,19v4.045h-1.54Z" transform="translate(-4.936 -4.5)"/><path class="cls-2" d="M44.44,23.046V17.714H43.6V16.452H46v6.594H44.44ZM45.234,13.9a0.893,0.893,0,1,1-.631.261A0.859,0.859,0,0,1,45.234,13.9Z" transform="translate(-4.936 -4.5)"/><path class="cls-2" d="M52.032,23.046V19.235A1.909,1.909,0,0,0,51.709,18a1.3,1.3,0,0,0-1.056-.388,1.635,1.635,0,0,0-.724.191,1.674,1.674,0,0,0-.6.474v4.766H47.79V16.452H48.9l0.283,0.616a2.3,2.3,0,0,1,1.854-.739,2.461,2.461,0,0,1,1.856.705A2.719,2.719,0,0,1,53.572,19v4.045h-1.54Z" transform="translate(-4.936 -4.5)"/><path class="cls-2" d="M54.741,24.74l0.973-1.2a2.6,2.6,0,0,0,1.8.739,2.642,2.642,0,0,0,1.1-.2,0.607,0.607,0,0,0,.432-0.542q0-.585-0.955-0.585a7.048,7.048,0,0,0-.77.062,7.031,7.031,0,0,1-.77.062q-1.588,0-1.589-1.139a0.989,0.989,0,0,1,.266-0.64,1.616,1.616,0,0,1,.615-0.462,2.337,2.337,0,0,1-1.127-2.075,2.246,2.246,0,0,1,.776-1.751,2.76,2.76,0,0,1,1.908-.693,3.017,3.017,0,0,1,1.484.333l0.6-.7,1.064,0.966-0.732.536a2.677,2.677,0,0,1-.3,3.168,2.372,2.372,0,0,1-1.733.674,4.23,4.23,0,0,1-.443-0.031l-0.252-.037a1.677,1.677,0,0,0-.33.133,0.387,0.387,0,0,0-.286.274q0,0.246.425,0.246a3.692,3.692,0,0,0,.641-0.092,3.915,3.915,0,0,1,.77-0.092q2.247,0,2.247,1.8a1.767,1.767,0,0,1-.9,1.567,3.971,3.971,0,0,1-2.167.569A4.539,4.539,0,0,1,54.741,24.74Zm1.539-5.973a1.336,1.336,0,0,0,.323.939,1.121,1.121,0,0,0,.871.354,1.051,1.051,0,0,0,.844-0.345,1.409,1.409,0,0,0,.3-0.948,1.2,1.2,0,0,0-.317-0.844,1.068,1.068,0,0,0-.822-0.345A1.139,1.139,0,0,0,56.28,18.767Z" transform="translate(-4.936 -4.5)"/><path class="cls-2" d="M63.085,21.15a0.965,0.965,0,0,1,.711.3,1.02,1.02,0,0,1,0,1.429,0.965,0.965,0,0,1-.711.3A1.01,1.01,0,1,1,63.085,21.15Zm0.271-.456H62.715a32.871,32.871,0,0,1-.48-4.3V13.866h1.6v2.519A32.866,32.866,0,0,1,63.355,20.694Z" transform="translate(-4.936 -4.5)"/><path d="M15.711,38.178H13.895V29.158Q15.63,29.1,16.117,29.1a3.952,3.952,0,0,1,2.992,1.148,4.232,4.232,0,0,1,1.1,3.057Q20.212,38.178,15.711,38.178Zm-0.585-7.912v6.742a7.089,7.089,0,0,0,1.021.062,2.414,2.414,0,0,0,2.032-.97,4.357,4.357,0,0,0,.739-2.694q0-3.2-2.876-3.2Q15.87,30.2,15.126,30.266Z" transform="translate(-4.936 -4.5)"/><path d="M21.1,34.866a3.606,3.606,0,0,1,.822-2.466,2.737,2.737,0,0,1,2.164-.939,2.754,2.754,0,0,1,2.2.9,3.7,3.7,0,0,1,.781,2.5,3.705,3.705,0,0,1-.8,2.515,2.74,2.74,0,0,1-2.18.92,2.724,2.724,0,0,1-2.2-.93A3.748,3.748,0,0,1,21.1,34.866Zm1.231,0q0,2.481,1.755,2.481a1.48,1.48,0,0,0,1.283-.665,3.119,3.119,0,0,0,.465-1.816q0-2.451-1.748-2.451a1.505,1.505,0,0,0-1.278.653A3,3,0,0,0,22.336,34.866Z" transform="translate(-4.936 -4.5)"/><path d="M36.158,38.178V34.342a2.538,2.538,0,0,0-.317-1.475,1.243,1.243,0,0,0-1.062-.422,1.745,1.745,0,0,0-.838.24,1.868,1.868,0,0,0-.671.591v4.9H32.1V31.584h0.8l0.369,0.85a2.029,2.029,0,0,1,1.891-.973q2.167,0,2.167,2.636v4.082h-1.17Z" transform="translate(-4.936 -4.5)"/><path d="M38.561,34.866a3.606,3.606,0,0,1,.822-2.466,3.044,3.044,0,0,1,4.362-.037,3.7,3.7,0,0,1,.781,2.5,3.705,3.705,0,0,1-.8,2.515,3.052,3.052,0,0,1-4.378-.009A3.748,3.748,0,0,1,38.561,34.866Zm1.231,0q0,2.481,1.755,2.481a1.48,1.48,0,0,0,1.283-.665,3.119,3.119,0,0,0,.465-1.816q0-2.451-1.748-2.451a1.505,1.505,0,0,0-1.278.653A3,3,0,0,0,39.792,34.866Z" transform="translate(-4.936 -4.5)"/><path d="M46.177,32.507H45.413V31.584h0.764V30.2l1.17-.45v1.829h1.811v0.923H47.347v3.276a1.917,1.917,0,0,0,.28,1.182,1.085,1.085,0,0,0,.9.351,2.161,2.161,0,0,0,.93-0.228l0.173,1.028a6.469,6.469,0,0,1-1.595.185,1.729,1.729,0,0,1-1.32-.582,2.077,2.077,0,0,1-.539-1.469V32.507Z" transform="translate(-4.936 -4.5)"/><path d="M59.532,32.12l-0.579.825a1.74,1.74,0,0,0-.631-0.338,2.654,2.654,0,0,0-.89-0.16,1.873,1.873,0,0,0-1.515.668,2.762,2.762,0,0,0-.561,1.832,2.476,2.476,0,0,0,.572,1.764,2.079,2.079,0,0,0,1.589.606,2.626,2.626,0,0,0,1.589-.61l0.461,0.985a4.208,4.208,0,0,1-2.333.609,2.979,2.979,0,0,1-2.229-.9,3.365,3.365,0,0,1-.88-2.451,3.506,3.506,0,0,1,.914-2.531,3.488,3.488,0,0,1,3.611-.739A3.156,3.156,0,0,1,59.532,32.12Z" transform="translate(-4.936 -4.5)"/><path d="M64.863,38.178V34.034a1.733,1.733,0,0,0-.363-1.164,1.27,1.27,0,0,0-1.021-.425,1.679,1.679,0,0,0-.853.25,1.984,1.984,0,0,0-.656.582v4.9H60.8v-9.3h1.17v3.43a1.741,1.741,0,0,1,.754-0.606A2.515,2.515,0,0,1,63.8,31.46a2.052,2.052,0,0,1,1.641.69,2.788,2.788,0,0,1,.594,1.884v4.144h-1.17Z" transform="translate(-4.936 -4.5)"/><path d="M73.243,35H68.49a2.38,2.38,0,0,0,.634,1.779,1.987,1.987,0,0,0,1.441.542,2.461,2.461,0,0,0,1.675-.585l0.492,0.843a2.206,2.206,0,0,1-.831.468,4.5,4.5,0,0,1-1.564.258,2.917,2.917,0,0,1-2.111-.843,3.307,3.307,0,0,1-.967-2.5,3.523,3.523,0,0,1,.991-2.617,2.88,2.88,0,0,1,2.1-.881,3,3,0,0,1,2.21.794,2.714,2.714,0,0,1,.776,2.026A2.621,2.621,0,0,1,73.243,35Zm-2.838-2.549a1.85,1.85,0,0,0-1.885,1.7h3.651a1.664,1.664,0,0,0-.443-1.182A1.73,1.73,0,0,0,70.405,32.446Z" transform="translate(-4.936 -4.5)"/><path d="M79.543,32.12l-0.579.825a1.74,1.74,0,0,0-.631-0.338,2.654,2.654,0,0,0-.89-0.16,1.873,1.873,0,0,0-1.515.668,2.762,2.762,0,0,0-.561,1.832,2.476,2.476,0,0,0,.572,1.764,2.079,2.079,0,0,0,1.589.606,2.626,2.626,0,0,0,1.589-.61l0.461,0.985a4.208,4.208,0,0,1-2.333.609,2.979,2.979,0,0,1-2.229-.9,3.365,3.365,0,0,1-.88-2.451,3.506,3.506,0,0,1,.914-2.531,3.488,3.488,0,0,1,3.611-.739A3.156,3.156,0,0,1,79.543,32.12Z" transform="translate(-4.936 -4.5)"/><path d="M85.071,38.178L83,34.878,81.98,35.931v2.248h-1.17v-9.3h1.17V34.65L84.5,31.584h1.367L83.76,34.09l2.58,4.088H85.071Z" transform="translate(-4.936 -4.5)"/><path d="M94.536,29.928a2.04,2.04,0,0,0-.665-0.124,1.112,1.112,0,0,0-.884.407,1.526,1.526,0,0,0-.348,1.028,2.034,2.034,0,0,0,.03.345h1.343v0.985H92.67v5.609H91.5V32.569H90.54V31.584H91.5a2.938,2.938,0,0,1,.622-1.983,2.067,2.067,0,0,1,1.645-.72,3.653,3.653,0,0,1,1.1.185Z" transform="translate(-4.936 -4.5)"/><path d="M96.74,31.584v4.205a1.268,1.268,0,0,0,1.324,1.527,1.819,1.819,0,0,0,1.059-.333,1.6,1.6,0,0,0,.635-0.77v-4.63h1.169v6.594H99.758V37.267a1.823,1.823,0,0,1-.792.711,2.413,2.413,0,0,1-1.16.323,2.149,2.149,0,0,1-1.659-.622,2.507,2.507,0,0,1-.576-1.767V31.584h1.17Z" transform="translate(-4.936 -4.5)"/><path d="M108.075,35h-4.753a2.38,2.38,0,0,0,.634,1.779,1.987,1.987,0,0,0,1.441.542,2.461,2.461,0,0,0,1.675-.585l0.492,0.843a2.206,2.206,0,0,1-.831.468,4.5,4.5,0,0,1-1.564.258,2.917,2.917,0,0,1-2.111-.843,3.307,3.307,0,0,1-.967-2.5,3.523,3.523,0,0,1,.991-2.617,2.88,2.88,0,0,1,2.1-.881,3,3,0,0,1,2.21.794,2.714,2.714,0,0,1,.776,2.026A2.621,2.621,0,0,1,108.075,35Zm-2.838-2.549a1.85,1.85,0,0,0-1.885,1.7H107a1.664,1.664,0,0,0-.443-1.182A1.73,1.73,0,0,0,105.237,32.446Z" transform="translate(-4.936 -4.5)"/><path d="M109.492,36.313V28.881h1.17v7.235a1.127,1.127,0,0,0,.3.834,1.078,1.078,0,0,0,.8.3V38.3Q109.492,38.3,109.492,36.313Z" transform="translate(-4.936 -4.5)"/><path d="M13.895,51.445V44.013h1.17v7.235a1.127,1.127,0,0,0,.3.834,1.078,1.078,0,0,0,.8.3v1.047Q13.894,53.434,13.895,51.445Z" transform="translate(-4.936 -4.5)"/><path d="M23.074,50.127H18.321a2.38,2.38,0,0,0,.634,1.779,1.987,1.987,0,0,0,1.441.542,2.461,2.461,0,0,0,1.675-.585l0.492,0.843a2.206,2.206,0,0,1-.831.468,4.5,4.5,0,0,1-1.564.258,2.917,2.917,0,0,1-2.111-.843,3.307,3.307,0,0,1-.967-2.5,3.523,3.523,0,0,1,.991-2.617,2.88,2.88,0,0,1,2.1-.881,3,3,0,0,1,2.21.794,2.714,2.714,0,0,1,.776,2.026A2.621,2.621,0,0,1,23.074,50.127Zm-2.838-2.549a1.85,1.85,0,0,0-1.885,1.7H22A1.664,1.664,0,0,0,21.56,48.1,1.73,1.73,0,0,0,20.236,47.578Z" transform="translate(-4.936 -4.5)"/><path d="M26.775,53.434H26.468L23.642,46.7h1.28l1.742,4.618,1.78-4.618h1.225Z" transform="translate(-4.936 -4.5)"/><path d="M36.128,50.127H31.375a2.38,2.38,0,0,0,.634,1.779,1.987,1.987,0,0,0,1.441.542,2.461,2.461,0,0,0,1.675-.585l0.492,0.843a2.206,2.206,0,0,1-.831.468,4.5,4.5,0,0,1-1.564.258,2.917,2.917,0,0,1-2.111-.843,3.307,3.307,0,0,1-.967-2.5,3.523,3.523,0,0,1,.991-2.617,2.88,2.88,0,0,1,2.1-.881,3,3,0,0,1,2.21.794,2.714,2.714,0,0,1,.776,2.026A2.621,2.621,0,0,1,36.128,50.127ZM33.29,47.578a1.85,1.85,0,0,0-1.885,1.7h3.651a1.664,1.664,0,0,0-.443-1.182A1.73,1.73,0,0,0,33.29,47.578Z" transform="translate(-4.936 -4.5)"/><path d="M37.545,51.445V44.013h1.17v7.235a1.127,1.127,0,0,0,.3.834,1.078,1.078,0,0,0,.8.3v1.047Q37.544,53.434,37.545,51.445Z" transform="translate(-4.936 -4.5)"/><path d="M40.74,52.917l0.412-1.108a3.183,3.183,0,0,0,1.576.641,0.89,0.89,0,0,0,1.084-.912,1.391,1.391,0,0,0-1.047-1.121,8.666,8.666,0,0,1-1.087-.56,2.437,2.437,0,0,1-.486-0.434,1.714,1.714,0,0,1-.308-0.517,1.687,1.687,0,0,1-.1-0.588,1.512,1.512,0,0,1,.591-1.268,2.463,2.463,0,0,1,1.546-.456,4.968,4.968,0,0,1,1.816.456L44.4,48.132a2.239,2.239,0,0,0-1.4-.554,1.215,1.215,0,0,0-.705.2,0.587,0.587,0,0,0-.286.5,1.037,1.037,0,0,0,.721.96l0.837,0.382a2.944,2.944,0,0,1,1.121.8,1.779,1.779,0,0,1,.351,1.127,1.684,1.684,0,0,1-.622,1.388,2.67,2.67,0,0,1-1.724.5A3.923,3.923,0,0,1,40.74,52.917Z" transform="translate(-4.936 -4.5)"/><path d="M56.17,53.434H55.862l-1.934-4.489L52,53.434H51.693L49.336,46.7h1.249L52,51.026,53.75,46.7h0.309l1.81,4.329L57.383,46.7h1.151Z" transform="translate(-4.936 -4.5)"/><path d="M60.024,53.311V47.7H59.119V46.716h2.075v6.594h-1.17Zm0.641-9.088a0.715,0.715,0,1,1-.511.209A0.7,0.7,0,0,1,60.665,44.223Z" transform="translate(-4.936 -4.5)"/><path d="M63.473,47.64H62.709V46.716h0.764V45.337l1.17-.45v1.829h1.811V47.64H64.643v3.276a1.917,1.917,0,0,0,.28,1.182,1.085,1.085,0,0,0,.9.351,2.161,2.161,0,0,0,.93-0.228l0.173,1.028a6.469,6.469,0,0,1-1.595.185,1.729,1.729,0,0,1-1.32-.582,2.077,2.077,0,0,1-.539-1.469V47.64Z" transform="translate(-4.936 -4.5)"/><path d="M72.116,53.311V49.167A1.733,1.733,0,0,0,71.753,48a1.27,1.27,0,0,0-1.021-.425,1.679,1.679,0,0,0-.853.25,1.984,1.984,0,0,0-.656.582v4.9h-1.17v-9.3h1.17v3.43a1.741,1.741,0,0,1,.754-0.606,2.515,2.515,0,0,1,1.075-.244,2.052,2.052,0,0,1,1.641.69,2.788,2.788,0,0,1,.594,1.884v4.144h-1.17Z" transform="translate(-4.936 -4.5)"/><path d="M78.835,51.445V44.013H80v7.235a1.127,1.127,0,0,0,.3.834,1.078,1.078,0,0,0,.8.3v1.047Q78.834,53.434,78.835,51.445Z" transform="translate(-4.936 -4.5)"/><path d="M83.027,53.311V47.7H82.122V46.716H84.2v6.594h-1.17Zm0.641-9.088a0.715,0.715,0,1,1-.511.209A0.7,0.7,0,0,1,83.668,44.223Z" transform="translate(-4.936 -4.5)"/><path d="M85.816,55.115l0.635-.936a3.457,3.457,0,0,0,1.884.684,2.441,2.441,0,0,0,1.253-.274,0.794,0.794,0,0,0,.459-0.681q0-.8-1.158-0.8a4.559,4.559,0,0,0-.714.1,4.625,4.625,0,0,1-.807.1q-1.4,0-1.4-1.059a0.755,0.755,0,0,1,.329-0.591,2.05,2.05,0,0,1,.815-0.382,2.493,2.493,0,0,1-.671-3.99,2.473,2.473,0,0,1,1.779-.69,2.542,2.542,0,0,1,1.521.4l0.585-.7,0.763,0.72-0.7.529a2.443,2.443,0,0,1,.449,1.527,2.382,2.382,0,0,1-.622,1.675,2.452,2.452,0,0,1-1.632.775l-0.967.1a1.927,1.927,0,0,0-.462.132,0.36,0.36,0,0,0-.289.3q0,0.253.6,0.252a5.5,5.5,0,0,0,.825-0.1,5.447,5.447,0,0,1,.831-0.1,2.266,2.266,0,0,1,1.518.465,1.6,1.6,0,0,1,.545,1.29,1.711,1.711,0,0,1-.815,1.472,3.568,3.568,0,0,1-2.065.56,4.4,4.4,0,0,1-1.349-.228A3.825,3.825,0,0,1,85.816,55.115Zm2.481-7.58a1.272,1.272,0,0,0-.994.431,1.516,1.516,0,0,0-.385,1.047,1.738,1.738,0,0,0,.372,1.142,1.237,1.237,0,0,0,1.007.453,1.173,1.173,0,0,0,.973-0.44,1.8,1.8,0,0,0,.352-1.155,1.53,1.53,0,0,0-.379-1.047A1.206,1.206,0,0,0,88.3,47.535Z" transform="translate(-4.936 -4.5)"/><path d="M96.45,53.311V49.167A1.733,1.733,0,0,0,96.087,48a1.27,1.27,0,0,0-1.021-.425,1.679,1.679,0,0,0-.853.25,1.984,1.984,0,0,0-.656.582v4.9h-1.17v-9.3h1.17v3.43a1.741,1.741,0,0,1,.754-0.606,2.515,2.515,0,0,1,1.075-.244,2.052,2.052,0,0,1,1.641.69,2.788,2.788,0,0,1,.594,1.884v4.144H96.45Z" transform="translate(-4.936 -4.5)"/><path d="M99.7,47.64H98.932V46.716H99.7V45.337l1.17-.45v1.829h1.811V47.64h-1.811v3.276a1.917,1.917,0,0,0,.28,1.182,1.085,1.085,0,0,0,.9.351,2.161,2.161,0,0,0,.93-0.228l0.173,1.028a6.469,6.469,0,0,1-1.595.185,1.729,1.729,0,0,1-1.32-.582,2.077,2.077,0,0,1-.539-1.469V47.64Z" transform="translate(-4.936 -4.5)"/><path d="M109.83,50.127h-4.753a2.38,2.38,0,0,0,.634,1.779,1.987,1.987,0,0,0,1.441.542,2.461,2.461,0,0,0,1.675-.585l0.492,0.843a2.206,2.206,0,0,1-.831.468,4.5,4.5,0,0,1-1.564.258,2.917,2.917,0,0,1-2.111-.843,3.307,3.307,0,0,1-.967-2.5,3.523,3.523,0,0,1,.991-2.617,2.88,2.88,0,0,1,2.1-.881,3,3,0,0,1,2.21.794,2.714,2.714,0,0,1,.776,2.026A2.621,2.621,0,0,1,109.83,50.127Zm-2.838-2.549a1.85,1.85,0,0,0-1.885,1.7h3.651a1.664,1.664,0,0,0-.443-1.182A1.73,1.73,0,0,0,106.992,47.578Z" transform="translate(-4.936 -4.5)"/><path d="M115.334,53.3V52.818a2.4,2.4,0,0,1-1.773.61,2.532,2.532,0,0,1-2.007-.887,3.483,3.483,0,0,1-.77-2.365,3.8,3.8,0,0,1,.887-2.534,2.683,2.683,0,0,1,2.111-1.05,2.236,2.236,0,0,1,1.552.48v-3.06h1.17V53.3h-1.17Zm0-5.061a1.384,1.384,0,0,0-1.213-.665,1.882,1.882,0,0,0-1.523.7,2.7,2.7,0,0,0-.582,1.786q0,2.383,2.167,2.383a1.67,1.67,0,0,0,.665-0.176,0.964,0.964,0,0,0,.486-0.373V48.243Z" transform="translate(-4.936 -4.5)"/><path d="M21.437,68.442V64.268a1.292,1.292,0,0,0-1.348-1.558,1.351,1.351,0,0,0-.795.262,1.383,1.383,0,0,0-.5.594v4.876h-1.17V63.757a0.913,0.913,0,0,0-.366-0.767,1.553,1.553,0,0,0-.97-0.28,1.346,1.346,0,0,0-.748.271,1.662,1.662,0,0,0-.563.6v4.864H13.8V61.848h0.764l0.388,0.763a2.057,2.057,0,0,1,1.693-.887,2.173,2.173,0,0,1,1.982.881,1.515,1.515,0,0,1,.733-0.628,2.557,2.557,0,0,1,1.1-.252,2.049,2.049,0,0,1,1.583.607,2.417,2.417,0,0,1,.56,1.7v4.409h-1.17Z" transform="translate(-4.936 -4.5)"/><path d="M28,67.685a2.583,2.583,0,0,1-2.149.88A1.846,1.846,0,0,1,24.5,68a1.89,1.89,0,0,1-.57-1.4,2.09,2.09,0,0,1,.878-1.7,3.5,3.5,0,0,1,2.238-.693,2.613,2.613,0,0,1,.837.16,1.344,1.344,0,0,0-1.429-1.6,2.281,2.281,0,0,0-1.687.591l-0.493-.979a2.887,2.887,0,0,1,.921-0.465,3.583,3.583,0,0,1,1.124-.194,2.848,2.848,0,0,1,2.084.653,2.85,2.85,0,0,1,.649,2.075v2.364a1.209,1.209,0,0,0,.518,1.158V68.56a2.2,2.2,0,0,1-1.068-.2A1.143,1.143,0,0,1,28,67.685ZM27.884,65.2a4.232,4.232,0,0,0-.775-0.123,2.223,2.223,0,0,0-1.447.456,1.356,1.356,0,0,0-.561,1.078,1,1,0,0,0,1.213,1.028,1.99,1.99,0,0,0,1.57-.844V65.2Z" transform="translate(-4.936 -4.5)"/><path d="M31.313,62.771H30.55V61.848h0.764V60.469l1.17-.45v1.829h1.811v0.923H32.483v3.276a1.917,1.917,0,0,0,.28,1.182,1.085,1.085,0,0,0,.9.351,2.161,2.161,0,0,0,.93-0.228l0.173,1.028a6.469,6.469,0,0,1-1.595.185,1.729,1.729,0,0,1-1.32-.582,2.077,2.077,0,0,1-.539-1.469V62.771Z" transform="translate(-4.936 -4.5)"/><path d="M40.869,62.384l-0.579.825a1.74,1.74,0,0,0-.631-0.338,2.654,2.654,0,0,0-.89-0.16,1.873,1.873,0,0,0-1.515.668,2.762,2.762,0,0,0-.561,1.832,2.476,2.476,0,0,0,.572,1.764,2.079,2.079,0,0,0,1.589.606,2.626,2.626,0,0,0,1.589-.61l0.461,0.985a4.208,4.208,0,0,1-2.333.609,2.979,2.979,0,0,1-2.229-.9,3.365,3.365,0,0,1-.88-2.451,3.506,3.506,0,0,1,.914-2.531,3.488,3.488,0,0,1,3.611-.739A3.156,3.156,0,0,1,40.869,62.384Z" transform="translate(-4.936 -4.5)"/><path d="M46.2,68.442V64.3a1.733,1.733,0,0,0-.363-1.164,1.27,1.27,0,0,0-1.021-.425,1.679,1.679,0,0,0-.853.25,1.984,1.984,0,0,0-.656.582v4.9h-1.17v-9.3h1.17v3.43a1.741,1.741,0,0,1,.754-0.606,2.515,2.515,0,0,1,1.075-.244,2.052,2.052,0,0,1,1.641.69,2.788,2.788,0,0,1,.594,1.884v4.144H46.2Z" transform="translate(-4.936 -4.5)"/><path d="M53.393,68.442V62.833H52.487V61.848h2.075v6.594h-1.17Zm0.641-9.088a0.715,0.715,0,1,1-.511.209A0.7,0.7,0,0,1,54.033,59.354Z" transform="translate(-4.936 -4.5)"/><path d="M60.479,68.442V64.606a2.538,2.538,0,0,0-.317-1.475A1.243,1.243,0,0,0,59.1,62.71a1.745,1.745,0,0,0-.838.24,1.868,1.868,0,0,0-.671.591v4.9h-1.17V61.848h0.8l0.369,0.85a2.029,2.029,0,0,1,1.891-.973q2.167,0,2.167,2.636v4.082h-1.17Z" transform="translate(-4.936 -4.5)"/><path d="M66.391,71.028V69.982a2.709,2.709,0,0,0,1.653-.367,1.471,1.471,0,0,0,.446-1.2V62.833H67.18V61.848h2.48v6.539a2.411,2.411,0,0,1-.8,2A3.925,3.925,0,0,1,66.391,71.028Zm2.525-11.674a0.7,0.7,0,0,1,.514.212,0.693,0.693,0,0,1,.213.508,0.726,0.726,0,0,1-.727.727,0.692,0.692,0,0,1-.512-0.212,0.7,0.7,0,0,1-.209-0.514A0.714,0.714,0,0,1,68.916,59.354Z" transform="translate(-4.936 -4.5)"/><path d="M77.289,65.259H72.536a2.38,2.38,0,0,0,.634,1.779,1.987,1.987,0,0,0,1.441.542A2.461,2.461,0,0,0,76.286,67l0.492,0.843a2.206,2.206,0,0,1-.831.468,4.5,4.5,0,0,1-1.564.258,2.917,2.917,0,0,1-2.111-.843,3.307,3.307,0,0,1-.967-2.5,3.523,3.523,0,0,1,.991-2.617,2.88,2.88,0,0,1,2.1-.881,3,3,0,0,1,2.21.794,2.714,2.714,0,0,1,.776,2.026A2.621,2.621,0,0,1,77.289,65.259ZM74.451,62.71a1.85,1.85,0,0,0-1.885,1.7h3.651a1.664,1.664,0,0,0-.443-1.182A1.73,1.73,0,0,0,74.451,62.71Z" transform="translate(-4.936 -4.5)"/><path d="M79.032,62.771H78.269V61.848h0.764V60.469l1.17-.45v1.829h1.811v0.923H80.2v3.276a1.917,1.917,0,0,0,.28,1.182,1.085,1.085,0,0,0,.9.351,2.161,2.161,0,0,0,.93-0.228l0.173,1.028a6.469,6.469,0,0,1-1.595.185,1.729,1.729,0,0,1-1.32-.582,2.077,2.077,0,0,1-.539-1.469V62.771Z" transform="translate(-4.936 -4.5)"/><path d="M86.98,68.048l0.412-1.108a3.183,3.183,0,0,0,1.576.641,0.89,0.89,0,0,0,1.084-.912,1.391,1.391,0,0,0-1.047-1.121,8.666,8.666,0,0,1-1.087-.56,2.437,2.437,0,0,1-.486-0.434,1.714,1.714,0,0,1-.308-0.517,1.687,1.687,0,0,1-.1-0.588,1.512,1.512,0,0,1,.591-1.268,2.463,2.463,0,0,1,1.546-.456,4.968,4.968,0,0,1,1.816.456l-0.333,1.083a2.239,2.239,0,0,0-1.4-.554,1.215,1.215,0,0,0-.705.2,0.587,0.587,0,0,0-.286.5,1.037,1.037,0,0,0,.721.96l0.837,0.382a2.944,2.944,0,0,1,1.121.8,1.779,1.779,0,0,1,.351,1.127,1.684,1.684,0,0,1-.622,1.388,2.67,2.67,0,0,1-1.724.5A3.923,3.923,0,0,1,86.98,68.048Z" transform="translate(-4.936 -4.5)"/><path d="M96.776,68.442l-2.068-3.3-1.022,1.053v2.248h-1.17v-9.3h1.17v5.769l2.524-3.066h1.367l-2.112,2.506,2.58,4.088H96.776Z" transform="translate(-4.936 -4.5)"/><path d="M99.442,68.442V62.833H98.537V61.848h2.075v6.594h-1.17Zm0.641-9.088a0.715,0.715,0,1,1-.511.209A0.7,0.7,0,0,1,100.083,59.354Z" transform="translate(-4.936 -4.5)"/><path d="M103.82,66.712a0.925,0.925,0,0,1,.924.923,0.9,0.9,0,0,1-.271.656,0.914,0.914,0,0,1-1.3,0,0.9,0.9,0,0,1-.271-0.656A0.925,0.925,0,0,1,103.82,66.712Z" transform="translate(-4.936 -4.5)"/></svg>