<svg id="Layer_1" data-name="Layer 1" xmlns="http://www.w3.org/2000/svg" viewBox="0 0 595 234.603"><defs><style>.cls-1,.cls-4{fill:#28538c;}.cls-1,.cls-2,.cls-6{stroke:#28538c;stroke-miterlimit:10;}.cls-2,.cls-3{fill:#fff;}.cls-5{fill:#231f20;}.cls-6{fill:none;stroke-width:3px;}</style></defs><title>Types_of_Property_01</title><rect class="cls-1" x="190.58" y="0.5" width="213.84" height="57.352" rx="12.71" ry="12.71"/><rect class="cls-2" x="404.42" y="90.624" width="190.08" height="143.479" rx="12.797" ry="12.797"/><rect class="cls-2" x="0.5" y="90.624" width="190.08" height="143.479" rx="12.503" ry="12.503"/><path class="cls-3" d="M275.992,41.5V31.028h3.392a12.285,12.285,0,0,1,2.514.157,2.745,2.745,0,0,1,1.507,1.024,3.254,3.254,0,0,1,.607,2.039,3.415,3.415,0,0,1-.35,1.621,2.868,2.868,0,0,1-.889,1.032,3.063,3.063,0,0,1-1.1.5,12.054,12.054,0,0,1-2.192.15h-1.378V41.5h-2.114Zm2.114-8.7V35.77h1.157a5.471,5.471,0,0,0,1.671-.164,1.388,1.388,0,0,0,.661-0.514,1.409,1.409,0,0,0,.239-0.814,1.351,1.351,0,0,0-.336-0.943,1.462,1.462,0,0,0-.85-0.464,10.2,10.2,0,0,0-1.521-.071h-1.021Z" transform="translate(-7.5 -8.005)"/><path class="cls-3" d="M287.653,41.5h-2.007V33.913h1.864v1.078a3.241,3.241,0,0,1,.86-1.007,1.585,1.585,0,0,1,.868-0.243,2.547,2.547,0,0,1,1.321.378l-0.622,1.75A1.763,1.763,0,0,0,289,35.541a1.114,1.114,0,0,0-.714.232,1.586,1.586,0,0,0-.46.839,11.925,11.925,0,0,0-.168,2.542V41.5Z" transform="translate(-7.5 -8.005)"/><path class="cls-3" d="M290.96,37.6a4.106,4.106,0,0,1,.493-1.935,3.383,3.383,0,0,1,1.4-1.428,4.14,4.14,0,0,1,2.017-.493,3.788,3.788,0,0,1,2.821,1.118,3.862,3.862,0,0,1,1.1,2.824,3.907,3.907,0,0,1-1.11,2.853,3.755,3.755,0,0,1-2.8,1.132,4.4,4.4,0,0,1-1.989-.471,3.234,3.234,0,0,1-1.439-1.382A4.609,4.609,0,0,1,290.96,37.6Zm2.057,0.107a2.512,2.512,0,0,0,.536,1.728,1.75,1.75,0,0,0,2.639,0,2.545,2.545,0,0,0,.532-1.742,2.5,2.5,0,0,0-.532-1.714,1.751,1.751,0,0,0-2.639,0A2.514,2.514,0,0,0,293.017,37.705Z" transform="translate(-7.5 -8.005)"/><path class="cls-3" d="M300.3,33.913h1.871v1.114a2.8,2.8,0,0,1,.985-0.928,2.718,2.718,0,0,1,1.378-.357,2.891,2.891,0,0,1,2.242,1.035,4.192,4.192,0,0,1,.922,2.885,4.317,4.317,0,0,1-.929,2.953,2.893,2.893,0,0,1-2.25,1.053,2.558,2.558,0,0,1-1.139-.25,3.834,3.834,0,0,1-1.075-.857v3.821H300.3V33.913Zm1.985,3.664a2.922,2.922,0,0,0,.507,1.889,1.551,1.551,0,0,0,1.235.611,1.449,1.449,0,0,0,1.164-.561,2.887,2.887,0,0,0,.464-1.839,2.742,2.742,0,0,0-.479-1.771,1.479,1.479,0,0,0-1.186-.578,1.54,1.54,0,0,0-1.221.567A2.528,2.528,0,0,0,302.287,37.577Z" transform="translate(-7.5 -8.005)"/><path class="cls-3" d="M313.684,39.083l2,0.335a3.278,3.278,0,0,1-1.218,1.675,3.578,3.578,0,0,1-2.082.575,3.392,3.392,0,0,1-2.928-1.292,4.342,4.342,0,0,1-.75-2.614,4.192,4.192,0,0,1,.985-2.953,3.248,3.248,0,0,1,2.493-1.067,3.367,3.367,0,0,1,2.671,1.118,4.951,4.951,0,0,1,.936,3.424h-5.028a2.031,2.031,0,0,0,.486,1.389,1.517,1.517,0,0,0,1.156.5,1.229,1.229,0,0,0,.793-0.257A1.588,1.588,0,0,0,313.684,39.083Zm0.114-2.028a1.931,1.931,0,0,0-.449-1.325,1.449,1.449,0,0,0-2.129.025,1.853,1.853,0,0,0-.421,1.3h3Z" transform="translate(-7.5 -8.005)"/><path class="cls-3" d="M319.347,41.5H317.34V33.913H319.2v1.078a3.235,3.235,0,0,1,.86-1.007,1.586,1.586,0,0,1,.868-0.243,2.543,2.543,0,0,1,1.32.378l-0.621,1.75a1.763,1.763,0,0,0-.942-0.329,1.111,1.111,0,0,0-.714.232,1.583,1.583,0,0,0-.461.839,11.891,11.891,0,0,0-.168,2.542V41.5Z" transform="translate(-7.5 -8.005)"/><path class="cls-3" d="M326.595,33.913v1.6h-1.371v3.057a7.749,7.749,0,0,0,.039,1.082,0.443,0.443,0,0,0,.179.254,0.569,0.569,0,0,0,.34.1,2.587,2.587,0,0,0,.807-0.193l0.171,1.557a3.99,3.99,0,0,1-1.585.3,2.516,2.516,0,0,1-.979-0.182,1.429,1.429,0,0,1-.639-0.471,1.852,1.852,0,0,1-.282-0.782,9.7,9.7,0,0,1-.064-1.414V35.513h-0.921v-1.6h0.921V32.406l2.014-1.171v2.678h1.371Z" transform="translate(-7.5 -8.005)"/><path class="cls-3" d="M327.037,33.913h2.136l1.813,5.384,1.771-5.384h2.078l-2.678,7.3-0.479,1.321a5.456,5.456,0,0,1-.5,1.014,2.194,2.194,0,0,1-.55.567,2.4,2.4,0,0,1-.764.339,3.97,3.97,0,0,1-1.025.122,5.316,5.316,0,0,1-1.136-.122l-0.178-1.571a4.416,4.416,0,0,0,.85.093,1.259,1.259,0,0,0,1.035-.41,2.855,2.855,0,0,0,.515-1.046Z" transform="translate(-7.5 -8.005)"/><path class="cls-4" d="M56.561,128.57V118.1H61.01a7.614,7.614,0,0,1,2.438.282,2.4,2.4,0,0,1,1.218,1,3.016,3.016,0,0,1,.457,1.649,2.8,2.8,0,0,1-.693,1.946,3.328,3.328,0,0,1-2.071.967,4.941,4.941,0,0,1,1.132.878,11.961,11.961,0,0,1,1.2,1.7l1.278,2.042H63.445l-1.528-2.278a14.768,14.768,0,0,0-1.114-1.539,1.622,1.622,0,0,0-.635-0.436A3.5,3.5,0,0,0,59.1,124.2H58.674v4.371H56.561Zm2.114-6.042h1.564a8.092,8.092,0,0,0,1.9-.128,1.139,1.139,0,0,0,.593-0.443,1.362,1.362,0,0,0,.214-0.786,1.256,1.256,0,0,0-.282-0.854,1.3,1.3,0,0,0-.8-0.411q-0.257-.035-1.543-0.036H58.674v2.657Z" transform="translate(-7.5 -8.005)"/><path class="cls-4" d="M71.493,126.157l2,0.335a3.281,3.281,0,0,1-1.218,1.675,3.576,3.576,0,0,1-2.082.575,3.393,3.393,0,0,1-2.928-1.292,4.345,4.345,0,0,1-.75-2.614,4.187,4.187,0,0,1,.985-2.953,3.247,3.247,0,0,1,2.492-1.067,3.367,3.367,0,0,1,2.671,1.118,4.943,4.943,0,0,1,.936,3.424H68.572a2.028,2.028,0,0,0,.485,1.389,1.519,1.519,0,0,0,1.157.5,1.229,1.229,0,0,0,.792-0.257A1.589,1.589,0,0,0,71.493,126.157Zm0.114-2.028a1.933,1.933,0,0,0-.45-1.325,1.448,1.448,0,0,0-2.128.025,1.851,1.851,0,0,0-.421,1.3h3Z" transform="translate(-7.5 -8.005)"/><path class="cls-4" d="M76.734,123.3l-1.821-.328a2.838,2.838,0,0,1,1.057-1.628,3.871,3.871,0,0,1,2.229-.528,4.8,4.8,0,0,1,2,.318,1.992,1.992,0,0,1,.925.807,4.145,4.145,0,0,1,.268,1.8l-0.021,2.342a8.107,8.107,0,0,0,.1,1.475,4.286,4.286,0,0,0,.36,1.018H79.841q-0.078-.2-0.192-0.593c-0.034-.119-0.057-0.2-0.072-0.236a3.614,3.614,0,0,1-1.1.75,3.154,3.154,0,0,1-1.25.25,2.583,2.583,0,0,1-1.846-.636,2.11,2.11,0,0,1-.675-1.606,2.155,2.155,0,0,1,.307-1.146,2,2,0,0,1,.86-0.771,6.71,6.71,0,0,1,1.6-.468,10.969,10.969,0,0,0,1.95-.493v-0.2a1.038,1.038,0,0,0-.286-0.825,1.709,1.709,0,0,0-1.078-.247,1.434,1.434,0,0,0-.835.211A1.463,1.463,0,0,0,76.734,123.3Zm2.686,1.628q-0.386.128-1.221,0.307a3.681,3.681,0,0,0-1.093.35,0.836,0.836,0,0,0-.393.707,0.984,0.984,0,0,0,.314.729,1.1,1.1,0,0,0,.8.307,1.737,1.737,0,0,0,1.036-.357,1.259,1.259,0,0,0,.479-0.664,3.969,3.969,0,0,0,.079-0.979v-0.4Z" transform="translate(-7.5 -8.005)"/><path class="cls-4" d="M83.369,128.57V118.1h2.007V128.57H83.369Z" transform="translate(-7.5 -8.005)"/><path class="cls-4" d="M91.51,128.57V118.1H94.9a12.285,12.285,0,0,1,2.514.157,2.745,2.745,0,0,1,1.507,1.024,3.254,3.254,0,0,1,.607,2.039,3.415,3.415,0,0,1-.35,1.621,2.868,2.868,0,0,1-.889,1.032,3.063,3.063,0,0,1-1.1.5,12.054,12.054,0,0,1-2.192.15H93.624v3.949H91.51Zm2.114-8.7v2.971h1.157a5.471,5.471,0,0,0,1.671-.164,1.388,1.388,0,0,0,.661-0.514,1.409,1.409,0,0,0,.239-0.814,1.351,1.351,0,0,0-.336-0.943,1.462,1.462,0,0,0-.85-0.464,10.2,10.2,0,0,0-1.521-.071H93.624Z" transform="translate(-7.5 -8.005)"/><path class="cls-4" d="M103.171,128.57h-2.007v-7.584h1.864v1.078a3.241,3.241,0,0,1,.86-1.007,1.585,1.585,0,0,1,.868-0.243,2.547,2.547,0,0,1,1.321.378l-0.622,1.75a1.763,1.763,0,0,0-.942-0.329,1.114,1.114,0,0,0-.714.232,1.586,1.586,0,0,0-.46.839,11.925,11.925,0,0,0-.168,2.542v2.342Z" transform="translate(-7.5 -8.005)"/><path class="cls-4" d="M106.478,124.671a4.106,4.106,0,0,1,.493-1.935,3.383,3.383,0,0,1,1.4-1.428,4.14,4.14,0,0,1,2.017-.493,3.788,3.788,0,0,1,2.821,1.118,3.862,3.862,0,0,1,1.1,2.824,3.907,3.907,0,0,1-1.11,2.853,3.755,3.755,0,0,1-2.8,1.132,4.4,4.4,0,0,1-1.989-.471,3.234,3.234,0,0,1-1.439-1.382A4.609,4.609,0,0,1,106.478,124.671Zm2.057,0.107a2.512,2.512,0,0,0,.536,1.728,1.75,1.75,0,0,0,2.639,0,2.545,2.545,0,0,0,.532-1.742,2.5,2.5,0,0,0-.532-1.714,1.751,1.751,0,0,0-2.639,0A2.514,2.514,0,0,0,108.535,124.778Z" transform="translate(-7.5 -8.005)"/><path class="cls-4" d="M115.819,120.986h1.871V122.1a2.8,2.8,0,0,1,.985-0.928,2.718,2.718,0,0,1,1.378-.357,2.891,2.891,0,0,1,2.242,1.035,4.192,4.192,0,0,1,.921,2.885,4.32,4.32,0,0,1-.928,2.953,2.893,2.893,0,0,1-2.25,1.053,2.558,2.558,0,0,1-1.139-.25,3.834,3.834,0,0,1-1.075-.857v3.821h-2.007V120.986Zm1.985,3.664a2.922,2.922,0,0,0,.507,1.889,1.551,1.551,0,0,0,1.235.611,1.449,1.449,0,0,0,1.164-.561,2.887,2.887,0,0,0,.464-1.839,2.742,2.742,0,0,0-.479-1.771,1.479,1.479,0,0,0-1.186-.578,1.54,1.54,0,0,0-1.221.567A2.528,2.528,0,0,0,117.8,124.65Z" transform="translate(-7.5 -8.005)"/><path class="cls-4" d="M129.2,126.157l2,0.335a3.281,3.281,0,0,1-1.218,1.675,3.576,3.576,0,0,1-2.082.575,3.393,3.393,0,0,1-2.928-1.292,4.345,4.345,0,0,1-.75-2.614,4.187,4.187,0,0,1,.985-2.953,3.247,3.247,0,0,1,2.492-1.067,3.367,3.367,0,0,1,2.671,1.118,4.943,4.943,0,0,1,.936,3.424h-5.027a2.028,2.028,0,0,0,.485,1.389,1.519,1.519,0,0,0,1.157.5,1.229,1.229,0,0,0,.792-0.257A1.589,1.589,0,0,0,129.2,126.157Zm0.114-2.028a1.933,1.933,0,0,0-.45-1.325,1.448,1.448,0,0,0-2.128.025,1.851,1.851,0,0,0-.421,1.3h3Z" transform="translate(-7.5 -8.005)"/><path class="cls-4" d="M134.865,128.57h-2.007v-7.584h1.864v1.078a3.241,3.241,0,0,1,.86-1.007,1.585,1.585,0,0,1,.868-0.243,2.547,2.547,0,0,1,1.321.378l-0.622,1.75a1.763,1.763,0,0,0-.942-0.329,1.114,1.114,0,0,0-.714.232,1.586,1.586,0,0,0-.46.839,11.925,11.925,0,0,0-.168,2.542v2.342Z" transform="translate(-7.5 -8.005)"/><path class="cls-4" d="M142.114,120.986v1.6h-1.372v3.057a7.543,7.543,0,0,0,.04,1.082,0.439,0.439,0,0,0,.179.254,0.567,0.567,0,0,0,.339.1,2.586,2.586,0,0,0,.807-0.193l0.171,1.557a4,4,0,0,1-1.585.3,2.513,2.513,0,0,1-.979-0.182,1.431,1.431,0,0,1-.639-0.471,1.865,1.865,0,0,1-.282-0.782,9.7,9.7,0,0,1-.064-1.414v-3.306h-0.921v-1.6h0.921v-1.507l2.014-1.171v2.678h1.372Z" transform="translate(-7.5 -8.005)"/><path class="cls-4" d="M142.557,120.986h2.135l1.814,5.384,1.771-5.384h2.078l-2.678,7.3-0.479,1.321a5.369,5.369,0,0,1-.5,1.014,2.2,2.2,0,0,1-.55.567,2.4,2.4,0,0,1-.764.339,3.963,3.963,0,0,1-1.025.122,5.308,5.308,0,0,1-1.135-.122l-0.179-1.571a4.433,4.433,0,0,0,.85.093,1.26,1.26,0,0,0,1.035-.41,2.84,2.84,0,0,0,.514-1.046Z" transform="translate(-7.5 -8.005)"/><path class="cls-5" d="M34.594,163.671V153.2h1.385v9.234h5.156v1.235H34.594Z" transform="translate(-7.5 -8.005)"/><path class="cls-5" d="M47.569,162.736a4.786,4.786,0,0,1-1.375.857,3.977,3.977,0,0,1-1.418.25,2.758,2.758,0,0,1-1.921-.61,2.015,2.015,0,0,1-.671-1.561,2.075,2.075,0,0,1,.253-1.018,2.1,2.1,0,0,1,.665-0.739,3.123,3.123,0,0,1,.925-0.421,9.227,9.227,0,0,1,1.143-.193,11.741,11.741,0,0,0,2.292-.443q0.007-.264.007-0.335a1.418,1.418,0,0,0-.364-1.107,2.15,2.15,0,0,0-1.464-.436,2.27,2.27,0,0,0-1.339.318,1.94,1.94,0,0,0-.639,1.125l-1.257-.171a3.119,3.119,0,0,1,.564-1.3,2.471,2.471,0,0,1,1.136-.764,5.058,5.058,0,0,1,1.721-.268,4.558,4.558,0,0,1,1.579.229,2.081,2.081,0,0,1,.893.575,2.022,2.022,0,0,1,.4.875,7.229,7.229,0,0,1,.064,1.186v1.714a18.066,18.066,0,0,0,.083,2.267,2.852,2.852,0,0,0,.325.911H47.826A2.726,2.726,0,0,1,47.569,162.736Zm-0.107-2.871a9.438,9.438,0,0,1-2.1.485,4.857,4.857,0,0,0-1.122.257,1.12,1.12,0,0,0-.507.417,1.136,1.136,0,0,0,.21,1.468,1.675,1.675,0,0,0,1.139.343,2.65,2.65,0,0,0,1.321-.325,2,2,0,0,0,.85-0.889,3.1,3.1,0,0,0,.208-1.285v-0.471Z" transform="translate(-7.5 -8.005)"/><path class="cls-5" d="M50.754,163.671v-7.584h1.157v1.078a2.726,2.726,0,0,1,2.414-1.25,3.171,3.171,0,0,1,1.261.246,1.987,1.987,0,0,1,.86.646,2.48,2.48,0,0,1,.4.95,7.4,7.4,0,0,1,.071,1.25v4.663H55.632v-4.613a3.473,3.473,0,0,0-.15-1.175,1.239,1.239,0,0,0-.532-0.621,1.693,1.693,0,0,0-.9-0.232,2.082,2.082,0,0,0-1.417.521,2.572,2.572,0,0,0-.6,1.978v4.142H50.754Z" transform="translate(-7.5 -8.005)"/><path class="cls-5" d="M63.808,163.671v-0.957a2.358,2.358,0,0,1-2.121,1.128,2.971,2.971,0,0,1-1.667-.5,3.285,3.285,0,0,1-1.179-1.4,4.829,4.829,0,0,1-.417-2.061,5.39,5.39,0,0,1,.378-2.06,2.987,2.987,0,0,1,1.135-1.417,3.036,3.036,0,0,1,1.693-.493,2.528,2.528,0,0,1,2.092,1.042V153.2H65v10.469H63.808Zm-4.063-3.785a3.294,3.294,0,0,0,.614,2.178,1.852,1.852,0,0,0,1.45.721,1.818,1.818,0,0,0,1.432-.689,3.179,3.179,0,0,0,.589-2.1,3.566,3.566,0,0,0-.6-2.285,1.845,1.845,0,0,0-1.479-.729,1.781,1.781,0,0,0-1.432.7A3.454,3.454,0,0,0,59.745,159.886Z" transform="translate(-7.5 -8.005)"/><path class="cls-5" d="M76.034,162.736a4.786,4.786,0,0,1-1.375.857,3.977,3.977,0,0,1-1.418.25,2.758,2.758,0,0,1-1.921-.61,2.015,2.015,0,0,1-.671-1.561,2.075,2.075,0,0,1,.253-1.018,2.1,2.1,0,0,1,.665-0.739,3.123,3.123,0,0,1,.925-0.421,9.227,9.227,0,0,1,1.143-.193,11.741,11.741,0,0,0,2.292-.443q0.007-.264.007-0.335a1.418,1.418,0,0,0-.364-1.107,2.15,2.15,0,0,0-1.464-.436,2.27,2.27,0,0,0-1.339.318,1.94,1.94,0,0,0-.639,1.125l-1.257-.171a3.119,3.119,0,0,1,.564-1.3,2.471,2.471,0,0,1,1.136-.764,5.058,5.058,0,0,1,1.721-.268,4.558,4.558,0,0,1,1.579.229,2.081,2.081,0,0,1,.893.575,2.022,2.022,0,0,1,.4.875,7.229,7.229,0,0,1,.064,1.186v1.714a18.066,18.066,0,0,0,.083,2.267,2.852,2.852,0,0,0,.325.911H76.291A2.726,2.726,0,0,1,76.034,162.736Zm-0.107-2.871a9.438,9.438,0,0,1-2.1.485,4.857,4.857,0,0,0-1.122.257,1.12,1.12,0,0,0-.507.417,1.136,1.136,0,0,0,.21,1.468,1.675,1.675,0,0,0,1.139.343,2.65,2.65,0,0,0,1.321-.325,2,2,0,0,0,.85-0.889,3.1,3.1,0,0,0,.208-1.285v-0.471Z" transform="translate(-7.5 -8.005)"/><path class="cls-5" d="M79.219,163.671v-7.584h1.157v1.078a2.726,2.726,0,0,1,2.414-1.25,3.171,3.171,0,0,1,1.261.246,1.987,1.987,0,0,1,.86.646,2.48,2.48,0,0,1,.4.95,7.4,7.4,0,0,1,.071,1.25v4.663H84.1v-4.613a3.473,3.473,0,0,0-.15-1.175,1.239,1.239,0,0,0-.532-0.621,1.693,1.693,0,0,0-.9-0.232,2.082,2.082,0,0,0-1.417.521,2.572,2.572,0,0,0-.6,1.978v4.142H79.219Z" transform="translate(-7.5 -8.005)"/><path class="cls-5" d="M92.273,163.671v-0.957a2.358,2.358,0,0,1-2.121,1.128,2.971,2.971,0,0,1-1.667-.5,3.285,3.285,0,0,1-1.179-1.4,4.829,4.829,0,0,1-.417-2.061,5.39,5.39,0,0,1,.378-2.06,2.987,2.987,0,0,1,1.135-1.417,3.036,3.036,0,0,1,1.693-.493,2.528,2.528,0,0,1,2.092,1.042V153.2h1.278v10.469H92.273Zm-4.063-3.785a3.294,3.294,0,0,0,.614,2.178,1.852,1.852,0,0,0,1.45.721,1.818,1.818,0,0,0,1.432-.689,3.179,3.179,0,0,0,.589-2.1,3.566,3.566,0,0,0-.6-2.285,1.845,1.845,0,0,0-1.479-.729,1.781,1.781,0,0,0-1.432.7A3.454,3.454,0,0,0,88.21,159.886Z" transform="translate(-7.5 -8.005)"/><path class="cls-5" d="M100.95,163.671l-2.321-7.584h1.328l1.207,4.377,0.45,1.628q0.029-.122.393-1.564l1.207-4.442h1.321l1.136,4.4,0.378,1.45,0.436-1.464,1.3-4.385h1.25l-2.371,7.584h-1.335l-1.207-4.542-0.293-1.292-1.535,5.834H100.95Z" transform="translate(-7.5 -8.005)"/><path class="cls-5" d="M110.112,163.671V153.2H111.4v3.756a2.873,2.873,0,0,1,2.271-1.042,3.059,3.059,0,0,1,1.464.332,1.951,1.951,0,0,1,.889.917,4.228,4.228,0,0,1,.268,1.7v4.806H115v-4.806a1.985,1.985,0,0,0-.418-1.4,1.552,1.552,0,0,0-1.182-.439,2.082,2.082,0,0,0-1.075.3,1.67,1.67,0,0,0-.718.8,3.685,3.685,0,0,0-.214,1.4v4.149h-1.286Z" transform="translate(-7.5 -8.005)"/><path class="cls-5" d="M123.195,162.736a4.786,4.786,0,0,1-1.375.857,3.977,3.977,0,0,1-1.418.25,2.758,2.758,0,0,1-1.921-.61,2.015,2.015,0,0,1-.671-1.561,2.075,2.075,0,0,1,.253-1.018,2.1,2.1,0,0,1,.665-0.739,3.123,3.123,0,0,1,.925-0.421,9.227,9.227,0,0,1,1.143-.193,11.741,11.741,0,0,0,2.292-.443q0.007-.264.007-0.335a1.418,1.418,0,0,0-.364-1.107,2.15,2.15,0,0,0-1.464-.436,2.27,2.27,0,0,0-1.339.318,1.94,1.94,0,0,0-.639,1.125l-1.257-.171a3.119,3.119,0,0,1,.564-1.3,2.471,2.471,0,0,1,1.136-.764,5.058,5.058,0,0,1,1.721-.268,4.558,4.558,0,0,1,1.579.229,2.081,2.081,0,0,1,.893.575,2.022,2.022,0,0,1,.4.875,7.229,7.229,0,0,1,.064,1.186v1.714a18.066,18.066,0,0,0,.083,2.267,2.852,2.852,0,0,0,.325.911h-1.343A2.726,2.726,0,0,1,123.195,162.736Zm-0.107-2.871a9.438,9.438,0,0,1-2.1.485,4.857,4.857,0,0,0-1.122.257,1.12,1.12,0,0,0-.507.417,1.136,1.136,0,0,0,.21,1.468,1.675,1.675,0,0,0,1.139.343,2.65,2.65,0,0,0,1.321-.325,2,2,0,0,0,.85-0.889,3.1,3.1,0,0,0,.208-1.285v-0.471Z" transform="translate(-7.5 -8.005)"/><path class="cls-5" d="M129.186,162.521l0.186,1.136a4.776,4.776,0,0,1-.972.114,2.2,2.2,0,0,1-1.085-.222,1.237,1.237,0,0,1-.542-0.582,4.593,4.593,0,0,1-.157-1.518v-4.363h-0.942v-1h0.942v-1.878l1.278-.771v2.649h1.292v1h-1.292v4.435a2.235,2.235,0,0,0,.068.707,0.539,0.539,0,0,0,.221.25,0.86,0.86,0,0,0,.439.093A4.133,4.133,0,0,0,129.186,162.521Z" transform="translate(-7.5 -8.005)"/><path class="cls-5" d="M135.635,161.229l1.329,0.164A3.245,3.245,0,0,1,135.8,163.2a3.5,3.5,0,0,1-2.171.643,3.468,3.468,0,0,1-2.639-1.025,4,4,0,0,1-.975-2.875,4.192,4.192,0,0,1,.985-2.971,3.336,3.336,0,0,1,2.557-1.057,3.243,3.243,0,0,1,2.485,1.035,4.116,4.116,0,0,1,.964,2.914q0,0.114-.007.343h-5.656a2.915,2.915,0,0,0,.707,1.914,2.1,2.1,0,0,0,1.585.664,1.968,1.968,0,0,0,1.207-.371A2.467,2.467,0,0,0,135.635,161.229Zm-4.22-2.078h4.234a2.572,2.572,0,0,0-.485-1.436,1.971,1.971,0,0,0-1.593-.743,2.042,2.042,0,0,0-1.489.593A2.345,2.345,0,0,0,131.415,159.151Z" transform="translate(-7.5 -8.005)"/><path class="cls-5" d="M140.684,163.671l-2.885-7.584h1.357l1.628,4.542q0.264,0.735.485,1.528,0.171-.6.479-1.442l1.686-4.627h1.321l-2.871,7.584h-1.2Z" transform="translate(-7.5 -8.005)"/><path class="cls-5" d="M151.082,161.229l1.329,0.164a3.245,3.245,0,0,1-1.164,1.807,3.5,3.5,0,0,1-2.171.643,3.468,3.468,0,0,1-2.639-1.025,4,4,0,0,1-.975-2.875,4.192,4.192,0,0,1,.985-2.971A3.336,3.336,0,0,1,149,155.916a3.243,3.243,0,0,1,2.485,1.035,4.116,4.116,0,0,1,.964,2.914q0,0.114-.007.343H146.79a2.915,2.915,0,0,0,.707,1.914,2.1,2.1,0,0,0,1.585.664,1.968,1.968,0,0,0,1.207-.371A2.467,2.467,0,0,0,151.082,161.229Zm-4.22-2.078H151.1a2.572,2.572,0,0,0-.485-1.436,1.971,1.971,0,0,0-1.593-.743,2.042,2.042,0,0,0-1.489.593A2.345,2.345,0,0,0,146.861,159.151Z" transform="translate(-7.5 -8.005)"/><path class="cls-5" d="M154.009,163.671v-7.584h1.157v1.149a3.137,3.137,0,0,1,.817-1.064,1.427,1.427,0,0,1,.825-0.257,2.508,2.508,0,0,1,1.321.414l-0.443,1.192a1.839,1.839,0,0,0-.942-0.278,1.225,1.225,0,0,0-.757.253,1.371,1.371,0,0,0-.478.7,5,5,0,0,0-.214,1.5v3.971h-1.286Z" transform="translate(-7.5 -8.005)"/><path class="cls-5" d="M162.965,154.68V153.2h1.286v1.478h-1.286Zm0,8.991v-7.584h1.286v7.584h-1.286Z" transform="translate(-7.5 -8.005)"/><path class="cls-5" d="M165.693,161.408l1.271-.2a1.776,1.776,0,0,0,.6,1.171,2.077,2.077,0,0,0,1.368.407,2.01,2.01,0,0,0,1.314-.36,1.078,1.078,0,0,0,.428-0.846,0.78,0.78,0,0,0-.378-0.686,5.562,5.562,0,0,0-1.314-.436,12.012,12.012,0,0,1-1.96-.618,1.872,1.872,0,0,1-1.11-1.739,1.953,1.953,0,0,1,.232-0.939,2.076,2.076,0,0,1,.632-0.718,2.651,2.651,0,0,1,.817-0.375,3.9,3.9,0,0,1,1.111-.153,4.39,4.39,0,0,1,1.567.257,2.133,2.133,0,0,1,1,.7,2.723,2.723,0,0,1,.443,1.175l-1.257.171a1.377,1.377,0,0,0-.5-0.914,1.818,1.818,0,0,0-1.161-.329,2.1,2.1,0,0,0-1.264.293,0.852,0.852,0,0,0-.378.686,0.708,0.708,0,0,0,.157.45,1.131,1.131,0,0,0,.493.343q0.193,0.072,1.135.329a15.848,15.848,0,0,1,1.9.6,1.93,1.93,0,0,1,.846.675,1.884,1.884,0,0,1,.307,1.1,2.158,2.158,0,0,1-.375,1.21,2.423,2.423,0,0,1-1.082.878,3.942,3.942,0,0,1-1.6.311,3.562,3.562,0,0,1-2.253-.614A2.856,2.856,0,0,1,165.693,161.408Z" transform="translate(-7.5 -8.005)"/><path class="cls-5" d="M31.958,178.78l1.329,0.164a3.245,3.245,0,0,1-1.164,1.807,3.5,3.5,0,0,1-2.171.643,3.468,3.468,0,0,1-2.639-1.025,4,4,0,0,1-.975-2.875,4.192,4.192,0,0,1,.985-2.971,3.336,3.336,0,0,1,2.557-1.057,3.243,3.243,0,0,1,2.485,1.035,4.116,4.116,0,0,1,.964,2.914q0,0.114-.007.343H27.667a2.915,2.915,0,0,0,.707,1.914,2.1,2.1,0,0,0,1.585.664,1.968,1.968,0,0,0,1.207-.371A2.467,2.467,0,0,0,31.958,178.78Zm-4.22-2.078h4.234a2.572,2.572,0,0,0-.485-1.436,1.971,1.971,0,0,0-1.593-.743,2.042,2.042,0,0,0-1.489.593A2.345,2.345,0,0,0,27.738,176.7Z" transform="translate(-7.5 -8.005)"/><path class="cls-5" d="M34.886,181.222v-7.584h1.157v1.149a3.137,3.137,0,0,1,.817-1.064,1.427,1.427,0,0,1,.825-0.257,2.508,2.508,0,0,1,1.321.414l-0.443,1.192a1.839,1.839,0,0,0-.942-0.278,1.225,1.225,0,0,0-.757.253,1.371,1.371,0,0,0-.478.7,5,5,0,0,0-.214,1.5v3.971H34.886Z" transform="translate(-7.5 -8.005)"/><path class="cls-5" d="M44.963,178.78l1.329,0.164a3.245,3.245,0,0,1-1.164,1.807,3.5,3.5,0,0,1-2.171.643,3.468,3.468,0,0,1-2.639-1.025,4,4,0,0,1-.975-2.875,4.192,4.192,0,0,1,.985-2.971,3.336,3.336,0,0,1,2.557-1.057A3.243,3.243,0,0,1,45.37,174.5a4.116,4.116,0,0,1,.964,2.914q0,0.114-.007.343H40.671a2.915,2.915,0,0,0,.707,1.914,2.1,2.1,0,0,0,1.585.664,1.968,1.968,0,0,0,1.207-.371A2.467,2.467,0,0,0,44.963,178.78Zm-4.22-2.078h4.234a2.572,2.572,0,0,0-.485-1.436,1.971,1.971,0,0,0-1.593-.743,2.042,2.042,0,0,0-1.489.593A2.345,2.345,0,0,0,40.743,176.7Z" transform="translate(-7.5 -8.005)"/><path class="cls-5" d="M52.854,178.444l1.264,0.164a3.279,3.279,0,0,1-1.061,2.046,3.09,3.09,0,0,1-2.1.739,3.256,3.256,0,0,1-2.5-1.018,4.13,4.13,0,0,1-.946-2.917,5.277,5.277,0,0,1,.407-2.149,2.835,2.835,0,0,1,1.239-1.382,3.676,3.676,0,0,1,1.811-.46,3.148,3.148,0,0,1,2.021.625A2.867,2.867,0,0,1,54,175.866l-1.25.193a2.078,2.078,0,0,0-.632-1.15,1.636,1.636,0,0,0-1.1-.386,2,2,0,0,0-1.578.7,3.305,3.305,0,0,0-.607,2.2,3.416,3.416,0,0,0,.585,2.221,1.9,1.9,0,0,0,1.528.692,1.8,1.8,0,0,0,1.264-.464A2.3,2.3,0,0,0,52.854,178.444Z" transform="translate(-7.5 -8.005)"/><path class="cls-5" d="M58.024,180.072l0.186,1.136a4.776,4.776,0,0,1-.972.114,2.2,2.2,0,0,1-1.085-.222,1.237,1.237,0,0,1-.542-0.582A4.593,4.593,0,0,1,55.454,179v-4.363H54.511v-1h0.942V171.76l1.278-.771v2.649h1.292v1H56.732v4.435a2.235,2.235,0,0,0,.068.707,0.539,0.539,0,0,0,.221.25,0.86,0.86,0,0,0,.439.093A4.133,4.133,0,0,0,58.024,180.072Z" transform="translate(-7.5 -8.005)"/><path class="cls-5" d="M64.473,178.78l1.329,0.164a3.245,3.245,0,0,1-1.164,1.807,3.5,3.5,0,0,1-2.171.643,3.468,3.468,0,0,1-2.639-1.025,4,4,0,0,1-.975-2.875,4.192,4.192,0,0,1,.985-2.971,3.336,3.336,0,0,1,2.557-1.057A3.243,3.243,0,0,1,64.88,174.5a4.116,4.116,0,0,1,.964,2.914q0,0.114-.007.343H60.181a2.915,2.915,0,0,0,.707,1.914,2.1,2.1,0,0,0,1.585.664,1.968,1.968,0,0,0,1.207-.371A2.467,2.467,0,0,0,64.473,178.78Zm-4.22-2.078h4.234A2.572,2.572,0,0,0,64,175.266a1.971,1.971,0,0,0-1.593-.743,2.042,2.042,0,0,0-1.489.593A2.345,2.345,0,0,0,60.253,176.7Z" transform="translate(-7.5 -8.005)"/><path class="cls-5" d="M72.335,181.222v-0.957a2.358,2.358,0,0,1-2.121,1.128,2.971,2.971,0,0,1-1.667-.5,3.285,3.285,0,0,1-1.179-1.4,4.829,4.829,0,0,1-.417-2.061,5.39,5.39,0,0,1,.378-2.06,2.987,2.987,0,0,1,1.135-1.417,3.036,3.036,0,0,1,1.693-.493,2.528,2.528,0,0,1,2.092,1.042v-3.756h1.278v10.469H72.335Zm-4.063-3.785a3.294,3.294,0,0,0,.614,2.178,1.852,1.852,0,0,0,1.45.721,1.818,1.818,0,0,0,1.432-.689,3.179,3.179,0,0,0,.589-2.1,3.566,3.566,0,0,0-.6-2.285,1.845,1.845,0,0,0-1.479-.729,1.781,1.781,0,0,0-1.432.7A3.454,3.454,0,0,0,68.272,177.437Z" transform="translate(-7.5 -8.005)"/><path class="cls-5" d="M84.583,181.222v-1.114a2.776,2.776,0,0,1-2.407,1.286,3.059,3.059,0,0,1-1.253-.257,2.063,2.063,0,0,1-.864-0.646,2.414,2.414,0,0,1-.4-0.954,6.487,6.487,0,0,1-.079-1.2v-4.7H80.87v4.206a7.522,7.522,0,0,0,.078,1.357,1.343,1.343,0,0,0,.514.8,1.6,1.6,0,0,0,.972.289,2.116,2.116,0,0,0,1.085-.3,1.643,1.643,0,0,0,.717-0.807,4.042,4.042,0,0,0,.211-1.481v-4.063h1.286v7.584h-1.15Z" transform="translate(-7.5 -8.005)"/><path class="cls-5" d="M87.746,184.129V173.638h1.171v0.985a2.883,2.883,0,0,1,.936-0.868,2.571,2.571,0,0,1,1.264-.289,3,3,0,0,1,1.714.5,3.071,3.071,0,0,1,1.121,1.411,5.148,5.148,0,0,1,.378,2,5.071,5.071,0,0,1-.417,2.1A3.153,3.153,0,0,1,92.7,180.9a3.119,3.119,0,0,1-1.674.5,2.415,2.415,0,0,1-1.153-.271,2.614,2.614,0,0,1-.839-0.686v3.692H87.746Zm1.164-6.656a3.3,3.3,0,0,0,.593,2.164,1.817,1.817,0,0,0,1.436.7,1.858,1.858,0,0,0,1.468-.725,3.441,3.441,0,0,0,.61-2.246,3.351,3.351,0,0,0-.6-2.171A1.8,1.8,0,0,0,91,174.474a1.851,1.851,0,0,0-1.453.768A3.435,3.435,0,0,0,88.91,177.473Z" transform="translate(-7.5 -8.005)"/><path class="cls-5" d="M95.4,177.43a3.91,3.91,0,0,1,1.171-3.121,3.53,3.53,0,0,1,2.385-.842,3.4,3.4,0,0,1,2.557,1.024,3.9,3.9,0,0,1,.993,2.832,5.014,5.014,0,0,1-.439,2.3,3.1,3.1,0,0,1-1.278,1.3,3.722,3.722,0,0,1-1.832.464,3.409,3.409,0,0,1-2.574-1.021A4.079,4.079,0,0,1,95.4,177.43Zm1.321,0a3.23,3.23,0,0,0,.636,2.182,2.117,2.117,0,0,0,3.192,0,3.31,3.31,0,0,0,.635-2.221,3.133,3.133,0,0,0-.639-2.132,2.119,2.119,0,0,0-3.188,0A3.216,3.216,0,0,0,96.723,177.43Z" transform="translate(-7.5 -8.005)"/><path class="cls-5" d="M104.014,181.222v-7.584h1.157v1.078a2.726,2.726,0,0,1,2.414-1.25,3.171,3.171,0,0,1,1.261.246,1.987,1.987,0,0,1,.86.646,2.48,2.48,0,0,1,.4.95,7.4,7.4,0,0,1,.071,1.25v4.663h-1.285v-4.613a3.473,3.473,0,0,0-.15-1.175,1.239,1.239,0,0,0-.532-0.621,1.693,1.693,0,0,0-.9-0.232,2.082,2.082,0,0,0-1.417.521,2.572,2.572,0,0,0-.6,1.978v4.142h-1.286Z" transform="translate(-7.5 -8.005)"/><path class="cls-5" d="M116.218,172.231v-1.478H117.5v1.478h-1.286Zm0,8.991v-7.584H117.5v7.584h-1.286Z" transform="translate(-7.5 -8.005)"/><path class="cls-5" d="M122.267,180.072l0.186,1.136a4.776,4.776,0,0,1-.972.114,2.2,2.2,0,0,1-1.085-.222,1.237,1.237,0,0,1-.542-0.582A4.593,4.593,0,0,1,119.7,179v-4.363h-0.942v-1H119.7V171.76l1.278-.771v2.649h1.292v1h-1.292v4.435a2.235,2.235,0,0,0,.068.707,0.539,0.539,0,0,0,.221.25,0.86,0.86,0,0,0,.439.093A4.133,4.133,0,0,0,122.267,180.072Z" transform="translate(-7.5 -8.005)"/><path class="cls-5" d="M130.044,184.3a12.855,12.855,0,0,1-1.8-3.143,9.863,9.863,0,0,1-.186-6.984,13.674,13.674,0,0,1,1.985-3.6h0.921q-0.864,1.485-1.143,2.121a11.581,11.581,0,0,0-.686,2.057,11.957,11.957,0,0,0-.307,2.685,12.891,12.891,0,0,0,2.135,6.863h-0.921Z" transform="translate(-7.5 -8.005)"/><path class="cls-5" d="M132.458,181.222V170.753h1.286v3.756a2.873,2.873,0,0,1,2.271-1.042,3.059,3.059,0,0,1,1.464.332,1.951,1.951,0,0,1,.889.917,4.228,4.228,0,0,1,.268,1.7v4.806H137.35v-4.806a1.985,1.985,0,0,0-.418-1.4,1.552,1.552,0,0,0-1.182-.439,2.082,2.082,0,0,0-1.075.3,1.67,1.67,0,0,0-.718.8,3.685,3.685,0,0,0-.214,1.4v4.149h-1.286Z" transform="translate(-7.5 -8.005)"/><path class="cls-5" d="M140.114,177.43a3.91,3.91,0,0,1,1.171-3.121,3.53,3.53,0,0,1,2.385-.842,3.4,3.4,0,0,1,2.557,1.024,3.9,3.9,0,0,1,.993,2.832,5.014,5.014,0,0,1-.439,2.3,3.1,3.1,0,0,1-1.278,1.3,3.722,3.722,0,0,1-1.832.464,3.409,3.409,0,0,1-2.574-1.021A4.079,4.079,0,0,1,140.114,177.43Zm1.321,0a3.23,3.23,0,0,0,.636,2.182,2.117,2.117,0,0,0,3.192,0,3.31,3.31,0,0,0,.635-2.221,3.133,3.133,0,0,0-.639-2.132,2.119,2.119,0,0,0-3.188,0A3.216,3.216,0,0,0,141.435,177.43Z" transform="translate(-7.5 -8.005)"/><path class="cls-5" d="M153.7,181.222v-1.114a2.776,2.776,0,0,1-2.407,1.286,3.059,3.059,0,0,1-1.253-.257,2.063,2.063,0,0,1-.864-0.646,2.414,2.414,0,0,1-.4-0.954,6.487,6.487,0,0,1-.079-1.2v-4.7h1.286v4.206a7.522,7.522,0,0,0,.078,1.357,1.343,1.343,0,0,0,.514.8,1.6,1.6,0,0,0,.972.289,2.116,2.116,0,0,0,1.085-.3,1.643,1.643,0,0,0,.717-0.807,4.042,4.042,0,0,0,.211-1.481v-4.063h1.286v7.584H153.7Z" transform="translate(-7.5 -8.005)"/><path class="cls-5" d="M156.345,178.958l1.271-.2a1.776,1.776,0,0,0,.6,1.171,2.077,2.077,0,0,0,1.368.407,2.01,2.01,0,0,0,1.314-.36,1.078,1.078,0,0,0,.428-0.846,0.78,0.78,0,0,0-.378-0.686,5.562,5.562,0,0,0-1.314-.436,12.012,12.012,0,0,1-1.96-.618,1.872,1.872,0,0,1-1.11-1.739,1.953,1.953,0,0,1,.232-0.939,2.076,2.076,0,0,1,.632-0.718,2.651,2.651,0,0,1,.817-0.375,3.9,3.9,0,0,1,1.111-.153,4.39,4.39,0,0,1,1.567.257,2.133,2.133,0,0,1,1,.7,2.723,2.723,0,0,1,.443,1.175l-1.257.171a1.377,1.377,0,0,0-.5-0.914,1.818,1.818,0,0,0-1.161-.329,2.1,2.1,0,0,0-1.264.293,0.852,0.852,0,0,0-.378.686,0.708,0.708,0,0,0,.157.45,1.131,1.131,0,0,0,.493.343q0.193,0.072,1.135.329a15.848,15.848,0,0,1,1.9.6,1.93,1.93,0,0,1,.846.675,1.884,1.884,0,0,1,.307,1.1,2.158,2.158,0,0,1-.375,1.21,2.423,2.423,0,0,1-1.082.878,3.942,3.942,0,0,1-1.6.311,3.562,3.562,0,0,1-2.253-.614A2.856,2.856,0,0,1,156.345,178.958Z" transform="translate(-7.5 -8.005)"/><path class="cls-5" d="M169.364,178.78l1.329,0.164a3.245,3.245,0,0,1-1.164,1.807,3.5,3.5,0,0,1-2.171.643,3.468,3.468,0,0,1-2.639-1.025,4,4,0,0,1-.975-2.875,4.192,4.192,0,0,1,.985-2.971,3.336,3.336,0,0,1,2.557-1.057,3.243,3.243,0,0,1,2.485,1.035,4.116,4.116,0,0,1,.964,2.914q0,0.114-.007.343h-5.656a2.915,2.915,0,0,0,.707,1.914,2.1,2.1,0,0,0,1.585.664,1.968,1.968,0,0,0,1.207-.371A2.467,2.467,0,0,0,169.364,178.78Zm-4.22-2.078h4.234a2.572,2.572,0,0,0-.485-1.436,1.971,1.971,0,0,0-1.593-.743,2.042,2.042,0,0,0-1.489.593A2.345,2.345,0,0,0,165.144,176.7Z" transform="translate(-7.5 -8.005)"/><path class="cls-5" d="M173.149,184.3h-0.921a12.891,12.891,0,0,0,2.135-6.863,11.735,11.735,0,0,0-.307-2.664,11.218,11.218,0,0,0-.679-2.057,24.127,24.127,0,0,0-1.149-2.143h0.921a13.688,13.688,0,0,1,1.985,3.6,9.84,9.84,0,0,1-.189,6.984A13.105,13.105,0,0,1,173.149,184.3Z" transform="translate(-7.5 -8.005)"/><path class="cls-5" d="M177.513,181.222v-1.464h1.464v1.464a2.6,2.6,0,0,1-.286,1.3,1.859,1.859,0,0,1-.907.768l-0.357-.55a1.22,1.22,0,0,0,.6-0.525,2.244,2.244,0,0,0,.214-1h-0.729Z" transform="translate(-7.5 -8.005)"/><path class="cls-5" d="M39.146,199.4l1.25,0.186a1.192,1.192,0,0,0,.436.843,2.14,2.14,0,0,0,1.307.357,2.3,2.3,0,0,0,1.378-.357,1.758,1.758,0,0,0,.657-1,8.189,8.189,0,0,0,.093-1.65,2.644,2.644,0,0,1-2.1.993,2.862,2.862,0,0,1-2.421-1.128,4.344,4.344,0,0,1-.857-2.707,5.031,5.031,0,0,1,.393-2,3.143,3.143,0,0,1,1.139-1.418,3.078,3.078,0,0,1,1.753-.5,2.719,2.719,0,0,1,2.214,1.085v-0.914h1.186v6.556a6.221,6.221,0,0,1-.361,2.51,2.636,2.636,0,0,1-1.143,1.167,3.961,3.961,0,0,1-1.924.429,3.629,3.629,0,0,1-2.193-.611A2.066,2.066,0,0,1,39.146,199.4Zm1.064-4.556a3.288,3.288,0,0,0,.593,2.178,1.955,1.955,0,0,0,2.971,0,3.183,3.183,0,0,0,.6-2.139,3.11,3.11,0,0,0-.618-2.1,1.911,1.911,0,0,0-1.489-.707,1.854,1.854,0,0,0-1.457.7A3.092,3.092,0,0,0,40.21,194.845Z" transform="translate(-7.5 -8.005)"/><path class="cls-5" d="M47.5,198.773v-7.584h1.157v1.149a3.137,3.137,0,0,1,.817-1.064,1.427,1.427,0,0,1,.825-0.257,2.508,2.508,0,0,1,1.321.414l-0.443,1.192a1.839,1.839,0,0,0-.942-0.278,1.225,1.225,0,0,0-.757.253,1.371,1.371,0,0,0-.478.7,5,5,0,0,0-.214,1.5v3.971H47.5Z" transform="translate(-7.5 -8.005)"/><path class="cls-5" d="M51.908,194.981a3.91,3.91,0,0,1,1.171-3.121,3.53,3.53,0,0,1,2.385-.842,3.4,3.4,0,0,1,2.557,1.024,3.9,3.9,0,0,1,.993,2.832,5.014,5.014,0,0,1-.439,2.3,3.1,3.1,0,0,1-1.278,1.3,3.722,3.722,0,0,1-1.832.464,3.409,3.409,0,0,1-2.574-1.021A4.079,4.079,0,0,1,51.908,194.981Zm1.321,0a3.23,3.23,0,0,0,.636,2.182,2.117,2.117,0,0,0,3.192,0,3.31,3.31,0,0,0,.635-2.221,3.133,3.133,0,0,0-.639-2.132,2.119,2.119,0,0,0-3.188,0A3.216,3.216,0,0,0,53.229,194.981Z" transform="translate(-7.5 -8.005)"/><path class="cls-5" d="M61.92,198.773L59.6,191.189h1.328l1.207,4.377,0.45,1.628q0.029-.122.393-1.564l1.207-4.442H65.5l1.136,4.4,0.378,1.45,0.436-1.464,1.3-4.385H70l-2.371,7.584H66.3l-1.207-4.542L64.8,192.938l-1.535,5.834H61.92Z" transform="translate(-7.5 -8.005)"/><path class="cls-5" d="M71.089,189.782V188.3h1.286v1.478H71.089Zm0,8.991v-7.584h1.286v7.584H71.089Z" transform="translate(-7.5 -8.005)"/><path class="cls-5" d="M74.332,198.773v-7.584h1.157v1.078a2.726,2.726,0,0,1,2.414-1.25,3.171,3.171,0,0,1,1.261.246,1.987,1.987,0,0,1,.86.646,2.48,2.48,0,0,1,.4.95,7.4,7.4,0,0,1,.071,1.25v4.663H79.209V194.16a3.473,3.473,0,0,0-.15-1.175,1.239,1.239,0,0,0-.532-0.621,1.693,1.693,0,0,0-.9-0.232,2.082,2.082,0,0,0-1.417.521,2.572,2.572,0,0,0-.6,1.978v4.142H74.332Z" transform="translate(-7.5 -8.005)"/><path class="cls-5" d="M82.23,199.4l1.25,0.186a1.192,1.192,0,0,0,.436.843,2.14,2.14,0,0,0,1.307.357,2.3,2.3,0,0,0,1.378-.357,1.758,1.758,0,0,0,.657-1,8.189,8.189,0,0,0,.093-1.65,2.644,2.644,0,0,1-2.1.993,2.862,2.862,0,0,1-2.421-1.128,4.344,4.344,0,0,1-.857-2.707,5.031,5.031,0,0,1,.393-2,3.143,3.143,0,0,1,1.139-1.418,3.078,3.078,0,0,1,1.753-.5,2.719,2.719,0,0,1,2.214,1.085v-0.914h1.186v6.556a6.221,6.221,0,0,1-.361,2.51,2.636,2.636,0,0,1-1.143,1.167,3.961,3.961,0,0,1-1.924.429,3.629,3.629,0,0,1-2.193-.611A2.066,2.066,0,0,1,82.23,199.4Zm1.064-4.556a3.288,3.288,0,0,0,.593,2.178,1.955,1.955,0,0,0,2.971,0,3.183,3.183,0,0,0,.6-2.139,3.11,3.11,0,0,0-.618-2.1,1.911,1.911,0,0,0-1.489-.707,1.854,1.854,0,0,0-1.457.7A3.092,3.092,0,0,0,83.294,194.845Z" transform="translate(-7.5 -8.005)"/><path class="cls-5" d="M94.185,194.981a3.91,3.91,0,0,1,1.171-3.121,3.53,3.53,0,0,1,2.385-.842,3.4,3.4,0,0,1,2.557,1.024,3.9,3.9,0,0,1,.993,2.832,5.014,5.014,0,0,1-.439,2.3,3.1,3.1,0,0,1-1.278,1.3,3.722,3.722,0,0,1-1.832.464,3.409,3.409,0,0,1-2.574-1.021A4.079,4.079,0,0,1,94.185,194.981Zm1.321,0a3.23,3.23,0,0,0,.636,2.182,2.117,2.117,0,0,0,3.192,0,3.31,3.31,0,0,0,.635-2.221,3.133,3.133,0,0,0-.639-2.132,2.119,2.119,0,0,0-3.188,0A3.216,3.216,0,0,0,95.505,194.981Z" transform="translate(-7.5 -8.005)"/><path class="cls-5" d="M102.8,198.773v-7.584h1.157v1.078a2.726,2.726,0,0,1,2.414-1.25,3.171,3.171,0,0,1,1.261.246,1.987,1.987,0,0,1,.86.646,2.48,2.48,0,0,1,.4.95,7.4,7.4,0,0,1,.071,1.25v4.663h-1.285V194.16a3.473,3.473,0,0,0-.15-1.175,1.239,1.239,0,0,0-.532-0.621,1.693,1.693,0,0,0-.9-0.232,2.082,2.082,0,0,0-1.417.521,2.572,2.572,0,0,0-.6,1.978v4.142H102.8Z" transform="translate(-7.5 -8.005)"/><path class="cls-5" d="M115,189.782V188.3h1.286v1.478H115Zm0,8.991v-7.584h1.286v7.584H115Z" transform="translate(-7.5 -8.005)"/><path class="cls-5" d="M121.05,197.623l0.186,1.136a4.776,4.776,0,0,1-.972.114,2.2,2.2,0,0,1-1.085-.222,1.237,1.237,0,0,1-.542-0.582,4.593,4.593,0,0,1-.157-1.518v-4.363h-0.942v-1h0.942v-1.878l1.278-.771v2.649h1.292v1h-1.292v4.435a2.235,2.235,0,0,0,.068.707,0.539,0.539,0,0,0,.221.25,0.86,0.86,0,0,0,.439.093A4.133,4.133,0,0,0,121.05,197.623Z" transform="translate(-7.5 -8.005)"/><path class="cls-5" d="M128.827,201.851a12.855,12.855,0,0,1-1.8-3.143,9.863,9.863,0,0,1-.186-6.984,13.674,13.674,0,0,1,1.985-3.6h0.921q-0.864,1.485-1.143,2.121a11.581,11.581,0,0,0-.686,2.057,11.957,11.957,0,0,0-.307,2.685,12.891,12.891,0,0,0,2.135,6.863h-0.921Z" transform="translate(-7.5 -8.005)"/><path class="cls-5" d="M136.19,196l1.264,0.164a3.279,3.279,0,0,1-1.061,2.046,3.09,3.09,0,0,1-2.1.739,3.256,3.256,0,0,1-2.5-1.018,4.13,4.13,0,0,1-.946-2.917,5.277,5.277,0,0,1,.407-2.149,2.835,2.835,0,0,1,1.239-1.382,3.676,3.676,0,0,1,1.811-.46,3.148,3.148,0,0,1,2.021.625,2.867,2.867,0,0,1,1.007,1.775l-1.25.193a2.078,2.078,0,0,0-.632-1.15,1.636,1.636,0,0,0-1.1-.386,2,2,0,0,0-1.578.7,3.305,3.305,0,0,0-.607,2.2,3.416,3.416,0,0,0,.585,2.221,1.9,1.9,0,0,0,1.528.692,1.8,1.8,0,0,0,1.264-.464A2.3,2.3,0,0,0,136.19,196Z" transform="translate(-7.5 -8.005)"/><path class="cls-5" d="M138.54,198.773v-7.584H139.7v1.149a3.137,3.137,0,0,1,.817-1.064,1.427,1.427,0,0,1,.825-0.257,2.508,2.508,0,0,1,1.321.414l-0.443,1.192a1.839,1.839,0,0,0-.942-0.278,1.225,1.225,0,0,0-.757.253,1.371,1.371,0,0,0-.478.7,5,5,0,0,0-.214,1.5v3.971H138.54Z" transform="translate(-7.5 -8.005)"/><path class="cls-5" d="M142.946,194.981a3.91,3.91,0,0,1,1.171-3.121,3.53,3.53,0,0,1,2.385-.842,3.4,3.4,0,0,1,2.557,1.024,3.9,3.9,0,0,1,.993,2.832,5.014,5.014,0,0,1-.439,2.3,3.1,3.1,0,0,1-1.278,1.3,3.722,3.722,0,0,1-1.832.464,3.409,3.409,0,0,1-2.574-1.021A4.079,4.079,0,0,1,142.946,194.981Zm1.321,0a3.23,3.23,0,0,0,.636,2.182,2.117,2.117,0,0,0,3.192,0,3.31,3.31,0,0,0,.635-2.221,3.133,3.133,0,0,0-.639-2.132,2.119,2.119,0,0,0-3.188,0A3.216,3.216,0,0,0,144.267,194.981Z" transform="translate(-7.5 -8.005)"/><path class="cls-5" d="M151.558,201.68V191.189h1.171v0.985a2.883,2.883,0,0,1,.936-0.868,2.571,2.571,0,0,1,1.264-.289,3,3,0,0,1,1.714.5,3.071,3.071,0,0,1,1.121,1.411,5.148,5.148,0,0,1,.378,2,5.071,5.071,0,0,1-.417,2.1,3.153,3.153,0,0,1-1.214,1.429,3.119,3.119,0,0,1-1.674.5,2.415,2.415,0,0,1-1.153-.271,2.614,2.614,0,0,1-.839-0.686v3.692h-1.286Zm1.164-6.656a3.3,3.3,0,0,0,.593,2.164,1.817,1.817,0,0,0,1.436.7,1.858,1.858,0,0,0,1.468-.725,3.441,3.441,0,0,0,.61-2.246,3.351,3.351,0,0,0-.6-2.171,1.8,1.8,0,0,0-1.425-.721,1.851,1.851,0,0,0-1.453.768A3.435,3.435,0,0,0,152.722,195.024Z" transform="translate(-7.5 -8.005)"/><path class="cls-5" d="M160.535,201.851h-0.921a12.891,12.891,0,0,0,2.135-6.863,11.735,11.735,0,0,0-.307-2.664,11.218,11.218,0,0,0-.679-2.057,24.127,24.127,0,0,0-1.149-2.143h0.921a13.688,13.688,0,0,1,1.985,3.6,9.84,9.84,0,0,1-.189,6.984A13.105,13.105,0,0,1,160.535,201.851Z" transform="translate(-7.5 -8.005)"/><path class="cls-5" d="M164.9,198.773v-1.464h1.464v1.464a2.6,2.6,0,0,1-.286,1.3,1.859,1.859,0,0,1-.907.768l-0.357-.55a1.22,1.22,0,0,0,.6-0.525,2.244,2.244,0,0,0,.214-1H164.9Z" transform="translate(-7.5 -8.005)"/><path class="cls-5" d="M34.969,212.532a3.91,3.91,0,0,1,1.171-3.121,3.53,3.53,0,0,1,2.385-.842,3.4,3.4,0,0,1,2.557,1.024,3.9,3.9,0,0,1,.993,2.832,5.014,5.014,0,0,1-.439,2.3,3.1,3.1,0,0,1-1.278,1.3,3.722,3.722,0,0,1-1.832.464,3.409,3.409,0,0,1-2.574-1.021A4.079,4.079,0,0,1,34.969,212.532Zm1.321,0a3.23,3.23,0,0,0,.636,2.182,2.117,2.117,0,0,0,3.192,0,3.31,3.31,0,0,0,.635-2.221,3.133,3.133,0,0,0-.639-2.132,2.119,2.119,0,0,0-3.188,0A3.216,3.216,0,0,0,36.29,212.532Z" transform="translate(-7.5 -8.005)"/><path class="cls-5" d="M43.566,216.324V208.74h1.157v1.149a3.137,3.137,0,0,1,.817-1.064,1.427,1.427,0,0,1,.825-0.257,2.508,2.508,0,0,1,1.321.414l-0.443,1.192A1.839,1.839,0,0,0,46.3,209.9a1.225,1.225,0,0,0-.757.253,1.371,1.371,0,0,0-.478.7,5,5,0,0,0-.214,1.5v3.971H43.566Z" transform="translate(-7.5 -8.005)"/><path class="cls-5" d="M57.464,215.388a4.786,4.786,0,0,1-1.375.857,3.977,3.977,0,0,1-1.418.25,2.758,2.758,0,0,1-1.921-.61,2.015,2.015,0,0,1-.671-1.561,2.075,2.075,0,0,1,.253-1.018A2.1,2.1,0,0,1,53,212.567a3.123,3.123,0,0,1,.925-0.421,9.227,9.227,0,0,1,1.143-.193,11.741,11.741,0,0,0,2.292-.443q0.007-.264.007-0.335A1.418,1.418,0,0,0,57,210.068a2.15,2.15,0,0,0-1.464-.436,2.27,2.27,0,0,0-1.339.318,1.94,1.94,0,0,0-.639,1.125L52.3,210.9a3.119,3.119,0,0,1,.564-1.3A2.471,2.471,0,0,1,54,208.836a5.058,5.058,0,0,1,1.721-.268,4.558,4.558,0,0,1,1.579.229,2.081,2.081,0,0,1,.893.575,2.022,2.022,0,0,1,.4.875,7.229,7.229,0,0,1,.064,1.186v1.714a18.066,18.066,0,0,0,.083,2.267,2.852,2.852,0,0,0,.325.911H57.721A2.726,2.726,0,0,1,57.464,215.388Zm-0.107-2.871a9.438,9.438,0,0,1-2.1.485,4.857,4.857,0,0,0-1.122.257,1.12,1.12,0,0,0-.507.417,1.136,1.136,0,0,0,.21,1.468,1.675,1.675,0,0,0,1.139.343,2.65,2.65,0,0,0,1.321-.325,2,2,0,0,0,.85-0.889,3.1,3.1,0,0,0,.208-1.285v-0.471Z" transform="translate(-7.5 -8.005)"/><path class="cls-5" d="M60.956,216.324v-6.584H59.82v-1h1.135v-0.807a3.536,3.536,0,0,1,.136-1.135,1.645,1.645,0,0,1,.653-0.811,2.353,2.353,0,0,1,1.311-.311,6.275,6.275,0,0,1,1.2.129l-0.193,1.121a4.286,4.286,0,0,0-.757-0.071,1.126,1.126,0,0,0-.828.25,1.354,1.354,0,0,0-.243.936v0.7h1.479v1H62.234v6.584H60.956Z" transform="translate(-7.5 -8.005)"/><path class="cls-5" d="M64.755,216.324v-6.584H63.62v-1h1.135v-0.807a3.536,3.536,0,0,1,.136-1.135,1.645,1.645,0,0,1,.653-0.811,2.353,2.353,0,0,1,1.311-.311,6.275,6.275,0,0,1,1.2.129l-0.193,1.121a4.286,4.286,0,0,0-.757-0.071,1.126,1.126,0,0,0-.828.25,1.354,1.354,0,0,0-.243.936v0.7h1.479v1H66.033v6.584H64.755Z" transform="translate(-7.5 -8.005)"/><path class="cls-5" d="M68.519,207.333v-1.478H69.8v1.478H68.519Zm0,8.991V208.74H69.8v7.584H68.519Z" transform="translate(-7.5 -8.005)"/><path class="cls-5" d="M70.9,216.324l2.771-3.942-2.563-3.642h1.606l1.164,1.778q0.329,0.508.529,0.85,0.313-.472.578-0.835l1.278-1.792H77.8l-2.621,3.57L78,216.324H76.424l-1.557-2.356-0.415-.636-1.992,2.992H70.9Z" transform="translate(-7.5 -8.005)"/><path class="cls-5" d="M84.266,213.881l1.329,0.164a3.245,3.245,0,0,1-1.164,1.807,3.5,3.5,0,0,1-2.171.643,3.468,3.468,0,0,1-2.639-1.025,4,4,0,0,1-.975-2.875,4.192,4.192,0,0,1,.985-2.971,3.336,3.336,0,0,1,2.557-1.057,3.243,3.243,0,0,1,2.485,1.035,4.116,4.116,0,0,1,.964,2.914q0,0.114-.007.343H79.974a2.915,2.915,0,0,0,.707,1.914,2.1,2.1,0,0,0,1.585.664,1.968,1.968,0,0,0,1.207-.371A2.467,2.467,0,0,0,84.266,213.881Zm-4.22-2.078H84.28a2.572,2.572,0,0,0-.485-1.436,1.971,1.971,0,0,0-1.593-.743,2.042,2.042,0,0,0-1.489.593A2.345,2.345,0,0,0,80.045,211.8Z" transform="translate(-7.5 -8.005)"/><path class="cls-5" d="M92.128,216.324v-0.957a2.358,2.358,0,0,1-2.121,1.128,2.971,2.971,0,0,1-1.667-.5,3.285,3.285,0,0,1-1.179-1.4,4.829,4.829,0,0,1-.417-2.061,5.39,5.39,0,0,1,.378-2.06,2.987,2.987,0,0,1,1.135-1.417,3.036,3.036,0,0,1,1.693-.493,2.528,2.528,0,0,1,2.092,1.042v-3.756h1.278v10.469H92.128Zm-4.063-3.785a3.294,3.294,0,0,0,.614,2.178,1.852,1.852,0,0,0,1.45.721,1.818,1.818,0,0,0,1.432-.689,3.179,3.179,0,0,0,.589-2.1,3.566,3.566,0,0,0-.6-2.285,1.845,1.845,0,0,0-1.479-.729,1.781,1.781,0,0,0-1.432.7A3.454,3.454,0,0,0,88.065,212.539Z" transform="translate(-7.5 -8.005)"/><path class="cls-5" d="M102.211,215.174l0.186,1.136a4.776,4.776,0,0,1-.972.114,2.2,2.2,0,0,1-1.085-.222,1.237,1.237,0,0,1-.542-0.582,4.593,4.593,0,0,1-.157-1.518v-4.363H98.7v-1h0.942v-1.878l1.278-.771v2.649h1.292v1h-1.292v4.435a2.235,2.235,0,0,0,.068.707,0.539,0.539,0,0,0,.221.25,0.86,0.86,0,0,0,.439.093A4.133,4.133,0,0,0,102.211,215.174Z" transform="translate(-7.5 -8.005)"/><path class="cls-5" d="M102.99,212.532a3.91,3.91,0,0,1,1.171-3.121,3.53,3.53,0,0,1,2.385-.842,3.4,3.4,0,0,1,2.557,1.024,3.9,3.9,0,0,1,.993,2.832,5.014,5.014,0,0,1-.439,2.3,3.1,3.1,0,0,1-1.278,1.3,3.722,3.722,0,0,1-1.832.464,3.409,3.409,0,0,1-2.574-1.021A4.079,4.079,0,0,1,102.99,212.532Zm1.321,0a3.23,3.23,0,0,0,.636,2.182,2.117,2.117,0,0,0,3.192,0,3.31,3.31,0,0,0,.635-2.221,3.133,3.133,0,0,0-.639-2.132,2.119,2.119,0,0,0-3.188,0A3.216,3.216,0,0,0,104.311,212.532Z" transform="translate(-7.5 -8.005)"/><path class="cls-5" d="M115.673,207.333v-1.478h1.286v1.478h-1.286Zm0,8.991V208.74h1.286v7.584h-1.286Z" transform="translate(-7.5 -8.005)"/><path class="cls-5" d="M121.722,215.174l0.186,1.136a4.776,4.776,0,0,1-.972.114,2.2,2.2,0,0,1-1.085-.222,1.237,1.237,0,0,1-.542-0.582,4.593,4.593,0,0,1-.157-1.518v-4.363h-0.942v-1h0.942v-1.878l1.278-.771v2.649h1.292v1h-1.292v4.435a2.235,2.235,0,0,0,.068.707,0.539,0.539,0,0,0,.221.25,0.86,0.86,0,0,0,.439.093A4.133,4.133,0,0,0,121.722,215.174Z" transform="translate(-7.5 -8.005)"/><path class="cls-5" d="M129.5,219.4a12.855,12.855,0,0,1-1.8-3.143,9.863,9.863,0,0,1-.186-6.984,13.674,13.674,0,0,1,1.985-3.6h0.921q-0.864,1.485-1.143,2.121a11.581,11.581,0,0,0-.686,2.057,11.957,11.957,0,0,0-.307,2.685,12.891,12.891,0,0,0,2.135,6.863H129.5Z" transform="translate(-7.5 -8.005)"/><path class="cls-5" d="M132.22,216.324v-6.584h-1.135v-1h1.135v-0.807a3.536,3.536,0,0,1,.136-1.135,1.645,1.645,0,0,1,.653-0.811,2.353,2.353,0,0,1,1.311-.311,6.275,6.275,0,0,1,1.2.129l-0.193,1.121a4.286,4.286,0,0,0-.757-0.071,1.126,1.126,0,0,0-.828.25,1.354,1.354,0,0,0-.243.936v0.7h1.479v1H133.5v6.584H132.22Z" transform="translate(-7.5 -8.005)"/><path class="cls-5" d="M141.168,213.881l1.329,0.164a3.245,3.245,0,0,1-1.164,1.807,3.5,3.5,0,0,1-2.171.643,3.468,3.468,0,0,1-2.639-1.025,4,4,0,0,1-.975-2.875,4.192,4.192,0,0,1,.985-2.971,3.336,3.336,0,0,1,2.557-1.057,3.243,3.243,0,0,1,2.485,1.035,4.116,4.116,0,0,1,.964,2.914q0,0.114-.007.343h-5.656a2.915,2.915,0,0,0,.707,1.914,2.1,2.1,0,0,0,1.585.664,1.968,1.968,0,0,0,1.207-.371A2.467,2.467,0,0,0,141.168,213.881Zm-4.22-2.078h4.234a2.572,2.572,0,0,0-.485-1.436,1.971,1.971,0,0,0-1.593-.743,2.042,2.042,0,0,0-1.489.593A2.345,2.345,0,0,0,136.948,211.8Z" transform="translate(-7.5 -8.005)"/><path class="cls-5" d="M144.11,216.324V208.74h1.157v1.078a2.726,2.726,0,0,1,2.414-1.25,3.171,3.171,0,0,1,1.261.246,1.987,1.987,0,0,1,.86.646,2.48,2.48,0,0,1,.4.95,7.4,7.4,0,0,1,.071,1.25v4.663h-1.285V211.71a3.473,3.473,0,0,0-.15-1.175,1.239,1.239,0,0,0-.532-0.621,1.693,1.693,0,0,0-.9-0.232,2.082,2.082,0,0,0-1.417.521,2.572,2.572,0,0,0-.6,1.978v4.142H144.11Z" transform="translate(-7.5 -8.005)"/><path class="cls-5" d="M157.193,213.546l1.264,0.164a3.279,3.279,0,0,1-1.061,2.046,3.09,3.09,0,0,1-2.1.739,3.256,3.256,0,0,1-2.5-1.018,4.13,4.13,0,0,1-.946-2.917,5.277,5.277,0,0,1,.407-2.149,2.835,2.835,0,0,1,1.239-1.382,3.676,3.676,0,0,1,1.811-.46,3.148,3.148,0,0,1,2.021.625,2.867,2.867,0,0,1,1.007,1.775l-1.25.193a2.078,2.078,0,0,0-.632-1.15,1.636,1.636,0,0,0-1.1-.386,2,2,0,0,0-1.578.7,3.305,3.305,0,0,0-.607,2.2,3.416,3.416,0,0,0,.585,2.221,1.9,1.9,0,0,0,1.528.692,1.8,1.8,0,0,0,1.264-.464A2.3,2.3,0,0,0,157.193,213.546Z" transform="translate(-7.5 -8.005)"/><path class="cls-5" d="M164.749,213.881l1.329,0.164a3.245,3.245,0,0,1-1.164,1.807,3.5,3.5,0,0,1-2.171.643,3.468,3.468,0,0,1-2.639-1.025,4,4,0,0,1-.975-2.875,4.192,4.192,0,0,1,.985-2.971,3.336,3.336,0,0,1,2.557-1.057,3.243,3.243,0,0,1,2.485,1.035,4.116,4.116,0,0,1,.964,2.914q0,0.114-.007.343h-5.656a2.915,2.915,0,0,0,.707,1.914,2.1,2.1,0,0,0,1.585.664,1.968,1.968,0,0,0,1.207-.371A2.467,2.467,0,0,0,164.749,213.881Zm-4.22-2.078h4.234a2.572,2.572,0,0,0-.485-1.436,1.971,1.971,0,0,0-1.593-.743,2.042,2.042,0,0,0-1.489.593A2.345,2.345,0,0,0,160.528,211.8Z" transform="translate(-7.5 -8.005)"/><path class="cls-5" d="M168.533,219.4h-0.921a12.891,12.891,0,0,0,2.135-6.863,11.735,11.735,0,0,0-.307-2.664,11.218,11.218,0,0,0-.679-2.057,24.127,24.127,0,0,0-1.149-2.143h0.921a13.688,13.688,0,0,1,1.985,3.6,9.84,9.84,0,0,1-.189,6.984A13.105,13.105,0,0,1,168.533,219.4Z" transform="translate(-7.5 -8.005)"/><path class="cls-4" d="M445.03,128.608V118.139h3.392a12.282,12.282,0,0,1,2.514.157,2.74,2.74,0,0,1,1.507,1.024,3.248,3.248,0,0,1,.607,2.039,3.426,3.426,0,0,1-.35,1.621,2.869,2.869,0,0,1-.89,1.032,3.065,3.065,0,0,1-1.1.5,12.065,12.065,0,0,1-2.192.15h-1.379v3.949H445.03Zm2.113-8.7v2.971H448.3a5.473,5.473,0,0,0,1.671-.164,1.382,1.382,0,0,0,.66-0.514,1.4,1.4,0,0,0,.239-0.814,1.353,1.353,0,0,0-.335-0.943,1.462,1.462,0,0,0-.85-0.464,10.213,10.213,0,0,0-1.521-.071h-1.021Z" transform="translate(-7.5 -8.005)"/><path class="cls-4" d="M459.162,126.195l2,0.335a3.278,3.278,0,0,1-1.218,1.675,3.578,3.578,0,0,1-2.082.575,3.393,3.393,0,0,1-2.928-1.292,4.342,4.342,0,0,1-.75-2.614,4.192,4.192,0,0,1,.985-2.953,3.248,3.248,0,0,1,2.493-1.067,3.367,3.367,0,0,1,2.671,1.118,4.951,4.951,0,0,1,.936,3.424h-5.028a2.031,2.031,0,0,0,.486,1.389,1.517,1.517,0,0,0,1.156.5,1.229,1.229,0,0,0,.793-0.257A1.588,1.588,0,0,0,459.162,126.195Zm0.114-2.028a1.931,1.931,0,0,0-.449-1.325,1.449,1.449,0,0,0-2.129.025,1.853,1.853,0,0,0-.421,1.3h3Z" transform="translate(-7.5 -8.005)"/><path class="cls-4" d="M464.825,128.608h-2.007v-7.584h1.864V122.1a3.235,3.235,0,0,1,.86-1.007,1.586,1.586,0,0,1,.868-0.243,2.543,2.543,0,0,1,1.32.378l-0.621,1.75a1.763,1.763,0,0,0-.942-0.329,1.111,1.111,0,0,0-.714.232,1.583,1.583,0,0,0-.461.839,11.891,11.891,0,0,0-.168,2.542v2.342Z" transform="translate(-7.5 -8.005)"/><path class="cls-4" d="M467.889,126.444l2.014-.307a1.477,1.477,0,0,0,.521.889,1.76,1.76,0,0,0,1.1.3,1.988,1.988,0,0,0,1.172-.286,0.638,0.638,0,0,0,.264-0.536,0.529,0.529,0,0,0-.143-0.378,1.607,1.607,0,0,0-.672-0.264,10.8,10.8,0,0,1-3.077-.979,1.953,1.953,0,0,1-.9-1.707,2.105,2.105,0,0,1,.778-1.657,3.639,3.639,0,0,1,2.414-.671,4.209,4.209,0,0,1,2.313.507,2.592,2.592,0,0,1,1.043,1.5l-1.893.35a1.168,1.168,0,0,0-.461-0.678,1.679,1.679,0,0,0-.967-0.236,2.181,2.181,0,0,0-1.136.221,0.476,0.476,0,0,0-.229.407,0.442,0.442,0,0,0,.2.364,7.522,7.522,0,0,0,1.874.564,5.582,5.582,0,0,1,2.239.893,1.854,1.854,0,0,1,.628,1.492,2.289,2.289,0,0,1-.871,1.792,3.857,3.857,0,0,1-2.578.75,4.231,4.231,0,0,1-2.453-.628A2.893,2.893,0,0,1,467.889,126.444Z" transform="translate(-7.5 -8.005)"/><path class="cls-4" d="M476.266,124.709a4.1,4.1,0,0,1,.492-1.935,3.386,3.386,0,0,1,1.4-1.428,4.142,4.142,0,0,1,2.018-.493,3.785,3.785,0,0,1,2.82,1.118,3.86,3.86,0,0,1,1.1,2.824,3.907,3.907,0,0,1-1.11,2.853,3.753,3.753,0,0,1-2.8,1.132,4.407,4.407,0,0,1-1.988-.471,3.239,3.239,0,0,1-1.439-1.382A4.609,4.609,0,0,1,476.266,124.709Zm2.057,0.107a2.515,2.515,0,0,0,.535,1.728,1.75,1.75,0,0,0,2.639,0,2.547,2.547,0,0,0,.532-1.742,2.5,2.5,0,0,0-.532-1.714,1.751,1.751,0,0,0-2.639,0A2.516,2.516,0,0,0,478.322,124.816Z" transform="translate(-7.5 -8.005)"/><path class="cls-4" d="M492.562,128.608h-2.007v-3.871a6.023,6.023,0,0,0-.128-1.589,1.119,1.119,0,0,0-.418-0.561,1.2,1.2,0,0,0-.7-0.2,1.609,1.609,0,0,0-.936.286,1.441,1.441,0,0,0-.568.757,6.585,6.585,0,0,0-.153,1.743v3.435h-2.007v-7.584h1.864v1.114a3.109,3.109,0,0,1,3.714-1.046,2.037,2.037,0,0,1,.832.61,2.225,2.225,0,0,1,.393.843,6.306,6.306,0,0,1,.11,1.35v4.713Z" transform="translate(-7.5 -8.005)"/><path class="cls-4" d="M496.1,123.338l-1.821-.328a2.833,2.833,0,0,1,1.057-1.628,3.872,3.872,0,0,1,2.229-.528,4.8,4.8,0,0,1,2,.318,1.985,1.985,0,0,1,.925.807,4.134,4.134,0,0,1,.269,1.8l-0.021,2.342a8.219,8.219,0,0,0,.1,1.475,4.292,4.292,0,0,0,.361,1.018H499.2q-0.079-.2-0.193-0.593c-0.033-.119-0.057-0.2-0.071-0.236a3.608,3.608,0,0,1-1.1.75,3.152,3.152,0,0,1-1.25.25,2.584,2.584,0,0,1-1.846-.636,2.11,2.11,0,0,1-.675-1.606,2.163,2.163,0,0,1,.307-1.146,2.011,2.011,0,0,1,.86-0.771,6.722,6.722,0,0,1,1.6-.468,10.937,10.937,0,0,0,1.949-.493v-0.2a1.038,1.038,0,0,0-.285-0.825,1.709,1.709,0,0,0-1.078-.247,1.436,1.436,0,0,0-.836.211A1.456,1.456,0,0,0,496.1,123.338Zm2.685,1.628q-0.385.128-1.221,0.307a3.67,3.67,0,0,0-1.093.35,0.836,0.836,0,0,0-.393.707,0.985,0.985,0,0,0,.313.729,1.1,1.1,0,0,0,.8.307,1.738,1.738,0,0,0,1.035-.357,1.262,1.262,0,0,0,.479-0.664,4,4,0,0,0,.078-0.979v-0.4Z" transform="translate(-7.5 -8.005)"/><path class="cls-4" d="M502.73,128.608V118.139h2.007v10.469H502.73Z" transform="translate(-7.5 -8.005)"/><path class="cls-4" d="M510.872,128.608V118.139h3.392a12.282,12.282,0,0,1,2.514.157,2.74,2.74,0,0,1,1.507,1.024,3.248,3.248,0,0,1,.607,2.039,3.426,3.426,0,0,1-.35,1.621,2.869,2.869,0,0,1-.89,1.032,3.065,3.065,0,0,1-1.1.5,12.065,12.065,0,0,1-2.192.15h-1.379v3.949h-2.113Zm2.113-8.7v2.971h1.157a5.473,5.473,0,0,0,1.671-.164,1.382,1.382,0,0,0,.66-0.514,1.4,1.4,0,0,0,.239-0.814,1.353,1.353,0,0,0-.335-0.943,1.462,1.462,0,0,0-.85-0.464,10.213,10.213,0,0,0-1.521-.071h-1.021Z" transform="translate(-7.5 -8.005)"/><path class="cls-4" d="M522.533,128.608h-2.007v-7.584h1.864V122.1a3.235,3.235,0,0,1,.86-1.007,1.586,1.586,0,0,1,.868-0.243,2.543,2.543,0,0,1,1.32.378l-0.621,1.75a1.763,1.763,0,0,0-.942-0.329,1.111,1.111,0,0,0-.714.232,1.583,1.583,0,0,0-.461.839,11.891,11.891,0,0,0-.168,2.542v2.342Z" transform="translate(-7.5 -8.005)"/><path class="cls-4" d="M525.84,124.709a4.1,4.1,0,0,1,.492-1.935,3.386,3.386,0,0,1,1.4-1.428,4.142,4.142,0,0,1,2.018-.493,3.785,3.785,0,0,1,2.82,1.118,3.86,3.86,0,0,1,1.1,2.824,3.907,3.907,0,0,1-1.11,2.853,3.753,3.753,0,0,1-2.8,1.132,4.407,4.407,0,0,1-1.988-.471,3.239,3.239,0,0,1-1.439-1.382A4.609,4.609,0,0,1,525.84,124.709Zm2.057,0.107a2.515,2.515,0,0,0,.535,1.728,1.75,1.75,0,0,0,2.639,0,2.547,2.547,0,0,0,.532-1.742,2.5,2.5,0,0,0-.532-1.714,1.751,1.751,0,0,0-2.639,0A2.516,2.516,0,0,0,527.9,124.816Z" transform="translate(-7.5 -8.005)"/><path class="cls-4" d="M535.18,121.024h1.871v1.114a2.8,2.8,0,0,1,.986-0.928,2.717,2.717,0,0,1,1.378-.357,2.892,2.892,0,0,1,2.242,1.035,4.192,4.192,0,0,1,.922,2.885,4.317,4.317,0,0,1-.929,2.953,2.894,2.894,0,0,1-2.25,1.053,2.554,2.554,0,0,1-1.139-.25,3.828,3.828,0,0,1-1.075-.857v3.821H535.18V121.024Zm1.985,3.664a2.916,2.916,0,0,0,.508,1.889,1.549,1.549,0,0,0,1.235.611,1.451,1.451,0,0,0,1.164-.561,2.887,2.887,0,0,0,.464-1.839,2.739,2.739,0,0,0-.479-1.771,1.48,1.48,0,0,0-1.186-.578,1.538,1.538,0,0,0-1.221.567A2.525,2.525,0,0,0,537.165,124.688Z" transform="translate(-7.5 -8.005)"/><path class="cls-4" d="M548.563,126.195l2,0.335a3.278,3.278,0,0,1-1.218,1.675,3.578,3.578,0,0,1-2.082.575,3.393,3.393,0,0,1-2.928-1.292,4.342,4.342,0,0,1-.75-2.614,4.192,4.192,0,0,1,.985-2.953,3.248,3.248,0,0,1,2.493-1.067,3.367,3.367,0,0,1,2.671,1.118,4.951,4.951,0,0,1,.936,3.424h-5.028a2.031,2.031,0,0,0,.486,1.389,1.517,1.517,0,0,0,1.156.5,1.229,1.229,0,0,0,.793-0.257A1.588,1.588,0,0,0,548.563,126.195Zm0.114-2.028a1.931,1.931,0,0,0-.449-1.325,1.449,1.449,0,0,0-2.129.025,1.853,1.853,0,0,0-.421,1.3h3Z" transform="translate(-7.5 -8.005)"/><path class="cls-4" d="M554.226,128.608h-2.007v-7.584h1.864V122.1a3.235,3.235,0,0,1,.86-1.007,1.586,1.586,0,0,1,.868-0.243,2.543,2.543,0,0,1,1.32.378l-0.621,1.75a1.763,1.763,0,0,0-.942-0.329,1.111,1.111,0,0,0-.714.232,1.583,1.583,0,0,0-.461.839,11.891,11.891,0,0,0-.168,2.542v2.342Z" transform="translate(-7.5 -8.005)"/><path class="cls-4" d="M561.474,121.024v1.6H560.1v3.057a7.749,7.749,0,0,0,.039,1.082,0.443,0.443,0,0,0,.179.254,0.569,0.569,0,0,0,.34.1,2.587,2.587,0,0,0,.807-0.193l0.171,1.557a3.99,3.99,0,0,1-1.585.3,2.516,2.516,0,0,1-.979-0.182,1.429,1.429,0,0,1-.639-0.471,1.852,1.852,0,0,1-.282-0.782,9.7,9.7,0,0,1-.064-1.414v-3.306h-0.921v-1.6h0.921v-1.507l2.014-1.171v2.678h1.371Z" transform="translate(-7.5 -8.005)"/><path class="cls-4" d="M561.916,121.024h2.136l1.813,5.384,1.771-5.384h2.078l-2.678,7.3-0.479,1.321a5.456,5.456,0,0,1-.5,1.014,2.194,2.194,0,0,1-.55.567,2.4,2.4,0,0,1-.764.339,3.97,3.97,0,0,1-1.025.122,5.316,5.316,0,0,1-1.136-.122l-0.178-1.571a4.416,4.416,0,0,0,.85.093,1.259,1.259,0,0,0,1.035-.41,2.855,2.855,0,0,0,.515-1.046Z" transform="translate(-7.5 -8.005)"/><path class="cls-5" d="M434.989,163.709l4.021-10.469H440.5l4.284,10.469h-1.578l-1.221-3.171H437.61l-1.15,3.171h-1.471Zm3.021-4.3h3.55l-1.093-2.9q-0.5-1.321-.743-2.171a13.349,13.349,0,0,1-.563,2Z" transform="translate(-7.5 -8.005)"/><path class="cls-5" d="M445.7,163.709V153.24h1.285v10.469H445.7Z" transform="translate(-7.5 -8.005)"/><path class="cls-5" d="M448.95,163.709V153.24h1.285v10.469H448.95Z" transform="translate(-7.5 -8.005)"/><path class="cls-5" d="M456.291,166.616V156.125h1.172v0.985a2.885,2.885,0,0,1,.935-0.868,2.573,2.573,0,0,1,1.265-.289,3,3,0,0,1,1.714.5,3.068,3.068,0,0,1,1.121,1.411,5.157,5.157,0,0,1,.379,2,5.071,5.071,0,0,1-.418,2.1,3.174,3.174,0,0,1-2.889,1.925,2.414,2.414,0,0,1-1.153-.271,2.612,2.612,0,0,1-.839-0.686v3.692h-1.286Zm1.164-6.656a3.3,3.3,0,0,0,.593,2.164,1.818,1.818,0,0,0,1.436.7,1.858,1.858,0,0,0,1.468-.725,3.439,3.439,0,0,0,.61-2.246,3.351,3.351,0,0,0-.6-2.171,1.794,1.794,0,0,0-1.424-.721,1.853,1.853,0,0,0-1.454.768A3.438,3.438,0,0,0,457.455,159.96Z" transform="translate(-7.5 -8.005)"/><path class="cls-5" d="M464.411,163.709v-7.584h1.156v1.149a3.137,3.137,0,0,1,.818-1.064,1.426,1.426,0,0,1,.824-0.257,2.508,2.508,0,0,1,1.321.414l-0.442,1.192a1.843,1.843,0,0,0-.943-0.278,1.225,1.225,0,0,0-.757.253,1.378,1.378,0,0,0-.479.7,5.015,5.015,0,0,0-.214,1.5v3.971h-1.285Z" transform="translate(-7.5 -8.005)"/><path class="cls-5" d="M468.816,159.917a3.909,3.909,0,0,1,1.172-3.121,3.528,3.528,0,0,1,2.385-.842,3.4,3.4,0,0,1,2.557,1.024,3.9,3.9,0,0,1,.992,2.832,5.015,5.015,0,0,1-.438,2.3,3.106,3.106,0,0,1-1.278,1.3,3.721,3.721,0,0,1-1.832.464,3.409,3.409,0,0,1-2.574-1.021A4.077,4.077,0,0,1,468.816,159.917Zm1.321,0a3.23,3.23,0,0,0,.636,2.182,2.117,2.117,0,0,0,3.192,0,3.307,3.307,0,0,0,.636-2.221,3.136,3.136,0,0,0-.64-2.132,2.119,2.119,0,0,0-3.188,0A3.216,3.216,0,0,0,470.138,159.917Z" transform="translate(-7.5 -8.005)"/><path class="cls-5" d="M477.429,166.616V156.125H478.6v0.985a2.885,2.885,0,0,1,.935-0.868,2.573,2.573,0,0,1,1.265-.289,3,3,0,0,1,1.714.5,3.068,3.068,0,0,1,1.121,1.411,5.157,5.157,0,0,1,.379,2,5.071,5.071,0,0,1-.418,2.1,3.174,3.174,0,0,1-2.889,1.925,2.414,2.414,0,0,1-1.153-.271,2.612,2.612,0,0,1-.839-0.686v3.692h-1.286Zm1.164-6.656a3.3,3.3,0,0,0,.593,2.164,1.818,1.818,0,0,0,1.436.7,1.858,1.858,0,0,0,1.468-.725,3.439,3.439,0,0,0,.61-2.246,3.351,3.351,0,0,0-.6-2.171,1.794,1.794,0,0,0-1.424-.721,1.853,1.853,0,0,0-1.454.768A3.438,3.438,0,0,0,478.593,159.96Z" transform="translate(-7.5 -8.005)"/><path class="cls-5" d="M490.755,161.267l1.328,0.164a3.245,3.245,0,0,1-1.164,1.807,3.943,3.943,0,0,1-4.81-.382,4,4,0,0,1-.976-2.875,4.191,4.191,0,0,1,.986-2.971,3.334,3.334,0,0,1,2.557-1.057,3.242,3.242,0,0,1,2.484,1.035,4.111,4.111,0,0,1,.965,2.914c0,0.076,0,.19-0.008.343h-5.655a2.91,2.91,0,0,0,.707,1.914,2.1,2.1,0,0,0,1.585.664,1.966,1.966,0,0,0,1.207-.371A2.467,2.467,0,0,0,490.755,161.267Zm-4.221-2.078h4.234a2.568,2.568,0,0,0-.485-1.436,1.97,1.97,0,0,0-1.593-.743,2.04,2.04,0,0,0-1.488.593A2.343,2.343,0,0,0,486.534,159.189Z" transform="translate(-7.5 -8.005)"/><path class="cls-5" d="M493.683,163.709v-7.584h1.156v1.149a3.137,3.137,0,0,1,.818-1.064,1.426,1.426,0,0,1,.824-0.257,2.508,2.508,0,0,1,1.321.414l-0.442,1.192a1.843,1.843,0,0,0-.943-0.278,1.225,1.225,0,0,0-.757.253,1.378,1.378,0,0,0-.479.7,5.015,5.015,0,0,0-.214,1.5v3.971h-1.285Z" transform="translate(-7.5 -8.005)"/><path class="cls-5" d="M501.373,162.56l0.186,1.136a4.764,4.764,0,0,1-.971.114,2.2,2.2,0,0,1-1.086-.222,1.243,1.243,0,0,1-.543-0.582,4.616,4.616,0,0,1-.156-1.518v-4.363h-0.943v-1H498.8v-1.878l1.278-.771v2.649h1.292v1h-1.292v4.435a2.256,2.256,0,0,0,.067.707,0.535,0.535,0,0,0,.222.25,0.854,0.854,0,0,0,.438.093A4.126,4.126,0,0,0,501.373,162.56Z" transform="translate(-7.5 -8.005)"/><path class="cls-5" d="M502.573,166.63l-0.144-1.207a2.869,2.869,0,0,0,.736.114,1.414,1.414,0,0,0,.686-0.143,1.174,1.174,0,0,0,.421-0.4,6.3,6.3,0,0,0,.393-0.957q0.037-.107.114-0.314l-2.878-7.6h1.386l1.578,4.392q0.308,0.836.55,1.757a17.441,17.441,0,0,1,.528-1.728l1.621-4.42h1.286l-2.886,7.712a15.319,15.319,0,0,1-.721,1.721,2.534,2.534,0,0,1-.786.932,1.857,1.857,0,0,1-1.057.3A2.578,2.578,0,0,1,502.573,166.63Z" transform="translate(-7.5 -8.005)"/><path class="cls-5" d="M513.527,159.917A3.909,3.909,0,0,1,514.7,156.8a3.528,3.528,0,0,1,2.385-.842,3.4,3.4,0,0,1,2.557,1.024,3.9,3.9,0,0,1,.992,2.832,5.015,5.015,0,0,1-.438,2.3,3.106,3.106,0,0,1-1.278,1.3,3.721,3.721,0,0,1-1.832.464,3.409,3.409,0,0,1-2.574-1.021A4.077,4.077,0,0,1,513.527,159.917Zm1.321,0a3.23,3.23,0,0,0,.636,2.182,2.117,2.117,0,0,0,3.192,0,3.307,3.307,0,0,0,.636-2.221,3.136,3.136,0,0,0-.64-2.132,2.119,2.119,0,0,0-3.188,0A3.216,3.216,0,0,0,514.849,159.917Z" transform="translate(-7.5 -8.005)"/><path class="cls-5" d="M524.946,162.56l0.186,1.136a4.764,4.764,0,0,1-.971.114,2.2,2.2,0,0,1-1.086-.222,1.243,1.243,0,0,1-.543-0.582,4.616,4.616,0,0,1-.156-1.518v-4.363h-0.943v-1h0.943v-1.878l1.278-.771v2.649h1.292v1h-1.292v4.435a2.256,2.256,0,0,0,.067.707,0.535,0.535,0,0,0,.222.25,0.854,0.854,0,0,0,.438.093A4.126,4.126,0,0,0,524.946,162.56Z" transform="translate(-7.5 -8.005)"/><path class="cls-5" d="M526.2,163.709V153.24h1.286V157a2.871,2.871,0,0,1,2.271-1.042,3.059,3.059,0,0,1,1.464.332,1.952,1.952,0,0,1,.89.917,4.246,4.246,0,0,1,.268,1.7v4.806h-1.286V158.9a1.987,1.987,0,0,0-.417-1.4,1.555,1.555,0,0,0-1.183-.439,2.081,2.081,0,0,0-1.074.3,1.67,1.67,0,0,0-.718.8,3.7,3.7,0,0,0-.214,1.4v4.149H526.2Z" transform="translate(-7.5 -8.005)"/><path class="cls-5" d="M539.529,161.267l1.328,0.164a3.245,3.245,0,0,1-1.164,1.807,3.943,3.943,0,0,1-4.81-.382,4,4,0,0,1-.976-2.875,4.191,4.191,0,0,1,.986-2.971,3.334,3.334,0,0,1,2.557-1.057,3.242,3.242,0,0,1,2.484,1.035,4.111,4.111,0,0,1,.965,2.914c0,0.076,0,.19-0.008.343h-5.655a2.91,2.91,0,0,0,.707,1.914,2.1,2.1,0,0,0,1.585.664,1.966,1.966,0,0,0,1.207-.371A2.467,2.467,0,0,0,539.529,161.267Zm-4.221-2.078h4.234a2.568,2.568,0,0,0-.485-1.436,1.97,1.97,0,0,0-1.593-.743,2.04,2.04,0,0,0-1.488.593A2.343,2.343,0,0,0,535.309,159.189Z" transform="translate(-7.5 -8.005)"/><path class="cls-5" d="M542.457,163.709v-7.584h1.156v1.149a3.137,3.137,0,0,1,.818-1.064,1.426,1.426,0,0,1,.824-0.257,2.508,2.508,0,0,1,1.321.414l-0.442,1.192a1.843,1.843,0,0,0-.943-0.278,1.225,1.225,0,0,0-.757.253,1.378,1.378,0,0,0-.479.7,5.015,5.015,0,0,0-.214,1.5v3.971h-1.285Z" transform="translate(-7.5 -8.005)"/><path class="cls-5" d="M554.211,162.56L554.4,163.7a4.764,4.764,0,0,1-.971.114,2.2,2.2,0,0,1-1.086-.222,1.243,1.243,0,0,1-.543-0.582,4.616,4.616,0,0,1-.156-1.518v-4.363H550.7v-1h0.943v-1.878l1.278-.771v2.649h1.292v1h-1.292v4.435a2.256,2.256,0,0,0,.067.707,0.535,0.535,0,0,0,.222.25,0.854,0.854,0,0,0,.438.093A4.126,4.126,0,0,0,554.211,162.56Z" transform="translate(-7.5 -8.005)"/><path class="cls-5" d="M555.468,163.709V153.24h1.286V157a2.871,2.871,0,0,1,2.271-1.042,3.059,3.059,0,0,1,1.464.332,1.952,1.952,0,0,1,.89.917,4.246,4.246,0,0,1,.268,1.7v4.806h-1.286V158.9a1.987,1.987,0,0,0-.417-1.4,1.555,1.555,0,0,0-1.183-.439,2.081,2.081,0,0,0-1.074.3,1.67,1.67,0,0,0-.718.8,3.7,3.7,0,0,0-.214,1.4v4.149h-1.286Z" transform="translate(-7.5 -8.005)"/><path class="cls-5" d="M568.551,162.774a4.788,4.788,0,0,1-1.375.857,3.975,3.975,0,0,1-1.417.25,2.757,2.757,0,0,1-1.921-.61,2.014,2.014,0,0,1-.672-1.561,2.116,2.116,0,0,1,.918-1.757,3.123,3.123,0,0,1,.925-0.421,9.227,9.227,0,0,1,1.143-.193,11.719,11.719,0,0,0,2.292-.443c0-.176.008-0.288,0.008-0.335a1.422,1.422,0,0,0-.364-1.107,2.153,2.153,0,0,0-1.464-.436,2.271,2.271,0,0,0-1.34.318,1.94,1.94,0,0,0-.639,1.125l-1.257-.171a3.107,3.107,0,0,1,.564-1.3,2.47,2.47,0,0,1,1.135-.764,5.064,5.064,0,0,1,1.722-.268,4.557,4.557,0,0,1,1.578.229,2.081,2.081,0,0,1,.893.575,2.021,2.021,0,0,1,.4.875,7.213,7.213,0,0,1,.064,1.186v1.714a18.206,18.206,0,0,0,.082,2.267,2.853,2.853,0,0,0,.325.911h-1.343A2.737,2.737,0,0,1,568.551,162.774Zm-0.107-2.871a9.431,9.431,0,0,1-2.1.485,4.851,4.851,0,0,0-1.121.257,1.12,1.12,0,0,0-.507.417,1.136,1.136,0,0,0,.211,1.468,1.672,1.672,0,0,0,1.139.343,2.65,2.65,0,0,0,1.321-.325,2,2,0,0,0,.85-0.889,3.093,3.093,0,0,0,.207-1.285V159.9Z" transform="translate(-7.5 -8.005)"/><path class="cls-5" d="M571.735,163.709v-7.584h1.157V157.2a2.726,2.726,0,0,1,2.414-1.25,3.165,3.165,0,0,1,1.26.246,1.981,1.981,0,0,1,.86.646,2.48,2.48,0,0,1,.4.95,7.343,7.343,0,0,1,.071,1.25v4.663h-1.285V159.1a3.446,3.446,0,0,0-.15-1.175,1.234,1.234,0,0,0-.532-0.621,1.687,1.687,0,0,0-.9-0.232,2.083,2.083,0,0,0-1.418.521,2.572,2.572,0,0,0-.6,1.978v4.142h-1.286Z" transform="translate(-7.5 -8.005)"/><path class="cls-5" d="M466.858,181.26v-7.584h1.156v1.149a3.137,3.137,0,0,1,.818-1.064,1.426,1.426,0,0,1,.824-0.257,2.508,2.508,0,0,1,1.321.414l-0.442,1.192a1.843,1.843,0,0,0-.943-0.278,1.225,1.225,0,0,0-.757.253,1.378,1.378,0,0,0-.479.7,5.015,5.015,0,0,0-.214,1.5v3.971h-1.285Z" transform="translate(-7.5 -8.005)"/><path class="cls-5" d="M476.935,178.818l1.328,0.164a3.245,3.245,0,0,1-1.164,1.807,3.943,3.943,0,0,1-4.81-.382,4,4,0,0,1-.976-2.875,4.191,4.191,0,0,1,.986-2.971,3.334,3.334,0,0,1,2.557-1.057,3.242,3.242,0,0,1,2.484,1.035,4.111,4.111,0,0,1,.965,2.914c0,0.076,0,.19-0.008.343h-5.655a2.91,2.91,0,0,0,.707,1.914,2.1,2.1,0,0,0,1.585.664,1.966,1.966,0,0,0,1.207-.371A2.467,2.467,0,0,0,476.935,178.818Zm-4.221-2.078h4.234a2.568,2.568,0,0,0-.485-1.436,1.97,1.97,0,0,0-1.593-.743,2.04,2.04,0,0,0-1.488.593A2.343,2.343,0,0,0,472.714,176.74Z" transform="translate(-7.5 -8.005)"/><path class="cls-5" d="M484.825,180.325a4.788,4.788,0,0,1-1.375.857,3.975,3.975,0,0,1-1.417.25,2.757,2.757,0,0,1-1.921-.61,2.014,2.014,0,0,1-.672-1.561,2.116,2.116,0,0,1,.918-1.757,3.123,3.123,0,0,1,.925-0.421,9.227,9.227,0,0,1,1.143-.193,11.718,11.718,0,0,0,2.292-.443c0-.176.008-0.288,0.008-0.335a1.422,1.422,0,0,0-.364-1.107,2.153,2.153,0,0,0-1.464-.436,2.271,2.271,0,0,0-1.34.318,1.94,1.94,0,0,0-.639,1.125l-1.257-.171a3.107,3.107,0,0,1,.564-1.3,2.47,2.47,0,0,1,1.135-.764,5.064,5.064,0,0,1,1.722-.268,4.557,4.557,0,0,1,1.578.229,2.081,2.081,0,0,1,.893.575,2.021,2.021,0,0,1,.4.875,7.213,7.213,0,0,1,.064,1.186v1.714a18.206,18.206,0,0,0,.082,2.267,2.853,2.853,0,0,0,.325.911h-1.343A2.737,2.737,0,0,1,484.825,180.325Zm-0.107-2.871a9.431,9.431,0,0,1-2.1.485,4.851,4.851,0,0,0-1.121.257,1.12,1.12,0,0,0-.507.417,1.136,1.136,0,0,0,.211,1.468,1.672,1.672,0,0,0,1.139.343,2.65,2.65,0,0,0,1.321-.325,2,2,0,0,0,.85-0.889,3.093,3.093,0,0,0,.207-1.285v-0.471Z" transform="translate(-7.5 -8.005)"/><path class="cls-5" d="M487.981,181.26V170.791h1.285V181.26h-1.285Z" transform="translate(-7.5 -8.005)"/><path class="cls-5" d="M495.322,184.167V173.676h1.172v0.985a2.885,2.885,0,0,1,.935-0.868,2.573,2.573,0,0,1,1.265-.289,3,3,0,0,1,1.714.5,3.068,3.068,0,0,1,1.121,1.411,5.157,5.157,0,0,1,.379,2,5.071,5.071,0,0,1-.418,2.1,3.174,3.174,0,0,1-2.889,1.925,2.414,2.414,0,0,1-1.153-.271,2.612,2.612,0,0,1-.839-0.686v3.692h-1.286Zm1.164-6.656a3.3,3.3,0,0,0,.593,2.164,1.818,1.818,0,0,0,1.436.7,1.858,1.858,0,0,0,1.468-.725,3.439,3.439,0,0,0,.61-2.246,3.351,3.351,0,0,0-.6-2.171,1.794,1.794,0,0,0-1.424-.721,1.853,1.853,0,0,0-1.454.768A3.438,3.438,0,0,0,496.486,177.511Z" transform="translate(-7.5 -8.005)"/><path class="cls-5" d="M503.442,181.26v-7.584H504.6v1.149a3.137,3.137,0,0,1,.818-1.064,1.426,1.426,0,0,1,.824-0.257,2.508,2.508,0,0,1,1.321.414l-0.442,1.192a1.843,1.843,0,0,0-.943-0.278,1.225,1.225,0,0,0-.757.253,1.378,1.378,0,0,0-.479.7,5.015,5.015,0,0,0-.214,1.5v3.971h-1.285Z" transform="translate(-7.5 -8.005)"/><path class="cls-5" d="M507.848,177.468a3.909,3.909,0,0,1,1.172-3.121,3.528,3.528,0,0,1,2.385-.842,3.4,3.4,0,0,1,2.557,1.024,3.9,3.9,0,0,1,.992,2.832,5.015,5.015,0,0,1-.438,2.3,3.106,3.106,0,0,1-1.278,1.3,3.721,3.721,0,0,1-1.832.464,3.409,3.409,0,0,1-2.574-1.021A4.077,4.077,0,0,1,507.848,177.468Zm1.321,0a3.23,3.23,0,0,0,.636,2.182,2.117,2.117,0,0,0,3.192,0,3.307,3.307,0,0,0,.636-2.221,3.136,3.136,0,0,0-.64-2.132,2.119,2.119,0,0,0-3.188,0A3.216,3.216,0,0,0,509.169,177.468Z" transform="translate(-7.5 -8.005)"/><path class="cls-5" d="M516.46,184.167V173.676h1.172v0.985a2.885,2.885,0,0,1,.935-0.868,2.573,2.573,0,0,1,1.265-.289,3,3,0,0,1,1.714.5,3.068,3.068,0,0,1,1.121,1.411,5.157,5.157,0,0,1,.379,2,5.071,5.071,0,0,1-.418,2.1,3.174,3.174,0,0,1-2.889,1.925,2.414,2.414,0,0,1-1.153-.271,2.612,2.612,0,0,1-.839-0.686v3.692H516.46Zm1.164-6.656a3.3,3.3,0,0,0,.593,2.164,1.818,1.818,0,0,0,1.436.7,1.858,1.858,0,0,0,1.468-.725,3.439,3.439,0,0,0,.61-2.246,3.351,3.351,0,0,0-.6-2.171,1.794,1.794,0,0,0-1.424-.721,1.853,1.853,0,0,0-1.454.768A3.438,3.438,0,0,0,517.624,177.511Z" transform="translate(-7.5 -8.005)"/><path class="cls-5" d="M529.786,178.818l1.328,0.164a3.245,3.245,0,0,1-1.164,1.807,3.943,3.943,0,0,1-4.81-.382,4,4,0,0,1-.976-2.875,4.191,4.191,0,0,1,.986-2.971,3.334,3.334,0,0,1,2.557-1.057,3.242,3.242,0,0,1,2.484,1.035,4.111,4.111,0,0,1,.965,2.914c0,0.076,0,.19-0.008.343h-5.655a2.91,2.91,0,0,0,.707,1.914,2.1,2.1,0,0,0,1.585.664,1.966,1.966,0,0,0,1.207-.371A2.467,2.467,0,0,0,529.786,178.818Zm-4.221-2.078H529.8a2.568,2.568,0,0,0-.485-1.436,1.97,1.97,0,0,0-1.593-.743,2.04,2.04,0,0,0-1.488.593A2.343,2.343,0,0,0,525.565,176.74Z" transform="translate(-7.5 -8.005)"/><path class="cls-5" d="M532.714,181.26v-7.584h1.156v1.149a3.137,3.137,0,0,1,.818-1.064,1.426,1.426,0,0,1,.824-0.257,2.508,2.508,0,0,1,1.321.414l-0.442,1.192a1.843,1.843,0,0,0-.943-0.278,1.225,1.225,0,0,0-.757.253,1.378,1.378,0,0,0-.479.7,5.015,5.015,0,0,0-.214,1.5v3.971h-1.285Z" transform="translate(-7.5 -8.005)"/><path class="cls-5" d="M540.4,180.11l0.186,1.136a4.764,4.764,0,0,1-.971.114,2.2,2.2,0,0,1-1.086-.222,1.243,1.243,0,0,1-.543-0.582,4.616,4.616,0,0,1-.156-1.518v-4.363h-0.943v-1h0.943V171.8l1.278-.771v2.649H540.4v1h-1.292v4.435a2.256,2.256,0,0,0,.067.707,0.535,0.535,0,0,0,.222.25,0.854,0.854,0,0,0,.438.093A4.126,4.126,0,0,0,540.4,180.11Z" transform="translate(-7.5 -8.005)"/><path class="cls-5" d="M541.6,184.181l-0.144-1.207a2.869,2.869,0,0,0,.736.114,1.414,1.414,0,0,0,.686-0.143,1.174,1.174,0,0,0,.421-0.4,6.3,6.3,0,0,0,.393-0.957q0.037-.107.114-0.314l-2.878-7.6h1.386l1.578,4.392q0.308,0.836.55,1.757a17.441,17.441,0,0,1,.528-1.728l1.621-4.42h1.286L545,181.389a15.319,15.319,0,0,1-.721,1.721,2.534,2.534,0,0,1-.786.932,1.857,1.857,0,0,1-1.057.3A2.578,2.578,0,0,1,541.6,184.181Z" transform="translate(-7.5 -8.005)"/><line class="cls-6" x1="190.58" y1="30.395" x2="95.54" y2="30.395"/><line class="cls-6" x1="95.54" y1="28.446" x2="95.54" y2="90.624"/><line class="cls-6" x1="499.46" y1="30.395" x2="404.42" y2="30.395"/><line class="cls-6" x1="499.46" y1="28.446" x2="499.46" y2="90.624"/></svg>