<svg id="Layer_1" data-name="Layer 1" xmlns="http://www.w3.org/2000/svg" viewBox="0 0 492.608 240.345"><defs><style>.cls-1{fill:#28538c;stroke:#28538c;stroke-miterlimit:10;}.cls-2{fill:#288540;}.cls-3{fill:#fff;}.cls-4{fill:#298541;}</style></defs><title>What_Types_Property_Owned</title><rect class="cls-1" x="186.23" y="126.692" width="117.443" height="98.784"/><ellipse class="cls-2" cx="66.315" cy="205.028" rx="66.315" ry="35.317"/><ellipse class="cls-2" cx="85.687" cy="109.314" rx="66.315" ry="35.317"/><ellipse class="cls-2" cx="406.445" cy="109.314" rx="66.315" ry="35.317"/><ellipse class="cls-2" cx="241.298" cy="35.317" rx="66.315" ry="35.317"/><ellipse class="cls-2" cx="426.292" cy="205.028" rx="66.315" ry="35.317"/><path class="cls-3" d="M199.641,180.451V171.1h6.408v1.582h-4.521V174.9h3.9v1.581h-3.9v3.973h-1.887Z" transform="translate(-5.392 -8.128)"/><path class="cls-3" d="M215.313,180.451H213.26l-0.816-2.123h-3.736l-0.771,2.123h-2l3.641-9.348h2Zm-3.475-3.7-1.288-3.469-1.263,3.469h2.551Z" transform="translate(-5.392 -8.128)"/><path class="cls-3" d="M216.289,180.451V171.1h2.824l1.7,6.376,1.677-6.376h2.831v9.348h-1.754v-7.358l-1.855,7.358h-1.816l-1.85-7.358v7.358h-1.753Z" transform="translate(-5.392 -8.128)"/><path class="cls-3" d="M227.135,180.451V171.1h1.888v9.348h-1.888Z" transform="translate(-5.392 -8.128)"/><path class="cls-3" d="M230.871,180.451v-9.271h1.888v7.7h4.692v1.575h-6.58Z" transform="translate(-5.392 -8.128)"/><path class="cls-3" d="M240.054,180.451v-3.934l-3.425-5.414h2.213l2.2,3.7,2.154-3.7h2.175l-3.437,5.427v3.921h-1.881Z" transform="translate(-5.392 -8.128)"/><path class="cls-3" d="M249.751,180.451v-9.271h1.888v7.7h4.692v1.575h-6.58Z" transform="translate(-5.392 -8.128)"/><path class="cls-3" d="M257.619,180.451V171.1h1.888v9.348h-1.888Z" transform="translate(-5.392 -8.128)"/><path class="cls-3" d="M261.279,180.451V171.1H264.1l1.7,6.376,1.677-6.376h2.831v9.348h-1.754v-7.358l-1.855,7.358h-1.816l-1.85-7.358v7.358h-1.753Z" transform="translate(-5.392 -8.128)"/><path class="cls-3" d="M272.125,180.451V171.1h1.888v9.348h-1.888Z" transform="translate(-5.392 -8.128)"/><path class="cls-3" d="M277.914,180.451v-7.766h-2.773V171.1h7.429v1.582H279.8v7.766h-1.888Z" transform="translate(-5.392 -8.128)"/><path class="cls-3" d="M283.787,180.451V171.1h6.931v1.582h-5.044v2.071h4.693v1.575h-4.693v2.544H290.9v1.575h-7.109Z" transform="translate(-5.392 -8.128)"/><path class="cls-3" d="M292.49,171.1h3.45a6.728,6.728,0,0,1,1.778.179,3.121,3.121,0,0,1,1.409.861,4.077,4.077,0,0,1,.893,1.514,6.9,6.9,0,0,1,.307,2.21,6.146,6.146,0,0,1-.287,1.989,4.131,4.131,0,0,1-1,1.651,3.325,3.325,0,0,1-1.326.746,5.714,5.714,0,0,1-1.671.2H292.49V171.1Zm1.888,1.582v6.19h1.409a5.149,5.149,0,0,0,1.142-.089,1.742,1.742,0,0,0,.762-0.389,1.979,1.979,0,0,0,.494-0.9,6.119,6.119,0,0,0,.191-1.712,5.6,5.6,0,0,0-.191-1.664,2.148,2.148,0,0,0-.536-0.906,1.792,1.792,0,0,0-.873-0.439,8.569,8.569,0,0,0-1.55-.089h-0.848Z" transform="translate(-5.392 -8.128)"/><path class="cls-3" d="M204.582,196.121v-9.348h3.028a10.955,10.955,0,0,1,2.244.141,2.452,2.452,0,0,1,1.346.915,2.9,2.9,0,0,1,.542,1.82,3.05,3.05,0,0,1-.312,1.447,2.558,2.558,0,0,1-.794.922,2.733,2.733,0,0,1-.979.442,10.721,10.721,0,0,1-1.957.134h-1.231v3.526h-1.887Zm1.887-7.766v2.652H207.5a4.845,4.845,0,0,0,1.492-.147,1.234,1.234,0,0,0,.59-0.459,1.254,1.254,0,0,0,.214-0.727,1.212,1.212,0,0,0-.3-0.842,1.306,1.306,0,0,0-.759-0.414,9.022,9.022,0,0,0-1.358-.063h-0.912Z" transform="translate(-5.392 -8.128)"/><path class="cls-3" d="M220.752,196.121H218.7L217.883,194h-3.736l-0.771,2.123h-2l3.641-9.348h2Zm-3.475-3.7-1.288-3.469-1.263,3.469h2.551Z" transform="translate(-5.392 -8.128)"/><path class="cls-3" d="M221.76,196.121v-9.348h3.973a6.8,6.8,0,0,1,2.178.252,2.151,2.151,0,0,1,1.087.9,2.7,2.7,0,0,1,.408,1.473,2.492,2.492,0,0,1-.619,1.737,2.969,2.969,0,0,1-1.849.864,4.37,4.37,0,0,1,1.011.784,10.553,10.553,0,0,1,1.074,1.518l1.142,1.823h-2.258l-1.364-2.034a13.383,13.383,0,0,0-.994-1.374,1.462,1.462,0,0,0-.567-0.389,3.106,3.106,0,0,0-.95-0.105h-0.383v3.9H221.76Zm1.888-5.395h1.4a7.247,7.247,0,0,0,1.7-.114,1.022,1.022,0,0,0,.529-0.4,1.22,1.22,0,0,0,.19-0.7,1.124,1.124,0,0,0-.251-0.762,1.157,1.157,0,0,0-.711-0.367q-0.23-.032-1.378-0.031h-1.473v2.371Z" transform="translate(-5.392 -8.128)"/><path class="cls-3" d="M233.288,196.121v-7.766h-2.773v-1.582h7.429v1.582h-2.768v7.766h-1.888Z" transform="translate(-5.392 -8.128)"/><path class="cls-3" d="M239.18,196.121v-9.348h1.837l3.825,6.242v-6.242H246.6v9.348H244.7l-3.769-6.1v6.1H239.18Z" transform="translate(-5.392 -8.128)"/><path class="cls-3" d="M248.592,196.121v-9.348h6.931v1.582h-5.044v2.071h4.693V192h-4.693v2.544H255.7v1.575h-7.109Z" transform="translate(-5.392 -8.128)"/><path class="cls-3" d="M257.308,196.121v-9.348h3.973a6.8,6.8,0,0,1,2.178.252,2.151,2.151,0,0,1,1.087.9,2.7,2.7,0,0,1,.408,1.473,2.492,2.492,0,0,1-.619,1.737,2.969,2.969,0,0,1-1.849.864,4.37,4.37,0,0,1,1.011.784,10.553,10.553,0,0,1,1.074,1.518l1.142,1.823h-2.258l-1.364-2.034a13.383,13.383,0,0,0-.994-1.374,1.462,1.462,0,0,0-.567-0.389,3.106,3.106,0,0,0-.95-0.105H259.2v3.9h-1.888Zm1.888-5.395h1.4a7.247,7.247,0,0,0,1.7-.114,1.022,1.022,0,0,0,.529-0.4,1.22,1.22,0,0,0,.19-0.7,1.124,1.124,0,0,0-.251-0.762,1.157,1.157,0,0,0-.711-0.367q-0.23-.032-1.378-0.031H259.2v2.371Z" transform="translate(-5.392 -8.128)"/><path class="cls-3" d="M266.254,193.08l1.837-.179a2.235,2.235,0,0,0,.672,1.357,2.029,2.029,0,0,0,1.368.434,2.1,2.1,0,0,0,1.374-.386,1.148,1.148,0,0,0,.462-0.9,0.849,0.849,0,0,0-.194-0.564,1.556,1.556,0,0,0-.679-0.405q-0.333-.114-1.512-0.408a5.112,5.112,0,0,1-2.129-.924,2.433,2.433,0,0,1-.861-1.882,2.4,2.4,0,0,1,.405-1.335,2.526,2.526,0,0,1,1.167-.947,4.675,4.675,0,0,1,1.839-.325,3.943,3.943,0,0,1,2.649.771,2.727,2.727,0,0,1,.935,2.06l-1.888.083a1.6,1.6,0,0,0-.52-1.036,1.9,1.9,0,0,0-1.2-.315,2.152,2.152,0,0,0-1.288.338,0.68,0.68,0,0,0-.3.58,0.719,0.719,0,0,0,.28.567,4.957,4.957,0,0,0,1.734.625,9.106,9.106,0,0,1,2.037.673,2.619,2.619,0,0,1,1.033.95,2.942,2.942,0,0,1-.073,2.993,2.671,2.671,0,0,1-1.263,1.042,5.289,5.289,0,0,1-2.034.342,4.052,4.052,0,0,1-2.723-.819A3.566,3.566,0,0,1,266.254,193.08Z" transform="translate(-5.392 -8.128)"/><path class="cls-3" d="M275.448,196.121v-9.348h1.888v3.68h3.7v-3.68h1.888v9.348h-1.888v-4.087h-3.7v4.087h-1.888Z" transform="translate(-5.392 -8.128)"/><path class="cls-3" d="M284.815,196.121v-9.348H286.7v9.348h-1.888Z" transform="translate(-5.392 -8.128)"/><path class="cls-3" d="M288.5,196.121v-9.348h3.028a10.955,10.955,0,0,1,2.244.141,2.452,2.452,0,0,1,1.346.915,2.9,2.9,0,0,1,.542,1.82,3.05,3.05,0,0,1-.312,1.447,2.558,2.558,0,0,1-.794.922,2.733,2.733,0,0,1-.979.442,10.721,10.721,0,0,1-1.957.134h-1.231v3.526H288.5Zm1.887-7.766v2.652h1.033a4.845,4.845,0,0,0,1.492-.147,1.234,1.234,0,0,0,.59-0.459,1.254,1.254,0,0,0,.214-0.727,1.212,1.212,0,0,0-.3-0.842,1.306,1.306,0,0,0-.759-0.414,9.022,9.022,0,0,0-1.358-.063h-0.912Z" transform="translate(-5.392 -8.128)"/><path class="cls-3" d="M212.585,47.9V38.555h3.973a6.8,6.8,0,0,1,2.178.252,2.151,2.151,0,0,1,1.087.9,2.7,2.7,0,0,1,.408,1.473,2.492,2.492,0,0,1-.619,1.737,2.969,2.969,0,0,1-1.849.864,4.37,4.37,0,0,1,1.011.784,10.553,10.553,0,0,1,1.074,1.518l1.142,1.823h-2.258l-1.364-2.034a13.383,13.383,0,0,0-.994-1.374,1.462,1.462,0,0,0-.567-0.389,3.106,3.106,0,0,0-.95-0.105h-0.383v3.9h-1.888Zm1.888-5.395h1.4a7.247,7.247,0,0,0,1.7-.114,1.022,1.022,0,0,0,.529-0.4,1.22,1.22,0,0,0,.19-0.7,1.124,1.124,0,0,0-.251-0.762,1.157,1.157,0,0,0-.711-0.367q-0.23-.032-1.378-0.031h-1.473v2.371Z" transform="translate(-5.392 -8.128)"/><path class="cls-3" d="M225.918,45.747l1.785,0.3a2.928,2.928,0,0,1-1.087,1.5,3.188,3.188,0,0,1-1.858.514,3.029,3.029,0,0,1-2.614-1.154,3.878,3.878,0,0,1-.67-2.334,3.743,3.743,0,0,1,.88-2.637,2.9,2.9,0,0,1,2.226-.953,3.006,3.006,0,0,1,2.385,1,4.418,4.418,0,0,1,.835,3.058h-4.488a1.813,1.813,0,0,0,.434,1.24,1.357,1.357,0,0,0,1.032.443,1.1,1.1,0,0,0,.708-0.229A1.42,1.42,0,0,0,225.918,45.747Zm0.1-1.811a1.725,1.725,0,0,0-.4-1.183,1.231,1.231,0,0,0-.931-0.405,1.243,1.243,0,0,0-.969.428,1.649,1.649,0,0,0-.377,1.16h2.679Z" transform="translate(-5.392 -8.128)"/><path class="cls-3" d="M230.6,43.2l-1.626-.293a2.531,2.531,0,0,1,.943-1.453,3.446,3.446,0,0,1,1.989-.473,4.285,4.285,0,0,1,1.786.284,1.783,1.783,0,0,1,.825.721,3.7,3.7,0,0,1,.239,1.6l-0.02,2.091a7.342,7.342,0,0,0,.086,1.317,3.865,3.865,0,0,0,.322.908h-1.772c-0.047-.119-0.1-0.295-0.172-0.529-0.03-.106-0.051-0.176-0.064-0.21a3.227,3.227,0,0,1-.981.669,2.82,2.82,0,0,1-1.116.224,2.306,2.306,0,0,1-1.647-.567,1.885,1.885,0,0,1-.6-1.435,1.924,1.924,0,0,1,.273-1.023,1.8,1.8,0,0,1,.769-0.689,6.025,6.025,0,0,1,1.425-.417,9.687,9.687,0,0,0,1.741-.44V43.3a0.93,0.93,0,0,0-.255-0.736,1.53,1.53,0,0,0-.963-0.22,1.277,1.277,0,0,0-.746.188A1.3,1.3,0,0,0,230.6,43.2ZM233,44.65q-0.344.114-1.091,0.274a3.28,3.28,0,0,0-.976.313,0.748,0.748,0,0,0-.351.631,0.877,0.877,0,0,0,.281.65,0.979,0.979,0,0,0,.714.274,1.552,1.552,0,0,0,.925-0.319,1.119,1.119,0,0,0,.427-0.593,3.524,3.524,0,0,0,.07-0.873V44.65Z" transform="translate(-5.392 -8.128)"/><path class="cls-3" d="M236.522,47.9V38.555h1.791V47.9h-1.791Z" transform="translate(-5.392 -8.128)"/><path class="cls-3" d="M243.791,47.9V38.555h6.931v1.582h-5.044v2.071h4.693v1.575h-4.693v2.544H250.9V47.9h-7.109Z" transform="translate(-5.392 -8.128)"/><path class="cls-3" d="M251.856,45.971l1.8-.274a1.317,1.317,0,0,0,.465.794,1.575,1.575,0,0,0,.982.271,1.776,1.776,0,0,0,1.046-.255,0.572,0.572,0,0,0,.235-0.479,0.472,0.472,0,0,0-.127-0.338,1.44,1.44,0,0,0-.6-0.235,9.672,9.672,0,0,1-2.748-.874,1.742,1.742,0,0,1-.8-1.523,1.877,1.877,0,0,1,.7-1.479,3.246,3.246,0,0,1,2.155-.6,3.759,3.759,0,0,1,2.065.453,2.314,2.314,0,0,1,.931,1.339l-1.689.313a1.04,1.04,0,0,0-.411-0.605,1.5,1.5,0,0,0-.864-0.211,1.945,1.945,0,0,0-1.014.2,0.423,0.423,0,0,0-.2.363,0.4,0.4,0,0,0,.179.325,6.711,6.711,0,0,0,1.674.5,4.99,4.99,0,0,1,2,.8,1.655,1.655,0,0,1,.561,1.332,2.045,2.045,0,0,1-.777,1.6,3.444,3.444,0,0,1-2.3.67,3.778,3.778,0,0,1-2.19-.562A2.585,2.585,0,0,1,251.856,45.971Z" transform="translate(-5.392 -8.128)"/><path class="cls-3" d="M262.855,41.131V42.56h-1.224v2.729a6.76,6.76,0,0,0,.035.966,0.392,0.392,0,0,0,.159.227,0.5,0.5,0,0,0,.3.089,2.3,2.3,0,0,0,.721-0.172L263,47.787a3.562,3.562,0,0,1-1.416.269,2.24,2.24,0,0,1-.873-0.163,1.269,1.269,0,0,1-.571-0.421,1.659,1.659,0,0,1-.252-0.7,8.738,8.738,0,0,1-.057-1.262V42.56h-0.823V41.131h0.823V39.785l1.8-1.045v2.391h1.224Z" transform="translate(-5.392 -8.128)"/><path class="cls-3" d="M265.438,43.2l-1.626-.293a2.531,2.531,0,0,1,.943-1.453,3.446,3.446,0,0,1,1.989-.473,4.285,4.285,0,0,1,1.786.284,1.783,1.783,0,0,1,.825.721,3.7,3.7,0,0,1,.239,1.6l-0.02,2.091a7.342,7.342,0,0,0,.086,1.317,3.865,3.865,0,0,0,.322.908h-1.772c-0.047-.119-0.1-0.295-0.172-0.529-0.03-.106-0.051-0.176-0.064-0.21a3.227,3.227,0,0,1-.981.669,2.82,2.82,0,0,1-1.116.224,2.306,2.306,0,0,1-1.647-.567,1.885,1.885,0,0,1-.6-1.435,1.924,1.924,0,0,1,.273-1.023,1.8,1.8,0,0,1,.769-0.689,6.025,6.025,0,0,1,1.425-.417,9.687,9.687,0,0,0,1.741-.44V43.3a0.93,0.93,0,0,0-.255-0.736,1.53,1.53,0,0,0-.963-0.22,1.277,1.277,0,0,0-.746.188A1.3,1.3,0,0,0,265.438,43.2Zm2.4,1.454q-0.344.114-1.091,0.274a3.28,3.28,0,0,0-.976.313,0.748,0.748,0,0,0-.351.631,0.877,0.877,0,0,0,.281.65,0.979,0.979,0,0,0,.714.274,1.552,1.552,0,0,0,.925-0.319,1.119,1.119,0,0,0,.427-0.593,3.524,3.524,0,0,0,.07-0.873V44.65Z" transform="translate(-5.392 -8.128)"/><path class="cls-3" d="M274.467,41.131V42.56h-1.224v2.729a6.76,6.76,0,0,0,.035.966,0.392,0.392,0,0,0,.159.227,0.5,0.5,0,0,0,.3.089,2.3,2.3,0,0,0,.721-0.172l0.153,1.39a3.562,3.562,0,0,1-1.416.269,2.24,2.24,0,0,1-.873-0.163,1.269,1.269,0,0,1-.571-0.421,1.659,1.659,0,0,1-.252-0.7,8.738,8.738,0,0,1-.057-1.262V42.56h-0.823V41.131h0.823V39.785l1.8-1.045v2.391h1.224Z" transform="translate(-5.392 -8.128)"/><path class="cls-3" d="M279.632,45.747l1.785,0.3a2.928,2.928,0,0,1-1.087,1.5,3.188,3.188,0,0,1-1.858.514,3.029,3.029,0,0,1-2.614-1.154,3.878,3.878,0,0,1-.67-2.334,3.743,3.743,0,0,1,.88-2.637,2.9,2.9,0,0,1,2.226-.953,3.006,3.006,0,0,1,2.385,1,4.418,4.418,0,0,1,.835,3.058h-4.488a1.813,1.813,0,0,0,.434,1.24,1.357,1.357,0,0,0,1.032.443,1.1,1.1,0,0,0,.708-0.229A1.42,1.42,0,0,0,279.632,45.747Zm0.1-1.811a1.725,1.725,0,0,0-.4-1.183,1.231,1.231,0,0,0-.931-0.405,1.243,1.243,0,0,0-.969.428,1.649,1.649,0,0,0-.377,1.16h2.679Z" transform="translate(-5.392 -8.128)"/><path class="cls-3" d="M46.67,115.369v-9.348H49.7a10.958,10.958,0,0,1,2.245.141,2.452,2.452,0,0,1,1.345.915,2.9,2.9,0,0,1,.542,1.82,3.044,3.044,0,0,1-.312,1.447,2.562,2.562,0,0,1-.793.922,2.746,2.746,0,0,1-.979.442,10.723,10.723,0,0,1-1.958.134h-1.23v3.526H46.67Zm1.887-7.766v2.652H49.59a4.845,4.845,0,0,0,1.492-.147,1.234,1.234,0,0,0,.59-0.459,1.257,1.257,0,0,0,.213-0.727,1.209,1.209,0,0,0-.3-0.842,1.306,1.306,0,0,0-.759-0.414,9.027,9.027,0,0,0-1.358-.063H48.558Z" transform="translate(-5.392 -8.128)"/><path class="cls-3" d="M57.083,115.369H55.291V108.6h1.664v0.963a2.89,2.89,0,0,1,.769-0.9,1.412,1.412,0,0,1,.774-0.217,2.281,2.281,0,0,1,1.18.338l-0.555,1.563a1.574,1.574,0,0,0-.842-0.293,1,1,0,0,0-.638.207,1.415,1.415,0,0,0-.411.749,10.627,10.627,0,0,0-.15,2.27v2.092Z" transform="translate(-5.392 -8.128)"/><path class="cls-3" d="M60.449,107.68v-1.658h1.792v1.658H60.449Zm0,7.689V108.6h1.792v6.771H60.449Z" transform="translate(-5.392 -8.128)"/><path class="cls-3" d="M65.939,115.369L63.21,108.6h1.881l1.275,3.456,0.37,1.154q0.146-.441.185-0.581,0.089-.286.191-0.573L68.4,108.6h1.843l-2.691,6.771H65.939Z" transform="translate(-5.392 -8.128)"/><path class="cls-3" d="M72.678,110.663l-1.626-.293A2.529,2.529,0,0,1,72,108.917a3.446,3.446,0,0,1,1.989-.473,4.282,4.282,0,0,1,1.785.284,1.782,1.782,0,0,1,.826.721,3.688,3.688,0,0,1,.239,1.6l-0.019,2.091a7.251,7.251,0,0,0,.086,1.317,3.84,3.84,0,0,0,.322.908H75.452c-0.047-.119-0.1-0.295-0.172-0.529-0.03-.106-0.051-0.176-0.064-0.21a3.235,3.235,0,0,1-.982.669,2.819,2.819,0,0,1-1.116.224,2.31,2.31,0,0,1-1.648-.567,1.888,1.888,0,0,1-.6-1.435,1.921,1.921,0,0,1,.274-1.023,1.8,1.8,0,0,1,.768-0.689,6.03,6.03,0,0,1,1.425-.417,9.691,9.691,0,0,0,1.741-.44v-0.179a0.93,0.93,0,0,0-.255-0.736,1.528,1.528,0,0,0-.962-0.22,1.277,1.277,0,0,0-.746.188A1.3,1.3,0,0,0,72.678,110.663Zm2.4,1.454q-0.344.114-1.09,0.274a3.269,3.269,0,0,0-.976.313,0.747,0.747,0,0,0-.351.631,0.878,0.878,0,0,0,.28.65,0.981,0.981,0,0,0,.714.274,1.55,1.55,0,0,0,.924-0.319,1.117,1.117,0,0,0,.427-0.593,3.524,3.524,0,0,0,.07-0.873v-0.357Z" transform="translate(-5.392 -8.128)"/><path class="cls-3" d="M81.707,108.6v1.429H80.482v2.729a6.76,6.76,0,0,0,.035.966,0.39,0.39,0,0,0,.159.227,0.5,0.5,0,0,0,.3.089,2.3,2.3,0,0,0,.721-0.172l0.153,1.39a3.557,3.557,0,0,1-1.416.269,2.246,2.246,0,0,1-.874-0.163,1.269,1.269,0,0,1-.57-0.421,1.659,1.659,0,0,1-.252-0.7,8.616,8.616,0,0,1-.058-1.262v-2.952H77.862V108.6h0.822v-1.346l1.8-1.045V108.6h1.224Z" transform="translate(-5.392 -8.128)"/><path class="cls-3" d="M86.871,113.214l1.786,0.3a2.929,2.929,0,0,1-1.087,1.5,3.189,3.189,0,0,1-1.858.514,3.029,3.029,0,0,1-2.614-1.154,3.878,3.878,0,0,1-.669-2.334,3.739,3.739,0,0,1,.88-2.637,2.9,2.9,0,0,1,2.225-.953,3.007,3.007,0,0,1,2.385,1,4.415,4.415,0,0,1,.835,3.058H84.264a1.813,1.813,0,0,0,.434,1.24,1.357,1.357,0,0,0,1.033.443,1.1,1.1,0,0,0,.708-0.229A1.42,1.42,0,0,0,86.871,113.214Zm0.1-1.811a1.724,1.724,0,0,0-.4-1.183,1.232,1.232,0,0,0-.931-0.405,1.244,1.244,0,0,0-.969.428,1.651,1.651,0,0,0-.376,1.16h2.678Z" transform="translate(-5.392 -8.128)"/><path class="cls-3" d="M90.212,115.369v-9.348H92v9.348H90.212Z" transform="translate(-5.392 -8.128)"/><path class="cls-3" d="M92.992,108.6H94.9l1.62,4.808L98.1,108.6h1.855l-2.391,6.517-0.427,1.18a4.777,4.777,0,0,1-.45.905,1.977,1.977,0,0,1-.491.507,2.144,2.144,0,0,1-.683.3,3.542,3.542,0,0,1-.915.108,4.746,4.746,0,0,1-1.014-.108l-0.159-1.4a4.006,4.006,0,0,0,.759.083,1.125,1.125,0,0,0,.924-0.367,2.539,2.539,0,0,0,.459-0.934Z" transform="translate(-5.392 -8.128)"/><path class="cls-3" d="M100.9,112.876v-1.792h3.52v1.792H100.9Z" transform="translate(-5.392 -8.128)"/><path class="cls-3" d="M109.1,115.369v-9.348h1.887v3.68h3.7v-3.68h1.887v9.348h-1.887v-4.087h-3.7v4.087H109.1Z" transform="translate(-5.392 -8.128)"/><path class="cls-3" d="M122.43,113.214l1.786,0.3a2.929,2.929,0,0,1-1.087,1.5,3.189,3.189,0,0,1-1.858.514,3.029,3.029,0,0,1-2.614-1.154,3.878,3.878,0,0,1-.669-2.334,3.739,3.739,0,0,1,.88-2.637,2.9,2.9,0,0,1,2.225-.953,3.007,3.007,0,0,1,2.385,1,4.415,4.415,0,0,1,.835,3.058h-4.489a1.813,1.813,0,0,0,.434,1.24,1.357,1.357,0,0,0,1.033.443,1.1,1.1,0,0,0,.708-0.229A1.42,1.42,0,0,0,122.43,113.214Zm0.1-1.811a1.724,1.724,0,0,0-.4-1.183,1.232,1.232,0,0,0-.931-0.405,1.244,1.244,0,0,0-.969.428,1.651,1.651,0,0,0-.376,1.16h2.678Z" transform="translate(-5.392 -8.128)"/><path class="cls-3" d="M125.771,115.369v-9.348h1.792v9.348h-1.792Z" transform="translate(-5.392 -8.128)"/><path class="cls-3" d="M135.609,115.369h-1.664v-1a2.677,2.677,0,0,1-.979.864,2.51,2.51,0,0,1-1.138.284,2.579,2.579,0,0,1-2-.94,3.827,3.827,0,0,1-.832-2.624,3.781,3.781,0,0,1,.81-2.617,2.64,2.64,0,0,1,2.047-.9,2.537,2.537,0,0,1,1.964.944v-3.367h1.792v9.348Zm-4.782-3.532a3.1,3.1,0,0,0,.3,1.568,1.353,1.353,0,0,0,1.211.7,1.318,1.318,0,0,0,1.052-.525,2.431,2.431,0,0,0,.434-1.572,2.655,2.655,0,0,0-.421-1.68,1.33,1.33,0,0,0-1.078-.514,1.347,1.347,0,0,0-1.068.507A2.29,2.29,0,0,0,130.828,111.837Z" transform="translate(-5.392 -8.128)"/><path class="cls-3" d="M63.006,121.691h3.736a10.8,10.8,0,0,1,1.655.093,2.43,2.43,0,0,1,.975.386,2.391,2.391,0,0,1,.717.781,2.115,2.115,0,0,1,.287,1.094,2.216,2.216,0,0,1-1.313,2.027,2.461,2.461,0,0,1,1.313.848,2.25,2.25,0,0,1,.459,1.409,2.777,2.777,0,0,1-.3,1.24,2.5,2.5,0,0,1-.81.963,2.679,2.679,0,0,1-1.266.443q-0.472.051-2.276,0.063H63.006v-9.348Zm1.887,1.556v2.162H66.13q1.1,0,1.371-.032a1.242,1.242,0,0,0,.762-0.335,0.985,0.985,0,0,0,.277-0.729,1.028,1.028,0,0,0-.239-0.705,1.082,1.082,0,0,0-.711-0.328q-0.281-.032-1.613-0.032H64.893Zm0,3.718v2.5H66.64a8.606,8.606,0,0,0,1.294-.057,1.178,1.178,0,0,0,.686-0.373,1.151,1.151,0,0,0,.264-0.794,1.224,1.224,0,0,0-.2-0.715,1.154,1.154,0,0,0-.59-0.427,6.434,6.434,0,0,0-1.674-.134H64.893Z" transform="translate(-5.392 -8.128)"/><path class="cls-3" d="M76.874,131.039v-1.014a2.606,2.606,0,0,1-.972.854,2.73,2.73,0,0,1-1.272.313,2.491,2.491,0,0,1-1.224-.3,1.772,1.772,0,0,1-.785-0.842,3.752,3.752,0,0,1-.242-1.5v-4.285H74.17v3.111a8.643,8.643,0,0,0,.1,1.751,0.955,0.955,0,0,0,.36.51,1.109,1.109,0,0,0,.663.188,1.407,1.407,0,0,0,.822-0.251,1.283,1.283,0,0,0,.5-0.625,7.253,7.253,0,0,0,.134-1.827v-2.856h1.792v6.771H76.874Z" transform="translate(-5.392 -8.128)"/><path class="cls-3" d="M79.762,129.107l1.8-.274a1.32,1.32,0,0,0,.465.794,1.574,1.574,0,0,0,.982.271,1.774,1.774,0,0,0,1.046-.255,0.57,0.57,0,0,0,.236-0.479,0.472,0.472,0,0,0-.127-0.338,1.431,1.431,0,0,0-.6-0.235,9.677,9.677,0,0,1-2.749-.874,1.744,1.744,0,0,1-.8-1.523,1.878,1.878,0,0,1,.695-1.479,3.246,3.246,0,0,1,2.155-.6,3.76,3.76,0,0,1,2.066.453,2.312,2.312,0,0,1,.931,1.339l-1.689.313a1.043,1.043,0,0,0-.411-0.605,1.5,1.5,0,0,0-.864-0.211,1.945,1.945,0,0,0-1.014.2,0.422,0.422,0,0,0-.2.363,0.4,0.4,0,0,0,.179.325,6.711,6.711,0,0,0,1.674.5,4.981,4.981,0,0,1,2,.8,1.655,1.655,0,0,1,.562,1.332,2.046,2.046,0,0,1-.778,1.6,3.443,3.443,0,0,1-2.3.67,3.776,3.776,0,0,1-2.19-.562A2.584,2.584,0,0,1,79.762,129.107Z" transform="translate(-5.392 -8.128)"/><path class="cls-3" d="M87.656,123.35v-1.658h1.792v1.658H87.656Zm0,7.689v-6.771h1.792v6.771H87.656Z" transform="translate(-5.392 -8.128)"/><path class="cls-3" d="M97.443,131.039H95.651v-3.456a5.342,5.342,0,0,0-.115-1.419,1,1,0,0,0-.373-0.5,1.066,1.066,0,0,0-.622-0.179,1.436,1.436,0,0,0-.835.255,1.285,1.285,0,0,0-.507.676,5.83,5.83,0,0,0-.137,1.556v3.067H91.271v-6.771h1.665v1a2.773,2.773,0,0,1,3.315-.935,1.821,1.821,0,0,1,.743.545,1.976,1.976,0,0,1,.351.753,5.585,5.585,0,0,1,.1,1.205v4.208Z" transform="translate(-5.392 -8.128)"/><path class="cls-3" d="M103.181,128.884l1.786,0.3a2.929,2.929,0,0,1-1.087,1.5,3.189,3.189,0,0,1-1.858.514,3.029,3.029,0,0,1-2.614-1.154,3.878,3.878,0,0,1-.669-2.334,3.739,3.739,0,0,1,.88-2.637,2.9,2.9,0,0,1,2.225-.953,3.007,3.007,0,0,1,2.385,1,4.415,4.415,0,0,1,.835,3.058h-4.489a1.813,1.813,0,0,0,.434,1.24,1.357,1.357,0,0,0,1.033.443,1.1,1.1,0,0,0,.708-0.229A1.42,1.42,0,0,0,103.181,128.884Zm0.1-1.811a1.724,1.724,0,0,0-.4-1.183,1.232,1.232,0,0,0-.931-0.405,1.244,1.244,0,0,0-.969.428,1.651,1.651,0,0,0-.376,1.16h2.678Z" transform="translate(-5.392 -8.128)"/><path class="cls-3" d="M105.891,129.107l1.8-.274a1.32,1.32,0,0,0,.465.794,1.574,1.574,0,0,0,.982.271,1.774,1.774,0,0,0,1.046-.255,0.57,0.57,0,0,0,.236-0.479,0.472,0.472,0,0,0-.127-0.338,1.431,1.431,0,0,0-.6-0.235,9.677,9.677,0,0,1-2.749-.874,1.744,1.744,0,0,1-.8-1.523,1.878,1.878,0,0,1,.695-1.479,3.246,3.246,0,0,1,2.155-.6,3.76,3.76,0,0,1,2.066.453,2.312,2.312,0,0,1,.931,1.339l-1.689.313a1.043,1.043,0,0,0-.411-0.605,1.5,1.5,0,0,0-.864-0.211,1.945,1.945,0,0,0-1.014.2,0.422,0.422,0,0,0-.2.363,0.4,0.4,0,0,0,.179.325,6.711,6.711,0,0,0,1.674.5,4.981,4.981,0,0,1,2,.8,1.655,1.655,0,0,1,.562,1.332,2.046,2.046,0,0,1-.778,1.6,3.443,3.443,0,0,1-2.3.67,3.776,3.776,0,0,1-2.19-.562A2.584,2.584,0,0,1,105.891,129.107Z" transform="translate(-5.392 -8.128)"/><path class="cls-3" d="M113.153,129.107l1.8-.274a1.32,1.32,0,0,0,.465.794,1.574,1.574,0,0,0,.982.271,1.774,1.774,0,0,0,1.046-.255,0.57,0.57,0,0,0,.236-0.479,0.472,0.472,0,0,0-.127-0.338,1.431,1.431,0,0,0-.6-0.235,9.677,9.677,0,0,1-2.749-.874,1.744,1.744,0,0,1-.8-1.523,1.878,1.878,0,0,1,.695-1.479,3.246,3.246,0,0,1,2.155-.6,3.76,3.76,0,0,1,2.066.453,2.312,2.312,0,0,1,.931,1.339l-1.689.313a1.043,1.043,0,0,0-.411-0.605,1.5,1.5,0,0,0-.864-0.211,1.945,1.945,0,0,0-1.014.2,0.422,0.422,0,0,0-.2.363,0.4,0.4,0,0,0,.179.325,6.711,6.711,0,0,0,1.674.5,4.981,4.981,0,0,1,2,.8,1.655,1.655,0,0,1,.562,1.332,2.046,2.046,0,0,1-.778,1.6,3.443,3.443,0,0,1-2.3.67,3.776,3.776,0,0,1-2.19-.562A2.584,2.584,0,0,1,113.153,129.107Z" transform="translate(-5.392 -8.128)"/><path class="cls-3" d="M40.969,205.865l1.836-.179a2.235,2.235,0,0,0,.673,1.357,2.028,2.028,0,0,0,1.368.434,2.1,2.1,0,0,0,1.374-.386,1.147,1.147,0,0,0,.462-0.9,0.849,0.849,0,0,0-.195-0.564,1.556,1.556,0,0,0-.679-0.405q-0.332-.114-1.511-0.408a5.123,5.123,0,0,1-2.13-.924,2.434,2.434,0,0,1-.861-1.882,2.4,2.4,0,0,1,.405-1.335,2.53,2.53,0,0,1,1.167-.947,4.676,4.676,0,0,1,1.84-.325,3.943,3.943,0,0,1,2.649.771,2.723,2.723,0,0,1,.934,2.06l-1.887.083a1.6,1.6,0,0,0-.52-1.036,1.9,1.9,0,0,0-1.2-.315,2.153,2.153,0,0,0-1.288.338,0.68,0.68,0,0,0-.3.58,0.718,0.718,0,0,0,.28.567,4.957,4.957,0,0,0,1.734.625,9.106,9.106,0,0,1,2.037.673,2.619,2.619,0,0,1,1.033.95,2.942,2.942,0,0,1-.073,2.993,2.671,2.671,0,0,1-1.263,1.042,5.29,5.29,0,0,1-2.034.342,4.05,4.05,0,0,1-2.723-.819A3.564,3.564,0,0,1,40.969,205.865Z" transform="translate(-5.392 -8.128)"/><path class="cls-3" d="M54.065,206.751l1.786,0.3a2.929,2.929,0,0,1-1.087,1.5,3.189,3.189,0,0,1-1.858.514,3.029,3.029,0,0,1-2.614-1.154,3.878,3.878,0,0,1-.669-2.334,3.739,3.739,0,0,1,.88-2.637,2.9,2.9,0,0,1,2.225-.953,3.007,3.007,0,0,1,2.385,1,4.415,4.415,0,0,1,.835,3.058H51.458a1.813,1.813,0,0,0,.434,1.24,1.357,1.357,0,0,0,1.033.443,1.1,1.1,0,0,0,.708-0.229A1.42,1.42,0,0,0,54.065,206.751Zm0.1-1.811a1.724,1.724,0,0,0-.4-1.183,1.232,1.232,0,0,0-.931-0.405,1.244,1.244,0,0,0-.969.428,1.651,1.651,0,0,0-.376,1.16h2.678Z" transform="translate(-5.392 -8.128)"/><path class="cls-3" d="M63.311,204.137l-1.767.319a1.277,1.277,0,0,0-.4-0.8,1.222,1.222,0,0,0-.819-0.269,1.338,1.338,0,0,0-1.068.463,2.367,2.367,0,0,0-.4,1.546,2.737,2.737,0,0,0,.4,1.7,1.329,1.329,0,0,0,1.087.5,1.2,1.2,0,0,0,.835-0.291,1.743,1.743,0,0,0,.459-1l1.76,0.3a3.119,3.119,0,0,1-1.052,1.829,3.253,3.253,0,0,1-2.085.619,3.1,3.1,0,0,1-2.369-.937,4.271,4.271,0,0,1,0-5.206,3.147,3.147,0,0,1,2.4-.935,3.265,3.265,0,0,1,1.967.533A2.949,2.949,0,0,1,63.311,204.137Z" transform="translate(-5.392 -8.128)"/><path class="cls-3" d="M69.125,208.906v-1.014a2.606,2.606,0,0,1-.972.854,2.73,2.73,0,0,1-1.272.313,2.491,2.491,0,0,1-1.224-.3,1.772,1.772,0,0,1-.785-0.842,3.752,3.752,0,0,1-.242-1.5v-4.285h1.792v3.111a8.643,8.643,0,0,0,.1,1.751,0.955,0.955,0,0,0,.36.51,1.109,1.109,0,0,0,.663.188,1.407,1.407,0,0,0,.822-0.251,1.283,1.283,0,0,0,.5-0.625A7.253,7.253,0,0,0,69,204.991v-2.856H70.79v6.771H69.125Z" transform="translate(-5.392 -8.128)"/><path class="cls-3" d="M74.36,208.906H72.569v-6.771h1.664V203.1A2.89,2.89,0,0,1,75,202.2a1.412,1.412,0,0,1,.774-0.217,2.281,2.281,0,0,1,1.18.338L76.4,203.882a1.574,1.574,0,0,0-.842-0.293,1,1,0,0,0-.638.207,1.415,1.415,0,0,0-.411.749,10.627,10.627,0,0,0-.15,2.27v2.092Z" transform="translate(-5.392 -8.128)"/><path class="cls-3" d="M77.727,201.217v-1.658h1.792v1.658H77.727Zm0,7.689v-6.771h1.792v6.771H77.727Z" transform="translate(-5.392 -8.128)"/><path class="cls-3" d="M84.46,202.135v1.429H83.236v2.729a6.76,6.76,0,0,0,.035.966,0.39,0.39,0,0,0,.159.227,0.5,0.5,0,0,0,.3.089,2.3,2.3,0,0,0,.721-0.172l0.153,1.39a3.557,3.557,0,0,1-1.416.269,2.246,2.246,0,0,1-.874-0.163,1.269,1.269,0,0,1-.57-0.421,1.659,1.659,0,0,1-.252-0.7,8.616,8.616,0,0,1-.058-1.262v-2.952H80.615v-1.429h0.822v-1.346l1.8-1.045v2.391H84.46Z" transform="translate(-5.392 -8.128)"/><path class="cls-3" d="M85.7,201.217v-1.658H87.5v1.658H85.7Zm0,7.689v-6.771H87.5v6.771H85.7Z" transform="translate(-5.392 -8.128)"/><path class="cls-3" d="M93.252,206.751l1.786,0.3a2.929,2.929,0,0,1-1.087,1.5,3.189,3.189,0,0,1-1.858.514,3.029,3.029,0,0,1-2.614-1.154,3.878,3.878,0,0,1-.669-2.334,3.739,3.739,0,0,1,.88-2.637,2.9,2.9,0,0,1,2.225-.953,3.007,3.007,0,0,1,2.385,1,4.415,4.415,0,0,1,.835,3.058H90.645a1.813,1.813,0,0,0,.434,1.24,1.357,1.357,0,0,0,1.033.443,1.1,1.1,0,0,0,.708-0.229A1.42,1.42,0,0,0,93.252,206.751Zm0.1-1.811a1.724,1.724,0,0,0-.4-1.183,1.232,1.232,0,0,0-.931-0.405,1.244,1.244,0,0,0-.969.428,1.651,1.651,0,0,0-.376,1.16h2.678Z" transform="translate(-5.392 -8.128)"/><path class="cls-3" d="M95.962,206.975l1.8-.274a1.32,1.32,0,0,0,.465.794,1.574,1.574,0,0,0,.982.271,1.774,1.774,0,0,0,1.046-.255,0.57,0.57,0,0,0,.236-0.479,0.472,0.472,0,0,0-.127-0.338,1.431,1.431,0,0,0-.6-0.235,9.677,9.677,0,0,1-2.749-.874,1.744,1.744,0,0,1-.8-1.523,1.878,1.878,0,0,1,.695-1.479,3.246,3.246,0,0,1,2.155-.6,3.76,3.76,0,0,1,2.066.453,2.312,2.312,0,0,1,.931,1.339l-1.689.313a1.043,1.043,0,0,0-.411-0.605,1.5,1.5,0,0,0-.864-0.211,1.945,1.945,0,0,0-1.014.2,0.422,0.422,0,0,0-.2.363,0.4,0.4,0,0,0,.179.325,6.711,6.711,0,0,0,1.674.5,4.981,4.981,0,0,1,2,.8,1.655,1.655,0,0,1,.562,1.332,2.046,2.046,0,0,1-.778,1.6,3.443,3.443,0,0,1-2.3.67,3.776,3.776,0,0,1-2.19-.562A2.584,2.584,0,0,1,95.962,206.975Z" transform="translate(-5.392 -8.128)"/><path class="cls-3" d="M25.918,227.324H24.687a12.4,12.4,0,0,1-1.485-3.061,10.02,10.02,0,0,1-.51-3.073,9.647,9.647,0,0,1,.631-3.487,12.26,12.26,0,0,1,1.39-2.634h1.224a19.363,19.363,0,0,0-1.2,3.287,12.368,12.368,0,0,0-.134,5.015,13.972,13.972,0,0,0,.533,2.085Q25.356,226.106,25.918,227.324Z" transform="translate(-5.392 -8.128)"/><path class="cls-3" d="M26.83,221.535l1.836-.179a2.235,2.235,0,0,0,.673,1.357,2.028,2.028,0,0,0,1.368.434,2.1,2.1,0,0,0,1.374-.386,1.147,1.147,0,0,0,.462-0.9,0.849,0.849,0,0,0-.195-0.564,1.556,1.556,0,0,0-.679-0.405q-0.332-.114-1.511-0.408a5.123,5.123,0,0,1-2.13-.924,2.434,2.434,0,0,1-.861-1.882,2.4,2.4,0,0,1,.405-1.335,2.53,2.53,0,0,1,1.167-.947,4.676,4.676,0,0,1,1.84-.325,3.943,3.943,0,0,1,2.649.771,2.723,2.723,0,0,1,.934,2.06l-1.887.083a1.6,1.6,0,0,0-.52-1.036,1.9,1.9,0,0,0-1.2-.315,2.153,2.153,0,0,0-1.288.338,0.68,0.68,0,0,0-.3.58,0.718,0.718,0,0,0,.28.567,4.957,4.957,0,0,0,1.734.625,9.106,9.106,0,0,1,2.037.673,2.619,2.619,0,0,1,1.033.95,2.942,2.942,0,0,1-.073,2.993,2.671,2.671,0,0,1-1.263,1.042,5.29,5.29,0,0,1-2.034.342,4.05,4.05,0,0,1-2.723-.819A3.564,3.564,0,0,1,26.83,221.535Z" transform="translate(-5.392 -8.128)"/><path class="cls-3" d="M39.11,217.8v1.429H37.886v2.729a6.76,6.76,0,0,0,.035.966,0.39,0.39,0,0,0,.159.227,0.5,0.5,0,0,0,.3.089,2.3,2.3,0,0,0,.721-0.172l0.153,1.39a3.557,3.557,0,0,1-1.416.269,2.246,2.246,0,0,1-.874-0.163,1.269,1.269,0,0,1-.57-0.421,1.659,1.659,0,0,1-.252-0.7,8.616,8.616,0,0,1-.058-1.262v-2.952H35.266V217.8h0.822v-1.346l1.8-1.045V217.8H39.11Z" transform="translate(-5.392 -8.128)"/><path class="cls-3" d="M39.939,221.095a3.66,3.66,0,0,1,.44-1.728,3.016,3.016,0,0,1,1.247-1.275,3.7,3.7,0,0,1,1.8-.44,3.382,3.382,0,0,1,2.519,1,3.448,3.448,0,0,1,.982,2.521,3.49,3.49,0,0,1-.992,2.548,3.351,3.351,0,0,1-2.5,1.011,3.936,3.936,0,0,1-1.776-.421,2.888,2.888,0,0,1-1.285-1.234A4.107,4.107,0,0,1,39.939,221.095Zm1.836,0.1a2.243,2.243,0,0,0,.478,1.543,1.562,1.562,0,0,0,2.356,0,2.277,2.277,0,0,0,.475-1.556,2.235,2.235,0,0,0-.475-1.53,1.564,1.564,0,0,0-2.356,0A2.243,2.243,0,0,0,41.776,221.19Z" transform="translate(-5.392 -8.128)"/><path class="cls-3" d="M54.235,219.807l-1.767.319a1.277,1.277,0,0,0-.4-0.8,1.222,1.222,0,0,0-.819-0.269,1.338,1.338,0,0,0-1.068.463,2.367,2.367,0,0,0-.4,1.546,2.737,2.737,0,0,0,.4,1.7,1.329,1.329,0,0,0,1.087.5,1.2,1.2,0,0,0,.835-0.291,1.743,1.743,0,0,0,.459-1l1.76,0.3a3.119,3.119,0,0,1-1.052,1.829,3.253,3.253,0,0,1-2.085.619,3.1,3.1,0,0,1-2.369-.937,4.271,4.271,0,0,1,0-5.206,3.147,3.147,0,0,1,2.4-.935,3.265,3.265,0,0,1,1.967.533A2.949,2.949,0,0,1,54.235,219.807Z" transform="translate(-5.392 -8.128)"/><path class="cls-3" d="M55.529,224.576v-9.348H57.32v4.961l2.1-2.385h2.206l-2.314,2.474,2.48,4.3H59.858l-1.7-3.041-0.835.873v2.168H55.529Z" transform="translate(-5.392 -8.128)"/><path class="cls-3" d="M62.224,222.645l1.8-.274a1.32,1.32,0,0,0,.465.794,1.574,1.574,0,0,0,.982.271,1.774,1.774,0,0,0,1.046-.255,0.57,0.57,0,0,0,.236-0.479,0.472,0.472,0,0,0-.127-0.338,1.431,1.431,0,0,0-.6-0.235,9.677,9.677,0,0,1-2.749-.874,1.744,1.744,0,0,1-.8-1.523,1.878,1.878,0,0,1,.695-1.479,3.246,3.246,0,0,1,2.155-.6,3.76,3.76,0,0,1,2.066.453,2.312,2.312,0,0,1,.931,1.339l-1.689.313a1.043,1.043,0,0,0-.411-0.605,1.5,1.5,0,0,0-.864-0.211,1.945,1.945,0,0,0-1.014.2,0.422,0.422,0,0,0-.2.363,0.4,0.4,0,0,0,.179.325,6.711,6.711,0,0,0,1.674.5,4.981,4.981,0,0,1,2,.8,1.655,1.655,0,0,1,.562,1.332,2.046,2.046,0,0,1-.778,1.6,3.443,3.443,0,0,1-2.3.67,3.776,3.776,0,0,1-2.19-.562A2.584,2.584,0,0,1,62.224,222.645Z" transform="translate(-5.392 -8.128)"/><path class="cls-3" d="M70.072,222.784h1.792v1.282a4.464,4.464,0,0,1-.134,1.228,1.833,1.833,0,0,1-.507.806,2.6,2.6,0,0,1-.947.562l-0.351-.739a1.513,1.513,0,0,0,.771-0.491,1.476,1.476,0,0,0,.242-0.854H70.072v-1.792Z" transform="translate(-5.392 -8.128)"/><path class="cls-3" d="M77.392,215.229h3.736a10.8,10.8,0,0,1,1.655.093,2.43,2.43,0,0,1,.975.386,2.391,2.391,0,0,1,.717.781,2.115,2.115,0,0,1,.287,1.094,2.216,2.216,0,0,1-1.313,2.027,2.461,2.461,0,0,1,1.313.848,2.25,2.25,0,0,1,.459,1.409,2.777,2.777,0,0,1-.3,1.24,2.5,2.5,0,0,1-.81.963,2.679,2.679,0,0,1-1.266.443q-0.472.051-2.276,0.063H77.392v-9.348Zm1.887,1.556v2.162h1.237q1.1,0,1.371-.032a1.242,1.242,0,0,0,.762-0.335,0.985,0.985,0,0,0,.277-0.729,1.028,1.028,0,0,0-.239-0.705,1.082,1.082,0,0,0-.711-0.328q-0.281-.032-1.613-0.032H79.279Zm0,3.718V223h1.747a8.606,8.606,0,0,0,1.294-.057,1.178,1.178,0,0,0,.686-0.373,1.151,1.151,0,0,0,.264-0.794,1.224,1.224,0,0,0-.2-0.715,1.154,1.154,0,0,0-.59-0.427A6.434,6.434,0,0,0,80.8,220.5H79.279Z" transform="translate(-5.392 -8.128)"/><path class="cls-3" d="M86.389,221.095a3.66,3.66,0,0,1,.44-1.728,3.016,3.016,0,0,1,1.247-1.275,3.7,3.7,0,0,1,1.8-.44,3.382,3.382,0,0,1,2.519,1,3.448,3.448,0,0,1,.982,2.521,3.49,3.49,0,0,1-.992,2.548,3.351,3.351,0,0,1-2.5,1.011,3.936,3.936,0,0,1-1.776-.421,2.888,2.888,0,0,1-1.285-1.234A4.107,4.107,0,0,1,86.389,221.095Zm1.836,0.1a2.243,2.243,0,0,0,.478,1.543,1.562,1.562,0,0,0,2.356,0,2.277,2.277,0,0,0,.475-1.556,2.235,2.235,0,0,0-.475-1.53,1.564,1.564,0,0,0-2.356,0A2.243,2.243,0,0,0,88.225,221.19Z" transform="translate(-5.392 -8.128)"/><path class="cls-3" d="M100.939,224.576H99.147V221.12a5.342,5.342,0,0,0-.115-1.419,1,1,0,0,0-.373-0.5,1.066,1.066,0,0,0-.622-0.179,1.436,1.436,0,0,0-.835.255,1.285,1.285,0,0,0-.507.676,5.83,5.83,0,0,0-.137,1.556v3.067H94.767V217.8h1.665v1a2.773,2.773,0,0,1,3.315-.935,1.821,1.821,0,0,1,.743.545,1.976,1.976,0,0,1,.351.753,5.585,5.585,0,0,1,.1,1.205v4.208Z" transform="translate(-5.392 -8.128)"/><path class="cls-3" d="M108.966,224.576H107.3v-1a2.677,2.677,0,0,1-.979.864,2.51,2.51,0,0,1-1.138.284,2.579,2.579,0,0,1-2-.94,3.827,3.827,0,0,1-.832-2.624,3.781,3.781,0,0,1,.81-2.617,2.64,2.64,0,0,1,2.047-.9,2.537,2.537,0,0,1,1.964.944v-3.367h1.792v9.348Zm-4.782-3.532a3.1,3.1,0,0,0,.3,1.568,1.353,1.353,0,0,0,1.211.7,1.318,1.318,0,0,0,1.052-.525,2.431,2.431,0,0,0,.434-1.572,2.655,2.655,0,0,0-.421-1.68,1.33,1.33,0,0,0-1.078-.514,1.347,1.347,0,0,0-1.068.507A2.29,2.29,0,0,0,104.185,221.044Z" transform="translate(-5.392 -8.128)"/><path class="cls-3" d="M110.1,222.645l1.8-.274a1.32,1.32,0,0,0,.465.794,1.574,1.574,0,0,0,.982.271,1.774,1.774,0,0,0,1.046-.255,0.57,0.57,0,0,0,.236-0.479,0.472,0.472,0,0,0-.127-0.338,1.431,1.431,0,0,0-.6-0.235,9.677,9.677,0,0,1-2.749-.874,1.744,1.744,0,0,1-.8-1.523,1.878,1.878,0,0,1,.695-1.479,3.246,3.246,0,0,1,2.155-.6,3.76,3.76,0,0,1,2.066.453,2.312,2.312,0,0,1,.931,1.339l-1.689.313a1.043,1.043,0,0,0-.411-0.605,1.5,1.5,0,0,0-.864-0.211,1.945,1.945,0,0,0-1.014.2,0.422,0.422,0,0,0-.2.363,0.4,0.4,0,0,0,.179.325,6.711,6.711,0,0,0,1.674.5,4.981,4.981,0,0,1,2,.8,1.655,1.655,0,0,1,.562,1.332,2.046,2.046,0,0,1-.778,1.6,3.443,3.443,0,0,1-2.3.67,3.776,3.776,0,0,1-2.19-.562A2.584,2.584,0,0,1,110.1,222.645Z" transform="translate(-5.392 -8.128)"/><path class="cls-3" d="M117.5,227.324q0.53-1.135.746-1.74a13.018,13.018,0,0,0,.4-1.4,14.66,14.66,0,0,0,.274-1.5,11.675,11.675,0,0,0,.089-1.457,12.272,12.272,0,0,0-.325-2.872,19.142,19.142,0,0,0-1.2-3.287H118.7a11.723,11.723,0,0,1,1.5,2.907,9.466,9.466,0,0,1,.533,3.118,10.767,10.767,0,0,1-.421,2.856,12.01,12.01,0,0,1-1.575,3.373H117.5Z" transform="translate(-5.392 -8.128)"/><rect class="cls-4" x="228.025" y="78.857" width="37.331" height="17.507" transform="translate(328.908 -167.209) rotate(90)"/><polygon class="cls-4" points="254.617 98.147 241.298 121.216 227.979 98.147 254.617 98.147"/><rect class="cls-4" x="117.721" y="196.274" width="37.331" height="17.507"/><polygon class="cls-4" points="155.052 191.709 178.121 205.028 155.052 218.347 155.052 191.709"/><rect class="cls-4" x="342.472" y="207.283" width="37.331" height="17.507" transform="translate(716.883 423.945) rotate(180)"/><polygon class="cls-4" points="337.08 221.227 314.011 207.908 337.08 194.589 337.08 221.227"/><path class="cls-3" d="M391.853,203.2a5.94,5.94,0,0,1,.428-2.4,4.377,4.377,0,0,1,.87-1.281,3.626,3.626,0,0,1,1.208-.842,5.121,5.121,0,0,1,2.015-.37,4.393,4.393,0,0,1,3.307,1.281,5.726,5.726,0,0,1,.009,7.106,4.354,4.354,0,0,1-3.29,1.278,4.4,4.4,0,0,1-3.315-1.271A4.83,4.83,0,0,1,391.853,203.2Zm1.944-.063a3.5,3.5,0,0,0,.733,2.406,2.522,2.522,0,0,0,3.715.007,3.574,3.574,0,0,0,.724-2.439,3.512,3.512,0,0,0-.705-2.4,2.61,2.61,0,0,0-3.752.009A3.531,3.531,0,0,0,393.8,203.139Z" transform="translate(-5.392 -8.128)"/><path class="cls-3" d="M405.484,201.047v1.429h-1.224V205.2a6.76,6.76,0,0,0,.035.966,0.392,0.392,0,0,0,.159.227,0.5,0.5,0,0,0,.3.089,2.3,2.3,0,0,0,.721-0.172l0.153,1.39a3.562,3.562,0,0,1-1.416.269,2.24,2.24,0,0,1-.873-0.163,1.269,1.269,0,0,1-.571-0.421,1.659,1.659,0,0,1-.252-0.7,8.738,8.738,0,0,1-.057-1.262v-2.952H401.64v-1.429h0.823V199.7l1.8-1.045v2.391h1.224Z" transform="translate(-5.392 -8.128)"/><path class="cls-3" d="M408.514,198.471v3.437a2.686,2.686,0,0,1,3.188-.784,1.828,1.828,0,0,1,.749.587,2.126,2.126,0,0,1,.344.791,7.067,7.067,0,0,1,.093,1.345v3.973H411.1v-3.577a5.334,5.334,0,0,0-.1-1.352,0.893,0.893,0,0,0-.36-0.456,1.161,1.161,0,0,0-.647-0.169,1.482,1.482,0,0,0-.8.217,1.253,1.253,0,0,0-.514.653,3.911,3.911,0,0,0-.162,1.292v3.392h-1.792v-9.348h1.792Z" transform="translate(-5.392 -8.128)"/><path class="cls-3" d="M418.626,205.663l1.785,0.3a2.928,2.928,0,0,1-1.087,1.5,3.188,3.188,0,0,1-1.858.514,3.029,3.029,0,0,1-2.614-1.154,3.878,3.878,0,0,1-.67-2.334,3.743,3.743,0,0,1,.88-2.637,2.9,2.9,0,0,1,2.226-.953,3.006,3.006,0,0,1,2.385,1,4.418,4.418,0,0,1,.835,3.058h-4.488a1.813,1.813,0,0,0,.434,1.24,1.357,1.357,0,0,0,1.032.443,1.1,1.1,0,0,0,.708-0.229A1.42,1.42,0,0,0,418.626,205.663Zm0.1-1.811a1.725,1.725,0,0,0-.4-1.183,1.231,1.231,0,0,0-.931-0.405,1.243,1.243,0,0,0-.969.428,1.649,1.649,0,0,0-.377,1.16h2.679Z" transform="translate(-5.392 -8.128)"/><path class="cls-3" d="M423.683,207.818h-1.792v-6.771h1.665v0.963a2.884,2.884,0,0,1,.768-0.9,1.416,1.416,0,0,1,.775-0.217,2.279,2.279,0,0,1,1.179.338l-0.555,1.563a1.572,1.572,0,0,0-.841-0.293,1,1,0,0,0-.638.207,1.409,1.409,0,0,0-.411.749,10.582,10.582,0,0,0-.15,2.27v2.092Z" transform="translate(-5.392 -8.128)"/><path class="cls-3" d="M438.635,207.818h-2.053l-0.816-2.123h-3.736l-0.771,2.123h-2l3.641-9.348h2Zm-3.475-3.7-1.288-3.469-1.263,3.469h2.551Z" transform="translate(-5.392 -8.128)"/><path class="cls-3" d="M438.992,205.887l1.8-.274a1.317,1.317,0,0,0,.465.794,1.575,1.575,0,0,0,.982.271,1.776,1.776,0,0,0,1.046-.255,0.572,0.572,0,0,0,.235-0.479,0.472,0.472,0,0,0-.127-0.338,1.44,1.44,0,0,0-.6-0.235,9.672,9.672,0,0,1-2.748-.874,1.742,1.742,0,0,1-.8-1.523,1.877,1.877,0,0,1,.7-1.479,3.246,3.246,0,0,1,2.155-.6,3.759,3.759,0,0,1,2.065.453,2.314,2.314,0,0,1,.931,1.339L443.4,203a1.04,1.04,0,0,0-.411-0.605,1.5,1.5,0,0,0-.864-0.211,1.945,1.945,0,0,0-1.014.2,0.423,0.423,0,0,0-.2.363,0.4,0.4,0,0,0,.179.325,6.711,6.711,0,0,0,1.674.5,4.99,4.99,0,0,1,2,.8,1.655,1.655,0,0,1,.561,1.332,2.045,2.045,0,0,1-.777,1.6,3.444,3.444,0,0,1-2.3.67,3.778,3.778,0,0,1-2.19-.562A2.585,2.585,0,0,1,438.992,205.887Z" transform="translate(-5.392 -8.128)"/><path class="cls-3" d="M446.255,205.887l1.8-.274a1.317,1.317,0,0,0,.465.794,1.575,1.575,0,0,0,.982.271,1.776,1.776,0,0,0,1.046-.255,0.572,0.572,0,0,0,.235-0.479,0.472,0.472,0,0,0-.127-0.338,1.44,1.44,0,0,0-.6-0.235,9.672,9.672,0,0,1-2.748-.874,1.742,1.742,0,0,1-.8-1.523,1.877,1.877,0,0,1,.7-1.479,3.246,3.246,0,0,1,2.155-.6,3.759,3.759,0,0,1,2.065.453,2.314,2.314,0,0,1,.931,1.339l-1.689.313a1.04,1.04,0,0,0-.411-0.605,1.5,1.5,0,0,0-.864-0.211,1.945,1.945,0,0,0-1.014.2,0.423,0.423,0,0,0-.2.363,0.4,0.4,0,0,0,.179.325,6.711,6.711,0,0,0,1.674.5,4.99,4.99,0,0,1,2,.8,1.655,1.655,0,0,1,.561,1.332,2.045,2.045,0,0,1-.777,1.6,3.444,3.444,0,0,1-2.3.67,3.778,3.778,0,0,1-2.19-.562A2.585,2.585,0,0,1,446.255,205.887Z" transform="translate(-5.392 -8.128)"/><path class="cls-3" d="M458.07,205.663l1.785,0.3a2.928,2.928,0,0,1-1.087,1.5,3.188,3.188,0,0,1-1.858.514,3.029,3.029,0,0,1-2.614-1.154,3.878,3.878,0,0,1-.67-2.334,3.743,3.743,0,0,1,.88-2.637,2.9,2.9,0,0,1,2.226-.953,3.006,3.006,0,0,1,2.385,1,4.418,4.418,0,0,1,.835,3.058h-4.488a1.813,1.813,0,0,0,.434,1.24,1.357,1.357,0,0,0,1.032.443,1.1,1.1,0,0,0,.708-0.229A1.42,1.42,0,0,0,458.07,205.663Zm0.1-1.811a1.725,1.725,0,0,0-.4-1.183,1.231,1.231,0,0,0-.931-0.405,1.243,1.243,0,0,0-.969.428,1.649,1.649,0,0,0-.377,1.16h2.679Z" transform="translate(-5.392 -8.128)"/><path class="cls-3" d="M464.517,201.047v1.429h-1.224V205.2a6.76,6.76,0,0,0,.035.966,0.392,0.392,0,0,0,.159.227,0.5,0.5,0,0,0,.3.089,2.3,2.3,0,0,0,.721-0.172l0.153,1.39a3.562,3.562,0,0,1-1.416.269,2.24,2.24,0,0,1-.873-0.163,1.269,1.269,0,0,1-.571-0.421,1.659,1.659,0,0,1-.252-0.7,8.738,8.738,0,0,1-.057-1.262v-2.952h-0.823v-1.429H461.5V199.7l1.8-1.045v2.391h1.224Z" transform="translate(-5.392 -8.128)"/><path class="cls-3" d="M465.129,205.887l1.8-.274a1.317,1.317,0,0,0,.465.794,1.575,1.575,0,0,0,.982.271,1.776,1.776,0,0,0,1.046-.255,0.572,0.572,0,0,0,.235-0.479,0.472,0.472,0,0,0-.127-0.338,1.44,1.44,0,0,0-.6-0.235,9.672,9.672,0,0,1-2.748-.874,1.742,1.742,0,0,1-.8-1.523,1.877,1.877,0,0,1,.7-1.479,3.246,3.246,0,0,1,2.155-.6,3.759,3.759,0,0,1,2.065.453,2.314,2.314,0,0,1,.931,1.339l-1.689.313a1.04,1.04,0,0,0-.411-0.605,1.5,1.5,0,0,0-.864-0.211,1.945,1.945,0,0,0-1.014.2,0.423,0.423,0,0,0-.2.363,0.4,0.4,0,0,0,.179.325,6.711,6.711,0,0,0,1.674.5,4.99,4.99,0,0,1,2,.8,1.655,1.655,0,0,1,.561,1.332,2.045,2.045,0,0,1-.777,1.6,3.444,3.444,0,0,1-2.3.67,3.778,3.778,0,0,1-2.19-.562A2.585,2.585,0,0,1,465.129,205.887Z" transform="translate(-5.392 -8.128)"/><path class="cls-3" d="M370.764,226.236h-1.23a12.379,12.379,0,0,1-1.485-3.061,10.034,10.034,0,0,1-.51-3.073,9.647,9.647,0,0,1,.631-3.487,12.258,12.258,0,0,1,1.39-2.634h1.225a19.363,19.363,0,0,0-1.2,3.287,12.368,12.368,0,0,0-.134,5.015,14.092,14.092,0,0,0,.532,2.085Q370.2,225.019,370.764,226.236Z" transform="translate(-5.392 -8.128)"/><path class="cls-3" d="M372.142,215.8v-1.658h1.791V215.8h-1.791Zm0,7.689v-6.771h1.791v6.771h-1.791Z" transform="translate(-5.392 -8.128)"/><path class="cls-3" d="M375.77,223.488V221.7h1.791v1.792H375.77Z" transform="translate(-5.392 -8.128)"/><path class="cls-3" d="M383.318,221.333l1.785,0.3a2.928,2.928,0,0,1-1.087,1.5,3.188,3.188,0,0,1-1.858.514,3.029,3.029,0,0,1-2.614-1.154,3.878,3.878,0,0,1-.67-2.334,3.743,3.743,0,0,1,.88-2.637,2.9,2.9,0,0,1,2.226-.953,3.006,3.006,0,0,1,2.385,1,4.418,4.418,0,0,1,.835,3.058h-4.488a1.813,1.813,0,0,0,.434,1.24,1.357,1.357,0,0,0,1.032.443,1.1,1.1,0,0,0,.708-0.229A1.42,1.42,0,0,0,383.318,221.333Zm0.1-1.811a1.725,1.725,0,0,0-.4-1.183,1.231,1.231,0,0,0-.931-0.405,1.243,1.243,0,0,0-.969.428,1.649,1.649,0,0,0-.377,1.16h2.679Z" transform="translate(-5.392 -8.128)"/><path class="cls-3" d="M386.66,223.488V221.7h1.791v1.792H386.66Z" transform="translate(-5.392 -8.128)"/><path class="cls-3" d="M396.032,223.488v-7.766h-2.773v-1.582h7.429v1.582H397.92v7.766h-1.888Z" transform="translate(-5.392 -8.128)"/><path class="cls-3" d="M401.656,215.8v-1.658h1.791V215.8h-1.791Zm0,7.689v-6.771h1.791v6.771h-1.791Z" transform="translate(-5.392 -8.128)"/><path class="cls-3" d="M405.15,216.717H406.8v0.925a2.656,2.656,0,0,1,2.11-1.078,2.274,2.274,0,0,1,1.129.269,2.055,2.055,0,0,1,.784.81,3.112,3.112,0,0,1,.962-0.81,2.365,2.365,0,0,1,1.1-.269,2.467,2.467,0,0,1,1.263.3,1.861,1.861,0,0,1,.771.89,3.867,3.867,0,0,1,.185,1.4v4.329h-1.792v-3.87a2.883,2.883,0,0,0-.185-1.3,0.849,0.849,0,0,0-.765-0.383,1.219,1.219,0,0,0-.708.229,1.279,1.279,0,0,0-.479.673,4.846,4.846,0,0,0-.146,1.4v3.252h-1.792v-3.711a5.111,5.111,0,0,0-.1-1.275,0.811,0.811,0,0,0-.3-0.427,0.935,0.935,0,0,0-.545-0.141,1.3,1.3,0,0,0-.746.224,1.221,1.221,0,0,0-.476.644,4.783,4.783,0,0,0-.144,1.4v3.29H405.15v-6.771Z" transform="translate(-5.392 -8.128)"/><path class="cls-3" d="M416.818,223.488v-9.348h1.792v3.367a2.537,2.537,0,0,1,1.964-.944,2.64,2.64,0,0,1,2.047.9,3.706,3.706,0,0,1,.81,2.572,3.919,3.919,0,0,1-.825,2.672,2.578,2.578,0,0,1-2.006.938,2.479,2.479,0,0,1-1.145-.29,2.728,2.728,0,0,1-.972-0.858v1h-1.665Zm1.779-3.532a2.874,2.874,0,0,0,.332,1.556,1.415,1.415,0,0,0,1.236.714,1.267,1.267,0,0,0,1.011-.507,2.494,2.494,0,0,0,.418-1.6,2.644,2.644,0,0,0-.421-1.674,1.33,1.33,0,0,0-1.078-.514,1.348,1.348,0,0,0-1.07.5A2.293,2.293,0,0,0,418.6,219.956Z" transform="translate(-5.392 -8.128)"/><path class="cls-3" d="M428.793,221.333l1.785,0.3a2.928,2.928,0,0,1-1.087,1.5,3.188,3.188,0,0,1-1.858.514,3.029,3.029,0,0,1-2.614-1.154,3.878,3.878,0,0,1-.67-2.334,3.743,3.743,0,0,1,.88-2.637,2.9,2.9,0,0,1,2.226-.953,3.006,3.006,0,0,1,2.385,1,4.418,4.418,0,0,1,.835,3.058h-4.488a1.813,1.813,0,0,0,.434,1.24,1.357,1.357,0,0,0,1.032.443,1.1,1.1,0,0,0,.708-0.229A1.42,1.42,0,0,0,428.793,221.333Zm0.1-1.811a1.725,1.725,0,0,0-.4-1.183,1.231,1.231,0,0,0-.931-0.405,1.243,1.243,0,0,0-.969.428,1.649,1.649,0,0,0-.377,1.16H428.9Z" transform="translate(-5.392 -8.128)"/><path class="cls-3" d="M433.85,223.488h-1.792v-6.771h1.665v0.963a2.884,2.884,0,0,1,.768-0.9,1.416,1.416,0,0,1,.775-0.217,2.279,2.279,0,0,1,1.179.338l-0.555,1.563a1.572,1.572,0,0,0-.841-0.293,1,1,0,0,0-.638.207,1.409,1.409,0,0,0-.411.749,10.582,10.582,0,0,0-.15,2.27v2.092Z" transform="translate(-5.392 -8.128)"/><path class="cls-3" d="M436.452,221.7h1.792v1.282a4.486,4.486,0,0,1-.134,1.228,1.842,1.842,0,0,1-.507.806,2.609,2.609,0,0,1-.947.562l-0.351-.739a1.513,1.513,0,0,0,.771-0.491,1.476,1.476,0,0,0,.242-0.854h-0.867V221.7Z" transform="translate(-5.392 -8.128)"/><path class="cls-3" d="M443.383,218.872a5.94,5.94,0,0,1,.428-2.4,4.377,4.377,0,0,1,.87-1.281,3.626,3.626,0,0,1,1.208-.842,5.121,5.121,0,0,1,2.015-.37,4.393,4.393,0,0,1,3.307,1.281,5.726,5.726,0,0,1,.009,7.106,4.354,4.354,0,0,1-3.29,1.278,4.4,4.4,0,0,1-3.315-1.271A4.83,4.83,0,0,1,443.383,218.872Zm1.944-.063a3.5,3.5,0,0,0,.733,2.406,2.522,2.522,0,0,0,3.715.007,3.574,3.574,0,0,0,.724-2.439,3.512,3.512,0,0,0-.705-2.4,2.61,2.61,0,0,0-3.752.009A3.531,3.531,0,0,0,445.327,218.809Z" transform="translate(-5.392 -8.128)"/><path class="cls-3" d="M453.91,215.8v-1.658H455.7V215.8H453.91Zm0,7.689v-6.771H455.7v6.771H453.91Z" transform="translate(-5.392 -8.128)"/><path class="cls-3" d="M457.538,223.488v-9.348h1.791v9.348h-1.791Z" transform="translate(-5.392 -8.128)"/><path class="cls-3" d="M461.121,221.7h1.792v1.282a4.486,4.486,0,0,1-.134,1.228,1.842,1.842,0,0,1-.507.806,2.609,2.609,0,0,1-.947.562l-0.351-.739a1.513,1.513,0,0,0,.771-0.491,1.476,1.476,0,0,0,.242-0.854h-0.867V221.7Z" transform="translate(-5.392 -8.128)"/><path class="cls-3" d="M472.783,220.052v-1.575h4.067V222.2a5.115,5.115,0,0,1-1.718,1.011,6.263,6.263,0,0,1-2.279.437,5.119,5.119,0,0,1-2.558-.615,3.919,3.919,0,0,1-1.639-1.76,5.69,5.69,0,0,1-.548-2.49,5.38,5.38,0,0,1,.612-2.595,4.118,4.118,0,0,1,1.791-1.74,4.833,4.833,0,0,1,2.238-.466,4.462,4.462,0,0,1,2.72.73,3.293,3.293,0,0,1,1.259,2.018l-1.874.351a1.981,1.981,0,0,0-.743-1.087,2.246,2.246,0,0,0-1.361-.4,2.558,2.558,0,0,0-1.967.784,3.3,3.3,0,0,0-.73,2.327,3.659,3.659,0,0,0,.74,2.5,2.469,2.469,0,0,0,1.938.832,3.248,3.248,0,0,0,1.189-.232,4.065,4.065,0,0,0,1.023-.564v-1.186h-2.161Z" transform="translate(-5.392 -8.128)"/><path class="cls-3" d="M479.918,218.782l-1.626-.293a2.531,2.531,0,0,1,.943-1.453,3.446,3.446,0,0,1,1.989-.473,4.285,4.285,0,0,1,1.786.284,1.783,1.783,0,0,1,.825.721,3.7,3.7,0,0,1,.239,1.6l-0.02,2.091a7.342,7.342,0,0,0,.086,1.317,3.865,3.865,0,0,0,.322.908h-1.772c-0.047-.119-0.1-0.295-0.172-0.529-0.03-.106-0.051-0.176-0.064-0.21a3.227,3.227,0,0,1-.981.669,2.82,2.82,0,0,1-1.116.224,2.306,2.306,0,0,1-1.647-.567,1.885,1.885,0,0,1-.6-1.435,1.924,1.924,0,0,1,.273-1.023,1.8,1.8,0,0,1,.769-0.689,6.025,6.025,0,0,1,1.425-.417,9.687,9.687,0,0,0,1.741-.44v-0.179a0.93,0.93,0,0,0-.255-0.736,1.53,1.53,0,0,0-.963-0.22,1.277,1.277,0,0,0-.746.188A1.3,1.3,0,0,0,479.918,218.782Zm2.4,1.454q-0.344.114-1.091,0.274a3.28,3.28,0,0,0-.976.313,0.748,0.748,0,0,0-.351.631,0.877,0.877,0,0,0,.281.65,0.979,0.979,0,0,0,.714.274,1.552,1.552,0,0,0,.925-0.319,1.119,1.119,0,0,0,.427-0.593,3.524,3.524,0,0,0,.07-0.873v-0.357Z" transform="translate(-5.392 -8.128)"/><path class="cls-3" d="M485.21,221.557l1.8-.274a1.317,1.317,0,0,0,.465.794,1.575,1.575,0,0,0,.982.271,1.776,1.776,0,0,0,1.046-.255,0.572,0.572,0,0,0,.235-0.479,0.472,0.472,0,0,0-.127-0.338,1.44,1.44,0,0,0-.6-0.235,9.672,9.672,0,0,1-2.748-.874,1.742,1.742,0,0,1-.8-1.523,1.877,1.877,0,0,1,.7-1.479,3.246,3.246,0,0,1,2.155-.6,3.759,3.759,0,0,1,2.065.453,2.314,2.314,0,0,1,.931,1.339l-1.689.313a1.04,1.04,0,0,0-.411-0.605,1.5,1.5,0,0,0-.864-0.211,1.945,1.945,0,0,0-1.014.2,0.423,0.423,0,0,0-.2.363,0.4,0.4,0,0,0,.179.325,6.711,6.711,0,0,0,1.674.5,4.99,4.99,0,0,1,2,.8,1.655,1.655,0,0,1,.561,1.332,2.045,2.045,0,0,1-.777,1.6,3.444,3.444,0,0,1-2.3.67,3.778,3.778,0,0,1-2.19-.562A2.585,2.585,0,0,1,485.21,221.557Z" transform="translate(-5.392 -8.128)"/><path class="cls-3" d="M492.607,226.236q0.529-1.135.745-1.74a13.125,13.125,0,0,0,.4-1.4,14.667,14.667,0,0,0,.274-1.5,11.865,11.865,0,0,0,.089-1.457,12.272,12.272,0,0,0-.325-2.872,19.067,19.067,0,0,0-1.2-3.287h1.219a11.74,11.74,0,0,1,1.5,2.907,9.478,9.478,0,0,1,.532,3.118,10.767,10.767,0,0,1-.421,2.856,12.023,12.023,0,0,1-1.575,3.373h-1.236Z" transform="translate(-5.392 -8.128)"/><rect class="cls-4" x="335.742" y="118.492" width="37.331" height="17.507" transform="matrix(-0.919, 0.393, -0.393, -0.919, 724.91, 96.783)"/><polygon class="cls-4" points="337.089 138.702 310.641 135.525 326.616 114.209 337.089 138.702"/><path class="cls-3" d="M369.245,114.281v-9.348h3.028a10.955,10.955,0,0,1,2.244.141,2.452,2.452,0,0,1,1.346.915,2.9,2.9,0,0,1,.542,1.82,3.05,3.05,0,0,1-.312,1.447,2.558,2.558,0,0,1-.794.922,2.733,2.733,0,0,1-.979.442,10.721,10.721,0,0,1-1.957.134h-1.231v3.526h-1.887Zm1.887-7.766v2.652h1.033a4.845,4.845,0,0,0,1.492-.147,1.234,1.234,0,0,0,.59-0.459,1.254,1.254,0,0,0,.214-0.727,1.212,1.212,0,0,0-.3-0.842,1.306,1.306,0,0,0-.759-0.414,9.022,9.022,0,0,0-1.358-.063h-0.912Z" transform="translate(-5.392 -8.128)"/><path class="cls-3" d="M379.657,114.281h-1.792V107.51h1.665v0.963a2.884,2.884,0,0,1,.768-0.9,1.416,1.416,0,0,1,.775-0.217,2.279,2.279,0,0,1,1.179.338l-0.555,1.563a1.572,1.572,0,0,0-.841-0.293,1,1,0,0,0-.638.207,1.409,1.409,0,0,0-.411.749,10.582,10.582,0,0,0-.15,2.27v2.092Z" transform="translate(-5.392 -8.128)"/><path class="cls-3" d="M383.024,106.592v-1.658h1.791v1.658h-1.791Zm0,7.689V107.51h1.791v6.771h-1.791Z" transform="translate(-5.392 -8.128)"/><path class="cls-3" d="M388.514,114.281l-2.729-6.771h1.881l1.275,3.456,0.369,1.154q0.148-.441.186-0.581,0.089-.286.191-0.573l1.288-3.456h1.842l-2.69,6.771h-1.613Z" transform="translate(-5.392 -8.128)"/><path class="cls-3" d="M395.254,109.575l-1.626-.293a2.531,2.531,0,0,1,.943-1.453,3.446,3.446,0,0,1,1.989-.473,4.285,4.285,0,0,1,1.786.284,1.783,1.783,0,0,1,.825.721,3.7,3.7,0,0,1,.239,1.6l-0.02,2.091a7.342,7.342,0,0,0,.086,1.317,3.865,3.865,0,0,0,.322.908h-1.772c-0.047-.119-0.1-0.295-0.172-0.529-0.03-.106-0.051-0.176-0.064-0.21a3.227,3.227,0,0,1-.981.669,2.82,2.82,0,0,1-1.116.224,2.306,2.306,0,0,1-1.647-.567,1.885,1.885,0,0,1-.6-1.435,1.924,1.924,0,0,1,.273-1.023,1.8,1.8,0,0,1,.769-0.689,6.025,6.025,0,0,1,1.425-.417,9.687,9.687,0,0,0,1.741-.44v-0.179a0.93,0.93,0,0,0-.255-0.736,1.53,1.53,0,0,0-.963-0.22,1.277,1.277,0,0,0-.746.188A1.3,1.3,0,0,0,395.254,109.575Zm2.4,1.454q-0.344.114-1.091,0.274a3.28,3.28,0,0,0-.976.313,0.748,0.748,0,0,0-.351.631,0.877,0.877,0,0,0,.281.65,0.979,0.979,0,0,0,.714.274,1.552,1.552,0,0,0,.925-0.319,1.119,1.119,0,0,0,.427-0.593,3.524,3.524,0,0,0,.07-0.873v-0.357Z" transform="translate(-5.392 -8.128)"/><path class="cls-3" d="M404.282,107.51v1.429h-1.224v2.729a6.76,6.76,0,0,0,.035.966,0.392,0.392,0,0,0,.159.227,0.5,0.5,0,0,0,.3.089,2.3,2.3,0,0,0,.721-0.172l0.153,1.39a3.562,3.562,0,0,1-1.416.269,2.24,2.24,0,0,1-.873-0.163,1.269,1.269,0,0,1-.571-0.421,1.659,1.659,0,0,1-.252-0.7,8.738,8.738,0,0,1-.057-1.262v-2.952h-0.823V107.51h0.823v-1.346l1.8-1.045v2.391h1.224Z" transform="translate(-5.392 -8.128)"/><path class="cls-3" d="M409.447,112.126l1.785,0.3a2.928,2.928,0,0,1-1.087,1.5,3.188,3.188,0,0,1-1.858.514,3.029,3.029,0,0,1-2.614-1.154,3.878,3.878,0,0,1-.67-2.334,3.743,3.743,0,0,1,.88-2.637,2.9,2.9,0,0,1,2.226-.953,3.006,3.006,0,0,1,2.385,1,4.418,4.418,0,0,1,.835,3.058H406.84a1.813,1.813,0,0,0,.434,1.24,1.357,1.357,0,0,0,1.032.443,1.1,1.1,0,0,0,.708-0.229A1.42,1.42,0,0,0,409.447,112.126Zm0.1-1.811a1.725,1.725,0,0,0-.4-1.183,1.231,1.231,0,0,0-.931-0.405,1.243,1.243,0,0,0-.969.428,1.649,1.649,0,0,0-.377,1.16h2.679Z" transform="translate(-5.392 -8.128)"/><path class="cls-3" d="M416.43,114.281v-9.348h6.931v1.582h-5.044v2.071h4.693v1.575h-4.693v2.544h5.223v1.575H416.43Z" transform="translate(-5.392 -8.128)"/><path class="cls-3" d="M429.552,116.857v-3.405a2.549,2.549,0,0,1-.873.718,2.475,2.475,0,0,1-1.129.265,2.4,2.4,0,0,1-1.9-.867,4.047,4.047,0,0,1-.88-2.748,3.666,3.666,0,0,1,.826-2.548,2.65,2.65,0,0,1,2.05-.915,2.288,2.288,0,0,1,1.17.287,2.692,2.692,0,0,1,.877.867v-1h1.651v9.348h-1.792Zm0.058-6.045a2.375,2.375,0,0,0-.424-1.546,1.329,1.329,0,0,0-1.062-.507,1.365,1.365,0,0,0-1.087.517,2.515,2.515,0,0,0-.437,1.639,2.473,2.473,0,0,0,.421,1.609,1.31,1.31,0,0,0,1.039.494,1.383,1.383,0,0,0,1.084-.555A2.514,2.514,0,0,0,429.609,110.813Z" transform="translate(-5.392 -8.128)"/><path class="cls-3" d="M437.561,114.281v-1.014a2.615,2.615,0,0,1-.973.854,2.73,2.73,0,0,1-1.272.313,2.493,2.493,0,0,1-1.224-.3,1.769,1.769,0,0,1-.784-0.842,3.744,3.744,0,0,1-.242-1.5V107.51h1.791v3.111a8.682,8.682,0,0,0,.1,1.751,0.96,0.96,0,0,0,.36.51,1.111,1.111,0,0,0,.663.188,1.409,1.409,0,0,0,.823-0.251,1.282,1.282,0,0,0,.5-0.625,7.278,7.278,0,0,0,.134-1.827V107.51h1.792v6.771h-1.664Z" transform="translate(-5.392 -8.128)"/><path class="cls-3" d="M441.08,106.592v-1.658h1.791v1.658H441.08Zm0,7.689V107.51h1.791v6.771H441.08Z" transform="translate(-5.392 -8.128)"/><path class="cls-3" d="M447.813,107.51v1.429h-1.224v2.729a6.76,6.76,0,0,0,.035.966,0.392,0.392,0,0,0,.159.227,0.5,0.5,0,0,0,.3.089,2.3,2.3,0,0,0,.721-0.172l0.153,1.39a3.562,3.562,0,0,1-1.416.269,2.24,2.24,0,0,1-.873-0.163,1.269,1.269,0,0,1-.571-0.421,1.659,1.659,0,0,1-.252-0.7,8.738,8.738,0,0,1-.057-1.262v-2.952h-0.823V107.51h0.823v-1.346l1.8-1.045v2.391h1.224Z" transform="translate(-5.392 -8.128)"/><path class="cls-3" d="M448.208,107.51h1.907l1.619,4.808,1.581-4.808h1.855l-2.391,6.517-0.428,1.18a4.78,4.78,0,0,1-.449.905,1.963,1.963,0,0,1-.491.507,2.138,2.138,0,0,1-.682.3,3.548,3.548,0,0,1-.915.108,4.739,4.739,0,0,1-1.014-.108l-0.16-1.4a4.023,4.023,0,0,0,.759.083,1.126,1.126,0,0,0,.925-0.367,2.539,2.539,0,0,0,.459-0.934Z" transform="translate(-5.392 -8.128)"/><path class="cls-3" d="M374.63,129.951V120.6h1.888v9.348H374.63Z" transform="translate(-5.392 -8.128)"/><path class="cls-3" d="M384.462,129.951H382.67V126.5a5.371,5.371,0,0,0-.114-1.419,1,1,0,0,0-.373-0.5,1.068,1.068,0,0,0-.622-0.179,1.435,1.435,0,0,0-.835.255,1.28,1.28,0,0,0-.507.676,5.824,5.824,0,0,0-.138,1.556v3.067H378.29V123.18h1.664v1a2.773,2.773,0,0,1,3.315-.935,1.823,1.823,0,0,1,.743.545,1.983,1.983,0,0,1,.351.753,5.623,5.623,0,0,1,.1,1.205v4.208Z" transform="translate(-5.392 -8.128)"/><path class="cls-3" d="M388.141,129.951l-2.729-6.771h1.881l1.275,3.456,0.369,1.154q0.148-.441.186-0.581,0.089-.286.191-0.573l1.288-3.456h1.842l-2.69,6.771h-1.613Z" transform="translate(-5.392 -8.128)"/><path class="cls-3" d="M397.463,127.8l1.785,0.3a2.928,2.928,0,0,1-1.087,1.5,3.188,3.188,0,0,1-1.858.514,3.029,3.029,0,0,1-2.614-1.154,3.878,3.878,0,0,1-.67-2.334,3.743,3.743,0,0,1,.88-2.637,2.9,2.9,0,0,1,2.226-.953,3.006,3.006,0,0,1,2.385,1,4.418,4.418,0,0,1,.835,3.058h-4.488a1.813,1.813,0,0,0,.434,1.24,1.357,1.357,0,0,0,1.032.443,1.1,1.1,0,0,0,.708-0.229A1.42,1.42,0,0,0,397.463,127.8Zm0.1-1.811a1.725,1.725,0,0,0-.4-1.183,1.231,1.231,0,0,0-.931-0.405,1.243,1.243,0,0,0-.969.428,1.649,1.649,0,0,0-.377,1.16h2.679Z" transform="translate(-5.392 -8.128)"/><path class="cls-3" d="M400.173,128.02l1.8-.274a1.317,1.317,0,0,0,.465.794,1.575,1.575,0,0,0,.982.271,1.776,1.776,0,0,0,1.046-.255,0.572,0.572,0,0,0,.235-0.479,0.472,0.472,0,0,0-.127-0.338,1.44,1.44,0,0,0-.6-0.235,9.672,9.672,0,0,1-2.748-.874,1.742,1.742,0,0,1-.8-1.523,1.877,1.877,0,0,1,.7-1.479,3.246,3.246,0,0,1,2.155-.6,3.759,3.759,0,0,1,2.065.453,2.314,2.314,0,0,1,.931,1.339l-1.689.313a1.04,1.04,0,0,0-.411-0.605,1.5,1.5,0,0,0-.864-0.211,1.945,1.945,0,0,0-1.014.2,0.423,0.423,0,0,0-.2.363,0.4,0.4,0,0,0,.179.325,6.711,6.711,0,0,0,1.674.5,4.99,4.99,0,0,1,2,.8,1.655,1.655,0,0,1,.561,1.332,2.045,2.045,0,0,1-.777,1.6,3.444,3.444,0,0,1-2.3.67,3.778,3.778,0,0,1-2.19-.562A2.585,2.585,0,0,1,400.173,128.02Z" transform="translate(-5.392 -8.128)"/><path class="cls-3" d="M411.172,123.18v1.429h-1.224v2.729a6.76,6.76,0,0,0,.035.966,0.392,0.392,0,0,0,.159.227,0.5,0.5,0,0,0,.3.089,2.3,2.3,0,0,0,.721-0.172l0.153,1.39a3.562,3.562,0,0,1-1.416.269,2.24,2.24,0,0,1-.873-0.163,1.269,1.269,0,0,1-.571-0.421,1.659,1.659,0,0,1-.252-0.7,8.738,8.738,0,0,1-.057-1.262v-2.952h-0.823V123.18h0.823v-1.346l1.8-1.045v2.391h1.224Z" transform="translate(-5.392 -8.128)"/><path class="cls-3" d="M412.282,123.18h1.651V124.1a2.656,2.656,0,0,1,2.11-1.078,2.274,2.274,0,0,1,1.129.269,2.055,2.055,0,0,1,.784.81,3.112,3.112,0,0,1,.962-0.81,2.365,2.365,0,0,1,1.1-.269,2.467,2.467,0,0,1,1.263.3,1.861,1.861,0,0,1,.771.89,3.867,3.867,0,0,1,.185,1.4v4.329h-1.792v-3.87a2.883,2.883,0,0,0-.185-1.3,0.849,0.849,0,0,0-.765-0.383,1.219,1.219,0,0,0-.708.229,1.279,1.279,0,0,0-.479.673,4.846,4.846,0,0,0-.146,1.4v3.252h-1.792V126.24a5.111,5.111,0,0,0-.1-1.275,0.811,0.811,0,0,0-.3-0.427,0.935,0.935,0,0,0-.545-0.141,1.3,1.3,0,0,0-.746.224,1.221,1.221,0,0,0-.476.644,4.783,4.783,0,0,0-.144,1.4v3.29h-1.791V123.18Z" transform="translate(-5.392 -8.128)"/><path class="cls-3" d="M427.948,127.8l1.785,0.3a2.928,2.928,0,0,1-1.087,1.5,3.188,3.188,0,0,1-1.858.514,3.029,3.029,0,0,1-2.614-1.154,3.878,3.878,0,0,1-.67-2.334,3.743,3.743,0,0,1,.88-2.637,2.9,2.9,0,0,1,2.226-.953,3.006,3.006,0,0,1,2.385,1,4.418,4.418,0,0,1,.835,3.058h-4.488a1.813,1.813,0,0,0,.434,1.24,1.357,1.357,0,0,0,1.032.443,1.1,1.1,0,0,0,.708-0.229A1.42,1.42,0,0,0,427.948,127.8Zm0.1-1.811a1.725,1.725,0,0,0-.4-1.183,1.231,1.231,0,0,0-.931-0.405,1.243,1.243,0,0,0-.969.428,1.649,1.649,0,0,0-.377,1.16h2.679Z" transform="translate(-5.392 -8.128)"/><path class="cls-3" d="M437.449,129.951h-1.792V126.5a5.371,5.371,0,0,0-.114-1.419,1,1,0,0,0-.373-0.5,1.068,1.068,0,0,0-.622-0.179,1.435,1.435,0,0,0-.835.255,1.28,1.28,0,0,0-.507.676,5.824,5.824,0,0,0-.138,1.556v3.067h-1.791V123.18h1.664v1a2.773,2.773,0,0,1,3.315-.935,1.823,1.823,0,0,1,.743.545,1.983,1.983,0,0,1,.351.753,5.623,5.623,0,0,1,.1,1.205v4.208Z" transform="translate(-5.392 -8.128)"/><path class="cls-3" d="M442.371,123.18v1.429h-1.224v2.729a6.76,6.76,0,0,0,.035.966,0.392,0.392,0,0,0,.159.227,0.5,0.5,0,0,0,.3.089,2.3,2.3,0,0,0,.721-0.172l0.153,1.39a3.562,3.562,0,0,1-1.416.269,2.24,2.24,0,0,1-.873-0.163,1.269,1.269,0,0,1-.571-0.421,1.659,1.659,0,0,1-.252-0.7,8.738,8.738,0,0,1-.057-1.262v-2.952h-0.823V123.18h0.823v-1.346l1.8-1.045v2.391h1.224Z" transform="translate(-5.392 -8.128)"/><path class="cls-3" d="M442.983,128.02l1.8-.274a1.317,1.317,0,0,0,.465.794,1.575,1.575,0,0,0,.982.271,1.776,1.776,0,0,0,1.046-.255,0.572,0.572,0,0,0,.235-0.479,0.472,0.472,0,0,0-.127-0.338,1.44,1.44,0,0,0-.6-0.235,9.672,9.672,0,0,1-2.748-.874,1.742,1.742,0,0,1-.8-1.523,1.877,1.877,0,0,1,.7-1.479,3.246,3.246,0,0,1,2.155-.6,3.759,3.759,0,0,1,2.065.453,2.314,2.314,0,0,1,.931,1.339l-1.689.313a1.04,1.04,0,0,0-.411-0.605,1.5,1.5,0,0,0-.864-0.211,1.945,1.945,0,0,0-1.014.2,0.423,0.423,0,0,0-.2.363,0.4,0.4,0,0,0,.179.325,6.711,6.711,0,0,0,1.674.5,4.99,4.99,0,0,1,2,.8,1.655,1.655,0,0,1,.561,1.332,2.045,2.045,0,0,1-.777,1.6,3.444,3.444,0,0,1-2.3.67,3.778,3.778,0,0,1-2.19-.562A2.585,2.585,0,0,1,442.983,128.02Z" transform="translate(-5.392 -8.128)"/><rect class="cls-4" x="129.844" y="123.732" width="37.331" height="17.507" transform="translate(58.652 -55.846) rotate(23.15)"/><polygon class="cls-4" points="155.043 143.942 181.491 140.765 165.516 119.449 155.043 143.942"/></svg>