<svg id="Layer_1" data-name="Layer 1" xmlns="http://www.w3.org/2000/svg" viewBox="0 0 573.864 178.13"><defs><style>.cls-1,.cls-2,.cls-3,.cls-4,.cls-5,.cls-6{fill:none;}.cls-1,.cls-3{stroke:#d02027;}.cls-1,.cls-10,.cls-11,.cls-12,.cls-2,.cls-3,.cls-4,.cls-5,.cls-6{stroke-miterlimit:10;}.cls-1,.cls-10,.cls-11,.cls-12,.cls-5,.cls-6{stroke-width:2px;}.cls-2{stroke:#39b54a;}.cls-2,.cls-3,.cls-4{stroke-width:3px;}.cls-12,.cls-4,.cls-6{stroke:#af6f29;}.cls-10,.cls-5{stroke:#3bb54a;}.cls-12,.cls-7{fill:#af6f29;}.cls-8{fill:#231f20;}.cls-11,.cls-9{fill:#d02028;}.cls-10{fill:#3bb54a;}.cls-11{stroke:#d02028;}</style></defs><title>Determining_Final_Beneficiaries</title><line class="cls-1" x1="261.227" y1="126.102" x2="261.227" y2="95.026"/><line class="cls-2" x1="14.081" y1="14.742" x2="90.703" y2="14.742"/><line class="cls-3" x1="254.397" y1="14.742" x2="331.019" y2="14.742"/><line class="cls-4" x1="462.868" y1="14.742" x2="539.49" y2="14.742"/><line class="cls-5" x1="14.081" y1="95.026" x2="254.397" y2="95.026"/><line class="cls-1" x1="254.397" y1="95.026" x2="462.868" y2="95.026"/><line class="cls-6" x1="462.868" y1="95.026" x2="567.95" y2="95.026"/><path class="cls-7" d="M29.187,29.283v1.793h-6.57a4.747,4.747,0,0,1,.64-1.927,12.716,12.716,0,0,1,2.108-2.416,13.509,13.509,0,0,0,1.554-1.649,2.168,2.168,0,0,0,.387-1.182,1.368,1.368,0,0,0-.337-.993,1.4,1.4,0,0,0-1.864.017,1.906,1.906,0,0,0-.4,1.209l-1.868-.192a3.192,3.192,0,0,1,1.047-2.288,3.445,3.445,0,0,1,2.2-.694,3.126,3.126,0,0,1,2.275.8,2.676,2.676,0,0,1,.827,2,3.567,3.567,0,0,1-.237,1.3,5.3,5.3,0,0,1-.75,1.288,12.267,12.267,0,0,1-1.228,1.285q-.887.838-1.124,1.113a3.353,3.353,0,0,0-.383.536Z" transform="translate(-7.831 -20.962)"/><path class="cls-7" d="M33.623,20.962a2.641,2.641,0,0,1,2.221,1.044,6.82,6.82,0,0,1,.954,4.1,6.839,6.839,0,0,1-.96,4.109,2.637,2.637,0,0,1-2.215,1.031,2.769,2.769,0,0,1-2.3-1.13,6.84,6.84,0,0,1-.874-4.03,6.813,6.813,0,0,1,.96-4.1A2.636,2.636,0,0,1,33.623,20.962Zm0,1.6a.92.92,0,0,0-.607.224,1.512,1.512,0,0,0-.414.8,11.371,11.371,0,0,0-.193,2.522,11.273,11.273,0,0,0,.173,2.436,1.729,1.729,0,0,0,.437.883.938.938,0,0,0,1.21,0,1.51,1.51,0,0,0,.414-.8,11.259,11.259,0,0,0,.194-2.515,11.27,11.27,0,0,0-.174-2.436,1.758,1.758,0,0,0-.437-.886A.908.908,0,0,0,33.623,22.563Z" transform="translate(-7.831 -20.962)"/><path class="cls-7" d="M42.847,31.076H40.973V23.8a6.425,6.425,0,0,1-2.421,1.464V23.511a5.379,5.379,0,0,0,1.594-.937,3.556,3.556,0,0,0,1.181-1.611h1.521Z" transform="translate(-7.831 -20.962)"/><path class="cls-7" d="M45.582,28.4l1.814-.227a1.794,1.794,0,0,0,.467,1.093,1.293,1.293,0,0,0,1.9-.076,1.791,1.791,0,0,0,.4-1.223,1.669,1.669,0,0,0-.38-1.154,1.2,1.2,0,0,0-.927-.426,3.183,3.183,0,0,0-.861.144l.207-1.573a1.609,1.609,0,0,0,1.161-.34,1.228,1.228,0,0,0,.4-.958,1.115,1.115,0,0,0-.293-.811,1.038,1.038,0,0,0-.78-.3,1.112,1.112,0,0,0-.82.344,1.636,1.636,0,0,0-.414,1l-1.728-.3a4.055,4.055,0,0,1,.543-1.46,2.471,2.471,0,0,1,1.014-.859,3.317,3.317,0,0,1,1.457-.312,2.865,2.865,0,0,1,2.215.907,2.4,2.4,0,0,1,.687,1.677,2.375,2.375,0,0,1-1.408,2.116,2.266,2.266,0,0,1,1.344.832,2.462,2.462,0,0,1,.5,1.56,3.07,3.07,0,0,1-.94,2.261,3.435,3.435,0,0,1-4.542.148A3.124,3.124,0,0,1,45.582,28.4Z" transform="translate(-7.831 -20.962)"/><path class="cls-7" d="M269.5,29.283v1.793h-6.57a4.747,4.747,0,0,1,.64-1.927,12.716,12.716,0,0,1,2.108-2.416,13.509,13.509,0,0,0,1.554-1.649,2.168,2.168,0,0,0,.387-1.182,1.368,1.368,0,0,0-.337-.993,1.4,1.4,0,0,0-1.864.017,1.906,1.906,0,0,0-.4,1.209l-1.868-.192a3.192,3.192,0,0,1,1.047-2.288,3.445,3.445,0,0,1,2.2-.694,3.126,3.126,0,0,1,2.275.8,2.676,2.676,0,0,1,.827,2,3.567,3.567,0,0,1-.237,1.3,5.3,5.3,0,0,1-.75,1.288,12.267,12.267,0,0,1-1.228,1.285q-.887.838-1.124,1.113a3.353,3.353,0,0,0-.383.536Z" transform="translate(-7.831 -20.962)"/><path class="cls-7" d="M273.939,20.962a2.641,2.641,0,0,1,2.221,1.044,6.82,6.82,0,0,1,.954,4.1,6.839,6.839,0,0,1-.96,4.109,2.637,2.637,0,0,1-2.215,1.031,2.769,2.769,0,0,1-2.3-1.13,6.84,6.84,0,0,1-.874-4.03,6.813,6.813,0,0,1,.96-4.1A2.636,2.636,0,0,1,273.939,20.962Zm0,1.6a.92.92,0,0,0-.607.224,1.512,1.512,0,0,0-.414.8,11.371,11.371,0,0,0-.193,2.522,11.273,11.273,0,0,0,.173,2.436,1.729,1.729,0,0,0,.437.883.938.938,0,0,0,1.21,0,1.51,1.51,0,0,0,.414-.8,11.259,11.259,0,0,0,.194-2.515,11.27,11.27,0,0,0-.174-2.436,1.758,1.758,0,0,0-.437-.886A.908.908,0,0,0,273.939,22.563Z" transform="translate(-7.831 -20.962)"/><path class="cls-7" d="M283.164,31.076H281.29V23.8a6.425,6.425,0,0,1-2.421,1.464V23.511a5.379,5.379,0,0,0,1.594-.937,3.556,3.556,0,0,0,1.181-1.611h1.521Z" transform="translate(-7.831 -20.962)"/><path class="cls-7" d="M289.641,31.076V29.049h-4v-1.69l4.242-6.4h1.574v6.39h1.214v1.7h-1.214v2.027Zm0-3.724V23.91l-2.248,3.442Z" transform="translate(-7.831 -20.962)"/><path class="cls-7" d="M477.974,29.283v1.793H471.4a4.763,4.763,0,0,1,.641-1.927,12.728,12.728,0,0,1,2.107-2.416,13.445,13.445,0,0,0,1.555-1.649,2.168,2.168,0,0,0,.387-1.182,1.368,1.368,0,0,0-.337-.993,1.4,1.4,0,0,0-1.864.017,1.908,1.908,0,0,0-.4,1.209l-1.867-.192a3.192,3.192,0,0,1,1.047-2.288,3.446,3.446,0,0,1,2.2-.694,3.123,3.123,0,0,1,2.274.8,2.675,2.675,0,0,1,.827,2,3.588,3.588,0,0,1-.236,1.3,5.307,5.307,0,0,1-.751,1.288,12.232,12.232,0,0,1-1.227,1.285q-.888.838-1.124,1.113a3.328,3.328,0,0,0-.384.536Z" transform="translate(-7.831 -20.962)"/><path class="cls-7" d="M482.41,20.962a2.64,2.64,0,0,1,2.221,1.044,6.823,6.823,0,0,1,.954,4.1,6.835,6.835,0,0,1-.961,4.109,2.635,2.635,0,0,1-2.214,1.031,2.77,2.77,0,0,1-2.3-1.13,6.843,6.843,0,0,1-.874-4.03,6.809,6.809,0,0,1,.961-4.1A2.637,2.637,0,0,1,482.41,20.962Zm0,1.6a.919.919,0,0,0-.607.224,1.511,1.511,0,0,0-.413.8,11.31,11.31,0,0,0-.193,2.522,11.315,11.315,0,0,0,.173,2.436,1.733,1.733,0,0,0,.437.883.938.938,0,0,0,1.211,0,1.52,1.52,0,0,0,.414-.8,11.267,11.267,0,0,0,.193-2.515,11.237,11.237,0,0,0-.174-2.436,1.75,1.75,0,0,0-.437-.886A.907.907,0,0,0,482.41,22.563Z" transform="translate(-7.831 -20.962)"/><path class="cls-7" d="M491.635,31.076h-1.874V23.8a6.423,6.423,0,0,1-2.421,1.464V23.511a5.383,5.383,0,0,0,1.594-.937,3.563,3.563,0,0,0,1.181-1.611h1.521Z" transform="translate(-7.831 -20.962)"/><path class="cls-7" d="M494.464,28.486l1.867-.2a1.672,1.672,0,0,0,.474,1.034,1.267,1.267,0,0,0,.907.381,1.246,1.246,0,0,0,.994-.492,2.286,2.286,0,0,0,.406-1.48,2.067,2.067,0,0,0-.4-1.392,1.328,1.328,0,0,0-1.051-.464,1.888,1.888,0,0,0-1.447.735l-1.521-.227.96-5.243h4.956v1.807h-3.535l-.293,1.711a2.8,2.8,0,0,1,3.395.612,3.424,3.424,0,0,1,.867,2.425,3.712,3.712,0,0,1-.7,2.22,3.075,3.075,0,0,1-2.648,1.333,3.221,3.221,0,0,1-2.207-.749A3.111,3.111,0,0,1,494.464,28.486Z" transform="translate(-7.831 -20.962)"/><path class="cls-8" d="M19.13,165.153V155.08H22.5a7.933,7.933,0,0,1,1.741.145,3.271,3.271,0,0,1,1.434.721,4.106,4.106,0,0,1,1.158,1.721,6.95,6.95,0,0,1,.383,2.395,7.239,7.239,0,0,1-.26,2.034,4.989,4.989,0,0,1-.667,1.467,3.283,3.283,0,0,1-2.058,1.419,6.466,6.466,0,0,1-1.571.172Zm1.294-1.189h2.087a4.932,4.932,0,0,0,1.518-.185,2.16,2.16,0,0,0,.877-.522,3.2,3.2,0,0,0,.717-1.274,6.4,6.4,0,0,0,.257-1.941,4.806,4.806,0,0,0-.5-2.429,2.563,2.563,0,0,0-1.224-1.137,4.917,4.917,0,0,0-1.674-.206H20.425Z" transform="translate(-7.831 -20.962)"/><path class="cls-8" d="M33.465,164.253a4.449,4.449,0,0,1-1.284.824,3.615,3.615,0,0,1-1.324.241,2.527,2.527,0,0,1-1.794-.587,1.967,1.967,0,0,1-.627-1.5,2.043,2.043,0,0,1,.237-.979,2,2,0,0,1,.62-.711,2.874,2.874,0,0,1,.864-.405,8.3,8.3,0,0,1,1.067-.186,10.684,10.684,0,0,0,2.141-.426q.007-.254.007-.323a1.389,1.389,0,0,0-.34-1.065,1.97,1.97,0,0,0-1.367-.419,2.075,2.075,0,0,0-1.251.306,1.882,1.882,0,0,0-.6,1.083l-1.174-.165a3.044,3.044,0,0,1,.527-1.254,2.3,2.3,0,0,1,1.061-.735,4.6,4.6,0,0,1,1.607-.258,4.143,4.143,0,0,1,1.474.22,1.936,1.936,0,0,1,.833.553,1.963,1.963,0,0,1,.374.841,7.173,7.173,0,0,1,.06,1.141V162.1a18.111,18.111,0,0,0,.077,2.182,2.8,2.8,0,0,0,.3.876H33.705A2.685,2.685,0,0,1,33.465,164.253Zm-.1-2.763a8.559,8.559,0,0,1-1.961.467,4.438,4.438,0,0,0-1.047.248,1.054,1.054,0,0,0-.474.4,1.078,1.078,0,0,0-.167.587,1.067,1.067,0,0,0,.363.825,1.535,1.535,0,0,0,1.064.33,2.417,2.417,0,0,0,1.234-.313,1.9,1.9,0,0,0,.794-.855,3.068,3.068,0,0,0,.193-1.237Z" transform="translate(-7.831 -20.962)"/><path class="cls-8" d="M39.061,164.047l.173,1.093a4.33,4.33,0,0,1-.907.11,2.008,2.008,0,0,1-1.014-.213,1.178,1.178,0,0,1-.507-.56,4.544,4.544,0,0,1-.147-1.46v-4.2h-.88v-.962h.88v-1.807l1.194-.742v2.549h1.208v.962H37.854v4.267a2.205,2.205,0,0,0,.063.68.508.508,0,0,0,.207.241.777.777,0,0,0,.41.089A3.774,3.774,0,0,0,39.061,164.047Z" transform="translate(-7.831 -20.962)"/><path class="cls-8" d="M45.084,162.8l1.241.158a3.127,3.127,0,0,1-1.087,1.738,3.6,3.6,0,0,1-4.493-.368,3.924,3.924,0,0,1-.91-2.766,4.109,4.109,0,0,1,.92-2.858,3.072,3.072,0,0,1,2.388-1.017,2.986,2.986,0,0,1,2.321,1,4.032,4.032,0,0,1,.9,2.8q0,.111-.006.33H41.075a2.851,2.851,0,0,0,.661,1.841,1.936,1.936,0,0,0,1.48.639,1.8,1.8,0,0,0,1.127-.357A2.372,2.372,0,0,0,45.084,162.8Zm-3.942-2H45.1a2.517,2.517,0,0,0-.454-1.381,1.819,1.819,0,0,0-1.487-.715,1.88,1.88,0,0,0-1.391.57A2.293,2.293,0,0,0,41.142,160.8Z" transform="translate(-7.831 -20.962)"/><path class="cls-8" d="M51.181,161.5a3.823,3.823,0,0,1,1.094-3,3.239,3.239,0,0,1,2.228-.811,3.131,3.131,0,0,1,2.388.986,3.819,3.819,0,0,1,.927,2.725,4.953,4.953,0,0,1-.41,2.216,2.953,2.953,0,0,1-1.194,1.254,3.4,3.4,0,0,1-1.711.447,3.136,3.136,0,0,1-2.4-.983A4,4,0,0,1,51.181,161.5Zm1.234,0a3.172,3.172,0,0,0,.594,2.1,1.939,1.939,0,0,0,2.981,0,3.248,3.248,0,0,0,.594-2.137,3.076,3.076,0,0,0-.6-2.051,1.941,1.941,0,0,0-2.978,0A3.157,3.157,0,0,0,52.415,161.5Z" transform="translate(-7.831 -20.962)"/><path class="cls-8" d="M59.512,165.153v-6.335H58.451v-.962h1.061v-.776a3.494,3.494,0,0,1,.126-1.092,1.576,1.576,0,0,1,.61-.78,2.149,2.149,0,0,1,1.224-.3,5.71,5.71,0,0,1,1.121.124l-.18,1.079a3.909,3.909,0,0,0-.707-.069,1.031,1.031,0,0,0-.774.241,1.333,1.333,0,0,0-.227.9v.673h1.381v.962H60.706v6.335Z" transform="translate(-7.831 -20.962)"/><path class="cls-8" d="M66.969,165.153V155.08h3.369a7.933,7.933,0,0,1,1.741.145,3.271,3.271,0,0,1,1.434.721,4.106,4.106,0,0,1,1.158,1.721,6.95,6.95,0,0,1,.383,2.395,7.239,7.239,0,0,1-.26,2.034,4.989,4.989,0,0,1-.667,1.467,3.283,3.283,0,0,1-2.058,1.419,6.466,6.466,0,0,1-1.571.172Zm1.294-1.189h2.087a4.932,4.932,0,0,0,1.518-.185,2.16,2.16,0,0,0,.877-.522,3.2,3.2,0,0,0,.717-1.274,6.4,6.4,0,0,0,.257-1.941,4.806,4.806,0,0,0-.5-2.429,2.563,2.563,0,0,0-1.224-1.137,4.917,4.917,0,0,0-1.674-.206H68.263Z" transform="translate(-7.831 -20.962)"/><path class="cls-8" d="M81.53,162.8l1.241.158a3.127,3.127,0,0,1-1.087,1.738,3.6,3.6,0,0,1-4.493-.368,3.924,3.924,0,0,1-.91-2.766,4.109,4.109,0,0,1,.92-2.858,3.072,3.072,0,0,1,2.388-1.017,2.986,2.986,0,0,1,2.321,1,4.032,4.032,0,0,1,.9,2.8q0,.111-.006.33H77.521a2.851,2.851,0,0,0,.661,1.841,1.936,1.936,0,0,0,1.48.639,1.8,1.8,0,0,0,1.127-.357A2.372,2.372,0,0,0,81.53,162.8Zm-3.942-2h3.956a2.517,2.517,0,0,0-.454-1.381,1.819,1.819,0,0,0-1.487-.715,1.88,1.88,0,0,0-1.391.57A2.293,2.293,0,0,0,77.588,160.8Z" transform="translate(-7.831 -20.962)"/><path class="cls-8" d="M88.9,164.253a4.449,4.449,0,0,1-1.284.824,3.615,3.615,0,0,1-1.324.241,2.527,2.527,0,0,1-1.794-.587,1.967,1.967,0,0,1-.627-1.5,2.043,2.043,0,0,1,.237-.979,2,2,0,0,1,.62-.711,2.874,2.874,0,0,1,.864-.405,8.3,8.3,0,0,1,1.067-.186,10.684,10.684,0,0,0,2.141-.426q.007-.254.007-.323a1.389,1.389,0,0,0-.34-1.065,1.97,1.97,0,0,0-1.367-.419,2.075,2.075,0,0,0-1.251.306,1.882,1.882,0,0,0-.6,1.083l-1.174-.165a3.044,3.044,0,0,1,.527-1.254,2.3,2.3,0,0,1,1.061-.735,4.6,4.6,0,0,1,1.607-.258,4.143,4.143,0,0,1,1.474.22,1.936,1.936,0,0,1,.833.553,1.963,1.963,0,0,1,.374.841,7.173,7.173,0,0,1,.06,1.141V162.1a18.111,18.111,0,0,0,.077,2.182,2.8,2.8,0,0,0,.3.876H89.141A2.685,2.685,0,0,1,88.9,164.253Zm-.1-2.763a8.559,8.559,0,0,1-1.961.467,4.438,4.438,0,0,0-1.047.248,1.054,1.054,0,0,0-.474.4,1.078,1.078,0,0,0-.167.587,1.067,1.067,0,0,0,.363.825,1.535,1.535,0,0,0,1.064.33,2.417,2.417,0,0,0,1.234-.313,1.9,1.9,0,0,0,.794-.855,3.068,3.068,0,0,0,.193-1.237Z" transform="translate(-7.831 -20.962)"/><path class="cls-8" d="M94.5,164.047l.173,1.093a4.33,4.33,0,0,1-.907.11,2.008,2.008,0,0,1-1.014-.213,1.178,1.178,0,0,1-.507-.56,4.544,4.544,0,0,1-.147-1.46v-4.2h-.88v-.962h.88v-1.807l1.194-.742v2.549H94.5v.962H93.289v4.267a2.205,2.205,0,0,0,.063.68.508.508,0,0,0,.207.241.777.777,0,0,0,.41.089A3.774,3.774,0,0,0,94.5,164.047Z" transform="translate(-7.831 -20.962)"/><path class="cls-8" d="M95.67,165.153V155.08h1.2v3.614a2.651,2.651,0,0,1,2.121-1,2.8,2.8,0,0,1,1.368.32,1.851,1.851,0,0,1,.83.883,4.175,4.175,0,0,1,.25,1.635v4.625h-1.2v-4.625a1.952,1.952,0,0,0-.39-1.35,1.428,1.428,0,0,0-1.1-.422,1.9,1.9,0,0,0-1,.285,1.6,1.6,0,0,0-.67.773,3.648,3.648,0,0,0-.2,1.347v3.992Z" transform="translate(-7.831 -20.962)"/><path class="cls-8" d="M7.832,179.182,9,179.017a2.629,2.629,0,0,0,.42,1.581,1.3,1.3,0,0,0,1.034.426,1.508,1.508,0,0,0,.84-.23,1.176,1.176,0,0,0,.487-.625,4.3,4.3,0,0,0,.133-1.261v-6.94h1.294v6.864a5.141,5.141,0,0,1-.3,1.958,2.155,2.155,0,0,1-.941,1.058,3.018,3.018,0,0,1-1.511.364,2.51,2.51,0,0,1-1.971-.763A3.21,3.21,0,0,1,7.832,179.182Z" transform="translate(-7.831 -20.962)"/><path class="cls-8" d="M19.792,181.14a4.449,4.449,0,0,1-1.284.824,3.615,3.615,0,0,1-1.324.241,2.527,2.527,0,0,1-1.794-.587,1.967,1.967,0,0,1-.627-1.5,2.043,2.043,0,0,1,.237-.979,2,2,0,0,1,.62-.711,2.874,2.874,0,0,1,.864-.405,8.3,8.3,0,0,1,1.067-.186,10.684,10.684,0,0,0,2.141-.426q.007-.254.007-.323a1.389,1.389,0,0,0-.34-1.065,1.97,1.97,0,0,0-1.367-.419,2.075,2.075,0,0,0-1.251.306,1.882,1.882,0,0,0-.6,1.083l-1.174-.165a3.044,3.044,0,0,1,.527-1.254,2.3,2.3,0,0,1,1.061-.735,4.6,4.6,0,0,1,1.607-.258,4.143,4.143,0,0,1,1.474.22,1.936,1.936,0,0,1,.833.553,1.963,1.963,0,0,1,.374.841,7.173,7.173,0,0,1,.06,1.141v1.649a18.111,18.111,0,0,0,.077,2.182,2.8,2.8,0,0,0,.3.876H20.032A2.685,2.685,0,0,1,19.792,181.14Zm-.1-2.763a8.559,8.559,0,0,1-1.961.467,4.438,4.438,0,0,0-1.047.248,1.054,1.054,0,0,0-.474.4,1.078,1.078,0,0,0-.167.587,1.067,1.067,0,0,0,.363.825,1.535,1.535,0,0,0,1.064.33,2.417,2.417,0,0,0,1.234-.313,1.9,1.9,0,0,0,.794-.855,3.068,3.068,0,0,0,.193-1.237Z" transform="translate(-7.831 -20.962)"/><path class="cls-8" d="M22.766,182.04v-7.3h1.081v1.038a2.528,2.528,0,0,1,2.255-1.2,2.882,2.882,0,0,1,1.177.237,1.86,1.86,0,0,1,.8.622,2.429,2.429,0,0,1,.374.914,7.306,7.306,0,0,1,.066,1.2v4.487h-1.2V177.6a3.433,3.433,0,0,0-.14-1.13,1.183,1.183,0,0,0-.5-.6,1.545,1.545,0,0,0-.837-.223,1.911,1.911,0,0,0-1.324.5,2.521,2.521,0,0,0-.557,1.9v3.985Z" transform="translate(-7.831 -20.962)"/><path class="cls-8" d="M35.006,182.04v-1.072a2.574,2.574,0,0,1-2.248,1.237,2.79,2.79,0,0,1-1.17-.248,1.939,1.939,0,0,1-.807-.622,2.365,2.365,0,0,1-.37-.917,6.428,6.428,0,0,1-.073-1.154v-4.521h1.2v4.047a7.376,7.376,0,0,0,.074,1.306,1.291,1.291,0,0,0,.48.766,1.457,1.457,0,0,0,.907.278,1.935,1.935,0,0,0,1.014-.285,1.572,1.572,0,0,0,.67-.777,4,4,0,0,0,.2-1.426v-3.91h1.2v7.3Z" transform="translate(-7.831 -20.962)"/><path class="cls-8" d="M42.583,181.14a4.449,4.449,0,0,1-1.284.824,3.615,3.615,0,0,1-1.324.241,2.527,2.527,0,0,1-1.794-.587,1.967,1.967,0,0,1-.627-1.5,2.043,2.043,0,0,1,.237-.979,2,2,0,0,1,.62-.711,2.874,2.874,0,0,1,.864-.405,8.3,8.3,0,0,1,1.067-.186,10.684,10.684,0,0,0,2.141-.426q.007-.254.007-.323a1.389,1.389,0,0,0-.34-1.065,1.97,1.97,0,0,0-1.367-.419,2.075,2.075,0,0,0-1.251.306,1.882,1.882,0,0,0-.6,1.083l-1.174-.165a3.044,3.044,0,0,1,.527-1.254,2.3,2.3,0,0,1,1.061-.735,4.6,4.6,0,0,1,1.607-.258,4.143,4.143,0,0,1,1.474.22,1.936,1.936,0,0,1,.833.553,1.963,1.963,0,0,1,.374.841,7.173,7.173,0,0,1,.06,1.141v1.649a18.111,18.111,0,0,0,.077,2.182,2.8,2.8,0,0,0,.3.876H42.823A2.685,2.685,0,0,1,42.583,181.14Zm-.1-2.763a8.559,8.559,0,0,1-1.961.467,4.438,4.438,0,0,0-1.047.248,1.054,1.054,0,0,0-.474.4,1.078,1.078,0,0,0-.167.587,1.067,1.067,0,0,0,.363.825,1.535,1.535,0,0,0,1.064.33,2.417,2.417,0,0,0,1.234-.313,1.9,1.9,0,0,0,.794-.855,3.068,3.068,0,0,0,.193-1.237Z" transform="translate(-7.831 -20.962)"/><path class="cls-8" d="M45.544,182.04v-7.3h1.081v1.106a3.006,3.006,0,0,1,.764-1.024,1.305,1.305,0,0,1,.771-.248,2.3,2.3,0,0,1,1.234.4l-.414,1.147a1.68,1.68,0,0,0-.88-.268,1.124,1.124,0,0,0-.707.244,1.326,1.326,0,0,0-.447.677,4.936,4.936,0,0,0-.2,1.443v3.82Z" transform="translate(-7.831 -20.962)"/><path class="cls-8" d="M50.054,184.851l-.133-1.162a2.606,2.606,0,0,0,.687.11,1.284,1.284,0,0,0,.64-.138,1.1,1.1,0,0,0,.394-.385,6.154,6.154,0,0,0,.367-.921c.022-.068.058-.169.107-.3l-2.688-7.311h1.294l1.474,4.226q.286.8.514,1.69A16.927,16.927,0,0,1,53.2,179l1.514-4.253h1.2l-2.695,7.421a14.784,14.784,0,0,1-.674,1.656,2.42,2.42,0,0,1-.734.9,1.7,1.7,0,0,1-.987.285A2.347,2.347,0,0,1,50.054,184.851Z" transform="translate(-7.831 -20.962)"/><path class="cls-8" d="M64.922,182.04h-1.2v-7.881a6.215,6.215,0,0,1-1.137.852,7.965,7.965,0,0,1-1.264.639v-1.2a7.251,7.251,0,0,0,1.761-1.182,4.629,4.629,0,0,0,1.067-1.347h.774Z" transform="translate(-7.831 -20.962)"/><path class="cls-8" d="M68,179.4l1.261-.11a2.355,2.355,0,0,0,.65,1.426,1.737,1.737,0,0,0,1.23.478,1.892,1.892,0,0,0,1.468-.673,2.586,2.586,0,0,0,.6-1.787,2.334,2.334,0,0,0-.577-1.669,1.981,1.981,0,0,0-1.511-.612,2.076,2.076,0,0,0-1.781.976l-1.127-.151.947-5.174H74.02v1.182h-3.9l-.527,2.707a3.12,3.12,0,0,1,1.848-.632,2.885,2.885,0,0,1,2.161.914,3.247,3.247,0,0,1,.88,2.35,3.741,3.741,0,0,1-.773,2.364,3.065,3.065,0,0,1-2.568,1.223,3.106,3.106,0,0,1-2.178-.77A3.039,3.039,0,0,1,68,179.4Z" transform="translate(-7.831 -20.962)"/><path class="cls-8" d="M76.241,182.04v-1.409h1.368v1.409a2.564,2.564,0,0,1-.267,1.254,1.754,1.754,0,0,1-.847.739l-.333-.529a1.151,1.151,0,0,0,.561-.5,2.21,2.21,0,0,0,.2-.958Z" transform="translate(-7.831 -20.962)"/><path class="cls-8" d="M89.495,180.851v1.189H83.031a2.244,2.244,0,0,1,.14-.859,4.559,4.559,0,0,1,.791-1.34,12.507,12.507,0,0,1,1.571-1.525,13.505,13.505,0,0,0,2.154-2.134,2.6,2.6,0,0,0,.561-1.487,1.678,1.678,0,0,0-.51-1.24,1.811,1.811,0,0,0-1.331-.505,1.844,1.844,0,0,0-1.387.536,2.062,2.062,0,0,0-.527,1.484l-1.234-.131a2.913,2.913,0,0,1,3.175-2.913,3.046,3.046,0,0,1,2.228.8,2.679,2.679,0,0,1,.82,1.993,3.1,3.1,0,0,1-.24,1.189,4.628,4.628,0,0,1-.8,1.229,19.7,19.7,0,0,1-1.851,1.773q-1.081.935-1.388,1.268a4.079,4.079,0,0,0-.507.67Z" transform="translate(-7.831 -20.962)"/><path class="cls-8" d="M90.782,177.072a9.486,9.486,0,0,1,.357-2.876,3.587,3.587,0,0,1,1.061-1.68,2.66,2.66,0,0,1,1.771-.591,2.826,2.826,0,0,1,1.381.326,2.673,2.673,0,0,1,.98.941,5.143,5.143,0,0,1,.607,1.5,10.254,10.254,0,0,1,.22,2.381,9.516,9.516,0,0,1-.354,2.862,3.6,3.6,0,0,1-1.057,1.684,2.914,2.914,0,0,1-4-.45A6.791,6.791,0,0,1,90.782,177.072Zm1.234,0a6.473,6.473,0,0,0,.564,3.3,1.586,1.586,0,0,0,2.781,0,9.946,9.946,0,0,0,0-6.6,1.663,1.663,0,0,0-1.4-.818,1.527,1.527,0,0,0-1.321.722A6.55,6.55,0,0,0,92.016,177.072Z" transform="translate(-7.831 -20.962)"/><path class="cls-8" d="M102.9,182.04h-1.2v-7.881a6.215,6.215,0,0,1-1.137.852,7.965,7.965,0,0,1-1.264.639v-1.2a7.251,7.251,0,0,0,1.761-1.182,4.629,4.629,0,0,0,1.067-1.347h.774Z" transform="translate(-7.831 -20.962)"/><path class="cls-8" d="M105.983,179.381l1.2-.165a2.753,2.753,0,0,0,.7,1.515,1.709,1.709,0,0,0,1.21.464,1.913,1.913,0,0,0,1.431-.6,2.075,2.075,0,0,0,.583-1.5,1.928,1.928,0,0,0-.541-1.405,1.838,1.838,0,0,0-1.374-.553,3.349,3.349,0,0,0-.847.138l.134-1.086a1.755,1.755,0,0,0,.193.014,2.419,2.419,0,0,0,1.38-.413,1.424,1.424,0,0,0,.614-1.271,1.527,1.527,0,0,0-.447-1.127,1.562,1.562,0,0,0-1.154-.447,1.608,1.608,0,0,0-1.167.454,2.307,2.307,0,0,0-.6,1.36l-1.2-.22a3.2,3.2,0,0,1,1-1.927,2.837,2.837,0,0,1,1.941-.684,3.122,3.122,0,0,1,1.474.354,2.539,2.539,0,0,1,1.387,2.264,2.175,2.175,0,0,1-.34,1.189,2.345,2.345,0,0,1-1.007.852,2.258,2.258,0,0,1,1.347.855,2.657,2.657,0,0,1,.48,1.625,3.017,3.017,0,0,1-.934,2.236,3.232,3.232,0,0,1-2.361.917,3.02,3.02,0,0,1-2.138-.79A3.091,3.091,0,0,1,105.983,179.381Z" transform="translate(-7.831 -20.962)"/><path d="M214.774,162.295l1.167-.165a2.629,2.629,0,0,0,.42,1.581,1.3,1.3,0,0,0,1.034.426,1.508,1.508,0,0,0,.84-.23,1.176,1.176,0,0,0,.487-.625,4.3,4.3,0,0,0,.133-1.261v-6.94h1.294v6.864a5.141,5.141,0,0,1-.3,1.958,2.155,2.155,0,0,1-.941,1.058,3.018,3.018,0,0,1-1.511.364,2.51,2.51,0,0,1-1.971-.763A3.21,3.21,0,0,1,214.774,162.295Z" transform="translate(-7.831 -20.962)"/><path d="M226.734,164.253a4.449,4.449,0,0,1-1.284.824,3.615,3.615,0,0,1-1.324.241,2.527,2.527,0,0,1-1.794-.587,1.967,1.967,0,0,1-.627-1.5,2.043,2.043,0,0,1,.237-.979,2,2,0,0,1,.62-.711,2.874,2.874,0,0,1,.864-.405,8.3,8.3,0,0,1,1.067-.186,10.684,10.684,0,0,0,2.141-.426q.007-.254.007-.323a1.389,1.389,0,0,0-.34-1.065,1.97,1.97,0,0,0-1.367-.419,2.075,2.075,0,0,0-1.251.306,1.882,1.882,0,0,0-.6,1.083l-1.174-.165a3.044,3.044,0,0,1,.527-1.254,2.3,2.3,0,0,1,1.061-.735,4.6,4.6,0,0,1,1.607-.258,4.143,4.143,0,0,1,1.474.22,1.936,1.936,0,0,1,.833.553,1.963,1.963,0,0,1,.374.841,7.173,7.173,0,0,1,.06,1.141V162.1a18.111,18.111,0,0,0,.077,2.182,2.8,2.8,0,0,0,.3.876h-1.254A2.685,2.685,0,0,1,226.734,164.253Zm-.1-2.763a8.559,8.559,0,0,1-1.961.467,4.438,4.438,0,0,0-1.047.248,1.054,1.054,0,0,0-.474.4,1.078,1.078,0,0,0-.167.587,1.067,1.067,0,0,0,.363.825,1.535,1.535,0,0,0,1.064.33,2.417,2.417,0,0,0,1.234-.313,1.9,1.9,0,0,0,.794-.855,3.068,3.068,0,0,0,.193-1.237Z" transform="translate(-7.831 -20.962)"/><path d="M229.708,165.153v-7.3h1.081v1.038a2.528,2.528,0,0,1,2.255-1.2,2.882,2.882,0,0,1,1.177.237,1.86,1.86,0,0,1,.8.622,2.429,2.429,0,0,1,.374.914,7.306,7.306,0,0,1,.066,1.2v4.487h-1.2v-4.439a3.433,3.433,0,0,0-.14-1.13,1.183,1.183,0,0,0-.5-.6,1.545,1.545,0,0,0-.837-.223,1.911,1.911,0,0,0-1.324.5,2.522,2.522,0,0,0-.557,1.9v3.985Z" transform="translate(-7.831 -20.962)"/><path d="M241.948,165.153v-1.072a2.574,2.574,0,0,1-2.248,1.237,2.79,2.79,0,0,1-1.17-.248,1.939,1.939,0,0,1-.807-.622,2.365,2.365,0,0,1-.37-.917,6.428,6.428,0,0,1-.073-1.154v-4.521h1.2V161.9a7.376,7.376,0,0,0,.074,1.306,1.291,1.291,0,0,0,.48.766,1.457,1.457,0,0,0,.907.278,1.935,1.935,0,0,0,1.014-.285,1.572,1.572,0,0,0,.67-.777,4,4,0,0,0,.2-1.426v-3.91h1.2v7.3Z" transform="translate(-7.831 -20.962)"/><path d="M249.525,164.253a4.449,4.449,0,0,1-1.284.824,3.615,3.615,0,0,1-1.324.241,2.527,2.527,0,0,1-1.794-.587,1.967,1.967,0,0,1-.627-1.5,2.043,2.043,0,0,1,.237-.979,2,2,0,0,1,.62-.711,2.874,2.874,0,0,1,.864-.405,8.3,8.3,0,0,1,1.067-.186,10.684,10.684,0,0,0,2.141-.426q.007-.254.007-.323a1.389,1.389,0,0,0-.34-1.065,1.97,1.97,0,0,0-1.367-.419,2.075,2.075,0,0,0-1.251.306,1.882,1.882,0,0,0-.6,1.083l-1.174-.165a3.044,3.044,0,0,1,.527-1.254,2.3,2.3,0,0,1,1.061-.735,4.6,4.6,0,0,1,1.607-.258,4.143,4.143,0,0,1,1.474.22,1.936,1.936,0,0,1,.833.553,1.963,1.963,0,0,1,.374.841,7.173,7.173,0,0,1,.06,1.141V162.1a18.111,18.111,0,0,0,.077,2.182,2.8,2.8,0,0,0,.3.876h-1.254A2.685,2.685,0,0,1,249.525,164.253Zm-.1-2.763a8.559,8.559,0,0,1-1.961.467,4.438,4.438,0,0,0-1.047.248,1.054,1.054,0,0,0-.474.4,1.078,1.078,0,0,0-.167.587,1.067,1.067,0,0,0,.363.825,1.535,1.535,0,0,0,1.064.33,2.417,2.417,0,0,0,1.234-.313,1.9,1.9,0,0,0,.794-.855,3.068,3.068,0,0,0,.193-1.237Z" transform="translate(-7.831 -20.962)"/><path d="M252.487,165.153v-7.3h1.081v1.106a3.006,3.006,0,0,1,.764-1.024,1.305,1.305,0,0,1,.771-.248,2.3,2.3,0,0,1,1.234.4l-.414,1.147a1.68,1.68,0,0,0-.88-.268,1.124,1.124,0,0,0-.707.244,1.326,1.326,0,0,0-.447.677,4.936,4.936,0,0,0-.2,1.443v3.82Z" transform="translate(-7.831 -20.962)"/><path d="M257,167.964l-.133-1.162a2.606,2.606,0,0,0,.687.11,1.284,1.284,0,0,0,.64-.138,1.1,1.1,0,0,0,.394-.385,6.154,6.154,0,0,0,.367-.921c.022-.068.058-.169.107-.3l-2.688-7.311h1.294l1.474,4.226q.286.8.514,1.69a16.927,16.927,0,0,1,.494-1.663l1.514-4.253h1.2l-2.695,7.421a14.784,14.784,0,0,1-.674,1.656,2.42,2.42,0,0,1-.734.9,1.7,1.7,0,0,1-.987.285A2.347,2.347,0,0,1,257,167.964Z" transform="translate(-7.831 -20.962)"/><path d="M271.864,165.153h-1.2v-7.881a6.215,6.215,0,0,1-1.137.852,7.965,7.965,0,0,1-1.264.639v-1.2a7.251,7.251,0,0,0,1.761-1.182,4.629,4.629,0,0,0,1.067-1.347h.774Z" transform="translate(-7.831 -20.962)"/><path d="M275.586,165.153v-1.409h1.368v1.409a2.564,2.564,0,0,1-.267,1.254,1.754,1.754,0,0,1-.847.739l-.333-.529a1.151,1.151,0,0,0,.561-.5,2.21,2.21,0,0,0,.2-.958Z" transform="translate(-7.831 -20.962)"/><path d="M288.84,163.964v1.189h-6.463a2.244,2.244,0,0,1,.14-.859,4.559,4.559,0,0,1,.791-1.34,12.507,12.507,0,0,1,1.571-1.525,13.484,13.484,0,0,0,2.154-2.134,2.6,2.6,0,0,0,.561-1.487,1.675,1.675,0,0,0-.511-1.24,1.808,1.808,0,0,0-1.33-.505,1.845,1.845,0,0,0-1.388.536,2.062,2.062,0,0,0-.527,1.484l-1.234-.131a2.913,2.913,0,0,1,3.175-2.913,3.044,3.044,0,0,1,2.228.8,2.679,2.679,0,0,1,.82,1.993,3.118,3.118,0,0,1-.239,1.189,4.634,4.634,0,0,1-.8,1.229,19.622,19.622,0,0,1-1.851,1.773q-1.081.935-1.388,1.268a4.079,4.079,0,0,0-.507.67Z" transform="translate(-7.831 -20.962)"/><path d="M290.128,160.186a9.473,9.473,0,0,1,.356-2.876,3.6,3.6,0,0,1,1.061-1.68,2.658,2.658,0,0,1,1.771-.591,2.822,2.822,0,0,1,1.381.326,2.666,2.666,0,0,1,.98.941,5.129,5.129,0,0,1,.607,1.5,10.258,10.258,0,0,1,.22,2.381,9.485,9.485,0,0,1-.354,2.862,3.59,3.59,0,0,1-1.057,1.684,2.914,2.914,0,0,1-4-.45A6.794,6.794,0,0,1,290.128,160.186Zm1.233,0a6.485,6.485,0,0,0,.563,3.3,1.587,1.587,0,0,0,2.782,0,9.954,9.954,0,0,0,0-6.6,1.663,1.663,0,0,0-1.4-.818,1.527,1.527,0,0,0-1.321.722A6.556,6.556,0,0,0,291.361,160.186Z" transform="translate(-7.831 -20.962)"/><path d="M302.248,165.153h-1.2v-7.881a6.226,6.226,0,0,1-1.137.852,7.967,7.967,0,0,1-1.265.639v-1.2a7.22,7.22,0,0,0,1.761-1.182,4.623,4.623,0,0,0,1.067-1.347h.774Z" transform="translate(-7.831 -20.962)"/><path d="M309.172,165.153v-2.412H304.93v-1.134l4.462-6.528h.98v6.528h1.321v1.134h-1.321v2.412Zm0-3.545v-4.542l-3.062,4.542Z" transform="translate(-7.831 -20.962)"/><path class="cls-8" d="M360.085,161.917l1.221-.11a2.823,2.823,0,0,0,.4,1.24,2.214,2.214,0,0,0,.983.783,3.632,3.632,0,0,0,1.5.3,3.511,3.511,0,0,0,1.308-.227,1.817,1.817,0,0,0,.844-.622,1.47,1.47,0,0,0,.276-.862,1.337,1.337,0,0,0-.267-.828,1.974,1.974,0,0,0-.881-.595,16.906,16.906,0,0,0-1.74-.491,8.677,8.677,0,0,1-1.888-.629,2.662,2.662,0,0,1-1.044-.937,2.348,2.348,0,0,1-.344-1.254,2.61,2.61,0,0,1,1.647-2.432,4.535,4.535,0,0,1,1.794-.344,4.774,4.774,0,0,1,1.918.361,2.784,2.784,0,0,1,1.277,1.062,3.118,3.118,0,0,1,.48,1.587l-1.241.1a2.083,2.083,0,0,0-.677-1.443,2.581,2.581,0,0,0-1.7-.488,2.673,2.673,0,0,0-1.711.443,1.341,1.341,0,0,0-.537,1.068,1.163,1.163,0,0,0,.38.894,5.059,5.059,0,0,0,1.951.718,12.651,12.651,0,0,1,2.165.643,2.985,2.985,0,0,1,1.261,1.027,2.563,2.563,0,0,1,.406,1.433,2.8,2.8,0,0,1-.446,1.515,2.971,2.971,0,0,1-1.284,1.106,4.368,4.368,0,0,1-1.885.4,5.485,5.485,0,0,1-2.225-.4,3.144,3.144,0,0,1-1.407-1.2A3.483,3.483,0,0,1,360.085,161.917Z" transform="translate(-7.831 -20.962)"/><path class="cls-8" d="M374.333,162.8l1.24.158a3.124,3.124,0,0,1-1.087,1.738,3.6,3.6,0,0,1-4.492-.368,3.923,3.923,0,0,1-.911-2.766,4.107,4.107,0,0,1,.921-2.858,3.071,3.071,0,0,1,2.388-1.017,2.987,2.987,0,0,1,2.321,1,4.032,4.032,0,0,1,.9,2.8c0,.074,0,.184-.007.33h-5.282a2.85,2.85,0,0,0,.66,1.841,1.937,1.937,0,0,0,1.48.639,1.8,1.8,0,0,0,1.128-.357A2.379,2.379,0,0,0,374.333,162.8Zm-3.942-2h3.955a2.513,2.513,0,0,0-.453-1.381,1.819,1.819,0,0,0-1.487-.715,1.877,1.877,0,0,0-1.391.57A2.291,2.291,0,0,0,370.391,160.8Z" transform="translate(-7.831 -20.962)"/><path class="cls-8" d="M377.081,167.95V157.856h1.094v.948a2.732,2.732,0,0,1,.874-.835,2.342,2.342,0,0,1,1.181-.278,2.738,2.738,0,0,1,1.6.481,2.939,2.939,0,0,1,1.048,1.357,5.092,5.092,0,0,1,.354,1.92,5.011,5.011,0,0,1-.391,2.017,3,3,0,0,1-1.134,1.375,2.852,2.852,0,0,1-1.564.478,2.209,2.209,0,0,1-1.077-.261,2.456,2.456,0,0,1-.783-.66v3.552Zm1.087-6.4a3.243,3.243,0,0,0,.554,2.082,1.681,1.681,0,0,0,1.341.673,1.718,1.718,0,0,0,1.371-.7,3.384,3.384,0,0,0,.57-2.161,3.3,3.3,0,0,0-.557-2.089,1.663,1.663,0,0,0-1.331-.694,1.714,1.714,0,0,0-1.357.738A3.377,3.377,0,0,0,378.168,161.546Z" transform="translate(-7.831 -20.962)"/><path class="cls-8" d="M387.3,164.047l.174,1.093a4.334,4.334,0,0,1-.907.11,2.008,2.008,0,0,1-1.014-.213,1.178,1.178,0,0,1-.507-.56,4.554,4.554,0,0,1-.147-1.46v-4.2h-.88v-.962h.88v-1.807l1.194-.742v2.549H387.3v.962h-1.207v4.267a2.222,2.222,0,0,0,.063.68.508.508,0,0,0,.207.241.78.78,0,0,0,.41.089A3.775,3.775,0,0,0,387.3,164.047Z" transform="translate(-7.831 -20.962)"/><path class="cls-8" d="M393.323,162.8l1.24.158a3.124,3.124,0,0,1-1.087,1.738,3.6,3.6,0,0,1-4.492-.368,3.923,3.923,0,0,1-.911-2.766,4.107,4.107,0,0,1,.921-2.858,3.071,3.071,0,0,1,2.388-1.017,2.987,2.987,0,0,1,2.321,1,4.032,4.032,0,0,1,.9,2.8c0,.074,0,.184-.007.33h-5.282a2.85,2.85,0,0,0,.66,1.841,1.937,1.937,0,0,0,1.48.639,1.8,1.8,0,0,0,1.128-.357A2.379,2.379,0,0,0,393.323,162.8Zm-3.942-2h3.955a2.513,2.513,0,0,0-.453-1.381,1.819,1.819,0,0,0-1.487-.715,1.877,1.877,0,0,0-1.391.57A2.291,2.291,0,0,0,389.381,160.8Z" transform="translate(-7.831 -20.962)"/><path class="cls-8" d="M396.071,165.153v-7.3h1.074v1.024a2.551,2.551,0,0,1,.887-.862,2.433,2.433,0,0,1,1.261-.327,2.279,2.279,0,0,1,1.291.337,1.794,1.794,0,0,1,.71.941,2.529,2.529,0,0,1,2.188-1.278,2.119,2.119,0,0,1,1.62.6,2.62,2.62,0,0,1,.567,1.852v5.009h-1.194v-4.6a3.508,3.508,0,0,0-.116-1.069,1.033,1.033,0,0,0-.424-.525,1.292,1.292,0,0,0-.721-.2,1.65,1.65,0,0,0-1.24.512,2.3,2.3,0,0,0-.494,1.639v4.24h-1.2v-4.741a2.129,2.129,0,0,0-.294-1.237,1.1,1.1,0,0,0-.96-.412,1.71,1.71,0,0,0-.937.275,1.553,1.553,0,0,0-.623.8,4.656,4.656,0,0,0-.193,1.525v3.786Z" transform="translate(-7.831 -20.962)"/><path class="cls-8" d="M408.559,165.153h-1.114V155.08h1.2v3.594a2.35,2.35,0,0,1,1.94-.983,2.9,2.9,0,0,1,1.237.271,2.539,2.539,0,0,1,.961.763,3.719,3.719,0,0,1,.59,1.186,5.015,5.015,0,0,1,.214,1.484,4.249,4.249,0,0,1-.9,2.9,2.784,2.784,0,0,1-2.161,1.024,2.239,2.239,0,0,1-1.968-1.079Zm-.014-3.7a3.893,3.893,0,0,0,.347,1.9,1.691,1.691,0,0,0,2.9.251,3.273,3.273,0,0,0,.573-2.1,3.333,3.333,0,0,0-.55-2.11,1.661,1.661,0,0,0-1.331-.68,1.709,1.709,0,0,0-1.36.7A3.154,3.154,0,0,0,408.545,161.45Z" transform="translate(-7.831 -20.962)"/><path class="cls-8" d="M419.9,162.8l1.24.158a3.124,3.124,0,0,1-1.087,1.738,3.6,3.6,0,0,1-4.492-.368,3.923,3.923,0,0,1-.911-2.766,4.107,4.107,0,0,1,.921-2.858,3.071,3.071,0,0,1,2.388-1.017,2.987,2.987,0,0,1,2.321,1,4.032,4.032,0,0,1,.9,2.8c0,.074,0,.184-.007.33H415.89a2.85,2.85,0,0,0,.66,1.841,1.937,1.937,0,0,0,1.48.639,1.8,1.8,0,0,0,1.128-.357A2.379,2.379,0,0,0,419.9,162.8Zm-3.942-2h3.955a2.513,2.513,0,0,0-.453-1.381,1.819,1.819,0,0,0-1.487-.715,1.877,1.877,0,0,0-1.391.57A2.291,2.291,0,0,0,415.956,160.8Z" transform="translate(-7.831 -20.962)"/><path class="cls-8" d="M422.633,165.153v-7.3h1.081v1.106a3.006,3.006,0,0,1,.764-1.024,1.305,1.305,0,0,1,.771-.248,2.3,2.3,0,0,1,1.234.4l-.414,1.147a1.679,1.679,0,0,0-.881-.268,1.126,1.126,0,0,0-.707.244,1.325,1.325,0,0,0-.446.677,4.936,4.936,0,0,0-.2,1.443v3.82Z" transform="translate(-7.831 -20.962)"/><path class="cls-8" d="M430.663,162.494l1.2-.165a2.756,2.756,0,0,0,.7,1.515,1.712,1.712,0,0,0,1.211.464,1.912,1.912,0,0,0,1.431-.6,2.071,2.071,0,0,0,.584-1.5,1.928,1.928,0,0,0-.54-1.405,1.84,1.84,0,0,0-1.374-.553,3.346,3.346,0,0,0-.848.138l.134-1.086a1.772,1.772,0,0,0,.193.014,2.422,2.422,0,0,0,1.381-.413,1.424,1.424,0,0,0,.613-1.271,1.524,1.524,0,0,0-.447-1.127,1.561,1.561,0,0,0-1.153-.447,1.607,1.607,0,0,0-1.167.454,2.3,2.3,0,0,0-.6,1.36l-1.2-.22a3.209,3.209,0,0,1,1-1.927,2.839,2.839,0,0,1,1.941-.684,3.121,3.121,0,0,1,1.474.354,2.543,2.543,0,0,1,1.388,2.264,2.167,2.167,0,0,1-.341,1.189,2.344,2.344,0,0,1-1.007.852,2.26,2.26,0,0,1,1.348.855,2.657,2.657,0,0,1,.48,1.625,3.014,3.014,0,0,1-.935,2.236,3.229,3.229,0,0,1-2.361.917,3.019,3.019,0,0,1-2.138-.79A3.094,3.094,0,0,1,430.663,162.494Z" transform="translate(-7.831 -20.962)"/><path class="cls-8" d="M438.255,160.186a9.473,9.473,0,0,1,.356-2.876,3.6,3.6,0,0,1,1.061-1.68,2.658,2.658,0,0,1,1.771-.591,2.822,2.822,0,0,1,1.381.326,2.666,2.666,0,0,1,.98.941,5.129,5.129,0,0,1,.607,1.5,10.258,10.258,0,0,1,.22,2.381,9.485,9.485,0,0,1-.354,2.862,3.59,3.59,0,0,1-1.057,1.684,2.914,2.914,0,0,1-4-.45A6.794,6.794,0,0,1,438.255,160.186Zm1.233,0a6.485,6.485,0,0,0,.563,3.3,1.587,1.587,0,0,0,2.782,0,9.954,9.954,0,0,0,0-6.6,1.663,1.663,0,0,0-1.4-.818,1.527,1.527,0,0,0-1.321.722A6.556,6.556,0,0,0,439.488,160.186Z" transform="translate(-7.831 -20.962)"/><path class="cls-8" d="M446.5,165.153v-1.409h1.367v1.409a2.564,2.564,0,0,1-.267,1.254,1.755,1.755,0,0,1-.847.739l-.334-.529a1.149,1.149,0,0,0,.561-.5,2.21,2.21,0,0,0,.2-.958Z" transform="translate(-7.831 -20.962)"/><path class="cls-8" d="M459.752,163.964v1.189h-6.464a2.244,2.244,0,0,1,.141-.859,4.557,4.557,0,0,1,.79-1.34,12.55,12.55,0,0,1,1.571-1.525,13.484,13.484,0,0,0,2.154-2.134,2.6,2.6,0,0,0,.561-1.487,1.675,1.675,0,0,0-.511-1.24,1.808,1.808,0,0,0-1.33-.505,1.845,1.845,0,0,0-1.388.536,2.066,2.066,0,0,0-.527,1.484l-1.233-.131a2.912,2.912,0,0,1,3.175-2.913,3.044,3.044,0,0,1,2.228.8,2.679,2.679,0,0,1,.82,1.993,3.118,3.118,0,0,1-.239,1.189,4.634,4.634,0,0,1-.8,1.229,19.622,19.622,0,0,1-1.851,1.773q-1.081.935-1.388,1.268a4.135,4.135,0,0,0-.507.67Z" transform="translate(-7.831 -20.962)"/><path class="cls-8" d="M461.04,160.186a9.473,9.473,0,0,1,.356-2.876,3.6,3.6,0,0,1,1.061-1.68,2.658,2.658,0,0,1,1.771-.591,2.822,2.822,0,0,1,1.381.326,2.666,2.666,0,0,1,.98.941,5.129,5.129,0,0,1,.607,1.5,10.258,10.258,0,0,1,.22,2.381,9.485,9.485,0,0,1-.354,2.862,3.59,3.59,0,0,1-1.057,1.684,2.914,2.914,0,0,1-4-.45A6.794,6.794,0,0,1,461.04,160.186Zm1.233,0a6.485,6.485,0,0,0,.563,3.3,1.587,1.587,0,0,0,2.782,0,9.954,9.954,0,0,0,0-6.6,1.663,1.663,0,0,0-1.4-.818,1.527,1.527,0,0,0-1.321.722A6.556,6.556,0,0,0,462.273,160.186Z" transform="translate(-7.831 -20.962)"/><path class="cls-8" d="M473.16,165.153h-1.2v-7.881a6.226,6.226,0,0,1-1.137.852,7.967,7.967,0,0,1-1.265.639v-1.2a7.22,7.22,0,0,0,1.761-1.182,4.623,4.623,0,0,0,1.067-1.347h.774Z" transform="translate(-7.831 -20.962)"/><path class="cls-8" d="M480.084,165.153v-2.412h-4.242v-1.134l4.462-6.528h.98v6.528h1.321v1.134h-1.321v2.412Zm0-3.545v-4.542l-3.062,4.542Z" transform="translate(-7.831 -20.962)"/><path class="cls-9" d="M352.181,182.04V171.967h3.369a7.934,7.934,0,0,1,1.74.145,3.278,3.278,0,0,1,1.435.721,4.109,4.109,0,0,1,1.157,1.721,6.938,6.938,0,0,1,.384,2.395,7.22,7.22,0,0,1-.261,2.034,4.976,4.976,0,0,1-.667,1.467,3.6,3.6,0,0,1-.891.914,3.563,3.563,0,0,1-1.167.5,6.467,6.467,0,0,1-1.571.172Zm1.294-1.189h2.088a4.937,4.937,0,0,0,1.518-.185,2.156,2.156,0,0,0,.877-.522,3.209,3.209,0,0,0,.718-1.274,6.419,6.419,0,0,0,.256-1.941,4.8,4.8,0,0,0-.5-2.429,2.561,2.561,0,0,0-1.225-1.137,4.91,4.91,0,0,0-1.674-.206h-2.055Z" transform="translate(-7.831 -20.962)"/><path class="cls-9" d="M366.742,179.69l1.24.158a3.124,3.124,0,0,1-1.087,1.738,3.6,3.6,0,0,1-4.492-.368,3.923,3.923,0,0,1-.911-2.766,4.107,4.107,0,0,1,.921-2.858,3.071,3.071,0,0,1,2.388-1.017,2.987,2.987,0,0,1,2.321,1,4.032,4.032,0,0,1,.9,2.8c0,.074,0,.184-.007.33h-5.282a2.85,2.85,0,0,0,.66,1.841,1.937,1.937,0,0,0,1.48.639,1.8,1.8,0,0,0,1.128-.357A2.379,2.379,0,0,0,366.742,179.69Zm-3.942-2h3.955a2.513,2.513,0,0,0-.453-1.381,1.819,1.819,0,0,0-1.487-.715,1.877,1.877,0,0,0-1.391.57A2.291,2.291,0,0,0,362.8,177.69Z" transform="translate(-7.831 -20.962)"/><path class="cls-9" d="M369.01,179.862l1.188-.192a1.725,1.725,0,0,0,.557,1.127,1.9,1.9,0,0,0,1.277.392,1.836,1.836,0,0,0,1.228-.347,1.048,1.048,0,0,0,.4-.814.757.757,0,0,0-.354-.66,5.108,5.108,0,0,0-1.228-.419,10.981,10.981,0,0,1-1.831-.594,1.792,1.792,0,0,1-.773-.694,1.88,1.88,0,0,1-.264-.979,1.926,1.926,0,0,1,.217-.9,1.988,1.988,0,0,1,.591-.69,2.442,2.442,0,0,1,.764-.361,3.526,3.526,0,0,1,1.037-.148,3.987,3.987,0,0,1,1.464.248,2,2,0,0,1,.931.67,2.66,2.66,0,0,1,.413,1.13l-1.174.165a1.333,1.333,0,0,0-.463-.879,1.66,1.66,0,0,0-1.084-.316,1.919,1.919,0,0,0-1.181.282.825.825,0,0,0-.354.66.7.7,0,0,0,.146.433,1.057,1.057,0,0,0,.46.33q.18.069,1.061.316a14.6,14.6,0,0,1,1.778.574,1.821,1.821,0,0,1,.79.649,1.852,1.852,0,0,1,.287,1.058,2.122,2.122,0,0,1-.351,1.165,2.28,2.28,0,0,1-1.011.845,3.587,3.587,0,0,1-1.494.3,3.261,3.261,0,0,1-2.1-.591A2.773,2.773,0,0,1,369.01,179.862Z" transform="translate(-7.831 -20.962)"/><path class="cls-9" d="M376.327,173.389v-1.422h1.2v1.422Zm0,8.651v-7.3h1.2v7.3Z" transform="translate(-7.831 -20.962)"/><path class="cls-9" d="M379.136,182.645l1.167.179a1.156,1.156,0,0,0,.407.811,1.955,1.955,0,0,0,1.221.343,2.1,2.1,0,0,0,1.287-.343,1.7,1.7,0,0,0,.613-.962,8.074,8.074,0,0,0,.087-1.587,2.442,2.442,0,0,1-1.961.955,2.647,2.647,0,0,1-2.262-1.085,4.27,4.27,0,0,1-.8-2.6,4.98,4.98,0,0,1,.366-1.927,3.011,3.011,0,0,1,1.064-1.364,2.812,2.812,0,0,1,1.638-.481,2.514,2.514,0,0,1,2.067,1.044v-.879h1.107v6.308a6.145,6.145,0,0,1-.337,2.415,2.5,2.5,0,0,1-1.067,1.124,3.608,3.608,0,0,1-1.8.412,3.314,3.314,0,0,1-2.047-.587A2.01,2.01,0,0,1,379.136,182.645Zm.993-4.384a3.233,3.233,0,0,0,.554,2.1,1.792,1.792,0,0,0,2.775,0,3.129,3.129,0,0,0,.56-2.058,3.06,3.06,0,0,0-.576-2.021,1.766,1.766,0,0,0-1.391-.68,1.716,1.716,0,0,0-1.361.67A3.041,3.041,0,0,0,380.129,178.261Z" transform="translate(-7.831 -20.962)"/><path class="cls-9" d="M386.953,182.04v-7.3h1.081v1.038a2.526,2.526,0,0,1,2.254-1.2,2.884,2.884,0,0,1,1.178.237,1.86,1.86,0,0,1,.8.622,2.428,2.428,0,0,1,.373.914,7.221,7.221,0,0,1,.067,1.2v4.487h-1.2V177.6a3.446,3.446,0,0,0-.14-1.13,1.186,1.186,0,0,0-.5-.6,1.544,1.544,0,0,0-.837-.223,1.911,1.911,0,0,0-1.324.5,2.524,2.524,0,0,0-.557,1.9v3.985Z" transform="translate(-7.831 -20.962)"/><path class="cls-9" d="M399.174,181.14a4.462,4.462,0,0,1-1.284.824,3.624,3.624,0,0,1-1.324.241,2.528,2.528,0,0,1-1.795-.587,1.967,1.967,0,0,1-.627-1.5,2.043,2.043,0,0,1,.237-.979,2,2,0,0,1,.62-.711,2.871,2.871,0,0,1,.864-.405,8.264,8.264,0,0,1,1.067-.186,10.685,10.685,0,0,0,2.141-.426c0-.169.007-.277.007-.323a1.391,1.391,0,0,0-.34-1.065,1.973,1.973,0,0,0-1.368-.419,2.071,2.071,0,0,0-1.25.306,1.88,1.88,0,0,0-.6,1.083l-1.174-.165a3.031,3.031,0,0,1,.527-1.254,2.3,2.3,0,0,1,1.061-.735,4.6,4.6,0,0,1,1.607-.258,4.14,4.14,0,0,1,1.474.22,1.938,1.938,0,0,1,.834.553,1.975,1.975,0,0,1,.374.841,7.19,7.19,0,0,1,.06,1.141v1.649a17.854,17.854,0,0,0,.077,2.182,2.814,2.814,0,0,0,.3.876h-1.254A2.685,2.685,0,0,1,399.174,181.14Zm-.1-2.763a8.559,8.559,0,0,1-1.961.467,4.419,4.419,0,0,0-1.047.248,1.046,1.046,0,0,0-.474.4,1.079,1.079,0,0,0-.167.587,1.067,1.067,0,0,0,.363.825,1.534,1.534,0,0,0,1.064.33,2.418,2.418,0,0,0,1.233-.313,1.9,1.9,0,0,0,.794-.855,3.068,3.068,0,0,0,.193-1.237Z" transform="translate(-7.831 -20.962)"/><path class="cls-9" d="M404.77,180.934l.174,1.093a4.334,4.334,0,0,1-.907.11,2.008,2.008,0,0,1-1.014-.213,1.178,1.178,0,0,1-.507-.56,4.554,4.554,0,0,1-.147-1.46v-4.2h-.88v-.962h.88v-1.807l1.194-.742v2.549h1.207v.962h-1.207v4.267a2.222,2.222,0,0,0,.063.68.508.508,0,0,0,.207.241.78.78,0,0,0,.41.089A3.775,3.775,0,0,0,404.77,180.934Z" transform="translate(-7.831 -20.962)"/><path class="cls-9" d="M410.793,179.69l1.24.158a3.124,3.124,0,0,1-1.087,1.738,3.6,3.6,0,0,1-4.492-.368,3.923,3.923,0,0,1-.911-2.766,4.107,4.107,0,0,1,.921-2.858,3.071,3.071,0,0,1,2.388-1.017,2.987,2.987,0,0,1,2.321,1,4.032,4.032,0,0,1,.9,2.8c0,.074,0,.184-.007.33h-5.282a2.85,2.85,0,0,0,.66,1.841,1.937,1.937,0,0,0,1.48.639,1.8,1.8,0,0,0,1.128-.357A2.379,2.379,0,0,0,410.793,179.69Zm-3.942-2h3.955a2.513,2.513,0,0,0-.453-1.381,1.819,1.819,0,0,0-1.487-.715,1.877,1.877,0,0,0-1.391.57A2.291,2.291,0,0,0,406.851,177.69Z" transform="translate(-7.831 -20.962)"/><path class="cls-9" d="M418.137,182.04v-.921a2.187,2.187,0,0,1-1.98,1.086,2.721,2.721,0,0,1-1.558-.481,3.139,3.139,0,0,1-1.1-1.343,4.755,4.755,0,0,1-.391-1.982,5.333,5.333,0,0,1,.354-1.982,2.856,2.856,0,0,1,1.061-1.364,2.777,2.777,0,0,1,1.581-.474,2.308,2.308,0,0,1,1.141.278,2.41,2.41,0,0,1,.813.725v-3.614h1.194V182.04Zm-3.795-3.642a3.235,3.235,0,0,0,.573,2.1,1.714,1.714,0,0,0,1.354.694,1.677,1.677,0,0,0,1.337-.663,3.12,3.12,0,0,0,.551-2.023,3.511,3.511,0,0,0-.561-2.2,1.707,1.707,0,0,0-1.381-.7,1.646,1.646,0,0,0-1.337.673A3.4,3.4,0,0,0,414.342,178.4Z" transform="translate(-7.831 -20.962)"/><path class="cls-9" d="M425.034,182.04V171.967H428.7a4.427,4.427,0,0,1,1.8.306,2.335,2.335,0,0,1,1.061.941,2.536,2.536,0,0,1,.384,1.33,2.329,2.329,0,0,1-.341,1.216,2.456,2.456,0,0,1-1.026.921,2.547,2.547,0,0,1,1.363.914,2.5,2.5,0,0,1,.478,1.525,3.016,3.016,0,0,1-.29,1.316,2.531,2.531,0,0,1-.718.938,2.954,2.954,0,0,1-1.07.5,6.322,6.322,0,0,1-1.577.168Zm1.294-5.84h2.114a4.568,4.568,0,0,0,1.233-.117,1.372,1.372,0,0,0,.744-.5,1.474,1.474,0,0,0,.25-.879,1.662,1.662,0,0,0-.233-.883,1.185,1.185,0,0,0-.667-.522,5.424,5.424,0,0,0-1.487-.141h-1.954Zm0,4.651h2.435a5.423,5.423,0,0,0,.88-.048,2.073,2.073,0,0,0,.747-.275,1.442,1.442,0,0,0,.494-.56,1.8,1.8,0,0,0,.193-.849,1.712,1.712,0,0,0-.28-.979,1.481,1.481,0,0,0-.777-.584,4.678,4.678,0,0,0-1.431-.168h-2.261Z" transform="translate(-7.831 -20.962)"/><path class="cls-9" d="M438.895,179.69l1.24.158a3.124,3.124,0,0,1-1.087,1.738,3.6,3.6,0,0,1-4.492-.368,3.923,3.923,0,0,1-.911-2.766,4.107,4.107,0,0,1,.921-2.858,3.071,3.071,0,0,1,2.388-1.017,2.987,2.987,0,0,1,2.321,1,4.032,4.032,0,0,1,.9,2.8c0,.074,0,.184-.007.33h-5.282a2.85,2.85,0,0,0,.66,1.841,1.937,1.937,0,0,0,1.48.639,1.8,1.8,0,0,0,1.128-.357A2.379,2.379,0,0,0,438.895,179.69Zm-3.942-2h3.955a2.513,2.513,0,0,0-.453-1.381,1.819,1.819,0,0,0-1.487-.715,1.877,1.877,0,0,0-1.391.57A2.291,2.291,0,0,0,434.952,177.69Z" transform="translate(-7.831 -20.962)"/><path class="cls-9" d="M441.643,182.04v-7.3h1.081v1.038a2.526,2.526,0,0,1,2.254-1.2,2.884,2.884,0,0,1,1.178.237,1.86,1.86,0,0,1,.8.622,2.428,2.428,0,0,1,.373.914,7.221,7.221,0,0,1,.067,1.2v4.487h-1.2V177.6a3.446,3.446,0,0,0-.14-1.13,1.186,1.186,0,0,0-.5-.6,1.544,1.544,0,0,0-.837-.223,1.911,1.911,0,0,0-1.324.5,2.524,2.524,0,0,0-.557,1.9v3.985Z" transform="translate(-7.831 -20.962)"/><path class="cls-9" d="M454.09,179.69l1.24.158a3.124,3.124,0,0,1-1.087,1.738,3.6,3.6,0,0,1-4.492-.368,3.923,3.923,0,0,1-.911-2.766,4.107,4.107,0,0,1,.921-2.858,3.071,3.071,0,0,1,2.388-1.017,2.987,2.987,0,0,1,2.321,1,4.032,4.032,0,0,1,.9,2.8c0,.074,0,.184-.007.33h-5.282a2.85,2.85,0,0,0,.66,1.841,1.937,1.937,0,0,0,1.48.639,1.8,1.8,0,0,0,1.128-.357A2.379,2.379,0,0,0,454.09,179.69Zm-3.942-2H454.1a2.513,2.513,0,0,0-.453-1.381,1.819,1.819,0,0,0-1.487-.715,1.877,1.877,0,0,0-1.391.57A2.291,2.291,0,0,0,450.147,177.69Z" transform="translate(-7.831 -20.962)"/><path class="cls-9" d="M457.125,182.04V175.7h-1.061v-.962h1.061v-.776a3.477,3.477,0,0,1,.127-1.092,1.568,1.568,0,0,1,.61-.78,2.148,2.148,0,0,1,1.224-.3,5.705,5.705,0,0,1,1.12.124l-.18,1.079a3.9,3.9,0,0,0-.707-.069,1.029,1.029,0,0,0-.773.241,1.33,1.33,0,0,0-.228.9v.673H459.7v.962h-1.381v6.335Z" transform="translate(-7.831 -20.962)"/><path class="cls-9" d="M460.64,173.389v-1.422h1.2v1.422Zm0,8.651v-7.3h1.2v7.3Z" transform="translate(-7.831 -20.962)"/><path class="cls-9" d="M468.291,179.367l1.18.158a3.186,3.186,0,0,1-.99,1.968,2.834,2.834,0,0,1-1.958.711,3,3,0,0,1-2.338-.979,4.05,4.05,0,0,1-.884-2.807,5.2,5.2,0,0,1,.381-2.068,2.7,2.7,0,0,1,1.157-1.33,3.352,3.352,0,0,1,1.69-.443,2.881,2.881,0,0,1,1.888.6,2.775,2.775,0,0,1,.94,1.708l-1.167.186a2.015,2.015,0,0,0-.59-1.106,1.5,1.5,0,0,0-1.024-.371,1.84,1.84,0,0,0-1.474.67,3.25,3.25,0,0,0-.567,2.12,3.363,3.363,0,0,0,.547,2.137,1.759,1.759,0,0,0,1.428.667,1.656,1.656,0,0,0,1.181-.447A2.249,2.249,0,0,0,468.291,179.367Z" transform="translate(-7.831 -20.962)"/><path class="cls-9" d="M470.5,173.389v-1.422h1.2v1.422Zm0,8.651v-7.3h1.2v7.3Z" transform="translate(-7.831 -20.962)"/><path class="cls-9" d="M478.156,181.14a4.462,4.462,0,0,1-1.284.824,3.624,3.624,0,0,1-1.324.241,2.528,2.528,0,0,1-1.795-.587,1.967,1.967,0,0,1-.627-1.5,2.043,2.043,0,0,1,.237-.979,2,2,0,0,1,.62-.711,2.871,2.871,0,0,1,.864-.405,8.264,8.264,0,0,1,1.067-.186,10.685,10.685,0,0,0,2.141-.426c0-.169.007-.277.007-.323a1.391,1.391,0,0,0-.34-1.065,1.973,1.973,0,0,0-1.368-.419,2.071,2.071,0,0,0-1.25.306,1.88,1.88,0,0,0-.6,1.083l-1.174-.165a3.031,3.031,0,0,1,.527-1.254,2.3,2.3,0,0,1,1.061-.735,4.6,4.6,0,0,1,1.607-.258,4.14,4.14,0,0,1,1.474.22,1.938,1.938,0,0,1,.834.553,1.975,1.975,0,0,1,.374.841,7.19,7.19,0,0,1,.06,1.141v1.649a17.854,17.854,0,0,0,.077,2.182,2.814,2.814,0,0,0,.3.876H478.4A2.685,2.685,0,0,1,478.156,181.14Zm-.1-2.763a8.559,8.559,0,0,1-1.961.467,4.419,4.419,0,0,0-1.047.248,1.046,1.046,0,0,0-.474.4,1.079,1.079,0,0,0-.167.587,1.067,1.067,0,0,0,.363.825,1.534,1.534,0,0,0,1.064.33,2.418,2.418,0,0,0,1.233-.313,1.9,1.9,0,0,0,.794-.855,3.068,3.068,0,0,0,.193-1.237Z" transform="translate(-7.831 -20.962)"/><path class="cls-9" d="M481.117,182.04v-7.3H482.2v1.106a3.006,3.006,0,0,1,.764-1.024,1.305,1.305,0,0,1,.771-.248,2.3,2.3,0,0,1,1.234.4l-.414,1.147a1.679,1.679,0,0,0-.881-.268,1.126,1.126,0,0,0-.707.244,1.325,1.325,0,0,0-.446.677,4.936,4.936,0,0,0-.2,1.443v3.82Z" transform="translate(-7.831 -20.962)"/><path class="cls-9" d="M485.626,184.851l-.133-1.162a2.6,2.6,0,0,0,.687.11,1.283,1.283,0,0,0,.641-.138,1.107,1.107,0,0,0,.394-.385,6.192,6.192,0,0,0,.367-.921c.021-.068.058-.169.106-.3L485,174.743h1.294l1.475,4.226q.287.8.514,1.69a17.2,17.2,0,0,1,.493-1.663l1.515-4.253h1.2l-2.694,7.421a14.784,14.784,0,0,1-.674,1.656,2.429,2.429,0,0,1-.733.9,1.7,1.7,0,0,1-.987.285A2.351,2.351,0,0,1,485.626,184.851Z" transform="translate(-7.831 -20.962)"/><path class="cls-9" d="M387.116,198.927V188.854h3.369a7.934,7.934,0,0,1,1.74.145,3.278,3.278,0,0,1,1.435.721,4.109,4.109,0,0,1,1.157,1.721,6.938,6.938,0,0,1,.384,2.395,7.22,7.22,0,0,1-.261,2.034,4.977,4.977,0,0,1-.667,1.467,3.6,3.6,0,0,1-.891.914,3.563,3.563,0,0,1-1.167.5,6.467,6.467,0,0,1-1.571.172Zm1.294-1.189H390.5a4.937,4.937,0,0,0,1.518-.185,2.156,2.156,0,0,0,.877-.522,3.209,3.209,0,0,0,.718-1.274,6.419,6.419,0,0,0,.256-1.941,4.8,4.8,0,0,0-.5-2.429,2.561,2.561,0,0,0-1.225-1.137,4.91,4.91,0,0,0-1.674-.206H388.41Z" transform="translate(-7.831 -20.962)"/><path class="cls-9" d="M401.678,196.577l1.24.158a3.124,3.124,0,0,1-1.087,1.738,3.6,3.6,0,0,1-4.492-.368,3.923,3.923,0,0,1-.911-2.766,4.107,4.107,0,0,1,.921-2.858,3.071,3.071,0,0,1,2.388-1.017,2.987,2.987,0,0,1,2.321,1,4.032,4.032,0,0,1,.9,2.8c0,.074,0,.184-.007.33h-5.282a2.85,2.85,0,0,0,.66,1.841,1.937,1.937,0,0,0,1.48.639,1.8,1.8,0,0,0,1.128-.357A2.379,2.379,0,0,0,401.678,196.577Zm-3.942-2h3.955a2.513,2.513,0,0,0-.453-1.381,1.819,1.819,0,0,0-1.487-.715,1.877,1.877,0,0,0-1.391.57A2.291,2.291,0,0,0,397.735,194.577Z" transform="translate(-7.831 -20.962)"/><path class="cls-9" d="M407.047,197.82l.174,1.093a4.334,4.334,0,0,1-.907.11,2.008,2.008,0,0,1-1.014-.213,1.178,1.178,0,0,1-.507-.56,4.554,4.554,0,0,1-.147-1.46v-4.2h-.88v-.962h.88v-1.807l1.194-.742v2.549h1.207v.962H405.84v4.267a2.222,2.222,0,0,0,.063.68.508.508,0,0,0,.207.241.78.78,0,0,0,.41.089A3.775,3.775,0,0,0,407.047,197.82Z" transform="translate(-7.831 -20.962)"/><path class="cls-9" d="M413.07,196.577l1.24.158a3.124,3.124,0,0,1-1.087,1.738,3.6,3.6,0,0,1-4.492-.368,3.923,3.923,0,0,1-.911-2.766,4.107,4.107,0,0,1,.921-2.858,3.071,3.071,0,0,1,2.388-1.017,2.987,2.987,0,0,1,2.321,1,4.032,4.032,0,0,1,.9,2.8c0,.074,0,.184-.007.33h-5.282a2.85,2.85,0,0,0,.66,1.841,1.937,1.937,0,0,0,1.48.639,1.8,1.8,0,0,0,1.128-.357A2.379,2.379,0,0,0,413.07,196.577Zm-3.942-2h3.955a2.513,2.513,0,0,0-.453-1.381,1.819,1.819,0,0,0-1.487-.715,1.877,1.877,0,0,0-1.391.57A2.291,2.291,0,0,0,409.128,194.577Z" transform="translate(-7.831 -20.962)"/><path class="cls-9" d="M415.8,198.927v-7.3h1.081v1.106a3.006,3.006,0,0,1,.764-1.024,1.305,1.305,0,0,1,.771-.248,2.3,2.3,0,0,1,1.234.4l-.414,1.147a1.679,1.679,0,0,0-.881-.268,1.126,1.126,0,0,0-.707.244,1.325,1.325,0,0,0-.446.677,4.936,4.936,0,0,0-.2,1.443v3.82Z" transform="translate(-7.831 -20.962)"/><path class="cls-9" d="M420.367,198.927v-7.3h1.074v1.024a2.551,2.551,0,0,1,.887-.862,2.433,2.433,0,0,1,1.261-.327,2.279,2.279,0,0,1,1.291.337,1.794,1.794,0,0,1,.71.941,2.529,2.529,0,0,1,2.188-1.278,2.119,2.119,0,0,1,1.62.6,2.62,2.62,0,0,1,.567,1.852v5.009h-1.194v-4.6a3.508,3.508,0,0,0-.116-1.069,1.033,1.033,0,0,0-.424-.525,1.292,1.292,0,0,0-.721-.2,1.65,1.65,0,0,0-1.24.512,2.3,2.3,0,0,0-.494,1.639v4.24h-1.2v-4.741a2.129,2.129,0,0,0-.294-1.237,1.1,1.1,0,0,0-.96-.412,1.71,1.71,0,0,0-.937.275,1.553,1.553,0,0,0-.623.8,4.656,4.656,0,0,0-.193,1.525v3.786Z" transform="translate(-7.831 -20.962)"/><path class="cls-9" d="M431.754,190.276v-1.422h1.2v1.422Zm0,8.651v-7.3h1.2v7.3Z" transform="translate(-7.831 -20.962)"/><path class="cls-9" d="M434.782,198.927v-7.3h1.081v1.038a2.526,2.526,0,0,1,2.254-1.2,2.884,2.884,0,0,1,1.178.237,1.86,1.86,0,0,1,.8.622,2.428,2.428,0,0,1,.373.914,7.221,7.221,0,0,1,.067,1.2v4.487h-1.2v-4.439a3.446,3.446,0,0,0-.14-1.13,1.186,1.186,0,0,0-.5-.6,1.544,1.544,0,0,0-.837-.223,1.911,1.911,0,0,0-1.324.5,2.524,2.524,0,0,0-.557,1.9v3.985Z" transform="translate(-7.831 -20.962)"/><path class="cls-9" d="M447.229,196.577l1.24.158a3.124,3.124,0,0,1-1.087,1.738,3.6,3.6,0,0,1-4.492-.368,3.923,3.923,0,0,1-.911-2.766,4.107,4.107,0,0,1,.921-2.858,3.071,3.071,0,0,1,2.388-1.017,2.987,2.987,0,0,1,2.321,1,4.032,4.032,0,0,1,.9,2.8c0,.074,0,.184-.007.33h-5.282a2.85,2.85,0,0,0,.66,1.841,1.937,1.937,0,0,0,1.48.639,1.8,1.8,0,0,0,1.128-.357A2.379,2.379,0,0,0,447.229,196.577Zm-3.942-2h3.955a2.513,2.513,0,0,0-.453-1.381,1.819,1.819,0,0,0-1.487-.715,1.877,1.877,0,0,0-1.391.57A2.291,2.291,0,0,0,443.287,194.577Z" transform="translate(-7.831 -20.962)"/><path class="cls-9" d="M454.573,198.927v-.921a2.187,2.187,0,0,1-1.98,1.086,2.721,2.721,0,0,1-1.558-.481,3.139,3.139,0,0,1-1.1-1.343,4.755,4.755,0,0,1-.391-1.982,5.333,5.333,0,0,1,.354-1.982,2.856,2.856,0,0,1,1.061-1.364,2.777,2.777,0,0,1,1.581-.474,2.308,2.308,0,0,1,1.141.278,2.41,2.41,0,0,1,.813.725v-3.614h1.194v10.073Zm-3.795-3.642a3.235,3.235,0,0,0,.573,2.1,1.714,1.714,0,0,0,1.354.694,1.677,1.677,0,0,0,1.337-.663,3.12,3.12,0,0,0,.551-2.023,3.511,3.511,0,0,0-.561-2.2,1.707,1.707,0,0,0-1.381-.7,1.646,1.646,0,0,0-1.337.673A3.4,3.4,0,0,0,450.778,195.285Z" transform="translate(-7.831 -20.962)"/><path class="cls-9" d="M359.814,66.933v1.436h-1.287V67.235a3.087,3.087,0,0,1,.213-1.333,1.823,1.823,0,0,1,.888-.832l.293.481a1.087,1.087,0,0,0-.54.471,2.072,2.072,0,0,0-.193.911Zm2.068,0v1.436h-1.288V67.235a3.069,3.069,0,0,1,.214-1.333,1.817,1.817,0,0,1,.887-.832l.294.481a1.079,1.079,0,0,0-.54.471,2.044,2.044,0,0,0-.193.911Z" transform="translate(-7.831 -20.962)"/><path class="cls-9" d="M363.576,75.315V65.242h3.369a7.934,7.934,0,0,1,1.74.145,3.278,3.278,0,0,1,1.435.721,4.109,4.109,0,0,1,1.157,1.721,6.938,6.938,0,0,1,.384,2.395,7.22,7.22,0,0,1-.261,2.034,4.976,4.976,0,0,1-.667,1.467,3.6,3.6,0,0,1-.891.914,3.563,3.563,0,0,1-1.167.5,6.467,6.467,0,0,1-1.571.172Zm1.294-1.189h2.088a4.937,4.937,0,0,0,1.518-.185,2.156,2.156,0,0,0,.877-.522,3.209,3.209,0,0,0,.718-1.274,6.419,6.419,0,0,0,.256-1.941,4.8,4.8,0,0,0-.5-2.429,2.561,2.561,0,0,0-1.225-1.137,4.91,4.91,0,0,0-1.674-.206H364.87Z" transform="translate(-7.831 -20.962)"/><path class="cls-9" d="M378.138,72.965l1.24.158a3.124,3.124,0,0,1-1.087,1.738,3.6,3.6,0,0,1-4.492-.368,3.923,3.923,0,0,1-.911-2.766,4.107,4.107,0,0,1,.921-2.858,3.071,3.071,0,0,1,2.388-1.017,2.987,2.987,0,0,1,2.321,1,4.032,4.032,0,0,1,.9,2.8c0,.074,0,.184-.007.33h-5.282a2.85,2.85,0,0,0,.66,1.841,1.937,1.937,0,0,0,1.48.639,1.8,1.8,0,0,0,1.128-.357A2.379,2.379,0,0,0,378.138,72.965Zm-3.942-2h3.955a2.513,2.513,0,0,0-.453-1.381,1.819,1.819,0,0,0-1.487-.715,1.877,1.877,0,0,0-1.391.57A2.291,2.291,0,0,0,374.2,70.966Z" transform="translate(-7.831 -20.962)"/><path class="cls-9" d="M383.507,74.209l.174,1.093a4.334,4.334,0,0,1-.907.11,2.008,2.008,0,0,1-1.014-.213,1.178,1.178,0,0,1-.507-.56,4.554,4.554,0,0,1-.147-1.46v-4.2h-.88v-.962h.88V66.211l1.194-.742v2.549h1.207v.962H382.3v4.267a2.222,2.222,0,0,0,.063.68.508.508,0,0,0,.207.241.78.78,0,0,0,.41.089A3.775,3.775,0,0,0,383.507,74.209Z" transform="translate(-7.831 -20.962)"/><path class="cls-9" d="M389.53,72.965l1.24.158a3.124,3.124,0,0,1-1.087,1.738,3.6,3.6,0,0,1-4.492-.368,3.923,3.923,0,0,1-.911-2.766,4.107,4.107,0,0,1,.921-2.858,3.071,3.071,0,0,1,2.388-1.017,2.987,2.987,0,0,1,2.321,1,4.032,4.032,0,0,1,.9,2.8c0,.074,0,.184-.007.33h-5.282a2.85,2.85,0,0,0,.66,1.841,1.937,1.937,0,0,0,1.48.639,1.8,1.8,0,0,0,1.128-.357A2.379,2.379,0,0,0,389.53,72.965Zm-3.942-2h3.955a2.513,2.513,0,0,0-.453-1.381,1.819,1.819,0,0,0-1.487-.715,1.877,1.877,0,0,0-1.391.57A2.291,2.291,0,0,0,385.588,70.966Z" transform="translate(-7.831 -20.962)"/><path class="cls-9" d="M392.265,75.315v-7.3h1.081v1.106a3.006,3.006,0,0,1,.764-1.024,1.305,1.305,0,0,1,.771-.248,2.3,2.3,0,0,1,1.234.4L395.7,69.4a1.679,1.679,0,0,0-.881-.268,1.126,1.126,0,0,0-.707.244,1.325,1.325,0,0,0-.446.677,4.936,4.936,0,0,0-.2,1.443v3.82Z" transform="translate(-7.831 -20.962)"/><path class="cls-9" d="M396.827,75.315v-7.3H397.9v1.024a2.551,2.551,0,0,1,.887-.862,2.433,2.433,0,0,1,1.261-.327,2.279,2.279,0,0,1,1.291.337,1.794,1.794,0,0,1,.71.941,2.529,2.529,0,0,1,2.188-1.278,2.119,2.119,0,0,1,1.62.6,2.62,2.62,0,0,1,.567,1.852v5.009h-1.194v-4.6a3.508,3.508,0,0,0-.116-1.069,1.033,1.033,0,0,0-.424-.525,1.292,1.292,0,0,0-.721-.2,1.65,1.65,0,0,0-1.24.512,2.3,2.3,0,0,0-.494,1.639v4.24h-1.2V70.574a2.129,2.129,0,0,0-.294-1.237,1.1,1.1,0,0,0-.96-.412,1.71,1.71,0,0,0-.937.275,1.553,1.553,0,0,0-.623.8,4.656,4.656,0,0,0-.193,1.525v3.786Z" transform="translate(-7.831 -20.962)"/><path class="cls-9" d="M408.214,66.665V65.242h1.2v1.422Zm0,8.651v-7.3h1.2v7.3Z" transform="translate(-7.831 -20.962)"/><path class="cls-9" d="M411.242,75.315v-7.3h1.081v1.038a2.526,2.526,0,0,1,2.254-1.2,2.884,2.884,0,0,1,1.178.237,1.86,1.86,0,0,1,.8.622,2.428,2.428,0,0,1,.373.914,7.221,7.221,0,0,1,.067,1.2v4.487h-1.2V70.876a3.446,3.446,0,0,0-.14-1.13,1.186,1.186,0,0,0-.5-.6,1.544,1.544,0,0,0-.837-.223,1.911,1.911,0,0,0-1.324.5,2.524,2.524,0,0,0-.557,1.9v3.985Z" transform="translate(-7.831 -20.962)"/><path class="cls-9" d="M423.463,74.416a4.462,4.462,0,0,1-1.284.824,3.624,3.624,0,0,1-1.324.241,2.528,2.528,0,0,1-1.795-.587,1.967,1.967,0,0,1-.627-1.5,2.043,2.043,0,0,1,.237-.979,2,2,0,0,1,.62-.711,2.871,2.871,0,0,1,.864-.405,8.264,8.264,0,0,1,1.067-.186,10.685,10.685,0,0,0,2.141-.426c0-.169.007-.277.007-.323a1.391,1.391,0,0,0-.34-1.065,1.973,1.973,0,0,0-1.368-.419,2.071,2.071,0,0,0-1.25.306,1.88,1.88,0,0,0-.6,1.083L418.64,70.1a3.031,3.031,0,0,1,.527-1.254,2.3,2.3,0,0,1,1.061-.735,4.6,4.6,0,0,1,1.607-.258,4.14,4.14,0,0,1,1.474.22,1.938,1.938,0,0,1,.834.553,1.975,1.975,0,0,1,.374.841,7.19,7.19,0,0,1,.06,1.141v1.649a17.854,17.854,0,0,0,.077,2.182,2.814,2.814,0,0,0,.3.876H423.7A2.685,2.685,0,0,1,423.463,74.416Zm-.1-2.763a8.559,8.559,0,0,1-1.961.467,4.419,4.419,0,0,0-1.047.248,1.046,1.046,0,0,0-.474.4,1.079,1.079,0,0,0-.167.587,1.067,1.067,0,0,0,.363.825,1.534,1.534,0,0,0,1.064.33,2.418,2.418,0,0,0,1.233-.313,1.9,1.9,0,0,0,.794-.855,3.068,3.068,0,0,0,.193-1.237Z" transform="translate(-7.831 -20.962)"/><path class="cls-9" d="M429.059,74.209l.174,1.093a4.334,4.334,0,0,1-.907.11,2.008,2.008,0,0,1-1.014-.213,1.178,1.178,0,0,1-.507-.56,4.554,4.554,0,0,1-.147-1.46v-4.2h-.88v-.962h.88V66.211l1.194-.742v2.549h1.207v.962h-1.207v4.267a2.222,2.222,0,0,0,.063.68.508.508,0,0,0,.207.241.78.78,0,0,0,.41.089A3.775,3.775,0,0,0,429.059,74.209Z" transform="translate(-7.831 -20.962)"/><path class="cls-9" d="M430.239,66.665V65.242h1.2v1.422Zm0,8.651v-7.3h1.2v7.3Z" transform="translate(-7.831 -20.962)"/><path class="cls-9" d="M432.82,71.667a3.822,3.822,0,0,1,1.095-3,3.236,3.236,0,0,1,2.228-.811,3.131,3.131,0,0,1,2.388.986,3.819,3.819,0,0,1,.928,2.725,4.953,4.953,0,0,1-.41,2.216,2.954,2.954,0,0,1-1.194,1.254,3.4,3.4,0,0,1-1.711.447,3.134,3.134,0,0,1-2.4-.983A3.994,3.994,0,0,1,432.82,71.667Zm1.234,0a3.175,3.175,0,0,0,.594,2.1,1.939,1.939,0,0,0,2.981,0,3.251,3.251,0,0,0,.594-2.137,3.079,3.079,0,0,0-.6-2.051,1.941,1.941,0,0,0-2.979,0A3.16,3.16,0,0,0,434.055,71.667Z" transform="translate(-7.831 -20.962)"/><path class="cls-9" d="M440.865,75.315v-7.3h1.081v1.038a2.526,2.526,0,0,1,2.254-1.2,2.884,2.884,0,0,1,1.178.237,1.86,1.86,0,0,1,.8.622,2.428,2.428,0,0,1,.373.914,7.221,7.221,0,0,1,.067,1.2v4.487h-1.2V70.876a3.446,3.446,0,0,0-.14-1.13,1.186,1.186,0,0,0-.5-.6,1.544,1.544,0,0,0-.837-.223,1.911,1.911,0,0,0-1.324.5,2.524,2.524,0,0,0-.557,1.9v3.985Z" transform="translate(-7.831 -20.962)"/><path class="cls-9" d="M452.411,75.315V65.242h3.369a7.934,7.934,0,0,1,1.74.145,3.278,3.278,0,0,1,1.435.721,4.109,4.109,0,0,1,1.157,1.721,6.938,6.938,0,0,1,.384,2.395,7.22,7.22,0,0,1-.261,2.034,4.977,4.977,0,0,1-.667,1.467,3.6,3.6,0,0,1-.891.914,3.563,3.563,0,0,1-1.167.5,6.467,6.467,0,0,1-1.571.172Zm1.294-1.189h2.088a4.937,4.937,0,0,0,1.518-.185,2.156,2.156,0,0,0,.877-.522,3.209,3.209,0,0,0,.718-1.274,6.419,6.419,0,0,0,.256-1.941,4.8,4.8,0,0,0-.5-2.429,2.561,2.561,0,0,0-1.225-1.137,4.91,4.91,0,0,0-1.674-.206h-2.055Z" transform="translate(-7.831 -20.962)"/><path class="cls-9" d="M466.746,74.416a4.462,4.462,0,0,1-1.284.824,3.624,3.624,0,0,1-1.324.241,2.528,2.528,0,0,1-1.795-.587,1.967,1.967,0,0,1-.627-1.5,2.043,2.043,0,0,1,.237-.979,2,2,0,0,1,.62-.711,2.871,2.871,0,0,1,.864-.405,8.264,8.264,0,0,1,1.067-.186,10.685,10.685,0,0,0,2.141-.426c0-.169.007-.277.007-.323a1.391,1.391,0,0,0-.34-1.065,1.973,1.973,0,0,0-1.368-.419,2.071,2.071,0,0,0-1.25.306,1.88,1.88,0,0,0-.6,1.083l-1.174-.165a3.031,3.031,0,0,1,.527-1.254,2.3,2.3,0,0,1,1.061-.735,4.6,4.6,0,0,1,1.607-.258,4.14,4.14,0,0,1,1.474.22,1.938,1.938,0,0,1,.834.553,1.975,1.975,0,0,1,.374.841,7.19,7.19,0,0,1,.06,1.141v1.649a17.854,17.854,0,0,0,.077,2.182,2.814,2.814,0,0,0,.3.876h-1.254A2.685,2.685,0,0,1,466.746,74.416Zm-.1-2.763a8.559,8.559,0,0,1-1.961.467,4.419,4.419,0,0,0-1.047.248,1.046,1.046,0,0,0-.474.4,1.079,1.079,0,0,0-.167.587,1.067,1.067,0,0,0,.363.825,1.534,1.534,0,0,0,1.064.33,2.418,2.418,0,0,0,1.233-.313,1.9,1.9,0,0,0,.794-.855,3.068,3.068,0,0,0,.193-1.237Z" transform="translate(-7.831 -20.962)"/><path class="cls-9" d="M472.342,74.209l.174,1.093a4.334,4.334,0,0,1-.907.11,2.008,2.008,0,0,1-1.014-.213,1.178,1.178,0,0,1-.507-.56,4.554,4.554,0,0,1-.147-1.46v-4.2h-.88v-.962h.88V66.211l1.194-.742v2.549h1.207v.962h-1.207v4.267a2.222,2.222,0,0,0,.063.68.508.508,0,0,0,.207.241.78.78,0,0,0,.41.089A3.775,3.775,0,0,0,472.342,74.209Z" transform="translate(-7.831 -20.962)"/><path class="cls-9" d="M478.365,72.965l1.24.158a3.124,3.124,0,0,1-1.087,1.738,3.6,3.6,0,0,1-4.492-.368,3.923,3.923,0,0,1-.911-2.766,4.107,4.107,0,0,1,.921-2.858,3.071,3.071,0,0,1,2.388-1.017,2.987,2.987,0,0,1,2.321,1,4.032,4.032,0,0,1,.9,2.8c0,.074,0,.184-.007.33h-5.282a2.85,2.85,0,0,0,.66,1.841,1.937,1.937,0,0,0,1.48.639,1.8,1.8,0,0,0,1.128-.357A2.379,2.379,0,0,0,478.365,72.965Zm-3.942-2h3.955a2.513,2.513,0,0,0-.453-1.381,1.819,1.819,0,0,0-1.487-.715,1.877,1.877,0,0,0-1.391.57A2.291,2.291,0,0,0,474.423,70.966Z" transform="translate(-7.831 -20.962)"/><path class="cls-9" d="M480.793,66.575V65.139h1.287v1.134a3.118,3.118,0,0,1-.206,1.326,1.842,1.842,0,0,1-.895.838l-.293-.488a1.052,1.052,0,0,0,.537-.478,2.05,2.05,0,0,0,.2-.9Zm2.068,0V65.139h1.287v1.134a3.115,3.115,0,0,1-.207,1.326,1.844,1.844,0,0,1-.894.838l-.294-.488a1.052,1.052,0,0,0,.537-.478,2.049,2.049,0,0,0,.2-.9Z" transform="translate(-7.831 -20.962)"/><line class="cls-5" x1="52.392" y1="126.102" x2="52.392" y2="95.026"/><line class="cls-1" x1="413.538" y1="126.102" x2="413.538" y2="64.205"/><polygon class="cls-10" points="28.094 14.246 21.087 26.747 14.081 14.246 28.094 14.246"/><polygon class="cls-11" points="268.234 14.257 261.227 26.758 254.221 14.257 268.234 14.257"/><polygon class="cls-12" points="476.881 14.297 469.874 26.798 462.868 14.297 476.881 14.297"/><polygon class="cls-11" points="268.41 95.154 261.403 107.655 254.397 95.154 268.41 95.154"/><polygon class="cls-10" points="28.094 95.154 21.087 107.655 14.081 95.154 28.094 95.154"/><polygon class="cls-12" points="476.881 95.154 469.874 107.655 462.868 95.154 476.881 95.154"/><polygon class="cls-12" points="567.95 92.672 571.908 95.026 567.95 97.38 567.95 92.672"/></svg>