<svg id="Layer_1" data-name="Layer 1" xmlns="http://www.w3.org/2000/svg" viewBox="0 0 223.505 290.423"><defs><style>.cls-1{fill:#3861ad;}.cls-2{fill:none;stroke:#3861ad;stroke-miterlimit:10;stroke-width:3px;}.cls-3{fill:#231f20;}</style></defs><title>Review_Exercise_3_Part_01</title><path class="cls-1" d="M79.5,21.529v-8.59h2.783a10.093,10.093,0,0,1,2.063.129,2.252,2.252,0,0,1,1.236.841,2.666,2.666,0,0,1,.5,1.673,2.8,2.8,0,0,1-.287,1.33,2.355,2.355,0,0,1-.729.847,2.514,2.514,0,0,1-.9.407,9.9,9.9,0,0,1-1.8.123H81.23v3.24Zm1.734-7.137V16.83h.949a4.485,4.485,0,0,0,1.371-.135,1.139,1.139,0,0,0,.542-.422,1.155,1.155,0,0,0,.2-.668,1.11,1.11,0,0,0-.275-.773,1.2,1.2,0,0,0-.7-.381,8.336,8.336,0,0,0-1.248-.059Z" transform="translate(-6.149 -12.904)"/><path class="cls-1" d="M94.355,21.529H92.469l-.75-1.951H88.285l-.709,1.951h-1.84l3.346-8.59h1.834Zm-3.193-3.4-1.184-3.187-1.16,3.188Z" transform="translate(-6.149 -12.904)"/><path class="cls-1" d="M95.281,21.529v-8.59h3.65a6.248,6.248,0,0,1,2,.231,1.974,1.974,0,0,1,1,.823,2.474,2.474,0,0,1,.375,1.354,2.293,2.293,0,0,1-.568,1.6,2.73,2.73,0,0,1-1.7.794,4.046,4.046,0,0,1,.929.721,9.79,9.79,0,0,1,.987,1.395L103,21.529H100.93L99.676,19.66a12.125,12.125,0,0,0-.914-1.263,1.331,1.331,0,0,0-.521-.357,2.859,2.859,0,0,0-.873-.1h-.352v3.586Zm1.734-4.957H98.3a6.626,6.626,0,0,0,1.559-.105.934.934,0,0,0,.486-.363,1.118,1.118,0,0,0,.176-.645,1.03,1.03,0,0,0-.231-.7,1.062,1.062,0,0,0-.653-.337q-.211-.029-1.266-.029H97.016Z" transform="translate(-6.149 -12.904)"/><path class="cls-1" d="M105.875,21.529V14.393h-2.549V12.939h6.826v1.453h-2.543v7.137Z" transform="translate(-6.149 -12.904)"/><path class="cls-1" d="M118.455,21.529h-1.646V15.324a5.676,5.676,0,0,1-2.127,1.248V15.078a4.762,4.762,0,0,0,1.4-.8,3.039,3.039,0,0,0,1.037-1.374h1.336Z" transform="translate(-6.149 -12.904)"/><rect class="cls-2" x="1.5" y="19.161" width="220.505" height="87.631"/><line class="cls-2" x1="111.752" y1="114.25" x2="111.752" y2="152.735"/><path class="cls-1" d="M62.943,179.461H61.3v-6.205A5.676,5.676,0,0,1,59.17,174.5V173.01a4.762,4.762,0,0,0,1.4-.8,3.039,3.039,0,0,0,1.037-1.374h1.336Z" transform="translate(-6.149 -12.904)"/><path class="cls-1" d="M68.188,170.836a2.347,2.347,0,0,1,1.951.891,7.709,7.709,0,0,1-.006,7,2.343,2.343,0,0,1-1.945.879,2.458,2.458,0,0,1-2.021-.964,7.854,7.854,0,0,1,.076-6.929A2.343,2.343,0,0,1,68.188,170.836Zm0,1.365a.823.823,0,0,0-.533.19,1.278,1.278,0,0,0-.363.683,13.954,13.954,0,0,0-.018,4.228,1.46,1.46,0,0,0,.384.753.843.843,0,0,0,1.063,0,1.278,1.278,0,0,0,.363-.683,13.915,13.915,0,0,0,.018-4.222,1.481,1.481,0,0,0-.384-.756A.811.811,0,0,0,68.188,172.2Z" transform="translate(-6.149 -12.904)"/><path class="cls-1" d="M74.861,170.836a2.347,2.347,0,0,1,1.951.891,7.709,7.709,0,0,1-.006,7,2.343,2.343,0,0,1-1.945.879,2.458,2.458,0,0,1-2.021-.964,7.854,7.854,0,0,1,.076-6.929A2.343,2.343,0,0,1,74.861,170.836Zm0,1.365a.823.823,0,0,0-.533.19,1.278,1.278,0,0,0-.363.683,13.954,13.954,0,0,0-.018,4.228,1.46,1.46,0,0,0,.384.753.843.843,0,0,0,1.063,0,1.278,1.278,0,0,0,.363-.683,13.915,13.915,0,0,0,.018-4.222,1.481,1.481,0,0,0-.384-.756A.811.811,0,0,0,74.861,172.2Z" transform="translate(-6.149 -12.904)"/><path class="cls-1" d="M78.764,172.993a2.477,2.477,0,0,1,.507-1.711,1.766,1.766,0,0,1,1.374-.557,1.807,1.807,0,0,1,1.4.554,3.146,3.146,0,0,1,0,3.425,1.766,1.766,0,0,1-1.374.557,1.807,1.807,0,0,1-1.4-.554A2.475,2.475,0,0,1,78.764,172.993Zm1.283-.012a2.22,2.22,0,0,0,.193,1.125.466.466,0,0,0,.4.211.471.471,0,0,0,.41-.211,2.28,2.28,0,0,0,.188-1.125,2.242,2.242,0,0,0-.187-1.119.495.495,0,0,0-.814-.006A2.22,2.22,0,0,0,80.047,172.981ZM81.9,179.79H80.68l4.576-9.064h1.184Zm2.66-2.256a2.477,2.477,0,0,1,.507-1.711,2.011,2.011,0,0,1,2.777,0,3.151,3.151,0,0,1,0,3.428,1.766,1.766,0,0,1-1.374.557,1.8,1.8,0,0,1-1.4-.557A2.487,2.487,0,0,1,84.559,177.534Zm1.283-.006a2.183,2.183,0,0,0,.193,1.119.462.462,0,0,0,.4.217.457.457,0,0,0,.4-.211,2.22,2.22,0,0,0,.193-1.125,2.28,2.28,0,0,0-.187-1.125.471.471,0,0,0-.41-.211.457.457,0,0,0-.4.211A2.22,2.22,0,0,0,85.842,177.528Z" transform="translate(-6.149 -12.904)"/><path class="cls-1" d="M95.961,173.239v1.313H94.836v2.508a6.237,6.237,0,0,0,.032.888.362.362,0,0,0,.146.208.465.465,0,0,0,.278.082,2.13,2.13,0,0,0,.662-.158l.141,1.277a3.273,3.273,0,0,1-1.3.246,2.063,2.063,0,0,1-.8-.149,1.172,1.172,0,0,1-.524-.387,1.526,1.526,0,0,1-.231-.642,7.981,7.981,0,0,1-.053-1.16v-2.713h-.756v-1.312h.756V172l1.652-.961v2.2Z" transform="translate(-6.149 -12.904)"/><path class="cls-1" d="M96.723,176.262a3.366,3.366,0,0,1,.4-1.588,2.775,2.775,0,0,1,1.146-1.172,3.4,3.4,0,0,1,1.655-.4,3.107,3.107,0,0,1,2.314.917,3.168,3.168,0,0,1,.9,2.317,3.206,3.206,0,0,1-.911,2.341,3.08,3.08,0,0,1-2.294.929,3.613,3.613,0,0,1-1.632-.387,2.653,2.653,0,0,1-1.181-1.134A3.778,3.778,0,0,1,96.723,176.262Zm1.688.088a2.062,2.062,0,0,0,.439,1.418,1.437,1.437,0,0,0,2.165,0,2.09,2.09,0,0,0,.437-1.43,2.052,2.052,0,0,0-.437-1.406,1.437,1.437,0,0,0-2.165,0A2.062,2.062,0,0,0,98.41,176.35Z" transform="translate(-6.149 -12.904)"/><path class="cls-1" d="M107.428,175.219a5.463,5.463,0,0,1,.393-2.2,4.043,4.043,0,0,1,.8-1.178,3.344,3.344,0,0,1,1.11-.773,4.716,4.716,0,0,1,1.852-.34,4.033,4.033,0,0,1,3.038,1.178,5.263,5.263,0,0,1,.009,6.53,4,4,0,0,1-3.023,1.175,4.043,4.043,0,0,1-3.047-1.169A4.436,4.436,0,0,1,107.428,175.219Zm1.787-.059a3.219,3.219,0,0,0,.674,2.212,2.317,2.317,0,0,0,3.413.006,3.283,3.283,0,0,0,.665-2.241,3.23,3.23,0,0,0-.647-2.2,2.4,2.4,0,0,0-3.448.009A3.245,3.245,0,0,0,109.215,175.161Z" transform="translate(-6.149 -12.904)"/><path class="cls-1" d="M122.762,179.461h-1.646v-3.176a4.908,4.908,0,0,0-.105-1.3.914.914,0,0,0-.343-.46.98.98,0,0,0-.571-.164,1.32,1.32,0,0,0-.768.234,1.181,1.181,0,0,0-.466.621,5.369,5.369,0,0,0-.126,1.43v2.818H117.09v-6.223h1.529v.914a2.55,2.55,0,0,1,3.047-.858,1.669,1.669,0,0,1,.683.5,1.815,1.815,0,0,1,.322.691,5.143,5.143,0,0,1,.091,1.107Z" transform="translate(-6.149 -12.904)"/><path class="cls-1" d="M128.035,177.481l1.641.275a2.691,2.691,0,0,1-1,1.374,2.935,2.935,0,0,1-1.708.472,2.784,2.784,0,0,1-2.4-1.061,3.563,3.563,0,0,1-.615-2.145,3.436,3.436,0,0,1,.809-2.423,2.663,2.663,0,0,1,2.045-.876,2.762,2.762,0,0,1,2.191.917,4.057,4.057,0,0,1,.768,2.81h-4.125a1.666,1.666,0,0,0,.4,1.14,1.246,1.246,0,0,0,.949.407,1.008,1.008,0,0,0,.65-.211A1.3,1.3,0,0,0,128.035,177.481Zm.094-1.664a1.585,1.585,0,0,0-.369-1.087,1.188,1.188,0,0,0-1.746.021,1.519,1.519,0,0,0-.346,1.066Z" transform="translate(-6.149 -12.904)"/><path class="cls-1" d="M134.059,176.262a3.366,3.366,0,0,1,.4-1.588,2.775,2.775,0,0,1,1.146-1.172,3.4,3.4,0,0,1,1.655-.4,3.107,3.107,0,0,1,2.314.917,3.168,3.168,0,0,1,.9,2.317,3.206,3.206,0,0,1-.911,2.341,3.08,3.08,0,0,1-2.294.929,3.613,3.613,0,0,1-1.632-.387,2.653,2.653,0,0,1-1.181-1.134A3.778,3.778,0,0,1,134.059,176.262Zm1.688.088a2.062,2.062,0,0,0,.439,1.418,1.437,1.437,0,0,0,2.165,0,2.09,2.09,0,0,0,.437-1.43,2.052,2.052,0,0,0-.437-1.406,1.437,1.437,0,0,0-2.165,0A2.062,2.062,0,0,0,135.746,176.35Z" transform="translate(-6.149 -12.904)"/><path class="cls-1" d="M143.346,179.461H141.7v-6.223h1.529v.885a2.659,2.659,0,0,1,.706-.826,1.3,1.3,0,0,1,.712-.2,2.09,2.09,0,0,1,1.084.311l-.51,1.436a1.445,1.445,0,0,0-.773-.27.914.914,0,0,0-.586.19,1.3,1.3,0,0,0-.378.688,9.781,9.781,0,0,0-.138,2.086Z" transform="translate(-6.149 -12.904)"/><path class="cls-1" d="M149.762,179.461v-8.59h2.6l1.559,5.859,1.541-5.859h2.6v8.59h-1.611V172.7l-1.705,6.762h-1.67l-1.7-6.762v6.762Z" transform="translate(-6.149 -12.904)"/><path class="cls-1" d="M159.389,176.262a3.366,3.366,0,0,1,.4-1.588,2.775,2.775,0,0,1,1.146-1.172,3.4,3.4,0,0,1,1.655-.4,3.107,3.107,0,0,1,2.314.917,3.168,3.168,0,0,1,.9,2.317,3.206,3.206,0,0,1-.911,2.341,3.08,3.08,0,0,1-2.294.929,3.613,3.613,0,0,1-1.632-.387,2.653,2.653,0,0,1-1.181-1.134A3.778,3.778,0,0,1,159.389,176.262Zm1.688.088a2.062,2.062,0,0,0,.439,1.418,1.437,1.437,0,0,0,2.165,0,2.09,2.09,0,0,0,.437-1.43,2.052,2.052,0,0,0-.437-1.406,1.437,1.437,0,0,0-2.165,0A2.062,2.062,0,0,0,161.076,176.35Z" transform="translate(-6.149 -12.904)"/><path class="cls-1" d="M168.676,179.461h-1.646v-6.223h1.529v.885a2.659,2.659,0,0,1,.706-.826,1.3,1.3,0,0,1,.712-.2,2.09,2.09,0,0,1,1.084.311l-.51,1.436a1.445,1.445,0,0,0-.773-.27.914.914,0,0,0-.586.19,1.3,1.3,0,0,0-.378.688,9.781,9.781,0,0,0-.138,2.086Z" transform="translate(-6.149 -12.904)"/><path class="cls-1" d="M175.373,177.481l1.641.275a2.691,2.691,0,0,1-1,1.374,2.935,2.935,0,0,1-1.708.472,2.784,2.784,0,0,1-2.4-1.061,3.563,3.563,0,0,1-.615-2.145,3.436,3.436,0,0,1,.809-2.423,2.663,2.663,0,0,1,2.045-.876,2.762,2.762,0,0,1,2.191.917,4.057,4.057,0,0,1,.768,2.81h-4.125a1.666,1.666,0,0,0,.4,1.14,1.246,1.246,0,0,0,.949.407,1.008,1.008,0,0,0,.65-.211A1.3,1.3,0,0,0,175.373,177.481Zm.094-1.664a1.585,1.585,0,0,0-.369-1.087,1.188,1.188,0,0,0-1.746.021,1.519,1.519,0,0,0-.346,1.066Z" transform="translate(-6.149 -12.904)"/><path class="cls-1" d="M63.433,193.861v-8.59H69.8v1.453H65.167v1.9h4.313v1.447H65.167v2.338h4.8v1.447Z" transform="translate(-6.149 -12.904)"/><path class="cls-1" d="M77.085,193.861H75.438v-3.176a4.908,4.908,0,0,0-.105-1.3.914.914,0,0,0-.343-.46.98.98,0,0,0-.571-.164,1.32,1.32,0,0,0-.768.234,1.181,1.181,0,0,0-.466.621,5.369,5.369,0,0,0-.126,1.43v2.818H71.413v-6.223h1.529v.914a2.55,2.55,0,0,1,3.047-.858,1.669,1.669,0,0,1,.683.5,1.815,1.815,0,0,1,.322.691,5.143,5.143,0,0,1,.091,1.107Z" transform="translate(-6.149 -12.904)"/><path class="cls-1" d="M81.608,187.639v1.313H80.483v2.508a6.237,6.237,0,0,0,.032.888.362.362,0,0,0,.146.208.465.465,0,0,0,.278.082,2.13,2.13,0,0,0,.662-.158l.141,1.277a3.273,3.273,0,0,1-1.3.246,2.063,2.063,0,0,1-.8-.149,1.172,1.172,0,0,1-.524-.387,1.526,1.526,0,0,1-.231-.642,7.981,7.981,0,0,1-.053-1.16v-2.713h-.756v-1.312h.756V186.4l1.652-.961v2.2Z" transform="translate(-6.149 -12.904)"/><path class="cls-1" d="M82.751,186.795v-1.523H84.4v1.523Zm0,7.066v-6.223H84.4v6.223Z" transform="translate(-6.149 -12.904)"/><path class="cls-1" d="M88.938,187.639v1.313H87.813v2.508a6.237,6.237,0,0,0,.032.888.362.362,0,0,0,.146.208.465.465,0,0,0,.278.082,2.13,2.13,0,0,0,.662-.158l.141,1.277a3.273,3.273,0,0,1-1.3.246,2.063,2.063,0,0,1-.8-.149,1.172,1.172,0,0,1-.524-.387,1.526,1.526,0,0,1-.231-.642,7.981,7.981,0,0,1-.053-1.16v-2.713h-.756v-1.312h.756V186.4l1.652-.961v2.2Z" transform="translate(-6.149 -12.904)"/><path class="cls-1" d="M90.081,186.795v-1.523h1.646v1.523Zm0,7.066v-6.223h1.646v6.223Z" transform="translate(-6.149 -12.904)"/><path class="cls-1" d="M97.019,191.881l1.641.275a2.691,2.691,0,0,1-1,1.374,2.935,2.935,0,0,1-1.708.472,2.784,2.784,0,0,1-2.4-1.061,3.563,3.563,0,0,1-.615-2.145,3.436,3.436,0,0,1,.809-2.423,2.663,2.663,0,0,1,2.045-.876,2.762,2.762,0,0,1,2.191.917,4.057,4.057,0,0,1,.768,2.81H94.622a1.666,1.666,0,0,0,.4,1.14,1.246,1.246,0,0,0,.949.407,1.008,1.008,0,0,0,.65-.211A1.3,1.3,0,0,0,97.019,191.881Zm.094-1.664a1.585,1.585,0,0,0-.369-1.087A1.188,1.188,0,0,0,95,189.15a1.519,1.519,0,0,0-.346,1.066Z" transform="translate(-6.149 -12.904)"/><path class="cls-1" d="M99.509,192.086l1.652-.252a1.211,1.211,0,0,0,.428.729,1.445,1.445,0,0,0,.9.249,1.629,1.629,0,0,0,.961-.234.523.523,0,0,0,.217-.439.432.432,0,0,0-.117-.311,1.312,1.312,0,0,0-.551-.217,8.882,8.882,0,0,1-2.525-.8,1.6,1.6,0,0,1-.738-1.4,1.726,1.726,0,0,1,.639-1.359,2.982,2.982,0,0,1,1.98-.551,3.455,3.455,0,0,1,1.9.416,2.126,2.126,0,0,1,.855,1.23l-1.553.287a.96.96,0,0,0-.378-.557,1.382,1.382,0,0,0-.794-.193,1.789,1.789,0,0,0-.932.182.39.39,0,0,0-.187.334.364.364,0,0,0,.164.3,6.177,6.177,0,0,0,1.538.463,4.579,4.579,0,0,1,1.837.732,1.522,1.522,0,0,1,.516,1.225,1.88,1.88,0,0,1-.715,1.471,3.164,3.164,0,0,1-2.115.615,3.471,3.471,0,0,1-2.013-.516A2.376,2.376,0,0,1,99.509,192.086Z" transform="translate(-6.149 -12.904)"/><path class="cls-1" d="M112.827,196.387H111.7a11.394,11.394,0,0,1-1.365-2.812,9.214,9.214,0,0,1-.469-2.824,8.869,8.869,0,0,1,.58-3.205,11.246,11.246,0,0,1,1.277-2.42h1.125a17.775,17.775,0,0,0-1.1,3.021,11.359,11.359,0,0,0-.123,4.608,12.847,12.847,0,0,0,.489,1.916Q112.312,195.268,112.827,196.387Z" transform="translate(-6.149 -12.904)"/><path class="cls-1" d="M119.753,193.861h-1.646v-3.176a4.908,4.908,0,0,0-.105-1.3.914.914,0,0,0-.343-.46.98.98,0,0,0-.571-.164,1.32,1.32,0,0,0-.768.234,1.181,1.181,0,0,0-.466.621,5.369,5.369,0,0,0-.126,1.43v2.818h-1.646v-6.223h1.529v.914a2.55,2.55,0,0,1,3.047-.858,1.669,1.669,0,0,1,.683.5,1.815,1.815,0,0,1,.322.691,5.143,5.143,0,0,1,.091,1.107Z" transform="translate(-6.149 -12.904)"/><path class="cls-1" d="M121.042,190.662a3.366,3.366,0,0,1,.4-1.588,2.775,2.775,0,0,1,1.146-1.172,3.4,3.4,0,0,1,1.655-.4,3.107,3.107,0,0,1,2.314.917,3.168,3.168,0,0,1,.9,2.317,3.206,3.206,0,0,1-.911,2.341,3.08,3.08,0,0,1-2.294.929,3.613,3.613,0,0,1-1.632-.387,2.653,2.653,0,0,1-1.181-1.134A3.778,3.778,0,0,1,121.042,190.662Zm1.688.088a2.062,2.062,0,0,0,.439,1.418,1.437,1.437,0,0,0,2.165,0,2.09,2.09,0,0,0,.437-1.43,2.052,2.052,0,0,0-.437-1.406,1.437,1.437,0,0,0-2.165,0A2.062,2.062,0,0,0,122.729,190.75Z" transform="translate(-6.149 -12.904)"/><path class="cls-1" d="M134.413,193.861h-1.646v-3.176a4.908,4.908,0,0,0-.105-1.3.914.914,0,0,0-.343-.46.98.98,0,0,0-.571-.164,1.32,1.32,0,0,0-.768.234,1.181,1.181,0,0,0-.466.621,5.369,5.369,0,0,0-.126,1.43v2.818h-1.646v-6.223h1.529v.914a2.55,2.55,0,0,1,3.047-.858,1.669,1.669,0,0,1,.683.5,1.815,1.815,0,0,1,.322.691,5.143,5.143,0,0,1,.091,1.107Z" transform="translate(-6.149 -12.904)"/><path class="cls-1" d="M139.687,191.881l1.641.275a2.691,2.691,0,0,1-1,1.374,2.935,2.935,0,0,1-1.708.472,2.784,2.784,0,0,1-2.4-1.061,3.563,3.563,0,0,1-.615-2.145,3.436,3.436,0,0,1,.809-2.423,2.663,2.663,0,0,1,2.045-.876,2.762,2.762,0,0,1,2.191.917,4.057,4.057,0,0,1,.768,2.81H137.29a1.666,1.666,0,0,0,.4,1.14,1.246,1.246,0,0,0,.949.407,1.008,1.008,0,0,0,.65-.211A1.3,1.3,0,0,0,139.687,191.881Zm.094-1.664a1.585,1.585,0,0,0-.369-1.087,1.188,1.188,0,0,0-1.746.021,1.519,1.519,0,0,0-.346,1.066Z" transform="translate(-6.149 -12.904)"/><path class="cls-1" d="M145.968,187.639h1.518v.85a2.442,2.442,0,0,1,1.939-.99,2.089,2.089,0,0,1,1.037.246,1.891,1.891,0,0,1,.721.744,2.875,2.875,0,0,1,.885-.744,2.171,2.171,0,0,1,1.014-.246,2.258,2.258,0,0,1,1.16.278,1.705,1.705,0,0,1,.709.817,3.546,3.546,0,0,1,.17,1.289v3.979h-1.646V190.3a2.646,2.646,0,0,0-.17-1.2.78.78,0,0,0-.7-.352,1.122,1.122,0,0,0-.65.211,1.17,1.17,0,0,0-.439.618,4.448,4.448,0,0,0-.135,1.286v2.988h-1.646v-3.41a4.73,4.73,0,0,0-.088-1.172.748.748,0,0,0-.272-.393.861.861,0,0,0-.5-.129,1.2,1.2,0,0,0-.686.205,1.125,1.125,0,0,0-.437.592,4.4,4.4,0,0,0-.132,1.283v3.023h-1.646Z" transform="translate(-6.149 -12.904)"/><path class="cls-1" d="M160.364,191.881l1.641.275a2.691,2.691,0,0,1-1,1.374A2.935,2.935,0,0,1,159.3,194a2.784,2.784,0,0,1-2.4-1.061,3.563,3.563,0,0,1-.615-2.145,3.436,3.436,0,0,1,.809-2.423,2.663,2.663,0,0,1,2.045-.876,2.762,2.762,0,0,1,2.191.917,4.057,4.057,0,0,1,.768,2.81h-4.125a1.666,1.666,0,0,0,.4,1.14,1.246,1.246,0,0,0,.949.407,1.008,1.008,0,0,0,.65-.211A1.3,1.3,0,0,0,160.364,191.881Zm.094-1.664a1.585,1.585,0,0,0-.369-1.087,1.188,1.188,0,0,0-1.746.021,1.519,1.519,0,0,0-.346,1.066Z" transform="translate(-6.149 -12.904)"/><path class="cls-1" d="M167.038,191.881l1.641.275a2.691,2.691,0,0,1-1,1.374,2.935,2.935,0,0,1-1.708.472,2.784,2.784,0,0,1-2.4-1.061,3.563,3.563,0,0,1-.615-2.145,3.436,3.436,0,0,1,.809-2.423,2.663,2.663,0,0,1,2.045-.876,2.762,2.762,0,0,1,2.191.917,4.057,4.057,0,0,1,.768,2.81h-4.125a1.666,1.666,0,0,0,.4,1.14,1.246,1.246,0,0,0,.949.407,1.008,1.008,0,0,0,.65-.211A1.3,1.3,0,0,0,167.038,191.881Zm.094-1.664a1.585,1.585,0,0,0-.369-1.087,1.188,1.188,0,0,0-1.746.021,1.519,1.519,0,0,0-.346,1.066Z" transform="translate(-6.149 -12.904)"/><path class="cls-1" d="M172.962,187.639v1.313h-1.125v2.508a6.237,6.237,0,0,0,.032.888.362.362,0,0,0,.146.208.465.465,0,0,0,.278.082,2.13,2.13,0,0,0,.662-.158l.141,1.277a3.273,3.273,0,0,1-1.3.246,2.063,2.063,0,0,1-.8-.149,1.172,1.172,0,0,1-.524-.387,1.526,1.526,0,0,1-.231-.642,7.981,7.981,0,0,1-.053-1.16v-2.713h-.756v-1.312h.756V186.4l1.652-.961v2.2Z" transform="translate(-6.149 -12.904)"/><path class="cls-1" d="M59.656,203.152H58.01v-1.178a4.015,4.015,0,0,1,.126-1.128,1.721,1.721,0,0,1,.466-.741,2.371,2.371,0,0,1,.867-.516l.322.68a1.383,1.383,0,0,0-.706.457,1.35,1.35,0,0,0-.226.779h.8Zm2.748,0H60.758v-1.178a4.009,4.009,0,0,1,.126-1.131,1.712,1.712,0,0,1,.469-.738,2.408,2.408,0,0,1,.864-.516l.322.68a1.383,1.383,0,0,0-.706.457,1.35,1.35,0,0,0-.226.779h.8Z" transform="translate(-6.149 -12.904)"/><path class="cls-1" d="M64.1,208.262v-8.59h1.646v8.59Z" transform="translate(-6.149 -12.904)"/><path class="cls-1" d="M67.051,205.063a3.366,3.366,0,0,1,.4-1.588A2.775,2.775,0,0,1,68.6,202.3a3.4,3.4,0,0,1,1.655-.4,3.107,3.107,0,0,1,2.314.917,3.168,3.168,0,0,1,.9,2.317,3.206,3.206,0,0,1-.911,2.341,3.08,3.08,0,0,1-2.294.929,3.613,3.613,0,0,1-1.632-.387,2.653,2.653,0,0,1-1.181-1.134A3.778,3.778,0,0,1,67.051,205.063Zm1.688.088a2.062,2.062,0,0,0,.439,1.418,1.437,1.437,0,0,0,2.165,0,2.09,2.09,0,0,0,.437-1.43,2.052,2.052,0,0,0-.437-1.406,1.437,1.437,0,0,0-2.165,0A2.062,2.062,0,0,0,68.738,205.15Z" transform="translate(-6.149 -12.904)"/><path class="cls-1" d="M74.381,205.063a3.366,3.366,0,0,1,.4-1.588,2.775,2.775,0,0,1,1.146-1.172,3.4,3.4,0,0,1,1.655-.4,3.107,3.107,0,0,1,2.314.917,3.168,3.168,0,0,1,.9,2.317,3.206,3.206,0,0,1-.911,2.341,3.08,3.08,0,0,1-2.294.929,3.613,3.613,0,0,1-1.632-.387,2.653,2.653,0,0,1-1.181-1.134A3.778,3.778,0,0,1,74.381,205.063Zm1.688.088a2.062,2.062,0,0,0,.439,1.418,1.437,1.437,0,0,0,2.165,0,2.09,2.09,0,0,0,.437-1.43,2.052,2.052,0,0,0-.437-1.406,1.437,1.437,0,0,0-2.165,0A2.062,2.062,0,0,0,76.068,205.15Z" transform="translate(-6.149 -12.904)"/><path class="cls-1" d="M82.033,208.262v-8.59H83.68v4.559l1.928-2.191h2.027l-2.127,2.273,2.279,3.949H86.012l-1.564-2.795-.768.8v1.992Z" transform="translate(-6.149 -12.904)"/><path class="cls-1" d="M94.953,202.039v1.313H93.828v2.508a6.237,6.237,0,0,0,.032.888.362.362,0,0,0,.146.208.465.465,0,0,0,.278.082,2.13,2.13,0,0,0,.662-.158l.141,1.277a3.273,3.273,0,0,1-1.3.246,2.063,2.063,0,0,1-.8-.149,1.172,1.172,0,0,1-.524-.387,1.526,1.526,0,0,1-.231-.642,7.981,7.981,0,0,1-.053-1.16v-2.713H91.42v-1.312h.756V200.8l1.652-.961v2.2Z" transform="translate(-6.149 -12.904)"/><path class="cls-1" d="M97.736,199.672v3.158a2.467,2.467,0,0,1,2.93-.721,1.676,1.676,0,0,1,.688.539,1.954,1.954,0,0,1,.316.727,6.5,6.5,0,0,1,.085,1.236v3.65h-1.646v-3.287a4.867,4.867,0,0,0-.094-1.242.815.815,0,0,0-.331-.419,1.065,1.065,0,0,0-.595-.155,1.364,1.364,0,0,0-.732.2,1.149,1.149,0,0,0-.472.6,3.587,3.587,0,0,0-.149,1.187v3.117H96.09v-8.59Z" transform="translate(-6.149 -12.904)"/><path class="cls-1" d="M105,208.262h-1.646v-6.223h1.529v.885a2.659,2.659,0,0,1,.706-.826,1.3,1.3,0,0,1,.712-.2,2.09,2.09,0,0,1,1.084.311l-.51,1.436a1.445,1.445,0,0,0-.773-.27.914.914,0,0,0-.586.19,1.3,1.3,0,0,0-.378.688A9.781,9.781,0,0,0,105,206.34Z" transform="translate(-6.149 -12.904)"/><path class="cls-1" d="M107.715,205.063a3.366,3.366,0,0,1,.4-1.588,2.775,2.775,0,0,1,1.146-1.172,3.4,3.4,0,0,1,1.655-.4,3.107,3.107,0,0,1,2.314.917,3.168,3.168,0,0,1,.9,2.317,3.206,3.206,0,0,1-.911,2.341,3.08,3.08,0,0,1-2.294.929,3.613,3.613,0,0,1-1.632-.387,2.653,2.653,0,0,1-1.181-1.134A3.778,3.778,0,0,1,107.715,205.063Zm1.688.088a2.062,2.062,0,0,0,.439,1.418,1.437,1.437,0,0,0,2.165,0,2.09,2.09,0,0,0,.437-1.43,2.052,2.052,0,0,0-.437-1.406,1.437,1.437,0,0,0-2.165,0A2.062,2.062,0,0,0,109.4,205.15Z" transform="translate(-6.149 -12.904)"/><path class="cls-1" d="M119.521,208.262v-.932a2.4,2.4,0,0,1-.894.785,2.5,2.5,0,0,1-1.169.287,2.286,2.286,0,0,1-1.125-.275,1.626,1.626,0,0,1-.721-.773,3.451,3.451,0,0,1-.223-1.377v-3.937h1.646V204.9a7.929,7.929,0,0,0,.091,1.608.877.877,0,0,0,.331.469,1.017,1.017,0,0,0,.609.173,1.3,1.3,0,0,0,.756-.231,1.177,1.177,0,0,0,.457-.574,6.665,6.665,0,0,0,.123-1.679v-2.625h1.646v6.223Z" transform="translate(-6.149 -12.904)"/><path class="cls-1" d="M122.6,208.672l1.881.229a.642.642,0,0,0,.217.451,1.238,1.238,0,0,0,.738.176,1.917,1.917,0,0,0,.967-.193.8.8,0,0,0,.328-.416,2.5,2.5,0,0,0,.076-.756v-.908a2.228,2.228,0,0,1-1.863,1.008,2.294,2.294,0,0,1-1.986-1.061,3.6,3.6,0,0,1-.574-2.086,3.431,3.431,0,0,1,.753-2.391,2.43,2.43,0,0,1,1.872-.826,2.279,2.279,0,0,1,1.9,1.014v-.873h1.541v5.584a5.564,5.564,0,0,1-.182,1.646,2.04,2.04,0,0,1-.51.855,2.255,2.255,0,0,1-.876.486,4.611,4.611,0,0,1-1.386.176,3.587,3.587,0,0,1-2.244-.542,1.7,1.7,0,0,1-.662-1.374Q122.6,208.789,122.6,208.672Zm1.471-3.65a2.244,2.244,0,0,0,.384,1.45,1.187,1.187,0,0,0,.946.46,1.308,1.308,0,0,0,1.02-.472,2.056,2.056,0,0,0,.416-1.4,2.179,2.179,0,0,0-.4-1.436,1.266,1.266,0,0,0-1.008-.469,1.215,1.215,0,0,0-.976.46A2.157,2.157,0,0,0,124.074,205.021Z" transform="translate(-6.149 -12.904)"/><path class="cls-1" d="M131.727,199.672v3.158a2.467,2.467,0,0,1,2.93-.721,1.676,1.676,0,0,1,.688.539,1.954,1.954,0,0,1,.316.727,6.5,6.5,0,0,1,.085,1.236v3.65H134.1v-3.287a4.867,4.867,0,0,0-.094-1.242.815.815,0,0,0-.331-.419,1.065,1.065,0,0,0-.595-.155,1.364,1.364,0,0,0-.732.2,1.149,1.149,0,0,0-.472.6,3.587,3.587,0,0,0-.149,1.187v3.117H130.08v-8.59Z" transform="translate(-6.149 -12.904)"/><path class="cls-1" d="M137.3,199.672h1.646v1.184a4.072,4.072,0,0,1-.123,1.125,1.707,1.707,0,0,1-.466.741,2.378,2.378,0,0,1-.87.519l-.322-.686a1.174,1.174,0,0,0,.932-1.236h-.8Zm2.766,0h1.646v1.184a3.982,3.982,0,0,1-.126,1.125,1.732,1.732,0,0,1-.469.741,2.385,2.385,0,0,1-.864.519l-.322-.686a1.383,1.383,0,0,0,.706-.457,1.321,1.321,0,0,0,.22-.779h-.791Z" transform="translate(-6.149 -12.904)"/><path class="cls-1" d="M148.326,208.262H146.68v-6.223h1.529v.885a2.659,2.659,0,0,1,.706-.826,1.3,1.3,0,0,1,.712-.2,2.09,2.09,0,0,1,1.084.311l-.51,1.436a1.445,1.445,0,0,0-.773-.27.914.914,0,0,0-.586.19,1.3,1.3,0,0,0-.378.688,9.781,9.781,0,0,0-.138,2.086Z" transform="translate(-6.149 -12.904)"/><path class="cls-1" d="M155.516,208.262v-.932a2.4,2.4,0,0,1-.894.785,2.5,2.5,0,0,1-1.169.287,2.286,2.286,0,0,1-1.125-.275,1.626,1.626,0,0,1-.721-.773,3.451,3.451,0,0,1-.223-1.377v-3.937h1.646V204.9a7.929,7.929,0,0,0,.091,1.608.877.877,0,0,0,.331.469,1.017,1.017,0,0,0,.609.173,1.3,1.3,0,0,0,.756-.231,1.177,1.177,0,0,0,.457-.574,6.665,6.665,0,0,0,.123-1.679v-2.625h1.646v6.223Z" transform="translate(-6.149 -12.904)"/><path class="cls-1" d="M158.75,208.262v-8.59H160.4v8.59Z" transform="translate(-6.149 -12.904)"/><path class="cls-1" d="M165.688,206.281l1.641.275a2.691,2.691,0,0,1-1,1.374,2.935,2.935,0,0,1-1.708.472,2.784,2.784,0,0,1-2.4-1.061,3.563,3.563,0,0,1-.615-2.145,3.436,3.436,0,0,1,.809-2.423,2.663,2.663,0,0,1,2.045-.876,2.762,2.762,0,0,1,2.191.917,4.057,4.057,0,0,1,.768,2.81h-4.125a1.666,1.666,0,0,0,.4,1.14,1.246,1.246,0,0,0,.949.407,1.008,1.008,0,0,0,.65-.211A1.3,1.3,0,0,0,165.688,206.281Zm.094-1.664a1.585,1.585,0,0,0-.369-1.087,1.188,1.188,0,0,0-1.746.021,1.519,1.519,0,0,0-.346,1.066Z" transform="translate(-6.149 -12.904)"/><path class="cls-1" d="M168.178,206.486l1.652-.252a1.211,1.211,0,0,0,.428.729,1.445,1.445,0,0,0,.9.249,1.629,1.629,0,0,0,.961-.234.523.523,0,0,0,.217-.439.432.432,0,0,0-.117-.311,1.312,1.312,0,0,0-.551-.217,8.882,8.882,0,0,1-2.525-.8,1.6,1.6,0,0,1-.738-1.4,1.726,1.726,0,0,1,.639-1.359,2.982,2.982,0,0,1,1.98-.551,3.455,3.455,0,0,1,1.9.416,2.126,2.126,0,0,1,.855,1.23l-1.553.287a.96.96,0,0,0-.378-.557,1.382,1.382,0,0,0-.794-.193,1.789,1.789,0,0,0-.932.182.39.39,0,0,0-.187.334.364.364,0,0,0,.164.3,6.177,6.177,0,0,0,1.538.463,4.579,4.579,0,0,1,1.837.732,1.522,1.522,0,0,1,.516,1.225,1.88,1.88,0,0,1-.715,1.471,3.164,3.164,0,0,1-2.115.615,3.471,3.471,0,0,1-2.013-.516A2.376,2.376,0,0,1,168.178,206.486Z" transform="translate(-6.149 -12.904)"/><path class="cls-1" d="M174.975,210.787q.486-1.043.686-1.6a11.834,11.834,0,0,0,.369-1.283,13.416,13.416,0,0,0,.252-1.38,10.739,10.739,0,0,0,.082-1.339,11.281,11.281,0,0,0-.3-2.64,17.561,17.561,0,0,0-1.1-3.021h1.119a10.763,10.763,0,0,1,1.374,2.672,8.7,8.7,0,0,1,.489,2.865,9.887,9.887,0,0,1-.387,2.625,11.048,11.048,0,0,1-1.447,3.1Z" transform="translate(-6.149 -12.904)"/><line class="cls-2" x1="43.267" y1="19.161" x2="43.267" y2="106.792"/><line class="cls-2" x1="1.5" y1="62.977" x2="222.005" y2="62.977"/><path class="cls-3" d="M24.83,58.727l3.3-8.59h1.225l3.516,8.59H31.574l-1-2.6H26.98l-.943,2.6ZM27.308,55.2H30.22l-.9-2.379q-.41-1.084-.609-1.781a10.95,10.95,0,0,1-.463,1.641Z" transform="translate(-6.149 -12.904)"/><path class="cls-3" d="M24.757,101.394V92.8h3.223a3.989,3.989,0,0,1,1.579.261,2.03,2.03,0,0,1,.932.8A2.116,2.116,0,0,1,30.827,95a1.948,1.948,0,0,1-.3,1.037,2.134,2.134,0,0,1-.9.785,2.244,2.244,0,0,1,1.2.779,2.087,2.087,0,0,1,.419,1.3,2.509,2.509,0,0,1-.255,1.122,2.172,2.172,0,0,1-.63.8,2.629,2.629,0,0,1-.94.425,5.72,5.72,0,0,1-1.386.144Zm1.137-4.98h1.857a4.145,4.145,0,0,0,1.084-.1,1.2,1.2,0,0,0,.653-.428,1.232,1.232,0,0,0,.22-.75,1.381,1.381,0,0,0-.205-.753,1.038,1.038,0,0,0-.586-.445,4.894,4.894,0,0,0-1.307-.12H25.894Zm0,3.967h2.139a4.923,4.923,0,0,0,.773-.041,1.853,1.853,0,0,0,.656-.234,1.244,1.244,0,0,0,.434-.478,1.5,1.5,0,0,0,.17-.724,1.427,1.427,0,0,0-.246-.835,1.3,1.3,0,0,0-.683-.5,4.232,4.232,0,0,0-1.257-.144H25.894Z" transform="translate(-6.149 -12.904)"/><path class="cls-3" d="M62.028,50.727v-8.59h2.959a7.177,7.177,0,0,1,1.529.123,2.909,2.909,0,0,1,1.26.615,3.5,3.5,0,0,1,1.017,1.468,5.762,5.762,0,0,1,.337,2.042A6,6,0,0,1,68.9,48.12a4.208,4.208,0,0,1-.586,1.251,3.113,3.113,0,0,1-.782.779,3.188,3.188,0,0,1-1.025.431,5.852,5.852,0,0,1-1.38.146Zm1.137-1.014H65a4.451,4.451,0,0,0,1.333-.158,1.907,1.907,0,0,0,.771-.445,2.71,2.71,0,0,0,.63-1.087,5.314,5.314,0,0,0,.226-1.655,4,4,0,0,0-.442-2.071,2.226,2.226,0,0,0-1.075-.97,4.444,4.444,0,0,0-1.471-.176h-1.8Z" transform="translate(-6.149 -12.904)"/><path class="cls-3" d="M74.819,48.723l1.09.135a2.659,2.659,0,0,1-.955,1.482,3.236,3.236,0,0,1-3.946-.313,3.285,3.285,0,0,1-.8-2.358,3.438,3.438,0,0,1,.809-2.437,2.737,2.737,0,0,1,2.1-.867,2.66,2.66,0,0,1,2.039.85,3.376,3.376,0,0,1,.791,2.391q0,.094-.006.281H71.3a2.391,2.391,0,0,0,.58,1.57,1.727,1.727,0,0,0,1.3.545,1.614,1.614,0,0,0,.99-.3A2.023,2.023,0,0,0,74.819,48.723Zm-3.463-1.705h3.475a2.108,2.108,0,0,0-.4-1.178,1.616,1.616,0,0,0-1.307-.609,1.675,1.675,0,0,0-1.222.486A1.925,1.925,0,0,0,71.356,47.018Z" transform="translate(-6.149 -12.904)"/><path class="cls-3" d="M81.294,49.959a3.927,3.927,0,0,1-1.128.7A3.259,3.259,0,0,1,79,50.868a2.262,2.262,0,0,1-1.576-.5,1.654,1.654,0,0,1-.551-1.28,1.7,1.7,0,0,1,.208-.835,1.722,1.722,0,0,1,.545-.606,2.562,2.562,0,0,1,.759-.346,7.536,7.536,0,0,1,.938-.158,9.64,9.64,0,0,0,1.881-.363q.006-.217.006-.275a1.164,1.164,0,0,0-.3-.908,1.765,1.765,0,0,0-1.2-.357,1.863,1.863,0,0,0-1.1.261,1.593,1.593,0,0,0-.524.923l-1.031-.141a2.555,2.555,0,0,1,.463-1.069,2.029,2.029,0,0,1,.932-.627,4.155,4.155,0,0,1,1.412-.22,3.738,3.738,0,0,1,1.295.188,1.706,1.706,0,0,1,.732.472,1.659,1.659,0,0,1,.328.718,5.938,5.938,0,0,1,.053.973V48.12a14.926,14.926,0,0,0,.067,1.86,2.347,2.347,0,0,0,.267.747H81.5A2.236,2.236,0,0,1,81.294,49.959ZM81.206,47.6a7.738,7.738,0,0,1-1.723.4,3.985,3.985,0,0,0-.92.211.917.917,0,0,0-.416.343.932.932,0,0,0,.173,1.2,1.374,1.374,0,0,0,.935.281,2.175,2.175,0,0,0,1.084-.267,1.642,1.642,0,0,0,.7-.729,2.548,2.548,0,0,0,.17-1.055Z" transform="translate(-6.149 -12.904)"/><path class="cls-3" d="M86.21,49.784l.152.932a3.912,3.912,0,0,1-.8.094,1.8,1.8,0,0,1-.891-.182,1.017,1.017,0,0,1-.445-.478A3.776,3.776,0,0,1,84.1,48.9v-3.58h-.773V44.5H84.1V42.963l1.049-.633V44.5H86.21v.82H85.149v3.639a1.838,1.838,0,0,0,.056.58.439.439,0,0,0,.182.205.7.7,0,0,0,.36.076A3.431,3.431,0,0,0,86.21,49.784Z" transform="translate(-6.149 -12.904)"/><path class="cls-3" d="M87.241,50.727v-8.59H88.3v3.082a2.356,2.356,0,0,1,1.863-.855,2.513,2.513,0,0,1,1.2.272,1.6,1.6,0,0,1,.729.753,3.471,3.471,0,0,1,.22,1.395v3.943H91.255V46.784a1.629,1.629,0,0,0-.343-1.151,1.275,1.275,0,0,0-.97-.36,1.71,1.71,0,0,0-.882.243,1.373,1.373,0,0,0-.589.659,3.028,3.028,0,0,0-.176,1.148v3.4Z" transform="translate(-6.149 -12.904)"/><path class="cls-3" d="M97.038,46.543a4.668,4.668,0,0,1,1.148-3.349,3.9,3.9,0,0,1,2.965-1.21,4.113,4.113,0,0,1,2.145.568,3.712,3.712,0,0,1,1.456,1.585,5.148,5.148,0,0,1,.5,2.306,5.061,5.061,0,0,1-.527,2.338,3.6,3.6,0,0,1-1.494,1.562,4.269,4.269,0,0,1-2.086.53,4.062,4.062,0,0,1-2.168-.586,3.771,3.771,0,0,1-1.447-1.6A4.848,4.848,0,0,1,97.038,46.543Zm1.172.018a3.441,3.441,0,0,0,.835,2.446A2.913,2.913,0,0,0,103.252,49a3.648,3.648,0,0,0,.829-2.561,4.4,4.4,0,0,0-.354-1.831,2.724,2.724,0,0,0-1.037-1.213,2.812,2.812,0,0,0-1.532-.431,2.906,2.906,0,0,0-2.077.829A3.7,3.7,0,0,0,98.21,46.561Z" transform="translate(-6.149 -12.904)"/><path class="cls-3" d="M110.644,48.448l1.037.135a2.69,2.69,0,0,1-.87,1.679,2.535,2.535,0,0,1-1.72.606,2.672,2.672,0,0,1-2.054-.835,3.388,3.388,0,0,1-.776-2.394,4.331,4.331,0,0,1,.334-1.764,2.329,2.329,0,0,1,1.017-1.134,3.016,3.016,0,0,1,1.485-.378,2.582,2.582,0,0,1,1.658.513,2.351,2.351,0,0,1,.826,1.456l-1.025.158a1.7,1.7,0,0,0-.519-.943,1.342,1.342,0,0,0-.9-.316,1.637,1.637,0,0,0-1.295.571,2.712,2.712,0,0,0-.5,1.808,2.8,2.8,0,0,0,.48,1.822,1.564,1.564,0,0,0,1.254.568,1.478,1.478,0,0,0,1.037-.381A1.89,1.89,0,0,0,110.644,48.448Z" transform="translate(-6.149 -12.904)"/><path class="cls-3" d="M116.644,48.448l1.037.135a2.69,2.69,0,0,1-.87,1.679,2.535,2.535,0,0,1-1.72.606,2.672,2.672,0,0,1-2.054-.835,3.388,3.388,0,0,1-.776-2.394,4.331,4.331,0,0,1,.334-1.764,2.329,2.329,0,0,1,1.017-1.134,3.016,3.016,0,0,1,1.485-.378,2.582,2.582,0,0,1,1.658.513,2.351,2.351,0,0,1,.826,1.456l-1.025.158a1.7,1.7,0,0,0-.519-.943,1.342,1.342,0,0,0-.9-.316,1.637,1.637,0,0,0-1.295.571,2.712,2.712,0,0,0-.5,1.808,2.8,2.8,0,0,0,.48,1.822,1.564,1.564,0,0,0,1.254.568,1.478,1.478,0,0,0,1.037-.381A1.89,1.89,0,0,0,116.644,48.448Z" transform="translate(-6.149 -12.904)"/><path class="cls-3" d="M122.661,50.727v-.914a2.278,2.278,0,0,1-1.975,1.055,2.516,2.516,0,0,1-1.028-.211,1.694,1.694,0,0,1-.709-.53,1.987,1.987,0,0,1-.325-.782,5.356,5.356,0,0,1-.064-.984V44.5h1.055v3.451a6.15,6.15,0,0,0,.064,1.113,1.1,1.1,0,0,0,.422.653,1.307,1.307,0,0,0,.8.237,1.736,1.736,0,0,0,.891-.243,1.352,1.352,0,0,0,.589-.662,3.322,3.322,0,0,0,.173-1.216V44.5H123.6v6.223Z" transform="translate(-6.149 -12.904)"/><path class="cls-3" d="M125.245,50.727V44.5h.949v.943a2.574,2.574,0,0,1,.671-.873,1.171,1.171,0,0,1,.677-.211,2.057,2.057,0,0,1,1.084.34l-.363.979a1.509,1.509,0,0,0-.773-.229,1,1,0,0,0-.621.208,1.127,1.127,0,0,0-.393.577,4.108,4.108,0,0,0-.176,1.23v3.258Z" transform="translate(-6.149 -12.904)"/><path class="cls-3" d="M128.831,48.87l1.043-.164a1.458,1.458,0,0,0,.489.961,1.705,1.705,0,0,0,1.122.334,1.648,1.648,0,0,0,1.078-.3.885.885,0,0,0,.352-.694.641.641,0,0,0-.311-.562,4.574,4.574,0,0,0-1.078-.357,9.838,9.838,0,0,1-1.608-.507,1.535,1.535,0,0,1-.911-1.427,1.6,1.6,0,0,1,.19-.771,1.708,1.708,0,0,1,.519-.589,2.174,2.174,0,0,1,.671-.308,3.19,3.19,0,0,1,.911-.126,3.6,3.6,0,0,1,1.286.211,1.749,1.749,0,0,1,.817.571,2.232,2.232,0,0,1,.363.964l-1.031.141a1.128,1.128,0,0,0-.407-.75,1.489,1.489,0,0,0-.952-.27,1.724,1.724,0,0,0-1.037.24.7.7,0,0,0-.311.563.582.582,0,0,0,.129.369.93.93,0,0,0,.4.281q.158.059.932.27a12.969,12.969,0,0,1,1.562.489,1.584,1.584,0,0,1,.694.554,1.546,1.546,0,0,1,.252.9,1.771,1.771,0,0,1-.308.993,1.988,1.988,0,0,1-.888.721,3.231,3.231,0,0,1-1.312.255,2.924,2.924,0,0,1-1.849-.5A2.343,2.343,0,0,1,128.831,48.87Z" transform="translate(-6.149 -12.904)"/><path class="cls-3" d="M138.675,50.727v-8.59H141.9a3.989,3.989,0,0,1,1.579.261,2.03,2.03,0,0,1,.932.8,2.116,2.116,0,0,1,.337,1.134,1.948,1.948,0,0,1-.3,1.037,2.134,2.134,0,0,1-.9.785,2.244,2.244,0,0,1,1.2.779,2.087,2.087,0,0,1,.419,1.3,2.509,2.509,0,0,1-.255,1.122,2.172,2.172,0,0,1-.63.8,2.629,2.629,0,0,1-.94.425,5.72,5.72,0,0,1-1.386.144Zm1.137-4.98h1.857a4.145,4.145,0,0,0,1.084-.1,1.2,1.2,0,0,0,.653-.428,1.232,1.232,0,0,0,.22-.75,1.381,1.381,0,0,0-.205-.753,1.038,1.038,0,0,0-.586-.445,4.894,4.894,0,0,0-1.307-.12h-1.717Zm0,3.967h2.139a4.923,4.923,0,0,0,.773-.041,1.853,1.853,0,0,0,.656-.234,1.244,1.244,0,0,0,.434-.478,1.5,1.5,0,0,0,.17-.724,1.427,1.427,0,0,0-.246-.835,1.3,1.3,0,0,0-.683-.5,4.232,4.232,0,0,0-1.257-.144h-1.986Z" transform="translate(-6.149 -12.904)"/><path class="cls-3" d="M150.851,48.723l1.09.135a2.659,2.659,0,0,1-.955,1.482,3.236,3.236,0,0,1-3.946-.313,3.285,3.285,0,0,1-.8-2.358,3.438,3.438,0,0,1,.809-2.437,2.737,2.737,0,0,1,2.1-.867,2.66,2.66,0,0,1,2.039.85,3.376,3.376,0,0,1,.791,2.391q0,.094-.006.281h-4.641a2.391,2.391,0,0,0,.58,1.57,1.727,1.727,0,0,0,1.3.545,1.614,1.614,0,0,0,.99-.3A2.023,2.023,0,0,0,150.851,48.723Zm-3.463-1.705h3.475a2.108,2.108,0,0,0-.4-1.178,1.616,1.616,0,0,0-1.307-.609,1.675,1.675,0,0,0-1.222.486A1.925,1.925,0,0,0,147.388,47.018Z" transform="translate(-6.149 -12.904)"/><path class="cls-3" d="M153.517,50.727v-5.4h-.932V44.5h.932v-.662a2.9,2.9,0,0,1,.111-.932,1.349,1.349,0,0,1,.536-.665,1.932,1.932,0,0,1,1.075-.255,5.163,5.163,0,0,1,.984.105l-.158.92a3.539,3.539,0,0,0-.621-.059.924.924,0,0,0-.68.205,1.112,1.112,0,0,0-.2.768V44.5h1.213v.82h-1.213v5.4Z" transform="translate(-6.149 -12.904)"/><path class="cls-3" d="M156.206,47.616a3.207,3.207,0,0,1,.961-2.561,2.9,2.9,0,0,1,1.957-.691,2.792,2.792,0,0,1,2.1.841,3.2,3.2,0,0,1,.814,2.323,4.117,4.117,0,0,1-.36,1.89,2.551,2.551,0,0,1-1.049,1.069,3.054,3.054,0,0,1-1.5.381,2.8,2.8,0,0,1-2.112-.838A3.347,3.347,0,0,1,156.206,47.616Zm1.084,0a2.65,2.65,0,0,0,.521,1.79,1.736,1.736,0,0,0,2.619,0,2.713,2.713,0,0,0,.521-1.822,2.571,2.571,0,0,0-.524-1.749,1.739,1.739,0,0,0-2.616,0A2.639,2.639,0,0,0,157.29,47.616Z" transform="translate(-6.149 -12.904)"/><path class="cls-3" d="M163.261,50.727V44.5h.949v.943a2.574,2.574,0,0,1,.671-.873,1.171,1.171,0,0,1,.677-.211,2.057,2.057,0,0,1,1.084.34l-.363.979a1.509,1.509,0,0,0-.773-.229,1,1,0,0,0-.621.208,1.127,1.127,0,0,0-.393.577,4.108,4.108,0,0,0-.176,1.23v3.258Z" transform="translate(-6.149 -12.904)"/><path class="cls-3" d="M171.528,48.723l1.09.135a2.659,2.659,0,0,1-.955,1.482,3.236,3.236,0,0,1-3.946-.313,3.285,3.285,0,0,1-.8-2.358,3.438,3.438,0,0,1,.809-2.437,2.737,2.737,0,0,1,2.1-.867,2.66,2.66,0,0,1,2.039.85,3.376,3.376,0,0,1,.791,2.391q0,.094-.006.281h-4.641a2.391,2.391,0,0,0,.58,1.57,1.727,1.727,0,0,0,1.3.545,1.614,1.614,0,0,0,.99-.3A2.023,2.023,0,0,0,171.528,48.723Zm-3.463-1.705h3.475a2.108,2.108,0,0,0-.4-1.178,1.616,1.616,0,0,0-1.307-.609,1.675,1.675,0,0,0-1.222.486A1.925,1.925,0,0,0,168.065,47.018Z" transform="translate(-6.149 -12.904)"/><path class="cls-3" d="M62.046,65.127v-8.59h3.809a5.069,5.069,0,0,1,1.746.231,1.909,1.909,0,0,1,.955.817,2.439,2.439,0,0,1,.357,1.295,2.16,2.16,0,0,1-.592,1.541,3,3,0,0,1-1.828.8,2.948,2.948,0,0,1,.686.428,5.906,5.906,0,0,1,.943,1.143l1.494,2.338h-1.43L67.05,63.34q-.5-.773-.82-1.184a2.579,2.579,0,0,0-.577-.574,1.706,1.706,0,0,0-.519-.229,3.415,3.415,0,0,0-.633-.041H63.183v3.814Zm1.137-4.8h2.443a3.664,3.664,0,0,0,1.219-.161,1.3,1.3,0,0,0,.668-.516,1.4,1.4,0,0,0,.229-.771,1.28,1.28,0,0,0-.442-1,2.07,2.07,0,0,0-1.4-.393H63.183Z" transform="translate(-6.149 -12.904)"/><path class="cls-3" d="M74.819,63.123l1.09.135a2.659,2.659,0,0,1-.955,1.482,3.236,3.236,0,0,1-3.946-.313,3.285,3.285,0,0,1-.8-2.358,3.438,3.438,0,0,1,.809-2.437,2.737,2.737,0,0,1,2.1-.867,2.66,2.66,0,0,1,2.039.85A3.376,3.376,0,0,1,75.944,62q0,.094-.006.281H71.3a2.391,2.391,0,0,0,.58,1.57,1.727,1.727,0,0,0,1.3.545,1.614,1.614,0,0,0,.99-.3A2.023,2.023,0,0,0,74.819,63.123Zm-3.463-1.705h3.475a2.108,2.108,0,0,0-.4-1.178,1.616,1.616,0,0,0-1.307-.609,1.675,1.675,0,0,0-1.222.486A1.925,1.925,0,0,0,71.356,61.418Z" transform="translate(-6.149 -12.904)"/><path class="cls-3" d="M81.2,67.512V64.465a1.887,1.887,0,0,1-.688.574,2.021,2.021,0,0,1-.94.229,2.487,2.487,0,0,1-1.907-.885,3.484,3.484,0,0,1-.8-2.426,4.159,4.159,0,0,1,.325-1.682,2.426,2.426,0,0,1,.943-1.128,2.522,2.522,0,0,1,1.356-.384,2.084,2.084,0,0,1,1.816.973V58.9h.949v8.607ZM77.948,62a2.75,2.75,0,0,0,.5,1.8,1.528,1.528,0,0,0,1.207.6,1.478,1.478,0,0,0,1.16-.571,2.631,2.631,0,0,0,.486-1.737,2.9,2.9,0,0,0-.513-1.869,1.52,1.52,0,0,0-1.2-.627,1.453,1.453,0,0,0-1.163.583A2.847,2.847,0,0,0,77.948,62Z" transform="translate(-6.149 -12.904)"/><path class="cls-3" d="M87.985,65.127v-.914a2.278,2.278,0,0,1-1.975,1.055,2.516,2.516,0,0,1-1.028-.211,1.694,1.694,0,0,1-.709-.53,1.987,1.987,0,0,1-.325-.782,5.356,5.356,0,0,1-.064-.984V58.9h1.055v3.451A6.15,6.15,0,0,0,85,63.469a1.1,1.1,0,0,0,.422.653,1.307,1.307,0,0,0,.8.237,1.736,1.736,0,0,0,.891-.243,1.352,1.352,0,0,0,.589-.662,3.322,3.322,0,0,0,.173-1.216V58.9h1.055v6.223Z" transform="translate(-6.149 -12.904)"/><path class="cls-3" d="M90.587,57.75V56.537h1.055V57.75Zm0,7.377V58.9h1.055v6.223Z" transform="translate(-6.149 -12.904)"/><path class="cls-3" d="M93.235,65.127V58.9h.949v.943a2.574,2.574,0,0,1,.671-.873,1.171,1.171,0,0,1,.677-.211,2.057,2.057,0,0,1,1.084.34l-.363.979a1.509,1.509,0,0,0-.773-.229,1,1,0,0,0-.621.208,1.127,1.127,0,0,0-.393.577,4.108,4.108,0,0,0-.176,1.23v3.258Z" transform="translate(-6.149 -12.904)"/><path class="cls-3" d="M101.5,63.123l1.09.135a2.659,2.659,0,0,1-.955,1.482,3.236,3.236,0,0,1-3.946-.313,3.285,3.285,0,0,1-.8-2.358,3.438,3.438,0,0,1,.809-2.437,2.737,2.737,0,0,1,2.1-.867,2.66,2.66,0,0,1,2.039.85A3.376,3.376,0,0,1,102.628,62q0,.094-.006.281H97.981a2.391,2.391,0,0,0,.58,1.57,1.727,1.727,0,0,0,1.3.545,1.614,1.614,0,0,0,.99-.3A2.023,2.023,0,0,0,101.5,63.123ZM98.04,61.418h3.475a2.108,2.108,0,0,0-.4-1.178,1.616,1.616,0,0,0-1.307-.609,1.675,1.675,0,0,0-1.222.486A1.925,1.925,0,0,0,98.04,61.418Z" transform="translate(-6.149 -12.904)"/><path class="cls-3" d="M107.954,65.127v-.785a1.935,1.935,0,0,1-1.74.926,2.44,2.44,0,0,1-1.368-.41,2.7,2.7,0,0,1-.967-1.146,3.959,3.959,0,0,1-.343-1.69,4.424,4.424,0,0,1,.311-1.69,2.449,2.449,0,0,1,.932-1.163,2.491,2.491,0,0,1,1.389-.4,2.075,2.075,0,0,1,1.717.855V56.537h1.049v8.59Zm-3.334-3.105a2.7,2.7,0,0,0,.5,1.787,1.519,1.519,0,0,0,1.189.592,1.492,1.492,0,0,0,1.175-.565,2.607,2.607,0,0,0,.483-1.726,2.926,2.926,0,0,0-.492-1.875,1.514,1.514,0,0,0-1.213-.6,1.461,1.461,0,0,0-1.175.574A2.834,2.834,0,0,0,104.62,62.021Z" transform="translate(-6.149 -12.904)"/><path class="cls-3" d="M114.013,65.127v-8.59h3.223a3.989,3.989,0,0,1,1.579.261,2.03,2.03,0,0,1,.932.8,2.116,2.116,0,0,1,.337,1.134,1.948,1.948,0,0,1-.3,1.037,2.134,2.134,0,0,1-.9.785,2.244,2.244,0,0,1,1.2.779,2.087,2.087,0,0,1,.419,1.3,2.509,2.509,0,0,1-.255,1.122,2.172,2.172,0,0,1-.63.8,2.629,2.629,0,0,1-.94.425,5.72,5.72,0,0,1-1.386.144Zm1.137-4.98h1.857a4.145,4.145,0,0,0,1.084-.1,1.2,1.2,0,0,0,.653-.428,1.232,1.232,0,0,0,.22-.75,1.381,1.381,0,0,0-.205-.753,1.038,1.038,0,0,0-.586-.445,4.894,4.894,0,0,0-1.307-.12h-1.717Zm0,3.967h2.139a4.923,4.923,0,0,0,.773-.041,1.853,1.853,0,0,0,.656-.234,1.244,1.244,0,0,0,.434-.478,1.5,1.5,0,0,0,.17-.724,1.427,1.427,0,0,0-.246-.835,1.3,1.3,0,0,0-.683-.5,4.232,4.232,0,0,0-1.257-.144h-1.986Z" transform="translate(-6.149 -12.904)"/><path class="cls-3" d="M126.188,63.123l1.09.135a2.659,2.659,0,0,1-.955,1.482,3.236,3.236,0,0,1-3.946-.313,3.285,3.285,0,0,1-.8-2.358,3.438,3.438,0,0,1,.809-2.437,2.737,2.737,0,0,1,2.1-.867,2.66,2.66,0,0,1,2.039.85A3.376,3.376,0,0,1,127.313,62q0,.094-.006.281h-4.641a2.391,2.391,0,0,0,.58,1.57,1.727,1.727,0,0,0,1.3.545,1.614,1.614,0,0,0,.99-.3A2.023,2.023,0,0,0,126.188,63.123Zm-3.463-1.705H126.2a2.108,2.108,0,0,0-.4-1.178,1.616,1.616,0,0,0-1.307-.609,1.675,1.675,0,0,0-1.222.486A1.925,1.925,0,0,0,122.726,61.418Z" transform="translate(-6.149 -12.904)"/><path class="cls-3" d="M128.409,65.643l1.025.152a.977.977,0,0,0,.357.691,1.756,1.756,0,0,0,1.072.293A1.883,1.883,0,0,0,132,66.486a1.442,1.442,0,0,0,.539-.82,6.736,6.736,0,0,0,.076-1.354,2.169,2.169,0,0,1-1.723.814A2.349,2.349,0,0,1,128.9,64.2a3.565,3.565,0,0,1-.7-2.221,4.133,4.133,0,0,1,.322-1.644,2.578,2.578,0,0,1,.935-1.163,2.524,2.524,0,0,1,1.438-.41,2.231,2.231,0,0,1,1.816.891V58.9h.973v5.379a5.1,5.1,0,0,1-.3,2.06,2.164,2.164,0,0,1-.937.958,3.249,3.249,0,0,1-1.579.352,2.978,2.978,0,0,1-1.8-.5A1.694,1.694,0,0,1,128.409,65.643Zm.873-3.738a2.7,2.7,0,0,0,.486,1.787,1.6,1.6,0,0,0,2.438,0,2.612,2.612,0,0,0,.492-1.755,2.552,2.552,0,0,0-.507-1.723,1.567,1.567,0,0,0-1.222-.58,1.522,1.522,0,0,0-1.2.571A2.537,2.537,0,0,0,129.282,61.9Z" transform="translate(-6.149 -12.904)"/><path class="cls-3" d="M135.282,57.75V56.537h1.055V57.75Zm0,7.377V58.9h1.055v6.223Z" transform="translate(-6.149 -12.904)"/><path class="cls-3" d="M137.942,65.127V58.9h.949v.885a2.237,2.237,0,0,1,1.98-1.025,2.6,2.6,0,0,1,1.034.2,1.627,1.627,0,0,1,.706.53,2.035,2.035,0,0,1,.328.779A6.039,6.039,0,0,1,143,61.3v3.826h-1.055V61.342a2.841,2.841,0,0,0-.123-.964,1.014,1.014,0,0,0-.437-.51,1.389,1.389,0,0,0-.735-.19,1.709,1.709,0,0,0-1.163.428A2.11,2.11,0,0,0,139,61.729v3.4Z" transform="translate(-6.149 -12.904)"/><path class="cls-3" d="M144.616,65.127V58.9h.949v.885a2.237,2.237,0,0,1,1.98-1.025,2.6,2.6,0,0,1,1.034.2,1.627,1.627,0,0,1,.706.53,2.035,2.035,0,0,1,.328.779,6.039,6.039,0,0,1,.059,1.025v3.826h-1.055V61.342a2.841,2.841,0,0,0-.123-.964,1.014,1.014,0,0,0-.437-.51,1.389,1.389,0,0,0-.735-.19,1.709,1.709,0,0,0-1.163.428,2.11,2.11,0,0,0-.489,1.623v3.4Z" transform="translate(-6.149 -12.904)"/><path class="cls-3" d="M151.3,57.75V56.537h1.055V57.75Zm0,7.377V58.9h1.055v6.223Z" transform="translate(-6.149 -12.904)"/><path class="cls-3" d="M153.956,65.127V58.9h.949v.885a2.237,2.237,0,0,1,1.98-1.025,2.6,2.6,0,0,1,1.034.2,1.627,1.627,0,0,1,.706.53,2.035,2.035,0,0,1,.328.779,6.039,6.039,0,0,1,.059,1.025v3.826h-1.055V61.342a2.841,2.841,0,0,0-.123-.964,1.014,1.014,0,0,0-.437-.51,1.389,1.389,0,0,0-.735-.19,1.709,1.709,0,0,0-1.163.428,2.11,2.11,0,0,0-.489,1.623v3.4Z" transform="translate(-6.149 -12.904)"/><path class="cls-3" d="M160.437,65.643l1.025.152a.977.977,0,0,0,.357.691,1.756,1.756,0,0,0,1.072.293,1.883,1.883,0,0,0,1.131-.293,1.442,1.442,0,0,0,.539-.82,6.736,6.736,0,0,0,.076-1.354,2.169,2.169,0,0,1-1.723.814,2.349,2.349,0,0,1-1.986-.926,3.565,3.565,0,0,1-.7-2.221,4.133,4.133,0,0,1,.322-1.644,2.578,2.578,0,0,1,.935-1.163,2.523,2.523,0,0,1,1.438-.41,2.231,2.231,0,0,1,1.816.891V58.9h.973v5.379a5.1,5.1,0,0,1-.3,2.06,2.164,2.164,0,0,1-.937.958,3.249,3.249,0,0,1-1.579.352,2.978,2.978,0,0,1-1.8-.5A1.694,1.694,0,0,1,160.437,65.643Zm.873-3.738a2.7,2.7,0,0,0,.486,1.787,1.6,1.6,0,0,0,2.438,0,2.612,2.612,0,0,0,.492-1.755,2.552,2.552,0,0,0-.507-1.723,1.567,1.567,0,0,0-1.222-.58,1.522,1.522,0,0,0-1.2.571A2.537,2.537,0,0,0,161.31,61.9Z" transform="translate(-6.149 -12.904)"/><path class="cls-3" d="M170.772,65.127v-8.59h2.959a7.177,7.177,0,0,1,1.529.123,2.909,2.909,0,0,1,1.26.615,3.5,3.5,0,0,1,1.017,1.468,5.762,5.762,0,0,1,.337,2.042,6,6,0,0,1-.229,1.734,4.208,4.208,0,0,1-.586,1.251,3.113,3.113,0,0,1-.782.779,3.188,3.188,0,0,1-1.025.431,5.852,5.852,0,0,1-1.38.146Zm1.137-1.014h1.834a4.451,4.451,0,0,0,1.333-.158,1.907,1.907,0,0,0,.771-.445,2.71,2.71,0,0,0,.63-1.087,5.314,5.314,0,0,0,.226-1.655,4,4,0,0,0-.442-2.071,2.226,2.226,0,0,0-1.075-.97,4.444,4.444,0,0,0-1.471-.176h-1.8Z" transform="translate(-6.149 -12.904)"/><path class="cls-3" d="M183.364,64.359a3.927,3.927,0,0,1-1.128.7,3.259,3.259,0,0,1-1.163.205,2.262,2.262,0,0,1-1.576-.5,1.654,1.654,0,0,1-.551-1.28,1.7,1.7,0,0,1,.208-.835,1.722,1.722,0,0,1,.545-.606,2.562,2.562,0,0,1,.759-.346,7.536,7.536,0,0,1,.938-.158,9.64,9.64,0,0,0,1.881-.363q.006-.217.006-.275a1.164,1.164,0,0,0-.3-.908,1.765,1.765,0,0,0-1.2-.357,1.863,1.863,0,0,0-1.1.261,1.593,1.593,0,0,0-.524.923l-1.031-.141a2.555,2.555,0,0,1,.463-1.069,2.029,2.029,0,0,1,.932-.627,4.155,4.155,0,0,1,1.412-.22,3.738,3.738,0,0,1,1.295.188,1.706,1.706,0,0,1,.732.472,1.659,1.659,0,0,1,.328.718,5.938,5.938,0,0,1,.053.973V62.52a14.926,14.926,0,0,0,.067,1.86,2.347,2.347,0,0,0,.267.747h-1.1A2.236,2.236,0,0,1,183.364,64.359ZM183.276,62a7.738,7.738,0,0,1-1.723.4,3.985,3.985,0,0,0-.92.211.917.917,0,0,0-.416.343.932.932,0,0,0,.173,1.2,1.374,1.374,0,0,0,.935.281,2.175,2.175,0,0,0,1.084-.267,1.642,1.642,0,0,0,.7-.729,2.548,2.548,0,0,0,.17-1.055Z" transform="translate(-6.149 -12.904)"/><path class="cls-3" d="M188.28,64.184l.152.932a3.912,3.912,0,0,1-.8.094,1.8,1.8,0,0,1-.891-.182,1.017,1.017,0,0,1-.445-.478,3.776,3.776,0,0,1-.129-1.245v-3.58H185.4V58.9h.773V57.363l1.049-.633V58.9h1.061v.82H187.22v3.639a1.838,1.838,0,0,0,.056.58.439.439,0,0,0,.182.205.7.7,0,0,0,.36.076A3.431,3.431,0,0,0,188.28,64.184Z" transform="translate(-6.149 -12.904)"/><path class="cls-3" d="M193.571,63.123l1.09.135a2.659,2.659,0,0,1-.955,1.482,3.236,3.236,0,0,1-3.946-.313,3.285,3.285,0,0,1-.8-2.358,3.438,3.438,0,0,1,.809-2.437,2.737,2.737,0,0,1,2.1-.867,2.66,2.66,0,0,1,2.039.85A3.376,3.376,0,0,1,194.7,62q0,.094-.006.281H190.05a2.391,2.391,0,0,0,.58,1.57,1.727,1.727,0,0,0,1.3.545,1.614,1.614,0,0,0,.99-.3A2.023,2.023,0,0,0,193.571,63.123Zm-3.463-1.705h3.475a2.108,2.108,0,0,0-.4-1.178,1.616,1.616,0,0,0-1.307-.609,1.675,1.675,0,0,0-1.222.486A1.925,1.925,0,0,0,190.108,61.418Z" transform="translate(-6.149 -12.904)"/><path class="cls-3" d="M61.963,94.394V85.8h2.959a7.177,7.177,0,0,1,1.529.123,2.909,2.909,0,0,1,1.26.615,3.5,3.5,0,0,1,1.017,1.468,5.762,5.762,0,0,1,.337,2.042,6,6,0,0,1-.229,1.734,4.208,4.208,0,0,1-.586,1.251,3.113,3.113,0,0,1-.782.779,3.188,3.188,0,0,1-1.025.431,5.852,5.852,0,0,1-1.38.146ZM63.1,93.38h1.834a4.451,4.451,0,0,0,1.333-.158,1.907,1.907,0,0,0,.771-.445,2.71,2.71,0,0,0,.63-1.087,5.314,5.314,0,0,0,.226-1.655,4,4,0,0,0-.442-2.071,2.226,2.226,0,0,0-1.075-.97,4.444,4.444,0,0,0-1.471-.176H63.1Z" transform="translate(-6.149 -12.904)"/><path class="cls-3" d="M74.754,92.39l1.09.135a2.659,2.659,0,0,1-.955,1.482,3.236,3.236,0,0,1-3.946-.313,3.285,3.285,0,0,1-.8-2.358,3.438,3.438,0,0,1,.809-2.437,2.737,2.737,0,0,1,2.1-.867,2.66,2.66,0,0,1,2.039.85,3.376,3.376,0,0,1,.791,2.391q0,.094-.006.281H71.233a2.391,2.391,0,0,0,.58,1.57,1.727,1.727,0,0,0,1.3.545,1.614,1.614,0,0,0,.99-.3A2.023,2.023,0,0,0,74.754,92.39Zm-3.463-1.705h3.475a2.108,2.108,0,0,0-.4-1.178,1.616,1.616,0,0,0-1.307-.609,1.675,1.675,0,0,0-1.222.486A1.925,1.925,0,0,0,71.292,90.685Z" transform="translate(-6.149 -12.904)"/><path class="cls-3" d="M81.229,93.626a3.927,3.927,0,0,1-1.128.7,3.259,3.259,0,0,1-1.163.205,2.262,2.262,0,0,1-1.576-.5,1.654,1.654,0,0,1-.551-1.28,1.7,1.7,0,0,1,.208-.835,1.722,1.722,0,0,1,.545-.606,2.562,2.562,0,0,1,.759-.346,7.536,7.536,0,0,1,.938-.158,9.64,9.64,0,0,0,1.881-.363q.006-.217.006-.275a1.164,1.164,0,0,0-.3-.908,1.765,1.765,0,0,0-1.2-.357,1.863,1.863,0,0,0-1.1.261,1.593,1.593,0,0,0-.524.923l-1.031-.141a2.555,2.555,0,0,1,.463-1.069,2.029,2.029,0,0,1,.932-.627,4.155,4.155,0,0,1,1.412-.22,3.738,3.738,0,0,1,1.295.188,1.706,1.706,0,0,1,.732.472,1.659,1.659,0,0,1,.328.718,5.938,5.938,0,0,1,.053.973v1.406a14.926,14.926,0,0,0,.067,1.86,2.347,2.347,0,0,0,.267.747h-1.1A2.236,2.236,0,0,1,81.229,93.626Zm-.088-2.355a7.738,7.738,0,0,1-1.723.4,3.985,3.985,0,0,0-.92.211.917.917,0,0,0-.416.343.932.932,0,0,0,.173,1.2,1.374,1.374,0,0,0,.935.281,2.175,2.175,0,0,0,1.084-.267,1.642,1.642,0,0,0,.7-.729,2.548,2.548,0,0,0,.17-1.055Z" transform="translate(-6.149 -12.904)"/><path class="cls-3" d="M86.145,93.451l.152.932a3.912,3.912,0,0,1-.8.094,1.8,1.8,0,0,1-.891-.182,1.017,1.017,0,0,1-.445-.478,3.776,3.776,0,0,1-.129-1.245v-3.58h-.773v-.82h.773V86.63L85.084,86v2.174h1.061v.82H85.084V92.63a1.838,1.838,0,0,0,.056.58.439.439,0,0,0,.182.205.7.7,0,0,0,.36.076A3.431,3.431,0,0,0,86.145,93.451Z" transform="translate(-6.149 -12.904)"/><path class="cls-3" d="M87.176,94.394V85.8h1.055v3.082a2.356,2.356,0,0,1,1.863-.855,2.513,2.513,0,0,1,1.2.272,1.6,1.6,0,0,1,.729.753,3.471,3.471,0,0,1,.22,1.395v3.943H91.19V90.451a1.629,1.629,0,0,0-.343-1.151,1.275,1.275,0,0,0-.97-.36,1.71,1.71,0,0,0-.882.243,1.373,1.373,0,0,0-.589.659,3.028,3.028,0,0,0-.176,1.148v3.4Z" transform="translate(-6.149 -12.904)"/><path class="cls-3" d="M96.973,90.21a4.668,4.668,0,0,1,1.148-3.349,3.9,3.9,0,0,1,2.965-1.21,4.113,4.113,0,0,1,2.145.568,3.712,3.712,0,0,1,1.456,1.585,5.148,5.148,0,0,1,.5,2.306,5.061,5.061,0,0,1-.527,2.338,3.6,3.6,0,0,1-1.494,1.562,4.269,4.269,0,0,1-2.086.53,4.062,4.062,0,0,1-2.168-.586,3.771,3.771,0,0,1-1.447-1.6A4.848,4.848,0,0,1,96.973,90.21Zm1.172.018a3.441,3.441,0,0,0,.835,2.446,2.913,2.913,0,0,0,4.207-.009,3.648,3.648,0,0,0,.829-2.561,4.4,4.4,0,0,0-.354-1.831,2.724,2.724,0,0,0-1.037-1.213,2.812,2.812,0,0,0-1.532-.431,2.906,2.906,0,0,0-2.077.829A3.7,3.7,0,0,0,98.145,90.228Z" transform="translate(-6.149 -12.904)"/><path class="cls-3" d="M110.579,92.115l1.037.135a2.69,2.69,0,0,1-.87,1.679,2.535,2.535,0,0,1-1.72.606,2.672,2.672,0,0,1-2.054-.835,3.388,3.388,0,0,1-.776-2.394,4.331,4.331,0,0,1,.334-1.764,2.329,2.329,0,0,1,1.017-1.134,3.016,3.016,0,0,1,1.485-.378,2.582,2.582,0,0,1,1.658.513A2.351,2.351,0,0,1,111.516,90l-1.025.158a1.7,1.7,0,0,0-.519-.943,1.342,1.342,0,0,0-.9-.316,1.637,1.637,0,0,0-1.295.571,2.712,2.712,0,0,0-.5,1.808,2.8,2.8,0,0,0,.48,1.822,1.564,1.564,0,0,0,1.254.568,1.478,1.478,0,0,0,1.037-.381A1.89,1.89,0,0,0,110.579,92.115Z" transform="translate(-6.149 -12.904)"/><path class="cls-3" d="M116.579,92.115l1.037.135a2.69,2.69,0,0,1-.87,1.679,2.535,2.535,0,0,1-1.72.606,2.672,2.672,0,0,1-2.054-.835,3.388,3.388,0,0,1-.776-2.394,4.331,4.331,0,0,1,.334-1.764,2.329,2.329,0,0,1,1.017-1.134,3.016,3.016,0,0,1,1.485-.378,2.582,2.582,0,0,1,1.658.513A2.351,2.351,0,0,1,117.516,90l-1.025.158a1.7,1.7,0,0,0-.519-.943,1.342,1.342,0,0,0-.9-.316,1.637,1.637,0,0,0-1.295.571,2.712,2.712,0,0,0-.5,1.808,2.8,2.8,0,0,0,.48,1.822,1.564,1.564,0,0,0,1.254.568,1.478,1.478,0,0,0,1.037-.381A1.89,1.89,0,0,0,116.579,92.115Z" transform="translate(-6.149 -12.904)"/><path class="cls-3" d="M122.6,94.394V93.48a2.278,2.278,0,0,1-1.975,1.055,2.516,2.516,0,0,1-1.028-.211,1.694,1.694,0,0,1-.709-.53,1.987,1.987,0,0,1-.325-.782,5.356,5.356,0,0,1-.064-.984V88.171h1.055v3.451a6.15,6.15,0,0,0,.064,1.113,1.1,1.1,0,0,0,.422.653,1.307,1.307,0,0,0,.8.237,1.736,1.736,0,0,0,.891-.243,1.352,1.352,0,0,0,.589-.662,3.322,3.322,0,0,0,.173-1.216V88.171h1.055v6.223Z" transform="translate(-6.149 -12.904)"/><path class="cls-3" d="M125.18,94.394V88.171h.949v.943a2.574,2.574,0,0,1,.671-.873,1.171,1.171,0,0,1,.677-.211,2.057,2.057,0,0,1,1.084.34l-.363.979a1.509,1.509,0,0,0-.773-.229,1,1,0,0,0-.621.208,1.127,1.127,0,0,0-.393.577,4.108,4.108,0,0,0-.176,1.23v3.258Z" transform="translate(-6.149 -12.904)"/><path class="cls-3" d="M128.766,92.537l1.043-.164a1.458,1.458,0,0,0,.489.961,1.705,1.705,0,0,0,1.122.334,1.648,1.648,0,0,0,1.078-.3.885.885,0,0,0,.352-.694.641.641,0,0,0-.311-.562,4.574,4.574,0,0,0-1.078-.357,9.838,9.838,0,0,1-1.608-.507,1.535,1.535,0,0,1-.911-1.427,1.6,1.6,0,0,1,.19-.771,1.708,1.708,0,0,1,.519-.589,2.174,2.174,0,0,1,.671-.308,3.19,3.19,0,0,1,.911-.126,3.6,3.6,0,0,1,1.286.211,1.749,1.749,0,0,1,.817.571,2.232,2.232,0,0,1,.363.964l-1.031.141a1.128,1.128,0,0,0-.407-.75,1.489,1.489,0,0,0-.952-.27,1.724,1.724,0,0,0-1.037.24.7.7,0,0,0-.311.563.582.582,0,0,0,.129.369.93.93,0,0,0,.4.281q.158.059.932.27a12.969,12.969,0,0,1,1.562.489,1.584,1.584,0,0,1,.694.554,1.546,1.546,0,0,1,.252.9,1.771,1.771,0,0,1-.308.993,1.988,1.988,0,0,1-.888.721,3.231,3.231,0,0,1-1.312.255,2.924,2.924,0,0,1-1.849-.5A2.343,2.343,0,0,1,128.766,92.537Z" transform="translate(-6.149 -12.904)"/><path class="cls-3" d="M138.311,90.21a4.668,4.668,0,0,1,1.148-3.349,3.9,3.9,0,0,1,2.965-1.21,4.113,4.113,0,0,1,2.145.568,3.712,3.712,0,0,1,1.456,1.585,5.148,5.148,0,0,1,.5,2.306A5.061,5.061,0,0,1,146,92.449,3.6,3.6,0,0,1,144.5,94.01a4.269,4.269,0,0,1-2.086.53,4.062,4.062,0,0,1-2.168-.586,3.771,3.771,0,0,1-1.447-1.6A4.848,4.848,0,0,1,138.311,90.21Zm1.172.018a3.441,3.441,0,0,0,.835,2.446,2.913,2.913,0,0,0,4.207-.009,3.648,3.648,0,0,0,.829-2.561A4.4,4.4,0,0,0,145,88.274a2.724,2.724,0,0,0-1.037-1.213,2.812,2.812,0,0,0-1.532-.431,2.906,2.906,0,0,0-2.077.829A3.7,3.7,0,0,0,139.483,90.228Z" transform="translate(-6.149 -12.904)"/><path class="cls-3" d="M147.856,94.394V88.171h.949v.885a2.237,2.237,0,0,1,1.98-1.025,2.6,2.6,0,0,1,1.034.2,1.627,1.627,0,0,1,.706.53,2.035,2.035,0,0,1,.328.779,6.039,6.039,0,0,1,.059,1.025v3.826h-1.055V90.609a2.841,2.841,0,0,0-.123-.964,1.014,1.014,0,0,0-.437-.51,1.389,1.389,0,0,0-.735-.19,1.709,1.709,0,0,0-1.163.428A2.11,2.11,0,0,0,148.911,91v3.4Z" transform="translate(-6.149 -12.904)"/><path class="cls-3" d="M157.471,91.283a3.207,3.207,0,0,1,.961-2.561,2.9,2.9,0,0,1,1.957-.691,2.792,2.792,0,0,1,2.1.841,3.2,3.2,0,0,1,.814,2.323,4.117,4.117,0,0,1-.36,1.89,2.551,2.551,0,0,1-1.049,1.069,3.054,3.054,0,0,1-1.5.381,2.8,2.8,0,0,1-2.112-.838A3.347,3.347,0,0,1,157.471,91.283Zm1.084,0a2.65,2.65,0,0,0,.521,1.79,1.736,1.736,0,0,0,2.619,0,2.713,2.713,0,0,0,.521-1.822,2.571,2.571,0,0,0-.524-1.749,1.739,1.739,0,0,0-2.616,0A2.639,2.639,0,0,0,158.555,91.283Z" transform="translate(-6.149 -12.904)"/><path class="cls-3" d="M164.526,94.394V88.171h.949v.943a2.574,2.574,0,0,1,.671-.873,1.171,1.171,0,0,1,.677-.211,2.057,2.057,0,0,1,1.084.34l-.363.979a1.509,1.509,0,0,0-.773-.229,1,1,0,0,0-.621.208,1.127,1.127,0,0,0-.393.577,4.108,4.108,0,0,0-.176,1.23v3.258Z" transform="translate(-6.149 -12.904)"/><path class="cls-3" d="M170.4,94.394l3.3-8.59h1.225l3.516,8.59h-1.295l-1-2.6h-3.592l-.943,2.6Zm2.479-3.527h2.912l-.9-2.379q-.41-1.084-.609-1.781a10.95,10.95,0,0,1-.463,1.641Z" transform="translate(-6.149 -12.904)"/><path class="cls-3" d="M179.461,94.394v-5.4h-.932v-.82h.932v-.662a2.9,2.9,0,0,1,.111-.932,1.349,1.349,0,0,1,.536-.665,1.932,1.932,0,0,1,1.075-.255,5.163,5.163,0,0,1,.984.105l-.158.92a3.539,3.539,0,0,0-.621-.059.924.924,0,0,0-.68.205,1.112,1.112,0,0,0-.2.768v.574h1.213v.82H180.51v5.4Z" transform="translate(-6.149 -12.904)"/><path class="cls-3" d="M184.846,93.451l.152.932a3.912,3.912,0,0,1-.8.094,1.8,1.8,0,0,1-.891-.182,1.017,1.017,0,0,1-.445-.478,3.776,3.776,0,0,1-.129-1.245v-3.58h-.773v-.82h.773V86.63L183.786,86v2.174h1.061v.82h-1.061V92.63a1.838,1.838,0,0,0,.056.58.439.439,0,0,0,.182.205.7.7,0,0,0,.36.076A3.431,3.431,0,0,0,184.846,93.451Z" transform="translate(-6.149 -12.904)"/><path class="cls-3" d="M190.137,92.39l1.09.135a2.659,2.659,0,0,1-.955,1.482,3.236,3.236,0,0,1-3.946-.313,3.285,3.285,0,0,1-.8-2.358,3.438,3.438,0,0,1,.809-2.437,2.737,2.737,0,0,1,2.1-.867,2.66,2.66,0,0,1,2.039.85,3.376,3.376,0,0,1,.791,2.391q0,.094-.006.281h-4.641a2.391,2.391,0,0,0,.58,1.57,1.727,1.727,0,0,0,1.3.545,1.614,1.614,0,0,0,.99-.3A2.023,2.023,0,0,0,190.137,92.39Zm-3.463-1.705h3.475a2.108,2.108,0,0,0-.4-1.178,1.616,1.616,0,0,0-1.307-.609,1.675,1.675,0,0,0-1.222.486A1.925,1.925,0,0,0,186.674,90.685Z" transform="translate(-6.149 -12.904)"/><path class="cls-3" d="M192.54,94.394V88.171h.949v.943a2.574,2.574,0,0,1,.671-.873,1.171,1.171,0,0,1,.677-.211,2.057,2.057,0,0,1,1.084.34l-.363.979a1.509,1.509,0,0,0-.773-.229,1,1,0,0,0-.621.208,1.127,1.127,0,0,0-.393.577,4.108,4.108,0,0,0-.176,1.23v3.258Z" transform="translate(-6.149 -12.904)"/><path class="cls-3" d="M61.981,108.794V100.2H65.79a5.069,5.069,0,0,1,1.746.231,1.909,1.909,0,0,1,.955.817,2.439,2.439,0,0,1,.357,1.295,2.16,2.16,0,0,1-.592,1.541,3,3,0,0,1-1.828.8,2.948,2.948,0,0,1,.686.428,5.906,5.906,0,0,1,.943,1.143l1.494,2.338h-1.43l-1.137-1.787q-.5-.773-.82-1.184a2.579,2.579,0,0,0-.577-.574,1.706,1.706,0,0,0-.519-.229,3.415,3.415,0,0,0-.633-.041H63.118v3.814Zm1.137-4.8h2.443a3.664,3.664,0,0,0,1.219-.161,1.3,1.3,0,0,0,.668-.516,1.4,1.4,0,0,0,.229-.771,1.28,1.28,0,0,0-.442-1,2.07,2.07,0,0,0-1.4-.393H63.118Z" transform="translate(-6.149 -12.904)"/><path class="cls-3" d="M74.754,106.79l1.09.135a2.659,2.659,0,0,1-.955,1.482,3.236,3.236,0,0,1-3.946-.313,3.285,3.285,0,0,1-.8-2.358,3.438,3.438,0,0,1,.809-2.437,2.737,2.737,0,0,1,2.1-.867,2.66,2.66,0,0,1,2.039.85,3.376,3.376,0,0,1,.791,2.391q0,.094-.006.281H71.233a2.391,2.391,0,0,0,.58,1.57,1.727,1.727,0,0,0,1.3.545,1.614,1.614,0,0,0,.99-.3A2.023,2.023,0,0,0,74.754,106.79Zm-3.463-1.705h3.475a2.108,2.108,0,0,0-.4-1.178,1.616,1.616,0,0,0-1.307-.609,1.675,1.675,0,0,0-1.222.486A1.925,1.925,0,0,0,71.292,105.085Z" transform="translate(-6.149 -12.904)"/><path class="cls-3" d="M81.135,111.179v-3.047a1.887,1.887,0,0,1-.688.574,2.021,2.021,0,0,1-.94.229,2.487,2.487,0,0,1-1.907-.885,3.484,3.484,0,0,1-.8-2.426,4.159,4.159,0,0,1,.325-1.682,2.426,2.426,0,0,1,.943-1.128,2.522,2.522,0,0,1,1.356-.384,2.084,2.084,0,0,1,1.816.973v-.832h.949v8.607Zm-3.252-5.514a2.75,2.75,0,0,0,.5,1.8,1.528,1.528,0,0,0,1.207.6,1.478,1.478,0,0,0,1.16-.571,2.631,2.631,0,0,0,.486-1.737,2.9,2.9,0,0,0-.513-1.869,1.52,1.52,0,0,0-1.2-.627,1.453,1.453,0,0,0-1.163.583A2.847,2.847,0,0,0,77.883,105.665Z" transform="translate(-6.149 -12.904)"/><path class="cls-3" d="M87.92,108.794v-.914a2.278,2.278,0,0,1-1.975,1.055,2.516,2.516,0,0,1-1.028-.211,1.694,1.694,0,0,1-.709-.53,1.987,1.987,0,0,1-.325-.782,5.356,5.356,0,0,1-.064-.984v-3.855h1.055v3.451a6.15,6.15,0,0,0,.064,1.113,1.1,1.1,0,0,0,.422.653,1.307,1.307,0,0,0,.8.237,1.736,1.736,0,0,0,.891-.243,1.352,1.352,0,0,0,.589-.662,3.322,3.322,0,0,0,.173-1.216v-3.334h1.055v6.223Z" transform="translate(-6.149 -12.904)"/><path class="cls-3" d="M90.522,101.417V100.2h1.055v1.213Zm0,7.377v-6.223h1.055v6.223Z" transform="translate(-6.149 -12.904)"/><path class="cls-3" d="M93.17,108.794v-6.223h.949v.943a2.574,2.574,0,0,1,.671-.873,1.171,1.171,0,0,1,.677-.211,2.057,2.057,0,0,1,1.084.34l-.363.979a1.509,1.509,0,0,0-.773-.229,1,1,0,0,0-.621.208,1.127,1.127,0,0,0-.393.577,4.108,4.108,0,0,0-.176,1.23v3.258Z" transform="translate(-6.149 -12.904)"/><path class="cls-3" d="M101.438,106.79l1.09.135a2.659,2.659,0,0,1-.955,1.482,3.236,3.236,0,0,1-3.946-.313,3.285,3.285,0,0,1-.8-2.358,3.438,3.438,0,0,1,.809-2.437,2.737,2.737,0,0,1,2.1-.867,2.66,2.66,0,0,1,2.039.85,3.376,3.376,0,0,1,.791,2.391q0,.094-.006.281H97.917a2.391,2.391,0,0,0,.58,1.57,1.727,1.727,0,0,0,1.3.545,1.614,1.614,0,0,0,.99-.3A2.023,2.023,0,0,0,101.438,106.79Zm-3.463-1.705h3.475a2.108,2.108,0,0,0-.4-1.178,1.616,1.616,0,0,0-1.307-.609,1.675,1.675,0,0,0-1.222.486A1.925,1.925,0,0,0,97.975,105.085Z" transform="translate(-6.149 -12.904)"/><path class="cls-3" d="M107.889,108.794v-.785a1.935,1.935,0,0,1-1.74.926,2.44,2.44,0,0,1-1.368-.41,2.7,2.7,0,0,1-.967-1.146,3.959,3.959,0,0,1-.343-1.69,4.424,4.424,0,0,1,.311-1.69,2.449,2.449,0,0,1,.932-1.163,2.491,2.491,0,0,1,1.389-.4,2.075,2.075,0,0,1,1.717.855V100.2h1.049v8.59Zm-3.334-3.105a2.7,2.7,0,0,0,.5,1.787,1.519,1.519,0,0,0,1.189.592,1.492,1.492,0,0,0,1.175-.565,2.607,2.607,0,0,0,.483-1.726,2.926,2.926,0,0,0-.492-1.875,1.514,1.514,0,0,0-1.213-.6,1.461,1.461,0,0,0-1.175.574A2.834,2.834,0,0,0,104.555,105.688Z" transform="translate(-6.149 -12.904)"/><path class="cls-3" d="M113.948,108.794V100.2h3.223a3.989,3.989,0,0,1,1.579.261,2.03,2.03,0,0,1,.932.8,2.116,2.116,0,0,1,.337,1.134,1.948,1.948,0,0,1-.3,1.037,2.134,2.134,0,0,1-.9.785,2.244,2.244,0,0,1,1.2.779,2.087,2.087,0,0,1,.419,1.3,2.509,2.509,0,0,1-.255,1.122,2.172,2.172,0,0,1-.63.8,2.629,2.629,0,0,1-.94.425,5.72,5.72,0,0,1-1.386.144Zm1.137-4.98h1.857a4.145,4.145,0,0,0,1.084-.1,1.2,1.2,0,0,0,.653-.428,1.232,1.232,0,0,0,.22-.75,1.381,1.381,0,0,0-.205-.753,1.038,1.038,0,0,0-.586-.445,4.894,4.894,0,0,0-1.307-.12h-1.717Zm0,3.967h2.139a4.923,4.923,0,0,0,.773-.041,1.853,1.853,0,0,0,.656-.234,1.244,1.244,0,0,0,.434-.478,1.5,1.5,0,0,0,.17-.724,1.427,1.427,0,0,0-.246-.835,1.3,1.3,0,0,0-.683-.5,4.232,4.232,0,0,0-1.257-.144h-1.986Z" transform="translate(-6.149 -12.904)"/><path class="cls-3" d="M126.124,106.79l1.09.135a2.659,2.659,0,0,1-.955,1.482,3.236,3.236,0,0,1-3.946-.313,3.285,3.285,0,0,1-.8-2.358,3.438,3.438,0,0,1,.809-2.437,2.737,2.737,0,0,1,2.1-.867,2.66,2.66,0,0,1,2.039.85,3.376,3.376,0,0,1,.791,2.391q0,.094-.006.281H122.6a2.391,2.391,0,0,0,.58,1.57,1.727,1.727,0,0,0,1.3.545,1.614,1.614,0,0,0,.99-.3A2.023,2.023,0,0,0,126.124,106.79Zm-3.463-1.705h3.475a2.108,2.108,0,0,0-.4-1.178,1.616,1.616,0,0,0-1.307-.609,1.675,1.675,0,0,0-1.222.486A1.925,1.925,0,0,0,122.661,105.085Z" transform="translate(-6.149 -12.904)"/><path class="cls-3" d="M128.344,109.31l1.025.152a.977.977,0,0,0,.357.691,1.756,1.756,0,0,0,1.072.293,1.883,1.883,0,0,0,1.131-.293,1.442,1.442,0,0,0,.539-.82,6.736,6.736,0,0,0,.076-1.354,2.169,2.169,0,0,1-1.723.814,2.349,2.349,0,0,1-1.986-.926,3.565,3.565,0,0,1-.7-2.221,4.133,4.133,0,0,1,.322-1.644,2.578,2.578,0,0,1,.935-1.163,2.524,2.524,0,0,1,1.438-.41,2.231,2.231,0,0,1,1.816.891v-.75h.973v5.379a5.1,5.1,0,0,1-.3,2.06,2.164,2.164,0,0,1-.937.958,3.249,3.249,0,0,1-1.579.352,2.978,2.978,0,0,1-1.8-.5A1.694,1.694,0,0,1,128.344,109.31Zm.873-3.738a2.7,2.7,0,0,0,.486,1.787,1.6,1.6,0,0,0,2.438,0,2.612,2.612,0,0,0,.492-1.755,2.552,2.552,0,0,0-.507-1.723,1.567,1.567,0,0,0-1.222-.58,1.522,1.522,0,0,0-1.2.571A2.537,2.537,0,0,0,129.217,105.571Z" transform="translate(-6.149 -12.904)"/><path class="cls-3" d="M135.217,101.417V100.2h1.055v1.213Zm0,7.377v-6.223h1.055v6.223Z" transform="translate(-6.149 -12.904)"/><path class="cls-3" d="M137.877,108.794v-6.223h.949v.885a2.237,2.237,0,0,1,1.98-1.025,2.6,2.6,0,0,1,1.034.2,1.627,1.627,0,0,1,.706.53,2.035,2.035,0,0,1,.328.779,6.039,6.039,0,0,1,.059,1.025v3.826h-1.055v-3.785a2.841,2.841,0,0,0-.123-.964,1.014,1.014,0,0,0-.437-.51,1.389,1.389,0,0,0-.735-.19,1.709,1.709,0,0,0-1.163.428,2.11,2.11,0,0,0-.489,1.623v3.4Z" transform="translate(-6.149 -12.904)"/><path class="cls-3" d="M144.551,108.794v-6.223h.949v.885a2.237,2.237,0,0,1,1.98-1.025,2.6,2.6,0,0,1,1.034.2,1.627,1.627,0,0,1,.706.53,2.035,2.035,0,0,1,.328.779,6.039,6.039,0,0,1,.059,1.025v3.826h-1.055v-3.785a2.841,2.841,0,0,0-.123-.964,1.014,1.014,0,0,0-.437-.51,1.389,1.389,0,0,0-.735-.19,1.709,1.709,0,0,0-1.163.428,2.11,2.11,0,0,0-.489,1.623v3.4Z" transform="translate(-6.149 -12.904)"/><path class="cls-3" d="M151.231,101.417V100.2h1.055v1.213Zm0,7.377v-6.223h1.055v6.223Z" transform="translate(-6.149 -12.904)"/><path class="cls-3" d="M153.891,108.794v-6.223h.949v.885a2.237,2.237,0,0,1,1.98-1.025,2.6,2.6,0,0,1,1.034.2,1.627,1.627,0,0,1,.706.53,2.035,2.035,0,0,1,.328.779,6.039,6.039,0,0,1,.059,1.025v3.826h-1.055v-3.785a2.841,2.841,0,0,0-.123-.964,1.014,1.014,0,0,0-.437-.51,1.389,1.389,0,0,0-.735-.19,1.709,1.709,0,0,0-1.163.428,2.11,2.11,0,0,0-.489,1.623v3.4Z" transform="translate(-6.149 -12.904)"/><path class="cls-3" d="M160.372,109.31l1.025.152a.977.977,0,0,0,.357.691,1.756,1.756,0,0,0,1.072.293,1.883,1.883,0,0,0,1.131-.293,1.442,1.442,0,0,0,.539-.82,6.736,6.736,0,0,0,.076-1.354,2.169,2.169,0,0,1-1.723.814,2.349,2.349,0,0,1-1.986-.926,3.565,3.565,0,0,1-.7-2.221,4.133,4.133,0,0,1,.322-1.644,2.578,2.578,0,0,1,.935-1.163,2.523,2.523,0,0,1,1.438-.41,2.231,2.231,0,0,1,1.816.891v-.75h.973v5.379a5.1,5.1,0,0,1-.3,2.06,2.164,2.164,0,0,1-.937.958,3.249,3.249,0,0,1-1.579.352,2.978,2.978,0,0,1-1.8-.5A1.694,1.694,0,0,1,160.372,109.31Zm.873-3.738a2.7,2.7,0,0,0,.486,1.787,1.6,1.6,0,0,0,2.438,0,2.612,2.612,0,0,0,.492-1.755,2.552,2.552,0,0,0-.507-1.723,1.567,1.567,0,0,0-1.222-.58,1.522,1.522,0,0,0-1.2.571A2.537,2.537,0,0,0,161.245,105.571Z" transform="translate(-6.149 -12.904)"/><path class="cls-3" d="M170.708,108.794V100.2h2.959a7.177,7.177,0,0,1,1.529.123,2.909,2.909,0,0,1,1.26.615,3.5,3.5,0,0,1,1.017,1.468,5.762,5.762,0,0,1,.337,2.042,6,6,0,0,1-.229,1.734,4.208,4.208,0,0,1-.586,1.251,3.113,3.113,0,0,1-.782.779,3.188,3.188,0,0,1-1.025.431,5.852,5.852,0,0,1-1.38.146Zm1.137-1.014h1.834a4.451,4.451,0,0,0,1.333-.158,1.907,1.907,0,0,0,.771-.445,2.71,2.71,0,0,0,.63-1.087,5.314,5.314,0,0,0,.226-1.655,4,4,0,0,0-.442-2.071,2.226,2.226,0,0,0-1.075-.97,4.444,4.444,0,0,0-1.471-.176h-1.8Z" transform="translate(-6.149 -12.904)"/><path class="cls-3" d="M183.3,108.026a3.927,3.927,0,0,1-1.128.7,3.259,3.259,0,0,1-1.163.205,2.262,2.262,0,0,1-1.576-.5,1.654,1.654,0,0,1-.551-1.28,1.7,1.7,0,0,1,.208-.835,1.722,1.722,0,0,1,.545-.606,2.562,2.562,0,0,1,.759-.346,7.536,7.536,0,0,1,.938-.158,9.64,9.64,0,0,0,1.881-.363q.006-.217.006-.275a1.164,1.164,0,0,0-.3-.908,1.765,1.765,0,0,0-1.2-.357,1.863,1.863,0,0,0-1.1.261,1.593,1.593,0,0,0-.524.923l-1.031-.141a2.555,2.555,0,0,1,.463-1.069,2.029,2.029,0,0,1,.932-.627,4.155,4.155,0,0,1,1.412-.22,3.738,3.738,0,0,1,1.295.188,1.706,1.706,0,0,1,.732.472,1.659,1.659,0,0,1,.328.718,5.938,5.938,0,0,1,.053.973v1.406a14.926,14.926,0,0,0,.067,1.86,2.347,2.347,0,0,0,.267.747h-1.1A2.236,2.236,0,0,1,183.3,108.026Zm-.088-2.355a7.738,7.738,0,0,1-1.723.4,3.985,3.985,0,0,0-.92.211.917.917,0,0,0-.416.343.932.932,0,0,0,.173,1.2,1.374,1.374,0,0,0,.935.281,2.175,2.175,0,0,0,1.084-.267,1.642,1.642,0,0,0,.7-.729,2.548,2.548,0,0,0,.17-1.055Z" transform="translate(-6.149 -12.904)"/><path class="cls-3" d="M188.215,107.851l.152.932a3.912,3.912,0,0,1-.8.094,1.8,1.8,0,0,1-.891-.182,1.017,1.017,0,0,1-.445-.478,3.776,3.776,0,0,1-.129-1.245v-3.58h-.773v-.82h.773V101.03l1.049-.633v2.174h1.061v.82h-1.061v3.639a1.838,1.838,0,0,0,.056.58.439.439,0,0,0,.182.205.7.7,0,0,0,.36.076A3.431,3.431,0,0,0,188.215,107.851Z" transform="translate(-6.149 -12.904)"/><path class="cls-3" d="M193.506,106.79l1.09.135a2.659,2.659,0,0,1-.955,1.482,3.236,3.236,0,0,1-3.946-.313,3.285,3.285,0,0,1-.8-2.358,3.438,3.438,0,0,1,.809-2.437,2.737,2.737,0,0,1,2.1-.867,2.66,2.66,0,0,1,2.039.85,3.376,3.376,0,0,1,.791,2.391q0,.094-.006.281h-4.641a2.391,2.391,0,0,0,.58,1.57,1.727,1.727,0,0,0,1.3.545,1.614,1.614,0,0,0,.99-.3A2.023,2.023,0,0,0,193.506,106.79Zm-3.463-1.705h3.475a2.108,2.108,0,0,0-.4-1.178,1.616,1.616,0,0,0-1.307-.609,1.675,1.675,0,0,0-1.222.486A1.925,1.925,0,0,0,190.043,105.085Z" transform="translate(-6.149 -12.904)"/><line class="cls-2" x1="111.752" y1="203.699" x2="111.752" y2="242.184"/><path class="cls-1" d="M40.411,272v-8.59h2.783a10.093,10.093,0,0,1,2.063.129,2.252,2.252,0,0,1,1.236.841,2.666,2.666,0,0,1,.5,1.673,2.8,2.8,0,0,1-.287,1.33,2.355,2.355,0,0,1-.729.847,2.514,2.514,0,0,1-.9.407,9.9,9.9,0,0,1-1.8.123H42.146V272Zm1.734-7.137V267.3h.949a4.485,4.485,0,0,0,1.371-.135,1.139,1.139,0,0,0,.542-.422,1.155,1.155,0,0,0,.2-.668,1.11,1.11,0,0,0-.275-.773,1.2,1.2,0,0,0-.7-.381,8.336,8.336,0,0,0-1.248-.059Z" transform="translate(-6.149 -12.904)"/><path class="cls-1" d="M49.634,267.678l-1.494-.27a2.327,2.327,0,0,1,.867-1.336,3.173,3.173,0,0,1,1.828-.434,3.94,3.94,0,0,1,1.641.261,1.636,1.636,0,0,1,.759.662,3.4,3.4,0,0,1,.22,1.474l-.018,1.922a6.672,6.672,0,0,0,.079,1.21,3.532,3.532,0,0,0,.3.835H52.183q-.064-.164-.158-.486-.041-.146-.059-.193a2.968,2.968,0,0,1-.9.615,2.584,2.584,0,0,1-1.025.205,2.12,2.12,0,0,1-1.515-.521,1.733,1.733,0,0,1-.554-1.318,1.77,1.77,0,0,1,.252-.94,1.646,1.646,0,0,1,.706-.633,5.518,5.518,0,0,1,1.31-.384,8.971,8.971,0,0,0,1.6-.4v-.164a.853.853,0,0,0-.234-.677,1.4,1.4,0,0,0-.885-.2,1.178,1.178,0,0,0-.686.173A1.2,1.2,0,0,0,49.634,267.678Zm2.2,1.336a10.292,10.292,0,0,1-1,.252,3.018,3.018,0,0,0-.9.287.687.687,0,0,0-.322.58.808.808,0,0,0,.258.6.9.9,0,0,0,.656.252,1.426,1.426,0,0,0,.85-.293,1.031,1.031,0,0,0,.393-.545,3.251,3.251,0,0,0,.064-.8Z" transform="translate(-6.149 -12.904)"/><path class="cls-1" d="M54.3,265.779H56.05l1.488,4.418,1.453-4.418H60.7l-2.2,5.988-.393,1.084a4.419,4.419,0,0,1-.413.832,1.8,1.8,0,0,1-.451.466,1.972,1.972,0,0,1-.627.278,3.256,3.256,0,0,1-.841.1,4.362,4.362,0,0,1-.932-.1l-.146-1.289a3.642,3.642,0,0,0,.7.076,1.033,1.033,0,0,0,.85-.337,2.338,2.338,0,0,0,.422-.858Z" transform="translate(-6.149 -12.904)"/><path class="cls-1" d="M61.37,268.8a3.366,3.366,0,0,1,.4-1.588,2.775,2.775,0,0,1,1.146-1.172,3.4,3.4,0,0,1,1.655-.4,3.107,3.107,0,0,1,2.314.917,3.168,3.168,0,0,1,.9,2.317,3.206,3.206,0,0,1-.911,2.341,3.08,3.08,0,0,1-2.294.929,3.613,3.613,0,0,1-1.632-.387,2.653,2.653,0,0,1-1.181-1.134A3.778,3.778,0,0,1,61.37,268.8Zm1.688.088a2.062,2.062,0,0,0,.439,1.418,1.437,1.437,0,0,0,2.165,0,2.09,2.09,0,0,0,.437-1.43,2.052,2.052,0,0,0-.437-1.406,1.437,1.437,0,0,0-2.165,0A2.062,2.062,0,0,0,63.058,268.891Z" transform="translate(-6.149 -12.904)"/><path class="cls-1" d="M73.177,272v-.932a2.4,2.4,0,0,1-.894.785,2.5,2.5,0,0,1-1.169.287,2.286,2.286,0,0,1-1.125-.275,1.626,1.626,0,0,1-.721-.773,3.451,3.451,0,0,1-.223-1.377v-3.937h1.646v2.859a7.929,7.929,0,0,0,.091,1.608.877.877,0,0,0,.331.469,1.017,1.017,0,0,0,.609.173,1.3,1.3,0,0,0,.756-.231,1.177,1.177,0,0,0,.457-.574,6.665,6.665,0,0,0,.123-1.679v-2.625h1.646V272Z" transform="translate(-6.149 -12.904)"/><path class="cls-1" d="M79.265,265.779v1.313H78.14V269.6a6.237,6.237,0,0,0,.032.888.362.362,0,0,0,.146.208.465.465,0,0,0,.278.082,2.13,2.13,0,0,0,.662-.158L79.4,271.9a3.273,3.273,0,0,1-1.3.246,2.063,2.063,0,0,1-.8-.149,1.172,1.172,0,0,1-.524-.387,1.526,1.526,0,0,1-.231-.642,7.981,7.981,0,0,1-.053-1.16v-2.713h-.756v-1.312h.756v-1.236l1.652-.961v2.2Z" transform="translate(-6.149 -12.904)"/><path class="cls-1" d="M83.759,263.412h3.434a9.919,9.919,0,0,1,1.521.085,2.234,2.234,0,0,1,.9.354,2.2,2.2,0,0,1,.659.718,1.945,1.945,0,0,1,.264,1,2.036,2.036,0,0,1-1.207,1.863,2.261,2.261,0,0,1,1.207.779,2.069,2.069,0,0,1,.422,1.295,2.553,2.553,0,0,1-.272,1.14,2.3,2.3,0,0,1-.744.885,2.458,2.458,0,0,1-1.163.407q-.434.047-2.092.059H83.759Zm1.734,1.43v1.986H86.63q1.014,0,1.26-.029a1.146,1.146,0,0,0,.7-.308.907.907,0,0,0,.255-.671.942.942,0,0,0-.22-.647,1,1,0,0,0-.653-.3q-.258-.029-1.482-.029Zm0,3.416v2.3H87.1a7.846,7.846,0,0,0,1.189-.053,1.075,1.075,0,0,0,.63-.343,1.055,1.055,0,0,0,.243-.729,1.121,1.121,0,0,0-.187-.656,1.06,1.06,0,0,0-.542-.393,5.892,5.892,0,0,0-1.538-.123Z" transform="translate(-6.149 -12.904)"/><path class="cls-1" d="M93.638,267.678l-1.494-.27a2.327,2.327,0,0,1,.867-1.336,3.173,3.173,0,0,1,1.828-.434,3.94,3.94,0,0,1,1.641.261,1.636,1.636,0,0,1,.759.662,3.4,3.4,0,0,1,.22,1.474l-.018,1.922a6.672,6.672,0,0,0,.079,1.21,3.532,3.532,0,0,0,.3.835H96.187q-.064-.164-.158-.486-.041-.146-.059-.193a2.968,2.968,0,0,1-.9.615,2.584,2.584,0,0,1-1.025.205,2.12,2.12,0,0,1-1.515-.521,1.733,1.733,0,0,1-.554-1.318,1.77,1.77,0,0,1,.252-.94,1.646,1.646,0,0,1,.706-.633,5.518,5.518,0,0,1,1.31-.384,8.971,8.971,0,0,0,1.6-.4v-.164a.853.853,0,0,0-.234-.677,1.4,1.4,0,0,0-.885-.2,1.178,1.178,0,0,0-.686.173A1.2,1.2,0,0,0,93.638,267.678Zm2.2,1.336a10.292,10.292,0,0,1-1,.252,3.018,3.018,0,0,0-.9.287.687.687,0,0,0-.322.58.808.808,0,0,0,.258.6.9.9,0,0,0,.656.252,1.426,1.426,0,0,0,.85-.293,1.031,1.031,0,0,0,.393-.545,3.251,3.251,0,0,0,.064-.8Z" transform="translate(-6.149 -12.904)"/><path class="cls-1" d="M98.5,270.227l1.652-.252a1.211,1.211,0,0,0,.428.729,1.445,1.445,0,0,0,.9.249,1.629,1.629,0,0,0,.961-.234.523.523,0,0,0,.217-.439.432.432,0,0,0-.117-.311,1.312,1.312,0,0,0-.551-.217,8.882,8.882,0,0,1-2.525-.8,1.6,1.6,0,0,1-.738-1.4,1.726,1.726,0,0,1,.639-1.359,2.982,2.982,0,0,1,1.98-.551,3.455,3.455,0,0,1,1.9.416,2.126,2.126,0,0,1,.855,1.23l-1.553.287a.96.96,0,0,0-.378-.557,1.382,1.382,0,0,0-.794-.193,1.789,1.789,0,0,0-.932.182.39.39,0,0,0-.187.334.364.364,0,0,0,.164.3,6.177,6.177,0,0,0,1.538.463,4.579,4.579,0,0,1,1.837.732,1.522,1.522,0,0,1,.516,1.225,1.88,1.88,0,0,1-.715,1.471,3.164,3.164,0,0,1-2.115.615,3.471,3.471,0,0,1-2.013-.516A2.376,2.376,0,0,1,98.5,270.227Z" transform="translate(-6.149 -12.904)"/><path class="cls-1" d="M109.358,270.021,111,270.3a2.691,2.691,0,0,1-1,1.374,2.935,2.935,0,0,1-1.708.472,2.784,2.784,0,0,1-2.4-1.061,3.563,3.563,0,0,1-.615-2.145,3.436,3.436,0,0,1,.809-2.423,2.663,2.663,0,0,1,2.045-.876,2.762,2.762,0,0,1,2.191.917,4.057,4.057,0,0,1,.768,2.81h-4.125a1.666,1.666,0,0,0,.4,1.14,1.246,1.246,0,0,0,.949.407,1.008,1.008,0,0,0,.65-.211A1.3,1.3,0,0,0,109.358,270.021Zm.094-1.664a1.585,1.585,0,0,0-.369-1.087,1.188,1.188,0,0,0-1.746.021,1.519,1.519,0,0,0-.346,1.066Z" transform="translate(-6.149 -12.904)"/><path class="cls-1" d="M118.136,272h-1.529v-.914a2.471,2.471,0,0,1-.9.794,2.308,2.308,0,0,1-1.046.261,2.37,2.37,0,0,1-1.837-.864,3.516,3.516,0,0,1-.765-2.411,3.474,3.474,0,0,1,.744-2.405,2.426,2.426,0,0,1,1.881-.823,2.33,2.33,0,0,1,1.8.867v-3.094h1.646Zm-4.395-3.246a2.849,2.849,0,0,0,.275,1.441,1.244,1.244,0,0,0,1.113.645,1.212,1.212,0,0,0,.967-.483,2.231,2.231,0,0,0,.4-1.444,2.442,2.442,0,0,0-.387-1.544,1.224,1.224,0,0,0-.99-.472,1.237,1.237,0,0,0-.981.466A2.1,2.1,0,0,0,113.741,268.756Z" transform="translate(-6.149 -12.904)"/><path class="cls-1" d="M122.712,268.8a3.366,3.366,0,0,1,.4-1.588,2.775,2.775,0,0,1,1.146-1.172,3.4,3.4,0,0,1,1.655-.4,3.107,3.107,0,0,1,2.314.917,3.168,3.168,0,0,1,.9,2.317,3.206,3.206,0,0,1-.911,2.341,3.08,3.08,0,0,1-2.294.929,3.613,3.613,0,0,1-1.632-.387,2.653,2.653,0,0,1-1.181-1.134A3.778,3.778,0,0,1,122.712,268.8Zm1.688.088a2.062,2.062,0,0,0,.439,1.418,1.437,1.437,0,0,0,2.165,0,2.09,2.09,0,0,0,.437-1.43,2.052,2.052,0,0,0-.437-1.406,1.437,1.437,0,0,0-2.165,0A2.062,2.062,0,0,0,124.4,268.891Z" transform="translate(-6.149 -12.904)"/><path class="cls-1" d="M136.083,272h-1.646v-3.176a4.908,4.908,0,0,0-.105-1.3.914.914,0,0,0-.343-.46.98.98,0,0,0-.571-.164,1.32,1.32,0,0,0-.768.234,1.181,1.181,0,0,0-.466.621,5.369,5.369,0,0,0-.126,1.43V272h-1.646v-6.223h1.529v.914a2.55,2.55,0,0,1,3.047-.858,1.669,1.669,0,0,1,.683.5,1.815,1.815,0,0,1,.322.691,5.143,5.143,0,0,1,.091,1.107Z" transform="translate(-6.149 -12.904)"/><path class="cls-1" d="M141.093,263.412h3.17a6.19,6.19,0,0,1,1.635.164,2.873,2.873,0,0,1,1.295.791,3.753,3.753,0,0,1,.82,1.392,6.339,6.339,0,0,1,.281,2.03,5.645,5.645,0,0,1-.264,1.828,3.787,3.787,0,0,1-.92,1.518,3.049,3.049,0,0,1-1.219.686,5.247,5.247,0,0,1-1.535.182h-3.264Zm1.734,1.453v5.689h1.295a4.726,4.726,0,0,0,1.049-.082,1.6,1.6,0,0,0,.7-.357,1.819,1.819,0,0,0,.454-.829,5.6,5.6,0,0,0,.176-1.573,5.132,5.132,0,0,0-.176-1.529,1.965,1.965,0,0,0-.492-.832,1.65,1.65,0,0,0-.8-.4,7.863,7.863,0,0,0-1.424-.082Z" transform="translate(-6.149 -12.904)"/><path class="cls-1" d="M153.356,270.021,155,270.3a2.691,2.691,0,0,1-1,1.374,2.935,2.935,0,0,1-1.708.472,2.784,2.784,0,0,1-2.4-1.061,3.563,3.563,0,0,1-.615-2.145,3.436,3.436,0,0,1,.809-2.423,2.663,2.663,0,0,1,2.045-.876,2.762,2.762,0,0,1,2.191.917,4.057,4.057,0,0,1,.768,2.81H150.96a1.666,1.666,0,0,0,.4,1.14,1.246,1.246,0,0,0,.949.407,1.008,1.008,0,0,0,.65-.211A1.3,1.3,0,0,0,153.356,270.021Zm.094-1.664a1.585,1.585,0,0,0-.369-1.087,1.188,1.188,0,0,0-1.746.021,1.519,1.519,0,0,0-.346,1.066Z" transform="translate(-6.149 -12.904)"/><path class="cls-1" d="M161.853,267.619l-1.623.293a1.178,1.178,0,0,0-.372-.732,1.124,1.124,0,0,0-.753-.246,1.23,1.23,0,0,0-.981.425,2.177,2.177,0,0,0-.366,1.421,2.518,2.518,0,0,0,.372,1.564,1.222,1.222,0,0,0,1,.457,1.11,1.11,0,0,0,.768-.267,1.6,1.6,0,0,0,.422-.917l1.617.275a2.87,2.87,0,0,1-.967,1.682,2.993,2.993,0,0,1-1.916.568,2.849,2.849,0,0,1-2.177-.861,3.926,3.926,0,0,1,0-4.784,2.893,2.893,0,0,1,2.2-.858,3.006,3.006,0,0,1,1.808.489A2.711,2.711,0,0,1,161.853,267.619Z" transform="translate(-6.149 -12.904)"/><path class="cls-1" d="M166.7,270.021l1.641.275a2.691,2.691,0,0,1-1,1.374,2.935,2.935,0,0,1-1.708.472,2.784,2.784,0,0,1-2.4-1.061,3.563,3.563,0,0,1-.615-2.145,3.436,3.436,0,0,1,.809-2.423,2.663,2.663,0,0,1,2.045-.876,2.762,2.762,0,0,1,2.191.917,4.057,4.057,0,0,1,.768,2.81h-4.125a1.666,1.666,0,0,0,.4,1.14,1.246,1.246,0,0,0,.949.407,1.008,1.008,0,0,0,.65-.211A1.3,1.3,0,0,0,166.7,270.021Zm.094-1.664a1.585,1.585,0,0,0-.369-1.087,1.188,1.188,0,0,0-1.746.021,1.519,1.519,0,0,0-.346,1.066Z" transform="translate(-6.149 -12.904)"/><path class="cls-1" d="M171,267.678l-1.494-.27a2.327,2.327,0,0,1,.867-1.336,3.173,3.173,0,0,1,1.828-.434,3.94,3.94,0,0,1,1.641.261,1.636,1.636,0,0,1,.759.662,3.4,3.4,0,0,1,.22,1.474l-.018,1.922a6.672,6.672,0,0,0,.079,1.21,3.532,3.532,0,0,0,.3.835h-1.629q-.064-.164-.158-.486-.041-.146-.059-.193a2.968,2.968,0,0,1-.9.615,2.584,2.584,0,0,1-1.025.205,2.12,2.12,0,0,1-1.515-.521,1.733,1.733,0,0,1-.554-1.318,1.77,1.77,0,0,1,.252-.94,1.646,1.646,0,0,1,.706-.633,5.518,5.518,0,0,1,1.31-.384,8.971,8.971,0,0,0,1.6-.4v-.164a.853.853,0,0,0-.234-.677,1.4,1.4,0,0,0-.885-.2,1.178,1.178,0,0,0-.686.173A1.2,1.2,0,0,0,171,267.678Zm2.2,1.336a10.292,10.292,0,0,1-1,.252,3.018,3.018,0,0,0-.9.287.687.687,0,0,0-.322.58.808.808,0,0,0,.258.6.9.9,0,0,0,.656.252,1.426,1.426,0,0,0,.85-.293,1.031,1.031,0,0,0,.393-.545,3.251,3.251,0,0,0,.064-.8Z" transform="translate(-6.149 -12.904)"/><path class="cls-1" d="M175.868,270.227l1.652-.252a1.211,1.211,0,0,0,.428.729,1.445,1.445,0,0,0,.9.249,1.629,1.629,0,0,0,.961-.234.523.523,0,0,0,.217-.439.432.432,0,0,0-.117-.311,1.312,1.312,0,0,0-.551-.217,8.882,8.882,0,0,1-2.525-.8,1.6,1.6,0,0,1-.738-1.4,1.726,1.726,0,0,1,.639-1.359,2.982,2.982,0,0,1,1.98-.551,3.455,3.455,0,0,1,1.9.416,2.126,2.126,0,0,1,.855,1.23l-1.553.287a.96.96,0,0,0-.378-.557,1.382,1.382,0,0,0-.794-.193,1.789,1.789,0,0,0-.932.182.39.39,0,0,0-.187.334.364.364,0,0,0,.164.3,6.177,6.177,0,0,0,1.538.463,4.579,4.579,0,0,1,1.837.732,1.522,1.522,0,0,1,.516,1.225,1.88,1.88,0,0,1-.715,1.471,3.164,3.164,0,0,1-2.115.615,3.471,3.471,0,0,1-2.013-.516A2.376,2.376,0,0,1,175.868,270.227Z" transform="translate(-6.149 -12.904)"/><path class="cls-1" d="M186.726,270.021l1.641.275a2.691,2.691,0,0,1-1,1.374,2.935,2.935,0,0,1-1.708.472,2.784,2.784,0,0,1-2.4-1.061,3.563,3.563,0,0,1-.615-2.145,3.436,3.436,0,0,1,.809-2.423,2.663,2.663,0,0,1,2.045-.876,2.762,2.762,0,0,1,2.191.917,4.057,4.057,0,0,1,.768,2.81h-4.125a1.666,1.666,0,0,0,.4,1.14,1.246,1.246,0,0,0,.949.407,1.008,1.008,0,0,0,.65-.211A1.3,1.3,0,0,0,186.726,270.021Zm.094-1.664a1.585,1.585,0,0,0-.369-1.087,1.188,1.188,0,0,0-1.746.021,1.519,1.519,0,0,0-.346,1.066Z" transform="translate(-6.149 -12.904)"/><path class="cls-1" d="M195.5,272h-1.529v-.914a2.471,2.471,0,0,1-.9.794,2.308,2.308,0,0,1-1.046.261,2.37,2.37,0,0,1-1.837-.864,3.516,3.516,0,0,1-.765-2.411,3.474,3.474,0,0,1,.744-2.405,2.426,2.426,0,0,1,1.881-.823,2.33,2.33,0,0,1,1.8.867v-3.094H195.5Zm-4.395-3.246a2.849,2.849,0,0,0,.275,1.441,1.244,1.244,0,0,0,1.113.645,1.212,1.212,0,0,0,.967-.483,2.231,2.231,0,0,0,.4-1.444,2.442,2.442,0,0,0-.387-1.544,1.224,1.224,0,0,0-.99-.472,1.237,1.237,0,0,0-.981.466A2.1,2.1,0,0,0,191.108,268.756Z" transform="translate(-6.149 -12.904)"/><path class="cls-1" d="M42.74,282.16a5.463,5.463,0,0,1,.393-2.2,4.043,4.043,0,0,1,.8-1.178,3.344,3.344,0,0,1,1.11-.773,4.716,4.716,0,0,1,1.852-.34,4.033,4.033,0,0,1,3.038,1.178,5.263,5.263,0,0,1,.009,6.53,4,4,0,0,1-3.023,1.175,4.043,4.043,0,0,1-3.047-1.169A4.436,4.436,0,0,1,42.74,282.16Zm1.787-.059a3.219,3.219,0,0,0,.674,2.212,2.317,2.317,0,0,0,3.413.006,3.283,3.283,0,0,0,.665-2.241,3.23,3.23,0,0,0-.647-2.2,2.4,2.4,0,0,0-3.448.009A3.245,3.245,0,0,0,44.527,282.1Z" transform="translate(-6.149 -12.904)"/><path class="cls-1" d="M53.574,286.4l-1.969-6.223h1.6l1.166,4.078,1.072-4.078h1.588l1.037,4.078,1.189-4.078h1.623l-2,6.223H57.3l-1.072-4-1.055,4Z" transform="translate(-6.149 -12.904)"/><path class="cls-1" d="M67.408,286.4H65.762v-3.176a4.908,4.908,0,0,0-.105-1.3.914.914,0,0,0-.343-.46.98.98,0,0,0-.571-.164,1.32,1.32,0,0,0-.768.234,1.181,1.181,0,0,0-.466.621,5.369,5.369,0,0,0-.126,1.43V286.4H61.736v-6.223h1.529v.914a2.55,2.55,0,0,1,3.047-.858,1.669,1.669,0,0,1,.683.5,1.815,1.815,0,0,1,.322.691,5.143,5.143,0,0,1,.091,1.107Z" transform="translate(-6.149 -12.904)"/><path class="cls-1" d="M72.682,284.421l1.641.275a2.691,2.691,0,0,1-1,1.374,2.935,2.935,0,0,1-1.708.472,2.784,2.784,0,0,1-2.4-1.061,3.563,3.563,0,0,1-.615-2.145,3.436,3.436,0,0,1,.809-2.423,2.663,2.663,0,0,1,2.045-.876,2.762,2.762,0,0,1,2.191.917,4.057,4.057,0,0,1,.768,2.81H70.285a1.666,1.666,0,0,0,.4,1.14,1.246,1.246,0,0,0,.949.407,1.008,1.008,0,0,0,.65-.211A1.3,1.3,0,0,0,72.682,284.421Zm.094-1.664a1.585,1.585,0,0,0-.369-1.087,1.188,1.188,0,0,0-1.746.021,1.519,1.519,0,0,0-.346,1.066Z" transform="translate(-6.149 -12.904)"/><path class="cls-1" d="M77.328,286.4H75.682v-6.223h1.529v.885a2.659,2.659,0,0,1,.706-.826,1.3,1.3,0,0,1,.712-.2,2.09,2.09,0,0,1,1.084.311l-.51,1.436a1.445,1.445,0,0,0-.773-.27.914.914,0,0,0-.586.19,1.3,1.3,0,0,0-.378.688,9.781,9.781,0,0,0-.138,2.086Z" transform="translate(-6.149 -12.904)"/><path class="cls-1" d="M80.826,277.835h1.646v1.178a4.105,4.105,0,0,1-.123,1.128,1.685,1.685,0,0,1-.466.741,2.4,2.4,0,0,1-.87.516l-.322-.68a1.387,1.387,0,0,0,.709-.451,1.357,1.357,0,0,0,.223-.785h-.8Z" transform="translate(-6.149 -12.904)"/><path class="cls-1" d="M83.176,284.626l1.652-.252a1.211,1.211,0,0,0,.428.729,1.445,1.445,0,0,0,.9.249,1.629,1.629,0,0,0,.961-.234.523.523,0,0,0,.217-.439.432.432,0,0,0-.117-.311,1.312,1.312,0,0,0-.551-.217,8.882,8.882,0,0,1-2.525-.8,1.6,1.6,0,0,1-.738-1.4,1.726,1.726,0,0,1,.639-1.359,2.982,2.982,0,0,1,1.98-.551,3.455,3.455,0,0,1,1.9.416,2.126,2.126,0,0,1,.855,1.23l-1.553.287a.96.96,0,0,0-.378-.557,1.382,1.382,0,0,0-.794-.193,1.789,1.789,0,0,0-.932.182.39.39,0,0,0-.187.334.364.364,0,0,0,.164.3,6.177,6.177,0,0,0,1.538.463,4.579,4.579,0,0,1,1.837.732,1.522,1.522,0,0,1,.516,1.225,1.88,1.88,0,0,1-.715,1.471,3.164,3.164,0,0,1-2.115.615,3.471,3.471,0,0,1-2.013-.516A2.376,2.376,0,0,1,83.176,284.626Z" transform="translate(-6.149 -12.904)"/><path class="cls-1" d="M93.781,286.4v-8.59h3.65a6.248,6.248,0,0,1,2,.231,1.974,1.974,0,0,1,1,.823,2.474,2.474,0,0,1,.375,1.354,2.293,2.293,0,0,1-.568,1.6,2.73,2.73,0,0,1-1.7.794,4.046,4.046,0,0,1,.929.721,9.79,9.79,0,0,1,.987,1.395L101.5,286.4H99.43l-1.254-1.869a12.125,12.125,0,0,0-.914-1.263,1.331,1.331,0,0,0-.521-.357,2.859,2.859,0,0,0-.873-.1h-.352V286.4Zm1.734-4.957H96.8a6.626,6.626,0,0,0,1.559-.105.934.934,0,0,0,.486-.363,1.118,1.118,0,0,0,.176-.645,1.03,1.03,0,0,0-.231-.7,1.062,1.062,0,0,0-.653-.337q-.211-.029-1.266-.029H95.516Z" transform="translate(-6.149 -12.904)"/><path class="cls-1" d="M106.033,284.421l1.641.275a2.691,2.691,0,0,1-1,1.374,2.935,2.935,0,0,1-1.708.472,2.784,2.784,0,0,1-2.4-1.061,3.563,3.563,0,0,1-.615-2.145,3.436,3.436,0,0,1,.809-2.423,2.663,2.663,0,0,1,2.045-.876,2.762,2.762,0,0,1,2.191.917,4.057,4.057,0,0,1,.768,2.81h-4.125a1.666,1.666,0,0,0,.4,1.14,1.246,1.246,0,0,0,.949.407,1.008,1.008,0,0,0,.65-.211A1.3,1.3,0,0,0,106.033,284.421Zm.094-1.664a1.585,1.585,0,0,0-.369-1.087,1.188,1.188,0,0,0-1.746.021,1.519,1.519,0,0,0-.346,1.066Z" transform="translate(-6.149 -12.904)"/><path class="cls-1" d="M108.98,280.179H110.5v.85a2.442,2.442,0,0,1,1.939-.99,2.089,2.089,0,0,1,1.037.246,1.891,1.891,0,0,1,.721.744,2.875,2.875,0,0,1,.885-.744,2.171,2.171,0,0,1,1.014-.246,2.258,2.258,0,0,1,1.16.278,1.705,1.705,0,0,1,.709.817,3.546,3.546,0,0,1,.17,1.289V286.4h-1.646v-3.557a2.646,2.646,0,0,0-.17-1.2.78.78,0,0,0-.7-.352,1.122,1.122,0,0,0-.65.211,1.17,1.17,0,0,0-.439.618,4.448,4.448,0,0,0-.135,1.286V286.4h-1.646v-3.41a4.73,4.73,0,0,0-.088-1.172.748.748,0,0,0-.272-.393.861.861,0,0,0-.5-.129,1.2,1.2,0,0,0-.686.205,1.125,1.125,0,0,0-.437.592,4.4,4.4,0,0,0-.132,1.283V286.4H108.98Z" transform="translate(-6.149 -12.904)"/><path class="cls-1" d="M121,282.078l-1.494-.27a2.327,2.327,0,0,1,.867-1.336,3.173,3.173,0,0,1,1.828-.434,3.94,3.94,0,0,1,1.641.261,1.636,1.636,0,0,1,.759.662,3.4,3.4,0,0,1,.22,1.474l-.018,1.922a6.672,6.672,0,0,0,.079,1.21,3.532,3.532,0,0,0,.3.835h-1.629q-.064-.164-.158-.486-.041-.146-.059-.193a2.968,2.968,0,0,1-.9.615,2.584,2.584,0,0,1-1.025.205,2.12,2.12,0,0,1-1.515-.521,1.733,1.733,0,0,1-.554-1.318,1.77,1.77,0,0,1,.252-.94,1.646,1.646,0,0,1,.706-.633,5.518,5.518,0,0,1,1.31-.384,8.971,8.971,0,0,0,1.6-.4v-.164a.853.853,0,0,0-.234-.677,1.4,1.4,0,0,0-.885-.2,1.178,1.178,0,0,0-.686.173A1.2,1.2,0,0,0,121,282.078Zm2.2,1.336a10.292,10.292,0,0,1-1,.252,3.018,3.018,0,0,0-.9.287.687.687,0,0,0-.322.58.808.808,0,0,0,.258.6.9.9,0,0,0,.656.252,1.426,1.426,0,0,0,.85-.293,1.031,1.031,0,0,0,.393-.545,3.251,3.251,0,0,0,.064-.8Z" transform="translate(-6.149 -12.904)"/><path class="cls-1" d="M126.447,279.335v-1.523h1.646v1.523Zm0,7.066v-6.223h1.646V286.4Z" transform="translate(-6.149 -12.904)"/><path class="cls-1" d="M135.441,286.4h-1.646v-3.176a4.908,4.908,0,0,0-.105-1.3.914.914,0,0,0-.343-.46.98.98,0,0,0-.571-.164,1.32,1.32,0,0,0-.768.234,1.181,1.181,0,0,0-.466.621,5.369,5.369,0,0,0-.126,1.43V286.4H129.77v-6.223H131.3v.914a2.55,2.55,0,0,1,3.047-.858,1.669,1.669,0,0,1,.683.5,1.815,1.815,0,0,1,.322.691,5.143,5.143,0,0,1,.091,1.107Z" transform="translate(-6.149 -12.904)"/><path class="cls-1" d="M137.111,279.335v-1.523h1.646v1.523Zm0,7.066v-6.223h1.646V286.4Z" transform="translate(-6.149 -12.904)"/><path class="cls-1" d="M146.105,286.4h-1.646v-3.176a4.908,4.908,0,0,0-.105-1.3.914.914,0,0,0-.343-.46.98.98,0,0,0-.571-.164,1.32,1.32,0,0,0-.768.234,1.181,1.181,0,0,0-.466.621,5.369,5.369,0,0,0-.126,1.43V286.4h-1.646v-6.223h1.529v.914a2.55,2.55,0,0,1,3.047-.858,1.669,1.669,0,0,1,.683.5,1.815,1.815,0,0,1,.322.691,5.143,5.143,0,0,1,.091,1.107Z" transform="translate(-6.149 -12.904)"/><path class="cls-1" d="M147.623,286.812l1.881.229a.642.642,0,0,0,.217.451,1.238,1.238,0,0,0,.738.176,1.917,1.917,0,0,0,.967-.193.8.8,0,0,0,.328-.416,2.5,2.5,0,0,0,.076-.756v-.908a2.228,2.228,0,0,1-1.863,1.008,2.294,2.294,0,0,1-1.986-1.061,3.6,3.6,0,0,1-.574-2.086,3.431,3.431,0,0,1,.753-2.391,2.43,2.43,0,0,1,1.872-.826,2.279,2.279,0,0,1,1.9,1.014v-.873h1.541v5.584a5.564,5.564,0,0,1-.182,1.646,2.038,2.038,0,0,1-.51.855,2.255,2.255,0,0,1-.876.486,4.611,4.611,0,0,1-1.386.176,3.587,3.587,0,0,1-2.244-.542,1.7,1.7,0,0,1-.662-1.374Q147.617,286.929,147.623,286.812Zm1.471-3.65a2.244,2.244,0,0,0,.384,1.45,1.187,1.187,0,0,0,.946.46,1.308,1.308,0,0,0,1.02-.472,2.056,2.056,0,0,0,.416-1.4,2.179,2.179,0,0,0-.4-1.436,1.266,1.266,0,0,0-1.008-.469,1.215,1.215,0,0,0-.976.46A2.157,2.157,0,0,0,149.094,283.162Z" transform="translate(-6.149 -12.904)"/><path class="cls-1" d="M158.012,283.607l1.688-.164a2.059,2.059,0,0,0,.618,1.248,1.869,1.869,0,0,0,1.257.4,1.932,1.932,0,0,0,1.263-.354,1.055,1.055,0,0,0,.425-.829.782.782,0,0,0-.179-.519,1.428,1.428,0,0,0-.624-.372q-.3-.105-1.389-.375a4.711,4.711,0,0,1-1.957-.85,2.235,2.235,0,0,1-.791-1.729,2.208,2.208,0,0,1,.372-1.228,2.329,2.329,0,0,1,1.072-.87,4.3,4.3,0,0,1,1.69-.3,3.626,3.626,0,0,1,2.435.709,2.5,2.5,0,0,1,.858,1.893l-1.734.076a1.473,1.473,0,0,0-.478-.952,1.748,1.748,0,0,0-1.1-.29,1.982,1.982,0,0,0-1.184.311.626.626,0,0,0-.275.533.66.66,0,0,0,.258.521,4.56,4.56,0,0,0,1.594.574,8.411,8.411,0,0,1,1.872.618,2.413,2.413,0,0,1,.949.873,2.7,2.7,0,0,1-.067,2.751,2.458,2.458,0,0,1-1.16.958,4.865,4.865,0,0,1-1.869.313,3.721,3.721,0,0,1-2.5-.753A3.275,3.275,0,0,1,158.012,283.607Z" transform="translate(-6.149 -12.904)"/><path class="cls-1" d="M166.443,279.335v-1.523h1.646v1.523Zm0,7.066v-6.223h1.646V286.4Z" transform="translate(-6.149 -12.904)"/><path class="cls-1" d="M175.438,286.4h-1.646v-3.176a4.908,4.908,0,0,0-.105-1.3.914.914,0,0,0-.343-.46.98.98,0,0,0-.571-.164,1.32,1.32,0,0,0-.768.234,1.181,1.181,0,0,0-.466.621,5.369,5.369,0,0,0-.126,1.43V286.4h-1.646v-6.223h1.529v.914a2.55,2.55,0,0,1,3.047-.858,1.669,1.669,0,0,1,.683.5,1.815,1.815,0,0,1,.322.691,5.143,5.143,0,0,1,.091,1.107Z" transform="translate(-6.149 -12.904)"/><path class="cls-1" d="M176.955,286.812l1.881.229a.642.642,0,0,0,.217.451,1.238,1.238,0,0,0,.738.176,1.917,1.917,0,0,0,.967-.193.8.8,0,0,0,.328-.416,2.5,2.5,0,0,0,.076-.756v-.908A2.228,2.228,0,0,1,179.3,286.4a2.294,2.294,0,0,1-1.986-1.061,3.6,3.6,0,0,1-.574-2.086,3.431,3.431,0,0,1,.753-2.391,2.43,2.43,0,0,1,1.872-.826,2.279,2.279,0,0,1,1.9,1.014v-.873h1.541v5.584a5.564,5.564,0,0,1-.182,1.646,2.038,2.038,0,0,1-.51.855,2.255,2.255,0,0,1-.876.486,4.611,4.611,0,0,1-1.386.176,3.587,3.587,0,0,1-2.244-.542,1.7,1.7,0,0,1-.662-1.374Q176.949,286.929,176.955,286.812Zm1.471-3.65a2.244,2.244,0,0,0,.384,1.45,1.187,1.187,0,0,0,.946.46,1.308,1.308,0,0,0,1.02-.472,2.056,2.056,0,0,0,.416-1.4,2.179,2.179,0,0,0-.4-1.436,1.266,1.266,0,0,0-1.008-.469,1.215,1.215,0,0,0-.976.46A2.157,2.157,0,0,0,178.426,283.162Z" transform="translate(-6.149 -12.904)"/><path class="cls-1" d="M184.438,286.4v-8.59h1.646v8.59Z" transform="translate(-6.149 -12.904)"/><path class="cls-1" d="M191.375,284.421l1.641.275a2.691,2.691,0,0,1-1,1.374,2.935,2.935,0,0,1-1.708.472,2.784,2.784,0,0,1-2.4-1.061,3.563,3.563,0,0,1-.615-2.145,3.436,3.436,0,0,1,.809-2.423,2.663,2.663,0,0,1,2.045-.876,2.762,2.762,0,0,1,2.191.917,4.057,4.057,0,0,1,.768,2.81h-4.125a1.666,1.666,0,0,0,.4,1.14,1.246,1.246,0,0,0,.949.407,1.008,1.008,0,0,0,.65-.211A1.3,1.3,0,0,0,191.375,284.421Zm.094-1.664a1.585,1.585,0,0,0-.369-1.087,1.188,1.188,0,0,0-1.746.021,1.519,1.519,0,0,0-.346,1.066Z" transform="translate(-6.149 -12.904)"/><path class="cls-1" d="M73.136,300.8v-8.52H74.87v7.072h4.313V300.8Z" transform="translate(-6.149 -12.904)"/><path class="cls-1" d="M80.407,293.735v-1.523h1.646v1.523Zm0,7.066v-6.223h1.646V300.8Z" transform="translate(-6.149 -12.904)"/><path class="cls-1" d="M83.021,294.579h.914v-.469a3.114,3.114,0,0,1,.167-1.172,1.32,1.32,0,0,1,.615-.63,2.36,2.36,0,0,1,1.134-.243,4.583,4.583,0,0,1,1.377.211L87,293.425a3.252,3.252,0,0,0-.756-.094.674.674,0,0,0-.513.167.967.967,0,0,0-.155.642v.439h1.23v1.295h-1.23V300.8H83.935v-4.928h-.914Z" transform="translate(-6.149 -12.904)"/><path class="cls-1" d="M91.341,298.821l1.641.275a2.691,2.691,0,0,1-1,1.374,2.935,2.935,0,0,1-1.708.472,2.784,2.784,0,0,1-2.4-1.061,3.563,3.563,0,0,1-.615-2.145,3.436,3.436,0,0,1,.809-2.423,2.663,2.663,0,0,1,2.045-.876,2.762,2.762,0,0,1,2.191.917,4.057,4.057,0,0,1,.768,2.81H88.944a1.666,1.666,0,0,0,.4,1.14,1.246,1.246,0,0,0,.949.407,1.008,1.008,0,0,0,.65-.211A1.3,1.3,0,0,0,91.341,298.821Zm.094-1.664a1.585,1.585,0,0,0-.369-1.087,1.188,1.188,0,0,0-1.746.021,1.519,1.519,0,0,0-.346,1.066Z" transform="translate(-6.149 -12.904)"/><path class="cls-1" d="M97.757,300.8v-8.59h6.369v1.453H99.491v1.9H103.8v1.447H99.491v2.338h4.8V300.8Z" transform="translate(-6.149 -12.904)"/><path class="cls-1" d="M104.958,300.8,107.2,297.6l-2.15-3.018h2.01l1.1,1.711,1.16-1.711h1.934l-2.109,2.947,2.3,3.275h-2.021l-1.266-1.928-1.277,1.928Z" transform="translate(-6.149 -12.904)"/><path class="cls-1" d="M112.376,294.579h1.535v.914a2.3,2.3,0,0,1,.809-.762,2.229,2.229,0,0,1,1.131-.293,2.372,2.372,0,0,1,1.84.85,3.439,3.439,0,0,1,.756,2.367,3.543,3.543,0,0,1-.762,2.423,2.373,2.373,0,0,1-1.846.864,2.1,2.1,0,0,1-.935-.205,3.15,3.15,0,0,1-.882-.7v3.135h-1.646ZM114,297.585a2.4,2.4,0,0,0,.416,1.55,1.273,1.273,0,0,0,1.014.5,1.19,1.19,0,0,0,.955-.46,2.37,2.37,0,0,0,.381-1.509,2.249,2.249,0,0,0-.393-1.453,1.214,1.214,0,0,0-.973-.475,1.263,1.263,0,0,0-1,.466A2.073,2.073,0,0,0,114,297.585Z" transform="translate(-6.149 -12.904)"/><path class="cls-1" d="M123.356,298.821,125,299.1a2.691,2.691,0,0,1-1,1.374,2.935,2.935,0,0,1-1.708.472,2.784,2.784,0,0,1-2.4-1.061,3.563,3.563,0,0,1-.615-2.145,3.436,3.436,0,0,1,.809-2.423,2.663,2.663,0,0,1,2.045-.876,2.762,2.762,0,0,1,2.191.917,4.057,4.057,0,0,1,.768,2.81H120.96a1.666,1.666,0,0,0,.4,1.14,1.246,1.246,0,0,0,.949.407,1.008,1.008,0,0,0,.65-.211A1.3,1.3,0,0,0,123.356,298.821Zm.094-1.664a1.585,1.585,0,0,0-.369-1.087,1.188,1.188,0,0,0-1.746.021,1.519,1.519,0,0,0-.346,1.066Z" transform="translate(-6.149 -12.904)"/><path class="cls-1" d="M131.853,296.419l-1.623.293a1.178,1.178,0,0,0-.372-.732,1.124,1.124,0,0,0-.753-.246,1.23,1.23,0,0,0-.981.425,2.177,2.177,0,0,0-.366,1.421,2.518,2.518,0,0,0,.372,1.564,1.222,1.222,0,0,0,1,.457,1.11,1.11,0,0,0,.768-.267,1.6,1.6,0,0,0,.422-.917l1.617.275a2.87,2.87,0,0,1-.967,1.682,2.993,2.993,0,0,1-1.916.568,2.849,2.849,0,0,1-2.177-.861,3.926,3.926,0,0,1,0-4.784,2.893,2.893,0,0,1,2.2-.858,3.006,3.006,0,0,1,1.808.489A2.711,2.711,0,0,1,131.853,296.419Z" transform="translate(-6.149 -12.904)"/><path class="cls-1" d="M135.954,294.579v1.313h-1.125V298.4a6.237,6.237,0,0,0,.032.888.362.362,0,0,0,.146.208.465.465,0,0,0,.278.082,2.13,2.13,0,0,0,.662-.158l.141,1.277a3.273,3.273,0,0,1-1.3.246,2.063,2.063,0,0,1-.8-.149,1.172,1.172,0,0,1-.524-.387,1.526,1.526,0,0,1-.231-.642,7.981,7.981,0,0,1-.053-1.16v-2.713h-.756v-1.312h.756v-1.236l1.652-.961v2.2Z" transform="translate(-6.149 -12.904)"/><path class="cls-1" d="M138.327,296.478l-1.494-.27a2.327,2.327,0,0,1,.867-1.336,3.173,3.173,0,0,1,1.828-.434,3.94,3.94,0,0,1,1.641.261,1.636,1.636,0,0,1,.759.662,3.4,3.4,0,0,1,.22,1.474l-.018,1.922a6.672,6.672,0,0,0,.079,1.21,3.532,3.532,0,0,0,.3.835h-1.629q-.064-.164-.158-.486-.041-.146-.059-.193a2.968,2.968,0,0,1-.9.615,2.584,2.584,0,0,1-1.025.205,2.12,2.12,0,0,1-1.515-.521,1.733,1.733,0,0,1-.554-1.318,1.77,1.77,0,0,1,.252-.94,1.646,1.646,0,0,1,.706-.633,5.518,5.518,0,0,1,1.31-.384,8.971,8.971,0,0,0,1.6-.4v-.164a.853.853,0,0,0-.234-.677,1.4,1.4,0,0,0-.885-.2,1.178,1.178,0,0,0-.686.173A1.2,1.2,0,0,0,138.327,296.478Zm2.2,1.336a10.292,10.292,0,0,1-1,.252,3.018,3.018,0,0,0-.9.287.687.687,0,0,0-.322.58.808.808,0,0,0,.258.6.9.9,0,0,0,.656.252,1.426,1.426,0,0,0,.85-.293,1.031,1.031,0,0,0,.393-.545,3.251,3.251,0,0,0,.064-.8Z" transform="translate(-6.149 -12.904)"/><path class="cls-1" d="M149.431,300.8h-1.646v-3.176a4.908,4.908,0,0,0-.105-1.3.914.914,0,0,0-.343-.46.98.98,0,0,0-.571-.164,1.32,1.32,0,0,0-.768.234,1.181,1.181,0,0,0-.466.621,5.369,5.369,0,0,0-.126,1.43V300.8h-1.646v-6.223h1.529v.914a2.55,2.55,0,0,1,3.047-.858,1.669,1.669,0,0,1,.683.5,1.815,1.815,0,0,1,.322.691,5.143,5.143,0,0,1,.091,1.107Z" transform="translate(-6.149 -12.904)"/><path class="cls-1" d="M156.526,296.419l-1.623.293a1.178,1.178,0,0,0-.372-.732,1.124,1.124,0,0,0-.753-.246,1.23,1.23,0,0,0-.981.425,2.177,2.177,0,0,0-.366,1.421,2.518,2.518,0,0,0,.372,1.564,1.222,1.222,0,0,0,1,.457,1.11,1.11,0,0,0,.768-.267,1.6,1.6,0,0,0,.422-.917l1.617.275a2.87,2.87,0,0,1-.967,1.682,2.993,2.993,0,0,1-1.916.568,2.849,2.849,0,0,1-2.177-.861,3.926,3.926,0,0,1,0-4.784,2.893,2.893,0,0,1,2.2-.858,3.006,3.006,0,0,1,1.808.489A2.711,2.711,0,0,1,156.526,296.419Z" transform="translate(-6.149 -12.904)"/><path class="cls-1" d="M157,294.579h1.752L160.235,299l1.453-4.418h1.705l-2.2,5.988-.393,1.084a4.419,4.419,0,0,1-.413.832,1.8,1.8,0,0,1-.451.466,1.972,1.972,0,0,1-.627.278,3.256,3.256,0,0,1-.841.1,4.362,4.362,0,0,1-.932-.1l-.146-1.289a3.642,3.642,0,0,0,.7.076,1.033,1.033,0,0,0,.85-.337,2.338,2.338,0,0,0,.422-.858Z" transform="translate(-6.149 -12.904)"/></svg>