<svg id="Layer_1" data-name="Layer 1" xmlns="http://www.w3.org/2000/svg" viewBox="0 0 223.505 259.238"><defs><style>.cls-1{fill:#3861ad;}.cls-2{fill:none;stroke:#3861ad;stroke-miterlimit:10;stroke-width:3px;}.cls-3{fill:#231f20;}</style></defs><title>Review_Exercise_3_Part_02</title><path class="cls-1" d="M81.5,17.529V8.939h2.783a10.093,10.093,0,0,1,2.063.129,2.252,2.252,0,0,1,1.236.841,2.666,2.666,0,0,1,.5,1.673,2.8,2.8,0,0,1-.287,1.33,2.355,2.355,0,0,1-.729.847,2.514,2.514,0,0,1-.9.407,9.9,9.9,0,0,1-1.8.123H83.23v3.24Zm1.734-7.137V12.83h.949a4.485,4.485,0,0,0,1.371-.135,1.139,1.139,0,0,0,.542-.422,1.155,1.155,0,0,0,.2-.668,1.11,1.11,0,0,0-.275-.773,1.2,1.2,0,0,0-.7-.381,8.336,8.336,0,0,0-1.248-.059Z" transform="translate(-8.149 -8.904)"/><path class="cls-1" d="M96.355,17.529H94.469l-.75-1.951H90.285l-.709,1.951h-1.84l3.346-8.59h1.834Zm-3.193-3.4-1.184-3.187-1.16,3.188Z" transform="translate(-8.149 -8.904)"/><path class="cls-1" d="M97.281,17.529V8.939h3.65a6.248,6.248,0,0,1,2,.231,1.974,1.974,0,0,1,1,.823,2.474,2.474,0,0,1,.375,1.354,2.293,2.293,0,0,1-.568,1.6,2.73,2.73,0,0,1-1.7.794,4.046,4.046,0,0,1,.929.721,9.79,9.79,0,0,1,.987,1.395L105,17.529H102.93l-1.254-1.869a12.125,12.125,0,0,0-.914-1.263,1.331,1.331,0,0,0-.521-.357,2.859,2.859,0,0,0-.873-.1h-.352v3.586Zm1.734-4.957H100.3a6.626,6.626,0,0,0,1.559-.105.934.934,0,0,0,.486-.363,1.118,1.118,0,0,0,.176-.645,1.03,1.03,0,0,0-.231-.7,1.062,1.062,0,0,0-.653-.337q-.211-.029-1.266-.029H99.016Z" transform="translate(-8.149 -8.904)"/><path class="cls-1" d="M107.875,17.529V10.393h-2.549V8.939h6.826v1.453h-2.543v7.137Z" transform="translate(-8.149 -8.904)"/><path class="cls-1" d="M121.8,16v1.529h-5.771a3.975,3.975,0,0,1,.563-1.644,10.937,10.937,0,0,1,1.852-2.06,11.646,11.646,0,0,0,1.365-1.406,1.811,1.811,0,0,0,.34-1.008,1.146,1.146,0,0,0-.3-.847,1.257,1.257,0,0,0-1.638.015,1.6,1.6,0,0,0-.352,1.031l-1.641-.164a2.69,2.69,0,0,1,.92-1.951,3.089,3.089,0,0,1,1.934-.592,2.8,2.8,0,0,1,2,.686,2.249,2.249,0,0,1,.727,1.705,2.968,2.968,0,0,1-.208,1.1,4.492,4.492,0,0,1-.659,1.1,10.548,10.548,0,0,1-1.078,1.1q-.779.715-.987.949a2.842,2.842,0,0,0-.337.457Z" transform="translate(-8.149 -8.904)"/><rect class="cls-2" x="1.5" y="19.161" width="220.505" height="87.631"/><line class="cls-2" x1="111.752" y1="114.25" x2="111.752" y2="152.735"/><path class="cls-1" d="M64.943,175.461H63.3v-6.205A5.676,5.676,0,0,1,61.17,170.5V169.01a4.762,4.762,0,0,0,1.4-.8,3.039,3.039,0,0,0,1.037-1.374h1.336Z" transform="translate(-8.149 -8.904)"/><path class="cls-1" d="M70.188,166.836a2.347,2.347,0,0,1,1.951.891,7.709,7.709,0,0,1-.006,7,2.343,2.343,0,0,1-1.945.879,2.458,2.458,0,0,1-2.021-.964,7.854,7.854,0,0,1,.076-6.929A2.343,2.343,0,0,1,70.188,166.836Zm0,1.365a.823.823,0,0,0-.533.19,1.278,1.278,0,0,0-.363.683,13.954,13.954,0,0,0-.018,4.228,1.46,1.46,0,0,0,.384.753.843.843,0,0,0,1.063,0,1.278,1.278,0,0,0,.363-.683,13.915,13.915,0,0,0,.018-4.222,1.481,1.481,0,0,0-.384-.756A.811.811,0,0,0,70.188,168.2Z" transform="translate(-8.149 -8.904)"/><path class="cls-1" d="M76.861,166.836a2.347,2.347,0,0,1,1.951.891,7.709,7.709,0,0,1-.006,7,2.343,2.343,0,0,1-1.945.879,2.458,2.458,0,0,1-2.021-.964,7.854,7.854,0,0,1,.076-6.929A2.343,2.343,0,0,1,76.861,166.836Zm0,1.365a.823.823,0,0,0-.533.19,1.278,1.278,0,0,0-.363.683,13.954,13.954,0,0,0-.018,4.228,1.46,1.46,0,0,0,.384.753.843.843,0,0,0,1.063,0,1.278,1.278,0,0,0,.363-.683,13.915,13.915,0,0,0,.018-4.222,1.481,1.481,0,0,0-.384-.756A.811.811,0,0,0,76.861,168.2Z" transform="translate(-8.149 -8.904)"/><path class="cls-1" d="M80.764,168.993a2.477,2.477,0,0,1,.507-1.711,1.766,1.766,0,0,1,1.374-.557,1.807,1.807,0,0,1,1.4.554,3.146,3.146,0,0,1,0,3.425,1.766,1.766,0,0,1-1.374.557,1.807,1.807,0,0,1-1.4-.554A2.475,2.475,0,0,1,80.764,168.993Zm1.283-.012a2.22,2.22,0,0,0,.193,1.125.466.466,0,0,0,.4.211.471.471,0,0,0,.41-.211,2.28,2.28,0,0,0,.188-1.125,2.242,2.242,0,0,0-.187-1.119.495.495,0,0,0-.814-.006A2.22,2.22,0,0,0,82.047,168.981ZM83.9,175.79H82.68l4.576-9.064h1.184Zm2.66-2.256a2.477,2.477,0,0,1,.507-1.711,2.011,2.011,0,0,1,2.777,0,3.151,3.151,0,0,1,0,3.428,1.766,1.766,0,0,1-1.374.557,1.8,1.8,0,0,1-1.4-.557A2.487,2.487,0,0,1,86.559,173.534Zm1.283-.006a2.183,2.183,0,0,0,.193,1.119.462.462,0,0,0,.4.217.457.457,0,0,0,.4-.211,2.22,2.22,0,0,0,.193-1.125,2.28,2.28,0,0,0-.187-1.125.471.471,0,0,0-.41-.211.457.457,0,0,0-.4.211A2.22,2.22,0,0,0,87.842,173.528Z" transform="translate(-8.149 -8.904)"/><path class="cls-1" d="M97.961,169.239v1.313H96.836v2.508a6.237,6.237,0,0,0,.032.888.362.362,0,0,0,.146.208.465.465,0,0,0,.278.082,2.13,2.13,0,0,0,.662-.158l.141,1.277a3.273,3.273,0,0,1-1.3.246,2.063,2.063,0,0,1-.8-.149,1.172,1.172,0,0,1-.524-.387,1.526,1.526,0,0,1-.231-.642,7.981,7.981,0,0,1-.053-1.16v-2.713h-.756v-1.312h.756V168l1.652-.961v2.2Z" transform="translate(-8.149 -8.904)"/><path class="cls-1" d="M98.723,172.262a3.366,3.366,0,0,1,.4-1.588,2.775,2.775,0,0,1,1.146-1.172,3.4,3.4,0,0,1,1.655-.4,3.107,3.107,0,0,1,2.314.917,3.168,3.168,0,0,1,.9,2.317,3.206,3.206,0,0,1-.911,2.341,3.08,3.08,0,0,1-2.294.929,3.613,3.613,0,0,1-1.632-.387,2.653,2.653,0,0,1-1.181-1.134A3.778,3.778,0,0,1,98.723,172.262Zm1.688.088a2.062,2.062,0,0,0,.439,1.418,1.437,1.437,0,0,0,2.165,0,2.09,2.09,0,0,0,.437-1.43,2.052,2.052,0,0,0-.437-1.406,1.437,1.437,0,0,0-2.165,0A2.062,2.062,0,0,0,100.41,172.35Z" transform="translate(-8.149 -8.904)"/><path class="cls-1" d="M109.428,171.219a5.463,5.463,0,0,1,.393-2.2,4.043,4.043,0,0,1,.8-1.178,3.344,3.344,0,0,1,1.11-.773,4.716,4.716,0,0,1,1.852-.34,4.033,4.033,0,0,1,3.038,1.178,5.263,5.263,0,0,1,.009,6.53,4,4,0,0,1-3.023,1.175,4.043,4.043,0,0,1-3.047-1.169A4.436,4.436,0,0,1,109.428,171.219Zm1.787-.059a3.219,3.219,0,0,0,.674,2.212,2.317,2.317,0,0,0,3.413.006,3.283,3.283,0,0,0,.665-2.241,3.23,3.23,0,0,0-.647-2.2,2.4,2.4,0,0,0-3.448.009A3.245,3.245,0,0,0,111.215,171.161Z" transform="translate(-8.149 -8.904)"/><path class="cls-1" d="M124.762,175.461h-1.646v-3.176a4.908,4.908,0,0,0-.105-1.3.914.914,0,0,0-.343-.46.98.98,0,0,0-.571-.164,1.32,1.32,0,0,0-.768.234,1.181,1.181,0,0,0-.466.621,5.369,5.369,0,0,0-.126,1.43v2.818H119.09v-6.223h1.529v.914a2.55,2.55,0,0,1,3.047-.858,1.669,1.669,0,0,1,.683.5,1.815,1.815,0,0,1,.322.691,5.143,5.143,0,0,1,.091,1.107Z" transform="translate(-8.149 -8.904)"/><path class="cls-1" d="M130.035,173.481l1.641.275a2.691,2.691,0,0,1-1,1.374,2.935,2.935,0,0,1-1.708.472,2.784,2.784,0,0,1-2.4-1.061,3.563,3.563,0,0,1-.615-2.145,3.436,3.436,0,0,1,.809-2.423,2.663,2.663,0,0,1,2.045-.876,2.762,2.762,0,0,1,2.191.917,4.057,4.057,0,0,1,.768,2.81h-4.125a1.666,1.666,0,0,0,.4,1.14,1.246,1.246,0,0,0,.949.407,1.008,1.008,0,0,0,.65-.211A1.3,1.3,0,0,0,130.035,173.481Zm.094-1.664a1.585,1.585,0,0,0-.369-1.087,1.188,1.188,0,0,0-1.746.021,1.519,1.519,0,0,0-.346,1.066Z" transform="translate(-8.149 -8.904)"/><path class="cls-1" d="M136.059,172.262a3.366,3.366,0,0,1,.4-1.588,2.775,2.775,0,0,1,1.146-1.172,3.4,3.4,0,0,1,1.655-.4,3.107,3.107,0,0,1,2.314.917,3.168,3.168,0,0,1,.9,2.317,3.206,3.206,0,0,1-.911,2.341,3.08,3.08,0,0,1-2.294.929,3.613,3.613,0,0,1-1.632-.387,2.653,2.653,0,0,1-1.181-1.134A3.778,3.778,0,0,1,136.059,172.262Zm1.688.088a2.062,2.062,0,0,0,.439,1.418,1.437,1.437,0,0,0,2.165,0,2.09,2.09,0,0,0,.437-1.43,2.052,2.052,0,0,0-.437-1.406,1.437,1.437,0,0,0-2.165,0A2.062,2.062,0,0,0,137.746,172.35Z" transform="translate(-8.149 -8.904)"/><path class="cls-1" d="M145.346,175.461H143.7v-6.223h1.529v.885a2.659,2.659,0,0,1,.706-.826,1.3,1.3,0,0,1,.712-.2,2.09,2.09,0,0,1,1.084.311l-.51,1.436a1.445,1.445,0,0,0-.773-.27.914.914,0,0,0-.586.19,1.3,1.3,0,0,0-.378.688,9.781,9.781,0,0,0-.138,2.086Z" transform="translate(-8.149 -8.904)"/><path class="cls-1" d="M151.762,175.461v-8.59h2.6l1.559,5.859,1.541-5.859h2.6v8.59h-1.611V168.7l-1.705,6.762h-1.67l-1.7-6.762v6.762Z" transform="translate(-8.149 -8.904)"/><path class="cls-1" d="M161.389,172.262a3.366,3.366,0,0,1,.4-1.588,2.775,2.775,0,0,1,1.146-1.172,3.4,3.4,0,0,1,1.655-.4,3.107,3.107,0,0,1,2.314.917,3.168,3.168,0,0,1,.9,2.317,3.206,3.206,0,0,1-.911,2.341,3.08,3.08,0,0,1-2.294.929,3.613,3.613,0,0,1-1.632-.387,2.653,2.653,0,0,1-1.181-1.134A3.778,3.778,0,0,1,161.389,172.262Zm1.688.088a2.062,2.062,0,0,0,.439,1.418,1.437,1.437,0,0,0,2.165,0,2.09,2.09,0,0,0,.437-1.43,2.052,2.052,0,0,0-.437-1.406,1.437,1.437,0,0,0-2.165,0A2.062,2.062,0,0,0,163.076,172.35Z" transform="translate(-8.149 -8.904)"/><path class="cls-1" d="M170.676,175.461h-1.646v-6.223h1.529v.885a2.659,2.659,0,0,1,.706-.826,1.3,1.3,0,0,1,.712-.2,2.09,2.09,0,0,1,1.084.311l-.51,1.436a1.445,1.445,0,0,0-.773-.27.914.914,0,0,0-.586.19,1.3,1.3,0,0,0-.378.688,9.781,9.781,0,0,0-.138,2.086Z" transform="translate(-8.149 -8.904)"/><path class="cls-1" d="M177.373,173.481l1.641.275a2.691,2.691,0,0,1-1,1.374,2.935,2.935,0,0,1-1.708.472,2.784,2.784,0,0,1-2.4-1.061,3.563,3.563,0,0,1-.615-2.145,3.436,3.436,0,0,1,.809-2.423,2.663,2.663,0,0,1,2.045-.876,2.762,2.762,0,0,1,2.191.917,4.057,4.057,0,0,1,.768,2.81h-4.125a1.666,1.666,0,0,0,.4,1.14,1.246,1.246,0,0,0,.949.407,1.008,1.008,0,0,0,.65-.211A1.3,1.3,0,0,0,177.373,173.481Zm.094-1.664a1.585,1.585,0,0,0-.369-1.087,1.188,1.188,0,0,0-1.746.021,1.519,1.519,0,0,0-.346,1.066Z" transform="translate(-8.149 -8.904)"/><path class="cls-1" d="M65.433,189.861v-8.59H71.8v1.453H67.167v1.9h4.313v1.447H67.167v2.338h4.8v1.447Z" transform="translate(-8.149 -8.904)"/><path class="cls-1" d="M79.085,189.861H77.438v-3.176a4.908,4.908,0,0,0-.105-1.3.914.914,0,0,0-.343-.46.98.98,0,0,0-.571-.164,1.32,1.32,0,0,0-.768.234,1.181,1.181,0,0,0-.466.621,5.369,5.369,0,0,0-.126,1.43v2.818H73.413v-6.223h1.529v.914a2.55,2.55,0,0,1,3.047-.858,1.669,1.669,0,0,1,.683.5,1.815,1.815,0,0,1,.322.691,5.143,5.143,0,0,1,.091,1.107Z" transform="translate(-8.149 -8.904)"/><path class="cls-1" d="M83.608,183.639v1.313H82.483v2.508a6.237,6.237,0,0,0,.032.888.362.362,0,0,0,.146.208.465.465,0,0,0,.278.082,2.13,2.13,0,0,0,.662-.158l.141,1.277a3.273,3.273,0,0,1-1.3.246,2.063,2.063,0,0,1-.8-.149,1.172,1.172,0,0,1-.524-.387,1.526,1.526,0,0,1-.231-.642,7.981,7.981,0,0,1-.053-1.16v-2.713h-.756v-1.312h.756V182.4l1.652-.961v2.2Z" transform="translate(-8.149 -8.904)"/><path class="cls-1" d="M84.751,182.795v-1.523H86.4v1.523Zm0,7.066v-6.223H86.4v6.223Z" transform="translate(-8.149 -8.904)"/><path class="cls-1" d="M90.938,183.639v1.313H89.813v2.508a6.237,6.237,0,0,0,.032.888.362.362,0,0,0,.146.208.465.465,0,0,0,.278.082,2.13,2.13,0,0,0,.662-.158l.141,1.277a3.273,3.273,0,0,1-1.3.246,2.063,2.063,0,0,1-.8-.149,1.172,1.172,0,0,1-.524-.387,1.526,1.526,0,0,1-.231-.642,7.981,7.981,0,0,1-.053-1.16v-2.713h-.756v-1.312h.756V182.4l1.652-.961v2.2Z" transform="translate(-8.149 -8.904)"/><path class="cls-1" d="M92.081,182.795v-1.523h1.646v1.523Zm0,7.066v-6.223h1.646v6.223Z" transform="translate(-8.149 -8.904)"/><path class="cls-1" d="M99.019,187.881l1.641.275a2.691,2.691,0,0,1-1,1.374,2.935,2.935,0,0,1-1.708.472,2.784,2.784,0,0,1-2.4-1.061,3.563,3.563,0,0,1-.615-2.145,3.436,3.436,0,0,1,.809-2.423,2.663,2.663,0,0,1,2.045-.876,2.762,2.762,0,0,1,2.191.917,4.057,4.057,0,0,1,.768,2.81H96.622a1.666,1.666,0,0,0,.4,1.14,1.246,1.246,0,0,0,.949.407,1.008,1.008,0,0,0,.65-.211A1.3,1.3,0,0,0,99.019,187.881Zm.094-1.664a1.585,1.585,0,0,0-.369-1.087A1.188,1.188,0,0,0,97,185.15a1.519,1.519,0,0,0-.346,1.066Z" transform="translate(-8.149 -8.904)"/><path class="cls-1" d="M101.509,188.086l1.652-.252a1.211,1.211,0,0,0,.428.729,1.445,1.445,0,0,0,.9.249,1.629,1.629,0,0,0,.961-.234.523.523,0,0,0,.217-.439.432.432,0,0,0-.117-.311,1.312,1.312,0,0,0-.551-.217,8.882,8.882,0,0,1-2.525-.8,1.6,1.6,0,0,1-.738-1.4,1.726,1.726,0,0,1,.639-1.359,2.982,2.982,0,0,1,1.98-.551,3.455,3.455,0,0,1,1.9.416,2.126,2.126,0,0,1,.855,1.23l-1.553.287a.96.96,0,0,0-.378-.557,1.382,1.382,0,0,0-.794-.193,1.789,1.789,0,0,0-.932.182.39.39,0,0,0-.187.334.364.364,0,0,0,.164.3,6.177,6.177,0,0,0,1.538.463,4.579,4.579,0,0,1,1.837.732,1.522,1.522,0,0,1,.516,1.225,1.88,1.88,0,0,1-.715,1.471,3.164,3.164,0,0,1-2.115.615,3.471,3.471,0,0,1-2.013-.516A2.376,2.376,0,0,1,101.509,188.086Z" transform="translate(-8.149 -8.904)"/><path class="cls-1" d="M114.827,192.387H113.7a11.394,11.394,0,0,1-1.365-2.812,9.214,9.214,0,0,1-.469-2.824,8.869,8.869,0,0,1,.58-3.205,11.246,11.246,0,0,1,1.277-2.42h1.125a17.775,17.775,0,0,0-1.1,3.021,11.359,11.359,0,0,0-.123,4.608,12.847,12.847,0,0,0,.489,1.916Q114.312,191.268,114.827,192.387Z" transform="translate(-8.149 -8.904)"/><path class="cls-1" d="M121.753,189.861h-1.646v-3.176a4.908,4.908,0,0,0-.105-1.3.914.914,0,0,0-.343-.46.98.98,0,0,0-.571-.164,1.32,1.32,0,0,0-.768.234,1.181,1.181,0,0,0-.466.621,5.369,5.369,0,0,0-.126,1.43v2.818h-1.646v-6.223h1.529v.914a2.55,2.55,0,0,1,3.047-.858,1.669,1.669,0,0,1,.683.5,1.815,1.815,0,0,1,.322.691,5.143,5.143,0,0,1,.091,1.107Z" transform="translate(-8.149 -8.904)"/><path class="cls-1" d="M123.042,186.662a3.366,3.366,0,0,1,.4-1.588,2.775,2.775,0,0,1,1.146-1.172,3.4,3.4,0,0,1,1.655-.4,3.107,3.107,0,0,1,2.314.917,3.168,3.168,0,0,1,.9,2.317,3.206,3.206,0,0,1-.911,2.341,3.08,3.08,0,0,1-2.294.929,3.613,3.613,0,0,1-1.632-.387,2.653,2.653,0,0,1-1.181-1.134A3.778,3.778,0,0,1,123.042,186.662Zm1.688.088a2.062,2.062,0,0,0,.439,1.418,1.437,1.437,0,0,0,2.165,0,2.09,2.09,0,0,0,.437-1.43,2.052,2.052,0,0,0-.437-1.406,1.437,1.437,0,0,0-2.165,0A2.062,2.062,0,0,0,124.729,186.75Z" transform="translate(-8.149 -8.904)"/><path class="cls-1" d="M136.413,189.861h-1.646v-3.176a4.908,4.908,0,0,0-.105-1.3.914.914,0,0,0-.343-.46.98.98,0,0,0-.571-.164,1.32,1.32,0,0,0-.768.234,1.181,1.181,0,0,0-.466.621,5.369,5.369,0,0,0-.126,1.43v2.818h-1.646v-6.223h1.529v.914a2.55,2.55,0,0,1,3.047-.858,1.669,1.669,0,0,1,.683.5,1.815,1.815,0,0,1,.322.691,5.143,5.143,0,0,1,.091,1.107Z" transform="translate(-8.149 -8.904)"/><path class="cls-1" d="M141.687,187.881l1.641.275a2.691,2.691,0,0,1-1,1.374,2.935,2.935,0,0,1-1.708.472,2.784,2.784,0,0,1-2.4-1.061,3.563,3.563,0,0,1-.615-2.145,3.436,3.436,0,0,1,.809-2.423,2.663,2.663,0,0,1,2.045-.876,2.762,2.762,0,0,1,2.191.917,4.057,4.057,0,0,1,.768,2.81H139.29a1.666,1.666,0,0,0,.4,1.14,1.246,1.246,0,0,0,.949.407,1.008,1.008,0,0,0,.65-.211A1.3,1.3,0,0,0,141.687,187.881Zm.094-1.664a1.585,1.585,0,0,0-.369-1.087,1.188,1.188,0,0,0-1.746.021,1.519,1.519,0,0,0-.346,1.066Z" transform="translate(-8.149 -8.904)"/><path class="cls-1" d="M147.968,183.639h1.518v.85a2.442,2.442,0,0,1,1.939-.99,2.089,2.089,0,0,1,1.037.246,1.891,1.891,0,0,1,.721.744,2.875,2.875,0,0,1,.885-.744,2.171,2.171,0,0,1,1.014-.246,2.258,2.258,0,0,1,1.16.278,1.705,1.705,0,0,1,.709.817,3.546,3.546,0,0,1,.17,1.289v3.979h-1.646V186.3a2.646,2.646,0,0,0-.17-1.2.78.78,0,0,0-.7-.352,1.122,1.122,0,0,0-.65.211,1.17,1.17,0,0,0-.439.618,4.448,4.448,0,0,0-.135,1.286v2.988h-1.646v-3.41a4.73,4.73,0,0,0-.088-1.172.748.748,0,0,0-.272-.393.861.861,0,0,0-.5-.129,1.2,1.2,0,0,0-.686.205,1.125,1.125,0,0,0-.437.592,4.4,4.4,0,0,0-.132,1.283v3.023h-1.646Z" transform="translate(-8.149 -8.904)"/><path class="cls-1" d="M162.364,187.881l1.641.275a2.691,2.691,0,0,1-1,1.374A2.935,2.935,0,0,1,161.3,190a2.784,2.784,0,0,1-2.4-1.061,3.563,3.563,0,0,1-.615-2.145,3.436,3.436,0,0,1,.809-2.423,2.663,2.663,0,0,1,2.045-.876,2.762,2.762,0,0,1,2.191.917,4.057,4.057,0,0,1,.768,2.81h-4.125a1.666,1.666,0,0,0,.4,1.14,1.246,1.246,0,0,0,.949.407,1.008,1.008,0,0,0,.65-.211A1.3,1.3,0,0,0,162.364,187.881Zm.094-1.664a1.585,1.585,0,0,0-.369-1.087,1.188,1.188,0,0,0-1.746.021,1.519,1.519,0,0,0-.346,1.066Z" transform="translate(-8.149 -8.904)"/><path class="cls-1" d="M169.038,187.881l1.641.275a2.691,2.691,0,0,1-1,1.374,2.935,2.935,0,0,1-1.708.472,2.784,2.784,0,0,1-2.4-1.061,3.563,3.563,0,0,1-.615-2.145,3.436,3.436,0,0,1,.809-2.423,2.663,2.663,0,0,1,2.045-.876,2.762,2.762,0,0,1,2.191.917,4.057,4.057,0,0,1,.768,2.81h-4.125a1.666,1.666,0,0,0,.4,1.14,1.246,1.246,0,0,0,.949.407,1.008,1.008,0,0,0,.65-.211A1.3,1.3,0,0,0,169.038,187.881Zm.094-1.664a1.585,1.585,0,0,0-.369-1.087,1.188,1.188,0,0,0-1.746.021,1.519,1.519,0,0,0-.346,1.066Z" transform="translate(-8.149 -8.904)"/><path class="cls-1" d="M174.962,183.639v1.313h-1.125v2.508a6.237,6.237,0,0,0,.032.888.362.362,0,0,0,.146.208.465.465,0,0,0,.278.082,2.13,2.13,0,0,0,.662-.158l.141,1.277a3.273,3.273,0,0,1-1.3.246,2.063,2.063,0,0,1-.8-.149,1.172,1.172,0,0,1-.524-.387,1.526,1.526,0,0,1-.231-.642,7.981,7.981,0,0,1-.053-1.16v-2.713h-.756v-1.312h.756V182.4l1.652-.961v2.2Z" transform="translate(-8.149 -8.904)"/><path class="cls-1" d="M61.656,199.152H60.01v-1.178a4.015,4.015,0,0,1,.126-1.128,1.721,1.721,0,0,1,.466-.741,2.371,2.371,0,0,1,.867-.516l.322.68a1.383,1.383,0,0,0-.706.457,1.35,1.35,0,0,0-.226.779h.8Zm2.748,0H62.758v-1.178a4.009,4.009,0,0,1,.126-1.131,1.712,1.712,0,0,1,.469-.738,2.408,2.408,0,0,1,.864-.516l.322.68a1.383,1.383,0,0,0-.706.457,1.35,1.35,0,0,0-.226.779h.8Z" transform="translate(-8.149 -8.904)"/><path class="cls-1" d="M66.1,204.262v-8.59h1.646v8.59Z" transform="translate(-8.149 -8.904)"/><path class="cls-1" d="M69.051,201.063a3.366,3.366,0,0,1,.4-1.588A2.775,2.775,0,0,1,70.6,198.3a3.4,3.4,0,0,1,1.655-.4,3.107,3.107,0,0,1,2.314.917,3.168,3.168,0,0,1,.9,2.317,3.206,3.206,0,0,1-.911,2.341,3.08,3.08,0,0,1-2.294.929,3.613,3.613,0,0,1-1.632-.387,2.653,2.653,0,0,1-1.181-1.134A3.778,3.778,0,0,1,69.051,201.063Zm1.688.088a2.062,2.062,0,0,0,.439,1.418,1.437,1.437,0,0,0,2.165,0,2.09,2.09,0,0,0,.437-1.43,2.052,2.052,0,0,0-.437-1.406,1.437,1.437,0,0,0-2.165,0A2.062,2.062,0,0,0,70.738,201.15Z" transform="translate(-8.149 -8.904)"/><path class="cls-1" d="M76.381,201.063a3.366,3.366,0,0,1,.4-1.588,2.775,2.775,0,0,1,1.146-1.172,3.4,3.4,0,0,1,1.655-.4,3.107,3.107,0,0,1,2.314.917,3.168,3.168,0,0,1,.9,2.317,3.206,3.206,0,0,1-.911,2.341,3.08,3.08,0,0,1-2.294.929,3.613,3.613,0,0,1-1.632-.387,2.653,2.653,0,0,1-1.181-1.134A3.778,3.778,0,0,1,76.381,201.063Zm1.688.088a2.062,2.062,0,0,0,.439,1.418,1.437,1.437,0,0,0,2.165,0,2.09,2.09,0,0,0,.437-1.43,2.052,2.052,0,0,0-.437-1.406,1.437,1.437,0,0,0-2.165,0A2.062,2.062,0,0,0,78.068,201.15Z" transform="translate(-8.149 -8.904)"/><path class="cls-1" d="M84.033,204.262v-8.59H85.68v4.559l1.928-2.191h2.027l-2.127,2.273,2.279,3.949H88.012l-1.564-2.795-.768.8v1.992Z" transform="translate(-8.149 -8.904)"/><path class="cls-1" d="M96.953,198.039v1.313H95.828v2.508a6.237,6.237,0,0,0,.032.888.362.362,0,0,0,.146.208.465.465,0,0,0,.278.082,2.13,2.13,0,0,0,.662-.158l.141,1.277a3.273,3.273,0,0,1-1.3.246,2.063,2.063,0,0,1-.8-.149,1.172,1.172,0,0,1-.524-.387,1.526,1.526,0,0,1-.231-.642,7.981,7.981,0,0,1-.053-1.16v-2.713H93.42v-1.312h.756V196.8l1.652-.961v2.2Z" transform="translate(-8.149 -8.904)"/><path class="cls-1" d="M99.736,195.672v3.158a2.467,2.467,0,0,1,2.93-.721,1.676,1.676,0,0,1,.688.539,1.954,1.954,0,0,1,.316.727,6.5,6.5,0,0,1,.085,1.236v3.65h-1.646v-3.287a4.867,4.867,0,0,0-.094-1.242.815.815,0,0,0-.331-.419,1.065,1.065,0,0,0-.595-.155,1.364,1.364,0,0,0-.732.2,1.149,1.149,0,0,0-.472.6,3.587,3.587,0,0,0-.149,1.187v3.117H98.09v-8.59Z" transform="translate(-8.149 -8.904)"/><path class="cls-1" d="M107,204.262h-1.646v-6.223h1.529v.885a2.659,2.659,0,0,1,.706-.826,1.3,1.3,0,0,1,.712-.2,2.09,2.09,0,0,1,1.084.311l-.51,1.436a1.445,1.445,0,0,0-.773-.27.914.914,0,0,0-.586.19,1.3,1.3,0,0,0-.378.688A9.781,9.781,0,0,0,107,202.34Z" transform="translate(-8.149 -8.904)"/><path class="cls-1" d="M109.715,201.063a3.366,3.366,0,0,1,.4-1.588,2.775,2.775,0,0,1,1.146-1.172,3.4,3.4,0,0,1,1.655-.4,3.107,3.107,0,0,1,2.314.917,3.168,3.168,0,0,1,.9,2.317,3.206,3.206,0,0,1-.911,2.341,3.08,3.08,0,0,1-2.294.929,3.613,3.613,0,0,1-1.632-.387,2.653,2.653,0,0,1-1.181-1.134A3.778,3.778,0,0,1,109.715,201.063Zm1.688.088a2.062,2.062,0,0,0,.439,1.418,1.437,1.437,0,0,0,2.165,0,2.09,2.09,0,0,0,.437-1.43,2.052,2.052,0,0,0-.437-1.406,1.437,1.437,0,0,0-2.165,0A2.062,2.062,0,0,0,111.4,201.15Z" transform="translate(-8.149 -8.904)"/><path class="cls-1" d="M121.521,204.262v-.932a2.4,2.4,0,0,1-.894.785,2.5,2.5,0,0,1-1.169.287,2.286,2.286,0,0,1-1.125-.275,1.626,1.626,0,0,1-.721-.773,3.451,3.451,0,0,1-.223-1.377v-3.937h1.646V200.9a7.929,7.929,0,0,0,.091,1.608.877.877,0,0,0,.331.469,1.017,1.017,0,0,0,.609.173,1.3,1.3,0,0,0,.756-.231,1.177,1.177,0,0,0,.457-.574,6.665,6.665,0,0,0,.123-1.679v-2.625h1.646v6.223Z" transform="translate(-8.149 -8.904)"/><path class="cls-1" d="M124.6,204.672l1.881.229a.642.642,0,0,0,.217.451,1.238,1.238,0,0,0,.738.176,1.917,1.917,0,0,0,.967-.193.8.8,0,0,0,.328-.416,2.5,2.5,0,0,0,.076-.756v-.908a2.228,2.228,0,0,1-1.863,1.008,2.294,2.294,0,0,1-1.986-1.061,3.6,3.6,0,0,1-.574-2.086,3.431,3.431,0,0,1,.753-2.391,2.43,2.43,0,0,1,1.872-.826,2.279,2.279,0,0,1,1.9,1.014v-.873h1.541v5.584a5.564,5.564,0,0,1-.182,1.646,2.04,2.04,0,0,1-.51.855,2.255,2.255,0,0,1-.876.486,4.611,4.611,0,0,1-1.386.176,3.587,3.587,0,0,1-2.244-.542,1.7,1.7,0,0,1-.662-1.374Q124.6,204.789,124.6,204.672Zm1.471-3.65a2.244,2.244,0,0,0,.384,1.45,1.187,1.187,0,0,0,.946.46,1.308,1.308,0,0,0,1.02-.472,2.056,2.056,0,0,0,.416-1.4,2.179,2.179,0,0,0-.4-1.436,1.266,1.266,0,0,0-1.008-.469,1.215,1.215,0,0,0-.976.46A2.157,2.157,0,0,0,126.074,201.021Z" transform="translate(-8.149 -8.904)"/><path class="cls-1" d="M133.727,195.672v3.158a2.467,2.467,0,0,1,2.93-.721,1.676,1.676,0,0,1,.688.539,1.954,1.954,0,0,1,.316.727,6.5,6.5,0,0,1,.085,1.236v3.65H136.1v-3.287a4.867,4.867,0,0,0-.094-1.242.815.815,0,0,0-.331-.419,1.065,1.065,0,0,0-.595-.155,1.364,1.364,0,0,0-.732.2,1.149,1.149,0,0,0-.472.6,3.587,3.587,0,0,0-.149,1.187v3.117H132.08v-8.59Z" transform="translate(-8.149 -8.904)"/><path class="cls-1" d="M139.3,195.672h1.646v1.184a4.072,4.072,0,0,1-.123,1.125,1.707,1.707,0,0,1-.466.741,2.378,2.378,0,0,1-.87.519l-.322-.686a1.174,1.174,0,0,0,.932-1.236h-.8Zm2.766,0h1.646v1.184a3.982,3.982,0,0,1-.126,1.125,1.732,1.732,0,0,1-.469.741,2.385,2.385,0,0,1-.864.519l-.322-.686a1.383,1.383,0,0,0,.706-.457,1.321,1.321,0,0,0,.22-.779h-.791Z" transform="translate(-8.149 -8.904)"/><path class="cls-1" d="M150.326,204.262H148.68v-6.223h1.529v.885a2.659,2.659,0,0,1,.706-.826,1.3,1.3,0,0,1,.712-.2,2.09,2.09,0,0,1,1.084.311l-.51,1.436a1.445,1.445,0,0,0-.773-.27.914.914,0,0,0-.586.19,1.3,1.3,0,0,0-.378.688,9.781,9.781,0,0,0-.138,2.086Z" transform="translate(-8.149 -8.904)"/><path class="cls-1" d="M157.516,204.262v-.932a2.4,2.4,0,0,1-.894.785,2.5,2.5,0,0,1-1.169.287,2.286,2.286,0,0,1-1.125-.275,1.626,1.626,0,0,1-.721-.773,3.451,3.451,0,0,1-.223-1.377v-3.937h1.646V200.9a7.929,7.929,0,0,0,.091,1.608.877.877,0,0,0,.331.469,1.017,1.017,0,0,0,.609.173,1.3,1.3,0,0,0,.756-.231,1.177,1.177,0,0,0,.457-.574,6.665,6.665,0,0,0,.123-1.679v-2.625h1.646v6.223Z" transform="translate(-8.149 -8.904)"/><path class="cls-1" d="M160.75,204.262v-8.59H162.4v8.59Z" transform="translate(-8.149 -8.904)"/><path class="cls-1" d="M167.688,202.281l1.641.275a2.691,2.691,0,0,1-1,1.374,2.935,2.935,0,0,1-1.708.472,2.784,2.784,0,0,1-2.4-1.061,3.563,3.563,0,0,1-.615-2.145,3.436,3.436,0,0,1,.809-2.423,2.663,2.663,0,0,1,2.045-.876,2.762,2.762,0,0,1,2.191.917,4.057,4.057,0,0,1,.768,2.81h-4.125a1.666,1.666,0,0,0,.4,1.14,1.246,1.246,0,0,0,.949.407,1.008,1.008,0,0,0,.65-.211A1.3,1.3,0,0,0,167.688,202.281Zm.094-1.664a1.585,1.585,0,0,0-.369-1.087,1.188,1.188,0,0,0-1.746.021,1.519,1.519,0,0,0-.346,1.066Z" transform="translate(-8.149 -8.904)"/><path class="cls-1" d="M170.178,202.486l1.652-.252a1.211,1.211,0,0,0,.428.729,1.445,1.445,0,0,0,.9.249,1.629,1.629,0,0,0,.961-.234.523.523,0,0,0,.217-.439.432.432,0,0,0-.117-.311,1.312,1.312,0,0,0-.551-.217,8.882,8.882,0,0,1-2.525-.8,1.6,1.6,0,0,1-.738-1.4,1.726,1.726,0,0,1,.639-1.359,2.982,2.982,0,0,1,1.98-.551,3.455,3.455,0,0,1,1.9.416,2.126,2.126,0,0,1,.855,1.23l-1.553.287a.96.96,0,0,0-.378-.557,1.382,1.382,0,0,0-.794-.193,1.789,1.789,0,0,0-.932.182.39.39,0,0,0-.187.334.364.364,0,0,0,.164.3,6.177,6.177,0,0,0,1.538.463,4.579,4.579,0,0,1,1.837.732,1.522,1.522,0,0,1,.516,1.225,1.88,1.88,0,0,1-.715,1.471,3.164,3.164,0,0,1-2.115.615,3.471,3.471,0,0,1-2.013-.516A2.376,2.376,0,0,1,170.178,202.486Z" transform="translate(-8.149 -8.904)"/><path class="cls-1" d="M176.975,206.787q.486-1.043.686-1.6a11.834,11.834,0,0,0,.369-1.283,13.416,13.416,0,0,0,.252-1.38,10.739,10.739,0,0,0,.082-1.339,11.281,11.281,0,0,0-.3-2.64,17.561,17.561,0,0,0-1.1-3.021h1.119a10.763,10.763,0,0,1,1.374,2.672,8.7,8.7,0,0,1,.489,2.865,9.887,9.887,0,0,1-.387,2.625,11.048,11.048,0,0,1-1.447,3.1Z" transform="translate(-8.149 -8.904)"/><line class="cls-2" x1="43.267" y1="19.161" x2="43.267" y2="106.792"/><line class="cls-2" x1="1.5" y1="62.977" x2="222.005" y2="62.977"/><path class="cls-3" d="M26.83,54.727l3.3-8.59h1.225l3.516,8.59H33.574l-1-2.6H28.98l-.943,2.6ZM29.308,51.2H32.22l-.9-2.379q-.41-1.084-.609-1.781a10.95,10.95,0,0,1-.463,1.641Z" transform="translate(-8.149 -8.904)"/><path class="cls-3" d="M26.757,97.394V88.8h3.223a3.989,3.989,0,0,1,1.579.261,2.03,2.03,0,0,1,.932.8A2.116,2.116,0,0,1,32.827,91a1.948,1.948,0,0,1-.3,1.037,2.134,2.134,0,0,1-.9.785,2.244,2.244,0,0,1,1.2.779,2.087,2.087,0,0,1,.419,1.3,2.509,2.509,0,0,1-.255,1.122,2.172,2.172,0,0,1-.63.8,2.629,2.629,0,0,1-.94.425,5.72,5.72,0,0,1-1.386.144Zm1.137-4.98h1.857a4.145,4.145,0,0,0,1.084-.1,1.2,1.2,0,0,0,.653-.428,1.232,1.232,0,0,0,.22-.75,1.381,1.381,0,0,0-.205-.753,1.038,1.038,0,0,0-.586-.445,4.894,4.894,0,0,0-1.307-.12H27.894Zm0,3.967h2.139a4.923,4.923,0,0,0,.773-.041,1.853,1.853,0,0,0,.656-.234,1.244,1.244,0,0,0,.434-.478,1.5,1.5,0,0,0,.17-.724,1.427,1.427,0,0,0-.246-.835,1.3,1.3,0,0,0-.683-.5,4.232,4.232,0,0,0-1.257-.144H27.894Z" transform="translate(-8.149 -8.904)"/><path class="cls-3" d="M64.028,46.727v-8.59h2.959a7.177,7.177,0,0,1,1.529.123,2.909,2.909,0,0,1,1.26.615,3.5,3.5,0,0,1,1.017,1.468,5.762,5.762,0,0,1,.337,2.042A6,6,0,0,1,70.9,44.12a4.208,4.208,0,0,1-.586,1.251,3.113,3.113,0,0,1-.782.779,3.188,3.188,0,0,1-1.025.431,5.852,5.852,0,0,1-1.38.146Zm1.137-1.014H67a4.451,4.451,0,0,0,1.333-.158,1.907,1.907,0,0,0,.771-.445,2.71,2.71,0,0,0,.63-1.087,5.314,5.314,0,0,0,.226-1.655,4,4,0,0,0-.442-2.071,2.226,2.226,0,0,0-1.075-.97,4.444,4.444,0,0,0-1.471-.176h-1.8Z" transform="translate(-8.149 -8.904)"/><path class="cls-3" d="M76.819,44.723l1.09.135a2.659,2.659,0,0,1-.955,1.482,3.236,3.236,0,0,1-3.946-.313,3.285,3.285,0,0,1-.8-2.358,3.438,3.438,0,0,1,.809-2.437,2.737,2.737,0,0,1,2.1-.867,2.66,2.66,0,0,1,2.039.85,3.376,3.376,0,0,1,.791,2.391q0,.094-.006.281H73.3a2.391,2.391,0,0,0,.58,1.57,1.727,1.727,0,0,0,1.3.545,1.614,1.614,0,0,0,.99-.3A2.023,2.023,0,0,0,76.819,44.723Zm-3.463-1.705h3.475a2.108,2.108,0,0,0-.4-1.178,1.616,1.616,0,0,0-1.307-.609,1.675,1.675,0,0,0-1.222.486A1.925,1.925,0,0,0,73.356,43.018Z" transform="translate(-8.149 -8.904)"/><path class="cls-3" d="M83.294,45.959a3.927,3.927,0,0,1-1.128.7A3.259,3.259,0,0,1,81,46.868a2.262,2.262,0,0,1-1.576-.5,1.654,1.654,0,0,1-.551-1.28,1.7,1.7,0,0,1,.208-.835,1.722,1.722,0,0,1,.545-.606,2.562,2.562,0,0,1,.759-.346,7.536,7.536,0,0,1,.938-.158,9.64,9.64,0,0,0,1.881-.363q.006-.217.006-.275a1.164,1.164,0,0,0-.3-.908,1.765,1.765,0,0,0-1.2-.357,1.863,1.863,0,0,0-1.1.261,1.593,1.593,0,0,0-.524.923l-1.031-.141a2.555,2.555,0,0,1,.463-1.069,2.029,2.029,0,0,1,.932-.627,4.155,4.155,0,0,1,1.412-.22,3.738,3.738,0,0,1,1.295.188,1.706,1.706,0,0,1,.732.472,1.659,1.659,0,0,1,.328.718,5.938,5.938,0,0,1,.053.973V44.12a14.926,14.926,0,0,0,.067,1.86,2.347,2.347,0,0,0,.267.747H83.5A2.236,2.236,0,0,1,83.294,45.959ZM83.206,43.6a7.738,7.738,0,0,1-1.723.4,3.985,3.985,0,0,0-.92.211.917.917,0,0,0-.416.343.932.932,0,0,0,.173,1.2,1.374,1.374,0,0,0,.935.281,2.175,2.175,0,0,0,1.084-.267,1.642,1.642,0,0,0,.7-.729,2.548,2.548,0,0,0,.17-1.055Z" transform="translate(-8.149 -8.904)"/><path class="cls-3" d="M88.21,45.784l.152.932a3.912,3.912,0,0,1-.8.094,1.8,1.8,0,0,1-.891-.182,1.017,1.017,0,0,1-.445-.478A3.776,3.776,0,0,1,86.1,44.9v-3.58h-.773V40.5H86.1V38.963l1.049-.633V40.5H88.21v.82H87.149v3.639a1.838,1.838,0,0,0,.056.58.439.439,0,0,0,.182.205.7.7,0,0,0,.36.076A3.431,3.431,0,0,0,88.21,45.784Z" transform="translate(-8.149 -8.904)"/><path class="cls-3" d="M89.241,46.727v-8.59H90.3v3.082a2.356,2.356,0,0,1,1.863-.855,2.513,2.513,0,0,1,1.2.272,1.6,1.6,0,0,1,.729.753,3.471,3.471,0,0,1,.22,1.395v3.943H93.255V42.784a1.629,1.629,0,0,0-.343-1.151,1.275,1.275,0,0,0-.97-.36,1.71,1.71,0,0,0-.882.243,1.373,1.373,0,0,0-.589.659,3.028,3.028,0,0,0-.176,1.148v3.4Z" transform="translate(-8.149 -8.904)"/><path class="cls-3" d="M99.038,42.543a4.668,4.668,0,0,1,1.148-3.349,3.9,3.9,0,0,1,2.965-1.21,4.113,4.113,0,0,1,2.145.568,3.712,3.712,0,0,1,1.456,1.585,5.148,5.148,0,0,1,.5,2.306,5.061,5.061,0,0,1-.527,2.338,3.6,3.6,0,0,1-1.494,1.562,4.269,4.269,0,0,1-2.086.53,4.062,4.062,0,0,1-2.168-.586,3.771,3.771,0,0,1-1.447-1.6A4.848,4.848,0,0,1,99.038,42.543Zm1.172.018a3.441,3.441,0,0,0,.835,2.446A2.913,2.913,0,0,0,105.252,45a3.648,3.648,0,0,0,.829-2.561,4.4,4.4,0,0,0-.354-1.831,2.724,2.724,0,0,0-1.037-1.213,2.812,2.812,0,0,0-1.532-.431,2.906,2.906,0,0,0-2.077.829A3.7,3.7,0,0,0,100.21,42.561Z" transform="translate(-8.149 -8.904)"/><path class="cls-3" d="M112.644,44.448l1.037.135a2.69,2.69,0,0,1-.87,1.679,2.535,2.535,0,0,1-1.72.606,2.672,2.672,0,0,1-2.054-.835,3.388,3.388,0,0,1-.776-2.394,4.331,4.331,0,0,1,.334-1.764,2.329,2.329,0,0,1,1.017-1.134,3.016,3.016,0,0,1,1.485-.378,2.582,2.582,0,0,1,1.658.513,2.351,2.351,0,0,1,.826,1.456l-1.025.158a1.7,1.7,0,0,0-.519-.943,1.342,1.342,0,0,0-.9-.316,1.637,1.637,0,0,0-1.295.571,2.712,2.712,0,0,0-.5,1.808,2.8,2.8,0,0,0,.48,1.822,1.564,1.564,0,0,0,1.254.568,1.478,1.478,0,0,0,1.037-.381A1.89,1.89,0,0,0,112.644,44.448Z" transform="translate(-8.149 -8.904)"/><path class="cls-3" d="M118.644,44.448l1.037.135a2.69,2.69,0,0,1-.87,1.679,2.535,2.535,0,0,1-1.72.606,2.672,2.672,0,0,1-2.054-.835,3.388,3.388,0,0,1-.776-2.394,4.331,4.331,0,0,1,.334-1.764,2.329,2.329,0,0,1,1.017-1.134,3.016,3.016,0,0,1,1.485-.378,2.582,2.582,0,0,1,1.658.513,2.351,2.351,0,0,1,.826,1.456l-1.025.158a1.7,1.7,0,0,0-.519-.943,1.342,1.342,0,0,0-.9-.316,1.637,1.637,0,0,0-1.295.571,2.712,2.712,0,0,0-.5,1.808,2.8,2.8,0,0,0,.48,1.822,1.564,1.564,0,0,0,1.254.568,1.478,1.478,0,0,0,1.037-.381A1.89,1.89,0,0,0,118.644,44.448Z" transform="translate(-8.149 -8.904)"/><path class="cls-3" d="M124.661,46.727v-.914a2.278,2.278,0,0,1-1.975,1.055,2.516,2.516,0,0,1-1.028-.211,1.694,1.694,0,0,1-.709-.53,1.987,1.987,0,0,1-.325-.782,5.356,5.356,0,0,1-.064-.984V40.5h1.055v3.451a6.15,6.15,0,0,0,.064,1.113,1.1,1.1,0,0,0,.422.653,1.307,1.307,0,0,0,.8.237,1.736,1.736,0,0,0,.891-.243,1.352,1.352,0,0,0,.589-.662,3.322,3.322,0,0,0,.173-1.216V40.5H125.6v6.223Z" transform="translate(-8.149 -8.904)"/><path class="cls-3" d="M127.245,46.727V40.5h.949v.943a2.574,2.574,0,0,1,.671-.873,1.171,1.171,0,0,1,.677-.211,2.057,2.057,0,0,1,1.084.34l-.363.979a1.509,1.509,0,0,0-.773-.229,1,1,0,0,0-.621.208,1.127,1.127,0,0,0-.393.577,4.108,4.108,0,0,0-.176,1.23v3.258Z" transform="translate(-8.149 -8.904)"/><path class="cls-3" d="M130.831,44.87l1.043-.164a1.458,1.458,0,0,0,.489.961,1.705,1.705,0,0,0,1.122.334,1.648,1.648,0,0,0,1.078-.3.885.885,0,0,0,.352-.694.641.641,0,0,0-.311-.562,4.574,4.574,0,0,0-1.078-.357,9.838,9.838,0,0,1-1.608-.507,1.535,1.535,0,0,1-.911-1.427,1.6,1.6,0,0,1,.19-.771,1.708,1.708,0,0,1,.519-.589,2.174,2.174,0,0,1,.671-.308,3.19,3.19,0,0,1,.911-.126,3.6,3.6,0,0,1,1.286.211,1.749,1.749,0,0,1,.817.571,2.232,2.232,0,0,1,.363.964l-1.031.141a1.128,1.128,0,0,0-.407-.75,1.489,1.489,0,0,0-.952-.27,1.724,1.724,0,0,0-1.037.24.7.7,0,0,0-.311.563.582.582,0,0,0,.129.369.93.93,0,0,0,.4.281q.158.059.932.27a12.969,12.969,0,0,1,1.562.489,1.584,1.584,0,0,1,.694.554,1.546,1.546,0,0,1,.252.9,1.771,1.771,0,0,1-.308.993,1.988,1.988,0,0,1-.888.721,3.231,3.231,0,0,1-1.312.255,2.924,2.924,0,0,1-1.849-.5A2.343,2.343,0,0,1,130.831,44.87Z" transform="translate(-8.149 -8.904)"/><path class="cls-3" d="M140.675,46.727v-8.59H143.9a3.989,3.989,0,0,1,1.579.261,2.03,2.03,0,0,1,.932.8,2.116,2.116,0,0,1,.337,1.134,1.948,1.948,0,0,1-.3,1.037,2.134,2.134,0,0,1-.9.785,2.244,2.244,0,0,1,1.2.779,2.087,2.087,0,0,1,.419,1.3,2.509,2.509,0,0,1-.255,1.122,2.172,2.172,0,0,1-.63.8,2.629,2.629,0,0,1-.94.425,5.72,5.72,0,0,1-1.386.144Zm1.137-4.98h1.857a4.145,4.145,0,0,0,1.084-.1,1.2,1.2,0,0,0,.653-.428,1.232,1.232,0,0,0,.22-.75,1.381,1.381,0,0,0-.205-.753,1.038,1.038,0,0,0-.586-.445,4.894,4.894,0,0,0-1.307-.12h-1.717Zm0,3.967h2.139a4.923,4.923,0,0,0,.773-.041,1.853,1.853,0,0,0,.656-.234,1.244,1.244,0,0,0,.434-.478,1.5,1.5,0,0,0,.17-.724,1.427,1.427,0,0,0-.246-.835,1.3,1.3,0,0,0-.683-.5,4.232,4.232,0,0,0-1.257-.144h-1.986Z" transform="translate(-8.149 -8.904)"/><path class="cls-3" d="M152.851,44.723l1.09.135a2.659,2.659,0,0,1-.955,1.482,3.236,3.236,0,0,1-3.946-.313,3.285,3.285,0,0,1-.8-2.358,3.438,3.438,0,0,1,.809-2.437,2.737,2.737,0,0,1,2.1-.867,2.66,2.66,0,0,1,2.039.85,3.376,3.376,0,0,1,.791,2.391q0,.094-.006.281h-4.641a2.391,2.391,0,0,0,.58,1.57,1.727,1.727,0,0,0,1.3.545,1.614,1.614,0,0,0,.99-.3A2.023,2.023,0,0,0,152.851,44.723Zm-3.463-1.705h3.475a2.108,2.108,0,0,0-.4-1.178,1.616,1.616,0,0,0-1.307-.609,1.675,1.675,0,0,0-1.222.486A1.925,1.925,0,0,0,149.388,43.018Z" transform="translate(-8.149 -8.904)"/><path class="cls-3" d="M155.517,46.727v-5.4h-.932V40.5h.932v-.662a2.9,2.9,0,0,1,.111-.932,1.349,1.349,0,0,1,.536-.665,1.932,1.932,0,0,1,1.075-.255,5.163,5.163,0,0,1,.984.105l-.158.92a3.539,3.539,0,0,0-.621-.059.924.924,0,0,0-.68.205,1.112,1.112,0,0,0-.2.768V40.5h1.213v.82h-1.213v5.4Z" transform="translate(-8.149 -8.904)"/><path class="cls-3" d="M158.206,43.616a3.207,3.207,0,0,1,.961-2.561,2.9,2.9,0,0,1,1.957-.691,2.792,2.792,0,0,1,2.1.841,3.2,3.2,0,0,1,.814,2.323,4.117,4.117,0,0,1-.36,1.89,2.551,2.551,0,0,1-1.049,1.069,3.054,3.054,0,0,1-1.5.381,2.8,2.8,0,0,1-2.112-.838A3.347,3.347,0,0,1,158.206,43.616Zm1.084,0a2.65,2.65,0,0,0,.521,1.79,1.736,1.736,0,0,0,2.619,0,2.713,2.713,0,0,0,.521-1.822,2.571,2.571,0,0,0-.524-1.749,1.739,1.739,0,0,0-2.616,0A2.639,2.639,0,0,0,159.29,43.616Z" transform="translate(-8.149 -8.904)"/><path class="cls-3" d="M165.261,46.727V40.5h.949v.943a2.574,2.574,0,0,1,.671-.873,1.171,1.171,0,0,1,.677-.211,2.057,2.057,0,0,1,1.084.34l-.363.979a1.509,1.509,0,0,0-.773-.229,1,1,0,0,0-.621.208,1.127,1.127,0,0,0-.393.577,4.108,4.108,0,0,0-.176,1.23v3.258Z" transform="translate(-8.149 -8.904)"/><path class="cls-3" d="M173.528,44.723l1.09.135a2.659,2.659,0,0,1-.955,1.482,3.236,3.236,0,0,1-3.946-.313,3.285,3.285,0,0,1-.8-2.358,3.438,3.438,0,0,1,.809-2.437,2.737,2.737,0,0,1,2.1-.867,2.66,2.66,0,0,1,2.039.85,3.376,3.376,0,0,1,.791,2.391q0,.094-.006.281h-4.641a2.391,2.391,0,0,0,.58,1.57,1.727,1.727,0,0,0,1.3.545,1.614,1.614,0,0,0,.99-.3A2.023,2.023,0,0,0,173.528,44.723Zm-3.463-1.705h3.475a2.108,2.108,0,0,0-.4-1.178,1.616,1.616,0,0,0-1.307-.609,1.675,1.675,0,0,0-1.222.486A1.925,1.925,0,0,0,170.065,43.018Z" transform="translate(-8.149 -8.904)"/><path class="cls-3" d="M64.046,61.127v-8.59h3.809a5.069,5.069,0,0,1,1.746.231,1.909,1.909,0,0,1,.955.817,2.439,2.439,0,0,1,.357,1.295,2.16,2.16,0,0,1-.592,1.541,3,3,0,0,1-1.828.8,2.948,2.948,0,0,1,.686.428,5.906,5.906,0,0,1,.943,1.143l1.494,2.338h-1.43L69.05,59.34q-.5-.773-.82-1.184a2.579,2.579,0,0,0-.577-.574,1.706,1.706,0,0,0-.519-.229,3.415,3.415,0,0,0-.633-.041H65.183v3.814Zm1.137-4.8h2.443a3.664,3.664,0,0,0,1.219-.161,1.3,1.3,0,0,0,.668-.516,1.4,1.4,0,0,0,.229-.771,1.28,1.28,0,0,0-.442-1,2.07,2.07,0,0,0-1.4-.393H65.183Z" transform="translate(-8.149 -8.904)"/><path class="cls-3" d="M76.819,59.123l1.09.135a2.659,2.659,0,0,1-.955,1.482,3.236,3.236,0,0,1-3.946-.313,3.285,3.285,0,0,1-.8-2.358,3.438,3.438,0,0,1,.809-2.437,2.737,2.737,0,0,1,2.1-.867,2.66,2.66,0,0,1,2.039.85A3.376,3.376,0,0,1,77.944,58q0,.094-.006.281H73.3a2.391,2.391,0,0,0,.58,1.57,1.727,1.727,0,0,0,1.3.545,1.614,1.614,0,0,0,.99-.3A2.023,2.023,0,0,0,76.819,59.123Zm-3.463-1.705h3.475a2.108,2.108,0,0,0-.4-1.178,1.616,1.616,0,0,0-1.307-.609,1.675,1.675,0,0,0-1.222.486A1.925,1.925,0,0,0,73.356,57.418Z" transform="translate(-8.149 -8.904)"/><path class="cls-3" d="M83.2,63.512V60.465a1.887,1.887,0,0,1-.688.574,2.021,2.021,0,0,1-.94.229,2.487,2.487,0,0,1-1.907-.885,3.484,3.484,0,0,1-.8-2.426,4.159,4.159,0,0,1,.325-1.682,2.426,2.426,0,0,1,.943-1.128,2.522,2.522,0,0,1,1.356-.384,2.084,2.084,0,0,1,1.816.973V54.9h.949v8.607ZM79.948,58a2.75,2.75,0,0,0,.5,1.8,1.528,1.528,0,0,0,1.207.6,1.478,1.478,0,0,0,1.16-.571,2.631,2.631,0,0,0,.486-1.737,2.9,2.9,0,0,0-.513-1.869,1.52,1.52,0,0,0-1.2-.627,1.453,1.453,0,0,0-1.163.583A2.847,2.847,0,0,0,79.948,58Z" transform="translate(-8.149 -8.904)"/><path class="cls-3" d="M89.985,61.127v-.914a2.278,2.278,0,0,1-1.975,1.055,2.516,2.516,0,0,1-1.028-.211,1.694,1.694,0,0,1-.709-.53,1.987,1.987,0,0,1-.325-.782,5.356,5.356,0,0,1-.064-.984V54.9h1.055v3.451A6.15,6.15,0,0,0,87,59.469a1.1,1.1,0,0,0,.422.653,1.307,1.307,0,0,0,.8.237,1.736,1.736,0,0,0,.891-.243,1.352,1.352,0,0,0,.589-.662,3.322,3.322,0,0,0,.173-1.216V54.9h1.055v6.223Z" transform="translate(-8.149 -8.904)"/><path class="cls-3" d="M92.587,53.75V52.537h1.055V53.75Zm0,7.377V54.9h1.055v6.223Z" transform="translate(-8.149 -8.904)"/><path class="cls-3" d="M95.235,61.127V54.9h.949v.943a2.574,2.574,0,0,1,.671-.873,1.171,1.171,0,0,1,.677-.211,2.057,2.057,0,0,1,1.084.34l-.363.979a1.509,1.509,0,0,0-.773-.229,1,1,0,0,0-.621.208,1.127,1.127,0,0,0-.393.577,4.108,4.108,0,0,0-.176,1.23v3.258Z" transform="translate(-8.149 -8.904)"/><path class="cls-3" d="M103.5,59.123l1.09.135a2.659,2.659,0,0,1-.955,1.482,3.236,3.236,0,0,1-3.946-.313,3.285,3.285,0,0,1-.8-2.358,3.438,3.438,0,0,1,.809-2.437,2.737,2.737,0,0,1,2.1-.867,2.66,2.66,0,0,1,2.039.85A3.376,3.376,0,0,1,104.628,58q0,.094-.006.281H99.981a2.391,2.391,0,0,0,.58,1.57,1.727,1.727,0,0,0,1.3.545,1.614,1.614,0,0,0,.99-.3A2.023,2.023,0,0,0,103.5,59.123Zm-3.463-1.705h3.475a2.108,2.108,0,0,0-.4-1.178,1.616,1.616,0,0,0-1.307-.609,1.675,1.675,0,0,0-1.222.486A1.925,1.925,0,0,0,100.04,57.418Z" transform="translate(-8.149 -8.904)"/><path class="cls-3" d="M109.954,61.127v-.785a1.935,1.935,0,0,1-1.74.926,2.44,2.44,0,0,1-1.368-.41,2.7,2.7,0,0,1-.967-1.146,3.959,3.959,0,0,1-.343-1.69,4.424,4.424,0,0,1,.311-1.69,2.449,2.449,0,0,1,.932-1.163,2.491,2.491,0,0,1,1.389-.4,2.075,2.075,0,0,1,1.717.855V52.537h1.049v8.59Zm-3.334-3.105a2.7,2.7,0,0,0,.5,1.787,1.519,1.519,0,0,0,1.189.592,1.492,1.492,0,0,0,1.175-.565,2.607,2.607,0,0,0,.483-1.726,2.926,2.926,0,0,0-.492-1.875,1.514,1.514,0,0,0-1.213-.6,1.461,1.461,0,0,0-1.175.574A2.834,2.834,0,0,0,106.62,58.021Z" transform="translate(-8.149 -8.904)"/><path class="cls-3" d="M116.013,61.127v-8.59h3.223a3.989,3.989,0,0,1,1.579.261,2.03,2.03,0,0,1,.932.8,2.116,2.116,0,0,1,.337,1.134,1.948,1.948,0,0,1-.3,1.037,2.134,2.134,0,0,1-.9.785,2.244,2.244,0,0,1,1.2.779,2.087,2.087,0,0,1,.419,1.3,2.509,2.509,0,0,1-.255,1.122,2.172,2.172,0,0,1-.63.8,2.629,2.629,0,0,1-.94.425,5.72,5.72,0,0,1-1.386.144Zm1.137-4.98h1.857a4.145,4.145,0,0,0,1.084-.1,1.2,1.2,0,0,0,.653-.428,1.232,1.232,0,0,0,.22-.75,1.381,1.381,0,0,0-.205-.753,1.038,1.038,0,0,0-.586-.445,4.894,4.894,0,0,0-1.307-.12h-1.717Zm0,3.967h2.139a4.923,4.923,0,0,0,.773-.041,1.853,1.853,0,0,0,.656-.234,1.244,1.244,0,0,0,.434-.478,1.5,1.5,0,0,0,.17-.724,1.427,1.427,0,0,0-.246-.835,1.3,1.3,0,0,0-.683-.5,4.232,4.232,0,0,0-1.257-.144h-1.986Z" transform="translate(-8.149 -8.904)"/><path class="cls-3" d="M128.188,59.123l1.09.135a2.659,2.659,0,0,1-.955,1.482,3.236,3.236,0,0,1-3.946-.313,3.285,3.285,0,0,1-.8-2.358,3.438,3.438,0,0,1,.809-2.437,2.737,2.737,0,0,1,2.1-.867,2.66,2.66,0,0,1,2.039.85A3.376,3.376,0,0,1,129.313,58q0,.094-.006.281h-4.641a2.391,2.391,0,0,0,.58,1.57,1.727,1.727,0,0,0,1.3.545,1.614,1.614,0,0,0,.99-.3A2.023,2.023,0,0,0,128.188,59.123Zm-3.463-1.705H128.2a2.108,2.108,0,0,0-.4-1.178,1.616,1.616,0,0,0-1.307-.609,1.675,1.675,0,0,0-1.222.486A1.925,1.925,0,0,0,124.726,57.418Z" transform="translate(-8.149 -8.904)"/><path class="cls-3" d="M130.409,61.643l1.025.152a.977.977,0,0,0,.357.691,1.756,1.756,0,0,0,1.072.293A1.883,1.883,0,0,0,134,62.486a1.442,1.442,0,0,0,.539-.82,6.736,6.736,0,0,0,.076-1.354,2.169,2.169,0,0,1-1.723.814A2.349,2.349,0,0,1,130.9,60.2a3.565,3.565,0,0,1-.7-2.221,4.133,4.133,0,0,1,.322-1.644,2.578,2.578,0,0,1,.935-1.163,2.524,2.524,0,0,1,1.438-.41,2.231,2.231,0,0,1,1.816.891V54.9h.973v5.379a5.1,5.1,0,0,1-.3,2.06,2.164,2.164,0,0,1-.937.958,3.249,3.249,0,0,1-1.579.352,2.978,2.978,0,0,1-1.8-.5A1.694,1.694,0,0,1,130.409,61.643Zm.873-3.738a2.7,2.7,0,0,0,.486,1.787,1.6,1.6,0,0,0,2.438,0,2.612,2.612,0,0,0,.492-1.755,2.552,2.552,0,0,0-.507-1.723,1.567,1.567,0,0,0-1.222-.58,1.522,1.522,0,0,0-1.2.571A2.537,2.537,0,0,0,131.282,57.9Z" transform="translate(-8.149 -8.904)"/><path class="cls-3" d="M137.282,53.75V52.537h1.055V53.75Zm0,7.377V54.9h1.055v6.223Z" transform="translate(-8.149 -8.904)"/><path class="cls-3" d="M139.942,61.127V54.9h.949v.885a2.237,2.237,0,0,1,1.98-1.025,2.6,2.6,0,0,1,1.034.2,1.627,1.627,0,0,1,.706.53,2.035,2.035,0,0,1,.328.779A6.039,6.039,0,0,1,145,57.3v3.826h-1.055V57.342a2.841,2.841,0,0,0-.123-.964,1.014,1.014,0,0,0-.437-.51,1.389,1.389,0,0,0-.735-.19,1.709,1.709,0,0,0-1.163.428A2.11,2.11,0,0,0,141,57.729v3.4Z" transform="translate(-8.149 -8.904)"/><path class="cls-3" d="M146.616,61.127V54.9h.949v.885a2.237,2.237,0,0,1,1.98-1.025,2.6,2.6,0,0,1,1.034.2,1.627,1.627,0,0,1,.706.53,2.035,2.035,0,0,1,.328.779,6.039,6.039,0,0,1,.059,1.025v3.826h-1.055V57.342a2.841,2.841,0,0,0-.123-.964,1.014,1.014,0,0,0-.437-.51,1.389,1.389,0,0,0-.735-.19,1.709,1.709,0,0,0-1.163.428,2.11,2.11,0,0,0-.489,1.623v3.4Z" transform="translate(-8.149 -8.904)"/><path class="cls-3" d="M153.3,53.75V52.537h1.055V53.75Zm0,7.377V54.9h1.055v6.223Z" transform="translate(-8.149 -8.904)"/><path class="cls-3" d="M155.956,61.127V54.9h.949v.885a2.237,2.237,0,0,1,1.98-1.025,2.6,2.6,0,0,1,1.034.2,1.627,1.627,0,0,1,.706.53,2.035,2.035,0,0,1,.328.779,6.039,6.039,0,0,1,.059,1.025v3.826h-1.055V57.342a2.841,2.841,0,0,0-.123-.964,1.014,1.014,0,0,0-.437-.51,1.389,1.389,0,0,0-.735-.19,1.709,1.709,0,0,0-1.163.428,2.11,2.11,0,0,0-.489,1.623v3.4Z" transform="translate(-8.149 -8.904)"/><path class="cls-3" d="M162.437,61.643l1.025.152a.977.977,0,0,0,.357.691,1.756,1.756,0,0,0,1.072.293,1.883,1.883,0,0,0,1.131-.293,1.442,1.442,0,0,0,.539-.82,6.736,6.736,0,0,0,.076-1.354,2.169,2.169,0,0,1-1.723.814,2.349,2.349,0,0,1-1.986-.926,3.565,3.565,0,0,1-.7-2.221,4.133,4.133,0,0,1,.322-1.644,2.578,2.578,0,0,1,.935-1.163,2.523,2.523,0,0,1,1.438-.41,2.231,2.231,0,0,1,1.816.891V54.9h.973v5.379a5.1,5.1,0,0,1-.3,2.06,2.164,2.164,0,0,1-.937.958,3.249,3.249,0,0,1-1.579.352,2.978,2.978,0,0,1-1.8-.5A1.694,1.694,0,0,1,162.437,61.643Zm.873-3.738a2.7,2.7,0,0,0,.486,1.787,1.6,1.6,0,0,0,2.438,0,2.612,2.612,0,0,0,.492-1.755,2.552,2.552,0,0,0-.507-1.723,1.567,1.567,0,0,0-1.222-.58,1.522,1.522,0,0,0-1.2.571A2.537,2.537,0,0,0,163.31,57.9Z" transform="translate(-8.149 -8.904)"/><path class="cls-3" d="M172.772,61.127v-8.59h2.959a7.177,7.177,0,0,1,1.529.123,2.909,2.909,0,0,1,1.26.615,3.5,3.5,0,0,1,1.017,1.468,5.762,5.762,0,0,1,.337,2.042,6,6,0,0,1-.229,1.734,4.208,4.208,0,0,1-.586,1.251,3.113,3.113,0,0,1-.782.779,3.188,3.188,0,0,1-1.025.431,5.852,5.852,0,0,1-1.38.146Zm1.137-1.014h1.834a4.451,4.451,0,0,0,1.333-.158,1.907,1.907,0,0,0,.771-.445,2.71,2.71,0,0,0,.63-1.087,5.314,5.314,0,0,0,.226-1.655,4,4,0,0,0-.442-2.071,2.226,2.226,0,0,0-1.075-.97,4.444,4.444,0,0,0-1.471-.176h-1.8Z" transform="translate(-8.149 -8.904)"/><path class="cls-3" d="M185.364,60.359a3.927,3.927,0,0,1-1.128.7,3.259,3.259,0,0,1-1.163.205,2.262,2.262,0,0,1-1.576-.5,1.654,1.654,0,0,1-.551-1.28,1.7,1.7,0,0,1,.208-.835,1.722,1.722,0,0,1,.545-.606,2.562,2.562,0,0,1,.759-.346,7.536,7.536,0,0,1,.938-.158,9.64,9.64,0,0,0,1.881-.363q.006-.217.006-.275a1.164,1.164,0,0,0-.3-.908,1.765,1.765,0,0,0-1.2-.357,1.863,1.863,0,0,0-1.1.261,1.593,1.593,0,0,0-.524.923l-1.031-.141a2.555,2.555,0,0,1,.463-1.069,2.029,2.029,0,0,1,.932-.627,4.155,4.155,0,0,1,1.412-.22,3.738,3.738,0,0,1,1.295.188,1.706,1.706,0,0,1,.732.472,1.659,1.659,0,0,1,.328.718,5.938,5.938,0,0,1,.053.973V58.52a14.926,14.926,0,0,0,.067,1.86,2.347,2.347,0,0,0,.267.747h-1.1A2.236,2.236,0,0,1,185.364,60.359ZM185.276,58a7.738,7.738,0,0,1-1.723.4,3.985,3.985,0,0,0-.92.211.917.917,0,0,0-.416.343.932.932,0,0,0,.173,1.2,1.374,1.374,0,0,0,.935.281,2.175,2.175,0,0,0,1.084-.267,1.642,1.642,0,0,0,.7-.729,2.548,2.548,0,0,0,.17-1.055Z" transform="translate(-8.149 -8.904)"/><path class="cls-3" d="M190.28,60.184l.152.932a3.912,3.912,0,0,1-.8.094,1.8,1.8,0,0,1-.891-.182,1.017,1.017,0,0,1-.445-.478,3.776,3.776,0,0,1-.129-1.245v-3.58H187.4V54.9h.773V53.363l1.049-.633V54.9h1.061v.82H189.22v3.639a1.838,1.838,0,0,0,.056.58.439.439,0,0,0,.182.205.7.7,0,0,0,.36.076A3.431,3.431,0,0,0,190.28,60.184Z" transform="translate(-8.149 -8.904)"/><path class="cls-3" d="M195.571,59.123l1.09.135a2.659,2.659,0,0,1-.955,1.482,3.236,3.236,0,0,1-3.946-.313,3.285,3.285,0,0,1-.8-2.358,3.438,3.438,0,0,1,.809-2.437,2.737,2.737,0,0,1,2.1-.867,2.66,2.66,0,0,1,2.039.85A3.376,3.376,0,0,1,196.7,58q0,.094-.006.281H192.05a2.391,2.391,0,0,0,.58,1.57,1.727,1.727,0,0,0,1.3.545,1.614,1.614,0,0,0,.99-.3A2.023,2.023,0,0,0,195.571,59.123Zm-3.463-1.705h3.475a2.108,2.108,0,0,0-.4-1.178,1.616,1.616,0,0,0-1.307-.609,1.675,1.675,0,0,0-1.222.486A1.925,1.925,0,0,0,192.108,57.418Z" transform="translate(-8.149 -8.904)"/><path class="cls-3" d="M63.963,90.394V81.8h2.959a7.177,7.177,0,0,1,1.529.123,2.909,2.909,0,0,1,1.26.615,3.5,3.5,0,0,1,1.017,1.468,5.762,5.762,0,0,1,.337,2.042,6,6,0,0,1-.229,1.734,4.208,4.208,0,0,1-.586,1.251,3.113,3.113,0,0,1-.782.779,3.188,3.188,0,0,1-1.025.431,5.852,5.852,0,0,1-1.38.146ZM65.1,89.38h1.834a4.451,4.451,0,0,0,1.333-.158,1.907,1.907,0,0,0,.771-.445,2.71,2.71,0,0,0,.63-1.087,5.314,5.314,0,0,0,.226-1.655,4,4,0,0,0-.442-2.071,2.226,2.226,0,0,0-1.075-.97,4.444,4.444,0,0,0-1.471-.176H65.1Z" transform="translate(-8.149 -8.904)"/><path class="cls-3" d="M76.754,88.39l1.09.135a2.659,2.659,0,0,1-.955,1.482,3.236,3.236,0,0,1-3.946-.313,3.285,3.285,0,0,1-.8-2.358,3.438,3.438,0,0,1,.809-2.437,2.737,2.737,0,0,1,2.1-.867,2.66,2.66,0,0,1,2.039.85,3.376,3.376,0,0,1,.791,2.391q0,.094-.006.281H73.233a2.391,2.391,0,0,0,.58,1.57,1.727,1.727,0,0,0,1.3.545,1.614,1.614,0,0,0,.99-.3A2.023,2.023,0,0,0,76.754,88.39Zm-3.463-1.705h3.475a2.108,2.108,0,0,0-.4-1.178,1.616,1.616,0,0,0-1.307-.609,1.675,1.675,0,0,0-1.222.486A1.925,1.925,0,0,0,73.292,86.685Z" transform="translate(-8.149 -8.904)"/><path class="cls-3" d="M83.229,89.626a3.927,3.927,0,0,1-1.128.7,3.259,3.259,0,0,1-1.163.205,2.262,2.262,0,0,1-1.576-.5,1.654,1.654,0,0,1-.551-1.28,1.7,1.7,0,0,1,.208-.835,1.722,1.722,0,0,1,.545-.606,2.562,2.562,0,0,1,.759-.346,7.536,7.536,0,0,1,.938-.158,9.64,9.64,0,0,0,1.881-.363q.006-.217.006-.275a1.164,1.164,0,0,0-.3-.908,1.765,1.765,0,0,0-1.2-.357,1.863,1.863,0,0,0-1.1.261,1.593,1.593,0,0,0-.524.923l-1.031-.141a2.555,2.555,0,0,1,.463-1.069,2.029,2.029,0,0,1,.932-.627,4.155,4.155,0,0,1,1.412-.22,3.738,3.738,0,0,1,1.295.188,1.706,1.706,0,0,1,.732.472,1.659,1.659,0,0,1,.328.718,5.938,5.938,0,0,1,.053.973v1.406a14.926,14.926,0,0,0,.067,1.86,2.347,2.347,0,0,0,.267.747h-1.1A2.236,2.236,0,0,1,83.229,89.626Zm-.088-2.355a7.738,7.738,0,0,1-1.723.4,3.985,3.985,0,0,0-.92.211.917.917,0,0,0-.416.343.932.932,0,0,0,.173,1.2,1.374,1.374,0,0,0,.935.281,2.175,2.175,0,0,0,1.084-.267,1.642,1.642,0,0,0,.7-.729,2.548,2.548,0,0,0,.17-1.055Z" transform="translate(-8.149 -8.904)"/><path class="cls-3" d="M88.145,89.451l.152.932a3.912,3.912,0,0,1-.8.094,1.8,1.8,0,0,1-.891-.182,1.017,1.017,0,0,1-.445-.478,3.776,3.776,0,0,1-.129-1.245v-3.58h-.773v-.82h.773V82.63L87.084,82v2.174h1.061v.82H87.084V88.63a1.838,1.838,0,0,0,.056.58.439.439,0,0,0,.182.205.7.7,0,0,0,.36.076A3.431,3.431,0,0,0,88.145,89.451Z" transform="translate(-8.149 -8.904)"/><path class="cls-3" d="M89.176,90.394V81.8h1.055v3.082a2.356,2.356,0,0,1,1.863-.855,2.513,2.513,0,0,1,1.2.272,1.6,1.6,0,0,1,.729.753,3.471,3.471,0,0,1,.22,1.395v3.943H93.19V86.451a1.629,1.629,0,0,0-.343-1.151,1.275,1.275,0,0,0-.97-.36,1.71,1.71,0,0,0-.882.243,1.373,1.373,0,0,0-.589.659,3.028,3.028,0,0,0-.176,1.148v3.4Z" transform="translate(-8.149 -8.904)"/><path class="cls-3" d="M98.973,86.21a4.668,4.668,0,0,1,1.148-3.349,3.9,3.9,0,0,1,2.965-1.21,4.113,4.113,0,0,1,2.145.568,3.712,3.712,0,0,1,1.456,1.585,5.148,5.148,0,0,1,.5,2.306,5.061,5.061,0,0,1-.527,2.338,3.6,3.6,0,0,1-1.494,1.562,4.269,4.269,0,0,1-2.086.53,4.062,4.062,0,0,1-2.168-.586,3.771,3.771,0,0,1-1.447-1.6A4.848,4.848,0,0,1,98.973,86.21Zm1.172.018a3.441,3.441,0,0,0,.835,2.446,2.913,2.913,0,0,0,4.207-.009,3.648,3.648,0,0,0,.829-2.561,4.4,4.4,0,0,0-.354-1.831,2.724,2.724,0,0,0-1.037-1.213,2.812,2.812,0,0,0-1.532-.431,2.906,2.906,0,0,0-2.077.829A3.7,3.7,0,0,0,100.145,86.228Z" transform="translate(-8.149 -8.904)"/><path class="cls-3" d="M112.579,88.115l1.037.135a2.69,2.69,0,0,1-.87,1.679,2.535,2.535,0,0,1-1.72.606,2.672,2.672,0,0,1-2.054-.835,3.388,3.388,0,0,1-.776-2.394,4.331,4.331,0,0,1,.334-1.764,2.329,2.329,0,0,1,1.017-1.134,3.016,3.016,0,0,1,1.485-.378,2.582,2.582,0,0,1,1.658.513A2.351,2.351,0,0,1,113.516,86l-1.025.158a1.7,1.7,0,0,0-.519-.943,1.342,1.342,0,0,0-.9-.316,1.637,1.637,0,0,0-1.295.571,2.712,2.712,0,0,0-.5,1.808,2.8,2.8,0,0,0,.48,1.822,1.564,1.564,0,0,0,1.254.568,1.478,1.478,0,0,0,1.037-.381A1.89,1.89,0,0,0,112.579,88.115Z" transform="translate(-8.149 -8.904)"/><path class="cls-3" d="M118.579,88.115l1.037.135a2.69,2.69,0,0,1-.87,1.679,2.535,2.535,0,0,1-1.72.606,2.672,2.672,0,0,1-2.054-.835,3.388,3.388,0,0,1-.776-2.394,4.331,4.331,0,0,1,.334-1.764,2.329,2.329,0,0,1,1.017-1.134,3.016,3.016,0,0,1,1.485-.378,2.582,2.582,0,0,1,1.658.513A2.351,2.351,0,0,1,119.516,86l-1.025.158a1.7,1.7,0,0,0-.519-.943,1.342,1.342,0,0,0-.9-.316,1.637,1.637,0,0,0-1.295.571,2.712,2.712,0,0,0-.5,1.808,2.8,2.8,0,0,0,.48,1.822,1.564,1.564,0,0,0,1.254.568,1.478,1.478,0,0,0,1.037-.381A1.89,1.89,0,0,0,118.579,88.115Z" transform="translate(-8.149 -8.904)"/><path class="cls-3" d="M124.6,90.394V89.48a2.278,2.278,0,0,1-1.975,1.055,2.516,2.516,0,0,1-1.028-.211,1.694,1.694,0,0,1-.709-.53,1.987,1.987,0,0,1-.325-.782,5.356,5.356,0,0,1-.064-.984V84.171h1.055v3.451a6.15,6.15,0,0,0,.064,1.113,1.1,1.1,0,0,0,.422.653,1.307,1.307,0,0,0,.8.237,1.736,1.736,0,0,0,.891-.243,1.352,1.352,0,0,0,.589-.662,3.322,3.322,0,0,0,.173-1.216V84.171h1.055v6.223Z" transform="translate(-8.149 -8.904)"/><path class="cls-3" d="M127.18,90.394V84.171h.949v.943a2.574,2.574,0,0,1,.671-.873,1.171,1.171,0,0,1,.677-.211,2.057,2.057,0,0,1,1.084.34l-.363.979a1.509,1.509,0,0,0-.773-.229,1,1,0,0,0-.621.208,1.127,1.127,0,0,0-.393.577,4.108,4.108,0,0,0-.176,1.23v3.258Z" transform="translate(-8.149 -8.904)"/><path class="cls-3" d="M130.766,88.537l1.043-.164a1.458,1.458,0,0,0,.489.961,1.705,1.705,0,0,0,1.122.334,1.648,1.648,0,0,0,1.078-.3.885.885,0,0,0,.352-.694.641.641,0,0,0-.311-.562,4.574,4.574,0,0,0-1.078-.357,9.838,9.838,0,0,1-1.608-.507,1.535,1.535,0,0,1-.911-1.427,1.6,1.6,0,0,1,.19-.771,1.708,1.708,0,0,1,.519-.589,2.174,2.174,0,0,1,.671-.308,3.19,3.19,0,0,1,.911-.126,3.6,3.6,0,0,1,1.286.211,1.749,1.749,0,0,1,.817.571,2.232,2.232,0,0,1,.363.964l-1.031.141a1.128,1.128,0,0,0-.407-.75,1.489,1.489,0,0,0-.952-.27,1.724,1.724,0,0,0-1.037.24.7.7,0,0,0-.311.563.582.582,0,0,0,.129.369.93.93,0,0,0,.4.281q.158.059.932.27a12.969,12.969,0,0,1,1.562.489,1.584,1.584,0,0,1,.694.554,1.546,1.546,0,0,1,.252.9,1.771,1.771,0,0,1-.308.993,1.988,1.988,0,0,1-.888.721,3.231,3.231,0,0,1-1.312.255,2.924,2.924,0,0,1-1.849-.5A2.343,2.343,0,0,1,130.766,88.537Z" transform="translate(-8.149 -8.904)"/><path class="cls-3" d="M140.311,86.21a4.668,4.668,0,0,1,1.148-3.349,3.9,3.9,0,0,1,2.965-1.21,4.113,4.113,0,0,1,2.145.568,3.712,3.712,0,0,1,1.456,1.585,5.148,5.148,0,0,1,.5,2.306A5.061,5.061,0,0,1,148,88.449,3.6,3.6,0,0,1,146.5,90.01a4.269,4.269,0,0,1-2.086.53,4.062,4.062,0,0,1-2.168-.586,3.771,3.771,0,0,1-1.447-1.6A4.848,4.848,0,0,1,140.311,86.21Zm1.172.018a3.441,3.441,0,0,0,.835,2.446,2.913,2.913,0,0,0,4.207-.009,3.648,3.648,0,0,0,.829-2.561A4.4,4.4,0,0,0,147,84.274a2.724,2.724,0,0,0-1.037-1.213,2.812,2.812,0,0,0-1.532-.431,2.906,2.906,0,0,0-2.077.829A3.7,3.7,0,0,0,141.483,86.228Z" transform="translate(-8.149 -8.904)"/><path class="cls-3" d="M149.856,90.394V84.171h.949v.885a2.237,2.237,0,0,1,1.98-1.025,2.6,2.6,0,0,1,1.034.2,1.627,1.627,0,0,1,.706.53,2.035,2.035,0,0,1,.328.779,6.039,6.039,0,0,1,.059,1.025v3.826h-1.055V86.609a2.841,2.841,0,0,0-.123-.964,1.014,1.014,0,0,0-.437-.51,1.389,1.389,0,0,0-.735-.19,1.709,1.709,0,0,0-1.163.428A2.11,2.11,0,0,0,150.911,87v3.4Z" transform="translate(-8.149 -8.904)"/><path class="cls-3" d="M159.471,87.283a3.207,3.207,0,0,1,.961-2.561,2.9,2.9,0,0,1,1.957-.691,2.792,2.792,0,0,1,2.1.841,3.2,3.2,0,0,1,.814,2.323,4.117,4.117,0,0,1-.36,1.89,2.551,2.551,0,0,1-1.049,1.069,3.054,3.054,0,0,1-1.5.381,2.8,2.8,0,0,1-2.112-.838A3.347,3.347,0,0,1,159.471,87.283Zm1.084,0a2.65,2.65,0,0,0,.521,1.79,1.736,1.736,0,0,0,2.619,0,2.713,2.713,0,0,0,.521-1.822,2.571,2.571,0,0,0-.524-1.749,1.739,1.739,0,0,0-2.616,0A2.639,2.639,0,0,0,160.555,87.283Z" transform="translate(-8.149 -8.904)"/><path class="cls-3" d="M166.526,90.394V84.171h.949v.943a2.574,2.574,0,0,1,.671-.873,1.171,1.171,0,0,1,.677-.211,2.057,2.057,0,0,1,1.084.34l-.363.979a1.509,1.509,0,0,0-.773-.229,1,1,0,0,0-.621.208,1.127,1.127,0,0,0-.393.577,4.108,4.108,0,0,0-.176,1.23v3.258Z" transform="translate(-8.149 -8.904)"/><path class="cls-3" d="M172.4,90.394l3.3-8.59h1.225l3.516,8.59h-1.295l-1-2.6h-3.592l-.943,2.6Zm2.479-3.527h2.912l-.9-2.379q-.41-1.084-.609-1.781a10.95,10.95,0,0,1-.463,1.641Z" transform="translate(-8.149 -8.904)"/><path class="cls-3" d="M181.461,90.394v-5.4h-.932v-.82h.932v-.662a2.9,2.9,0,0,1,.111-.932,1.349,1.349,0,0,1,.536-.665,1.932,1.932,0,0,1,1.075-.255,5.163,5.163,0,0,1,.984.105l-.158.92a3.539,3.539,0,0,0-.621-.059.924.924,0,0,0-.68.205,1.112,1.112,0,0,0-.2.768v.574h1.213v.82H182.51v5.4Z" transform="translate(-8.149 -8.904)"/><path class="cls-3" d="M186.846,89.451l.152.932a3.912,3.912,0,0,1-.8.094,1.8,1.8,0,0,1-.891-.182,1.017,1.017,0,0,1-.445-.478,3.776,3.776,0,0,1-.129-1.245v-3.58h-.773v-.82h.773V82.63L185.786,82v2.174h1.061v.82h-1.061V88.63a1.838,1.838,0,0,0,.056.58.439.439,0,0,0,.182.205.7.7,0,0,0,.36.076A3.431,3.431,0,0,0,186.846,89.451Z" transform="translate(-8.149 -8.904)"/><path class="cls-3" d="M192.137,88.39l1.09.135a2.659,2.659,0,0,1-.955,1.482,3.236,3.236,0,0,1-3.946-.313,3.285,3.285,0,0,1-.8-2.358,3.438,3.438,0,0,1,.809-2.437,2.737,2.737,0,0,1,2.1-.867,2.66,2.66,0,0,1,2.039.85,3.376,3.376,0,0,1,.791,2.391q0,.094-.006.281h-4.641a2.391,2.391,0,0,0,.58,1.57,1.727,1.727,0,0,0,1.3.545,1.614,1.614,0,0,0,.99-.3A2.023,2.023,0,0,0,192.137,88.39Zm-3.463-1.705h3.475a2.108,2.108,0,0,0-.4-1.178,1.616,1.616,0,0,0-1.307-.609,1.675,1.675,0,0,0-1.222.486A1.925,1.925,0,0,0,188.674,86.685Z" transform="translate(-8.149 -8.904)"/><path class="cls-3" d="M194.54,90.394V84.171h.949v.943a2.574,2.574,0,0,1,.671-.873,1.171,1.171,0,0,1,.677-.211,2.057,2.057,0,0,1,1.084.34l-.363.979a1.509,1.509,0,0,0-.773-.229,1,1,0,0,0-.621.208,1.127,1.127,0,0,0-.393.577,4.108,4.108,0,0,0-.176,1.23v3.258Z" transform="translate(-8.149 -8.904)"/><path class="cls-3" d="M63.981,104.794V96.2H67.79a5.069,5.069,0,0,1,1.746.231,1.909,1.909,0,0,1,.955.817,2.439,2.439,0,0,1,.357,1.295,2.16,2.16,0,0,1-.592,1.541,3,3,0,0,1-1.828.8,2.948,2.948,0,0,1,.686.428,5.906,5.906,0,0,1,.943,1.143l1.494,2.338h-1.43l-1.137-1.787q-.5-.773-.82-1.184a2.579,2.579,0,0,0-.577-.574,1.706,1.706,0,0,0-.519-.229,3.415,3.415,0,0,0-.633-.041H65.118v3.814Zm1.137-4.8h2.443a3.664,3.664,0,0,0,1.219-.161,1.3,1.3,0,0,0,.668-.516,1.4,1.4,0,0,0,.229-.771,1.28,1.28,0,0,0-.442-1,2.07,2.07,0,0,0-1.4-.393H65.118Z" transform="translate(-8.149 -8.904)"/><path class="cls-3" d="M76.754,102.79l1.09.135a2.659,2.659,0,0,1-.955,1.482,3.236,3.236,0,0,1-3.946-.313,3.285,3.285,0,0,1-.8-2.358,3.438,3.438,0,0,1,.809-2.438,2.737,2.737,0,0,1,2.1-.867,2.66,2.66,0,0,1,2.039.85,3.376,3.376,0,0,1,.791,2.391q0,.094-.006.281H73.233a2.391,2.391,0,0,0,.58,1.57,1.727,1.727,0,0,0,1.3.545,1.614,1.614,0,0,0,.99-.3A2.023,2.023,0,0,0,76.754,102.79Zm-3.463-1.705h3.475a2.108,2.108,0,0,0-.4-1.178,1.616,1.616,0,0,0-1.307-.609,1.675,1.675,0,0,0-1.222.486A1.925,1.925,0,0,0,73.292,101.085Z" transform="translate(-8.149 -8.904)"/><path class="cls-3" d="M83.135,107.179v-3.047a1.887,1.887,0,0,1-.688.574,2.021,2.021,0,0,1-.94.229,2.487,2.487,0,0,1-1.907-.885,3.484,3.484,0,0,1-.8-2.426,4.159,4.159,0,0,1,.325-1.682,2.426,2.426,0,0,1,.943-1.128,2.522,2.522,0,0,1,1.356-.384,2.084,2.084,0,0,1,1.816.973v-.832h.949v8.607Zm-3.252-5.514a2.75,2.75,0,0,0,.5,1.8,1.528,1.528,0,0,0,1.207.6,1.478,1.478,0,0,0,1.16-.571,2.631,2.631,0,0,0,.486-1.737,2.9,2.9,0,0,0-.513-1.869,1.52,1.52,0,0,0-1.2-.627,1.453,1.453,0,0,0-1.163.583A2.847,2.847,0,0,0,79.883,101.665Z" transform="translate(-8.149 -8.904)"/><path class="cls-3" d="M89.92,104.794v-.914a2.278,2.278,0,0,1-1.975,1.055,2.516,2.516,0,0,1-1.028-.211,1.694,1.694,0,0,1-.709-.53,1.987,1.987,0,0,1-.325-.782,5.356,5.356,0,0,1-.064-.984V98.571h1.055v3.451a6.15,6.15,0,0,0,.064,1.113,1.1,1.1,0,0,0,.422.653,1.307,1.307,0,0,0,.8.237,1.736,1.736,0,0,0,.891-.243,1.352,1.352,0,0,0,.589-.662,3.322,3.322,0,0,0,.173-1.216V98.571h1.055v6.223Z" transform="translate(-8.149 -8.904)"/><path class="cls-3" d="M92.522,97.417V96.2h1.055v1.213Zm0,7.377V98.571h1.055v6.223Z" transform="translate(-8.149 -8.904)"/><path class="cls-3" d="M95.17,104.794V98.571h.949v.943a2.574,2.574,0,0,1,.671-.873,1.171,1.171,0,0,1,.677-.211,2.057,2.057,0,0,1,1.084.34l-.363.979a1.509,1.509,0,0,0-.773-.229,1,1,0,0,0-.621.208,1.127,1.127,0,0,0-.393.577,4.108,4.108,0,0,0-.176,1.23v3.258Z" transform="translate(-8.149 -8.904)"/><path class="cls-3" d="M103.438,102.79l1.09.135a2.659,2.659,0,0,1-.955,1.482,3.236,3.236,0,0,1-3.946-.313,3.285,3.285,0,0,1-.8-2.358,3.438,3.438,0,0,1,.809-2.438,2.737,2.737,0,0,1,2.1-.867,2.66,2.66,0,0,1,2.039.85,3.376,3.376,0,0,1,.791,2.391q0,.094-.006.281H99.917a2.391,2.391,0,0,0,.58,1.57,1.727,1.727,0,0,0,1.3.545,1.614,1.614,0,0,0,.99-.3A2.023,2.023,0,0,0,103.438,102.79Zm-3.463-1.705h3.475a2.108,2.108,0,0,0-.4-1.178,1.616,1.616,0,0,0-1.307-.609,1.675,1.675,0,0,0-1.222.486A1.925,1.925,0,0,0,99.975,101.085Z" transform="translate(-8.149 -8.904)"/><path class="cls-3" d="M109.889,104.794v-.785a1.935,1.935,0,0,1-1.74.926,2.44,2.44,0,0,1-1.368-.41,2.7,2.7,0,0,1-.967-1.146,3.959,3.959,0,0,1-.343-1.69,4.424,4.424,0,0,1,.311-1.69,2.449,2.449,0,0,1,.932-1.163,2.491,2.491,0,0,1,1.389-.4,2.075,2.075,0,0,1,1.717.855V96.2h1.049v8.59Zm-3.334-3.105a2.7,2.7,0,0,0,.5,1.787,1.519,1.519,0,0,0,1.189.592,1.492,1.492,0,0,0,1.175-.565,2.607,2.607,0,0,0,.483-1.726,2.926,2.926,0,0,0-.492-1.875,1.514,1.514,0,0,0-1.213-.6,1.461,1.461,0,0,0-1.175.574A2.834,2.834,0,0,0,106.555,101.688Z" transform="translate(-8.149 -8.904)"/><path class="cls-3" d="M115.948,104.794V96.2h3.223a3.989,3.989,0,0,1,1.579.261,2.03,2.03,0,0,1,.932.8,2.116,2.116,0,0,1,.337,1.134,1.948,1.948,0,0,1-.3,1.037,2.134,2.134,0,0,1-.9.785,2.244,2.244,0,0,1,1.2.779,2.087,2.087,0,0,1,.419,1.3,2.509,2.509,0,0,1-.255,1.122,2.172,2.172,0,0,1-.63.8,2.629,2.629,0,0,1-.94.425,5.72,5.72,0,0,1-1.386.144Zm1.137-4.98h1.857a4.145,4.145,0,0,0,1.084-.1,1.2,1.2,0,0,0,.653-.428,1.232,1.232,0,0,0,.22-.75,1.381,1.381,0,0,0-.205-.753,1.038,1.038,0,0,0-.586-.445,4.894,4.894,0,0,0-1.307-.12h-1.717Zm0,3.967h2.139a4.923,4.923,0,0,0,.773-.041,1.853,1.853,0,0,0,.656-.234,1.244,1.244,0,0,0,.434-.478,1.5,1.5,0,0,0,.17-.724,1.427,1.427,0,0,0-.246-.835,1.3,1.3,0,0,0-.683-.5,4.232,4.232,0,0,0-1.257-.144h-1.986Z" transform="translate(-8.149 -8.904)"/><path class="cls-3" d="M128.124,102.79l1.09.135a2.659,2.659,0,0,1-.955,1.482,3.236,3.236,0,0,1-3.946-.313,3.285,3.285,0,0,1-.8-2.358,3.438,3.438,0,0,1,.809-2.438,2.737,2.737,0,0,1,2.1-.867,2.66,2.66,0,0,1,2.039.85,3.376,3.376,0,0,1,.791,2.391q0,.094-.006.281H124.6a2.391,2.391,0,0,0,.58,1.57,1.727,1.727,0,0,0,1.3.545,1.614,1.614,0,0,0,.99-.3A2.023,2.023,0,0,0,128.124,102.79Zm-3.463-1.705h3.475a2.108,2.108,0,0,0-.4-1.178,1.616,1.616,0,0,0-1.307-.609,1.675,1.675,0,0,0-1.222.486A1.925,1.925,0,0,0,124.661,101.085Z" transform="translate(-8.149 -8.904)"/><path class="cls-3" d="M130.344,105.31l1.025.152a.977.977,0,0,0,.357.691,1.756,1.756,0,0,0,1.072.293,1.883,1.883,0,0,0,1.131-.293,1.442,1.442,0,0,0,.539-.82,6.736,6.736,0,0,0,.076-1.354,2.169,2.169,0,0,1-1.723.814,2.349,2.349,0,0,1-1.986-.926,3.565,3.565,0,0,1-.7-2.221,4.133,4.133,0,0,1,.322-1.644,2.578,2.578,0,0,1,.935-1.163,2.524,2.524,0,0,1,1.438-.41,2.231,2.231,0,0,1,1.816.891v-.75h.973v5.379a5.1,5.1,0,0,1-.3,2.06,2.164,2.164,0,0,1-.937.958,3.249,3.249,0,0,1-1.579.352,2.978,2.978,0,0,1-1.8-.5A1.694,1.694,0,0,1,130.344,105.31Zm.873-3.738a2.7,2.7,0,0,0,.486,1.787,1.6,1.6,0,0,0,2.438,0,2.612,2.612,0,0,0,.492-1.755,2.552,2.552,0,0,0-.507-1.723,1.567,1.567,0,0,0-1.222-.58,1.522,1.522,0,0,0-1.2.571A2.537,2.537,0,0,0,131.217,101.571Z" transform="translate(-8.149 -8.904)"/><path class="cls-3" d="M137.217,97.417V96.2h1.055v1.213Zm0,7.377V98.571h1.055v6.223Z" transform="translate(-8.149 -8.904)"/><path class="cls-3" d="M139.877,104.794V98.571h.949v.885a2.237,2.237,0,0,1,1.98-1.025,2.6,2.6,0,0,1,1.034.2,1.627,1.627,0,0,1,.706.53,2.035,2.035,0,0,1,.328.779,6.039,6.039,0,0,1,.059,1.025v3.826h-1.055v-3.785a2.841,2.841,0,0,0-.123-.964,1.014,1.014,0,0,0-.437-.51,1.389,1.389,0,0,0-.735-.19,1.709,1.709,0,0,0-1.163.428,2.11,2.11,0,0,0-.489,1.623v3.4Z" transform="translate(-8.149 -8.904)"/><path class="cls-3" d="M146.551,104.794V98.571h.949v.885a2.237,2.237,0,0,1,1.98-1.025,2.6,2.6,0,0,1,1.034.2,1.627,1.627,0,0,1,.706.53,2.035,2.035,0,0,1,.328.779,6.039,6.039,0,0,1,.059,1.025v3.826h-1.055v-3.785a2.841,2.841,0,0,0-.123-.964,1.014,1.014,0,0,0-.437-.51,1.389,1.389,0,0,0-.735-.19,1.709,1.709,0,0,0-1.163.428,2.11,2.11,0,0,0-.489,1.623v3.4Z" transform="translate(-8.149 -8.904)"/><path class="cls-3" d="M153.231,97.417V96.2h1.055v1.213Zm0,7.377V98.571h1.055v6.223Z" transform="translate(-8.149 -8.904)"/><path class="cls-3" d="M155.891,104.794V98.571h.949v.885a2.237,2.237,0,0,1,1.98-1.025,2.6,2.6,0,0,1,1.034.2,1.627,1.627,0,0,1,.706.53,2.035,2.035,0,0,1,.328.779,6.039,6.039,0,0,1,.059,1.025v3.826h-1.055v-3.785a2.841,2.841,0,0,0-.123-.964,1.014,1.014,0,0,0-.437-.51,1.389,1.389,0,0,0-.735-.19,1.709,1.709,0,0,0-1.163.428,2.11,2.11,0,0,0-.489,1.623v3.4Z" transform="translate(-8.149 -8.904)"/><path class="cls-3" d="M162.372,105.31l1.025.152a.977.977,0,0,0,.357.691,1.756,1.756,0,0,0,1.072.293,1.883,1.883,0,0,0,1.131-.293,1.442,1.442,0,0,0,.539-.82,6.736,6.736,0,0,0,.076-1.354,2.169,2.169,0,0,1-1.723.814,2.349,2.349,0,0,1-1.986-.926,3.565,3.565,0,0,1-.7-2.221,4.133,4.133,0,0,1,.322-1.644,2.578,2.578,0,0,1,.935-1.163,2.523,2.523,0,0,1,1.438-.41,2.231,2.231,0,0,1,1.816.891v-.75h.973v5.379a5.1,5.1,0,0,1-.3,2.06,2.164,2.164,0,0,1-.937.958,3.249,3.249,0,0,1-1.579.352,2.978,2.978,0,0,1-1.8-.5A1.694,1.694,0,0,1,162.372,105.31Zm.873-3.738a2.7,2.7,0,0,0,.486,1.787,1.6,1.6,0,0,0,2.438,0,2.612,2.612,0,0,0,.492-1.755,2.552,2.552,0,0,0-.507-1.723,1.567,1.567,0,0,0-1.222-.58,1.522,1.522,0,0,0-1.2.571A2.537,2.537,0,0,0,163.245,101.571Z" transform="translate(-8.149 -8.904)"/><path class="cls-3" d="M172.708,104.794V96.2h2.959a7.177,7.177,0,0,1,1.529.123,2.909,2.909,0,0,1,1.26.615,3.5,3.5,0,0,1,1.017,1.468,5.762,5.762,0,0,1,.337,2.042,6,6,0,0,1-.229,1.734,4.208,4.208,0,0,1-.586,1.251,3.113,3.113,0,0,1-.782.779,3.188,3.188,0,0,1-1.025.431,5.852,5.852,0,0,1-1.38.146Zm1.137-1.014h1.834a4.451,4.451,0,0,0,1.333-.158,1.907,1.907,0,0,0,.771-.445,2.71,2.71,0,0,0,.63-1.087,5.314,5.314,0,0,0,.226-1.655,4,4,0,0,0-.442-2.071,2.226,2.226,0,0,0-1.075-.97,4.444,4.444,0,0,0-1.471-.176h-1.8Z" transform="translate(-8.149 -8.904)"/><path class="cls-3" d="M185.3,104.026a3.927,3.927,0,0,1-1.128.7,3.259,3.259,0,0,1-1.163.205,2.262,2.262,0,0,1-1.576-.5,1.654,1.654,0,0,1-.551-1.28,1.7,1.7,0,0,1,.208-.835,1.722,1.722,0,0,1,.545-.606,2.562,2.562,0,0,1,.759-.346,7.536,7.536,0,0,1,.938-.158,9.64,9.64,0,0,0,1.881-.363q.006-.217.006-.275a1.164,1.164,0,0,0-.3-.908,1.765,1.765,0,0,0-1.2-.357,1.863,1.863,0,0,0-1.1.261,1.593,1.593,0,0,0-.524.923l-1.031-.141a2.555,2.555,0,0,1,.463-1.069,2.029,2.029,0,0,1,.932-.627,4.155,4.155,0,0,1,1.412-.22,3.738,3.738,0,0,1,1.295.188,1.706,1.706,0,0,1,.732.472,1.659,1.659,0,0,1,.328.718,5.938,5.938,0,0,1,.053.973v1.406a14.926,14.926,0,0,0,.067,1.86,2.347,2.347,0,0,0,.267.747h-1.1A2.236,2.236,0,0,1,185.3,104.026Zm-.088-2.355a7.738,7.738,0,0,1-1.723.4,3.985,3.985,0,0,0-.92.211.917.917,0,0,0-.416.343.932.932,0,0,0,.173,1.2,1.374,1.374,0,0,0,.935.281,2.175,2.175,0,0,0,1.084-.267,1.642,1.642,0,0,0,.7-.729,2.548,2.548,0,0,0,.17-1.055Z" transform="translate(-8.149 -8.904)"/><path class="cls-3" d="M190.215,103.851l.152.932a3.912,3.912,0,0,1-.8.094,1.8,1.8,0,0,1-.891-.182,1.017,1.017,0,0,1-.445-.478,3.776,3.776,0,0,1-.129-1.245v-3.58h-.773v-.82h.773V97.03l1.049-.633v2.174h1.061v.82h-1.061v3.639a1.838,1.838,0,0,0,.056.58.439.439,0,0,0,.182.205.7.7,0,0,0,.36.076A3.431,3.431,0,0,0,190.215,103.851Z" transform="translate(-8.149 -8.904)"/><path class="cls-3" d="M195.506,102.79l1.09.135a2.659,2.659,0,0,1-.955,1.482,3.236,3.236,0,0,1-3.946-.313,3.285,3.285,0,0,1-.8-2.358A3.438,3.438,0,0,1,191.7,99.3a2.737,2.737,0,0,1,2.1-.867,2.66,2.66,0,0,1,2.039.85,3.376,3.376,0,0,1,.791,2.391q0,.094-.006.281h-4.641a2.391,2.391,0,0,0,.58,1.57,1.727,1.727,0,0,0,1.3.545,1.614,1.614,0,0,0,.99-.3A2.023,2.023,0,0,0,195.506,102.79Zm-3.463-1.705h3.475a2.108,2.108,0,0,0-.4-1.178,1.616,1.616,0,0,0-1.307-.609,1.675,1.675,0,0,0-1.222.486A1.925,1.925,0,0,0,192.043,101.085Z" transform="translate(-8.149 -8.904)"/><line class="cls-2" x1="111.752" y1="203.699" x2="111.752" y2="242.184"/><path class="cls-1" d="M74.969,262.893H73.322v-1.178a4.015,4.015,0,0,1,.126-1.128,1.721,1.721,0,0,1,.466-.741,2.371,2.371,0,0,1,.867-.516l.322.68a1.383,1.383,0,0,0-.706.457,1.35,1.35,0,0,0-.226.779h.8Zm2.748,0H76.07v-1.178a4.009,4.009,0,0,1,.126-1.131,1.712,1.712,0,0,1,.469-.738,2.408,2.408,0,0,1,.864-.516l.322.68a1.383,1.383,0,0,0-.706.457,1.35,1.35,0,0,0-.226.779h.8Z" transform="translate(-8.149 -8.904)"/><path class="cls-1" d="M79.434,268v-8.59h5.889v1.453H81.168V262.9h3.586v1.453H81.168V268Z" transform="translate(-8.149 -8.904)"/><path class="cls-1" d="M86.74,260.936v-1.523h1.646v1.523Zm0,7.066v-6.223h1.646V268Z" transform="translate(-8.149 -8.904)"/><path class="cls-1" d="M91.785,268l-2.508-6.223h1.729l1.172,3.176.34,1.061q.135-.4.17-.533.082-.264.176-.527l1.184-3.176H95.74L93.268,268Z" transform="translate(-8.149 -8.904)"/><path class="cls-1" d="M100.352,266.021l1.641.275a2.691,2.691,0,0,1-1,1.374,2.935,2.935,0,0,1-1.708.472,2.784,2.784,0,0,1-2.4-1.061,3.563,3.563,0,0,1-.615-2.145,3.436,3.436,0,0,1,.809-2.423,2.663,2.663,0,0,1,2.045-.876,2.762,2.762,0,0,1,2.191.917,4.057,4.057,0,0,1,.768,2.81H97.955a1.666,1.666,0,0,0,.4,1.14,1.246,1.246,0,0,0,.949.407,1.008,1.008,0,0,0,.65-.211A1.3,1.3,0,0,0,100.352,266.021Zm.094-1.664a1.585,1.585,0,0,0-.369-1.087,1.188,1.188,0,0,0-1.746.021,1.519,1.519,0,0,0-.346,1.066Z" transform="translate(-8.149 -8.904)"/><path class="cls-1" d="M103.234,265.711v-1.646h3.234v1.646Z" transform="translate(-8.149 -8.904)"/><path class="cls-1" d="M109.686,268v-3.615l-3.146-4.975h2.033l2.021,3.4,1.98-3.4h2l-3.158,4.986V268Z" transform="translate(-8.149 -8.904)"/><path class="cls-1" d="M118.363,266.021,120,266.3a2.691,2.691,0,0,1-1,1.374,2.935,2.935,0,0,1-1.708.472,2.784,2.784,0,0,1-2.4-1.061,3.563,3.563,0,0,1-.615-2.145,3.436,3.436,0,0,1,.809-2.423,2.663,2.663,0,0,1,2.045-.876,2.762,2.762,0,0,1,2.191.917,4.057,4.057,0,0,1,.768,2.81h-4.125a1.666,1.666,0,0,0,.4,1.14,1.246,1.246,0,0,0,.949.407,1.008,1.008,0,0,0,.65-.211A1.3,1.3,0,0,0,118.363,266.021Zm.094-1.664a1.585,1.585,0,0,0-.369-1.087,1.188,1.188,0,0,0-1.746.021,1.519,1.519,0,0,0-.346,1.066Z" transform="translate(-8.149 -8.904)"/><path class="cls-1" d="M122.664,263.678l-1.494-.27a2.327,2.327,0,0,1,.867-1.336,3.173,3.173,0,0,1,1.828-.434,3.94,3.94,0,0,1,1.641.261,1.636,1.636,0,0,1,.759.662,3.4,3.4,0,0,1,.22,1.474l-.018,1.922a6.672,6.672,0,0,0,.079,1.21,3.532,3.532,0,0,0,.3.835h-1.629q-.064-.164-.158-.486-.041-.146-.059-.193a2.968,2.968,0,0,1-.9.615,2.584,2.584,0,0,1-1.025.205,2.12,2.12,0,0,1-1.515-.521A1.733,1.733,0,0,1,121,266.3a1.77,1.77,0,0,1,.252-.94,1.646,1.646,0,0,1,.706-.633,5.518,5.518,0,0,1,1.31-.384,8.971,8.971,0,0,0,1.6-.4v-.164a.853.853,0,0,0-.234-.677,1.4,1.4,0,0,0-.885-.2,1.178,1.178,0,0,0-.686.173A1.2,1.2,0,0,0,122.664,263.678Zm2.2,1.336a10.292,10.292,0,0,1-1,.252,3.018,3.018,0,0,0-.9.287.687.687,0,0,0-.322.58.808.808,0,0,0,.258.6.9.9,0,0,0,.656.252,1.426,1.426,0,0,0,.85-.293,1.031,1.031,0,0,0,.393-.545,3.251,3.251,0,0,0,.064-.8Z" transform="translate(-8.149 -8.904)"/><path class="cls-1" d="M129.684,268h-1.646v-6.223h1.529v.885a2.659,2.659,0,0,1,.706-.826,1.3,1.3,0,0,1,.712-.2,2.09,2.09,0,0,1,1.084.311l-.51,1.436a1.445,1.445,0,0,0-.773-.27.914.914,0,0,0-.586.19,1.3,1.3,0,0,0-.378.688,9.781,9.781,0,0,0-.138,2.086Z" transform="translate(-8.149 -8.904)"/><path class="cls-1" d="M136.129,268v-8.59h3.65a6.248,6.248,0,0,1,2,.231,1.974,1.974,0,0,1,1,.823,2.474,2.474,0,0,1,.375,1.354,2.293,2.293,0,0,1-.568,1.6,2.73,2.73,0,0,1-1.7.794,4.046,4.046,0,0,1,.929.721,9.79,9.79,0,0,1,.987,1.395L143.852,268h-2.074l-1.254-1.869a12.125,12.125,0,0,0-.914-1.263,1.331,1.331,0,0,0-.521-.357,2.859,2.859,0,0,0-.873-.1h-.352V268Zm1.734-4.957h1.283a6.626,6.626,0,0,0,1.559-.105.934.934,0,0,0,.486-.363,1.118,1.118,0,0,0,.176-.645,1.03,1.03,0,0,0-.231-.7,1.062,1.062,0,0,0-.653-.337q-.211-.029-1.266-.029h-1.354Z" transform="translate(-8.149 -8.904)"/><path class="cls-1" d="M148.873,268v-.932a2.4,2.4,0,0,1-.894.785,2.5,2.5,0,0,1-1.169.287,2.286,2.286,0,0,1-1.125-.275,1.626,1.626,0,0,1-.721-.773,3.451,3.451,0,0,1-.223-1.377v-3.937h1.646v2.859a7.929,7.929,0,0,0,.091,1.608.877.877,0,0,0,.331.469,1.017,1.017,0,0,0,.609.173,1.3,1.3,0,0,0,.756-.231,1.177,1.177,0,0,0,.457-.574,6.665,6.665,0,0,0,.123-1.679v-2.625H150.4V268Z" transform="translate(-8.149 -8.904)"/><path class="cls-1" d="M152.107,268v-8.59h1.646V268Z" transform="translate(-8.149 -8.904)"/><path class="cls-1" d="M159.045,266.021l1.641.275a2.691,2.691,0,0,1-1,1.374,2.935,2.935,0,0,1-1.708.472,2.784,2.784,0,0,1-2.4-1.061,3.563,3.563,0,0,1-.615-2.145,3.436,3.436,0,0,1,.809-2.423,2.663,2.663,0,0,1,2.045-.876,2.762,2.762,0,0,1,2.191.917,4.057,4.057,0,0,1,.768,2.81h-4.125a1.666,1.666,0,0,0,.4,1.14,1.246,1.246,0,0,0,.949.407,1.008,1.008,0,0,0,.65-.211A1.3,1.3,0,0,0,159.045,266.021Zm.094-1.664a1.585,1.585,0,0,0-.369-1.087,1.188,1.188,0,0,0-1.746.021,1.519,1.519,0,0,0-.346,1.066Z" transform="translate(-8.149 -8.904)"/><path class="cls-1" d="M162,259.412h1.646V260.6a4.072,4.072,0,0,1-.123,1.125,1.707,1.707,0,0,1-.466.741,2.378,2.378,0,0,1-.87.519l-.322-.686a1.174,1.174,0,0,0,.932-1.236H162Zm2.766,0h1.646V260.6a3.982,3.982,0,0,1-.126,1.125,1.732,1.732,0,0,1-.469.741,2.385,2.385,0,0,1-.864.519l-.322-.686a1.383,1.383,0,0,0,.706-.457,1.321,1.321,0,0,0,.22-.779h-.791Z" transform="translate(-8.149 -8.904)"/></svg>