<svg id="Layer_1" data-name="Layer 1" xmlns="http://www.w3.org/2000/svg" viewBox="0 0 321.416 478.25"><defs><style>.cls-1{fill:#231f20;}.cls-2,.cls-3,.cls-4,.cls-5{fill:none;stroke-miterlimit:10;}.cls-2{stroke:#ed1f24;}.cls-3{stroke:#3d65b0;}.cls-4{stroke:#dc7427;}.cls-5{stroke:#49b749;}.cls-6{fill:#49b749;}.cls-7{fill:#dc7427;}.cls-8{fill:#ed1f24;}.cls-9{fill:#3d65b0;}</style></defs><title>Unique_Characteristics_Gift_Estate_Taxes</title><path class="cls-1" d="M35.667,92.446l2.005.636a4.5,4.5,0,0,1-1.534,2.491,4.825,4.825,0,0,1-6.075-.58,5.332,5.332,0,0,1-1.313-3.811,5.6,5.6,0,0,1,1.32-3.972,4.527,4.527,0,0,1,3.473-1.415A4.259,4.259,0,0,1,36.6,86.906a4.043,4.043,0,0,1,1.048,1.886l-2.047.489a2.115,2.115,0,0,0-2.159-1.719,2.331,2.331,0,0,0-1.848.817,4.008,4.008,0,0,0-.709,2.648,4.3,4.3,0,0,0,.7,2.767,2.268,2.268,0,0,0,1.816.825,2.073,2.073,0,0,0,1.418-.524A3.047,3.047,0,0,0,35.667,92.446Z" transform="translate(-11.647 -27.828)"/><path class="cls-1" d="M41.389,85.97v3.766a2.942,2.942,0,0,1,3.493-.859,2,2,0,0,1,.821.643,2.337,2.337,0,0,1,.377.867,7.763,7.763,0,0,1,.1,1.474v4.353H44.218V92.292a5.815,5.815,0,0,0-.112-1.481.972.972,0,0,0-.4-.5A1.272,1.272,0,0,0,43,90.126a1.629,1.629,0,0,0-.874.238,1.37,1.37,0,0,0-.562.716,4.27,4.27,0,0,0-.178,1.415v3.717H39.426V85.97Z" transform="translate(-11.647 -27.828)"/><path class="cls-1" d="M49.64,91.056l-1.782-.321a2.776,2.776,0,0,1,1.034-1.593,3.784,3.784,0,0,1,2.18-.517,4.694,4.694,0,0,1,1.957.311,1.951,1.951,0,0,1,.9.79,4.054,4.054,0,0,1,.262,1.757l-.021,2.292a7.936,7.936,0,0,0,.095,1.443,4.187,4.187,0,0,0,.353,1H52.679q-.077-.2-.188-.58c-.033-.116-.056-.193-.07-.23a3.543,3.543,0,0,1-1.076.734,3.087,3.087,0,0,1-1.223.244,2.527,2.527,0,0,1-1.806-.622,2.066,2.066,0,0,1-.66-1.572,2.112,2.112,0,0,1,.3-1.122,1.962,1.962,0,0,1,.842-.754,6.568,6.568,0,0,1,1.562-.458,10.659,10.659,0,0,0,1.907-.482v-.2a1.018,1.018,0,0,0-.279-.807,1.676,1.676,0,0,0-1.055-.241,1.407,1.407,0,0,0-.817.206A1.434,1.434,0,0,0,49.64,91.056Zm2.627,1.593a12.316,12.316,0,0,1-1.195.3A3.594,3.594,0,0,0,50,93.292a.818.818,0,0,0-.384.692.962.962,0,0,0,.308.712,1.073,1.073,0,0,0,.782.3,1.7,1.7,0,0,0,1.013-.349A1.23,1.23,0,0,0,52.19,94a3.874,3.874,0,0,0,.077-.957Z" transform="translate(-11.647 -27.828)"/><path class="cls-1" d="M58.01,96.212H56.047v-7.42H57.87v1.055a3.176,3.176,0,0,1,.842-.985,1.551,1.551,0,0,1,.849-.237,2.494,2.494,0,0,1,1.292.37l-.608,1.712a1.722,1.722,0,0,0-.922-.321,1.091,1.091,0,0,0-.7.227,1.551,1.551,0,0,0-.45.821,11.627,11.627,0,0,0-.165,2.487Z" transform="translate(-11.647 -27.828)"/><path class="cls-1" d="M63.166,91.056l-1.782-.321a2.776,2.776,0,0,1,1.034-1.593,3.784,3.784,0,0,1,2.18-.517,4.694,4.694,0,0,1,1.957.311,1.951,1.951,0,0,1,.9.79,4.054,4.054,0,0,1,.262,1.757L67.7,93.773a7.936,7.936,0,0,0,.095,1.443,4.187,4.187,0,0,0,.353,1H66.2q-.077-.2-.188-.58c-.033-.116-.056-.193-.07-.23a3.543,3.543,0,0,1-1.076.734,3.087,3.087,0,0,1-1.223.244,2.527,2.527,0,0,1-1.806-.622,2.066,2.066,0,0,1-.66-1.572,2.112,2.112,0,0,1,.3-1.122,1.962,1.962,0,0,1,.842-.754,6.568,6.568,0,0,1,1.562-.458,10.659,10.659,0,0,0,1.907-.482v-.2a1.018,1.018,0,0,0-.279-.807,1.676,1.676,0,0,0-1.055-.241,1.407,1.407,0,0,0-.817.206A1.434,1.434,0,0,0,63.166,91.056Zm2.627,1.593a12.316,12.316,0,0,1-1.195.3,3.594,3.594,0,0,0-1.069.342.818.818,0,0,0-.384.692.962.962,0,0,0,.308.712,1.073,1.073,0,0,0,.782.3,1.7,1.7,0,0,0,1.013-.349,1.23,1.23,0,0,0,.468-.65,3.874,3.874,0,0,0,.077-.957Z" transform="translate(-11.647 -27.828)"/><path class="cls-1" d="M76.126,90.986l-1.935.35a1.407,1.407,0,0,0-.444-.874,1.339,1.339,0,0,0-.9-.293,1.466,1.466,0,0,0-1.17.507,2.592,2.592,0,0,0-.437,1.694,3,3,0,0,0,.444,1.866,1.457,1.457,0,0,0,1.191.545,1.323,1.323,0,0,0,.915-.318,1.913,1.913,0,0,0,.5-1.094l1.928.329a3.42,3.42,0,0,1-1.153,2,3.565,3.565,0,0,1-2.284.678,3.4,3.4,0,0,1-2.6-1.027,4.681,4.681,0,0,1,0-5.7,3.45,3.45,0,0,1,2.627-1.023,3.581,3.581,0,0,1,2.155.583A3.232,3.232,0,0,1,76.126,90.986Z" transform="translate(-11.647 -27.828)"/><path class="cls-1" d="M81.016,88.792v1.565H79.675v2.991a7.457,7.457,0,0,0,.039,1.058.43.43,0,0,0,.175.248.552.552,0,0,0,.332.1,2.537,2.537,0,0,0,.79-.189l.168,1.523a3.9,3.9,0,0,1-1.551.293,2.462,2.462,0,0,1-.957-.178,1.4,1.4,0,0,1-.625-.461,1.817,1.817,0,0,1-.276-.765,9.494,9.494,0,0,1-.063-1.383V90.357h-.9V88.792h.9V87.318l1.97-1.146v2.62Z" transform="translate(-11.647 -27.828)"/><path class="cls-1" d="M86.675,93.851l1.956.328a3.21,3.21,0,0,1-1.191,1.639,3.5,3.5,0,0,1-2.037.562,3.321,3.321,0,0,1-2.865-1.264,4.25,4.25,0,0,1-.733-2.557,4.1,4.1,0,0,1,.964-2.889,3.174,3.174,0,0,1,2.438-1.044,3.294,3.294,0,0,1,2.613,1.093,4.841,4.841,0,0,1,.915,3.35H83.818a1.987,1.987,0,0,0,.475,1.359,1.486,1.486,0,0,0,1.132.486,1.2,1.2,0,0,0,.775-.251A1.555,1.555,0,0,0,86.675,93.851Zm.112-1.984a1.892,1.892,0,0,0-.44-1.3,1.416,1.416,0,0,0-2.082.024,1.811,1.811,0,0,0-.413,1.271Z" transform="translate(-11.647 -27.828)"/><path class="cls-1" d="M92.215,96.212H90.252v-7.42h1.823v1.055a3.176,3.176,0,0,1,.842-.985,1.551,1.551,0,0,1,.849-.237,2.494,2.494,0,0,1,1.292.37l-.608,1.712a1.722,1.722,0,0,0-.922-.321,1.091,1.091,0,0,0-.7.227,1.551,1.551,0,0,0-.45.821,11.627,11.627,0,0,0-.165,2.487Z" transform="translate(-11.647 -27.828)"/><path class="cls-1" d="M95.9,87.786V85.97h1.963v1.816Zm0,8.426v-7.42h1.963v7.42Z" transform="translate(-11.647 -27.828)"/><path class="cls-1" d="M99.188,94.1l1.97-.3a1.446,1.446,0,0,0,.51.87,1.725,1.725,0,0,0,1.076.3,1.94,1.94,0,0,0,1.146-.28.623.623,0,0,0,.259-.524.517.517,0,0,0-.14-.37,1.565,1.565,0,0,0-.657-.258,10.583,10.583,0,0,1-3.011-.958,1.911,1.911,0,0,1-.88-1.669,2.059,2.059,0,0,1,.761-1.621,3.556,3.556,0,0,1,2.362-.657,4.122,4.122,0,0,1,2.264.5,2.536,2.536,0,0,1,1.02,1.467l-1.852.342a1.145,1.145,0,0,0-.451-.664,1.651,1.651,0,0,0-.947-.23,2.131,2.131,0,0,0-1.111.217.466.466,0,0,0-.224.4.434.434,0,0,0,.2.356,7.366,7.366,0,0,0,1.834.552,5.458,5.458,0,0,1,2.19.873,1.816,1.816,0,0,1,.615,1.46,2.241,2.241,0,0,1-.853,1.753,3.771,3.771,0,0,1-2.522.733,4.136,4.136,0,0,1-2.4-.615A2.831,2.831,0,0,1,99.188,94.1Z" transform="translate(-11.647 -27.828)"/><path class="cls-1" d="M111.239,88.792v1.565H109.9v2.991a7.457,7.457,0,0,0,.039,1.058.43.43,0,0,0,.175.248.552.552,0,0,0,.332.1,2.537,2.537,0,0,0,.79-.189l.168,1.523a3.9,3.9,0,0,1-1.551.293,2.462,2.462,0,0,1-.957-.178,1.4,1.4,0,0,1-.625-.461,1.817,1.817,0,0,1-.276-.765,9.494,9.494,0,0,1-.063-1.383V90.357h-.9V88.792h.9V87.318l1.97-1.146v2.62Z" transform="translate(-11.647 -27.828)"/><path class="cls-1" d="M112.6,87.786V85.97h1.963v1.816Zm0,8.426v-7.42h1.963v7.42Z" transform="translate(-11.647 -27.828)"/><path class="cls-1" d="M123.046,90.986l-1.935.35a1.407,1.407,0,0,0-.444-.874,1.339,1.339,0,0,0-.9-.293,1.466,1.466,0,0,0-1.17.507,2.592,2.592,0,0,0-.437,1.694,3,3,0,0,0,.444,1.866,1.457,1.457,0,0,0,1.191.545,1.323,1.323,0,0,0,.915-.318,1.913,1.913,0,0,0,.5-1.094l1.928.329a3.42,3.42,0,0,1-1.153,2,3.565,3.565,0,0,1-2.284.678,3.4,3.4,0,0,1-2.6-1.027,4.681,4.681,0,0,1,0-5.7,3.45,3.45,0,0,1,2.627-1.023,3.581,3.581,0,0,1,2.155.583A3.232,3.232,0,0,1,123.046,90.986Z" transform="translate(-11.647 -27.828)"/><path class="cls-1" d="M123.843,94.1l1.97-.3a1.446,1.446,0,0,0,.51.87,1.725,1.725,0,0,0,1.076.3,1.94,1.94,0,0,0,1.146-.28.623.623,0,0,0,.259-.524.517.517,0,0,0-.14-.37,1.565,1.565,0,0,0-.657-.258A10.583,10.583,0,0,1,125,92.572a1.911,1.911,0,0,1-.88-1.669,2.059,2.059,0,0,1,.761-1.621,3.556,3.556,0,0,1,2.362-.657,4.122,4.122,0,0,1,2.264.5,2.536,2.536,0,0,1,1.02,1.467l-1.852.342a1.145,1.145,0,0,0-.451-.664,1.651,1.651,0,0,0-.947-.23,2.131,2.131,0,0,0-1.111.217.466.466,0,0,0-.224.4.434.434,0,0,0,.2.356,7.366,7.366,0,0,0,1.834.552,5.458,5.458,0,0,1,2.19.873,1.816,1.816,0,0,1,.615,1.46,2.241,2.241,0,0,1-.853,1.753,3.771,3.771,0,0,1-2.522.733,4.136,4.136,0,0,1-2.4-.615A2.831,2.831,0,0,1,123.843,94.1Z" transform="translate(-11.647 -27.828)"/><path class="cls-1" d="M29.959,103.14h2.068v5.547A11.506,11.506,0,0,0,32.1,110.4a1.658,1.658,0,0,0,.632,1.01,2.2,2.2,0,0,0,1.366.381,2.086,2.086,0,0,0,1.328-.36,1.423,1.423,0,0,0,.538-.884,11.526,11.526,0,0,0,.091-1.74V103.14h2.068v5.379a13.819,13.819,0,0,1-.167,2.606,2.88,2.88,0,0,1-.619,1.286,3.118,3.118,0,0,1-1.205.835,5.246,5.246,0,0,1-1.97.311,5.678,5.678,0,0,1-2.225-.339,3.186,3.186,0,0,1-1.2-.88,2.822,2.822,0,0,1-.58-1.135,12.46,12.46,0,0,1-.2-2.6Z" transform="translate(-11.647 -27.828)"/><path class="cls-1" d="M47.041,113.382H45.078V109.6a5.844,5.844,0,0,0-.126-1.555,1.093,1.093,0,0,0-.409-.548,1.168,1.168,0,0,0-.681-.2,1.572,1.572,0,0,0-.915.28,1.406,1.406,0,0,0-.556.74,6.405,6.405,0,0,0-.15,1.705v3.36H40.278v-7.42H42.1v1.09a3.041,3.041,0,0,1,3.633-1.024,2,2,0,0,1,.814.6,2.172,2.172,0,0,1,.384.824,6.164,6.164,0,0,1,.108,1.32Z" transform="translate(-11.647 -27.828)"/><path class="cls-1" d="M49.032,104.957V103.14H51v1.816Zm0,8.426v-7.42H51v7.42Z" transform="translate(-11.647 -27.828)"/><path class="cls-1" d="M57.856,116.205v-3.731a2.784,2.784,0,0,1-.957.786,2.7,2.7,0,0,1-1.236.29,2.624,2.624,0,0,1-2.082-.95,4.434,4.434,0,0,1-.964-3.011,4.018,4.018,0,0,1,.9-2.791,2.9,2.9,0,0,1,2.246-1,2.512,2.512,0,0,1,1.282.314,2.933,2.933,0,0,1,.96.95v-1.1h1.81v10.243Zm.063-6.624a2.6,2.6,0,0,0-.464-1.694,1.456,1.456,0,0,0-1.164-.555,1.5,1.5,0,0,0-1.191.566,2.752,2.752,0,0,0-.479,1.8,2.708,2.708,0,0,0,.461,1.764,1.439,1.439,0,0,0,1.139.542,1.517,1.517,0,0,0,1.188-.608A2.759,2.759,0,0,0,57.919,109.582Z" transform="translate(-11.647 -27.828)"/><path class="cls-1" d="M66.631,113.382v-1.111a2.857,2.857,0,0,1-1.065.936,2.983,2.983,0,0,1-1.394.342,2.728,2.728,0,0,1-1.341-.328,1.939,1.939,0,0,1-.859-.922,4.116,4.116,0,0,1-.266-1.642v-4.7h1.963v3.41a9.448,9.448,0,0,0,.108,1.918,1.046,1.046,0,0,0,.395.559,1.212,1.212,0,0,0,.727.206,1.543,1.543,0,0,0,.9-.276,1.4,1.4,0,0,0,.545-.685,7.926,7.926,0,0,0,.147-2v-3.13h1.963v7.42Z" transform="translate(-11.647 -27.828)"/><path class="cls-1" d="M74.784,111.021l1.956.328a3.21,3.21,0,0,1-1.191,1.639,3.5,3.5,0,0,1-2.037.562,3.321,3.321,0,0,1-2.865-1.264,4.25,4.25,0,0,1-.733-2.557,4.1,4.1,0,0,1,.964-2.889,3.174,3.174,0,0,1,2.438-1.044,3.294,3.294,0,0,1,2.613,1.093,4.841,4.841,0,0,1,.915,3.35H71.927A1.987,1.987,0,0,0,72.4,111.6a1.486,1.486,0,0,0,1.132.486,1.2,1.2,0,0,0,.775-.251A1.555,1.555,0,0,0,74.784,111.021Zm.112-1.984a1.892,1.892,0,0,0-.44-1.3,1.416,1.416,0,0,0-2.082.024,1.811,1.811,0,0,0-.413,1.271Z" transform="translate(-11.647 -27.828)"/><path class="cls-1" d="M85.823,105.962v1.565H84.481v2.991a7.457,7.457,0,0,0,.039,1.058.43.43,0,0,0,.175.248.552.552,0,0,0,.332.1,2.537,2.537,0,0,0,.79-.189l.168,1.523a3.9,3.9,0,0,1-1.551.293,2.462,2.462,0,0,1-.957-.178,1.4,1.4,0,0,1-.625-.461,1.817,1.817,0,0,1-.276-.765,9.494,9.494,0,0,1-.063-1.383v-3.235h-.9v-1.565h.9v-1.474l1.97-1.146v2.62Z" transform="translate(-11.647 -27.828)"/><path class="cls-1" d="M86.731,109.568a4.01,4.01,0,0,1,.482-1.894,3.306,3.306,0,0,1,1.366-1.4,4.053,4.053,0,0,1,1.974-.482,3.7,3.7,0,0,1,2.76,1.093,3.778,3.778,0,0,1,1.076,2.763,3.822,3.822,0,0,1-1.086,2.792,3.671,3.671,0,0,1-2.735,1.107,4.306,4.306,0,0,1-1.946-.461,3.162,3.162,0,0,1-1.408-1.352A4.5,4.5,0,0,1,86.731,109.568Zm2.012.1a2.459,2.459,0,0,0,.524,1.691,1.713,1.713,0,0,0,2.582,0,2.491,2.491,0,0,0,.521-1.7,2.445,2.445,0,0,0-.521-1.677,1.713,1.713,0,0,0-2.582,0A2.458,2.458,0,0,0,88.743,109.672Z" transform="translate(-11.647 -27.828)"/><path class="cls-1" d="M104.679,109.617v-1.726h4.458v4.08a5.617,5.617,0,0,1-1.883,1.107,6.858,6.858,0,0,1-2.5.479,5.6,5.6,0,0,1-2.8-.674,4.285,4.285,0,0,1-1.8-1.928,6.228,6.228,0,0,1-.6-2.729,5.894,5.894,0,0,1,.671-2.843,4.517,4.517,0,0,1,1.963-1.907,5.293,5.293,0,0,1,2.452-.51,4.892,4.892,0,0,1,2.979.8,3.613,3.613,0,0,1,1.38,2.211l-2.054.384a2.174,2.174,0,0,0-.814-1.191,2.461,2.461,0,0,0-1.492-.437,2.8,2.8,0,0,0-2.155.859,3.618,3.618,0,0,0-.8,2.55,4.008,4.008,0,0,0,.811,2.735,2.706,2.706,0,0,0,2.124.912,3.553,3.553,0,0,0,1.3-.255,4.463,4.463,0,0,0,1.122-.618v-1.3Z" transform="translate(-11.647 -27.828)"/><path class="cls-1" d="M111.03,104.957V103.14h1.963v1.816Zm0,8.426v-7.42h1.963v7.42Z" transform="translate(-11.647 -27.828)"/><path class="cls-1" d="M114.146,105.962h1.09V105.4a3.715,3.715,0,0,1,.2-1.4,1.573,1.573,0,0,1,.734-.751,2.811,2.811,0,0,1,1.352-.29,5.472,5.472,0,0,1,1.642.251l-.266,1.37a3.867,3.867,0,0,0-.9-.112.805.805,0,0,0-.611.2,1.157,1.157,0,0,0-.185.765v.524h1.467v1.544H117.2v5.875h-1.963v-5.875h-1.09Z" transform="translate(-11.647 -27.828)"/><path class="cls-1" d="M123.173,105.962v1.565h-1.342v2.991a7.457,7.457,0,0,0,.039,1.058.43.43,0,0,0,.175.248.552.552,0,0,0,.332.1,2.537,2.537,0,0,0,.79-.189l.168,1.523a3.9,3.9,0,0,1-1.551.293,2.462,2.462,0,0,1-.957-.178,1.4,1.4,0,0,1-.625-.461,1.817,1.817,0,0,1-.276-.765,9.494,9.494,0,0,1-.063-1.383v-3.235h-.9v-1.565h.9v-1.474l1.97-1.146v2.62Z" transform="translate(-11.647 -27.828)"/><path class="cls-1" d="M123.843,111.266l1.97-.3a1.446,1.446,0,0,0,.51.87,1.725,1.725,0,0,0,1.076.3,1.94,1.94,0,0,0,1.146-.28.623.623,0,0,0,.259-.524.517.517,0,0,0-.14-.37,1.565,1.565,0,0,0-.657-.258,10.583,10.583,0,0,1-3.011-.958,1.911,1.911,0,0,1-.88-1.669,2.059,2.059,0,0,1,.761-1.621,3.556,3.556,0,0,1,2.362-.657,4.122,4.122,0,0,1,2.264.5,2.536,2.536,0,0,1,1.02,1.467l-1.852.342a1.145,1.145,0,0,0-.451-.664,1.651,1.651,0,0,0-.947-.23,2.131,2.131,0,0,0-1.111.217.466.466,0,0,0-.224.4.434.434,0,0,0,.2.356,7.366,7.366,0,0,0,1.834.552,5.458,5.458,0,0,1,2.19.873,1.816,1.816,0,0,1,.615,1.46,2.241,2.241,0,0,1-.853,1.753,3.771,3.771,0,0,1-2.522.733,4.136,4.136,0,0,1-2.4-.615A2.831,2.831,0,0,1,123.843,111.266Z" transform="translate(-11.647 -27.828)"/><line class="cls-2" x1="126.699" y1="76.208" x2="177.146" y2="25.762"/><line class="cls-3" x1="126.699" y1="76.208" x2="213.834" y2="76.208"/><line class="cls-4" x1="126.699" y1="76.208" x2="186.318" y2="135.827"/><line class="cls-5" x1="126.699" y1="76.208" x2="126.699" y2="163.343"/><polygon class="cls-6" points="134.201 163.343 126.699 176.337 119.197 163.343 134.201 163.343"/><polygon class="cls-7" points="191.317 129.755 195.062 144.284 180.607 140.263 191.317 129.755"/><polygon class="cls-8" points="170.103 23.585 184.164 18.35 181.667 33.145 170.103 23.585"/><polygon class="cls-9" points="213.834 68.706 226.828 76.208 213.834 83.71 213.834 68.706"/><path class="cls-6" d="M105.593,217.047V206.8h7.594v1.732h-5.526v2.271H112.8v1.726h-5.142v2.788h5.722v1.726Z" transform="translate(-11.647 -27.828)"/><path class="cls-6" d="M114.179,217.047l2.676-3.822-2.564-3.6h2.4l1.313,2.04,1.384-2.04h2.305l-2.515,3.515,2.746,3.905H119.51l-1.509-2.3-1.523,2.3Z" transform="translate(-11.647 -27.828)"/><path class="cls-6" d="M129.55,211.821l-1.935.35a1.407,1.407,0,0,0-.444-.874,1.339,1.339,0,0,0-.9-.293,1.466,1.466,0,0,0-1.17.507,2.592,2.592,0,0,0-.437,1.694,3,3,0,0,0,.444,1.866,1.457,1.457,0,0,0,1.191.545,1.323,1.323,0,0,0,.915-.318,1.913,1.913,0,0,0,.5-1.094l1.928.329a3.42,3.42,0,0,1-1.153,2,3.565,3.565,0,0,1-2.284.678,3.4,3.4,0,0,1-2.6-1.027,4.681,4.681,0,0,1,0-5.7,3.45,3.45,0,0,1,2.627-1.023,3.581,3.581,0,0,1,2.155.583A3.232,3.232,0,0,1,129.55,211.821Z" transform="translate(-11.647 -27.828)"/><path class="cls-6" d="M131.037,217.047V206.8H133v10.242Z" transform="translate(-11.647 -27.828)"/><path class="cls-6" d="M139.9,217.047v-1.111a2.857,2.857,0,0,1-1.065.936,2.983,2.983,0,0,1-1.394.342,2.728,2.728,0,0,1-1.341-.328,1.939,1.939,0,0,1-.859-.922,4.116,4.116,0,0,1-.266-1.642v-4.7h1.963v3.41a9.448,9.448,0,0,0,.108,1.918,1.046,1.046,0,0,0,.395.559,1.212,1.212,0,0,0,.727.206,1.543,1.543,0,0,0,.9-.276,1.4,1.4,0,0,0,.545-.685,7.926,7.926,0,0,0,.147-2v-3.13h1.963v7.42Z" transform="translate(-11.647 -27.828)"/><path class="cls-6" d="M143.062,214.93l1.97-.3a1.446,1.446,0,0,0,.51.87,1.725,1.725,0,0,0,1.076.3,1.94,1.94,0,0,0,1.146-.28.623.623,0,0,0,.259-.524.517.517,0,0,0-.14-.37,1.565,1.565,0,0,0-.657-.258,10.583,10.583,0,0,1-3.011-.958,1.911,1.911,0,0,1-.88-1.669,2.059,2.059,0,0,1,.761-1.621,3.556,3.556,0,0,1,2.362-.657,4.122,4.122,0,0,1,2.264.5,2.536,2.536,0,0,1,1.02,1.467l-1.852.342a1.145,1.145,0,0,0-.451-.664,1.651,1.651,0,0,0-.947-.23,2.131,2.131,0,0,0-1.111.217.466.466,0,0,0-.224.4.434.434,0,0,0,.2.356,7.366,7.366,0,0,0,1.834.552,5.458,5.458,0,0,1,2.19.873,1.816,1.816,0,0,1,.615,1.46,2.241,2.241,0,0,1-.853,1.753,3.771,3.771,0,0,1-2.522.733,4.136,4.136,0,0,1-2.4-.615A2.831,2.831,0,0,1,143.062,214.93Z" transform="translate(-11.647 -27.828)"/><path class="cls-6" d="M151.711,208.621V206.8h1.963v1.816Zm0,8.426v-7.42h1.963v7.42Z" transform="translate(-11.647 -27.828)"/><path class="cls-6" d="M155.232,213.232a4.01,4.01,0,0,1,.482-1.894,3.306,3.306,0,0,1,1.366-1.4,4.053,4.053,0,0,1,1.974-.482,3.7,3.7,0,0,1,2.76,1.093,3.778,3.778,0,0,1,1.076,2.763,3.822,3.822,0,0,1-1.086,2.792,3.671,3.671,0,0,1-2.735,1.107,4.306,4.306,0,0,1-1.946-.461,3.162,3.162,0,0,1-1.408-1.352A4.5,4.5,0,0,1,155.232,213.232Zm2.012.1a2.459,2.459,0,0,0,.524,1.691,1.713,1.713,0,0,0,2.582,0,2.491,2.491,0,0,0,.521-1.7,2.445,2.445,0,0,0-.521-1.677,1.713,1.713,0,0,0-2.582,0A2.458,2.458,0,0,0,157.244,213.337Z" transform="translate(-11.647 -27.828)"/><path class="cls-6" d="M171.175,217.047h-1.963V213.26a5.844,5.844,0,0,0-.126-1.555,1.093,1.093,0,0,0-.409-.548,1.168,1.168,0,0,0-.681-.2,1.572,1.572,0,0,0-.915.28,1.406,1.406,0,0,0-.556.74,6.405,6.405,0,0,0-.15,1.705v3.36h-1.963v-7.42h1.823v1.09a3.041,3.041,0,0,1,3.633-1.024,2,2,0,0,1,.814.6,2.172,2.172,0,0,1,.384.824,6.164,6.164,0,0,1,.108,1.32Z" transform="translate(-11.647 -27.828)"/><path class="cls-6" d="M103.682,226.8h1.09v-.559a3.715,3.715,0,0,1,.2-1.4,1.573,1.573,0,0,1,.734-.751,2.811,2.811,0,0,1,1.352-.29,5.472,5.472,0,0,1,1.642.251l-.266,1.37a3.867,3.867,0,0,0-.9-.112.805.805,0,0,0-.611.2,1.157,1.157,0,0,0-.185.765v.524H108.2v1.544h-1.467v5.875h-1.963v-5.875h-1.09Z" transform="translate(-11.647 -27.828)"/><path class="cls-6" d="M108.852,230.4a4.01,4.01,0,0,1,.482-1.894,3.306,3.306,0,0,1,1.366-1.4,4.053,4.053,0,0,1,1.974-.482,3.7,3.7,0,0,1,2.76,1.093,3.778,3.778,0,0,1,1.076,2.763,3.822,3.822,0,0,1-1.086,2.792,3.671,3.671,0,0,1-2.735,1.107,4.306,4.306,0,0,1-1.946-.461,3.162,3.162,0,0,1-1.408-1.352A4.5,4.5,0,0,1,108.852,230.4Zm2.012.1a2.459,2.459,0,0,0,.524,1.691,1.713,1.713,0,0,0,2.582,0,2.491,2.491,0,0,0,.521-1.7,2.445,2.445,0,0,0-.521-1.677,1.713,1.713,0,0,0-2.582,0A2.458,2.458,0,0,0,110.864,230.507Z" transform="translate(-11.647 -27.828)"/><path class="cls-6" d="M119.926,234.217h-1.963V226.8h1.823v1.055a3.176,3.176,0,0,1,.842-.985,1.551,1.551,0,0,1,.849-.237,2.494,2.494,0,0,1,1.292.37l-.608,1.712a1.722,1.722,0,0,0-.922-.321,1.091,1.091,0,0,0-.7.227,1.551,1.551,0,0,0-.45.821,11.627,11.627,0,0,0-.165,2.487Z" transform="translate(-11.647 -27.828)"/><path class="cls-6" d="M129.91,234.217v-8.51h-3.039v-1.732h8.139v1.732h-3.032v8.51Z" transform="translate(-11.647 -27.828)"/><path class="cls-6" d="M140.152,234.217v-1.111a2.857,2.857,0,0,1-1.065.936,2.983,2.983,0,0,1-1.394.342,2.728,2.728,0,0,1-1.341-.328,1.939,1.939,0,0,1-.859-.922,4.116,4.116,0,0,1-.266-1.642v-4.7h1.963v3.41a9.448,9.448,0,0,0,.108,1.918,1.046,1.046,0,0,0,.395.559,1.212,1.212,0,0,0,.727.206,1.543,1.543,0,0,0,.9-.276,1.4,1.4,0,0,0,.545-.685,7.926,7.926,0,0,0,.147-2V226.8h1.963v7.42Z" transform="translate(-11.647 -27.828)"/><path class="cls-6" d="M144.009,225.792v-1.816h1.963v1.816Zm0,8.426V226.8h1.963v7.42Z" transform="translate(-11.647 -27.828)"/><path class="cls-6" d="M151.387,226.8v1.565h-1.342v2.991a7.457,7.457,0,0,0,.039,1.058.43.43,0,0,0,.175.248.552.552,0,0,0,.332.1,2.537,2.537,0,0,0,.79-.189l.168,1.523a3.9,3.9,0,0,1-1.551.293,2.462,2.462,0,0,1-.957-.178,1.4,1.4,0,0,1-.625-.461,1.817,1.817,0,0,1-.276-.765,9.494,9.494,0,0,1-.063-1.383v-3.235h-.9V226.8h.9v-1.474l1.97-1.146v2.62Z" transform="translate(-11.647 -27.828)"/><path class="cls-6" d="M152.749,225.792v-1.816h1.963v1.816Zm0,8.426V226.8h1.963v7.42Z" transform="translate(-11.647 -27.828)"/><path class="cls-6" d="M156.27,230.4a4.01,4.01,0,0,1,.482-1.894,3.306,3.306,0,0,1,1.366-1.4,4.053,4.053,0,0,1,1.974-.482,3.7,3.7,0,0,1,2.76,1.093,3.778,3.778,0,0,1,1.076,2.763,3.822,3.822,0,0,1-1.086,2.792,3.671,3.671,0,0,1-2.735,1.107,4.306,4.306,0,0,1-1.946-.461,3.162,3.162,0,0,1-1.408-1.352A4.5,4.5,0,0,1,156.27,230.4Zm2.012.1a2.459,2.459,0,0,0,.524,1.691,1.713,1.713,0,0,0,2.582,0,2.491,2.491,0,0,0,.521-1.7,2.445,2.445,0,0,0-.521-1.677,1.713,1.713,0,0,0-2.582,0A2.458,2.458,0,0,0,158.282,230.507Z" transform="translate(-11.647 -27.828)"/><path class="cls-6" d="M172.214,234.217h-1.963v-3.787a5.844,5.844,0,0,0-.126-1.555,1.093,1.093,0,0,0-.409-.548,1.168,1.168,0,0,0-.681-.2,1.572,1.572,0,0,0-.915.28,1.406,1.406,0,0,0-.556.74,6.405,6.405,0,0,0-.15,1.705v3.36h-1.963V226.8h1.823v1.09a3.041,3.041,0,0,1,3.633-1.024,2,2,0,0,1,.814.6,2.172,2.172,0,0,1,.384.824,6.164,6.164,0,0,1,.108,1.32Z" transform="translate(-11.647 -27.828)"/><path class="cls-8" d="M167.321,38.245,164.875,28h2.117l1.544,7.035L170.408,28h2.459l1.8,7.154L176.236,28h2.082L175.83,38.245h-2.194l-2.04-7.657-2.033,7.657Z" transform="translate(-11.647 -27.828)"/><path class="cls-8" d="M181.315,28v3.766a2.942,2.942,0,0,1,3.493-.859,2,2,0,0,1,.821.643,2.337,2.337,0,0,1,.377.867,7.763,7.763,0,0,1,.1,1.474v4.353h-1.963V34.325a5.815,5.815,0,0,0-.112-1.481.972.972,0,0,0-.4-.5,1.272,1.272,0,0,0-.709-.185,1.629,1.629,0,0,0-.874.238,1.37,1.37,0,0,0-.562.716,4.27,4.27,0,0,0-.178,1.415v3.717h-1.963V28Z" transform="translate(-11.647 -27.828)"/><path class="cls-8" d="M189.566,33.088l-1.782-.321a2.776,2.776,0,0,1,1.034-1.593,3.784,3.784,0,0,1,2.18-.517,4.694,4.694,0,0,1,1.957.311,1.951,1.951,0,0,1,.9.79,4.054,4.054,0,0,1,.262,1.757l-.021,2.292a7.936,7.936,0,0,0,.095,1.443,4.187,4.187,0,0,0,.353,1H192.6q-.077-.2-.188-.58c-.033-.116-.056-.193-.07-.23a3.543,3.543,0,0,1-1.076.734,3.087,3.087,0,0,1-1.223.244,2.527,2.527,0,0,1-1.806-.622,2.066,2.066,0,0,1-.66-1.572,2.112,2.112,0,0,1,.3-1.122,1.962,1.962,0,0,1,.842-.754,6.568,6.568,0,0,1,1.562-.458,10.659,10.659,0,0,0,1.907-.482v-.2a1.018,1.018,0,0,0-.279-.807,1.676,1.676,0,0,0-1.055-.241,1.407,1.407,0,0,0-.817.206A1.434,1.434,0,0,0,189.566,33.088Zm2.627,1.593a12.316,12.316,0,0,1-1.195.3,3.594,3.594,0,0,0-1.069.342.818.818,0,0,0-.384.692.962.962,0,0,0,.308.712,1.073,1.073,0,0,0,.782.3,1.7,1.7,0,0,0,1.013-.349,1.23,1.23,0,0,0,.468-.65,3.874,3.874,0,0,0,.077-.957Z" transform="translate(-11.647 -27.828)"/><path class="cls-8" d="M199.459,30.825V32.39h-1.342V35.38a7.457,7.457,0,0,0,.039,1.058.43.43,0,0,0,.175.248.552.552,0,0,0,.332.1,2.537,2.537,0,0,0,.79-.189l.168,1.523a3.9,3.9,0,0,1-1.551.293,2.462,2.462,0,0,1-.957-.178,1.4,1.4,0,0,1-.625-.461,1.817,1.817,0,0,1-.276-.765,9.494,9.494,0,0,1-.063-1.383V32.39h-.9V30.825h.9V29.351l1.97-1.146v2.62Z" transform="translate(-11.647 -27.828)"/><path class="cls-8" d="M211.364,34.479l2.005.636a4.5,4.5,0,0,1-1.534,2.491,4.825,4.825,0,0,1-6.075-.58,5.332,5.332,0,0,1-1.313-3.811,5.6,5.6,0,0,1,1.32-3.972,4.527,4.527,0,0,1,3.473-1.415,4.259,4.259,0,0,1,3.053,1.111,4.043,4.043,0,0,1,1.048,1.886l-2.047.489a2.115,2.115,0,0,0-2.159-1.719,2.331,2.331,0,0,0-1.848.817,4.008,4.008,0,0,0-.709,2.648,4.3,4.3,0,0,0,.7,2.767,2.268,2.268,0,0,0,1.816.825,2.073,2.073,0,0,0,1.418-.524A3.047,3.047,0,0,0,211.364,34.479Z" transform="translate(-11.647 -27.828)"/><path class="cls-8" d="M214.675,34.43a4.01,4.01,0,0,1,.482-1.894,3.306,3.306,0,0,1,1.366-1.4,4.053,4.053,0,0,1,1.974-.482,3.7,3.7,0,0,1,2.76,1.093,3.778,3.778,0,0,1,1.076,2.763,3.822,3.822,0,0,1-1.086,2.792,3.671,3.671,0,0,1-2.735,1.107,4.306,4.306,0,0,1-1.946-.461,3.162,3.162,0,0,1-1.408-1.352A4.5,4.5,0,0,1,214.675,34.43Zm2.012.1a2.459,2.459,0,0,0,.524,1.691,1.713,1.713,0,0,0,2.582,0,2.491,2.491,0,0,0,.521-1.7,2.445,2.445,0,0,0-.521-1.677,1.713,1.713,0,0,0-2.582,0A2.458,2.458,0,0,0,216.687,34.535Z" transform="translate(-11.647 -27.828)"/><path class="cls-8" d="M230.618,38.245h-1.963V34.458a5.844,5.844,0,0,0-.126-1.555,1.093,1.093,0,0,0-.409-.548,1.168,1.168,0,0,0-.681-.2,1.572,1.572,0,0,0-.915.28,1.406,1.406,0,0,0-.556.74,6.405,6.405,0,0,0-.15,1.705v3.36h-1.963v-7.42h1.823v1.09a3.041,3.041,0,0,1,3.633-1.024,2,2,0,0,1,.814.6,2.172,2.172,0,0,1,.384.824,6.164,6.164,0,0,1,.108,1.32Z" transform="translate(-11.647 -27.828)"/><path class="cls-8" d="M231.918,36.128l1.97-.3a1.446,1.446,0,0,0,.51.87,1.725,1.725,0,0,0,1.076.3,1.939,1.939,0,0,0,1.146-.28.622.622,0,0,0,.259-.524.517.517,0,0,0-.14-.37,1.565,1.565,0,0,0-.657-.258,10.59,10.59,0,0,1-3.011-.958,1.911,1.911,0,0,1-.88-1.669,2.06,2.06,0,0,1,.761-1.621,3.555,3.555,0,0,1,2.361-.657,4.119,4.119,0,0,1,2.264.5,2.535,2.535,0,0,1,1.021,1.467l-1.852.342a1.146,1.146,0,0,0-.45-.664,1.653,1.653,0,0,0-.947-.23,2.13,2.13,0,0,0-1.11.217.464.464,0,0,0-.224.4.432.432,0,0,0,.2.356,7.366,7.366,0,0,0,1.834.552,5.458,5.458,0,0,1,2.19.873,1.817,1.817,0,0,1,.614,1.46A2.243,2.243,0,0,1,238,37.679a3.773,3.773,0,0,1-2.522.733,4.14,4.14,0,0,1-2.4-.615A2.83,2.83,0,0,1,231.918,36.128Z" transform="translate(-11.647 -27.828)"/><path class="cls-8" d="M243.97,30.825V32.39h-1.342V35.38a7.258,7.258,0,0,0,.039,1.058.428.428,0,0,0,.174.248.554.554,0,0,0,.332.1,2.539,2.539,0,0,0,.79-.189l.167,1.523a3.9,3.9,0,0,1-1.551.293,2.463,2.463,0,0,1-.957-.178,1.4,1.4,0,0,1-.625-.461,1.811,1.811,0,0,1-.276-.765,9.518,9.518,0,0,1-.062-1.383V32.39h-.9V30.825h.9V29.351l1.97-1.146v2.62Z" transform="translate(-11.647 -27.828)"/><path class="cls-8" d="M245.333,29.819V28H247.3v1.816Zm0,8.426v-7.42H247.3v7.42Z" transform="translate(-11.647 -27.828)"/><path class="cls-8" d="M252.711,30.825V32.39h-1.342V35.38a7.258,7.258,0,0,0,.039,1.058.428.428,0,0,0,.174.248.554.554,0,0,0,.332.1,2.539,2.539,0,0,0,.79-.189l.167,1.523a3.9,3.9,0,0,1-1.551.293,2.463,2.463,0,0,1-.957-.178,1.4,1.4,0,0,1-.625-.461,1.811,1.811,0,0,1-.276-.765,9.518,9.518,0,0,1-.062-1.383V32.39h-.9V30.825h.9V29.351l1.97-1.146v2.62Z" transform="translate(-11.647 -27.828)"/><path class="cls-8" d="M258.956,38.245V37.134a2.85,2.85,0,0,1-1.065.936,2.98,2.98,0,0,1-1.394.342,2.724,2.724,0,0,1-1.341-.328,1.934,1.934,0,0,1-.859-.922,4.1,4.1,0,0,1-.266-1.642v-4.7h1.963v3.41a9.448,9.448,0,0,0,.108,1.918,1.048,1.048,0,0,0,.395.559,1.213,1.213,0,0,0,.727.206,1.543,1.543,0,0,0,.9-.276,1.4,1.4,0,0,0,.545-.685,7.96,7.96,0,0,0,.146-2v-3.13h1.964v7.42Z" transform="translate(-11.647 -27.828)"/><path class="cls-8" d="M266.216,30.825V32.39h-1.342V35.38a7.258,7.258,0,0,0,.039,1.058.428.428,0,0,0,.174.248.554.554,0,0,0,.332.1,2.539,2.539,0,0,0,.79-.189l.167,1.523a3.9,3.9,0,0,1-1.551.293,2.463,2.463,0,0,1-.957-.178,1.4,1.4,0,0,1-.625-.461,1.811,1.811,0,0,1-.276-.765,9.518,9.518,0,0,1-.062-1.383V32.39H262V30.825h.9V29.351l1.97-1.146v2.62Z" transform="translate(-11.647 -27.828)"/><path class="cls-8" d="M271.875,35.883l1.956.328a3.216,3.216,0,0,1-1.191,1.639,3.5,3.5,0,0,1-2.037.562,3.319,3.319,0,0,1-2.864-1.264A4.247,4.247,0,0,1,267,34.591a4.1,4.1,0,0,1,.964-2.889,3.177,3.177,0,0,1,2.438-1.044,3.294,3.294,0,0,1,2.613,1.093,4.839,4.839,0,0,1,.915,3.35h-4.919a1.989,1.989,0,0,0,.476,1.359,1.486,1.486,0,0,0,1.132.486,1.2,1.2,0,0,0,.775-.251A1.555,1.555,0,0,0,271.875,35.883Zm.111-1.984a1.889,1.889,0,0,0-.44-1.3,1.349,1.349,0,0,0-1.02-.444,1.364,1.364,0,0,0-1.062.468,1.811,1.811,0,0,0-.412,1.271Z" transform="translate(-11.647 -27.828)"/><path class="cls-8" d="M274.843,36.128l1.971-.3a1.446,1.446,0,0,0,.51.87,1.725,1.725,0,0,0,1.076.3,1.939,1.939,0,0,0,1.146-.28.622.622,0,0,0,.259-.524.517.517,0,0,0-.14-.37,1.565,1.565,0,0,0-.657-.258A10.59,10.59,0,0,1,276,34.6a1.911,1.911,0,0,1-.881-1.669,2.058,2.058,0,0,1,.762-1.621,3.555,3.555,0,0,1,2.361-.657,4.119,4.119,0,0,1,2.264.5,2.535,2.535,0,0,1,1.021,1.467l-1.852.342a1.146,1.146,0,0,0-.45-.664,1.653,1.653,0,0,0-.947-.23,2.13,2.13,0,0,0-1.11.217.464.464,0,0,0-.224.4.432.432,0,0,0,.2.356,7.366,7.366,0,0,0,1.834.552,5.458,5.458,0,0,1,2.19.873,1.817,1.817,0,0,1,.614,1.46,2.243,2.243,0,0,1-.852,1.753,3.773,3.773,0,0,1-2.522.733A4.14,4.14,0,0,1,276,37.8,2.833,2.833,0,0,1,274.843,36.128Z" transform="translate(-11.647 -27.828)"/><path class="cls-8" d="M207.857,50.259l-1.782-.321a2.776,2.776,0,0,1,1.034-1.593,3.784,3.784,0,0,1,2.18-.517,4.694,4.694,0,0,1,1.957.311,1.951,1.951,0,0,1,.9.79,4.054,4.054,0,0,1,.262,1.757l-.021,2.292a7.936,7.936,0,0,0,.095,1.443,4.187,4.187,0,0,0,.353,1H210.9q-.077-.2-.188-.58c-.033-.116-.056-.193-.07-.23a3.543,3.543,0,0,1-1.076.734,3.087,3.087,0,0,1-1.223.244,2.527,2.527,0,0,1-1.806-.622,2.066,2.066,0,0,1-.66-1.572,2.112,2.112,0,0,1,.3-1.122,1.962,1.962,0,0,1,.842-.754,6.568,6.568,0,0,1,1.562-.458,10.659,10.659,0,0,0,1.907-.482v-.2a1.018,1.018,0,0,0-.279-.807,1.676,1.676,0,0,0-1.055-.241,1.407,1.407,0,0,0-.817.206A1.434,1.434,0,0,0,207.857,50.259Zm2.627,1.593a12.316,12.316,0,0,1-1.195.3,3.594,3.594,0,0,0-1.069.342.818.818,0,0,0-.384.692.962.962,0,0,0,.308.712,1.073,1.073,0,0,0,.782.3,1.7,1.7,0,0,0,1.013-.349,1.23,1.23,0,0,0,.468-.65,3.874,3.874,0,0,0,.077-.957Z" transform="translate(-11.647 -27.828)"/><path class="cls-8" d="M223.1,51.649V49.924h4.458V54a5.617,5.617,0,0,1-1.883,1.107,6.858,6.858,0,0,1-2.5.479,5.6,5.6,0,0,1-2.8-.674,4.285,4.285,0,0,1-1.8-1.928,6.228,6.228,0,0,1-.6-2.729,5.894,5.894,0,0,1,.671-2.843,4.517,4.517,0,0,1,1.963-1.907,5.293,5.293,0,0,1,2.452-.51,4.892,4.892,0,0,1,2.979.8,3.613,3.613,0,0,1,1.38,2.211l-2.054.384a2.174,2.174,0,0,0-.814-1.191,2.461,2.461,0,0,0-1.492-.437,2.8,2.8,0,0,0-2.155.859,3.618,3.618,0,0,0-.8,2.55,4.008,4.008,0,0,0,.811,2.735,2.706,2.706,0,0,0,2.124.912,3.553,3.553,0,0,0,1.3-.255,4.462,4.462,0,0,0,1.122-.618v-1.3Z" transform="translate(-11.647 -27.828)"/><path class="cls-8" d="M229.452,46.989V45.173h1.963v1.816Zm0,8.426V48h1.963v7.42Z" transform="translate(-11.647 -27.828)"/><path class="cls-8" d="M232.568,48h1.09v-.559a3.713,3.713,0,0,1,.2-1.4,1.572,1.572,0,0,1,.733-.751,2.813,2.813,0,0,1,1.352-.29,5.464,5.464,0,0,1,1.642.251l-.265,1.37a3.876,3.876,0,0,0-.9-.112.8.8,0,0,0-.611.2,1.151,1.151,0,0,0-.186.765V48h1.467V49.54h-1.467v5.875h-1.963V49.54h-1.09Z" transform="translate(-11.647 -27.828)"/><path class="cls-8" d="M241.594,48V49.56h-1.342v2.991a7.258,7.258,0,0,0,.039,1.058.428.428,0,0,0,.174.248.554.554,0,0,0,.332.1,2.539,2.539,0,0,0,.79-.189l.167,1.523a3.9,3.9,0,0,1-1.551.293,2.463,2.463,0,0,1-.957-.178,1.4,1.4,0,0,1-.625-.461,1.811,1.811,0,0,1-.276-.765,9.518,9.518,0,0,1-.062-1.383V49.56h-.9V48h.9V46.521l1.97-1.146V48Z" transform="translate(-11.647 -27.828)"/><path class="cls-7" d="M204.369,186.7V176.46h3.095l1.858,6.986,1.838-6.986h3.1V186.7h-1.921V178.64l-2.033,8.063h-1.991l-2.026-8.062V186.7Z" transform="translate(-11.647 -27.828)"/><path class="cls-7" d="M220.6,184.341l1.956.328a3.21,3.21,0,0,1-1.191,1.639,3.5,3.5,0,0,1-2.037.562,3.321,3.321,0,0,1-2.865-1.264,4.25,4.25,0,0,1-.733-2.557,4.1,4.1,0,0,1,.964-2.889,3.174,3.174,0,0,1,2.438-1.044,3.294,3.294,0,0,1,2.613,1.093,4.841,4.841,0,0,1,.915,3.35h-4.918a1.987,1.987,0,0,0,.475,1.359,1.486,1.486,0,0,0,1.132.486,1.2,1.2,0,0,0,.775-.251A1.555,1.555,0,0,0,220.6,184.341Zm.112-1.984a1.892,1.892,0,0,0-.44-1.3,1.416,1.416,0,0,0-2.082.024,1.811,1.811,0,0,0-.413,1.271Z" transform="translate(-11.647 -27.828)"/><path class="cls-7" d="M231.065,186.7h-1.824v-1.09a2.949,2.949,0,0,1-1.072.947,2.754,2.754,0,0,1-1.247.311,2.826,2.826,0,0,1-2.19-1.03,4.192,4.192,0,0,1-.912-2.875,4.145,4.145,0,0,1,.887-2.868,2.892,2.892,0,0,1,2.243-.981,2.778,2.778,0,0,1,2.152,1.034V176.46h1.963Zm-5.24-3.871a3.393,3.393,0,0,0,.329,1.719,1.484,1.484,0,0,0,1.328.769,1.444,1.444,0,0,0,1.152-.577,2.658,2.658,0,0,0,.475-1.722,2.911,2.911,0,0,0-.461-1.841,1.459,1.459,0,0,0-1.181-.562,1.475,1.475,0,0,0-1.17.556A2.509,2.509,0,0,0,225.824,182.832Z" transform="translate(-11.647 -27.828)"/><path class="cls-7" d="M233,178.277V176.46h1.963v1.816Zm0,8.426v-7.42h1.963v7.42Z" transform="translate(-11.647 -27.828)"/><path class="cls-7" d="M243.445,181.477l-1.936.35a1.4,1.4,0,0,0-.444-.874,1.337,1.337,0,0,0-.9-.293,1.465,1.465,0,0,0-1.17.507,2.6,2.6,0,0,0-.437,1.694,3,3,0,0,0,.443,1.866,1.456,1.456,0,0,0,1.191.545,1.323,1.323,0,0,0,.915-.318,1.913,1.913,0,0,0,.5-1.094l1.929.329a3.421,3.421,0,0,1-1.153,2,3.567,3.567,0,0,1-2.284.678,3.4,3.4,0,0,1-2.6-1.027,4.68,4.68,0,0,1,0-5.7,3.448,3.448,0,0,1,2.627-1.023,3.584,3.584,0,0,1,2.155.583A3.234,3.234,0,0,1,243.445,181.477Z" transform="translate(-11.647 -27.828)"/><path class="cls-7" d="M246.4,181.546l-1.781-.321a2.773,2.773,0,0,1,1.034-1.593,3.78,3.78,0,0,1,2.18-.517,4.7,4.7,0,0,1,1.956.311,1.947,1.947,0,0,1,.9.79,4.043,4.043,0,0,1,.263,1.757l-.021,2.292a7.891,7.891,0,0,0,.095,1.443,4.209,4.209,0,0,0,.353,1h-1.942c-.051-.13-.114-.324-.188-.58q-.048-.174-.07-.23a3.533,3.533,0,0,1-1.075.734,3.09,3.09,0,0,1-1.223.244,2.529,2.529,0,0,1-1.807-.622,2.069,2.069,0,0,1-.66-1.572,2.112,2.112,0,0,1,.3-1.122,1.959,1.959,0,0,1,.842-.754,6.582,6.582,0,0,1,1.562-.458,10.636,10.636,0,0,0,1.907-.482v-.2a1.016,1.016,0,0,0-.279-.807,1.675,1.675,0,0,0-1.055-.241,1.4,1.4,0,0,0-.817.206A1.432,1.432,0,0,0,246.4,181.546Zm2.627,1.593a12.26,12.26,0,0,1-1.194.3,3.6,3.6,0,0,0-1.069.342.819.819,0,0,0-.384.692.961.961,0,0,0,.307.712,1.074,1.074,0,0,0,.783.3,1.7,1.7,0,0,0,1.013-.349,1.229,1.229,0,0,0,.468-.65,3.842,3.842,0,0,0,.077-.957Z" transform="translate(-11.647 -27.828)"/><path class="cls-7" d="M252.891,186.7V176.46h1.963V186.7Z" transform="translate(-11.647 -27.828)"/><path class="cls-7" d="M267.41,182.937l2,.636a4.5,4.5,0,0,1-1.533,2.491,4.826,4.826,0,0,1-6.075-.58,5.332,5.332,0,0,1-1.313-3.811,5.6,5.6,0,0,1,1.32-3.972,4.529,4.529,0,0,1,3.473-1.415,4.258,4.258,0,0,1,3.053,1.111,4.038,4.038,0,0,1,1.048,1.886l-2.047.489a2.115,2.115,0,0,0-2.159-1.719,2.33,2.33,0,0,0-1.848.817,4.008,4.008,0,0,0-.709,2.648,4.3,4.3,0,0,0,.7,2.767,2.269,2.269,0,0,0,1.817.825,2.074,2.074,0,0,0,1.418-.524A3.051,3.051,0,0,0,267.41,182.937Z" transform="translate(-11.647 -27.828)"/><path class="cls-7" d="M272.642,181.546l-1.781-.321a2.773,2.773,0,0,1,1.034-1.593,3.78,3.78,0,0,1,2.18-.517,4.7,4.7,0,0,1,1.956.311,1.947,1.947,0,0,1,.9.79,4.043,4.043,0,0,1,.263,1.757l-.021,2.292a7.891,7.891,0,0,0,.095,1.443,4.209,4.209,0,0,0,.353,1h-1.942c-.051-.13-.114-.324-.188-.58q-.048-.174-.07-.23a3.533,3.533,0,0,1-1.075.734,3.09,3.09,0,0,1-1.223.244,2.529,2.529,0,0,1-1.807-.622,2.069,2.069,0,0,1-.66-1.572,2.112,2.112,0,0,1,.3-1.122,1.959,1.959,0,0,1,.842-.754,6.582,6.582,0,0,1,1.562-.458,10.636,10.636,0,0,0,1.907-.482v-.2a1.016,1.016,0,0,0-.279-.807,1.675,1.675,0,0,0-1.055-.241,1.4,1.4,0,0,0-.817.206A1.432,1.432,0,0,0,272.642,181.546Zm2.627,1.593a12.26,12.26,0,0,1-1.194.3,3.6,3.6,0,0,0-1.069.342.819.819,0,0,0-.384.692.961.961,0,0,0,.307.712,1.074,1.074,0,0,0,.783.3,1.7,1.7,0,0,0,1.013-.349,1.229,1.229,0,0,0,.468-.65,3.842,3.842,0,0,0,.077-.957Z" transform="translate(-11.647 -27.828)"/><path class="cls-7" d="M281.012,186.7H279.05v-7.42h1.823v1.055a3.183,3.183,0,0,1,.842-.985,1.549,1.549,0,0,1,.849-.237,2.5,2.5,0,0,1,1.293.37l-.607,1.712a1.724,1.724,0,0,0-.923-.321,1.088,1.088,0,0,0-.7.227,1.548,1.548,0,0,0-.451.821,11.672,11.672,0,0,0-.164,2.487Z" transform="translate(-11.647 -27.828)"/><path class="cls-7" d="M289,184.341l1.956.328a3.216,3.216,0,0,1-1.191,1.639,3.5,3.5,0,0,1-2.037.562,3.319,3.319,0,0,1-2.864-1.264,4.247,4.247,0,0,1-.733-2.557,4.1,4.1,0,0,1,.964-2.889,3.177,3.177,0,0,1,2.438-1.044,3.294,3.294,0,0,1,2.613,1.093,4.839,4.839,0,0,1,.915,3.35H286.14a1.989,1.989,0,0,0,.476,1.359,1.486,1.486,0,0,0,1.132.486,1.2,1.2,0,0,0,.775-.251A1.555,1.555,0,0,0,289,184.341Zm.111-1.984a1.889,1.889,0,0,0-.44-1.3,1.349,1.349,0,0,0-1.02-.444,1.364,1.364,0,0,0-1.062.468,1.811,1.811,0,0,0-.412,1.271Z" transform="translate(-11.647 -27.828)"/><path class="cls-7" d="M214.74,203.873V193.631h7.594v1.732h-5.526v2.271h5.142v1.726h-5.142v2.788h5.722v1.726Z" transform="translate(-11.647 -27.828)"/><path class="cls-7" d="M223.327,203.873,226,200.051l-2.564-3.6h2.4l1.313,2.04,1.384-2.04h2.305l-2.515,3.515,2.746,3.905h-2.411l-1.509-2.3-1.523,2.3Z" transform="translate(-11.647 -27.828)"/><path class="cls-7" d="M238.7,198.647l-1.936.35a1.4,1.4,0,0,0-.443-.874,1.338,1.338,0,0,0-.9-.293,1.467,1.467,0,0,0-1.17.507,2.6,2.6,0,0,0-.436,1.694,3,3,0,0,0,.443,1.866,1.454,1.454,0,0,0,1.191.545,1.321,1.321,0,0,0,.914-.318,1.907,1.907,0,0,0,.5-1.094l1.928.329a3.415,3.415,0,0,1-1.152,2,3.568,3.568,0,0,1-2.285.678,3.4,3.4,0,0,1-2.6-1.027,4.682,4.682,0,0,1,0-5.7,3.449,3.449,0,0,1,2.627-1.023,3.587,3.587,0,0,1,2.156.583A3.228,3.228,0,0,1,238.7,198.647Z" transform="translate(-11.647 -27.828)"/><path class="cls-7" d="M240.185,203.873V193.631h1.963v10.242Z" transform="translate(-11.647 -27.828)"/><path class="cls-7" d="M249.044,203.873v-1.111a2.85,2.85,0,0,1-1.065.936,2.98,2.98,0,0,1-1.394.342,2.724,2.724,0,0,1-1.341-.328,1.934,1.934,0,0,1-.859-.922,4.1,4.1,0,0,1-.266-1.642v-4.7h1.963v3.41a9.448,9.448,0,0,0,.108,1.918,1.048,1.048,0,0,0,.395.559,1.213,1.213,0,0,0,.727.206,1.543,1.543,0,0,0,.9-.276,1.4,1.4,0,0,0,.545-.685,7.96,7.96,0,0,0,.146-2v-3.13h1.964v7.42Z" transform="translate(-11.647 -27.828)"/><path class="cls-7" d="M252.209,201.756l1.971-.3a1.446,1.446,0,0,0,.51.87,1.725,1.725,0,0,0,1.076.3,1.939,1.939,0,0,0,1.146-.28.622.622,0,0,0,.259-.524.517.517,0,0,0-.14-.37,1.565,1.565,0,0,0-.657-.258,10.59,10.59,0,0,1-3.011-.958,1.911,1.911,0,0,1-.881-1.669,2.058,2.058,0,0,1,.762-1.621,3.555,3.555,0,0,1,2.361-.657,4.119,4.119,0,0,1,2.264.5,2.535,2.535,0,0,1,1.021,1.467l-1.852.342a1.146,1.146,0,0,0-.45-.664,1.653,1.653,0,0,0-.947-.23,2.13,2.13,0,0,0-1.11.217.464.464,0,0,0-.224.4.432.432,0,0,0,.2.356,7.366,7.366,0,0,0,1.834.552,5.458,5.458,0,0,1,2.19.873,1.817,1.817,0,0,1,.614,1.46,2.243,2.243,0,0,1-.852,1.753,3.773,3.773,0,0,1-2.522.733,4.14,4.14,0,0,1-2.4-.615A2.833,2.833,0,0,1,252.209,201.756Z" transform="translate(-11.647 -27.828)"/><path class="cls-7" d="M260.859,195.447v-1.816h1.963v1.816Zm0,8.426v-7.42h1.963v7.42Z" transform="translate(-11.647 -27.828)"/><path class="cls-7" d="M264.381,200.059a4.015,4.015,0,0,1,.481-1.894,3.31,3.31,0,0,1,1.366-1.4,4.053,4.053,0,0,1,1.974-.482,3.706,3.706,0,0,1,2.76,1.093,3.78,3.78,0,0,1,1.076,2.763,3.823,3.823,0,0,1-1.087,2.792,3.67,3.67,0,0,1-2.735,1.107,4.305,4.305,0,0,1-1.945-.461,3.163,3.163,0,0,1-1.408-1.352A4.5,4.5,0,0,1,264.381,200.059Zm2.012.1a2.456,2.456,0,0,0,.524,1.691,1.712,1.712,0,0,0,2.581,0,2.493,2.493,0,0,0,.521-1.7,2.447,2.447,0,0,0-.521-1.677,1.712,1.712,0,0,0-2.581,0A2.456,2.456,0,0,0,266.392,200.163Z" transform="translate(-11.647 -27.828)"/><path class="cls-7" d="M280.324,203.873H278.36v-3.787a5.9,5.9,0,0,0-.125-1.555,1.094,1.094,0,0,0-.409-.548,1.169,1.169,0,0,0-.682-.2,1.573,1.573,0,0,0-.915.28,1.406,1.406,0,0,0-.555.74,6.384,6.384,0,0,0-.15,1.705v3.36H273.56v-7.42h1.824v1.09a3.041,3.041,0,0,1,3.633-1.024,1.99,1.99,0,0,1,.813.6,2.158,2.158,0,0,1,.385.824,6.127,6.127,0,0,1,.108,1.32Z" transform="translate(-11.647 -27.828)"/><path class="cls-9" d="M258.174,103.63h-2.25l-.895-2.327h-4.094l-.846,2.327H247.9l3.989-10.242h2.187Zm-3.808-4.052-1.411-3.8-1.384,3.8Z" transform="translate(-11.647 -27.828)"/><path class="cls-9" d="M266.006,103.63h-1.964V99.843a5.9,5.9,0,0,0-.125-1.555,1.094,1.094,0,0,0-.409-.548,1.169,1.169,0,0,0-.682-.2,1.573,1.573,0,0,0-.915.28,1.406,1.406,0,0,0-.555.74,6.384,6.384,0,0,0-.15,1.705v3.36h-1.964V96.21h1.824V97.3a3.041,3.041,0,0,1,3.633-1.024,1.99,1.99,0,0,1,.813.6,2.158,2.158,0,0,1,.385.824,6.127,6.127,0,0,1,.108,1.32Z" transform="translate(-11.647 -27.828)"/><path class="cls-9" d="M274.746,103.63h-1.964V99.843a5.9,5.9,0,0,0-.125-1.555,1.094,1.094,0,0,0-.409-.548,1.169,1.169,0,0,0-.682-.2,1.573,1.573,0,0,0-.915.28,1.406,1.406,0,0,0-.555.74,6.384,6.384,0,0,0-.15,1.705v3.36h-1.964V96.21h1.824V97.3a3.041,3.041,0,0,1,3.633-1.024,1.99,1.99,0,0,1,.813.6,2.158,2.158,0,0,1,.385.824,6.127,6.127,0,0,1,.108,1.32Z" transform="translate(-11.647 -27.828)"/><path class="cls-9" d="M281.62,103.63v-1.111a2.85,2.85,0,0,1-1.065.936,2.98,2.98,0,0,1-1.394.342,2.724,2.724,0,0,1-1.341-.328,1.934,1.934,0,0,1-.859-.922,4.1,4.1,0,0,1-.266-1.642v-4.7h1.963v3.41a9.448,9.448,0,0,0,.108,1.918,1.048,1.048,0,0,0,.395.559,1.213,1.213,0,0,0,.727.206,1.543,1.543,0,0,0,.9-.276,1.4,1.4,0,0,0,.545-.685,7.96,7.96,0,0,0,.146-2V96.21h1.964v7.42Z" transform="translate(-11.647 -27.828)"/><path class="cls-9" d="M286.944,98.474l-1.781-.321A2.773,2.773,0,0,1,286.2,96.56a3.78,3.78,0,0,1,2.18-.517,4.7,4.7,0,0,1,1.956.311,1.947,1.947,0,0,1,.9.79A4.043,4.043,0,0,1,291.5,98.9l-.021,2.292a7.891,7.891,0,0,0,.095,1.443,4.209,4.209,0,0,0,.353,1h-1.942c-.051-.13-.114-.324-.188-.58q-.048-.174-.07-.23a3.533,3.533,0,0,1-1.075.734,3.09,3.09,0,0,1-1.223.244,2.529,2.529,0,0,1-1.807-.622,2.069,2.069,0,0,1-.66-1.572,2.112,2.112,0,0,1,.3-1.122,1.959,1.959,0,0,1,.842-.754,6.582,6.582,0,0,1,1.562-.458,10.636,10.636,0,0,0,1.907-.482v-.2a1.016,1.016,0,0,0-.279-.807,1.675,1.675,0,0,0-1.055-.241,1.4,1.4,0,0,0-.817.206A1.432,1.432,0,0,0,286.944,98.474Zm2.627,1.593a12.26,12.26,0,0,1-1.194.3,3.6,3.6,0,0,0-1.069.342.819.819,0,0,0-.384.692.961.961,0,0,0,.307.712,1.074,1.074,0,0,0,.783.3,1.7,1.7,0,0,0,1.013-.349,1.229,1.229,0,0,0,.468-.65,3.842,3.842,0,0,0,.077-.957Z" transform="translate(-11.647 -27.828)"/><path class="cls-9" d="M293.435,103.63V93.388H295.4V103.63Z" transform="translate(-11.647 -27.828)"/><path class="cls-9" d="M306.165,99.864V98.139h4.458v4.08a5.632,5.632,0,0,1-1.883,1.107,6.861,6.861,0,0,1-2.5.479,5.605,5.605,0,0,1-2.8-.674,4.289,4.289,0,0,1-1.8-1.928,6.234,6.234,0,0,1-.6-2.729,5.894,5.894,0,0,1,.671-2.843,4.518,4.518,0,0,1,1.963-1.907,5.3,5.3,0,0,1,2.452-.51,4.9,4.9,0,0,1,2.98.8,3.615,3.615,0,0,1,1.38,2.211l-2.055.384a2.17,2.17,0,0,0-.813-1.191,2.462,2.462,0,0,0-1.492-.437,2.8,2.8,0,0,0-2.155.859,3.62,3.62,0,0,0-.8,2.55,4.01,4.01,0,0,0,.811,2.735,2.706,2.706,0,0,0,2.124.912,3.551,3.551,0,0,0,1.3-.255,4.451,4.451,0,0,0,1.121-.618v-1.3Z" transform="translate(-11.647 -27.828)"/><path class="cls-9" d="M312.516,95.2V93.388h1.963V95.2Zm0,8.426V96.21h1.963v7.42Z" transform="translate(-11.647 -27.828)"/><path class="cls-9" d="M315.633,96.21h1.09v-.559a3.713,3.713,0,0,1,.2-1.4,1.572,1.572,0,0,1,.733-.751,2.813,2.813,0,0,1,1.352-.29,5.464,5.464,0,0,1,1.642.251l-.265,1.37a3.876,3.876,0,0,0-.9-.112.8.8,0,0,0-.611.2,1.151,1.151,0,0,0-.186.765v.524h1.467v1.544h-1.467v5.875h-1.963V97.754h-1.09Z" transform="translate(-11.647 -27.828)"/><path class="cls-9" d="M324.659,96.21v1.565h-1.342v2.991a7.258,7.258,0,0,0,.039,1.058.428.428,0,0,0,.174.248.554.554,0,0,0,.332.1,2.539,2.539,0,0,0,.79-.189l.167,1.523a3.9,3.9,0,0,1-1.551.293,2.463,2.463,0,0,1-.957-.178,1.4,1.4,0,0,1-.625-.461,1.811,1.811,0,0,1-.276-.765,9.518,9.518,0,0,1-.062-1.383V97.775h-.9V96.21h.9V94.736l1.97-1.146v2.62Z" transform="translate(-11.647 -27.828)"/><path class="cls-9" d="M242.213,120.8v-8.51h-3.039v-1.732h8.139v1.732h-3.031v8.51Z" transform="translate(-11.647 -27.828)"/><path class="cls-9" d="M249.039,115.644l-1.781-.321a2.773,2.773,0,0,1,1.034-1.593,3.78,3.78,0,0,1,2.18-.517,4.7,4.7,0,0,1,1.956.311,1.947,1.947,0,0,1,.9.79,4.043,4.043,0,0,1,.263,1.757l-.021,2.292a7.891,7.891,0,0,0,.095,1.443,4.209,4.209,0,0,0,.353,1h-1.942c-.051-.13-.114-.324-.188-.58q-.048-.174-.07-.23a3.533,3.533,0,0,1-1.075.734,3.09,3.09,0,0,1-1.223.244,2.529,2.529,0,0,1-1.807-.622,2.069,2.069,0,0,1-.66-1.572,2.112,2.112,0,0,1,.3-1.122,1.959,1.959,0,0,1,.842-.754,6.582,6.582,0,0,1,1.562-.458,10.636,10.636,0,0,0,1.907-.482v-.2a1.016,1.016,0,0,0-.279-.807,1.675,1.675,0,0,0-1.055-.241,1.4,1.4,0,0,0-.817.206A1.432,1.432,0,0,0,249.039,115.644Zm2.627,1.593a12.26,12.26,0,0,1-1.194.3,3.6,3.6,0,0,0-1.069.342.819.819,0,0,0-.384.692.961.961,0,0,0,.307.712,1.074,1.074,0,0,0,.783.3,1.7,1.7,0,0,0,1.013-.349,1.229,1.229,0,0,0,.468-.65,3.842,3.842,0,0,0,.077-.957Z" transform="translate(-11.647 -27.828)"/><path class="cls-9" d="M254.587,120.8l2.676-3.822-2.564-3.6h2.4l1.313,2.04,1.384-2.04H262.1l-2.516,3.515,2.746,3.905h-2.41l-1.51-2.3-1.522,2.3Z" transform="translate(-11.647 -27.828)"/><path class="cls-9" d="M267.477,120.8V110.558h7.595v1.732h-5.526v2.271h5.142v1.726h-5.142v2.788h5.722V120.8Z" transform="translate(-11.647 -27.828)"/><path class="cls-9" d="M276.064,120.8l2.676-3.822-2.564-3.6h2.4l1.313,2.04,1.384-2.04h2.306l-2.516,3.515,2.746,3.905H281.4l-1.51-2.3-1.522,2.3Z" transform="translate(-11.647 -27.828)"/><path class="cls-9" d="M291.435,115.574l-1.936.35a1.4,1.4,0,0,0-.444-.874,1.337,1.337,0,0,0-.9-.293,1.465,1.465,0,0,0-1.17.507,2.6,2.6,0,0,0-.437,1.694,3,3,0,0,0,.443,1.866,1.456,1.456,0,0,0,1.191.545,1.323,1.323,0,0,0,.915-.318,1.913,1.913,0,0,0,.5-1.094l1.929.329a3.421,3.421,0,0,1-1.153,2,3.567,3.567,0,0,1-2.284.678,3.4,3.4,0,0,1-2.6-1.027,4.68,4.68,0,0,1,0-5.7,3.448,3.448,0,0,1,2.627-1.023,3.584,3.584,0,0,1,2.155.583A3.234,3.234,0,0,1,291.435,115.574Z" transform="translate(-11.647 -27.828)"/><path class="cls-9" d="M292.924,120.8V110.558h1.963V120.8Z" transform="translate(-11.647 -27.828)"/><path class="cls-9" d="M301.782,120.8v-1.111a2.85,2.85,0,0,1-1.065.936,2.98,2.98,0,0,1-1.394.342,2.724,2.724,0,0,1-1.341-.328,1.934,1.934,0,0,1-.859-.922,4.1,4.1,0,0,1-.266-1.642v-4.7h1.963v3.41a9.448,9.448,0,0,0,.108,1.918,1.048,1.048,0,0,0,.395.559,1.213,1.213,0,0,0,.727.206,1.543,1.543,0,0,0,.9-.276,1.4,1.4,0,0,0,.545-.685,7.96,7.96,0,0,0,.146-2v-3.13h1.964v7.42Z" transform="translate(-11.647 -27.828)"/><path class="cls-9" d="M304.947,118.684l1.971-.3a1.446,1.446,0,0,0,.51.87,1.725,1.725,0,0,0,1.076.3,1.939,1.939,0,0,0,1.146-.28.622.622,0,0,0,.259-.524.517.517,0,0,0-.14-.37,1.565,1.565,0,0,0-.657-.258,10.59,10.59,0,0,1-3.011-.958,1.911,1.911,0,0,1-.881-1.669,2.058,2.058,0,0,1,.762-1.621,3.555,3.555,0,0,1,2.361-.657,4.119,4.119,0,0,1,2.264.5,2.535,2.535,0,0,1,1.021,1.467l-1.852.342a1.146,1.146,0,0,0-.45-.664,1.653,1.653,0,0,0-.947-.23,2.13,2.13,0,0,0-1.11.217.464.464,0,0,0-.224.4.432.432,0,0,0,.2.356,7.366,7.366,0,0,0,1.834.552,5.458,5.458,0,0,1,2.19.873,1.817,1.817,0,0,1,.614,1.46,2.243,2.243,0,0,1-.852,1.753,3.773,3.773,0,0,1-2.522.733,4.14,4.14,0,0,1-2.4-.615A2.833,2.833,0,0,1,304.947,118.684Z" transform="translate(-11.647 -27.828)"/><path class="cls-9" d="M313.6,112.375v-1.816h1.963v1.816Zm0,8.426v-7.42h1.963v7.42Z" transform="translate(-11.647 -27.828)"/><path class="cls-9" d="M317.119,116.986a4.015,4.015,0,0,1,.481-1.894,3.31,3.31,0,0,1,1.366-1.4,4.053,4.053,0,0,1,1.974-.482,3.706,3.706,0,0,1,2.76,1.093,3.78,3.78,0,0,1,1.076,2.763,3.823,3.823,0,0,1-1.087,2.792,3.67,3.67,0,0,1-2.735,1.107,4.305,4.305,0,0,1-1.945-.461,3.163,3.163,0,0,1-1.408-1.352A4.5,4.5,0,0,1,317.119,116.986Zm2.012.1a2.456,2.456,0,0,0,.524,1.691,1.712,1.712,0,0,0,2.581,0,2.493,2.493,0,0,0,.521-1.7,2.447,2.447,0,0,0-.521-1.677,1.712,1.712,0,0,0-2.581,0A2.456,2.456,0,0,0,319.131,117.09Z" transform="translate(-11.647 -27.828)"/><path class="cls-9" d="M333.062,120.8H331.1v-3.787a5.9,5.9,0,0,0-.125-1.555,1.094,1.094,0,0,0-.409-.548,1.169,1.169,0,0,0-.682-.2,1.573,1.573,0,0,0-.915.28,1.406,1.406,0,0,0-.555.74,6.384,6.384,0,0,0-.15,1.705v3.36H326.3v-7.42h1.824v1.09a3.041,3.041,0,0,1,3.633-1.024,1.99,1.99,0,0,1,.813.6,2.158,2.158,0,0,1,.385.824,6.127,6.127,0,0,1,.108,1.32Z" transform="translate(-11.647 -27.828)"/><path class="cls-1" d="M35.667,364.139l2.005.636a4.5,4.5,0,0,1-1.534,2.491,4.825,4.825,0,0,1-6.075-.58,5.332,5.332,0,0,1-1.313-3.811,5.6,5.6,0,0,1,1.32-3.972,4.527,4.527,0,0,1,3.473-1.415A4.259,4.259,0,0,1,36.6,358.6a4.043,4.043,0,0,1,1.048,1.886l-2.047.489a2.115,2.115,0,0,0-2.159-1.719,2.331,2.331,0,0,0-1.848.817,4.008,4.008,0,0,0-.709,2.648,4.3,4.3,0,0,0,.7,2.767,2.268,2.268,0,0,0,1.816.825,2.073,2.073,0,0,0,1.418-.524A3.047,3.047,0,0,0,35.667,364.139Z" transform="translate(-11.647 -27.828)"/><path class="cls-1" d="M41.389,357.663v3.766a2.942,2.942,0,0,1,3.493-.859,2,2,0,0,1,.821.643,2.337,2.337,0,0,1,.377.867,7.763,7.763,0,0,1,.1,1.474V367.9H44.218v-3.919a5.815,5.815,0,0,0-.112-1.481.972.972,0,0,0-.4-.5,1.272,1.272,0,0,0-.709-.185,1.629,1.629,0,0,0-.874.238,1.37,1.37,0,0,0-.562.716,4.27,4.27,0,0,0-.178,1.415V367.9H39.426V357.663Z" transform="translate(-11.647 -27.828)"/><path class="cls-1" d="M49.64,362.749l-1.782-.321a2.776,2.776,0,0,1,1.034-1.593,3.784,3.784,0,0,1,2.18-.517,4.694,4.694,0,0,1,1.957.311,1.951,1.951,0,0,1,.9.79,4.054,4.054,0,0,1,.262,1.757l-.021,2.292a7.936,7.936,0,0,0,.095,1.443,4.187,4.187,0,0,0,.353,1H52.679q-.077-.2-.188-.58c-.033-.116-.056-.193-.07-.23a3.543,3.543,0,0,1-1.076.734,3.087,3.087,0,0,1-1.223.244,2.527,2.527,0,0,1-1.806-.622,2.066,2.066,0,0,1-.66-1.572,2.112,2.112,0,0,1,.3-1.122A1.962,1.962,0,0,1,48.8,364a6.568,6.568,0,0,1,1.562-.458,10.659,10.659,0,0,0,1.907-.482v-.2a1.018,1.018,0,0,0-.279-.807,1.676,1.676,0,0,0-1.055-.241,1.407,1.407,0,0,0-.817.206A1.434,1.434,0,0,0,49.64,362.749Zm2.627,1.593a12.316,12.316,0,0,1-1.195.3,3.594,3.594,0,0,0-1.069.342.818.818,0,0,0-.384.692.962.962,0,0,0,.308.712,1.073,1.073,0,0,0,.782.3,1.7,1.7,0,0,0,1.013-.349,1.23,1.23,0,0,0,.468-.65,3.874,3.874,0,0,0,.077-.957Z" transform="translate(-11.647 -27.828)"/><path class="cls-1" d="M58.01,367.9H56.047v-7.42H57.87v1.055a3.176,3.176,0,0,1,.842-.985,1.551,1.551,0,0,1,.849-.237,2.494,2.494,0,0,1,1.292.37l-.608,1.712a1.722,1.722,0,0,0-.922-.321,1.091,1.091,0,0,0-.7.227,1.551,1.551,0,0,0-.45.821,11.627,11.627,0,0,0-.165,2.487Z" transform="translate(-11.647 -27.828)"/><path class="cls-1" d="M63.166,362.749l-1.782-.321a2.776,2.776,0,0,1,1.034-1.593,3.784,3.784,0,0,1,2.18-.517,4.694,4.694,0,0,1,1.957.311,1.951,1.951,0,0,1,.9.79,4.054,4.054,0,0,1,.262,1.757l-.021,2.292a7.936,7.936,0,0,0,.095,1.443,4.187,4.187,0,0,0,.353,1H66.2q-.077-.2-.188-.58c-.033-.116-.056-.193-.07-.23a3.543,3.543,0,0,1-1.076.734,3.087,3.087,0,0,1-1.223.244,2.527,2.527,0,0,1-1.806-.622,2.066,2.066,0,0,1-.66-1.572,2.112,2.112,0,0,1,.3-1.122,1.962,1.962,0,0,1,.842-.754,6.568,6.568,0,0,1,1.562-.458,10.659,10.659,0,0,0,1.907-.482v-.2a1.018,1.018,0,0,0-.279-.807,1.676,1.676,0,0,0-1.055-.241,1.407,1.407,0,0,0-.817.206A1.434,1.434,0,0,0,63.166,362.749Zm2.627,1.593a12.316,12.316,0,0,1-1.195.3,3.594,3.594,0,0,0-1.069.342.818.818,0,0,0-.384.692.962.962,0,0,0,.308.712,1.073,1.073,0,0,0,.782.3,1.7,1.7,0,0,0,1.013-.349,1.23,1.23,0,0,0,.468-.65,3.874,3.874,0,0,0,.077-.957Z" transform="translate(-11.647 -27.828)"/><path class="cls-1" d="M76.126,362.679l-1.935.35a1.407,1.407,0,0,0-.444-.874,1.339,1.339,0,0,0-.9-.293,1.466,1.466,0,0,0-1.17.507,2.592,2.592,0,0,0-.437,1.694,3,3,0,0,0,.444,1.866,1.457,1.457,0,0,0,1.191.545,1.323,1.323,0,0,0,.915-.318,1.913,1.913,0,0,0,.5-1.094l1.928.329a3.42,3.42,0,0,1-1.153,2,3.565,3.565,0,0,1-2.284.678,3.4,3.4,0,0,1-2.6-1.027,4.681,4.681,0,0,1,0-5.7,3.45,3.45,0,0,1,2.627-1.023,3.581,3.581,0,0,1,2.155.583A3.232,3.232,0,0,1,76.126,362.679Z" transform="translate(-11.647 -27.828)"/><path class="cls-1" d="M81.016,360.485v1.565H79.675v2.991a7.457,7.457,0,0,0,.039,1.058.43.43,0,0,0,.175.248.552.552,0,0,0,.332.1,2.537,2.537,0,0,0,.79-.189l.168,1.523a3.9,3.9,0,0,1-1.551.293,2.462,2.462,0,0,1-.957-.178,1.4,1.4,0,0,1-.625-.461,1.817,1.817,0,0,1-.276-.765,9.494,9.494,0,0,1-.063-1.383V362.05h-.9v-1.565h.9v-1.474l1.97-1.146v2.62Z" transform="translate(-11.647 -27.828)"/><path class="cls-1" d="M86.675,365.543l1.956.328a3.21,3.21,0,0,1-1.191,1.639,3.5,3.5,0,0,1-2.037.562,3.321,3.321,0,0,1-2.865-1.264,4.25,4.25,0,0,1-.733-2.557,4.1,4.1,0,0,1,.964-2.889,3.174,3.174,0,0,1,2.438-1.044,3.294,3.294,0,0,1,2.613,1.093,4.841,4.841,0,0,1,.915,3.35H83.818a1.987,1.987,0,0,0,.475,1.359,1.486,1.486,0,0,0,1.132.486,1.2,1.2,0,0,0,.775-.251A1.555,1.555,0,0,0,86.675,365.543Zm.112-1.984a1.892,1.892,0,0,0-.44-1.3,1.416,1.416,0,0,0-2.082.024,1.811,1.811,0,0,0-.413,1.271Z" transform="translate(-11.647 -27.828)"/><path class="cls-1" d="M92.215,367.9H90.252v-7.42h1.823v1.055a3.176,3.176,0,0,1,.842-.985,1.551,1.551,0,0,1,.849-.237,2.494,2.494,0,0,1,1.292.37l-.608,1.712a1.722,1.722,0,0,0-.922-.321,1.091,1.091,0,0,0-.7.227,1.551,1.551,0,0,0-.45.821,11.627,11.627,0,0,0-.165,2.487Z" transform="translate(-11.647 -27.828)"/><path class="cls-1" d="M95.9,359.479v-1.816h1.963v1.816Zm0,8.426v-7.42h1.963v7.42Z" transform="translate(-11.647 -27.828)"/><path class="cls-1" d="M99.188,365.788l1.97-.3a1.446,1.446,0,0,0,.51.87,1.725,1.725,0,0,0,1.076.3,1.94,1.94,0,0,0,1.146-.28.623.623,0,0,0,.259-.524.517.517,0,0,0-.14-.37,1.565,1.565,0,0,0-.657-.258,10.583,10.583,0,0,1-3.011-.958,1.911,1.911,0,0,1-.88-1.669,2.059,2.059,0,0,1,.761-1.621,3.556,3.556,0,0,1,2.362-.657,4.122,4.122,0,0,1,2.264.5,2.536,2.536,0,0,1,1.02,1.467l-1.852.342a1.145,1.145,0,0,0-.451-.664,1.651,1.651,0,0,0-.947-.23,2.131,2.131,0,0,0-1.111.217.466.466,0,0,0-.224.4.434.434,0,0,0,.2.356,7.366,7.366,0,0,0,1.834.552,5.458,5.458,0,0,1,2.19.873,1.816,1.816,0,0,1,.615,1.46,2.241,2.241,0,0,1-.853,1.753,3.771,3.771,0,0,1-2.522.733,4.136,4.136,0,0,1-2.4-.615A2.831,2.831,0,0,1,99.188,365.788Z" transform="translate(-11.647 -27.828)"/><path class="cls-1" d="M111.239,360.485v1.565H109.9v2.991a7.457,7.457,0,0,0,.039,1.058.43.43,0,0,0,.175.248.552.552,0,0,0,.332.1,2.537,2.537,0,0,0,.79-.189l.168,1.523a3.9,3.9,0,0,1-1.551.293,2.462,2.462,0,0,1-.957-.178,1.4,1.4,0,0,1-.625-.461,1.817,1.817,0,0,1-.276-.765,9.494,9.494,0,0,1-.063-1.383V362.05h-.9v-1.565h.9v-1.474l1.97-1.146v2.62Z" transform="translate(-11.647 -27.828)"/><path class="cls-1" d="M112.6,359.479v-1.816h1.963v1.816Zm0,8.426v-7.42h1.963v7.42Z" transform="translate(-11.647 -27.828)"/><path class="cls-1" d="M123.046,362.679l-1.935.35a1.407,1.407,0,0,0-.444-.874,1.339,1.339,0,0,0-.9-.293,1.466,1.466,0,0,0-1.17.507,2.592,2.592,0,0,0-.437,1.694,3,3,0,0,0,.444,1.866,1.457,1.457,0,0,0,1.191.545,1.323,1.323,0,0,0,.915-.318,1.913,1.913,0,0,0,.5-1.094l1.928.329a3.42,3.42,0,0,1-1.153,2,3.565,3.565,0,0,1-2.284.678,3.4,3.4,0,0,1-2.6-1.027,4.681,4.681,0,0,1,0-5.7,3.45,3.45,0,0,1,2.627-1.023,3.581,3.581,0,0,1,2.155.583A3.232,3.232,0,0,1,123.046,362.679Z" transform="translate(-11.647 -27.828)"/><path class="cls-1" d="M123.843,365.788l1.97-.3a1.446,1.446,0,0,0,.51.87,1.725,1.725,0,0,0,1.076.3,1.94,1.94,0,0,0,1.146-.28.623.623,0,0,0,.259-.524.517.517,0,0,0-.14-.37,1.565,1.565,0,0,0-.657-.258,10.583,10.583,0,0,1-3.011-.958,1.911,1.911,0,0,1-.88-1.669,2.059,2.059,0,0,1,.761-1.621,3.556,3.556,0,0,1,2.362-.657,4.122,4.122,0,0,1,2.264.5,2.536,2.536,0,0,1,1.02,1.467l-1.852.342a1.145,1.145,0,0,0-.451-.664,1.651,1.651,0,0,0-.947-.23,2.131,2.131,0,0,0-1.111.217.466.466,0,0,0-.224.4.434.434,0,0,0,.2.356,7.366,7.366,0,0,0,1.834.552,5.458,5.458,0,0,1,2.19.873,1.816,1.816,0,0,1,.615,1.46,2.241,2.241,0,0,1-.853,1.753,3.771,3.771,0,0,1-2.522.733,4.136,4.136,0,0,1-2.4-.615A2.831,2.831,0,0,1,123.843,365.788Z" transform="translate(-11.647 -27.828)"/><path class="cls-1" d="M11.647,374.833h2.068v5.547a11.506,11.506,0,0,0,.077,1.711,1.658,1.658,0,0,0,.632,1.01,2.2,2.2,0,0,0,1.366.381,2.086,2.086,0,0,0,1.328-.36,1.423,1.423,0,0,0,.538-.884,11.526,11.526,0,0,0,.091-1.74v-5.666h2.068v5.379a13.819,13.819,0,0,1-.167,2.606,2.88,2.88,0,0,1-.619,1.286,3.118,3.118,0,0,1-1.205.835,5.246,5.246,0,0,1-1.97.311,5.678,5.678,0,0,1-2.225-.339,3.186,3.186,0,0,1-1.2-.88,2.822,2.822,0,0,1-.58-1.135,12.46,12.46,0,0,1-.2-2.6Z" transform="translate(-11.647 -27.828)"/><path class="cls-1" d="M28.729,385.075H26.766v-3.787a5.844,5.844,0,0,0-.126-1.555,1.093,1.093,0,0,0-.409-.548,1.168,1.168,0,0,0-.681-.2,1.572,1.572,0,0,0-.915.28,1.406,1.406,0,0,0-.556.74,6.405,6.405,0,0,0-.15,1.705v3.36H21.966v-7.42h1.823v1.09a3.041,3.041,0,0,1,3.633-1.024,2,2,0,0,1,.814.6,2.172,2.172,0,0,1,.384.824,6.164,6.164,0,0,1,.108,1.32Z" transform="translate(-11.647 -27.828)"/><path class="cls-1" d="M30.72,376.649v-1.816h1.963v1.816Zm0,8.426v-7.42h1.963v7.42Z" transform="translate(-11.647 -27.828)"/><path class="cls-1" d="M39.544,387.9v-3.731a2.784,2.784,0,0,1-.957.786,2.7,2.7,0,0,1-1.236.29,2.624,2.624,0,0,1-2.082-.95,4.434,4.434,0,0,1-.964-3.011,4.018,4.018,0,0,1,.9-2.791,2.9,2.9,0,0,1,2.246-1,2.512,2.512,0,0,1,1.282.314,2.933,2.933,0,0,1,.96.95v-1.1h1.81V387.9Zm.063-6.624a2.6,2.6,0,0,0-.464-1.694,1.456,1.456,0,0,0-1.164-.555,1.5,1.5,0,0,0-1.191.566,2.752,2.752,0,0,0-.479,1.8,2.708,2.708,0,0,0,.461,1.764,1.439,1.439,0,0,0,1.139.542,1.517,1.517,0,0,0,1.188-.608A2.759,2.759,0,0,0,39.607,381.274Z" transform="translate(-11.647 -27.828)"/><path class="cls-1" d="M48.32,385.075v-1.111a2.857,2.857,0,0,1-1.065.936,2.983,2.983,0,0,1-1.394.342,2.728,2.728,0,0,1-1.341-.328,1.939,1.939,0,0,1-.859-.922,4.116,4.116,0,0,1-.266-1.642v-4.7h1.963v3.41a9.448,9.448,0,0,0,.108,1.918,1.046,1.046,0,0,0,.395.559,1.212,1.212,0,0,0,.727.206,1.543,1.543,0,0,0,.9-.276,1.4,1.4,0,0,0,.545-.685,7.926,7.926,0,0,0,.147-2v-3.13h1.963v7.42Z" transform="translate(-11.647 -27.828)"/><path class="cls-1" d="M56.473,382.714l1.956.328a3.21,3.21,0,0,1-1.191,1.639,3.5,3.5,0,0,1-2.037.562,3.321,3.321,0,0,1-2.865-1.264,4.25,4.25,0,0,1-.733-2.557,4.1,4.1,0,0,1,.964-2.889,3.174,3.174,0,0,1,2.438-1.044,3.294,3.294,0,0,1,2.613,1.093,4.841,4.841,0,0,1,.915,3.35H53.615a1.987,1.987,0,0,0,.475,1.359,1.486,1.486,0,0,0,1.132.486,1.2,1.2,0,0,0,.775-.251A1.555,1.555,0,0,0,56.473,382.714Zm.112-1.984a1.892,1.892,0,0,0-.44-1.3,1.416,1.416,0,0,0-2.082.024,1.811,1.811,0,0,0-.413,1.271Z" transform="translate(-11.647 -27.828)"/><path class="cls-1" d="M67.511,377.655v1.565H66.17v2.991a7.457,7.457,0,0,0,.039,1.058.43.43,0,0,0,.175.248.552.552,0,0,0,.332.1,2.537,2.537,0,0,0,.79-.189l.168,1.523a3.9,3.9,0,0,1-1.551.293,2.462,2.462,0,0,1-.957-.178,1.4,1.4,0,0,1-.625-.461,1.817,1.817,0,0,1-.276-.765,9.494,9.494,0,0,1-.063-1.383V379.22h-.9v-1.565h.9v-1.474l1.97-1.146v2.62Z" transform="translate(-11.647 -27.828)"/><path class="cls-1" d="M68.419,381.261a4.01,4.01,0,0,1,.482-1.894,3.306,3.306,0,0,1,1.366-1.4,4.053,4.053,0,0,1,1.974-.482A3.7,3.7,0,0,1,75,378.581a3.778,3.778,0,0,1,1.076,2.763,3.822,3.822,0,0,1-1.086,2.792,3.671,3.671,0,0,1-2.735,1.107,4.306,4.306,0,0,1-1.946-.461A3.162,3.162,0,0,1,68.9,383.43,4.5,4.5,0,0,1,68.419,381.261Zm2.012.1a2.459,2.459,0,0,0,.524,1.691,1.713,1.713,0,0,0,2.582,0,2.491,2.491,0,0,0,.521-1.7,2.445,2.445,0,0,0-.521-1.677,1.713,1.713,0,0,0-2.582,0A2.458,2.458,0,0,0,70.431,381.365Z" transform="translate(-11.647 -27.828)"/><path class="cls-1" d="M81.6,385.075V374.833H89.2v1.732H83.671v2.271h5.142v1.726H83.671v2.788h5.722v1.726Z" transform="translate(-11.647 -27.828)"/><path class="cls-1" d="M90.441,382.958l1.97-.3a1.446,1.446,0,0,0,.51.87,1.725,1.725,0,0,0,1.076.3,1.94,1.94,0,0,0,1.146-.28.623.623,0,0,0,.259-.524.517.517,0,0,0-.14-.37,1.565,1.565,0,0,0-.657-.258,10.583,10.583,0,0,1-3.011-.958,1.911,1.911,0,0,1-.88-1.669,2.059,2.059,0,0,1,.761-1.621,3.556,3.556,0,0,1,2.362-.657,4.122,4.122,0,0,1,2.264.5,2.536,2.536,0,0,1,1.02,1.467l-1.852.342a1.145,1.145,0,0,0-.451-.664,1.651,1.651,0,0,0-.947-.23,2.131,2.131,0,0,0-1.111.217.466.466,0,0,0-.224.4.434.434,0,0,0,.2.356,7.366,7.366,0,0,0,1.834.552,5.458,5.458,0,0,1,2.19.873,1.816,1.816,0,0,1,.615,1.46,2.241,2.241,0,0,1-.853,1.753,3.771,3.771,0,0,1-2.522.733,4.136,4.136,0,0,1-2.4-.615A2.831,2.831,0,0,1,90.441,382.958Z" transform="translate(-11.647 -27.828)"/><path class="cls-1" d="M102.493,377.655v1.565h-1.342v2.991a7.457,7.457,0,0,0,.039,1.058.43.43,0,0,0,.175.248.552.552,0,0,0,.332.1,2.537,2.537,0,0,0,.79-.189l.168,1.523a3.9,3.9,0,0,1-1.551.293,2.462,2.462,0,0,1-.957-.178,1.4,1.4,0,0,1-.625-.461,1.817,1.817,0,0,1-.276-.765,9.494,9.494,0,0,1-.063-1.383V379.22h-.9v-1.565h.9v-1.474l1.97-1.146v2.62Z" transform="translate(-11.647 -27.828)"/><path class="cls-1" d="M105.322,379.919l-1.782-.321A2.776,2.776,0,0,1,104.574,378a3.784,3.784,0,0,1,2.18-.517,4.694,4.694,0,0,1,1.957.311,1.951,1.951,0,0,1,.9.79,4.054,4.054,0,0,1,.262,1.757l-.021,2.292a7.936,7.936,0,0,0,.095,1.443,4.187,4.187,0,0,0,.353,1h-1.942q-.077-.2-.188-.58c-.033-.116-.056-.193-.07-.23a3.543,3.543,0,0,1-1.076.734,3.087,3.087,0,0,1-1.223.244,2.527,2.527,0,0,1-1.806-.622,2.066,2.066,0,0,1-.66-1.572,2.112,2.112,0,0,1,.3-1.122,1.962,1.962,0,0,1,.842-.754,6.568,6.568,0,0,1,1.562-.458,10.659,10.659,0,0,0,1.907-.482v-.2a1.018,1.018,0,0,0-.279-.807,1.676,1.676,0,0,0-1.055-.241,1.407,1.407,0,0,0-.817.206A1.434,1.434,0,0,0,105.322,379.919Zm2.627,1.593a12.316,12.316,0,0,1-1.195.3,3.594,3.594,0,0,0-1.069.342.818.818,0,0,0-.384.692.962.962,0,0,0,.308.712,1.073,1.073,0,0,0,.782.3,1.7,1.7,0,0,0,1.013-.349,1.23,1.23,0,0,0,.468-.65,3.874,3.874,0,0,0,.077-.957Z" transform="translate(-11.647 -27.828)"/><path class="cls-1" d="M115.215,377.655v1.565h-1.342v2.991a7.457,7.457,0,0,0,.039,1.058.43.43,0,0,0,.175.248.552.552,0,0,0,.332.1,2.537,2.537,0,0,0,.79-.189l.168,1.523a3.9,3.9,0,0,1-1.551.293,2.462,2.462,0,0,1-.957-.178,1.4,1.4,0,0,1-.625-.461,1.817,1.817,0,0,1-.276-.765,9.494,9.494,0,0,1-.063-1.383V379.22H111v-1.565h.9v-1.474l1.97-1.146v2.62Z" transform="translate(-11.647 -27.828)"/><path class="cls-1" d="M120.874,382.714l1.956.328a3.21,3.21,0,0,1-1.191,1.639,3.5,3.5,0,0,1-2.037.562,3.321,3.321,0,0,1-2.865-1.264,4.25,4.25,0,0,1-.733-2.557,4.1,4.1,0,0,1,.964-2.889,3.174,3.174,0,0,1,2.438-1.044,3.294,3.294,0,0,1,2.613,1.093,4.841,4.841,0,0,1,.915,3.35h-4.918a1.987,1.987,0,0,0,.475,1.359,1.486,1.486,0,0,0,1.132.486,1.2,1.2,0,0,0,.775-.251A1.555,1.555,0,0,0,120.874,382.714Zm.112-1.984a1.892,1.892,0,0,0-.44-1.3,1.416,1.416,0,0,0-2.082.024,1.811,1.811,0,0,0-.413,1.271Z" transform="translate(-11.647 -27.828)"/><path class="cls-1" d="M123.843,382.958l1.97-.3a1.446,1.446,0,0,0,.51.87,1.725,1.725,0,0,0,1.076.3,1.94,1.94,0,0,0,1.146-.28.623.623,0,0,0,.259-.524.517.517,0,0,0-.14-.37,1.565,1.565,0,0,0-.657-.258,10.583,10.583,0,0,1-3.011-.958,1.911,1.911,0,0,1-.88-1.669,2.059,2.059,0,0,1,.761-1.621,3.556,3.556,0,0,1,2.362-.657,4.122,4.122,0,0,1,2.264.5,2.536,2.536,0,0,1,1.02,1.467l-1.852.342a1.145,1.145,0,0,0-.451-.664,1.651,1.651,0,0,0-.947-.23,2.131,2.131,0,0,0-1.111.217.466.466,0,0,0-.224.4.434.434,0,0,0,.2.356,7.366,7.366,0,0,0,1.834.552,5.458,5.458,0,0,1,2.19.873,1.816,1.816,0,0,1,.615,1.46,2.241,2.241,0,0,1-.853,1.753,3.771,3.771,0,0,1-2.522.733,4.136,4.136,0,0,1-2.4-.615A2.831,2.831,0,0,1,123.843,382.958Z" transform="translate(-11.647 -27.828)"/><line class="cls-2" x1="126.699" y1="347.901" x2="177.146" y2="297.455"/><line class="cls-3" x1="126.699" y1="347.901" x2="213.834" y2="347.901"/><line class="cls-4" x1="126.699" y1="347.901" x2="186.318" y2="407.52"/><line class="cls-5" x1="126.699" y1="347.901" x2="126.699" y2="435.036"/><polygon class="cls-6" points="134.201 435.036 126.699 448.03 119.197 435.036 134.201 435.036"/><polygon class="cls-7" points="191.317 401.448 195.062 415.977 180.607 411.955 191.317 401.448"/><polygon class="cls-8" points="170.103 295.278 184.164 290.043 181.667 304.837 170.103 295.278"/><polygon class="cls-9" points="213.834 340.399 226.828 347.901 213.834 355.403 213.834 340.399"/><path class="cls-6" d="M111.647,488.74H109.4l-.894-2.326h-4.094l-.845,2.326h-2.194l3.989-10.242h2.187Zm-3.808-4.052-1.412-3.8-1.383,3.8Z" transform="translate(-11.647 -27.828)"/><path class="cls-6" d="M112.729,488.74V478.5h1.963V488.74Z" transform="translate(-11.647 -27.828)"/><path class="cls-6" d="M120.107,481.32v1.565h-1.342v2.99a7.471,7.471,0,0,0,.039,1.059.433.433,0,0,0,.175.248.558.558,0,0,0,.332.1,2.561,2.561,0,0,0,.79-.188l.168,1.522a3.892,3.892,0,0,1-1.551.294,2.453,2.453,0,0,1-.957-.179,1.394,1.394,0,0,1-.625-.461,1.817,1.817,0,0,1-.276-.765,9.507,9.507,0,0,1-.063-1.384v-3.234h-.9V481.32h.9v-1.474l1.97-1.146v2.62Z" transform="translate(-11.647 -27.828)"/><path class="cls-6" d="M125.766,486.379l1.956.328a3.208,3.208,0,0,1-1.191,1.639,3.5,3.5,0,0,1-2.037.563,3.321,3.321,0,0,1-2.865-1.265,4.253,4.253,0,0,1-.733-2.558,4.1,4.1,0,0,1,.964-2.889,3.175,3.175,0,0,1,2.438-1.045,3.3,3.3,0,0,1,2.613,1.094,4.842,4.842,0,0,1,.915,3.351h-4.918a1.985,1.985,0,0,0,.475,1.358,1.483,1.483,0,0,0,1.132.485,1.206,1.206,0,0,0,.775-.251A1.557,1.557,0,0,0,125.766,486.379Zm.112-1.984a1.892,1.892,0,0,0-.44-1.3,1.351,1.351,0,0,0-1.02-.443,1.365,1.365,0,0,0-1.062.468,1.813,1.813,0,0,0-.413,1.271Z" transform="translate(-11.647 -27.828)"/><path class="cls-6" d="M131.306,488.74h-1.963v-7.42h1.823v1.055a3.17,3.17,0,0,1,.842-.984,1.552,1.552,0,0,1,.849-.238,2.49,2.49,0,0,1,1.292.371l-.608,1.711a1.726,1.726,0,0,0-.922-.321,1.091,1.091,0,0,0-.7.228,1.551,1.551,0,0,0-.45.82,11.634,11.634,0,0,0-.165,2.487Z" transform="translate(-11.647 -27.828)"/><path class="cls-6" d="M141.744,488.74h-1.963v-3.787a5.833,5.833,0,0,0-.126-1.554,1.094,1.094,0,0,0-.409-.549,1.171,1.171,0,0,0-.681-.2,1.572,1.572,0,0,0-.915.279,1.406,1.406,0,0,0-.556.74,6.405,6.405,0,0,0-.15,1.705v3.36h-1.963v-7.42H136.8v1.09a3.04,3.04,0,0,1,3.633-1.023,2,2,0,0,1,.814.6,2.168,2.168,0,0,1,.384.824,6.168,6.168,0,0,1,.108,1.32Z" transform="translate(-11.647 -27.828)"/><path class="cls-6" d="M145.2,483.584l-1.782-.321a2.777,2.777,0,0,1,1.034-1.593,3.784,3.784,0,0,1,2.18-.518,4.7,4.7,0,0,1,1.957.312,1.955,1.955,0,0,1,.9.789,4.059,4.059,0,0,1,.262,1.758l-.021,2.291a7.949,7.949,0,0,0,.095,1.443,4.184,4.184,0,0,0,.353,1h-1.942q-.077-.195-.188-.58c-.033-.116-.056-.193-.07-.23a3.541,3.541,0,0,1-1.076.733,3.079,3.079,0,0,1-1.223.245,2.525,2.525,0,0,1-1.806-.622,2.065,2.065,0,0,1-.66-1.572,2.11,2.11,0,0,1,.3-1.121,1.966,1.966,0,0,1,.842-.755,6.548,6.548,0,0,1,1.562-.457,10.7,10.7,0,0,0,1.907-.482v-.2a1.019,1.019,0,0,0-.279-.808,1.68,1.68,0,0,0-1.055-.24,1.4,1.4,0,0,0-.817.206A1.426,1.426,0,0,0,145.2,483.584Zm2.627,1.593a12.14,12.14,0,0,1-1.195.3,3.575,3.575,0,0,0-1.069.343.818.818,0,0,0-.384.691.964.964,0,0,0,.308.713,1.072,1.072,0,0,0,.782.3,1.7,1.7,0,0,0,1.013-.35,1.229,1.229,0,0,0,.468-.649,3.877,3.877,0,0,0,.077-.957Z" transform="translate(-11.647 -27.828)"/><path class="cls-6" d="M155.1,481.32v1.565h-1.342v2.99a7.471,7.471,0,0,0,.039,1.059.433.433,0,0,0,.175.248.558.558,0,0,0,.332.1,2.561,2.561,0,0,0,.79-.188l.168,1.522a3.892,3.892,0,0,1-1.551.294,2.453,2.453,0,0,1-.957-.179,1.394,1.394,0,0,1-.625-.461,1.817,1.817,0,0,1-.276-.765,9.507,9.507,0,0,1-.063-1.384v-3.234h-.9V481.32h.9v-1.474l1.97-1.146v2.62Z" transform="translate(-11.647 -27.828)"/><path class="cls-6" d="M156.457,480.314V478.5h1.963v1.816Zm0,8.426v-7.42h1.963v7.42Z" transform="translate(-11.647 -27.828)"/><path class="cls-6" d="M162.473,488.74l-2.99-7.42h2.061l1.4,3.787.405,1.265q.16-.482.2-.636.1-.315.209-.629l1.412-3.787h2.019l-2.949,7.42Z" transform="translate(-11.647 -27.828)"/><path class="cls-6" d="M172.687,486.379l1.956.328a3.208,3.208,0,0,1-1.191,1.639,3.5,3.5,0,0,1-2.037.563,3.321,3.321,0,0,1-2.865-1.265,4.253,4.253,0,0,1-.733-2.558,4.1,4.1,0,0,1,.964-2.889,3.175,3.175,0,0,1,2.438-1.045,3.3,3.3,0,0,1,2.613,1.094,4.842,4.842,0,0,1,.915,3.351H169.83a1.985,1.985,0,0,0,.475,1.358,1.483,1.483,0,0,0,1.132.485,1.206,1.206,0,0,0,.775-.251A1.557,1.557,0,0,0,172.687,486.379Zm.112-1.984a1.892,1.892,0,0,0-.44-1.3,1.351,1.351,0,0,0-1.02-.443,1.365,1.365,0,0,0-1.062.468,1.813,1.813,0,0,0-.413,1.271Z" transform="translate(-11.647 -27.828)"/><path class="cls-6" d="M92.7,505.91l-3.661-10.242h2.243l2.592,7.58,2.508-7.58h2.194L94.91,505.91Z" transform="translate(-11.647 -27.828)"/><path class="cls-6" d="M100.3,500.754l-1.782-.321a2.777,2.777,0,0,1,1.034-1.593,3.784,3.784,0,0,1,2.18-.518,4.7,4.7,0,0,1,1.957.312,1.955,1.955,0,0,1,.9.789,4.059,4.059,0,0,1,.262,1.758l-.021,2.291a7.949,7.949,0,0,0,.095,1.443,4.184,4.184,0,0,0,.353,1h-1.942q-.077-.195-.188-.58c-.033-.116-.056-.193-.07-.23a3.541,3.541,0,0,1-1.076.733,3.079,3.079,0,0,1-1.223.245,2.525,2.525,0,0,1-1.806-.622,2.065,2.065,0,0,1-.66-1.572,2.11,2.11,0,0,1,.3-1.121,1.966,1.966,0,0,1,.842-.755,6.548,6.548,0,0,1,1.562-.457,10.7,10.7,0,0,0,1.907-.482v-.2a1.019,1.019,0,0,0-.279-.808,1.68,1.68,0,0,0-1.055-.24,1.4,1.4,0,0,0-.817.206A1.426,1.426,0,0,0,100.3,500.754Zm2.627,1.593a12.14,12.14,0,0,1-1.195.3,3.575,3.575,0,0,0-1.069.343.818.818,0,0,0-.384.691.964.964,0,0,0,.308.713,1.072,1.072,0,0,0,.782.3,1.7,1.7,0,0,0,1.013-.35,1.229,1.229,0,0,0,.468-.649,3.877,3.877,0,0,0,.077-.957Z" transform="translate(-11.647 -27.828)"/><path class="cls-6" d="M106.787,505.91V495.668h1.963V505.91Z" transform="translate(-11.647 -27.828)"/><path class="cls-6" d="M115.646,505.91V504.8a2.85,2.85,0,0,1-1.065.937,2.983,2.983,0,0,1-1.394.343,2.718,2.718,0,0,1-1.341-.329,1.935,1.935,0,0,1-.859-.922,4.118,4.118,0,0,1-.266-1.642v-4.7h1.963V501.9a9.437,9.437,0,0,0,.108,1.918,1.048,1.048,0,0,0,.395.56,1.219,1.219,0,0,0,.727.206,1.54,1.54,0,0,0,.9-.276,1.4,1.4,0,0,0,.545-.685,7.926,7.926,0,0,0,.147-2v-3.13h1.963v7.42Z" transform="translate(-11.647 -27.828)"/><path class="cls-6" d="M120.97,500.754l-1.782-.321a2.777,2.777,0,0,1,1.034-1.593,3.784,3.784,0,0,1,2.18-.518,4.7,4.7,0,0,1,1.957.312,1.955,1.955,0,0,1,.9.789,4.059,4.059,0,0,1,.262,1.758l-.021,2.291a7.949,7.949,0,0,0,.095,1.443,4.184,4.184,0,0,0,.353,1h-1.942q-.077-.195-.188-.58c-.033-.116-.056-.193-.07-.23a3.541,3.541,0,0,1-1.076.733,3.079,3.079,0,0,1-1.223.245,2.525,2.525,0,0,1-1.806-.622,2.065,2.065,0,0,1-.66-1.572,2.11,2.11,0,0,1,.3-1.121,1.966,1.966,0,0,1,.842-.755,6.548,6.548,0,0,1,1.562-.457,10.7,10.7,0,0,0,1.907-.482v-.2a1.019,1.019,0,0,0-.279-.808,1.68,1.68,0,0,0-1.055-.24,1.4,1.4,0,0,0-.817.206A1.426,1.426,0,0,0,120.97,500.754Zm2.627,1.593a12.14,12.14,0,0,1-1.195.3,3.575,3.575,0,0,0-1.069.343.818.818,0,0,0-.384.691.964.964,0,0,0,.308.713,1.072,1.072,0,0,0,.782.3,1.7,1.7,0,0,0,1.013-.35,1.229,1.229,0,0,0,.468-.649,3.877,3.877,0,0,0,.077-.957Z" transform="translate(-11.647 -27.828)"/><path class="cls-6" d="M130.863,498.49v1.565h-1.342v2.99a7.471,7.471,0,0,0,.039,1.059.433.433,0,0,0,.175.248.558.558,0,0,0,.332.1,2.561,2.561,0,0,0,.79-.188l.168,1.522a3.892,3.892,0,0,1-1.551.294,2.453,2.453,0,0,1-.957-.179,1.394,1.394,0,0,1-.625-.461,1.817,1.817,0,0,1-.276-.765,9.507,9.507,0,0,1-.063-1.384v-3.234h-.9V498.49h.9v-1.474l1.97-1.146v2.62Z" transform="translate(-11.647 -27.828)"/><path class="cls-6" d="M132.225,497.484v-1.816h1.963v1.816Zm0,8.426v-7.42h1.963v7.42Z" transform="translate(-11.647 -27.828)"/><path class="cls-6" d="M135.746,502.1a4.01,4.01,0,0,1,.482-1.894,3.306,3.306,0,0,1,1.366-1.4,4.054,4.054,0,0,1,1.974-.482,3.706,3.706,0,0,1,2.76,1.094,3.779,3.779,0,0,1,1.076,2.764,3.822,3.822,0,0,1-1.086,2.791,3.671,3.671,0,0,1-2.735,1.107,4.318,4.318,0,0,1-1.946-.461,3.165,3.165,0,0,1-1.408-1.353A4.5,4.5,0,0,1,135.746,502.1Zm2.012.1a2.457,2.457,0,0,0,.524,1.69,1.713,1.713,0,0,0,2.582,0,2.489,2.489,0,0,0,.521-1.7,2.445,2.445,0,0,0-.521-1.677,1.713,1.713,0,0,0-2.582,0A2.458,2.458,0,0,0,137.758,502.2Z" transform="translate(-11.647 -27.828)"/><path class="cls-6" d="M151.689,505.91h-1.963v-3.787a5.833,5.833,0,0,0-.126-1.554,1.094,1.094,0,0,0-.409-.549,1.171,1.171,0,0,0-.681-.2,1.572,1.572,0,0,0-.915.279,1.406,1.406,0,0,0-.556.74,6.405,6.405,0,0,0-.15,1.705v3.36h-1.963v-7.42h1.823v1.09a3.04,3.04,0,0,1,3.633-1.023,2,2,0,0,1,.814.6,2.168,2.168,0,0,1,.384.824,6.168,6.168,0,0,1,.108,1.32Z" transform="translate(-11.647 -27.828)"/><path class="cls-6" d="M157.663,495.668h3.78a7.408,7.408,0,0,1,1.949.2,3.431,3.431,0,0,1,1.544.943,4.482,4.482,0,0,1,.978,1.659,7.559,7.559,0,0,1,.335,2.421,6.736,6.736,0,0,1-.314,2.18,4.518,4.518,0,0,1-1.1,1.81,3.625,3.625,0,0,1-1.453.817,6.251,6.251,0,0,1-1.831.217h-3.891Zm2.068,1.732v6.784h1.544a5.62,5.62,0,0,0,1.25-.1,1.911,1.911,0,0,0,.835-.427,2.165,2.165,0,0,0,.542-.988,6.686,6.686,0,0,0,.209-1.876,6.119,6.119,0,0,0-.209-1.823,2.342,2.342,0,0,0-.587-.992,1.97,1.97,0,0,0-.957-.482,9.459,9.459,0,0,0-1.7-.1Z" transform="translate(-11.647 -27.828)"/><path class="cls-6" d="M169.456,500.754l-1.782-.321a2.777,2.777,0,0,1,1.034-1.593,3.784,3.784,0,0,1,2.18-.518,4.7,4.7,0,0,1,1.957.312,1.955,1.955,0,0,1,.9.789,4.059,4.059,0,0,1,.262,1.758l-.021,2.291a7.949,7.949,0,0,0,.095,1.443,4.184,4.184,0,0,0,.353,1H172.5q-.077-.195-.188-.58c-.033-.116-.056-.193-.07-.23a3.541,3.541,0,0,1-1.076.733,3.079,3.079,0,0,1-1.223.245,2.525,2.525,0,0,1-1.806-.622,2.065,2.065,0,0,1-.66-1.572,2.11,2.11,0,0,1,.3-1.121,1.966,1.966,0,0,1,.842-.755,6.548,6.548,0,0,1,1.562-.457,10.7,10.7,0,0,0,1.907-.482v-.2a1.019,1.019,0,0,0-.279-.808,1.68,1.68,0,0,0-1.055-.24,1.4,1.4,0,0,0-.817.206A1.426,1.426,0,0,0,169.456,500.754Zm2.627,1.593a12.14,12.14,0,0,1-1.195.3,3.575,3.575,0,0,0-1.069.343.818.818,0,0,0-.384.691.964.964,0,0,0,.308.713,1.072,1.072,0,0,0,.782.3,1.7,1.7,0,0,0,1.013-.35,1.229,1.229,0,0,0,.468-.649,3.877,3.877,0,0,0,.077-.957Z" transform="translate(-11.647 -27.828)"/><path class="cls-6" d="M179.349,498.49v1.565h-1.342v2.99a7.471,7.471,0,0,0,.039,1.059.433.433,0,0,0,.175.248.558.558,0,0,0,.332.1,2.561,2.561,0,0,0,.79-.188l.168,1.522a3.892,3.892,0,0,1-1.551.294A2.453,2.453,0,0,1,177,505.9a1.394,1.394,0,0,1-.625-.461,1.817,1.817,0,0,1-.276-.765,9.507,9.507,0,0,1-.063-1.384v-3.234h-.9V498.49h.9v-1.474l1.97-1.146v2.62Z" transform="translate(-11.647 -27.828)"/><path class="cls-6" d="M185.008,503.549l1.956.328a3.208,3.208,0,0,1-1.191,1.639,3.5,3.5,0,0,1-2.037.563,3.321,3.321,0,0,1-2.865-1.265,4.253,4.253,0,0,1-.733-2.558,4.1,4.1,0,0,1,.964-2.889,3.175,3.175,0,0,1,2.438-1.045,3.3,3.3,0,0,1,2.613,1.094,4.842,4.842,0,0,1,.915,3.351h-4.918a1.985,1.985,0,0,0,.475,1.358,1.483,1.483,0,0,0,1.132.485,1.206,1.206,0,0,0,.775-.251A1.557,1.557,0,0,0,185.008,503.549Zm.112-1.984a1.892,1.892,0,0,0-.44-1.3,1.351,1.351,0,0,0-1.02-.443,1.365,1.365,0,0,0-1.062.468,1.813,1.813,0,0,0-.413,1.271Z" transform="translate(-11.647 -27.828)"/><path class="cls-8" d="M173.927,309.938V299.7h7.594v1.732h-5.526V303.7h5.142v1.726h-5.142v2.788h5.722v1.726Z" transform="translate(-11.647 -27.828)"/><path class="cls-8" d="M182.764,307.821l1.97-.3a1.446,1.446,0,0,0,.51.87,1.725,1.725,0,0,0,1.076.3,1.94,1.94,0,0,0,1.146-.28.623.623,0,0,0,.259-.524.517.517,0,0,0-.14-.37,1.565,1.565,0,0,0-.657-.258,10.583,10.583,0,0,1-3.011-.958,1.911,1.911,0,0,1-.88-1.669,2.059,2.059,0,0,1,.761-1.621,3.556,3.556,0,0,1,2.362-.657,4.122,4.122,0,0,1,2.264.5,2.536,2.536,0,0,1,1.02,1.467l-1.852.342a1.145,1.145,0,0,0-.451-.664,1.651,1.651,0,0,0-.947-.23,2.131,2.131,0,0,0-1.111.217.466.466,0,0,0-.224.4.434.434,0,0,0,.2.356,7.366,7.366,0,0,0,1.834.552,5.458,5.458,0,0,1,2.19.873,1.816,1.816,0,0,1,.615,1.46,2.241,2.241,0,0,1-.853,1.753,3.771,3.771,0,0,1-2.522.733,4.136,4.136,0,0,1-2.4-.615A2.831,2.831,0,0,1,182.764,307.821Z" transform="translate(-11.647 -27.828)"/><path class="cls-8" d="M194.816,302.518v1.565h-1.342v2.991a7.457,7.457,0,0,0,.039,1.058.43.43,0,0,0,.175.248.552.552,0,0,0,.332.1,2.537,2.537,0,0,0,.79-.189l.168,1.523a3.9,3.9,0,0,1-1.551.293,2.462,2.462,0,0,1-.957-.178,1.4,1.4,0,0,1-.625-.461,1.817,1.817,0,0,1-.276-.765,9.494,9.494,0,0,1-.063-1.383v-3.235h-.9v-1.565h.9v-1.474l1.97-1.146v2.62Z" transform="translate(-11.647 -27.828)"/><path class="cls-8" d="M197.645,304.781l-1.782-.321a2.776,2.776,0,0,1,1.034-1.593,3.784,3.784,0,0,1,2.18-.517,4.694,4.694,0,0,1,1.957.311,1.951,1.951,0,0,1,.9.79,4.054,4.054,0,0,1,.262,1.757l-.021,2.292a7.936,7.936,0,0,0,.095,1.443,4.187,4.187,0,0,0,.353,1h-1.942q-.077-.2-.188-.58c-.033-.116-.056-.193-.07-.23a3.543,3.543,0,0,1-1.076.734,3.087,3.087,0,0,1-1.223.244,2.527,2.527,0,0,1-1.806-.622,2.066,2.066,0,0,1-.66-1.572,2.112,2.112,0,0,1,.3-1.122,1.962,1.962,0,0,1,.842-.754,6.568,6.568,0,0,1,1.562-.458,10.659,10.659,0,0,0,1.907-.482v-.2a1.018,1.018,0,0,0-.279-.807,1.676,1.676,0,0,0-1.055-.241,1.407,1.407,0,0,0-.817.206A1.434,1.434,0,0,0,197.645,304.781Zm2.627,1.593a12.316,12.316,0,0,1-1.195.3,3.594,3.594,0,0,0-1.069.342.818.818,0,0,0-.384.692.962.962,0,0,0,.308.712,1.073,1.073,0,0,0,.782.3,1.7,1.7,0,0,0,1.013-.349,1.23,1.23,0,0,0,.468-.65,3.874,3.874,0,0,0,.077-.957Z" transform="translate(-11.647 -27.828)"/><path class="cls-8" d="M207.538,302.518v1.565H206.2v2.991a7.457,7.457,0,0,0,.039,1.058.43.43,0,0,0,.175.248.552.552,0,0,0,.332.1,2.537,2.537,0,0,0,.79-.189l.168,1.523a3.9,3.9,0,0,1-1.551.293,2.462,2.462,0,0,1-.957-.178,1.4,1.4,0,0,1-.625-.461,1.817,1.817,0,0,1-.276-.765,9.494,9.494,0,0,1-.063-1.383v-3.235h-.9v-1.565h.9v-1.474l1.97-1.146v2.62Z" transform="translate(-11.647 -27.828)"/><path class="cls-8" d="M213.2,307.576l1.956.328a3.21,3.21,0,0,1-1.191,1.639,3.5,3.5,0,0,1-2.037.562,3.321,3.321,0,0,1-2.865-1.264,4.25,4.25,0,0,1-.733-2.557,4.1,4.1,0,0,1,.964-2.889,3.174,3.174,0,0,1,2.438-1.044,3.294,3.294,0,0,1,2.613,1.093,4.841,4.841,0,0,1,.915,3.35H210.34a1.987,1.987,0,0,0,.475,1.359,1.486,1.486,0,0,0,1.132.486,1.2,1.2,0,0,0,.775-.251A1.555,1.555,0,0,0,213.2,307.576Zm.112-1.984a1.892,1.892,0,0,0-.44-1.3,1.416,1.416,0,0,0-2.082.024,1.811,1.811,0,0,0-.413,1.271Z" transform="translate(-11.647 -27.828)"/><path class="cls-8" d="M223.153,309.938v-8.51h-3.039V299.7h8.139v1.732h-3.032v8.51Z" transform="translate(-11.647 -27.828)"/><path class="cls-8" d="M229.979,304.781l-1.782-.321a2.776,2.776,0,0,1,1.034-1.593,3.784,3.784,0,0,1,2.18-.517,4.689,4.689,0,0,1,1.956.311,1.937,1.937,0,0,1,.9.79,4.024,4.024,0,0,1,.264,1.757l-.021,2.292a8,8,0,0,0,.094,1.443,4.214,4.214,0,0,0,.354,1h-1.943q-.076-.2-.187-.58-.05-.174-.07-.23a3.548,3.548,0,0,1-1.076.734,3.087,3.087,0,0,1-1.223.244,2.527,2.527,0,0,1-1.806-.622,2.066,2.066,0,0,1-.66-1.572,2.112,2.112,0,0,1,.3-1.122,1.962,1.962,0,0,1,.842-.754,6.568,6.568,0,0,1,1.562-.458,10.639,10.639,0,0,0,1.907-.482v-.2a1.012,1.012,0,0,0-.279-.807,1.672,1.672,0,0,0-1.055-.241,1.407,1.407,0,0,0-.817.206A1.434,1.434,0,0,0,229.979,304.781Zm2.626,1.593a12.26,12.26,0,0,1-1.194.3,3.594,3.594,0,0,0-1.069.342.818.818,0,0,0-.384.692.962.962,0,0,0,.308.712,1.073,1.073,0,0,0,.782.3,1.7,1.7,0,0,0,1.013-.349,1.226,1.226,0,0,0,.469-.65,3.906,3.906,0,0,0,.076-.957Z" transform="translate(-11.647 -27.828)"/><path class="cls-8" d="M235.527,309.938l2.676-3.822-2.564-3.6h2.4l1.313,2.04,1.384-2.04h2.306l-2.516,3.515,2.746,3.905h-2.41l-1.51-2.3-1.522,2.3Z" transform="translate(-11.647 -27.828)"/><path class="cls-8" d="M248.411,299.7h3.779a7.385,7.385,0,0,1,1.949.2,3.421,3.421,0,0,1,1.544.943,4.473,4.473,0,0,1,.979,1.659,7.56,7.56,0,0,1,.335,2.421,6.718,6.718,0,0,1-.314,2.18,4.5,4.5,0,0,1-1.1,1.81,3.625,3.625,0,0,1-1.453.817,6.247,6.247,0,0,1-1.83.217h-3.892Zm2.067,1.732v6.784h1.545a5.61,5.61,0,0,0,1.25-.1,1.9,1.9,0,0,0,.835-.426,2.172,2.172,0,0,0,.542-.989,6.687,6.687,0,0,0,.209-1.876A6.124,6.124,0,0,0,254.65,303a2.357,2.357,0,0,0-.587-.992,1.967,1.967,0,0,0-.958-.482,9.335,9.335,0,0,0-1.7-.1Z" transform="translate(-11.647 -27.828)"/><path class="cls-8" d="M263.62,309.938v-1.111a2.85,2.85,0,0,1-1.065.936,2.98,2.98,0,0,1-1.394.342,2.724,2.724,0,0,1-1.341-.328,1.934,1.934,0,0,1-.859-.922,4.1,4.1,0,0,1-.266-1.642v-4.7h1.963v3.41a9.448,9.448,0,0,0,.108,1.918,1.048,1.048,0,0,0,.395.559,1.213,1.213,0,0,0,.727.206,1.543,1.543,0,0,0,.9-.276,1.4,1.4,0,0,0,.545-.685,7.96,7.96,0,0,0,.146-2v-3.13h1.964v7.42Z" transform="translate(-11.647 -27.828)"/><path class="cls-8" d="M271.774,307.576l1.956.328a3.216,3.216,0,0,1-1.191,1.639,3.5,3.5,0,0,1-2.037.562,3.319,3.319,0,0,1-2.864-1.264,4.247,4.247,0,0,1-.733-2.557,4.1,4.1,0,0,1,.964-2.889,3.177,3.177,0,0,1,2.438-1.044,3.294,3.294,0,0,1,2.613,1.093,4.839,4.839,0,0,1,.915,3.35h-4.919a1.989,1.989,0,0,0,.476,1.359,1.486,1.486,0,0,0,1.132.486,1.2,1.2,0,0,0,.775-.251A1.555,1.555,0,0,0,271.774,307.576Zm.111-1.984a1.889,1.889,0,0,0-.44-1.3,1.349,1.349,0,0,0-1.02-.444,1.364,1.364,0,0,0-1.062.468,1.811,1.811,0,0,0-.412,1.271Z" transform="translate(-11.647 -27.828)"/><path class="cls-8" d="M209.174,316.866h3.78a7.387,7.387,0,0,1,1.949.2,3.431,3.431,0,0,1,1.544.943,4.479,4.479,0,0,1,.978,1.659,7.559,7.559,0,0,1,.335,2.421,6.732,6.732,0,0,1-.314,2.18,4.514,4.514,0,0,1-1.1,1.81,3.625,3.625,0,0,1-1.453.817,6.251,6.251,0,0,1-1.831.217h-3.891Zm2.068,1.732v6.784h1.544a5.613,5.613,0,0,0,1.25-.1,1.905,1.905,0,0,0,.835-.426,2.167,2.167,0,0,0,.542-.989,6.684,6.684,0,0,0,.209-1.876,6.122,6.122,0,0,0-.209-1.823,2.342,2.342,0,0,0-.587-.992,1.962,1.962,0,0,0-.957-.482,9.349,9.349,0,0,0-1.7-.1Z" transform="translate(-11.647 -27.828)"/><path class="cls-8" d="M220.967,321.952l-1.782-.321a2.776,2.776,0,0,1,1.034-1.593,3.784,3.784,0,0,1,2.18-.517,4.694,4.694,0,0,1,1.957.311,1.951,1.951,0,0,1,.9.79,4.054,4.054,0,0,1,.262,1.757l-.021,2.292a7.936,7.936,0,0,0,.095,1.443,4.187,4.187,0,0,0,.353,1h-1.942q-.077-.2-.188-.58c-.033-.116-.056-.193-.07-.23a3.543,3.543,0,0,1-1.076.734,3.087,3.087,0,0,1-1.223.244,2.527,2.527,0,0,1-1.806-.622,2.066,2.066,0,0,1-.66-1.572,2.112,2.112,0,0,1,.3-1.122,1.962,1.962,0,0,1,.842-.754,6.568,6.568,0,0,1,1.562-.458,10.659,10.659,0,0,0,1.907-.482v-.2a1.018,1.018,0,0,0-.279-.807,1.676,1.676,0,0,0-1.055-.241,1.407,1.407,0,0,0-.817.206A1.434,1.434,0,0,0,220.967,321.952Zm2.627,1.593a12.316,12.316,0,0,1-1.195.3,3.594,3.594,0,0,0-1.069.342.818.818,0,0,0-.384.692.962.962,0,0,0,.308.712,1.073,1.073,0,0,0,.782.3,1.7,1.7,0,0,0,1.013-.349,1.23,1.23,0,0,0,.468-.65,3.874,3.874,0,0,0,.077-.957Z" transform="translate(-11.647 -27.828)"/><path class="cls-8" d="M230.86,319.688v1.565h-1.342v2.991a7.457,7.457,0,0,0,.039,1.058.43.43,0,0,0,.175.248.552.552,0,0,0,.332.1,2.537,2.537,0,0,0,.79-.189l.168,1.523a3.9,3.9,0,0,1-1.551.293,2.462,2.462,0,0,1-.957-.178,1.4,1.4,0,0,1-.625-.461,1.817,1.817,0,0,1-.276-.765,9.494,9.494,0,0,1-.063-1.383v-3.235h-.9v-1.565h.9v-1.474l1.97-1.146v2.62Z" transform="translate(-11.647 -27.828)"/><path class="cls-8" d="M236.519,324.747l1.955.328a3.211,3.211,0,0,1-1.191,1.639,3.5,3.5,0,0,1-2.037.562,3.319,3.319,0,0,1-2.863-1.264,4.247,4.247,0,0,1-.734-2.557,4.1,4.1,0,0,1,.964-2.889,3.174,3.174,0,0,1,2.438-1.044,3.292,3.292,0,0,1,2.613,1.093,4.838,4.838,0,0,1,.916,3.35h-4.92a1.994,1.994,0,0,0,.477,1.359,1.485,1.485,0,0,0,1.131.486,1.2,1.2,0,0,0,.775-.251A1.549,1.549,0,0,0,236.519,324.747Zm.111-1.984a1.89,1.89,0,0,0-.441-1.3,1.349,1.349,0,0,0-1.02-.444,1.366,1.366,0,0,0-1.062.468,1.815,1.815,0,0,0-.412,1.271Z" transform="translate(-11.647 -27.828)"/><path class="cls-7" d="M188.5,458.4V448.153h7.594v1.732h-5.526v2.271h5.142v1.726h-5.142v2.788h5.722V458.4Z" transform="translate(-11.647 -27.828)"/><path class="cls-7" d="M197.337,456.278l1.97-.3a1.442,1.442,0,0,0,.51.869,1.722,1.722,0,0,0,1.076.3,1.94,1.94,0,0,0,1.146-.279.622.622,0,0,0,.259-.523.52.52,0,0,0-.14-.371,1.573,1.573,0,0,0-.657-.258,10.62,10.62,0,0,1-3.011-.957,1.912,1.912,0,0,1-.88-1.67,2.059,2.059,0,0,1,.761-1.621,3.559,3.559,0,0,1,2.362-.657,4.127,4.127,0,0,1,2.264.5,2.539,2.539,0,0,1,1.02,1.468l-1.852.342a1.144,1.144,0,0,0-.451-.663,1.643,1.643,0,0,0-.947-.23,2.142,2.142,0,0,0-1.111.216.466.466,0,0,0-.224.4.434.434,0,0,0,.2.356,7.33,7.33,0,0,0,1.834.552,5.471,5.471,0,0,1,2.19.874,1.814,1.814,0,0,1,.615,1.46,2.242,2.242,0,0,1-.853,1.754,3.777,3.777,0,0,1-2.522.733,4.136,4.136,0,0,1-2.4-.615A2.834,2.834,0,0,1,197.337,456.278Z" transform="translate(-11.647 -27.828)"/><path class="cls-7" d="M209.389,450.976v1.565h-1.342v2.99a7.471,7.471,0,0,0,.039,1.059.433.433,0,0,0,.175.248.558.558,0,0,0,.332.1,2.561,2.561,0,0,0,.79-.188l.168,1.522a3.892,3.892,0,0,1-1.551.294,2.453,2.453,0,0,1-.957-.179,1.394,1.394,0,0,1-.625-.461,1.817,1.817,0,0,1-.276-.765,9.507,9.507,0,0,1-.063-1.384v-3.234h-.9v-1.565h.9V449.5l1.97-1.146v2.62Z" transform="translate(-11.647 -27.828)"/><path class="cls-7" d="M212.218,453.239l-1.782-.321a2.777,2.777,0,0,1,1.034-1.593,3.784,3.784,0,0,1,2.18-.518,4.7,4.7,0,0,1,1.957.312,1.955,1.955,0,0,1,.9.789,4.059,4.059,0,0,1,.262,1.758l-.021,2.291a7.949,7.949,0,0,0,.095,1.443,4.184,4.184,0,0,0,.353,1h-1.942q-.077-.195-.188-.58c-.033-.116-.056-.193-.07-.23a3.541,3.541,0,0,1-1.076.733,3.079,3.079,0,0,1-1.223.245,2.525,2.525,0,0,1-1.806-.622,2.065,2.065,0,0,1-.66-1.572,2.11,2.11,0,0,1,.3-1.121,1.966,1.966,0,0,1,.842-.755,6.548,6.548,0,0,1,1.562-.457,10.7,10.7,0,0,0,1.907-.482v-.2a1.019,1.019,0,0,0-.279-.808,1.68,1.68,0,0,0-1.055-.24,1.4,1.4,0,0,0-.817.206A1.426,1.426,0,0,0,212.218,453.239Zm2.627,1.593a12.14,12.14,0,0,1-1.195.3,3.575,3.575,0,0,0-1.069.343.818.818,0,0,0-.384.691.964.964,0,0,0,.308.713,1.072,1.072,0,0,0,.782.3,1.7,1.7,0,0,0,1.013-.35,1.229,1.229,0,0,0,.468-.649,3.877,3.877,0,0,0,.077-.957Z" transform="translate(-11.647 -27.828)"/><path class="cls-7" d="M222.111,450.976v1.565h-1.342v2.99a7.471,7.471,0,0,0,.039,1.059.433.433,0,0,0,.175.248.558.558,0,0,0,.332.1,2.561,2.561,0,0,0,.79-.188l.168,1.522a3.892,3.892,0,0,1-1.551.294,2.453,2.453,0,0,1-.957-.179,1.394,1.394,0,0,1-.625-.461,1.817,1.817,0,0,1-.276-.765,9.507,9.507,0,0,1-.063-1.384v-3.234h-.9v-1.565h.9V449.5l1.97-1.146v2.62Z" transform="translate(-11.647 -27.828)"/><path class="cls-7" d="M227.77,456.034l1.956.328A3.208,3.208,0,0,1,228.535,458a3.5,3.5,0,0,1-2.037.563,3.321,3.321,0,0,1-2.865-1.265,4.253,4.253,0,0,1-.733-2.558,4.1,4.1,0,0,1,.964-2.889,3.175,3.175,0,0,1,2.438-1.045,3.3,3.3,0,0,1,2.613,1.094,4.842,4.842,0,0,1,.915,3.351h-4.918a1.985,1.985,0,0,0,.475,1.358,1.483,1.483,0,0,0,1.132.485,1.206,1.206,0,0,0,.775-.251A1.557,1.557,0,0,0,227.77,456.034Zm.112-1.984a1.892,1.892,0,0,0-.44-1.3,1.351,1.351,0,0,0-1.02-.443,1.365,1.365,0,0,0-1.062.468,1.813,1.813,0,0,0-.413,1.271Z" transform="translate(-11.647 -27.828)"/><path class="cls-7" d="M234.9,455.063l2.013-.2a2.449,2.449,0,0,0,.737,1.488,2.228,2.228,0,0,0,1.5.475,2.308,2.308,0,0,0,1.506-.422,1.258,1.258,0,0,0,.507-.989.93.93,0,0,0-.214-.618,1.7,1.7,0,0,0-.744-.443q-.363-.126-1.655-.447a5.619,5.619,0,0,1-2.334-1.013,2.668,2.668,0,0,1-.942-2.062,2.632,2.632,0,0,1,.443-1.464,2.775,2.775,0,0,1,1.278-1.037,5.129,5.129,0,0,1,2.016-.356,4.327,4.327,0,0,1,2.9.846,2.986,2.986,0,0,1,1.023,2.257l-2.068.091a1.759,1.759,0,0,0-.569-1.136,2.084,2.084,0,0,0-1.31-.346,2.364,2.364,0,0,0-1.412.37.746.746,0,0,0-.328.636.788.788,0,0,0,.308.622,5.437,5.437,0,0,0,1.9.685,10.024,10.024,0,0,1,2.232.737,2.88,2.88,0,0,1,1.132,1.041,3.225,3.225,0,0,1-.081,3.28,2.929,2.929,0,0,1-1.383,1.142,5.8,5.8,0,0,1-2.229.374,4.435,4.435,0,0,1-2.983-.9A3.908,3.908,0,0,1,234.9,455.063Z" transform="translate(-11.647 -27.828)"/><path class="cls-7" d="M249.247,456.034l1.956.328A3.214,3.214,0,0,1,250.011,458a3.5,3.5,0,0,1-2.037.563,3.32,3.32,0,0,1-2.864-1.265,4.25,4.25,0,0,1-.733-2.558,4.1,4.1,0,0,1,.964-2.889,3.178,3.178,0,0,1,2.438-1.045,3.3,3.3,0,0,1,2.613,1.094,4.84,4.84,0,0,1,.915,3.351h-4.919a1.988,1.988,0,0,0,.476,1.358A1.483,1.483,0,0,0,248,457.1a1.206,1.206,0,0,0,.775-.251A1.557,1.557,0,0,0,249.247,456.034Zm.111-1.984a1.889,1.889,0,0,0-.44-1.3,1.349,1.349,0,0,0-1.02-.443,1.366,1.366,0,0,0-1.062.468,1.812,1.812,0,0,0-.412,1.271Z" transform="translate(-11.647 -27.828)"/><path class="cls-7" d="M256.31,450.976v1.565h-1.342v2.99a7.272,7.272,0,0,0,.039,1.059.431.431,0,0,0,.174.248.561.561,0,0,0,.332.1,2.564,2.564,0,0,0,.79-.188l.167,1.522a3.89,3.89,0,0,1-1.551.294,2.455,2.455,0,0,1-.957-.179,1.392,1.392,0,0,1-.625-.461,1.811,1.811,0,0,1-.276-.765,9.531,9.531,0,0,1-.062-1.384v-3.234h-.9v-1.565h.9V449.5l1.97-1.146v2.62Z" transform="translate(-11.647 -27.828)"/><path class="cls-7" d="M261.075,450.976v1.565h-1.342v2.99a7.272,7.272,0,0,0,.039,1.059.431.431,0,0,0,.174.248.561.561,0,0,0,.332.1,2.564,2.564,0,0,0,.79-.188l.167,1.522a3.89,3.89,0,0,1-1.551.294,2.455,2.455,0,0,1-.957-.179,1.392,1.392,0,0,1-.625-.461,1.811,1.811,0,0,1-.276-.765,9.531,9.531,0,0,1-.062-1.384v-3.234h-.9v-1.565h.9V449.5l1.97-1.146v2.62Z" transform="translate(-11.647 -27.828)"/><path class="cls-7" d="M262.437,458.4V448.153H264.4V458.4Z" transform="translate(-11.647 -27.828)"/><path class="cls-7" d="M270.71,456.034l1.956.328A3.214,3.214,0,0,1,271.474,458a3.5,3.5,0,0,1-2.037.563,3.32,3.32,0,0,1-2.864-1.265,4.25,4.25,0,0,1-.733-2.558,4.1,4.1,0,0,1,.964-2.889,3.178,3.178,0,0,1,2.438-1.045,3.3,3.3,0,0,1,2.613,1.094,4.84,4.84,0,0,1,.915,3.351h-4.919a1.988,1.988,0,0,0,.476,1.358,1.483,1.483,0,0,0,1.132.485,1.206,1.206,0,0,0,.775-.251A1.557,1.557,0,0,0,270.71,456.034Zm.111-1.984a1.889,1.889,0,0,0-.44-1.3,1.349,1.349,0,0,0-1.02-.443,1.366,1.366,0,0,0-1.062.468,1.812,1.812,0,0,0-.412,1.271Z" transform="translate(-11.647 -27.828)"/><path class="cls-7" d="M274.223,450.976h1.81v1.014a2.914,2.914,0,0,1,2.313-1.182,2.5,2.5,0,0,1,1.237.294,2.255,2.255,0,0,1,.859.888,3.421,3.421,0,0,1,1.055-.888,2.592,2.592,0,0,1,1.209-.294,2.7,2.7,0,0,1,1.383.332,2.037,2.037,0,0,1,.846.975,4.239,4.239,0,0,1,.2,1.537V458.4h-1.963v-4.241a3.16,3.16,0,0,0-.2-1.425.931.931,0,0,0-.839-.419,1.343,1.343,0,0,0-.775.251,1.4,1.4,0,0,0-.524.737,5.333,5.333,0,0,0-.16,1.533V458.4h-1.964v-4.066a5.628,5.628,0,0,0-.1-1.4.887.887,0,0,0-.325-.468,1.025,1.025,0,0,0-.6-.153,1.43,1.43,0,0,0-.817.244,1.34,1.34,0,0,0-.521.706,5.215,5.215,0,0,0-.157,1.529V458.4h-1.964Z" transform="translate(-11.647 -27.828)"/><path class="cls-7" d="M291.39,456.034l1.956.328A3.214,3.214,0,0,1,292.155,458a3.5,3.5,0,0,1-2.037.563,3.32,3.32,0,0,1-2.864-1.265,4.25,4.25,0,0,1-.733-2.558,4.1,4.1,0,0,1,.964-2.889,3.178,3.178,0,0,1,2.438-1.045,3.3,3.3,0,0,1,2.613,1.094,4.84,4.84,0,0,1,.915,3.351h-4.919a1.988,1.988,0,0,0,.476,1.358,1.483,1.483,0,0,0,1.132.485,1.206,1.206,0,0,0,.775-.251A1.557,1.557,0,0,0,291.39,456.034Zm.111-1.984a1.889,1.889,0,0,0-.44-1.3,1.349,1.349,0,0,0-1.02-.443,1.366,1.366,0,0,0-1.062.468,1.812,1.812,0,0,0-.412,1.271Z" transform="translate(-11.647 -27.828)"/><path class="cls-7" d="M301.8,458.4h-1.964v-3.787a5.892,5.892,0,0,0-.125-1.554,1.1,1.1,0,0,0-.409-.549,1.173,1.173,0,0,0-.682-.2,1.573,1.573,0,0,0-.915.279,1.406,1.406,0,0,0-.555.74,6.384,6.384,0,0,0-.15,1.705v3.36h-1.964v-7.42h1.824v1.09a3.039,3.039,0,0,1,3.633-1.023,1.99,1.99,0,0,1,.813.6,2.155,2.155,0,0,1,.385.824,6.13,6.13,0,0,1,.108,1.32Z" transform="translate(-11.647 -27.828)"/><path class="cls-7" d="M307.194,450.976v1.565h-1.342v2.99a7.272,7.272,0,0,0,.039,1.059.431.431,0,0,0,.174.248.561.561,0,0,0,.332.1,2.564,2.564,0,0,0,.79-.188l.167,1.522a3.89,3.89,0,0,1-1.551.294,2.455,2.455,0,0,1-.957-.179,1.392,1.392,0,0,1-.625-.461,1.811,1.811,0,0,1-.276-.765,9.531,9.531,0,0,1-.062-1.384v-3.234h-.9v-1.565h.9V449.5l1.97-1.146v2.62Z" transform="translate(-11.647 -27.828)"/><path class="cls-9" d="M248.112,377.519v-1.726h4.458v4.08a5.632,5.632,0,0,1-1.883,1.107,6.861,6.861,0,0,1-2.5.479,5.605,5.605,0,0,1-2.8-.674,4.289,4.289,0,0,1-1.8-1.928,6.234,6.234,0,0,1-.6-2.729,5.894,5.894,0,0,1,.671-2.843,4.518,4.518,0,0,1,1.963-1.907,5.3,5.3,0,0,1,2.452-.51,4.9,4.9,0,0,1,2.98.8,3.615,3.615,0,0,1,1.38,2.211l-2.055.384a2.17,2.17,0,0,0-.813-1.191,2.462,2.462,0,0,0-1.492-.437,2.8,2.8,0,0,0-2.155.859,3.62,3.62,0,0,0-.8,2.55,4.01,4.01,0,0,0,.811,2.735,2.706,2.706,0,0,0,2.124.912,3.551,3.551,0,0,0,1.3-.255,4.451,4.451,0,0,0,1.121-.618v-1.3Z" transform="translate(-11.647 -27.828)"/><path class="cls-9" d="M256.343,381.285H254.38v-7.42H256.2v1.055a3.183,3.183,0,0,1,.842-.985,1.549,1.549,0,0,1,.849-.237,2.5,2.5,0,0,1,1.293.37l-.607,1.712a1.724,1.724,0,0,0-.923-.321,1.088,1.088,0,0,0-.7.227,1.548,1.548,0,0,0-.451.821,11.672,11.672,0,0,0-.164,2.487Z" transform="translate(-11.647 -27.828)"/><path class="cls-9" d="M259.578,377.47a4.015,4.015,0,0,1,.481-1.894,3.31,3.31,0,0,1,1.366-1.4,4.053,4.053,0,0,1,1.974-.482,3.706,3.706,0,0,1,2.76,1.093,3.78,3.78,0,0,1,1.076,2.763,3.823,3.823,0,0,1-1.087,2.792,3.67,3.67,0,0,1-2.735,1.107,4.305,4.305,0,0,1-1.945-.461,3.163,3.163,0,0,1-1.408-1.352A4.5,4.5,0,0,1,259.578,377.47Zm2.012.1a2.456,2.456,0,0,0,.524,1.691,1.712,1.712,0,0,0,2.581,0,2.493,2.493,0,0,0,.521-1.7,2.447,2.447,0,0,0-.521-1.677,1.712,1.712,0,0,0-2.581,0A2.456,2.456,0,0,0,261.59,377.575Z" transform="translate(-11.647 -27.828)"/><path class="cls-9" d="M268.08,379.168l1.971-.3a1.446,1.446,0,0,0,.51.87,1.725,1.725,0,0,0,1.076.3,1.939,1.939,0,0,0,1.146-.28.622.622,0,0,0,.259-.524.517.517,0,0,0-.14-.37,1.565,1.565,0,0,0-.657-.258,10.59,10.59,0,0,1-3.011-.958,1.911,1.911,0,0,1-.881-1.669,2.058,2.058,0,0,1,.762-1.621,3.555,3.555,0,0,1,2.361-.657,4.119,4.119,0,0,1,2.264.5,2.535,2.535,0,0,1,1.021,1.467l-1.852.342a1.146,1.146,0,0,0-.45-.664,1.653,1.653,0,0,0-.947-.23,2.13,2.13,0,0,0-1.11.217.464.464,0,0,0-.224.4.432.432,0,0,0,.2.356,7.366,7.366,0,0,0,1.834.552,5.458,5.458,0,0,1,2.19.873,1.817,1.817,0,0,1,.614,1.46,2.243,2.243,0,0,1-.852,1.753,3.773,3.773,0,0,1-2.522.733,4.14,4.14,0,0,1-2.4-.615A2.833,2.833,0,0,1,268.08,379.168Z" transform="translate(-11.647 -27.828)"/><path class="cls-9" d="M276.038,379.168l1.971-.3a1.446,1.446,0,0,0,.51.87,1.725,1.725,0,0,0,1.076.3,1.939,1.939,0,0,0,1.146-.28.622.622,0,0,0,.259-.524.517.517,0,0,0-.14-.37,1.565,1.565,0,0,0-.657-.258,10.59,10.59,0,0,1-3.011-.958,1.911,1.911,0,0,1-.881-1.669,2.058,2.058,0,0,1,.762-1.621,3.555,3.555,0,0,1,2.361-.657,4.119,4.119,0,0,1,2.264.5,2.535,2.535,0,0,1,1.021,1.467l-1.852.342a1.146,1.146,0,0,0-.45-.664,1.653,1.653,0,0,0-.947-.23,2.13,2.13,0,0,0-1.11.217.464.464,0,0,0-.224.4.432.432,0,0,0,.2.356,7.366,7.366,0,0,0,1.834.552,5.458,5.458,0,0,1,2.19.873,1.817,1.817,0,0,1,.614,1.46,2.243,2.243,0,0,1-.852,1.753,3.773,3.773,0,0,1-2.522.733,4.14,4.14,0,0,1-2.4-.615A2.833,2.833,0,0,1,276.038,379.168Z" transform="translate(-11.647 -27.828)"/><path class="cls-9" d="M288.677,381.285V371.042h7.595v1.732h-5.526v2.271h5.142v1.726h-5.142v2.788h5.722v1.726Z" transform="translate(-11.647 -27.828)"/><path class="cls-9" d="M297.515,379.168l1.971-.3a1.446,1.446,0,0,0,.51.87,1.725,1.725,0,0,0,1.076.3,1.939,1.939,0,0,0,1.146-.28.622.622,0,0,0,.259-.524.517.517,0,0,0-.14-.37,1.565,1.565,0,0,0-.657-.258,10.59,10.59,0,0,1-3.011-.958,1.911,1.911,0,0,1-.881-1.669,2.058,2.058,0,0,1,.762-1.621,3.555,3.555,0,0,1,2.361-.657,4.119,4.119,0,0,1,2.264.5,2.535,2.535,0,0,1,1.021,1.467l-1.852.342a1.146,1.146,0,0,0-.45-.664,1.653,1.653,0,0,0-.947-.23,2.13,2.13,0,0,0-1.11.217.464.464,0,0,0-.224.4.432.432,0,0,0,.2.356,7.366,7.366,0,0,0,1.834.552,5.458,5.458,0,0,1,2.19.873,1.817,1.817,0,0,1,.614,1.46,2.243,2.243,0,0,1-.852,1.753,3.773,3.773,0,0,1-2.522.733,4.14,4.14,0,0,1-2.4-.615A2.833,2.833,0,0,1,297.515,379.168Z" transform="translate(-11.647 -27.828)"/><path class="cls-9" d="M309.568,373.865v1.565h-1.342v2.991a7.258,7.258,0,0,0,.039,1.058.428.428,0,0,0,.174.248.554.554,0,0,0,.332.1,2.539,2.539,0,0,0,.79-.189l.167,1.523a3.9,3.9,0,0,1-1.551.293,2.463,2.463,0,0,1-.957-.178,1.4,1.4,0,0,1-.625-.461,1.811,1.811,0,0,1-.276-.765,9.518,9.518,0,0,1-.062-1.383V375.43h-.9v-1.565h.9v-1.474l1.97-1.146v2.62Z" transform="translate(-11.647 -27.828)"/><path class="cls-9" d="M312.4,376.128l-1.781-.321a2.773,2.773,0,0,1,1.034-1.593,3.78,3.78,0,0,1,2.18-.517,4.7,4.7,0,0,1,1.956.311,1.947,1.947,0,0,1,.9.79,4.043,4.043,0,0,1,.263,1.757l-.021,2.292a7.891,7.891,0,0,0,.095,1.443,4.209,4.209,0,0,0,.353,1h-1.942c-.051-.13-.114-.324-.188-.58q-.048-.174-.07-.23a3.533,3.533,0,0,1-1.075.734,3.09,3.09,0,0,1-1.223.244,2.529,2.529,0,0,1-1.807-.622,2.069,2.069,0,0,1-.66-1.572,2.112,2.112,0,0,1,.3-1.122,1.959,1.959,0,0,1,.842-.754,6.582,6.582,0,0,1,1.562-.458,10.636,10.636,0,0,0,1.907-.482v-.2a1.016,1.016,0,0,0-.279-.807,1.675,1.675,0,0,0-1.055-.241,1.4,1.4,0,0,0-.817.206A1.432,1.432,0,0,0,312.4,376.128Zm2.627,1.593a12.26,12.26,0,0,1-1.194.3,3.6,3.6,0,0,0-1.069.342.819.819,0,0,0-.384.692.961.961,0,0,0,.307.712,1.074,1.074,0,0,0,.783.3,1.7,1.7,0,0,0,1.013-.349,1.229,1.229,0,0,0,.468-.65,3.842,3.842,0,0,0,.077-.957Z" transform="translate(-11.647 -27.828)"/><path class="cls-9" d="M322.291,373.865v1.565h-1.342v2.991a7.258,7.258,0,0,0,.039,1.058.428.428,0,0,0,.174.248.554.554,0,0,0,.332.1,2.539,2.539,0,0,0,.79-.189l.167,1.523a3.9,3.9,0,0,1-1.551.293,2.463,2.463,0,0,1-.957-.178,1.4,1.4,0,0,1-.625-.461,1.811,1.811,0,0,1-.276-.765,9.518,9.518,0,0,1-.062-1.383V375.43h-.9v-1.565h.9v-1.474l1.97-1.146v2.62Z" transform="translate(-11.647 -27.828)"/><path class="cls-9" d="M327.95,378.923l1.956.328a3.216,3.216,0,0,1-1.191,1.639,3.5,3.5,0,0,1-2.037.562,3.319,3.319,0,0,1-2.864-1.264,4.247,4.247,0,0,1-.733-2.557,4.1,4.1,0,0,1,.964-2.889,3.177,3.177,0,0,1,2.438-1.044,3.294,3.294,0,0,1,2.613,1.093,4.839,4.839,0,0,1,.915,3.35h-4.919a1.989,1.989,0,0,0,.476,1.359,1.486,1.486,0,0,0,1.132.486,1.2,1.2,0,0,0,.775-.251A1.555,1.555,0,0,0,327.95,378.923Zm.111-1.984a1.889,1.889,0,0,0-.44-1.3,1.349,1.349,0,0,0-1.02-.444,1.364,1.364,0,0,0-1.062.468,1.811,1.811,0,0,0-.412,1.271Z" transform="translate(-11.647 -27.828)"/></svg>