<svg id="Layer_1" data-name="Layer 1" xmlns="http://www.w3.org/2000/svg" viewBox="0 0 372.698 75.464"><defs><style>.cls-1{fill:none;stroke:#231f20;stroke-miterlimit:10;stroke-width:2px;}.cls-2{fill:#231f20;}.cls-3{fill:#4676ba;}.cls-4{fill:#fff;}</style></defs><title>Covariance_Measure_Portfolio_Relative_Risk</title><line class="cls-1" x1="186.349" y1="12.45" x2="186.349" y2="61.492"/><path class="cls-2" d="M88.732,86.833a8.833,8.833,0,0,1,.352-2.755,3.429,3.429,0,0,1,1.047-1.61,2.677,2.677,0,0,1,1.748-.566,2.851,2.851,0,0,1,1.363.313,2.606,2.606,0,0,1,.968.9,4.84,4.84,0,0,1,.6,1.436,9.525,9.525,0,0,1,.217,2.281,8.843,8.843,0,0,1-.349,2.742,3.425,3.425,0,0,1-1.043,1.613,2.677,2.677,0,0,1-1.754.569,2.649,2.649,0,0,1-2.192-1A6.362,6.362,0,0,1,88.732,86.833Zm1.218,0A6.047,6.047,0,0,0,90.506,90a1.589,1.589,0,0,0,2.745,0,6.051,6.051,0,0,0,.557-3.16,6.048,6.048,0,0,0-.557-3.167,1.651,1.651,0,0,0-1.386-.783,1.52,1.52,0,0,0-1.3.691A6.123,6.123,0,0,0,89.95,86.833Z" transform="translate(-8.131 -16.292)"/><path class="cls-2" d="M96.9,91.592v-1.35h1.35v1.35Z" transform="translate(-8.131 -16.292)"/><path class="cls-2" d="M99.977,89.064l1.244-.1a2.229,2.229,0,0,0,.642,1.366,1.743,1.743,0,0,0,1.215.458,1.892,1.892,0,0,0,1.448-.646,2.431,2.431,0,0,0,.593-1.711,2.2,2.2,0,0,0-.57-1.6,1.985,1.985,0,0,0-1.491-.586,2.067,2.067,0,0,0-1.034.26,2.006,2.006,0,0,0-.724.675l-1.112-.145.935-4.958h4.8V83.2H102.07l-.52,2.594a3.14,3.14,0,0,1,1.823-.606,2.888,2.888,0,0,1,2.133.876,3.058,3.058,0,0,1,.869,2.251,3.516,3.516,0,0,1-.764,2.265,3.06,3.06,0,0,1-2.535,1.172,3.122,3.122,0,0,1-2.15-.737A2.879,2.879,0,0,1,99.977,89.064Z" transform="translate(-8.131 -16.292)"/><rect class="cls-3" x="39.553" y="21.648" width="293.592" height="21.63"/><polygon class="cls-3" points="39.553 55.299 0 32.463 39.553 9.627 39.553 55.299"/><polygon class="cls-3" points="333.145 9.627 372.698 32.463 333.145 55.299 333.145 9.627"/><path class="cls-2" d="M168.6,23.008l1.205-.1a2.658,2.658,0,0,0,.4,1.188,2.169,2.169,0,0,0,.971.75,3.678,3.678,0,0,0,1.481.287,3.546,3.546,0,0,0,1.291-.217,1.794,1.794,0,0,0,.833-.6,1.385,1.385,0,0,0,.273-.826,1.257,1.257,0,0,0-.263-.793,1.949,1.949,0,0,0-.869-.569,17.011,17.011,0,0,0-1.718-.471,8.792,8.792,0,0,1-1.863-.6,2.609,2.609,0,0,1-1.03-.9,2.2,2.2,0,0,1-.339-1.2,2.453,2.453,0,0,1,.415-1.366,2.567,2.567,0,0,1,1.211-.964,4.588,4.588,0,0,1,1.771-.33,4.836,4.836,0,0,1,1.893.346,2.732,2.732,0,0,1,1.261,1.017,2.924,2.924,0,0,1,.474,1.521l-1.225.092a1.979,1.979,0,0,0-.668-1.383,2.6,2.6,0,0,0-1.682-.467,2.7,2.7,0,0,0-1.689.425,1.274,1.274,0,0,0-.53,1.023,1.1,1.1,0,0,0,.375.856,5.083,5.083,0,0,0,1.926.688,12.721,12.721,0,0,1,2.137.616,2.923,2.923,0,0,1,1.244.984,2.4,2.4,0,0,1,.4,1.373,2.625,2.625,0,0,1-.441,1.452,2.908,2.908,0,0,1-1.267,1.06,4.416,4.416,0,0,1-1.86.378,5.557,5.557,0,0,1-2.2-.382,3.076,3.076,0,0,1-1.389-1.149A3.255,3.255,0,0,1,168.6,23.008Z" transform="translate(-8.131 -16.292)"/><path class="cls-2" d="M183.391,24.97a4.043,4.043,0,0,1-1.277.978,3.46,3.46,0,0,1-1.494.326,2.954,2.954,0,0,1-2.351-1,2.722,2.722,0,0,1-.7-1.824,2.524,2.524,0,0,1,.576-1.616,4.8,4.8,0,0,1,1.721-1.268,5.827,5.827,0,0,1-.869-1.218,2.141,2.141,0,0,1-.217-.9,2.011,2.011,0,0,1,.682-1.511,2.4,2.4,0,0,1,1.715-.642,2.237,2.237,0,0,1,1.617.606,1.953,1.953,0,0,1,.629,1.455q0,1.376-1.824,2.35l1.73,2.206a5.477,5.477,0,0,0,.461-1.343l1.232.263a6.692,6.692,0,0,1-.857,2.081,6.913,6.913,0,0,0,1.508,1.481l-.8.941A6.941,6.941,0,0,1,183.391,24.97Zm-.744-.935-2.172-2.693a4.146,4.146,0,0,0-1.3,1.063,1.712,1.712,0,0,0-.336.971,2.067,2.067,0,0,0,.467,1.218,1.552,1.552,0,0,0,1.324.632,2.18,2.18,0,0,0,1.1-.333A2.666,2.666,0,0,0,182.646,24.035Zm-1.666-4.1a3.167,3.167,0,0,0,1-.8,1.334,1.334,0,0,0,.227-.757,1.09,1.09,0,0,0-.312-.807,1.061,1.061,0,0,0-.779-.312,1.1,1.1,0,0,0-.8.31,1.012,1.012,0,0,0-.318.757,1.094,1.094,0,0,0,.115.471,2.408,2.408,0,0,0,.346.523Z" transform="translate(-8.131 -16.292)"/><path class="cls-2" d="M187.019,26.109V16.458h3.641a8.853,8.853,0,0,1,1.469.092,2.91,2.91,0,0,1,1.191.451,2.367,2.367,0,0,1,.773.932,3.142,3.142,0,0,1-.49,3.4,3.758,3.758,0,0,1-2.831.853H188.3v3.924Zm1.277-5.063h2.5a2.647,2.647,0,0,0,1.758-.46,1.644,1.644,0,0,0,.521-1.3,1.744,1.744,0,0,0-.307-1.037,1.431,1.431,0,0,0-.807-.57,5.485,5.485,0,0,0-1.191-.085H188.3Z" transform="translate(-8.131 -16.292)"/><path class="cls-2" d="M199.034,23.581l1.244-.1a2.232,2.232,0,0,0,.643,1.366,1.74,1.74,0,0,0,1.214.458,1.893,1.893,0,0,0,1.449-.646,2.433,2.433,0,0,0,.592-1.711,2.2,2.2,0,0,0-.569-1.6,1.987,1.987,0,0,0-1.491-.586,2.064,2.064,0,0,0-1.033.26,2,2,0,0,0-.725.675l-1.112-.145.935-4.958h4.8v1.132h-3.852l-.521,2.594a3.144,3.144,0,0,1,1.824-.606,2.887,2.887,0,0,1,2.133.876,3.06,3.06,0,0,1,.869,2.251,3.516,3.516,0,0,1-.764,2.265,3.06,3.06,0,0,1-2.535,1.172,3.122,3.122,0,0,1-2.149-.737A2.881,2.881,0,0,1,199.034,23.581Z" transform="translate(-8.131 -16.292)"/><path class="cls-2" d="M206.533,21.349a8.817,8.817,0,0,1,.353-2.755,3.418,3.418,0,0,1,1.047-1.61,2.674,2.674,0,0,1,1.748-.566,2.85,2.85,0,0,1,1.362.313,2.609,2.609,0,0,1,.968.9,4.853,4.853,0,0,1,.6,1.436,9.554,9.554,0,0,1,.217,2.281,8.86,8.86,0,0,1-.349,2.742,3.437,3.437,0,0,1-1.044,1.613,2.677,2.677,0,0,1-1.754.569,2.648,2.648,0,0,1-2.192-1A6.358,6.358,0,0,1,206.533,21.349Zm1.218,0a6.047,6.047,0,0,0,.557,3.163,1.589,1.589,0,0,0,2.745,0,6.051,6.051,0,0,0,.557-3.16,6.048,6.048,0,0,0-.557-3.167,1.652,1.652,0,0,0-1.386-.783,1.52,1.52,0,0,0-1.3.691A6.123,6.123,0,0,0,207.751,21.349Z" transform="translate(-8.131 -16.292)"/><path class="cls-2" d="M214.032,21.349a8.817,8.817,0,0,1,.353-2.755,3.418,3.418,0,0,1,1.047-1.61,2.674,2.674,0,0,1,1.748-.566,2.85,2.85,0,0,1,1.362.313,2.609,2.609,0,0,1,.968.9,4.853,4.853,0,0,1,.6,1.436,9.554,9.554,0,0,1,.217,2.281,8.86,8.86,0,0,1-.349,2.742,3.437,3.437,0,0,1-1.044,1.613,2.677,2.677,0,0,1-1.754.569,2.648,2.648,0,0,1-2.192-1A6.358,6.358,0,0,1,214.032,21.349Zm1.218,0a6.047,6.047,0,0,0,.557,3.163,1.589,1.589,0,0,0,2.745,0,6.051,6.051,0,0,0,.557-3.16,6.048,6.048,0,0,0-.557-3.167,1.652,1.652,0,0,0-1.386-.783,1.52,1.52,0,0,0-1.3.691A6.123,6.123,0,0,0,215.25,21.349Z" transform="translate(-8.131 -16.292)"/><path class="cls-4" d="M180.856,44.259h3.858a11.165,11.165,0,0,1,1.708.1,2.506,2.506,0,0,1,1.008.4,2.477,2.477,0,0,1,.74.806,2.189,2.189,0,0,1,.3,1.129,2.292,2.292,0,0,1-1.356,2.094,2.541,2.541,0,0,1,1.356.875,2.327,2.327,0,0,1,.474,1.455,2.867,2.867,0,0,1-.307,1.28,2.568,2.568,0,0,1-.836.994,2.763,2.763,0,0,1-1.307.458q-.488.053-2.351.066h-3.285Zm1.949,1.606V48.1h1.277q1.138,0,1.415-.033a1.29,1.29,0,0,0,.787-.346,1.021,1.021,0,0,0,.286-.754,1.057,1.057,0,0,0-.247-.728,1.116,1.116,0,0,0-.734-.339q-.289-.033-1.665-.033Zm0,3.838v2.581h1.8a8.807,8.807,0,0,0,1.337-.06,1.209,1.209,0,0,0,.707-.385,1.184,1.184,0,0,0,.273-.82,1.258,1.258,0,0,0-.211-.737,1.189,1.189,0,0,0-.608-.441,6.641,6.641,0,0,0-1.729-.138Z" transform="translate(-8.131 -16.292)"/><path class="cls-4" d="M194.623,51.686l1.844.309a3.022,3.022,0,0,1-1.123,1.544,3.293,3.293,0,0,1-1.919.53,3.128,3.128,0,0,1-2.7-1.192,4,4,0,0,1-.691-2.41,3.857,3.857,0,0,1,.909-2.722,2.99,2.99,0,0,1,2.3-.984,3.105,3.105,0,0,1,2.463,1.03,4.563,4.563,0,0,1,.862,3.157h-4.635a1.87,1.87,0,0,0,.447,1.28,1.4,1.4,0,0,0,1.066.458,1.137,1.137,0,0,0,.731-.237A1.464,1.464,0,0,0,194.623,51.686Zm.105-1.87a1.778,1.778,0,0,0-.415-1.221,1.335,1.335,0,0,0-1.962.023,1.709,1.709,0,0,0-.388,1.2Z" transform="translate(-8.131 -16.292)"/><path class="cls-4" d="M201.279,46.919v1.475h-1.264v2.818a6.978,6.978,0,0,0,.036,1,.41.41,0,0,0,.164.233.524.524,0,0,0,.313.092,2.383,2.383,0,0,0,.743-.178l.158,1.435a3.67,3.67,0,0,1-1.461.277,2.32,2.32,0,0,1-.9-.168,1.315,1.315,0,0,1-.589-.435,1.723,1.723,0,0,1-.261-.721,9.061,9.061,0,0,1-.059-1.3V48.394h-.85V46.919h.85V45.53l1.856-1.08v2.469Z" transform="translate(-8.131 -16.292)"/><path class="cls-4" d="M203.946,49.052l-1.679-.3a2.612,2.612,0,0,1,.974-1.5,3.567,3.567,0,0,1,2.055-.487,4.422,4.422,0,0,1,1.843.293,1.841,1.841,0,0,1,.854.744,3.826,3.826,0,0,1,.246,1.656l-.02,2.159a7.471,7.471,0,0,0,.089,1.36,3.951,3.951,0,0,0,.333.938H206.81q-.072-.185-.178-.546c-.03-.11-.053-.182-.065-.217a3.351,3.351,0,0,1-1.014.691,2.912,2.912,0,0,1-1.152.23,2.384,2.384,0,0,1-1.7-.586A1.951,1.951,0,0,1,202.076,52a1.99,1.99,0,0,1,.283-1.057,1.848,1.848,0,0,1,.793-.711,6.222,6.222,0,0,1,1.472-.432,10.047,10.047,0,0,0,1.8-.454v-.184a.957.957,0,0,0-.264-.761,1.579,1.579,0,0,0-.994-.227,1.326,1.326,0,0,0-.771.194A1.348,1.348,0,0,0,203.946,49.052Zm2.476,1.5q-.356.118-1.126.283a3.4,3.4,0,0,0-1.008.323.772.772,0,0,0-.361.652.905.905,0,0,0,.289.671,1.012,1.012,0,0,0,.737.283,1.6,1.6,0,0,0,.955-.329,1.155,1.155,0,0,0,.44-.612,3.613,3.613,0,0,0,.073-.9Z" transform="translate(-8.131 -16.292)"/><path class="cls-2" d="M190.132,91.592h-1.186V84.041a6.144,6.144,0,0,1-1.122.816,7.962,7.962,0,0,1-1.248.612V84.324a7.149,7.149,0,0,0,1.738-1.132,4.443,4.443,0,0,0,1.054-1.29h.764Z" transform="translate(-8.131 -16.292)"/><path class="cls-2" d="M193.832,91.592v-1.35h1.35v1.35Z" transform="translate(-8.131 -16.292)"/><path class="cls-2" d="M196.913,86.833a8.817,8.817,0,0,1,.353-2.755,3.418,3.418,0,0,1,1.047-1.61,2.674,2.674,0,0,1,1.748-.566,2.85,2.85,0,0,1,1.362.313,2.609,2.609,0,0,1,.968.9,4.853,4.853,0,0,1,.6,1.436,9.554,9.554,0,0,1,.217,2.281,8.86,8.86,0,0,1-.349,2.742,3.437,3.437,0,0,1-1.044,1.613,2.677,2.677,0,0,1-1.754.569,2.648,2.648,0,0,1-2.192-1A6.358,6.358,0,0,1,196.913,86.833Zm1.218,0A6.047,6.047,0,0,0,198.688,90a1.589,1.589,0,0,0,2.745,0,6.051,6.051,0,0,0,.557-3.16,6.048,6.048,0,0,0-.557-3.167,1.652,1.652,0,0,0-1.386-.783,1.52,1.52,0,0,0-1.3.691A6.123,6.123,0,0,0,198.131,86.833Z" transform="translate(-8.131 -16.292)"/><path class="cls-2" d="M281.636,91.592H280.45V84.041a6.144,6.144,0,0,1-1.122.816,7.962,7.962,0,0,1-1.248.612V84.324a7.149,7.149,0,0,0,1.738-1.132,4.443,4.443,0,0,0,1.054-1.29h.764Z" transform="translate(-8.131 -16.292)"/><path class="cls-2" d="M285.336,91.592v-1.35h1.35v1.35Z" transform="translate(-8.131 -16.292)"/><path class="cls-2" d="M288.417,89.064l1.244-.1a2.232,2.232,0,0,0,.643,1.366,1.74,1.74,0,0,0,1.214.458,1.893,1.893,0,0,0,1.449-.646,2.433,2.433,0,0,0,.592-1.711,2.2,2.2,0,0,0-.569-1.6,1.987,1.987,0,0,0-1.491-.586,2.064,2.064,0,0,0-1.033.26,2,2,0,0,0-.725.675l-1.112-.145.935-4.958h4.8V83.2h-3.852L289.99,85.8a3.144,3.144,0,0,1,1.824-.606,2.887,2.887,0,0,1,2.133.876,3.06,3.06,0,0,1,.869,2.251,3.516,3.516,0,0,1-.764,2.265,3.06,3.06,0,0,1-2.535,1.172,3.122,3.122,0,0,1-2.149-.737A2.881,2.881,0,0,1,288.417,89.064Z" transform="translate(-8.131 -16.292)"/><line class="cls-1" x1="89.412" y1="43.278" x2="89.412" y2="61.492"/><line class="cls-1" x1="277.854" y1="43.278" x2="277.854" y2="61.492"/></svg>