<svg id="Layer_1" data-name="Layer 1" xmlns="http://www.w3.org/2000/svg" viewBox="0 0 313.978 380.048"><defs><style>.cls-1{fill:#4460ab;}.cls-1,.cls-2{stroke:#bcd1ec;stroke-miterlimit:10;stroke-width:0.5px;}.cls-2{fill:#bcd1ec;}.cls-3{fill:#231f20;}</style></defs><title>Details_Returns_Based_Style_Analysis_01</title><path class="cls-1" d="M172.257,205.977,196.772,51.19a156.716,156.716,0,1,1-24.516-1.929Z" transform="translate(-15.268 -15.801)"/><path class="cls-2" d="M172.257,205.977V49.261a137.7,137.7,0,0,1,24.516,1.929Z" transform="translate(-15.268 -15.801)"/><path class="cls-3" d="M160.426,22.732l1.969-.191A2.406,2.406,0,0,0,163.115,24a2.183,2.183,0,0,0,1.467.465,2.251,2.251,0,0,0,1.473-.414,1.229,1.229,0,0,0,.5-.967.91.91,0,0,0-.209-.6,1.659,1.659,0,0,0-.728-.434q-.356-.123-1.62-.437a5.494,5.494,0,0,1-2.283-.991,2.607,2.607,0,0,1-.923-2.017,2.572,2.572,0,0,1,.435-1.432,2.717,2.717,0,0,1,1.25-1.015,5.016,5.016,0,0,1,1.973-.349,4.228,4.228,0,0,1,2.84.827,2.918,2.918,0,0,1,1,2.208l-2.023.089a1.722,1.722,0,0,0-.557-1.111,2.043,2.043,0,0,0-1.282-.338,2.312,2.312,0,0,0-1.381.362.731.731,0,0,0-.321.622.771.771,0,0,0,.3.608,5.313,5.313,0,0,0,1.859.67,9.78,9.78,0,0,1,2.184.721,2.8,2.8,0,0,1,1.107,1.019,3.153,3.153,0,0,1-.078,3.209,2.869,2.869,0,0,1-1.354,1.118,5.679,5.679,0,0,1-2.181.366,4.342,4.342,0,0,1-2.919-.878A3.821,3.821,0,0,1,160.426,22.732Z" transform="translate(-15.268 -15.801)"/><path class="cls-3" d="M174.467,23.683l1.914.321a3.139,3.139,0,0,1-1.166,1.6,3.421,3.421,0,0,1-1.992.55,3.248,3.248,0,0,1-2.8-1.237,4.156,4.156,0,0,1-.718-2.5,4.008,4.008,0,0,1,.943-2.827,3.107,3.107,0,0,1,2.386-1.022,3.222,3.222,0,0,1,2.557,1.07,4.735,4.735,0,0,1,.9,3.278h-4.812a1.945,1.945,0,0,0,.465,1.33,1.452,1.452,0,0,0,1.107.475,1.176,1.176,0,0,0,.759-.246A1.517,1.517,0,0,0,174.467,23.683Zm.109-1.941a1.849,1.849,0,0,0-.431-1.268,1.321,1.321,0,0,0-1-.434,1.335,1.335,0,0,0-1.039.458,1.771,1.771,0,0,0-.4,1.244Z" transform="translate(-15.268 -15.801)"/><path class="cls-3" d="M178.049,25.993V15.972h1.921V25.993Z" transform="translate(-15.268 -15.801)"/><path class="cls-3" d="M186.143,23.683l1.914.321a3.139,3.139,0,0,1-1.166,1.6,3.421,3.421,0,0,1-1.992.55,3.248,3.248,0,0,1-2.8-1.237,4.156,4.156,0,0,1-.718-2.5,4.008,4.008,0,0,1,.943-2.827,3.107,3.107,0,0,1,2.386-1.022,3.222,3.222,0,0,1,2.557,1.07,4.735,4.735,0,0,1,.9,3.278h-4.812a1.945,1.945,0,0,0,.465,1.33,1.452,1.452,0,0,0,1.107.475,1.176,1.176,0,0,0,.759-.246A1.517,1.517,0,0,0,186.143,23.683Zm.109-1.941a1.849,1.849,0,0,0-.431-1.268,1.321,1.321,0,0,0-1-.434,1.335,1.335,0,0,0-1.039.458,1.771,1.771,0,0,0-.4,1.244Z" transform="translate(-15.268 -15.801)"/><path class="cls-3" d="M196.055,20.88l-1.894.342a1.377,1.377,0,0,0-.434-.854,1.313,1.313,0,0,0-.879-.287,1.433,1.433,0,0,0-1.145.5,2.537,2.537,0,0,0-.428,1.658,2.94,2.94,0,0,0,.434,1.825,1.428,1.428,0,0,0,1.166.533,1.294,1.294,0,0,0,.9-.311,1.871,1.871,0,0,0,.492-1.07l1.887.321a3.351,3.351,0,0,1-1.128,1.962,3.491,3.491,0,0,1-2.235.663,3.326,3.326,0,0,1-2.54-1,3.9,3.9,0,0,1-.946-2.782,3.9,3.9,0,0,1,.95-2.8,3.376,3.376,0,0,1,2.57-1,3.511,3.511,0,0,1,2.109.571A3.161,3.161,0,0,1,196.055,20.88Z" transform="translate(-15.268 -15.801)"/><path class="cls-3" d="M200.84,18.733v1.531h-1.312V23.19a7.432,7.432,0,0,0,.037,1.036.421.421,0,0,0,.172.243.537.537,0,0,0,.324.1,2.483,2.483,0,0,0,.772-.185L201,25.87a3.816,3.816,0,0,1-1.518.287,2.407,2.407,0,0,1-.937-.174,1.358,1.358,0,0,1-.611-.451,1.763,1.763,0,0,1-.271-.749,9.308,9.308,0,0,1-.062-1.354V20.265h-.882V18.733h.882V17.291l1.928-1.121v2.563Z" transform="translate(-15.268 -15.801)"/><path class="cls-3" d="M202.173,17.749V15.972h1.921v1.777Zm0,8.244v-7.26h1.921v7.26Z" transform="translate(-15.268 -15.801)"/><path class="cls-3" d="M205.618,22.261a3.927,3.927,0,0,1,.472-1.853,3.234,3.234,0,0,1,1.337-1.367,3.963,3.963,0,0,1,1.931-.472,3.624,3.624,0,0,1,2.7,1.07,3.7,3.7,0,0,1,1.053,2.7,3.743,3.743,0,0,1-1.062,2.731,3.6,3.6,0,0,1-2.677,1.083,4.214,4.214,0,0,1-1.9-.451,3.093,3.093,0,0,1-1.378-1.323A4.407,4.407,0,0,1,205.618,22.261Zm1.969.1a2.4,2.4,0,0,0,.513,1.654,1.677,1.677,0,0,0,2.526,0,2.442,2.442,0,0,0,.509-1.668,2.4,2.4,0,0,0-.509-1.641,1.677,1.677,0,0,0-2.526,0A2.4,2.4,0,0,0,207.587,22.363Z" transform="translate(-15.268 -15.801)"/><path class="cls-3" d="M221.218,25.993H219.3V22.288a5.726,5.726,0,0,0-.123-1.521,1.062,1.062,0,0,0-.4-.537,1.14,1.14,0,0,0-.666-.191,1.541,1.541,0,0,0-.9.273,1.38,1.38,0,0,0-.544.725,6.284,6.284,0,0,0-.146,1.668v3.288H214.6v-7.26h1.784V19.8a2.975,2.975,0,0,1,3.555-1,1.959,1.959,0,0,1,.8.584,2.114,2.114,0,0,1,.375.807,5.952,5.952,0,0,1,.106,1.292Z" transform="translate(-15.268 -15.801)"/><path class="cls-3" d="M182.167,41.009v1.784h-6.733a4.648,4.648,0,0,1,.656-1.917,12.755,12.755,0,0,1,2.16-2.4,13.587,13.587,0,0,0,1.593-1.641,2.111,2.111,0,0,0,.4-1.176,1.336,1.336,0,0,0-.346-.988,1.466,1.466,0,0,0-1.91.017,1.858,1.858,0,0,0-.41,1.2l-1.914-.191a3.14,3.14,0,0,1,1.073-2.276,3.6,3.6,0,0,1,2.256-.69,3.26,3.26,0,0,1,2.331.8,2.622,2.622,0,0,1,.848,1.989,3.475,3.475,0,0,1-.242,1.289,5.27,5.27,0,0,1-.77,1.282,12.272,12.272,0,0,1-1.258,1.278q-.91.834-1.152,1.107a3.356,3.356,0,0,0-.393.533Z" transform="translate(-15.268 -15.801)"/><path class="cls-3" d="M183.876,42.793V40.872H185.8v1.921Z" transform="translate(-15.268 -15.801)"/><path class="cls-3" d="M187.355,34.692V32.908h6.569V34.3a10.347,10.347,0,0,0-1.654,2.3,13.348,13.348,0,0,0-1.281,3.182,11.745,11.745,0,0,0-.435,3.011H188.7a12.909,12.909,0,0,1,.857-4.238,14.153,14.153,0,0,1,2.164-3.862Z" transform="translate(-15.268 -15.801)"/><path class="cls-3" d="M195.155,35.246a2.893,2.893,0,0,1,.591-2,2.061,2.061,0,0,1,1.6-.649,2.106,2.106,0,0,1,1.637.646,2.886,2.886,0,0,1,.592,2,2.888,2.888,0,0,1-.592,2,2.057,2.057,0,0,1-1.6.649,2.11,2.11,0,0,1-1.638-.646A2.891,2.891,0,0,1,195.155,35.246Zm1.5-.014a2.589,2.589,0,0,0,.226,1.313.544.544,0,0,0,.472.246.55.55,0,0,0,.479-.246,2.663,2.663,0,0,0,.219-1.312,2.619,2.619,0,0,0-.219-1.306.577.577,0,0,0-.95-.007A2.589,2.589,0,0,0,196.652,35.232Zm2.16,7.943h-1.422L202.729,32.6h1.381Zm3.1-2.632a2.888,2.888,0,0,1,.592-2,2.346,2.346,0,0,1,3.24,0,2.893,2.893,0,0,1,.591,2,2.905,2.905,0,0,1-.591,2,2.061,2.061,0,0,1-1.6.649,2.1,2.1,0,0,1-1.637-.649A2.9,2.9,0,0,1,201.916,40.544Zm1.5-.007a2.547,2.547,0,0,0,.226,1.306.54.54,0,0,0,.472.253.533.533,0,0,0,.472-.246,2.589,2.589,0,0,0,.226-1.312,2.663,2.663,0,0,0-.219-1.312.55.55,0,0,0-.479-.246.533.533,0,0,0-.472.246A2.589,2.589,0,0,0,203.413,40.537Z" transform="translate(-15.268 -15.801)"/><path class="cls-3" d="M132.45,375.385l1.969-.191a2.409,2.409,0,0,0,.721,1.456,2.185,2.185,0,0,0,1.467.465,2.248,2.248,0,0,0,1.473-.414,1.228,1.228,0,0,0,.5-.967.911.911,0,0,0-.209-.605,1.663,1.663,0,0,0-.728-.434q-.356-.123-1.62-.437a5.507,5.507,0,0,1-2.283-.991,2.608,2.608,0,0,1-.923-2.017,2.572,2.572,0,0,1,.435-1.433,2.716,2.716,0,0,1,1.25-1.015,5.016,5.016,0,0,1,1.973-.349,4.225,4.225,0,0,1,2.84.827,2.916,2.916,0,0,1,1,2.208l-2.023.089a1.722,1.722,0,0,0-.557-1.111,2.043,2.043,0,0,0-1.282-.338,2.308,2.308,0,0,0-1.381.362.73.73,0,0,0-.321.622.772.772,0,0,0,.3.608,5.324,5.324,0,0,0,1.859.67,9.81,9.81,0,0,1,2.184.721,2.806,2.806,0,0,1,1.107,1.019,3.154,3.154,0,0,1-.078,3.21,2.868,2.868,0,0,1-1.354,1.117,5.669,5.669,0,0,1-2.181.366,4.34,4.34,0,0,1-2.919-.879A3.818,3.818,0,0,1,132.45,375.385Z" transform="translate(-15.268 -15.801)"/><path class="cls-3" d="M145.616,371.386v1.531H144.3v2.926a7.423,7.423,0,0,0,.037,1.035.422.422,0,0,0,.172.243.54.54,0,0,0,.324.1,2.483,2.483,0,0,0,.772-.185l.164,1.49a3.816,3.816,0,0,1-1.518.287,2.407,2.407,0,0,1-.937-.175,1.358,1.358,0,0,1-.611-.451,1.761,1.761,0,0,1-.271-.748,9.317,9.317,0,0,1-.062-1.354v-3.165h-.882v-1.531h.882v-1.442l1.928-1.121v2.563Z" transform="translate(-15.268 -15.801)"/><path class="cls-3" d="M146.04,371.386h2.044l1.736,5.154,1.7-5.154H153.5l-2.563,6.986-.458,1.265a5.143,5.143,0,0,1-.482.971,2.114,2.114,0,0,1-.525.543,2.31,2.31,0,0,1-.732.325,3.809,3.809,0,0,1-.98.116,5.11,5.11,0,0,1-1.087-.116l-.171-1.5a4.305,4.305,0,0,0,.813.089,1.2,1.2,0,0,0,.991-.394,2.735,2.735,0,0,0,.492-1Z" transform="translate(-15.268 -15.801)"/><path class="cls-3" d="M154.735,378.646V368.624h1.921v10.021Z" transform="translate(-15.268 -15.801)"/><path class="cls-3" d="M162.829,376.335l1.914.321a3.137,3.137,0,0,1-1.166,1.6,3.418,3.418,0,0,1-1.992.551,3.25,3.25,0,0,1-2.8-1.237,4.158,4.158,0,0,1-.718-2.5,4.01,4.01,0,0,1,.943-2.827,3.108,3.108,0,0,1,2.386-1.021,3.223,3.223,0,0,1,2.557,1.069,4.737,4.737,0,0,1,.9,3.278h-4.812a1.944,1.944,0,0,0,.465,1.329,1.451,1.451,0,0,0,1.107.476,1.176,1.176,0,0,0,.759-.246A1.519,1.519,0,0,0,162.829,376.335Zm.109-1.941a1.851,1.851,0,0,0-.431-1.269,1.387,1.387,0,0,0-2.037.024,1.769,1.769,0,0,0-.4,1.244Z" transform="translate(-15.268 -15.801)"/><path class="cls-3" d="M129.463,393.128l1.859-.205a1.349,1.349,0,0,0,.355.841,1.057,1.057,0,0,0,.759.273,1.239,1.239,0,0,0,1.012-.547,4.653,4.653,0,0,0,.533-2.27,2.294,2.294,0,0,1-1.812.841,2.706,2.706,0,0,1-2.04-.913,3.326,3.326,0,0,1-.858-2.375,3.38,3.38,0,0,1,.905-2.458,3.28,3.28,0,0,1,4.81.246,6.1,6.1,0,0,1,.978,3.88,6.17,6.17,0,0,1-1.019,3.965,3.3,3.3,0,0,1-2.652,1.217,2.806,2.806,0,0,1-1.9-.626A3.017,3.017,0,0,1,129.463,393.128Zm4.348-4.2a2.194,2.194,0,0,0-.427-1.442,1.262,1.262,0,0,0-.988-.513,1.1,1.1,0,0,0-.885.42,2.141,2.141,0,0,0-.353,1.378,2.189,2.189,0,0,0,.383,1.425,1.223,1.223,0,0,0,1.89.018A1.907,1.907,0,0,0,133.811,388.931Z" transform="translate(-15.268 -15.801)"/><path class="cls-3" d="M137.208,387.345v-1.784h6.569v1.395a10.347,10.347,0,0,0-1.654,2.3,13.353,13.353,0,0,0-1.281,3.182,11.749,11.749,0,0,0-.435,3.012h-1.853a12.9,12.9,0,0,1,.857-4.238,14.146,14.146,0,0,1,2.164-3.862Z" transform="translate(-15.268 -15.801)"/><path class="cls-3" d="M145.4,395.445v-1.921h1.921v1.921Z" transform="translate(-15.268 -15.801)"/><path class="cls-3" d="M148.815,392.786l1.859-.226a1.764,1.764,0,0,0,.479,1.087,1.312,1.312,0,0,0,.943.376,1.294,1.294,0,0,0,1-.451,1.749,1.749,0,0,0,.407-1.217,1.63,1.63,0,0,0-.39-1.148,1.24,1.24,0,0,0-.95-.424,3.351,3.351,0,0,0-.882.144l.212-1.565a1.684,1.684,0,0,0,1.189-.339,1.2,1.2,0,0,0,.41-.953,1.09,1.09,0,0,0-.3-.807,1.077,1.077,0,0,0-.8-.3,1.155,1.155,0,0,0-.841.342,1.6,1.6,0,0,0-.424,1l-1.771-.3a3.963,3.963,0,0,1,.557-1.453,2.53,2.53,0,0,1,1.039-.854,3.5,3.5,0,0,1,1.494-.311,2.979,2.979,0,0,1,2.27.9,2.285,2.285,0,0,1-.738,3.773,2.33,2.33,0,0,1,1.377.827,2.4,2.4,0,0,1,.517,1.552,3.011,3.011,0,0,1-.964,2.249,3.6,3.6,0,0,1-4.655.146A3.076,3.076,0,0,1,148.815,392.786Z" transform="translate(-15.268 -15.801)"/><path class="cls-3" d="M156.684,387.9a2.892,2.892,0,0,1,.591-2,2.059,2.059,0,0,1,1.6-.649,2.106,2.106,0,0,1,1.637.646,3.669,3.669,0,0,1,0,4,2.059,2.059,0,0,1-1.6.649,2.11,2.11,0,0,1-1.638-.646A2.89,2.89,0,0,1,156.684,387.9Zm1.5-.014a2.591,2.591,0,0,0,.226,1.313.544.544,0,0,0,.472.246.55.55,0,0,0,.479-.246,2.665,2.665,0,0,0,.219-1.312,2.618,2.618,0,0,0-.219-1.306.577.577,0,0,0-.95-.007A2.586,2.586,0,0,0,158.181,387.885Zm2.16,7.943h-1.422l5.339-10.575h1.381Zm3.1-2.632a2.887,2.887,0,0,1,.592-2,2.346,2.346,0,0,1,3.24,0,3.679,3.679,0,0,1,0,4,2.063,2.063,0,0,1-1.6.649,2.1,2.1,0,0,1-1.637-.649A2.9,2.9,0,0,1,163.444,393.2Zm1.5-.007a2.548,2.548,0,0,0,.226,1.306.542.542,0,0,0,.472.253.533.533,0,0,0,.472-.246,2.591,2.591,0,0,0,.226-1.312,2.66,2.66,0,0,0-.219-1.312.55.55,0,0,0-.479-.246.533.533,0,0,0-.472.246A2.586,2.586,0,0,0,164.941,393.189Z" transform="translate(-15.268 -15.801)"/></svg>