<svg id="Layer_1" data-name="Layer 1" xmlns="http://www.w3.org/2000/svg" viewBox="0 0 464.975 322.588"><defs><style>.cls-1{fill:#fcf6ae;}.cls-10,.cls-11,.cls-12,.cls-14,.cls-2,.cls-3,.cls-4,.cls-8,.cls-9{fill:none;}.cls-2,.cls-3,.cls-8{stroke:#ed1c24;}.cls-10,.cls-11,.cls-12,.cls-13,.cls-14,.cls-2,.cls-3,.cls-4,.cls-8,.cls-9{stroke-miterlimit:10;}.cls-3{stroke-dasharray:12.142 12.142;}.cls-4{stroke:#000;}.cls-5{fill:#3c57a6;}.cls-6{fill:#3c56a6;}.cls-7{fill:#231f20;}.cls-8{stroke-dasharray:11.858 11.858;}.cls-10,.cls-11,.cls-9{stroke:#f26522;}.cls-10{stroke-dasharray:11.001 11.001;}.cls-11{stroke-dasharray:11.499 11.499;}.cls-12,.cls-14{stroke:#3c57a6;}.cls-12{stroke-width:2px;}.cls-13{fill:#3d57a7;stroke:#3d57a7;}</style></defs><title>The_CAPM_Security_Market_Line</title><rect class="cls-1" x="41.315" y="91.104" width="315.182" height="116.395"/><line class="cls-2" x1="40.946" y1="91.104" x2="46.946" y2="91.104"/><line class="cls-3" x1="59.088" y1="91.104" x2="344.426" y2="91.104"/><line class="cls-2" x1="350.497" y1="91.104" x2="356.497" y2="91.104"/><line class="cls-4" x1="40.946" y1="304.682" x2="40.946" y2="5.467"/><path class="cls-5" d="M77.531,33.53V23.079h4.634a6.175,6.175,0,0,1,2.125.281,2.326,2.326,0,0,1,1.162.995,2.971,2.971,0,0,1,.435,1.576,2.629,2.629,0,0,1-.72,1.875,3.647,3.647,0,0,1-2.225.97,3.6,3.6,0,0,1,.834.52,7.22,7.22,0,0,1,1.147,1.39l1.818,2.845H85l-1.383-2.174q-.606-.941-1-1.44a3.117,3.117,0,0,0-.7-.7,2.08,2.08,0,0,0-.631-.278,4.163,4.163,0,0,0-.77-.05h-1.6V33.53Zm1.383-5.839h2.973a4.453,4.453,0,0,0,1.482-.2,1.58,1.58,0,0,0,.813-.627,1.7,1.7,0,0,0,.278-.937,1.558,1.558,0,0,0-.538-1.219,2.519,2.519,0,0,0-1.7-.478H78.914Z" transform="translate(-29.084 -17.609)"/><path class="cls-5" d="M93.073,31.092l1.326.164a3.232,3.232,0,0,1-1.162,1.8,3.937,3.937,0,0,1-4.8-.381,4,4,0,0,1-.973-2.869,4.184,4.184,0,0,1,.984-2.966A3.329,3.329,0,0,1,91,25.788a3.238,3.238,0,0,1,2.481,1.034,4.107,4.107,0,0,1,.962,2.909c0,.076,0,.19-.007.342H88.788a2.911,2.911,0,0,0,.706,1.911,2.1,2.1,0,0,0,1.583.663,1.962,1.962,0,0,0,1.205-.371A2.465,2.465,0,0,0,93.073,31.092Zm-4.213-2.075h4.228a2.567,2.567,0,0,0-.485-1.433,1.967,1.967,0,0,0-1.59-.741,2.038,2.038,0,0,0-1.486.592A2.339,2.339,0,0,0,88.859,29.018Z" transform="translate(-29.084 -17.609)"/><path class="cls-5" d="M98.812,32.382,99,33.516a4.786,4.786,0,0,1-.97.114,2.2,2.2,0,0,1-1.083-.221,1.238,1.238,0,0,1-.542-.581,4.6,4.6,0,0,1-.157-1.515V26.957H95.3v-1h.941V24.084l1.276-.77v2.645h1.291v1H97.521v4.427a2.228,2.228,0,0,0,.068.706.533.533,0,0,0,.221.25.855.855,0,0,0,.438.093A4.114,4.114,0,0,0,98.812,32.382Z" transform="translate(-29.084 -17.609)"/><path class="cls-5" d="M105.028,33.53V32.418a2.771,2.771,0,0,1-2.4,1.283,3.066,3.066,0,0,1-1.251-.256,2.06,2.06,0,0,1-.862-.646,2.414,2.414,0,0,1-.4-.952,6.524,6.524,0,0,1-.078-1.2V25.959h1.283v4.2a7.5,7.5,0,0,0,.078,1.354,1.338,1.338,0,0,0,.514.795,1.59,1.59,0,0,0,.969.289,2.11,2.11,0,0,0,1.083-.3,1.643,1.643,0,0,0,.717-.805,4.044,4.044,0,0,0,.21-1.479V25.959h1.283V33.53Z" transform="translate(-29.084 -17.609)"/><path class="cls-5" d="M108.172,33.53V25.959h1.155v1.148a3.131,3.131,0,0,1,.816-1.062,1.423,1.423,0,0,1,.823-.257,2.5,2.5,0,0,1,1.319.414l-.442,1.19a1.834,1.834,0,0,0-.941-.278,1.224,1.224,0,0,0-.756.253,1.374,1.374,0,0,0-.478.7,5,5,0,0,0-.214,1.5V33.53Z" transform="translate(-29.084 -17.609)"/><path class="cls-5" d="M113.048,33.53V25.959H114.2v1.077a2.722,2.722,0,0,1,2.41-1.248,3.158,3.158,0,0,1,1.258.246,1.978,1.978,0,0,1,.859.645,2.479,2.479,0,0,1,.4.948,7.365,7.365,0,0,1,.071,1.248V33.53h-1.283V28.925a3.467,3.467,0,0,0-.149-1.173,1.239,1.239,0,0,0-.531-.62,1.692,1.692,0,0,0-.9-.231,2.08,2.08,0,0,0-1.415.52,2.568,2.568,0,0,0-.6,1.975V33.53Z" transform="translate(-29.084 -17.609)"/><path class="cls-6" d="M29.084,113.8l1.583-7.571h1.141l-.321,1.547a5.257,5.257,0,0,1,1.145-1.3,1.888,1.888,0,0,1,1.144-.42,2.249,2.249,0,0,1,.948.278l-.528,1.2a1.225,1.225,0,0,0-.734-.242,1.991,1.991,0,0,0-1.39.755,5.749,5.749,0,0,0-1.119,2.716L30.31,113.8Z" transform="translate(-29.084 -17.609)"/><path class="cls-6" d="M33.739,118.66l.923-4.414h.752l-.154.728a3.012,3.012,0,0,1,.75-.648,1.483,1.483,0,0,1,.717-.179,1.075,1.075,0,0,1,.688.218,1.03,1.03,0,0,1,.364.609,2.465,2.465,0,0,1,.708-.622,1.6,1.6,0,0,1,.784-.206,1.166,1.166,0,0,1,.829.262.966.966,0,0,1,.276.736,3.858,3.858,0,0,1-.1.673l-.594,2.843h-.752l.607-2.917a2.73,2.73,0,0,0,.079-.511.438.438,0,0,0-.137-.341.552.552,0,0,0-.387-.125,1.357,1.357,0,0,0-.686.2,1.476,1.476,0,0,0-.542.534,3.58,3.58,0,0,0-.339,1.016l-.449,2.141h-.752l.624-2.98a2.325,2.325,0,0,0,.066-.432.468.468,0,0,0-.135-.349.48.48,0,0,0-.352-.133,1.34,1.34,0,0,0-.671.2,1.6,1.6,0,0,0-.572.567,3.392,3.392,0,0,0-.361,1.037l-.437,2.086Z" transform="translate(-29.084 -17.609)"/><path class="cls-7" d="M47.189,108.13a2.413,2.413,0,0,1-1.183-.834,2.179,2.179,0,0,1-.385-1.3,2.538,2.538,0,0,1,.82-1.917,3.45,3.45,0,0,1,4.385.018,2.575,2.575,0,0,1,.834,1.936,2.135,2.135,0,0,1-.381,1.266,2.406,2.406,0,0,1-1.159.831,2.811,2.811,0,0,1,1.465,1.012,2.781,2.781,0,0,1,.5,1.668,3,3,0,0,1-.948,2.253,3.862,3.862,0,0,1-4.99,0,3.047,3.047,0,0,1-.948-2.285,2.763,2.763,0,0,1,.517-1.707A2.586,2.586,0,0,1,47.189,108.13Zm-.67,2.652a2.314,2.314,0,0,0,.26,1.062,1.833,1.833,0,0,0,.773.795,2.259,2.259,0,0,0,1.1.282,2.071,2.071,0,0,0,1.519-.592,2.023,2.023,0,0,0,.6-1.5,2.058,2.058,0,0,0-.617-1.533,2.112,2.112,0,0,0-1.543-.606,2.041,2.041,0,0,0-2.1,2.1Zm.414-4.826a1.628,1.628,0,0,0,.478,1.212,1.692,1.692,0,0,0,1.24.47,1.659,1.659,0,0,0,1.216-.467,1.544,1.544,0,0,0,.474-1.144,1.6,1.6,0,0,0-.488-1.187,1.794,1.794,0,0,0-2.435-.011A1.514,1.514,0,0,0,46.933,105.956Z" transform="translate(-29.084 -17.609)"/><path class="cls-7" d="M53.577,105.856a3.177,3.177,0,0,1,.563-1.9,1.884,1.884,0,0,1,1.632-.784,2.117,2.117,0,0,1,1.629.7,3.574,3.574,0,0,1-.007,4.106,2.089,2.089,0,0,1-1.607.716,2.03,2.03,0,0,1-1.579-.706A3.116,3.116,0,0,1,53.577,105.856Zm2.231-1.8a.966.966,0,0,0-.795.414,2.621,2.621,0,0,0-.317,1.519,2.354,2.354,0,0,0,.321,1.415.976.976,0,0,0,1.593,0,2.6,2.6,0,0,0,.317-1.511,2.371,2.371,0,0,0-.321-1.422A.978.978,0,0,0,55.808,104.052Zm.007,10.13,5.718-11.014h1.041l-5.7,11.014Zm4.52-2.837a3.173,3.173,0,0,1,.563-1.907,1.9,1.9,0,0,1,1.64-.781,2.118,2.118,0,0,1,1.629.7,3.573,3.573,0,0,1-.007,4.106,2.1,2.1,0,0,1-1.615.716,2.025,2.025,0,0,1-1.579-.709A3.118,3.118,0,0,1,60.335,111.345Zm2.238-1.8a.971.971,0,0,0-.8.413,2.618,2.618,0,0,0-.317,1.519,2.356,2.356,0,0,0,.321,1.412.968.968,0,0,0,.792.414.978.978,0,0,0,.809-.414,2.6,2.6,0,0,0,.317-1.511,2.371,2.371,0,0,0-.321-1.422A.976.976,0,0,0,62.574,109.542Z" transform="translate(-29.084 -17.609)"/><path class="cls-5" d="M31.708,189.9V182.33h1.155v1.148a3.131,3.131,0,0,1,.816-1.062,1.423,1.423,0,0,1,.823-.257,2.5,2.5,0,0,1,1.319.414l-.442,1.19a1.834,1.834,0,0,0-.941-.278,1.224,1.224,0,0,0-.756.253,1.374,1.374,0,0,0-.478.7,5,5,0,0,0-.214,1.5V189.9Z" transform="translate(-29.084 -17.609)"/><path class="cls-5" d="M36.188,189.53v-.86h.748v.86Zm0,5.233v-4.414h.748v4.414Z" transform="translate(-29.084 -17.609)"/><path class="cls-7" d="M45.213,187.164l1.348-.114a2.413,2.413,0,0,0,.695,1.479,1.887,1.887,0,0,0,1.315.5,2.049,2.049,0,0,0,1.568-.7,2.633,2.633,0,0,0,.642-1.854,2.38,2.38,0,0,0-.617-1.732,2.151,2.151,0,0,0-1.615-.634,2.234,2.234,0,0,0-1.119.282,2.168,2.168,0,0,0-.784.73l-1.205-.157,1.013-5.368h5.2v1.226H47.48l-.563,2.809a3.4,3.4,0,0,1,1.975-.656,3.128,3.128,0,0,1,2.31.948,3.314,3.314,0,0,1,.941,2.438,3.805,3.805,0,0,1-.827,2.452,3.312,3.312,0,0,1-2.745,1.269,3.381,3.381,0,0,1-2.328-.8A3.115,3.115,0,0,1,45.213,187.164Z" transform="translate(-29.084 -17.609)"/><path class="cls-7" d="M53.576,181.959a3.177,3.177,0,0,1,.563-1.9,1.884,1.884,0,0,1,1.632-.784,2.117,2.117,0,0,1,1.629.7,3.574,3.574,0,0,1-.007,4.106,2.089,2.089,0,0,1-1.607.716,2.03,2.03,0,0,1-1.579-.706A3.116,3.116,0,0,1,53.576,181.959Zm2.231-1.8a.966.966,0,0,0-.795.414,2.621,2.621,0,0,0-.317,1.519,2.354,2.354,0,0,0,.321,1.415.976.976,0,0,0,1.593,0,2.6,2.6,0,0,0,.317-1.511,2.371,2.371,0,0,0-.321-1.422A.978.978,0,0,0,55.807,180.156Zm.007,10.13,5.718-11.014h1.041l-5.7,11.014Zm4.52-2.837a3.173,3.173,0,0,1,.563-1.907,1.9,1.9,0,0,1,1.64-.781,2.118,2.118,0,0,1,1.629.7,3.573,3.573,0,0,1-.007,4.106,2.1,2.1,0,0,1-1.615.716,2.025,2.025,0,0,1-1.579-.709A3.118,3.118,0,0,1,60.334,187.449Zm2.238-1.8a.971.971,0,0,0-.8.413,2.618,2.618,0,0,0-.317,1.519,2.356,2.356,0,0,0,.321,1.412.968.968,0,0,0,.792.414.978.978,0,0,0,.809-.414,2.6,2.6,0,0,0,.317-1.511,2.371,2.371,0,0,0-.321-1.422A.976.976,0,0,0,62.573,185.646Z" transform="translate(-29.084 -17.609)"/><path class="cls-5" d="M166.395,332.142a9.559,9.559,0,0,1,.381-2.983,3.712,3.712,0,0,1,1.134-1.743,2.894,2.894,0,0,1,1.893-.613,3.09,3.09,0,0,1,1.476.339,2.816,2.816,0,0,1,1.048.977,5.25,5.25,0,0,1,.648,1.554,10.338,10.338,0,0,1,.235,2.471,9.582,9.582,0,0,1-.378,2.969,3.711,3.711,0,0,1-1.13,1.747,2.9,2.9,0,0,1-1.9.617,2.867,2.867,0,0,1-2.374-1.084A6.89,6.89,0,0,1,166.395,332.142Zm1.319,0a6.552,6.552,0,0,0,.6,3.426,1.721,1.721,0,0,0,2.973,0,10.037,10.037,0,0,0,0-6.851,1.786,1.786,0,0,0-1.5-.849,1.644,1.644,0,0,0-1.412.748A6.633,6.633,0,0,0,167.713,332.142Z" transform="translate(-29.084 -17.609)"/><path class="cls-5" d="M175.235,337.3v-1.462H176.7V337.3Z" transform="translate(-29.084 -17.609)"/><path class="cls-5" d="M185.315,336.063V337.3h-6.908a2.276,2.276,0,0,1,.15-.892,4.721,4.721,0,0,1,.845-1.39,13.29,13.29,0,0,1,1.679-1.583,14.224,14.224,0,0,0,2.3-2.213,2.654,2.654,0,0,0,.6-1.544,1.717,1.717,0,0,0-.545-1.287,1.971,1.971,0,0,0-1.422-.523,2.006,2.006,0,0,0-1.483.556,2.1,2.1,0,0,0-.563,1.54l-1.319-.136a3.243,3.243,0,0,1,1.02-2.249,3.476,3.476,0,0,1,2.374-.773,3.315,3.315,0,0,1,2.381.834,2.74,2.74,0,0,1,.877,2.067,3.126,3.126,0,0,1-.257,1.233,4.768,4.768,0,0,1-.852,1.276,20.766,20.766,0,0,1-1.978,1.839q-1.155.97-1.483,1.315a4.233,4.233,0,0,0-.542.7Z" transform="translate(-29.084 -17.609)"/><path class="cls-5" d="M186.691,334.559l1.348-.114a2.413,2.413,0,0,0,.695,1.479,1.889,1.889,0,0,0,1.315.5,2.048,2.048,0,0,0,1.568-.7,2.634,2.634,0,0,0,.642-1.854,2.379,2.379,0,0,0-.617-1.732,2.151,2.151,0,0,0-1.615-.635,2.238,2.238,0,0,0-1.119.281,2.174,2.174,0,0,0-.784.731l-1.205-.157,1.013-5.368h5.2v1.227h-4.17l-.563,2.809a3.4,3.4,0,0,1,1.975-.656,3.128,3.128,0,0,1,2.31.948,3.314,3.314,0,0,1,.941,2.438,3.807,3.807,0,0,1-.827,2.452,3.313,3.313,0,0,1-2.745,1.27,3.381,3.381,0,0,1-2.328-.8A3.114,3.114,0,0,1,186.691,334.559Z" transform="translate(-29.084 -17.609)"/><path class="cls-5" d="M386.961,337.3h-1.283v-8.177a6.651,6.651,0,0,1-1.216.884,8.578,8.578,0,0,1-1.351.663v-1.24a7.748,7.748,0,0,0,1.882-1.227,4.824,4.824,0,0,0,1.141-1.4h.827Z" transform="translate(-29.084 -17.609)"/><path class="cls-5" d="M424.454,337.3V326.845h3.921a4.847,4.847,0,0,1,1.922.317,2.472,2.472,0,0,1,1.133.977,2.573,2.573,0,0,1,.41,1.379,2.373,2.373,0,0,1-.363,1.263,2.594,2.594,0,0,1-1.1.955,2.727,2.727,0,0,1,1.457.948,2.536,2.536,0,0,1,.51,1.582,3.044,3.044,0,0,1-.31,1.365,2.654,2.654,0,0,1-.767.974,3.2,3.2,0,0,1-1.145.517,6.964,6.964,0,0,1-1.686.175Zm1.383-6.06h2.26a5.038,5.038,0,0,0,1.319-.121,1.469,1.469,0,0,0,.795-.521,1.5,1.5,0,0,0,.268-.913,1.676,1.676,0,0,0-.25-.916,1.265,1.265,0,0,0-.713-.542,5.992,5.992,0,0,0-1.59-.146h-2.089Zm0,4.826h2.6a6,6,0,0,0,.94-.05,2.255,2.255,0,0,0,.8-.285,1.513,1.513,0,0,0,.527-.581,1.82,1.82,0,0,0,.207-.881,1.733,1.733,0,0,0-.3-1.016,1.579,1.579,0,0,0-.83-.605,5.128,5.128,0,0,0-1.529-.175h-2.417Z" transform="translate(-29.084 -17.609)"/><path class="cls-5" d="M439.269,334.857l1.326.164a3.238,3.238,0,0,1-1.162,1.8,3.938,3.938,0,0,1-4.8-.381,4,4,0,0,1-.973-2.87,4.184,4.184,0,0,1,.983-2.966,3.331,3.331,0,0,1,2.552-1.055,3.237,3.237,0,0,1,2.481,1.034,4.1,4.1,0,0,1,.962,2.908c0,.076,0,.19-.007.342h-5.646a2.914,2.914,0,0,0,.706,1.911,2.1,2.1,0,0,0,1.583.663,1.96,1.96,0,0,0,1.2-.371A2.462,2.462,0,0,0,439.269,334.857Zm-4.214-2.074h4.228a2.565,2.565,0,0,0-.484-1.433,1.968,1.968,0,0,0-1.59-.742,2.037,2.037,0,0,0-1.486.592A2.346,2.346,0,0,0,435.055,332.783Z" transform="translate(-29.084 -17.609)"/><path class="cls-5" d="M445.008,336.148l.185,1.133a4.755,4.755,0,0,1-.97.114,2.192,2.192,0,0,1-1.083-.221,1.236,1.236,0,0,1-.542-.581,4.594,4.594,0,0,1-.157-1.515v-4.356h-.94v-1h.94V327.85l1.276-.77v2.645h1.291v1h-1.291v4.428a2.2,2.2,0,0,0,.068.705.531.531,0,0,0,.221.25.854.854,0,0,0,.438.093A4.193,4.193,0,0,0,445.008,336.148Z" transform="translate(-29.084 -17.609)"/><path class="cls-5" d="M451.2,336.362a4.816,4.816,0,0,1-1.373.855,3.971,3.971,0,0,1-1.415.249,2.754,2.754,0,0,1-1.918-.609,2.013,2.013,0,0,1-.67-1.558,2.111,2.111,0,0,1,.916-1.754,3.128,3.128,0,0,1,.924-.421,9.33,9.33,0,0,1,1.141-.192,11.7,11.7,0,0,0,2.288-.441c0-.176.007-.288.007-.335a1.418,1.418,0,0,0-.363-1.105,2.147,2.147,0,0,0-1.461-.435,2.261,2.261,0,0,0-1.337.317,1.931,1.931,0,0,0-.639,1.122l-1.254-.171a3.1,3.1,0,0,1,.563-1.3,2.47,2.47,0,0,1,1.134-.763,5.04,5.04,0,0,1,1.718-.268,4.545,4.545,0,0,1,1.576.229,2.073,2.073,0,0,1,.891.573,2.015,2.015,0,0,1,.4.874,7.174,7.174,0,0,1,.064,1.183v1.711a18.142,18.142,0,0,0,.082,2.264,2.843,2.843,0,0,0,.324.909h-1.341A2.707,2.707,0,0,1,451.2,336.362ZM451.1,333.5a9.382,9.382,0,0,1-2.1.484,4.86,4.86,0,0,0-1.119.257,1.125,1.125,0,0,0-.507.417,1.1,1.1,0,0,0-.178.609,1.089,1.089,0,0,0,.389.855,1.668,1.668,0,0,0,1.137.343,2.655,2.655,0,0,0,1.319-.324,2,2,0,0,0,.848-.888,3.1,3.1,0,0,0,.207-1.283Z" transform="translate(-29.084 -17.609)"/><path class="cls-5" d="M457.313,340.2l1.868-8.868a15.806,15.806,0,0,1,.737-2.646,3.354,3.354,0,0,1,1.17-1.437,3.209,3.209,0,0,1,1.921-.581,2.559,2.559,0,0,1,1.86.663,2.291,2.291,0,0,1,.721,1.747,2.33,2.33,0,0,1-.6,1.633,2.92,2.92,0,0,1-1.461.877,2.765,2.765,0,0,1,1.768,2.559,3.493,3.493,0,0,1-.869,2.274,3.028,3.028,0,0,1-2.467,1.048,2.927,2.927,0,0,1-1.486-.331,3.314,3.314,0,0,1-1.017-.966l-.884,4.027Zm4.342-9.019a3.19,3.19,0,0,0,2.053-.62,1.872,1.872,0,0,0,.692-1.482,1.293,1.293,0,0,0-.4-.97,1.321,1.321,0,0,0-.948-.385,1.93,1.93,0,0,0-1.476.734,4.89,4.89,0,0,0-.963,2.267l-.492,2.346a7.736,7.736,0,0,0-.185,1.482,1.893,1.893,0,0,0,.612,1.5,2,2,0,0,0,1.354.542,1.953,1.953,0,0,0,1.537-.734,2.614,2.614,0,0,0,.631-1.761q0-2.052-2.6-2.053Z" transform="translate(-29.084 -17.609)"/><polygon points="37.79 5.467 40.946 0 44.103 5.467 37.79 5.467"/><polygon points="429.94 300.983 435.407 304.14 429.94 307.296 429.94 300.983"/><line class="cls-2" x1="356.497" y1="304.682" x2="356.497" y2="298.682"/><line class="cls-8" x1="356.497" y1="286.825" x2="356.497" y2="103.033"/><line class="cls-2" x1="356.497" y1="97.104" x2="356.497" y2="91.104"/><line class="cls-9" x1="40.743" y1="166.769" x2="46.743" y2="166.769"/><line class="cls-10" x1="57.744" y1="166.769" x2="140.25" y2="166.769"/><line class="cls-9" x1="145.75" y1="166.769" x2="151.75" y2="166.769"/><line class="cls-9" x1="151.75" y1="304.682" x2="151.75" y2="298.682"/><line class="cls-11" x1="151.75" y1="287.184" x2="151.75" y2="177.946"/><line class="cls-9" x1="151.75" y1="172.197" x2="151.75" y2="166.197"/><path class="cls-5" d="M30.217,229.416v-7.571h1.155v1.148a3.131,3.131,0,0,1,.816-1.062,1.423,1.423,0,0,1,.823-.257,2.5,2.5,0,0,1,1.319.414l-.442,1.19a1.834,1.834,0,0,0-.941-.278,1.224,1.224,0,0,0-.756.253,1.374,1.374,0,0,0-.478.7,5,5,0,0,0-.214,1.5v3.964Z" transform="translate(-29.084 -17.609)"/><path class="cls-5" d="M34.87,234.278v-3.832h-.661v-.582h.661v-.47a2.052,2.052,0,0,1,.079-.661.955.955,0,0,1,.38-.472,1.369,1.369,0,0,1,.763-.181,3.668,3.668,0,0,1,.7.075l-.112.652a2.5,2.5,0,0,0-.44-.042.655.655,0,0,0-.482.146.788.788,0,0,0-.141.544v.407h.86v.582h-.86v3.832Z" transform="translate(-29.084 -17.609)"/><path class="cls-7" d="M49.328,229.416v-2.5H44.794v-1.176l4.769-6.772h1.048v6.772h1.411v1.176H50.611v2.5Zm0-3.679v-4.712l-3.272,4.712Z" transform="translate(-29.084 -17.609)"/><path class="cls-7" d="M53.577,221.474a3.177,3.177,0,0,1,.563-1.9,1.884,1.884,0,0,1,1.632-.784,2.117,2.117,0,0,1,1.629.7,3.574,3.574,0,0,1-.007,4.106,2.089,2.089,0,0,1-1.607.716,2.03,2.03,0,0,1-1.579-.706A3.116,3.116,0,0,1,53.577,221.474Zm2.231-1.8a.966.966,0,0,0-.795.414A2.621,2.621,0,0,0,54.7,221.6a2.354,2.354,0,0,0,.321,1.415.976.976,0,0,0,1.593,0,2.6,2.6,0,0,0,.317-1.511,2.371,2.371,0,0,0-.321-1.422A.978.978,0,0,0,55.808,219.67Zm.007,10.13,5.718-11.014h1.041l-5.7,11.014Zm4.52-2.837a3.173,3.173,0,0,1,.563-1.907,1.9,1.9,0,0,1,1.64-.781,2.118,2.118,0,0,1,1.629.7,3.573,3.573,0,0,1-.007,4.106,2.1,2.1,0,0,1-1.615.716,2.025,2.025,0,0,1-1.579-.709A3.118,3.118,0,0,1,60.335,226.963Zm2.238-1.8a.971.971,0,0,0-.8.413,2.618,2.618,0,0,0-.317,1.519,2.356,2.356,0,0,0,.321,1.412.968.968,0,0,0,.792.414.978.978,0,0,0,.809-.414,2.6,2.6,0,0,0,.317-1.511,2.371,2.371,0,0,0-.321-1.422A.976.976,0,0,0,62.574,225.16Z" transform="translate(-29.084 -17.609)"/><path class="cls-5" d="M62.516,332.142a9.559,9.559,0,0,1,.381-2.983,3.712,3.712,0,0,1,1.134-1.743,2.894,2.894,0,0,1,1.893-.613,3.09,3.09,0,0,1,1.476.339,2.816,2.816,0,0,1,1.048.977,5.25,5.25,0,0,1,.648,1.554,10.338,10.338,0,0,1,.235,2.471,9.582,9.582,0,0,1-.378,2.969,3.711,3.711,0,0,1-1.13,1.747,2.9,2.9,0,0,1-1.9.617,2.867,2.867,0,0,1-2.374-1.084A6.89,6.89,0,0,1,62.516,332.142Zm1.319,0a6.552,6.552,0,0,0,.6,3.426,1.721,1.721,0,0,0,2.973,0,10.037,10.037,0,0,0,0-6.851,1.786,1.786,0,0,0-1.5-.849,1.644,1.644,0,0,0-1.412.748A6.633,6.633,0,0,0,63.834,332.142Z" transform="translate(-29.084 -17.609)"/><line class="cls-12" x1="40.946" y1="207.5" x2="429.94" y2="64.791"/><line class="cls-4" x1="429.94" y1="304.14" x2="40.346" y2="304.14"/><path class="cls-5" d="M335.133,62.239l1.3-.114a2.88,2.88,0,0,0,.431,1.287,2.351,2.351,0,0,0,1.052.813,3.979,3.979,0,0,0,1.6.311,3.84,3.84,0,0,0,1.4-.235,1.937,1.937,0,0,0,.9-.646,1.5,1.5,0,0,0,.3-.895,1.363,1.363,0,0,0-.285-.859,2.113,2.113,0,0,0-.941-.617,18.341,18.341,0,0,0-1.86-.51,9.518,9.518,0,0,1-2.018-.652,2.833,2.833,0,0,1-1.116-.973,2.39,2.39,0,0,1-.367-1.3,2.66,2.66,0,0,1,.449-1.479,2.786,2.786,0,0,1,1.313-1.044,4.968,4.968,0,0,1,1.917-.356,5.238,5.238,0,0,1,2.05.374,2.955,2.955,0,0,1,1.365,1.1,3.171,3.171,0,0,1,.514,1.647l-1.326.1a2.139,2.139,0,0,0-.724-1.5,2.817,2.817,0,0,0-1.821-.506,2.924,2.924,0,0,0-1.829.46,1.378,1.378,0,0,0-.573,1.109,1.187,1.187,0,0,0,.406.927,5.5,5.5,0,0,0,2.085.745,13.817,13.817,0,0,1,2.313.667,3.172,3.172,0,0,1,1.348,1.066,2.6,2.6,0,0,1,.435,1.486,2.845,2.845,0,0,1-.478,1.572,3.147,3.147,0,0,1-1.372,1.147,4.783,4.783,0,0,1-2.015.41,6.006,6.006,0,0,1-2.377-.414,3.331,3.331,0,0,1-1.5-1.244A3.523,3.523,0,0,1,335.133,62.239Z" transform="translate(-29.084 -17.609)"/><path class="cls-5" d="M350.36,63.159l1.326.164a3.24,3.24,0,0,1-1.162,1.8,3.937,3.937,0,0,1-4.8-.381,4,4,0,0,1-.973-2.869,4.181,4.181,0,0,1,.983-2.966,3.33,3.33,0,0,1,2.552-1.055,3.238,3.238,0,0,1,2.481,1.034,4.107,4.107,0,0,1,.962,2.909c0,.076,0,.19-.007.342h-5.646a2.913,2.913,0,0,0,.706,1.911,2.1,2.1,0,0,0,1.583.663,1.957,1.957,0,0,0,1.2-.371A2.463,2.463,0,0,0,350.36,63.159Zm-4.214-2.075h4.228a2.567,2.567,0,0,0-.484-1.433,1.967,1.967,0,0,0-1.59-.741,2.037,2.037,0,0,0-1.486.592A2.344,2.344,0,0,0,346.146,61.084Z" transform="translate(-29.084 -17.609)"/><path class="cls-5" d="M358.238,62.823l1.262.164a3.279,3.279,0,0,1-1.059,2.042,3.084,3.084,0,0,1-2.093.738,3.251,3.251,0,0,1-2.5-1.016,4.121,4.121,0,0,1-.944-2.912,5.277,5.277,0,0,1,.406-2.146,2.834,2.834,0,0,1,1.237-1.379,3.666,3.666,0,0,1,1.807-.46,3.143,3.143,0,0,1,2.018.624,2.86,2.86,0,0,1,1.006,1.772l-1.248.192a2.074,2.074,0,0,0-.631-1.148,1.635,1.635,0,0,0-1.095-.385,1.991,1.991,0,0,0-1.575.695,3.3,3.3,0,0,0-.605,2.2,3.41,3.41,0,0,0,.584,2.217,1.9,1.9,0,0,0,1.525.692,1.8,1.8,0,0,0,1.263-.463A2.307,2.307,0,0,0,358.238,62.823Z" transform="translate(-29.084 -17.609)"/><path class="cls-5" d="M365.559,65.6V64.484a2.77,2.77,0,0,1-2.4,1.283,3.067,3.067,0,0,1-1.251-.256,2.057,2.057,0,0,1-.862-.646,2.393,2.393,0,0,1-.4-.952,6.46,6.46,0,0,1-.079-1.2V58.025h1.283v4.2a7.421,7.421,0,0,0,.079,1.354,1.337,1.337,0,0,0,.513.795,1.593,1.593,0,0,0,.97.289,2.115,2.115,0,0,0,1.084-.3,1.641,1.641,0,0,0,.716-.805,4.032,4.032,0,0,0,.211-1.479V58.025h1.283V65.6Z" transform="translate(-29.084 -17.609)"/><path class="cls-5" d="M368.7,65.6V58.025h1.155v1.148a3.125,3.125,0,0,1,.815-1.062,1.426,1.426,0,0,1,.824-.257,2.5,2.5,0,0,1,1.318.414l-.441,1.19a1.838,1.838,0,0,0-.941-.278,1.225,1.225,0,0,0-.756.253,1.368,1.368,0,0,0-.478.7,5,5,0,0,0-.214,1.5V65.6Z" transform="translate(-29.084 -17.609)"/><path class="cls-5" d="M373.587,56.621V55.146h1.283v1.476Zm0,8.976V58.025h1.283V65.6Z" transform="translate(-29.084 -17.609)"/><path class="cls-5" d="M379.626,64.449l.185,1.134a4.786,4.786,0,0,1-.97.114,2.2,2.2,0,0,1-1.083-.221,1.238,1.238,0,0,1-.542-.581,4.6,4.6,0,0,1-.157-1.515V59.023h-.94v-1h.94V56.15l1.276-.77v2.645h1.291v1h-1.291v4.427a2.207,2.207,0,0,0,.068.706.532.532,0,0,0,.221.25.854.854,0,0,0,.438.093A4.127,4.127,0,0,0,379.626,64.449Z" transform="translate(-29.084 -17.609)"/><path class="cls-5" d="M380.823,68.513l-.143-1.205a2.856,2.856,0,0,0,.734.114,1.413,1.413,0,0,0,.685-.143,1.172,1.172,0,0,0,.421-.4,6.411,6.411,0,0,0,.392-.955c.023-.071.062-.176.114-.314l-2.873-7.585h1.383l1.575,4.385q.308.833.55,1.753a17.126,17.126,0,0,1,.527-1.725l1.618-4.413h1.283l-2.88,7.7a15.1,15.1,0,0,1-.721,1.718,2.527,2.527,0,0,1-.784.93,1.85,1.85,0,0,1-1.055.3A2.575,2.575,0,0,1,380.823,68.513Z" transform="translate(-29.084 -17.609)"/><path class="cls-5" d="M392.358,65.6V55.146h2.081l2.474,7.4q.343,1.033.5,1.547.179-.57.557-1.675l2.5-7.271h1.861V65.6H401V56.849L397.962,65.6h-1.248l-3.022-8.9v8.9Z" transform="translate(-29.084 -17.609)"/><path class="cls-5" d="M409.34,64.663a4.773,4.773,0,0,1-1.373.855,3.96,3.96,0,0,1-1.415.25,2.754,2.754,0,0,1-1.918-.609,2.013,2.013,0,0,1-.67-1.558,2.109,2.109,0,0,1,.916-1.754,3.127,3.127,0,0,1,.924-.42,9.142,9.142,0,0,1,1.141-.192,11.689,11.689,0,0,0,2.288-.442c0-.176.007-.287.007-.335a1.417,1.417,0,0,0-.363-1.1,2.147,2.147,0,0,0-1.461-.435,2.265,2.265,0,0,0-1.337.317,1.935,1.935,0,0,0-.639,1.123l-1.254-.171a3.1,3.1,0,0,1,.563-1.3,2.47,2.47,0,0,1,1.134-.763,5.053,5.053,0,0,1,1.718-.267,4.558,4.558,0,0,1,1.576.228,2.083,2.083,0,0,1,.891.574,2.02,2.02,0,0,1,.4.874,7.2,7.2,0,0,1,.064,1.184v1.711a18.143,18.143,0,0,0,.082,2.263,2.843,2.843,0,0,0,.324.909H409.6A2.707,2.707,0,0,1,409.34,64.663Zm-.107-2.866a9.433,9.433,0,0,1-2.1.485,4.866,4.866,0,0,0-1.119.256,1.12,1.12,0,0,0-.507.417,1.135,1.135,0,0,0,.211,1.465,1.671,1.671,0,0,0,1.137.342,2.65,2.65,0,0,0,1.319-.325,1.994,1.994,0,0,0,.848-.887,3.1,3.1,0,0,0,.207-1.283Z" transform="translate(-29.084 -17.609)"/><path class="cls-5" d="M412.5,65.6V58.025h1.155v1.148a3.125,3.125,0,0,1,.815-1.062,1.426,1.426,0,0,1,.824-.257,2.5,2.5,0,0,1,1.318.414l-.441,1.19a1.838,1.838,0,0,0-.941-.278,1.225,1.225,0,0,0-.756.253,1.368,1.368,0,0,0-.478.7,5,5,0,0,0-.214,1.5V65.6Z" transform="translate(-29.084 -17.609)"/><path class="cls-5" d="M417.389,65.6V55.146h1.283v5.96l3.037-3.08h1.661l-2.895,2.809,3.187,4.762h-1.583l-2.5-3.871-.905.87v3Z" transform="translate(-29.084 -17.609)"/><path class="cls-5" d="M429.864,63.159l1.326.164a3.24,3.24,0,0,1-1.162,1.8,3.937,3.937,0,0,1-4.8-.381,4,4,0,0,1-.973-2.869,4.181,4.181,0,0,1,.983-2.966,3.33,3.33,0,0,1,2.552-1.055,3.238,3.238,0,0,1,2.481,1.034,4.107,4.107,0,0,1,.962,2.909c0,.076,0,.19-.007.342h-5.646a2.913,2.913,0,0,0,.706,1.911,2.1,2.1,0,0,0,1.583.663,1.957,1.957,0,0,0,1.2-.371A2.463,2.463,0,0,0,429.864,63.159Zm-4.214-2.075h4.228a2.567,2.567,0,0,0-.484-1.433,1.967,1.967,0,0,0-1.59-.741,2.037,2.037,0,0,0-1.486.592A2.344,2.344,0,0,0,425.65,61.084Z" transform="translate(-29.084 -17.609)"/><path class="cls-5" d="M435.6,64.449l.185,1.134a4.786,4.786,0,0,1-.97.114,2.2,2.2,0,0,1-1.083-.221,1.238,1.238,0,0,1-.542-.581,4.6,4.6,0,0,1-.157-1.515V59.023h-.94v-1h.94V56.15l1.276-.77v2.645H435.6v1h-1.291v4.427a2.207,2.207,0,0,0,.068.706.532.532,0,0,0,.221.25.854.854,0,0,0,.438.093A4.127,4.127,0,0,0,435.6,64.449Z" transform="translate(-29.084 -17.609)"/><path class="cls-5" d="M441.021,65.6V55.146H442.4v9.218h5.147V65.6Z" transform="translate(-29.084 -17.609)"/><path class="cls-5" d="M449.042,56.621V55.146h1.283v1.476Zm0,8.976V58.025h1.283V65.6Z" transform="translate(-29.084 -17.609)"/><path class="cls-5" d="M452.279,65.6V58.025h1.154V59.1a2.723,2.723,0,0,1,2.41-1.248,3.159,3.159,0,0,1,1.258.246,1.978,1.978,0,0,1,.859.645,2.487,2.487,0,0,1,.4.948,7.418,7.418,0,0,1,.071,1.248V65.6h-1.283V60.991a3.462,3.462,0,0,0-.15-1.173,1.232,1.232,0,0,0-.531-.62,1.688,1.688,0,0,0-.895-.231,2.08,2.08,0,0,0-1.415.52,2.57,2.57,0,0,0-.595,1.975V65.6Z" transform="translate(-29.084 -17.609)"/><path class="cls-5" d="M465.582,63.159l1.326.164a3.24,3.24,0,0,1-1.162,1.8,3.937,3.937,0,0,1-4.8-.381,4,4,0,0,1-.973-2.869,4.181,4.181,0,0,1,.983-2.966,3.33,3.33,0,0,1,2.552-1.055,3.238,3.238,0,0,1,2.481,1.034,4.107,4.107,0,0,1,.962,2.909c0,.076,0,.19-.007.342H461.3A2.913,2.913,0,0,0,462,64.05a2.1,2.1,0,0,0,1.583.663,1.957,1.957,0,0,0,1.2-.371A2.463,2.463,0,0,0,465.582,63.159Zm-4.214-2.075H465.6a2.567,2.567,0,0,0-.484-1.433,1.967,1.967,0,0,0-1.59-.741,2.037,2.037,0,0,0-1.486.592A2.344,2.344,0,0,0,461.368,61.084Z" transform="translate(-29.084 -17.609)"/><path class="cls-5" d="M282.638,89.492V79.041h2.082l2.474,7.4q.342,1.033.5,1.547.178-.57.556-1.675l2.5-7.271h1.86V89.492h-1.333V80.745l-3.037,8.748h-1.248l-3.022-8.9v8.9Z" transform="translate(-29.084 -17.609)"/><path class="cls-5" d="M299.619,88.558a4.763,4.763,0,0,1-1.372.855,3.965,3.965,0,0,1-1.416.25,2.753,2.753,0,0,1-1.917-.609,2.011,2.011,0,0,1-.67-1.558,2.071,2.071,0,0,1,.253-1.016,2.1,2.1,0,0,1,.663-.738,3.127,3.127,0,0,1,.923-.42,9.158,9.158,0,0,1,1.141-.192,11.7,11.7,0,0,0,2.289-.442c0-.176.007-.287.007-.335a1.415,1.415,0,0,0-.364-1.1,2.146,2.146,0,0,0-1.461-.435,2.268,2.268,0,0,0-1.337.317,1.937,1.937,0,0,0-.638,1.123l-1.255-.171a3.111,3.111,0,0,1,.563-1.3,2.468,2.468,0,0,1,1.134-.763,5.056,5.056,0,0,1,1.718-.267,4.552,4.552,0,0,1,1.575.228,2.075,2.075,0,0,1,.891.574,2.02,2.02,0,0,1,.4.874,7.213,7.213,0,0,1,.064,1.184V86.32a18.143,18.143,0,0,0,.082,2.263,2.856,2.856,0,0,0,.325.909h-1.34A2.718,2.718,0,0,1,299.619,88.558Zm-.107-2.866a9.439,9.439,0,0,1-2.1.485,4.878,4.878,0,0,0-1.12.256,1.117,1.117,0,0,0-.506.417,1.134,1.134,0,0,0,.21,1.465,1.673,1.673,0,0,0,1.137.342,2.646,2.646,0,0,0,1.319-.325,1.994,1.994,0,0,0,.849-.887,3.1,3.1,0,0,0,.207-1.283Z" transform="translate(-29.084 -17.609)"/><path class="cls-5" d="M302.785,89.492V81.921h1.155v1.148a3.131,3.131,0,0,1,.816-1.062,1.423,1.423,0,0,1,.823-.257,2.5,2.5,0,0,1,1.319.414l-.442,1.19a1.834,1.834,0,0,0-.941-.278,1.224,1.224,0,0,0-.756.253,1.374,1.374,0,0,0-.478.7,5,5,0,0,0-.214,1.5v3.964Z" transform="translate(-29.084 -17.609)"/><path class="cls-5" d="M307.668,89.492V79.041h1.283V85l3.037-3.08h1.661l-2.894,2.809,3.187,4.762h-1.583l-2.5-3.871-.905.87v3Z" transform="translate(-29.084 -17.609)"/><path class="cls-5" d="M320.145,87.054l1.326.164a3.25,3.25,0,0,1-1.162,1.8,3.5,3.5,0,0,1-2.168.642,3.463,3.463,0,0,1-2.634-1.023,4,4,0,0,1-.973-2.869,4.184,4.184,0,0,1,.984-2.966,3.329,3.329,0,0,1,2.552-1.055,3.239,3.239,0,0,1,2.481,1.034,4.111,4.111,0,0,1,.961,2.909c0,.076,0,.19-.006.342h-5.646a2.911,2.911,0,0,0,.706,1.911,2.1,2.1,0,0,0,1.583.663,1.962,1.962,0,0,0,1.205-.371A2.463,2.463,0,0,0,320.145,87.054Zm-4.214-2.075h4.228a2.567,2.567,0,0,0-.484-1.433,1.969,1.969,0,0,0-1.59-.741,2.038,2.038,0,0,0-1.486.592A2.339,2.339,0,0,0,315.931,84.979Z" transform="translate(-29.084 -17.609)"/><path class="cls-5" d="M325.883,88.344l.185,1.134a4.786,4.786,0,0,1-.97.114,2.2,2.2,0,0,1-1.083-.221,1.238,1.238,0,0,1-.542-.581,4.6,4.6,0,0,1-.157-1.515V82.919h-.94v-1h.94V80.046l1.276-.77v2.645h1.291v1h-1.291v4.427a2.207,2.207,0,0,0,.068.706.532.532,0,0,0,.221.25.854.854,0,0,0,.438.093A4.127,4.127,0,0,0,325.883,88.344Z" transform="translate(-29.084 -17.609)"/><path class="cls-5" d="M331.357,89.492V79.041H335.3a9.529,9.529,0,0,1,1.59.1,3.156,3.156,0,0,1,1.291.488,2.573,2.573,0,0,1,.838,1.009,3.406,3.406,0,0,1-.531,3.682,4.07,4.07,0,0,1-3.065.923h-2.681v4.249Zm1.384-5.482h2.7a2.867,2.867,0,0,0,1.9-.5,1.779,1.779,0,0,0,.563-1.4,1.893,1.893,0,0,0-.331-1.123,1.554,1.554,0,0,0-.873-.617,5.941,5.941,0,0,0-1.291-.092h-2.673Z" transform="translate(-29.084 -17.609)"/><path class="cls-5" d="M340.454,85.707a3.9,3.9,0,0,1,1.17-3.115A3.52,3.52,0,0,1,344,81.75a3.394,3.394,0,0,1,2.552,1.023,3.891,3.891,0,0,1,.991,2.827,5.013,5.013,0,0,1-.438,2.3,3.1,3.1,0,0,1-1.276,1.3,3.713,3.713,0,0,1-1.828.463,3.4,3.4,0,0,1-2.57-1.019A4.073,4.073,0,0,1,340.454,85.707Zm1.319,0a3.221,3.221,0,0,0,.635,2.178,2.112,2.112,0,0,0,3.187,0,3.3,3.3,0,0,0,.635-2.217,3.127,3.127,0,0,0-.639-2.128,2.115,2.115,0,0,0-3.183,0A3.206,3.206,0,0,0,341.773,85.707Z" transform="translate(-29.084 -17.609)"/><path class="cls-5" d="M349.038,89.492V81.921h1.155v1.148a3.125,3.125,0,0,1,.815-1.062,1.426,1.426,0,0,1,.824-.257,2.5,2.5,0,0,1,1.318.414l-.441,1.19a1.838,1.838,0,0,0-.941-.278,1.225,1.225,0,0,0-.756.253,1.368,1.368,0,0,0-.478.7,5,5,0,0,0-.214,1.5v3.964Z" transform="translate(-29.084 -17.609)"/><path class="cls-5" d="M356.717,88.344l.185,1.134a4.786,4.786,0,0,1-.97.114,2.2,2.2,0,0,1-1.083-.221,1.238,1.238,0,0,1-.542-.581,4.6,4.6,0,0,1-.157-1.515V82.919h-.94v-1h.94V80.046l1.276-.77v2.645h1.291v1h-1.291v4.427a2.207,2.207,0,0,0,.068.706.532.532,0,0,0,.221.25.854.854,0,0,0,.438.093A4.127,4.127,0,0,0,356.717,88.344Z" transform="translate(-29.084 -17.609)"/><path class="cls-5" d="M358.277,89.492V82.919h-1.133v-1h1.133v-.805a3.539,3.539,0,0,1,.136-1.134,1.642,1.642,0,0,1,.652-.809,2.349,2.349,0,0,1,1.309-.31,6.248,6.248,0,0,1,1.2.128l-.192,1.119a4.322,4.322,0,0,0-.756-.071,1.125,1.125,0,0,0-.827.25,1.355,1.355,0,0,0-.242.934v.7h1.476v1h-1.476v6.573Z" transform="translate(-29.084 -17.609)"/><path class="cls-5" d="M361.55,85.707a3.9,3.9,0,0,1,1.17-3.115,3.52,3.52,0,0,1,2.381-.841,3.394,3.394,0,0,1,2.552,1.023,3.891,3.891,0,0,1,.991,2.827,5.013,5.013,0,0,1-.438,2.3,3.1,3.1,0,0,1-1.276,1.3,3.713,3.713,0,0,1-1.828.463,3.4,3.4,0,0,1-2.57-1.019A4.073,4.073,0,0,1,361.55,85.707Zm1.319,0a3.221,3.221,0,0,0,.635,2.178,2.112,2.112,0,0,0,3.187,0,3.3,3.3,0,0,0,.635-2.217,3.127,3.127,0,0,0-.639-2.128,2.115,2.115,0,0,0-3.183,0A3.206,3.206,0,0,0,362.869,85.707Z" transform="translate(-29.084 -17.609)"/><path class="cls-5" d="M370.119,89.492V79.041H371.4V89.492Z" transform="translate(-29.084 -17.609)"/><path class="cls-5" d="M373.4,80.517V79.041h1.283v1.476Zm0,8.976V81.921h1.283v7.571Z" transform="translate(-29.084 -17.609)"/><path class="cls-5" d="M376.158,85.707a3.9,3.9,0,0,1,1.17-3.115,3.52,3.52,0,0,1,2.381-.841,3.394,3.394,0,0,1,2.552,1.023,3.891,3.891,0,0,1,.991,2.827,5.013,5.013,0,0,1-.438,2.3,3.1,3.1,0,0,1-1.276,1.3,3.713,3.713,0,0,1-1.828.463,3.4,3.4,0,0,1-2.57-1.019A4.073,4.073,0,0,1,376.158,85.707Zm1.319,0a3.221,3.221,0,0,0,.635,2.178,2.112,2.112,0,0,0,3.187,0,3.3,3.3,0,0,0,.635-2.217,3.127,3.127,0,0,0-.639-2.128,2.115,2.115,0,0,0-3.183,0A3.206,3.206,0,0,0,377.478,85.707Z" transform="translate(-29.084 -17.609)"/><path class="cls-5" d="M418.134,162.865V152.414h2.081l2.474,7.4q.343,1.033.5,1.547.179-.57.557-1.675l2.5-7.271h1.861v10.451h-1.334v-8.748l-3.036,8.748h-1.248l-3.022-8.9v8.9Z" transform="translate(-29.084 -17.609)"/><path class="cls-5" d="M435.115,161.931a4.773,4.773,0,0,1-1.373.855,3.96,3.96,0,0,1-1.415.25,2.754,2.754,0,0,1-1.918-.609,2.013,2.013,0,0,1-.67-1.558,2.109,2.109,0,0,1,.916-1.754,3.127,3.127,0,0,1,.924-.42,9.142,9.142,0,0,1,1.141-.192,11.689,11.689,0,0,0,2.288-.442c0-.176.007-.287.007-.335a1.417,1.417,0,0,0-.363-1.1,2.147,2.147,0,0,0-1.461-.435,2.265,2.265,0,0,0-1.337.317,1.935,1.935,0,0,0-.639,1.123l-1.254-.171a3.1,3.1,0,0,1,.563-1.3,2.47,2.47,0,0,1,1.134-.763,5.053,5.053,0,0,1,1.718-.267,4.558,4.558,0,0,1,1.576.228,2.083,2.083,0,0,1,.891.574,2.02,2.02,0,0,1,.4.874,7.2,7.2,0,0,1,.064,1.184v1.711a18.143,18.143,0,0,0,.082,2.263,2.843,2.843,0,0,0,.324.909h-1.341A2.707,2.707,0,0,1,435.115,161.931Zm-.107-2.866a9.433,9.433,0,0,1-2.1.485,4.866,4.866,0,0,0-1.119.256,1.12,1.12,0,0,0-.507.417,1.135,1.135,0,0,0,.211,1.465,1.671,1.671,0,0,0,1.137.342,2.65,2.65,0,0,0,1.319-.325,1.994,1.994,0,0,0,.848-.887,3.1,3.1,0,0,0,.207-1.283Z" transform="translate(-29.084 -17.609)"/><path class="cls-5" d="M438.28,162.865v-7.571h1.155v1.148a3.125,3.125,0,0,1,.815-1.062,1.426,1.426,0,0,1,.824-.257,2.5,2.5,0,0,1,1.318.414l-.441,1.19a1.838,1.838,0,0,0-.941-.278,1.225,1.225,0,0,0-.756.253,1.368,1.368,0,0,0-.478.7,5,5,0,0,0-.214,1.5v3.964Z" transform="translate(-29.084 -17.609)"/><path class="cls-5" d="M443.164,162.865V152.414h1.283v5.96l3.037-3.08h1.661l-2.895,2.809,3.187,4.762h-1.583l-2.5-3.871-.905.87v3Z" transform="translate(-29.084 -17.609)"/><path class="cls-5" d="M455.64,160.427l1.326.164a3.24,3.24,0,0,1-1.162,1.8,3.937,3.937,0,0,1-4.8-.381,4,4,0,0,1-.973-2.869,4.181,4.181,0,0,1,.983-2.966,3.33,3.33,0,0,1,2.552-1.055,3.238,3.238,0,0,1,2.481,1.034,4.107,4.107,0,0,1,.962,2.909c0,.076,0,.19-.007.342h-5.646a2.913,2.913,0,0,0,.706,1.911,2.1,2.1,0,0,0,1.583.663,1.957,1.957,0,0,0,1.2-.371A2.463,2.463,0,0,0,455.64,160.427Zm-4.214-2.075h4.228a2.567,2.567,0,0,0-.484-1.433,1.967,1.967,0,0,0-1.59-.741,2.037,2.037,0,0,0-1.486.592A2.344,2.344,0,0,0,451.426,158.353Z" transform="translate(-29.084 -17.609)"/><path class="cls-5" d="M461.379,161.717l.185,1.134a4.786,4.786,0,0,1-.97.114,2.2,2.2,0,0,1-1.083-.221,1.238,1.238,0,0,1-.542-.581,4.6,4.6,0,0,1-.157-1.515v-4.356h-.94v-1h.94v-1.875l1.276-.77v2.645h1.291v1h-1.291v4.427a2.207,2.207,0,0,0,.068.706.532.532,0,0,0,.221.25.854.854,0,0,0,.438.093A4.127,4.127,0,0,0,461.379,161.717Z" transform="translate(-29.084 -17.609)"/><path class="cls-5" d="M466.875,162.865V152.414h4.634a6.176,6.176,0,0,1,2.125.281,2.328,2.328,0,0,1,1.162.995,2.967,2.967,0,0,1,.435,1.576,2.631,2.631,0,0,1-.72,1.875,3.647,3.647,0,0,1-2.225.97,3.571,3.571,0,0,1,.834.52,7.2,7.2,0,0,1,1.148,1.39l1.817,2.845h-1.739l-1.383-2.174q-.606-.941-1-1.44a3.147,3.147,0,0,0-.7-.7,2.085,2.085,0,0,0-.631-.278,4.173,4.173,0,0,0-.771-.05h-1.6v4.641Zm1.384-5.839h2.973a4.453,4.453,0,0,0,1.482-.2,1.575,1.575,0,0,0,.813-.627,1.7,1.7,0,0,0,.278-.937,1.56,1.56,0,0,0-.538-1.219,2.52,2.52,0,0,0-1.7-.478h-3.308Z" transform="translate(-29.084 -17.609)"/><path class="cls-5" d="M477.241,153.89v-1.476h1.283v1.476Zm0,8.976v-7.571h1.283v7.571Z" transform="translate(-29.084 -17.609)"/><path class="cls-5" d="M479.965,160.605l1.269-.2a1.774,1.774,0,0,0,.6,1.169,2.073,2.073,0,0,0,1.365.407,2,2,0,0,0,1.312-.36,1.076,1.076,0,0,0,.428-.845.78.78,0,0,0-.378-.685,5.584,5.584,0,0,0-1.312-.435,11.978,11.978,0,0,1-1.957-.617,1.867,1.867,0,0,1-1.108-1.736,1.952,1.952,0,0,1,.231-.937,2.084,2.084,0,0,1,.631-.717,2.656,2.656,0,0,1,.816-.374,3.886,3.886,0,0,1,1.108-.153,4.377,4.377,0,0,1,1.565.257,2.124,2.124,0,0,1,.994.695,2.72,2.72,0,0,1,.442,1.173l-1.255.171a1.375,1.375,0,0,0-.5-.913,1.812,1.812,0,0,0-1.158-.328,2.1,2.1,0,0,0-1.262.292.852.852,0,0,0-.378.685.709.709,0,0,0,.157.449,1.134,1.134,0,0,0,.491.342q.193.071,1.134.328a15.89,15.89,0,0,1,1.9.6,1.938,1.938,0,0,1,.845.674,1.883,1.883,0,0,1,.307,1.1,2.149,2.149,0,0,1-.375,1.208,2.414,2.414,0,0,1-1.08.877,3.921,3.921,0,0,1-1.6.31,3.558,3.558,0,0,1-2.249-.613A2.851,2.851,0,0,1,479.965,160.605Z" transform="translate(-29.084 -17.609)"/><path class="cls-5" d="M487.785,162.865V152.414h1.283v5.96l3.037-3.08h1.661l-2.895,2.809,3.187,4.762h-1.583l-2.5-3.871-.905.87v3Z" transform="translate(-29.084 -17.609)"/><path class="cls-5" d="M418.176,180.386V169.935h3.942a9.529,9.529,0,0,1,1.59.1,3.156,3.156,0,0,1,1.291.488,2.573,2.573,0,0,1,.838,1.009,3.406,3.406,0,0,1-.531,3.682,4.07,4.07,0,0,1-3.065.923H419.56v4.249Zm1.384-5.482h2.7a2.867,2.867,0,0,0,1.9-.5,1.779,1.779,0,0,0,.563-1.4,1.893,1.893,0,0,0-.331-1.123,1.554,1.554,0,0,0-.873-.617,5.941,5.941,0,0,0-1.291-.092H419.56Z" transform="translate(-29.084 -17.609)"/><path class="cls-5" d="M427.736,180.386v-7.571h1.155v1.148a3.125,3.125,0,0,1,.815-1.062,1.426,1.426,0,0,1,.824-.257,2.5,2.5,0,0,1,1.318.414l-.441,1.19a1.838,1.838,0,0,0-.941-.278,1.225,1.225,0,0,0-.756.253,1.368,1.368,0,0,0-.478.7,5,5,0,0,0-.214,1.5v3.964Z" transform="translate(-29.084 -17.609)"/><path class="cls-5" d="M437.8,177.948l1.326.164a3.24,3.24,0,0,1-1.162,1.8,3.937,3.937,0,0,1-4.8-.381,4,4,0,0,1-.973-2.869,4.181,4.181,0,0,1,.983-2.966,3.33,3.33,0,0,1,2.552-1.055,3.238,3.238,0,0,1,2.481,1.034,4.107,4.107,0,0,1,.962,2.909c0,.076,0,.19-.007.342h-5.646a2.913,2.913,0,0,0,.706,1.911,2.1,2.1,0,0,0,1.583.663,1.957,1.957,0,0,0,1.2-.371A2.463,2.463,0,0,0,437.8,177.948Zm-4.214-2.075h4.228a2.567,2.567,0,0,0-.484-1.433,1.967,1.967,0,0,0-1.59-.741,2.037,2.037,0,0,0-1.486.592A2.344,2.344,0,0,0,433.582,175.873Z" transform="translate(-29.084 -17.609)"/><path class="cls-5" d="M440.733,180.386v-7.571h1.147v1.063a2.7,2.7,0,0,1,.948-.9,2.666,2.666,0,0,1,1.348-.338,2.492,2.492,0,0,1,1.379.349,1.869,1.869,0,0,1,.76.977,2.717,2.717,0,0,1,2.338-1.326,2.306,2.306,0,0,1,1.732.624,2.665,2.665,0,0,1,.606,1.921v5.2h-1.276v-4.77a3.513,3.513,0,0,0-.125-1.108,1.073,1.073,0,0,0-.453-.545,1.41,1.41,0,0,0-.77-.207,1.792,1.792,0,0,0-1.326.531,2.341,2.341,0,0,0-.527,1.7v4.4h-1.283v-4.919a2.165,2.165,0,0,0-.313-1.283,1.188,1.188,0,0,0-1.026-.428,1.863,1.863,0,0,0-1,.285,1.615,1.615,0,0,0-.667.834,4.7,4.7,0,0,0-.206,1.583v3.928Z" transform="translate(-29.084 -17.609)"/><path class="cls-5" d="M452.9,171.41v-1.476h1.283v1.476Zm0,8.976v-7.571h1.283v7.571Z" transform="translate(-29.084 -17.609)"/><path class="cls-5" d="M461.1,180.386v-1.112a2.77,2.77,0,0,1-2.4,1.283,3.067,3.067,0,0,1-1.251-.256,2.057,2.057,0,0,1-.862-.646,2.393,2.393,0,0,1-.4-.952,6.46,6.46,0,0,1-.079-1.2v-4.691h1.283v4.2a7.421,7.421,0,0,0,.079,1.354,1.337,1.337,0,0,0,.513.795,1.593,1.593,0,0,0,.97.289,2.115,2.115,0,0,0,1.084-.3,1.641,1.641,0,0,0,.716-.805,4.032,4.032,0,0,0,.211-1.479v-4.057h1.283v7.571Z" transform="translate(-29.084 -17.609)"/><path class="cls-5" d="M464.26,180.386v-7.571h1.147v1.063a2.7,2.7,0,0,1,.948-.9,2.666,2.666,0,0,1,1.348-.338,2.492,2.492,0,0,1,1.379.349,1.869,1.869,0,0,1,.76.977,2.717,2.717,0,0,1,2.338-1.326,2.306,2.306,0,0,1,1.732.624,2.665,2.665,0,0,1,.606,1.921v5.2h-1.276v-4.77a3.513,3.513,0,0,0-.125-1.108,1.073,1.073,0,0,0-.453-.545,1.41,1.41,0,0,0-.77-.207,1.792,1.792,0,0,0-1.326.531,2.341,2.341,0,0,0-.527,1.7v4.4h-1.283v-4.919a2.165,2.165,0,0,0-.313-1.283,1.188,1.188,0,0,0-1.026-.428,1.863,1.863,0,0,0-1,.285,1.615,1.615,0,0,0-.667.834,4.7,4.7,0,0,0-.206,1.583v3.928Z" transform="translate(-29.084 -17.609)"/><circle cx="157.502" cy="117.669" r="2.823"/><circle cx="224.493" cy="195.07" r="2.823"/><circle cx="151.75" cy="166.587" r="2.823"/><circle cx="356.497" cy="91.104" r="2.823"/><circle cx="40.946" cy="207.583" r="2.823"/><line class="cls-13" x1="394.301" y1="51.107" x2="390.44" y2="68.627"/><polygon class="cls-13" points="393.522 69.307 389.263 73.967 387.357 67.948 393.522 69.307"/><line class="cls-13" x1="332.434" y1="73.967" x2="347.46" y2="83.768"/><polygon class="cls-13" points="349.185 81.124 352.04 86.755 345.736 86.412 349.185 81.124"/><path class="cls-5" d="M116.411,174.707l4.014-10.451h1.49l4.277,10.451h-1.576l-1.219-3.166h-4.37l-1.148,3.166Zm3.016-4.292h3.543l-1.091-2.895q-.5-1.319-.742-2.167a13.289,13.289,0,0,1-.563,2Z" transform="translate(-29.084 -17.609)"/><path class="cls-5" d="M126.62,172.447l1.269-.2a1.771,1.771,0,0,0,.6,1.169,2.074,2.074,0,0,0,1.365.407,2,2,0,0,0,1.312-.36,1.076,1.076,0,0,0,.428-.845.78.78,0,0,0-.378-.685,5.575,5.575,0,0,0-1.312-.435,12.011,12.011,0,0,1-1.957-.617,1.869,1.869,0,0,1-1.108-1.736,1.952,1.952,0,0,1,.231-.937,2.085,2.085,0,0,1,.631-.717,2.651,2.651,0,0,1,.816-.374,3.889,3.889,0,0,1,1.109-.153,4.373,4.373,0,0,1,1.564.257,2.125,2.125,0,0,1,.995.695,2.714,2.714,0,0,1,.442,1.173l-1.254.171a1.373,1.373,0,0,0-.5-.913,1.815,1.815,0,0,0-1.159-.328,2.1,2.1,0,0,0-1.262.292.852.852,0,0,0-.378.685.707.707,0,0,0,.157.449,1.13,1.13,0,0,0,.492.342q.193.071,1.133.328a15.875,15.875,0,0,1,1.9.6,1.934,1.934,0,0,1,.845.674,1.883,1.883,0,0,1,.306,1.1,2.152,2.152,0,0,1-.374,1.208,2.416,2.416,0,0,1-1.08.877,3.928,3.928,0,0,1-1.6.31,3.558,3.558,0,0,1-2.249-.613A2.851,2.851,0,0,1,126.62,172.447Z" transform="translate(-29.084 -17.609)"/><path class="cls-5" d="M133.92,172.447l1.269-.2a1.771,1.771,0,0,0,.6,1.169,2.074,2.074,0,0,0,1.365.407,2,2,0,0,0,1.312-.36,1.076,1.076,0,0,0,.428-.845.78.78,0,0,0-.378-.685,5.575,5.575,0,0,0-1.312-.435,12.011,12.011,0,0,1-1.957-.617,1.869,1.869,0,0,1-1.108-1.736,1.952,1.952,0,0,1,.231-.937,2.084,2.084,0,0,1,.631-.717,2.651,2.651,0,0,1,.816-.374,3.889,3.889,0,0,1,1.109-.153,4.373,4.373,0,0,1,1.564.257,2.125,2.125,0,0,1,.995.695,2.714,2.714,0,0,1,.442,1.173l-1.254.171a1.373,1.373,0,0,0-.5-.913,1.815,1.815,0,0,0-1.159-.328,2.1,2.1,0,0,0-1.262.292.852.852,0,0,0-.378.685.707.707,0,0,0,.157.449,1.13,1.13,0,0,0,.492.342q.193.071,1.133.328a15.875,15.875,0,0,1,1.9.6,1.934,1.934,0,0,1,.845.674,1.883,1.883,0,0,1,.306,1.1,2.152,2.152,0,0,1-.374,1.208,2.416,2.416,0,0,1-1.08.877,3.928,3.928,0,0,1-1.6.31,3.558,3.558,0,0,1-2.249-.613A2.851,2.851,0,0,1,133.92,172.447Z" transform="translate(-29.084 -17.609)"/><path class="cls-5" d="M146.917,172.269l1.326.164a3.232,3.232,0,0,1-1.162,1.8,3.937,3.937,0,0,1-4.8-.381,4,4,0,0,1-.973-2.869,4.184,4.184,0,0,1,.984-2.966,3.329,3.329,0,0,1,2.552-1.055A3.238,3.238,0,0,1,147.323,168a4.107,4.107,0,0,1,.962,2.909c0,.076,0,.19-.007.342h-5.646a2.911,2.911,0,0,0,.706,1.911,2.1,2.1,0,0,0,1.583.663,1.962,1.962,0,0,0,1.205-.371A2.465,2.465,0,0,0,146.917,172.269Zm-4.213-2.075h4.228a2.567,2.567,0,0,0-.485-1.433,1.967,1.967,0,0,0-1.59-.741,2.038,2.038,0,0,0-1.486.592A2.339,2.339,0,0,0,142.7,170.194Z" transform="translate(-29.084 -17.609)"/><path class="cls-5" d="M152.655,173.559l.186,1.134a4.786,4.786,0,0,1-.97.114,2.2,2.2,0,0,1-1.083-.221,1.238,1.238,0,0,1-.542-.581,4.6,4.6,0,0,1-.157-1.515v-4.356h-.941v-1h.941v-1.875l1.276-.77v2.645h1.291v1h-1.291v4.427a2.228,2.228,0,0,0,.068.706.533.533,0,0,0,.221.25.855.855,0,0,0,.438.093A4.114,4.114,0,0,0,152.655,173.559Z" transform="translate(-29.084 -17.609)"/><line class="cls-13" x1="125.187" y1="154.38" x2="141.846" y2="161.04"/><polygon class="cls-13" points="143.017 158.109 146.922 163.07 140.674 163.971 143.017 158.109"/><path d="M258.96,210.183l4.014-10.451h1.49l4.277,10.451h-1.576l-1.219-3.166h-4.37l-1.148,3.166Zm3.016-4.292h3.543L264.428,203q-.5-1.319-.742-2.167a13.289,13.289,0,0,1-.563,2Z" transform="translate(-29.084 -17.609)"/><path d="M192.657,136.389V125.938h3.921a4.853,4.853,0,0,1,1.921.317,2.472,2.472,0,0,1,1.134.977,2.577,2.577,0,0,1,.41,1.379,2.367,2.367,0,0,1-.364,1.262,2.6,2.6,0,0,1-1.1.956,2.729,2.729,0,0,1,1.458.948,2.539,2.539,0,0,1,.51,1.583,3.057,3.057,0,0,1-.31,1.365,2.647,2.647,0,0,1-.767.973,3.2,3.2,0,0,1-1.144.517,6.95,6.95,0,0,1-1.686.175Zm1.383-6.06h2.26a5.026,5.026,0,0,0,1.319-.122,1.467,1.467,0,0,0,.795-.52,1.5,1.5,0,0,0,.267-.913,1.678,1.678,0,0,0-.25-.916,1.261,1.261,0,0,0-.713-.542,5.965,5.965,0,0,0-1.59-.146h-2.088Zm0,4.826h2.6a6,6,0,0,0,.941-.05,2.252,2.252,0,0,0,.8-.285,1.515,1.515,0,0,0,.528-.581,1.821,1.821,0,0,0,.207-.88,1.737,1.737,0,0,0-.3-1.016,1.581,1.581,0,0,0-.831-.606,5.159,5.159,0,0,0-1.529-.174h-2.417Z" transform="translate(-29.084 -17.609)"/><path class="cls-14" d="M388.881,111.485c31.638,29.622,32.195,80.342,1.244,113.4" transform="translate(-29.084 -17.609)"/></svg>