<svg id="Layer_1" data-name="Layer 1" xmlns="http://www.w3.org/2000/svg" viewBox="0 0 444.717 343.857"><defs><style>.cls-1,.cls-2,.cls-4,.cls-5{fill:none;stroke-miterlimit:10;}.cls-1{stroke:#000;}.cls-2{stroke:#ed1f24;stroke-width:2px;}.cls-3{fill:#3c57a6;}.cls-4{stroke:#6cbe45;}.cls-5{stroke:#6bbd45;}</style></defs><title>Understanding_Alpha_Manager_Impact</title><line class="cls-1" x1="33.393" y1="312.294" x2="33.393" y2="32.876"/><path d="M21.419,27.927v-9.76h4.328a5.761,5.761,0,0,1,1.984.263,2.17,2.17,0,0,1,1.085.929,2.772,2.772,0,0,1,.406,1.471,2.455,2.455,0,0,1-.672,1.751,3.408,3.408,0,0,1-2.077.905,3.361,3.361,0,0,1,.779.486,6.719,6.719,0,0,1,1.072,1.3l1.7,2.656H28.4L27.1,25.9q-.566-.879-.932-1.345a2.933,2.933,0,0,0-.656-.652,1.951,1.951,0,0,0-.589-.26,3.9,3.9,0,0,0-.719-.046h-1.5v4.334Zm1.292-5.453h2.776a4.151,4.151,0,0,0,1.385-.183,1.47,1.47,0,0,0,.759-.585,1.583,1.583,0,0,0,.26-.875,1.453,1.453,0,0,0-.5-1.139,2.351,2.351,0,0,0-1.587-.446H22.71Z" transform="translate(-8.523 -18.167)"/><path d="M35.932,25.65l1.238.153a3.021,3.021,0,0,1-1.085,1.684,3.676,3.676,0,0,1-4.483-.356,3.733,3.733,0,0,1-.909-2.68,3.907,3.907,0,0,1,.918-2.77,3.11,3.11,0,0,1,2.383-.985,3.023,3.023,0,0,1,2.317.965,3.836,3.836,0,0,1,.9,2.716c0,.071,0,.178-.007.319H31.931a2.714,2.714,0,0,0,.659,1.784,1.961,1.961,0,0,0,1.478.619,1.832,1.832,0,0,0,1.125-.346A2.3,2.3,0,0,0,35.932,25.65ZM32,23.713h3.948a2.394,2.394,0,0,0-.453-1.338,1.837,1.837,0,0,0-1.484-.692,1.9,1.9,0,0,0-1.388.553A2.187,2.187,0,0,0,32,23.713Z" transform="translate(-8.523 -18.167)"/><path d="M43.288,27.055a4.461,4.461,0,0,1-1.281.8,3.706,3.706,0,0,1-1.322.233,2.567,2.567,0,0,1-1.791-.569,1.878,1.878,0,0,1-.626-1.455,1.934,1.934,0,0,1,.236-.949,1.959,1.959,0,0,1,.619-.689,2.919,2.919,0,0,1,.862-.393,8.549,8.549,0,0,1,1.065-.18,10.949,10.949,0,0,0,2.137-.413q.007-.246.006-.312a1.323,1.323,0,0,0-.339-1.032,2.007,2.007,0,0,0-1.365-.406,2.117,2.117,0,0,0-1.248.3,1.811,1.811,0,0,0-.6,1.049l-1.171-.16A2.9,2.9,0,0,1,39,21.659a2.307,2.307,0,0,1,1.059-.712,4.717,4.717,0,0,1,1.6-.25,4.259,4.259,0,0,1,1.472.213,1.941,1.941,0,0,1,.832.536,1.893,1.893,0,0,1,.373.815,6.806,6.806,0,0,1,.06,1.1v1.6a16.91,16.91,0,0,0,.077,2.114,2.66,2.66,0,0,0,.3.849H43.528A2.548,2.548,0,0,1,43.288,27.055Zm-.1-2.676a8.768,8.768,0,0,1-1.958.453,4.531,4.531,0,0,0-1.045.24,1.042,1.042,0,0,0-.473.389,1.059,1.059,0,0,0,.2,1.368,1.559,1.559,0,0,0,1.062.32,2.469,2.469,0,0,0,1.231-.3A1.863,1.863,0,0,0,43,26.017a2.889,2.889,0,0,0,.193-1.2Z" transform="translate(-8.523 -18.167)"/><path d="M46.231,27.927v-9.76h1.2v9.76Z" transform="translate(-8.523 -18.167)"/><path d="M49.294,19.545V18.167h1.2v1.378Zm0,8.382v-7.07h1.2v7.07Z" transform="translate(-8.523 -18.167)"/><path d="M51.684,27.927v-.972l4.5-5.166q-.765.04-1.352.04H51.951v-.972h5.778v.792L53.9,26.136l-.739.819q.806-.059,1.511-.06h3.269v1.032Z" transform="translate(-8.523 -18.167)"/><path d="M63.974,25.65l1.238.153a3.021,3.021,0,0,1-1.085,1.684,3.676,3.676,0,0,1-4.483-.356,3.733,3.733,0,0,1-.909-2.68,3.907,3.907,0,0,1,.918-2.77,3.11,3.11,0,0,1,2.383-.985,3.023,3.023,0,0,1,2.317.965,3.836,3.836,0,0,1,.9,2.716c0,.071,0,.178-.007.319H59.973a2.714,2.714,0,0,0,.659,1.784,1.961,1.961,0,0,0,1.478.619,1.832,1.832,0,0,0,1.125-.346A2.3,2.3,0,0,0,63.974,25.65Zm-3.935-1.937h3.948a2.394,2.394,0,0,0-.453-1.338,1.837,1.837,0,0,0-1.484-.692,1.9,1.9,0,0,0-1.388.553A2.187,2.187,0,0,0,60.039,23.713Z" transform="translate(-8.523 -18.167)"/><path d="M71.3,27.927v-.892a2.2,2.2,0,0,1-1.978,1.052,2.773,2.773,0,0,1-1.554-.466,3.065,3.065,0,0,1-1.1-1.3,4.5,4.5,0,0,1-.39-1.92,5.026,5.026,0,0,1,.353-1.921A2.782,2.782,0,0,1,67.7,21.157a2.829,2.829,0,0,1,1.578-.459,2.356,2.356,0,0,1,1.951.972v-3.5h1.192v9.76ZM67.516,24.4a3.069,3.069,0,0,0,.572,2.03,1.727,1.727,0,0,0,1.352.672,1.7,1.7,0,0,0,1.335-.642,2.962,2.962,0,0,0,.549-1.961,3.324,3.324,0,0,0-.56-2.13,1.719,1.719,0,0,0-1.378-.679,1.66,1.66,0,0,0-1.335.652A3.222,3.222,0,0,0,67.516,24.4Z" transform="translate(-8.523 -18.167)"/><path d="M78.268,27.927v-9.76h7.057v1.152H79.559v2.989h5.4v1.145h-5.4v3.322h5.992v1.152Z" transform="translate(-8.523 -18.167)"/><path d="M86.384,27.927l2.583-3.675-2.39-3.4h1.5l1.085,1.658q.306.473.493.792.293-.439.539-.779l1.192-1.671h1.431l-2.443,3.329L93,27.927H91.53l-1.451-2.2-.386-.593-1.857,2.79Z" transform="translate(-8.523 -18.167)"/><path d="M98.613,25.337l1.179.153A3.058,3.058,0,0,1,98.8,27.4a2.879,2.879,0,0,1-1.954.689,3.035,3.035,0,0,1-2.333-.949,3.849,3.849,0,0,1-.882-2.719,4.92,4.92,0,0,1,.379-2,2.646,2.646,0,0,1,1.155-1.289,3.429,3.429,0,0,1,1.688-.429,2.935,2.935,0,0,1,1.884.583,2.673,2.673,0,0,1,.939,1.654l-1.165.18a1.939,1.939,0,0,0-.589-1.072,1.524,1.524,0,0,0-1.022-.359,1.86,1.86,0,0,0-1.471.649,3.082,3.082,0,0,0-.566,2.054,3.187,3.187,0,0,0,.546,2.071,1.776,1.776,0,0,0,1.425.646,1.678,1.678,0,0,0,1.178-.433A2.147,2.147,0,0,0,98.613,25.337Z" transform="translate(-8.523 -18.167)"/><path d="M105.657,25.65l1.238.153a3.021,3.021,0,0,1-1.085,1.684,3.676,3.676,0,0,1-4.483-.356,3.733,3.733,0,0,1-.909-2.68,3.907,3.907,0,0,1,.918-2.77,3.11,3.11,0,0,1,2.383-.985,3.023,3.023,0,0,1,2.317.965,3.836,3.836,0,0,1,.9,2.716c0,.071,0,.178-.007.319h-5.272a2.714,2.714,0,0,0,.659,1.784,1.961,1.961,0,0,0,1.478.619,1.832,1.832,0,0,0,1.125-.346A2.3,2.3,0,0,0,105.657,25.65Zm-3.935-1.937h3.948a2.394,2.394,0,0,0-.453-1.338,1.837,1.837,0,0,0-1.484-.692,1.9,1.9,0,0,0-1.388.553A2.187,2.187,0,0,0,101.723,23.713Z" transform="translate(-8.523 -18.167)"/><path d="M107.921,25.817l1.185-.187a1.656,1.656,0,0,0,.556,1.092,1.938,1.938,0,0,0,1.275.379,1.873,1.873,0,0,0,1.225-.336,1.006,1.006,0,0,0,.4-.789.729.729,0,0,0-.353-.639,5.208,5.208,0,0,0-1.225-.406,11.2,11.2,0,0,1-1.828-.576,1.745,1.745,0,0,1-1.035-1.621,1.824,1.824,0,0,1,.216-.875,1.94,1.94,0,0,1,.589-.669,2.475,2.475,0,0,1,.762-.35,3.63,3.63,0,0,1,1.035-.143,4.1,4.1,0,0,1,1.461.24,1.986,1.986,0,0,1,.929.649,2.54,2.54,0,0,1,.413,1.1l-1.172.16a1.282,1.282,0,0,0-.462-.852,1.693,1.693,0,0,0-1.082-.306,1.958,1.958,0,0,0-1.178.273.8.8,0,0,0-.353.639.662.662,0,0,0,.146.419,1.053,1.053,0,0,0,.459.319q.18.067,1.059.306a14.833,14.833,0,0,1,1.774.556,1.8,1.8,0,0,1,.789.629,1.757,1.757,0,0,1,.287,1.025,2.013,2.013,0,0,1-.35,1.128,2.256,2.256,0,0,1-1.009.819,3.667,3.667,0,0,1-1.491.29,3.321,3.321,0,0,1-2.1-.572A2.664,2.664,0,0,1,107.921,25.817Z" transform="translate(-8.523 -18.167)"/><path d="M114.738,25.817l1.185-.187a1.656,1.656,0,0,0,.556,1.092,1.938,1.938,0,0,0,1.275.379,1.873,1.873,0,0,0,1.225-.336,1.006,1.006,0,0,0,.4-.789.729.729,0,0,0-.353-.639,5.208,5.208,0,0,0-1.225-.406,11.2,11.2,0,0,1-1.828-.576,1.745,1.745,0,0,1-1.035-1.621,1.824,1.824,0,0,1,.216-.875,1.94,1.94,0,0,1,.589-.669,2.475,2.475,0,0,1,.762-.35,3.63,3.63,0,0,1,1.035-.143,4.1,4.1,0,0,1,1.461.24,1.986,1.986,0,0,1,.929.649,2.54,2.54,0,0,1,.413,1.1l-1.172.16a1.282,1.282,0,0,0-.462-.852,1.693,1.693,0,0,0-1.082-.306,1.958,1.958,0,0,0-1.178.273.8.8,0,0,0-.353.639.662.662,0,0,0,.146.419,1.053,1.053,0,0,0,.459.319q.18.067,1.059.306a14.833,14.833,0,0,1,1.774.556,1.8,1.8,0,0,1,.789.629,1.757,1.757,0,0,1,.287,1.025,2.013,2.013,0,0,1-.35,1.128,2.256,2.256,0,0,1-1.009.819,3.667,3.667,0,0,1-1.491.29,3.321,3.321,0,0,1-2.1-.572A2.664,2.664,0,0,1,114.738,25.817Z" transform="translate(-8.523 -18.167)"/><path d="M8.523,44.289v-9.76h4.328a5.761,5.761,0,0,1,1.984.263,2.17,2.17,0,0,1,1.085.929,2.772,2.772,0,0,1,.406,1.471,2.455,2.455,0,0,1-.672,1.751,3.408,3.408,0,0,1-2.077.905,3.361,3.361,0,0,1,.779.486,6.719,6.719,0,0,1,1.072,1.3l1.7,2.656H15.5l-1.292-2.03q-.566-.879-.932-1.345a2.933,2.933,0,0,0-.656-.652,1.951,1.951,0,0,0-.589-.26,3.9,3.9,0,0,0-.719-.046h-1.5v4.334Zm1.292-5.453h2.776a4.151,4.151,0,0,0,1.385-.183,1.47,1.47,0,0,0,.759-.585,1.583,1.583,0,0,0,.26-.875,1.453,1.453,0,0,0-.5-1.139,2.351,2.351,0,0,0-1.587-.446H9.815Z" transform="translate(-8.523 -18.167)"/><path d="M23.036,42.012l1.238.153a3.021,3.021,0,0,1-1.085,1.684,3.261,3.261,0,0,1-2.023.6,3.234,3.234,0,0,1-2.46-.955,3.733,3.733,0,0,1-.909-2.68,3.907,3.907,0,0,1,.918-2.77,3.11,3.11,0,0,1,2.383-.985,3.023,3.023,0,0,1,2.317.965,3.836,3.836,0,0,1,.9,2.716c0,.071,0,.178-.007.319H19.036a2.714,2.714,0,0,0,.659,1.784,1.961,1.961,0,0,0,1.478.619,1.832,1.832,0,0,0,1.125-.346A2.3,2.3,0,0,0,23.036,42.012ZM19.1,40.074H23.05a2.394,2.394,0,0,0-.453-1.338,1.837,1.837,0,0,0-1.484-.692,1.9,1.9,0,0,0-1.388.553A2.187,2.187,0,0,0,19.1,40.074Z" transform="translate(-8.523 -18.167)"/><path d="M28.4,43.217l.173,1.059a4.453,4.453,0,0,1-.905.106,2.047,2.047,0,0,1-1.012-.207,1.151,1.151,0,0,1-.506-.542A4.276,4.276,0,0,1,26,42.218V38.15H25.12v-.932H26V35.467l1.191-.719v2.47H28.4v.932H27.191v4.134a2.077,2.077,0,0,0,.063.659.5.5,0,0,0,.206.233.8.8,0,0,0,.41.086A3.857,3.857,0,0,0,28.4,43.217Z" transform="translate(-8.523 -18.167)"/><path d="M34.2,44.289V43.25a2.588,2.588,0,0,1-2.244,1.2,2.85,2.85,0,0,1-1.168-.24,1.921,1.921,0,0,1-.806-.6,2.254,2.254,0,0,1-.37-.889,6.079,6.079,0,0,1-.073-1.118V37.218h1.2V41.14a6.98,6.98,0,0,0,.073,1.265,1.251,1.251,0,0,0,.479.743,1.485,1.485,0,0,0,.905.27,1.976,1.976,0,0,0,1.012-.276,1.536,1.536,0,0,0,.669-.752,3.775,3.775,0,0,0,.2-1.381V37.218h1.2v7.07Z" transform="translate(-8.523 -18.167)"/><path d="M37.137,44.289v-7.07h1.079V38.29a2.927,2.927,0,0,1,.762-.992,1.331,1.331,0,0,1,.769-.24,2.338,2.338,0,0,1,1.231.386l-.413,1.112a1.713,1.713,0,0,0-.879-.26,1.143,1.143,0,0,0-.706.236,1.278,1.278,0,0,0-.446.656,4.664,4.664,0,0,0-.2,1.4v3.7Z" transform="translate(-8.523 -18.167)"/><path d="M41.691,44.289v-7.07h1.078v1.005a2.543,2.543,0,0,1,2.25-1.165,2.956,2.956,0,0,1,1.175.229,1.847,1.847,0,0,1,.8.6,2.315,2.315,0,0,1,.373.886,6.86,6.86,0,0,1,.066,1.165v4.347h-1.2v-4.3a3.229,3.229,0,0,0-.14-1.1,1.155,1.155,0,0,0-.5-.579,1.581,1.581,0,0,0-.835-.216,1.943,1.943,0,0,0-1.322.486,2.4,2.4,0,0,0-.556,1.844v3.861Z" transform="translate(-8.523 -18.167)"/><path d="M52.616,40.753a3.644,3.644,0,0,1,1.092-2.909,3.289,3.289,0,0,1,2.224-.786,3.17,3.17,0,0,1,2.383.956,3.633,3.633,0,0,1,.925,2.64,4.678,4.678,0,0,1-.409,2.147,2.9,2.9,0,0,1-1.192,1.215,3.469,3.469,0,0,1-1.708.433,3.179,3.179,0,0,1-2.4-.952A3.8,3.8,0,0,1,52.616,40.753Zm1.232,0a3.011,3.011,0,0,0,.592,2.034,1.973,1.973,0,0,0,2.976,0,3.087,3.087,0,0,0,.592-2.071,2.924,2.924,0,0,0-.6-1.987,1.976,1.976,0,0,0-2.973,0A3,3,0,0,0,53.848,40.753Z" transform="translate(-8.523 -18.167)"/><path d="M60.645,44.289v-7.07h1.078v1.005a2.543,2.543,0,0,1,2.25-1.165,2.956,2.956,0,0,1,1.175.229,1.847,1.847,0,0,1,.8.6,2.315,2.315,0,0,1,.373.886,6.86,6.86,0,0,1,.066,1.165v4.347h-1.2v-4.3a3.229,3.229,0,0,0-.14-1.1,1.155,1.155,0,0,0-.5-.579,1.581,1.581,0,0,0-.835-.216,1.943,1.943,0,0,0-1.322.486,2.4,2.4,0,0,0-.556,1.844v3.861Z" transform="translate(-8.523 -18.167)"/><path d="M72.169,44.289v-9.76h3.682a8.91,8.91,0,0,1,1.485.093,2.935,2.935,0,0,1,1.2.456,2.389,2.389,0,0,1,.782.942,3.176,3.176,0,0,1-.5,3.438,3.8,3.8,0,0,1-2.863.862h-2.5v3.968Zm1.292-5.12h2.523a2.676,2.676,0,0,0,1.777-.466,1.661,1.661,0,0,0,.526-1.312,1.765,1.765,0,0,0-.31-1.049,1.446,1.446,0,0,0-.815-.576,5.525,5.525,0,0,0-1.205-.086h-2.5Z" transform="translate(-8.523 -18.167)"/><path d="M80.664,40.753a3.644,3.644,0,0,1,1.092-2.909,3.289,3.289,0,0,1,2.224-.786,3.17,3.17,0,0,1,2.383.956,3.633,3.633,0,0,1,.925,2.64,4.678,4.678,0,0,1-.409,2.147,2.9,2.9,0,0,1-1.192,1.215,3.469,3.469,0,0,1-1.708.433,3.179,3.179,0,0,1-2.4-.952A3.8,3.8,0,0,1,80.664,40.753Zm1.232,0a3.011,3.011,0,0,0,.592,2.034,1.973,1.973,0,0,0,2.976,0,3.087,3.087,0,0,0,.592-2.071,2.924,2.924,0,0,0-.6-1.987,1.976,1.976,0,0,0-2.973,0A3,3,0,0,0,81.9,40.753Z" transform="translate(-8.523 -18.167)"/><path d="M88.68,44.289v-7.07h1.079V38.29a2.927,2.927,0,0,1,.762-.992,1.331,1.331,0,0,1,.769-.24,2.338,2.338,0,0,1,1.231.386l-.413,1.112a1.713,1.713,0,0,0-.879-.26,1.143,1.143,0,0,0-.706.236,1.278,1.278,0,0,0-.446.656,4.664,4.664,0,0,0-.2,1.4v3.7Z" transform="translate(-8.523 -18.167)"/><path d="M95.85,43.217l.173,1.059a4.453,4.453,0,0,1-.905.106,2.047,2.047,0,0,1-1.012-.207,1.151,1.151,0,0,1-.506-.542,4.276,4.276,0,0,1-.146-1.415V38.15h-.879v-.932h.879V35.467l1.191-.719v2.47H95.85v.932H94.645v4.134a2.077,2.077,0,0,0,.063.659.5.5,0,0,0,.206.233.8.8,0,0,0,.41.086A3.857,3.857,0,0,0,95.85,43.217Z" transform="translate(-8.523 -18.167)"/><path d="M97.308,44.289V38.15H96.25v-.932h1.059v-.752a3.288,3.288,0,0,1,.126-1.059,1.533,1.533,0,0,1,.609-.756,2.2,2.2,0,0,1,1.221-.29,5.853,5.853,0,0,1,1.119.12l-.18,1.045a4.016,4.016,0,0,0-.706-.066,1.05,1.05,0,0,0-.772.233,1.262,1.262,0,0,0-.227.872v.652h1.378v.932H98.5v6.138Z" transform="translate(-8.523 -18.167)"/><path d="M100.364,40.753a3.644,3.644,0,0,1,1.092-2.909,3.289,3.289,0,0,1,2.224-.786,3.17,3.17,0,0,1,2.383.956,3.633,3.633,0,0,1,.925,2.64,4.678,4.678,0,0,1-.409,2.147,2.9,2.9,0,0,1-1.192,1.215,3.469,3.469,0,0,1-1.708.433,3.179,3.179,0,0,1-2.4-.952A3.8,3.8,0,0,1,100.364,40.753Zm1.232,0a3.011,3.011,0,0,0,.592,2.034,1.973,1.973,0,0,0,2.976,0,3.087,3.087,0,0,0,.592-2.071,2.924,2.924,0,0,0-.6-1.987,1.976,1.976,0,0,0-2.973,0A3,3,0,0,0,101.6,40.753Z" transform="translate(-8.523 -18.167)"/><path d="M108.367,44.289v-9.76h1.2v9.76Z" transform="translate(-8.523 -18.167)"/><path d="M111.429,35.907V34.529h1.2v1.378Zm0,8.382v-7.07h1.2v7.07Z" transform="translate(-8.523 -18.167)"/><path d="M114.006,40.753a3.644,3.644,0,0,1,1.092-2.909,3.289,3.289,0,0,1,2.224-.786,3.17,3.17,0,0,1,2.383.956,3.633,3.633,0,0,1,.925,2.64,4.678,4.678,0,0,1-.409,2.147,2.9,2.9,0,0,1-1.192,1.215,3.469,3.469,0,0,1-1.708.433,3.179,3.179,0,0,1-2.4-.952A3.8,3.8,0,0,1,114.006,40.753Zm1.232,0a3.011,3.011,0,0,0,.592,2.034,1.973,1.973,0,0,0,2.976,0,3.087,3.087,0,0,0,.592-2.071,2.924,2.924,0,0,0-.6-1.987,1.976,1.976,0,0,0-2.973,0A3,3,0,0,0,115.238,40.753Z" transform="translate(-8.523 -18.167)"/><path d="M335.233,345.5v-9.76h4.327a5.756,5.756,0,0,1,1.983.263,2.166,2.166,0,0,1,1.085.929,2.764,2.764,0,0,1,.406,1.471,2.455,2.455,0,0,1-.672,1.751,3.405,3.405,0,0,1-2.077.905,3.325,3.325,0,0,1,.778.486,6.667,6.667,0,0,1,1.072,1.3l1.7,2.656h-1.624l-1.292-2.03q-.565-.879-.932-1.345a2.953,2.953,0,0,0-.655-.652,1.959,1.959,0,0,0-.59-.26,3.908,3.908,0,0,0-.719-.046h-1.5V345.5Zm1.291-5.453H339.3a4.153,4.153,0,0,0,1.385-.183,1.468,1.468,0,0,0,.759-.585,1.587,1.587,0,0,0,.26-.875,1.455,1.455,0,0,0-.5-1.139,2.351,2.351,0,0,0-1.588-.446h-3.089Z" transform="translate(-8.523 -18.167)"/><path d="M349.745,343.227l1.238.153a3.02,3.02,0,0,1-1.085,1.684,3.676,3.676,0,0,1-4.483-.356,3.731,3.731,0,0,1-.909-2.68,3.908,3.908,0,0,1,.919-2.77,3.111,3.111,0,0,1,2.384-.985,3.023,3.023,0,0,1,2.316.965,3.833,3.833,0,0,1,.9,2.716c0,.071,0,.178-.006.319h-5.273a2.722,2.722,0,0,0,.659,1.784,1.962,1.962,0,0,0,1.479.619,1.832,1.832,0,0,0,1.125-.346A2.294,2.294,0,0,0,349.745,343.227Zm-3.935-1.937h3.948a2.387,2.387,0,0,0-.453-1.338,1.835,1.835,0,0,0-1.484-.692,1.9,1.9,0,0,0-1.388.553A2.187,2.187,0,0,0,345.811,341.289Z" transform="translate(-8.523 -18.167)"/><path d="M357.1,344.631a4.458,4.458,0,0,1-1.282.8,3.7,3.7,0,0,1-1.321.233,2.569,2.569,0,0,1-1.791-.569,1.879,1.879,0,0,1-.626-1.455,1.939,1.939,0,0,1,.236-.949,1.969,1.969,0,0,1,.619-.689,2.931,2.931,0,0,1,.862-.393,8.593,8.593,0,0,1,1.065-.18,10.935,10.935,0,0,0,2.137-.413c0-.164.007-.268.007-.312a1.326,1.326,0,0,0-.339-1.032,2.009,2.009,0,0,0-1.365-.406,2.118,2.118,0,0,0-1.248.3,1.808,1.808,0,0,0-.6,1.049l-1.172-.16a2.9,2.9,0,0,1,.525-1.215,2.312,2.312,0,0,1,1.059-.712,4.724,4.724,0,0,1,1.6-.25,4.259,4.259,0,0,1,1.472.213,1.941,1.941,0,0,1,.832.536,1.888,1.888,0,0,1,.373.815,6.748,6.748,0,0,1,.06,1.1v1.6a16.77,16.77,0,0,0,.077,2.114,2.648,2.648,0,0,0,.3.849h-1.252A2.537,2.537,0,0,1,357.1,344.631Zm-.1-2.676a8.756,8.756,0,0,1-1.957.453,4.538,4.538,0,0,0-1.045.24,1.042,1.042,0,0,0-.473.389,1.058,1.058,0,0,0,.2,1.368,1.559,1.559,0,0,0,1.062.32,2.467,2.467,0,0,0,1.231-.3,1.862,1.862,0,0,0,.793-.829,2.908,2.908,0,0,0,.192-1.2Z" transform="translate(-8.523 -18.167)"/><path d="M360.045,345.5v-9.76h1.2v9.76Z" transform="translate(-8.523 -18.167)"/><path d="M363.108,337.122v-1.378h1.2v1.378Zm0,8.382v-7.07h1.2v7.07Z" transform="translate(-8.523 -18.167)"/><path d="M365.5,345.5v-.972l4.5-5.166q-.766.04-1.352.04h-2.883v-.972h5.779v.792l-3.828,4.487-.739.819q.806-.059,1.512-.06h3.269V345.5Z" transform="translate(-8.523 -18.167)"/><path d="M377.787,343.227l1.238.153a3.02,3.02,0,0,1-1.085,1.684,3.676,3.676,0,0,1-4.483-.356,3.731,3.731,0,0,1-.909-2.68,3.908,3.908,0,0,1,.919-2.77,3.111,3.111,0,0,1,2.384-.985,3.023,3.023,0,0,1,2.316.965,3.833,3.833,0,0,1,.9,2.716c0,.071,0,.178-.006.319h-5.273a2.722,2.722,0,0,0,.659,1.784,1.962,1.962,0,0,0,1.479.619,1.832,1.832,0,0,0,1.125-.346A2.294,2.294,0,0,0,377.787,343.227Zm-3.935-1.937H377.8a2.387,2.387,0,0,0-.453-1.338,1.835,1.835,0,0,0-1.484-.692,1.9,1.9,0,0,0-1.388.553A2.187,2.187,0,0,0,373.853,341.289Z" transform="translate(-8.523 -18.167)"/><path d="M385.118,345.5v-.892a2.2,2.2,0,0,1-1.977,1.052,2.772,2.772,0,0,1-1.555-.466,3.065,3.065,0,0,1-1.1-1.3,4.5,4.5,0,0,1-.39-1.92,5.026,5.026,0,0,1,.354-1.921,2.78,2.78,0,0,1,1.058-1.321,2.833,2.833,0,0,1,1.578-.459,2.358,2.358,0,0,1,1.951.972v-3.5h1.191v9.76Zm-3.788-3.528a3.069,3.069,0,0,0,.573,2.03,1.725,1.725,0,0,0,1.352.672,1.694,1.694,0,0,0,1.334-.642,2.962,2.962,0,0,0,.55-1.961,3.324,3.324,0,0,0-.56-2.13,1.72,1.72,0,0,0-1.378-.679,1.661,1.661,0,0,0-1.335.652A3.219,3.219,0,0,0,381.329,341.975Z" transform="translate(-8.523 -18.167)"/><path d="M392.081,345.5v-9.76h7.058V336.9h-5.766v2.989h5.4v1.145h-5.4v3.322h5.991V345.5Z" transform="translate(-8.523 -18.167)"/><path d="M400.2,345.5l2.583-3.675-2.39-3.4h1.5l1.085,1.658q.306.473.493.792c.194-.293.375-.553.539-.779l1.191-1.671h1.432l-2.443,3.329,2.63,3.742h-1.472l-1.451-2.2-.387-.593-1.857,2.79Z" transform="translate(-8.523 -18.167)"/><path d="M412.427,342.914l1.178.153a3.058,3.058,0,0,1-.988,1.907,2.879,2.879,0,0,1-1.954.689,3.033,3.033,0,0,1-2.333-.949,3.844,3.844,0,0,1-.883-2.719,4.92,4.92,0,0,1,.38-2,2.645,2.645,0,0,1,1.155-1.289,3.426,3.426,0,0,1,1.688-.429,2.935,2.935,0,0,1,1.884.583,2.672,2.672,0,0,1,.938,1.654l-1.165.18a1.929,1.929,0,0,0-.589-1.072,1.524,1.524,0,0,0-1.021-.359,1.859,1.859,0,0,0-1.472.649,3.084,3.084,0,0,0-.565,2.054,3.184,3.184,0,0,0,.546,2.071,1.774,1.774,0,0,0,1.424.646,1.68,1.68,0,0,0,1.179-.433A2.15,2.15,0,0,0,412.427,342.914Z" transform="translate(-8.523 -18.167)"/><path d="M419.47,343.227l1.238.153a3.02,3.02,0,0,1-1.085,1.684,3.676,3.676,0,0,1-4.483-.356,3.731,3.731,0,0,1-.909-2.68,3.908,3.908,0,0,1,.919-2.77,3.111,3.111,0,0,1,2.384-.985,3.023,3.023,0,0,1,2.316.965,3.833,3.833,0,0,1,.9,2.716c0,.071,0,.178-.006.319h-5.273a2.722,2.722,0,0,0,.659,1.784,1.962,1.962,0,0,0,1.479.619,1.832,1.832,0,0,0,1.125-.346A2.294,2.294,0,0,0,419.47,343.227Zm-3.935-1.937h3.948a2.387,2.387,0,0,0-.453-1.338,1.835,1.835,0,0,0-1.484-.692,1.9,1.9,0,0,0-1.388.553A2.187,2.187,0,0,0,415.536,341.289Z" transform="translate(-8.523 -18.167)"/><path d="M421.734,343.393l1.186-.187a1.656,1.656,0,0,0,.556,1.092,1.939,1.939,0,0,0,1.275.379,1.874,1.874,0,0,0,1.225-.336,1,1,0,0,0,.4-.789.728.728,0,0,0-.353-.639,5.206,5.206,0,0,0-1.226-.406,11.218,11.218,0,0,1-1.827-.576,1.743,1.743,0,0,1-1.035-1.621,1.819,1.819,0,0,1,.217-.875,1.928,1.928,0,0,1,.589-.669,2.477,2.477,0,0,1,.762-.35,3.637,3.637,0,0,1,1.036-.143,4.1,4.1,0,0,1,1.461.24,1.991,1.991,0,0,1,.929.649,2.553,2.553,0,0,1,.413,1.1l-1.172.16a1.285,1.285,0,0,0-.463-.852,1.693,1.693,0,0,0-1.082-.306,1.955,1.955,0,0,0-1.178.273.8.8,0,0,0-.354.639.662.662,0,0,0,.146.419,1.052,1.052,0,0,0,.46.319c.119.044.473.146,1.058.306a14.743,14.743,0,0,1,1.774.556,1.8,1.8,0,0,1,.789.629,1.76,1.76,0,0,1,.286,1.025,2.009,2.009,0,0,1-.35,1.128,2.256,2.256,0,0,1-1.008.819,3.668,3.668,0,0,1-1.492.29,3.32,3.32,0,0,1-2.1-.572A2.663,2.663,0,0,1,421.734,343.393Z" transform="translate(-8.523 -18.167)"/><path d="M428.551,343.393l1.186-.187a1.656,1.656,0,0,0,.556,1.092,1.939,1.939,0,0,0,1.275.379,1.874,1.874,0,0,0,1.225-.336,1,1,0,0,0,.4-.789.728.728,0,0,0-.353-.639,5.206,5.206,0,0,0-1.226-.406,11.218,11.218,0,0,1-1.827-.576,1.743,1.743,0,0,1-1.035-1.621,1.819,1.819,0,0,1,.217-.875,1.928,1.928,0,0,1,.589-.669,2.477,2.477,0,0,1,.762-.35,3.637,3.637,0,0,1,1.036-.143,4.1,4.1,0,0,1,1.461.24,1.991,1.991,0,0,1,.929.649,2.553,2.553,0,0,1,.413,1.1l-1.172.16a1.285,1.285,0,0,0-.463-.852,1.693,1.693,0,0,0-1.082-.306,1.955,1.955,0,0,0-1.178.273.8.8,0,0,0-.354.639.662.662,0,0,0,.146.419,1.052,1.052,0,0,0,.46.319c.119.044.473.146,1.058.306a14.743,14.743,0,0,1,1.774.556,1.8,1.8,0,0,1,.789.629,1.76,1.76,0,0,1,.286,1.025,2.009,2.009,0,0,1-.35,1.128,2.256,2.256,0,0,1-1.008.819,3.668,3.668,0,0,1-1.492.29,3.32,3.32,0,0,1-2.1-.572A2.663,2.663,0,0,1,428.551,343.393Z" transform="translate(-8.523 -18.167)"/><path d="M335.233,361.864V352.1h4.327a5.77,5.77,0,0,1,1.983.263,2.171,2.171,0,0,1,1.085.929,2.767,2.767,0,0,1,.406,1.472,2.454,2.454,0,0,1-.672,1.751,3.405,3.405,0,0,1-2.077.905,3.308,3.308,0,0,1,.778.486,6.649,6.649,0,0,1,1.072,1.3l1.7,2.656h-1.624l-1.292-2.03q-.565-.879-.932-1.345a2.942,2.942,0,0,0-.655-.652,1.923,1.923,0,0,0-.59-.26,3.854,3.854,0,0,0-.719-.047h-1.5v4.334Zm1.291-5.452H339.3a4.164,4.164,0,0,0,1.385-.184,1.472,1.472,0,0,0,.759-.586,1.585,1.585,0,0,0,.26-.875,1.456,1.456,0,0,0-.5-1.139,2.354,2.354,0,0,0-1.588-.446h-3.089Z" transform="translate(-8.523 -18.167)"/><path d="M349.745,359.588l1.238.152a3.02,3.02,0,0,1-1.085,1.685,3.674,3.674,0,0,1-4.483-.356,3.729,3.729,0,0,1-.909-2.68,3.908,3.908,0,0,1,.919-2.77,3.112,3.112,0,0,1,2.384-.984,3.022,3.022,0,0,1,2.316.965,3.833,3.833,0,0,1,.9,2.716c0,.071,0,.178-.006.32h-5.273a2.724,2.724,0,0,0,.659,1.784,1.965,1.965,0,0,0,1.479.619,1.829,1.829,0,0,0,1.125-.347A2.293,2.293,0,0,0,349.745,359.588Zm-3.935-1.937h3.948a2.391,2.391,0,0,0-.453-1.339,1.836,1.836,0,0,0-1.484-.692,1.9,1.9,0,0,0-1.388.553A2.19,2.19,0,0,0,345.811,357.65Z" transform="translate(-8.523 -18.167)"/><path d="M355.1,360.792l.174,1.059a4.433,4.433,0,0,1-.905.106,2.052,2.052,0,0,1-1.013-.206,1.159,1.159,0,0,1-.506-.542,4.3,4.3,0,0,1-.146-1.415v-4.067h-.879v-.933h.879v-1.751l1.192-.719v2.47h1.2v.933h-1.2v4.134a2.1,2.1,0,0,0,.063.659.5.5,0,0,0,.207.233.8.8,0,0,0,.409.086A3.865,3.865,0,0,0,355.1,360.792Z" transform="translate(-8.523 -18.167)"/><path d="M360.911,361.864v-1.038a2.587,2.587,0,0,1-2.243,1.2,2.855,2.855,0,0,1-1.169-.24,1.923,1.923,0,0,1-.806-.6,2.265,2.265,0,0,1-.369-.889,6.079,6.079,0,0,1-.073-1.118v-4.381h1.2v3.921a7,7,0,0,0,.073,1.266,1.25,1.25,0,0,0,.479.742,1.485,1.485,0,0,0,.905.27,1.966,1.966,0,0,0,1.012-.276,1.535,1.535,0,0,0,.669-.752,3.777,3.777,0,0,0,.2-1.382v-3.788h1.2v7.07Z" transform="translate(-8.523 -18.167)"/><path d="M363.847,361.864v-7.07h1.078v1.072a2.924,2.924,0,0,1,.763-.992,1.326,1.326,0,0,1,.769-.239,2.331,2.331,0,0,1,1.231.386l-.412,1.111a1.716,1.716,0,0,0-.879-.259,1.137,1.137,0,0,0-.706.236,1.278,1.278,0,0,0-.446.655,4.68,4.68,0,0,0-.2,1.4v3.7Z" transform="translate(-8.523 -18.167)"/><path d="M368.4,361.864v-7.07h1.079V355.8a2.538,2.538,0,0,1,2.25-1.165,2.949,2.949,0,0,1,1.175.229,1.848,1.848,0,0,1,.8.6,2.306,2.306,0,0,1,.372.885,6.787,6.787,0,0,1,.067,1.165v4.348h-1.2v-4.3a3.21,3.21,0,0,0-.14-1.095,1.142,1.142,0,0,0-.5-.579,1.573,1.573,0,0,0-.835-.217,1.939,1.939,0,0,0-1.321.486A2.394,2.394,0,0,0,369.6,358v3.861Z" transform="translate(-8.523 -18.167)"/><path d="M379.326,358.329a3.641,3.641,0,0,1,1.092-2.909,3.289,3.289,0,0,1,2.224-.785,3.172,3.172,0,0,1,2.383.955,3.633,3.633,0,0,1,.926,2.64,4.667,4.667,0,0,1-.41,2.146,2.892,2.892,0,0,1-1.191,1.215,3.464,3.464,0,0,1-1.707.434,3.178,3.178,0,0,1-2.4-.952A3.8,3.8,0,0,1,379.326,358.329Zm1.231,0a3.016,3.016,0,0,0,.592,2.034,1.973,1.973,0,0,0,2.977,0,3.084,3.084,0,0,0,.593-2.07,2.922,2.922,0,0,0-.6-1.987,1.975,1.975,0,0,0-2.973,0A3,3,0,0,0,380.557,358.329Z" transform="translate(-8.523 -18.167)"/><path d="M387.354,361.864v-7.07h1.079V355.8a2.538,2.538,0,0,1,2.25-1.165,2.949,2.949,0,0,1,1.175.229,1.848,1.848,0,0,1,.8.6,2.306,2.306,0,0,1,.372.885,6.787,6.787,0,0,1,.067,1.165v4.348h-1.2v-4.3a3.21,3.21,0,0,0-.14-1.095,1.142,1.142,0,0,0-.5-.579,1.573,1.573,0,0,0-.835-.217,1.939,1.939,0,0,0-1.321.486,2.394,2.394,0,0,0-.557,1.844v3.861Z" transform="translate(-8.523 -18.167)"/><path d="M398.838,361.864V352.1h1.944l2.31,6.91q.321.965.467,1.445.166-.533.519-1.564l2.337-6.791h1.737v9.76h-1.244V353.7l-2.836,8.169h-1.165l-2.823-8.309v8.309Z" transform="translate(-8.523 -18.167)"/><path d="M414.7,360.992a4.468,4.468,0,0,1-1.282.8,3.7,3.7,0,0,1-1.321.233,2.574,2.574,0,0,1-1.791-.569,1.88,1.88,0,0,1-.626-1.455,1.937,1.937,0,0,1,.236-.948,1.966,1.966,0,0,1,.619-.689,2.931,2.931,0,0,1,.862-.393,8.5,8.5,0,0,1,1.065-.18,10.9,10.9,0,0,0,2.137-.413c0-.164.007-.269.007-.312a1.327,1.327,0,0,0-.339-1.032,2.009,2.009,0,0,0-1.365-.406,2.11,2.11,0,0,0-1.248.3,1.8,1.8,0,0,0-.6,1.048l-1.172-.159a2.9,2.9,0,0,1,.525-1.215,2.313,2.313,0,0,1,1.059-.713,4.736,4.736,0,0,1,1.6-.249,4.235,4.235,0,0,1,1.472.213,1.94,1.94,0,0,1,.832.535,1.889,1.889,0,0,1,.373.816,6.741,6.741,0,0,1,.06,1.1v1.6a16.769,16.769,0,0,0,.077,2.114,2.648,2.648,0,0,0,.3.849h-1.252A2.534,2.534,0,0,1,414.7,360.992Zm-.1-2.677a8.751,8.751,0,0,1-1.957.453,4.6,4.6,0,0,0-1.045.239,1.04,1.04,0,0,0-.473.39,1.058,1.058,0,0,0,.2,1.368,1.562,1.562,0,0,0,1.062.319,2.467,2.467,0,0,0,1.231-.3,1.861,1.861,0,0,0,.793-.829,2.908,2.908,0,0,0,.192-1.2Z" transform="translate(-8.523 -18.167)"/><path d="M417.653,361.864v-7.07h1.078v1.072a2.924,2.924,0,0,1,.763-.992,1.326,1.326,0,0,1,.769-.239,2.331,2.331,0,0,1,1.231.386l-.412,1.111a1.716,1.716,0,0,0-.879-.259,1.137,1.137,0,0,0-.706.236,1.278,1.278,0,0,0-.446.655,4.68,4.68,0,0,0-.2,1.4v3.7Z" transform="translate(-8.523 -18.167)"/><path d="M422.212,361.864V352.1h1.2v5.565l2.836-2.876H427.8l-2.7,2.623,2.976,4.447h-1.478l-2.337-3.615-.846.813v2.8Z" transform="translate(-8.523 -18.167)"/><path d="M433.863,359.588l1.238.152a3.02,3.02,0,0,1-1.085,1.685,3.674,3.674,0,0,1-4.483-.356,3.729,3.729,0,0,1-.909-2.68,3.908,3.908,0,0,1,.919-2.77,3.112,3.112,0,0,1,2.384-.984,3.022,3.022,0,0,1,2.316.965,3.833,3.833,0,0,1,.9,2.716c0,.071,0,.178-.006.32h-5.273a2.724,2.724,0,0,0,.659,1.784,1.965,1.965,0,0,0,1.479.619,1.829,1.829,0,0,0,1.125-.347A2.293,2.293,0,0,0,433.863,359.588Zm-3.935-1.937h3.948a2.391,2.391,0,0,0-.453-1.339,1.836,1.836,0,0,0-1.484-.692,1.9,1.9,0,0,0-1.388.553A2.19,2.19,0,0,0,429.928,357.65Z" transform="translate(-8.523 -18.167)"/><path d="M439.222,360.792l.174,1.059a4.433,4.433,0,0,1-.905.106,2.052,2.052,0,0,1-1.013-.206,1.159,1.159,0,0,1-.506-.542,4.3,4.3,0,0,1-.146-1.415v-4.067h-.879v-.933h.879v-1.751l1.192-.719v2.47h1.2v.933h-1.2v4.134a2.1,2.1,0,0,0,.063.659.5.5,0,0,0,.207.233.8.8,0,0,0,.409.086A3.865,3.865,0,0,0,439.222,360.792Z" transform="translate(-8.523 -18.167)"/><path d="M34.9,339.66a8.937,8.937,0,0,1,.356-2.786,3.47,3.47,0,0,1,1.059-1.627,2.706,2.706,0,0,1,1.768-.573,2.881,2.881,0,0,1,1.378.316,2.637,2.637,0,0,1,.979.912,4.879,4.879,0,0,1,.605,1.451,9.641,9.641,0,0,1,.22,2.307,8.97,8.97,0,0,1-.353,2.773,3.465,3.465,0,0,1-1.055,1.631,2.97,2.97,0,0,1-3.991-.436A6.431,6.431,0,0,1,34.9,339.66Zm1.231,0a6.12,6.12,0,0,0,.563,3.2,1.607,1.607,0,0,0,2.776,0,9.378,9.378,0,0,0,0-6.4,1.67,1.67,0,0,0-1.4-.792,1.536,1.536,0,0,0-1.318.7A6.192,6.192,0,0,0,36.13,339.66Z" transform="translate(-8.523 -18.167)"/><line class="cls-2" x1="33.393" y1="200.934" x2="363.368" y2="32.876"/><line class="cls-1" x1="396.649" y1="311.788" x2="32.832" y2="311.788"/><path class="cls-3" d="M327.81,122.17l1.219-.106a2.688,2.688,0,0,0,.4,1.2,2.2,2.2,0,0,0,.982.759,3.71,3.71,0,0,0,1.5.29,3.6,3.6,0,0,0,1.3-.219,1.815,1.815,0,0,0,.842-.6,1.4,1.4,0,0,0,.276-.835,1.268,1.268,0,0,0-.267-.8,1.964,1.964,0,0,0-.879-.576,17.178,17.178,0,0,0-1.737-.476,8.848,8.848,0,0,1-1.884-.609,2.643,2.643,0,0,1-1.042-.909,2.228,2.228,0,0,1-.343-1.215,2.483,2.483,0,0,1,.419-1.381,2.6,2.6,0,0,1,1.226-.975,4.642,4.642,0,0,1,1.791-.333,4.9,4.9,0,0,1,1.914.35,2.76,2.76,0,0,1,1.274,1.028,2.963,2.963,0,0,1,.479,1.538l-1.238.093a2,2,0,0,0-.676-1.4,2.629,2.629,0,0,0-1.7-.473,2.727,2.727,0,0,0-1.707.429,1.287,1.287,0,0,0-.536,1.035,1.11,1.11,0,0,0,.379.866,5.149,5.149,0,0,0,1.947.7,12.953,12.953,0,0,1,2.161.623,2.962,2.962,0,0,1,1.258,1,2.425,2.425,0,0,1,.406,1.388,2.652,2.652,0,0,1-.446,1.468,2.936,2.936,0,0,1-1.281,1.072,4.474,4.474,0,0,1-1.881.383,5.62,5.62,0,0,1-2.221-.386,3.11,3.11,0,0,1-1.4-1.162A3.291,3.291,0,0,1,327.81,122.17Z" transform="translate(-8.523 -18.167)"/><path class="cls-3" d="M337.163,125.306v-9.76h1.2v9.76Z" transform="translate(-8.523 -18.167)"/><path class="cls-3" d="M339.774,121.771a3.642,3.642,0,0,1,1.092-2.909,3.287,3.287,0,0,1,2.224-.786,3.171,3.171,0,0,1,2.383.956,3.633,3.633,0,0,1,.926,2.64,4.67,4.67,0,0,1-.41,2.147,2.9,2.9,0,0,1-1.191,1.215,3.468,3.468,0,0,1-1.707.433,3.18,3.18,0,0,1-2.4-.952A3.8,3.8,0,0,1,339.774,121.771Zm1.231,0a3.013,3.013,0,0,0,.592,2.034,1.974,1.974,0,0,0,2.977,0,3.087,3.087,0,0,0,.593-2.071,2.921,2.921,0,0,0-.6-1.987,1.976,1.976,0,0,0-2.973,0A3,3,0,0,0,341.005,121.771Z" transform="translate(-8.523 -18.167)"/><path class="cls-3" d="M347.8,128.016v-9.78h1.092v.919a2.7,2.7,0,0,1,.872-.809,2.4,2.4,0,0,1,1.179-.27,2.8,2.8,0,0,1,1.6.466,2.854,2.854,0,0,1,1.045,1.315,4.8,4.8,0,0,1,.354,1.861,4.724,4.724,0,0,1-.39,1.954,2.96,2.96,0,0,1-2.693,1.794,2.258,2.258,0,0,1-1.075-.253,2.446,2.446,0,0,1-.782-.639v3.442Zm1.086-6.2a3.077,3.077,0,0,0,.552,2.017,1.7,1.7,0,0,0,1.339.652,1.733,1.733,0,0,0,1.368-.676,3.208,3.208,0,0,0,.568-2.094,3.12,3.12,0,0,0-.556-2.023,1.674,1.674,0,0,0-1.328-.673,1.725,1.725,0,0,0-1.354.716A3.2,3.2,0,0,0,348.888,121.811Z" transform="translate(-8.523 -18.167)"/><path class="cls-3" d="M360.225,123.029l1.238.153a3.02,3.02,0,0,1-1.085,1.684,3.676,3.676,0,0,1-4.483-.356,3.731,3.731,0,0,1-.909-2.68,3.908,3.908,0,0,1,.919-2.77,3.111,3.111,0,0,1,2.384-.985,3.023,3.023,0,0,1,2.316.965,3.833,3.833,0,0,1,.9,2.716c0,.071,0,.178-.006.319h-5.273a2.722,2.722,0,0,0,.659,1.784,1.962,1.962,0,0,0,1.479.619,1.832,1.832,0,0,0,1.125-.346A2.294,2.294,0,0,0,360.225,123.029Zm-3.935-1.937h3.948a2.387,2.387,0,0,0-.453-1.338,1.835,1.835,0,0,0-1.484-.692,1.9,1.9,0,0,0-1.388.553A2.187,2.187,0,0,0,356.29,121.092Z" transform="translate(-8.523 -18.167)"/><path class="cls-3" d="M373.061,119.567h-6.444v-1.118h6.444Zm0,2.962h-6.444v-1.118h6.444Z" transform="translate(-8.523 -18.167)"/><path class="cls-3" d="M378.607,125.306v-9.76h3.661a4.523,4.523,0,0,1,1.794.3,2.3,2.3,0,0,1,1.059.912,2.4,2.4,0,0,1,.383,1.288,2.219,2.219,0,0,1-.339,1.178,2.423,2.423,0,0,1-1.025.892A2.551,2.551,0,0,1,385.5,121a2.37,2.37,0,0,1,.476,1.478,2.858,2.858,0,0,1-.289,1.275,2.467,2.467,0,0,1-.716.909,2.988,2.988,0,0,1-1.068.483,6.5,6.5,0,0,1-1.575.163Zm1.291-5.659h2.11a4.7,4.7,0,0,0,1.231-.113,1.366,1.366,0,0,0,.742-.486,1.4,1.4,0,0,0,.25-.853,1.571,1.571,0,0,0-.232-.855,1.186,1.186,0,0,0-.666-.506,5.571,5.571,0,0,0-1.484-.136H379.9Zm0,4.507h2.43a5.576,5.576,0,0,0,.879-.046,2.1,2.1,0,0,0,.746-.267,1.414,1.414,0,0,0,.492-.542,1.7,1.7,0,0,0,.193-.822,1.622,1.622,0,0,0-.279-.949,1.476,1.476,0,0,0-.776-.565,4.8,4.8,0,0,0-1.428-.163H379.9Z" transform="translate(-8.523 -18.167)"/><path class="cls-3" d="M392.44,123.029l1.238.153a3.02,3.02,0,0,1-1.085,1.684,3.676,3.676,0,0,1-4.483-.356,3.731,3.731,0,0,1-.909-2.68,3.908,3.908,0,0,1,.919-2.77,3.111,3.111,0,0,1,2.384-.985,3.023,3.023,0,0,1,2.316.965,3.833,3.833,0,0,1,.9,2.716c0,.071,0,.178-.006.319h-5.273a2.722,2.722,0,0,0,.659,1.784,1.962,1.962,0,0,0,1.479.619,1.832,1.832,0,0,0,1.125-.346A2.294,2.294,0,0,0,392.44,123.029Zm-3.935-1.937h3.948a2.387,2.387,0,0,0-.453-1.338,1.835,1.835,0,0,0-1.484-.692,1.9,1.9,0,0,0-1.388.553A2.187,2.187,0,0,0,388.505,121.092Z" transform="translate(-8.523 -18.167)"/><path class="cls-3" d="M397.8,124.234l.174,1.059a4.468,4.468,0,0,1-.905.106,2.052,2.052,0,0,1-1.013-.207,1.156,1.156,0,0,1-.506-.542,4.29,4.29,0,0,1-.146-1.415v-4.068h-.879v-.932h.879v-1.751l1.192-.719v2.47h1.2v.932h-1.2V123.3a2.1,2.1,0,0,0,.063.659.5.5,0,0,0,.207.233.8.8,0,0,0,.409.086A3.851,3.851,0,0,0,397.8,124.234Z" transform="translate(-8.523 -18.167)"/><path class="cls-3" d="M403.585,124.434a4.458,4.458,0,0,1-1.282.8,3.7,3.7,0,0,1-1.321.233,2.569,2.569,0,0,1-1.791-.569,1.879,1.879,0,0,1-.626-1.455,1.939,1.939,0,0,1,.236-.949,1.969,1.969,0,0,1,.619-.689,2.931,2.931,0,0,1,.862-.393,8.593,8.593,0,0,1,1.065-.18,10.935,10.935,0,0,0,2.137-.413c0-.164.007-.268.007-.312a1.326,1.326,0,0,0-.339-1.032,2.009,2.009,0,0,0-1.365-.406,2.118,2.118,0,0,0-1.248.3,1.808,1.808,0,0,0-.6,1.049l-1.172-.16a2.9,2.9,0,0,1,.525-1.215,2.312,2.312,0,0,1,1.059-.712,4.724,4.724,0,0,1,1.6-.25,4.259,4.259,0,0,1,1.472.213,1.941,1.941,0,0,1,.832.536,1.888,1.888,0,0,1,.373.815,6.748,6.748,0,0,1,.06,1.1v1.6a16.77,16.77,0,0,0,.077,2.114,2.648,2.648,0,0,0,.3.849h-1.252A2.537,2.537,0,0,1,403.585,124.434Zm-.1-2.676a8.756,8.756,0,0,1-1.957.453,4.538,4.538,0,0,0-1.045.24,1.042,1.042,0,0,0-.473.389,1.058,1.058,0,0,0,.2,1.368,1.559,1.559,0,0,0,1.062.32,2.467,2.467,0,0,0,1.231-.3,1.862,1.862,0,0,0,.793-.829,2.908,2.908,0,0,0,.192-1.2Z" transform="translate(-8.523 -18.167)"/><path class="cls-3" d="M67.488,287.938v-9.76H68.78v9.76Z" transform="translate(-8.523 -18.167)"/><path class="cls-3" d="M70.9,287.938v-7.07h1.078v1.005a2.543,2.543,0,0,1,2.25-1.165,2.956,2.956,0,0,1,1.175.229,1.847,1.847,0,0,1,.8.6,2.315,2.315,0,0,1,.373.886,6.86,6.86,0,0,1,.066,1.165v4.347h-1.2v-4.3a3.229,3.229,0,0,0-.14-1.1,1.155,1.155,0,0,0-.5-.579,1.581,1.581,0,0,0-.835-.216,1.943,1.943,0,0,0-1.322.486,2.4,2.4,0,0,0-.556,1.844v3.861Z" transform="translate(-8.523 -18.167)"/><path class="cls-3" d="M81.1,286.867l.173,1.059a4.453,4.453,0,0,1-.905.106,2.047,2.047,0,0,1-1.012-.207,1.151,1.151,0,0,1-.506-.542,4.276,4.276,0,0,1-.146-1.415V281.8h-.879v-.932h.879v-1.751L79.9,278.4v2.47H81.1v.932H79.9v4.134a2.077,2.077,0,0,0,.063.659.5.5,0,0,0,.206.233.8.8,0,0,0,.41.086A3.857,3.857,0,0,0,81.1,286.867Z" transform="translate(-8.523 -18.167)"/><path class="cls-3" d="M87.115,285.662l1.238.153a3.021,3.021,0,0,1-1.085,1.684,3.676,3.676,0,0,1-4.483-.356,3.733,3.733,0,0,1-.909-2.68,3.907,3.907,0,0,1,.918-2.77,3.11,3.11,0,0,1,2.383-.985,3.023,3.023,0,0,1,2.317.965,3.836,3.836,0,0,1,.9,2.716c0,.071,0,.178-.007.319H83.114a2.714,2.714,0,0,0,.659,1.784,1.961,1.961,0,0,0,1.478.619,1.832,1.832,0,0,0,1.125-.346A2.3,2.3,0,0,0,87.115,285.662Zm-3.935-1.937h3.948a2.394,2.394,0,0,0-.453-1.338,1.837,1.837,0,0,0-1.484-.692,1.9,1.9,0,0,0-1.388.553A2.187,2.187,0,0,0,83.18,283.724Z" transform="translate(-8.523 -18.167)"/><path class="cls-3" d="M89.844,287.938v-7.07h1.079v1.072a2.927,2.927,0,0,1,.762-.992,1.331,1.331,0,0,1,.769-.24,2.338,2.338,0,0,1,1.231.386l-.413,1.112a1.713,1.713,0,0,0-.879-.26,1.143,1.143,0,0,0-.706.236,1.278,1.278,0,0,0-.446.656,4.664,4.664,0,0,0-.2,1.4v3.7Z" transform="translate(-8.523 -18.167)"/><path class="cls-3" d="M99.012,285.349l1.179.153a3.058,3.058,0,0,1-.989,1.907,2.879,2.879,0,0,1-1.954.689,3.035,3.035,0,0,1-2.333-.949,3.849,3.849,0,0,1-.882-2.719,4.92,4.92,0,0,1,.379-2,2.646,2.646,0,0,1,1.155-1.289,3.429,3.429,0,0,1,1.688-.429,2.935,2.935,0,0,1,1.884.583,2.673,2.673,0,0,1,.939,1.654l-1.165.18a1.939,1.939,0,0,0-.589-1.072,1.524,1.524,0,0,0-1.022-.359,1.86,1.86,0,0,0-1.471.649,3.082,3.082,0,0,0-.566,2.054,3.187,3.187,0,0,0,.546,2.071,1.776,1.776,0,0,0,1.425.646,1.678,1.678,0,0,0,1.178-.433A2.147,2.147,0,0,0,99.012,285.349Z" transform="translate(-8.523 -18.167)"/><path class="cls-3" d="M106.056,285.662l1.238.153a3.021,3.021,0,0,1-1.085,1.684,3.676,3.676,0,0,1-4.483-.356,3.733,3.733,0,0,1-.909-2.68,3.907,3.907,0,0,1,.918-2.77,3.11,3.11,0,0,1,2.383-.985,3.023,3.023,0,0,1,2.317.965,3.836,3.836,0,0,1,.9,2.716c0,.071,0,.178-.007.319h-5.272a2.714,2.714,0,0,0,.659,1.784,1.961,1.961,0,0,0,1.478.619,1.832,1.832,0,0,0,1.125-.346A2.3,2.3,0,0,0,106.056,285.662Zm-3.935-1.937h3.948a2.394,2.394,0,0,0-.453-1.338,1.837,1.837,0,0,0-1.484-.692,1.9,1.9,0,0,0-1.388.553A2.187,2.187,0,0,0,102.121,283.724Z" transform="translate(-8.523 -18.167)"/><path class="cls-3" d="M108.8,290.648v-9.78h1.092v.919a2.689,2.689,0,0,1,.872-.809,2.4,2.4,0,0,1,1.178-.27,2.794,2.794,0,0,1,1.6.466,2.861,2.861,0,0,1,1.045,1.315,4.8,4.8,0,0,1,.353,1.861,4.724,4.724,0,0,1-.39,1.954,2.96,2.96,0,0,1-2.693,1.794,2.258,2.258,0,0,1-1.075-.253,2.446,2.446,0,0,1-.782-.639v3.442Zm1.085-6.2a3.074,3.074,0,0,0,.553,2.017,1.694,1.694,0,0,0,1.338.652,1.732,1.732,0,0,0,1.368-.676,3.2,3.2,0,0,0,.569-2.094,3.122,3.122,0,0,0-.556-2.023,1.674,1.674,0,0,0-1.328-.673,1.725,1.725,0,0,0-1.354.716A3.2,3.2,0,0,0,109.884,284.443Z" transform="translate(-8.523 -18.167)"/><path class="cls-3" d="M119,286.867l.173,1.059a4.453,4.453,0,0,1-.905.106,2.047,2.047,0,0,1-1.012-.207,1.151,1.151,0,0,1-.506-.542,4.276,4.276,0,0,1-.146-1.415V281.8h-.879v-.932h.879v-1.751l1.191-.719v2.47H119v.932h-1.205v4.134a2.077,2.077,0,0,0,.063.659.5.5,0,0,0,.206.233.8.8,0,0,0,.41.086A3.857,3.857,0,0,0,119,286.867Z" transform="translate(-8.523 -18.167)"/><path class="cls-3" d="M130.262,282.2h-6.444v-1.118h6.444Zm0,2.962h-6.444v-1.118h6.444Z" transform="translate(-8.523 -18.167)"/><path class="cls-3" d="M140.954,280.868h1.225a30.837,30.837,0,0,0-.859,3.535,20.587,20.587,0,0,0,.859,3.535h-1.191a7.751,7.751,0,0,1-.433-1.292,2.22,2.22,0,0,1-2.31,1.451,2.626,2.626,0,0,1-2.144-1,4.17,4.17,0,0,1-.812-2.709,4.085,4.085,0,0,1,.815-2.72,2.692,2.692,0,0,1,2.16-.962,2.484,2.484,0,0,1,1.358.336,3.416,3.416,0,0,1,.979,1.021Q140.648,281.833,140.954,280.868Zm-2.49.833a1.586,1.586,0,0,0-1.358.692,3.383,3.383,0,0,0-.5,2,3.633,3.633,0,0,0,.473,2,1.49,1.49,0,0,0,1.318.726,1.678,1.678,0,0,0,1.378-.715,3.315,3.315,0,0,0,.553-2.061,3.177,3.177,0,0,0-.516-1.971A1.626,1.626,0,0,0,138.464,281.7Z" transform="translate(-8.523 -18.167)"/><path class="cls-4" d="M41.916,240.287c24.868,23.283,24.868,63.615,0,90.175" transform="translate(-8.523 -18.167)"/><path class="cls-3" d="M390.474,57.873v-9.76H394.8a5.756,5.756,0,0,1,1.983.263,2.166,2.166,0,0,1,1.085.929,2.764,2.764,0,0,1,.406,1.471,2.455,2.455,0,0,1-.672,1.751,3.405,3.405,0,0,1-2.077.905,3.325,3.325,0,0,1,.778.486,6.667,6.667,0,0,1,1.072,1.3l1.7,2.656h-1.624l-1.292-2.03q-.565-.879-.932-1.345a2.953,2.953,0,0,0-.655-.652,1.959,1.959,0,0,0-.59-.26,3.908,3.908,0,0,0-.719-.046h-1.5v4.334Zm1.291-5.453h2.776a4.153,4.153,0,0,0,1.385-.183,1.468,1.468,0,0,0,.759-.585,1.587,1.587,0,0,0,.26-.875,1.455,1.455,0,0,0-.5-1.139,2.351,2.351,0,0,0-1.588-.446h-3.089Z" transform="translate(-8.523 -18.167)"/><path class="cls-3" d="M403.25,52.661v.671h-3.762a1.242,1.242,0,0,1,.082-.485,2.57,2.57,0,0,1,.46-.757,7.214,7.214,0,0,1,.914-.861,7.806,7.806,0,0,0,1.254-1.205,1.446,1.446,0,0,0,.325-.84.932.932,0,0,0-.3-.7,1.069,1.069,0,0,0-.774-.285,1.088,1.088,0,0,0-.807.3,1.141,1.141,0,0,0-.307.838l-.718-.074a1.764,1.764,0,0,1,.555-1.225,1.892,1.892,0,0,1,1.292-.421,1.805,1.805,0,0,1,1.3.454,1.491,1.491,0,0,1,.478,1.125,1.716,1.716,0,0,1-.14.672,2.627,2.627,0,0,1-.464.694,11.336,11.336,0,0,1-1.077,1q-.628.528-.808.716a2.31,2.31,0,0,0-.295.378Z" transform="translate(-8.523 -18.167)"/><path class="cls-3" d="M414.661,52.134h-6.444V51.016h6.444Zm0,2.962h-6.444V53.978h6.444Z" transform="translate(-8.523 -18.167)"/><path class="cls-3" d="M419,60.582v-.865h7.942v.865Z" transform="translate(-8.523 -18.167)"/><path class="cls-3" d="M426.584,60.582v-.865h7.942v.865Z" transform="translate(-8.523 -18.167)"/><path class="cls-3" d="M434.167,60.582v-.865h7.942v.865Z" transform="translate(-8.523 -18.167)"/><path class="cls-3" d="M442.748,50.456a2.967,2.967,0,0,1,.526-1.777,1.76,1.76,0,0,1,1.524-.732,1.979,1.979,0,0,1,1.521.656,3.337,3.337,0,0,1-.007,3.835,1.951,1.951,0,0,1-1.5.669,1.894,1.894,0,0,1-1.475-.659A2.907,2.907,0,0,1,442.748,50.456Zm2.084-1.684a.9.9,0,0,0-.742.386,2.448,2.448,0,0,0-.3,1.418,2.2,2.2,0,0,0,.3,1.321.912.912,0,0,0,1.488,0,2.432,2.432,0,0,0,.3-1.411,2.218,2.218,0,0,0-.3-1.328A.914.914,0,0,0,444.832,48.772Zm.007,9.46,5.339-10.286h.973l-5.319,10.286Zm4.221-2.649a2.956,2.956,0,0,1,.526-1.781,1.767,1.767,0,0,1,1.53-.729,1.975,1.975,0,0,1,1.521.656,3.336,3.336,0,0,1-.007,3.834,1.955,1.955,0,0,1-1.508.669,1.892,1.892,0,0,1-1.475-.662A2.914,2.914,0,0,1,449.06,55.583Zm2.091-1.685a.906.906,0,0,0-.749.386,2.439,2.439,0,0,0-.3,1.418,2.2,2.2,0,0,0,.3,1.318.916.916,0,0,0,1.494,0,2.425,2.425,0,0,0,.3-1.412,2.211,2.211,0,0,0-.3-1.328A.912.912,0,0,0,451.151,53.9Z" transform="translate(-8.523 -18.167)"/><line class="cls-5" x1="314.694" y1="112.105" x2="314.694" y2="60.797"/><line class="cls-5" x1="314.694" y1="114.98" x2="219.151" y2="114.98"/><circle cx="83.803" cy="196.131" r="1.941" transform="translate(-128.131 242.109) rotate(-84.367)"/><circle cx="101.54" cy="212.242" r="1.941" transform="translate(-128.168 274.29) rotate(-84.367)"/><circle cx="121.767" cy="226.471" r="1.941" transform="translate(-124.087 307.252) rotate(-84.367)"/><circle cx="103.549" cy="191.873" r="1.941" transform="translate(-106.086 257.92) rotate(-84.367)"/><circle cx="118.322" cy="197.586" r="1.941" transform="translate(-98.448 277.773) rotate(-84.367)"/><circle cx="148.246" cy="202.488" r="1.941" transform="translate(-76.339 311.974) rotate(-84.367)"/><circle cx="178.703" cy="199.287" r="1.941" transform="translate(-45.686 339.397) rotate(-84.367)"/><circle cx="121.247" cy="187.706" r="1.941" transform="translate(-85.978 271.774) rotate(-84.367)"/><circle cx="104.508" cy="182.154" r="1.941" transform="translate(-95.549 250.109) rotate(-84.367)"/><circle cx="125.067" cy="173.251" r="1.941" transform="translate(-68.148 262.539) rotate(-84.367)"/><circle cx="146.139" cy="184.311" r="1.941" transform="translate(-60.151 293.483) rotate(-84.367)"/><circle cx="169.046" cy="183.954" r="1.941" transform="translate(-39.137 315.958) rotate(-84.367)"/><circle cx="156.132" cy="178.266" r="1.941" transform="translate(-45.123 297.977) rotate(-84.367)"/><circle cx="156.703" cy="172.471" r="1.941" transform="translate(-38.841 293.32) rotate(-84.367)"/><circle cx="139.561" cy="172.731" r="1.941" transform="translate(-54.559 276.494) rotate(-84.367)"/><circle cx="142.636" cy="161.329" r="1.941" transform="translate(-40.439 269.272) rotate(-84.367)"/><circle cx="183.233" cy="173.138" r="1.941" transform="translate(-15.579 320.323) rotate(-84.367)"/><circle cx="165.222" cy="161.607" r="1.941" transform="translate(-20.347 291.999) rotate(-84.367)"/><circle cx="163.22" cy="145.952" r="1.941" transform="translate(-6.573 275.889) rotate(-84.367)"/><circle cx="179.711" cy="149.529" r="1.941" transform="translate(4.739 295.527) rotate(-84.367)"/><circle cx="183.193" cy="153.774" r="1.941" transform="translate(3.656 302.819) rotate(-84.367)"/><circle cx="188.43" cy="159.996" r="1.941" transform="translate(2.187 313.642) rotate(-84.367)"/><circle cx="197.786" cy="170.67" r="1.941" transform="translate(0.002 332.58) rotate(-84.367)"/><circle cx="190.274" cy="121.528" r="1.941" transform="translate(42.132 280.786) rotate(-84.367)"/><circle cx="202.402" cy="143.646" r="1.941" transform="translate(31.058 312.803) rotate(-84.367)"/><circle cx="209.68" cy="125.393" r="1.941" transform="translate(55.786 303.583) rotate(-84.367)"/><circle cx="210.896" cy="152.606" r="1.941" transform="translate(29.802 329.335) rotate(-84.367)"/><circle cx="218.281" cy="162.94" r="1.941" transform="translate(26.177 346.005) rotate(-84.367)"/><circle cx="226.23" cy="144.046" r="1.941" transform="translate(52.148 336.876) rotate(-84.367)"/><circle cx="235.665" cy="146.927" r="1.941" transform="translate(57.79 348.863) rotate(-84.367)"/><circle cx="231.692" cy="133.592" r="1.941" transform="translate(67.478 332.884) rotate(-84.367)"/><circle cx="232.662" cy="123.759" r="1.941" transform="translate(78.139 324.981) rotate(-84.367)"/><circle cx="279.499" cy="147.508" r="1.941" transform="translate(96.744 393.01) rotate(-84.367)"/><circle cx="248.596" cy="109.058" r="1.941" transform="translate(107.139 327.58) rotate(-84.367)"/><circle cx="259.992" cy="105.145" r="1.941" transform="translate(-9.084 -16.771) rotate(-0.307)"/><circle cx="260.049" cy="115.693" r="1.941" transform="translate(-9.14 -16.77) rotate(-0.307)"/><circle cx="260.059" cy="117.634" r="1.941" transform="translate(-9.151 -16.77) rotate(-0.307)"/><circle cx="260.121" cy="129.102" r="1.941" transform="translate(-9.212 -16.77) rotate(-0.307)"/><circle cx="268.986" cy="128.556" r="1.941" transform="translate(-9.209 -16.722) rotate(-0.307)"/><circle cx="273.127" cy="119.504" r="1.941" transform="translate(-9.161 -16.7) rotate(-0.307)"/><circle cx="283.733" cy="90.288" r="1.941" transform="translate(-9.004 -16.644) rotate(-0.307)"/><circle cx="283.848" cy="111.757" r="1.941" transform="translate(-9.119 -16.643) rotate(-0.307)"/><circle cx="287.694" cy="104.996" r="1.941" transform="translate(-9.083 -16.622) rotate(-0.307)"/><circle cx="294.673" cy="123.094" r="1.941" transform="translate(-9.18 -16.584) rotate(-0.307)"/><circle cx="307.819" cy="106.829" r="1.941" transform="translate(-9.092 -16.514) rotate(-0.307)"/><circle cx="305.81" cy="94.051" r="1.941" transform="translate(-9.024 -16.525) rotate(-0.307)"/><circle cx="311.525" cy="74.127" r="1.941" transform="translate(-8.917 -16.495) rotate(-0.307)"/><circle cx="324.074" cy="77.942" r="1.941" transform="translate(-8.937 -16.427) rotate(-0.307)"/><circle cx="331.788" cy="90.03" r="1.941" transform="translate(-9.002 -16.386) rotate(-0.307)"/><circle cx="331.877" cy="106.7" r="1.941" transform="translate(-9.091 -16.385) rotate(-0.307)"/></svg>