<svg id="Layer_1" data-name="Layer 1" xmlns="http://www.w3.org/2000/svg" viewBox="0 0 755.193 176.83"><defs><style>.cls-1,.cls-2,.cls-8{fill:none;}.cls-1,.cls-9{stroke:#af6f29;}.cls-2{stroke:#231f20;}.cls-3{fill:#00a180;}.cls-4{fill:#9c2d2c;}.cls-5{fill:#fff;}.cls-6{fill:#29538c;}.cls-7{fill:#5e5f5f;}.cls-8{stroke:#000;stroke-width:3px;}.cls-9{fill:#af6f29;}</style></defs><title>Charitable_ Remainder_Trusts</title><line class="cls-1" x1="185.083" y1="111.004" x2="185.083" y2="85.509"/><line class="cls-1" x1="367.891" y1="72.855" x2="367.891" y2="47.359"/><line class="cls-1" x1="384.094" y1="123.752" x2="384.094" y2="98.257"/><line class="cls-1" x1="566.693" y1="83.8" x2="566.693" y2="58.304"/><rect class="cls-2" x="0.5" y="0.5" width="754.193" height="175.83"/><rect class="cls-3" x="216.283" y="58.304" width="120.618" height="51.973"/><rect class="cls-4" x="415.084" y="58.304" width="120.618" height="51.973"/><polygon points="610.057 83.576 595.315 69.026 595.315 98.127 610.057 83.576"/><path class="cls-5" d="M266.636,95.093V85.5h3.3a8.036,8.036,0,0,1,1.708.137,3.249,3.249,0,0,1,1.407.687,3.907,3.907,0,0,1,1.135,1.64,6.43,6.43,0,0,1,.376,2.28,6.707,6.707,0,0,1-.255,1.937,4.685,4.685,0,0,1-.654,1.4,3.472,3.472,0,0,1-.874.871,3.562,3.562,0,0,1-1.146.481,6.546,6.546,0,0,1-1.541.164Zm1.269-1.132h2.048a4.975,4.975,0,0,0,1.489-.176,2.136,2.136,0,0,0,.861-.5,3.026,3.026,0,0,0,.7-1.214,5.935,5.935,0,0,0,.252-1.849,4.463,4.463,0,0,0-.494-2.313,2.488,2.488,0,0,0-1.2-1.083,4.964,4.964,0,0,0-1.643-.2h-2.016Z" transform="translate(-7.307 -8.004)"/><path class="cls-5" d="M275.726,91.618a3.583,3.583,0,0,1,1.073-2.86,3.235,3.235,0,0,1,2.186-.772,3.118,3.118,0,0,1,2.342.939,3.572,3.572,0,0,1,.91,2.595,4.6,4.6,0,0,1-.4,2.11,2.847,2.847,0,0,1-1.171,1.194,3.415,3.415,0,0,1-1.678.425,3.123,3.123,0,0,1-2.359-.936A3.738,3.738,0,0,1,275.726,91.618Zm1.211,0a2.961,2.961,0,0,0,.582,2,1.94,1.94,0,0,0,2.925,0,3.03,3.03,0,0,0,.583-2.035,2.87,2.87,0,0,0-.586-1.953,1.941,1.941,0,0,0-2.922,0A2.947,2.947,0,0,0,276.937,91.618Z" transform="translate(-7.307 -8.004)"/><path class="cls-5" d="M283.617,95.093v-6.95h1.06v.988a2.5,2.5,0,0,1,2.212-1.146,2.906,2.906,0,0,1,1.155.226,1.816,1.816,0,0,1,.789.592,2.274,2.274,0,0,1,.366.87,6.768,6.768,0,0,1,.065,1.146v4.273h-1.178V90.865a3.167,3.167,0,0,0-.138-1.076,1.13,1.13,0,0,0-.487-.569,1.548,1.548,0,0,0-.821-.213,1.908,1.908,0,0,0-1.3.478A2.358,2.358,0,0,0,284.8,91.3v3.8Z" transform="translate(-7.307 -8.004)"/><path class="cls-5" d="M290.632,91.618a3.583,3.583,0,0,1,1.073-2.86,3.235,3.235,0,0,1,2.186-.772,3.118,3.118,0,0,1,2.342.939,3.572,3.572,0,0,1,.91,2.595,4.6,4.6,0,0,1-.4,2.11,2.847,2.847,0,0,1-1.171,1.194,3.415,3.415,0,0,1-1.678.425,3.123,3.123,0,0,1-2.359-.936A3.738,3.738,0,0,1,290.632,91.618Zm1.211,0a2.961,2.961,0,0,0,.582,2,1.94,1.94,0,0,0,2.925,0,3.03,3.03,0,0,0,.583-2.035,2.87,2.87,0,0,0-.586-1.953,1.941,1.941,0,0,0-2.922,0A2.947,2.947,0,0,0,291.843,91.618Z" transform="translate(-7.307 -8.004)"/><path class="cls-5" d="M298.511,95.093v-6.95h1.061V89.2a2.87,2.87,0,0,1,.749-.975,1.307,1.307,0,0,1,.756-.236,2.3,2.3,0,0,1,1.21.38l-.406,1.093a1.682,1.682,0,0,0-.864-.255,1.122,1.122,0,0,0-.693.232,1.258,1.258,0,0,0-.438.645,4.589,4.589,0,0,0-.2,1.374v3.639Z" transform="translate(-7.307 -8.004)"/><path class="cls-5" d="M470.747,95.38V86.918h-3.161V85.787h7.6v1.132h-3.174V95.38Z" transform="translate(-7.307 -8.004)"/><path class="cls-5" d="M476.329,95.38V88.43h1.061v1.054a2.87,2.87,0,0,1,.749-.975,1.307,1.307,0,0,1,.756-.236,2.3,2.3,0,0,1,1.21.38l-.406,1.093a1.682,1.682,0,0,0-.864-.255,1.122,1.122,0,0,0-.693.232,1.258,1.258,0,0,0-.438.645,4.589,4.589,0,0,0-.2,1.374V95.38Z" transform="translate(-7.307 -8.004)"/><path class="cls-5" d="M485.359,95.38V94.359a2.543,2.543,0,0,1-2.205,1.178,2.807,2.807,0,0,1-1.148-.236,1.887,1.887,0,0,1-.792-.592,2.219,2.219,0,0,1-.363-.874,6,6,0,0,1-.072-1.1V88.43h1.178v3.854a6.882,6.882,0,0,0,.072,1.243,1.23,1.23,0,0,0,.471.73,1.463,1.463,0,0,0,.89.265,1.937,1.937,0,0,0,.995-.271,1.51,1.51,0,0,0,.658-.739,3.718,3.718,0,0,0,.193-1.358V88.43h1.178v6.95Z" transform="translate(-7.307 -8.004)"/><path class="cls-5" d="M487.787,93.306l1.165-.184A1.628,1.628,0,0,0,489.5,94.2a1.9,1.9,0,0,0,1.253.373,1.839,1.839,0,0,0,1.2-.331.988.988,0,0,0,.393-.775.714.714,0,0,0-.347-.628,5.091,5.091,0,0,0-1.2-.4,11.02,11.02,0,0,1-1.8-.566,1.716,1.716,0,0,1-1.018-1.594,1.793,1.793,0,0,1,.213-.86,1.912,1.912,0,0,1,.579-.658,2.426,2.426,0,0,1,.75-.343,3.562,3.562,0,0,1,1.018-.141,4.017,4.017,0,0,1,1.436.236,1.952,1.952,0,0,1,.913.638,2.492,2.492,0,0,1,.406,1.076l-1.152.157a1.261,1.261,0,0,0-.455-.838,1.667,1.667,0,0,0-1.063-.3,1.926,1.926,0,0,0-1.158.268.782.782,0,0,0-.347.628.651.651,0,0,0,.144.412,1.038,1.038,0,0,0,.452.314q.177.065,1.041.3a14.54,14.54,0,0,1,1.744.546,1.774,1.774,0,0,1,.776.619,1.727,1.727,0,0,1,.281,1.008,1.977,1.977,0,0,1-.344,1.109,2.221,2.221,0,0,1-.991.805,3.614,3.614,0,0,1-1.466.285,3.265,3.265,0,0,1-2.065-.563A2.617,2.617,0,0,1,487.787,93.306Z" transform="translate(-7.307 -8.004)"/><path class="cls-5" d="M497.531,94.326l.17,1.041a4.363,4.363,0,0,1-.89.1,2.018,2.018,0,0,1-1-.2,1.135,1.135,0,0,1-.5-.533,4.23,4.23,0,0,1-.144-1.391v-4h-.864V88.43h.864V86.709L496.347,86V88.43h1.185v.916h-1.185V93.41a2.034,2.034,0,0,0,.063.648.49.49,0,0,0,.2.229.783.783,0,0,0,.4.085A3.8,3.8,0,0,0,497.531,94.326Z" transform="translate(-7.307 -8.004)"/><rect class="cls-6" x="17.329" y="58.304" width="120.618" height="51.973"/><rect class="cls-7" x="612.721" y="58.304" width="120.618" height="51.973"/><path class="cls-5" d="M75.708,95.141V85.547h1.27v9.593Z" transform="translate(-7.307 -8.004)"/><path class="cls-5" d="M79.235,95.141V85.547h4.253a5.663,5.663,0,0,1,1.95.258,2.132,2.132,0,0,1,1.066.913,2.723,2.723,0,0,1,.4,1.446,2.412,2.412,0,0,1-.661,1.721,3.344,3.344,0,0,1-2.042.89,3.316,3.316,0,0,1,.766.478,6.616,6.616,0,0,1,1.054,1.276l1.668,2.611h-1.6l-1.27-2q-.557-.864-.916-1.322a2.894,2.894,0,0,0-.645-.641,1.918,1.918,0,0,0-.579-.255,3.84,3.84,0,0,0-.707-.046H80.5v4.26Zm1.27-5.359h2.729a4.088,4.088,0,0,0,1.361-.18,1.447,1.447,0,0,0,.746-.576,1.56,1.56,0,0,0,.255-.861,1.429,1.429,0,0,0-.494-1.119,2.312,2.312,0,0,0-1.561-.438H80.5Z" transform="translate(-7.307 -8.004)"/><path class="cls-5" d="M88.461,92.059l1.2-.1a2.645,2.645,0,0,0,.4,1.181,2.165,2.165,0,0,0,.965.746,3.653,3.653,0,0,0,1.473.285,3.525,3.525,0,0,0,1.282-.216,1.779,1.779,0,0,0,.828-.592,1.376,1.376,0,0,0,.271-.821,1.25,1.25,0,0,0-.262-.789,1.942,1.942,0,0,0-.864-.566,16.769,16.769,0,0,0-1.708-.468,8.721,8.721,0,0,1-1.852-.6,2.6,2.6,0,0,1-1.024-.893,2.185,2.185,0,0,1-.337-1.194,2.438,2.438,0,0,1,.413-1.358,2.554,2.554,0,0,1,1.2-.958,4.566,4.566,0,0,1,1.76-.327,4.809,4.809,0,0,1,1.881.343,2.713,2.713,0,0,1,1.253,1.011,2.9,2.9,0,0,1,.471,1.512l-1.217.091a1.964,1.964,0,0,0-.665-1.374,2.586,2.586,0,0,0-1.672-.465,2.682,2.682,0,0,0-1.678.422,1.265,1.265,0,0,0-.527,1.018,1.09,1.09,0,0,0,.373.851,5.049,5.049,0,0,0,1.914.684,12.645,12.645,0,0,1,2.124.612,2.914,2.914,0,0,1,1.237.978,2.388,2.388,0,0,1,.4,1.365,2.609,2.609,0,0,1-.438,1.443,2.888,2.888,0,0,1-1.26,1.053,4.386,4.386,0,0,1-1.849.376,5.519,5.519,0,0,1-2.182-.379,3.054,3.054,0,0,1-1.381-1.142A3.237,3.237,0,0,1,88.461,92.059Z" transform="translate(-7.307 -8.004)"/><path class="cls-5" d="M667.194,92.064l1.27.321a4.275,4.275,0,0,1-1.437,2.385,3.96,3.96,0,0,1-2.536.821,4.56,4.56,0,0,1-2.522-.631,3.943,3.943,0,0,1-1.479-1.829,6.53,6.53,0,0,1-.507-2.572,5.651,5.651,0,0,1,.572-2.614,3.924,3.924,0,0,1,1.629-1.695,4.763,4.763,0,0,1,2.327-.579,3.932,3.932,0,0,1,2.421.733,3.8,3.8,0,0,1,1.367,2.061l-1.249.294a2.968,2.968,0,0,0-.969-1.524,2.584,2.584,0,0,0-1.6-.478,3.1,3.1,0,0,0-1.849.53,2.8,2.8,0,0,0-1.044,1.423,5.715,5.715,0,0,0-.3,1.842,5.842,5.842,0,0,0,.356,2.136,2.654,2.654,0,0,0,1.109,1.365,3.11,3.11,0,0,0,1.629.451,2.734,2.734,0,0,0,1.807-.615A3.15,3.15,0,0,0,667.194,92.064Z" transform="translate(-7.307 -8.004)"/><path class="cls-5" d="M669.878,95.428V85.834h1.178v3.442a2.632,2.632,0,0,1,2.081-.956,2.8,2.8,0,0,1,1.341.3,1.787,1.787,0,0,1,.815.841,3.886,3.886,0,0,1,.245,1.557v4.4H674.36v-4.4a1.82,1.82,0,0,0-.383-1.286,1.423,1.423,0,0,0-1.083-.4,1.909,1.909,0,0,0-.985.271,1.532,1.532,0,0,0-.657.736,3.38,3.38,0,0,0-.2,1.282v3.8Z" transform="translate(-7.307 -8.004)"/><path class="cls-5" d="M681.865,94.57a4.366,4.366,0,0,1-1.26.786,3.644,3.644,0,0,1-1.3.229,2.526,2.526,0,0,1-1.76-.56,1.847,1.847,0,0,1-.615-1.43,1.938,1.938,0,0,1,.841-1.609,2.858,2.858,0,0,1,.848-.386,8.379,8.379,0,0,1,1.047-.177,10.737,10.737,0,0,0,2.1-.406c0-.161.007-.264.007-.308a1.3,1.3,0,0,0-.334-1.014,1.971,1.971,0,0,0-1.342-.4,2.077,2.077,0,0,0-1.227.292,1.772,1.772,0,0,0-.586,1.031l-1.151-.157a2.847,2.847,0,0,1,.517-1.194,2.269,2.269,0,0,1,1.04-.7,4.643,4.643,0,0,1,1.577-.246,4.169,4.169,0,0,1,1.446.209,1.909,1.909,0,0,1,.818.527,1.846,1.846,0,0,1,.366.8,6.664,6.664,0,0,1,.059,1.086v1.57a16.466,16.466,0,0,0,.076,2.078,2.629,2.629,0,0,0,.3.834H682.1A2.505,2.505,0,0,1,681.865,94.57Zm-.1-2.63a8.66,8.66,0,0,1-1.924.445,4.431,4.431,0,0,0-1.027.236,1.022,1.022,0,0,0-.465.383,1.039,1.039,0,0,0,.193,1.345,1.531,1.531,0,0,0,1.043.314,2.427,2.427,0,0,0,1.211-.3,1.833,1.833,0,0,0,.779-.814,2.856,2.856,0,0,0,.189-1.178Z" transform="translate(-7.307 -8.004)"/><path class="cls-5" d="M684.771,95.428v-6.95h1.061v1.054a2.882,2.882,0,0,1,.749-.975,1.309,1.309,0,0,1,.756-.236,2.3,2.3,0,0,1,1.211.38l-.406,1.093a1.681,1.681,0,0,0-.863-.255,1.124,1.124,0,0,0-.694.232,1.261,1.261,0,0,0-.438.645,4.589,4.589,0,0,0-.2,1.374v3.639Z" transform="translate(-7.307 -8.004)"/><path class="cls-5" d="M689.254,87.189V85.834h1.179v1.354Zm0,8.239v-6.95h1.179v6.95Z" transform="translate(-7.307 -8.004)"/><path class="cls-5" d="M694.8,94.374l.17,1.041a4.363,4.363,0,0,1-.89.1,2.018,2.018,0,0,1-1-.2,1.135,1.135,0,0,1-.5-.533,4.23,4.23,0,0,1-.144-1.391v-4h-.864v-.916h.864V86.757l1.171-.707v2.428H694.8v.916h-1.185v4.064a2.034,2.034,0,0,0,.063.648.49.49,0,0,0,.2.229.783.783,0,0,0,.4.085A3.8,3.8,0,0,0,694.8,94.374Z" transform="translate(-7.307 -8.004)"/><path class="cls-5" d="M695.9,98.1,695.765,97a2.63,2.63,0,0,0,.674.1,1.3,1.3,0,0,0,.629-.131,1.078,1.078,0,0,0,.386-.367,5.708,5.708,0,0,0,.359-.877c.022-.065.057-.161.105-.288l-2.638-6.963h1.27L698,92.5q.281.766.5,1.61a15.732,15.732,0,0,1,.484-1.583l1.485-4.051h1.178L699,95.545a13.759,13.759,0,0,1-.661,1.577,2.324,2.324,0,0,1-.72.854,1.7,1.7,0,0,1-.969.271A2.354,2.354,0,0,1,695.9,98.1Z" transform="translate(-7.307 -8.004)"/><line class="cls-8" x1="535.702" y1="83.576" x2="597.684" y2="83.576"/><polygon points="141.72 84.177 156.462 98.728 156.462 69.626 141.72 84.177"/><line class="cls-8" x1="216.074" y1="84.177" x2="154.093" y2="84.177"/><polygon points="411.255 72.855 396.513 58.304 396.513 87.406 411.255 72.855"/><line class="cls-8" x1="336.901" y1="72.855" x2="398.882" y2="72.855"/><polygon points="340.73 97.17 355.472 111.721 355.472 82.619 340.73 97.17"/><line class="cls-8" x1="415.084" y1="97.17" x2="353.103" y2="97.17"/><rect class="cls-9" x="171.788" y="111.004" width="26.591" height="26.591"/><rect class="cls-9" x="354.596" y="20.768" width="26.591" height="26.591"/><rect class="cls-9" x="370.798" y="124.3" width="26.591" height="26.591"/><rect class="cls-9" x="553.398" y="31.318" width="26.591" height="26.591"/><path class="cls-5" d="M195.443,134.384v1.708H189a4.431,4.431,0,0,1,.628-1.835,12.213,12.213,0,0,1,2.068-2.3,12.963,12.963,0,0,0,1.525-1.571,2.022,2.022,0,0,0,.379-1.125,1.28,1.28,0,0,0-.331-.945,1.4,1.4,0,0,0-1.829.016,1.785,1.785,0,0,0-.393,1.152l-1.832-.183a3,3,0,0,1,1.027-2.179,3.45,3.45,0,0,1,2.16-.661,3.122,3.122,0,0,1,2.231.766,2.513,2.513,0,0,1,.811,1.9,3.318,3.318,0,0,1-.232,1.234,5.028,5.028,0,0,1-.736,1.227,11.8,11.8,0,0,1-1.2,1.224q-.87.8-1.1,1.06a3.2,3.2,0,0,0-.376.51Z" transform="translate(-7.307 -8.004)"/><path class="cls-5" d="M188.664,138.215v-1.407h7.454v1.407Z" transform="translate(-7.307 -8.004)"/><path class="cls-5" d="M376.746,46.131h-1.839V39.2a6.342,6.342,0,0,1-2.375,1.394V38.926a5.3,5.3,0,0,0,1.564-.893,3.392,3.392,0,0,0,1.158-1.535h1.492Z" transform="translate(-7.307 -8.004)"/><path class="cls-5" d="M371.472,48.254V46.848h7.454v1.407Z" transform="translate(-7.307 -8.004)"/><path class="cls-5" d="M388.178,146.207l1.78-.216a1.684,1.684,0,0,0,.458,1.041,1.253,1.253,0,0,0,.9.36,1.239,1.239,0,0,0,.958-.432,1.674,1.674,0,0,0,.39-1.165,1.562,1.562,0,0,0-.373-1.1,1.189,1.189,0,0,0-.91-.406,3.218,3.218,0,0,0-.844.137l.2-1.5a1.61,1.61,0,0,0,1.138-.324,1.152,1.152,0,0,0,.393-.913.992.992,0,0,0-1.054-1.06,1.111,1.111,0,0,0-.805.327,1.538,1.538,0,0,0-.405.956l-1.7-.288a3.8,3.8,0,0,1,.534-1.391,2.41,2.41,0,0,1,.995-.818,3.344,3.344,0,0,1,1.43-.3,2.853,2.853,0,0,1,2.173.864,2.187,2.187,0,0,1-.707,3.612,2.234,2.234,0,0,1,1.319.792,2.3,2.3,0,0,1,.494,1.485,2.88,2.88,0,0,1-.922,2.153,3.446,3.446,0,0,1-4.457.141A2.944,2.944,0,0,1,388.178,146.207Z" transform="translate(-7.307 -8.004)"/><path class="cls-5" d="M387.674,150.875v-1.407h7.454v1.407Z" transform="translate(-7.307 -8.004)"/><path class="cls-5" d="M574.447,56.918V54.987h-3.926V53.378l4.161-6.093h1.545v6.086h1.19v1.616h-1.19v1.931Zm0-3.547V50.093l-2.205,3.278Z" transform="translate(-7.307 -8.004)"/><path class="cls-5" d="M570.272,59.042V57.635h7.453v1.407Z" transform="translate(-7.307 -8.004)"/></svg>