<svg id="Layer_1" data-name="Layer 1" xmlns="http://www.w3.org/2000/svg" viewBox="0 0 461.064 172.354"><defs><style>.cls-1{fill:#efa020;}.cls-2,.cls-5{fill:#231f20;}.cls-3,.cls-4,.cls-7,.cls-8{fill:none;}.cls-3,.cls-4,.cls-5{stroke:#231f20;}.cls-3,.cls-4,.cls-5,.cls-7,.cls-8{stroke-miterlimit:10;}.cls-3{stroke-width:3px;}.cls-6{fill:#cd2027;}.cls-7,.cls-8{stroke:#939598;}.cls-8{stroke-dasharray:12.335 12.335;}</style></defs><title>Ordinary_Qualified_Dividends_02</title><rect class="cls-1" x="39.151" y="33.784" width="381.45" height="18.576"/><polygon class="cls-1" points="39.151 65.387 0.5 43.072 39.151 20.757 39.151 65.387"/><polygon class="cls-1" points="420.601 20.757 459.252 43.072 420.601 65.387 420.601 20.757"/><path class="cls-2" d="M114.612,53.957v-.948h2.894v.948Z" transform="translate(-8.436 -10.026)"/><path class="cls-2" d="M123.175,50.466l-.937.073a1.77,1.77,0,0,0-.356-.806,1.247,1.247,0,0,0-.942-.4,1.3,1.3,0,0,0-.791.251,2.15,2.15,0,0,0-.7.948,4.946,4.946,0,0,0-.267,1.774,2.188,2.188,0,0,1,.832-.769,2.24,2.24,0,0,1,1.031-.251,2.139,2.139,0,0,1,1.6.693,2.492,2.492,0,0,1,.662,1.793A2.951,2.951,0,0,1,123,55.111a2.275,2.275,0,0,1-.856.95,2.337,2.337,0,0,1-1.235.33,2.414,2.414,0,0,1-1.921-.866,4.376,4.376,0,0,1-.743-2.855,5.119,5.119,0,0,1,.822-3.235A2.364,2.364,0,0,1,121,48.555a2.055,2.055,0,0,1,2.177,1.911Zm-3.847,3.308a2.179,2.179,0,0,0,.207.932,1.54,1.54,0,0,0,.578.678,1.446,1.446,0,0,0,.78.233,1.328,1.328,0,0,0,1.026-.482,1.894,1.894,0,0,0,.429-1.308,1.774,1.774,0,0,0-.424-1.254,1.394,1.394,0,0,0-1.068-.458,1.454,1.454,0,0,0-1.083.458A1.653,1.653,0,0,0,119.328,53.773Z" transform="translate(-8.436 -10.026)"/><path class="cls-2" d="M124.248,52.476a7.011,7.011,0,0,1,.28-2.19,2.726,2.726,0,0,1,.832-1.28,2.129,2.129,0,0,1,1.39-.45,2.265,2.265,0,0,1,1.083.249,2.068,2.068,0,0,1,.769.717,3.847,3.847,0,0,1,.477,1.141,7.573,7.573,0,0,1,.173,1.813,7.054,7.054,0,0,1-.277,2.18,2.731,2.731,0,0,1-.83,1.282,2.129,2.129,0,0,1-1.4.453,2.106,2.106,0,0,1-1.743-.8A5.057,5.057,0,0,1,124.248,52.476Zm.968,0a4.811,4.811,0,0,0,.442,2.515,1.263,1.263,0,0,0,2.183,0,4.81,4.81,0,0,0,.442-2.512,4.809,4.809,0,0,0-.442-2.518,1.313,1.313,0,0,0-1.1-.623,1.207,1.207,0,0,0-1.036.549A4.864,4.864,0,0,0,125.216,52.476Z" transform="translate(-8.436 -10.026)"/><path class="cls-2" d="M133.569,56.26V48.587h2.643a6.41,6.41,0,0,1,1.366.11,2.6,2.6,0,0,1,1.125.549,3.126,3.126,0,0,1,.908,1.311,5.148,5.148,0,0,1,.3,1.824,5.354,5.354,0,0,1-.2,1.549,3.763,3.763,0,0,1-.523,1.118,2.782,2.782,0,0,1-.7.7,2.845,2.845,0,0,1-.916.385,5.217,5.217,0,0,1-1.232.131Zm1.015-.905h1.638a3.976,3.976,0,0,0,1.191-.142,1.7,1.7,0,0,0,.688-.4,2.423,2.423,0,0,0,.563-.971,4.748,4.748,0,0,0,.2-1.479,3.567,3.567,0,0,0-.4-1.85,1.988,1.988,0,0,0-.96-.866,3.959,3.959,0,0,0-1.313-.157h-1.612Z" transform="translate(-8.436 -10.026)"/><path class="cls-2" d="M144.817,55.574a3.506,3.506,0,0,1-1.007.628,2.912,2.912,0,0,1-1.039.183,2.02,2.02,0,0,1-1.408-.447,1.477,1.477,0,0,1-.492-1.144,1.55,1.55,0,0,1,.673-1.288,2.278,2.278,0,0,1,.678-.309,6.734,6.734,0,0,1,.837-.141,8.588,8.588,0,0,0,1.68-.325c0-.129,0-.211,0-.246a1.041,1.041,0,0,0-.267-.812,1.577,1.577,0,0,0-1.073-.319,1.665,1.665,0,0,0-.981.233,1.424,1.424,0,0,0-.468.824l-.921-.125a2.281,2.281,0,0,1,.413-.955,1.81,1.81,0,0,1,.833-.56,3.71,3.71,0,0,1,1.261-.2,3.336,3.336,0,0,1,1.157.167,1.526,1.526,0,0,1,.654.421,1.479,1.479,0,0,1,.293.641,5.314,5.314,0,0,1,.047.869v1.256a13.356,13.356,0,0,0,.06,1.662,2.092,2.092,0,0,0,.238.667h-.984A2.006,2.006,0,0,1,144.817,55.574Zm-.078-2.1a6.91,6.91,0,0,1-1.539.356,3.584,3.584,0,0,0-.822.188.826.826,0,0,0-.372.307.832.832,0,0,0,.154,1.075,1.229,1.229,0,0,0,.835.251,1.944,1.944,0,0,0,.968-.238,1.468,1.468,0,0,0,.623-.651,2.278,2.278,0,0,0,.152-.942Z" transform="translate(-8.436 -10.026)"/><path class="cls-2" d="M147.109,58.4l-.1-.884a2.1,2.1,0,0,0,.539.083,1.033,1.033,0,0,0,.5-.1.853.853,0,0,0,.309-.293,4.574,4.574,0,0,0,.288-.7q.026-.078.084-.23L146.618,50.7h1.015l1.157,3.219q.225.612.4,1.287a12.551,12.551,0,0,1,.387-1.267l1.188-3.24h.942L149.6,56.354a11.056,11.056,0,0,1-.529,1.261,1.863,1.863,0,0,1-.576.683,1.358,1.358,0,0,1-.774.217A1.892,1.892,0,0,1,147.109,58.4Z" transform="translate(-8.436 -10.026)"/><path class="cls-2" d="M152.134,54.6l.932-.146a1.3,1.3,0,0,0,.437.858,1.525,1.525,0,0,0,1,.3,1.474,1.474,0,0,0,.963-.264.791.791,0,0,0,.314-.621.572.572,0,0,0-.278-.5,4.1,4.1,0,0,0-.963-.319,8.751,8.751,0,0,1-1.437-.453,1.37,1.37,0,0,1-.814-1.274,1.432,1.432,0,0,1,.17-.688,1.524,1.524,0,0,1,.463-.526,1.951,1.951,0,0,1,.6-.275,2.862,2.862,0,0,1,.814-.112,3.22,3.22,0,0,1,1.149.188,1.562,1.562,0,0,1,.73.51,2,2,0,0,1,.325.861l-.921.126a1.007,1.007,0,0,0-.364-.67,1.329,1.329,0,0,0-.851-.241,1.54,1.54,0,0,0-.926.215.624.624,0,0,0-.277.5.52.52,0,0,0,.115.33.827.827,0,0,0,.361.251q.141.052.833.241a11.539,11.539,0,0,1,1.395.437,1.416,1.416,0,0,1,.621.495,1.381,1.381,0,0,1,.225.806,1.584,1.584,0,0,1-.275.887,1.777,1.777,0,0,1-.793.644,2.886,2.886,0,0,1-1.172.228,2.611,2.611,0,0,1-1.651-.45A2.092,2.092,0,0,1,152.134,54.6Z" transform="translate(-8.436 -10.026)"/><line class="cls-3" x1="229.876" y1="33.784" x2="229.876" y2="52.36"/><path class="cls-2" d="M311.3,55.02v-2.1H309.21v-.879H311.3V49.948h.891v2.088h2.088v.879h-2.088v2.1Z" transform="translate(-8.436 -10.026)"/><path class="cls-2" d="M320.206,50.466l-.937.073a1.781,1.781,0,0,0-.355-.806,1.248,1.248,0,0,0-.942-.4,1.294,1.294,0,0,0-.79.251,2.148,2.148,0,0,0-.7.948,4.947,4.947,0,0,0-.267,1.774,2.181,2.181,0,0,1,.832-.769,2.24,2.24,0,0,1,1.031-.251,2.138,2.138,0,0,1,1.6.693,2.49,2.49,0,0,1,.662,1.793,2.957,2.957,0,0,1-.312,1.342,2.277,2.277,0,0,1-.855.95,2.34,2.34,0,0,1-1.235.33,2.413,2.413,0,0,1-1.921-.866,4.37,4.37,0,0,1-.743-2.855,5.119,5.119,0,0,1,.821-3.235,2.364,2.364,0,0,1,1.932-.879,2.055,2.055,0,0,1,2.177,1.911Zm-3.847,3.308a2.186,2.186,0,0,0,.207.932,1.537,1.537,0,0,0,.578.678,1.448,1.448,0,0,0,.78.233,1.328,1.328,0,0,0,1.025-.482,1.894,1.894,0,0,0,.43-1.308,1.772,1.772,0,0,0-.425-1.254,1.391,1.391,0,0,0-1.067-.458,1.452,1.452,0,0,0-1.083.458A1.651,1.651,0,0,0,316.359,53.773Z" transform="translate(-8.436 -10.026)"/><path class="cls-2" d="M321.28,52.476a7.029,7.029,0,0,1,.279-2.19,2.726,2.726,0,0,1,.832-1.28,2.131,2.131,0,0,1,1.39-.45,2.265,2.265,0,0,1,1.084.249,2.077,2.077,0,0,1,.77.717,3.834,3.834,0,0,1,.476,1.141,7.573,7.573,0,0,1,.173,1.813,7.024,7.024,0,0,1-.277,2.18,2.723,2.723,0,0,1-.829,1.282,2.128,2.128,0,0,1-1.4.453,2.1,2.1,0,0,1-1.742-.8A5.057,5.057,0,0,1,321.28,52.476Zm.968,0a4.811,4.811,0,0,0,.442,2.515,1.263,1.263,0,0,0,2.183,0,4.81,4.81,0,0,0,.442-2.512,4.809,4.809,0,0,0-.442-2.518,1.313,1.313,0,0,0-1.1-.623,1.207,1.207,0,0,0-1.036.549A4.859,4.859,0,0,0,322.248,52.476Z" transform="translate(-8.436 -10.026)"/><path class="cls-2" d="M330.6,56.26V48.587h2.643a6.412,6.412,0,0,1,1.366.11,2.607,2.607,0,0,1,1.126.549,3.125,3.125,0,0,1,.907,1.311,5.137,5.137,0,0,1,.3,1.824,5.371,5.371,0,0,1-.2,1.549,3.775,3.775,0,0,1-.523,1.118,2.784,2.784,0,0,1-.7.7,2.849,2.849,0,0,1-.916.385,5.217,5.217,0,0,1-1.232.131Zm1.016-.905h1.638a3.968,3.968,0,0,0,1.19-.142,1.7,1.7,0,0,0,.688-.4,2.411,2.411,0,0,0,.563-.971,4.732,4.732,0,0,0,.2-1.479,3.566,3.566,0,0,0-.4-1.85,1.991,1.991,0,0,0-.96-.866,3.967,3.967,0,0,0-1.314-.157h-1.611Z" transform="translate(-8.436 -10.026)"/><path class="cls-2" d="M341.851,55.574a3.527,3.527,0,0,1-1.008.628,2.914,2.914,0,0,1-1.039.183,2.022,2.022,0,0,1-1.408-.447,1.479,1.479,0,0,1-.491-1.144,1.519,1.519,0,0,1,.186-.746,1.539,1.539,0,0,1,.486-.542,2.3,2.3,0,0,1,.678-.309,6.8,6.8,0,0,1,.838-.141,8.581,8.581,0,0,0,1.68-.325c0-.129.006-.211.006-.246a1.038,1.038,0,0,0-.268-.812,1.573,1.573,0,0,0-1.072-.319,1.663,1.663,0,0,0-.981.233,1.421,1.421,0,0,0-.469.824l-.921-.125a2.294,2.294,0,0,1,.413-.955,1.816,1.816,0,0,1,.832-.56,3.713,3.713,0,0,1,1.262-.2,3.329,3.329,0,0,1,1.156.167,1.523,1.523,0,0,1,.654.421,1.492,1.492,0,0,1,.294.641,5.331,5.331,0,0,1,.047.869v1.256a13.4,13.4,0,0,0,.06,1.662,2.1,2.1,0,0,0,.238.667h-.983A1.985,1.985,0,0,1,341.851,55.574Zm-.079-2.1a6.9,6.9,0,0,1-1.538.356,3.576,3.576,0,0,0-.822.188.822.822,0,0,0-.371.307.832.832,0,0,0,.154,1.075,1.225,1.225,0,0,0,.835.251,1.942,1.942,0,0,0,.968-.238,1.465,1.465,0,0,0,.623-.651,2.287,2.287,0,0,0,.151-.942Z" transform="translate(-8.436 -10.026)"/><path class="cls-2" d="M344.144,58.4l-.105-.884a2.108,2.108,0,0,0,.54.083,1.034,1.034,0,0,0,.5-.1.849.849,0,0,0,.309-.293,4.574,4.574,0,0,0,.288-.7c.018-.052.045-.129.084-.23L343.651,50.7h1.016l1.156,3.219q.226.612.4,1.287a12.676,12.676,0,0,1,.387-1.267L347.8,50.7h.942l-2.115,5.653a10.988,10.988,0,0,1-.528,1.261,1.862,1.862,0,0,1-.575.683,1.36,1.36,0,0,1-.775.217A1.887,1.887,0,0,1,344.144,58.4Z" transform="translate(-8.436 -10.026)"/><path class="cls-2" d="M349.168,54.6l.932-.146a1.3,1.3,0,0,0,.437.858,1.525,1.525,0,0,0,1,.3,1.476,1.476,0,0,0,.963-.264.792.792,0,0,0,.313-.621.571.571,0,0,0-.277-.5,4.11,4.11,0,0,0-.963-.319,8.767,8.767,0,0,1-1.437-.453,1.371,1.371,0,0,1-.814-1.274,1.422,1.422,0,0,1,.171-.688,1.523,1.523,0,0,1,.463-.526,1.954,1.954,0,0,1,.6-.275,2.856,2.856,0,0,1,.813-.112,3.214,3.214,0,0,1,1.148.188,1.564,1.564,0,0,1,.73.51,1.983,1.983,0,0,1,.324.861l-.921.126a1.008,1.008,0,0,0-.363-.67,1.331,1.331,0,0,0-.851-.241,1.541,1.541,0,0,0-.927.215.626.626,0,0,0-.277.5.518.518,0,0,0,.115.33.826.826,0,0,0,.361.251q.141.052.832.241a11.6,11.6,0,0,1,1.395.437,1.409,1.409,0,0,1,.62.495,1.378,1.378,0,0,1,.226.806,1.581,1.581,0,0,1-.275.887,1.772,1.772,0,0,1-.793.644,2.879,2.879,0,0,1-1.172.228,2.611,2.611,0,0,1-1.651-.45A2.089,2.089,0,0,1,349.168,54.6Z" transform="translate(-8.436 -10.026)"/><path class="cls-2" d="M199,31.71V22.687H195.63V21.48h8.109v1.207h-3.385V31.71Z" transform="translate(-8.436 -10.026)"/><path class="cls-2" d="M204.445,22.924V21.48H205.7v1.444Zm0,8.786V24.3H205.7V31.71Z" transform="translate(-8.436 -10.026)"/><path class="cls-2" d="M207.613,31.71V24.3h1.124v1.04a2.641,2.641,0,0,1,.928-.875,2.607,2.607,0,0,1,1.319-.332,2.436,2.436,0,0,1,1.35.342,1.831,1.831,0,0,1,.743.956,2.661,2.661,0,0,1,2.289-1.3,2.258,2.258,0,0,1,1.7.61,2.61,2.61,0,0,1,.593,1.881V31.71h-1.249V27.042a3.432,3.432,0,0,0-.123-1.085,1.05,1.05,0,0,0-.443-.534,1.381,1.381,0,0,0-.754-.2,1.753,1.753,0,0,0-1.3.52,2.29,2.29,0,0,0-.517,1.665V31.71h-1.256V26.9a2.118,2.118,0,0,0-.307-1.256,1.162,1.162,0,0,0-1-.419,1.825,1.825,0,0,0-.98.279,1.582,1.582,0,0,0-.652.816,4.589,4.589,0,0,0-.2,1.549V31.71Z" transform="translate(-8.436 -10.026)"/><path class="cls-2" d="M224.592,29.324l1.3.161a3.169,3.169,0,0,1-1.137,1.766,3.854,3.854,0,0,1-4.7-.374,3.912,3.912,0,0,1-.953-2.809,4.094,4.094,0,0,1,.963-2.9,3.261,3.261,0,0,1,2.5-1.033,3.171,3.171,0,0,1,2.429,1.012,4.021,4.021,0,0,1,.942,2.847c0,.075,0,.186-.007.335H220.4a2.849,2.849,0,0,0,.691,1.871,2.057,2.057,0,0,0,1.549.649,1.923,1.923,0,0,0,1.179-.363A2.413,2.413,0,0,0,224.592,29.324Zm-4.125-2.031h4.138a2.513,2.513,0,0,0-.474-1.4,1.926,1.926,0,0,0-1.557-.726,1.994,1.994,0,0,0-1.455.579A2.292,2.292,0,0,0,220.467,27.293Z" transform="translate(-8.436 -10.026)"/><path class="cls-2" d="M233.385,31.71,230.67,21.48h1.389l1.557,6.706q.251,1.054.433,2.094.39-1.64.46-1.891l1.947-6.909h1.633l1.465,5.178a27.471,27.471,0,0,1,.8,3.622q.195-.97.509-2.226l1.6-6.574h1.361L241.02,31.71h-1.305l-2.156-7.795q-.272-.977-.321-1.2-.16.705-.3,1.2l-2.17,7.795Z" transform="translate(-8.436 -10.026)"/><path class="cls-2" d="M244.935,22.924V21.48h1.256v1.444Zm0,8.786V24.3h1.256V31.71Z" transform="translate(-8.436 -10.026)"/><path class="cls-2" d="M248.1,31.71V24.3h1.131v1.054a2.665,2.665,0,0,1,2.359-1.221,3.092,3.092,0,0,1,1.231.241,1.936,1.936,0,0,1,.841.631,2.43,2.43,0,0,1,.391.928,7.208,7.208,0,0,1,.07,1.221V31.71h-1.256V27.2a3.387,3.387,0,0,0-.146-1.148,1.208,1.208,0,0,0-.52-.607,1.653,1.653,0,0,0-.876-.227,2.035,2.035,0,0,0-1.385.51,2.514,2.514,0,0,0-.583,1.933V31.71Z" transform="translate(-8.436 -10.026)"/><path class="cls-2" d="M260.86,31.71v-.935a2.306,2.306,0,0,1-2.073,1.1,2.91,2.91,0,0,1-1.629-.488,3.211,3.211,0,0,1-1.151-1.365,4.709,4.709,0,0,1-.409-2.013,5.269,5.269,0,0,1,.37-2.013,2.915,2.915,0,0,1,1.109-1.385,2.965,2.965,0,0,1,1.654-.481,2.472,2.472,0,0,1,2.044,1.019V21.48h1.25V31.71Zm-3.971-3.7a3.216,3.216,0,0,0,.6,2.128,1.808,1.808,0,0,0,1.417.705,1.778,1.778,0,0,0,1.4-.673,3.106,3.106,0,0,0,.576-2.055,3.486,3.486,0,0,0-.586-2.233,1.8,1.8,0,0,0-1.444-.712,1.74,1.74,0,0,0-1.4.684A3.376,3.376,0,0,0,256.889,28.012Z" transform="translate(-8.436 -10.026)"/><path class="cls-2" d="M263.533,28a3.818,3.818,0,0,1,1.145-3.05,3.447,3.447,0,0,1,2.33-.823,3.322,3.322,0,0,1,2.5,1,3.81,3.81,0,0,1,.971,2.767,4.891,4.891,0,0,1-.43,2.251,3.04,3.04,0,0,1-1.248,1.273,3.644,3.644,0,0,1-1.791.454,3.332,3.332,0,0,1-2.516-1A3.985,3.985,0,0,1,263.533,28Zm1.292,0a3.156,3.156,0,0,0,.621,2.132,2.067,2.067,0,0,0,3.119,0,3.231,3.231,0,0,0,.621-2.17,3.064,3.064,0,0,0-.625-2.083,2.07,2.07,0,0,0-3.115,0A3.142,3.142,0,0,0,264.824,28Z" transform="translate(-8.436 -10.026)"/><path class="cls-2" d="M273.316,31.71,271.049,24.3h1.3l1.18,4.278.439,1.591q.028-.118.384-1.528l1.18-4.34h1.291l1.109,4.3.37,1.417.426-1.431L280,24.3h1.222L278.9,31.71h-1.3l-1.18-4.438-.286-1.263-1.5,5.7Z" transform="translate(-8.436 -10.026)"/><path class="cls-2" d="M273.388,102.875V95.2h5.548v.905H274.4v2.35h4.245v.9H274.4v2.612h4.711v.905Z" transform="translate(-8.436 -10.026)"/><path class="cls-2" d="M279.768,102.875l2.031-2.889-1.879-2.669H281.1l.853,1.3q.242.372.388.623.23-.346.424-.612l.937-1.314h1.126L282.9,99.934l2.067,2.941h-1.157l-1.141-1.727-.3-.466-1.46,2.193Z" transform="translate(-8.436 -10.026)"/><path class="cls-2" d="M285.389,100.573v-.948h2.895v.948Z" transform="translate(-8.436 -10.026)"/><path class="cls-2" d="M292.931,102.875v-.7a1.728,1.728,0,0,1-1.555.827,2.182,2.182,0,0,1-1.222-.366,2.412,2.412,0,0,1-.863-1.023,3.534,3.534,0,0,1-.307-1.51,3.962,3.962,0,0,1,.277-1.51,2.2,2.2,0,0,1,.832-1.039,2.226,2.226,0,0,1,1.241-.361,1.854,1.854,0,0,1,.895.212,1.878,1.878,0,0,1,.639.552V95.2h.937v7.673Zm-2.978-2.774a2.41,2.41,0,0,0,.45,1.6,1.357,1.357,0,0,0,1.063.529,1.332,1.332,0,0,0,1.049-.505,2.326,2.326,0,0,0,.432-1.541,2.614,2.614,0,0,0-.439-1.675,1.352,1.352,0,0,0-1.083-.534,1.306,1.306,0,0,0-1.05.513A2.529,2.529,0,0,0,289.953,100.1Z" transform="translate(-8.436 -10.026)"/><path class="cls-2" d="M295.292,96.286V95.2h.942v1.083Zm0,6.589V97.317h.942v5.559Z" transform="translate(-8.436 -10.026)"/><path class="cls-2" d="M299.213,102.875,297.1,97.317h1l1.193,3.329q.193.539.355,1.12.126-.44.351-1.058l1.235-3.392h.969l-2.1,5.559Z" transform="translate(-8.436 -10.026)"/><path class="cls-2" d="M303.033,96.286V95.2h.942v1.083Zm0,6.589V97.317h.942v5.559Z" transform="translate(-8.436 -10.026)"/><path class="cls-2" d="M309.016,102.875v-.7a1.728,1.728,0,0,1-1.555.827,2.182,2.182,0,0,1-1.222-.366,2.412,2.412,0,0,1-.863-1.023,3.534,3.534,0,0,1-.307-1.51,3.962,3.962,0,0,1,.277-1.51,2.2,2.2,0,0,1,.832-1.039,2.226,2.226,0,0,1,1.241-.361,1.854,1.854,0,0,1,.895.212,1.878,1.878,0,0,1,.639.552V95.2h.937v7.673Zm-2.978-2.774a2.41,2.41,0,0,0,.45,1.6,1.357,1.357,0,0,0,1.063.529,1.332,1.332,0,0,0,1.049-.505,2.326,2.326,0,0,0,.432-1.541,2.614,2.614,0,0,0-.439-1.675,1.352,1.352,0,0,0-1.083-.534,1.306,1.306,0,0,0-1.05.513A2.529,2.529,0,0,0,306.038,100.1Z" transform="translate(-8.436 -10.026)"/><path class="cls-2" d="M315.177,101.085l.974.121a2.379,2.379,0,0,1-.854,1.324,2.89,2.89,0,0,1-3.524-.28,2.933,2.933,0,0,1-.715-2.106,3.073,3.073,0,0,1,.723-2.178,2.444,2.444,0,0,1,1.873-.774,2.376,2.376,0,0,1,1.821.759,3.014,3.014,0,0,1,.707,2.136c0,.056,0,.14,0,.251h-4.146a2.137,2.137,0,0,0,.518,1.4,1.542,1.542,0,0,0,1.162.487,1.44,1.44,0,0,0,.885-.272A1.808,1.808,0,0,0,315.177,101.085Zm-3.094-1.523h3.1a1.885,1.885,0,0,0-.356-1.052,1.443,1.443,0,0,0-1.167-.544,1.5,1.5,0,0,0-1.091.435A1.724,1.724,0,0,0,312.083,99.563Z" transform="translate(-8.436 -10.026)"/><path class="cls-2" d="M317.334,102.875V97.317h.848v.791a2,2,0,0,1,1.769-.916,2.315,2.315,0,0,1,.924.181,1.451,1.451,0,0,1,.631.474,1.812,1.812,0,0,1,.293.7,5.349,5.349,0,0,1,.053.916v3.418h-.942V99.494a2.542,2.542,0,0,0-.109-.861.907.907,0,0,0-.391-.455,1.235,1.235,0,0,0-.656-.17,1.525,1.525,0,0,0-1.039.382,1.881,1.881,0,0,0-.437,1.45v3.036Z" transform="translate(-8.436 -10.026)"/><path class="cls-2" d="M326.9,102.875v-.7a1.728,1.728,0,0,1-1.555.827,2.182,2.182,0,0,1-1.222-.366,2.412,2.412,0,0,1-.863-1.023,3.534,3.534,0,0,1-.307-1.51,3.962,3.962,0,0,1,.277-1.51,2.2,2.2,0,0,1,.832-1.039,2.226,2.226,0,0,1,1.241-.361,1.854,1.854,0,0,1,.895.212,1.878,1.878,0,0,1,.639.552V95.2h.937v7.673Zm-2.978-2.774a2.41,2.41,0,0,0,.45,1.6,1.357,1.357,0,0,0,1.063.529,1.332,1.332,0,0,0,1.049-.505,2.326,2.326,0,0,0,.432-1.541,2.614,2.614,0,0,0-.439-1.675,1.352,1.352,0,0,0-1.083-.534,1.306,1.306,0,0,0-1.05.513A2.529,2.529,0,0,0,323.924,100.1Z" transform="translate(-8.436 -10.026)"/><path class="cls-2" d="M335.842,102.875v-.7a1.728,1.728,0,0,1-1.555.827,2.182,2.182,0,0,1-1.222-.366,2.412,2.412,0,0,1-.863-1.023,3.534,3.534,0,0,1-.307-1.51,3.962,3.962,0,0,1,.277-1.51A2.2,2.2,0,0,1,333,97.553a2.226,2.226,0,0,1,1.241-.361,1.854,1.854,0,0,1,.895.212,1.878,1.878,0,0,1,.639.552V95.2h.937v7.673Zm-2.978-2.774a2.41,2.41,0,0,0,.45,1.6,1.357,1.357,0,0,0,1.063.529,1.332,1.332,0,0,0,1.049-.505,2.326,2.326,0,0,0,.432-1.541,2.614,2.614,0,0,0-.439-1.675,1.352,1.352,0,0,0-1.083-.534,1.306,1.306,0,0,0-1.05.513A2.529,2.529,0,0,0,332.864,100.1Z" transform="translate(-8.436 -10.026)"/><path class="cls-2" d="M341.825,102.19a3.527,3.527,0,0,1-1.008.628,2.914,2.914,0,0,1-1.039.183,2.022,2.022,0,0,1-1.408-.447,1.479,1.479,0,0,1-.491-1.144,1.519,1.519,0,0,1,.186-.746,1.539,1.539,0,0,1,.486-.542,2.3,2.3,0,0,1,.678-.309,6.8,6.8,0,0,1,.838-.141,8.581,8.581,0,0,0,1.68-.325c0-.129.006-.211.006-.246a1.038,1.038,0,0,0-.268-.812,1.573,1.573,0,0,0-1.072-.319,1.663,1.663,0,0,0-.981.233,1.421,1.421,0,0,0-.469.824l-.921-.125a2.294,2.294,0,0,1,.413-.955,1.816,1.816,0,0,1,.832-.56,3.713,3.713,0,0,1,1.262-.2,3.329,3.329,0,0,1,1.156.167,1.523,1.523,0,0,1,.654.421,1.492,1.492,0,0,1,.294.641,5.331,5.331,0,0,1,.047.869v1.256a13.4,13.4,0,0,0,.06,1.662,2.1,2.1,0,0,0,.238.667h-.983A1.985,1.985,0,0,1,341.825,102.19Zm-.079-2.1a6.9,6.9,0,0,1-1.538.356,3.576,3.576,0,0,0-.822.188.822.822,0,0,0-.371.307.832.832,0,0,0,.154,1.075,1.225,1.225,0,0,0,.835.251,1.942,1.942,0,0,0,.968-.238,1.465,1.465,0,0,0,.623-.651,2.287,2.287,0,0,0,.151-.942Z" transform="translate(-8.436 -10.026)"/><path class="cls-2" d="M346.217,102.033l.136.833a3.5,3.5,0,0,1-.712.083,1.612,1.612,0,0,1-.795-.162.913.913,0,0,1-.4-.427,3.389,3.389,0,0,1-.115-1.112v-3.2h-.69v-.733h.69V95.94l.938-.565v1.942h.947v.733h-.947v3.25a1.639,1.639,0,0,0,.05.518.392.392,0,0,0,.162.183.624.624,0,0,0,.321.068A3.062,3.062,0,0,0,346.217,102.033Z" transform="translate(-8.436 -10.026)"/><path class="cls-2" d="M350.943,101.085l.974.121a2.379,2.379,0,0,1-.854,1.324,2.89,2.89,0,0,1-3.524-.28,2.933,2.933,0,0,1-.715-2.106,3.073,3.073,0,0,1,.723-2.178,2.444,2.444,0,0,1,1.873-.774,2.376,2.376,0,0,1,1.821.759,3.014,3.014,0,0,1,.707,2.136c0,.056,0,.14,0,.251H347.8a2.137,2.137,0,0,0,.518,1.4,1.542,1.542,0,0,0,1.162.487,1.44,1.44,0,0,0,.885-.272A1.808,1.808,0,0,0,350.943,101.085Zm-3.094-1.523h3.1a1.885,1.885,0,0,0-.356-1.052,1.443,1.443,0,0,0-1.167-.544,1.5,1.5,0,0,0-1.091.435A1.724,1.724,0,0,0,347.85,99.563Z" transform="translate(-8.436 -10.026)"/><line class="cls-4" x1="263.474" y1="83.99" x2="239.997" y2="63.376"/><polygon class="cls-5" points="237.545 67.208 235.013 57.757 244.464 60.289 237.545 67.208"/><rect class="cls-1" x="105.787" y="118.926" width="248.177" height="15.021"/><polygon class="cls-1" points="105.787 141.274 80.64 126.755 105.787 112.237 105.787 141.274"/><polygon class="cls-1" points="353.964 112.237 379.111 126.755 353.964 141.274 353.964 112.237"/><path class="cls-2" d="M193.461,139.943v-7.673h1.528l1.816,5.433q.251.759.366,1.136.131-.418.408-1.23l1.837-5.338h1.366v7.673H199.8v-6.422l-2.229,6.422h-.916l-2.219-6.532v6.532Z" transform="translate(-8.436 -10.026)"/><path class="cls-2" d="M201.951,137.164a2.865,2.865,0,0,1,.858-2.287,2.587,2.587,0,0,1,1.748-.618,2.494,2.494,0,0,1,1.874.751,2.857,2.857,0,0,1,.728,2.075,3.673,3.673,0,0,1-.322,1.688,2.278,2.278,0,0,1-.937.956,2.729,2.729,0,0,1-1.342.34,2.5,2.5,0,0,1-1.887-.749A2.987,2.987,0,0,1,201.951,137.164Zm.968,0a2.368,2.368,0,0,0,.466,1.6,1.55,1.55,0,0,0,2.339,0,2.422,2.422,0,0,0,.466-1.627,2.3,2.3,0,0,0-.468-1.562,1.553,1.553,0,0,0-2.337,0A2.356,2.356,0,0,0,202.919,137.164Z" transform="translate(-8.436 -10.026)"/><path class="cls-2" d="M208.252,139.943v-5.559h.848v.843a2.3,2.3,0,0,1,.6-.78,1.049,1.049,0,0,1,.6-.188,1.836,1.836,0,0,1,.968.3l-.325.874a1.347,1.347,0,0,0-.691-.2.9.9,0,0,0-.555.186,1.007,1.007,0,0,0-.351.516,3.661,3.661,0,0,0-.157,1.1v2.91Z" transform="translate(-8.436 -10.026)"/><path class="cls-2" d="M215.637,138.153l.974.121a2.379,2.379,0,0,1-.854,1.324,2.891,2.891,0,0,1-3.525-.28,2.935,2.935,0,0,1-.714-2.106,3.073,3.073,0,0,1,.722-2.178,2.446,2.446,0,0,1,1.874-.774,2.377,2.377,0,0,1,1.821.759,3.016,3.016,0,0,1,.707,2.136c0,.056,0,.14-.005.251h-4.145a2.135,2.135,0,0,0,.518,1.4,1.541,1.541,0,0,0,1.162.487,1.44,1.44,0,0,0,.884-.272A1.8,1.8,0,0,0,215.637,138.153Zm-3.093-1.523h3.1a1.878,1.878,0,0,0-.356-1.052,1.444,1.444,0,0,0-1.167-.544,1.5,1.5,0,0,0-1.091.435A1.719,1.719,0,0,0,212.544,136.63Z" transform="translate(-8.436 -10.026)"/><path class="cls-2" d="M222.829,139.1l.136.833a3.5,3.5,0,0,1-.711.083,1.615,1.615,0,0,1-.8-.162.908.908,0,0,1-.4-.427,3.362,3.362,0,0,1-.115-1.112v-3.2h-.691v-.733h.691v-1.376l.937-.565v1.942h.947v.733h-.947v3.25a1.644,1.644,0,0,0,.049.518.393.393,0,0,0,.163.183.625.625,0,0,0,.322.068A3.075,3.075,0,0,0,222.829,139.1Z" transform="translate(-8.436 -10.026)"/><path class="cls-2" d="M223.75,139.943v-7.673h.942v2.753a2.1,2.1,0,0,1,1.664-.764,2.248,2.248,0,0,1,1.073.243,1.432,1.432,0,0,1,.651.673,3.1,3.1,0,0,1,.2,1.246v3.522h-.942v-3.522a1.455,1.455,0,0,0-.306-1.028,1.138,1.138,0,0,0-.866-.322,1.531,1.531,0,0,0-.788.217,1.229,1.229,0,0,0-.526.589,2.71,2.71,0,0,0-.157,1.026v3.041Z" transform="translate(-8.436 -10.026)"/><path class="cls-2" d="M233.338,139.258a3.506,3.506,0,0,1-1.007.628,2.912,2.912,0,0,1-1.039.183,2.02,2.02,0,0,1-1.408-.447,1.477,1.477,0,0,1-.492-1.144,1.55,1.55,0,0,1,.673-1.288,2.278,2.278,0,0,1,.678-.309,6.734,6.734,0,0,1,.837-.141,8.588,8.588,0,0,0,1.68-.325c0-.129,0-.211,0-.246a1.041,1.041,0,0,0-.267-.812,1.577,1.577,0,0,0-1.073-.319,1.665,1.665,0,0,0-.981.233,1.424,1.424,0,0,0-.468.824l-.921-.125a2.281,2.281,0,0,1,.413-.955,1.81,1.81,0,0,1,.833-.56,3.71,3.71,0,0,1,1.261-.2,3.336,3.336,0,0,1,1.157.167,1.526,1.526,0,0,1,.654.421,1.479,1.479,0,0,1,.293.641,5.314,5.314,0,0,1,.047.869v1.256a13.356,13.356,0,0,0,.06,1.662,2.092,2.092,0,0,0,.238.667h-.984A2.006,2.006,0,0,1,233.338,139.258Zm-.078-2.1a6.91,6.91,0,0,1-1.539.356,3.584,3.584,0,0,0-.822.188.826.826,0,0,0-.372.307.832.832,0,0,0,.154,1.075,1.229,1.229,0,0,0,.835.251,1.944,1.944,0,0,0,.968-.238,1.468,1.468,0,0,0,.623-.651,2.278,2.278,0,0,0,.152-.942Z" transform="translate(-8.436 -10.026)"/><path class="cls-2" d="M235.672,139.943v-5.559h.848v.791a2,2,0,0,1,1.769-.916,2.318,2.318,0,0,1,.924.181,1.452,1.452,0,0,1,.63.474,1.82,1.82,0,0,1,.293.7,5.416,5.416,0,0,1,.052.916v3.418h-.942v-3.381a2.539,2.539,0,0,0-.11-.861.905.905,0,0,0-.39-.455,1.239,1.239,0,0,0-.657-.17,1.524,1.524,0,0,0-1.039.382,1.883,1.883,0,0,0-.437,1.45v3.036Z" transform="translate(-8.436 -10.026)"/><path class="cls-2" d="M249.239,134.149l-.937.073a1.77,1.77,0,0,0-.356-.806,1.247,1.247,0,0,0-.942-.4,1.3,1.3,0,0,0-.791.251,2.15,2.15,0,0,0-.7.948,4.946,4.946,0,0,0-.267,1.774,2.188,2.188,0,0,1,.832-.769,2.24,2.24,0,0,1,1.031-.251,2.139,2.139,0,0,1,1.6.693,2.492,2.492,0,0,1,.662,1.793,2.951,2.951,0,0,1-.312,1.342,2.275,2.275,0,0,1-.856.95,2.337,2.337,0,0,1-1.235.33,2.414,2.414,0,0,1-1.921-.866,4.376,4.376,0,0,1-.743-2.855,5.119,5.119,0,0,1,.822-3.235,2.364,2.364,0,0,1,1.932-.879,2.055,2.055,0,0,1,2.177,1.911Zm-3.847,3.308a2.179,2.179,0,0,0,.207.932,1.54,1.54,0,0,0,.578.678,1.446,1.446,0,0,0,.78.233,1.328,1.328,0,0,0,1.026-.482,1.894,1.894,0,0,0,.429-1.308,1.774,1.774,0,0,0-.424-1.254,1.394,1.394,0,0,0-1.068-.458,1.454,1.454,0,0,0-1.083.458A1.653,1.653,0,0,0,245.392,137.457Z" transform="translate(-8.436 -10.026)"/><path class="cls-2" d="M250.312,136.159a7.011,7.011,0,0,1,.28-2.19,2.726,2.726,0,0,1,.832-1.28,2.129,2.129,0,0,1,1.39-.45,2.265,2.265,0,0,1,1.083.249,2.068,2.068,0,0,1,.769.717,3.847,3.847,0,0,1,.477,1.141,7.573,7.573,0,0,1,.173,1.813,7.054,7.054,0,0,1-.277,2.18,2.731,2.731,0,0,1-.83,1.282,2.129,2.129,0,0,1-1.4.453,2.106,2.106,0,0,1-1.743-.8A5.057,5.057,0,0,1,250.312,136.159Zm.968,0a4.811,4.811,0,0,0,.442,2.515,1.263,1.263,0,0,0,2.183,0,7.37,7.37,0,0,0,0-5.03,1.313,1.313,0,0,0-1.1-.623,1.207,1.207,0,0,0-1.036.549A4.864,4.864,0,0,0,251.28,136.159Z" transform="translate(-8.436 -10.026)"/><path class="cls-2" d="M259.633,139.943v-7.673h2.643a6.41,6.41,0,0,1,1.366.11,2.6,2.6,0,0,1,1.125.549,3.135,3.135,0,0,1,.908,1.311,5.137,5.137,0,0,1,.3,1.824,5.406,5.406,0,0,1-.2,1.549,3.775,3.775,0,0,1-.523,1.118,2.8,2.8,0,0,1-.7.7,2.857,2.857,0,0,1-.917.385,5.217,5.217,0,0,1-1.232.131Zm1.015-.905h1.638a3.976,3.976,0,0,0,1.191-.142,1.71,1.71,0,0,0,.688-.4,2.434,2.434,0,0,0,.563-.971,4.734,4.734,0,0,0,.2-1.479,3.567,3.567,0,0,0-.395-1.85,1.989,1.989,0,0,0-.961-.866,3.959,3.959,0,0,0-1.313-.157h-1.612Z" transform="translate(-8.436 -10.026)"/><path class="cls-2" d="M270.881,139.258a3.527,3.527,0,0,1-1.008.628,2.914,2.914,0,0,1-1.039.183,2.022,2.022,0,0,1-1.408-.447,1.479,1.479,0,0,1-.491-1.144,1.519,1.519,0,0,1,.186-.746,1.539,1.539,0,0,1,.486-.542,2.3,2.3,0,0,1,.678-.309,6.8,6.8,0,0,1,.838-.141,8.581,8.581,0,0,0,1.68-.325c0-.129.006-.211.006-.246a1.038,1.038,0,0,0-.268-.812,1.573,1.573,0,0,0-1.072-.319,1.663,1.663,0,0,0-.981.233,1.421,1.421,0,0,0-.469.824l-.921-.125a2.294,2.294,0,0,1,.413-.955,1.816,1.816,0,0,1,.832-.56,3.713,3.713,0,0,1,1.262-.2,3.329,3.329,0,0,1,1.156.167,1.523,1.523,0,0,1,.654.421,1.492,1.492,0,0,1,.294.641,5.331,5.331,0,0,1,.047.869v1.256a13.4,13.4,0,0,0,.06,1.662,2.1,2.1,0,0,0,.238.667h-.983A1.985,1.985,0,0,1,270.881,139.258Zm-.079-2.1a6.9,6.9,0,0,1-1.538.356,3.576,3.576,0,0,0-.822.188.822.822,0,0,0-.371.307.832.832,0,0,0,.154,1.075,1.225,1.225,0,0,0,.835.251,1.942,1.942,0,0,0,.968-.238,1.465,1.465,0,0,0,.623-.651,2.287,2.287,0,0,0,.151-.942Z" transform="translate(-8.436 -10.026)"/><path class="cls-2" d="M273.174,142.084l-.105-.884a2.108,2.108,0,0,0,.54.083,1.034,1.034,0,0,0,.5-.1.849.849,0,0,0,.309-.293,4.574,4.574,0,0,0,.288-.7c.018-.052.045-.129.084-.23l-2.109-5.569H273.7l1.156,3.219q.226.612.4,1.287a12.676,12.676,0,0,1,.387-1.267l1.188-3.24h.942l-2.115,5.653a10.988,10.988,0,0,1-.528,1.261,1.862,1.862,0,0,1-.575.683,1.36,1.36,0,0,1-.775.217A1.887,1.887,0,0,1,273.174,142.084Z" transform="translate(-8.436 -10.026)"/><path class="cls-2" d="M278.2,138.284l.932-.146a1.3,1.3,0,0,0,.437.858,1.525,1.525,0,0,0,1,.3,1.476,1.476,0,0,0,.963-.264.792.792,0,0,0,.313-.621.571.571,0,0,0-.277-.5,4.11,4.11,0,0,0-.963-.319,8.767,8.767,0,0,1-1.437-.453,1.371,1.371,0,0,1-.814-1.274,1.422,1.422,0,0,1,.171-.688,1.523,1.523,0,0,1,.463-.526,1.954,1.954,0,0,1,.6-.275,2.856,2.856,0,0,1,.813-.112,3.214,3.214,0,0,1,1.148.188,1.564,1.564,0,0,1,.73.51,1.983,1.983,0,0,1,.324.861l-.921.126a1.008,1.008,0,0,0-.363-.67,1.331,1.331,0,0,0-.851-.241,1.541,1.541,0,0,0-.927.215.626.626,0,0,0-.277.5.518.518,0,0,0,.115.33.826.826,0,0,0,.361.251q.141.052.832.241a11.6,11.6,0,0,1,1.395.437,1.409,1.409,0,0,1,.62.495,1.378,1.378,0,0,1,.226.806,1.581,1.581,0,0,1-.275.887,1.772,1.772,0,0,1-.793.644,2.879,2.879,0,0,1-1.172.228,2.611,2.611,0,0,1-1.651-.45A2.089,2.089,0,0,1,278.2,138.284Z" transform="translate(-8.436 -10.026)"/><path class="cls-6" d="M164.778,167.584v-10.23h1.354v4.2h5.317v-4.2H172.8v10.23h-1.354v-4.822h-5.317v4.822Z" transform="translate(-8.436 -10.026)"/><path class="cls-6" d="M174.429,163.878a3.82,3.82,0,0,1,1.145-3.05,3.448,3.448,0,0,1,2.331-.823,3.325,3.325,0,0,1,2.5,1,3.81,3.81,0,0,1,.97,2.767,4.9,4.9,0,0,1-.429,2.251,3.038,3.038,0,0,1-1.25,1.273,3.637,3.637,0,0,1-1.79.454,3.331,3.331,0,0,1-2.516-1A3.985,3.985,0,0,1,174.429,163.878Zm1.291,0a3.156,3.156,0,0,0,.621,2.132,2.068,2.068,0,0,0,3.12,0,3.234,3.234,0,0,0,.621-2.17,3.061,3.061,0,0,0-.625-2.083,2.07,2.07,0,0,0-3.116,0A3.142,3.142,0,0,0,175.72,163.878Z" transform="translate(-8.436 -10.026)"/><path class="cls-6" d="M182.817,167.584v-10.23h1.256v10.23Z" transform="translate(-8.436 -10.026)"/><path class="cls-6" d="M190.829,167.584v-.935a2.306,2.306,0,0,1-2.073,1.1,2.91,2.91,0,0,1-1.629-.488,3.211,3.211,0,0,1-1.151-1.365,4.709,4.709,0,0,1-.409-2.013,5.269,5.269,0,0,1,.37-2.013,2.915,2.915,0,0,1,1.109-1.385,2.965,2.965,0,0,1,1.654-.481,2.472,2.472,0,0,1,2.044,1.019v-3.67h1.25v10.23Zm-3.971-3.7a3.216,3.216,0,0,0,.6,2.128,1.808,1.808,0,0,0,1.417.705,1.778,1.778,0,0,0,1.4-.673,3.106,3.106,0,0,0,.576-2.055,3.486,3.486,0,0,0-.586-2.233,1.8,1.8,0,0,0-1.444-.712,1.74,1.74,0,0,0-1.4.684A3.376,3.376,0,0,0,186.858,163.885Z" transform="translate(-8.436 -10.026)"/><path class="cls-6" d="M193.977,158.8v-1.444h1.256V158.8Zm0,8.786v-7.411h1.256v7.411Z" transform="translate(-8.436 -10.026)"/><path class="cls-6" d="M197.145,167.584v-7.411h1.131v1.054a2.665,2.665,0,0,1,2.359-1.221,3.092,3.092,0,0,1,1.231.241,1.936,1.936,0,0,1,.841.631,2.43,2.43,0,0,1,.391.928,7.208,7.208,0,0,1,.07,1.221v4.557h-1.256v-4.508a3.387,3.387,0,0,0-.146-1.148,1.208,1.208,0,0,0-.52-.607,1.653,1.653,0,0,0-.876-.227,2.035,2.035,0,0,0-1.385.51,2.514,2.514,0,0,0-.583,1.933v4.047Z" transform="translate(-8.436 -10.026)"/><path class="cls-6" d="M204.863,168.2l1.221.181a1.164,1.164,0,0,0,.426.824,2.092,2.092,0,0,0,1.277.349,2.245,2.245,0,0,0,1.347-.349,1.722,1.722,0,0,0,.642-.977,8.033,8.033,0,0,0,.09-1.612,2.583,2.583,0,0,1-2.052.97,2.8,2.8,0,0,1-2.366-1.1,4.248,4.248,0,0,1-.837-2.645,4.925,4.925,0,0,1,.384-1.958,3.071,3.071,0,0,1,1.113-1.385,3,3,0,0,1,1.713-.488,2.656,2.656,0,0,1,2.163,1.061v-.893h1.159v6.406a6.079,6.079,0,0,1-.353,2.453,2.574,2.574,0,0,1-1.117,1.141,3.867,3.867,0,0,1-1.88.419,3.545,3.545,0,0,1-2.143-.6A2.018,2.018,0,0,1,204.863,168.2Zm1.04-4.453a3.213,3.213,0,0,0,.58,2.128,1.911,1.911,0,0,0,2.9,0,3.109,3.109,0,0,0,.586-2.09,3.039,3.039,0,0,0-.6-2.052,1.867,1.867,0,0,0-1.455-.691,1.813,1.813,0,0,0-1.423.681A3.022,3.022,0,0,0,205.9,163.746Z" transform="translate(-8.436 -10.026)"/><path class="cls-6" d="M217.173,167.584v-10.23h3.859a9.287,9.287,0,0,1,1.556.1,3.082,3.082,0,0,1,1.263.478,2.509,2.509,0,0,1,.82.987,3.33,3.33,0,0,1-.52,3.6,3.983,3.983,0,0,1-3,.9h-2.624v4.159Zm1.354-5.367h2.645a2.805,2.805,0,0,0,1.863-.488,1.742,1.742,0,0,0,.551-1.375,1.85,1.85,0,0,0-.325-1.1,1.517,1.517,0,0,0-.855-.6,5.779,5.779,0,0,0-1.263-.091h-2.617Z" transform="translate(-8.436 -10.026)"/><path class="cls-6" d="M231.619,165.2l1.3.161a3.169,3.169,0,0,1-1.137,1.766,3.854,3.854,0,0,1-4.7-.374,3.912,3.912,0,0,1-.953-2.809,4.094,4.094,0,0,1,.963-2.9,3.261,3.261,0,0,1,2.5-1.033,3.171,3.171,0,0,1,2.429,1.012,4.021,4.021,0,0,1,.942,2.847c0,.075,0,.186-.007.335h-5.527a2.849,2.849,0,0,0,.691,1.871,2.057,2.057,0,0,0,1.549.649,1.923,1.923,0,0,0,1.179-.363A2.413,2.413,0,0,0,231.619,165.2Zm-4.125-2.031h4.138a2.513,2.513,0,0,0-.474-1.4,1.926,1.926,0,0,0-1.557-.726,1.994,1.994,0,0,0-1.455.579A2.292,2.292,0,0,0,227.495,163.167Z" transform="translate(-8.436 -10.026)"/><path class="cls-6" d="M234.48,167.584v-7.411h1.13V161.3a3.062,3.062,0,0,1,.8-1.04,1.394,1.394,0,0,1,.806-.251,2.448,2.448,0,0,1,1.291.4l-.433,1.165a1.8,1.8,0,0,0-.921-.272,1.2,1.2,0,0,0-.74.248,1.345,1.345,0,0,0-.468.688,4.891,4.891,0,0,0-.209,1.466v3.88Z" transform="translate(-8.436 -10.026)"/><path class="cls-6" d="M239.261,158.8v-1.444h1.256V158.8Zm0,8.786v-7.411h1.256v7.411Z" transform="translate(-8.436 -10.026)"/><path class="cls-6" d="M241.961,163.878a3.82,3.82,0,0,1,1.145-3.05,3.448,3.448,0,0,1,2.331-.823,3.325,3.325,0,0,1,2.5,1,3.81,3.81,0,0,1,.97,2.767,4.9,4.9,0,0,1-.429,2.251,3.038,3.038,0,0,1-1.25,1.273,3.637,3.637,0,0,1-1.79.454,3.331,3.331,0,0,1-2.516-1A3.985,3.985,0,0,1,241.961,163.878Zm1.291,0a3.156,3.156,0,0,0,.621,2.132,2.068,2.068,0,0,0,3.12,0,3.234,3.234,0,0,0,.621-2.17,3.061,3.061,0,0,0-.625-2.083,2.07,2.07,0,0,0-3.116,0A3.142,3.142,0,0,0,243.252,163.878Z" transform="translate(-8.436 -10.026)"/><path class="cls-6" d="M255.186,167.584v-.935a2.306,2.306,0,0,1-2.073,1.1,2.91,2.91,0,0,1-1.629-.488,3.211,3.211,0,0,1-1.151-1.365,4.709,4.709,0,0,1-.409-2.013,5.269,5.269,0,0,1,.37-2.013,2.915,2.915,0,0,1,1.109-1.385,2.965,2.965,0,0,1,1.654-.481,2.472,2.472,0,0,1,2.044,1.019v-3.67h1.25v10.23Zm-3.971-3.7a3.216,3.216,0,0,0,.6,2.128,1.808,1.808,0,0,0,1.417.705,1.778,1.778,0,0,0,1.4-.673,3.106,3.106,0,0,0,.576-2.055,3.486,3.486,0,0,0-.586-2.233,1.8,1.8,0,0,0-1.444-.712,1.74,1.74,0,0,0-1.4.684A3.376,3.376,0,0,0,251.215,163.885Z" transform="translate(-8.436 -10.026)"/><path class="cls-6" d="M261.83,163.878a3.82,3.82,0,0,1,1.145-3.05,3.449,3.449,0,0,1,2.331-.823,3.322,3.322,0,0,1,2.5,1,3.81,3.81,0,0,1,.971,2.767,4.891,4.891,0,0,1-.43,2.251A3.04,3.04,0,0,1,267.1,167.3a3.644,3.644,0,0,1-1.791.454,3.331,3.331,0,0,1-2.516-1A3.985,3.985,0,0,1,261.83,163.878Zm1.291,0a3.156,3.156,0,0,0,.621,2.132,2.068,2.068,0,0,0,3.12,0,3.231,3.231,0,0,0,.621-2.17,3.064,3.064,0,0,0-.625-2.083,2.07,2.07,0,0,0-3.116,0A3.142,3.142,0,0,0,263.121,163.878Z" transform="translate(-8.436 -10.026)"/><path class="cls-6" d="M270.546,167.584V161.15h-1.109v-.977h1.109v-.789a3.44,3.44,0,0,1,.133-1.11,1.608,1.608,0,0,1,.639-.792,2.3,2.3,0,0,1,1.28-.3,6.125,6.125,0,0,1,1.172.126l-.187,1.1a4.235,4.235,0,0,0-.74-.069,1.1,1.1,0,0,0-.81.244,1.323,1.323,0,0,0-.237.914v.684h1.444v.977h-1.444v6.434Z" transform="translate(-8.436 -10.026)"/><path class="cls-6" d="M277.887,164.3l1.277-.111a2.81,2.81,0,0,0,.423,1.259,2.3,2.3,0,0,0,1.029.8,3.9,3.9,0,0,0,1.569.3,3.769,3.769,0,0,0,1.368-.23,1.9,1.9,0,0,0,.883-.632,1.462,1.462,0,0,0,.29-.875,1.333,1.333,0,0,0-.279-.841,2.07,2.07,0,0,0-.922-.6,18.077,18.077,0,0,0-1.821-.5,9.332,9.332,0,0,1-1.975-.638,2.769,2.769,0,0,1-1.092-.953,2.33,2.33,0,0,1-.359-1.274,2.6,2.6,0,0,1,.439-1.448A2.72,2.72,0,0,1,280,157.528a4.872,4.872,0,0,1,1.877-.349,5.129,5.129,0,0,1,2.007.367,2.891,2.891,0,0,1,1.336,1.078,3.1,3.1,0,0,1,.5,1.612l-1.3.1a2.093,2.093,0,0,0-.708-1.465,2.759,2.759,0,0,0-1.783-.5,2.865,2.865,0,0,0-1.79.45,1.352,1.352,0,0,0-.562,1.085,1.165,1.165,0,0,0,.4.907,5.389,5.389,0,0,0,2.042.729,13.52,13.52,0,0,1,2.264.652,3.108,3.108,0,0,1,1.319,1.043,2.54,2.54,0,0,1,.426,1.455,2.783,2.783,0,0,1-.468,1.539,3.079,3.079,0,0,1-1.343,1.124,4.688,4.688,0,0,1-1.972.4,5.88,5.88,0,0,1-2.327-.4,3.255,3.255,0,0,1-1.473-1.218A3.448,3.448,0,0,1,277.887,164.3Z" transform="translate(-8.436 -10.026)"/><path class="cls-6" d="M290.463,166.46l.182,1.109a4.641,4.641,0,0,1-.949.112,2.149,2.149,0,0,1-1.061-.216,1.208,1.208,0,0,1-.53-.569,4.493,4.493,0,0,1-.153-1.483V161.15h-.922v-.977h.922v-1.835l1.249-.754v2.589h1.263v.977H289.2v4.333a2.164,2.164,0,0,0,.066.691.522.522,0,0,0,.216.244.837.837,0,0,0,.43.091A4.048,4.048,0,0,0,290.463,166.46Z" transform="translate(-8.436 -10.026)"/><path class="cls-6" d="M291.224,163.878a3.821,3.821,0,0,1,1.145-3.05,3.449,3.449,0,0,1,2.331-.823,3.323,3.323,0,0,1,2.5,1,3.81,3.81,0,0,1,.97,2.767,4.9,4.9,0,0,1-.429,2.251,3.043,3.043,0,0,1-1.249,1.273,3.64,3.64,0,0,1-1.79.454,3.329,3.329,0,0,1-2.516-1A3.981,3.981,0,0,1,291.224,163.878Zm1.291,0a3.156,3.156,0,0,0,.621,2.132,2.067,2.067,0,0,0,3.119,0,3.231,3.231,0,0,0,.621-2.17,3.064,3.064,0,0,0-.624-2.083,2.071,2.071,0,0,0-3.116,0A3.142,3.142,0,0,0,292.515,163.878Z" transform="translate(-8.436 -10.026)"/><path class="cls-6" d="M304.476,164.869l1.235.161a3.2,3.2,0,0,1-1.036,2,3.022,3.022,0,0,1-2.049.722,3.181,3.181,0,0,1-2.445-.995,4.03,4.03,0,0,1-.925-2.851,5.151,5.151,0,0,1,.4-2.1,2.774,2.774,0,0,1,1.211-1.35,3.59,3.59,0,0,1,1.769-.45,3.077,3.077,0,0,1,1.976.61,2.8,2.8,0,0,1,.983,1.734l-1.221.188a2.023,2.023,0,0,0-.618-1.124,1.6,1.6,0,0,0-1.071-.377,1.949,1.949,0,0,0-1.542.68,3.231,3.231,0,0,0-.593,2.153,3.335,3.335,0,0,0,.572,2.17,1.86,1.86,0,0,0,1.493.677,1.762,1.762,0,0,0,1.235-.454A2.254,2.254,0,0,0,304.476,164.869Z" transform="translate(-8.436 -10.026)"/><path class="cls-6" d="M306.793,167.584v-10.23h1.256v5.834l2.973-3.015h1.626l-2.833,2.75,3.119,4.662h-1.549l-2.449-3.79-.887.852v2.938Z" transform="translate(-8.436 -10.026)"/><line class="cls-7" x1="0.5" x2="0.5" y2="6"/><line class="cls-8" x1="0.5" y1="18.335" x2="0.5" y2="160.186"/><line class="cls-7" x1="0.5" y1="166.354" x2="0.5" y2="172.354"/><line class="cls-7" x1="460.564" x2="460.564" y2="6"/><line class="cls-8" x1="460.564" y1="18.335" x2="460.564" y2="160.186"/><line class="cls-7" x1="460.564" y1="166.354" x2="460.564" y2="172.354"/></svg>