<svg id="Layer_1" data-name="Layer 1" xmlns="http://www.w3.org/2000/svg" viewBox="0 0 654.462 134.378"><defs><style>.cls-1{fill:#ffc72a;}.cls-2{fill:none;stroke:#1c75bc;stroke-miterlimit:10;stroke-width:3px;}.cls-3{fill:#231f20;}.cls-4{fill:#fff;}</style></defs><title>The_History_Hedge_Fund_Investing</title><polygon class="cls-1" points="87.751 44.062 71.836 71.627 55.921 44.062 87.751 44.062"/><polygon class="cls-1" points="307.862 44.062 291.947 71.627 276.032 44.062 307.862 44.062"/><polygon class="cls-1" points="489.155 44.062 473.24 71.627 457.325 44.062 489.155 44.062"/><polygon class="cls-1" points="162.141 44.062 178.056 16.496 193.971 44.062 162.141 44.062"/><polygon class="cls-1" points="369.205 44.062 385.121 16.496 401.036 44.062 369.205 44.062"/><polygon class="cls-1" points="553.253 44.062 569.168 16.496 585.083 44.062 553.253 44.062"/><line class="cls-2" y1="44.062" x2="654.462" y2="44.062"/><path class="cls-3" d="M59.778,108.953H57.494v-8.607a7.869,7.869,0,0,1-2.95,1.731V100a6.605,6.605,0,0,0,1.942-1.11,4.21,4.21,0,0,0,1.438-1.906h1.854v11.964Z" transform="translate(-6.538 -14.736)"/><path class="cls-3" d="M63.24,106.2l2.211-.244a1.6,1.6,0,0,0,.422,1,1.255,1.255,0,0,0,.9.325,1.472,1.472,0,0,0,1.2-.65,5.539,5.539,0,0,0,.634-2.7,2.727,2.727,0,0,1-2.154,1,3.22,3.22,0,0,1-2.426-1.085,3.957,3.957,0,0,1-1.02-2.825A4.016,4.016,0,0,1,64.09,98.1a3.9,3.9,0,0,1,5.718.292q1.162,1.4,1.163,4.613,0,3.267-1.211,4.714a3.917,3.917,0,0,1-3.153,1.447,3.337,3.337,0,0,1-2.26-.744A3.592,3.592,0,0,1,63.24,106.2Zm5.169-4.991a2.607,2.607,0,0,0-.508-1.715,1.5,1.5,0,0,0-1.175-.61,1.316,1.316,0,0,0-1.052.5,2.549,2.549,0,0,0-.419,1.638,2.6,2.6,0,0,0,.455,1.695,1.428,1.428,0,0,0,1.138.541,1.413,1.413,0,0,0,1.109-.52A2.272,2.272,0,0,0,68.41,101.207Z" transform="translate(-6.538 -14.736)"/><path class="cls-3" d="M76.928,108.953v-2.4H72.051v-2l5.169-7.567h1.918v7.559h1.479v2.007H79.139v2.4H76.928Zm0-4.405v-4.072l-2.739,4.072h2.739Z" transform="translate(-6.538 -14.736)"/><path class="cls-3" d="M85.568,96.988a3.255,3.255,0,0,1,2.707,1.235q1.162,1.463,1.163,4.853t-1.17,4.86a3.251,3.251,0,0,1-2.7,1.219,3.411,3.411,0,0,1-2.8-1.337q-1.065-1.337-1.064-4.767,0-3.365,1.17-4.844A3.249,3.249,0,0,1,85.568,96.988Zm0,1.894a1.143,1.143,0,0,0-.74.264,1.775,1.775,0,0,0-.5.947,19.388,19.388,0,0,0-.024,5.864A2.025,2.025,0,0,0,84.833,107a1.168,1.168,0,0,0,1.475,0,1.773,1.773,0,0,0,.5-0.947,19.292,19.292,0,0,0,.024-5.856,2.059,2.059,0,0,0-.532-1.049A1.128,1.128,0,0,0,85.568,98.882Z" transform="translate(-6.538 -14.736)"/><path class="cls-3" d="M91.4,97.069H93.68V98.7a5.7,5.7,0,0,1-.171,1.565,2.336,2.336,0,0,1-.646,1.028,3.324,3.324,0,0,1-1.207.715l-0.447-.943a1.925,1.925,0,0,0,.983-0.625,1.885,1.885,0,0,0,.309-1.089H91.4V97.069Z" transform="translate(-6.538 -14.736)"/><path class="cls-3" d="M94.655,106.49l2.292-.35a1.681,1.681,0,0,0,.593,1.012,2,2,0,0,0,1.252.345,2.265,2.265,0,0,0,1.333-.325,0.727,0.727,0,0,0,.3-0.61,0.6,0.6,0,0,0-.163-0.431,1.823,1.823,0,0,0-.764-0.3,12.291,12.291,0,0,1-3.5-1.114,2.223,2.223,0,0,1-1.024-1.942,2.394,2.394,0,0,1,.886-1.886,4.137,4.137,0,0,1,2.747-.764,4.792,4.792,0,0,1,2.633.577,2.952,2.952,0,0,1,1.187,1.707l-2.154.4a1.33,1.33,0,0,0-.524-0.772,1.918,1.918,0,0,0-1.1-.268,2.479,2.479,0,0,0-1.292.252,0.54,0.54,0,0,0-.26.463,0.5,0.5,0,0,0,.228.415,8.587,8.587,0,0,0,2.134.642A6.355,6.355,0,0,1,102,104.555a2.114,2.114,0,0,1,.715,1.7,2.608,2.608,0,0,1-.992,2.041,4.39,4.39,0,0,1-2.934.854A4.817,4.817,0,0,1,96,108.433,3.3,3.3,0,0,1,94.655,106.49Z" transform="translate(-6.538 -14.736)"/><path class="cls-3" d="M84.117,127.473l-1.382,1.764a8.063,8.063,0,0,1-1.951-1.366,4.892,4.892,0,0,1-1.536.959,5.443,5.443,0,0,1-1.935.309,4.267,4.267,0,0,1-3.349-1.252,3.232,3.232,0,0,1-.87-2.227,3.36,3.36,0,0,1,.683-2.061,5.588,5.588,0,0,1,2.041-1.589,6.435,6.435,0,0,1-.918-1.377,2.909,2.909,0,0,1-.309-1.24,2.34,2.34,0,0,1,.866-1.833,3.65,3.65,0,0,1,2.467-.751,3.465,3.465,0,0,1,2.414.788,2.5,2.5,0,0,1,.87,1.926,2.448,2.448,0,0,1-.431,1.374,5.833,5.833,0,0,1-1.74,1.471l1.658,2.186a5.569,5.569,0,0,0,.5-1.357l2.064,0.471a12.717,12.717,0,0,1-.536,1.605,4.324,4.324,0,0,1-.488.849,9.228,9.228,0,0,0,.987.784A7.416,7.416,0,0,0,84.117,127.473Zm-7.112-4a3.092,3.092,0,0,0-1.179.959,1.988,1.988,0,0,0-.39,1.146,1.6,1.6,0,0,0,.484,1.207,1.786,1.786,0,0,0,1.3.467,2.6,2.6,0,0,0,1.032-.211,4.506,4.506,0,0,0,1.081-.7Zm0.894-2.479,0.618-.471a1.421,1.421,0,0,0,.683-1.048,0.987,0.987,0,0,0-.329-0.748,1.455,1.455,0,0,0-1.743-.037,0.82,0.82,0,0,0-.309.63,1.724,1.724,0,0,0,.52,1.024Z" transform="translate(-6.538 -14.736)"/><path class="cls-3" d="M59.778,148.9H57.494V140.3a7.869,7.869,0,0,1-2.95,1.731v-2.072a6.605,6.605,0,0,0,1.942-1.11,4.21,4.21,0,0,0,1.438-1.906h1.854V148.9Z" transform="translate(-6.538 -14.736)"/><path class="cls-3" d="M63.24,146.148l2.211-.244a1.6,1.6,0,0,0,.422,1,1.255,1.255,0,0,0,.9.325,1.472,1.472,0,0,0,1.2-.65,5.539,5.539,0,0,0,.634-2.7,2.727,2.727,0,0,1-2.154,1,3.22,3.22,0,0,1-2.426-1.085,3.957,3.957,0,0,1-1.02-2.825,4.016,4.016,0,0,1,1.077-2.922,3.9,3.9,0,0,1,5.718.292q1.162,1.4,1.163,4.613,0,3.267-1.211,4.714a3.917,3.917,0,0,1-3.153,1.447,3.337,3.337,0,0,1-2.26-.744A3.592,3.592,0,0,1,63.24,146.148Zm5.169-4.991a2.607,2.607,0,0,0-.508-1.715,1.5,1.5,0,0,0-1.175-.61,1.316,1.316,0,0,0-1.052.5,2.549,2.549,0,0,0-.419,1.638,2.6,2.6,0,0,0,.455,1.695,1.428,1.428,0,0,0,1.138.541,1.413,1.413,0,0,0,1.109-.52A2.272,2.272,0,0,0,68.41,141.157Z" transform="translate(-6.538 -14.736)"/><path class="cls-3" d="M72.482,145.839l2.276-.235a1.951,1.951,0,0,0,.577,1.223,1.564,1.564,0,0,0,1.1.451,1.536,1.536,0,0,0,1.211-.581,2.648,2.648,0,0,0,.5-1.752,2.4,2.4,0,0,0-.492-1.646,1.637,1.637,0,0,0-1.28-.549,2.326,2.326,0,0,0-1.764.87l-1.853-.268,1.17-6.2h6.039v2.138H75.66L75.3,141.312a3.49,3.49,0,0,1,4.137.723A3.982,3.982,0,0,1,80.5,144.9a4.3,4.3,0,0,1-.854,2.625,3.783,3.783,0,0,1-3.227,1.577,4.006,4.006,0,0,1-2.69-.886A3.648,3.648,0,0,1,72.482,145.839Z" transform="translate(-6.538 -14.736)"/><path class="cls-3" d="M85.568,136.939a3.255,3.255,0,0,1,2.707,1.235q1.162,1.463,1.163,4.853t-1.17,4.86a3.251,3.251,0,0,1-2.7,1.219,3.411,3.411,0,0,1-2.8-1.337Q81.7,146.433,81.7,143q0-3.365,1.17-4.844A3.249,3.249,0,0,1,85.568,136.939Zm0,1.894a1.143,1.143,0,0,0-.74.264,1.775,1.775,0,0,0-.5.947,19.388,19.388,0,0,0-.024,5.864,2.025,2.025,0,0,0,.533,1.044,1.168,1.168,0,0,0,1.475,0,1.773,1.773,0,0,0,.5-0.947,19.292,19.292,0,0,0,.024-5.856A2.059,2.059,0,0,0,86.3,139.1,1.128,1.128,0,0,0,85.568,138.833Z" transform="translate(-6.538 -14.736)"/><path class="cls-3" d="M91.4,137.02H93.68v1.634a5.7,5.7,0,0,1-.171,1.565,2.336,2.336,0,0,1-.646,1.028,3.324,3.324,0,0,1-1.207.715l-0.447-.943a1.925,1.925,0,0,0,.983-0.625A1.885,1.885,0,0,0,92.5,139.3H91.4V137.02Z" transform="translate(-6.538 -14.736)"/><path class="cls-3" d="M94.655,146.44l2.292-.35a1.681,1.681,0,0,0,.593,1.012,2,2,0,0,0,1.252.345,2.265,2.265,0,0,0,1.333-.325,0.727,0.727,0,0,0,.3-0.61,0.6,0.6,0,0,0-.163-0.431,1.823,1.823,0,0,0-.764-0.3,12.291,12.291,0,0,1-3.5-1.114,2.223,2.223,0,0,1-1.024-1.942,2.394,2.394,0,0,1,.886-1.886,4.137,4.137,0,0,1,2.747-.764,4.792,4.792,0,0,1,2.633.577,2.952,2.952,0,0,1,1.187,1.707l-2.154.4a1.33,1.33,0,0,0-.524-0.772,1.918,1.918,0,0,0-1.1-.268,2.479,2.479,0,0,0-1.292.252,0.54,0.54,0,0,0-.26.463,0.5,0.5,0,0,0,.228.415,8.587,8.587,0,0,0,2.134.642A6.355,6.355,0,0,1,102,144.506a2.114,2.114,0,0,1,.715,1.7,2.608,2.608,0,0,1-.992,2.041,4.39,4.39,0,0,1-2.934.854A4.817,4.817,0,0,1,96,148.383,3.3,3.3,0,0,1,94.655,146.44Z" transform="translate(-6.538 -14.736)"/><path class="cls-3" d="M279.889,108.953h-2.283v-8.607a7.873,7.873,0,0,1-2.951,1.731V100a6.6,6.6,0,0,0,1.943-1.11,4.224,4.224,0,0,0,1.438-1.906h1.853v11.964Z" transform="translate(-6.538 -14.736)"/><path class="cls-3" d="M283.352,106.2l2.211-.244a1.6,1.6,0,0,0,.423,1,1.254,1.254,0,0,0,.9.325,1.471,1.471,0,0,0,1.2-.65,5.537,5.537,0,0,0,.635-2.7,2.729,2.729,0,0,1-2.154,1,3.218,3.218,0,0,1-2.426-1.085,3.955,3.955,0,0,1-1.021-2.825A4.018,4.018,0,0,1,284.2,98.1a3.9,3.9,0,0,1,5.718.292q1.162,1.4,1.162,4.613,0,3.267-1.211,4.714a3.918,3.918,0,0,1-3.153,1.447,3.336,3.336,0,0,1-2.26-.744A3.594,3.594,0,0,1,283.352,106.2Zm5.169-4.991a2.6,2.6,0,0,0-.508-1.715,1.5,1.5,0,0,0-1.174-.61,1.317,1.317,0,0,0-1.053.5,2.549,2.549,0,0,0-.419,1.638,2.6,2.6,0,0,0,.455,1.695,1.457,1.457,0,0,0,2.248.021A2.272,2.272,0,0,0,288.521,101.207Z" transform="translate(-6.538 -14.736)"/><path class="cls-3" d="M292.561,99.321V97.2h7.812v1.658a12.271,12.271,0,0,0-1.968,2.731,15.946,15.946,0,0,0-1.523,3.783,14.055,14.055,0,0,0-.517,3.581h-2.2a15.3,15.3,0,0,1,1.02-5.04,16.809,16.809,0,0,1,2.573-4.592h-5.194Z" transform="translate(-6.538 -14.736)"/><path class="cls-3" d="M305.68,96.988a3.256,3.256,0,0,1,2.706,1.235q1.163,1.463,1.162,4.853t-1.17,4.86a3.251,3.251,0,0,1-2.7,1.219,3.411,3.411,0,0,1-2.8-1.337q-1.065-1.337-1.064-4.767,0-3.365,1.17-4.844A3.252,3.252,0,0,1,305.68,96.988Zm0,1.894a1.144,1.144,0,0,0-.74.264,1.775,1.775,0,0,0-.5.947,19.388,19.388,0,0,0-.024,5.864,2.025,2.025,0,0,0,.532,1.044,1.169,1.169,0,0,0,1.476,0,1.773,1.773,0,0,0,.5-0.947,19.333,19.333,0,0,0,.024-5.856,2.055,2.055,0,0,0-.532-1.049A1.126,1.126,0,0,0,305.68,98.882Z" transform="translate(-6.538 -14.736)"/><path class="cls-3" d="M311.507,97.069h2.284V98.7a5.679,5.679,0,0,1-.171,1.565,2.335,2.335,0,0,1-.646,1.028,3.332,3.332,0,0,1-1.207.715l-0.447-.943a1.927,1.927,0,0,0,.983-0.625,1.881,1.881,0,0,0,.309-1.089h-1.105V97.069Z" transform="translate(-6.538 -14.736)"/><path class="cls-3" d="M314.767,106.49l2.292-.35a1.675,1.675,0,0,0,.593,1.012,2,2,0,0,0,1.252.345,2.262,2.262,0,0,0,1.333-.325,0.727,0.727,0,0,0,.3-0.61,0.6,0.6,0,0,0-.163-0.431,1.817,1.817,0,0,0-.764-0.3,12.291,12.291,0,0,1-3.5-1.114,2.224,2.224,0,0,1-1.024-1.942,2.394,2.394,0,0,1,.886-1.886,4.14,4.14,0,0,1,2.748-.764,4.791,4.791,0,0,1,2.633.577,2.952,2.952,0,0,1,1.187,1.707l-2.153.4a1.338,1.338,0,0,0-.524-0.772,1.92,1.92,0,0,0-1.1-.268,2.479,2.479,0,0,0-1.292.252,0.54,0.54,0,0,0-.261.463,0.506,0.506,0,0,0,.228.415,8.6,8.6,0,0,0,2.134.642,6.357,6.357,0,0,1,2.549,1.016,2.113,2.113,0,0,1,.715,1.7,2.611,2.611,0,0,1-.991,2.041,4.391,4.391,0,0,1-2.935.854,4.817,4.817,0,0,1-2.792-.715A3.294,3.294,0,0,1,314.767,106.49Z" transform="translate(-6.538 -14.736)"/><path class="cls-3" d="M461.609,108.953h-2.283v-8.607a7.873,7.873,0,0,1-2.951,1.731V100a6.6,6.6,0,0,0,1.943-1.11,4.224,4.224,0,0,0,1.438-1.906h1.853v11.964Z" transform="translate(-6.538 -14.736)"/><path class="cls-3" d="M465.072,106.2l2.211-.244a1.6,1.6,0,0,0,.423,1,1.254,1.254,0,0,0,.9.325,1.471,1.471,0,0,0,1.2-.65,5.537,5.537,0,0,0,.635-2.7,2.729,2.729,0,0,1-2.154,1,3.218,3.218,0,0,1-2.426-1.085,3.955,3.955,0,0,1-1.021-2.825,4.018,4.018,0,0,1,1.077-2.922,3.9,3.9,0,0,1,5.718.292q1.162,1.4,1.162,4.613,0,3.267-1.211,4.714a3.918,3.918,0,0,1-3.153,1.447,3.336,3.336,0,0,1-2.26-.744A3.594,3.594,0,0,1,465.072,106.2Zm5.169-4.991a2.6,2.6,0,0,0-.508-1.715,1.5,1.5,0,0,0-1.174-.61,1.317,1.317,0,0,0-1.053.5,2.549,2.549,0,0,0-.419,1.638,2.6,2.6,0,0,0,.455,1.695,1.457,1.457,0,0,0,2.248.021A2.272,2.272,0,0,0,470.241,101.207Z" transform="translate(-6.538 -14.736)"/><path class="cls-3" d="M474.33,106.2l2.211-.244a1.6,1.6,0,0,0,.423,1,1.254,1.254,0,0,0,.9.325,1.471,1.471,0,0,0,1.2-.65,5.537,5.537,0,0,0,.635-2.7,2.729,2.729,0,0,1-2.154,1,3.218,3.218,0,0,1-2.426-1.085,3.955,3.955,0,0,1-1.021-2.825A4.018,4.018,0,0,1,475.18,98.1a3.9,3.9,0,0,1,5.718.292q1.162,1.4,1.162,4.613,0,3.267-1.211,4.714a3.918,3.918,0,0,1-3.153,1.447,3.336,3.336,0,0,1-2.26-.744A3.594,3.594,0,0,1,474.33,106.2Zm5.169-4.991a2.6,2.6,0,0,0-.508-1.715,1.5,1.5,0,0,0-1.174-.61,1.317,1.317,0,0,0-1.053.5,2.549,2.549,0,0,0-.419,1.638,2.6,2.6,0,0,0,.455,1.695,1.457,1.457,0,0,0,2.248.021A2.272,2.272,0,0,0,479.5,101.207Z" transform="translate(-6.538 -14.736)"/><path class="cls-3" d="M487.4,96.988a3.256,3.256,0,0,1,2.706,1.235q1.163,1.463,1.162,4.853t-1.17,4.86a3.251,3.251,0,0,1-2.7,1.219,3.411,3.411,0,0,1-2.8-1.337q-1.065-1.337-1.064-4.767,0-3.365,1.17-4.844A3.252,3.252,0,0,1,487.4,96.988Zm0,1.894a1.144,1.144,0,0,0-.74.264,1.775,1.775,0,0,0-.5.947,19.388,19.388,0,0,0-.024,5.864,2.025,2.025,0,0,0,.532,1.044,1.169,1.169,0,0,0,1.476,0,1.773,1.773,0,0,0,.5-0.947,19.333,19.333,0,0,0,.024-5.856,2.055,2.055,0,0,0-.532-1.049A1.126,1.126,0,0,0,487.4,98.882Z" transform="translate(-6.538 -14.736)"/><path class="cls-3" d="M493.228,97.069h2.284V98.7a5.679,5.679,0,0,1-.171,1.565,2.335,2.335,0,0,1-.646,1.028,3.332,3.332,0,0,1-1.207.715l-0.447-.943a1.927,1.927,0,0,0,.983-0.625,1.881,1.881,0,0,0,.309-1.089h-1.105V97.069Z" transform="translate(-6.538 -14.736)"/><path class="cls-3" d="M496.487,106.49l2.292-.35a1.675,1.675,0,0,0,.593,1.012,2,2,0,0,0,1.252.345,2.262,2.262,0,0,0,1.333-.325,0.727,0.727,0,0,0,.3-0.61,0.6,0.6,0,0,0-.163-0.431,1.817,1.817,0,0,0-.764-0.3,12.291,12.291,0,0,1-3.5-1.114,2.224,2.224,0,0,1-1.024-1.942,2.394,2.394,0,0,1,.886-1.886,4.14,4.14,0,0,1,2.748-.764,4.791,4.791,0,0,1,2.633.577,2.952,2.952,0,0,1,1.187,1.707l-2.153.4a1.338,1.338,0,0,0-.524-0.772,1.92,1.92,0,0,0-1.1-.268,2.479,2.479,0,0,0-1.292.252,0.54,0.54,0,0,0-.261.463,0.506,0.506,0,0,0,.228.415,8.6,8.6,0,0,0,2.134.642,6.357,6.357,0,0,1,2.549,1.016,2.113,2.113,0,0,1,.715,1.7,2.611,2.611,0,0,1-.991,2.041,4.391,4.391,0,0,1-2.935.854,4.817,4.817,0,0,1-2.792-.715A3.294,3.294,0,0,1,496.487,106.49Z" transform="translate(-6.538 -14.736)"/><path class="cls-3" d="M166,26.7h-2.284V18.093a7.869,7.869,0,0,1-2.95,1.731V17.752a6.605,6.605,0,0,0,1.942-1.11,4.21,4.21,0,0,0,1.438-1.906H166V26.7Z" transform="translate(-6.538 -14.736)"/><path class="cls-3" d="M169.461,23.945l2.211-.244a1.6,1.6,0,0,0,.422,1,1.255,1.255,0,0,0,.9.325,1.472,1.472,0,0,0,1.2-.65,5.539,5.539,0,0,0,.634-2.7,2.727,2.727,0,0,1-2.154,1,3.22,3.22,0,0,1-2.426-1.085,3.957,3.957,0,0,1-1.02-2.825,4.016,4.016,0,0,1,1.077-2.922,3.9,3.9,0,0,1,5.718.292q1.162,1.4,1.163,4.613,0,3.267-1.211,4.714a3.917,3.917,0,0,1-3.153,1.447,3.337,3.337,0,0,1-2.26-.744A3.592,3.592,0,0,1,169.461,23.945Zm5.169-4.991a2.607,2.607,0,0,0-.508-1.715,1.5,1.5,0,0,0-1.175-.61,1.316,1.316,0,0,0-1.052.5,2.549,2.549,0,0,0-.419,1.638,2.6,2.6,0,0,0,.455,1.695A1.428,1.428,0,0,0,173.07,21a1.413,1.413,0,0,0,1.109-.52A2.272,2.272,0,0,0,174.63,18.955Z" transform="translate(-6.538 -14.736)"/><path class="cls-3" d="M186.408,17.7l-2.21.244a1.613,1.613,0,0,0-.423-1.008,1.231,1.231,0,0,0-.886-0.325,1.5,1.5,0,0,0-1.224.65,5.483,5.483,0,0,0-.63,2.707,2.671,2.671,0,0,1,2.122-1.008,3.24,3.24,0,0,1,2.451,1.089,3.949,3.949,0,0,1,1.02,2.812,4.033,4.033,0,0,1-1.073,2.934,3.907,3.907,0,0,1-5.722-.3q-1.163-1.4-1.163-4.6,0-3.275,1.211-4.722a3.91,3.91,0,0,1,3.146-1.447,3.34,3.34,0,0,1,2.247.76A3.564,3.564,0,0,1,186.408,17.7Zm-5.177,4.982a2.587,2.587,0,0,0,.512,1.719,1.508,1.508,0,0,0,1.17.606,1.332,1.332,0,0,0,1.057-.5,2.5,2.5,0,0,0,.423-1.625,2.618,2.618,0,0,0-.455-1.7,1.464,1.464,0,0,0-2.251-.024A2.24,2.24,0,0,0,181.23,22.686Z" transform="translate(-6.538 -14.736)"/><path class="cls-3" d="M191.789,14.736a3.255,3.255,0,0,1,2.707,1.235q1.162,1.463,1.163,4.853t-1.17,4.86a3.251,3.251,0,0,1-2.7,1.219,3.411,3.411,0,0,1-2.8-1.337q-1.065-1.337-1.064-4.767,0-3.365,1.17-4.844A3.249,3.249,0,0,1,191.789,14.736Zm0,1.894a1.143,1.143,0,0,0-.74.264,1.775,1.775,0,0,0-.5.947,13.059,13.059,0,0,0-.235,2.983,12.988,12.988,0,0,0,.211,2.881,2.025,2.025,0,0,0,.533,1.044,1.168,1.168,0,0,0,1.475,0,1.773,1.773,0,0,0,.5-0.947,12.935,12.935,0,0,0,.236-2.975,12.98,12.98,0,0,0-.211-2.881,2.059,2.059,0,0,0-.532-1.049A1.128,1.128,0,0,0,191.789,16.63Z" transform="translate(-6.538 -14.736)"/><path class="cls-3" d="M197.616,14.817H199.9v1.634a5.7,5.7,0,0,1-.171,1.565,2.336,2.336,0,0,1-.646,1.028,3.324,3.324,0,0,1-1.207.715l-0.447-.943a1.925,1.925,0,0,0,.983-0.625,1.885,1.885,0,0,0,.309-1.089h-1.105V14.817Z" transform="translate(-6.538 -14.736)"/><path class="cls-3" d="M200.876,24.238l2.292-.35a1.681,1.681,0,0,0,.593,1.012,2,2,0,0,0,1.252.345,2.265,2.265,0,0,0,1.333-.325,0.727,0.727,0,0,0,.3-0.61,0.6,0.6,0,0,0-.163-0.431,1.823,1.823,0,0,0-.764-0.3,12.291,12.291,0,0,1-3.5-1.114,2.223,2.223,0,0,1-1.024-1.942,2.394,2.394,0,0,1,.886-1.886,4.137,4.137,0,0,1,2.747-.764,4.792,4.792,0,0,1,2.633.577,2.952,2.952,0,0,1,1.187,1.707l-2.154.4a1.33,1.33,0,0,0-.524-0.772,1.918,1.918,0,0,0-1.1-.268,2.479,2.479,0,0,0-1.292.252,0.54,0.54,0,0,0-.26.463,0.5,0.5,0,0,0,.228.415,8.587,8.587,0,0,0,2.134.642,6.355,6.355,0,0,1,2.548,1.016,2.114,2.114,0,0,1,.715,1.7,2.608,2.608,0,0,1-.992,2.041,4.39,4.39,0,0,1-2.934.854,4.817,4.817,0,0,1-2.792-.715A3.3,3.3,0,0,1,200.876,24.238Z" transform="translate(-6.538 -14.736)"/><path class="cls-3" d="M373.063,26.7h-2.283V18.093a7.873,7.873,0,0,1-2.951,1.731V17.752a6.6,6.6,0,0,0,1.943-1.11,4.224,4.224,0,0,0,1.438-1.906h1.853V26.7Z" transform="translate(-6.538 -14.736)"/><path class="cls-3" d="M376.525,23.945l2.211-.244a1.6,1.6,0,0,0,.423,1,1.254,1.254,0,0,0,.9.325,1.471,1.471,0,0,0,1.2-.65,5.537,5.537,0,0,0,.635-2.7,2.729,2.729,0,0,1-2.154,1,3.218,3.218,0,0,1-2.426-1.085,3.955,3.955,0,0,1-1.021-2.825,4.018,4.018,0,0,1,1.077-2.922,3.9,3.9,0,0,1,5.718.292q1.162,1.4,1.162,4.613,0,3.267-1.211,4.714a3.918,3.918,0,0,1-3.153,1.447,3.336,3.336,0,0,1-2.26-.744A3.594,3.594,0,0,1,376.525,23.945Zm5.169-4.991a2.6,2.6,0,0,0-.508-1.715,1.5,1.5,0,0,0-1.174-.61,1.317,1.317,0,0,0-1.053.5,2.549,2.549,0,0,0-.419,1.638A2.6,2.6,0,0,0,379,20.462a1.457,1.457,0,0,0,2.248.021A2.272,2.272,0,0,0,381.694,18.955Z" transform="translate(-6.538 -14.736)"/><path class="cls-3" d="M387.693,20.271A2.558,2.558,0,0,1,386,17.809a2.883,2.883,0,0,1,.931-2.2,4.447,4.447,0,0,1,5.283,0,2.872,2.872,0,0,1,.938,2.2,2.6,2.6,0,0,1-.431,1.475,2.727,2.727,0,0,1-1.211.988,3.2,3.2,0,0,1,1.508,1.162,3.08,3.08,0,0,1,.516,1.764,3.589,3.589,0,0,1-1.053,2.682,3.825,3.825,0,0,1-2.8,1.032,4.23,4.23,0,0,1-2.706-.854,3.328,3.328,0,0,1-1.276-2.764,3.412,3.412,0,0,1,.479-1.776A3.085,3.085,0,0,1,387.693,20.271Zm0.26,2.8a2.1,2.1,0,0,0,.484,1.471,1.568,1.568,0,0,0,1.206.528,1.516,1.516,0,0,0,1.171-.508,2.1,2.1,0,0,0,.463-1.467,1.9,1.9,0,0,0-.471-1.345,1.56,1.56,0,0,0-1.2-.508,1.429,1.429,0,0,0-1.247.577A2.112,2.112,0,0,0,387.953,23.076Zm0.212-5.1a1.43,1.43,0,0,0,.386,1.065,1.585,1.585,0,0,0,2.068,0,1.433,1.433,0,0,0,.391-1.069,1.329,1.329,0,0,0-1.406-1.414,1.417,1.417,0,0,0-1.049.39A1.4,1.4,0,0,0,388.165,17.971Z" transform="translate(-6.538 -14.736)"/><path class="cls-3" d="M398.854,14.736a3.256,3.256,0,0,1,2.706,1.235q1.163,1.463,1.162,4.853t-1.17,4.86a3.251,3.251,0,0,1-2.7,1.219,3.411,3.411,0,0,1-2.8-1.337q-1.065-1.337-1.064-4.767,0-3.365,1.17-4.844A3.252,3.252,0,0,1,398.854,14.736Zm0,1.894a1.144,1.144,0,0,0-.74.264,1.775,1.775,0,0,0-.5.947,13.059,13.059,0,0,0-.235,2.983,12.988,12.988,0,0,0,.211,2.881,2.025,2.025,0,0,0,.532,1.044,1.169,1.169,0,0,0,1.476,0,1.773,1.773,0,0,0,.5-0.947,12.942,12.942,0,0,0,.235-2.975,12.988,12.988,0,0,0-.211-2.881,2.055,2.055,0,0,0-.532-1.049A1.126,1.126,0,0,0,398.854,16.63Z" transform="translate(-6.538 -14.736)"/><path class="cls-3" d="M404.681,14.817h2.284v1.634a5.679,5.679,0,0,1-.171,1.565,2.335,2.335,0,0,1-.646,1.028,3.332,3.332,0,0,1-1.207.715l-0.447-.943a1.927,1.927,0,0,0,.983-0.625,1.881,1.881,0,0,0,.309-1.089h-1.105V14.817Z" transform="translate(-6.538 -14.736)"/><path class="cls-3" d="M407.94,24.238l2.292-.35a1.675,1.675,0,0,0,.593,1.012,2,2,0,0,0,1.252.345,2.262,2.262,0,0,0,1.333-.325,0.727,0.727,0,0,0,.3-0.61,0.6,0.6,0,0,0-.163-0.431,1.817,1.817,0,0,0-.764-0.3,12.291,12.291,0,0,1-3.5-1.114,2.224,2.224,0,0,1-1.024-1.942,2.394,2.394,0,0,1,.886-1.886,4.14,4.14,0,0,1,2.748-.764,4.791,4.791,0,0,1,2.633.577,2.952,2.952,0,0,1,1.187,1.707l-2.153.4a1.338,1.338,0,0,0-.524-0.772,1.92,1.92,0,0,0-1.1-.268,2.479,2.479,0,0,0-1.292.252,0.54,0.54,0,0,0-.261.463,0.506,0.506,0,0,0,.228.415,8.6,8.6,0,0,0,2.134.642,6.357,6.357,0,0,1,2.549,1.016A2.113,2.113,0,0,1,416,24a2.611,2.611,0,0,1-.991,2.041,4.391,4.391,0,0,1-2.935.854,4.817,4.817,0,0,1-2.792-.715A3.294,3.294,0,0,1,407.94,24.238Z" transform="translate(-6.538 -14.736)"/><path class="cls-3" d="M558.981,24.579V26.7h-8.007a5.529,5.529,0,0,1,.78-2.28,15.156,15.156,0,0,1,2.569-2.857,16.234,16.234,0,0,0,1.894-1.951,2.513,2.513,0,0,0,.472-1.4,1.591,1.591,0,0,0-.411-1.174,1.743,1.743,0,0,0-2.271.021,2.207,2.207,0,0,0-.487,1.43l-2.276-.228a3.731,3.731,0,0,1,1.276-2.707,4.283,4.283,0,0,1,2.682-.821,3.877,3.877,0,0,1,2.772.951,3.119,3.119,0,0,1,1.008,2.365,4.116,4.116,0,0,1-.289,1.532,6.225,6.225,0,0,1-.914,1.524,14.574,14.574,0,0,1-1.5,1.52q-1.081.992-1.369,1.317a3.958,3.958,0,0,0-.468.634h4.536Z" transform="translate(-6.538 -14.736)"/><path class="cls-3" d="M564.387,14.736a3.256,3.256,0,0,1,2.706,1.235q1.163,1.463,1.162,4.853t-1.17,4.86a3.251,3.251,0,0,1-2.7,1.219,3.411,3.411,0,0,1-2.8-1.337q-1.065-1.337-1.064-4.767,0-3.365,1.17-4.844A3.252,3.252,0,0,1,564.387,14.736Zm0,1.894a1.144,1.144,0,0,0-.74.264,1.775,1.775,0,0,0-.5.947,13.059,13.059,0,0,0-.235,2.983,12.988,12.988,0,0,0,.211,2.881,2.025,2.025,0,0,0,.532,1.044,1.169,1.169,0,0,0,1.476,0,1.773,1.773,0,0,0,.5-0.947,12.942,12.942,0,0,0,.235-2.975,12.988,12.988,0,0,0-.211-2.881,2.055,2.055,0,0,0-.532-1.049A1.126,1.126,0,0,0,564.387,16.63Z" transform="translate(-6.538 -14.736)"/><path class="cls-3" d="M573.645,14.736a3.256,3.256,0,0,1,2.706,1.235q1.163,1.463,1.162,4.853t-1.17,4.86a3.251,3.251,0,0,1-2.7,1.219,3.411,3.411,0,0,1-2.8-1.337q-1.065-1.337-1.064-4.767,0-3.365,1.17-4.844A3.252,3.252,0,0,1,573.645,14.736Zm0,1.894a1.144,1.144,0,0,0-.74.264,1.775,1.775,0,0,0-.5.947,13.059,13.059,0,0,0-.235,2.983,12.988,12.988,0,0,0,.211,2.881,2.025,2.025,0,0,0,.532,1.044,1.169,1.169,0,0,0,1.476,0,1.773,1.773,0,0,0,.5-0.947,12.942,12.942,0,0,0,.235-2.975,12.988,12.988,0,0,0-.211-2.881,2.055,2.055,0,0,0-.532-1.049A1.126,1.126,0,0,0,573.645,16.63Z" transform="translate(-6.538 -14.736)"/><path class="cls-3" d="M582.9,14.736a3.256,3.256,0,0,1,2.706,1.235q1.163,1.463,1.162,4.853t-1.17,4.86a3.251,3.251,0,0,1-2.7,1.219,3.411,3.411,0,0,1-2.8-1.337q-1.065-1.337-1.064-4.767,0-3.365,1.17-4.844A3.252,3.252,0,0,1,582.9,14.736Zm0,1.894a1.144,1.144,0,0,0-.74.264,1.775,1.775,0,0,0-.5.947,13.059,13.059,0,0,0-.235,2.983,12.988,12.988,0,0,0,.211,2.881,2.025,2.025,0,0,0,.532,1.044,1.169,1.169,0,0,0,1.476,0,1.773,1.773,0,0,0,.5-0.947,12.942,12.942,0,0,0,.235-2.975,12.988,12.988,0,0,0-.211-2.881,2.055,2.055,0,0,0-.532-1.049A1.126,1.126,0,0,0,582.9,16.63Z" transform="translate(-6.538 -14.736)"/><path class="cls-3" d="M588.729,14.817h2.284v1.634a5.679,5.679,0,0,1-.171,1.565,2.335,2.335,0,0,1-.646,1.028,3.332,3.332,0,0,1-1.207.715l-0.447-.943a1.927,1.927,0,0,0,.983-0.625,1.881,1.881,0,0,0,.309-1.089h-1.105V14.817Z" transform="translate(-6.538 -14.736)"/><path class="cls-3" d="M591.989,24.238l2.292-.35a1.675,1.675,0,0,0,.593,1.012,2,2,0,0,0,1.252.345,2.262,2.262,0,0,0,1.333-.325,0.727,0.727,0,0,0,.3-0.61,0.6,0.6,0,0,0-.163-0.431,1.817,1.817,0,0,0-.764-0.3,12.291,12.291,0,0,1-3.5-1.114,2.224,2.224,0,0,1-1.024-1.942,2.394,2.394,0,0,1,.886-1.886,4.14,4.14,0,0,1,2.748-.764,4.791,4.791,0,0,1,2.633.577,2.952,2.952,0,0,1,1.187,1.707l-2.153.4a1.338,1.338,0,0,0-.524-0.772,1.92,1.92,0,0,0-1.1-.268,2.479,2.479,0,0,0-1.292.252,0.54,0.54,0,0,0-.261.463,0.506,0.506,0,0,0,.228.415,8.6,8.6,0,0,0,2.134.642,6.357,6.357,0,0,1,2.549,1.016,2.113,2.113,0,0,1,.715,1.7,2.611,2.611,0,0,1-.991,2.041,4.391,4.391,0,0,1-2.935.854,4.817,4.817,0,0,1-2.792-.715A3.294,3.294,0,0,1,591.989,24.238Z" transform="translate(-6.538 -14.736)"/><path class="cls-4" d="M77.326,73.164v-3.1H74.205V67.929h3.121v-3.1h2.081v3.1h3.129v2.138H79.407v3.1H77.326Z" transform="translate(-6.538 -14.736)"/><path class="cls-4" d="M183.547,51.728v-3.1h-3.121V46.494h3.121V43.4h2.081v3.1h3.129v2.138h-3.129v3.1h-2.081Z" transform="translate(-6.538 -14.736)"/><path class="cls-4" d="M297.438,73.164v-3.1h-3.122V67.929h3.122v-3.1h2.08v3.1h3.13v2.138h-3.13v3.1h-2.08Z" transform="translate(-6.538 -14.736)"/><path class="cls-4" d="M390.611,52.089v-3.1h-3.122V46.855h3.122v-3.1h2.08v3.1h3.13v2.138h-3.13v3.1h-2.08Z" transform="translate(-6.538 -14.736)"/><path class="cls-4" d="M479.158,72.7V69.6h-3.122V67.467h3.122v-3.1h2.08v3.1h3.13V69.6h-3.13v3.1h-2.08Z" transform="translate(-6.538 -14.736)"/><path class="cls-4" d="M574.658,52.089v-3.1h-3.122V46.855h3.122v-3.1h2.08v3.1h3.13v2.138h-3.13v3.1h-2.08Z" transform="translate(-6.538 -14.736)"/></svg>