<svg id="Layer_1" data-name="Layer 1" xmlns="http://www.w3.org/2000/svg" viewBox="0 0 576 264.864"><defs><style>.cls-1{fill:#e2d8a8;}.cls-2{fill:#231f20;}.cls-3{fill:#546eb4;}.cls-4{fill:#fff;}</style></defs><title>Correlation_Between_Indices</title><rect class="cls-1" y="24.838" width="576" height="240.025"/><path class="cls-2" d="M29.723,42.478l1.728,0.437A5.817,5.817,0,0,1,29.5,46.16a5.388,5.388,0,0,1-3.451,1.118,6.2,6.2,0,0,1-3.433-.859A5.364,5.364,0,0,1,20.6,43.929a8.875,8.875,0,0,1-.69-3.5,7.692,7.692,0,0,1,.779-3.558,5.339,5.339,0,0,1,2.218-2.307,6.479,6.479,0,0,1,3.166-.788,5.351,5.351,0,0,1,3.295,1,5.182,5.182,0,0,1,1.861,2.805l-1.7.4a4.036,4.036,0,0,0-1.318-2.075,3.512,3.512,0,0,0-2.173-.65,4.221,4.221,0,0,0-2.516.722,3.808,3.808,0,0,0-1.42,1.937,7.8,7.8,0,0,0-.41,2.507,7.963,7.963,0,0,0,.485,2.908,3.616,3.616,0,0,0,1.51,1.857A4.232,4.232,0,0,0,25.9,45.8a3.716,3.716,0,0,0,2.458-.837A4.286,4.286,0,0,0,29.723,42.478Z" transform="translate(-19 -33.777)"/><path class="cls-2" d="M32.777,42.326a4.874,4.874,0,0,1,1.46-3.892,4.4,4.4,0,0,1,2.975-1.051A4.244,4.244,0,0,1,40.4,38.662a4.862,4.862,0,0,1,1.238,3.531,6.257,6.257,0,0,1-.548,2.872A3.875,3.875,0,0,1,39.5,46.69a4.642,4.642,0,0,1-2.284.579A4.251,4.251,0,0,1,34,46,5.087,5.087,0,0,1,32.777,42.326Zm1.647,0a4.026,4.026,0,0,0,.793,2.721,2.639,2.639,0,0,0,3.98,0,4.121,4.121,0,0,0,.793-2.77,3.909,3.909,0,0,0-.8-2.659,2.643,2.643,0,0,0-3.976,0A4.01,4.01,0,0,0,34.424,42.326Z" transform="translate(-19 -33.777)"/><path class="cls-2" d="M43.5,47.055V37.6h1.442v1.434a3.912,3.912,0,0,1,1.02-1.327,1.777,1.777,0,0,1,1.028-.32,3.128,3.128,0,0,1,1.648.516l-0.552,1.487a2.3,2.3,0,0,0-1.176-.347,1.528,1.528,0,0,0-.944.316,1.712,1.712,0,0,0-.6.877A6.24,6.24,0,0,0,45.1,42.1v4.952H43.5Z" transform="translate(-19 -33.777)"/><path class="cls-2" d="M49.573,47.055V37.6h1.442v1.434a3.912,3.912,0,0,1,1.02-1.327,1.777,1.777,0,0,1,1.028-.32,3.128,3.128,0,0,1,1.648.516L54.16,39.387a2.3,2.3,0,0,0-1.176-.347,1.528,1.528,0,0,0-.944.316,1.712,1.712,0,0,0-.6.877,6.24,6.24,0,0,0-.267,1.87v4.952h-1.6Z" transform="translate(-19 -33.777)"/><path class="cls-2" d="M62.139,44.009L63.8,44.214a4.04,4.04,0,0,1-1.452,2.253,4.916,4.916,0,0,1-6-.477,4.992,4.992,0,0,1-1.216-3.584,5.226,5.226,0,0,1,1.229-3.7,4.16,4.16,0,0,1,3.188-1.318,4.045,4.045,0,0,1,3.1,1.291,5.132,5.132,0,0,1,1.2,3.634q0,0.142-.009.427H56.787a3.636,3.636,0,0,0,.882,2.387,2.624,2.624,0,0,0,1.977.828,2.453,2.453,0,0,0,1.5-.463A3.077,3.077,0,0,0,62.139,44.009Zm-5.263-2.591h5.281a3.2,3.2,0,0,0-.605-1.79,2.456,2.456,0,0,0-1.986-.926,2.547,2.547,0,0,0-1.857.739A2.923,2.923,0,0,0,56.876,41.418Z" transform="translate(-19 -33.777)"/><path class="cls-2" d="M65.772,47.055V34h1.6V47.055h-1.6Z" transform="translate(-19 -33.777)"/><path class="cls-2" d="M76.032,45.889a5.972,5.972,0,0,1-1.714,1.068,4.951,4.951,0,0,1-1.768.312,3.437,3.437,0,0,1-2.4-.762,2.513,2.513,0,0,1-.837-1.946,2.586,2.586,0,0,1,.316-1.269,2.624,2.624,0,0,1,.828-0.922,3.909,3.909,0,0,1,1.153-.525,11.48,11.48,0,0,1,1.425-.24,14.633,14.633,0,0,0,2.858-.552q0.009-.33.009-0.418a1.77,1.77,0,0,0-.454-1.38,2.682,2.682,0,0,0-1.826-.543,2.829,2.829,0,0,0-1.669.4,2.422,2.422,0,0,0-.8,1.4L69.593,40.3a3.884,3.884,0,0,1,.7-1.625,3.083,3.083,0,0,1,1.416-.953,6.313,6.313,0,0,1,2.146-.334,5.68,5.68,0,0,1,1.968.285,2.6,2.6,0,0,1,1.113.717,2.528,2.528,0,0,1,.5,1.091,9.047,9.047,0,0,1,.08,1.478v2.138a22.8,22.8,0,0,0,.1,2.828,3.577,3.577,0,0,0,.405,1.135H76.353A3.4,3.4,0,0,1,76.032,45.889ZM75.9,42.309a11.763,11.763,0,0,1-2.618.605,6.05,6.05,0,0,0-1.4.321,1.393,1.393,0,0,0-.632.521,1.418,1.418,0,0,0,.263,1.831,2.089,2.089,0,0,0,1.42.427,3.3,3.3,0,0,0,1.647-.405A2.493,2.493,0,0,0,75.64,44.5a3.866,3.866,0,0,0,.258-1.6V42.309Z" transform="translate(-19 -33.777)"/><path class="cls-2" d="M83.5,45.622l0.231,1.416a5.962,5.962,0,0,1-1.211.142,2.74,2.74,0,0,1-1.354-.276,1.546,1.546,0,0,1-.677-0.726,5.742,5.742,0,0,1-.2-1.892V38.844H79.123V37.6H80.3V35.255l1.594-.961v3.3H83.5v1.247H81.892v5.53a2.788,2.788,0,0,0,.084.882,0.669,0.669,0,0,0,.276.312,1.065,1.065,0,0,0,.547.116A5.215,5.215,0,0,0,83.5,45.622Z" transform="translate(-19 -33.777)"/><path class="cls-2" d="M85.08,35.843V34h1.6v1.843h-1.6Zm0,11.212V37.6h1.6v9.458h-1.6Z" transform="translate(-19 -33.777)"/><path class="cls-2" d="M88.527,42.326a4.874,4.874,0,0,1,1.46-3.892,4.4,4.4,0,0,1,2.975-1.051,4.244,4.244,0,0,1,3.188,1.278,4.862,4.862,0,0,1,1.238,3.531,6.257,6.257,0,0,1-.548,2.872,3.875,3.875,0,0,1-1.594,1.625,4.642,4.642,0,0,1-2.284.579A4.251,4.251,0,0,1,89.751,46,5.087,5.087,0,0,1,88.527,42.326Zm1.647,0a4.026,4.026,0,0,0,.793,2.721,2.639,2.639,0,0,0,3.98,0,4.121,4.121,0,0,0,.793-2.77,3.909,3.909,0,0,0-.8-2.659,2.643,2.643,0,0,0-3.976,0A4.01,4.01,0,0,0,90.174,42.326Z" transform="translate(-19 -33.777)"/><path class="cls-2" d="M99.267,47.055V37.6h1.443v1.345a3.4,3.4,0,0,1,3.01-1.558,3.945,3.945,0,0,1,1.572.307,2.478,2.478,0,0,1,1.073.806,3.1,3.1,0,0,1,.5,1.185,9.217,9.217,0,0,1,.089,1.559v5.815h-1.6V41.3a4.312,4.312,0,0,0-.187-1.465,1.541,1.541,0,0,0-.663-0.774,2.112,2.112,0,0,0-1.118-.29,2.6,2.6,0,0,0-1.768.65,3.208,3.208,0,0,0-.744,2.467v5.166h-1.6Z" transform="translate(-19 -33.777)"/><path class="cls-2" d="M113.881,42.326a4.874,4.874,0,0,1,1.46-3.892,4.4,4.4,0,0,1,2.975-1.051,4.244,4.244,0,0,1,3.188,1.278,4.862,4.862,0,0,1,1.238,3.531,6.257,6.257,0,0,1-.548,2.872A3.875,3.875,0,0,1,120.6,46.69a4.642,4.642,0,0,1-2.284.579A4.251,4.251,0,0,1,115.106,46,5.087,5.087,0,0,1,113.881,42.326Zm1.647,0a4.026,4.026,0,0,0,.793,2.721,2.639,2.639,0,0,0,3.98,0,4.121,4.121,0,0,0,.793-2.77,3.909,3.909,0,0,0-.8-2.659,2.643,2.643,0,0,0-3.976,0A4.01,4.01,0,0,0,115.529,42.326Z" transform="translate(-19 -33.777)"/><path class="cls-2" d="M125,47.055V38.844h-1.416V37.6H125V36.591a4.41,4.41,0,0,1,.169-1.416,2.048,2.048,0,0,1,.815-1.011,2.936,2.936,0,0,1,1.634-.387,7.842,7.842,0,0,1,1.5.16l-0.241,1.4a5.36,5.36,0,0,0-.944-0.089,1.4,1.4,0,0,0-1.033.312,1.69,1.69,0,0,0-.3,1.167V37.6h1.844v1.247H126.6v8.211H125Z" transform="translate(-19 -33.777)"/><path class="cls-2" d="M132.521,47.055L137.535,34H139.4l5.343,13.056h-1.968L141.249,43.1H135.79l-1.434,3.954h-1.834Zm3.767-5.361h4.426l-1.362-3.616q-0.624-1.647-.926-2.707a16.665,16.665,0,0,1-.7,2.493Z" transform="translate(-19 -33.777)"/><path class="cls-2" d="M145.274,44.232l1.585-.249a2.214,2.214,0,0,0,.744,1.46,2.591,2.591,0,0,0,1.705.507,2.5,2.5,0,0,0,1.639-.45,1.344,1.344,0,0,0,.535-1.055,0.974,0.974,0,0,0-.472-0.855,6.936,6.936,0,0,0-1.639-.543,14.952,14.952,0,0,1-2.445-.771,2.334,2.334,0,0,1-1.385-2.168,2.438,2.438,0,0,1,.29-1.171,2.6,2.6,0,0,1,.788-0.9,3.314,3.314,0,0,1,1.02-.467,4.841,4.841,0,0,1,1.385-.191,5.472,5.472,0,0,1,1.955.32,2.661,2.661,0,0,1,1.242.868,3.393,3.393,0,0,1,.552,1.465l-1.567.213a1.715,1.715,0,0,0-.619-1.14,2.267,2.267,0,0,0-1.447-.41,2.621,2.621,0,0,0-1.577.365,1.063,1.063,0,0,0-.472.855,0.884,0.884,0,0,0,.2.561,1.41,1.41,0,0,0,.615.427q0.24,0.089,1.416.41a19.717,19.717,0,0,1,2.373.744,2.4,2.4,0,0,1,1.055.842,2.348,2.348,0,0,1,.383,1.371,2.69,2.69,0,0,1-.468,1.51,3.019,3.019,0,0,1-1.349,1.1,4.911,4.911,0,0,1-1.995.388,4.444,4.444,0,0,1-2.81-.766A3.562,3.562,0,0,1,145.274,44.232Z" transform="translate(-19 -33.777)"/><path class="cls-2" d="M154.394,44.232l1.585-.249a2.214,2.214,0,0,0,.744,1.46,2.591,2.591,0,0,0,1.705.507,2.5,2.5,0,0,0,1.639-.45,1.344,1.344,0,0,0,.535-1.055,0.974,0.974,0,0,0-.472-0.855,6.936,6.936,0,0,0-1.639-.543,14.952,14.952,0,0,1-2.445-.771,2.334,2.334,0,0,1-1.385-2.168,2.438,2.438,0,0,1,.29-1.171,2.6,2.6,0,0,1,.788-0.9,3.314,3.314,0,0,1,1.02-.467,4.841,4.841,0,0,1,1.385-.191,5.472,5.472,0,0,1,1.955.32,2.661,2.661,0,0,1,1.242.868,3.393,3.393,0,0,1,.552,1.465l-1.567.213a1.715,1.715,0,0,0-.619-1.14,2.267,2.267,0,0,0-1.447-.41,2.621,2.621,0,0,0-1.577.365,1.063,1.063,0,0,0-.472.855,0.884,0.884,0,0,0,.2.561,1.41,1.41,0,0,0,.615.427q0.24,0.089,1.416.41a19.717,19.717,0,0,1,2.373.744,2.4,2.4,0,0,1,1.055.842,2.348,2.348,0,0,1,.383,1.371,2.69,2.69,0,0,1-.468,1.51,3.019,3.019,0,0,1-1.349,1.1,4.911,4.911,0,0,1-1.995.388,4.444,4.444,0,0,1-2.81-.766A3.562,3.562,0,0,1,154.394,44.232Z" transform="translate(-19 -33.777)"/><path class="cls-2" d="M170.629,44.009l1.656,0.205a4.04,4.04,0,0,1-1.452,2.253,4.916,4.916,0,0,1-6-.477,4.992,4.992,0,0,1-1.216-3.584,5.226,5.226,0,0,1,1.229-3.7,4.16,4.16,0,0,1,3.188-1.318,4.045,4.045,0,0,1,3.1,1.291,5.132,5.132,0,0,1,1.2,3.634q0,0.142-.009.427h-7.054a3.636,3.636,0,0,0,.882,2.387,2.624,2.624,0,0,0,1.977.828,2.453,2.453,0,0,0,1.5-.463A3.077,3.077,0,0,0,170.629,44.009Zm-5.263-2.591h5.281a3.2,3.2,0,0,0-.605-1.79,2.456,2.456,0,0,0-1.986-.926,2.547,2.547,0,0,0-1.857.739A2.923,2.923,0,0,0,165.366,41.418Z" transform="translate(-19 -33.777)"/><path class="cls-2" d="M177.8,45.622l0.231,1.416a5.962,5.962,0,0,1-1.211.142,2.74,2.74,0,0,1-1.354-.276,1.546,1.546,0,0,1-.677-0.726,5.742,5.742,0,0,1-.2-1.892V38.844h-1.175V37.6h1.175V35.255l1.594-.961v3.3H177.8v1.247h-1.612v5.53a2.788,2.788,0,0,0,.084.882,0.669,0.669,0,0,0,.276.312,1.065,1.065,0,0,0,.547.116A5.215,5.215,0,0,0,177.8,45.622Z" transform="translate(-19 -33.777)"/><path class="cls-2" d="M193.953,42.478l1.728,0.437a5.817,5.817,0,0,1-1.955,3.246,5.388,5.388,0,0,1-3.451,1.118,6.2,6.2,0,0,1-3.433-.859,5.364,5.364,0,0,1-2.013-2.489,8.875,8.875,0,0,1-.69-3.5,7.692,7.692,0,0,1,.779-3.558,5.339,5.339,0,0,1,2.218-2.307,6.479,6.479,0,0,1,3.166-.788,5.351,5.351,0,0,1,3.295,1,5.182,5.182,0,0,1,1.861,2.805l-1.7.4a4.036,4.036,0,0,0-1.318-2.075,3.512,3.512,0,0,0-2.173-.65,4.221,4.221,0,0,0-2.516.722,3.808,3.808,0,0,0-1.42,1.937,7.8,7.8,0,0,0-.41,2.507,7.963,7.963,0,0,0,.485,2.908,3.616,3.616,0,0,0,1.51,1.857,4.232,4.232,0,0,0,2.217.614,3.716,3.716,0,0,0,2.458-.837A4.286,4.286,0,0,0,193.953,42.478Z" transform="translate(-19 -33.777)"/><path class="cls-2" d="M197.568,47.055V34h1.6V47.055h-1.6Z" transform="translate(-19 -33.777)"/><path class="cls-2" d="M207.828,45.889a5.972,5.972,0,0,1-1.714,1.068,4.951,4.951,0,0,1-1.768.312,3.437,3.437,0,0,1-2.4-.762,2.513,2.513,0,0,1-.837-1.946,2.586,2.586,0,0,1,.316-1.269,2.624,2.624,0,0,1,.828-0.922,3.909,3.909,0,0,1,1.153-.525,11.48,11.48,0,0,1,1.425-.24,14.633,14.633,0,0,0,2.858-.552q0.009-.33.009-0.418a1.77,1.77,0,0,0-.454-1.38,2.682,2.682,0,0,0-1.826-.543,2.829,2.829,0,0,0-1.669.4,2.422,2.422,0,0,0-.8,1.4l-1.567-.213a3.884,3.884,0,0,1,.7-1.625,3.083,3.083,0,0,1,1.416-.953,6.313,6.313,0,0,1,2.146-.334,5.68,5.68,0,0,1,1.968.285,2.6,2.6,0,0,1,1.113.717,2.528,2.528,0,0,1,.5,1.091,9.047,9.047,0,0,1,.08,1.478v2.138a22.8,22.8,0,0,0,.1,2.828,3.577,3.577,0,0,0,.405,1.135h-1.674A3.4,3.4,0,0,1,207.828,45.889Zm-0.134-3.58a11.763,11.763,0,0,1-2.618.605,6.05,6.05,0,0,0-1.4.321,1.393,1.393,0,0,0-.632.521,1.418,1.418,0,0,0,.263,1.831,2.089,2.089,0,0,0,1.42.427,3.3,3.3,0,0,0,1.647-.405,2.493,2.493,0,0,0,1.06-1.109,3.866,3.866,0,0,0,.258-1.6V42.309Z" transform="translate(-19 -33.777)"/><path class="cls-2" d="M211.159,44.232l1.585-.249a2.214,2.214,0,0,0,.744,1.46,2.591,2.591,0,0,0,1.705.507,2.5,2.5,0,0,0,1.639-.45,1.344,1.344,0,0,0,.535-1.055,0.974,0.974,0,0,0-.472-0.855,6.936,6.936,0,0,0-1.639-.543,14.952,14.952,0,0,1-2.445-.771,2.334,2.334,0,0,1-1.385-2.168,2.438,2.438,0,0,1,.29-1.171,2.6,2.6,0,0,1,.788-0.9,3.314,3.314,0,0,1,1.02-.467,4.841,4.841,0,0,1,1.385-.191,5.472,5.472,0,0,1,1.955.32,2.661,2.661,0,0,1,1.242.868,3.393,3.393,0,0,1,.552,1.465l-1.567.213a1.715,1.715,0,0,0-.619-1.14,2.267,2.267,0,0,0-1.447-.41,2.621,2.621,0,0,0-1.577.365,1.063,1.063,0,0,0-.472.855,0.884,0.884,0,0,0,.2.561,1.41,1.41,0,0,0,.615.427q0.24,0.089,1.416.41a19.717,19.717,0,0,1,2.373.744,2.4,2.4,0,0,1,1.055.842,2.348,2.348,0,0,1,.383,1.371,2.69,2.69,0,0,1-.468,1.51,3.019,3.019,0,0,1-1.349,1.1,4.911,4.911,0,0,1-1.995.388,4.444,4.444,0,0,1-2.81-.766A3.562,3.562,0,0,1,211.159,44.232Z" transform="translate(-19 -33.777)"/><path class="cls-2" d="M220.278,44.232l1.585-.249a2.214,2.214,0,0,0,.744,1.46,2.591,2.591,0,0,0,1.705.507,2.5,2.5,0,0,0,1.639-.45,1.344,1.344,0,0,0,.535-1.055,0.974,0.974,0,0,0-.472-0.855,6.936,6.936,0,0,0-1.639-.543,14.952,14.952,0,0,1-2.445-.771,2.334,2.334,0,0,1-1.385-2.168,2.438,2.438,0,0,1,.29-1.171,2.6,2.6,0,0,1,.788-0.9,3.314,3.314,0,0,1,1.02-.467,4.841,4.841,0,0,1,1.385-.191,5.472,5.472,0,0,1,1.955.32,2.661,2.661,0,0,1,1.242.868,3.393,3.393,0,0,1,.552,1.465l-1.567.213a1.715,1.715,0,0,0-.619-1.14,2.267,2.267,0,0,0-1.447-.41,2.621,2.621,0,0,0-1.577.365,1.063,1.063,0,0,0-.472.855,0.884,0.884,0,0,0,.2.561,1.41,1.41,0,0,0,.615.427q0.24,0.089,1.416.41a19.717,19.717,0,0,1,2.373.744,2.4,2.4,0,0,1,1.055.842,2.348,2.348,0,0,1,.383,1.371,2.69,2.69,0,0,1-.468,1.51,3.019,3.019,0,0,1-1.349,1.1,4.911,4.911,0,0,1-1.995.388,4.444,4.444,0,0,1-2.81-.766A3.562,3.562,0,0,1,220.278,44.232Z" transform="translate(-19 -33.777)"/><path class="cls-2" d="M236.514,44.009l1.656,0.205a4.04,4.04,0,0,1-1.452,2.253,4.916,4.916,0,0,1-6-.477,4.992,4.992,0,0,1-1.216-3.584,5.226,5.226,0,0,1,1.229-3.7,4.16,4.16,0,0,1,3.188-1.318,4.045,4.045,0,0,1,3.1,1.291,5.132,5.132,0,0,1,1.2,3.634q0,0.142-.009.427h-7.054a3.636,3.636,0,0,0,.882,2.387,2.624,2.624,0,0,0,1.977.828,2.453,2.453,0,0,0,1.5-.463A3.077,3.077,0,0,0,236.514,44.009Zm-5.263-2.591h5.281a3.2,3.2,0,0,0-.605-1.79,2.456,2.456,0,0,0-1.986-.926,2.547,2.547,0,0,0-1.857.739A2.923,2.923,0,0,0,231.25,41.418Z" transform="translate(-19 -33.777)"/><path class="cls-2" d="M239.542,44.232l1.585-.249a2.214,2.214,0,0,0,.744,1.46,2.591,2.591,0,0,0,1.705.507,2.5,2.5,0,0,0,1.639-.45,1.344,1.344,0,0,0,.535-1.055,0.974,0.974,0,0,0-.472-0.855,6.936,6.936,0,0,0-1.639-.543,14.952,14.952,0,0,1-2.445-.771,2.334,2.334,0,0,1-1.385-2.168,2.438,2.438,0,0,1,.29-1.171,2.6,2.6,0,0,1,.788-0.9,3.314,3.314,0,0,1,1.02-.467,4.841,4.841,0,0,1,1.385-.191,5.472,5.472,0,0,1,1.955.32,2.661,2.661,0,0,1,1.242.868,3.393,3.393,0,0,1,.552,1.465l-1.567.213a1.715,1.715,0,0,0-.619-1.14,2.267,2.267,0,0,0-1.447-.41,2.621,2.621,0,0,0-1.577.365,1.063,1.063,0,0,0-.472.855,0.884,0.884,0,0,0,.2.561,1.41,1.41,0,0,0,.615.427q0.24,0.089,1.416.41a19.717,19.717,0,0,1,2.373.744,2.4,2.4,0,0,1,1.055.842,2.348,2.348,0,0,1,.383,1.371,2.69,2.69,0,0,1-.468,1.51,3.019,3.019,0,0,1-1.349,1.1,4.911,4.911,0,0,1-1.995.388,4.444,4.444,0,0,1-2.81-.766A3.562,3.562,0,0,1,239.542,44.232Z" transform="translate(-19 -33.777)"/><path class="cls-2" d="M257.433,50.894a16.032,16.032,0,0,1-2.244-3.918,12.3,12.3,0,0,1-.231-8.71,17.065,17.065,0,0,1,2.476-4.488h1.149q-1.077,1.852-1.425,2.645a14.456,14.456,0,0,0-.855,2.565,14.887,14.887,0,0,0-.383,3.348,16.069,16.069,0,0,0,2.663,8.559h-1.149Z" transform="translate(-19 -33.777)"/><path class="cls-2" d="M266.036,47.055h-1.6V36.84a8.289,8.289,0,0,1-1.518,1.1,10.753,10.753,0,0,1-1.688.828v-1.55a9.678,9.678,0,0,0,2.351-1.532A6.026,6.026,0,0,0,265,33.946h1.033V47.055Z" transform="translate(-19 -33.777)"/><path class="cls-2" d="M270.382,44.036l1.541-.143a2.673,2.673,0,0,0,.748,1.576,2.055,2.055,0,0,0,1.416.49,2.446,2.446,0,0,0,1.3-.338,2.761,2.761,0,0,0,.913-0.9,5.3,5.3,0,0,0,.6-1.527,8.028,8.028,0,0,0,.241-1.959q0-.107-0.009-0.321a3.67,3.67,0,0,1-1.314,1.242,3.568,3.568,0,0,1-1.8.477,3.647,3.647,0,0,1-2.743-1.175,4.3,4.3,0,0,1-1.122-3.1,4.405,4.405,0,0,1,1.171-3.2,3.911,3.911,0,0,1,2.934-1.211,4.188,4.188,0,0,1,2.329.686,4.285,4.285,0,0,1,1.6,1.955,9.627,9.627,0,0,1,.548,3.674,11.887,11.887,0,0,1-.543,3.985,4.67,4.67,0,0,1-1.616,2.257,4.185,4.185,0,0,1-2.516.775A3.449,3.449,0,0,1,270.382,44.036Zm6.563-5.762a3.138,3.138,0,0,0-.735-2.19,2.3,2.3,0,0,0-1.768-.811,2.441,2.441,0,0,0-1.861.873,3.234,3.234,0,0,0-.793,2.262,2.792,2.792,0,0,0,.753,2.026,2.477,2.477,0,0,0,1.856.779,2.376,2.376,0,0,0,1.831-.779A3.07,3.07,0,0,0,276.946,38.274Z" transform="translate(-19 -33.777)"/><path class="cls-2" d="M280.526,44.036l1.541-.143a2.673,2.673,0,0,0,.748,1.576,2.055,2.055,0,0,0,1.416.49,2.446,2.446,0,0,0,1.3-.338,2.761,2.761,0,0,0,.913-0.9,5.3,5.3,0,0,0,.6-1.527,8.028,8.028,0,0,0,.241-1.959q0-.107-0.009-0.321a3.67,3.67,0,0,1-1.314,1.242,3.568,3.568,0,0,1-1.8.477,3.647,3.647,0,0,1-2.743-1.175,4.3,4.3,0,0,1-1.122-3.1,4.405,4.405,0,0,1,1.171-3.2,3.911,3.911,0,0,1,2.934-1.211,4.188,4.188,0,0,1,2.329.686,4.285,4.285,0,0,1,1.6,1.955,9.627,9.627,0,0,1,.548,3.674,11.887,11.887,0,0,1-.543,3.985,4.67,4.67,0,0,1-1.616,2.257,4.185,4.185,0,0,1-2.516.775A3.449,3.449,0,0,1,280.526,44.036Zm6.563-5.762a3.138,3.138,0,0,0-.735-2.19,2.3,2.3,0,0,0-1.768-.811,2.441,2.441,0,0,0-1.861.873,3.234,3.234,0,0,0-.793,2.262,2.792,2.792,0,0,0,.753,2.026,2.477,2.477,0,0,0,1.856.779,2.376,2.376,0,0,0,1.831-.779A3.07,3.07,0,0,0,287.089,38.274Z" transform="translate(-19 -33.777)"/><path class="cls-2" d="M296.467,47.055h-1.6V36.84a8.289,8.289,0,0,1-1.518,1.1,10.753,10.753,0,0,1-1.688.828v-1.55a9.678,9.678,0,0,0,2.351-1.532,6.026,6.026,0,0,0,1.425-1.746h1.033V47.055Z" transform="translate(-19 -33.777)"/><path class="cls-2" d="M300.395,43.137V41.525h4.925v1.612h-4.925Z" transform="translate(-19 -33.777)"/><path class="cls-2" d="M315.07,45.515v1.541h-8.629a2.828,2.828,0,0,1,.187-1.113,5.875,5.875,0,0,1,1.055-1.736,16.566,16.566,0,0,1,2.1-1.977,17.863,17.863,0,0,0,2.877-2.766,3.315,3.315,0,0,0,.748-1.928,2.146,2.146,0,0,0-.682-1.607,2.46,2.46,0,0,0-1.777-.655,2.5,2.5,0,0,0-1.852.695,2.628,2.628,0,0,0-.7,1.923l-1.648-.169a4.056,4.056,0,0,1,1.273-2.81,4.344,4.344,0,0,1,2.965-.966,4.138,4.138,0,0,1,2.975,1.042,3.421,3.421,0,0,1,1.1,2.583,3.93,3.93,0,0,1-.32,1.541,5.949,5.949,0,0,1-1.064,1.594A25.874,25.874,0,0,1,311.2,43q-1.444,1.211-1.854,1.643a5.334,5.334,0,0,0-.676.869h6.4Z" transform="translate(-19 -33.777)"/><path class="cls-2" d="M316.79,40.616a11.957,11.957,0,0,1,.477-3.727,4.638,4.638,0,0,1,1.416-2.177,3.618,3.618,0,0,1,2.364-.766,3.854,3.854,0,0,1,1.844.423,3.526,3.526,0,0,1,1.31,1.22,6.549,6.549,0,0,1,.81,1.942,12.877,12.877,0,0,1,.294,3.085,11.99,11.99,0,0,1-.472,3.709,4.636,4.636,0,0,1-1.411,2.182,3.622,3.622,0,0,1-2.374.771,3.584,3.584,0,0,1-2.966-1.354Q316.791,44.295,316.79,40.616Zm1.647,0q0,3.215.753,4.279a2.15,2.15,0,0,0,3.714,0q0.751-1.069.752-4.275,0-3.223-.752-4.284a2.235,2.235,0,0,0-1.875-1.06,2.054,2.054,0,0,0-1.764.935Q318.438,37.4,318.438,40.616Z" transform="translate(-19 -33.777)"/><path class="cls-2" d="M332.972,47.055h-1.6V36.84a8.328,8.328,0,0,1-1.519,1.1,10.813,10.813,0,0,1-1.687.828v-1.55a9.675,9.675,0,0,0,2.351-1.532,6.023,6.023,0,0,0,1.425-1.746h1.033V47.055Z" transform="translate(-19 -33.777)"/><path class="cls-2" d="M337.077,43.635l1.684-.143a3.015,3.015,0,0,0,.868,1.848,2.357,2.357,0,0,0,1.643.619,2.559,2.559,0,0,0,1.96-.873,3.289,3.289,0,0,0,.8-2.315,2.976,2.976,0,0,0-.77-2.164,2.688,2.688,0,0,0-2.018-.792,2.8,2.8,0,0,0-1.4.352,2.721,2.721,0,0,0-.979.913l-1.5-.2,1.265-6.706h6.492v1.532h-5.21l-0.7,3.509a4.245,4.245,0,0,1,2.467-.819,3.906,3.906,0,0,1,2.885,1.185,4.137,4.137,0,0,1,1.176,3.045,4.749,4.749,0,0,1-1.033,3.063,4.136,4.136,0,0,1-3.429,1.585,4.222,4.222,0,0,1-2.907-1A3.894,3.894,0,0,1,337.077,43.635Z" transform="translate(-19 -33.777)"/><path class="cls-2" d="M348.717,50.894h-1.148a16.069,16.069,0,0,0,2.663-8.559,14.6,14.6,0,0,0-.384-3.322A13.9,13.9,0,0,0,349,36.448a30.231,30.231,0,0,0-1.434-2.671h1.148a17.065,17.065,0,0,1,2.476,4.488,12.262,12.262,0,0,1-.235,8.71A16.3,16.3,0,0,1,348.717,50.894Z" transform="translate(-19 -33.777)"/><path class="cls-2" d="M43.276,118.253a11.942,11.942,0,0,1,.477-3.727,4.634,4.634,0,0,1,1.416-2.177,3.619,3.619,0,0,1,2.364-.766,3.856,3.856,0,0,1,1.844.423,3.521,3.521,0,0,1,1.309,1.22,6.549,6.549,0,0,1,.811,1.942,12.9,12.9,0,0,1,.294,3.085,11.988,11.988,0,0,1-.472,3.709,4.636,4.636,0,0,1-1.412,2.182,3.62,3.62,0,0,1-2.374.771,3.583,3.583,0,0,1-2.965-1.354Q43.276,121.931,43.276,118.253Zm1.647,0q0,3.215.753,4.279a2.149,2.149,0,0,0,3.713,0q0.753-1.069.752-4.275,0-3.223-.752-4.284a2.234,2.234,0,0,0-1.875-1.06,2.053,2.053,0,0,0-1.763.935Q44.924,115.039,44.923,118.253Z" transform="translate(-19 -33.777)"/><path class="cls-2" d="M53.722,114.771a3.971,3.971,0,0,1,.7-2.378,2.356,2.356,0,0,1,2.04-.979,2.647,2.647,0,0,1,2.035.877,4.465,4.465,0,0,1-.009,5.13,2.608,2.608,0,0,1-2.008.9,2.535,2.535,0,0,1-1.972-.882A3.889,3.889,0,0,1,53.722,114.771Zm2.788-2.253a1.2,1.2,0,0,0-.993.517,3.27,3.27,0,0,0-.4,1.9,2.942,2.942,0,0,0,.4,1.768,1.22,1.22,0,0,0,1.99,0,3.251,3.251,0,0,0,.4-1.888,2.962,2.962,0,0,0-.4-1.777A1.221,1.221,0,0,0,56.51,112.518Zm0.009,12.655,7.143-13.759h1.3l-7.116,13.759H56.519Zm5.646-3.544a3.962,3.962,0,0,1,.7-2.382,2.367,2.367,0,0,1,2.048-.975,2.645,2.645,0,0,1,2.035.877,4.463,4.463,0,0,1-.009,5.13,2.619,2.619,0,0,1-2.017.9,2.53,2.53,0,0,1-1.973-.886A3.9,3.9,0,0,1,62.165,121.628Zm2.8-2.253a1.214,1.214,0,0,0-1,.517,3.274,3.274,0,0,0-.4,1.9,2.943,2.943,0,0,0,.4,1.763,1.226,1.226,0,0,0,2,0,3.252,3.252,0,0,0,.4-1.888,2.962,2.962,0,0,0-.4-1.777A1.222,1.222,0,0,0,64.961,119.375Z" transform="translate(-19 -33.777)"/><path class="cls-2" d="M26.881,254.622V253.01h4.925v1.612H26.881Z" transform="translate(-19 -33.777)"/><path class="cls-2" d="M38.271,258.541v-3.126H32.607v-1.469l5.958-8.46h1.309v8.46h1.763v1.469H39.874v3.126h-1.6Zm0-4.6v-5.887l-4.088,5.887h4.088Z" transform="translate(-19 -33.777)"/><path class="cls-2" d="M43.276,252.1a11.942,11.942,0,0,1,.477-3.727,4.634,4.634,0,0,1,1.416-2.177,3.619,3.619,0,0,1,2.364-.766,3.856,3.856,0,0,1,1.844.423,3.521,3.521,0,0,1,1.309,1.22,6.549,6.549,0,0,1,.811,1.942,12.9,12.9,0,0,1,.294,3.085,11.988,11.988,0,0,1-.472,3.709,4.636,4.636,0,0,1-1.412,2.182,3.62,3.62,0,0,1-2.374.771,3.583,3.583,0,0,1-2.965-1.354Q43.276,255.78,43.276,252.1Zm1.647,0q0,3.215.753,4.279a2.149,2.149,0,0,0,3.713,0q0.753-1.069.752-4.275,0-3.223-.752-4.284a2.234,2.234,0,0,0-1.875-1.06,2.053,2.053,0,0,0-1.763.935Q44.924,248.887,44.923,252.1Z" transform="translate(-19 -33.777)"/><path class="cls-2" d="M53.722,248.62a3.971,3.971,0,0,1,.7-2.378,2.356,2.356,0,0,1,2.04-.979,2.647,2.647,0,0,1,2.035.877,4.465,4.465,0,0,1-.009,5.13,2.608,2.608,0,0,1-2.008.9,2.535,2.535,0,0,1-1.972-.882A3.889,3.889,0,0,1,53.722,248.62Zm2.788-2.253a1.2,1.2,0,0,0-.993.517,3.27,3.27,0,0,0-.4,1.9,2.942,2.942,0,0,0,.4,1.768,1.22,1.22,0,0,0,1.99,0,3.251,3.251,0,0,0,.4-1.888,2.962,2.962,0,0,0-.4-1.777A1.221,1.221,0,0,0,56.51,246.366Zm0.009,12.655,7.143-13.759h1.3l-7.116,13.759H56.519Zm5.646-3.544a3.962,3.962,0,0,1,.7-2.382,2.367,2.367,0,0,1,2.048-.975,2.645,2.645,0,0,1,2.035.877,4.463,4.463,0,0,1-.009,5.13,2.619,2.619,0,0,1-2.017.9,2.53,2.53,0,0,1-1.973-.886A3.9,3.9,0,0,1,62.165,255.477Zm2.8-2.253a1.214,1.214,0,0,0-1,.517,3.274,3.274,0,0,0-.4,1.9,2.943,2.943,0,0,0,.4,1.763,1.226,1.226,0,0,0,2,0,3.252,3.252,0,0,0,.4-1.888,2.962,2.962,0,0,0-.4-1.777A1.222,1.222,0,0,0,64.961,253.224Z" transform="translate(-19 -33.777)"/><path class="cls-2" d="M93.936,89.551V76.5h4.5a10.891,10.891,0,0,1,2.325.187,4.424,4.424,0,0,1,1.915.935,5.32,5.32,0,0,1,1.545,2.231,8.758,8.758,0,0,1,.512,3.1,9.124,9.124,0,0,1-.347,2.636,6.4,6.4,0,0,1-.891,1.9,4.726,4.726,0,0,1-1.189,1.184,4.843,4.843,0,0,1-1.559.655,8.893,8.893,0,0,1-2.1.223H93.936Zm1.728-1.541h2.788a6.751,6.751,0,0,0,2.026-.241,2.9,2.9,0,0,0,1.171-.677,4.118,4.118,0,0,0,.957-1.652,8.08,8.08,0,0,0,.343-2.516,6.076,6.076,0,0,0-.672-3.148,3.384,3.384,0,0,0-1.634-1.474,6.768,6.768,0,0,0-2.235-.267H95.663v9.975Z" transform="translate(-19 -33.777)"/><path class="cls-2" d="M106.225,85.847l1.559-.214a3.336,3.336,0,0,0,.561,2.048,1.765,1.765,0,0,0,1.38.552,2.059,2.059,0,0,0,1.122-.3,1.537,1.537,0,0,0,.65-0.811,5.418,5.418,0,0,0,.178-1.634V76.5H113.4v8.9a6.482,6.482,0,0,1-.4,2.539,2.819,2.819,0,0,1-1.256,1.371,4.122,4.122,0,0,1-2.017.472,3.4,3.4,0,0,1-2.631-.989A4.075,4.075,0,0,1,106.225,85.847Z" transform="translate(-19 -33.777)"/><path class="cls-2" d="M116.521,89.551V76.5h1.728V89.551h-1.728Z" transform="translate(-19 -33.777)"/><path class="cls-2" d="M119.86,89.551L124.874,76.5h1.861l5.343,13.056H130.11L128.587,85.6h-5.459l-1.434,3.954H119.86Zm3.767-5.361h4.426l-1.362-3.616q-0.624-1.647-.926-2.707a16.665,16.665,0,0,1-.7,2.493Z" transform="translate(-19 -33.777)"/><path class="cls-2" d="M171.653,85.356l1.63-.142a3.6,3.6,0,0,0,.539,1.607,2.943,2.943,0,0,0,1.313,1.015,4.975,4.975,0,0,0,2,.387,4.805,4.805,0,0,0,1.746-.293,2.427,2.427,0,0,0,1.126-.806,1.868,1.868,0,0,0,.37-1.118,1.7,1.7,0,0,0-.356-1.073,2.643,2.643,0,0,0-1.176-.771,23.133,23.133,0,0,0-2.324-.637A11.881,11.881,0,0,1,174,82.712,3.533,3.533,0,0,1,172.61,81.5a2.976,2.976,0,0,1-.459-1.625,3.318,3.318,0,0,1,.561-1.848,3.473,3.473,0,0,1,1.639-1.3,6.217,6.217,0,0,1,2.4-.445,6.548,6.548,0,0,1,2.56.467,3.7,3.7,0,0,1,1.706,1.376,3.953,3.953,0,0,1,.641,2.057L180,80.3a2.675,2.675,0,0,0-.9-1.87,3.517,3.517,0,0,0-2.275-.632,3.653,3.653,0,0,0-2.285.574,1.722,1.722,0,0,0-.717,1.385,1.484,1.484,0,0,0,.508,1.158,6.871,6.871,0,0,0,2.6.931,17.22,17.22,0,0,1,2.89.833,3.959,3.959,0,0,1,1.683,1.331,3.244,3.244,0,0,1,.543,1.857,3.555,3.555,0,0,1-.6,1.964,3.93,3.93,0,0,1-1.714,1.434,5.975,5.975,0,0,1-2.516.512,7.511,7.511,0,0,1-2.97-.517A4.157,4.157,0,0,1,172.37,87.7,4.4,4.4,0,0,1,171.653,85.356Z" transform="translate(-19 -33.777)"/><path class="cls-2" d="M191.664,88.011a5.471,5.471,0,0,1-1.728,1.322,4.681,4.681,0,0,1-2.021.441,4,4,0,0,1-3.179-1.354,3.681,3.681,0,0,1-.953-2.467,3.413,3.413,0,0,1,.779-2.186,6.5,6.5,0,0,1,2.329-1.714,7.833,7.833,0,0,1-1.175-1.647,2.894,2.894,0,0,1-.294-1.22,2.72,2.72,0,0,1,.922-2.044,3.25,3.25,0,0,1,2.32-.868,3.021,3.021,0,0,1,2.187.819,2.636,2.636,0,0,1,.85,1.968q0,1.861-2.467,3.179l2.342,2.983a7.413,7.413,0,0,0,.624-1.817l1.665,0.356a9.078,9.078,0,0,1-1.158,2.814,9.3,9.3,0,0,0,2.04,2l-1.078,1.273A9.33,9.33,0,0,1,191.664,88.011Zm-1.006-1.265L187.719,83.1a5.623,5.623,0,0,0-1.754,1.438,2.316,2.316,0,0,0-.455,1.313,2.8,2.8,0,0,0,.632,1.647,2.1,2.1,0,0,0,1.79.855,2.958,2.958,0,0,0,1.492-.45A3.619,3.619,0,0,0,190.657,86.746Zm-2.253-5.54a4.253,4.253,0,0,0,1.349-1.078,1.81,1.81,0,0,0,.307-1.024,1.477,1.477,0,0,0-.423-1.091,1.432,1.432,0,0,0-1.055-.423,1.493,1.493,0,0,0-1.082.418,1.372,1.372,0,0,0-.432,1.024,1.505,1.505,0,0,0,.156.637,3.332,3.332,0,0,0,.468.708Z" transform="translate(-19 -33.777)"/><path class="cls-2" d="M196.571,89.551V76.5H201.5a11.9,11.9,0,0,1,1.986.125,3.934,3.934,0,0,1,1.612.61,3.2,3.2,0,0,1,1.046,1.26,4.25,4.25,0,0,1-.663,4.6q-1.061,1.154-3.83,1.153H198.3v5.308h-1.728ZM198.3,82.7h3.375a3.579,3.579,0,0,0,2.377-.623,2.221,2.221,0,0,0,.7-1.754,2.358,2.358,0,0,0-.414-1.4,1.938,1.938,0,0,0-1.091-.771,7.385,7.385,0,0,0-1.612-.116H198.3V82.7Z" transform="translate(-19 -33.777)"/><path class="cls-2" d="M212.823,86.131l1.683-.143a3.021,3.021,0,0,0,.869,1.848,2.358,2.358,0,0,0,1.643.619,2.558,2.558,0,0,0,1.959-.873,3.287,3.287,0,0,0,.8-2.315,2.973,2.973,0,0,0-.771-2.164,2.687,2.687,0,0,0-2.017-.792,2.8,2.8,0,0,0-1.4.352,2.715,2.715,0,0,0-.98.913l-1.5-.2,1.265-6.706h6.492v1.532h-5.21l-0.7,3.509a4.248,4.248,0,0,1,2.467-.819A3.908,3.908,0,0,1,220.3,82.08a4.139,4.139,0,0,1,1.175,3.045,4.754,4.754,0,0,1-1.033,3.063,4.138,4.138,0,0,1-3.429,1.585,4.223,4.223,0,0,1-2.908-1A3.89,3.89,0,0,1,212.823,86.131Z" transform="translate(-19 -33.777)"/><path class="cls-2" d="M222.967,83.112a11.942,11.942,0,0,1,.477-3.727,4.634,4.634,0,0,1,1.416-2.177,3.619,3.619,0,0,1,2.364-.766,3.856,3.856,0,0,1,1.844.423,3.521,3.521,0,0,1,1.309,1.22,6.549,6.549,0,0,1,.811,1.942,12.9,12.9,0,0,1,.294,3.085,11.988,11.988,0,0,1-.472,3.709A4.636,4.636,0,0,1,229.6,89a3.62,3.62,0,0,1-2.374.771,3.583,3.583,0,0,1-2.965-1.354Q222.967,86.791,222.967,83.112Zm1.647,0q0,3.215.753,4.279a2.149,2.149,0,0,0,3.713,0q0.753-1.069.752-4.275,0-3.223-.752-4.284a2.234,2.234,0,0,0-1.875-1.06,2.053,2.053,0,0,0-1.763.935Q224.615,79.9,224.614,83.112Z" transform="translate(-19 -33.777)"/><path class="cls-2" d="M233.11,83.112a11.942,11.942,0,0,1,.477-3.727A4.634,4.634,0,0,1,235,77.208a3.619,3.619,0,0,1,2.364-.766,3.856,3.856,0,0,1,1.844.423,3.521,3.521,0,0,1,1.309,1.22,6.549,6.549,0,0,1,.811,1.942,12.9,12.9,0,0,1,.294,3.085,11.988,11.988,0,0,1-.472,3.709A4.636,4.636,0,0,1,239.741,89a3.62,3.62,0,0,1-2.374.771A3.583,3.583,0,0,1,234.4,88.42Q233.111,86.791,233.11,83.112Zm1.647,0q0,3.215.753,4.279a2.149,2.149,0,0,0,3.713,0q0.753-1.069.752-4.275,0-3.223-.752-4.284a2.234,2.234,0,0,0-1.875-1.06,2.053,2.053,0,0,0-1.763.935Q234.758,79.9,234.758,83.112Z" transform="translate(-19 -33.777)"/><path class="cls-2" d="M287.569,89.551V76.5h9.44v1.541H289.3v4h7.223v1.532H289.3v4.444h8.015v1.541h-9.743Z" transform="translate(-19 -33.777)"/><path class="cls-2" d="M298.264,89.551L303.278,76.5h1.861l5.344,13.056h-1.969L306.992,85.6h-5.459L300.1,89.551h-1.834Zm3.767-5.361h4.426L305.1,80.574q-0.624-1.647-.926-2.707a16.665,16.665,0,0,1-.7,2.493Z" transform="translate(-19 -33.777)"/><path class="cls-2" d="M311.952,89.551V76.5h8.808v1.541h-7.08V82.08h6.127V83.62H313.68v5.931h-1.728Z" transform="translate(-19 -33.777)"/><path class="cls-2" d="M323.039,89.551V76.5h9.44v1.541h-7.712v4h7.222v1.532h-7.222v4.444h8.015v1.541h-9.743Z" transform="translate(-19 -33.777)"/><path class="cls-2" d="M374.384,89.551V76.5h1.728V88.011h6.43v1.541h-8.157Z" transform="translate(-19 -33.777)"/><path class="cls-2" d="M384.527,89.551V76.5h4.9a6.07,6.07,0,0,1,2.4.4,3.089,3.089,0,0,1,1.416,1.22,3.214,3.214,0,0,1,.513,1.723,2.962,2.962,0,0,1-.454,1.577,3.246,3.246,0,0,1-1.372,1.193,3.411,3.411,0,0,1,1.821,1.184,3.172,3.172,0,0,1,.637,1.977A3.806,3.806,0,0,1,394,87.472a3.3,3.3,0,0,1-.957,1.216,4,4,0,0,1-1.43.646,8.681,8.681,0,0,1-2.105.218h-4.979Zm1.728-7.57h2.823a6.3,6.3,0,0,0,1.647-.151,1.828,1.828,0,0,0,.993-0.65,1.872,1.872,0,0,0,.334-1.14,2.106,2.106,0,0,0-.312-1.145,1.578,1.578,0,0,0-.891-0.677,7.448,7.448,0,0,0-1.986-.183h-2.609v3.945Zm0,6.029h3.251a7.476,7.476,0,0,0,1.175-.062,2.814,2.814,0,0,0,1-.356,1.9,1.9,0,0,0,.659-0.726,2.274,2.274,0,0,0,.258-1.1,2.173,2.173,0,0,0-.374-1.269,1.972,1.972,0,0,0-1.037-.757,6.431,6.431,0,0,0-1.91-.218h-3.02v4.489Z" transform="translate(-19 -33.777)"/><path class="cls-2" d="M395.356,89.774l3.785-13.5h1.282l-3.776,13.5h-1.291Z" transform="translate(-19 -33.777)"/><path class="cls-2" d="M401.76,89.551V76.5h4.9a6.07,6.07,0,0,1,2.4.4,3.089,3.089,0,0,1,1.416,1.22,3.214,3.214,0,0,1,.513,1.723,2.962,2.962,0,0,1-.454,1.577A3.246,3.246,0,0,1,409.16,82.6a3.411,3.411,0,0,1,1.821,1.184,3.172,3.172,0,0,1,.637,1.977,3.806,3.806,0,0,1-.388,1.706,3.3,3.3,0,0,1-.957,1.216,4,4,0,0,1-1.43.646,8.681,8.681,0,0,1-2.105.218H401.76Zm1.728-7.57h2.823a6.3,6.3,0,0,0,1.647-.151,1.828,1.828,0,0,0,.993-0.65,1.872,1.872,0,0,0,.334-1.14,2.106,2.106,0,0,0-.312-1.145,1.578,1.578,0,0,0-.891-0.677,7.448,7.448,0,0,0-1.986-.183h-2.609v3.945Zm0,6.029h3.251a7.476,7.476,0,0,0,1.175-.062,2.814,2.814,0,0,0,1-.356,1.9,1.9,0,0,0,.659-0.726,2.274,2.274,0,0,0,.258-1.1,2.173,2.173,0,0,0-.374-1.269,1.972,1.972,0,0,0-1.037-.757,6.431,6.431,0,0,0-1.91-.218h-3.02v4.489Z" transform="translate(-19 -33.777)"/><path class="cls-2" d="M425.173,84.431V82.9l5.53-.009v4.845a9.775,9.775,0,0,1-2.627,1.527,7.8,7.8,0,0,1-2.779.512,7.411,7.411,0,0,1-3.5-.824,5.445,5.445,0,0,1-2.373-2.382,7.5,7.5,0,0,1-.8-3.482,8.084,8.084,0,0,1,.8-3.558,5.3,5.3,0,0,1,2.293-2.454,7.192,7.192,0,0,1,3.447-.8,6.837,6.837,0,0,1,2.561.458,4.252,4.252,0,0,1,1.794,1.278,5.667,5.667,0,0,1,.988,2.138l-1.559.427a4.832,4.832,0,0,0-.729-1.567,3,3,0,0,0-1.247-.913,4.572,4.572,0,0,0-1.8-.343,5.3,5.3,0,0,0-2.049.361,3.831,3.831,0,0,0-1.394.949,4.5,4.5,0,0,0-.823,1.291,6.824,6.824,0,0,0-.5,2.627,6.379,6.379,0,0,0,.6,2.921,3.851,3.851,0,0,0,1.75,1.746,5.424,5.424,0,0,0,2.44.57,5.808,5.808,0,0,0,2.191-.432,5.658,5.658,0,0,0,1.62-.922V84.431h-3.838Z" transform="translate(-19 -33.777)"/><path class="cls-2" d="M442.565,84.974l1.728,0.437a5.815,5.815,0,0,1-1.955,3.246,5.384,5.384,0,0,1-3.451,1.118,6.2,6.2,0,0,1-3.433-.859,5.364,5.364,0,0,1-2.013-2.489,8.883,8.883,0,0,1-.69-3.5,7.692,7.692,0,0,1,.779-3.558,5.339,5.339,0,0,1,2.218-2.307,6.479,6.479,0,0,1,3.166-.788,5.352,5.352,0,0,1,3.295,1,5.182,5.182,0,0,1,1.861,2.805l-1.7.4a4.039,4.039,0,0,0-1.317-2.075,3.514,3.514,0,0,0-2.174-.65,4.221,4.221,0,0,0-2.516.722,3.8,3.8,0,0,0-1.42,1.937,7.79,7.79,0,0,0-.41,2.507,7.973,7.973,0,0,0,.485,2.908,3.616,3.616,0,0,0,1.51,1.857,4.233,4.233,0,0,0,2.218.614,3.719,3.719,0,0,0,2.458-.837A4.288,4.288,0,0,0,442.565,84.974Z" transform="translate(-19 -33.777)"/><path class="cls-2" d="M26.881,153.565v-1.612h4.925v1.612H26.881Z" transform="translate(-19 -33.777)"/><path class="cls-2" d="M39.17,157.484h-1.6V147.269a8.289,8.289,0,0,1-1.518,1.1,10.753,10.753,0,0,1-1.688.828v-1.55a9.678,9.678,0,0,0,2.351-1.532,6.026,6.026,0,0,0,1.425-1.746H39.17v13.109Z" transform="translate(-19 -33.777)"/><path class="cls-2" d="M43.276,151.045a11.942,11.942,0,0,1,.477-3.727,4.634,4.634,0,0,1,1.416-2.177,3.619,3.619,0,0,1,2.364-.766,3.856,3.856,0,0,1,1.844.423,3.521,3.521,0,0,1,1.309,1.22,6.549,6.549,0,0,1,.811,1.942,12.9,12.9,0,0,1,.294,3.085,11.988,11.988,0,0,1-.472,3.709,4.636,4.636,0,0,1-1.412,2.182,3.62,3.62,0,0,1-2.374.771,3.583,3.583,0,0,1-2.965-1.354Q43.276,154.723,43.276,151.045Zm1.647,0q0,3.215.753,4.279a2.149,2.149,0,0,0,3.713,0q0.753-1.069.752-4.275,0-3.223-.752-4.284a2.234,2.234,0,0,0-1.875-1.06,2.053,2.053,0,0,0-1.763.935Q44.924,147.831,44.923,151.045Z" transform="translate(-19 -33.777)"/><path class="cls-2" d="M53.722,147.563a3.971,3.971,0,0,1,.7-2.378,2.356,2.356,0,0,1,2.04-.979,2.647,2.647,0,0,1,2.035.877,4.465,4.465,0,0,1-.009,5.13,2.608,2.608,0,0,1-2.008.9,2.535,2.535,0,0,1-1.972-.882A3.889,3.889,0,0,1,53.722,147.563Zm2.788-2.253a1.2,1.2,0,0,0-.993.517,3.27,3.27,0,0,0-.4,1.9,2.942,2.942,0,0,0,.4,1.768,1.22,1.22,0,0,0,1.99,0,3.251,3.251,0,0,0,.4-1.888,2.962,2.962,0,0,0-.4-1.777A1.221,1.221,0,0,0,56.51,145.31Zm0.009,12.655,7.143-13.759h1.3l-7.116,13.759H56.519Zm5.646-3.544a3.962,3.962,0,0,1,.7-2.382,2.367,2.367,0,0,1,2.048-.975,2.645,2.645,0,0,1,2.035.877,4.463,4.463,0,0,1-.009,5.13,2.619,2.619,0,0,1-2.017.9,2.53,2.53,0,0,1-1.973-.886A3.9,3.9,0,0,1,62.165,154.42Zm2.8-2.253a1.214,1.214,0,0,0-1,.517,3.274,3.274,0,0,0-.4,1.9,2.943,2.943,0,0,0,.4,1.763,1.226,1.226,0,0,0,2,0,3.252,3.252,0,0,0,.4-1.888,2.962,2.962,0,0,0-.4-1.777A1.222,1.222,0,0,0,64.961,152.167Z" transform="translate(-19 -33.777)"/><path class="cls-2" d="M26.881,187.945v-1.612h4.925v1.612H26.881Z" transform="translate(-19 -33.777)"/><path class="cls-2" d="M41.557,190.323v1.541H32.928a2.828,2.828,0,0,1,.187-1.113,5.885,5.885,0,0,1,1.055-1.736,16.523,16.523,0,0,1,2.1-1.977,17.778,17.778,0,0,0,2.877-2.766,3.311,3.311,0,0,0,.748-1.928,2.141,2.141,0,0,0-.682-1.607,2.457,2.457,0,0,0-1.776-.655,2.5,2.5,0,0,0-1.853.695,2.628,2.628,0,0,0-.7,1.923l-1.647-.169a4.056,4.056,0,0,1,1.273-2.81,4.345,4.345,0,0,1,2.966-.966,4.139,4.139,0,0,1,2.974,1.042,3.421,3.421,0,0,1,1.1,2.583,3.913,3.913,0,0,1-.321,1.541,5.981,5.981,0,0,1-1.064,1.594,25.973,25.973,0,0,1-2.472,2.3q-1.442,1.211-1.852,1.643a5.236,5.236,0,0,0-.677.869h6.4Z" transform="translate(-19 -33.777)"/><path class="cls-2" d="M43.276,185.425a11.942,11.942,0,0,1,.477-3.727,4.634,4.634,0,0,1,1.416-2.177,3.619,3.619,0,0,1,2.364-.766,3.856,3.856,0,0,1,1.844.423,3.521,3.521,0,0,1,1.309,1.22,6.549,6.549,0,0,1,.811,1.942,12.9,12.9,0,0,1,.294,3.085,11.988,11.988,0,0,1-.472,3.709,4.636,4.636,0,0,1-1.412,2.182,3.62,3.62,0,0,1-2.374.771,3.583,3.583,0,0,1-2.965-1.354Q43.276,189.1,43.276,185.425Zm1.647,0q0,3.215.753,4.279a2.149,2.149,0,0,0,3.713,0q0.753-1.069.752-4.275,0-3.223-.752-4.284a2.234,2.234,0,0,0-1.875-1.06,2.053,2.053,0,0,0-1.763.935Q44.924,182.21,44.923,185.425Z" transform="translate(-19 -33.777)"/><path class="cls-2" d="M53.722,181.943a3.971,3.971,0,0,1,.7-2.378,2.356,2.356,0,0,1,2.04-.979,2.647,2.647,0,0,1,2.035.877,4.465,4.465,0,0,1-.009,5.13,2.608,2.608,0,0,1-2.008.9,2.535,2.535,0,0,1-1.972-.882A3.889,3.889,0,0,1,53.722,181.943Zm2.788-2.253a1.2,1.2,0,0,0-.993.517,3.27,3.27,0,0,0-.4,1.9,2.942,2.942,0,0,0,.4,1.768,1.22,1.22,0,0,0,1.99,0,3.251,3.251,0,0,0,.4-1.888,2.962,2.962,0,0,0-.4-1.777A1.221,1.221,0,0,0,56.51,179.689Zm0.009,12.655,7.143-13.759h1.3l-7.116,13.759H56.519Zm5.646-3.544a3.962,3.962,0,0,1,.7-2.382,2.367,2.367,0,0,1,2.048-.975,2.645,2.645,0,0,1,2.035.877,4.463,4.463,0,0,1-.009,5.13,2.619,2.619,0,0,1-2.017.9,2.53,2.53,0,0,1-1.973-.886A3.9,3.9,0,0,1,62.165,188.8Zm2.8-2.253a1.214,1.214,0,0,0-1,.517,3.274,3.274,0,0,0-.4,1.9,2.943,2.943,0,0,0,.4,1.763,1.226,1.226,0,0,0,2,0,3.252,3.252,0,0,0,.4-1.888,2.962,2.962,0,0,0-.4-1.777A1.222,1.222,0,0,0,64.961,186.547Z" transform="translate(-19 -33.777)"/><path class="cls-2" d="M26.881,222.888v-1.612h4.925v1.612H26.881Z" transform="translate(-19 -33.777)"/><path class="cls-2" d="M33.142,223.36l1.6-.214a3.526,3.526,0,0,0,.939,1.963,2.319,2.319,0,0,0,1.616.6,2.59,2.59,0,0,0,1.91-.784,2.645,2.645,0,0,0,.779-1.941,2.459,2.459,0,0,0-.721-1.821,2.494,2.494,0,0,0-1.834-.717,4.61,4.61,0,0,0-1.131.178l0.178-1.407a2.374,2.374,0,0,0,.258.018,3.3,3.3,0,0,0,1.843-.534,1.829,1.829,0,0,0,.819-1.648,1.949,1.949,0,0,0-.6-1.46,2.12,2.12,0,0,0-1.541-.579,2.184,2.184,0,0,0-1.559.587,2.952,2.952,0,0,0-.8,1.764l-1.6-.285a4.12,4.12,0,0,1,1.336-2.5,3.86,3.86,0,0,1,2.591-.886,4.271,4.271,0,0,1,1.968.459,3.319,3.319,0,0,1,1.376,1.251,3.219,3.219,0,0,1,.477,1.683,2.754,2.754,0,0,1-.455,1.541,3.1,3.1,0,0,1-1.345,1.1,3.032,3.032,0,0,1,1.8,1.109,3.376,3.376,0,0,1,.641,2.106,3.852,3.852,0,0,1-1.247,2.9,4.383,4.383,0,0,1-3.152,1.189,4.1,4.1,0,0,1-2.854-1.024A3.958,3.958,0,0,1,33.142,223.36Z" transform="translate(-19 -33.777)"/><path class="cls-2" d="M43.276,220.367a11.942,11.942,0,0,1,.477-3.727,4.634,4.634,0,0,1,1.416-2.177,3.619,3.619,0,0,1,2.364-.766,3.856,3.856,0,0,1,1.844.423,3.521,3.521,0,0,1,1.309,1.22,6.549,6.549,0,0,1,.811,1.942,12.9,12.9,0,0,1,.294,3.085,11.988,11.988,0,0,1-.472,3.709,4.636,4.636,0,0,1-1.412,2.182,3.62,3.62,0,0,1-2.374.771,3.583,3.583,0,0,1-2.965-1.354Q43.276,224.046,43.276,220.367Zm1.647,0q0,3.215.753,4.279a2.149,2.149,0,0,0,3.713,0q0.753-1.069.752-4.275,0-3.223-.752-4.284a2.234,2.234,0,0,0-1.875-1.06,2.053,2.053,0,0,0-1.763.935Q44.924,217.153,44.923,220.367Z" transform="translate(-19 -33.777)"/><path class="cls-2" d="M53.722,216.885a3.971,3.971,0,0,1,.7-2.378,2.356,2.356,0,0,1,2.04-.979,2.647,2.647,0,0,1,2.035.877,4.465,4.465,0,0,1-.009,5.13,2.608,2.608,0,0,1-2.008.9,2.535,2.535,0,0,1-1.972-.882A3.889,3.889,0,0,1,53.722,216.885Zm2.788-2.253a1.2,1.2,0,0,0-.993.517,3.27,3.27,0,0,0-.4,1.9,2.942,2.942,0,0,0,.4,1.768,1.22,1.22,0,0,0,1.99,0,3.251,3.251,0,0,0,.4-1.888,2.962,2.962,0,0,0-.4-1.777A1.221,1.221,0,0,0,56.51,214.632Zm0.009,12.655,7.143-13.759h1.3l-7.116,13.759H56.519Zm5.646-3.544a3.962,3.962,0,0,1,.7-2.382,2.367,2.367,0,0,1,2.048-.975,2.645,2.645,0,0,1,2.035.877,4.463,4.463,0,0,1-.009,5.13,2.619,2.619,0,0,1-2.017.9,2.53,2.53,0,0,1-1.973-.886A3.9,3.9,0,0,1,62.165,223.743Zm2.8-2.253a1.214,1.214,0,0,0-1,.517,3.274,3.274,0,0,0-.4,1.9,2.943,2.943,0,0,0,.4,1.763,1.226,1.226,0,0,0,2,0,3.252,3.252,0,0,0,.4-1.888,2.962,2.962,0,0,0-.4-1.777A1.222,1.222,0,0,0,64.961,221.489Z" transform="translate(-19 -33.777)"/><path class="cls-2" d="M489.544,84.431V82.9l5.53-.009v4.845a9.775,9.775,0,0,1-2.627,1.527,7.8,7.8,0,0,1-2.779.512,7.411,7.411,0,0,1-3.5-.824,5.445,5.445,0,0,1-2.373-2.382,7.5,7.5,0,0,1-.8-3.482,8.084,8.084,0,0,1,.8-3.558,5.3,5.3,0,0,1,2.293-2.454,7.192,7.192,0,0,1,3.447-.8,6.837,6.837,0,0,1,2.561.458,4.252,4.252,0,0,1,1.794,1.278,5.667,5.667,0,0,1,.988,2.138l-1.559.427a4.832,4.832,0,0,0-.729-1.567,3,3,0,0,0-1.247-.913,4.572,4.572,0,0,0-1.8-.343,5.3,5.3,0,0,0-2.049.361,3.831,3.831,0,0,0-1.394.949,4.5,4.5,0,0,0-.823,1.291,6.824,6.824,0,0,0-.5,2.627,6.379,6.379,0,0,0,.6,2.921,3.851,3.851,0,0,0,1.75,1.746,5.424,5.424,0,0,0,2.44.57,5.808,5.808,0,0,0,2.191-.432,5.658,5.658,0,0,0,1.62-.922V84.431h-3.838Z" transform="translate(-19 -33.777)"/><path class="cls-2" d="M497.1,83.192a7.1,7.1,0,0,1,1.745-5.089,5.936,5.936,0,0,1,4.507-1.839,6.251,6.251,0,0,1,3.259.864,5.644,5.644,0,0,1,2.214,2.409,7.836,7.836,0,0,1,.761,3.5,7.7,7.7,0,0,1-.8,3.554,5.477,5.477,0,0,1-2.271,2.373,6.484,6.484,0,0,1-3.17.806,6.175,6.175,0,0,1-3.3-.891,5.73,5.73,0,0,1-2.2-2.431A7.365,7.365,0,0,1,497.1,83.192Zm1.781,0.027a5.232,5.232,0,0,0,1.269,3.718,4.428,4.428,0,0,0,6.395-.013,5.548,5.548,0,0,0,1.26-3.892,6.7,6.7,0,0,0-.538-2.783,4.143,4.143,0,0,0-1.576-1.843,4.276,4.276,0,0,0-2.329-.655,4.418,4.418,0,0,0-3.157,1.26Q498.876,80.272,498.877,83.219Z" transform="translate(-19 -33.777)"/><path class="cls-2" d="M511.736,89.551V76.5h1.728V88.011h6.43v1.541h-8.157Z" transform="translate(-19 -33.777)"/><path class="cls-2" d="M521.951,89.551V76.5h4.5a10.883,10.883,0,0,1,2.324.187,4.426,4.426,0,0,1,1.915.935,5.311,5.311,0,0,1,1.545,2.231,8.747,8.747,0,0,1,.513,3.1,9.123,9.123,0,0,1-.348,2.636,6.4,6.4,0,0,1-.891,1.9,4.74,4.74,0,0,1-1.188,1.184,4.847,4.847,0,0,1-1.559.655,8.9,8.9,0,0,1-2.1.223h-4.711Zm1.728-1.541h2.787a6.75,6.75,0,0,0,2.026-.241,2.893,2.893,0,0,0,1.171-.677,4.114,4.114,0,0,0,.958-1.652,8.08,8.08,0,0,0,.343-2.516,6.075,6.075,0,0,0-.673-3.148,3.386,3.386,0,0,0-1.634-1.474,6.764,6.764,0,0,0-2.235-.267h-2.743v9.975Z" transform="translate(-19 -33.777)"/><rect class="cls-3" x="56.356" y="65.125" width="484.481" height="171.724"/><path class="cls-4" d="M100.833,124.692h-1.6V114.477a8.289,8.289,0,0,1-1.518,1.1,10.753,10.753,0,0,1-1.688.828v-1.55a9.678,9.678,0,0,0,2.351-1.532,6.026,6.026,0,0,0,1.425-1.746h1.033v13.109Z" transform="translate(-19 -33.777)"/><path class="cls-4" d="M105.838,124.692v-1.826h1.826v1.826h-1.826Z" transform="translate(-19 -33.777)"/><path class="cls-4" d="M110.006,118.253a11.942,11.942,0,0,1,.477-3.727,4.634,4.634,0,0,1,1.416-2.177,3.619,3.619,0,0,1,2.364-.766,3.856,3.856,0,0,1,1.844.423,3.521,3.521,0,0,1,1.309,1.22,6.549,6.549,0,0,1,.811,1.942,12.9,12.9,0,0,1,.294,3.085,11.988,11.988,0,0,1-.472,3.709,4.636,4.636,0,0,1-1.412,2.182,3.62,3.62,0,0,1-2.374.771,3.583,3.583,0,0,1-2.965-1.354Q110.006,121.931,110.006,118.253Zm1.647,0q0,3.215.753,4.279a2.149,2.149,0,0,0,3.713,0q0.753-1.069.752-4.275,0-3.223-.752-4.284a2.234,2.234,0,0,0-1.875-1.06,2.053,2.053,0,0,0-1.763.935Q111.654,115.039,111.653,118.253Z" transform="translate(-19 -33.777)"/><path class="cls-4" d="M120.149,118.253a11.942,11.942,0,0,1,.477-3.727,4.634,4.634,0,0,1,1.416-2.177,3.619,3.619,0,0,1,2.364-.766,3.856,3.856,0,0,1,1.844.423,3.521,3.521,0,0,1,1.309,1.22,6.549,6.549,0,0,1,.811,1.942,12.9,12.9,0,0,1,.294,3.085,11.988,11.988,0,0,1-.472,3.709,4.636,4.636,0,0,1-1.412,2.182,3.62,3.62,0,0,1-2.374.771,3.583,3.583,0,0,1-2.965-1.354Q120.15,121.931,120.149,118.253Zm1.647,0q0,3.215.753,4.279a2.149,2.149,0,0,0,3.713,0q0.753-1.069.752-4.275,0-3.223-.752-4.284a2.234,2.234,0,0,0-1.875-1.06,2.053,2.053,0,0,0-1.763.935Q121.8,115.039,121.8,118.253Z" transform="translate(-19 -33.777)"/><path class="cls-4" d="M194.952,156.473h-1.6V146.258a8.289,8.289,0,0,1-1.518,1.1,10.753,10.753,0,0,1-1.688.828v-1.55a9.678,9.678,0,0,0,2.351-1.532,6.026,6.026,0,0,0,1.425-1.746h1.033v13.109Z" transform="translate(-19 -33.777)"/><path class="cls-4" d="M199.957,156.473v-1.826h1.826v1.826h-1.826Z" transform="translate(-19 -33.777)"/><path class="cls-4" d="M204.125,150.034a11.942,11.942,0,0,1,.477-3.727,4.634,4.634,0,0,1,1.416-2.177,3.619,3.619,0,0,1,2.364-.766,3.856,3.856,0,0,1,1.844.423,3.521,3.521,0,0,1,1.309,1.22,6.549,6.549,0,0,1,.811,1.942,12.9,12.9,0,0,1,.294,3.085,11.988,11.988,0,0,1-.472,3.709,4.636,4.636,0,0,1-1.412,2.182,3.62,3.62,0,0,1-2.374.771,3.583,3.583,0,0,1-2.965-1.354Q204.125,153.713,204.125,150.034Zm1.647,0q0,3.215.753,4.279a2.149,2.149,0,0,0,3.713,0q0.753-1.069.752-4.275,0-3.223-.752-4.284a2.234,2.234,0,0,0-1.875-1.06,2.053,2.053,0,0,0-1.763.935Q205.773,146.82,205.772,150.034Z" transform="translate(-19 -33.777)"/><path class="cls-4" d="M214.269,150.034a11.942,11.942,0,0,1,.477-3.727,4.634,4.634,0,0,1,1.416-2.177,3.619,3.619,0,0,1,2.364-.766,3.856,3.856,0,0,1,1.844.423,3.521,3.521,0,0,1,1.309,1.22,6.549,6.549,0,0,1,.811,1.942,12.9,12.9,0,0,1,.294,3.085,11.988,11.988,0,0,1-.472,3.709,4.636,4.636,0,0,1-1.412,2.182,3.62,3.62,0,0,1-2.374.771,3.583,3.583,0,0,1-2.965-1.354Q214.269,153.713,214.269,150.034Zm1.647,0q0,3.215.753,4.279a2.149,2.149,0,0,0,3.713,0q0.753-1.069.752-4.275,0-3.223-.752-4.284a2.234,2.234,0,0,0-1.875-1.06,2.053,2.053,0,0,0-1.763.935Q215.916,146.82,215.916,150.034Z" transform="translate(-19 -33.777)"/><path class="cls-4" d="M298.676,190.265h-1.6V180.05a8.289,8.289,0,0,1-1.518,1.1,10.753,10.753,0,0,1-1.688.828v-1.55a9.678,9.678,0,0,0,2.351-1.532,6.026,6.026,0,0,0,1.425-1.746h1.033v13.109Z" transform="translate(-19 -33.777)"/><path class="cls-4" d="M303.681,190.265v-1.826h1.826v1.826h-1.826Z" transform="translate(-19 -33.777)"/><path class="cls-4" d="M307.849,183.826a11.957,11.957,0,0,1,.477-3.727,4.638,4.638,0,0,1,1.416-2.177,3.618,3.618,0,0,1,2.364-.766,3.854,3.854,0,0,1,1.844.423,3.526,3.526,0,0,1,1.31,1.22,6.549,6.549,0,0,1,.81,1.942,12.877,12.877,0,0,1,.294,3.085,11.99,11.99,0,0,1-.472,3.709,4.636,4.636,0,0,1-1.411,2.182,3.622,3.622,0,0,1-2.374.771,3.584,3.584,0,0,1-2.966-1.354Q307.849,187.5,307.849,183.826Zm1.647,0q0,3.215.753,4.279a2.15,2.15,0,0,0,3.714,0q0.751-1.069.752-4.275,0-3.223-.752-4.284a2.235,2.235,0,0,0-1.875-1.06,2.054,2.054,0,0,0-1.764.935Q309.5,180.612,309.5,183.826Z" transform="translate(-19 -33.777)"/><path class="cls-4" d="M317.992,183.826a11.957,11.957,0,0,1,.477-3.727,4.638,4.638,0,0,1,1.416-2.177,3.618,3.618,0,0,1,2.364-.766,3.854,3.854,0,0,1,1.844.423,3.526,3.526,0,0,1,1.31,1.22,6.549,6.549,0,0,1,.81,1.942,12.877,12.877,0,0,1,.294,3.085,11.99,11.99,0,0,1-.472,3.709,4.636,4.636,0,0,1-1.411,2.182,3.622,3.622,0,0,1-2.374.771,3.584,3.584,0,0,1-2.966-1.354Q317.993,187.5,317.992,183.826Zm1.647,0q0,3.215.753,4.279a2.15,2.15,0,0,0,3.714,0q0.751-1.069.752-4.275,0-3.223-.752-4.284a2.235,2.235,0,0,0-1.875-1.06,2.054,2.054,0,0,0-1.764.935Q319.64,180.612,319.64,183.826Z" transform="translate(-19 -33.777)"/><path class="cls-4" d="M285.038,221.29v-1.612h4.925v1.612h-4.925Z" transform="translate(-19 -33.777)"/><path class="cls-4" d="M291.29,218.77a11.942,11.942,0,0,1,.477-3.727,4.634,4.634,0,0,1,1.416-2.177,3.619,3.619,0,0,1,2.364-.766,3.856,3.856,0,0,1,1.844.423,3.521,3.521,0,0,1,1.309,1.22,6.549,6.549,0,0,1,.811,1.942,12.9,12.9,0,0,1,.294,3.085,11.988,11.988,0,0,1-.472,3.709,4.636,4.636,0,0,1-1.412,2.182,3.62,3.62,0,0,1-2.374.771,3.583,3.583,0,0,1-2.965-1.354Q291.29,222.448,291.29,218.77Zm1.647,0q0,3.215.753,4.279a2.149,2.149,0,0,0,3.713,0q0.753-1.069.752-4.275,0-3.223-.752-4.284a2.234,2.234,0,0,0-1.875-1.06,2.053,2.053,0,0,0-1.763.935Q292.937,215.555,292.937,218.77Z" transform="translate(-19 -33.777)"/><path class="cls-4" d="M302.333,225.208v-1.826h1.826v1.826h-1.826Z" transform="translate(-19 -33.777)"/><path class="cls-4" d="M312.539,225.208h-1.6V214.994a8.352,8.352,0,0,1-1.518,1.1,10.776,10.776,0,0,1-1.688.828v-1.55a9.637,9.637,0,0,0,2.351-1.532,6.012,6.012,0,0,0,1.426-1.746h1.033v13.109Z" transform="translate(-19 -33.777)"/><path class="cls-4" d="M316.645,221.789l1.684-.143a3.015,3.015,0,0,0,.868,1.848,2.357,2.357,0,0,0,1.643.619,2.559,2.559,0,0,0,1.96-.873,3.289,3.289,0,0,0,.8-2.315,2.976,2.976,0,0,0-.77-2.164,2.688,2.688,0,0,0-2.018-.792,2.8,2.8,0,0,0-1.4.352,2.721,2.721,0,0,0-.979.913l-1.5-.2,1.265-6.706h6.492v1.532h-5.21l-0.7,3.509a4.245,4.245,0,0,1,2.467-.819,3.906,3.906,0,0,1,2.885,1.185,4.137,4.137,0,0,1,1.176,3.045,4.749,4.749,0,0,1-1.033,3.063,4.136,4.136,0,0,1-3.429,1.585,4.222,4.222,0,0,1-2.907-1A3.894,3.894,0,0,1,316.645,221.789Z" transform="translate(-19 -33.777)"/><path class="cls-4" d="M94.794,151.555a11.942,11.942,0,0,1,.477-3.727,4.634,4.634,0,0,1,1.416-2.177,3.619,3.619,0,0,1,2.364-.766,3.856,3.856,0,0,1,1.844.423,3.521,3.521,0,0,1,1.309,1.22,6.549,6.549,0,0,1,.811,1.942,12.9,12.9,0,0,1,.294,3.085,11.988,11.988,0,0,1-.472,3.709,4.636,4.636,0,0,1-1.412,2.182,3.62,3.62,0,0,1-2.374.771,3.583,3.583,0,0,1-2.965-1.354Q94.795,155.233,94.794,151.555Zm1.647,0q0,3.215.753,4.279a2.149,2.149,0,0,0,3.713,0q0.753-1.069.752-4.275,0-3.223-.752-4.284a2.234,2.234,0,0,0-1.875-1.06,2.053,2.053,0,0,0-1.763.935Q96.442,148.34,96.442,151.555Z" transform="translate(-19 -33.777)"/><path class="cls-4" d="M105.837,157.994v-1.826h1.826v1.826h-1.826Z" transform="translate(-19 -33.777)"/><path class="cls-4" d="M110.246,154.975l1.541-.143a2.673,2.673,0,0,0,.748,1.576,2.055,2.055,0,0,0,1.416.49,2.446,2.446,0,0,0,1.3-.338,2.761,2.761,0,0,0,.913-0.9,5.3,5.3,0,0,0,.6-1.527,8.028,8.028,0,0,0,.241-1.959q0-.107-0.009-0.321a3.67,3.67,0,0,1-1.314,1.242,3.568,3.568,0,0,1-1.8.477,3.647,3.647,0,0,1-2.743-1.175,4.3,4.3,0,0,1-1.122-3.1,4.405,4.405,0,0,1,1.171-3.2,3.911,3.911,0,0,1,2.934-1.211,4.188,4.188,0,0,1,2.329.686,4.285,4.285,0,0,1,1.6,1.955,9.627,9.627,0,0,1,.548,3.674,11.887,11.887,0,0,1-.543,3.985,4.67,4.67,0,0,1-1.616,2.257,4.185,4.185,0,0,1-2.516.775A3.449,3.449,0,0,1,110.246,154.975Zm6.563-5.762a3.138,3.138,0,0,0-.735-2.19,2.3,2.3,0,0,0-1.768-.811,2.441,2.441,0,0,0-1.861.873,3.234,3.234,0,0,0-.793,2.262,2.792,2.792,0,0,0,.753,2.026,2.477,2.477,0,0,0,1.856.779,2.376,2.376,0,0,0,1.831-.779A3.07,3.07,0,0,0,116.81,149.212Z" transform="translate(-19 -33.777)"/><path class="cls-4" d="M128.467,148.135l-1.594.125a3.021,3.021,0,0,0-.606-1.372,2.121,2.121,0,0,0-1.6-.686,2.206,2.206,0,0,0-1.345.427,3.658,3.658,0,0,0-1.193,1.612,8.422,8.422,0,0,0-.454,3.019,3.718,3.718,0,0,1,1.416-1.309,3.812,3.812,0,0,1,1.754-.427,3.634,3.634,0,0,1,2.729,1.18,4.237,4.237,0,0,1,1.127,3.05,5.018,5.018,0,0,1-.53,2.285,3.86,3.86,0,0,1-1.456,1.616,3.975,3.975,0,0,1-2.1.561,4.107,4.107,0,0,1-3.269-1.474q-1.264-1.474-1.265-4.858,0-3.784,1.4-5.5a4.02,4.02,0,0,1,3.286-1.5A3.5,3.5,0,0,1,128.467,148.135Zm-6.545,5.628a3.72,3.72,0,0,0,.352,1.585,2.618,2.618,0,0,0,.984,1.153,2.461,2.461,0,0,0,1.327.4,2.263,2.263,0,0,0,1.746-.819,3.226,3.226,0,0,0,.73-2.227,3.018,3.018,0,0,0-.722-2.133,2.37,2.37,0,0,0-1.816-.779,2.473,2.473,0,0,0-1.844.779A2.81,2.81,0,0,0,121.921,153.764Z" transform="translate(-19 -33.777)"/><path class="cls-4" d="M292.952,252.123a11.942,11.942,0,0,1,.477-3.727,4.634,4.634,0,0,1,1.416-2.177,3.619,3.619,0,0,1,2.364-.766,3.856,3.856,0,0,1,1.844.423,3.521,3.521,0,0,1,1.309,1.22,6.549,6.549,0,0,1,.811,1.942,12.9,12.9,0,0,1,.294,3.085,11.988,11.988,0,0,1-.472,3.709,4.636,4.636,0,0,1-1.412,2.182,3.62,3.62,0,0,1-2.374.771,3.583,3.583,0,0,1-2.965-1.354Q292.952,255.8,292.952,252.123Zm1.647,0q0,3.215.753,4.279a2.149,2.149,0,0,0,3.713,0q0.753-1.069.752-4.275,0-3.223-.752-4.284a2.234,2.234,0,0,0-1.875-1.06,2.053,2.053,0,0,0-1.763.935Q294.6,248.909,294.6,252.123Z" transform="translate(-19 -33.777)"/><path class="cls-4" d="M304,258.562v-1.826h1.826v1.826H304Z" transform="translate(-19 -33.777)"/><path class="cls-4" d="M308.163,252.123a11.957,11.957,0,0,1,.477-3.727,4.638,4.638,0,0,1,1.416-2.177,3.618,3.618,0,0,1,2.364-.766,3.854,3.854,0,0,1,1.844.423,3.526,3.526,0,0,1,1.31,1.22,6.549,6.549,0,0,1,.81,1.942,12.877,12.877,0,0,1,.294,3.085,11.99,11.99,0,0,1-.472,3.709,4.636,4.636,0,0,1-1.411,2.182,3.622,3.622,0,0,1-2.374.771,3.584,3.584,0,0,1-2.966-1.354Q308.164,255.8,308.163,252.123Zm1.647,0q0,3.215.753,4.279a2.15,2.15,0,0,0,3.714,0q0.751-1.069.752-4.275,0-3.223-.752-4.284a2.235,2.235,0,0,0-1.875-1.06,2.054,2.054,0,0,0-1.764.935Q309.811,248.909,309.811,252.123Z" transform="translate(-19 -33.777)"/><path class="cls-4" d="M318.414,247.216v-1.541h8.451v1.247a17.824,17.824,0,0,0-2.472,3.526,21.483,21.483,0,0,0-1.893,4.524,16.818,16.818,0,0,0-.614,3.589h-1.647a16,16,0,0,1,.605-3.723,19.531,19.531,0,0,1,1.661-4.208,18.052,18.052,0,0,1,2.3-3.415h-6.394Z" transform="translate(-19 -33.777)"/><path class="cls-4" d="M188.42,183.9a11.942,11.942,0,0,1,.477-3.727A4.634,4.634,0,0,1,190.313,178a3.619,3.619,0,0,1,2.364-.766,3.856,3.856,0,0,1,1.844.423,3.521,3.521,0,0,1,1.309,1.22,6.549,6.549,0,0,1,.811,1.942,12.9,12.9,0,0,1,.294,3.085,11.988,11.988,0,0,1-.472,3.709,4.636,4.636,0,0,1-1.412,2.182,3.62,3.62,0,0,1-2.374.771,3.583,3.583,0,0,1-2.965-1.354Q188.421,187.583,188.42,183.9Zm1.647,0q0,3.215.753,4.279a2.149,2.149,0,0,0,3.713,0q0.753-1.069.752-4.275,0-3.223-.752-4.284a2.234,2.234,0,0,0-1.875-1.06,2.053,2.053,0,0,0-1.763.935Q190.068,180.69,190.068,183.9Z" transform="translate(-19 -33.777)"/><path class="cls-4" d="M199.463,190.343v-1.826h1.826v1.826h-1.826Z" transform="translate(-19 -33.777)"/><path class="cls-4" d="M203.738,179v-1.541h8.452V178.7a17.783,17.783,0,0,0-2.471,3.526,21.483,21.483,0,0,0-1.893,4.524,16.818,16.818,0,0,0-.615,3.589h-1.647a16.023,16.023,0,0,1,.605-3.723,19.581,19.581,0,0,1,1.661-4.208,18.029,18.029,0,0,1,2.3-3.415h-6.395Z" transform="translate(-19 -33.777)"/><path class="cls-4" d="M222.093,180.485l-1.594.125a3.021,3.021,0,0,0-.606-1.372,2.121,2.121,0,0,0-1.6-.686,2.206,2.206,0,0,0-1.345.427,3.658,3.658,0,0,0-1.193,1.612,8.422,8.422,0,0,0-.454,3.019,3.718,3.718,0,0,1,1.416-1.309,3.812,3.812,0,0,1,1.754-.427,3.634,3.634,0,0,1,2.729,1.18,4.237,4.237,0,0,1,1.127,3.05,5.018,5.018,0,0,1-.53,2.285A3.86,3.86,0,0,1,220.338,190a3.975,3.975,0,0,1-2.1.561,4.107,4.107,0,0,1-3.269-1.474q-1.264-1.474-1.265-4.858,0-3.784,1.4-5.5a4.02,4.02,0,0,1,3.286-1.5A3.5,3.5,0,0,1,222.093,180.485Zm-6.545,5.628a3.72,3.72,0,0,0,.352,1.585,2.618,2.618,0,0,0,.984,1.153,2.461,2.461,0,0,0,1.327.4,2.263,2.263,0,0,0,1.746-.819,3.226,3.226,0,0,0,.73-2.227,3.018,3.018,0,0,0-.722-2.133,2.37,2.37,0,0,0-1.816-.779,2.473,2.473,0,0,0-1.844.779A2.81,2.81,0,0,0,215.547,186.113Z" transform="translate(-19 -33.777)"/><path class="cls-4" d="M88.54,254.622V253.01h4.925v1.612H88.54Z" transform="translate(-19 -33.777)"/><path class="cls-4" d="M94.792,252.1a11.942,11.942,0,0,1,.477-3.727,4.634,4.634,0,0,1,1.416-2.177,3.619,3.619,0,0,1,2.364-.766,3.856,3.856,0,0,1,1.844.423,3.521,3.521,0,0,1,1.309,1.22,6.549,6.549,0,0,1,.811,1.942,12.9,12.9,0,0,1,.294,3.085,11.988,11.988,0,0,1-.472,3.709,4.636,4.636,0,0,1-1.412,2.182,3.62,3.62,0,0,1-2.374.771,3.583,3.583,0,0,1-2.965-1.354Q94.792,255.78,94.792,252.1Zm1.647,0q0,3.215.753,4.279a2.149,2.149,0,0,0,3.713,0q0.753-1.069.752-4.275,0-3.223-.752-4.284a2.234,2.234,0,0,0-1.875-1.06,2.053,2.053,0,0,0-1.763.935Q96.439,248.887,96.439,252.1Z" transform="translate(-19 -33.777)"/><path class="cls-4" d="M105.834,258.541v-1.826h1.826v1.826h-1.826Z" transform="translate(-19 -33.777)"/><path class="cls-4" d="M116.041,258.541h-1.6V248.326a8.289,8.289,0,0,1-1.518,1.1,10.753,10.753,0,0,1-1.688.828v-1.55a9.678,9.678,0,0,0,2.351-1.532,6.026,6.026,0,0,0,1.425-1.746h1.033v13.109Z" transform="translate(-19 -33.777)"/><path class="cls-4" d="M120.387,255.521l1.541-.143a2.673,2.673,0,0,0,.748,1.576,2.055,2.055,0,0,0,1.416.49,2.446,2.446,0,0,0,1.3-.338,2.761,2.761,0,0,0,.913-0.9,5.3,5.3,0,0,0,.6-1.527,8.028,8.028,0,0,0,.241-1.959q0-.107-0.009-0.321a3.67,3.67,0,0,1-1.314,1.242,3.568,3.568,0,0,1-1.8.477,3.647,3.647,0,0,1-2.743-1.175,4.3,4.3,0,0,1-1.122-3.1,4.405,4.405,0,0,1,1.171-3.2,3.911,3.911,0,0,1,2.934-1.211,4.188,4.188,0,0,1,2.329.686,4.285,4.285,0,0,1,1.6,1.955,9.627,9.627,0,0,1,.548,3.674,11.887,11.887,0,0,1-.543,3.985,4.67,4.67,0,0,1-1.616,2.257,4.185,4.185,0,0,1-2.516.775A3.449,3.449,0,0,1,120.387,255.521Zm6.563-5.762a3.138,3.138,0,0,0-.735-2.19,2.3,2.3,0,0,0-1.768-.811,2.441,2.441,0,0,0-1.861.873,3.234,3.234,0,0,0-.793,2.262,2.792,2.792,0,0,0,.753,2.026,2.477,2.477,0,0,0,1.856.779,2.376,2.376,0,0,0,1.831-.779A3.07,3.07,0,0,0,126.95,249.759Z" transform="translate(-19 -33.777)"/><path class="cls-4" d="M97.376,218.848a11.942,11.942,0,0,1,.477-3.727,4.634,4.634,0,0,1,1.416-2.177,3.619,3.619,0,0,1,2.364-.766,3.856,3.856,0,0,1,1.844.423,3.521,3.521,0,0,1,1.309,1.22,6.549,6.549,0,0,1,.811,1.942,12.9,12.9,0,0,1,.294,3.085,11.988,11.988,0,0,1-.472,3.709,4.636,4.636,0,0,1-1.412,2.182,3.62,3.62,0,0,1-2.374.771,3.583,3.583,0,0,1-2.965-1.354Q97.377,222.526,97.376,218.848Zm1.647,0q0,3.215.753,4.279a2.149,2.149,0,0,0,3.713,0q0.753-1.069.752-4.275,0-3.223-.752-4.284a2.234,2.234,0,0,0-1.875-1.06,2.053,2.053,0,0,0-1.763.935Q99.024,215.633,99.024,218.848Z" transform="translate(-19 -33.777)"/><path class="cls-4" d="M108.419,225.287v-1.826h1.826v1.826h-1.826Z" transform="translate(-19 -33.777)"/><path class="cls-4" d="M112.587,218.848a11.942,11.942,0,0,1,.477-3.727,4.634,4.634,0,0,1,1.416-2.177,3.619,3.619,0,0,1,2.364-.766,3.856,3.856,0,0,1,1.844.423A3.521,3.521,0,0,1,120,213.82a6.549,6.549,0,0,1,.811,1.942,12.9,12.9,0,0,1,.294,3.085,11.988,11.988,0,0,1-.472,3.709,4.636,4.636,0,0,1-1.412,2.182,3.62,3.62,0,0,1-2.374.771,3.583,3.583,0,0,1-2.965-1.354Q112.588,222.526,112.587,218.848Zm1.647,0q0,3.215.753,4.279a2.149,2.149,0,0,0,3.713,0q0.753-1.069.752-4.275,0-3.223-.752-4.284a2.234,2.234,0,0,0-1.875-1.06,2.053,2.053,0,0,0-1.763.935Q114.235,215.633,114.235,218.848Z" transform="translate(-19 -33.777)"/><path class="cls-4" d="M128.769,225.287h-1.6V215.072a8.289,8.289,0,0,1-1.518,1.1,10.753,10.753,0,0,1-1.688.828v-1.55a9.678,9.678,0,0,0,2.351-1.532,6.026,6.026,0,0,0,1.425-1.746h1.033v13.109Z" transform="translate(-19 -33.777)"/><path class="cls-4" d="M95.839,183.706a11.942,11.942,0,0,1,.477-3.727,4.634,4.634,0,0,1,1.416-2.177,3.619,3.619,0,0,1,2.364-.766,3.856,3.856,0,0,1,1.844.423,3.521,3.521,0,0,1,1.309,1.22,6.549,6.549,0,0,1,.811,1.942,12.9,12.9,0,0,1,.294,3.085,11.988,11.988,0,0,1-.472,3.709,4.636,4.636,0,0,1-1.412,2.182,3.62,3.62,0,0,1-2.374.771,3.583,3.583,0,0,1-2.965-1.354Q95.839,187.385,95.839,183.706Zm1.647,0q0,3.215.753,4.279a2.149,2.149,0,0,0,3.713,0q0.753-1.069.752-4.275,0-3.223-.752-4.284a2.234,2.234,0,0,0-1.875-1.06,2.053,2.053,0,0,0-1.763.935Q97.487,180.492,97.486,183.706Z" transform="translate(-19 -33.777)"/><path class="cls-4" d="M106.882,190.145v-1.826h1.826v1.826h-1.826Z" transform="translate(-19 -33.777)"/><path class="cls-4" d="M111.157,178.8v-1.541h8.452v1.247a17.783,17.783,0,0,0-2.471,3.526,21.483,21.483,0,0,0-1.893,4.524,16.818,16.818,0,0,0-.615,3.589h-1.647a16.023,16.023,0,0,1,.605-3.723,19.581,19.581,0,0,1,1.661-4.208,18.029,18.029,0,0,1,2.3-3.415h-6.395Z" transform="translate(-19 -33.777)"/><path class="cls-4" d="M129.511,180.287l-1.594.125a3.021,3.021,0,0,0-.606-1.372,2.121,2.121,0,0,0-1.6-.686,2.206,2.206,0,0,0-1.345.427,3.658,3.658,0,0,0-1.193,1.612,8.422,8.422,0,0,0-.454,3.019,3.718,3.718,0,0,1,1.416-1.309,3.812,3.812,0,0,1,1.754-.427,3.634,3.634,0,0,1,2.729,1.18,4.237,4.237,0,0,1,1.127,3.05,5.018,5.018,0,0,1-.53,2.285,3.86,3.86,0,0,1-1.456,1.616,3.975,3.975,0,0,1-2.1.561,4.107,4.107,0,0,1-3.269-1.474q-1.264-1.474-1.265-4.858,0-3.784,1.4-5.5a4.02,4.02,0,0,1,3.286-1.5A3.5,3.5,0,0,1,129.511,180.287Zm-6.545,5.628a3.72,3.72,0,0,0,.352,1.585,2.618,2.618,0,0,0,.984,1.153,2.461,2.461,0,0,0,1.327.4,2.263,2.263,0,0,0,1.746-.819A3.226,3.226,0,0,0,128.1,186a3.018,3.018,0,0,0-.722-2.133,2.37,2.37,0,0,0-1.816-.779,2.473,2.473,0,0,0-1.844.779A2.81,2.81,0,0,0,122.966,185.915Z" transform="translate(-19 -33.777)"/><path class="cls-4" d="M185.206,254.622V253.01h4.925v1.612h-4.925Z" transform="translate(-19 -33.777)"/><path class="cls-4" d="M191.458,252.1a11.942,11.942,0,0,1,.477-3.727,4.634,4.634,0,0,1,1.416-2.177,3.619,3.619,0,0,1,2.364-.766,3.856,3.856,0,0,1,1.844.423,3.521,3.521,0,0,1,1.309,1.22,6.549,6.549,0,0,1,.811,1.942,12.9,12.9,0,0,1,.294,3.085,11.988,11.988,0,0,1-.472,3.709,4.636,4.636,0,0,1-1.412,2.182,3.62,3.62,0,0,1-2.374.771,3.583,3.583,0,0,1-2.965-1.354Q191.458,255.78,191.458,252.1Zm1.647,0q0,3.215.753,4.279a2.149,2.149,0,0,0,3.713,0q0.753-1.069.752-4.275,0-3.223-.752-4.284a2.234,2.234,0,0,0-1.875-1.06,2.053,2.053,0,0,0-1.763.935Q193.105,248.887,193.1,252.1Z" transform="translate(-19 -33.777)"/><path class="cls-4" d="M202.5,258.541v-1.826h1.826v1.826H202.5Z" transform="translate(-19 -33.777)"/><path class="cls-4" d="M215.093,257v1.541h-8.629a2.828,2.828,0,0,1,.187-1.113,5.885,5.885,0,0,1,1.055-1.736,16.523,16.523,0,0,1,2.1-1.977,17.778,17.778,0,0,0,2.877-2.766,3.311,3.311,0,0,0,.748-1.928,2.141,2.141,0,0,0-.682-1.607,2.457,2.457,0,0,0-1.776-.655,2.5,2.5,0,0,0-1.853.695,2.628,2.628,0,0,0-.7,1.923l-1.647-.169a4.056,4.056,0,0,1,1.273-2.81,4.345,4.345,0,0,1,2.966-.966,4.139,4.139,0,0,1,2.974,1.042,3.421,3.421,0,0,1,1.1,2.583,3.913,3.913,0,0,1-.321,1.541,5.981,5.981,0,0,1-1.064,1.594,25.973,25.973,0,0,1-2.472,2.3q-1.442,1.211-1.852,1.643a5.236,5.236,0,0,0-.677.869h6.4Z" transform="translate(-19 -33.777)"/><path class="cls-4" d="M216.919,247.195v-1.541h8.452V246.9a17.783,17.783,0,0,0-2.471,3.526,21.483,21.483,0,0,0-1.893,4.524,16.818,16.818,0,0,0-.615,3.589h-1.647a16.023,16.023,0,0,1,.605-3.723,19.581,19.581,0,0,1,1.661-4.208,18.029,18.029,0,0,1,2.3-3.415h-6.395Z" transform="translate(-19 -33.777)"/><path class="cls-4" d="M188.42,218.848a11.942,11.942,0,0,1,.477-3.727,4.634,4.634,0,0,1,1.416-2.177,3.619,3.619,0,0,1,2.364-.766,3.856,3.856,0,0,1,1.844.423,3.521,3.521,0,0,1,1.309,1.22,6.549,6.549,0,0,1,.811,1.942,12.9,12.9,0,0,1,.294,3.085,11.988,11.988,0,0,1-.472,3.709,4.636,4.636,0,0,1-1.412,2.182,3.62,3.62,0,0,1-2.374.771,3.583,3.583,0,0,1-2.965-1.354Q188.421,222.526,188.42,218.848Zm1.647,0q0,3.215.753,4.279a2.149,2.149,0,0,0,3.713,0q0.753-1.069.752-4.275,0-3.223-.752-4.284a2.234,2.234,0,0,0-1.875-1.06,2.053,2.053,0,0,0-1.763.935Q190.068,215.633,190.068,218.848Z" transform="translate(-19 -33.777)"/><path class="cls-4" d="M199.463,225.287v-1.826h1.826v1.826h-1.826Z" transform="translate(-19 -33.777)"/><path class="cls-4" d="M203.631,218.848a11.942,11.942,0,0,1,.477-3.727,4.634,4.634,0,0,1,1.416-2.177,3.619,3.619,0,0,1,2.364-.766,3.856,3.856,0,0,1,1.844.423,3.521,3.521,0,0,1,1.309,1.22,6.549,6.549,0,0,1,.811,1.942,12.9,12.9,0,0,1,.294,3.085,11.988,11.988,0,0,1-.472,3.709,4.636,4.636,0,0,1-1.412,2.182,3.62,3.62,0,0,1-2.374.771,3.583,3.583,0,0,1-2.965-1.354Q203.632,222.526,203.631,218.848Zm1.647,0q0,3.215.753,4.279a2.149,2.149,0,0,0,3.713,0q0.753-1.069.752-4.275,0-3.223-.752-4.284a2.234,2.234,0,0,0-1.875-1.06,2.053,2.053,0,0,0-1.763.935Q205.279,215.633,205.279,218.848Z" transform="translate(-19 -33.777)"/><path class="cls-4" d="M216.242,218.207a3.016,3.016,0,0,1-1.478-1.042,2.723,2.723,0,0,1-.481-1.621,3.171,3.171,0,0,1,1.024-2.4,4.31,4.31,0,0,1,5.477.022,3.214,3.214,0,0,1,1.042,2.418,2.661,2.661,0,0,1-.477,1.581,3,3,0,0,1-1.447,1.038,3.512,3.512,0,0,1,1.83,1.265,3.474,3.474,0,0,1,.628,2.084,3.75,3.75,0,0,1-1.185,2.814,4.824,4.824,0,0,1-6.234,0,3.8,3.8,0,0,1-1.185-2.854,3.448,3.448,0,0,1,.646-2.133A3.234,3.234,0,0,1,216.242,218.207ZM215.4,221.52a2.9,2.9,0,0,0,.325,1.327,2.29,2.29,0,0,0,.966.993,2.82,2.82,0,0,0,1.38.352,2.588,2.588,0,0,0,1.9-.739,2.53,2.53,0,0,0,.748-1.879,2.572,2.572,0,0,0-.771-1.915,2.641,2.641,0,0,0-1.928-.757A2.55,2.55,0,0,0,215.4,221.52Zm0.517-6.029a2.033,2.033,0,0,0,.6,1.514,2.114,2.114,0,0,0,1.549.588,2.074,2.074,0,0,0,1.519-.583,1.928,1.928,0,0,0,.592-1.429,2,2,0,0,0-.61-1.483,2.077,2.077,0,0,0-1.519-.6,2.1,2.1,0,0,0-1.523.587A1.893,1.893,0,0,0,215.921,215.49Z" transform="translate(-19 -33.777)"/><path class="cls-4" d="M398.49,225.13h-1.6V214.916a8.328,8.328,0,0,1-1.519,1.1,10.812,10.812,0,0,1-1.687.828V215.3a9.675,9.675,0,0,0,2.351-1.532,6.023,6.023,0,0,0,1.425-1.746h1.033V225.13Z" transform="translate(-19 -33.777)"/><path class="cls-4" d="M403.5,225.13V223.3h1.826v1.826H403.5Z" transform="translate(-19 -33.777)"/><path class="cls-4" d="M407.663,218.691a11.957,11.957,0,0,1,.477-3.727,4.638,4.638,0,0,1,1.416-2.177,3.618,3.618,0,0,1,2.364-.766,3.854,3.854,0,0,1,1.844.423,3.526,3.526,0,0,1,1.31,1.22,6.549,6.549,0,0,1,.81,1.942,12.877,12.877,0,0,1,.294,3.085,11.99,11.99,0,0,1-.472,3.709,4.636,4.636,0,0,1-1.411,2.182,3.622,3.622,0,0,1-2.374.771A3.584,3.584,0,0,1,408.954,224Q407.664,222.37,407.663,218.691Zm1.647,0q0,3.215.753,4.279a2.15,2.15,0,0,0,3.714,0q0.751-1.069.752-4.275,0-3.223-.752-4.284a2.235,2.235,0,0,0-1.875-1.06,2.054,2.054,0,0,0-1.764.935Q409.311,215.477,409.311,218.691Z" transform="translate(-19 -33.777)"/><path class="cls-4" d="M417.807,218.691a11.957,11.957,0,0,1,.477-3.727,4.638,4.638,0,0,1,1.416-2.177,3.618,3.618,0,0,1,2.364-.766,3.854,3.854,0,0,1,1.844.423,3.526,3.526,0,0,1,1.31,1.22,6.549,6.549,0,0,1,.81,1.942,12.877,12.877,0,0,1,.294,3.085,11.99,11.99,0,0,1-.472,3.709,4.636,4.636,0,0,1-1.411,2.182,3.622,3.622,0,0,1-2.374.771A3.584,3.584,0,0,1,419.1,224Q417.807,222.37,417.807,218.691Zm1.647,0q0,3.215.753,4.279a2.15,2.15,0,0,0,3.714,0q0.751-1.069.752-4.275,0-3.223-.752-4.284a2.235,2.235,0,0,0-1.875-1.06,2.054,2.054,0,0,0-1.764.935Q419.455,215.477,419.454,218.691Z" transform="translate(-19 -33.777)"/><path class="cls-4" d="M392.452,252.023a11.957,11.957,0,0,1,.477-3.727,4.638,4.638,0,0,1,1.416-2.177,3.618,3.618,0,0,1,2.364-.766,3.854,3.854,0,0,1,1.844.423,3.526,3.526,0,0,1,1.31,1.22,6.549,6.549,0,0,1,.81,1.942,12.877,12.877,0,0,1,.294,3.085,11.99,11.99,0,0,1-.472,3.709,4.636,4.636,0,0,1-1.411,2.182,3.622,3.622,0,0,1-2.374.771,3.584,3.584,0,0,1-2.966-1.354Q392.453,255.7,392.452,252.023Zm1.647,0q0,3.215.753,4.279a2.15,2.15,0,0,0,3.714,0q0.751-1.069.752-4.275,0-3.223-.752-4.284a2.235,2.235,0,0,0-1.875-1.06,2.054,2.054,0,0,0-1.764.935Q394.1,248.809,394.1,252.023Z" transform="translate(-19 -33.777)"/><path class="cls-4" d="M403.5,258.462v-1.826h1.826v1.826H403.5Z" transform="translate(-19 -33.777)"/><path class="cls-4" d="M407.663,252.023a11.957,11.957,0,0,1,.477-3.727,4.638,4.638,0,0,1,1.416-2.177,3.618,3.618,0,0,1,2.364-.766,3.854,3.854,0,0,1,1.844.423,3.526,3.526,0,0,1,1.31,1.22,6.549,6.549,0,0,1,.81,1.942,12.877,12.877,0,0,1,.294,3.085,11.99,11.99,0,0,1-.472,3.709,4.636,4.636,0,0,1-1.411,2.182,3.622,3.622,0,0,1-2.374.771,3.584,3.584,0,0,1-2.966-1.354Q407.664,255.7,407.663,252.023Zm1.647,0q0,3.215.753,4.279a2.15,2.15,0,0,0,3.714,0q0.751-1.069.752-4.275,0-3.223-.752-4.284a2.235,2.235,0,0,0-1.875-1.06,2.054,2.054,0,0,0-1.764.935Q409.311,248.809,409.311,252.023Z" transform="translate(-19 -33.777)"/><path class="cls-4" d="M417.807,255.042l1.684-.143a3.015,3.015,0,0,0,.868,1.848,2.357,2.357,0,0,0,1.643.619,2.559,2.559,0,0,0,1.96-.873,3.289,3.289,0,0,0,.8-2.315,2.976,2.976,0,0,0-.77-2.164,2.688,2.688,0,0,0-2.018-.792,2.8,2.8,0,0,0-1.4.352,2.721,2.721,0,0,0-.979.913l-1.5-.2,1.265-6.706h6.492v1.532h-5.21l-0.7,3.509a4.245,4.245,0,0,1,2.467-.819,3.906,3.906,0,0,1,2.885,1.185,4.137,4.137,0,0,1,1.176,3.045,4.749,4.749,0,0,1-1.033,3.063A4.136,4.136,0,0,1,422,258.685a4.222,4.222,0,0,1-2.907-1A3.894,3.894,0,0,1,417.807,255.042Z" transform="translate(-19 -33.777)"/><path class="cls-4" d="M497.876,258.562h-1.6V248.347a8.328,8.328,0,0,1-1.519,1.1,10.813,10.813,0,0,1-1.687.828v-1.55a9.675,9.675,0,0,0,2.351-1.532,6.023,6.023,0,0,0,1.425-1.746h1.033v13.109Z" transform="translate(-19 -33.777)"/><path class="cls-4" d="M502.881,258.562v-1.826h1.826v1.826h-1.826Z" transform="translate(-19 -33.777)"/><path class="cls-4" d="M507.049,252.123a11.957,11.957,0,0,1,.477-3.727,4.638,4.638,0,0,1,1.416-2.177,3.618,3.618,0,0,1,2.364-.766,3.854,3.854,0,0,1,1.844.423,3.526,3.526,0,0,1,1.31,1.22,6.549,6.549,0,0,1,.81,1.942,12.877,12.877,0,0,1,.294,3.085,11.99,11.99,0,0,1-.472,3.709,4.636,4.636,0,0,1-1.411,2.182,3.622,3.622,0,0,1-2.374.771,3.584,3.584,0,0,1-2.966-1.354Q507.049,255.8,507.049,252.123Zm1.647,0q0,3.215.753,4.279a2.15,2.15,0,0,0,3.714,0q0.751-1.069.752-4.275,0-3.223-.752-4.284a2.235,2.235,0,0,0-1.875-1.06,2.054,2.054,0,0,0-1.764.935Q508.7,248.909,508.7,252.123Z" transform="translate(-19 -33.777)"/><path class="cls-4" d="M517.192,252.123a11.957,11.957,0,0,1,.477-3.727,4.638,4.638,0,0,1,1.416-2.177,3.618,3.618,0,0,1,2.364-.766,3.854,3.854,0,0,1,1.844.423,3.526,3.526,0,0,1,1.31,1.22,6.549,6.549,0,0,1,.81,1.942,12.877,12.877,0,0,1,.294,3.085,11.99,11.99,0,0,1-.472,3.709,4.636,4.636,0,0,1-1.411,2.182,3.622,3.622,0,0,1-2.374.771,3.584,3.584,0,0,1-2.966-1.354Q517.193,255.8,517.192,252.123Zm1.647,0q0,3.215.753,4.279a2.15,2.15,0,0,0,3.714,0q0.751-1.069.752-4.275,0-3.223-.752-4.284a2.235,2.235,0,0,0-1.875-1.06,2.054,2.054,0,0,0-1.764.935Q518.84,248.909,518.84,252.123Z" transform="translate(-19 -33.777)"/></svg>