<svg id="Layer_1" data-name="Layer 1" xmlns="http://www.w3.org/2000/svg" viewBox="0 0 450.13 192.57"><defs><style>.cls-1{fill:none;stroke:#4161ad;stroke-width:3px;}.cls-1,.cls-5{stroke-miterlimit:10;}.cls-2,.cls-3{font-size:14px;font-family:Arial;}.cls-2{fill:#231f20;}.cls-3,.cls-5,.cls-6{fill:#af6f29;}.cls-3{text-decoration:underline;}.cls-4{white-space:pre;}.cls-5{stroke:#af6f29;stroke-width:4px;}</style></defs><title>Correlation_Basis_Diversification</title><line class="cls-1" x1="42.35" y1="60.09" x2="407.78" y2="60.09"/><line class="cls-1" x1="42.35" y1="38.99" x2="42.35" y2="80.3"/><line class="cls-1" x1="407.78" y1="39.44" x2="407.78" y2="80.75"/><line class="cls-1" x1="222.54" y1="45.09" x2="222.54" y2="75.1"/><text class="cls-2" transform="translate(19.4 12.01)">Inverse<tspan x="-11.28" y="16.8">Correlation</tspan></text><text class="cls-2" transform="translate(385.6 12.01)">Perfect<tspan x="-12.06" y="16.8">Correlation</tspan></text><text class="cls-2" transform="translate(213.59 22.21)">No<tspan x="-25.29" y="16.8">Correlation</tspan></text><text class="cls-2" transform="translate(36.13 96.72)">-1</text><text class="cls-2" transform="translate(218.65 96.72)">0</text><text class="cls-2" transform="translate(399.8 96.72)">+1</text><text class="cls-3" transform="translate(131.78 147.03)">Gold</text><text class="cls-3" transform="translate(380.28 169.69)">S&amp;<tspan x="18.68" y="0">P</tspan><tspan class="cls-4" x="27.76" y="0"> 500</tspan></text><text class="cls-3" transform="translate(188.69 167.49)">LB/Bar GC<tspan x="-1.57" y="16.8">Bond Index</tspan></text><line class="cls-5" x1="146.56" y1="132.49" x2="146.56" y2="99.26"/><polygon class="cls-6" points="139.31 99.26 146.56 86.7 153.81 99.26 139.31 99.26"/><line class="cls-5" x1="222.54" y1="151.93" x2="222.54" y2="118.69"/><polygon class="cls-6" points="215.29 118.69 222.54 106.13 229.79 118.69 215.29 118.69"/><line class="cls-5" x1="407.78" y1="151.93" x2="407.78" y2="118.69"/><polygon class="cls-6" points="400.53 118.69 407.78 106.13 415.03 118.69 400.53 118.69"/></svg>