<svg id="Layer_1" data-name="Layer 1" xmlns="http://www.w3.org/2000/svg" viewBox="0 0 557.59 258.69"><defs><style>.cls-1{fill:#e2d8a8;}.cls-2,.cls-3,.cls-6{font-size:17.66px;font-family:Arial;}.cls-2,.cls-3{fill:#231f20;}.cls-2{font-weight:700;}.cls-4{white-space:pre;}.cls-5{fill:#546eb4;}.cls-6{fill:#fff;}</style></defs><title>Correlation_Between_Indices</title><rect class="cls-1" y="26.34" width="557.59" height="232.35"/><text class="cls-2" transform="translate(0 15.15)">Correlation of<tspan x="115.75" y="0"> </tspan><tspan x="120" y="0">Asset Classes (1991-2015)</tspan></text><text class="cls-3" transform="translate(22.77 90.3)">0%</text><text class="cls-3" transform="translate(7.07 219.87)">-40%</text><text class="cls-3" transform="translate(71.18 56.28)">DJI<tspan x="26.48" y="0">A</tspan></text><text class="cls-3" transform="translate(146.98 56.28)">S&amp;<tspan x="23.55" y="0">P</tspan><tspan class="cls-4" x="35.01" y="0"> 500</tspan></text><text class="cls-3" transform="translate(258.59 56.28)">EAFE</text><text class="cls-3" transform="translate(342.73 56.28)">LB/B GC</text><text class="cls-3" transform="translate(7.07 122.05)">-10%</text><text class="cls-3" transform="translate(7.07 155.33)">-20%</text><text class="cls-3" transform="translate(7.07 189.15)">-30%</text><text class="cls-3" transform="translate(448.23 56.28)">GOLD</text><rect class="cls-5" x="54.56" y="65.34" width="469" height="166.24"/><text class="cls-6" transform="translate(72.64 90.3)">1.00</text><text class="cls-6" transform="translate(163.75 121.07)">1.00</text><text class="cls-6" transform="translate(264.16 153.78)">1.00</text><text class="cls-6" transform="translate(261.39 187.6)">-0.15</text><text class="cls-6" transform="translate(77.55 122.54)">.96</text><text class="cls-6" transform="translate(264.46 219.89)">0.07</text><text class="cls-6" transform="translate(168.18 153.85)">.76</text><text class="cls-6" transform="translate(69.7 219.87)">-0.19</text><text class="cls-6" transform="translate(73.67 187.68)">0.01</text><text class="cls-6" transform="translate(78.56 153.66)">.76</text><text class="cls-6" transform="translate(160.33 219.87)">-0.27</text><text class="cls-6" transform="translate(163.27 187.68)">0.08</text><text class="cls-6" transform="translate(360.78 187.53)">1.00</text><text class="cls-6" transform="translate(360.78 219.8)">0.05</text><text class="cls-6" transform="translate(456.99 219.89)">1.00</text></svg>