<svg id="Layer_1" data-name="Layer 1" xmlns="http://www.w3.org/2000/svg" viewBox="0 0 582.608 342.208"><defs><style>.cls-1{fill:#e2d8a8;}.cls-2{fill:#231f20;}.cls-3{fill:#b2b3b3;}.cls-4{fill:#ed1e24;}.cls-5{fill:#fff;}.cls-6{fill:none;stroke:#f1f2f2;stroke-miterlimit:10;}</style></defs><title>Impact_Time_Market_Risk</title><rect class="cls-1" x="48.876" y="45.224" width="533.732" height="259.49"/><path class="cls-2" d="M31.395,29.242V18.283h4.872a6.5,6.5,0,0,1,2.233.295,2.444,2.444,0,0,1,1.222,1.043,3.108,3.108,0,0,1,.458,1.652,2.751,2.751,0,0,1-.757,1.966,3.836,3.836,0,0,1-2.338,1.017,3.765,3.765,0,0,1,.877.546,7.54,7.54,0,0,1,1.207,1.458l1.912,2.983H39.25L37.8,26.962q-0.637-.987-1.049-1.51a3.293,3.293,0,0,0-.738-0.732,2.193,2.193,0,0,0-.663-0.292,4.405,4.405,0,0,0-.81-0.052H32.849v4.867H31.395Zm1.454-6.123h3.125a4.7,4.7,0,0,0,1.559-.206,1.656,1.656,0,0,0,.854-0.658,1.778,1.778,0,0,0,.292-0.983A1.632,1.632,0,0,0,38.114,20a2.652,2.652,0,0,0-1.788-.5H32.849V23.12Z" transform="translate(-20.392 -18.096)"/><path class="cls-2" d="M47.479,28.263a5.04,5.04,0,0,1-1.443.9,4.182,4.182,0,0,1-1.488.261,2.9,2.9,0,0,1-2.016-.639,2.106,2.106,0,0,1-.7-1.633,2.163,2.163,0,0,1,.266-1.065,2.2,2.2,0,0,1,.7-0.774,3.283,3.283,0,0,1,.971-0.441,9.664,9.664,0,0,1,1.2-.2,12.337,12.337,0,0,0,2.406-.463q0.007-.276.007-0.351a1.483,1.483,0,0,0-.382-1.159,2.261,2.261,0,0,0-1.537-.456,2.389,2.389,0,0,0-1.405.333,2.032,2.032,0,0,0-.671,1.177l-1.319-.179a3.251,3.251,0,0,1,.592-1.364,2.592,2.592,0,0,1,1.192-.8,5.323,5.323,0,0,1,1.806-.281,4.8,4.8,0,0,1,1.657.239,2.185,2.185,0,0,1,.937.6,2.112,2.112,0,0,1,.42.916,7.57,7.57,0,0,1,.067,1.241v1.794a18.945,18.945,0,0,0,.086,2.374,2.976,2.976,0,0,0,.341.953H47.749A2.852,2.852,0,0,1,47.479,28.263Zm-0.112-3a9.94,9.94,0,0,1-2.2.508,5.1,5.1,0,0,0-1.177.269,1.172,1.172,0,0,0-.532.438,1.187,1.187,0,0,0,.221,1.536,1.759,1.759,0,0,0,1.2.359,2.786,2.786,0,0,0,1.387-.34,2.1,2.1,0,0,0,.892-0.931,3.239,3.239,0,0,0,.218-1.346V25.258Z" transform="translate(-20.392 -18.096)"/><path class="cls-2" d="M50.822,29.242V21.3h1.214v1.129a2.864,2.864,0,0,1,2.533-1.309,3.333,3.333,0,0,1,1.323.258,2.082,2.082,0,0,1,.9.676,2.6,2.6,0,0,1,.42.994,7.717,7.717,0,0,1,.075,1.309v4.881H55.941V24.413a3.618,3.618,0,0,0-.157-1.23,1.3,1.3,0,0,0-.559-0.65,1.781,1.781,0,0,0-.94-0.243,2.189,2.189,0,0,0-1.488.545,2.688,2.688,0,0,0-.626,2.071v4.336H50.822Z" transform="translate(-20.392 -18.096)"/><path class="cls-2" d="M59.112,29.9l1.312,0.194a1.245,1.245,0,0,0,.457.882,2.252,2.252,0,0,0,1.372.374,2.416,2.416,0,0,0,1.447-.374,1.841,1.841,0,0,0,.689-1.046,8.591,8.591,0,0,0,.1-1.727,2.778,2.778,0,0,1-2.2,1.039,3.007,3.007,0,0,1-2.541-1.181,4.541,4.541,0,0,1-.9-2.833,5.261,5.261,0,0,1,.412-2.1,3.293,3.293,0,0,1,1.2-1.484,3.235,3.235,0,0,1,1.84-.523,2.856,2.856,0,0,1,2.324,1.137V21.3h1.244v6.862a6.5,6.5,0,0,1-.378,2.628,2.766,2.766,0,0,1-1.2,1.222,4.169,4.169,0,0,1-2.02.449,3.819,3.819,0,0,1-2.3-.639A2.16,2.16,0,0,1,59.112,29.9Zm1.117-4.769a3.435,3.435,0,0,0,.622,2.28,2.055,2.055,0,0,0,3.118,0,3.325,3.325,0,0,0,.63-2.239,3.251,3.251,0,0,0-.648-2.2,2.007,2.007,0,0,0-1.562-.74,1.95,1.95,0,0,0-1.529.729A3.233,3.233,0,0,0,60.229,25.131Z" transform="translate(-20.392 -18.096)"/><path class="cls-2" d="M73.346,26.686l1.394,0.172a3.4,3.4,0,0,1-1.222,1.892,3.682,3.682,0,0,1-2.279.672,3.644,3.644,0,0,1-2.769-1.073,4.184,4.184,0,0,1-1.023-3.009,4.379,4.379,0,0,1,1.035-3.11,3.506,3.506,0,0,1,2.683-1.106,3.409,3.409,0,0,1,2.608,1.084,4.3,4.3,0,0,1,1.012,3.05q0,0.119-.007.359H68.841a3.047,3.047,0,0,0,.742,2,2.212,2.212,0,0,0,1.664.7,2.068,2.068,0,0,0,1.267-.389A2.579,2.579,0,0,0,73.346,26.686Zm-4.43-2.175H73.36a2.68,2.68,0,0,0-.509-1.5,2.071,2.071,0,0,0-1.671-.778,2.147,2.147,0,0,0-1.563.621A2.451,2.451,0,0,0,68.916,24.51Z" transform="translate(-20.392 -18.096)"/><path class="cls-2" d="M80.2,25.272a4.087,4.087,0,0,1,1.229-3.267,3.711,3.711,0,0,1,2.5-.882A3.577,3.577,0,0,1,86.612,22.2a4.075,4.075,0,0,1,1.042,2.964,5.242,5.242,0,0,1-.461,2.411,3.253,3.253,0,0,1-1.342,1.364,3.911,3.911,0,0,1-1.922.486,3.582,3.582,0,0,1-2.7-1.069A4.263,4.263,0,0,1,80.2,25.272Zm1.387,0a3.375,3.375,0,0,0,.667,2.284,2.224,2.224,0,0,0,3.35,0,3.454,3.454,0,0,0,.667-2.325A3.274,3.274,0,0,0,85.6,23a2.228,2.228,0,0,0-3.346,0A3.359,3.359,0,0,0,81.583,25.272Z" transform="translate(-20.392 -18.096)"/><path class="cls-2" d="M89.558,29.242V22.35H88.366V21.3h1.191V20.458A3.679,3.679,0,0,1,89.7,19.27a1.721,1.721,0,0,1,.686-0.849,2.478,2.478,0,0,1,1.375-.325,6.613,6.613,0,0,1,1.259.135l-0.2,1.173a4.549,4.549,0,0,0-.795-0.075,1.184,1.184,0,0,0-.869.262,1.416,1.416,0,0,0-.255.979V21.3h1.551V22.35H90.9v6.893H89.558Z" transform="translate(-20.392 -18.096)"/><path class="cls-2" d="M97.442,25.721l1.372-.12a3.017,3.017,0,0,0,.454,1.35,2.477,2.477,0,0,0,1.105.852,4.2,4.2,0,0,0,1.687.325,4.058,4.058,0,0,0,1.469-.247,2.039,2.039,0,0,0,.948-0.677,1.565,1.565,0,0,0,.311-0.938,1.425,1.425,0,0,0-.3-0.9,2.219,2.219,0,0,0-.989-0.646,19.331,19.331,0,0,0-1.956-.535,9.991,9.991,0,0,1-2.121-.684,2.969,2.969,0,0,1-1.173-1.021,2.5,2.5,0,0,1-.386-1.364,2.779,2.779,0,0,1,.472-1.551,2.925,2.925,0,0,1,1.379-1.1,5.247,5.247,0,0,1,2.016-.374,5.523,5.523,0,0,1,2.155.393,3.107,3.107,0,0,1,1.435,1.155,3.309,3.309,0,0,1,.54,1.727l-1.394.1a2.241,2.241,0,0,0-.761-1.57,2.966,2.966,0,0,0-1.915-.531,3.08,3.08,0,0,0-1.922.482,1.445,1.445,0,0,0-.6,1.163,1.244,1.244,0,0,0,.427.972,5.794,5.794,0,0,0,2.192.781,14.528,14.528,0,0,1,2.432.7,3.327,3.327,0,0,1,1.417,1.118,2.717,2.717,0,0,1,.458,1.559,2.975,2.975,0,0,1-.5,1.648,3.3,3.3,0,0,1-1.443,1.2,5.037,5.037,0,0,1-2.117.43,6.335,6.335,0,0,1-2.5-.434,3.5,3.5,0,0,1-1.582-1.3A3.692,3.692,0,0,1,97.442,25.721Z" transform="translate(-20.392 -18.096)"/><path class="cls-2" d="M110.949,28.039l0.195,1.188a5,5,0,0,1-1.02.12,2.315,2.315,0,0,1-1.139-.231,1.3,1.3,0,0,1-.57-0.609,4.81,4.81,0,0,1-.165-1.588V22.35h-0.989V21.3h0.989V19.337l1.341-.807V21.3h1.357V22.35h-1.357v4.643a2.338,2.338,0,0,0,.071.74,0.558,0.558,0,0,0,.232.262,0.9,0.9,0,0,0,.461.1A4.359,4.359,0,0,0,110.949,28.039Z" transform="translate(-20.392 -18.096)"/><path class="cls-2" d="M111.766,25.272a4.087,4.087,0,0,1,1.229-3.267,3.711,3.711,0,0,1,2.5-.882,3.577,3.577,0,0,1,2.683,1.073,4.075,4.075,0,0,1,1.042,2.964,5.242,5.242,0,0,1-.461,2.411,3.253,3.253,0,0,1-1.342,1.364,3.911,3.911,0,0,1-1.922.486,3.582,3.582,0,0,1-2.7-1.069A4.263,4.263,0,0,1,111.766,25.272Zm1.387,0a3.375,3.375,0,0,0,.667,2.284,2.224,2.224,0,0,0,3.35,0,3.454,3.454,0,0,0,.667-2.325A3.274,3.274,0,0,0,117.166,23a2.228,2.228,0,0,0-3.346,0A3.359,3.359,0,0,0,113.152,25.272Z" transform="translate(-20.392 -18.096)"/><path class="cls-2" d="M126,26.334l1.327,0.172a3.431,3.431,0,0,1-1.113,2.142,3.248,3.248,0,0,1-2.2.773,3.422,3.422,0,0,1-2.627-1.065,4.315,4.315,0,0,1-.993-3.054,5.518,5.518,0,0,1,.427-2.25,2.973,2.973,0,0,1,1.3-1.446,3.867,3.867,0,0,1,1.9-.482,3.308,3.308,0,0,1,2.121.654,3,3,0,0,1,1.057,1.858l-1.312.2a2.171,2.171,0,0,0-.664-1.2,1.72,1.72,0,0,0-1.15-.4,2.1,2.1,0,0,0-1.657.729,3.456,3.456,0,0,0-.637,2.306,3.571,3.571,0,0,0,.614,2.325,2,2,0,0,0,1.6.725,1.892,1.892,0,0,0,1.327-.486A2.408,2.408,0,0,0,126,26.334Z" transform="translate(-20.392 -18.096)"/><path class="cls-2" d="M128.487,29.242V18.283h1.349v6.25l3.193-3.229h1.746l-3.043,2.945,3.351,4.994h-1.664l-2.631-4.059-0.952.912v3.147h-1.349Z" transform="translate(-20.392 -18.096)"/><path class="cls-2" d="M140.614,29.242V18.283h4.872a6.5,6.5,0,0,1,2.233.295,2.444,2.444,0,0,1,1.222,1.043,3.108,3.108,0,0,1,.458,1.652,2.751,2.751,0,0,1-.757,1.966,3.836,3.836,0,0,1-2.338,1.017,3.765,3.765,0,0,1,.877.546,7.54,7.54,0,0,1,1.207,1.458l1.912,2.983h-1.829l-1.454-2.28q-0.637-.987-1.049-1.51a3.293,3.293,0,0,0-.738-0.732,2.193,2.193,0,0,0-.663-0.292,4.405,4.405,0,0,0-.81-0.052h-1.687v4.867h-1.454Zm1.454-6.123h3.125a4.7,4.7,0,0,0,1.559-.206,1.656,1.656,0,0,0,.854-0.658,1.778,1.778,0,0,0,.292-0.983A1.632,1.632,0,0,0,147.333,20a2.652,2.652,0,0,0-1.788-.5h-3.478V23.12Z" transform="translate(-20.392 -18.096)"/><path class="cls-2" d="M156.954,26.686l1.394,0.172a3.4,3.4,0,0,1-1.222,1.892,3.682,3.682,0,0,1-2.279.672,3.644,3.644,0,0,1-2.769-1.073,4.184,4.184,0,0,1-1.023-3.009,4.379,4.379,0,0,1,1.035-3.11,3.506,3.506,0,0,1,2.683-1.106,3.409,3.409,0,0,1,2.608,1.084,4.3,4.3,0,0,1,1.012,3.05q0,0.119-.007.359h-5.937a3.047,3.047,0,0,0,.742,2,2.212,2.212,0,0,0,1.664.7,2.068,2.068,0,0,0,1.267-.389A2.579,2.579,0,0,0,156.954,26.686Zm-4.43-2.175h4.444a2.68,2.68,0,0,0-.509-1.5,2.071,2.071,0,0,0-1.671-.778,2.147,2.147,0,0,0-1.563.621A2.451,2.451,0,0,0,152.524,24.51Z" transform="translate(-20.392 -18.096)"/><path class="cls-2" d="M162.987,28.039l0.195,1.188a5,5,0,0,1-1.02.12,2.315,2.315,0,0,1-1.139-.231,1.3,1.3,0,0,1-.57-0.609,4.81,4.81,0,0,1-.165-1.588V22.35H159.3V21.3h0.989V19.337l1.341-.807V21.3h1.357V22.35H161.63v4.643a2.338,2.338,0,0,0,.071.74,0.558,0.558,0,0,0,.232.262,0.9,0.9,0,0,0,.461.1A4.359,4.359,0,0,0,162.987,28.039Z" transform="translate(-20.392 -18.096)"/><path class="cls-2" d="M169.523,29.242V28.076A2.915,2.915,0,0,1,167,29.421a3.221,3.221,0,0,1-1.315-.269,2.164,2.164,0,0,1-.907-0.676,2.522,2.522,0,0,1-.416-1,6.794,6.794,0,0,1-.083-1.256V21.3h1.349v4.4a7.8,7.8,0,0,0,.083,1.42,1.4,1.4,0,0,0,.54.833,1.673,1.673,0,0,0,1.019.3,2.224,2.224,0,0,0,1.14-.31,1.726,1.726,0,0,0,.753-0.845,4.228,4.228,0,0,0,.221-1.551V21.3h1.349v7.939h-1.207Z" transform="translate(-20.392 -18.096)"/><path class="cls-2" d="M172.829,29.242V21.3h1.214v1.2a3.289,3.289,0,0,1,.858-1.114,1.5,1.5,0,0,1,.866-0.27,2.64,2.64,0,0,1,1.386.434l-0.464,1.249a1.935,1.935,0,0,0-.989-0.292,1.286,1.286,0,0,0-.795.266,1.437,1.437,0,0,0-.5.736,5.226,5.226,0,0,0-.225,1.57v4.156h-1.349Z" transform="translate(-20.392 -18.096)"/><path class="cls-2" d="M177.955,29.242V21.3h1.214v1.129a2.864,2.864,0,0,1,2.533-1.309,3.333,3.333,0,0,1,1.323.258,2.082,2.082,0,0,1,.9.676,2.6,2.6,0,0,1,.42.994,7.717,7.717,0,0,1,.075,1.309v4.881h-1.349V24.413a3.618,3.618,0,0,0-.157-1.23,1.3,1.3,0,0,0-.559-0.65,1.781,1.781,0,0,0-.94-0.243,2.189,2.189,0,0,0-1.488.545,2.688,2.688,0,0,0-.626,2.071v4.336h-1.349Z" transform="translate(-20.392 -18.096)"/><path class="cls-2" d="M185.953,26.873l1.334-.209a1.86,1.86,0,0,0,.626,1.226,2.185,2.185,0,0,0,1.436.426,2.111,2.111,0,0,0,1.379-.378,1.128,1.128,0,0,0,.45-0.886,0.817,0.817,0,0,0-.4-0.718,5.846,5.846,0,0,0-1.379-.456,12.62,12.62,0,0,1-2.058-.647,1.958,1.958,0,0,1-1.165-1.82,2.044,2.044,0,0,1,.243-0.983,2.189,2.189,0,0,1,.664-0.751,2.783,2.783,0,0,1,.858-0.392,4.083,4.083,0,0,1,1.166-.161,4.614,4.614,0,0,1,1.646.27,2.236,2.236,0,0,1,1.045.729,2.843,2.843,0,0,1,.465,1.23l-1.319.179a1.436,1.436,0,0,0-.521-0.957,1.907,1.907,0,0,0-1.218-.344,2.211,2.211,0,0,0-1.327.307,0.892,0.892,0,0,0-.4.718,0.741,0.741,0,0,0,.165.471,1.189,1.189,0,0,0,.517.359q0.2,0.075,1.192.344a16.655,16.655,0,0,1,2,.625,2.028,2.028,0,0,1,.888.707,1.967,1.967,0,0,1,.322,1.151,2.255,2.255,0,0,1-.394,1.267,2.54,2.54,0,0,1-1.136.919,4.142,4.142,0,0,1-1.679.325,3.747,3.747,0,0,1-2.365-.643A2.989,2.989,0,0,1,185.953,26.873Z" transform="translate(-20.392 -18.096)"/><path class="cls-2" d="M198.754,29.242V22.35h-1.191V21.3h1.191V20.458a3.679,3.679,0,0,1,.143-1.188,1.721,1.721,0,0,1,.686-0.849,2.478,2.478,0,0,1,1.375-.325,6.613,6.613,0,0,1,1.259.135l-0.2,1.173a4.549,4.549,0,0,0-.795-0.075,1.184,1.184,0,0,0-.869.262,1.416,1.416,0,0,0-.255.979V21.3h1.551V22.35H200.1v6.893h-1.342Z" transform="translate(-20.392 -18.096)"/><path class="cls-2" d="M202.194,25.272a4.087,4.087,0,0,1,1.229-3.267,3.711,3.711,0,0,1,2.5-.882A3.577,3.577,0,0,1,208.61,22.2a4.075,4.075,0,0,1,1.042,2.964,5.242,5.242,0,0,1-.461,2.411,3.253,3.253,0,0,1-1.342,1.364,3.911,3.911,0,0,1-1.922.486,3.582,3.582,0,0,1-2.7-1.069A4.263,4.263,0,0,1,202.194,25.272Zm1.387,0a3.375,3.375,0,0,0,.667,2.284,2.224,2.224,0,0,0,3.35,0,3.454,3.454,0,0,0,.667-2.325A3.274,3.274,0,0,0,207.594,23a2.228,2.228,0,0,0-3.346,0A3.359,3.359,0,0,0,203.581,25.272Z" transform="translate(-20.392 -18.096)"/><path class="cls-2" d="M211.219,29.242V21.3h1.214v1.2a3.289,3.289,0,0,1,.858-1.114,1.5,1.5,0,0,1,.866-0.27,2.64,2.64,0,0,1,1.386.434l-0.464,1.249a1.935,1.935,0,0,0-.989-0.292,1.286,1.286,0,0,0-.795.266,1.437,1.437,0,0,0-.5.736,5.226,5.226,0,0,0-.225,1.57v4.156h-1.349Z" transform="translate(-20.392 -18.096)"/><path class="cls-2" d="M223.923,29.242l-4.257-10.959h1.574l2.855,7.961q0.345,0.957.577,1.794,0.255-.9.592-1.794l2.968-7.961h1.484l-4.3,10.959h-1.492Z" transform="translate(-20.392 -18.096)"/><path class="cls-2" d="M234.9,28.263a5.04,5.04,0,0,1-1.443.9,4.182,4.182,0,0,1-1.488.261,2.9,2.9,0,0,1-2.016-.639,2.106,2.106,0,0,1-.7-1.633,2.163,2.163,0,0,1,.266-1.065,2.2,2.2,0,0,1,.7-0.774,3.283,3.283,0,0,1,.971-0.441,9.664,9.664,0,0,1,1.2-.2,12.337,12.337,0,0,0,2.406-.463q0.007-.276.007-0.351a1.483,1.483,0,0,0-.382-1.159,2.261,2.261,0,0,0-1.537-.456,2.389,2.389,0,0,0-1.405.333,2.032,2.032,0,0,0-.671,1.177l-1.319-.179a3.251,3.251,0,0,1,.592-1.364,2.592,2.592,0,0,1,1.192-.8,5.323,5.323,0,0,1,1.806-.281,4.8,4.8,0,0,1,1.657.239,2.185,2.185,0,0,1,.937.6,2.112,2.112,0,0,1,.42.916,7.57,7.57,0,0,1,.067,1.241v1.794a18.945,18.945,0,0,0,.086,2.374,2.976,2.976,0,0,0,.341.953h-1.409A2.852,2.852,0,0,1,234.9,28.263Zm-0.112-3a9.94,9.94,0,0,1-2.2.508,5.1,5.1,0,0,0-1.177.269,1.172,1.172,0,0,0-.532.438,1.187,1.187,0,0,0,.221,1.536,1.759,1.759,0,0,0,1.2.359,2.786,2.786,0,0,0,1.387-.34,2.1,2.1,0,0,0,.892-0.931,3.239,3.239,0,0,0,.218-1.346V25.258Z" transform="translate(-20.392 -18.096)"/><path class="cls-2" d="M238.231,29.242V21.3h1.214v1.2a3.289,3.289,0,0,1,.858-1.114,1.5,1.5,0,0,1,.866-0.27,2.64,2.64,0,0,1,1.386.434l-0.464,1.249a1.935,1.935,0,0,0-.989-0.292,1.286,1.286,0,0,0-.795.266,1.437,1.437,0,0,0-.5.736,5.226,5.226,0,0,0-.225,1.57v4.156h-1.349Z" transform="translate(-20.392 -18.096)"/><path class="cls-2" d="M243.366,19.831V18.283h1.349v1.547h-1.349Zm0,9.412V21.3h1.349v7.939h-1.349Z" transform="translate(-20.392 -18.096)"/><path class="cls-2" d="M246.266,25.272a4.087,4.087,0,0,1,1.229-3.267,3.711,3.711,0,0,1,2.5-.882,3.577,3.577,0,0,1,2.683,1.073,4.075,4.075,0,0,1,1.042,2.964,5.242,5.242,0,0,1-.461,2.411,3.253,3.253,0,0,1-1.342,1.364,3.911,3.911,0,0,1-1.922.486,3.582,3.582,0,0,1-2.7-1.069A4.263,4.263,0,0,1,246.266,25.272Zm1.387,0a3.375,3.375,0,0,0,.667,2.284,2.224,2.224,0,0,0,3.35,0,3.454,3.454,0,0,0,.667-2.325A3.274,3.274,0,0,0,251.666,23a2.228,2.228,0,0,0-3.346,0A3.359,3.359,0,0,0,247.653,25.272Z" transform="translate(-20.392 -18.096)"/><path class="cls-2" d="M260.522,29.242V28.076A2.915,2.915,0,0,1,258,29.421a3.221,3.221,0,0,1-1.315-.269,2.164,2.164,0,0,1-.907-0.676,2.522,2.522,0,0,1-.416-1,6.794,6.794,0,0,1-.083-1.256V21.3h1.349v4.4a7.8,7.8,0,0,0,.083,1.42,1.4,1.4,0,0,0,.54.833,1.673,1.673,0,0,0,1.019.3,2.224,2.224,0,0,0,1.14-.31,1.726,1.726,0,0,0,.753-0.845,4.228,4.228,0,0,0,.221-1.551V21.3h1.349v7.939h-1.207Z" transform="translate(-20.392 -18.096)"/><path class="cls-2" d="M263.3,26.873l1.334-.209a1.86,1.86,0,0,0,.626,1.226,2.185,2.185,0,0,0,1.436.426,2.111,2.111,0,0,0,1.379-.378,1.128,1.128,0,0,0,.45-0.886,0.817,0.817,0,0,0-.4-0.718,5.846,5.846,0,0,0-1.379-.456,12.62,12.62,0,0,1-2.058-.647,1.958,1.958,0,0,1-1.165-1.82,2.044,2.044,0,0,1,.243-0.983,2.189,2.189,0,0,1,.664-0.751,2.783,2.783,0,0,1,.858-0.392,4.083,4.083,0,0,1,1.166-.161,4.614,4.614,0,0,1,1.646.27,2.236,2.236,0,0,1,1.045.729,2.843,2.843,0,0,1,.465,1.23l-1.319.179a1.436,1.436,0,0,0-.521-0.957,1.907,1.907,0,0,0-1.218-.344,2.211,2.211,0,0,0-1.327.307,0.892,0.892,0,0,0-.4.718,0.741,0.741,0,0,0,.165.471,1.189,1.189,0,0,0,.517.359q0.2,0.075,1.192.344a16.655,16.655,0,0,1,2,.625,2.028,2.028,0,0,1,.888.707,1.967,1.967,0,0,1,.322,1.151,2.255,2.255,0,0,1-.394,1.267,2.54,2.54,0,0,1-1.136.919,4.142,4.142,0,0,1-1.679.325,3.747,3.747,0,0,1-2.365-.643A2.989,2.989,0,0,1,263.3,26.873Z" transform="translate(-20.392 -18.096)"/><path class="cls-2" d="M275.954,29.242V18.283H280.1a10.031,10.031,0,0,1,1.671.1,3.314,3.314,0,0,1,1.356.512,2.689,2.689,0,0,1,.881,1.058,3.56,3.56,0,0,1-.559,3.861,4.285,4.285,0,0,1-3.223.968h-2.818v4.456h-1.454Zm1.454-5.749h2.841a3.016,3.016,0,0,0,2-.523,1.861,1.861,0,0,0,.592-1.473,1.976,1.976,0,0,0-.349-1.177,1.631,1.631,0,0,0-.918-0.647,6.256,6.256,0,0,0-1.357-.1h-2.811v3.917Z" transform="translate(-20.392 -18.096)"/><path class="cls-2" d="M291.469,26.686l1.394,0.172a3.4,3.4,0,0,1-1.222,1.892,3.682,3.682,0,0,1-2.279.672,3.644,3.644,0,0,1-2.769-1.073,4.184,4.184,0,0,1-1.023-3.009,4.379,4.379,0,0,1,1.035-3.11,3.506,3.506,0,0,1,2.683-1.106,3.409,3.409,0,0,1,2.608,1.084,4.3,4.3,0,0,1,1.012,3.05q0,0.119-.007.359h-5.937a3.047,3.047,0,0,0,.742,2,2.212,2.212,0,0,0,1.664.7,2.068,2.068,0,0,0,1.267-.389A2.579,2.579,0,0,0,291.469,26.686Zm-4.43-2.175h4.444a2.68,2.68,0,0,0-.509-1.5,2.071,2.071,0,0,0-1.671-.778,2.147,2.147,0,0,0-1.563.621A2.451,2.451,0,0,0,287.04,24.51Z" transform="translate(-20.392 -18.096)"/><path class="cls-2" d="M294.542,29.242V21.3h1.214v1.2a3.289,3.289,0,0,1,.858-1.114,1.5,1.5,0,0,1,.866-0.27,2.64,2.64,0,0,1,1.386.434L298.4,22.806a1.935,1.935,0,0,0-.989-0.292,1.286,1.286,0,0,0-.795.266,1.437,1.437,0,0,0-.5.736,5.226,5.226,0,0,0-.225,1.57v4.156h-1.349Z" transform="translate(-20.392 -18.096)"/><path class="cls-2" d="M299.677,19.831V18.283h1.349v1.547h-1.349Zm0,9.412V21.3h1.349v7.939h-1.349Z" transform="translate(-20.392 -18.096)"/><path class="cls-2" d="M302.577,25.272a4.087,4.087,0,0,1,1.229-3.267,3.711,3.711,0,0,1,2.5-.882,3.579,3.579,0,0,1,2.684,1.073,4.077,4.077,0,0,1,1.042,2.964,5.248,5.248,0,0,1-.461,2.411,3.259,3.259,0,0,1-1.342,1.364,3.915,3.915,0,0,1-1.923.486,3.582,3.582,0,0,1-2.7-1.069A4.263,4.263,0,0,1,302.577,25.272Zm1.387,0a3.375,3.375,0,0,0,.667,2.284,2.225,2.225,0,0,0,3.351,0,3.457,3.457,0,0,0,.667-2.325A3.274,3.274,0,0,0,307.978,23a2.228,2.228,0,0,0-3.347,0A3.359,3.359,0,0,0,303.964,25.272Z" transform="translate(-20.392 -18.096)"/><path class="cls-2" d="M316.779,29.242v-1a2.476,2.476,0,0,1-2.226,1.181,3.128,3.128,0,0,1-1.75-.523,3.45,3.45,0,0,1-1.237-1.461,5.044,5.044,0,0,1-.438-2.157,5.636,5.636,0,0,1,.4-2.157,3.126,3.126,0,0,1,1.191-1.484,3.2,3.2,0,0,1,1.776-.516,2.654,2.654,0,0,1,2.2,1.092V18.283h1.342V29.242h-1.252Zm-4.265-3.962a3.441,3.441,0,0,0,.645,2.28,1.946,1.946,0,0,0,1.521.755,1.91,1.91,0,0,0,1.5-.722,3.321,3.321,0,0,0,.618-2.2A3.731,3.731,0,0,0,316.173,23a1.939,1.939,0,0,0-1.552-.762,1.872,1.872,0,0,0-1.5.732A3.608,3.608,0,0,0,312.515,25.28Z" transform="translate(-20.392 -18.096)"/><path class="cls-2" d="M319.613,26.873l1.334-.209a1.854,1.854,0,0,0,.626,1.226,2.182,2.182,0,0,0,1.435.426,2.109,2.109,0,0,0,1.379-.378,1.128,1.128,0,0,0,.45-0.886,0.818,0.818,0,0,0-.4-0.718,5.846,5.846,0,0,0-1.379-.456A12.637,12.637,0,0,1,321,25.231a1.958,1.958,0,0,1-1.165-1.82,2.044,2.044,0,0,1,.243-0.983,2.188,2.188,0,0,1,.663-0.751,2.786,2.786,0,0,1,.858-0.392,4.084,4.084,0,0,1,1.166-.161,4.608,4.608,0,0,1,1.645.27,2.235,2.235,0,0,1,1.046.729,2.85,2.85,0,0,1,.465,1.23l-1.319.179a1.435,1.435,0,0,0-.521-0.957,1.91,1.91,0,0,0-1.219-.344,2.211,2.211,0,0,0-1.326.307,0.893,0.893,0,0,0-.4.718,0.738,0.738,0,0,0,.165.471,1.191,1.191,0,0,0,.518.359q0.2,0.075,1.191.344a16.61,16.61,0,0,1,2,.625,2.024,2.024,0,0,1,.889.707,1.967,1.967,0,0,1,.322,1.151,2.251,2.251,0,0,1-.394,1.267,2.54,2.54,0,0,1-1.136.919,4.138,4.138,0,0,1-1.679.325,3.745,3.745,0,0,1-2.364-.643A2.982,2.982,0,0,1,319.613,26.873Z" transform="translate(-20.392 -18.096)"/><path class="cls-2" d="M35.907,47.614H34.558V39.04a6.979,6.979,0,0,1-1.278.927,9.044,9.044,0,0,1-1.42.7v-1.3a8.15,8.15,0,0,0,1.979-1.286,5.054,5.054,0,0,0,1.2-1.465h0.87v11Z" transform="translate(-20.392 -18.096)"/><path class="cls-2" d="M39.564,45.08l1.3-.12a2.246,2.246,0,0,0,.629,1.323,1.733,1.733,0,0,0,1.192.411,2.06,2.06,0,0,0,1.09-.284,2.329,2.329,0,0,0,.769-0.759,4.452,4.452,0,0,0,.5-1.282,6.748,6.748,0,0,0,.2-1.645c0-.06,0-0.149-0.007-0.269A3.083,3.083,0,0,1,44.133,43.5a3.011,3.011,0,0,1-1.518.4,3.073,3.073,0,0,1-2.309-.987,3.6,3.6,0,0,1-.944-2.6,3.693,3.693,0,0,1,.985-2.684,3.3,3.3,0,0,1,2.47-1.017,3.53,3.53,0,0,1,1.96.576,3.6,3.6,0,0,1,1.349,1.641,8.068,8.068,0,0,1,.461,3.084,9.961,9.961,0,0,1-.457,3.345,3.922,3.922,0,0,1-1.36,1.9,3.529,3.529,0,0,1-2.118.65A2.9,2.9,0,0,1,39.564,45.08Zm5.524-4.837A2.631,2.631,0,0,0,44.47,38.4a1.942,1.942,0,0,0-1.488-.68,2.055,2.055,0,0,0-1.566.732,2.712,2.712,0,0,0-.667,1.9,2.342,2.342,0,0,0,.634,1.7,2.088,2.088,0,0,0,1.563.654,2,2,0,0,0,1.54-.654A2.571,2.571,0,0,0,45.088,40.243Z" transform="translate(-20.392 -18.096)"/><path class="cls-2" d="M48.1,45.08l1.3-.12a2.246,2.246,0,0,0,.629,1.323,1.733,1.733,0,0,0,1.192.411,2.06,2.06,0,0,0,1.09-.284,2.329,2.329,0,0,0,.769-0.759,4.452,4.452,0,0,0,.5-1.282,6.748,6.748,0,0,0,.2-1.645c0-.06,0-0.149-0.007-0.269A3.083,3.083,0,0,1,52.67,43.5a3.011,3.011,0,0,1-1.518.4,3.073,3.073,0,0,1-2.309-.987,3.6,3.6,0,0,1-.944-2.6,3.693,3.693,0,0,1,.985-2.684,3.3,3.3,0,0,1,2.47-1.017,3.53,3.53,0,0,1,1.96.576,3.6,3.6,0,0,1,1.349,1.641,8.068,8.068,0,0,1,.461,3.084,9.961,9.961,0,0,1-.457,3.345,3.922,3.922,0,0,1-1.36,1.9,3.529,3.529,0,0,1-2.118.65A2.9,2.9,0,0,1,48.1,45.08Zm5.524-4.837a2.631,2.631,0,0,0-.618-1.839,1.942,1.942,0,0,0-1.488-.68,2.055,2.055,0,0,0-1.566.732,2.712,2.712,0,0,0-.667,1.9,2.342,2.342,0,0,0,.634,1.7,2.088,2.088,0,0,0,1.563.654,2,2,0,0,0,1.54-.654A2.571,2.571,0,0,0,53.625,40.243Z" transform="translate(-20.392 -18.096)"/><path class="cls-2" d="M61.518,47.614H60.169V39.04a6.979,6.979,0,0,1-1.278.927,9.044,9.044,0,0,1-1.42.7v-1.3a8.15,8.15,0,0,0,1.979-1.286,5.054,5.054,0,0,0,1.2-1.465h0.87v11Z" transform="translate(-20.392 -18.096)"/><path class="cls-2" d="M64.824,44.325V42.972h4.145v1.353H64.824Z" transform="translate(-20.392 -18.096)"/><path class="cls-2" d="M77.176,46.32v1.293H69.913a2.375,2.375,0,0,1,.157-0.935,4.948,4.948,0,0,1,.888-1.458,13.89,13.89,0,0,1,1.765-1.66,14.93,14.93,0,0,0,2.421-2.321,2.772,2.772,0,0,0,.629-1.618,1.8,1.8,0,0,0-.573-1.35,2.072,2.072,0,0,0-1.5-.549,2.11,2.11,0,0,0-1.559.583,2.2,2.2,0,0,0-.592,1.615l-1.386-.142a3.4,3.4,0,0,1,1.072-2.358,3.662,3.662,0,0,1,2.5-.811,3.489,3.489,0,0,1,2.5.875,2.867,2.867,0,0,1,.922,2.168,3.286,3.286,0,0,1-.27,1.293,5.021,5.021,0,0,1-.9,1.338,21.742,21.742,0,0,1-2.08,1.929q-1.214,1.017-1.559,1.379a4.421,4.421,0,0,0-.57.729h5.389Z" transform="translate(-20.392 -18.096)"/><path class="cls-2" d="M78.623,42.209a10,10,0,0,1,.4-3.128,3.889,3.889,0,0,1,1.192-1.828,3.053,3.053,0,0,1,1.99-.643,3.251,3.251,0,0,1,1.551.355,2.966,2.966,0,0,1,1.1,1.024,5.5,5.5,0,0,1,.682,1.63,10.822,10.822,0,0,1,.247,2.59,10.041,10.041,0,0,1-.4,3.114A3.894,3.894,0,0,1,84.2,47.154a3.052,3.052,0,0,1-2,.647,3.019,3.019,0,0,1-2.5-1.136A7.212,7.212,0,0,1,78.623,42.209Zm1.386,0a6.852,6.852,0,0,0,.634,3.592,1.812,1.812,0,0,0,3.125,0,6.863,6.863,0,0,0,.633-3.588,6.858,6.858,0,0,0-.633-3.6,1.881,1.881,0,0,0-1.578-.89,1.729,1.729,0,0,0-1.484.785A6.932,6.932,0,0,0,80.009,42.209Z" transform="translate(-20.392 -18.096)"/><path class="cls-2" d="M92.241,47.614H90.892V39.04a6.979,6.979,0,0,1-1.278.927,9.044,9.044,0,0,1-1.42.7v-1.3a8.15,8.15,0,0,0,1.979-1.286,5.054,5.054,0,0,0,1.2-1.465h0.87v11Z" transform="translate(-20.392 -18.096)"/><path class="cls-2" d="M95.7,44.743l1.417-.12a2.53,2.53,0,0,0,.731,1.551,1.986,1.986,0,0,0,1.383.52,2.157,2.157,0,0,0,1.649-.732,2.758,2.758,0,0,0,.674-1.944A2.491,2.491,0,0,0,100.9,42.2a2.262,2.262,0,0,0-1.7-.666,2.357,2.357,0,0,0-1.177.3,2.278,2.278,0,0,0-.825.766l-1.267-.165L97,36.8h5.464V38.09H98.08l-0.592,2.945a3.582,3.582,0,0,1,2.076-.687,3.3,3.3,0,0,1,2.429.994,3.47,3.47,0,0,1,.989,2.557,3.985,3.985,0,0,1-.87,2.572A3.487,3.487,0,0,1,99.227,47.8a3.56,3.56,0,0,1-2.447-.837A3.263,3.263,0,0,1,95.7,44.743Z" transform="translate(-20.392 -18.096)"/><path class="cls-2" d="M29.978,99.053V96.429H25.211V95.2l5.014-7.1h1.1v7.1h1.484v1.233H31.327v2.624H29.978Zm0-3.857V90.254L26.538,95.2h3.44Z" transform="translate(-20.392 -18.096)"/><path class="cls-2" d="M34.19,93.648a10,10,0,0,1,.4-3.128,3.889,3.889,0,0,1,1.192-1.828,3.053,3.053,0,0,1,1.99-.643,3.251,3.251,0,0,1,1.551.355,2.966,2.966,0,0,1,1.1,1.024,5.5,5.5,0,0,1,.682,1.63,10.822,10.822,0,0,1,.247,2.59,10.041,10.041,0,0,1-.4,3.114,3.894,3.894,0,0,1-1.188,1.831,3.052,3.052,0,0,1-2,.647,3.019,3.019,0,0,1-2.5-1.136A7.212,7.212,0,0,1,34.19,93.648Zm1.386,0a6.852,6.852,0,0,0,.634,3.592,1.812,1.812,0,0,0,3.125,0,6.863,6.863,0,0,0,.633-3.588,6.858,6.858,0,0,0-.633-3.6,1.881,1.881,0,0,0-1.578-.89,1.729,1.729,0,0,0-1.484.785A6.932,6.932,0,0,0,35.577,93.648Z" transform="translate(-20.392 -18.096)"/><path class="cls-2" d="M42.982,90.725a3.326,3.326,0,0,1,.592-2,1.984,1.984,0,0,1,1.716-.822A2.229,2.229,0,0,1,47,88.643,3.739,3.739,0,0,1,47,92.949a2.2,2.2,0,0,1-1.69.751,2.136,2.136,0,0,1-1.66-.74A3.26,3.26,0,0,1,42.982,90.725Zm2.346-1.892a1.016,1.016,0,0,0-.835.434,2.739,2.739,0,0,0-.333,1.592,2.465,2.465,0,0,0,.337,1.484,1.028,1.028,0,0,0,1.675,0,2.726,2.726,0,0,0,.333-1.585,2.478,2.478,0,0,0-.337-1.491A1.028,1.028,0,0,0,45.328,88.833Zm0.008,10.623,6.011-11.55h1.094l-5.988,11.55H45.336Zm4.751-2.976a3.323,3.323,0,0,1,.592-2,1.994,1.994,0,0,1,1.724-.818,2.227,2.227,0,0,1,1.712.736,3.739,3.739,0,0,1-.007,4.306,2.207,2.207,0,0,1-1.7.751,2.132,2.132,0,0,1-1.66-.744A3.262,3.262,0,0,1,50.087,96.481Zm2.354-1.891a1.023,1.023,0,0,0-.843.434,2.743,2.743,0,0,0-.333,1.592A2.466,2.466,0,0,0,51.6,98.1a1.033,1.033,0,0,0,1.683,0,2.723,2.723,0,0,0,.333-1.584,2.483,2.483,0,0,0-.337-1.492A1.03,1.03,0,0,0,52.441,94.59Z" transform="translate(-20.392 -18.096)"/><path class="cls-2" d="M34.19,195.632a10,10,0,0,1,.4-3.128,3.889,3.889,0,0,1,1.192-1.828,3.053,3.053,0,0,1,1.99-.643,3.251,3.251,0,0,1,1.551.355,2.966,2.966,0,0,1,1.1,1.024,5.5,5.5,0,0,1,.682,1.63,10.822,10.822,0,0,1,.247,2.59,10.041,10.041,0,0,1-.4,3.114,3.894,3.894,0,0,1-1.188,1.831,3.052,3.052,0,0,1-2,.647,3.019,3.019,0,0,1-2.5-1.136A7.212,7.212,0,0,1,34.19,195.632Zm1.386,0a6.852,6.852,0,0,0,.634,3.592,1.812,1.812,0,0,0,3.125,0,10.5,10.5,0,0,0,0-7.184,1.881,1.881,0,0,0-1.578-.89,1.729,1.729,0,0,0-1.484.785A6.932,6.932,0,0,0,35.577,195.632Z" transform="translate(-20.392 -18.096)"/><path class="cls-2" d="M42.982,192.709a3.326,3.326,0,0,1,.592-2,1.984,1.984,0,0,1,1.716-.822,2.229,2.229,0,0,1,1.713.736A3.739,3.739,0,0,1,47,194.933a2.2,2.2,0,0,1-1.69.751,2.136,2.136,0,0,1-1.66-.74A3.26,3.26,0,0,1,42.982,192.709Zm2.346-1.892a1.016,1.016,0,0,0-.835.434,2.739,2.739,0,0,0-.333,1.592,2.465,2.465,0,0,0,.337,1.484,1.028,1.028,0,0,0,1.675,0,2.726,2.726,0,0,0,.333-1.585,2.478,2.478,0,0,0-.337-1.491A1.028,1.028,0,0,0,45.328,190.818Zm0.008,10.623,6.011-11.55h1.094l-5.988,11.55H45.336Zm4.751-2.976a3.323,3.323,0,0,1,.592-2,1.994,1.994,0,0,1,1.724-.818,2.227,2.227,0,0,1,1.712.736,3.739,3.739,0,0,1-.007,4.306,2.207,2.207,0,0,1-1.7.751,2.132,2.132,0,0,1-1.66-.744A3.262,3.262,0,0,1,50.087,198.465Zm2.354-1.891a1.023,1.023,0,0,0-.843.434,2.743,2.743,0,0,0-.333,1.592,2.466,2.466,0,0,0,.337,1.48,1.033,1.033,0,0,0,1.683,0,2.723,2.723,0,0,0,.333-1.584A2.483,2.483,0,0,0,53.281,197,1.03,1.03,0,0,0,52.441,196.574Z" transform="translate(-20.392 -18.096)"/><path class="cls-2" d="M131.1,341.754h-1.349V333.18a6.979,6.979,0,0,1-1.278.927,9.044,9.044,0,0,1-1.42.7v-1.3a8.15,8.15,0,0,0,1.979-1.286,5.054,5.054,0,0,0,1.2-1.465h0.87v11Z" transform="translate(-20.392 -18.096)"/><path class="cls-2" d="M134.408,338.465v-1.353h4.145v1.353h-4.145Z" transform="translate(-20.392 -18.096)"/><path class="cls-2" d="M143.313,341.754v-4.642l-4.235-6.317h1.769l2.166,3.3q0.6,0.927,1.117,1.854,0.494-.86,1.2-1.937l2.128-3.222h1.694l-4.384,6.317v4.642h-1.454Z" transform="translate(-20.392 -18.096)"/><path class="cls-2" d="M154.323,339.2l1.394,0.172a3.4,3.4,0,0,1-1.222,1.892,3.682,3.682,0,0,1-2.279.672,3.644,3.644,0,0,1-2.769-1.073,4.184,4.184,0,0,1-1.023-3.009,4.379,4.379,0,0,1,1.035-3.11,3.506,3.506,0,0,1,2.683-1.106,3.409,3.409,0,0,1,2.608,1.084,4.3,4.3,0,0,1,1.012,3.05q0,0.119-.007.359h-5.937a3.047,3.047,0,0,0,.742,2,2.212,2.212,0,0,0,1.664.7,2.068,2.068,0,0,0,1.267-.389A2.579,2.579,0,0,0,154.323,339.2Zm-4.43-2.175h4.444a2.68,2.68,0,0,0-.509-1.5,2.071,2.071,0,0,0-1.671-.778,2.147,2.147,0,0,0-1.563.621A2.451,2.451,0,0,0,149.893,337.022Z" transform="translate(-20.392 -18.096)"/><path class="cls-2" d="M162.6,340.774a5.04,5.04,0,0,1-1.443.9,4.182,4.182,0,0,1-1.488.261,2.9,2.9,0,0,1-2.016-.639,2.106,2.106,0,0,1-.7-1.633,2.163,2.163,0,0,1,.266-1.065,2.2,2.2,0,0,1,.7-0.774,3.283,3.283,0,0,1,.971-0.441,9.664,9.664,0,0,1,1.2-.2,12.337,12.337,0,0,0,2.406-.463q0.007-.276.007-0.351a1.483,1.483,0,0,0-.382-1.159,2.261,2.261,0,0,0-1.537-.456,2.389,2.389,0,0,0-1.405.333,2.032,2.032,0,0,0-.671,1.177l-1.319-.179a3.251,3.251,0,0,1,.592-1.364,2.592,2.592,0,0,1,1.192-.8,5.323,5.323,0,0,1,1.806-.281,4.8,4.8,0,0,1,1.657.239,2.185,2.185,0,0,1,.937.6,2.112,2.112,0,0,1,.42.916,7.57,7.57,0,0,1,.067,1.241v1.794a18.945,18.945,0,0,0,.086,2.374,2.976,2.976,0,0,0,.341.953h-1.409A2.852,2.852,0,0,1,162.6,340.774Zm-0.112-3a9.94,9.94,0,0,1-2.2.508,5.1,5.1,0,0,0-1.177.269,1.172,1.172,0,0,0-.532.438,1.187,1.187,0,0,0,.221,1.536,1.759,1.759,0,0,0,1.2.359,2.786,2.786,0,0,0,1.387-.34,2.1,2.1,0,0,0,.892-0.931,3.239,3.239,0,0,0,.218-1.346V337.77Z" transform="translate(-20.392 -18.096)"/><path class="cls-2" d="M165.933,341.754v-7.939h1.214v1.2a3.289,3.289,0,0,1,.858-1.114,1.5,1.5,0,0,1,.866-0.27,2.64,2.64,0,0,1,1.386.434l-0.464,1.249a1.935,1.935,0,0,0-.989-0.292,1.286,1.286,0,0,0-.795.266,1.437,1.437,0,0,0-.5.736,5.226,5.226,0,0,0-.225,1.57v4.156h-1.349Z" transform="translate(-20.392 -18.096)"/><path class="cls-2" d="M122.876,360.125V349.167h4.145a10.031,10.031,0,0,1,1.671.1,3.314,3.314,0,0,1,1.356.512,2.689,2.689,0,0,1,.881,1.058,3.56,3.56,0,0,1-.559,3.861,4.285,4.285,0,0,1-3.223.968h-2.818v4.456h-1.454Zm1.454-5.749h2.841a3.016,3.016,0,0,0,2-.523,1.861,1.861,0,0,0,.592-1.473,1.976,1.976,0,0,0-.349-1.177,1.631,1.631,0,0,0-.918-0.647,6.256,6.256,0,0,0-1.357-.1h-2.811v3.917Z" transform="translate(-20.392 -18.096)"/><path class="cls-2" d="M138.392,357.569l1.394,0.172a3.4,3.4,0,0,1-1.222,1.892,3.682,3.682,0,0,1-2.279.672,3.644,3.644,0,0,1-2.769-1.073,4.184,4.184,0,0,1-1.023-3.009,4.379,4.379,0,0,1,1.035-3.11,3.506,3.506,0,0,1,2.683-1.106,3.409,3.409,0,0,1,2.608,1.084,4.3,4.3,0,0,1,1.012,3.05q0,0.119-.007.359h-5.937a3.047,3.047,0,0,0,.742,2,2.212,2.212,0,0,0,1.664.7,2.068,2.068,0,0,0,1.267-.389A2.579,2.579,0,0,0,138.392,357.569Zm-4.43-2.175h4.444a2.68,2.68,0,0,0-.509-1.5,2.071,2.071,0,0,0-1.671-.778,2.147,2.147,0,0,0-1.563.621A2.451,2.451,0,0,0,133.962,355.394Z" transform="translate(-20.392 -18.096)"/><path class="cls-2" d="M141.465,360.125v-7.939h1.214v1.2a3.289,3.289,0,0,1,.858-1.114,1.5,1.5,0,0,1,.866-0.27,2.64,2.64,0,0,1,1.386.434l-0.464,1.249a1.935,1.935,0,0,0-.989-0.292,1.286,1.286,0,0,0-.795.266,1.437,1.437,0,0,0-.5.736,5.226,5.226,0,0,0-.225,1.57v4.156h-1.349Z" transform="translate(-20.392 -18.096)"/><path class="cls-2" d="M146.6,350.714v-1.547h1.349v1.547H146.6Zm0,9.412v-7.939h1.349v7.939H146.6Z" transform="translate(-20.392 -18.096)"/><path class="cls-2" d="M149.5,356.156a4.087,4.087,0,0,1,1.229-3.267,3.711,3.711,0,0,1,2.5-.882,3.577,3.577,0,0,1,2.683,1.073,4.075,4.075,0,0,1,1.042,2.964,5.242,5.242,0,0,1-.461,2.411,3.253,3.253,0,0,1-1.342,1.364,3.911,3.911,0,0,1-1.922.486,3.582,3.582,0,0,1-2.7-1.069A4.263,4.263,0,0,1,149.5,356.156Zm1.387,0a3.375,3.375,0,0,0,.667,2.284,2.224,2.224,0,0,0,3.35,0,3.454,3.454,0,0,0,.667-2.325,3.274,3.274,0,0,0-.671-2.231,2.228,2.228,0,0,0-3.346,0A3.359,3.359,0,0,0,150.886,356.156Z" transform="translate(-20.392 -18.096)"/><path class="cls-2" d="M163.7,360.125v-1a2.477,2.477,0,0,1-2.226,1.181,3.129,3.129,0,0,1-1.75-.523,3.446,3.446,0,0,1-1.237-1.461,5.044,5.044,0,0,1-.438-2.157,5.636,5.636,0,0,1,.4-2.157,3.124,3.124,0,0,1,1.192-1.484,3.192,3.192,0,0,1,1.776-.516,2.656,2.656,0,0,1,2.2,1.092v-3.932h1.342v10.959H163.7Zm-4.265-3.962a3.441,3.441,0,0,0,.645,2.28,1.946,1.946,0,0,0,1.521.755,1.91,1.91,0,0,0,1.5-.722,3.321,3.321,0,0,0,.618-2.2,3.725,3.725,0,0,0-.629-2.392,1.938,1.938,0,0,0-1.551-.762,1.872,1.872,0,0,0-1.5.732A3.608,3.608,0,0,0,159.438,356.164Z" transform="translate(-20.392 -18.096)"/><path class="cls-2" d="M166.536,357.756l1.334-.209a1.86,1.86,0,0,0,.626,1.226,2.185,2.185,0,0,0,1.436.426,2.111,2.111,0,0,0,1.379-.378,1.128,1.128,0,0,0,.45-0.886,0.817,0.817,0,0,0-.4-0.718,5.846,5.846,0,0,0-1.379-.456,12.62,12.62,0,0,1-2.058-.647,1.958,1.958,0,0,1-1.165-1.82,2.044,2.044,0,0,1,.243-0.983,2.189,2.189,0,0,1,.664-0.751,2.783,2.783,0,0,1,.858-0.392,4.083,4.083,0,0,1,1.166-.161,4.614,4.614,0,0,1,1.646.27,2.236,2.236,0,0,1,1.045.729,2.843,2.843,0,0,1,.465,1.23l-1.319.179a1.436,1.436,0,0,0-.521-0.957,1.907,1.907,0,0,0-1.218-.344,2.211,2.211,0,0,0-1.327.307,0.892,0.892,0,0,0-.4.718,0.741,0.741,0,0,0,.165.471,1.189,1.189,0,0,0,.517.359q0.2,0.075,1.192.344a16.655,16.655,0,0,1,2,.625,2.028,2.028,0,0,1,.888.707,1.967,1.967,0,0,1,.322,1.151,2.255,2.255,0,0,1-.394,1.267,2.54,2.54,0,0,1-1.136.919,4.142,4.142,0,0,1-1.679.325,3.747,3.747,0,0,1-2.365-.643A2.989,2.989,0,0,1,166.536,357.756Z" transform="translate(-20.392 -18.096)"/><path class="cls-2" d="M261.416,338.883l1.417-.12a2.53,2.53,0,0,0,.731,1.551,1.986,1.986,0,0,0,1.383.52,2.157,2.157,0,0,0,1.649-.732,2.758,2.758,0,0,0,.674-1.944,2.491,2.491,0,0,0-.648-1.816,2.262,2.262,0,0,0-1.7-.666,2.357,2.357,0,0,0-1.177.3,2.278,2.278,0,0,0-.825.766l-1.267-.165,1.064-5.629h5.464v1.286H263.8l-0.592,2.945a3.582,3.582,0,0,1,2.076-.687,3.3,3.3,0,0,1,2.429.994,3.47,3.47,0,0,1,.989,2.557,3.985,3.985,0,0,1-.87,2.572,3.487,3.487,0,0,1-2.885,1.331,3.56,3.56,0,0,1-2.447-.837A3.263,3.263,0,0,1,261.416,338.883Z" transform="translate(-20.392 -18.096)"/><path class="cls-2" d="M269.8,338.465v-1.353h4.145v1.353H269.8Z" transform="translate(-20.392 -18.096)"/><path class="cls-2" d="M278.707,341.754v-4.642l-4.235-6.317h1.769l2.166,3.3q0.6,0.927,1.117,1.854,0.494-.86,1.2-1.937l2.128-3.222h1.694l-4.384,6.317v4.642h-1.454Z" transform="translate(-20.392 -18.096)"/><path class="cls-2" d="M289.717,339.2l1.394,0.172a3.4,3.4,0,0,1-1.222,1.892,3.682,3.682,0,0,1-2.279.672,3.644,3.644,0,0,1-2.769-1.073,4.184,4.184,0,0,1-1.023-3.009,4.379,4.379,0,0,1,1.035-3.11,3.506,3.506,0,0,1,2.683-1.106,3.409,3.409,0,0,1,2.608,1.084,4.3,4.3,0,0,1,1.012,3.05q0,0.119-.007.359h-5.937a3.047,3.047,0,0,0,.742,2,2.212,2.212,0,0,0,1.664.7,2.068,2.068,0,0,0,1.267-.389A2.579,2.579,0,0,0,289.717,339.2Zm-4.43-2.175h4.444a2.68,2.68,0,0,0-.509-1.5,2.071,2.071,0,0,0-1.671-.778,2.147,2.147,0,0,0-1.563.621A2.451,2.451,0,0,0,285.288,337.022Z" transform="translate(-20.392 -18.096)"/><path class="cls-2" d="M298,340.774a5.04,5.04,0,0,1-1.443.9,4.182,4.182,0,0,1-1.488.261,2.9,2.9,0,0,1-2.016-.639,2.106,2.106,0,0,1-.7-1.633,2.163,2.163,0,0,1,.266-1.065,2.2,2.2,0,0,1,.7-0.774,3.283,3.283,0,0,1,.971-0.441,9.664,9.664,0,0,1,1.2-.2,12.337,12.337,0,0,0,2.406-.463q0.007-.276.007-0.351a1.483,1.483,0,0,0-.382-1.159,2.261,2.261,0,0,0-1.537-.456,2.389,2.389,0,0,0-1.405.333,2.032,2.032,0,0,0-.671,1.177l-1.319-.179a3.251,3.251,0,0,1,.592-1.364,2.592,2.592,0,0,1,1.192-.8,5.323,5.323,0,0,1,1.806-.281,4.8,4.8,0,0,1,1.657.239,2.185,2.185,0,0,1,.937.6,2.112,2.112,0,0,1,.42.916,7.57,7.57,0,0,1,.067,1.241v1.794a18.945,18.945,0,0,0,.086,2.374,2.976,2.976,0,0,0,.341.953h-1.409A2.852,2.852,0,0,1,298,340.774Zm-0.112-3a9.94,9.94,0,0,1-2.2.508,5.1,5.1,0,0,0-1.177.269,1.172,1.172,0,0,0-.532.438,1.187,1.187,0,0,0,.221,1.536,1.759,1.759,0,0,0,1.2.359,2.786,2.786,0,0,0,1.387-.34,2.1,2.1,0,0,0,.892-0.931,3.239,3.239,0,0,0,.218-1.346V337.77Z" transform="translate(-20.392 -18.096)"/><path class="cls-2" d="M301.328,341.754v-7.939h1.214v1.2a3.289,3.289,0,0,1,.858-1.114,1.5,1.5,0,0,1,.866-0.27,2.64,2.64,0,0,1,1.386.434l-0.464,1.249a1.935,1.935,0,0,0-.989-0.292,1.286,1.286,0,0,0-.795.266,1.437,1.437,0,0,0-.5.736,5.226,5.226,0,0,0-.225,1.57v4.156h-1.349Z" transform="translate(-20.392 -18.096)"/><path class="cls-2" d="M258.271,360.125V349.167h4.145a10.031,10.031,0,0,1,1.671.1,3.314,3.314,0,0,1,1.356.512,2.689,2.689,0,0,1,.881,1.058,3.56,3.56,0,0,1-.559,3.861,4.285,4.285,0,0,1-3.223.968h-2.818v4.456h-1.454Zm1.454-5.749h2.841a3.016,3.016,0,0,0,2-.523,1.861,1.861,0,0,0,.592-1.473,1.976,1.976,0,0,0-.349-1.177,1.631,1.631,0,0,0-.918-0.647,6.256,6.256,0,0,0-1.357-.1h-2.811v3.917Z" transform="translate(-20.392 -18.096)"/><path class="cls-2" d="M273.786,357.569l1.394,0.172a3.4,3.4,0,0,1-1.222,1.892,3.682,3.682,0,0,1-2.279.672,3.644,3.644,0,0,1-2.769-1.073,4.184,4.184,0,0,1-1.023-3.009,4.379,4.379,0,0,1,1.035-3.11,3.506,3.506,0,0,1,2.683-1.106,3.409,3.409,0,0,1,2.608,1.084,4.3,4.3,0,0,1,1.012,3.05q0,0.119-.007.359h-5.937a3.047,3.047,0,0,0,.742,2,2.212,2.212,0,0,0,1.664.7,2.068,2.068,0,0,0,1.267-.389A2.579,2.579,0,0,0,273.786,357.569Zm-4.43-2.175H273.8a2.68,2.68,0,0,0-.509-1.5,2.071,2.071,0,0,0-1.671-.778,2.147,2.147,0,0,0-1.563.621A2.451,2.451,0,0,0,269.356,355.394Z" transform="translate(-20.392 -18.096)"/><path class="cls-2" d="M276.859,360.125v-7.939h1.214v1.2a3.289,3.289,0,0,1,.858-1.114,1.5,1.5,0,0,1,.866-0.27,2.64,2.64,0,0,1,1.386.434l-0.464,1.249a1.935,1.935,0,0,0-.989-0.292,1.286,1.286,0,0,0-.795.266,1.437,1.437,0,0,0-.5.736,5.226,5.226,0,0,0-.225,1.57v4.156h-1.349Z" transform="translate(-20.392 -18.096)"/><path class="cls-2" d="M281.994,350.714v-1.547h1.349v1.547h-1.349Zm0,9.412v-7.939h1.349v7.939h-1.349Z" transform="translate(-20.392 -18.096)"/><path class="cls-2" d="M284.894,356.156a4.087,4.087,0,0,1,1.229-3.267,3.711,3.711,0,0,1,2.5-.882,3.577,3.577,0,0,1,2.683,1.073,4.075,4.075,0,0,1,1.042,2.964,5.242,5.242,0,0,1-.461,2.411,3.253,3.253,0,0,1-1.342,1.364,3.911,3.911,0,0,1-1.922.486,3.582,3.582,0,0,1-2.7-1.069A4.263,4.263,0,0,1,284.894,356.156Zm1.387,0a3.375,3.375,0,0,0,.667,2.284,2.224,2.224,0,0,0,3.35,0,3.454,3.454,0,0,0,.667-2.325,3.274,3.274,0,0,0-.671-2.231,2.228,2.228,0,0,0-3.346,0A3.359,3.359,0,0,0,286.281,356.156Z" transform="translate(-20.392 -18.096)"/><path class="cls-2" d="M299.1,360.125v-1a2.477,2.477,0,0,1-2.226,1.181,3.129,3.129,0,0,1-1.75-.523,3.446,3.446,0,0,1-1.237-1.461,5.044,5.044,0,0,1-.438-2.157,5.636,5.636,0,0,1,.4-2.157,3.124,3.124,0,0,1,1.192-1.484,3.192,3.192,0,0,1,1.776-.516,2.656,2.656,0,0,1,2.2,1.092v-3.932h1.342v10.959H299.1Zm-4.265-3.962a3.441,3.441,0,0,0,.645,2.28A1.946,1.946,0,0,0,297,359.2a1.91,1.91,0,0,0,1.5-.722,3.321,3.321,0,0,0,.618-2.2,3.725,3.725,0,0,0-.629-2.392,1.938,1.938,0,0,0-1.551-.762,1.872,1.872,0,0,0-1.5.732A3.608,3.608,0,0,0,294.833,356.164Z" transform="translate(-20.392 -18.096)"/><path class="cls-2" d="M301.931,357.756l1.334-.209a1.86,1.86,0,0,0,.626,1.226,2.185,2.185,0,0,0,1.436.426,2.111,2.111,0,0,0,1.379-.378,1.127,1.127,0,0,0,.449-0.886,0.817,0.817,0,0,0-.4-0.718,5.846,5.846,0,0,0-1.379-.456,12.62,12.62,0,0,1-2.058-.647,1.958,1.958,0,0,1-1.165-1.82,2.044,2.044,0,0,1,.243-0.983,2.189,2.189,0,0,1,.664-0.751,2.783,2.783,0,0,1,.858-0.392,4.083,4.083,0,0,1,1.166-.161,4.614,4.614,0,0,1,1.646.27,2.24,2.24,0,0,1,1.046.729,2.862,2.862,0,0,1,.465,1.23l-1.32.179a1.436,1.436,0,0,0-.521-0.957,1.907,1.907,0,0,0-1.218-.344,2.211,2.211,0,0,0-1.327.307,0.892,0.892,0,0,0-.4.718,0.741,0.741,0,0,0,.165.471,1.189,1.189,0,0,0,.517.359q0.2,0.075,1.192.344a16.655,16.655,0,0,1,2,.625,2.021,2.021,0,0,1,.888.707,1.967,1.967,0,0,1,.322,1.151,2.258,2.258,0,0,1-.393,1.267,2.543,2.543,0,0,1-1.137.919,4.138,4.138,0,0,1-1.678.325,3.747,3.747,0,0,1-2.365-.643A2.989,2.989,0,0,1,301.931,357.756Z" transform="translate(-20.392 -18.096)"/><path class="cls-2" d="M392.418,341.754h-1.349V333.18a6.984,6.984,0,0,1-1.278.927,9.083,9.083,0,0,1-1.42.7v-1.3a8.178,8.178,0,0,0,1.979-1.286,5.07,5.07,0,0,0,1.2-1.465h0.869v11Z" transform="translate(-20.392 -18.096)"/><path class="cls-2" d="M395.873,336.349a9.994,9.994,0,0,1,.4-3.128,3.892,3.892,0,0,1,1.191-1.828,3.054,3.054,0,0,1,1.99-.643,3.255,3.255,0,0,1,1.552.355,2.969,2.969,0,0,1,1.1,1.024,5.466,5.466,0,0,1,.682,1.63,10.789,10.789,0,0,1,.248,2.59,10.039,10.039,0,0,1-.4,3.114,3.888,3.888,0,0,1-1.188,1.831,3.35,3.35,0,0,1-4.493-.489A7.208,7.208,0,0,1,395.873,336.349Zm1.387,0a6.847,6.847,0,0,0,.634,3.592,1.811,1.811,0,0,0,3.125,0,10.5,10.5,0,0,0,0-7.184,1.88,1.88,0,0,0-1.577-.89,1.73,1.73,0,0,0-1.484.785A6.932,6.932,0,0,0,397.26,336.349Z" transform="translate(-20.392 -18.096)"/><path class="cls-2" d="M404.261,338.465v-1.353h4.145v1.353h-4.145Z" transform="translate(-20.392 -18.096)"/><path class="cls-2" d="M413.164,341.754v-4.642l-4.234-6.317H410.7l2.166,3.3q0.6,0.927,1.117,1.854,0.5-.86,1.2-1.937l2.129-3.222H419l-4.385,6.317v4.642h-1.454Z" transform="translate(-20.392 -18.096)"/><path class="cls-2" d="M424.175,339.2l1.394,0.172a3.391,3.391,0,0,1-1.222,1.892,4.148,4.148,0,0,1-5.048-.4,4.185,4.185,0,0,1-1.022-3.009,4.381,4.381,0,0,1,1.034-3.11,3.506,3.506,0,0,1,2.683-1.106,3.408,3.408,0,0,1,2.608,1.084,4.3,4.3,0,0,1,1.012,3.05c0,0.08,0,.2-0.007.359H419.67a3.047,3.047,0,0,0,.742,2,2.211,2.211,0,0,0,1.664.7,2.068,2.068,0,0,0,1.267-.389A2.579,2.579,0,0,0,424.175,339.2Zm-4.43-2.175h4.444a2.676,2.676,0,0,0-.51-1.5,2.068,2.068,0,0,0-1.671-.778,2.145,2.145,0,0,0-1.562.621A2.45,2.45,0,0,0,419.745,337.022Z" transform="translate(-20.392 -18.096)"/><path class="cls-2" d="M432.457,340.774a5.029,5.029,0,0,1-1.443.9,4.179,4.179,0,0,1-1.487.261,2.9,2.9,0,0,1-2.017-.639,2.106,2.106,0,0,1-.7-1.633,2.173,2.173,0,0,1,.266-1.065,2.2,2.2,0,0,1,.7-0.774,3.283,3.283,0,0,1,.971-0.441,9.681,9.681,0,0,1,1.2-.2,12.337,12.337,0,0,0,2.406-.463c0-.184.007-0.3,0.007-0.351a1.483,1.483,0,0,0-.382-1.159,2.261,2.261,0,0,0-1.536-.456,2.387,2.387,0,0,0-1.405.333,2.027,2.027,0,0,0-.671,1.177l-1.319-.179a3.263,3.263,0,0,1,.592-1.364,2.591,2.591,0,0,1,1.192-.8,5.32,5.32,0,0,1,1.806-.281,4.8,4.8,0,0,1,1.656.239,2.189,2.189,0,0,1,.938.6,2.123,2.123,0,0,1,.42.916,7.57,7.57,0,0,1,.067,1.241v1.794a18.984,18.984,0,0,0,.086,2.374,2.988,2.988,0,0,0,.341.953h-1.409A2.852,2.852,0,0,1,432.457,340.774Zm-0.112-3a9.946,9.946,0,0,1-2.2.508,5.112,5.112,0,0,0-1.177.269,1.175,1.175,0,0,0-.532.438,1.189,1.189,0,0,0,.222,1.536,1.761,1.761,0,0,0,1.2.359,2.787,2.787,0,0,0,1.387-.34,2.1,2.1,0,0,0,.892-0.931,3.231,3.231,0,0,0,.218-1.346V337.77Z" transform="translate(-20.392 -18.096)"/><path class="cls-2" d="M435.785,341.754v-7.939H437v1.2a3.277,3.277,0,0,1,.858-1.114,1.5,1.5,0,0,1,.865-0.27,2.64,2.64,0,0,1,1.387.434l-0.465,1.249a1.931,1.931,0,0,0-.989-0.292,1.283,1.283,0,0,0-.794.266,1.432,1.432,0,0,0-.5.736,5.21,5.21,0,0,0-.226,1.57v4.156h-1.349Z" transform="translate(-20.392 -18.096)"/><path class="cls-2" d="M388.461,360.125V349.167h4.145a10.024,10.024,0,0,1,1.671.1,3.319,3.319,0,0,1,1.357.512,2.683,2.683,0,0,1,.88,1.058,3.559,3.559,0,0,1-.558,3.861,4.286,4.286,0,0,1-3.224.968h-2.817v4.456h-1.454Zm1.454-5.749h2.84a3.02,3.02,0,0,0,2-.523,1.862,1.862,0,0,0,.592-1.473A1.976,1.976,0,0,0,395,351.2a1.629,1.629,0,0,0-.918-0.647,6.253,6.253,0,0,0-1.356-.1h-2.811v3.917Z" transform="translate(-20.392 -18.096)"/><path class="cls-2" d="M403.976,357.569l1.394,0.172a3.391,3.391,0,0,1-1.222,1.892,4.148,4.148,0,0,1-5.048-.4,4.185,4.185,0,0,1-1.022-3.009,4.381,4.381,0,0,1,1.034-3.11,3.506,3.506,0,0,1,2.683-1.106,3.408,3.408,0,0,1,2.608,1.084,4.3,4.3,0,0,1,1.012,3.05c0,0.08,0,.2-0.007.359h-5.937a3.047,3.047,0,0,0,.742,2,2.211,2.211,0,0,0,1.664.7,2.068,2.068,0,0,0,1.267-.389A2.579,2.579,0,0,0,403.976,357.569Zm-4.43-2.175h4.444a2.676,2.676,0,0,0-.51-1.5,2.068,2.068,0,0,0-1.671-.778,2.145,2.145,0,0,0-1.562.621A2.45,2.45,0,0,0,399.546,355.394Z" transform="translate(-20.392 -18.096)"/><path class="cls-2" d="M407.049,360.125v-7.939h1.214v1.2a3.277,3.277,0,0,1,.858-1.114,1.5,1.5,0,0,1,.865-0.27,2.64,2.64,0,0,1,1.387.434l-0.465,1.249a1.931,1.931,0,0,0-.989-0.292,1.283,1.283,0,0,0-.794.266,1.432,1.432,0,0,0-.5.736,5.21,5.21,0,0,0-.226,1.57v4.156h-1.349Z" transform="translate(-20.392 -18.096)"/><path class="cls-2" d="M412.183,350.714v-1.547h1.349v1.547h-1.349Zm0,9.412v-7.939h1.349v7.939h-1.349Z" transform="translate(-20.392 -18.096)"/><path class="cls-2" d="M415.083,356.156a4.084,4.084,0,0,1,1.229-3.267,3.71,3.71,0,0,1,2.5-.882,3.579,3.579,0,0,1,2.684,1.073,4.077,4.077,0,0,1,1.042,2.964,5.248,5.248,0,0,1-.461,2.411,3.259,3.259,0,0,1-1.342,1.364,3.915,3.915,0,0,1-1.923.486,3.583,3.583,0,0,1-2.7-1.069A4.265,4.265,0,0,1,415.083,356.156Zm1.387,0a3.373,3.373,0,0,0,.667,2.284,2.225,2.225,0,0,0,3.351,0,3.457,3.457,0,0,0,.667-2.325,3.274,3.274,0,0,0-.671-2.231,2.228,2.228,0,0,0-3.347,0A3.357,3.357,0,0,0,416.47,356.156Z" transform="translate(-20.392 -18.096)"/><path class="cls-2" d="M429.286,360.125v-1a2.476,2.476,0,0,1-2.226,1.181,3.128,3.128,0,0,1-1.75-.523,3.45,3.45,0,0,1-1.237-1.461,5.044,5.044,0,0,1-.438-2.157,5.636,5.636,0,0,1,.4-2.157,3.126,3.126,0,0,1,1.191-1.484,3.2,3.2,0,0,1,1.776-.516,2.654,2.654,0,0,1,2.2,1.092v-3.932h1.342v10.959h-1.252Zm-4.265-3.962a3.441,3.441,0,0,0,.645,2.28,1.946,1.946,0,0,0,1.521.755,1.91,1.91,0,0,0,1.5-.722,3.321,3.321,0,0,0,.618-2.2,3.731,3.731,0,0,0-.629-2.392,1.939,1.939,0,0,0-1.552-.762,1.872,1.872,0,0,0-1.5.732A3.608,3.608,0,0,0,425.021,356.164Z" transform="translate(-20.392 -18.096)"/><path class="cls-2" d="M432.12,357.756l1.334-.209a1.854,1.854,0,0,0,.626,1.226,2.182,2.182,0,0,0,1.435.426,2.109,2.109,0,0,0,1.379-.378,1.128,1.128,0,0,0,.45-0.886,0.818,0.818,0,0,0-.4-0.718,5.846,5.846,0,0,0-1.379-.456,12.637,12.637,0,0,1-2.058-.647,1.958,1.958,0,0,1-1.165-1.82,2.044,2.044,0,0,1,.243-0.983,2.188,2.188,0,0,1,.663-0.751,2.786,2.786,0,0,1,.858-0.392,4.084,4.084,0,0,1,1.166-.161,4.608,4.608,0,0,1,1.645.27,2.235,2.235,0,0,1,1.046.729,2.85,2.85,0,0,1,.465,1.23l-1.319.179a1.435,1.435,0,0,0-.521-0.957,1.91,1.91,0,0,0-1.219-.344,2.211,2.211,0,0,0-1.326.307,0.893,0.893,0,0,0-.4.718,0.738,0.738,0,0,0,.165.471,1.191,1.191,0,0,0,.518.359q0.2,0.075,1.191.344a16.61,16.61,0,0,1,2,.625,2.024,2.024,0,0,1,.889.707,1.967,1.967,0,0,1,.322,1.151,2.251,2.251,0,0,1-.394,1.267,2.54,2.54,0,0,1-1.136.919,4.138,4.138,0,0,1-1.679.325,3.745,3.745,0,0,1-2.364-.643A2.982,2.982,0,0,1,432.12,357.756Z" transform="translate(-20.392 -18.096)"/><path class="cls-2" d="M523.064,340.46v1.293H515.8a2.375,2.375,0,0,1,.157-0.935,4.919,4.919,0,0,1,.889-1.458,13.815,13.815,0,0,1,1.765-1.66,14.93,14.93,0,0,0,2.421-2.321,2.773,2.773,0,0,0,.63-1.618,1.8,1.8,0,0,0-.573-1.35,2.073,2.073,0,0,0-1.5-.549,2.109,2.109,0,0,0-1.559.583,2.2,2.2,0,0,0-.592,1.615l-1.387-.142a3.4,3.4,0,0,1,1.071-2.358,3.665,3.665,0,0,1,2.5-.811,3.49,3.49,0,0,1,2.5.875,2.869,2.869,0,0,1,.922,2.168,3.287,3.287,0,0,1-.271,1.293,5.018,5.018,0,0,1-.9,1.338,21.7,21.7,0,0,1-2.08,1.929q-1.214,1.017-1.559,1.379a4.365,4.365,0,0,0-.569.729h5.389Z" transform="translate(-20.392 -18.096)"/><path class="cls-2" d="M524.511,336.349a9.994,9.994,0,0,1,.4-3.128,3.892,3.892,0,0,1,1.191-1.828,3.054,3.054,0,0,1,1.99-.643,3.255,3.255,0,0,1,1.552.355,2.969,2.969,0,0,1,1.1,1.024,5.466,5.466,0,0,1,.682,1.63,10.789,10.789,0,0,1,.248,2.59,10.039,10.039,0,0,1-.4,3.114,3.888,3.888,0,0,1-1.188,1.831,3.35,3.35,0,0,1-4.493-.489A7.208,7.208,0,0,1,524.511,336.349Zm1.387,0a6.847,6.847,0,0,0,.634,3.592,1.811,1.811,0,0,0,3.125,0,10.5,10.5,0,0,0,0-7.184,1.88,1.88,0,0,0-1.577-.89,1.73,1.73,0,0,0-1.484.785A6.932,6.932,0,0,0,525.9,336.349Z" transform="translate(-20.392 -18.096)"/><path class="cls-2" d="M532.9,338.465v-1.353h4.145v1.353H532.9Z" transform="translate(-20.392 -18.096)"/><path class="cls-2" d="M541.8,341.754v-4.642l-4.234-6.317h1.769l2.166,3.3q0.6,0.927,1.117,1.854,0.5-.86,1.2-1.937l2.129-3.222h1.693l-4.385,6.317v4.642H541.8Z" transform="translate(-20.392 -18.096)"/><path class="cls-2" d="M552.813,339.2l1.394,0.172a3.391,3.391,0,0,1-1.222,1.892,4.148,4.148,0,0,1-5.048-.4,4.185,4.185,0,0,1-1.022-3.009,4.381,4.381,0,0,1,1.034-3.11,3.506,3.506,0,0,1,2.683-1.106,3.408,3.408,0,0,1,2.608,1.084,4.3,4.3,0,0,1,1.012,3.05c0,0.08,0,.2-0.007.359h-5.937a3.047,3.047,0,0,0,.742,2,2.211,2.211,0,0,0,1.664.7,2.068,2.068,0,0,0,1.267-.389A2.579,2.579,0,0,0,552.813,339.2Zm-4.43-2.175h4.444a2.676,2.676,0,0,0-.51-1.5,2.068,2.068,0,0,0-1.671-.778,2.145,2.145,0,0,0-1.562.621A2.45,2.45,0,0,0,548.383,337.022Z" transform="translate(-20.392 -18.096)"/><path class="cls-2" d="M561.095,340.774a5.029,5.029,0,0,1-1.443.9,4.179,4.179,0,0,1-1.487.261,2.9,2.9,0,0,1-2.017-.639,2.106,2.106,0,0,1-.7-1.633,2.173,2.173,0,0,1,.266-1.065,2.2,2.2,0,0,1,.7-0.774,3.283,3.283,0,0,1,.971-0.441,9.681,9.681,0,0,1,1.2-.2,12.337,12.337,0,0,0,2.406-.463c0-.184.007-0.3,0.007-0.351a1.483,1.483,0,0,0-.382-1.159,2.261,2.261,0,0,0-1.536-.456,2.387,2.387,0,0,0-1.405.333,2.027,2.027,0,0,0-.671,1.177l-1.319-.179a3.263,3.263,0,0,1,.592-1.364,2.591,2.591,0,0,1,1.192-.8,5.32,5.32,0,0,1,1.806-.281,4.8,4.8,0,0,1,1.656.239,2.189,2.189,0,0,1,.938.6,2.123,2.123,0,0,1,.42.916,7.57,7.57,0,0,1,.067,1.241v1.794a18.984,18.984,0,0,0,.086,2.374,2.988,2.988,0,0,0,.341.953h-1.409A2.852,2.852,0,0,1,561.095,340.774Zm-0.112-3a9.946,9.946,0,0,1-2.2.508,5.112,5.112,0,0,0-1.177.269,1.175,1.175,0,0,0-.532.438,1.189,1.189,0,0,0,.222,1.536,1.761,1.761,0,0,0,1.2.359,2.787,2.787,0,0,0,1.387-.34,2.1,2.1,0,0,0,.892-0.931,3.231,3.231,0,0,0,.218-1.346V337.77Z" transform="translate(-20.392 -18.096)"/><path class="cls-2" d="M564.423,341.754v-7.939h1.214v1.2a3.277,3.277,0,0,1,.858-1.114,1.5,1.5,0,0,1,.865-0.27,2.64,2.64,0,0,1,1.387.434l-0.465,1.249a1.931,1.931,0,0,0-.989-0.292,1.283,1.283,0,0,0-.794.266,1.432,1.432,0,0,0-.5.736,5.21,5.21,0,0,0-.226,1.57v4.156h-1.349Z" transform="translate(-20.392 -18.096)"/><path class="cls-2" d="M517.1,360.125V349.167h4.145a10.024,10.024,0,0,1,1.671.1,3.319,3.319,0,0,1,1.357.512,2.683,2.683,0,0,1,.88,1.058,3.559,3.559,0,0,1-.558,3.861,4.286,4.286,0,0,1-3.224.968h-2.817v4.456H517.1Zm1.454-5.749h2.84a3.02,3.02,0,0,0,2-.523,1.862,1.862,0,0,0,.592-1.473,1.976,1.976,0,0,0-.349-1.177,1.629,1.629,0,0,0-.918-0.647,6.253,6.253,0,0,0-1.356-.1h-2.811v3.917Z" transform="translate(-20.392 -18.096)"/><path class="cls-2" d="M532.613,357.569l1.394,0.172a3.391,3.391,0,0,1-1.222,1.892,4.148,4.148,0,0,1-5.048-.4,4.185,4.185,0,0,1-1.022-3.009,4.381,4.381,0,0,1,1.034-3.11,3.506,3.506,0,0,1,2.683-1.106,3.408,3.408,0,0,1,2.608,1.084,4.3,4.3,0,0,1,1.012,3.05c0,0.08,0,.2-0.007.359h-5.937a3.047,3.047,0,0,0,.742,2,2.211,2.211,0,0,0,1.664.7,2.068,2.068,0,0,0,1.267-.389A2.579,2.579,0,0,0,532.613,357.569Zm-4.43-2.175h4.444a2.676,2.676,0,0,0-.51-1.5,2.068,2.068,0,0,0-1.671-.778,2.145,2.145,0,0,0-1.562.621A2.45,2.45,0,0,0,528.184,355.394Z" transform="translate(-20.392 -18.096)"/><path class="cls-2" d="M535.687,360.125v-7.939H536.9v1.2a3.277,3.277,0,0,1,.858-1.114,1.5,1.5,0,0,1,.865-0.27,2.64,2.64,0,0,1,1.387.434l-0.465,1.249a1.931,1.931,0,0,0-.989-0.292,1.283,1.283,0,0,0-.794.266,1.432,1.432,0,0,0-.5.736,5.21,5.21,0,0,0-.226,1.57v4.156h-1.349Z" transform="translate(-20.392 -18.096)"/><path class="cls-2" d="M540.82,350.714v-1.547h1.349v1.547H540.82Zm0,9.412v-7.939h1.349v7.939H540.82Z" transform="translate(-20.392 -18.096)"/><path class="cls-2" d="M543.721,356.156a4.084,4.084,0,0,1,1.229-3.267,3.71,3.71,0,0,1,2.5-.882,3.579,3.579,0,0,1,2.684,1.073,4.077,4.077,0,0,1,1.042,2.964,5.248,5.248,0,0,1-.461,2.411,3.259,3.259,0,0,1-1.342,1.364,3.915,3.915,0,0,1-1.923.486,3.583,3.583,0,0,1-2.7-1.069A4.265,4.265,0,0,1,543.721,356.156Zm1.387,0a3.373,3.373,0,0,0,.667,2.284,2.225,2.225,0,0,0,3.351,0,3.457,3.457,0,0,0,.667-2.325,3.274,3.274,0,0,0-.671-2.231,2.228,2.228,0,0,0-3.347,0A3.357,3.357,0,0,0,545.107,356.156Z" transform="translate(-20.392 -18.096)"/><path class="cls-2" d="M557.924,360.125v-1A2.476,2.476,0,0,1,555.7,360.3a3.128,3.128,0,0,1-1.75-.523,3.45,3.45,0,0,1-1.237-1.461,5.044,5.044,0,0,1-.438-2.157,5.636,5.636,0,0,1,.4-2.157,3.126,3.126,0,0,1,1.191-1.484,3.2,3.2,0,0,1,1.776-.516,2.654,2.654,0,0,1,2.2,1.092v-3.932h1.342v10.959h-1.252Zm-4.265-3.962a3.441,3.441,0,0,0,.645,2.28,1.946,1.946,0,0,0,1.521.755,1.91,1.91,0,0,0,1.5-.722,3.321,3.321,0,0,0,.618-2.2,3.731,3.731,0,0,0-.629-2.392,1.939,1.939,0,0,0-1.552-.762,1.872,1.872,0,0,0-1.5.732A3.608,3.608,0,0,0,553.659,356.164Z" transform="translate(-20.392 -18.096)"/><path class="cls-2" d="M560.758,357.756l1.334-.209a1.854,1.854,0,0,0,.626,1.226,2.182,2.182,0,0,0,1.435.426,2.109,2.109,0,0,0,1.379-.378,1.128,1.128,0,0,0,.45-0.886,0.818,0.818,0,0,0-.4-0.718,5.846,5.846,0,0,0-1.379-.456,12.637,12.637,0,0,1-2.058-.647,1.958,1.958,0,0,1-1.165-1.82,2.044,2.044,0,0,1,.243-0.983,2.188,2.188,0,0,1,.663-0.751,2.786,2.786,0,0,1,.858-0.392,4.084,4.084,0,0,1,1.166-.161,4.608,4.608,0,0,1,1.645.27A2.235,2.235,0,0,1,566.6,353a2.85,2.85,0,0,1,.465,1.23l-1.319.179a1.435,1.435,0,0,0-.521-0.957,1.91,1.91,0,0,0-1.219-.344,2.211,2.211,0,0,0-1.326.307,0.893,0.893,0,0,0-.4.718,0.738,0.738,0,0,0,.165.471,1.191,1.191,0,0,0,.518.359q0.2,0.075,1.191.344a16.61,16.61,0,0,1,2,.625,2.024,2.024,0,0,1,.889.707,1.967,1.967,0,0,1,.322,1.151,2.251,2.251,0,0,1-.394,1.267,2.54,2.54,0,0,1-1.136.919,4.138,4.138,0,0,1-1.679.325,3.745,3.745,0,0,1-2.364-.643A2.982,2.982,0,0,1,560.758,357.756Z" transform="translate(-20.392 -18.096)"/><rect class="cls-3" x="92.778" y="161.89" width="69.091" height="108.694"/><rect class="cls-3" x="228.173" y="167.965" width="69.091" height="33.423"/><rect class="cls-3" x="358.361" y="175.575" width="69.091" height="8.715"/><rect class="cls-4" x="486.999" y="161.955" width="69.091" height="18.638"/><path class="cls-2" d="M32.744,148.277v1.293H25.481a2.375,2.375,0,0,1,.157-0.935,4.948,4.948,0,0,1,.888-1.458,13.89,13.89,0,0,1,1.765-1.66,14.93,14.93,0,0,0,2.421-2.321,2.772,2.772,0,0,0,.629-1.618,1.8,1.8,0,0,0-.573-1.35,2.072,2.072,0,0,0-1.5-.549,2.11,2.11,0,0,0-1.559.583,2.2,2.2,0,0,0-.592,1.615l-1.386-.142a3.4,3.4,0,0,1,1.072-2.358,3.662,3.662,0,0,1,2.5-.811,3.489,3.489,0,0,1,2.5.875,2.867,2.867,0,0,1,.922,2.168,3.286,3.286,0,0,1-.27,1.293,5.021,5.021,0,0,1-.9,1.338,21.742,21.742,0,0,1-2.08,1.929q-1.214,1.017-1.559,1.379a4.421,4.421,0,0,0-.57.729h5.389Z" transform="translate(-20.392 -18.096)"/><path class="cls-2" d="M34.19,144.166a10,10,0,0,1,.4-3.128,3.889,3.889,0,0,1,1.192-1.828,3.053,3.053,0,0,1,1.99-.643,3.251,3.251,0,0,1,1.551.355,2.966,2.966,0,0,1,1.1,1.024,5.5,5.5,0,0,1,.682,1.63,10.822,10.822,0,0,1,.247,2.59,10.041,10.041,0,0,1-.4,3.114,3.894,3.894,0,0,1-1.188,1.831,3.052,3.052,0,0,1-2,.647,3.019,3.019,0,0,1-2.5-1.136A7.212,7.212,0,0,1,34.19,144.166Zm1.386,0a6.852,6.852,0,0,0,.634,3.592,1.812,1.812,0,0,0,3.125,0,10.5,10.5,0,0,0,0-7.184,1.881,1.881,0,0,0-1.578-.89,1.729,1.729,0,0,0-1.484.785A6.932,6.932,0,0,0,35.577,144.166Z" transform="translate(-20.392 -18.096)"/><path class="cls-2" d="M42.982,141.243a3.326,3.326,0,0,1,.592-2,1.984,1.984,0,0,1,1.716-.822,2.229,2.229,0,0,1,1.713.736A3.739,3.739,0,0,1,47,143.466a2.2,2.2,0,0,1-1.69.751,2.136,2.136,0,0,1-1.66-.74A3.26,3.26,0,0,1,42.982,141.243Zm2.346-1.892a1.016,1.016,0,0,0-.835.434,2.739,2.739,0,0,0-.333,1.592,2.465,2.465,0,0,0,.337,1.484,1.028,1.028,0,0,0,1.675,0,2.726,2.726,0,0,0,.333-1.585,2.478,2.478,0,0,0-.337-1.491A1.028,1.028,0,0,0,45.328,139.351Zm0.008,10.623,6.011-11.55h1.094l-5.988,11.55H45.336ZM50.087,147a3.323,3.323,0,0,1,.592-2,1.994,1.994,0,0,1,1.724-.818,2.227,2.227,0,0,1,1.712.736,3.739,3.739,0,0,1-.007,4.306,2.207,2.207,0,0,1-1.7.751,2.132,2.132,0,0,1-1.66-.744A3.262,3.262,0,0,1,50.087,147Zm2.354-1.891a1.023,1.023,0,0,0-.843.434,2.743,2.743,0,0,0-.333,1.592,2.466,2.466,0,0,0,.337,1.48,1.033,1.033,0,0,0,1.683,0,2.723,2.723,0,0,0,.333-1.584,2.483,2.483,0,0,0-.337-1.492A1.03,1.03,0,0,0,52.441,145.107Z" transform="translate(-20.392 -18.096)"/><path class="cls-2" d="M30.735,175.607H29.386v-8.574a6.979,6.979,0,0,1-1.278.927,9.044,9.044,0,0,1-1.42.7v-1.3a8.15,8.15,0,0,0,1.979-1.286,5.054,5.054,0,0,0,1.2-1.465h0.87v11Z" transform="translate(-20.392 -18.096)"/><path class="cls-2" d="M34.19,170.2a10,10,0,0,1,.4-3.128,3.889,3.889,0,0,1,1.192-1.828,3.053,3.053,0,0,1,1.99-.643,3.251,3.251,0,0,1,1.551.355,2.966,2.966,0,0,1,1.1,1.024,5.5,5.5,0,0,1,.682,1.63,10.822,10.822,0,0,1,.247,2.59,10.041,10.041,0,0,1-.4,3.114,3.894,3.894,0,0,1-1.188,1.831,3.052,3.052,0,0,1-2,.647,3.019,3.019,0,0,1-2.5-1.136A7.212,7.212,0,0,1,34.19,170.2Zm1.386,0a6.852,6.852,0,0,0,.634,3.592,1.812,1.812,0,0,0,3.125,0,10.5,10.5,0,0,0,0-7.184,1.881,1.881,0,0,0-1.578-.89,1.729,1.729,0,0,0-1.484.785A6.932,6.932,0,0,0,35.577,170.2Z" transform="translate(-20.392 -18.096)"/><path class="cls-2" d="M42.982,167.279a3.326,3.326,0,0,1,.592-2,1.984,1.984,0,0,1,1.716-.822A2.229,2.229,0,0,1,47,165.2,3.739,3.739,0,0,1,47,169.5a2.2,2.2,0,0,1-1.69.751,2.136,2.136,0,0,1-1.66-.74A3.26,3.26,0,0,1,42.982,167.279Zm2.346-1.892a1.016,1.016,0,0,0-.835.434,2.739,2.739,0,0,0-.333,1.592A2.465,2.465,0,0,0,44.5,168.9a1.028,1.028,0,0,0,1.675,0,2.726,2.726,0,0,0,.333-1.585,2.478,2.478,0,0,0-.337-1.491A1.028,1.028,0,0,0,45.328,165.388Zm0.008,10.623,6.011-11.55h1.094l-5.988,11.55H45.336Zm4.751-2.976a3.323,3.323,0,0,1,.592-2,1.994,1.994,0,0,1,1.724-.818,2.227,2.227,0,0,1,1.712.736,3.739,3.739,0,0,1-.007,4.306,2.207,2.207,0,0,1-1.7.751,2.132,2.132,0,0,1-1.66-.744A3.262,3.262,0,0,1,50.087,173.035Zm2.354-1.891a1.023,1.023,0,0,0-.843.434,2.743,2.743,0,0,0-.333,1.592,2.466,2.466,0,0,0,.337,1.48,1.033,1.033,0,0,0,1.683,0,2.723,2.723,0,0,0,.333-1.584,2.483,2.483,0,0,0-.337-1.492A1.03,1.03,0,0,0,52.441,171.144Z" transform="translate(-20.392 -18.096)"/><path class="cls-2" d="M20.392,224v-1.353h4.145V224H20.392Z" transform="translate(-20.392 -18.096)"/><path class="cls-2" d="M30.735,227.288H29.386v-8.574a6.979,6.979,0,0,1-1.278.927,9.044,9.044,0,0,1-1.42.7v-1.3a8.15,8.15,0,0,0,1.979-1.286,5.054,5.054,0,0,0,1.2-1.465h0.87v11Z" transform="translate(-20.392 -18.096)"/><path class="cls-2" d="M34.191,221.883a10,10,0,0,1,.4-3.128,3.889,3.889,0,0,1,1.192-1.828,3.053,3.053,0,0,1,1.99-.643,3.251,3.251,0,0,1,1.551.355,2.966,2.966,0,0,1,1.1,1.024,5.5,5.5,0,0,1,.682,1.63,10.822,10.822,0,0,1,.247,2.59,10.041,10.041,0,0,1-.4,3.114,3.894,3.894,0,0,1-1.188,1.831,3.052,3.052,0,0,1-2,.647,3.019,3.019,0,0,1-2.5-1.136A7.212,7.212,0,0,1,34.191,221.883Zm1.386,0a6.852,6.852,0,0,0,.634,3.592,1.812,1.812,0,0,0,3.125,0,10.5,10.5,0,0,0,0-7.184,1.881,1.881,0,0,0-1.578-.89,1.729,1.729,0,0,0-1.484.785A6.932,6.932,0,0,0,35.577,221.883Z" transform="translate(-20.392 -18.096)"/><path class="cls-2" d="M42.983,218.96a3.326,3.326,0,0,1,.592-2,1.984,1.984,0,0,1,1.716-.822,2.229,2.229,0,0,1,1.713.736A3.739,3.739,0,0,1,47,221.184a2.2,2.2,0,0,1-1.69.751,2.136,2.136,0,0,1-1.66-.74A3.26,3.26,0,0,1,42.983,218.96Zm2.346-1.892a1.016,1.016,0,0,0-.835.434,2.739,2.739,0,0,0-.333,1.592,2.465,2.465,0,0,0,.337,1.484,1.028,1.028,0,0,0,1.675,0,2.726,2.726,0,0,0,.333-1.585,2.478,2.478,0,0,0-.337-1.491A1.028,1.028,0,0,0,45.329,217.069Zm0.008,10.623,6.011-11.55h1.094l-5.988,11.55H45.336Zm4.751-2.976a3.323,3.323,0,0,1,.592-2A1.994,1.994,0,0,1,52.4,221.9a2.227,2.227,0,0,1,1.712.736,3.739,3.739,0,0,1-.007,4.306,2.207,2.207,0,0,1-1.7.751,2.132,2.132,0,0,1-1.66-.744A3.262,3.262,0,0,1,50.088,224.716Zm2.354-1.891a1.023,1.023,0,0,0-.843.434,2.743,2.743,0,0,0-.333,1.592,2.466,2.466,0,0,0,.337,1.48,1.033,1.033,0,0,0,1.683,0,2.723,2.723,0,0,0,.333-1.584,2.483,2.483,0,0,0-.337-1.492A1.03,1.03,0,0,0,52.441,222.825Z" transform="translate(-20.392 -18.096)"/><path class="cls-2" d="M20.392,250.306v-1.353h4.145v1.353H20.392Z" transform="translate(-20.392 -18.096)"/><path class="cls-2" d="M32.744,252.3v1.293H25.481a2.375,2.375,0,0,1,.157-0.935,4.948,4.948,0,0,1,.888-1.458,13.89,13.89,0,0,1,1.765-1.66,14.93,14.93,0,0,0,2.421-2.321,2.772,2.772,0,0,0,.629-1.618,1.8,1.8,0,0,0-.573-1.35,2.072,2.072,0,0,0-1.5-.549,2.11,2.11,0,0,0-1.559.583,2.2,2.2,0,0,0-.592,1.615l-1.386-.142a3.4,3.4,0,0,1,1.072-2.358,3.662,3.662,0,0,1,2.5-.811,3.489,3.489,0,0,1,2.5.875,2.867,2.867,0,0,1,.922,2.168,3.286,3.286,0,0,1-.27,1.293,5.021,5.021,0,0,1-.9,1.338,21.742,21.742,0,0,1-2.08,1.929q-1.214,1.017-1.559,1.379a4.421,4.421,0,0,0-.57.729h5.389Z" transform="translate(-20.392 -18.096)"/><path class="cls-2" d="M34.191,248.19a10,10,0,0,1,.4-3.128,3.889,3.889,0,0,1,1.192-1.828,3.053,3.053,0,0,1,1.99-.643,3.251,3.251,0,0,1,1.551.355,2.966,2.966,0,0,1,1.1,1.024,5.5,5.5,0,0,1,.682,1.63,10.822,10.822,0,0,1,.247,2.59,10.041,10.041,0,0,1-.4,3.114,3.894,3.894,0,0,1-1.188,1.831,3.052,3.052,0,0,1-2,.647,3.019,3.019,0,0,1-2.5-1.136A7.212,7.212,0,0,1,34.191,248.19Zm1.386,0a6.852,6.852,0,0,0,.634,3.592,1.812,1.812,0,0,0,3.125,0,10.5,10.5,0,0,0,0-7.184,1.881,1.881,0,0,0-1.578-.89,1.729,1.729,0,0,0-1.484.785A6.932,6.932,0,0,0,35.577,248.19Z" transform="translate(-20.392 -18.096)"/><path class="cls-2" d="M42.983,245.267a3.326,3.326,0,0,1,.592-2,1.984,1.984,0,0,1,1.716-.822,2.229,2.229,0,0,1,1.713.736A3.739,3.739,0,0,1,47,247.491a2.2,2.2,0,0,1-1.69.751,2.136,2.136,0,0,1-1.66-.74A3.26,3.26,0,0,1,42.983,245.267Zm2.346-1.892a1.016,1.016,0,0,0-.835.434,2.739,2.739,0,0,0-.333,1.592,2.465,2.465,0,0,0,.337,1.484,1.028,1.028,0,0,0,1.675,0,2.726,2.726,0,0,0,.333-1.585,2.478,2.478,0,0,0-.337-1.491A1.028,1.028,0,0,0,45.329,243.375ZM45.336,254l6.011-11.55h1.094L46.453,254H45.336Zm4.751-2.976a3.323,3.323,0,0,1,.592-2,1.994,1.994,0,0,1,1.724-.818,2.227,2.227,0,0,1,1.712.736,3.739,3.739,0,0,1-.007,4.306,2.207,2.207,0,0,1-1.7.751,2.132,2.132,0,0,1-1.66-.744A3.262,3.262,0,0,1,50.088,251.023Zm2.354-1.891a1.023,1.023,0,0,0-.843.434,2.743,2.743,0,0,0-.333,1.592,2.466,2.466,0,0,0,.337,1.48,1.033,1.033,0,0,0,1.683,0,2.723,2.723,0,0,0,.333-1.584,2.483,2.483,0,0,0-.337-1.492A1.03,1.03,0,0,0,52.441,249.132Z" transform="translate(-20.392 -18.096)"/><path class="cls-2" d="M20.392,278.361v-1.353h4.145v1.353H20.392Z" transform="translate(-20.392 -18.096)"/><path class="cls-2" d="M25.661,278.757l1.349-.179a2.957,2.957,0,0,0,.791,1.648,1.955,1.955,0,0,0,1.36.5,2.182,2.182,0,0,0,1.607-.658,2.218,2.218,0,0,0,.656-1.63,2.062,2.062,0,0,0-.607-1.529,2.1,2.1,0,0,0-1.544-.6,3.887,3.887,0,0,0-.952.149l0.15-1.181a2.01,2.01,0,0,0,.217.015,2.786,2.786,0,0,0,1.552-.449,1.534,1.534,0,0,0,.689-1.383,1.634,1.634,0,0,0-.5-1.226,1.786,1.786,0,0,0-1.3-.486,1.841,1.841,0,0,0-1.312.493,2.474,2.474,0,0,0-.675,1.48l-1.349-.239a3.458,3.458,0,0,1,1.125-2.1,3.256,3.256,0,0,1,2.181-.744,3.6,3.6,0,0,1,1.656.385,2.792,2.792,0,0,1,1.158,1.05,2.7,2.7,0,0,1,.4,1.413,2.31,2.31,0,0,1-.382,1.293,2.608,2.608,0,0,1-1.132.927,2.55,2.55,0,0,1,1.514.931,2.828,2.828,0,0,1,.54,1.768,3.23,3.23,0,0,1-1.049,2.433,3.7,3.7,0,0,1-2.653,1,3.455,3.455,0,0,1-2.4-.86A3.319,3.319,0,0,1,25.661,278.757Z" transform="translate(-20.392 -18.096)"/><path class="cls-2" d="M34.191,276.246a10,10,0,0,1,.4-3.128,3.889,3.889,0,0,1,1.192-1.828,3.053,3.053,0,0,1,1.99-.643,3.251,3.251,0,0,1,1.551.355,2.966,2.966,0,0,1,1.1,1.024,5.5,5.5,0,0,1,.682,1.63,10.822,10.822,0,0,1,.247,2.59,10.041,10.041,0,0,1-.4,3.114,3.894,3.894,0,0,1-1.188,1.831,3.052,3.052,0,0,1-2,.647,3.019,3.019,0,0,1-2.5-1.136A7.212,7.212,0,0,1,34.191,276.246Zm1.386,0a6.852,6.852,0,0,0,.634,3.592,1.812,1.812,0,0,0,3.125,0,10.5,10.5,0,0,0,0-7.184,1.881,1.881,0,0,0-1.578-.89,1.729,1.729,0,0,0-1.484.785A6.932,6.932,0,0,0,35.577,276.246Z" transform="translate(-20.392 -18.096)"/><path class="cls-2" d="M42.983,273.323a3.326,3.326,0,0,1,.592-2,1.984,1.984,0,0,1,1.716-.822,2.229,2.229,0,0,1,1.713.736A3.739,3.739,0,0,1,47,275.546a2.2,2.2,0,0,1-1.69.751,2.136,2.136,0,0,1-1.66-.74A3.26,3.26,0,0,1,42.983,273.323Zm2.346-1.892a1.016,1.016,0,0,0-.835.434,2.739,2.739,0,0,0-.333,1.592,2.465,2.465,0,0,0,.337,1.484,1.028,1.028,0,0,0,1.675,0,2.726,2.726,0,0,0,.333-1.585,2.478,2.478,0,0,0-.337-1.491A1.028,1.028,0,0,0,45.329,271.431Zm0.008,10.623,6.011-11.55h1.094l-5.988,11.55H45.336Zm4.751-2.976a3.323,3.323,0,0,1,.592-2,1.994,1.994,0,0,1,1.724-.818,2.227,2.227,0,0,1,1.712.736,3.739,3.739,0,0,1-.007,4.306,2.207,2.207,0,0,1-1.7.751,2.132,2.132,0,0,1-1.66-.744A3.262,3.262,0,0,1,50.088,279.079Zm2.354-1.891a1.023,1.023,0,0,0-.843.434,2.743,2.743,0,0,0-.333,1.592,2.466,2.466,0,0,0,.337,1.48,1.033,1.033,0,0,0,1.683,0,2.723,2.723,0,0,0,.333-1.584,2.483,2.483,0,0,0-.337-1.492A1.03,1.03,0,0,0,52.441,277.188Z" transform="translate(-20.392 -18.096)"/><path class="cls-2" d="M25.661,120.6l1.349-.179a2.957,2.957,0,0,0,.791,1.648,1.955,1.955,0,0,0,1.36.5,2.182,2.182,0,0,0,1.607-.658,2.218,2.218,0,0,0,.656-1.63,2.062,2.062,0,0,0-.607-1.529,2.1,2.1,0,0,0-1.544-.6,3.887,3.887,0,0,0-.952.149l0.15-1.181a2.01,2.01,0,0,0,.217.015,2.786,2.786,0,0,0,1.552-.449,1.534,1.534,0,0,0,.689-1.383,1.634,1.634,0,0,0-.5-1.226,1.786,1.786,0,0,0-1.3-.486,1.841,1.841,0,0,0-1.312.493,2.474,2.474,0,0,0-.675,1.48l-1.349-.239a3.458,3.458,0,0,1,1.125-2.1,3.256,3.256,0,0,1,2.181-.744,3.6,3.6,0,0,1,1.656.385,2.792,2.792,0,0,1,1.158,1.05,2.7,2.7,0,0,1,.4,1.413,2.31,2.31,0,0,1-.382,1.293,2.608,2.608,0,0,1-1.132.927,2.55,2.55,0,0,1,1.514.931,2.828,2.828,0,0,1,.54,1.768,3.23,3.23,0,0,1-1.049,2.433,3.7,3.7,0,0,1-2.653,1,3.455,3.455,0,0,1-2.4-.86A3.319,3.319,0,0,1,25.661,120.6Z" transform="translate(-20.392 -18.096)"/><path class="cls-2" d="M34.19,118.09a10,10,0,0,1,.4-3.128,3.889,3.889,0,0,1,1.192-1.828,3.053,3.053,0,0,1,1.99-.643,3.251,3.251,0,0,1,1.551.355,2.966,2.966,0,0,1,1.1,1.024,5.5,5.5,0,0,1,.682,1.63,10.822,10.822,0,0,1,.247,2.59,10.041,10.041,0,0,1-.4,3.114,3.894,3.894,0,0,1-1.188,1.831,3.052,3.052,0,0,1-2,.647,3.019,3.019,0,0,1-2.5-1.136A7.212,7.212,0,0,1,34.19,118.09Zm1.386,0a6.852,6.852,0,0,0,.634,3.592,1.812,1.812,0,0,0,3.125,0,6.863,6.863,0,0,0,.633-3.588,6.858,6.858,0,0,0-.633-3.6,1.881,1.881,0,0,0-1.578-.89,1.729,1.729,0,0,0-1.484.785A6.932,6.932,0,0,0,35.577,118.09Z" transform="translate(-20.392 -18.096)"/><path class="cls-2" d="M42.982,115.167a3.326,3.326,0,0,1,.592-2,1.984,1.984,0,0,1,1.716-.822,2.229,2.229,0,0,1,1.713.736A3.739,3.739,0,0,1,47,117.391a2.2,2.2,0,0,1-1.69.751,2.136,2.136,0,0,1-1.66-.74A3.26,3.26,0,0,1,42.982,115.167Zm2.346-1.892a1.016,1.016,0,0,0-.835.434,2.739,2.739,0,0,0-.333,1.592,2.465,2.465,0,0,0,.337,1.484,1.028,1.028,0,0,0,1.675,0A2.726,2.726,0,0,0,46.5,115.2a2.478,2.478,0,0,0-.337-1.491A1.028,1.028,0,0,0,45.328,113.276ZM45.336,123.9l6.011-11.55h1.094L46.453,123.9H45.336Zm4.751-2.976a3.323,3.323,0,0,1,.592-2,1.994,1.994,0,0,1,1.724-.818,2.227,2.227,0,0,1,1.712.736,3.739,3.739,0,0,1-.007,4.306,2.207,2.207,0,0,1-1.7.751,2.132,2.132,0,0,1-1.66-.744A3.262,3.262,0,0,1,50.087,120.923Zm2.354-1.891a1.023,1.023,0,0,0-.843.434,2.743,2.743,0,0,0-.333,1.592,2.466,2.466,0,0,0,.337,1.48,1.033,1.033,0,0,0,1.683,0,2.723,2.723,0,0,0,.333-1.584,2.483,2.483,0,0,0-.337-1.492A1.03,1.03,0,0,0,52.441,119.032Z" transform="translate(-20.392 -18.096)"/><rect class="cls-4" x="358.361" y="136.347" width="69.091" height="39.237"/><rect class="cls-4" x="228.173" y="103.433" width="69.091" height="64.532"/><rect class="cls-4" x="92.778" y="84.408" width="69.091" height="77.482"/><path class="cls-2" d="M129.081,95.842a3.329,3.329,0,0,0,2.5,1.163,1.824,1.824,0,0,0,2.026-1.791c0-1.164-.8-1.944-3.131-1.944V92.307c2.087,0,2.778-.8,2.778-1.821a1.505,1.505,0,0,0-1.688-1.545,2.973,2.973,0,0,0-2.088.995l-0.675-.8a4.037,4.037,0,0,1,2.809-1.224c1.7,0,2.932.9,2.932,2.479a2.421,2.421,0,0,1-1.781,2.326v0.062a2.522,2.522,0,0,1,2.118,2.479c0,1.729-1.428,2.785-3.224,2.785a4.168,4.168,0,0,1-3.224-1.377Z" transform="translate(-20.392 -18.096)"/><path class="cls-2" d="M141.223,89.185h-4.881V88.1h6.309v0.78c-2.318,2.954-2.794,5.173-2.962,8.984h-1.305A14.344,14.344,0,0,1,141.223,89.185Z" transform="translate(-20.392 -18.096)"/><path class="cls-2" d="M145.214,96.118a0.965,0.965,0,1,1-.921.979A0.925,0.925,0,0,1,145.214,96.118Z" transform="translate(-20.392 -18.096)"/><path class="cls-2" d="M148.115,95.888a3.337,3.337,0,0,0,2.472,1.117,2.11,2.11,0,0,0,2.149-2.234,1.965,1.965,0,0,0-2.087-2.143,2.76,2.76,0,0,0-1.673.6L148.3,92.8l0.322-4.7h4.9v1.086h-3.792l-0.261,2.893a3.017,3.017,0,0,1,1.5-.4,2.815,2.815,0,0,1,3.039,3.061,3.2,3.2,0,0,1-3.3,3.306,4.3,4.3,0,0,1-3.208-1.332Z" transform="translate(-20.392 -18.096)"/><path class="cls-2" d="M155.283,90.792c0-2.02.906-3.153,2.287-3.153,1.366,0,2.288,1.133,2.288,3.153s-0.921,3.184-2.288,3.184C156.189,93.975,155.283,92.812,155.283,90.792Zm3.607,0c0-1.607-.537-2.372-1.32-2.372s-1.335.765-1.335,2.372c0,1.592.538,2.4,1.335,2.4S158.891,92.383,158.891,90.792Zm-1.028,7.254,5.557-10.407h0.844l-5.557,10.407h-0.844Zm4.436-3.183c0-2,.906-3.153,2.287-3.153,1.366,0,2.288,1.148,2.288,3.153,0,2.035-.921,3.183-2.288,3.183C163.2,98.046,162.3,96.9,162.3,94.863Zm3.607,0c0-1.592-.537-2.373-1.32-2.373s-1.335.781-1.335,2.373,0.553,2.4,1.335,2.4S165.906,96.454,165.906,94.863Z" transform="translate(-20.392 -18.096)"/><path class="cls-5" d="M131.061,174.262l1.3-.12a2.246,2.246,0,0,0,.629,1.323,1.733,1.733,0,0,0,1.192.411,2.06,2.06,0,0,0,1.09-.284,2.329,2.329,0,0,0,.769-0.759,4.452,4.452,0,0,0,.5-1.282,6.748,6.748,0,0,0,.2-1.645c0-.06,0-0.149-0.007-0.269a3.083,3.083,0,0,1-1.105,1.043,3.011,3.011,0,0,1-1.518.4,3.073,3.073,0,0,1-2.309-.987,3.6,3.6,0,0,1-.944-2.6,3.693,3.693,0,0,1,.985-2.684,3.3,3.3,0,0,1,2.47-1.017,3.53,3.53,0,0,1,1.96.576,3.6,3.6,0,0,1,1.349,1.641,8.068,8.068,0,0,1,.461,3.084,9.961,9.961,0,0,1-.457,3.345,3.922,3.922,0,0,1-1.36,1.9,3.529,3.529,0,0,1-2.118.65A2.9,2.9,0,0,1,131.061,174.262Zm5.524-4.837a2.631,2.631,0,0,0-.618-1.839,1.942,1.942,0,0,0-1.488-.68,2.055,2.055,0,0,0-1.566.732,2.712,2.712,0,0,0-.667,1.9,2.342,2.342,0,0,0,.634,1.7,2.088,2.088,0,0,0,1.563.654,2,2,0,0,0,1.54-.654A2.571,2.571,0,0,0,136.585,169.425Z" transform="translate(-20.392 -18.096)"/><path class="cls-5" d="M140.153,176.8v-1.533h1.537V176.8h-1.537Z" transform="translate(-20.392 -18.096)"/><path class="cls-5" d="M143.75,167.272v-1.293h7.113v1.046a14.946,14.946,0,0,0-2.08,2.96,17.989,17.989,0,0,0-1.592,3.8,14.086,14.086,0,0,0-.518,3.013h-1.386a13.383,13.383,0,0,1,.509-3.125,16.415,16.415,0,0,1,1.4-3.532,15.153,15.153,0,0,1,1.938-2.867H143.75Z" transform="translate(-20.392 -18.096)"/><path class="cls-5" d="M152.453,168.469a3.326,3.326,0,0,1,.592-2,1.984,1.984,0,0,1,1.716-.822,2.229,2.229,0,0,1,1.713.736,3.739,3.739,0,0,1-.007,4.306,2.2,2.2,0,0,1-1.69.751,2.136,2.136,0,0,1-1.66-.74A3.26,3.26,0,0,1,152.453,168.469Zm2.346-1.892a1.016,1.016,0,0,0-.835.434,2.739,2.739,0,0,0-.333,1.592,2.465,2.465,0,0,0,.337,1.484,1.028,1.028,0,0,0,1.675,0,2.726,2.726,0,0,0,.333-1.585,2.478,2.478,0,0,0-.337-1.491A1.028,1.028,0,0,0,154.8,166.577Zm0.008,10.623,6.011-11.55h1.094l-5.988,11.55h-1.117Zm4.751-2.976a3.323,3.323,0,0,1,.592-2,1.994,1.994,0,0,1,1.724-.818,2.227,2.227,0,0,1,1.712.736,3.739,3.739,0,0,1-.007,4.306,2.207,2.207,0,0,1-1.7.751,2.132,2.132,0,0,1-1.66-.744A3.262,3.262,0,0,1,159.558,174.225Zm2.354-1.891a1.023,1.023,0,0,0-.843.434,2.743,2.743,0,0,0-.333,1.592,2.466,2.466,0,0,0,.337,1.48,1.033,1.033,0,0,0,1.683,0,2.723,2.723,0,0,0,.333-1.584,2.483,2.483,0,0,0-.337-1.492A1.03,1.03,0,0,0,161.911,172.333Z" transform="translate(-20.392 -18.096)"/><path class="cls-2" d="M269.076,116.23v1.293h-7.263a2.375,2.375,0,0,1,.157-0.935,4.948,4.948,0,0,1,.888-1.458,13.89,13.89,0,0,1,1.765-1.66,14.93,14.93,0,0,0,2.421-2.321,2.772,2.772,0,0,0,.629-1.618,1.8,1.8,0,0,0-.573-1.35,2.072,2.072,0,0,0-1.5-.549,2.11,2.11,0,0,0-1.559.583,2.2,2.2,0,0,0-.592,1.615l-1.386-.142a3.4,3.4,0,0,1,1.072-2.358,3.662,3.662,0,0,1,2.5-.811,3.489,3.489,0,0,1,2.5.875,2.867,2.867,0,0,1,.922,2.168,3.286,3.286,0,0,1-.27,1.293,5.021,5.021,0,0,1-.9,1.338,21.742,21.742,0,0,1-2.08,1.929q-1.214,1.017-1.559,1.379a4.421,4.421,0,0,0-.57.729h5.389Z" transform="translate(-20.392 -18.096)"/><path class="cls-2" d="M272.6,111.581a2.537,2.537,0,0,1-1.244-.875,2.281,2.281,0,0,1-.4-1.36,2.656,2.656,0,0,1,.862-2.011,3.634,3.634,0,0,1,4.609.019,2.7,2.7,0,0,1,.877,2.03,2.232,2.232,0,0,1-.4,1.327,2.531,2.531,0,0,1-1.218.871,2.951,2.951,0,0,1,1.54,1.062,2.911,2.911,0,0,1,.528,1.749,3.146,3.146,0,0,1-1,2.362,4.067,4.067,0,0,1-5.247,0,3.189,3.189,0,0,1-1-2.4,2.891,2.891,0,0,1,.543-1.791A2.72,2.72,0,0,1,272.6,111.581Zm-0.7,2.781a2.426,2.426,0,0,0,.273,1.114,1.928,1.928,0,0,0,.813.833,2.381,2.381,0,0,0,1.162.3,2.18,2.18,0,0,0,1.6-.621,2.12,2.12,0,0,0,.63-1.577,2.157,2.157,0,0,0-.648-1.607,2.226,2.226,0,0,0-1.623-.635A2.143,2.143,0,0,0,271.894,114.361Zm0.435-5.061a1.7,1.7,0,0,0,.5,1.271,1.781,1.781,0,0,0,1.3.493,1.747,1.747,0,0,0,1.278-.49,1.617,1.617,0,0,0,.5-1.2,1.676,1.676,0,0,0-.513-1.245,1.75,1.75,0,0,0-1.278-.5,1.77,1.77,0,0,0-1.282.493A1.586,1.586,0,0,0,272.329,109.3Z" transform="translate(-20.392 -18.096)"/><path class="cls-2" d="M279.816,117.523v-1.533h1.537v1.533h-1.537Z" transform="translate(-20.392 -18.096)"/><path class="cls-2" d="M290.325,109.248l-1.342.1a2.533,2.533,0,0,0-.51-1.151,1.788,1.788,0,0,0-1.349-.576,1.857,1.857,0,0,0-1.132.359,3.068,3.068,0,0,0-1,1.353,7.053,7.053,0,0,0-.382,2.534,3.12,3.12,0,0,1,1.191-1.1,3.212,3.212,0,0,1,1.477-.359,3.064,3.064,0,0,1,2.3.991,3.55,3.55,0,0,1,.948,2.56,4.2,4.2,0,0,1-.446,1.917,3.243,3.243,0,0,1-1.225,1.357,3.354,3.354,0,0,1-1.769.471,3.461,3.461,0,0,1-2.75-1.237,6.232,6.232,0,0,1-1.064-4.078,7.3,7.3,0,0,1,1.177-4.62,3.386,3.386,0,0,1,2.766-1.256A2.941,2.941,0,0,1,290.325,109.248Zm-5.509,4.725a3.108,3.108,0,0,0,.3,1.331,2.2,2.2,0,0,0,.828.968,2.075,2.075,0,0,0,1.117.333,1.9,1.9,0,0,0,1.469-.688,2.7,2.7,0,0,0,.614-1.869,2.529,2.529,0,0,0-.607-1.791A2,2,0,0,0,287,111.6a2.084,2.084,0,0,0-1.552.654A2.355,2.355,0,0,0,284.815,113.973Z" transform="translate(-20.392 -18.096)"/><path class="cls-2" d="M292.116,109.2a3.326,3.326,0,0,1,.592-2,1.984,1.984,0,0,1,1.716-.822,2.229,2.229,0,0,1,1.713.736,3.739,3.739,0,0,1-.007,4.306,2.2,2.2,0,0,1-1.69.751,2.136,2.136,0,0,1-1.66-.74A3.26,3.26,0,0,1,292.116,109.2Zm2.346-1.892a1.016,1.016,0,0,0-.835.434,2.739,2.739,0,0,0-.333,1.592,2.465,2.465,0,0,0,.337,1.484,1.028,1.028,0,0,0,1.675,0,2.726,2.726,0,0,0,.333-1.585,2.478,2.478,0,0,0-.337-1.491A1.028,1.028,0,0,0,294.462,107.3Zm0.008,10.623,6.011-11.55h1.094l-5.988,11.55H294.47Zm4.751-2.976a3.323,3.323,0,0,1,.592-2,1.994,1.994,0,0,1,1.724-.818,2.227,2.227,0,0,1,1.712.736,3.739,3.739,0,0,1-.007,4.306,2.207,2.207,0,0,1-1.7.751,2.132,2.132,0,0,1-1.66-.744A3.262,3.262,0,0,1,299.221,114.952Zm2.354-1.891a1.023,1.023,0,0,0-.843.434,2.743,2.743,0,0,0-.333,1.592,2.466,2.466,0,0,0,.337,1.48,1.033,1.033,0,0,0,1.683,0,2.723,2.723,0,0,0,.333-1.584,2.483,2.483,0,0,0-.337-1.492A1.03,1.03,0,0,0,301.575,113.061Z" transform="translate(-20.392 -18.096)"/><path class="cls-5" d="M268.33,176.075a2.537,2.537,0,0,1-1.244-.875,2.281,2.281,0,0,1-.4-1.36,2.656,2.656,0,0,1,.862-2.011,3.634,3.634,0,0,1,4.609.019,2.7,2.7,0,0,1,.877,2.03,2.232,2.232,0,0,1-.4,1.327,2.531,2.531,0,0,1-1.218.871,2.951,2.951,0,0,1,1.54,1.062,2.911,2.911,0,0,1,.528,1.749,3.146,3.146,0,0,1-1,2.362,4.067,4.067,0,0,1-5.247,0,3.189,3.189,0,0,1-1-2.4,2.891,2.891,0,0,1,.543-1.791A2.72,2.72,0,0,1,268.33,176.075Zm-0.7,2.781a2.426,2.426,0,0,0,.273,1.114,1.928,1.928,0,0,0,.813.833,2.381,2.381,0,0,0,1.162.3,2.18,2.18,0,0,0,1.6-.621,2.12,2.12,0,0,0,.63-1.577,2.157,2.157,0,0,0-.648-1.607,2.226,2.226,0,0,0-1.623-.635A2.143,2.143,0,0,0,267.625,178.855Zm0.435-5.061a1.7,1.7,0,0,0,.5,1.271,1.781,1.781,0,0,0,1.3.493,1.747,1.747,0,0,0,1.278-.49,1.617,1.617,0,0,0,.5-1.2,1.676,1.676,0,0,0-.513-1.245,1.75,1.75,0,0,0-1.278-.5,1.77,1.77,0,0,0-1.282.493A1.586,1.586,0,0,0,268.06,173.794Z" transform="translate(-20.392 -18.096)"/><path class="cls-5" d="M275.548,182.018v-1.533h1.537v1.533h-1.537Z" transform="translate(-20.392 -18.096)"/><path class="cls-5" d="M286.056,173.742l-1.342.1a2.533,2.533,0,0,0-.51-1.151,1.788,1.788,0,0,0-1.349-.576,1.857,1.857,0,0,0-1.132.359,3.068,3.068,0,0,0-1,1.353,7.053,7.053,0,0,0-.382,2.534,3.12,3.12,0,0,1,1.191-1.1,3.212,3.212,0,0,1,1.477-.359,3.064,3.064,0,0,1,2.3.991,3.55,3.55,0,0,1,.948,2.56,4.2,4.2,0,0,1-.446,1.917,3.243,3.243,0,0,1-1.225,1.357,3.354,3.354,0,0,1-1.769.471,3.461,3.461,0,0,1-2.75-1.237A6.232,6.232,0,0,1,279,176.889a7.3,7.3,0,0,1,1.177-4.62,3.386,3.386,0,0,1,2.766-1.256A2.941,2.941,0,0,1,286.056,173.742Zm-5.509,4.725a3.108,3.108,0,0,0,.3,1.331,2.2,2.2,0,0,0,.828.968,2.075,2.075,0,0,0,1.117.333,1.9,1.9,0,0,0,1.469-.688,2.7,2.7,0,0,0,.614-1.869,2.529,2.529,0,0,0-.607-1.791,2,2,0,0,0-1.529-.654,2.084,2.084,0,0,0-1.552.654A2.355,2.355,0,0,0,280.547,178.467Z" transform="translate(-20.392 -18.096)"/><path class="cls-5" d="M287.848,173.69a3.326,3.326,0,0,1,.592-2,1.984,1.984,0,0,1,1.716-.822,2.229,2.229,0,0,1,1.713.736,3.739,3.739,0,0,1-.007,4.306,2.2,2.2,0,0,1-1.69.751,2.136,2.136,0,0,1-1.66-.74A3.26,3.26,0,0,1,287.848,173.69Zm2.346-1.892a1.016,1.016,0,0,0-.835.434,2.739,2.739,0,0,0-.333,1.592,2.465,2.465,0,0,0,.337,1.484,1.028,1.028,0,0,0,1.675,0,2.726,2.726,0,0,0,.333-1.585,2.478,2.478,0,0,0-.337-1.491A1.028,1.028,0,0,0,290.193,171.8Zm0.008,10.623,6.011-11.55h1.094l-5.988,11.55H290.2Zm4.751-2.976a3.323,3.323,0,0,1,.592-2,1.994,1.994,0,0,1,1.724-.818,2.227,2.227,0,0,1,1.712.736,3.739,3.739,0,0,1-.007,4.306,2.207,2.207,0,0,1-1.7.751,2.132,2.132,0,0,1-1.66-.744A3.262,3.262,0,0,1,294.953,179.446Zm2.354-1.891a1.023,1.023,0,0,0-.843.434,2.743,2.743,0,0,0-.333,1.592,2.466,2.466,0,0,0,.337,1.48,1.033,1.033,0,0,0,1.683,0,2.723,2.723,0,0,0,.333-1.584,2.483,2.483,0,0,0-.337-1.492A1.03,1.03,0,0,0,297.306,177.555Z" transform="translate(-20.392 -18.096)"/><path class="cls-2" d="M397.256,149.287h-1.349v-8.574a6.984,6.984,0,0,1-1.278.927,9.083,9.083,0,0,1-1.42.7v-1.3a8.178,8.178,0,0,0,1.979-1.286,5.07,5.07,0,0,0,1.2-1.465h0.869v11Z" transform="translate(-20.392 -18.096)"/><path class="cls-2" d="M400.8,139.763V138.47h7.113v1.046a14.987,14.987,0,0,0-2.08,2.96,18.042,18.042,0,0,0-1.593,3.8,14.057,14.057,0,0,0-.517,3.013h-1.387a13.361,13.361,0,0,1,.51-3.125,16.338,16.338,0,0,1,1.4-3.532,15.153,15.153,0,0,1,1.938-2.867H400.8Z" transform="translate(-20.392 -18.096)"/><path class="cls-2" d="M410.006,149.287v-1.533h1.536v1.533h-1.536Z" transform="translate(-20.392 -18.096)"/><path class="cls-2" d="M413.513,146.416l1.417-.12a2.53,2.53,0,0,0,.73,1.551,1.99,1.99,0,0,0,1.383.52,2.158,2.158,0,0,0,1.649-.732,2.76,2.76,0,0,0,.675-1.944,2.493,2.493,0,0,0-.648-1.816,2.264,2.264,0,0,0-1.7-.666,2.358,2.358,0,0,0-1.177.3,2.285,2.285,0,0,0-.824.766l-1.267-.165,1.064-5.629h5.464v1.286H415.9l-0.592,2.945a3.581,3.581,0,0,1,2.076-.687,3.293,3.293,0,0,1,2.428.994,3.468,3.468,0,0,1,.989,2.557,3.982,3.982,0,0,1-.869,2.572,3.486,3.486,0,0,1-2.886,1.331,3.563,3.563,0,0,1-2.447-.837A3.265,3.265,0,0,1,413.513,146.416Z" transform="translate(-20.392 -18.096)"/><path class="cls-2" d="M422.3,140.959a3.32,3.32,0,0,1,.593-2,1.983,1.983,0,0,1,1.716-.822,2.23,2.23,0,0,1,1.713.736,3.736,3.736,0,0,1-.008,4.306,2.2,2.2,0,0,1-1.689.751,2.134,2.134,0,0,1-1.66-.74A3.26,3.26,0,0,1,422.3,140.959Zm2.347-1.892a1.016,1.016,0,0,0-.836.434,2.738,2.738,0,0,0-.334,1.592,2.457,2.457,0,0,0,.338,1.484,1.028,1.028,0,0,0,1.675,0,2.721,2.721,0,0,0,.334-1.585,2.481,2.481,0,0,0-.338-1.491A1.028,1.028,0,0,0,424.651,139.067Zm0.007,10.623,6.012-11.55h1.094l-5.988,11.55h-1.117Zm4.752-2.976a3.316,3.316,0,0,1,.593-2,1.993,1.993,0,0,1,1.724-.818,2.23,2.23,0,0,1,1.713.736,3.74,3.74,0,0,1-.008,4.306,2.207,2.207,0,0,1-1.7.751,2.132,2.132,0,0,1-1.66-.744A3.267,3.267,0,0,1,429.41,146.715Zm2.354-1.891a1.02,1.02,0,0,0-.843.434,2.738,2.738,0,0,0-.334,1.592,2.458,2.458,0,0,0,.338,1.48,1.018,1.018,0,0,0,.831.434,1.03,1.03,0,0,0,.852-0.434,2.727,2.727,0,0,0,.333-1.584,2.483,2.483,0,0,0-.337-1.492A1.029,1.029,0,0,0,431.764,144.824Z" transform="translate(-20.392 -18.096)"/><path class="cls-2" d="M393.736,214.35V213h4.145v1.353h-4.145Z" transform="translate(-20.392 -18.096)"/><path class="cls-2" d="M406.088,216.346v1.293h-7.263a2.375,2.375,0,0,1,.157-0.935,4.919,4.919,0,0,1,.889-1.458,13.815,13.815,0,0,1,1.765-1.66,14.93,14.93,0,0,0,2.421-2.321,2.773,2.773,0,0,0,.63-1.618,1.8,1.8,0,0,0-.573-1.35,2.073,2.073,0,0,0-1.5-.549,2.109,2.109,0,0,0-1.559.583,2.2,2.2,0,0,0-.592,1.615l-1.387-.142a3.4,3.4,0,0,1,1.071-2.358,3.665,3.665,0,0,1,2.5-.811,3.49,3.49,0,0,1,2.5.875,2.869,2.869,0,0,1,.922,2.168,3.287,3.287,0,0,1-.271,1.293,5.018,5.018,0,0,1-.9,1.338,21.7,21.7,0,0,1-2.08,1.929q-1.214,1.017-1.559,1.379a4.365,4.365,0,0,0-.569.729h5.389Z" transform="translate(-20.392 -18.096)"/><path class="cls-2" d="M408.292,217.639v-1.533h1.536v1.533h-1.536Z" transform="translate(-20.392 -18.096)"/><path class="cls-2" d="M411.807,214.746l1.35-.179a2.957,2.957,0,0,0,.79,1.648,1.957,1.957,0,0,0,1.36.5,2.185,2.185,0,0,0,1.608-.658,2.219,2.219,0,0,0,.655-1.63,2.061,2.061,0,0,0-.607-1.529,2.1,2.1,0,0,0-1.544-.6,3.874,3.874,0,0,0-.951.149l0.149-1.181a1.994,1.994,0,0,0,.218.015,2.782,2.782,0,0,0,1.551-.449,1.534,1.534,0,0,0,.69-1.383,1.633,1.633,0,0,0-.5-1.226,1.785,1.785,0,0,0-1.3-.486,1.843,1.843,0,0,0-1.312.493,2.473,2.473,0,0,0-.674,1.48l-1.35-.239a3.46,3.46,0,0,1,1.124-2.1,3.259,3.259,0,0,1,2.182-.744,3.6,3.6,0,0,1,1.656.385,2.792,2.792,0,0,1,1.158,1.05,2.7,2.7,0,0,1,.4,1.413,2.309,2.309,0,0,1-.382,1.293,2.605,2.605,0,0,1-1.132.927,2.548,2.548,0,0,1,1.514.931A2.825,2.825,0,0,1,419,214.4a3.231,3.231,0,0,1-1.049,2.433,3.7,3.7,0,0,1-2.653,1,3.456,3.456,0,0,1-2.4-.86A3.317,3.317,0,0,1,411.807,214.746Z" transform="translate(-20.392 -18.096)"/><path class="cls-2" d="M420.591,209.312a3.32,3.32,0,0,1,.593-2,1.983,1.983,0,0,1,1.716-.822,2.23,2.23,0,0,1,1.713.736,3.736,3.736,0,0,1-.008,4.306,2.2,2.2,0,0,1-1.689.751,2.134,2.134,0,0,1-1.66-.74A3.26,3.26,0,0,1,420.591,209.312Zm2.347-1.892a1.016,1.016,0,0,0-.836.434,2.738,2.738,0,0,0-.334,1.592,2.457,2.457,0,0,0,.338,1.484,1.028,1.028,0,0,0,1.675,0,2.721,2.721,0,0,0,.334-1.585,2.481,2.481,0,0,0-.338-1.491A1.028,1.028,0,0,0,422.938,207.42Zm0.007,10.623,6.012-11.55h1.094l-5.988,11.55h-1.117Zm4.752-2.976a3.316,3.316,0,0,1,.593-2,1.993,1.993,0,0,1,1.724-.818,2.23,2.23,0,0,1,1.713.736,3.74,3.74,0,0,1-.008,4.306,2.207,2.207,0,0,1-1.7.751,2.132,2.132,0,0,1-1.66-.744A3.267,3.267,0,0,1,427.7,215.067Zm2.354-1.891a1.02,1.02,0,0,0-.843.434,2.738,2.738,0,0,0-.334,1.592,2.458,2.458,0,0,0,.338,1.48,1.018,1.018,0,0,0,.831.434,1.03,1.03,0,0,0,.852-0.434,2.727,2.727,0,0,0,.333-1.584,2.483,2.483,0,0,0-.337-1.492A1.029,1.029,0,0,0,430.05,213.176Z" transform="translate(-20.392 -18.096)"/><path class="cls-5" d="M525.17,185.823V184.53h7.113v1.046a14.987,14.987,0,0,0-2.08,2.96,18.042,18.042,0,0,0-1.593,3.8,14.057,14.057,0,0,0-.517,3.013h-1.387a13.361,13.361,0,0,1,.51-3.125,16.338,16.338,0,0,1,1.4-3.532,15.153,15.153,0,0,1,1.938-2.867H525.17Z" transform="translate(-20.392 -18.096)"/><path class="cls-5" d="M534.375,195.347v-1.533h1.536v1.533h-1.536Z" transform="translate(-20.392 -18.096)"/><path class="cls-5" d="M538.085,192.813l1.3-.12a2.249,2.249,0,0,0,.63,1.323,1.732,1.732,0,0,0,1.191.411,2.062,2.062,0,0,0,1.091-.284,2.329,2.329,0,0,0,.769-0.759,4.467,4.467,0,0,0,.5-1.282,6.748,6.748,0,0,0,.2-1.645c0-.06,0-0.149-0.007-0.269a3.1,3.1,0,0,1-1.105,1.043,3.015,3.015,0,0,1-1.519.4,3.074,3.074,0,0,1-2.309-.987,3.608,3.608,0,0,1-.944-2.6,3.691,3.691,0,0,1,.986-2.684,3.3,3.3,0,0,1,2.47-1.017,3.532,3.532,0,0,1,1.96.576,3.6,3.6,0,0,1,1.349,1.641,8.058,8.058,0,0,1,.461,3.084,9.961,9.961,0,0,1-.457,3.345,3.922,3.922,0,0,1-1.36,1.9,3.528,3.528,0,0,1-2.117.65A2.9,2.9,0,0,1,538.085,192.813Zm5.523-4.837a2.631,2.631,0,0,0-.618-1.839,1.942,1.942,0,0,0-1.488-.68,2.057,2.057,0,0,0-1.566.732,2.714,2.714,0,0,0-.667,1.9,2.34,2.34,0,0,0,.634,1.7,2.089,2.089,0,0,0,1.563.654,2,2,0,0,0,1.54-.654A2.571,2.571,0,0,0,543.608,187.976Z" transform="translate(-20.392 -18.096)"/><path class="cls-5" d="M546.674,187.02a3.32,3.32,0,0,1,.593-2,1.983,1.983,0,0,1,1.716-.822,2.23,2.23,0,0,1,1.713.736,3.736,3.736,0,0,1-.008,4.306,2.2,2.2,0,0,1-1.689.751,2.134,2.134,0,0,1-1.66-.74A3.26,3.26,0,0,1,546.674,187.02Zm2.347-1.892a1.016,1.016,0,0,0-.836.434,2.738,2.738,0,0,0-.334,1.592,2.457,2.457,0,0,0,.338,1.484,1.028,1.028,0,0,0,1.675,0,2.721,2.721,0,0,0,.334-1.585,2.481,2.481,0,0,0-.338-1.491A1.028,1.028,0,0,0,549.021,185.128Zm0.007,10.623,6.012-11.55h1.094l-5.988,11.55h-1.117Zm4.752-2.976a3.316,3.316,0,0,1,.593-2,1.993,1.993,0,0,1,1.724-.818,2.23,2.23,0,0,1,1.713.736A3.74,3.74,0,0,1,557.8,195a2.207,2.207,0,0,1-1.7.751,2.132,2.132,0,0,1-1.66-.744A3.267,3.267,0,0,1,553.779,192.775Zm2.354-1.891a1.02,1.02,0,0,0-.843.434,2.738,2.738,0,0,0-.334,1.592,2.458,2.458,0,0,0,.338,1.48,1.018,1.018,0,0,0,.831.434,1.03,1.03,0,0,0,.852-0.434,2.727,2.727,0,0,0,.333-1.584,2.483,2.483,0,0,0-.337-1.492A1.029,1.029,0,0,0,556.133,190.884Z" transform="translate(-20.392 -18.096)"/><path class="cls-2" d="M25.653,71.412l1.417-.12a2.53,2.53,0,0,0,.731,1.551,1.986,1.986,0,0,0,1.383.52,2.157,2.157,0,0,0,1.649-.732,2.758,2.758,0,0,0,.674-1.944,2.491,2.491,0,0,0-.648-1.816,2.262,2.262,0,0,0-1.7-.666,2.357,2.357,0,0,0-1.177.3,2.278,2.278,0,0,0-.825.766L25.893,69.1l1.064-5.629h5.464v1.286H28.037L27.444,67.7a3.582,3.582,0,0,1,2.076-.687,3.3,3.3,0,0,1,2.429.994,3.47,3.47,0,0,1,.989,2.557,3.985,3.985,0,0,1-.87,2.572,3.487,3.487,0,0,1-2.885,1.331,3.56,3.56,0,0,1-2.447-.837A3.263,3.263,0,0,1,25.653,71.412Z" transform="translate(-20.392 -18.096)"/><path class="cls-2" d="M34.19,68.878a10,10,0,0,1,.4-3.128,3.889,3.889,0,0,1,1.192-1.828,3.053,3.053,0,0,1,1.99-.643,3.251,3.251,0,0,1,1.551.355,2.966,2.966,0,0,1,1.1,1.024,5.5,5.5,0,0,1,.682,1.63,10.822,10.822,0,0,1,.247,2.59,10.041,10.041,0,0,1-.4,3.114,3.894,3.894,0,0,1-1.188,1.831,3.052,3.052,0,0,1-2,.647,3.019,3.019,0,0,1-2.5-1.136A7.212,7.212,0,0,1,34.19,68.878Zm1.386,0a6.852,6.852,0,0,0,.634,3.592,1.812,1.812,0,0,0,3.125,0,6.863,6.863,0,0,0,.633-3.588,6.858,6.858,0,0,0-.633-3.6,1.881,1.881,0,0,0-1.578-.89,1.729,1.729,0,0,0-1.484.785A6.932,6.932,0,0,0,35.577,68.878Z" transform="translate(-20.392 -18.096)"/><path class="cls-2" d="M42.982,65.955a3.326,3.326,0,0,1,.592-2,1.984,1.984,0,0,1,1.716-.822A2.229,2.229,0,0,1,47,63.873,3.739,3.739,0,0,1,47,68.179a2.2,2.2,0,0,1-1.69.751,2.136,2.136,0,0,1-1.66-.74A3.26,3.26,0,0,1,42.982,65.955Zm2.346-1.892a1.016,1.016,0,0,0-.835.434,2.739,2.739,0,0,0-.333,1.592,2.465,2.465,0,0,0,.337,1.484,1.028,1.028,0,0,0,1.675,0,2.726,2.726,0,0,0,.333-1.585,2.478,2.478,0,0,0-.337-1.491A1.028,1.028,0,0,0,45.328,64.063Zm0.008,10.623,6.011-11.55h1.094l-5.988,11.55H45.336Zm4.751-2.976a3.323,3.323,0,0,1,.592-2,1.994,1.994,0,0,1,1.724-.818,2.227,2.227,0,0,1,1.712.736,3.739,3.739,0,0,1-.007,4.306,2.207,2.207,0,0,1-1.7.751,2.132,2.132,0,0,1-1.66-.744A3.262,3.262,0,0,1,50.087,71.711Zm2.354-1.891a1.023,1.023,0,0,0-.843.434,2.743,2.743,0,0,0-.333,1.592,2.466,2.466,0,0,0,.337,1.48,1.033,1.033,0,0,0,1.683,0,2.723,2.723,0,0,0,.333-1.584,2.483,2.483,0,0,0-.337-1.492A1.03,1.03,0,0,0,52.441,69.82Z" transform="translate(-20.392 -18.096)"/><path class="cls-2" d="M123.885,301.106v-1.353h4.145v1.353h-4.145Z" transform="translate(-20.392 -18.096)"/><path class="cls-2" d="M129.154,301.5l1.349-.179a2.957,2.957,0,0,0,.791,1.648,1.955,1.955,0,0,0,1.36.5,2.182,2.182,0,0,0,1.607-.658,2.218,2.218,0,0,0,.656-1.63,2.062,2.062,0,0,0-.607-1.529,2.1,2.1,0,0,0-1.544-.6,3.887,3.887,0,0,0-.952.149l0.15-1.181a2.01,2.01,0,0,0,.217.015,2.786,2.786,0,0,0,1.552-.449,1.534,1.534,0,0,0,.689-1.383,1.634,1.634,0,0,0-.5-1.226,1.786,1.786,0,0,0-1.3-.486,1.841,1.841,0,0,0-1.312.493,2.474,2.474,0,0,0-.675,1.48l-1.349-.239a3.458,3.458,0,0,1,1.125-2.1,3.256,3.256,0,0,1,2.181-.744,3.6,3.6,0,0,1,1.656.385,2.792,2.792,0,0,1,1.158,1.05,2.7,2.7,0,0,1,.4,1.413,2.31,2.31,0,0,1-.382,1.293,2.608,2.608,0,0,1-1.132.927,2.55,2.55,0,0,1,1.514.931,2.828,2.828,0,0,1,.54,1.768,3.23,3.23,0,0,1-1.049,2.433,3.7,3.7,0,0,1-2.653,1,3.455,3.455,0,0,1-2.4-.86A3.319,3.319,0,0,1,129.154,301.5Z" transform="translate(-20.392 -18.096)"/><path class="cls-2" d="M139.76,298.453a2.537,2.537,0,0,1-1.244-.875,2.281,2.281,0,0,1-.4-1.36,2.656,2.656,0,0,1,.862-2.011,3.634,3.634,0,0,1,4.609.019,2.7,2.7,0,0,1,.877,2.03,2.232,2.232,0,0,1-.4,1.327,2.531,2.531,0,0,1-1.218.871,2.951,2.951,0,0,1,1.54,1.062,2.911,2.911,0,0,1,.528,1.749,3.146,3.146,0,0,1-1,2.362,4.067,4.067,0,0,1-5.247,0,3.189,3.189,0,0,1-1-2.4,2.891,2.891,0,0,1,.543-1.791A2.72,2.72,0,0,1,139.76,298.453Zm-0.7,2.781a2.426,2.426,0,0,0,.273,1.114,1.928,1.928,0,0,0,.813.833,2.381,2.381,0,0,0,1.162.3,2.18,2.18,0,0,0,1.6-.621,2.12,2.12,0,0,0,.63-1.577,2.157,2.157,0,0,0-.648-1.607,2.226,2.226,0,0,0-1.623-.635A2.143,2.143,0,0,0,139.056,301.233Zm0.435-5.061a1.7,1.7,0,0,0,.5,1.271,1.781,1.781,0,0,0,1.3.493,1.747,1.747,0,0,0,1.278-.49,1.617,1.617,0,0,0,.5-1.2A1.676,1.676,0,0,0,142.56,295a1.75,1.75,0,0,0-1.278-.5,1.77,1.77,0,0,0-1.282.493A1.586,1.586,0,0,0,139.49,296.172Z" transform="translate(-20.392 -18.096)"/><path class="cls-2" d="M146.978,304.4v-1.533h1.537V304.4h-1.537Z" transform="translate(-20.392 -18.096)"/><path class="cls-2" d="M150.486,301.525l1.417-.12a2.53,2.53,0,0,0,.731,1.551,1.986,1.986,0,0,0,1.383.52,2.157,2.157,0,0,0,1.649-.732,2.758,2.758,0,0,0,.674-1.944,2.491,2.491,0,0,0-.648-1.816,2.262,2.262,0,0,0-1.7-.666,2.357,2.357,0,0,0-1.177.3,2.278,2.278,0,0,0-.825.766l-1.267-.165,1.064-5.629h5.464v1.286h-4.385l-0.592,2.945a3.582,3.582,0,0,1,2.076-.687,3.3,3.3,0,0,1,2.429.994,3.47,3.47,0,0,1,.989,2.557,3.985,3.985,0,0,1-.87,2.572,3.487,3.487,0,0,1-2.885,1.331,3.56,3.56,0,0,1-2.447-.837A3.263,3.263,0,0,1,150.486,301.525Z" transform="translate(-20.392 -18.096)"/><path class="cls-2" d="M159.278,296.068a3.326,3.326,0,0,1,.592-2,1.984,1.984,0,0,1,1.716-.822,2.229,2.229,0,0,1,1.713.736,3.739,3.739,0,0,1-.007,4.306,2.2,2.2,0,0,1-1.69.751,2.136,2.136,0,0,1-1.66-.74A3.26,3.26,0,0,1,159.278,296.068Zm2.346-1.892a1.016,1.016,0,0,0-.835.434,2.739,2.739,0,0,0-.333,1.592,2.465,2.465,0,0,0,.337,1.484,1.028,1.028,0,0,0,1.675,0,2.726,2.726,0,0,0,.333-1.585,2.478,2.478,0,0,0-.337-1.491A1.028,1.028,0,0,0,161.624,294.176Zm0.008,10.623,6.011-11.55h1.094l-5.988,11.55h-1.117Zm4.751-2.976a3.323,3.323,0,0,1,.592-2,1.994,1.994,0,0,1,1.724-.818,2.227,2.227,0,0,1,1.712.736,3.739,3.739,0,0,1-.007,4.306,2.207,2.207,0,0,1-1.7.751,2.132,2.132,0,0,1-1.66-.744A3.262,3.262,0,0,1,166.383,301.824Zm2.354-1.891a1.023,1.023,0,0,0-.843.434,2.743,2.743,0,0,0-.333,1.592,2.466,2.466,0,0,0,.337,1.48,1.033,1.033,0,0,0,1.683,0,2.723,2.723,0,0,0,.333-1.584,2.483,2.483,0,0,0-.337-1.492A1.03,1.03,0,0,0,168.736,299.933Z" transform="translate(-20.392 -18.096)"/><line class="cls-6" x1="92.778" y1="161.89" x2="161.869" y2="161.89"/><line class="cls-6" x1="228.173" y1="167.965" x2="297.264" y2="167.965"/><path class="cls-5" d="M403.443,182.3l-1.342.1a2.533,2.533,0,0,0-.51-1.151,1.786,1.786,0,0,0-1.349-.576,1.854,1.854,0,0,0-1.132.359,3.069,3.069,0,0,0-1,1.353,7.042,7.042,0,0,0-.382,2.534,3.117,3.117,0,0,1,1.191-1.1,3.212,3.212,0,0,1,1.477-.359,3.062,3.062,0,0,1,2.3.991,3.546,3.546,0,0,1,.948,2.56,4.208,4.208,0,0,1-.445,1.917,3.247,3.247,0,0,1-1.226,1.357,3.353,3.353,0,0,1-1.769.471,3.459,3.459,0,0,1-2.751-1.237,6.232,6.232,0,0,1-1.064-4.078,7.3,7.3,0,0,1,1.177-4.62,3.386,3.386,0,0,1,2.766-1.256A2.941,2.941,0,0,1,403.443,182.3Zm-5.509,4.725a3.115,3.115,0,0,0,.3,1.331,2.2,2.2,0,0,0,.828.968,2.074,2.074,0,0,0,1.117.333,1.9,1.9,0,0,0,1.469-.688,2.7,2.7,0,0,0,.614-1.869,2.527,2.527,0,0,0-.607-1.791,2,2,0,0,0-1.528-.654,2.083,2.083,0,0,0-1.552.654A2.354,2.354,0,0,0,397.935,187.028Z" transform="translate(-20.392 -18.096)"/><path class="cls-5" d="M405.737,190.579v-1.533h1.536v1.533h-1.536Z" transform="translate(-20.392 -18.096)"/><path class="cls-5" d="M409.244,187.708l1.417-.12a2.53,2.53,0,0,0,.73,1.551,1.99,1.99,0,0,0,1.383.52,2.158,2.158,0,0,0,1.649-.732,2.76,2.76,0,0,0,.675-1.944,2.493,2.493,0,0,0-.648-1.816,2.264,2.264,0,0,0-1.7-.666,2.358,2.358,0,0,0-1.177.3,2.285,2.285,0,0,0-.824.766l-1.267-.165,1.064-5.629h5.464v1.286h-4.385L411.036,184a3.581,3.581,0,0,1,2.076-.687,3.293,3.293,0,0,1,2.428.994,3.468,3.468,0,0,1,.989,2.557,3.982,3.982,0,0,1-.869,2.572,3.486,3.486,0,0,1-2.886,1.331,3.563,3.563,0,0,1-2.447-.837A3.265,3.265,0,0,1,409.244,187.708Z" transform="translate(-20.392 -18.096)"/><path class="cls-5" d="M418.036,182.251a3.32,3.32,0,0,1,.593-2,1.983,1.983,0,0,1,1.716-.822,2.23,2.23,0,0,1,1.713.736,3.736,3.736,0,0,1-.008,4.306,2.2,2.2,0,0,1-1.689.751,2.134,2.134,0,0,1-1.66-.74A3.26,3.26,0,0,1,418.036,182.251Zm2.347-1.892a1.016,1.016,0,0,0-.836.434,2.738,2.738,0,0,0-.334,1.592,2.457,2.457,0,0,0,.338,1.484,1.028,1.028,0,0,0,1.675,0,2.721,2.721,0,0,0,.334-1.585,2.481,2.481,0,0,0-.338-1.491A1.028,1.028,0,0,0,420.383,180.36Zm0.007,10.623,6.012-11.55H427.5l-5.988,11.55H420.39Zm4.752-2.976a3.316,3.316,0,0,1,.593-2,1.993,1.993,0,0,1,1.724-.818,2.23,2.23,0,0,1,1.713.736,3.74,3.74,0,0,1-.008,4.306,2.207,2.207,0,0,1-1.7.751,2.132,2.132,0,0,1-1.66-.744A3.267,3.267,0,0,1,425.142,188.007Zm2.354-1.891a1.02,1.02,0,0,0-.843.434,2.738,2.738,0,0,0-.334,1.592,2.458,2.458,0,0,0,.338,1.48,1.018,1.018,0,0,0,.831.434,1.03,1.03,0,0,0,.852-0.434,2.727,2.727,0,0,0,.333-1.584,2.483,2.483,0,0,0-.337-1.492A1.029,1.029,0,0,0,427.5,186.116Z" transform="translate(-20.392 -18.096)"/><line class="cls-6" x1="358.361" y1="175.872" x2="427.452" y2="175.872"/><rect class="cls-3" x="486.999" y="180.593" width="69.091" height="2.718"/><line class="cls-6" x1="486.999" y1="180.975" x2="556.066" y2="180.975"/><path class="cls-2" d="M525.17,206.84v-1.293h7.113v1.046a14.987,14.987,0,0,0-2.08,2.96,18.042,18.042,0,0,0-1.593,3.8,14.057,14.057,0,0,0-.517,3.013h-1.387a13.361,13.361,0,0,1,.51-3.125,16.338,16.338,0,0,1,1.4-3.532,15.153,15.153,0,0,1,1.938-2.867H525.17Z" transform="translate(-20.392 -18.096)"/><path class="cls-2" d="M534.375,216.364v-1.533h1.536v1.533h-1.536Z" transform="translate(-20.392 -18.096)"/><path class="cls-2" d="M544.973,215.07v1.293H537.71a2.375,2.375,0,0,1,.157-0.935,4.919,4.919,0,0,1,.889-1.458,13.815,13.815,0,0,1,1.765-1.66,14.93,14.93,0,0,0,2.421-2.321,2.773,2.773,0,0,0,.63-1.618,1.8,1.8,0,0,0-.573-1.35,2.073,2.073,0,0,0-1.5-.549,2.109,2.109,0,0,0-1.559.583,2.2,2.2,0,0,0-.592,1.615l-1.387-.142a3.4,3.4,0,0,1,1.071-2.358,3.665,3.665,0,0,1,2.5-.811,3.49,3.49,0,0,1,2.5.875,2.869,2.869,0,0,1,.922,2.168,3.287,3.287,0,0,1-.271,1.293,5.018,5.018,0,0,1-.9,1.338,21.7,21.7,0,0,1-2.08,1.929q-1.214,1.017-1.559,1.379a4.365,4.365,0,0,0-.569.729h5.389Z" transform="translate(-20.392 -18.096)"/><path class="cls-2" d="M546.674,208.036a3.32,3.32,0,0,1,.593-2,1.983,1.983,0,0,1,1.716-.822,2.23,2.23,0,0,1,1.713.736,3.736,3.736,0,0,1-.008,4.306,2.2,2.2,0,0,1-1.689.751,2.134,2.134,0,0,1-1.66-.74A3.26,3.26,0,0,1,546.674,208.036Zm2.347-1.892a1.016,1.016,0,0,0-.836.434,2.738,2.738,0,0,0-.334,1.592,2.457,2.457,0,0,0,.338,1.484,1.028,1.028,0,0,0,1.675,0,2.721,2.721,0,0,0,.334-1.585,2.481,2.481,0,0,0-.338-1.491A1.028,1.028,0,0,0,549.021,206.145Zm0.007,10.623,6.012-11.55h1.094l-5.988,11.55h-1.117Zm4.752-2.976a3.316,3.316,0,0,1,.593-2,1.993,1.993,0,0,1,1.724-.818,2.23,2.23,0,0,1,1.713.736,3.74,3.74,0,0,1-.008,4.306,2.207,2.207,0,0,1-1.7.751,2.132,2.132,0,0,1-1.66-.744A3.267,3.267,0,0,1,553.779,213.792Zm2.354-1.891a1.02,1.02,0,0,0-.843.434,2.738,2.738,0,0,0-.334,1.592,2.458,2.458,0,0,0,.338,1.48,1.018,1.018,0,0,0,.831.434,1.03,1.03,0,0,0,.852-0.434,2.727,2.727,0,0,0,.333-1.584,2.483,2.483,0,0,0-.337-1.492A1.029,1.029,0,0,0,556.133,211.9Z" transform="translate(-20.392 -18.096)"/><path class="cls-2" d="M527.132,170.6a2.544,2.544,0,0,1-1.244-.875,2.284,2.284,0,0,1-.4-1.36,2.658,2.658,0,0,1,.861-2.011,3.636,3.636,0,0,1,4.61.019,2.7,2.7,0,0,1,.877,2.03,2.229,2.229,0,0,1-.4,1.327,2.533,2.533,0,0,1-1.218.871,2.951,2.951,0,0,1,1.54,1.062,2.907,2.907,0,0,1,.528,1.749,3.142,3.142,0,0,1-1,2.362,4.067,4.067,0,0,1-5.246,0,3.189,3.189,0,0,1-1-2.4,2.89,2.89,0,0,1,.543-1.791A2.723,2.723,0,0,1,527.132,170.6Zm-0.7,2.781a2.426,2.426,0,0,0,.273,1.114,1.926,1.926,0,0,0,.813.833,2.382,2.382,0,0,0,1.161.3,2.181,2.181,0,0,0,1.6-.621,2.12,2.12,0,0,0,.63-1.577,2.158,2.158,0,0,0-.648-1.607,2.228,2.228,0,0,0-1.623-.635A2.143,2.143,0,0,0,526.428,173.383Zm0.435-5.061a1.7,1.7,0,0,0,.5,1.271,1.783,1.783,0,0,0,1.3.493,1.745,1.745,0,0,0,1.277-.49,1.614,1.614,0,0,0,.5-1.2,1.679,1.679,0,0,0-.514-1.245,1.891,1.891,0,0,0-2.56-.011A1.586,1.586,0,0,0,526.862,168.322Z" transform="translate(-20.392 -18.096)"/><path class="cls-2" d="M534.351,176.545v-1.533h1.536v1.533h-1.536Z" transform="translate(-20.392 -18.096)"/><path class="cls-2" d="M538.061,174.011l1.3-.12a2.249,2.249,0,0,0,.63,1.323,1.732,1.732,0,0,0,1.191.411,2.062,2.062,0,0,0,1.091-.284,2.329,2.329,0,0,0,.769-0.759,4.467,4.467,0,0,0,.5-1.282,6.748,6.748,0,0,0,.2-1.645c0-.06,0-0.149-0.007-0.269a3.1,3.1,0,0,1-1.105,1.043,3.015,3.015,0,0,1-1.519.4,3.074,3.074,0,0,1-2.309-.987,3.608,3.608,0,0,1-.944-2.6,3.691,3.691,0,0,1,.986-2.684,3.3,3.3,0,0,1,2.47-1.017,3.532,3.532,0,0,1,1.96.576,3.6,3.6,0,0,1,1.349,1.641,8.058,8.058,0,0,1,.461,3.084,9.961,9.961,0,0,1-.457,3.345,3.922,3.922,0,0,1-1.36,1.9,3.528,3.528,0,0,1-2.117.65A2.9,2.9,0,0,1,538.061,174.011Zm5.523-4.837a2.631,2.631,0,0,0-.618-1.839,1.942,1.942,0,0,0-1.488-.68,2.057,2.057,0,0,0-1.566.732,2.714,2.714,0,0,0-.667,1.9,2.34,2.34,0,0,0,.634,1.7,2.089,2.089,0,0,0,1.563.654,2,2,0,0,0,1.54-.654A2.571,2.571,0,0,0,543.584,169.174Z" transform="translate(-20.392 -18.096)"/><path class="cls-2" d="M546.649,168.217a3.32,3.32,0,0,1,.593-2,1.983,1.983,0,0,1,1.716-.822,2.23,2.23,0,0,1,1.713.736,3.736,3.736,0,0,1-.008,4.306,2.2,2.2,0,0,1-1.689.751,2.134,2.134,0,0,1-1.66-.74A3.26,3.26,0,0,1,546.649,168.217ZM549,166.326a1.016,1.016,0,0,0-.836.434,2.738,2.738,0,0,0-.334,1.592,2.457,2.457,0,0,0,.338,1.484,1.028,1.028,0,0,0,1.675,0,2.721,2.721,0,0,0,.334-1.585,2.481,2.481,0,0,0-.338-1.491A1.028,1.028,0,0,0,549,166.326ZM549,176.949l6.012-11.55h1.094l-5.988,11.55H549Zm4.752-2.976a3.316,3.316,0,0,1,.593-2,1.993,1.993,0,0,1,1.724-.818,2.23,2.23,0,0,1,1.713.736,3.74,3.74,0,0,1-.008,4.306,2.207,2.207,0,0,1-1.7.751,2.132,2.132,0,0,1-1.66-.744A3.267,3.267,0,0,1,553.755,173.973Zm2.354-1.891a1.02,1.02,0,0,0-.843.434,2.738,2.738,0,0,0-.334,1.592,2.458,2.458,0,0,0,.338,1.48,1.018,1.018,0,0,0,.831.434,1.03,1.03,0,0,0,.852-0.434,2.727,2.727,0,0,0,.333-1.584,2.483,2.483,0,0,0-.337-1.492A1.029,1.029,0,0,0,556.108,172.082Z" transform="translate(-20.392 -18.096)"/><path class="cls-2" d="M263.548,232.277v-1.353h4.145v1.353h-4.145Z" transform="translate(-20.392 -18.096)"/><path class="cls-2" d="M273.135,235.566v-2.624h-4.767v-1.233l5.014-7.1h1.1v7.1h1.484v1.233h-1.484v2.624h-1.349Zm0-3.857v-4.941l-3.44,4.941h3.44Z" transform="translate(-20.392 -18.096)"/><path class="cls-2" d="M278.1,235.566v-1.533h1.537v1.533H278.1Z" transform="translate(-20.392 -18.096)"/><path class="cls-2" d="M286.693,235.566h-1.349v-8.574a6.979,6.979,0,0,1-1.278.927,9.044,9.044,0,0,1-1.42.7v-1.3a8.15,8.15,0,0,0,1.979-1.286,5.054,5.054,0,0,0,1.2-1.465h0.87v11Z" transform="translate(-20.392 -18.096)"/><path class="cls-2" d="M290.4,227.239a3.326,3.326,0,0,1,.592-2,1.984,1.984,0,0,1,1.716-.822,2.229,2.229,0,0,1,1.713.736,3.739,3.739,0,0,1-.007,4.306,2.2,2.2,0,0,1-1.69.751,2.136,2.136,0,0,1-1.66-.74A3.26,3.26,0,0,1,290.4,227.239Zm2.346-1.892a1.016,1.016,0,0,0-.835.434,2.739,2.739,0,0,0-.333,1.592,2.465,2.465,0,0,0,.337,1.484,1.028,1.028,0,0,0,1.675,0,2.726,2.726,0,0,0,.333-1.585,2.478,2.478,0,0,0-.337-1.491A1.028,1.028,0,0,0,292.75,225.347Zm0.008,10.623,6.011-11.55h1.094l-5.988,11.55h-1.117Zm4.751-2.976a3.323,3.323,0,0,1,.592-2,1.994,1.994,0,0,1,1.724-.818,2.227,2.227,0,0,1,1.712.736,3.739,3.739,0,0,1-.007,4.306,2.207,2.207,0,0,1-1.7.751,2.132,2.132,0,0,1-1.66-.744A3.262,3.262,0,0,1,297.509,232.995Zm2.354-1.891a1.023,1.023,0,0,0-.843.434,2.743,2.743,0,0,0-.333,1.592,2.466,2.466,0,0,0,.337,1.48,1.033,1.033,0,0,0,1.683,0,2.723,2.723,0,0,0,.333-1.584,2.483,2.483,0,0,0-.337-1.492A1.03,1.03,0,0,0,299.862,231.1Z" transform="translate(-20.392 -18.096)"/></svg>