<svg id="Layer_1" data-name="Layer 1" xmlns="http://www.w3.org/2000/svg" viewBox="0 0 453.19 225.91"><defs><style>.cls-1{fill:#28538c;}.cls-2{font-size:12px;}.cls-2,.cls-4,.cls-5,.cls-8{fill:#fff;}.cls-2,.cls-8,.cls-9{font-family:Arial;}.cls-2,.cls-8{font-weight:700;}.cls-3{fill:#1a3b64;}.cls-4{stroke:#fff;stroke-width:4px;}.cls-4,.cls-6,.cls-7{stroke-miterlimit:10;}.cls-6,.cls-7{fill:#6c89a8;stroke:#4e6d89;}.cls-6{stroke-width:30px;}.cls-7{stroke-width:16px;}.cls-8,.cls-9{font-size:14px;}.cls-9{fill:#231f20;}.cls-10{white-space:pre;}</style></defs><title>Impact_Time_Outcome_Risk</title><rect class="cls-1" x="8.3" y="20.68" width="94.03" height="205.23"/><text class="cls-2" transform="translate(11.71 41.09)">25<tspan x="13.35" y="0"> </tspan><tspan x="16.46" y="0">YEARS OLD</tspan><tspan x="0" y="64.8">45</tspan><tspan x="13.35" y="64.8"> </tspan><tspan x="16.46" y="64.8">YEARS OLD</tspan><tspan x="0" y="129.6">65</tspan><tspan x="13.35" y="129.6"> </tspan><tspan x="16.46" y="129.6">YEARS OLD</tspan><tspan x="18.21" y="160.8">$695,039</tspan></text><rect class="cls-3" x="351.59" y="20.68" width="94.03" height="205.23"/><text class="cls-2" transform="translate(355 41.09)">25<tspan x="13.35" y="0"> </tspan><tspan x="16.46" y="0">YEARS OLD</tspan><tspan x="0" y="64.8">45</tspan><tspan x="13.35" y="64.8"> </tspan><tspan x="16.46" y="64.8">YEARS OLD</tspan><tspan x="0" y="129.6">65</tspan><tspan x="13.35" y="129.6"> </tspan><tspan x="16.46" y="129.6">YEARS OLD</tspan><tspan x="21.55" y="160.8">$72,052</tspan></text><line class="cls-4" x1="55.13" y1="48.21" x2="55.13" y2="81.44"/><polygon class="cls-5" points="62.38 81.44 55.13 94 47.88 81.44 62.38 81.44"/><line class="cls-4" x1="54.77" y1="113.11" x2="54.77" y2="146.34"/><polygon class="cls-5" points="62.02 146.34 54.77 158.9 47.51 146.34 62.02 146.34"/><line class="cls-4" x1="398.6" y1="48.36" x2="398.6" y2="81.6"/><polygon class="cls-5" points="405.86 81.59 398.6 94.16 391.35 81.59 405.86 81.59"/><line class="cls-4" x1="398.6" y1="113.27" x2="398.6" y2="146.5"/><polygon class="cls-5" points="405.86 146.5 398.6 159.06 391.35 146.5 405.86 146.5"/><line class="cls-6" x1="193.02" y1="172.27" x2="141.66" y2="172.27"/><polygon class="cls-7" points="141.66 183.48 122.24 172.27 141.66 161.06 141.66 183.48"/><line class="cls-6" x1="192.02" y1="172.27" x2="312.39" y2="172.27"/><polygon class="cls-7" points="312.39 161.06 331.8 172.27 312.39 183.48 312.39 161.06"/><text class="cls-8" transform="translate(128.64 177.02)">The Only Difference was <tspan x="166.5" y="0">T</tspan><tspan x="174.79" y="0">ime</tspan></text><text class="cls-9" transform="translate(21.84 12.01)">Scenario<tspan class="cls-10" x="55.25" y="0"> A</tspan></text><text class="cls-9" transform="translate(364.36 12.01)">Scenario B</text></svg>