<svg id="Layer_1" data-name="Layer 1" xmlns="http://www.w3.org/2000/svg" viewBox="0 0 603.41 377.21"><defs><style>.cls-1{fill:#e2d8a8;}.cls-2,.cls-7,.cls-8{font-size:15.59px;font-family:Source Sans Pro;}.cls-2,.cls-7{fill:#231f20;}.cls-3,.cls-7,.cls-8{font-weight:700;}.cls-4{letter-spacing:-1px;}.cls-5{fill:#b2b3b3;}.cls-6{fill:#ed1e24;}.cls-8{fill:#fff;}.cls-9{fill:none;stroke:#f1f2f2;stroke-miterlimit:10;}</style></defs><title>Impact_Time_Market_Risk</title><rect class="cls-1" x="61.22" y="47.88" width="542.18" height="264.29"/><text class="cls-2" transform="translate(21.52 12.94)"><tspan class="cls-3">R<tspan x="9.43" y="0">an</tspan><tspan x="26.57" y="0">g</tspan><tspan x="34.62" y="0">e </tspan><tspan x="45.81" y="0">o</tspan><tspan x="54.39" y="0">f </tspan><tspan x="62.82" y="0">S</tspan><tspan x="71.06" y="0">t</tspan><tspan x="76.75" y="0">ock </tspan><tspan x="104.35" y="0">Re</tspan><tspan x="121.67" y="0">turns </tspan><tspan x="161.65" y="0">f</tspan><tspan x="166.81" y="0">or </tspan><tspan x="184.79" y="0">V</tspan><tspan x="192.92" y="0">arious </tspan><tspan x="239.18" y="0">P</tspan><tspan x="248.15" y="0">eriods</tspan></tspan><tspan x="0" y="18.71">1991-2015</tspan></text><text class="cls-2" transform="translate(19.13 84.22)">40%</text><text class="cls-2" transform="translate(26.88 188.09)">0%</text><text class="cls-2" transform="translate(121.34 331.41)">1<tspan class="cls-4" x="7.75" y="0">-</tspan><tspan x="11.57" y="0">Y</tspan><tspan x="18.35" y="0">e</tspan><tspan x="25.87" y="0">ar</tspan><tspan x="-4.97" y="18.71">P</tspan><tspan x="3.49" y="18.71">eriods</tspan></text><text class="cls-2" transform="translate(258.88 331.41)">5<tspan class="cls-4" x="7.75" y="0">-</tspan><tspan x="11.57" y="0">Y</tspan><tspan x="18.35" y="0">e</tspan><tspan x="25.87" y="0">ar</tspan><tspan x="-4.97" y="18.71">P</tspan><tspan x="3.49" y="18.71">eriods</tspan></text><text class="cls-2" transform="translate(387.26 331.41)">10<tspan class="cls-4" x="15.5" y="0">-</tspan><tspan x="19.32" y="0">Y</tspan><tspan x="26.1" y="0">e</tspan><tspan x="33.62" y="0">ar</tspan><tspan x="-1.09" y="18.71">P</tspan><tspan x="7.36" y="18.71">eriods</tspan></text><text class="cls-2" transform="translate(517.93 331.41)">20<tspan class="cls-4" x="15.5" y="0">-</tspan><tspan x="19.32" y="0">Y</tspan><tspan x="26.1" y="0">e</tspan><tspan x="33.62" y="0">ar</tspan><tspan x="-1.09" y="18.71">P</tspan><tspan x="7.36" y="18.71">eriods</tspan></text><rect class="cls-5" x="105.82" y="166.71" width="70.19" height="110.7"/><rect class="cls-5" x="243.36" y="172.9" width="70.19" height="34.04"/><rect class="cls-5" x="375.61" y="180.65" width="70.19" height="8.88"/><rect class="cls-6" x="506.28" y="166.78" width="70.19" height="18.98"/><text class="cls-2" transform="translate(19.13 135.67)">20%</text><text class="cls-2" transform="translate(19.13 162.19)">10%</text><text class="cls-2" transform="translate(14.28 214.82)">-10%</text><text class="cls-2" transform="translate(14.28 241.62)">-20%</text><text class="cls-2" transform="translate(14.28 270.19)">-30%</text><text class="cls-2" transform="translate(19.13 109.11)">30%</text><rect class="cls-6" x="375.61" y="140.69" width="70.19" height="39.96"/><rect class="cls-6" x="243.36" y="107.17" width="70.19" height="65.73"/><rect class="cls-6" x="105.82" y="87.79" width="70.19" height="78.92"/><text class="cls-7" transform="translate(119.54 82.89)">37.5%</text><text class="cls-8" transform="translate(123.66 163.23)">9.7%</text><text class="cls-7" transform="translate(257.08 102.86)">28.6%</text><text class="cls-8" transform="translate(261.2 168.54)">8.6%</text><text class="cls-7" transform="translate(389.33 135.21)">17.5%</text><text class="cls-7" transform="translate(390.86 204.82)">-2.3%</text><text class="cls-8" transform="translate(524.12 182.12)">7.9%</text><text class="cls-2" transform="translate(19.13 58.99)">50%</text><text class="cls-7" transform="translate(116.95 293.19)">-38.5%</text><line class="cls-9" x1="105.82" y1="166.71" x2="176.01" y2="166.71"/><line class="cls-9" x1="243.36" y1="172.9" x2="313.54" y2="172.9"/><text class="cls-8" transform="translate(393.45 177.26)">6.5%</text><line class="cls-9" x1="375.61" y1="180.95" x2="445.79" y2="180.95"/><rect class="cls-5" x="506.28" y="185.76" width="70.19" height="2.77"/><line class="cls-9" x1="506.28" y1="186.15" x2="576.44" y2="186.15"/><text class="cls-7" transform="translate(524.12 203.52)">7.2%</text><text class="cls-7" transform="translate(524.1 162.97)">8.9%</text><text class="cls-7" transform="translate(258.61 223.08)">-4.1%</text></svg>