<svg id="Layer_1" data-name="Layer 1" xmlns="http://www.w3.org/2000/svg" viewBox="0 0 386.1 277.86"><defs><style>.cls-1,.cls-3{fill:#fff;}.cls-1{stroke:#28538c;stroke-miterlimit:10;}.cls-2{fill:#28538c;}.cls-3,.cls-4,.cls-6{font-size:18px;font-family:Arial;}.cls-4,.cls-6{fill:#231f20;}.cls-5,.cls-6{white-space:pre;}.cls-7{fill:#28548c;}</style></defs><title>Importance_Asset_Allocation</title><rect class="cls-1" x="0.67" y="0.5" width="152.55" height="127.61"/><rect class="cls-2" x="0.67" y="0.5" width="152.55" height="45.9"/><text class="cls-3" transform="translate(9.25 28.97)">Client Goals</text><text class="cls-4" transform="translate(27.08 68.37)"><tspan class="cls-5">•  Return</tspan><tspan x="0" y="21.6">• </tspan><tspan x="11.3" y="21.6"> </tspan><tspan x="15.98" y="21.6">T</tspan><tspan x="26.31" y="21.6">ime</tspan></text><rect class="cls-1" x="0.5" y="149.75" width="152.55" height="127.61"/><rect class="cls-2" x="0.5" y="149.75" width="152.55" height="45.9"/><text class="cls-3" transform="translate(9.08 167.22)">History of<tspan x="0" y="21.6">Asset Classes</tspan></text><text class="cls-6" transform="translate(26.92 221.07)">•  Stocks<tspan x="0" y="21.6">•  Bonds</tspan><tspan x="0" y="43.2">•  Cash</tspan></text><rect class="cls-1" x="233.04" y="74.31" width="152.55" height="127.61"/><rect class="cls-2" x="233.04" y="74.31" width="152.55" height="45.9"/><text class="cls-3" transform="translate(241.63 102.78)">Portfolio<tspan x="66.03" y="0"> </tspan><tspan x="70.04" y="0">Asset </tspan></text><text class="cls-6" transform="translate(259.46 145.63)">•  Stocks<tspan x="0" y="21.6">•  Bonds</tspan><tspan x="0" y="43.2">•  Cash</tspan></text><polygon class="cls-7" points="153.55 4.86 228.55 138.44 153.55 272.03 153.55 4.86"/><text class="cls-3" transform="translate(173.27 144.63)">Risk</text></svg>