<svg id="Layer_1" data-name="Layer 1" xmlns="http://www.w3.org/2000/svg" viewBox="0 0 476.28 347.94"><defs><style>.cls-1{fill:#e2d8a8;}.cls-2,.cls-7{fill:none;stroke-miterlimit:10;}.cls-2{stroke:#808285;}.cls-3,.cls-5,.cls-6{font-size:16.69px;}.cls-3,.cls-5{fill:#231f20;}.cls-3,.cls-6{font-family:Arial;}.cls-4{letter-spacing:-0.96px;}.cls-5{font-family:Source Sans Pro;}.cls-6{fill:#d52027;}.cls-7{stroke:#21409a;}</style></defs><title>Inflation_Risk</title><rect class="cls-1" x="56.87" y="63.82" width="411.95" height="255.81"/><line class="cls-2" x1="56.87" y1="191.72" x2="468.83" y2="191.72"/><line class="cls-2" x1="3.26" y1="342.45" x2="3.26" y2="0.5"/><line class="cls-2" x1="468.83" y1="0.5" x2="3.26" y2="0.5"/><text class="cls-3" transform="translate(12.45 21.93) scale(1.05 1)">Inflation Risk<tspan x="0" y="20.02">25</tspan><tspan x="18.56" y="20.02"> </tspan><tspan class="cls-4" x="22.89" y="20.02">Y</tspan><tspan x="32.49" y="20.02">ears Ending 12/31/15</tspan></text><text class="cls-3" transform="translate(12.73 75.77) scale(1.05 1)">$1.00</text><text class="cls-5" transform="translate(14.1 195.19) scale(1.05 1)">$0.50</text><text class="cls-3" transform="translate(37.61 306.58) scale(1.05 1)">$-</text><text class="cls-3" transform="translate(74.78 340.27) scale(1.05 1)">1991</text><text class="cls-3" transform="translate(241.99 340.27) scale(1.05 1)">2003</text><text class="cls-3" transform="translate(415.7 340.27) scale(1.05 1)">2015</text><text class="cls-6" transform="translate(423.16 167.36) scale(1.05 1)">$0.57</text><polyline class="cls-7" points="64.57 78.22 92.39 89.74 104.83 92.93 124.36 101.81 150.42 110.05 155.15 114.75 164.62 117.42 208.43 125.93 225 131.79 241.34 133.91 268.22 138.22 301.37 153.61 314.39 156.27 330.97 162.65 345.18 162.65 371.82 167.98 405.56 174.36 423.32 178.62 442.26 171.12"/></svg>