<svg id="Layer_1" data-name="Layer 1" xmlns="http://www.w3.org/2000/svg" viewBox="0 0 464.37 281.6"><defs><style>.cls-1{fill:#e2d8a8;}.cls-2,.cls-6{font-size:12px;fill:#231f20;font-family:Arial;}.cls-3{white-space:pre;}.cls-4{fill:#b2b3b3;}.cls-5{fill:#ed1e24;}.cls-6{font-weight:700;}</style></defs><title>Inflation_Rick_Real_Rates_Return</title><rect class="cls-1" x="47.12" y="40.42" width="417.25" height="183.97"/><text class="cls-2" transform="translate(16.56 10.3)">Real Rate of Return<tspan x="0" y="14.4">1991-2015</tspan></text><text class="cls-2" transform="translate(12.52 49.02)">15%</text><text class="cls-2" transform="translate(19.19 128.95)">7%</text><text class="cls-2" transform="translate(19.19 215.02)">0%</text><text class="cls-2" transform="translate(89.32 239.25)">Stocks<tspan x="-9.57" y="14.4">(S&amp;</tspan><tspan x="10.44" y="14.4">P</tspan><tspan class="cls-3" x="18.23" y="14.4"> 500)</tspan></text><text class="cls-2" transform="translate(196.51 239.25)">Bonds<tspan x="-37.34" y="14.4">(LB/Bar Gov’t/Credt)</tspan></text><text class="cls-2" transform="translate(278.05 239.25)">Money Markets<tspan x="0.11" y="14.4">(91 Day</tspan><tspan x="42.13" y="14.4"> </tspan><tspan x="45.25" y="14.4">T</tspan><tspan x="51.92" y="14.4">-Bills)</tspan></text><text class="cls-2" transform="translate(395.61 239.25)">Inflation<tspan x="7.02" y="14.4">(CPI)</tspan></text><rect class="cls-4" x="81.44" y="124.57" width="54.01" height="99.83"/><rect class="cls-4" x="187.28" y="144.21" width="54.01" height="80.18"/><rect class="cls-4" x="289.06" y="200.11" width="54.01" height="24.29"/><rect class="cls-5" x="389.62" y="179.16" width="54.01" height="45.24"/><text class="cls-2" transform="translate(13.41 88.61)">1<tspan x="5.78" y="0">1%</tspan></text><text class="cls-2" transform="translate(19.19 109.02)">9%</text><text class="cls-2" transform="translate(19.19 149.53)">5%</text><text class="cls-2" transform="translate(19.19 170.15)">3%</text><text class="cls-2" transform="translate(19.19 192.14)">1%</text><text class="cls-2" transform="translate(12.52 68.17)">13%</text><rect class="cls-5" x="289.06" y="165.9" width="54.01" height="34.38"/><rect class="cls-5" x="187.28" y="120.36" width="54.01" height="23.62"/><rect class="cls-5" x="81.44" y="102.64" width="54.01" height="22.62"/><text class="cls-6" transform="translate(94.77 99.13)">8.9%</text><text class="cls-6" transform="translate(94.77 136.95)">6.7%</text><text class="cls-6" transform="translate(200.61 116.49)">7.3%</text><text class="cls-6" transform="translate(200.61 156.04)">5.0%</text><text class="cls-6" transform="translate(302.39 161.39)">3.0%</text><text class="cls-6" transform="translate(302.39 211.96)">0.5%</text><text class="cls-6" transform="translate(401.93 175.49)">2.2%</text><text y="-5.9"/></svg>