<svg id="Layer_1" data-name="Layer 1" xmlns="http://www.w3.org/2000/svg" viewBox="0 0 435.33 141.21"><defs><style>.cls-1{fill:#37a048;}.cls-2{fill:#dda027;}.cls-3,.cls-7,.cls-8{fill:none;stroke:#939393;stroke-miterlimit:10;stroke-width:2px;}.cls-4,.cls-5,.cls-6{font-size:12px;font-family:Arial;font-weight:700;}.cls-4{fill:#fff;}.cls-5{fill:#231f20;}.cls-6{fill:#939393;white-space:pre;}.cls-7{stroke-dasharray:11.05 11.05;}.cls-8{stroke-dasharray:11.25 11.25;}</style></defs><title>Issue_5</title><polygon class="cls-1" points="15 60.91 420.33 60.91 434.33 48.3 421.03 37.1 15 37.1 1 49 15 60.91"/><polygon class="cls-2" points="115.01 119.01 320.32 119.01 327.41 106.41 320.67 95.21 115.01 95.21 107.92 107.11 115.01 119.01"/><line class="cls-3" x1="217.67" y1="24.5" x2="217.67" y2="77.71"/><text class="cls-4" transform="translate(85.56 53.22)">- 60 Days</text><text class="cls-4" transform="translate(295.57 53.22)">+ 60 Days</text><text class="cls-4" transform="translate(164.65 111.32)">More than 60 Days</text><text class="cls-5" transform="translate(149.67 134.4)">Holding Period of Stock</text><text class="cls-6" transform="translate(215.46 78.6)"> Ex-Dividend Date</text><text class="cls-5" transform="translate(179.16 17.99)">T<tspan x="7.11" y="0">ime </tspan><tspan x="31.13" y="0">W</tspan><tspan x="42.35" y="0">indow</tspan></text><line class="cls-3" x1="1" x2="1" y2="6"/><line class="cls-7" x1="1" y1="17.05" x2="1" y2="121.99"/><line class="cls-3" x1="1" y1="127.51" x2="1" y2="133.51"/><line class="cls-3" x1="434.33" x2="434.33" y2="6"/><line class="cls-8" x1="434.33" y1="17.25" x2="434.33" y2="124.09"/><line class="cls-3" x1="434.33" y1="129.71" x2="434.33" y2="135.71"/></svg>