<svg id="Layer_1" data-name="Layer 1" xmlns="http://www.w3.org/2000/svg" viewBox="0 0 679.87 413.98"><defs><style>.cls-1{fill:#e2d8a8;}.cls-2,.cls-6,.cls-7,.cls-8{font-size:17.57px;font-family:Arial;}.cls-2,.cls-6{fill:#231f20;}.cls-3{white-space:pre;}.cls-4{fill:#b2b3b3;}.cls-5{fill:#ed1e24;}.cls-6,.cls-7{font-weight:700;}.cls-7,.cls-8{fill:#fff;}.cls-9{fill:none;stroke:#f1f2f2;stroke-miterlimit:10;}</style></defs><title>Market_Risk</title><rect class="cls-1" x="68.98" y="54.18" width="610.89" height="297.78"/><text class="cls-2" transform="translate(24.25 15.08)">Range of<tspan x="71.31" y="0"> </tspan><tspan x="75.22" y="0">Annual Returns</tspan><tspan x="0" y="21.08">1991-2015</tspan></text><text class="cls-2" transform="translate(18.33 95.19)">40%</text><text class="cls-2" transform="translate(28.1 212.22)">0%</text><text class="cls-2" transform="translate(12.48 338.23)">-40%</text><text class="cls-2" transform="translate(129.61 373.7)">Stocks<tspan x="-14" y="21.08">(S&amp;</tspan><tspan x="15.28" y="21.08">P</tspan><tspan class="cls-3" x="26.68" y="21.08"> 500)</tspan></text><text class="cls-2" transform="translate(283.39 373.7)">Bonds<tspan x="-54.66" y="21.08">(LB/Bar Gov’t/Credt)</tspan></text><text class="cls-2" transform="translate(411.24 373.7)">Money Markets<tspan x="0.17" y="21.08">(91 Day</tspan><tspan x="61.69" y="21.08"> </tspan><tspan x="66.25" y="21.08">T</tspan><tspan x="76.01" y="21.08">-Bills)</tspan></text><text class="cls-2" transform="translate(579.21 373.7)">Inflation<tspan x="10.27" y="21.08">(CPI)</tspan></text><rect class="cls-4" x="119.23" y="188.06" width="79.08" height="124.73"/><rect class="cls-4" x="274.2" y="195.04" width="79.08" height="38.35"/><rect class="cls-4" x="423.2" y="209.53" width="79.08" height="6.24"/><rect class="cls-5" x="570.44" y="203.73" width="79.08" height="6.23"/><text class="cls-2" transform="translate(18.33 153.16)">20%</text><text class="cls-2" transform="translate(18.33 183.04)">10%</text><text class="cls-2" transform="translate(12.48 242.35)">-10%</text><text class="cls-2" transform="translate(12.48 272.53)">-20%</text><text class="cls-2" transform="translate(12.48 304.73)">-30%</text><text class="cls-2" transform="translate(18.33 123.24)">30%</text><rect class="cls-5" x="423.2" y="200.43" width="79.08" height="9.53"/><rect class="cls-5" x="274.2" y="120.98" width="79.08" height="74.05"/><rect class="cls-5" x="119.23" y="99.15" width="79.08" height="88.92"/><text class="cls-6" transform="translate(133.86 93.89)">37.5%</text><text class="cls-7" transform="translate(138.75 182.94)">8.9%</text><text class="cls-6" transform="translate(288.83 116.38)">30.9%</text><text class="cls-8" transform="translate(293.71 190.4)">7.3%</text><text class="cls-6" transform="translate(442.72 193.83)">5.4%</text><text class="cls-6" transform="translate(442.72 234.2)">0.1%</text><text class="cls-6" transform="translate(529.9 206.62)">2.2%</text><text class="cls-2" transform="translate(18.33 66.76)">60%</text><text class="cls-6" transform="translate(130.94 330.83)">-38.5%</text><line class="cls-9" x1="119.23" y1="188.06" x2="198.31" y2="188.06"/><line class="cls-9" x1="274.2" y1="195.04" x2="353.28" y2="195.04"/><text class="cls-6" transform="translate(382.58 206.58)">3.0%</text><line class="cls-9" x1="383.32" y1="209.97" x2="502.28" y2="209.97"/><rect class="cls-4" x="570.44" y="209.53" width="79.08" height="6.24"/><line class="cls-9" x1="529.57" y1="209.97" x2="649.49" y2="209.97"/><text class="cls-6" transform="translate(589.96 234.2)">0.1%</text><text class="cls-6" transform="translate(589.93 197.29)">3.3%</text><text class="cls-6" transform="translate(290.79 251.85)">-8.7%</text></svg>