<svg id="Layer_1" data-name="Layer 1" xmlns="http://www.w3.org/2000/svg" viewBox="0 0 570.52 560.39"><defs><style>.cls-1,.cls-2,.cls-3,.cls-4,.cls-5{fill:none;stroke-miterlimit:10;}.cls-1,.cls-3,.cls-4{stroke:#231f20;}.cls-2{stroke:#ed1c24;}.cls-3{stroke-dasharray:10.69 10.69;}.cls-4{stroke-dasharray:14.47 14.47;}.cls-5{stroke:#127d3e;}.cls-6{fill:#3a53a4;}.cls-10,.cls-7,.cls-8,.cls-9{font-size:11.38px;}.cls-7{fill:#127d3e;}.cls-7,.cls-8,.cls-9{font-family:Arial;}.cls-8,.cls-9{fill:#231f20;}.cls-8{font-weight:700;}.cls-10{fill:#3b56a6;font-family:Myriad Pro;}</style></defs><title>Performance_Analytics_Relative_Returns_Analysis_EX02</title><line class="cls-1" x1="73.81" y1="55.43" x2="73.81" y2="506.21"/><line class="cls-1" x1="73.81" y1="420.68" x2="464.29" y2="420.68"/><line class="cls-2" x1="73.81" y1="420.68" x2="387.43" y2="261.04"/><line class="cls-1" x1="73.81" y1="365.27" x2="79.81" y2="365.27"/><line class="cls-3" x1="90.5" y1="365.27" x2="170.71" y2="365.27"/><line class="cls-1" x1="176.06" y1="365.27" x2="182.06" y2="365.27"/><line class="cls-1" x1="182.06" y1="365.27" x2="182.06" y2="371.27"/><line class="cls-4" x1="182.06" y1="385.74" x2="182.06" y2="407.44"/><line class="cls-1" x1="182.06" y1="414.68" x2="182.06" y2="420.68"/><line class="cls-5" x1="380.63" y1="269.14" x2="380.63" y2="305.23"/><line class="cls-5" x1="378.73" y1="310.98" x2="318.87" y2="310.98"/><circle class="cls-6" cx="182.06" cy="365.27" r="2.32"/><text class="cls-7" transform="translate(341.64 323.91)">1.0</text><text class="cls-7" transform="translate(384.28 291.52)">0.5</text><text class="cls-8" transform="translate(30.51 48.52)">Realized Portfolio<tspan x="0" y="13.66">Return</tspan></text><text class="cls-8" transform="translate(430.37 433.29)">Realized Market<tspan x="0" y="13.66">Return</tspan></text><text class="cls-9" transform="translate(385.97 312.96)">Slope = Beta = 0.5/1.0 = 0.5</text><text class="cls-10" transform="translate(54.28 316.16)">4%</text><text class="cls-10" transform="translate(174.05 433.22)">4%</text><rect class="cls-1" x="0.5" y="0.5" width="569.52" height="559.39"/></svg>