<svg id="Layer_1" data-name="Layer 1" xmlns="http://www.w3.org/2000/svg" viewBox="0 0 567.168 507.334"><defs><style>.cls-1,.cls-11,.cls-2,.cls-3,.cls-4,.cls-5{fill:none;stroke-miterlimit:10;}.cls-1,.cls-3,.cls-4{stroke:#231f20;}.cls-2{stroke:#ed1c24;}.cls-3{stroke-dasharray:10.623 10.623;}.cls-4{stroke-dasharray:12.954 12.954;}.cls-5{stroke:#127d3e;}.cls-6{fill:#3a53a4;}.cls-7{fill:#127d3e;}.cls-8{fill:#231f20;}.cls-9{fill:#3b56a6;}.cls-10{fill:#127e3f;}.cls-11{stroke:#127e3f;stroke-width:2px;}</style></defs><title>Performance_Analytics_Relative_Returns_Analysis_EX03</title><line class="cls-1" x1="108.763" y1="38.133" x2="108.763" y2="486.254"/><line class="cls-1" x1="108.763" y1="401.23" x2="496.947" y2="401.23"/><line class="cls-2" x1="108.763" y1="368.472" x2="420.534" y2="243.478"/><line class="cls-1" x1="108.763" y1="325.402" x2="114.763" y2="325.402"/><line class="cls-3" x1="125.387" y1="325.402" x2="205.061" y2="325.402"/><line class="cls-1" x1="210.372" y1="325.402" x2="216.372" y2="325.402"/><line class="cls-1" x1="216.372" y1="324.459" x2="216.372" y2="330.459"/><line class="cls-4" x1="216.372" y1="343.413" x2="216.372" y2="388.753"/><line class="cls-1" x1="216.372" y1="395.23" x2="216.372" y2="401.23"/><line class="cls-5" x1="413.774" y1="250.588" x2="413.774" y2="286.458"/><line class="cls-5" x1="411.888" y1="287.465" x2="328.361" y2="287.465"/><circle class="cls-6" cx="216.372" cy="325.402" r="2.311"/><path class="cls-7" d="M373.027,309.428h-0.994V303.09a5.17,5.17,0,0,1-.942.686,6.664,6.664,0,0,1-1.047.514v-0.962a6.009,6.009,0,0,0,1.459-.95,3.728,3.728,0,0,0,.884-1.083h0.641v8.134Z" transform="translate(-7.936 -9.108)"/><path class="cls-7" d="M376.133,309.428v-1.133h1.133v1.133h-1.133Z" transform="translate(-7.936 -9.108)"/><path class="cls-7" d="M378.72,305.433a7.406,7.406,0,0,1,.3-2.312,2.865,2.865,0,0,1,.878-1.351,2.244,2.244,0,0,1,1.468-.476,2.4,2.4,0,0,1,1.144.263,2.182,2.182,0,0,1,.813.757,4.073,4.073,0,0,1,.5,1.205,7.968,7.968,0,0,1,.183,1.914,7.435,7.435,0,0,1-.293,2.3,2.875,2.875,0,0,1-.876,1.354,2.246,2.246,0,0,1-1.472.478,2.223,2.223,0,0,1-1.841-.84A5.336,5.336,0,0,1,378.72,305.433Zm1.022,0a5.078,5.078,0,0,0,.467,2.655,1.333,1.333,0,0,0,2.3,0,7.785,7.785,0,0,0,0-5.311,1.386,1.386,0,0,0-1.163-.657,1.274,1.274,0,0,0-1.094.58A5.137,5.137,0,0,0,379.742,305.433Z" transform="translate(-7.936 -9.108)"/><path class="cls-7" d="M425.811,277.94a7.406,7.406,0,0,1,.3-2.312,2.872,2.872,0,0,1,.878-1.351,2.249,2.249,0,0,1,1.468-.475,2.39,2.39,0,0,1,1.144.263,2.186,2.186,0,0,1,.813.757,4.072,4.072,0,0,1,.5,1.2,7.988,7.988,0,0,1,.183,1.915,7.435,7.435,0,0,1-.293,2.3,2.875,2.875,0,0,1-.876,1.354,2.246,2.246,0,0,1-1.472.478,2.223,2.223,0,0,1-1.841-.84A5.336,5.336,0,0,1,425.811,277.94Zm1.022,0a5.078,5.078,0,0,0,.467,2.655,1.333,1.333,0,0,0,2.3,0,7.784,7.784,0,0,0,0-5.31,1.384,1.384,0,0,0-1.163-.658,1.273,1.273,0,0,0-1.094.581A5.136,5.136,0,0,0,426.833,277.94Z" transform="translate(-7.936 -9.108)"/><path class="cls-7" d="M432.662,281.936V280.8h1.133v1.133h-1.133Z" transform="translate(-7.936 -9.108)"/><path class="cls-7" d="M435.249,279.813l1.044-.088a1.875,1.875,0,0,0,.539,1.146,1.465,1.465,0,0,0,1.02.384,1.591,1.591,0,0,0,1.216-.541,2.046,2.046,0,0,0,.5-1.437,1.847,1.847,0,0,0-.478-1.343,1.671,1.671,0,0,0-1.252-.491,1.733,1.733,0,0,0-.867.218,1.693,1.693,0,0,0-.608.566l-0.934-.121,0.784-4.161h4.028V274.9h-3.232l-0.437,2.177a2.639,2.639,0,0,1,1.531-.509,2.424,2.424,0,0,1,1.79.735,2.568,2.568,0,0,1,.729,1.89,2.946,2.946,0,0,1-.642,1.9,2.565,2.565,0,0,1-2.127.983,2.62,2.62,0,0,1-1.8-.618A2.414,2.414,0,0,1,435.249,279.813Z" transform="translate(-7.936 -9.108)"/><path class="cls-8" d="M74.482,40.369v-8.1h3.443a5.891,5.891,0,0,1,1.887.218,1.861,1.861,0,0,1,.942.776,2.338,2.338,0,0,1,.354,1.276,2.162,2.162,0,0,1-.536,1.506,2.574,2.574,0,0,1-1.6.749,3.817,3.817,0,0,1,.876.68,9.278,9.278,0,0,1,.931,1.315l0.989,1.581H79.81l-1.183-1.763a11.433,11.433,0,0,0-.862-1.191,1.256,1.256,0,0,0-.492-0.337,2.7,2.7,0,0,0-.823-0.091H76.118v3.382H74.482Zm1.636-4.675h1.21a6.284,6.284,0,0,0,1.47-.1,0.882,0.882,0,0,0,.458-0.343,1.056,1.056,0,0,0,.166-0.608,0.971,0.971,0,0,0-.218-0.66,1,1,0,0,0-.616-0.318q-0.2-.028-1.194-0.027H76.118v2.055Z" transform="translate(-7.936 -9.108)"/><path class="cls-8" d="M86.037,38.5l1.547,0.26a2.541,2.541,0,0,1-.942,1.3,2.768,2.768,0,0,1-1.61.445,2.625,2.625,0,0,1-2.266-1,3.359,3.359,0,0,1-.58-2.022,3.241,3.241,0,0,1,.762-2.285,2.512,2.512,0,0,1,1.929-.826,2.606,2.606,0,0,1,2.066.865,3.825,3.825,0,0,1,.724,2.65h-3.89a1.571,1.571,0,0,0,.375,1.075,1.176,1.176,0,0,0,.9.384,0.954,0.954,0,0,0,.614-0.2A1.232,1.232,0,0,0,86.037,38.5Zm0.088-1.569a1.493,1.493,0,0,0-.348-1.025,1.12,1.12,0,0,0-1.646.02,1.432,1.432,0,0,0-.326,1.005h2.321Z" transform="translate(-7.936 -9.108)"/><path class="cls-8" d="M90.092,36.291l-1.409-.254a2.2,2.2,0,0,1,.818-1.26,2.993,2.993,0,0,1,1.724-.409,3.711,3.711,0,0,1,1.547.246,1.545,1.545,0,0,1,.716.625,3.2,3.2,0,0,1,.207,1.39l-0.017,1.813a6.276,6.276,0,0,0,.075,1.141,3.313,3.313,0,0,0,.279.788H92.5q-0.061-.155-0.149-0.458c-0.026-.092-0.044-0.153-0.055-0.183a2.8,2.8,0,0,1-.851.581,2.438,2.438,0,0,1-.967.193,2,2,0,0,1-1.428-.492,1.634,1.634,0,0,1-.522-1.243,1.666,1.666,0,0,1,.238-0.887,1.552,1.552,0,0,1,.666-0.6,5.2,5.2,0,0,1,1.235-.362,8.465,8.465,0,0,0,1.508-.381V36.385a0.8,0.8,0,0,0-.221-0.638,1.324,1.324,0,0,0-.834-0.191,1.115,1.115,0,0,0-.647.163A1.136,1.136,0,0,0,90.092,36.291Zm2.078,1.26a9.724,9.724,0,0,1-.945.237,2.854,2.854,0,0,0-.846.271,0.647,0.647,0,0,0-.3.547,0.761,0.761,0,0,0,.243.563,0.847,0.847,0,0,0,.619.238,1.344,1.344,0,0,0,.8-0.276,0.97,0.97,0,0,0,.37-0.514,3.066,3.066,0,0,0,.061-0.757V37.551Z" transform="translate(-7.936 -9.108)"/><path class="cls-8" d="M95.226,40.369v-8.1h1.552v8.1H95.226Z" transform="translate(-7.936 -9.108)"/><path class="cls-8" d="M98.37,33.705V32.269h1.552v1.437H98.37Zm0,6.664V34.5h1.552v5.868H98.37Z" transform="translate(-7.936 -9.108)"/><path class="cls-8" d="M100.889,40.369v-1.21l2.2-2.525q0.541-.619.8-0.878c-0.181.011-.418,0.019-0.713,0.022l-2.072.011V34.5h4.852v1.1l-2.244,2.586-0.79.856q0.647-.039.8-0.039h2.4v1.365h-5.238Z" transform="translate(-7.936 -9.108)"/><path class="cls-8" d="M110.57,38.5l1.547,0.26a2.541,2.541,0,0,1-.942,1.3,2.768,2.768,0,0,1-1.61.445,2.625,2.625,0,0,1-2.266-1,3.359,3.359,0,0,1-.58-2.022,3.241,3.241,0,0,1,.762-2.285,2.512,2.512,0,0,1,1.929-.826,2.606,2.606,0,0,1,2.066.865,3.825,3.825,0,0,1,.724,2.65h-3.89a1.571,1.571,0,0,0,.375,1.075,1.176,1.176,0,0,0,.9.384,0.954,0.954,0,0,0,.614-0.2A1.232,1.232,0,0,0,110.57,38.5Zm0.088-1.569a1.493,1.493,0,0,0-.348-1.025,1.12,1.12,0,0,0-1.646.02,1.432,1.432,0,0,0-.326,1.005h2.321Z" transform="translate(-7.936 -9.108)"/><path class="cls-8" d="M118.847,40.369H117.4V39.507a2.33,2.33,0,0,1-.848.749,2.175,2.175,0,0,1-.986.246,2.236,2.236,0,0,1-1.732-.815,3.316,3.316,0,0,1-.721-2.273,3.278,3.278,0,0,1,.7-2.269,2.287,2.287,0,0,1,1.773-.776,2.2,2.2,0,0,1,1.7.818V32.269h1.553v8.1ZM114.7,37.308a2.692,2.692,0,0,0,.26,1.359,1.173,1.173,0,0,0,1.05.607,1.144,1.144,0,0,0,.912-0.456,2.1,2.1,0,0,0,.375-1.362A2.3,2.3,0,0,0,116.935,36,1.154,1.154,0,0,0,116,35.556a1.167,1.167,0,0,0-.926.439A1.986,1.986,0,0,0,114.7,37.308Z" transform="translate(-7.936 -9.108)"/><path class="cls-8" d="M123.533,40.369v-8.1h2.625a9.521,9.521,0,0,1,1.945.122,2.126,2.126,0,0,1,1.166.793,2.516,2.516,0,0,1,.47,1.578,2.642,2.642,0,0,1-.271,1.254,2.22,2.22,0,0,1-.688.8,2.368,2.368,0,0,1-.848.384,9.31,9.31,0,0,1-1.7.116h-1.066v3.056h-1.636Zm1.636-6.73v2.3h0.9a4.223,4.223,0,0,0,1.293-.127,1.063,1.063,0,0,0,.7-1.028,1.047,1.047,0,0,0-.26-0.729,1.131,1.131,0,0,0-.658-0.359,7.82,7.82,0,0,0-1.177-.055h-0.79Z" transform="translate(-7.936 -9.108)"/><path class="cls-8" d="M130.71,37.352a3.174,3.174,0,0,1,.381-1.5,2.618,2.618,0,0,1,1.08-1.1,3.209,3.209,0,0,1,1.561-.381,2.931,2.931,0,0,1,2.183.865,2.988,2.988,0,0,1,.851,2.186,3.024,3.024,0,0,1-.859,2.208,2.9,2.9,0,0,1-2.163.876,3.408,3.408,0,0,1-1.539-.365,2.5,2.5,0,0,1-1.113-1.069A3.56,3.56,0,0,1,130.71,37.352Zm1.591,0.083a1.945,1.945,0,0,0,.415,1.337,1.355,1.355,0,0,0,2.042,0,1.972,1.972,0,0,0,.412-1.349,1.935,1.935,0,0,0-.412-1.326,1.355,1.355,0,0,0-2.042,0A1.945,1.945,0,0,0,132.3,37.435Z" transform="translate(-7.936 -9.108)"/><path class="cls-8" d="M139.469,40.369h-1.553V34.5h1.442v0.834a2.514,2.514,0,0,1,.666-0.779,1.226,1.226,0,0,1,.671-0.188,1.969,1.969,0,0,1,1.022.293l-0.48,1.354a1.364,1.364,0,0,0-.729-0.254,0.864,0.864,0,0,0-.553.18,1.226,1.226,0,0,0-.356.649,9.2,9.2,0,0,0-.13,1.967v1.813Z" transform="translate(-7.936 -9.108)"/><path class="cls-8" d="M145.077,34.5v1.238h-1.061V38.1a5.936,5.936,0,0,0,.03.837,0.339,0.339,0,0,0,.138.2,0.437,0.437,0,0,0,.263.078,2,2,0,0,0,.624-0.149l0.133,1.2a3.087,3.087,0,0,1-1.227.232,1.949,1.949,0,0,1-.757-0.141A1.1,1.1,0,0,1,142.726,40a1.437,1.437,0,0,1-.218-0.6,7.614,7.614,0,0,1-.049-1.094V35.739h-0.713V34.5h0.713V33.335l1.558-.906V34.5h1.061Z" transform="translate(-7.936 -9.108)"/><path class="cls-8" d="M145.475,34.5h0.862V34.059a2.94,2.94,0,0,1,.157-1.105,1.245,1.245,0,0,1,.581-0.594,2.226,2.226,0,0,1,1.069-.229,4.317,4.317,0,0,1,1.3.2l-0.21,1.083a3.061,3.061,0,0,0-.713-0.088,0.636,0.636,0,0,0-.483.157,0.912,0.912,0,0,0-.146.6V34.5h1.16v1.221h-1.16v4.647h-1.553V35.722h-0.862V34.5Z" transform="translate(-7.936 -9.108)"/><path class="cls-8" d="M149.564,37.352a3.174,3.174,0,0,1,.381-1.5,2.618,2.618,0,0,1,1.08-1.1,3.209,3.209,0,0,1,1.561-.381,2.931,2.931,0,0,1,2.183.865,2.988,2.988,0,0,1,.851,2.186,3.024,3.024,0,0,1-.859,2.208,2.9,2.9,0,0,1-2.163.876,3.408,3.408,0,0,1-1.539-.365,2.5,2.5,0,0,1-1.113-1.069A3.56,3.56,0,0,1,149.564,37.352Zm1.591,0.083a1.945,1.945,0,0,0,.415,1.337,1.355,1.355,0,0,0,2.042,0,1.972,1.972,0,0,0,.412-1.349,1.935,1.935,0,0,0-.412-1.326,1.355,1.355,0,0,0-2.042,0A1.945,1.945,0,0,0,151.155,37.435Z" transform="translate(-7.936 -9.108)"/><path class="cls-8" d="M156.836,40.369v-8.1h1.552v8.1h-1.552Z" transform="translate(-7.936 -9.108)"/><path class="cls-8" d="M159.98,33.705V32.269h1.552v1.437H159.98Zm0,6.664V34.5h1.552v5.868H159.98Z" transform="translate(-7.936 -9.108)"/><path class="cls-8" d="M162.765,37.352a3.174,3.174,0,0,1,.381-1.5,2.618,2.618,0,0,1,1.08-1.1,3.209,3.209,0,0,1,1.561-.381,2.931,2.931,0,0,1,2.183.865,2.988,2.988,0,0,1,.851,2.186,3.024,3.024,0,0,1-.859,2.208,2.9,2.9,0,0,1-2.163.876,3.408,3.408,0,0,1-1.539-.365,2.5,2.5,0,0,1-1.113-1.069A3.56,3.56,0,0,1,162.765,37.352Zm1.591,0.083a1.945,1.945,0,0,0,.415,1.337,1.355,1.355,0,0,0,2.042,0,1.972,1.972,0,0,0,.412-1.349,1.935,1.935,0,0,0-.412-1.326,1.355,1.355,0,0,0-2.042,0A1.945,1.945,0,0,0,164.356,37.435Z" transform="translate(-7.936 -9.108)"/><path class="cls-8" d="M74.482,53.949v-8.1h3.443a5.891,5.891,0,0,1,1.887.218,1.861,1.861,0,0,1,.942.776,2.338,2.338,0,0,1,.354,1.276,2.162,2.162,0,0,1-.536,1.506,2.574,2.574,0,0,1-1.6.749,3.817,3.817,0,0,1,.876.68,9.278,9.278,0,0,1,.931,1.315l0.989,1.581H79.81l-1.183-1.763A11.433,11.433,0,0,0,77.765,51a1.256,1.256,0,0,0-.492-0.337,2.7,2.7,0,0,0-.823-0.091H76.118v3.382H74.482Zm1.636-4.675h1.21a6.284,6.284,0,0,0,1.47-.1,0.882,0.882,0,0,0,.458-0.343,1.056,1.056,0,0,0,.166-0.608,0.971,0.971,0,0,0-.218-0.66,1,1,0,0,0-.616-0.318q-0.2-.028-1.194-0.027H76.118v2.055Z" transform="translate(-7.936 -9.108)"/><path class="cls-8" d="M86.037,52.081l1.547,0.26a2.541,2.541,0,0,1-.942,1.3,2.768,2.768,0,0,1-1.61.445,2.625,2.625,0,0,1-2.266-1,3.359,3.359,0,0,1-.58-2.022,3.241,3.241,0,0,1,.762-2.285,2.512,2.512,0,0,1,1.929-.826,2.606,2.606,0,0,1,2.066.865,3.825,3.825,0,0,1,.724,2.65h-3.89a1.571,1.571,0,0,0,.375,1.075,1.176,1.176,0,0,0,.9.384,0.954,0.954,0,0,0,.614-0.2A1.232,1.232,0,0,0,86.037,52.081Zm0.088-1.569a1.493,1.493,0,0,0-.348-1.025,1.12,1.12,0,0,0-1.646.02,1.432,1.432,0,0,0-.326,1.005h2.321Z" transform="translate(-7.936 -9.108)"/><path class="cls-8" d="M91.623,48.081v1.238H90.562v2.365a5.936,5.936,0,0,0,.03.837,0.339,0.339,0,0,0,.138.2,0.437,0.437,0,0,0,.263.078,2,2,0,0,0,.624-0.149l0.133,1.2a3.087,3.087,0,0,1-1.227.232,1.949,1.949,0,0,1-.757-0.141,1.1,1.1,0,0,1-.495-0.365,1.437,1.437,0,0,1-.218-0.6A7.614,7.614,0,0,1,89,51.876V49.318H88.291V48.081H89V46.915l1.558-.906v2.072h1.061Z" transform="translate(-7.936 -9.108)"/><path class="cls-8" d="M96.563,53.949V53.07a2.261,2.261,0,0,1-.843.74,2.362,2.362,0,0,1-1.1.271,2.157,2.157,0,0,1-1.061-.26,1.532,1.532,0,0,1-.68-0.729,3.252,3.252,0,0,1-.21-1.3V48.081H94.22v2.7a7.485,7.485,0,0,0,.085,1.517,0.826,0.826,0,0,0,.312.442,0.959,0.959,0,0,0,.575.163,1.222,1.222,0,0,0,.713-0.218,1.113,1.113,0,0,0,.431-0.542,6.3,6.3,0,0,0,.116-1.583V48.081H98v5.868H96.563Z" transform="translate(-7.936 -9.108)"/><path class="cls-8" d="M101.1,53.949H99.547V48.081h1.442v0.834a2.514,2.514,0,0,1,.666-0.779,1.226,1.226,0,0,1,.671-0.188,1.969,1.969,0,0,1,1.022.293l-0.48,1.354a1.364,1.364,0,0,0-.729-0.254,0.864,0.864,0,0,0-.553.18,1.226,1.226,0,0,0-.356.649,9.2,9.2,0,0,0-.13,1.967v1.813Z" transform="translate(-7.936 -9.108)"/><path class="cls-8" d="M109.354,53.949H107.8v-3a4.649,4.649,0,0,0-.1-1.229,0.867,0.867,0,0,0-.323-0.434,0.926,0.926,0,0,0-.539-0.155,1.243,1.243,0,0,0-.724.221,1.113,1.113,0,0,0-.439.586,5.065,5.065,0,0,0-.119,1.348v2.658h-1.553V48.081h1.442v0.862a2.405,2.405,0,0,1,2.874-.81,1.576,1.576,0,0,1,.644.473,1.71,1.71,0,0,1,.3.652,4.851,4.851,0,0,1,.085,1.044v3.647Z" transform="translate(-7.936 -9.108)"/><path class="cls-8" d="M471.993,422.872v-8.1h3.442a5.89,5.89,0,0,1,1.887.219,1.863,1.863,0,0,1,.942.776,2.335,2.335,0,0,1,.354,1.276,2.16,2.16,0,0,1-.536,1.5,2.569,2.569,0,0,1-1.6.749,3.811,3.811,0,0,1,.876.68,9.177,9.177,0,0,1,.931,1.315l0.989,1.58h-1.956l-1.183-1.763a11.53,11.53,0,0,0-.861-1.19,1.258,1.258,0,0,0-.492-0.337,2.665,2.665,0,0,0-.823-0.092h-0.331v3.382h-1.636Zm1.636-4.675h1.21a6.242,6.242,0,0,0,1.47-.1,0.874,0.874,0,0,0,.458-0.343,1.045,1.045,0,0,0,.166-0.607,0.972,0.972,0,0,0-.218-0.66,1,1,0,0,0-.616-0.317q-0.2-.028-1.193-0.028h-1.276V418.2Z" transform="translate(-7.936 -9.108)"/><path class="cls-8" d="M483.548,421l1.547,0.259a2.534,2.534,0,0,1-.942,1.3,2.763,2.763,0,0,1-1.61.445,2.628,2.628,0,0,1-2.266-1,3.362,3.362,0,0,1-.58-2.022,3.239,3.239,0,0,1,.763-2.285,2.509,2.509,0,0,1,1.928-.826,2.605,2.605,0,0,1,2.067.865,3.832,3.832,0,0,1,.724,2.649h-3.891a1.574,1.574,0,0,0,.376,1.074,1.173,1.173,0,0,0,.9.385,0.95,0.95,0,0,0,.613-0.2A1.231,1.231,0,0,0,483.548,421Zm0.088-1.569a1.5,1.5,0,0,0-.348-1.025,1.068,1.068,0,0,0-.807-0.351,1.079,1.079,0,0,0-.841.37,1.433,1.433,0,0,0-.325,1.006h2.32Z" transform="translate(-7.936 -9.108)"/><path class="cls-8" d="M487.6,418.794l-1.409-.254a2.189,2.189,0,0,1,.818-1.26,2.992,2.992,0,0,1,1.724-.409,3.711,3.711,0,0,1,1.547.246,1.544,1.544,0,0,1,.716.624,3.212,3.212,0,0,1,.207,1.39l-0.017,1.813a6.282,6.282,0,0,0,.075,1.142,3.312,3.312,0,0,0,.278.787h-1.536c-0.04-.1-0.09-0.256-0.148-0.459q-0.04-.138-0.056-0.182a2.806,2.806,0,0,1-.851.58,2.443,2.443,0,0,1-.968.193,2,2,0,0,1-1.428-.492,1.632,1.632,0,0,1-.522-1.243,1.671,1.671,0,0,1,.237-0.887,1.55,1.55,0,0,1,.666-0.6,5.189,5.189,0,0,1,1.235-.362,8.37,8.37,0,0,0,1.508-.381v-0.155a0.8,0.8,0,0,0-.221-0.638,1.326,1.326,0,0,0-.834-0.19,1.1,1.1,0,0,0-.646.163A1.126,1.126,0,0,0,487.6,418.794Zm2.077,1.26q-0.3.1-.944,0.238a2.834,2.834,0,0,0-.846.271,0.648,0.648,0,0,0-.3.547,0.76,0.76,0,0,0,.243.563,0.849,0.849,0,0,0,.619.237,1.347,1.347,0,0,0,.8-0.275,0.97,0.97,0,0,0,.37-0.515,3.039,3.039,0,0,0,.061-0.757v-0.31Z" transform="translate(-7.936 -9.108)"/><path class="cls-8" d="M492.737,422.872v-8.1h1.553v8.1h-1.553Z" transform="translate(-7.936 -9.108)"/><path class="cls-8" d="M495.882,416.208v-1.437h1.553v1.437h-1.553Zm0,6.664V417h1.553v5.868h-1.553Z" transform="translate(-7.936 -9.108)"/><path class="cls-8" d="M498.4,422.872v-1.21l2.2-2.525q0.542-.618.8-0.879c-0.181.012-.418,0.019-0.713,0.022l-2.072.011V417h4.852v1.1l-2.243,2.586-0.79.856c0.431-.025.7-0.039,0.8-0.039h2.4v1.365H498.4Z" transform="translate(-7.936 -9.108)"/><path class="cls-8" d="M508.083,421l1.547,0.259a2.534,2.534,0,0,1-.942,1.3,2.763,2.763,0,0,1-1.61.445,2.628,2.628,0,0,1-2.266-1,3.362,3.362,0,0,1-.58-2.022,3.239,3.239,0,0,1,.763-2.285,2.509,2.509,0,0,1,1.928-.826,2.605,2.605,0,0,1,2.067.865,3.832,3.832,0,0,1,.724,2.649h-3.891a1.574,1.574,0,0,0,.376,1.074,1.173,1.173,0,0,0,.9.385,0.95,0.95,0,0,0,.613-0.2A1.231,1.231,0,0,0,508.083,421Zm0.088-1.569a1.5,1.5,0,0,0-.348-1.025,1.068,1.068,0,0,0-.807-0.351,1.079,1.079,0,0,0-.841.37,1.433,1.433,0,0,0-.325,1.006h2.32Z" transform="translate(-7.936 -9.108)"/><path class="cls-8" d="M516.36,422.872h-1.442V422.01a2.329,2.329,0,0,1-.848.749,2.177,2.177,0,0,1-.986.246,2.233,2.233,0,0,1-1.732-.815,3.31,3.31,0,0,1-.722-2.273,3.277,3.277,0,0,1,.7-2.269,2.287,2.287,0,0,1,1.773-.776,2.2,2.2,0,0,1,1.7.818v-2.918h1.553v8.1Zm-4.145-3.062a2.687,2.687,0,0,0,.26,1.359,1.174,1.174,0,0,0,1.05.608,1.145,1.145,0,0,0,.912-0.456,2.107,2.107,0,0,0,.376-1.362,2.3,2.3,0,0,0-.365-1.456,1.156,1.156,0,0,0-.934-0.444,1.168,1.168,0,0,0-.926.439A1.984,1.984,0,0,0,512.216,419.811Z" transform="translate(-7.936 -9.108)"/><path class="cls-8" d="M521.023,422.872v-8.1h2.448l1.47,5.525,1.453-5.525h2.453v8.1h-1.52V416.5l-1.607,6.377h-1.575l-1.6-6.377v6.377h-1.52Z" transform="translate(-7.936 -9.108)"/><path class="cls-8" d="M531.622,418.794l-1.409-.254a2.189,2.189,0,0,1,.818-1.26,2.992,2.992,0,0,1,1.724-.409,3.711,3.711,0,0,1,1.547.246,1.544,1.544,0,0,1,.716.624,3.212,3.212,0,0,1,.207,1.39l-0.017,1.813a6.282,6.282,0,0,0,.075,1.142,3.312,3.312,0,0,0,.278.787h-1.536c-0.04-.1-0.09-0.256-0.148-0.459q-0.04-.138-0.056-0.182a2.806,2.806,0,0,1-.851.58A2.443,2.443,0,0,1,532,423a2,2,0,0,1-1.428-.492,1.632,1.632,0,0,1-.522-1.243,1.671,1.671,0,0,1,.237-0.887,1.55,1.55,0,0,1,.666-0.6,5.189,5.189,0,0,1,1.235-.362,8.37,8.37,0,0,0,1.508-.381v-0.155a0.8,0.8,0,0,0-.221-0.638,1.326,1.326,0,0,0-.834-0.19,1.1,1.1,0,0,0-.646.163A1.126,1.126,0,0,0,531.622,418.794Zm2.077,1.26q-0.3.1-.944,0.238a2.834,2.834,0,0,0-.846.271,0.648,0.648,0,0,0-.3.547,0.76,0.76,0,0,0,.243.563,0.849,0.849,0,0,0,.619.237,1.347,1.347,0,0,0,.8-0.275,0.97,0.97,0,0,0,.37-0.515,3.039,3.039,0,0,0,.061-0.757v-0.31Z" transform="translate(-7.936 -9.108)"/><path class="cls-8" d="M538.242,422.872h-1.553V417h1.442v0.834a2.508,2.508,0,0,1,.665-0.778,1.22,1.22,0,0,1,.672-0.188,1.972,1.972,0,0,1,1.022.293l-0.481,1.354a1.362,1.362,0,0,0-.729-0.254,0.858,0.858,0,0,0-.553.18,1.222,1.222,0,0,0-.356.649,9.193,9.193,0,0,0-.13,1.967v1.813Z" transform="translate(-7.936 -9.108)"/><path class="cls-8" d="M541.1,422.872v-8.1h1.553v4.3L544.476,417h1.911l-2,2.144,2.149,3.725h-1.675l-1.476-2.636-0.724.757v1.879H541.1Z" transform="translate(-7.936 -9.108)"/><path class="cls-8" d="M550.853,421l1.547,0.259a2.534,2.534,0,0,1-.942,1.3,2.763,2.763,0,0,1-1.61.445,2.628,2.628,0,0,1-2.266-1,3.362,3.362,0,0,1-.58-2.022,3.239,3.239,0,0,1,.763-2.285,2.509,2.509,0,0,1,1.928-.826,2.605,2.605,0,0,1,2.067.865,3.832,3.832,0,0,1,.724,2.649h-3.891a1.574,1.574,0,0,0,.376,1.074,1.173,1.173,0,0,0,.9.385,0.95,0.95,0,0,0,.613-0.2A1.231,1.231,0,0,0,550.853,421Zm0.088-1.569a1.5,1.5,0,0,0-.348-1.025,1.068,1.068,0,0,0-.807-0.351,1.079,1.079,0,0,0-.841.37,1.433,1.433,0,0,0-.325,1.006h2.32Z" transform="translate(-7.936 -9.108)"/><path class="cls-8" d="M556.438,417v1.237h-1.061v2.365a5.839,5.839,0,0,0,.03.837,0.339,0.339,0,0,0,.139.2,0.435,0.435,0,0,0,.262.077,2.007,2.007,0,0,0,.625-0.148l0.132,1.2a3.073,3.073,0,0,1-1.227.232,1.95,1.95,0,0,1-.757-0.141,1.106,1.106,0,0,1-.494-0.365,1.439,1.439,0,0,1-.219-0.605,7.5,7.5,0,0,1-.05-1.094v-2.559h-0.713V417h0.713v-1.166l1.559-.906V417h1.061Z" transform="translate(-7.936 -9.108)"/><path class="cls-8" d="M471.993,436.452v-8.1h3.442a5.89,5.89,0,0,1,1.887.219,1.863,1.863,0,0,1,.942.776,2.335,2.335,0,0,1,.354,1.276,2.16,2.16,0,0,1-.536,1.5,2.569,2.569,0,0,1-1.6.749,3.811,3.811,0,0,1,.876.68,9.177,9.177,0,0,1,.931,1.315l0.989,1.58h-1.956l-1.183-1.763a11.53,11.53,0,0,0-.861-1.19,1.258,1.258,0,0,0-.492-0.337,2.665,2.665,0,0,0-.823-0.092h-0.331v3.382h-1.636Zm1.636-4.675h1.21a6.242,6.242,0,0,0,1.47-.1,0.874,0.874,0,0,0,.458-0.343,1.045,1.045,0,0,0,.166-0.607,0.972,0.972,0,0,0-.218-0.66,1,1,0,0,0-.616-0.317q-0.2-.028-1.193-0.028h-1.276v2.056Z" transform="translate(-7.936 -9.108)"/><path class="cls-8" d="M483.548,434.585l1.547,0.259a2.534,2.534,0,0,1-.942,1.3,2.763,2.763,0,0,1-1.61.445,2.628,2.628,0,0,1-2.266-1,3.362,3.362,0,0,1-.58-2.022,3.239,3.239,0,0,1,.763-2.285,2.509,2.509,0,0,1,1.928-.826,2.605,2.605,0,0,1,2.067.865,3.832,3.832,0,0,1,.724,2.649h-3.891a1.574,1.574,0,0,0,.376,1.074,1.173,1.173,0,0,0,.9.385,0.95,0.95,0,0,0,.613-0.2A1.231,1.231,0,0,0,483.548,434.585Zm0.088-1.569a1.5,1.5,0,0,0-.348-1.025,1.068,1.068,0,0,0-.807-0.351,1.079,1.079,0,0,0-.841.37,1.433,1.433,0,0,0-.325,1.006h2.32Z" transform="translate(-7.936 -9.108)"/><path class="cls-8" d="M489.134,430.584v1.237h-1.061v2.365a5.839,5.839,0,0,0,.03.837,0.339,0.339,0,0,0,.139.2,0.435,0.435,0,0,0,.262.077,2.007,2.007,0,0,0,.625-0.148l0.132,1.2a3.073,3.073,0,0,1-1.227.232,1.95,1.95,0,0,1-.757-0.141,1.106,1.106,0,0,1-.494-0.365,1.439,1.439,0,0,1-.219-0.605,7.5,7.5,0,0,1-.05-1.094v-2.559H485.8v-1.237h0.713v-1.166l1.559-.906v2.072h1.061Z" transform="translate(-7.936 -9.108)"/><path class="cls-8" d="M494.074,436.452v-0.879a2.268,2.268,0,0,1-.843.741,2.371,2.371,0,0,1-1.1.271,2.154,2.154,0,0,1-1.061-.26,1.527,1.527,0,0,1-.68-0.729,3.246,3.246,0,0,1-.21-1.3v-3.713h1.553v2.7a7.531,7.531,0,0,0,.085,1.517,0.827,0.827,0,0,0,.313.442,0.963,0.963,0,0,0,.575.163,1.224,1.224,0,0,0,.713-0.219,1.106,1.106,0,0,0,.431-0.541,6.294,6.294,0,0,0,.116-1.583v-2.476h1.553v5.868h-1.442Z" transform="translate(-7.936 -9.108)"/><path class="cls-8" d="M498.61,436.452h-1.553v-5.868H498.5v0.834a2.508,2.508,0,0,1,.665-0.778,1.22,1.22,0,0,1,.672-0.188,1.972,1.972,0,0,1,1.022.293l-0.481,1.354a1.362,1.362,0,0,0-.729-0.254,0.858,0.858,0,0,0-.553.18,1.222,1.222,0,0,0-.356.649,9.193,9.193,0,0,0-.13,1.967v1.813Z" transform="translate(-7.936 -9.108)"/><path class="cls-8" d="M506.866,436.452h-1.553v-3a4.624,4.624,0,0,0-.1-1.229,0.865,0.865,0,0,0-.323-0.434,0.93,0.93,0,0,0-.539-0.154,1.245,1.245,0,0,0-.724.221,1.113,1.113,0,0,0-.439.586,5.06,5.06,0,0,0-.119,1.348v2.658h-1.553v-5.868h1.442v0.862a2.352,2.352,0,0,1,1.935-1,2.325,2.325,0,0,1,.939.186,1.573,1.573,0,0,1,.644.472,1.726,1.726,0,0,1,.3.652,4.882,4.882,0,0,1,.086,1.045v3.646Z" transform="translate(-7.936 -9.108)"/><path class="cls-8" d="M427.528,300.652l1.011-.089a2.237,2.237,0,0,0,.334,1,1.825,1.825,0,0,0,.815.63,3.085,3.085,0,0,0,1.243.24,2.968,2.968,0,0,0,1.083-.183,1.5,1.5,0,0,0,.7-0.5,1.163,1.163,0,0,0,.229-0.693,1.057,1.057,0,0,0-.222-0.666,1.64,1.64,0,0,0-.729-0.478,14.082,14.082,0,0,0-1.441-.4,7.341,7.341,0,0,1-1.564-.506,2.181,2.181,0,0,1-.864-0.754,1.84,1.84,0,0,1-.285-1.008,2.059,2.059,0,0,1,.349-1.147,2.161,2.161,0,0,1,1.017-.81,3.867,3.867,0,0,1,1.486-.275,4.063,4.063,0,0,1,1.589.29,2.287,2.287,0,0,1,1.058.854,2.451,2.451,0,0,1,.4,1.276l-1.028.077a1.657,1.657,0,0,0-.561-1.16,2.182,2.182,0,0,0-1.412-.393,2.267,2.267,0,0,0-1.417.356,1.068,1.068,0,0,0-.444.859,0.922,0.922,0,0,0,.314.719,4.278,4.278,0,0,0,1.616.577,10.7,10.7,0,0,1,1.793.517,2.454,2.454,0,0,1,1.045.826,2.01,2.01,0,0,1,.337,1.151,2.208,2.208,0,0,1-.37,1.219,2.435,2.435,0,0,1-1.064.89,3.7,3.7,0,0,1-1.561.317,4.655,4.655,0,0,1-1.843-.32,2.582,2.582,0,0,1-1.166-.964A2.729,2.729,0,0,1,427.528,300.652Z" transform="translate(-7.936 -9.108)"/><path class="cls-8" d="M435.291,303.255v-8.1h1v8.1h-1Z" transform="translate(-7.936 -9.108)"/><path class="cls-8" d="M437.457,300.32a3.024,3.024,0,0,1,.906-2.414,2.729,2.729,0,0,1,1.846-.652,2.632,2.632,0,0,1,1.978.793,3.018,3.018,0,0,1,.769,2.191,3.879,3.879,0,0,1-.34,1.781,2.4,2.4,0,0,1-.989,1.009,2.881,2.881,0,0,1-1.417.359,2.637,2.637,0,0,1-1.992-.79A3.157,3.157,0,0,1,437.457,300.32Zm1.022,0a2.5,2.5,0,0,0,.491,1.688,1.638,1.638,0,0,0,2.47,0,2.556,2.556,0,0,0,.492-1.718,2.425,2.425,0,0,0-.494-1.649,1.639,1.639,0,0,0-2.468,0A2.486,2.486,0,0,0,438.479,300.32Z" transform="translate(-7.936 -9.108)"/><path class="cls-8" d="M444.121,305.5v-8.117h0.906v0.763a2.238,2.238,0,0,1,.724-0.672,2,2,0,0,1,.979-0.224,2.323,2.323,0,0,1,1.326.387,2.376,2.376,0,0,1,.867,1.092,3.982,3.982,0,0,1,.293,1.544,3.933,3.933,0,0,1-.323,1.622,2.449,2.449,0,0,1-.939,1.105,2.414,2.414,0,0,1-1.3.384,1.876,1.876,0,0,1-.893-0.21,2.053,2.053,0,0,1-.649-0.53V305.5h-0.994Zm0.9-5.15a2.554,2.554,0,0,0,.459,1.675,1.4,1.4,0,0,0,1.11.541,1.438,1.438,0,0,0,1.136-.561,2.663,2.663,0,0,0,.473-1.737,2.6,2.6,0,0,0-.462-1.681,1.391,1.391,0,0,0-1.1-.558,1.434,1.434,0,0,0-1.124.594A2.658,2.658,0,0,0,445.021,300.354Z" transform="translate(-7.936 -9.108)"/><path class="cls-8" d="M454.432,301.365l1.028,0.127a2.514,2.514,0,0,1-.9,1.4,2.713,2.713,0,0,1-1.681.5,2.684,2.684,0,0,1-2.041-.793,3.1,3.1,0,0,1-.755-2.225,3.244,3.244,0,0,1,.763-2.3,2.58,2.58,0,0,1,1.979-.818,2.509,2.509,0,0,1,1.923.8,3.183,3.183,0,0,1,.746,2.254c0,0.06,0,.147-0.006.266h-4.376a2.249,2.249,0,0,0,.547,1.48,1.627,1.627,0,0,0,1.227.514,1.521,1.521,0,0,0,.934-0.287A1.9,1.9,0,0,0,454.432,301.365Zm-3.266-1.608h3.277a2,2,0,0,0-.376-1.11,1.526,1.526,0,0,0-1.232-.574,1.58,1.58,0,0,0-1.152.458A1.819,1.819,0,0,0,451.166,299.757Z" transform="translate(-7.936 -9.108)"/><path class="cls-8" d="M465.086,298.492h-5.349v-0.929h5.349v0.929Zm0,2.459h-5.349v-0.929h5.349v0.929Z" transform="translate(-7.936 -9.108)"/><path class="cls-8" d="M469.689,303.255v-8.1h3.039a3.762,3.762,0,0,1,1.489.246,1.918,1.918,0,0,1,.878.757,2,2,0,0,1,.318,1.069,1.84,1.84,0,0,1-.282.978,2.012,2.012,0,0,1-.851.741,2.121,2.121,0,0,1,1.13.734,1.972,1.972,0,0,1,.395,1.227,2.368,2.368,0,0,1-.24,1.059,2.048,2.048,0,0,1-.594.754,2.469,2.469,0,0,1-.887.4,5.363,5.363,0,0,1-1.307.136h-3.089Zm1.071-4.7h1.752a3.862,3.862,0,0,0,1.022-.095,1.136,1.136,0,0,0,.616-0.4,1.162,1.162,0,0,0,.207-0.707,1.3,1.3,0,0,0-.193-0.71,0.98,0.98,0,0,0-.553-0.42,4.629,4.629,0,0,0-1.232-.113h-1.619v2.448Zm0,3.74h2.018a4.726,4.726,0,0,0,.729-0.038,1.751,1.751,0,0,0,.618-0.222,1.163,1.163,0,0,0,.409-0.45,1.415,1.415,0,0,0,.16-0.683,1.342,1.342,0,0,0-.232-0.787,1.221,1.221,0,0,0-.644-0.47,4,4,0,0,0-1.185-.136h-1.874V302.3Z" transform="translate(-7.936 -9.108)"/><path class="cls-8" d="M481.171,301.365l1.028,0.127a2.514,2.514,0,0,1-.9,1.4,2.713,2.713,0,0,1-1.681.5,2.684,2.684,0,0,1-2.041-.793,3.1,3.1,0,0,1-.755-2.225,3.244,3.244,0,0,1,.763-2.3,2.58,2.58,0,0,1,1.979-.818,2.509,2.509,0,0,1,1.923.8,3.183,3.183,0,0,1,.746,2.254c0,0.06,0,.147-0.006.266h-4.376a2.249,2.249,0,0,0,.547,1.48,1.627,1.627,0,0,0,1.227.514,1.521,1.521,0,0,0,.934-0.287A1.9,1.9,0,0,0,481.171,301.365Zm-3.266-1.608h3.277a2,2,0,0,0-.376-1.11,1.526,1.526,0,0,0-1.232-.574,1.58,1.58,0,0,0-1.152.458A1.819,1.819,0,0,0,477.905,299.757Z" transform="translate(-7.936 -9.108)"/><path class="cls-8" d="M485.62,302.365l0.144,0.879a3.719,3.719,0,0,1-.752.088,1.7,1.7,0,0,1-.84-0.171,0.96,0.96,0,0,1-.42-0.45,3.572,3.572,0,0,1-.121-1.175V298.16H482.9v-0.773h0.729v-1.453l0.988-.6v2.05h1v0.773h-1v3.432a1.727,1.727,0,0,0,.053.547,0.411,0.411,0,0,0,.172.193,0.661,0.661,0,0,0,.34.072A3.318,3.318,0,0,0,485.62,302.365Z" transform="translate(-7.936 -9.108)"/><path class="cls-8" d="M490.422,302.531a3.712,3.712,0,0,1-1.063.663,3.077,3.077,0,0,1-1.1.193,2.129,2.129,0,0,1-1.486-.473,1.558,1.558,0,0,1-.52-1.207,1.635,1.635,0,0,1,.71-1.359,2.407,2.407,0,0,1,.716-0.326,7.007,7.007,0,0,1,.884-0.149,9.061,9.061,0,0,0,1.773-.343c0-.136.006-0.223,0.006-0.26a1.1,1.1,0,0,0-.282-0.856,1.665,1.665,0,0,0-1.133-.337,1.757,1.757,0,0,0-1.036.246,1.5,1.5,0,0,0-.494.87l-0.973-.133a2.419,2.419,0,0,1,.437-1.008,1.92,1.92,0,0,1,.879-0.592,3.928,3.928,0,0,1,1.331-.207,3.546,3.546,0,0,1,1.222.177,1.615,1.615,0,0,1,.69.445,1.56,1.56,0,0,1,.31.677,5.581,5.581,0,0,1,.05.917V300.8a14.169,14.169,0,0,0,.063,1.755,2.213,2.213,0,0,0,.251.7h-1.038A2.094,2.094,0,0,1,490.422,302.531Zm-0.083-2.222a7.313,7.313,0,0,1-1.624.376,3.717,3.717,0,0,0-.868.2,0.857,0.857,0,0,0-.392.323,0.877,0.877,0,0,0,.162,1.135,1.3,1.3,0,0,0,.882.266,2.06,2.06,0,0,0,1.022-.251,1.551,1.551,0,0,0,.657-0.688,2.406,2.406,0,0,0,.16-0.994V300.31Z" transform="translate(-7.936 -9.108)"/><path class="cls-8" d="M501.264,298.492h-5.349v-0.929h5.349v0.929Zm0,2.459h-5.349v-0.929h5.349v0.929Z" transform="translate(-7.936 -9.108)"/><path class="cls-8" d="M505.508,299.26a7.406,7.406,0,0,1,.3-2.312,2.865,2.865,0,0,1,.878-1.351,2.244,2.244,0,0,1,1.468-.476,2.4,2.4,0,0,1,1.144.263,2.182,2.182,0,0,1,.813.757,4.073,4.073,0,0,1,.5,1.205,7.968,7.968,0,0,1,.183,1.914,7.435,7.435,0,0,1-.293,2.3,2.875,2.875,0,0,1-.876,1.354,2.246,2.246,0,0,1-1.472.478,2.223,2.223,0,0,1-1.841-.84A5.336,5.336,0,0,1,505.508,299.26Zm1.022,0a5.078,5.078,0,0,0,.467,2.655,1.333,1.333,0,0,0,2.3,0,7.785,7.785,0,0,0,0-5.311,1.386,1.386,0,0,0-1.163-.657,1.274,1.274,0,0,0-1.094.58A5.137,5.137,0,0,0,506.53,299.26Z" transform="translate(-7.936 -9.108)"/><path class="cls-8" d="M512.359,303.255v-1.133h1.133v1.133h-1.133Z" transform="translate(-7.936 -9.108)"/><path class="cls-8" d="M514.946,301.133l1.044-.088a1.875,1.875,0,0,0,.539,1.146,1.465,1.465,0,0,0,1.02.384,1.591,1.591,0,0,0,1.216-.541,2.046,2.046,0,0,0,.5-1.437,1.847,1.847,0,0,0-.478-1.343,1.671,1.671,0,0,0-1.252-.491,1.733,1.733,0,0,0-.867.218,1.693,1.693,0,0,0-.608.566l-0.934-.121,0.784-4.161h4.028v0.95H516.7l-0.437,2.178a2.639,2.639,0,0,1,1.531-.509,2.424,2.424,0,0,1,1.79.735,2.568,2.568,0,0,1,.729,1.89,2.946,2.946,0,0,1-.642,1.9,2.565,2.565,0,0,1-2.127.983,2.62,2.62,0,0,1-1.8-.618A2.414,2.414,0,0,1,514.946,301.133Z" transform="translate(-7.936 -9.108)"/><path class="cls-8" d="M520.771,303.393l2.349-8.376h0.8l-2.344,8.376h-0.8Z" transform="translate(-7.936 -9.108)"/><path class="cls-8" d="M528.131,303.255h-0.994v-6.338a5.17,5.17,0,0,1-.942.686,6.664,6.664,0,0,1-1.047.514v-0.962a6.009,6.009,0,0,0,1.459-.95,3.728,3.728,0,0,0,.884-1.083h0.641v8.134Z" transform="translate(-7.936 -9.108)"/><path class="cls-8" d="M531.236,303.255v-1.133h1.133v1.133h-1.133Z" transform="translate(-7.936 -9.108)"/><path class="cls-8" d="M533.823,299.26a7.406,7.406,0,0,1,.3-2.312A2.865,2.865,0,0,1,535,295.6a2.244,2.244,0,0,1,1.468-.476,2.4,2.4,0,0,1,1.144.263,2.182,2.182,0,0,1,.813.757,4.073,4.073,0,0,1,.5,1.205,7.968,7.968,0,0,1,.183,1.914,7.435,7.435,0,0,1-.293,2.3,2.875,2.875,0,0,1-.876,1.354,2.246,2.246,0,0,1-1.472.478,2.223,2.223,0,0,1-1.841-.84A5.336,5.336,0,0,1,533.823,299.26Zm1.022,0a5.078,5.078,0,0,0,.467,2.655,1.333,1.333,0,0,0,2.3,0,7.785,7.785,0,0,0,0-5.311,1.386,1.386,0,0,0-1.163-.657,1.274,1.274,0,0,0-1.094.58A5.137,5.137,0,0,0,534.846,299.26Z" transform="translate(-7.936 -9.108)"/><path class="cls-8" d="M548.771,298.492h-5.349v-0.929h5.349v0.929Zm0,2.459h-5.349v-0.929h5.349v0.929Z" transform="translate(-7.936 -9.108)"/><path class="cls-8" d="M553.015,299.26a7.406,7.406,0,0,1,.3-2.312,2.865,2.865,0,0,1,.878-1.351,2.244,2.244,0,0,1,1.468-.476,2.4,2.4,0,0,1,1.144.263,2.182,2.182,0,0,1,.813.757,4.073,4.073,0,0,1,.5,1.205,7.968,7.968,0,0,1,.183,1.914,7.435,7.435,0,0,1-.293,2.3,2.875,2.875,0,0,1-.876,1.354,2.246,2.246,0,0,1-1.472.478,2.223,2.223,0,0,1-1.841-.84A5.336,5.336,0,0,1,553.015,299.26Zm1.022,0a5.078,5.078,0,0,0,.467,2.655,1.333,1.333,0,0,0,2.3,0,7.785,7.785,0,0,0,0-5.311,1.386,1.386,0,0,0-1.163-.657,1.274,1.274,0,0,0-1.094.58A5.137,5.137,0,0,0,554.037,299.26Z" transform="translate(-7.936 -9.108)"/><path class="cls-8" d="M559.866,303.255v-1.133H561v1.133h-1.133Z" transform="translate(-7.936 -9.108)"/><path class="cls-8" d="M562.453,301.133l1.044-.088a1.875,1.875,0,0,0,.539,1.146,1.465,1.465,0,0,0,1.02.384,1.591,1.591,0,0,0,1.216-.541,2.046,2.046,0,0,0,.5-1.437,1.847,1.847,0,0,0-.478-1.343,1.671,1.671,0,0,0-1.252-.491,1.733,1.733,0,0,0-.867.218,1.693,1.693,0,0,0-.608.566l-0.934-.121,0.784-4.161h4.028v0.95H564.21l-0.437,2.178a2.639,2.639,0,0,1,1.531-.509,2.424,2.424,0,0,1,1.79.735,2.568,2.568,0,0,1,.729,1.89,2.946,2.946,0,0,1-.642,1.9,2.565,2.565,0,0,1-2.127.983,2.62,2.62,0,0,1-1.8-.618A2.414,2.414,0,0,1,562.453,301.133Z" transform="translate(-7.936 -9.108)"/><path class="cls-9" d="M102.567,330.191v0.656l-3.2,6.7H98.333l3.193-6.51v-0.023h-3.6v-0.826h4.642Z" transform="translate(-7.936 -9.108)"/><path class="cls-9" d="M106.912,332.264c0,1.551-.815,2.32-1.766,2.32-0.917,0-1.709-.735-1.721-2.219s0.8-2.3,1.777-2.3C106.232,330.067,106.912,330.859,106.912,332.264Zm-2.694.067c-0.023.94,0.328,1.653,0.951,1.653,0.657,0,.951-0.7.951-1.676,0-.895-0.26-1.642-0.951-1.642C104.545,330.667,104.217,331.4,104.217,332.331Zm0.86,5.345,4.325-7.608h0.634l-4.325,7.608h-0.634Zm6.624-2.367c0,1.552-.815,2.321-1.755,2.321-0.917,0-1.71-.735-1.721-2.208s0.8-2.31,1.778-2.31C111.033,333.112,111.7,333.905,111.7,335.309Zm-2.695.068c-0.011.939,0.351,1.653,0.962,1.653,0.657,0,.951-0.7.951-1.676,0-.895-0.261-1.642-0.951-1.642C109.346,333.713,109.006,334.448,109.006,335.377Z" transform="translate(-7.936 -9.108)"/><path class="cls-9" d="M216.769,420.936a2.1,2.1,0,0,1,1.46-1.97l-0.011-.034a1.823,1.823,0,0,1-1.166-1.653,2.061,2.061,0,0,1,2.275-1.958,1.9,1.9,0,0,1,2.14,1.812,1.87,1.87,0,0,1-1.211,1.721v0.034a2.039,2.039,0,0,1,1.483,1.9,2.267,2.267,0,0,1-2.5,2.141C217.7,422.929,216.769,422.011,216.769,420.936Zm3.963-.045c0-.895-0.623-1.325-1.619-1.608a1.6,1.6,0,0,0-1.325,1.518,1.361,1.361,0,0,0,1.472,1.4A1.332,1.332,0,0,0,220.732,420.891Zm-2.74-3.68a1.5,1.5,0,0,0,1.4,1.358,1.45,1.45,0,0,0,1.121-1.336,1.144,1.144,0,0,0-1.246-1.2A1.17,1.17,0,0,0,217.992,417.211Z" transform="translate(-7.936 -9.108)"/><path class="cls-9" d="M225.982,417.517c0,1.551-.815,2.32-1.766,2.32-0.917,0-1.709-.735-1.721-2.219s0.8-2.3,1.777-2.3C225.3,415.32,225.982,416.112,225.982,417.517Zm-2.694.067c-0.023.94,0.328,1.653,0.951,1.653,0.657,0,.951-0.7.951-1.676,0-.895-0.26-1.642-0.951-1.642C223.616,415.92,223.288,416.656,223.288,417.584Zm0.86,5.345,4.325-7.608h0.634l-4.325,7.608h-0.634Zm6.624-2.367c0,1.552-.815,2.321-1.755,2.321-0.917,0-1.71-.735-1.721-2.208s0.8-2.31,1.778-2.31C230.1,418.365,230.771,419.158,230.771,420.562Zm-2.695.068c-0.011.939,0.351,1.653,0.962,1.653,0.657,0,.951-0.7.951-1.676,0-.895-0.261-1.642-0.951-1.642C228.417,418.966,228.077,419.7,228.077,420.63Z" transform="translate(-7.936 -9.108)"/><path class="cls-10" d="M22.685,390.615h1.332a7.161,7.161,0,0,0-.528,1.639,7.929,7.929,0,0,0-.212,1.395,6.2,6.2,0,0,0,.193,1.343,8.44,8.44,0,0,0,.486,1.492h-1.3c-0.019-.073-0.052-0.177-0.1-0.31-0.077-.221-0.144-0.442-0.2-0.663a2.274,2.274,0,0,1-3.81.141,3.794,3.794,0,0,1-.682-2.251,3.2,3.2,0,0,1,.68-2.066,2.284,2.284,0,0,1,1.89-.852,2.214,2.214,0,0,1,1.928,1.144A9.679,9.679,0,0,1,22.685,390.615Zm-3.232,2.95a2.3,2.3,0,0,0,.345,1.318,1.057,1.057,0,0,0,1.766.058,2.286,2.286,0,0,0,.337-1.376,2.246,2.246,0,0,0-.359-1.381,1.062,1.062,0,0,0-.867-0.47,1.038,1.038,0,0,0-.876.486A2.331,2.331,0,0,0,19.452,393.565Z" transform="translate(-7.936 -9.108)"/><path class="cls-10" d="M28,391.975v-1.426h5.664v1.426H28Zm0,2.453V393h5.664v1.431H28Z" transform="translate(-7.936 -9.108)"/><path class="cls-10" d="M44.991,396.483H43.212l-0.708-1.84H39.267l-0.669,1.84H36.863l3.155-8.1h1.729Zm-3.011-3.205-1.116-3.006-1.094,3.006h2.21Z" transform="translate(-7.936 -9.108)"/><path class="cls-10" d="M45.848,396.483v-8.1H47.4v8.1H45.848Z" transform="translate(-7.936 -9.108)"/><path class="cls-10" d="M48.947,390.615H50.4v0.862a2.168,2.168,0,0,1,.763-0.719,2.107,2.107,0,0,1,1.066-.276,2.238,2.238,0,0,1,1.735.8,3.244,3.244,0,0,1,.713,2.232,3.341,3.341,0,0,1-.718,2.284,2.237,2.237,0,0,1-1.741.815,1.977,1.977,0,0,1-.881-0.193,2.984,2.984,0,0,1-.832-0.663v2.956H48.947v-8.1Zm1.536,2.835a2.26,2.26,0,0,0,.392,1.461,1.2,1.2,0,0,0,.956.473,1.123,1.123,0,0,0,.9-0.434,2.236,2.236,0,0,0,.359-1.423,2.121,2.121,0,0,0-.37-1.37,1.144,1.144,0,0,0-.917-0.448,1.191,1.191,0,0,0-.945.439A1.956,1.956,0,0,0,50.483,393.45Z" transform="translate(-7.936 -9.108)"/><path class="cls-10" d="M57.451,388.383v2.979a2.325,2.325,0,0,1,2.763-.68,1.582,1.582,0,0,1,.649.508,1.85,1.85,0,0,1,.3.686,6.15,6.15,0,0,1,.08,1.166v3.442H59.689v-3.1a4.589,4.589,0,0,0-.088-1.172,0.768,0.768,0,0,0-.312-0.395,1,1,0,0,0-.561-0.146,1.287,1.287,0,0,0-.69.188,1.084,1.084,0,0,0-.445.566,3.371,3.371,0,0,0-.141,1.119v2.939H55.9v-8.1h1.553Z" transform="translate(-7.936 -9.108)"/><path class="cls-10" d="M63.977,392.405l-1.409-.254a2.2,2.2,0,0,1,.818-1.26,2.993,2.993,0,0,1,1.724-.409,3.711,3.711,0,0,1,1.547.246,1.547,1.547,0,0,1,.716.624,3.2,3.2,0,0,1,.207,1.39l-0.017,1.813a6.292,6.292,0,0,0,.075,1.142,3.317,3.317,0,0,0,.279.787H66.381c-0.041-.1-0.09-0.256-0.149-0.459-0.026-.092-0.044-0.152-0.055-0.182a2.8,2.8,0,0,1-.851.58,2.438,2.438,0,0,1-.967.193,2,2,0,0,1-1.428-.492,1.634,1.634,0,0,1-.522-1.243,1.667,1.667,0,0,1,.238-0.887,1.549,1.549,0,0,1,.666-0.6,5.2,5.2,0,0,1,1.235-.362,8.39,8.39,0,0,0,1.508-.381V392.5a0.8,0.8,0,0,0-.221-0.638,1.325,1.325,0,0,0-.834-0.19,1.107,1.107,0,0,0-.647.163A1.132,1.132,0,0,0,63.977,392.405Zm2.078,1.26q-0.3.1-.945,0.238a2.829,2.829,0,0,0-.846.271,0.647,0.647,0,0,0-.3.547,0.76,0.76,0,0,0,.243.563,0.849,0.849,0,0,0,.619.237,1.346,1.346,0,0,0,.8-0.275,0.972,0.972,0,0,0,.37-0.515,3.056,3.056,0,0,0,.061-0.757v-0.31Z" transform="translate(-7.936 -9.108)"/><path class="cls-10" d="M71.912,391.975v-1.426h5.664v1.426H71.912Zm0,2.453V393h5.664v1.431H71.912Z" transform="translate(-7.936 -9.108)"/><path class="cls-10" d="M81.62,394.334l1.5-.183a1.424,1.424,0,0,0,.387.879,1.059,1.059,0,0,0,.762.3,1.047,1.047,0,0,0,.81-0.364,1.415,1.415,0,0,0,.329-0.984,1.319,1.319,0,0,0-.315-0.928,1,1,0,0,0-.768-0.343,2.715,2.715,0,0,0-.712.116l0.171-1.266a1.362,1.362,0,0,0,.961-0.273,0.973,0.973,0,0,0,.332-0.771,0.836,0.836,0,0,0-.889-0.9,0.933,0.933,0,0,0-.68.276,1.3,1.3,0,0,0-.343.807l-1.431-.243a3.206,3.206,0,0,1,.45-1.174,2.028,2.028,0,0,1,.84-0.69,2.817,2.817,0,0,1,1.208-.252,2.408,2.408,0,0,1,1.834.729,1.846,1.846,0,0,1-.6,3.05,1.885,1.885,0,0,1,1.113.669A1.94,1.94,0,0,1,87,394.052a2.434,2.434,0,0,1-.779,1.818,2.912,2.912,0,0,1-3.763.119A2.489,2.489,0,0,1,81.62,394.334Z" transform="translate(-7.936 -9.108)"/><path class="cls-10" d="M87.979,390.383a2.336,2.336,0,0,1,.478-1.613,1.667,1.667,0,0,1,1.3-.524,1.705,1.705,0,0,1,1.323.521,2.968,2.968,0,0,1,0,3.23,1.667,1.667,0,0,1-1.3.524A1.7,1.7,0,0,1,88.458,392,2.332,2.332,0,0,1,87.979,390.383Zm1.21-.011a2.09,2.09,0,0,0,.183,1.061,0.439,0.439,0,0,0,.381.2,0.444,0.444,0,0,0,.387-0.2,2.15,2.15,0,0,0,.177-1.061,2.119,2.119,0,0,0-.177-1.056,0.467,0.467,0,0,0-.768,0A2.09,2.09,0,0,0,89.189,390.372Zm1.746,6.421H89.787l4.315-8.548h1.116Zm2.509-2.128a2.336,2.336,0,0,1,.478-1.613,1.9,1.9,0,0,1,2.619,0,2.971,2.971,0,0,1,0,3.232,1.664,1.664,0,0,1-1.3.525,1.7,1.7,0,0,1-1.323-.525A2.344,2.344,0,0,1,93.444,394.665Zm1.21,0a2.063,2.063,0,0,0,.183,1.056,0.437,0.437,0,0,0,.381.2,0.431,0.431,0,0,0,.381-0.2,2.093,2.093,0,0,0,.182-1.061A2.154,2.154,0,0,0,95.6,393.6a0.446,0.446,0,0,0-.387-0.2,0.432,0.432,0,0,0-.381.2A2.094,2.094,0,0,0,94.654,394.66Z" transform="translate(-7.936 -9.108)"/><line class="cls-11" x1="108.763" y1="368.472" x2="92.243" y2="384.992"/><line class="cls-11" x1="92.243" y1="384.049" x2="108.665" y2="400.471"/><rect class="cls-1" x="0.5" y="0.5" width="566.168" height="506.334"/></svg>