<svg id="Layer_1" data-name="Layer 1" xmlns="http://www.w3.org/2000/svg" viewBox="0 0 567 556.93"><defs><style>.cls-1,.cls-2,.cls-3,.cls-4,.cls-5{fill:none;stroke-miterlimit:10;}.cls-1,.cls-3,.cls-4{stroke:#231f20;}.cls-2{stroke:#ed1c24;}.cls-3{stroke-dasharray:10.62 10.62;}.cls-4{stroke-dasharray:14.355 14.355;}.cls-5{stroke:#127d3e;}.cls-6{fill:#3a53a4;}.cls-7{fill:#127d3e;}.cls-8{fill:#231f20;}.cls-9{fill:#3b56a6;}</style></defs><title>Performance_Analytics_Relative_Returns_Analysis_EX02</title><line class="cls-1" x1="73.356" y1="55.092" x2="73.356" y2="503.079"/><line class="cls-1" x1="73.356" y1="418.081" x2="461.424" y2="418.081"/><line class="cls-2" x1="73.356" y1="418.081" x2="385.034" y2="259.433"/><line class="cls-1" x1="73.356" y1="363.016" x2="79.356" y2="363.016"/><line class="cls-3" x1="89.976" y1="363.016" x2="169.623" y2="363.016"/><line class="cls-1" x1="174.933" y1="363.016" x2="180.933" y2="363.016"/><line class="cls-1" x1="180.933" y1="363.016" x2="180.933" y2="369.016"/><line class="cls-4" x1="180.933" y1="383.371" x2="180.933" y2="404.903"/><line class="cls-1" x1="180.933" y1="412.081" x2="180.933" y2="418.081"/><line class="cls-5" x1="378.276" y1="267.483" x2="378.276" y2="303.343"/><line class="cls-5" x1="376.391" y1="309.063" x2="316.898" y2="309.063"/><circle class="cls-6" cx="180.933" cy="363.016" r="2.31"/><path class="cls-7" d="M351.249,333.914h-0.994v-6.336a5.09,5.09,0,0,1-.942.685,6.579,6.579,0,0,1-1.047.514v-0.961a6,6,0,0,0,1.459-.95,3.755,3.755,0,0,0,.884-1.082h0.641v8.131Z" transform="translate(-7.5 -11.999)"/><path class="cls-7" d="M354.354,333.914v-1.133h1.133v1.133h-1.133Z" transform="translate(-7.5 -11.999)"/><path class="cls-7" d="M356.939,329.92a7.436,7.436,0,0,1,.295-2.312,2.874,2.874,0,0,1,.879-1.351,2.246,2.246,0,0,1,1.467-.475,2.4,2.4,0,0,1,1.144.262,2.194,2.194,0,0,1,.812.757,4.078,4.078,0,0,1,.5,1.2,8.031,8.031,0,0,1,.182,1.914,7.457,7.457,0,0,1-.292,2.3,2.875,2.875,0,0,1-.876,1.354,2.246,2.246,0,0,1-1.472.478,2.222,2.222,0,0,1-1.84-.839A5.336,5.336,0,0,1,356.939,329.92Zm1.021,0a5.081,5.081,0,0,0,.467,2.654,1.333,1.333,0,0,0,2.3,0,7.777,7.777,0,0,0,0-5.308,1.387,1.387,0,0,0-1.163-.658,1.275,1.275,0,0,0-1.094.58A5.145,5.145,0,0,0,357.961,329.92Z" transform="translate(-7.5 -11.999)"/><path class="cls-7" d="M389.876,297.722a7.436,7.436,0,0,1,.295-2.312,2.874,2.874,0,0,1,.879-1.351,2.246,2.246,0,0,1,1.467-.475,2.4,2.4,0,0,1,1.144.262,2.194,2.194,0,0,1,.812.757,4.078,4.078,0,0,1,.5,1.2,8.031,8.031,0,0,1,.182,1.914,7.457,7.457,0,0,1-.292,2.3,2.875,2.875,0,0,1-.876,1.354,2.246,2.246,0,0,1-1.472.478,2.222,2.222,0,0,1-1.84-.839A5.336,5.336,0,0,1,389.876,297.722Zm1.021,0a5.081,5.081,0,0,0,.467,2.654,1.333,1.333,0,0,0,2.3,0,7.777,7.777,0,0,0,0-5.308,1.387,1.387,0,0,0-1.163-.658,1.275,1.275,0,0,0-1.094.58A5.145,5.145,0,0,0,390.9,297.722Z" transform="translate(-7.5 -11.999)"/><path class="cls-7" d="M396.726,301.716v-1.133h1.133v1.133h-1.133Z" transform="translate(-7.5 -11.999)"/><path class="cls-7" d="M399.312,299.595l1.044-.089a1.872,1.872,0,0,0,.538,1.146,1.465,1.465,0,0,0,1.02.384,1.584,1.584,0,0,0,1.215-.541,2.039,2.039,0,0,0,.5-1.437,1.844,1.844,0,0,0-.479-1.342,1.664,1.664,0,0,0-1.251-.492,1.734,1.734,0,0,0-.867.219,1.688,1.688,0,0,0-.607.565l-0.934-.121,0.784-4.159H404.3v0.95h-3.231l-0.437,2.176a2.633,2.633,0,0,1,1.53-.508,2.423,2.423,0,0,1,1.789.734,2.569,2.569,0,0,1,.729,1.89,2.953,2.953,0,0,1-.641,1.9,2.568,2.568,0,0,1-2.127.982,2.622,2.622,0,0,1-1.8-.618A2.413,2.413,0,0,1,399.312,299.595Z" transform="translate(-7.5 -11.999)"/><path class="cls-8" d="M38.652,60.222v-8.1h3.441a5.888,5.888,0,0,1,1.886.218,1.86,1.86,0,0,1,.942.776,2.332,2.332,0,0,1,.354,1.276,2.164,2.164,0,0,1-.536,1.505,2.575,2.575,0,0,1-1.6.748,3.824,3.824,0,0,1,.875.68,9.226,9.226,0,0,1,.931,1.314l0.989,1.58H43.977l-1.182-1.762a11.429,11.429,0,0,0-.862-1.19,1.263,1.263,0,0,0-.492-0.337,2.7,2.7,0,0,0-.823-0.091H40.287v3.381H38.652Zm1.635-4.673H41.5a6.231,6.231,0,0,0,1.469-.1,0.877,0.877,0,0,0,.458-0.342A1.052,1.052,0,0,0,43.59,54.5a0.971,0.971,0,0,0-.218-0.66,1,1,0,0,0-.616-0.318q-0.2-.027-1.193-0.027H40.287v2.055Z" transform="translate(-7.5 -11.999)"/><path class="cls-8" d="M50.2,58.354l1.546,0.26a2.536,2.536,0,0,1-.942,1.3,2.766,2.766,0,0,1-1.61.445,2.625,2.625,0,0,1-2.265-1,3.36,3.36,0,0,1-.58-2.022,3.239,3.239,0,0,1,.763-2.284,2.51,2.51,0,0,1,1.928-.826,2.6,2.6,0,0,1,2.066.864,3.828,3.828,0,0,1,.724,2.649H47.943a1.568,1.568,0,0,0,.375,1.075,1.175,1.175,0,0,0,.9.384,0.949,0.949,0,0,0,.613-0.2A1.225,1.225,0,0,0,50.2,58.354Zm0.088-1.569a1.5,1.5,0,0,0-.348-1.024,1.12,1.12,0,0,0-1.646.019,1.431,1.431,0,0,0-.326,1.005h2.32Z" transform="translate(-7.5 -11.999)"/><path class="cls-8" d="M54.257,56.145l-1.409-.254a2.193,2.193,0,0,1,.817-1.26,2.993,2.993,0,0,1,1.724-.409,3.721,3.721,0,0,1,1.547.246,1.546,1.546,0,0,1,.715.625,3.206,3.206,0,0,1,.207,1.389l-0.017,1.812a6.28,6.28,0,0,0,.075,1.141,3.329,3.329,0,0,0,.279.787H56.66q-0.061-.155-0.149-0.458c-0.026-.092-0.044-0.153-0.056-0.182a2.8,2.8,0,0,1-.851.58,2.444,2.444,0,0,1-.967.193,2,2,0,0,1-1.428-.492,1.635,1.635,0,0,1-.522-1.243,1.67,1.67,0,0,1,.237-0.887,1.552,1.552,0,0,1,.666-0.6,5.189,5.189,0,0,1,1.234-.362,8.457,8.457,0,0,0,1.508-.381V56.239a0.8,0.8,0,0,0-.221-0.638,1.321,1.321,0,0,0-.834-0.191,1.113,1.113,0,0,0-.646.163A1.133,1.133,0,0,0,54.257,56.145ZM56.334,57.4a9.711,9.711,0,0,1-.944.238,2.844,2.844,0,0,0-.845.271,0.647,0.647,0,0,0-.3.547,0.761,0.761,0,0,0,.243.563,0.849,0.849,0,0,0,.619.238,1.344,1.344,0,0,0,.8-0.276,0.973,0.973,0,0,0,.37-0.514,3.069,3.069,0,0,0,.061-0.757V57.4Z" transform="translate(-7.5 -11.999)"/><path class="cls-8" d="M59.389,60.222v-8.1h1.552v8.1H59.389Z" transform="translate(-7.5 -11.999)"/><path class="cls-8" d="M62.532,53.56V52.124h1.552V53.56H62.532Zm0,6.662V54.355h1.552v5.866H62.532Z" transform="translate(-7.5 -11.999)"/><path class="cls-8" d="M65.051,60.222v-1.21l2.2-2.524q0.541-.618.8-0.878-0.271.016-.713,0.022l-2.071.011V54.355h4.85v1.1L67.874,58.04l-0.79.856q0.646-.039.8-0.039h2.4v1.364H65.051Z" transform="translate(-7.5 -11.999)"/><path class="cls-8" d="M74.729,58.354l1.546,0.26a2.536,2.536,0,0,1-.942,1.3,2.766,2.766,0,0,1-1.61.445,2.625,2.625,0,0,1-2.265-1,3.36,3.36,0,0,1-.58-2.022,3.239,3.239,0,0,1,.763-2.284,2.51,2.51,0,0,1,1.928-.826,2.6,2.6,0,0,1,2.066.864,3.828,3.828,0,0,1,.724,2.649H72.47a1.568,1.568,0,0,0,.375,1.075,1.175,1.175,0,0,0,.9.384,0.949,0.949,0,0,0,.613-0.2A1.225,1.225,0,0,0,74.729,58.354Zm0.088-1.569a1.5,1.5,0,0,0-.348-1.024,1.12,1.12,0,0,0-1.646.019,1.431,1.431,0,0,0-.326,1.005h2.32Z" transform="translate(-7.5 -11.999)"/><path class="cls-8" d="M83,60.222H81.563V59.36a2.324,2.324,0,0,1-.848.749,2.175,2.175,0,0,1-.986.246A2.235,2.235,0,0,1,78,59.54a3.313,3.313,0,0,1-.721-2.273,3.276,3.276,0,0,1,.7-2.268,2.288,2.288,0,0,1,1.773-.776,2.2,2.2,0,0,1,1.7.817V52.124H83v8.1Zm-4.143-3.06a2.684,2.684,0,0,0,.26,1.359,1.173,1.173,0,0,0,1.049.607,1.143,1.143,0,0,0,.912-0.456,2.1,2.1,0,0,0,.375-1.362,2.3,2.3,0,0,0-.364-1.456,1.2,1.2,0,0,0-1.859-.005A1.984,1.984,0,0,0,78.861,57.162Z" transform="translate(-7.5 -11.999)"/><path class="cls-8" d="M87.689,60.222v-8.1h2.624a9.515,9.515,0,0,1,1.945.122,2.125,2.125,0,0,1,1.166.792,2.514,2.514,0,0,1,.469,1.577,2.646,2.646,0,0,1-.271,1.254,2.22,2.22,0,0,1-.688.8,2.366,2.366,0,0,1-.848.384,9.3,9.3,0,0,1-1.7.116H89.324v3.055H87.689Zm1.635-6.728v2.3h0.9a4.235,4.235,0,0,0,1.292-.127,1.076,1.076,0,0,0,.511-0.4,1.09,1.09,0,0,0,.185-0.63,1.047,1.047,0,0,0-.26-0.729,1.131,1.131,0,0,0-.657-0.359,7.825,7.825,0,0,0-1.177-.055h-0.79Z" transform="translate(-7.5 -11.999)"/><path class="cls-8" d="M94.865,57.206a3.175,3.175,0,0,1,.381-1.5,2.617,2.617,0,0,1,1.08-1.1,3.2,3.2,0,0,1,1.561-.381,2.931,2.931,0,0,1,2.182.864,2.989,2.989,0,0,1,.851,2.185,3.023,3.023,0,0,1-.859,2.207,2.9,2.9,0,0,1-2.163.876,3.4,3.4,0,0,1-1.539-.365,2.5,2.5,0,0,1-1.113-1.069A3.565,3.565,0,0,1,94.865,57.206Zm1.591,0.083a1.946,1.946,0,0,0,.414,1.337,1.355,1.355,0,0,0,2.042,0,1.973,1.973,0,0,0,.411-1.348,1.937,1.937,0,0,0-.411-1.326,1.355,1.355,0,0,0-2.042,0A1.946,1.946,0,0,0,96.456,57.289Z" transform="translate(-7.5 -11.999)"/><path class="cls-8" d="M103.62,60.222h-1.552V54.355h1.442v0.834a2.505,2.505,0,0,1,.666-0.779,1.223,1.223,0,0,1,.671-0.188,1.97,1.97,0,0,1,1.022.293l-0.481,1.353a1.36,1.36,0,0,0-.729-0.254,0.861,0.861,0,0,0-.552.18,1.223,1.223,0,0,0-.356.649,9.227,9.227,0,0,0-.13,1.966v1.812Z" transform="translate(-7.5 -11.999)"/><path class="cls-8" d="M109.227,54.355v1.237h-1.061v2.364a5.816,5.816,0,0,0,.031.837,0.338,0.338,0,0,0,.138.2,0.439,0.439,0,0,0,.263.078,2,2,0,0,0,.624-0.149l0.133,1.2a3.087,3.087,0,0,1-1.227.232,1.948,1.948,0,0,1-.757-0.141,1.1,1.1,0,0,1-.494-0.365,1.437,1.437,0,0,1-.218-0.6,7.517,7.517,0,0,1-.05-1.094V55.593H105.9V54.355h0.712V53.189l1.558-.906v2.072h1.061Z" transform="translate(-7.5 -11.999)"/><path class="cls-8" d="M109.625,54.355h0.861V53.913a2.934,2.934,0,0,1,.158-1.1,1.244,1.244,0,0,1,.58-0.594,2.224,2.224,0,0,1,1.069-.229,4.326,4.326,0,0,1,1.3.2l-0.21,1.083a3.054,3.054,0,0,0-.712-0.088,0.636,0.636,0,0,0-.483.157,0.912,0.912,0,0,0-.146.6v0.415h1.16v1.221h-1.16v4.646h-1.552V55.576h-0.861V54.355Z" transform="translate(-7.5 -11.999)"/><path class="cls-8" d="M113.713,57.206a3.175,3.175,0,0,1,.381-1.5,2.617,2.617,0,0,1,1.08-1.1,3.2,3.2,0,0,1,1.561-.381,2.931,2.931,0,0,1,2.182.864,2.989,2.989,0,0,1,.851,2.185,3.023,3.023,0,0,1-.859,2.207,2.9,2.9,0,0,1-2.163.876,3.4,3.4,0,0,1-1.539-.365,2.5,2.5,0,0,1-1.113-1.069A3.565,3.565,0,0,1,113.713,57.206Zm1.591,0.083a1.946,1.946,0,0,0,.414,1.337,1.355,1.355,0,0,0,2.042,0,1.973,1.973,0,0,0,.411-1.348,1.937,1.937,0,0,0-.411-1.326,1.355,1.355,0,0,0-2.042,0A1.946,1.946,0,0,0,115.3,57.289Z" transform="translate(-7.5 -11.999)"/><path class="cls-8" d="M120.982,60.222v-8.1h1.552v8.1h-1.552Z" transform="translate(-7.5 -11.999)"/><path class="cls-8" d="M124.125,53.56V52.124h1.552V53.56h-1.552Zm0,6.662V54.355h1.552v5.866h-1.552Z" transform="translate(-7.5 -11.999)"/><path class="cls-8" d="M126.91,57.206a3.175,3.175,0,0,1,.381-1.5,2.617,2.617,0,0,1,1.08-1.1,3.2,3.2,0,0,1,1.561-.381,2.931,2.931,0,0,1,2.182.864,2.989,2.989,0,0,1,.851,2.185,3.023,3.023,0,0,1-.859,2.207,2.9,2.9,0,0,1-2.163.876,3.4,3.4,0,0,1-1.539-.365,2.5,2.5,0,0,1-1.113-1.069A3.565,3.565,0,0,1,126.91,57.206Zm1.591,0.083a1.946,1.946,0,0,0,.414,1.337,1.355,1.355,0,0,0,2.042,0,1.973,1.973,0,0,0,.411-1.348,1.937,1.937,0,0,0-.411-1.326,1.355,1.355,0,0,0-2.042,0A1.946,1.946,0,0,0,128.5,57.289Z" transform="translate(-7.5 -11.999)"/><path class="cls-8" d="M38.652,73.8V65.7h3.441a5.888,5.888,0,0,1,1.886.218,1.86,1.86,0,0,1,.942.776,2.332,2.332,0,0,1,.354,1.276,2.164,2.164,0,0,1-.536,1.505,2.575,2.575,0,0,1-1.6.748,3.824,3.824,0,0,1,.875.68,9.226,9.226,0,0,1,.931,1.314l0.989,1.58H43.977l-1.182-1.762a11.429,11.429,0,0,0-.862-1.19,1.263,1.263,0,0,0-.492-0.337,2.7,2.7,0,0,0-.823-0.091H40.287V73.8H38.652Zm1.635-4.673H41.5a6.231,6.231,0,0,0,1.469-.1,0.877,0.877,0,0,0,.458-0.342,1.052,1.052,0,0,0,.166-0.607,0.971,0.971,0,0,0-.218-0.66,1,1,0,0,0-.616-0.318q-0.2-.027-1.193-0.027H40.287v2.055Z" transform="translate(-7.5 -11.999)"/><path class="cls-8" d="M50.2,71.93l1.546,0.26a2.536,2.536,0,0,1-.942,1.3,2.766,2.766,0,0,1-1.61.445,2.625,2.625,0,0,1-2.265-1,3.36,3.36,0,0,1-.58-2.022,3.239,3.239,0,0,1,.763-2.284,2.51,2.51,0,0,1,1.928-.826,2.6,2.6,0,0,1,2.066.864,3.828,3.828,0,0,1,.724,2.649H47.943a1.568,1.568,0,0,0,.375,1.075,1.175,1.175,0,0,0,.9.384,0.949,0.949,0,0,0,.613-0.2A1.225,1.225,0,0,0,50.2,71.93Zm0.088-1.569a1.5,1.5,0,0,0-.348-1.024,1.12,1.12,0,0,0-1.646.019,1.431,1.431,0,0,0-.326,1.005h2.32Z" transform="translate(-7.5 -11.999)"/><path class="cls-8" d="M55.787,67.931v1.237H54.727v2.364a5.816,5.816,0,0,0,.031.837,0.338,0.338,0,0,0,.138.2,0.439,0.439,0,0,0,.263.078,2,2,0,0,0,.624-0.149l0.133,1.2a3.087,3.087,0,0,1-1.227.232,1.948,1.948,0,0,1-.757-0.141,1.1,1.1,0,0,1-.494-0.365,1.437,1.437,0,0,1-.218-0.6,7.517,7.517,0,0,1-.05-1.094V69.168H52.457V67.931h0.712V66.765l1.558-.906v2.072h1.061Z" transform="translate(-7.5 -11.999)"/><path class="cls-8" d="M60.726,73.8V72.919a2.264,2.264,0,0,1-.842.74,2.36,2.36,0,0,1-1.1.271,2.157,2.157,0,0,1-1.061-.26,1.532,1.532,0,0,1-.68-0.729,3.247,3.247,0,0,1-.21-1.3V67.931h1.552v2.7a7.479,7.479,0,0,0,.085,1.517,0.826,0.826,0,0,0,.313.442,0.96,0.96,0,0,0,.574.163,1.222,1.222,0,0,0,.713-0.218,1.109,1.109,0,0,0,.431-0.542,6.289,6.289,0,0,0,.116-1.583V67.931h1.552V73.8H60.726Z" transform="translate(-7.5 -11.999)"/><path class="cls-8" d="M65.261,73.8H63.709V67.931h1.442v0.834a2.505,2.505,0,0,1,.666-0.779,1.223,1.223,0,0,1,.671-0.188,1.97,1.97,0,0,1,1.022.293l-0.481,1.353A1.36,1.36,0,0,0,66.3,69.19a0.861,0.861,0,0,0-.552.18,1.223,1.223,0,0,0-.356.649,9.227,9.227,0,0,0-.13,1.966V73.8Z" transform="translate(-7.5 -11.999)"/><path class="cls-8" d="M73.514,73.8H71.962V70.8a4.627,4.627,0,0,0-.1-1.229,0.863,0.863,0,0,0-.323-0.434A0.924,0.924,0,0,0,71,68.986a1.243,1.243,0,0,0-.724.221,1.111,1.111,0,0,0-.439.585,5.039,5.039,0,0,0-.119,1.348V73.8H68.167V67.931h1.442v0.861a2.4,2.4,0,0,1,2.873-.809,1.575,1.575,0,0,1,.644.472,1.71,1.71,0,0,1,.3.652,4.849,4.849,0,0,1,.085,1.044V73.8Z" transform="translate(-7.5 -11.999)"/><path class="cls-8" d="M436.043,442.609v-8.1h3.442a5.885,5.885,0,0,1,1.886.218,1.863,1.863,0,0,1,.942.776,2.334,2.334,0,0,1,.354,1.275,2.162,2.162,0,0,1-.536,1.506,2.573,2.573,0,0,1-1.6.748,3.8,3.8,0,0,1,.875.68,9.153,9.153,0,0,1,.931,1.314l0.989,1.58h-1.956l-1.182-1.762a11.22,11.22,0,0,0-.862-1.19,1.248,1.248,0,0,0-.491-0.337,2.665,2.665,0,0,0-.823-0.092h-0.331v3.381h-1.636Zm1.636-4.673h1.21a6.232,6.232,0,0,0,1.469-.1,0.882,0.882,0,0,0,.459-0.343,1.054,1.054,0,0,0,.165-0.607,0.972,0.972,0,0,0-.218-0.66,1,1,0,0,0-.616-0.317q-0.2-.028-1.193-0.028h-1.275v2.056Z" transform="translate(-7.5 -11.999)"/><path class="cls-8" d="M447.594,440.742l1.547,0.26a2.536,2.536,0,0,1-.941,1.295,2.766,2.766,0,0,1-1.61.445,2.622,2.622,0,0,1-2.265-1,3.359,3.359,0,0,1-.58-2.021,3.239,3.239,0,0,1,.762-2.284,2.512,2.512,0,0,1,1.928-.826,2.605,2.605,0,0,1,2.066.864,3.823,3.823,0,0,1,.724,2.649h-3.889a1.569,1.569,0,0,0,.375,1.074,1.176,1.176,0,0,0,.9.384,0.95,0.95,0,0,0,.613-0.2A1.233,1.233,0,0,0,447.594,440.742Zm0.089-1.568a1.5,1.5,0,0,0-.349-1.025,1.068,1.068,0,0,0-.806-0.351,1.08,1.08,0,0,0-.84.37,1.434,1.434,0,0,0-.326,1.006h2.32Z" transform="translate(-7.5 -11.999)"/><path class="cls-8" d="M451.648,438.532l-1.408-.254a2.193,2.193,0,0,1,.817-1.259,2.992,2.992,0,0,1,1.724-.409,3.711,3.711,0,0,1,1.547.246,1.541,1.541,0,0,1,.715.624,3.191,3.191,0,0,1,.207,1.39l-0.017,1.812a6.269,6.269,0,0,0,.075,1.141,3.317,3.317,0,0,0,.279.787h-1.536c-0.041-.1-0.09-0.256-0.149-0.458-0.025-.093-0.044-0.153-0.055-0.183a2.806,2.806,0,0,1-.851.58,2.442,2.442,0,0,1-.967.193,2,2,0,0,1-1.429-.492,1.634,1.634,0,0,1-.521-1.242,1.669,1.669,0,0,1,.237-0.887,1.545,1.545,0,0,1,.666-0.6,5.179,5.179,0,0,1,1.234-.362,8.37,8.37,0,0,0,1.508-.381v-0.154a0.8,0.8,0,0,0-.221-0.639,1.326,1.326,0,0,0-.834-0.19,1.112,1.112,0,0,0-.646.163A1.133,1.133,0,0,0,451.648,438.532Zm2.077,1.26a9.562,9.562,0,0,1-.944.237,2.836,2.836,0,0,0-.845.271,0.646,0.646,0,0,0-.3.547,0.763,0.763,0,0,0,.243.563,0.849,0.849,0,0,0,.619.237,1.342,1.342,0,0,0,.8-0.276,0.973,0.973,0,0,0,.37-0.514,3.094,3.094,0,0,0,.061-0.757v-0.31Z" transform="translate(-7.5 -11.999)"/><path class="cls-8" d="M456.781,442.609v-8.1h1.552v8.1h-1.552Z" transform="translate(-7.5 -11.999)"/><path class="cls-8" d="M459.925,435.947v-1.436h1.552v1.436h-1.552Zm0,6.662v-5.866h1.552v5.866h-1.552Z" transform="translate(-7.5 -11.999)"/><path class="cls-8" d="M462.443,442.609V441.4l2.2-2.524q0.541-.618.8-0.878c-0.181.011-.418,0.019-0.713,0.021l-2.071.012v-1.287h4.85v1.1l-2.242,2.586-0.79.855c0.431-.025.7-0.038,0.8-0.038h2.4v1.364h-5.237Z" transform="translate(-7.5 -11.999)"/><path class="cls-8" d="M472.121,440.742l1.547,0.26a2.536,2.536,0,0,1-.941,1.295,2.766,2.766,0,0,1-1.61.445,2.622,2.622,0,0,1-2.265-1,3.359,3.359,0,0,1-.58-2.021,3.239,3.239,0,0,1,.762-2.284,2.512,2.512,0,0,1,1.928-.826,2.605,2.605,0,0,1,2.066.864,3.823,3.823,0,0,1,.724,2.649h-3.889a1.569,1.569,0,0,0,.375,1.074,1.176,1.176,0,0,0,.9.384,0.95,0.95,0,0,0,.613-0.2A1.233,1.233,0,0,0,472.121,440.742Zm0.089-1.568a1.5,1.5,0,0,0-.349-1.025,1.068,1.068,0,0,0-.806-0.351,1.08,1.08,0,0,0-.84.37,1.434,1.434,0,0,0-.326,1.006h2.32Z" transform="translate(-7.5 -11.999)"/><path class="cls-8" d="M480.4,442.609h-1.441v-0.861a2.338,2.338,0,0,1-.849.748,2.17,2.17,0,0,1-.985.246,2.234,2.234,0,0,1-1.732-.815,3.314,3.314,0,0,1-.721-2.272,3.276,3.276,0,0,1,.7-2.268,2.285,2.285,0,0,1,1.772-.776,2.2,2.2,0,0,1,1.7.817v-2.916H480.4v8.1Zm-4.143-3.061a2.693,2.693,0,0,0,.259,1.359,1.174,1.174,0,0,0,1.05.607,1.145,1.145,0,0,0,.912-0.456,2.1,2.1,0,0,0,.375-1.361,2.3,2.3,0,0,0-.364-1.455,1.154,1.154,0,0,0-.934-0.445,1.168,1.168,0,0,0-.926.439A1.986,1.986,0,0,0,476.254,439.549Z" transform="translate(-7.5 -11.999)"/><path class="cls-8" d="M485.059,442.609v-8.1h2.447l1.47,5.523,1.452-5.523h2.453v8.1h-1.52v-6.375l-1.607,6.375H488.18l-1.6-6.375v6.375h-1.52Z" transform="translate(-7.5 -11.999)"/><path class="cls-8" d="M495.653,438.532l-1.408-.254a2.193,2.193,0,0,1,.817-1.259,2.992,2.992,0,0,1,1.724-.409,3.711,3.711,0,0,1,1.547.246,1.541,1.541,0,0,1,.715.624,3.191,3.191,0,0,1,.207,1.39l-0.017,1.812a6.269,6.269,0,0,0,.075,1.141,3.317,3.317,0,0,0,.279.787h-1.536c-0.041-.1-0.09-0.256-0.149-0.458-0.025-.093-0.044-0.153-0.055-0.183a2.806,2.806,0,0,1-.851.58,2.442,2.442,0,0,1-.967.193,2,2,0,0,1-1.429-.492,1.634,1.634,0,0,1-.521-1.242,1.669,1.669,0,0,1,.237-0.887,1.545,1.545,0,0,1,.666-0.6,5.179,5.179,0,0,1,1.234-.362,8.37,8.37,0,0,0,1.508-.381v-0.154a0.8,0.8,0,0,0-.221-0.639,1.326,1.326,0,0,0-.834-0.19,1.112,1.112,0,0,0-.646.163A1.133,1.133,0,0,0,495.653,438.532Zm2.077,1.26a9.562,9.562,0,0,1-.944.237,2.836,2.836,0,0,0-.845.271,0.646,0.646,0,0,0-.3.547,0.763,0.763,0,0,0,.243.563,0.849,0.849,0,0,0,.619.237,1.342,1.342,0,0,0,.8-0.276,0.973,0.973,0,0,0,.37-0.514,3.094,3.094,0,0,0,.061-0.757v-0.31Z" transform="translate(-7.5 -11.999)"/><path class="cls-8" d="M502.271,442.609H500.72v-5.866h1.441v0.834a2.514,2.514,0,0,1,.666-0.779,1.222,1.222,0,0,1,.671-0.187,1.966,1.966,0,0,1,1.021.293l-0.48,1.354a1.358,1.358,0,0,0-.729-0.255,0.864,0.864,0,0,0-.553.18,1.228,1.228,0,0,0-.356.649,9.193,9.193,0,0,0-.13,1.967v1.812Z" transform="translate(-7.5 -11.999)"/><path class="cls-8" d="M505.133,442.609v-8.1h1.552v4.3l1.817-2.065h1.912l-2.006,2.143,2.149,3.724h-1.674l-1.476-2.635-0.724.757v1.878h-1.552Z" transform="translate(-7.5 -11.999)"/><path class="cls-8" d="M514.877,440.742l1.547,0.26a2.536,2.536,0,0,1-.941,1.295,2.766,2.766,0,0,1-1.61.445,2.622,2.622,0,0,1-2.265-1,3.359,3.359,0,0,1-.58-2.021,3.239,3.239,0,0,1,.762-2.284,2.512,2.512,0,0,1,1.928-.826,2.605,2.605,0,0,1,2.066.864,3.823,3.823,0,0,1,.724,2.649h-3.889a1.569,1.569,0,0,0,.375,1.074,1.176,1.176,0,0,0,.9.384,0.95,0.95,0,0,0,.613-0.2A1.233,1.233,0,0,0,514.877,440.742Zm0.089-1.568a1.5,1.5,0,0,0-.349-1.025,1.068,1.068,0,0,0-.806-0.351,1.08,1.08,0,0,0-.84.37,1.434,1.434,0,0,0-.326,1.006h2.32Z" transform="translate(-7.5 -11.999)"/><path class="cls-8" d="M520.462,436.743v1.237H519.4v2.364a6.016,6.016,0,0,0,.03.837,0.342,0.342,0,0,0,.139.2,0.441,0.441,0,0,0,.262.077,2.015,2.015,0,0,0,.625-0.149l0.132,1.2a3.072,3.072,0,0,1-1.226.232,1.947,1.947,0,0,1-.757-0.141,1.115,1.115,0,0,1-.5-0.365,1.44,1.44,0,0,1-.218-0.6,7.512,7.512,0,0,1-.05-1.094V437.98h-0.713v-1.237h0.713v-1.166l1.558-.905v2.071h1.061Z" transform="translate(-7.5 -11.999)"/><path class="cls-8" d="M436.043,456.186v-8.1h3.442a5.885,5.885,0,0,1,1.886.218,1.863,1.863,0,0,1,.942.776,2.334,2.334,0,0,1,.354,1.275,2.162,2.162,0,0,1-.536,1.506,2.573,2.573,0,0,1-1.6.748,3.8,3.8,0,0,1,.875.68,9.153,9.153,0,0,1,.931,1.314l0.989,1.58h-1.956l-1.182-1.762a11.22,11.22,0,0,0-.862-1.19,1.248,1.248,0,0,0-.491-0.337,2.665,2.665,0,0,0-.823-0.092h-0.331v3.381h-1.636Zm1.636-4.673h1.21a6.232,6.232,0,0,0,1.469-.1,0.882,0.882,0,0,0,.459-0.343,1.054,1.054,0,0,0,.165-0.607,0.972,0.972,0,0,0-.218-0.66,1,1,0,0,0-.616-0.317q-0.2-.028-1.193-0.028h-1.275v2.056Z" transform="translate(-7.5 -11.999)"/><path class="cls-8" d="M447.594,454.318l1.547,0.26a2.536,2.536,0,0,1-.941,1.295,2.766,2.766,0,0,1-1.61.445,2.622,2.622,0,0,1-2.265-1,3.359,3.359,0,0,1-.58-2.021,3.239,3.239,0,0,1,.762-2.284,2.512,2.512,0,0,1,1.928-.826,2.605,2.605,0,0,1,2.066.864,3.823,3.823,0,0,1,.724,2.649h-3.889a1.569,1.569,0,0,0,.375,1.074,1.176,1.176,0,0,0,.9.384,0.95,0.95,0,0,0,.613-0.2A1.233,1.233,0,0,0,447.594,454.318Zm0.089-1.568a1.5,1.5,0,0,0-.349-1.025,1.068,1.068,0,0,0-.806-0.351,1.08,1.08,0,0,0-.84.37,1.434,1.434,0,0,0-.326,1.006h2.32Z" transform="translate(-7.5 -11.999)"/><path class="cls-8" d="M453.179,450.319v1.237h-1.061v2.364a6.016,6.016,0,0,0,.03.837,0.342,0.342,0,0,0,.139.2,0.441,0.441,0,0,0,.262.077,2.015,2.015,0,0,0,.625-0.149l0.132,1.2a3.072,3.072,0,0,1-1.226.232,1.947,1.947,0,0,1-.757-0.141,1.115,1.115,0,0,1-.5-0.365,1.44,1.44,0,0,1-.218-0.6,7.512,7.512,0,0,1-.05-1.094v-2.558h-0.713v-1.237h0.713v-1.166l1.558-.905v2.071h1.061Z" transform="translate(-7.5 -11.999)"/><path class="cls-8" d="M458.117,456.186v-0.878a2.263,2.263,0,0,1-.842.74,2.374,2.374,0,0,1-1.1.271,2.16,2.16,0,0,1-1.061-.26,1.53,1.53,0,0,1-.679-0.729,3.237,3.237,0,0,1-.21-1.3v-3.712h1.552v2.7a7.428,7.428,0,0,0,.086,1.517,0.826,0.826,0,0,0,.312.441,0.956,0.956,0,0,0,.575.163,1.22,1.22,0,0,0,.712-0.218,1.116,1.116,0,0,0,.432-0.542,6.3,6.3,0,0,0,.115-1.582v-2.475h1.553v5.866h-1.442Z" transform="translate(-7.5 -11.999)"/><path class="cls-8" d="M462.652,456.186H461.1v-5.866h1.441v0.834a2.514,2.514,0,0,1,.666-0.779,1.222,1.222,0,0,1,.671-0.187,1.966,1.966,0,0,1,1.021.293l-0.48,1.354a1.358,1.358,0,0,0-.729-0.255,0.864,0.864,0,0,0-.553.18,1.228,1.228,0,0,0-.356.649,9.193,9.193,0,0,0-.13,1.967v1.812Z" transform="translate(-7.5 -11.999)"/><path class="cls-8" d="M470.905,456.186h-1.553v-2.994a4.615,4.615,0,0,0-.1-1.229,0.855,0.855,0,0,0-.322-0.434,0.923,0.923,0,0,0-.539-0.155,1.252,1.252,0,0,0-.724.221,1.113,1.113,0,0,0-.439.586,5.072,5.072,0,0,0-.118,1.348v2.657h-1.553v-5.866H467v0.861a2.405,2.405,0,0,1,2.872-.81,1.583,1.583,0,0,1,.644.473,1.7,1.7,0,0,1,.3.652,4.866,4.866,0,0,1,.086,1.044v3.646Z" transform="translate(-7.5 -11.999)"/><path class="cls-8" d="M391.593,320.428l1.012-.089a2.233,2.233,0,0,0,.334,1,1.822,1.822,0,0,0,.814.63,3.085,3.085,0,0,0,1.243.24,2.993,2.993,0,0,0,1.083-.182,1.51,1.51,0,0,0,.7-0.5,1.158,1.158,0,0,0,.229-0.693,1.058,1.058,0,0,0-.221-0.666,1.64,1.64,0,0,0-.729-0.478,14.239,14.239,0,0,0-1.441-.4,7.377,7.377,0,0,1-1.563-.5,2.206,2.206,0,0,1-.865-0.754,1.853,1.853,0,0,1-.284-1.009,2.055,2.055,0,0,1,.349-1.146,2.154,2.154,0,0,1,1.016-.81,3.853,3.853,0,0,1,1.486-.276,4.055,4.055,0,0,1,1.588.29,2.282,2.282,0,0,1,1.058.854,2.451,2.451,0,0,1,.4,1.276l-1.027.077a1.658,1.658,0,0,0-.562-1.16,2.18,2.18,0,0,0-1.411-.393,2.267,2.267,0,0,0-1.417.356,1.07,1.07,0,0,0-.444.859,0.919,0.919,0,0,0,.314.718,4.268,4.268,0,0,0,1.616.577,10.653,10.653,0,0,1,1.792.517,2.468,2.468,0,0,1,1.045.826,2.01,2.01,0,0,1,.337,1.151,2.207,2.207,0,0,1-.37,1.218,2.438,2.438,0,0,1-1.063.89,3.7,3.7,0,0,1-1.561.317,4.655,4.655,0,0,1-1.843-.32,2.569,2.569,0,0,1-1.165-.964A2.727,2.727,0,0,1,391.593,320.428Z" transform="translate(-7.5 -11.999)"/><path class="cls-8" d="M399.354,323.029v-8.1h0.994v8.1h-0.994Z" transform="translate(-7.5 -11.999)"/><path class="cls-8" d="M401.521,320.1a3.026,3.026,0,0,1,.905-2.414,2.736,2.736,0,0,1,1.846-.651,2.635,2.635,0,0,1,1.978.793,3.017,3.017,0,0,1,.768,2.19,3.879,3.879,0,0,1-.34,1.781,2.4,2.4,0,0,1-.988,1.008,2.884,2.884,0,0,1-1.417.359,2.64,2.64,0,0,1-1.992-.79A3.157,3.157,0,0,1,401.521,320.1Zm1.021,0a2.494,2.494,0,0,0,.492,1.688,1.636,1.636,0,0,0,2.469,0,2.557,2.557,0,0,0,.491-1.719,2.422,2.422,0,0,0-.494-1.648,1.639,1.639,0,0,0-2.466,0A2.486,2.486,0,0,0,402.542,320.1Z" transform="translate(-7.5 -11.999)"/><path class="cls-8" d="M408.183,325.277v-8.114h0.905v0.762a2.245,2.245,0,0,1,.724-0.671,1.988,1.988,0,0,1,.979-0.224,2.318,2.318,0,0,1,1.325.387,2.374,2.374,0,0,1,.867,1.091,3.982,3.982,0,0,1,.293,1.544,3.913,3.913,0,0,1-.323,1.621,2.438,2.438,0,0,1-.939,1.105,2.409,2.409,0,0,1-1.295.384,1.879,1.879,0,0,1-.893-0.21,2.023,2.023,0,0,1-.648-0.53v2.855h-0.994Zm0.9-5.148a2.551,2.551,0,0,0,.458,1.674,1.405,1.405,0,0,0,1.11.542,1.439,1.439,0,0,0,1.136-.562,2.66,2.66,0,0,0,.472-1.737,2.591,2.591,0,0,0-.461-1.679,1.388,1.388,0,0,0-1.1-.558,1.431,1.431,0,0,0-1.124.594A2.658,2.658,0,0,0,409.083,320.129Z" transform="translate(-7.5 -11.999)"/><path class="cls-8" d="M418.49,321.14l1.027,0.128a2.51,2.51,0,0,1-.9,1.4,3.051,3.051,0,0,1-3.721-.3,3.1,3.1,0,0,1-.754-2.224,3.24,3.24,0,0,1,.763-2.3,2.579,2.579,0,0,1,1.978-.817,2.506,2.506,0,0,1,1.922.8,3.183,3.183,0,0,1,.746,2.254c0,0.059,0,.147-0.006.266H415.17a2.26,2.26,0,0,0,.547,1.48,1.632,1.632,0,0,0,1.227.514,1.517,1.517,0,0,0,.934-0.288A1.908,1.908,0,0,0,418.49,321.14Zm-3.265-1.607H418.5a1.989,1.989,0,0,0-.375-1.11,1.526,1.526,0,0,0-1.232-.574,1.579,1.579,0,0,0-1.151.459A1.812,1.812,0,0,0,415.226,319.532Z" transform="translate(-7.5 -11.999)"/><path class="cls-8" d="M429.141,318.268h-5.347V317.34h5.347v0.928Zm0,2.458h-5.347V319.8h5.347v0.928Z" transform="translate(-7.5 -11.999)"/><path class="cls-8" d="M433.742,323.029v-8.1h3.039a3.758,3.758,0,0,1,1.488.245,1.908,1.908,0,0,1,.878.757,2,2,0,0,1,.318,1.069,1.84,1.84,0,0,1-.282.978,2.01,2.01,0,0,1-.851.74,2.117,2.117,0,0,1,1.13.734,1.972,1.972,0,0,1,.395,1.227,2.367,2.367,0,0,1-.24,1.058,2.048,2.048,0,0,1-.594.754,2.469,2.469,0,0,1-.887.4,5.363,5.363,0,0,1-1.307.136h-3.088Zm1.072-4.7h1.751a3.911,3.911,0,0,0,1.021-.094,1.137,1.137,0,0,0,.616-0.4,1.158,1.158,0,0,0,.207-0.707,1.3,1.3,0,0,0-.193-0.71,0.978,0.978,0,0,0-.552-0.42,4.634,4.634,0,0,0-1.232-.113h-1.618v2.447Zm0,3.739h2.016a4.709,4.709,0,0,0,.729-0.038,1.756,1.756,0,0,0,.619-0.221,1.183,1.183,0,0,0,.408-0.45,1.4,1.4,0,0,0,.16-0.683,1.348,1.348,0,0,0-.231-0.787,1.23,1.23,0,0,0-.644-0.47,4.011,4.011,0,0,0-1.186-.135h-1.872v2.783Z" transform="translate(-7.5 -11.999)"/><path class="cls-8" d="M445.222,321.14l1.027,0.128a2.51,2.51,0,0,1-.9,1.4,3.051,3.051,0,0,1-3.721-.3,3.1,3.1,0,0,1-.754-2.224,3.24,3.24,0,0,1,.763-2.3,2.579,2.579,0,0,1,1.978-.817,2.506,2.506,0,0,1,1.922.8,3.183,3.183,0,0,1,.746,2.254c0,0.059,0,.147-0.006.266H441.9a2.26,2.26,0,0,0,.547,1.48,1.632,1.632,0,0,0,1.227.514,1.517,1.517,0,0,0,.934-0.288A1.908,1.908,0,0,0,445.222,321.14Zm-3.265-1.607h3.275a1.989,1.989,0,0,0-.375-1.11,1.526,1.526,0,0,0-1.232-.574,1.579,1.579,0,0,0-1.151.459A1.812,1.812,0,0,0,441.957,319.532Z" transform="translate(-7.5 -11.999)"/><path class="cls-8" d="M449.669,322.14l0.144,0.879a3.712,3.712,0,0,1-.752.088,1.7,1.7,0,0,1-.839-0.171,0.96,0.96,0,0,1-.42-0.45,3.556,3.556,0,0,1-.122-1.174v-3.375h-0.729v-0.773h0.729V315.71l0.989-.6v2.05h1v0.773h-1v3.43a1.722,1.722,0,0,0,.053.547,0.409,0.409,0,0,0,.171.193,0.661,0.661,0,0,0,.34.072A3.157,3.157,0,0,0,449.669,322.14Z" transform="translate(-7.5 -11.999)"/><path class="cls-8" d="M454.47,322.306a3.717,3.717,0,0,1-1.063.663,3.073,3.073,0,0,1-1.1.193,2.132,2.132,0,0,1-1.486-.473,1.559,1.559,0,0,1-.519-1.207,1.6,1.6,0,0,1,.2-0.787,1.632,1.632,0,0,1,.514-0.571,2.407,2.407,0,0,1,.716-0.326,7.04,7.04,0,0,1,.884-0.149,9.076,9.076,0,0,0,1.773-.343c0-.136,0-0.223,0-0.259a1.1,1.1,0,0,0-.281-0.856,1.665,1.665,0,0,0-1.133-.337,1.752,1.752,0,0,0-1.035.246,1.5,1.5,0,0,0-.5.869l-0.972-.132a2.4,2.4,0,0,1,.437-1.009,1.915,1.915,0,0,1,.878-0.591,3.928,3.928,0,0,1,1.331-.207,3.523,3.523,0,0,1,1.222.177,1.614,1.614,0,0,1,.69.444,1.57,1.57,0,0,1,.309.677,5.6,5.6,0,0,1,.05.917v1.326a14.161,14.161,0,0,0,.063,1.754,2.207,2.207,0,0,0,.252.7h-1.039A2.115,2.115,0,0,1,454.47,322.306Zm-0.083-2.221a7.313,7.313,0,0,1-1.624.376,3.756,3.756,0,0,0-.867.2,0.866,0.866,0,0,0-.393.323,0.881,0.881,0,0,0,.163,1.136,1.294,1.294,0,0,0,.881.265,2.06,2.06,0,0,0,1.022-.251,1.555,1.555,0,0,0,.657-0.687,2.411,2.411,0,0,0,.16-1v-0.364Z" transform="translate(-7.5 -11.999)"/><path class="cls-8" d="M465.308,318.268h-5.347V317.34h5.347v0.928Zm0,2.458h-5.347V319.8h5.347v0.928Z" transform="translate(-7.5 -11.999)"/><path class="cls-8" d="M469.551,319.035a7.436,7.436,0,0,1,.295-2.312,2.874,2.874,0,0,1,.879-1.351,2.246,2.246,0,0,1,1.467-.475,2.4,2.4,0,0,1,1.144.262,2.194,2.194,0,0,1,.812.757,4.078,4.078,0,0,1,.5,1.2,8.031,8.031,0,0,1,.182,1.914,7.457,7.457,0,0,1-.292,2.3,2.875,2.875,0,0,1-.876,1.354,2.246,2.246,0,0,1-1.472.478,2.222,2.222,0,0,1-1.84-.839A5.336,5.336,0,0,1,469.551,319.035Zm1.021,0a5.081,5.081,0,0,0,.467,2.654,1.333,1.333,0,0,0,2.3,0,7.777,7.777,0,0,0,0-5.308,1.387,1.387,0,0,0-1.163-.658,1.275,1.275,0,0,0-1.094.58A5.145,5.145,0,0,0,470.572,319.035Z" transform="translate(-7.5 -11.999)"/><path class="cls-8" d="M476.4,323.029V321.9h1.133v1.133H476.4Z" transform="translate(-7.5 -11.999)"/><path class="cls-8" d="M478.986,320.908l1.044-.089a1.872,1.872,0,0,0,.538,1.146,1.465,1.465,0,0,0,1.02.384,1.584,1.584,0,0,0,1.215-.541,2.039,2.039,0,0,0,.5-1.437,1.844,1.844,0,0,0-.479-1.342,1.664,1.664,0,0,0-1.251-.492,1.734,1.734,0,0,0-.867.219,1.688,1.688,0,0,0-.607.565l-0.934-.121,0.784-4.159h4.027v0.95h-3.231l-0.437,2.176a2.633,2.633,0,0,1,1.53-.508,2.423,2.423,0,0,1,1.789.734,2.569,2.569,0,0,1,.729,1.89,2.953,2.953,0,0,1-.641,1.9,2.568,2.568,0,0,1-2.127.982,2.622,2.622,0,0,1-1.8-.618A2.413,2.413,0,0,1,478.986,320.908Z" transform="translate(-7.5 -11.999)"/><path class="cls-8" d="M484.809,323.167l2.348-8.374h0.8l-2.343,8.374h-0.8Z" transform="translate(-7.5 -11.999)"/><path class="cls-8" d="M492.167,323.029h-0.994v-6.336a5.09,5.09,0,0,1-.942.685,6.579,6.579,0,0,1-1.047.514v-0.961a6,6,0,0,0,1.459-.95,3.755,3.755,0,0,0,.884-1.082h0.641v8.131Z" transform="translate(-7.5 -11.999)"/><path class="cls-8" d="M495.271,323.029V321.9H496.4v1.133h-1.133Z" transform="translate(-7.5 -11.999)"/><path class="cls-8" d="M497.857,319.035a7.436,7.436,0,0,1,.295-2.312,2.874,2.874,0,0,1,.879-1.351,2.246,2.246,0,0,1,1.467-.475,2.4,2.4,0,0,1,1.144.262,2.194,2.194,0,0,1,.812.757,4.078,4.078,0,0,1,.5,1.2,8.031,8.031,0,0,1,.182,1.914,7.457,7.457,0,0,1-.292,2.3,2.875,2.875,0,0,1-.876,1.354,2.246,2.246,0,0,1-1.472.478,2.222,2.222,0,0,1-1.84-.839A5.336,5.336,0,0,1,497.857,319.035Zm1.021,0a5.081,5.081,0,0,0,.467,2.654,1.333,1.333,0,0,0,2.3,0,7.777,7.777,0,0,0,0-5.308,1.387,1.387,0,0,0-1.163-.658,1.275,1.275,0,0,0-1.094.58A5.145,5.145,0,0,0,498.879,319.035Z" transform="translate(-7.5 -11.999)"/><path class="cls-8" d="M512.8,318.268h-5.347V317.34H512.8v0.928Zm0,2.458h-5.347V319.8H512.8v0.928Z" transform="translate(-7.5 -11.999)"/><path class="cls-8" d="M517.043,319.035a7.436,7.436,0,0,1,.295-2.312,2.874,2.874,0,0,1,.879-1.351,2.246,2.246,0,0,1,1.467-.475,2.4,2.4,0,0,1,1.144.262,2.194,2.194,0,0,1,.812.757,4.078,4.078,0,0,1,.5,1.2,8.031,8.031,0,0,1,.182,1.914,7.457,7.457,0,0,1-.292,2.3,2.875,2.875,0,0,1-.876,1.354,2.246,2.246,0,0,1-1.472.478,2.222,2.222,0,0,1-1.84-.839A5.336,5.336,0,0,1,517.043,319.035Zm1.021,0a5.081,5.081,0,0,0,.467,2.654,1.333,1.333,0,0,0,2.3,0,7.777,7.777,0,0,0,0-5.308,1.387,1.387,0,0,0-1.163-.658,1.275,1.275,0,0,0-1.094.58A5.145,5.145,0,0,0,518.064,319.035Z" transform="translate(-7.5 -11.999)"/><path class="cls-8" d="M523.893,323.029V321.9h1.133v1.133h-1.133Z" transform="translate(-7.5 -11.999)"/><path class="cls-8" d="M526.479,320.908l1.044-.089a1.872,1.872,0,0,0,.538,1.146,1.465,1.465,0,0,0,1.02.384,1.584,1.584,0,0,0,1.215-.541,2.039,2.039,0,0,0,.5-1.437,1.844,1.844,0,0,0-.479-1.342,1.664,1.664,0,0,0-1.251-.492,1.734,1.734,0,0,0-.867.219,1.688,1.688,0,0,0-.607.565l-0.934-.121,0.784-4.159h4.027v0.95h-3.231l-0.437,2.176a2.633,2.633,0,0,1,1.53-.508,2.423,2.423,0,0,1,1.789.734,2.569,2.569,0,0,1,.729,1.89,2.953,2.953,0,0,1-.641,1.9,2.568,2.568,0,0,1-2.127.982,2.622,2.622,0,0,1-1.8-.618A2.413,2.413,0,0,1,526.479,320.908Z" transform="translate(-7.5 -11.999)"/><path class="cls-9" d="M61.649,378.056v-2H58.234V375.4l3.279-4.692h1.074v4.568h1.029v0.78H62.588v2H61.649Zm0-2.781V372.82q0-.576.034-1.153H61.649c-0.227.43-.407,0.747-0.611,1.086l-1.8,2.5v0.022h2.409Z" transform="translate(-7.5 -11.999)"/><path class="cls-9" d="M67.69,372.775c0,1.549-.814,2.318-1.764,2.318-0.916,0-1.707-.735-1.718-2.217s0.8-2.295,1.775-2.295C67.011,370.582,67.69,371.373,67.69,372.775ZM65,372.843c-0.023.938,0.328,1.651,0.95,1.651,0.656,0,.95-0.7.95-1.674,0-.893-0.26-1.639-0.95-1.639C65.327,371.182,65,371.916,65,372.843Zm0.859,5.337,4.319-7.6h0.633l-4.319,7.6H65.858Zm6.614-2.362c0,1.549-.814,2.317-1.752,2.317-0.916,0-1.708-.735-1.719-2.205s0.8-2.307,1.775-2.307C71.806,373.623,72.473,374.415,72.473,375.817Zm-2.691.067c-0.011.938,0.351,1.65,0.961,1.65,0.656,0,.95-0.7.95-1.673,0-.894-0.26-1.64-0.95-1.64C70.121,374.223,69.782,374.958,69.782,375.885Z" transform="translate(-7.5 -11.999)"/><path class="cls-9" d="M180.9,440.677a2.1,2.1,0,0,1,1.458-1.968l-0.011-.034a1.82,1.82,0,0,1-1.165-1.65,2.058,2.058,0,0,1,2.272-1.956,1.9,1.9,0,0,1,2.137,1.809,1.867,1.867,0,0,1-1.21,1.719v0.034a2.036,2.036,0,0,1,1.481,1.9,2.263,2.263,0,0,1-2.5,2.137C181.824,442.666,180.9,441.751,180.9,440.677Zm3.957-.046c0-.893-0.622-1.322-1.617-1.605a1.6,1.6,0,0,0-1.323,1.516,1.358,1.358,0,0,0,1.47,1.4A1.329,1.329,0,0,0,184.854,440.631Zm-2.736-3.675a1.5,1.5,0,0,0,1.4,1.357,1.448,1.448,0,0,0,1.119-1.334,1.142,1.142,0,0,0-1.244-1.2A1.169,1.169,0,0,0,182.118,436.956Z" transform="translate(-7.5 -11.999)"/><path class="cls-9" d="M190.1,437.262c0,1.549-.814,2.318-1.764,2.318-0.916,0-1.707-.735-1.718-2.217s0.8-2.295,1.775-2.295C189.424,435.068,190.1,435.859,190.1,437.262Zm-2.691.067c-0.023.938,0.328,1.651,0.95,1.651,0.656,0,.95-0.7.95-1.674,0-.893-0.26-1.639-0.95-1.639C187.74,435.668,187.412,436.4,187.412,437.329Zm0.859,5.337,4.319-7.6h0.633l-4.319,7.6h-0.633Zm6.614-2.362c0,1.549-.814,2.317-1.752,2.317-0.916,0-1.708-.735-1.719-2.205s0.8-2.307,1.775-2.307C194.219,438.109,194.886,438.9,194.886,440.3Zm-2.691.067c-0.011.938,0.351,1.65,0.961,1.65,0.656,0,.95-0.7.95-1.673,0-.894-0.26-1.64-0.95-1.64C192.534,438.709,192.195,439.444,192.195,440.371Z" transform="translate(-7.5 -11.999)"/><rect class="cls-1" x="0.5" y="0.5" width="566" height="555.93"/></svg>