<svg id="Layer_1" data-name="Layer 1" xmlns="http://www.w3.org/2000/svg" viewBox="0 0 549 539.25"><defs><style>.cls-1,.cls-2,.cls-3,.cls-4,.cls-5{fill:none;stroke-miterlimit:10;}.cls-1,.cls-3,.cls-4{stroke:#231f20;}.cls-2{stroke:#ed1c24;}.cls-3{stroke-dasharray:13.17 13.17;}.cls-4{stroke-dasharray:13.07 13.07;}.cls-5{stroke:#127d3e;}.cls-6{fill:#3a53a4;}.cls-10,.cls-7,.cls-8,.cls-9{font-size:10.95px;}.cls-7{fill:#127d3e;}.cls-7,.cls-8,.cls-9{font-family:Arial;}.cls-8,.cls-9{fill:#231f20;}.cls-8{font-weight:700;}.cls-10{fill:#3b56a6;font-family:Myriad Pro;}</style></defs><title>Performance_Analytics_Relative_Returns_Analysis_EX01</title><line class="cls-1" x1="81.66" y1="57.01" x2="81.66" y2="490.75"/><line class="cls-1" x1="81.66" y1="408.45" x2="457.38" y2="408.45"/><line class="cls-2" x1="81.66" y1="408.45" x2="361.22" y2="128.89"/><line class="cls-1" x1="81.66" y1="304.94" x2="87.66" y2="304.94"/><line class="cls-3" x1="100.82" y1="304.94" x2="173.23" y2="304.94"/><line class="cls-1" x1="179.81" y1="304.94" x2="185.81" y2="304.94"/><line class="cls-1" x1="185.81" y1="304.94" x2="185.81" y2="310.94"/><line class="cls-4" x1="185.81" y1="324.01" x2="185.81" y2="395.92"/><line class="cls-1" x1="185.81" y1="402.45" x2="185.81" y2="408.45"/><line class="cls-5" x1="357.7" y1="141.99" x2="357.7" y2="194.39"/><line class="cls-5" x1="355.88" y1="201.42" x2="298.28" y2="201.42"/><circle class="cls-6" cx="184.81" cy="304.94" r="2.24"/><text class="cls-7" transform="translate(317.46 214.77)">1.0</text><text class="cls-7" transform="translate(361.22 172.65)">1.0</text><text class="cls-8" transform="translate(39.99 50.36)">Realized Portfolio<tspan x="0" y="13.14">Return</tspan></text><text class="cls-8" transform="translate(424.75 420.58)">Realized Market<tspan x="0" y="13.14">Return</tspan></text><text class="cls-9" transform="translate(361.22 203.32)">Slope = Beta = 1.0/1.0 = 1.0</text><text class="cls-10" transform="translate(62.86 307.88)">8%</text><text class="cls-10" transform="translate(178.11 420.52)">8%</text><rect class="cls-1" x="0.5" y="0.5" width="548" height="538.25"/></svg>