<svg id="Layer_1" data-name="Layer 1" xmlns="http://www.w3.org/2000/svg" viewBox="0 0 526.93 513.9"><defs><style>.cls-1,.cls-12,.cls-2,.cls-3,.cls-4,.cls-5{fill:none;stroke-miterlimit:10;}.cls-1,.cls-3,.cls-4{stroke:#231f20;}.cls-2{stroke:#ed1c24;}.cls-3{stroke-dasharray:12.38 12.38;}.cls-4{stroke-dasharray:11.67 11.67;}.cls-5{stroke:#127d3e;}.cls-6{fill:#3a53a4;}.cls-10,.cls-11,.cls-7,.cls-8,.cls-9{font-size:10.37px;}.cls-7{fill:#127d3e;}.cls-11,.cls-13,.cls-7,.cls-8,.cls-9{font-family:Arial;}.cls-13,.cls-8,.cls-9{fill:#231f20;}.cls-11,.cls-8{font-weight:700;}.cls-10{fill:#3b56a6;font-family:Myriad Pro;}.cls-11{fill:#127e3f;}.cls-12{stroke:#127e3f;stroke-width:2px;}.cls-13{font-size:12.1px;}</style></defs><title>Performance_Analytics_Relative_Returns_Analysis_EX03</title><line class="cls-1" x1="99.74" y1="35" x2="99.74" y2="445.76"/><line class="cls-1" x1="99.74" y1="367.82" x2="455.56" y2="367.82"/><line class="cls-2" x1="99.74" y1="337.8" x2="385.52" y2="223.22"/><line class="cls-1" x1="99.74" y1="298.32" x2="105.74" y2="298.32"/><line class="cls-3" x1="118.12" y1="298.32" x2="186.19" y2="298.32"/><line class="cls-1" x1="192.38" y1="298.32" x2="198.38" y2="298.32"/><line class="cls-1" x1="198.38" y1="297.45" x2="198.38" y2="303.45"/><line class="cls-4" x1="198.38" y1="315.13" x2="198.38" y2="355.99"/><line class="cls-1" x1="198.38" y1="361.82" x2="198.38" y2="367.82"/><line class="cls-5" x1="379.32" y1="229.74" x2="379.32" y2="262.62"/><line class="cls-5" x1="377.59" y1="263.54" x2="301.03" y2="263.54"/><circle class="cls-6" cx="198.38" cy="298.32" r="2.12"/><text class="cls-7" transform="translate(330.83 275.33)">1.0</text><text class="cls-7" transform="translate(382.65 250.13)">0.5</text><text class="cls-8" transform="translate(60.28 28.7)">Realized Portfolio<tspan x="0" y="12.45">Return</tspan></text><text class="cls-8" transform="translate(424.65 379.31)">Realized Market<tspan x="0" y="12.45">Return</tspan></text><text class="cls-9" transform="translate(384.19 269.67)">Slope = Beta = 0.5/1.0 = 0.5</text><text class="cls-10" transform="translate(81.94 301.11)">7%</text><text class="cls-10" transform="translate(191.08 379.25)">8%</text><text class="cls-11" transform="translate(8.75 355.12)">α =<tspan x="15.32" y="0"> </tspan><tspan x="17.81" y="0">Alpha = 3%</tspan></text><line class="cls-12" x1="99.74" y1="337.8" x2="84.6" y2="352.94"/><line class="cls-12" x1="84.6" y1="352.08" x2="99.65" y2="367.13"/><text class="cls-13" transform="translate(41.76 474.76)">Thus alpha depicts “excess returns.” Generally speaking, portfolio managers are <tspan x="0" y="14.52">constantly seeking to generate alpha.</tspan></text><rect class="cls-1" x="0.5" y="0.5" width="518.97" height="509.74"/></svg>