<svg id="Layer_1" data-name="Layer 1" xmlns="http://www.w3.org/2000/svg" viewBox="0 0 408.82 277.859"><defs><style>.cls-1,.cls-3{fill:#fff;}.cls-1{stroke:#28538c;}.cls-1,.cls-7{stroke-miterlimit:10;}.cls-2{fill:#28538c;}.cls-4{fill:#231f20;}.cls-5{fill:#28548c;}.cls-6{fill:#939393;}.cls-7{fill:none;stroke:#939393;}</style></defs><title>Tactical_Asset_Allocation</title><rect class="cls-1" x="23.39" y="0.5" width="152.55" height="127.61"/><rect class="cls-2" x="23.39" y="0.5" width="152.55" height="45.897"/><path class="cls-3" d="M44.528,27.209V14.324h5.713a7.6,7.6,0,0,1,2.619.347A2.864,2.864,0,0,1,54.293,15.9a3.658,3.658,0,0,1,.536,1.942,3.24,3.24,0,0,1-.888,2.312,4.492,4.492,0,0,1-2.742,1.2,4.422,4.422,0,0,1,1.028.642A8.86,8.86,0,0,1,53.643,23.7l2.241,3.507H53.739l-1.705-2.681q-0.747-1.16-1.23-1.775a3.869,3.869,0,0,0-.866-0.861,2.559,2.559,0,0,0-.778-0.343,5.122,5.122,0,0,0-.949-0.062H46.233v5.722H44.528Zm1.705-7.2H49.9a5.5,5.5,0,0,0,1.828-.242,1.945,1.945,0,0,0,1-.773,2.092,2.092,0,0,0,.343-1.156,1.92,1.92,0,0,0-.664-1.5,3.1,3.1,0,0,0-2.1-.589H46.233v4.263Z" transform="translate(-11.138 -8.236)"/><path class="cls-3" d="M63.688,24.2l1.635,0.2a3.989,3.989,0,0,1-1.433,2.224,4.853,4.853,0,0,1-5.919-.47,4.928,4.928,0,0,1-1.2-3.538,5.158,5.158,0,0,1,1.213-3.656,4.106,4.106,0,0,1,3.146-1.3,3.99,3.99,0,0,1,3.059,1.274,5.064,5.064,0,0,1,1.187,3.586q0,0.141-.009.422H58.406a3.587,3.587,0,0,0,.87,2.355,2.59,2.59,0,0,0,1.951.817,2.421,2.421,0,0,0,1.485-.457A3.034,3.034,0,0,0,63.688,24.2Zm-5.194-2.558h5.212a3.162,3.162,0,0,0-.6-1.767,2.425,2.425,0,0,0-1.96-.914,2.513,2.513,0,0,0-1.833.729A2.887,2.887,0,0,0,58.494,21.645Z" transform="translate(-11.138 -8.236)"/><path class="cls-3" d="M67.274,27.209V14.324h1.582V27.209H67.274Z" transform="translate(-11.138 -8.236)"/><path class="cls-3" d="M77.4,26.058a5.891,5.891,0,0,1-1.692,1.055,4.889,4.889,0,0,1-1.745.308,3.393,3.393,0,0,1-2.364-.751,2.48,2.48,0,0,1-.826-1.92,2.554,2.554,0,0,1,.312-1.252,2.583,2.583,0,0,1,.817-0.91,3.844,3.844,0,0,1,1.138-.519,11.3,11.3,0,0,1,1.406-.237,14.46,14.46,0,0,0,2.821-.545q0.009-.325.009-0.413a1.747,1.747,0,0,0-.448-1.362,2.648,2.648,0,0,0-1.8-.536,2.794,2.794,0,0,0-1.648.391,2.39,2.39,0,0,0-.787,1.384l-1.547-.211a3.833,3.833,0,0,1,.694-1.6,3.043,3.043,0,0,1,1.4-.94,6.233,6.233,0,0,1,2.118-.33,5.606,5.606,0,0,1,1.942.281,2.559,2.559,0,0,1,1.1.708,2.488,2.488,0,0,1,.492,1.077,8.908,8.908,0,0,1,.079,1.459V23.3a22.389,22.389,0,0,0,.1,2.791,3.521,3.521,0,0,0,.4,1.121H77.716A3.354,3.354,0,0,1,77.4,26.058Zm-0.132-3.533a11.607,11.607,0,0,1-2.584.6,5.977,5.977,0,0,0-1.38.316,1.376,1.376,0,0,0-.624.514,1.4,1.4,0,0,0,.259,1.806,2.061,2.061,0,0,0,1.4.422,3.263,3.263,0,0,0,1.626-.4,2.463,2.463,0,0,0,1.046-1.094,3.822,3.822,0,0,0,.255-1.582v-0.58Z" transform="translate(-11.138 -8.236)"/><path class="cls-3" d="M84.773,25.794L85,27.191a5.868,5.868,0,0,1-1.2.141,2.706,2.706,0,0,1-1.336-.272,1.526,1.526,0,0,1-.668-0.716,5.664,5.664,0,0,1-.193-1.868v-5.37h-1.16v-1.23h1.16V15.563l1.573-.949v3.261h1.591v1.23H83.183v5.458a2.757,2.757,0,0,0,.083.87,0.659,0.659,0,0,0,.272.308,1.052,1.052,0,0,0,.541.114A5.146,5.146,0,0,0,84.773,25.794Z" transform="translate(-11.138 -8.236)"/><path class="cls-3" d="M86.329,16.143V14.324h1.582v1.819H86.329Zm0,11.065V17.875h1.582v9.334H86.329Z" transform="translate(-11.138 -8.236)"/><path class="cls-3" d="M92.912,27.209l-3.551-9.334h1.67l2,5.59q0.325,0.905.6,1.881,0.211-.738.589-1.775l2.074-5.7h1.626l-3.533,9.334H92.912Z" transform="translate(-11.138 -8.236)"/><path class="cls-3" d="M105.709,24.2l1.635,0.2a3.989,3.989,0,0,1-1.433,2.224,4.853,4.853,0,0,1-5.919-.47,4.928,4.928,0,0,1-1.2-3.538A5.158,5.158,0,0,1,100,18.965a4.106,4.106,0,0,1,3.146-1.3,3.99,3.99,0,0,1,3.059,1.274,5.064,5.064,0,0,1,1.187,3.586q0,0.141-.009.422h-6.961a3.587,3.587,0,0,0,.87,2.355,2.59,2.59,0,0,0,1.951.817,2.421,2.421,0,0,0,1.485-.457A3.034,3.034,0,0,0,105.709,24.2Zm-5.194-2.558h5.212a3.162,3.162,0,0,0-.6-1.767,2.425,2.425,0,0,0-1.96-.914,2.513,2.513,0,0,0-1.833.729A2.887,2.887,0,0,0,100.515,21.645Z" transform="translate(-11.138 -8.236)"/><path class="cls-3" d="M114.48,27.209V14.324h2.566l3.05,9.123q0.422,1.274.615,1.907,0.22-.7.686-2.065l3.085-8.965h2.294V27.209h-1.644V16.425l-3.744,10.784h-1.538L116.124,16.24V27.209H114.48Z" transform="translate(-11.138 -8.236)"/><path class="cls-3" d="M135.416,26.058a5.891,5.891,0,0,1-1.692,1.055,4.889,4.889,0,0,1-1.745.308,3.393,3.393,0,0,1-2.364-.751,2.48,2.48,0,0,1-.826-1.92A2.554,2.554,0,0,1,129.1,23.5a2.583,2.583,0,0,1,.817-0.91,3.844,3.844,0,0,1,1.138-.519,11.3,11.3,0,0,1,1.406-.237,14.46,14.46,0,0,0,2.821-.545q0.009-.325.009-0.413a1.747,1.747,0,0,0-.448-1.362,2.648,2.648,0,0,0-1.8-.536,2.794,2.794,0,0,0-1.648.391,2.39,2.39,0,0,0-.787,1.384l-1.547-.211a3.833,3.833,0,0,1,.694-1.6,3.043,3.043,0,0,1,1.4-.94,6.233,6.233,0,0,1,2.118-.33,5.606,5.606,0,0,1,1.942.281,2.559,2.559,0,0,1,1.1.708,2.488,2.488,0,0,1,.492,1.077,8.908,8.908,0,0,1,.079,1.459V23.3a22.389,22.389,0,0,0,.1,2.791,3.521,3.521,0,0,0,.4,1.121h-1.652A3.354,3.354,0,0,1,135.416,26.058Zm-0.132-3.533a11.607,11.607,0,0,1-2.584.6,5.977,5.977,0,0,0-1.38.316,1.376,1.376,0,0,0-.624.514,1.4,1.4,0,0,0,.259,1.806,2.061,2.061,0,0,0,1.4.422,3.263,3.263,0,0,0,1.626-.4,2.463,2.463,0,0,0,1.046-1.094,3.822,3.822,0,0,0,.255-1.582v-0.58Z" transform="translate(-11.138 -8.236)"/><path class="cls-3" d="M139.318,27.209V17.875h1.424V19.29a3.861,3.861,0,0,1,1.006-1.31,1.757,1.757,0,0,1,1.015-.316,3.086,3.086,0,0,1,1.626.51l-0.545,1.468a2.264,2.264,0,0,0-1.16-.343,1.507,1.507,0,0,0-.932.312,1.69,1.69,0,0,0-.589.866,6.162,6.162,0,0,0-.264,1.846v4.887h-1.582Z" transform="translate(-11.138 -8.236)"/><path class="cls-3" d="M145.339,27.209V14.324h1.582v7.348l3.744-3.8h2.048l-3.568,3.463,3.929,5.871h-1.951l-3.085-4.772-1.116,1.072v3.7h-1.582Z" transform="translate(-11.138 -8.236)"/><path class="cls-3" d="M160.72,24.2l1.635,0.2a3.989,3.989,0,0,1-1.433,2.224,4.853,4.853,0,0,1-5.919-.47,4.928,4.928,0,0,1-1.2-3.538,5.158,5.158,0,0,1,1.213-3.656,4.106,4.106,0,0,1,3.146-1.3,3.99,3.99,0,0,1,3.059,1.274,5.064,5.064,0,0,1,1.187,3.586q0,0.141-.009.422h-6.961a3.587,3.587,0,0,0,.87,2.355,2.59,2.59,0,0,0,1.951.817,2.421,2.421,0,0,0,1.485-.457A3.034,3.034,0,0,0,160.72,24.2Zm-5.194-2.558h5.212a3.162,3.162,0,0,0-.6-1.767,2.425,2.425,0,0,0-1.96-.914,2.513,2.513,0,0,0-1.833.729A2.887,2.887,0,0,0,155.525,21.645Z" transform="translate(-11.138 -8.236)"/><path class="cls-3" d="M167.795,25.794l0.229,1.4a5.868,5.868,0,0,1-1.2.141,2.706,2.706,0,0,1-1.336-.272,1.526,1.526,0,0,1-.668-0.716,5.664,5.664,0,0,1-.193-1.868v-5.37h-1.16v-1.23h1.16V15.563l1.573-.949v3.261h1.591v1.23H166.2v5.458a2.757,2.757,0,0,0,.083.87,0.659,0.659,0,0,0,.272.308,1.052,1.052,0,0,0,.541.114A5.146,5.146,0,0,0,167.795,25.794Z" transform="translate(-11.138 -8.236)"/><path class="cls-3" d="M48.184,48.809L43.192,35.924h1.846l3.349,9.36q0.4,1.125.677,2.109,0.3-1.055.694-2.109l3.48-9.36h1.74L49.934,48.809H48.184Z" transform="translate(-11.138 -8.236)"/><path class="cls-3" d="M61.06,47.658a5.891,5.891,0,0,1-1.692,1.055,4.889,4.889,0,0,1-1.745.308,3.393,3.393,0,0,1-2.364-.751,2.48,2.48,0,0,1-.826-1.92,2.554,2.554,0,0,1,.312-1.252,2.583,2.583,0,0,1,.817-0.91,3.844,3.844,0,0,1,1.138-.519,11.3,11.3,0,0,1,1.406-.237,14.46,14.46,0,0,0,2.821-.545q0.009-.325.009-0.413a1.747,1.747,0,0,0-.448-1.362,2.648,2.648,0,0,0-1.8-.536,2.794,2.794,0,0,0-1.648.391,2.39,2.39,0,0,0-.787,1.384l-1.547-.211a3.833,3.833,0,0,1,.694-1.6,3.043,3.043,0,0,1,1.4-.94,6.233,6.233,0,0,1,2.118-.33,5.606,5.606,0,0,1,1.942.281,2.559,2.559,0,0,1,1.1.708,2.488,2.488,0,0,1,.492,1.077,8.908,8.908,0,0,1,.079,1.459V44.9a22.389,22.389,0,0,0,.1,2.791,3.521,3.521,0,0,0,.4,1.121H61.377A3.354,3.354,0,0,1,61.06,47.658Zm-0.132-3.533a11.607,11.607,0,0,1-2.584.6,5.977,5.977,0,0,0-1.38.316,1.376,1.376,0,0,0-.624.514,1.4,1.4,0,0,0,.259,1.806,2.061,2.061,0,0,0,1.4.422,3.263,3.263,0,0,0,1.626-.4,2.463,2.463,0,0,0,1.046-1.094,3.822,3.822,0,0,0,.255-1.582v-0.58Z" transform="translate(-11.138 -8.236)"/><path class="cls-3" d="M64.945,48.809V35.924h1.582V48.809H64.945Z" transform="translate(-11.138 -8.236)"/><path class="cls-3" d="M75.1,48.809V47.438a3.416,3.416,0,0,1-2.962,1.582,3.774,3.774,0,0,1-1.542-.316,2.541,2.541,0,0,1-1.063-.8,2.981,2.981,0,0,1-.488-1.173,8.033,8.033,0,0,1-.1-1.477V39.475h1.582v5.177a9.225,9.225,0,0,0,.1,1.67,1.65,1.65,0,0,0,.633.98,1.961,1.961,0,0,0,1.2.356,2.6,2.6,0,0,0,1.336-.365A2.028,2.028,0,0,0,74.67,46.3a4.984,4.984,0,0,0,.259-1.824v-5h1.582v9.334H75.1Z" transform="translate(-11.138 -8.236)"/><path class="cls-3" d="M85.081,47.658a5.891,5.891,0,0,1-1.692,1.055,4.889,4.889,0,0,1-1.745.308,3.393,3.393,0,0,1-2.364-.751,2.48,2.48,0,0,1-.826-1.92,2.554,2.554,0,0,1,.312-1.252,2.583,2.583,0,0,1,.817-0.91,3.844,3.844,0,0,1,1.138-.519,11.3,11.3,0,0,1,1.406-.237,14.46,14.46,0,0,0,2.821-.545q0.009-.325.009-0.413a1.747,1.747,0,0,0-.448-1.362,2.648,2.648,0,0,0-1.8-.536,2.794,2.794,0,0,0-1.648.391,2.39,2.39,0,0,0-.787,1.384l-1.547-.211a3.833,3.833,0,0,1,.694-1.6,3.043,3.043,0,0,1,1.4-.94,6.233,6.233,0,0,1,2.118-.33,5.606,5.606,0,0,1,1.942.281,2.559,2.559,0,0,1,1.1.708,2.488,2.488,0,0,1,.492,1.077,8.908,8.908,0,0,1,.079,1.459V44.9a22.389,22.389,0,0,0,.1,2.791,3.521,3.521,0,0,0,.4,1.121H85.4A3.354,3.354,0,0,1,85.081,47.658Zm-0.132-3.533a11.607,11.607,0,0,1-2.584.6,5.977,5.977,0,0,0-1.38.316,1.376,1.376,0,0,0-.624.514,1.4,1.4,0,0,0,.259,1.806,2.061,2.061,0,0,0,1.4.422,3.263,3.263,0,0,0,1.626-.4,2.463,2.463,0,0,0,1.046-1.094,3.822,3.822,0,0,0,.255-1.582v-0.58Z" transform="translate(-11.138 -8.236)"/><path class="cls-3" d="M92.455,47.394l0.229,1.4a5.868,5.868,0,0,1-1.2.141,2.706,2.706,0,0,1-1.336-.272,1.526,1.526,0,0,1-.668-0.716,5.664,5.664,0,0,1-.193-1.868v-5.37h-1.16v-1.23h1.16V37.163l1.573-.949v3.261h1.591v1.23H90.864v5.458a2.757,2.757,0,0,0,.083.87,0.659,0.659,0,0,0,.272.308,1.052,1.052,0,0,0,.541.114A5.146,5.146,0,0,0,92.455,47.394Z" transform="translate(-11.138 -8.236)"/><path class="cls-3" d="M94.011,37.744V35.924h1.582v1.819H94.011Zm0,11.065V39.475h1.582v9.334H94.011Z" transform="translate(-11.138 -8.236)"/><path class="cls-3" d="M97.412,44.142A4.811,4.811,0,0,1,98.853,40.3a4.343,4.343,0,0,1,2.936-1.037,4.188,4.188,0,0,1,3.146,1.261,4.8,4.8,0,0,1,1.222,3.485,6.175,6.175,0,0,1-.541,2.834,3.826,3.826,0,0,1-1.573,1.6,4.58,4.58,0,0,1-2.254.571,4.2,4.2,0,0,1-3.168-1.257A5.02,5.02,0,0,1,97.412,44.142Zm1.626,0a3.976,3.976,0,0,0,.782,2.685,2.6,2.6,0,0,0,3.929,0,4.07,4.07,0,0,0,.782-2.733,3.856,3.856,0,0,0-.787-2.624,2.608,2.608,0,0,0-3.924,0A3.958,3.958,0,0,0,99.038,44.142Z" transform="translate(-11.138 -8.236)"/><path class="cls-3" d="M108.012,48.809V39.475h1.424V40.8a3.355,3.355,0,0,1,2.971-1.538,3.9,3.9,0,0,1,1.551.3,2.44,2.44,0,0,1,1.059.8,3.053,3.053,0,0,1,.492,1.169,9.059,9.059,0,0,1,.088,1.538v5.739h-1.582V43.131a4.262,4.262,0,0,0-.185-1.446,1.521,1.521,0,0,0-.655-0.765,2.083,2.083,0,0,0-1.1-.286,2.563,2.563,0,0,0-1.745.642,3.165,3.165,0,0,0-.734,2.435v5.1h-1.582Z" transform="translate(-11.138 -8.236)"/><path class="cls-4" d="M61.9,73.748a2.228,2.228,0,0,1,2.224-2.224,2.158,2.158,0,0,1,1.578.65A2.226,2.226,0,1,1,61.9,73.748Z" transform="translate(-11.138 -8.236)"/><path class="cls-4" d="M78.056,75.919l1.608-.141a3.552,3.552,0,0,0,.532,1.586,2.9,2.9,0,0,0,1.3,1,4.909,4.909,0,0,0,1.978.382,4.739,4.739,0,0,0,1.723-.29,2.39,2.39,0,0,0,1.112-.8,1.845,1.845,0,0,0,.365-1.1,1.677,1.677,0,0,0-.352-1.059,2.6,2.6,0,0,0-1.16-.76,22.676,22.676,0,0,0-2.294-.628,11.721,11.721,0,0,1-2.487-.8A3.488,3.488,0,0,1,79,72.109a2.94,2.94,0,0,1-.453-1.6,3.275,3.275,0,0,1,.554-1.824,3.429,3.429,0,0,1,1.617-1.288,6.135,6.135,0,0,1,2.364-.439,6.459,6.459,0,0,1,2.527.461,3.644,3.644,0,0,1,1.683,1.358,3.9,3.9,0,0,1,.633,2.03l-1.635.123a2.638,2.638,0,0,0-.892-1.846,3.472,3.472,0,0,0-2.246-.624,3.6,3.6,0,0,0-2.254.567,1.7,1.7,0,0,0-.708,1.367,1.465,1.465,0,0,0,.5,1.143,6.788,6.788,0,0,0,2.571.918,17,17,0,0,1,2.852.822,3.906,3.906,0,0,1,1.661,1.314,3.2,3.2,0,0,1,.536,1.833,3.5,3.5,0,0,1-.589,1.938,3.877,3.877,0,0,1-1.692,1.415,5.894,5.894,0,0,1-2.483.505,7.414,7.414,0,0,1-2.931-.51,4.105,4.105,0,0,1-1.854-1.534A4.348,4.348,0,0,1,78.056,75.919Z" transform="translate(-11.138 -8.236)"/><path class="cls-4" d="M93.894,78.644l0.229,1.4a5.868,5.868,0,0,1-1.2.141,2.706,2.706,0,0,1-1.336-.272,1.526,1.526,0,0,1-.668-0.716,5.664,5.664,0,0,1-.193-1.868v-5.37H89.57v-1.23h1.16V68.413l1.573-.949v3.261h1.591v1.23H92.3v5.458a2.757,2.757,0,0,0,.083.87,0.659,0.659,0,0,0,.272.308,1.052,1.052,0,0,0,.541.114A5.146,5.146,0,0,0,93.894,78.644Z" transform="translate(-11.138 -8.236)"/><path class="cls-4" d="M94.852,75.392a4.811,4.811,0,0,1,1.441-3.841,4.343,4.343,0,0,1,2.936-1.037,4.188,4.188,0,0,1,3.146,1.261A4.8,4.8,0,0,1,103.6,75.26a6.175,6.175,0,0,1-.541,2.834,3.826,3.826,0,0,1-1.573,1.6,4.58,4.58,0,0,1-2.254.571,4.2,4.2,0,0,1-3.168-1.257A5.02,5.02,0,0,1,94.852,75.392Zm1.626,0a3.976,3.976,0,0,0,.782,2.685,2.6,2.6,0,0,0,3.929,0,4.07,4.07,0,0,0,.782-2.733,3.856,3.856,0,0,0-.787-2.624,2.608,2.608,0,0,0-3.924,0A3.958,3.958,0,0,0,96.478,75.392Z" transform="translate(-11.138 -8.236)"/><path class="cls-4" d="M111.542,76.64l1.556,0.2a4.035,4.035,0,0,1-1.305,2.518,3.8,3.8,0,0,1-2.58.91,4.008,4.008,0,0,1-3.081-1.252,5.082,5.082,0,0,1-1.165-3.59,6.5,6.5,0,0,1,.5-2.646,3.493,3.493,0,0,1,1.525-1.7,4.524,4.524,0,0,1,2.228-.567,3.873,3.873,0,0,1,2.487.769,3.526,3.526,0,0,1,1.239,2.184l-1.538.237a2.554,2.554,0,0,0-.778-1.415,2.013,2.013,0,0,0-1.349-.475,2.456,2.456,0,0,0-1.942.857,4.068,4.068,0,0,0-.747,2.711,4.205,4.205,0,0,0,.721,2.733,2.345,2.345,0,0,0,1.881.853,2.217,2.217,0,0,0,1.556-.571A2.835,2.835,0,0,0,111.542,76.64Z" transform="translate(-11.138 -8.236)"/><path class="cls-4" d="M114.46,80.059V67.174h1.582v7.348l3.744-3.8h2.048l-3.568,3.463,3.929,5.871h-1.951l-3.085-4.772-1.116,1.072v3.7H114.46Z" transform="translate(-11.138 -8.236)"/><path class="cls-4" d="M122.819,77.273l1.564-.246a2.187,2.187,0,0,0,.734,1.441,2.558,2.558,0,0,0,1.683.5,2.473,2.473,0,0,0,1.617-.444,1.327,1.327,0,0,0,.527-1.042,0.961,0.961,0,0,0-.466-0.844,6.861,6.861,0,0,0-1.617-.536,14.757,14.757,0,0,1-2.413-.76,2.3,2.3,0,0,1-1.367-2.14,2.4,2.4,0,0,1,.286-1.156,2.561,2.561,0,0,1,.778-0.883,3.261,3.261,0,0,1,1.006-.461,4.785,4.785,0,0,1,1.367-.189,5.4,5.4,0,0,1,1.929.316,2.624,2.624,0,0,1,1.226.857,3.349,3.349,0,0,1,.545,1.446l-1.547.211a1.692,1.692,0,0,0-.611-1.125,2.234,2.234,0,0,0-1.428-.4,2.586,2.586,0,0,0-1.556.36,1.049,1.049,0,0,0-.466.844,0.873,0.873,0,0,0,.193.554,1.4,1.4,0,0,0,.606.422q0.237,0.088,1.4.4a19.454,19.454,0,0,1,2.342.734,2.376,2.376,0,0,1,1.042.831,2.318,2.318,0,0,1,.378,1.354,2.656,2.656,0,0,1-.461,1.49,2.982,2.982,0,0,1-1.332,1.081,4.847,4.847,0,0,1-1.969.382,4.386,4.386,0,0,1-2.773-.756A3.515,3.515,0,0,1,122.819,77.273Z" transform="translate(-11.138 -8.236)"/><path class="cls-4" d="M61.9,95.349a2.228,2.228,0,0,1,2.224-2.224,2.158,2.158,0,0,1,1.578.65A2.226,2.226,0,1,1,61.9,95.349Z" transform="translate(-11.138 -8.236)"/><path class="cls-4" d="M78.566,101.659V88.774H83.4a5.983,5.983,0,0,1,2.369.391,3.046,3.046,0,0,1,1.4,1.2,3.174,3.174,0,0,1,.505,1.7,2.922,2.922,0,0,1-.448,1.556A3.2,3.2,0,0,1,85.87,94.8a3.365,3.365,0,0,1,1.8,1.169,3.131,3.131,0,0,1,.628,1.951,3.764,3.764,0,0,1-.382,1.683,3.259,3.259,0,0,1-.945,1.2,3.943,3.943,0,0,1-1.411.637,8.58,8.58,0,0,1-2.079.215H78.566Zm1.705-7.471h2.786a6.217,6.217,0,0,0,1.626-.149,1.807,1.807,0,0,0,.98-0.642,1.848,1.848,0,0,0,.33-1.125,2.072,2.072,0,0,0-.308-1.129,1.557,1.557,0,0,0-.879-0.668,7.34,7.34,0,0,0-1.96-.18H80.271v3.894Zm0,5.95h3.208a7.384,7.384,0,0,0,1.16-.062,2.78,2.78,0,0,0,.984-0.352,1.867,1.867,0,0,0,.65-0.716,2.242,2.242,0,0,0,.255-1.085,2.141,2.141,0,0,0-.369-1.252,1.947,1.947,0,0,0-1.024-.747,6.349,6.349,0,0,0-1.885-.215H80.271v4.43Z" transform="translate(-11.138 -8.236)"/><path class="cls-4" d="M89.851,96.992a4.811,4.811,0,0,1,1.441-3.841,4.343,4.343,0,0,1,2.936-1.037,4.188,4.188,0,0,1,3.146,1.261A4.8,4.8,0,0,1,98.6,96.86a6.175,6.175,0,0,1-.541,2.834,3.826,3.826,0,0,1-1.573,1.6,4.58,4.58,0,0,1-2.254.571,4.2,4.2,0,0,1-3.168-1.257A5.02,5.02,0,0,1,89.851,96.992Zm1.626,0a3.976,3.976,0,0,0,.782,2.685,2.6,2.6,0,0,0,3.929,0,4.07,4.07,0,0,0,.782-2.733,3.856,3.856,0,0,0-.787-2.624,2.608,2.608,0,0,0-3.924,0A3.958,3.958,0,0,0,91.477,96.992Z" transform="translate(-11.138 -8.236)"/><path class="cls-4" d="M100.451,101.659V92.325h1.424v1.327a3.355,3.355,0,0,1,2.971-1.538,3.9,3.9,0,0,1,1.551.3,2.44,2.44,0,0,1,1.059.8,3.053,3.053,0,0,1,.492,1.169,9.059,9.059,0,0,1,.088,1.538v5.739h-1.582V95.981a4.262,4.262,0,0,0-.185-1.446,1.521,1.521,0,0,0-.655-0.765,2.083,2.083,0,0,0-1.1-.286,2.563,2.563,0,0,0-1.745.642,3.165,3.165,0,0,0-.734,2.435v5.1h-1.582Z" transform="translate(-11.138 -8.236)"/><path class="cls-4" d="M116.517,101.659v-1.178a2.9,2.9,0,0,1-2.61,1.389,3.66,3.66,0,0,1-2.052-.615,4.046,4.046,0,0,1-1.45-1.718A5.939,5.939,0,0,1,109.89,97a6.637,6.637,0,0,1,.466-2.536,3.674,3.674,0,0,1,1.4-1.745,3.736,3.736,0,0,1,2.083-.606,3.113,3.113,0,0,1,2.575,1.283V88.774h1.573v12.885h-1.468Zm-5-4.658a4.054,4.054,0,0,0,.756,2.681,2.279,2.279,0,0,0,1.784.888,2.237,2.237,0,0,0,1.762-.848,3.91,3.91,0,0,0,.725-2.588,4.389,4.389,0,0,0-.738-2.812,2.271,2.271,0,0,0-1.819-.9,2.192,2.192,0,0,0-1.762.861A4.251,4.251,0,0,0,111.516,97Z" transform="translate(-11.138 -8.236)"/><path class="cls-4" d="M119.839,98.873l1.564-.246a2.187,2.187,0,0,0,.734,1.441,2.558,2.558,0,0,0,1.683.5,2.473,2.473,0,0,0,1.617-.444,1.327,1.327,0,0,0,.527-1.042,0.961,0.961,0,0,0-.466-0.844,6.861,6.861,0,0,0-1.617-.536,14.757,14.757,0,0,1-2.413-.76A2.3,2.3,0,0,1,120.1,94.8a2.4,2.4,0,0,1,.286-1.156,2.561,2.561,0,0,1,.778-0.883,3.261,3.261,0,0,1,1.006-.461,4.785,4.785,0,0,1,1.367-.189,5.4,5.4,0,0,1,1.929.316,2.624,2.624,0,0,1,1.226.857,3.349,3.349,0,0,1,.545,1.446l-1.547.211a1.692,1.692,0,0,0-.611-1.125,2.234,2.234,0,0,0-1.428-.4,2.586,2.586,0,0,0-1.556.36,1.049,1.049,0,0,0-.466.844,0.873,0.873,0,0,0,.193.554,1.4,1.4,0,0,0,.606.422q0.237,0.088,1.4.4a19.454,19.454,0,0,1,2.342.734,2.376,2.376,0,0,1,1.042.831,2.318,2.318,0,0,1,.378,1.354,2.656,2.656,0,0,1-.461,1.49,2.982,2.982,0,0,1-1.332,1.081,4.847,4.847,0,0,1-1.969.382,4.386,4.386,0,0,1-2.773-.756A3.515,3.515,0,0,1,119.839,98.873Z" transform="translate(-11.138 -8.236)"/><path class="cls-4" d="M61.9,116.949a2.228,2.228,0,0,1,2.224-2.224,2.158,2.158,0,0,1,1.578.65A2.226,2.226,0,1,1,61.9,116.949Z" transform="translate(-11.138 -8.236)"/><path class="cls-4" d="M87.83,118.742l1.705,0.431a5.74,5.74,0,0,1-1.929,3.2,5.316,5.316,0,0,1-3.406,1.1,6.12,6.12,0,0,1-3.388-.848,5.3,5.3,0,0,1-1.986-2.457,8.765,8.765,0,0,1-.681-3.454,7.592,7.592,0,0,1,.769-3.511,5.269,5.269,0,0,1,2.188-2.276,6.394,6.394,0,0,1,3.125-.778,5.282,5.282,0,0,1,3.252.984,5.112,5.112,0,0,1,1.837,2.769l-1.679.4a3.982,3.982,0,0,0-1.3-2.048,3.466,3.466,0,0,0-2.145-.642,4.166,4.166,0,0,0-2.483.712,3.759,3.759,0,0,0-1.4,1.912,7.7,7.7,0,0,0-.4,2.474,7.862,7.862,0,0,0,.479,2.87,3.568,3.568,0,0,0,1.49,1.833,4.178,4.178,0,0,0,2.188.606,3.667,3.667,0,0,0,2.426-.826A4.228,4.228,0,0,0,87.83,118.742Z" transform="translate(-11.138 -8.236)"/><path class="cls-4" d="M97.524,122.108a5.891,5.891,0,0,1-1.692,1.055,4.889,4.889,0,0,1-1.745.308,3.393,3.393,0,0,1-2.364-.751,2.48,2.48,0,0,1-.826-1.92,2.554,2.554,0,0,1,.312-1.252,2.583,2.583,0,0,1,.817-0.91,3.844,3.844,0,0,1,1.138-.519,11.3,11.3,0,0,1,1.406-.237,14.46,14.46,0,0,0,2.821-.545q0.009-.325.009-0.413a1.747,1.747,0,0,0-.448-1.362,2.648,2.648,0,0,0-1.8-.536,2.794,2.794,0,0,0-1.648.391,2.39,2.39,0,0,0-.787,1.384l-1.547-.211a3.833,3.833,0,0,1,.694-1.6,3.043,3.043,0,0,1,1.4-.94,6.233,6.233,0,0,1,2.118-.33,5.606,5.606,0,0,1,1.942.281,2.559,2.559,0,0,1,1.1.708,2.488,2.488,0,0,1,.492,1.077,8.908,8.908,0,0,1,.079,1.459v2.109a22.389,22.389,0,0,0,.1,2.791,3.521,3.521,0,0,0,.4,1.121H97.84A3.354,3.354,0,0,1,97.524,122.108Zm-0.132-3.533a11.607,11.607,0,0,1-2.584.6,5.977,5.977,0,0,0-1.38.316A1.376,1.376,0,0,0,92.8,120a1.4,1.4,0,0,0,.259,1.806,2.061,2.061,0,0,0,1.4.422,3.263,3.263,0,0,0,1.626-.4,2.463,2.463,0,0,0,1.046-1.094,3.822,3.822,0,0,0,.255-1.582v-0.58Z" transform="translate(-11.138 -8.236)"/><path class="cls-4" d="M100.811,120.473l1.564-.246a2.187,2.187,0,0,0,.734,1.441,2.558,2.558,0,0,0,1.683.5,2.473,2.473,0,0,0,1.617-.444,1.327,1.327,0,0,0,.527-1.042,0.961,0.961,0,0,0-.466-0.844,6.861,6.861,0,0,0-1.617-.536,14.757,14.757,0,0,1-2.413-.76,2.3,2.3,0,0,1-1.367-2.14,2.4,2.4,0,0,1,.286-1.156,2.561,2.561,0,0,1,.778-0.883,3.261,3.261,0,0,1,1.006-.461,4.785,4.785,0,0,1,1.367-.189,5.4,5.4,0,0,1,1.929.316,2.624,2.624,0,0,1,1.226.857,3.349,3.349,0,0,1,.545,1.446l-1.547.211a1.692,1.692,0,0,0-.611-1.125,2.234,2.234,0,0,0-1.428-.4,2.586,2.586,0,0,0-1.556.36,1.049,1.049,0,0,0-.466.844,0.873,0.873,0,0,0,.193.554,1.4,1.4,0,0,0,.606.422q0.237,0.088,1.4.4a19.454,19.454,0,0,1,2.342.734,2.376,2.376,0,0,1,1.042.831,2.318,2.318,0,0,1,.378,1.354,2.656,2.656,0,0,1-.461,1.49,2.982,2.982,0,0,1-1.332,1.081,4.847,4.847,0,0,1-1.969.382,4.386,4.386,0,0,1-2.773-.756A3.515,3.515,0,0,1,100.811,120.473Z" transform="translate(-11.138 -8.236)"/><path class="cls-4" d="M110.444,123.259V110.374h1.582V115a3.534,3.534,0,0,1,2.795-1.283,3.769,3.769,0,0,1,1.8.409,2.4,2.4,0,0,1,1.094,1.129,5.206,5.206,0,0,1,.33,2.092v5.915h-1.582v-5.915a2.444,2.444,0,0,0-.514-1.727,1.912,1.912,0,0,0-1.455-.541,2.565,2.565,0,0,0-1.323.365,2.06,2.06,0,0,0-.883.989,4.541,4.541,0,0,0-.264,1.723v5.106h-1.582Z" transform="translate(-11.138 -8.236)"/><rect class="cls-1" x="23.225" y="149.748" width="152.55" height="127.61"/><rect class="cls-2" x="23.225" y="149.748" width="152.55" height="45.897"/><path class="cls-3" d="M44.389,175.457V162.573h1.705v5.291h6.7v-5.291H54.5v12.885H52.791v-6.073h-6.7v6.073H44.389Z" transform="translate(-11.138 -8.236)"/><path class="cls-3" d="M57.142,164.392v-1.819h1.582v1.819H57.142Zm0,11.065v-9.334h1.582v9.334H57.142Z" transform="translate(-11.138 -8.236)"/><path class="cls-3" d="M60.5,172.671l1.564-.246a2.187,2.187,0,0,0,.734,1.441,2.558,2.558,0,0,0,1.683.5,2.473,2.473,0,0,0,1.617-.444,1.327,1.327,0,0,0,.527-1.042,0.961,0.961,0,0,0-.466-0.844,6.861,6.861,0,0,0-1.617-.536,14.757,14.757,0,0,1-2.413-.76,2.3,2.3,0,0,1-1.367-2.14,2.4,2.4,0,0,1,.286-1.156,2.561,2.561,0,0,1,.778-0.883,3.261,3.261,0,0,1,1.006-.461,4.785,4.785,0,0,1,1.367-.189,5.4,5.4,0,0,1,1.929.316,2.624,2.624,0,0,1,1.226.857,3.349,3.349,0,0,1,.545,1.446l-1.547.211a1.692,1.692,0,0,0-.611-1.125,2.234,2.234,0,0,0-1.428-.4,2.586,2.586,0,0,0-1.556.36,1.049,1.049,0,0,0-.466.844,0.873,0.873,0,0,0,.193.554,1.4,1.4,0,0,0,.606.422q0.237,0.088,1.4.4a19.454,19.454,0,0,1,2.342.734,2.376,2.376,0,0,1,1.042.831,2.318,2.318,0,0,1,.378,1.354,2.656,2.656,0,0,1-.461,1.49,2.982,2.982,0,0,1-1.332,1.081,4.847,4.847,0,0,1-1.969.382,4.386,4.386,0,0,1-2.773-.756A3.515,3.515,0,0,1,60.5,172.671Z" transform="translate(-11.138 -8.236)"/><path class="cls-3" d="M73.586,174.042l0.229,1.4a5.868,5.868,0,0,1-1.2.141,2.706,2.706,0,0,1-1.336-.272,1.526,1.526,0,0,1-.668-0.716,5.664,5.664,0,0,1-.193-1.868v-5.37h-1.16v-1.23h1.16v-2.312L72,162.863v3.261h1.591v1.23H72v5.458a2.757,2.757,0,0,0,.083.87,0.659,0.659,0,0,0,.272.308,1.052,1.052,0,0,0,.541.114A5.146,5.146,0,0,0,73.586,174.042Z" transform="translate(-11.138 -8.236)"/><path class="cls-3" d="M74.544,170.79a4.811,4.811,0,0,1,1.441-3.841,4.343,4.343,0,0,1,2.936-1.037,4.188,4.188,0,0,1,3.146,1.261,4.8,4.8,0,0,1,1.222,3.485,6.175,6.175,0,0,1-.541,2.834,3.826,3.826,0,0,1-1.573,1.6,4.58,4.58,0,0,1-2.254.571,4.2,4.2,0,0,1-3.168-1.257A5.02,5.02,0,0,1,74.544,170.79Zm1.626,0a3.976,3.976,0,0,0,.782,2.685,2.6,2.6,0,0,0,3.929,0,4.07,4.07,0,0,0,.782-2.733,3.856,3.856,0,0,0-.787-2.624,2.608,2.608,0,0,0-3.924,0A3.958,3.958,0,0,0,76.17,170.79Z" transform="translate(-11.138 -8.236)"/><path class="cls-3" d="M85.126,175.457v-9.334H86.55v1.415a3.861,3.861,0,0,1,1.006-1.31,1.757,1.757,0,0,1,1.015-.316,3.086,3.086,0,0,1,1.626.51l-0.545,1.468a2.264,2.264,0,0,0-1.16-.343,1.507,1.507,0,0,0-.932.312,1.69,1.69,0,0,0-.589.866,6.162,6.162,0,0,0-.264,1.846v4.887H85.126Z" transform="translate(-11.138 -8.236)"/><path class="cls-3" d="M91.068,179.052l-0.176-1.485a3.525,3.525,0,0,0,.905.141,1.737,1.737,0,0,0,.844-0.176,1.437,1.437,0,0,0,.519-0.492,7.76,7.76,0,0,0,.483-1.178q0.044-.132.141-0.387l-3.542-9.352h1.705l1.942,5.405q0.378,1.028.677,2.162a21.286,21.286,0,0,1,.65-2.127l2-5.44h1.582l-3.551,9.492a18.632,18.632,0,0,1-.888,2.118,3.124,3.124,0,0,1-.967,1.147,2.284,2.284,0,0,1-1.3.365A3.168,3.168,0,0,1,91.068,179.052Z" transform="translate(-11.138 -8.236)"/><path class="cls-3" d="M104.55,170.79a4.811,4.811,0,0,1,1.441-3.841,4.343,4.343,0,0,1,2.936-1.037,4.188,4.188,0,0,1,3.146,1.261,4.8,4.8,0,0,1,1.222,3.485,6.175,6.175,0,0,1-.541,2.834,3.826,3.826,0,0,1-1.573,1.6,4.58,4.58,0,0,1-2.254.571,4.2,4.2,0,0,1-3.168-1.257A5.02,5.02,0,0,1,104.55,170.79Zm1.626,0a3.976,3.976,0,0,0,.782,2.685,2.6,2.6,0,0,0,3.929,0,4.07,4.07,0,0,0,.782-2.733,3.856,3.856,0,0,0-.787-2.624,2.608,2.608,0,0,0-3.924,0A3.958,3.958,0,0,0,106.176,170.79Z" transform="translate(-11.138 -8.236)"/><path class="cls-3" d="M115.528,175.457v-8.1h-1.4v-1.23h1.4V165.13a4.349,4.349,0,0,1,.167-1.4,2.023,2.023,0,0,1,.8-1,2.9,2.9,0,0,1,1.613-.382,7.744,7.744,0,0,1,1.477.158l-0.237,1.38a5.309,5.309,0,0,0-.932-0.088,1.386,1.386,0,0,0-1.02.308,1.667,1.667,0,0,0-.3,1.151v0.861h1.819v1.23H117.1v8.1h-1.573Z" transform="translate(-11.138 -8.236)"/><path class="cls-3" d="M42.921,197.058l4.948-12.885h1.837l5.273,12.885H53.038l-1.5-3.9H46.147l-1.415,3.9H42.921Zm3.718-5.291h4.368L49.663,188.2q-0.615-1.626-.914-2.672a16.425,16.425,0,0,1-.694,2.461Z" transform="translate(-11.138 -8.236)"/><path class="cls-3" d="M55.507,194.271l1.564-.246a2.187,2.187,0,0,0,.734,1.441,2.558,2.558,0,0,0,1.683.5,2.473,2.473,0,0,0,1.617-.444,1.327,1.327,0,0,0,.527-1.042,0.961,0.961,0,0,0-.466-0.844,6.861,6.861,0,0,0-1.617-.536,14.757,14.757,0,0,1-2.413-.76,2.3,2.3,0,0,1-1.367-2.14,2.4,2.4,0,0,1,.286-1.156,2.561,2.561,0,0,1,.778-0.883,3.261,3.261,0,0,1,1.006-.461,4.785,4.785,0,0,1,1.367-.189,5.4,5.4,0,0,1,1.929.316,2.624,2.624,0,0,1,1.226.857,3.349,3.349,0,0,1,.545,1.446l-1.547.211a1.692,1.692,0,0,0-.611-1.125,2.234,2.234,0,0,0-1.428-.4,2.586,2.586,0,0,0-1.556.36,1.049,1.049,0,0,0-.466.844,0.873,0.873,0,0,0,.193.554,1.4,1.4,0,0,0,.606.422q0.237,0.088,1.4.4a19.454,19.454,0,0,1,2.342.734,2.376,2.376,0,0,1,1.042.831,2.318,2.318,0,0,1,.378,1.354,2.656,2.656,0,0,1-.461,1.49,2.982,2.982,0,0,1-1.332,1.081,4.847,4.847,0,0,1-1.969.382,4.386,4.386,0,0,1-2.773-.756A3.515,3.515,0,0,1,55.507,194.271Z" transform="translate(-11.138 -8.236)"/><path class="cls-3" d="M64.507,194.271l1.564-.246a2.187,2.187,0,0,0,.734,1.441,2.558,2.558,0,0,0,1.683.5,2.473,2.473,0,0,0,1.617-.444,1.327,1.327,0,0,0,.527-1.042,0.961,0.961,0,0,0-.466-0.844,6.861,6.861,0,0,0-1.617-.536,14.757,14.757,0,0,1-2.413-.76,2.3,2.3,0,0,1-1.367-2.14,2.4,2.4,0,0,1,.286-1.156,2.561,2.561,0,0,1,.778-0.883,3.261,3.261,0,0,1,1.006-.461,4.785,4.785,0,0,1,1.367-.189,5.4,5.4,0,0,1,1.929.316,2.624,2.624,0,0,1,1.226.857,3.349,3.349,0,0,1,.545,1.446l-1.547.211a1.692,1.692,0,0,0-.611-1.125,2.234,2.234,0,0,0-1.428-.4,2.586,2.586,0,0,0-1.556.36,1.049,1.049,0,0,0-.466.844,0.873,0.873,0,0,0,.193.554,1.4,1.4,0,0,0,.606.422q0.237,0.088,1.4.4a19.454,19.454,0,0,1,2.342.734,2.376,2.376,0,0,1,1.042.831,2.318,2.318,0,0,1,.378,1.354,2.656,2.656,0,0,1-.461,1.49,2.982,2.982,0,0,1-1.332,1.081,4.847,4.847,0,0,1-1.969.382,4.386,4.386,0,0,1-2.773-.756A3.515,3.515,0,0,1,64.507,194.271Z" transform="translate(-11.138 -8.236)"/><path class="cls-3" d="M80.53,194.052l1.635,0.2a3.989,3.989,0,0,1-1.433,2.224,4.853,4.853,0,0,1-5.919-.47,4.928,4.928,0,0,1-1.2-3.538,5.158,5.158,0,0,1,1.213-3.656,4.106,4.106,0,0,1,3.146-1.3,3.99,3.99,0,0,1,3.059,1.274,5.064,5.064,0,0,1,1.187,3.586q0,0.141-.009.422H75.247a3.587,3.587,0,0,0,.87,2.355,2.59,2.59,0,0,0,1.951.817,2.421,2.421,0,0,0,1.485-.457A3.034,3.034,0,0,0,80.53,194.052Zm-5.194-2.558h5.212a3.162,3.162,0,0,0-.6-1.767,2.425,2.425,0,0,0-1.96-.914,2.513,2.513,0,0,0-1.833.729A2.887,2.887,0,0,0,75.335,191.494Z" transform="translate(-11.138 -8.236)"/><path class="cls-3" d="M87.6,195.642l0.229,1.4a5.868,5.868,0,0,1-1.2.141,2.706,2.706,0,0,1-1.336-.272,1.526,1.526,0,0,1-.668-0.716,5.664,5.664,0,0,1-.193-1.868v-5.37h-1.16v-1.23h1.16v-2.312l1.573-.949v3.261H87.6v1.23H86.014v5.458a2.757,2.757,0,0,0,.083.87,0.659,0.659,0,0,0,.272.308,1.052,1.052,0,0,0,.541.114A5.146,5.146,0,0,0,87.6,195.642Z" transform="translate(-11.138 -8.236)"/><path class="cls-3" d="M103.548,192.54l1.705,0.431a5.74,5.74,0,0,1-1.929,3.2,5.316,5.316,0,0,1-3.406,1.1,6.12,6.12,0,0,1-3.388-.848,5.3,5.3,0,0,1-1.986-2.457,8.765,8.765,0,0,1-.681-3.454,7.592,7.592,0,0,1,.769-3.511,5.269,5.269,0,0,1,2.188-2.276,6.394,6.394,0,0,1,3.125-.778,5.282,5.282,0,0,1,3.252.984,5.112,5.112,0,0,1,1.837,2.769l-1.679.4a3.982,3.982,0,0,0-1.3-2.048,3.466,3.466,0,0,0-2.145-.642,4.166,4.166,0,0,0-2.483.712,3.759,3.759,0,0,0-1.4,1.912,7.7,7.7,0,0,0-.4,2.474,7.862,7.862,0,0,0,.479,2.87,3.568,3.568,0,0,0,1.49,1.833,4.178,4.178,0,0,0,2.188.606,3.667,3.667,0,0,0,2.426-.826A4.228,4.228,0,0,0,103.548,192.54Z" transform="translate(-11.138 -8.236)"/><path class="cls-3" d="M107.117,197.058V184.173H108.7v12.885h-1.582Z" transform="translate(-11.138 -8.236)"/><path class="cls-3" d="M117.242,195.906a5.891,5.891,0,0,1-1.692,1.055,4.889,4.889,0,0,1-1.745.308,3.393,3.393,0,0,1-2.364-.751,2.48,2.48,0,0,1-.826-1.92,2.554,2.554,0,0,1,.312-1.252,2.583,2.583,0,0,1,.817-0.91,3.844,3.844,0,0,1,1.138-.519,11.3,11.3,0,0,1,1.406-.237,14.46,14.46,0,0,0,2.821-.545q0.009-.325.009-0.413a1.747,1.747,0,0,0-.448-1.362,2.648,2.648,0,0,0-1.8-.536,2.794,2.794,0,0,0-1.648.391,2.39,2.39,0,0,0-.787,1.384l-1.547-.211a3.833,3.833,0,0,1,.694-1.6,3.043,3.043,0,0,1,1.4-.94,6.233,6.233,0,0,1,2.118-.33,5.606,5.606,0,0,1,1.942.281,2.559,2.559,0,0,1,1.1.708,2.488,2.488,0,0,1,.492,1.077,8.908,8.908,0,0,1,.079,1.459v2.109a22.389,22.389,0,0,0,.1,2.791,3.521,3.521,0,0,0,.4,1.121h-1.652A3.354,3.354,0,0,1,117.242,195.906Zm-0.132-3.533a11.607,11.607,0,0,1-2.584.6,5.977,5.977,0,0,0-1.38.316,1.376,1.376,0,0,0-.624.514,1.4,1.4,0,0,0,.259,1.806,2.061,2.061,0,0,0,1.4.422,3.263,3.263,0,0,0,1.626-.4,2.463,2.463,0,0,0,1.046-1.094,3.822,3.822,0,0,0,.255-1.582v-0.58Z" transform="translate(-11.138 -8.236)"/><path class="cls-3" d="M120.529,194.271l1.564-.246a2.187,2.187,0,0,0,.734,1.441,2.558,2.558,0,0,0,1.683.5,2.473,2.473,0,0,0,1.617-.444,1.327,1.327,0,0,0,.527-1.042,0.961,0.961,0,0,0-.466-0.844,6.861,6.861,0,0,0-1.617-.536,14.757,14.757,0,0,1-2.413-.76,2.3,2.3,0,0,1-1.367-2.14,2.4,2.4,0,0,1,.286-1.156,2.561,2.561,0,0,1,.778-0.883,3.261,3.261,0,0,1,1.006-.461,4.785,4.785,0,0,1,1.367-.189,5.4,5.4,0,0,1,1.929.316,2.624,2.624,0,0,1,1.226.857,3.349,3.349,0,0,1,.545,1.446l-1.547.211a1.692,1.692,0,0,0-.611-1.125,2.234,2.234,0,0,0-1.428-.4,2.586,2.586,0,0,0-1.556.36,1.049,1.049,0,0,0-.466.844,0.873,0.873,0,0,0,.193.554,1.4,1.4,0,0,0,.606.422q0.237,0.088,1.4.4a19.454,19.454,0,0,1,2.342.734,2.376,2.376,0,0,1,1.042.831,2.318,2.318,0,0,1,.378,1.354,2.656,2.656,0,0,1-.461,1.49,2.982,2.982,0,0,1-1.332,1.081,4.847,4.847,0,0,1-1.969.382,4.386,4.386,0,0,1-2.773-.756A3.515,3.515,0,0,1,120.529,194.271Z" transform="translate(-11.138 -8.236)"/><path class="cls-3" d="M129.529,194.271l1.564-.246a2.187,2.187,0,0,0,.734,1.441,2.558,2.558,0,0,0,1.683.5,2.473,2.473,0,0,0,1.617-.444,1.327,1.327,0,0,0,.527-1.042,0.961,0.961,0,0,0-.466-0.844,6.861,6.861,0,0,0-1.617-.536,14.757,14.757,0,0,1-2.413-.76,2.3,2.3,0,0,1-1.367-2.14,2.4,2.4,0,0,1,.286-1.156,2.561,2.561,0,0,1,.778-0.883,3.261,3.261,0,0,1,1.006-.461,4.785,4.785,0,0,1,1.367-.189,5.4,5.4,0,0,1,1.929.316,2.624,2.624,0,0,1,1.226.857,3.349,3.349,0,0,1,.545,1.446l-1.547.211a1.692,1.692,0,0,0-.611-1.125,2.234,2.234,0,0,0-1.428-.4,2.586,2.586,0,0,0-1.556.36,1.049,1.049,0,0,0-.466.844,0.873,0.873,0,0,0,.193.554,1.4,1.4,0,0,0,.606.422q0.237,0.088,1.4.4a19.454,19.454,0,0,1,2.342.734,2.376,2.376,0,0,1,1.042.831,2.318,2.318,0,0,1,.378,1.354,2.656,2.656,0,0,1-.461,1.49,2.982,2.982,0,0,1-1.332,1.081,4.847,4.847,0,0,1-1.969.382,4.386,4.386,0,0,1-2.773-.756A3.515,3.515,0,0,1,129.529,194.271Z" transform="translate(-11.138 -8.236)"/><path class="cls-3" d="M145.551,194.052l1.635,0.2a3.989,3.989,0,0,1-1.433,2.224,4.853,4.853,0,0,1-5.919-.47,4.928,4.928,0,0,1-1.2-3.538,5.158,5.158,0,0,1,1.213-3.656,4.106,4.106,0,0,1,3.146-1.3,3.99,3.99,0,0,1,3.059,1.274,5.064,5.064,0,0,1,1.187,3.586q0,0.141-.009.422h-6.961a3.587,3.587,0,0,0,.87,2.355,2.59,2.59,0,0,0,1.951.817,2.421,2.421,0,0,0,1.485-.457A3.034,3.034,0,0,0,145.551,194.052Zm-5.194-2.558h5.212a3.162,3.162,0,0,0-.6-1.767,2.425,2.425,0,0,0-1.96-.914,2.513,2.513,0,0,0-1.833.729A2.887,2.887,0,0,0,140.357,191.494Z" transform="translate(-11.138 -8.236)"/><path class="cls-3" d="M148.539,194.271l1.564-.246a2.187,2.187,0,0,0,.734,1.441,2.558,2.558,0,0,0,1.683.5,2.473,2.473,0,0,0,1.617-.444,1.327,1.327,0,0,0,.527-1.042,0.961,0.961,0,0,0-.466-0.844,6.861,6.861,0,0,0-1.617-.536,14.757,14.757,0,0,1-2.413-.76,2.3,2.3,0,0,1-1.367-2.14,2.4,2.4,0,0,1,.286-1.156,2.561,2.561,0,0,1,.778-0.883,3.261,3.261,0,0,1,1.006-.461,4.785,4.785,0,0,1,1.367-.189,5.4,5.4,0,0,1,1.929.316,2.624,2.624,0,0,1,1.226.857,3.349,3.349,0,0,1,.545,1.446l-1.547.211a1.692,1.692,0,0,0-.611-1.125,2.234,2.234,0,0,0-1.428-.4,2.586,2.586,0,0,0-1.556.36,1.049,1.049,0,0,0-.466.844,0.873,0.873,0,0,0,.193.554,1.4,1.4,0,0,0,.606.422q0.237,0.088,1.4.4a19.454,19.454,0,0,1,2.342.734,2.376,2.376,0,0,1,1.042.831,2.318,2.318,0,0,1,.378,1.354,2.656,2.656,0,0,1-.461,1.49,2.982,2.982,0,0,1-1.332,1.081,4.847,4.847,0,0,1-1.969.382,4.386,4.386,0,0,1-2.773-.756A3.515,3.515,0,0,1,148.539,194.271Z" transform="translate(-11.138 -8.236)"/><path class="cls-4" d="M61.5,224.572a2.021,2.021,0,1,1,2.017,2.161A2.066,2.066,0,0,1,61.5,224.572Z" transform="translate(-11.138 -8.236)"/><path class="cls-4" d="M77.06,225.168l1.608-.141a3.552,3.552,0,0,0,.532,1.586,2.9,2.9,0,0,0,1.3,1,4.909,4.909,0,0,0,1.978.382,4.739,4.739,0,0,0,1.723-.29,2.39,2.39,0,0,0,1.112-.8,1.845,1.845,0,0,0,.365-1.1,1.677,1.677,0,0,0-.352-1.059,2.6,2.6,0,0,0-1.16-.76,22.676,22.676,0,0,0-2.294-.628,11.721,11.721,0,0,1-2.487-.8,3.488,3.488,0,0,1-1.375-1.2,2.94,2.94,0,0,1-.453-1.6,3.275,3.275,0,0,1,.554-1.824,3.429,3.429,0,0,1,1.617-1.288,6.135,6.135,0,0,1,2.364-.439,6.459,6.459,0,0,1,2.527.461,3.644,3.644,0,0,1,1.683,1.358,3.9,3.9,0,0,1,.633,2.03l-1.635.123a2.638,2.638,0,0,0-.892-1.846,3.472,3.472,0,0,0-2.246-.624,3.6,3.6,0,0,0-2.254.567,1.7,1.7,0,0,0-.708,1.367,1.465,1.465,0,0,0,.5,1.143,6.788,6.788,0,0,0,2.571.918,17,17,0,0,1,2.852.822,3.906,3.906,0,0,1,1.661,1.314,3.2,3.2,0,0,1,.536,1.833,3.5,3.5,0,0,1-.589,1.938,3.877,3.877,0,0,1-1.692,1.415,5.894,5.894,0,0,1-2.483.505,7.414,7.414,0,0,1-2.931-.51,4.105,4.105,0,0,1-1.854-1.534A4.348,4.348,0,0,1,77.06,225.168Z" transform="translate(-11.138 -8.236)"/><path class="cls-4" d="M92.9,227.892l0.229,1.4a5.868,5.868,0,0,1-1.2.141,2.706,2.706,0,0,1-1.336-.272,1.526,1.526,0,0,1-.668-0.716,5.664,5.664,0,0,1-.193-1.868V221.2h-1.16v-1.23h1.16v-2.312l1.573-.949v3.261H92.9v1.23H91.308v5.458a2.757,2.757,0,0,0,.083.87,0.659,0.659,0,0,0,.272.308,1.052,1.052,0,0,0,.541.114A5.146,5.146,0,0,0,92.9,227.892Z" transform="translate(-11.138 -8.236)"/><path class="cls-4" d="M93.856,224.641A4.811,4.811,0,0,1,95.3,220.8a4.343,4.343,0,0,1,2.936-1.037,4.188,4.188,0,0,1,3.146,1.261,4.8,4.8,0,0,1,1.222,3.485,6.175,6.175,0,0,1-.541,2.834,3.826,3.826,0,0,1-1.573,1.6,4.58,4.58,0,0,1-2.254.571,4.2,4.2,0,0,1-3.168-1.257A5.02,5.02,0,0,1,93.856,224.641Zm1.626,0a3.976,3.976,0,0,0,.782,2.685,2.6,2.6,0,0,0,3.929,0,4.07,4.07,0,0,0,.782-2.733,3.856,3.856,0,0,0-.787-2.624,2.608,2.608,0,0,0-3.924,0A3.958,3.958,0,0,0,95.482,224.641Z" transform="translate(-11.138 -8.236)"/><path class="cls-4" d="M110.547,225.889l1.556,0.2a4.035,4.035,0,0,1-1.305,2.518,3.8,3.8,0,0,1-2.58.91,4.008,4.008,0,0,1-3.081-1.252,5.082,5.082,0,0,1-1.165-3.59,6.5,6.5,0,0,1,.5-2.646,3.493,3.493,0,0,1,1.525-1.7,4.524,4.524,0,0,1,2.228-.567,3.873,3.873,0,0,1,2.487.769,3.526,3.526,0,0,1,1.239,2.184l-1.538.237a2.554,2.554,0,0,0-.778-1.415,2.013,2.013,0,0,0-1.349-.475,2.456,2.456,0,0,0-1.942.857,4.068,4.068,0,0,0-.747,2.711,4.205,4.205,0,0,0,.721,2.733,2.345,2.345,0,0,0,1.881.853,2.217,2.217,0,0,0,1.556-.571A2.835,2.835,0,0,0,110.547,225.889Z" transform="translate(-11.138 -8.236)"/><path class="cls-4" d="M113.465,229.308V216.423h1.582v7.348l3.744-3.8h2.048l-3.568,3.463,3.929,5.871h-1.951l-3.085-4.772-1.116,1.072v3.7h-1.582Z" transform="translate(-11.138 -8.236)"/><path class="cls-4" d="M121.823,226.521l1.564-.246a2.187,2.187,0,0,0,.734,1.441,2.558,2.558,0,0,0,1.683.5,2.473,2.473,0,0,0,1.617-.444,1.327,1.327,0,0,0,.527-1.042,0.961,0.961,0,0,0-.466-0.844,6.861,6.861,0,0,0-1.617-.536,14.757,14.757,0,0,1-2.413-.76,2.3,2.3,0,0,1-1.367-2.14,2.4,2.4,0,0,1,.286-1.156,2.561,2.561,0,0,1,.778-0.883,3.261,3.261,0,0,1,1.006-.461,4.785,4.785,0,0,1,1.367-.189,5.4,5.4,0,0,1,1.929.316,2.624,2.624,0,0,1,1.226.857,3.349,3.349,0,0,1,.545,1.446l-1.547.211a1.692,1.692,0,0,0-.611-1.125,2.234,2.234,0,0,0-1.428-.4,2.586,2.586,0,0,0-1.556.36,1.049,1.049,0,0,0-.466.844,0.873,0.873,0,0,0,.193.554,1.4,1.4,0,0,0,.606.422q0.237,0.088,1.4.4a19.454,19.454,0,0,1,2.342.734,2.376,2.376,0,0,1,1.042.831,2.318,2.318,0,0,1,.378,1.354,2.656,2.656,0,0,1-.461,1.49,2.982,2.982,0,0,1-1.332,1.081,4.847,4.847,0,0,1-1.969.382,4.386,4.386,0,0,1-2.773-.756A3.515,3.515,0,0,1,121.823,226.521Z" transform="translate(-11.138 -8.236)"/><path class="cls-4" d="M61.736,244.6a2.228,2.228,0,0,1,2.224-2.224,2.158,2.158,0,0,1,1.578.65A2.226,2.226,0,1,1,61.736,244.6Z" transform="translate(-11.138 -8.236)"/><path class="cls-4" d="M78.4,250.908V238.023h4.834a5.984,5.984,0,0,1,2.369.391,3.046,3.046,0,0,1,1.4,1.2,3.176,3.176,0,0,1,.505,1.7,2.922,2.922,0,0,1-.448,1.556,3.2,3.2,0,0,1-1.354,1.178,3.365,3.365,0,0,1,1.8,1.169,3.131,3.131,0,0,1,.628,1.951,3.762,3.762,0,0,1-.382,1.683,3.261,3.261,0,0,1-.945,1.2,3.943,3.943,0,0,1-1.411.637,8.577,8.577,0,0,1-2.079.216H78.4Zm1.705-7.471h2.786a6.217,6.217,0,0,0,1.626-.149,1.807,1.807,0,0,0,.98-0.642,1.848,1.848,0,0,0,.33-1.125,2.074,2.074,0,0,0-.308-1.13,1.557,1.557,0,0,0-.879-0.668,7.346,7.346,0,0,0-1.96-.18H80.105v3.894Zm0,5.95h3.208a7.384,7.384,0,0,0,1.16-.062,2.78,2.78,0,0,0,.984-0.352,1.868,1.868,0,0,0,.65-0.717,2.24,2.24,0,0,0,.255-1.085,2.143,2.143,0,0,0-.369-1.253,1.947,1.947,0,0,0-1.024-.747,6.351,6.351,0,0,0-1.885-.215H80.105v4.43Z" transform="translate(-11.138 -8.236)"/><path class="cls-4" d="M89.685,246.241a4.811,4.811,0,0,1,1.441-3.841,4.343,4.343,0,0,1,2.936-1.037,4.187,4.187,0,0,1,3.146,1.261,4.8,4.8,0,0,1,1.222,3.485,6.173,6.173,0,0,1-.541,2.834,3.827,3.827,0,0,1-1.573,1.6,4.58,4.58,0,0,1-2.254.571,4.2,4.2,0,0,1-3.168-1.257A5.02,5.02,0,0,1,89.685,246.241Zm1.626,0a3.974,3.974,0,0,0,.782,2.685,2.6,2.6,0,0,0,3.929,0,4.07,4.07,0,0,0,.782-2.733,3.858,3.858,0,0,0-.787-2.624,2.609,2.609,0,0,0-3.924,0A3.958,3.958,0,0,0,91.311,246.241Z" transform="translate(-11.138 -8.236)"/><path class="cls-4" d="M100.285,250.908v-9.334h1.424V242.9a3.355,3.355,0,0,1,2.971-1.538,3.9,3.9,0,0,1,1.551.3,2.441,2.441,0,0,1,1.059.8,3.053,3.053,0,0,1,.492,1.169,9.059,9.059,0,0,1,.088,1.538v5.739h-1.582V245.23a4.265,4.265,0,0,0-.185-1.446,1.521,1.521,0,0,0-.655-0.765,2.083,2.083,0,0,0-1.1-.285,2.563,2.563,0,0,0-1.745.642,3.165,3.165,0,0,0-.734,2.435v5.1h-1.582Z" transform="translate(-11.138 -8.236)"/><path class="cls-4" d="M116.351,250.908V249.73a2.9,2.9,0,0,1-2.61,1.389,3.66,3.66,0,0,1-2.052-.615,4.047,4.047,0,0,1-1.45-1.719,5.936,5.936,0,0,1-.514-2.535,6.639,6.639,0,0,1,.466-2.536,3.673,3.673,0,0,1,1.4-1.744,3.736,3.736,0,0,1,2.083-.606,3.109,3.109,0,0,1,2.575,1.283v-4.623h1.573v12.885h-1.468Zm-5-4.658a4.054,4.054,0,0,0,.756,2.681,2.279,2.279,0,0,0,1.784.888,2.238,2.238,0,0,0,1.762-.849,3.909,3.909,0,0,0,.725-2.588,4.389,4.389,0,0,0-.738-2.812,2.271,2.271,0,0,0-1.819-.9,2.192,2.192,0,0,0-1.762.861A4.251,4.251,0,0,0,111.351,246.25Z" transform="translate(-11.138 -8.236)"/><path class="cls-4" d="M119.674,248.122l1.564-.246a2.187,2.187,0,0,0,.734,1.441,2.558,2.558,0,0,0,1.683.5,2.473,2.473,0,0,0,1.617-.444,1.326,1.326,0,0,0,.527-1.041,0.961,0.961,0,0,0-.466-0.844,6.861,6.861,0,0,0-1.617-.536,14.745,14.745,0,0,1-2.413-.761,2.3,2.3,0,0,1-1.367-2.14,2.406,2.406,0,0,1,.286-1.156,2.56,2.56,0,0,1,.778-0.883,3.261,3.261,0,0,1,1.006-.462,4.786,4.786,0,0,1,1.367-.188,5.4,5.4,0,0,1,1.929.316,2.623,2.623,0,0,1,1.226.856,3.351,3.351,0,0,1,.545,1.446l-1.547.211a1.692,1.692,0,0,0-.611-1.125,2.234,2.234,0,0,0-1.428-.4,2.586,2.586,0,0,0-1.556.36,1.049,1.049,0,0,0-.466.844,0.873,0.873,0,0,0,.193.554,1.4,1.4,0,0,0,.606.422q0.237,0.088,1.4.4a19.477,19.477,0,0,1,2.342.733,2.377,2.377,0,0,1,1.042.831,2.318,2.318,0,0,1,.378,1.354,2.655,2.655,0,0,1-.461,1.489,2.982,2.982,0,0,1-1.332,1.081,4.847,4.847,0,0,1-1.969.383,4.386,4.386,0,0,1-2.773-.756A3.515,3.515,0,0,1,119.674,248.122Z" transform="translate(-11.138 -8.236)"/><path class="cls-4" d="M61.736,266.2a2.228,2.228,0,0,1,2.224-2.224,2.158,2.158,0,0,1,1.578.65A2.227,2.227,0,1,1,61.736,266.2Z" transform="translate(-11.138 -8.236)"/><path class="cls-4" d="M87.664,267.99l1.705,0.431a5.741,5.741,0,0,1-1.929,3.2,5.315,5.315,0,0,1-3.406,1.1,6.12,6.12,0,0,1-3.388-.848,5.3,5.3,0,0,1-1.986-2.457,8.765,8.765,0,0,1-.681-3.454,7.59,7.59,0,0,1,.769-3.511,5.269,5.269,0,0,1,2.188-2.276,6.4,6.4,0,0,1,3.125-.778,5.282,5.282,0,0,1,3.252.984,5.112,5.112,0,0,1,1.837,2.769l-1.679.4a3.982,3.982,0,0,0-1.3-2.048,3.466,3.466,0,0,0-2.145-.642,4.166,4.166,0,0,0-2.483.712,3.761,3.761,0,0,0-1.4,1.912,7.693,7.693,0,0,0-.4,2.474,7.865,7.865,0,0,0,.479,2.87,3.567,3.567,0,0,0,1.49,1.832,4.178,4.178,0,0,0,2.188.606,3.667,3.667,0,0,0,2.426-.826A4.228,4.228,0,0,0,87.664,267.99Z" transform="translate(-11.138 -8.236)"/><path class="cls-4" d="M97.358,271.356a5.891,5.891,0,0,1-1.692,1.055,4.889,4.889,0,0,1-1.745.308,3.393,3.393,0,0,1-2.364-.751,2.481,2.481,0,0,1-.826-1.921,2.552,2.552,0,0,1,.312-1.252,2.585,2.585,0,0,1,.817-0.91A3.844,3.844,0,0,1,93,267.366a11.3,11.3,0,0,1,1.406-.237,14.46,14.46,0,0,0,2.821-.545q0.009-.325.009-0.413a1.747,1.747,0,0,0-.448-1.362,2.648,2.648,0,0,0-1.8-.536,2.794,2.794,0,0,0-1.648.392,2.388,2.388,0,0,0-.787,1.384L91,265.837a3.831,3.831,0,0,1,.694-1.6,3.043,3.043,0,0,1,1.4-.94,6.233,6.233,0,0,1,2.118-.33,5.606,5.606,0,0,1,1.942.281,2.56,2.56,0,0,1,1.1.708,2.486,2.486,0,0,1,.492,1.076,8.908,8.908,0,0,1,.079,1.459V268.6a22.4,22.4,0,0,0,.1,2.791,3.518,3.518,0,0,0,.4,1.12H97.675A3.354,3.354,0,0,1,97.358,271.356Zm-0.132-3.533a11.607,11.607,0,0,1-2.584.6,5.977,5.977,0,0,0-1.38.316,1.377,1.377,0,0,0-.624.515,1.4,1.4,0,0,0,.259,1.806,2.061,2.061,0,0,0,1.4.422,3.262,3.262,0,0,0,1.626-.4,2.464,2.464,0,0,0,1.046-1.095,3.822,3.822,0,0,0,.255-1.582v-0.58Z" transform="translate(-11.138 -8.236)"/><path class="cls-4" d="M100.645,269.722l1.564-.246a2.187,2.187,0,0,0,.734,1.441,2.558,2.558,0,0,0,1.683.5,2.473,2.473,0,0,0,1.617-.443,1.328,1.328,0,0,0,.527-1.042,0.961,0.961,0,0,0-.466-0.844,6.861,6.861,0,0,0-1.617-.536,14.769,14.769,0,0,1-2.413-.76,2.3,2.3,0,0,1-1.367-2.141,2.4,2.4,0,0,1,.286-1.155,2.563,2.563,0,0,1,.778-0.884,3.261,3.261,0,0,1,1.006-.461,4.785,4.785,0,0,1,1.367-.189,5.4,5.4,0,0,1,1.929.316,2.625,2.625,0,0,1,1.226.857,3.346,3.346,0,0,1,.545,1.445l-1.547.211a1.692,1.692,0,0,0-.611-1.125,2.234,2.234,0,0,0-1.428-.4,2.586,2.586,0,0,0-1.556.36,1.049,1.049,0,0,0-.466.844,0.873,0.873,0,0,0,.193.554,1.4,1.4,0,0,0,.606.422q0.237,0.088,1.4.4a19.431,19.431,0,0,1,2.342.734,2.375,2.375,0,0,1,1.042.83,2.318,2.318,0,0,1,.378,1.354,2.658,2.658,0,0,1-.461,1.49,2.982,2.982,0,0,1-1.332,1.081,4.847,4.847,0,0,1-1.969.382,4.386,4.386,0,0,1-2.773-.756A3.515,3.515,0,0,1,100.645,269.722Z" transform="translate(-11.138 -8.236)"/><path class="cls-4" d="M110.278,272.508V259.623h1.582v4.623a3.534,3.534,0,0,1,2.795-1.283,3.769,3.769,0,0,1,1.8.409,2.4,2.4,0,0,1,1.094,1.129,5.206,5.206,0,0,1,.33,2.092v5.915H116.3v-5.915a2.443,2.443,0,0,0-.514-1.727,1.912,1.912,0,0,0-1.455-.541,2.565,2.565,0,0,0-1.323.365,2.059,2.059,0,0,0-.883.988,4.541,4.541,0,0,0-.264,1.723v5.106h-1.582Z" transform="translate(-11.138 -8.236)"/><rect class="cls-1" x="255.769" y="74.305" width="152.55" height="127.61"/><rect class="cls-2" x="255.769" y="74.305" width="152.55" height="45.897"/><path class="cls-3" d="M271.466,100.75l4.948-12.885h1.837l5.273,12.885h-1.942l-1.5-3.9h-5.388l-1.415,3.9h-1.811Zm3.718-5.291h4.368l-1.345-3.568q-0.615-1.626-.914-2.672a16.425,16.425,0,0,1-.694,2.461Z" transform="translate(-11.138 -8.236)"/><path class="cls-3" d="M284.685,104.328V91.416h1.441v1.213a3.553,3.553,0,0,1,1.151-1.068,3.164,3.164,0,0,1,1.556-.356,3.688,3.688,0,0,1,2.109.615,3.776,3.776,0,0,1,1.38,1.736,6.338,6.338,0,0,1,.466,2.457,6.24,6.24,0,0,1-.515,2.58,3.876,3.876,0,0,1-1.494,1.758,3.835,3.835,0,0,1-2.061.611,2.979,2.979,0,0,1-1.42-.334,3.23,3.23,0,0,1-1.032-.844v4.544h-1.582Zm1.433-8.191a4.06,4.06,0,0,0,.729,2.663,2.237,2.237,0,0,0,1.767.861,2.286,2.286,0,0,0,1.806-.892A4.232,4.232,0,0,0,291.171,96a4.124,4.124,0,0,0-.734-2.672,2.209,2.209,0,0,0-1.753-.888,2.279,2.279,0,0,0-1.789.945A4.227,4.227,0,0,0,286.118,96.136Z" transform="translate(-11.138 -8.236)"/><path class="cls-3" d="M294.7,104.328V91.416h1.441v1.213a3.553,3.553,0,0,1,1.151-1.068,3.164,3.164,0,0,1,1.556-.356,3.688,3.688,0,0,1,2.109.615,3.776,3.776,0,0,1,1.38,1.736,6.338,6.338,0,0,1,.466,2.457,6.24,6.24,0,0,1-.515,2.58,3.876,3.876,0,0,1-1.494,1.758,3.835,3.835,0,0,1-2.061.611,2.979,2.979,0,0,1-1.42-.334,3.23,3.23,0,0,1-1.032-.844v4.544H294.7Zm1.433-8.191a4.06,4.06,0,0,0,.729,2.663,2.237,2.237,0,0,0,1.767.861,2.286,2.286,0,0,0,1.806-.892A4.232,4.232,0,0,0,301.182,96a4.124,4.124,0,0,0-.734-2.672,2.209,2.209,0,0,0-1.753-.888,2.279,2.279,0,0,0-1.789.945A4.227,4.227,0,0,0,296.128,96.136Z" transform="translate(-11.138 -8.236)"/><path class="cls-3" d="M304.689,100.75V91.416h1.424v1.415a3.861,3.861,0,0,1,1.006-1.31,1.758,1.758,0,0,1,1.016-.316,3.086,3.086,0,0,1,1.626.51l-0.545,1.468a2.264,2.264,0,0,0-1.16-.343,1.507,1.507,0,0,0-.932.312,1.69,1.69,0,0,0-.589.866,6.162,6.162,0,0,0-.264,1.846v4.887h-1.582Z" transform="translate(-11.138 -8.236)"/><path class="cls-3" d="M310.112,96.083a4.811,4.811,0,0,1,1.441-3.841,4.343,4.343,0,0,1,2.936-1.037,4.188,4.188,0,0,1,3.146,1.261,4.8,4.8,0,0,1,1.222,3.485,6.174,6.174,0,0,1-.541,2.834,3.826,3.826,0,0,1-1.573,1.6,4.579,4.579,0,0,1-2.254.571A4.2,4.2,0,0,1,311.32,99.7,5.02,5.02,0,0,1,310.112,96.083Zm1.626,0a3.976,3.976,0,0,0,.782,2.685,2.6,2.6,0,0,0,3.929,0,4.07,4.07,0,0,0,.782-2.733,3.857,3.857,0,0,0-.787-2.624,2.608,2.608,0,0,0-3.924,0A3.958,3.958,0,0,0,311.738,96.083Z" transform="translate(-11.138 -8.236)"/><path class="cls-3" d="M320.711,104.328V91.416h1.441v1.213a3.553,3.553,0,0,1,1.151-1.068,3.164,3.164,0,0,1,1.556-.356,3.688,3.688,0,0,1,2.109.615,3.776,3.776,0,0,1,1.38,1.736,6.338,6.338,0,0,1,.466,2.457,6.24,6.24,0,0,1-.515,2.58,3.876,3.876,0,0,1-1.494,1.758,3.835,3.835,0,0,1-2.061.611,2.979,2.979,0,0,1-1.42-.334,3.23,3.23,0,0,1-1.032-.844v4.544h-1.582Zm1.433-8.191a4.06,4.06,0,0,0,.729,2.663,2.237,2.237,0,0,0,1.767.861,2.286,2.286,0,0,0,1.806-.892A4.232,4.232,0,0,0,327.2,96a4.124,4.124,0,0,0-.734-2.672,2.209,2.209,0,0,0-1.753-.888,2.279,2.279,0,0,0-1.789.945A4.227,4.227,0,0,0,322.144,96.136Z" transform="translate(-11.138 -8.236)"/><path class="cls-3" d="M330.7,100.75V91.416h1.424v1.415a3.861,3.861,0,0,1,1.006-1.31,1.758,1.758,0,0,1,1.016-.316,3.086,3.086,0,0,1,1.626.51l-0.545,1.468a2.264,2.264,0,0,0-1.16-.343,1.507,1.507,0,0,0-.932.312,1.69,1.69,0,0,0-.589.866,6.162,6.162,0,0,0-.264,1.846v4.887H330.7Z" transform="translate(-11.138 -8.236)"/><path class="cls-3" d="M336.725,89.685V87.866h1.582v1.819h-1.582Zm0,11.065V91.416h1.582v9.334h-1.582Z" transform="translate(-11.138 -8.236)"/><path class="cls-3" d="M346.806,99.6a5.893,5.893,0,0,1-1.692,1.055,4.886,4.886,0,0,1-1.744.308,3.393,3.393,0,0,1-2.364-.751,2.48,2.48,0,0,1-.826-1.92,2.554,2.554,0,0,1,.312-1.252,2.583,2.583,0,0,1,.817-0.91,3.846,3.846,0,0,1,1.139-.519,11.3,11.3,0,0,1,1.406-.237,14.46,14.46,0,0,0,2.821-.545q0.009-.325.009-0.413a1.747,1.747,0,0,0-.448-1.362,2.648,2.648,0,0,0-1.8-.536,2.8,2.8,0,0,0-1.648.391A2.389,2.389,0,0,0,342,94.29l-1.547-.211a3.833,3.833,0,0,1,.694-1.6,3.043,3.043,0,0,1,1.4-.94,6.233,6.233,0,0,1,2.118-.33,5.606,5.606,0,0,1,1.942.281,2.559,2.559,0,0,1,1.1.708,2.488,2.488,0,0,1,.492,1.077,8.908,8.908,0,0,1,.079,1.459v2.109a22.428,22.428,0,0,0,.1,2.791,3.522,3.522,0,0,0,.4,1.121h-1.652A3.354,3.354,0,0,1,346.806,99.6Zm-0.132-3.533a11.607,11.607,0,0,1-2.584.6,5.977,5.977,0,0,0-1.38.316,1.376,1.376,0,0,0-.624.514,1.4,1.4,0,0,0,.259,1.806,2.062,2.062,0,0,0,1.4.422,3.263,3.263,0,0,0,1.626-.4,2.463,2.463,0,0,0,1.046-1.094,3.822,3.822,0,0,0,.255-1.582v-0.58Z" transform="translate(-11.138 -8.236)"/><path class="cls-3" d="M354.18,99.335l0.229,1.4a5.868,5.868,0,0,1-1.2.141,2.706,2.706,0,0,1-1.336-.272,1.526,1.526,0,0,1-.668-0.716,5.664,5.664,0,0,1-.193-1.868v-5.37h-1.16v-1.23h1.16V89.1l1.573-.949v3.261h1.591v1.23h-1.591V98.1a2.762,2.762,0,0,0,.083.87,0.659,0.659,0,0,0,.272.308,1.054,1.054,0,0,0,.541.114A5.146,5.146,0,0,0,354.18,99.335Z" transform="translate(-11.138 -8.236)"/><path class="cls-3" d="M362.117,97.745l1.635,0.2a3.989,3.989,0,0,1-1.433,2.224,4.854,4.854,0,0,1-5.92-.47,4.928,4.928,0,0,1-1.2-3.538,5.158,5.158,0,0,1,1.213-3.656,4.106,4.106,0,0,1,3.146-1.3,3.99,3.99,0,0,1,3.059,1.274,5.064,5.064,0,0,1,1.187,3.586q0,0.141-.009.422h-6.961a3.587,3.587,0,0,0,.87,2.355,2.59,2.59,0,0,0,1.951.817,2.421,2.421,0,0,0,1.485-.457A3.034,3.034,0,0,0,362.117,97.745Zm-5.194-2.558h5.212a3.162,3.162,0,0,0-.6-1.767,2.425,2.425,0,0,0-1.96-.914,2.514,2.514,0,0,0-1.833.729A2.887,2.887,0,0,0,356.922,95.187Z" transform="translate(-11.138 -8.236)"/><path class="cls-3" d="M368.533,100.75l4.948-12.885h1.837l5.273,12.885h-1.942l-1.5-3.9h-5.388l-1.415,3.9h-1.811Zm3.718-5.291h4.368l-1.345-3.568q-0.615-1.626-.914-2.672a16.425,16.425,0,0,1-.694,2.461Z" transform="translate(-11.138 -8.236)"/><path class="cls-3" d="M381.119,97.964l1.564-.246a2.186,2.186,0,0,0,.733,1.441,2.559,2.559,0,0,0,1.684.5,2.473,2.473,0,0,0,1.617-.444,1.327,1.327,0,0,0,.527-1.042,0.961,0.961,0,0,0-.466-0.844,6.861,6.861,0,0,0-1.617-.536,14.767,14.767,0,0,1-2.413-.76,2.3,2.3,0,0,1-1.366-2.14,2.4,2.4,0,0,1,.285-1.156,2.563,2.563,0,0,1,.778-0.883,3.258,3.258,0,0,1,1.006-.461,4.789,4.789,0,0,1,1.367-.189,5.4,5.4,0,0,1,1.929.316,2.626,2.626,0,0,1,1.227.857,3.349,3.349,0,0,1,.545,1.446l-1.547.211a1.692,1.692,0,0,0-.611-1.125,2.233,2.233,0,0,0-1.428-.4,2.586,2.586,0,0,0-1.556.36,1.049,1.049,0,0,0-.466.844,0.873,0.873,0,0,0,.193.554,1.4,1.4,0,0,0,.606.422q0.237,0.088,1.4.4a19.438,19.438,0,0,1,2.342.734,2.378,2.378,0,0,1,1.042.831,2.318,2.318,0,0,1,.378,1.354,2.657,2.657,0,0,1-.462,1.49,2.981,2.981,0,0,1-1.331,1.081,4.847,4.847,0,0,1-1.969.382,4.387,4.387,0,0,1-2.773-.756A3.515,3.515,0,0,1,381.119,97.964Z" transform="translate(-11.138 -8.236)"/><path class="cls-3" d="M390.119,97.964l1.564-.246a2.186,2.186,0,0,0,.733,1.441,2.559,2.559,0,0,0,1.684.5,2.473,2.473,0,0,0,1.617-.444,1.327,1.327,0,0,0,.527-1.042,0.961,0.961,0,0,0-.466-0.844,6.861,6.861,0,0,0-1.617-.536,14.767,14.767,0,0,1-2.413-.76,2.3,2.3,0,0,1-1.366-2.14,2.4,2.4,0,0,1,.285-1.156,2.563,2.563,0,0,1,.778-0.883,3.258,3.258,0,0,1,1.006-.461,4.789,4.789,0,0,1,1.367-.189,5.4,5.4,0,0,1,1.929.316,2.626,2.626,0,0,1,1.227.857,3.349,3.349,0,0,1,.545,1.446l-1.547.211a1.692,1.692,0,0,0-.611-1.125,2.233,2.233,0,0,0-1.428-.4,2.586,2.586,0,0,0-1.556.36,1.049,1.049,0,0,0-.466.844,0.873,0.873,0,0,0,.193.554,1.4,1.4,0,0,0,.606.422q0.237,0.088,1.4.4a19.438,19.438,0,0,1,2.342.734,2.378,2.378,0,0,1,1.042.831,2.318,2.318,0,0,1,.378,1.354,2.657,2.657,0,0,1-.462,1.49,2.981,2.981,0,0,1-1.331,1.081,4.847,4.847,0,0,1-1.969.382,4.387,4.387,0,0,1-2.773-.756A3.515,3.515,0,0,1,390.119,97.964Z" transform="translate(-11.138 -8.236)"/><path class="cls-3" d="M406.141,97.745l1.635,0.2a3.989,3.989,0,0,1-1.433,2.224,4.854,4.854,0,0,1-5.92-.47,4.928,4.928,0,0,1-1.2-3.538,5.158,5.158,0,0,1,1.213-3.656,4.106,4.106,0,0,1,3.146-1.3,3.99,3.99,0,0,1,3.059,1.274,5.064,5.064,0,0,1,1.187,3.586q0,0.141-.009.422h-6.961a3.587,3.587,0,0,0,.87,2.355,2.59,2.59,0,0,0,1.951.817,2.421,2.421,0,0,0,1.485-.457A3.034,3.034,0,0,0,406.141,97.745Zm-5.194-2.558h5.212a3.162,3.162,0,0,0-.6-1.767,2.425,2.425,0,0,0-1.96-.914,2.514,2.514,0,0,0-1.833.729A2.887,2.887,0,0,0,400.947,95.187Z" transform="translate(-11.138 -8.236)"/><path class="cls-3" d="M413.216,99.335l0.229,1.4a5.868,5.868,0,0,1-1.2.141,2.706,2.706,0,0,1-1.336-.272,1.526,1.526,0,0,1-.668-0.716,5.664,5.664,0,0,1-.193-1.868v-5.37h-1.16v-1.23h1.16V89.1l1.573-.949v3.261h1.591v1.23h-1.591V98.1a2.762,2.762,0,0,0,.083.87,0.659,0.659,0,0,0,.272.308,1.054,1.054,0,0,0,.541.114A5.146,5.146,0,0,0,413.216,99.335Z" transform="translate(-11.138 -8.236)"/><path class="cls-3" d="M272.829,122.35V109.466h2.566l3.05,9.123q0.422,1.274.615,1.907,0.22-.7.686-2.065l3.085-8.965h2.294V122.35h-1.644V111.566l-3.744,10.784H278.2l-3.727-10.969V122.35h-1.644Z" transform="translate(-11.138 -8.236)"/><path class="cls-3" d="M287.682,111.285v-1.819h1.582v1.819h-1.582Zm0,11.065v-9.334h1.582v9.334h-1.582Z" transform="translate(-11.138 -8.236)"/><path class="cls-3" d="M290.618,122.35l3.41-4.852-3.155-4.482h1.978l1.433,2.188q0.4,0.624.65,1.046,0.387-.58.712-1.028l1.573-2.206h1.89l-3.226,4.395,3.472,4.939h-1.942l-1.916-2.9-0.51-.782-2.452,3.683h-1.916Z" transform="translate(-11.138 -8.236)"/><path class="cls-4" d="M294.281,141.646a2.235,2.235,0,1,1,.654,1.578A2.135,2.135,0,0,1,294.281,141.646Z" transform="translate(-11.138 -8.236)"/><path class="cls-4" d="M310.435,143.817l1.608-.141a3.551,3.551,0,0,0,.531,1.586,2.9,2.9,0,0,0,1.3,1,4.909,4.909,0,0,0,1.978.382,4.739,4.739,0,0,0,1.723-.29,2.388,2.388,0,0,0,1.111-.8,1.845,1.845,0,0,0,.365-1.1,1.677,1.677,0,0,0-.352-1.059,2.6,2.6,0,0,0-1.16-.76,22.676,22.676,0,0,0-2.294-.628,11.721,11.721,0,0,1-2.487-.8,3.489,3.489,0,0,1-1.376-1.2,2.94,2.94,0,0,1-.452-1.6,3.275,3.275,0,0,1,.554-1.824,3.429,3.429,0,0,1,1.617-1.288,6.135,6.135,0,0,1,2.364-.439,6.456,6.456,0,0,1,2.526.461,3.646,3.646,0,0,1,1.684,1.358,3.9,3.9,0,0,1,.633,2.03l-1.635.123a2.638,2.638,0,0,0-.893-1.846,3.471,3.471,0,0,0-2.245-.624,3.605,3.605,0,0,0-2.255.567,1.7,1.7,0,0,0-.707,1.367,1.465,1.465,0,0,0,.5,1.143,6.785,6.785,0,0,0,2.57.918,17.014,17.014,0,0,1,2.853.822,3.906,3.906,0,0,1,1.661,1.314,3.2,3.2,0,0,1,.536,1.833,3.5,3.5,0,0,1-.589,1.938,3.879,3.879,0,0,1-1.692,1.415,5.892,5.892,0,0,1-2.482.505,7.416,7.416,0,0,1-2.932-.51,4.105,4.105,0,0,1-1.854-1.534A4.348,4.348,0,0,1,310.435,143.817Z" transform="translate(-11.138 -8.236)"/><path class="cls-4" d="M326.273,146.541l0.229,1.4a5.868,5.868,0,0,1-1.2.141,2.706,2.706,0,0,1-1.336-.272,1.526,1.526,0,0,1-.668-0.716,5.664,5.664,0,0,1-.193-1.868v-5.37h-1.16v-1.23h1.16v-2.312l1.573-.949v3.261h1.591v1.23h-1.591v5.458a2.762,2.762,0,0,0,.083.87,0.659,0.659,0,0,0,.272.308,1.054,1.054,0,0,0,.541.114A5.146,5.146,0,0,0,326.273,146.541Z" transform="translate(-11.138 -8.236)"/><path class="cls-4" d="M327.231,143.289a4.811,4.811,0,0,1,1.441-3.841,4.343,4.343,0,0,1,2.936-1.037,4.188,4.188,0,0,1,3.146,1.261,4.8,4.8,0,0,1,1.222,3.485,6.174,6.174,0,0,1-.541,2.834,3.826,3.826,0,0,1-1.573,1.6,4.579,4.579,0,0,1-2.254.571,4.2,4.2,0,0,1-3.169-1.257A5.02,5.02,0,0,1,327.231,143.289Zm1.626,0a3.976,3.976,0,0,0,.782,2.685,2.6,2.6,0,0,0,3.929,0,4.07,4.07,0,0,0,.782-2.733,3.857,3.857,0,0,0-.787-2.624,2.608,2.608,0,0,0-3.924,0A3.958,3.958,0,0,0,328.857,143.289Z" transform="translate(-11.138 -8.236)"/><path class="cls-4" d="M343.921,144.537l1.556,0.2a4.035,4.035,0,0,1-1.306,2.518,3.8,3.8,0,0,1-2.579.91,4.009,4.009,0,0,1-3.081-1.252,5.081,5.081,0,0,1-1.164-3.59,6.5,6.5,0,0,1,.5-2.646,3.492,3.492,0,0,1,1.524-1.7,4.526,4.526,0,0,1,2.229-.567,3.873,3.873,0,0,1,2.487.769,3.526,3.526,0,0,1,1.239,2.184l-1.538.237a2.555,2.555,0,0,0-.778-1.415,2.011,2.011,0,0,0-1.349-.475,2.456,2.456,0,0,0-1.942.857,4.068,4.068,0,0,0-.747,2.711,4.205,4.205,0,0,0,.721,2.733,2.345,2.345,0,0,0,1.881.853,2.217,2.217,0,0,0,1.556-.571A2.835,2.835,0,0,0,343.921,144.537Z" transform="translate(-11.138 -8.236)"/><path class="cls-4" d="M346.839,147.956V135.072h1.582v7.348l3.744-3.8h2.048l-3.568,3.463,3.929,5.871h-1.951l-3.085-4.772-1.116,1.072v3.7h-1.582Z" transform="translate(-11.138 -8.236)"/><path class="cls-4" d="M355.2,145.17l1.564-.246a2.186,2.186,0,0,0,.733,1.441,2.559,2.559,0,0,0,1.684.5,2.473,2.473,0,0,0,1.617-.444,1.327,1.327,0,0,0,.527-1.042,0.961,0.961,0,0,0-.466-0.844,6.861,6.861,0,0,0-1.617-.536,14.767,14.767,0,0,1-2.413-.76,2.3,2.3,0,0,1-1.366-2.14,2.4,2.4,0,0,1,.285-1.156,2.563,2.563,0,0,1,.778-0.883,3.258,3.258,0,0,1,1.006-.461,4.789,4.789,0,0,1,1.367-.189,5.4,5.4,0,0,1,1.929.316,2.626,2.626,0,0,1,1.227.857,3.349,3.349,0,0,1,.545,1.446l-1.547.211a1.692,1.692,0,0,0-.611-1.125,2.233,2.233,0,0,0-1.428-.4,2.586,2.586,0,0,0-1.556.36,1.049,1.049,0,0,0-.466.844,0.873,0.873,0,0,0,.193.554,1.4,1.4,0,0,0,.606.422q0.237,0.088,1.4.4a19.438,19.438,0,0,1,2.342.734,2.378,2.378,0,0,1,1.042.831,2.318,2.318,0,0,1,.378,1.354,2.657,2.657,0,0,1-.462,1.49,2.981,2.981,0,0,1-1.331,1.081,4.847,4.847,0,0,1-1.969.382,4.387,4.387,0,0,1-2.773-.756A3.515,3.515,0,0,1,355.2,145.17Z" transform="translate(-11.138 -8.236)"/><path class="cls-4" d="M294.281,163.246a2.235,2.235,0,1,1,.654,1.578A2.135,2.135,0,0,1,294.281,163.246Z" transform="translate(-11.138 -8.236)"/><path class="cls-4" d="M310.945,169.557V156.672h4.834a5.98,5.98,0,0,1,2.368.391,3.046,3.046,0,0,1,1.4,1.2,3.175,3.175,0,0,1,.506,1.7,2.922,2.922,0,0,1-.448,1.556,3.2,3.2,0,0,1-1.354,1.178,3.364,3.364,0,0,1,1.8,1.169,3.131,3.131,0,0,1,.629,1.951,3.764,3.764,0,0,1-.383,1.683,3.258,3.258,0,0,1-.944,1.2,3.946,3.946,0,0,1-1.411.637,8.575,8.575,0,0,1-2.078.215h-4.913Zm1.705-7.471h2.786a6.217,6.217,0,0,0,1.626-.149,1.806,1.806,0,0,0,.979-0.642,1.848,1.848,0,0,0,.33-1.125,2.072,2.072,0,0,0-.308-1.129,1.557,1.557,0,0,0-.879-0.668,7.34,7.34,0,0,0-1.96-.18H312.65v3.894Zm0,5.95h3.208a7.384,7.384,0,0,0,1.16-.062,2.78,2.78,0,0,0,.984-0.352,1.867,1.867,0,0,0,.65-0.716,2.242,2.242,0,0,0,.255-1.085,2.141,2.141,0,0,0-.369-1.252,1.948,1.948,0,0,0-1.024-.747,6.345,6.345,0,0,0-1.885-.215H312.65v4.43Z" transform="translate(-11.138 -8.236)"/><path class="cls-4" d="M322.23,164.89a4.811,4.811,0,0,1,1.441-3.841,4.343,4.343,0,0,1,2.936-1.037,4.188,4.188,0,0,1,3.146,1.261,4.8,4.8,0,0,1,1.222,3.485,6.174,6.174,0,0,1-.541,2.834,3.826,3.826,0,0,1-1.573,1.6,4.579,4.579,0,0,1-2.254.571,4.2,4.2,0,0,1-3.169-1.257A5.02,5.02,0,0,1,322.23,164.89Zm1.626,0a3.976,3.976,0,0,0,.782,2.685,2.6,2.6,0,0,0,3.929,0,4.07,4.07,0,0,0,.782-2.733,3.857,3.857,0,0,0-.787-2.624,2.608,2.608,0,0,0-3.924,0A3.958,3.958,0,0,0,323.856,164.89Z" transform="translate(-11.138 -8.236)"/><path class="cls-4" d="M332.83,169.557v-9.334h1.424v1.327a3.355,3.355,0,0,1,2.971-1.538,3.9,3.9,0,0,1,1.551.3,2.442,2.442,0,0,1,1.06.8,3.053,3.053,0,0,1,.492,1.169,9.059,9.059,0,0,1,.088,1.538v5.739h-1.582v-5.678a4.262,4.262,0,0,0-.185-1.446,1.522,1.522,0,0,0-.655-0.765,2.081,2.081,0,0,0-1.1-.286,2.564,2.564,0,0,0-1.745.642,3.165,3.165,0,0,0-.733,2.435v5.1H332.83Z" transform="translate(-11.138 -8.236)"/><path class="cls-4" d="M348.9,169.557v-1.178a2.9,2.9,0,0,1-2.61,1.389,3.662,3.662,0,0,1-2.053-.615,4.046,4.046,0,0,1-1.45-1.718,5.939,5.939,0,0,1-.514-2.536,6.637,6.637,0,0,1,.466-2.536,3.674,3.674,0,0,1,1.4-1.745,3.736,3.736,0,0,1,2.083-.606,3.113,3.113,0,0,1,2.575,1.283v-4.623h1.573v12.885H348.9Zm-5-4.658a4.054,4.054,0,0,0,.756,2.681,2.279,2.279,0,0,0,1.784.888,2.236,2.236,0,0,0,1.762-.848,3.91,3.91,0,0,0,.726-2.588,4.389,4.389,0,0,0-.738-2.812,2.271,2.271,0,0,0-1.819-.9,2.193,2.193,0,0,0-1.763.861A4.251,4.251,0,0,0,343.895,164.9Z" transform="translate(-11.138 -8.236)"/><path class="cls-4" d="M352.218,166.77l1.564-.246a2.186,2.186,0,0,0,.733,1.441,2.559,2.559,0,0,0,1.684.5,2.473,2.473,0,0,0,1.617-.444,1.327,1.327,0,0,0,.527-1.042,0.961,0.961,0,0,0-.466-0.844,6.861,6.861,0,0,0-1.617-.536,14.767,14.767,0,0,1-2.413-.76,2.3,2.3,0,0,1-1.366-2.14,2.4,2.4,0,0,1,.285-1.156,2.563,2.563,0,0,1,.778-0.883,3.258,3.258,0,0,1,1.006-.461,4.789,4.789,0,0,1,1.367-.189,5.4,5.4,0,0,1,1.929.316,2.626,2.626,0,0,1,1.227.857,3.349,3.349,0,0,1,.545,1.446l-1.547.211a1.692,1.692,0,0,0-.611-1.125,2.233,2.233,0,0,0-1.428-.4,2.586,2.586,0,0,0-1.556.36,1.049,1.049,0,0,0-.466.844,0.873,0.873,0,0,0,.193.554,1.4,1.4,0,0,0,.606.422q0.237,0.088,1.4.4a19.438,19.438,0,0,1,2.342.734,2.378,2.378,0,0,1,1.042.831,2.318,2.318,0,0,1,.378,1.354,2.657,2.657,0,0,1-.462,1.49,2.981,2.981,0,0,1-1.331,1.081,4.847,4.847,0,0,1-1.969.382,4.387,4.387,0,0,1-2.773-.756A3.515,3.515,0,0,1,352.218,166.77Z" transform="translate(-11.138 -8.236)"/><path class="cls-4" d="M294.281,184.846a2.235,2.235,0,1,1,.654,1.578A2.135,2.135,0,0,1,294.281,184.846Z" transform="translate(-11.138 -8.236)"/><path class="cls-4" d="M320.208,186.639l1.705,0.431a5.74,5.74,0,0,1-1.93,3.2,5.314,5.314,0,0,1-3.405,1.1,6.122,6.122,0,0,1-3.389-.848,5.3,5.3,0,0,1-1.986-2.457,8.765,8.765,0,0,1-.681-3.454,7.592,7.592,0,0,1,.769-3.511,5.269,5.269,0,0,1,2.188-2.276,6.4,6.4,0,0,1,3.125-.778,5.282,5.282,0,0,1,3.252.984,5.112,5.112,0,0,1,1.837,2.769l-1.679.4a3.982,3.982,0,0,0-1.3-2.048,3.466,3.466,0,0,0-2.145-.642,4.167,4.167,0,0,0-2.483.712,3.759,3.759,0,0,0-1.4,1.912,7.7,7.7,0,0,0-.4,2.474,7.863,7.863,0,0,0,.479,2.87,3.569,3.569,0,0,0,1.49,1.833,4.178,4.178,0,0,0,2.188.606,3.667,3.667,0,0,0,2.426-.826A4.228,4.228,0,0,0,320.208,186.639Z" transform="translate(-11.138 -8.236)"/><path class="cls-4" d="M329.9,190.005a5.893,5.893,0,0,1-1.692,1.055,4.886,4.886,0,0,1-1.744.308,3.393,3.393,0,0,1-2.364-.751,2.48,2.48,0,0,1-.826-1.92,2.554,2.554,0,0,1,.312-1.252,2.583,2.583,0,0,1,.817-0.91,3.846,3.846,0,0,1,1.139-.519,11.3,11.3,0,0,1,1.406-.237,14.46,14.46,0,0,0,2.821-.545q0.009-.325.009-0.413a1.747,1.747,0,0,0-.448-1.362,2.648,2.648,0,0,0-1.8-.536,2.8,2.8,0,0,0-1.648.391,2.389,2.389,0,0,0-.786,1.384l-1.547-.211a3.833,3.833,0,0,1,.694-1.6,3.043,3.043,0,0,1,1.4-.94,6.233,6.233,0,0,1,2.118-.33,5.606,5.606,0,0,1,1.942.281,2.559,2.559,0,0,1,1.1.708,2.488,2.488,0,0,1,.492,1.077,8.908,8.908,0,0,1,.079,1.459v2.109a22.428,22.428,0,0,0,.1,2.791,3.522,3.522,0,0,0,.4,1.121h-1.652A3.354,3.354,0,0,1,329.9,190.005Zm-0.132-3.533a11.607,11.607,0,0,1-2.584.6,5.977,5.977,0,0,0-1.38.316,1.376,1.376,0,0,0-.624.514,1.4,1.4,0,0,0,.259,1.806,2.062,2.062,0,0,0,1.4.422,3.263,3.263,0,0,0,1.626-.4,2.463,2.463,0,0,0,1.046-1.094,3.822,3.822,0,0,0,.255-1.582v-0.58Z" transform="translate(-11.138 -8.236)"/><path class="cls-4" d="M333.19,188.371l1.564-.246a2.186,2.186,0,0,0,.733,1.441,2.559,2.559,0,0,0,1.684.5,2.473,2.473,0,0,0,1.617-.444,1.327,1.327,0,0,0,.527-1.042,0.961,0.961,0,0,0-.466-0.844,6.861,6.861,0,0,0-1.617-.536,14.767,14.767,0,0,1-2.413-.76,2.3,2.3,0,0,1-1.366-2.14,2.4,2.4,0,0,1,.285-1.156,2.563,2.563,0,0,1,.778-0.883,3.258,3.258,0,0,1,1.006-.461,4.789,4.789,0,0,1,1.367-.189,5.4,5.4,0,0,1,1.929.316,2.626,2.626,0,0,1,1.227.857,3.349,3.349,0,0,1,.545,1.446l-1.547.211a1.692,1.692,0,0,0-.611-1.125,2.233,2.233,0,0,0-1.428-.4,2.586,2.586,0,0,0-1.556.36,1.049,1.049,0,0,0-.466.844,0.873,0.873,0,0,0,.193.554,1.4,1.4,0,0,0,.606.422q0.237,0.088,1.4.4a19.438,19.438,0,0,1,2.342.734,2.378,2.378,0,0,1,1.042.831,2.318,2.318,0,0,1,.378,1.354,2.657,2.657,0,0,1-.462,1.49,2.981,2.981,0,0,1-1.331,1.081,4.847,4.847,0,0,1-1.969.382,4.387,4.387,0,0,1-2.773-.756A3.515,3.515,0,0,1,333.19,188.371Z" transform="translate(-11.138 -8.236)"/><path class="cls-4" d="M342.823,191.157V178.272H344.4v4.623a3.534,3.534,0,0,1,2.795-1.283,3.769,3.769,0,0,1,1.8.409,2.4,2.4,0,0,1,1.094,1.129,5.205,5.205,0,0,1,.33,2.092v5.915h-1.582v-5.915a2.444,2.444,0,0,0-.515-1.727,1.911,1.911,0,0,0-1.454-.541,2.567,2.567,0,0,0-1.323.365,2.059,2.059,0,0,0-.883.989,4.541,4.541,0,0,0-.264,1.723v5.106h-1.582Z" transform="translate(-11.138 -8.236)"/><polygon class="cls-5" points="176.27 4.858 251.27 138.443 176.27 272.028 176.27 4.858"/><path class="cls-6" d="M21.166,208.444l0.5-1.989a6.7,6.7,0,0,1,3.737,2.251,6.2,6.2,0,0,1,1.286,3.973,7.134,7.134,0,0,1-.989,3.953,6.166,6.166,0,0,1-2.866,2.317,10.211,10.211,0,0,1-4.029.795,8.854,8.854,0,0,1-4.1-.9,6.142,6.142,0,0,1-2.655-2.553,7.456,7.456,0,0,1-.908-3.646,6.169,6.169,0,0,1,1.148-3.794,5.969,5.969,0,0,1,3.23-2.143l0.461,1.958a4.648,4.648,0,0,0-2.389,1.518,4.044,4.044,0,0,0-.748,2.5,4.858,4.858,0,0,0,.83,2.9,4.382,4.382,0,0,0,2.23,1.636,8.978,8.978,0,0,0,2.887.472,9.173,9.173,0,0,0,3.348-.559,4.165,4.165,0,0,0,2.138-1.738,4.875,4.875,0,0,0,.708-2.553,4.274,4.274,0,0,0-.965-2.83A4.928,4.928,0,0,0,21.166,208.444Z" transform="translate(-11.138 -8.236)"/><path class="cls-6" d="M26.437,204.086H11.4V202.1H24.664v-7.4h1.773v9.393Z" transform="translate(-11.138 -8.236)"/><path class="cls-6" d="M26.437,191.987H11.4V190H26.437v1.989Z" transform="translate(-11.138 -8.236)"/><path class="cls-6" d="M26.437,186.45H11.4V175.58h1.774v8.88h4.6v-8.316h1.764v8.316h5.117v-9.229h1.773V186.45Z" transform="translate(-11.138 -8.236)"/><path class="cls-6" d="M26.437,172.5H11.4v-2.041l11.8-7.9H11.4v-1.907H26.437V162.7l-11.812,7.9H26.437V172.5Z" transform="translate(-11.138 -8.236)"/><path class="cls-6" d="M26.437,153.494H13.179v4.953H11.4V146.531h1.774V151.5H26.437v1.989Z" transform="translate(-11.138 -8.236)"/><path class="cls-6" d="M20.54,132H18.777l-0.01-6.368h5.578a11.258,11.258,0,0,1,1.759,3.025,8.982,8.982,0,0,1,.589,3.2,8.528,8.528,0,0,1-.948,4.024A6.261,6.261,0,0,1,23,138.615a8.631,8.631,0,0,1-4.009.923,9.306,9.306,0,0,1-4.1-.917,6.1,6.1,0,0,1-2.824-2.641,8.275,8.275,0,0,1-.924-3.968,7.871,7.871,0,0,1,.528-2.948A4.893,4.893,0,0,1,13.148,127a6.527,6.527,0,0,1,2.461-1.138l0.492,1.794a5.554,5.554,0,0,0-1.8.841,3.445,3.445,0,0,0-1.051,1.436A5.256,5.256,0,0,0,12.851,132a6.09,6.09,0,0,0,.415,2.358,4.39,4.39,0,0,0,1.092,1.6,5.2,5.2,0,0,0,1.487.949,7.865,7.865,0,0,0,3.024.574,7.346,7.346,0,0,0,3.363-.692,4.432,4.432,0,0,0,2.01-2.015,6.238,6.238,0,0,0,.656-2.81,6.684,6.684,0,0,0-.5-2.522,6.521,6.521,0,0,0-1.062-1.866h-2.8V132Z" transform="translate(-11.138 -8.236)"/><path class="cls-6" d="M19.116,123.306a8.17,8.17,0,0,1-5.86-2.01,6.835,6.835,0,0,1-2.117-5.188,7.207,7.207,0,0,1,.994-3.753,6.5,6.5,0,0,1,2.774-2.548,9.013,9.013,0,0,1,4.034-.876,8.857,8.857,0,0,1,4.092.923,6.3,6.3,0,0,1,2.732,2.615,7.465,7.465,0,0,1,.928,3.65,7.1,7.1,0,0,1-1.025,3.794,6.592,6.592,0,0,1-2.8,2.533A8.484,8.484,0,0,1,19.116,123.306Zm0.03-2.051a6.018,6.018,0,0,0,4.281-1.461,5.1,5.1,0,0,0-.016-7.362,6.384,6.384,0,0,0-4.48-1.451,7.7,7.7,0,0,0-3.2.621,4.77,4.77,0,0,0-2.123,1.814,4.926,4.926,0,0,0-.753,2.682,5.086,5.086,0,0,0,1.45,3.635Q15.753,121.256,19.146,121.255Z" transform="translate(-11.138 -8.236)"/><path class="cls-6" d="M26.437,108.017L11.4,102.245V100.1l15.032-6.152v2.266l-4.553,1.753v6.286l4.553,1.651v2.112Zm-6.173-4.337v-5.1L16.1,100.153q-1.9.718-3.117,1.066a19.163,19.163,0,0,1,2.871.81Z" transform="translate(-11.138 -8.236)"/><path class="cls-6" d="M26.437,92.442H11.4V90.453H24.664v-7.4h1.773v9.393Z" transform="translate(-11.138 -8.236)"/><path class="cls-6" d="M21.607,81.357l-0.164-1.876a4.139,4.139,0,0,0,1.852-.621,3.39,3.39,0,0,0,1.169-1.512,5.736,5.736,0,0,0,.446-2.307,5.528,5.528,0,0,0-.339-2.01,2.788,2.788,0,0,0-.928-1.3,2.151,2.151,0,0,0-1.287-.426,1.955,1.955,0,0,0-1.235.41,3.034,3.034,0,0,0-.887,1.354,26.3,26.3,0,0,0-.733,2.676,13.7,13.7,0,0,1-.938,2.9,4.068,4.068,0,0,1-1.4,1.6,3.428,3.428,0,0,1-1.872.528,3.819,3.819,0,0,1-2.127-.646,4,4,0,0,1-1.5-1.887,7.158,7.158,0,0,1-.514-2.758,7.529,7.529,0,0,1,.539-2.948,4.256,4.256,0,0,1,1.584-1.964,4.567,4.567,0,0,1,2.369-.738l0.143,1.908a3.074,3.074,0,0,0-2.152,1.04,4.053,4.053,0,0,0-.729,2.62,4.206,4.206,0,0,0,.661,2.63,1.984,1.984,0,0,0,1.595.826,1.709,1.709,0,0,0,1.333-.584,7.91,7.91,0,0,0,1.071-3,19.891,19.891,0,0,1,.959-3.327,4.556,4.556,0,0,1,1.533-1.938,3.733,3.733,0,0,1,2.138-.626,4.087,4.087,0,0,1,2.261.688A4.527,4.527,0,0,1,26.1,72.052a6.885,6.885,0,0,1,.589,2.9,8.665,8.665,0,0,1-.594,3.419,4.789,4.789,0,0,1-1.79,2.164A5.074,5.074,0,0,1,21.607,81.357Z" transform="translate(-11.138 -8.236)"/><line class="cls-7" x1="9.013" y1="58.305" x2="9.013" y2="1.828"/><line class="cls-7" x1="9.013" y1="277.359" x2="9.013" y2="215.554"/></svg>