<svg id="Layer_1" data-name="Layer 1" xmlns="http://www.w3.org/2000/svg" viewBox="0 0 901.65 408.04"><defs><style>.cls-1,.cls-3{fill:#fff;}.cls-1{stroke:#28538c;}.cls-1,.cls-11{stroke-miterlimit:10;}.cls-2{fill:#28538c;}.cls-3,.cls-5,.cls-6{font-size:18px;}.cls-3,.cls-5,.cls-7,.cls-9{font-family:Arial;}.cls-4{letter-spacing:-1px;}.cls-5,.cls-6{fill:#231f20;}.cls-10,.cls-5,.cls-7{white-space:pre;}.cls-6{font-family:Source Sans Pro;}.cls-8{fill:#28548c;}.cls-9{font-size:21px;fill:#939393;}.cls-11{fill:none;stroke:#939393;}</style></defs><title>Tactical_Asset_Allocation</title><rect class="cls-1" x="26.11" y="130.68" width="152.55" height="127.61"/><rect class="cls-2" x="26.11" y="130.68" width="152.55" height="45.9"/><text class="cls-3" transform="translate(34.7 149.15)">Relative Market<tspan class="cls-4" x="0" y="21.6">V</tspan><tspan x="10.67" y="21.6">aluation</tspan></text><text class="cls-5" transform="translate(52.53 202)">•  Stocks<tspan x="0" y="21.6">•  Bonds</tspan><tspan x="0" y="43.2">•  Cash</tspan></text><rect class="cls-1" x="25.95" y="279.93" width="152.55" height="127.61"/><rect class="cls-2" x="25.95" y="279.93" width="152.55" height="45.9"/><text class="cls-3" transform="translate(34.53 297.4)">History of<tspan x="0" y="21.6">Asset Classes</tspan></text><text class="cls-6" transform="translate(52.36 351.25)">•<tspan class="cls-7" x="5.47" y="0">  Stocks</tspan><tspan class="cls-7"><tspan x="0" y="21.6">•  Bonds</tspan><tspan x="0" y="43.2">•  Cash</tspan></tspan></text><rect class="cls-1" x="258.49" y="204.49" width="152.55" height="127.61"/><rect class="cls-2" x="258.49" y="204.49" width="152.55" height="45.9"/><text class="cls-3" transform="translate(263.08 222.7)">Appropriate<tspan x="93.06" y="0"> </tspan><tspan x="97.07" y="0">Asset </tspan><tspan x="0" y="21.6">Mix</tspan></text><text class="cls-5" transform="translate(284.91 269.9)">•  Stocks<tspan x="0" y="21.6">•  Bonds</tspan><tspan x="0" y="43.2">•  Cash</tspan></text><polygon class="cls-8" points="178.99 135.04 253.99 268.62 178.99 402.21 178.99 135.04"/><text class="cls-9" transform="translate(18.02 342.73) rotate(-90)">CLIEN<tspan x="61.85" y="0">T</tspan><tspan class="cls-10" x="74.3" y="0"> GOALS</tspan></text><line class="cls-11" x1="11.74" y1="188.49" x2="11.74" y2="132.01"/><line class="cls-11" x1="11.74" y1="407.54" x2="11.74" y2="345.73"/><text x="-16.12" y="113.54"/></svg>