<svg id="Layer_1" data-name="Layer 1" xmlns="http://www.w3.org/2000/svg" viewBox="0 0 575.201 228.852"><defs><style>.cls-1{fill:#138f45;}.cls-2{fill:#2d479d;}.cls-3,.cls-4,.cls-5,.cls-6{fill:none;stroke-miterlimit:10;}.cls-3,.cls-4{stroke:#231f20;}.cls-4,.cls-5,.cls-6{stroke-width:3px;}.cls-5,.cls-6{stroke:#ed1c24;}.cls-6{stroke-dasharray:11.777 11.777;}.cls-7{fill:#8e191c;}.cls-8{fill:#fff;}.cls-9{fill:#231f20;}.cls-10{fill:#af6f29;}</style></defs><title>Gifting_Life_Insurance</title><rect class="cls-1" y="39.903" width="123.574" height="58.997"/><rect class="cls-2" x="451.627" y="39.903" width="123.574" height="58.997"/><line class="cls-3" x1="137.925" y1="44.686" x2="137.925" y2="94.116"/><line class="cls-3" x1="438.489" y1="44.686" x2="438.489" y2="94.116"/><line class="cls-4" x1="137.924" y1="69.401" x2="438.488" y2="69.401"/><line class="cls-5" x1="288.206" y1="9.894" x2="288.206" y2="15.894"/><line class="cls-6" x1="288.206" y1="27.671" x2="288.206" y2="115.999"/><line class="cls-5" x1="288.206" y1="121.888" x2="288.206" y2="127.888"/><line class="cls-3" x1="213.664" y1="48.13" x2="213.664" y2="89.875"/><line class="cls-3" x1="294.377" y1="48.019" x2="294.377" y2="89.763"/><line class="cls-3" x1="422.544" y1="48.529" x2="422.544" y2="90.273"/><rect class="cls-7" x="202.885" y="169.855" width="123.574" height="58.997"/><path class="cls-8" d="M75.386,86.847V85.594l4.525-.007v3.964a7.976,7.976,0,0,1-2.149,1.25,6.38,6.38,0,0,1-2.274.419,6.069,6.069,0,0,1-2.86-.674,4.455,4.455,0,0,1-1.942-1.95,6.139,6.139,0,0,1-.656-2.849,6.611,6.611,0,0,1,.652-2.912,4.335,4.335,0,0,1,1.876-2.007,5.875,5.875,0,0,1,2.82-.656,5.591,5.591,0,0,1,2.1.375,3.476,3.476,0,0,1,1.469,1.046,4.637,4.637,0,0,1,.809,1.749l-1.275.35a3.953,3.953,0,0,0-.6-1.283,2.458,2.458,0,0,0-1.021-.747,3.741,3.741,0,0,0-1.472-.281,4.333,4.333,0,0,0-1.676.295,3.124,3.124,0,0,0-1.141.776A3.711,3.711,0,0,0,71.9,83.51a5.593,5.593,0,0,0-.408,2.15,5.213,5.213,0,0,0,.492,2.39,3.147,3.147,0,0,0,1.432,1.428,4.43,4.43,0,0,0,2,.466,4.74,4.74,0,0,0,1.793-.354,4.623,4.623,0,0,0,1.326-.754v-1.99Z" transform="translate(-18.308 -16.148)"/><path class="cls-8" d="M81.836,81.863V80.354h1.312v1.508Zm0,9.175V83.3h1.312v7.739Z" transform="translate(-18.308 -16.148)"/><path class="cls-8" d="M85.458,91.038V84.319H84.3V83.3h1.159v-.823a3.606,3.606,0,0,1,.138-1.159,1.677,1.677,0,0,1,.667-.827,2.4,2.4,0,0,1,1.337-.317,6.432,6.432,0,0,1,1.225.131l-.2,1.144a4.43,4.43,0,0,0-.772-.073,1.149,1.149,0,0,0-.845.255,1.382,1.382,0,0,0-.248.955V83.3h1.508v1.021H86.762v6.719Z" transform="translate(-18.308 -16.148)"/><path class="cls-8" d="M92.155,89.864l.189,1.159a4.873,4.873,0,0,1-.991.117,2.239,2.239,0,0,1-1.107-.226,1.263,1.263,0,0,1-.554-.594,4.693,4.693,0,0,1-.161-1.549V84.319h-.962V83.3h.962V81.382l1.3-.787v2.7h1.319v1.021H90.836v4.525a2.274,2.274,0,0,0,.069.721.546.546,0,0,0,.226.255.875.875,0,0,0,.448.095A4.239,4.239,0,0,0,92.155,89.864Z" transform="translate(-18.308 -16.148)"/><path class="cls-8" d="M501.786,88.407V77.724h4.737a6.309,6.309,0,0,1,2.172.288,2.374,2.374,0,0,1,1.188,1.017,3.037,3.037,0,0,1,.444,1.61,2.689,2.689,0,0,1-.735,1.917,3.728,3.728,0,0,1-2.274.991,3.684,3.684,0,0,1,.853.532,7.339,7.339,0,0,1,1.174,1.421l1.858,2.908h-1.778l-1.414-2.223q-.62-.962-1.021-1.472a3.18,3.18,0,0,0-.718-.714,2.1,2.1,0,0,0-.645-.284,4.227,4.227,0,0,0-.787-.051H503.2v4.744Zm1.414-5.968h3.039a4.553,4.553,0,0,0,1.516-.2,1.612,1.612,0,0,0,.831-.641,1.735,1.735,0,0,0,.284-.958,1.592,1.592,0,0,0-.551-1.246,2.574,2.574,0,0,0-1.737-.488H503.2Z" transform="translate(-18.308 -16.148)"/><path class="cls-8" d="M517.673,85.915l1.355.167a3.306,3.306,0,0,1-1.187,1.844,4.025,4.025,0,0,1-4.908-.39,4.087,4.087,0,0,1-.994-2.934,4.278,4.278,0,0,1,1-3.031,3.4,3.4,0,0,1,2.609-1.079,3.308,3.308,0,0,1,2.536,1.057,4.2,4.2,0,0,1,.983,2.973c0,.078,0,.194-.007.35h-5.771a2.973,2.973,0,0,0,.721,1.953,2.147,2.147,0,0,0,1.618.678,2,2,0,0,0,1.231-.379A2.516,2.516,0,0,0,517.673,85.915Zm-4.307-2.121h4.321a2.615,2.615,0,0,0-.5-1.465,2.011,2.011,0,0,0-1.625-.758,2.083,2.083,0,0,0-1.52.6A2.4,2.4,0,0,0,513.366,83.794Z" transform="translate(-18.308 -16.148)"/><path class="cls-8" d="M525.727,85.572l1.29.168a3.346,3.346,0,0,1-1.083,2.087,3.15,3.15,0,0,1-2.139.754,3.322,3.322,0,0,1-2.554-1.039,4.208,4.208,0,0,1-.966-2.977,5.4,5.4,0,0,1,.415-2.194,2.9,2.9,0,0,1,1.265-1.41,3.751,3.751,0,0,1,1.848-.47,3.213,3.213,0,0,1,2.063.638,2.929,2.929,0,0,1,1.027,1.811l-1.275.2a2.12,2.12,0,0,0-.646-1.173,1.666,1.666,0,0,0-1.118-.394,2.035,2.035,0,0,0-1.61.71,3.372,3.372,0,0,0-.619,2.248,3.487,3.487,0,0,0,.6,2.267,1.946,1.946,0,0,0,1.56.707,1.836,1.836,0,0,0,1.29-.474A2.353,2.353,0,0,0,525.727,85.572Z" transform="translate(-18.308 -16.148)"/><path class="cls-8" d="M528.146,79.232V77.724h1.312v1.508Zm0,9.175V80.667h1.312v7.739Z" transform="translate(-18.308 -16.148)"/><path class="cls-8" d="M531.453,91.373V80.667h1.2v1.006a2.954,2.954,0,0,1,.955-.886,2.622,2.622,0,0,1,1.29-.295,3.059,3.059,0,0,1,1.749.51,3.134,3.134,0,0,1,1.144,1.439,5.25,5.25,0,0,1,.387,2.037,5.172,5.172,0,0,1-.427,2.139,3.212,3.212,0,0,1-1.239,1.458,3.178,3.178,0,0,1-1.708.506,2.472,2.472,0,0,1-1.178-.277,2.676,2.676,0,0,1-.855-.7v3.768Zm1.188-6.792a3.366,3.366,0,0,0,.6,2.208,1.855,1.855,0,0,0,1.465.714,1.9,1.9,0,0,0,1.5-.739,3.512,3.512,0,0,0,.623-2.292,3.415,3.415,0,0,0-.609-2.215,1.83,1.83,0,0,0-1.453-.736,1.889,1.889,0,0,0-1.483.784A3.506,3.506,0,0,0,532.642,84.581Z" transform="translate(-18.308 -16.148)"/><path class="cls-8" d="M539.762,79.232V77.724h1.312v1.508Zm0,9.175V80.667h1.312v7.739Z" transform="translate(-18.308 -16.148)"/><path class="cls-8" d="M548.367,85.915l1.355.167a3.306,3.306,0,0,1-1.187,1.844,4.025,4.025,0,0,1-4.908-.39,4.087,4.087,0,0,1-.994-2.934,4.278,4.278,0,0,1,1-3.031,3.4,3.4,0,0,1,2.609-1.079,3.308,3.308,0,0,1,2.536,1.057,4.2,4.2,0,0,1,.983,2.973c0,.078,0,.194-.007.35h-5.771a2.973,2.973,0,0,0,.721,1.953,2.147,2.147,0,0,0,1.618.678,2,2,0,0,0,1.231-.379A2.516,2.516,0,0,0,548.367,85.915Zm-4.307-2.121h4.321a2.615,2.615,0,0,0-.5-1.465,2.011,2.011,0,0,0-1.625-.758,2.083,2.083,0,0,0-1.52.6A2.4,2.4,0,0,0,544.061,83.794Z" transform="translate(-18.308 -16.148)"/><path class="cls-8" d="M551.37,88.407V80.667h1.181v1.1a2.783,2.783,0,0,1,2.464-1.275,3.237,3.237,0,0,1,1.286.251,2.024,2.024,0,0,1,.878.659,2.541,2.541,0,0,1,.408.969,7.615,7.615,0,0,1,.072,1.275v4.759h-1.312V83.7a3.518,3.518,0,0,0-.153-1.2,1.255,1.255,0,0,0-.543-.634,1.727,1.727,0,0,0-.914-.237,2.123,2.123,0,0,0-1.446.532,2.621,2.621,0,0,0-.608,2.019v4.227Z" transform="translate(-18.308 -16.148)"/><path class="cls-8" d="M562.535,87.233l.189,1.159a4.87,4.87,0,0,1-.991.117,2.242,2.242,0,0,1-1.107-.226,1.26,1.26,0,0,1-.554-.594,4.683,4.683,0,0,1-.16-1.549V81.688h-.962V80.667h.962V78.751l1.3-.787v2.7h1.319v1.021h-1.319v4.525a2.289,2.289,0,0,0,.069.721.553.553,0,0,0,.227.255.875.875,0,0,0,.448.095A4.246,4.246,0,0,0,562.535,87.233Z" transform="translate(-18.308 -16.148)"/><path class="cls-9" d="M331.548,22.2l-7.076,3.024v-1.3l5.6-2.325-5.6-2.3v-1.3l7.076,2.988Z" transform="translate(-18.308 -16.148)"/><path class="cls-9" d="M337.625,26.875V16.192h2.128l2.529,7.564q.349,1.057.51,1.582.182-.583.568-1.712l2.558-7.433h1.9V26.875h-1.362V17.934l-3.1,8.941h-1.275l-3.09-9.095v9.095Z" transform="translate(-18.308 -16.148)"/><path class="cls-9" d="M349.445,23.006a3.989,3.989,0,0,1,1.2-3.185,3.6,3.6,0,0,1,2.435-.86,3.471,3.471,0,0,1,2.608,1.046A3.975,3.975,0,0,1,356.7,22.9a5.118,5.118,0,0,1-.448,2.35,3.167,3.167,0,0,1-1.3,1.33,3.8,3.8,0,0,1-1.869.474,3.479,3.479,0,0,1-2.628-1.042A4.162,4.162,0,0,1,349.445,23.006Zm1.349,0a3.3,3.3,0,0,0,.648,2.227,2.16,2.16,0,0,0,3.258,0,3.378,3.378,0,0,0,.648-2.266,3.2,3.2,0,0,0-.652-2.175,2.163,2.163,0,0,0-3.254,0A3.28,3.28,0,0,0,350.794,23.006Z" transform="translate(-18.308 -16.148)"/><path class="cls-9" d="M358.22,26.875V19.136H359.4V20.31a3.212,3.212,0,0,1,.835-1.086,1.456,1.456,0,0,1,.842-.262,2.558,2.558,0,0,1,1.348.423l-.451,1.217a1.88,1.88,0,0,0-.962-.284,1.247,1.247,0,0,0-.772.259,1.4,1.4,0,0,0-.488.718,5.086,5.086,0,0,0-.219,1.53v4.052Z" transform="translate(-18.308 -16.148)"/><path class="cls-9" d="M368.5,24.383l1.355.167a3.306,3.306,0,0,1-1.187,1.844,4.025,4.025,0,0,1-4.908-.39,4.087,4.087,0,0,1-.994-2.934,4.278,4.278,0,0,1,1-3.031,3.4,3.4,0,0,1,2.609-1.079,3.308,3.308,0,0,1,2.536,1.057,4.2,4.2,0,0,1,.983,2.973c0,.078,0,.194-.007.35h-5.771a2.973,2.973,0,0,0,.721,1.953,2.147,2.147,0,0,0,1.618.678,2,2,0,0,0,1.231-.379A2.516,2.516,0,0,0,368.5,24.383ZM364.2,22.263h4.321a2.615,2.615,0,0,0-.5-1.465,2.011,2.011,0,0,0-1.625-.758,2.083,2.083,0,0,0-1.52.6A2.4,2.4,0,0,0,364.2,22.263Z" transform="translate(-18.308 -16.148)"/><path class="cls-9" d="M378.516,25.7l.189,1.159a4.87,4.87,0,0,1-.991.117,2.242,2.242,0,0,1-1.107-.226,1.26,1.26,0,0,1-.554-.594,4.683,4.683,0,0,1-.16-1.549V20.157h-.962V19.136h.962V17.22l1.3-.787v2.7h1.319v1.021H377.2v4.525a2.289,2.289,0,0,0,.069.721.553.553,0,0,0,.227.255.875.875,0,0,0,.448.095A4.246,4.246,0,0,0,378.516,25.7Z" transform="translate(-18.308 -16.148)"/><path class="cls-9" d="M379.8,26.875V16.192h1.313v3.833a2.928,2.928,0,0,1,2.317-1.064,3.118,3.118,0,0,1,1.493.339,1.987,1.987,0,0,1,.907.937,4.309,4.309,0,0,1,.273,1.734v4.9H384.79v-4.9a2.027,2.027,0,0,0-.426-1.432,1.587,1.587,0,0,0-1.206-.448,2.128,2.128,0,0,0-1.1.3,1.714,1.714,0,0,0-.732.82,3.77,3.77,0,0,0-.218,1.428v4.234Z" transform="translate(-18.308 -16.148)"/><path class="cls-9" d="M393.149,25.921a4.89,4.89,0,0,1-1.4.875,4.055,4.055,0,0,1-1.446.255,2.81,2.81,0,0,1-1.96-.623,2.056,2.056,0,0,1-.686-1.592,2.114,2.114,0,0,1,.259-1.039,2.148,2.148,0,0,1,.678-.754,3.187,3.187,0,0,1,.943-.43,9.484,9.484,0,0,1,1.166-.2,11.983,11.983,0,0,0,2.34-.452c0-.18.007-.294.007-.343a1.451,1.451,0,0,0-.371-1.129,2.2,2.2,0,0,0-1.494-.444,2.315,2.315,0,0,0-1.366.324,1.98,1.98,0,0,0-.652,1.147l-1.282-.175a3.166,3.166,0,0,1,.575-1.33,2.522,2.522,0,0,1,1.159-.78,5.152,5.152,0,0,1,1.756-.273,4.643,4.643,0,0,1,1.61.233,2.118,2.118,0,0,1,.911.586,2.069,2.069,0,0,1,.408.893,7.37,7.37,0,0,1,.065,1.21v1.749a18.585,18.585,0,0,0,.084,2.313,2.916,2.916,0,0,0,.331.929h-1.37A2.792,2.792,0,0,1,393.149,25.921Zm-.109-2.93a9.615,9.615,0,0,1-2.143.5,4.962,4.962,0,0,0-1.145.262,1.142,1.142,0,0,0-.517.426,1.158,1.158,0,0,0,.215,1.5,1.708,1.708,0,0,0,1.162.35,2.7,2.7,0,0,0,1.348-.332,2.042,2.042,0,0,0,.867-.907,3.157,3.157,0,0,0,.212-1.312Z" transform="translate(-18.308 -16.148)"/><path class="cls-9" d="M396.4,26.875V19.136h1.181v1.1a2.783,2.783,0,0,1,2.464-1.275,3.237,3.237,0,0,1,1.286.251,2.024,2.024,0,0,1,.878.659,2.541,2.541,0,0,1,.408.969,7.615,7.615,0,0,1,.072,1.275v4.759h-1.312V22.168a3.518,3.518,0,0,0-.153-1.2,1.255,1.255,0,0,0-.543-.634,1.727,1.727,0,0,0-.914-.237,2.123,2.123,0,0,0-1.446.532,2.621,2.621,0,0,0-.608,2.019v4.227Z" transform="translate(-18.308 -16.148)"/><path class="cls-9" d="M408.49,24.055l1.312-.175a2.894,2.894,0,0,0,.769,1.607,1.9,1.9,0,0,0,1.323.492,2.118,2.118,0,0,0,1.563-.641,2.162,2.162,0,0,0,.638-1.589,2.013,2.013,0,0,0-.59-1.49,2.041,2.041,0,0,0-1.5-.586,3.763,3.763,0,0,0-.926.146l.146-1.151a2.007,2.007,0,0,0,.212.015,2.7,2.7,0,0,0,1.508-.437,1.5,1.5,0,0,0,.671-1.348,1.6,1.6,0,0,0-.488-1.2,1.736,1.736,0,0,0-1.261-.474,1.785,1.785,0,0,0-1.275.481,2.42,2.42,0,0,0-.656,1.443l-1.312-.233a3.371,3.371,0,0,1,1.093-2.044,3.16,3.16,0,0,1,2.121-.725,3.488,3.488,0,0,1,1.61.375,2.708,2.708,0,0,1,1.126,1.024,2.629,2.629,0,0,1,.39,1.377,2.259,2.259,0,0,1-.371,1.261,2.544,2.544,0,0,1-1.1.9,2.476,2.476,0,0,1,1.472.907,2.763,2.763,0,0,1,.525,1.724,3.156,3.156,0,0,1-1.021,2.372,3.59,3.59,0,0,1-2.58.973,3.355,3.355,0,0,1-2.335-.838A3.236,3.236,0,0,1,408.49,24.055Z" transform="translate(-18.308 -16.148)"/><path class="cls-9" d="M424.2,26.875V22.35l-4.117-6.158h1.72l2.105,3.221q.583.9,1.086,1.808.482-.839,1.166-1.888l2.07-3.141h1.646l-4.263,6.158v4.525Z" transform="translate(-18.308 -16.148)"/><path class="cls-9" d="M434.906,24.383l1.355.167a3.306,3.306,0,0,1-1.187,1.844,4.025,4.025,0,0,1-4.908-.39,4.087,4.087,0,0,1-.994-2.934,4.278,4.278,0,0,1,1-3.031,3.4,3.4,0,0,1,2.609-1.079,3.308,3.308,0,0,1,2.536,1.057,4.2,4.2,0,0,1,.983,2.973c0,.078,0,.194-.007.35h-5.771a2.973,2.973,0,0,0,.721,1.953,2.147,2.147,0,0,0,1.618.678,2,2,0,0,0,1.231-.379A2.516,2.516,0,0,0,434.906,24.383ZM430.6,22.263h4.321a2.615,2.615,0,0,0-.5-1.465,2.011,2.011,0,0,0-1.625-.758,2.083,2.083,0,0,0-1.52.6A2.4,2.4,0,0,0,430.6,22.263Z" transform="translate(-18.308 -16.148)"/><path class="cls-9" d="M442.96,25.921a4.89,4.89,0,0,1-1.4.875,4.055,4.055,0,0,1-1.446.255,2.81,2.81,0,0,1-1.96-.623,2.056,2.056,0,0,1-.686-1.592,2.114,2.114,0,0,1,.259-1.039,2.148,2.148,0,0,1,.678-.754,3.187,3.187,0,0,1,.943-.43,9.484,9.484,0,0,1,1.166-.2,11.983,11.983,0,0,0,2.34-.452c0-.18.007-.294.007-.343a1.451,1.451,0,0,0-.371-1.129,2.2,2.2,0,0,0-1.494-.444,2.315,2.315,0,0,0-1.366.324,1.98,1.98,0,0,0-.652,1.147l-1.282-.175a3.166,3.166,0,0,1,.575-1.33,2.522,2.522,0,0,1,1.159-.78,5.152,5.152,0,0,1,1.756-.273,4.643,4.643,0,0,1,1.61.233,2.118,2.118,0,0,1,.911.586,2.069,2.069,0,0,1,.408.893,7.37,7.37,0,0,1,.065,1.21v1.749a18.585,18.585,0,0,0,.084,2.313,2.916,2.916,0,0,0,.331.929h-1.37A2.792,2.792,0,0,1,442.96,25.921Zm-.109-2.93a9.615,9.615,0,0,1-2.143.5,4.962,4.962,0,0,0-1.145.262,1.142,1.142,0,0,0-.517.426,1.158,1.158,0,0,0,.215,1.5,1.708,1.708,0,0,0,1.162.35,2.7,2.7,0,0,0,1.348-.332,2.042,2.042,0,0,0,.867-.907,3.157,3.157,0,0,0,.212-1.312Z" transform="translate(-18.308 -16.148)"/><path class="cls-9" d="M446.2,26.875V19.136h1.181V20.31a3.212,3.212,0,0,1,.835-1.086,1.456,1.456,0,0,1,.842-.262,2.558,2.558,0,0,1,1.348.423l-.451,1.217a1.88,1.88,0,0,0-.962-.284,1.247,1.247,0,0,0-.772.259,1.4,1.4,0,0,0-.488.718,5.086,5.086,0,0,0-.219,1.53v4.052Z" transform="translate(-18.308 -16.148)"/><path class="cls-9" d="M450.655,24.565l1.3-.2a1.814,1.814,0,0,0,.609,1.2,2.12,2.12,0,0,0,1.4.415A2.054,2.054,0,0,0,455.3,25.6a1.1,1.1,0,0,0,.437-.864.8.8,0,0,0-.386-.7,5.711,5.711,0,0,0-1.341-.444,12.246,12.246,0,0,1-2-.63,1.91,1.91,0,0,1-1.133-1.774,1.99,1.99,0,0,1,.237-.958,2.112,2.112,0,0,1,.645-.732,2.715,2.715,0,0,1,.834-.382,3.972,3.972,0,0,1,1.134-.157,4.481,4.481,0,0,1,1.6.262,2.176,2.176,0,0,1,1.017.71,2.77,2.77,0,0,1,.451,1.2l-1.282.175a1.406,1.406,0,0,0-.507-.933,1.853,1.853,0,0,0-1.184-.335,2.145,2.145,0,0,0-1.29.3.869.869,0,0,0-.387.7.722.722,0,0,0,.161.459,1.157,1.157,0,0,0,.5.35q.2.073,1.159.335a16.173,16.173,0,0,1,1.942.608,1.971,1.971,0,0,1,.863.688,1.922,1.922,0,0,1,.313,1.123,2.2,2.2,0,0,1-.383,1.235,2.474,2.474,0,0,1-1.1.9,4.02,4.02,0,0,1-1.633.317,3.633,3.633,0,0,1-2.3-.626A2.914,2.914,0,0,1,450.655,24.565Z" transform="translate(-18.308 -16.148)"/><path class="cls-9" d="M154.258,155.313v-1.224l7.076-2.988v1.3l-5.611,2.3,5.611,2.325v1.3Z" transform="translate(-18.308 -16.148)"/><path class="cls-9" d="M167.4,159.984V149.3h1.414v9.422h5.262v1.261Z" transform="translate(-18.308 -16.148)"/><path class="cls-9" d="M180.886,157.492l1.355.167a3.307,3.307,0,0,1-1.188,1.844,4.024,4.024,0,0,1-4.908-.39,4.086,4.086,0,0,1-1-2.934,4.276,4.276,0,0,1,1.006-3.031,3.4,3.4,0,0,1,2.609-1.079,3.309,3.309,0,0,1,2.536,1.057,4.2,4.2,0,0,1,.983,2.973q0,.116-.007.35h-5.772a2.973,2.973,0,0,0,.722,1.953,2.146,2.146,0,0,0,1.618.678,2,2,0,0,0,1.231-.379A2.513,2.513,0,0,0,180.886,157.492Zm-4.307-2.121H180.9a2.626,2.626,0,0,0-.5-1.465,2.01,2.01,0,0,0-1.625-.758,2.084,2.084,0,0,0-1.52.6A2.391,2.391,0,0,0,176.58,155.371Z" transform="translate(-18.308 -16.148)"/><path class="cls-9" d="M183.364,157.674l1.3-.2a1.811,1.811,0,0,0,.608,1.2,2.12,2.12,0,0,0,1.4.415,2.051,2.051,0,0,0,1.341-.368,1.1,1.1,0,0,0,.438-.864.8.8,0,0,0-.386-.7,5.72,5.72,0,0,0-1.341-.444,12.22,12.22,0,0,1-2-.63,1.91,1.91,0,0,1-1.133-1.774,2,2,0,0,1,.237-.958,2.123,2.123,0,0,1,.645-.732,2.707,2.707,0,0,1,.834-.382,3.965,3.965,0,0,1,1.133-.157,4.481,4.481,0,0,1,1.6.262,2.171,2.171,0,0,1,1.017.71,2.782,2.782,0,0,1,.452,1.2l-1.283.175a1.4,1.4,0,0,0-.506-.933,1.856,1.856,0,0,0-1.184-.335,2.144,2.144,0,0,0-1.29.3.869.869,0,0,0-.386.7.724.724,0,0,0,.16.459,1.158,1.158,0,0,0,.5.35q.2.073,1.159.335a16.128,16.128,0,0,1,1.942.608,1.967,1.967,0,0,1,.864.688,1.922,1.922,0,0,1,.313,1.123,2.2,2.2,0,0,1-.383,1.235,2.473,2.473,0,0,1-1.1.9,4.016,4.016,0,0,1-1.632.317,3.636,3.636,0,0,1-2.3-.626A2.918,2.918,0,0,1,183.364,157.674Z" transform="translate(-18.308 -16.148)"/><path class="cls-9" d="M190.826,157.674l1.3-.2a1.811,1.811,0,0,0,.608,1.2,2.12,2.12,0,0,0,1.4.415,2.051,2.051,0,0,0,1.341-.368,1.1,1.1,0,0,0,.438-.864.8.8,0,0,0-.386-.7,5.72,5.72,0,0,0-1.341-.444,12.22,12.22,0,0,1-2-.63,1.91,1.91,0,0,1-1.133-1.774,2,2,0,0,1,.237-.958,2.123,2.123,0,0,1,.645-.732,2.707,2.707,0,0,1,.834-.382,3.965,3.965,0,0,1,1.133-.157,4.481,4.481,0,0,1,1.6.262,2.171,2.171,0,0,1,1.017.71,2.782,2.782,0,0,1,.452,1.2l-1.283.175a1.4,1.4,0,0,0-.506-.933,1.856,1.856,0,0,0-1.184-.335,2.144,2.144,0,0,0-1.29.3.869.869,0,0,0-.386.7.724.724,0,0,0,.16.459,1.158,1.158,0,0,0,.5.35q.2.073,1.159.335a16.128,16.128,0,0,1,1.942.608,1.967,1.967,0,0,1,.864.688,1.922,1.922,0,0,1,.313,1.123,2.2,2.2,0,0,1-.383,1.235,2.473,2.473,0,0,1-1.1.9,4.016,4.016,0,0,1-1.632.317,3.636,3.636,0,0,1-2.3-.626A2.918,2.918,0,0,1,190.826,157.674Z" transform="translate(-18.308 -16.148)"/><path class="cls-9" d="M205.824,158.811l.189,1.159a4.873,4.873,0,0,1-.991.117,2.239,2.239,0,0,1-1.107-.226,1.263,1.263,0,0,1-.554-.594,4.693,4.693,0,0,1-.161-1.549v-4.452h-.962v-1.021h.962v-1.917l1.3-.787v2.7h1.319v1.021H204.5v4.525a2.274,2.274,0,0,0,.069.721.546.546,0,0,0,.226.255.875.875,0,0,0,.448.095A4.239,4.239,0,0,0,205.824,158.811Z" transform="translate(-18.308 -16.148)"/><path class="cls-9" d="M207.106,159.984V149.3h1.312v3.833a2.93,2.93,0,0,1,2.317-1.064,3.124,3.124,0,0,1,1.494.339,1.991,1.991,0,0,1,.907.937,4.318,4.318,0,0,1,.273,1.734v4.9H212.1v-4.9a2.027,2.027,0,0,0-.426-1.432,1.585,1.585,0,0,0-1.206-.448,2.126,2.126,0,0,0-1.1.3,1.7,1.7,0,0,0-.732.82,3.758,3.758,0,0,0-.219,1.428v4.234Z" transform="translate(-18.308 -16.148)"/><path class="cls-9" d="M220.457,159.029a4.888,4.888,0,0,1-1.4.875,4.058,4.058,0,0,1-1.447.255,2.813,2.813,0,0,1-1.96-.623,2.057,2.057,0,0,1-.685-1.592,2.12,2.12,0,0,1,.259-1.039,2.143,2.143,0,0,1,.678-.754,3.19,3.19,0,0,1,.944-.43,9.45,9.45,0,0,1,1.166-.2,11.976,11.976,0,0,0,2.339-.452c0-.18.007-.294.007-.343a1.447,1.447,0,0,0-.372-1.129,2.194,2.194,0,0,0-1.494-.444,2.314,2.314,0,0,0-1.366.324,1.977,1.977,0,0,0-.652,1.147l-1.283-.175a3.179,3.179,0,0,1,.576-1.33,2.52,2.52,0,0,1,1.159-.78,5.159,5.159,0,0,1,1.756-.273,4.641,4.641,0,0,1,1.61.233,2.118,2.118,0,0,1,.911.586,2.069,2.069,0,0,1,.408.893,7.427,7.427,0,0,1,.065,1.21v1.749a18.483,18.483,0,0,0,.084,2.313,2.9,2.9,0,0,0,.332.929h-1.37A2.77,2.77,0,0,1,220.457,159.029Zm-.109-2.93a9.615,9.615,0,0,1-2.143.5,4.943,4.943,0,0,0-1.144.262,1.147,1.147,0,0,0-.518.426,1.16,1.16,0,0,0,.215,1.5,1.709,1.709,0,0,0,1.163.35,2.7,2.7,0,0,0,1.348-.332,2.042,2.042,0,0,0,.867-.907,3.174,3.174,0,0,0,.211-1.312Z" transform="translate(-18.308 -16.148)"/><path class="cls-9" d="M223.707,159.984v-7.739h1.181v1.1a2.782,2.782,0,0,1,2.463-1.275,3.233,3.233,0,0,1,1.286.251,2.023,2.023,0,0,1,.878.659,2.533,2.533,0,0,1,.408.969,7.48,7.48,0,0,1,.073,1.275v4.759h-1.312v-4.708a3.532,3.532,0,0,0-.153-1.2,1.262,1.262,0,0,0-.543-.634,1.729,1.729,0,0,0-.915-.237,2.125,2.125,0,0,0-1.447.532,2.625,2.625,0,0,0-.608,2.019v4.227Z" transform="translate(-18.308 -16.148)"/><path class="cls-9" d="M235.8,157.164l1.312-.175a2.891,2.891,0,0,0,.769,1.607,1.9,1.9,0,0,0,1.323.492,2.119,2.119,0,0,0,1.563-.641,2.165,2.165,0,0,0,.637-1.589,2.013,2.013,0,0,0-.59-1.49,2.041,2.041,0,0,0-1.5-.586,3.763,3.763,0,0,0-.925.146l.146-1.151a1.991,1.991,0,0,0,.211.015,2.7,2.7,0,0,0,1.508-.437,1.5,1.5,0,0,0,.67-1.348,1.6,1.6,0,0,0-.488-1.2,1.735,1.735,0,0,0-1.261-.474,1.785,1.785,0,0,0-1.275.481,2.411,2.411,0,0,0-.656,1.443l-1.312-.233a3.372,3.372,0,0,1,1.093-2.044,3.16,3.16,0,0,1,2.121-.725,3.489,3.489,0,0,1,1.61.375,2.711,2.711,0,0,1,1.126,1.024,2.63,2.63,0,0,1,.39,1.377,2.252,2.252,0,0,1-.372,1.261,2.537,2.537,0,0,1-1.1.9,2.481,2.481,0,0,1,1.472.907,2.763,2.763,0,0,1,.524,1.724,3.154,3.154,0,0,1-1.02,2.372,3.59,3.59,0,0,1-2.58.973,3.357,3.357,0,0,1-2.335-.838A3.239,3.239,0,0,1,235.8,157.164Z" transform="translate(-18.308 -16.148)"/><path class="cls-9" d="M251.508,159.984v-4.525l-4.117-6.158h1.72l2.106,3.221q.583.9,1.086,1.808.48-.839,1.166-1.888l2.069-3.141h1.647l-4.263,6.158v4.525Z" transform="translate(-18.308 -16.148)"/><path class="cls-9" d="M262.213,157.492l1.355.167a3.307,3.307,0,0,1-1.188,1.844,4.024,4.024,0,0,1-4.908-.39,4.086,4.086,0,0,1-1-2.934,4.276,4.276,0,0,1,1.006-3.031,3.4,3.4,0,0,1,2.609-1.079,3.309,3.309,0,0,1,2.536,1.057,4.2,4.2,0,0,1,.983,2.973q0,.116-.007.35h-5.772a2.973,2.973,0,0,0,.722,1.953,2.146,2.146,0,0,0,1.618.678,2,2,0,0,0,1.231-.379A2.513,2.513,0,0,0,262.213,157.492Zm-4.307-2.121h4.321a2.626,2.626,0,0,0-.5-1.465,2.01,2.01,0,0,0-1.625-.758,2.084,2.084,0,0,0-1.52.6A2.391,2.391,0,0,0,257.907,155.371Z" transform="translate(-18.308 -16.148)"/><path class="cls-9" d="M270.266,159.029a4.888,4.888,0,0,1-1.4.875,4.058,4.058,0,0,1-1.447.255,2.813,2.813,0,0,1-1.96-.623,2.057,2.057,0,0,1-.685-1.592,2.12,2.12,0,0,1,.259-1.039,2.143,2.143,0,0,1,.678-.754,3.19,3.19,0,0,1,.944-.43,9.45,9.45,0,0,1,1.166-.2,11.976,11.976,0,0,0,2.339-.452c0-.18.007-.294.007-.343a1.447,1.447,0,0,0-.372-1.129,2.194,2.194,0,0,0-1.494-.444,2.314,2.314,0,0,0-1.366.324,1.977,1.977,0,0,0-.652,1.147L265,154.453a3.179,3.179,0,0,1,.576-1.33,2.52,2.52,0,0,1,1.159-.78,5.159,5.159,0,0,1,1.756-.273,4.641,4.641,0,0,1,1.61.233,2.118,2.118,0,0,1,.911.586,2.069,2.069,0,0,1,.408.893,7.427,7.427,0,0,1,.065,1.21v1.749a18.483,18.483,0,0,0,.084,2.313,2.9,2.9,0,0,0,.332.929h-1.37A2.77,2.77,0,0,1,270.266,159.029Zm-.109-2.93a9.615,9.615,0,0,1-2.143.5,4.943,4.943,0,0,0-1.144.262,1.147,1.147,0,0,0-.518.426,1.16,1.16,0,0,0,.215,1.5,1.709,1.709,0,0,0,1.163.35,2.7,2.7,0,0,0,1.348-.332,2.042,2.042,0,0,0,.867-.907,3.174,3.174,0,0,0,.211-1.312Z" transform="translate(-18.308 -16.148)"/><path class="cls-9" d="M273.5,159.984v-7.739h1.181v1.173a3.2,3.2,0,0,1,.834-1.086,1.456,1.456,0,0,1,.841-.262,2.558,2.558,0,0,1,1.348.423l-.452,1.217a1.877,1.877,0,0,0-.962-.284,1.25,1.25,0,0,0-.772.259,1.4,1.4,0,0,0-.488.718,5.117,5.117,0,0,0-.219,1.53v4.052Z" transform="translate(-18.308 -16.148)"/><path class="cls-9" d="M277.961,157.674l1.3-.2a1.811,1.811,0,0,0,.608,1.2,2.12,2.12,0,0,0,1.4.415,2.051,2.051,0,0,0,1.341-.368,1.1,1.1,0,0,0,.438-.864.8.8,0,0,0-.386-.7,5.72,5.72,0,0,0-1.341-.444,12.22,12.22,0,0,1-2-.63,1.91,1.91,0,0,1-1.133-1.774,2,2,0,0,1,.237-.958,2.123,2.123,0,0,1,.645-.732,2.707,2.707,0,0,1,.834-.382,3.965,3.965,0,0,1,1.133-.157,4.481,4.481,0,0,1,1.6.262,2.171,2.171,0,0,1,1.017.71,2.782,2.782,0,0,1,.452,1.2l-1.283.175a1.4,1.4,0,0,0-.506-.933,1.856,1.856,0,0,0-1.184-.335,2.144,2.144,0,0,0-1.29.3.869.869,0,0,0-.386.7.724.724,0,0,0,.16.459,1.158,1.158,0,0,0,.5.35q.2.073,1.159.335a16.128,16.128,0,0,1,1.942.608,1.967,1.967,0,0,1,.864.688,1.922,1.922,0,0,1,.313,1.123,2.2,2.2,0,0,1-.383,1.235,2.473,2.473,0,0,1-1.1.9,4.016,4.016,0,0,1-1.632.317,3.636,3.636,0,0,1-2.3-.626A2.918,2.918,0,0,1,277.961,157.674Z" transform="translate(-18.308 -16.148)"/><path class="cls-8" d="M231,220.113V209.43h1.414v10.683Z" transform="translate(-18.308 -16.148)"/><path class="cls-8" d="M234.737,220.113v-7.739h1.181v1.1a2.782,2.782,0,0,1,2.463-1.275,3.233,3.233,0,0,1,1.286.251,2.023,2.023,0,0,1,.878.659,2.533,2.533,0,0,1,.408.969,7.48,7.48,0,0,1,.073,1.275v4.759h-1.312v-4.708a3.532,3.532,0,0,0-.153-1.2,1.262,1.262,0,0,0-.543-.634,1.729,1.729,0,0,0-.915-.237,2.125,2.125,0,0,0-1.447.532,2.625,2.625,0,0,0-.608,2.019v4.227Z" transform="translate(-18.308 -16.148)"/><path class="cls-8" d="M242.513,217.8l1.3-.2a1.811,1.811,0,0,0,.608,1.2,2.12,2.12,0,0,0,1.4.415,2.051,2.051,0,0,0,1.341-.368,1.1,1.1,0,0,0,.438-.864.8.8,0,0,0-.386-.7,5.72,5.72,0,0,0-1.341-.444,12.22,12.22,0,0,1-2-.63,1.91,1.91,0,0,1-1.133-1.774,2,2,0,0,1,.237-.958,2.123,2.123,0,0,1,.645-.732,2.707,2.707,0,0,1,.834-.382,3.965,3.965,0,0,1,1.133-.157,4.481,4.481,0,0,1,1.6.262,2.171,2.171,0,0,1,1.017.71,2.782,2.782,0,0,1,.452,1.2l-1.283.175a1.4,1.4,0,0,0-.506-.933,1.856,1.856,0,0,0-1.184-.335,2.144,2.144,0,0,0-1.29.3.869.869,0,0,0-.386.7.724.724,0,0,0,.16.459,1.158,1.158,0,0,0,.5.35q.2.073,1.159.335a16.128,16.128,0,0,1,1.942.608,1.967,1.967,0,0,1,.864.688,1.922,1.922,0,0,1,.313,1.123,2.2,2.2,0,0,1-.383,1.235,2.473,2.473,0,0,1-1.1.9,4.016,4.016,0,0,1-1.632.317,3.636,3.636,0,0,1-2.3-.626A2.918,2.918,0,0,1,242.513,217.8Z" transform="translate(-18.308 -16.148)"/><path class="cls-8" d="M255.572,220.113v-1.137a2.832,2.832,0,0,1-2.456,1.312,3.132,3.132,0,0,1-1.279-.262,2.1,2.1,0,0,1-.881-.66,2.462,2.462,0,0,1-.4-.973,6.682,6.682,0,0,1-.08-1.225v-4.795h1.312v4.292a7.619,7.619,0,0,0,.08,1.384,1.367,1.367,0,0,0,.524.813,1.626,1.626,0,0,0,.991.3,2.16,2.16,0,0,0,1.108-.3,1.68,1.68,0,0,0,.732-.824,4.126,4.126,0,0,0,.215-1.512v-4.146h1.312v7.739Z" transform="translate(-18.308 -16.148)"/><path class="cls-8" d="M258.786,220.113v-7.739h1.181v1.173a3.2,3.2,0,0,1,.834-1.086,1.456,1.456,0,0,1,.841-.262,2.558,2.558,0,0,1,1.348.423l-.452,1.217a1.877,1.877,0,0,0-.962-.284,1.25,1.25,0,0,0-.772.259,1.4,1.4,0,0,0-.488.718,5.117,5.117,0,0,0-.219,1.53v4.052Z" transform="translate(-18.308 -16.148)"/><path class="cls-8" d="M269.068,217.621l1.355.167a3.307,3.307,0,0,1-1.188,1.844,4.024,4.024,0,0,1-4.908-.39,4.086,4.086,0,0,1-1-2.934,4.276,4.276,0,0,1,1.006-3.031,3.4,3.4,0,0,1,2.609-1.079,3.309,3.309,0,0,1,2.536,1.057,4.2,4.2,0,0,1,.983,2.973q0,.116-.007.35h-5.772a2.973,2.973,0,0,0,.722,1.953,2.146,2.146,0,0,0,1.618.678,2,2,0,0,0,1.231-.379A2.513,2.513,0,0,0,269.068,217.621Zm-4.307-2.121h4.321a2.626,2.626,0,0,0-.5-1.465,2.01,2.01,0,0,0-1.625-.758,2.084,2.084,0,0,0-1.52.6A2.391,2.391,0,0,0,264.762,215.5Z" transform="translate(-18.308 -16.148)"/><path class="cls-8" d="M277.092,220.113v-.977a2.408,2.408,0,0,1-2.165,1.151,3.034,3.034,0,0,1-1.7-.51,3.356,3.356,0,0,1-1.2-1.424,4.925,4.925,0,0,1-.426-2.1,5.5,5.5,0,0,1,.386-2.1,3.044,3.044,0,0,1,1.159-1.446,3.094,3.094,0,0,1,1.727-.5,2.58,2.58,0,0,1,1.246.295,2.608,2.608,0,0,1,.889.769V209.43h1.3v10.683Zm-4.146-3.862a3.36,3.36,0,0,0,.626,2.223,1.89,1.89,0,0,0,1.479.736,1.855,1.855,0,0,0,1.461-.7,3.241,3.241,0,0,0,.6-2.146,3.639,3.639,0,0,0-.612-2.332,1.883,1.883,0,0,0-1.508-.743,1.818,1.818,0,0,0-1.461.714A3.526,3.526,0,0,0,272.945,216.25Z" transform="translate(-18.308 -16.148)"/><path class="cls-8" d="M280.291,210.843V209.32H281.7v1.2a3.21,3.21,0,0,1-.226,1.407,1.987,1.987,0,0,1-.976.889l-.321-.518a1.139,1.139,0,0,0,.586-.506,2.124,2.124,0,0,0,.215-.951Z" transform="translate(-18.308 -16.148)"/><path class="cls-8" d="M282.893,217.8l1.3-.2a1.811,1.811,0,0,0,.608,1.2,2.12,2.12,0,0,0,1.4.415,2.051,2.051,0,0,0,1.341-.368,1.1,1.1,0,0,0,.438-.864.8.8,0,0,0-.386-.7,5.72,5.72,0,0,0-1.341-.444,12.22,12.22,0,0,1-2-.63,1.91,1.91,0,0,1-1.133-1.774,2,2,0,0,1,.237-.958,2.123,2.123,0,0,1,.645-.732,2.707,2.707,0,0,1,.834-.382,3.965,3.965,0,0,1,1.133-.157,4.481,4.481,0,0,1,1.6.262,2.171,2.171,0,0,1,1.017.71,2.782,2.782,0,0,1,.452,1.2l-1.283.175a1.4,1.4,0,0,0-.506-.933,1.856,1.856,0,0,0-1.184-.335,2.144,2.144,0,0,0-1.29.3.869.869,0,0,0-.386.7.724.724,0,0,0,.16.459,1.158,1.158,0,0,0,.5.35q.2.073,1.159.335a16.128,16.128,0,0,1,1.942.608,1.967,1.967,0,0,1,.864.688,1.922,1.922,0,0,1,.313,1.123,2.2,2.2,0,0,1-.383,1.235,2.473,2.473,0,0,1-1.1.9,4.016,4.016,0,0,1-1.632.317,3.636,3.636,0,0,1-2.3-.626A2.918,2.918,0,0,1,282.893,217.8Z" transform="translate(-18.308 -16.148)"/><path class="cls-8" d="M295.223,220.113V209.43h7.725v1.261h-6.311v3.272h5.91v1.253h-5.91v3.636H303.2v1.261Z" transform="translate(-18.308 -16.148)"/><path class="cls-8" d="M304.456,217.8l1.3-.2a1.811,1.811,0,0,0,.608,1.2,2.122,2.122,0,0,0,1.4.415,2.054,2.054,0,0,0,1.341-.368,1.1,1.1,0,0,0,.437-.864.8.8,0,0,0-.386-.7,5.711,5.711,0,0,0-1.341-.444,12.22,12.22,0,0,1-2-.63,1.91,1.91,0,0,1-1.133-1.774,2,2,0,0,1,.237-.958,2.123,2.123,0,0,1,.645-.732,2.707,2.707,0,0,1,.834-.382,3.964,3.964,0,0,1,1.132-.157,4.482,4.482,0,0,1,1.6.262,2.176,2.176,0,0,1,1.017.71,2.77,2.77,0,0,1,.451,1.2l-1.282.175a1.406,1.406,0,0,0-.507-.933,1.853,1.853,0,0,0-1.184-.335,2.144,2.144,0,0,0-1.29.3.869.869,0,0,0-.386.7.724.724,0,0,0,.16.459,1.158,1.158,0,0,0,.5.35q.2.073,1.159.335a16.173,16.173,0,0,1,1.942.608,1.971,1.971,0,0,1,.863.688,1.922,1.922,0,0,1,.313,1.123,2.2,2.2,0,0,1-.383,1.235,2.474,2.474,0,0,1-1.1.9,4.02,4.02,0,0,1-1.633.317,3.636,3.636,0,0,1-2.3-.626A2.918,2.918,0,0,1,304.456,217.8Z" transform="translate(-18.308 -16.148)"/><path class="cls-8" d="M315.307,218.939l.189,1.159a4.87,4.87,0,0,1-.991.117,2.242,2.242,0,0,1-1.107-.226,1.26,1.26,0,0,1-.554-.594,4.683,4.683,0,0,1-.16-1.549v-4.452h-.962v-1.021h.962v-1.917l1.3-.787v2.7h1.319v1.021h-1.319v4.525a2.289,2.289,0,0,0,.069.721.553.553,0,0,0,.227.255.875.875,0,0,0,.448.095A4.246,4.246,0,0,0,315.307,218.939Z" transform="translate(-18.308 -16.148)"/><path class="cls-8" d="M321.64,219.158a4.89,4.89,0,0,1-1.4.875,4.055,4.055,0,0,1-1.446.255,2.81,2.81,0,0,1-1.96-.623,2.056,2.056,0,0,1-.686-1.592,2.114,2.114,0,0,1,.259-1.039,2.148,2.148,0,0,1,.678-.754,3.187,3.187,0,0,1,.943-.43,9.484,9.484,0,0,1,1.166-.2,11.983,11.983,0,0,0,2.34-.452c0-.18.007-.294.007-.343a1.451,1.451,0,0,0-.371-1.129,2.2,2.2,0,0,0-1.494-.444,2.315,2.315,0,0,0-1.366.324,1.98,1.98,0,0,0-.652,1.147l-1.282-.175a3.166,3.166,0,0,1,.575-1.33,2.522,2.522,0,0,1,1.159-.78,5.152,5.152,0,0,1,1.756-.273,4.643,4.643,0,0,1,1.61.233,2.118,2.118,0,0,1,.911.586,2.069,2.069,0,0,1,.408.893,7.37,7.37,0,0,1,.065,1.21v1.749a18.585,18.585,0,0,0,.084,2.313,2.916,2.916,0,0,0,.331.929H321.9A2.792,2.792,0,0,1,321.64,219.158Zm-.109-2.93a9.615,9.615,0,0,1-2.143.5,4.962,4.962,0,0,0-1.145.262,1.142,1.142,0,0,0-.517.426,1.158,1.158,0,0,0,.215,1.5,1.708,1.708,0,0,0,1.162.35,2.7,2.7,0,0,0,1.348-.332,2.042,2.042,0,0,0,.867-.907,3.157,3.157,0,0,0,.212-1.312Z" transform="translate(-18.308 -16.148)"/><path class="cls-8" d="M327.754,218.939l.189,1.159a4.87,4.87,0,0,1-.991.117,2.242,2.242,0,0,1-1.107-.226,1.26,1.26,0,0,1-.554-.594,4.683,4.683,0,0,1-.16-1.549v-4.452h-.962v-1.021h.962v-1.917l1.3-.787v2.7h1.319v1.021h-1.319v4.525a2.289,2.289,0,0,0,.069.721.553.553,0,0,0,.227.255.875.875,0,0,0,.448.095A4.246,4.246,0,0,0,327.754,218.939Z" transform="translate(-18.308 -16.148)"/><path class="cls-8" d="M334.334,217.621l1.355.167a3.306,3.306,0,0,1-1.187,1.844,4.025,4.025,0,0,1-4.908-.39,4.087,4.087,0,0,1-.994-2.934,4.278,4.278,0,0,1,1-3.031,3.4,3.4,0,0,1,2.609-1.079,3.308,3.308,0,0,1,2.536,1.057,4.2,4.2,0,0,1,.983,2.973c0,.078,0,.194-.007.35h-5.771a2.973,2.973,0,0,0,.721,1.953,2.147,2.147,0,0,0,1.618.678,2,2,0,0,0,1.231-.379A2.516,2.516,0,0,0,334.334,217.621Zm-4.307-2.121h4.321a2.615,2.615,0,0,0-.5-1.465,2.011,2.011,0,0,0-1.625-.758,2.083,2.083,0,0,0-1.52.6A2.4,2.4,0,0,0,330.027,215.5Z" transform="translate(-18.308 -16.148)"/><rect class="cls-10" x="22.91" y="109.857" width="29.957" height="29.957"/><rect class="cls-10" x="472.87" y="109.857" width="29.957" height="29.957"/><rect class="cls-10" x="279.399" y="133.149" width="29.957" height="29.957"/><path class="cls-8" d="M57.842,146.132h-1.53V136.38a7.913,7.913,0,0,1-1.45,1.055,10.3,10.3,0,0,1-1.611.791v-1.479a9.243,9.243,0,0,0,2.245-1.462,5.756,5.756,0,0,0,1.36-1.666h.986Z" transform="translate(-18.308 -16.148)"/><path class="cls-8" d="M502.046,142.842l1.53-.2a3.375,3.375,0,0,0,.9,1.875,2.215,2.215,0,0,0,1.543.574,2.473,2.473,0,0,0,1.824-.748,2.524,2.524,0,0,0,.744-1.854,2.344,2.344,0,0,0-.689-1.738,2.379,2.379,0,0,0-1.751-.685,4.4,4.4,0,0,0-1.08.17l.17-1.343a2.387,2.387,0,0,0,.247.017,3.15,3.15,0,0,0,1.76-.51,1.746,1.746,0,0,0,.782-1.573,1.861,1.861,0,0,0-.569-1.395,2.025,2.025,0,0,0-1.471-.552,2.084,2.084,0,0,0-1.488.561,2.817,2.817,0,0,0-.765,1.683l-1.531-.272a3.936,3.936,0,0,1,1.275-2.385,3.687,3.687,0,0,1,2.475-.846,4.084,4.084,0,0,1,1.879.438,3.173,3.173,0,0,1,1.313,1.195,3.073,3.073,0,0,1,.455,1.607,2.632,2.632,0,0,1-.434,1.471,2.966,2.966,0,0,1-1.284,1.054,2.9,2.9,0,0,1,1.718,1.059,3.22,3.22,0,0,1,.611,2.011,3.68,3.68,0,0,1-1.189,2.767,4.187,4.187,0,0,1-3.01,1.135,3.916,3.916,0,0,1-2.726-.978A3.776,3.776,0,0,1,502.046,142.842Z" transform="translate(-18.308 -16.148)"/><path class="cls-8" d="M316.609,169.2v1.471h-8.238a2.69,2.69,0,0,1,.179-1.062,5.6,5.6,0,0,1,1.007-1.658,15.776,15.776,0,0,1,2-1.887,16.975,16.975,0,0,0,2.746-2.64,3.163,3.163,0,0,0,.714-1.84,2.045,2.045,0,0,0-.65-1.535,2.347,2.347,0,0,0-1.7-.625,2.391,2.391,0,0,0-1.769.663,2.509,2.509,0,0,0-.672,1.836l-1.572-.162a3.868,3.868,0,0,1,1.216-2.682,4.144,4.144,0,0,1,2.831-.922,3.953,3.953,0,0,1,2.84.995,3.264,3.264,0,0,1,1.045,2.465,3.739,3.739,0,0,1-.306,1.471,5.725,5.725,0,0,1-1.016,1.521,24.818,24.818,0,0,1-2.359,2.194q-1.377,1.156-1.769,1.568a5.025,5.025,0,0,0-.646.829Z" transform="translate(-18.308 -16.148)"/></svg>