<svg id="Layer_1" data-name="Layer 1" xmlns="http://www.w3.org/2000/svg" viewBox="0 0 458.844 204.819"><defs><style>.cls-1{fill:none;}.cls-1,.cls-2{stroke:#231f20;stroke-miterlimit:10;}.cls-3{fill:#3d58a7;}.cls-4{fill:#919191;}.cls-5{fill:#238541;}.cls-6{fill:#ae292a;}.cls-7{fill:#fff;}.cls-8{fill:#b6a232;}</style></defs><title>Is_it_Worth_the_Trouble_02</title><line class="cls-1" x1="54.628" y1="110.251" x2="54.628" y2="59.212"/><polygon class="cls-2" points="49.319 59.212 55.658 48.232 61.997 59.212 49.319 59.212"/><line class="cls-1" x1="78.571" y1="101.106" x2="129.61" y2="101.106"/><polygon class="cls-2" points="129.61 95.797 140.589 102.136 129.61 108.475 129.61 95.797"/><line class="cls-1" x1="110.61" y1="45.789" x2="140.63" y2="75.809"/><line class="cls-1" x1="105.827" y1="22.894" x2="187.094" y2="22.894"/><line class="cls-1" x1="277.259" y1="22.894" x2="328.297" y2="22.894"/><line class="cls-1" x1="258.828" y1="125.03" x2="232.605" y2="151.253"/><line class="cls-1" x1="331.594" y1="125.03" x2="359.541" y2="152.977"/><rect class="cls-3" width="111.315" height="45.789"/><rect class="cls-4" x="202.704" width="111.315" height="45.789"/><rect class="cls-5" x="142.141" y="79.241" width="316.703" height="45.789"/><rect class="cls-6" x="142.141" y="159.03" width="111.315" height="45.789"/><rect class="cls-6" x="344.844" y="159.03" width="111.315" height="45.789"/><path class="cls-7" d="M27.837,32.819l1.1-.1a2.436,2.436,0,0,0,.365,1.089,1.994,1.994,0,0,0,.89.688,3.375,3.375,0,0,0,1.358.262,3.25,3.25,0,0,0,1.183-.2,1.636,1.636,0,0,0,.764-.546,1.267,1.267,0,0,0,.25-.757,1.154,1.154,0,0,0-.241-.728,1.794,1.794,0,0,0-.8-.522,15.694,15.694,0,0,0-1.575-.432,8.021,8.021,0,0,1-1.708-.552,2.391,2.391,0,0,1-.944-.824,2.015,2.015,0,0,1-.311-1.1,2.249,2.249,0,0,1,.38-1.252,2.354,2.354,0,0,1,1.11-.884,4.212,4.212,0,0,1,1.624-.3,4.433,4.433,0,0,1,1.735.317,2.507,2.507,0,0,1,1.156.933,2.681,2.681,0,0,1,.434,1.394l-1.123.084a1.81,1.81,0,0,0-.612-1.268,2.385,2.385,0,0,0-1.542-.428,2.472,2.472,0,0,0-1.548.389,1.166,1.166,0,0,0-.486.938,1,1,0,0,0,.344.785,4.661,4.661,0,0,0,1.765.63A11.705,11.705,0,0,1,33.371,31a2.678,2.678,0,0,1,1.141.9,2.2,2.2,0,0,1,.368,1.258,2.407,2.407,0,0,1-.4,1.331,2.659,2.659,0,0,1-1.162.972,4.046,4.046,0,0,1-1.705.347,5.089,5.089,0,0,1-2.013-.35,2.819,2.819,0,0,1-1.273-1.053A2.987,2.987,0,0,1,27.837,32.819Z" transform="translate(-20.392 -16.181)"/><path class="cls-7" d="M36.679,35.662V26.814H37.85v8.848Z" transform="translate(-20.392 -16.181)"/><path class="cls-7" d="M39.208,35.662V34.575l4.532-5.667q.483-.6.917-1.05H39.72V26.814h6.337v1.044L41.09,34l-.537.622H46.2v1.044Z" transform="translate(-20.392 -16.181)"/><path class="cls-7" d="M47.487,35.662V26.814h6.4v1.044H48.658v2.71h4.895v1.038H48.658v3.012H54.09v1.044Z" transform="translate(-20.392 -16.181)"/><path class="cls-7" d="M58.786,31.353A4.808,4.808,0,0,1,59.968,27.9a4.023,4.023,0,0,1,3.054-1.246,4.238,4.238,0,0,1,2.209.585,3.826,3.826,0,0,1,1.5,1.632,5.306,5.306,0,0,1,.516,2.375,5.21,5.21,0,0,1-.543,2.408,3.7,3.7,0,0,1-1.539,1.608,4.394,4.394,0,0,1-2.148.546,4.183,4.183,0,0,1-2.233-.6,3.885,3.885,0,0,1-1.491-1.647A5,5,0,0,1,58.786,31.353Zm1.207.018a3.544,3.544,0,0,0,.86,2.52,3,3,0,0,0,4.333-.009,3.759,3.759,0,0,0,.854-2.638,4.537,4.537,0,0,0-.365-1.886,2.809,2.809,0,0,0-1.068-1.25,2.9,2.9,0,0,0-1.578-.443,2.994,2.994,0,0,0-2.14.854A3.814,3.814,0,0,0,59.993,31.371Z" transform="translate(-20.392 -16.181)"/><path class="cls-7" d="M68.816,35.662V26.814h5.969v1.044h-4.8V30.6h4.152v1.044H69.987v4.02Z" transform="translate(-20.392 -16.181)"/><path class="cls-7" d="M79.764,35.662V26.814h6.4v1.044H80.935v2.71h4.895v1.038H80.935v3.012h5.432v1.044Z" transform="translate(-20.392 -16.181)"/><path class="cls-7" d="M87.585,32.819l1.1-.1a2.436,2.436,0,0,0,.365,1.089,1.994,1.994,0,0,0,.89.688,3.375,3.375,0,0,0,1.358.262,3.25,3.25,0,0,0,1.183-.2,1.636,1.636,0,0,0,.764-.546,1.267,1.267,0,0,0,.25-.757,1.154,1.154,0,0,0-.241-.728,1.794,1.794,0,0,0-.8-.522,15.694,15.694,0,0,0-1.575-.432,8.021,8.021,0,0,1-1.708-.552,2.391,2.391,0,0,1-.944-.824,2.015,2.015,0,0,1-.311-1.1,2.249,2.249,0,0,1,.38-1.252,2.354,2.354,0,0,1,1.11-.884,4.212,4.212,0,0,1,1.624-.3,4.433,4.433,0,0,1,1.735.317,2.507,2.507,0,0,1,1.156.933,2.681,2.681,0,0,1,.434,1.394l-1.123.084a1.81,1.81,0,0,0-.612-1.268,2.385,2.385,0,0,0-1.542-.428,2.472,2.472,0,0,0-1.548.389,1.166,1.166,0,0,0-.486.938,1,1,0,0,0,.344.785,4.661,4.661,0,0,0,1.765.63A11.705,11.705,0,0,1,93.12,31a2.678,2.678,0,0,1,1.141.9,2.2,2.2,0,0,1,.368,1.258,2.407,2.407,0,0,1-.4,1.331,2.659,2.659,0,0,1-1.162.972,4.046,4.046,0,0,1-1.705.347,5.089,5.089,0,0,1-2.013-.35,2.819,2.819,0,0,1-1.273-1.053A2.987,2.987,0,0,1,87.585,32.819Z" transform="translate(-20.392 -16.181)"/><path class="cls-7" d="M98.479,35.662v-7.8H95.564V26.814h7.013v1.044H99.65v7.8Z" transform="translate(-20.392 -16.181)"/><path class="cls-7" d="M101.889,35.662l3.4-8.848h1.261l3.621,8.848h-1.334l-1.032-2.68h-3.7l-.972,2.68Zm2.553-3.633h3l-.923-2.45q-.423-1.116-.627-1.834a11.313,11.313,0,0,1-.477,1.689Z" transform="translate(-20.392 -16.181)"/><path class="cls-7" d="M112.438,35.662v-7.8h-2.915V26.814h7.013v1.044h-2.927v7.8Z" transform="translate(-20.392 -16.181)"/><path class="cls-7" d="M117.761,35.662V26.814h6.4v1.044h-5.227v2.71h4.895v1.038h-4.895v3.012h5.432v1.044Z" transform="translate(-20.392 -16.181)"/><path class="cls-7" d="M48.3,51.767V50.681a4,4,0,0,1-1.325-.365,2.306,2.306,0,0,1-.881-.848,3.036,3.036,0,0,1-.432-1.431l1.092-.205a2.753,2.753,0,0,0,.447,1.286,1.583,1.583,0,0,0,1.1.646V46.305a4.532,4.532,0,0,1-1.37-.519,2,2,0,0,1-.8-.8,2.556,2.556,0,0,1,.54-3.042,2.856,2.856,0,0,1,1.63-.591v-.519h.64v.519a2.678,2.678,0,0,1,1.5.555,2.466,2.466,0,0,1,.857,1.623L50.18,43.7a1.86,1.86,0,0,0-.4-.981,1.486,1.486,0,0,0-.836-.45V45.4a8.684,8.684,0,0,1,1.086.32,2.684,2.684,0,0,1,.827.543,2.182,2.182,0,0,1,.492.76A2.794,2.794,0,0,1,50.8,49.86a2.635,2.635,0,0,1-1.859.809v1.1Zm0-9.511a1.608,1.608,0,0,0-1,.507,1.507,1.507,0,0,0-.054,1.9,2.14,2.14,0,0,0,1.053.6Zm.64,7.507a1.611,1.611,0,0,0,1.047-.549,1.7,1.7,0,0,0,.414-1.165,1.459,1.459,0,0,0-.293-.951,2.53,2.53,0,0,0-1.167-.643Z" transform="translate(-20.392 -16.181)"/><path class="cls-7" d="M54.283,45.7a2.045,2.045,0,0,1-1-.706,1.847,1.847,0,0,1-.326-1.1,2.148,2.148,0,0,1,.694-1.624,2.921,2.921,0,0,1,3.711.015,2.179,2.179,0,0,1,.706,1.639,1.8,1.8,0,0,1-.323,1.071,2.039,2.039,0,0,1-.981.7,2.257,2.257,0,0,1,1.666,2.269,2.542,2.542,0,0,1-.8,1.907,3.27,3.27,0,0,1-4.225,0,2.58,2.58,0,0,1-.8-1.935,2.336,2.336,0,0,1,.438-1.445A2.189,2.189,0,0,1,54.283,45.7Zm-.567,2.245a1.963,1.963,0,0,0,.221.9,1.547,1.547,0,0,0,.655.673,1.91,1.91,0,0,0,.936.239,1.753,1.753,0,0,0,1.285-.5,1.714,1.714,0,0,0,.507-1.273,1.743,1.743,0,0,0-.522-1.3,1.79,1.79,0,0,0-1.307-.513,1.728,1.728,0,0,0-1.774,1.774Zm.35-4.086a1.376,1.376,0,0,0,.4,1.026,1.43,1.43,0,0,0,1.05.4,1.406,1.406,0,0,0,1.029-.4,1.308,1.308,0,0,0,.4-.968,1.355,1.355,0,0,0-.413-1,1.407,1.407,0,0,0-1.029-.408,1.421,1.421,0,0,0-1.032.4A1.282,1.282,0,0,0,54.066,43.855Z" transform="translate(-20.392 -16.181)"/><path class="cls-7" d="M60.071,50.494V49.256h1.237v1.237a2.2,2.2,0,0,1-.241,1.1,1.575,1.575,0,0,1-.767.648l-.3-.464a1.029,1.029,0,0,0,.507-.444,1.882,1.882,0,0,0,.181-.842Z" transform="translate(-20.392 -16.181)"/><path class="cls-7" d="M68.629,49.45v1.044H62.781a1.921,1.921,0,0,1,.127-.754,3.986,3.986,0,0,1,.715-1.177,11.17,11.17,0,0,1,1.421-1.34,12.046,12.046,0,0,0,1.95-1.874,2.243,2.243,0,0,0,.507-1.307,1.451,1.451,0,0,0-.462-1.089,1.664,1.664,0,0,0-1.2-.443,1.7,1.7,0,0,0-1.255.471,1.779,1.779,0,0,0-.477,1.3l-1.116-.115a2.747,2.747,0,0,1,.863-1.9,2.944,2.944,0,0,1,2.01-.655,2.8,2.8,0,0,1,2.016.706,2.317,2.317,0,0,1,.742,1.75A2.658,2.658,0,0,1,68.4,45.11a4.066,4.066,0,0,1-.721,1.08A17.612,17.612,0,0,1,66,47.748q-.978.821-1.255,1.114a3.579,3.579,0,0,0-.459.588Z" transform="translate(-20.392 -16.181)"/><path class="cls-7" d="M69.866,42.8V41.761h5.728v.845A12.071,12.071,0,0,0,73.919,45a14.55,14.55,0,0,0-1.283,3.066,11.4,11.4,0,0,0-.417,2.432H71.1a10.816,10.816,0,0,1,.41-2.523,13.272,13.272,0,0,1,1.125-2.852A12.259,12.259,0,0,1,74.2,42.8Z" transform="translate(-20.392 -16.181)"/><path class="cls-7" d="M76.668,46.13a8.094,8.094,0,0,1,.323-2.526,3.144,3.144,0,0,1,.959-1.476,2.452,2.452,0,0,1,1.6-.519A2.615,2.615,0,0,1,80.8,41.9a2.39,2.39,0,0,1,.887.827,4.439,4.439,0,0,1,.549,1.316,8.739,8.739,0,0,1,.2,2.091,8.13,8.13,0,0,1-.32,2.514,3.145,3.145,0,0,1-.957,1.479,2.454,2.454,0,0,1-1.608.522,2.427,2.427,0,0,1-2.01-.917A5.829,5.829,0,0,1,76.668,46.13Zm1.116,0a5.545,5.545,0,0,0,.51,2.9,1.457,1.457,0,0,0,2.517,0,5.552,5.552,0,0,0,.51-2.9,5.55,5.55,0,0,0-.51-2.9,1.515,1.515,0,0,0-1.271-.718,1.391,1.391,0,0,0-1.195.633A5.61,5.61,0,0,0,77.784,46.13Z" transform="translate(-20.392 -16.181)"/><path class="cls-7" d="M84.127,50.494V49.256h1.237v1.237a2.2,2.2,0,0,1-.241,1.1,1.575,1.575,0,0,1-.767.648l-.3-.464a1.029,1.029,0,0,0,.507-.444,1.882,1.882,0,0,0,.181-.842Z" transform="translate(-20.392 -16.181)"/><path class="cls-7" d="M86.976,46.13A8.094,8.094,0,0,1,87.3,43.6a3.144,3.144,0,0,1,.959-1.476,2.452,2.452,0,0,1,1.6-.519,2.615,2.615,0,0,1,1.249.287,2.39,2.39,0,0,1,.887.827,4.439,4.439,0,0,1,.549,1.316,8.739,8.739,0,0,1,.2,2.091,8.13,8.13,0,0,1-.32,2.514,3.145,3.145,0,0,1-.957,1.479,2.454,2.454,0,0,1-1.608.522,2.427,2.427,0,0,1-2.01-.917A5.829,5.829,0,0,1,86.976,46.13Zm1.116,0a5.545,5.545,0,0,0,.51,2.9,1.457,1.457,0,0,0,2.517,0,5.552,5.552,0,0,0,.51-2.9,5.55,5.55,0,0,0-.51-2.9,1.515,1.515,0,0,0-1.271-.718,1.391,1.391,0,0,0-1.195.633A5.61,5.61,0,0,0,88.092,46.13Z" transform="translate(-20.392 -16.181)"/><path class="cls-7" d="M93.85,46.13a8.094,8.094,0,0,1,.323-2.526,3.144,3.144,0,0,1,.959-1.476,2.452,2.452,0,0,1,1.6-.519,2.615,2.615,0,0,1,1.249.287,2.39,2.39,0,0,1,.887.827,4.439,4.439,0,0,1,.549,1.316,8.739,8.739,0,0,1,.2,2.091,8.13,8.13,0,0,1-.32,2.514,3.145,3.145,0,0,1-.957,1.479,2.454,2.454,0,0,1-1.608.522,2.427,2.427,0,0,1-2.01-.917A5.829,5.829,0,0,1,93.85,46.13Zm1.116,0a5.545,5.545,0,0,0,.51,2.9,1.457,1.457,0,0,0,2.517,0,5.552,5.552,0,0,0,.51-2.9,5.55,5.55,0,0,0-.51-2.9,1.515,1.515,0,0,0-1.271-.718,1.391,1.391,0,0,0-1.195.633A5.61,5.61,0,0,0,94.966,46.13Z" transform="translate(-20.392 -16.181)"/><path class="cls-7" d="M100.724,46.13a8.094,8.094,0,0,1,.323-2.526,3.144,3.144,0,0,1,.959-1.476,2.452,2.452,0,0,1,1.6-.519,2.615,2.615,0,0,1,1.249.287,2.39,2.39,0,0,1,.887.827,4.439,4.439,0,0,1,.549,1.316,8.739,8.739,0,0,1,.2,2.091,8.13,8.13,0,0,1-.32,2.514,3.145,3.145,0,0,1-.957,1.479,2.454,2.454,0,0,1-1.608.522,2.427,2.427,0,0,1-2.01-.917A5.829,5.829,0,0,1,100.724,46.13Zm1.116,0a5.545,5.545,0,0,0,.51,2.9,1.457,1.457,0,0,0,2.517,0,5.552,5.552,0,0,0,.51-2.9,5.55,5.55,0,0,0-.51-2.9,1.515,1.515,0,0,0-1.271-.718,1.391,1.391,0,0,0-1.195.633A5.61,5.61,0,0,0,101.84,46.13Z" transform="translate(-20.392 -16.181)"/><path class="cls-7" d="M261.886,35.662v-7.8h-2.915V26.814h7.013v1.044h-2.927v7.8Z" transform="translate(-20.392 -16.181)"/><path class="cls-7" d="M265.3,35.662l3.4-8.848h1.261l3.621,8.848h-1.334l-1.032-2.68h-3.7l-.972,2.68Zm2.553-3.633h3l-.923-2.45q-.423-1.116-.627-1.834a11.313,11.313,0,0,1-.477,1.689Z" transform="translate(-20.392 -16.181)"/><path class="cls-7" d="M273.612,35.662l3.422-4.611-3.018-4.237h1.395l1.6,2.27q.5.706.712,1.086a11.4,11.4,0,0,1,.7-1.008l1.78-2.348h1.273l-3.108,4.17,3.35,4.677h-1.448l-2.227-3.156q-.187-.272-.386-.592-.3.483-.422.664l-2.221,3.084Z" transform="translate(-20.392 -16.181)"/><path class="cls-7" d="M282.78,35.662V26.814h6.4v1.044h-5.227v2.71h4.895v1.038h-4.895v3.012h5.432v1.044Z" transform="translate(-20.392 -16.181)"/><path class="cls-7" d="M290.6,32.819l1.1-.1a2.436,2.436,0,0,0,.365,1.089,1.994,1.994,0,0,0,.89.688,3.375,3.375,0,0,0,1.358.262,3.25,3.25,0,0,0,1.183-.2,1.636,1.636,0,0,0,.764-.546,1.267,1.267,0,0,0,.25-.757,1.154,1.154,0,0,0-.241-.728,1.794,1.794,0,0,0-.8-.522,15.694,15.694,0,0,0-1.575-.432,8.021,8.021,0,0,1-1.708-.552,2.391,2.391,0,0,1-.944-.824,2.015,2.015,0,0,1-.311-1.1,2.249,2.249,0,0,1,.38-1.252,2.354,2.354,0,0,1,1.11-.884,4.212,4.212,0,0,1,1.624-.3,4.433,4.433,0,0,1,1.735.317,2.507,2.507,0,0,1,1.156.933,2.681,2.681,0,0,1,.434,1.394l-1.123.084a1.81,1.81,0,0,0-.612-1.268A2.385,2.385,0,0,0,294.1,27.7a2.472,2.472,0,0,0-1.548.389,1.166,1.166,0,0,0-.486.938,1,1,0,0,0,.344.785,4.661,4.661,0,0,0,1.765.63,11.705,11.705,0,0,1,1.958.564,2.678,2.678,0,0,1,1.141.9,2.2,2.2,0,0,1,.368,1.258,2.407,2.407,0,0,1-.4,1.331,2.659,2.659,0,0,1-1.162.972,4.046,4.046,0,0,1-1.705.347,5.089,5.089,0,0,1-2.013-.35,2.819,2.819,0,0,1-1.273-1.053A2.987,2.987,0,0,1,290.6,32.819Z" transform="translate(-20.392 -16.181)"/><path class="cls-7" d="M250.634,51.767V50.681a4,4,0,0,1-1.325-.365,2.306,2.306,0,0,1-.881-.848A3.036,3.036,0,0,1,248,48.037l1.092-.205a2.753,2.753,0,0,0,.447,1.286,1.583,1.583,0,0,0,1.1.646V46.305a4.532,4.532,0,0,1-1.37-.519,2,2,0,0,1-.8-.8,2.556,2.556,0,0,1,.54-3.042,2.856,2.856,0,0,1,1.63-.591v-.519h.64v.519a2.678,2.678,0,0,1,1.5.555,2.466,2.466,0,0,1,.857,1.623l-1.123.169a1.86,1.86,0,0,0-.4-.981,1.486,1.486,0,0,0-.836-.45V45.4a8.684,8.684,0,0,1,1.086.32,2.684,2.684,0,0,1,.827.543,2.182,2.182,0,0,1,.492.76,2.794,2.794,0,0,1-.546,2.836,2.635,2.635,0,0,1-1.859.809v1.1Zm0-9.511a1.608,1.608,0,0,0-1,.507,1.507,1.507,0,0,0-.054,1.9,2.14,2.14,0,0,0,1.053.6Zm.64,7.507a1.611,1.611,0,0,0,1.047-.549,1.7,1.7,0,0,0,.414-1.165,1.459,1.459,0,0,0-.293-.951,2.53,2.53,0,0,0-1.167-.643Z" transform="translate(-20.392 -16.181)"/><path class="cls-7" d="M259.035,50.494h-1.086V43.571a5.625,5.625,0,0,1-1.029.749,7.286,7.286,0,0,1-1.144.561v-1.05a6.549,6.549,0,0,0,1.593-1.038,4.087,4.087,0,0,0,.966-1.183h.7Z" transform="translate(-20.392 -16.181)"/><path class="cls-7" d="M262.4,50.494V49.256h1.237v1.237a2.2,2.2,0,0,1-.241,1.1,1.575,1.575,0,0,1-.767.648l-.3-.464a1.029,1.029,0,0,0,.507-.444,1.882,1.882,0,0,0,.181-.842Z" transform="translate(-20.392 -16.181)"/><path class="cls-7" d="M269.343,50.494h-1.086V43.571a5.625,5.625,0,0,1-1.029.749,7.286,7.286,0,0,1-1.144.561v-1.05a6.549,6.549,0,0,0,1.593-1.038,4.087,4.087,0,0,0,.966-1.183h.7Z" transform="translate(-20.392 -16.181)"/><path class="cls-7" d="M277.834,49.45v1.044h-5.848a1.921,1.921,0,0,1,.127-.754,3.986,3.986,0,0,1,.715-1.177,11.17,11.17,0,0,1,1.421-1.34,12.046,12.046,0,0,0,1.95-1.874,2.243,2.243,0,0,0,.507-1.307,1.451,1.451,0,0,0-.462-1.089,1.664,1.664,0,0,0-1.2-.443,1.7,1.7,0,0,0-1.255.471,1.779,1.779,0,0,0-.477,1.3l-1.116-.115a2.747,2.747,0,0,1,.863-1.9,2.944,2.944,0,0,1,2.01-.655,2.8,2.8,0,0,1,2.016.706,2.317,2.317,0,0,1,.742,1.75,2.658,2.658,0,0,1-.217,1.044,4.066,4.066,0,0,1-.721,1.08,17.612,17.612,0,0,1-1.675,1.557q-.978.821-1.255,1.114a3.579,3.579,0,0,0-.459.588Z" transform="translate(-20.392 -16.181)"/><path class="cls-7" d="M280.671,45.7a2.045,2.045,0,0,1-1-.706,1.847,1.847,0,0,1-.326-1.1,2.148,2.148,0,0,1,.694-1.624,2.921,2.921,0,0,1,3.711.015,2.179,2.179,0,0,1,.706,1.639,1.8,1.8,0,0,1-.323,1.071,2.039,2.039,0,0,1-.981.7,2.257,2.257,0,0,1,1.666,2.269,2.542,2.542,0,0,1-.8,1.907,3.27,3.27,0,0,1-4.225,0,2.58,2.58,0,0,1-.8-1.935,2.336,2.336,0,0,1,.438-1.445A2.189,2.189,0,0,1,280.671,45.7Zm-.567,2.245a1.963,1.963,0,0,0,.221.9,1.547,1.547,0,0,0,.655.673,1.91,1.91,0,0,0,.936.239,1.753,1.753,0,0,0,1.285-.5,1.714,1.714,0,0,0,.507-1.273,1.743,1.743,0,0,0-.522-1.3,1.79,1.79,0,0,0-1.307-.513,1.728,1.728,0,0,0-1.774,1.774Zm.35-4.086a1.376,1.376,0,0,0,.4,1.026,1.43,1.43,0,0,0,1.05.4,1.406,1.406,0,0,0,1.029-.4,1.308,1.308,0,0,0,.4-.968,1.355,1.355,0,0,0-.413-1A1.407,1.407,0,0,0,281.9,42.5a1.421,1.421,0,0,0-1.032.4A1.282,1.282,0,0,0,280.454,43.855Z" transform="translate(-20.392 -16.181)"/><path class="cls-7" d="M286.459,50.494V49.256H287.7v1.237a2.2,2.2,0,0,1-.241,1.1,1.575,1.575,0,0,1-.767.648l-.3-.464a1.029,1.029,0,0,0,.507-.444,1.882,1.882,0,0,0,.181-.842Z" transform="translate(-20.392 -16.181)"/><path class="cls-7" d="M289.308,46.13a8.094,8.094,0,0,1,.323-2.526,3.144,3.144,0,0,1,.959-1.476,2.452,2.452,0,0,1,1.6-.519,2.615,2.615,0,0,1,1.249.287,2.39,2.39,0,0,1,.887.827,4.439,4.439,0,0,1,.549,1.316,8.739,8.739,0,0,1,.2,2.091,8.13,8.13,0,0,1-.32,2.514,3.145,3.145,0,0,1-.957,1.479,2.454,2.454,0,0,1-1.608.522,2.427,2.427,0,0,1-2.01-.917A5.829,5.829,0,0,1,289.308,46.13Zm1.116,0a5.545,5.545,0,0,0,.51,2.9,1.457,1.457,0,0,0,2.517,0,5.552,5.552,0,0,0,.51-2.9,5.55,5.55,0,0,0-.51-2.9,1.515,1.515,0,0,0-1.271-.718,1.391,1.391,0,0,0-1.195.633A5.61,5.61,0,0,0,290.424,46.13Z" transform="translate(-20.392 -16.181)"/><path class="cls-7" d="M296.182,46.13A8.094,8.094,0,0,1,296.5,43.6a3.144,3.144,0,0,1,.959-1.476,2.452,2.452,0,0,1,1.6-.519,2.615,2.615,0,0,1,1.249.287,2.39,2.39,0,0,1,.887.827,4.439,4.439,0,0,1,.549,1.316,8.739,8.739,0,0,1,.2,2.091,8.13,8.13,0,0,1-.32,2.514,3.145,3.145,0,0,1-.957,1.479,2.454,2.454,0,0,1-1.608.522,2.427,2.427,0,0,1-2.01-.917A5.829,5.829,0,0,1,296.182,46.13Zm1.116,0a5.545,5.545,0,0,0,.51,2.9,1.457,1.457,0,0,0,2.517,0,5.552,5.552,0,0,0,.51-2.9,5.55,5.55,0,0,0-.51-2.9,1.515,1.515,0,0,0-1.271-.718,1.391,1.391,0,0,0-1.195.633A5.61,5.61,0,0,0,297.3,46.13Z" transform="translate(-20.392 -16.181)"/><path class="cls-7" d="M303.056,46.13a8.094,8.094,0,0,1,.323-2.526,3.144,3.144,0,0,1,.959-1.476,2.452,2.452,0,0,1,1.6-.519,2.615,2.615,0,0,1,1.249.287,2.389,2.389,0,0,1,.887.827,4.363,4.363,0,0,1,.549,1.316,8.739,8.739,0,0,1,.2,2.091,8.135,8.135,0,0,1-.318,2.514,3.16,3.16,0,0,1-.957,1.479,2.454,2.454,0,0,1-1.608.522,2.427,2.427,0,0,1-2.01-.917A5.829,5.829,0,0,1,303.056,46.13Zm1.116,0a5.545,5.545,0,0,0,.51,2.9,1.457,1.457,0,0,0,2.517,0,5.552,5.552,0,0,0,.51-2.9,5.55,5.55,0,0,0-.51-2.9,1.516,1.516,0,0,0-1.271-.718,1.391,1.391,0,0,0-1.195.633A5.61,5.61,0,0,0,304.172,46.13Z" transform="translate(-20.392 -16.181)"/><path class="cls-7" d="M228.323,114.9l3.4-8.848h1.261L236.6,114.9H235.27l-1.032-2.68h-3.7l-.972,2.68Zm2.553-3.633h3l-.923-2.45q-.423-1.116-.627-1.834a11.313,11.313,0,0,1-.477,1.689Z" transform="translate(-20.392 -16.181)"/><path class="cls-7" d="M239.15,114.9l-3.428-8.848h1.268l2.3,6.428q.278.772.465,1.448.205-.724.477-1.448l2.39-6.428h1.195l-3.464,8.848Z" transform="translate(-20.392 -16.181)"/><path class="cls-7" d="M242.977,114.9l3.4-8.848h1.261l3.621,8.848h-1.334l-1.032-2.68h-3.7l-.972,2.68Zm2.553-3.633h3l-.923-2.45q-.423-1.116-.627-1.834a11.313,11.313,0,0,1-.477,1.689Z" transform="translate(-20.392 -16.181)"/><path class="cls-7" d="M252.392,114.9v-8.848h1.171V114.9Z" transform="translate(-20.392 -16.181)"/><path class="cls-7" d="M255.579,114.9v-8.848h1.171v7.8h4.357V114.9Z" transform="translate(-20.392 -16.181)"/><path class="cls-7" d="M261.529,114.9l3.4-8.848h1.261l3.621,8.848h-1.334l-1.032-2.68h-3.7l-.972,2.68Zm2.553-3.633h3l-.923-2.45q-.423-1.116-.627-1.834a11.313,11.313,0,0,1-.477,1.689Z" transform="translate(-20.392 -16.181)"/><path class="cls-7" d="M270.7,114.9v-8.848h3.319a4.114,4.114,0,0,1,1.626.269,2.092,2.092,0,0,1,.959.827,2.178,2.178,0,0,1,.347,1.167,2.007,2.007,0,0,1-.308,1.068,2.2,2.2,0,0,1-.93.809,2.314,2.314,0,0,1,1.234.8,2.151,2.151,0,0,1,.432,1.34,2.587,2.587,0,0,1-.263,1.156,2.241,2.241,0,0,1-.649.824,2.7,2.7,0,0,1-.969.438,5.886,5.886,0,0,1-1.427.148Zm1.171-5.13h1.913a4.274,4.274,0,0,0,1.117-.1,1.242,1.242,0,0,0,.673-.44,1.271,1.271,0,0,0,.226-.773,1.425,1.425,0,0,0-.211-.775,1.072,1.072,0,0,0-.6-.458,5.039,5.039,0,0,0-1.346-.124h-1.768Zm0,4.086h2.2a5.044,5.044,0,0,0,.8-.042,1.907,1.907,0,0,0,.676-.241,1.283,1.283,0,0,0,.447-.492,1.537,1.537,0,0,0,.175-.745,1.469,1.469,0,0,0-.253-.86,1.336,1.336,0,0,0-.7-.513,4.358,4.358,0,0,0-1.294-.148h-2.046Z" transform="translate(-20.392 -16.181)"/><path class="cls-7" d="M278.941,114.9v-8.848h1.171v7.8h4.357V114.9Z" transform="translate(-20.392 -16.181)"/><path class="cls-7" d="M285.887,114.9v-8.848h6.4V107.1h-5.227v2.71h4.895v1.038h-4.895v3.012h5.432V114.9Z" transform="translate(-20.392 -16.181)"/><path class="cls-7" d="M297.6,114.9v-8.848h5.969V107.1h-4.8v2.74h4.152v1.044h-4.152v4.02Z" transform="translate(-20.392 -16.181)"/><path class="cls-7" d="M304.735,110.594a4.808,4.808,0,0,1,1.183-3.449,4.023,4.023,0,0,1,3.054-1.246,4.238,4.238,0,0,1,2.209.585,3.82,3.82,0,0,1,1.5,1.632,5.306,5.306,0,0,1,.516,2.375,5.21,5.21,0,0,1-.543,2.408,3.7,3.7,0,0,1-1.539,1.608,4.4,4.4,0,0,1-2.148.546,4.183,4.183,0,0,1-2.233-.6,3.885,3.885,0,0,1-1.491-1.647A5,5,0,0,1,304.735,110.594Zm1.207.018a3.544,3.544,0,0,0,.86,2.52,3,3,0,0,0,4.333-.009,3.759,3.759,0,0,0,.854-2.638,4.521,4.521,0,0,0-.365-1.886,2.806,2.806,0,0,0-1.068-1.25,2.9,2.9,0,0,0-1.578-.443,2.994,2.994,0,0,0-2.139.854A3.814,3.814,0,0,0,305.942,110.612Z" transform="translate(-20.392 -16.181)"/><path class="cls-7" d="M314.723,114.9v-8.848h3.923a5.234,5.234,0,0,1,1.8.238,1.968,1.968,0,0,1,.983.842,2.514,2.514,0,0,1,.368,1.333,2.226,2.226,0,0,1-.609,1.587,3.084,3.084,0,0,1-1.883.821,3.041,3.041,0,0,1,.706.44,6.091,6.091,0,0,1,.972,1.177l1.539,2.408h-1.473l-1.171-1.841q-.514-.8-.845-1.219a2.68,2.68,0,0,0-.595-.591,1.772,1.772,0,0,0-.534-.235,3.56,3.56,0,0,0-.652-.042h-1.357V114.9Zm1.171-4.943h2.517a3.766,3.766,0,0,0,1.255-.166,1.338,1.338,0,0,0,.688-.531,1.436,1.436,0,0,0,.235-.794,1.318,1.318,0,0,0-.456-1.032,2.131,2.131,0,0,0-1.439-.4h-2.8Z" transform="translate(-20.392 -16.181)"/><path class="cls-7" d="M327.063,114.9v-8.848h3.048a7.383,7.383,0,0,1,1.575.127,3,3,0,0,1,1.3.634,3.6,3.6,0,0,1,1.047,1.512,5.93,5.93,0,0,1,.348,2.1,6.2,6.2,0,0,1-.235,1.787,4.354,4.354,0,0,1-.6,1.289,3.234,3.234,0,0,1-.806.8,3.3,3.3,0,0,1-1.057.443,6.023,6.023,0,0,1-1.421.151Zm1.171-1.044h1.89a4.594,4.594,0,0,0,1.373-.163,1.963,1.963,0,0,0,.793-.458,2.79,2.79,0,0,0,.649-1.12,5.492,5.492,0,0,0,.232-1.705,4.117,4.117,0,0,0-.456-2.133,2.292,2.292,0,0,0-1.107-1,4.576,4.576,0,0,0-1.515-.181h-1.859Z" transform="translate(-20.392 -16.181)"/><path class="cls-7" d="M336.188,114.9v-8.848h1.171V114.9Z" transform="translate(-20.392 -16.181)"/><path class="cls-7" d="M339.025,112.06l1.1-.1a2.441,2.441,0,0,0,.364,1.089,2,2,0,0,0,.891.688,3.372,3.372,0,0,0,1.357.262,3.254,3.254,0,0,0,1.184-.2,1.638,1.638,0,0,0,.764-.546,1.273,1.273,0,0,0,.25-.757,1.151,1.151,0,0,0-.241-.728,1.794,1.794,0,0,0-.8-.522,15.694,15.694,0,0,0-1.575-.432,8.021,8.021,0,0,1-1.708-.552,2.388,2.388,0,0,1-.944-.824,2.019,2.019,0,0,1-.311-1.1,2.245,2.245,0,0,1,.38-1.252,2.359,2.359,0,0,1,1.11-.884,4.217,4.217,0,0,1,1.624-.3,4.43,4.43,0,0,1,1.734.317,2.5,2.5,0,0,1,1.156.933,2.681,2.681,0,0,1,.435,1.394l-1.123.084a1.814,1.814,0,0,0-.612-1.268,2.384,2.384,0,0,0-1.542-.428,2.471,2.471,0,0,0-1.548.389,1.167,1.167,0,0,0-.486.938,1.006,1.006,0,0,0,.345.785,4.65,4.65,0,0,0,1.765.63,11.715,11.715,0,0,1,1.959.564,2.687,2.687,0,0,1,1.141.9,2.2,2.2,0,0,1,.368,1.258,2.407,2.407,0,0,1-.4,1.331,2.66,2.66,0,0,1-1.162.972,4.046,4.046,0,0,1-1.705.347,5.089,5.089,0,0,1-2.013-.35,2.819,2.819,0,0,1-1.273-1.053A2.982,2.982,0,0,1,339.025,112.06Z" transform="translate(-20.392 -16.181)"/><path class="cls-7" d="M349.919,114.9v-7.8H347v-1.044h7.013V107.1H351.09v7.8Z" transform="translate(-20.392 -16.181)"/><path class="cls-7" d="M355.235,114.9v-8.848h3.923a5.234,5.234,0,0,1,1.8.238,1.968,1.968,0,0,1,.983.842,2.514,2.514,0,0,1,.368,1.333,2.226,2.226,0,0,1-.609,1.587,3.084,3.084,0,0,1-1.883.821,3.041,3.041,0,0,1,.706.44,6.091,6.091,0,0,1,.972,1.177l1.539,2.408h-1.473l-1.171-1.841q-.514-.8-.845-1.219a2.68,2.68,0,0,0-.595-.591,1.772,1.772,0,0,0-.534-.235,3.56,3.56,0,0,0-.652-.042h-1.357V114.9Zm1.171-4.943h2.517a3.766,3.766,0,0,0,1.255-.166,1.338,1.338,0,0,0,.688-.531,1.436,1.436,0,0,0,.235-.794,1.318,1.318,0,0,0-.456-1.032,2.131,2.131,0,0,0-1.439-.4h-2.8Z" transform="translate(-20.392 -16.181)"/><path class="cls-7" d="M364.342,114.9v-8.848h1.171V114.9Z" transform="translate(-20.392 -16.181)"/><path class="cls-7" d="M367.528,114.9v-8.848h3.319a4.12,4.12,0,0,1,1.627.269,2.091,2.091,0,0,1,.959.827,2.178,2.178,0,0,1,.348,1.167,2.008,2.008,0,0,1-.309,1.068,2.2,2.2,0,0,1-.929.809,2.31,2.31,0,0,1,1.233.8,2.148,2.148,0,0,1,.432,1.34,2.574,2.574,0,0,1-.263,1.156,2.23,2.23,0,0,1-.648.824,2.7,2.7,0,0,1-.969.438,5.884,5.884,0,0,1-1.427.148Zm1.171-5.13h1.913a4.267,4.267,0,0,0,1.116-.1,1.238,1.238,0,0,0,.673-.44,1.268,1.268,0,0,0,.227-.773,1.425,1.425,0,0,0-.211-.775,1.068,1.068,0,0,0-.6-.458,5.035,5.035,0,0,0-1.346-.124H368.7Zm0,4.086h2.2a5.029,5.029,0,0,0,.8-.042,1.916,1.916,0,0,0,.677-.241,1.29,1.29,0,0,0,.446-.492,1.542,1.542,0,0,0,.175-.745,1.469,1.469,0,0,0-.253-.86,1.34,1.34,0,0,0-.7-.513,4.359,4.359,0,0,0-1.295-.148H368.7Z" transform="translate(-20.392 -16.181)"/><path class="cls-7" d="M381.627,106.055H382.8v5.112a6.054,6.054,0,0,1-.3,2.119,2.59,2.59,0,0,1-1.09,1.276,3.861,3.861,0,0,1-2.067.492,4.246,4.246,0,0,1-2.033-.429,2.445,2.445,0,0,1-1.129-1.24,5.9,5.9,0,0,1-.338-2.218v-5.112h1.171v5.106a4.985,4.985,0,0,0,.214,1.7,1.625,1.625,0,0,0,.736.842,2.554,2.554,0,0,0,1.276.3,2.44,2.44,0,0,0,1.841-.585,3.371,3.371,0,0,0,.55-2.251Z" transform="translate(-20.392 -16.181)"/><path class="cls-7" d="M387,114.9v-7.8h-2.915v-1.044H391.1V107.1h-2.927v7.8Z" transform="translate(-20.392 -16.181)"/><path class="cls-7" d="M392.5,114.9v-8.848h1.171V114.9Z" transform="translate(-20.392 -16.181)"/><path class="cls-7" d="M395.374,110.594a4.81,4.81,0,0,1,1.183-3.449,4.023,4.023,0,0,1,3.054-1.246,4.238,4.238,0,0,1,2.209.585,3.82,3.82,0,0,1,1.5,1.632,5.306,5.306,0,0,1,.516,2.375,5.21,5.21,0,0,1-.543,2.408,3.7,3.7,0,0,1-1.539,1.608,4.4,4.4,0,0,1-2.148.546,4.186,4.186,0,0,1-2.233-.6,3.887,3.887,0,0,1-1.49-1.647A5,5,0,0,1,395.374,110.594Zm1.207.018a3.543,3.543,0,0,0,.859,2.52,3,3,0,0,0,4.334-.009,3.759,3.759,0,0,0,.854-2.638,4.521,4.521,0,0,0-.365-1.886,2.806,2.806,0,0,0-1.068-1.25,2.9,2.9,0,0,0-1.578-.443,2.992,2.992,0,0,0-2.139.854A3.814,3.814,0,0,0,396.581,110.612Z" transform="translate(-20.392 -16.181)"/><path class="cls-7" d="M405.332,114.9v-8.848h1.2L411.181,113v-6.947H412.3V114.9h-1.2l-4.646-6.953V114.9Z" transform="translate(-20.392 -16.181)"/><path class="cls-7" d="M292.979,131.008v-1.086a4,4,0,0,1-1.325-.365,2.306,2.306,0,0,1-.881-.848,3.036,3.036,0,0,1-.432-1.431l1.092-.205a2.753,2.753,0,0,0,.447,1.286,1.583,1.583,0,0,0,1.1.646v-3.458a4.532,4.532,0,0,1-1.37-.519,2,2,0,0,1-.8-.8,2.556,2.556,0,0,1,.54-3.042,2.856,2.856,0,0,1,1.63-.591v-.519h.64v.519a2.678,2.678,0,0,1,1.5.555,2.466,2.466,0,0,1,.857,1.623l-1.123.169a1.86,1.86,0,0,0-.4-.981,1.486,1.486,0,0,0-.836-.45v3.132a8.684,8.684,0,0,1,1.086.32,2.684,2.684,0,0,1,.827.543,2.182,2.182,0,0,1,.492.76,2.794,2.794,0,0,1-.546,2.836,2.635,2.635,0,0,1-1.859.809v1.1Zm0-9.511a1.608,1.608,0,0,0-1,.507,1.507,1.507,0,0,0-.054,1.9,2.14,2.14,0,0,0,1.053.6Zm.64,7.507a1.611,1.611,0,0,0,1.047-.549,1.7,1.7,0,0,0,.414-1.165,1.459,1.459,0,0,0-.293-.951,2.53,2.53,0,0,0-1.167-.643Z" transform="translate(-20.392 -16.181)"/><path class="cls-7" d="M297.45,127.689l1.044-.1a1.812,1.812,0,0,0,.507,1.068,1.393,1.393,0,0,0,.959.332,1.657,1.657,0,0,0,.878-.229,1.869,1.869,0,0,0,.619-.613,3.6,3.6,0,0,0,.4-1.035,5.467,5.467,0,0,0,.163-1.328c0-.048,0-.121-.006-.217a2.493,2.493,0,0,1-.89.842,2.419,2.419,0,0,1-1.222.323,2.472,2.472,0,0,1-1.859-.8,2.917,2.917,0,0,1-.76-2.1,2.985,2.985,0,0,1,.793-2.167,2.65,2.65,0,0,1,1.989-.821,2.836,2.836,0,0,1,1.578.465,2.9,2.9,0,0,1,1.086,1.325,6.53,6.53,0,0,1,.371,2.489,8.064,8.064,0,0,1-.368,2.7,3.166,3.166,0,0,1-1.1,1.53,2.834,2.834,0,0,1-1.7.525,2.337,2.337,0,0,1-2.487-2.2Zm4.448-3.9a2.127,2.127,0,0,0-.5-1.485,1.562,1.562,0,0,0-1.2-.549,1.654,1.654,0,0,0-1.262.591,2.193,2.193,0,0,0-.537,1.533,1.892,1.892,0,0,0,.51,1.373,1.68,1.68,0,0,0,1.258.528,1.611,1.611,0,0,0,1.24-.528A2.081,2.081,0,0,0,301.9,123.784Z" transform="translate(-20.392 -16.181)"/><path class="cls-7" d="M304.747,129.735V128.5h1.237v1.237a2.2,2.2,0,0,1-.241,1.1,1.575,1.575,0,0,1-.767.648l-.3-.464a1.029,1.029,0,0,0,.507-.444,1.882,1.882,0,0,0,.181-.842Z" transform="translate(-20.392 -16.181)"/><path class="cls-7" d="M311.687,129.735H310.6v-6.922a5.613,5.613,0,0,1-1.029.749,7.242,7.242,0,0,1-1.144.561v-1.05a6.561,6.561,0,0,0,1.594-1.038,4.082,4.082,0,0,0,.965-1.183h.7Z" transform="translate(-20.392 -16.181)"/><path class="cls-7" d="M317.951,129.735v-2.118h-3.838v-1l4.037-5.733h.888v5.733h1.194v1h-1.194v2.118Zm0-3.114v-3.989l-2.77,3.989Z" transform="translate(-20.392 -16.181)"/><path class="cls-7" d="M327.053,128.691v1.044H321.2a1.921,1.921,0,0,1,.127-.754,3.974,3.974,0,0,1,.715-1.177,11.188,11.188,0,0,1,1.422-1.34,12.059,12.059,0,0,0,1.949-1.874,2.243,2.243,0,0,0,.507-1.307,1.453,1.453,0,0,0-.462-1.089,1.664,1.664,0,0,0-1.2-.443,1.7,1.7,0,0,0-1.255.471,1.777,1.777,0,0,0-.477,1.3l-1.117-.115a2.747,2.747,0,0,1,.863-1.9,2.944,2.944,0,0,1,2.01-.655,2.805,2.805,0,0,1,2.016.706,2.317,2.317,0,0,1,.742,1.75,2.658,2.658,0,0,1-.217,1.044,4.069,4.069,0,0,1-.722,1.08,17.43,17.43,0,0,1-1.675,1.557q-.977.821-1.255,1.114a3.552,3.552,0,0,0-.459.588Z" transform="translate(-20.392 -16.181)"/><path class="cls-7" d="M328.8,129.735V128.5h1.237v1.237a2.195,2.195,0,0,1-.242,1.1,1.57,1.57,0,0,1-.766.648l-.3-.464a1.037,1.037,0,0,0,.507-.444,1.889,1.889,0,0,0,.181-.842Z" transform="translate(-20.392 -16.181)"/><path class="cls-7" d="M331.65,125.372a8.078,8.078,0,0,1,.323-2.526,3.138,3.138,0,0,1,.96-1.476,2.449,2.449,0,0,1,1.6-.519,2.621,2.621,0,0,1,1.25.287,2.4,2.4,0,0,1,.887.827,4.414,4.414,0,0,1,.549,1.316,8.739,8.739,0,0,1,.2,2.091,8.131,8.131,0,0,1-.319,2.514,3.146,3.146,0,0,1-.957,1.479,2.693,2.693,0,0,1-3.618-.4A5.832,5.832,0,0,1,331.65,125.372Zm1.117,0a5.551,5.551,0,0,0,.51,2.9,1.457,1.457,0,0,0,2.517,0,8.5,8.5,0,0,0,0-5.8,1.514,1.514,0,0,0-1.271-.718,1.392,1.392,0,0,0-1.2.633A5.616,5.616,0,0,0,332.768,125.372Z" transform="translate(-20.392 -16.181)"/><path class="cls-7" d="M338.524,125.372a8.078,8.078,0,0,1,.323-2.526,3.138,3.138,0,0,1,.96-1.476,2.449,2.449,0,0,1,1.6-.519,2.621,2.621,0,0,1,1.25.287,2.4,2.4,0,0,1,.887.827,4.414,4.414,0,0,1,.549,1.316,8.739,8.739,0,0,1,.2,2.091,8.131,8.131,0,0,1-.319,2.514,3.146,3.146,0,0,1-.957,1.479,2.693,2.693,0,0,1-3.618-.4A5.832,5.832,0,0,1,338.524,125.372Zm1.117,0a5.551,5.551,0,0,0,.51,2.9,1.457,1.457,0,0,0,2.517,0,8.5,8.5,0,0,0,0-5.8,1.514,1.514,0,0,0-1.271-.718,1.392,1.392,0,0,0-1.2.633A5.616,5.616,0,0,0,339.642,125.372Z" transform="translate(-20.392 -16.181)"/><path class="cls-7" d="M345.4,125.372a8.078,8.078,0,0,1,.323-2.526,3.138,3.138,0,0,1,.96-1.476,2.449,2.449,0,0,1,1.6-.519,2.621,2.621,0,0,1,1.25.287,2.4,2.4,0,0,1,.887.827,4.414,4.414,0,0,1,.549,1.316,8.739,8.739,0,0,1,.2,2.091,8.131,8.131,0,0,1-.319,2.514,3.146,3.146,0,0,1-.957,1.479,2.693,2.693,0,0,1-3.618-.4A5.832,5.832,0,0,1,345.4,125.372Zm1.117,0a5.551,5.551,0,0,0,.51,2.9,1.457,1.457,0,0,0,2.517,0,8.5,8.5,0,0,0,0-5.8,1.514,1.514,0,0,0-1.271-.718,1.392,1.392,0,0,0-1.2.633A5.616,5.616,0,0,0,346.516,125.372Z" transform="translate(-20.392 -16.181)"/><path class="cls-7" d="M184.571,195.844V187h3.048a7.393,7.393,0,0,1,1.575.127,2.992,2.992,0,0,1,1.3.634,3.6,3.6,0,0,1,1.047,1.512,5.941,5.941,0,0,1,.347,2.1,6.171,6.171,0,0,1-.235,1.787,4.33,4.33,0,0,1-.6,1.289,3.2,3.2,0,0,1-.806.8,3.287,3.287,0,0,1-1.056.443,6.03,6.03,0,0,1-1.421.151Zm1.171-1.044h1.889a4.589,4.589,0,0,0,1.373-.163,1.967,1.967,0,0,0,.794-.458,2.794,2.794,0,0,0,.648-1.12,5.463,5.463,0,0,0,.232-1.705,4.118,4.118,0,0,0-.456-2.133,2.292,2.292,0,0,0-1.107-1,4.58,4.58,0,0,0-1.515-.181h-1.859Z" transform="translate(-20.392 -16.181)"/><path class="cls-7" d="M192.525,195.844l3.4-8.848h1.261l3.621,8.848h-1.334l-1.032-2.68h-3.7l-.972,2.68Zm2.553-3.633h3l-.923-2.45q-.423-1.116-.627-1.834a11.313,11.313,0,0,1-.477,1.689Z" transform="translate(-20.392 -16.181)"/><path class="cls-7" d="M207.547,187h1.171v5.112a6.054,6.054,0,0,1-.3,2.119,2.586,2.586,0,0,1-1.089,1.276,3.859,3.859,0,0,1-2.067.492,4.25,4.25,0,0,1-2.034-.429,2.446,2.446,0,0,1-1.128-1.24,5.913,5.913,0,0,1-.338-2.218V187h1.171V192.1a4.97,4.97,0,0,0,.214,1.7,1.623,1.623,0,0,0,.736.842,2.552,2.552,0,0,0,1.276.3,2.439,2.439,0,0,0,1.84-.585,3.372,3.372,0,0,0,.549-2.251Z" transform="translate(-20.392 -16.181)"/><path class="cls-7" d="M214.808,192.374v-1.038l3.748-.006v3.283a6.6,6.6,0,0,1-1.78,1.035,5.277,5.277,0,0,1-1.883.347,5.024,5.024,0,0,1-2.369-.558,3.687,3.687,0,0,1-1.608-1.615,5.079,5.079,0,0,1-.543-2.359,5.477,5.477,0,0,1,.54-2.411,3.592,3.592,0,0,1,1.554-1.663,4.87,4.87,0,0,1,2.336-.543,4.621,4.621,0,0,1,1.735.311,2.877,2.877,0,0,1,1.216.866,3.855,3.855,0,0,1,.67,1.449l-1.056.29a3.264,3.264,0,0,0-.5-1.062,2.029,2.029,0,0,0-.845-.619,3.1,3.1,0,0,0-1.219-.232,3.587,3.587,0,0,0-1.388.245,2.584,2.584,0,0,0-.944.643,3.06,3.06,0,0,0-.559.875,4.635,4.635,0,0,0-.338,1.78,4.314,4.314,0,0,0,.408,1.979,2.6,2.6,0,0,0,1.186,1.183,3.674,3.674,0,0,0,1.654.386,3.936,3.936,0,0,0,1.485-.292,3.831,3.831,0,0,0,1.1-.625v-1.647Z" transform="translate(-20.392 -16.181)"/><path class="cls-7" d="M220.318,195.844V187h1.171v3.633h4.6V187h1.171v8.848h-1.171v-4.17h-4.6v4.17Z" transform="translate(-20.392 -16.181)"/><path class="cls-7" d="M231.459,195.844v-7.8h-2.915V187h7.013v1.044H232.63v7.8Z" transform="translate(-20.392 -16.181)"/><path class="cls-7" d="M236.782,195.844V187h6.4v1.044h-5.227v2.71h4.895v1.038h-4.895V194.8h5.432v1.044Z" transform="translate(-20.392 -16.181)"/><path class="cls-7" d="M245.02,195.844V187h3.923a5.225,5.225,0,0,1,1.8.238,1.969,1.969,0,0,1,.984.842,2.509,2.509,0,0,1,.368,1.333,2.226,2.226,0,0,1-.609,1.587,3.086,3.086,0,0,1-1.883.821,3.02,3.02,0,0,1,.706.44,6.073,6.073,0,0,1,.972,1.177l1.539,2.408h-1.473L250.174,194q-.513-.8-.845-1.219a2.669,2.669,0,0,0-.594-.591,1.772,1.772,0,0,0-.534-.235,3.554,3.554,0,0,0-.652-.042h-1.358v3.929Zm1.171-4.943h2.517a3.769,3.769,0,0,0,1.255-.166,1.334,1.334,0,0,0,.688-.531,1.44,1.44,0,0,0,.235-.794,1.318,1.318,0,0,0-.456-1.032,2.132,2.132,0,0,0-1.439-.4h-2.8Z" transform="translate(-20.392 -16.181)"/><path class="cls-7" d="M190.443,211.95v-1.086a4,4,0,0,1-1.325-.365,2.306,2.306,0,0,1-.881-.848,3.036,3.036,0,0,1-.432-1.431l1.092-.205a2.753,2.753,0,0,0,.447,1.286,1.583,1.583,0,0,0,1.1.646v-3.458a4.532,4.532,0,0,1-1.37-.519,2,2,0,0,1-.8-.8,2.556,2.556,0,0,1,.54-3.042,2.856,2.856,0,0,1,1.63-.591v-.519h.64v.519a2.678,2.678,0,0,1,1.5.555,2.466,2.466,0,0,1,.857,1.623l-1.123.169a1.86,1.86,0,0,0-.4-.981,1.486,1.486,0,0,0-.836-.45v3.132a8.684,8.684,0,0,1,1.086.32,2.684,2.684,0,0,1,.827.543,2.182,2.182,0,0,1,.492.76,2.794,2.794,0,0,1-.546,2.836,2.635,2.635,0,0,1-1.859.809v1.1Zm0-9.511a1.608,1.608,0,0,0-1,.507,1.507,1.507,0,0,0-.054,1.9,2.14,2.14,0,0,0,1.053.6Zm.64,7.507a1.611,1.611,0,0,0,1.047-.549,1.7,1.7,0,0,0,.414-1.165,1.459,1.459,0,0,0-.293-.951,2.53,2.53,0,0,0-1.167-.643Z" transform="translate(-20.392 -16.181)"/><path class="cls-7" d="M198.234,210.676v-2.118H194.4v-1l4.038-5.733h.887v5.733h1.195v1h-1.195v2.118Zm0-3.114v-3.989l-2.77,3.989Z" transform="translate(-20.392 -16.181)"/><path class="cls-7" d="M202.212,210.676v-1.237h1.237v1.237a2.2,2.2,0,0,1-.241,1.1,1.575,1.575,0,0,1-.767.648l-.3-.464a1.029,1.029,0,0,0,.507-.444,1.882,1.882,0,0,0,.181-.842Z" transform="translate(-20.392 -16.181)"/><path class="cls-7" d="M205.061,208.359l1.141-.1a2.044,2.044,0,0,0,.588,1.252,1.6,1.6,0,0,0,1.113.419,1.733,1.733,0,0,0,1.328-.592,2.227,2.227,0,0,0,.543-1.569,2.017,2.017,0,0,0-.522-1.467,1.821,1.821,0,0,0-1.367-.537,1.894,1.894,0,0,0-.947.238,1.84,1.84,0,0,0-.664.619l-1.02-.133.857-4.544h4.4v1.038h-3.531l-.477,2.378a2.878,2.878,0,0,1,1.671-.555,2.649,2.649,0,0,1,1.956.8,2.8,2.8,0,0,1,.8,2.064,3.222,3.222,0,0,1-.7,2.076,2.8,2.8,0,0,1-2.324,1.074,2.861,2.861,0,0,1-1.97-.676A2.636,2.636,0,0,1,205.061,208.359Z" transform="translate(-20.392 -16.181)"/><path class="cls-7" d="M212.007,202.987v-1.044h5.728v.845a12.071,12.071,0,0,0-1.675,2.39,14.55,14.55,0,0,0-1.283,3.066,11.4,11.4,0,0,0-.417,2.432h-1.116a10.816,10.816,0,0,1,.41-2.523,13.272,13.272,0,0,1,1.125-2.852,12.259,12.259,0,0,1,1.56-2.314Z" transform="translate(-20.392 -16.181)"/><path class="cls-7" d="M222.9,210.676h-1.086v-6.922a5.625,5.625,0,0,1-1.029.749,7.286,7.286,0,0,1-1.144.561v-1.05a6.549,6.549,0,0,0,1.593-1.038,4.087,4.087,0,0,0,.966-1.183h.7Z" transform="translate(-20.392 -16.181)"/><path class="cls-7" d="M226.268,210.676v-1.237H227.5v1.237a2.2,2.2,0,0,1-.241,1.1,1.575,1.575,0,0,1-.767.648l-.3-.464a1.029,1.029,0,0,0,.507-.444,1.882,1.882,0,0,0,.181-.842Z" transform="translate(-20.392 -16.181)"/><path class="cls-7" d="M229.117,206.313a8.094,8.094,0,0,1,.323-2.526,3.144,3.144,0,0,1,.959-1.476,2.452,2.452,0,0,1,1.6-.519,2.615,2.615,0,0,1,1.249.287,2.39,2.39,0,0,1,.887.827,4.439,4.439,0,0,1,.549,1.316,8.739,8.739,0,0,1,.2,2.091,8.13,8.13,0,0,1-.32,2.514,3.145,3.145,0,0,1-.957,1.479,2.454,2.454,0,0,1-1.608.522,2.427,2.427,0,0,1-2.01-.917A5.829,5.829,0,0,1,229.117,206.313Zm1.116,0a5.545,5.545,0,0,0,.51,2.9,1.457,1.457,0,0,0,2.517,0,8.5,8.5,0,0,0,0-5.8,1.515,1.515,0,0,0-1.271-.718,1.391,1.391,0,0,0-1.195.633A5.61,5.61,0,0,0,230.233,206.313Z" transform="translate(-20.392 -16.181)"/><path class="cls-7" d="M235.991,206.313a8.094,8.094,0,0,1,.323-2.526,3.144,3.144,0,0,1,.959-1.476,2.452,2.452,0,0,1,1.6-.519,2.615,2.615,0,0,1,1.249.287,2.39,2.39,0,0,1,.887.827,4.439,4.439,0,0,1,.549,1.316,8.739,8.739,0,0,1,.2,2.091,8.13,8.13,0,0,1-.32,2.514,3.145,3.145,0,0,1-.957,1.479,2.454,2.454,0,0,1-1.608.522,2.427,2.427,0,0,1-2.01-.917A5.829,5.829,0,0,1,235.991,206.313Zm1.116,0a5.545,5.545,0,0,0,.51,2.9,1.457,1.457,0,0,0,2.517,0,8.5,8.5,0,0,0,0-5.8,1.515,1.515,0,0,0-1.271-.718,1.391,1.391,0,0,0-1.195.633A5.61,5.61,0,0,0,237.107,206.313Z" transform="translate(-20.392 -16.181)"/><path class="cls-7" d="M242.865,206.313a8.094,8.094,0,0,1,.323-2.526,3.144,3.144,0,0,1,.959-1.476,2.452,2.452,0,0,1,1.6-.519,2.615,2.615,0,0,1,1.249.287,2.39,2.39,0,0,1,.887.827,4.439,4.439,0,0,1,.549,1.316,8.739,8.739,0,0,1,.2,2.091,8.13,8.13,0,0,1-.32,2.514,3.145,3.145,0,0,1-.957,1.479,2.454,2.454,0,0,1-1.608.522,2.427,2.427,0,0,1-2.01-.917A5.829,5.829,0,0,1,242.865,206.313Zm1.116,0a5.545,5.545,0,0,0,.51,2.9,1.457,1.457,0,0,0,2.517,0,8.5,8.5,0,0,0,0-5.8,1.515,1.515,0,0,0-1.271-.718,1.391,1.391,0,0,0-1.195.633A5.61,5.61,0,0,0,243.981,206.313Z" transform="translate(-20.392 -16.181)"/><path class="cls-7" d="M407.791,193l1.1-.1a2.441,2.441,0,0,0,.364,1.089,2,2,0,0,0,.891.688,3.372,3.372,0,0,0,1.357.262,3.254,3.254,0,0,0,1.184-.2,1.638,1.638,0,0,0,.764-.546,1.273,1.273,0,0,0,.25-.757,1.151,1.151,0,0,0-.241-.728,1.794,1.794,0,0,0-.8-.522,15.694,15.694,0,0,0-1.575-.432,8.021,8.021,0,0,1-1.708-.552,2.388,2.388,0,0,1-.944-.824,2.019,2.019,0,0,1-.311-1.1,2.245,2.245,0,0,1,.38-1.252,2.359,2.359,0,0,1,1.11-.884,4.217,4.217,0,0,1,1.624-.3,4.43,4.43,0,0,1,1.734.317,2.5,2.5,0,0,1,1.156.933,2.681,2.681,0,0,1,.435,1.394l-1.123.084a1.814,1.814,0,0,0-.612-1.268,2.384,2.384,0,0,0-1.542-.428,2.471,2.471,0,0,0-1.548.389,1.167,1.167,0,0,0-.486.938,1.006,1.006,0,0,0,.345.785,4.65,4.65,0,0,0,1.765.63,11.715,11.715,0,0,1,1.959.564,2.687,2.687,0,0,1,1.141.9,2.2,2.2,0,0,1,.368,1.258,2.407,2.407,0,0,1-.4,1.331,2.66,2.66,0,0,1-1.162.972,4.046,4.046,0,0,1-1.705.347,5.089,5.089,0,0,1-2.013-.35,2.819,2.819,0,0,1-1.273-1.053A2.982,2.982,0,0,1,407.791,193Z" transform="translate(-20.392 -16.181)"/><path class="cls-7" d="M416.077,191.535a4.81,4.81,0,0,1,1.183-3.449,4.023,4.023,0,0,1,3.054-1.246,4.238,4.238,0,0,1,2.209.585,3.82,3.82,0,0,1,1.5,1.632,5.306,5.306,0,0,1,.516,2.375A5.21,5.21,0,0,1,424,193.84a3.7,3.7,0,0,1-1.539,1.608,4.4,4.4,0,0,1-2.148.546,4.186,4.186,0,0,1-2.233-.6,3.887,3.887,0,0,1-1.49-1.647A5,5,0,0,1,416.077,191.535Zm1.207.018a3.543,3.543,0,0,0,.859,2.52,3,3,0,0,0,4.334-.009,3.759,3.759,0,0,0,.854-2.638,4.521,4.521,0,0,0-.365-1.886,2.806,2.806,0,0,0-1.068-1.25,2.9,2.9,0,0,0-1.578-.443,2.992,2.992,0,0,0-2.139.854A3.814,3.814,0,0,0,417.284,191.553Z" transform="translate(-20.392 -16.181)"/><path class="cls-7" d="M426.035,195.844V187h1.2l4.647,6.947V187h1.122v8.848h-1.2l-4.646-6.953v6.953Z" transform="translate(-20.392 -16.181)"/><path class="cls-7" d="M392.775,211.95v-1.086a4.007,4.007,0,0,1-1.325-.365,2.305,2.305,0,0,1-.881-.848,3.036,3.036,0,0,1-.432-1.431l1.093-.205a2.754,2.754,0,0,0,.446,1.286,1.583,1.583,0,0,0,1.1.646v-3.458a4.527,4.527,0,0,1-1.37-.519,2.008,2.008,0,0,1-.8-.8,2.558,2.558,0,0,1,.54-3.042,2.855,2.855,0,0,1,1.63-.591v-.519h.64v.519a2.678,2.678,0,0,1,1.5.555,2.467,2.467,0,0,1,.856,1.623l-1.122.169a1.86,1.86,0,0,0-.4-.981,1.486,1.486,0,0,0-.836-.45v3.132a8.641,8.641,0,0,1,1.086.32,2.681,2.681,0,0,1,.827.543,2.2,2.2,0,0,1,.492.76,2.647,2.647,0,0,1-2.405,3.645v1.1Zm0-9.511a1.608,1.608,0,0,0-1,.507,1.508,1.508,0,0,0-.055,1.9,2.146,2.146,0,0,0,1.054.6Zm.64,7.507a1.612,1.612,0,0,0,1.047-.549,1.7,1.7,0,0,0,.413-1.165,1.458,1.458,0,0,0-.292-.951,2.535,2.535,0,0,0-1.168-.643Z" transform="translate(-20.392 -16.181)"/><path class="cls-7" d="M400.566,210.676v-2.118h-3.838v-1l4.037-5.733h.888v5.733h1.194v1h-1.194v2.118Zm0-3.114v-3.989l-2.77,3.989Z" transform="translate(-20.392 -16.181)"/><path class="cls-7" d="M404.544,210.676v-1.237h1.237v1.237a2.195,2.195,0,0,1-.242,1.1,1.57,1.57,0,0,1-.766.648l-.3-.464a1.037,1.037,0,0,0,.507-.444,1.889,1.889,0,0,0,.181-.842Z" transform="translate(-20.392 -16.181)"/><path class="cls-7" d="M407.392,208.359l1.141-.1a2.05,2.05,0,0,0,.589,1.252,1.6,1.6,0,0,0,1.113.419,1.734,1.734,0,0,0,1.328-.592,2.227,2.227,0,0,0,.543-1.569,2.013,2.013,0,0,0-.522-1.467,1.82,1.82,0,0,0-1.366-.537,1.9,1.9,0,0,0-.948.238,1.848,1.848,0,0,0-.664.619l-1.02-.133.857-4.544h4.4v1.038h-3.53l-.478,2.378a2.881,2.881,0,0,1,1.672-.555,2.65,2.65,0,0,1,1.956.8,2.808,2.808,0,0,1,.8,2.064,3.222,3.222,0,0,1-.7,2.076,2.8,2.8,0,0,1-2.323,1.074,2.862,2.862,0,0,1-1.971-.676A2.639,2.639,0,0,1,407.392,208.359Z" transform="translate(-20.392 -16.181)"/><path class="cls-7" d="M414.338,202.987v-1.044h5.728v.845a12.091,12.091,0,0,0-1.675,2.39,14.574,14.574,0,0,0-1.282,3.066,11.373,11.373,0,0,0-.416,2.432h-1.117a10.876,10.876,0,0,1,.411-2.523,13.245,13.245,0,0,1,1.125-2.852,12.236,12.236,0,0,1,1.561-2.314Z" transform="translate(-20.392 -16.181)"/><path class="cls-7" d="M425.231,210.676h-1.086v-6.922a5.613,5.613,0,0,1-1.029.749,7.242,7.242,0,0,1-1.144.561v-1.05a6.561,6.561,0,0,0,1.594-1.038,4.082,4.082,0,0,0,.965-1.183h.7Z" transform="translate(-20.392 -16.181)"/><path class="cls-7" d="M428.6,210.676v-1.237h1.237v1.237a2.195,2.195,0,0,1-.242,1.1,1.57,1.57,0,0,1-.766.648l-.3-.464a1.037,1.037,0,0,0,.507-.444,1.889,1.889,0,0,0,.181-.842Z" transform="translate(-20.392 -16.181)"/><path class="cls-7" d="M431.447,206.313a8.078,8.078,0,0,1,.323-2.526,3.138,3.138,0,0,1,.96-1.476,2.449,2.449,0,0,1,1.6-.519,2.621,2.621,0,0,1,1.25.287,2.4,2.4,0,0,1,.887.827,4.414,4.414,0,0,1,.549,1.316,8.739,8.739,0,0,1,.2,2.091,8.131,8.131,0,0,1-.319,2.514,3.146,3.146,0,0,1-.957,1.479,2.693,2.693,0,0,1-3.618-.4A5.832,5.832,0,0,1,431.447,206.313Zm1.117,0a5.551,5.551,0,0,0,.51,2.9,1.457,1.457,0,0,0,2.517,0,8.5,8.5,0,0,0,0-5.8,1.514,1.514,0,0,0-1.271-.718,1.392,1.392,0,0,0-1.2.633A5.616,5.616,0,0,0,432.564,206.313Z" transform="translate(-20.392 -16.181)"/><path class="cls-7" d="M438.321,206.313a8.078,8.078,0,0,1,.323-2.526,3.138,3.138,0,0,1,.96-1.476,2.449,2.449,0,0,1,1.6-.519,2.621,2.621,0,0,1,1.25.287,2.4,2.4,0,0,1,.887.827,4.414,4.414,0,0,1,.549,1.316,8.739,8.739,0,0,1,.2,2.091,8.131,8.131,0,0,1-.319,2.514,3.146,3.146,0,0,1-.957,1.479,2.693,2.693,0,0,1-3.618-.4A5.832,5.832,0,0,1,438.321,206.313Zm1.117,0a5.551,5.551,0,0,0,.51,2.9,1.457,1.457,0,0,0,2.517,0,8.5,8.5,0,0,0,0-5.8,1.514,1.514,0,0,0-1.271-.718,1.392,1.392,0,0,0-1.2.633A5.616,5.616,0,0,0,439.438,206.313Z" transform="translate(-20.392 -16.181)"/><path class="cls-7" d="M445.2,206.313a8.078,8.078,0,0,1,.323-2.526,3.138,3.138,0,0,1,.96-1.476,2.449,2.449,0,0,1,1.6-.519,2.621,2.621,0,0,1,1.25.287,2.4,2.4,0,0,1,.887.827,4.414,4.414,0,0,1,.549,1.316,8.739,8.739,0,0,1,.2,2.091,8.131,8.131,0,0,1-.319,2.514,3.146,3.146,0,0,1-.957,1.479,2.693,2.693,0,0,1-3.618-.4A5.832,5.832,0,0,1,445.2,206.313Zm1.117,0a5.551,5.551,0,0,0,.51,2.9,1.457,1.457,0,0,0,2.517,0,8.5,8.5,0,0,0,0-5.8,1.514,1.514,0,0,0-1.271-.718,1.392,1.392,0,0,0-1.2.633A5.616,5.616,0,0,0,446.313,206.313Z" transform="translate(-20.392 -16.181)"/><polygon class="cls-2" points="187.094 17.585 198.074 23.924 187.094 30.263 187.094 17.585"/><polygon class="cls-2" points="328.297 17.585 339.277 23.924 328.297 30.263 328.297 17.585"/><polygon class="cls-2" points="240.141 152.146 228.44 157.025 230.065 144.451 240.141 152.146"/><polygon class="cls-2" points="350.6 152.661 362.302 157.54 360.676 144.967 350.6 152.661"/><polygon class="cls-2" points="129.377 72.99 141.079 77.869 139.453 65.295 129.377 72.99"/><path d="M365.7,43.853V35.005h1.171v8.848Z" transform="translate(-20.392 -16.181)"/><path d="M368.953,43.853V35.005h3.923a5.234,5.234,0,0,1,1.8.238,1.968,1.968,0,0,1,.983.842,2.514,2.514,0,0,1,.368,1.333,2.226,2.226,0,0,1-.609,1.587,3.084,3.084,0,0,1-1.883.821,3.041,3.041,0,0,1,.706.44,6.091,6.091,0,0,1,.972,1.177l1.539,2.408h-1.473l-1.171-1.841q-.514-.8-.845-1.219a2.68,2.68,0,0,0-.595-.591,1.772,1.772,0,0,0-.534-.235,3.56,3.56,0,0,0-.652-.042h-1.357v3.929Zm1.171-4.943h2.517a3.766,3.766,0,0,0,1.255-.166,1.338,1.338,0,0,0,.688-.531,1.436,1.436,0,0,0,.235-.794,1.318,1.318,0,0,0-.456-1.032,2.131,2.131,0,0,0-1.439-.4h-2.8Z" transform="translate(-20.392 -16.181)"/><path d="M377.463,41.01l1.1-.1A2.441,2.441,0,0,0,378.932,42a2,2,0,0,0,.891.688,3.372,3.372,0,0,0,1.357.262,3.254,3.254,0,0,0,1.184-.2,1.638,1.638,0,0,0,.764-.546,1.273,1.273,0,0,0,.25-.757,1.151,1.151,0,0,0-.241-.728,1.794,1.794,0,0,0-.8-.522,15.694,15.694,0,0,0-1.575-.432,8.021,8.021,0,0,1-1.708-.552,2.388,2.388,0,0,1-.944-.824,2.019,2.019,0,0,1-.311-1.1,2.245,2.245,0,0,1,.38-1.252,2.359,2.359,0,0,1,1.11-.884,4.217,4.217,0,0,1,1.624-.3,4.43,4.43,0,0,1,1.734.317,2.5,2.5,0,0,1,1.156.933,2.681,2.681,0,0,1,.435,1.394l-1.123.084a1.814,1.814,0,0,0-.612-1.268,2.384,2.384,0,0,0-1.542-.428,2.471,2.471,0,0,0-1.548.389,1.167,1.167,0,0,0-.486.938,1.006,1.006,0,0,0,.345.785,4.65,4.65,0,0,0,1.765.63,11.715,11.715,0,0,1,1.959.564,2.687,2.687,0,0,1,1.141.9,2.2,2.2,0,0,1,.368,1.258,2.407,2.407,0,0,1-.4,1.331,2.66,2.66,0,0,1-1.162.972,4.046,4.046,0,0,1-1.705.347,5.089,5.089,0,0,1-2.013-.35,2.819,2.819,0,0,1-1.273-1.053A2.982,2.982,0,0,1,377.463,41.01Z" transform="translate(-20.392 -16.181)"/><rect class="cls-8" x="0.329" y="79.241" width="111.315" height="45.789"/><path class="cls-7" d="M30.912,113.212l1.1-.1a2.436,2.436,0,0,0,.365,1.089,1.994,1.994,0,0,0,.89.688,3.375,3.375,0,0,0,1.358.262,3.25,3.25,0,0,0,1.183-.2,1.636,1.636,0,0,0,.764-.546,1.267,1.267,0,0,0,.25-.757,1.154,1.154,0,0,0-.241-.728,1.794,1.794,0,0,0-.8-.522,15.694,15.694,0,0,0-1.575-.432,8.021,8.021,0,0,1-1.708-.552,2.391,2.391,0,0,1-.944-.824,2.015,2.015,0,0,1-.311-1.1,2.249,2.249,0,0,1,.38-1.252,2.354,2.354,0,0,1,1.11-.884,4.212,4.212,0,0,1,1.624-.3,4.433,4.433,0,0,1,1.735.317,2.507,2.507,0,0,1,1.156.933,2.681,2.681,0,0,1,.434,1.394l-1.123.084a1.81,1.81,0,0,0-.612-1.268,2.385,2.385,0,0,0-1.542-.428,2.472,2.472,0,0,0-1.548.389,1.166,1.166,0,0,0-.486.938,1,1,0,0,0,.344.785,4.661,4.661,0,0,0,1.765.63,11.705,11.705,0,0,1,1.958.564,2.678,2.678,0,0,1,1.141.9,2.2,2.2,0,0,1,.368,1.258,2.407,2.407,0,0,1-.4,1.331,2.659,2.659,0,0,1-1.162.972,4.046,4.046,0,0,1-1.705.347,5.089,5.089,0,0,1-2.013-.35A2.819,2.819,0,0,1,31.4,114.8,2.987,2.987,0,0,1,30.912,113.212Z" transform="translate(-20.392 -16.181)"/><path class="cls-7" d="M39.754,116.055v-8.848h1.171v8.848Z" transform="translate(-20.392 -16.181)"/><path class="cls-7" d="M42.283,116.055v-1.086l4.532-5.667q.483-.6.917-1.05H42.8v-1.044h6.337v1.044l-4.967,6.138-.537.622h5.649v1.044Z" transform="translate(-20.392 -16.181)"/><path class="cls-7" d="M50.563,116.055v-8.848h6.4v1.044H51.733v2.71h4.895V112H51.733v3.012h5.432v1.044Z" transform="translate(-20.392 -16.181)"/><path class="cls-7" d="M61.861,111.746a4.808,4.808,0,0,1,1.183-3.449,4.023,4.023,0,0,1,3.054-1.246,4.238,4.238,0,0,1,2.209.585,3.826,3.826,0,0,1,1.5,1.632,5.306,5.306,0,0,1,.516,2.375,5.21,5.21,0,0,1-.543,2.408,3.7,3.7,0,0,1-1.539,1.608,4.394,4.394,0,0,1-2.148.546,4.183,4.183,0,0,1-2.233-.6,3.885,3.885,0,0,1-1.491-1.647A5,5,0,0,1,61.861,111.746Zm1.207.018a3.544,3.544,0,0,0,.86,2.52,3,3,0,0,0,4.333-.009,3.759,3.759,0,0,0,.854-2.638,4.537,4.537,0,0,0-.365-1.886,2.809,2.809,0,0,0-1.068-1.25,2.9,2.9,0,0,0-1.578-.443,2.994,2.994,0,0,0-2.14.854A3.814,3.814,0,0,0,63.068,111.764Z" transform="translate(-20.392 -16.181)"/><path class="cls-7" d="M71.891,116.055v-8.848H77.86v1.044h-4.8v2.74h4.152v1.044H73.062v4.02Z" transform="translate(-20.392 -16.181)"/><path class="cls-7" d="M84.843,116.055v-7.8H81.928v-1.044h7.013v1.044H86.014v7.8Z" transform="translate(-20.392 -16.181)"/><path class="cls-7" d="M90.16,116.055v-8.848h3.923a5.225,5.225,0,0,1,1.8.238,1.969,1.969,0,0,1,.984.842,2.509,2.509,0,0,1,.368,1.333,2.226,2.226,0,0,1-.609,1.587,3.086,3.086,0,0,1-1.883.821,3.02,3.02,0,0,1,.706.44,6.073,6.073,0,0,1,.972,1.177l1.539,2.408H96.484l-1.171-1.841q-.513-.8-.845-1.219a2.669,2.669,0,0,0-.594-.591,1.772,1.772,0,0,0-.534-.235,3.554,3.554,0,0,0-.652-.042H91.331v3.929Zm1.171-4.943h2.517a3.769,3.769,0,0,0,1.255-.166,1.334,1.334,0,0,0,.688-.531,1.44,1.44,0,0,0,.235-.794,1.318,1.318,0,0,0-.456-1.032,2.132,2.132,0,0,0-1.439-.4h-2.8Z" transform="translate(-20.392 -16.181)"/><path class="cls-7" d="M104.874,107.208h1.171v5.112a6.054,6.054,0,0,1-.3,2.119,2.586,2.586,0,0,1-1.089,1.276,3.859,3.859,0,0,1-2.067.492,4.25,4.25,0,0,1-2.034-.429,2.446,2.446,0,0,1-1.128-1.24,5.913,5.913,0,0,1-.338-2.218v-5.112h1.171v5.106a4.97,4.97,0,0,0,.214,1.7,1.623,1.623,0,0,0,.736.842,2.552,2.552,0,0,0,1.276.3,2.439,2.439,0,0,0,1.84-.585,3.372,3.372,0,0,0,.549-2.251Z" transform="translate(-20.392 -16.181)"/><path class="cls-7" d="M107.6,113.212l1.1-.1a2.436,2.436,0,0,0,.365,1.089,1.994,1.994,0,0,0,.89.688,3.375,3.375,0,0,0,1.358.262,3.25,3.25,0,0,0,1.183-.2,1.636,1.636,0,0,0,.764-.546,1.267,1.267,0,0,0,.25-.757,1.154,1.154,0,0,0-.241-.728,1.794,1.794,0,0,0-.8-.522,15.694,15.694,0,0,0-1.575-.432,8.021,8.021,0,0,1-1.708-.552,2.391,2.391,0,0,1-.944-.824,2.015,2.015,0,0,1-.311-1.1,2.249,2.249,0,0,1,.38-1.252,2.354,2.354,0,0,1,1.11-.884,4.212,4.212,0,0,1,1.624-.3,4.433,4.433,0,0,1,1.735.317,2.507,2.507,0,0,1,1.156.933,2.681,2.681,0,0,1,.434,1.394l-1.123.084a1.81,1.81,0,0,0-.612-1.268,2.385,2.385,0,0,0-1.542-.428,2.472,2.472,0,0,0-1.548.389,1.166,1.166,0,0,0-.486.938,1,1,0,0,0,.344.785,4.661,4.661,0,0,0,1.765.63,11.705,11.705,0,0,1,1.958.564,2.678,2.678,0,0,1,1.141.9,2.2,2.2,0,0,1,.368,1.258,2.407,2.407,0,0,1-.4,1.331,2.659,2.659,0,0,1-1.162.972,4.046,4.046,0,0,1-1.705.347,5.089,5.089,0,0,1-2.013-.35,2.819,2.819,0,0,1-1.273-1.053A2.987,2.987,0,0,1,107.6,113.212Z" transform="translate(-20.392 -16.181)"/><path class="cls-7" d="M118.489,116.055v-7.8h-2.915v-1.044h7.013v1.044H119.66v7.8Z" transform="translate(-20.392 -16.181)"/><path class="cls-7" d="M48.632,132.161v-1.086a4,4,0,0,1-1.325-.365,2.306,2.306,0,0,1-.881-.848,3.036,3.036,0,0,1-.432-1.431l1.092-.205a2.753,2.753,0,0,0,.447,1.286,1.583,1.583,0,0,0,1.1.646V126.7a4.532,4.532,0,0,1-1.37-.519,2,2,0,0,1-.8-.8,2.556,2.556,0,0,1,.54-3.042,2.856,2.856,0,0,1,1.63-.591v-.519h.64v.519a2.678,2.678,0,0,1,1.5.555,2.466,2.466,0,0,1,.857,1.623l-1.123.169a1.86,1.86,0,0,0-.4-.981,1.486,1.486,0,0,0-.836-.45v3.132a8.684,8.684,0,0,1,1.086.32,2.684,2.684,0,0,1,.827.543,2.182,2.182,0,0,1,.492.76,2.794,2.794,0,0,1-.546,2.836,2.635,2.635,0,0,1-1.859.809v1.1Zm0-9.511a1.608,1.608,0,0,0-1,.507,1.507,1.507,0,0,0-.054,1.9,2.14,2.14,0,0,0,1.053.6Zm.64,7.507a1.611,1.611,0,0,0,1.047-.549,1.7,1.7,0,0,0,.414-1.165,1.459,1.459,0,0,0-.293-.951,2.53,2.53,0,0,0-1.167-.643Z" transform="translate(-20.392 -16.181)"/><path class="cls-7" d="M58.65,129.843v1.044H52.8a1.921,1.921,0,0,1,.127-.754,3.986,3.986,0,0,1,.715-1.177,11.17,11.17,0,0,1,1.421-1.34,12.046,12.046,0,0,0,1.95-1.874,2.243,2.243,0,0,0,.507-1.307,1.451,1.451,0,0,0-.462-1.089,1.664,1.664,0,0,0-1.2-.443,1.7,1.7,0,0,0-1.255.471,1.779,1.779,0,0,0-.477,1.3l-1.116-.115a2.747,2.747,0,0,1,.863-1.9A2.944,2.944,0,0,1,55.88,122a2.8,2.8,0,0,1,2.016.706,2.317,2.317,0,0,1,.742,1.75,2.658,2.658,0,0,1-.217,1.044,4.066,4.066,0,0,1-.721,1.08,17.612,17.612,0,0,1-1.675,1.557q-.978.821-1.255,1.114a3.579,3.579,0,0,0-.459.588Z" transform="translate(-20.392 -16.181)"/><path class="cls-7" d="M60.4,130.887V129.65h1.237v1.237a2.2,2.2,0,0,1-.241,1.1,1.575,1.575,0,0,1-.767.648l-.3-.464a1.029,1.029,0,0,0,.507-.444,1.882,1.882,0,0,0,.181-.842Z" transform="translate(-20.392 -16.181)"/><path class="cls-7" d="M63.249,126.524A8.094,8.094,0,0,1,63.572,124a3.144,3.144,0,0,1,.959-1.476,2.452,2.452,0,0,1,1.6-.519,2.615,2.615,0,0,1,1.249.287,2.39,2.39,0,0,1,.887.827,4.439,4.439,0,0,1,.549,1.316,8.739,8.739,0,0,1,.2,2.091,8.13,8.13,0,0,1-.32,2.514,3.145,3.145,0,0,1-.957,1.479,2.454,2.454,0,0,1-1.608.522,2.427,2.427,0,0,1-2.01-.917A5.829,5.829,0,0,1,63.249,126.524Zm1.116,0a5.545,5.545,0,0,0,.51,2.9,1.457,1.457,0,0,0,2.517,0,8.5,8.5,0,0,0,0-5.8,1.515,1.515,0,0,0-1.271-.718,1.391,1.391,0,0,0-1.195.633A5.61,5.61,0,0,0,64.365,126.524Z" transform="translate(-20.392 -16.181)"/><path class="cls-7" d="M70.123,126.524A8.094,8.094,0,0,1,70.446,124a3.144,3.144,0,0,1,.959-1.476,2.452,2.452,0,0,1,1.6-.519,2.615,2.615,0,0,1,1.249.287,2.39,2.39,0,0,1,.887.827,4.439,4.439,0,0,1,.549,1.316,8.739,8.739,0,0,1,.2,2.091,8.13,8.13,0,0,1-.32,2.514,3.145,3.145,0,0,1-.957,1.479,2.454,2.454,0,0,1-1.608.522,2.427,2.427,0,0,1-2.01-.917A5.829,5.829,0,0,1,70.123,126.524Zm1.116,0a5.545,5.545,0,0,0,.51,2.9,1.457,1.457,0,0,0,2.517,0,8.5,8.5,0,0,0,0-5.8A1.515,1.515,0,0,0,73,122.9a1.391,1.391,0,0,0-1.195.633A5.61,5.61,0,0,0,71.239,126.524Z" transform="translate(-20.392 -16.181)"/><path class="cls-7" d="M77,126.524A8.094,8.094,0,0,1,77.32,124a3.144,3.144,0,0,1,.959-1.476,2.452,2.452,0,0,1,1.6-.519,2.615,2.615,0,0,1,1.249.287,2.39,2.39,0,0,1,.887.827,4.439,4.439,0,0,1,.549,1.316,8.739,8.739,0,0,1,.2,2.091,8.13,8.13,0,0,1-.32,2.514,3.145,3.145,0,0,1-.957,1.479,2.454,2.454,0,0,1-1.608.522,2.427,2.427,0,0,1-2.01-.917A5.829,5.829,0,0,1,77,126.524Zm1.116,0a5.545,5.545,0,0,0,.51,2.9,1.457,1.457,0,0,0,2.517,0,8.5,8.5,0,0,0,0-5.8,1.515,1.515,0,0,0-1.271-.718,1.391,1.391,0,0,0-1.195.633A5.61,5.61,0,0,0,78.113,126.524Z" transform="translate(-20.392 -16.181)"/><path class="cls-7" d="M84.457,130.887V129.65h1.237v1.237a2.2,2.2,0,0,1-.241,1.1,1.575,1.575,0,0,1-.767.648l-.3-.464a1.029,1.029,0,0,0,.507-.444,1.882,1.882,0,0,0,.181-.842Z" transform="translate(-20.392 -16.181)"/><path class="cls-7" d="M87.305,126.524A8.094,8.094,0,0,1,87.628,124a3.144,3.144,0,0,1,.959-1.476,2.452,2.452,0,0,1,1.6-.519,2.615,2.615,0,0,1,1.249.287,2.39,2.39,0,0,1,.887.827,4.439,4.439,0,0,1,.549,1.316,8.739,8.739,0,0,1,.2,2.091,8.13,8.13,0,0,1-.32,2.514,3.145,3.145,0,0,1-.957,1.479,2.454,2.454,0,0,1-1.608.522,2.427,2.427,0,0,1-2.01-.917A5.829,5.829,0,0,1,87.305,126.524Zm1.116,0a5.545,5.545,0,0,0,.51,2.9,1.457,1.457,0,0,0,2.517,0,8.5,8.5,0,0,0,0-5.8,1.515,1.515,0,0,0-1.271-.718,1.391,1.391,0,0,0-1.195.633A5.61,5.61,0,0,0,88.421,126.524Z" transform="translate(-20.392 -16.181)"/><path class="cls-7" d="M94.179,126.524A8.094,8.094,0,0,1,94.5,124a3.144,3.144,0,0,1,.959-1.476,2.452,2.452,0,0,1,1.6-.519,2.615,2.615,0,0,1,1.249.287,2.39,2.39,0,0,1,.887.827,4.439,4.439,0,0,1,.549,1.316,8.739,8.739,0,0,1,.2,2.091,8.13,8.13,0,0,1-.32,2.514,3.145,3.145,0,0,1-.957,1.479,2.454,2.454,0,0,1-1.608.522,2.427,2.427,0,0,1-2.01-.917A5.829,5.829,0,0,1,94.179,126.524Zm1.116,0a5.545,5.545,0,0,0,.51,2.9,1.457,1.457,0,0,0,2.517,0,8.5,8.5,0,0,0,0-5.8,1.515,1.515,0,0,0-1.271-.718,1.391,1.391,0,0,0-1.195.633A5.61,5.61,0,0,0,95.3,126.524Z" transform="translate(-20.392 -16.181)"/><path class="cls-7" d="M101.053,126.524a8.094,8.094,0,0,1,.323-2.526,3.144,3.144,0,0,1,.959-1.476,2.452,2.452,0,0,1,1.6-.519,2.615,2.615,0,0,1,1.249.287,2.39,2.39,0,0,1,.887.827,4.439,4.439,0,0,1,.549,1.316,8.739,8.739,0,0,1,.2,2.091,8.13,8.13,0,0,1-.32,2.514,3.145,3.145,0,0,1-.957,1.479,2.454,2.454,0,0,1-1.608.522,2.427,2.427,0,0,1-2.01-.917A5.829,5.829,0,0,1,101.053,126.524Zm1.116,0a5.545,5.545,0,0,0,.51,2.9,1.457,1.457,0,0,0,2.517,0,8.5,8.5,0,0,0,0-5.8,1.515,1.515,0,0,0-1.271-.718,1.391,1.391,0,0,0-1.195.633A5.61,5.61,0,0,0,102.169,126.524Z" transform="translate(-20.392 -16.181)"/></svg>