<svg id="Layer_1" data-name="Layer 1" xmlns="http://www.w3.org/2000/svg" viewBox="0 0 445.004 250.321"><defs><style>.cls-1{fill:none;}.cls-1,.cls-7{stroke:#231f20;stroke-miterlimit:10;}.cls-2{fill:#3d58a7;}.cls-3{fill:#919191;}.cls-4{fill:#238541;}.cls-5{fill:#ae292a;}.cls-6{fill:#fff;}</style></defs><title>Is_it_Worth_the_Trouble_01</title><line class="cls-1" x1="112.524" y1="55.961" x2="149.213" y2="92.65"/><line class="cls-1" x1="129.337" y1="27.981" x2="228.658" y2="27.981"/><line class="cls-1" x1="338.853" y1="27.981" x2="401.231" y2="27.981"/><line class="cls-1" x1="142.611" y1="152.806" x2="110.562" y2="184.855"/><line class="cls-1" x1="231.542" y1="152.806" x2="265.697" y2="186.961"/><rect class="cls-2" width="136.045" height="55.961"/><rect class="cls-3" x="247.736" width="136.045" height="55.961"/><rect class="cls-4" y="96.845" width="387.061" height="55.961"/><rect class="cls-5" y="194.36" width="136.045" height="55.961"/><rect class="cls-5" x="247.736" y="194.36" width="136.045" height="55.961"/><path class="cls-6" d="M29.951,38.538l1.35-.118a2.984,2.984,0,0,0,.446,1.332,2.435,2.435,0,0,0,1.088.841,4.121,4.121,0,0,0,1.66.321,3.981,3.981,0,0,0,1.446-.243A2.008,2.008,0,0,0,36.874,40a1.551,1.551,0,0,0,.306-.926,1.406,1.406,0,0,0-.3-.889,2.185,2.185,0,0,0-.974-.638,18.913,18.913,0,0,0-1.925-.527,9.812,9.812,0,0,1-2.087-.675,2.922,2.922,0,0,1-1.154-1.007,2.467,2.467,0,0,1-.38-1.346,2.75,2.75,0,0,1,.464-1.531,2.882,2.882,0,0,1,1.357-1.081,5.152,5.152,0,0,1,1.984-.369,5.417,5.417,0,0,1,2.121.387,3.06,3.06,0,0,1,1.413,1.14,3.274,3.274,0,0,1,.531,1.7l-1.372.1a2.213,2.213,0,0,0-.749-1.549,2.915,2.915,0,0,0-1.885-.524,3.021,3.021,0,0,0-1.892.476,1.426,1.426,0,0,0-.594,1.146,1.228,1.228,0,0,0,.421.959,5.688,5.688,0,0,0,2.157.771,14.319,14.319,0,0,1,2.394.689,3.282,3.282,0,0,1,1.394,1.1,2.686,2.686,0,0,1,.45,1.538,2.94,2.94,0,0,1-.494,1.626,3.255,3.255,0,0,1-1.42,1.188,4.947,4.947,0,0,1-2.083.424,6.231,6.231,0,0,1-2.46-.428,3.445,3.445,0,0,1-1.556-1.287A3.648,3.648,0,0,1,29.951,38.538Z" transform="translate(-20.852 -18.204)"/><path class="cls-6" d="M40.757,42.012V31.2h1.431V42.012Z" transform="translate(-20.852 -18.204)"/><path class="cls-6" d="M43.847,42.012V40.685l5.54-6.926q.59-.737,1.121-1.283H44.474V31.2h7.745v1.276l-6.071,7.5-.656.76h6.9v1.276Z" transform="translate(-20.852 -18.204)"/><path class="cls-6" d="M53.967,42.012V31.2h7.818v1.276H55.4v3.312H61.38v1.269H55.4v3.681h6.638v1.276Z" transform="translate(-20.852 -18.204)"/><path class="cls-6" d="M67.774,36.746A5.877,5.877,0,0,1,69.22,32.53a4.917,4.917,0,0,1,3.732-1.523,5.183,5.183,0,0,1,2.7.715,4.674,4.674,0,0,1,1.833,2,6.483,6.483,0,0,1,.631,2.9,6.369,6.369,0,0,1-.664,2.943,4.533,4.533,0,0,1-1.881,1.966,5.374,5.374,0,0,1-2.625.667,5.112,5.112,0,0,1-2.729-.738,4.744,4.744,0,0,1-1.822-2.014A6.1,6.1,0,0,1,67.774,36.746Zm1.476.022A4.331,4.331,0,0,0,70.3,39.847a3.667,3.667,0,0,0,5.3-.011,4.593,4.593,0,0,0,1.044-3.224,5.54,5.54,0,0,0-.446-2.3,3.43,3.43,0,0,0-1.306-1.527,3.54,3.54,0,0,0-1.929-.542,3.658,3.658,0,0,0-2.615,1.043A4.661,4.661,0,0,0,69.25,36.768Z" transform="translate(-20.852 -18.204)"/><path class="cls-6" d="M80.034,42.012V31.2h7.295v1.276H81.464v3.349h5.075V37.1H81.464v4.913Z" transform="translate(-20.852 -18.204)"/><path class="cls-6" d="M93.413,42.012V31.2h7.818v1.276H94.844v3.312h5.982v1.269H94.844v3.681h6.638v1.276Z" transform="translate(-20.852 -18.204)"/><path class="cls-6" d="M102.973,38.538l1.35-.118a2.984,2.984,0,0,0,.446,1.332,2.435,2.435,0,0,0,1.088.841,4.121,4.121,0,0,0,1.66.321,3.981,3.981,0,0,0,1.446-.243A2.008,2.008,0,0,0,109.9,40a1.551,1.551,0,0,0,.306-.926,1.406,1.406,0,0,0-.3-.889,2.185,2.185,0,0,0-.974-.638,18.913,18.913,0,0,0-1.925-.527,9.812,9.812,0,0,1-2.087-.675,2.922,2.922,0,0,1-1.154-1.007,2.467,2.467,0,0,1-.38-1.346,2.75,2.75,0,0,1,.464-1.531,2.882,2.882,0,0,1,1.357-1.081,5.152,5.152,0,0,1,1.984-.369,5.417,5.417,0,0,1,2.121.387,3.06,3.06,0,0,1,1.413,1.14,3.274,3.274,0,0,1,.531,1.7l-1.372.1a2.213,2.213,0,0,0-.749-1.549,2.915,2.915,0,0,0-1.885-.524,3.021,3.021,0,0,0-1.892.476,1.426,1.426,0,0,0-.594,1.146,1.228,1.228,0,0,0,.421.959,5.688,5.688,0,0,0,2.157.771,14.319,14.319,0,0,1,2.394.689,3.282,3.282,0,0,1,1.394,1.1,2.686,2.686,0,0,1,.45,1.538,2.94,2.94,0,0,1-.494,1.626,3.255,3.255,0,0,1-1.42,1.188,4.947,4.947,0,0,1-2.083.424,6.231,6.231,0,0,1-2.46-.428,3.445,3.445,0,0,1-1.556-1.287A3.648,3.648,0,0,1,102.973,38.538Z" transform="translate(-20.852 -18.204)"/><path class="cls-6" d="M116.286,42.012V32.475h-3.562V31.2h8.571v1.276h-3.577v9.537Z" transform="translate(-20.852 -18.204)"/><path class="cls-6" d="M120.454,42.012,124.606,31.2h1.542l4.426,10.813h-1.63l-1.262-3.275h-4.521l-1.187,3.275Zm3.12-4.44h3.666l-1.128-2.995q-.516-1.365-.767-2.242a13.824,13.824,0,0,1-.583,2.065Z" transform="translate(-20.852 -18.204)"/><path class="cls-6" d="M133.347,42.012V32.475h-3.562V31.2h8.571v1.276h-3.577v9.537Z" transform="translate(-20.852 -18.204)"/><path class="cls-6" d="M139.852,42.012V31.2h7.818v1.276h-6.387v3.312h5.982v1.269h-5.982v3.681h6.638v1.276Z" transform="translate(-20.852 -18.204)"/><path class="cls-6" d="M50.762,61.7V60.368a4.9,4.9,0,0,1-1.619-.446,2.819,2.819,0,0,1-1.077-1.036,3.7,3.7,0,0,1-.527-1.748l1.335-.251a3.363,3.363,0,0,0,.546,1.571,1.935,1.935,0,0,0,1.342.789V55.021a5.532,5.532,0,0,1-1.674-.634,2.454,2.454,0,0,1-.978-.981,3.125,3.125,0,0,1,.66-3.717,3.488,3.488,0,0,1,1.992-.723v-.635h.782v.635a3.281,3.281,0,0,1,1.837.678,3.018,3.018,0,0,1,1.047,1.984l-1.372.207a2.269,2.269,0,0,0-.491-1.2,1.807,1.807,0,0,0-1.021-.549v3.828a10.526,10.526,0,0,1,1.328.391,3.284,3.284,0,0,1,1.011.664,2.677,2.677,0,0,1,.6.929,3.419,3.419,0,0,1-.667,3.467,3.221,3.221,0,0,1-2.272.988V61.7Zm0-11.625a1.972,1.972,0,0,0-1.221.62,1.844,1.844,0,0,0-.066,2.324,2.616,2.616,0,0,0,1.287.73Zm.782,9.176a1.969,1.969,0,0,0,1.28-.671,2.081,2.081,0,0,0,.505-1.424,1.78,1.78,0,0,0-.358-1.162,3.091,3.091,0,0,0-1.427-.786Z" transform="translate(-20.852 -18.204)"/><path class="cls-6" d="M61.03,60.14H59.7V51.68a6.885,6.885,0,0,1-1.258.915,8.955,8.955,0,0,1-1.4.686V52a8.035,8.035,0,0,0,1.947-1.269,5,5,0,0,0,1.18-1.446h.855Z" transform="translate(-20.852 -18.204)"/><path class="cls-6" d="M64.43,54.807a9.889,9.889,0,0,1,.395-3.086A3.84,3.84,0,0,1,66,49.917a3,3,0,0,1,1.958-.634,3.193,3.193,0,0,1,1.527.351,2.918,2.918,0,0,1,1.084,1.01,5.435,5.435,0,0,1,.671,1.608,10.693,10.693,0,0,1,.243,2.556,9.934,9.934,0,0,1-.391,3.072,3.84,3.84,0,0,1-1.169,1.807A3.291,3.291,0,0,1,65.5,59.2,7.127,7.127,0,0,1,64.43,54.807Zm1.365,0a6.781,6.781,0,0,0,.623,3.544,1.78,1.78,0,0,0,3.076,0,6.78,6.78,0,0,0,.624-3.541,6.779,6.779,0,0,0-.624-3.548,1.85,1.85,0,0,0-1.553-.877,1.7,1.7,0,0,0-1.46.774A6.861,6.861,0,0,0,65.795,54.807Z" transform="translate(-20.852 -18.204)"/><path class="cls-6" d="M73.547,60.14V58.627h1.512V60.14a2.689,2.689,0,0,1-.295,1.346,1.925,1.925,0,0,1-.937.793l-.369-.568a1.261,1.261,0,0,0,.62-.542A2.308,2.308,0,0,0,74.3,60.14Z" transform="translate(-20.852 -18.204)"/><path class="cls-6" d="M84.006,58.864V60.14H76.859a2.336,2.336,0,0,1,.155-.922,4.871,4.871,0,0,1,.874-1.438,13.655,13.655,0,0,1,1.737-1.637,14.7,14.7,0,0,0,2.382-2.291,2.742,2.742,0,0,0,.62-1.6,1.775,1.775,0,0,0-.564-1.332,2.036,2.036,0,0,0-1.472-.542,2.075,2.075,0,0,0-1.534.575,2.178,2.178,0,0,0-.583,1.593l-1.365-.14a3.358,3.358,0,0,1,1.055-2.327,3.6,3.6,0,0,1,2.457-.8,3.428,3.428,0,0,1,2.463.863,2.834,2.834,0,0,1,.907,2.139,3.242,3.242,0,0,1-.266,1.276,4.937,4.937,0,0,1-.881,1.32,21.46,21.46,0,0,1-2.047,1.9q-1.195,1-1.534,1.361a4.35,4.35,0,0,0-.561.719Z" transform="translate(-20.852 -18.204)"/><path class="cls-6" d="M85.518,50.743V49.467h7V50.5a14.719,14.719,0,0,0-2.047,2.921A17.771,17.771,0,0,0,88.9,57.167,13.924,13.924,0,0,0,88.4,60.14H87.03a13.232,13.232,0,0,1,.5-3.083,16.218,16.218,0,0,1,1.375-3.485,14.942,14.942,0,0,1,1.907-2.829Z" transform="translate(-20.852 -18.204)"/><path class="cls-6" d="M93.831,54.807a9.889,9.889,0,0,1,.395-3.086,3.84,3.84,0,0,1,1.173-1.8,3,3,0,0,1,1.958-.634,3.193,3.193,0,0,1,1.527.351,2.918,2.918,0,0,1,1.084,1.01,5.435,5.435,0,0,1,.671,1.608,10.694,10.694,0,0,1,.243,2.556,9.934,9.934,0,0,1-.391,3.072,3.84,3.84,0,0,1-1.169,1.807A3.291,3.291,0,0,1,94.9,59.2,7.127,7.127,0,0,1,93.831,54.807Zm1.365,0a6.781,6.781,0,0,0,.623,3.544,1.78,1.78,0,0,0,3.076,0,6.78,6.78,0,0,0,.624-3.541,6.779,6.779,0,0,0-.624-3.548,1.85,1.85,0,0,0-1.553-.877,1.7,1.7,0,0,0-1.46.774A6.861,6.861,0,0,0,95.2,54.807Z" transform="translate(-20.852 -18.204)"/><path class="cls-6" d="M102.948,60.14V58.627h1.512V60.14a2.689,2.689,0,0,1-.295,1.346,1.925,1.925,0,0,1-.937.793l-.369-.568a1.261,1.261,0,0,0,.62-.542,2.308,2.308,0,0,0,.221-1.029Z" transform="translate(-20.852 -18.204)"/><path class="cls-6" d="M106.429,54.807a9.889,9.889,0,0,1,.395-3.086,3.84,3.84,0,0,1,1.173-1.8,3,3,0,0,1,1.958-.634,3.193,3.193,0,0,1,1.527.351,2.918,2.918,0,0,1,1.084,1.01,5.435,5.435,0,0,1,.671,1.608,10.693,10.693,0,0,1,.243,2.556,9.934,9.934,0,0,1-.391,3.072,3.84,3.84,0,0,1-1.169,1.807A3.291,3.291,0,0,1,107.5,59.2,7.127,7.127,0,0,1,106.429,54.807Zm1.365,0a6.781,6.781,0,0,0,.623,3.544,1.78,1.78,0,0,0,3.076,0,6.78,6.78,0,0,0,.624-3.541,6.779,6.779,0,0,0-.624-3.548,1.85,1.85,0,0,0-1.553-.877,1.7,1.7,0,0,0-1.46.774A6.861,6.861,0,0,0,107.794,54.807Z" transform="translate(-20.852 -18.204)"/><path class="cls-6" d="M114.831,54.807a9.889,9.889,0,0,1,.395-3.086,3.84,3.84,0,0,1,1.173-1.8,3,3,0,0,1,1.958-.634,3.193,3.193,0,0,1,1.527.351,2.918,2.918,0,0,1,1.084,1.01,5.435,5.435,0,0,1,.671,1.608,10.693,10.693,0,0,1,.243,2.556,9.934,9.934,0,0,1-.391,3.072,3.84,3.84,0,0,1-1.169,1.807A3.291,3.291,0,0,1,115.9,59.2,7.127,7.127,0,0,1,114.831,54.807Zm1.365,0a6.781,6.781,0,0,0,.623,3.544,1.78,1.78,0,0,0,3.076,0,6.78,6.78,0,0,0,.624-3.541,6.779,6.779,0,0,0-.624-3.548,1.85,1.85,0,0,0-1.553-.877,1.7,1.7,0,0,0-1.46.774A6.861,6.861,0,0,0,116.2,54.807Z" transform="translate(-20.852 -18.204)"/><path class="cls-6" d="M123.232,54.807a9.889,9.889,0,0,1,.395-3.086,3.84,3.84,0,0,1,1.173-1.8,3,3,0,0,1,1.958-.634,3.193,3.193,0,0,1,1.527.351,2.918,2.918,0,0,1,1.084,1.01,5.435,5.435,0,0,1,.671,1.608,10.694,10.694,0,0,1,.243,2.556,9.934,9.934,0,0,1-.391,3.072,3.84,3.84,0,0,1-1.169,1.807A3.291,3.291,0,0,1,124.3,59.2,7.127,7.127,0,0,1,123.232,54.807Zm1.365,0a6.781,6.781,0,0,0,.623,3.544,1.78,1.78,0,0,0,3.076,0,6.78,6.78,0,0,0,.624-3.541,6.779,6.779,0,0,0-.624-3.548,1.85,1.85,0,0,0-1.553-.877,1.7,1.7,0,0,0-1.46.774A6.861,6.861,0,0,0,124.6,54.807Z" transform="translate(-20.852 -18.204)"/><path class="cls-6" d="M316,42.012V32.475h-3.562V31.2H321v1.276h-3.577v9.537Z" transform="translate(-20.852 -18.204)"/><path class="cls-6" d="M320.163,42.012,324.316,31.2h1.541l4.426,10.813h-1.63l-1.262-3.275H322.87l-1.187,3.275Zm3.12-4.44h3.666l-1.129-2.995q-.516-1.365-.767-2.242a13.768,13.768,0,0,1-.583,2.065Z" transform="translate(-20.852 -18.204)"/><path class="cls-6" d="M330.327,42.012l4.183-5.635L330.821,31.2h1.7l1.962,2.773a15.62,15.62,0,0,1,.87,1.328,14.217,14.217,0,0,1,.855-1.232l2.176-2.869h1.557l-3.8,5.1,4.094,5.716H338.47l-2.722-3.857q-.229-.333-.472-.723-.362.59-.517.812l-2.714,3.769Z" transform="translate(-20.852 -18.204)"/><path class="cls-6" d="M341.531,42.012V31.2h7.818v1.276h-6.388v3.312h5.981v1.269h-5.981v3.681H349.6v1.276Z" transform="translate(-20.852 -18.204)"/><path class="cls-6" d="M351.09,38.538l1.35-.118a2.978,2.978,0,0,0,.446,1.332,2.437,2.437,0,0,0,1.088.841,4.122,4.122,0,0,0,1.659.321,3.983,3.983,0,0,0,1.446-.243,2.007,2.007,0,0,0,.933-.667,1.549,1.549,0,0,0,.307-.926,1.408,1.408,0,0,0-.295-.889,2.191,2.191,0,0,0-.974-.638,19.038,19.038,0,0,0-1.926-.527,9.825,9.825,0,0,1-2.087-.675,2.922,2.922,0,0,1-1.154-1.007,2.463,2.463,0,0,1-.38-1.346,2.743,2.743,0,0,1,.465-1.531,2.879,2.879,0,0,1,1.356-1.081,5.158,5.158,0,0,1,1.984-.369,5.42,5.42,0,0,1,2.121.387,3.057,3.057,0,0,1,1.412,1.14,3.274,3.274,0,0,1,.531,1.7l-1.372.1a2.213,2.213,0,0,0-.749-1.549,2.913,2.913,0,0,0-1.884-.524,3.025,3.025,0,0,0-1.893.476,1.427,1.427,0,0,0-.594,1.146,1.23,1.23,0,0,0,.421.959,5.692,5.692,0,0,0,2.157.771,14.319,14.319,0,0,1,2.394.689,3.28,3.28,0,0,1,1.394,1.1,2.679,2.679,0,0,1,.45,1.538,2.944,2.944,0,0,1-.494,1.626,3.252,3.252,0,0,1-1.42,1.188,4.947,4.947,0,0,1-2.084.424,6.226,6.226,0,0,1-2.459-.428,3.441,3.441,0,0,1-1.557-1.287A3.652,3.652,0,0,1,351.09,38.538Z" transform="translate(-20.852 -18.204)"/><path class="cls-6" d="M302.243,61.7V60.368a4.9,4.9,0,0,1-1.619-.446,2.819,2.819,0,0,1-1.077-1.036,3.7,3.7,0,0,1-.527-1.748l1.335-.251a3.363,3.363,0,0,0,.546,1.571,1.935,1.935,0,0,0,1.342.789V55.021a5.532,5.532,0,0,1-1.674-.634,2.454,2.454,0,0,1-.978-.981,3.125,3.125,0,0,1,.66-3.717,3.488,3.488,0,0,1,1.992-.723v-.635h.782v.635a3.281,3.281,0,0,1,1.837.678,3.018,3.018,0,0,1,1.047,1.984l-1.372.207a2.269,2.269,0,0,0-.491-1.2,1.807,1.807,0,0,0-1.021-.549v3.828a10.526,10.526,0,0,1,1.328.391,3.284,3.284,0,0,1,1.011.664,2.677,2.677,0,0,1,.6.929,3.419,3.419,0,0,1-.667,3.467,3.221,3.221,0,0,1-2.272.988V61.7Zm0-11.625a1.972,1.972,0,0,0-1.221.62,1.844,1.844,0,0,0-.066,2.324,2.616,2.616,0,0,0,1.287.73Zm.782,9.176a1.969,1.969,0,0,0,1.28-.671,2.081,2.081,0,0,0,.505-1.424,1.78,1.78,0,0,0-.358-1.162,3.091,3.091,0,0,0-1.427-.786Z" transform="translate(-20.852 -18.204)"/><path class="cls-6" d="M312.511,60.14h-1.328V51.68a6.874,6.874,0,0,1-1.257.915,9,9,0,0,1-1.4.686V52a8.007,8.007,0,0,0,1.947-1.269,5,5,0,0,0,1.181-1.446h.855Z" transform="translate(-20.852 -18.204)"/><path class="cls-6" d="M316.627,60.14V58.627h1.512V60.14a2.689,2.689,0,0,1-.295,1.346,1.926,1.926,0,0,1-.937.793l-.369-.568a1.26,1.26,0,0,0,.619-.542,2.307,2.307,0,0,0,.222-1.029Z" transform="translate(-20.852 -18.204)"/><path class="cls-6" d="M320.308,57.639l1.276-.118a2.213,2.213,0,0,0,.619,1.306,1.7,1.7,0,0,0,1.173.406,2.024,2.024,0,0,0,1.073-.28,2.288,2.288,0,0,0,.756-.749,4.415,4.415,0,0,0,.494-1.265,6.663,6.663,0,0,0,.2-1.623c0-.059,0-.147-.007-.266a3.04,3.04,0,0,1-1.089,1.029,2.951,2.951,0,0,1-1.493.395,3.017,3.017,0,0,1-2.271-.974,3.56,3.56,0,0,1-.93-2.566,3.65,3.65,0,0,1,.97-2.648,3.242,3.242,0,0,1,2.431-1,3.469,3.469,0,0,1,1.929.568,3.551,3.551,0,0,1,1.328,1.619,7.987,7.987,0,0,1,.453,3.042,9.851,9.851,0,0,1-.45,3.3,3.862,3.862,0,0,1-1.339,1.87,3.461,3.461,0,0,1-2.083.642,2.856,2.856,0,0,1-3.039-2.685Zm5.436-4.772a2.6,2.6,0,0,0-.608-1.814,1.906,1.906,0,0,0-1.464-.671,2.02,2.02,0,0,0-1.541.723,2.676,2.676,0,0,0-.657,1.874,2.313,2.313,0,0,0,.624,1.678,2.052,2.052,0,0,0,1.537.646,1.967,1.967,0,0,0,1.516-.646A2.539,2.539,0,0,0,325.743,52.867Z" transform="translate(-20.852 -18.204)"/><path class="cls-6" d="M335.487,58.864V60.14H328.34a2.345,2.345,0,0,1,.155-.922,4.86,4.86,0,0,1,.874-1.438,13.6,13.6,0,0,1,1.737-1.637,14.739,14.739,0,0,0,2.382-2.291,2.743,2.743,0,0,0,.62-1.6,1.775,1.775,0,0,0-.564-1.332,2.036,2.036,0,0,0-1.472-.542,2.074,2.074,0,0,0-1.534.575,2.176,2.176,0,0,0-.583,1.593l-1.364-.14a3.362,3.362,0,0,1,1.055-2.327,3.6,3.6,0,0,1,2.456-.8,3.427,3.427,0,0,1,2.464.863,2.835,2.835,0,0,1,.907,2.139,3.251,3.251,0,0,1-.266,1.276,4.946,4.946,0,0,1-.881,1.32,21.645,21.645,0,0,1-2.047,1.9q-1.2,1-1.534,1.361a4.324,4.324,0,0,0-.561.719Z" transform="translate(-20.852 -18.204)"/><path class="cls-6" d="M338.954,54.276a2.5,2.5,0,0,1-1.225-.863,2.255,2.255,0,0,1-.4-1.342,2.624,2.624,0,0,1,.848-1.984,3.57,3.57,0,0,1,4.536.018,2.664,2.664,0,0,1,.863,2,2.208,2.208,0,0,1-.395,1.309,2.494,2.494,0,0,1-1.2.859,2.908,2.908,0,0,1,1.517,1.047,2.876,2.876,0,0,1,.52,1.726,3.108,3.108,0,0,1-.98,2.331,4,4,0,0,1-5.164,0,3.155,3.155,0,0,1-.98-2.364,2.858,2.858,0,0,1,.534-1.767A2.679,2.679,0,0,1,338.954,54.276Zm-.693,2.744a2.4,2.4,0,0,0,.27,1.1,1.9,1.9,0,0,0,.8.822,2.341,2.341,0,0,0,1.144.292,2.142,2.142,0,0,0,1.571-.612,2.094,2.094,0,0,0,.619-1.556,2.132,2.132,0,0,0-.638-1.586,2.188,2.188,0,0,0-1.6-.627,2.112,2.112,0,0,0-2.169,2.168Zm.428-4.994a1.686,1.686,0,0,0,.494,1.254,1.754,1.754,0,0,0,1.284.486,1.715,1.715,0,0,0,1.257-.483,1.6,1.6,0,0,0,.491-1.184,1.658,1.658,0,0,0-.506-1.229,1.857,1.857,0,0,0-2.519-.011A1.564,1.564,0,0,0,338.688,52.026Z" transform="translate(-20.852 -18.204)"/><path class="cls-6" d="M346.028,60.14V58.627h1.512V60.14a2.689,2.689,0,0,1-.295,1.346,1.926,1.926,0,0,1-.937.793l-.369-.568a1.26,1.26,0,0,0,.619-.542,2.307,2.307,0,0,0,.222-1.029Z" transform="translate(-20.852 -18.204)"/><path class="cls-6" d="M349.51,54.807a9.9,9.9,0,0,1,.395-3.086,3.84,3.84,0,0,1,1.173-1.8,3,3,0,0,1,1.958-.634,3.194,3.194,0,0,1,1.527.351,2.918,2.918,0,0,1,1.084,1.01,5.422,5.422,0,0,1,.671,1.608,10.636,10.636,0,0,1,.244,2.556,9.916,9.916,0,0,1-.392,3.072A3.843,3.843,0,0,1,355,59.686a3.291,3.291,0,0,1-4.422-.483A7.127,7.127,0,0,1,349.51,54.807Zm1.364,0a6.773,6.773,0,0,0,.624,3.544,1.78,1.78,0,0,0,3.075,0,6.777,6.777,0,0,0,.623-3.541,6.775,6.775,0,0,0-.623-3.548,1.849,1.849,0,0,0-1.553-.877,1.7,1.7,0,0,0-1.46.774A6.85,6.85,0,0,0,350.874,54.807Z" transform="translate(-20.852 -18.204)"/><path class="cls-6" d="M357.911,54.807a9.9,9.9,0,0,1,.395-3.086,3.84,3.84,0,0,1,1.173-1.8,3,3,0,0,1,1.958-.634,3.194,3.194,0,0,1,1.527.351,2.918,2.918,0,0,1,1.084,1.01,5.422,5.422,0,0,1,.671,1.608,10.636,10.636,0,0,1,.244,2.556,9.916,9.916,0,0,1-.392,3.072,3.843,3.843,0,0,1-1.169,1.807,3.291,3.291,0,0,1-4.422-.483A7.127,7.127,0,0,1,357.911,54.807Zm1.364,0a6.773,6.773,0,0,0,.624,3.544,1.78,1.78,0,0,0,3.075,0,6.777,6.777,0,0,0,.623-3.541,6.775,6.775,0,0,0-.623-3.548,1.849,1.849,0,0,0-1.553-.877,1.7,1.7,0,0,0-1.46.774A6.85,6.85,0,0,0,359.275,54.807Z" transform="translate(-20.852 -18.204)"/><path class="cls-6" d="M366.313,54.807a9.9,9.9,0,0,1,.395-3.086,3.84,3.84,0,0,1,1.173-1.8,3,3,0,0,1,1.958-.634,3.194,3.194,0,0,1,1.527.351,2.918,2.918,0,0,1,1.084,1.01,5.422,5.422,0,0,1,.671,1.608,10.636,10.636,0,0,1,.244,2.556,9.916,9.916,0,0,1-.392,3.072,3.843,3.843,0,0,1-1.169,1.807,3.291,3.291,0,0,1-4.422-.483A7.127,7.127,0,0,1,366.313,54.807Zm1.364,0a6.773,6.773,0,0,0,.624,3.544,1.78,1.78,0,0,0,3.075,0A6.777,6.777,0,0,0,372,54.807a6.775,6.775,0,0,0-.623-3.548,1.849,1.849,0,0,0-1.553-.877,1.7,1.7,0,0,0-1.46.774A6.85,6.85,0,0,0,367.677,54.807Z" transform="translate(-20.852 -18.204)"/><path class="cls-6" d="M101.258,138.857l4.152-10.813h1.542l4.426,10.813h-1.63l-1.262-3.275h-4.521l-1.187,3.275Zm3.12-4.44h3.666l-1.128-2.995q-.516-1.365-.767-2.242a13.824,13.824,0,0,1-.583,2.065Z" transform="translate(-20.852 -18.204)"/><path class="cls-6" d="M114.491,138.857,110.3,128.044h1.549l2.811,7.855q.339.944.568,1.77.25-.885.583-1.77l2.921-7.855h1.46l-4.234,10.813Z" transform="translate(-20.852 -18.204)"/><path class="cls-6" d="M119.167,138.857l4.152-10.813h1.542l4.426,10.813h-1.63l-1.262-3.275h-4.521l-1.187,3.275Zm3.12-4.44h3.666l-1.128-2.995q-.516-1.365-.767-2.242a13.824,13.824,0,0,1-.583,2.065Z" transform="translate(-20.852 -18.204)"/><path class="cls-6" d="M130.674,138.857V128.044H132.1v10.813Z" transform="translate(-20.852 -18.204)"/><path class="cls-6" d="M134.568,138.857V128.044H136v9.537h5.326v1.276Z" transform="translate(-20.852 -18.204)"/><path class="cls-6" d="M141.841,138.857l4.152-10.813h1.542l4.426,10.813h-1.63l-1.262-3.275h-4.521l-1.187,3.275Zm3.12-4.44h3.666l-1.128-2.995q-.516-1.365-.767-2.242a13.824,13.824,0,0,1-.583,2.065Z" transform="translate(-20.852 -18.204)"/><path class="cls-6" d="M153.045,138.857V128.044H157.1a5.022,5.022,0,0,1,1.988.328,2.557,2.557,0,0,1,1.173,1.01,2.665,2.665,0,0,1,.424,1.427,2.451,2.451,0,0,1-.376,1.306,2.682,2.682,0,0,1-1.136.988,2.827,2.827,0,0,1,1.508.981,2.629,2.629,0,0,1,.527,1.638,3.159,3.159,0,0,1-.321,1.413,2.736,2.736,0,0,1-.793,1.007,3.315,3.315,0,0,1-1.184.535,7.2,7.2,0,0,1-1.745.181Zm1.431-6.27h2.338a5.2,5.2,0,0,0,1.365-.125,1.515,1.515,0,0,0,.822-.539,1.549,1.549,0,0,0,.276-.944,1.741,1.741,0,0,0-.258-.948,1.306,1.306,0,0,0-.738-.561,6.147,6.147,0,0,0-1.645-.151h-2.161Zm0,4.994h2.692a6.162,6.162,0,0,0,.974-.052,2.333,2.333,0,0,0,.826-.295,1.57,1.57,0,0,0,.546-.6,1.883,1.883,0,0,0,.214-.911,1.8,1.8,0,0,0-.31-1.051,1.635,1.635,0,0,0-.859-.627,5.344,5.344,0,0,0-1.583-.181h-2.5Z" transform="translate(-20.852 -18.204)"/><path class="cls-6" d="M163.121,138.857V128.044h1.431v9.537h5.326v1.276Z" transform="translate(-20.852 -18.204)"/><path class="cls-6" d="M171.611,138.857V128.044h7.818v1.276h-6.387v3.312h5.982V133.9h-5.982v3.681h6.638v1.276Z" transform="translate(-20.852 -18.204)"/><path class="cls-6" d="M185.928,138.857V128.044h7.295v1.276h-5.864v3.349h5.075v1.276h-5.075v4.913Z" transform="translate(-20.852 -18.204)"/><path class="cls-6" d="M194.646,133.591a5.877,5.877,0,0,1,1.446-4.215,4.917,4.917,0,0,1,3.732-1.523,5.183,5.183,0,0,1,2.7.715,4.674,4.674,0,0,1,1.833,2,6.483,6.483,0,0,1,.631,2.9,6.369,6.369,0,0,1-.664,2.943,4.533,4.533,0,0,1-1.881,1.966,5.374,5.374,0,0,1-2.625.667,5.112,5.112,0,0,1-2.729-.738,4.744,4.744,0,0,1-1.822-2.014A6.1,6.1,0,0,1,194.646,133.591Zm1.476.022a4.331,4.331,0,0,0,1.051,3.079,3.667,3.667,0,0,0,5.3-.011,4.593,4.593,0,0,0,1.044-3.224,5.54,5.54,0,0,0-.446-2.3,3.43,3.43,0,0,0-1.306-1.527,3.54,3.54,0,0,0-1.929-.542,3.658,3.658,0,0,0-2.615,1.043A4.661,4.661,0,0,0,196.121,133.613Z" transform="translate(-20.852 -18.204)"/><path class="cls-6" d="M206.853,138.857V128.044h4.794a6.389,6.389,0,0,1,2.2.291,2.406,2.406,0,0,1,1.2,1.029,3.071,3.071,0,0,1,.45,1.63,2.718,2.718,0,0,1-.745,1.94,3.768,3.768,0,0,1-2.3,1,3.725,3.725,0,0,1,.863.539,7.444,7.444,0,0,1,1.188,1.438l1.881,2.943h-1.8l-1.431-2.25q-.628-.974-1.033-1.49a3.257,3.257,0,0,0-.727-.723,2.151,2.151,0,0,0-.653-.288,4.274,4.274,0,0,0-.8-.052h-1.659v4.8Zm1.431-6.041h3.076a4.615,4.615,0,0,0,1.534-.2,1.634,1.634,0,0,0,.841-.649,1.756,1.756,0,0,0,.288-.97,1.612,1.612,0,0,0-.557-1.261,2.606,2.606,0,0,0-1.759-.494h-3.422Z" transform="translate(-20.852 -18.204)"/><path class="cls-6" d="M221.937,138.857V128.044h3.725a9.021,9.021,0,0,1,1.925.155,3.666,3.666,0,0,1,1.586.774,4.4,4.4,0,0,1,1.28,1.848,7.266,7.266,0,0,1,.424,2.571,7.549,7.549,0,0,1-.288,2.183,5.292,5.292,0,0,1-.738,1.575,3.912,3.912,0,0,1-.984.981,4.005,4.005,0,0,1-1.291.542,7.359,7.359,0,0,1-1.737.185Zm1.431-1.276h2.309a5.6,5.6,0,0,0,1.678-.2,2.4,2.4,0,0,0,.97-.561,3.407,3.407,0,0,0,.793-1.368,6.686,6.686,0,0,0,.284-2.084,5.029,5.029,0,0,0-.557-2.607,2.8,2.8,0,0,0-1.354-1.221,5.594,5.594,0,0,0-1.851-.221h-2.272Z" transform="translate(-20.852 -18.204)"/><path class="cls-6" d="M233.089,138.857V128.044h1.431v10.813Z" transform="translate(-20.852 -18.204)"/><path class="cls-6" d="M236.556,135.383l1.35-.118a2.984,2.984,0,0,0,.446,1.332,2.435,2.435,0,0,0,1.088.841,4.121,4.121,0,0,0,1.66.321,3.981,3.981,0,0,0,1.446-.243,2.008,2.008,0,0,0,.933-.667,1.551,1.551,0,0,0,.306-.926,1.406,1.406,0,0,0-.3-.889,2.185,2.185,0,0,0-.974-.638,18.913,18.913,0,0,0-1.925-.527,9.812,9.812,0,0,1-2.087-.675,2.922,2.922,0,0,1-1.154-1.007,2.467,2.467,0,0,1-.38-1.346,2.75,2.75,0,0,1,.464-1.531,2.882,2.882,0,0,1,1.357-1.081,5.152,5.152,0,0,1,1.984-.369,5.417,5.417,0,0,1,2.121.387,3.06,3.06,0,0,1,1.413,1.14,3.274,3.274,0,0,1,.531,1.7l-1.372.1a2.213,2.213,0,0,0-.749-1.549,2.915,2.915,0,0,0-1.885-.524,3.021,3.021,0,0,0-1.892.476,1.426,1.426,0,0,0-.594,1.146,1.228,1.228,0,0,0,.421.959,5.688,5.688,0,0,0,2.157.771,14.319,14.319,0,0,1,2.394.689,3.282,3.282,0,0,1,1.394,1.1,2.686,2.686,0,0,1,.45,1.538,2.94,2.94,0,0,1-.494,1.626,3.255,3.255,0,0,1-1.42,1.188,4.947,4.947,0,0,1-2.083.424,6.231,6.231,0,0,1-2.46-.428,3.445,3.445,0,0,1-1.556-1.287A3.648,3.648,0,0,1,236.556,135.383Z" transform="translate(-20.852 -18.204)"/><path class="cls-6" d="M249.87,138.857V129.32h-3.562v-1.276h8.571v1.276H251.3v9.537Z" transform="translate(-20.852 -18.204)"/><path class="cls-6" d="M256.368,138.857V128.044h4.794a6.389,6.389,0,0,1,2.2.291,2.406,2.406,0,0,1,1.2,1.029,3.071,3.071,0,0,1,.45,1.63,2.718,2.718,0,0,1-.745,1.94,3.768,3.768,0,0,1-2.3,1,3.725,3.725,0,0,1,.863.539,7.444,7.444,0,0,1,1.188,1.438l1.881,2.943h-1.8l-1.431-2.25q-.628-.974-1.033-1.49a3.257,3.257,0,0,0-.727-.723,2.151,2.151,0,0,0-.653-.288,4.274,4.274,0,0,0-.8-.052H257.8v4.8Zm1.431-6.041h3.076a4.615,4.615,0,0,0,1.534-.2,1.634,1.634,0,0,0,.841-.649,1.756,1.756,0,0,0,.288-.97,1.612,1.612,0,0,0-.557-1.261,2.606,2.606,0,0,0-1.759-.494H257.8Z" transform="translate(-20.852 -18.204)"/><path class="cls-6" d="M267.5,138.857V128.044h1.431v10.813Z" transform="translate(-20.852 -18.204)"/><path class="cls-6" d="M271.393,138.857V128.044h4.057a5.022,5.022,0,0,1,1.988.328,2.557,2.557,0,0,1,1.173,1.01,2.665,2.665,0,0,1,.424,1.427,2.451,2.451,0,0,1-.376,1.306,2.682,2.682,0,0,1-1.136.988,2.827,2.827,0,0,1,1.508.981,2.629,2.629,0,0,1,.527,1.638,3.159,3.159,0,0,1-.321,1.413,2.736,2.736,0,0,1-.793,1.007,3.315,3.315,0,0,1-1.184.535,7.2,7.2,0,0,1-1.745.181Zm1.431-6.27h2.338a5.2,5.2,0,0,0,1.365-.125,1.515,1.515,0,0,0,.822-.539,1.549,1.549,0,0,0,.276-.944,1.741,1.741,0,0,0-.258-.948,1.306,1.306,0,0,0-.738-.561,6.147,6.147,0,0,0-1.645-.151h-2.161Zm0,4.994h2.692a6.162,6.162,0,0,0,.974-.052,2.333,2.333,0,0,0,.826-.295,1.57,1.57,0,0,0,.546-.6,1.883,1.883,0,0,0,.214-.911,1.8,1.8,0,0,0-.31-1.051,1.635,1.635,0,0,0-.859-.627,5.344,5.344,0,0,0-1.583-.181h-2.5Z" transform="translate(-20.852 -18.204)"/><path class="cls-6" d="M288.623,128.044h1.431v6.247a7.4,7.4,0,0,1-.369,2.589,3.162,3.162,0,0,1-1.332,1.56,4.718,4.718,0,0,1-2.526.6,5.191,5.191,0,0,1-2.485-.524A2.989,2.989,0,0,1,281.962,137a7.222,7.222,0,0,1-.413-2.711v-6.247h1.431v6.24a6.08,6.08,0,0,0,.262,2.077,1.987,1.987,0,0,0,.9,1.029,3.124,3.124,0,0,0,1.56.361,2.981,2.981,0,0,0,2.25-.715,4.123,4.123,0,0,0,.671-2.751Z" transform="translate(-20.852 -18.204)"/><path class="cls-6" d="M295.188,138.857V129.32h-3.562v-1.276H300.2v1.276h-3.577v9.537Z" transform="translate(-20.852 -18.204)"/><path class="cls-6" d="M301.907,138.857V128.044h1.431v10.813Z" transform="translate(-20.852 -18.204)"/><path class="cls-6" d="M305.425,133.591a5.877,5.877,0,0,1,1.446-4.215,4.915,4.915,0,0,1,3.733-1.523,5.179,5.179,0,0,1,2.7.715,4.673,4.673,0,0,1,1.832,2,6.463,6.463,0,0,1,.631,2.9,6.363,6.363,0,0,1-.664,2.943,4.522,4.522,0,0,1-1.881,1.966,5.37,5.37,0,0,1-2.625.667,5.11,5.11,0,0,1-2.729-.738,4.739,4.739,0,0,1-1.823-2.014A6.1,6.1,0,0,1,305.425,133.591Zm1.476.022a4.329,4.329,0,0,0,1.051,3.079,3.668,3.668,0,0,0,5.3-.011,4.6,4.6,0,0,0,1.043-3.224,5.517,5.517,0,0,0-.447-2.3,3.425,3.425,0,0,0-1.3-1.527,3.537,3.537,0,0,0-1.93-.542A3.658,3.658,0,0,0,308,130.128,4.661,4.661,0,0,0,306.9,133.613Z" transform="translate(-20.852 -18.204)"/><path class="cls-6" d="M317.595,138.857V128.044h1.468l5.68,8.49v-8.49h1.372v10.813h-1.468l-5.68-8.5v8.5Z" transform="translate(-20.852 -18.204)"/><path class="cls-6" d="M180.276,158.541v-1.328a4.9,4.9,0,0,1-1.619-.446,2.819,2.819,0,0,1-1.077-1.036,3.7,3.7,0,0,1-.527-1.748l1.335-.251a3.363,3.363,0,0,0,.546,1.571,1.935,1.935,0,0,0,1.342.789v-4.227a5.532,5.532,0,0,1-1.674-.634,2.454,2.454,0,0,1-.978-.981,3.125,3.125,0,0,1,.66-3.717,3.488,3.488,0,0,1,1.992-.723v-.635h.782v.635a3.281,3.281,0,0,1,1.837.678,3.018,3.018,0,0,1,1.047,1.984l-1.372.207a2.269,2.269,0,0,0-.491-1.2,1.807,1.807,0,0,0-1.021-.549v3.828a10.526,10.526,0,0,1,1.328.391,3.284,3.284,0,0,1,1.011.664,2.677,2.677,0,0,1,.6.929,3.419,3.419,0,0,1-.667,3.467,3.221,3.221,0,0,1-2.272.988v1.342Zm0-11.625a1.972,1.972,0,0,0-1.221.62,1.844,1.844,0,0,0-.066,2.324,2.616,2.616,0,0,0,1.287.73Zm.782,9.176a1.969,1.969,0,0,0,1.28-.671,2.081,2.081,0,0,0,.505-1.424,1.78,1.78,0,0,0-.358-1.162,3.091,3.091,0,0,0-1.427-.786Z" transform="translate(-20.852 -18.204)"/><path class="cls-6" d="M187.586,151.121a2.5,2.5,0,0,1-1.224-.863,2.255,2.255,0,0,1-.4-1.342,2.625,2.625,0,0,1,.848-1.984,3.57,3.57,0,0,1,4.536.018,2.662,2.662,0,0,1,.863,2,2.208,2.208,0,0,1-.395,1.309,2.493,2.493,0,0,1-1.2.859,2.907,2.907,0,0,1,1.516,1.047,2.877,2.877,0,0,1,.52,1.726,3.107,3.107,0,0,1-.981,2.331,4,4,0,0,1-5.163,0,3.152,3.152,0,0,1-.981-2.364,2.858,2.858,0,0,1,.535-1.767A2.676,2.676,0,0,1,187.586,151.121Zm-.693,2.744a2.4,2.4,0,0,0,.27,1.1,1.9,1.9,0,0,0,.8.822,2.338,2.338,0,0,0,1.143.292,2.143,2.143,0,0,0,1.571-.612,2.1,2.1,0,0,0,.62-1.556,2.13,2.13,0,0,0-.638-1.586,2.186,2.186,0,0,0-1.6-.627,2.112,2.112,0,0,0-2.169,2.168Zm.428-4.994a1.684,1.684,0,0,0,.494,1.254,1.75,1.75,0,0,0,1.283.486,1.717,1.717,0,0,0,1.258-.483,1.6,1.6,0,0,0,.49-1.184,1.657,1.657,0,0,0-.505-1.229,1.857,1.857,0,0,0-2.519-.011A1.566,1.566,0,0,0,187.321,148.871Z" transform="translate(-20.852 -18.204)"/><path class="cls-6" d="M194.66,156.985v-1.512h1.512v1.512a2.689,2.689,0,0,1-.295,1.346,1.925,1.925,0,0,1-.937.793l-.369-.568a1.261,1.261,0,0,0,.62-.542,2.308,2.308,0,0,0,.221-1.029Z" transform="translate(-20.852 -18.204)"/><path class="cls-6" d="M198.148,154.13l1.328-.177a2.924,2.924,0,0,0,.778,1.626,1.921,1.921,0,0,0,1.339.5,2.147,2.147,0,0,0,1.582-.649,2.191,2.191,0,0,0,.646-1.608,2.038,2.038,0,0,0-.6-1.509,2.067,2.067,0,0,0-1.52-.594,3.82,3.82,0,0,0-.937.147l.147-1.165a2.039,2.039,0,0,0,.214.015,2.736,2.736,0,0,0,1.527-.442,1.516,1.516,0,0,0,.679-1.365,1.613,1.613,0,0,0-.495-1.209,1.755,1.755,0,0,0-1.276-.479,1.806,1.806,0,0,0-1.291.487,2.441,2.441,0,0,0-.664,1.46l-1.328-.236a3.413,3.413,0,0,1,1.106-2.069,3.2,3.2,0,0,1,2.146-.734,3.533,3.533,0,0,1,1.63.38,2.75,2.75,0,0,1,1.14,1.036,2.663,2.663,0,0,1,.395,1.394,2.286,2.286,0,0,1-.376,1.276,2.571,2.571,0,0,1-1.114.915,2.508,2.508,0,0,1,1.49.918,2.794,2.794,0,0,1,.531,1.744,3.191,3.191,0,0,1-1.033,2.4,3.632,3.632,0,0,1-2.611.985,3.4,3.4,0,0,1-2.364-.848A3.28,3.28,0,0,1,198.148,154.13Z" transform="translate(-20.852 -18.204)"/><path class="cls-6" d="M210.8,156.985V154.4h-4.691v-1.217l4.935-7.007h1.084v7.007h1.46V154.4h-1.46v2.589Zm0-3.806V148.3l-3.385,4.875Z" transform="translate(-20.852 -18.204)"/><path class="cls-6" d="M221.921,155.709v1.276h-7.147a2.336,2.336,0,0,1,.155-.922,4.871,4.871,0,0,1,.874-1.438,13.655,13.655,0,0,1,1.737-1.637,14.7,14.7,0,0,0,2.382-2.291,2.742,2.742,0,0,0,.62-1.6,1.775,1.775,0,0,0-.564-1.332,2.036,2.036,0,0,0-1.472-.542,2.075,2.075,0,0,0-1.534.575,2.178,2.178,0,0,0-.583,1.593l-1.365-.14a3.358,3.358,0,0,1,1.055-2.327,3.6,3.6,0,0,1,2.457-.8,3.428,3.428,0,0,1,2.463.863,2.834,2.834,0,0,1,.907,2.139,3.242,3.242,0,0,1-.266,1.276,4.937,4.937,0,0,1-.881,1.32,21.46,21.46,0,0,1-2.047,1.9q-1.195,1-1.534,1.361a4.35,4.35,0,0,0-.561.719Z" transform="translate(-20.852 -18.204)"/><path class="cls-6" d="M224.061,156.985v-1.512h1.512v1.512a2.689,2.689,0,0,1-.295,1.346,1.925,1.925,0,0,1-.937.793l-.369-.568a1.261,1.261,0,0,0,.62-.542,2.308,2.308,0,0,0,.221-1.029Z" transform="translate(-20.852 -18.204)"/><path class="cls-6" d="M227.542,151.652a9.889,9.889,0,0,1,.395-3.086,3.84,3.84,0,0,1,1.173-1.8,3,3,0,0,1,1.958-.634,3.193,3.193,0,0,1,1.527.351,2.918,2.918,0,0,1,1.084,1.01,5.435,5.435,0,0,1,.671,1.608,10.694,10.694,0,0,1,.243,2.556,9.934,9.934,0,0,1-.391,3.072,3.84,3.84,0,0,1-1.169,1.807,3.291,3.291,0,0,1-4.422-.483A7.127,7.127,0,0,1,227.542,151.652Zm1.365,0a6.781,6.781,0,0,0,.623,3.544,1.78,1.78,0,0,0,3.076,0,10.384,10.384,0,0,0,0-7.088,1.85,1.85,0,0,0-1.553-.877,1.7,1.7,0,0,0-1.46.774A6.861,6.861,0,0,0,228.907,151.652Z" transform="translate(-20.852 -18.204)"/><path class="cls-6" d="M235.943,151.652a9.889,9.889,0,0,1,.395-3.086,3.84,3.84,0,0,1,1.173-1.8,3,3,0,0,1,1.958-.634,3.193,3.193,0,0,1,1.527.351,2.918,2.918,0,0,1,1.084,1.01,5.435,5.435,0,0,1,.671,1.608,10.693,10.693,0,0,1,.243,2.556,9.934,9.934,0,0,1-.391,3.072,3.84,3.84,0,0,1-1.169,1.807,3.291,3.291,0,0,1-4.422-.483A7.127,7.127,0,0,1,235.943,151.652Zm1.365,0a6.781,6.781,0,0,0,.623,3.544,1.78,1.78,0,0,0,3.076,0,10.384,10.384,0,0,0,0-7.088,1.85,1.85,0,0,0-1.553-.877,1.7,1.7,0,0,0-1.46.774A6.861,6.861,0,0,0,237.308,151.652Z" transform="translate(-20.852 -18.204)"/><path class="cls-6" d="M244.345,151.652a9.889,9.889,0,0,1,.395-3.086,3.84,3.84,0,0,1,1.173-1.8,3,3,0,0,1,1.958-.634,3.193,3.193,0,0,1,1.527.351,2.918,2.918,0,0,1,1.084,1.01,5.435,5.435,0,0,1,.671,1.608,10.693,10.693,0,0,1,.243,2.556,9.934,9.934,0,0,1-.391,3.072,3.84,3.84,0,0,1-1.169,1.807,3.291,3.291,0,0,1-4.422-.483A7.127,7.127,0,0,1,244.345,151.652Zm1.365,0a6.781,6.781,0,0,0,.623,3.544,1.78,1.78,0,0,0,3.076,0,10.384,10.384,0,0,0,0-7.088,1.85,1.85,0,0,0-1.553-.877,1.7,1.7,0,0,0-1.46.774A6.861,6.861,0,0,0,245.709,151.652Z" transform="translate(-20.852 -18.204)"/><path class="cls-6" d="M47.787,237.78V226.967h3.725a9.021,9.021,0,0,1,1.925.155,3.666,3.666,0,0,1,1.586.774,4.4,4.4,0,0,1,1.28,1.848,7.266,7.266,0,0,1,.424,2.571,7.549,7.549,0,0,1-.288,2.183,5.292,5.292,0,0,1-.738,1.575,3.912,3.912,0,0,1-.984.981,4.005,4.005,0,0,1-1.291.542,7.359,7.359,0,0,1-1.737.185Zm1.431-1.276h2.309a5.6,5.6,0,0,0,1.678-.2,2.4,2.4,0,0,0,.97-.561,3.407,3.407,0,0,0,.793-1.368,6.686,6.686,0,0,0,.284-2.084,5.029,5.029,0,0,0-.557-2.607,2.8,2.8,0,0,0-1.354-1.221,5.594,5.594,0,0,0-1.851-.221H49.217Z" transform="translate(-20.852 -18.204)"/><path class="cls-6" d="M57.508,237.78l4.152-10.813H63.2l4.426,10.813H66L64.736,234.5H60.215l-1.187,3.275Zm3.12-4.44h3.666l-1.128-2.995q-.516-1.365-.767-2.242a13.824,13.824,0,0,1-.583,2.065Z" transform="translate(-20.852 -18.204)"/><path class="cls-6" d="M75.867,226.967H77.3v6.247a7.4,7.4,0,0,1-.369,2.589,3.162,3.162,0,0,1-1.332,1.56,4.718,4.718,0,0,1-2.526.6,5.191,5.191,0,0,1-2.485-.524,2.989,2.989,0,0,1-1.379-1.516,7.222,7.222,0,0,1-.413-2.711v-6.247h1.431v6.24a6.08,6.08,0,0,0,.262,2.077,1.987,1.987,0,0,0,.9,1.029,3.124,3.124,0,0,0,1.56.361,2.981,2.981,0,0,0,2.25-.715,4.123,4.123,0,0,0,.671-2.751Z" transform="translate(-20.852 -18.204)"/><path class="cls-6" d="M84.74,233.539V232.27l4.581-.007v4.012a8.085,8.085,0,0,1-2.176,1.265,6.455,6.455,0,0,1-2.3.424,6.138,6.138,0,0,1-2.9-.683,4.507,4.507,0,0,1-1.966-1.973,6.217,6.217,0,0,1-.664-2.884,6.688,6.688,0,0,1,.66-2.947,4.387,4.387,0,0,1,1.9-2.032,5.949,5.949,0,0,1,2.854-.664,5.651,5.651,0,0,1,2.121.38,3.516,3.516,0,0,1,1.486,1.059,4.7,4.7,0,0,1,.819,1.77l-1.291.354a3.991,3.991,0,0,0-.6-1.3,2.484,2.484,0,0,0-1.033-.756,3.8,3.8,0,0,0-1.49-.284,4.4,4.4,0,0,0-1.7.3,3.17,3.17,0,0,0-1.154.786,3.745,3.745,0,0,0-.682,1.07,5.657,5.657,0,0,0-.413,2.176,5.286,5.286,0,0,0,.5,2.419,3.187,3.187,0,0,0,1.45,1.445,4.483,4.483,0,0,0,2.021.472,4.8,4.8,0,0,0,1.814-.358,4.676,4.676,0,0,0,1.342-.763v-2.014Z" transform="translate(-20.852 -18.204)"/><path class="cls-6" d="M91.475,237.78V226.967h1.431v4.44h5.621v-4.44h1.431V237.78H98.526v-5.1H92.906v5.1Z" transform="translate(-20.852 -18.204)"/><path class="cls-6" d="M105.091,237.78v-9.537h-3.562v-1.276H110.1v1.276h-3.577v9.537Z" transform="translate(-20.852 -18.204)"/><path class="cls-6" d="M111.6,237.78V226.967h7.818v1.276h-6.387v3.312h5.982v1.269h-5.982V236.5h6.638v1.276Z" transform="translate(-20.852 -18.204)"/><path class="cls-6" d="M121.665,237.78V226.967h4.794a6.389,6.389,0,0,1,2.2.291,2.406,2.406,0,0,1,1.2,1.029,3.071,3.071,0,0,1,.45,1.63,2.718,2.718,0,0,1-.745,1.94,3.768,3.768,0,0,1-2.3,1,3.725,3.725,0,0,1,.863.539,7.444,7.444,0,0,1,1.188,1.438l1.881,2.943h-1.8l-1.431-2.25q-.628-.974-1.033-1.49a3.257,3.257,0,0,0-.727-.723,2.151,2.151,0,0,0-.653-.288,4.274,4.274,0,0,0-.8-.052H123.1v4.8Zm1.431-6.041h3.076a4.615,4.615,0,0,0,1.534-.2,1.634,1.634,0,0,0,.841-.649,1.756,1.756,0,0,0,.288-.97,1.612,1.612,0,0,0-.557-1.261,2.606,2.606,0,0,0-1.759-.494H123.1Z" transform="translate(-20.852 -18.204)"/><path class="cls-6" d="M54.963,257.463v-1.328a4.9,4.9,0,0,1-1.619-.446,2.819,2.819,0,0,1-1.077-1.036,3.7,3.7,0,0,1-.527-1.748l1.335-.251a3.363,3.363,0,0,0,.546,1.571,1.935,1.935,0,0,0,1.342.789v-4.227a5.532,5.532,0,0,1-1.674-.634,2.454,2.454,0,0,1-.978-.981,3.125,3.125,0,0,1,.66-3.717,3.488,3.488,0,0,1,1.992-.723V244.1h.782v.635a3.281,3.281,0,0,1,1.837.678,3.018,3.018,0,0,1,1.047,1.984l-1.372.207a2.269,2.269,0,0,0-.491-1.2,1.807,1.807,0,0,0-1.021-.549v3.828a10.526,10.526,0,0,1,1.328.391,3.284,3.284,0,0,1,1.011.664,2.677,2.677,0,0,1,.6.929,3.419,3.419,0,0,1-.667,3.467,3.221,3.221,0,0,1-2.272.988v1.342Zm0-11.625a1.972,1.972,0,0,0-1.221.62,1.844,1.844,0,0,0-.066,2.324,2.616,2.616,0,0,0,1.287.73Zm.782,9.176a1.969,1.969,0,0,0,1.28-.671,2.081,2.081,0,0,0,.505-1.424,1.78,1.78,0,0,0-.358-1.162,3.091,3.091,0,0,0-1.427-.786Z" transform="translate(-20.852 -18.204)"/><path class="cls-6" d="M60.237,253.053l1.328-.177a2.924,2.924,0,0,0,.778,1.626,1.921,1.921,0,0,0,1.339.5,2.147,2.147,0,0,0,1.582-.649,2.191,2.191,0,0,0,.646-1.608,2.038,2.038,0,0,0-.6-1.509,2.067,2.067,0,0,0-1.52-.594,3.82,3.82,0,0,0-.937.147L63,249.623a2.039,2.039,0,0,0,.214.015,2.736,2.736,0,0,0,1.527-.442,1.516,1.516,0,0,0,.679-1.365,1.613,1.613,0,0,0-.495-1.209,1.755,1.755,0,0,0-1.276-.479,1.806,1.806,0,0,0-1.291.487,2.441,2.441,0,0,0-.664,1.46l-1.328-.236a3.413,3.413,0,0,1,1.106-2.069,3.2,3.2,0,0,1,2.146-.734,3.533,3.533,0,0,1,1.63.38,2.75,2.75,0,0,1,1.14,1.036,2.663,2.663,0,0,1,.395,1.394,2.286,2.286,0,0,1-.376,1.276,2.571,2.571,0,0,1-1.114.915,2.508,2.508,0,0,1,1.49.918,2.794,2.794,0,0,1,.531,1.744,3.191,3.191,0,0,1-1.033,2.4,3.632,3.632,0,0,1-2.611.985,3.4,3.4,0,0,1-2.364-.848A3.28,3.28,0,0,1,60.237,253.053Z" transform="translate(-20.852 -18.204)"/><path class="cls-6" d="M69.346,255.907V254.4h1.512v1.512a2.689,2.689,0,0,1-.295,1.346,1.925,1.925,0,0,1-.937.793l-.369-.568a1.261,1.261,0,0,0,.62-.542,2.308,2.308,0,0,0,.221-1.029Z" transform="translate(-20.852 -18.204)"/><path class="cls-6" d="M73.027,253.407l1.276-.118a2.219,2.219,0,0,0,.62,1.306A1.7,1.7,0,0,0,76.1,255a2.024,2.024,0,0,0,1.073-.28,2.3,2.3,0,0,0,.756-.749,4.4,4.4,0,0,0,.494-1.265,6.663,6.663,0,0,0,.2-1.623c0-.059,0-.147-.007-.266a3.041,3.041,0,0,1-1.088,1.029,2.956,2.956,0,0,1-1.494.395,3.019,3.019,0,0,1-2.272-.974,3.562,3.562,0,0,1-.929-2.566,3.65,3.65,0,0,1,.97-2.648,3.243,3.243,0,0,1,2.431-1,3.468,3.468,0,0,1,1.929.568,3.55,3.55,0,0,1,1.328,1.619,7.976,7.976,0,0,1,.454,3.042,9.853,9.853,0,0,1-.45,3.3,3.869,3.869,0,0,1-1.339,1.87,3.464,3.464,0,0,1-2.084.642,2.857,2.857,0,0,1-3.039-2.685Zm5.436-4.772a2.6,2.6,0,0,0-.608-1.814,1.908,1.908,0,0,0-1.464-.671,2.021,2.021,0,0,0-1.542.723,2.68,2.68,0,0,0-.656,1.874,2.314,2.314,0,0,0,.623,1.678,2.054,2.054,0,0,0,1.538.646,1.969,1.969,0,0,0,1.516-.646A2.543,2.543,0,0,0,78.463,248.635Z" transform="translate(-20.852 -18.204)"/><path class="cls-6" d="M85.485,255.907v-2.589H80.794V252.1l4.935-7.007h1.084V252.1h1.46v1.217h-1.46v2.589Zm0-3.806v-4.875L82.1,252.1Z" transform="translate(-20.852 -18.204)"/><path class="cls-6" d="M96.608,254.631v1.276H89.461a2.336,2.336,0,0,1,.155-.922,4.871,4.871,0,0,1,.874-1.438,13.655,13.655,0,0,1,1.737-1.637,14.7,14.7,0,0,0,2.382-2.291,2.742,2.742,0,0,0,.62-1.6,1.775,1.775,0,0,0-.564-1.332,2.036,2.036,0,0,0-1.472-.542,2.075,2.075,0,0,0-1.534.575,2.178,2.178,0,0,0-.583,1.593l-1.365-.14a3.358,3.358,0,0,1,1.055-2.327,3.6,3.6,0,0,1,2.457-.8,3.428,3.428,0,0,1,2.463.863,2.834,2.834,0,0,1,.907,2.139,3.242,3.242,0,0,1-.266,1.276,4.937,4.937,0,0,1-.881,1.32,21.46,21.46,0,0,1-2.047,1.9q-1.195,1-1.534,1.361a4.35,4.35,0,0,0-.561.719Z" transform="translate(-20.852 -18.204)"/><path class="cls-6" d="M98.747,255.907V254.4h1.512v1.512a2.689,2.689,0,0,1-.295,1.346,1.925,1.925,0,0,1-.937.793l-.369-.568a1.261,1.261,0,0,0,.62-.542,2.308,2.308,0,0,0,.221-1.029Z" transform="translate(-20.852 -18.204)"/><path class="cls-6" d="M102.229,250.574a9.889,9.889,0,0,1,.395-3.086,3.84,3.84,0,0,1,1.173-1.8,3,3,0,0,1,1.958-.634,3.193,3.193,0,0,1,1.527.351,2.918,2.918,0,0,1,1.084,1.01,5.435,5.435,0,0,1,.671,1.608,10.693,10.693,0,0,1,.243,2.556,9.934,9.934,0,0,1-.391,3.072,3.84,3.84,0,0,1-1.169,1.807,3.291,3.291,0,0,1-4.422-.483A7.127,7.127,0,0,1,102.229,250.574Zm1.365,0a6.781,6.781,0,0,0,.623,3.544,1.78,1.78,0,0,0,3.076,0,10.384,10.384,0,0,0,0-7.088,1.85,1.85,0,0,0-1.553-.877,1.7,1.7,0,0,0-1.46.774A6.861,6.861,0,0,0,103.593,250.574Z" transform="translate(-20.852 -18.204)"/><path class="cls-6" d="M110.63,250.574a9.889,9.889,0,0,1,.395-3.086,3.84,3.84,0,0,1,1.173-1.8,3,3,0,0,1,1.958-.634,3.193,3.193,0,0,1,1.527.351,2.918,2.918,0,0,1,1.084,1.01,5.435,5.435,0,0,1,.671,1.608,10.693,10.693,0,0,1,.243,2.556,9.934,9.934,0,0,1-.391,3.072,3.84,3.84,0,0,1-1.169,1.807,3.291,3.291,0,0,1-4.422-.483A7.127,7.127,0,0,1,110.63,250.574Zm1.365,0a6.781,6.781,0,0,0,.623,3.544,1.78,1.78,0,0,0,3.076,0,10.384,10.384,0,0,0,0-7.088,1.85,1.85,0,0,0-1.553-.877,1.7,1.7,0,0,0-1.46.774A6.861,6.861,0,0,0,111.995,250.574Z" transform="translate(-20.852 -18.204)"/><path class="cls-6" d="M119.031,250.574a9.889,9.889,0,0,1,.395-3.086,3.84,3.84,0,0,1,1.173-1.8,3,3,0,0,1,1.958-.634,3.193,3.193,0,0,1,1.527.351,2.918,2.918,0,0,1,1.084,1.01,5.435,5.435,0,0,1,.671,1.608,10.694,10.694,0,0,1,.243,2.556,9.934,9.934,0,0,1-.391,3.072,3.84,3.84,0,0,1-1.169,1.807,3.291,3.291,0,0,1-4.422-.483A7.127,7.127,0,0,1,119.031,250.574Zm1.365,0a6.781,6.781,0,0,0,.623,3.544,1.78,1.78,0,0,0,3.076,0,10.384,10.384,0,0,0,0-7.088,1.85,1.85,0,0,0-1.553-.877,1.7,1.7,0,0,0-1.46.774A6.861,6.861,0,0,0,120.4,250.574Z" transform="translate(-20.852 -18.204)"/><path class="cls-6" d="M320.595,234.306l1.35-.118a2.978,2.978,0,0,0,.446,1.332,2.437,2.437,0,0,0,1.088.841,4.122,4.122,0,0,0,1.659.321,3.983,3.983,0,0,0,1.446-.243,2.007,2.007,0,0,0,.933-.667,1.549,1.549,0,0,0,.307-.926,1.408,1.408,0,0,0-.295-.889,2.191,2.191,0,0,0-.974-.638,19.038,19.038,0,0,0-1.926-.527,9.825,9.825,0,0,1-2.087-.675,2.922,2.922,0,0,1-1.154-1.007,2.463,2.463,0,0,1-.38-1.346,2.743,2.743,0,0,1,.465-1.531,2.879,2.879,0,0,1,1.356-1.081,5.158,5.158,0,0,1,1.984-.369,5.42,5.42,0,0,1,2.121.387,3.057,3.057,0,0,1,1.412,1.14,3.274,3.274,0,0,1,.531,1.7l-1.372.1a2.213,2.213,0,0,0-.749-1.549,2.913,2.913,0,0,0-1.884-.524,3.025,3.025,0,0,0-1.893.476,1.427,1.427,0,0,0-.594,1.146,1.23,1.23,0,0,0,.421.959,5.692,5.692,0,0,0,2.157.771,14.319,14.319,0,0,1,2.394.689,3.28,3.28,0,0,1,1.394,1.1,2.679,2.679,0,0,1,.45,1.538,2.944,2.944,0,0,1-.494,1.626,3.252,3.252,0,0,1-1.42,1.188,4.947,4.947,0,0,1-2.084.424,6.226,6.226,0,0,1-2.459-.428,3.441,3.441,0,0,1-1.557-1.287A3.652,3.652,0,0,1,320.595,234.306Z" transform="translate(-20.852 -18.204)"/><path class="cls-6" d="M330.722,232.513a5.876,5.876,0,0,1,1.445-4.215,4.917,4.917,0,0,1,3.732-1.523,5.179,5.179,0,0,1,2.7.715,4.669,4.669,0,0,1,1.833,2,6.476,6.476,0,0,1,.631,2.9,6.375,6.375,0,0,1-.664,2.943,4.533,4.533,0,0,1-1.881,1.966,5.376,5.376,0,0,1-2.626.667,5.11,5.11,0,0,1-2.729-.738,4.744,4.744,0,0,1-1.822-2.014A6.1,6.1,0,0,1,330.722,232.513Zm1.475.022a4.329,4.329,0,0,0,1.052,3.079,3.667,3.667,0,0,0,5.3-.011,4.6,4.6,0,0,0,1.043-3.224,5.533,5.533,0,0,0-.446-2.3,3.425,3.425,0,0,0-1.3-1.527,3.542,3.542,0,0,0-1.93-.542,3.658,3.658,0,0,0-2.614,1.043A4.661,4.661,0,0,0,332.2,232.536Z" transform="translate(-20.852 -18.204)"/><path class="cls-6" d="M342.892,237.78V226.967h1.468l5.68,8.49v-8.49h1.372V237.78h-1.468l-5.68-8.5v8.5Z" transform="translate(-20.852 -18.204)"/><path class="cls-6" d="M302.243,257.463v-1.328a4.9,4.9,0,0,1-1.619-.446,2.819,2.819,0,0,1-1.077-1.036,3.7,3.7,0,0,1-.527-1.748l1.335-.251a3.363,3.363,0,0,0,.546,1.571,1.935,1.935,0,0,0,1.342.789v-4.227a5.532,5.532,0,0,1-1.674-.634,2.454,2.454,0,0,1-.978-.981,3.125,3.125,0,0,1,.66-3.717,3.488,3.488,0,0,1,1.992-.723V244.1h.782v.635a3.281,3.281,0,0,1,1.837.678,3.018,3.018,0,0,1,1.047,1.984l-1.372.207a2.269,2.269,0,0,0-.491-1.2,1.807,1.807,0,0,0-1.021-.549v3.828a10.526,10.526,0,0,1,1.328.391,3.284,3.284,0,0,1,1.011.664,2.677,2.677,0,0,1,.6.929,3.419,3.419,0,0,1-.667,3.467,3.221,3.221,0,0,1-2.272.988v1.342Zm0-11.625a1.972,1.972,0,0,0-1.221.62,1.844,1.844,0,0,0-.066,2.324,2.616,2.616,0,0,0,1.287.73Zm.782,9.176a1.969,1.969,0,0,0,1.28-.671,2.081,2.081,0,0,0,.505-1.424,1.78,1.78,0,0,0-.358-1.162,3.091,3.091,0,0,0-1.427-.786Z" transform="translate(-20.852 -18.204)"/><path class="cls-6" d="M311.766,255.907v-2.589h-4.691V252.1l4.935-7.007h1.085V252.1h1.46v1.217h-1.46v2.589Zm0-3.806v-4.875L308.38,252.1Z" transform="translate(-20.852 -18.204)"/><path class="cls-6" d="M316.627,255.907V254.4h1.512v1.512a2.689,2.689,0,0,1-.295,1.346,1.926,1.926,0,0,1-.937.793l-.369-.568a1.26,1.26,0,0,0,.619-.542,2.307,2.307,0,0,0,.222-1.029Z" transform="translate(-20.852 -18.204)"/><path class="cls-6" d="M324.364,255.907v-2.589h-4.691V252.1l4.935-7.007h1.085V252.1h1.46v1.217h-1.46v2.589Zm0-3.806v-4.875l-3.386,4.875Z" transform="translate(-20.852 -18.204)"/><path class="cls-6" d="M328.51,250.574a9.9,9.9,0,0,1,.395-3.086,3.84,3.84,0,0,1,1.173-1.8,3,3,0,0,1,1.958-.634,3.194,3.194,0,0,1,1.527.351,2.918,2.918,0,0,1,1.084,1.01,5.422,5.422,0,0,1,.671,1.608,10.636,10.636,0,0,1,.244,2.556,9.916,9.916,0,0,1-.392,3.072A3.843,3.843,0,0,1,334,255.454a3.291,3.291,0,0,1-4.422-.483A7.127,7.127,0,0,1,328.51,250.574Zm1.364,0a6.773,6.773,0,0,0,.624,3.544,1.78,1.78,0,0,0,3.075,0,10.392,10.392,0,0,0,0-7.088,1.849,1.849,0,0,0-1.553-.877,1.7,1.7,0,0,0-1.46.774A6.85,6.85,0,0,0,329.874,250.574Z" transform="translate(-20.852 -18.204)"/><path class="cls-6" d="M336.911,250.574a9.9,9.9,0,0,1,.395-3.086,3.84,3.84,0,0,1,1.173-1.8,3,3,0,0,1,1.958-.634,3.194,3.194,0,0,1,1.527.351,2.918,2.918,0,0,1,1.084,1.01,5.422,5.422,0,0,1,.671,1.608,10.636,10.636,0,0,1,.244,2.556,9.916,9.916,0,0,1-.392,3.072,3.843,3.843,0,0,1-1.169,1.807,3.291,3.291,0,0,1-4.422-.483A7.127,7.127,0,0,1,336.911,250.574Zm1.364,0a6.773,6.773,0,0,0,.624,3.544,1.78,1.78,0,0,0,3.075,0,10.392,10.392,0,0,0,0-7.088,1.849,1.849,0,0,0-1.553-.877,1.7,1.7,0,0,0-1.46.774A6.85,6.85,0,0,0,338.275,250.574Z" transform="translate(-20.852 -18.204)"/><path class="cls-6" d="M346.028,255.907V254.4h1.512v1.512a2.689,2.689,0,0,1-.295,1.346,1.926,1.926,0,0,1-.937.793l-.369-.568a1.26,1.26,0,0,0,.619-.542,2.307,2.307,0,0,0,.222-1.029Z" transform="translate(-20.852 -18.204)"/><path class="cls-6" d="M349.51,250.574a9.9,9.9,0,0,1,.395-3.086,3.84,3.84,0,0,1,1.173-1.8,3,3,0,0,1,1.958-.634,3.194,3.194,0,0,1,1.527.351,2.918,2.918,0,0,1,1.084,1.01,5.422,5.422,0,0,1,.671,1.608,10.636,10.636,0,0,1,.244,2.556,9.916,9.916,0,0,1-.392,3.072A3.843,3.843,0,0,1,355,255.454a3.291,3.291,0,0,1-4.422-.483A7.127,7.127,0,0,1,349.51,250.574Zm1.364,0a6.773,6.773,0,0,0,.624,3.544,1.78,1.78,0,0,0,3.075,0,10.392,10.392,0,0,0,0-7.088,1.849,1.849,0,0,0-1.553-.877,1.7,1.7,0,0,0-1.46.774A6.85,6.85,0,0,0,350.874,250.574Z" transform="translate(-20.852 -18.204)"/><path class="cls-6" d="M357.911,250.574a9.9,9.9,0,0,1,.395-3.086,3.84,3.84,0,0,1,1.173-1.8,3,3,0,0,1,1.958-.634,3.194,3.194,0,0,1,1.527.351,2.918,2.918,0,0,1,1.084,1.01,5.422,5.422,0,0,1,.671,1.608,10.636,10.636,0,0,1,.244,2.556,9.916,9.916,0,0,1-.392,3.072,3.843,3.843,0,0,1-1.169,1.807,3.291,3.291,0,0,1-4.422-.483A7.127,7.127,0,0,1,357.911,250.574Zm1.364,0a6.773,6.773,0,0,0,.624,3.544,1.78,1.78,0,0,0,3.075,0,10.392,10.392,0,0,0,0-7.088,1.849,1.849,0,0,0-1.553-.877,1.7,1.7,0,0,0-1.46.774A6.85,6.85,0,0,0,359.275,250.574Z" transform="translate(-20.852 -18.204)"/><path class="cls-6" d="M366.313,250.574a9.9,9.9,0,0,1,.395-3.086,3.84,3.84,0,0,1,1.173-1.8,3,3,0,0,1,1.958-.634,3.194,3.194,0,0,1,1.527.351,2.918,2.918,0,0,1,1.084,1.01,5.422,5.422,0,0,1,.671,1.608,10.636,10.636,0,0,1,.244,2.556,9.916,9.916,0,0,1-.392,3.072,3.843,3.843,0,0,1-1.169,1.807,3.291,3.291,0,0,1-4.422-.483A7.127,7.127,0,0,1,366.313,250.574Zm1.364,0a6.773,6.773,0,0,0,.624,3.544,1.78,1.78,0,0,0,3.075,0,10.392,10.392,0,0,0,0-7.088,1.849,1.849,0,0,0-1.553-.877,1.7,1.7,0,0,0-1.46.774A6.85,6.85,0,0,0,367.677,250.574Z" transform="translate(-20.852 -18.204)"/><polygon class="cls-7" points="228.658 21.492 242.077 29.239 228.658 36.987 228.658 21.492"/><polygon class="cls-7" points="401.231 21.492 414.649 29.239 401.231 36.987 401.231 21.492"/><polygon class="cls-7" points="119.772 185.946 105.471 191.909 107.458 176.542 119.772 185.946"/><polygon class="cls-7" points="254.77 186.576 269.071 192.539 267.084 177.172 254.77 186.576"/><polygon class="cls-7" points="135.46 89.205 149.761 95.168 147.774 79.801 135.46 89.205"/><path d="M442.873,52.023V41.21H444.3V52.023Z" transform="translate(-20.852 -18.204)"/><path d="M446.849,52.023V41.21h4.794a6.39,6.39,0,0,1,2.2.291,2.4,2.4,0,0,1,1.2,1.029,3.071,3.071,0,0,1,.45,1.63,2.718,2.718,0,0,1-.745,1.94,3.767,3.767,0,0,1-2.3,1,3.726,3.726,0,0,1,.862.539,7.409,7.409,0,0,1,1.188,1.438l1.881,2.943h-1.8l-1.432-2.25q-.627-.974-1.032-1.49a3.257,3.257,0,0,0-.727-.723,2.148,2.148,0,0,0-.653-.288,4.269,4.269,0,0,0-.8-.052h-1.66v4.8Zm1.431-6.041h3.076a4.617,4.617,0,0,0,1.534-.2,1.63,1.63,0,0,0,.841-.649,1.761,1.761,0,0,0,.288-.97,1.613,1.613,0,0,0-.558-1.261,2.6,2.6,0,0,0-1.759-.494h-3.423Z" transform="translate(-20.852 -18.204)"/><path d="M457.249,48.549l1.35-.118a2.978,2.978,0,0,0,.446,1.332,2.437,2.437,0,0,0,1.088.841,4.122,4.122,0,0,0,1.659.321,3.983,3.983,0,0,0,1.446-.243,2.007,2.007,0,0,0,.933-.667,1.549,1.549,0,0,0,.307-.926,1.408,1.408,0,0,0-.295-.889,2.191,2.191,0,0,0-.974-.638,19.038,19.038,0,0,0-1.926-.527,9.825,9.825,0,0,1-2.087-.675,2.922,2.922,0,0,1-1.154-1.007,2.463,2.463,0,0,1-.38-1.346,2.743,2.743,0,0,1,.465-1.531,2.879,2.879,0,0,1,1.356-1.081,5.158,5.158,0,0,1,1.984-.369,5.42,5.42,0,0,1,2.121.387A3.057,3.057,0,0,1,465,42.553a3.274,3.274,0,0,1,.531,1.7l-1.372.1a2.213,2.213,0,0,0-.749-1.549,2.913,2.913,0,0,0-1.884-.524,3.025,3.025,0,0,0-1.893.476,1.427,1.427,0,0,0-.594,1.146,1.23,1.23,0,0,0,.421.959,5.692,5.692,0,0,0,2.157.771,14.319,14.319,0,0,1,2.394.689,3.28,3.28,0,0,1,1.394,1.1,2.679,2.679,0,0,1,.45,1.538,2.944,2.944,0,0,1-.494,1.626,3.252,3.252,0,0,1-1.42,1.188,4.947,4.947,0,0,1-2.084.424,6.226,6.226,0,0,1-2.459-.428,3.441,3.441,0,0,1-1.557-1.287A3.652,3.652,0,0,1,457.249,48.549Z" transform="translate(-20.852 -18.204)"/></svg>