<svg id="Layer_1" data-name="Layer 1" xmlns="http://www.w3.org/2000/svg" viewBox="0 0 369.891 324.455"><defs><style>.cls-1{fill:#2977b3;}.cls-2{fill:#4b8fcc;}.cls-3{fill:#25659f;}.cls-4{fill:#367cbc;}.cls-5{fill:#64a6da;}.cls-6{fill:#9ac5e6;}.cls-6,.cls-8{stroke:#9ac5e6;}.cls-10,.cls-6{stroke-miterlimit:10;}.cls-7{fill:#fff;}.cls-8{fill:#828282;}.cls-8,.cls-9{stroke-width:3px;}.cls-10,.cls-9{fill:#9ac5e5;stroke:#9ac5e5;}.cls-11{fill:#9ac5e7;}.cls-12{fill:#154168;}</style></defs><title>Identifying_Skip_Persons</title><rect class="cls-1" x="0.965" y="277.401" width="148.15" height="47.054"/><rect class="cls-2" y="139.552" width="148.15" height="47.054"/><rect class="cls-3" x="221.741" y="277.401" width="148.15" height="47.054"/><rect class="cls-4" x="221.554" y="139.717" width="148.15" height="47.054"/><rect class="cls-5" x="220.951" y="1.067" width="148.15" height="47.054"/><polygon class="cls-6" points="212.751 23.673 194.556 5.891 194.733 41.635 212.751 23.673"/><path class="cls-7" d="M281.9,38.073v-10.1h3.789a4.7,4.7,0,0,1,1.857.307,2.387,2.387,0,0,1,1.095.944,2.485,2.485,0,0,1,.4,1.333,2.289,2.289,0,0,1-.352,1.219,2.511,2.511,0,0,1-1.061.923,2.635,2.635,0,0,1,1.408.916,2.451,2.451,0,0,1,.493,1.529,2.944,2.944,0,0,1-.3,1.319,2.564,2.564,0,0,1-.74.94,3.085,3.085,0,0,1-1.106.5,6.711,6.711,0,0,1-1.629.169H281.9Zm1.337-5.856h2.184A4.866,4.866,0,0,0,286.7,32.1a1.416,1.416,0,0,0,.769-0.5,1.451,1.451,0,0,0,.258-0.882,1.629,1.629,0,0,0-.24-0.885,1.222,1.222,0,0,0-.689-0.523,5.746,5.746,0,0,0-1.536-.142h-2.019v3.052Zm0,4.664h2.515a5.775,5.775,0,0,0,.909-0.048,2.179,2.179,0,0,0,.771-0.275,1.457,1.457,0,0,0,.51-0.562,1.751,1.751,0,0,0,.2-0.851,1.681,1.681,0,0,0-.289-0.981,1.529,1.529,0,0,0-.8-0.585,4.972,4.972,0,0,0-1.479-.169h-2.335v3.472Z" transform="translate(-7.318 -11.315)"/><path class="cls-7" d="M291.2,38.073V30.757h1.116v1.109a3.031,3.031,0,0,1,.789-1.026,1.375,1.375,0,0,1,.8-0.248,2.42,2.42,0,0,1,1.274.4l-0.428,1.151a1.771,1.771,0,0,0-.909-0.269,1.185,1.185,0,0,0-.73.245,1.325,1.325,0,0,0-.461.679,4.834,4.834,0,0,0-.207,1.447v3.831H291.2Z" transform="translate(-7.318 -11.315)"/><path class="cls-7" d="M295.449,34.415a3.769,3.769,0,0,1,1.13-3.011,3.4,3.4,0,0,1,2.3-.813,3.284,3.284,0,0,1,2.467.989,3.764,3.764,0,0,1,.957,2.731,4.832,4.832,0,0,1-.424,2.222,3,3,0,0,1-1.232,1.257,3.594,3.594,0,0,1-1.768.448,3.287,3.287,0,0,1-2.483-.985A3.934,3.934,0,0,1,295.449,34.415Zm1.274,0a3.113,3.113,0,0,0,.613,2.1,2.041,2.041,0,0,0,3.079,0,3.187,3.187,0,0,0,.613-2.143,3.021,3.021,0,0,0-.616-2.056,2.044,2.044,0,0,0-3.076,0A3.1,3.1,0,0,0,296.724,34.415Z" transform="translate(-7.318 -11.315)"/><path class="cls-7" d="M306.466,36.964l0.179,1.1a4.612,4.612,0,0,1-.937.11,2.117,2.117,0,0,1-1.047-.214,1.2,1.2,0,0,1-.524-0.562,4.453,4.453,0,0,1-.151-1.464V31.721h-0.909V30.757h0.909V28.945l1.233-.744v2.556h1.247v0.964h-1.247V36a2.153,2.153,0,0,0,.065.682,0.519,0.519,0,0,0,.214.241,0.825,0.825,0,0,0,.424.089A4.029,4.029,0,0,0,306.466,36.964Z" transform="translate(-7.318 -11.315)"/><path class="cls-7" d="M307.678,38.073v-10.1h1.24V31.6a2.773,2.773,0,0,1,2.191-1.006,2.955,2.955,0,0,1,1.412.32,1.881,1.881,0,0,1,.857.885,4.071,4.071,0,0,1,.259,1.64v4.637H312.4V33.437a1.915,1.915,0,0,0-.4-1.354,1.5,1.5,0,0,0-1.14-.424,2.005,2.005,0,0,0-1.037.286,1.611,1.611,0,0,0-.692.775,3.561,3.561,0,0,0-.207,1.35v4h-1.24Z" transform="translate(-7.318 -11.315)"/><path class="cls-7" d="M320.533,35.717l1.281,0.158a3.127,3.127,0,0,1-1.123,1.743,3.8,3.8,0,0,1-4.64-.369,3.863,3.863,0,0,1-.94-2.773,4.044,4.044,0,0,1,.951-2.866,3.218,3.218,0,0,1,2.466-1.02,3.128,3.128,0,0,1,2.4,1,3.969,3.969,0,0,1,.931,2.811c0,0.073,0,.184-0.007.331h-5.457a2.809,2.809,0,0,0,.683,1.846,2.028,2.028,0,0,0,1.529.641,1.9,1.9,0,0,0,1.164-.358A2.381,2.381,0,0,0,320.533,35.717Zm-4.071-2h4.085a2.477,2.477,0,0,0-.468-1.385,1.9,1.9,0,0,0-1.537-.717,1.973,1.973,0,0,0-1.437.572A2.264,2.264,0,0,0,316.462,33.712Z" transform="translate(-7.318 -11.315)"/><path class="cls-7" d="M323.357,38.073V30.757h1.116v1.109a3.031,3.031,0,0,1,.789-1.026,1.375,1.375,0,0,1,.8-0.248,2.42,2.42,0,0,1,1.274.4l-0.428,1.151A1.771,1.771,0,0,0,326,31.873a1.185,1.185,0,0,0-.73.245,1.325,1.325,0,0,0-.461.679,4.834,4.834,0,0,0-.207,1.447v3.831h-1.24Z" transform="translate(-7.318 -11.315)"/><path class="cls-7" d="M69.844,176.018l1.261-.11a2.779,2.779,0,0,0,.417,1.243,2.269,2.269,0,0,0,1.016.786,3.849,3.849,0,0,0,1.55.3,3.718,3.718,0,0,0,1.35-.228,1.874,1.874,0,0,0,.872-0.624,1.447,1.447,0,0,0,.286-0.865,1.315,1.315,0,0,0-.275-0.83,2.041,2.041,0,0,0-.909-0.6,17.7,17.7,0,0,0-1.8-.493,9.2,9.2,0,0,1-1.95-.63,2.728,2.728,0,0,1-1.078-.94,2.3,2.3,0,0,1-.355-1.257,2.57,2.57,0,0,1,.434-1.43,2.693,2.693,0,0,1,1.268-1.009,4.813,4.813,0,0,1,1.854-.344,5.069,5.069,0,0,1,1.98.361,2.858,2.858,0,0,1,1.319,1.064,3.059,3.059,0,0,1,.5,1.592l-1.281.1a2.069,2.069,0,0,0-.7-1.447,2.722,2.722,0,0,0-1.76-.489,2.823,2.823,0,0,0-1.767.445,1.331,1.331,0,0,0-.555,1.071,1.149,1.149,0,0,0,.393.9,5.326,5.326,0,0,0,2.015.72,13.373,13.373,0,0,1,2.235.644,3.068,3.068,0,0,1,1.3,1.03,2.508,2.508,0,0,1,.42,1.437,2.749,2.749,0,0,1-.461,1.519,3.04,3.04,0,0,1-1.327,1.109,4.618,4.618,0,0,1-1.946.4,5.808,5.808,0,0,1-2.3-.4,3.214,3.214,0,0,1-1.454-1.2A3.407,3.407,0,0,1,69.844,176.018Z" transform="translate(-7.318 -11.315)"/><path class="cls-7" d="M79.089,175.6a3.773,3.773,0,0,1,1.13-3.011,3.405,3.405,0,0,1,2.3-.813,3.282,3.282,0,0,1,2.466.989,3.76,3.76,0,0,1,.958,2.731,4.845,4.845,0,0,1-.423,2.222,3,3,0,0,1-1.233,1.257,3.593,3.593,0,0,1-1.767.448,3.288,3.288,0,0,1-2.483-.985A3.934,3.934,0,0,1,79.089,175.6Zm1.275,0a3.115,3.115,0,0,0,.613,2.1,2.042,2.042,0,0,0,3.08,0,3.19,3.19,0,0,0,.613-2.143,3.021,3.021,0,0,0-.617-2.056,2.044,2.044,0,0,0-3.076,0A3.1,3.1,0,0,0,80.364,175.6Z" transform="translate(-7.318 -11.315)"/><path class="cls-7" d="M87.4,179.263v-7.316h1.116v1.04a2.63,2.63,0,0,1,2.329-1.206,3.05,3.05,0,0,1,1.216.238,1.909,1.909,0,0,1,.83.624,2.392,2.392,0,0,1,.386.916,7.11,7.11,0,0,1,.069,1.206v4.5H92.1v-4.451a3.335,3.335,0,0,0-.145-1.133,1.191,1.191,0,0,0-.513-0.6,1.631,1.631,0,0,0-.865-0.224,2.01,2.01,0,0,0-1.367.5,2.48,2.48,0,0,0-.576,1.908v4H87.4Z" transform="translate(-7.318 -11.315)"/><line class="cls-8" x1="147.914" y1="23.995" x2="194.644" y2="23.763"/><line class="cls-9" x1="146.738" y1="32.906" x2="224.478" y2="122.199"/><polygon class="cls-10" points="236.485 135.791 211.045 135.492 236.451 110.35 236.485 135.791"/><rect class="cls-11" x="0.232" width="148.15" height="47.054"/><path class="cls-12" d="M52.745,39.818V30.91H49.417V29.718h8.006V30.91H54.082v8.908H52.745Z" transform="translate(-7.318 -11.315)"/><path class="cls-12" d="M58.622,39.818V32.5h1.116V33.61a3.025,3.025,0,0,1,.789-1.026,1.376,1.376,0,0,1,.8-0.248,2.423,2.423,0,0,1,1.275.4L62.17,33.886a1.775,1.775,0,0,0-.909-0.269,1.183,1.183,0,0,0-.73.245,1.326,1.326,0,0,0-.461.679,4.818,4.818,0,0,0-.207,1.447v3.831h-1.24Z" transform="translate(-7.318 -11.315)"/><path class="cls-12" d="M68.109,38.916a4.624,4.624,0,0,1-1.326.827,3.837,3.837,0,0,1-1.368.241,2.659,2.659,0,0,1-1.854-.589,1.944,1.944,0,0,1-.647-1.505,2,2,0,0,1,.245-0.981,2.025,2.025,0,0,1,.641-0.713,3.023,3.023,0,0,1,.892-0.406,8.81,8.81,0,0,1,1.1-.186,11.34,11.34,0,0,0,2.211-.427q0.007-.255.007-0.324a1.37,1.37,0,0,0-.351-1.068,2.076,2.076,0,0,0-1.413-.42,2.191,2.191,0,0,0-1.292.307,1.871,1.871,0,0,0-.617,1.085l-1.213-.166a3.009,3.009,0,0,1,.544-1.257,2.384,2.384,0,0,1,1.1-.737,4.88,4.88,0,0,1,1.66-.258,4.393,4.393,0,0,1,1.522.221,2.005,2.005,0,0,1,.861.554,1.958,1.958,0,0,1,.386.844,6.962,6.962,0,0,1,.062,1.144v1.653a17.577,17.577,0,0,0,.079,2.188,2.754,2.754,0,0,0,.313.878H68.357A2.621,2.621,0,0,1,68.109,38.916Zm-0.1-2.77a9.1,9.1,0,0,1-2.025.468,4.7,4.7,0,0,0-1.082.248,1.077,1.077,0,0,0-.489.4,1.1,1.1,0,0,0,.2,1.416,1.618,1.618,0,0,0,1.1.331,2.557,2.557,0,0,0,1.274-.313,1.931,1.931,0,0,0,.82-0.857,3,3,0,0,0,.2-1.24V36.146Z" transform="translate(-7.318 -11.315)"/><path class="cls-12" d="M71.181,39.818V32.5H72.3v1.04a2.63,2.63,0,0,1,2.329-1.206,3.05,3.05,0,0,1,1.216.238,1.909,1.909,0,0,1,.83.624,2.392,2.392,0,0,1,.386.916,7.11,7.11,0,0,1,.069,1.206v4.5h-1.24V35.367a3.335,3.335,0,0,0-.145-1.133,1.191,1.191,0,0,0-.513-0.6,1.631,1.631,0,0,0-.865-0.224,2.01,2.01,0,0,0-1.367.5,2.48,2.48,0,0,0-.576,1.908v4h-1.24Z" transform="translate(-7.318 -11.315)"/><path class="cls-12" d="M78.532,37.634l1.226-.193a1.712,1.712,0,0,0,.576,1.13,2.005,2.005,0,0,0,1.319.393,1.939,1.939,0,0,0,1.268-.348,1.04,1.04,0,0,0,.413-0.816,0.753,0.753,0,0,0-.365-0.662,5.4,5.4,0,0,0-1.268-.42,11.576,11.576,0,0,1-1.891-.6,1.806,1.806,0,0,1-1.071-1.677,1.884,1.884,0,0,1,.224-0.906,2.011,2.011,0,0,1,.609-0.692,2.578,2.578,0,0,1,.789-0.362,3.755,3.755,0,0,1,1.071-.148,4.23,4.23,0,0,1,1.512.248,2.055,2.055,0,0,1,.961.672,2.619,2.619,0,0,1,.427,1.133l-1.212.165a1.327,1.327,0,0,0-.479-0.882,1.753,1.753,0,0,0-1.12-.317,2.026,2.026,0,0,0-1.219.283,0.822,0.822,0,0,0-.365.661,0.684,0.684,0,0,0,.152.434,1.086,1.086,0,0,0,.475.331q0.186,0.07,1.1.317a15.268,15.268,0,0,1,1.836.576,1.863,1.863,0,0,1,.816.651,1.819,1.819,0,0,1,.3,1.061,2.08,2.08,0,0,1-.361,1.167,2.339,2.339,0,0,1-1.044.848,3.8,3.8,0,0,1-1.543.3,3.439,3.439,0,0,1-2.174-.593A2.754,2.754,0,0,1,78.532,37.634Z" transform="translate(-7.318 -11.315)"/><path class="cls-12" d="M86.379,39.818V33.466h-1.1V32.5h1.1V31.723a3.4,3.4,0,0,1,.131-1.1,1.585,1.585,0,0,1,.63-0.782,2.272,2.272,0,0,1,1.264-.3,6.043,6.043,0,0,1,1.157.124l-0.186,1.082a4.163,4.163,0,0,0-.73-0.069,1.084,1.084,0,0,0-.8.241,1.306,1.306,0,0,0-.234.9V32.5h1.426v0.964H87.612v6.352H86.379Z" transform="translate(-7.318 -11.315)"/><path class="cls-12" d="M95.012,37.462l1.282,0.158a3.129,3.129,0,0,1-1.123,1.743,3.8,3.8,0,0,1-4.64-.369,3.863,3.863,0,0,1-.94-2.773,4.043,4.043,0,0,1,.951-2.866,3.219,3.219,0,0,1,2.467-1.02,3.128,3.128,0,0,1,2.4,1,3.971,3.971,0,0,1,.93,2.811c0,0.073,0,.184-0.007.331H90.872a2.809,2.809,0,0,0,.682,1.846,2.031,2.031,0,0,0,1.53.641,1.9,1.9,0,0,0,1.164-.358A2.374,2.374,0,0,0,95.012,37.462Zm-4.071-2h4.085a2.477,2.477,0,0,0-.469-1.385,1.9,1.9,0,0,0-1.536-.717,1.971,1.971,0,0,0-1.437.572A2.262,2.262,0,0,0,90.94,35.457Z" transform="translate(-7.318 -11.315)"/><path class="cls-12" d="M97.836,39.818V32.5h1.116V33.61a3.025,3.025,0,0,1,.789-1.026,1.376,1.376,0,0,1,.8-0.248,2.423,2.423,0,0,1,1.275.4l-0.427,1.151a1.775,1.775,0,0,0-.909-0.269,1.183,1.183,0,0,0-.73.245,1.326,1.326,0,0,0-.461.679,4.818,4.818,0,0,0-.207,1.447v3.831h-1.24Z" transform="translate(-7.318 -11.315)"/><path class="cls-12" d="M102.087,36.16a3.773,3.773,0,0,1,1.13-3.011,3.405,3.405,0,0,1,2.3-.813,3.282,3.282,0,0,1,2.466.989,3.76,3.76,0,0,1,.958,2.731,4.845,4.845,0,0,1-.423,2.222,3,3,0,0,1-1.233,1.257,3.593,3.593,0,0,1-1.767.448A3.288,3.288,0,0,1,103.035,39,3.934,3.934,0,0,1,102.087,36.16Zm1.275,0a3.115,3.115,0,0,0,.613,2.1,2.042,2.042,0,0,0,3.08,0,3.19,3.19,0,0,0,.613-2.143,3.021,3.021,0,0,0-.617-2.056,2.044,2.044,0,0,0-3.076,0A3.1,3.1,0,0,0,103.362,36.16Z" transform="translate(-7.318 -11.315)"/><path class="cls-12" d="M110.382,39.818V32.5H111.5V33.61a3.025,3.025,0,0,1,.789-1.026,1.376,1.376,0,0,1,.8-0.248,2.423,2.423,0,0,1,1.275.4l-0.427,1.151a1.775,1.775,0,0,0-.909-0.269,1.183,1.183,0,0,0-.73.245,1.326,1.326,0,0,0-.461.679,4.818,4.818,0,0,0-.207,1.447v3.831h-1.24Z" transform="translate(-7.318 -11.315)"/><path class="cls-7" d="M287.979,179.263v-10.1h1.37l5.306,7.93v-7.93h1.281v10.1h-1.371l-5.3-7.937v7.937h-1.281Z" transform="translate(-7.318 -11.315)"/><path class="cls-7" d="M298.029,170.589v-1.426h1.24v1.426h-1.24Zm0,8.674v-7.316h1.24v7.316h-1.24Z" transform="translate(-7.318 -11.315)"/><path class="cls-7" d="M306.166,176.907l1.281,0.158a3.127,3.127,0,0,1-1.123,1.743,3.8,3.8,0,0,1-4.64-.369,3.863,3.863,0,0,1-.94-2.773,4.044,4.044,0,0,1,.951-2.866,3.218,3.218,0,0,1,2.466-1.02,3.128,3.128,0,0,1,2.4,1,3.969,3.969,0,0,1,.931,2.811c0,0.073,0,.184-0.007.331h-5.457a2.809,2.809,0,0,0,.683,1.846,2.028,2.028,0,0,0,1.529.641,1.9,1.9,0,0,0,1.164-.358A2.381,2.381,0,0,0,306.166,176.907Zm-4.071-2h4.085a2.477,2.477,0,0,0-.468-1.385,1.9,1.9,0,0,0-1.537-.717,1.973,1.973,0,0,0-1.437.572A2.264,2.264,0,0,0,302.095,174.9Z" transform="translate(-7.318 -11.315)"/><path class="cls-7" d="M313.778,176.583l1.22,0.159a3.161,3.161,0,0,1-1.023,1.974,2.979,2.979,0,0,1-2.021.713,3.142,3.142,0,0,1-2.415-.982,3.983,3.983,0,0,1-.913-2.814,5.08,5.08,0,0,1,.394-2.074,2.739,2.739,0,0,1,1.2-1.333,3.539,3.539,0,0,1,1.746-.444,3.035,3.035,0,0,1,1.949.6,2.763,2.763,0,0,1,.972,1.712l-1.205.186a2,2,0,0,0-.61-1.109,1.577,1.577,0,0,0-1.058-.372,1.926,1.926,0,0,0-1.522.672,3.188,3.188,0,0,0-.585,2.125,3.294,3.294,0,0,0,.564,2.143,1.84,1.84,0,0,0,1.475.668,1.736,1.736,0,0,0,1.219-.448A2.22,2.22,0,0,0,313.778,176.583Z" transform="translate(-7.318 -11.315)"/><path class="cls-7" d="M321.067,176.907l1.281,0.158a3.127,3.127,0,0,1-1.123,1.743,3.8,3.8,0,0,1-4.64-.369,3.863,3.863,0,0,1-.94-2.773,4.044,4.044,0,0,1,.951-2.866,3.218,3.218,0,0,1,2.466-1.02,3.128,3.128,0,0,1,2.4,1,3.969,3.969,0,0,1,.931,2.811c0,0.073,0,.184-0.007.331h-5.457a2.809,2.809,0,0,0,.683,1.846,2.028,2.028,0,0,0,1.529.641,1.9,1.9,0,0,0,1.164-.358A2.381,2.381,0,0,0,321.067,176.907Zm-4.071-2h4.085a2.477,2.477,0,0,0-.468-1.385,1.9,1.9,0,0,0-1.537-.717,1.973,1.973,0,0,0-1.437.572A2.264,2.264,0,0,0,317,174.9Z" transform="translate(-7.318 -11.315)"/><path class="cls-7" d="M57.269,311.974v-1.185l4.278-.007v3.748a7.543,7.543,0,0,1-2.032,1.181,6.027,6.027,0,0,1-2.149.4,5.735,5.735,0,0,1-2.7-.637,4.212,4.212,0,0,1-1.836-1.843,5.8,5.8,0,0,1-.62-2.694,6.25,6.25,0,0,1,.617-2.752,4.1,4.1,0,0,1,1.774-1.9,5.556,5.556,0,0,1,2.666-.62,5.288,5.288,0,0,1,1.981.354,3.291,3.291,0,0,1,1.388.989,4.4,4.4,0,0,1,.765,1.653l-1.206.331a3.736,3.736,0,0,0-.565-1.213,2.32,2.32,0,0,0-.964-0.706,3.541,3.541,0,0,0-1.392-.265,4.1,4.1,0,0,0-1.584.279,2.96,2.96,0,0,0-1.078.734,3.493,3.493,0,0,0-.637,1,5.283,5.283,0,0,0-.386,2.032,4.931,4.931,0,0,0,.465,2.26,2.975,2.975,0,0,0,1.354,1.351,4.191,4.191,0,0,0,1.888.441,4.478,4.478,0,0,0,1.695-.334,4.387,4.387,0,0,0,1.254-.713v-1.881h-2.97Z" transform="translate(-7.318 -11.315)"/><path class="cls-7" d="M63.345,315.936v-7.316h1.116v1.109a3.025,3.025,0,0,1,.789-1.026,1.376,1.376,0,0,1,.8-0.248,2.423,2.423,0,0,1,1.275.4L66.893,310a1.775,1.775,0,0,0-.909-0.269,1.183,1.183,0,0,0-.73.245,1.326,1.326,0,0,0-.461.679,4.818,4.818,0,0,0-.207,1.447v3.831h-1.24Z" transform="translate(-7.318 -11.315)"/><path class="cls-7" d="M72.832,315.033a4.624,4.624,0,0,1-1.326.827,3.837,3.837,0,0,1-1.368.241,2.659,2.659,0,0,1-1.854-.589,1.944,1.944,0,0,1-.647-1.505,2,2,0,0,1,.245-0.981,2.025,2.025,0,0,1,.641-0.713,3.023,3.023,0,0,1,.892-0.406,8.81,8.81,0,0,1,1.1-.186,11.34,11.34,0,0,0,2.211-.427q0.007-.255.007-0.324a1.37,1.37,0,0,0-.351-1.068,2.076,2.076,0,0,0-1.413-.42,2.191,2.191,0,0,0-1.292.307,1.871,1.871,0,0,0-.617,1.085l-1.213-.166a3.009,3.009,0,0,1,.544-1.257,2.384,2.384,0,0,1,1.1-.737,4.88,4.88,0,0,1,1.66-.258,4.393,4.393,0,0,1,1.522.221,2.005,2.005,0,0,1,.861.554,1.958,1.958,0,0,1,.386.844,6.962,6.962,0,0,1,.062,1.144v1.653a17.577,17.577,0,0,0,.079,2.188,2.754,2.754,0,0,0,.313.878H73.08A2.621,2.621,0,0,1,72.832,315.033Zm-0.1-2.77a9.1,9.1,0,0,1-2.025.468,4.7,4.7,0,0,0-1.082.248,1.077,1.077,0,0,0-.489.4,1.1,1.1,0,0,0,.2,1.416,1.618,1.618,0,0,0,1.1.331,2.557,2.557,0,0,0,1.274-.313,1.931,1.931,0,0,0,.82-0.857,3,3,0,0,0,.2-1.24v-0.455Z" transform="translate(-7.318 -11.315)"/><path class="cls-7" d="M75.9,315.936v-7.316h1.116v1.04a2.63,2.63,0,0,1,2.329-1.206,3.05,3.05,0,0,1,1.216.238,1.909,1.909,0,0,1,.83.624,2.392,2.392,0,0,1,.386.916,7.11,7.11,0,0,1,.069,1.206v4.5H80.61v-4.451a3.335,3.335,0,0,0-.145-1.133,1.191,1.191,0,0,0-.513-0.6,1.631,1.631,0,0,0-.865-0.224,2.01,2.01,0,0,0-1.367.5,2.48,2.48,0,0,0-.576,1.908v4H75.9Z" transform="translate(-7.318 -11.315)"/><path class="cls-7" d="M88.5,315.936v-0.923a2.275,2.275,0,0,1-2.046,1.089,2.872,2.872,0,0,1-1.609-.482,3.169,3.169,0,0,1-1.137-1.347,4.659,4.659,0,0,1-.4-1.988,5.209,5.209,0,0,1,.365-1.988,2.881,2.881,0,0,1,1.1-1.367,2.928,2.928,0,0,1,1.633-.476,2.441,2.441,0,0,1,2.019,1.006v-3.624h1.233v10.1H88.5Zm-3.92-3.651a3.177,3.177,0,0,0,.592,2.1,1.785,1.785,0,0,0,1.4.7,1.754,1.754,0,0,0,1.381-.665,3.065,3.065,0,0,0,.568-2.029,3.44,3.44,0,0,0-.579-2.2,1.779,1.779,0,0,0-1.426-.7,1.718,1.718,0,0,0-1.381.675A3.33,3.33,0,0,0,84.579,312.284Z" transform="translate(-7.318 -11.315)"/><path class="cls-7" d="M91.1,313.751l1.226-.193a1.712,1.712,0,0,0,.576,1.13,2.005,2.005,0,0,0,1.319.393,1.939,1.939,0,0,0,1.268-.348,1.04,1.04,0,0,0,.413-0.816,0.753,0.753,0,0,0-.365-0.662,5.4,5.4,0,0,0-1.268-.42,11.576,11.576,0,0,1-1.891-.6,1.806,1.806,0,0,1-1.071-1.677,1.884,1.884,0,0,1,.224-0.906,2.011,2.011,0,0,1,.609-0.692,2.578,2.578,0,0,1,.789-0.362A3.755,3.755,0,0,1,94,308.454a4.23,4.23,0,0,1,1.512.248,2.055,2.055,0,0,1,.961.672,2.619,2.619,0,0,1,.427,1.133l-1.212.165a1.327,1.327,0,0,0-.479-0.882,1.753,1.753,0,0,0-1.12-.317,2.026,2.026,0,0,0-1.219.283,0.822,0.822,0,0,0-.365.661,0.684,0.684,0,0,0,.152.434,1.086,1.086,0,0,0,.475.331q0.186,0.07,1.1.317a15.268,15.268,0,0,1,1.836.576,1.863,1.863,0,0,1,.816.651,1.819,1.819,0,0,1,.3,1.061,2.08,2.08,0,0,1-.361,1.167,2.339,2.339,0,0,1-1.044.848,3.8,3.8,0,0,1-1.543.3,3.439,3.439,0,0,1-2.174-.593A2.754,2.754,0,0,1,91.1,313.751Z" transform="translate(-7.318 -11.315)"/><path class="cls-7" d="M98.191,312.277a3.773,3.773,0,0,1,1.13-3.011,3.405,3.405,0,0,1,2.3-.813,3.282,3.282,0,0,1,2.466.989,3.76,3.76,0,0,1,.958,2.731,4.845,4.845,0,0,1-.423,2.222,3,3,0,0,1-1.233,1.257,3.593,3.593,0,0,1-1.767.448,3.288,3.288,0,0,1-2.483-.985A3.934,3.934,0,0,1,98.191,312.277Zm1.275,0a3.115,3.115,0,0,0,.613,2.1,2.042,2.042,0,0,0,3.08,0,3.19,3.19,0,0,0,.613-2.143,3.021,3.021,0,0,0-.617-2.056,2.044,2.044,0,0,0-3.076,0A3.1,3.1,0,0,0,99.466,312.277Z" transform="translate(-7.318 -11.315)"/><path class="cls-7" d="M106.5,315.936v-7.316h1.116v1.04a2.63,2.63,0,0,1,2.329-1.206,3.05,3.05,0,0,1,1.216.238,1.909,1.909,0,0,1,.83.624,2.392,2.392,0,0,1,.386.916,7.11,7.11,0,0,1,.069,1.206v4.5h-1.24v-4.451a3.335,3.335,0,0,0-.145-1.133,1.191,1.191,0,0,0-.513-0.6,1.631,1.631,0,0,0-.865-0.224,2.01,2.01,0,0,0-1.367.5,2.48,2.48,0,0,0-.576,1.908v4H106.5Z" transform="translate(-7.318 -11.315)"/><path class="cls-7" d="M274.1,311.974v-1.185l4.278-.007v3.748a7.535,7.535,0,0,1-2.032,1.181,6.029,6.029,0,0,1-2.149.4,5.735,5.735,0,0,1-2.7-.637,4.212,4.212,0,0,1-1.836-1.843,5.806,5.806,0,0,1-.62-2.694,6.25,6.25,0,0,1,.616-2.752,4.1,4.1,0,0,1,1.774-1.9,5.556,5.556,0,0,1,2.666-.62,5.283,5.283,0,0,1,1.98.354,3.284,3.284,0,0,1,1.389.989,4.4,4.4,0,0,1,.765,1.653l-1.206.331a3.736,3.736,0,0,0-.564-1.213,2.321,2.321,0,0,0-.965-0.706,3.538,3.538,0,0,0-1.392-.265,4.1,4.1,0,0,0-1.584.279,2.943,2.943,0,0,0-1.078.734,3.5,3.5,0,0,0-.638,1,5.292,5.292,0,0,0-.386,2.032,4.937,4.937,0,0,0,.465,2.26,2.981,2.981,0,0,0,1.354,1.351,4.192,4.192,0,0,0,1.888.441,4.481,4.481,0,0,0,1.7-.334,4.387,4.387,0,0,0,1.254-.713v-1.881H274.1Z" transform="translate(-7.318 -11.315)"/><path class="cls-7" d="M280.172,315.936v-7.316h1.116v1.109a3.031,3.031,0,0,1,.789-1.026,1.375,1.375,0,0,1,.8-0.248,2.42,2.42,0,0,1,1.274.4L283.72,310a1.771,1.771,0,0,0-.909-0.269,1.185,1.185,0,0,0-.73.245,1.325,1.325,0,0,0-.461.679,4.834,4.834,0,0,0-.207,1.447v3.831h-1.24Z" transform="translate(-7.318 -11.315)"/><path class="cls-7" d="M289.894,313.58l1.281,0.158a3.127,3.127,0,0,1-1.123,1.743,3.8,3.8,0,0,1-4.64-.369,3.863,3.863,0,0,1-.94-2.773,4.044,4.044,0,0,1,.951-2.866,3.218,3.218,0,0,1,2.466-1.02,3.128,3.128,0,0,1,2.4,1,3.969,3.969,0,0,1,.931,2.811c0,0.073,0,.184-0.007.331h-5.457a2.809,2.809,0,0,0,.683,1.846,2.028,2.028,0,0,0,1.529.641,1.9,1.9,0,0,0,1.164-.358A2.381,2.381,0,0,0,289.894,313.58Zm-4.071-2h4.085a2.477,2.477,0,0,0-.468-1.385,1.9,1.9,0,0,0-1.537-.717,1.973,1.973,0,0,0-1.437.572A2.264,2.264,0,0,0,285.822,311.575Z" transform="translate(-7.318 -11.315)"/><path class="cls-7" d="M297.506,315.033a4.617,4.617,0,0,1-1.326.827,3.835,3.835,0,0,1-1.367.241,2.659,2.659,0,0,1-1.854-.589,1.944,1.944,0,0,1-.647-1.505,2,2,0,0,1,.244-0.981,2.023,2.023,0,0,1,.642-0.713,3.02,3.02,0,0,1,.892-0.406,8.81,8.81,0,0,1,1.1-.186,11.355,11.355,0,0,0,2.212-.427c0-.17.007-0.278,0.007-0.324a1.368,1.368,0,0,0-.352-1.068,2.076,2.076,0,0,0-1.412-.42,2.19,2.19,0,0,0-1.292.307,1.876,1.876,0,0,0-.617,1.085l-1.212-.166a3,3,0,0,1,.544-1.257,2.389,2.389,0,0,1,1.1-.737,4.882,4.882,0,0,1,1.66-.258,4.393,4.393,0,0,1,1.522.221,2.005,2.005,0,0,1,.861.554,1.953,1.953,0,0,1,.386.844,7.035,7.035,0,0,1,.062,1.144v1.653a17.3,17.3,0,0,0,.08,2.188,2.754,2.754,0,0,0,.313.878h-1.3A2.654,2.654,0,0,1,297.506,315.033Zm-0.1-2.77a9.106,9.106,0,0,1-2.026.468,4.69,4.69,0,0,0-1.081.248,1.072,1.072,0,0,0-.489.4,1.1,1.1,0,0,0,.2,1.416,1.615,1.615,0,0,0,1.1.331,2.557,2.557,0,0,0,1.274-.313,1.932,1.932,0,0,0,.82-0.857,3,3,0,0,0,.2-1.24v-0.455Z" transform="translate(-7.318 -11.315)"/><path class="cls-7" d="M303.286,314.826l0.179,1.1a4.612,4.612,0,0,1-.937.11,2.117,2.117,0,0,1-1.047-.214,1.2,1.2,0,0,1-.524-0.562,4.453,4.453,0,0,1-.151-1.464v-4.209H299.9v-0.964h0.909v-1.812l1.233-.744v2.556h1.247v0.964h-1.247v4.278a2.153,2.153,0,0,0,.065.682,0.519,0.519,0,0,0,.214.241,0.825,0.825,0,0,0,.424.089A4.029,4.029,0,0,0,303.286,314.826Z" transform="translate(-7.318 -11.315)"/><path class="cls-7" d="M308.564,315.936v-10.1h1.37l5.306,7.93v-7.93h1.281v10.1H315.15l-5.3-7.937v7.937h-1.281Z" transform="translate(-7.318 -11.315)"/><path class="cls-7" d="M318.615,307.262v-1.426h1.24v1.426h-1.24Zm0,8.674v-7.316h1.24v7.316h-1.24Z" transform="translate(-7.318 -11.315)"/><path class="cls-7" d="M326.751,313.58l1.281,0.158a3.127,3.127,0,0,1-1.123,1.743,3.8,3.8,0,0,1-4.64-.369,3.863,3.863,0,0,1-.94-2.773,4.044,4.044,0,0,1,.951-2.866,3.218,3.218,0,0,1,2.466-1.02,3.128,3.128,0,0,1,2.4,1,3.969,3.969,0,0,1,.931,2.811c0,0.073,0,.184-0.007.331H322.61a2.809,2.809,0,0,0,.683,1.846,2.028,2.028,0,0,0,1.529.641,1.9,1.9,0,0,0,1.164-.358A2.381,2.381,0,0,0,326.751,313.58Zm-4.071-2h4.085a2.477,2.477,0,0,0-.468-1.385,1.9,1.9,0,0,0-1.537-.717,1.973,1.973,0,0,0-1.437.572A2.264,2.264,0,0,0,322.68,311.575Z" transform="translate(-7.318 -11.315)"/><path class="cls-7" d="M334.364,313.255l1.22,0.159a3.161,3.161,0,0,1-1.023,1.974,2.979,2.979,0,0,1-2.021.713,3.142,3.142,0,0,1-2.415-.982,3.983,3.983,0,0,1-.913-2.814,5.08,5.08,0,0,1,.394-2.074,2.739,2.739,0,0,1,1.2-1.333,3.539,3.539,0,0,1,1.746-.444,3.035,3.035,0,0,1,1.949.6,2.763,2.763,0,0,1,.972,1.712l-1.205.186a2,2,0,0,0-.61-1.109,1.577,1.577,0,0,0-1.058-.372,1.926,1.926,0,0,0-1.522.672,3.188,3.188,0,0,0-.585,2.125,3.294,3.294,0,0,0,.564,2.143,1.84,1.84,0,0,0,1.475.668,1.736,1.736,0,0,0,1.219-.448A2.22,2.22,0,0,0,334.364,313.255Z" transform="translate(-7.318 -11.315)"/><path class="cls-7" d="M341.653,313.58l1.281,0.158a3.127,3.127,0,0,1-1.123,1.743,3.8,3.8,0,0,1-4.64-.369,3.863,3.863,0,0,1-.94-2.773,4.044,4.044,0,0,1,.951-2.866,3.218,3.218,0,0,1,2.466-1.02,3.128,3.128,0,0,1,2.4,1,3.969,3.969,0,0,1,.931,2.811c0,0.073,0,.184-0.007.331h-5.457a2.809,2.809,0,0,0,.683,1.846,2.028,2.028,0,0,0,1.529.641,1.9,1.9,0,0,0,1.164-.358A2.381,2.381,0,0,0,341.653,313.58Zm-4.071-2h4.085a2.477,2.477,0,0,0-.468-1.385,1.9,1.9,0,0,0-1.537-.717,1.973,1.973,0,0,0-1.437.572A2.264,2.264,0,0,0,337.582,311.575Z" transform="translate(-7.318 -11.315)"/><polygon class="cls-6" points="74.397 131.37 92.179 113.174 56.436 113.351 74.397 131.37"/><line class="cls-8" x1="74.075" y1="46.544" x2="74.075" y2="113.174"/><line class="cls-9" x1="126.393" y1="46.51" x2="213.358" y2="258.099"/><polygon class="cls-10" points="220.216 274.996 196.469 265.866 229.034 251.131 220.216 274.996"/><polygon class="cls-6" points="74.534 269.327 92.316 251.131 56.573 251.308 74.534 269.327"/><line class="cls-8" x1="74.212" y1="184.5" x2="74.212" y2="251.131"/></svg>