<svg id="Layer_1" data-name="Layer 1" xmlns="http://www.w3.org/2000/svg" viewBox="0 0 476.282 127.011"><defs><style>.cls-1{fill:#fcc830;}.cls-2{fill:#075ea4;}.cls-3{fill:#db1f26;}.cls-4{fill:#fff;}.cls-5{fill:#af6f29;}.cls-6,.cls-7{fill:none;stroke-miterlimit:10;}.cls-6{stroke:#af6f29;}.cls-7{stroke:#231f20;}</style></defs><title>Primary_Structure_Policy_Provisions_Individual_Disability_Income_Policy</title><rect class="cls-1" y="20.854" width="110.897" height="39.744"/><rect class="cls-2" x="110.897" y="20.854" width="222.4" height="39.744"/><rect class="cls-3" x="333.298" y="20.854" width="110.897" height="39.744"/><polygon class="cls-3" points="444.195 0 476.282 43.301 444.195 86.603 444.195 0"/><path class="cls-4" d="M177.686,50.492V40.47h7.246v1.183h-5.92v3.069h5.544V45.9h-5.544v3.411h6.152v1.183Z" transform="translate(-10.897 -5.275)"/><path class="cls-4" d="M186.812,50.492V40.47h1.23V50.492Z" transform="translate(-10.897 -5.275)"/><path class="cls-4" d="M189.957,41.885V40.47h1.23v1.415Zm0,8.606v-7.26h1.23v7.26Z" transform="translate(-10.897 -5.275)"/><path class="cls-4" d="M193.06,50.492v-7.26h1.1V44.25a2.586,2.586,0,0,1,.909-.858,2.557,2.557,0,0,1,1.292-.325,2.39,2.39,0,0,1,1.323.335,1.791,1.791,0,0,1,.728.937,2.607,2.607,0,0,1,2.242-1.271,2.21,2.21,0,0,1,1.661.6,2.555,2.555,0,0,1,.581,1.842v4.983h-1.224V45.918a3.354,3.354,0,0,0-.12-1.063,1.025,1.025,0,0,0-.434-.523,1.353,1.353,0,0,0-.738-.2,1.719,1.719,0,0,0-1.271.509,2.242,2.242,0,0,0-.506,1.63v4.218h-1.23V45.775a2.074,2.074,0,0,0-.3-1.23,1.139,1.139,0,0,0-.984-.41,1.79,1.79,0,0,0-.96.273,1.551,1.551,0,0,0-.639.8,4.5,4.5,0,0,0-.2,1.518v3.767Z" transform="translate(-10.897 -5.275)"/><path class="cls-4" d="M204.729,41.885V40.47h1.23v1.415Zm0,8.606v-7.26h1.23v7.26Z" transform="translate(-10.897 -5.275)"/><path class="cls-4" d="M207.833,50.492v-7.26h1.107v1.032a2.61,2.61,0,0,1,2.311-1.2,3.026,3.026,0,0,1,1.206.236,1.9,1.9,0,0,1,.824.619,2.375,2.375,0,0,1,.383.909,7.011,7.011,0,0,1,.068,1.2v4.464H212.5V46.076a3.315,3.315,0,0,0-.144-1.125,1.184,1.184,0,0,0-.509-.595,1.624,1.624,0,0,0-.858-.222,1.991,1.991,0,0,0-1.356.5,2.46,2.46,0,0,0-.571,1.894v3.965Z" transform="translate(-10.897 -5.275)"/><path class="cls-4" d="M220.356,49.6a4.591,4.591,0,0,1-1.316.82,3.792,3.792,0,0,1-1.356.239,2.639,2.639,0,0,1-1.839-.584,1.928,1.928,0,0,1-.643-1.494,2.019,2.019,0,0,1,.879-1.682,2.987,2.987,0,0,1,.885-.4,8.731,8.731,0,0,1,1.094-.185,11.27,11.27,0,0,0,2.194-.424c0-.168.007-.276.007-.321a1.358,1.358,0,0,0-.349-1.06,2.06,2.06,0,0,0-1.4-.417,2.171,2.171,0,0,0-1.281.3,1.853,1.853,0,0,0-.612,1.077l-1.2-.164a2.977,2.977,0,0,1,.54-1.248,2.369,2.369,0,0,1,1.087-.731,4.848,4.848,0,0,1,1.647-.256,4.357,4.357,0,0,1,1.511.219,1.991,1.991,0,0,1,.854.55,1.935,1.935,0,0,1,.383.837,6.927,6.927,0,0,1,.062,1.135V47.45a17.307,17.307,0,0,0,.079,2.17,2.711,2.711,0,0,0,.311.872H220.6A2.6,2.6,0,0,1,220.356,49.6Zm-.1-2.748a9.018,9.018,0,0,1-2.01.465,4.636,4.636,0,0,0-1.073.246,1.072,1.072,0,0,0-.485.4,1.087,1.087,0,0,0,.2,1.4,1.6,1.6,0,0,0,1.09.328,2.537,2.537,0,0,0,1.265-.311,1.915,1.915,0,0,0,.813-.851,2.977,2.977,0,0,0,.2-1.23Z" transform="translate(-10.897 -5.275)"/><path class="cls-4" d="M226.091,49.391l.178,1.087a4.578,4.578,0,0,1-.93.109,2.107,2.107,0,0,1-1.039-.212,1.188,1.188,0,0,1-.52-.557,4.4,4.4,0,0,1-.15-1.453V44.189h-.9v-.957h.9v-1.8l1.224-.738v2.536h1.237v.957h-1.237v4.245a2.118,2.118,0,0,0,.065.677.51.51,0,0,0,.211.239.823.823,0,0,0,.421.089A4.034,4.034,0,0,0,226.091,49.391Z" transform="translate(-10.897 -5.275)"/><path class="cls-4" d="M227.3,41.885V40.47h1.23v1.415Zm0,8.606v-7.26h1.23v7.26Z" transform="translate(-10.897 -5.275)"/><path class="cls-4" d="M229.947,46.862a3.743,3.743,0,0,1,1.121-2.987,3.379,3.379,0,0,1,2.283-.807,3.257,3.257,0,0,1,2.447.981,3.731,3.731,0,0,1,.95,2.71,4.79,4.79,0,0,1-.421,2.2,2.97,2.97,0,0,1-1.223,1.248,3.56,3.56,0,0,1-1.753.444,3.264,3.264,0,0,1-2.465-.978A3.907,3.907,0,0,1,229.947,46.862Zm1.265,0a3.094,3.094,0,0,0,.608,2.088,2.026,2.026,0,0,0,3.056,0,3.17,3.17,0,0,0,.608-2.126,3,3,0,0,0-.611-2.041,2.029,2.029,0,0,0-3.053,0A3.08,3.08,0,0,0,231.211,46.862Z" transform="translate(-10.897 -5.275)"/><path class="cls-4" d="M238.19,50.492v-7.26H239.3v1.032a2.61,2.61,0,0,1,2.311-1.2,3.026,3.026,0,0,1,1.206.236,1.9,1.9,0,0,1,.824.619,2.375,2.375,0,0,1,.383.909,7.011,7.011,0,0,1,.068,1.2v4.464h-1.23V46.076a3.315,3.315,0,0,0-.144-1.125,1.184,1.184,0,0,0-.509-.595,1.624,1.624,0,0,0-.858-.222,1.991,1.991,0,0,0-1.356.5,2.46,2.46,0,0,0-.571,1.894v3.965Z" transform="translate(-10.897 -5.275)"/><path class="cls-4" d="M250.023,50.492V40.47h3.78a9.11,9.11,0,0,1,1.524.1,3.024,3.024,0,0,1,1.237.468,2.458,2.458,0,0,1,.8.967,3.264,3.264,0,0,1-.51,3.531,3.9,3.9,0,0,1-2.939.885h-2.57v4.074Zm1.326-5.257h2.591a2.75,2.75,0,0,0,1.825-.479,1.7,1.7,0,0,0,.54-1.347,1.817,1.817,0,0,0-.317-1.077,1.49,1.49,0,0,0-.838-.591,5.679,5.679,0,0,0-1.237-.089H251.35Z" transform="translate(-10.897 -5.275)"/><path class="cls-4" d="M264.174,48.154l1.271.157a3.1,3.1,0,0,1-1.114,1.729,3.776,3.776,0,0,1-4.6-.366,3.837,3.837,0,0,1-.933-2.751,4.011,4.011,0,0,1,.943-2.844,3.193,3.193,0,0,1,2.447-1.012,3.1,3.1,0,0,1,2.379.991,3.938,3.938,0,0,1,.923,2.789c0,.073,0,.182-.007.328h-5.414a2.793,2.793,0,0,0,.677,1.832,2.013,2.013,0,0,0,1.518.636,1.885,1.885,0,0,0,1.155-.355A2.354,2.354,0,0,0,264.174,48.154Zm-4.04-1.989h4.054a2.461,2.461,0,0,0-.465-1.374,1.885,1.885,0,0,0-1.524-.711,1.952,1.952,0,0,0-1.425.567A2.244,2.244,0,0,0,260.134,46.165Z" transform="translate(-10.897 -5.275)"/><path class="cls-4" d="M266.977,50.492v-7.26h1.107v1.1a3.01,3.01,0,0,1,.782-1.019,1.37,1.37,0,0,1,.79-.246,2.4,2.4,0,0,1,1.265.4l-.424,1.142a1.761,1.761,0,0,0-.9-.267,1.173,1.173,0,0,0-.725.243,1.314,1.314,0,0,0-.458.673,4.793,4.793,0,0,0-.205,1.436v3.8Z" transform="translate(-10.897 -5.275)"/><path class="cls-4" d="M271.659,41.885V40.47h1.23v1.415Zm0,8.606v-7.26h1.23v7.26Z" transform="translate(-10.897 -5.275)"/><path class="cls-4" d="M274.3,46.862a3.743,3.743,0,0,1,1.121-2.987,3.379,3.379,0,0,1,2.283-.807,3.258,3.258,0,0,1,2.447.981,3.731,3.731,0,0,1,.95,2.71,4.79,4.79,0,0,1-.421,2.2,2.97,2.97,0,0,1-1.223,1.248,3.563,3.563,0,0,1-1.754.444,3.264,3.264,0,0,1-2.465-.978A3.907,3.907,0,0,1,274.3,46.862Zm1.265,0a3.094,3.094,0,0,0,.608,2.088,2.026,2.026,0,0,0,3.056,0,3.167,3.167,0,0,0,.608-2.126,3,3,0,0,0-.611-2.041,2.029,2.029,0,0,0-3.053,0A3.08,3.08,0,0,0,275.569,46.862Z" transform="translate(-10.897 -5.275)"/><path class="cls-4" d="M287.259,50.492v-.916a2.257,2.257,0,0,1-2.03,1.08,2.851,2.851,0,0,1-1.6-.479,3.145,3.145,0,0,1-1.127-1.336,4.6,4.6,0,0,1-.4-1.972,5.169,5.169,0,0,1,.362-1.972,2.853,2.853,0,0,1,1.087-1.357,2.907,2.907,0,0,1,1.62-.472,2.421,2.421,0,0,1,2,1v-3.6H288.4V50.492Zm-3.89-3.623a3.155,3.155,0,0,0,.588,2.085,1.772,1.772,0,0,0,1.388.69,1.742,1.742,0,0,0,1.371-.66,3.047,3.047,0,0,0,.563-2.013,3.414,3.414,0,0,0-.574-2.187,1.766,1.766,0,0,0-1.415-.7,1.706,1.706,0,0,0-1.371.67A3.311,3.311,0,0,0,283.369,46.869Z" transform="translate(-10.897 -5.275)"/><path class="cls-5" d="M94.868,95.739V85.718H98.32a8.374,8.374,0,0,1,1.784.144,3.4,3.4,0,0,1,1.47.718,4.079,4.079,0,0,1,1.186,1.712,6.718,6.718,0,0,1,.393,2.382,7,7,0,0,1-.267,2.023,4.915,4.915,0,0,1-.684,1.459,3.626,3.626,0,0,1-.913.909,3.712,3.712,0,0,1-1.2.5,6.838,6.838,0,0,1-1.61.171Zm1.326-1.183h2.14a5.193,5.193,0,0,0,1.555-.185,2.226,2.226,0,0,0,.9-.52,3.16,3.16,0,0,0,.735-1.268,6.2,6.2,0,0,0,.263-1.931,4.662,4.662,0,0,0-.516-2.417,2.6,2.6,0,0,0-1.254-1.131A5.184,5.184,0,0,0,98.3,86.9H96.194Z" transform="translate(-10.897 -5.275)"/><path class="cls-5" d="M104.828,87.133V85.718h1.23v1.415Zm0,8.606v-7.26h1.23v7.26Z" transform="translate(-10.897 -5.275)"/><path class="cls-5" d="M107.439,93.572l1.217-.191a1.7,1.7,0,0,0,.571,1.121,1.989,1.989,0,0,0,1.309.39,1.924,1.924,0,0,0,1.258-.345,1.032,1.032,0,0,0,.41-.81.747.747,0,0,0-.362-.656,5.326,5.326,0,0,0-1.258-.417,11.478,11.478,0,0,1-1.876-.591,1.791,1.791,0,0,1-1.063-1.665,1.872,1.872,0,0,1,.222-.9,1.986,1.986,0,0,1,.6-.687,2.542,2.542,0,0,1,.783-.359,3.716,3.716,0,0,1,1.063-.147,4.2,4.2,0,0,1,1.5.246,2.041,2.041,0,0,1,.954.667,2.607,2.607,0,0,1,.424,1.125l-1.2.164a1.315,1.315,0,0,0-.475-.875,1.739,1.739,0,0,0-1.111-.314,2.011,2.011,0,0,0-1.21.28.816.816,0,0,0-.362.656.68.68,0,0,0,.15.431,1.08,1.08,0,0,0,.472.328q.185.068,1.087.314a15.161,15.161,0,0,1,1.822.571,1.844,1.844,0,0,1,.81.646,1.8,1.8,0,0,1,.294,1.053,2.066,2.066,0,0,1-.359,1.159,2.32,2.32,0,0,1-1.036.841,3.769,3.769,0,0,1-1.531.3,3.41,3.41,0,0,1-2.157-.588A2.734,2.734,0,0,1,107.439,93.572Z" transform="translate(-10.897 -5.275)"/><path class="cls-5" d="M119.669,94.844a4.589,4.589,0,0,1-1.316.82A3.8,3.8,0,0,1,117,95.9a2.639,2.639,0,0,1-1.839-.584,1.93,1.93,0,0,1-.643-1.494,2.024,2.024,0,0,1,.878-1.682,3,3,0,0,1,.885-.4,8.731,8.731,0,0,1,1.094-.185,11.254,11.254,0,0,0,2.194-.424c0-.168.007-.276.007-.321a1.358,1.358,0,0,0-.349-1.06,2.06,2.06,0,0,0-1.4-.417,2.175,2.175,0,0,0-1.282.3,1.858,1.858,0,0,0-.612,1.077l-1.2-.164a2.983,2.983,0,0,1,.54-1.248,2.364,2.364,0,0,1,1.087-.731A4.848,4.848,0,0,1,118,88.315a4.357,4.357,0,0,1,1.511.219,1.991,1.991,0,0,1,.854.55,1.935,1.935,0,0,1,.383.837,6.927,6.927,0,0,1,.062,1.135V92.7a17.448,17.448,0,0,0,.079,2.17,2.735,2.735,0,0,0,.311.872h-1.285A2.617,2.617,0,0,1,119.669,94.844Zm-.1-2.748a9.032,9.032,0,0,1-2.01.465,4.629,4.629,0,0,0-1.073.246,1.072,1.072,0,0,0-.485.4,1.088,1.088,0,0,0,.2,1.4,1.6,1.6,0,0,0,1.09.328,2.535,2.535,0,0,0,1.265-.311,1.918,1.918,0,0,0,.813-.851,2.969,2.969,0,0,0,.2-1.23Z" transform="translate(-10.897 -5.275)"/><path class="cls-5" d="M123.853,95.739h-1.142V85.718h1.23v3.575a2.434,2.434,0,0,1,1.989-.978,3.044,3.044,0,0,1,1.268.27,2.59,2.59,0,0,1,.984.759,3.671,3.671,0,0,1,.6,1.179A4.858,4.858,0,0,1,129.007,92a4.147,4.147,0,0,1-.923,2.885,2.886,2.886,0,0,1-2.215,1.019,2.312,2.312,0,0,1-2.017-1.073Zm-.014-3.685a3.769,3.769,0,0,0,.355,1.887,1.759,1.759,0,0,0,2.967.25,3.183,3.183,0,0,0,.588-2.088,3.239,3.239,0,0,0-.564-2.1,1.717,1.717,0,0,0-1.364-.677,1.77,1.77,0,0,0-1.395.7A3.075,3.075,0,0,0,123.839,92.055Z" transform="translate(-10.897 -5.275)"/><path class="cls-5" d="M130.511,87.133V85.718h1.23v1.415Zm0,8.606v-7.26h1.23v7.26Z" transform="translate(-10.897 -5.275)"/><path class="cls-5" d="M133.587,95.739V85.718h1.23V95.739Z" transform="translate(-10.897 -5.275)"/><path class="cls-5" d="M136.731,87.133V85.718h1.23v1.415Zm0,8.606v-7.26h1.23v7.26Z" transform="translate(-10.897 -5.275)"/><path class="cls-5" d="M142.521,94.639l.178,1.087a4.574,4.574,0,0,1-.93.109,2.106,2.106,0,0,1-1.039-.212,1.186,1.186,0,0,1-.52-.557,4.41,4.41,0,0,1-.15-1.453V89.437h-.9v-.957h.9v-1.8l1.224-.738v2.536h1.237v.957h-1.237v4.245a2.138,2.138,0,0,0,.065.677.512.512,0,0,0,.212.239.821.821,0,0,0,.42.089A4.028,4.028,0,0,0,142.521,94.639Z" transform="translate(-10.897 -5.275)"/><path class="cls-5" d="M143.67,98.535l-.137-1.155a2.749,2.749,0,0,0,.7.109,1.349,1.349,0,0,0,.656-.137,1.12,1.12,0,0,0,.4-.383,6.028,6.028,0,0,0,.376-.916c.023-.068.059-.168.109-.3l-2.755-7.273h1.326l1.511,4.2q.294.8.526,1.682a16.556,16.556,0,0,1,.506-1.654l1.552-4.231h1.23l-2.762,7.383a14.536,14.536,0,0,1-.69,1.647,2.426,2.426,0,0,1-.752.892,1.777,1.777,0,0,1-1.012.284A2.469,2.469,0,0,1,143.67,98.535Z" transform="translate(-10.897 -5.275)"/><path class="cls-5" d="M101.643,108.909a3.741,3.741,0,0,1,1.121-2.987,3.379,3.379,0,0,1,2.283-.807,3.258,3.258,0,0,1,2.447.981,3.733,3.733,0,0,1,.95,2.71,4.8,4.8,0,0,1-.42,2.2,2.975,2.975,0,0,1-1.224,1.248,3.562,3.562,0,0,1-1.753.444,3.263,3.263,0,0,1-2.464-.978A3.905,3.905,0,0,1,101.643,108.909Zm1.265,0a3.091,3.091,0,0,0,.608,2.088,2.026,2.026,0,0,0,3.056,0,3.164,3.164,0,0,0,.608-2.126,3,3,0,0,0-.612-2.041,2.029,2.029,0,0,0-3.052,0A3.078,3.078,0,0,0,102.907,108.909Z" transform="translate(-10.897 -5.275)"/><path class="cls-5" d="M114.624,109.88l1.21.157A3.14,3.14,0,0,1,114.819,112a2.957,2.957,0,0,1-2.006.708,3.117,3.117,0,0,1-2.4-.974,3.951,3.951,0,0,1-.906-2.792,5.054,5.054,0,0,1,.39-2.058,2.718,2.718,0,0,1,1.186-1.323,3.518,3.518,0,0,1,1.733-.441,3.012,3.012,0,0,1,1.935.6,2.741,2.741,0,0,1,.964,1.7l-1.2.185a1.984,1.984,0,0,0-.6-1.1,1.566,1.566,0,0,0-1.049-.369,1.91,1.91,0,0,0-1.511.667,3.165,3.165,0,0,0-.581,2.109,3.272,3.272,0,0,0,.561,2.126,1.824,1.824,0,0,0,1.463.663,1.724,1.724,0,0,0,1.21-.444A2.2,2.2,0,0,0,114.624,109.88Z" transform="translate(-10.897 -5.275)"/><path class="cls-5" d="M121.624,109.88l1.21.157A3.14,3.14,0,0,1,121.819,112a2.957,2.957,0,0,1-2.006.708,3.117,3.117,0,0,1-2.4-.974,3.951,3.951,0,0,1-.906-2.792,5.054,5.054,0,0,1,.39-2.058,2.718,2.718,0,0,1,1.186-1.323,3.518,3.518,0,0,1,1.733-.441,3.012,3.012,0,0,1,1.935.6,2.741,2.741,0,0,1,.964,1.7l-1.2.185a1.984,1.984,0,0,0-.6-1.1,1.566,1.566,0,0,0-1.049-.369,1.91,1.91,0,0,0-1.511.667,3.165,3.165,0,0,0-.581,2.109,3.272,3.272,0,0,0,.561,2.126,1.824,1.824,0,0,0,1.463.663,1.724,1.724,0,0,0,1.21-.444A2.2,2.2,0,0,0,121.624,109.88Z" transform="translate(-10.897 -5.275)"/><path class="cls-5" d="M128.645,112.539v-1.066a2.657,2.657,0,0,1-2.3,1.23,2.937,2.937,0,0,1-1.2-.246,1.975,1.975,0,0,1-.827-.619,2.316,2.316,0,0,1-.379-.913,6.236,6.236,0,0,1-.075-1.148v-4.5h1.23v4.026a7.158,7.158,0,0,0,.075,1.3,1.284,1.284,0,0,0,.492.762,1.525,1.525,0,0,0,.93.277,2.027,2.027,0,0,0,1.039-.284,1.576,1.576,0,0,0,.687-.772,3.88,3.88,0,0,0,.2-1.418v-3.89h1.23v7.26Z" transform="translate(-10.897 -5.275)"/><path class="cls-5" d="M131.659,112.539v-7.26h1.107v1.1a3,3,0,0,1,.783-1.019,1.366,1.366,0,0,1,.79-.246,2.4,2.4,0,0,1,1.265.4l-.424,1.142a1.761,1.761,0,0,0-.9-.267,1.173,1.173,0,0,0-.725.243,1.314,1.314,0,0,0-.458.673,4.793,4.793,0,0,0-.205,1.436v3.8Z" transform="translate(-10.897 -5.275)"/><path class="cls-5" d="M135.843,110.372l1.217-.191a1.7,1.7,0,0,0,.571,1.121,1.989,1.989,0,0,0,1.309.39,1.924,1.924,0,0,0,1.258-.345,1.032,1.032,0,0,0,.41-.81.747.747,0,0,0-.362-.656,5.326,5.326,0,0,0-1.258-.417,11.478,11.478,0,0,1-1.876-.591,1.791,1.791,0,0,1-1.063-1.665,1.872,1.872,0,0,1,.222-.9,1.986,1.986,0,0,1,.6-.687,2.542,2.542,0,0,1,.783-.359,3.716,3.716,0,0,1,1.063-.147,4.2,4.2,0,0,1,1.5.246,2.041,2.041,0,0,1,.954.667,2.607,2.607,0,0,1,.424,1.125l-1.2.164a1.315,1.315,0,0,0-.475-.875,1.739,1.739,0,0,0-1.111-.314,2.011,2.011,0,0,0-1.21.28.816.816,0,0,0-.362.656.68.68,0,0,0,.15.431,1.08,1.08,0,0,0,.472.328q.185.068,1.087.314a15.161,15.161,0,0,1,1.822.571,1.844,1.844,0,0,1,.81.646,1.8,1.8,0,0,1,.294,1.053,2.066,2.066,0,0,1-.359,1.159,2.32,2.32,0,0,1-1.036.841,3.769,3.769,0,0,1-1.531.3,3.41,3.41,0,0,1-2.157-.588A2.734,2.734,0,0,1,135.843,110.372Z" transform="translate(-10.897 -5.275)"/><path d="M323.428,95.739V85.717h3.76a4.652,4.652,0,0,1,1.842.3,2.366,2.366,0,0,1,1.087.937,2.463,2.463,0,0,1,.394,1.323,2.273,2.273,0,0,1-.349,1.21,2.492,2.492,0,0,1-1.053.916,2.617,2.617,0,0,1,1.4.909A2.433,2.433,0,0,1,331,92.833a2.928,2.928,0,0,1-.3,1.309,2.54,2.54,0,0,1-.734.933,3.07,3.07,0,0,1-1.1.5,6.661,6.661,0,0,1-1.616.167Zm1.326-5.811h2.167a4.832,4.832,0,0,0,1.265-.116,1.4,1.4,0,0,0,.762-.5,1.437,1.437,0,0,0,.257-.875,1.615,1.615,0,0,0-.239-.878,1.213,1.213,0,0,0-.684-.52,5.721,5.721,0,0,0-1.524-.14h-2Zm0,4.628h2.5a5.775,5.775,0,0,0,.9-.048,2.17,2.17,0,0,0,.766-.273,1.457,1.457,0,0,0,.506-.557,1.747,1.747,0,0,0,.2-.844,1.666,1.666,0,0,0-.287-.974,1.514,1.514,0,0,0-.8-.581,4.927,4.927,0,0,0-1.466-.167h-2.317Z" transform="translate(-10.897 -5.275)"/><path d="M337.633,93.4l1.271.157a3.108,3.108,0,0,1-1.114,1.729,3.776,3.776,0,0,1-4.6-.366,3.833,3.833,0,0,1-.933-2.751,4.011,4.011,0,0,1,.943-2.844,3.193,3.193,0,0,1,2.447-1.012,3.1,3.1,0,0,1,2.379.991,3.938,3.938,0,0,1,.923,2.789c0,.073,0,.182-.007.328h-5.414a2.783,2.783,0,0,0,.677,1.832,2.013,2.013,0,0,0,1.518.636,1.885,1.885,0,0,0,1.155-.355A2.368,2.368,0,0,0,337.633,93.4Zm-4.04-1.989h4.054a2.461,2.461,0,0,0-.465-1.374,1.887,1.887,0,0,0-1.524-.711,1.956,1.956,0,0,0-1.426.567A2.247,2.247,0,0,0,333.593,91.412Z" transform="translate(-10.897 -5.275)"/><path d="M340.449,95.739v-7.26h1.107v1.032a2.609,2.609,0,0,1,2.311-1.2,3.026,3.026,0,0,1,1.206.236,1.9,1.9,0,0,1,.824.619,2.39,2.39,0,0,1,.383.909,7.117,7.117,0,0,1,.068,1.2v4.464h-1.23V91.323a3.315,3.315,0,0,0-.144-1.125,1.181,1.181,0,0,0-.51-.595,1.618,1.618,0,0,0-.857-.222,2,2,0,0,0-1.357.5,2.464,2.464,0,0,0-.57,1.894v3.965Z" transform="translate(-10.897 -5.275)"/><path d="M353.205,93.4l1.271.157a3.108,3.108,0,0,1-1.114,1.729,3.776,3.776,0,0,1-4.6-.366,3.833,3.833,0,0,1-.933-2.751,4.011,4.011,0,0,1,.943-2.844,3.193,3.193,0,0,1,2.447-1.012,3.1,3.1,0,0,1,2.379.991,3.938,3.938,0,0,1,.923,2.789c0,.073,0,.182-.007.328H349.1a2.783,2.783,0,0,0,.677,1.832,2.013,2.013,0,0,0,1.518.636,1.885,1.885,0,0,0,1.155-.355A2.368,2.368,0,0,0,353.205,93.4Zm-4.04-1.989h4.054a2.461,2.461,0,0,0-.465-1.374,1.887,1.887,0,0,0-1.524-.711,1.956,1.956,0,0,0-1.426.567A2.247,2.247,0,0,0,349.165,91.412Z" transform="translate(-10.897 -5.275)"/><path d="M356.315,95.739v-6.3h-1.087v-.957h1.087v-.772a3.372,3.372,0,0,1,.13-1.087,1.575,1.575,0,0,1,.625-.776,2.256,2.256,0,0,1,1.255-.3,6.034,6.034,0,0,1,1.148.123l-.185,1.073a4.153,4.153,0,0,0-.725-.068,1.076,1.076,0,0,0-.793.239,1.3,1.3,0,0,0-.232.9v.67h1.415v.957h-1.415v6.3Z" transform="translate(-10.897 -5.275)"/><path d="M359.918,87.132V85.717h1.23v1.415Zm0,8.606v-7.26h1.23v7.26Z" transform="translate(-10.897 -5.275)"/><path d="M365.708,94.638l.178,1.087a4.578,4.578,0,0,1-.93.109,2.1,2.1,0,0,1-1.039-.212,1.183,1.183,0,0,1-.52-.557,4.4,4.4,0,0,1-.15-1.453V89.436h-.9v-.957h.9v-1.8l1.224-.738v2.536h1.237v.957h-1.237v4.245a2.158,2.158,0,0,0,.064.677.518.518,0,0,0,.212.239.823.823,0,0,0,.421.089A4.034,4.034,0,0,0,365.708,94.638Z" transform="translate(-10.897 -5.275)"/><path d="M314.151,112.539V102.517h3.78a9.118,9.118,0,0,1,1.524.1,3.024,3.024,0,0,1,1.237.468,2.456,2.456,0,0,1,.8.967,3.26,3.26,0,0,1-.509,3.531,3.9,3.9,0,0,1-2.939.885h-2.57v4.074Zm1.326-5.257h2.591a2.75,2.75,0,0,0,1.825-.479,1.707,1.707,0,0,0,.54-1.347,1.811,1.811,0,0,0-.318-1.077,1.488,1.488,0,0,0-.837-.591,5.679,5.679,0,0,0-1.237-.089h-2.563Z" transform="translate(-10.897 -5.275)"/><path d="M328.069,111.643a4.591,4.591,0,0,1-1.316.82,3.8,3.8,0,0,1-1.356.239,2.638,2.638,0,0,1-1.839-.584,1.928,1.928,0,0,1-.643-1.494,1.993,1.993,0,0,1,.242-.974,2.015,2.015,0,0,1,.636-.708,3,3,0,0,1,.886-.4,8.7,8.7,0,0,1,1.094-.185,11.27,11.27,0,0,0,2.194-.424c0-.168.007-.276.007-.321a1.358,1.358,0,0,0-.349-1.06,2.061,2.061,0,0,0-1.4-.417,2.177,2.177,0,0,0-1.282.3,1.857,1.857,0,0,0-.611,1.077l-1.2-.164a2.977,2.977,0,0,1,.54-1.248,2.359,2.359,0,0,1,1.087-.731,4.844,4.844,0,0,1,1.647-.256,4.36,4.36,0,0,1,1.511.219,2,2,0,0,1,.854.55,1.947,1.947,0,0,1,.383.837,6.927,6.927,0,0,1,.062,1.135V109.5a17.591,17.591,0,0,0,.078,2.17,2.737,2.737,0,0,0,.312.872h-1.285A2.6,2.6,0,0,1,328.069,111.643Zm-.1-2.748a9.046,9.046,0,0,1-2.01.465,4.623,4.623,0,0,0-1.073.246,1.067,1.067,0,0,0-.485.4,1.088,1.088,0,0,0,.2,1.4,1.605,1.605,0,0,0,1.091.328,2.537,2.537,0,0,0,1.265-.311,1.92,1.92,0,0,0,.813-.851,2.977,2.977,0,0,0,.2-1.23Z" transform="translate(-10.897 -5.275)"/><path d="M331.063,115.334l-.137-1.155a2.743,2.743,0,0,0,.7.109,1.349,1.349,0,0,0,.656-.137,1.124,1.124,0,0,0,.4-.383,6.138,6.138,0,0,0,.376-.916c.022-.068.059-.168.109-.3l-2.755-7.273h1.326l1.511,4.2q.293.8.526,1.682a16.3,16.3,0,0,1,.506-1.654l1.552-4.231h1.23l-2.762,7.383a14.629,14.629,0,0,1-.69,1.647,2.43,2.43,0,0,1-.752.892,1.78,1.78,0,0,1-1.012.284A2.464,2.464,0,0,1,331.063,115.334Z" transform="translate(-10.897 -5.275)"/><path d="M338.118,112.539v-7.26h1.1V106.3a2.558,2.558,0,0,1,2.2-1.183,2.389,2.389,0,0,1,1.322.335,1.792,1.792,0,0,1,.729.937,2.606,2.606,0,0,1,2.242-1.271,2.21,2.21,0,0,1,1.661.6,2.559,2.559,0,0,1,.581,1.842v4.983h-1.224v-4.573a3.354,3.354,0,0,0-.12-1.063,1.03,1.03,0,0,0-.434-.523,1.355,1.355,0,0,0-.738-.2,1.718,1.718,0,0,0-1.271.509,2.24,2.24,0,0,0-.506,1.63v4.218h-1.23v-4.717a2.078,2.078,0,0,0-.3-1.23,1.141,1.141,0,0,0-.984-.41,1.79,1.79,0,0,0-.961.273,1.547,1.547,0,0,0-.639.8,4.487,4.487,0,0,0-.2,1.518v3.767Z" transform="translate(-10.897 -5.275)"/><path d="M354.75,110.2l1.271.157a3.108,3.108,0,0,1-1.114,1.729,3.776,3.776,0,0,1-4.6-.366,3.833,3.833,0,0,1-.933-2.751,4.011,4.011,0,0,1,.943-2.844,3.193,3.193,0,0,1,2.447-1.012,3.1,3.1,0,0,1,2.379.991,3.938,3.938,0,0,1,.923,2.789c0,.073,0,.182-.007.328h-5.414a2.783,2.783,0,0,0,.677,1.832,2.013,2.013,0,0,0,1.518.636,1.885,1.885,0,0,0,1.155-.355A2.368,2.368,0,0,0,354.75,110.2Zm-4.04-1.989h4.054a2.461,2.461,0,0,0-.465-1.374,1.887,1.887,0,0,0-1.524-.711,1.956,1.956,0,0,0-1.426.567A2.247,2.247,0,0,0,350.71,108.211Z" transform="translate(-10.897 -5.275)"/><path d="M357.566,112.539v-7.26h1.107v1.032a2.609,2.609,0,0,1,2.311-1.2,3.026,3.026,0,0,1,1.206.236,1.9,1.9,0,0,1,.824.619,2.39,2.39,0,0,1,.383.909,7.117,7.117,0,0,1,.068,1.2v4.464h-1.23v-4.416a3.315,3.315,0,0,0-.144-1.125,1.181,1.181,0,0,0-.51-.595,1.618,1.618,0,0,0-.857-.222,2,2,0,0,0-1.357.5,2.464,2.464,0,0,0-.57,1.894v3.965Z" transform="translate(-10.897 -5.275)"/><path d="M368.039,111.438l.178,1.087a4.578,4.578,0,0,1-.93.109,2.1,2.1,0,0,1-1.039-.212,1.183,1.183,0,0,1-.52-.557,4.4,4.4,0,0,1-.15-1.453v-4.177h-.9v-.957h.9v-1.8l1.224-.738v2.536h1.237v.957H366.8v4.245a2.158,2.158,0,0,0,.064.677.518.518,0,0,0,.212.239.823.823,0,0,0,.421.089A4.034,4.034,0,0,0,368.039,111.438Z" transform="translate(-10.897 -5.275)"/><path d="M368.75,110.372l1.217-.191a1.7,1.7,0,0,0,.57,1.121,1.991,1.991,0,0,0,1.31.39,1.925,1.925,0,0,0,1.258-.345,1.032,1.032,0,0,0,.41-.81.748.748,0,0,0-.362-.656,5.335,5.335,0,0,0-1.258-.417,11.488,11.488,0,0,1-1.877-.591,1.789,1.789,0,0,1-1.062-1.665,1.877,1.877,0,0,1,.222-.9,1.987,1.987,0,0,1,.605-.687,2.544,2.544,0,0,1,.782-.359,3.72,3.72,0,0,1,1.063-.147,4.2,4.2,0,0,1,1.5.246,2.042,2.042,0,0,1,.954.667,2.614,2.614,0,0,1,.424,1.125l-1.2.164a1.314,1.314,0,0,0-.476-.875,1.737,1.737,0,0,0-1.11-.314,2.009,2.009,0,0,0-1.21.28.815.815,0,0,0-.362.656.677.677,0,0,0,.15.431,1.075,1.075,0,0,0,.472.328q.185.068,1.087.314a15.146,15.146,0,0,1,1.821.571,1.846,1.846,0,0,1,.811.646,1.808,1.808,0,0,1,.294,1.053,2.066,2.066,0,0,1-.359,1.159,2.318,2.318,0,0,1-1.035.841,3.771,3.771,0,0,1-1.531.3,3.413,3.413,0,0,1-2.157-.588A2.736,2.736,0,0,1,368.75,110.372Z" transform="translate(-10.897 -5.275)"/><path d="M329.125,129.339h-1.142V119.317h1.23v3.575a2.434,2.434,0,0,1,1.989-.978,3.046,3.046,0,0,1,1.269.27,2.6,2.6,0,0,1,.984.759,3.67,3.67,0,0,1,.6,1.179,4.843,4.843,0,0,1,.219,1.477,4.147,4.147,0,0,1-.923,2.885,2.886,2.886,0,0,1-2.215,1.019,2.313,2.313,0,0,1-2.017-1.073Zm-.014-3.685a3.774,3.774,0,0,0,.355,1.887,1.759,1.759,0,0,0,2.967.25,3.18,3.18,0,0,0,.588-2.088,3.24,3.24,0,0,0-.563-2.1,1.718,1.718,0,0,0-1.364-.677,1.771,1.771,0,0,0-1.395.7A3.078,3.078,0,0,0,329.111,125.654Z" transform="translate(-10.897 -5.275)"/><path d="M340.746,127l1.271.157a3.1,3.1,0,0,1-1.114,1.729,3.774,3.774,0,0,1-4.6-.366,3.833,3.833,0,0,1-.934-2.751,4.011,4.011,0,0,1,.943-2.844,3.2,3.2,0,0,1,2.447-1.012,3.1,3.1,0,0,1,2.379.991,3.938,3.938,0,0,1,.923,2.789c0,.073,0,.182-.007.328h-5.414a2.793,2.793,0,0,0,.677,1.832,2.016,2.016,0,0,0,1.518.636,1.883,1.883,0,0,0,1.155-.355A2.354,2.354,0,0,0,340.746,127Zm-4.04-1.989h4.054a2.453,2.453,0,0,0-.465-1.374,1.884,1.884,0,0,0-1.524-.711,1.953,1.953,0,0,0-1.425.567A2.244,2.244,0,0,0,336.706,125.012Z" transform="translate(-10.897 -5.275)"/><path d="M343.337,129.94l1.2.178a1.143,1.143,0,0,0,.417.807,2.049,2.049,0,0,0,1.251.342,2.194,2.194,0,0,0,1.319-.342,1.679,1.679,0,0,0,.629-.957,7.781,7.781,0,0,0,.089-1.579,2.53,2.53,0,0,1-2.01.95,2.74,2.74,0,0,1-2.317-1.08,4.159,4.159,0,0,1-.82-2.591,4.832,4.832,0,0,1,.376-1.917,3.009,3.009,0,0,1,1.091-1.357,2.942,2.942,0,0,1,1.678-.479,2.6,2.6,0,0,1,2.119,1.039v-.875h1.135v6.275a5.965,5.965,0,0,1-.345,2.4,2.527,2.527,0,0,1-1.094,1.118,3.792,3.792,0,0,1-1.843.41,3.475,3.475,0,0,1-2.1-.584A1.978,1.978,0,0,1,343.337,129.94Zm1.019-4.361a3.151,3.151,0,0,0,.567,2.085,1.872,1.872,0,0,0,2.844,0,3.047,3.047,0,0,0,.574-2.047,2.98,2.98,0,0,0-.591-2.01,1.829,1.829,0,0,0-1.426-.677,1.776,1.776,0,0,0-1.395.667A2.96,2.96,0,0,0,344.355,125.579Z" transform="translate(-10.897 -5.275)"/><path d="M351.355,120.732v-1.415h1.23v1.415Zm0,8.606v-7.26h1.23v7.26Z" transform="translate(-10.897 -5.275)"/><path d="M354.459,129.339v-7.26h1.107v1.032a2.61,2.61,0,0,1,2.311-1.2,3.035,3.035,0,0,1,1.207.236,1.9,1.9,0,0,1,.823.619,2.36,2.36,0,0,1,.383.909,7.011,7.011,0,0,1,.068,1.2v4.464h-1.23v-4.416a3.315,3.315,0,0,0-.144-1.125,1.184,1.184,0,0,0-.509-.595,1.624,1.624,0,0,0-.858-.222,1.993,1.993,0,0,0-1.356.5,2.46,2.46,0,0,0-.571,1.894v3.965Z" transform="translate(-10.897 -5.275)"/><line class="cls-6" x1="110.897" y1="20.854" x2="110.897" y2="78.441"/><line class="cls-7" x1="333.298" y1="20.854" x2="333.298" y2="78.441"/></svg>