<svg id="Layer_1" data-name="Layer 1" xmlns="http://www.w3.org/2000/svg" viewBox="0 0 411.567 292.174"><defs><style>.cls-1{fill:#231f20;}.cls-2,.cls-3,.cls-4,.cls-5,.cls-6,.cls-7,.cls-8,.cls-9{fill:none;stroke-miterlimit:10;}.cls-2,.cls-9{stroke:#231f20;}.cls-3,.cls-4,.cls-5{stroke:#4069b2;}.cls-3,.cls-4,.cls-5,.cls-6,.cls-7,.cls-8{stroke-width:2px;}.cls-4{stroke-dasharray:12.675 12.675;}.cls-5{stroke-dasharray:12.884 12.884;}.cls-6,.cls-7,.cls-8{stroke:#ed1c24;}.cls-7{stroke-dasharray:11.659 11.659;}.cls-8{stroke-dasharray:11.984 11.984;}.cls-9{stroke-width:3px;}</style></defs><title>Hedging_Strategies_Buying_Puts_01</title><path class="cls-1" d="M61,23.81l-3.328-8.59H58.9l2.232,6.24q.27.75.451,1.406.2-.7.463-1.406l2.32-6.24h1.16l-3.363,8.59Z" transform="translate(-20.735 -15.073)"/><path class="cls-1" d="M69.584,23.042a3.927,3.927,0,0,1-1.128.7,3.259,3.259,0,0,1-1.163.205,2.262,2.262,0,0,1-1.576-.5,1.654,1.654,0,0,1-.551-1.28,1.7,1.7,0,0,1,.208-.835,1.722,1.722,0,0,1,.545-.606,2.562,2.562,0,0,1,.759-.346,7.536,7.536,0,0,1,.938-.158A9.64,9.64,0,0,0,69.5,19.86q.006-.217.006-.275a1.164,1.164,0,0,0-.3-.908,1.765,1.765,0,0,0-1.2-.357,1.863,1.863,0,0,0-1.1.261,1.593,1.593,0,0,0-.524.923l-1.031-.141a2.555,2.555,0,0,1,.463-1.069,2.029,2.029,0,0,1,.932-.627,4.155,4.155,0,0,1,1.412-.22,3.738,3.738,0,0,1,1.295.188,1.706,1.706,0,0,1,.732.472,1.659,1.659,0,0,1,.328.718,5.938,5.938,0,0,1,.053.973V21.2a14.926,14.926,0,0,0,.067,1.86,2.347,2.347,0,0,0,.267.747H69.8A2.236,2.236,0,0,1,69.584,23.042ZM69.5,20.687a7.738,7.738,0,0,1-1.723.4,3.985,3.985,0,0,0-.92.211.917.917,0,0,0-.416.343.932.932,0,0,0,.173,1.2,1.374,1.374,0,0,0,.935.281,2.175,2.175,0,0,0,1.084-.267,1.642,1.642,0,0,0,.7-.729,2.548,2.548,0,0,0,.17-1.055Z" transform="translate(-20.735 -15.073)"/><path class="cls-1" d="M72.174,23.81V15.22h1.055v8.59Z" transform="translate(-20.735 -15.073)"/><path class="cls-1" d="M78.942,23.81V22.9a2.278,2.278,0,0,1-1.975,1.055,2.516,2.516,0,0,1-1.028-.211,1.694,1.694,0,0,1-.709-.53,1.987,1.987,0,0,1-.325-.782,5.356,5.356,0,0,1-.064-.984V17.587H75.9v3.451a6.15,6.15,0,0,0,.064,1.113,1.1,1.1,0,0,0,.422.653,1.307,1.307,0,0,0,.8.237,1.736,1.736,0,0,0,.891-.243,1.352,1.352,0,0,0,.589-.662,3.322,3.322,0,0,0,.173-1.216V17.587h1.055V23.81Z" transform="translate(-20.735 -15.073)"/><path class="cls-1" d="M85.8,21.806l1.09.135a2.659,2.659,0,0,1-.955,1.482,3.236,3.236,0,0,1-3.946-.313,3.285,3.285,0,0,1-.8-2.358,3.438,3.438,0,0,1,.809-2.437,2.737,2.737,0,0,1,2.1-.867,2.66,2.66,0,0,1,2.039.85,3.376,3.376,0,0,1,.791,2.391q0,.094-.006.281H82.276a2.391,2.391,0,0,0,.58,1.57,1.727,1.727,0,0,0,1.3.545,1.614,1.614,0,0,0,.99-.3A2.023,2.023,0,0,0,85.8,21.806ZM82.334,20.1h3.475a2.108,2.108,0,0,0-.4-1.178,1.616,1.616,0,0,0-1.307-.609,1.675,1.675,0,0,0-1.222.486A1.925,1.925,0,0,0,82.334,20.1Z" transform="translate(-20.735 -15.073)"/><path class="cls-1" d="M91.153,20.7a3.207,3.207,0,0,1,.961-2.561,2.9,2.9,0,0,1,1.957-.691,2.792,2.792,0,0,1,2.1.841,3.2,3.2,0,0,1,.814,2.323,4.117,4.117,0,0,1-.36,1.89,2.551,2.551,0,0,1-1.049,1.069,3.054,3.054,0,0,1-1.5.381,2.8,2.8,0,0,1-2.112-.838A3.347,3.347,0,0,1,91.153,20.7Zm1.084,0a2.65,2.65,0,0,0,.521,1.79,1.736,1.736,0,0,0,2.619,0,2.713,2.713,0,0,0,.521-1.822,2.571,2.571,0,0,0-.524-1.749,1.739,1.739,0,0,0-2.616,0A2.639,2.639,0,0,0,92.237,20.7Z" transform="translate(-20.735 -15.073)"/><path class="cls-1" d="M98.471,23.81v-5.4H97.54v-.82h.932v-.662a2.9,2.9,0,0,1,.111-.932,1.349,1.349,0,0,1,.536-.665,1.932,1.932,0,0,1,1.075-.255,5.163,5.163,0,0,1,.984.105l-.158.92a3.539,3.539,0,0,0-.621-.059.924.924,0,0,0-.68.205,1.112,1.112,0,0,0-.2.768v.574h1.213v.82H99.52v5.4Z" transform="translate(-20.735 -15.073)"/><path class="cls-1" d="M105.057,23.81V15.22h1.137v3.527h4.465V15.22H111.8v8.59h-1.137V19.761h-4.465V23.81Z" transform="translate(-20.735 -15.073)"/><path class="cls-1" d="M113.161,20.7a3.207,3.207,0,0,1,.961-2.561,2.9,2.9,0,0,1,1.957-.691,2.792,2.792,0,0,1,2.1.841,3.2,3.2,0,0,1,.814,2.323,4.117,4.117,0,0,1-.36,1.89,2.551,2.551,0,0,1-1.049,1.069,3.054,3.054,0,0,1-1.5.381,2.8,2.8,0,0,1-2.112-.838A3.347,3.347,0,0,1,113.161,20.7Zm1.084,0a2.65,2.65,0,0,0,.521,1.79,1.736,1.736,0,0,0,2.619,0,2.713,2.713,0,0,0,.521-1.822,2.571,2.571,0,0,0-.524-1.749,1.739,1.739,0,0,0-2.616,0A2.639,2.639,0,0,0,114.245,20.7Z" transform="translate(-20.735 -15.073)"/><path class="cls-1" d="M120.2,23.81V15.22h1.055v8.59Z" transform="translate(-20.735 -15.073)"/><path class="cls-1" d="M126.93,23.81v-.785a1.935,1.935,0,0,1-1.74.926,2.44,2.44,0,0,1-1.368-.41,2.7,2.7,0,0,1-.967-1.146,3.959,3.959,0,0,1-.343-1.69,4.424,4.424,0,0,1,.311-1.69,2.449,2.449,0,0,1,.932-1.163,2.491,2.491,0,0,1,1.389-.4,2.075,2.075,0,0,1,1.717.855V15.22h1.049v8.59ZM123.6,20.7a2.7,2.7,0,0,0,.5,1.787,1.519,1.519,0,0,0,1.189.592,1.492,1.492,0,0,0,1.175-.565,2.607,2.607,0,0,0,.483-1.726,2.926,2.926,0,0,0-.492-1.875,1.514,1.514,0,0,0-1.213-.6,1.461,1.461,0,0,0-1.175.574A2.834,2.834,0,0,0,123.6,20.7Z" transform="translate(-20.735 -15.073)"/><path class="cls-1" d="M129.573,16.433V15.22h1.055v1.213Zm0,7.377V17.587h1.055V23.81Z" transform="translate(-20.735 -15.073)"/><path class="cls-1" d="M132.233,23.81V17.587h.949v.885a2.237,2.237,0,0,1,1.98-1.025,2.6,2.6,0,0,1,1.034.2,1.627,1.627,0,0,1,.706.53,2.035,2.035,0,0,1,.328.779,6.039,6.039,0,0,1,.059,1.025V23.81h-1.055V20.024a2.841,2.841,0,0,0-.123-.964,1.014,1.014,0,0,0-.437-.51,1.389,1.389,0,0,0-.735-.19,1.709,1.709,0,0,0-1.163.428,2.11,2.11,0,0,0-.489,1.623v3.4Z" transform="translate(-20.735 -15.073)"/><path class="cls-1" d="M138.713,24.325l1.025.152a.977.977,0,0,0,.357.691,1.756,1.756,0,0,0,1.072.293,1.883,1.883,0,0,0,1.131-.293,1.442,1.442,0,0,0,.539-.82A6.736,6.736,0,0,0,142.915,23a2.169,2.169,0,0,1-1.723.814,2.349,2.349,0,0,1-1.986-.926,3.565,3.565,0,0,1-.7-2.221,4.133,4.133,0,0,1,.322-1.644,2.578,2.578,0,0,1,.935-1.163,2.524,2.524,0,0,1,1.438-.41,2.231,2.231,0,0,1,1.816.891v-.75h.973v5.379a5.1,5.1,0,0,1-.3,2.06,2.164,2.164,0,0,1-.937.958,3.249,3.249,0,0,1-1.579.352,2.978,2.978,0,0,1-1.8-.5A1.694,1.694,0,0,1,138.713,24.325Zm.873-3.738a2.7,2.7,0,0,0,.486,1.787,1.6,1.6,0,0,0,2.438,0A2.612,2.612,0,0,0,143,20.622,2.552,2.552,0,0,0,142.5,18.9a1.567,1.567,0,0,0-1.222-.58,1.522,1.522,0,0,0-1.2.571A2.537,2.537,0,0,0,139.586,20.587Z" transform="translate(-20.735 -15.073)"/><path class="cls-1" d="M372.654,273.492l1.072-.094a2.368,2.368,0,0,0,.354,1.058,1.935,1.935,0,0,0,.864.668,3.273,3.273,0,0,0,1.318.255,3.159,3.159,0,0,0,1.148-.193,1.593,1.593,0,0,0,.741-.53,1.23,1.23,0,0,0,.243-.735,1.118,1.118,0,0,0-.234-.706,1.736,1.736,0,0,0-.773-.507,15.117,15.117,0,0,0-1.529-.419,7.814,7.814,0,0,1-1.658-.536,2.325,2.325,0,0,1-.917-.8,1.96,1.96,0,0,1-.3-1.069,2.183,2.183,0,0,1,.369-1.216,2.286,2.286,0,0,1,1.078-.858,4.09,4.09,0,0,1,1.576-.293,4.306,4.306,0,0,1,1.685.308,2.43,2.43,0,0,1,1.122.905,2.6,2.6,0,0,1,.422,1.354l-1.09.082a1.758,1.758,0,0,0-.595-1.23,2.315,2.315,0,0,0-1.5-.416,2.4,2.4,0,0,0-1.5.378,1.133,1.133,0,0,0-.472.911.977.977,0,0,0,.334.762,4.526,4.526,0,0,0,1.714.612,11.336,11.336,0,0,1,1.9.548,2.6,2.6,0,0,1,1.107.876,2.134,2.134,0,0,1,.357,1.222,2.336,2.336,0,0,1-.393,1.292,2.585,2.585,0,0,1-1.128.943,3.93,3.93,0,0,1-1.655.337,4.942,4.942,0,0,1-1.954-.34,2.737,2.737,0,0,1-1.236-1.022A2.9,2.9,0,0,1,372.654,273.492Z" transform="translate(-20.735 -15.073)"/><path class="cls-1" d="M383.213,275.309l.152.932a3.912,3.912,0,0,1-.8.094,1.8,1.8,0,0,1-.891-.182,1.017,1.017,0,0,1-.445-.478,3.776,3.776,0,0,1-.129-1.245v-3.58h-.773v-.82h.773v-1.541l1.049-.633v2.174h1.061v.82h-1.061v3.639a1.838,1.838,0,0,0,.056.58.439.439,0,0,0,.182.205.7.7,0,0,0,.36.076A3.431,3.431,0,0,0,383.213,275.309Z" transform="translate(-20.735 -15.073)"/><path class="cls-1" d="M383.852,273.141a3.207,3.207,0,0,1,.961-2.561,2.9,2.9,0,0,1,1.957-.691,2.792,2.792,0,0,1,2.1.841,3.2,3.2,0,0,1,.814,2.323,4.117,4.117,0,0,1-.36,1.89,2.551,2.551,0,0,1-1.049,1.069,3.054,3.054,0,0,1-1.5.381,2.8,2.8,0,0,1-2.112-.838A3.347,3.347,0,0,1,383.852,273.141Zm1.084,0a2.65,2.65,0,0,0,.521,1.79,1.736,1.736,0,0,0,2.619,0,2.713,2.713,0,0,0,.521-1.822,2.571,2.571,0,0,0-.524-1.749,1.739,1.739,0,0,0-2.616,0A2.639,2.639,0,0,0,384.936,273.141Z" transform="translate(-20.735 -15.073)"/><path class="cls-1" d="M394.979,273.973l1.037.135a2.69,2.69,0,0,1-.87,1.679,2.535,2.535,0,0,1-1.72.606,2.672,2.672,0,0,1-2.054-.835,3.388,3.388,0,0,1-.776-2.394,4.331,4.331,0,0,1,.334-1.764,2.329,2.329,0,0,1,1.017-1.134,3.016,3.016,0,0,1,1.485-.378,2.582,2.582,0,0,1,1.658.513,2.351,2.351,0,0,1,.826,1.456l-1.025.158a1.7,1.7,0,0,0-.519-.943,1.342,1.342,0,0,0-.9-.316,1.637,1.637,0,0,0-1.295.571,2.712,2.712,0,0,0-.5,1.808,2.8,2.8,0,0,0,.48,1.822,1.564,1.564,0,0,0,1.254.568,1.478,1.478,0,0,0,1.037-.381A1.89,1.89,0,0,0,394.979,273.973Z" transform="translate(-20.735 -15.073)"/><path class="cls-1" d="M396.924,276.252v-8.59h1.055v4.9l2.5-2.531h1.365l-2.379,2.309,2.619,3.914h-1.3l-2.057-3.182-.744.715v2.467Z" transform="translate(-20.735 -15.073)"/><path class="cls-1" d="M406.387,276.252v-8.59h3.24a7.823,7.823,0,0,1,1.307.082,2.588,2.588,0,0,1,1.061.4,2.106,2.106,0,0,1,.688.829,2.8,2.8,0,0,1-.437,3.026,3.345,3.345,0,0,1-2.52.759h-2.2v3.492Zm1.137-4.506h2.221a2.355,2.355,0,0,0,1.564-.41,1.461,1.461,0,0,0,.463-1.154,1.553,1.553,0,0,0-.272-.923,1.274,1.274,0,0,0-.718-.507,4.857,4.857,0,0,0-1.061-.076h-2.2Z" transform="translate(-20.735 -15.073)"/><path class="cls-1" d="M414.244,276.252v-6.223h.949v.943a2.574,2.574,0,0,1,.671-.873,1.171,1.171,0,0,1,.677-.211,2.057,2.057,0,0,1,1.084.34l-.363.979a1.509,1.509,0,0,0-.773-.229,1,1,0,0,0-.621.208,1.127,1.127,0,0,0-.393.577,4.108,4.108,0,0,0-.176,1.23v3.258Z" transform="translate(-20.735 -15.073)"/><path class="cls-1" d="M418.258,268.875v-1.213h1.055v1.213Zm0,7.377v-6.223h1.055v6.223Z" transform="translate(-20.735 -15.073)"/><path class="cls-1" d="M424.979,273.973l1.037.135a2.69,2.69,0,0,1-.87,1.679,2.535,2.535,0,0,1-1.72.606,2.672,2.672,0,0,1-2.054-.835,3.388,3.388,0,0,1-.776-2.394,4.331,4.331,0,0,1,.334-1.764,2.329,2.329,0,0,1,1.017-1.134,3.016,3.016,0,0,1,1.485-.378,2.582,2.582,0,0,1,1.658.513,2.351,2.351,0,0,1,.826,1.456l-1.025.158a1.7,1.7,0,0,0-.519-.943,1.342,1.342,0,0,0-.9-.316,1.637,1.637,0,0,0-1.295.571,2.712,2.712,0,0,0-.5,1.808,2.8,2.8,0,0,0,.48,1.822,1.564,1.564,0,0,0,1.254.568,1.478,1.478,0,0,0,1.037-.381A1.89,1.89,0,0,0,424.979,273.973Z" transform="translate(-20.735 -15.073)"/><path class="cls-1" d="M431.178,274.248l1.09.135a2.659,2.659,0,0,1-.955,1.482,3.236,3.236,0,0,1-3.946-.313,3.285,3.285,0,0,1-.8-2.358,3.438,3.438,0,0,1,.809-2.437,2.737,2.737,0,0,1,2.1-.867,2.66,2.66,0,0,1,2.039.85,3.376,3.376,0,0,1,.791,2.391q0,.094-.006.281h-4.641a2.391,2.391,0,0,0,.58,1.57,1.727,1.727,0,0,0,1.3.545,1.614,1.614,0,0,0,.99-.3A2.023,2.023,0,0,0,431.178,274.248Zm-3.463-1.705h3.475a2.108,2.108,0,0,0-.4-1.178,1.616,1.616,0,0,0-1.307-.609,1.675,1.675,0,0,0-1.222.486A1.925,1.925,0,0,0,427.715,272.543Z" transform="translate(-20.735 -15.073)"/><path class="cls-1" d="M274.862,57.668v-8.59H276v8.59Z" transform="translate(-20.735 -15.073)"/><path class="cls-1" d="M277.868,57.668V51.446h.949v.885a2.237,2.237,0,0,1,1.98-1.025,2.6,2.6,0,0,1,1.034.2,1.627,1.627,0,0,1,.706.53,2.035,2.035,0,0,1,.328.779,6.039,6.039,0,0,1,.059,1.025v3.826H281.87V53.883a2.841,2.841,0,0,0-.123-.964,1.014,1.014,0,0,0-.437-.51,1.389,1.389,0,0,0-.735-.19,1.709,1.709,0,0,0-1.163.428,2.11,2.11,0,0,0-.489,1.623v3.4Z" transform="translate(-20.735 -15.073)"/><path class="cls-1" d="M286.271,57.668,283.9,51.446h1.113l1.336,3.727q.217.6.4,1.254.141-.492.393-1.184l1.383-3.8h1.084l-2.355,6.223Z" transform="translate(-20.735 -15.073)"/><path class="cls-1" d="M294.8,55.665l1.09.135a2.659,2.659,0,0,1-.955,1.482,3.236,3.236,0,0,1-3.946-.313,3.285,3.285,0,0,1-.8-2.358A3.438,3.438,0,0,1,291,52.172a2.737,2.737,0,0,1,2.1-.867,2.66,2.66,0,0,1,2.039.85,3.376,3.376,0,0,1,.791,2.391q0,.094-.006.281H291.28a2.391,2.391,0,0,0,.58,1.57,1.727,1.727,0,0,0,1.3.545,1.614,1.614,0,0,0,.99-.3A2.023,2.023,0,0,0,294.8,55.665Zm-3.463-1.705h3.475a2.108,2.108,0,0,0-.4-1.178,1.616,1.616,0,0,0-1.307-.609,1.675,1.675,0,0,0-1.222.486A1.925,1.925,0,0,0,291.339,53.959Z" transform="translate(-20.735 -15.073)"/><path class="cls-1" d="M296.794,55.811l1.043-.164a1.458,1.458,0,0,0,.489.961,1.705,1.705,0,0,0,1.122.334,1.648,1.648,0,0,0,1.078-.3.885.885,0,0,0,.352-.694.641.641,0,0,0-.311-.562,4.574,4.574,0,0,0-1.078-.357,9.838,9.838,0,0,1-1.608-.507,1.535,1.535,0,0,1-.911-1.427,1.6,1.6,0,0,1,.19-.771,1.708,1.708,0,0,1,.519-.589,2.174,2.174,0,0,1,.671-.308,3.19,3.19,0,0,1,.911-.126,3.6,3.6,0,0,1,1.286.211,1.749,1.749,0,0,1,.817.571,2.232,2.232,0,0,1,.363.964l-1.031.141a1.128,1.128,0,0,0-.407-.75,1.489,1.489,0,0,0-.952-.27,1.724,1.724,0,0,0-1.037.24.7.7,0,0,0-.311.563.582.582,0,0,0,.129.369.93.93,0,0,0,.4.281q.158.059.932.27a12.969,12.969,0,0,1,1.562.489,1.584,1.584,0,0,1,.694.554,1.546,1.546,0,0,1,.252.9,1.771,1.771,0,0,1-.308.993,1.988,1.988,0,0,1-.888.721,3.231,3.231,0,0,1-1.312.255,2.924,2.924,0,0,1-1.849-.5A2.343,2.343,0,0,1,296.794,55.811Z" transform="translate(-20.735 -15.073)"/><path class="cls-1" d="M305.519,56.725l.152.932a3.912,3.912,0,0,1-.8.094,1.8,1.8,0,0,1-.891-.182,1.017,1.017,0,0,1-.445-.478,3.776,3.776,0,0,1-.129-1.245v-3.58h-.773v-.82h.773V49.9l1.049-.633v2.174h1.061v.82h-1.061V55.9a1.838,1.838,0,0,0,.056.58.439.439,0,0,0,.182.205.7.7,0,0,0,.36.076A3.431,3.431,0,0,0,305.519,56.725Z" transform="translate(-20.735 -15.073)"/><path class="cls-1" d="M306.157,54.557A3.207,3.207,0,0,1,307.118,52a2.9,2.9,0,0,1,1.957-.691,2.792,2.792,0,0,1,2.1.841,3.2,3.2,0,0,1,.814,2.323,4.117,4.117,0,0,1-.36,1.89,2.551,2.551,0,0,1-1.049,1.069,3.054,3.054,0,0,1-1.5.381,2.8,2.8,0,0,1-2.112-.838A3.347,3.347,0,0,1,306.157,54.557Zm1.084,0a2.65,2.65,0,0,0,.521,1.79,1.736,1.736,0,0,0,2.619,0,2.713,2.713,0,0,0,.521-1.822,2.571,2.571,0,0,0-.524-1.749,1.739,1.739,0,0,0-2.616,0A2.639,2.639,0,0,0,307.241,54.557Z" transform="translate(-20.735 -15.073)"/><path class="cls-1" d="M313.212,57.668V51.446h.949v.943a2.574,2.574,0,0,1,.671-.873,1.171,1.171,0,0,1,.677-.211,2.057,2.057,0,0,1,1.084.34l-.363.979a1.509,1.509,0,0,0-.773-.229,1,1,0,0,0-.621.208,1.127,1.127,0,0,0-.393.577,4.108,4.108,0,0,0-.176,1.23v3.258Z" transform="translate(-20.735 -15.073)"/><path class="cls-1" d="M317.6,50.215V48.991h1.131v.967a2.585,2.585,0,0,1-.182,1.131,1.6,1.6,0,0,1-.785.715l-.258-.416a.916.916,0,0,0,.472-.407,1.708,1.708,0,0,0,.173-.765Z" transform="translate(-20.735 -15.073)"/><path class="cls-1" d="M319.692,55.811l1.043-.164a1.458,1.458,0,0,0,.489.961,1.705,1.705,0,0,0,1.122.334,1.648,1.648,0,0,0,1.078-.3.885.885,0,0,0,.352-.694.641.641,0,0,0-.311-.562,4.574,4.574,0,0,0-1.078-.357,9.838,9.838,0,0,1-1.608-.507,1.535,1.535,0,0,1-.911-1.427,1.6,1.6,0,0,1,.19-.771,1.708,1.708,0,0,1,.519-.589,2.174,2.174,0,0,1,.671-.308,3.19,3.19,0,0,1,.911-.126,3.6,3.6,0,0,1,1.286.211,1.749,1.749,0,0,1,.817.571,2.232,2.232,0,0,1,.363.964l-1.031.141a1.128,1.128,0,0,0-.407-.75,1.489,1.489,0,0,0-.952-.27,1.724,1.724,0,0,0-1.037.24.7.7,0,0,0-.311.563.582.582,0,0,0,.129.369.93.93,0,0,0,.4.281q.158.059.932.27a12.969,12.969,0,0,1,1.562.489,1.584,1.584,0,0,1,.694.554,1.546,1.546,0,0,1,.252.9,1.771,1.771,0,0,1-.308.993,1.988,1.988,0,0,1-.888.721,3.231,3.231,0,0,1-1.312.255,2.924,2.924,0,0,1-1.849-.5A2.343,2.343,0,0,1,319.692,55.811Z" transform="translate(-20.735 -15.073)"/><path class="cls-1" d="M329.606,57.668v-8.59h6.211v1.014h-5.074v2.631H335.5v1.008h-4.752v2.924h5.273v1.014Z" transform="translate(-20.735 -15.073)"/><path class="cls-1" d="M336.749,57.668l2.273-3.234-2.1-2.988h1.318l.955,1.459q.27.416.434.7.258-.387.475-.686l1.049-1.471h1.26l-2.15,2.93,2.314,3.293h-1.295L340,55.735l-.34-.521-1.635,2.455Z" transform="translate(-20.735 -15.073)"/><path class="cls-1" d="M343.452,60.053V51.446h.961v.809a2.369,2.369,0,0,1,.768-.712,2.109,2.109,0,0,1,1.037-.237,2.459,2.459,0,0,1,1.406.41,2.517,2.517,0,0,1,.92,1.157,4.225,4.225,0,0,1,.311,1.638,4.16,4.16,0,0,1-.343,1.72,2.584,2.584,0,0,1-1,1.172,2.558,2.558,0,0,1-1.374.407,1.985,1.985,0,0,1-.946-.223,2.155,2.155,0,0,1-.688-.562v3.029Zm.955-5.461a2.707,2.707,0,0,0,.486,1.775,1.491,1.491,0,0,0,1.178.574,1.525,1.525,0,0,0,1.2-.595,2.822,2.822,0,0,0,.5-1.843,2.749,2.749,0,0,0-.489-1.781,1.473,1.473,0,0,0-1.169-.592,1.519,1.519,0,0,0-1.192.63A2.818,2.818,0,0,0,344.407,54.592Z" transform="translate(-20.735 -15.073)"/><path class="cls-1" d="M349.733,54.557A3.207,3.207,0,0,1,350.694,52a2.9,2.9,0,0,1,1.957-.691,2.792,2.792,0,0,1,2.1.841,3.2,3.2,0,0,1,.814,2.323,4.117,4.117,0,0,1-.36,1.89,2.551,2.551,0,0,1-1.049,1.069,3.054,3.054,0,0,1-1.5.381,2.8,2.8,0,0,1-2.112-.838A3.347,3.347,0,0,1,349.733,54.557Zm1.084,0a2.65,2.65,0,0,0,.521,1.79,1.736,1.736,0,0,0,2.619,0,2.713,2.713,0,0,0,.521-1.822,2.571,2.571,0,0,0-.524-1.749,1.739,1.739,0,0,0-2.616,0A2.639,2.639,0,0,0,350.817,54.557Z" transform="translate(-20.735 -15.073)"/><path class="cls-1" d="M356.378,55.811l1.043-.164a1.458,1.458,0,0,0,.489.961,1.705,1.705,0,0,0,1.122.334,1.648,1.648,0,0,0,1.078-.3.885.885,0,0,0,.352-.694.641.641,0,0,0-.311-.562,4.574,4.574,0,0,0-1.078-.357,9.838,9.838,0,0,1-1.608-.507,1.535,1.535,0,0,1-.911-1.427,1.6,1.6,0,0,1,.19-.771,1.708,1.708,0,0,1,.519-.589,2.174,2.174,0,0,1,.671-.308,3.19,3.19,0,0,1,.911-.126,3.6,3.6,0,0,1,1.286.211,1.749,1.749,0,0,1,.817.571,2.232,2.232,0,0,1,.363.964l-1.031.141a1.128,1.128,0,0,0-.407-.75,1.489,1.489,0,0,0-.952-.27,1.724,1.724,0,0,0-1.037.24.7.7,0,0,0-.311.563.582.582,0,0,0,.129.369.93.93,0,0,0,.4.281q.158.059.932.27a12.969,12.969,0,0,1,1.562.489,1.584,1.584,0,0,1,.694.554,1.546,1.546,0,0,1,.252.9,1.771,1.771,0,0,1-.308.993,1.988,1.988,0,0,1-.888.721,3.231,3.231,0,0,1-1.312.255,2.924,2.924,0,0,1-1.849-.5A2.343,2.343,0,0,1,356.378,55.811Z" transform="translate(-20.735 -15.073)"/><path class="cls-1" d="M366.878,57.668v-.914a2.278,2.278,0,0,1-1.975,1.055,2.516,2.516,0,0,1-1.028-.211,1.694,1.694,0,0,1-.709-.53,1.987,1.987,0,0,1-.325-.782,5.356,5.356,0,0,1-.064-.984V51.446h1.055V54.9a6.15,6.15,0,0,0,.064,1.113,1.1,1.1,0,0,0,.422.653,1.307,1.307,0,0,0,.8.237,1.736,1.736,0,0,0,.891-.243,1.352,1.352,0,0,0,.589-.662,3.322,3.322,0,0,0,.173-1.216V51.446h1.055v6.223Z" transform="translate(-20.735 -15.073)"/><path class="cls-1" d="M369.462,57.668V51.446h.949v.943a2.574,2.574,0,0,1,.671-.873,1.171,1.171,0,0,1,.677-.211,2.057,2.057,0,0,1,1.084.34l-.363.979a1.509,1.509,0,0,0-.773-.229,1,1,0,0,0-.621.208,1.127,1.127,0,0,0-.393.577,4.108,4.108,0,0,0-.176,1.23v3.258Z" transform="translate(-20.735 -15.073)"/><path class="cls-1" d="M377.729,55.665l1.09.135a2.659,2.659,0,0,1-.955,1.482,3.236,3.236,0,0,1-3.946-.313,3.285,3.285,0,0,1-.8-2.358,3.438,3.438,0,0,1,.809-2.437,2.737,2.737,0,0,1,2.1-.867,2.66,2.66,0,0,1,2.039.85,3.376,3.376,0,0,1,.791,2.391q0,.094-.006.281h-4.641a2.391,2.391,0,0,0,.58,1.57,1.727,1.727,0,0,0,1.3.545,1.614,1.614,0,0,0,.99-.3A2.023,2.023,0,0,0,377.729,55.665Zm-3.463-1.705h3.475a2.108,2.108,0,0,0-.4-1.178,1.616,1.616,0,0,0-1.307-.609,1.675,1.675,0,0,0-1.222.486A1.925,1.925,0,0,0,374.267,53.959Z" transform="translate(-20.735 -15.073)"/><path class="cls-1" d="M23.3,58.319V57.264a3.894,3.894,0,0,1-1.286-.354,2.242,2.242,0,0,1-.855-.823,2.946,2.946,0,0,1-.419-1.389l1.061-.2a2.675,2.675,0,0,0,.434,1.248,1.538,1.538,0,0,0,1.066.627V53.016a4.406,4.406,0,0,1-1.33-.5,1.948,1.948,0,0,1-.776-.779,2.482,2.482,0,0,1,.524-2.953,2.772,2.772,0,0,1,1.582-.574v-.5h.621v.5a2.6,2.6,0,0,1,1.459.539,2.4,2.4,0,0,1,.832,1.576l-1.09.164a1.8,1.8,0,0,0-.39-.952,1.437,1.437,0,0,0-.812-.437v3.041a8.364,8.364,0,0,1,1.055.311,2.605,2.605,0,0,1,.8.527,2.121,2.121,0,0,1,.478.738,2.715,2.715,0,0,1-.53,2.754,2.558,2.558,0,0,1-1.8.785v1.066Zm0-9.234a1.563,1.563,0,0,0-.97.492,1.464,1.464,0,0,0-.053,1.846A2.079,2.079,0,0,0,23.3,52Zm.621,7.289a1.564,1.564,0,0,0,1.017-.533,1.652,1.652,0,0,0,.4-1.131,1.416,1.416,0,0,0-.284-.923,2.453,2.453,0,0,0-1.134-.624Z" transform="translate(-20.735 -15.073)"/><path class="cls-1" d="M31.452,57.083H30.4V50.362a5.451,5.451,0,0,1-1,.727,7.082,7.082,0,0,1-1.11.545v-1.02a6.369,6.369,0,0,0,1.547-1.008,3.964,3.964,0,0,0,.938-1.148h.68Z" transform="translate(-20.735 -15.073)"/><path class="cls-1" d="M37.534,57.083V55.026H33.808v-.967l3.92-5.566h.861v5.566h1.16v.967h-1.16v2.057Zm0-3.023V50.186l-2.689,3.873Z" transform="translate(-20.735 -15.073)"/><path class="cls-1" d="M44.454,57.083V50.86H45.4v.873A2.218,2.218,0,0,1,46.177,51a2.189,2.189,0,0,1,1.107-.278,2.047,2.047,0,0,1,1.134.287,1.537,1.537,0,0,1,.624.8,2.234,2.234,0,0,1,1.922-1.09,1.894,1.894,0,0,1,1.424.513,2.191,2.191,0,0,1,.5,1.579v4.271H51.837v-3.92a2.886,2.886,0,0,0-.1-.911.883.883,0,0,0-.372-.448,1.161,1.161,0,0,0-.633-.17,1.473,1.473,0,0,0-1.09.437,1.923,1.923,0,0,0-.434,1.4v3.615H48.151V53.04a1.779,1.779,0,0,0-.258-1.055.976.976,0,0,0-.844-.352,1.533,1.533,0,0,0-.823.234,1.329,1.329,0,0,0-.548.686,3.859,3.859,0,0,0-.17,1.3v3.229Z" transform="translate(-20.735 -15.073)"/><path class="cls-1" d="M54.456,49.706V48.493h1.055v1.213Zm0,7.377V50.86h1.055v6.223Z" transform="translate(-20.735 -15.073)"/><path class="cls-1" d="M57.093,57.083v-8.59h1.055v8.59Z" transform="translate(-20.735 -15.073)"/><path class="cls-1" d="M59.759,57.083v-8.59h1.055v8.59Z" transform="translate(-20.735 -15.073)"/><path class="cls-1" d="M62.454,49.706V48.493h1.055v1.213Zm0,7.377V50.86h1.055v6.223Z" transform="translate(-20.735 -15.073)"/><path class="cls-1" d="M64.722,53.971a3.207,3.207,0,0,1,.961-2.561,2.9,2.9,0,0,1,1.957-.691,2.792,2.792,0,0,1,2.1.841,3.2,3.2,0,0,1,.814,2.323,4.117,4.117,0,0,1-.36,1.89,2.551,2.551,0,0,1-1.049,1.069,3.054,3.054,0,0,1-1.5.381,2.8,2.8,0,0,1-2.112-.838A3.347,3.347,0,0,1,64.722,53.971Zm1.084,0a2.65,2.65,0,0,0,.521,1.79,1.736,1.736,0,0,0,2.619,0,2.713,2.713,0,0,0,.521-1.822,2.571,2.571,0,0,0-.524-1.749,1.739,1.739,0,0,0-2.616,0A2.639,2.639,0,0,0,65.806,53.971Z" transform="translate(-20.735 -15.073)"/><path class="cls-1" d="M71.788,57.083V50.86h.949v.885a2.237,2.237,0,0,1,1.98-1.025,2.6,2.6,0,0,1,1.034.2,1.627,1.627,0,0,1,.706.53,2.035,2.035,0,0,1,.328.779,6.039,6.039,0,0,1,.059,1.025v3.826H75.79V53.3a2.841,2.841,0,0,0-.123-.964,1.014,1.014,0,0,0-.437-.51,1.389,1.389,0,0,0-.735-.19,1.709,1.709,0,0,0-1.163.428,2.11,2.11,0,0,0-.489,1.623v3.4Z" transform="translate(-20.735 -15.073)"/><path class="cls-1" d="M23.3,99.556V98.5a3.894,3.894,0,0,1-1.286-.354,2.242,2.242,0,0,1-.855-.823,2.946,2.946,0,0,1-.419-1.389l1.061-.2a2.675,2.675,0,0,0,.434,1.248,1.538,1.538,0,0,0,1.066.627V94.253a4.406,4.406,0,0,1-1.33-.5,1.948,1.948,0,0,1-.776-.779,2.482,2.482,0,0,1,.524-2.953,2.772,2.772,0,0,1,1.582-.574v-.5h.621v.5a2.6,2.6,0,0,1,1.459.539,2.4,2.4,0,0,1,.832,1.576l-1.09.164a1.8,1.8,0,0,0-.39-.952,1.437,1.437,0,0,0-.812-.437v3.041a8.364,8.364,0,0,1,1.055.311,2.605,2.605,0,0,1,.8.527,2.121,2.121,0,0,1,.478.738,2.715,2.715,0,0,1-.53,2.754,2.558,2.558,0,0,1-1.8.785v1.066Zm0-9.234a1.563,1.563,0,0,0-.97.492,1.464,1.464,0,0,0-.053,1.846,2.079,2.079,0,0,0,1.022.58Zm.621,7.289a1.564,1.564,0,0,0,1.017-.533,1.652,1.652,0,0,0,.4-1.131,1.416,1.416,0,0,0-.284-.923,2.453,2.453,0,0,0-1.134-.624Z" transform="translate(-20.735 -15.073)"/><path class="cls-1" d="M31.452,98.319H30.4V91.6a5.451,5.451,0,0,1-1,.727,7.082,7.082,0,0,1-1.11.545v-1.02a6.369,6.369,0,0,0,1.547-1.008,3.964,3.964,0,0,0,.938-1.148h.68Z" transform="translate(-20.735 -15.073)"/><path class="cls-1" d="M39.7,97.306v1.014H34.019a1.866,1.866,0,0,1,.123-.732,3.875,3.875,0,0,1,.694-1.143,10.878,10.878,0,0,1,1.38-1.3,11.7,11.7,0,0,0,1.893-1.819,2.178,2.178,0,0,0,.492-1.269A1.409,1.409,0,0,0,38.152,91a1.617,1.617,0,0,0-1.169-.431,1.647,1.647,0,0,0-1.219.457A1.729,1.729,0,0,0,35.3,92.29l-1.084-.111a2.668,2.668,0,0,1,.838-1.849,2.858,2.858,0,0,1,1.951-.636,2.723,2.723,0,0,1,1.957.686,2.251,2.251,0,0,1,.721,1.7,2.577,2.577,0,0,1-.211,1.014,3.934,3.934,0,0,1-.7,1.049,17.058,17.058,0,0,1-1.626,1.512q-.949.8-1.219,1.081a3.468,3.468,0,0,0-.445.571Z" transform="translate(-20.735 -15.073)"/><path class="cls-1" d="M44.454,98.319V92.1H45.4v.873a2.218,2.218,0,0,1,.779-.735,2.189,2.189,0,0,1,1.107-.278,2.047,2.047,0,0,1,1.134.287,1.537,1.537,0,0,1,.624.8,2.234,2.234,0,0,1,1.922-1.09,1.894,1.894,0,0,1,1.424.513,2.191,2.191,0,0,1,.5,1.579v4.271H51.837V94.4a2.886,2.886,0,0,0-.1-.911.883.883,0,0,0-.372-.448,1.161,1.161,0,0,0-.633-.17,1.473,1.473,0,0,0-1.09.437,1.923,1.923,0,0,0-.434,1.4v3.615H48.151V94.276a1.779,1.779,0,0,0-.258-1.055.976.976,0,0,0-.844-.352,1.533,1.533,0,0,0-.823.234,1.329,1.329,0,0,0-.548.686,3.859,3.859,0,0,0-.17,1.3v3.229Z" transform="translate(-20.735 -15.073)"/><path class="cls-1" d="M54.456,90.942V89.729h1.055v1.213Zm0,7.377V92.1h1.055v6.223Z" transform="translate(-20.735 -15.073)"/><path class="cls-1" d="M57.093,98.319v-8.59h1.055v8.59Z" transform="translate(-20.735 -15.073)"/><path class="cls-1" d="M59.759,98.319v-8.59h1.055v8.59Z" transform="translate(-20.735 -15.073)"/><path class="cls-1" d="M62.454,90.942V89.729h1.055v1.213Zm0,7.377V92.1h1.055v6.223Z" transform="translate(-20.735 -15.073)"/><path class="cls-1" d="M64.722,95.208a3.207,3.207,0,0,1,.961-2.561,2.9,2.9,0,0,1,1.957-.691,2.792,2.792,0,0,1,2.1.841,3.2,3.2,0,0,1,.814,2.323,4.117,4.117,0,0,1-.36,1.89,2.551,2.551,0,0,1-1.049,1.069,3.054,3.054,0,0,1-1.5.381,2.8,2.8,0,0,1-2.112-.838A3.347,3.347,0,0,1,64.722,95.208Zm1.084,0A2.65,2.65,0,0,0,66.327,97a1.736,1.736,0,0,0,2.619,0,2.713,2.713,0,0,0,.521-1.822,2.571,2.571,0,0,0-.524-1.749,1.739,1.739,0,0,0-2.616,0A2.639,2.639,0,0,0,65.806,95.208Z" transform="translate(-20.735 -15.073)"/><path class="cls-1" d="M71.788,98.319V92.1h.949v.885a2.237,2.237,0,0,1,1.98-1.025,2.6,2.6,0,0,1,1.034.2,1.627,1.627,0,0,1,.706.53,2.035,2.035,0,0,1,.328.779,6.039,6.039,0,0,1,.059,1.025v3.826H75.79V94.534a2.841,2.841,0,0,0-.123-.964,1.014,1.014,0,0,0-.437-.51,1.389,1.389,0,0,0-.735-.19,1.709,1.709,0,0,0-1.163.428,2.11,2.11,0,0,0-.489,1.623v3.4Z" transform="translate(-20.735 -15.073)"/><path class="cls-1" d="M23.3,137.209v-1.055a3.894,3.894,0,0,1-1.286-.354,2.242,2.242,0,0,1-.855-.823,2.946,2.946,0,0,1-.419-1.389l1.061-.2a2.675,2.675,0,0,0,.434,1.248,1.538,1.538,0,0,0,1.066.627v-3.357a4.406,4.406,0,0,1-1.33-.5,1.948,1.948,0,0,1-.776-.779,2.482,2.482,0,0,1,.524-2.953A2.772,2.772,0,0,1,23.3,127.1v-.5h.621v.5a2.6,2.6,0,0,1,1.459.539,2.4,2.4,0,0,1,.832,1.576l-1.09.164a1.8,1.8,0,0,0-.39-.952,1.437,1.437,0,0,0-.812-.437v3.041a8.364,8.364,0,0,1,1.055.311,2.605,2.605,0,0,1,.8.527,2.121,2.121,0,0,1,.478.738,2.715,2.715,0,0,1-.53,2.754,2.558,2.558,0,0,1-1.8.785v1.066Zm0-9.234a1.563,1.563,0,0,0-.97.492,1.464,1.464,0,0,0-.053,1.846,2.079,2.079,0,0,0,1.022.58Zm.621,7.289a1.564,1.564,0,0,0,1.017-.533,1.652,1.652,0,0,0,.4-1.131,1.416,1.416,0,0,0-.284-.923,2.453,2.453,0,0,0-1.134-.624Z" transform="translate(-20.735 -15.073)"/><path class="cls-1" d="M31.452,135.973H30.4v-6.721a5.451,5.451,0,0,1-1,.727,7.082,7.082,0,0,1-1.11.545V129.5a6.369,6.369,0,0,0,1.547-1.008,3.964,3.964,0,0,0,.938-1.148h.68Z" transform="translate(-20.735 -15.073)"/><path class="cls-1" d="M34.153,131.737a7.86,7.86,0,0,1,.313-2.452,3.05,3.05,0,0,1,.932-1.433,2.382,2.382,0,0,1,1.556-.5,2.538,2.538,0,0,1,1.213.278,2.319,2.319,0,0,1,.861.8,4.306,4.306,0,0,1,.533,1.277,8.487,8.487,0,0,1,.193,2.03,7.882,7.882,0,0,1-.311,2.44,3.051,3.051,0,0,1-.929,1.436,2.382,2.382,0,0,1-1.562.507A2.357,2.357,0,0,1,35,135.229,5.661,5.661,0,0,1,34.153,131.737Zm1.084,0a5.386,5.386,0,0,0,.5,2.815,1.414,1.414,0,0,0,2.443,0,8.252,8.252,0,0,0,0-5.631,1.47,1.47,0,0,0-1.233-.7,1.351,1.351,0,0,0-1.16.615A5.448,5.448,0,0,0,35.237,131.737Z" transform="translate(-20.735 -15.073)"/><path class="cls-1" d="M44.454,135.973V129.75H45.4v.873a2.218,2.218,0,0,1,.779-.735,2.189,2.189,0,0,1,1.107-.278,2.047,2.047,0,0,1,1.134.287,1.537,1.537,0,0,1,.624.8,2.234,2.234,0,0,1,1.922-1.09,1.894,1.894,0,0,1,1.424.513,2.191,2.191,0,0,1,.5,1.579v4.271H51.837v-3.92a2.886,2.886,0,0,0-.1-.911.883.883,0,0,0-.372-.448,1.161,1.161,0,0,0-.633-.17,1.473,1.473,0,0,0-1.09.437,1.923,1.923,0,0,0-.434,1.4v3.615H48.151V131.93a1.779,1.779,0,0,0-.258-1.055.976.976,0,0,0-.844-.352,1.533,1.533,0,0,0-.823.234,1.329,1.329,0,0,0-.548.686,3.859,3.859,0,0,0-.17,1.3v3.229Z" transform="translate(-20.735 -15.073)"/><path class="cls-1" d="M54.456,128.6v-1.213h1.055V128.6Zm0,7.377V129.75h1.055v6.223Z" transform="translate(-20.735 -15.073)"/><path class="cls-1" d="M57.093,135.973v-8.59h1.055v8.59Z" transform="translate(-20.735 -15.073)"/><path class="cls-1" d="M59.759,135.973v-8.59h1.055v8.59Z" transform="translate(-20.735 -15.073)"/><path class="cls-1" d="M62.454,128.6v-1.213h1.055V128.6Zm0,7.377V129.75h1.055v6.223Z" transform="translate(-20.735 -15.073)"/><path class="cls-1" d="M64.722,132.862a3.207,3.207,0,0,1,.961-2.561,2.9,2.9,0,0,1,1.957-.691,2.792,2.792,0,0,1,2.1.841,3.2,3.2,0,0,1,.814,2.323,4.117,4.117,0,0,1-.36,1.89,2.551,2.551,0,0,1-1.049,1.069,3.054,3.054,0,0,1-1.5.381,2.8,2.8,0,0,1-2.112-.838A3.347,3.347,0,0,1,64.722,132.862Zm1.084,0a2.65,2.65,0,0,0,.521,1.79,1.736,1.736,0,0,0,2.619,0,2.713,2.713,0,0,0,.521-1.822,2.571,2.571,0,0,0-.524-1.749,1.739,1.739,0,0,0-2.616,0A2.639,2.639,0,0,0,65.806,132.862Z" transform="translate(-20.735 -15.073)"/><path class="cls-1" d="M71.788,135.973V129.75h.949v.885a2.237,2.237,0,0,1,1.98-1.025,2.6,2.6,0,0,1,1.034.2,1.627,1.627,0,0,1,.706.53,2.035,2.035,0,0,1,.328.779,6.039,6.039,0,0,1,.059,1.025v3.826H75.79v-3.785a2.841,2.841,0,0,0-.123-.964,1.014,1.014,0,0,0-.437-.51,1.389,1.389,0,0,0-.735-.19,1.709,1.709,0,0,0-1.163.428,2.11,2.11,0,0,0-.489,1.623v3.4Z" transform="translate(-20.735 -15.073)"/><path class="cls-1" d="M23.3,180.992v-1.055a3.894,3.894,0,0,1-1.286-.354,2.242,2.242,0,0,1-.855-.823,2.946,2.946,0,0,1-.419-1.389l1.061-.2a2.675,2.675,0,0,0,.434,1.248,1.538,1.538,0,0,0,1.066.627v-3.357a4.406,4.406,0,0,1-1.33-.5,1.948,1.948,0,0,1-.776-.779,2.482,2.482,0,0,1,.524-2.953,2.772,2.772,0,0,1,1.582-.574v-.5h.621v.5a2.6,2.6,0,0,1,1.459.539,2.4,2.4,0,0,1,.832,1.576l-1.09.164a1.8,1.8,0,0,0-.39-.952,1.437,1.437,0,0,0-.812-.437v3.041a8.364,8.364,0,0,1,1.055.311,2.605,2.605,0,0,1,.8.527,2.121,2.121,0,0,1,.478.738,2.715,2.715,0,0,1-.53,2.754,2.558,2.558,0,0,1-1.8.785v1.066Zm0-9.234a1.563,1.563,0,0,0-.97.492,1.464,1.464,0,0,0-.053,1.846,2.079,2.079,0,0,0,1.022.58Zm.621,7.289a1.564,1.564,0,0,0,1.017-.533,1.652,1.652,0,0,0,.4-1.131,1.416,1.416,0,0,0-.284-.923,2.453,2.453,0,0,0-1.134-.624Z" transform="translate(-20.735 -15.073)"/><path class="cls-1" d="M29.1,175.1a1.985,1.985,0,0,1-.973-.686,1.793,1.793,0,0,1-.316-1.066,2.085,2.085,0,0,1,.674-1.576,2.836,2.836,0,0,1,3.6.015,2.115,2.115,0,0,1,.686,1.591,1.752,1.752,0,0,1-.313,1.04,1.977,1.977,0,0,1-.952.683,2.309,2.309,0,0,1,1.2.832,2.285,2.285,0,0,1,.413,1.371,2.468,2.468,0,0,1-.779,1.852,3.174,3.174,0,0,1-4.1,0,2.5,2.5,0,0,1-.779-1.878,2.27,2.27,0,0,1,.425-1.4A2.127,2.127,0,0,1,29.1,175.1Zm-.551,2.18a1.908,1.908,0,0,0,.214.873,1.509,1.509,0,0,0,.636.653,1.859,1.859,0,0,0,.908.231,1.7,1.7,0,0,0,1.248-.486,1.664,1.664,0,0,0,.492-1.236,1.692,1.692,0,0,0-.507-1.26,1.737,1.737,0,0,0-1.269-.5,1.678,1.678,0,0,0-1.723,1.723Zm.34-3.967a1.337,1.337,0,0,0,.393,1,1.391,1.391,0,0,0,1.02.387,1.364,1.364,0,0,0,1-.384,1.269,1.269,0,0,0,.39-.94,1.316,1.316,0,0,0-.4-.976,1.367,1.367,0,0,0-1-.4,1.381,1.381,0,0,0-1,.387A1.245,1.245,0,0,0,28.892,173.31Z" transform="translate(-20.735 -15.073)"/><path class="cls-1" d="M37.78,179.755v-6.223h.943v.873a2.218,2.218,0,0,1,.779-.735,2.189,2.189,0,0,1,1.107-.278,2.047,2.047,0,0,1,1.134.287,1.537,1.537,0,0,1,.624.8,2.234,2.234,0,0,1,1.922-1.09,1.894,1.894,0,0,1,1.424.513,2.191,2.191,0,0,1,.5,1.579v4.271H45.163v-3.92a2.886,2.886,0,0,0-.1-.911.883.883,0,0,0-.372-.448,1.161,1.161,0,0,0-.633-.17,1.473,1.473,0,0,0-1.09.437,1.923,1.923,0,0,0-.434,1.4v3.615H41.478v-4.043a1.779,1.779,0,0,0-.258-1.055.976.976,0,0,0-.844-.352,1.533,1.533,0,0,0-.823.234,1.329,1.329,0,0,0-.548.686,3.859,3.859,0,0,0-.17,1.3v3.229Z" transform="translate(-20.735 -15.073)"/><path class="cls-1" d="M47.782,172.378v-1.213h1.055v1.213Zm0,7.377v-6.223h1.055v6.223Z" transform="translate(-20.735 -15.073)"/><path class="cls-1" d="M50.419,179.755v-8.59h1.055v8.59Z" transform="translate(-20.735 -15.073)"/><path class="cls-1" d="M53.085,179.755v-8.59H54.14v8.59Z" transform="translate(-20.735 -15.073)"/><path class="cls-1" d="M55.78,172.378v-1.213h1.055v1.213Zm0,7.377v-6.223h1.055v6.223Z" transform="translate(-20.735 -15.073)"/><path class="cls-1" d="M58.048,176.644a3.207,3.207,0,0,1,.961-2.561,2.9,2.9,0,0,1,1.957-.691,2.792,2.792,0,0,1,2.1.841,3.2,3.2,0,0,1,.814,2.323,4.117,4.117,0,0,1-.36,1.89,2.551,2.551,0,0,1-1.049,1.069,3.054,3.054,0,0,1-1.5.381,2.8,2.8,0,0,1-2.112-.838A3.347,3.347,0,0,1,58.048,176.644Zm1.084,0a2.65,2.65,0,0,0,.521,1.79,1.736,1.736,0,0,0,2.619,0,2.713,2.713,0,0,0,.521-1.822,2.571,2.571,0,0,0-.524-1.749,1.739,1.739,0,0,0-2.616,0A2.639,2.639,0,0,0,59.132,176.644Z" transform="translate(-20.735 -15.073)"/><path class="cls-1" d="M65.114,179.755v-6.223h.949v.885a2.237,2.237,0,0,1,1.98-1.025,2.6,2.6,0,0,1,1.034.2,1.627,1.627,0,0,1,.706.53,2.035,2.035,0,0,1,.328.779,6.039,6.039,0,0,1,.059,1.025v3.826H69.116V175.97a2.841,2.841,0,0,0-.123-.964,1.014,1.014,0,0,0-.437-.51,1.389,1.389,0,0,0-.735-.19,1.709,1.709,0,0,0-1.163.428,2.11,2.11,0,0,0-.489,1.623v3.4Z" transform="translate(-20.735 -15.073)"/><path class="cls-1" d="M87.4,286.7v-1.055a3.894,3.894,0,0,1-1.286-.354,2.242,2.242,0,0,1-.855-.823,2.946,2.946,0,0,1-.419-1.389l1.061-.2a2.675,2.675,0,0,0,.434,1.248,1.538,1.538,0,0,0,1.066.627V281.4a4.406,4.406,0,0,1-1.33-.5,1.948,1.948,0,0,1-.776-.779,2.482,2.482,0,0,1,.524-2.953,2.772,2.772,0,0,1,1.582-.574v-.5h.621v.5a2.6,2.6,0,0,1,1.459.539,2.4,2.4,0,0,1,.832,1.576l-1.09.164a1.8,1.8,0,0,0-.39-.952,1.437,1.437,0,0,0-.812-.437v3.041a8.364,8.364,0,0,1,1.055.311,2.605,2.605,0,0,1,.8.527,2.121,2.121,0,0,1,.478.738,2.715,2.715,0,0,1-.53,2.754,2.558,2.558,0,0,1-1.8.785V286.7Zm0-9.234a1.563,1.563,0,0,0-.97.492,1.464,1.464,0,0,0-.053,1.846,2.079,2.079,0,0,0,1.022.58Zm.621,7.289a1.564,1.564,0,0,0,1.017-.533,1.652,1.652,0,0,0,.4-1.131,1.416,1.416,0,0,0-.284-.923,2.453,2.453,0,0,0-1.134-.624Z" transform="translate(-20.735 -15.073)"/><path class="cls-1" d="M91.582,281.228a7.86,7.86,0,0,1,.313-2.452,3.05,3.05,0,0,1,.932-1.433,2.382,2.382,0,0,1,1.556-.5,2.538,2.538,0,0,1,1.213.278,2.319,2.319,0,0,1,.861.8,4.306,4.306,0,0,1,.533,1.277,8.487,8.487,0,0,1,.193,2.03,7.882,7.882,0,0,1-.311,2.44,3.051,3.051,0,0,1-.929,1.436,2.382,2.382,0,0,1-1.562.507,2.357,2.357,0,0,1-1.951-.891A5.661,5.661,0,0,1,91.582,281.228Zm1.084,0a5.386,5.386,0,0,0,.5,2.815,1.414,1.414,0,0,0,2.443,0,8.252,8.252,0,0,0,0-5.631,1.47,1.47,0,0,0-1.233-.7,1.351,1.351,0,0,0-1.16.615A5.448,5.448,0,0,0,92.666,281.228Z" transform="translate(-20.735 -15.073)"/><path class="cls-1" d="M190.264,302.442a1.985,1.985,0,0,1-.973-.686,1.793,1.793,0,0,1-.316-1.066,2.085,2.085,0,0,1,.674-1.576,2.836,2.836,0,0,1,3.6.015,2.115,2.115,0,0,1,.686,1.591,1.752,1.752,0,0,1-.313,1.04,1.977,1.977,0,0,1-.952.683,2.309,2.309,0,0,1,1.2.832,2.285,2.285,0,0,1,.413,1.371,2.468,2.468,0,0,1-.779,1.852,3.174,3.174,0,0,1-4.1,0,2.5,2.5,0,0,1-.779-1.878,2.27,2.27,0,0,1,.425-1.4A2.127,2.127,0,0,1,190.264,302.442Zm-.551,2.18a1.908,1.908,0,0,0,.214.873,1.509,1.509,0,0,0,.636.653,1.859,1.859,0,0,0,.908.231,1.7,1.7,0,0,0,1.248-.486,1.664,1.664,0,0,0,.492-1.236,1.692,1.692,0,0,0-.507-1.26,1.737,1.737,0,0,0-1.269-.5,1.678,1.678,0,0,0-1.723,1.723Zm.34-3.967a1.337,1.337,0,0,0,.393,1,1.391,1.391,0,0,0,1.02.387,1.364,1.364,0,0,0,1-.384,1.269,1.269,0,0,0,.39-.94,1.316,1.316,0,0,0-.4-.976,1.367,1.367,0,0,0-1-.4,1.381,1.381,0,0,0-1,.387A1.245,1.245,0,0,0,190.053,300.655Z" transform="translate(-20.735 -15.073)"/><path class="cls-1" d="M195.315,302.864a7.86,7.86,0,0,1,.313-2.452,3.05,3.05,0,0,1,.932-1.433,2.382,2.382,0,0,1,1.556-.5,2.538,2.538,0,0,1,1.213.278,2.319,2.319,0,0,1,.861.8,4.306,4.306,0,0,1,.533,1.277,8.487,8.487,0,0,1,.193,2.03,7.882,7.882,0,0,1-.311,2.44,3.051,3.051,0,0,1-.929,1.436,2.382,2.382,0,0,1-1.562.507,2.357,2.357,0,0,1-1.951-.891A5.661,5.661,0,0,1,195.315,302.864Zm1.084,0a5.386,5.386,0,0,0,.5,2.815,1.414,1.414,0,0,0,2.443,0,8.252,8.252,0,0,0,0-5.631,1.47,1.47,0,0,0-1.233-.7,1.351,1.351,0,0,0-1.16.615A5.448,5.448,0,0,0,196.4,302.864Z" transform="translate(-20.735 -15.073)"/><path class="cls-1" d="M230.912,306.882h-1.055v-6.721a5.451,5.451,0,0,1-1,.727,7.082,7.082,0,0,1-1.11.545v-1.02a6.369,6.369,0,0,0,1.547-1.008,3.964,3.964,0,0,0,.938-1.148h.68Z" transform="translate(-20.735 -15.073)"/><path class="cls-1" d="M233.613,302.646a7.86,7.86,0,0,1,.313-2.452,3.05,3.05,0,0,1,.932-1.433,2.382,2.382,0,0,1,1.556-.5,2.538,2.538,0,0,1,1.213.278,2.319,2.319,0,0,1,.861.8,4.306,4.306,0,0,1,.533,1.277,8.487,8.487,0,0,1,.193,2.03,7.882,7.882,0,0,1-.311,2.44,3.051,3.051,0,0,1-.929,1.436,2.382,2.382,0,0,1-1.562.507,2.357,2.357,0,0,1-1.951-.891A5.661,5.661,0,0,1,233.613,302.646Zm1.084,0a5.386,5.386,0,0,0,.5,2.815,1.414,1.414,0,0,0,2.443,0,8.252,8.252,0,0,0,0-5.631,1.47,1.47,0,0,0-1.233-.7,1.351,1.351,0,0,0-1.16.615A5.448,5.448,0,0,0,234.7,302.646Z" transform="translate(-20.735 -15.073)"/><path class="cls-1" d="M240.287,302.646a7.86,7.86,0,0,1,.313-2.452,3.05,3.05,0,0,1,.932-1.433,2.382,2.382,0,0,1,1.556-.5,2.538,2.538,0,0,1,1.213.278,2.319,2.319,0,0,1,.861.8,4.306,4.306,0,0,1,.533,1.277,8.487,8.487,0,0,1,.193,2.03,7.882,7.882,0,0,1-.311,2.44,3.051,3.051,0,0,1-.929,1.436,2.382,2.382,0,0,1-1.562.507,2.357,2.357,0,0,1-1.951-.891A5.661,5.661,0,0,1,240.287,302.646Zm1.084,0a5.386,5.386,0,0,0,.5,2.815,1.414,1.414,0,0,0,2.443,0,8.252,8.252,0,0,0,0-5.631,1.47,1.47,0,0,0-1.233-.7,1.351,1.351,0,0,0-1.16.615A5.448,5.448,0,0,0,241.371,302.646Z" transform="translate(-20.735 -15.073)"/><path class="cls-1" d="M272.74,305.564h-1.055v-6.721a5.451,5.451,0,0,1-1,.727,7.082,7.082,0,0,1-1.11.545V299.1a6.369,6.369,0,0,0,1.547-1.008,3.964,3.964,0,0,0,.938-1.148h.68Z" transform="translate(-20.735 -15.073)"/><path class="cls-1" d="M280.984,304.551v1.014h-5.678a1.866,1.866,0,0,1,.123-.732,3.875,3.875,0,0,1,.694-1.143,10.878,10.878,0,0,1,1.38-1.3,11.7,11.7,0,0,0,1.893-1.819,2.178,2.178,0,0,0,.492-1.269,1.409,1.409,0,0,0-.448-1.058,1.617,1.617,0,0,0-1.169-.431,1.647,1.647,0,0,0-1.219.457,1.729,1.729,0,0,0-.463,1.266l-1.084-.111a2.668,2.668,0,0,1,.838-1.849,2.858,2.858,0,0,1,1.951-.636,2.723,2.723,0,0,1,1.957.686,2.251,2.251,0,0,1,.721,1.7,2.577,2.577,0,0,1-.211,1.014,3.934,3.934,0,0,1-.7,1.049,17.058,17.058,0,0,1-1.626,1.512q-.949.8-1.219,1.081a3.468,3.468,0,0,0-.445.571Z" transform="translate(-20.735 -15.073)"/><path class="cls-1" d="M282.115,301.328a7.86,7.86,0,0,1,.313-2.452,3.05,3.05,0,0,1,.932-1.433,2.382,2.382,0,0,1,1.556-.5,2.538,2.538,0,0,1,1.213.278,2.319,2.319,0,0,1,.861.8,4.306,4.306,0,0,1,.533,1.277,8.487,8.487,0,0,1,.193,2.03,7.882,7.882,0,0,1-.311,2.44,3.051,3.051,0,0,1-.929,1.436,2.382,2.382,0,0,1-1.562.507,2.357,2.357,0,0,1-1.951-.891A5.661,5.661,0,0,1,282.115,301.328Zm1.084,0a5.386,5.386,0,0,0,.5,2.815,1.414,1.414,0,0,0,2.443,0,8.252,8.252,0,0,0,0-5.631,1.47,1.47,0,0,0-1.233-.7,1.351,1.351,0,0,0-1.16.615A5.448,5.448,0,0,0,283.2,301.328Z" transform="translate(-20.735 -15.073)"/><path class="cls-1" d="M313.259,305.564H312.2v-6.721a5.451,5.451,0,0,1-1,.727,7.082,7.082,0,0,1-1.11.545V299.1a6.369,6.369,0,0,0,1.547-1.008,3.964,3.964,0,0,0,.938-1.148h.68Z" transform="translate(-20.735 -15.073)"/><path class="cls-1" d="M319.341,305.564v-2.057h-3.727v-.967l3.92-5.566h.861v5.566h1.16v.967H320.4v2.057Zm0-3.023v-3.873l-2.689,3.873Z" transform="translate(-20.735 -15.073)"/><path class="cls-1" d="M322.634,301.328a7.86,7.86,0,0,1,.313-2.452,3.05,3.05,0,0,1,.932-1.433,2.382,2.382,0,0,1,1.556-.5,2.538,2.538,0,0,1,1.213.278,2.319,2.319,0,0,1,.861.8,4.306,4.306,0,0,1,.533,1.277,8.487,8.487,0,0,1,.193,2.03,7.882,7.882,0,0,1-.311,2.44A3.051,3.051,0,0,1,327,305.2a2.382,2.382,0,0,1-1.562.507,2.357,2.357,0,0,1-1.951-.891A5.661,5.661,0,0,1,322.634,301.328Zm1.084,0a5.386,5.386,0,0,0,.5,2.815,1.414,1.414,0,0,0,2.443,0,8.252,8.252,0,0,0,0-5.631,1.47,1.47,0,0,0-1.233-.7,1.351,1.351,0,0,0-1.16.615A5.448,5.448,0,0,0,323.718,301.328Z" transform="translate(-20.735 -15.073)"/><line class="cls-2" x1="80.47" y1="39.347" x2="63.675" y2="39.347"/><line class="cls-2" x1="80.47" y1="78.029" x2="63.675" y2="78.029"/><line class="cls-2" x1="80.47" y1="118.238" x2="63.675" y2="118.238"/><line class="cls-2" x1="80.47" y1="161.02" x2="63.675" y2="161.02"/><line class="cls-2" x1="174.082" y1="257.516" x2="174.082" y2="274.311"/><line class="cls-2" x1="215.717" y1="257.516" x2="215.717" y2="274.311"/><line class="cls-2" x1="257.544" y1="257.516" x2="257.544" y2="274.311"/><line class="cls-2" x1="298.063" y1="257.516" x2="298.063" y2="274.311"/><line class="cls-3" x1="80.47" y1="78.029" x2="86.47" y2="78.029"/><line class="cls-4" x1="99.145" y1="78.029" x2="244.911" y2="78.029"/><line class="cls-3" x1="251.248" y1="78.029" x2="257.248" y2="78.029"/><line class="cls-3" x1="257.248" y1="78.029" x2="257.248" y2="84.029"/><line class="cls-5" x1="257.248" y1="96.913" x2="257.248" y2="245.075"/><line class="cls-3" x1="257.248" y1="251.517" x2="257.248" y2="257.517"/><line class="cls-6" x1="80.47" y1="161.63" x2="86.47" y2="161.63"/><line class="cls-7" x1="98.129" y1="161.63" x2="162.253" y2="161.63"/><line class="cls-6" x1="168.082" y1="161.63" x2="174.082" y2="161.63"/><line class="cls-6" x1="174.082" y1="161.63" x2="174.082" y2="167.63"/><line class="cls-8" x1="174.082" y1="179.614" x2="174.082" y2="245.525"/><line class="cls-6" x1="174.082" y1="251.517" x2="174.082" y2="257.517"/><line class="cls-2" x1="80.47" y1="15.484" x2="80.47" y2="257.517"/><line class="cls-2" x1="80.47" y1="257.517" x2="341.748" y2="257.517"/><line class="cls-9" x1="80.47" y1="257.517" x2="284.957" y2="49.158"/></svg>