<svg id="Layer_1" data-name="Layer 1" xmlns="http://www.w3.org/2000/svg" viewBox="0 0 450.554 327.174"><defs><style>.cls-1{fill:#a0dcf1;}.cls-2{fill:#231f20;}.cls-12,.cls-13,.cls-3,.cls-4,.cls-5,.cls-6,.cls-7,.cls-8,.cls-9{fill:none;stroke-miterlimit:10;}.cls-3,.cls-8,.cls-9{stroke:#231f20;}.cls-12,.cls-4,.cls-5{stroke:#4069b2;}.cls-4,.cls-5,.cls-6,.cls-7,.cls-9{stroke-width:2px;}.cls-5{stroke-dasharray:12.128 12.128;}.cls-6,.cls-7{stroke:#ed1c24;}.cls-7{stroke-dasharray:11.571 11.571;}.cls-8{stroke-width:3px;}.cls-10{fill:#4069b2;}.cls-11{fill:#ec2127;}.cls-13{stroke:#ec2127;}</style></defs><title>Hedging_Strategies_Zero_Premium_Collars</title><rect class="cls-1" x="80.47" y="74.347" width="217.594" height="78.891"/><rect class="cls-1" x="215.717" y="150.008" width="82.347" height="142.509"/><path class="cls-2" d="M97,24.81l-3.328-8.59H94.9l2.232,6.24q.27.75.451,1.406.2-.7.463-1.406l2.32-6.24h1.16l-3.363,8.59Z" transform="translate(-56.735 -16.073)"/><path class="cls-2" d="M105.584,24.042a3.927,3.927,0,0,1-1.128.7,3.259,3.259,0,0,1-1.163.205,2.262,2.262,0,0,1-1.576-.5,1.654,1.654,0,0,1-.551-1.28,1.7,1.7,0,0,1,.208-.835,1.722,1.722,0,0,1,.545-.606,2.562,2.562,0,0,1,.759-.346,7.536,7.536,0,0,1,.938-.158,9.64,9.64,0,0,0,1.881-.363q.006-.217.006-.275a1.164,1.164,0,0,0-.3-.908,1.765,1.765,0,0,0-1.2-.357,1.863,1.863,0,0,0-1.1.261,1.593,1.593,0,0,0-.524.923l-1.031-.141a2.555,2.555,0,0,1,.463-1.069,2.029,2.029,0,0,1,.932-.627,4.155,4.155,0,0,1,1.412-.22,3.738,3.738,0,0,1,1.295.188,1.706,1.706,0,0,1,.732.472,1.659,1.659,0,0,1,.328.718,5.938,5.938,0,0,1,.053.973V22.2a14.926,14.926,0,0,0,.067,1.86,2.347,2.347,0,0,0,.267.747h-1.1A2.236,2.236,0,0,1,105.584,24.042Zm-.088-2.355a7.738,7.738,0,0,1-1.723.4,3.985,3.985,0,0,0-.92.211.917.917,0,0,0-.416.343.932.932,0,0,0,.173,1.2,1.374,1.374,0,0,0,.935.281,2.175,2.175,0,0,0,1.084-.267,1.642,1.642,0,0,0,.7-.729,2.548,2.548,0,0,0,.17-1.055Z" transform="translate(-56.735 -16.073)"/><path class="cls-2" d="M108.174,24.81V16.22h1.055v8.59Z" transform="translate(-56.735 -16.073)"/><path class="cls-2" d="M114.942,24.81V23.9a2.278,2.278,0,0,1-1.975,1.055,2.516,2.516,0,0,1-1.028-.211,1.694,1.694,0,0,1-.709-.53,1.987,1.987,0,0,1-.325-.782,5.356,5.356,0,0,1-.064-.984V18.587H111.9v3.451a6.15,6.15,0,0,0,.064,1.113,1.1,1.1,0,0,0,.422.653,1.307,1.307,0,0,0,.8.237,1.736,1.736,0,0,0,.891-.243,1.352,1.352,0,0,0,.589-.662,3.322,3.322,0,0,0,.173-1.216V18.587h1.055V24.81Z" transform="translate(-56.735 -16.073)"/><path class="cls-2" d="M121.8,22.806l1.09.135a2.659,2.659,0,0,1-.955,1.482,3.236,3.236,0,0,1-3.946-.313,3.285,3.285,0,0,1-.8-2.358,3.438,3.438,0,0,1,.809-2.437,2.737,2.737,0,0,1,2.1-.867,2.66,2.66,0,0,1,2.039.85,3.376,3.376,0,0,1,.791,2.391q0,.094-.006.281h-4.641a2.391,2.391,0,0,0,.58,1.57,1.727,1.727,0,0,0,1.3.545,1.614,1.614,0,0,0,.99-.3A2.023,2.023,0,0,0,121.8,22.806ZM118.334,21.1h3.475a2.108,2.108,0,0,0-.4-1.178,1.616,1.616,0,0,0-1.307-.609,1.675,1.675,0,0,0-1.222.486A1.925,1.925,0,0,0,118.334,21.1Z" transform="translate(-56.735 -16.073)"/><path class="cls-2" d="M127.153,21.7a3.207,3.207,0,0,1,.961-2.561,2.9,2.9,0,0,1,1.957-.691,2.792,2.792,0,0,1,2.1.841,3.2,3.2,0,0,1,.814,2.323,4.117,4.117,0,0,1-.36,1.89,2.551,2.551,0,0,1-1.049,1.069,3.054,3.054,0,0,1-1.5.381,2.8,2.8,0,0,1-2.112-.838A3.347,3.347,0,0,1,127.153,21.7Zm1.084,0a2.65,2.65,0,0,0,.521,1.79,1.736,1.736,0,0,0,2.619,0,2.713,2.713,0,0,0,.521-1.822,2.571,2.571,0,0,0-.524-1.749,1.739,1.739,0,0,0-2.616,0A2.639,2.639,0,0,0,128.237,21.7Z" transform="translate(-56.735 -16.073)"/><path class="cls-2" d="M134.471,24.81v-5.4h-.932v-.82h.932v-.662a2.9,2.9,0,0,1,.111-.932,1.349,1.349,0,0,1,.536-.665,1.932,1.932,0,0,1,1.075-.255,5.163,5.163,0,0,1,.984.105l-.158.92a3.539,3.539,0,0,0-.621-.059.924.924,0,0,0-.68.205,1.112,1.112,0,0,0-.2.768v.574h1.213v.82H135.52v5.4Z" transform="translate(-56.735 -16.073)"/><path class="cls-2" d="M141.057,24.81V16.22h1.137v3.527h4.465V16.22H147.8v8.59h-1.137V20.761h-4.465V24.81Z" transform="translate(-56.735 -16.073)"/><path class="cls-2" d="M149.161,21.7a3.207,3.207,0,0,1,.961-2.561,2.9,2.9,0,0,1,1.957-.691,2.792,2.792,0,0,1,2.1.841,3.2,3.2,0,0,1,.814,2.323,4.117,4.117,0,0,1-.36,1.89,2.551,2.551,0,0,1-1.049,1.069,3.054,3.054,0,0,1-1.5.381,2.8,2.8,0,0,1-2.112-.838A3.347,3.347,0,0,1,149.161,21.7Zm1.084,0a2.65,2.65,0,0,0,.521,1.79,1.736,1.736,0,0,0,2.619,0,2.713,2.713,0,0,0,.521-1.822,2.571,2.571,0,0,0-.524-1.749,1.739,1.739,0,0,0-2.616,0A2.639,2.639,0,0,0,150.245,21.7Z" transform="translate(-56.735 -16.073)"/><path class="cls-2" d="M156.2,24.81V16.22h1.055v8.59Z" transform="translate(-56.735 -16.073)"/><path class="cls-2" d="M162.93,24.81v-.785a1.935,1.935,0,0,1-1.74.926,2.44,2.44,0,0,1-1.368-.41,2.7,2.7,0,0,1-.967-1.146,3.959,3.959,0,0,1-.343-1.69,4.424,4.424,0,0,1,.311-1.69,2.449,2.449,0,0,1,.932-1.163,2.491,2.491,0,0,1,1.389-.4,2.075,2.075,0,0,1,1.717.855V16.22h1.049v8.59ZM159.6,21.7a2.7,2.7,0,0,0,.5,1.787,1.519,1.519,0,0,0,1.189.592,1.492,1.492,0,0,0,1.175-.565,2.607,2.607,0,0,0,.483-1.726,2.926,2.926,0,0,0-.492-1.875,1.514,1.514,0,0,0-1.213-.6,1.461,1.461,0,0,0-1.175.574A2.834,2.834,0,0,0,159.6,21.7Z" transform="translate(-56.735 -16.073)"/><path class="cls-2" d="M165.573,17.433V16.22h1.055v1.213Zm0,7.377V18.587h1.055V24.81Z" transform="translate(-56.735 -16.073)"/><path class="cls-2" d="M168.233,24.81V18.587h.949v.885a2.237,2.237,0,0,1,1.98-1.025,2.6,2.6,0,0,1,1.034.2,1.627,1.627,0,0,1,.706.53,2.035,2.035,0,0,1,.328.779,6.039,6.039,0,0,1,.059,1.025V24.81h-1.055V21.024a2.841,2.841,0,0,0-.123-.964,1.014,1.014,0,0,0-.437-.51,1.389,1.389,0,0,0-.735-.19,1.709,1.709,0,0,0-1.163.428,2.11,2.11,0,0,0-.489,1.623v3.4Z" transform="translate(-56.735 -16.073)"/><path class="cls-2" d="M174.713,25.325l1.025.152a.977.977,0,0,0,.357.691,1.756,1.756,0,0,0,1.072.293,1.883,1.883,0,0,0,1.131-.293,1.442,1.442,0,0,0,.539-.82A6.736,6.736,0,0,0,178.915,24a2.169,2.169,0,0,1-1.723.814,2.349,2.349,0,0,1-1.986-.926,3.565,3.565,0,0,1-.7-2.221,4.133,4.133,0,0,1,.322-1.644,2.578,2.578,0,0,1,.935-1.163,2.524,2.524,0,0,1,1.438-.41,2.231,2.231,0,0,1,1.816.891v-.75h.973v5.379a5.1,5.1,0,0,1-.3,2.06,2.164,2.164,0,0,1-.937.958,3.249,3.249,0,0,1-1.579.352,2.978,2.978,0,0,1-1.8-.5A1.694,1.694,0,0,1,174.713,25.325Zm.873-3.738a2.7,2.7,0,0,0,.486,1.787,1.6,1.6,0,0,0,2.438,0A2.612,2.612,0,0,0,179,21.622,2.552,2.552,0,0,0,178.5,19.9a1.567,1.567,0,0,0-1.222-.58,1.522,1.522,0,0,0-1.2.571A2.537,2.537,0,0,0,175.586,21.587Z" transform="translate(-56.735 -16.073)"/><path class="cls-2" d="M418.654,309.492l1.072-.094a2.368,2.368,0,0,0,.354,1.058,1.935,1.935,0,0,0,.864.668,3.273,3.273,0,0,0,1.318.255,3.159,3.159,0,0,0,1.148-.193,1.593,1.593,0,0,0,.741-.53,1.23,1.23,0,0,0,.243-.735,1.118,1.118,0,0,0-.234-.706,1.736,1.736,0,0,0-.773-.507,15.117,15.117,0,0,0-1.529-.419,7.814,7.814,0,0,1-1.658-.536,2.325,2.325,0,0,1-.917-.8,1.96,1.96,0,0,1-.3-1.069,2.183,2.183,0,0,1,.369-1.216,2.286,2.286,0,0,1,1.078-.858,4.09,4.09,0,0,1,1.576-.293,4.306,4.306,0,0,1,1.685.308,2.43,2.43,0,0,1,1.122.905,2.6,2.6,0,0,1,.422,1.354l-1.09.082a1.758,1.758,0,0,0-.595-1.23,2.315,2.315,0,0,0-1.5-.416,2.4,2.4,0,0,0-1.5.378,1.133,1.133,0,0,0-.472.911.977.977,0,0,0,.334.762,4.526,4.526,0,0,0,1.714.612,11.336,11.336,0,0,1,1.9.548,2.6,2.6,0,0,1,1.107.876,2.134,2.134,0,0,1,.357,1.222,2.336,2.336,0,0,1-.393,1.292,2.585,2.585,0,0,1-1.128.943,3.93,3.93,0,0,1-1.655.337,4.942,4.942,0,0,1-1.954-.34,2.737,2.737,0,0,1-1.236-1.022A2.9,2.9,0,0,1,418.654,309.492Z" transform="translate(-56.735 -16.073)"/><path class="cls-2" d="M429.213,311.309l.152.932a3.912,3.912,0,0,1-.8.094,1.8,1.8,0,0,1-.891-.182,1.017,1.017,0,0,1-.445-.478,3.776,3.776,0,0,1-.129-1.245v-3.58h-.773v-.82h.773v-1.541l1.049-.633v2.174h1.061v.82h-1.061v3.639a1.838,1.838,0,0,0,.056.58.439.439,0,0,0,.182.205.7.7,0,0,0,.36.076A3.431,3.431,0,0,0,429.213,311.309Z" transform="translate(-56.735 -16.073)"/><path class="cls-2" d="M429.852,309.141a3.207,3.207,0,0,1,.961-2.561,2.9,2.9,0,0,1,1.957-.691,2.792,2.792,0,0,1,2.1.841,3.2,3.2,0,0,1,.814,2.323,4.117,4.117,0,0,1-.36,1.89,2.551,2.551,0,0,1-1.049,1.069,3.054,3.054,0,0,1-1.5.381,2.8,2.8,0,0,1-2.112-.838A3.347,3.347,0,0,1,429.852,309.141Zm1.084,0a2.65,2.65,0,0,0,.521,1.79,1.736,1.736,0,0,0,2.619,0,2.713,2.713,0,0,0,.521-1.822,2.571,2.571,0,0,0-.524-1.749,1.739,1.739,0,0,0-2.616,0A2.639,2.639,0,0,0,430.936,309.141Z" transform="translate(-56.735 -16.073)"/><path class="cls-2" d="M440.979,309.973l1.037.135a2.69,2.69,0,0,1-.87,1.679,2.535,2.535,0,0,1-1.72.606,2.672,2.672,0,0,1-2.054-.835,3.388,3.388,0,0,1-.776-2.394,4.331,4.331,0,0,1,.334-1.764,2.329,2.329,0,0,1,1.017-1.134,3.016,3.016,0,0,1,1.485-.378,2.582,2.582,0,0,1,1.658.513,2.351,2.351,0,0,1,.826,1.456l-1.025.158a1.7,1.7,0,0,0-.519-.943,1.342,1.342,0,0,0-.9-.316,1.637,1.637,0,0,0-1.295.571,2.712,2.712,0,0,0-.5,1.808,2.8,2.8,0,0,0,.48,1.822,1.564,1.564,0,0,0,1.254.568,1.478,1.478,0,0,0,1.037-.381A1.89,1.89,0,0,0,440.979,309.973Z" transform="translate(-56.735 -16.073)"/><path class="cls-2" d="M442.924,312.252v-8.59h1.055v4.9l2.5-2.531h1.365l-2.379,2.309,2.619,3.914h-1.3l-2.057-3.182-.744.715v2.467Z" transform="translate(-56.735 -16.073)"/><path class="cls-2" d="M452.387,312.252v-8.59h3.24a7.823,7.823,0,0,1,1.307.082,2.588,2.588,0,0,1,1.061.4,2.106,2.106,0,0,1,.688.829,2.8,2.8,0,0,1-.437,3.026,3.345,3.345,0,0,1-2.52.759h-2.2v3.492Zm1.137-4.506h2.221a2.355,2.355,0,0,0,1.564-.41,1.461,1.461,0,0,0,.463-1.154,1.553,1.553,0,0,0-.272-.923,1.274,1.274,0,0,0-.718-.507,4.857,4.857,0,0,0-1.061-.076h-2.2Z" transform="translate(-56.735 -16.073)"/><path class="cls-2" d="M460.244,312.252v-6.223h.949v.943a2.574,2.574,0,0,1,.671-.873,1.171,1.171,0,0,1,.677-.211,2.057,2.057,0,0,1,1.084.34l-.363.979a1.509,1.509,0,0,0-.773-.229,1,1,0,0,0-.621.208,1.127,1.127,0,0,0-.393.577,4.108,4.108,0,0,0-.176,1.23v3.258Z" transform="translate(-56.735 -16.073)"/><path class="cls-2" d="M464.258,304.875v-1.213h1.055v1.213Zm0,7.377v-6.223h1.055v6.223Z" transform="translate(-56.735 -16.073)"/><path class="cls-2" d="M470.979,309.973l1.037.135a2.69,2.69,0,0,1-.87,1.679,2.535,2.535,0,0,1-1.72.606,2.672,2.672,0,0,1-2.054-.835,3.388,3.388,0,0,1-.776-2.394,4.331,4.331,0,0,1,.334-1.764,2.329,2.329,0,0,1,1.017-1.134,3.016,3.016,0,0,1,1.485-.378,2.582,2.582,0,0,1,1.658.513,2.351,2.351,0,0,1,.826,1.456l-1.025.158a1.7,1.7,0,0,0-.519-.943,1.342,1.342,0,0,0-.9-.316,1.637,1.637,0,0,0-1.295.571,2.712,2.712,0,0,0-.5,1.808,2.8,2.8,0,0,0,.48,1.822,1.564,1.564,0,0,0,1.254.568,1.478,1.478,0,0,0,1.037-.381A1.89,1.89,0,0,0,470.979,309.973Z" transform="translate(-56.735 -16.073)"/><path class="cls-2" d="M477.178,310.248l1.09.135a2.659,2.659,0,0,1-.955,1.482,3.236,3.236,0,0,1-3.946-.313,3.285,3.285,0,0,1-.8-2.358,3.438,3.438,0,0,1,.809-2.437,2.737,2.737,0,0,1,2.1-.867,2.66,2.66,0,0,1,2.039.85,3.376,3.376,0,0,1,.791,2.391q0,.094-.006.281h-4.641a2.391,2.391,0,0,0,.58,1.57,1.727,1.727,0,0,0,1.3.545,1.614,1.614,0,0,0,.99-.3A2.023,2.023,0,0,0,477.178,310.248Zm-3.463-1.705h3.475a2.108,2.108,0,0,0-.4-1.178,1.616,1.616,0,0,0-1.307-.609,1.675,1.675,0,0,0-1.222.486A1.925,1.925,0,0,0,473.715,308.543Z" transform="translate(-56.735 -16.073)"/><path class="cls-2" d="M403.3,95.029v-8.59h1.137v8.59Z" transform="translate(-56.735 -16.073)"/><path class="cls-2" d="M406.3,95.029V88.807h.949v.885a2.237,2.237,0,0,1,1.98-1.025,2.6,2.6,0,0,1,1.034.2,1.627,1.627,0,0,1,.706.53,2.035,2.035,0,0,1,.328.779,6.039,6.039,0,0,1,.059,1.025v3.826H410.3V91.244a2.841,2.841,0,0,0-.123-.964,1.014,1.014,0,0,0-.437-.51,1.389,1.389,0,0,0-.735-.19,1.709,1.709,0,0,0-1.163.428,2.11,2.11,0,0,0-.489,1.623v3.4Z" transform="translate(-56.735 -16.073)"/><path class="cls-2" d="M414.705,95.029l-2.367-6.223h1.113l1.336,3.727q.217.6.4,1.254.141-.492.393-1.184l1.383-3.8h1.084l-2.355,6.223Z" transform="translate(-56.735 -16.073)"/><path class="cls-2" d="M423.236,93.025l1.09.135a2.659,2.659,0,0,1-.955,1.482,3.236,3.236,0,0,1-3.946-.313,3.285,3.285,0,0,1-.8-2.358,3.438,3.438,0,0,1,.809-2.437,2.737,2.737,0,0,1,2.1-.867,2.66,2.66,0,0,1,2.039.85,3.376,3.376,0,0,1,.791,2.391q0,.094-.006.281h-4.641a2.391,2.391,0,0,0,.58,1.57,1.727,1.727,0,0,0,1.3.545,1.614,1.614,0,0,0,.99-.3A2.023,2.023,0,0,0,423.236,93.025Zm-3.463-1.705h3.475a2.108,2.108,0,0,0-.4-1.178,1.616,1.616,0,0,0-1.307-.609,1.675,1.675,0,0,0-1.222.486A1.925,1.925,0,0,0,419.773,91.32Z" transform="translate(-56.735 -16.073)"/><path class="cls-2" d="M425.229,93.172l1.043-.164a1.458,1.458,0,0,0,.489.961,1.705,1.705,0,0,0,1.122.334,1.648,1.648,0,0,0,1.078-.3.885.885,0,0,0,.352-.694A.641.641,0,0,0,429,92.75a4.574,4.574,0,0,0-1.078-.357,9.838,9.838,0,0,1-1.608-.507,1.535,1.535,0,0,1-.911-1.427,1.6,1.6,0,0,1,.19-.771,1.708,1.708,0,0,1,.519-.589,2.174,2.174,0,0,1,.671-.308,3.19,3.19,0,0,1,.911-.126,3.6,3.6,0,0,1,1.286.211,1.749,1.749,0,0,1,.817.571,2.232,2.232,0,0,1,.363.964l-1.031.141a1.128,1.128,0,0,0-.407-.75,1.489,1.489,0,0,0-.952-.27,1.724,1.724,0,0,0-1.037.24.7.7,0,0,0-.311.563.582.582,0,0,0,.129.369.93.93,0,0,0,.4.281q.158.059.932.27a12.969,12.969,0,0,1,1.562.489,1.584,1.584,0,0,1,.694.554,1.546,1.546,0,0,1,.252.9,1.771,1.771,0,0,1-.308.993,1.988,1.988,0,0,1-.888.721,3.231,3.231,0,0,1-1.312.255,2.924,2.924,0,0,1-1.849-.5A2.343,2.343,0,0,1,425.229,93.172Z" transform="translate(-56.735 -16.073)"/><path class="cls-2" d="M433.953,94.086l.152.932a3.912,3.912,0,0,1-.8.094,1.8,1.8,0,0,1-.891-.182,1.017,1.017,0,0,1-.445-.478,3.776,3.776,0,0,1-.129-1.245v-3.58h-.773v-.82h.773V87.266l1.049-.633v2.174h1.061v.82h-1.061v3.639a1.838,1.838,0,0,0,.056.58.439.439,0,0,0,.182.205.7.7,0,0,0,.36.076A3.431,3.431,0,0,0,433.953,94.086Z" transform="translate(-56.735 -16.073)"/><path class="cls-2" d="M434.592,91.918a3.207,3.207,0,0,1,.961-2.561,2.9,2.9,0,0,1,1.957-.691,2.792,2.792,0,0,1,2.1.841,3.2,3.2,0,0,1,.814,2.323,4.117,4.117,0,0,1-.36,1.89,2.551,2.551,0,0,1-1.049,1.069,3.054,3.054,0,0,1-1.5.381,2.8,2.8,0,0,1-2.112-.838A3.347,3.347,0,0,1,434.592,91.918Zm1.084,0a2.65,2.65,0,0,0,.521,1.79,1.736,1.736,0,0,0,2.619,0,2.713,2.713,0,0,0,.521-1.822,2.571,2.571,0,0,0-.524-1.749,1.739,1.739,0,0,0-2.616,0A2.639,2.639,0,0,0,435.676,91.918Z" transform="translate(-56.735 -16.073)"/><path class="cls-2" d="M441.646,95.029V88.807h.949v.943a2.574,2.574,0,0,1,.671-.873,1.171,1.171,0,0,1,.677-.211,2.057,2.057,0,0,1,1.084.34l-.363.979a1.509,1.509,0,0,0-.773-.229,1,1,0,0,0-.621.208,1.127,1.127,0,0,0-.393.577,4.108,4.108,0,0,0-.176,1.23v3.258Z" transform="translate(-56.735 -16.073)"/><path class="cls-2" d="M446.035,87.576V86.352h1.131v.967a2.585,2.585,0,0,1-.182,1.131,1.6,1.6,0,0,1-.785.715l-.258-.416a.916.916,0,0,0,.472-.407,1.708,1.708,0,0,0,.173-.765Z" transform="translate(-56.735 -16.073)"/><path class="cls-2" d="M448.127,93.172l1.043-.164a1.458,1.458,0,0,0,.489.961,1.705,1.705,0,0,0,1.122.334,1.648,1.648,0,0,0,1.078-.3.885.885,0,0,0,.352-.694.641.641,0,0,0-.311-.562,4.574,4.574,0,0,0-1.078-.357,9.838,9.838,0,0,1-1.608-.507,1.535,1.535,0,0,1-.911-1.427,1.6,1.6,0,0,1,.19-.771,1.708,1.708,0,0,1,.519-.589,2.174,2.174,0,0,1,.671-.308,3.19,3.19,0,0,1,.911-.126,3.6,3.6,0,0,1,1.286.211,1.749,1.749,0,0,1,.817.571,2.232,2.232,0,0,1,.363.964l-1.031.141a1.128,1.128,0,0,0-.407-.75,1.489,1.489,0,0,0-.952-.27,1.724,1.724,0,0,0-1.037.24.7.7,0,0,0-.311.563.582.582,0,0,0,.129.369.93.93,0,0,0,.4.281q.158.059.932.27a12.969,12.969,0,0,1,1.562.489,1.584,1.584,0,0,1,.694.554,1.546,1.546,0,0,1,.252.9,1.771,1.771,0,0,1-.308.993,1.988,1.988,0,0,1-.888.721,3.231,3.231,0,0,1-1.312.255,2.924,2.924,0,0,1-1.849-.5A2.343,2.343,0,0,1,448.127,93.172Z" transform="translate(-56.735 -16.073)"/><path class="cls-2" d="M458.041,95.029v-8.59h6.211v1.014h-5.074v2.631h4.752v1.008h-4.752v2.924h5.273v1.014Z" transform="translate(-56.735 -16.073)"/><path class="cls-2" d="M465.184,95.029l2.273-3.234-2.1-2.988h1.318l.955,1.459q.27.416.434.7.258-.387.475-.686l1.049-1.471h1.26l-2.15,2.93,2.314,3.293h-1.295L468.436,93.1l-.34-.521-1.635,2.455Z" transform="translate(-56.735 -16.073)"/><path class="cls-2" d="M471.887,97.414V88.807h.961v.809a2.369,2.369,0,0,1,.768-.712,2.109,2.109,0,0,1,1.037-.237,2.459,2.459,0,0,1,1.406.41,2.517,2.517,0,0,1,.92,1.157,4.225,4.225,0,0,1,.311,1.638,4.16,4.16,0,0,1-.343,1.72,2.584,2.584,0,0,1-1,1.172,2.558,2.558,0,0,1-1.374.407,1.985,1.985,0,0,1-.946-.223,2.155,2.155,0,0,1-.688-.562v3.029Zm.955-5.461a2.707,2.707,0,0,0,.486,1.775,1.491,1.491,0,0,0,1.178.574,1.525,1.525,0,0,0,1.2-.595,2.822,2.822,0,0,0,.5-1.843,2.749,2.749,0,0,0-.489-1.781,1.473,1.473,0,0,0-1.169-.592,1.519,1.519,0,0,0-1.192.63A2.818,2.818,0,0,0,472.842,91.953Z" transform="translate(-56.735 -16.073)"/><path class="cls-2" d="M478.168,91.918a3.207,3.207,0,0,1,.961-2.561,2.9,2.9,0,0,1,1.957-.691,2.792,2.792,0,0,1,2.1.841A3.2,3.2,0,0,1,484,91.83a4.117,4.117,0,0,1-.36,1.89,2.551,2.551,0,0,1-1.049,1.069,3.054,3.054,0,0,1-1.5.381,2.8,2.8,0,0,1-2.112-.838A3.347,3.347,0,0,1,478.168,91.918Zm1.084,0a2.65,2.65,0,0,0,.521,1.79,1.736,1.736,0,0,0,2.619,0,2.713,2.713,0,0,0,.521-1.822,2.571,2.571,0,0,0-.524-1.749,1.739,1.739,0,0,0-2.616,0A2.639,2.639,0,0,0,479.252,91.918Z" transform="translate(-56.735 -16.073)"/><path class="cls-2" d="M484.813,93.172l1.043-.164a1.458,1.458,0,0,0,.489.961,1.705,1.705,0,0,0,1.122.334,1.648,1.648,0,0,0,1.078-.3.885.885,0,0,0,.352-.694.641.641,0,0,0-.311-.562,4.574,4.574,0,0,0-1.078-.357,9.838,9.838,0,0,1-1.608-.507,1.535,1.535,0,0,1-.911-1.427,1.6,1.6,0,0,1,.19-.771,1.708,1.708,0,0,1,.519-.589,2.174,2.174,0,0,1,.671-.308,3.19,3.19,0,0,1,.911-.126,3.6,3.6,0,0,1,1.286.211,1.749,1.749,0,0,1,.817.571,2.232,2.232,0,0,1,.363.964l-1.031.141a1.128,1.128,0,0,0-.407-.75,1.489,1.489,0,0,0-.952-.27,1.724,1.724,0,0,0-1.037.24.7.7,0,0,0-.311.563.582.582,0,0,0,.129.369.93.93,0,0,0,.4.281q.158.059.932.27a12.969,12.969,0,0,1,1.562.489,1.584,1.584,0,0,1,.694.554,1.546,1.546,0,0,1,.252.9,1.771,1.771,0,0,1-.308.993,1.988,1.988,0,0,1-.888.721,3.231,3.231,0,0,1-1.312.255,2.924,2.924,0,0,1-1.849-.5A2.343,2.343,0,0,1,484.813,93.172Z" transform="translate(-56.735 -16.073)"/><path class="cls-2" d="M495.313,95.029v-.914a2.278,2.278,0,0,1-1.975,1.055,2.516,2.516,0,0,1-1.028-.211,1.694,1.694,0,0,1-.709-.53,1.987,1.987,0,0,1-.325-.782,5.356,5.356,0,0,1-.064-.984V88.807h1.055v3.451a6.15,6.15,0,0,0,.064,1.113,1.1,1.1,0,0,0,.422.653,1.307,1.307,0,0,0,.8.237,1.736,1.736,0,0,0,.891-.243,1.352,1.352,0,0,0,.589-.662,3.322,3.322,0,0,0,.173-1.216V88.807h1.055v6.223Z" transform="translate(-56.735 -16.073)"/><path class="cls-2" d="M497.9,95.029V88.807h.949v.943a2.574,2.574,0,0,1,.671-.873,1.171,1.171,0,0,1,.677-.211,2.057,2.057,0,0,1,1.084.34l-.363.979a1.509,1.509,0,0,0-.773-.229,1,1,0,0,0-.621.208,1.127,1.127,0,0,0-.393.577,4.108,4.108,0,0,0-.176,1.23v3.258Z" transform="translate(-56.735 -16.073)"/><path class="cls-2" d="M506.164,93.025l1.09.135a2.659,2.659,0,0,1-.955,1.482,3.236,3.236,0,0,1-3.946-.313,3.285,3.285,0,0,1-.8-2.358,3.438,3.438,0,0,1,.809-2.437,2.737,2.737,0,0,1,2.1-.867,2.66,2.66,0,0,1,2.039.85,3.376,3.376,0,0,1,.791,2.391q0,.094-.006.281h-4.641a2.391,2.391,0,0,0,.58,1.57,1.727,1.727,0,0,0,1.3.545,1.614,1.614,0,0,0,.99-.3A2.023,2.023,0,0,0,506.164,93.025ZM502.7,91.32h3.475a2.108,2.108,0,0,0-.4-1.178,1.616,1.616,0,0,0-1.307-.609,1.675,1.675,0,0,0-1.222.486A1.925,1.925,0,0,0,502.7,91.32Z" transform="translate(-56.735 -16.073)"/><path class="cls-2" d="M59.3,94.319V93.264a3.894,3.894,0,0,1-1.286-.354,2.242,2.242,0,0,1-.855-.823,2.946,2.946,0,0,1-.419-1.389l1.061-.2a2.675,2.675,0,0,0,.434,1.248,1.538,1.538,0,0,0,1.066.627V89.016a4.406,4.406,0,0,1-1.33-.5,1.948,1.948,0,0,1-.776-.779,2.482,2.482,0,0,1,.524-2.953,2.772,2.772,0,0,1,1.582-.574v-.5h.621v.5a2.6,2.6,0,0,1,1.459.539,2.4,2.4,0,0,1,.832,1.576l-1.09.164a1.8,1.8,0,0,0-.39-.952,1.437,1.437,0,0,0-.812-.437v3.041a8.364,8.364,0,0,1,1.055.311,2.605,2.605,0,0,1,.8.527,2.121,2.121,0,0,1,.478.738,2.715,2.715,0,0,1-.53,2.754,2.558,2.558,0,0,1-1.8.785v1.066Zm0-9.234a1.563,1.563,0,0,0-.97.492,1.464,1.464,0,0,0-.053,1.846A2.079,2.079,0,0,0,59.3,88Zm.621,7.289a1.564,1.564,0,0,0,1.017-.533,1.652,1.652,0,0,0,.4-1.131,1.416,1.416,0,0,0-.284-.923,2.453,2.453,0,0,0-1.134-.624Z" transform="translate(-56.735 -16.073)"/><path class="cls-2" d="M67.452,93.083H66.4V86.362a5.451,5.451,0,0,1-1,.727,7.082,7.082,0,0,1-1.11.545v-1.02a6.369,6.369,0,0,0,1.547-1.008,3.964,3.964,0,0,0,.938-1.148h.68Z" transform="translate(-56.735 -16.073)"/><path class="cls-2" d="M73.534,93.083V91.026H69.808v-.967l3.92-5.566h.861v5.566h1.16v.967h-1.16v2.057Zm0-3.023V86.186l-2.689,3.873Z" transform="translate(-56.735 -16.073)"/><path class="cls-2" d="M80.454,93.083V86.86H81.4v.873A2.218,2.218,0,0,1,82.177,87a2.189,2.189,0,0,1,1.107-.278,2.047,2.047,0,0,1,1.134.287,1.537,1.537,0,0,1,.624.8,2.234,2.234,0,0,1,1.922-1.09,1.894,1.894,0,0,1,1.424.513,2.191,2.191,0,0,1,.5,1.579v4.271H87.837v-3.92a2.886,2.886,0,0,0-.1-.911.883.883,0,0,0-.372-.448,1.161,1.161,0,0,0-.633-.17,1.473,1.473,0,0,0-1.09.437,1.923,1.923,0,0,0-.434,1.4v3.615H84.151V89.04a1.779,1.779,0,0,0-.258-1.055.976.976,0,0,0-.844-.352,1.533,1.533,0,0,0-.823.234,1.329,1.329,0,0,0-.548.686,3.859,3.859,0,0,0-.17,1.3v3.229Z" transform="translate(-56.735 -16.073)"/><path class="cls-2" d="M90.456,85.706V84.493h1.055v1.213Zm0,7.377V86.86h1.055v6.223Z" transform="translate(-56.735 -16.073)"/><path class="cls-2" d="M93.093,93.083v-8.59h1.055v8.59Z" transform="translate(-56.735 -16.073)"/><path class="cls-2" d="M95.759,93.083v-8.59h1.055v8.59Z" transform="translate(-56.735 -16.073)"/><path class="cls-2" d="M98.454,85.706V84.493h1.055v1.213Zm0,7.377V86.86h1.055v6.223Z" transform="translate(-56.735 -16.073)"/><path class="cls-2" d="M100.722,89.971a3.207,3.207,0,0,1,.961-2.561,2.9,2.9,0,0,1,1.957-.691,2.792,2.792,0,0,1,2.1.841,3.2,3.2,0,0,1,.814,2.323,4.117,4.117,0,0,1-.36,1.89,2.551,2.551,0,0,1-1.049,1.069,3.054,3.054,0,0,1-1.5.381,2.8,2.8,0,0,1-2.112-.838A3.347,3.347,0,0,1,100.722,89.971Zm1.084,0a2.65,2.65,0,0,0,.521,1.79,1.736,1.736,0,0,0,2.619,0,2.713,2.713,0,0,0,.521-1.822,2.571,2.571,0,0,0-.524-1.749,1.739,1.739,0,0,0-2.616,0A2.639,2.639,0,0,0,101.806,89.971Z" transform="translate(-56.735 -16.073)"/><path class="cls-2" d="M107.788,93.083V86.86h.949v.885a2.237,2.237,0,0,1,1.98-1.025,2.6,2.6,0,0,1,1.034.2,1.627,1.627,0,0,1,.706.53,2.035,2.035,0,0,1,.328.779,6.039,6.039,0,0,1,.059,1.025v3.826H111.79V89.3a2.841,2.841,0,0,0-.123-.964,1.014,1.014,0,0,0-.437-.51,1.389,1.389,0,0,0-.735-.19,1.709,1.709,0,0,0-1.163.428,2.11,2.11,0,0,0-.489,1.623v3.4Z" transform="translate(-56.735 -16.073)"/><path class="cls-2" d="M59.3,135.556V134.5a3.894,3.894,0,0,1-1.286-.354,2.242,2.242,0,0,1-.855-.823,2.946,2.946,0,0,1-.419-1.389l1.061-.2a2.675,2.675,0,0,0,.434,1.248,1.538,1.538,0,0,0,1.066.627v-3.357a4.406,4.406,0,0,1-1.33-.5,1.948,1.948,0,0,1-.776-.779,2.482,2.482,0,0,1,.524-2.953,2.772,2.772,0,0,1,1.582-.574v-.5h.621v.5a2.6,2.6,0,0,1,1.459.539,2.4,2.4,0,0,1,.832,1.576l-1.09.164a1.8,1.8,0,0,0-.39-.952,1.437,1.437,0,0,0-.812-.437v3.041a8.364,8.364,0,0,1,1.055.311,2.605,2.605,0,0,1,.8.527,2.121,2.121,0,0,1,.478.738,2.715,2.715,0,0,1-.53,2.754,2.558,2.558,0,0,1-1.8.785v1.066Zm0-9.234a1.563,1.563,0,0,0-.97.492,1.464,1.464,0,0,0-.053,1.846,2.079,2.079,0,0,0,1.022.58Zm.621,7.289a1.564,1.564,0,0,0,1.017-.533,1.652,1.652,0,0,0,.4-1.131,1.416,1.416,0,0,0-.284-.923,2.453,2.453,0,0,0-1.134-.624Z" transform="translate(-56.735 -16.073)"/><path class="cls-2" d="M67.452,134.319H66.4V127.6a5.451,5.451,0,0,1-1,.727,7.082,7.082,0,0,1-1.11.545v-1.02a6.369,6.369,0,0,0,1.547-1.008,3.964,3.964,0,0,0,.938-1.148h.68Z" transform="translate(-56.735 -16.073)"/><path class="cls-2" d="M75.7,133.306v1.014H70.019a1.866,1.866,0,0,1,.123-.732,3.875,3.875,0,0,1,.694-1.143,10.878,10.878,0,0,1,1.38-1.3,11.7,11.7,0,0,0,1.893-1.819,2.178,2.178,0,0,0,.492-1.269A1.409,1.409,0,0,0,74.152,127a1.617,1.617,0,0,0-1.169-.431,1.647,1.647,0,0,0-1.219.457,1.729,1.729,0,0,0-.463,1.266l-1.084-.111a2.668,2.668,0,0,1,.838-1.849,2.858,2.858,0,0,1,1.951-.636,2.723,2.723,0,0,1,1.957.686,2.251,2.251,0,0,1,.721,1.7,2.577,2.577,0,0,1-.211,1.014,3.934,3.934,0,0,1-.7,1.049,17.058,17.058,0,0,1-1.626,1.512q-.949.8-1.219,1.081a3.468,3.468,0,0,0-.445.571Z" transform="translate(-56.735 -16.073)"/><path class="cls-2" d="M80.454,134.319V128.1H81.4v.873a2.218,2.218,0,0,1,.779-.735,2.189,2.189,0,0,1,1.107-.278,2.047,2.047,0,0,1,1.134.287,1.537,1.537,0,0,1,.624.8,2.234,2.234,0,0,1,1.922-1.09,1.894,1.894,0,0,1,1.424.513,2.191,2.191,0,0,1,.5,1.579v4.271H87.837V130.4a2.886,2.886,0,0,0-.1-.911.883.883,0,0,0-.372-.448,1.161,1.161,0,0,0-.633-.17,1.473,1.473,0,0,0-1.09.437,1.923,1.923,0,0,0-.434,1.4v3.615H84.151v-4.043a1.779,1.779,0,0,0-.258-1.055.976.976,0,0,0-.844-.352,1.533,1.533,0,0,0-.823.234,1.329,1.329,0,0,0-.548.686,3.859,3.859,0,0,0-.17,1.3v3.229Z" transform="translate(-56.735 -16.073)"/><path class="cls-2" d="M90.456,126.942v-1.213h1.055v1.213Zm0,7.377V128.1h1.055v6.223Z" transform="translate(-56.735 -16.073)"/><path class="cls-2" d="M93.093,134.319v-8.59h1.055v8.59Z" transform="translate(-56.735 -16.073)"/><path class="cls-2" d="M95.759,134.319v-8.59h1.055v8.59Z" transform="translate(-56.735 -16.073)"/><path class="cls-2" d="M98.454,126.942v-1.213h1.055v1.213Zm0,7.377V128.1h1.055v6.223Z" transform="translate(-56.735 -16.073)"/><path class="cls-2" d="M100.722,131.208a3.207,3.207,0,0,1,.961-2.561,2.9,2.9,0,0,1,1.957-.691,2.792,2.792,0,0,1,2.1.841,3.2,3.2,0,0,1,.814,2.323,4.117,4.117,0,0,1-.36,1.89,2.551,2.551,0,0,1-1.049,1.069,3.054,3.054,0,0,1-1.5.381,2.8,2.8,0,0,1-2.112-.838A3.347,3.347,0,0,1,100.722,131.208Zm1.084,0a2.65,2.65,0,0,0,.521,1.79,1.736,1.736,0,0,0,2.619,0,2.713,2.713,0,0,0,.521-1.822,2.571,2.571,0,0,0-.524-1.749,1.739,1.739,0,0,0-2.616,0A2.639,2.639,0,0,0,101.806,131.208Z" transform="translate(-56.735 -16.073)"/><path class="cls-2" d="M107.788,134.319V128.1h.949v.885a2.237,2.237,0,0,1,1.98-1.025,2.6,2.6,0,0,1,1.034.2,1.627,1.627,0,0,1,.706.53,2.035,2.035,0,0,1,.328.779,6.039,6.039,0,0,1,.059,1.025v3.826H111.79v-3.785a2.841,2.841,0,0,0-.123-.964,1.014,1.014,0,0,0-.437-.51,1.389,1.389,0,0,0-.735-.19,1.709,1.709,0,0,0-1.163.428,2.11,2.11,0,0,0-.489,1.623v3.4Z" transform="translate(-56.735 -16.073)"/><path class="cls-2" d="M59.3,173.209v-1.055a3.894,3.894,0,0,1-1.286-.354,2.242,2.242,0,0,1-.855-.823,2.946,2.946,0,0,1-.419-1.389l1.061-.2a2.675,2.675,0,0,0,.434,1.248,1.538,1.538,0,0,0,1.066.627v-3.357a4.406,4.406,0,0,1-1.33-.5,1.948,1.948,0,0,1-.776-.779,2.482,2.482,0,0,1,.524-2.953A2.772,2.772,0,0,1,59.3,163.1v-.5h.621v.5a2.6,2.6,0,0,1,1.459.539,2.4,2.4,0,0,1,.832,1.576l-1.09.164a1.8,1.8,0,0,0-.39-.952,1.437,1.437,0,0,0-.812-.437v3.041a8.364,8.364,0,0,1,1.055.311,2.605,2.605,0,0,1,.8.527,2.121,2.121,0,0,1,.478.738,2.715,2.715,0,0,1-.53,2.754,2.558,2.558,0,0,1-1.8.785v1.066Zm0-9.234a1.563,1.563,0,0,0-.97.492,1.464,1.464,0,0,0-.053,1.846,2.079,2.079,0,0,0,1.022.58Zm.621,7.289a1.564,1.564,0,0,0,1.017-.533,1.652,1.652,0,0,0,.4-1.131,1.416,1.416,0,0,0-.284-.923,2.453,2.453,0,0,0-1.134-.624Z" transform="translate(-56.735 -16.073)"/><path class="cls-2" d="M67.452,171.973H66.4v-6.721a5.451,5.451,0,0,1-1,.727,7.082,7.082,0,0,1-1.11.545V165.5a6.369,6.369,0,0,0,1.547-1.008,3.964,3.964,0,0,0,.938-1.148h.68Z" transform="translate(-56.735 -16.073)"/><path class="cls-2" d="M70.153,167.737a7.86,7.86,0,0,1,.313-2.452,3.05,3.05,0,0,1,.932-1.433,2.382,2.382,0,0,1,1.556-.5,2.538,2.538,0,0,1,1.213.278,2.319,2.319,0,0,1,.861.8,4.306,4.306,0,0,1,.533,1.277,8.487,8.487,0,0,1,.193,2.03,7.882,7.882,0,0,1-.311,2.44,3.051,3.051,0,0,1-.929,1.436,2.382,2.382,0,0,1-1.562.507A2.357,2.357,0,0,1,71,171.229,5.661,5.661,0,0,1,70.153,167.737Zm1.084,0a5.386,5.386,0,0,0,.5,2.815,1.414,1.414,0,0,0,2.443,0,8.252,8.252,0,0,0,0-5.631,1.47,1.47,0,0,0-1.233-.7,1.351,1.351,0,0,0-1.16.615A5.448,5.448,0,0,0,71.237,167.737Z" transform="translate(-56.735 -16.073)"/><path class="cls-2" d="M80.454,171.973V165.75H81.4v.873a2.218,2.218,0,0,1,.779-.735,2.189,2.189,0,0,1,1.107-.278,2.047,2.047,0,0,1,1.134.287,1.537,1.537,0,0,1,.624.8,2.234,2.234,0,0,1,1.922-1.09,1.894,1.894,0,0,1,1.424.513,2.191,2.191,0,0,1,.5,1.579v4.271H87.837v-3.92a2.886,2.886,0,0,0-.1-.911.883.883,0,0,0-.372-.448,1.161,1.161,0,0,0-.633-.17,1.473,1.473,0,0,0-1.09.437,1.923,1.923,0,0,0-.434,1.4v3.615H84.151V167.93a1.779,1.779,0,0,0-.258-1.055.976.976,0,0,0-.844-.352,1.533,1.533,0,0,0-.823.234,1.329,1.329,0,0,0-.548.686,3.859,3.859,0,0,0-.17,1.3v3.229Z" transform="translate(-56.735 -16.073)"/><path class="cls-2" d="M90.456,164.6v-1.213h1.055V164.6Zm0,7.377V165.75h1.055v6.223Z" transform="translate(-56.735 -16.073)"/><path class="cls-2" d="M93.093,171.973v-8.59h1.055v8.59Z" transform="translate(-56.735 -16.073)"/><path class="cls-2" d="M95.759,171.973v-8.59h1.055v8.59Z" transform="translate(-56.735 -16.073)"/><path class="cls-2" d="M98.454,164.6v-1.213h1.055V164.6Zm0,7.377V165.75h1.055v6.223Z" transform="translate(-56.735 -16.073)"/><path class="cls-2" d="M100.722,168.862a3.207,3.207,0,0,1,.961-2.561,2.9,2.9,0,0,1,1.957-.691,2.792,2.792,0,0,1,2.1.841,3.2,3.2,0,0,1,.814,2.323,4.117,4.117,0,0,1-.36,1.89,2.551,2.551,0,0,1-1.049,1.069,3.054,3.054,0,0,1-1.5.381,2.8,2.8,0,0,1-2.112-.838A3.347,3.347,0,0,1,100.722,168.862Zm1.084,0a2.65,2.65,0,0,0,.521,1.79,1.736,1.736,0,0,0,2.619,0,2.713,2.713,0,0,0,.521-1.822,2.571,2.571,0,0,0-.524-1.749,1.739,1.739,0,0,0-2.616,0A2.639,2.639,0,0,0,101.806,168.862Z" transform="translate(-56.735 -16.073)"/><path class="cls-2" d="M107.788,171.973V165.75h.949v.885a2.237,2.237,0,0,1,1.98-1.025,2.6,2.6,0,0,1,1.034.2,1.627,1.627,0,0,1,.706.53,2.035,2.035,0,0,1,.328.779,6.039,6.039,0,0,1,.059,1.025v3.826H111.79v-3.785a2.841,2.841,0,0,0-.123-.964,1.014,1.014,0,0,0-.437-.51,1.389,1.389,0,0,0-.735-.19,1.709,1.709,0,0,0-1.163.428,2.11,2.11,0,0,0-.489,1.623v3.4Z" transform="translate(-56.735 -16.073)"/><path class="cls-2" d="M59.3,216.992v-1.055a3.894,3.894,0,0,1-1.286-.354,2.242,2.242,0,0,1-.855-.823,2.946,2.946,0,0,1-.419-1.389l1.061-.2a2.675,2.675,0,0,0,.434,1.248,1.538,1.538,0,0,0,1.066.627v-3.357a4.406,4.406,0,0,1-1.33-.5,1.948,1.948,0,0,1-.776-.779,2.482,2.482,0,0,1,.524-2.953,2.772,2.772,0,0,1,1.582-.574v-.5h.621v.5a2.6,2.6,0,0,1,1.459.539,2.4,2.4,0,0,1,.832,1.576l-1.09.164a1.8,1.8,0,0,0-.39-.952,1.437,1.437,0,0,0-.812-.437v3.041a8.364,8.364,0,0,1,1.055.311,2.605,2.605,0,0,1,.8.527,2.121,2.121,0,0,1,.478.738,2.715,2.715,0,0,1-.53,2.754,2.558,2.558,0,0,1-1.8.785v1.066Zm0-9.234a1.563,1.563,0,0,0-.97.492,1.464,1.464,0,0,0-.053,1.846,2.079,2.079,0,0,0,1.022.58Zm.621,7.289a1.564,1.564,0,0,0,1.017-.533,1.652,1.652,0,0,0,.4-1.131,1.416,1.416,0,0,0-.284-.923,2.453,2.453,0,0,0-1.134-.624Z" transform="translate(-56.735 -16.073)"/><path class="cls-2" d="M65.1,211.1a1.985,1.985,0,0,1-.973-.686,1.793,1.793,0,0,1-.316-1.066,2.085,2.085,0,0,1,.674-1.576,2.836,2.836,0,0,1,3.6.015,2.115,2.115,0,0,1,.686,1.591,1.752,1.752,0,0,1-.313,1.04,1.977,1.977,0,0,1-.952.683,2.309,2.309,0,0,1,1.2.832,2.285,2.285,0,0,1,.413,1.371,2.468,2.468,0,0,1-.779,1.852,3.174,3.174,0,0,1-4.1,0,2.5,2.5,0,0,1-.779-1.878,2.27,2.27,0,0,1,.425-1.4A2.127,2.127,0,0,1,65.1,211.1Zm-.551,2.18a1.908,1.908,0,0,0,.214.873,1.509,1.509,0,0,0,.636.653,1.859,1.859,0,0,0,.908.231,1.7,1.7,0,0,0,1.248-.486,1.664,1.664,0,0,0,.492-1.236,1.692,1.692,0,0,0-.507-1.26,1.737,1.737,0,0,0-1.269-.5,1.678,1.678,0,0,0-1.723,1.723Zm.34-3.967a1.337,1.337,0,0,0,.393,1,1.391,1.391,0,0,0,1.02.387,1.364,1.364,0,0,0,1-.384,1.269,1.269,0,0,0,.39-.94,1.316,1.316,0,0,0-.4-.976,1.367,1.367,0,0,0-1-.4,1.381,1.381,0,0,0-1,.387A1.245,1.245,0,0,0,64.892,209.31Z" transform="translate(-56.735 -16.073)"/><path class="cls-2" d="M73.78,215.755v-6.223h.943v.873a2.218,2.218,0,0,1,.779-.735,2.189,2.189,0,0,1,1.107-.278,2.047,2.047,0,0,1,1.134.287,1.537,1.537,0,0,1,.624.8,2.234,2.234,0,0,1,1.922-1.09,1.894,1.894,0,0,1,1.424.513,2.191,2.191,0,0,1,.5,1.579v4.271H81.163v-3.92a2.886,2.886,0,0,0-.1-.911.883.883,0,0,0-.372-.448,1.161,1.161,0,0,0-.633-.17,1.473,1.473,0,0,0-1.09.437,1.923,1.923,0,0,0-.434,1.4v3.615H77.478v-4.043a1.779,1.779,0,0,0-.258-1.055.976.976,0,0,0-.844-.352,1.533,1.533,0,0,0-.823.234,1.329,1.329,0,0,0-.548.686,3.859,3.859,0,0,0-.17,1.3v3.229Z" transform="translate(-56.735 -16.073)"/><path class="cls-2" d="M83.782,208.378v-1.213h1.055v1.213Zm0,7.377v-6.223h1.055v6.223Z" transform="translate(-56.735 -16.073)"/><path class="cls-2" d="M86.419,215.755v-8.59h1.055v8.59Z" transform="translate(-56.735 -16.073)"/><path class="cls-2" d="M89.085,215.755v-8.59H90.14v8.59Z" transform="translate(-56.735 -16.073)"/><path class="cls-2" d="M91.78,208.378v-1.213h1.055v1.213Zm0,7.377v-6.223h1.055v6.223Z" transform="translate(-56.735 -16.073)"/><path class="cls-2" d="M94.048,212.644a3.207,3.207,0,0,1,.961-2.561,2.9,2.9,0,0,1,1.957-.691,2.792,2.792,0,0,1,2.1.841,3.2,3.2,0,0,1,.814,2.323,4.117,4.117,0,0,1-.36,1.89,2.551,2.551,0,0,1-1.049,1.069,3.054,3.054,0,0,1-1.5.381,2.8,2.8,0,0,1-2.112-.838A3.347,3.347,0,0,1,94.048,212.644Zm1.084,0a2.65,2.65,0,0,0,.521,1.79,1.736,1.736,0,0,0,2.619,0,2.713,2.713,0,0,0,.521-1.822,2.571,2.571,0,0,0-.524-1.749,1.739,1.739,0,0,0-2.616,0A2.639,2.639,0,0,0,95.132,212.644Z" transform="translate(-56.735 -16.073)"/><path class="cls-2" d="M101.114,215.755v-6.223h.949v.885a2.237,2.237,0,0,1,1.98-1.025,2.6,2.6,0,0,1,1.034.2,1.627,1.627,0,0,1,.706.53,2.035,2.035,0,0,1,.328.779,6.039,6.039,0,0,1,.059,1.025v3.826h-1.055V211.97a2.841,2.841,0,0,0-.123-.964,1.014,1.014,0,0,0-.437-.51,1.389,1.389,0,0,0-.735-.19,1.709,1.709,0,0,0-1.163.428,2.11,2.11,0,0,0-.489,1.623v3.4Z" transform="translate(-56.735 -16.073)"/><path class="cls-2" d="M123.4,322.7v-1.055a3.894,3.894,0,0,1-1.286-.354,2.242,2.242,0,0,1-.855-.823,2.946,2.946,0,0,1-.419-1.389l1.061-.2a2.675,2.675,0,0,0,.434,1.248,1.538,1.538,0,0,0,1.066.627V317.4a4.406,4.406,0,0,1-1.33-.5,1.948,1.948,0,0,1-.776-.779,2.482,2.482,0,0,1,.524-2.953,2.772,2.772,0,0,1,1.582-.574v-.5h.621v.5a2.6,2.6,0,0,1,1.459.539,2.4,2.4,0,0,1,.832,1.576l-1.09.164a1.8,1.8,0,0,0-.39-.952,1.437,1.437,0,0,0-.812-.437v3.041a8.364,8.364,0,0,1,1.055.311,2.605,2.605,0,0,1,.8.527,2.121,2.121,0,0,1,.478.738,2.715,2.715,0,0,1-.53,2.754,2.558,2.558,0,0,1-1.8.785V322.7Zm0-9.234a1.563,1.563,0,0,0-.97.492,1.464,1.464,0,0,0-.053,1.846,2.079,2.079,0,0,0,1.022.58Zm.621,7.289a1.564,1.564,0,0,0,1.017-.533,1.652,1.652,0,0,0,.4-1.131,1.416,1.416,0,0,0-.284-.923,2.453,2.453,0,0,0-1.134-.624Z" transform="translate(-56.735 -16.073)"/><path class="cls-2" d="M127.582,317.228a7.86,7.86,0,0,1,.313-2.452,3.05,3.05,0,0,1,.932-1.433,2.382,2.382,0,0,1,1.556-.5,2.538,2.538,0,0,1,1.213.278,2.319,2.319,0,0,1,.861.8,4.306,4.306,0,0,1,.533,1.277,8.487,8.487,0,0,1,.193,2.03,7.882,7.882,0,0,1-.311,2.44,3.051,3.051,0,0,1-.929,1.436,2.382,2.382,0,0,1-1.562.507,2.357,2.357,0,0,1-1.951-.891A5.661,5.661,0,0,1,127.582,317.228Zm1.084,0a5.386,5.386,0,0,0,.5,2.815,1.414,1.414,0,0,0,2.443,0,8.252,8.252,0,0,0,0-5.631,1.47,1.47,0,0,0-1.233-.7,1.351,1.351,0,0,0-1.16.615A5.448,5.448,0,0,0,128.666,317.228Z" transform="translate(-56.735 -16.073)"/><path class="cls-2" d="M226.264,338.442a1.985,1.985,0,0,1-.973-.686,1.793,1.793,0,0,1-.316-1.066,2.085,2.085,0,0,1,.674-1.576,2.836,2.836,0,0,1,3.6.015,2.115,2.115,0,0,1,.686,1.591,1.752,1.752,0,0,1-.313,1.04,1.977,1.977,0,0,1-.952.683,2.309,2.309,0,0,1,1.2.832,2.285,2.285,0,0,1,.413,1.371,2.468,2.468,0,0,1-.779,1.852,3.174,3.174,0,0,1-4.1,0,2.5,2.5,0,0,1-.779-1.878,2.27,2.27,0,0,1,.425-1.4A2.127,2.127,0,0,1,226.264,338.442Zm-.551,2.18a1.908,1.908,0,0,0,.214.873,1.509,1.509,0,0,0,.636.653,1.859,1.859,0,0,0,.908.231,1.7,1.7,0,0,0,1.248-.486,1.664,1.664,0,0,0,.492-1.236,1.692,1.692,0,0,0-.507-1.26,1.737,1.737,0,0,0-1.269-.5,1.678,1.678,0,0,0-1.723,1.723Zm.34-3.967a1.337,1.337,0,0,0,.393,1,1.391,1.391,0,0,0,1.02.387,1.364,1.364,0,0,0,1-.384,1.269,1.269,0,0,0,.39-.94,1.316,1.316,0,0,0-.4-.976,1.367,1.367,0,0,0-1-.4,1.381,1.381,0,0,0-1,.387A1.245,1.245,0,0,0,226.053,336.655Z" transform="translate(-56.735 -16.073)"/><path class="cls-2" d="M231.315,338.864a7.86,7.86,0,0,1,.313-2.452,3.05,3.05,0,0,1,.932-1.433,2.382,2.382,0,0,1,1.556-.5,2.538,2.538,0,0,1,1.213.278,2.319,2.319,0,0,1,.861.8,4.306,4.306,0,0,1,.533,1.277,8.487,8.487,0,0,1,.193,2.03,7.882,7.882,0,0,1-.311,2.44,3.051,3.051,0,0,1-.929,1.436,2.382,2.382,0,0,1-1.562.507,2.357,2.357,0,0,1-1.951-.891A5.661,5.661,0,0,1,231.315,338.864Zm1.084,0a5.386,5.386,0,0,0,.5,2.815,1.414,1.414,0,0,0,2.443,0,8.252,8.252,0,0,0,0-5.631,1.47,1.47,0,0,0-1.233-.7,1.351,1.351,0,0,0-1.16.615A5.448,5.448,0,0,0,232.4,338.864Z" transform="translate(-56.735 -16.073)"/><path class="cls-2" d="M266.912,342.882h-1.055v-6.721a5.451,5.451,0,0,1-1,.727,7.082,7.082,0,0,1-1.11.545v-1.02a6.369,6.369,0,0,0,1.547-1.008,3.964,3.964,0,0,0,.938-1.148h.68Z" transform="translate(-56.735 -16.073)"/><path class="cls-2" d="M269.613,338.646a7.86,7.86,0,0,1,.313-2.452,3.05,3.05,0,0,1,.932-1.433,2.382,2.382,0,0,1,1.556-.5,2.538,2.538,0,0,1,1.213.278,2.319,2.319,0,0,1,.861.8,4.306,4.306,0,0,1,.533,1.277,8.487,8.487,0,0,1,.193,2.03,7.882,7.882,0,0,1-.311,2.44,3.051,3.051,0,0,1-.929,1.436,2.382,2.382,0,0,1-1.562.507,2.357,2.357,0,0,1-1.951-.891A5.661,5.661,0,0,1,269.613,338.646Zm1.084,0a5.386,5.386,0,0,0,.5,2.815,1.414,1.414,0,0,0,2.443,0,8.252,8.252,0,0,0,0-5.631,1.47,1.47,0,0,0-1.233-.7,1.351,1.351,0,0,0-1.16.615A5.448,5.448,0,0,0,270.7,338.646Z" transform="translate(-56.735 -16.073)"/><path class="cls-2" d="M276.287,338.646a7.86,7.86,0,0,1,.313-2.452,3.05,3.05,0,0,1,.932-1.433,2.382,2.382,0,0,1,1.556-.5,2.538,2.538,0,0,1,1.213.278,2.319,2.319,0,0,1,.861.8,4.306,4.306,0,0,1,.533,1.277,8.487,8.487,0,0,1,.193,2.03,7.882,7.882,0,0,1-.311,2.44,3.051,3.051,0,0,1-.929,1.436,2.382,2.382,0,0,1-1.562.507,2.357,2.357,0,0,1-1.951-.891A5.661,5.661,0,0,1,276.287,338.646Zm1.084,0a5.386,5.386,0,0,0,.5,2.815,1.414,1.414,0,0,0,2.443,0,8.252,8.252,0,0,0,0-5.631,1.47,1.47,0,0,0-1.233-.7,1.351,1.351,0,0,0-1.16.615A5.448,5.448,0,0,0,277.371,338.646Z" transform="translate(-56.735 -16.073)"/><path class="cls-2" d="M308.74,341.564h-1.055v-6.721a5.451,5.451,0,0,1-1,.727,7.082,7.082,0,0,1-1.11.545V335.1a6.369,6.369,0,0,0,1.547-1.008,3.964,3.964,0,0,0,.938-1.148h.68Z" transform="translate(-56.735 -16.073)"/><path class="cls-2" d="M316.984,340.551v1.014h-5.678a1.866,1.866,0,0,1,.123-.732,3.875,3.875,0,0,1,.694-1.143,10.878,10.878,0,0,1,1.38-1.3,11.7,11.7,0,0,0,1.893-1.819,2.178,2.178,0,0,0,.492-1.269,1.409,1.409,0,0,0-.448-1.058,1.617,1.617,0,0,0-1.169-.431,1.647,1.647,0,0,0-1.219.457,1.729,1.729,0,0,0-.463,1.266l-1.084-.111a2.668,2.668,0,0,1,.838-1.849,2.858,2.858,0,0,1,1.951-.636,2.723,2.723,0,0,1,1.957.686,2.251,2.251,0,0,1,.721,1.7,2.577,2.577,0,0,1-.211,1.014,3.934,3.934,0,0,1-.7,1.049,17.058,17.058,0,0,1-1.626,1.512q-.949.8-1.219,1.081a3.468,3.468,0,0,0-.445.571Z" transform="translate(-56.735 -16.073)"/><path class="cls-2" d="M318.115,337.328a7.86,7.86,0,0,1,.313-2.452,3.05,3.05,0,0,1,.932-1.433,2.382,2.382,0,0,1,1.556-.5,2.538,2.538,0,0,1,1.213.278,2.319,2.319,0,0,1,.861.8,4.306,4.306,0,0,1,.533,1.277,8.487,8.487,0,0,1,.193,2.03,7.882,7.882,0,0,1-.311,2.44,3.051,3.051,0,0,1-.929,1.436,2.382,2.382,0,0,1-1.562.507,2.357,2.357,0,0,1-1.951-.891A5.661,5.661,0,0,1,318.115,337.328Zm1.084,0a5.386,5.386,0,0,0,.5,2.815,1.414,1.414,0,0,0,2.443,0,8.252,8.252,0,0,0,0-5.631,1.47,1.47,0,0,0-1.233-.7,1.351,1.351,0,0,0-1.16.615A5.448,5.448,0,0,0,319.2,337.328Z" transform="translate(-56.735 -16.073)"/><path class="cls-2" d="M349.259,341.564H348.2v-6.721a5.451,5.451,0,0,1-1,.727,7.082,7.082,0,0,1-1.11.545V335.1a6.369,6.369,0,0,0,1.547-1.008,3.964,3.964,0,0,0,.938-1.148h.68Z" transform="translate(-56.735 -16.073)"/><path class="cls-2" d="M355.341,341.564v-2.057h-3.727v-.967l3.92-5.566h.861v5.566h1.16v.967H356.4v2.057Zm0-3.023v-3.873l-2.689,3.873Z" transform="translate(-56.735 -16.073)"/><path class="cls-2" d="M358.634,337.328a7.86,7.86,0,0,1,.313-2.452,3.05,3.05,0,0,1,.932-1.433,2.382,2.382,0,0,1,1.556-.5,2.538,2.538,0,0,1,1.213.278,2.319,2.319,0,0,1,.861.8,4.306,4.306,0,0,1,.533,1.277,8.487,8.487,0,0,1,.193,2.03,7.882,7.882,0,0,1-.311,2.44A3.051,3.051,0,0,1,363,341.2a2.382,2.382,0,0,1-1.562.507,2.357,2.357,0,0,1-1.951-.891A5.661,5.661,0,0,1,358.634,337.328Zm1.084,0a5.386,5.386,0,0,0,.5,2.815,1.414,1.414,0,0,0,2.443,0,8.252,8.252,0,0,0,0-5.631,1.47,1.47,0,0,0-1.233-.7,1.351,1.351,0,0,0-1.16.615A5.448,5.448,0,0,0,359.718,337.328Z" transform="translate(-56.735 -16.073)"/><line class="cls-3" x1="80.47" y1="74.347" x2="63.675" y2="74.347"/><line class="cls-3" x1="80.47" y1="113.029" x2="63.675" y2="113.029"/><line class="cls-3" x1="80.47" y1="153.238" x2="63.675" y2="153.238"/><line class="cls-3" x1="80.47" y1="196.02" x2="63.675" y2="196.02"/><line class="cls-3" x1="174.082" y1="292.516" x2="174.082" y2="309.311"/><line class="cls-3" x1="215.717" y1="292.516" x2="215.717" y2="309.311"/><line class="cls-3" x1="257.544" y1="292.516" x2="257.544" y2="309.311"/><line class="cls-3" x1="298.063" y1="292.516" x2="298.063" y2="309.311"/><line class="cls-4" x1="298.063" y1="74.347" x2="298.063" y2="80.347"/><line class="cls-5" x1="298.063" y1="92.474" x2="298.063" y2="280.453"/><line class="cls-4" x1="298.063" y1="286.517" x2="298.063" y2="292.517"/><line class="cls-6" x1="215.717" y1="153.238" x2="215.717" y2="159.238"/><line class="cls-7" x1="215.717" y1="170.808" x2="215.717" y2="280.731"/><line class="cls-6" x1="215.717" y1="286.517" x2="215.717" y2="292.517"/><line class="cls-3" x1="80.47" y1="16.125" x2="80.47" y2="292.517"/><line class="cls-3" x1="80.47" y1="292.517" x2="356.25" y2="292.517"/><line class="cls-8" x1="215.717" y1="153.238" x2="295.179" y2="74.347"/><line class="cls-9" x1="80.47" y1="153.238" x2="215.717" y2="153.238"/><line class="cls-9" x1="294.179" y1="74.347" x2="341.748" y2="74.347"/><path class="cls-2" d="M390.545,341.535H389.49v-6.721a5.451,5.451,0,0,1-1,.727,7.082,7.082,0,0,1-1.11.545v-1.02a6.369,6.369,0,0,0,1.547-1.008,3.964,3.964,0,0,0,.938-1.148h.68Z" transform="translate(-56.735 -16.073)"/><path class="cls-2" d="M398.719,335.049l-1.049.082a1.986,1.986,0,0,0-.4-.9,1.4,1.4,0,0,0-1.055-.451,1.449,1.449,0,0,0-.885.281,2.4,2.4,0,0,0-.785,1.061,5.542,5.542,0,0,0-.3,1.986,2.444,2.444,0,0,1,.932-.861,2.506,2.506,0,0,1,1.154-.281,2.391,2.391,0,0,1,1.8.776,2.787,2.787,0,0,1,.741,2.007,3.3,3.3,0,0,1-.349,1.5,2.54,2.54,0,0,1-.958,1.063,2.616,2.616,0,0,1-1.383.369,2.7,2.7,0,0,1-2.15-.97,4.9,4.9,0,0,1-.832-3.2,5.73,5.73,0,0,1,.92-3.621,2.645,2.645,0,0,1,2.162-.984,2.3,2.3,0,0,1,2.438,2.139Zm-4.307,3.7a2.447,2.447,0,0,0,.231,1.043,1.725,1.725,0,0,0,.647.759,1.619,1.619,0,0,0,.873.261,1.488,1.488,0,0,0,1.148-.539,2.122,2.122,0,0,0,.48-1.465,1.985,1.985,0,0,0-.475-1.4,1.56,1.56,0,0,0-1.2-.513,1.627,1.627,0,0,0-1.213.513A1.848,1.848,0,0,0,394.412,338.752Z" transform="translate(-56.735 -16.073)"/><path class="cls-2" d="M399.92,337.3a7.86,7.86,0,0,1,.313-2.452,3.05,3.05,0,0,1,.932-1.433,2.382,2.382,0,0,1,1.556-.5,2.538,2.538,0,0,1,1.213.278,2.319,2.319,0,0,1,.861.8,4.306,4.306,0,0,1,.533,1.277,8.487,8.487,0,0,1,.193,2.03,7.882,7.882,0,0,1-.311,2.44,3.051,3.051,0,0,1-.929,1.436,2.382,2.382,0,0,1-1.562.507,2.357,2.357,0,0,1-1.951-.891A5.661,5.661,0,0,1,399.92,337.3Zm1.084,0a5.386,5.386,0,0,0,.5,2.815,1.414,1.414,0,0,0,2.443,0,8.252,8.252,0,0,0,0-5.631,1.47,1.47,0,0,0-1.233-.7,1.351,1.351,0,0,0-1.16.615A5.448,5.448,0,0,0,401,337.3Z" transform="translate(-56.735 -16.073)"/><line class="cls-3" x1="339.35" y1="292.487" x2="339.35" y2="309.282"/><path class="cls-2" d="M59.7,55.456V54.4a3.894,3.894,0,0,1-1.286-.354,2.242,2.242,0,0,1-.855-.823,2.946,2.946,0,0,1-.419-1.389l1.061-.2a2.675,2.675,0,0,0,.434,1.248,1.538,1.538,0,0,0,1.066.627V50.153a4.406,4.406,0,0,1-1.33-.5,1.948,1.948,0,0,1-.776-.779,2.482,2.482,0,0,1,.524-2.953,2.772,2.772,0,0,1,1.582-.574v-.5h.621v.5a2.6,2.6,0,0,1,1.459.539,2.4,2.4,0,0,1,.832,1.576l-1.09.164a1.8,1.8,0,0,0-.39-.952,1.437,1.437,0,0,0-.812-.437v3.041a8.364,8.364,0,0,1,1.055.311,2.605,2.605,0,0,1,.8.527,2.121,2.121,0,0,1,.478.738,2.715,2.715,0,0,1-.53,2.754,2.558,2.558,0,0,1-1.8.785v1.066Zm0-9.234a1.563,1.563,0,0,0-.97.492,1.464,1.464,0,0,0-.053,1.846,2.079,2.079,0,0,0,1.022.58Zm.621,7.289a1.564,1.564,0,0,0,1.017-.533,1.652,1.652,0,0,0,.4-1.131,1.416,1.416,0,0,0-.284-.923,2.453,2.453,0,0,0-1.134-.624Z" transform="translate(-56.735 -16.073)"/><path class="cls-2" d="M67.852,54.22H66.8V47.5a5.451,5.451,0,0,1-1,.727,7.082,7.082,0,0,1-1.11.545v-1.02a6.369,6.369,0,0,0,1.547-1.008,3.964,3.964,0,0,0,.938-1.148h.68Z" transform="translate(-56.735 -16.073)"/><path class="cls-2" d="M76.025,47.733l-1.049.082a1.986,1.986,0,0,0-.4-.9,1.4,1.4,0,0,0-1.055-.451,1.449,1.449,0,0,0-.885.281,2.4,2.4,0,0,0-.785,1.061,5.542,5.542,0,0,0-.3,1.986,2.444,2.444,0,0,1,.932-.861,2.506,2.506,0,0,1,1.154-.281,2.391,2.391,0,0,1,1.8.776,2.787,2.787,0,0,1,.741,2.007,3.3,3.3,0,0,1-.349,1.5A2.54,2.54,0,0,1,74.871,54a2.616,2.616,0,0,1-1.383.369,2.7,2.7,0,0,1-2.15-.97,4.9,4.9,0,0,1-.832-3.2,5.73,5.73,0,0,1,.92-3.621,2.645,2.645,0,0,1,2.162-.984,2.3,2.3,0,0,1,2.438,2.139Zm-4.307,3.7a2.447,2.447,0,0,0,.231,1.043,1.725,1.725,0,0,0,.647.759,1.619,1.619,0,0,0,.873.261,1.488,1.488,0,0,0,1.148-.539A2.122,2.122,0,0,0,75.1,51.5a1.985,1.985,0,0,0-.475-1.4,1.56,1.56,0,0,0-1.2-.513,1.627,1.627,0,0,0-1.213.513A1.848,1.848,0,0,0,71.719,51.437Z" transform="translate(-56.735 -16.073)"/><path class="cls-2" d="M80.854,54.22V48H81.8v.873a2.218,2.218,0,0,1,.779-.735,2.189,2.189,0,0,1,1.107-.278,2.047,2.047,0,0,1,1.134.287,1.537,1.537,0,0,1,.624.8,2.234,2.234,0,0,1,1.922-1.09,1.894,1.894,0,0,1,1.424.513,2.191,2.191,0,0,1,.5,1.579V54.22H88.236V50.3a2.886,2.886,0,0,0-.1-.911.883.883,0,0,0-.372-.448,1.161,1.161,0,0,0-.633-.17,1.473,1.473,0,0,0-1.09.437,1.923,1.923,0,0,0-.434,1.4V54.22H84.551V50.177a1.779,1.779,0,0,0-.258-1.055.976.976,0,0,0-.844-.352,1.533,1.533,0,0,0-.823.234,1.329,1.329,0,0,0-.548.686,3.859,3.859,0,0,0-.17,1.3V54.22Z" transform="translate(-56.735 -16.073)"/><path class="cls-2" d="M90.855,46.843V45.63H91.91v1.213Zm0,7.377V48H91.91V54.22Z" transform="translate(-56.735 -16.073)"/><path class="cls-2" d="M93.492,54.22V45.63h1.055v8.59Z" transform="translate(-56.735 -16.073)"/><path class="cls-2" d="M96.158,54.22V45.63h1.055v8.59Z" transform="translate(-56.735 -16.073)"/><path class="cls-2" d="M98.854,46.843V45.63h1.055v1.213Zm0,7.377V48h1.055V54.22Z" transform="translate(-56.735 -16.073)"/><path class="cls-2" d="M101.121,51.108a3.207,3.207,0,0,1,.961-2.561,2.9,2.9,0,0,1,1.957-.691,2.792,2.792,0,0,1,2.1.841,3.2,3.2,0,0,1,.814,2.323,4.117,4.117,0,0,1-.36,1.89,2.551,2.551,0,0,1-1.049,1.069,3.054,3.054,0,0,1-1.5.381,2.8,2.8,0,0,1-2.112-.838A3.347,3.347,0,0,1,101.121,51.108Zm1.084,0a2.65,2.65,0,0,0,.521,1.79,1.736,1.736,0,0,0,2.619,0,2.713,2.713,0,0,0,.521-1.822,2.571,2.571,0,0,0-.524-1.749,1.739,1.739,0,0,0-2.616,0A2.639,2.639,0,0,0,102.205,51.108Z" transform="translate(-56.735 -16.073)"/><path class="cls-2" d="M108.188,54.22V48h.949v.885a2.237,2.237,0,0,1,1.98-1.025,2.6,2.6,0,0,1,1.034.2,1.627,1.627,0,0,1,.706.53,2.035,2.035,0,0,1,.328.779,6.039,6.039,0,0,1,.059,1.025V54.22h-1.055V50.435a2.841,2.841,0,0,0-.123-.964,1.014,1.014,0,0,0-.437-.51,1.389,1.389,0,0,0-.735-.19,1.709,1.709,0,0,0-1.163.428,2.11,2.11,0,0,0-.489,1.623v3.4Z" transform="translate(-56.735 -16.073)"/><line class="cls-3" x1="80.869" y1="35.484" x2="64.074" y2="35.484"/><line class="cls-4" x1="298.64" y1="74.347" x2="292.64" y2="74.347"/><line class="cls-5" x1="280.512" y1="74.347" x2="92.534" y2="74.347"/><line class="cls-4" x1="86.47" y1="74.347" x2="80.47" y2="74.347"/><path class="cls-10" d="M300.316,31.152l1.137.287a3.826,3.826,0,0,1-1.286,2.136,3.544,3.544,0,0,1-2.271.735,4.08,4.08,0,0,1-2.259-.565,3.531,3.531,0,0,1-1.324-1.638,5.843,5.843,0,0,1-.454-2.3,5.062,5.062,0,0,1,.513-2.341,3.513,3.513,0,0,1,1.459-1.518,4.263,4.263,0,0,1,2.083-.519,3.521,3.521,0,0,1,2.168.656,3.408,3.408,0,0,1,1.225,1.846l-1.119.264a2.655,2.655,0,0,0-.867-1.365,2.311,2.311,0,0,0-1.43-.428,2.777,2.777,0,0,0-1.655.475,2.506,2.506,0,0,0-.935,1.274,5.131,5.131,0,0,0-.27,1.649,5.242,5.242,0,0,0,.319,1.913,2.379,2.379,0,0,0,.993,1.222,2.785,2.785,0,0,0,1.459.4,2.445,2.445,0,0,0,1.617-.551A2.819,2.819,0,0,0,300.316,31.152Z" transform="translate(-56.735 -16.073)"/><path class="cls-10" d="M306.779,33.4a3.927,3.927,0,0,1-1.128.7,3.259,3.259,0,0,1-1.163.205,2.262,2.262,0,0,1-1.576-.5,1.654,1.654,0,0,1-.551-1.28,1.7,1.7,0,0,1,.208-.835,1.722,1.722,0,0,1,.545-.606,2.562,2.562,0,0,1,.759-.346,7.536,7.536,0,0,1,.938-.158,9.64,9.64,0,0,0,1.881-.363q.006-.217.006-.275a1.164,1.164,0,0,0-.3-.908,1.765,1.765,0,0,0-1.2-.357,1.863,1.863,0,0,0-1.1.261,1.593,1.593,0,0,0-.524.923l-1.031-.141a2.555,2.555,0,0,1,.463-1.069,2.029,2.029,0,0,1,.932-.627,4.155,4.155,0,0,1,1.412-.22,3.738,3.738,0,0,1,1.295.188,1.706,1.706,0,0,1,.732.472,1.659,1.659,0,0,1,.328.718,5.938,5.938,0,0,1,.053.973v1.406a14.926,14.926,0,0,0,.067,1.86,2.347,2.347,0,0,0,.267.747h-1.1A2.236,2.236,0,0,1,306.779,33.4Zm-.088-2.355a7.738,7.738,0,0,1-1.723.4,3.985,3.985,0,0,0-.92.211.917.917,0,0,0-.416.343.932.932,0,0,0,.173,1.2,1.374,1.374,0,0,0,.935.281,2.175,2.175,0,0,0,1.084-.267,1.642,1.642,0,0,0,.7-.729,2.548,2.548,0,0,0,.17-1.055Z" transform="translate(-56.735 -16.073)"/><path class="cls-10" d="M309.393,36.549V27.941h.961v.809a2.369,2.369,0,0,1,.768-.712,2.109,2.109,0,0,1,1.037-.237,2.459,2.459,0,0,1,1.406.41,2.517,2.517,0,0,1,.92,1.157,4.225,4.225,0,0,1,.311,1.638,4.16,4.16,0,0,1-.343,1.72,2.584,2.584,0,0,1-1,1.172,2.558,2.558,0,0,1-1.374.407,1.985,1.985,0,0,1-.946-.223,2.155,2.155,0,0,1-.688-.562v3.029Zm.955-5.461a2.707,2.707,0,0,0,.486,1.775,1.491,1.491,0,0,0,1.178.574,1.525,1.525,0,0,0,1.2-.595,2.822,2.822,0,0,0,.5-1.843,2.749,2.749,0,0,0-.489-1.781,1.473,1.473,0,0,0-1.169-.592,1.519,1.519,0,0,0-1.192.63A2.818,2.818,0,0,0,310.348,31.088Z" transform="translate(-56.735 -16.073)"/><path class="cls-10" d="M319.652,34.164v-5.4h-.932v-.82h.932v-.662a2.9,2.9,0,0,1,.111-.932,1.349,1.349,0,0,1,.536-.665,1.932,1.932,0,0,1,1.075-.255,5.163,5.163,0,0,1,.984.105l-.158.92a3.539,3.539,0,0,0-.621-.059.924.924,0,0,0-.68.205,1.112,1.112,0,0,0-.2.768v.574h1.213v.82H320.7v5.4Z" transform="translate(-56.735 -16.073)"/><path class="cls-10" d="M322.723,34.164V27.941h.949v.943a2.574,2.574,0,0,1,.671-.873,1.171,1.171,0,0,1,.677-.211,2.057,2.057,0,0,1,1.084.34l-.363.979a1.509,1.509,0,0,0-.773-.229,1,1,0,0,0-.621.208,1.127,1.127,0,0,0-.393.577,4.108,4.108,0,0,0-.176,1.23v3.258Z" transform="translate(-56.735 -16.073)"/><path class="cls-10" d="M326.338,31.053a3.207,3.207,0,0,1,.961-2.561,2.9,2.9,0,0,1,1.957-.691,2.792,2.792,0,0,1,2.1.841,3.2,3.2,0,0,1,.814,2.323,4.117,4.117,0,0,1-.36,1.89,2.551,2.551,0,0,1-1.049,1.069,3.054,3.054,0,0,1-1.5.381,2.8,2.8,0,0,1-2.112-.838A3.347,3.347,0,0,1,326.338,31.053Zm1.084,0a2.65,2.65,0,0,0,.521,1.79,1.736,1.736,0,0,0,2.619,0,2.713,2.713,0,0,0,.521-1.822,2.571,2.571,0,0,0-.524-1.749,1.739,1.739,0,0,0-2.616,0A2.639,2.639,0,0,0,327.422,31.053Z" transform="translate(-56.735 -16.073)"/><path class="cls-10" d="M333.4,34.164V27.941h.943v.873a2.218,2.218,0,0,1,.779-.735,2.189,2.189,0,0,1,1.107-.278,2.047,2.047,0,0,1,1.134.287,1.537,1.537,0,0,1,.624.8,2.234,2.234,0,0,1,1.922-1.09,1.894,1.894,0,0,1,1.424.513,2.191,2.191,0,0,1,.5,1.579v4.271h-1.049v-3.92a2.886,2.886,0,0,0-.1-.911.883.883,0,0,0-.372-.448,1.161,1.161,0,0,0-.633-.17,1.473,1.473,0,0,0-1.09.437,1.923,1.923,0,0,0-.434,1.4v3.615H337.1V30.121a1.779,1.779,0,0,0-.258-1.055.976.976,0,0,0-.844-.352,1.533,1.533,0,0,0-.823.234,1.329,1.329,0,0,0-.548.686,3.859,3.859,0,0,0-.17,1.3v3.229Z" transform="translate(-56.735 -16.073)"/><path class="cls-10" d="M353,31.152l1.137.287a3.826,3.826,0,0,1-1.286,2.136,3.544,3.544,0,0,1-2.271.735,4.08,4.08,0,0,1-2.259-.565A3.531,3.531,0,0,1,347,32.107a5.843,5.843,0,0,1-.454-2.3,5.062,5.062,0,0,1,.513-2.341,3.513,3.513,0,0,1,1.459-1.518,4.263,4.263,0,0,1,2.083-.519,3.521,3.521,0,0,1,2.168.656,3.408,3.408,0,0,1,1.225,1.846l-1.119.264A2.655,2.655,0,0,0,352,26.828a2.311,2.311,0,0,0-1.43-.428,2.777,2.777,0,0,0-1.655.475,2.506,2.506,0,0,0-.935,1.274,5.131,5.131,0,0,0-.27,1.649,5.242,5.242,0,0,0,.319,1.913,2.379,2.379,0,0,0,.993,1.222,2.785,2.785,0,0,0,1.459.4,2.445,2.445,0,0,0,1.617-.551A2.819,2.819,0,0,0,353,31.152Z" transform="translate(-56.735 -16.073)"/><path class="cls-10" d="M359.461,33.4a3.927,3.927,0,0,1-1.128.7,3.259,3.259,0,0,1-1.163.205,2.262,2.262,0,0,1-1.576-.5,1.654,1.654,0,0,1-.551-1.28,1.7,1.7,0,0,1,.208-.835,1.722,1.722,0,0,1,.545-.606,2.562,2.562,0,0,1,.759-.346,7.536,7.536,0,0,1,.938-.158,9.64,9.64,0,0,0,1.881-.363q.006-.217.006-.275a1.164,1.164,0,0,0-.3-.908,1.765,1.765,0,0,0-1.2-.357,1.863,1.863,0,0,0-1.1.261,1.593,1.593,0,0,0-.524.923l-1.031-.141a2.555,2.555,0,0,1,.463-1.069,2.029,2.029,0,0,1,.932-.627,4.155,4.155,0,0,1,1.412-.22,3.738,3.738,0,0,1,1.295.188,1.706,1.706,0,0,1,.732.472,1.659,1.659,0,0,1,.328.718,5.938,5.938,0,0,1,.053.973v1.406a14.926,14.926,0,0,0,.067,1.86,2.347,2.347,0,0,0,.267.747h-1.1A2.236,2.236,0,0,1,359.461,33.4Zm-.088-2.355a7.738,7.738,0,0,1-1.723.4,3.985,3.985,0,0,0-.92.211.917.917,0,0,0-.416.343.932.932,0,0,0,.173,1.2,1.374,1.374,0,0,0,.935.281,2.175,2.175,0,0,0,1.084-.267,1.642,1.642,0,0,0,.7-.729,2.548,2.548,0,0,0,.17-1.055Z" transform="translate(-56.735 -16.073)"/><path class="cls-10" d="M362.051,34.164v-8.59h1.055v8.59Z" transform="translate(-56.735 -16.073)"/><path class="cls-10" d="M364.717,34.164v-8.59h1.055v8.59Z" transform="translate(-56.735 -16.073)"/><path class="cls-10" d="M370.529,29.98a4.668,4.668,0,0,1,1.148-3.349,3.9,3.9,0,0,1,2.965-1.21,4.113,4.113,0,0,1,2.145.568,3.712,3.712,0,0,1,1.456,1.585,5.148,5.148,0,0,1,.5,2.306,5.061,5.061,0,0,1-.527,2.338,3.6,3.6,0,0,1-1.494,1.562,4.269,4.269,0,0,1-2.086.53,4.062,4.062,0,0,1-2.168-.586,3.771,3.771,0,0,1-1.447-1.6A4.848,4.848,0,0,1,370.529,29.98ZM371.7,30a3.441,3.441,0,0,0,.835,2.446,2.913,2.913,0,0,0,4.207-.009,3.648,3.648,0,0,0,.829-2.561,4.4,4.4,0,0,0-.354-1.831,2.724,2.724,0,0,0-1.037-1.213,2.812,2.812,0,0,0-1.532-.431,2.906,2.906,0,0,0-2.077.829A3.7,3.7,0,0,0,371.7,30Z" transform="translate(-56.735 -16.073)"/><path class="cls-10" d="M380.074,36.549V27.941h.961v.809a2.369,2.369,0,0,1,.768-.712,2.109,2.109,0,0,1,1.037-.237,2.459,2.459,0,0,1,1.406.41,2.517,2.517,0,0,1,.92,1.157,4.225,4.225,0,0,1,.311,1.638,4.16,4.16,0,0,1-.343,1.72,2.584,2.584,0,0,1-1,1.172,2.558,2.558,0,0,1-1.374.407,1.985,1.985,0,0,1-.946-.223,2.155,2.155,0,0,1-.688-.562v3.029Zm.955-5.461a2.707,2.707,0,0,0,.486,1.775,1.491,1.491,0,0,0,1.178.574,1.525,1.525,0,0,0,1.2-.595A2.822,2.822,0,0,0,384.4,31a2.749,2.749,0,0,0-.489-1.781,1.473,1.473,0,0,0-1.169-.592,1.519,1.519,0,0,0-1.192.63A2.818,2.818,0,0,0,381.029,31.088Z" transform="translate(-56.735 -16.073)"/><path class="cls-10" d="M389.051,33.221l.152.932a3.912,3.912,0,0,1-.8.094,1.8,1.8,0,0,1-.891-.182,1.017,1.017,0,0,1-.445-.478,3.776,3.776,0,0,1-.129-1.245v-3.58h-.773v-.82h.773V26.4l1.049-.633v2.174h1.061v.82H387.99V32.4a1.838,1.838,0,0,0,.056.58.439.439,0,0,0,.182.205.7.7,0,0,0,.36.076A3.431,3.431,0,0,0,389.051,33.221Z" transform="translate(-56.735 -16.073)"/><path class="cls-10" d="M390.088,26.787V25.574h1.055v1.213Zm0,7.377V27.941h1.055v6.223Z" transform="translate(-56.735 -16.073)"/><path class="cls-10" d="M392.355,31.053a3.207,3.207,0,0,1,.961-2.561,2.9,2.9,0,0,1,1.957-.691,2.792,2.792,0,0,1,2.1.841,3.2,3.2,0,0,1,.814,2.323,4.117,4.117,0,0,1-.36,1.89,2.551,2.551,0,0,1-1.049,1.069,3.054,3.054,0,0,1-1.5.381,2.8,2.8,0,0,1-2.112-.838A3.347,3.347,0,0,1,392.355,31.053Zm1.084,0a2.65,2.65,0,0,0,.521,1.79,1.736,1.736,0,0,0,2.619,0,2.713,2.713,0,0,0,.521-1.822,2.571,2.571,0,0,0-.524-1.749,1.739,1.739,0,0,0-2.616,0A2.639,2.639,0,0,0,393.439,31.053Z" transform="translate(-56.735 -16.073)"/><path class="cls-10" d="M399.422,34.164V27.941h.949v.885a2.237,2.237,0,0,1,1.98-1.025,2.6,2.6,0,0,1,1.034.2,1.627,1.627,0,0,1,.706.53,2.035,2.035,0,0,1,.328.779,6.039,6.039,0,0,1,.059,1.025v3.826h-1.055V30.379a2.841,2.841,0,0,0-.123-.964,1.014,1.014,0,0,0-.437-.51,1.389,1.389,0,0,0-.735-.19,1.709,1.709,0,0,0-1.163.428,2.11,2.11,0,0,0-.489,1.623v3.4Z" transform="translate(-56.735 -16.073)"/><path class="cls-11" d="M161.264,236.737v-8.59h3.24a7.823,7.823,0,0,1,1.307.082,2.588,2.588,0,0,1,1.061.4,2.106,2.106,0,0,1,.688.829,2.8,2.8,0,0,1-.437,3.026,3.345,3.345,0,0,1-2.52.759h-2.2v3.492Zm1.137-4.506h2.221a2.355,2.355,0,0,0,1.564-.41,1.461,1.461,0,0,0,.463-1.154,1.553,1.553,0,0,0-.272-.923,1.274,1.274,0,0,0-.718-.507,4.857,4.857,0,0,0-1.061-.076h-2.2Z" transform="translate(-56.735 -16.073)"/><path class="cls-11" d="M169.121,236.737v-6.223h.949v.943a2.574,2.574,0,0,1,.671-.873,1.171,1.171,0,0,1,.677-.211,2.057,2.057,0,0,1,1.084.34l-.363.979a1.509,1.509,0,0,0-.773-.229,1,1,0,0,0-.621.208,1.127,1.127,0,0,0-.393.577,4.108,4.108,0,0,0-.176,1.23v3.258Z" transform="translate(-56.735 -16.073)"/><path class="cls-11" d="M172.736,233.625a3.207,3.207,0,0,1,.961-2.561,2.9,2.9,0,0,1,1.957-.691,2.792,2.792,0,0,1,2.1.841,3.2,3.2,0,0,1,.814,2.323,4.117,4.117,0,0,1-.36,1.89,2.551,2.551,0,0,1-1.049,1.069,3.054,3.054,0,0,1-1.5.381,2.8,2.8,0,0,1-2.112-.838A3.347,3.347,0,0,1,172.736,233.625Zm1.084,0a2.65,2.65,0,0,0,.521,1.79,1.736,1.736,0,0,0,2.619,0,2.713,2.713,0,0,0,.521-1.822,2.571,2.571,0,0,0-.524-1.749,1.739,1.739,0,0,0-2.616,0A2.639,2.639,0,0,0,173.82,233.625Z" transform="translate(-56.735 -16.073)"/><path class="cls-11" d="M182.105,235.793l.152.932a3.912,3.912,0,0,1-.8.094,1.8,1.8,0,0,1-.891-.182,1.017,1.017,0,0,1-.445-.478,3.776,3.776,0,0,1-.129-1.245v-3.58h-.773v-.82H180v-1.541l1.049-.633v2.174h1.061v.82h-1.061v3.639a1.838,1.838,0,0,0,.056.58.439.439,0,0,0,.182.205.7.7,0,0,0,.36.076A3.431,3.431,0,0,0,182.105,235.793Z" transform="translate(-56.735 -16.073)"/><path class="cls-11" d="M187.4,234.733l1.09.135a2.659,2.659,0,0,1-.955,1.482,3.236,3.236,0,0,1-3.946-.313,3.285,3.285,0,0,1-.8-2.358,3.438,3.438,0,0,1,.809-2.437,2.737,2.737,0,0,1,2.1-.867,2.66,2.66,0,0,1,2.039.85,3.376,3.376,0,0,1,.791,2.391q0,.094-.006.281h-4.641a2.391,2.391,0,0,0,.58,1.57,1.727,1.727,0,0,0,1.3.545,1.614,1.614,0,0,0,.99-.3A2.023,2.023,0,0,0,187.4,234.733Zm-3.463-1.705h3.475a2.108,2.108,0,0,0-.4-1.178,1.616,1.616,0,0,0-1.307-.609,1.675,1.675,0,0,0-1.222.486A1.925,1.925,0,0,0,183.934,233.028Z" transform="translate(-56.735 -16.073)"/><path class="cls-11" d="M193.871,234.458l1.037.135a2.69,2.69,0,0,1-.87,1.679,2.535,2.535,0,0,1-1.72.606,2.672,2.672,0,0,1-2.054-.835,3.388,3.388,0,0,1-.776-2.394,4.331,4.331,0,0,1,.334-1.764,2.329,2.329,0,0,1,1.017-1.134,3.016,3.016,0,0,1,1.485-.378,2.582,2.582,0,0,1,1.658.513,2.351,2.351,0,0,1,.826,1.456l-1.025.158a1.7,1.7,0,0,0-.519-.943,1.342,1.342,0,0,0-.9-.316,1.637,1.637,0,0,0-1.295.571,2.712,2.712,0,0,0-.5,1.808,2.8,2.8,0,0,0,.48,1.822,1.564,1.564,0,0,0,1.254.568,1.478,1.478,0,0,0,1.037-.381A1.89,1.89,0,0,0,193.871,234.458Z" transform="translate(-56.735 -16.073)"/><path class="cls-11" d="M198.113,235.793l.152.932a3.912,3.912,0,0,1-.8.094,1.8,1.8,0,0,1-.891-.182,1.017,1.017,0,0,1-.445-.478,3.776,3.776,0,0,1-.129-1.245v-3.58h-.773v-.82H196v-1.541l1.049-.633v2.174h1.061v.82h-1.061v3.639a1.838,1.838,0,0,0,.056.58.439.439,0,0,0,.182.205.7.7,0,0,0,.36.076A3.431,3.431,0,0,0,198.113,235.793Z" transform="translate(-56.735 -16.073)"/><path class="cls-11" d="M199.15,229.36v-1.213h1.055v1.213Zm0,7.377v-6.223h1.055v6.223Z" transform="translate(-56.735 -16.073)"/><path class="cls-11" d="M201.418,233.625a3.207,3.207,0,0,1,.961-2.561,2.9,2.9,0,0,1,1.957-.691,2.792,2.792,0,0,1,2.1.841,3.2,3.2,0,0,1,.814,2.323,4.117,4.117,0,0,1-.36,1.89,2.551,2.551,0,0,1-1.049,1.069,3.054,3.054,0,0,1-1.5.381,2.8,2.8,0,0,1-2.112-.838A3.347,3.347,0,0,1,201.418,233.625Zm1.084,0a2.65,2.65,0,0,0,.521,1.79,1.736,1.736,0,0,0,2.619,0,2.713,2.713,0,0,0,.521-1.822,2.571,2.571,0,0,0-.524-1.749,1.739,1.739,0,0,0-2.616,0A2.639,2.639,0,0,0,202.5,233.625Z" transform="translate(-56.735 -16.073)"/><path class="cls-11" d="M208.484,236.737v-6.223h.949v.885a2.237,2.237,0,0,1,1.98-1.025,2.6,2.6,0,0,1,1.034.2,1.627,1.627,0,0,1,.706.53,2.035,2.035,0,0,1,.328.779,6.039,6.039,0,0,1,.059,1.025v3.826h-1.055v-3.785a2.841,2.841,0,0,0-.123-.964,1.014,1.014,0,0,0-.437-.51,1.389,1.389,0,0,0-.735-.19,1.709,1.709,0,0,0-1.163.428,2.11,2.11,0,0,0-.489,1.623v3.4Z" transform="translate(-56.735 -16.073)"/><path class="cls-11" d="M218.744,236.737v-5.4h-.932v-.82h.932v-.662a2.9,2.9,0,0,1,.111-.932,1.349,1.349,0,0,1,.536-.665,1.932,1.932,0,0,1,1.075-.255,5.163,5.163,0,0,1,.984.105l-.158.92a3.539,3.539,0,0,0-.621-.059.924.924,0,0,0-.68.205,1.112,1.112,0,0,0-.2.768v.574h1.213v.82h-1.213v5.4Z" transform="translate(-56.735 -16.073)"/><path class="cls-11" d="M221.814,236.737v-6.223h.949v.943a2.574,2.574,0,0,1,.671-.873,1.171,1.171,0,0,1,.677-.211,2.057,2.057,0,0,1,1.084.34l-.363.979a1.509,1.509,0,0,0-.773-.229,1,1,0,0,0-.621.208,1.127,1.127,0,0,0-.393.577,4.108,4.108,0,0,0-.176,1.23v3.258Z" transform="translate(-56.735 -16.073)"/><path class="cls-11" d="M225.43,233.625a3.207,3.207,0,0,1,.961-2.561,2.9,2.9,0,0,1,1.957-.691,2.792,2.792,0,0,1,2.1.841,3.2,3.2,0,0,1,.814,2.323,4.117,4.117,0,0,1-.36,1.89,2.551,2.551,0,0,1-1.049,1.069,3.054,3.054,0,0,1-1.5.381,2.8,2.8,0,0,1-2.112-.838A3.347,3.347,0,0,1,225.43,233.625Zm1.084,0a2.65,2.65,0,0,0,.521,1.79,1.736,1.736,0,0,0,2.619,0,2.713,2.713,0,0,0,.521-1.822,2.571,2.571,0,0,0-.524-1.749,1.739,1.739,0,0,0-2.616,0A2.639,2.639,0,0,0,226.514,233.625Z" transform="translate(-56.735 -16.073)"/><path class="cls-11" d="M232.5,236.737v-6.223h.943v.873a2.218,2.218,0,0,1,.779-.735,2.189,2.189,0,0,1,1.107-.278,2.047,2.047,0,0,1,1.134.287,1.537,1.537,0,0,1,.624.8,2.234,2.234,0,0,1,1.922-1.09,1.894,1.894,0,0,1,1.424.513,2.191,2.191,0,0,1,.5,1.579v4.271h-1.049v-3.92a2.886,2.886,0,0,0-.1-.911.883.883,0,0,0-.372-.448,1.161,1.161,0,0,0-.633-.17,1.473,1.473,0,0,0-1.09.437,1.923,1.923,0,0,0-.434,1.4v3.615h-1.055v-4.043a1.779,1.779,0,0,0-.258-1.055.976.976,0,0,0-.844-.352,1.533,1.533,0,0,0-.823.234,1.329,1.329,0,0,0-.548.686,3.859,3.859,0,0,0-.17,1.3v3.229Z" transform="translate(-56.735 -16.073)"/><path class="cls-11" d="M173.595,251.137v-8.59h3.24a7.823,7.823,0,0,1,1.307.082,2.588,2.588,0,0,1,1.061.4,2.106,2.106,0,0,1,.688.829,2.8,2.8,0,0,1-.437,3.026,3.345,3.345,0,0,1-2.52.759h-2.2v3.492Zm1.137-4.506h2.221a2.355,2.355,0,0,0,1.564-.41,1.461,1.461,0,0,0,.463-1.154,1.553,1.553,0,0,0-.272-.923,1.274,1.274,0,0,0-.718-.507,4.857,4.857,0,0,0-1.061-.076h-2.2Z" transform="translate(-56.735 -16.073)"/><path class="cls-11" d="M185.542,251.137v-.914a2.278,2.278,0,0,1-1.975,1.055,2.516,2.516,0,0,1-1.028-.211,1.694,1.694,0,0,1-.709-.53,1.987,1.987,0,0,1-.325-.782,5.356,5.356,0,0,1-.064-.984v-3.855H182.5v3.451a6.15,6.15,0,0,0,.064,1.113,1.1,1.1,0,0,0,.422.653,1.307,1.307,0,0,0,.8.237,1.736,1.736,0,0,0,.891-.243,1.352,1.352,0,0,0,.589-.662,3.322,3.322,0,0,0,.173-1.216v-3.334h1.055v6.223Z" transform="translate(-56.735 -16.073)"/><path class="cls-11" d="M190.44,250.193l.152.932a3.912,3.912,0,0,1-.8.094,1.8,1.8,0,0,1-.891-.182,1.017,1.017,0,0,1-.445-.478,3.776,3.776,0,0,1-.129-1.245v-3.58h-.773v-.82h.773v-1.541l1.049-.633v2.174h1.061v.82H189.38v3.639a1.838,1.838,0,0,0,.056.58.439.439,0,0,0,.182.205.7.7,0,0,0,.36.076A3.431,3.431,0,0,0,190.44,250.193Z" transform="translate(-56.735 -16.073)"/><path class="cls-11" d="M194.595,246.953a4.668,4.668,0,0,1,1.148-3.349,3.9,3.9,0,0,1,2.965-1.21,4.113,4.113,0,0,1,2.145.568,3.712,3.712,0,0,1,1.456,1.585,5.148,5.148,0,0,1,.5,2.306,5.061,5.061,0,0,1-.527,2.338,3.6,3.6,0,0,1-1.494,1.562,4.269,4.269,0,0,1-2.086.53,4.062,4.062,0,0,1-2.168-.586,3.771,3.771,0,0,1-1.447-1.6A4.848,4.848,0,0,1,194.595,246.953Zm1.172.018a3.441,3.441,0,0,0,.835,2.446,2.913,2.913,0,0,0,4.207-.009,3.648,3.648,0,0,0,.829-2.561,4.4,4.4,0,0,0-.354-1.831,2.724,2.724,0,0,0-1.037-1.213,2.812,2.812,0,0,0-1.532-.431,2.906,2.906,0,0,0-2.077.829A3.7,3.7,0,0,0,195.767,246.971Z" transform="translate(-56.735 -16.073)"/><path class="cls-11" d="M204.14,253.521v-8.607h.961v.809a2.369,2.369,0,0,1,.768-.712,2.109,2.109,0,0,1,1.037-.237,2.459,2.459,0,0,1,1.406.41,2.517,2.517,0,0,1,.92,1.157,4.225,4.225,0,0,1,.311,1.638,4.16,4.16,0,0,1-.343,1.72,2.584,2.584,0,0,1-1,1.172,2.558,2.558,0,0,1-1.374.407,1.985,1.985,0,0,1-.946-.223,2.155,2.155,0,0,1-.688-.562v3.029Zm.955-5.461a2.707,2.707,0,0,0,.486,1.775,1.491,1.491,0,0,0,1.178.574,1.525,1.525,0,0,0,1.2-.595,2.822,2.822,0,0,0,.5-1.843,2.749,2.749,0,0,0-.489-1.781,1.473,1.473,0,0,0-1.169-.592,1.519,1.519,0,0,0-1.192.63A2.818,2.818,0,0,0,205.095,248.061Z" transform="translate(-56.735 -16.073)"/><path class="cls-11" d="M213.116,250.193l.152.932a3.912,3.912,0,0,1-.8.094,1.8,1.8,0,0,1-.891-.182,1.017,1.017,0,0,1-.445-.478,3.776,3.776,0,0,1-.129-1.245v-3.58h-.773v-.82h.773v-1.541l1.049-.633v2.174h1.061v.82h-1.061v3.639a1.838,1.838,0,0,0,.056.58.439.439,0,0,0,.182.205.7.7,0,0,0,.36.076A3.431,3.431,0,0,0,213.116,250.193Z" transform="translate(-56.735 -16.073)"/><path class="cls-11" d="M214.153,243.76v-1.213h1.055v1.213Zm0,7.377v-6.223h1.055v6.223Z" transform="translate(-56.735 -16.073)"/><path class="cls-11" d="M216.421,248.025a3.207,3.207,0,0,1,.961-2.561,2.9,2.9,0,0,1,1.957-.691,2.792,2.792,0,0,1,2.1.841,3.2,3.2,0,0,1,.814,2.323,4.117,4.117,0,0,1-.36,1.89,2.551,2.551,0,0,1-1.049,1.069,3.054,3.054,0,0,1-1.5.381,2.8,2.8,0,0,1-2.112-.838A3.347,3.347,0,0,1,216.421,248.025Zm1.084,0a2.65,2.65,0,0,0,.521,1.79,1.736,1.736,0,0,0,2.619,0,2.713,2.713,0,0,0,.521-1.822,2.571,2.571,0,0,0-.524-1.749,1.739,1.739,0,0,0-2.616,0A2.639,2.639,0,0,0,217.5,248.025Z" transform="translate(-56.735 -16.073)"/><path class="cls-11" d="M223.487,251.137v-6.223h.949v.885a2.237,2.237,0,0,1,1.98-1.025,2.6,2.6,0,0,1,1.034.2,1.627,1.627,0,0,1,.706.53,2.035,2.035,0,0,1,.328.779,6.039,6.039,0,0,1,.059,1.025v3.826h-1.055v-3.785a2.841,2.841,0,0,0-.123-.964,1.014,1.014,0,0,0-.437-.51,1.389,1.389,0,0,0-.735-.19,1.709,1.709,0,0,0-1.163.428,2.11,2.11,0,0,0-.489,1.623v3.4Z" transform="translate(-56.735 -16.073)"/><line class="cls-12" x1="294.179" y1="23.954" x2="320.003" y2="66.894"/><polygon class="cls-10" points="321.409 54.524 320.295 70.365 307.134 61.479 321.409 54.524"/><line class="cls-13" x1="149.536" y1="210.104" x2="155.056" y2="160.302"/><polygon class="cls-11" points="146.639 168.676 157.134 156.759 162.206 171.807 146.639 168.676"/></svg>