<svg id="Layer_1" data-name="Layer 1" xmlns="http://www.w3.org/2000/svg" viewBox="0 0 747.193 174.965"><defs><style>.cls-1,.cls-2,.cls-8{fill:none;}.cls-1,.cls-9{stroke:#af6f29;}.cls-2{stroke:#231f20;}.cls-3{fill:#00a180;}.cls-4{fill:#9c2d2c;}.cls-5{fill:#fff;}.cls-6{fill:#29538c;}.cls-7{fill:#5e5f5f;}.cls-8{stroke:#000;stroke-width:3px;}.cls-9{fill:#af6f29;}</style></defs><title>Understanding_Charitable_ Remainder_Trusts</title><line class="cls-1" x1="183.126" y1="109.832" x2="183.126" y2="84.607"/><line class="cls-1" x1="363.994" y1="72.087" x2="363.994" y2="46.862"/><line class="cls-1" x1="380.025" y1="122.445" x2="380.025" y2="97.22"/><line class="cls-1" x1="560.687" y1="82.916" x2="560.687" y2="57.691"/><rect class="cls-2" x="0.5" y="0.5" width="746.193" height="173.965"/><rect class="cls-3" x="213.994" y="57.691" width="119.338" height="51.421"/><rect class="cls-4" x="410.687" y="57.691" width="119.338" height="51.421"/><polygon points="603.591 82.695 589.005 68.299 589.005 97.092 603.591 82.695"/><path class="cls-5" d="M263.89,95.174V85.682h3.27a7.917,7.917,0,0,1,1.69.136,3.212,3.212,0,0,1,1.392.68,3.865,3.865,0,0,1,1.124,1.622,6.373,6.373,0,0,1,.372,2.256,6.623,6.623,0,0,1-.252,1.917,4.652,4.652,0,0,1-.647,1.382,3.448,3.448,0,0,1-.864.861,3.523,3.523,0,0,1-1.133.476,6.466,6.466,0,0,1-1.524.162Zm1.256-1.12h2.027a4.912,4.912,0,0,0,1.473-.175,2.1,2.1,0,0,0,.852-.492,2.99,2.99,0,0,0,.7-1.2,5.863,5.863,0,0,0,.25-1.829,4.421,4.421,0,0,0-.489-2.289A2.463,2.463,0,0,0,268.766,87a4.915,4.915,0,0,0-1.625-.194h-1.994Z" transform="translate(-7.307 -9.004)"/><path class="cls-5" d="M272.883,91.736a3.544,3.544,0,0,1,1.062-2.83,3.2,3.2,0,0,1,2.163-.764,3.084,3.084,0,0,1,2.318.929,3.533,3.533,0,0,1,.9,2.567,4.552,4.552,0,0,1-.4,2.088,2.817,2.817,0,0,1-1.159,1.182,3.372,3.372,0,0,1-1.661.421,3.091,3.091,0,0,1-2.334-.926A3.7,3.7,0,0,1,272.883,91.736Zm1.2,0a2.928,2.928,0,0,0,.576,1.978,1.918,1.918,0,0,0,2.894,0,3,3,0,0,0,.576-2.014,2.842,2.842,0,0,0-.58-1.933,1.922,1.922,0,0,0-2.891,0A2.915,2.915,0,0,0,274.081,91.736Z" transform="translate(-7.307 -9.004)"/><path class="cls-5" d="M280.691,95.174V88.3h1.049v.978a2.471,2.471,0,0,1,2.188-1.133,2.868,2.868,0,0,1,1.143.223,1.8,1.8,0,0,1,.78.586,2.25,2.25,0,0,1,.363.861,6.7,6.7,0,0,1,.064,1.133v4.228h-1.165V90.991a3.134,3.134,0,0,0-.136-1.065,1.122,1.122,0,0,0-.482-.563,1.535,1.535,0,0,0-.812-.21,1.888,1.888,0,0,0-1.285.473,2.333,2.333,0,0,0-.541,1.793v3.755Z" transform="translate(-7.307 -9.004)"/><path class="cls-5" d="M287.632,91.736a3.544,3.544,0,0,1,1.062-2.83,3.2,3.2,0,0,1,2.163-.764,3.084,3.084,0,0,1,2.318.929,3.533,3.533,0,0,1,.9,2.567,4.552,4.552,0,0,1-.4,2.088,2.817,2.817,0,0,1-1.159,1.182,3.372,3.372,0,0,1-1.661.421,3.091,3.091,0,0,1-2.334-.926A3.7,3.7,0,0,1,287.632,91.736Zm1.2,0a2.928,2.928,0,0,0,.576,1.978,1.918,1.918,0,0,0,2.894,0,3,3,0,0,0,.576-2.014,2.842,2.842,0,0,0-.58-1.933,1.922,1.922,0,0,0-2.891,0A2.915,2.915,0,0,0,288.83,91.736Z" transform="translate(-7.307 -9.004)"/><path class="cls-5" d="M295.428,95.174V88.3h1.049V89.34a2.844,2.844,0,0,1,.741-.965,1.294,1.294,0,0,1,.748-.233,2.271,2.271,0,0,1,1.2.375l-.4,1.081a1.669,1.669,0,0,0-.854-.252,1.108,1.108,0,0,0-.686.23,1.245,1.245,0,0,0-.434.638,4.544,4.544,0,0,0-.194,1.36v3.6Z" transform="translate(-7.307 -9.004)"/><path class="cls-5" d="M465.836,95.458V87.086h-3.127v-1.12h7.523v1.12h-3.14v8.372Z" transform="translate(-7.307 -9.004)"/><path class="cls-5" d="M471.359,95.458V88.582h1.049v1.042a2.844,2.844,0,0,1,.741-.965,1.294,1.294,0,0,1,.748-.233,2.271,2.271,0,0,1,1.2.375l-.4,1.081a1.669,1.669,0,0,0-.854-.252,1.108,1.108,0,0,0-.686.23,1.245,1.245,0,0,0-.434.638,4.544,4.544,0,0,0-.194,1.36v3.6Z" transform="translate(-7.307 -9.004)"/><path class="cls-5" d="M480.293,95.458v-1.01a2.516,2.516,0,0,1-2.182,1.166,2.783,2.783,0,0,1-1.136-.233,1.87,1.87,0,0,1-.783-.586,2.2,2.2,0,0,1-.359-.864,5.929,5.929,0,0,1-.071-1.088v-4.26h1.166V92.4a6.753,6.753,0,0,0,.071,1.23,1.215,1.215,0,0,0,.466.722,1.445,1.445,0,0,0,.881.262,1.917,1.917,0,0,0,.984-.269,1.5,1.5,0,0,0,.651-.732,3.679,3.679,0,0,0,.191-1.343V88.582h1.166v6.876Z" transform="translate(-7.307 -9.004)"/><path class="cls-5" d="M482.7,93.405l1.153-.182a1.609,1.609,0,0,0,.541,1.062,1.883,1.883,0,0,0,1.24.369,1.821,1.821,0,0,0,1.191-.327.978.978,0,0,0,.388-.767.708.708,0,0,0-.343-.622,5.06,5.06,0,0,0-1.191-.4,10.857,10.857,0,0,1-1.777-.56,1.7,1.7,0,0,1-1.007-1.577,1.772,1.772,0,0,1,.21-.851,1.883,1.883,0,0,1,.573-.651,2.4,2.4,0,0,1,.741-.34,3.526,3.526,0,0,1,1.007-.139,3.98,3.98,0,0,1,1.421.233,1.93,1.93,0,0,1,.9.631,2.465,2.465,0,0,1,.4,1.065l-1.14.155a1.248,1.248,0,0,0-.45-.829,1.649,1.649,0,0,0-1.052-.3,1.907,1.907,0,0,0-1.146.266.773.773,0,0,0-.343.622.644.644,0,0,0,.143.408,1.023,1.023,0,0,0,.447.311q.175.064,1.029.3a14.352,14.352,0,0,1,1.726.541,1.75,1.75,0,0,1,.767.612,1.709,1.709,0,0,1,.279,1,1.955,1.955,0,0,1-.34,1.1,2.193,2.193,0,0,1-.98.8,3.57,3.57,0,0,1-1.451.282,3.231,3.231,0,0,1-2.042-.557A2.591,2.591,0,0,1,482.7,93.405Z" transform="translate(-7.307 -9.004)"/><path class="cls-5" d="M492.336,94.415l.168,1.029a4.307,4.307,0,0,1-.88.1,2,2,0,0,1-.984-.2,1.127,1.127,0,0,1-.492-.528,4.183,4.183,0,0,1-.142-1.376V89.488h-.855v-.906h.855v-1.7l1.159-.7v2.4h1.172v.906h-1.172v4.021a2.032,2.032,0,0,0,.062.641.487.487,0,0,0,.2.227.776.776,0,0,0,.4.084A3.781,3.781,0,0,0,492.336,94.415Z" transform="translate(-7.307 -9.004)"/><rect class="cls-6" x="17.15" y="57.691" width="119.338" height="51.421"/><rect class="cls-7" x="606.227" y="57.691" width="119.338" height="51.421"/><path class="cls-5" d="M74.987,95.221V85.729h1.256v9.492Z" transform="translate(-7.307 -9.004)"/><path class="cls-5" d="M78.477,95.221V85.729h4.208a5.6,5.6,0,0,1,1.929.256,2.108,2.108,0,0,1,1.055.9,2.691,2.691,0,0,1,.4,1.431,2.386,2.386,0,0,1-.654,1.7,3.311,3.311,0,0,1-2.02.881,3.232,3.232,0,0,1,.757.473,6.513,6.513,0,0,1,1.042,1.262l1.651,2.583h-1.58l-1.256-1.975q-.551-.855-.907-1.308a2.844,2.844,0,0,0-.638-.634,1.871,1.871,0,0,0-.573-.252,3.767,3.767,0,0,0-.7-.045H79.733v4.215Zm1.256-5.3h2.7a4.053,4.053,0,0,0,1.347-.178,1.432,1.432,0,0,0,.738-.57,1.54,1.54,0,0,0,.252-.852,1.413,1.413,0,0,0-.489-1.107,2.284,2.284,0,0,0-1.544-.434h-3Z" transform="translate(-7.307 -9.004)"/><path class="cls-5" d="M87.606,92.172l1.185-.1a2.616,2.616,0,0,0,.392,1.169,2.133,2.133,0,0,0,.955.738,3.614,3.614,0,0,0,1.457.282,3.5,3.5,0,0,0,1.269-.213,1.763,1.763,0,0,0,.819-.586,1.36,1.36,0,0,0,.269-.812,1.234,1.234,0,0,0-.259-.78,1.919,1.919,0,0,0-.854-.56,16.8,16.8,0,0,0-1.69-.463,8.622,8.622,0,0,1-1.833-.593,2.569,2.569,0,0,1-1.013-.884,2.165,2.165,0,0,1-.333-1.181,2.412,2.412,0,0,1,.408-1.344,2.525,2.525,0,0,1,1.191-.948,4.517,4.517,0,0,1,1.742-.324,4.761,4.761,0,0,1,1.861.34,2.686,2.686,0,0,1,1.24,1,2.879,2.879,0,0,1,.466,1.5l-1.2.091a1.942,1.942,0,0,0-.657-1.36,2.559,2.559,0,0,0-1.654-.459,2.657,2.657,0,0,0-1.661.417,1.253,1.253,0,0,0-.521,1.007,1.079,1.079,0,0,0,.369.842,5,5,0,0,0,1.894.677,12.566,12.566,0,0,1,2.1.6,2.877,2.877,0,0,1,1.224.968,2.358,2.358,0,0,1,.4,1.35,2.582,2.582,0,0,1-.434,1.428,2.859,2.859,0,0,1-1.247,1.042,4.344,4.344,0,0,1-1.829.372,5.459,5.459,0,0,1-2.159-.375,3.023,3.023,0,0,1-1.366-1.129A3.2,3.2,0,0,1,87.606,92.172Z" transform="translate(-7.307 -9.004)"/><path class="cls-5" d="M660.2,92.177l1.257.317a4.227,4.227,0,0,1-1.422,2.36,3.913,3.913,0,0,1-2.509.813,4.512,4.512,0,0,1-2.5-.625,3.9,3.9,0,0,1-1.463-1.81,6.45,6.45,0,0,1-.5-2.544,5.6,5.6,0,0,1,.566-2.587,3.882,3.882,0,0,1,1.612-1.677,4.714,4.714,0,0,1,2.3-.573,3.892,3.892,0,0,1,2.4.725,3.767,3.767,0,0,1,1.354,2.04l-1.236.291A2.935,2.935,0,0,0,659.1,87.4a2.552,2.552,0,0,0-1.579-.473,3.067,3.067,0,0,0-1.829.524,2.766,2.766,0,0,0-1.033,1.408,5.676,5.676,0,0,0-.3,1.822,5.789,5.789,0,0,0,.354,2.114,2.624,2.624,0,0,0,1.1,1.35,3.081,3.081,0,0,0,1.612.447,2.7,2.7,0,0,0,1.787-.608A3.112,3.112,0,0,0,660.2,92.177Z" transform="translate(-7.307 -9.004)"/><path class="cls-5" d="M662.854,95.5V86.013h1.165v3.406a2.6,2.6,0,0,1,2.06-.945,2.779,2.779,0,0,1,1.327.3,1.768,1.768,0,0,1,.806.832,3.831,3.831,0,0,1,.243,1.541V95.5H667.29V91.147a1.8,1.8,0,0,0-.379-1.272,1.41,1.41,0,0,0-1.072-.4,1.89,1.89,0,0,0-.974.269,1.521,1.521,0,0,0-.651.729,3.358,3.358,0,0,0-.194,1.269V95.5Z" transform="translate(-7.307 -9.004)"/><path class="cls-5" d="M674.716,94.657a4.34,4.34,0,0,1-1.247.777,3.6,3.6,0,0,1-1.285.227,2.5,2.5,0,0,1-1.741-.553,1.826,1.826,0,0,1-.608-1.415,1.88,1.88,0,0,1,.229-.922,1.9,1.9,0,0,1,.6-.67,2.841,2.841,0,0,1,.838-.382,8.307,8.307,0,0,1,1.036-.175,10.67,10.67,0,0,0,2.078-.4c0-.16.007-.261.007-.3a1.289,1.289,0,0,0-.33-1,1.952,1.952,0,0,0-1.328-.395,2.057,2.057,0,0,0-1.214.288,1.76,1.76,0,0,0-.579,1.02l-1.14-.155a2.823,2.823,0,0,1,.512-1.182,2.243,2.243,0,0,1,1.029-.693,4.6,4.6,0,0,1,1.561-.243,4.129,4.129,0,0,1,1.431.207,1.885,1.885,0,0,1,.81.521,1.831,1.831,0,0,1,.362.793,6.526,6.526,0,0,1,.059,1.075v1.554a16.472,16.472,0,0,0,.074,2.056,2.581,2.581,0,0,0,.295.826h-1.218A2.458,2.458,0,0,1,674.716,94.657Zm-.1-2.6a8.556,8.556,0,0,1-1.9.44,4.4,4.4,0,0,0-1.017.233,1.016,1.016,0,0,0-.46.378,1.032,1.032,0,0,0,.191,1.331,1.518,1.518,0,0,0,1.032.311,2.4,2.4,0,0,0,1.2-.295,1.812,1.812,0,0,0,.771-.806,2.816,2.816,0,0,0,.188-1.165Z" transform="translate(-7.307 -9.004)"/><path class="cls-5" d="M677.591,95.5V88.629h1.049v1.042a2.844,2.844,0,0,1,.741-.965,1.294,1.294,0,0,1,.748-.233,2.27,2.27,0,0,1,1.2.375l-.4,1.081a1.67,1.67,0,0,0-.854-.252,1.11,1.11,0,0,0-.687.23,1.241,1.241,0,0,0-.434.638,4.529,4.529,0,0,0-.194,1.36v3.6Z" transform="translate(-7.307 -9.004)"/><path class="cls-5" d="M682.025,87.354v-1.34h1.165v1.34Zm0,8.151V88.629h1.165V95.5Z" transform="translate(-7.307 -9.004)"/><path class="cls-5" d="M687.51,94.462l.168,1.029a4.312,4.312,0,0,1-.881.1,2,2,0,0,1-.983-.2,1.123,1.123,0,0,1-.492-.528,4.151,4.151,0,0,1-.143-1.376V89.535h-.854v-.906h.854v-1.7l1.159-.7v2.4h1.172v.906h-1.172v4.021a2.032,2.032,0,0,0,.062.641.486.486,0,0,0,.2.227.776.776,0,0,0,.4.084A3.8,3.8,0,0,0,687.51,94.462Z" transform="translate(-7.307 -9.004)"/><path class="cls-5" d="M688.6,98.153l-.13-1.094a2.593,2.593,0,0,0,.667.1,1.281,1.281,0,0,0,.622-.13,1.063,1.063,0,0,0,.382-.362,5.731,5.731,0,0,0,.356-.868c.021-.065.056-.16.1-.285l-2.609-6.889h1.256l1.431,3.982q.278.757.5,1.593a15.691,15.691,0,0,1,.479-1.567l1.47-4.008h1.166l-2.616,6.993a13.692,13.692,0,0,1-.653,1.56,2.312,2.312,0,0,1-.713.845,1.685,1.685,0,0,1-.958.269A2.327,2.327,0,0,1,688.6,98.153Z" transform="translate(-7.307 -9.004)"/><line class="cls-8" x1="530.025" y1="82.695" x2="591.349" y2="82.695"/><polygon points="140.222 83.29 154.808 97.686 154.808 68.893 140.222 83.29"/><line class="cls-8" x1="213.788" y1="83.29" x2="152.463" y2="83.29"/><polygon points="406.898 72.087 392.312 57.691 392.312 86.484 406.898 72.087"/><line class="cls-8" x1="333.332" y1="72.087" x2="394.657" y2="72.087"/><polygon points="337.121 96.144 351.707 110.541 351.707 81.748 337.121 96.144"/><line class="cls-8" x1="410.687" y1="96.144" x2="349.362" y2="96.144"/><rect class="cls-9" x="169.971" y="109.832" width="26.309" height="26.309"/><rect class="cls-9" x="350.84" y="20.553" width="26.309" height="26.309"/><rect class="cls-9" x="366.87" y="122.987" width="26.309" height="26.309"/><rect class="cls-9" x="547.533" y="30.991" width="26.309" height="26.309"/><path class="cls-5" d="M193.452,134.047v1.69h-6.377a4.4,4.4,0,0,1,.622-1.816,12.075,12.075,0,0,1,2.046-2.276,12.859,12.859,0,0,0,1.509-1.554,2,2,0,0,0,.375-1.113,1.264,1.264,0,0,0-.327-.936,1.389,1.389,0,0,0-1.81.016,1.759,1.759,0,0,0-.388,1.14l-1.813-.182a2.972,2.972,0,0,1,1.017-2.156,3.411,3.411,0,0,1,2.136-.654,3.089,3.089,0,0,1,2.208.757,2.484,2.484,0,0,1,.8,1.884,3.277,3.277,0,0,1-.23,1.22,4.957,4.957,0,0,1-.728,1.214,11.707,11.707,0,0,1-1.191,1.211q-.861.79-1.091,1.049a3.16,3.16,0,0,0-.373.5Z" transform="translate(-7.307 -9.004)"/><path class="cls-5" d="M186.745,137.838v-1.392h7.375v1.392Z" transform="translate(-7.307 -9.004)"/><path class="cls-5" d="M372.832,46.731h-1.819V39.875a6.268,6.268,0,0,1-2.35,1.379V39.6a5.264,5.264,0,0,0,1.547-.884,3.355,3.355,0,0,0,1.146-1.518h1.476Z" transform="translate(-7.307 -9.004)"/><path class="cls-5" d="M367.614,48.832V47.44h7.375v1.392Z" transform="translate(-7.307 -9.004)"/><path class="cls-5" d="M384.143,145.745l1.761-.214a1.664,1.664,0,0,0,.453,1.03,1.24,1.24,0,0,0,.894.356,1.227,1.227,0,0,0,.948-.427,1.657,1.657,0,0,0,.385-1.152,1.545,1.545,0,0,0-.369-1.088,1.176,1.176,0,0,0-.9-.4,3.185,3.185,0,0,0-.835.136l.2-1.482a1.6,1.6,0,0,0,1.126-.321,1.141,1.141,0,0,0,.389-.9.981.981,0,0,0-1.042-1.049,1.1,1.1,0,0,0-.8.324,1.519,1.519,0,0,0-.4.945l-1.677-.285a3.749,3.749,0,0,1,.528-1.376,2.384,2.384,0,0,1,.984-.809,3.306,3.306,0,0,1,1.415-.294,2.821,2.821,0,0,1,2.149.854,2.163,2.163,0,0,1-.7,3.574,2.212,2.212,0,0,1,1.3.784,2.274,2.274,0,0,1,.489,1.47,2.849,2.849,0,0,1-.913,2.13,3.41,3.41,0,0,1-4.409.139A2.914,2.914,0,0,1,384.143,145.745Z" transform="translate(-7.307 -9.004)"/><path class="cls-5" d="M383.644,150.364v-1.392h7.375v1.392Z" transform="translate(-7.307 -9.004)"/><path class="cls-5" d="M568.438,57.4v-1.91h-3.885V53.9l4.118-6.027H570.2V53.9h1.179v1.6H570.2V57.4Zm0-3.509V50.651L566.256,53.9Z" transform="translate(-7.307 -9.004)"/><path class="cls-5" d="M564.307,59.505V58.113h7.374v1.392Z" transform="translate(-7.307 -9.004)"/></svg>