<svg id="Layer_1" data-name="Layer 1" xmlns="http://www.w3.org/2000/svg" viewBox="0 0 441.869 91.554"><defs><style>.cls-1{fill:none;stroke:#231f20;stroke-miterlimit:10;stroke-width:2px;}.cls-2{fill:#af6f29;}.cls-3{fill:#4676ba;}.cls-4{fill:#231f20;}.cls-5{fill:#fff;}</style></defs><title>Beta_Measure_Stocks_Relative_Risk</title><line class="cls-1" x1="220.934" y1="14.76" x2="220.934" y2="72.904"/><path class="cls-2" d="M95.559,87.821a10.477,10.477,0,0,1,.417-3.267,4.061,4.061,0,0,1,1.241-1.908,3.171,3.171,0,0,1,2.072-.671,3.384,3.384,0,0,1,1.616.371,3.1,3.1,0,0,1,1.147,1.069,5.746,5.746,0,0,1,.71,1.7,11.327,11.327,0,0,1,.257,2.7,10.5,10.5,0,0,1-.414,3.251,4.065,4.065,0,0,1-1.237,1.913,3.172,3.172,0,0,1-2.08.675,3.139,3.139,0,0,1-2.6-1.187A7.538,7.538,0,0,1,95.559,87.821Zm1.444,0a7.17,7.17,0,0,0,.66,3.75,1.884,1.884,0,0,0,3.255,0,7.178,7.178,0,0,0,.66-3.747,7.177,7.177,0,0,0-.66-3.754,1.958,1.958,0,0,0-1.643-.929,1.8,1.8,0,0,0-1.545.819A7.259,7.259,0,0,0,97,87.821Z" transform="translate(0 -4.189)"/><path class="cls-2" d="M105.238,93.464v-1.6h1.6v1.6h-1.6Z" transform="translate(0 -4.189)"/><path class="cls-2" d="M108.891,90.467l1.475-.125a2.645,2.645,0,0,0,.761,1.62,2.065,2.065,0,0,0,1.44.542,2.242,2.242,0,0,0,1.717-.765,2.883,2.883,0,0,0,.7-2.029,2.606,2.606,0,0,0-.675-1.9,2.355,2.355,0,0,0-1.768-.694,2.45,2.45,0,0,0-1.226.308,2.376,2.376,0,0,0-.858.8l-1.319-.172,1.108-5.877h5.69V83.52h-4.566L110.756,86.6a3.723,3.723,0,0,1,2.162-.718,3.426,3.426,0,0,1,2.529,1.038,3.628,3.628,0,0,1,1.03,2.669,4.167,4.167,0,0,1-.905,2.685,3.628,3.628,0,0,1-3.005,1.39,3.7,3.7,0,0,1-2.548-.875A3.409,3.409,0,0,1,108.891,90.467Z" transform="translate(0 -4.189)"/><path class="cls-2" d="M94.9,95.744V94.573h22.223v1.171H94.9Z" transform="translate(0 -4.189)"/><rect class="cls-3" x="46.894" y="25.665" width="348.081" height="25.644"/><polygon class="cls-3" points="46.894 65.561 0 38.487 46.894 11.413 46.894 65.561"/><polygon class="cls-3" points="394.975 11.413 441.869 38.487 394.975 65.561 394.975 11.413"/><path class="cls-4" d="M190.247,12.151l1.428-.125a3.151,3.151,0,0,0,.472,1.409,2.576,2.576,0,0,0,1.151.89,4.366,4.366,0,0,0,1.756.339,4.215,4.215,0,0,0,1.53-.257,2.121,2.121,0,0,0,.987-0.707,1.639,1.639,0,0,0,.324-0.979,1.491,1.491,0,0,0-.312-0.941,2.316,2.316,0,0,0-1.03-.675,20.2,20.2,0,0,0-2.037-.558,10.414,10.414,0,0,1-2.209-.714,3.1,3.1,0,0,1-1.222-1.065,2.611,2.611,0,0,1-.4-1.424,2.909,2.909,0,0,1,.492-1.62,3.043,3.043,0,0,1,1.436-1.144,5.449,5.449,0,0,1,2.1-.391,5.73,5.73,0,0,1,2.244.41,3.235,3.235,0,0,1,1.5,1.206,3.467,3.467,0,0,1,.562,1.8l-1.452.109a2.345,2.345,0,0,0-.792-1.639,3.084,3.084,0,0,0-1.995-.554,3.2,3.2,0,0,0-2,.5,1.51,1.51,0,0,0-.628,1.214,1.3,1.3,0,0,0,.445,1.015,6.036,6.036,0,0,0,2.283.815,15.167,15.167,0,0,1,2.533.73,3.471,3.471,0,0,1,1.475,1.167,2.844,2.844,0,0,1,.476,1.627,3.113,3.113,0,0,1-.523,1.721,3.441,3.441,0,0,1-1.5,1.256,5.234,5.234,0,0,1-2.205.449,6.583,6.583,0,0,1-2.6-.453,3.638,3.638,0,0,1-1.647-1.362A3.856,3.856,0,0,1,190.247,12.151Z" transform="translate(0 -4.189)"/><path class="cls-4" d="M207.786,14.477a4.785,4.785,0,0,1-1.514,1.159,4.1,4.1,0,0,1-1.772.387,3.5,3.5,0,0,1-2.787-1.187,3.229,3.229,0,0,1-.835-2.162,2.994,2.994,0,0,1,.683-1.917,5.7,5.7,0,0,1,2.042-1.5,6.843,6.843,0,0,1-1.03-1.444,2.532,2.532,0,0,1-.258-1.069,2.384,2.384,0,0,1,.808-1.792,2.849,2.849,0,0,1,2.033-.761,2.648,2.648,0,0,1,1.916.718,2.31,2.31,0,0,1,.746,1.725q0,1.631-2.162,2.787l2.053,2.615a6.481,6.481,0,0,0,.546-1.592l1.46,0.312a7.974,7.974,0,0,1-1.015,2.467,8.168,8.168,0,0,0,1.788,1.756l-0.944,1.116A8.158,8.158,0,0,1,207.786,14.477ZM206.9,13.369l-2.576-3.193a4.94,4.94,0,0,0-1.538,1.261,2.034,2.034,0,0,0-.4,1.151,2.448,2.448,0,0,0,.554,1.444,1.837,1.837,0,0,0,1.569.75,2.594,2.594,0,0,0,1.308-.394A3.184,3.184,0,0,0,206.9,13.369Zm-1.975-4.855a3.737,3.737,0,0,0,1.183-.944,1.588,1.588,0,0,0,.27-0.9,1.294,1.294,0,0,0-.371-0.956,1.253,1.253,0,0,0-.925-0.371,1.308,1.308,0,0,0-.948.367,1.2,1.2,0,0,0-.379.9,1.326,1.326,0,0,0,.137.558,2.929,2.929,0,0,0,.41.621Z" transform="translate(0 -4.189)"/><path class="cls-4" d="M212.087,15.828V4.385H216.4a10.433,10.433,0,0,1,1.741.109,3.45,3.45,0,0,1,1.413.535,2.8,2.8,0,0,1,.917,1.1,3.507,3.507,0,0,1,.348,1.561,3.515,3.515,0,0,1-.929,2.47,4.453,4.453,0,0,1-3.356,1.011H213.6v4.652h-1.514Zm1.514-6h2.958a3.138,3.138,0,0,0,2.084-.546,1.948,1.948,0,0,0,.617-1.538,2.067,2.067,0,0,0-.363-1.229,1.7,1.7,0,0,0-.956-0.675,6.485,6.485,0,0,0-1.413-.1H213.6v4.09Z" transform="translate(0 -4.189)"/><path class="cls-4" d="M226.332,12.83l1.475-.125a2.645,2.645,0,0,0,.761,1.62,2.065,2.065,0,0,0,1.44.542,2.242,2.242,0,0,0,1.717-.765,2.883,2.883,0,0,0,.7-2.029,2.606,2.606,0,0,0-.675-1.9,2.355,2.355,0,0,0-1.768-.694,2.45,2.45,0,0,0-1.226.308,2.376,2.376,0,0,0-.858.8l-1.319-.172,1.108-5.877h5.69V5.883h-4.566L228.2,8.959a3.723,3.723,0,0,1,2.162-.718,3.426,3.426,0,0,1,2.529,1.038,3.628,3.628,0,0,1,1.03,2.669,4.167,4.167,0,0,1-.905,2.685,3.628,3.628,0,0,1-3.005,1.39,3.7,3.7,0,0,1-2.548-.875A3.409,3.409,0,0,1,226.332,12.83Z" transform="translate(0 -4.189)"/><path class="cls-4" d="M235.223,10.184a10.477,10.477,0,0,1,.417-3.267,4.061,4.061,0,0,1,1.241-1.908,3.171,3.171,0,0,1,2.072-.671,3.384,3.384,0,0,1,1.616.371,3.1,3.1,0,0,1,1.147,1.069,5.746,5.746,0,0,1,.71,1.7,11.327,11.327,0,0,1,.257,2.7,10.5,10.5,0,0,1-.414,3.251,4.065,4.065,0,0,1-1.237,1.913,3.172,3.172,0,0,1-2.08.675,3.139,3.139,0,0,1-2.6-1.187A7.538,7.538,0,0,1,235.223,10.184Zm1.444,0a7.17,7.17,0,0,0,.66,3.75,1.884,1.884,0,0,0,3.255,0,7.178,7.178,0,0,0,.66-3.747,7.177,7.177,0,0,0-.66-3.754,1.958,1.958,0,0,0-1.643-.929,1.8,1.8,0,0,0-1.545.819A7.259,7.259,0,0,0,236.666,10.184Z" transform="translate(0 -4.189)"/><path class="cls-4" d="M244.113,10.184a10.477,10.477,0,0,1,.417-3.267,4.061,4.061,0,0,1,1.241-1.908,3.171,3.171,0,0,1,2.072-.671,3.384,3.384,0,0,1,1.616.371,3.1,3.1,0,0,1,1.147,1.069,5.746,5.746,0,0,1,.71,1.7,11.327,11.327,0,0,1,.257,2.7,10.5,10.5,0,0,1-.414,3.251,4.065,4.065,0,0,1-1.237,1.913,3.172,3.172,0,0,1-2.08.675,3.139,3.139,0,0,1-2.6-1.187A7.538,7.538,0,0,1,244.113,10.184Zm1.444,0a7.17,7.17,0,0,0,.66,3.75,1.884,1.884,0,0,0,3.255,0,7.178,7.178,0,0,0,.66-3.747,7.177,7.177,0,0,0-.66-3.754,1.958,1.958,0,0,0-1.643-.929,1.8,1.8,0,0,0-1.545.819A7.259,7.259,0,0,0,245.557,10.184Z" transform="translate(0 -4.189)"/><path class="cls-5" d="M204.781,37.346h4.574a13.183,13.183,0,0,1,2.026.113,2.977,2.977,0,0,1,1.194.472,2.94,2.94,0,0,1,.878.956,2.588,2.588,0,0,1,.351,1.339,2.712,2.712,0,0,1-1.608,2.482,3.014,3.014,0,0,1,1.608,1.038,2.754,2.754,0,0,1,.562,1.725A3.4,3.4,0,0,1,214,46.989a3.059,3.059,0,0,1-.991,1.179,3.273,3.273,0,0,1-1.549.542q-0.578.063-2.787,0.078h-3.9V37.346Zm2.311,1.9V41.9h1.514q1.35,0,1.678-.039a1.527,1.527,0,0,0,.933-0.41,1.206,1.206,0,0,0,.339-0.894,1.254,1.254,0,0,0-.292-0.862,1.326,1.326,0,0,0-.87-0.4q-0.344-.039-1.975-0.039h-1.327Zm0,4.551v3.06h2.139a10.446,10.446,0,0,0,1.584-.07,1.431,1.431,0,0,0,.839-0.457,1.4,1.4,0,0,0,.324-0.972,1.493,1.493,0,0,0-.25-0.874,1.413,1.413,0,0,0-.722-0.523,7.838,7.838,0,0,0-2.049-.164h-1.865Z" transform="translate(0 -4.189)"/><path class="cls-5" d="M221.1,46.15l2.186,0.367a3.586,3.586,0,0,1-1.331,1.831,3.91,3.91,0,0,1-2.275.628,3.709,3.709,0,0,1-3.2-1.413,4.746,4.746,0,0,1-.82-2.857,4.577,4.577,0,0,1,1.077-3.228,3.547,3.547,0,0,1,2.724-1.167,3.681,3.681,0,0,1,2.919,1.221,5.405,5.405,0,0,1,1.022,3.743h-5.5a2.219,2.219,0,0,0,.531,1.519,1.662,1.662,0,0,0,1.265.542,1.341,1.341,0,0,0,.866-0.281A1.731,1.731,0,0,0,221.1,46.15Zm0.125-2.217a2.112,2.112,0,0,0-.492-1.448,1.582,1.582,0,0,0-2.326.027,2.023,2.023,0,0,0-.46,1.42h3.278Z" transform="translate(0 -4.189)"/><path class="cls-5" d="M228.994,40.5v1.749h-1.5v3.341a8.278,8.278,0,0,0,.043,1.183,0.479,0.479,0,0,0,.195.277,0.617,0.617,0,0,0,.371.109,2.837,2.837,0,0,0,.882-0.211l0.188,1.7a4.359,4.359,0,0,1-1.733.328,2.746,2.746,0,0,1-1.069-.2,1.562,1.562,0,0,1-.7-0.515,2.031,2.031,0,0,1-.308-0.854,10.633,10.633,0,0,1-.07-1.546V42.248h-1.007V40.5h1.007V38.852l2.2-1.28V40.5h1.5Z" transform="translate(0 -4.189)"/><path class="cls-5" d="M232.155,43.028l-1.99-.359a3.1,3.1,0,0,1,1.155-1.78,4.231,4.231,0,0,1,2.436-.577,5.252,5.252,0,0,1,2.186.347,2.181,2.181,0,0,1,1.011.882,4.52,4.52,0,0,1,.293,1.963l-0.023,2.56a8.937,8.937,0,0,0,.1,1.612,4.693,4.693,0,0,0,.395,1.112h-2.17q-0.086-.218-0.211-0.648-0.055-.195-0.078-0.257a3.951,3.951,0,0,1-1.2.819,3.442,3.442,0,0,1-1.366.273,2.823,2.823,0,0,1-2.018-.695,2.309,2.309,0,0,1-.738-1.756,2.36,2.36,0,0,1,.335-1.253,2.195,2.195,0,0,1,.941-0.843,7.323,7.323,0,0,1,1.744-.511,11.952,11.952,0,0,0,2.131-.539V43.161a1.136,1.136,0,0,0-.312-0.9,1.87,1.87,0,0,0-1.179-.27,1.571,1.571,0,0,0-.913.23A1.6,1.6,0,0,0,232.155,43.028Zm2.935,1.779q-0.422.141-1.335,0.336a4.014,4.014,0,0,0-1.194.382,0.915,0.915,0,0,0-.429.773,1.075,1.075,0,0,0,.343.8,1.2,1.2,0,0,0,.875.335,1.9,1.9,0,0,0,1.132-.39A1.376,1.376,0,0,0,235,46.314a4.339,4.339,0,0,0,.086-1.07V44.808Z" transform="translate(0 -4.189)"/><path class="cls-2" d="M215.779,93.464h-1.4V84.511a7.274,7.274,0,0,1-1.331.968,9.4,9.4,0,0,1-1.479.726V84.847a8.481,8.481,0,0,0,2.061-1.343,5.278,5.278,0,0,0,1.249-1.53h0.905v11.49Z" transform="translate(0 -4.189)"/><path class="cls-2" d="M220.166,93.464v-1.6h1.6v1.6h-1.6Z" transform="translate(0 -4.189)"/><path class="cls-2" d="M223.819,87.821a10.477,10.477,0,0,1,.417-3.267,4.061,4.061,0,0,1,1.241-1.908,3.171,3.171,0,0,1,2.072-.671,3.384,3.384,0,0,1,1.616.371,3.1,3.1,0,0,1,1.147,1.069,5.746,5.746,0,0,1,.71,1.7,11.327,11.327,0,0,1,.257,2.7,10.5,10.5,0,0,1-.414,3.251,4.065,4.065,0,0,1-1.237,1.913,3.172,3.172,0,0,1-2.08.675,3.139,3.139,0,0,1-2.6-1.187A7.538,7.538,0,0,1,223.819,87.821Zm1.444,0a7.17,7.17,0,0,0,.66,3.75,1.884,1.884,0,0,0,3.255,0,7.178,7.178,0,0,0,.66-3.747,7.177,7.177,0,0,0-.66-3.754,1.958,1.958,0,0,0-1.643-.929,1.8,1.8,0,0,0-1.545.819A7.259,7.259,0,0,0,225.263,87.821Z" transform="translate(0 -4.189)"/><path class="cls-2" d="M209.824,95.744V94.573h22.223v1.171H209.824Z" transform="translate(0 -4.189)"/><path class="cls-2" d="M324.267,93.464h-1.405V84.511a7.291,7.291,0,0,1-1.331.968,9.381,9.381,0,0,1-1.479.726V84.847a8.5,8.5,0,0,0,2.062-1.343,5.265,5.265,0,0,0,1.248-1.53h0.906v11.49Z" transform="translate(0 -4.189)"/><path class="cls-2" d="M328.654,93.464v-1.6h1.6v1.6h-1.6Z" transform="translate(0 -4.189)"/><path class="cls-2" d="M332.306,90.467l1.476-.125a2.65,2.65,0,0,0,.761,1.62,2.068,2.068,0,0,0,1.44.542,2.24,2.24,0,0,0,1.717-.765,2.881,2.881,0,0,0,.7-2.029,2.607,2.607,0,0,0-.676-1.9,2.354,2.354,0,0,0-1.768-.694,2.449,2.449,0,0,0-1.226.308,2.376,2.376,0,0,0-.858.8l-1.319-.172,1.108-5.877h5.69V83.52h-4.566L334.172,86.6a3.72,3.72,0,0,1,2.162-.718,3.424,3.424,0,0,1,2.528,1.038,3.626,3.626,0,0,1,1.03,2.669,4.167,4.167,0,0,1-.905,2.685,3.626,3.626,0,0,1-3,1.39,3.7,3.7,0,0,1-2.549-.875A3.411,3.411,0,0,1,332.306,90.467Z" transform="translate(0 -4.189)"/><path class="cls-2" d="M318.311,95.744V94.573h22.223v1.171H318.311Z" transform="translate(0 -4.189)"/><line class="cls-1" x1="106.006" y1="51.309" x2="106.006" y2="72.904"/><line class="cls-1" x1="329.422" y1="51.309" x2="329.422" y2="72.904"/></svg>