<svg id="Layer_1" data-name="Layer 1" xmlns="http://www.w3.org/2000/svg" viewBox="0 0 433.508 333.058"><defs><style>.cls-1{fill:#e2d8a8;}.cls-2,.cls-5{fill:none;stroke-miterlimit:10;}.cls-2{stroke:#808285;}.cls-3{fill:#231f20;}.cls-4{fill:#d52027;}.cls-5{stroke:#21409a;}</style></defs><title>Communicating_Impact_Inflation_Risk</title><rect class="cls-1" x="50.361" y="62.081" width="383.147" height="248.785"/><line class="cls-2" x1="50.361" y1="186.474" x2="433.508" y2="186.474"/><line class="cls-2" x1="0.5" y1="333.058" x2="0.5" y2="0.5"/><line class="cls-2" x1="433.508" y1="0.5" x2="0.5" y2="0.5"/><path class="cls-3" d="M15.313,23.945V12.33H16.85V23.945H15.313Z" transform="translate(-4.752 -2.603)"/><path class="cls-3" d="M19.377,23.945V15.531h1.284v1.2a3.024,3.024,0,0,1,2.678-1.387,3.517,3.517,0,0,1,1.4.273,2.2,2.2,0,0,1,.955.717,2.767,2.767,0,0,1,.444,1.054,8.179,8.179,0,0,1,.079,1.387v5.174H24.789V18.827a3.842,3.842,0,0,0-.167-1.3,1.37,1.37,0,0,0-.59-0.689,1.875,1.875,0,0,0-.994-0.257,2.312,2.312,0,0,0-1.573.578A2.852,2.852,0,0,0,20.8,19.35v4.6H19.377Z" transform="translate(-4.752 -2.603)"/><path class="cls-3" d="M28.743,23.945V16.64h-1.26V15.531h1.26v-0.9a3.91,3.91,0,0,1,.151-1.26,1.822,1.822,0,0,1,.725-0.9,2.61,2.61,0,0,1,1.454-.345,6.978,6.978,0,0,1,1.332.143l-0.214,1.244a4.8,4.8,0,0,0-.84-0.08,1.251,1.251,0,0,0-.919.277,1.5,1.5,0,0,0-.27,1.038v0.777H31.8V16.64h-1.64v7.306H28.743Z" transform="translate(-4.752 -2.603)"/><path class="cls-3" d="M32.879,23.945V12.33h1.426V23.945H32.879Z" transform="translate(-4.752 -2.603)"/><path class="cls-3" d="M42.006,22.907a5.3,5.3,0,0,1-1.525.951,4.406,4.406,0,0,1-1.573.277,3.059,3.059,0,0,1-2.131-.677,2.236,2.236,0,0,1-.745-1.731,2.3,2.3,0,0,1,.281-1.129,2.329,2.329,0,0,1,.737-0.82,3.475,3.475,0,0,1,1.026-.467,10.281,10.281,0,0,1,1.268-.214,13.044,13.044,0,0,0,2.543-.491c0.005-.2.008-0.32,0.008-0.373a1.576,1.576,0,0,0-.4-1.228,2.388,2.388,0,0,0-1.625-.483,2.521,2.521,0,0,0-1.486.353,2.157,2.157,0,0,0-.709,1.248l-1.395-.19a3.458,3.458,0,0,1,.626-1.446,2.74,2.74,0,0,1,1.26-.848,5.616,5.616,0,0,1,1.91-.3,5.057,5.057,0,0,1,1.751.253,2.308,2.308,0,0,1,.99.638,2.239,2.239,0,0,1,.444.97,8,8,0,0,1,.071,1.315v1.9a20.107,20.107,0,0,0,.091,2.516,3.165,3.165,0,0,0,.36,1.01h-1.49A3.027,3.027,0,0,1,42.006,22.907Zm-0.119-3.185a10.436,10.436,0,0,1-2.33.539,5.4,5.4,0,0,0-1.244.285,1.241,1.241,0,0,0-.562.464,1.26,1.26,0,0,0,.234,1.628,1.855,1.855,0,0,0,1.264.38,2.942,2.942,0,0,0,1.466-.36,2.221,2.221,0,0,0,.943-0.986,3.444,3.444,0,0,0,.23-1.426V19.722Z" transform="translate(-4.752 -2.603)"/><path class="cls-3" d="M48.654,22.669l0.206,1.26a5.326,5.326,0,0,1-1.078.126,2.444,2.444,0,0,1-1.2-.246,1.375,1.375,0,0,1-.6-0.646,5.109,5.109,0,0,1-.174-1.684V16.64H44.756V15.531H45.8V13.447l1.418-.856v2.94h1.434V16.64H47.22v4.921a2.481,2.481,0,0,0,.075.784,0.592,0.592,0,0,0,.246.277,0.947,0.947,0,0,0,.487.1A4.62,4.62,0,0,0,48.654,22.669Z" transform="translate(-4.752 -2.603)"/><path class="cls-3" d="M50.057,13.97V12.33h1.426v1.64H50.057Zm0,9.976V15.531h1.426v8.415H50.057Z" transform="translate(-4.752 -2.603)"/><path class="cls-3" d="M53.123,19.738a4.336,4.336,0,0,1,1.3-3.462,3.914,3.914,0,0,1,2.646-.935,3.774,3.774,0,0,1,2.836,1.137,4.325,4.325,0,0,1,1.1,3.142,5.567,5.567,0,0,1-.487,2.555A3.453,3.453,0,0,1,59.1,23.621a4.13,4.13,0,0,1-2.032.515A3.782,3.782,0,0,1,54.212,23,4.525,4.525,0,0,1,53.123,19.738Zm1.466,0a3.584,3.584,0,0,0,.705,2.421,2.348,2.348,0,0,0,3.542,0,3.669,3.669,0,0,0,.706-2.464,3.478,3.478,0,0,0-.709-2.365,2.351,2.351,0,0,0-3.538,0A3.567,3.567,0,0,0,54.589,19.738Z" transform="translate(-4.752 -2.603)"/><path class="cls-3" d="M62.679,23.945V15.531h1.284v1.2A3.024,3.024,0,0,1,66.64,15.34a3.517,3.517,0,0,1,1.4.273,2.2,2.2,0,0,1,.955.717,2.767,2.767,0,0,1,.444,1.054,8.179,8.179,0,0,1,.079,1.387v5.174H68.09V18.827a3.842,3.842,0,0,0-.167-1.3,1.37,1.37,0,0,0-.59-0.689,1.875,1.875,0,0,0-.994-0.257,2.312,2.312,0,0,0-1.573.578A2.852,2.852,0,0,0,64.1,19.35v4.6H62.679Z" transform="translate(-4.752 -2.603)"/><path class="cls-3" d="M76.418,23.945V12.33h5.15a6.845,6.845,0,0,1,2.361.313,2.582,2.582,0,0,1,1.292,1.1A3.3,3.3,0,0,1,85.7,15.5a2.92,2.92,0,0,1-.8,2.083,4.047,4.047,0,0,1-2.472,1.078,3.994,3.994,0,0,1,.927.579,8,8,0,0,1,1.275,1.545l2.021,3.162H84.722l-1.537-2.417q-0.674-1.046-1.109-1.6a3.5,3.5,0,0,0-.78-0.777,2.32,2.32,0,0,0-.7-0.309,4.6,4.6,0,0,0-.855-0.056H77.955v5.158H76.418Zm1.537-6.489h3.3a4.964,4.964,0,0,0,1.648-.218,1.756,1.756,0,0,0,.9-0.7A1.884,1.884,0,0,0,84.12,15.5a1.731,1.731,0,0,0-.6-1.355,2.8,2.8,0,0,0-1.89-.531H77.955v3.843Z" transform="translate(-4.752 -2.603)"/><path class="cls-3" d="M87.938,13.97V12.33h1.426v1.64H87.938Zm0,9.976V15.531h1.426v8.415H87.938Z" transform="translate(-4.752 -2.603)"/><path class="cls-3" d="M90.965,21.434l1.411-.222a1.971,1.971,0,0,0,.662,1.3,2.307,2.307,0,0,0,1.517.452,2.227,2.227,0,0,0,1.458-.4,1.2,1.2,0,0,0,.476-0.939,0.866,0.866,0,0,0-.42-0.76,6.179,6.179,0,0,0-1.458-.483,13.284,13.284,0,0,1-2.175-.686A2.076,2.076,0,0,1,91.2,17.765a2.165,2.165,0,0,1,.258-1.042,2.3,2.3,0,0,1,.7-0.8,2.943,2.943,0,0,1,.907-0.416,4.3,4.3,0,0,1,1.232-.17,4.875,4.875,0,0,1,1.739.285,2.37,2.37,0,0,1,1.105.772,3.022,3.022,0,0,1,.491,1.3l-1.395.19a1.526,1.526,0,0,0-.551-1.014,2.016,2.016,0,0,0-1.288-.364,2.332,2.332,0,0,0-1.4.325,0.945,0.945,0,0,0-.42.761,0.787,0.787,0,0,0,.174.5,1.255,1.255,0,0,0,.546.38q0.215,0.079,1.26.365a17.441,17.441,0,0,1,2.111.662,2.138,2.138,0,0,1,.939.749,2.091,2.091,0,0,1,.341,1.22,2.4,2.4,0,0,1-.416,1.343,2.688,2.688,0,0,1-1.2.975,4.373,4.373,0,0,1-1.774.344,3.955,3.955,0,0,1-2.5-.681A3.17,3.17,0,0,1,90.965,21.434Z" transform="translate(-4.752 -2.603)"/><path class="cls-3" d="M99.657,23.945V12.33h1.426v6.624l3.375-3.423h1.846l-3.217,3.122,3.542,5.293h-1.759l-2.781-4.3-1.006.966v3.336H99.657Z" transform="translate(-4.752 -2.603)"/><path class="cls-3" d="M21.968,42.047v1.371H14.291a2.517,2.517,0,0,1,.167-0.99,5.238,5.238,0,0,1,.939-1.545,14.7,14.7,0,0,1,1.866-1.759,15.8,15.8,0,0,0,2.56-2.46,2.944,2.944,0,0,0,.666-1.715,1.906,1.906,0,0,0-.606-1.43,2.188,2.188,0,0,0-1.581-.583,2.227,2.227,0,0,0-1.648.618,2.338,2.338,0,0,0-.626,1.711l-1.466-.15a3.608,3.608,0,0,1,1.133-2.5,3.865,3.865,0,0,1,2.639-.86,3.681,3.681,0,0,1,2.646.927,3.043,3.043,0,0,1,.975,2.3,3.487,3.487,0,0,1-.285,1.371,5.327,5.327,0,0,1-.947,1.418,23.2,23.2,0,0,1-2.2,2.044q-1.284,1.077-1.648,1.461a4.7,4.7,0,0,0-.6.773h5.7Z" transform="translate(-4.752 -2.603)"/><path class="cls-3" d="M23.5,40.375l1.5-.127a2.686,2.686,0,0,0,.772,1.644,2.1,2.1,0,0,0,1.462.551,2.276,2.276,0,0,0,1.743-.776,2.926,2.926,0,0,0,.713-2.06A2.646,2.646,0,0,0,29,37.681a2.392,2.392,0,0,0-1.794-.705,2.489,2.489,0,0,0-1.244.313,2.422,2.422,0,0,0-.872.812l-1.339-.174,1.125-5.966h5.776v1.363H26.018l-0.626,3.122a3.781,3.781,0,0,1,2.195-.729,3.478,3.478,0,0,1,2.567,1.054A3.684,3.684,0,0,1,31.2,39.48a4.229,4.229,0,0,1-.919,2.726,3.681,3.681,0,0,1-3.051,1.411,3.758,3.758,0,0,1-2.587-.888A3.464,3.464,0,0,1,23.5,40.375Z" transform="translate(-4.752 -2.603)"/><path class="cls-3" d="M40.589,43.418V38.5l-4.477-6.7h1.87l2.29,3.5q0.634,0.983,1.181,1.965,0.523-.911,1.268-2.052l2.25-3.415h1.791l-4.635,6.7v4.92H40.589Z" transform="translate(-4.752 -2.603)"/><path class="cls-3" d="M52.229,40.708L53.7,40.89a3.594,3.594,0,0,1-1.292,2,4.376,4.376,0,0,1-5.336-.424,4.442,4.442,0,0,1-1.082-3.189,4.651,4.651,0,0,1,1.093-3.3,3.7,3.7,0,0,1,2.837-1.173,3.6,3.6,0,0,1,2.757,1.149,4.567,4.567,0,0,1,1.07,3.233q0,0.127-.008.38H47.466a3.233,3.233,0,0,0,.785,2.124,2.334,2.334,0,0,0,1.759.737,2.183,2.183,0,0,0,1.339-.412A2.735,2.735,0,0,0,52.229,40.708ZM47.546,38.4h4.7a2.847,2.847,0,0,0-.539-1.593,2.186,2.186,0,0,0-1.767-.824,2.265,2.265,0,0,0-1.652.658A2.6,2.6,0,0,0,47.546,38.4Z" transform="translate(-4.752 -2.603)"/><path class="cls-3" d="M60.984,42.38a5.3,5.3,0,0,1-1.525.951,4.406,4.406,0,0,1-1.573.277,3.059,3.059,0,0,1-2.131-.677A2.236,2.236,0,0,1,55.01,41.2a2.3,2.3,0,0,1,.281-1.129,2.329,2.329,0,0,1,.737-0.82,3.475,3.475,0,0,1,1.026-.467,10.281,10.281,0,0,1,1.268-.214,13.044,13.044,0,0,0,2.543-.491c0.005-.2.008-0.32,0.008-0.373a1.576,1.576,0,0,0-.4-1.228,2.388,2.388,0,0,0-1.625-.483,2.521,2.521,0,0,0-1.486.353,2.157,2.157,0,0,0-.709,1.248l-1.395-.19a3.458,3.458,0,0,1,.626-1.446,2.74,2.74,0,0,1,1.26-.848,5.616,5.616,0,0,1,1.91-.3,5.057,5.057,0,0,1,1.751.253,2.308,2.308,0,0,1,.99.638,2.239,2.239,0,0,1,.444.97,8,8,0,0,1,.071,1.315v1.9a20.107,20.107,0,0,0,.091,2.516,3.165,3.165,0,0,0,.36,1.01h-1.49A3.027,3.027,0,0,1,60.984,42.38Zm-0.119-3.185a10.436,10.436,0,0,1-2.33.539,5.4,5.4,0,0,0-1.244.285,1.241,1.241,0,0,0-.562.464,1.26,1.26,0,0,0,.234,1.628,1.855,1.855,0,0,0,1.264.38,2.942,2.942,0,0,0,1.466-.36,2.221,2.221,0,0,0,.943-0.986,3.444,3.444,0,0,0,.23-1.426V39.195Z" transform="translate(-4.752 -2.603)"/><path class="cls-3" d="M64.5,43.418V35h1.284v1.275a3.488,3.488,0,0,1,.907-1.181,1.585,1.585,0,0,1,.915-0.285,2.783,2.783,0,0,1,1.466.459L68.583,36.6a2.04,2.04,0,0,0-1.046-.309,1.362,1.362,0,0,0-.84.281,1.526,1.526,0,0,0-.531.781,5.546,5.546,0,0,0-.238,1.664v4.405H64.5Z" transform="translate(-4.752 -2.603)"/><path class="cls-3" d="M69.351,40.906l1.411-.222a1.971,1.971,0,0,0,.662,1.3,2.307,2.307,0,0,0,1.517.452,2.227,2.227,0,0,0,1.458-.4,1.2,1.2,0,0,0,.476-0.939,0.866,0.866,0,0,0-.42-0.76A6.179,6.179,0,0,0,73,39.853a13.284,13.284,0,0,1-2.175-.686,2.076,2.076,0,0,1-1.232-1.929,2.165,2.165,0,0,1,.258-1.042,2.3,2.3,0,0,1,.7-0.8,2.943,2.943,0,0,1,.907-0.416,4.3,4.3,0,0,1,1.232-.17,4.875,4.875,0,0,1,1.739.285,2.37,2.37,0,0,1,1.105.772,3.022,3.022,0,0,1,.491,1.3l-1.395.19a1.526,1.526,0,0,0-.551-1.014,2.016,2.016,0,0,0-1.288-.364,2.332,2.332,0,0,0-1.4.325,0.945,0.945,0,0,0-.42.761,0.787,0.787,0,0,0,.174.5,1.255,1.255,0,0,0,.546.38q0.215,0.079,1.26.365a17.441,17.441,0,0,1,2.111.662,2.138,2.138,0,0,1,.939.749,2.091,2.091,0,0,1,.341,1.22,2.4,2.4,0,0,1-.416,1.343,2.688,2.688,0,0,1-1.2.975,4.373,4.373,0,0,1-1.774.344,3.955,3.955,0,0,1-2.5-.681A3.17,3.17,0,0,1,69.351,40.906Z" transform="translate(-4.752 -2.603)"/><path class="cls-3" d="M82.758,43.418V31.8h8.4v1.371H84.295V36.73h6.426v1.363H84.295v3.954h7.131v1.371H82.758Z" transform="translate(-4.752 -2.603)"/><path class="cls-3" d="M93.368,43.418V35h1.284v1.2a3.024,3.024,0,0,1,2.678-1.387,3.517,3.517,0,0,1,1.4.273,2.2,2.2,0,0,1,.955.717,2.767,2.767,0,0,1,.444,1.054,8.179,8.179,0,0,1,.079,1.387v5.174H98.779V38.3a3.842,3.842,0,0,0-.167-1.3,1.37,1.37,0,0,0-.59-0.689,1.875,1.875,0,0,0-.994-0.257,2.312,2.312,0,0,0-1.573.578,2.852,2.852,0,0,0-.662,2.195v4.6H93.368Z" transform="translate(-4.752 -2.603)"/><path class="cls-3" d="M107.852,43.418V42.356a2.617,2.617,0,0,1-2.353,1.251,3.3,3.3,0,0,1-1.85-.554,3.651,3.651,0,0,1-1.308-1.549,5.352,5.352,0,0,1-.463-2.286,5.976,5.976,0,0,1,.42-2.286,3.309,3.309,0,0,1,1.26-1.573,3.367,3.367,0,0,1,1.878-.547,2.806,2.806,0,0,1,1.355.321,2.838,2.838,0,0,1,.967.836V31.8h1.418V43.418h-1.323Zm-4.508-4.2a3.654,3.654,0,0,0,.682,2.417,2.054,2.054,0,0,0,1.608.8,2.017,2.017,0,0,0,1.588-.765,3.524,3.524,0,0,0,.654-2.333,3.958,3.958,0,0,0-.666-2.536,2.048,2.048,0,0,0-1.64-.808,1.977,1.977,0,0,0-1.589.776A3.833,3.833,0,0,0,103.343,39.218Z" transform="translate(-4.752 -2.603)"/><path class="cls-3" d="M111.425,33.442V31.8h1.426v1.64h-1.426Zm0,9.976V35h1.426v8.415h-1.426Z" transform="translate(-4.752 -2.603)"/><path class="cls-3" d="M115.022,43.418V35h1.284v1.2a3.024,3.024,0,0,1,2.678-1.387,3.517,3.517,0,0,1,1.4.273,2.2,2.2,0,0,1,.955.717,2.767,2.767,0,0,1,.444,1.054,8.179,8.179,0,0,1,.079,1.387v5.174h-1.426V38.3a3.842,3.842,0,0,0-.167-1.3,1.37,1.37,0,0,0-.59-0.689,1.875,1.875,0,0,0-.994-0.257,2.312,2.312,0,0,0-1.573.578,2.852,2.852,0,0,0-.662,2.195v4.6h-1.426Z" transform="translate(-4.752 -2.603)"/><path class="cls-3" d="M123.786,44.115l1.387,0.206a1.322,1.322,0,0,0,.483.935,2.373,2.373,0,0,0,1.45.4,2.545,2.545,0,0,0,1.529-.4,1.947,1.947,0,0,0,.729-1.109,9.081,9.081,0,0,0,.1-1.831,2.933,2.933,0,0,1-2.33,1.1,3.175,3.175,0,0,1-2.686-1.252,4.821,4.821,0,0,1-.951-3,5.582,5.582,0,0,1,.436-2.223,3.481,3.481,0,0,1,1.264-1.573,3.413,3.413,0,0,1,1.945-.555,3.016,3.016,0,0,1,2.456,1.2V35h1.315v7.273a6.892,6.892,0,0,1-.4,2.785,2.923,2.923,0,0,1-1.268,1.3,4.4,4.4,0,0,1-2.135.476,4.027,4.027,0,0,1-2.433-.677A2.291,2.291,0,0,1,123.786,44.115Zm1.181-5.055a3.649,3.649,0,0,0,.658,2.417,2.169,2.169,0,0,0,3.3,0,3.533,3.533,0,0,0,.666-2.373,3.451,3.451,0,0,0-.686-2.33,2.119,2.119,0,0,0-1.652-.784,2.058,2.058,0,0,0-1.617.772A3.431,3.431,0,0,0,124.966,39.06Z" transform="translate(-4.752 -2.603)"/><path class="cls-3" d="M142.557,43.418H141.13V34.33a7.369,7.369,0,0,1-1.351.982,9.628,9.628,0,0,1-1.5.737V34.67a8.617,8.617,0,0,0,2.092-1.363,5.369,5.369,0,0,0,1.268-1.553h0.919V43.418Z" transform="translate(-4.752 -2.603)"/><path class="cls-3" d="M153.7,42.047v1.371h-7.678a2.517,2.517,0,0,1,.167-0.99,5.238,5.238,0,0,1,.939-1.545A14.7,14.7,0,0,1,149,39.124a15.8,15.8,0,0,0,2.56-2.46,2.944,2.944,0,0,0,.666-1.715,1.906,1.906,0,0,0-.606-1.43,2.188,2.188,0,0,0-1.581-.583,2.227,2.227,0,0,0-1.648.618,2.338,2.338,0,0,0-.626,1.711l-1.466-.15a3.608,3.608,0,0,1,1.133-2.5,3.865,3.865,0,0,1,2.639-.86,3.681,3.681,0,0,1,2.646.927,3.043,3.043,0,0,1,.975,2.3,3.487,3.487,0,0,1-.285,1.371,5.327,5.327,0,0,1-.947,1.418,23.2,23.2,0,0,1-2.2,2.044q-1.284,1.077-1.648,1.461a4.7,4.7,0,0,0-.6.773h5.7Z" transform="translate(-4.752 -2.603)"/><path class="cls-3" d="M154.561,43.616L157.928,31.6h1.141l-3.359,12.012h-1.149Z" transform="translate(-4.752 -2.603)"/><path class="cls-3" d="M159.75,40.352l1.426-.19a3.145,3.145,0,0,0,.836,1.747,2.066,2.066,0,0,0,1.438.535,2.3,2.3,0,0,0,1.7-.7,2.354,2.354,0,0,0,.693-1.728,2.188,2.188,0,0,0-.642-1.62,2.218,2.218,0,0,0-1.632-.638,4.1,4.1,0,0,0-1.006.158l0.159-1.252a2.142,2.142,0,0,0,.229.016,2.937,2.937,0,0,0,1.64-.476,1.627,1.627,0,0,0,.729-1.466,1.733,1.733,0,0,0-.531-1.3,1.887,1.887,0,0,0-1.371-.515,1.942,1.942,0,0,0-1.387.523,2.625,2.625,0,0,0-.713,1.569l-1.426-.253a3.665,3.665,0,0,1,1.188-2.223,3.436,3.436,0,0,1,2.306-.789,3.8,3.8,0,0,1,1.751.408,2.95,2.95,0,0,1,1.224,1.113,2.859,2.859,0,0,1,.424,1.5,2.45,2.45,0,0,1-.4,1.371,2.759,2.759,0,0,1-1.2.982,2.694,2.694,0,0,1,1.6.987,3,3,0,0,1,.571,1.874,3.43,3.43,0,0,1-1.109,2.579,3.9,3.9,0,0,1-2.8,1.058,3.649,3.649,0,0,1-2.54-.911A3.52,3.52,0,0,1,159.75,40.352Z" transform="translate(-4.752 -2.603)"/><path class="cls-3" d="M174.14,43.418h-1.426V34.33a7.369,7.369,0,0,1-1.351.982,9.628,9.628,0,0,1-1.5.737V34.67a8.617,8.617,0,0,0,2.092-1.363,5.369,5.369,0,0,0,1.268-1.553h0.919V43.418Z" transform="translate(-4.752 -2.603)"/><path class="cls-3" d="M177.119,43.616L180.486,31.6h1.141l-3.359,12.012h-1.149Z" transform="translate(-4.752 -2.603)"/><path class="cls-3" d="M187.673,43.418h-1.426V34.33a7.369,7.369,0,0,1-1.351.982,9.628,9.628,0,0,1-1.5.737V34.67a8.617,8.617,0,0,0,2.092-1.363,5.369,5.369,0,0,0,1.268-1.553h0.919V43.418Z" transform="translate(-4.752 -2.603)"/><path class="cls-3" d="M191.325,40.375l1.5-.127a2.686,2.686,0,0,0,.772,1.644,2.1,2.1,0,0,0,1.462.551,2.276,2.276,0,0,0,1.743-.776,2.926,2.926,0,0,0,.713-2.06,2.646,2.646,0,0,0-.686-1.926,2.392,2.392,0,0,0-1.794-.705,2.489,2.489,0,0,0-1.244.313,2.422,2.422,0,0,0-.872.812l-1.339-.174L192.7,31.96h5.776v1.363h-4.635l-0.626,3.122a3.781,3.781,0,0,1,2.195-.729,3.478,3.478,0,0,1,2.567,1.054,3.684,3.684,0,0,1,1.046,2.71,4.229,4.229,0,0,1-.919,2.726,3.681,3.681,0,0,1-3.051,1.411,3.758,3.758,0,0,1-2.587-.888A3.464,3.464,0,0,1,191.325,40.375Z" transform="translate(-4.752 -2.603)"/><path class="cls-3" d="M18.1,77.975V76.548a5.263,5.263,0,0,1-1.739-.479A3.026,3.026,0,0,1,15.2,74.956a3.983,3.983,0,0,1-.566-1.878l1.434-.269a3.612,3.612,0,0,0,.586,1.688,2.077,2.077,0,0,0,1.442.848V70.8a5.957,5.957,0,0,1-1.8-.681,2.637,2.637,0,0,1-1.05-1.054,3.357,3.357,0,0,1,.709-3.993A3.746,3.746,0,0,1,18.1,64.3V63.617h0.84V64.3a3.527,3.527,0,0,1,1.973.729,3.244,3.244,0,0,1,1.125,2.132l-1.474.222a2.44,2.44,0,0,0-.527-1.288,1.947,1.947,0,0,0-1.1-.59v4.112a11.384,11.384,0,0,1,1.426.42,3.512,3.512,0,0,1,1.085.713,2.877,2.877,0,0,1,.646,1,3.672,3.672,0,0,1-.717,3.724,3.458,3.458,0,0,1-2.44,1.062v1.442H18.1Zm0-12.487a2.114,2.114,0,0,0-1.312.666,1.981,1.981,0,0,0-.071,2.5,2.809,2.809,0,0,0,1.383.785V65.487Zm0.84,9.856a2.114,2.114,0,0,0,1.375-.721,2.237,2.237,0,0,0,.542-1.529,1.914,1.914,0,0,0-.384-1.248A3.318,3.318,0,0,0,18.936,71v4.342Z" transform="translate(-4.752 -2.603)"/><path class="cls-3" d="M29.125,76.3H27.7V67.214a7.369,7.369,0,0,1-1.351.982,9.628,9.628,0,0,1-1.5.737V67.555a8.617,8.617,0,0,0,2.092-1.363,5.369,5.369,0,0,0,1.268-1.553h0.919V76.3Z" transform="translate(-4.752 -2.603)"/><path class="cls-3" d="M33.578,76.3V74.678H35.2V76.3H33.578Z" transform="translate(-4.752 -2.603)"/><path class="cls-3" d="M37.286,70.574a10.644,10.644,0,0,1,.424-3.316,4.123,4.123,0,0,1,1.26-1.937,3.221,3.221,0,0,1,2.1-.682,3.432,3.432,0,0,1,1.64.376A3.139,3.139,0,0,1,43.879,66.1a5.836,5.836,0,0,1,.721,1.728,11.473,11.473,0,0,1,.262,2.746,10.661,10.661,0,0,1-.42,3.3,4.13,4.13,0,0,1-1.256,1.941,3.221,3.221,0,0,1-2.112.686,3.187,3.187,0,0,1-2.639-1.2Q37.287,73.846,37.286,70.574Zm1.466,0a7.278,7.278,0,0,0,.67,3.807,1.912,1.912,0,0,0,3.3,0,7.286,7.286,0,0,0,.67-3.8,7.282,7.282,0,0,0-.67-3.812,1.987,1.987,0,0,0-1.667-.943,1.827,1.827,0,0,0-1.569.832A7.362,7.362,0,0,0,38.752,70.574Z" transform="translate(-4.752 -2.603)"/><path class="cls-3" d="M46.311,70.574a10.644,10.644,0,0,1,.424-3.316A4.123,4.123,0,0,1,48,65.321a3.221,3.221,0,0,1,2.1-.682,3.432,3.432,0,0,1,1.64.376A3.139,3.139,0,0,1,52.9,66.1a5.836,5.836,0,0,1,.721,1.728,11.473,11.473,0,0,1,.262,2.746,10.661,10.661,0,0,1-.42,3.3,4.13,4.13,0,0,1-1.256,1.941A3.221,3.221,0,0,1,50.1,76.5a3.187,3.187,0,0,1-2.639-1.2Q46.312,73.846,46.311,70.574Zm1.466,0a7.278,7.278,0,0,0,.67,3.807,1.912,1.912,0,0,0,3.3,0,7.286,7.286,0,0,0,.67-3.8,7.282,7.282,0,0,0-.67-3.812,1.987,1.987,0,0,0-1.667-.943,1.827,1.827,0,0,0-1.569.832A7.362,7.362,0,0,0,47.777,70.574Z" transform="translate(-4.752 -2.603)"/><path class="cls-3" d="M15.062,194.185v-1.426a5.263,5.263,0,0,1-1.739-.479,3.026,3.026,0,0,1-1.157-1.113,3.983,3.983,0,0,1-.566-1.878l1.434-.269a3.612,3.612,0,0,0,.586,1.688,2.077,2.077,0,0,0,1.442.848v-4.54a5.957,5.957,0,0,1-1.8-.681,2.637,2.637,0,0,1-1.05-1.054,3.357,3.357,0,0,1,.709-3.993,3.746,3.746,0,0,1,2.139-.777v-0.681H15.9v0.681a3.527,3.527,0,0,1,1.973.729A3.244,3.244,0,0,1,19,183.369l-1.474.222A2.44,2.44,0,0,0,17,182.3a1.947,1.947,0,0,0-1.1-.59v4.112a11.384,11.384,0,0,1,1.426.42,3.512,3.512,0,0,1,1.085.713,2.877,2.877,0,0,1,.646,1,3.672,3.672,0,0,1-.717,3.724,3.458,3.458,0,0,1-2.44,1.062v1.442h-0.84Zm0-12.487a2.114,2.114,0,0,0-1.312.666,1.981,1.981,0,0,0-.071,2.5,2.809,2.809,0,0,0,1.383.785V181.7Zm0.84,9.856a2.114,2.114,0,0,0,1.375-.721,2.237,2.237,0,0,0,.542-1.529,1.914,1.914,0,0,0-.384-1.248,3.318,3.318,0,0,0-1.533-.844v4.342Z" transform="translate(-4.752 -2.603)"/><path class="cls-3" d="M20.719,186.784a10.644,10.644,0,0,1,.424-3.316,4.123,4.123,0,0,1,1.26-1.937,3.221,3.221,0,0,1,2.1-.682,3.432,3.432,0,0,1,1.64.376,3.139,3.139,0,0,1,1.165,1.085,5.836,5.836,0,0,1,.721,1.728,11.473,11.473,0,0,1,.262,2.746,10.661,10.661,0,0,1-.42,3.3,4.13,4.13,0,0,1-1.256,1.941,3.221,3.221,0,0,1-2.112.686,3.187,3.187,0,0,1-2.639-1.2Q20.719,190.056,20.719,186.784Zm1.466,0a7.278,7.278,0,0,0,.67,3.807,1.912,1.912,0,0,0,3.3,0,11.154,11.154,0,0,0,0-7.615,1.987,1.987,0,0,0-1.667-.943,1.827,1.827,0,0,0-1.569.832A7.362,7.362,0,0,0,22.185,186.784Z" transform="translate(-4.752 -2.603)"/><path class="cls-3" d="M30.544,192.513v-1.625h1.625v1.625H30.544Z" transform="translate(-4.752 -2.603)"/><path class="cls-3" d="M34.252,189.47l1.5-.127a2.686,2.686,0,0,0,.772,1.644,2.1,2.1,0,0,0,1.462.551,2.276,2.276,0,0,0,1.743-.776,2.926,2.926,0,0,0,.713-2.06,2.646,2.646,0,0,0-.686-1.926,2.392,2.392,0,0,0-1.794-.705,2.489,2.489,0,0,0-1.244.313,2.422,2.422,0,0,0-.872.812l-1.339-.174,1.125-5.966h5.776v1.363H36.772l-0.626,3.122a3.781,3.781,0,0,1,2.195-.729,3.478,3.478,0,0,1,2.567,1.054,3.684,3.684,0,0,1,1.046,2.71,4.229,4.229,0,0,1-.919,2.726,3.681,3.681,0,0,1-3.051,1.411,3.758,3.758,0,0,1-2.587-.888A3.464,3.464,0,0,1,34.252,189.47Z" transform="translate(-4.752 -2.603)"/><path class="cls-3" d="M43.277,186.784a10.644,10.644,0,0,1,.424-3.316,4.123,4.123,0,0,1,1.26-1.937,3.221,3.221,0,0,1,2.1-.682,3.432,3.432,0,0,1,1.64.376,3.139,3.139,0,0,1,1.165,1.085,5.836,5.836,0,0,1,.721,1.728,11.473,11.473,0,0,1,.262,2.746,10.661,10.661,0,0,1-.42,3.3,4.13,4.13,0,0,1-1.256,1.941,3.221,3.221,0,0,1-2.112.686,3.187,3.187,0,0,1-2.639-1.2Q43.277,190.056,43.277,186.784Zm1.466,0a7.278,7.278,0,0,0,.67,3.807,1.912,1.912,0,0,0,3.3,0,11.154,11.154,0,0,0,0-7.615,1.987,1.987,0,0,0-1.667-.943,1.827,1.827,0,0,0-1.569.832A7.362,7.362,0,0,0,44.743,186.784Z" transform="translate(-4.752 -2.603)"/><path class="cls-3" d="M41.241,302.453v-1.426a5.263,5.263,0,0,1-1.739-.479,3.026,3.026,0,0,1-1.157-1.113,3.983,3.983,0,0,1-.566-1.878l1.434-.269a3.612,3.612,0,0,0,.586,1.688,2.077,2.077,0,0,0,1.442.848v-4.54a5.957,5.957,0,0,1-1.8-.681,2.637,2.637,0,0,1-1.05-1.054,3.357,3.357,0,0,1,.709-3.993,3.746,3.746,0,0,1,2.139-.777V288.1h0.84v0.681a3.527,3.527,0,0,1,1.973.729,3.244,3.244,0,0,1,1.125,2.132l-1.474.222a2.44,2.44,0,0,0-.527-1.288,1.947,1.947,0,0,0-1.1-.59v4.112a11.384,11.384,0,0,1,1.426.42,3.512,3.512,0,0,1,1.085.713,2.877,2.877,0,0,1,.646,1,3.672,3.672,0,0,1-.717,3.724,3.458,3.458,0,0,1-2.44,1.062v1.442h-0.84Zm0-12.487a2.114,2.114,0,0,0-1.312.666,1.981,1.981,0,0,0-.071,2.5,2.809,2.809,0,0,0,1.383.785v-3.946Zm0.84,9.856a2.114,2.114,0,0,0,1.375-.721A2.237,2.237,0,0,0,44,297.572a1.914,1.914,0,0,0-.384-1.248,3.318,3.318,0,0,0-1.533-.844v4.342Z" transform="translate(-4.752 -2.603)"/><path class="cls-3" d="M46.74,297.295v-1.434h4.382v1.434H46.74Z" transform="translate(-4.752 -2.603)"/><path class="cls-3" d="M77.82,333.549H76.394V324.46a7.369,7.369,0,0,1-1.351.982,9.628,9.628,0,0,1-1.5.737V324.8a8.617,8.617,0,0,0,2.092-1.363,5.369,5.369,0,0,0,1.268-1.553H77.82v11.664Z" transform="translate(-4.752 -2.603)"/><path class="cls-3" d="M81.686,330.863l1.371-.127a2.382,2.382,0,0,0,.666,1.4,1.828,1.828,0,0,0,1.26.436,2.171,2.171,0,0,0,1.153-.3,2.458,2.458,0,0,0,.812-0.8,4.718,4.718,0,0,0,.531-1.359,7.16,7.16,0,0,0,.214-1.743c0-.063,0-0.158-0.008-0.285a3.271,3.271,0,0,1-1.169,1.105,3.176,3.176,0,0,1-1.6.424,3.244,3.244,0,0,1-2.44-1.046,3.827,3.827,0,0,1-1-2.757,3.922,3.922,0,0,1,1.042-2.845,3.482,3.482,0,0,1,2.611-1.078,3.725,3.725,0,0,1,2.072.61,3.813,3.813,0,0,1,1.426,1.739,8.567,8.567,0,0,1,.487,3.268,10.588,10.588,0,0,1-.483,3.546,4.153,4.153,0,0,1-1.438,2.009,3.722,3.722,0,0,1-2.238.689A3.069,3.069,0,0,1,81.686,330.863Zm5.84-5.126a2.791,2.791,0,0,0-.654-1.949,2.05,2.05,0,0,0-1.573-.721,2.17,2.17,0,0,0-1.656.776,2.879,2.879,0,0,0-.706,2.013,2.485,2.485,0,0,0,.67,1.8,2.2,2.2,0,0,0,1.652.693,2.115,2.115,0,0,0,1.628-.693A2.733,2.733,0,0,0,87.526,325.736Z" transform="translate(-4.752 -2.603)"/><path class="cls-3" d="M90.711,330.863l1.371-.127a2.382,2.382,0,0,0,.666,1.4,1.828,1.828,0,0,0,1.26.436,2.171,2.171,0,0,0,1.153-.3,2.458,2.458,0,0,0,.812-0.8,4.718,4.718,0,0,0,.531-1.359,7.16,7.16,0,0,0,.214-1.743c0-.063,0-0.158-0.008-0.285a3.271,3.271,0,0,1-1.169,1.105,3.176,3.176,0,0,1-1.6.424,3.244,3.244,0,0,1-2.44-1.046,3.827,3.827,0,0,1-1-2.757,3.922,3.922,0,0,1,1.042-2.845,3.482,3.482,0,0,1,2.611-1.078,3.725,3.725,0,0,1,2.072.61,3.813,3.813,0,0,1,1.426,1.739,8.567,8.567,0,0,1,.487,3.268,10.588,10.588,0,0,1-.483,3.546,4.153,4.153,0,0,1-1.438,2.009,3.722,3.722,0,0,1-2.238.689A3.069,3.069,0,0,1,90.711,330.863Zm5.84-5.126a2.791,2.791,0,0,0-.654-1.949,2.05,2.05,0,0,0-1.573-.721,2.17,2.17,0,0,0-1.656.776,2.879,2.879,0,0,0-.706,2.013,2.485,2.485,0,0,0,.67,1.8,2.2,2.2,0,0,0,1.652.693,2.115,2.115,0,0,0,1.628-.693A2.733,2.733,0,0,0,96.551,325.736Z" transform="translate(-4.752 -2.603)"/><path class="cls-3" d="M104.895,333.549h-1.426V324.46a7.369,7.369,0,0,1-1.351.982,9.628,9.628,0,0,1-1.5.737V324.8a8.617,8.617,0,0,0,2.092-1.363,5.369,5.369,0,0,0,1.268-1.553h0.919v11.664Z" transform="translate(-4.752 -2.603)"/><path class="cls-3" d="M235.454,332.178v1.371h-7.678a2.517,2.517,0,0,1,.167-0.99,5.238,5.238,0,0,1,.939-1.545,14.7,14.7,0,0,1,1.866-1.759,15.8,15.8,0,0,0,2.56-2.46,2.944,2.944,0,0,0,.666-1.715,1.906,1.906,0,0,0-.606-1.43,2.188,2.188,0,0,0-1.581-.583,2.227,2.227,0,0,0-1.648.618,2.338,2.338,0,0,0-.626,1.711l-1.466-.15a3.608,3.608,0,0,1,1.133-2.5,3.865,3.865,0,0,1,2.639-.86,3.681,3.681,0,0,1,2.646.927,3.043,3.043,0,0,1,.975,2.3,3.487,3.487,0,0,1-.285,1.371,5.327,5.327,0,0,1-.947,1.418,23.2,23.2,0,0,1-2.2,2.044q-1.284,1.077-1.648,1.461a4.7,4.7,0,0,0-.6.773h5.7Z" transform="translate(-4.752 -2.603)"/><path class="cls-3" d="M236.983,327.82a10.644,10.644,0,0,1,.424-3.316,4.123,4.123,0,0,1,1.26-1.937,3.221,3.221,0,0,1,2.1-.682,3.432,3.432,0,0,1,1.64.376,3.139,3.139,0,0,1,1.165,1.085,5.836,5.836,0,0,1,.721,1.728,11.473,11.473,0,0,1,.262,2.746,10.661,10.661,0,0,1-.42,3.3,4.13,4.13,0,0,1-1.256,1.941,3.221,3.221,0,0,1-2.112.686,3.187,3.187,0,0,1-2.639-1.2Q236.983,331.092,236.983,327.82Zm1.466,0a7.278,7.278,0,0,0,.67,3.807,1.912,1.912,0,0,0,3.3,0,11.154,11.154,0,0,0,0-7.615,1.987,1.987,0,0,0-1.667-.943,1.827,1.827,0,0,0-1.569.832A7.362,7.362,0,0,0,238.449,327.82Z" transform="translate(-4.752 -2.603)"/><path class="cls-3" d="M246.008,327.82a10.644,10.644,0,0,1,.424-3.316,4.123,4.123,0,0,1,1.26-1.937,3.221,3.221,0,0,1,2.1-.682,3.432,3.432,0,0,1,1.64.376,3.139,3.139,0,0,1,1.165,1.085,5.836,5.836,0,0,1,.721,1.728,11.473,11.473,0,0,1,.262,2.746,10.661,10.661,0,0,1-.42,3.3,4.13,4.13,0,0,1-1.256,1.941,3.221,3.221,0,0,1-2.112.686,3.187,3.187,0,0,1-2.639-1.2Q246.008,331.092,246.008,327.82Zm1.466,0a7.278,7.278,0,0,0,.67,3.807,1.912,1.912,0,0,0,3.3,0,11.154,11.154,0,0,0,0-7.615,1.987,1.987,0,0,0-1.667-.943,1.827,1.827,0,0,0-1.569.832A7.362,7.362,0,0,0,247.474,327.82Z" transform="translate(-4.752 -2.603)"/><path class="cls-3" d="M255.041,330.482l1.426-.19a3.145,3.145,0,0,0,.836,1.747,2.066,2.066,0,0,0,1.438.535,2.3,2.3,0,0,0,1.7-.7,2.354,2.354,0,0,0,.693-1.728,2.188,2.188,0,0,0-.642-1.62,2.218,2.218,0,0,0-1.632-.638,4.1,4.1,0,0,0-1.006.158l0.159-1.252a2.142,2.142,0,0,0,.229.016,2.937,2.937,0,0,0,1.64-.476,1.627,1.627,0,0,0,.729-1.466,1.733,1.733,0,0,0-.531-1.3,1.887,1.887,0,0,0-1.371-.515,1.942,1.942,0,0,0-1.387.523,2.625,2.625,0,0,0-.713,1.569l-1.426-.253a3.665,3.665,0,0,1,1.188-2.223,3.436,3.436,0,0,1,2.306-.789,3.8,3.8,0,0,1,1.751.408,2.95,2.95,0,0,1,1.224,1.113,2.859,2.859,0,0,1,.424,1.5,2.45,2.45,0,0,1-.4,1.371,2.759,2.759,0,0,1-1.2.982,2.694,2.694,0,0,1,1.6.987,3,3,0,0,1,.571,1.874,3.43,3.43,0,0,1-1.109,2.579,3.9,3.9,0,0,1-2.8,1.058,3.649,3.649,0,0,1-2.54-.911A3.52,3.52,0,0,1,255.041,330.482Z" transform="translate(-4.752 -2.603)"/><path class="cls-3" d="M397.02,332.178v1.371h-7.678a2.526,2.526,0,0,1,.166-0.99,5.24,5.24,0,0,1,.939-1.545,14.742,14.742,0,0,1,1.866-1.759,15.808,15.808,0,0,0,2.559-2.46,2.942,2.942,0,0,0,.666-1.715,1.905,1.905,0,0,0-.606-1.43,2.186,2.186,0,0,0-1.58-.583,2.227,2.227,0,0,0-1.648.618,2.336,2.336,0,0,0-.626,1.711l-1.466-.15a3.608,3.608,0,0,1,1.133-2.5,3.865,3.865,0,0,1,2.639-.86,3.681,3.681,0,0,1,2.646.927,3.045,3.045,0,0,1,.975,2.3,3.479,3.479,0,0,1-.285,1.371,5.318,5.318,0,0,1-.947,1.418,23.054,23.054,0,0,1-2.2,2.044q-1.285,1.077-1.648,1.461a4.732,4.732,0,0,0-.6.773h5.7Z" transform="translate(-4.752 -2.603)"/><path class="cls-3" d="M398.549,327.82a10.615,10.615,0,0,1,.424-3.316,4.119,4.119,0,0,1,1.26-1.937,3.221,3.221,0,0,1,2.1-.682,3.436,3.436,0,0,1,1.641.376,3.14,3.14,0,0,1,1.164,1.085,5.836,5.836,0,0,1,.722,1.728,11.506,11.506,0,0,1,.261,2.746,10.646,10.646,0,0,1-.42,3.3,4.119,4.119,0,0,1-1.256,1.941,3.535,3.535,0,0,1-4.75-.519Q398.549,331.092,398.549,327.82Zm1.466,0a7.286,7.286,0,0,0,.669,3.807,1.913,1.913,0,0,0,3.3,0,11.169,11.169,0,0,0,0-7.615,1.988,1.988,0,0,0-1.668-.943,1.829,1.829,0,0,0-1.569.832A7.369,7.369,0,0,0,400.015,327.82Z" transform="translate(-4.752 -2.603)"/><path class="cls-3" d="M412.946,333.549H411.52V324.46a7.313,7.313,0,0,1-1.351.982,9.588,9.588,0,0,1-1.5.737V324.8a8.6,8.6,0,0,0,2.092-1.363,5.366,5.366,0,0,0,1.269-1.553h0.919v11.664Z" transform="translate(-4.752 -2.603)"/><path class="cls-3" d="M416.6,330.506l1.5-.127a2.686,2.686,0,0,0,.772,1.644,2.1,2.1,0,0,0,1.462.551,2.277,2.277,0,0,0,1.743-.776,2.926,2.926,0,0,0,.713-2.06,2.649,2.649,0,0,0-.685-1.926,2.393,2.393,0,0,0-1.795-.705,2.489,2.489,0,0,0-1.244.313,2.413,2.413,0,0,0-.871.812l-1.34-.174,1.125-5.966h5.776v1.363h-4.635l-0.626,3.122a3.78,3.78,0,0,1,2.194-.729,3.478,3.478,0,0,1,2.567,1.054,3.684,3.684,0,0,1,1.046,2.71,4.231,4.231,0,0,1-.919,2.726,3.682,3.682,0,0,1-3.051,1.411,3.756,3.756,0,0,1-2.587-.888A3.461,3.461,0,0,1,416.6,330.506Z" transform="translate(-4.752 -2.603)"/><path class="cls-4" d="M399.826,167.052v-1.426a5.263,5.263,0,0,1-1.739-.479,3.031,3.031,0,0,1-1.157-1.113,3.989,3.989,0,0,1-.566-1.878l1.435-.269a3.618,3.618,0,0,0,.586,1.688,2.079,2.079,0,0,0,1.442.848v-4.54a5.967,5.967,0,0,1-1.8-.681,2.64,2.64,0,0,1-1.05-1.054,3.358,3.358,0,0,1,.709-3.993,3.749,3.749,0,0,1,2.14-.777v-0.681h0.84v0.681a3.522,3.522,0,0,1,1.973.729,3.235,3.235,0,0,1,1.125,2.132l-1.474.222a2.436,2.436,0,0,0-.526-1.288,1.945,1.945,0,0,0-1.1-.59v4.112a11.427,11.427,0,0,1,1.427.42,3.521,3.521,0,0,1,1.085.713,2.862,2.862,0,0,1,.646,1,3.4,3.4,0,0,1,.227,1.252,3.424,3.424,0,0,1-3.384,3.534v1.442h-0.84Zm0-12.487a2.113,2.113,0,0,0-1.312.666,1.979,1.979,0,0,0-.071,2.5,2.814,2.814,0,0,0,1.383.785v-3.946Zm0.84,9.856a2.114,2.114,0,0,0,1.375-.721,2.237,2.237,0,0,0,.543-1.529,1.917,1.917,0,0,0-.385-1.248,3.318,3.318,0,0,0-1.533-.844v4.342Z" transform="translate(-4.752 -2.603)"/><path class="cls-4" d="M405.484,159.651a10.615,10.615,0,0,1,.424-3.316,4.119,4.119,0,0,1,1.26-1.937,3.221,3.221,0,0,1,2.1-.682,3.436,3.436,0,0,1,1.641.376,3.14,3.14,0,0,1,1.164,1.085,5.836,5.836,0,0,1,.722,1.728,11.506,11.506,0,0,1,.261,2.746,10.646,10.646,0,0,1-.42,3.3,4.119,4.119,0,0,1-1.256,1.941,3.535,3.535,0,0,1-4.75-.519Q405.484,162.923,405.484,159.651Zm1.466,0a7.286,7.286,0,0,0,.669,3.807,1.913,1.913,0,0,0,3.3,0,11.169,11.169,0,0,0,0-7.615,1.988,1.988,0,0,0-1.668-.943,1.829,1.829,0,0,0-1.569.832A7.369,7.369,0,0,0,406.95,159.651Z" transform="translate(-4.752 -2.603)"/><path class="cls-4" d="M415.31,165.38v-1.625h1.624v1.625H415.31Z" transform="translate(-4.752 -2.603)"/><path class="cls-4" d="M419.019,162.337l1.5-.127a2.686,2.686,0,0,0,.772,1.644,2.1,2.1,0,0,0,1.462.551,2.277,2.277,0,0,0,1.743-.776,2.926,2.926,0,0,0,.713-2.06,2.649,2.649,0,0,0-.685-1.926,2.393,2.393,0,0,0-1.795-.705,2.489,2.489,0,0,0-1.244.313,2.413,2.413,0,0,0-.871.812l-1.34-.174,1.125-5.966h5.776v1.363h-4.635l-0.626,3.122a3.78,3.78,0,0,1,2.194-.729,3.478,3.478,0,0,1,2.567,1.054,3.684,3.684,0,0,1,1.046,2.71,4.231,4.231,0,0,1-.919,2.726,3.682,3.682,0,0,1-3.051,1.411,3.756,3.756,0,0,1-2.587-.888A3.461,3.461,0,0,1,419.019,162.337Z" transform="translate(-4.752 -2.603)"/><path class="cls-4" d="M428.138,155.285v-1.371h7.52v1.109a15.87,15.87,0,0,0-2.2,3.138,19.167,19.167,0,0,0-1.684,4.025,15.024,15.024,0,0,0-.547,3.193h-1.466a14.26,14.26,0,0,1,.539-3.312,17.423,17.423,0,0,1,1.478-3.744,16.054,16.054,0,0,1,2.049-3.039h-5.689Z" transform="translate(-4.752 -2.603)"/><polyline class="cls-5" points="57.521 76.089 83.399 87.29 94.962 90.396 113.132 99.03 137.369 107.042 141.763 111.618 150.572 114.206 191.317 122.488 206.733 128.181 221.93 130.252 246.927 134.434 277.76 149.403 289.874 151.991 305.29 158.203 318.505 158.203 343.282 163.379 374.666 169.59 391.184 173.731 408.803 166.433"/></svg>