<svg id="Layer_1" data-name="Layer 1" xmlns="http://www.w3.org/2000/svg" viewBox="0 0 615.376 362.95"><defs><style>.cls-1{fill:#e2d8a8;}.cls-2{fill:#231f20;}.cls-3{fill:#b2b3b3;}.cls-4{fill:#ed1e24;}.cls-5{fill:#fff;}.cls-6{fill:none;stroke:#f1f2f2;stroke-miterlimit:10;}</style></defs><title>Communicating_Impact_Time</title><rect class="cls-1" x="57.018" y="51.45" width="558.358" height="272.173"/><path class="cls-2" d="M7.032,16.527V5.032h5.1a6.785,6.785,0,0,1,2.337.31,2.556,2.556,0,0,1,1.278,1.094,3.265,3.265,0,0,1,.479,1.733,2.891,2.891,0,0,1-.792,2.062A4.007,4.007,0,0,1,12.983,11.3a3.947,3.947,0,0,1,.917.572A7.906,7.906,0,0,1,15.163,13.4l2,3.128H15.249l-1.521-2.392q-0.667-1.035-1.1-1.584a3.454,3.454,0,0,0-.772-0.768,2.279,2.279,0,0,0-.694-0.306,4.612,4.612,0,0,0-.847-0.055H8.553v5.1H7.032ZM8.553,10.1h3.27a4.909,4.909,0,0,0,1.631-.215,1.74,1.74,0,0,0,.894-0.69,1.869,1.869,0,0,0,.306-1.031,1.713,1.713,0,0,0-.592-1.341,2.771,2.771,0,0,0-1.87-.525H8.553v3.8Z" transform="translate(-7.032 -4.836)"/><path class="cls-2" d="M23.858,15.5a5.245,5.245,0,0,1-1.509.941,4.358,4.358,0,0,1-1.557.274,3.025,3.025,0,0,1-2.109-.67,2.211,2.211,0,0,1-.737-1.713,2.281,2.281,0,0,1,.278-1.118,2.307,2.307,0,0,1,.729-0.812,3.433,3.433,0,0,1,1.015-.462,10.152,10.152,0,0,1,1.255-.212,12.9,12.9,0,0,0,2.517-.486q0.008-.29.008-0.369a1.558,1.558,0,0,0-.4-1.215,2.362,2.362,0,0,0-1.607-.479,2.492,2.492,0,0,0-1.47.349,2.133,2.133,0,0,0-.7,1.235l-1.38-.188a3.419,3.419,0,0,1,.62-1.431,2.709,2.709,0,0,1,1.247-.839,5.553,5.553,0,0,1,1.89-.294,5,5,0,0,1,1.733.251,2.28,2.28,0,0,1,.98.631,2.222,2.222,0,0,1,.439.96,7.905,7.905,0,0,1,.071,1.3v1.882a19.877,19.877,0,0,0,.09,2.49,3.137,3.137,0,0,0,.356,1H24.14A2.993,2.993,0,0,1,23.858,15.5ZM23.74,12.347a10.368,10.368,0,0,1-2.305.533,5.326,5.326,0,0,0-1.231.282,1.226,1.226,0,0,0-.557.458,1.247,1.247,0,0,0,.231,1.611,1.838,1.838,0,0,0,1.25.376,2.912,2.912,0,0,0,1.451-.356,2.2,2.2,0,0,0,.933-0.977,3.413,3.413,0,0,0,.227-1.411V12.347Z" transform="translate(-7.032 -4.836)"/><path class="cls-2" d="M27.355,16.527V8.2h1.27V9.384a2.994,2.994,0,0,1,2.65-1.372,3.47,3.47,0,0,1,1.384.271,2.176,2.176,0,0,1,.945.709,2.735,2.735,0,0,1,.439,1.043,8.144,8.144,0,0,1,.078,1.372v5.12H32.711V11.461a3.8,3.8,0,0,0-.165-1.29,1.353,1.353,0,0,0-.584-0.682,1.857,1.857,0,0,0-.984-0.255,2.288,2.288,0,0,0-1.557.572,2.824,2.824,0,0,0-.655,2.172v4.548H27.355Z" transform="translate(-7.032 -4.836)"/><path class="cls-2" d="M36.027,17.217l1.372,0.2a1.308,1.308,0,0,0,.479.925,2.349,2.349,0,0,0,1.435.392,2.523,2.523,0,0,0,1.514-.392,1.933,1.933,0,0,0,.721-1.1,9.032,9.032,0,0,0,.1-1.811,2.9,2.9,0,0,1-2.305,1.09,3.143,3.143,0,0,1-2.658-1.239,4.77,4.77,0,0,1-.941-2.972,5.532,5.532,0,0,1,.431-2.2,3.453,3.453,0,0,1,1.25-1.556,3.379,3.379,0,0,1,1.925-.549A2.985,2.985,0,0,1,41.782,9.2v-1h1.3v7.2a6.824,6.824,0,0,1-.4,2.756,2.9,2.9,0,0,1-1.254,1.282,4.35,4.35,0,0,1-2.113.47,3.984,3.984,0,0,1-2.407-.67A2.266,2.266,0,0,1,36.027,17.217Zm1.168-5a3.614,3.614,0,0,0,.65,2.392,2.148,2.148,0,0,0,3.262,0,3.5,3.5,0,0,0,.659-2.349,3.418,3.418,0,0,0-.678-2.305,2.1,2.1,0,0,0-1.635-.776,2.037,2.037,0,0,0-1.6.765A3.394,3.394,0,0,0,37.2,12.214Z" transform="translate(-7.032 -4.836)"/><path class="cls-2" d="M50.917,13.845l1.458,0.18A3.558,3.558,0,0,1,51.1,16.009a4.331,4.331,0,0,1-5.281-.419,4.4,4.4,0,0,1-1.07-3.156,4.6,4.6,0,0,1,1.082-3.262,3.664,3.664,0,0,1,2.807-1.16,3.561,3.561,0,0,1,2.729,1.137,4.518,4.518,0,0,1,1.058,3.2q0,0.125-.008.376H46.2a3.2,3.2,0,0,0,.776,2.1,2.31,2.31,0,0,0,1.741.729,2.159,2.159,0,0,0,1.325-.408A2.708,2.708,0,0,0,50.917,13.845Zm-4.634-2.282h4.649A2.82,2.82,0,0,0,50.4,9.987a2.163,2.163,0,0,0-1.749-.815,2.244,2.244,0,0,0-1.635.651A2.575,2.575,0,0,0,46.283,11.563Z" transform="translate(-7.032 -4.836)"/><path class="cls-2" d="M58.083,12.363a4.291,4.291,0,0,1,1.286-3.426,3.874,3.874,0,0,1,2.619-.925A3.737,3.737,0,0,1,64.8,9.136a4.281,4.281,0,0,1,1.09,3.109,5.5,5.5,0,0,1-.482,2.529A3.412,3.412,0,0,1,64,16.205a4.091,4.091,0,0,1-2.011.509,3.743,3.743,0,0,1-2.827-1.121A4.479,4.479,0,0,1,58.083,12.363Zm1.451,0a3.547,3.547,0,0,0,.7,2.4,2.323,2.323,0,0,0,3.5,0,3.631,3.631,0,0,0,.7-2.438,3.442,3.442,0,0,0-.7-2.341,2.327,2.327,0,0,0-3.5,0A3.531,3.531,0,0,0,59.534,12.363Z" transform="translate(-7.032 -4.836)"/><path class="cls-2" d="M67.876,16.527V9.3H66.63V8.2h1.247V7.314a3.888,3.888,0,0,1,.149-1.247,1.806,1.806,0,0,1,.718-0.89,2.583,2.583,0,0,1,1.438-.341,6.936,6.936,0,0,1,1.317.141L71.287,6.208a4.739,4.739,0,0,0-.831-0.078,1.236,1.236,0,0,0-.91.274,1.487,1.487,0,0,0-.267,1.027V8.2H70.9V9.3H69.28v7.229h-1.4Z" transform="translate(-7.032 -4.836)"/><path class="cls-2" d="M76.125,12.834l1.435-.125a3.165,3.165,0,0,0,.475,1.415,2.586,2.586,0,0,0,1.156.894,4.386,4.386,0,0,0,1.764.341,4.22,4.22,0,0,0,1.537-.259,2.13,2.13,0,0,0,.992-0.709,1.646,1.646,0,0,0,.325-0.984,1.5,1.5,0,0,0-.313-0.945,2.325,2.325,0,0,0-1.035-.678,20.19,20.19,0,0,0-2.046-.561A10.456,10.456,0,0,1,78.2,10.5a3.105,3.105,0,0,1-1.227-1.07A2.619,2.619,0,0,1,76.564,8a2.922,2.922,0,0,1,.494-1.627A3.064,3.064,0,0,1,78.5,5.228a5.475,5.475,0,0,1,2.109-.392,5.761,5.761,0,0,1,2.254.412,3.254,3.254,0,0,1,1.5,1.211A3.484,3.484,0,0,1,84.93,8.27l-1.458.109a2.356,2.356,0,0,0-.8-1.646,3.1,3.1,0,0,0-2-.557,3.214,3.214,0,0,0-2.011.506A1.516,1.516,0,0,0,78.031,7.9a1.308,1.308,0,0,0,.447,1.02,6.065,6.065,0,0,0,2.293.819,15.148,15.148,0,0,1,2.544.733A3.487,3.487,0,0,1,84.8,11.646a2.856,2.856,0,0,1,.478,1.635,3.125,3.125,0,0,1-.525,1.729,3.455,3.455,0,0,1-1.509,1.262,5.254,5.254,0,0,1-2.215.451,6.614,6.614,0,0,1-2.615-.455A3.662,3.662,0,0,1,76.756,14.9,3.88,3.88,0,0,1,76.125,12.834Z" transform="translate(-7.032 -4.836)"/><path class="cls-2" d="M90.255,15.264l0.2,1.247a5.241,5.241,0,0,1-1.066.125,2.415,2.415,0,0,1-1.192-.243,1.359,1.359,0,0,1-.6-0.639,5.046,5.046,0,0,1-.172-1.666V9.3H86.4V8.2h1.035V6.137l1.4-.847V8.2h1.419V9.3H88.835v4.869a2.451,2.451,0,0,0,.075.776,0.582,0.582,0,0,0,.243.274,0.934,0.934,0,0,0,.482.1A4.587,4.587,0,0,0,90.255,15.264Z" transform="translate(-7.032 -4.836)"/><path class="cls-2" d="M91.109,12.363A4.291,4.291,0,0,1,92.4,8.937a3.874,3.874,0,0,1,2.619-.925,3.737,3.737,0,0,1,2.807,1.125,4.281,4.281,0,0,1,1.09,3.109,5.5,5.5,0,0,1-.482,2.529,3.412,3.412,0,0,1-1.4,1.431,4.091,4.091,0,0,1-2.011.509,3.743,3.743,0,0,1-2.827-1.121A4.479,4.479,0,0,1,91.109,12.363Zm1.451,0a3.547,3.547,0,0,0,.7,2.4,2.323,2.323,0,0,0,3.5,0,3.631,3.631,0,0,0,.7-2.438,3.442,3.442,0,0,0-.7-2.341,2.327,2.327,0,0,0-3.5,0A3.531,3.531,0,0,0,92.56,12.363Z" transform="translate(-7.032 -4.836)"/><path class="cls-2" d="M106,13.476l1.388,0.181a3.6,3.6,0,0,1-1.165,2.246,3.392,3.392,0,0,1-2.3.812,3.575,3.575,0,0,1-2.749-1.117,4.534,4.534,0,0,1-1.039-3.2,5.8,5.8,0,0,1,.447-2.36,3.115,3.115,0,0,1,1.36-1.517,4.034,4.034,0,0,1,1.988-.506,3.453,3.453,0,0,1,2.219.686,3.146,3.146,0,0,1,1.106,1.948l-1.373.212a2.274,2.274,0,0,0-.694-1.262,1.794,1.794,0,0,0-1.2-.424,2.191,2.191,0,0,0-1.733.765,3.629,3.629,0,0,0-.667,2.419,3.75,3.75,0,0,0,.643,2.438,2.092,2.092,0,0,0,1.678.761,1.978,1.978,0,0,0,1.388-.51A2.528,2.528,0,0,0,106,13.476Z" transform="translate(-7.032 -4.836)"/><path class="cls-2" d="M108.6,16.527V5.032h1.411v6.555l3.34-3.387h1.827L112,11.289l3.5,5.238h-1.741l-2.752-4.258-1,.957v3.3H108.6Z" transform="translate(-7.032 -4.836)"/><path class="cls-2" d="M121.289,16.527V5.032h5.1a6.785,6.785,0,0,1,2.337.31A2.556,2.556,0,0,1,130,6.435a3.265,3.265,0,0,1,.479,1.733,2.891,2.891,0,0,1-.792,2.062A4.007,4.007,0,0,1,127.24,11.3a3.947,3.947,0,0,1,.917.572A7.906,7.906,0,0,1,129.42,13.4l2,3.128h-1.914l-1.521-2.392q-0.667-1.035-1.1-1.584a3.454,3.454,0,0,0-.772-0.768,2.279,2.279,0,0,0-.694-0.306,4.612,4.612,0,0,0-.847-0.055H122.81v5.1h-1.521ZM122.81,10.1h3.27a4.909,4.909,0,0,0,1.631-.215A1.74,1.74,0,0,0,128.6,9.2a1.869,1.869,0,0,0,.306-1.031,1.713,1.713,0,0,0-.592-1.341,2.771,2.771,0,0,0-1.87-.525H122.81v3.8Z" transform="translate(-7.032 -4.836)"/><path class="cls-2" d="M138.382,13.845l1.458,0.18a3.558,3.558,0,0,1-1.278,1.984,4.331,4.331,0,0,1-5.281-.419,4.4,4.4,0,0,1-1.07-3.156,4.6,4.6,0,0,1,1.082-3.262,3.664,3.664,0,0,1,2.807-1.16,3.561,3.561,0,0,1,2.729,1.137,4.518,4.518,0,0,1,1.058,3.2q0,0.125-.008.376h-6.21a3.2,3.2,0,0,0,.776,2.1,2.31,2.31,0,0,0,1.741.729,2.159,2.159,0,0,0,1.325-.408A2.708,2.708,0,0,0,138.382,13.845Zm-4.634-2.282H138.4a2.82,2.82,0,0,0-.533-1.576,2.163,2.163,0,0,0-1.749-.815,2.244,2.244,0,0,0-1.635.651A2.575,2.575,0,0,0,133.748,11.563Z" transform="translate(-7.032 -4.836)"/><path class="cls-2" d="M144.694,15.264l0.2,1.247a5.241,5.241,0,0,1-1.066.125,2.415,2.415,0,0,1-1.192-.243,1.359,1.359,0,0,1-.6-0.639,5.046,5.046,0,0,1-.172-1.666V9.3h-1.035V8.2h1.035V6.137l1.4-.847V8.2h1.419V9.3h-1.419v4.869a2.451,2.451,0,0,0,.075.776,0.582,0.582,0,0,0,.243.274,0.934,0.934,0,0,0,.482.1A4.587,4.587,0,0,0,144.694,15.264Z" transform="translate(-7.032 -4.836)"/><path class="cls-2" d="M151.531,16.527V15.3a3.047,3.047,0,0,1-2.642,1.411,3.36,3.36,0,0,1-1.376-.282,2.258,2.258,0,0,1-.949-0.709,2.648,2.648,0,0,1-.436-1.047,7.16,7.16,0,0,1-.086-1.317V8.2h1.411v4.618a8.219,8.219,0,0,0,.086,1.49,1.472,1.472,0,0,0,.564.874,1.748,1.748,0,0,0,1.066.317,2.326,2.326,0,0,0,1.192-.325,1.809,1.809,0,0,0,.788-0.886,4.455,4.455,0,0,0,.231-1.627V8.2h1.412v8.327h-1.263Z" transform="translate(-7.032 -4.836)"/><path class="cls-2" d="M154.989,16.527V8.2h1.27V9.462a3.444,3.444,0,0,1,.9-1.168,1.565,1.565,0,0,1,.906-0.282,2.751,2.751,0,0,1,1.45.455l-0.486,1.31a2.017,2.017,0,0,0-1.035-.306,1.343,1.343,0,0,0-.831.278,1.508,1.508,0,0,0-.525.772,5.5,5.5,0,0,0-.235,1.647v4.359h-1.411Z" transform="translate(-7.032 -4.836)"/><path class="cls-2" d="M160.352,16.527V8.2h1.27V9.384a2.994,2.994,0,0,1,2.65-1.372,3.47,3.47,0,0,1,1.384.271,2.176,2.176,0,0,1,.945.709,2.735,2.735,0,0,1,.439,1.043,8.144,8.144,0,0,1,.078,1.372v5.12h-1.411V11.461a3.8,3.8,0,0,0-.165-1.29,1.353,1.353,0,0,0-.584-0.682,1.857,1.857,0,0,0-.984-0.255,2.288,2.288,0,0,0-1.557.572,2.824,2.824,0,0,0-.655,2.172v4.548h-1.411Z" transform="translate(-7.032 -4.836)"/><path class="cls-2" d="M168.719,14.041l1.4-.22a1.949,1.949,0,0,0,.655,1.286,2.279,2.279,0,0,0,1.5.447,2.206,2.206,0,0,0,1.443-.4,1.185,1.185,0,0,0,.47-0.929,0.858,0.858,0,0,0-.416-0.753A6.12,6.12,0,0,0,172.325,13a13.152,13.152,0,0,1-2.152-.678,2.056,2.056,0,0,1-1.219-1.909,2.145,2.145,0,0,1,.255-1.031,2.286,2.286,0,0,1,.694-0.788,2.91,2.91,0,0,1,.9-0.412,4.27,4.27,0,0,1,1.219-.168,4.815,4.815,0,0,1,1.721.282,2.337,2.337,0,0,1,1.094.765,2.985,2.985,0,0,1,.486,1.29l-1.38.188a1.509,1.509,0,0,0-.545-1,1.993,1.993,0,0,0-1.274-.361,2.305,2.305,0,0,0-1.388.322,0.935,0.935,0,0,0-.416.752,0.778,0.778,0,0,0,.172.494,1.24,1.24,0,0,0,.541.376q0.212,0.078,1.247.36a17.461,17.461,0,0,1,2.09.655,2.123,2.123,0,0,1,.929.741,2.07,2.07,0,0,1,.337,1.208,2.37,2.37,0,0,1-.412,1.329,2.661,2.661,0,0,1-1.188.964,4.322,4.322,0,0,1-1.756.341,3.911,3.911,0,0,1-2.474-.674A3.133,3.133,0,0,1,168.719,14.041Z" transform="translate(-7.032 -4.836)"/><path class="cls-2" d="M182.111,16.527V9.3h-1.247V8.2h1.247V7.314a3.888,3.888,0,0,1,.149-1.247,1.806,1.806,0,0,1,.718-0.89,2.583,2.583,0,0,1,1.438-.341,6.936,6.936,0,0,1,1.317.141l-0.211,1.231a4.739,4.739,0,0,0-.831-0.078,1.236,1.236,0,0,0-.91.274,1.487,1.487,0,0,0-.267,1.027V8.2h1.623V9.3h-1.623v7.229h-1.4Z" transform="translate(-7.032 -4.836)"/><path class="cls-2" d="M185.71,12.363A4.291,4.291,0,0,1,187,8.937a3.874,3.874,0,0,1,2.619-.925,3.737,3.737,0,0,1,2.807,1.125,4.281,4.281,0,0,1,1.09,3.109,5.5,5.5,0,0,1-.482,2.529,3.412,3.412,0,0,1-1.4,1.431,4.091,4.091,0,0,1-2.011.509,3.743,3.743,0,0,1-2.827-1.121A4.479,4.479,0,0,1,185.71,12.363Zm1.451,0a3.547,3.547,0,0,0,.7,2.4,2.323,2.323,0,0,0,3.5,0,3.631,3.631,0,0,0,.7-2.438,3.442,3.442,0,0,0-.7-2.341,2.327,2.327,0,0,0-3.5,0A3.531,3.531,0,0,0,187.16,12.363Z" transform="translate(-7.032 -4.836)"/><path class="cls-2" d="M195.15,16.527V8.2h1.27V9.462a3.444,3.444,0,0,1,.9-1.168,1.565,1.565,0,0,1,.906-0.282,2.751,2.751,0,0,1,1.45.455l-0.486,1.31a2.017,2.017,0,0,0-1.035-.306,1.343,1.343,0,0,0-.831.278,1.508,1.508,0,0,0-.525.772,5.5,5.5,0,0,0-.235,1.647v4.359H195.15Z" transform="translate(-7.032 -4.836)"/><path class="cls-2" d="M208.441,16.527L203.987,5.032h1.646l2.987,8.351q0.36,1,.6,1.882,0.267-.941.62-1.882l3.1-8.351H214.5L210,16.527h-1.56Z" transform="translate(-7.032 -4.836)"/><path class="cls-2" d="M219.928,15.5a5.245,5.245,0,0,1-1.509.941,4.358,4.358,0,0,1-1.557.274,3.025,3.025,0,0,1-2.109-.67,2.211,2.211,0,0,1-.737-1.713,2.281,2.281,0,0,1,.278-1.118,2.307,2.307,0,0,1,.729-0.812,3.433,3.433,0,0,1,1.015-.462,10.152,10.152,0,0,1,1.255-.212,12.9,12.9,0,0,0,2.517-.486q0.008-.29.008-0.369a1.558,1.558,0,0,0-.4-1.215,2.362,2.362,0,0,0-1.607-.479,2.492,2.492,0,0,0-1.47.349,2.133,2.133,0,0,0-.7,1.235l-1.38-.188a3.419,3.419,0,0,1,.62-1.431,2.709,2.709,0,0,1,1.247-.839,5.553,5.553,0,0,1,1.89-.294,5,5,0,0,1,1.733.251,2.28,2.28,0,0,1,.98.631,2.222,2.222,0,0,1,.439.96,7.905,7.905,0,0,1,.071,1.3v1.882a19.877,19.877,0,0,0,.09,2.49,3.137,3.137,0,0,0,.356,1H220.21A2.993,2.993,0,0,1,219.928,15.5Zm-0.118-3.152a10.368,10.368,0,0,1-2.305.533,5.326,5.326,0,0,0-1.231.282,1.226,1.226,0,0,0-.557.458,1.247,1.247,0,0,0,.231,1.611,1.838,1.838,0,0,0,1.25.376,2.912,2.912,0,0,0,1.451-.356,2.2,2.2,0,0,0,.933-0.977,3.413,3.413,0,0,0,.227-1.411V12.347Z" transform="translate(-7.032 -4.836)"/><path class="cls-2" d="M223.409,16.527V8.2h1.27V9.462a3.444,3.444,0,0,1,.9-1.168,1.565,1.565,0,0,1,.906-0.282,2.751,2.751,0,0,1,1.45.455l-0.486,1.31a2.017,2.017,0,0,0-1.035-.306,1.343,1.343,0,0,0-.831.278,1.508,1.508,0,0,0-.525.772,5.5,5.5,0,0,0-.235,1.647v4.359h-1.411Z" transform="translate(-7.032 -4.836)"/><path class="cls-2" d="M228.78,6.655V5.032h1.411V6.655H228.78Zm0,9.872V8.2h1.411v8.327H228.78Z" transform="translate(-7.032 -4.836)"/><path class="cls-2" d="M231.815,12.363A4.291,4.291,0,0,1,233.1,8.937a3.874,3.874,0,0,1,2.619-.925,3.737,3.737,0,0,1,2.807,1.125,4.281,4.281,0,0,1,1.09,3.109,5.5,5.5,0,0,1-.482,2.529,3.412,3.412,0,0,1-1.4,1.431,4.091,4.091,0,0,1-2.011.509,3.743,3.743,0,0,1-2.827-1.121A4.479,4.479,0,0,1,231.815,12.363Zm1.451,0a3.547,3.547,0,0,0,.7,2.4,2.323,2.323,0,0,0,3.5,0,3.631,3.631,0,0,0,.7-2.438,3.442,3.442,0,0,0-.7-2.341,2.327,2.327,0,0,0-3.5,0A3.531,3.531,0,0,0,233.265,12.363Z" transform="translate(-7.032 -4.836)"/><path class="cls-2" d="M246.728,16.527V15.3a3.047,3.047,0,0,1-2.642,1.411,3.36,3.36,0,0,1-1.376-.282,2.258,2.258,0,0,1-.949-0.709,2.648,2.648,0,0,1-.436-1.047,7.16,7.16,0,0,1-.086-1.317V8.2h1.411v4.618a8.219,8.219,0,0,0,.086,1.49,1.472,1.472,0,0,0,.564.874,1.748,1.748,0,0,0,1.066.317,2.326,2.326,0,0,0,1.192-.325,1.809,1.809,0,0,0,.788-0.886,4.455,4.455,0,0,0,.231-1.627V8.2h1.412v8.327h-1.263Z" transform="translate(-7.032 -4.836)"/><path class="cls-2" d="M249.637,14.041l1.4-.22a1.949,1.949,0,0,0,.655,1.286,2.279,2.279,0,0,0,1.5.447,2.206,2.206,0,0,0,1.443-.4,1.185,1.185,0,0,0,.47-0.929,0.858,0.858,0,0,0-.416-0.753A6.12,6.12,0,0,0,253.243,13a13.152,13.152,0,0,1-2.152-.678,2.056,2.056,0,0,1-1.219-1.909,2.145,2.145,0,0,1,.255-1.031,2.286,2.286,0,0,1,.694-0.788,2.91,2.91,0,0,1,.9-0.412,4.27,4.27,0,0,1,1.219-.168,4.815,4.815,0,0,1,1.721.282,2.337,2.337,0,0,1,1.094.765,2.985,2.985,0,0,1,.486,1.29l-1.38.188a1.509,1.509,0,0,0-.545-1,1.993,1.993,0,0,0-1.274-.361,2.305,2.305,0,0,0-1.388.322,0.935,0.935,0,0,0-.416.752,0.778,0.778,0,0,0,.172.494,1.24,1.24,0,0,0,.541.376q0.212,0.078,1.247.36a17.461,17.461,0,0,1,2.09.655,2.123,2.123,0,0,1,.929.741,2.07,2.07,0,0,1,.337,1.208,2.37,2.37,0,0,1-.412,1.329,2.661,2.661,0,0,1-1.188.964,4.322,4.322,0,0,1-1.756.341,3.911,3.911,0,0,1-2.474-.674A3.133,3.133,0,0,1,249.637,14.041Z" transform="translate(-7.032 -4.836)"/><path class="cls-2" d="M262.872,16.527V5.032h4.336a10.523,10.523,0,0,1,1.749.109,3.47,3.47,0,0,1,1.419.537,2.826,2.826,0,0,1,.921,1.11,3.523,3.523,0,0,1,.349,1.568,3.535,3.535,0,0,1-.933,2.482,4.476,4.476,0,0,1-3.372,1.015h-2.948v4.673h-1.521Zm1.521-6.03h2.972a3.15,3.15,0,0,0,2.093-.549,1.955,1.955,0,0,0,.62-1.544,2.079,2.079,0,0,0-.365-1.235,1.706,1.706,0,0,0-.96-0.678,6.516,6.516,0,0,0-1.419-.1h-2.94V10.5Z" transform="translate(-7.032 -4.836)"/><path class="cls-2" d="M279.1,13.845l1.458,0.18a3.558,3.558,0,0,1-1.278,1.984A4.331,4.331,0,0,1,274,15.59a4.4,4.4,0,0,1-1.07-3.156,4.6,4.6,0,0,1,1.082-3.262,3.664,3.664,0,0,1,2.807-1.16,3.561,3.561,0,0,1,2.729,1.137,4.518,4.518,0,0,1,1.058,3.2q0,0.125-.008.376h-6.21a3.2,3.2,0,0,0,.776,2.1,2.31,2.31,0,0,0,1.741.729,2.159,2.159,0,0,0,1.325-.408A2.708,2.708,0,0,0,279.1,13.845Zm-4.634-2.282h4.649a2.82,2.82,0,0,0-.533-1.576,2.163,2.163,0,0,0-1.749-.815,2.244,2.244,0,0,0-1.635.651A2.575,2.575,0,0,0,274.47,11.563Z" transform="translate(-7.032 -4.836)"/><path class="cls-2" d="M282.318,16.527V8.2h1.27V9.462a3.444,3.444,0,0,1,.9-1.168,1.565,1.565,0,0,1,.906-0.282,2.751,2.751,0,0,1,1.45.455l-0.486,1.31a2.017,2.017,0,0,0-1.035-.306,1.343,1.343,0,0,0-.831.278,1.508,1.508,0,0,0-.525.772,5.5,5.5,0,0,0-.235,1.647v4.359h-1.411Z" transform="translate(-7.032 -4.836)"/><path class="cls-2" d="M287.689,6.655V5.032H289.1V6.655h-1.411Zm0,9.872V8.2H289.1v8.327h-1.411Z" transform="translate(-7.032 -4.836)"/><path class="cls-2" d="M290.724,12.363a4.291,4.291,0,0,1,1.286-3.426,3.874,3.874,0,0,1,2.619-.925,3.737,3.737,0,0,1,2.807,1.125,4.281,4.281,0,0,1,1.09,3.109,5.5,5.5,0,0,1-.482,2.529,3.412,3.412,0,0,1-1.4,1.431,4.091,4.091,0,0,1-2.011.509,3.743,3.743,0,0,1-2.827-1.121A4.479,4.479,0,0,1,290.724,12.363Zm1.451,0a3.547,3.547,0,0,0,.7,2.4,2.323,2.323,0,0,0,3.5,0,3.631,3.631,0,0,0,.7-2.438,3.442,3.442,0,0,0-.7-2.341,2.327,2.327,0,0,0-3.5,0A3.531,3.531,0,0,0,292.175,12.363Z" transform="translate(-7.032 -4.836)"/><path class="cls-2" d="M305.582,16.527V15.476a2.589,2.589,0,0,1-2.329,1.239,3.263,3.263,0,0,1-1.831-.549,3.61,3.61,0,0,1-1.294-1.533,5.3,5.3,0,0,1-.458-2.262,5.926,5.926,0,0,1,.416-2.262,3.277,3.277,0,0,1,1.247-1.556,3.333,3.333,0,0,1,1.858-.541,2.776,2.776,0,0,1,2.3,1.145V5.032h1.4V16.527h-1.31Zm-4.461-4.156a3.616,3.616,0,0,0,.674,2.392,2.033,2.033,0,0,0,1.592.792,2,2,0,0,0,1.572-.757,3.486,3.486,0,0,0,.647-2.309,3.914,3.914,0,0,0-.659-2.509,2.025,2.025,0,0,0-1.623-.8,1.955,1.955,0,0,0-1.572.769A3.792,3.792,0,0,0,301.121,12.371Z" transform="translate(-7.032 -4.836)"/><path class="cls-2" d="M308.546,14.041l1.4-.22a1.949,1.949,0,0,0,.655,1.286,2.279,2.279,0,0,0,1.5.447,2.206,2.206,0,0,0,1.443-.4,1.185,1.185,0,0,0,.47-0.929,0.858,0.858,0,0,0-.416-0.753A6.12,6.12,0,0,0,312.153,13,13.152,13.152,0,0,1,310,12.32a2.056,2.056,0,0,1-1.219-1.909,2.145,2.145,0,0,1,.255-1.031,2.286,2.286,0,0,1,.694-0.788,2.91,2.91,0,0,1,.9-0.412,4.27,4.27,0,0,1,1.219-.168,4.815,4.815,0,0,1,1.721.282,2.337,2.337,0,0,1,1.094.765,2.985,2.985,0,0,1,.486,1.29l-1.38.188a1.509,1.509,0,0,0-.545-1,1.993,1.993,0,0,0-1.274-.361,2.305,2.305,0,0,0-1.388.322,0.935,0.935,0,0,0-.416.752,0.778,0.778,0,0,0,.172.494,1.24,1.24,0,0,0,.541.376q0.212,0.078,1.247.36a17.461,17.461,0,0,1,2.09.655,2.123,2.123,0,0,1,.929.741,2.07,2.07,0,0,1,.337,1.208,2.37,2.37,0,0,1-.412,1.329,2.661,2.661,0,0,1-1.188.964,4.322,4.322,0,0,1-1.756.341,3.911,3.911,0,0,1-2.474-.674A3.133,3.133,0,0,1,308.546,14.041Z" transform="translate(-7.032 -4.836)"/><path class="cls-2" d="M11.752,35.8H10.341V26.8A7.282,7.282,0,0,1,9,27.775a9.492,9.492,0,0,1-1.486.729V27.14a8.532,8.532,0,0,0,2.07-1.349,5.31,5.31,0,0,0,1.255-1.537h0.909V35.8Z" transform="translate(-7.032 -4.836)"/><path class="cls-2" d="M15.578,33.138l1.356-.125a2.357,2.357,0,0,0,.658,1.388,1.809,1.809,0,0,0,1.247.431,2.151,2.151,0,0,0,1.141-.3,2.436,2.436,0,0,0,.8-0.8,4.682,4.682,0,0,0,.525-1.345,7.087,7.087,0,0,0,.212-1.725c0-.063,0-0.157-0.008-0.282a3.232,3.232,0,0,1-1.157,1.094,3.142,3.142,0,0,1-1.588.419,3.212,3.212,0,0,1-2.415-1.035,3.787,3.787,0,0,1-.988-2.729A3.878,3.878,0,0,1,16.4,25.321a3.444,3.444,0,0,1,2.583-1.066,3.687,3.687,0,0,1,2.05.6,3.771,3.771,0,0,1,1.412,1.721,8.479,8.479,0,0,1,.482,3.234,10.484,10.484,0,0,1-.478,3.509,4.112,4.112,0,0,1-1.423,1.987,3.681,3.681,0,0,1-2.215.682A3.035,3.035,0,0,1,15.578,33.138Zm5.778-5.073a2.765,2.765,0,0,0-.646-1.929,2.029,2.029,0,0,0-1.557-.713,2.149,2.149,0,0,0-1.639.769,2.846,2.846,0,0,0-.7,1.991,2.46,2.46,0,0,0,.663,1.784,2.181,2.181,0,0,0,1.635.686,2.092,2.092,0,0,0,1.611-.686A2.7,2.7,0,0,0,21.357,28.066Z" transform="translate(-7.032 -4.836)"/><path class="cls-2" d="M24.509,33.138l1.356-.125a2.357,2.357,0,0,0,.658,1.388,1.809,1.809,0,0,0,1.247.431,2.151,2.151,0,0,0,1.141-.3,2.436,2.436,0,0,0,.8-0.8,4.682,4.682,0,0,0,.525-1.345,7.087,7.087,0,0,0,.212-1.725c0-.063,0-0.157-0.008-0.282a3.232,3.232,0,0,1-1.157,1.094A3.142,3.142,0,0,1,27.7,31.9a3.212,3.212,0,0,1-2.415-1.035,3.787,3.787,0,0,1-.988-2.729,3.878,3.878,0,0,1,1.031-2.815,3.444,3.444,0,0,1,2.583-1.066,3.687,3.687,0,0,1,2.05.6,3.771,3.771,0,0,1,1.412,1.721,8.479,8.479,0,0,1,.482,3.234,10.484,10.484,0,0,1-.478,3.509,4.112,4.112,0,0,1-1.423,1.987,3.681,3.681,0,0,1-2.215.682A3.035,3.035,0,0,1,24.509,33.138Zm5.778-5.073a2.765,2.765,0,0,0-.646-1.929,2.029,2.029,0,0,0-1.557-.713,2.149,2.149,0,0,0-1.639.769,2.846,2.846,0,0,0-.7,1.991,2.46,2.46,0,0,0,.663,1.784,2.181,2.181,0,0,0,1.635.686,2.092,2.092,0,0,0,1.611-.686A2.7,2.7,0,0,0,30.287,28.066Z" transform="translate(-7.032 -4.836)"/><path class="cls-2" d="M38.544,35.8H37.133V26.8a7.282,7.282,0,0,1-1.337.972,9.492,9.492,0,0,1-1.486.729V27.14a8.532,8.532,0,0,0,2.07-1.349,5.31,5.31,0,0,0,1.255-1.537h0.909V35.8Z" transform="translate(-7.032 -4.836)"/><path class="cls-2" d="M42,32.346V30.927h4.336v1.419H42Z" transform="translate(-7.032 -4.836)"/><path class="cls-2" d="M54.924,34.44V35.8h-7.6a2.483,2.483,0,0,1,.165-0.98,5.181,5.181,0,0,1,.929-1.529,14.585,14.585,0,0,1,1.846-1.741A15.631,15.631,0,0,0,52.8,29.112a2.911,2.911,0,0,0,.659-1.7,1.886,1.886,0,0,0-.6-1.416,2.164,2.164,0,0,0-1.564-.576,2.2,2.2,0,0,0-1.631.611,2.316,2.316,0,0,0-.62,1.694l-1.45-.149a3.568,3.568,0,0,1,1.121-2.474,3.823,3.823,0,0,1,2.611-.851,3.645,3.645,0,0,1,2.619.917,3.012,3.012,0,0,1,.964,2.274,3.452,3.452,0,0,1-.282,1.356,5.267,5.267,0,0,1-.937,1.4,22.848,22.848,0,0,1-2.176,2.023q-1.271,1.066-1.631,1.446a4.653,4.653,0,0,0-.6.765h5.638Z" transform="translate(-7.032 -4.836)"/><path class="cls-2" d="M56.437,30.128a10.513,10.513,0,0,1,.419-3.281A4.086,4.086,0,0,1,58.1,24.929a3.19,3.19,0,0,1,2.082-.674,3.4,3.4,0,0,1,1.623.373A3.1,3.1,0,0,1,62.96,25.7a5.77,5.77,0,0,1,.714,1.709,11.36,11.36,0,0,1,.259,2.717,10.554,10.554,0,0,1-.416,3.266,4.08,4.08,0,0,1-1.243,1.921,3.5,3.5,0,0,1-4.7-.513A7.578,7.578,0,0,1,56.437,30.128Zm1.451,0A7.2,7.2,0,0,0,58.55,33.9a1.893,1.893,0,0,0,3.27,0,7.213,7.213,0,0,0,.663-3.764,7.209,7.209,0,0,0-.663-3.771,1.966,1.966,0,0,0-1.65-.933,1.809,1.809,0,0,0-1.553.823A7.294,7.294,0,0,0,57.887,30.128Z" transform="translate(-7.032 -4.836)"/><path class="cls-2" d="M70.683,35.8H69.272V26.8a7.282,7.282,0,0,1-1.337.972,9.492,9.492,0,0,1-1.486.729V27.14a8.532,8.532,0,0,0,2.07-1.349,5.31,5.31,0,0,0,1.255-1.537h0.909V35.8Z" transform="translate(-7.032 -4.836)"/><path class="cls-2" d="M74.3,32.786l1.482-.125a2.658,2.658,0,0,0,.765,1.627,2.075,2.075,0,0,0,1.446.545,2.253,2.253,0,0,0,1.725-.769,2.9,2.9,0,0,0,.706-2.039,2.618,2.618,0,0,0-.678-1.905,2.364,2.364,0,0,0-1.776-.7,2.46,2.46,0,0,0-1.231.31,2.389,2.389,0,0,0-.862.8l-1.325-.172,1.113-5.9h5.716v1.349H76.791L76.172,28.9a3.741,3.741,0,0,1,2.172-.722,3.441,3.441,0,0,1,2.541,1.043A3.646,3.646,0,0,1,81.92,31.9a4.185,4.185,0,0,1-.91,2.7,3.644,3.644,0,0,1-3.019,1.4,3.719,3.719,0,0,1-2.56-.878A3.428,3.428,0,0,1,74.3,32.786Z" transform="translate(-7.032 -4.836)"/><path class="cls-2" d="M22.946,93.764V91.012H17.959V89.718L23.2,82.269h1.153v7.449H25.91v1.294H24.357v2.752H22.946Zm0-4.046V84.535l-3.6,5.183h3.6Z" transform="translate(-7.032 -4.836)"/><path class="cls-2" d="M27.352,88.095a10.513,10.513,0,0,1,.419-3.281A4.086,4.086,0,0,1,29.018,82.9a3.19,3.19,0,0,1,2.082-.674,3.4,3.4,0,0,1,1.623.373,3.1,3.1,0,0,1,1.152,1.074,5.77,5.77,0,0,1,.714,1.709,11.36,11.36,0,0,1,.259,2.717,10.554,10.554,0,0,1-.416,3.266,4.08,4.08,0,0,1-1.243,1.921,3.5,3.5,0,0,1-4.7-.513A7.578,7.578,0,0,1,27.352,88.095Zm1.451,0a7.2,7.2,0,0,0,.663,3.768,1.893,1.893,0,0,0,3.27,0,7.213,7.213,0,0,0,.663-3.764,7.209,7.209,0,0,0-.663-3.771,1.966,1.966,0,0,0-1.65-.933,1.809,1.809,0,0,0-1.553.823A7.294,7.294,0,0,0,28.8,88.095Z" transform="translate(-7.032 -4.836)"/><path class="cls-2" d="M36.55,85.029a3.492,3.492,0,0,1,.62-2.093,2.072,2.072,0,0,1,1.8-.863,2.33,2.33,0,0,1,1.792.772,3.93,3.93,0,0,1-.008,4.516,2.3,2.3,0,0,1-1.768.788,2.234,2.234,0,0,1-1.737-.776A3.43,3.43,0,0,1,36.55,85.029ZM39,83.045a1.061,1.061,0,0,0-.874.455,2.878,2.878,0,0,0-.349,1.67,2.589,2.589,0,0,0,.353,1.557,1.074,1.074,0,0,0,1.752,0,2.866,2.866,0,0,0,.349-1.663,2.608,2.608,0,0,0-.353-1.564A1.075,1.075,0,0,0,39,83.045Zm0.008,11.142L45.3,82.073h1.145L40.18,94.187H39.011Zm4.971-3.121a3.491,3.491,0,0,1,.62-2.1,2.084,2.084,0,0,1,1.8-.858,2.328,2.328,0,0,1,1.792.772,3.928,3.928,0,0,1-.008,4.516,2.305,2.305,0,0,1-1.776.788,2.228,2.228,0,0,1-1.737-.78A3.431,3.431,0,0,1,43.983,91.067Zm2.462-1.984a1.068,1.068,0,0,0-.882.455,2.878,2.878,0,0,0-.349,1.67,2.591,2.591,0,0,0,.353,1.553,1.079,1.079,0,0,0,1.76,0,2.865,2.865,0,0,0,.349-1.663,2.6,2.6,0,0,0-.353-1.564A1.075,1.075,0,0,0,46.445,89.083Z" transform="translate(-7.032 -4.836)"/><path class="cls-2" d="M27.353,195.064a10.513,10.513,0,0,1,.419-3.281,4.086,4.086,0,0,1,1.247-1.917,3.19,3.19,0,0,1,2.082-.674,3.4,3.4,0,0,1,1.623.373,3.1,3.1,0,0,1,1.152,1.074,5.77,5.77,0,0,1,.714,1.709,11.36,11.36,0,0,1,.259,2.717,10.554,10.554,0,0,1-.416,3.266,4.08,4.08,0,0,1-1.243,1.921,3.5,3.5,0,0,1-4.7-.513A7.578,7.578,0,0,1,27.353,195.064Zm1.451,0a7.2,7.2,0,0,0,.663,3.768,1.893,1.893,0,0,0,3.27,0,11.043,11.043,0,0,0,0-7.535,1.966,1.966,0,0,0-1.65-.933,1.809,1.809,0,0,0-1.553.823A7.294,7.294,0,0,0,28.8,195.064Z" transform="translate(-7.032 -4.836)"/><path class="cls-2" d="M36.55,192a3.492,3.492,0,0,1,.62-2.093,2.072,2.072,0,0,1,1.8-.863,2.33,2.33,0,0,1,1.792.772,3.93,3.93,0,0,1-.008,4.516,2.3,2.3,0,0,1-1.768.788,2.234,2.234,0,0,1-1.737-.776A3.43,3.43,0,0,1,36.55,192ZM39,190.014a1.061,1.061,0,0,0-.874.455,2.878,2.878,0,0,0-.349,1.67,2.589,2.589,0,0,0,.353,1.557,1.074,1.074,0,0,0,1.752,0,2.866,2.866,0,0,0,.349-1.663,2.608,2.608,0,0,0-.353-1.564A1.075,1.075,0,0,0,39,190.014Zm0.008,11.142L45.3,189.042h1.145L40.18,201.156H39.012Zm4.971-3.121a3.491,3.491,0,0,1,.62-2.1,2.084,2.084,0,0,1,1.8-.858,2.328,2.328,0,0,1,1.792.772,3.928,3.928,0,0,1-.008,4.516,2.305,2.305,0,0,1-1.776.788,2.228,2.228,0,0,1-1.737-.78A3.431,3.431,0,0,1,43.983,198.036Zm2.462-1.984a1.068,1.068,0,0,0-.882.455,2.878,2.878,0,0,0-.349,1.67,2.591,2.591,0,0,0,.353,1.553,1.079,1.079,0,0,0,1.76,0,2.865,2.865,0,0,0,.349-1.663,2.6,2.6,0,0,0-.353-1.564A1.075,1.075,0,0,0,46.445,196.052Z" transform="translate(-7.032 -4.836)"/><path class="cls-2" d="M128.737,348.328h-1.411v-8.994a7.282,7.282,0,0,1-1.337.972,9.492,9.492,0,0,1-1.486.729v-1.364a8.532,8.532,0,0,0,2.07-1.349,5.31,5.31,0,0,0,1.255-1.537h0.909v11.542Z" transform="translate(-7.032 -4.836)"/><path class="cls-2" d="M132.195,344.878v-1.419h4.336v1.419h-4.336Z" transform="translate(-7.032 -4.836)"/><path class="cls-2" d="M141.51,348.328v-4.869l-4.43-6.625h1.851L141.2,340.3q0.627,0.973,1.168,1.945,0.517-.9,1.254-2.031l2.227-3.379h1.772l-4.587,6.625v4.869H141.51Z" transform="translate(-7.032 -4.836)"/><path class="cls-2" d="M153.028,345.646l1.458,0.18a3.558,3.558,0,0,1-1.278,1.984,4.331,4.331,0,0,1-5.281-.419,4.4,4.4,0,0,1-1.07-3.156,4.6,4.6,0,0,1,1.082-3.262,3.664,3.664,0,0,1,2.807-1.16,3.561,3.561,0,0,1,2.729,1.137,4.518,4.518,0,0,1,1.058,3.2q0,0.125-.008.376h-6.21a3.2,3.2,0,0,0,.776,2.1,2.31,2.31,0,0,0,1.741.729,2.159,2.159,0,0,0,1.325-.408A2.708,2.708,0,0,0,153.028,345.646Zm-4.634-2.282h4.649a2.82,2.82,0,0,0-.533-1.576,2.163,2.163,0,0,0-1.749-.815,2.244,2.244,0,0,0-1.635.651A2.575,2.575,0,0,0,148.394,343.364Z" transform="translate(-7.032 -4.836)"/><path class="cls-2" d="M161.692,347.3a5.245,5.245,0,0,1-1.509.941,4.358,4.358,0,0,1-1.557.274,3.025,3.025,0,0,1-2.109-.67,2.211,2.211,0,0,1-.737-1.713,2.281,2.281,0,0,1,.278-1.118,2.307,2.307,0,0,1,.729-0.812,3.433,3.433,0,0,1,1.015-.462,10.152,10.152,0,0,1,1.255-.212,12.9,12.9,0,0,0,2.517-.486q0.008-.29.008-0.369a1.558,1.558,0,0,0-.4-1.215,2.362,2.362,0,0,0-1.607-.479,2.492,2.492,0,0,0-1.47.349,2.133,2.133,0,0,0-.7,1.235l-1.38-.188a3.419,3.419,0,0,1,.62-1.431,2.709,2.709,0,0,1,1.247-.839,5.553,5.553,0,0,1,1.89-.294,5,5,0,0,1,1.733.251,2.28,2.28,0,0,1,.98.631,2.222,2.222,0,0,1,.439.96,7.905,7.905,0,0,1,.071,1.3v1.882a19.877,19.877,0,0,0,.09,2.49,3.137,3.137,0,0,0,.356,1h-1.474A2.993,2.993,0,0,1,161.692,347.3Zm-0.118-3.152a10.368,10.368,0,0,1-2.305.533,5.326,5.326,0,0,0-1.231.282,1.226,1.226,0,0,0-.557.458,1.247,1.247,0,0,0,.231,1.611,1.838,1.838,0,0,0,1.25.376,2.912,2.912,0,0,0,1.451-.356,2.2,2.2,0,0,0,.933-0.977,3.413,3.413,0,0,0,.227-1.411v-0.518Z" transform="translate(-7.032 -4.836)"/><path class="cls-2" d="M165.174,348.328V340h1.27v1.263a3.444,3.444,0,0,1,.9-1.168,1.565,1.565,0,0,1,.906-0.282,2.751,2.751,0,0,1,1.45.455l-0.486,1.31a2.017,2.017,0,0,0-1.035-.306,1.343,1.343,0,0,0-.831.278,1.508,1.508,0,0,0-.525.772,5.5,5.5,0,0,0-.235,1.647v4.359h-1.411Z" transform="translate(-7.032 -4.836)"/><path class="cls-2" d="M120.131,367.6V356.1h4.336a10.523,10.523,0,0,1,1.749.109,3.47,3.47,0,0,1,1.419.537,2.826,2.826,0,0,1,.921,1.11,3.742,3.742,0,0,1-.584,4.05,4.476,4.476,0,0,1-3.372,1.015h-2.948V367.6h-1.521Zm1.521-6.03h2.972a3.15,3.15,0,0,0,2.093-.549,1.955,1.955,0,0,0,.62-1.544,2.079,2.079,0,0,0-.365-1.235,1.706,1.706,0,0,0-.96-0.678,6.516,6.516,0,0,0-1.419-.1h-2.94v4.108Z" transform="translate(-7.032 -4.836)"/><path class="cls-2" d="M136.362,364.916l1.458,0.18a3.558,3.558,0,0,1-1.278,1.984,4.331,4.331,0,0,1-5.281-.419,4.4,4.4,0,0,1-1.07-3.156,4.6,4.6,0,0,1,1.082-3.262,3.664,3.664,0,0,1,2.807-1.16,3.561,3.561,0,0,1,2.729,1.137,4.518,4.518,0,0,1,1.058,3.2q0,0.125-.008.376h-6.21a3.2,3.2,0,0,0,.776,2.1,2.31,2.31,0,0,0,1.741.729,2.159,2.159,0,0,0,1.325-.408A2.708,2.708,0,0,0,136.362,364.916Zm-4.634-2.282h4.649a2.82,2.82,0,0,0-.533-1.576,2.163,2.163,0,0,0-1.749-.815,2.244,2.244,0,0,0-1.635.651A2.575,2.575,0,0,0,131.728,362.634Z" transform="translate(-7.032 -4.836)"/><path class="cls-2" d="M139.577,367.6v-8.327h1.27v1.263a3.444,3.444,0,0,1,.9-1.168,1.565,1.565,0,0,1,.906-0.282,2.751,2.751,0,0,1,1.45.455l-0.486,1.31a2.017,2.017,0,0,0-1.035-.306,1.343,1.343,0,0,0-.831.278,1.508,1.508,0,0,0-.525.772,5.5,5.5,0,0,0-.235,1.647V367.6h-1.411Z" transform="translate(-7.032 -4.836)"/><path class="cls-2" d="M144.948,357.726V356.1h1.411v1.623h-1.411Zm0,9.872v-8.327h1.411V367.6h-1.411Z" transform="translate(-7.032 -4.836)"/><path class="cls-2" d="M147.982,363.434a4.291,4.291,0,0,1,1.286-3.426,3.874,3.874,0,0,1,2.619-.925,3.737,3.737,0,0,1,2.807,1.125,4.281,4.281,0,0,1,1.09,3.109,5.5,5.5,0,0,1-.482,2.529,3.412,3.412,0,0,1-1.4,1.431,4.091,4.091,0,0,1-2.011.509,3.743,3.743,0,0,1-2.827-1.121A4.479,4.479,0,0,1,147.982,363.434Zm1.451,0a3.547,3.547,0,0,0,.7,2.4,2.323,2.323,0,0,0,3.5,0,3.631,3.631,0,0,0,.7-2.438,3.442,3.442,0,0,0-.7-2.341,2.327,2.327,0,0,0-3.5,0A3.531,3.531,0,0,0,149.433,363.434Z" transform="translate(-7.032 -4.836)"/><path class="cls-2" d="M162.841,367.6v-1.051a2.589,2.589,0,0,1-2.329,1.239,3.263,3.263,0,0,1-1.831-.549,3.61,3.61,0,0,1-1.294-1.533,5.3,5.3,0,0,1-.458-2.262,5.926,5.926,0,0,1,.416-2.262,3.277,3.277,0,0,1,1.247-1.556,3.333,3.333,0,0,1,1.858-.541,2.776,2.776,0,0,1,2.3,1.145V356.1h1.4V367.6h-1.31Zm-4.461-4.156a3.616,3.616,0,0,0,.674,2.392,2.033,2.033,0,0,0,1.592.792,2,2,0,0,0,1.572-.757,3.486,3.486,0,0,0,.647-2.309,3.914,3.914,0,0,0-.659-2.509,2.025,2.025,0,0,0-1.623-.8,1.955,1.955,0,0,0-1.572.769A3.792,3.792,0,0,0,158.379,363.442Z" transform="translate(-7.032 -4.836)"/><path class="cls-2" d="M165.8,365.113l1.4-.22a1.949,1.949,0,0,0,.655,1.286,2.279,2.279,0,0,0,1.5.447,2.206,2.206,0,0,0,1.443-.4,1.185,1.185,0,0,0,.47-0.929,0.858,0.858,0,0,0-.416-0.753,6.12,6.12,0,0,0-1.443-.478,13.152,13.152,0,0,1-2.152-.678,2.056,2.056,0,0,1-1.219-1.909,2.145,2.145,0,0,1,.255-1.031,2.286,2.286,0,0,1,.694-0.788,2.91,2.91,0,0,1,.9-0.412,4.27,4.27,0,0,1,1.219-.168,4.815,4.815,0,0,1,1.721.282,2.337,2.337,0,0,1,1.094.765,2.985,2.985,0,0,1,.486,1.29l-1.38.188a1.509,1.509,0,0,0-.545-1,1.993,1.993,0,0,0-1.274-.361,2.305,2.305,0,0,0-1.388.322,0.935,0.935,0,0,0-.416.752,0.778,0.778,0,0,0,.172.494,1.24,1.24,0,0,0,.541.376q0.212,0.078,1.247.36a17.461,17.461,0,0,1,2.09.655,2.123,2.123,0,0,1,.929.741,2.07,2.07,0,0,1,.337,1.208,2.37,2.37,0,0,1-.412,1.329,2.661,2.661,0,0,1-1.188.964,4.322,4.322,0,0,1-1.756.341,3.911,3.911,0,0,1-2.474-.674A3.133,3.133,0,0,1,165.8,365.113Z" transform="translate(-7.032 -4.836)"/><path class="cls-2" d="M265.063,345.317l1.482-.125a2.658,2.658,0,0,0,.765,1.627,2.075,2.075,0,0,0,1.446.545,2.253,2.253,0,0,0,1.725-.769,2.9,2.9,0,0,0,.706-2.039,2.618,2.618,0,0,0-.678-1.905,2.364,2.364,0,0,0-1.776-.7,2.46,2.46,0,0,0-1.231.31,2.389,2.389,0,0,0-.862.8l-1.325-.172,1.113-5.9h5.716v1.349h-4.587l-0.619,3.089a3.741,3.741,0,0,1,2.172-.722,3.441,3.441,0,0,1,2.541,1.043,3.646,3.646,0,0,1,1.035,2.682,4.185,4.185,0,0,1-.91,2.7,3.644,3.644,0,0,1-3.019,1.4,3.719,3.719,0,0,1-2.56-.878A3.428,3.428,0,0,1,265.063,345.317Z" transform="translate(-7.032 -4.836)"/><path class="cls-2" d="M273.837,344.878v-1.419h4.336v1.419h-4.336Z" transform="translate(-7.032 -4.836)"/><path class="cls-2" d="M283.152,348.328v-4.869l-4.43-6.625h1.851l2.266,3.465q0.627,0.973,1.168,1.945,0.517-.9,1.254-2.031l2.227-3.379h1.772l-4.587,6.625v4.869h-1.521Z" transform="translate(-7.032 -4.836)"/><path class="cls-2" d="M294.67,345.646l1.458,0.18a3.558,3.558,0,0,1-1.278,1.984,4.331,4.331,0,0,1-5.281-.419,4.4,4.4,0,0,1-1.07-3.156,4.6,4.6,0,0,1,1.082-3.262,3.664,3.664,0,0,1,2.807-1.16,3.561,3.561,0,0,1,2.729,1.137,4.518,4.518,0,0,1,1.058,3.2q0,0.125-.008.376h-6.21a3.2,3.2,0,0,0,.776,2.1,2.31,2.31,0,0,0,1.741.729,2.159,2.159,0,0,0,1.325-.408A2.708,2.708,0,0,0,294.67,345.646Zm-4.634-2.282h4.649a2.82,2.82,0,0,0-.533-1.576,2.163,2.163,0,0,0-1.749-.815,2.244,2.244,0,0,0-1.635.651A2.575,2.575,0,0,0,290.036,343.364Z" transform="translate(-7.032 -4.836)"/><path class="cls-2" d="M303.334,347.3a5.245,5.245,0,0,1-1.509.941,4.358,4.358,0,0,1-1.557.274,3.025,3.025,0,0,1-2.109-.67,2.211,2.211,0,0,1-.737-1.713,2.281,2.281,0,0,1,.278-1.118,2.307,2.307,0,0,1,.729-0.812,3.433,3.433,0,0,1,1.015-.462,10.152,10.152,0,0,1,1.255-.212,12.9,12.9,0,0,0,2.517-.486q0.008-.29.008-0.369a1.558,1.558,0,0,0-.4-1.215,2.362,2.362,0,0,0-1.607-.479,2.492,2.492,0,0,0-1.47.349,2.133,2.133,0,0,0-.7,1.235l-1.38-.188a3.419,3.419,0,0,1,.62-1.431,2.709,2.709,0,0,1,1.247-.839,5.553,5.553,0,0,1,1.89-.294,5,5,0,0,1,1.733.251,2.28,2.28,0,0,1,.98.631,2.222,2.222,0,0,1,.439.96,7.905,7.905,0,0,1,.071,1.3v1.882a19.877,19.877,0,0,0,.09,2.49,3.137,3.137,0,0,0,.356,1h-1.474A2.993,2.993,0,0,1,303.334,347.3Zm-0.118-3.152a10.368,10.368,0,0,1-2.305.533,5.326,5.326,0,0,0-1.231.282,1.226,1.226,0,0,0-.557.458,1.247,1.247,0,0,0,.231,1.611,1.838,1.838,0,0,0,1.25.376,2.912,2.912,0,0,0,1.451-.356,2.2,2.2,0,0,0,.933-0.977,3.413,3.413,0,0,0,.227-1.411v-0.518Z" transform="translate(-7.032 -4.836)"/><path class="cls-2" d="M306.816,348.328V340h1.27v1.263a3.444,3.444,0,0,1,.9-1.168,1.565,1.565,0,0,1,.906-0.282,2.751,2.751,0,0,1,1.45.455l-0.486,1.31a2.017,2.017,0,0,0-1.035-.306,1.343,1.343,0,0,0-.831.278,1.508,1.508,0,0,0-.525.772,5.5,5.5,0,0,0-.235,1.647v4.359h-1.411Z" transform="translate(-7.032 -4.836)"/><path class="cls-2" d="M261.773,367.6V356.1h4.336a10.523,10.523,0,0,1,1.749.109,3.47,3.47,0,0,1,1.419.537,2.826,2.826,0,0,1,.921,1.11,3.742,3.742,0,0,1-.584,4.05,4.476,4.476,0,0,1-3.372,1.015h-2.948V367.6h-1.521Zm1.521-6.03h2.972a3.15,3.15,0,0,0,2.093-.549,1.955,1.955,0,0,0,.62-1.544,2.079,2.079,0,0,0-.365-1.235,1.706,1.706,0,0,0-.96-0.678,6.516,6.516,0,0,0-1.419-.1h-2.94v4.108Z" transform="translate(-7.032 -4.836)"/><path class="cls-2" d="M278,364.916l1.458,0.18a3.558,3.558,0,0,1-1.278,1.984,4.331,4.331,0,0,1-5.281-.419,4.4,4.4,0,0,1-1.07-3.156,4.6,4.6,0,0,1,1.082-3.262,3.664,3.664,0,0,1,2.807-1.16,3.561,3.561,0,0,1,2.729,1.137,4.518,4.518,0,0,1,1.058,3.2q0,0.125-.008.376h-6.21a3.2,3.2,0,0,0,.776,2.1,2.31,2.31,0,0,0,1.741.729,2.159,2.159,0,0,0,1.325-.408A2.708,2.708,0,0,0,278,364.916Zm-4.634-2.282h4.649a2.82,2.82,0,0,0-.533-1.576,2.163,2.163,0,0,0-1.749-.815,2.244,2.244,0,0,0-1.635.651A2.575,2.575,0,0,0,273.37,362.634Z" transform="translate(-7.032 -4.836)"/><path class="cls-2" d="M281.219,367.6v-8.327h1.27v1.263a3.444,3.444,0,0,1,.9-1.168,1.565,1.565,0,0,1,.906-0.282,2.751,2.751,0,0,1,1.45.455l-0.486,1.31a2.017,2.017,0,0,0-1.035-.306,1.343,1.343,0,0,0-.831.278,1.508,1.508,0,0,0-.525.772,5.5,5.5,0,0,0-.235,1.647V367.6h-1.411Z" transform="translate(-7.032 -4.836)"/><path class="cls-2" d="M286.59,357.726V356.1H288v1.623H286.59Zm0,9.872v-8.327H288V367.6H286.59Z" transform="translate(-7.032 -4.836)"/><path class="cls-2" d="M289.625,363.434a4.291,4.291,0,0,1,1.286-3.426,3.874,3.874,0,0,1,2.619-.925,3.737,3.737,0,0,1,2.807,1.125,4.281,4.281,0,0,1,1.09,3.109,5.5,5.5,0,0,1-.482,2.529,3.412,3.412,0,0,1-1.4,1.431,4.091,4.091,0,0,1-2.011.509,3.743,3.743,0,0,1-2.827-1.121A4.479,4.479,0,0,1,289.625,363.434Zm1.451,0a3.547,3.547,0,0,0,.7,2.4,2.323,2.323,0,0,0,3.5,0,3.631,3.631,0,0,0,.7-2.438,3.442,3.442,0,0,0-.7-2.341,2.327,2.327,0,0,0-3.5,0A3.531,3.531,0,0,0,291.075,363.434Z" transform="translate(-7.032 -4.836)"/><path class="cls-2" d="M304.483,367.6v-1.051a2.589,2.589,0,0,1-2.329,1.239,3.263,3.263,0,0,1-1.831-.549,3.61,3.61,0,0,1-1.294-1.533,5.3,5.3,0,0,1-.458-2.262,5.926,5.926,0,0,1,.416-2.262,3.277,3.277,0,0,1,1.247-1.556,3.333,3.333,0,0,1,1.858-.541,2.776,2.776,0,0,1,2.3,1.145V356.1h1.4V367.6h-1.31Zm-4.461-4.156a3.616,3.616,0,0,0,.674,2.392,2.033,2.033,0,0,0,1.592.792,2,2,0,0,0,1.572-.757,3.486,3.486,0,0,0,.647-2.309,3.914,3.914,0,0,0-.659-2.509,2.025,2.025,0,0,0-1.623-.8,1.955,1.955,0,0,0-1.572.769A3.792,3.792,0,0,0,300.022,363.442Z" transform="translate(-7.032 -4.836)"/><path class="cls-2" d="M307.447,365.113l1.4-.22a1.949,1.949,0,0,0,.655,1.286,2.279,2.279,0,0,0,1.5.447,2.206,2.206,0,0,0,1.443-.4,1.185,1.185,0,0,0,.47-0.929,0.858,0.858,0,0,0-.416-0.753,6.12,6.12,0,0,0-1.443-.478,13.152,13.152,0,0,1-2.152-.678,2.056,2.056,0,0,1-1.219-1.909,2.145,2.145,0,0,1,.255-1.031,2.286,2.286,0,0,1,.694-0.788,2.91,2.91,0,0,1,.9-0.412,4.27,4.27,0,0,1,1.219-.168,4.815,4.815,0,0,1,1.721.282,2.337,2.337,0,0,1,1.094.765,2.985,2.985,0,0,1,.486,1.29l-1.38.188a1.509,1.509,0,0,0-.545-1,1.993,1.993,0,0,0-1.274-.361,2.305,2.305,0,0,0-1.388.322,0.935,0.935,0,0,0-.416.752,0.778,0.778,0,0,0,.172.494,1.24,1.24,0,0,0,.541.376q0.212,0.078,1.247.36a17.461,17.461,0,0,1,2.09.655,2.123,2.123,0,0,1,.929.741,2.07,2.07,0,0,1,.337,1.208,2.37,2.37,0,0,1-.412,1.329,2.661,2.661,0,0,1-1.188.964,4.322,4.322,0,0,1-1.756.341,3.911,3.911,0,0,1-2.474-.674A3.133,3.133,0,0,1,307.447,365.113Z" transform="translate(-7.032 -4.836)"/><path class="cls-2" d="M402.108,348.328H400.7v-8.994a7.265,7.265,0,0,1-1.337.972,9.474,9.474,0,0,1-1.486.729v-1.364a8.517,8.517,0,0,0,2.07-1.349,5.31,5.31,0,0,0,1.255-1.537h0.909v11.542Z" transform="translate(-7.032 -4.836)"/><path class="cls-2" d="M405.722,342.659a10.526,10.526,0,0,1,.42-3.281,4.079,4.079,0,0,1,1.247-1.917,3.187,3.187,0,0,1,2.081-.674,3.4,3.4,0,0,1,1.623.373,3.107,3.107,0,0,1,1.153,1.074,5.756,5.756,0,0,1,.713,1.709,11.335,11.335,0,0,1,.259,2.717,10.57,10.57,0,0,1-.415,3.266,4.08,4.08,0,0,1-1.243,1.921,3.185,3.185,0,0,1-2.09.678,3.153,3.153,0,0,1-2.61-1.191A7.577,7.577,0,0,1,405.722,342.659Zm1.451,0a7.211,7.211,0,0,0,.662,3.768,1.893,1.893,0,0,0,3.27,0,11.035,11.035,0,0,0,0-7.535,1.965,1.965,0,0,0-1.65-.933,1.808,1.808,0,0,0-1.552.823A7.288,7.288,0,0,0,407.174,342.659Z" transform="translate(-7.032 -4.836)"/><path class="cls-2" d="M414.5,344.878v-1.419h4.336v1.419H414.5Z" transform="translate(-7.032 -4.836)"/><path class="cls-2" d="M423.812,348.328v-4.869l-4.431-6.625h1.851L423.5,340.3q0.628,0.973,1.169,1.945,0.517-.9,1.254-2.031l2.228-3.379h1.771l-4.587,6.625v4.869h-1.521Z" transform="translate(-7.032 -4.836)"/><path class="cls-2" d="M435.331,345.646l1.459,0.18a3.559,3.559,0,0,1-1.278,1.984,4.331,4.331,0,0,1-5.281-.419,4.4,4.4,0,0,1-1.07-3.156,4.606,4.606,0,0,1,1.082-3.262,3.664,3.664,0,0,1,2.808-1.16,3.561,3.561,0,0,1,2.729,1.137,4.521,4.521,0,0,1,1.059,3.2c0,0.083,0,.209-0.008.376h-6.21a3.2,3.2,0,0,0,.775,2.1,2.312,2.312,0,0,0,1.741.729,2.159,2.159,0,0,0,1.325-.408A2.708,2.708,0,0,0,435.331,345.646Zm-4.634-2.282h4.649a2.82,2.82,0,0,0-.533-1.576,2.163,2.163,0,0,0-1.748-.815,2.242,2.242,0,0,0-1.635.651A2.573,2.573,0,0,0,430.7,343.364Z" transform="translate(-7.032 -4.836)"/><path class="cls-2" d="M443.995,347.3a5.244,5.244,0,0,1-1.509.941,4.364,4.364,0,0,1-1.557.274,3.026,3.026,0,0,1-2.109-.67,2.212,2.212,0,0,1-.737-1.713,2.281,2.281,0,0,1,.278-1.118,2.307,2.307,0,0,1,.729-0.812,3.43,3.43,0,0,1,1.016-.462,10.1,10.1,0,0,1,1.254-.212,12.924,12.924,0,0,0,2.518-.486c0-.193.008-0.316,0.008-0.369a1.558,1.558,0,0,0-.4-1.215,2.362,2.362,0,0,0-1.607-.479,2.492,2.492,0,0,0-1.47.349,2.13,2.13,0,0,0-.7,1.235l-1.38-.188a3.431,3.431,0,0,1,.619-1.431,2.716,2.716,0,0,1,1.247-.839,5.557,5.557,0,0,1,1.89-.294,4.994,4.994,0,0,1,1.732.251,2.282,2.282,0,0,1,.98.631,2.228,2.228,0,0,1,.439.96,7.978,7.978,0,0,1,.07,1.3v1.882a20.121,20.121,0,0,0,.09,2.49,3.151,3.151,0,0,0,.357,1h-1.475A2.993,2.993,0,0,1,443.995,347.3Zm-0.117-3.152a10.38,10.38,0,0,1-2.306.533,5.321,5.321,0,0,0-1.23.282,1.226,1.226,0,0,0-.558.458,1.25,1.25,0,0,0,.231,1.611,1.84,1.84,0,0,0,1.251.376,2.907,2.907,0,0,0,1.45-.356,2.2,2.2,0,0,0,.934-0.977,3.411,3.411,0,0,0,.228-1.411v-0.518Z" transform="translate(-7.032 -4.836)"/><path class="cls-2" d="M447.476,348.328V340h1.271v1.263a3.432,3.432,0,0,1,.9-1.168,1.564,1.564,0,0,1,.905-0.282,2.757,2.757,0,0,1,1.451.455l-0.486,1.31a2.017,2.017,0,0,0-1.035-.306,1.342,1.342,0,0,0-.831.278,1.5,1.5,0,0,0-.525.772,5.486,5.486,0,0,0-.235,1.647v4.359h-1.411Z" transform="translate(-7.032 -4.836)"/><path class="cls-2" d="M397.969,367.6V356.1H402.3a10.521,10.521,0,0,1,1.748.109,3.465,3.465,0,0,1,1.419.537,2.819,2.819,0,0,1,.922,1.11,3.743,3.743,0,0,1-.584,4.05,4.477,4.477,0,0,1-3.372,1.015h-2.948V367.6h-1.521Zm1.521-6.03h2.972a3.15,3.15,0,0,0,2.094-.549,1.955,1.955,0,0,0,.619-1.544,2.079,2.079,0,0,0-.364-1.235,1.706,1.706,0,0,0-.961-0.678,6.5,6.5,0,0,0-1.419-.1h-2.94v4.108Z" transform="translate(-7.032 -4.836)"/><path class="cls-2" d="M414.2,364.916l1.459,0.18a3.559,3.559,0,0,1-1.278,1.984,4.331,4.331,0,0,1-5.281-.419,4.4,4.4,0,0,1-1.07-3.156,4.606,4.606,0,0,1,1.082-3.262,3.664,3.664,0,0,1,2.808-1.16,3.561,3.561,0,0,1,2.729,1.137,4.521,4.521,0,0,1,1.059,3.2c0,0.083,0,.209-0.008.376h-6.21a3.2,3.2,0,0,0,.775,2.1,2.312,2.312,0,0,0,1.741.729,2.159,2.159,0,0,0,1.325-.408A2.708,2.708,0,0,0,414.2,364.916Zm-4.634-2.282h4.649a2.82,2.82,0,0,0-.533-1.576,2.163,2.163,0,0,0-1.748-.815,2.242,2.242,0,0,0-1.635.651A2.573,2.573,0,0,0,409.565,362.634Z" transform="translate(-7.032 -4.836)"/><path class="cls-2" d="M417.414,367.6v-8.327h1.271v1.263a3.432,3.432,0,0,1,.9-1.168,1.564,1.564,0,0,1,.905-0.282,2.757,2.757,0,0,1,1.451.455l-0.486,1.31a2.017,2.017,0,0,0-1.035-.306,1.342,1.342,0,0,0-.831.278,1.5,1.5,0,0,0-.525.772,5.486,5.486,0,0,0-.235,1.647V367.6h-1.411Z" transform="translate(-7.032 -4.836)"/><path class="cls-2" d="M422.785,357.726V356.1H424.2v1.623h-1.411Zm0,9.872v-8.327H424.2V367.6h-1.411Z" transform="translate(-7.032 -4.836)"/><path class="cls-2" d="M425.819,363.434a4.291,4.291,0,0,1,1.286-3.426,3.874,3.874,0,0,1,2.618-.925,3.736,3.736,0,0,1,2.808,1.125,4.281,4.281,0,0,1,1.09,3.109,5.511,5.511,0,0,1-.482,2.529,3.412,3.412,0,0,1-1.4,1.431,4.093,4.093,0,0,1-2.012.509,3.743,3.743,0,0,1-2.826-1.121A4.479,4.479,0,0,1,425.819,363.434Zm1.45,0a3.544,3.544,0,0,0,.7,2.4,2.323,2.323,0,0,0,3.5,0,3.633,3.633,0,0,0,.7-2.438,3.442,3.442,0,0,0-.7-2.341,2.327,2.327,0,0,0-3.5,0A3.529,3.529,0,0,0,427.269,363.434Z" transform="translate(-7.032 -4.836)"/><path class="cls-2" d="M440.678,367.6v-1.051a2.59,2.59,0,0,1-2.329,1.239,3.262,3.262,0,0,1-1.83-.549,3.6,3.6,0,0,1-1.294-1.533,5.3,5.3,0,0,1-.459-2.262,5.917,5.917,0,0,1,.416-2.262,3.273,3.273,0,0,1,1.246-1.556,3.334,3.334,0,0,1,1.858-.541,2.778,2.778,0,0,1,2.3,1.145V356.1h1.4V367.6h-1.31Zm-4.462-4.156a3.618,3.618,0,0,0,.675,2.392,2.034,2.034,0,0,0,1.592.792,2,2,0,0,0,1.572-.757,3.491,3.491,0,0,0,.646-2.309,3.92,3.92,0,0,0-.658-2.509,2.027,2.027,0,0,0-1.623-.8,1.955,1.955,0,0,0-1.572.769A3.791,3.791,0,0,0,436.216,363.442Z" transform="translate(-7.032 -4.836)"/><path class="cls-2" d="M443.641,365.113l1.4-.22a1.95,1.95,0,0,0,.654,1.286,2.282,2.282,0,0,0,1.5.447,2.2,2.2,0,0,0,1.442-.4,1.182,1.182,0,0,0,.471-0.929,0.859,0.859,0,0,0-.415-0.753,6.144,6.144,0,0,0-1.443-.478,13.152,13.152,0,0,1-2.152-.678,2.054,2.054,0,0,1-1.219-1.909,2.145,2.145,0,0,1,.255-1.031,2.279,2.279,0,0,1,.693-0.788,2.9,2.9,0,0,1,.9-0.412,4.27,4.27,0,0,1,1.219-.168,4.808,4.808,0,0,1,1.721.282,2.34,2.34,0,0,1,1.095.765,3,3,0,0,1,.485,1.29l-1.38.188a1.509,1.509,0,0,0-.545-1,1.994,1.994,0,0,0-1.274-.361,2.308,2.308,0,0,0-1.388.322,0.937,0.937,0,0,0-.415.752,0.783,0.783,0,0,0,.172.494,1.246,1.246,0,0,0,.541.376q0.212,0.078,1.247.36a17.461,17.461,0,0,1,2.09.655,2.118,2.118,0,0,1,.929.741,2.07,2.07,0,0,1,.338,1.208,2.371,2.371,0,0,1-.412,1.329,2.665,2.665,0,0,1-1.187.964,4.324,4.324,0,0,1-1.757.341,3.912,3.912,0,0,1-2.474-.674A3.131,3.131,0,0,1,443.641,365.113Z" transform="translate(-7.032 -4.836)"/><path class="cls-2" d="M538.783,346.971v1.356h-7.6a2.492,2.492,0,0,1,.164-0.98,5.193,5.193,0,0,1,.93-1.529,14.527,14.527,0,0,1,1.847-1.741,15.665,15.665,0,0,0,2.532-2.435,2.912,2.912,0,0,0,.659-1.7,1.885,1.885,0,0,0-.6-1.416,2.161,2.161,0,0,0-1.563-.576,2.207,2.207,0,0,0-1.632.611,2.316,2.316,0,0,0-.619,1.694l-1.45-.149a3.566,3.566,0,0,1,1.121-2.474,3.825,3.825,0,0,1,2.611-.851,3.643,3.643,0,0,1,2.618.917,3.011,3.011,0,0,1,.965,2.274,3.444,3.444,0,0,1-.282,1.356,5.27,5.27,0,0,1-.937,1.4,22.726,22.726,0,0,1-2.176,2.023q-1.27,1.066-1.631,1.446a4.7,4.7,0,0,0-.6.765h5.638Z" transform="translate(-7.032 -4.836)"/><path class="cls-2" d="M540.3,342.659a10.526,10.526,0,0,1,.42-3.281,4.079,4.079,0,0,1,1.247-1.917,3.187,3.187,0,0,1,2.081-.674,3.4,3.4,0,0,1,1.623.373,3.107,3.107,0,0,1,1.153,1.074,5.756,5.756,0,0,1,.713,1.709,11.335,11.335,0,0,1,.259,2.717,10.57,10.57,0,0,1-.415,3.266,4.08,4.08,0,0,1-1.243,1.921,3.185,3.185,0,0,1-2.09.678,3.153,3.153,0,0,1-2.61-1.191A7.577,7.577,0,0,1,540.3,342.659Zm1.451,0a7.211,7.211,0,0,0,.662,3.768,1.893,1.893,0,0,0,3.27,0,11.035,11.035,0,0,0,0-7.535,1.965,1.965,0,0,0-1.65-.933,1.808,1.808,0,0,0-1.552.823A7.288,7.288,0,0,0,541.747,342.659Z" transform="translate(-7.032 -4.836)"/><path class="cls-2" d="M549.07,344.878v-1.419h4.336v1.419H549.07Z" transform="translate(-7.032 -4.836)"/><path class="cls-2" d="M558.386,348.328v-4.869l-4.431-6.625h1.851l2.266,3.465q0.628,0.973,1.169,1.945,0.517-.9,1.254-2.031l2.228-3.379h1.771l-4.587,6.625v4.869h-1.521Z" transform="translate(-7.032 -4.836)"/><path class="cls-2" d="M569.9,345.646l1.459,0.18a3.559,3.559,0,0,1-1.278,1.984,4.331,4.331,0,0,1-5.281-.419,4.4,4.4,0,0,1-1.07-3.156,4.606,4.606,0,0,1,1.082-3.262,3.664,3.664,0,0,1,2.808-1.16,3.561,3.561,0,0,1,2.729,1.137,4.521,4.521,0,0,1,1.059,3.2c0,0.083,0,.209-0.008.376h-6.21a3.2,3.2,0,0,0,.775,2.1,2.312,2.312,0,0,0,1.741.729,2.159,2.159,0,0,0,1.325-.408A2.708,2.708,0,0,0,569.9,345.646Zm-4.634-2.282h4.649a2.82,2.82,0,0,0-.533-1.576,2.163,2.163,0,0,0-1.748-.815,2.242,2.242,0,0,0-1.635.651A2.573,2.573,0,0,0,565.27,343.364Z" transform="translate(-7.032 -4.836)"/><path class="cls-2" d="M578.568,347.3a5.244,5.244,0,0,1-1.509.941,4.364,4.364,0,0,1-1.557.274,3.026,3.026,0,0,1-2.109-.67,2.212,2.212,0,0,1-.737-1.713,2.281,2.281,0,0,1,.278-1.118,2.307,2.307,0,0,1,.729-0.812,3.43,3.43,0,0,1,1.016-.462,10.1,10.1,0,0,1,1.254-.212,12.924,12.924,0,0,0,2.518-.486c0-.193.008-0.316,0.008-0.369a1.558,1.558,0,0,0-.4-1.215,2.362,2.362,0,0,0-1.607-.479,2.492,2.492,0,0,0-1.47.349,2.13,2.13,0,0,0-.7,1.235l-1.38-.188a3.431,3.431,0,0,1,.619-1.431,2.716,2.716,0,0,1,1.247-.839,5.557,5.557,0,0,1,1.89-.294,4.994,4.994,0,0,1,1.732.251,2.282,2.282,0,0,1,.98.631,2.228,2.228,0,0,1,.439.96,7.978,7.978,0,0,1,.07,1.3v1.882a20.121,20.121,0,0,0,.09,2.49,3.151,3.151,0,0,0,.357,1H578.85A2.993,2.993,0,0,1,578.568,347.3Zm-0.117-3.152a10.38,10.38,0,0,1-2.306.533,5.321,5.321,0,0,0-1.23.282,1.226,1.226,0,0,0-.558.458,1.25,1.25,0,0,0,.231,1.611,1.84,1.84,0,0,0,1.251.376,2.907,2.907,0,0,0,1.45-.356,2.2,2.2,0,0,0,.934-0.977,3.411,3.411,0,0,0,.228-1.411v-0.518Z" transform="translate(-7.032 -4.836)"/><path class="cls-2" d="M582.05,348.328V340h1.271v1.263a3.432,3.432,0,0,1,.9-1.168,1.564,1.564,0,0,1,.905-0.282,2.757,2.757,0,0,1,1.451.455l-0.486,1.31a2.017,2.017,0,0,0-1.035-.306,1.342,1.342,0,0,0-.831.278,1.5,1.5,0,0,0-.525.772,5.486,5.486,0,0,0-.235,1.647v4.359H582.05Z" transform="translate(-7.032 -4.836)"/><path class="cls-2" d="M532.542,367.6V356.1h4.336a10.521,10.521,0,0,1,1.748.109,3.465,3.465,0,0,1,1.419.537,2.819,2.819,0,0,1,.922,1.11,3.743,3.743,0,0,1-.584,4.05,4.477,4.477,0,0,1-3.372,1.015h-2.948V367.6h-1.521Zm1.521-6.03h2.972a3.15,3.15,0,0,0,2.094-.549,1.955,1.955,0,0,0,.619-1.544,2.079,2.079,0,0,0-.364-1.235,1.706,1.706,0,0,0-.961-0.678,6.5,6.5,0,0,0-1.419-.1h-2.94v4.108Z" transform="translate(-7.032 -4.836)"/><path class="cls-2" d="M548.772,364.916l1.459,0.18a3.559,3.559,0,0,1-1.278,1.984,4.331,4.331,0,0,1-5.281-.419,4.4,4.4,0,0,1-1.07-3.156,4.606,4.606,0,0,1,1.082-3.262,3.664,3.664,0,0,1,2.808-1.16,3.561,3.561,0,0,1,2.729,1.137,4.521,4.521,0,0,1,1.059,3.2c0,0.083,0,.209-0.008.376h-6.21a3.2,3.2,0,0,0,.775,2.1,2.312,2.312,0,0,0,1.741.729,2.159,2.159,0,0,0,1.325-.408A2.708,2.708,0,0,0,548.772,364.916Zm-4.634-2.282h4.649a2.82,2.82,0,0,0-.533-1.576,2.163,2.163,0,0,0-1.748-.815,2.242,2.242,0,0,0-1.635.651A2.573,2.573,0,0,0,544.138,362.634Z" transform="translate(-7.032 -4.836)"/><path class="cls-2" d="M551.987,367.6v-8.327h1.271v1.263a3.432,3.432,0,0,1,.9-1.168,1.564,1.564,0,0,1,.905-0.282,2.757,2.757,0,0,1,1.451.455l-0.486,1.31a2.017,2.017,0,0,0-1.035-.306,1.342,1.342,0,0,0-.831.278,1.5,1.5,0,0,0-.525.772,5.486,5.486,0,0,0-.235,1.647V367.6h-1.411Z" transform="translate(-7.032 -4.836)"/><path class="cls-2" d="M557.358,357.726V356.1h1.411v1.623h-1.411Zm0,9.872v-8.327h1.411V367.6h-1.411Z" transform="translate(-7.032 -4.836)"/><path class="cls-2" d="M560.392,363.434a4.291,4.291,0,0,1,1.286-3.426,3.874,3.874,0,0,1,2.618-.925,3.736,3.736,0,0,1,2.808,1.125,4.281,4.281,0,0,1,1.09,3.109,5.511,5.511,0,0,1-.482,2.529,3.412,3.412,0,0,1-1.4,1.431,4.093,4.093,0,0,1-2.012.509,3.743,3.743,0,0,1-2.826-1.121A4.479,4.479,0,0,1,560.392,363.434Zm1.45,0a3.544,3.544,0,0,0,.7,2.4,2.323,2.323,0,0,0,3.5,0,3.633,3.633,0,0,0,.7-2.438,3.442,3.442,0,0,0-.7-2.341,2.327,2.327,0,0,0-3.5,0A3.529,3.529,0,0,0,561.843,363.434Z" transform="translate(-7.032 -4.836)"/><path class="cls-2" d="M575.251,367.6v-1.051a2.59,2.59,0,0,1-2.329,1.239,3.262,3.262,0,0,1-1.83-.549A3.6,3.6,0,0,1,569.8,365.7a5.3,5.3,0,0,1-.459-2.262,5.917,5.917,0,0,1,.416-2.262A3.273,3.273,0,0,1,571,359.624a3.334,3.334,0,0,1,1.858-.541,2.778,2.778,0,0,1,2.3,1.145V356.1h1.4V367.6h-1.31Zm-4.462-4.156a3.618,3.618,0,0,0,.675,2.392,2.034,2.034,0,0,0,1.592.792,2,2,0,0,0,1.572-.757,3.491,3.491,0,0,0,.646-2.309,3.92,3.92,0,0,0-.658-2.509,2.027,2.027,0,0,0-1.623-.8,1.955,1.955,0,0,0-1.572.769A3.791,3.791,0,0,0,570.789,363.442Z" transform="translate(-7.032 -4.836)"/><path class="cls-2" d="M578.215,365.113l1.4-.22a1.95,1.95,0,0,0,.654,1.286,2.282,2.282,0,0,0,1.5.447,2.2,2.2,0,0,0,1.442-.4,1.182,1.182,0,0,0,.471-0.929,0.859,0.859,0,0,0-.415-0.753,6.144,6.144,0,0,0-1.443-.478,13.152,13.152,0,0,1-2.152-.678,2.054,2.054,0,0,1-1.219-1.909,2.145,2.145,0,0,1,.255-1.031,2.279,2.279,0,0,1,.693-0.788,2.9,2.9,0,0,1,.9-0.412,4.27,4.27,0,0,1,1.219-.168,4.808,4.808,0,0,1,1.721.282,2.34,2.34,0,0,1,1.095.765,3,3,0,0,1,.485,1.29l-1.38.188a1.509,1.509,0,0,0-.545-1,1.994,1.994,0,0,0-1.274-.361,2.308,2.308,0,0,0-1.388.322,0.937,0.937,0,0,0-.415.752,0.783,0.783,0,0,0,.172.494,1.246,1.246,0,0,0,.541.376q0.212,0.078,1.247.36a17.461,17.461,0,0,1,2.09.655,2.118,2.118,0,0,1,.929.741,2.07,2.07,0,0,1,.338,1.208,2.371,2.371,0,0,1-.412,1.329,2.665,2.665,0,0,1-1.187.964,4.324,4.324,0,0,1-1.757.341,3.912,3.912,0,0,1-2.474-.674A3.131,3.131,0,0,1,578.215,365.113Z" transform="translate(-7.032 -4.836)"/><rect class="cls-3" x="102.945" y="173.818" width="72.279" height="114.007"/><rect class="cls-3" x="244.587" y="180.191" width="72.279" height="35.057"/><rect class="cls-3" x="380.782" y="188.172" width="72.279" height="9.141"/><rect class="cls-4" x="515.355" y="173.887" width="72.279" height="19.549"/><path class="cls-2" d="M25.839,145.394v1.356h-7.6a2.483,2.483,0,0,1,.165-0.98,5.181,5.181,0,0,1,.929-1.529,14.585,14.585,0,0,1,1.846-1.741,15.631,15.631,0,0,0,2.533-2.435,2.911,2.911,0,0,0,.659-1.7,1.886,1.886,0,0,0-.6-1.416,2.164,2.164,0,0,0-1.564-.576,2.2,2.2,0,0,0-1.631.611,2.316,2.316,0,0,0-.62,1.694l-1.45-.149a3.568,3.568,0,0,1,1.121-2.474,3.823,3.823,0,0,1,2.611-.851,3.645,3.645,0,0,1,2.619.917,3.012,3.012,0,0,1,.964,2.274,3.452,3.452,0,0,1-.282,1.356,5.267,5.267,0,0,1-.937,1.4,22.848,22.848,0,0,1-2.176,2.023q-1.271,1.066-1.631,1.446a4.653,4.653,0,0,0-.6.765h5.638Z" transform="translate(-7.032 -4.836)"/><path class="cls-2" d="M27.352,141.081a10.513,10.513,0,0,1,.419-3.281,4.086,4.086,0,0,1,1.247-1.917,3.19,3.19,0,0,1,2.082-.674,3.4,3.4,0,0,1,1.623.373,3.1,3.1,0,0,1,1.152,1.074,5.77,5.77,0,0,1,.714,1.709,11.36,11.36,0,0,1,.259,2.717,10.554,10.554,0,0,1-.416,3.266,4.08,4.08,0,0,1-1.243,1.921,3.5,3.5,0,0,1-4.7-.513A7.578,7.578,0,0,1,27.352,141.081Zm1.451,0a7.2,7.2,0,0,0,.663,3.768,1.893,1.893,0,0,0,3.27,0,11.043,11.043,0,0,0,0-7.535,1.966,1.966,0,0,0-1.65-.933,1.809,1.809,0,0,0-1.553.823A7.294,7.294,0,0,0,28.8,141.081Z" transform="translate(-7.032 -4.836)"/><path class="cls-2" d="M36.55,138.015a3.492,3.492,0,0,1,.62-2.093,2.072,2.072,0,0,1,1.8-.863,2.33,2.33,0,0,1,1.792.772,3.93,3.93,0,0,1-.008,4.516,2.3,2.3,0,0,1-1.768.788,2.234,2.234,0,0,1-1.737-.776A3.43,3.43,0,0,1,36.55,138.015ZM39,136.031a1.061,1.061,0,0,0-.874.455,2.878,2.878,0,0,0-.349,1.67,2.589,2.589,0,0,0,.353,1.557,1.074,1.074,0,0,0,1.752,0,2.866,2.866,0,0,0,.349-1.663,2.608,2.608,0,0,0-.353-1.564A1.075,1.075,0,0,0,39,136.031Zm0.008,11.142L45.3,135.059h1.145L40.18,147.174H39.011Zm4.971-3.121a3.491,3.491,0,0,1,.62-2.1,2.084,2.084,0,0,1,1.8-.858,2.328,2.328,0,0,1,1.792.772,3.928,3.928,0,0,1-.008,4.516,2.305,2.305,0,0,1-1.776.788,2.228,2.228,0,0,1-1.737-.78A3.431,3.431,0,0,1,43.983,144.053Zm2.462-1.984a1.068,1.068,0,0,0-.882.455,2.878,2.878,0,0,0-.349,1.67,2.591,2.591,0,0,0,.353,1.553,1.079,1.079,0,0,0,1.76,0,2.865,2.865,0,0,0,.349-1.663,2.6,2.6,0,0,0-.353-1.564A1.075,1.075,0,0,0,46.445,142.069Z" transform="translate(-7.032 -4.836)"/><path class="cls-2" d="M23.738,174.06H22.326v-8.994a7.282,7.282,0,0,1-1.337.972,9.492,9.492,0,0,1-1.486.729V165.4a8.532,8.532,0,0,0,2.07-1.349,5.31,5.31,0,0,0,1.255-1.537h0.909V174.06Z" transform="translate(-7.032 -4.836)"/><path class="cls-2" d="M27.352,168.391a10.513,10.513,0,0,1,.419-3.281,4.086,4.086,0,0,1,1.247-1.917,3.19,3.19,0,0,1,2.082-.674,3.4,3.4,0,0,1,1.623.373,3.1,3.1,0,0,1,1.152,1.074,5.77,5.77,0,0,1,.714,1.709,11.36,11.36,0,0,1,.259,2.717,10.554,10.554,0,0,1-.416,3.266,4.08,4.08,0,0,1-1.243,1.921,3.5,3.5,0,0,1-4.7-.513A7.578,7.578,0,0,1,27.352,168.391Zm1.451,0a7.2,7.2,0,0,0,.663,3.768,1.893,1.893,0,0,0,3.27,0,11.043,11.043,0,0,0,0-7.535,1.966,1.966,0,0,0-1.65-.933,1.809,1.809,0,0,0-1.553.823A7.294,7.294,0,0,0,28.8,168.391Z" transform="translate(-7.032 -4.836)"/><path class="cls-2" d="M36.55,165.325a3.492,3.492,0,0,1,.62-2.093,2.072,2.072,0,0,1,1.8-.863,2.33,2.33,0,0,1,1.792.772,3.93,3.93,0,0,1-.008,4.516,2.3,2.3,0,0,1-1.768.788,2.234,2.234,0,0,1-1.737-.776A3.43,3.43,0,0,1,36.55,165.325ZM39,163.341a1.061,1.061,0,0,0-.874.455,2.878,2.878,0,0,0-.349,1.67,2.589,2.589,0,0,0,.353,1.557,1.074,1.074,0,0,0,1.752,0,2.866,2.866,0,0,0,.349-1.663,2.608,2.608,0,0,0-.353-1.564A1.075,1.075,0,0,0,39,163.341Zm0.008,11.142L45.3,162.369h1.145L40.18,174.483H39.011Zm4.971-3.121a3.491,3.491,0,0,1,.62-2.1,2.084,2.084,0,0,1,1.8-.858,2.328,2.328,0,0,1,1.792.772,3.928,3.928,0,0,1-.008,4.516,2.305,2.305,0,0,1-1.776.788,2.228,2.228,0,0,1-1.737-.78A3.431,3.431,0,0,1,43.983,171.363Zm2.462-1.984a1.068,1.068,0,0,0-.882.455,2.878,2.878,0,0,0-.349,1.67,2.591,2.591,0,0,0,.353,1.553,1.079,1.079,0,0,0,1.76,0,2.865,2.865,0,0,0,.349-1.663,2.6,2.6,0,0,0-.353-1.564A1.075,1.075,0,0,0,46.445,169.379Z" transform="translate(-7.032 -4.836)"/><path class="cls-2" d="M12.918,224.817V223.4h4.336v1.419H12.918Z" transform="translate(-7.032 -4.836)"/><path class="cls-2" d="M23.738,228.267H22.327v-8.994a7.282,7.282,0,0,1-1.337.972,9.492,9.492,0,0,1-1.486.729v-1.364a8.532,8.532,0,0,0,2.07-1.349,5.31,5.31,0,0,0,1.255-1.537h0.909v11.542Z" transform="translate(-7.032 -4.836)"/><path class="cls-2" d="M27.353,222.6a10.513,10.513,0,0,1,.419-3.281,4.086,4.086,0,0,1,1.247-1.917,3.19,3.19,0,0,1,2.082-.674,3.4,3.4,0,0,1,1.623.373,3.1,3.1,0,0,1,1.152,1.074,5.77,5.77,0,0,1,.714,1.709,11.36,11.36,0,0,1,.259,2.717,10.554,10.554,0,0,1-.416,3.266,4.08,4.08,0,0,1-1.243,1.921,3.5,3.5,0,0,1-4.7-.513A7.578,7.578,0,0,1,27.353,222.6Zm1.451,0a7.2,7.2,0,0,0,.663,3.768,1.893,1.893,0,0,0,3.27,0,11.043,11.043,0,0,0,0-7.535,1.966,1.966,0,0,0-1.65-.933,1.809,1.809,0,0,0-1.553.823A7.294,7.294,0,0,0,28.8,222.6Z" transform="translate(-7.032 -4.836)"/><path class="cls-2" d="M36.55,219.532a3.492,3.492,0,0,1,.62-2.093,2.072,2.072,0,0,1,1.8-.863,2.33,2.33,0,0,1,1.792.772,3.93,3.93,0,0,1-.008,4.516,2.3,2.3,0,0,1-1.768.788,2.234,2.234,0,0,1-1.737-.776A3.43,3.43,0,0,1,36.55,219.532ZM39,217.549a1.061,1.061,0,0,0-.874.455,2.878,2.878,0,0,0-.349,1.67,2.589,2.589,0,0,0,.353,1.557,1.074,1.074,0,0,0,1.752,0,2.866,2.866,0,0,0,.349-1.663A2.608,2.608,0,0,0,39.883,218,1.075,1.075,0,0,0,39,217.549Zm0.008,11.142L45.3,216.576h1.145L40.18,228.691H39.012Zm4.971-3.121a3.491,3.491,0,0,1,.62-2.1,2.084,2.084,0,0,1,1.8-.858,2.328,2.328,0,0,1,1.792.772,3.928,3.928,0,0,1-.008,4.516,2.305,2.305,0,0,1-1.776.788,2.228,2.228,0,0,1-1.737-.78A3.431,3.431,0,0,1,43.983,225.57Zm2.462-1.984a1.068,1.068,0,0,0-.882.455,2.878,2.878,0,0,0-.349,1.67,2.591,2.591,0,0,0,.353,1.553,1.079,1.079,0,0,0,1.76,0,2.865,2.865,0,0,0,.349-1.663,2.6,2.6,0,0,0-.353-1.564A1.075,1.075,0,0,0,46.445,223.586Z" transform="translate(-7.032 -4.836)"/><path class="cls-2" d="M12.918,252.409V250.99h4.336v1.419H12.918Z" transform="translate(-7.032 -4.836)"/><path class="cls-2" d="M25.84,254.5v1.356h-7.6a2.483,2.483,0,0,1,.165-0.98,5.181,5.181,0,0,1,.929-1.529,14.585,14.585,0,0,1,1.846-1.741,15.631,15.631,0,0,0,2.533-2.435,2.911,2.911,0,0,0,.659-1.7,1.886,1.886,0,0,0-.6-1.416,2.164,2.164,0,0,0-1.564-.576,2.2,2.2,0,0,0-1.631.611,2.316,2.316,0,0,0-.62,1.694l-1.45-.149a3.568,3.568,0,0,1,1.121-2.474,3.823,3.823,0,0,1,2.611-.851,3.645,3.645,0,0,1,2.619.917,3.012,3.012,0,0,1,.964,2.274,3.452,3.452,0,0,1-.282,1.356,5.267,5.267,0,0,1-.937,1.4,22.848,22.848,0,0,1-2.176,2.023q-1.271,1.066-1.631,1.446a4.653,4.653,0,0,0-.6.765H25.84Z" transform="translate(-7.032 -4.836)"/><path class="cls-2" d="M27.353,250.19a10.513,10.513,0,0,1,.419-3.281,4.086,4.086,0,0,1,1.247-1.917,3.19,3.19,0,0,1,2.082-.674,3.4,3.4,0,0,1,1.623.373,3.1,3.1,0,0,1,1.152,1.074,5.77,5.77,0,0,1,.714,1.709,11.36,11.36,0,0,1,.259,2.717,10.554,10.554,0,0,1-.416,3.266,4.08,4.08,0,0,1-1.243,1.921,3.5,3.5,0,0,1-4.7-.513A7.578,7.578,0,0,1,27.353,250.19Zm1.451,0a7.2,7.2,0,0,0,.663,3.768,1.893,1.893,0,0,0,3.27,0,11.043,11.043,0,0,0,0-7.535,1.966,1.966,0,0,0-1.65-.933,1.809,1.809,0,0,0-1.553.823A7.294,7.294,0,0,0,28.8,250.19Z" transform="translate(-7.032 -4.836)"/><path class="cls-2" d="M36.55,247.124a3.492,3.492,0,0,1,.62-2.093,2.072,2.072,0,0,1,1.8-.863,2.33,2.33,0,0,1,1.792.772,3.93,3.93,0,0,1-.008,4.516,2.3,2.3,0,0,1-1.768.788,2.234,2.234,0,0,1-1.737-.776A3.43,3.43,0,0,1,36.55,247.124ZM39,245.14a1.061,1.061,0,0,0-.874.455,2.878,2.878,0,0,0-.349,1.67,2.589,2.589,0,0,0,.353,1.557,1.074,1.074,0,0,0,1.752,0,2.866,2.866,0,0,0,.349-1.663,2.608,2.608,0,0,0-.353-1.564A1.075,1.075,0,0,0,39,245.14Zm0.008,11.142L45.3,244.168h1.145L40.18,256.282H39.012Zm4.971-3.121a3.491,3.491,0,0,1,.62-2.1,2.084,2.084,0,0,1,1.8-.858,2.328,2.328,0,0,1,1.792.772,3.928,3.928,0,0,1-.008,4.516,2.305,2.305,0,0,1-1.776.788,2.228,2.228,0,0,1-1.737-.78A3.431,3.431,0,0,1,43.983,253.162Zm2.462-1.984a1.068,1.068,0,0,0-.882.455,2.878,2.878,0,0,0-.349,1.67,2.591,2.591,0,0,0,.353,1.553,1.079,1.079,0,0,0,1.76,0,2.865,2.865,0,0,0,.349-1.663,2.6,2.6,0,0,0-.353-1.564A1.075,1.075,0,0,0,46.445,251.178Z" transform="translate(-7.032 -4.836)"/><path class="cls-2" d="M12.918,281.836v-1.419h4.336v1.419H12.918Z" transform="translate(-7.032 -4.836)"/><path class="cls-2" d="M18.43,282.251l1.411-.188a3.109,3.109,0,0,0,.828,1.729,2.042,2.042,0,0,0,1.423.529,2.281,2.281,0,0,0,1.682-.69,2.33,2.33,0,0,0,.686-1.709,2.166,2.166,0,0,0-.635-1.6,2.2,2.2,0,0,0-1.615-.631,4.054,4.054,0,0,0-1,.157l0.157-1.239a2.082,2.082,0,0,0,.228.016,2.908,2.908,0,0,0,1.623-.47,1.611,1.611,0,0,0,.721-1.451,1.716,1.716,0,0,0-.525-1.286,1.866,1.866,0,0,0-1.356-.51,1.921,1.921,0,0,0-1.372.518,2.6,2.6,0,0,0-.706,1.552l-1.412-.251a3.626,3.626,0,0,1,1.176-2.2,3.4,3.4,0,0,1,2.282-.78,3.763,3.763,0,0,1,1.733.4,2.927,2.927,0,0,1,1.211,1.1,2.834,2.834,0,0,1,.419,1.482,2.427,2.427,0,0,1-.4,1.357,2.734,2.734,0,0,1-1.184.972,2.666,2.666,0,0,1,1.584.976,2.971,2.971,0,0,1,.564,1.854,3.394,3.394,0,0,1-1.1,2.552,3.862,3.862,0,0,1-2.776,1.047,3.612,3.612,0,0,1-2.513-.9A3.489,3.489,0,0,1,18.43,282.251Z" transform="translate(-7.032 -4.836)"/><path class="cls-2" d="M27.353,279.617a10.513,10.513,0,0,1,.419-3.281,4.086,4.086,0,0,1,1.247-1.917,3.19,3.19,0,0,1,2.082-.674,3.4,3.4,0,0,1,1.623.373,3.1,3.1,0,0,1,1.152,1.074,5.77,5.77,0,0,1,.714,1.709,11.36,11.36,0,0,1,.259,2.717,10.554,10.554,0,0,1-.416,3.266A4.08,4.08,0,0,1,33.19,284.8a3.5,3.5,0,0,1-4.7-.513A7.578,7.578,0,0,1,27.353,279.617Zm1.451,0a7.2,7.2,0,0,0,.663,3.768,1.893,1.893,0,0,0,3.27,0,11.043,11.043,0,0,0,0-7.535,1.966,1.966,0,0,0-1.65-.933,1.809,1.809,0,0,0-1.553.823A7.294,7.294,0,0,0,28.8,279.617Z" transform="translate(-7.032 -4.836)"/><path class="cls-2" d="M36.55,276.551a3.492,3.492,0,0,1,.62-2.093,2.072,2.072,0,0,1,1.8-.863,2.33,2.33,0,0,1,1.792.772,3.93,3.93,0,0,1-.008,4.516,2.3,2.3,0,0,1-1.768.788,2.234,2.234,0,0,1-1.737-.776A3.43,3.43,0,0,1,36.55,276.551ZM39,274.567a1.061,1.061,0,0,0-.874.455,2.878,2.878,0,0,0-.349,1.67,2.589,2.589,0,0,0,.353,1.557,1.074,1.074,0,0,0,1.752,0,2.866,2.866,0,0,0,.349-1.663,2.608,2.608,0,0,0-.353-1.564A1.075,1.075,0,0,0,39,274.567Zm0.008,11.142L45.3,273.595h1.145L40.18,285.709H39.012Zm4.971-3.121a3.491,3.491,0,0,1,.62-2.1,2.084,2.084,0,0,1,1.8-.858,2.328,2.328,0,0,1,1.792.772,3.928,3.928,0,0,1-.008,4.516,2.305,2.305,0,0,1-1.776.788,2.228,2.228,0,0,1-1.737-.78A3.431,3.431,0,0,1,43.983,282.589Zm2.462-1.984a1.068,1.068,0,0,0-.882.455,2.878,2.878,0,0,0-.349,1.67,2.591,2.591,0,0,0,.353,1.553,1.079,1.079,0,0,0,1.76,0,2.865,2.865,0,0,0,.349-1.663,2.6,2.6,0,0,0-.353-1.564A1.075,1.075,0,0,0,46.445,280.6Z" transform="translate(-7.032 -4.836)"/><path class="cls-2" d="M18.429,116.366l1.411-.188a3.109,3.109,0,0,0,.828,1.729,2.042,2.042,0,0,0,1.423.529,2.281,2.281,0,0,0,1.682-.69,2.33,2.33,0,0,0,.686-1.709,2.166,2.166,0,0,0-.635-1.6,2.2,2.2,0,0,0-1.615-.631,4.054,4.054,0,0,0-1,.157l0.157-1.239a2.082,2.082,0,0,0,.228.016,2.908,2.908,0,0,0,1.623-.47,1.611,1.611,0,0,0,.721-1.451,1.716,1.716,0,0,0-.525-1.286,1.866,1.866,0,0,0-1.356-.51,1.921,1.921,0,0,0-1.372.518,2.6,2.6,0,0,0-.706,1.552l-1.412-.251a3.626,3.626,0,0,1,1.176-2.2,3.4,3.4,0,0,1,2.282-.78,3.763,3.763,0,0,1,1.733.4,2.927,2.927,0,0,1,1.211,1.1,2.834,2.834,0,0,1,.419,1.482,2.427,2.427,0,0,1-.4,1.357,2.734,2.734,0,0,1-1.184.972,2.666,2.666,0,0,1,1.584.976,2.971,2.971,0,0,1,.564,1.854,3.394,3.394,0,0,1-1.1,2.552,3.862,3.862,0,0,1-2.776,1.047,3.612,3.612,0,0,1-2.513-.9A3.489,3.489,0,0,1,18.429,116.366Z" transform="translate(-7.032 -4.836)"/><path class="cls-2" d="M27.352,113.732a10.513,10.513,0,0,1,.419-3.281,4.086,4.086,0,0,1,1.247-1.917,3.19,3.19,0,0,1,2.082-.674,3.4,3.4,0,0,1,1.623.373,3.1,3.1,0,0,1,1.152,1.074,5.77,5.77,0,0,1,.714,1.709,11.36,11.36,0,0,1,.259,2.717A10.554,10.554,0,0,1,34.433,117a4.08,4.08,0,0,1-1.243,1.921,3.5,3.5,0,0,1-4.7-.513A7.578,7.578,0,0,1,27.352,113.732Zm1.451,0a7.2,7.2,0,0,0,.663,3.768,1.893,1.893,0,0,0,3.27,0,7.213,7.213,0,0,0,.663-3.764,7.209,7.209,0,0,0-.663-3.771,1.966,1.966,0,0,0-1.65-.933,1.809,1.809,0,0,0-1.553.823A7.294,7.294,0,0,0,28.8,113.732Z" transform="translate(-7.032 -4.836)"/><path class="cls-2" d="M36.55,110.666a3.492,3.492,0,0,1,.62-2.093,2.072,2.072,0,0,1,1.8-.863,2.33,2.33,0,0,1,1.792.772A3.93,3.93,0,0,1,40.748,113a2.3,2.3,0,0,1-1.768.788,2.234,2.234,0,0,1-1.737-.776A3.43,3.43,0,0,1,36.55,110.666ZM39,108.682a1.061,1.061,0,0,0-.874.455,2.878,2.878,0,0,0-.349,1.67,2.589,2.589,0,0,0,.353,1.557,1.074,1.074,0,0,0,1.752,0,2.866,2.866,0,0,0,.349-1.663,2.608,2.608,0,0,0-.353-1.564A1.075,1.075,0,0,0,39,108.682Zm0.008,11.142L45.3,107.71h1.145L40.18,119.824H39.011Zm4.971-3.121a3.491,3.491,0,0,1,.62-2.1,2.084,2.084,0,0,1,1.8-.858,2.328,2.328,0,0,1,1.792.772,3.928,3.928,0,0,1-.008,4.516,2.305,2.305,0,0,1-1.776.788,2.228,2.228,0,0,1-1.737-.78A3.431,3.431,0,0,1,43.983,116.7Zm2.462-1.984a1.068,1.068,0,0,0-.882.455,2.878,2.878,0,0,0-.349,1.67,2.591,2.591,0,0,0,.353,1.553,1.079,1.079,0,0,0,1.76,0,2.865,2.865,0,0,0,.349-1.663,2.6,2.6,0,0,0-.353-1.564A1.075,1.075,0,0,0,46.445,114.719Z" transform="translate(-7.032 -4.836)"/><rect class="cls-4" x="380.782" y="147.027" width="72.279" height="41.155"/><rect class="cls-4" x="244.587" y="112.504" width="72.279" height="67.686"/><rect class="cls-4" x="102.945" y="92.549" width="72.279" height="81.269"/><path class="cls-2" d="M124.024,89.545l1.411-.188a3.109,3.109,0,0,0,.828,1.729,2.042,2.042,0,0,0,1.423.529,2.281,2.281,0,0,0,1.682-.69,2.33,2.33,0,0,0,.686-1.709,2.166,2.166,0,0,0-.635-1.6,2.2,2.2,0,0,0-1.615-.631,4.054,4.054,0,0,0-1,.157l0.157-1.239a2.082,2.082,0,0,0,.228.016,2.908,2.908,0,0,0,1.623-.47,1.611,1.611,0,0,0,.721-1.451,1.716,1.716,0,0,0-.525-1.286,1.866,1.866,0,0,0-1.356-.51,1.921,1.921,0,0,0-1.372.518,2.6,2.6,0,0,0-.706,1.552l-1.412-.251a3.626,3.626,0,0,1,1.176-2.2,3.4,3.4,0,0,1,2.282-.78,3.763,3.763,0,0,1,1.733.4,2.927,2.927,0,0,1,1.211,1.1,2.834,2.834,0,0,1,.419,1.482,2.427,2.427,0,0,1-.4,1.357,2.734,2.734,0,0,1-1.184.972,2.666,2.666,0,0,1,1.584.976,2.971,2.971,0,0,1,.564,1.854,3.394,3.394,0,0,1-1.1,2.552,3.862,3.862,0,0,1-2.776,1.047,3.612,3.612,0,0,1-2.513-.9A3.489,3.489,0,0,1,124.024,89.545Z" transform="translate(-7.032 -4.836)"/><path class="cls-2" d="M133.041,82.59V81.234h7.441v1.1a15.677,15.677,0,0,0-2.176,3.1,18.9,18.9,0,0,0-1.667,3.983,14.811,14.811,0,0,0-.541,3.16h-1.45a14.079,14.079,0,0,1,.533-3.277,17.21,17.21,0,0,1,1.462-3.705,15.908,15.908,0,0,1,2.027-3.007h-5.629Z" transform="translate(-7.032 -4.836)"/><path class="cls-2" d="M142.669,92.579V90.972h1.607v1.607h-1.607Z" transform="translate(-7.032 -4.836)"/><path class="cls-2" d="M146.339,89.569l1.482-.125a2.658,2.658,0,0,0,.765,1.627,2.075,2.075,0,0,0,1.446.545,2.253,2.253,0,0,0,1.725-.769,2.9,2.9,0,0,0,.706-2.039,2.618,2.618,0,0,0-.678-1.905,2.364,2.364,0,0,0-1.776-.7,2.46,2.46,0,0,0-1.231.31,2.389,2.389,0,0,0-.862.8l-1.325-.172,1.113-5.9h5.716V82.59h-4.587l-0.619,3.089a3.741,3.741,0,0,1,2.172-.722A3.441,3.441,0,0,1,152.925,86a3.646,3.646,0,0,1,1.035,2.682,4.185,4.185,0,0,1-.91,2.7,3.644,3.644,0,0,1-3.019,1.4,3.719,3.719,0,0,1-2.56-.878A3.428,3.428,0,0,1,146.339,89.569Z" transform="translate(-7.032 -4.836)"/><path class="cls-2" d="M155.536,83.844a3.492,3.492,0,0,1,.62-2.093,2.072,2.072,0,0,1,1.8-.863,2.33,2.33,0,0,1,1.792.772,3.93,3.93,0,0,1-.008,4.516,2.3,2.3,0,0,1-1.768.788,2.234,2.234,0,0,1-1.737-.776A3.43,3.43,0,0,1,155.536,83.844Zm2.454-1.984a1.061,1.061,0,0,0-.874.455,2.878,2.878,0,0,0-.349,1.67,2.589,2.589,0,0,0,.353,1.557,1.074,1.074,0,0,0,1.752,0,2.866,2.866,0,0,0,.349-1.663,2.608,2.608,0,0,0-.353-1.564A1.075,1.075,0,0,0,157.99,81.861ZM158,93l6.289-12.114h1.145L159.166,93H158Zm4.971-3.121a3.491,3.491,0,0,1,.62-2.1,2.084,2.084,0,0,1,1.8-.858,2.328,2.328,0,0,1,1.792.772,3.928,3.928,0,0,1-.008,4.516A2.305,2.305,0,0,1,165.4,93a2.228,2.228,0,0,1-1.737-.78A3.431,3.431,0,0,1,162.969,89.882Zm2.462-1.984a1.068,1.068,0,0,0-.882.455,2.878,2.878,0,0,0-.349,1.67,2.591,2.591,0,0,0,.353,1.553,1.079,1.079,0,0,0,1.76,0,2.865,2.865,0,0,0,.349-1.663,2.6,2.6,0,0,0-.353-1.564A1.075,1.075,0,0,0,165.431,87.9Z" transform="translate(-7.032 -4.836)"/><path class="cls-5" d="M128.693,172.649l1.356-.125a2.357,2.357,0,0,0,.658,1.388,1.809,1.809,0,0,0,1.247.431,2.151,2.151,0,0,0,1.141-.3,2.436,2.436,0,0,0,.8-0.8,4.682,4.682,0,0,0,.525-1.345,7.087,7.087,0,0,0,.212-1.725c0-.063,0-0.157-0.008-0.282a3.232,3.232,0,0,1-1.157,1.094,3.142,3.142,0,0,1-1.588.419,3.212,3.212,0,0,1-2.415-1.035,3.787,3.787,0,0,1-.988-2.729,3.878,3.878,0,0,1,1.031-2.815,3.444,3.444,0,0,1,2.583-1.066,3.687,3.687,0,0,1,2.05.6,3.771,3.771,0,0,1,1.412,1.721,8.479,8.479,0,0,1,.482,3.234,10.484,10.484,0,0,1-.478,3.509,4.112,4.112,0,0,1-1.423,1.987,3.681,3.681,0,0,1-2.215.682A3.035,3.035,0,0,1,128.693,172.649Zm5.778-5.073a2.765,2.765,0,0,0-.646-1.929,2.029,2.029,0,0,0-1.557-.713,2.149,2.149,0,0,0-1.639.769,2.846,2.846,0,0,0-.7,1.991,2.46,2.46,0,0,0,.663,1.784,2.181,2.181,0,0,0,1.635.686,2.092,2.092,0,0,0,1.611-.686A2.7,2.7,0,0,0,134.471,167.576Z" transform="translate(-7.032 -4.836)"/><path class="cls-5" d="M138.2,175.307V173.7h1.607v1.607H138.2Z" transform="translate(-7.032 -4.836)"/><path class="cls-5" d="M141.968,165.318v-1.356h7.441v1.1a15.677,15.677,0,0,0-2.176,3.1,18.9,18.9,0,0,0-1.667,3.983,14.811,14.811,0,0,0-.541,3.16h-1.45a14.079,14.079,0,0,1,.533-3.277,17.21,17.21,0,0,1,1.462-3.705,15.908,15.908,0,0,1,2.027-3.007h-5.629Z" transform="translate(-7.032 -4.836)"/><path class="cls-5" d="M151.071,166.572a3.492,3.492,0,0,1,.62-2.093,2.072,2.072,0,0,1,1.8-.863,2.33,2.33,0,0,1,1.792.772,3.93,3.93,0,0,1-.008,4.516,2.3,2.3,0,0,1-1.768.788,2.234,2.234,0,0,1-1.737-.776A3.43,3.43,0,0,1,151.071,166.572Zm2.454-1.984a1.061,1.061,0,0,0-.874.455,2.878,2.878,0,0,0-.349,1.67,2.589,2.589,0,0,0,.353,1.557,1.074,1.074,0,0,0,1.752,0,2.866,2.866,0,0,0,.349-1.663,2.608,2.608,0,0,0-.353-1.564A1.075,1.075,0,0,0,153.525,164.589Zm0.008,11.142,6.289-12.114h1.145L154.7,175.731h-1.168Zm4.971-3.121a3.491,3.491,0,0,1,.62-2.1,2.084,2.084,0,0,1,1.8-.858,2.328,2.328,0,0,1,1.792.772,3.928,3.928,0,0,1-.008,4.516,2.305,2.305,0,0,1-1.776.788,2.228,2.228,0,0,1-1.737-.78A3.431,3.431,0,0,1,158.5,172.61Zm2.462-1.984a1.068,1.068,0,0,0-.882.455,2.878,2.878,0,0,0-.349,1.67,2.591,2.591,0,0,0,.353,1.553,1.079,1.079,0,0,0,1.76,0,2.865,2.865,0,0,0,.349-1.663,2.6,2.6,0,0,0-.353-1.564A1.075,1.075,0,0,0,160.966,170.626Z" transform="translate(-7.032 -4.836)"/><path class="cls-2" d="M273.076,111.78v1.356h-7.6a2.483,2.483,0,0,1,.165-0.98,5.181,5.181,0,0,1,.929-1.529,14.585,14.585,0,0,1,1.846-1.741,15.631,15.631,0,0,0,2.533-2.435,2.911,2.911,0,0,0,.659-1.7,1.886,1.886,0,0,0-.6-1.416,2.164,2.164,0,0,0-1.564-.576,2.2,2.2,0,0,0-1.631.611,2.316,2.316,0,0,0-.62,1.694l-1.45-.149a3.568,3.568,0,0,1,1.121-2.474,3.823,3.823,0,0,1,2.611-.851,3.645,3.645,0,0,1,2.619.917,3.012,3.012,0,0,1,.964,2.274,3.452,3.452,0,0,1-.282,1.356,5.267,5.267,0,0,1-.937,1.4,22.848,22.848,0,0,1-2.176,2.023q-1.271,1.066-1.631,1.446a4.653,4.653,0,0,0-.6.765h5.638Z" transform="translate(-7.032 -4.836)"/><path class="cls-2" d="M276.761,106.9a2.658,2.658,0,0,1-1.3-.917,2.4,2.4,0,0,1-.423-1.427,2.791,2.791,0,0,1,.9-2.109,3.794,3.794,0,0,1,4.822.02,2.831,2.831,0,0,1,.917,2.129,2.343,2.343,0,0,1-.42,1.392,2.644,2.644,0,0,1-1.274.914,3.091,3.091,0,0,1,1.611,1.113,3.058,3.058,0,0,1,.553,1.835,3.3,3.3,0,0,1-1.043,2.478,4.248,4.248,0,0,1-5.488,0,3.351,3.351,0,0,1-1.043-2.513,3.04,3.04,0,0,1,.568-1.878A2.846,2.846,0,0,1,276.761,106.9Zm-0.737,2.917a2.552,2.552,0,0,0,.286,1.168,2.017,2.017,0,0,0,.851.875,2.486,2.486,0,0,0,1.215.31,2.276,2.276,0,0,0,1.67-.651,2.225,2.225,0,0,0,.659-1.654,2.264,2.264,0,0,0-.678-1.686,2.324,2.324,0,0,0-1.7-.667A2.244,2.244,0,0,0,276.024,109.82Zm0.455-5.308a1.791,1.791,0,0,0,.525,1.333,1.861,1.861,0,0,0,1.364.518,1.826,1.826,0,0,0,1.337-.514,1.7,1.7,0,0,0,.521-1.258,1.761,1.761,0,0,0-.537-1.306,1.974,1.974,0,0,0-2.678-.012A1.665,1.665,0,0,0,276.479,104.512Z" transform="translate(-7.032 -4.836)"/><path class="cls-2" d="M284.312,113.137v-1.607h1.607v1.607h-1.607Z" transform="translate(-7.032 -4.836)"/><path class="cls-2" d="M295.3,104.457l-1.4.109a2.661,2.661,0,0,0-.533-1.208,1.869,1.869,0,0,0-1.412-.6,1.938,1.938,0,0,0-1.184.376,3.214,3.214,0,0,0-1.051,1.419,7.408,7.408,0,0,0-.4,2.658,3.272,3.272,0,0,1,1.247-1.153,3.358,3.358,0,0,1,1.545-.376,3.2,3.2,0,0,1,2.4,1.039,3.728,3.728,0,0,1,.992,2.686,4.417,4.417,0,0,1-.467,2.011,3.4,3.4,0,0,1-1.282,1.423,3.5,3.5,0,0,1-1.851.494,3.615,3.615,0,0,1-2.877-1.3,6.55,6.55,0,0,1-1.114-4.277q0-3.333,1.231-4.846a3.539,3.539,0,0,1,2.893-1.317A3.079,3.079,0,0,1,295.3,104.457Zm-5.763,4.955a3.274,3.274,0,0,0,.31,1.4,2.307,2.307,0,0,0,.866,1.015,2.165,2.165,0,0,0,1.168.349,1.99,1.99,0,0,0,1.537-.722,2.837,2.837,0,0,0,.643-1.96,2.656,2.656,0,0,0-.635-1.878,2.086,2.086,0,0,0-1.6-.686,2.177,2.177,0,0,0-1.624.686A2.473,2.473,0,0,0,289.542,109.412Z" transform="translate(-7.032 -4.836)"/><path class="cls-2" d="M297.178,104.4a3.492,3.492,0,0,1,.62-2.093,2.072,2.072,0,0,1,1.8-.863,2.33,2.33,0,0,1,1.792.772,3.93,3.93,0,0,1-.008,4.516,2.3,2.3,0,0,1-1.768.788,2.234,2.234,0,0,1-1.737-.776A3.43,3.43,0,0,1,297.178,104.4Zm2.454-1.984a1.061,1.061,0,0,0-.874.455,2.878,2.878,0,0,0-.349,1.67,2.589,2.589,0,0,0,.353,1.557,1.074,1.074,0,0,0,1.752,0,2.866,2.866,0,0,0,.349-1.663,2.608,2.608,0,0,0-.353-1.564A1.075,1.075,0,0,0,299.633,102.418Zm0.008,11.142,6.289-12.114h1.145l-6.265,12.114H299.64Zm4.971-3.121a3.491,3.491,0,0,1,.62-2.1,2.084,2.084,0,0,1,1.8-.858,2.328,2.328,0,0,1,1.792.772,3.928,3.928,0,0,1-.008,4.516,2.305,2.305,0,0,1-1.776.788,2.228,2.228,0,0,1-1.737-.78A3.431,3.431,0,0,1,304.612,110.44Zm2.462-1.984a1.068,1.068,0,0,0-.882.455,2.878,2.878,0,0,0-.349,1.67,2.591,2.591,0,0,0,.353,1.553,1.079,1.079,0,0,0,1.76,0,2.865,2.865,0,0,0,.349-1.663,2.6,2.6,0,0,0-.353-1.564A1.075,1.075,0,0,0,307.074,108.456Z" transform="translate(-7.032 -4.836)"/><path class="cls-5" d="M272.3,174.55a2.658,2.658,0,0,1-1.3-.917,2.4,2.4,0,0,1-.423-1.427,2.791,2.791,0,0,1,.9-2.109,3.794,3.794,0,0,1,4.822.02,2.831,2.831,0,0,1,.917,2.129,2.343,2.343,0,0,1-.42,1.392,2.644,2.644,0,0,1-1.274.914,3.091,3.091,0,0,1,1.611,1.113,3.058,3.058,0,0,1,.553,1.835,3.3,3.3,0,0,1-1.043,2.478,4.248,4.248,0,0,1-5.488,0,3.351,3.351,0,0,1-1.043-2.513,3.04,3.04,0,0,1,.568-1.878A2.846,2.846,0,0,1,272.3,174.55Zm-0.737,2.917a2.552,2.552,0,0,0,.286,1.168,2.017,2.017,0,0,0,.851.875,2.486,2.486,0,0,0,1.215.31,2.276,2.276,0,0,0,1.67-.651,2.225,2.225,0,0,0,.659-1.654,2.264,2.264,0,0,0-.678-1.686,2.324,2.324,0,0,0-1.7-.667A2.244,2.244,0,0,0,271.559,177.467Zm0.455-5.308a1.791,1.791,0,0,0,.525,1.333,1.861,1.861,0,0,0,1.364.518,1.826,1.826,0,0,0,1.337-.514,1.7,1.7,0,0,0,.521-1.258,1.761,1.761,0,0,0-.537-1.306,1.974,1.974,0,0,0-2.678-.012A1.665,1.665,0,0,0,272.013,172.158Z" transform="translate(-7.032 -4.836)"/><path class="cls-5" d="M279.846,180.783v-1.607h1.607v1.607h-1.607Z" transform="translate(-7.032 -4.836)"/><path class="cls-5" d="M290.839,172.1l-1.4.109a2.661,2.661,0,0,0-.533-1.208,1.869,1.869,0,0,0-1.412-.6,1.938,1.938,0,0,0-1.184.376,3.214,3.214,0,0,0-1.051,1.419,7.408,7.408,0,0,0-.4,2.658A3.272,3.272,0,0,1,286.1,173.7a3.358,3.358,0,0,1,1.545-.376,3.2,3.2,0,0,1,2.4,1.039,3.728,3.728,0,0,1,.992,2.686,4.417,4.417,0,0,1-.467,2.011,3.4,3.4,0,0,1-1.282,1.423,3.5,3.5,0,0,1-1.851.494,3.615,3.615,0,0,1-2.877-1.3,6.55,6.55,0,0,1-1.114-4.277q0-3.333,1.231-4.846a3.539,3.539,0,0,1,2.893-1.317A3.079,3.079,0,0,1,290.839,172.1Zm-5.763,4.955a3.274,3.274,0,0,0,.31,1.4,2.307,2.307,0,0,0,.866,1.015,2.165,2.165,0,0,0,1.168.349,1.99,1.99,0,0,0,1.537-.722,2.837,2.837,0,0,0,.643-1.96,2.656,2.656,0,0,0-.635-1.878,2.086,2.086,0,0,0-1.6-.686,2.177,2.177,0,0,0-1.624.686A2.473,2.473,0,0,0,285.076,177.059Z" transform="translate(-7.032 -4.836)"/><path class="cls-5" d="M292.713,172.049a3.492,3.492,0,0,1,.62-2.093,2.072,2.072,0,0,1,1.8-.863,2.33,2.33,0,0,1,1.792.772,3.93,3.93,0,0,1-.008,4.516,2.3,2.3,0,0,1-1.768.788,2.234,2.234,0,0,1-1.737-.776A3.43,3.43,0,0,1,292.713,172.049Zm2.454-1.984a1.061,1.061,0,0,0-.874.455,2.878,2.878,0,0,0-.349,1.67,2.589,2.589,0,0,0,.353,1.557,1.074,1.074,0,0,0,1.752,0,2.866,2.866,0,0,0,.349-1.663,2.608,2.608,0,0,0-.353-1.564A1.075,1.075,0,0,0,295.167,170.065Zm0.008,11.142,6.289-12.114h1.145l-6.265,12.114h-1.168Zm4.971-3.121a3.491,3.491,0,0,1,.62-2.1,2.084,2.084,0,0,1,1.8-.858,2.328,2.328,0,0,1,1.792.772,3.928,3.928,0,0,1-.008,4.516,2.305,2.305,0,0,1-1.776.788,2.228,2.228,0,0,1-1.737-.78A3.431,3.431,0,0,1,300.146,178.086Zm2.462-1.984a1.068,1.068,0,0,0-.882.455,2.878,2.878,0,0,0-.349,1.67,2.591,2.591,0,0,0,.353,1.553,1.079,1.079,0,0,0,1.76,0,2.865,2.865,0,0,0,.349-1.663,2.6,2.6,0,0,0-.353-1.564A1.075,1.075,0,0,0,302.608,176.1Z" transform="translate(-7.032 -4.836)"/><path class="cls-2" d="M407.169,146.453h-1.411v-8.994a7.265,7.265,0,0,1-1.337.972,9.474,9.474,0,0,1-1.486.729V137.8a8.517,8.517,0,0,0,2.07-1.349,5.31,5.31,0,0,0,1.255-1.537h0.909v11.542Z" transform="translate(-7.032 -4.836)"/><path class="cls-2" d="M410.878,136.464v-1.356h7.44v1.1a15.7,15.7,0,0,0-2.176,3.1,18.928,18.928,0,0,0-1.666,3.983,14.781,14.781,0,0,0-.541,3.16h-1.45a14.079,14.079,0,0,1,.533-3.277,17.235,17.235,0,0,1,1.462-3.705,15.886,15.886,0,0,1,2.027-3.007h-5.63Z" transform="translate(-7.032 -4.836)"/><path class="cls-2" d="M420.506,146.453v-1.607h1.607v1.607h-1.607Z" transform="translate(-7.032 -4.836)"/><path class="cls-2" d="M424.176,143.442l1.482-.125a2.653,2.653,0,0,0,.765,1.627,2.074,2.074,0,0,0,1.446.545,2.255,2.255,0,0,0,1.726-.769,2.9,2.9,0,0,0,.705-2.039,2.618,2.618,0,0,0-.678-1.905,2.366,2.366,0,0,0-1.776-.7,2.455,2.455,0,0,0-1.23.31,2.388,2.388,0,0,0-.863.8l-1.325-.172,1.114-5.9h5.716v1.349H426.67l-0.62,3.089a3.742,3.742,0,0,1,2.173-.722,3.441,3.441,0,0,1,2.54,1.043,3.648,3.648,0,0,1,1.035,2.682,4.185,4.185,0,0,1-.91,2.7,3.641,3.641,0,0,1-3.019,1.4,3.718,3.718,0,0,1-2.56-.878A3.427,3.427,0,0,1,424.176,143.442Z" transform="translate(-7.032 -4.836)"/><path class="cls-2" d="M433.373,137.718a3.493,3.493,0,0,1,.62-2.093,2.073,2.073,0,0,1,1.795-.863,2.329,2.329,0,0,1,1.792.772,3.928,3.928,0,0,1-.008,4.516,2.3,2.3,0,0,1-1.769.788,2.234,2.234,0,0,1-1.736-.776A3.427,3.427,0,0,1,433.373,137.718Zm2.455-1.984a1.062,1.062,0,0,0-.875.455,2.883,2.883,0,0,0-.349,1.67,2.59,2.59,0,0,0,.353,1.557,1.075,1.075,0,0,0,1.753,0,2.866,2.866,0,0,0,.349-1.663,2.6,2.6,0,0,0-.353-1.564A1.075,1.075,0,0,0,435.828,135.734Zm0.008,11.142,6.288-12.114h1.145L437,146.876h-1.168Zm4.971-3.121a3.49,3.49,0,0,1,.619-2.1,2.086,2.086,0,0,1,1.8-.858,2.329,2.329,0,0,1,1.792.772,3.932,3.932,0,0,1-.008,4.516,2.306,2.306,0,0,1-1.776.788,2.226,2.226,0,0,1-1.736-.78A3.428,3.428,0,0,1,440.806,143.756Zm2.462-1.984a1.068,1.068,0,0,0-.882.455,2.883,2.883,0,0,0-.349,1.67,2.592,2.592,0,0,0,.353,1.553,1.079,1.079,0,0,0,1.76,0,2.857,2.857,0,0,0,.35-1.663,2.6,2.6,0,0,0-.354-1.564A1.072,1.072,0,0,0,443.268,141.772Z" transform="translate(-7.032 -4.836)"/><path class="cls-2" d="M403.488,214.7v-1.419h4.336V214.7h-4.336Z" transform="translate(-7.032 -4.836)"/><path class="cls-2" d="M416.41,216.791v1.356h-7.6a2.492,2.492,0,0,1,.164-0.98,5.193,5.193,0,0,1,.93-1.529,14.527,14.527,0,0,1,1.847-1.741,15.665,15.665,0,0,0,2.532-2.435,2.912,2.912,0,0,0,.659-1.7,1.885,1.885,0,0,0-.6-1.416,2.161,2.161,0,0,0-1.563-.576,2.207,2.207,0,0,0-1.632.611,2.316,2.316,0,0,0-.619,1.694l-1.45-.149a3.566,3.566,0,0,1,1.121-2.474,3.825,3.825,0,0,1,2.611-.851,3.643,3.643,0,0,1,2.618.917,3.011,3.011,0,0,1,.965,2.274,3.444,3.444,0,0,1-.282,1.356,5.27,5.27,0,0,1-.937,1.4A22.726,22.726,0,0,1,413,214.58q-1.27,1.066-1.631,1.446a4.7,4.7,0,0,0-.6.765h5.638Z" transform="translate(-7.032 -4.836)"/><path class="cls-2" d="M418.715,218.147V216.54h1.607v1.607h-1.607Z" transform="translate(-7.032 -4.836)"/><path class="cls-2" d="M422.393,215.113l1.411-.188a3.109,3.109,0,0,0,.827,1.729,2.042,2.042,0,0,0,1.423.529,2.279,2.279,0,0,0,1.682-.69,2.326,2.326,0,0,0,.687-1.709,2.168,2.168,0,0,0-.635-1.6,2.2,2.2,0,0,0-1.615-.631,4.061,4.061,0,0,0-1,.157l0.156-1.239a2.09,2.09,0,0,0,.228.016,2.905,2.905,0,0,0,1.623-.47,1.609,1.609,0,0,0,.722-1.451,1.714,1.714,0,0,0-.525-1.286,1.867,1.867,0,0,0-1.356-.51,1.92,1.92,0,0,0-1.372.518,2.6,2.6,0,0,0-.706,1.552l-1.411-.251a3.631,3.631,0,0,1,1.176-2.2,3.4,3.4,0,0,1,2.282-.78,3.758,3.758,0,0,1,1.732.4,2.928,2.928,0,0,1,1.212,1.1,2.834,2.834,0,0,1,.419,1.482,2.426,2.426,0,0,1-.4,1.357,2.73,2.73,0,0,1-1.185.972,2.665,2.665,0,0,1,1.584.976,2.968,2.968,0,0,1,.564,1.854,3.391,3.391,0,0,1-1.1,2.552,3.861,3.861,0,0,1-2.775,1.047,3.61,3.61,0,0,1-2.513-.9A3.482,3.482,0,0,1,422.393,215.113Z" transform="translate(-7.032 -4.836)"/><path class="cls-2" d="M431.582,209.412a3.493,3.493,0,0,1,.62-2.093,2.073,2.073,0,0,1,1.795-.863,2.329,2.329,0,0,1,1.792.772,3.928,3.928,0,0,1-.008,4.516,2.3,2.3,0,0,1-1.769.788,2.234,2.234,0,0,1-1.736-.776A3.427,3.427,0,0,1,431.582,209.412Zm2.455-1.984a1.062,1.062,0,0,0-.875.455,2.883,2.883,0,0,0-.349,1.67,2.59,2.59,0,0,0,.353,1.557,1.075,1.075,0,0,0,1.753,0,2.866,2.866,0,0,0,.349-1.663,2.6,2.6,0,0,0-.353-1.564A1.075,1.075,0,0,0,434.037,207.428Zm0.008,11.142,6.288-12.114h1.145l-6.265,12.114h-1.168Zm4.971-3.121a3.49,3.49,0,0,1,.619-2.1,2.086,2.086,0,0,1,1.8-.858,2.329,2.329,0,0,1,1.792.772,3.932,3.932,0,0,1-.008,4.516,2.306,2.306,0,0,1-1.776.788,2.226,2.226,0,0,1-1.736-.78A3.428,3.428,0,0,1,439.015,215.45Zm2.462-1.984a1.068,1.068,0,0,0-.882.455,2.883,2.883,0,0,0-.349,1.67,2.592,2.592,0,0,0,.353,1.553,1.079,1.079,0,0,0,1.76,0,2.857,2.857,0,0,0,.35-1.663,2.6,2.6,0,0,0-.354-1.564A1.072,1.072,0,0,0,441.477,213.466Z" transform="translate(-7.032 -4.836)"/><path class="cls-5" d="M540.986,184.776v-1.356h7.44v1.1a15.7,15.7,0,0,0-2.176,3.1,18.928,18.928,0,0,0-1.666,3.983,14.781,14.781,0,0,0-.541,3.16h-1.45a14.079,14.079,0,0,1,.533-3.277,17.235,17.235,0,0,1,1.462-3.705,15.886,15.886,0,0,1,2.027-3.007h-5.63Z" transform="translate(-7.032 -4.836)"/><path class="cls-5" d="M550.614,194.765v-1.607h1.607v1.607h-1.607Z" transform="translate(-7.032 -4.836)"/><path class="cls-5" d="M554.5,192.107l1.356-.125a2.358,2.358,0,0,0,.659,1.388,1.807,1.807,0,0,0,1.246.431,2.153,2.153,0,0,0,1.142-.3,2.449,2.449,0,0,0,.8-0.8,4.7,4.7,0,0,0,.525-1.345,7.11,7.11,0,0,0,.211-1.725c0-.063,0-0.157-0.008-0.282a3.235,3.235,0,0,1-1.156,1.094,3.145,3.145,0,0,1-1.588.419,3.212,3.212,0,0,1-2.415-1.035,3.79,3.79,0,0,1-.988-2.729,3.878,3.878,0,0,1,1.031-2.815,3.446,3.446,0,0,1,2.584-1.066,3.691,3.691,0,0,1,2.051.6,3.77,3.77,0,0,1,1.411,1.721,8.478,8.478,0,0,1,.482,3.234,10.482,10.482,0,0,1-.479,3.509,4.113,4.113,0,0,1-1.424,1.987,3.681,3.681,0,0,1-2.215.682A3.036,3.036,0,0,1,554.5,192.107Zm5.779-5.073a2.763,2.763,0,0,0-.647-1.929,2.027,2.027,0,0,0-1.556-.713,2.151,2.151,0,0,0-1.64.769,2.848,2.848,0,0,0-.7,1.991,2.462,2.462,0,0,0,.662,1.784,2.184,2.184,0,0,0,1.635.686,2.092,2.092,0,0,0,1.611-.686A2.7,2.7,0,0,0,560.275,187.034Z" transform="translate(-7.032 -4.836)"/><path class="cls-5" d="M563.481,186.03a3.493,3.493,0,0,1,.62-2.093,2.073,2.073,0,0,1,1.795-.863,2.329,2.329,0,0,1,1.792.772,3.928,3.928,0,0,1-.008,4.516,2.3,2.3,0,0,1-1.769.788,2.234,2.234,0,0,1-1.736-.776A3.427,3.427,0,0,1,563.481,186.03Zm2.455-1.984a1.062,1.062,0,0,0-.875.455,2.883,2.883,0,0,0-.349,1.67,2.59,2.59,0,0,0,.353,1.557,1.075,1.075,0,0,0,1.753,0,2.866,2.866,0,0,0,.349-1.663,2.6,2.6,0,0,0-.353-1.564A1.075,1.075,0,0,0,565.936,184.046Zm0.008,11.142,6.288-12.114h1.145l-6.265,12.114h-1.168Zm4.971-3.121a3.49,3.49,0,0,1,.619-2.1,2.086,2.086,0,0,1,1.8-.858,2.329,2.329,0,0,1,1.792.772,3.932,3.932,0,0,1-.008,4.516,2.306,2.306,0,0,1-1.776.788,2.226,2.226,0,0,1-1.736-.78A3.428,3.428,0,0,1,570.915,192.068Zm2.462-1.984a1.068,1.068,0,0,0-.882.455,2.883,2.883,0,0,0-.349,1.67,2.592,2.592,0,0,0,.353,1.553,1.079,1.079,0,0,0,1.76,0,2.857,2.857,0,0,0,.35-1.663,2.6,2.6,0,0,0-.354-1.564A1.072,1.072,0,0,0,573.377,190.084Z" transform="translate(-7.032 -4.836)"/><path class="cls-2" d="M18.422,64.772l1.482-.125a2.658,2.658,0,0,0,.765,1.627,2.075,2.075,0,0,0,1.446.545,2.253,2.253,0,0,0,1.725-.769,2.9,2.9,0,0,0,.706-2.039,2.618,2.618,0,0,0-.678-1.905,2.364,2.364,0,0,0-1.776-.7,2.46,2.46,0,0,0-1.231.31,2.389,2.389,0,0,0-.862.8l-1.325-.172,1.113-5.9H25.5v1.349H20.915L20.3,60.883a3.741,3.741,0,0,1,2.172-.722A3.441,3.441,0,0,1,25.008,61.2a3.646,3.646,0,0,1,1.035,2.682,4.185,4.185,0,0,1-.91,2.7,3.644,3.644,0,0,1-3.019,1.4,3.719,3.719,0,0,1-2.56-.878A3.428,3.428,0,0,1,18.422,64.772Z" transform="translate(-7.032 -4.836)"/><path class="cls-2" d="M27.352,62.114a10.513,10.513,0,0,1,.419-3.281,4.086,4.086,0,0,1,1.247-1.917,3.19,3.19,0,0,1,2.082-.674,3.4,3.4,0,0,1,1.623.373,3.1,3.1,0,0,1,1.152,1.074A5.77,5.77,0,0,1,34.59,59.4a11.36,11.36,0,0,1,.259,2.717,10.554,10.554,0,0,1-.416,3.266A4.08,4.08,0,0,1,33.19,67.3a3.5,3.5,0,0,1-4.7-.513A7.578,7.578,0,0,1,27.352,62.114Zm1.451,0a7.2,7.2,0,0,0,.663,3.768,1.893,1.893,0,0,0,3.27,0,7.213,7.213,0,0,0,.663-3.764,7.209,7.209,0,0,0-.663-3.771,1.966,1.966,0,0,0-1.65-.933,1.809,1.809,0,0,0-1.553.823A7.294,7.294,0,0,0,28.8,62.114Z" transform="translate(-7.032 -4.836)"/><path class="cls-2" d="M36.55,59.048a3.492,3.492,0,0,1,.62-2.093,2.072,2.072,0,0,1,1.8-.863,2.33,2.33,0,0,1,1.792.772,3.93,3.93,0,0,1-.008,4.516,2.3,2.3,0,0,1-1.768.788,2.234,2.234,0,0,1-1.737-.776A3.43,3.43,0,0,1,36.55,59.048ZM39,57.064a1.061,1.061,0,0,0-.874.455,2.878,2.878,0,0,0-.349,1.67,2.589,2.589,0,0,0,.353,1.557,1.074,1.074,0,0,0,1.752,0,2.866,2.866,0,0,0,.349-1.663,2.608,2.608,0,0,0-.353-1.564A1.075,1.075,0,0,0,39,57.064Zm0.008,11.142L45.3,56.092h1.145L40.18,68.206H39.011Zm4.971-3.121a3.491,3.491,0,0,1,.62-2.1,2.084,2.084,0,0,1,1.8-.858A2.328,2.328,0,0,1,48.2,62.9a3.928,3.928,0,0,1-.008,4.516,2.305,2.305,0,0,1-1.776.788,2.228,2.228,0,0,1-1.737-.78A3.431,3.431,0,0,1,43.983,65.086ZM46.445,63.1a1.068,1.068,0,0,0-.882.455,2.878,2.878,0,0,0-.349,1.67,2.591,2.591,0,0,0,.353,1.553,1.079,1.079,0,0,0,1.76,0,2.865,2.865,0,0,0,.349-1.663,2.6,2.6,0,0,0-.353-1.564A1.075,1.075,0,0,0,46.445,63.1Z" transform="translate(-7.032 -4.836)"/><path class="cls-2" d="M121.185,305.693v-1.419h4.336v1.419h-4.336Z" transform="translate(-7.032 -4.836)"/><path class="cls-2" d="M126.7,306.109l1.411-.188a3.109,3.109,0,0,0,.828,1.729,2.042,2.042,0,0,0,1.423.529,2.281,2.281,0,0,0,1.682-.69,2.33,2.33,0,0,0,.686-1.709,2.166,2.166,0,0,0-.635-1.6,2.2,2.2,0,0,0-1.615-.631,4.054,4.054,0,0,0-1,.157l0.157-1.239a2.082,2.082,0,0,0,.228.016,2.908,2.908,0,0,0,1.623-.47,1.611,1.611,0,0,0,.721-1.451,1.716,1.716,0,0,0-.525-1.286,1.866,1.866,0,0,0-1.356-.51,1.921,1.921,0,0,0-1.372.518,2.6,2.6,0,0,0-.706,1.552l-1.412-.251a3.626,3.626,0,0,1,1.176-2.2,3.4,3.4,0,0,1,2.282-.78,3.763,3.763,0,0,1,1.733.4,2.927,2.927,0,0,1,1.211,1.1,2.834,2.834,0,0,1,.419,1.482,2.427,2.427,0,0,1-.4,1.357,2.734,2.734,0,0,1-1.184.972,2.666,2.666,0,0,1,1.584.976,2.971,2.971,0,0,1,.564,1.854,3.394,3.394,0,0,1-1.1,2.552,3.862,3.862,0,0,1-2.776,1.047,3.612,3.612,0,0,1-2.513-.9A3.489,3.489,0,0,1,126.7,306.109Z" transform="translate(-7.032 -4.836)"/><path class="cls-2" d="M137.792,302.91a2.658,2.658,0,0,1-1.3-.917,2.4,2.4,0,0,1-.423-1.427,2.791,2.791,0,0,1,.9-2.109,3.794,3.794,0,0,1,4.822.02,2.831,2.831,0,0,1,.917,2.129,2.343,2.343,0,0,1-.42,1.392,2.644,2.644,0,0,1-1.274.914,3.091,3.091,0,0,1,1.611,1.113,3.058,3.058,0,0,1,.553,1.835,3.3,3.3,0,0,1-1.043,2.478,4.248,4.248,0,0,1-5.488,0,3.351,3.351,0,0,1-1.043-2.513,3.04,3.04,0,0,1,.568-1.878A2.846,2.846,0,0,1,137.792,302.91Zm-0.737,2.917a2.552,2.552,0,0,0,.286,1.168,2.017,2.017,0,0,0,.851.875,2.486,2.486,0,0,0,1.215.31,2.276,2.276,0,0,0,1.67-.651,2.225,2.225,0,0,0,.659-1.654,2.264,2.264,0,0,0-.678-1.686,2.324,2.324,0,0,0-1.7-.667A2.244,2.244,0,0,0,137.055,305.826Zm0.455-5.308a1.791,1.791,0,0,0,.525,1.333,1.861,1.861,0,0,0,1.364.518,1.826,1.826,0,0,0,1.337-.514,1.7,1.7,0,0,0,.521-1.258,1.761,1.761,0,0,0-.537-1.306,1.974,1.974,0,0,0-2.678-.012A1.665,1.665,0,0,0,137.51,300.518Z" transform="translate(-7.032 -4.836)"/><path class="cls-2" d="M145.343,309.143v-1.607h1.607v1.607h-1.607Z" transform="translate(-7.032 -4.836)"/><path class="cls-2" d="M149.012,306.133l1.482-.125a2.658,2.658,0,0,0,.765,1.627,2.075,2.075,0,0,0,1.446.545,2.253,2.253,0,0,0,1.725-.769,2.9,2.9,0,0,0,.706-2.039,2.618,2.618,0,0,0-.678-1.905,2.364,2.364,0,0,0-1.776-.7,2.46,2.46,0,0,0-1.231.31,2.389,2.389,0,0,0-.862.8l-1.325-.172,1.113-5.9h5.716v1.349h-4.587l-0.619,3.089a3.741,3.741,0,0,1,2.172-.722,3.441,3.441,0,0,1,2.541,1.043,3.646,3.646,0,0,1,1.035,2.682,4.185,4.185,0,0,1-.91,2.7,3.644,3.644,0,0,1-3.019,1.4,3.719,3.719,0,0,1-2.56-.878A3.428,3.428,0,0,1,149.012,306.133Z" transform="translate(-7.032 -4.836)"/><path class="cls-2" d="M158.21,300.408a3.492,3.492,0,0,1,.62-2.093,2.072,2.072,0,0,1,1.8-.863,2.33,2.33,0,0,1,1.792.772,3.93,3.93,0,0,1-.008,4.516,2.3,2.3,0,0,1-1.768.788,2.234,2.234,0,0,1-1.737-.776A3.43,3.43,0,0,1,158.21,300.408Zm2.454-1.984a1.061,1.061,0,0,0-.874.455,2.878,2.878,0,0,0-.349,1.67,2.589,2.589,0,0,0,.353,1.557,1.074,1.074,0,0,0,1.752,0,2.866,2.866,0,0,0,.349-1.663,2.608,2.608,0,0,0-.353-1.564A1.075,1.075,0,0,0,160.664,298.425Zm0.008,11.142,6.289-12.114H168.1l-6.265,12.114h-1.168Zm4.971-3.121a3.491,3.491,0,0,1,.62-2.1,2.084,2.084,0,0,1,1.8-.858,2.328,2.328,0,0,1,1.792.772,3.928,3.928,0,0,1-.008,4.516,2.305,2.305,0,0,1-1.776.788,2.228,2.228,0,0,1-1.737-.78A3.431,3.431,0,0,1,165.643,306.446Zm2.462-1.984a1.068,1.068,0,0,0-.882.455,2.878,2.878,0,0,0-.349,1.67,2.591,2.591,0,0,0,.353,1.553,1.079,1.079,0,0,0,1.76,0,2.865,2.865,0,0,0,.349-1.663,2.6,2.6,0,0,0-.353-1.564A1.075,1.075,0,0,0,168.1,304.462Z" transform="translate(-7.032 -4.836)"/><line class="cls-6" x1="102.945" y1="173.818" x2="175.224" y2="173.818"/><line class="cls-6" x1="244.587" y1="180.191" x2="316.866" y2="180.191"/><path class="cls-5" d="M413.642,181.084l-1.4.109a2.65,2.65,0,0,0-.533-1.208,1.866,1.866,0,0,0-1.411-.6,1.939,1.939,0,0,0-1.184.376,3.214,3.214,0,0,0-1.051,1.419,7.429,7.429,0,0,0-.4,2.658,3.274,3.274,0,0,1,1.247-1.153,3.356,3.356,0,0,1,1.545-.376,3.2,3.2,0,0,1,2.4,1.039,3.73,3.73,0,0,1,.991,2.686,4.423,4.423,0,0,1-.466,2.011,3.4,3.4,0,0,1-1.282,1.423,3.5,3.5,0,0,1-1.851.494,3.616,3.616,0,0,1-2.878-1.3,6.553,6.553,0,0,1-1.113-4.277q0-3.333,1.231-4.846a3.54,3.54,0,0,1,2.894-1.317A3.079,3.079,0,0,1,413.642,181.084Zm-5.764,4.955a3.281,3.281,0,0,0,.31,1.4,2.312,2.312,0,0,0,.867,1.015,2.162,2.162,0,0,0,1.168.349,1.991,1.991,0,0,0,1.537-.722,2.837,2.837,0,0,0,.643-1.96,2.66,2.66,0,0,0-.635-1.878,2.088,2.088,0,0,0-1.6-.686,2.177,2.177,0,0,0-1.623.686A2.473,2.473,0,0,0,407.879,186.039Z" transform="translate(-7.032 -4.836)"/><path class="cls-5" d="M416.041,189.763v-1.607h1.607v1.607h-1.607Z" transform="translate(-7.032 -4.836)"/><path class="cls-5" d="M419.711,186.753l1.482-.125a2.653,2.653,0,0,0,.765,1.627,2.074,2.074,0,0,0,1.446.545,2.255,2.255,0,0,0,1.726-.769,2.9,2.9,0,0,0,.705-2.039,2.618,2.618,0,0,0-.678-1.905,2.366,2.366,0,0,0-1.776-.7,2.455,2.455,0,0,0-1.23.31,2.388,2.388,0,0,0-.863.8l-1.325-.172,1.114-5.9h5.716v1.349H422.2l-0.62,3.089a3.742,3.742,0,0,1,2.173-.722,3.441,3.441,0,0,1,2.54,1.043,3.648,3.648,0,0,1,1.035,2.682,4.185,4.185,0,0,1-.91,2.7,3.641,3.641,0,0,1-3.019,1.4,3.718,3.718,0,0,1-2.56-.878A3.427,3.427,0,0,1,419.711,186.753Z" transform="translate(-7.032 -4.836)"/><path class="cls-5" d="M428.908,181.029a3.493,3.493,0,0,1,.62-2.093,2.073,2.073,0,0,1,1.795-.863,2.329,2.329,0,0,1,1.792.772,3.928,3.928,0,0,1-.008,4.516,2.3,2.3,0,0,1-1.769.788,2.234,2.234,0,0,1-1.736-.776A3.427,3.427,0,0,1,428.908,181.029Zm2.455-1.984a1.062,1.062,0,0,0-.875.455,2.883,2.883,0,0,0-.349,1.67,2.59,2.59,0,0,0,.353,1.557,1.075,1.075,0,0,0,1.753,0,2.866,2.866,0,0,0,.349-1.663,2.6,2.6,0,0,0-.353-1.564A1.075,1.075,0,0,0,431.363,179.045Zm0.008,11.142,6.288-12.114H438.8l-6.265,12.114h-1.168Zm4.971-3.121a3.49,3.49,0,0,1,.619-2.1,2.086,2.086,0,0,1,1.8-.858,2.329,2.329,0,0,1,1.792.772,3.932,3.932,0,0,1-.008,4.516,2.306,2.306,0,0,1-1.776.788,2.226,2.226,0,0,1-1.736-.78A3.428,3.428,0,0,1,436.342,187.066Zm2.462-1.984a1.068,1.068,0,0,0-.882.455,2.883,2.883,0,0,0-.349,1.67,2.592,2.592,0,0,0,.353,1.553,1.079,1.079,0,0,0,1.76,0,2.857,2.857,0,0,0,.35-1.663,2.6,2.6,0,0,0-.354-1.564A1.072,1.072,0,0,0,438.8,185.082Z" transform="translate(-7.032 -4.836)"/><line class="cls-6" x1="380.782" y1="188.483" x2="453.061" y2="188.483"/><rect class="cls-3" x="515.355" y="193.436" width="72.279" height="2.851"/><line class="cls-6" x1="515.355" y1="193.836" x2="587.609" y2="193.836"/><path class="cls-2" d="M540.986,206.819v-1.356h7.44v1.1a15.7,15.7,0,0,0-2.176,3.1,18.928,18.928,0,0,0-1.666,3.983,14.781,14.781,0,0,0-.541,3.16h-1.45a14.079,14.079,0,0,1,.533-3.277,17.235,17.235,0,0,1,1.462-3.705,15.886,15.886,0,0,1,2.027-3.007h-5.63Z" transform="translate(-7.032 -4.836)"/><path class="cls-2" d="M550.614,216.808V215.2h1.607v1.607h-1.607Z" transform="translate(-7.032 -4.836)"/><path class="cls-2" d="M561.7,215.452v1.356h-7.6a2.492,2.492,0,0,1,.164-0.98,5.193,5.193,0,0,1,.93-1.529,14.527,14.527,0,0,1,1.847-1.741,15.665,15.665,0,0,0,2.532-2.435,2.912,2.912,0,0,0,.659-1.7,1.885,1.885,0,0,0-.6-1.416,2.161,2.161,0,0,0-1.563-.576,2.207,2.207,0,0,0-1.632.611,2.316,2.316,0,0,0-.619,1.694l-1.45-.149a3.566,3.566,0,0,1,1.121-2.474,3.825,3.825,0,0,1,2.611-.851,3.643,3.643,0,0,1,2.618.917,3.011,3.011,0,0,1,.965,2.274,3.444,3.444,0,0,1-.282,1.356,5.27,5.27,0,0,1-.937,1.4,22.726,22.726,0,0,1-2.176,2.023q-1.27,1.066-1.631,1.446a4.7,4.7,0,0,0-.6.765H561.7Z" transform="translate(-7.032 -4.836)"/><path class="cls-2" d="M563.481,208.073a3.493,3.493,0,0,1,.62-2.093,2.073,2.073,0,0,1,1.795-.863,2.329,2.329,0,0,1,1.792.772,3.928,3.928,0,0,1-.008,4.516,2.3,2.3,0,0,1-1.769.788,2.234,2.234,0,0,1-1.736-.776A3.427,3.427,0,0,1,563.481,208.073Zm2.455-1.984a1.062,1.062,0,0,0-.875.455,2.883,2.883,0,0,0-.349,1.67,2.59,2.59,0,0,0,.353,1.557,1.075,1.075,0,0,0,1.753,0,2.866,2.866,0,0,0,.349-1.663,2.6,2.6,0,0,0-.353-1.564A1.075,1.075,0,0,0,565.936,206.09Zm0.008,11.142,6.288-12.114h1.145l-6.265,12.114h-1.168Zm4.971-3.121a3.49,3.49,0,0,1,.619-2.1,2.086,2.086,0,0,1,1.8-.858,2.329,2.329,0,0,1,1.792.772,3.932,3.932,0,0,1-.008,4.516,2.306,2.306,0,0,1-1.776.788,2.226,2.226,0,0,1-1.736-.78A3.428,3.428,0,0,1,570.915,214.111Zm2.462-1.984a1.068,1.068,0,0,0-.882.455,2.883,2.883,0,0,0-.349,1.67,2.592,2.592,0,0,0,.353,1.553,1.079,1.079,0,0,0,1.76,0,2.857,2.857,0,0,0,.35-1.663,2.6,2.6,0,0,0-.354-1.564A1.072,1.072,0,0,0,573.377,212.127Z" transform="translate(-7.032 -4.836)"/><path class="cls-2" d="M543.039,168.81a2.654,2.654,0,0,1-1.3-.917,2.4,2.4,0,0,1-.424-1.427,2.792,2.792,0,0,1,.9-2.109,3.794,3.794,0,0,1,4.822.02,2.828,2.828,0,0,1,.918,2.129,2.34,2.34,0,0,1-.42,1.392,2.645,2.645,0,0,1-1.273.914,3.089,3.089,0,0,1,1.61,1.113,3.055,3.055,0,0,1,.554,1.835,3.3,3.3,0,0,1-1.043,2.478,4.249,4.249,0,0,1-5.489,0,3.351,3.351,0,0,1-1.043-2.513,3.034,3.034,0,0,1,.569-1.878A2.845,2.845,0,0,1,543.039,168.81Zm-0.737,2.917a2.546,2.546,0,0,0,.286,1.168,2.02,2.02,0,0,0,.851.875,2.485,2.485,0,0,0,1.216.31,2.278,2.278,0,0,0,1.67-.651,2.229,2.229,0,0,0,.658-1.654,2.264,2.264,0,0,0-.678-1.686,2.326,2.326,0,0,0-1.7-.667A2.244,2.244,0,0,0,542.3,171.727Zm0.454-5.308a1.793,1.793,0,0,0,.525,1.333,1.864,1.864,0,0,0,1.365.518,1.824,1.824,0,0,0,1.336-.514,1.7,1.7,0,0,0,.521-1.258,1.759,1.759,0,0,0-.537-1.306,1.827,1.827,0,0,0-1.337-.529,1.847,1.847,0,0,0-1.341.518A1.665,1.665,0,0,0,542.756,166.419Z" transform="translate(-7.032 -4.836)"/><path class="cls-2" d="M550.589,175.044v-1.607H552.2v1.607h-1.607Z" transform="translate(-7.032 -4.836)"/><path class="cls-2" d="M554.47,172.385l1.356-.125a2.358,2.358,0,0,0,.659,1.388,1.807,1.807,0,0,0,1.246.431,2.153,2.153,0,0,0,1.142-.3,2.449,2.449,0,0,0,.8-0.8,4.7,4.7,0,0,0,.525-1.345,7.11,7.11,0,0,0,.211-1.725c0-.063,0-0.157-0.008-0.282a3.235,3.235,0,0,1-1.156,1.094,3.145,3.145,0,0,1-1.588.419,3.212,3.212,0,0,1-2.415-1.035,3.79,3.79,0,0,1-.988-2.729,3.878,3.878,0,0,1,1.031-2.815,3.446,3.446,0,0,1,2.584-1.066,3.691,3.691,0,0,1,2.051.6,3.77,3.77,0,0,1,1.411,1.721,8.478,8.478,0,0,1,.482,3.234,10.482,10.482,0,0,1-.479,3.509,4.113,4.113,0,0,1-1.424,1.987,3.681,3.681,0,0,1-2.215.682A3.036,3.036,0,0,1,554.47,172.385Zm5.779-5.073a2.763,2.763,0,0,0-.647-1.929,2.027,2.027,0,0,0-1.556-.713,2.151,2.151,0,0,0-1.64.769,2.848,2.848,0,0,0-.7,1.991,2.462,2.462,0,0,0,.662,1.784,2.184,2.184,0,0,0,1.635.686,2.092,2.092,0,0,0,1.611-.686A2.7,2.7,0,0,0,560.25,167.313Z" transform="translate(-7.032 -4.836)"/><path class="cls-2" d="M563.456,166.309a3.493,3.493,0,0,1,.62-2.093,2.073,2.073,0,0,1,1.795-.863,2.329,2.329,0,0,1,1.792.772,3.928,3.928,0,0,1-.008,4.516,2.3,2.3,0,0,1-1.769.788,2.234,2.234,0,0,1-1.736-.776A3.427,3.427,0,0,1,563.456,166.309Zm2.455-1.984a1.062,1.062,0,0,0-.875.455,2.883,2.883,0,0,0-.349,1.67,2.59,2.59,0,0,0,.353,1.557,1.075,1.075,0,0,0,1.753,0,2.866,2.866,0,0,0,.349-1.663,2.6,2.6,0,0,0-.353-1.564A1.075,1.075,0,0,0,565.911,164.325Zm0.008,11.142,6.288-12.114h1.145l-6.265,12.114h-1.168Zm4.971-3.121a3.49,3.49,0,0,1,.619-2.1,2.086,2.086,0,0,1,1.8-.858,2.329,2.329,0,0,1,1.792.772,3.932,3.932,0,0,1-.008,4.516,2.306,2.306,0,0,1-1.776.788,2.226,2.226,0,0,1-1.736-.78A3.428,3.428,0,0,1,570.889,172.346Zm2.462-1.984a1.068,1.068,0,0,0-.882.455,2.883,2.883,0,0,0-.349,1.67,2.592,2.592,0,0,0,.353,1.553,1.079,1.079,0,0,0,1.76,0,2.857,2.857,0,0,0,.35-1.663,2.6,2.6,0,0,0-.354-1.564A1.072,1.072,0,0,0,573.351,170.363Z" transform="translate(-7.032 -4.836)"/><path class="cls-2" d="M267.293,233.5v-1.419h4.336V233.5h-4.336Z" transform="translate(-7.032 -4.836)"/><path class="cls-2" d="M277.322,236.95V234.2h-4.987V232.9l5.245-7.449h1.153V232.9h1.553V234.2h-1.553v2.752h-1.411Zm0-4.046v-5.183l-3.6,5.183h3.6Z" transform="translate(-7.032 -4.836)"/><path class="cls-2" d="M282.52,236.95v-1.607h1.607v1.607H282.52Z" transform="translate(-7.032 -4.836)"/><path class="cls-2" d="M291.506,236.95h-1.411v-8.994a7.282,7.282,0,0,1-1.337.972,9.492,9.492,0,0,1-1.486.729v-1.364a8.532,8.532,0,0,0,2.07-1.349,5.31,5.31,0,0,0,1.255-1.537h0.909V236.95Z" transform="translate(-7.032 -4.836)"/><path class="cls-2" d="M295.387,228.215a3.492,3.492,0,0,1,.62-2.093,2.072,2.072,0,0,1,1.8-.863,2.33,2.33,0,0,1,1.792.772,3.93,3.93,0,0,1-.008,4.516,2.3,2.3,0,0,1-1.768.788,2.234,2.234,0,0,1-1.737-.776A3.43,3.43,0,0,1,295.387,228.215Zm2.454-1.984a1.061,1.061,0,0,0-.874.455,2.878,2.878,0,0,0-.349,1.67,2.589,2.589,0,0,0,.353,1.557,1.074,1.074,0,0,0,1.752,0,2.866,2.866,0,0,0,.349-1.663,2.608,2.608,0,0,0-.353-1.564A1.075,1.075,0,0,0,297.841,226.231Zm0.008,11.142,6.289-12.114h1.145l-6.265,12.114h-1.168Zm4.971-3.121a3.491,3.491,0,0,1,.62-2.1,2.084,2.084,0,0,1,1.8-.858,2.328,2.328,0,0,1,1.792.772,3.928,3.928,0,0,1-.008,4.516,2.305,2.305,0,0,1-1.776.788,2.228,2.228,0,0,1-1.737-.78A3.431,3.431,0,0,1,302.82,234.253Zm2.462-1.984a1.068,1.068,0,0,0-.882.455,2.878,2.878,0,0,0-.349,1.67,2.591,2.591,0,0,0,.353,1.553,1.079,1.079,0,0,0,1.76,0,2.865,2.865,0,0,0,.349-1.663,2.6,2.6,0,0,0-.353-1.564A1.075,1.075,0,0,0,305.282,232.269Z" transform="translate(-7.032 -4.836)"/></svg>