<svg id="Layer_1" data-name="Layer 1" xmlns="http://www.w3.org/2000/svg" viewBox="0 0 594.693 250.247"><defs><style>.cls-1{fill:#e2d8a8;}.cls-2{fill:#231f20;}.cls-3{fill:#546eb4;}.cls-4{fill:#fff;}</style></defs><title>Correlations_impact_Portfolio_Risk</title><rect class="cls-1" y="23.467" width="594.693" height="226.78"/><path class="cls-2" d="M19.1,13.845l1.632,0.412a5.493,5.493,0,0,1-1.847,3.067,5.089,5.089,0,0,1-3.26,1.056,5.857,5.857,0,0,1-3.244-.812,5.07,5.07,0,0,1-1.9-2.352,8.392,8.392,0,0,1-.652-3.307,7.263,7.263,0,0,1,.736-3.361,5.041,5.041,0,0,1,2.095-2.179,6.123,6.123,0,0,1,2.992-.745,5.06,5.06,0,0,1,3.113.942,4.9,4.9,0,0,1,1.758,2.651L18.919,9.6a3.812,3.812,0,0,0-1.246-1.96,3.32,3.32,0,0,0-2.053-.614,3.987,3.987,0,0,0-2.377.682A3.6,3.6,0,0,0,11.9,9.532a7.36,7.36,0,0,0-.387,2.369,7.527,7.527,0,0,0,.458,2.747A3.416,3.416,0,0,0,13.4,16.4a4,4,0,0,0,2.1.581,3.51,3.51,0,0,0,2.322-.791A4.048,4.048,0,0,0,19.1,13.845Z" transform="translate(-8.974 -5.624)"/><path class="cls-2" d="M21.991,13.7a4.606,4.606,0,0,1,1.38-3.677,4.159,4.159,0,0,1,2.811-.993,4.01,4.01,0,0,1,3.012,1.207,4.6,4.6,0,0,1,1.169,3.336,5.91,5.91,0,0,1-.518,2.714,3.66,3.66,0,0,1-1.506,1.535,4.385,4.385,0,0,1-2.158.547,4.018,4.018,0,0,1-3.034-1.2A4.806,4.806,0,0,1,21.991,13.7Zm1.557,0a3.807,3.807,0,0,0,.749,2.57,2.493,2.493,0,0,0,3.761,0,3.894,3.894,0,0,0,.749-2.617,3.693,3.693,0,0,0-.753-2.512,2.5,2.5,0,0,0-3.757,0A3.79,3.79,0,0,0,23.547,13.7Z" transform="translate(-8.974 -5.624)"/><path class="cls-2" d="M32.122,18.169V9.233h1.363v1.355a3.7,3.7,0,0,1,.963-1.254,1.679,1.679,0,0,1,.972-0.3,2.956,2.956,0,0,1,1.557.488l-0.521,1.405a2.169,2.169,0,0,0-1.111-.328,1.442,1.442,0,0,0-.892.3,1.613,1.613,0,0,0-.563.829,5.894,5.894,0,0,0-.252,1.767v4.678H32.122Z" transform="translate(-8.974 -5.624)"/><path class="cls-2" d="M37.86,18.169V9.233h1.363v1.355a3.7,3.7,0,0,1,.963-1.254,1.679,1.679,0,0,1,.972-0.3,2.956,2.956,0,0,1,1.557.488l-0.521,1.405a2.169,2.169,0,0,0-1.111-.328,1.442,1.442,0,0,0-.892.3,1.613,1.613,0,0,0-.563.829,5.894,5.894,0,0,0-.252,1.767v4.678H37.86Z" transform="translate(-8.974 -5.624)"/><path class="cls-2" d="M49.732,15.292L51.3,15.485a3.82,3.82,0,0,1-1.372,2.129,4.646,4.646,0,0,1-5.667-.45,4.719,4.719,0,0,1-1.149-3.387,4.937,4.937,0,0,1,1.162-3.5,3.93,3.93,0,0,1,3.012-1.245,3.822,3.822,0,0,1,2.928,1.22,4.848,4.848,0,0,1,1.136,3.433q0,0.135-.008.4H44.676a3.431,3.431,0,0,0,.833,2.255,2.479,2.479,0,0,0,1.868.782,2.317,2.317,0,0,0,1.422-.437A2.9,2.9,0,0,0,49.732,15.292ZM44.76,12.843h4.99a3.031,3.031,0,0,0-.572-1.691,2.321,2.321,0,0,0-1.876-.875,2.408,2.408,0,0,0-1.754.7A2.763,2.763,0,0,0,44.76,12.843Z" transform="translate(-8.974 -5.624)"/><path class="cls-2" d="M53.166,18.169V5.834H54.68V18.169H53.166Z" transform="translate(-8.974 -5.624)"/><path class="cls-2" d="M62.859,17.067a5.634,5.634,0,0,1-1.62,1.009,4.682,4.682,0,0,1-1.67.295,3.25,3.25,0,0,1-2.264-.72,2.374,2.374,0,0,1-.791-1.838,2.445,2.445,0,0,1,.3-1.2,2.471,2.471,0,0,1,.783-0.871,3.679,3.679,0,0,1,1.089-.5,10.784,10.784,0,0,1,1.346-.227,13.831,13.831,0,0,0,2.7-.522q0.008-.311.008-0.4a1.672,1.672,0,0,0-.429-1.3,2.536,2.536,0,0,0-1.725-.513,2.675,2.675,0,0,0-1.578.375,2.285,2.285,0,0,0-.753,1.325l-1.481-.2a3.67,3.67,0,0,1,.665-1.536,2.91,2.91,0,0,1,1.338-.9,5.963,5.963,0,0,1,2.028-.315,5.362,5.362,0,0,1,1.859.269,2.452,2.452,0,0,1,1.052.677,2.383,2.383,0,0,1,.471,1.031,8.5,8.5,0,0,1,.076,1.4v2.02a21.453,21.453,0,0,0,.1,2.671,3.366,3.366,0,0,0,.383,1.073H63.162A3.208,3.208,0,0,1,62.859,17.067Zm-0.126-3.383a11.111,11.111,0,0,1-2.474.572,5.744,5.744,0,0,0-1.321.3,1.318,1.318,0,0,0-.6.492,1.339,1.339,0,0,0,.248,1.729,1.974,1.974,0,0,0,1.342.4,3.124,3.124,0,0,0,1.557-.383,2.36,2.36,0,0,0,1-1.048,3.658,3.658,0,0,0,.244-1.515V13.685Z" transform="translate(-8.974 -5.624)"/><path class="cls-2" d="M69.919,16.815l0.219,1.338a5.646,5.646,0,0,1-1.145.134,2.59,2.59,0,0,1-1.279-.261,1.46,1.46,0,0,1-.64-0.686,5.42,5.42,0,0,1-.185-1.788V10.412H65.779V9.233H66.89V7.021L68.4,6.112V9.233h1.523v1.178H68.4v5.225a2.645,2.645,0,0,0,.08.833,0.627,0.627,0,0,0,.261.294,1,1,0,0,0,.517.109A4.954,4.954,0,0,0,69.919,16.815Z" transform="translate(-8.974 -5.624)"/><path class="cls-2" d="M71.408,7.576V5.834h1.514V7.576H71.408Zm0,10.594V9.233h1.514v8.936H71.408Z" transform="translate(-8.974 -5.624)"/><path class="cls-2" d="M74.665,13.7a4.606,4.606,0,0,1,1.38-3.677,4.159,4.159,0,0,1,2.811-.993,4.01,4.01,0,0,1,3.012,1.207,4.6,4.6,0,0,1,1.169,3.336,5.91,5.91,0,0,1-.518,2.714,3.66,3.66,0,0,1-1.506,1.535,4.385,4.385,0,0,1-2.158.547,4.018,4.018,0,0,1-3.034-1.2A4.806,4.806,0,0,1,74.665,13.7Zm1.557,0a3.807,3.807,0,0,0,.749,2.57,2.493,2.493,0,0,0,3.761,0,3.894,3.894,0,0,0,.749-2.617,3.693,3.693,0,0,0-.753-2.512,2.5,2.5,0,0,0-3.757,0A3.79,3.79,0,0,0,76.221,13.7Z" transform="translate(-8.974 -5.624)"/><path class="cls-2" d="M84.812,18.169V9.233h1.363V10.5A3.213,3.213,0,0,1,89.02,9.032a3.734,3.734,0,0,1,1.485.29,2.334,2.334,0,0,1,1.014.762A2.926,2.926,0,0,1,91.99,11.2a8.718,8.718,0,0,1,.084,1.472v5.495H90.559V12.734a4.083,4.083,0,0,0-.177-1.384,1.454,1.454,0,0,0-.627-0.732,1.994,1.994,0,0,0-1.056-.273,2.453,2.453,0,0,0-1.67.614,3.031,3.031,0,0,0-.7,2.331v4.88H84.812Z" transform="translate(-8.974 -5.624)"/><path class="cls-2" d="M98.62,13.7A4.606,4.606,0,0,1,100,10.024a4.159,4.159,0,0,1,2.811-.993,4.01,4.01,0,0,1,3.012,1.207,4.6,4.6,0,0,1,1.169,3.336,5.91,5.91,0,0,1-.518,2.714,3.66,3.66,0,0,1-1.506,1.535,4.385,4.385,0,0,1-2.158.547,4.018,4.018,0,0,1-3.034-1.2A4.806,4.806,0,0,1,98.62,13.7Zm1.557,0a3.807,3.807,0,0,0,.749,2.57,2.493,2.493,0,0,0,3.761,0,3.894,3.894,0,0,0,.749-2.617,3.693,3.693,0,0,0-.753-2.512,2.5,2.5,0,0,0-3.757,0A3.79,3.79,0,0,0,100.177,13.7Z" transform="translate(-8.974 -5.624)"/><path class="cls-2" d="M109.129,18.169V10.412h-1.338V9.233h1.338V8.283a4.152,4.152,0,0,1,.16-1.338,1.935,1.935,0,0,1,.77-0.955,2.772,2.772,0,0,1,1.544-.366,7.408,7.408,0,0,1,1.414.152L112.79,7.1a5.073,5.073,0,0,0-.892-0.084,1.327,1.327,0,0,0-.976.294,1.6,1.6,0,0,0-.286,1.1V9.233h1.742v1.178h-1.742v7.758h-1.506Z" transform="translate(-8.974 -5.624)"/><path class="cls-2" d="M116.231,18.169l4.737-12.335h1.759l5.048,12.335h-1.859l-1.439-3.736h-5.158l-1.355,3.736h-1.733Zm3.56-5.065h4.182l-1.287-3.416q-0.59-1.557-.875-2.558a15.679,15.679,0,0,1-.665,2.356Z" transform="translate(-8.974 -5.624)"/><path class="cls-2" d="M128.28,15.5l1.5-.235a2.093,2.093,0,0,0,.7,1.38,2.448,2.448,0,0,0,1.611.479,2.369,2.369,0,0,0,1.548-.425,1.271,1.271,0,0,0,.5-1A0.92,0.92,0,0,0,133.7,14.9a6.579,6.579,0,0,0-1.548-.514,14.135,14.135,0,0,1-2.31-.728,2.2,2.2,0,0,1-1.308-2.049,2.3,2.3,0,0,1,.273-1.106,2.445,2.445,0,0,1,.745-0.846,3.12,3.12,0,0,1,.963-0.442,4.581,4.581,0,0,1,1.308-.181,5.17,5.17,0,0,1,1.847.3,2.515,2.515,0,0,1,1.174.82,3.206,3.206,0,0,1,.521,1.384l-1.481.2a1.619,1.619,0,0,0-.584-1.077,2.138,2.138,0,0,0-1.367-.387,2.477,2.477,0,0,0-1.49.345,1,1,0,0,0-.446.808,0.834,0.834,0,0,0,.185.53,1.332,1.332,0,0,0,.581.4q0.227,0.084,1.338.387a18.7,18.7,0,0,1,2.243.7,2.28,2.28,0,0,1,1,.8,2.222,2.222,0,0,1,.362,1.3,2.543,2.543,0,0,1-.442,1.426,2.852,2.852,0,0,1-1.275,1.035,4.637,4.637,0,0,1-1.885.366,4.2,4.2,0,0,1-2.655-.724A3.365,3.365,0,0,1,128.28,15.5Z" transform="translate(-8.974 -5.624)"/><path class="cls-2" d="M136.9,15.5l1.5-.235a2.093,2.093,0,0,0,.7,1.38,2.448,2.448,0,0,0,1.611.479,2.369,2.369,0,0,0,1.548-.425,1.271,1.271,0,0,0,.5-1,0.92,0.92,0,0,0-.446-0.808,6.579,6.579,0,0,0-1.548-.514,14.135,14.135,0,0,1-2.31-.728,2.2,2.2,0,0,1-1.308-2.049,2.3,2.3,0,0,1,.273-1.106,2.445,2.445,0,0,1,.745-0.846,3.12,3.12,0,0,1,.963-0.442,4.581,4.581,0,0,1,1.308-.181,5.17,5.17,0,0,1,1.847.3,2.515,2.515,0,0,1,1.174.82,3.206,3.206,0,0,1,.521,1.384l-1.481.2a1.619,1.619,0,0,0-.584-1.077,2.138,2.138,0,0,0-1.367-.387,2.477,2.477,0,0,0-1.49.345,1,1,0,0,0-.446.808,0.834,0.834,0,0,0,.185.53,1.332,1.332,0,0,0,.581.4q0.227,0.084,1.338.387a18.7,18.7,0,0,1,2.243.7,2.28,2.28,0,0,1,1,.8,2.222,2.222,0,0,1,.362,1.3,2.543,2.543,0,0,1-.442,1.426,2.852,2.852,0,0,1-1.275,1.035,4.637,4.637,0,0,1-1.885.366,4.2,4.2,0,0,1-2.655-.724A3.365,3.365,0,0,1,136.9,15.5Z" transform="translate(-8.974 -5.624)"/><path class="cls-2" d="M152.235,15.292l1.565,0.193a3.82,3.82,0,0,1-1.372,2.129,4.646,4.646,0,0,1-5.667-.45,4.719,4.719,0,0,1-1.149-3.387,4.937,4.937,0,0,1,1.162-3.5,3.93,3.93,0,0,1,3.012-1.245,3.822,3.822,0,0,1,2.928,1.22,4.848,4.848,0,0,1,1.136,3.433q0,0.135-.008.4h-6.664a3.431,3.431,0,0,0,.833,2.255,2.479,2.479,0,0,0,1.868.782,2.317,2.317,0,0,0,1.422-.437A2.9,2.9,0,0,0,152.235,15.292Zm-4.973-2.449h4.99a3.031,3.031,0,0,0-.572-1.691,2.321,2.321,0,0,0-1.876-.875,2.408,2.408,0,0,0-1.754.7A2.763,2.763,0,0,0,147.263,12.843Z" transform="translate(-8.974 -5.624)"/><path class="cls-2" d="M159.009,16.815l0.219,1.338a5.646,5.646,0,0,1-1.145.134,2.59,2.59,0,0,1-1.279-.261,1.46,1.46,0,0,1-.64-0.686,5.42,5.42,0,0,1-.185-1.788V10.412h-1.111V9.233h1.111V7.021l1.506-.909V9.233h1.523v1.178h-1.523v5.225a2.645,2.645,0,0,0,.08.833,0.627,0.627,0,0,0,.261.294,1,1,0,0,0,.517.109A4.954,4.954,0,0,0,159.009,16.815Z" transform="translate(-8.974 -5.624)"/><path class="cls-2" d="M174.272,13.845l1.632,0.412a5.493,5.493,0,0,1-1.847,3.067,5.089,5.089,0,0,1-3.26,1.056,5.857,5.857,0,0,1-3.244-.812,5.07,5.07,0,0,1-1.9-2.352A8.392,8.392,0,0,1,165,11.909a7.263,7.263,0,0,1,.736-3.361,5.041,5.041,0,0,1,2.095-2.179,6.123,6.123,0,0,1,2.992-.745,5.06,5.06,0,0,1,3.113.942,4.9,4.9,0,0,1,1.758,2.651l-1.607.378a3.812,3.812,0,0,0-1.246-1.96,3.32,3.32,0,0,0-2.053-.614,3.987,3.987,0,0,0-2.377.682,3.6,3.6,0,0,0-1.342,1.83,7.36,7.36,0,0,0-.387,2.369,7.527,7.527,0,0,0,.458,2.747,3.416,3.416,0,0,0,1.426,1.754,4,4,0,0,0,2.1.581,3.51,3.51,0,0,0,2.322-.791A4.048,4.048,0,0,0,174.272,13.845Z" transform="translate(-8.974 -5.624)"/><path class="cls-2" d="M177.688,18.169V5.834H179.2V18.169h-1.515Z" transform="translate(-8.974 -5.624)"/><path class="cls-2" d="M187.382,17.067a5.634,5.634,0,0,1-1.62,1.009,4.682,4.682,0,0,1-1.67.295,3.25,3.25,0,0,1-2.264-.72,2.374,2.374,0,0,1-.791-1.838,2.445,2.445,0,0,1,.3-1.2,2.471,2.471,0,0,1,.783-0.871,3.679,3.679,0,0,1,1.089-.5,10.784,10.784,0,0,1,1.346-.227,13.831,13.831,0,0,0,2.7-.522q0.008-.311.008-0.4a1.672,1.672,0,0,0-.429-1.3,2.536,2.536,0,0,0-1.725-.513,2.675,2.675,0,0,0-1.578.375,2.285,2.285,0,0,0-.753,1.325l-1.481-.2a3.67,3.67,0,0,1,.665-1.536,2.91,2.91,0,0,1,1.338-.9,5.963,5.963,0,0,1,2.028-.315,5.362,5.362,0,0,1,1.859.269,2.452,2.452,0,0,1,1.052.677,2.383,2.383,0,0,1,.471,1.031,8.5,8.5,0,0,1,.076,1.4v2.02a21.453,21.453,0,0,0,.1,2.671,3.366,3.366,0,0,0,.383,1.073h-1.582A3.208,3.208,0,0,1,187.382,17.067Zm-0.126-3.383a11.111,11.111,0,0,1-2.474.572,5.744,5.744,0,0,0-1.321.3,1.318,1.318,0,0,0-.6.492,1.339,1.339,0,0,0,.248,1.729,1.974,1.974,0,0,0,1.342.4,3.124,3.124,0,0,0,1.557-.383,2.36,2.36,0,0,0,1-1.048,3.658,3.658,0,0,0,.244-1.515V13.685Z" transform="translate(-8.974 -5.624)"/><path class="cls-2" d="M190.529,15.5l1.5-.235a2.093,2.093,0,0,0,.7,1.38,2.448,2.448,0,0,0,1.611.479,2.369,2.369,0,0,0,1.548-.425,1.271,1.271,0,0,0,.5-1,0.92,0.92,0,0,0-.446-0.808,6.579,6.579,0,0,0-1.548-.514,14.135,14.135,0,0,1-2.31-.728,2.2,2.2,0,0,1-1.308-2.049,2.3,2.3,0,0,1,.273-1.106,2.445,2.445,0,0,1,.745-0.846,3.12,3.12,0,0,1,.963-0.442,4.581,4.581,0,0,1,1.308-.181,5.17,5.17,0,0,1,1.847.3,2.515,2.515,0,0,1,1.174.82,3.206,3.206,0,0,1,.521,1.384l-1.481.2a1.619,1.619,0,0,0-.584-1.077,2.138,2.138,0,0,0-1.367-.387,2.477,2.477,0,0,0-1.49.345,1,1,0,0,0-.446.808,0.834,0.834,0,0,0,.185.53,1.332,1.332,0,0,0,.581.4q0.227,0.084,1.338.387a18.7,18.7,0,0,1,2.243.7,2.28,2.28,0,0,1,1,.8,2.222,2.222,0,0,1,.362,1.3,2.543,2.543,0,0,1-.442,1.426,2.852,2.852,0,0,1-1.275,1.035,4.637,4.637,0,0,1-1.885.366,4.2,4.2,0,0,1-2.655-.724A3.365,3.365,0,0,1,190.529,15.5Z" transform="translate(-8.974 -5.624)"/><path class="cls-2" d="M199.146,15.5l1.5-.235a2.093,2.093,0,0,0,.7,1.38,2.448,2.448,0,0,0,1.611.479,2.369,2.369,0,0,0,1.548-.425,1.271,1.271,0,0,0,.5-1,0.92,0.92,0,0,0-.446-0.808,6.579,6.579,0,0,0-1.548-.514,14.135,14.135,0,0,1-2.31-.728,2.2,2.2,0,0,1-1.308-2.049,2.3,2.3,0,0,1,.273-1.106,2.445,2.445,0,0,1,.745-0.846,3.12,3.12,0,0,1,.963-0.442,4.581,4.581,0,0,1,1.308-.181,5.17,5.17,0,0,1,1.847.3,2.515,2.515,0,0,1,1.174.82,3.206,3.206,0,0,1,.521,1.384l-1.481.2a1.619,1.619,0,0,0-.584-1.077,2.138,2.138,0,0,0-1.367-.387,2.477,2.477,0,0,0-1.49.345,1,1,0,0,0-.446.808,0.834,0.834,0,0,0,.185.53,1.332,1.332,0,0,0,.581.4q0.227,0.084,1.338.387a18.7,18.7,0,0,1,2.243.7,2.28,2.28,0,0,1,1,.8,2.222,2.222,0,0,1,.362,1.3,2.543,2.543,0,0,1-.442,1.426,2.852,2.852,0,0,1-1.275,1.035,4.637,4.637,0,0,1-1.885.366,4.2,4.2,0,0,1-2.655-.724A3.365,3.365,0,0,1,199.146,15.5Z" transform="translate(-8.974 -5.624)"/><path class="cls-2" d="M214.484,15.292l1.565,0.193a3.82,3.82,0,0,1-1.372,2.129,4.646,4.646,0,0,1-5.667-.45,4.719,4.719,0,0,1-1.149-3.387,4.937,4.937,0,0,1,1.162-3.5,3.93,3.93,0,0,1,3.012-1.245,3.822,3.822,0,0,1,2.928,1.22,4.848,4.848,0,0,1,1.136,3.433q0,0.135-.008.4h-6.664a3.431,3.431,0,0,0,.833,2.255,2.479,2.479,0,0,0,1.868.782,2.317,2.317,0,0,0,1.422-.437A2.9,2.9,0,0,0,214.484,15.292Zm-4.973-2.449h4.99a3.031,3.031,0,0,0-.572-1.691,2.321,2.321,0,0,0-1.876-.875,2.408,2.408,0,0,0-1.754.7A2.763,2.763,0,0,0,209.512,12.843Z" transform="translate(-8.974 -5.624)"/><path class="cls-2" d="M217.346,15.5l1.5-.235a2.093,2.093,0,0,0,.7,1.38,2.448,2.448,0,0,0,1.611.479,2.369,2.369,0,0,0,1.548-.425,1.271,1.271,0,0,0,.5-1,0.92,0.92,0,0,0-.446-0.808,6.579,6.579,0,0,0-1.548-.514,14.135,14.135,0,0,1-2.31-.728,2.2,2.2,0,0,1-1.308-2.049,2.3,2.3,0,0,1,.273-1.106,2.445,2.445,0,0,1,.745-0.846,3.12,3.12,0,0,1,.963-0.442,4.581,4.581,0,0,1,1.308-.181,5.17,5.17,0,0,1,1.847.3,2.515,2.515,0,0,1,1.174.82,3.206,3.206,0,0,1,.521,1.384l-1.481.2a1.619,1.619,0,0,0-.584-1.077A2.138,2.138,0,0,0,221,10.277a2.477,2.477,0,0,0-1.49.345,1,1,0,0,0-.446.808,0.834,0.834,0,0,0,.185.53,1.332,1.332,0,0,0,.581.4q0.227,0.084,1.338.387a18.7,18.7,0,0,1,2.243.7,2.28,2.28,0,0,1,1,.8,2.222,2.222,0,0,1,.362,1.3,2.543,2.543,0,0,1-.442,1.426,2.852,2.852,0,0,1-1.275,1.035,4.637,4.637,0,0,1-1.885.366,4.2,4.2,0,0,1-2.655-.724A3.365,3.365,0,0,1,217.346,15.5Z" transform="translate(-8.974 -5.624)"/><path class="cls-2" d="M234.25,21.8a15.133,15.133,0,0,1-2.12-3.7,11.618,11.618,0,0,1-.219-8.229,16.127,16.127,0,0,1,2.339-4.241h1.085q-1.018,1.75-1.346,2.5a13.652,13.652,0,0,0-.808,2.423,14.08,14.08,0,0,0-.362,3.164,15.183,15.183,0,0,0,2.516,8.086H234.25Z" transform="translate(-8.974 -5.624)"/><path class="cls-2" d="M242.377,18.169h-1.514V8.518a7.814,7.814,0,0,1-1.435,1.043,10.133,10.133,0,0,1-1.594.783V8.88a9.132,9.132,0,0,0,2.221-1.447A5.694,5.694,0,0,0,241.4,5.784h0.976V18.169Z" transform="translate(-8.974 -5.624)"/><path class="cls-2" d="M246.484,15.317l1.456-.135a2.529,2.529,0,0,0,.707,1.49,1.94,1.94,0,0,0,1.338.462,2.312,2.312,0,0,0,1.224-.319,2.612,2.612,0,0,0,.862-0.854,5,5,0,0,0,.564-1.443,7.607,7.607,0,0,0,.227-1.851q0-.1-0.008-0.3a3.47,3.47,0,0,1-1.241,1.174,3.375,3.375,0,0,1-1.7.45,3.447,3.447,0,0,1-2.592-1.11,4.067,4.067,0,0,1-1.06-2.928,4.162,4.162,0,0,1,1.106-3.021,3.7,3.7,0,0,1,2.772-1.144,3.952,3.952,0,0,1,2.2.648,4.048,4.048,0,0,1,1.515,1.847,9.093,9.093,0,0,1,.518,3.471,11.244,11.244,0,0,1-.513,3.765,4.414,4.414,0,0,1-1.527,2.133,3.955,3.955,0,0,1-2.377.732A3.258,3.258,0,0,1,246.484,15.317Zm6.2-5.444a2.966,2.966,0,0,0-.694-2.07,2.176,2.176,0,0,0-1.67-.766,2.308,2.308,0,0,0-1.759.825A3.057,3.057,0,0,0,247.813,10a2.64,2.64,0,0,0,.711,1.915,2.343,2.343,0,0,0,1.754.736,2.246,2.246,0,0,0,1.729-.736A2.9,2.9,0,0,0,252.685,9.873Z" transform="translate(-8.974 -5.624)"/><path class="cls-2" d="M256.068,15.317l1.456-.135a2.529,2.529,0,0,0,.707,1.49,1.94,1.94,0,0,0,1.338.462,2.312,2.312,0,0,0,1.224-.319,2.612,2.612,0,0,0,.862-0.854,5,5,0,0,0,.564-1.443,7.607,7.607,0,0,0,.227-1.851q0-.1-0.008-0.3a3.47,3.47,0,0,1-1.241,1.174,3.375,3.375,0,0,1-1.7.45,3.447,3.447,0,0,1-2.592-1.11,4.067,4.067,0,0,1-1.06-2.928,4.162,4.162,0,0,1,1.106-3.021,3.7,3.7,0,0,1,2.772-1.144,3.952,3.952,0,0,1,2.2.648,4.048,4.048,0,0,1,1.515,1.847,9.093,9.093,0,0,1,.518,3.471,11.244,11.244,0,0,1-.513,3.765,4.414,4.414,0,0,1-1.527,2.133,3.955,3.955,0,0,1-2.377.732A3.258,3.258,0,0,1,256.068,15.317Zm6.2-5.444a2.966,2.966,0,0,0-.694-2.07,2.176,2.176,0,0,0-1.67-.766,2.308,2.308,0,0,0-1.759.825A3.057,3.057,0,0,0,257.4,10a2.64,2.64,0,0,0,.711,1.915,2.343,2.343,0,0,0,1.754.736,2.246,2.246,0,0,0,1.729-.736A2.9,2.9,0,0,0,262.269,9.873Z" transform="translate(-8.974 -5.624)"/><path class="cls-2" d="M271.129,18.169h-1.514V8.518a7.814,7.814,0,0,1-1.435,1.043,10.133,10.133,0,0,1-1.594.783V8.88a9.132,9.132,0,0,0,2.221-1.447,5.694,5.694,0,0,0,1.346-1.649h0.976V18.169Z" transform="translate(-8.974 -5.624)"/><path class="cls-2" d="M274.84,14.467V12.944h4.653v1.523H274.84Z" transform="translate(-8.974 -5.624)"/><path class="cls-2" d="M288.707,16.714v1.456h-8.154a2.68,2.68,0,0,1,.177-1.052,5.562,5.562,0,0,1,1-1.641,15.637,15.637,0,0,1,1.982-1.868A16.8,16.8,0,0,0,286.427,11a3.127,3.127,0,0,0,.707-1.821,2.023,2.023,0,0,0-.644-1.519,2.323,2.323,0,0,0-1.679-.619,2.365,2.365,0,0,0-1.75.657,2.484,2.484,0,0,0-.665,1.817l-1.557-.16a3.829,3.829,0,0,1,1.2-2.654,4.1,4.1,0,0,1,2.8-.913,3.911,3.911,0,0,1,2.811.984,3.232,3.232,0,0,1,1.035,2.44,3.707,3.707,0,0,1-.3,1.456,5.652,5.652,0,0,1-1.005,1.506,24.573,24.573,0,0,1-2.335,2.171q-1.364,1.145-1.75,1.553a4.967,4.967,0,0,0-.639.82h6.05Z" transform="translate(-8.974 -5.624)"/><path class="cls-2" d="M290.331,12.086a11.283,11.283,0,0,1,.45-3.521,4.374,4.374,0,0,1,1.338-2.057,3.42,3.42,0,0,1,2.234-.724,3.65,3.65,0,0,1,1.742.4,3.332,3.332,0,0,1,1.237,1.153A6.194,6.194,0,0,1,298.1,9.17a12.189,12.189,0,0,1,.278,2.916,11.33,11.33,0,0,1-.446,3.5,4.38,4.38,0,0,1-1.334,2.062,3.42,3.42,0,0,1-2.242.728,3.384,3.384,0,0,1-2.8-1.279Q290.331,15.561,290.331,12.086Zm1.557,0q0,3.037.711,4.043a2.031,2.031,0,0,0,3.509,0q0.71-1.01.711-4.039,0-3.046-.711-4.047a2.111,2.111,0,0,0-1.771-1,1.942,1.942,0,0,0-1.666.884A7.826,7.826,0,0,0,291.888,12.086Z" transform="translate(-8.974 -5.624)"/><path class="cls-2" d="M305.619,18.169h-1.514V8.518a7.814,7.814,0,0,1-1.435,1.043,10.133,10.133,0,0,1-1.594.783V8.88A9.132,9.132,0,0,0,303.3,7.433a5.694,5.694,0,0,0,1.346-1.649h0.976V18.169Z" transform="translate(-8.974 -5.624)"/><path class="cls-2" d="M309.5,14.938l1.591-.135a2.847,2.847,0,0,0,.82,1.746,2.227,2.227,0,0,0,1.553.584,2.417,2.417,0,0,0,1.851-.824,3.109,3.109,0,0,0,.758-2.188,2.808,2.808,0,0,0-.729-2.044,2.536,2.536,0,0,0-1.905-.749,2.64,2.64,0,0,0-1.321.333,2.568,2.568,0,0,0-.926.862l-1.422-.185L310.963,6H317.1V7.45h-4.923l-0.664,3.315a4.014,4.014,0,0,1,2.33-.774,3.692,3.692,0,0,1,2.727,1.119,3.912,3.912,0,0,1,1.11,2.877,4.492,4.492,0,0,1-.976,2.895,3.91,3.91,0,0,1-3.239,1.5,3.992,3.992,0,0,1-2.748-.942A3.683,3.683,0,0,1,309.5,14.938Z" transform="translate(-8.974 -5.624)"/><path class="cls-2" d="M320.5,21.8H319.41a15.18,15.18,0,0,0,2.517-8.086,13.822,13.822,0,0,0-.362-3.139,13.207,13.207,0,0,0-.8-2.423,28.457,28.457,0,0,0-1.355-2.524H320.5a16.127,16.127,0,0,1,2.339,4.241,11.585,11.585,0,0,1-.223,8.229A15.43,15.43,0,0,1,320.5,21.8Z" transform="translate(-8.974 -5.624)"/><path class="cls-2" d="M71.517,91.521V79.185h4.249a10.315,10.315,0,0,1,2.2.177,4.181,4.181,0,0,1,1.809.884,5.023,5.023,0,0,1,1.46,2.107,8.281,8.281,0,0,1,.483,2.933,8.619,8.619,0,0,1-.328,2.491,6.04,6.04,0,0,1-.841,1.8,4.475,4.475,0,0,1-1.123,1.119,4.582,4.582,0,0,1-1.473.618,8.412,8.412,0,0,1-1.981.21H71.517Zm1.632-1.456h2.634a6.4,6.4,0,0,0,1.914-.227A2.742,2.742,0,0,0,78.8,89.2a3.887,3.887,0,0,0,.9-1.561,7.619,7.619,0,0,0,.324-2.377,5.743,5.743,0,0,0-.635-2.975,3.2,3.2,0,0,0-1.544-1.393,6.392,6.392,0,0,0-2.112-.252H73.149v9.424Z" transform="translate(-8.974 -5.624)"/><path class="cls-2" d="M83.129,88.02l1.472-.2a3.154,3.154,0,0,0,.53,1.935,1.667,1.667,0,0,0,1.3.522,1.941,1.941,0,0,0,1.06-.282,1.445,1.445,0,0,0,.614-0.766,5.105,5.105,0,0,0,.168-1.544v-8.5h1.632v8.406a6.128,6.128,0,0,1-.375,2.4,2.663,2.663,0,0,1-1.187,1.3,3.9,3.9,0,0,1-1.906.446,3.217,3.217,0,0,1-2.486-.934A3.853,3.853,0,0,1,83.129,88.02Z" transform="translate(-8.974 -5.624)"/><path class="cls-2" d="M92.855,91.521V79.185h1.632V91.521H92.855Z" transform="translate(-8.974 -5.624)"/><path class="cls-2" d="M96.011,91.521l4.737-12.335h1.759l5.048,12.335H105.7l-1.439-3.736H99.1l-1.355,3.736H96.011Zm3.56-5.065h4.182l-1.287-3.416q-0.59-1.557-.875-2.558a15.679,15.679,0,0,1-.665,2.356Z" transform="translate(-8.974 -5.624)"/><path class="cls-2" d="M64.844,213.146V211.7l5.226-.008v4.578a9.244,9.244,0,0,1-2.482,1.443,7.369,7.369,0,0,1-2.625.484,7,7,0,0,1-3.3-.778,5.145,5.145,0,0,1-2.243-2.251,7.085,7.085,0,0,1-.757-3.29,7.629,7.629,0,0,1,.753-3.361A5.008,5.008,0,0,1,61.58,206.2a6.79,6.79,0,0,1,3.256-.757,6.446,6.446,0,0,1,2.419.434,4.015,4.015,0,0,1,1.7,1.208,5.354,5.354,0,0,1,.934,2.02l-1.472.4a4.563,4.563,0,0,0-.69-1.481,2.837,2.837,0,0,0-1.178-.863,4.322,4.322,0,0,0-1.7-.324,5.005,5.005,0,0,0-1.935.341,3.607,3.607,0,0,0-1.317.9,4.27,4.27,0,0,0-.778,1.22,6.449,6.449,0,0,0-.471,2.482,6.028,6.028,0,0,0,.568,2.76,3.634,3.634,0,0,0,1.653,1.649,5.115,5.115,0,0,0,2.306.539,5.471,5.471,0,0,0,2.07-.408,5.333,5.333,0,0,0,1.531-.871v-2.3H64.844Z" transform="translate(-8.974 -5.624)"/><path class="cls-2" d="M71.979,211.976a6.7,6.7,0,0,1,1.649-4.809,5.607,5.607,0,0,1,4.257-1.738,5.908,5.908,0,0,1,3.08.816,5.331,5.331,0,0,1,2.091,2.276,7.394,7.394,0,0,1,.719,3.311,7.269,7.269,0,0,1-.757,3.357,5.169,5.169,0,0,1-2.146,2.242,6.13,6.13,0,0,1-3,.762,5.836,5.836,0,0,1-3.113-.841,5.413,5.413,0,0,1-2.078-2.3A6.961,6.961,0,0,1,71.979,211.976ZM73.662,212a4.942,4.942,0,0,0,1.2,3.513A4.183,4.183,0,0,0,80.9,215.5a5.238,5.238,0,0,0,1.19-3.677,6.319,6.319,0,0,0-.509-2.629,3.91,3.91,0,0,0-1.489-1.742,4.037,4.037,0,0,0-2.2-.619,4.174,4.174,0,0,0-2.982,1.19A5.319,5.319,0,0,0,73.662,212Z" transform="translate(-8.974 -5.624)"/><path class="cls-2" d="M85.813,217.984V205.648h1.632v10.88H93.52v1.456H85.813Z" transform="translate(-8.974 -5.624)"/><path class="cls-2" d="M95.464,217.984V205.648h4.249a10.315,10.315,0,0,1,2.2.177,4.181,4.181,0,0,1,1.809.884,5.023,5.023,0,0,1,1.46,2.107,8.281,8.281,0,0,1,.483,2.933,8.619,8.619,0,0,1-.328,2.491,6.04,6.04,0,0,1-.841,1.8,4.475,4.475,0,0,1-1.123,1.119,4.582,4.582,0,0,1-1.473.618,8.412,8.412,0,0,1-1.981.21H95.464Zm1.632-1.456H99.73a6.4,6.4,0,0,0,1.914-.227,2.742,2.742,0,0,0,1.106-.64,3.887,3.887,0,0,0,.9-1.561,7.619,7.619,0,0,0,.324-2.377,5.743,5.743,0,0,0-.635-2.975,3.2,3.2,0,0,0-1.544-1.393,6.392,6.392,0,0,0-2.112-.252H97.1v9.424Z" transform="translate(-8.974 -5.624)"/><path class="cls-2" d="M130.252,58.32V45.984H134.5a10.315,10.315,0,0,1,2.2.177,4.181,4.181,0,0,1,1.809.884,5.023,5.023,0,0,1,1.46,2.107,8.281,8.281,0,0,1,.483,2.933,8.619,8.619,0,0,1-.328,2.491,6.04,6.04,0,0,1-.841,1.8,4.475,4.475,0,0,1-1.123,1.119,4.582,4.582,0,0,1-1.473.618,8.412,8.412,0,0,1-1.981.21h-4.451Zm1.632-1.456h2.634a6.4,6.4,0,0,0,1.914-.227,2.742,2.742,0,0,0,1.106-.64,3.887,3.887,0,0,0,.9-1.561,7.619,7.619,0,0,0,.324-2.377,5.743,5.743,0,0,0-.635-2.975,3.2,3.2,0,0,0-1.544-1.393,6.392,6.392,0,0,0-2.112-.252h-2.591v9.424Z" transform="translate(-8.974 -5.624)"/><path class="cls-2" d="M141.864,54.819l1.472-.2a3.154,3.154,0,0,0,.53,1.935,1.667,1.667,0,0,0,1.3.522,1.941,1.941,0,0,0,1.06-.282,1.445,1.445,0,0,0,.614-0.766,5.105,5.105,0,0,0,.168-1.544v-8.5h1.632V54.39a6.128,6.128,0,0,1-.375,2.4,2.663,2.663,0,0,1-1.187,1.3,3.9,3.9,0,0,1-1.906.446,3.217,3.217,0,0,1-2.486-.934A3.853,3.853,0,0,1,141.864,54.819Z" transform="translate(-8.974 -5.624)"/><path class="cls-2" d="M151.591,58.32V45.984h1.632V58.32h-1.632Z" transform="translate(-8.974 -5.624)"/><path class="cls-2" d="M154.746,58.32l4.737-12.335h1.759l5.048,12.335h-1.859l-1.439-3.736h-5.158l-1.355,3.736h-1.733Zm3.56-5.065h4.182L161.2,49.838q-0.59-1.557-.875-2.558a15.679,15.679,0,0,1-.665,2.356Z" transform="translate(-8.974 -5.624)"/><path class="cls-2" d="M203.68,54.357l1.54-.135a3.4,3.4,0,0,0,.509,1.519,2.781,2.781,0,0,0,1.241.959,4.707,4.707,0,0,0,1.894.366,4.536,4.536,0,0,0,1.649-.277,2.288,2.288,0,0,0,1.064-.762,1.764,1.764,0,0,0,.349-1.056,1.607,1.607,0,0,0-.336-1.014,2.5,2.5,0,0,0-1.111-.728,21.877,21.877,0,0,0-2.2-.6,11.178,11.178,0,0,1-2.381-.77,3.328,3.328,0,0,1-1.317-1.148,2.813,2.813,0,0,1-.434-1.536,3.133,3.133,0,0,1,.53-1.746,3.284,3.284,0,0,1,1.548-1.233,5.876,5.876,0,0,1,2.263-.421,6.187,6.187,0,0,1,2.419.442,3.49,3.49,0,0,1,1.611,1.3,3.732,3.732,0,0,1,.605,1.943l-1.565.118a2.524,2.524,0,0,0-.854-1.767,3.323,3.323,0,0,0-2.15-.6,3.45,3.45,0,0,0-2.158.543,1.627,1.627,0,0,0-.677,1.308,1.4,1.4,0,0,0,.479,1.094,6.5,6.5,0,0,0,2.461.879,16.3,16.3,0,0,1,2.73.787,3.737,3.737,0,0,1,1.59,1.258,3.064,3.064,0,0,1,.514,1.754,3.356,3.356,0,0,1-.564,1.855,3.716,3.716,0,0,1-1.62,1.354,5.648,5.648,0,0,1-2.377.484,7.1,7.1,0,0,1-2.806-.488,3.923,3.923,0,0,1-1.775-1.468A4.162,4.162,0,0,1,203.68,54.357Z" transform="translate(-8.974 -5.624)"/><path class="cls-2" d="M222.587,56.864a5.17,5.17,0,0,1-1.632,1.25,4.427,4.427,0,0,1-1.91.417,3.774,3.774,0,0,1-3-1.279,3.479,3.479,0,0,1-.9-2.331,3.226,3.226,0,0,1,.736-2.065,6.147,6.147,0,0,1,2.2-1.62,7.368,7.368,0,0,1-1.111-1.557,2.729,2.729,0,0,1-.278-1.153,2.57,2.57,0,0,1,.871-1.931,3.071,3.071,0,0,1,2.192-.821,2.854,2.854,0,0,1,2.065.774,2.49,2.49,0,0,1,.8,1.859q0,1.759-2.331,3L222.5,54.23a7,7,0,0,0,.589-1.716l1.574,0.336a8.587,8.587,0,0,1-1.094,2.659A8.8,8.8,0,0,0,225.5,57.4l-1.019,1.2A8.813,8.813,0,0,1,222.587,56.864Zm-0.951-1.195-2.777-3.441a5.316,5.316,0,0,0-1.658,1.359,2.19,2.19,0,0,0-.429,1.241,2.64,2.64,0,0,0,.6,1.557,1.981,1.981,0,0,0,1.691.808,2.8,2.8,0,0,0,1.409-.425A3.425,3.425,0,0,0,221.636,55.669Zm-2.129-5.234a4.025,4.025,0,0,0,1.275-1.018,1.714,1.714,0,0,0,.29-0.968,1.4,1.4,0,0,0-.4-1.031,1.355,1.355,0,0,0-1-.4,1.41,1.41,0,0,0-1.022.4,1.3,1.3,0,0,0-.408.968,1.425,1.425,0,0,0,.147.6,3.161,3.161,0,0,0,.441.669Z" transform="translate(-8.974 -5.624)"/><path class="cls-2" d="M227.223,58.32V45.984h4.653a11.222,11.222,0,0,1,1.876.118,3.713,3.713,0,0,1,1.523.576,3.022,3.022,0,0,1,.989,1.19,4.015,4.015,0,0,1-.627,4.346q-1,1.09-3.618,1.089h-3.164V58.32h-1.632Zm1.632-6.471h3.189a3.383,3.383,0,0,0,2.247-.589,2.1,2.1,0,0,0,.665-1.658,2.231,2.231,0,0,0-.391-1.325,1.832,1.832,0,0,0-1.031-.728,6.987,6.987,0,0,0-1.523-.109h-3.155v4.409Z" transform="translate(-8.974 -5.624)"/><path class="cls-2" d="M242.579,55.089l1.59-.135a2.852,2.852,0,0,0,.82,1.746,2.228,2.228,0,0,0,1.552.584,2.417,2.417,0,0,0,1.851-.824,3.108,3.108,0,0,0,.757-2.188,2.809,2.809,0,0,0-.728-2.044,2.538,2.538,0,0,0-1.906-.749,2.64,2.64,0,0,0-1.321.333,2.568,2.568,0,0,0-.926.862l-1.422-.185,1.195-6.336h6.134V47.6h-4.922l-0.665,3.315a4.018,4.018,0,0,1,2.331-.774,3.692,3.692,0,0,1,2.726,1.119,3.913,3.913,0,0,1,1.111,2.877,4.492,4.492,0,0,1-.976,2.895,3.911,3.911,0,0,1-3.24,1.5,3.989,3.989,0,0,1-2.747-.942A3.677,3.677,0,0,1,242.579,55.089Z" transform="translate(-8.974 -5.624)"/><path class="cls-2" d="M252.163,52.236a11.283,11.283,0,0,1,.45-3.521,4.374,4.374,0,0,1,1.338-2.057,3.42,3.42,0,0,1,2.234-.724,3.65,3.65,0,0,1,1.742.4,3.332,3.332,0,0,1,1.237,1.153,6.194,6.194,0,0,1,.766,1.834,12.189,12.189,0,0,1,.278,2.916,11.33,11.33,0,0,1-.446,3.5,4.38,4.38,0,0,1-1.334,2.062,3.42,3.42,0,0,1-2.242.728,3.384,3.384,0,0,1-2.8-1.279Q252.163,55.711,252.163,52.236Zm1.557,0q0,3.037.711,4.043a2.031,2.031,0,0,0,3.509,0q0.71-1.01.711-4.039,0-3.046-.711-4.047a2.111,2.111,0,0,0-1.771-1,1.942,1.942,0,0,0-1.666.884A7.826,7.826,0,0,0,253.719,52.236Z" transform="translate(-8.974 -5.624)"/><path class="cls-2" d="M261.747,52.236a11.283,11.283,0,0,1,.45-3.521,4.374,4.374,0,0,1,1.338-2.057,3.42,3.42,0,0,1,2.234-.724,3.65,3.65,0,0,1,1.742.4,3.332,3.332,0,0,1,1.237,1.153,6.194,6.194,0,0,1,.766,1.834,12.189,12.189,0,0,1,.278,2.916,11.33,11.33,0,0,1-.446,3.5,4.38,4.38,0,0,1-1.334,2.062,3.42,3.42,0,0,1-2.242.728,3.384,3.384,0,0,1-2.8-1.279Q261.747,55.711,261.747,52.236Zm1.557,0q0,3.037.711,4.043a2.031,2.031,0,0,0,3.509,0q0.71-1.01.711-4.039,0-3.046-.711-4.047a2.111,2.111,0,0,0-1.771-1,1.942,1.942,0,0,0-1.666.884A7.826,7.826,0,0,0,263.3,52.236Z" transform="translate(-8.974 -5.624)"/><path class="cls-2" d="M313.2,58.32V45.984h8.919V47.44h-7.287v3.778h6.824v1.447h-6.824v4.2h7.573V58.32H313.2Z" transform="translate(-8.974 -5.624)"/><path class="cls-2" d="M323.306,58.32l4.737-12.335H329.8l5.049,12.335h-1.86l-1.438-3.736h-5.158l-1.354,3.736h-1.733Zm3.56-5.065h4.182l-1.287-3.416q-0.589-1.557-.875-2.558a15.739,15.739,0,0,1-.665,2.356Z" transform="translate(-8.974 -5.624)"/><path class="cls-2" d="M336.239,58.32V45.984h8.321V47.44h-6.689v3.82h5.789v1.456h-5.789v5.6h-1.632Z" transform="translate(-8.974 -5.624)"/><path class="cls-2" d="M346.715,58.32V45.984h8.919V47.44h-7.287v3.778h6.824v1.447h-6.824v4.2h7.573V58.32h-9.205Z" transform="translate(-8.974 -5.624)"/><path class="cls-2" d="M395.224,58.32V45.984h1.633v10.88h6.075V58.32h-7.708Z" transform="translate(-8.974 -5.624)"/><path class="cls-2" d="M404.808,58.32V45.984h4.628a5.729,5.729,0,0,1,2.268.375,2.913,2.913,0,0,1,1.338,1.153,3.033,3.033,0,0,1,.484,1.628,2.8,2.8,0,0,1-.43,1.49,3.067,3.067,0,0,1-1.295,1.127,3.226,3.226,0,0,1,1.721,1.119,3,3,0,0,1,.6,1.868,3.6,3.6,0,0,1-.366,1.611,3.123,3.123,0,0,1-.9,1.148,3.781,3.781,0,0,1-1.351.61,8.233,8.233,0,0,1-1.99.206h-4.7Zm1.633-7.152h2.667a5.933,5.933,0,0,0,1.557-.143,1.73,1.73,0,0,0,.938-0.614,1.772,1.772,0,0,0,.315-1.077,1.985,1.985,0,0,0-.294-1.082,1.5,1.5,0,0,0-.842-0.639,7.016,7.016,0,0,0-1.876-.173H406.44v3.728Zm0,5.7h3.071a7.02,7.02,0,0,0,1.11-.059,2.655,2.655,0,0,0,.942-0.336,1.788,1.788,0,0,0,.623-0.686,2.152,2.152,0,0,0,.244-1.039,2.051,2.051,0,0,0-.354-1.2,1.863,1.863,0,0,0-.98-0.715,6.069,6.069,0,0,0-1.8-.206H406.44v4.241Z" transform="translate(-8.974 -5.624)"/><path class="cls-2" d="M415.04,58.53l3.576-12.756h1.212L416.26,58.53h-1.22Z" transform="translate(-8.974 -5.624)"/><path class="cls-2" d="M421.09,58.32V45.984h4.628a5.729,5.729,0,0,1,2.268.375,2.913,2.913,0,0,1,1.338,1.153,3.033,3.033,0,0,1,.484,1.628,2.8,2.8,0,0,1-.43,1.49,3.067,3.067,0,0,1-1.295,1.127,3.226,3.226,0,0,1,1.721,1.119,3,3,0,0,1,.6,1.868,3.6,3.6,0,0,1-.366,1.611,3.123,3.123,0,0,1-.9,1.148,3.781,3.781,0,0,1-1.351.61,8.233,8.233,0,0,1-1.99.206h-4.7Zm1.633-7.152h2.667a5.933,5.933,0,0,0,1.557-.143,1.73,1.73,0,0,0,.938-0.614,1.772,1.772,0,0,0,.315-1.077,1.985,1.985,0,0,0-.294-1.082,1.5,1.5,0,0,0-.842-0.639,7.016,7.016,0,0,0-1.876-.173h-2.466v3.728Zm0,5.7h3.071a7.02,7.02,0,0,0,1.11-.059,2.655,2.655,0,0,0,.942-0.336,1.788,1.788,0,0,0,.623-0.686,2.152,2.152,0,0,0,.244-1.039,2.051,2.051,0,0,0-.354-1.2,1.863,1.863,0,0,0-.98-0.715,6.069,6.069,0,0,0-1.8-.206h-2.853v4.241Z" transform="translate(-8.974 -5.624)"/><path class="cls-2" d="M443.212,53.481V52.034l5.226-.008V56.6a9.251,9.251,0,0,1-2.482,1.443,7.367,7.367,0,0,1-2.625.484,7,7,0,0,1-3.3-.778,5.144,5.144,0,0,1-2.242-2.251,7.086,7.086,0,0,1-.758-3.29,7.635,7.635,0,0,1,.753-3.361,5.009,5.009,0,0,1,2.167-2.318,6.79,6.79,0,0,1,3.256-.757,6.453,6.453,0,0,1,2.42.434,4.016,4.016,0,0,1,1.7,1.208,5.354,5.354,0,0,1,.934,2.02l-1.473.4a4.553,4.553,0,0,0-.689-1.481,2.842,2.842,0,0,0-1.178-.863,4.325,4.325,0,0,0-1.7-.324,5.008,5.008,0,0,0-1.936.341,3.613,3.613,0,0,0-1.316.9,4.26,4.26,0,0,0-.778,1.22,6.449,6.449,0,0,0-.472,2.482,6.021,6.021,0,0,0,.568,2.76,3.636,3.636,0,0,0,1.653,1.649,5.115,5.115,0,0,0,2.306.539,5.473,5.473,0,0,0,2.07-.408,5.353,5.353,0,0,0,1.531-.871v-2.3h-3.627Z" transform="translate(-8.974 -5.624)"/><path class="cls-2" d="M459.646,54l1.632,0.412a5.487,5.487,0,0,1-1.847,3.067,5.087,5.087,0,0,1-3.261,1.056,5.857,5.857,0,0,1-3.243-.812,5.069,5.069,0,0,1-1.9-2.352,8.375,8.375,0,0,1-.652-3.307,7.263,7.263,0,0,1,.736-3.361,5.036,5.036,0,0,1,2.095-2.179,6.122,6.122,0,0,1,2.991-.745,5.057,5.057,0,0,1,3.113.942,4.895,4.895,0,0,1,1.759,2.651l-1.607.378a3.814,3.814,0,0,0-1.245-1.96,3.32,3.32,0,0,0-2.053-.614,3.986,3.986,0,0,0-2.377.682,3.6,3.6,0,0,0-1.343,1.83,7.373,7.373,0,0,0-.387,2.369,7.526,7.526,0,0,0,.459,2.747,3.418,3.418,0,0,0,1.426,1.754,4,4,0,0,0,2.1.581,3.513,3.513,0,0,0,2.322-.791A4.047,4.047,0,0,0,459.646,54Z" transform="translate(-8.974 -5.624)"/><path class="cls-2" d="M39.644,118.541l1.54-.135a3.4,3.4,0,0,0,.509,1.519,2.781,2.781,0,0,0,1.241.959,4.707,4.707,0,0,0,1.894.366,4.536,4.536,0,0,0,1.649-.277,2.288,2.288,0,0,0,1.064-.762,1.764,1.764,0,0,0,.349-1.056,1.607,1.607,0,0,0-.336-1.014,2.5,2.5,0,0,0-1.111-.728,21.877,21.877,0,0,0-2.2-.6,11.178,11.178,0,0,1-2.381-.77,3.328,3.328,0,0,1-1.317-1.148,2.813,2.813,0,0,1-.434-1.536,3.133,3.133,0,0,1,.53-1.746,3.284,3.284,0,0,1,1.548-1.233,5.876,5.876,0,0,1,2.263-.421,6.187,6.187,0,0,1,2.419.442,3.49,3.49,0,0,1,1.611,1.3,3.732,3.732,0,0,1,.605,1.943l-1.565.118a2.524,2.524,0,0,0-.854-1.767,3.323,3.323,0,0,0-2.15-.6,3.45,3.45,0,0,0-2.158.543,1.627,1.627,0,0,0-.677,1.308,1.4,1.4,0,0,0,.479,1.094,6.5,6.5,0,0,0,2.461.879,16.3,16.3,0,0,1,2.73.787,3.737,3.737,0,0,1,1.59,1.258,3.064,3.064,0,0,1,.514,1.754,3.356,3.356,0,0,1-.564,1.855,3.716,3.716,0,0,1-1.62,1.354,5.648,5.648,0,0,1-2.377.484,7.1,7.1,0,0,1-2.806-.488,3.923,3.923,0,0,1-1.775-1.468A4.162,4.162,0,0,1,39.644,118.541Z" transform="translate(-8.974 -5.624)"/><path class="cls-2" d="M58.55,121.048a5.17,5.17,0,0,1-1.632,1.25,4.427,4.427,0,0,1-1.91.417,3.774,3.774,0,0,1-3-1.279,3.479,3.479,0,0,1-.9-2.331,3.226,3.226,0,0,1,.736-2.065,6.147,6.147,0,0,1,2.2-1.62,7.368,7.368,0,0,1-1.111-1.557,2.729,2.729,0,0,1-.278-1.153,2.57,2.57,0,0,1,.871-1.931,3.071,3.071,0,0,1,2.192-.821,2.854,2.854,0,0,1,2.065.774,2.49,2.49,0,0,1,.8,1.859q0,1.759-2.331,3l2.213,2.819a7,7,0,0,0,.589-1.716l1.574,0.336a8.587,8.587,0,0,1-1.094,2.659,8.8,8.8,0,0,0,1.927,1.894l-1.019,1.2A8.813,8.813,0,0,1,58.55,121.048ZM57.6,119.854l-2.777-3.441a5.316,5.316,0,0,0-1.658,1.359,2.19,2.19,0,0,0-.429,1.241,2.64,2.64,0,0,0,.6,1.557,1.981,1.981,0,0,0,1.691.808,2.8,2.8,0,0,0,1.409-.425A3.425,3.425,0,0,0,57.6,119.854Zm-2.129-5.234a4.025,4.025,0,0,0,1.275-1.018,1.714,1.714,0,0,0,.29-0.968,1.4,1.4,0,0,0-.4-1.031,1.355,1.355,0,0,0-1-.4,1.41,1.41,0,0,0-1.022.4,1.3,1.3,0,0,0-.408.968,1.425,1.425,0,0,0,.147.6,3.161,3.161,0,0,0,.441.669Z" transform="translate(-8.974 -5.624)"/><path class="cls-2" d="M63.187,122.5V110.168h4.653a11.222,11.222,0,0,1,1.876.118,3.713,3.713,0,0,1,1.523.576,3.022,3.022,0,0,1,.989,1.19A4.015,4.015,0,0,1,71.6,116.4q-1,1.09-3.618,1.089H64.819V122.5H63.187Zm1.632-6.471h3.189a3.383,3.383,0,0,0,2.247-.589,2.1,2.1,0,0,0,.665-1.658,2.231,2.231,0,0,0-.391-1.325,1.832,1.832,0,0,0-1.031-.728,6.987,6.987,0,0,0-1.523-.109H64.819v4.409Z" transform="translate(-8.974 -5.624)"/><path class="cls-2" d="M78.542,119.273l1.59-.135a2.852,2.852,0,0,0,.82,1.746,2.228,2.228,0,0,0,1.552.584,2.417,2.417,0,0,0,1.851-.824,3.108,3.108,0,0,0,.757-2.188,2.809,2.809,0,0,0-.728-2.044,2.538,2.538,0,0,0-1.906-.749,2.64,2.64,0,0,0-1.321.333,2.568,2.568,0,0,0-.926.862l-1.422-.185,1.195-6.336H86.14v1.447H81.218L80.553,115.1a4.018,4.018,0,0,1,2.331-.774,3.692,3.692,0,0,1,2.726,1.119,3.913,3.913,0,0,1,1.111,2.877,4.492,4.492,0,0,1-.976,2.895,3.911,3.911,0,0,1-3.24,1.5,3.989,3.989,0,0,1-2.747-.942A3.677,3.677,0,0,1,78.542,119.273Z" transform="translate(-8.974 -5.624)"/><path class="cls-2" d="M88.126,116.42a11.283,11.283,0,0,1,.45-3.521,4.374,4.374,0,0,1,1.338-2.057,3.42,3.42,0,0,1,2.234-.724,3.65,3.65,0,0,1,1.742.4,3.332,3.332,0,0,1,1.237,1.153,6.194,6.194,0,0,1,.766,1.834,12.189,12.189,0,0,1,.278,2.916,11.33,11.33,0,0,1-.446,3.5,4.38,4.38,0,0,1-1.334,2.062,3.42,3.42,0,0,1-2.242.728,3.384,3.384,0,0,1-2.8-1.279Q88.126,119.9,88.126,116.42Zm1.557,0q0,3.037.711,4.043a2.031,2.031,0,0,0,3.509,0q0.71-1.01.711-4.039,0-3.046-.711-4.047a2.111,2.111,0,0,0-1.771-1,1.942,1.942,0,0,0-1.666.884A7.826,7.826,0,0,0,89.683,116.42Z" transform="translate(-8.974 -5.624)"/><path class="cls-2" d="M97.71,116.42a11.283,11.283,0,0,1,.45-3.521,4.374,4.374,0,0,1,1.338-2.057,3.42,3.42,0,0,1,2.234-.724,3.65,3.65,0,0,1,1.742.4,3.332,3.332,0,0,1,1.237,1.153,6.194,6.194,0,0,1,.766,1.834,12.189,12.189,0,0,1,.278,2.916,11.33,11.33,0,0,1-.446,3.5,4.38,4.38,0,0,1-1.334,2.062,3.42,3.42,0,0,1-2.242.728,3.384,3.384,0,0,1-2.8-1.279Q97.71,119.9,97.71,116.42Zm1.557,0q0,3.037.711,4.043a2.031,2.031,0,0,0,3.509,0q0.71-1.01.711-4.039,0-3.046-.711-4.047a2.111,2.111,0,0,0-1.771-1,1.942,1.942,0,0,0-1.666.884A7.826,7.826,0,0,0,99.267,116.42Z" transform="translate(-8.974 -5.624)"/><path class="cls-2" d="M62.935,154.986V142.65h8.919v1.456H64.567v3.778h6.824v1.447H64.567v4.2H72.14v1.456H62.935Z" transform="translate(-8.974 -5.624)"/><path class="cls-2" d="M73.04,154.986l4.737-12.335h1.759l5.048,12.335H82.725l-1.439-3.736H76.128l-1.355,3.736H73.04Zm3.56-5.065h4.182L79.494,146.5q-0.59-1.557-.875-2.558a15.679,15.679,0,0,1-.665,2.356Z" transform="translate(-8.974 -5.624)"/><path class="cls-2" d="M85.972,154.986V142.65h8.322v1.456H87.6v3.82h5.789v1.456H87.6v5.6H85.972Z" transform="translate(-8.974 -5.624)"/><path class="cls-2" d="M96.448,154.986V142.65h8.919v1.456H98.081v3.778H104.9v1.447H98.081v4.2h7.573v1.456H96.448Z" transform="translate(-8.974 -5.624)"/><path class="cls-2" d="M39.846,188V175.665h1.632v10.88h6.075V188H39.846Z" transform="translate(-8.974 -5.624)"/><path class="cls-2" d="M49.43,188V175.665h4.628a5.729,5.729,0,0,1,2.268.375,2.916,2.916,0,0,1,1.338,1.153,3.041,3.041,0,0,1,.484,1.628,2.8,2.8,0,0,1-.429,1.49,3.067,3.067,0,0,1-1.3,1.127,3.22,3.22,0,0,1,1.721,1.119,3,3,0,0,1,.6,1.868,3.606,3.606,0,0,1-.366,1.611,3.119,3.119,0,0,1-.9,1.148,3.773,3.773,0,0,1-1.351.61,8.226,8.226,0,0,1-1.99.206h-4.7Zm1.632-7.152h2.667a5.938,5.938,0,0,0,1.557-.143,1.73,1.73,0,0,0,.938-0.614,1.769,1.769,0,0,0,.315-1.077,1.985,1.985,0,0,0-.294-1.082,1.489,1.489,0,0,0-.841-0.639,7.015,7.015,0,0,0-1.876-.173H51.062v3.728Zm0,5.7h3.071a7.02,7.02,0,0,0,1.11-.059,2.661,2.661,0,0,0,.943-0.336,1.794,1.794,0,0,0,.623-0.686,2.146,2.146,0,0,0,.244-1.039,2.05,2.05,0,0,0-.353-1.2,1.864,1.864,0,0,0-.98-0.715,6.069,6.069,0,0,0-1.8-.206H51.062v4.241Z" transform="translate(-8.974 -5.624)"/><path class="cls-2" d="M59.661,188.211l3.576-12.756h1.211l-3.567,12.756h-1.22Z" transform="translate(-8.974 -5.624)"/><path class="cls-2" d="M65.711,188V175.665h4.628a5.729,5.729,0,0,1,2.268.375,2.916,2.916,0,0,1,1.338,1.153,3.041,3.041,0,0,1,.484,1.628A2.8,2.8,0,0,1,74,180.31a3.067,3.067,0,0,1-1.3,1.127,3.22,3.22,0,0,1,1.721,1.119,3,3,0,0,1,.6,1.868,3.606,3.606,0,0,1-.366,1.611,3.119,3.119,0,0,1-.9,1.148,3.773,3.773,0,0,1-1.351.61,8.226,8.226,0,0,1-1.99.206h-4.7Zm1.632-7.152h2.667a5.938,5.938,0,0,0,1.557-.143,1.73,1.73,0,0,0,.938-0.614,1.769,1.769,0,0,0,.315-1.077,1.985,1.985,0,0,0-.294-1.082,1.489,1.489,0,0,0-.841-0.639,7.015,7.015,0,0,0-1.876-.173H67.343v3.728Zm0,5.7h3.071a7.02,7.02,0,0,0,1.11-.059,2.661,2.661,0,0,0,.943-0.336,1.794,1.794,0,0,0,.623-0.686,2.146,2.146,0,0,0,.244-1.039,2.05,2.05,0,0,0-.353-1.2A1.864,1.864,0,0,0,72,182.51a6.069,6.069,0,0,0-1.8-.206H67.343v4.241Z" transform="translate(-8.974 -5.624)"/><path class="cls-2" d="M87.832,183.162v-1.447l5.226-.008v4.578a9.244,9.244,0,0,1-2.482,1.443,7.369,7.369,0,0,1-2.625.484,7,7,0,0,1-3.3-.778,5.145,5.145,0,0,1-2.243-2.251,7.085,7.085,0,0,1-.757-3.29,7.629,7.629,0,0,1,.753-3.361,5.008,5.008,0,0,1,2.167-2.318,6.79,6.79,0,0,1,3.256-.757,6.446,6.446,0,0,1,2.419.434,4.015,4.015,0,0,1,1.7,1.208,5.354,5.354,0,0,1,.934,2.02l-1.472.4a4.563,4.563,0,0,0-.69-1.481,2.837,2.837,0,0,0-1.178-.863,4.322,4.322,0,0,0-1.7-.324,5.005,5.005,0,0,0-1.935.341,3.607,3.607,0,0,0-1.317.9,4.27,4.27,0,0,0-.778,1.22,6.449,6.449,0,0,0-.471,2.482,6.028,6.028,0,0,0,.568,2.76,3.634,3.634,0,0,0,1.653,1.649,5.115,5.115,0,0,0,2.306.539,5.471,5.471,0,0,0,2.07-.408,5.333,5.333,0,0,0,1.531-.871v-2.3H87.832Z" transform="translate(-8.974 -5.624)"/><path class="cls-2" d="M104.265,183.676l1.632,0.412a5.493,5.493,0,0,1-1.847,3.067,5.089,5.089,0,0,1-3.26,1.056,5.857,5.857,0,0,1-3.244-.812,5.07,5.07,0,0,1-1.9-2.352,8.392,8.392,0,0,1-.652-3.307,7.263,7.263,0,0,1,.736-3.361,5.041,5.041,0,0,1,2.095-2.179,6.123,6.123,0,0,1,2.992-.745,5.06,5.06,0,0,1,3.113.942,4.9,4.9,0,0,1,1.758,2.651l-1.607.378a3.812,3.812,0,0,0-1.246-1.96,3.32,3.32,0,0,0-2.053-.614,3.987,3.987,0,0,0-2.377.682,3.6,3.6,0,0,0-1.342,1.83,7.36,7.36,0,0,0-.387,2.369,7.527,7.527,0,0,0,.458,2.747,3.416,3.416,0,0,0,1.426,1.754,4,4,0,0,0,2.1.581,3.51,3.51,0,0,0,2.322-.791A4.048,4.048,0,0,0,104.265,183.676Z" transform="translate(-8.974 -5.624)"/><path class="cls-2" d="M504.03,53.481V52.034l5.226-.008V56.6a9.251,9.251,0,0,1-2.482,1.443,7.367,7.367,0,0,1-2.625.484,7,7,0,0,1-3.3-.778A5.144,5.144,0,0,1,498.6,55.5a7.086,7.086,0,0,1-.758-3.29,7.635,7.635,0,0,1,.753-3.361,5.009,5.009,0,0,1,2.167-2.318,6.79,6.79,0,0,1,3.256-.757,6.453,6.453,0,0,1,2.42.434,4.016,4.016,0,0,1,1.7,1.208,5.354,5.354,0,0,1,.934,2.02l-1.473.4a4.553,4.553,0,0,0-.689-1.481,2.842,2.842,0,0,0-1.178-.863,4.325,4.325,0,0,0-1.7-.324,5.008,5.008,0,0,0-1.936.341,3.613,3.613,0,0,0-1.316.9,4.26,4.26,0,0,0-.778,1.22,6.449,6.449,0,0,0-.472,2.482,6.021,6.021,0,0,0,.568,2.76,3.636,3.636,0,0,0,1.653,1.649,5.115,5.115,0,0,0,2.306.539,5.473,5.473,0,0,0,2.07-.408,5.353,5.353,0,0,0,1.531-.871v-2.3H504.03Z" transform="translate(-8.974 -5.624)"/><path class="cls-2" d="M511.166,52.312a6.7,6.7,0,0,1,1.649-4.809,5.608,5.608,0,0,1,4.258-1.738,5.906,5.906,0,0,1,3.079.816,5.33,5.33,0,0,1,2.091,2.276,7.394,7.394,0,0,1,.72,3.311,7.269,7.269,0,0,1-.758,3.357,5.161,5.161,0,0,1-2.146,2.242,6.126,6.126,0,0,1-3,.762,5.836,5.836,0,0,1-3.113-.841,5.413,5.413,0,0,1-2.078-2.3A6.955,6.955,0,0,1,511.166,52.312Zm1.683,0.025a4.944,4.944,0,0,0,1.2,3.513,4.182,4.182,0,0,0,6.041-.013,5.238,5.238,0,0,0,1.191-3.677,6.311,6.311,0,0,0-.51-2.629,3.907,3.907,0,0,0-1.489-1.742,4.034,4.034,0,0,0-2.2-.619,4.174,4.174,0,0,0-2.982,1.19A5.319,5.319,0,0,0,512.849,52.337Z" transform="translate(-8.974 -5.624)"/><path class="cls-2" d="M525,58.32V45.984h1.633v10.88h6.075V58.32H525Z" transform="translate(-8.974 -5.624)"/><path class="cls-2" d="M534.65,58.32V45.984h4.25a10.308,10.308,0,0,1,2.2.177,4.178,4.178,0,0,1,1.81.884,5.027,5.027,0,0,1,1.46,2.107,8.281,8.281,0,0,1,.483,2.933,8.619,8.619,0,0,1-.328,2.491,6.052,6.052,0,0,1-.841,1.8,4.47,4.47,0,0,1-1.124,1.119,4.572,4.572,0,0,1-1.473.618,8.4,8.4,0,0,1-1.981.21H534.65Zm1.633-1.456h2.634a6.393,6.393,0,0,0,1.914-.227,2.746,2.746,0,0,0,1.106-.64,3.893,3.893,0,0,0,.9-1.561,7.633,7.633,0,0,0,.324-2.377,5.738,5.738,0,0,0-.636-2.975,3.2,3.2,0,0,0-1.544-1.393,6.389,6.389,0,0,0-2.111-.252h-2.592v9.424Z" transform="translate(-8.974 -5.624)"/><rect class="cls-3" x="103.724" y="61.53" width="457.746" height="162.248"/><path class="cls-4" d="M136.769,91.521h-1.514V81.869a7.814,7.814,0,0,1-1.435,1.043,10.133,10.133,0,0,1-1.594.783V82.231a9.132,9.132,0,0,0,2.221-1.447,5.694,5.694,0,0,0,1.346-1.649h0.976V91.521Z" transform="translate(-8.974 -5.624)"/><path class="cls-4" d="M141.5,91.521V89.8h1.725v1.725H141.5Z" transform="translate(-8.974 -5.624)"/><path class="cls-4" d="M145.436,85.437a11.283,11.283,0,0,1,.45-3.521,4.374,4.374,0,0,1,1.338-2.057,3.42,3.42,0,0,1,2.234-.724,3.65,3.65,0,0,1,1.742.4,3.332,3.332,0,0,1,1.237,1.153,6.194,6.194,0,0,1,.766,1.834,12.189,12.189,0,0,1,.278,2.916,11.33,11.33,0,0,1-.446,3.5A4.38,4.38,0,0,1,151.7,91a3.42,3.42,0,0,1-2.242.728,3.384,3.384,0,0,1-2.8-1.279Q145.436,88.912,145.436,85.437Zm1.557,0q0,3.037.711,4.043a2.031,2.031,0,0,0,3.509,0q0.71-1.01.711-4.039,0-3.046-.711-4.047a2.111,2.111,0,0,0-1.771-1,1.942,1.942,0,0,0-1.666.884A7.826,7.826,0,0,0,146.993,85.437Z" transform="translate(-8.974 -5.624)"/><path class="cls-4" d="M155.02,85.437a11.283,11.283,0,0,1,.45-3.521,4.374,4.374,0,0,1,1.338-2.057,3.42,3.42,0,0,1,2.234-.724,3.65,3.65,0,0,1,1.742.4,3.332,3.332,0,0,1,1.237,1.153,6.194,6.194,0,0,1,.766,1.834,12.189,12.189,0,0,1,.278,2.916,11.33,11.33,0,0,1-.446,3.5A4.38,4.38,0,0,1,161.284,91a3.42,3.42,0,0,1-2.242.728,3.384,3.384,0,0,1-2.8-1.279Q155.02,88.912,155.02,85.437Zm1.557,0q0,3.037.711,4.043a2.031,2.031,0,0,0,3.509,0q0.71-1.01.711-4.039,0-3.046-.711-4.047a2.111,2.111,0,0,0-1.771-1,1.942,1.942,0,0,0-1.666.884A7.826,7.826,0,0,0,156.577,85.437Z" transform="translate(-8.974 -5.624)"/><path class="cls-4" d="M225.694,121.548H224.18V111.9a7.814,7.814,0,0,1-1.435,1.043,10.133,10.133,0,0,1-1.594.783v-1.464a9.132,9.132,0,0,0,2.221-1.447,5.694,5.694,0,0,0,1.346-1.649h0.976v12.386Z" transform="translate(-8.974 -5.624)"/><path class="cls-4" d="M230.423,121.548v-1.725h1.725v1.725h-1.725Z" transform="translate(-8.974 -5.624)"/><path class="cls-4" d="M234.361,115.465a11.283,11.283,0,0,1,.45-3.521,4.374,4.374,0,0,1,1.338-2.057,3.42,3.42,0,0,1,2.234-.724,3.65,3.65,0,0,1,1.742.4,3.332,3.332,0,0,1,1.237,1.153,6.194,6.194,0,0,1,.766,1.834,12.189,12.189,0,0,1,.278,2.916,11.33,11.33,0,0,1-.446,3.5,4.38,4.38,0,0,1-1.334,2.062,3.42,3.42,0,0,1-2.242.728,3.384,3.384,0,0,1-2.8-1.279Q234.362,118.94,234.361,115.465Zm1.557,0q0,3.037.711,4.043a2.031,2.031,0,0,0,3.509,0q0.71-1.01.711-4.039,0-3.046-.711-4.047a2.111,2.111,0,0,0-1.771-1,1.942,1.942,0,0,0-1.666.884A7.826,7.826,0,0,0,235.918,115.465Z" transform="translate(-8.974 -5.624)"/><path class="cls-4" d="M243.945,115.465a11.283,11.283,0,0,1,.45-3.521,4.374,4.374,0,0,1,1.338-2.057,3.42,3.42,0,0,1,2.234-.724,3.65,3.65,0,0,1,1.742.4,3.332,3.332,0,0,1,1.237,1.153,6.194,6.194,0,0,1,.766,1.834,12.189,12.189,0,0,1,.278,2.916,11.33,11.33,0,0,1-.446,3.5,4.38,4.38,0,0,1-1.334,2.062,3.42,3.42,0,0,1-2.242.728,3.384,3.384,0,0,1-2.8-1.279Q243.946,118.94,243.945,115.465Zm1.557,0q0,3.037.711,4.043a2.031,2.031,0,0,0,3.509,0q0.71-1.01.711-4.039,0-3.046-.711-4.047a2.111,2.111,0,0,0-1.771-1,1.942,1.942,0,0,0-1.666.884A7.826,7.826,0,0,0,245.5,115.465Z" transform="translate(-8.974 -5.624)"/><path class="cls-4" d="M323.7,153.476h-1.515v-9.651a7.792,7.792,0,0,1-1.435,1.043,10.116,10.116,0,0,1-1.595.783v-1.464a9.116,9.116,0,0,0,2.222-1.447,5.7,5.7,0,0,0,1.347-1.649H323.7v12.386Z" transform="translate(-8.974 -5.624)"/><path class="cls-4" d="M328.425,153.476v-1.725h1.725v1.725h-1.725Z" transform="translate(-8.974 -5.624)"/><path class="cls-4" d="M332.362,147.393a11.3,11.3,0,0,1,.45-3.521,4.384,4.384,0,0,1,1.338-2.057,3.421,3.421,0,0,1,2.234-.724,3.645,3.645,0,0,1,1.741.4,3.326,3.326,0,0,1,1.237,1.153,6.181,6.181,0,0,1,.766,1.834,12.168,12.168,0,0,1,.277,2.916,11.332,11.332,0,0,1-.445,3.5,4.384,4.384,0,0,1-1.334,2.062,3.419,3.419,0,0,1-2.242.728,3.383,3.383,0,0,1-2.8-1.279Q332.363,150.868,332.362,147.393Zm1.557,0q0,3.037.711,4.043a2.031,2.031,0,0,0,3.509,0q0.712-1.01.711-4.039,0-3.046-.711-4.047a2.11,2.11,0,0,0-1.771-1,1.94,1.94,0,0,0-1.666.884A7.815,7.815,0,0,0,333.919,147.393Z" transform="translate(-8.974 -5.624)"/><path class="cls-4" d="M341.946,147.393a11.3,11.3,0,0,1,.45-3.521,4.384,4.384,0,0,1,1.338-2.057,3.421,3.421,0,0,1,2.234-.724,3.645,3.645,0,0,1,1.741.4,3.326,3.326,0,0,1,1.237,1.153,6.181,6.181,0,0,1,.766,1.834,12.168,12.168,0,0,1,.277,2.916,11.332,11.332,0,0,1-.445,3.5,4.384,4.384,0,0,1-1.334,2.062,3.419,3.419,0,0,1-2.242.728,3.383,3.383,0,0,1-2.8-1.279Q341.947,150.868,341.946,147.393Zm1.557,0q0,3.037.711,4.043a2.031,2.031,0,0,0,3.509,0q0.712-1.01.711-4.039,0-3.046-.711-4.047a2.11,2.11,0,0,0-1.771-1,1.94,1.94,0,0,0-1.666.884A7.815,7.815,0,0,0,343.5,147.393Z" transform="translate(-8.974 -5.624)"/><path class="cls-4" d="M310.81,182.789v-1.523h4.653v1.523H310.81Z" transform="translate(-8.974 -5.624)"/><path class="cls-4" d="M316.716,180.407a11.3,11.3,0,0,1,.45-3.521,4.385,4.385,0,0,1,1.338-2.057,3.421,3.421,0,0,1,2.234-.724,3.645,3.645,0,0,1,1.741.4,3.326,3.326,0,0,1,1.237,1.153,6.181,6.181,0,0,1,.766,1.834,12.168,12.168,0,0,1,.277,2.916,11.332,11.332,0,0,1-.445,3.5,4.384,4.384,0,0,1-1.334,2.062,3.419,3.419,0,0,1-2.242.728,3.383,3.383,0,0,1-2.8-1.279Q316.716,183.882,316.716,180.407Zm1.557,0q0,3.037.711,4.043a2.031,2.031,0,0,0,3.509,0q0.712-1.01.711-4.039,0-3.046-.711-4.047a2.11,2.11,0,0,0-1.771-1,1.94,1.94,0,0,0-1.666.884A7.815,7.815,0,0,0,318.272,180.407Z" transform="translate(-8.974 -5.624)"/><path class="cls-4" d="M327.15,186.491v-1.725h1.725v1.725H327.15Z" transform="translate(-8.974 -5.624)"/><path class="cls-4" d="M336.793,186.491h-1.515v-9.651a7.792,7.792,0,0,1-1.435,1.043,10.116,10.116,0,0,1-1.595.783V177.2a9.116,9.116,0,0,0,2.222-1.447,5.7,5.7,0,0,0,1.347-1.649h0.976v12.386Z" transform="translate(-8.974 -5.624)"/><path class="cls-4" d="M340.672,183.26l1.591-.135a2.847,2.847,0,0,0,.82,1.746,2.227,2.227,0,0,0,1.553.584,2.417,2.417,0,0,0,1.851-.824,3.109,3.109,0,0,0,.758-2.188,2.808,2.808,0,0,0-.729-2.044,2.536,2.536,0,0,0-1.905-.749,2.64,2.64,0,0,0-1.321.333,2.568,2.568,0,0,0-.926.862l-1.422-.185,1.2-6.336h6.134v1.447h-4.923l-0.664,3.315a4.014,4.014,0,0,1,2.33-.774,3.692,3.692,0,0,1,2.727,1.119,3.912,3.912,0,0,1,1.11,2.877,4.492,4.492,0,0,1-.976,2.895,3.91,3.91,0,0,1-3.239,1.5,3.992,3.992,0,0,1-2.748-.942A3.683,3.683,0,0,1,340.672,183.26Z" transform="translate(-8.974 -5.624)"/><path class="cls-4" d="M131.064,116.9a11.283,11.283,0,0,1,.45-3.521,4.374,4.374,0,0,1,1.338-2.057,3.42,3.42,0,0,1,2.234-.724,3.65,3.65,0,0,1,1.742.4,3.332,3.332,0,0,1,1.237,1.153,6.194,6.194,0,0,1,.766,1.834,12.189,12.189,0,0,1,.278,2.916,11.33,11.33,0,0,1-.446,3.5,4.38,4.38,0,0,1-1.334,2.062,3.42,3.42,0,0,1-2.242.728,3.384,3.384,0,0,1-2.8-1.279Q131.065,120.376,131.064,116.9Zm1.557,0q0,3.037.711,4.043a2.031,2.031,0,0,0,3.509,0q0.71-1.01.711-4.039,0-3.046-.711-4.047a2.111,2.111,0,0,0-1.771-1,1.942,1.942,0,0,0-1.666.884A7.826,7.826,0,0,0,132.621,116.9Z" transform="translate(-8.974 -5.624)"/><path class="cls-4" d="M141.5,122.985V121.26h1.725v1.725H141.5Z" transform="translate(-8.974 -5.624)"/><path class="cls-4" d="M145.663,120.132l1.456-.135a2.529,2.529,0,0,0,.707,1.49,1.94,1.94,0,0,0,1.338.462,2.312,2.312,0,0,0,1.224-.319,2.612,2.612,0,0,0,.862-0.854,5,5,0,0,0,.564-1.443,7.607,7.607,0,0,0,.227-1.851q0-.1-0.008-0.3a3.47,3.47,0,0,1-1.241,1.174,3.375,3.375,0,0,1-1.7.45,3.447,3.447,0,0,1-2.592-1.11,4.067,4.067,0,0,1-1.06-2.928,4.162,4.162,0,0,1,1.106-3.021,3.7,3.7,0,0,1,2.772-1.144,3.952,3.952,0,0,1,2.2.648,4.048,4.048,0,0,1,1.515,1.847,9.093,9.093,0,0,1,.518,3.471,11.244,11.244,0,0,1-.513,3.765,4.414,4.414,0,0,1-1.527,2.133,3.955,3.955,0,0,1-2.377.732A3.258,3.258,0,0,1,145.663,120.132Zm6.2-5.444a2.966,2.966,0,0,0-.694-2.07,2.176,2.176,0,0,0-1.67-.766,2.308,2.308,0,0,0-1.759.825,3.057,3.057,0,0,0-.749,2.137,2.64,2.64,0,0,0,.711,1.915,2.343,2.343,0,0,0,1.754.736,2.246,2.246,0,0,0,1.729-.736A2.9,2.9,0,0,0,151.864,114.688Z" transform="translate(-8.974 -5.624)"/><path class="cls-4" d="M162.879,113.67l-1.506.118a2.847,2.847,0,0,0-.572-1.3,2,2,0,0,0-1.514-.648,2.081,2.081,0,0,0-1.271.4,3.453,3.453,0,0,0-1.128,1.523,7.952,7.952,0,0,0-.429,2.853,3.509,3.509,0,0,1,1.337-1.237,3.6,3.6,0,0,1,1.658-.4,3.434,3.434,0,0,1,2.579,1.115,4,4,0,0,1,1.064,2.882,4.744,4.744,0,0,1-.5,2.158,3.648,3.648,0,0,1-1.376,1.527,3.755,3.755,0,0,1-1.986.53,3.88,3.88,0,0,1-3.088-1.393q-1.2-1.392-1.195-4.59,0-3.576,1.321-5.2a3.8,3.8,0,0,1,3.1-1.414A3.3,3.3,0,0,1,162.879,113.67Zm-6.185,5.318a3.511,3.511,0,0,0,.333,1.5,2.472,2.472,0,0,0,.93,1.09,2.324,2.324,0,0,0,1.254.374,2.136,2.136,0,0,0,1.649-.774,3.047,3.047,0,0,0,.69-2.1,2.85,2.85,0,0,0-.682-2.015,2.239,2.239,0,0,0-1.716-.736,2.336,2.336,0,0,0-1.742.736A2.652,2.652,0,0,0,156.694,118.988Z" transform="translate(-8.974 -5.624)"/><path class="cls-4" d="M318.286,211.921a11.3,11.3,0,0,1,.45-3.521,4.384,4.384,0,0,1,1.338-2.057,3.421,3.421,0,0,1,2.234-.724,3.645,3.645,0,0,1,1.741.4,3.326,3.326,0,0,1,1.237,1.153,6.181,6.181,0,0,1,.766,1.834,12.168,12.168,0,0,1,.277,2.916,11.332,11.332,0,0,1-.445,3.5,4.384,4.384,0,0,1-1.334,2.062,3.419,3.419,0,0,1-2.242.728,3.383,3.383,0,0,1-2.8-1.279Q318.287,215.4,318.286,211.921Zm1.557,0q0,3.037.711,4.043a2.031,2.031,0,0,0,3.509,0q0.712-1.01.711-4.039,0-3.046-.711-4.047a2.11,2.11,0,0,0-1.771-1,1.94,1.94,0,0,0-1.666.884A7.815,7.815,0,0,0,319.843,211.921Z" transform="translate(-8.974 -5.624)"/><path class="cls-4" d="M328.721,218v-1.725h1.725V218h-1.725Z" transform="translate(-8.974 -5.624)"/><path class="cls-4" d="M332.658,211.921a11.3,11.3,0,0,1,.45-3.521,4.384,4.384,0,0,1,1.338-2.057,3.421,3.421,0,0,1,2.234-.724,3.645,3.645,0,0,1,1.741.4,3.326,3.326,0,0,1,1.237,1.153,6.181,6.181,0,0,1,.766,1.834,12.168,12.168,0,0,1,.277,2.916,11.332,11.332,0,0,1-.445,3.5,4.384,4.384,0,0,1-1.334,2.062,3.419,3.419,0,0,1-2.242.728,3.383,3.383,0,0,1-2.8-1.279Q332.659,215.4,332.658,211.921Zm1.557,0q0,3.037.711,4.043a2.031,2.031,0,0,0,3.509,0q0.712-1.01.711-4.039,0-3.046-.711-4.047a2.11,2.11,0,0,0-1.771-1,1.94,1.94,0,0,0-1.666.884A7.815,7.815,0,0,0,334.215,211.921Z" transform="translate(-8.974 -5.624)"/><path class="cls-4" d="M342.344,207.285v-1.456h7.985v1.178a16.773,16.773,0,0,0-2.335,3.332,20.252,20.252,0,0,0-1.788,4.274,15.829,15.829,0,0,0-.581,3.391h-1.557a15.127,15.127,0,0,1,.572-3.517,18.435,18.435,0,0,1,1.569-3.976,17.036,17.036,0,0,1,2.175-3.227h-6.041Z" transform="translate(-8.974 -5.624)"/><path class="cls-4" d="M219.523,147.466a11.283,11.283,0,0,1,.45-3.521,4.374,4.374,0,0,1,1.338-2.057,3.42,3.42,0,0,1,2.234-.724,3.65,3.65,0,0,1,1.742.4,3.332,3.332,0,0,1,1.237,1.153,6.194,6.194,0,0,1,.766,1.834,12.189,12.189,0,0,1,.278,2.916,11.33,11.33,0,0,1-.446,3.5,4.38,4.38,0,0,1-1.334,2.062,3.42,3.42,0,0,1-2.242.728,3.384,3.384,0,0,1-2.8-1.279Q219.523,150.941,219.523,147.466Zm1.557,0q0,3.037.711,4.043a2.031,2.031,0,0,0,3.509,0q0.71-1.01.711-4.039,0-3.046-.711-4.047a2.111,2.111,0,0,0-1.771-1,1.942,1.942,0,0,0-1.666.884A7.826,7.826,0,0,0,221.08,147.466Z" transform="translate(-8.974 -5.624)"/><path class="cls-4" d="M229.957,153.55v-1.725h1.725v1.725h-1.725Z" transform="translate(-8.974 -5.624)"/><path class="cls-4" d="M234,142.83v-1.456h7.985v1.178a16.854,16.854,0,0,0-2.335,3.332,20.3,20.3,0,0,0-1.788,4.274,15.921,15.921,0,0,0-.581,3.391H235.72a15.127,15.127,0,0,1,.572-3.517,18.46,18.46,0,0,1,1.569-3.976,17.036,17.036,0,0,1,2.175-3.227H234Z" transform="translate(-8.974 -5.624)"/><path class="cls-4" d="M251.337,144.235l-1.506.118a2.847,2.847,0,0,0-.572-1.3,2,2,0,0,0-1.514-.648,2.081,2.081,0,0,0-1.271.4,3.453,3.453,0,0,0-1.128,1.523,7.952,7.952,0,0,0-.429,2.853,3.509,3.509,0,0,1,1.337-1.237,3.6,3.6,0,0,1,1.658-.4,3.434,3.434,0,0,1,2.579,1.115,4,4,0,0,1,1.064,2.882,4.744,4.744,0,0,1-.5,2.158,3.648,3.648,0,0,1-1.376,1.527,3.755,3.755,0,0,1-1.986.53,3.88,3.88,0,0,1-3.088-1.393q-1.2-1.392-1.195-4.59,0-3.576,1.321-5.2a3.8,3.8,0,0,1,3.1-1.414A3.3,3.3,0,0,1,251.337,144.235Zm-6.185,5.318a3.511,3.511,0,0,0,.333,1.5,2.472,2.472,0,0,0,.93,1.09,2.324,2.324,0,0,0,1.254.374,2.136,2.136,0,0,0,1.649-.774,3.047,3.047,0,0,0,.69-2.1,2.85,2.85,0,0,0-.682-2.015,2.239,2.239,0,0,0-1.716-.736,2.336,2.336,0,0,0-1.742.736A2.652,2.652,0,0,0,245.153,149.553Z" transform="translate(-8.974 -5.624)"/><path class="cls-4" d="M125.155,214.282v-1.523h4.653v1.523h-4.653Z" transform="translate(-8.974 -5.624)"/><path class="cls-4" d="M131.062,211.9a11.283,11.283,0,0,1,.45-3.521,4.374,4.374,0,0,1,1.338-2.057,3.42,3.42,0,0,1,2.234-.724,3.65,3.65,0,0,1,1.742.4,3.332,3.332,0,0,1,1.237,1.153,6.194,6.194,0,0,1,.766,1.834,12.189,12.189,0,0,1,.278,2.916,11.33,11.33,0,0,1-.446,3.5,4.38,4.38,0,0,1-1.334,2.062,3.42,3.42,0,0,1-2.242.728,3.384,3.384,0,0,1-2.8-1.279Q131.062,215.375,131.062,211.9Zm1.557,0q0,3.037.711,4.043a2.031,2.031,0,0,0,3.509,0q0.71-1.01.711-4.039,0-3.046-.711-4.047a2.111,2.111,0,0,0-1.771-1,1.942,1.942,0,0,0-1.666.884A7.826,7.826,0,0,0,132.619,211.9Z" transform="translate(-8.974 -5.624)"/><path class="cls-4" d="M141.5,217.984v-1.725h1.725v1.725H141.5Z" transform="translate(-8.974 -5.624)"/><path class="cls-4" d="M151.138,217.984h-1.514v-9.651a7.814,7.814,0,0,1-1.435,1.043,10.133,10.133,0,0,1-1.594.783v-1.464a9.132,9.132,0,0,0,2.221-1.447,5.694,5.694,0,0,0,1.346-1.649h0.976v12.386Z" transform="translate(-8.974 -5.624)"/><path class="cls-4" d="M155.245,215.131L156.7,215a2.529,2.529,0,0,0,.707,1.49,1.94,1.94,0,0,0,1.338.462,2.312,2.312,0,0,0,1.224-.319,2.612,2.612,0,0,0,.862-0.854,5,5,0,0,0,.564-1.443,7.607,7.607,0,0,0,.227-1.851q0-.1-0.008-0.3a3.47,3.47,0,0,1-1.241,1.174,3.375,3.375,0,0,1-1.7.45,3.447,3.447,0,0,1-2.592-1.11,4.067,4.067,0,0,1-1.06-2.928,4.162,4.162,0,0,1,1.106-3.021A3.7,3.7,0,0,1,158.9,205.6a3.952,3.952,0,0,1,2.2.648,4.048,4.048,0,0,1,1.515,1.847,9.093,9.093,0,0,1,.518,3.471,11.244,11.244,0,0,1-.513,3.765,4.414,4.414,0,0,1-1.527,2.133,3.955,3.955,0,0,1-2.377.732A3.258,3.258,0,0,1,155.245,215.131Zm6.2-5.444a2.966,2.966,0,0,0-.694-2.07,2.176,2.176,0,0,0-1.67-.766,2.308,2.308,0,0,0-1.759.825,3.057,3.057,0,0,0-.749,2.137,2.64,2.64,0,0,0,.711,1.915,2.343,2.343,0,0,0,1.754.736,2.246,2.246,0,0,0,1.729-.736A2.9,2.9,0,0,0,161.446,209.688Z" transform="translate(-8.974 -5.624)"/><path class="cls-4" d="M133.5,180.481a11.283,11.283,0,0,1,.45-3.521,4.374,4.374,0,0,1,1.338-2.057,3.42,3.42,0,0,1,2.234-.724,3.65,3.65,0,0,1,1.742.4,3.332,3.332,0,0,1,1.237,1.153,6.194,6.194,0,0,1,.766,1.834,12.189,12.189,0,0,1,.278,2.916,11.33,11.33,0,0,1-.446,3.5,4.38,4.38,0,0,1-1.334,2.062,3.42,3.42,0,0,1-2.242.728,3.384,3.384,0,0,1-2.8-1.279Q133.5,183.956,133.5,180.481Zm1.557,0q0,3.037.711,4.043a2.031,2.031,0,0,0,3.509,0q0.71-1.01.711-4.039,0-3.046-.711-4.047a2.111,2.111,0,0,0-1.771-1,1.942,1.942,0,0,0-1.666.884A7.826,7.826,0,0,0,135.061,180.481Z" transform="translate(-8.974 -5.624)"/><path class="cls-4" d="M143.938,186.564v-1.725h1.725v1.725h-1.725Z" transform="translate(-8.974 -5.624)"/><path class="cls-4" d="M147.875,180.481a11.283,11.283,0,0,1,.45-3.521,4.374,4.374,0,0,1,1.338-2.057,3.42,3.42,0,0,1,2.234-.724,3.65,3.65,0,0,1,1.742.4,3.332,3.332,0,0,1,1.237,1.153,6.194,6.194,0,0,1,.766,1.834,12.189,12.189,0,0,1,.278,2.916,11.33,11.33,0,0,1-.446,3.5,4.38,4.38,0,0,1-1.334,2.062,3.42,3.42,0,0,1-2.242.728,3.384,3.384,0,0,1-2.8-1.279Q147.876,183.956,147.875,180.481Zm1.557,0q0,3.037.711,4.043a2.031,2.031,0,0,0,3.509,0q0.71-1.01.711-4.039,0-3.046-.711-4.047a2.111,2.111,0,0,0-1.771-1,1.942,1.942,0,0,0-1.666.884A7.826,7.826,0,0,0,149.432,180.481Z" transform="translate(-8.974 -5.624)"/><path class="cls-4" d="M163.164,186.564H161.65v-9.651a7.814,7.814,0,0,1-1.435,1.043,10.133,10.133,0,0,1-1.594.783v-1.464a9.132,9.132,0,0,0,2.221-1.447,5.694,5.694,0,0,0,1.346-1.649h0.976v12.386Z" transform="translate(-8.974 -5.624)"/><path class="cls-4" d="M132.05,147.279a11.283,11.283,0,0,1,.45-3.521,4.374,4.374,0,0,1,1.338-2.057,3.42,3.42,0,0,1,2.234-.724,3.65,3.65,0,0,1,1.742.4,3.332,3.332,0,0,1,1.237,1.153,6.194,6.194,0,0,1,.766,1.834,12.189,12.189,0,0,1,.278,2.916,11.33,11.33,0,0,1-.446,3.5,4.38,4.38,0,0,1-1.334,2.062,3.42,3.42,0,0,1-2.242.728,3.384,3.384,0,0,1-2.8-1.279Q132.051,150.754,132.05,147.279Zm1.557,0q0,3.037.711,4.043a2.031,2.031,0,0,0,3.509,0q0.71-1.01.711-4.039,0-3.046-.711-4.047a2.111,2.111,0,0,0-1.771-1,1.942,1.942,0,0,0-1.666.884A7.826,7.826,0,0,0,133.607,147.279Z" transform="translate(-8.974 -5.624)"/><path class="cls-4" d="M142.484,153.362v-1.725h1.725v1.725h-1.725Z" transform="translate(-8.974 -5.624)"/><path class="cls-4" d="M146.523,142.643v-1.456h7.985v1.178a16.854,16.854,0,0,0-2.335,3.332,20.3,20.3,0,0,0-1.788,4.274,15.921,15.921,0,0,0-.581,3.391h-1.557a15.127,15.127,0,0,1,.572-3.517,18.46,18.46,0,0,1,1.569-3.976,17.036,17.036,0,0,1,2.175-3.227h-6.041Z" transform="translate(-8.974 -5.624)"/><path class="cls-4" d="M163.865,144.048l-1.506.118a2.847,2.847,0,0,0-.572-1.3,2,2,0,0,0-1.514-.648,2.081,2.081,0,0,0-1.271.4,3.453,3.453,0,0,0-1.128,1.523,7.952,7.952,0,0,0-.429,2.853,3.509,3.509,0,0,1,1.337-1.237,3.6,3.6,0,0,1,1.658-.4,3.434,3.434,0,0,1,2.579,1.115,4,4,0,0,1,1.064,2.882,4.744,4.744,0,0,1-.5,2.158,3.648,3.648,0,0,1-1.376,1.527,3.755,3.755,0,0,1-1.986.53,3.88,3.88,0,0,1-3.088-1.393q-1.2-1.392-1.195-4.59,0-3.576,1.321-5.2a3.8,3.8,0,0,1,3.1-1.414A3.3,3.3,0,0,1,163.865,144.048Zm-6.185,5.318a3.511,3.511,0,0,0,.333,1.5,2.472,2.472,0,0,0,.93,1.09,2.324,2.324,0,0,0,1.254.374,2.136,2.136,0,0,0,1.649-.774,3.047,3.047,0,0,0,.69-2.1,2.85,2.85,0,0,0-.682-2.015,2.239,2.239,0,0,0-1.716-.736,2.336,2.336,0,0,0-1.742.736A2.652,2.652,0,0,0,157.68,149.366Z" transform="translate(-8.974 -5.624)"/><path class="cls-4" d="M216.485,214.282v-1.523h4.653v1.523h-4.653Z" transform="translate(-8.974 -5.624)"/><path class="cls-4" d="M222.392,211.9a11.283,11.283,0,0,1,.45-3.521,4.374,4.374,0,0,1,1.338-2.057,3.42,3.42,0,0,1,2.234-.724,3.65,3.65,0,0,1,1.742.4,3.332,3.332,0,0,1,1.237,1.153,6.194,6.194,0,0,1,.766,1.834,12.189,12.189,0,0,1,.278,2.916,11.33,11.33,0,0,1-.446,3.5,4.38,4.38,0,0,1-1.334,2.062,3.42,3.42,0,0,1-2.242.728,3.384,3.384,0,0,1-2.8-1.279Q222.392,215.375,222.392,211.9Zm1.557,0q0,3.037.711,4.043a2.031,2.031,0,0,0,3.509,0q0.71-1.01.711-4.039,0-3.046-.711-4.047a2.111,2.111,0,0,0-1.771-1,1.942,1.942,0,0,0-1.666.884A7.826,7.826,0,0,0,223.949,211.9Z" transform="translate(-8.974 -5.624)"/><path class="cls-4" d="M232.826,217.984v-1.725h1.725v1.725h-1.725Z" transform="translate(-8.974 -5.624)"/><path class="cls-4" d="M244.724,216.528v1.456H236.57a2.68,2.68,0,0,1,.177-1.052,5.562,5.562,0,0,1,1-1.641,15.637,15.637,0,0,1,1.982-1.868,16.8,16.8,0,0,0,2.718-2.613,3.127,3.127,0,0,0,.707-1.821,2.023,2.023,0,0,0-.644-1.519,2.323,2.323,0,0,0-1.679-.619,2.365,2.365,0,0,0-1.75.657,2.484,2.484,0,0,0-.665,1.817l-1.557-.16a3.829,3.829,0,0,1,1.2-2.654,4.1,4.1,0,0,1,2.8-.913,3.911,3.911,0,0,1,2.811.984,3.232,3.232,0,0,1,1.035,2.44,3.707,3.707,0,0,1-.3,1.456,5.652,5.652,0,0,1-1.005,1.506,24.573,24.573,0,0,1-2.335,2.171q-1.364,1.145-1.75,1.553a4.967,4.967,0,0,0-.639.82h6.05Z" transform="translate(-8.974 -5.624)"/><path class="cls-4" d="M246.449,207.264v-1.456h7.985v1.178a16.854,16.854,0,0,0-2.335,3.332,20.3,20.3,0,0,0-1.788,4.274,15.921,15.921,0,0,0-.581,3.391h-1.557a15.127,15.127,0,0,1,.572-3.517,18.46,18.46,0,0,1,1.569-3.976,17.036,17.036,0,0,1,2.175-3.227h-6.041Z" transform="translate(-8.974 -5.624)"/><path class="cls-4" d="M219.523,180.481a11.283,11.283,0,0,1,.45-3.521,4.374,4.374,0,0,1,1.338-2.057,3.42,3.42,0,0,1,2.234-.724,3.65,3.65,0,0,1,1.742.4,3.332,3.332,0,0,1,1.237,1.153,6.194,6.194,0,0,1,.766,1.834,12.189,12.189,0,0,1,.278,2.916,11.33,11.33,0,0,1-.446,3.5,4.38,4.38,0,0,1-1.334,2.062,3.42,3.42,0,0,1-2.242.728,3.384,3.384,0,0,1-2.8-1.279Q219.523,183.956,219.523,180.481Zm1.557,0q0,3.037.711,4.043a2.031,2.031,0,0,0,3.509,0q0.71-1.01.711-4.039,0-3.046-.711-4.047a2.111,2.111,0,0,0-1.771-1,1.942,1.942,0,0,0-1.666.884A7.826,7.826,0,0,0,221.08,180.481Z" transform="translate(-8.974 -5.624)"/><path class="cls-4" d="M229.957,186.564v-1.725h1.725v1.725h-1.725Z" transform="translate(-8.974 -5.624)"/><path class="cls-4" d="M233.895,180.481a11.283,11.283,0,0,1,.45-3.521,4.374,4.374,0,0,1,1.338-2.057,3.42,3.42,0,0,1,2.234-.724,3.65,3.65,0,0,1,1.742.4,3.332,3.332,0,0,1,1.237,1.153,6.194,6.194,0,0,1,.766,1.834,12.189,12.189,0,0,1,.278,2.916,11.33,11.33,0,0,1-.446,3.5,4.38,4.38,0,0,1-1.334,2.062,3.42,3.42,0,0,1-2.242.728,3.384,3.384,0,0,1-2.8-1.279Q233.895,183.956,233.895,180.481Zm1.557,0q0,3.037.711,4.043a2.031,2.031,0,0,0,3.509,0q0.71-1.01.711-4.039,0-3.046-.711-4.047a2.111,2.111,0,0,0-1.771-1,1.942,1.942,0,0,0-1.666.884A7.826,7.826,0,0,0,235.451,180.481Z" transform="translate(-8.974 -5.624)"/><path class="cls-4" d="M245.809,179.875a2.849,2.849,0,0,1-1.4-.984,2.572,2.572,0,0,1-.455-1.531,3,3,0,0,1,.968-2.264,4.073,4.073,0,0,1,5.175.021,3.037,3.037,0,0,1,.984,2.285,2.519,2.519,0,0,1-.45,1.494,2.841,2.841,0,0,1-1.367.98A3.317,3.317,0,0,1,251,181.07a3.282,3.282,0,0,1,.593,1.969,3.543,3.543,0,0,1-1.119,2.659,4.558,4.558,0,0,1-5.89,0,3.6,3.6,0,0,1-1.119-2.7,3.26,3.26,0,0,1,.61-2.015A3.055,3.055,0,0,1,245.809,179.875Zm-0.791,3.13a2.742,2.742,0,0,0,.307,1.253,2.171,2.171,0,0,0,.913.938,2.667,2.667,0,0,0,1.3.332,2.444,2.444,0,0,0,1.792-.7,2.389,2.389,0,0,0,.707-1.775,2.43,2.43,0,0,0-.728-1.809,2.494,2.494,0,0,0-1.821-.715A2.409,2.409,0,0,0,245.018,183.005Zm0.488-5.7a1.922,1.922,0,0,0,.563,1.431,2,2,0,0,0,1.464.555,1.958,1.958,0,0,0,1.435-.551,1.821,1.821,0,0,0,.56-1.35,1.89,1.89,0,0,0-.577-1.4,2.118,2.118,0,0,0-2.873-.012A1.785,1.785,0,0,0,245.506,177.309Z" transform="translate(-8.974 -5.624)"/><path class="cls-4" d="M418,186.417h-1.515v-9.651a7.792,7.792,0,0,1-1.435,1.043,10.116,10.116,0,0,1-1.595.783v-1.464a9.116,9.116,0,0,0,2.222-1.447,5.7,5.7,0,0,0,1.347-1.649H418v12.386Z" transform="translate(-8.974 -5.624)"/><path class="cls-4" d="M422.731,186.417v-1.725h1.725v1.725h-1.725Z" transform="translate(-8.974 -5.624)"/><path class="cls-4" d="M426.669,180.334a11.3,11.3,0,0,1,.45-3.521,4.385,4.385,0,0,1,1.338-2.057,3.421,3.421,0,0,1,2.234-.724,3.645,3.645,0,0,1,1.741.4,3.326,3.326,0,0,1,1.237,1.153,6.181,6.181,0,0,1,.766,1.834,12.168,12.168,0,0,1,.277,2.916,11.332,11.332,0,0,1-.445,3.5,4.384,4.384,0,0,1-1.334,2.062,3.419,3.419,0,0,1-2.242.728,3.383,3.383,0,0,1-2.8-1.279Q426.669,183.809,426.669,180.334Zm1.557,0q0,3.037.711,4.043a2.031,2.031,0,0,0,3.509,0q0.712-1.01.711-4.039,0-3.046-.711-4.047a2.11,2.11,0,0,0-1.771-1,1.94,1.94,0,0,0-1.666.884A7.815,7.815,0,0,0,428.226,180.334Z" transform="translate(-8.974 -5.624)"/><path class="cls-4" d="M436.253,180.334a11.3,11.3,0,0,1,.45-3.521,4.384,4.384,0,0,1,1.338-2.057,3.421,3.421,0,0,1,2.234-.724,3.645,3.645,0,0,1,1.741.4,3.326,3.326,0,0,1,1.237,1.153,6.181,6.181,0,0,1,.766,1.834,12.168,12.168,0,0,1,.277,2.916,11.332,11.332,0,0,1-.445,3.5,4.384,4.384,0,0,1-1.334,2.062,3.419,3.419,0,0,1-2.242.728,3.383,3.383,0,0,1-2.8-1.279Q436.253,183.809,436.253,180.334Zm1.557,0q0,3.037.711,4.043a2.031,2.031,0,0,0,3.509,0q0.712-1.01.711-4.039,0-3.046-.711-4.047a2.11,2.11,0,0,0-1.771-1,1.94,1.94,0,0,0-1.666.884A7.815,7.815,0,0,0,437.81,180.334Z" transform="translate(-8.974 -5.624)"/><path class="cls-4" d="M412.3,211.827a11.3,11.3,0,0,1,.45-3.521,4.385,4.385,0,0,1,1.338-2.057,3.421,3.421,0,0,1,2.234-.724,3.645,3.645,0,0,1,1.741.4,3.326,3.326,0,0,1,1.237,1.153,6.181,6.181,0,0,1,.766,1.834,12.168,12.168,0,0,1,.277,2.916,11.332,11.332,0,0,1-.445,3.5,4.384,4.384,0,0,1-1.334,2.062,3.419,3.419,0,0,1-2.242.728,3.383,3.383,0,0,1-2.8-1.279Q412.3,215.3,412.3,211.827Zm1.557,0q0,3.037.711,4.043a2.031,2.031,0,0,0,3.509,0q0.712-1.01.711-4.039,0-3.046-.711-4.047a2.11,2.11,0,0,0-1.771-1,1.94,1.94,0,0,0-1.666.884A7.815,7.815,0,0,0,413.854,211.827Z" transform="translate(-8.974 -5.624)"/><path class="cls-4" d="M422.731,217.91v-1.725h1.725v1.725h-1.725Z" transform="translate(-8.974 -5.624)"/><path class="cls-4" d="M426.669,211.827a11.3,11.3,0,0,1,.45-3.521,4.385,4.385,0,0,1,1.338-2.057,3.421,3.421,0,0,1,2.234-.724,3.645,3.645,0,0,1,1.741.4,3.326,3.326,0,0,1,1.237,1.153,6.181,6.181,0,0,1,.766,1.834,12.168,12.168,0,0,1,.277,2.916,11.332,11.332,0,0,1-.445,3.5,4.384,4.384,0,0,1-1.334,2.062,3.419,3.419,0,0,1-2.242.728,3.383,3.383,0,0,1-2.8-1.279Q426.669,215.3,426.669,211.827Zm1.557,0q0,3.037.711,4.043a2.031,2.031,0,0,0,3.509,0q0.712-1.01.711-4.039,0-3.046-.711-4.047a2.11,2.11,0,0,0-1.771-1,1.94,1.94,0,0,0-1.666.884A7.815,7.815,0,0,0,428.226,211.827Z" transform="translate(-8.974 -5.624)"/><path class="cls-4" d="M436.253,214.679l1.591-.135a2.847,2.847,0,0,0,.82,1.746,2.227,2.227,0,0,0,1.553.584,2.417,2.417,0,0,0,1.851-.824,3.109,3.109,0,0,0,.758-2.188,2.808,2.808,0,0,0-.729-2.044,2.536,2.536,0,0,0-1.905-.749,2.64,2.64,0,0,0-1.321.333,2.568,2.568,0,0,0-.926.862l-1.422-.185,1.2-6.336h6.134v1.447h-4.923l-0.664,3.315a4.014,4.014,0,0,1,2.33-.774,3.692,3.692,0,0,1,2.727,1.119,3.912,3.912,0,0,1,1.11,2.877,4.492,4.492,0,0,1-.976,2.895,3.91,3.91,0,0,1-3.239,1.5,3.992,3.992,0,0,1-2.748-.942A3.683,3.683,0,0,1,436.253,214.679Z" transform="translate(-8.974 -5.624)"/><path class="cls-4" d="M511.9,218h-1.515v-9.651a7.792,7.792,0,0,1-1.435,1.043,10.116,10.116,0,0,1-1.595.783v-1.464a9.116,9.116,0,0,0,2.222-1.447,5.7,5.7,0,0,0,1.347-1.649H511.9V218Z" transform="translate(-8.974 -5.624)"/><path class="cls-4" d="M516.632,218v-1.725h1.725V218h-1.725Z" transform="translate(-8.974 -5.624)"/><path class="cls-4" d="M520.569,211.921a11.3,11.3,0,0,1,.45-3.521,4.384,4.384,0,0,1,1.338-2.057,3.421,3.421,0,0,1,2.234-.724,3.645,3.645,0,0,1,1.741.4,3.326,3.326,0,0,1,1.237,1.153,6.181,6.181,0,0,1,.766,1.834,12.168,12.168,0,0,1,.277,2.916,11.332,11.332,0,0,1-.445,3.5,4.384,4.384,0,0,1-1.334,2.062,3.419,3.419,0,0,1-2.242.728,3.383,3.383,0,0,1-2.8-1.279Q520.57,215.4,520.569,211.921Zm1.557,0q0,3.037.711,4.043a2.031,2.031,0,0,0,3.509,0q0.712-1.01.711-4.039,0-3.046-.711-4.047a2.11,2.11,0,0,0-1.771-1,1.94,1.94,0,0,0-1.666.884A7.815,7.815,0,0,0,522.126,211.921Z" transform="translate(-8.974 -5.624)"/><path class="cls-4" d="M530.153,211.921a11.3,11.3,0,0,1,.45-3.521,4.384,4.384,0,0,1,1.338-2.057,3.421,3.421,0,0,1,2.234-.724,3.645,3.645,0,0,1,1.741.4,3.326,3.326,0,0,1,1.237,1.153,6.181,6.181,0,0,1,.766,1.834,12.168,12.168,0,0,1,.277,2.916,11.332,11.332,0,0,1-.445,3.5,4.384,4.384,0,0,1-1.334,2.062,3.419,3.419,0,0,1-2.242.728,3.383,3.383,0,0,1-2.8-1.279Q530.154,215.4,530.153,211.921Zm1.557,0q0,3.037.711,4.043a2.031,2.031,0,0,0,3.509,0q0.712-1.01.711-4.039,0-3.046-.711-4.047a2.11,2.11,0,0,0-1.771-1,1.94,1.94,0,0,0-1.666.884A7.815,7.815,0,0,0,531.71,211.921Z" transform="translate(-8.974 -5.624)"/></svg>