<svg id="Layer_1" data-name="Layer 1" xmlns="http://www.w3.org/2000/svg" viewBox="0 0 553.575 353.415"><defs><style>.cls-1{fill:#fff;stroke:#231f20;}.cls-1,.cls-2,.cls-3,.cls-4,.cls-5{stroke-miterlimit:10;}.cls-2,.cls-3,.cls-4,.cls-5{fill:none;}.cls-2{stroke:#3b53a4;}.cls-3{stroke:#40b449;}.cls-4{stroke:#ed1d24;}.cls-5{stroke:#863493;}.cls-6{fill:#231f20;}.cls-7{fill:#3b54a4;}.cls-8{fill:#ec2227;}.cls-9{fill:#863593;}.cls-10{fill:#40b449;}</style></defs><title>Expected_Return_Asset_Classes</title><rect class="cls-1" x="42.951" y="43.319" width="486.545" height="252.682"/><polyline class="cls-2" points="46.83 272.67 65.957 274.843 82.04 266.584 100.297 263.542 120.293 263.542 132.899 260.499 145.505 260.499 161.588 243.981 183.322 230.071 237.224 159.216 275.042 187.036 294.168 211.814 311.99 186.167 332.855 174.865 349.808 174.43 368.934 153.131 388.061 150.523 406.317 209.64 424.574 184.863 446.743 166.606 462.392 165.737 483.749 145.306 495.863 108.358 519.771 81.407"/><polyline class="cls-3" points="46.83 273.238 79.867 268.457 108.556 263.24 125.509 255.416 146.809 259.328 163.761 246.288 179.845 249.33 220.271 231.508 239.832 238.898 272.434 222.38 282.309 222.38 301.123 209.774 323.727 204.992 350.677 193.256 372.412 190.213 395.885 184.127 410.23 174.129 431.529 171.956 479.345 144.136 499.775 147.179 519.771 138.268"/><polyline class="cls-4" points="46.83 273.238 126.154 265.414 150.317 265.414 171.844 262.806 195.568 262.806 245.652 262.806 264.983 261.067 296.615 261.067 311.991 261.067 335.715 258.894 364.272 258.894 395.904 255.416 409.962 253.243 442.912 255.416 455.653 253.243 492.557 250.2 524.824 250.2"/><polyline class="cls-5" points="46.83 273.238 67.261 273.238 87.256 268.457 132.464 268.457 208.969 258.893 281.562 252.808 330.682 250.2 373.716 250.2 406.317 244.983 468.043 244.983 525.616 244.983"/><path class="cls-6" d="M59,316.672H57.95v-6.721a5.451,5.451,0,0,1-1,.727,7.082,7.082,0,0,1-1.11.545V310.2a6.369,6.369,0,0,0,1.547-1.008,3.964,3.964,0,0,0,.938-1.148H59v8.625Z" transform="translate(-9.704 -6.944)"/><path class="cls-6" d="M61.864,314.685l1.014-.094a1.761,1.761,0,0,0,.492,1.037,1.352,1.352,0,0,0,.932.322,1.608,1.608,0,0,0,.853-0.223,1.82,1.82,0,0,0,.6-0.595,3.5,3.5,0,0,0,.393-1,5.3,5.3,0,0,0,.158-1.289q0-.07-0.006-0.211a2.416,2.416,0,0,1-.864.817,2.349,2.349,0,0,1-1.187.313,2.4,2.4,0,0,1-1.8-.773,2.83,2.83,0,0,1-.738-2.039,2.9,2.9,0,0,1,.771-2.1,2.574,2.574,0,0,1,1.931-.8,2.754,2.754,0,0,1,1.532.451,2.819,2.819,0,0,1,1.055,1.286,6.334,6.334,0,0,1,.36,2.417A7.823,7.823,0,0,1,67,314.823a3.071,3.071,0,0,1-1.063,1.485,2.753,2.753,0,0,1-1.655.51A2.269,2.269,0,0,1,61.864,314.685Zm4.318-3.791a2.065,2.065,0,0,0-.483-1.441,1.515,1.515,0,0,0-1.163-.533,1.606,1.606,0,0,0-1.225.574,2.128,2.128,0,0,0-.521,1.488,1.839,1.839,0,0,0,.5,1.333,1.631,1.631,0,0,0,1.222.513,1.564,1.564,0,0,0,1.2-.513A2.019,2.019,0,0,0,66.183,310.894Z" transform="translate(-9.704 -6.944)"/><path class="cls-6" d="M68.538,314.685l1.014-.094a1.761,1.761,0,0,0,.492,1.037,1.352,1.352,0,0,0,.932.322,1.608,1.608,0,0,0,.853-0.223,1.82,1.82,0,0,0,.6-0.595,3.5,3.5,0,0,0,.393-1,5.3,5.3,0,0,0,.158-1.289q0-.07-0.006-0.211a2.416,2.416,0,0,1-.864.817,2.349,2.349,0,0,1-1.187.313,2.4,2.4,0,0,1-1.8-.773,2.83,2.83,0,0,1-.738-2.039,2.9,2.9,0,0,1,.771-2.1,2.574,2.574,0,0,1,1.931-.8,2.754,2.754,0,0,1,1.532.451,2.819,2.819,0,0,1,1.055,1.286,6.334,6.334,0,0,1,.36,2.417,7.823,7.823,0,0,1-.357,2.622,3.071,3.071,0,0,1-1.063,1.485,2.753,2.753,0,0,1-1.655.51A2.269,2.269,0,0,1,68.538,314.685Zm4.318-3.791a2.065,2.065,0,0,0-.483-1.441,1.515,1.515,0,0,0-1.163-.533,1.606,1.606,0,0,0-1.225.574,2.128,2.128,0,0,0-.521,1.488,1.839,1.839,0,0,0,.5,1.333,1.631,1.631,0,0,0,1.222.513,1.564,1.564,0,0,0,1.2-.513A2.019,2.019,0,0,0,72.856,310.894Z" transform="translate(-9.704 -6.944)"/><path class="cls-6" d="M79.026,316.672H77.972v-6.721a5.451,5.451,0,0,1-1,.727,7.082,7.082,0,0,1-1.11.545V310.2a6.369,6.369,0,0,0,1.547-1.008,3.964,3.964,0,0,0,.938-1.148h0.68v8.625Z" transform="translate(-9.704 -6.944)"/><path class="cls-6" d="M516.3,315.658v1.014h-5.678a1.866,1.866,0,0,1,.123-0.732,3.875,3.875,0,0,1,.694-1.143,10.878,10.878,0,0,1,1.38-1.3,11.7,11.7,0,0,0,1.893-1.819,2.178,2.178,0,0,0,.492-1.269,1.409,1.409,0,0,0-.448-1.058,1.617,1.617,0,0,0-1.169-.431,1.647,1.647,0,0,0-1.219.457,1.729,1.729,0,0,0-.463,1.266l-1.084-.111a2.668,2.668,0,0,1,.838-1.849,2.858,2.858,0,0,1,1.951-.636,2.723,2.723,0,0,1,1.957.686,2.251,2.251,0,0,1,.721,1.7,2.577,2.577,0,0,1-.211,1.014,3.934,3.934,0,0,1-.7,1.049,17.058,17.058,0,0,1-1.626,1.512q-0.949.8-1.219,1.081a3.468,3.468,0,0,0-.445.571H516.3Z" transform="translate(-9.704 -6.944)"/><path class="cls-6" d="M517.426,312.435a7.86,7.86,0,0,1,.313-2.452,3.05,3.05,0,0,1,.932-1.433,2.382,2.382,0,0,1,1.556-.5,2.538,2.538,0,0,1,1.213.278,2.319,2.319,0,0,1,.861.8,4.306,4.306,0,0,1,.533,1.277,8.487,8.487,0,0,1,.193,2.03,7.882,7.882,0,0,1-.311,2.44,3.051,3.051,0,0,1-.929,1.436,2.382,2.382,0,0,1-1.562.507,2.357,2.357,0,0,1-1.951-.891A5.661,5.661,0,0,1,517.426,312.435Zm1.084,0a5.386,5.386,0,0,0,.5,2.815,1.414,1.414,0,0,0,2.443,0,8.252,8.252,0,0,0,0-5.631,1.47,1.47,0,0,0-1.233-.7,1.351,1.351,0,0,0-1.16.615A5.448,5.448,0,0,0,518.51,312.435Z" transform="translate(-9.704 -6.944)"/><path class="cls-6" d="M528.073,316.672h-1.055v-6.721a5.451,5.451,0,0,1-1,.727,7.082,7.082,0,0,1-1.11.545V310.2a6.369,6.369,0,0,0,1.547-1.008,3.964,3.964,0,0,0,.938-1.148h0.68v8.625Z" transform="translate(-9.704 -6.944)"/><path class="cls-6" d="M530.774,314.422l1.107-.094a1.986,1.986,0,0,0,.571,1.216,1.551,1.551,0,0,0,1.081.407,1.684,1.684,0,0,0,1.289-.574,2.164,2.164,0,0,0,.527-1.523,1.956,1.956,0,0,0-.507-1.424,1.767,1.767,0,0,0-1.327-.521,1.839,1.839,0,0,0-.92.231,1.786,1.786,0,0,0-.645.6l-0.99-.129,0.832-4.412h4.271v1.008h-3.428l-0.463,2.309a2.8,2.8,0,0,1,1.623-.539,2.571,2.571,0,0,1,1.9.779,2.724,2.724,0,0,1,.773,2,3.128,3.128,0,0,1-.68,2.016,2.723,2.723,0,0,1-2.256,1.043,2.779,2.779,0,0,1-1.913-.656A2.561,2.561,0,0,1,530.774,314.422Z" transform="translate(-9.704 -6.944)"/><path class="cls-6" d="M19.1,303.356V302.3a3.894,3.894,0,0,1-1.286-.354,2.242,2.242,0,0,1-.855-0.823,2.946,2.946,0,0,1-.419-1.389l1.061-.2a2.675,2.675,0,0,0,.434,1.248,1.538,1.538,0,0,0,1.066.627v-3.357a4.406,4.406,0,0,1-1.33-.5,1.948,1.948,0,0,1-.776-0.779,2.482,2.482,0,0,1,.524-2.953,2.772,2.772,0,0,1,1.582-.574v-0.5h0.621v0.5a2.6,2.6,0,0,1,1.459.539,2.4,2.4,0,0,1,.832,1.576l-1.09.164a1.8,1.8,0,0,0-.39-0.952,1.437,1.437,0,0,0-.812-0.437v3.041a8.364,8.364,0,0,1,1.055.311,2.605,2.605,0,0,1,.8.527,2.121,2.121,0,0,1,.478.738,2.715,2.715,0,0,1-.53,2.754,2.558,2.558,0,0,1-1.8.785v1.066H19.1Zm0-9.234a1.563,1.563,0,0,0-.97.492,1.464,1.464,0,0,0-.053,1.846,2.079,2.079,0,0,0,1.022.58v-2.918Zm0.621,7.289a1.564,1.564,0,0,0,1.017-.533,1.652,1.652,0,0,0,.4-1.131,1.416,1.416,0,0,0-.284-0.923,2.453,2.453,0,0,0-1.134-.624v3.211Z" transform="translate(-9.704 -6.944)"/><path class="cls-6" d="M23.285,297.884a7.86,7.86,0,0,1,.313-2.452A3.05,3.05,0,0,1,24.53,294a2.382,2.382,0,0,1,1.556-.5,2.538,2.538,0,0,1,1.213.278,2.319,2.319,0,0,1,.861.8,4.306,4.306,0,0,1,.533,1.277,8.487,8.487,0,0,1,.193,2.03,7.882,7.882,0,0,1-.311,2.44,3.051,3.051,0,0,1-.929,1.436,2.382,2.382,0,0,1-1.562.507,2.357,2.357,0,0,1-1.951-.891A5.661,5.661,0,0,1,23.285,297.884Zm1.084,0a5.386,5.386,0,0,0,.5,2.815,1.414,1.414,0,0,0,2.443,0,8.252,8.252,0,0,0,0-5.631,1.47,1.47,0,0,0-1.233-.7,1.351,1.351,0,0,0-1.16.615A5.448,5.448,0,0,0,24.369,297.884Z" transform="translate(-9.704 -6.944)"/><path class="cls-6" d="M30.55,302.12v-1.2h1.2v1.2h-1.2Z" transform="translate(-9.704 -6.944)"/><path class="cls-6" d="M33.292,297.884a7.86,7.86,0,0,1,.313-2.452A3.05,3.05,0,0,1,34.538,294a2.382,2.382,0,0,1,1.556-.5,2.538,2.538,0,0,1,1.213.278,2.319,2.319,0,0,1,.861.8,4.306,4.306,0,0,1,.533,1.277,8.487,8.487,0,0,1,.193,2.03,7.882,7.882,0,0,1-.311,2.44,3.051,3.051,0,0,1-.929,1.436,2.382,2.382,0,0,1-1.562.507,2.357,2.357,0,0,1-1.951-.891A5.661,5.661,0,0,1,33.292,297.884Zm1.084,0a5.386,5.386,0,0,0,.5,2.815,1.414,1.414,0,0,0,2.443,0,8.252,8.252,0,0,0,0-5.631,1.47,1.47,0,0,0-1.233-.7,1.351,1.351,0,0,0-1.16.615A5.448,5.448,0,0,0,34.376,297.884Z" transform="translate(-9.704 -6.944)"/><path class="cls-6" d="M39.966,297.884a7.86,7.86,0,0,1,.313-2.452A3.05,3.05,0,0,1,41.211,294a2.382,2.382,0,0,1,1.556-.5,2.538,2.538,0,0,1,1.213.278,2.319,2.319,0,0,1,.861.8,4.306,4.306,0,0,1,.533,1.277,8.487,8.487,0,0,1,.193,2.03,7.882,7.882,0,0,1-.311,2.44,3.051,3.051,0,0,1-.929,1.436,2.382,2.382,0,0,1-1.562.507,2.357,2.357,0,0,1-1.951-.891A5.661,5.661,0,0,1,39.966,297.884Zm1.084,0a5.386,5.386,0,0,0,.5,2.815,1.414,1.414,0,0,0,2.443,0,8.252,8.252,0,0,0,0-5.631,1.47,1.47,0,0,0-1.233-.7,1.351,1.351,0,0,0-1.16.615A5.448,5.448,0,0,0,41.05,297.884Z" transform="translate(-9.704 -6.944)"/><path class="cls-6" d="M19.1,256.615V255.56a3.894,3.894,0,0,1-1.286-.354,2.242,2.242,0,0,1-.855-0.823,2.946,2.946,0,0,1-.419-1.389l1.061-.2a2.675,2.675,0,0,0,.434,1.248,1.538,1.538,0,0,0,1.066.627v-3.357a4.406,4.406,0,0,1-1.33-.5,1.948,1.948,0,0,1-.776-0.779,2.482,2.482,0,0,1,.524-2.953A2.772,2.772,0,0,1,19.1,246.5V246h0.621v0.5a2.6,2.6,0,0,1,1.459.539,2.4,2.4,0,0,1,.832,1.576l-1.09.164a1.8,1.8,0,0,0-.39-0.952,1.437,1.437,0,0,0-.812-0.437v3.041a8.364,8.364,0,0,1,1.055.311,2.605,2.605,0,0,1,.8.527,2.121,2.121,0,0,1,.478.738,2.715,2.715,0,0,1-.53,2.754,2.558,2.558,0,0,1-1.8.785v1.066H19.1Zm0-9.234a1.563,1.563,0,0,0-.97.492,1.464,1.464,0,0,0-.053,1.846,2.079,2.079,0,0,0,1.022.58v-2.918Zm0.621,7.289a1.564,1.564,0,0,0,1.017-.533,1.652,1.652,0,0,0,.4-1.131,1.416,1.416,0,0,0-.284-0.923,2.453,2.453,0,0,0-1.134-.624v3.211Z" transform="translate(-9.704 -6.944)"/><path class="cls-6" d="M28.828,254.365v1.014H23.15a1.866,1.866,0,0,1,.123-0.732,3.875,3.875,0,0,1,.694-1.143,10.878,10.878,0,0,1,1.38-1.3,11.7,11.7,0,0,0,1.893-1.819,2.178,2.178,0,0,0,.492-1.269,1.409,1.409,0,0,0-.448-1.058,1.617,1.617,0,0,0-1.169-.431,1.647,1.647,0,0,0-1.219.457,1.729,1.729,0,0,0-.463,1.266l-1.084-.111a2.668,2.668,0,0,1,.838-1.849,2.858,2.858,0,0,1,1.951-.636,2.723,2.723,0,0,1,1.957.686,2.251,2.251,0,0,1,.721,1.7,2.577,2.577,0,0,1-.211,1.014,3.934,3.934,0,0,1-.7,1.049,17.058,17.058,0,0,1-1.626,1.512q-0.949.8-1.219,1.081a3.468,3.468,0,0,0-.445.571h4.213Z" transform="translate(-9.704 -6.944)"/><path class="cls-6" d="M30.55,255.379v-1.2h1.2v1.2h-1.2Z" transform="translate(-9.704 -6.944)"/><path class="cls-6" d="M33.292,251.142a7.86,7.86,0,0,1,.313-2.452,3.05,3.05,0,0,1,.932-1.433,2.382,2.382,0,0,1,1.556-.5,2.538,2.538,0,0,1,1.213.278,2.319,2.319,0,0,1,.861.8,4.306,4.306,0,0,1,.533,1.277,8.487,8.487,0,0,1,.193,2.03,7.882,7.882,0,0,1-.311,2.44,3.051,3.051,0,0,1-.929,1.436,2.382,2.382,0,0,1-1.562.507,2.357,2.357,0,0,1-1.951-.891A5.661,5.661,0,0,1,33.292,251.142Zm1.084,0a5.386,5.386,0,0,0,.5,2.815,1.414,1.414,0,0,0,2.443,0,8.252,8.252,0,0,0,0-5.631,1.47,1.47,0,0,0-1.233-.7,1.351,1.351,0,0,0-1.16.615A5.448,5.448,0,0,0,34.376,251.142Z" transform="translate(-9.704 -6.944)"/><path class="cls-6" d="M39.966,251.142a7.86,7.86,0,0,1,.313-2.452,3.05,3.05,0,0,1,.932-1.433,2.382,2.382,0,0,1,1.556-.5,2.538,2.538,0,0,1,1.213.278,2.319,2.319,0,0,1,.861.8,4.306,4.306,0,0,1,.533,1.277,8.487,8.487,0,0,1,.193,2.03,7.882,7.882,0,0,1-.311,2.44,3.051,3.051,0,0,1-.929,1.436,2.382,2.382,0,0,1-1.562.507,2.357,2.357,0,0,1-1.951-.891A5.661,5.661,0,0,1,39.966,251.142Zm1.084,0a5.386,5.386,0,0,0,.5,2.815,1.414,1.414,0,0,0,2.443,0,8.252,8.252,0,0,0,0-5.631,1.47,1.47,0,0,0-1.233-.7,1.351,1.351,0,0,0-1.16.615A5.448,5.448,0,0,0,41.05,251.142Z" transform="translate(-9.704 -6.944)"/><path class="cls-6" d="M19.1,206.1v-1.055a3.894,3.894,0,0,1-1.286-.354,2.242,2.242,0,0,1-.855-0.823,2.946,2.946,0,0,1-.419-1.389l1.061-.2a2.675,2.675,0,0,0,.434,1.248,1.538,1.538,0,0,0,1.066.627V200.8a4.406,4.406,0,0,1-1.33-.5,1.948,1.948,0,0,1-.776-0.779,2.482,2.482,0,0,1,.524-2.953,2.772,2.772,0,0,1,1.582-.574v-0.5h0.621v0.5a2.6,2.6,0,0,1,1.459.539,2.4,2.4,0,0,1,.832,1.576l-1.09.164a1.8,1.8,0,0,0-.39-0.952,1.437,1.437,0,0,0-.812-0.437v3.041a8.364,8.364,0,0,1,1.055.311,2.605,2.605,0,0,1,.8.527,2.121,2.121,0,0,1,.478.738,2.715,2.715,0,0,1-.53,2.754,2.558,2.558,0,0,1-1.8.785V206.1H19.1Zm0-9.234a1.563,1.563,0,0,0-.97.492,1.464,1.464,0,0,0-.053,1.846,2.079,2.079,0,0,0,1.022.58v-2.918Zm0.621,7.289a1.564,1.564,0,0,0,1.017-.533,1.652,1.652,0,0,0,.4-1.131,1.416,1.416,0,0,0-.284-0.923,2.453,2.453,0,0,0-1.134-.624v3.211Z" transform="translate(-9.704 -6.944)"/><path class="cls-6" d="M26.665,204.863v-2.057H22.939V201.84l3.92-5.566H27.72v5.566h1.16v0.967H27.72v2.057H26.665Zm0-3.023v-3.873l-2.689,3.873h2.689Z" transform="translate(-9.704 -6.944)"/><path class="cls-6" d="M30.55,204.863v-1.2h1.2v1.2h-1.2Z" transform="translate(-9.704 -6.944)"/><path class="cls-6" d="M33.292,200.627a7.86,7.86,0,0,1,.313-2.452,3.05,3.05,0,0,1,.932-1.433,2.382,2.382,0,0,1,1.556-.5,2.538,2.538,0,0,1,1.213.278,2.319,2.319,0,0,1,.861.8A4.306,4.306,0,0,1,38.7,198.6a8.487,8.487,0,0,1,.193,2.03,7.882,7.882,0,0,1-.311,2.44,3.051,3.051,0,0,1-.929,1.436,2.382,2.382,0,0,1-1.562.507,2.357,2.357,0,0,1-1.951-.891A5.661,5.661,0,0,1,33.292,200.627Zm1.084,0a5.386,5.386,0,0,0,.5,2.815,1.414,1.414,0,0,0,2.443,0,8.252,8.252,0,0,0,0-5.631,1.47,1.47,0,0,0-1.233-.7,1.351,1.351,0,0,0-1.16.615A5.448,5.448,0,0,0,34.376,200.627Z" transform="translate(-9.704 -6.944)"/><path class="cls-6" d="M39.966,200.627a7.86,7.86,0,0,1,.313-2.452,3.05,3.05,0,0,1,.932-1.433,2.382,2.382,0,0,1,1.556-.5,2.538,2.538,0,0,1,1.213.278,2.319,2.319,0,0,1,.861.8,4.306,4.306,0,0,1,.533,1.277,8.487,8.487,0,0,1,.193,2.03,7.882,7.882,0,0,1-.311,2.44,3.051,3.051,0,0,1-.929,1.436,2.382,2.382,0,0,1-1.562.507,2.357,2.357,0,0,1-1.951-.891A5.661,5.661,0,0,1,39.966,200.627Zm1.084,0a5.386,5.386,0,0,0,.5,2.815,1.414,1.414,0,0,0,2.443,0,8.252,8.252,0,0,0,0-5.631,1.47,1.47,0,0,0-1.233-.7,1.351,1.351,0,0,0-1.16.615A5.448,5.448,0,0,0,41.05,200.627Z" transform="translate(-9.704 -6.944)"/><path class="cls-6" d="M19.1,154.016v-1.055a3.894,3.894,0,0,1-1.286-.354,2.242,2.242,0,0,1-.855-0.823,2.946,2.946,0,0,1-.419-1.389l1.061-.2a2.675,2.675,0,0,0,.434,1.248,1.538,1.538,0,0,0,1.066.627v-3.357a4.406,4.406,0,0,1-1.33-.5,1.948,1.948,0,0,1-.776-0.779,2.482,2.482,0,0,1,.524-2.953A2.772,2.772,0,0,1,19.1,143.9v-0.5h0.621v0.5a2.6,2.6,0,0,1,1.459.539,2.4,2.4,0,0,1,.832,1.576l-1.09.164a1.8,1.8,0,0,0-.39-0.952,1.437,1.437,0,0,0-.812-0.437v3.041a8.364,8.364,0,0,1,1.055.311,2.605,2.605,0,0,1,.8.527,2.121,2.121,0,0,1,.478.738,2.715,2.715,0,0,1-.53,2.754,2.558,2.558,0,0,1-1.8.785v1.066H19.1Zm0-9.234a1.563,1.563,0,0,0-.97.492,1.464,1.464,0,0,0-.053,1.846,2.079,2.079,0,0,0,1.022.58v-2.918Zm0.621,7.289a1.564,1.564,0,0,0,1.017-.533,1.652,1.652,0,0,0,.4-1.131,1.416,1.416,0,0,0-.284-0.923,2.453,2.453,0,0,0-1.134-.624v3.211Z" transform="translate(-9.704 -6.944)"/><path class="cls-6" d="M28.757,146.293l-1.049.082a1.986,1.986,0,0,0-.4-0.9,1.4,1.4,0,0,0-1.055-.451,1.449,1.449,0,0,0-.885.281,2.4,2.4,0,0,0-.785,1.061,5.542,5.542,0,0,0-.3,1.986,2.444,2.444,0,0,1,.932-0.861,2.506,2.506,0,0,1,1.154-.281,2.391,2.391,0,0,1,1.8.776,2.787,2.787,0,0,1,.741,2.007,3.3,3.3,0,0,1-.349,1.5,2.54,2.54,0,0,1-.958,1.063,2.616,2.616,0,0,1-1.383.369,2.7,2.7,0,0,1-2.15-.97,4.9,4.9,0,0,1-.832-3.2,5.73,5.73,0,0,1,.92-3.621,2.645,2.645,0,0,1,2.162-.984A2.3,2.3,0,0,1,28.757,146.293ZM24.451,150a2.447,2.447,0,0,0,.231,1.043,1.725,1.725,0,0,0,.647.759,1.619,1.619,0,0,0,.873.261,1.488,1.488,0,0,0,1.148-.539,2.122,2.122,0,0,0,.48-1.465,1.985,1.985,0,0,0-.475-1.4,1.56,1.56,0,0,0-1.2-.513,1.627,1.627,0,0,0-1.213.513A1.848,1.848,0,0,0,24.451,150Z" transform="translate(-9.704 -6.944)"/><path class="cls-6" d="M30.55,152.779v-1.2h1.2v1.2h-1.2Z" transform="translate(-9.704 -6.944)"/><path class="cls-6" d="M33.292,148.543a7.86,7.86,0,0,1,.313-2.452,3.05,3.05,0,0,1,.932-1.433,2.382,2.382,0,0,1,1.556-.5,2.538,2.538,0,0,1,1.213.278,2.319,2.319,0,0,1,.861.8,4.306,4.306,0,0,1,.533,1.277,8.487,8.487,0,0,1,.193,2.03,7.882,7.882,0,0,1-.311,2.44,3.051,3.051,0,0,1-.929,1.436,2.382,2.382,0,0,1-1.562.507,2.357,2.357,0,0,1-1.951-.891A5.661,5.661,0,0,1,33.292,148.543Zm1.084,0a5.386,5.386,0,0,0,.5,2.815,1.414,1.414,0,0,0,2.443,0,8.252,8.252,0,0,0,0-5.631,1.47,1.47,0,0,0-1.233-.7,1.351,1.351,0,0,0-1.16.615A5.448,5.448,0,0,0,34.376,148.543Z" transform="translate(-9.704 -6.944)"/><path class="cls-6" d="M39.966,148.543a7.86,7.86,0,0,1,.313-2.452,3.05,3.05,0,0,1,.932-1.433,2.382,2.382,0,0,1,1.556-.5,2.538,2.538,0,0,1,1.213.278,2.319,2.319,0,0,1,.861.8,4.306,4.306,0,0,1,.533,1.277,8.487,8.487,0,0,1,.193,2.03,7.882,7.882,0,0,1-.311,2.44,3.051,3.051,0,0,1-.929,1.436,2.382,2.382,0,0,1-1.562.507,2.357,2.357,0,0,1-1.951-.891A5.661,5.661,0,0,1,39.966,148.543Zm1.084,0a5.386,5.386,0,0,0,.5,2.815,1.414,1.414,0,0,0,2.443,0,8.252,8.252,0,0,0,0-5.631,1.47,1.47,0,0,0-1.233-.7,1.351,1.351,0,0,0-1.16.615A5.448,5.448,0,0,0,41.05,148.543Z" transform="translate(-9.704 -6.944)"/><path class="cls-6" d="M19.1,105.623v-1.055a3.894,3.894,0,0,1-1.286-.354,2.242,2.242,0,0,1-.855-0.823A2.946,2.946,0,0,1,16.54,102l1.061-.2a2.675,2.675,0,0,0,.434,1.248,1.538,1.538,0,0,0,1.066.627V100.32a4.406,4.406,0,0,1-1.33-.5,1.948,1.948,0,0,1-.776-0.779,2.482,2.482,0,0,1,.524-2.953A2.772,2.772,0,0,1,19.1,95.51v-0.5h0.621v0.5a2.6,2.6,0,0,1,1.459.539,2.4,2.4,0,0,1,.832,1.576l-1.09.164a1.8,1.8,0,0,0-.39-0.952,1.437,1.437,0,0,0-.812-0.437v3.041a8.364,8.364,0,0,1,1.055.311,2.605,2.605,0,0,1,.8.527,2.121,2.121,0,0,1,.478.738,2.715,2.715,0,0,1-.53,2.754,2.558,2.558,0,0,1-1.8.785v1.066H19.1Zm0-9.234a1.563,1.563,0,0,0-.97.492,1.464,1.464,0,0,0-.053,1.846,2.079,2.079,0,0,0,1.022.58V96.389Zm0.621,7.289a1.564,1.564,0,0,0,1.017-.533,1.652,1.652,0,0,0,.4-1.131,1.416,1.416,0,0,0-.284-0.923,2.453,2.453,0,0,0-1.134-.624v3.211Z" transform="translate(-9.704 -6.944)"/><path class="cls-6" d="M24.908,99.728a1.985,1.985,0,0,1-.973-0.686,1.793,1.793,0,0,1-.316-1.066,2.085,2.085,0,0,1,.674-1.576,2.836,2.836,0,0,1,3.6.015,2.115,2.115,0,0,1,.686,1.591,1.752,1.752,0,0,1-.313,1.04,1.977,1.977,0,0,1-.952.683,2.309,2.309,0,0,1,1.2.832,2.285,2.285,0,0,1,.413,1.371,2.468,2.468,0,0,1-.779,1.852,3.174,3.174,0,0,1-4.1,0,2.5,2.5,0,0,1-.779-1.878,2.27,2.27,0,0,1,.425-1.4A2.127,2.127,0,0,1,24.908,99.728Zm-0.551,2.18a1.908,1.908,0,0,0,.214.873,1.509,1.509,0,0,0,.636.653,1.859,1.859,0,0,0,.908.231,1.7,1.7,0,0,0,1.248-.486,1.664,1.664,0,0,0,.492-1.236,1.692,1.692,0,0,0-.507-1.26,1.737,1.737,0,0,0-1.269-.5A1.678,1.678,0,0,0,24.357,101.908Zm0.34-3.967a1.337,1.337,0,0,0,.393,1,1.391,1.391,0,0,0,1.02.387,1.364,1.364,0,0,0,1-.384A1.269,1.269,0,0,0,27.5,98a1.316,1.316,0,0,0-.4-0.976,1.367,1.367,0,0,0-1-.4,1.381,1.381,0,0,0-1,.387A1.245,1.245,0,0,0,24.7,97.941Z" transform="translate(-9.704 -6.944)"/><path class="cls-6" d="M30.55,104.387v-1.2h1.2v1.2h-1.2Z" transform="translate(-9.704 -6.944)"/><path class="cls-6" d="M33.292,100.15a7.86,7.86,0,0,1,.313-2.452,3.05,3.05,0,0,1,.932-1.433,2.382,2.382,0,0,1,1.556-.5,2.538,2.538,0,0,1,1.213.278,2.319,2.319,0,0,1,.861.8A4.306,4.306,0,0,1,38.7,98.12a8.487,8.487,0,0,1,.193,2.03,7.882,7.882,0,0,1-.311,2.44,3.051,3.051,0,0,1-.929,1.436,2.382,2.382,0,0,1-1.562.507,2.357,2.357,0,0,1-1.951-.891A5.661,5.661,0,0,1,33.292,100.15Zm1.084,0a5.386,5.386,0,0,0,.5,2.815,1.414,1.414,0,0,0,2.443,0,5.388,5.388,0,0,0,.5-2.812,5.384,5.384,0,0,0-.5-2.818,1.47,1.47,0,0,0-1.233-.7,1.351,1.351,0,0,0-1.16.615A5.448,5.448,0,0,0,34.376,100.15Z" transform="translate(-9.704 -6.944)"/><path class="cls-6" d="M39.966,100.15A7.86,7.86,0,0,1,40.28,97.7a3.05,3.05,0,0,1,.932-1.433,2.382,2.382,0,0,1,1.556-.5,2.538,2.538,0,0,1,1.213.278,2.319,2.319,0,0,1,.861.8,4.306,4.306,0,0,1,.533,1.277,8.487,8.487,0,0,1,.193,2.03,7.882,7.882,0,0,1-.311,2.44,3.051,3.051,0,0,1-.929,1.436,2.382,2.382,0,0,1-1.562.507,2.357,2.357,0,0,1-1.951-.891A5.661,5.661,0,0,1,39.966,100.15Zm1.084,0a5.386,5.386,0,0,0,.5,2.815,1.414,1.414,0,0,0,2.443,0,5.388,5.388,0,0,0,.5-2.812,5.384,5.384,0,0,0-.5-2.818,1.47,1.47,0,0,0-1.233-.7,1.351,1.351,0,0,0-1.16.615A5.448,5.448,0,0,0,41.05,100.15Z" transform="translate(-9.704 -6.944)"/><path class="cls-6" d="M12.264,60.091V59.036a3.894,3.894,0,0,1-1.286-.354,2.242,2.242,0,0,1-.855-0.823A2.946,2.946,0,0,1,9.7,56.47l1.061-.2a2.675,2.675,0,0,0,.434,1.248,1.538,1.538,0,0,0,1.066.627V54.788a4.406,4.406,0,0,1-1.33-.5,1.948,1.948,0,0,1-.776-0.779,2.482,2.482,0,0,1,.524-2.953,2.772,2.772,0,0,1,1.582-.574v-0.5h0.621v0.5a2.6,2.6,0,0,1,1.459.539,2.4,2.4,0,0,1,.832,1.576l-1.09.164A1.8,1.8,0,0,0,13.7,51.3a1.437,1.437,0,0,0-.812-0.437v3.041a8.364,8.364,0,0,1,1.055.311,2.605,2.605,0,0,1,.8.527,2.121,2.121,0,0,1,.478.738,2.715,2.715,0,0,1-.53,2.754,2.558,2.558,0,0,1-1.8.785v1.066H12.264Zm0-9.234a1.563,1.563,0,0,0-.97.492,1.464,1.464,0,0,0-.053,1.846,2.079,2.079,0,0,0,1.022.58V50.856Zm0.621,7.289a1.564,1.564,0,0,0,1.017-.533,1.652,1.652,0,0,0,.4-1.131,1.416,1.416,0,0,0-.284-0.923,2.453,2.453,0,0,0-1.134-.624v3.211Z" transform="translate(-9.704 -6.944)"/><path class="cls-6" d="M20.42,58.854H19.366V52.134a5.451,5.451,0,0,1-1,.727,7.082,7.082,0,0,1-1.11.545v-1.02A6.369,6.369,0,0,0,18.8,51.378a3.964,3.964,0,0,0,.938-1.148h0.68v8.625Z" transform="translate(-9.704 -6.944)"/><path class="cls-6" d="M23.122,54.618a7.86,7.86,0,0,1,.313-2.452,3.05,3.05,0,0,1,.932-1.433,2.382,2.382,0,0,1,1.556-.5,2.538,2.538,0,0,1,1.213.278,2.319,2.319,0,0,1,.861.8,4.306,4.306,0,0,1,.533,1.277,8.487,8.487,0,0,1,.193,2.03,7.882,7.882,0,0,1-.311,2.44,3.051,3.051,0,0,1-.929,1.436A2.382,2.382,0,0,1,25.922,59a2.357,2.357,0,0,1-1.951-.891A5.661,5.661,0,0,1,23.122,54.618Zm1.084,0a5.386,5.386,0,0,0,.5,2.815,1.414,1.414,0,0,0,2.443,0,5.388,5.388,0,0,0,.5-2.812,5.384,5.384,0,0,0-.5-2.818,1.47,1.47,0,0,0-1.233-.7,1.351,1.351,0,0,0-1.16.615A5.448,5.448,0,0,0,24.206,54.618Z" transform="translate(-9.704 -6.944)"/><path class="cls-6" d="M30.387,58.854v-1.2h1.2v1.2h-1.2Z" transform="translate(-9.704 -6.944)"/><path class="cls-6" d="M33.129,54.618a7.86,7.86,0,0,1,.313-2.452,3.05,3.05,0,0,1,.932-1.433,2.382,2.382,0,0,1,1.556-.5,2.538,2.538,0,0,1,1.213.278,2.319,2.319,0,0,1,.861.8,4.306,4.306,0,0,1,.533,1.277,8.487,8.487,0,0,1,.193,2.03,7.882,7.882,0,0,1-.311,2.44,3.051,3.051,0,0,1-.929,1.436A2.382,2.382,0,0,1,35.93,59a2.357,2.357,0,0,1-1.951-.891A5.661,5.661,0,0,1,33.129,54.618Zm1.084,0a5.386,5.386,0,0,0,.5,2.815,1.414,1.414,0,0,0,2.443,0,5.388,5.388,0,0,0,.5-2.812,5.384,5.384,0,0,0-.5-2.818,1.47,1.47,0,0,0-1.233-.7,1.351,1.351,0,0,0-1.16.615A5.448,5.448,0,0,0,34.213,54.618Z" transform="translate(-9.704 -6.944)"/><path class="cls-6" d="M39.8,54.618a7.86,7.86,0,0,1,.313-2.452,3.05,3.05,0,0,1,.932-1.433,2.382,2.382,0,0,1,1.556-.5,2.538,2.538,0,0,1,1.213.278,2.319,2.319,0,0,1,.861.8,4.306,4.306,0,0,1,.533,1.277,8.487,8.487,0,0,1,.193,2.03,7.882,7.882,0,0,1-.311,2.44,3.051,3.051,0,0,1-.929,1.436A2.382,2.382,0,0,1,42.6,59a2.357,2.357,0,0,1-1.951-.891A5.661,5.661,0,0,1,39.8,54.618Zm1.084,0a5.386,5.386,0,0,0,.5,2.815,1.414,1.414,0,0,0,2.443,0,5.388,5.388,0,0,0,.5-2.812,5.384,5.384,0,0,0-.5-2.818,1.47,1.47,0,0,0-1.233-.7,1.351,1.351,0,0,0-1.16.615A5.448,5.448,0,0,0,40.887,54.618Z" transform="translate(-9.704 -6.944)"/><path class="cls-6" d="M544.945,264.795H543.89v-6.721a5.451,5.451,0,0,1-1,.727,7.082,7.082,0,0,1-1.11.545v-1.02a6.369,6.369,0,0,0,1.547-1.008,3.964,3.964,0,0,0,.938-1.148h0.68v8.625Z" transform="translate(-9.704 -6.944)"/><path class="cls-6" d="M548.238,264.795v-1.2h1.2v1.2h-1.2Z" transform="translate(-9.704 -6.944)"/><path class="cls-6" d="M551.05,257.33v-1.014h5.561v0.82a11.718,11.718,0,0,0-1.626,2.32,14.132,14.132,0,0,0-1.245,2.977,11.063,11.063,0,0,0-.4,2.361h-1.084a10.526,10.526,0,0,1,.4-2.449,12.861,12.861,0,0,1,1.093-2.769,11.868,11.868,0,0,1,1.515-2.247H551.05Z" transform="translate(-9.704 -6.944)"/><path class="cls-6" d="M561.035,264.795v-2.057h-3.727v-0.967l3.92-5.566h0.861v5.566h1.16v0.967h-1.16v2.057h-1.055Zm0-3.023V257.9l-2.689,3.873h2.689Z" transform="translate(-9.704 -6.944)"/><path class="cls-6" d="M544.945,250.1H543.89v-6.721a5.451,5.451,0,0,1-1,.727,7.082,7.082,0,0,1-1.11.545v-1.02a6.369,6.369,0,0,0,1.547-1.008,3.964,3.964,0,0,0,.938-1.148h0.68V250.1Z" transform="translate(-9.704 -6.944)"/><path class="cls-6" d="M548.238,250.1v-1.2h1.2v1.2h-1.2Z" transform="translate(-9.704 -6.944)"/><path class="cls-6" d="M551.138,248.116l1.014-.094a1.761,1.761,0,0,0,.492,1.037,1.352,1.352,0,0,0,.932.322,1.608,1.608,0,0,0,.853-0.223,1.82,1.82,0,0,0,.6-0.595,3.5,3.5,0,0,0,.393-1,5.3,5.3,0,0,0,.158-1.289q0-.07-0.006-0.211a2.416,2.416,0,0,1-.864.817,2.349,2.349,0,0,1-1.187.313,2.4,2.4,0,0,1-1.8-.773,2.83,2.83,0,0,1-.738-2.039,2.9,2.9,0,0,1,.771-2.1,2.574,2.574,0,0,1,1.931-.8,2.754,2.754,0,0,1,1.532.451,2.819,2.819,0,0,1,1.055,1.286,6.334,6.334,0,0,1,.36,2.417,7.823,7.823,0,0,1-.357,2.622,3.071,3.071,0,0,1-1.063,1.485,2.753,2.753,0,0,1-1.655.51A2.269,2.269,0,0,1,551.138,248.116Zm4.318-3.791a2.065,2.065,0,0,0-.483-1.441,1.515,1.515,0,0,0-1.163-.533,1.606,1.606,0,0,0-1.225.574,2.128,2.128,0,0,0-.521,1.488,1.839,1.839,0,0,0,.5,1.333,1.631,1.631,0,0,0,1.222.513,1.564,1.564,0,0,0,1.2-.513A2.019,2.019,0,0,0,555.457,244.325Z" transform="translate(-9.704 -6.944)"/><path class="cls-6" d="M563.126,243.616l-1.049.082a1.986,1.986,0,0,0-.4-0.9,1.4,1.4,0,0,0-1.055-.451,1.449,1.449,0,0,0-.885.281,2.4,2.4,0,0,0-.785,1.061,5.542,5.542,0,0,0-.3,1.986,2.444,2.444,0,0,1,.932-0.861,2.506,2.506,0,0,1,1.154-.281,2.391,2.391,0,0,1,1.8.776,2.787,2.787,0,0,1,.741,2.007,3.3,3.3,0,0,1-.349,1.5,2.54,2.54,0,0,1-.958,1.063,2.616,2.616,0,0,1-1.383.369,2.7,2.7,0,0,1-2.15-.97,4.9,4.9,0,0,1-.832-3.2,5.73,5.73,0,0,1,.92-3.621,2.645,2.645,0,0,1,2.162-.984A2.3,2.3,0,0,1,563.126,243.616Zm-4.307,3.7a2.447,2.447,0,0,0,.231,1.043,1.725,1.725,0,0,0,.647.759,1.619,1.619,0,0,0,.873.261,1.488,1.488,0,0,0,1.148-.539,2.122,2.122,0,0,0,.48-1.465,1.985,1.985,0,0,0-.475-1.4,1.56,1.56,0,0,0-1.2-.513,1.627,1.627,0,0,0-1.213.513A1.848,1.848,0,0,0,558.82,247.319Z" transform="translate(-9.704 -6.944)"/><path class="cls-6" d="M512.189,138.164l1.107-.094a1.986,1.986,0,0,0,.571,1.216,1.551,1.551,0,0,0,1.081.407,1.684,1.684,0,0,0,1.289-.574,2.164,2.164,0,0,0,.527-1.523,1.956,1.956,0,0,0-.507-1.424,1.767,1.767,0,0,0-1.327-.521,1.839,1.839,0,0,0-.92.231,1.786,1.786,0,0,0-.645.6l-0.99-.129,0.832-4.412h4.271v1.008h-3.428l-0.463,2.309a2.8,2.8,0,0,1,1.623-.539,2.571,2.571,0,0,1,1.9.779,2.724,2.724,0,0,1,.773,2,3.128,3.128,0,0,1-.68,2.016,2.723,2.723,0,0,1-2.256,1.043,2.779,2.779,0,0,1-1.913-.656A2.561,2.561,0,0,1,512.189,138.164Z" transform="translate(-9.704 -6.944)"/><path class="cls-6" d="M519.455,140.414v-1.2h1.2v1.2h-1.2Z" transform="translate(-9.704 -6.944)"/><path class="cls-6" d="M522.267,132.949v-1.014h5.561v0.82a11.718,11.718,0,0,0-1.626,2.32,14.132,14.132,0,0,0-1.245,2.977,11.063,11.063,0,0,0-.4,2.361h-1.084a10.526,10.526,0,0,1,.4-2.449,12.861,12.861,0,0,1,1.093-2.769,11.868,11.868,0,0,1,1.515-2.247h-4.207Z" transform="translate(-9.704 -6.944)"/><path class="cls-6" d="M529.029,138.428l1.014-.094a1.761,1.761,0,0,0,.492,1.037,1.352,1.352,0,0,0,.932.322,1.608,1.608,0,0,0,.853-0.223,1.82,1.82,0,0,0,.6-0.595,3.5,3.5,0,0,0,.393-1,5.3,5.3,0,0,0,.158-1.289q0-.07-0.006-0.211a2.416,2.416,0,0,1-.864.817,2.349,2.349,0,0,1-1.187.313,2.4,2.4,0,0,1-1.8-.773,2.83,2.83,0,0,1-.738-2.039,2.9,2.9,0,0,1,.771-2.1,2.574,2.574,0,0,1,1.931-.8,2.754,2.754,0,0,1,1.532.451,2.819,2.819,0,0,1,1.055,1.286,6.334,6.334,0,0,1,.36,2.417,7.823,7.823,0,0,1-.357,2.622,3.071,3.071,0,0,1-1.063,1.485,2.753,2.753,0,0,1-1.655.51A2.269,2.269,0,0,1,529.029,138.428Zm4.318-3.791a2.065,2.065,0,0,0-.483-1.441,1.515,1.515,0,0,0-1.163-.533,1.606,1.606,0,0,0-1.225.574,2.128,2.128,0,0,0-.521,1.488,1.839,1.839,0,0,0,.5,1.333,1.631,1.631,0,0,0,1.222.513,1.564,1.564,0,0,0,1.2-.513A2.019,2.019,0,0,0,533.347,134.637Z" transform="translate(-9.704 -6.944)"/><path class="cls-6" d="M513.678,79.028a1.985,1.985,0,0,1-.973-0.686,1.793,1.793,0,0,1-.316-1.066,2.085,2.085,0,0,1,.674-1.576,2.836,2.836,0,0,1,3.6.015,2.115,2.115,0,0,1,.686,1.591,1.752,1.752,0,0,1-.313,1.04,1.977,1.977,0,0,1-.952.683,2.309,2.309,0,0,1,1.2.832,2.285,2.285,0,0,1,.413,1.371,2.468,2.468,0,0,1-.779,1.852,3.174,3.174,0,0,1-4.1,0,2.5,2.5,0,0,1-.779-1.878,2.27,2.27,0,0,1,.425-1.4A2.127,2.127,0,0,1,513.678,79.028Zm-0.551,2.18a1.908,1.908,0,0,0,.214.873,1.509,1.509,0,0,0,.636.653,1.859,1.859,0,0,0,.908.231,1.7,1.7,0,0,0,1.248-.486,1.664,1.664,0,0,0,.492-1.236,1.692,1.692,0,0,0-.507-1.26,1.737,1.737,0,0,0-1.269-.5A1.678,1.678,0,0,0,513.127,81.208Zm0.34-3.967a1.337,1.337,0,0,0,.393,1,1.391,1.391,0,0,0,1.02.387,1.364,1.364,0,0,0,1-.384,1.269,1.269,0,0,0,.39-0.94,1.316,1.316,0,0,0-.4-0.976,1.367,1.367,0,0,0-1-.4,1.381,1.381,0,0,0-1,.387A1.245,1.245,0,0,0,513.467,77.241Z" transform="translate(-9.704 -6.944)"/><path class="cls-6" d="M519.321,83.686v-1.2h1.2v1.2h-1.2Z" transform="translate(-9.704 -6.944)"/><path class="cls-6" d="M525.444,83.686V81.63h-3.727V80.663l3.92-5.566H526.5v5.566h1.16V81.63H526.5v2.057h-1.055Zm0-3.023V76.79l-2.689,3.873h2.689Z" transform="translate(-9.704 -6.944)"/><path class="cls-6" d="M528.895,81.7l1.014-.094a1.761,1.761,0,0,0,.492,1.037,1.352,1.352,0,0,0,.932.322,1.608,1.608,0,0,0,.853-0.223,1.82,1.82,0,0,0,.6-0.595,3.5,3.5,0,0,0,.393-1,5.3,5.3,0,0,0,.158-1.289q0-.07-0.006-0.211a2.416,2.416,0,0,1-.864.817,2.349,2.349,0,0,1-1.187.313,2.4,2.4,0,0,1-1.8-.773,2.83,2.83,0,0,1-.738-2.039,2.9,2.9,0,0,1,.771-2.1,2.574,2.574,0,0,1,1.931-.8,2.754,2.754,0,0,1,1.532.451,2.819,2.819,0,0,1,1.055,1.286,6.334,6.334,0,0,1,.36,2.417,7.823,7.823,0,0,1-.357,2.622,3.071,3.071,0,0,1-1.063,1.485,2.753,2.753,0,0,1-1.655.51A2.269,2.269,0,0,1,528.895,81.7Zm4.318-3.791a2.065,2.065,0,0,0-.483-1.441,1.515,1.515,0,0,0-1.163-.533,1.606,1.606,0,0,0-1.225.574A2.128,2.128,0,0,0,529.821,78a1.839,1.839,0,0,0,.5,1.333,1.631,1.631,0,0,0,1.222.513,1.564,1.564,0,0,0,1.2-.513A2.019,2.019,0,0,0,533.213,77.909Z" transform="translate(-9.704 -6.944)"/><rect class="cls-7" x="133.789" y="316.508" width="29.596" height="20.986"/><rect class="cls-8" x="380.367" y="316.01" width="29.596" height="20.986"/><rect class="cls-9" x="300.058" y="316.508" width="29.596" height="20.986"/><rect class="cls-10" x="215.969" y="316.011" width="29.596" height="20.986"/><path class="cls-7" d="M146.932,355.571l1.072-.094a2.368,2.368,0,0,0,.354,1.058,1.935,1.935,0,0,0,.864.668,3.273,3.273,0,0,0,1.318.255,3.159,3.159,0,0,0,1.148-.193,1.593,1.593,0,0,0,.741-0.53,1.23,1.23,0,0,0,.243-0.735,1.118,1.118,0,0,0-.234-0.706,1.736,1.736,0,0,0-.773-0.507,15.117,15.117,0,0,0-1.529-.419,7.814,7.814,0,0,1-1.658-.536,2.325,2.325,0,0,1-.917-0.8,1.96,1.96,0,0,1-.3-1.069,2.183,2.183,0,0,1,.369-1.216,2.286,2.286,0,0,1,1.078-.858,4.09,4.09,0,0,1,1.576-.293,4.306,4.306,0,0,1,1.685.308,2.43,2.43,0,0,1,1.122.905,2.6,2.6,0,0,1,.422,1.354l-1.09.082a1.758,1.758,0,0,0-.595-1.23,2.315,2.315,0,0,0-1.5-.416,2.4,2.4,0,0,0-1.5.378,1.133,1.133,0,0,0-.472.911,0.977,0.977,0,0,0,.334.762,4.526,4.526,0,0,0,1.714.612,11.336,11.336,0,0,1,1.9.548,2.6,2.6,0,0,1,1.107.876,2.134,2.134,0,0,1,.357,1.222,2.336,2.336,0,0,1-.393,1.292,2.585,2.585,0,0,1-1.128.943,3.93,3.93,0,0,1-1.655.337,4.942,4.942,0,0,1-1.954-.34,2.737,2.737,0,0,1-1.236-1.022A2.9,2.9,0,0,1,146.932,355.571Z" transform="translate(-9.704 -6.944)"/><path class="cls-7" d="M160.1,357.317a3.6,3.6,0,0,1-1.137.87,3.08,3.08,0,0,1-1.33.29,2.629,2.629,0,0,1-2.092-.891,2.423,2.423,0,0,1-.627-1.623,2.246,2.246,0,0,1,.513-1.438,4.278,4.278,0,0,1,1.532-1.128,5.148,5.148,0,0,1-.773-1.084,1.9,1.9,0,0,1-.193-0.8,1.79,1.79,0,0,1,.606-1.345,2.138,2.138,0,0,1,1.526-.571,1.988,1.988,0,0,1,1.438.539,1.734,1.734,0,0,1,.56,1.295,2.486,2.486,0,0,1-1.623,2.092l1.541,1.963a4.876,4.876,0,0,0,.41-1.2l1.1,0.234a5.979,5.979,0,0,1-.762,1.852,6.123,6.123,0,0,0,1.342,1.318l-0.709.838A6.136,6.136,0,0,1,160.1,357.317Zm-0.662-.832-1.934-2.4a3.7,3.7,0,0,0-1.154.946,1.526,1.526,0,0,0-.3.864,1.839,1.839,0,0,0,.416,1.084,1.379,1.379,0,0,0,1.178.563,1.946,1.946,0,0,0,.981-0.3A2.383,2.383,0,0,0,159.436,356.485Zm-1.482-3.645a2.805,2.805,0,0,0,.888-0.709,1.193,1.193,0,0,0,.2-0.674,0.971,0.971,0,0,0-.278-0.718,0.942,0.942,0,0,0-.694-0.278,0.982,0.982,0,0,0-.712.275,0.9,0.9,0,0,0-.284.674,0.991,0.991,0,0,0,.1.419,2.192,2.192,0,0,0,.308.466Z" transform="translate(-9.704 -6.944)"/><path class="cls-7" d="M163.327,358.331v-8.59h3.24a7.823,7.823,0,0,1,1.307.082,2.588,2.588,0,0,1,1.061.4,2.106,2.106,0,0,1,.688.829,2.8,2.8,0,0,1-.437,3.026,3.345,3.345,0,0,1-2.52.759h-2.2v3.492h-1.137Zm1.137-4.506h2.221a2.355,2.355,0,0,0,1.564-.41,1.461,1.461,0,0,0,.463-1.154,1.553,1.553,0,0,0-.272-0.923,1.274,1.274,0,0,0-.718-0.507,4.857,4.857,0,0,0-1.061-.076h-2.2v3.07Z" transform="translate(-9.704 -6.944)"/><path class="cls-10" d="M214.891,357.833v-8.59h1.137v7.576h4.23v1.014h-5.367Z" transform="translate(-9.704 -6.944)"/><path class="cls-10" d="M221.565,357.833v-8.59h3.223a3.989,3.989,0,0,1,1.579.261,2.03,2.03,0,0,1,.932.8,2.116,2.116,0,0,1,.337,1.134,1.948,1.948,0,0,1-.3,1.037,2.134,2.134,0,0,1-.9.785,2.244,2.244,0,0,1,1.2.779,2.087,2.087,0,0,1,.419,1.3,2.509,2.509,0,0,1-.255,1.122,2.172,2.172,0,0,1-.63.8,2.629,2.629,0,0,1-.94.425,5.72,5.72,0,0,1-1.386.144h-3.275Zm1.137-4.98h1.857a4.145,4.145,0,0,0,1.084-.1,1.2,1.2,0,0,0,.653-0.428,1.232,1.232,0,0,0,.22-0.75,1.381,1.381,0,0,0-.205-0.753,1.038,1.038,0,0,0-.586-0.445,4.894,4.894,0,0,0-1.307-.12H222.7v2.6Zm0,3.967h2.139a4.923,4.923,0,0,0,.773-0.041,1.853,1.853,0,0,0,.656-0.234,1.244,1.244,0,0,0,.434-0.478,1.5,1.5,0,0,0,.17-0.724,1.427,1.427,0,0,0-.246-0.835,1.3,1.3,0,0,0-.683-0.5,4.232,4.232,0,0,0-1.257-.144H222.7v2.953Z" transform="translate(-9.704 -6.944)"/><path class="cls-10" d="M229.569,357.833v-8.59h1.137v7.576h4.23v1.014h-5.367Z" transform="translate(-9.704 -6.944)"/><path class="cls-10" d="M237.584,357.833v-7.576h-2.83v-1.014h6.809v1.014h-2.842v7.576h-1.137Z" transform="translate(-9.704 -6.944)"/><path class="cls-10" d="M249.866,354.464v-1.008l3.639-.006v3.188a6.425,6.425,0,0,1-1.729,1,5.127,5.127,0,0,1-1.828.337,4.878,4.878,0,0,1-2.3-.542,3.583,3.583,0,0,1-1.562-1.567,4.935,4.935,0,0,1-.527-2.291,5.316,5.316,0,0,1,.524-2.341,3.488,3.488,0,0,1,1.509-1.614,4.728,4.728,0,0,1,2.268-.527,4.493,4.493,0,0,1,1.685.3,2.793,2.793,0,0,1,1.181.841,3.73,3.73,0,0,1,.65,1.406l-1.025.281a3.174,3.174,0,0,0-.48-1.031,1.971,1.971,0,0,0-.82-0.6,3.008,3.008,0,0,0-1.184-.226,3.485,3.485,0,0,0-1.348.237,2.515,2.515,0,0,0-.917.624,2.976,2.976,0,0,0-.542.85,4.5,4.5,0,0,0-.328,1.729,4.194,4.194,0,0,0,.4,1.922,2.531,2.531,0,0,0,1.151,1.148,3.565,3.565,0,0,0,1.605.375,3.814,3.814,0,0,0,1.441-.284,3.72,3.72,0,0,0,1.066-.606v-1.6h-2.525Z" transform="translate(-9.704 -6.944)"/><path class="cls-10" d="M254.653,354.722a3.207,3.207,0,0,1,.961-2.561,2.9,2.9,0,0,1,1.957-.691,2.792,2.792,0,0,1,2.1.841,3.2,3.2,0,0,1,.814,2.323,4.117,4.117,0,0,1-.36,1.89,2.551,2.551,0,0,1-1.049,1.069,3.054,3.054,0,0,1-1.5.381,2.8,2.8,0,0,1-2.112-.838A3.347,3.347,0,0,1,254.653,354.722Zm1.084,0a2.65,2.65,0,0,0,.521,1.79,1.736,1.736,0,0,0,2.619,0,2.713,2.713,0,0,0,.521-1.822,2.571,2.571,0,0,0-.524-1.749,1.739,1.739,0,0,0-2.616,0A2.639,2.639,0,0,0,255.737,354.722Z" transform="translate(-9.704 -6.944)"/><path class="cls-10" d="M263.448,357.833l-2.367-6.223h1.113l1.336,3.727q0.217,0.6.4,1.254,0.141-.492.393-1.184l1.383-3.8h1.084l-2.355,6.223h-0.984Z" transform="translate(-9.704 -6.944)"/><path class="cls-9" d="M291.624,355.847l1.014-.094a1.761,1.761,0,0,0,.492,1.037,1.352,1.352,0,0,0,.932.322,1.608,1.608,0,0,0,.853-0.223,1.82,1.82,0,0,0,.6-0.595,3.5,3.5,0,0,0,.393-1,5.3,5.3,0,0,0,.158-1.289q0-.07-0.006-0.211a2.416,2.416,0,0,1-.864.817,2.349,2.349,0,0,1-1.187.313,2.4,2.4,0,0,1-1.8-.773,2.83,2.83,0,0,1-.738-2.039,2.9,2.9,0,0,1,.771-2.1,2.574,2.574,0,0,1,1.931-.8,2.754,2.754,0,0,1,1.532.451,2.819,2.819,0,0,1,1.055,1.286,6.334,6.334,0,0,1,.36,2.417,7.823,7.823,0,0,1-.357,2.622,3.071,3.071,0,0,1-1.063,1.485,2.753,2.753,0,0,1-1.655.51A2.269,2.269,0,0,1,291.624,355.847Zm4.318-3.791a2.065,2.065,0,0,0-.483-1.441,1.515,1.515,0,0,0-1.163-.533,1.606,1.606,0,0,0-1.225.574,2.128,2.128,0,0,0-.521,1.488,1.839,1.839,0,0,0,.5,1.333,1.631,1.631,0,0,0,1.222.513,1.564,1.564,0,0,0,1.2-.513A2.019,2.019,0,0,0,295.942,352.056Z" transform="translate(-9.704 -6.944)"/><path class="cls-9" d="M302.112,357.833h-1.055v-6.721a5.451,5.451,0,0,1-1,.727,7.082,7.082,0,0,1-1.11.545v-1.02a6.369,6.369,0,0,0,1.547-1.008,3.964,3.964,0,0,0,.938-1.148h0.68v8.625Z" transform="translate(-9.704 -6.944)"/><path class="cls-9" d="M304.7,355.255v-1.061h3.24v1.061H304.7Z" transform="translate(-9.704 -6.944)"/><path class="cls-9" d="M309.237,357.833v-8.59H312.2a7.177,7.177,0,0,1,1.529.123,2.909,2.909,0,0,1,1.26.615A3.5,3.5,0,0,1,316,351.449a5.762,5.762,0,0,1,.337,2.042,6,6,0,0,1-.229,1.734,4.208,4.208,0,0,1-.586,1.251,3.113,3.113,0,0,1-.782.779,3.188,3.188,0,0,1-1.025.431,5.852,5.852,0,0,1-1.38.146h-3.1Zm1.137-1.014h1.834a4.451,4.451,0,0,0,1.333-.158,1.907,1.907,0,0,0,.771-0.445,2.71,2.71,0,0,0,.63-1.087,5.314,5.314,0,0,0,.226-1.655,4,4,0,0,0-.442-2.071,2.226,2.226,0,0,0-1.075-.97,4.444,4.444,0,0,0-1.471-.176h-1.8v6.563Z" transform="translate(-9.704 -6.944)"/><path class="cls-9" d="M321.829,357.065a3.927,3.927,0,0,1-1.128.7,3.259,3.259,0,0,1-1.163.205,2.262,2.262,0,0,1-1.576-.5,1.654,1.654,0,0,1-.551-1.28,1.7,1.7,0,0,1,.208-0.835,1.722,1.722,0,0,1,.545-0.606,2.562,2.562,0,0,1,.759-0.346,7.536,7.536,0,0,1,.938-0.158,9.64,9.64,0,0,0,1.881-.363q0.006-.217.006-0.275a1.164,1.164,0,0,0-.3-0.908,1.765,1.765,0,0,0-1.2-.357,1.863,1.863,0,0,0-1.1.261,1.593,1.593,0,0,0-.524.923l-1.031-.141a2.555,2.555,0,0,1,.463-1.069,2.029,2.029,0,0,1,.932-0.627,4.155,4.155,0,0,1,1.412-.22,3.738,3.738,0,0,1,1.295.188,1.706,1.706,0,0,1,.732.472,1.659,1.659,0,0,1,.328.718,5.938,5.938,0,0,1,.053.973v1.406a14.926,14.926,0,0,0,.067,1.86,2.347,2.347,0,0,0,.267.747h-1.1A2.236,2.236,0,0,1,321.829,357.065Zm-0.088-2.355a7.738,7.738,0,0,1-1.723.4,3.985,3.985,0,0,0-.92.211,0.917,0.917,0,0,0-.416.343,0.932,0.932,0,0,0,.173,1.2,1.374,1.374,0,0,0,.935.281,2.175,2.175,0,0,0,1.084-.267,1.642,1.642,0,0,0,.7-0.729,2.548,2.548,0,0,0,.17-1.055V354.71Z" transform="translate(-9.704 -6.944)"/><path class="cls-9" d="M324.395,360.229l-0.117-.99a2.35,2.35,0,0,0,.6.094,1.158,1.158,0,0,0,.563-0.117,0.958,0.958,0,0,0,.346-0.328,5.174,5.174,0,0,0,.322-0.785q0.029-.088.094-0.258l-2.361-6.234h1.137l1.295,3.6q0.252,0.686.451,1.441a14.191,14.191,0,0,1,.434-1.418l1.33-3.627h1.055l-2.367,6.328a12.421,12.421,0,0,1-.592,1.412,2.083,2.083,0,0,1-.645.765,1.522,1.522,0,0,1-.867.243A2.112,2.112,0,0,1,324.395,360.229Z" transform="translate(-9.704 -6.944)"/><path class="cls-9" d="M335.879,357.833v-7.576h-2.83v-1.014h6.809v1.014h-2.842v7.576h-1.137Z" transform="translate(-9.704 -6.944)"/><path class="cls-9" d="M339.858,357.833v-1.2h1.2v1.2h-1.2Z" transform="translate(-9.704 -6.944)"/><path class="cls-9" d="M346.315,357.833v-8.59h3.223a3.989,3.989,0,0,1,1.579.261,2.03,2.03,0,0,1,.932.8,2.116,2.116,0,0,1,.337,1.134,1.948,1.948,0,0,1-.3,1.037,2.134,2.134,0,0,1-.9.785,2.244,2.244,0,0,1,1.2.779,2.087,2.087,0,0,1,.419,1.3,2.509,2.509,0,0,1-.255,1.122,2.172,2.172,0,0,1-.63.8,2.629,2.629,0,0,1-.94.425,5.72,5.72,0,0,1-1.386.144h-3.275Zm1.137-4.98h1.857a4.145,4.145,0,0,0,1.084-.1,1.2,1.2,0,0,0,.653-0.428,1.232,1.232,0,0,0,.22-0.75,1.381,1.381,0,0,0-.205-0.753,1.038,1.038,0,0,0-.586-0.445,4.894,4.894,0,0,0-1.307-.12h-1.717v2.6Zm0,3.967h2.139a4.923,4.923,0,0,0,.773-0.041,1.853,1.853,0,0,0,.656-0.234,1.244,1.244,0,0,0,.434-0.478,1.5,1.5,0,0,0,.17-0.724,1.427,1.427,0,0,0-.246-0.835,1.3,1.3,0,0,0-.683-0.5,4.232,4.232,0,0,0-1.257-.144h-1.986v2.953Z" transform="translate(-9.704 -6.944)"/><path class="cls-9" d="M354.237,350.456v-1.213h1.055v1.213h-1.055Zm0,7.377V351.61h1.055v6.223h-1.055Z" transform="translate(-9.704 -6.944)"/><path class="cls-9" d="M356.874,357.833v-8.59h1.055v8.59h-1.055Z" transform="translate(-9.704 -6.944)"/><path class="cls-9" d="M359.54,357.833v-8.59h1.055v8.59H359.54Z" transform="translate(-9.704 -6.944)"/><path class="cls-8" d="M401.921,354.821l1.137,0.287a3.826,3.826,0,0,1-1.286,2.136,3.544,3.544,0,0,1-2.271.735,4.08,4.08,0,0,1-2.259-.565,3.531,3.531,0,0,1-1.324-1.638,5.843,5.843,0,0,1-.454-2.3,5.062,5.062,0,0,1,.513-2.341,3.513,3.513,0,0,1,1.459-1.518,4.263,4.263,0,0,1,2.083-.519,3.521,3.521,0,0,1,2.168.656,3.408,3.408,0,0,1,1.225,1.846l-1.119.264a2.655,2.655,0,0,0-.867-1.365,2.311,2.311,0,0,0-1.43-.428,2.777,2.777,0,0,0-1.655.475,2.506,2.506,0,0,0-.935,1.274,5.131,5.131,0,0,0-.27,1.649,5.242,5.242,0,0,0,.319,1.913,2.379,2.379,0,0,0,.993,1.222,2.785,2.785,0,0,0,1.459.4,2.445,2.445,0,0,0,1.617-.551A2.819,2.819,0,0,0,401.921,354.821Z" transform="translate(-9.704 -6.944)"/><path class="cls-8" d="M404.458,357.833v-8.59h3.24a7.823,7.823,0,0,1,1.307.082,2.588,2.588,0,0,1,1.061.4,2.106,2.106,0,0,1,.688.829,2.8,2.8,0,0,1-.437,3.026,3.345,3.345,0,0,1-2.52.759h-2.2v3.492h-1.137Zm1.137-4.506h2.221a2.355,2.355,0,0,0,1.564-.41,1.461,1.461,0,0,0,.463-1.154,1.553,1.553,0,0,0-.272-0.923,1.274,1.274,0,0,0-.718-0.507,4.857,4.857,0,0,0-1.061-.076h-2.2v3.07Z" transform="translate(-9.704 -6.944)"/><path class="cls-8" d="M412.656,357.833v-8.59h1.137v8.59h-1.137Z" transform="translate(-9.704 -6.944)"/><path class="cls-6" d="M58.479,12.955V11.948l3.639-.006v3.188a6.425,6.425,0,0,1-1.729,1,5.127,5.127,0,0,1-1.828.337,4.878,4.878,0,0,1-2.3-.542A3.583,3.583,0,0,1,54.7,14.362a4.935,4.935,0,0,1-.527-2.291A5.316,5.316,0,0,1,54.7,9.73a3.488,3.488,0,0,1,1.509-1.614,4.728,4.728,0,0,1,2.268-.527,4.493,4.493,0,0,1,1.685.3,2.793,2.793,0,0,1,1.181.841,3.73,3.73,0,0,1,.65,1.406l-1.025.281a3.174,3.174,0,0,0-.48-1.031,1.971,1.971,0,0,0-.82-0.6,3.008,3.008,0,0,0-1.184-.226,3.485,3.485,0,0,0-1.348.237,2.515,2.515,0,0,0-.917.624,2.976,2.976,0,0,0-.542.85A4.5,4.5,0,0,0,55.345,12a4.194,4.194,0,0,0,.4,1.922,2.531,2.531,0,0,0,1.151,1.148,3.565,3.565,0,0,0,1.605.375,3.814,3.814,0,0,0,1.441-.284A3.72,3.72,0,0,0,61,14.555v-1.6H58.479Z" transform="translate(-9.704 -6.944)"/><path class="cls-6" d="M63.647,16.325V10.1H64.6v0.943a2.574,2.574,0,0,1,.671-0.873,1.171,1.171,0,0,1,.677-0.211,2.057,2.057,0,0,1,1.084.34l-0.363.979a1.509,1.509,0,0,0-.773-0.229,1,1,0,0,0-.621.208,1.127,1.127,0,0,0-.393.577,4.108,4.108,0,0,0-.176,1.23v3.258H63.647Z" transform="translate(-9.704 -6.944)"/><path class="cls-6" d="M67.263,13.213a3.207,3.207,0,0,1,.961-2.561,2.9,2.9,0,0,1,1.957-.691,2.792,2.792,0,0,1,2.1.841,3.2,3.2,0,0,1,.814,2.323,4.117,4.117,0,0,1-.36,1.89,2.551,2.551,0,0,1-1.049,1.069,3.054,3.054,0,0,1-1.5.381,2.8,2.8,0,0,1-2.112-.838A3.347,3.347,0,0,1,67.263,13.213Zm1.084,0A2.65,2.65,0,0,0,68.868,15a1.736,1.736,0,0,0,2.619,0,2.713,2.713,0,0,0,.521-1.822,2.571,2.571,0,0,0-.524-1.749,1.739,1.739,0,0,0-2.616,0A2.639,2.639,0,0,0,68.347,13.213Z" transform="translate(-9.704 -6.944)"/><path class="cls-6" d="M75.478,16.325l-1.9-6.223h1.09l0.99,3.592,0.369,1.336q0.023-.1.322-1.283l0.99-3.645h1.084l0.932,3.609L79.661,14.9l0.357-1.2,1.066-3.6H82.11l-1.945,6.223h-1.1L78.079,12.6l-0.24-1.061-1.26,4.787h-1.1Z" transform="translate(-9.704 -6.944)"/><path class="cls-6" d="M85.3,15.381l0.152,0.932a3.912,3.912,0,0,1-.8.094,1.8,1.8,0,0,1-.891-0.182,1.017,1.017,0,0,1-.445-0.478,3.776,3.776,0,0,1-.129-1.245v-3.58H82.415V10.1h0.773V8.561l1.049-.633V10.1H85.3v0.82H84.237v3.639a1.838,1.838,0,0,0,.056.58,0.439,0.439,0,0,0,.182.205,0.7,0.7,0,0,0,.36.076A3.431,3.431,0,0,0,85.3,15.381Z" transform="translate(-9.704 -6.944)"/><path class="cls-6" d="M86.329,16.325V7.735h1.055v3.082a2.356,2.356,0,0,1,1.863-.855,2.513,2.513,0,0,1,1.2.272,1.6,1.6,0,0,1,.729.753,3.471,3.471,0,0,1,.22,1.395v3.943H90.343V12.381A1.629,1.629,0,0,0,90,11.23a1.275,1.275,0,0,0-.97-0.36,1.71,1.71,0,0,0-.882.243,1.373,1.373,0,0,0-.589.659,3.028,3.028,0,0,0-.176,1.148v3.4H86.329Z" transform="translate(-9.704 -6.944)"/><path class="cls-6" d="M95.944,13.213a3.207,3.207,0,0,1,.961-2.561,2.9,2.9,0,0,1,1.957-.691,2.792,2.792,0,0,1,2.1.841,3.2,3.2,0,0,1,.814,2.323,4.117,4.117,0,0,1-.36,1.89,2.551,2.551,0,0,1-1.049,1.069,3.054,3.054,0,0,1-1.5.381,2.8,2.8,0,0,1-2.112-.838A3.347,3.347,0,0,1,95.944,13.213Zm1.084,0A2.65,2.65,0,0,0,97.55,15a1.736,1.736,0,0,0,2.619,0,2.713,2.713,0,0,0,.521-1.822,2.571,2.571,0,0,0-.524-1.749,1.739,1.739,0,0,0-2.616,0A2.639,2.639,0,0,0,97.028,13.213Z" transform="translate(-9.704 -6.944)"/><path class="cls-6" d="M103.263,16.325v-5.4h-0.932V10.1h0.932V9.44a2.9,2.9,0,0,1,.111-0.932,1.349,1.349,0,0,1,.536-0.665,1.932,1.932,0,0,1,1.075-.255,5.163,5.163,0,0,1,.984.105l-0.158.92a3.539,3.539,0,0,0-.621-0.059,0.924,0.924,0,0,0-.68.205,1.112,1.112,0,0,0-.2.768V10.1h1.213v0.82h-1.213v5.4h-1.049Z" transform="translate(-9.704 -6.944)"/><path class="cls-6" d="M111.876,17.561V16.506a3.894,3.894,0,0,1-1.286-.354,2.242,2.242,0,0,1-.855-0.823,2.946,2.946,0,0,1-.419-1.389l1.061-.2a2.675,2.675,0,0,0,.434,1.248,1.538,1.538,0,0,0,1.066.627V12.258a4.406,4.406,0,0,1-1.33-.5,1.948,1.948,0,0,1-.776-0.779,2.317,2.317,0,0,1-.272-1.131,2.306,2.306,0,0,1,.8-1.822,2.772,2.772,0,0,1,1.582-.574v-0.5H112.5v0.5a2.6,2.6,0,0,1,1.459.539,2.4,2.4,0,0,1,.832,1.576l-1.09.164a1.8,1.8,0,0,0-.39-0.952,1.437,1.437,0,0,0-.812-0.437v3.041a8.364,8.364,0,0,1,1.055.311,2.605,2.605,0,0,1,.8.527,2.121,2.121,0,0,1,.478.738,2.715,2.715,0,0,1-.53,2.754,2.558,2.558,0,0,1-1.8.785v1.066h-0.621Zm0-9.234a1.563,1.563,0,0,0-.97.492,1.464,1.464,0,0,0-.053,1.846,2.079,2.079,0,0,0,1.022.58V8.327Zm0.621,7.289a1.564,1.564,0,0,0,1.017-.533,1.652,1.652,0,0,0,.4-1.131,1.416,1.416,0,0,0-.284-0.923A2.453,2.453,0,0,0,112.5,12.4v3.211Z" transform="translate(-9.704 -6.944)"/><path class="cls-6" d="M120.032,16.325h-1.055V9.6a5.451,5.451,0,0,1-1,.727,7.082,7.082,0,0,1-1.11.545V9.856a6.369,6.369,0,0,0,1.547-1.008,3.964,3.964,0,0,0,.938-1.148h0.68v8.625Z" transform="translate(-9.704 -6.944)"/><path class="cls-6" d="M123.325,16.325v-1.2h1.2v1.2h-1.2Z" transform="translate(-9.704 -6.944)"/><path class="cls-6" d="M126.067,12.088a7.86,7.86,0,0,1,.313-2.452,3.05,3.05,0,0,1,.932-1.433,2.382,2.382,0,0,1,1.556-.5,2.538,2.538,0,0,1,1.213.278,2.319,2.319,0,0,1,.861.8,4.306,4.306,0,0,1,.533,1.277,8.487,8.487,0,0,1,.193,2.03,7.882,7.882,0,0,1-.311,2.44,3.051,3.051,0,0,1-.929,1.436,2.382,2.382,0,0,1-1.562.507,2.357,2.357,0,0,1-1.951-.891A5.661,5.661,0,0,1,126.067,12.088Zm1.084,0a5.386,5.386,0,0,0,.5,2.815,1.414,1.414,0,0,0,2.443,0,5.388,5.388,0,0,0,.5-2.812,5.384,5.384,0,0,0-.5-2.818,1.47,1.47,0,0,0-1.233-.7,1.351,1.351,0,0,0-1.16.615A5.448,5.448,0,0,0,127.151,12.088Z" transform="translate(-9.704 -6.944)"/><path class="cls-6" d="M132.741,12.088a7.86,7.86,0,0,1,.313-2.452,3.05,3.05,0,0,1,.932-1.433,2.382,2.382,0,0,1,1.556-.5,2.538,2.538,0,0,1,1.213.278,2.319,2.319,0,0,1,.861.8,4.306,4.306,0,0,1,.533,1.277,8.487,8.487,0,0,1,.193,2.03,7.882,7.882,0,0,1-.311,2.44,3.051,3.051,0,0,1-.929,1.436,2.382,2.382,0,0,1-1.562.507,2.357,2.357,0,0,1-1.951-.891A5.661,5.661,0,0,1,132.741,12.088Zm1.084,0a5.386,5.386,0,0,0,.5,2.815,1.414,1.414,0,0,0,2.443,0,5.388,5.388,0,0,0,.5-2.812,5.384,5.384,0,0,0-.5-2.818,1.47,1.47,0,0,0-1.233-.7,1.351,1.351,0,0,0-1.16.615A5.448,5.448,0,0,0,133.825,12.088Z" transform="translate(-9.704 -6.944)"/><path class="cls-6" d="M58,30.725H56.95V24a5.451,5.451,0,0,1-1,.727,7.082,7.082,0,0,1-1.11.545v-1.02a6.369,6.369,0,0,0,1.547-1.008,3.964,3.964,0,0,0,.938-1.148H58v8.625Z" transform="translate(-9.704 -6.944)"/><path class="cls-6" d="M60.864,28.738l1.014-.094a1.761,1.761,0,0,0,.492,1.037A1.352,1.352,0,0,0,63.3,30a1.608,1.608,0,0,0,.853-0.223,1.82,1.82,0,0,0,.6-0.595,3.5,3.5,0,0,0,.393-1,5.3,5.3,0,0,0,.158-1.289q0-.07-0.006-0.211a2.416,2.416,0,0,1-.864.817,2.349,2.349,0,0,1-1.187.313,2.4,2.4,0,0,1-1.8-.773A2.83,2.83,0,0,1,60.706,25a2.9,2.9,0,0,1,.771-2.1,2.574,2.574,0,0,1,1.931-.8,2.754,2.754,0,0,1,1.532.451,2.819,2.819,0,0,1,1.055,1.286,6.334,6.334,0,0,1,.36,2.417A7.823,7.823,0,0,1,66,28.876a3.071,3.071,0,0,1-1.063,1.485,2.753,2.753,0,0,1-1.655.51A2.269,2.269,0,0,1,60.864,28.738Zm4.318-3.791a2.065,2.065,0,0,0-.483-1.441,1.515,1.515,0,0,0-1.163-.533,1.606,1.606,0,0,0-1.225.574,2.128,2.128,0,0,0-.521,1.488,1.839,1.839,0,0,0,.5,1.333,1.631,1.631,0,0,0,1.222.513,1.564,1.564,0,0,0,1.2-.513A2.019,2.019,0,0,0,65.183,24.947Z" transform="translate(-9.704 -6.944)"/><path class="cls-6" d="M67.538,28.738l1.014-.094a1.761,1.761,0,0,0,.492,1.037,1.352,1.352,0,0,0,.932.322,1.608,1.608,0,0,0,.853-0.223,1.82,1.82,0,0,0,.6-0.595,3.5,3.5,0,0,0,.393-1,5.3,5.3,0,0,0,.158-1.289q0-.07-0.006-0.211a2.416,2.416,0,0,1-.864.817,2.349,2.349,0,0,1-1.187.313,2.4,2.4,0,0,1-1.8-.773A2.83,2.83,0,0,1,67.38,25a2.9,2.9,0,0,1,.771-2.1,2.574,2.574,0,0,1,1.931-.8,2.754,2.754,0,0,1,1.532.451,2.819,2.819,0,0,1,1.055,1.286,6.334,6.334,0,0,1,.36,2.417,7.823,7.823,0,0,1-.357,2.622,3.071,3.071,0,0,1-1.063,1.485,2.753,2.753,0,0,1-1.655.51A2.269,2.269,0,0,1,67.538,28.738Zm4.318-3.791a2.065,2.065,0,0,0-.483-1.441,1.515,1.515,0,0,0-1.163-.533,1.606,1.606,0,0,0-1.225.574,2.128,2.128,0,0,0-.521,1.488,1.839,1.839,0,0,0,.5,1.333,1.631,1.631,0,0,0,1.222.513,1.564,1.564,0,0,0,1.2-.513A2.019,2.019,0,0,0,71.856,24.947Z" transform="translate(-9.704 -6.944)"/><path class="cls-6" d="M78.026,30.725H76.972V24a5.451,5.451,0,0,1-1,.727,7.082,7.082,0,0,1-1.11.545v-1.02a6.369,6.369,0,0,0,1.547-1.008,3.964,3.964,0,0,0,.938-1.148h0.68v8.625Z" transform="translate(-9.704 -6.944)"/><path class="cls-6" d="M80.61,28.146V27.086h3.24v1.061H80.61Z" transform="translate(-9.704 -6.944)"/><path class="cls-6" d="M90.267,29.711v1.014H84.589a1.866,1.866,0,0,1,.123-0.732,3.875,3.875,0,0,1,.694-1.143,10.878,10.878,0,0,1,1.38-1.3,11.7,11.7,0,0,0,1.893-1.819,2.178,2.178,0,0,0,.492-1.269,1.409,1.409,0,0,0-.448-1.058,1.617,1.617,0,0,0-1.169-.431,1.647,1.647,0,0,0-1.219.457,1.729,1.729,0,0,0-.463,1.266l-1.084-.111a2.668,2.668,0,0,1,.838-1.849,2.858,2.858,0,0,1,1.951-.636,2.723,2.723,0,0,1,1.957.686,2.251,2.251,0,0,1,.721,1.7,2.577,2.577,0,0,1-.211,1.014,3.934,3.934,0,0,1-.7,1.049,17.058,17.058,0,0,1-1.626,1.512q-0.949.8-1.219,1.081a3.468,3.468,0,0,0-.445.571h4.213Z" transform="translate(-9.704 -6.944)"/><path class="cls-6" d="M91.4,26.488a7.86,7.86,0,0,1,.313-2.452,3.05,3.05,0,0,1,.932-1.433,2.382,2.382,0,0,1,1.556-.5,2.538,2.538,0,0,1,1.213.278,2.319,2.319,0,0,1,.861.8,4.306,4.306,0,0,1,.533,1.277A8.487,8.487,0,0,1,97,26.488a7.882,7.882,0,0,1-.311,2.44,3.051,3.051,0,0,1-.929,1.436,2.382,2.382,0,0,1-1.562.507,2.357,2.357,0,0,1-1.951-.891A5.661,5.661,0,0,1,91.4,26.488Zm1.084,0a5.386,5.386,0,0,0,.5,2.815,1.414,1.414,0,0,0,2.443,0,5.388,5.388,0,0,0,.5-2.812,5.384,5.384,0,0,0-.5-2.818,1.47,1.47,0,0,0-1.233-.7,1.351,1.351,0,0,0-1.16.615A5.448,5.448,0,0,0,92.481,26.488Z" transform="translate(-9.704 -6.944)"/><path class="cls-6" d="M102.044,30.725h-1.055V24a5.451,5.451,0,0,1-1,.727,7.082,7.082,0,0,1-1.11.545v-1.02a6.369,6.369,0,0,0,1.547-1.008,3.964,3.964,0,0,0,.938-1.148h0.68v8.625Z" transform="translate(-9.704 -6.944)"/><path class="cls-6" d="M104.745,28.475l1.107-.094a1.986,1.986,0,0,0,.571,1.216A1.551,1.551,0,0,0,107.5,30a1.684,1.684,0,0,0,1.289-.574,2.164,2.164,0,0,0,.527-1.523,1.956,1.956,0,0,0-.507-1.424,1.767,1.767,0,0,0-1.327-.521,1.839,1.839,0,0,0-.92.231,1.786,1.786,0,0,0-.645.6l-0.99-.129,0.832-4.412h4.271V23.26h-3.428l-0.463,2.309a2.8,2.8,0,0,1,1.623-.539,2.571,2.571,0,0,1,1.9.779,2.724,2.724,0,0,1,.773,2,3.128,3.128,0,0,1-.68,2.016,2.723,2.723,0,0,1-2.256,1.043,2.779,2.779,0,0,1-1.913-.656A2.561,2.561,0,0,1,104.745,28.475Z" transform="translate(-9.704 -6.944)"/></svg>