<svg id="Layer_1" data-name="Layer 1" xmlns="http://www.w3.org/2000/svg" viewBox="0 0 559.542 369.578"><defs><style>.cls-1{fill:#fff;stroke:#231f20;}.cls-1,.cls-2,.cls-3,.cls-4,.cls-5{stroke-miterlimit:10;}.cls-2,.cls-3,.cls-4,.cls-5{fill:none;}.cls-2{stroke:#3b53a4;}.cls-3{stroke:#40b449;}.cls-4{stroke:#ed1d24;}.cls-5{stroke:#863493;}.cls-6{fill:#231f20;}.cls-7{fill:#3b54a4;}.cls-8{fill:#ec2227;}.cls-9{fill:#863593;}.cls-10{fill:#40b449;}</style></defs><title>Expected_Return_Asset_Classes</title><rect class="cls-1" x="43.412" y="56.14" width="491.788" height="255.405"/><polyline class="cls-2" points="47.334 287.962 66.666 290.159 82.923 281.811 101.376 278.735 121.588 278.735 134.329 275.66 147.071 275.66 163.328 258.964 185.297 244.904 239.779 173.286 278.004 201.406 297.336 226.45 315.351 200.527 336.441 189.103 353.576 188.664 372.908 167.135 392.241 164.499 410.694 224.253 429.148 199.209 451.556 180.755 467.373 179.877 488.96 159.226 501.205 121.88 525.371 94.638"/><polyline class="cls-3" points="47.334 288.537 80.726 283.703 109.725 278.431 126.86 270.522 148.389 274.477 165.525 261.295 181.782 264.371 222.643 246.357 242.415 253.826 275.368 237.13 285.35 237.13 304.366 224.388 327.214 219.555 354.455 207.692 376.423 204.616 400.149 198.465 414.649 188.36 436.178 186.163 484.509 158.043 505.159 161.119 525.371 152.112"/><polyline class="cls-4" points="47.334 288.537 127.512 280.628 151.935 280.628 173.695 277.992 197.674 277.992 248.298 277.992 267.837 276.234 299.809 276.234 315.352 276.234 339.331 274.037 368.196 274.037 400.168 270.522 414.378 268.325 447.683 270.522 460.561 268.325 497.863 265.25 530.478 265.25"/><polyline class="cls-5" points="47.334 288.537 67.984 288.537 88.195 283.703 133.89 283.703 211.219 274.037 284.595 267.886 334.244 265.25 377.741 265.25 410.694 259.977 473.085 259.977 531.278 259.977"/><path class="cls-6" d="M57.094,332.957H56.027v-6.793a5.5,5.5,0,0,1-1.01.734,7.1,7.1,0,0,1-1.122.551v-1.03a6.448,6.448,0,0,0,1.563-1.019,4.024,4.024,0,0,0,.948-1.161h0.687v8.718Z" transform="translate(-7.262 -7.537)"/><path class="cls-6" d="M59.983,330.949l1.025-.095a1.777,1.777,0,0,0,.5,1.048,1.363,1.363,0,0,0,.941.326A1.631,1.631,0,0,0,63.309,332a1.842,1.842,0,0,0,.607-0.6,3.519,3.519,0,0,0,.4-1.016,5.359,5.359,0,0,0,.16-1.3q0-.072-0.006-0.214a2.434,2.434,0,0,1-.874.826,2.368,2.368,0,0,1-1.2.317,2.425,2.425,0,0,1-1.824-.782,2.859,2.859,0,0,1-.746-2.061,2.929,2.929,0,0,1,.779-2.126,2.6,2.6,0,0,1,1.952-.806,2.785,2.785,0,0,1,1.548.456,2.848,2.848,0,0,1,1.066,1.3,6.405,6.405,0,0,1,.364,2.443,7.915,7.915,0,0,1-.361,2.65,3.106,3.106,0,0,1-1.075,1.5,2.78,2.78,0,0,1-1.673.516A2.295,2.295,0,0,1,59.983,330.949Zm4.365-3.832a2.089,2.089,0,0,0-.489-1.457,1.532,1.532,0,0,0-1.176-.539,1.625,1.625,0,0,0-1.238.581,2.151,2.151,0,0,0-.527,1.5,1.858,1.858,0,0,0,.5,1.348,1.648,1.648,0,0,0,1.235.519,1.579,1.579,0,0,0,1.217-.519A2.042,2.042,0,0,0,64.349,327.117Z" transform="translate(-7.262 -7.537)"/><path class="cls-6" d="M66.729,330.949l1.025-.095a1.777,1.777,0,0,0,.5,1.048,1.363,1.363,0,0,0,.941.326A1.631,1.631,0,0,0,70.055,332a1.842,1.842,0,0,0,.607-0.6,3.519,3.519,0,0,0,.4-1.016,5.359,5.359,0,0,0,.16-1.3q0-.072-0.006-0.214a2.434,2.434,0,0,1-.874.826,2.368,2.368,0,0,1-1.2.317,2.425,2.425,0,0,1-1.824-.782,2.859,2.859,0,0,1-.746-2.061,2.929,2.929,0,0,1,.779-2.126,2.6,2.6,0,0,1,1.952-.806,2.785,2.785,0,0,1,1.548.456,2.848,2.848,0,0,1,1.066,1.3,6.405,6.405,0,0,1,.364,2.443,7.915,7.915,0,0,1-.361,2.65,3.106,3.106,0,0,1-1.075,1.5,2.78,2.78,0,0,1-1.673.516A2.295,2.295,0,0,1,66.729,330.949Zm4.365-3.832a2.089,2.089,0,0,0-.489-1.457,1.532,1.532,0,0,0-1.176-.539,1.625,1.625,0,0,0-1.238.581,2.151,2.151,0,0,0-.527,1.5,1.858,1.858,0,0,0,.5,1.348,1.648,1.648,0,0,0,1.235.519,1.579,1.579,0,0,0,1.217-.519A2.042,2.042,0,0,0,71.094,327.117Z" transform="translate(-7.262 -7.537)"/><path class="cls-6" d="M77.33,332.957H76.264v-6.793a5.5,5.5,0,0,1-1.01.734,7.1,7.1,0,0,1-1.122.551v-1.03A6.448,6.448,0,0,0,75.7,325.4a4.024,4.024,0,0,0,.948-1.161H77.33v8.718Z" transform="translate(-7.262 -7.537)"/><path class="cls-6" d="M519.311,331.932v1.024h-5.739a1.887,1.887,0,0,1,.124-0.74,3.919,3.919,0,0,1,.7-1.155,11.048,11.048,0,0,1,1.395-1.314,11.749,11.749,0,0,0,1.913-1.839,2.2,2.2,0,0,0,.5-1.282,1.426,1.426,0,0,0-.453-1.069,1.637,1.637,0,0,0-1.182-.436,1.665,1.665,0,0,0-1.232.463,1.748,1.748,0,0,0-.468,1.278l-1.1-.112a2.7,2.7,0,0,1,.847-1.868,2.89,2.89,0,0,1,1.973-.643,2.754,2.754,0,0,1,1.979.692,2.277,2.277,0,0,1,.729,1.718,2.594,2.594,0,0,1-.214,1.024,3.951,3.951,0,0,1-.708,1.061,17.168,17.168,0,0,1-1.643,1.528q-0.959.8-1.232,1.093a3.489,3.489,0,0,0-.45.577h4.259Z" transform="translate(-7.262 -7.537)"/><path class="cls-6" d="M520.454,328.674a7.953,7.953,0,0,1,.317-2.479,3.086,3.086,0,0,1,.941-1.448,2.411,2.411,0,0,1,1.572-.509,2.569,2.569,0,0,1,1.227.281,2.336,2.336,0,0,1,.87.812,4.325,4.325,0,0,1,.539,1.291,8.546,8.546,0,0,1,.2,2.052,7.979,7.979,0,0,1-.313,2.467,3.086,3.086,0,0,1-.938,1.451,2.409,2.409,0,0,1-1.579.513,2.383,2.383,0,0,1-1.972-.9A5.724,5.724,0,0,1,520.454,328.674Zm1.1,0a5.437,5.437,0,0,0,.5,2.846,1.429,1.429,0,0,0,2.47,0,8.348,8.348,0,0,0,0-5.691,1.486,1.486,0,0,0-1.247-.705,1.369,1.369,0,0,0-1.173.622A5.508,5.508,0,0,0,521.55,328.674Z" transform="translate(-7.262 -7.537)"/><path class="cls-6" d="M531.216,332.956H530.15v-6.793a5.535,5.535,0,0,1-1.01.734,7.108,7.108,0,0,1-1.123.551v-1.03a6.42,6.42,0,0,0,1.563-1.019,4.018,4.018,0,0,0,.948-1.161h0.687v8.718Z" transform="translate(-7.262 -7.537)"/><path class="cls-6" d="M533.946,330.682l1.12-.095a2.01,2.01,0,0,0,.577,1.229,1.567,1.567,0,0,0,1.093.411,1.7,1.7,0,0,0,1.3-.58,2.187,2.187,0,0,0,.533-1.54,1.977,1.977,0,0,0-.513-1.439,1.784,1.784,0,0,0-1.341-.527,1.855,1.855,0,0,0-.93.234,1.812,1.812,0,0,0-.652.607l-1-.131,0.841-4.459h4.317v1.019H535.83l-0.468,2.333A2.827,2.827,0,0,1,537,327.2a2.6,2.6,0,0,1,1.919.788,2.755,2.755,0,0,1,.781,2.025,3.161,3.161,0,0,1-.687,2.037,2.752,2.752,0,0,1-2.28,1.055,2.807,2.807,0,0,1-1.934-.664A2.586,2.586,0,0,1,533.946,330.682Z" transform="translate(-7.262 -7.537)"/><path class="cls-6" d="M16.76,319.5v-1.066a3.936,3.936,0,0,1-1.3-.358,2.264,2.264,0,0,1-.865-0.832,2.973,2.973,0,0,1-.424-1.4l1.072-.2a2.706,2.706,0,0,0,.438,1.262,1.555,1.555,0,0,0,1.078.634v-3.394a4.471,4.471,0,0,1-1.344-.509,1.967,1.967,0,0,1-.785-0.788,2.509,2.509,0,0,1,.53-2.985,2.806,2.806,0,0,1,1.6-.58v-0.51h0.628v0.51a2.638,2.638,0,0,1,1.475.545,2.421,2.421,0,0,1,.841,1.593l-1.1.166a1.822,1.822,0,0,0-.394-0.962,1.453,1.453,0,0,0-.82-0.441v3.073a8.506,8.506,0,0,1,1.066.314,2.616,2.616,0,0,1,.812.533,2.143,2.143,0,0,1,.482.746,2.542,2.542,0,0,1,.169.936,2.56,2.56,0,0,1-2.529,2.642V319.5H16.76Zm0-9.334a1.575,1.575,0,0,0-.98.5,1.481,1.481,0,0,0-.054,1.866,2.11,2.11,0,0,0,1.034.586v-2.949Zm0.628,7.367a1.575,1.575,0,0,0,1.027-.539,1.668,1.668,0,0,0,.406-1.143,1.43,1.43,0,0,0-.287-0.933,2.479,2.479,0,0,0-1.146-.631v3.245Z" transform="translate(-7.262 -7.537)"/><path class="cls-6" d="M20.988,313.966a7.94,7.94,0,0,1,.317-2.479,3.082,3.082,0,0,1,.941-1.448,2.412,2.412,0,0,1,1.573-.509,2.567,2.567,0,0,1,1.226.281,2.345,2.345,0,0,1,.871.812,4.363,4.363,0,0,1,.539,1.291,8.567,8.567,0,0,1,.2,2.052,7.977,7.977,0,0,1-.314,2.467,3.087,3.087,0,0,1-.939,1.451,2.641,2.641,0,0,1-3.55-.388A5.721,5.721,0,0,1,20.988,313.966Zm1.1,0a5.439,5.439,0,0,0,.5,2.846,1.429,1.429,0,0,0,2.47,0,8.34,8.34,0,0,0,0-5.691,1.487,1.487,0,0,0-1.247-.705,1.367,1.367,0,0,0-1.173.622A5.508,5.508,0,0,0,22.084,313.966Z" transform="translate(-7.262 -7.537)"/><path class="cls-6" d="M28.332,318.248v-1.214h1.214v1.214H28.332Z" transform="translate(-7.262 -7.537)"/><path class="cls-6" d="M31.1,313.966a7.94,7.94,0,0,1,.317-2.479,3.082,3.082,0,0,1,.941-1.448,2.412,2.412,0,0,1,1.573-.509,2.567,2.567,0,0,1,1.226.281,2.345,2.345,0,0,1,.871.812,4.363,4.363,0,0,1,.539,1.291,8.567,8.567,0,0,1,.2,2.052,7.977,7.977,0,0,1-.314,2.467,3.087,3.087,0,0,1-.939,1.451,2.641,2.641,0,0,1-3.55-.388A5.721,5.721,0,0,1,31.1,313.966Zm1.1,0a5.439,5.439,0,0,0,.5,2.846,1.429,1.429,0,0,0,2.47,0,8.34,8.34,0,0,0,0-5.691,1.487,1.487,0,0,0-1.247-.705,1.367,1.367,0,0,0-1.173.622A5.508,5.508,0,0,0,32.2,313.966Z" transform="translate(-7.262 -7.537)"/><path class="cls-6" d="M37.849,313.966a7.94,7.94,0,0,1,.317-2.479,3.082,3.082,0,0,1,.941-1.448,2.412,2.412,0,0,1,1.573-.509,2.567,2.567,0,0,1,1.226.281,2.345,2.345,0,0,1,.871.812,4.363,4.363,0,0,1,.539,1.291,8.567,8.567,0,0,1,.2,2.052,7.977,7.977,0,0,1-.314,2.467,3.087,3.087,0,0,1-.939,1.451,2.641,2.641,0,0,1-3.55-.388A5.721,5.721,0,0,1,37.849,313.966Zm1.1,0a5.439,5.439,0,0,0,.5,2.846,1.429,1.429,0,0,0,2.47,0,8.34,8.34,0,0,0,0-5.691,1.487,1.487,0,0,0-1.247-.705,1.367,1.367,0,0,0-1.173.622A5.508,5.508,0,0,0,38.945,313.966Z" transform="translate(-7.262 -7.537)"/><path class="cls-6" d="M16.76,272.254v-1.066a3.936,3.936,0,0,1-1.3-.358A2.264,2.264,0,0,1,14.6,270a2.973,2.973,0,0,1-.424-1.4l1.072-.2a2.706,2.706,0,0,0,.438,1.262,1.555,1.555,0,0,0,1.078.634v-3.394a4.471,4.471,0,0,1-1.344-.509,1.967,1.967,0,0,1-.785-0.788,2.509,2.509,0,0,1,.53-2.985,2.806,2.806,0,0,1,1.6-.58v-0.51h0.628v0.51a2.638,2.638,0,0,1,1.475.545,2.421,2.421,0,0,1,.841,1.593l-1.1.166a1.822,1.822,0,0,0-.394-0.962,1.453,1.453,0,0,0-.82-0.441V266a8.506,8.506,0,0,1,1.066.314,2.616,2.616,0,0,1,.812.533,2.143,2.143,0,0,1,.482.746,2.542,2.542,0,0,1,.169.936,2.56,2.56,0,0,1-2.529,2.642v1.078H16.76Zm0-9.334a1.575,1.575,0,0,0-.98.5,1.481,1.481,0,0,0-.054,1.866,2.11,2.11,0,0,0,1.034.586V262.92Zm0.628,7.367a1.575,1.575,0,0,0,1.027-.539,1.668,1.668,0,0,0,.406-1.143,1.43,1.43,0,0,0-.287-0.933,2.479,2.479,0,0,0-1.146-.631v3.245Z" transform="translate(-7.262 -7.537)"/><path class="cls-6" d="M26.591,269.979V271H20.852a1.888,1.888,0,0,1,.125-0.74,3.917,3.917,0,0,1,.7-1.155,10.956,10.956,0,0,1,1.4-1.314,11.8,11.8,0,0,0,1.913-1.839,2.2,2.2,0,0,0,.5-1.282,1.424,1.424,0,0,0-.453-1.069,1.635,1.635,0,0,0-1.182-.436,1.662,1.662,0,0,0-1.231.463,1.746,1.746,0,0,0-.468,1.278l-1.1-.112a2.7,2.7,0,0,1,.847-1.868,2.887,2.887,0,0,1,1.972-.643,2.751,2.751,0,0,1,1.978.692,2.275,2.275,0,0,1,.729,1.718,2.594,2.594,0,0,1-.213,1.024,3.972,3.972,0,0,1-.708,1.061,17.207,17.207,0,0,1-1.644,1.528q-0.959.8-1.232,1.093a3.515,3.515,0,0,0-.45.577h4.258Z" transform="translate(-7.262 -7.537)"/><path class="cls-6" d="M28.332,271V269.79h1.214V271H28.332Z" transform="translate(-7.262 -7.537)"/><path class="cls-6" d="M31.1,266.722a7.94,7.94,0,0,1,.317-2.479,3.082,3.082,0,0,1,.941-1.448,2.412,2.412,0,0,1,1.573-.509,2.567,2.567,0,0,1,1.226.281,2.345,2.345,0,0,1,.871.812,4.363,4.363,0,0,1,.539,1.291,8.567,8.567,0,0,1,.2,2.052,7.977,7.977,0,0,1-.314,2.467,3.087,3.087,0,0,1-.939,1.451,2.641,2.641,0,0,1-3.55-.388A5.721,5.721,0,0,1,31.1,266.722Zm1.1,0a5.439,5.439,0,0,0,.5,2.846,1.429,1.429,0,0,0,2.47,0,8.34,8.34,0,0,0,0-5.691,1.487,1.487,0,0,0-1.247-.705,1.367,1.367,0,0,0-1.173.622A5.508,5.508,0,0,0,32.2,266.722Z" transform="translate(-7.262 -7.537)"/><path class="cls-6" d="M37.849,266.722a7.94,7.94,0,0,1,.317-2.479,3.082,3.082,0,0,1,.941-1.448,2.412,2.412,0,0,1,1.573-.509,2.567,2.567,0,0,1,1.226.281,2.345,2.345,0,0,1,.871.812,4.363,4.363,0,0,1,.539,1.291,8.567,8.567,0,0,1,.2,2.052,7.977,7.977,0,0,1-.314,2.467,3.087,3.087,0,0,1-.939,1.451,2.641,2.641,0,0,1-3.55-.388A5.721,5.721,0,0,1,37.849,266.722Zm1.1,0a5.439,5.439,0,0,0,.5,2.846,1.429,1.429,0,0,0,2.47,0,8.34,8.34,0,0,0,0-5.691,1.487,1.487,0,0,0-1.247-.705,1.367,1.367,0,0,0-1.173.622A5.508,5.508,0,0,0,38.945,266.722Z" transform="translate(-7.262 -7.537)"/><path class="cls-6" d="M16.76,225.236V224.17a3.936,3.936,0,0,1-1.3-.358,2.264,2.264,0,0,1-.865-0.832,2.973,2.973,0,0,1-.424-1.4l1.072-.2a2.706,2.706,0,0,0,.438,1.262,1.555,1.555,0,0,0,1.078.634v-3.394a4.471,4.471,0,0,1-1.344-.509,1.967,1.967,0,0,1-.785-0.788,2.509,2.509,0,0,1,.53-2.985,2.806,2.806,0,0,1,1.6-.58V214.5h0.628v0.51a2.638,2.638,0,0,1,1.475.545,2.421,2.421,0,0,1,.841,1.593l-1.1.166a1.822,1.822,0,0,0-.394-0.962,1.453,1.453,0,0,0-.82-0.441v3.073a8.506,8.506,0,0,1,1.066.314,2.616,2.616,0,0,1,.812.533,2.143,2.143,0,0,1,.482.746,2.542,2.542,0,0,1,.169.936,2.56,2.56,0,0,1-2.529,2.642v1.078H16.76Zm0-9.334a1.575,1.575,0,0,0-.98.5,1.481,1.481,0,0,0-.054,1.866,2.11,2.11,0,0,0,1.034.586V215.9Zm0.628,7.367a1.575,1.575,0,0,0,1.027-.539,1.668,1.668,0,0,0,.406-1.143,1.43,1.43,0,0,0-.287-0.933,2.479,2.479,0,0,0-1.146-.631v3.245Z" transform="translate(-7.262 -7.537)"/><path class="cls-6" d="M24.406,223.986v-2.079H20.639v-0.977L24.6,215.3h0.871v5.627h1.172v0.977H25.472v2.079H24.406Zm0-3.056v-3.915l-2.719,3.915h2.719Z" transform="translate(-7.262 -7.537)"/><path class="cls-6" d="M28.332,223.986v-1.214h1.214v1.214H28.332Z" transform="translate(-7.262 -7.537)"/><path class="cls-6" d="M31.1,219.7a7.94,7.94,0,0,1,.317-2.479,3.082,3.082,0,0,1,.941-1.448,2.412,2.412,0,0,1,1.573-.509,2.567,2.567,0,0,1,1.226.281,2.345,2.345,0,0,1,.871.812,4.363,4.363,0,0,1,.539,1.291,8.567,8.567,0,0,1,.2,2.052,7.977,7.977,0,0,1-.314,2.467,3.087,3.087,0,0,1-.939,1.451,2.641,2.641,0,0,1-3.55-.388A5.721,5.721,0,0,1,31.1,219.7Zm1.1,0a5.439,5.439,0,0,0,.5,2.846,1.429,1.429,0,0,0,2.47,0,8.34,8.34,0,0,0,0-5.691,1.487,1.487,0,0,0-1.247-.705,1.367,1.367,0,0,0-1.173.622A5.508,5.508,0,0,0,32.2,219.7Z" transform="translate(-7.262 -7.537)"/><path class="cls-6" d="M37.849,219.7a7.94,7.94,0,0,1,.317-2.479,3.082,3.082,0,0,1,.941-1.448,2.412,2.412,0,0,1,1.573-.509,2.567,2.567,0,0,1,1.226.281,2.345,2.345,0,0,1,.871.812,4.363,4.363,0,0,1,.539,1.291,8.567,8.567,0,0,1,.2,2.052,7.977,7.977,0,0,1-.314,2.467,3.087,3.087,0,0,1-.939,1.451,2.641,2.641,0,0,1-3.55-.388A5.721,5.721,0,0,1,37.849,219.7Zm1.1,0a5.439,5.439,0,0,0,.5,2.846,1.429,1.429,0,0,0,2.47,0,8.34,8.34,0,0,0,0-5.691,1.487,1.487,0,0,0-1.247-.705,1.367,1.367,0,0,0-1.173.622A5.508,5.508,0,0,0,38.945,219.7Z" transform="translate(-7.262 -7.537)"/><path class="cls-6" d="M16.76,191.8v-1.066a3.936,3.936,0,0,1-1.3-.358,2.264,2.264,0,0,1-.865-0.832,2.973,2.973,0,0,1-.424-1.4l1.072-.2a2.706,2.706,0,0,0,.438,1.262,1.555,1.555,0,0,0,1.078.634v-3.394a4.471,4.471,0,0,1-1.344-.509,1.967,1.967,0,0,1-.785-0.788,2.509,2.509,0,0,1,.53-2.985,2.806,2.806,0,0,1,1.6-.58v-0.51h0.628v0.51a2.638,2.638,0,0,1,1.475.545,2.421,2.421,0,0,1,.841,1.593l-1.1.166a1.822,1.822,0,0,0-.394-0.962,1.453,1.453,0,0,0-.82-0.441v3.073a8.506,8.506,0,0,1,1.066.314,2.616,2.616,0,0,1,.812.533,2.143,2.143,0,0,1,.482.746,2.542,2.542,0,0,1,.169.936,2.56,2.56,0,0,1-2.529,2.642V191.8H16.76Zm0-9.334a1.575,1.575,0,0,0-.98.5,1.481,1.481,0,0,0-.054,1.866,2.11,2.11,0,0,0,1.034.586v-2.949Zm0.628,7.367a1.575,1.575,0,0,0,1.027-.539,1.668,1.668,0,0,0,.406-1.143,1.43,1.43,0,0,0-.287-0.933,2.479,2.479,0,0,0-1.146-.631v3.245Z" transform="translate(-7.262 -7.537)"/><path class="cls-6" d="M26.52,183.989l-1.06.083a2.009,2.009,0,0,0-.4-0.912,1.412,1.412,0,0,0-1.066-.456,1.46,1.46,0,0,0-.895.285,2.424,2.424,0,0,0-.793,1.071,5.593,5.593,0,0,0-.3,2.008,2.469,2.469,0,0,1,.942-0.87,2.532,2.532,0,0,1,1.167-.284,2.416,2.416,0,0,1,1.815.784,2.817,2.817,0,0,1,.749,2.028,3.34,3.34,0,0,1-.353,1.52,2.57,2.57,0,0,1-.968,1.075,2.65,2.65,0,0,1-1.4.373,2.732,2.732,0,0,1-2.174-.98,4.949,4.949,0,0,1-.841-3.23,5.791,5.791,0,0,1,.93-3.66,2.672,2.672,0,0,1,2.186-1A2.325,2.325,0,0,1,26.52,183.989Zm-4.353,3.743a2.472,2.472,0,0,0,.234,1.055,1.745,1.745,0,0,0,.654.767,1.636,1.636,0,0,0,.882.264,1.5,1.5,0,0,0,1.161-.545,2.144,2.144,0,0,0,.485-1.48,2.008,2.008,0,0,0-.479-1.419,1.579,1.579,0,0,0-1.208-.518,1.646,1.646,0,0,0-1.226.518A1.868,1.868,0,0,0,22.167,187.732Z" transform="translate(-7.262 -7.537)"/><path class="cls-6" d="M28.332,190.546v-1.214h1.214v1.214H28.332Z" transform="translate(-7.262 -7.537)"/><path class="cls-6" d="M31.1,186.264a7.94,7.94,0,0,1,.317-2.479,3.082,3.082,0,0,1,.941-1.448,2.412,2.412,0,0,1,1.573-.509,2.567,2.567,0,0,1,1.226.281,2.345,2.345,0,0,1,.871.812,4.363,4.363,0,0,1,.539,1.291,8.567,8.567,0,0,1,.2,2.052,7.977,7.977,0,0,1-.314,2.467,3.087,3.087,0,0,1-.939,1.451,2.641,2.641,0,0,1-3.55-.388A5.721,5.721,0,0,1,31.1,186.264Zm1.1,0a5.439,5.439,0,0,0,.5,2.846,1.429,1.429,0,0,0,2.47,0,8.34,8.34,0,0,0,0-5.691,1.487,1.487,0,0,0-1.247-.705,1.367,1.367,0,0,0-1.173.622A5.508,5.508,0,0,0,32.2,186.264Z" transform="translate(-7.262 -7.537)"/><path class="cls-6" d="M37.849,186.264a7.94,7.94,0,0,1,.317-2.479,3.082,3.082,0,0,1,.941-1.448,2.412,2.412,0,0,1,1.573-.509,2.567,2.567,0,0,1,1.226.281,2.345,2.345,0,0,1,.871.812,4.363,4.363,0,0,1,.539,1.291,8.567,8.567,0,0,1,.2,2.052,7.977,7.977,0,0,1-.314,2.467,3.087,3.087,0,0,1-.939,1.451,2.641,2.641,0,0,1-3.55-.388A5.721,5.721,0,0,1,37.849,186.264Zm1.1,0a5.439,5.439,0,0,0,.5,2.846,1.429,1.429,0,0,0,2.47,0,8.34,8.34,0,0,0,0-5.691,1.487,1.487,0,0,0-1.247-.705,1.367,1.367,0,0,0-1.173.622A5.508,5.508,0,0,0,38.945,186.264Z" transform="translate(-7.262 -7.537)"/><path class="cls-6" d="M16.76,160.065V159a3.936,3.936,0,0,1-1.3-.358,2.264,2.264,0,0,1-.865-0.832,2.973,2.973,0,0,1-.424-1.4l1.072-.2a2.706,2.706,0,0,0,.438,1.262,1.555,1.555,0,0,0,1.078.634v-3.394a4.471,4.471,0,0,1-1.344-.509,1.967,1.967,0,0,1-.785-0.788,2.509,2.509,0,0,1,.53-2.985,2.806,2.806,0,0,1,1.6-.58v-0.51h0.628v0.51a2.638,2.638,0,0,1,1.475.545,2.421,2.421,0,0,1,.841,1.593l-1.1.166a1.822,1.822,0,0,0-.394-0.962,1.453,1.453,0,0,0-.82-0.441v3.073a8.506,8.506,0,0,1,1.066.314,2.616,2.616,0,0,1,.812.533,2.143,2.143,0,0,1,.482.746,2.542,2.542,0,0,1,.169.936,2.56,2.56,0,0,1-2.529,2.642v1.078H16.76Zm0-9.334a1.575,1.575,0,0,0-.98.5,1.481,1.481,0,0,0-.054,1.866,2.11,2.11,0,0,0,1.034.586v-2.949Zm0.628,7.367a1.575,1.575,0,0,0,1.027-.539,1.668,1.668,0,0,0,.406-1.143,1.43,1.43,0,0,0-.287-0.933,2.479,2.479,0,0,0-1.146-.631V158.1Z" transform="translate(-7.262 -7.537)"/><path class="cls-6" d="M22.629,154.107a2.011,2.011,0,0,1-.983-0.693,1.814,1.814,0,0,1-.32-1.078,2.107,2.107,0,0,1,.681-1.593,2.525,2.525,0,0,1,1.813-.646,2.542,2.542,0,0,1,1.83.66,2.139,2.139,0,0,1,.693,1.608,1.772,1.772,0,0,1-.317,1.051,2,2,0,0,1-.962.69,2.337,2.337,0,0,1,1.217.841,2.309,2.309,0,0,1,.417,1.386,2.492,2.492,0,0,1-.788,1.871,2.861,2.861,0,0,1-2.073.759,2.855,2.855,0,0,1-2.073-.762,2.528,2.528,0,0,1-.788-1.9,2.3,2.3,0,0,1,.429-1.419A2.147,2.147,0,0,1,22.629,154.107Zm-0.557,2.2a1.927,1.927,0,0,0,.216.882,1.522,1.522,0,0,0,.643.66,1.877,1.877,0,0,0,.918.234,1.722,1.722,0,0,0,1.262-.491,1.684,1.684,0,0,0,.5-1.25,1.712,1.712,0,0,0-.512-1.273,1.758,1.758,0,0,0-1.282-.5A1.694,1.694,0,0,0,22.072,156.311Zm0.343-4.01a1.353,1.353,0,0,0,.4,1.007,1.4,1.4,0,0,0,1.03.391,1.377,1.377,0,0,0,1.01-.388,1.282,1.282,0,0,0,.394-0.95,1.329,1.329,0,0,0-.406-0.986,1.381,1.381,0,0,0-1.01-.4,1.4,1.4,0,0,0-1.013.392A1.258,1.258,0,0,0,22.415,152.3Z" transform="translate(-7.262 -7.537)"/><path class="cls-6" d="M28.332,158.815V157.6h1.214v1.214H28.332Z" transform="translate(-7.262 -7.537)"/><path class="cls-6" d="M31.1,154.533a7.94,7.94,0,0,1,.317-2.479,3.082,3.082,0,0,1,.941-1.448,2.412,2.412,0,0,1,1.573-.509,2.567,2.567,0,0,1,1.226.281,2.345,2.345,0,0,1,.871.812,4.363,4.363,0,0,1,.539,1.291,8.567,8.567,0,0,1,.2,2.052A7.977,7.977,0,0,1,36.452,157a3.087,3.087,0,0,1-.939,1.451,2.641,2.641,0,0,1-3.55-.388A5.721,5.721,0,0,1,31.1,154.533Zm1.1,0a5.439,5.439,0,0,0,.5,2.846,1.429,1.429,0,0,0,2.47,0,8.34,8.34,0,0,0,0-5.691,1.487,1.487,0,0,0-1.247-.705,1.367,1.367,0,0,0-1.173.622A5.508,5.508,0,0,0,32.2,154.533Z" transform="translate(-7.262 -7.537)"/><path class="cls-6" d="M37.849,154.533a7.94,7.94,0,0,1,.317-2.479,3.082,3.082,0,0,1,.941-1.448,2.412,2.412,0,0,1,1.573-.509,2.567,2.567,0,0,1,1.226.281,2.345,2.345,0,0,1,.871.812,4.363,4.363,0,0,1,.539,1.291,8.567,8.567,0,0,1,.2,2.052A7.977,7.977,0,0,1,43.2,157a3.087,3.087,0,0,1-.939,1.451,2.641,2.641,0,0,1-3.55-.388A5.721,5.721,0,0,1,37.849,154.533Zm1.1,0a5.439,5.439,0,0,0,.5,2.846,1.429,1.429,0,0,0,2.47,0,8.34,8.34,0,0,0,0-5.691,1.487,1.487,0,0,0-1.247-.705,1.367,1.367,0,0,0-1.173.622A5.508,5.508,0,0,0,38.945,154.533Z" transform="translate(-7.262 -7.537)"/><path class="cls-6" d="M9.85,73.611V72.545a3.936,3.936,0,0,1-1.3-.358,2.264,2.264,0,0,1-.865-0.832,2.973,2.973,0,0,1-.424-1.4l1.072-.2a2.709,2.709,0,0,0,.438,1.262,1.556,1.556,0,0,0,1.078.633V68.251a4.447,4.447,0,0,1-1.344-.509,1.969,1.969,0,0,1-.785-0.788,2.509,2.509,0,0,1,.53-2.985,2.8,2.8,0,0,1,1.6-.581V62.879h0.628v0.509a2.63,2.63,0,0,1,1.475.545,2.423,2.423,0,0,1,.841,1.593l-1.1.166A1.824,1.824,0,0,0,11.3,64.73a1.455,1.455,0,0,0-.82-0.441v3.074a8.446,8.446,0,0,1,1.066.314,2.641,2.641,0,0,1,.812.533,2.145,2.145,0,0,1,.482.747,2.544,2.544,0,0,1,.169.936,2.56,2.56,0,0,1-2.529,2.642v1.078H9.85Zm0-9.333a1.58,1.58,0,0,0-.98.5,1.481,1.481,0,0,0-.054,1.866,2.1,2.1,0,0,0,1.034.586V64.277Zm0.628,7.367a1.581,1.581,0,0,0,1.027-.539,1.67,1.67,0,0,0,.406-1.143,1.432,1.432,0,0,0-.287-0.933,2.487,2.487,0,0,0-1.146-.631v3.246Z" transform="translate(-7.262 -7.537)"/><path class="cls-6" d="M18.094,72.361H17.028V65.568a5.524,5.524,0,0,1-1.01.734,7.189,7.189,0,0,1-1.122.551V65.823A6.434,6.434,0,0,0,16.459,64.8a4.016,4.016,0,0,0,.948-1.161h0.687v8.718Z" transform="translate(-7.262 -7.537)"/><path class="cls-6" d="M20.824,68.08a7.942,7.942,0,0,1,.317-2.479,3.08,3.08,0,0,1,.941-1.448,2.406,2.406,0,0,1,1.573-.509,2.567,2.567,0,0,1,1.226.281,2.345,2.345,0,0,1,.871.812,4.363,4.363,0,0,1,.539,1.291,8.572,8.572,0,0,1,.2,2.052,7.972,7.972,0,0,1-.314,2.466A3.085,3.085,0,0,1,25.233,72a2.643,2.643,0,0,1-3.55-.388A5.721,5.721,0,0,1,20.824,68.08Zm1.1,0a5.441,5.441,0,0,0,.5,2.846,1.43,1.43,0,0,0,2.47,0,5.448,5.448,0,0,0,.5-2.843,5.445,5.445,0,0,0-.5-2.849,1.486,1.486,0,0,0-1.247-.7,1.365,1.365,0,0,0-1.173.622A5.506,5.506,0,0,0,21.92,68.08Z" transform="translate(-7.262 -7.537)"/><path class="cls-6" d="M28.168,72.361V71.147h1.214v1.214H28.168Z" transform="translate(-7.262 -7.537)"/><path class="cls-6" d="M30.94,68.08a7.942,7.942,0,0,1,.317-2.479,3.08,3.08,0,0,1,.941-1.448,2.406,2.406,0,0,1,1.573-.509A2.567,2.567,0,0,1,35,63.925a2.345,2.345,0,0,1,.871.812,4.363,4.363,0,0,1,.539,1.291,8.572,8.572,0,0,1,.2,2.052,7.972,7.972,0,0,1-.314,2.466A3.085,3.085,0,0,1,35.349,72a2.643,2.643,0,0,1-3.55-.388A5.721,5.721,0,0,1,30.94,68.08Zm1.1,0a5.441,5.441,0,0,0,.5,2.846,1.43,1.43,0,0,0,2.47,0,5.448,5.448,0,0,0,.5-2.843,5.445,5.445,0,0,0-.5-2.849,1.486,1.486,0,0,0-1.247-.7,1.365,1.365,0,0,0-1.173.622A5.506,5.506,0,0,0,32.036,68.08Z" transform="translate(-7.262 -7.537)"/><path class="cls-6" d="M37.685,68.08A7.942,7.942,0,0,1,38,65.6a3.08,3.08,0,0,1,.941-1.448,2.406,2.406,0,0,1,1.573-.509,2.567,2.567,0,0,1,1.226.281,2.345,2.345,0,0,1,.871.812,4.363,4.363,0,0,1,.539,1.291,8.572,8.572,0,0,1,.2,2.052,7.972,7.972,0,0,1-.314,2.466A3.085,3.085,0,0,1,42.095,72a2.643,2.643,0,0,1-3.55-.388A5.721,5.721,0,0,1,37.685,68.08Zm1.1,0a5.441,5.441,0,0,0,.5,2.846,1.43,1.43,0,0,0,2.47,0,5.448,5.448,0,0,0,.5-2.843,5.445,5.445,0,0,0-.5-2.849,1.486,1.486,0,0,0-1.247-.7,1.365,1.365,0,0,0-1.173.622A5.506,5.506,0,0,0,38.781,68.08Z" transform="translate(-7.262 -7.537)"/><path class="cls-6" d="M548.27,280.521H547.2v-6.793a5.535,5.535,0,0,1-1.01.734,7.108,7.108,0,0,1-1.123.551v-1.03a6.42,6.42,0,0,0,1.563-1.019,4.018,4.018,0,0,0,.948-1.161h0.687v8.718Z" transform="translate(-7.262 -7.537)"/><path class="cls-6" d="M551.6,280.521v-1.214h1.214v1.214H551.6Z" transform="translate(-7.262 -7.537)"/><path class="cls-6" d="M554.442,272.976V271.95h5.621v0.83a11.849,11.849,0,0,0-1.644,2.345,14.283,14.283,0,0,0-1.259,3.009,11.229,11.229,0,0,0-.409,2.387h-1.095a10.626,10.626,0,0,1,.4-2.476,13.019,13.019,0,0,1,1.1-2.8,11.976,11.976,0,0,1,1.531-2.271h-4.253Z" transform="translate(-7.262 -7.537)"/><path class="cls-6" d="M564.535,280.521v-2.079h-3.767v-0.977l3.962-5.627h0.87v5.627h1.173v0.977H565.6v2.079h-1.065Zm0-3.056V273.55l-2.719,3.915h2.719Z" transform="translate(-7.262 -7.537)"/><path class="cls-6" d="M548.27,265.67H547.2v-6.793a5.535,5.535,0,0,1-1.01.734,7.108,7.108,0,0,1-1.123.551v-1.03a6.42,6.42,0,0,0,1.563-1.019,4.018,4.018,0,0,0,.948-1.161h0.687v8.718Z" transform="translate(-7.262 -7.537)"/><path class="cls-6" d="M551.6,265.67v-1.214h1.214v1.214H551.6Z" transform="translate(-7.262 -7.537)"/><path class="cls-6" d="M554.531,263.662l1.024-.095a1.777,1.777,0,0,0,.5,1.048,1.362,1.362,0,0,0,.941.326,1.633,1.633,0,0,0,.862-0.225,1.849,1.849,0,0,0,.606-0.6,3.547,3.547,0,0,0,.4-1.016,5.358,5.358,0,0,0,.159-1.3q0-.072-0.006-0.214a2.433,2.433,0,0,1-.873.826,2.369,2.369,0,0,1-1.2.317,2.424,2.424,0,0,1-1.824-.782,2.857,2.857,0,0,1-.747-2.061,2.927,2.927,0,0,1,.779-2.126,2.6,2.6,0,0,1,1.951-.806,2.787,2.787,0,0,1,1.549.456,2.851,2.851,0,0,1,1.066,1.3,6.415,6.415,0,0,1,.364,2.443,7.927,7.927,0,0,1-.361,2.65,3.109,3.109,0,0,1-1.075,1.5,2.78,2.78,0,0,1-1.673.516A2.3,2.3,0,0,1,554.531,263.662Zm4.365-3.832a2.091,2.091,0,0,0-.488-1.457,1.533,1.533,0,0,0-1.176-.539,1.626,1.626,0,0,0-1.238.581,2.149,2.149,0,0,0-.527,1.5,1.858,1.858,0,0,0,.5,1.348,1.648,1.648,0,0,0,1.234.519,1.581,1.581,0,0,0,1.218-.519A2.044,2.044,0,0,0,558.9,259.83Z" transform="translate(-7.262 -7.537)"/><path class="cls-6" d="M566.649,259.113l-1.061.083a2.009,2.009,0,0,0-.4-0.912,1.412,1.412,0,0,0-1.066-.456,1.457,1.457,0,0,0-.894.285,2.421,2.421,0,0,0-.794,1.071,5.605,5.605,0,0,0-.3,2.008,2.465,2.465,0,0,1,.941-0.87,2.532,2.532,0,0,1,1.167-.284,2.414,2.414,0,0,1,1.814.784,2.815,2.815,0,0,1,.75,2.028,3.346,3.346,0,0,1-.353,1.52,2.571,2.571,0,0,1-.969,1.075,2.648,2.648,0,0,1-1.4.373,2.732,2.732,0,0,1-2.174-.98,4.949,4.949,0,0,1-.841-3.23,5.788,5.788,0,0,1,.93-3.66,2.672,2.672,0,0,1,2.186-1A2.326,2.326,0,0,1,566.649,259.113Zm-4.354,3.743a2.472,2.472,0,0,0,.234,1.055,1.748,1.748,0,0,0,.654.767,1.635,1.635,0,0,0,.883.264,1.5,1.5,0,0,0,1.16-.545,2.142,2.142,0,0,0,.486-1.48,2.006,2.006,0,0,0-.48-1.419,1.576,1.576,0,0,0-1.208-.518,1.645,1.645,0,0,0-1.226.518A1.868,1.868,0,0,0,562.3,262.856Z" transform="translate(-7.262 -7.537)"/><path class="cls-6" d="M515.16,152.525l1.12-.095a2.01,2.01,0,0,0,.577,1.229,1.567,1.567,0,0,0,1.093.411,1.7,1.7,0,0,0,1.3-.58,2.187,2.187,0,0,0,.533-1.54,1.977,1.977,0,0,0-.513-1.439,1.784,1.784,0,0,0-1.341-.527,1.855,1.855,0,0,0-.93.234,1.812,1.812,0,0,0-.652.607l-1-.131,0.841-4.459h4.317v1.019h-3.465l-0.468,2.333a2.827,2.827,0,0,1,1.641-.545,2.6,2.6,0,0,1,1.919.788,2.755,2.755,0,0,1,.781,2.025,3.161,3.161,0,0,1-.687,2.037,2.752,2.752,0,0,1-2.28,1.055,2.807,2.807,0,0,1-1.934-.664A2.586,2.586,0,0,1,515.16,152.525Z" transform="translate(-7.262 -7.537)"/><path class="cls-6" d="M522.5,154.8v-1.214h1.214V154.8H522.5Z" transform="translate(-7.262 -7.537)"/><path class="cls-6" d="M525.348,147.255v-1.025h5.621v0.83a11.849,11.849,0,0,0-1.644,2.345,14.283,14.283,0,0,0-1.259,3.009,11.229,11.229,0,0,0-.409,2.387h-1.095a10.626,10.626,0,0,1,.4-2.476,13.019,13.019,0,0,1,1.1-2.8,11.976,11.976,0,0,1,1.531-2.271h-4.253Z" transform="translate(-7.262 -7.537)"/><path class="cls-6" d="M532.182,152.792l1.024-.095a1.777,1.777,0,0,0,.5,1.048,1.362,1.362,0,0,0,.941.326,1.633,1.633,0,0,0,.862-0.225,1.849,1.849,0,0,0,.606-0.6,3.547,3.547,0,0,0,.4-1.016,5.358,5.358,0,0,0,.159-1.3q0-.072-0.006-0.214a2.433,2.433,0,0,1-.873.826,2.369,2.369,0,0,1-1.2.317,2.424,2.424,0,0,1-1.824-.782,2.857,2.857,0,0,1-.747-2.061,2.927,2.927,0,0,1,.779-2.126,2.6,2.6,0,0,1,1.951-.806,2.787,2.787,0,0,1,1.549.456,2.851,2.851,0,0,1,1.066,1.3,6.415,6.415,0,0,1,.364,2.443,7.927,7.927,0,0,1-.361,2.65,3.109,3.109,0,0,1-1.075,1.5,2.78,2.78,0,0,1-1.673.516A2.3,2.3,0,0,1,532.182,152.792Zm4.365-3.832a2.091,2.091,0,0,0-.488-1.457,1.533,1.533,0,0,0-1.176-.539,1.626,1.626,0,0,0-1.238.581,2.149,2.149,0,0,0-.527,1.5,1.858,1.858,0,0,0,.5,1.348,1.648,1.648,0,0,0,1.234.519,1.581,1.581,0,0,0,1.218-.519A2.044,2.044,0,0,0,536.548,148.96Z" transform="translate(-7.262 -7.537)"/><path class="cls-6" d="M516.666,92.753a2.01,2.01,0,0,1-.982-0.693,1.807,1.807,0,0,1-.32-1.078,2.108,2.108,0,0,1,.682-1.593,2.866,2.866,0,0,1,3.642.015,2.139,2.139,0,0,1,.693,1.608,1.766,1.766,0,0,1-.317,1.051,2,2,0,0,1-.962.69,2.334,2.334,0,0,1,1.217.841,2.309,2.309,0,0,1,.418,1.386,2.492,2.492,0,0,1-.788,1.871,3.206,3.206,0,0,1-4.146,0,2.529,2.529,0,0,1-.788-1.9,2.3,2.3,0,0,1,.43-1.419A2.149,2.149,0,0,1,516.666,92.753Zm-0.557,2.2a1.922,1.922,0,0,0,.217.882,1.519,1.519,0,0,0,.643.66,1.874,1.874,0,0,0,.918.234,1.72,1.72,0,0,0,1.261-.491,1.682,1.682,0,0,0,.5-1.25,1.711,1.711,0,0,0-.513-1.273,1.756,1.756,0,0,0-1.282-.5A1.7,1.7,0,0,0,516.109,94.956Zm0.344-4.01a1.352,1.352,0,0,0,.4,1.007,1.406,1.406,0,0,0,1.031.391,1.378,1.378,0,0,0,1.01-.388,1.282,1.282,0,0,0,.394-0.95,1.333,1.333,0,0,0-.405-0.986,1.382,1.382,0,0,0-1.01-.4,1.4,1.4,0,0,0-1.014.392A1.257,1.257,0,0,0,516.453,90.946Z" transform="translate(-7.262 -7.537)"/><path class="cls-6" d="M522.37,97.461V96.247h1.214v1.214H522.37Z" transform="translate(-7.262 -7.537)"/><path class="cls-6" d="M528.559,97.461V95.382h-3.767V94.405l3.962-5.627h0.87v5.627H530.8v0.977h-1.173v2.079h-1.065Zm0-3.056V90.49l-2.719,3.915h2.719Z" transform="translate(-7.262 -7.537)"/><path class="cls-6" d="M532.048,95.453l1.024-.095a1.777,1.777,0,0,0,.5,1.048,1.362,1.362,0,0,0,.941.326,1.633,1.633,0,0,0,.862-0.225,1.849,1.849,0,0,0,.606-0.6,3.547,3.547,0,0,0,.4-1.016,5.358,5.358,0,0,0,.159-1.3q0-.072-0.006-0.214a2.433,2.433,0,0,1-.873.826,2.369,2.369,0,0,1-1.2.317,2.424,2.424,0,0,1-1.824-.782,2.857,2.857,0,0,1-.747-2.061,2.927,2.927,0,0,1,.779-2.126,2.6,2.6,0,0,1,1.951-.806,2.787,2.787,0,0,1,1.549.456,2.851,2.851,0,0,1,1.066,1.3,6.415,6.415,0,0,1,.364,2.443,7.927,7.927,0,0,1-.361,2.65,3.109,3.109,0,0,1-1.075,1.5,2.78,2.78,0,0,1-1.673.516A2.3,2.3,0,0,1,532.048,95.453Zm4.365-3.832a2.091,2.091,0,0,0-.488-1.457,1.533,1.533,0,0,0-1.176-.539,1.626,1.626,0,0,0-1.238.581,2.149,2.149,0,0,0-.527,1.5,1.858,1.858,0,0,0,.5,1.348,1.648,1.648,0,0,0,1.234.519,1.581,1.581,0,0,0,1.218-.519A2.044,2.044,0,0,0,536.413,91.621Z" transform="translate(-7.262 -7.537)"/><rect class="cls-7" x="140.283" y="332.273" width="29.915" height="21.213"/><rect class="cls-8" x="384.464" y="331.77" width="29.915" height="21.213"/><rect class="cls-9" x="298.236" y="332.273" width="29.915" height="21.213"/><rect class="cls-10" x="218.295" y="331.77" width="29.915" height="21.213"/><path class="cls-7" d="M151.022,372.275l1.084-.095a2.393,2.393,0,0,0,.358,1.068,1.959,1.959,0,0,0,.874.676,3.325,3.325,0,0,0,1.333.257,3.181,3.181,0,0,0,1.161-.2,1.6,1.6,0,0,0,.749-0.536,1.241,1.241,0,0,0,.246-0.743,1.131,1.131,0,0,0-.237-0.714,1.75,1.75,0,0,0-.782-0.512,15.214,15.214,0,0,0-1.545-.424,7.881,7.881,0,0,1-1.676-.542,2.348,2.348,0,0,1-.927-0.808,1.982,1.982,0,0,1-.305-1.081,2.212,2.212,0,0,1,.373-1.229,2.312,2.312,0,0,1,1.09-.867,4.136,4.136,0,0,1,1.593-.3,4.357,4.357,0,0,1,1.7.311,2.457,2.457,0,0,1,1.134.915,2.627,2.627,0,0,1,.426,1.368l-1.1.083a1.779,1.779,0,0,0-.6-1.244,2.341,2.341,0,0,0-1.513-.42,2.427,2.427,0,0,0-1.519.382,1.146,1.146,0,0,0-.477.921,0.987,0.987,0,0,0,.338.77,4.567,4.567,0,0,0,1.732.619,11.392,11.392,0,0,1,1.921.554,2.636,2.636,0,0,1,1.12.886,2.157,2.157,0,0,1,.361,1.234,2.359,2.359,0,0,1-.4,1.306,2.614,2.614,0,0,1-1.14.954,3.979,3.979,0,0,1-1.673.341,5,5,0,0,1-1.975-.344,2.77,2.77,0,0,1-1.25-1.033A2.932,2.932,0,0,1,151.022,372.275Z" transform="translate(-7.262 -7.537)"/><path class="cls-7" d="M164.33,374.04a3.638,3.638,0,0,1-1.149.879,3.1,3.1,0,0,1-1.345.294,2.659,2.659,0,0,1-2.114-.9,2.45,2.45,0,0,1-.634-1.641,2.27,2.27,0,0,1,.519-1.454,4.312,4.312,0,0,1,1.549-1.14,5.207,5.207,0,0,1-.782-1.1,1.927,1.927,0,0,1-.2-0.812,1.809,1.809,0,0,1,.613-1.359,2.161,2.161,0,0,1,1.542-.577,2.009,2.009,0,0,1,1.454.545,1.752,1.752,0,0,1,.565,1.309,2.513,2.513,0,0,1-1.64,2.114l1.558,1.984a4.974,4.974,0,0,0,.415-1.209l1.107,0.237a6.039,6.039,0,0,1-.77,1.871,6.182,6.182,0,0,0,1.356,1.333l-0.717.847A6.189,6.189,0,0,1,164.33,374.04Zm-0.669-.841-1.954-2.423a3.733,3.733,0,0,0-1.167.957,1.542,1.542,0,0,0-.3.873,1.856,1.856,0,0,0,.421,1.1,1.393,1.393,0,0,0,1.19.568,1.966,1.966,0,0,0,.992-0.3A2.406,2.406,0,0,0,163.661,373.2Zm-1.5-3.685a2.835,2.835,0,0,0,.9-0.716,1.209,1.209,0,0,0,.2-0.682,0.983,0.983,0,0,0-.282-0.726,0.952,0.952,0,0,0-.7-0.281,0.993,0.993,0,0,0-.72.278,0.913,0.913,0,0,0-.287.682,1,1,0,0,0,.1.423,2.2,2.2,0,0,0,.311.471Z" transform="translate(-7.262 -7.537)"/><path class="cls-7" d="M167.594,375.064v-8.683h3.275a7.975,7.975,0,0,1,1.321.083,2.608,2.608,0,0,1,1.072.406,2.128,2.128,0,0,1,.7.838,2.825,2.825,0,0,1-.441,3.059,3.38,3.38,0,0,1-2.547.767h-2.227v3.53h-1.149Zm1.149-4.555h2.245a2.38,2.38,0,0,0,1.581-.414,1.477,1.477,0,0,0,.468-1.167,1.569,1.569,0,0,0-.275-0.933,1.287,1.287,0,0,0-.726-0.513,4.94,4.94,0,0,0-1.072-.077h-2.221v3.1Z" transform="translate(-7.262 -7.537)"/><path class="cls-10" d="M237.536,371.518l1.149,0.29a3.873,3.873,0,0,1-1.3,2.159,3.583,3.583,0,0,1-2.295.743,4.118,4.118,0,0,1-2.283-.572,3.57,3.57,0,0,1-1.338-1.655,5.9,5.9,0,0,1-.459-2.327,5.113,5.113,0,0,1,.519-2.366A3.552,3.552,0,0,1,233,366.255a4.315,4.315,0,0,1,2.105-.523,3.558,3.558,0,0,1,2.191.663,3.448,3.448,0,0,1,1.238,1.865l-1.131.267a2.685,2.685,0,0,0-.876-1.38,2.338,2.338,0,0,0-1.445-.433,2.8,2.8,0,0,0-1.673.48,2.531,2.531,0,0,0-.945,1.288,5.186,5.186,0,0,0-.272,1.667,5.3,5.3,0,0,0,.323,1.934,2.4,2.4,0,0,0,1,1.234,2.816,2.816,0,0,0,1.475.409,2.472,2.472,0,0,0,1.635-.557A2.85,2.85,0,0,0,237.536,371.518Z" transform="translate(-7.262 -7.537)"/><path class="cls-10" d="M240.1,374.562v-8.683h3.275a7.975,7.975,0,0,1,1.321.083,2.608,2.608,0,0,1,1.072.406,2.128,2.128,0,0,1,.7.838,2.825,2.825,0,0,1-.441,3.059,3.38,3.38,0,0,1-2.547.767h-2.227v3.53H240.1Zm1.149-4.555h2.245a2.38,2.38,0,0,0,1.581-.414,1.477,1.477,0,0,0,.468-1.167,1.569,1.569,0,0,0-.275-0.933,1.287,1.287,0,0,0-.726-0.513,4.94,4.94,0,0,0-1.072-.077h-2.221v3.1Z" transform="translate(-7.262 -7.537)"/><path class="cls-10" d="M248.386,374.562v-8.683h1.149v8.683h-1.149Z" transform="translate(-7.262 -7.537)"/><path class="cls-9" d="M294.6,374.562v-8.683h1.149v7.658h4.276v1.024H294.6Z" transform="translate(-7.262 -7.537)"/><path class="cls-9" d="M301.347,374.562v-8.683H304.6a4.027,4.027,0,0,1,1.6.264,2.053,2.053,0,0,1,.942.812,2.138,2.138,0,0,1,.34,1.146,1.971,1.971,0,0,1-.3,1.049,2.161,2.161,0,0,1-.912.794,2.263,2.263,0,0,1,1.211.787,2.111,2.111,0,0,1,.424,1.315,2.535,2.535,0,0,1-.258,1.134,2.2,2.2,0,0,1-.637.809,2.657,2.657,0,0,1-.951.429,5.731,5.731,0,0,1-1.4.146h-3.311Zm1.149-5.034h1.877a4.177,4.177,0,0,0,1.1-.1,1.219,1.219,0,0,0,.661-0.433,1.246,1.246,0,0,0,.222-0.758,1.4,1.4,0,0,0-.208-0.761,1.047,1.047,0,0,0-.592-0.45,4.935,4.935,0,0,0-1.321-.122H302.5v2.624Zm0,4.01h2.162a4.877,4.877,0,0,0,.782-0.042,1.869,1.869,0,0,0,.663-0.236,1.26,1.26,0,0,0,.438-0.482,1.516,1.516,0,0,0,.172-0.731,1.444,1.444,0,0,0-.249-0.845,1.316,1.316,0,0,0-.69-0.5,4.278,4.278,0,0,0-1.271-.146H302.5v2.985Z" transform="translate(-7.262 -7.537)"/><path class="cls-9" d="M309.437,374.562v-8.683h1.149v7.658h4.276v1.024h-5.425Z" transform="translate(-7.262 -7.537)"/><path class="cls-9" d="M317.539,374.562V366.9h-2.861v-1.024h6.882V366.9h-2.872v7.658h-1.149Z" transform="translate(-7.262 -7.537)"/><path class="cls-9" d="M329.954,371.156v-1.019l3.678-.006v3.222a6.526,6.526,0,0,1-1.747,1.016,5.2,5.2,0,0,1-1.849.341,4.931,4.931,0,0,1-2.324-.548,3.619,3.619,0,0,1-1.578-1.585,4.985,4.985,0,0,1-.533-2.315,5.373,5.373,0,0,1,.53-2.366,3.527,3.527,0,0,1,1.524-1.632,4.793,4.793,0,0,1,2.293-.532,4.544,4.544,0,0,1,1.7.3,2.817,2.817,0,0,1,1.193.85,3.761,3.761,0,0,1,.657,1.422l-1.036.284a3.206,3.206,0,0,0-.485-1.043,2.006,2.006,0,0,0-.829-0.606,3.038,3.038,0,0,0-1.2-.229,3.517,3.517,0,0,0-1.362.24,2.532,2.532,0,0,0-.927.631,3,3,0,0,0-.548.858,4.533,4.533,0,0,0-.332,1.747,4.234,4.234,0,0,0,.4,1.942,2.558,2.558,0,0,0,1.164,1.161,3.6,3.6,0,0,0,1.623.379,3.862,3.862,0,0,0,1.457-.287,3.731,3.731,0,0,0,1.077-.613v-1.616h-2.552Z" transform="translate(-7.262 -7.537)"/><path class="cls-9" d="M334.792,371.417a3.245,3.245,0,0,1,.972-2.589,2.927,2.927,0,0,1,1.979-.7,2.823,2.823,0,0,1,2.12.85,3.234,3.234,0,0,1,.823,2.349,4.169,4.169,0,0,1-.364,1.91,2.576,2.576,0,0,1-1.061,1.08,3.083,3.083,0,0,1-1.519.386,2.826,2.826,0,0,1-2.136-.848A3.382,3.382,0,0,1,334.792,371.417Zm1.1,0a2.677,2.677,0,0,0,.527,1.809,1.754,1.754,0,0,0,2.647,0,2.741,2.741,0,0,0,.527-1.842,2.6,2.6,0,0,0-.53-1.768,1.757,1.757,0,0,0-2.645,0A2.666,2.666,0,0,0,335.888,371.417Z" transform="translate(-7.262 -7.537)"/><path class="cls-9" d="M343.682,374.562l-2.393-6.29h1.125l1.351,3.767q0.218,0.611.4,1.268,0.142-.5.4-1.2l1.4-3.838h1.1l-2.381,6.29h-1Z" transform="translate(-7.262 -7.537)"/><path class="cls-8" d="M371.732,372.554l1.024-.095a1.777,1.777,0,0,0,.5,1.048,1.362,1.362,0,0,0,.941.326,1.633,1.633,0,0,0,.862-0.225,1.849,1.849,0,0,0,.606-0.6,3.547,3.547,0,0,0,.4-1.016,5.358,5.358,0,0,0,.159-1.3q0-.072-0.006-0.214a2.433,2.433,0,0,1-.873.826,2.369,2.369,0,0,1-1.2.317,2.424,2.424,0,0,1-1.824-.782,2.857,2.857,0,0,1-.747-2.061,2.927,2.927,0,0,1,.779-2.126,2.6,2.6,0,0,1,1.951-.806,2.787,2.787,0,0,1,1.549.456,2.851,2.851,0,0,1,1.066,1.3,6.415,6.415,0,0,1,.364,2.443,7.927,7.927,0,0,1-.361,2.65,3.109,3.109,0,0,1-1.075,1.5,2.78,2.78,0,0,1-1.673.516A2.3,2.3,0,0,1,371.732,372.554Zm4.365-3.832a2.091,2.091,0,0,0-.488-1.457,1.533,1.533,0,0,0-1.176-.539,1.626,1.626,0,0,0-1.238.581,2.149,2.149,0,0,0-.527,1.5,1.858,1.858,0,0,0,.5,1.348,1.648,1.648,0,0,0,1.234.519,1.581,1.581,0,0,0,1.218-.519A2.044,2.044,0,0,0,376.1,368.722Z" transform="translate(-7.262 -7.537)"/><path class="cls-8" d="M382.334,374.562h-1.065v-6.793a5.535,5.535,0,0,1-1.01.734,7.108,7.108,0,0,1-1.123.551v-1.03A6.42,6.42,0,0,0,380.7,367a4.018,4.018,0,0,0,.948-1.161h0.687v8.718Z" transform="translate(-7.262 -7.537)"/><path class="cls-8" d="M384.946,371.956v-1.072h3.275v1.072h-3.275Z" transform="translate(-7.262 -7.537)"/><path class="cls-8" d="M389.536,374.562v-8.683h2.991a7.245,7.245,0,0,1,1.546.125,2.944,2.944,0,0,1,1.273.621,3.541,3.541,0,0,1,1.027,1.484,5.831,5.831,0,0,1,.341,2.063,6.05,6.05,0,0,1-.231,1.753,4.276,4.276,0,0,1-.592,1.265,3.15,3.15,0,0,1-.791.788,3.223,3.223,0,0,1-1.036.435,5.927,5.927,0,0,1-1.4.148h-3.133Zm1.149-1.024h1.854a4.508,4.508,0,0,0,1.348-.16,1.928,1.928,0,0,0,.778-0.45,2.743,2.743,0,0,0,.637-1.1,5.359,5.359,0,0,0,.229-1.673,4.042,4.042,0,0,0-.447-2.094,2.256,2.256,0,0,0-1.087-.98,4.5,4.5,0,0,0-1.486-.178h-1.824v6.634Z" transform="translate(-7.262 -7.537)"/><path class="cls-8" d="M402.265,373.786a3.98,3.98,0,0,1-1.141.71,3.283,3.283,0,0,1-1.176.208,2.285,2.285,0,0,1-1.593-.507,1.671,1.671,0,0,1-.557-1.294,1.725,1.725,0,0,1,.21-0.844,1.751,1.751,0,0,1,.551-0.613,2.591,2.591,0,0,1,.767-0.35,7.833,7.833,0,0,1,.948-0.16,9.72,9.72,0,0,0,1.9-.367q0.006-.218.006-0.278a1.175,1.175,0,0,0-.3-0.918,1.786,1.786,0,0,0-1.214-.361,1.883,1.883,0,0,0-1.11.264,1.61,1.61,0,0,0-.53.933l-1.042-.142a2.575,2.575,0,0,1,.468-1.081,2.053,2.053,0,0,1,.941-0.634,4.22,4.22,0,0,1,1.428-.222,3.786,3.786,0,0,1,1.309.189,1.721,1.721,0,0,1,.74.477,1.678,1.678,0,0,1,.332.726,6.072,6.072,0,0,1,.053.983v1.421a15.178,15.178,0,0,0,.068,1.881,2.4,2.4,0,0,0,.27.755h-1.113A2.254,2.254,0,0,1,402.265,373.786Zm-0.089-2.381a7.871,7.871,0,0,1-1.741.4,4.047,4.047,0,0,0-.931.213,0.924,0.924,0,0,0-.42.347,0.941,0.941,0,0,0,.175,1.217,1.389,1.389,0,0,0,.944.284,2.188,2.188,0,0,0,1.1-.27,1.657,1.657,0,0,0,.705-0.737,2.574,2.574,0,0,0,.172-1.065v-0.391Z" transform="translate(-7.262 -7.537)"/><path class="cls-8" d="M404.858,376.983l-0.118-1a2.4,2.4,0,0,0,.61.095,1.17,1.17,0,0,0,.568-0.119,0.977,0.977,0,0,0,.35-0.331,5.4,5.4,0,0,0,.325-0.794c0.02-.06.052-0.146,0.095-0.261l-2.387-6.3h1.149l1.309,3.643q0.255,0.693.456,1.457a14.248,14.248,0,0,1,.438-1.434L409,368.271h1.066l-2.393,6.4a12.479,12.479,0,0,1-.6,1.428,2.1,2.1,0,0,1-.651.772,1.536,1.536,0,0,1-.876.246A2.136,2.136,0,0,1,404.858,376.983Z" transform="translate(-7.262 -7.537)"/><path class="cls-8" d="M416.467,374.562V366.9h-2.86v-1.024h6.882V366.9h-2.872v7.658h-1.149Z" transform="translate(-7.262 -7.537)"/><path class="cls-8" d="M420.488,374.562v-1.214H421.7v1.214h-1.214Z" transform="translate(-7.262 -7.537)"/><path class="cls-8" d="M427.015,374.562v-8.683h3.257a4.036,4.036,0,0,1,1.6.264,2.057,2.057,0,0,1,.941.812,2.143,2.143,0,0,1,.341,1.146,1.963,1.963,0,0,1-.3,1.049,2.155,2.155,0,0,1-.912.794,2.264,2.264,0,0,1,1.212.787,2.11,2.11,0,0,1,.423,1.315,2.535,2.535,0,0,1-.258,1.134,2.192,2.192,0,0,1-.636.809,2.663,2.663,0,0,1-.951.429,5.731,5.731,0,0,1-1.4.146h-3.311Zm1.148-5.034h1.878a4.185,4.185,0,0,0,1.1-.1,1.221,1.221,0,0,0,.66-0.433,1.242,1.242,0,0,0,.222-0.758,1.39,1.39,0,0,0-.207-0.761,1.05,1.05,0,0,0-.592-0.45,4.939,4.939,0,0,0-1.321-.122h-1.735v2.624Zm0,4.01h2.162a4.861,4.861,0,0,0,.781-0.042,1.871,1.871,0,0,0,.664-0.236,1.254,1.254,0,0,0,.438-0.482,1.5,1.5,0,0,0,.172-0.731,1.45,1.45,0,0,0-.248-0.845,1.317,1.317,0,0,0-.69-0.5,4.278,4.278,0,0,0-1.271-.146h-2.008v2.985Z" transform="translate(-7.262 -7.537)"/><path class="cls-8" d="M435.022,367.105v-1.227h1.065v1.227h-1.065Zm0,7.456v-6.29h1.065v6.29h-1.065Z" transform="translate(-7.262 -7.537)"/><path class="cls-8" d="M437.686,374.562v-8.683h1.066v8.683h-1.066Z" transform="translate(-7.262 -7.537)"/><path class="cls-8" d="M440.381,374.562v-8.683h1.066v8.683h-1.066Z" transform="translate(-7.262 -7.537)"/><path class="cls-6" d="M12.871,14.757V13.05H17.28v4.036a5.552,5.552,0,0,1-1.862,1.095,6.771,6.771,0,0,1-2.47.474,5.54,5.54,0,0,1-2.771-.667A4.236,4.236,0,0,1,8.4,16.081a6.16,6.16,0,0,1-.594-2.7A5.835,5.835,0,0,1,8.47,10.57a4.467,4.467,0,0,1,1.942-1.886,5.242,5.242,0,0,1,2.425-.5,4.839,4.839,0,0,1,2.947.791,3.575,3.575,0,0,1,1.365,2.187l-2.032.38a2.145,2.145,0,0,0-.8-1.178,2.433,2.433,0,0,0-1.475-.432,2.77,2.77,0,0,0-2.132.85A3.58,3.58,0,0,0,9.914,13.3a3.967,3.967,0,0,0,.8,2.705,2.677,2.677,0,0,0,2.1.9,3.514,3.514,0,0,0,1.289-.252,4.418,4.418,0,0,0,1.109-.611V14.757H12.871Z" transform="translate(-7.262 -7.537)"/><path class="cls-6" d="M21.011,18.481H19.069V11.144h1.8v1.043a3.134,3.134,0,0,1,.833-0.975,1.534,1.534,0,0,1,.839-0.235,2.465,2.465,0,0,1,1.278.366l-0.6,1.693a1.7,1.7,0,0,0-.912-0.318,1.079,1.079,0,0,0-.691.225,1.536,1.536,0,0,0-.446.812,11.564,11.564,0,0,0-.162,2.46v2.266Z" transform="translate(-7.262 -7.537)"/><path class="cls-6" d="M24.21,14.709a3.97,3.97,0,0,1,.477-1.873,3.273,3.273,0,0,1,1.351-1.382,4.01,4.01,0,0,1,1.952-.477,3.662,3.662,0,0,1,2.729,1.082,3.735,3.735,0,0,1,1.064,2.732,3.781,3.781,0,0,1-1.075,2.761A3.632,3.632,0,0,1,28,18.647a4.266,4.266,0,0,1-1.924-.456,3.129,3.129,0,0,1-1.392-1.337A4.452,4.452,0,0,1,24.21,14.709Zm1.99,0.1a2.431,2.431,0,0,0,.518,1.672,1.694,1.694,0,0,0,2.553,0,2.463,2.463,0,0,0,.515-1.686,2.42,2.42,0,0,0-.515-1.659,1.695,1.695,0,0,0-2.553,0A2.433,2.433,0,0,0,26.2,14.813Z" transform="translate(-7.262 -7.537)"/><path class="cls-6" d="M34.671,18.481l-2.322-7.338h1.887l1.375,4.809,1.264-4.809h1.873l1.223,4.809,1.4-4.809h1.914l-2.356,7.338H39.065L37.8,13.762l-1.244,4.719H34.671Z" transform="translate(-7.262 -7.537)"/><path class="cls-6" d="M47.675,11.144v1.548H46.348v2.957a7.339,7.339,0,0,0,.038,1.047,0.423,0.423,0,0,0,.172.245,0.545,0.545,0,0,0,.328.1,2.507,2.507,0,0,0,.781-0.187l0.166,1.506a3.854,3.854,0,0,1-1.534.291,2.438,2.438,0,0,1-.947-0.176,1.383,1.383,0,0,1-.619-0.456,1.808,1.808,0,0,1-.273-0.757A9.485,9.485,0,0,1,44.4,15.89v-3.2H43.508V11.144H44.4V9.686l1.949-1.133v2.591h1.327Z" transform="translate(-7.262 -7.537)"/><path class="cls-6" d="M50.956,8.352v3.724a2.909,2.909,0,0,1,3.455-.85,1.975,1.975,0,0,1,.812.635,2.316,2.316,0,0,1,.373.857,7.7,7.7,0,0,1,.1,1.458v4.3H53.755V14.6a5.736,5.736,0,0,0-.111-1.465,0.961,0.961,0,0,0-.39-0.494,1.256,1.256,0,0,0-.7-0.183,1.609,1.609,0,0,0-.864.235,1.356,1.356,0,0,0-.556.708,4.238,4.238,0,0,0-.176,1.4v3.676H49.015V8.352h1.941Z" transform="translate(-7.262 -7.537)"/><path class="cls-6" d="M61.148,14.709a3.97,3.97,0,0,1,.477-1.873,3.273,3.273,0,0,1,1.351-1.382,4.01,4.01,0,0,1,1.952-.477,3.662,3.662,0,0,1,2.729,1.082,3.735,3.735,0,0,1,1.064,2.732,3.781,3.781,0,0,1-1.075,2.761,3.632,3.632,0,0,1-2.705,1.1,4.266,4.266,0,0,1-1.924-.456,3.129,3.129,0,0,1-1.392-1.337A4.452,4.452,0,0,1,61.148,14.709Zm1.99,0.1a2.431,2.431,0,0,0,.518,1.672,1.694,1.694,0,0,0,2.553,0,2.463,2.463,0,0,0,.515-1.686,2.42,2.42,0,0,0-.515-1.659,1.695,1.695,0,0,0-2.553,0A2.433,2.433,0,0,0,63.139,14.813Z" transform="translate(-7.262 -7.537)"/><path class="cls-6" d="M69.392,11.144H70.47V10.591a3.68,3.68,0,0,1,.2-1.382,1.559,1.559,0,0,1,.726-0.743,2.787,2.787,0,0,1,1.337-.287,5.4,5.4,0,0,1,1.624.249L74.09,9.782a3.831,3.831,0,0,0-.891-0.11,0.793,0.793,0,0,0-.6.2,1.137,1.137,0,0,0-.183.756v0.519h1.451V12.67H72.411v5.811H70.47V12.67H69.392V11.144Z" transform="translate(-7.262 -7.537)"/><path class="cls-6" d="M81.248,16.982v-2.9a3.811,3.811,0,0,1-1.987-1.171,2.936,2.936,0,0,1-.632-1.9,2.694,2.694,0,0,1,.715-1.9,2.885,2.885,0,0,1,1.9-.888V7.537h1V8.221A2.965,2.965,0,0,1,84,8.97a2.9,2.9,0,0,1,.829,1.655l-1.748.228a1.408,1.408,0,0,0-.829-1.105v2.7a4.462,4.462,0,0,1,2.259,1.165,2.752,2.752,0,0,1,.6,1.834,3.07,3.07,0,0,1-.756,2.107,3.325,3.325,0,0,1-2.1,1.05V19.9h-1V18.64a3.2,3.2,0,0,1-1.942-.891,3.67,3.67,0,0,1-.953-2.107l1.8-.193a2.3,2.3,0,0,0,.415.954A1.886,1.886,0,0,0,81.248,16.982Zm0-7.255a1.3,1.3,0,0,0-.649.47,1.213,1.213,0,0,0-.242.732,1.159,1.159,0,0,0,.221.681,1.533,1.533,0,0,0,.67.508V9.727Zm1,7.352a1.408,1.408,0,0,0,.843-0.48,1.353,1.353,0,0,0,.325-0.9,1.222,1.222,0,0,0-.273-0.8,1.742,1.742,0,0,0-.895-0.515v2.694Z" transform="translate(-7.262 -7.537)"/><path class="cls-6" d="M91.309,18.481H89.367V11.164a6.69,6.69,0,0,1-2.508,1.472V10.874a5.614,5.614,0,0,0,1.651-.943,3.584,3.584,0,0,0,1.223-1.62h1.576V18.481Z" transform="translate(-7.262 -7.537)"/><path class="cls-6" d="M94.625,18.481V16.54h1.942v1.941H94.625Z" transform="translate(-7.262 -7.537)"/><path class="cls-6" d="M101.425,8.311a2.768,2.768,0,0,1,2.3,1.05,6.705,6.705,0,0,1,.988,4.125,6.721,6.721,0,0,1-1,4.132,2.764,2.764,0,0,1-2.294,1.037,2.9,2.9,0,0,1-2.384-1.137q-0.905-1.137-.905-4.053a6.69,6.69,0,0,1,1-4.118A2.761,2.761,0,0,1,101.425,8.311Zm0,1.61a0.972,0.972,0,0,0-.629.225,1.507,1.507,0,0,0-.428.805,11.084,11.084,0,0,0-.2,2.536,11.025,11.025,0,0,0,.18,2.449,1.72,1.72,0,0,0,.453.888,0.994,0.994,0,0,0,1.254,0,1.511,1.511,0,0,0,.428-0.805,11.023,11.023,0,0,0,.2-2.529,11,11,0,0,0-.18-2.45,1.745,1.745,0,0,0-.453-0.891A0.957,0.957,0,0,0,101.425,9.92Z" transform="translate(-7.262 -7.537)"/><path class="cls-6" d="M109.294,8.311a2.768,2.768,0,0,1,2.3,1.05,6.705,6.705,0,0,1,.988,4.125,6.721,6.721,0,0,1-1,4.132,2.764,2.764,0,0,1-2.294,1.037,2.9,2.9,0,0,1-2.384-1.137q-0.905-1.137-.905-4.053a6.69,6.69,0,0,1,1-4.118A2.761,2.761,0,0,1,109.294,8.311Zm0,1.61a0.972,0.972,0,0,0-.629.225,1.507,1.507,0,0,0-.428.805,11.084,11.084,0,0,0-.2,2.536,11.025,11.025,0,0,0,.18,2.449,1.72,1.72,0,0,0,.453.888,0.994,0.994,0,0,0,1.254,0,1.511,1.511,0,0,0,.428-0.805,11.023,11.023,0,0,0,.2-2.529,11,11,0,0,0-.18-2.45,1.745,1.745,0,0,0-.453-0.891A0.957,0.957,0,0,0,109.294,9.92Z" transform="translate(-7.262 -7.537)"/><path class="cls-6" d="M12.7,35.462H10.757V28.145a6.69,6.69,0,0,1-2.508,1.472V27.855A5.614,5.614,0,0,0,9.9,26.912a3.584,3.584,0,0,0,1.223-1.62H12.7V35.462Z" transform="translate(-7.262 -7.537)"/><path class="cls-6" d="M15.642,33.12l1.879-.208a1.36,1.36,0,0,0,.359.85,1.067,1.067,0,0,0,.767.276,1.251,1.251,0,0,0,1.022-.553,4.715,4.715,0,0,0,.539-2.294,2.318,2.318,0,0,1-1.831.85,2.735,2.735,0,0,1-2.062-.922,3.362,3.362,0,0,1-.867-2.4,3.414,3.414,0,0,1,.916-2.484,3.314,3.314,0,0,1,4.861.249,6.158,6.158,0,0,1,.988,3.921,6.232,6.232,0,0,1-1.029,4.007,3.331,3.331,0,0,1-2.681,1.23,2.835,2.835,0,0,1-1.92-.632A3.049,3.049,0,0,1,15.642,33.12Zm4.395-4.243a2.217,2.217,0,0,0-.432-1.458,1.276,1.276,0,0,0-1-.518,1.119,1.119,0,0,0-.9.425,2.169,2.169,0,0,0-.356,1.393,2.209,2.209,0,0,0,.387,1.44,1.238,1.238,0,0,0,1.911.018A1.933,1.933,0,0,0,20.036,28.877Z" transform="translate(-7.262 -7.537)"/><path class="cls-6" d="M23.512,33.12l1.879-.208a1.36,1.36,0,0,0,.359.85,1.067,1.067,0,0,0,.767.276,1.251,1.251,0,0,0,1.022-.553,4.715,4.715,0,0,0,.539-2.294,2.318,2.318,0,0,1-1.831.85,2.735,2.735,0,0,1-2.062-.922,3.362,3.362,0,0,1-.867-2.4,3.414,3.414,0,0,1,.916-2.484,3.314,3.314,0,0,1,4.861.249,6.158,6.158,0,0,1,.988,3.921,6.232,6.232,0,0,1-1.029,4.007,3.331,3.331,0,0,1-2.681,1.23,2.835,2.835,0,0,1-1.92-.632A3.049,3.049,0,0,1,23.512,33.12Zm4.395-4.243a2.217,2.217,0,0,0-.432-1.458,1.276,1.276,0,0,0-1-.518,1.119,1.119,0,0,0-.9.425,2.169,2.169,0,0,0-.356,1.393,2.209,2.209,0,0,0,.387,1.44,1.238,1.238,0,0,0,1.911.018A1.933,1.933,0,0,0,27.907,28.877Z" transform="translate(-7.262 -7.537)"/><path class="cls-6" d="M36.308,35.462H34.367V28.145a6.69,6.69,0,0,1-2.508,1.472V27.855a5.614,5.614,0,0,0,1.651-.943,3.584,3.584,0,0,0,1.223-1.62h1.576V35.462Z" transform="translate(-7.262 -7.537)"/><path class="cls-6" d="M43.335,32.761V30.819H47.15v1.941H43.335Z" transform="translate(-7.262 -7.537)"/><path class="cls-6" d="M58.343,33.659v1.8H51.537a4.678,4.678,0,0,1,.663-1.938A12.894,12.894,0,0,1,54.384,31.1a13.737,13.737,0,0,0,1.61-1.659,2.136,2.136,0,0,0,.4-1.188,1.352,1.352,0,0,0-.349-1,1.482,1.482,0,0,0-1.931.017,1.878,1.878,0,0,0-.415,1.216l-1.935-.194a3.171,3.171,0,0,1,1.084-2.3,3.643,3.643,0,0,1,2.28-.7,3.3,3.3,0,0,1,2.356.809,2.652,2.652,0,0,1,.856,2.01,3.5,3.5,0,0,1-.245,1.3,5.3,5.3,0,0,1-.777,1.3A12.339,12.339,0,0,1,56.049,32q-0.919.844-1.164,1.12a3.346,3.346,0,0,0-.4.539h3.855Z" transform="translate(-7.262 -7.537)"/><path class="cls-6" d="M62.938,25.292a2.768,2.768,0,0,1,2.3,1.05,6.705,6.705,0,0,1,.988,4.125,6.721,6.721,0,0,1-1,4.132,2.764,2.764,0,0,1-2.294,1.037A2.9,2.9,0,0,1,60.555,34.5q-0.905-1.137-.905-4.053a6.69,6.69,0,0,1,1-4.118A2.761,2.761,0,0,1,62.938,25.292Zm0,1.61a0.972,0.972,0,0,0-.629.225,1.507,1.507,0,0,0-.428.805,11.084,11.084,0,0,0-.2,2.536,11.025,11.025,0,0,0,.18,2.449,1.72,1.72,0,0,0,.453.888,0.994,0.994,0,0,0,1.254,0A1.511,1.511,0,0,0,64,33a11.023,11.023,0,0,0,.2-2.529,11,11,0,0,0-.18-2.45,1.745,1.745,0,0,0-.453-0.891A0.957,0.957,0,0,0,62.938,26.9Z" transform="translate(-7.262 -7.537)"/><path class="cls-6" d="M72.494,35.462H70.552V28.145a6.69,6.69,0,0,1-2.508,1.472V27.855a5.614,5.614,0,0,0,1.651-.943,3.584,3.584,0,0,0,1.223-1.62h1.576V35.462Z" transform="translate(-7.262 -7.537)"/><path class="cls-6" d="M81.974,27.813l-1.879.208a1.371,1.371,0,0,0-.359-0.857,1.048,1.048,0,0,0-.753-0.276,1.271,1.271,0,0,0-1.04.553,4.657,4.657,0,0,0-.536,2.3,2.27,2.27,0,0,1,1.8-.857,2.754,2.754,0,0,1,2.083.926,3.356,3.356,0,0,1,.867,2.391,3.429,3.429,0,0,1-.912,2.494,3.321,3.321,0,0,1-4.864-.252,6.133,6.133,0,0,1-.988-3.908,6.246,6.246,0,0,1,1.03-4.014,3.323,3.323,0,0,1,2.674-1.23,2.84,2.84,0,0,1,1.911.646A3.028,3.028,0,0,1,81.974,27.813Zm-4.4,4.235a2.2,2.2,0,0,0,.435,1.461,1.281,1.281,0,0,0,1,.515,1.131,1.131,0,0,0,.9-0.422,2.121,2.121,0,0,0,.359-1.382,2.224,2.224,0,0,0-.387-1.447,1.245,1.245,0,0,0-1.914-.021A1.906,1.906,0,0,0,77.573,32.049Z" transform="translate(-7.262 -7.537)"/></svg>