<svg id="Layer_1" data-name="Layer 1" xmlns="http://www.w3.org/2000/svg" viewBox="0 0 625.714 347.833"><defs><style>.cls-1{fill:#e2d8a8;}.cls-2{fill:#231f20;}.cls-3{fill:#b2b3b3;}.cls-4{fill:#ed1e24;}</style></defs><title>Inflation_Risk_Real_Rates_Return</title><rect class="cls-1" x="57.332" y="53.939" width="568.382" height="250.612"/><path class="cls-2" d="M11.849,21.7V10h5.188a6.9,6.9,0,0,1,2.378.315,2.6,2.6,0,0,1,1.3,1.113,3.326,3.326,0,0,1,.487,1.764,2.944,2.944,0,0,1-.806,2.1,4.081,4.081,0,0,1-2.49,1.085,4.017,4.017,0,0,1,.934.583,8.049,8.049,0,0,1,1.285,1.557L22.161,21.7H20.214l-1.548-2.435q-0.679-1.053-1.118-1.612a3.528,3.528,0,0,0-.786-0.782,2.324,2.324,0,0,0-.707-0.311,4.654,4.654,0,0,0-.862-0.056H13.4v5.2H11.849ZM13.4,15.16h3.329a4.99,4.99,0,0,0,1.66-.219,1.766,1.766,0,0,0,.91-0.7,1.9,1.9,0,0,0,.312-1.049,1.744,1.744,0,0,0-.6-1.365,2.819,2.819,0,0,0-1.9-.535H13.4V15.16Z" transform="translate(-11.849 -9.796)"/><path class="cls-2" d="M29.25,18.967l1.484,0.184a3.625,3.625,0,0,1-1.3,2.02,3.912,3.912,0,0,1-2.427.718,3.879,3.879,0,0,1-2.949-1.145,4.477,4.477,0,0,1-1.089-3.213,4.684,4.684,0,0,1,1.1-3.32,3.728,3.728,0,0,1,2.857-1.181A3.623,3.623,0,0,1,29.7,14.186a4.6,4.6,0,0,1,1.078,3.256c0,0.085,0,.213-0.008.383H24.452a3.258,3.258,0,0,0,.791,2.139,2.352,2.352,0,0,0,1.772.742,2.2,2.2,0,0,0,1.349-.415A2.753,2.753,0,0,0,29.25,18.967Zm-4.717-2.322h4.733a2.869,2.869,0,0,0-.542-1.6,2.2,2.2,0,0,0-1.78-.83,2.282,2.282,0,0,0-1.665.663A2.621,2.621,0,0,0,24.532,16.645Z" transform="translate(-11.849 -9.796)"/><path class="cls-2" d="M38.069,20.652a5.349,5.349,0,0,1-1.537.958,4.434,4.434,0,0,1-1.584.279,3.083,3.083,0,0,1-2.147-.682,2.254,2.254,0,0,1-.75-1.744,2.317,2.317,0,0,1,.283-1.137,2.344,2.344,0,0,1,.742-0.826,3.492,3.492,0,0,1,1.034-.471,10.36,10.36,0,0,1,1.277-.215,13.1,13.1,0,0,0,2.563-.5c0-.2.008-0.322,0.008-0.375A1.586,1.586,0,0,0,37.55,14.7a2.406,2.406,0,0,0-1.636-.487,2.538,2.538,0,0,0-1.5.355A2.171,2.171,0,0,0,33.7,15.83l-1.4-.191a3.479,3.479,0,0,1,.631-1.457,2.756,2.756,0,0,1,1.269-.854,5.654,5.654,0,0,1,1.923-.3,5.089,5.089,0,0,1,1.764.255,2.324,2.324,0,0,1,1,.643,2.262,2.262,0,0,1,.447.978A8.1,8.1,0,0,1,39.4,16.23v1.916a20.266,20.266,0,0,0,.092,2.534,3.187,3.187,0,0,0,.363,1.018h-1.5A3.045,3.045,0,0,1,38.069,20.652Zm-0.12-3.209a10.533,10.533,0,0,1-2.347.543,5.426,5.426,0,0,0-1.253.287,1.248,1.248,0,0,0-.566.467,1.269,1.269,0,0,0,.235,1.64,1.872,1.872,0,0,0,1.273.383,2.96,2.96,0,0,0,1.477-.363,2.239,2.239,0,0,0,.95-0.994,3.473,3.473,0,0,0,.231-1.437V17.443Z" transform="translate(-11.849 -9.796)"/><path class="cls-2" d="M41.6,21.7V10h1.437V21.7H41.6Z" transform="translate(-11.849 -9.796)"/><path class="cls-2" d="M50.01,21.7V10H55.2a6.9,6.9,0,0,1,2.378.315,2.6,2.6,0,0,1,1.3,1.113,3.326,3.326,0,0,1,.487,1.764,2.944,2.944,0,0,1-.806,2.1,4.081,4.081,0,0,1-2.49,1.085,4.017,4.017,0,0,1,.934.583,8.049,8.049,0,0,1,1.285,1.557L60.322,21.7H58.375l-1.548-2.435q-0.679-1.053-1.118-1.612a3.528,3.528,0,0,0-.786-0.782,2.324,2.324,0,0,0-.707-0.311,4.654,4.654,0,0,0-.862-0.056h-1.8v5.2H50.01Zm1.548-6.537h3.329a4.99,4.99,0,0,0,1.66-.219,1.766,1.766,0,0,0,.91-0.7,1.9,1.9,0,0,0,.312-1.049,1.744,1.744,0,0,0-.6-1.365,2.819,2.819,0,0,0-1.9-.535h-3.7V15.16Z" transform="translate(-11.849 -9.796)"/><path class="cls-2" d="M67.139,20.652a5.349,5.349,0,0,1-1.537.958,4.434,4.434,0,0,1-1.584.279,3.083,3.083,0,0,1-2.147-.682,2.254,2.254,0,0,1-.75-1.744,2.317,2.317,0,0,1,.283-1.137,2.344,2.344,0,0,1,.742-0.826,3.492,3.492,0,0,1,1.034-.471,10.36,10.36,0,0,1,1.277-.215,13.1,13.1,0,0,0,2.563-.5c0-.2.008-0.322,0.008-0.375A1.586,1.586,0,0,0,66.62,14.7a2.406,2.406,0,0,0-1.636-.487,2.538,2.538,0,0,0-1.5.355,2.171,2.171,0,0,0-.714,1.257l-1.4-.191A3.479,3.479,0,0,1,62,14.183a2.756,2.756,0,0,1,1.269-.854,5.654,5.654,0,0,1,1.923-.3,5.089,5.089,0,0,1,1.764.255,2.324,2.324,0,0,1,1,.643,2.262,2.262,0,0,1,.447.978,8.1,8.1,0,0,1,.072,1.325v1.916a20.266,20.266,0,0,0,.092,2.534,3.187,3.187,0,0,0,.363,1.018h-1.5A3.045,3.045,0,0,1,67.139,20.652Zm-0.12-3.209a10.533,10.533,0,0,1-2.347.543,5.426,5.426,0,0,0-1.253.287,1.248,1.248,0,0,0-.566.467,1.269,1.269,0,0,0,.235,1.64,1.872,1.872,0,0,0,1.273.383,2.96,2.96,0,0,0,1.477-.363,2.239,2.239,0,0,0,.95-0.994,3.473,3.473,0,0,0,.231-1.437V17.443Z" transform="translate(-11.849 -9.796)"/><path class="cls-2" d="M73.836,20.412l0.208,1.269a5.341,5.341,0,0,1-1.085.128,2.458,2.458,0,0,1-1.213-.248,1.385,1.385,0,0,1-.606-0.65,5.138,5.138,0,0,1-.176-1.7V14.338H69.909V13.221h1.054v-2.1l1.429-.862v2.961h1.445v1.118H72.391v4.957a2.493,2.493,0,0,0,.076.79,0.6,0.6,0,0,0,.247.279,0.955,0.955,0,0,0,.491.1A4.622,4.622,0,0,0,73.836,20.412Z" transform="translate(-11.849 -9.796)"/><path class="cls-2" d="M81.043,18.967l1.484,0.184a3.625,3.625,0,0,1-1.3,2.02,4.409,4.409,0,0,1-5.376-.427,4.477,4.477,0,0,1-1.089-3.213,4.684,4.684,0,0,1,1.1-3.32,3.728,3.728,0,0,1,2.857-1.181A3.623,3.623,0,0,1,81.5,14.186a4.6,4.6,0,0,1,1.078,3.256c0,0.085,0,.213-0.008.383H76.246a3.258,3.258,0,0,0,.791,2.139,2.352,2.352,0,0,0,1.772.742,2.2,2.2,0,0,0,1.349-.415A2.753,2.753,0,0,0,81.043,18.967Zm-4.717-2.322h4.733a2.869,2.869,0,0,0-.542-1.6,2.2,2.2,0,0,0-1.78-.83,2.282,2.282,0,0,0-1.665.663A2.621,2.621,0,0,0,76.326,16.645Z" transform="translate(-11.849 -9.796)"/><path class="cls-2" d="M88.339,17.459a4.368,4.368,0,0,1,1.309-3.488,3.944,3.944,0,0,1,2.666-.942,3.8,3.8,0,0,1,2.857,1.145,4.358,4.358,0,0,1,1.109,3.165,5.61,5.61,0,0,1-.491,2.574,3.476,3.476,0,0,1-1.429,1.457,4.162,4.162,0,0,1-2.047.519,3.811,3.811,0,0,1-2.877-1.141A4.56,4.56,0,0,1,88.339,17.459Zm1.477,0a3.608,3.608,0,0,0,.71,2.438,2.365,2.365,0,0,0,3.567,0,3.7,3.7,0,0,0,.71-2.482,3.5,3.5,0,0,0-.714-2.383,2.368,2.368,0,0,0-3.563,0A3.592,3.592,0,0,0,89.815,17.459Z" transform="translate(-11.849 -9.796)"/><path class="cls-2" d="M98.308,21.7V14.338H97.039V13.221h1.269v-0.9a3.952,3.952,0,0,1,.151-1.269,1.839,1.839,0,0,1,.73-0.906,2.633,2.633,0,0,1,1.465-.347A7,7,0,0,1,102,9.94l-0.216,1.253a4.818,4.818,0,0,0-.846-0.08,1.259,1.259,0,0,0-.926.279,1.515,1.515,0,0,0-.271,1.045v0.782h1.652v1.118H99.737V21.7H98.308Z" transform="translate(-11.849 -9.796)"/><path class="cls-2" d="M107.255,21.7V10h5.188a6.9,6.9,0,0,1,2.378.315,2.6,2.6,0,0,1,1.3,1.113,3.326,3.326,0,0,1,.487,1.764,2.944,2.944,0,0,1-.806,2.1,4.081,4.081,0,0,1-2.49,1.085,4.017,4.017,0,0,1,.934.583,8.049,8.049,0,0,1,1.285,1.557l2.035,3.185H115.62l-1.548-2.435q-0.679-1.053-1.118-1.612a3.528,3.528,0,0,0-.786-0.782,2.324,2.324,0,0,0-.707-0.311A4.654,4.654,0,0,0,110.6,16.5h-1.8v5.2h-1.548ZM108.8,15.16h3.329a4.99,4.99,0,0,0,1.66-.219,1.766,1.766,0,0,0,.91-0.7,1.9,1.9,0,0,0,.312-1.049,1.744,1.744,0,0,0-.6-1.365,2.819,2.819,0,0,0-1.9-.535h-3.7V15.16Z" transform="translate(-11.849 -9.796)"/><path class="cls-2" d="M124.656,18.967l1.484,0.184a3.625,3.625,0,0,1-1.3,2.02,4.409,4.409,0,0,1-5.376-.427,4.477,4.477,0,0,1-1.089-3.213,4.684,4.684,0,0,1,1.1-3.32,3.728,3.728,0,0,1,2.857-1.181,3.623,3.623,0,0,1,2.777,1.157,4.6,4.6,0,0,1,1.078,3.256c0,0.085,0,.213-0.008.383h-6.322a3.258,3.258,0,0,0,.791,2.139,2.352,2.352,0,0,0,1.772.742,2.2,2.2,0,0,0,1.349-.415A2.753,2.753,0,0,0,124.656,18.967Zm-4.717-2.322h4.733a2.869,2.869,0,0,0-.542-1.6,2.2,2.2,0,0,0-1.78-.83,2.282,2.282,0,0,0-1.665.663A2.621,2.621,0,0,0,119.938,16.645Z" transform="translate(-11.849 -9.796)"/><path class="cls-2" d="M131.081,20.412l0.208,1.269a5.341,5.341,0,0,1-1.085.128,2.458,2.458,0,0,1-1.213-.248,1.385,1.385,0,0,1-.606-0.65,5.138,5.138,0,0,1-.176-1.7V14.338h-1.054V13.221h1.054v-2.1l1.429-.862v2.961h1.445v1.118h-1.445v4.957a2.493,2.493,0,0,0,.076.79,0.6,0.6,0,0,0,.247.279,0.955,0.955,0,0,0,.491.1A4.622,4.622,0,0,0,131.081,20.412Z" transform="translate(-11.849 -9.796)"/><path class="cls-2" d="M138.041,21.7V20.452a3.1,3.1,0,0,1-2.69,1.437,3.431,3.431,0,0,1-1.4-.287,2.3,2.3,0,0,1-.966-0.723,2.7,2.7,0,0,1-.443-1.065,7.285,7.285,0,0,1-.088-1.341V13.221h1.437v4.7a8.369,8.369,0,0,0,.088,1.517,1.5,1.5,0,0,0,.575.89,1.781,1.781,0,0,0,1.085.323,2.361,2.361,0,0,0,1.213-.332,1.84,1.84,0,0,0,.8-0.9,4.531,4.531,0,0,0,.235-1.656V13.221h1.437V21.7h-1.285Z" transform="translate(-11.849 -9.796)"/><path class="cls-2" d="M141.561,21.7V13.221h1.293v1.285a3.506,3.506,0,0,1,.914-1.189,1.6,1.6,0,0,1,.922-0.287,2.8,2.8,0,0,1,1.477.463l-0.495,1.333a2.058,2.058,0,0,0-1.054-.312,1.371,1.371,0,0,0-.846.283,1.536,1.536,0,0,0-.535.787,5.593,5.593,0,0,0-.24,1.676V21.7h-1.437Z" transform="translate(-11.849 -9.796)"/><path class="cls-2" d="M147.021,21.7V13.221h1.293v1.205a3.046,3.046,0,0,1,2.7-1.4,3.538,3.538,0,0,1,1.409.275,2.218,2.218,0,0,1,.962.722,2.768,2.768,0,0,1,.447,1.062,8.221,8.221,0,0,1,.08,1.4V21.7h-1.437V16.541a3.869,3.869,0,0,0-.167-1.313,1.381,1.381,0,0,0-.595-0.694,1.891,1.891,0,0,0-1-.259,2.329,2.329,0,0,0-1.584.583,2.875,2.875,0,0,0-.667,2.211V21.7h-1.437Z" transform="translate(-11.849 -9.796)"/><path class="cls-2" d="M16.654,41.313H15.217V32.158a7.437,7.437,0,0,1-1.361.99,9.676,9.676,0,0,1-1.513.742V32.5a8.663,8.663,0,0,0,2.107-1.373,5.4,5.4,0,0,0,1.277-1.564h0.926V41.313Z" transform="translate(-11.849 -9.796)"/><path class="cls-2" d="M20.549,38.607l1.381-.128a2.394,2.394,0,0,0,.67,1.413,1.839,1.839,0,0,0,1.269.439,2.191,2.191,0,0,0,1.161-.3,2.481,2.481,0,0,0,.818-0.81,4.755,4.755,0,0,0,.535-1.369,7.22,7.22,0,0,0,.215-1.756c0-.063,0-0.16-0.008-0.287a3.289,3.289,0,0,1-1.177,1.113,3.2,3.2,0,0,1-1.616.427,3.267,3.267,0,0,1-2.458-1.054,3.856,3.856,0,0,1-1.006-2.778,3.948,3.948,0,0,1,1.05-2.865,3.506,3.506,0,0,1,2.63-1.085,3.754,3.754,0,0,1,2.087.615,3.839,3.839,0,0,1,1.437,1.752,8.629,8.629,0,0,1,.491,3.292,10.654,10.654,0,0,1-.487,3.572,4.182,4.182,0,0,1-1.449,2.023,3.749,3.749,0,0,1-2.254.694A3.091,3.091,0,0,1,20.549,38.607Zm5.882-5.165a2.813,2.813,0,0,0-.658-1.963,2.065,2.065,0,0,0-1.584-.726,2.188,2.188,0,0,0-1.668.782,2.9,2.9,0,0,0-.71,2.027,2.5,2.5,0,0,0,.674,1.815,2.221,2.221,0,0,0,1.664.7,2.129,2.129,0,0,0,1.64-.7A2.75,2.75,0,0,0,26.432,33.443Z" transform="translate(-11.849 -9.796)"/><path class="cls-2" d="M29.641,38.607l1.381-.128a2.394,2.394,0,0,0,.67,1.413,1.839,1.839,0,0,0,1.269.439,2.191,2.191,0,0,0,1.161-.3,2.481,2.481,0,0,0,.818-0.81,4.755,4.755,0,0,0,.535-1.369,7.22,7.22,0,0,0,.215-1.756c0-.063,0-0.16-0.008-0.287a3.289,3.289,0,0,1-1.177,1.113,3.2,3.2,0,0,1-1.616.427,3.267,3.267,0,0,1-2.458-1.054,3.856,3.856,0,0,1-1.006-2.778,3.948,3.948,0,0,1,1.05-2.865,3.506,3.506,0,0,1,2.63-1.085,3.754,3.754,0,0,1,2.087.615,3.839,3.839,0,0,1,1.437,1.752,8.629,8.629,0,0,1,.491,3.292,10.654,10.654,0,0,1-.487,3.572,4.182,4.182,0,0,1-1.449,2.023,3.749,3.749,0,0,1-2.254.694A3.091,3.091,0,0,1,29.641,38.607Zm5.882-5.165a2.813,2.813,0,0,0-.658-1.963,2.065,2.065,0,0,0-1.584-.726,2.188,2.188,0,0,0-1.668.782,2.9,2.9,0,0,0-.71,2.027,2.5,2.5,0,0,0,.674,1.815,2.221,2.221,0,0,0,1.664.7,2.129,2.129,0,0,0,1.64-.7A2.75,2.75,0,0,0,35.523,33.443Z" transform="translate(-11.849 -9.796)"/><path class="cls-2" d="M43.928,41.313H42.491V32.158a7.437,7.437,0,0,1-1.361.99,9.676,9.676,0,0,1-1.513.742V32.5a8.663,8.663,0,0,0,2.107-1.373A5.4,5.4,0,0,0,43,29.564h0.926V41.313Z" transform="translate(-11.849 -9.796)"/><path class="cls-2" d="M47.448,37.8V36.356h4.414V37.8H47.448Z" transform="translate(-11.849 -9.796)"/><path class="cls-2" d="M60.6,39.932v1.381H52.867a2.546,2.546,0,0,1,.168-1,5.266,5.266,0,0,1,.946-1.557,14.818,14.818,0,0,1,1.879-1.772,15.915,15.915,0,0,0,2.578-2.478,2.966,2.966,0,0,0,.67-1.728,1.92,1.92,0,0,0-.61-1.441,2.2,2.2,0,0,0-1.592-.586,2.243,2.243,0,0,0-1.66.623,2.356,2.356,0,0,0-.631,1.724l-1.477-.151A3.632,3.632,0,0,1,54.28,30.43a3.891,3.891,0,0,1,2.658-.866A3.709,3.709,0,0,1,59.6,30.5a3.068,3.068,0,0,1,.982,2.315,3.513,3.513,0,0,1-.288,1.381,5.364,5.364,0,0,1-.954,1.429,23.26,23.26,0,0,1-2.215,2.059q-1.293,1.086-1.661,1.473a4.742,4.742,0,0,0-.606.778H60.6Z" transform="translate(-11.849 -9.796)"/><path class="cls-2" d="M62.142,35.542a10.709,10.709,0,0,1,.427-3.34,4.153,4.153,0,0,1,1.269-1.951,3.245,3.245,0,0,1,2.119-.687,3.461,3.461,0,0,1,1.652.379,3.161,3.161,0,0,1,1.173,1.094,5.857,5.857,0,0,1,.726,1.74,11.552,11.552,0,0,1,.264,2.766,10.731,10.731,0,0,1-.423,3.325,4.155,4.155,0,0,1-1.265,1.956,3.245,3.245,0,0,1-2.127.69A3.21,3.21,0,0,1,63.3,40.3Q62.142,38.839,62.142,35.542Zm1.477,0a7.336,7.336,0,0,0,.674,3.835,1.927,1.927,0,0,0,3.328,0,7.338,7.338,0,0,0,.675-3.832q0-2.889-.675-3.839a2,2,0,0,0-1.68-.95,1.841,1.841,0,0,0-1.58.838A7.418,7.418,0,0,0,63.619,35.542Z" transform="translate(-11.849 -9.796)"/><path class="cls-2" d="M76.645,41.313H75.208V32.158a7.437,7.437,0,0,1-1.361.99,9.676,9.676,0,0,1-1.513.742V32.5a8.663,8.663,0,0,0,2.107-1.373,5.4,5.4,0,0,0,1.277-1.564h0.926V41.313Z" transform="translate(-11.849 -9.796)"/><path class="cls-2" d="M80.325,38.248l1.509-.128a2.7,2.7,0,0,0,.778,1.656,2.111,2.111,0,0,0,1.473.555,2.292,2.292,0,0,0,1.756-.782,2.946,2.946,0,0,0,.718-2.075,2.664,2.664,0,0,0-.69-1.939,2.408,2.408,0,0,0-1.808-.71,2.509,2.509,0,0,0-1.253.315,2.437,2.437,0,0,0-.878.818l-1.349-.175,1.133-6.01h5.818v1.373H82.863l-0.631,3.145a3.811,3.811,0,0,1,2.211-.734,3.5,3.5,0,0,1,2.586,1.062,3.712,3.712,0,0,1,1.053,2.73,4.261,4.261,0,0,1-.926,2.746,3.708,3.708,0,0,1-3.073,1.421,3.785,3.785,0,0,1-2.606-.894A3.491,3.491,0,0,1,80.325,38.248Z" transform="translate(-11.849 -9.796)"/><path class="cls-2" d="M28.146,75.439H26.709V66.285a7.437,7.437,0,0,1-1.361.99,9.676,9.676,0,0,1-1.513.742V66.627a8.663,8.663,0,0,0,2.107-1.373A5.4,5.4,0,0,0,27.22,63.69h0.926V75.439Z" transform="translate(-11.849 -9.796)"/><path class="cls-2" d="M31.826,72.374l1.509-.128a2.7,2.7,0,0,0,.778,1.656,2.111,2.111,0,0,0,1.473.555,2.292,2.292,0,0,0,1.756-.782A2.946,2.946,0,0,0,38.06,71.6a2.664,2.664,0,0,0-.69-1.939,2.408,2.408,0,0,0-1.808-.71,2.509,2.509,0,0,0-1.253.315,2.437,2.437,0,0,0-.878.818l-1.349-.175,1.133-6.01h5.818v1.373H34.364l-0.631,3.145a3.811,3.811,0,0,1,2.211-.734,3.5,3.5,0,0,1,2.586,1.062,3.712,3.712,0,0,1,1.053,2.73,4.261,4.261,0,0,1-.926,2.746,3.708,3.708,0,0,1-3.073,1.421,3.785,3.785,0,0,1-2.606-.894A3.491,3.491,0,0,1,31.826,72.374Z" transform="translate(-11.849 -9.796)"/><path class="cls-2" d="M41.188,66.548a3.557,3.557,0,0,1,.631-2.131,2.11,2.11,0,0,1,1.828-.878,2.371,2.371,0,0,1,1.824.786,4,4,0,0,1-.008,4.6,2.339,2.339,0,0,1-1.8.8,2.273,2.273,0,0,1-1.768-.79A3.488,3.488,0,0,1,41.188,66.548Zm2.5-2.02a1.082,1.082,0,0,0-.89.463,2.934,2.934,0,0,0-.355,1.7,2.638,2.638,0,0,0,.359,1.584,1.094,1.094,0,0,0,1.784,0,2.918,2.918,0,0,0,.355-1.692,2.656,2.656,0,0,0-.359-1.592A1.1,1.1,0,0,0,43.687,64.528Zm0.008,11.342,6.4-12.332h1.166L44.884,75.871H43.695Zm5.061-3.177a3.552,3.552,0,0,1,.63-2.135,2.123,2.123,0,0,1,1.836-.874,2.371,2.371,0,0,1,1.824.786,4,4,0,0,1-.008,4.6,2.348,2.348,0,0,1-1.808.8,2.269,2.269,0,0,1-1.768-.794A3.492,3.492,0,0,1,48.755,72.694Zm2.506-2.02a1.086,1.086,0,0,0-.9.463,2.933,2.933,0,0,0-.355,1.7,2.636,2.636,0,0,0,.359,1.581,1.084,1.084,0,0,0,.886.463,1.1,1.1,0,0,0,.906-0.463,2.918,2.918,0,0,0,.355-1.692,2.652,2.652,0,0,0-.359-1.592A1.094,1.094,0,0,0,51.262,70.674Z" transform="translate(-11.849 -9.796)"/><path class="cls-2" d="M31.921,174.161V172.78H39.5V173.9a16,16,0,0,0-2.215,3.161,19.258,19.258,0,0,0-1.7,4.055,15.044,15.044,0,0,0-.551,3.217H33.558a14.33,14.33,0,0,1,.542-3.336,17.52,17.52,0,0,1,1.489-3.771,16.163,16.163,0,0,1,2.063-3.061h-5.73Z" transform="translate(-11.849 -9.796)"/><path class="cls-2" d="M41.188,175.437a3.557,3.557,0,0,1,.631-2.131,2.11,2.11,0,0,1,1.828-.878,2.371,2.371,0,0,1,1.824.786,4,4,0,0,1-.008,4.6,2.339,2.339,0,0,1-1.8.8,2.273,2.273,0,0,1-1.768-.79A3.488,3.488,0,0,1,41.188,175.437Zm2.5-2.02a1.082,1.082,0,0,0-.89.463,2.934,2.934,0,0,0-.355,1.7,2.638,2.638,0,0,0,.359,1.584,1.094,1.094,0,0,0,1.784,0,2.918,2.918,0,0,0,.355-1.692,2.656,2.656,0,0,0-.359-1.592A1.1,1.1,0,0,0,43.687,173.418Zm0.008,11.342,6.4-12.332h1.166L44.884,184.76H43.694Zm5.061-3.177a3.552,3.552,0,0,1,.63-2.135,2.123,2.123,0,0,1,1.836-.874,2.371,2.371,0,0,1,1.824.786,4,4,0,0,1-.008,4.6,2.348,2.348,0,0,1-1.808.8,2.269,2.269,0,0,1-1.768-.794A3.492,3.492,0,0,1,48.755,181.583Zm2.506-2.02a1.086,1.086,0,0,0-.9.463,2.933,2.933,0,0,0-.355,1.7,2.636,2.636,0,0,0,.359,1.581,1.084,1.084,0,0,0,.886.463,1.1,1.1,0,0,0,.906-0.463,2.918,2.918,0,0,0,.355-1.692,2.652,2.652,0,0,0-.359-1.592A1.094,1.094,0,0,0,51.261,179.564Z" transform="translate(-11.849 -9.796)"/><path class="cls-2" d="M31.825,295.8a10.709,10.709,0,0,1,.427-3.34,4.153,4.153,0,0,1,1.269-1.951,3.245,3.245,0,0,1,2.119-.687,3.461,3.461,0,0,1,1.652.379,3.161,3.161,0,0,1,1.173,1.094,5.857,5.857,0,0,1,.726,1.74,11.552,11.552,0,0,1,.264,2.766,10.731,10.731,0,0,1-.423,3.325,4.155,4.155,0,0,1-1.265,1.956,3.245,3.245,0,0,1-2.127.69,3.21,3.21,0,0,1-2.658-1.213Q31.825,299.092,31.825,295.8Zm1.477,0a7.336,7.336,0,0,0,.674,3.835,1.927,1.927,0,0,0,3.328,0,7.338,7.338,0,0,0,.675-3.832q0-2.889-.675-3.839a2,2,0,0,0-1.68-.95,1.841,1.841,0,0,0-1.58.838A7.418,7.418,0,0,0,33.3,295.8Z" transform="translate(-11.849 -9.796)"/><path class="cls-2" d="M41.188,292.675a3.557,3.557,0,0,1,.631-2.131,2.11,2.11,0,0,1,1.828-.878,2.371,2.371,0,0,1,1.824.786,4,4,0,0,1-.008,4.6,2.339,2.339,0,0,1-1.8.8,2.273,2.273,0,0,1-1.768-.79A3.488,3.488,0,0,1,41.188,292.675Zm2.5-2.02a1.082,1.082,0,0,0-.89.463,2.934,2.934,0,0,0-.355,1.7A2.638,2.638,0,0,0,42.8,294.4a1.094,1.094,0,0,0,1.784,0,2.918,2.918,0,0,0,.355-1.692,2.656,2.656,0,0,0-.359-1.592A1.1,1.1,0,0,0,43.687,290.655ZM43.694,302l6.4-12.332h1.166L44.884,302H43.694Zm5.061-3.177a3.552,3.552,0,0,1,.63-2.135,2.123,2.123,0,0,1,1.836-.874,2.371,2.371,0,0,1,1.824.786,4,4,0,0,1-.008,4.6,2.348,2.348,0,0,1-1.808.8,2.269,2.269,0,0,1-1.768-.794A3.492,3.492,0,0,1,48.755,298.821Zm2.506-2.02a1.086,1.086,0,0,0-.9.463,2.933,2.933,0,0,0-.355,1.7,2.636,2.636,0,0,0,.359,1.581,1.084,1.084,0,0,0,.886.463,1.1,1.1,0,0,0,.906-0.463,2.918,2.918,0,0,0,.355-1.692,2.652,2.652,0,0,0-.359-1.592A1.094,1.094,0,0,0,51.261,296.8Z" transform="translate(-11.849 -9.796)"/><path class="cls-2" d="M128.928,330.815l1.46-.128a3.231,3.231,0,0,0,.483,1.441,2.639,2.639,0,0,0,1.177.91,4.46,4.46,0,0,0,1.8.347,4.3,4.3,0,0,0,1.564-.263,2.174,2.174,0,0,0,1.01-.722,1.677,1.677,0,0,0,.331-1,1.526,1.526,0,0,0-.319-0.962,2.371,2.371,0,0,0-1.054-.69,20.632,20.632,0,0,0-2.083-.57,10.65,10.65,0,0,1-2.259-.73,3.166,3.166,0,0,1-1.249-1.089,2.673,2.673,0,0,1-.411-1.457,2.977,2.977,0,0,1,.5-1.656,3.116,3.116,0,0,1,1.469-1.169,5.569,5.569,0,0,1,2.147-.4,5.86,5.86,0,0,1,2.295.419,3.311,3.311,0,0,1,1.528,1.233,3.545,3.545,0,0,1,.575,1.844l-1.484.112a2.4,2.4,0,0,0-.811-1.676,3.155,3.155,0,0,0-2.039-.566,3.272,3.272,0,0,0-2.047.515,1.544,1.544,0,0,0-.643,1.241,1.331,1.331,0,0,0,.455,1.038,6.162,6.162,0,0,0,2.334.834,15.5,15.5,0,0,1,2.59.746,3.555,3.555,0,0,1,1.508,1.193,2.908,2.908,0,0,1,.487,1.665,3.183,3.183,0,0,1-.535,1.76,3.521,3.521,0,0,1-1.537,1.285,5.357,5.357,0,0,1-2.255.459,6.74,6.74,0,0,1-2.662-.463,3.725,3.725,0,0,1-1.684-1.393A3.944,3.944,0,0,1,128.928,330.815Z" transform="translate(-11.849 -9.796)"/><path class="cls-2" d="M143.311,333.289l0.208,1.269a5.341,5.341,0,0,1-1.085.128,2.458,2.458,0,0,1-1.213-.248,1.385,1.385,0,0,1-.606-0.65,5.138,5.138,0,0,1-.176-1.7v-4.876h-1.054V326.1h1.054V324l1.429-.862V326.1h1.445v1.118h-1.445v4.957a2.493,2.493,0,0,0,.076.79,0.6,0.6,0,0,0,.247.279,0.955,0.955,0,0,0,.491.1A4.622,4.622,0,0,0,143.311,333.289Z" transform="translate(-11.849 -9.796)"/><path class="cls-2" d="M144.181,330.336a4.368,4.368,0,0,1,1.309-3.488,3.944,3.944,0,0,1,2.666-.942,3.8,3.8,0,0,1,2.857,1.145,4.358,4.358,0,0,1,1.109,3.165,5.61,5.61,0,0,1-.491,2.574,3.476,3.476,0,0,1-1.429,1.457,4.162,4.162,0,0,1-2.047.519,3.811,3.811,0,0,1-2.877-1.141A4.56,4.56,0,0,1,144.181,330.336Zm1.477,0a3.608,3.608,0,0,0,.71,2.438,2.365,2.365,0,0,0,3.567,0,3.7,3.7,0,0,0,.71-2.482,3.5,3.5,0,0,0-.714-2.383,2.368,2.368,0,0,0-3.563,0A3.592,3.592,0,0,0,145.657,330.336Z" transform="translate(-11.849 -9.796)"/><path class="cls-2" d="M159.338,331.469l1.413,0.184a3.663,3.663,0,0,1-1.185,2.287,3.454,3.454,0,0,1-2.343.826,3.638,3.638,0,0,1-2.8-1.137,4.615,4.615,0,0,1-1.058-3.261,5.9,5.9,0,0,1,.455-2.4,3.174,3.174,0,0,1,1.385-1.544,4.106,4.106,0,0,1,2.023-.515,3.52,3.52,0,0,1,2.259.7,3.205,3.205,0,0,1,1.125,1.983l-1.4.215a2.319,2.319,0,0,0-.707-1.285,1.826,1.826,0,0,0-1.225-.431,2.23,2.23,0,0,0-1.764.778,3.694,3.694,0,0,0-.678,2.462,3.819,3.819,0,0,0,.654,2.482,2.129,2.129,0,0,0,1.708.774,2.015,2.015,0,0,0,1.413-.519A2.578,2.578,0,0,0,159.338,331.469Z" transform="translate(-11.849 -9.796)"/><path class="cls-2" d="M161.988,334.574v-11.7h1.437v6.673l3.4-3.448h1.86l-3.241,3.145,3.568,5.332H167.24l-2.8-4.334-1.014.974v3.36h-1.437Z" transform="translate(-11.849 -9.796)"/><path class="cls-2" d="M169.579,332.044L171,331.82a1.984,1.984,0,0,0,.666,1.309,2.324,2.324,0,0,0,1.529.455,2.247,2.247,0,0,0,1.469-.4,1.207,1.207,0,0,0,.479-0.946,0.874,0.874,0,0,0-.423-0.766,6.239,6.239,0,0,0-1.469-.487,13.4,13.4,0,0,1-2.191-.69,2.092,2.092,0,0,1-1.241-1.943,2.185,2.185,0,0,1,.259-1.05,2.329,2.329,0,0,1,.707-0.8,2.982,2.982,0,0,1,.914-0.419,4.35,4.35,0,0,1,1.241-.171,4.91,4.91,0,0,1,1.752.287,2.381,2.381,0,0,1,1.113.778,3.042,3.042,0,0,1,.5,1.313l-1.4.191a1.538,1.538,0,0,0-.555-1.021,2.031,2.031,0,0,0-1.3-.367,2.347,2.347,0,0,0-1.413.327,0.952,0.952,0,0,0-.423.766,0.792,0.792,0,0,0,.175.5,1.269,1.269,0,0,0,.551.383q0.215,0.08,1.269.367a17.7,17.7,0,0,1,2.127.667,2.16,2.16,0,0,1,.946.754,2.106,2.106,0,0,1,.343,1.229,2.413,2.413,0,0,1-.419,1.353,2.707,2.707,0,0,1-1.209.981,4.4,4.4,0,0,1-1.788.347,3.982,3.982,0,0,1-2.518-.686A3.192,3.192,0,0,1,169.579,332.044Z" transform="translate(-11.849 -9.796)"/><path class="cls-2" d="M118.986,357.63a14.354,14.354,0,0,1-2.011-3.512,11.02,11.02,0,0,1-.208-7.806,15.291,15.291,0,0,1,2.219-4.023h1.03q-0.966,1.66-1.277,2.371a12.923,12.923,0,0,0-.766,2.3,13.341,13.341,0,0,0-.343,3,14.4,14.4,0,0,0,2.387,7.67h-1.03Z" transform="translate(-11.849 -9.796)"/><path class="cls-2" d="M121.341,350.431l1.46-.128a3.231,3.231,0,0,0,.483,1.441,2.639,2.639,0,0,0,1.177.91,4.46,4.46,0,0,0,1.8.347,4.3,4.3,0,0,0,1.564-.263,2.174,2.174,0,0,0,1.01-.722,1.677,1.677,0,0,0,.331-1,1.526,1.526,0,0,0-.319-0.962,2.371,2.371,0,0,0-1.054-.69,20.632,20.632,0,0,0-2.083-.57,10.65,10.65,0,0,1-2.259-.73,3.166,3.166,0,0,1-1.249-1.089,2.673,2.673,0,0,1-.411-1.457,2.977,2.977,0,0,1,.5-1.656,3.116,3.116,0,0,1,1.469-1.169,5.569,5.569,0,0,1,2.147-.4,5.86,5.86,0,0,1,2.295.419,3.311,3.311,0,0,1,1.528,1.233,3.545,3.545,0,0,1,.575,1.844l-1.484.112a2.4,2.4,0,0,0-.811-1.676,3.155,3.155,0,0,0-2.039-.566,3.272,3.272,0,0,0-2.047.515,1.544,1.544,0,0,0-.643,1.241,1.331,1.331,0,0,0,.455,1.038,6.162,6.162,0,0,0,2.334.834,15.5,15.5,0,0,1,2.59.746,3.555,3.555,0,0,1,1.508,1.193,2.908,2.908,0,0,1,.487,1.665,3.183,3.183,0,0,1-.535,1.76,3.521,3.521,0,0,1-1.537,1.285,5.357,5.357,0,0,1-2.255.459,6.74,6.74,0,0,1-2.662-.463,3.725,3.725,0,0,1-1.684-1.393A3.944,3.944,0,0,1,121.341,350.431Z" transform="translate(-11.849 -9.796)"/><path class="cls-2" d="M139.275,352.809a4.907,4.907,0,0,1-1.548,1.186,4.2,4.2,0,0,1-1.812.4,3.579,3.579,0,0,1-2.849-1.213,3.3,3.3,0,0,1-.854-2.211,3.058,3.058,0,0,1,.7-1.959A5.83,5.83,0,0,1,135,347.469a7.005,7.005,0,0,1-1.053-1.477,2.587,2.587,0,0,1-.264-1.093,2.438,2.438,0,0,1,.826-1.832,2.914,2.914,0,0,1,2.079-.778,2.708,2.708,0,0,1,1.959.734,2.363,2.363,0,0,1,.763,1.764q0,1.668-2.211,2.85l2.1,2.674a6.664,6.664,0,0,0,.559-1.628L141.247,349a8.149,8.149,0,0,1-1.038,2.522,8.317,8.317,0,0,0,1.828,1.8l-0.966,1.142A8.358,8.358,0,0,1,139.275,352.809Zm-0.9-1.133-2.634-3.265a5.041,5.041,0,0,0-1.573,1.289,2.081,2.081,0,0,0-.407,1.177,2.5,2.5,0,0,0,.566,1.477,1.879,1.879,0,0,0,1.6.767,2.653,2.653,0,0,0,1.337-.4A3.248,3.248,0,0,0,138.374,351.676Zm-2.02-4.965a3.821,3.821,0,0,0,1.209-.966,1.624,1.624,0,0,0,.275-0.917,1.323,1.323,0,0,0-.379-0.978,1.284,1.284,0,0,0-.946-0.379,1.339,1.339,0,0,0-.97.375,1.228,1.228,0,0,0-.387.918,1.357,1.357,0,0,0,.14.571,2.994,2.994,0,0,0,.419.634Z" transform="translate(-11.849 -9.796)"/><path class="cls-2" d="M143.673,354.19v-11.7h4.414a10.641,10.641,0,0,1,1.78.112,3.517,3.517,0,0,1,1.444.547,2.865,2.865,0,0,1,.938,1.129,3.807,3.807,0,0,1-.595,4.123,4.557,4.557,0,0,1-3.432,1.033h-3v4.757h-1.548Zm1.548-6.138h3.025a3.208,3.208,0,0,0,2.131-.559,1.99,1.99,0,0,0,.63-1.572,2.115,2.115,0,0,0-.371-1.257,1.737,1.737,0,0,0-.978-0.69,6.645,6.645,0,0,0-1.445-.1h-2.993v4.183Z" transform="translate(-11.849 -9.796)"/><path class="cls-2" d="M158.239,351.125l1.509-.128a2.7,2.7,0,0,0,.778,1.656,2.111,2.111,0,0,0,1.473.555,2.292,2.292,0,0,0,1.756-.782,2.946,2.946,0,0,0,.718-2.075,2.664,2.664,0,0,0-.69-1.939,2.408,2.408,0,0,0-1.808-.71,2.509,2.509,0,0,0-1.253.315,2.437,2.437,0,0,0-.878.818l-1.349-.175,1.133-6.01h5.818v1.373h-4.669l-0.631,3.145a3.811,3.811,0,0,1,2.211-.734,3.5,3.5,0,0,1,2.586,1.062,3.712,3.712,0,0,1,1.053,2.73,4.261,4.261,0,0,1-.926,2.746A3.708,3.708,0,0,1,162,354.39a3.785,3.785,0,0,1-2.606-.894A3.491,3.491,0,0,1,158.239,351.125Z" transform="translate(-11.849 -9.796)"/><path class="cls-2" d="M167.331,348.419a10.709,10.709,0,0,1,.427-3.34,4.153,4.153,0,0,1,1.269-1.951,3.245,3.245,0,0,1,2.119-.687,3.461,3.461,0,0,1,1.652.379,3.161,3.161,0,0,1,1.173,1.094,5.857,5.857,0,0,1,.726,1.74,11.552,11.552,0,0,1,.264,2.766,10.731,10.731,0,0,1-.423,3.325,4.155,4.155,0,0,1-1.265,1.956,3.245,3.245,0,0,1-2.127.69,3.21,3.21,0,0,1-2.658-1.213Q167.33,351.716,167.331,348.419Zm1.477,0a7.336,7.336,0,0,0,.674,3.835,1.927,1.927,0,0,0,3.328,0,7.338,7.338,0,0,0,.675-3.832q0-2.889-.675-3.839a2,2,0,0,0-1.68-.95,1.841,1.841,0,0,0-1.58.838A7.418,7.418,0,0,0,168.808,348.419Z" transform="translate(-11.849 -9.796)"/><path class="cls-2" d="M176.422,348.419a10.709,10.709,0,0,1,.427-3.34,4.153,4.153,0,0,1,1.269-1.951,3.245,3.245,0,0,1,2.119-.687,3.461,3.461,0,0,1,1.652.379,3.161,3.161,0,0,1,1.173,1.094,5.857,5.857,0,0,1,.726,1.74,11.552,11.552,0,0,1,.264,2.766,10.731,10.731,0,0,1-.423,3.325,4.155,4.155,0,0,1-1.265,1.956,3.245,3.245,0,0,1-2.127.69,3.21,3.21,0,0,1-2.658-1.213Q176.422,351.716,176.422,348.419Zm1.477,0a7.336,7.336,0,0,0,.674,3.835,1.927,1.927,0,0,0,3.328,0,7.338,7.338,0,0,0,.675-3.832q0-2.889-.675-3.839a2,2,0,0,0-1.68-.95,1.841,1.841,0,0,0-1.58.838A7.418,7.418,0,0,0,177.9,348.419Z" transform="translate(-11.849 -9.796)"/><path class="cls-2" d="M186.854,357.63h-1.03a14.405,14.405,0,0,0,2.387-7.67,13.126,13.126,0,0,0-.343-2.977,12.557,12.557,0,0,0-.758-2.3,27.062,27.062,0,0,0-1.285-2.395h1.03a15.319,15.319,0,0,1,2.219,4.023,10.994,10.994,0,0,1-.211,7.806A14.634,14.634,0,0,1,186.854,357.63Z" transform="translate(-11.849 -9.796)"/><path class="cls-2" d="M274.928,334.574v-11.7h4.39a5.442,5.442,0,0,1,2.151.355,2.768,2.768,0,0,1,1.269,1.094,2.88,2.88,0,0,1,.459,1.544,2.652,2.652,0,0,1-.407,1.413,2.9,2.9,0,0,1-1.229,1.07,3.058,3.058,0,0,1,1.632,1.062,2.843,2.843,0,0,1,.571,1.772,3.417,3.417,0,0,1-.347,1.528,2.959,2.959,0,0,1-.858,1.089,3.581,3.581,0,0,1-1.281.579,7.8,7.8,0,0,1-1.888.2h-4.462Zm1.548-6.785h2.53a5.654,5.654,0,0,0,1.477-.135,1.642,1.642,0,0,0,.89-0.583,1.68,1.68,0,0,0,.3-1.021,1.885,1.885,0,0,0-.279-1.026,1.419,1.419,0,0,0-.8-0.606,6.677,6.677,0,0,0-1.78-.164h-2.339v3.536Zm0,5.4h2.914a6.726,6.726,0,0,0,1.053-.056,2.528,2.528,0,0,0,.894-0.319,1.692,1.692,0,0,0,.591-0.65,2.036,2.036,0,0,0,.231-0.986,1.945,1.945,0,0,0-.335-1.138,1.767,1.767,0,0,0-.93-0.678,5.764,5.764,0,0,0-1.712-.2h-2.706v4.023Z" transform="translate(-11.849 -9.796)"/><path class="cls-2" d="M285.176,330.336a4.368,4.368,0,0,1,1.309-3.488,3.944,3.944,0,0,1,2.666-.942,3.8,3.8,0,0,1,2.857,1.145,4.358,4.358,0,0,1,1.109,3.165,5.61,5.61,0,0,1-.491,2.574,3.476,3.476,0,0,1-1.429,1.457,4.162,4.162,0,0,1-2.047.519,3.811,3.811,0,0,1-2.877-1.141A4.56,4.56,0,0,1,285.176,330.336Zm1.477,0a3.608,3.608,0,0,0,.71,2.438,2.365,2.365,0,0,0,3.567,0,3.7,3.7,0,0,0,.71-2.482,3.5,3.5,0,0,0-.714-2.383,2.368,2.368,0,0,0-3.563,0A3.592,3.592,0,0,0,286.653,330.336Z" transform="translate(-11.849 -9.796)"/><path class="cls-2" d="M294.8,334.574V326.1H296.1V327.3a3.046,3.046,0,0,1,2.7-1.4,3.538,3.538,0,0,1,1.409.275,2.218,2.218,0,0,1,.962.722,2.768,2.768,0,0,1,.447,1.062,8.221,8.221,0,0,1,.08,1.4v5.212h-1.437v-5.156a3.869,3.869,0,0,0-.167-1.313,1.381,1.381,0,0,0-.595-0.694,1.891,1.891,0,0,0-1-.259,2.329,2.329,0,0,0-1.584.583,2.875,2.875,0,0,0-.667,2.211v4.629H294.8Z" transform="translate(-11.849 -9.796)"/><path class="cls-2" d="M309.393,334.574V333.5a2.637,2.637,0,0,1-2.371,1.261,3.323,3.323,0,0,1-1.864-.559,3.671,3.671,0,0,1-1.317-1.561,5.388,5.388,0,0,1-.467-2.3,6.026,6.026,0,0,1,.423-2.3,3.332,3.332,0,0,1,1.269-1.584,3.392,3.392,0,0,1,1.892-.551,2.822,2.822,0,0,1,1.365.323,2.853,2.853,0,0,1,.974.842v-4.2h1.429v11.7h-1.333Zm-4.542-4.23a3.683,3.683,0,0,0,.687,2.435,2.069,2.069,0,0,0,1.621.806,2.033,2.033,0,0,0,1.6-.77,3.552,3.552,0,0,0,.659-2.351,3.984,3.984,0,0,0-.671-2.554,2.061,2.061,0,0,0-1.652-.814,1.991,1.991,0,0,0-1.6.782A3.862,3.862,0,0,0,304.851,330.344Z" transform="translate(-11.849 -9.796)"/><path class="cls-2" d="M312.41,332.044l1.421-.224a1.984,1.984,0,0,0,.666,1.309,2.324,2.324,0,0,0,1.529.455,2.247,2.247,0,0,0,1.469-.4,1.207,1.207,0,0,0,.479-0.946,0.874,0.874,0,0,0-.423-0.766,6.239,6.239,0,0,0-1.469-.487,13.4,13.4,0,0,1-2.191-.69,2.092,2.092,0,0,1-1.241-1.943,2.185,2.185,0,0,1,.259-1.05,2.329,2.329,0,0,1,.707-0.8,2.982,2.982,0,0,1,.914-0.419,4.35,4.35,0,0,1,1.241-.171,4.91,4.91,0,0,1,1.752.287,2.381,2.381,0,0,1,1.113.778,3.042,3.042,0,0,1,.5,1.313l-1.4.191a1.538,1.538,0,0,0-.555-1.021,2.031,2.031,0,0,0-1.3-.367,2.347,2.347,0,0,0-1.413.327,0.952,0.952,0,0,0-.423.766,0.792,0.792,0,0,0,.175.5,1.269,1.269,0,0,0,.551.383q0.215,0.08,1.269.367a17.7,17.7,0,0,1,2.127.667,2.16,2.16,0,0,1,.946.754,2.106,2.106,0,0,1,.343,1.229,2.413,2.413,0,0,1-.419,1.353,2.707,2.707,0,0,1-1.209.981,4.4,4.4,0,0,1-1.788.347,3.982,3.982,0,0,1-2.518-.686A3.192,3.192,0,0,1,312.41,332.044Z" transform="translate(-11.849 -9.796)"/><path class="cls-2" d="M226.694,357.63a14.354,14.354,0,0,1-2.011-3.512,11.02,11.02,0,0,1-.208-7.806,15.291,15.291,0,0,1,2.219-4.023h1.03q-0.966,1.66-1.277,2.371a12.923,12.923,0,0,0-.766,2.3,13.341,13.341,0,0,0-.343,3,14.4,14.4,0,0,0,2.387,7.67h-1.03Z" transform="translate(-11.849 -9.796)"/><path class="cls-2" d="M229.512,354.19v-11.7h1.548v10.32h5.763v1.381h-7.311Z" transform="translate(-11.849 -9.796)"/><path class="cls-2" d="M238.6,354.19v-11.7h4.39a5.442,5.442,0,0,1,2.151.355,2.768,2.768,0,0,1,1.269,1.094,2.88,2.88,0,0,1,.459,1.544,2.652,2.652,0,0,1-.407,1.413,2.9,2.9,0,0,1-1.229,1.07,3.058,3.058,0,0,1,1.632,1.062,2.843,2.843,0,0,1,.571,1.772,3.417,3.417,0,0,1-.347,1.528,2.959,2.959,0,0,1-.858,1.089,3.581,3.581,0,0,1-1.281.579,7.8,7.8,0,0,1-1.888.2H238.6Zm1.548-6.785h2.53a5.654,5.654,0,0,0,1.477-.135,1.642,1.642,0,0,0,.89-0.583,1.68,1.68,0,0,0,.3-1.021,1.885,1.885,0,0,0-.279-1.026,1.419,1.419,0,0,0-.8-0.606,6.677,6.677,0,0,0-1.78-.164h-2.339v3.536Zm0,5.4h2.914a6.726,6.726,0,0,0,1.053-.056,2.528,2.528,0,0,0,.894-0.319,1.692,1.692,0,0,0,.591-0.65,2.036,2.036,0,0,0,.231-0.986,1.945,1.945,0,0,0-.335-1.138,1.767,1.767,0,0,0-.93-0.678,5.764,5.764,0,0,0-1.712-.2h-2.706v4.023Z" transform="translate(-11.849 -9.796)"/><path class="cls-2" d="M248.309,354.39l3.392-12.1h1.149l-3.384,12.1h-1.157Z" transform="translate(-11.849 -9.796)"/><path class="cls-2" d="M254.047,354.19v-11.7h4.39a5.442,5.442,0,0,1,2.151.355,2.768,2.768,0,0,1,1.269,1.094,2.88,2.88,0,0,1,.459,1.544,2.652,2.652,0,0,1-.407,1.413,2.9,2.9,0,0,1-1.229,1.07,3.058,3.058,0,0,1,1.632,1.062,2.843,2.843,0,0,1,.571,1.772,3.417,3.417,0,0,1-.347,1.528,2.959,2.959,0,0,1-.858,1.089,3.581,3.581,0,0,1-1.281.579,7.8,7.8,0,0,1-1.888.2h-4.462Zm1.548-6.785h2.53a5.654,5.654,0,0,0,1.477-.135,1.642,1.642,0,0,0,.89-0.583,1.68,1.68,0,0,0,.3-1.021,1.885,1.885,0,0,0-.279-1.026,1.419,1.419,0,0,0-.8-0.606,6.677,6.677,0,0,0-1.78-.164H255.6v3.536Zm0,5.4h2.914a6.726,6.726,0,0,0,1.053-.056,2.528,2.528,0,0,0,.894-0.319,1.692,1.692,0,0,0,.591-0.65,2.036,2.036,0,0,0,.231-0.986,1.945,1.945,0,0,0-.335-1.138,1.767,1.767,0,0,0-.93-0.678,5.764,5.764,0,0,0-1.712-.2H255.6v4.023Z" transform="translate(-11.849 -9.796)"/><path class="cls-2" d="M270.362,353.144a5.349,5.349,0,0,1-1.537.958,4.434,4.434,0,0,1-1.584.279,3.083,3.083,0,0,1-2.147-.682,2.254,2.254,0,0,1-.75-1.744,2.317,2.317,0,0,1,.283-1.137,2.344,2.344,0,0,1,.742-0.826,3.492,3.492,0,0,1,1.034-.471,10.36,10.36,0,0,1,1.277-.215,13.1,13.1,0,0,0,2.563-.5c0-.2.008-0.322,0.008-0.375a1.586,1.586,0,0,0-.407-1.237,2.406,2.406,0,0,0-1.636-.487,2.538,2.538,0,0,0-1.5.355,2.171,2.171,0,0,0-.714,1.257l-1.4-.191a3.479,3.479,0,0,1,.631-1.457,2.756,2.756,0,0,1,1.269-.854,5.654,5.654,0,0,1,1.923-.3,5.089,5.089,0,0,1,1.764.255,2.324,2.324,0,0,1,1,.643,2.262,2.262,0,0,1,.447.978,8.1,8.1,0,0,1,.072,1.325v1.916a20.266,20.266,0,0,0,.092,2.534,3.187,3.187,0,0,0,.363,1.018h-1.5A3.045,3.045,0,0,1,270.362,353.144Zm-0.12-3.209a10.533,10.533,0,0,1-2.347.543,5.426,5.426,0,0,0-1.253.287,1.248,1.248,0,0,0-.566.467,1.269,1.269,0,0,0,.235,1.64,1.872,1.872,0,0,0,1.273.383,2.96,2.96,0,0,0,1.477-.363,2.239,2.239,0,0,0,.95-0.994,3.473,3.473,0,0,0,.231-1.437v-0.527Z" transform="translate(-11.849 -9.796)"/><path class="cls-2" d="M273.906,354.19v-8.477H275.2V347a3.506,3.506,0,0,1,.914-1.189,1.6,1.6,0,0,1,.922-0.287,2.8,2.8,0,0,1,1.477.463l-0.495,1.333a2.058,2.058,0,0,0-1.054-.312,1.371,1.371,0,0,0-.846.283,1.536,1.536,0,0,0-.535.787,5.593,5.593,0,0,0-.24,1.676v4.438h-1.437Z" transform="translate(-11.849 -9.796)"/><path class="cls-2" d="M289.565,349.6v-1.373l4.957-.008v4.342a8.752,8.752,0,0,1-2.355,1.369,6.988,6.988,0,0,1-2.49.459,6.646,6.646,0,0,1-3.133-.738,4.882,4.882,0,0,1-2.127-2.135,6.722,6.722,0,0,1-.718-3.121,7.237,7.237,0,0,1,.714-3.188,4.748,4.748,0,0,1,2.055-2.2,6.441,6.441,0,0,1,3.089-.719,6.124,6.124,0,0,1,2.295.411,3.809,3.809,0,0,1,1.608,1.146,5.084,5.084,0,0,1,.886,1.916l-1.4.383a4.312,4.312,0,0,0-.654-1.4,2.685,2.685,0,0,0-1.118-.818,4.1,4.1,0,0,0-1.612-.307,4.749,4.749,0,0,0-1.835.323,3.424,3.424,0,0,0-1.249.85,4.05,4.05,0,0,0-.739,1.157,6.127,6.127,0,0,0-.447,2.354,5.718,5.718,0,0,0,.539,2.618,3.45,3.45,0,0,0,1.569,1.564,4.856,4.856,0,0,0,2.187.511,5.191,5.191,0,0,0,1.963-.387,5.061,5.061,0,0,0,1.453-.826V349.6h-3.44Z" transform="translate(-11.849 -9.796)"/><path class="cls-2" d="M296.087,349.952a4.368,4.368,0,0,1,1.309-3.488,3.944,3.944,0,0,1,2.666-.942,3.8,3.8,0,0,1,2.857,1.145,4.358,4.358,0,0,1,1.109,3.165,5.61,5.61,0,0,1-.491,2.574,3.476,3.476,0,0,1-1.429,1.457,4.162,4.162,0,0,1-2.047.519,3.811,3.811,0,0,1-2.877-1.141A4.56,4.56,0,0,1,296.087,349.952Zm1.477,0a3.608,3.608,0,0,0,.71,2.438,2.365,2.365,0,0,0,3.567,0,3.7,3.7,0,0,0,.71-2.482,3.5,3.5,0,0,0-.714-2.383,2.368,2.368,0,0,0-3.563,0A3.592,3.592,0,0,0,297.563,349.952Z" transform="translate(-11.849 -9.796)"/><path class="cls-2" d="M308.067,354.19l-3.225-8.477h1.517l1.82,5.076q0.3,0.823.542,1.708,0.192-.671.535-1.612l1.883-5.172h1.477l-3.209,8.477h-1.341Z" transform="translate(-11.849 -9.796)"/><path class="cls-2" d="M313.8,344.037v-1.668h1.541v1.317a3.52,3.52,0,0,1-.248,1.541,2.179,2.179,0,0,1-1.069.974l-0.352-.566a1.248,1.248,0,0,0,.643-0.555,2.324,2.324,0,0,0,.236-1.042H313.8Z" transform="translate(-11.849 -9.796)"/><path class="cls-2" d="M320.655,352.9l0.208,1.269a5.341,5.341,0,0,1-1.085.128,2.458,2.458,0,0,1-1.213-.248,1.385,1.385,0,0,1-.606-0.65,5.138,5.138,0,0,1-.176-1.7v-4.876h-1.054v-1.118h1.054v-2.1l1.429-.862v2.961h1.445v1.118H319.21v4.957a2.493,2.493,0,0,0,.076.79,0.6,0.6,0,0,0,.247.279,0.955,0.955,0,0,0,.491.1A4.622,4.622,0,0,0,320.655,352.9Z" transform="translate(-11.849 -9.796)"/><path class="cls-2" d="M320.982,354.39l3.393-12.1h1.148l-3.385,12.1h-1.157Z" transform="translate(-11.849 -9.796)"/><path class="cls-2" d="M335.134,350.087l1.548,0.391a5.206,5.206,0,0,1-1.752,2.909,4.825,4.825,0,0,1-3.093,1,5.558,5.558,0,0,1-3.077-.771,4.805,4.805,0,0,1-1.8-2.231,7.963,7.963,0,0,1-.618-3.137,6.892,6.892,0,0,1,.7-3.188A4.785,4.785,0,0,1,329.023,343a5.809,5.809,0,0,1,2.838-.707,4.8,4.8,0,0,1,2.953.894,4.648,4.648,0,0,1,1.668,2.514l-1.524.359a3.615,3.615,0,0,0-1.182-1.86,3.148,3.148,0,0,0-1.947-.583,3.781,3.781,0,0,0-2.255.646A3.415,3.415,0,0,0,328.3,346a7.009,7.009,0,0,0-.367,2.247,7.138,7.138,0,0,0,.436,2.606,3.238,3.238,0,0,0,1.353,1.664,3.8,3.8,0,0,0,1.987.551,3.332,3.332,0,0,0,2.2-.75A3.84,3.84,0,0,0,335.134,350.087Z" transform="translate(-11.849 -9.796)"/><path class="cls-2" d="M338.39,354.19v-8.477h1.293V347a3.506,3.506,0,0,1,.914-1.189,1.6,1.6,0,0,1,.922-0.287,2.8,2.8,0,0,1,1.477.463l-0.5,1.333a2.054,2.054,0,0,0-1.054-.312,1.37,1.37,0,0,0-.846.283,1.537,1.537,0,0,0-.535.787,5.609,5.609,0,0,0-.239,1.676v4.438H338.39Z" transform="translate(-11.849 -9.796)"/><path class="cls-2" d="M349.651,351.46l1.485,0.184a3.621,3.621,0,0,1-1.3,2.02,4.407,4.407,0,0,1-5.375-.427,4.475,4.475,0,0,1-1.09-3.213,4.684,4.684,0,0,1,1.1-3.32,3.728,3.728,0,0,1,2.857-1.181,3.622,3.622,0,0,1,2.777,1.157,4.6,4.6,0,0,1,1.078,3.256c0,0.085,0,.213-0.009.383h-6.321a3.26,3.26,0,0,0,.79,2.139,2.353,2.353,0,0,0,1.772.742,2.2,2.2,0,0,0,1.349-.415A2.753,2.753,0,0,0,349.651,351.46Zm-4.717-2.322h4.733a2.877,2.877,0,0,0-.543-1.6,2.2,2.2,0,0,0-1.78-.83,2.283,2.283,0,0,0-1.664.663A2.623,2.623,0,0,0,344.935,349.138Z" transform="translate(-11.849 -9.796)"/><path class="cls-2" d="M358.439,354.19v-1.069a2.638,2.638,0,0,1-2.371,1.261,3.321,3.321,0,0,1-1.863-.559,3.679,3.679,0,0,1-1.317-1.561,5.4,5.4,0,0,1-.467-2.3,6.026,6.026,0,0,1,.423-2.3,3.336,3.336,0,0,1,1.27-1.584,3.391,3.391,0,0,1,1.892-.551,2.826,2.826,0,0,1,1.365.323,2.858,2.858,0,0,1,.974.842v-4.2h1.429v11.7h-1.333Zm-4.542-4.23a3.68,3.68,0,0,0,.687,2.435,2.07,2.07,0,0,0,1.62.806,2.034,2.034,0,0,0,1.6-.77,3.549,3.549,0,0,0,.658-2.351,3.99,3.99,0,0,0-.67-2.554,2.063,2.063,0,0,0-1.652-.814,1.991,1.991,0,0,0-1.6.782A3.859,3.859,0,0,0,353.9,349.959Z" transform="translate(-11.849 -9.796)"/><path class="cls-2" d="M365.167,352.9l0.208,1.269a5.346,5.346,0,0,1-1.086.128,2.454,2.454,0,0,1-1.213-.248,1.388,1.388,0,0,1-.606-0.65,5.138,5.138,0,0,1-.176-1.7v-4.876H361.24v-1.118h1.054v-2.1l1.429-.862v2.961h1.444v1.118h-1.444v4.957a2.493,2.493,0,0,0,.076.79,0.592,0.592,0,0,0,.247.279,0.955,0.955,0,0,0,.491.1A4.622,4.622,0,0,0,365.167,352.9Z" transform="translate(-11.849 -9.796)"/><path class="cls-2" d="M367.515,357.63h-1.03a14.4,14.4,0,0,0,2.387-7.67,13.126,13.126,0,0,0-.343-2.977,12.448,12.448,0,0,0-.759-2.3,26.8,26.8,0,0,0-1.285-2.395h1.03a15.305,15.305,0,0,1,2.219,4.023,11,11,0,0,1-.212,7.806A14.633,14.633,0,0,1,367.515,357.63Z" transform="translate(-11.849 -9.796)"/><path class="cls-2" d="M380.891,334.574v-11.7h2.331l2.77,8.285q0.384,1.157.559,1.732,0.2-.639.623-1.876l2.8-8.141h2.083v11.7h-1.493v-9.793l-3.4,9.793h-1.4l-3.384-9.961v9.961h-1.493Z" transform="translate(-11.849 -9.796)"/><path class="cls-2" d="M393.838,330.336a4.37,4.37,0,0,1,1.309-3.488,3.946,3.946,0,0,1,2.666-.942,3.8,3.8,0,0,1,2.857,1.145,4.36,4.36,0,0,1,1.109,3.165,5.611,5.611,0,0,1-.49,2.574,3.481,3.481,0,0,1-1.429,1.457,4.166,4.166,0,0,1-2.048.519,3.809,3.809,0,0,1-2.877-1.141A4.556,4.556,0,0,1,393.838,330.336Zm1.477,0a3.61,3.61,0,0,0,.71,2.438,2.366,2.366,0,0,0,3.568,0,3.7,3.7,0,0,0,.71-2.482,3.507,3.507,0,0,0-.714-2.383,2.369,2.369,0,0,0-3.564,0A3.6,3.6,0,0,0,395.314,330.336Z" transform="translate(-11.849 -9.796)"/><path class="cls-2" d="M403.463,334.574V326.1h1.293V327.3a3.048,3.048,0,0,1,2.7-1.4,3.542,3.542,0,0,1,1.409.275,2.218,2.218,0,0,1,.961.722,2.769,2.769,0,0,1,.447,1.062,8.169,8.169,0,0,1,.08,1.4v5.212h-1.437v-5.156a3.854,3.854,0,0,0-.168-1.313,1.376,1.376,0,0,0-.595-0.694,1.89,1.89,0,0,0-1-.259,2.329,2.329,0,0,0-1.584.583,2.875,2.875,0,0,0-.666,2.211v4.629h-1.437Z" transform="translate(-11.849 -9.796)"/><path class="cls-2" d="M418.356,331.844l1.485,0.184a3.621,3.621,0,0,1-1.3,2.02,4.407,4.407,0,0,1-5.375-.427,4.475,4.475,0,0,1-1.09-3.213,4.684,4.684,0,0,1,1.1-3.32,3.728,3.728,0,0,1,2.857-1.181,3.622,3.622,0,0,1,2.777,1.157,4.6,4.6,0,0,1,1.078,3.256c0,0.085,0,.213-0.009.383H413.56a3.26,3.26,0,0,0,.79,2.139,2.353,2.353,0,0,0,1.772.742,2.2,2.2,0,0,0,1.349-.415A2.753,2.753,0,0,0,418.356,331.844Zm-4.717-2.322h4.733a2.877,2.877,0,0,0-.543-1.6,2.2,2.2,0,0,0-1.78-.83,2.283,2.283,0,0,0-1.664.663A2.623,2.623,0,0,0,413.64,329.522Z" transform="translate(-11.849 -9.796)"/><path class="cls-2" d="M421.581,337.839l-0.159-1.349a3.207,3.207,0,0,0,.821.128,1.578,1.578,0,0,0,.767-0.16,1.3,1.3,0,0,0,.471-0.447,6.975,6.975,0,0,0,.439-1.069c0.026-.08.069-0.2,0.128-0.351l-3.217-8.493h1.548l1.765,4.909q0.343,0.934.614,1.963a19.23,19.23,0,0,1,.591-1.932l1.812-4.94H428.6l-3.225,8.62a16.944,16.944,0,0,1-.806,1.924,2.838,2.838,0,0,1-.878,1.042,2.075,2.075,0,0,1-1.182.331A2.889,2.889,0,0,1,421.581,337.839Z" transform="translate(-11.849 -9.796)"/><path class="cls-2" d="M434.5,334.574v-11.7h2.331l2.77,8.285q0.384,1.157.559,1.732,0.2-.639.623-1.876l2.8-8.141h2.083v11.7h-1.493v-9.793l-3.4,9.793h-1.4l-3.384-9.961v9.961H434.5Z" transform="translate(-11.849 -9.796)"/><path class="cls-2" d="M453.508,333.529a5.335,5.335,0,0,1-1.536.958,4.434,4.434,0,0,1-1.584.279,3.083,3.083,0,0,1-2.147-.682,2.254,2.254,0,0,1-.75-1.744,2.311,2.311,0,0,1,.283-1.137,2.344,2.344,0,0,1,.742-0.826,3.484,3.484,0,0,1,1.034-.471,10.315,10.315,0,0,1,1.276-.215,13.089,13.089,0,0,0,2.563-.5c0-.2.008-0.322,0.008-0.375a1.586,1.586,0,0,0-.407-1.237,2.4,2.4,0,0,0-1.636-.487,2.539,2.539,0,0,0-1.5.355,2.168,2.168,0,0,0-.714,1.257l-1.405-.191a3.479,3.479,0,0,1,.631-1.457,2.757,2.757,0,0,1,1.269-.854,5.661,5.661,0,0,1,1.924-.3,5.086,5.086,0,0,1,1.764.255,2.32,2.32,0,0,1,1,.643,2.256,2.256,0,0,1,.447.978,8.113,8.113,0,0,1,.071,1.325v1.916a20.471,20.471,0,0,0,.092,2.534,3.211,3.211,0,0,0,.363,1.018h-1.5A3.045,3.045,0,0,1,453.508,333.529Zm-0.119-3.209a10.533,10.533,0,0,1-2.347.543,5.407,5.407,0,0,0-1.253.287,1.253,1.253,0,0,0-.567.467,1.27,1.27,0,0,0,.236,1.64,1.869,1.869,0,0,0,1.272.383,2.96,2.96,0,0,0,1.477-.363,2.234,2.234,0,0,0,.95-0.994,3.473,3.473,0,0,0,.231-1.437V330.32Z" transform="translate(-11.849 -9.796)"/><path class="cls-2" d="M457.052,334.574V326.1h1.293v1.285a3.506,3.506,0,0,1,.914-1.189,1.6,1.6,0,0,1,.922-0.287,2.8,2.8,0,0,1,1.477.463l-0.5,1.333a2.054,2.054,0,0,0-1.054-.312,1.37,1.37,0,0,0-.846.283,1.537,1.537,0,0,0-.535.787,5.609,5.609,0,0,0-.239,1.676v4.438h-1.437Z" transform="translate(-11.849 -9.796)"/><path class="cls-2" d="M462.52,334.574v-11.7h1.437v6.673l3.4-3.448h1.859l-3.24,3.145,3.567,5.332h-1.771l-2.8-4.334-1.014.974v3.36H462.52Z" transform="translate(-11.849 -9.796)"/><path class="cls-2" d="M476.486,331.844l1.485,0.184a3.621,3.621,0,0,1-1.3,2.02,4.407,4.407,0,0,1-5.375-.427,4.475,4.475,0,0,1-1.09-3.213,4.684,4.684,0,0,1,1.1-3.32,3.728,3.728,0,0,1,2.857-1.181,3.622,3.622,0,0,1,2.777,1.157,4.6,4.6,0,0,1,1.078,3.256c0,0.085,0,.213-0.009.383h-6.321a3.26,3.26,0,0,0,.79,2.139,2.353,2.353,0,0,0,1.772.742,2.2,2.2,0,0,0,1.349-.415A2.753,2.753,0,0,0,476.486,331.844Zm-4.717-2.322H476.5a2.877,2.877,0,0,0-.543-1.6,2.2,2.2,0,0,0-1.78-.83,2.283,2.283,0,0,0-1.664.663A2.623,2.623,0,0,0,471.77,329.522Z" transform="translate(-11.849 -9.796)"/><path class="cls-2" d="M482.911,333.289l0.208,1.269a5.346,5.346,0,0,1-1.086.128,2.454,2.454,0,0,1-1.213-.248,1.388,1.388,0,0,1-.606-0.65,5.138,5.138,0,0,1-.176-1.7v-4.876h-1.054V326.1h1.054V324l1.429-.862V326.1h1.444v1.118h-1.444v4.957a2.493,2.493,0,0,0,.076.79,0.592,0.592,0,0,0,.247.279,0.955,0.955,0,0,0,.491.1A4.622,4.622,0,0,0,482.911,333.289Z" transform="translate(-11.849 -9.796)"/><path class="cls-2" d="M483.742,332.044l1.421-.224a1.982,1.982,0,0,0,.666,1.309,2.323,2.323,0,0,0,1.528.455,2.246,2.246,0,0,0,1.469-.4,1.207,1.207,0,0,0,.479-0.946,0.873,0.873,0,0,0-.424-0.766,6.217,6.217,0,0,0-1.468-.487,13.405,13.405,0,0,1-2.191-.69,2.092,2.092,0,0,1-1.241-1.943,2.186,2.186,0,0,1,.26-1.05,2.328,2.328,0,0,1,.706-0.8,2.982,2.982,0,0,1,.914-0.419,4.353,4.353,0,0,1,1.241-.171,4.91,4.91,0,0,1,1.752.287,2.381,2.381,0,0,1,1.113.778,3.049,3.049,0,0,1,.5,1.313l-1.405.191a1.532,1.532,0,0,0-.555-1.021,2.029,2.029,0,0,0-1.3-.367,2.349,2.349,0,0,0-1.413.327,0.955,0.955,0,0,0-.423.766,0.792,0.792,0,0,0,.176.5,1.269,1.269,0,0,0,.551.383q0.215,0.08,1.27.367a17.777,17.777,0,0,1,2.127.667,2.156,2.156,0,0,1,.945.754,2.106,2.106,0,0,1,.344,1.229,2.413,2.413,0,0,1-.419,1.353,2.708,2.708,0,0,1-1.21.981,4.4,4.4,0,0,1-1.787.347,3.984,3.984,0,0,1-2.519-.686A3.192,3.192,0,0,1,483.742,332.044Z" transform="translate(-11.849 -9.796)"/><path class="cls-2" d="M383.657,357.63a14.355,14.355,0,0,1-2.012-3.512,11.016,11.016,0,0,1-.207-7.806,15.305,15.305,0,0,1,2.219-4.023h1.029q-0.965,1.66-1.276,2.371a12.924,12.924,0,0,0-.767,2.3,13.369,13.369,0,0,0-.343,3,14.4,14.4,0,0,0,2.386,7.67h-1.029Z" transform="translate(-11.849 -9.796)"/><path class="cls-2" d="M386.171,351.484l1.381-.128a2.4,2.4,0,0,0,.671,1.413,1.839,1.839,0,0,0,1.269.439,2.193,2.193,0,0,0,1.162-.3,2.482,2.482,0,0,0,.817-0.81,4.755,4.755,0,0,0,.535-1.369,7.221,7.221,0,0,0,.216-1.756c0-.063,0-0.16-0.008-0.287a3.3,3.3,0,0,1-1.178,1.113,3.2,3.2,0,0,1-1.616.427,3.266,3.266,0,0,1-2.458-1.054,3.854,3.854,0,0,1-1.006-2.778,3.946,3.946,0,0,1,1.05-2.865,3.506,3.506,0,0,1,2.63-1.085,3.752,3.752,0,0,1,2.087.615,3.836,3.836,0,0,1,1.437,1.752,8.629,8.629,0,0,1,.491,3.292,10.666,10.666,0,0,1-.487,3.572,4.188,4.188,0,0,1-1.448,2.023,3.751,3.751,0,0,1-2.255.694A3.091,3.091,0,0,1,386.171,351.484Zm5.883-5.165a2.815,2.815,0,0,0-.658-1.963,2.067,2.067,0,0,0-1.585-.726,2.188,2.188,0,0,0-1.668.782,2.9,2.9,0,0,0-.71,2.027,2.5,2.5,0,0,0,.674,1.815,2.224,2.224,0,0,0,1.665.7,2.129,2.129,0,0,0,1.64-.7A2.748,2.748,0,0,0,392.054,346.32Z" transform="translate(-11.849 -9.796)"/><path class="cls-2" d="M400.458,354.19h-1.437v-9.155a7.442,7.442,0,0,1-1.361.99,9.67,9.67,0,0,1-1.512.742v-1.389a8.657,8.657,0,0,0,2.106-1.373,5.4,5.4,0,0,0,1.277-1.564h0.926V354.19Z" transform="translate(-11.849 -9.796)"/><path class="cls-2" d="M409.262,354.19v-11.7h4.031a9.768,9.768,0,0,1,2.083.167,3.962,3.962,0,0,1,1.716.838,4.76,4.76,0,0,1,1.385,2,7.834,7.834,0,0,1,.459,2.782,8.193,8.193,0,0,1-.311,2.363,5.729,5.729,0,0,1-.8,1.7,4.237,4.237,0,0,1-1.065,1.062,4.335,4.335,0,0,1-1.4.586,7.96,7.96,0,0,1-1.88.2h-4.223Zm1.549-1.381h2.5a6.074,6.074,0,0,0,1.816-.215,2.6,2.6,0,0,0,1.049-.607,3.692,3.692,0,0,0,.858-1.48,7.231,7.231,0,0,0,.308-2.255,5.449,5.449,0,0,0-.6-2.821,3.039,3.039,0,0,0-1.465-1.321,6.056,6.056,0,0,0-2-.239h-2.458v8.939Z" transform="translate(-11.849 -9.796)"/><path class="cls-2" d="M426.414,353.144a5.335,5.335,0,0,1-1.536.958,4.434,4.434,0,0,1-1.584.279,3.083,3.083,0,0,1-2.147-.682,2.254,2.254,0,0,1-.75-1.744,2.311,2.311,0,0,1,.283-1.137,2.344,2.344,0,0,1,.742-0.826,3.484,3.484,0,0,1,1.034-.471,10.315,10.315,0,0,1,1.276-.215,13.089,13.089,0,0,0,2.563-.5c0-.2.008-0.322,0.008-0.375a1.586,1.586,0,0,0-.407-1.237,2.4,2.4,0,0,0-1.636-.487,2.539,2.539,0,0,0-1.5.355,2.168,2.168,0,0,0-.714,1.257l-1.405-.191a3.479,3.479,0,0,1,.631-1.457,2.757,2.757,0,0,1,1.269-.854,5.661,5.661,0,0,1,1.924-.3,5.086,5.086,0,0,1,1.764.255,2.32,2.32,0,0,1,1,.643,2.256,2.256,0,0,1,.447.978,8.113,8.113,0,0,1,.071,1.325v1.916a20.471,20.471,0,0,0,.092,2.534,3.211,3.211,0,0,0,.363,1.018h-1.5A3.045,3.045,0,0,1,426.414,353.144Zm-0.119-3.209a10.533,10.533,0,0,1-2.347.543,5.407,5.407,0,0,0-1.253.287,1.253,1.253,0,0,0-.567.467,1.27,1.27,0,0,0,.236,1.64,1.869,1.869,0,0,0,1.272.383,2.96,2.96,0,0,0,1.477-.363,2.234,2.234,0,0,0,.95-0.994,3.473,3.473,0,0,0,.231-1.437v-0.527Z" transform="translate(-11.849 -9.796)"/><path class="cls-2" d="M429.91,357.455l-0.159-1.349a3.207,3.207,0,0,0,.821.128,1.578,1.578,0,0,0,.767-0.16,1.3,1.3,0,0,0,.471-0.447,6.975,6.975,0,0,0,.439-1.069c0.026-.08.069-0.2,0.128-0.351l-3.217-8.493h1.548l1.765,4.909q0.343,0.934.614,1.963a19.23,19.23,0,0,1,.591-1.932l1.812-4.94h1.437l-3.225,8.62a16.944,16.944,0,0,1-.806,1.924,2.838,2.838,0,0,1-.878,1.042,2.075,2.075,0,0,1-1.182.331A2.889,2.889,0,0,1,429.91,357.455Z" transform="translate(-11.849 -9.796)"/><path class="cls-2" d="M445.555,354.19V343.87H441.7v-1.381h9.275v1.381H447.1v10.32h-1.549Z" transform="translate(-11.849 -9.796)"/><path class="cls-2" d="M450.918,350.678v-1.445h4.414v1.445h-4.414Z" transform="translate(-11.849 -9.796)"/><path class="cls-2" d="M457.04,354.19v-11.7h4.39a5.441,5.441,0,0,1,2.151.355,2.771,2.771,0,0,1,1.27,1.094,2.883,2.883,0,0,1,.458,1.544,2.651,2.651,0,0,1-.406,1.413,2.909,2.909,0,0,1-1.229,1.07,3.053,3.053,0,0,1,1.632,1.062,2.841,2.841,0,0,1,.571,1.772,3.418,3.418,0,0,1-.348,1.528,2.962,2.962,0,0,1-.857,1.089,3.584,3.584,0,0,1-1.281.579,7.793,7.793,0,0,1-1.888.2H457.04Zm1.549-6.785h2.53a5.665,5.665,0,0,0,1.477-.135,1.64,1.64,0,0,0,.89-0.583,1.68,1.68,0,0,0,.3-1.021,1.881,1.881,0,0,0-.279-1.026,1.414,1.414,0,0,0-.8-0.606,6.677,6.677,0,0,0-1.78-.164h-2.338v3.536Zm0,5.4H461.5a6.734,6.734,0,0,0,1.054-.056,2.525,2.525,0,0,0,.894-0.319,1.7,1.7,0,0,0,.591-0.65,2.036,2.036,0,0,0,.231-0.986,1.944,1.944,0,0,0-.335-1.138,1.772,1.772,0,0,0-.93-0.678,5.77,5.77,0,0,0-1.713-.2h-2.705v4.023Z" transform="translate(-11.849 -9.796)"/><path class="cls-2" d="M467.832,344.141v-1.652h1.437v1.652h-1.437Zm0,10.049v-8.477h1.437v8.477h-1.437Z" transform="translate(-11.849 -9.796)"/><path class="cls-2" d="M471.424,354.19v-11.7h1.437v11.7h-1.437Z" transform="translate(-11.849 -9.796)"/><path class="cls-2" d="M475.056,354.19v-11.7h1.437v11.7h-1.437Z" transform="translate(-11.849 -9.796)"/><path class="cls-2" d="M478.145,351.66l1.421-.224a1.982,1.982,0,0,0,.666,1.309,2.323,2.323,0,0,0,1.528.455,2.246,2.246,0,0,0,1.469-.4,1.207,1.207,0,0,0,.479-0.946,0.873,0.873,0,0,0-.424-0.766,6.217,6.217,0,0,0-1.468-.487,13.405,13.405,0,0,1-2.191-.69,2.092,2.092,0,0,1-1.241-1.943,2.186,2.186,0,0,1,.26-1.05,2.328,2.328,0,0,1,.706-0.8,2.982,2.982,0,0,1,.914-0.419,4.353,4.353,0,0,1,1.241-.171,4.91,4.91,0,0,1,1.752.287,2.381,2.381,0,0,1,1.113.778,3.049,3.049,0,0,1,.5,1.313l-1.405.191a1.532,1.532,0,0,0-.555-1.021,2.029,2.029,0,0,0-1.3-.367,2.349,2.349,0,0,0-1.413.327,0.955,0.955,0,0,0-.423.766,0.792,0.792,0,0,0,.176.5,1.269,1.269,0,0,0,.551.383q0.215,0.08,1.27.367a17.777,17.777,0,0,1,2.127.667,2.156,2.156,0,0,1,.945.754,2.106,2.106,0,0,1,.344,1.229,2.413,2.413,0,0,1-.419,1.353,2.708,2.708,0,0,1-1.21.981,4.4,4.4,0,0,1-1.787.347,3.984,3.984,0,0,1-2.519-.686A3.192,3.192,0,0,1,478.145,351.66Z" transform="translate(-11.849 -9.796)"/><path class="cls-2" d="M487.834,357.63H486.8a14.4,14.4,0,0,0,2.387-7.67,13.126,13.126,0,0,0-.343-2.977,12.448,12.448,0,0,0-.759-2.3,26.8,26.8,0,0,0-1.285-2.395h1.03a15.305,15.305,0,0,1,2.219,4.023,11,11,0,0,1-.212,7.806A14.633,14.633,0,0,1,487.834,357.63Z" transform="translate(-11.849 -9.796)"/><path class="cls-2" d="M545.434,334.574v-11.7h1.549v11.7h-1.549Z" transform="translate(-11.849 -9.796)"/><path class="cls-2" d="M549.528,334.574V326.1h1.293V327.3a3.048,3.048,0,0,1,2.7-1.4,3.542,3.542,0,0,1,1.409.275,2.218,2.218,0,0,1,.961.722,2.769,2.769,0,0,1,.447,1.062,8.169,8.169,0,0,1,.08,1.4v5.212H554.98v-5.156a3.854,3.854,0,0,0-.168-1.313,1.376,1.376,0,0,0-.595-0.694,1.89,1.89,0,0,0-1-.259,2.329,2.329,0,0,0-1.584.583,2.875,2.875,0,0,0-.666,2.211v4.629h-1.437Z" transform="translate(-11.849 -9.796)"/><path class="cls-2" d="M558.963,334.574v-7.359h-1.27V326.1h1.27v-0.9a3.966,3.966,0,0,1,.151-1.269,1.839,1.839,0,0,1,.73-0.906,2.633,2.633,0,0,1,1.465-.347,7,7,0,0,1,1.341.144l-0.216,1.253a4.818,4.818,0,0,0-.846-0.08,1.257,1.257,0,0,0-.926.279,1.51,1.51,0,0,0-.271,1.045V326.1h1.652v1.118h-1.652v7.359h-1.429Z" transform="translate(-11.849 -9.796)"/><path class="cls-2" d="M563.13,334.574v-11.7h1.437v11.7H563.13Z" transform="translate(-11.849 -9.796)"/><path class="cls-2" d="M572.324,333.529a5.335,5.335,0,0,1-1.536.958,4.434,4.434,0,0,1-1.584.279,3.083,3.083,0,0,1-2.147-.682,2.254,2.254,0,0,1-.75-1.744,2.311,2.311,0,0,1,.283-1.137,2.344,2.344,0,0,1,.742-0.826,3.484,3.484,0,0,1,1.034-.471,10.315,10.315,0,0,1,1.276-.215,13.089,13.089,0,0,0,2.563-.5c0-.2.008-0.322,0.008-0.375a1.586,1.586,0,0,0-.407-1.237,2.4,2.4,0,0,0-1.636-.487,2.539,2.539,0,0,0-1.5.355,2.168,2.168,0,0,0-.714,1.257l-1.405-.191a3.479,3.479,0,0,1,.631-1.457,2.757,2.757,0,0,1,1.269-.854,5.661,5.661,0,0,1,1.924-.3,5.086,5.086,0,0,1,1.764.255,2.32,2.32,0,0,1,1,.643,2.256,2.256,0,0,1,.447.978,8.113,8.113,0,0,1,.071,1.325v1.916a20.471,20.471,0,0,0,.092,2.534,3.211,3.211,0,0,0,.363,1.018h-1.5A3.045,3.045,0,0,1,572.324,333.529Zm-0.119-3.209a10.533,10.533,0,0,1-2.347.543,5.407,5.407,0,0,0-1.253.287,1.253,1.253,0,0,0-.567.467,1.27,1.27,0,0,0,.236,1.64,1.869,1.869,0,0,0,1.272.383,2.96,2.96,0,0,0,1.477-.363,2.234,2.234,0,0,0,.95-0.994,3.473,3.473,0,0,0,.231-1.437V330.32Z" transform="translate(-11.849 -9.796)"/><path class="cls-2" d="M579.021,333.289l0.208,1.269a5.346,5.346,0,0,1-1.086.128,2.454,2.454,0,0,1-1.213-.248,1.388,1.388,0,0,1-.606-0.65,5.138,5.138,0,0,1-.176-1.7v-4.876h-1.054V326.1h1.054V324l1.429-.862V326.1h1.444v1.118h-1.444v4.957a2.493,2.493,0,0,0,.076.79,0.592,0.592,0,0,0,.247.279,0.955,0.955,0,0,0,.491.1A4.622,4.622,0,0,0,579.021,333.289Z" transform="translate(-11.849 -9.796)"/><path class="cls-2" d="M580.435,324.525v-1.652h1.437v1.652h-1.437Zm0,10.049V326.1h1.437v8.477h-1.437Z" transform="translate(-11.849 -9.796)"/><path class="cls-2" d="M583.523,330.336a4.37,4.37,0,0,1,1.309-3.488,3.946,3.946,0,0,1,2.666-.942,3.8,3.8,0,0,1,2.857,1.145,4.36,4.36,0,0,1,1.109,3.165,5.611,5.611,0,0,1-.49,2.574,3.481,3.481,0,0,1-1.429,1.457,4.166,4.166,0,0,1-2.048.519,3.809,3.809,0,0,1-2.877-1.141A4.556,4.556,0,0,1,583.523,330.336Zm1.477,0a3.61,3.61,0,0,0,.71,2.438,2.366,2.366,0,0,0,3.568,0,3.7,3.7,0,0,0,.71-2.482,3.507,3.507,0,0,0-.714-2.383,2.369,2.369,0,0,0-3.564,0A3.6,3.6,0,0,0,585,330.336Z" transform="translate(-11.849 -9.796)"/><path class="cls-2" d="M593.148,334.574V326.1h1.293V327.3a3.048,3.048,0,0,1,2.7-1.4,3.542,3.542,0,0,1,1.409.275,2.218,2.218,0,0,1,.961.722,2.769,2.769,0,0,1,.447,1.062,8.169,8.169,0,0,1,.08,1.4v5.212H598.6v-5.156a3.854,3.854,0,0,0-.168-1.313,1.376,1.376,0,0,0-.595-0.694,1.89,1.89,0,0,0-1-.259,2.329,2.329,0,0,0-1.584.583,2.875,2.875,0,0,0-.666,2.211v4.629h-1.437Z" transform="translate(-11.849 -9.796)"/><path class="cls-2" d="M557.29,357.63a14.355,14.355,0,0,1-2.012-3.512,11.016,11.016,0,0,1-.207-7.806,15.305,15.305,0,0,1,2.219-4.023h1.029q-0.965,1.66-1.276,2.371a12.924,12.924,0,0,0-.767,2.3,13.369,13.369,0,0,0-.343,3,14.4,14.4,0,0,0,2.386,7.67H557.29Z" transform="translate(-11.849 -9.796)"/><path class="cls-2" d="M568.521,350.087l1.548,0.391a5.206,5.206,0,0,1-1.752,2.909,4.825,4.825,0,0,1-3.093,1,5.558,5.558,0,0,1-3.077-.771,4.805,4.805,0,0,1-1.8-2.231,7.963,7.963,0,0,1-.618-3.137,6.892,6.892,0,0,1,.7-3.188A4.785,4.785,0,0,1,562.41,343a5.809,5.809,0,0,1,2.838-.707,4.8,4.8,0,0,1,2.953.894,4.648,4.648,0,0,1,1.668,2.514l-1.524.359a3.615,3.615,0,0,0-1.182-1.86,3.148,3.148,0,0,0-1.947-.583,3.781,3.781,0,0,0-2.255.646A3.415,3.415,0,0,0,561.688,346a7.009,7.009,0,0,0-.367,2.247,7.138,7.138,0,0,0,.436,2.606,3.238,3.238,0,0,0,1.353,1.664,3.8,3.8,0,0,0,1.987.551,3.332,3.332,0,0,0,2.2-.75A3.84,3.84,0,0,0,568.521,350.087Z" transform="translate(-11.849 -9.796)"/><path class="cls-2" d="M571.976,354.19v-11.7h4.414a10.637,10.637,0,0,1,1.78.112,3.523,3.523,0,0,1,1.444.547,2.87,2.87,0,0,1,.938,1.129,3.812,3.812,0,0,1-.595,4.123,4.558,4.558,0,0,1-3.433,1.033h-3v4.757h-1.549Zm1.549-6.138h3.025a3.208,3.208,0,0,0,2.131-.559,1.992,1.992,0,0,0,.631-1.572,2.118,2.118,0,0,0-.371-1.257,1.741,1.741,0,0,0-.979-0.69,6.64,6.64,0,0,0-1.444-.1h-2.993v4.183Z" transform="translate(-11.849 -9.796)"/><path class="cls-2" d="M583.143,354.19v-11.7h1.549v11.7h-1.549Z" transform="translate(-11.849 -9.796)"/><path class="cls-2" d="M588.18,357.63h-1.03a14.4,14.4,0,0,0,2.387-7.67,13.126,13.126,0,0,0-.343-2.977,12.448,12.448,0,0,0-.759-2.3,26.8,26.8,0,0,0-1.285-2.395h1.03a15.305,15.305,0,0,1,2.219,4.023,11,11,0,0,1-.212,7.806A14.633,14.633,0,0,1,588.18,357.63Z" transform="translate(-11.849 -9.796)"/><rect class="cls-3" x="104.084" y="168.557" width="73.577" height="135.994"/><rect class="cls-3" x="248.268" y="195.323" width="73.577" height="109.228"/><rect class="cls-3" x="386.908" y="271.468" width="73.577" height="33.083"/><rect class="cls-4" x="523.898" y="242.92" width="73.577" height="61.631"/><path class="cls-2" d="M29.359,129.377H27.922v-9.155a7.437,7.437,0,0,1-1.361.99,9.676,9.676,0,0,1-1.513.742v-1.389a8.663,8.663,0,0,0,2.107-1.373,5.4,5.4,0,0,0,1.277-1.564h0.926v11.749Z" transform="translate(-11.849 -9.796)"/><path class="cls-2" d="M37.237,129.377H35.8v-9.155a7.437,7.437,0,0,1-1.361.99,9.676,9.676,0,0,1-1.513.742v-1.389a8.663,8.663,0,0,0,2.107-1.373,5.4,5.4,0,0,0,1.277-1.564h0.926v11.749Z" transform="translate(-11.849 -9.796)"/><path class="cls-2" d="M41.188,120.485a3.557,3.557,0,0,1,.631-2.131,2.11,2.11,0,0,1,1.828-.878,2.371,2.371,0,0,1,1.824.786,4,4,0,0,1-.008,4.6,2.339,2.339,0,0,1-1.8.8,2.273,2.273,0,0,1-1.768-.79A3.488,3.488,0,0,1,41.188,120.485Zm2.5-2.02a1.082,1.082,0,0,0-.89.463,2.934,2.934,0,0,0-.355,1.7,2.638,2.638,0,0,0,.359,1.584,1.094,1.094,0,0,0,1.784,0,2.918,2.918,0,0,0,.355-1.692,2.656,2.656,0,0,0-.359-1.592A1.1,1.1,0,0,0,43.687,118.466Zm0.008,11.342,6.4-12.332h1.166l-6.377,12.332H43.694Zm5.061-3.177a3.552,3.552,0,0,1,.63-2.135,2.123,2.123,0,0,1,1.836-.874,2.371,2.371,0,0,1,1.824.786,4,4,0,0,1-.008,4.6,2.348,2.348,0,0,1-1.808.8,2.269,2.269,0,0,1-1.768-.794A3.492,3.492,0,0,1,48.755,126.631Zm2.506-2.02a1.086,1.086,0,0,0-.9.463,2.933,2.933,0,0,0-.355,1.7,2.636,2.636,0,0,0,.359,1.581,1.084,1.084,0,0,0,.886.463,1.1,1.1,0,0,0,.906-0.463,2.918,2.918,0,0,0,.355-1.692,2.652,2.652,0,0,0-.359-1.592A1.094,1.094,0,0,0,51.261,124.612Z" transform="translate(-11.849 -9.796)"/><path class="cls-2" d="M32.041,154.471l1.381-.128a2.394,2.394,0,0,0,.67,1.413,1.839,1.839,0,0,0,1.269.439,2.191,2.191,0,0,0,1.161-.3,2.481,2.481,0,0,0,.818-0.81,4.755,4.755,0,0,0,.535-1.369,7.22,7.22,0,0,0,.215-1.756c0-.063,0-0.16-0.008-0.287a3.289,3.289,0,0,1-1.177,1.113,3.2,3.2,0,0,1-1.616.427,3.267,3.267,0,0,1-2.458-1.054,3.856,3.856,0,0,1-1.006-2.778,3.948,3.948,0,0,1,1.05-2.865,3.506,3.506,0,0,1,2.63-1.085,3.754,3.754,0,0,1,2.087.615,3.839,3.839,0,0,1,1.437,1.752,8.629,8.629,0,0,1,.491,3.292,10.654,10.654,0,0,1-.487,3.572,4.182,4.182,0,0,1-1.449,2.023,3.749,3.749,0,0,1-2.254.694A3.091,3.091,0,0,1,32.041,154.471Zm5.882-5.165a2.813,2.813,0,0,0-.658-1.963,2.065,2.065,0,0,0-1.584-.726,2.188,2.188,0,0,0-1.668.782,2.9,2.9,0,0,0-.71,2.027,2.5,2.5,0,0,0,.674,1.815,2.221,2.221,0,0,0,1.664.7,2.129,2.129,0,0,0,1.64-.7A2.75,2.75,0,0,0,37.923,149.307Z" transform="translate(-11.849 -9.796)"/><path class="cls-2" d="M41.188,148.285a3.557,3.557,0,0,1,.631-2.131,2.11,2.11,0,0,1,1.828-.878,2.371,2.371,0,0,1,1.824.786,4,4,0,0,1-.008,4.6,2.339,2.339,0,0,1-1.8.8,2.273,2.273,0,0,1-1.768-.79A3.488,3.488,0,0,1,41.188,148.285Zm2.5-2.02a1.082,1.082,0,0,0-.89.463,2.934,2.934,0,0,0-.355,1.7,2.638,2.638,0,0,0,.359,1.584,1.094,1.094,0,0,0,1.784,0,2.918,2.918,0,0,0,.355-1.692,2.656,2.656,0,0,0-.359-1.592A1.1,1.1,0,0,0,43.687,146.266Zm0.008,11.342,6.4-12.332h1.166l-6.377,12.332H43.694Zm5.061-3.177a3.552,3.552,0,0,1,.63-2.135,2.123,2.123,0,0,1,1.836-.874,2.371,2.371,0,0,1,1.824.786,4,4,0,0,1-.008,4.6,2.348,2.348,0,0,1-1.808.8,2.269,2.269,0,0,1-1.768-.794A3.492,3.492,0,0,1,48.755,154.431Zm2.506-2.02a1.086,1.086,0,0,0-.9.463,2.933,2.933,0,0,0-.355,1.7,2.636,2.636,0,0,0,.359,1.581,1.084,1.084,0,0,0,.886.463,1.1,1.1,0,0,0,.906-0.463,2.918,2.918,0,0,0,.355-1.692,2.652,2.652,0,0,0-.359-1.592A1.094,1.094,0,0,0,51.261,152.412Z" transform="translate(-11.849 -9.796)"/><path class="cls-2" d="M31.825,209.292l1.509-.128a2.7,2.7,0,0,0,.778,1.656,2.111,2.111,0,0,0,1.473.555,2.292,2.292,0,0,0,1.756-.782,2.946,2.946,0,0,0,.718-2.075,2.664,2.664,0,0,0-.69-1.939,2.408,2.408,0,0,0-1.808-.71,2.509,2.509,0,0,0-1.253.315,2.437,2.437,0,0,0-.878.818l-1.349-.175,1.133-6.01h5.818v1.373H34.364l-0.631,3.145a3.811,3.811,0,0,1,2.211-.734,3.5,3.5,0,0,1,2.586,1.062,3.712,3.712,0,0,1,1.053,2.73,4.261,4.261,0,0,1-.926,2.746,3.708,3.708,0,0,1-3.073,1.421,3.785,3.785,0,0,1-2.606-.894A3.491,3.491,0,0,1,31.825,209.292Z" transform="translate(-11.849 -9.796)"/><path class="cls-2" d="M41.188,203.466a3.557,3.557,0,0,1,.631-2.131,2.11,2.11,0,0,1,1.828-.878,2.371,2.371,0,0,1,1.824.786,4,4,0,0,1-.008,4.6,2.339,2.339,0,0,1-1.8.8,2.273,2.273,0,0,1-1.768-.79A3.488,3.488,0,0,1,41.188,203.466Zm2.5-2.02a1.082,1.082,0,0,0-.89.463,2.934,2.934,0,0,0-.355,1.7,2.638,2.638,0,0,0,.359,1.584,1.094,1.094,0,0,0,1.784,0,2.918,2.918,0,0,0,.355-1.692,2.656,2.656,0,0,0-.359-1.592A1.1,1.1,0,0,0,43.687,201.446Zm0.008,11.342,6.4-12.332h1.166l-6.377,12.332H43.694Zm5.061-3.177a3.552,3.552,0,0,1,.63-2.135,2.123,2.123,0,0,1,1.836-.874,2.371,2.371,0,0,1,1.824.786,4,4,0,0,1-.008,4.6,2.348,2.348,0,0,1-1.808.8,2.269,2.269,0,0,1-1.768-.794A3.492,3.492,0,0,1,48.755,209.612Zm2.506-2.02a1.086,1.086,0,0,0-.9.463,2.933,2.933,0,0,0-.355,1.7,2.636,2.636,0,0,0,.359,1.581,1.084,1.084,0,0,0,.886.463,1.1,1.1,0,0,0,.906-0.463,2.918,2.918,0,0,0,.355-1.692,2.652,2.652,0,0,0-.359-1.592A1.094,1.094,0,0,0,51.261,207.592Z" transform="translate(-11.849 -9.796)"/><path class="cls-2" d="M31.833,237.356l1.437-.191a3.166,3.166,0,0,0,.842,1.76,2.078,2.078,0,0,0,1.449.539,2.322,2.322,0,0,0,1.712-.7,2.371,2.371,0,0,0,.7-1.74,2.2,2.2,0,0,0-.646-1.632,2.235,2.235,0,0,0-1.644-.642,4.123,4.123,0,0,0-1.014.16l0.16-1.261a2.152,2.152,0,0,0,.231.016,2.959,2.959,0,0,0,1.652-.479,1.64,1.64,0,0,0,.734-1.477,1.747,1.747,0,0,0-.535-1.309,1.9,1.9,0,0,0-1.381-.519,1.956,1.956,0,0,0-1.4.527,2.644,2.644,0,0,0-.719,1.581l-1.437-.255a3.7,3.7,0,0,1,1.2-2.239A3.462,3.462,0,0,1,35.5,228.7a3.825,3.825,0,0,1,1.764.411,2.974,2.974,0,0,1,1.233,1.121,2.883,2.883,0,0,1,.427,1.509,2.47,2.47,0,0,1-.407,1.381,2.781,2.781,0,0,1-1.205.99,2.717,2.717,0,0,1,1.612.994,3.027,3.027,0,0,1,.574,1.888,3.454,3.454,0,0,1-1.117,2.6,3.93,3.93,0,0,1-2.826,1.065,3.677,3.677,0,0,1-2.558-.918A3.549,3.549,0,0,1,31.833,237.356Z" transform="translate(-11.849 -9.796)"/><path class="cls-2" d="M41.188,231.554a3.557,3.557,0,0,1,.631-2.131,2.11,2.11,0,0,1,1.828-.878,2.371,2.371,0,0,1,1.824.786,4,4,0,0,1-.008,4.6,2.339,2.339,0,0,1-1.8.8,2.273,2.273,0,0,1-1.768-.79A3.488,3.488,0,0,1,41.188,231.554Zm2.5-2.02a1.082,1.082,0,0,0-.89.463,2.934,2.934,0,0,0-.355,1.7,2.638,2.638,0,0,0,.359,1.584,1.094,1.094,0,0,0,1.784,0,2.918,2.918,0,0,0,.355-1.692,2.656,2.656,0,0,0-.359-1.592A1.1,1.1,0,0,0,43.687,229.534Zm0.008,11.342,6.4-12.332h1.166l-6.377,12.332H43.694Zm5.061-3.177a3.552,3.552,0,0,1,.63-2.135,2.123,2.123,0,0,1,1.836-.874,2.371,2.371,0,0,1,1.824.786,4,4,0,0,1-.008,4.6,2.348,2.348,0,0,1-1.808.8,2.269,2.269,0,0,1-1.768-.794A3.492,3.492,0,0,1,48.755,237.7Zm2.506-2.02a1.086,1.086,0,0,0-.9.463,2.933,2.933,0,0,0-.355,1.7,2.636,2.636,0,0,0,.359,1.581,1.084,1.084,0,0,0,.886.463,1.1,1.1,0,0,0,.906-0.463,2.918,2.918,0,0,0,.355-1.692,2.652,2.652,0,0,0-.359-1.592A1.094,1.094,0,0,0,51.261,235.68Z" transform="translate(-11.849 -9.796)"/><path class="cls-2" d="M37.237,270.4H35.8v-9.155a7.437,7.437,0,0,1-1.361.99,9.676,9.676,0,0,1-1.513.742v-1.389a8.663,8.663,0,0,0,2.107-1.373,5.4,5.4,0,0,0,1.277-1.564h0.926V270.4Z" transform="translate(-11.849 -9.796)"/><path class="cls-2" d="M41.188,261.509a3.557,3.557,0,0,1,.631-2.131,2.11,2.11,0,0,1,1.828-.878,2.371,2.371,0,0,1,1.824.786,4,4,0,0,1-.008,4.6,2.339,2.339,0,0,1-1.8.8,2.273,2.273,0,0,1-1.768-.79A3.488,3.488,0,0,1,41.188,261.509Zm2.5-2.02a1.082,1.082,0,0,0-.89.463,2.934,2.934,0,0,0-.355,1.7,2.638,2.638,0,0,0,.359,1.584,1.094,1.094,0,0,0,1.784,0,2.918,2.918,0,0,0,.355-1.692,2.656,2.656,0,0,0-.359-1.592A1.1,1.1,0,0,0,43.687,259.489Zm0.008,11.342L50.1,258.5h1.166l-6.377,12.332H43.694Zm5.061-3.177a3.552,3.552,0,0,1,.63-2.135,2.123,2.123,0,0,1,1.836-.874,2.371,2.371,0,0,1,1.824.786,4,4,0,0,1-.008,4.6,2.348,2.348,0,0,1-1.808.8,2.269,2.269,0,0,1-1.768-.794A3.492,3.492,0,0,1,48.755,267.655Zm2.506-2.02a1.086,1.086,0,0,0-.9.463,2.933,2.933,0,0,0-.355,1.7,2.636,2.636,0,0,0,.359,1.581,1.084,1.084,0,0,0,.886.463,1.1,1.1,0,0,0,.906-0.463,2.918,2.918,0,0,0,.355-1.692,2.652,2.652,0,0,0-.359-1.592A1.094,1.094,0,0,0,51.261,265.635Z" transform="translate(-11.849 -9.796)"/><path class="cls-2" d="M28.146,101.537H26.709V92.382a7.437,7.437,0,0,1-1.361.99,9.676,9.676,0,0,1-1.513.742V92.725a8.663,8.663,0,0,0,2.107-1.373,5.4,5.4,0,0,0,1.277-1.564h0.926v11.749Z" transform="translate(-11.849 -9.796)"/><path class="cls-2" d="M31.834,98.448l1.437-.191a3.166,3.166,0,0,0,.842,1.76,2.078,2.078,0,0,0,1.449.539,2.322,2.322,0,0,0,1.712-.7,2.371,2.371,0,0,0,.7-1.74,2.2,2.2,0,0,0-.646-1.632,2.235,2.235,0,0,0-1.644-.642,4.122,4.122,0,0,0-1.014.16l0.16-1.261a2.152,2.152,0,0,0,.231.016,2.959,2.959,0,0,0,1.652-.479,1.64,1.64,0,0,0,.734-1.477,1.747,1.747,0,0,0-.535-1.309,1.9,1.9,0,0,0-1.381-.519,1.956,1.956,0,0,0-1.4.527,2.644,2.644,0,0,0-.719,1.581l-1.437-.255a3.7,3.7,0,0,1,1.2-2.239,3.462,3.462,0,0,1,2.323-.794,3.825,3.825,0,0,1,1.764.411,2.974,2.974,0,0,1,1.233,1.121,2.883,2.883,0,0,1,.427,1.509,2.47,2.47,0,0,1-.407,1.381,2.781,2.781,0,0,1-1.205.99,2.717,2.717,0,0,1,1.612.994,3.027,3.027,0,0,1,.574,1.888,3.454,3.454,0,0,1-1.117,2.6,3.93,3.93,0,0,1-2.826,1.065A3.677,3.677,0,0,1,33,100.827,3.549,3.549,0,0,1,31.834,98.448Z" transform="translate(-11.849 -9.796)"/><path class="cls-2" d="M41.188,92.645a3.557,3.557,0,0,1,.631-2.131,2.11,2.11,0,0,1,1.828-.878,2.371,2.371,0,0,1,1.824.786,4,4,0,0,1-.008,4.6,2.339,2.339,0,0,1-1.8.8,2.273,2.273,0,0,1-1.768-.79A3.488,3.488,0,0,1,41.188,92.645Zm2.5-2.02a1.082,1.082,0,0,0-.89.463,2.934,2.934,0,0,0-.355,1.7,2.638,2.638,0,0,0,.359,1.584,1.094,1.094,0,0,0,1.784,0,2.918,2.918,0,0,0,.355-1.692,2.656,2.656,0,0,0-.359-1.592A1.1,1.1,0,0,0,43.687,90.626Zm0.008,11.342,6.4-12.332h1.166l-6.377,12.332H43.695Zm5.061-3.177a3.552,3.552,0,0,1,.63-2.135,2.123,2.123,0,0,1,1.836-.874,2.371,2.371,0,0,1,1.824.786,4,4,0,0,1-.008,4.6,2.348,2.348,0,0,1-1.808.8,2.269,2.269,0,0,1-1.768-.794A3.492,3.492,0,0,1,48.755,98.791Zm2.506-2.02a1.086,1.086,0,0,0-.9.463,2.933,2.933,0,0,0-.355,1.7,2.636,2.636,0,0,0,.359,1.581,1.084,1.084,0,0,0,.886.463,1.1,1.1,0,0,0,.906-0.463,2.918,2.918,0,0,0,.355-1.692,2.652,2.652,0,0,0-.359-1.592A1.094,1.094,0,0,0,51.262,96.772Z" transform="translate(-11.849 -9.796)"/><rect class="cls-4" x="386.908" y="224.864" width="73.577" height="46.831"/><rect class="cls-4" x="248.268" y="162.829" width="73.577" height="32.178"/><rect class="cls-4" x="104.084" y="138.693" width="73.577" height="30.816"/><path class="cls-2" d="M136.98,137.362a2.705,2.705,0,0,1-1.325-.934,2.441,2.441,0,0,1-.431-1.453,2.841,2.841,0,0,1,.918-2.147,3.862,3.862,0,0,1,4.909.02,2.88,2.88,0,0,1,.934,2.167,2.387,2.387,0,0,1-.427,1.417,2.692,2.692,0,0,1-1.3.93,2.985,2.985,0,0,1,2.2,3,3.36,3.36,0,0,1-1.062,2.522,4.322,4.322,0,0,1-5.587,0,3.41,3.41,0,0,1-1.062-2.558,3.093,3.093,0,0,1,.579-1.912A2.9,2.9,0,0,1,136.98,137.362Zm-0.75,2.969a2.6,2.6,0,0,0,.292,1.189,2.053,2.053,0,0,0,.866.89,2.534,2.534,0,0,0,1.237.315,2.32,2.32,0,0,0,1.7-.662,2.268,2.268,0,0,0,.67-1.684,2.306,2.306,0,0,0-.69-1.716,2.367,2.367,0,0,0-1.728-.678A2.285,2.285,0,0,0,136.23,140.33Zm0.463-5.4a1.823,1.823,0,0,0,.535,1.357,1.9,1.9,0,0,0,1.389.527,1.858,1.858,0,0,0,1.361-.523,1.73,1.73,0,0,0,.531-1.281,1.792,1.792,0,0,0-.547-1.329,2.009,2.009,0,0,0-2.726-.012A1.694,1.694,0,0,0,136.693,134.927Z" transform="translate(-11.849 -9.796)"/><path class="cls-2" d="M144.667,143.707v-1.636H146.3v1.636h-1.636Z" transform="translate(-11.849 -9.796)"/><path class="cls-2" d="M148.618,141l1.381-.128a2.394,2.394,0,0,0,.67,1.413,1.839,1.839,0,0,0,1.269.439,2.191,2.191,0,0,0,1.161-.3,2.481,2.481,0,0,0,.818-0.81,4.755,4.755,0,0,0,.535-1.369,7.22,7.22,0,0,0,.215-1.756c0-.063,0-0.16-0.008-0.287a3.289,3.289,0,0,1-1.177,1.113,3.2,3.2,0,0,1-1.616.427,3.267,3.267,0,0,1-2.458-1.054,3.856,3.856,0,0,1-1.006-2.778,3.948,3.948,0,0,1,1.05-2.865,3.506,3.506,0,0,1,2.63-1.085,3.754,3.754,0,0,1,2.087.615,3.839,3.839,0,0,1,1.437,1.752,8.629,8.629,0,0,1,.491,3.292,10.654,10.654,0,0,1-.487,3.572,4.182,4.182,0,0,1-1.449,2.023,3.749,3.749,0,0,1-2.254.694A3.091,3.091,0,0,1,148.618,141Zm5.882-5.165a2.813,2.813,0,0,0-.658-1.963,2.065,2.065,0,0,0-1.584-.726,2.188,2.188,0,0,0-1.668.782,2.9,2.9,0,0,0-.71,2.027,2.5,2.5,0,0,0,.674,1.815,2.221,2.221,0,0,0,1.664.7,2.129,2.129,0,0,0,1.64-.7A2.75,2.75,0,0,0,154.5,135.837Z" transform="translate(-11.849 -9.796)"/><path class="cls-2" d="M157.765,134.815a3.557,3.557,0,0,1,.631-2.131,2.11,2.11,0,0,1,1.828-.878,2.371,2.371,0,0,1,1.824.786,4,4,0,0,1-.008,4.6,2.339,2.339,0,0,1-1.8.8,2.273,2.273,0,0,1-1.768-.79A3.488,3.488,0,0,1,157.765,134.815Zm2.5-2.02a1.082,1.082,0,0,0-.89.463,2.934,2.934,0,0,0-.355,1.7,2.638,2.638,0,0,0,.359,1.584,1.094,1.094,0,0,0,1.784,0,2.918,2.918,0,0,0,.355-1.692,2.656,2.656,0,0,0-.359-1.592A1.1,1.1,0,0,0,160.264,132.8Zm0.008,11.342,6.4-12.332h1.166l-6.377,12.332h-1.189Zm5.061-3.177a3.552,3.552,0,0,1,.63-2.135,2.123,2.123,0,0,1,1.836-.874,2.371,2.371,0,0,1,1.824.786,4,4,0,0,1-.008,4.6,2.348,2.348,0,0,1-1.808.8,2.269,2.269,0,0,1-1.768-.794A3.492,3.492,0,0,1,165.332,140.961Zm2.506-2.02a1.086,1.086,0,0,0-.9.463,2.933,2.933,0,0,0-.355,1.7,2.636,2.636,0,0,0,.359,1.581,1.084,1.084,0,0,0,.886.463,1.1,1.1,0,0,0,.906-0.463,2.918,2.918,0,0,0,.355-1.692,2.652,2.652,0,0,0-.359-1.592A1.094,1.094,0,0,0,167.838,138.942Z" transform="translate(-11.849 -9.796)"/><path class="cls-2" d="M142.225,186.391l-1.429.112a2.7,2.7,0,0,0-.542-1.229,1.9,1.9,0,0,0-1.437-.615,1.974,1.974,0,0,0-1.205.383,3.273,3.273,0,0,0-1.07,1.445,7.542,7.542,0,0,0-.407,2.706,3.325,3.325,0,0,1,1.269-1.173,3.413,3.413,0,0,1,1.572-.383,3.258,3.258,0,0,1,2.446,1.058,3.8,3.8,0,0,1,1.01,2.734,4.494,4.494,0,0,1-.475,2.047,3.462,3.462,0,0,1-1.3,1.449,3.566,3.566,0,0,1-1.884.5,3.68,3.68,0,0,1-2.929-1.321,6.666,6.666,0,0,1-1.133-4.354q0-3.392,1.253-4.933a3.6,3.6,0,0,1,2.945-1.341A3.135,3.135,0,0,1,142.225,186.391Zm-5.867,5.044a3.328,3.328,0,0,0,.315,1.421,2.348,2.348,0,0,0,.882,1.034,2.206,2.206,0,0,0,1.189.355,2.027,2.027,0,0,0,1.564-.734,2.89,2.89,0,0,0,.654-2,2.7,2.7,0,0,0-.646-1.912,2.123,2.123,0,0,0-1.628-.7,2.215,2.215,0,0,0-1.652.7A2.516,2.516,0,0,0,136.358,191.435Z" transform="translate(-11.849 -9.796)"/><path class="cls-2" d="M144.667,195.226V193.59H146.3v1.636h-1.636Z" transform="translate(-11.849 -9.796)"/><path class="cls-2" d="M148.5,185.058v-1.381h7.574v1.117a16,16,0,0,0-2.215,3.161,19.258,19.258,0,0,0-1.7,4.055,15.044,15.044,0,0,0-.551,3.217h-1.477a14.33,14.33,0,0,1,.542-3.336,17.52,17.52,0,0,1,1.489-3.771,16.163,16.163,0,0,1,2.063-3.061H148.5Z" transform="translate(-11.849 -9.796)"/><path class="cls-2" d="M157.765,186.335a3.557,3.557,0,0,1,.631-2.131,2.11,2.11,0,0,1,1.828-.878,2.371,2.371,0,0,1,1.824.786,4,4,0,0,1-.008,4.6,2.339,2.339,0,0,1-1.8.8,2.273,2.273,0,0,1-1.768-.79A3.488,3.488,0,0,1,157.765,186.335Zm2.5-2.02a1.082,1.082,0,0,0-.89.463,2.934,2.934,0,0,0-.355,1.7,2.638,2.638,0,0,0,.359,1.584,1.094,1.094,0,0,0,1.784,0,2.918,2.918,0,0,0,.355-1.692,2.656,2.656,0,0,0-.359-1.592A1.1,1.1,0,0,0,160.264,184.315Zm0.008,11.342,6.4-12.332h1.166l-6.377,12.332h-1.189Zm5.061-3.177a3.552,3.552,0,0,1,.63-2.135,2.123,2.123,0,0,1,1.836-.874,2.371,2.371,0,0,1,1.824.786,4,4,0,0,1-.008,4.6,2.348,2.348,0,0,1-1.808.8,2.269,2.269,0,0,1-1.768-.794A3.492,3.492,0,0,1,165.332,192.481Zm2.506-2.02a1.086,1.086,0,0,0-.9.463,2.933,2.933,0,0,0-.355,1.7,2.636,2.636,0,0,0,.359,1.581,1.084,1.084,0,0,0,.886.463,1.1,1.1,0,0,0,.906-0.463,2.918,2.918,0,0,0,.355-1.692,2.652,2.652,0,0,0-.359-1.592A1.094,1.094,0,0,0,167.838,190.461Z" transform="translate(-11.849 -9.796)"/><path class="cls-2" d="M279.05,157.189v-1.381h7.574v1.117a16,16,0,0,0-2.215,3.161,19.258,19.258,0,0,0-1.7,4.055,15.044,15.044,0,0,0-.551,3.217h-1.477a14.33,14.33,0,0,1,.542-3.336,17.52,17.52,0,0,1,1.489-3.771,16.163,16.163,0,0,1,2.063-3.061h-5.73Z" transform="translate(-11.849 -9.796)"/><path class="cls-2" d="M288.852,167.357v-1.636h1.636v1.636h-1.636Z" transform="translate(-11.849 -9.796)"/><path class="cls-2" d="M292.6,164.268l1.437-.191a3.166,3.166,0,0,0,.842,1.76,2.078,2.078,0,0,0,1.449.539,2.322,2.322,0,0,0,1.712-.7,2.371,2.371,0,0,0,.7-1.74,2.2,2.2,0,0,0-.646-1.632,2.235,2.235,0,0,0-1.644-.642,4.123,4.123,0,0,0-1.014.16l0.16-1.261a2.152,2.152,0,0,0,.231.016,2.959,2.959,0,0,0,1.652-.479,1.64,1.64,0,0,0,.734-1.477,1.747,1.747,0,0,0-.535-1.309,1.9,1.9,0,0,0-1.381-.519,1.956,1.956,0,0,0-1.4.527,2.644,2.644,0,0,0-.719,1.581l-1.437-.255a3.7,3.7,0,0,1,1.2-2.239,3.462,3.462,0,0,1,2.323-.794,3.825,3.825,0,0,1,1.764.411,2.974,2.974,0,0,1,1.233,1.121,2.883,2.883,0,0,1,.427,1.509,2.47,2.47,0,0,1-.407,1.381,2.781,2.781,0,0,1-1.205.99,2.717,2.717,0,0,1,1.612.994,3.027,3.027,0,0,1,.574,1.888,3.454,3.454,0,0,1-1.117,2.6,3.93,3.93,0,0,1-2.826,1.065,3.677,3.677,0,0,1-2.558-.918A3.549,3.549,0,0,1,292.6,164.268Z" transform="translate(-11.849 -9.796)"/><path class="cls-2" d="M301.95,158.466a3.557,3.557,0,0,1,.631-2.131,2.11,2.11,0,0,1,1.828-.878,2.371,2.371,0,0,1,1.824.786,4,4,0,0,1-.008,4.6,2.339,2.339,0,0,1-1.8.8,2.273,2.273,0,0,1-1.768-.79A3.488,3.488,0,0,1,301.95,158.466Zm2.5-2.02a1.082,1.082,0,0,0-.89.463,2.934,2.934,0,0,0-.355,1.7,2.638,2.638,0,0,0,.359,1.584,1.094,1.094,0,0,0,1.784,0,2.918,2.918,0,0,0,.355-1.692,2.656,2.656,0,0,0-.359-1.592A1.1,1.1,0,0,0,304.448,156.446Zm0.008,11.342,6.4-12.332h1.166l-6.377,12.332h-1.189Zm5.061-3.177a3.552,3.552,0,0,1,.63-2.135,2.123,2.123,0,0,1,1.836-.874,2.371,2.371,0,0,1,1.824.786,4,4,0,0,1-.008,4.6,2.348,2.348,0,0,1-1.808.8,2.269,2.269,0,0,1-1.768-.794A3.492,3.492,0,0,1,309.517,164.612Zm2.506-2.02a1.086,1.086,0,0,0-.9.463,2.933,2.933,0,0,0-.355,1.7,2.636,2.636,0,0,0,.359,1.581,1.084,1.084,0,0,0,.886.463,1.1,1.1,0,0,0,.906-0.463,2.918,2.918,0,0,0,.355-1.692,2.652,2.652,0,0,0-.359-1.592A1.094,1.094,0,0,0,312.023,162.592Z" transform="translate(-11.849 -9.796)"/><path class="cls-2" d="M278.954,218.169l1.509-.128a2.7,2.7,0,0,0,.778,1.656,2.111,2.111,0,0,0,1.473.555,2.292,2.292,0,0,0,1.756-.782,2.946,2.946,0,0,0,.718-2.075,2.664,2.664,0,0,0-.69-1.939,2.408,2.408,0,0,0-1.808-.71,2.509,2.509,0,0,0-1.253.315,2.437,2.437,0,0,0-.878.818l-1.349-.175,1.133-6.01h5.818v1.373h-4.669l-0.631,3.145a3.811,3.811,0,0,1,2.211-.734,3.5,3.5,0,0,1,2.586,1.062,3.712,3.712,0,0,1,1.053,2.73,4.261,4.261,0,0,1-.926,2.746,3.708,3.708,0,0,1-3.073,1.421,3.785,3.785,0,0,1-2.606-.894A3.491,3.491,0,0,1,278.954,218.169Z" transform="translate(-11.849 -9.796)"/><path class="cls-2" d="M288.852,221.234V219.6h1.636v1.636h-1.636Z" transform="translate(-11.849 -9.796)"/><path class="cls-2" d="M292.587,215.463a10.709,10.709,0,0,1,.427-3.34,4.153,4.153,0,0,1,1.269-1.951,3.245,3.245,0,0,1,2.119-.687,3.461,3.461,0,0,1,1.652.379,3.161,3.161,0,0,1,1.173,1.094,5.857,5.857,0,0,1,.726,1.74,11.552,11.552,0,0,1,.264,2.766,10.731,10.731,0,0,1-.423,3.325,4.155,4.155,0,0,1-1.265,1.956,3.245,3.245,0,0,1-2.127.69,3.21,3.21,0,0,1-2.658-1.213Q292.587,218.76,292.587,215.463Zm1.477,0a7.336,7.336,0,0,0,.674,3.835,1.927,1.927,0,0,0,3.328,0,7.338,7.338,0,0,0,.675-3.832q0-2.889-.675-3.839a2,2,0,0,0-1.68-.95,1.841,1.841,0,0,0-1.58.838A7.418,7.418,0,0,0,294.064,215.463Z" transform="translate(-11.849 -9.796)"/><path class="cls-2" d="M301.95,212.343a3.557,3.557,0,0,1,.631-2.131,2.11,2.11,0,0,1,1.828-.878,2.371,2.371,0,0,1,1.824.786,4,4,0,0,1-.008,4.6,2.339,2.339,0,0,1-1.8.8,2.273,2.273,0,0,1-1.768-.79A3.488,3.488,0,0,1,301.95,212.343Zm2.5-2.02a1.082,1.082,0,0,0-.89.463,2.934,2.934,0,0,0-.355,1.7,2.638,2.638,0,0,0,.359,1.584,1.094,1.094,0,0,0,1.784,0,2.918,2.918,0,0,0,.355-1.692,2.656,2.656,0,0,0-.359-1.592A1.1,1.1,0,0,0,304.448,210.323Zm0.008,11.342,6.4-12.332h1.166l-6.377,12.332h-1.189Zm5.061-3.177a3.552,3.552,0,0,1,.63-2.135,2.123,2.123,0,0,1,1.836-.874,2.371,2.371,0,0,1,1.824.786,4,4,0,0,1-.008,4.6,2.348,2.348,0,0,1-1.808.8,2.269,2.269,0,0,1-1.768-.794A3.492,3.492,0,0,1,309.517,218.489Zm2.506-2.02a1.086,1.086,0,0,0-.9.463,2.933,2.933,0,0,0-.355,1.7,2.636,2.636,0,0,0,.359,1.581,1.084,1.084,0,0,0,.886.463,1.1,1.1,0,0,0,.906-0.463,2.918,2.918,0,0,0,.355-1.692,2.652,2.652,0,0,0-.359-1.592A1.094,1.094,0,0,0,312.023,216.469Z" transform="translate(-11.849 -9.796)"/><path class="cls-2" d="M417.6,225.427l1.437-.191a3.166,3.166,0,0,0,.842,1.76,2.08,2.08,0,0,0,1.449.539,2.321,2.321,0,0,0,1.712-.7,2.369,2.369,0,0,0,.7-1.74,2.206,2.206,0,0,0-.646-1.632,2.235,2.235,0,0,0-1.645-.642,4.129,4.129,0,0,0-1.014.16l0.16-1.261a2.152,2.152,0,0,0,.231.016,2.961,2.961,0,0,0,1.652-.479,1.64,1.64,0,0,0,.734-1.477,1.747,1.747,0,0,0-.535-1.309,1.9,1.9,0,0,0-1.381-.519,1.956,1.956,0,0,0-1.4.527,2.641,2.641,0,0,0-.719,1.581l-1.437-.255a3.692,3.692,0,0,1,1.2-2.239,3.462,3.462,0,0,1,2.322-.794,3.832,3.832,0,0,1,1.765.411,2.971,2.971,0,0,1,1.232,1.121,2.879,2.879,0,0,1,.428,1.509,2.47,2.47,0,0,1-.407,1.381,2.778,2.778,0,0,1-1.205.99,2.718,2.718,0,0,1,1.612.994,3.027,3.027,0,0,1,.574,1.888,3.454,3.454,0,0,1-1.117,2.6,3.929,3.929,0,0,1-2.825,1.065,3.677,3.677,0,0,1-2.559-.918A3.547,3.547,0,0,1,417.6,225.427Z" transform="translate(-11.849 -9.796)"/><path class="cls-2" d="M427.491,228.516v-1.636h1.637v1.636h-1.637Z" transform="translate(-11.849 -9.796)"/><path class="cls-2" d="M431.228,222.745a10.7,10.7,0,0,1,.427-3.34,4.15,4.15,0,0,1,1.27-1.951,3.243,3.243,0,0,1,2.119-.687,3.46,3.46,0,0,1,1.651.379,3.163,3.163,0,0,1,1.174,1.094,5.87,5.87,0,0,1,.727,1.74,11.611,11.611,0,0,1,.263,2.766,10.733,10.733,0,0,1-.423,3.325,4.158,4.158,0,0,1-1.265,1.956,3.246,3.246,0,0,1-2.127.69,3.209,3.209,0,0,1-2.658-1.213Q431.228,226.041,431.228,222.745Zm1.477,0a7.342,7.342,0,0,0,.674,3.835,1.928,1.928,0,0,0,3.329,0,7.346,7.346,0,0,0,.674-3.832q0-2.889-.674-3.839a2,2,0,0,0-1.681-.95,1.841,1.841,0,0,0-1.58.838A7.418,7.418,0,0,0,432.7,222.745Z" transform="translate(-11.849 -9.796)"/><path class="cls-2" d="M440.59,219.624a3.56,3.56,0,0,1,.63-2.131,2.113,2.113,0,0,1,1.828-.878,2.373,2.373,0,0,1,1.824.786,4,4,0,0,1-.009,4.6,2.338,2.338,0,0,1-1.8.8,2.274,2.274,0,0,1-1.768-.79A3.49,3.49,0,0,1,440.59,219.624Zm2.5-2.02a1.081,1.081,0,0,0-.89.463,2.93,2.93,0,0,0-.355,1.7,2.631,2.631,0,0,0,.359,1.584,1.093,1.093,0,0,0,1.783,0,2.91,2.91,0,0,0,.355-1.692,2.655,2.655,0,0,0-.359-1.592A1.094,1.094,0,0,0,443.088,217.6Zm0.008,11.342,6.4-12.332h1.165l-6.377,12.332H443.1Zm5.061-3.177a3.549,3.549,0,0,1,.631-2.135,2.121,2.121,0,0,1,1.835-.874,2.372,2.372,0,0,1,1.824.786,4,4,0,0,1-.008,4.6,2.348,2.348,0,0,1-1.808.8,2.269,2.269,0,0,1-1.769-.794A3.492,3.492,0,0,1,448.156,225.77Zm2.506-2.02a1.087,1.087,0,0,0-.9.463,2.929,2.929,0,0,0-.355,1.7,2.64,2.64,0,0,0,.359,1.581,1.083,1.083,0,0,0,.886.463,1.1,1.1,0,0,0,.906-0.463,2.919,2.919,0,0,0,.354-1.692,2.656,2.656,0,0,0-.358-1.592A1.1,1.1,0,0,0,450.662,223.75Z" transform="translate(-11.849 -9.796)"/><path class="cls-2" d="M417.595,291.639a10.7,10.7,0,0,1,.427-3.34,4.15,4.15,0,0,1,1.27-1.951,3.243,3.243,0,0,1,2.119-.687,3.46,3.46,0,0,1,1.651.379,3.163,3.163,0,0,1,1.174,1.094,5.87,5.87,0,0,1,.727,1.74,11.611,11.611,0,0,1,.263,2.766,10.733,10.733,0,0,1-.423,3.325,4.158,4.158,0,0,1-1.265,1.956,3.246,3.246,0,0,1-2.127.69,3.209,3.209,0,0,1-2.658-1.213Q417.595,294.936,417.595,291.639Zm1.477,0a7.342,7.342,0,0,0,.674,3.835,1.928,1.928,0,0,0,3.329,0,7.346,7.346,0,0,0,.674-3.832q0-2.889-.674-3.839a2,2,0,0,0-1.681-.95,1.841,1.841,0,0,0-1.58.838A7.418,7.418,0,0,0,419.071,291.639Z" transform="translate(-11.849 -9.796)"/><path class="cls-2" d="M427.491,297.41v-1.636h1.637v1.636h-1.637Z" transform="translate(-11.849 -9.796)"/><path class="cls-2" d="M431.228,294.345l1.508-.128a2.712,2.712,0,0,0,.778,1.656,2.113,2.113,0,0,0,1.473.555,2.29,2.29,0,0,0,1.756-.782,2.944,2.944,0,0,0,.719-2.075,2.666,2.666,0,0,0-.69-1.939,2.406,2.406,0,0,0-1.808-.71,2.506,2.506,0,0,0-1.253.315,2.425,2.425,0,0,0-.878.818l-1.35-.175,1.134-6.01h5.818v1.373h-4.669l-0.631,3.145a3.81,3.81,0,0,1,2.211-.734,3.5,3.5,0,0,1,2.586,1.062,3.708,3.708,0,0,1,1.054,2.73,4.261,4.261,0,0,1-.926,2.746,3.708,3.708,0,0,1-3.073,1.421,3.784,3.784,0,0,1-2.605-.894A3.486,3.486,0,0,1,431.228,294.345Z" transform="translate(-11.849 -9.796)"/><path class="cls-2" d="M440.59,288.518a3.56,3.56,0,0,1,.63-2.131,2.113,2.113,0,0,1,1.828-.878,2.373,2.373,0,0,1,1.824.786,4,4,0,0,1-.009,4.6,2.338,2.338,0,0,1-1.8.8,2.274,2.274,0,0,1-1.768-.79A3.49,3.49,0,0,1,440.59,288.518Zm2.5-2.02a1.081,1.081,0,0,0-.89.463,2.93,2.93,0,0,0-.355,1.7,2.631,2.631,0,0,0,.359,1.584,1.093,1.093,0,0,0,1.783,0,2.91,2.91,0,0,0,.355-1.692,2.655,2.655,0,0,0-.359-1.592A1.094,1.094,0,0,0,443.088,286.5Zm0.008,11.342,6.4-12.332h1.165l-6.377,12.332H443.1Zm5.061-3.177a3.549,3.549,0,0,1,.631-2.135,2.121,2.121,0,0,1,1.835-.874,2.372,2.372,0,0,1,1.824.786,4,4,0,0,1-.008,4.6,2.348,2.348,0,0,1-1.808.8,2.269,2.269,0,0,1-1.769-.794A3.492,3.492,0,0,1,448.156,294.664Zm2.506-2.02a1.087,1.087,0,0,0-.9.463,2.929,2.929,0,0,0-.355,1.7,2.64,2.64,0,0,0,.359,1.581,1.083,1.083,0,0,0,.886.463,1.1,1.1,0,0,0,.906-0.463,2.919,2.919,0,0,0,.354-1.692,2.656,2.656,0,0,0-.358-1.592A1.1,1.1,0,0,0,450.662,292.645Z" transform="translate(-11.849 -9.796)"/><path class="cls-2" d="M560.747,246.346v1.381h-7.734a2.545,2.545,0,0,1,.167-1,5.289,5.289,0,0,1,.946-1.557,14.827,14.827,0,0,1,1.88-1.772,15.957,15.957,0,0,0,2.578-2.478,2.972,2.972,0,0,0,.67-1.728,1.92,1.92,0,0,0-.61-1.441,2.2,2.2,0,0,0-1.593-.586,2.244,2.244,0,0,0-1.66.623,2.353,2.353,0,0,0-.63,1.724l-1.477-.151a3.634,3.634,0,0,1,1.141-2.518,3.893,3.893,0,0,1,2.658-.866,3.708,3.708,0,0,1,2.666.934,3.067,3.067,0,0,1,.981,2.315,3.513,3.513,0,0,1-.287,1.381,5.356,5.356,0,0,1-.954,1.429,23.26,23.26,0,0,1-2.215,2.059q-1.292,1.086-1.66,1.473a4.8,4.8,0,0,0-.606.778h5.739Z" transform="translate(-11.849 -9.796)"/><path class="cls-2" d="M563.093,247.726V246.09h1.637v1.636h-1.637Z" transform="translate(-11.849 -9.796)"/><path class="cls-2" d="M574.38,246.346v1.381h-7.734a2.545,2.545,0,0,1,.167-1,5.289,5.289,0,0,1,.946-1.557,14.827,14.827,0,0,1,1.88-1.772,15.957,15.957,0,0,0,2.578-2.478,2.972,2.972,0,0,0,.67-1.728,1.92,1.92,0,0,0-.61-1.441,2.2,2.2,0,0,0-1.593-.586,2.244,2.244,0,0,0-1.66.623,2.353,2.353,0,0,0-.63,1.724l-1.477-.151a3.634,3.634,0,0,1,1.141-2.518,3.893,3.893,0,0,1,2.658-.866,3.708,3.708,0,0,1,2.666.934,3.067,3.067,0,0,1,.981,2.315,3.513,3.513,0,0,1-.287,1.381,5.356,5.356,0,0,1-.954,1.429,23.26,23.26,0,0,1-2.215,2.059q-1.292,1.086-1.66,1.473a4.8,4.8,0,0,0-.606.778h5.739Z" transform="translate(-11.849 -9.796)"/><path class="cls-2" d="M576.191,238.835a3.56,3.56,0,0,1,.63-2.131,2.113,2.113,0,0,1,1.828-.878,2.373,2.373,0,0,1,1.824.786,4,4,0,0,1-.009,4.6,2.338,2.338,0,0,1-1.8.8,2.274,2.274,0,0,1-1.768-.79A3.49,3.49,0,0,1,576.191,238.835Zm2.5-2.02a1.081,1.081,0,0,0-.89.463,2.93,2.93,0,0,0-.355,1.7,2.631,2.631,0,0,0,.359,1.584,1.093,1.093,0,0,0,1.783,0,2.91,2.91,0,0,0,.355-1.692,2.655,2.655,0,0,0-.359-1.592A1.094,1.094,0,0,0,578.689,236.815Zm0.008,11.342,6.4-12.332h1.165l-6.377,12.332H578.7Zm5.061-3.177a3.549,3.549,0,0,1,.631-2.135,2.121,2.121,0,0,1,1.835-.874,2.372,2.372,0,0,1,1.824.786,4,4,0,0,1-.008,4.6,2.348,2.348,0,0,1-1.808.8,2.269,2.269,0,0,1-1.769-.794A3.492,3.492,0,0,1,583.758,244.981Zm2.506-2.02a1.087,1.087,0,0,0-.9.463,2.929,2.929,0,0,0-.355,1.7,2.64,2.64,0,0,0,.359,1.581,1.083,1.083,0,0,0,.886.463,1.1,1.1,0,0,0,.906-0.463,2.919,2.919,0,0,0,.354-1.692,2.656,2.656,0,0,0-.358-1.592A1.1,1.1,0,0,0,586.264,242.961Z" transform="translate(-11.849 -9.796)"/></svg>