<svg id="Layer_1" data-name="Layer 1" xmlns="http://www.w3.org/2000/svg" viewBox="0 0 626.904 214.522"><defs><style>.cls-1{fill:#231f20;}.cls-2,.cls-3{fill:none;stroke:#3b56a6;}.cls-2,.cls-3,.cls-5{stroke-miterlimit:10;}.cls-2,.cls-5{stroke-width:2px;}.cls-4,.cls-5{fill:#af6f29;}.cls-5{stroke:#af6f29;}</style></defs><title>Inputs_Required_Mean_Variance_Optimization</title><path class="cls-1" d="M37.822,155.057V152.25h5.514v2.808H37.822Z" transform="translate(-7.002 -10.633)"/><path class="cls-1" d="M51.537,158.962H48.73V148.384a9.683,9.683,0,0,1-3.626,2.128v-2.548a8.089,8.089,0,0,0,2.387-1.363,5.172,5.172,0,0,0,1.768-2.342h2.277v14.7Z" transform="translate(-7.002 -10.633)"/><path class="cls-1" d="M322.3,144.259a4,4,0,0,1,3.326,1.518q1.43,1.8,1.429,5.964t-1.438,5.973a3.994,3.994,0,0,1-3.316,1.5,4.189,4.189,0,0,1-3.445-1.644q-1.31-1.642-1.309-5.858,0-4.135,1.438-5.953A3.992,3.992,0,0,1,322.3,144.259Zm0,2.327a1.4,1.4,0,0,0-.908.324,2.18,2.18,0,0,0-.62,1.164,16.1,16.1,0,0,0-.289,3.666,15.89,15.89,0,0,0,.26,3.541,2.481,2.481,0,0,0,.654,1.283,1.437,1.437,0,0,0,1.813,0,2.176,2.176,0,0,0,.619-1.164,23.7,23.7,0,0,0,.03-7.2,2.529,2.529,0,0,0-.654-1.289A1.385,1.385,0,0,0,322.3,146.586Z" transform="translate(-7.002 -10.633)"/><path class="cls-1" d="M585.728,156.855v-3.806h-3.836v-2.627h3.836v-3.806h2.558v3.806h3.846v2.627h-3.846v3.806h-2.558Z" transform="translate(-7.002 -10.633)"/><path class="cls-1" d="M601.04,158.962h-2.807V148.384a9.683,9.683,0,0,1-3.626,2.128v-2.548A8.1,8.1,0,0,0,597,146.6a5.178,5.178,0,0,0,1.768-2.342h2.277v14.7Z" transform="translate(-7.002 -10.633)"/><line class="cls-2" x1="40.841" y1="105.798" x2="586.387" y2="105.798"/><line class="cls-3" x1="40.841" y1="86.042" x2="40.841" y2="125.553"/><line class="cls-3" x1="586.387" y1="86.042" x2="586.387" y2="125.553"/><line class="cls-3" x1="316.686" y1="86.042" x2="316.686" y2="125.553"/><path class="cls-1" d="M240.213,20.392l1.938,0.489a6.524,6.524,0,0,1-2.192,3.641,6.042,6.042,0,0,1-3.871,1.254,6.957,6.957,0,0,1-3.851-.964,6.019,6.019,0,0,1-2.257-2.792,9.962,9.962,0,0,1-.774-3.926,8.623,8.623,0,0,1,.874-3.99,5.987,5.987,0,0,1,2.487-2.587,7.268,7.268,0,0,1,3.551-.884,6.005,6.005,0,0,1,3.7,1.119A5.807,5.807,0,0,1,241.9,14.9l-1.908.449a4.527,4.527,0,0,0-1.478-2.327,3.942,3.942,0,0,0-2.437-.729,4.733,4.733,0,0,0-2.822.809,4.272,4.272,0,0,0-1.593,2.172,8.755,8.755,0,0,0-.459,2.813,8.924,8.924,0,0,0,.544,3.261,4.051,4.051,0,0,0,1.693,2.083,4.745,4.745,0,0,0,2.487.689,4.168,4.168,0,0,0,2.757-.939A4.8,4.8,0,0,0,240.213,20.392Z" transform="translate(-7.002 -10.633)"/><path class="cls-1" d="M243.639,20.222a5.467,5.467,0,0,1,1.638-4.365,4.934,4.934,0,0,1,3.336-1.179,4.758,4.758,0,0,1,3.576,1.434,5.451,5.451,0,0,1,1.389,3.96,7.023,7.023,0,0,1-.614,3.222,4.357,4.357,0,0,1-1.788,1.823,5.209,5.209,0,0,1-2.562.648,4.768,4.768,0,0,1-3.6-1.428A5.706,5.706,0,0,1,243.639,20.222Zm1.848,0a4.515,4.515,0,0,0,.889,3.051,2.959,2.959,0,0,0,4.465,0,4.625,4.625,0,0,0,.889-3.106,4.382,4.382,0,0,0-.894-2.981,2.964,2.964,0,0,0-4.46,0A4.5,4.5,0,0,0,245.487,20.222Z" transform="translate(-7.002 -10.633)"/><path class="cls-1" d="M255.665,25.526V14.918h1.618v1.608a4.4,4.4,0,0,1,1.144-1.488,2,2,0,0,1,1.154-.359,3.51,3.51,0,0,1,1.848.579l-0.619,1.668a2.572,2.572,0,0,0-1.318-.39,1.719,1.719,0,0,0-1.059.354,1.922,1.922,0,0,0-.669.984,7.009,7.009,0,0,0-.3,2.1v5.554h-1.8Z" transform="translate(-7.002 -10.633)"/><path class="cls-1" d="M262.478,25.526V14.918H264.1v1.608a4.4,4.4,0,0,1,1.144-1.488,2,2,0,0,1,1.154-.359,3.51,3.51,0,0,1,1.848.579l-0.619,1.668a2.572,2.572,0,0,0-1.318-.39,1.719,1.719,0,0,0-1.059.354,1.922,1.922,0,0,0-.669.984,7.009,7.009,0,0,0-.3,2.1v5.554h-1.8Z" transform="translate(-7.002 -10.633)"/><path class="cls-1" d="M276.572,22.11l1.858,0.229a4.533,4.533,0,0,1-1.628,2.527,5.518,5.518,0,0,1-6.727-.534,5.6,5.6,0,0,1-1.364-4.021,5.86,5.86,0,0,1,1.378-4.155,4.667,4.667,0,0,1,3.576-1.479,4.534,4.534,0,0,1,3.476,1.448A5.756,5.756,0,0,1,278.49,20.2c0,0.106,0,.267-0.01.479h-7.911a4.073,4.073,0,0,0,.989,2.677,2.94,2.94,0,0,0,2.217.93,2.755,2.755,0,0,0,1.688-.52A3.45,3.45,0,0,0,276.572,22.11Zm-5.9-2.907h5.923a3.6,3.6,0,0,0-.679-2.008,2.756,2.756,0,0,0-2.228-1.038,2.856,2.856,0,0,0-2.083.829A3.281,3.281,0,0,0,270.669,19.2Z" transform="translate(-7.002 -10.633)"/><path class="cls-1" d="M280.647,25.526V10.882h1.8V25.526h-1.8Z" transform="translate(-7.002 -10.633)"/><path class="cls-1" d="M292.154,24.217a6.669,6.669,0,0,1-1.923,1.2,5.547,5.547,0,0,1-1.982.35,3.857,3.857,0,0,1-2.687-.854,2.819,2.819,0,0,1-.939-2.183,2.905,2.905,0,0,1,.354-1.424,2.937,2.937,0,0,1,.929-1.033,4.381,4.381,0,0,1,1.293-.59,12.98,12.98,0,0,1,1.6-.27A16.455,16.455,0,0,0,292,18.794c0.006-.246.01-0.4,0.01-0.47a1.985,1.985,0,0,0-.509-1.548,3.009,3.009,0,0,0-2.048-.609,3.179,3.179,0,0,0-1.873.444,2.721,2.721,0,0,0-.894,1.573l-1.758-.239a4.354,4.354,0,0,1,.789-1.823,3.46,3.46,0,0,1,1.588-1.069,7.1,7.1,0,0,1,2.407-.374,6.378,6.378,0,0,1,2.208.319,2.907,2.907,0,0,1,1.249.8,2.83,2.83,0,0,1,.56,1.224,10.151,10.151,0,0,1,.09,1.657v2.4a25.449,25.449,0,0,0,.115,3.172,4,4,0,0,0,.455,1.273h-1.878A3.813,3.813,0,0,1,292.154,24.217ZM292,20.2a13.185,13.185,0,0,1-2.937.68,6.814,6.814,0,0,0-1.568.359,1.564,1.564,0,0,0-.709.584,1.59,1.59,0,0,0,.294,2.053,2.34,2.34,0,0,0,1.593.479,3.711,3.711,0,0,0,1.848-.454,2.8,2.8,0,0,0,1.188-1.244,4.333,4.333,0,0,0,.29-1.8V20.2Z" transform="translate(-7.002 -10.633)"/><path class="cls-1" d="M300.534,23.918l0.26,1.589a6.669,6.669,0,0,1-1.357.159,3.08,3.08,0,0,1-1.52-.31,1.73,1.73,0,0,1-.759-0.814,6.431,6.431,0,0,1-.22-2.122v-6.1H295.62v-1.4h1.319V12.291l1.787-1.079v3.706h1.809v1.4h-1.809v6.2a3.152,3.152,0,0,0,.1.989,0.741,0.741,0,0,0,.311.35,1.189,1.189,0,0,0,.613.13A5.822,5.822,0,0,0,300.534,23.918Z" transform="translate(-7.002 -10.633)"/><path class="cls-1" d="M302.3,12.951V10.882h1.8v2.068h-1.8Zm0,12.575V14.918h1.8V25.526h-1.8Z" transform="translate(-7.002 -10.633)"/><path class="cls-1" d="M306.169,20.222a5.468,5.468,0,0,1,1.638-4.365,4.934,4.934,0,0,1,3.336-1.179,4.758,4.758,0,0,1,3.576,1.434,5.451,5.451,0,0,1,1.389,3.96,7.023,7.023,0,0,1-.614,3.222,4.36,4.36,0,0,1-1.788,1.823,5.208,5.208,0,0,1-2.562.648,4.767,4.767,0,0,1-3.6-1.428A5.7,5.7,0,0,1,306.169,20.222Zm1.848,0a4.515,4.515,0,0,0,.889,3.051,2.959,2.959,0,0,0,4.465,0,4.622,4.622,0,0,0,.89-3.106,4.384,4.384,0,0,0-.895-2.981,2.964,2.964,0,0,0-4.46,0A4.5,4.5,0,0,0,308.017,20.222Z" transform="translate(-7.002 -10.633)"/><path class="cls-1" d="M318.215,25.526V14.918h1.618v1.509a3.814,3.814,0,0,1,3.376-1.748,4.414,4.414,0,0,1,1.763.345,2.779,2.779,0,0,1,1.2.9,3.469,3.469,0,0,1,.56,1.329,10.319,10.319,0,0,1,.1,1.748v6.522h-1.8V19.073a4.846,4.846,0,0,0-.21-1.643,1.727,1.727,0,0,0-.744-0.869,2.365,2.365,0,0,0-1.254-.324,2.915,2.915,0,0,0-1.982.729,3.6,3.6,0,0,0-.834,2.767v5.794h-1.8Z" transform="translate(-7.002 -10.633)"/><path class="cls-1" d="M337.234,25.526l-3.247-10.608h1.858l1.688,6.123,0.63,2.278q0.04-.17.549-2.188l1.688-6.213h1.848l1.589,6.153,0.529,2.027,0.609-2.047,1.817-6.134h1.748l-3.316,10.608h-1.867l-1.688-6.353-0.409-1.809-2.147,8.161h-1.878Z" transform="translate(-7.002 -10.633)"/><path class="cls-1" d="M350.059,12.951V10.882h1.8v2.068h-1.8Zm0,12.575V14.918h1.8V25.526h-1.8Z" transform="translate(-7.002 -10.633)"/><path class="cls-1" d="M358.52,23.918l0.26,1.589a6.678,6.678,0,0,1-1.358.159,3.078,3.078,0,0,1-1.519-.31,1.732,1.732,0,0,1-.76-0.814,6.431,6.431,0,0,1-.22-2.122v-6.1H353.6v-1.4h1.318V12.291l1.788-1.079v3.706h1.809v1.4h-1.809v6.2a3.162,3.162,0,0,0,.095.989,0.752,0.752,0,0,0,.311.35,1.19,1.19,0,0,0,.614.13A5.835,5.835,0,0,0,358.52,23.918Z" transform="translate(-7.002 -10.633)"/><path class="cls-1" d="M360.278,25.526V10.882h1.8v5.254a4.017,4.017,0,0,1,3.177-1.458,4.282,4.282,0,0,1,2.047.464,2.732,2.732,0,0,1,1.244,1.284,5.91,5.91,0,0,1,.374,2.377v6.723h-1.8V18.8a2.779,2.779,0,0,0-.584-1.963,2.174,2.174,0,0,0-1.653-.614,2.916,2.916,0,0,0-1.5.415,2.337,2.337,0,0,0-1,1.123,5.158,5.158,0,0,0-.3,1.958v5.8h-1.8Z" transform="translate(-7.002 -10.633)"/><path class="cls-1" d="M377.568,25.526V10.882h5.044a12.213,12.213,0,0,1,2.607.21,4.956,4.956,0,0,1,2.147,1.049,5.955,5.955,0,0,1,1.733,2.5,9.825,9.825,0,0,1,.574,3.481,10.217,10.217,0,0,1-.39,2.956,7.168,7.168,0,0,1-1,2.133,5.3,5.3,0,0,1-1.333,1.328,5.424,5.424,0,0,1-1.748.734,9.95,9.95,0,0,1-2.353.25h-5.284Zm1.938-1.729h3.127a7.592,7.592,0,0,0,2.272-.27,3.253,3.253,0,0,0,1.313-.759,4.635,4.635,0,0,0,1.074-1.853,9.081,9.081,0,0,0,.384-2.822,6.814,6.814,0,0,0-.754-3.531,3.8,3.8,0,0,0-1.833-1.653,7.594,7.594,0,0,0-2.507-.3h-3.077V23.8Z" transform="translate(-7.002 -10.633)"/><path class="cls-1" d="M391.352,21.371l1.748-.24a3.744,3.744,0,0,0,.63,2.3,1.979,1.979,0,0,0,1.548.619,2.309,2.309,0,0,0,1.259-.334,1.727,1.727,0,0,0,.729-0.909,6.087,6.087,0,0,0,.2-1.833V10.882H399.4v9.979a7.253,7.253,0,0,1-.445,2.847,3.166,3.166,0,0,1-1.408,1.539,4.63,4.63,0,0,1-2.262.529,3.818,3.818,0,0,1-2.952-1.109A4.576,4.576,0,0,1,391.352,21.371Z" transform="translate(-7.002 -10.633)"/><path class="cls-1" d="M402.9,25.526V10.882h1.938V25.526H402.9Z" transform="translate(-7.002 -10.633)"/><path class="cls-1" d="M406.645,25.526l5.624-14.644h2.088l5.993,14.644h-2.208l-1.708-4.435h-6.123L408.7,25.526h-2.058Zm4.226-6.014h4.965l-1.528-4.055q-0.7-1.849-1.039-3.037a18.669,18.669,0,0,1-.789,2.8Z" transform="translate(-7.002 -10.633)"/><path class="cls-1" d="M21.482,66.68v-12.2H23.1v12.2H21.482Z" transform="translate(-7.002 -10.633)"/><path class="cls-1" d="M25.752,66.68V57.84H27.1V59.1a3.179,3.179,0,0,1,2.813-1.457,3.692,3.692,0,0,1,1.469.287,2.311,2.311,0,0,1,1,.754,2.889,2.889,0,0,1,.466,1.106,8.635,8.635,0,0,1,.083,1.457V66.68h-1.5V61.3a4.029,4.029,0,0,0-.175-1.369,1.442,1.442,0,0,0-.62-0.725,1.97,1.97,0,0,0-1.045-.271,2.427,2.427,0,0,0-1.652.607,3,3,0,0,0-.695,2.306V66.68h-1.5Z" transform="translate(-7.002 -10.633)"/><path class="cls-1" d="M37.688,66.68l-3.363-8.84h1.582l1.9,5.294q0.308,0.857.566,1.781,0.2-.7.558-1.682l1.965-5.394h1.54l-3.346,8.84h-1.4Z" transform="translate(-7.002 -10.633)"/><path class="cls-1" d="M49.808,63.834l1.548,0.191A3.777,3.777,0,0,1,50,66.13a4.593,4.593,0,0,1-5.606-.445,4.664,4.664,0,0,1-1.136-3.35,4.886,4.886,0,0,1,1.148-3.463,3.889,3.889,0,0,1,2.98-1.232,3.78,3.78,0,0,1,2.9,1.207,4.8,4.8,0,0,1,1.124,3.4c0,0.089,0,.222-0.008.4H44.805a3.4,3.4,0,0,0,.824,2.23,2.451,2.451,0,0,0,1.848.774,2.3,2.3,0,0,0,1.407-.433A2.877,2.877,0,0,0,49.808,63.834Zm-4.919-2.423h4.936a3,3,0,0,0-.566-1.673,2.3,2.3,0,0,0-1.856-.865,2.382,2.382,0,0,0-1.735.69A2.734,2.734,0,0,0,44.889,61.411Z" transform="translate(-7.002 -10.633)"/><path class="cls-1" d="M53.221,66.68V57.84H54.57v1.34a3.663,3.663,0,0,1,.953-1.24,1.668,1.668,0,0,1,.961-0.3,2.921,2.921,0,0,1,1.54.483l-0.516,1.39a2.139,2.139,0,0,0-1.1-.324,1.432,1.432,0,0,0-.882.295,1.6,1.6,0,0,0-.558.82,5.832,5.832,0,0,0-.25,1.748V66.68h-1.5Z" transform="translate(-7.002 -10.633)"/><path class="cls-1" d="M58.315,64.042l1.481-.233a2.072,2.072,0,0,0,.7,1.365,2.422,2.422,0,0,0,1.594.475,2.342,2.342,0,0,0,1.532-.42,1.258,1.258,0,0,0,.5-0.986,0.911,0.911,0,0,0-.441-0.8,6.564,6.564,0,0,0-1.532-.508,13.932,13.932,0,0,1-2.285-.72,2.182,2.182,0,0,1-1.294-2.027,2.274,2.274,0,0,1,.271-1.094,2.428,2.428,0,0,1,.737-0.837,3.109,3.109,0,0,1,.953-0.437,4.539,4.539,0,0,1,1.294-.179,5.128,5.128,0,0,1,1.827.3,2.49,2.49,0,0,1,1.161.812,3.176,3.176,0,0,1,.516,1.369l-1.465.2a1.6,1.6,0,0,0-.579-1.065,2.119,2.119,0,0,0-1.353-.383,2.45,2.45,0,0,0-1.474.341,0.994,0.994,0,0,0-.441.8,0.827,0.827,0,0,0,.183.524,1.321,1.321,0,0,0,.574.4q0.225,0.082,1.324.383a18.667,18.667,0,0,1,2.218.694,2.257,2.257,0,0,1,.986.787,2.2,2.2,0,0,1,.358,1.282,2.511,2.511,0,0,1-.437,1.41,2.825,2.825,0,0,1-1.261,1.024,4.593,4.593,0,0,1-1.864.362,4.158,4.158,0,0,1-2.626-.716A3.332,3.332,0,0,1,58.315,64.042Z" transform="translate(-7.002 -10.633)"/><path class="cls-1" d="M73.49,63.834l1.548,0.191a3.777,3.777,0,0,1-1.357,2.105,4.593,4.593,0,0,1-5.606-.445,4.664,4.664,0,0,1-1.136-3.35,4.886,4.886,0,0,1,1.148-3.463,3.889,3.889,0,0,1,2.98-1.232,3.78,3.78,0,0,1,2.9,1.207,4.8,4.8,0,0,1,1.124,3.4c0,0.089,0,.222-0.008.4H68.487a3.4,3.4,0,0,0,.824,2.23,2.451,2.451,0,0,0,1.848.774,2.3,2.3,0,0,0,1.407-.433A2.877,2.877,0,0,0,73.49,63.834ZM68.57,61.411h4.936a3,3,0,0,0-.566-1.673,2.3,2.3,0,0,0-1.856-.865,2.382,2.382,0,0,0-1.735.69A2.734,2.734,0,0,0,68.57,61.411Z" transform="translate(-7.002 -10.633)"/><path class="cls-1" d="M16.175,82.859l1.615,0.407A5.43,5.43,0,0,1,15.963,86.3a5.029,5.029,0,0,1-3.225,1.045,5.8,5.8,0,0,1-3.209-.8,5.02,5.02,0,0,1-1.881-2.327A8.3,8.3,0,0,1,7,80.944a7.194,7.194,0,0,1,.728-3.325A4.994,4.994,0,0,1,9.8,75.462a6.067,6.067,0,0,1,2.959-.736,5,5,0,0,1,3.08.933,4.839,4.839,0,0,1,1.74,2.622l-1.59.374a3.772,3.772,0,0,0-1.232-1.939,3.287,3.287,0,0,0-2.031-.607,3.946,3.946,0,0,0-2.352.674A3.564,3.564,0,0,0,9.05,78.592a7.291,7.291,0,0,0-.383,2.344,7.454,7.454,0,0,0,.454,2.718,3.379,3.379,0,0,0,1.411,1.735,3.958,3.958,0,0,0,2.073.574,3.475,3.475,0,0,0,2.3-.782A4.006,4.006,0,0,0,16.175,82.859Z" transform="translate(-7.002 -10.633)"/><path class="cls-1" d="M19.03,82.717A4.557,4.557,0,0,1,20.4,79.08a4.116,4.116,0,0,1,2.78-.982,3.968,3.968,0,0,1,2.98,1.194,4.547,4.547,0,0,1,1.157,3.3,5.849,5.849,0,0,1-.512,2.685,3.627,3.627,0,0,1-1.49,1.52,4.344,4.344,0,0,1-2.135.541,3.976,3.976,0,0,1-3-1.19A4.754,4.754,0,0,1,19.03,82.717Zm1.54,0a3.767,3.767,0,0,0,.741,2.543,2.467,2.467,0,0,0,3.721,0,3.855,3.855,0,0,0,.741-2.589,3.654,3.654,0,0,0-.745-2.485,2.47,2.47,0,0,0-3.717,0A3.751,3.751,0,0,0,20.57,82.717Z" transform="translate(-7.002 -10.633)"/><path class="cls-1" d="M29.052,87.137V78.3H30.4v1.34a3.663,3.663,0,0,1,.953-1.24,1.668,1.668,0,0,1,.961-0.3,2.921,2.921,0,0,1,1.54.483l-0.516,1.39a2.139,2.139,0,0,0-1.1-.324,1.432,1.432,0,0,0-.882.295,1.6,1.6,0,0,0-.558.82,5.832,5.832,0,0,0-.25,1.748v4.628h-1.5Z" transform="translate(-7.002 -10.633)"/><path class="cls-1" d="M34.729,87.137V78.3h1.349v1.34a3.663,3.663,0,0,1,.953-1.24,1.668,1.668,0,0,1,.961-0.3,2.921,2.921,0,0,1,1.54.483l-0.516,1.39a2.139,2.139,0,0,0-1.1-.324,1.432,1.432,0,0,0-.882.295,1.6,1.6,0,0,0-.558.82,5.832,5.832,0,0,0-.25,1.748v4.628h-1.5Z" transform="translate(-7.002 -10.633)"/><path class="cls-1" d="M46.474,84.291l1.548,0.191a3.777,3.777,0,0,1-1.357,2.105,4.593,4.593,0,0,1-5.606-.445,4.664,4.664,0,0,1-1.136-3.35,4.886,4.886,0,0,1,1.148-3.463,3.889,3.889,0,0,1,2.98-1.232,3.78,3.78,0,0,1,2.9,1.207,4.8,4.8,0,0,1,1.124,3.4c0,0.089,0,.222-0.008.4H41.471a3.4,3.4,0,0,0,.824,2.23,2.451,2.451,0,0,0,1.848.774,2.3,2.3,0,0,0,1.407-.433A2.877,2.877,0,0,0,46.474,84.291Zm-4.919-2.423h4.936a3,3,0,0,0-.566-1.673,2.3,2.3,0,0,0-1.856-.865,2.382,2.382,0,0,0-1.735.69A2.734,2.734,0,0,0,41.555,81.868Z" transform="translate(-7.002 -10.633)"/><path class="cls-1" d="M49.87,87.137v-12.2h1.5v12.2h-1.5Z" transform="translate(-7.002 -10.633)"/><path class="cls-1" d="M59.46,86.046a5.58,5.58,0,0,1-1.6,1,4.631,4.631,0,0,1-1.652.292,3.213,3.213,0,0,1-2.239-.712,2.35,2.35,0,0,1-.782-1.819,2.464,2.464,0,0,1,1.069-2.047,3.615,3.615,0,0,1,1.078-.491,10.6,10.6,0,0,1,1.332-.226,13.62,13.62,0,0,0,2.672-.516c0.005-.205.008-0.336,0.008-0.392a1.654,1.654,0,0,0-.425-1.29,2.511,2.511,0,0,0-1.707-.508,2.645,2.645,0,0,0-1.561.371,2.259,2.259,0,0,0-.745,1.311l-1.465-.2A3.631,3.631,0,0,1,54.1,79.3a2.88,2.88,0,0,1,1.323-.891,5.907,5.907,0,0,1,2.006-.312,5.305,5.305,0,0,1,1.839.267,2.432,2.432,0,0,1,1.041.67,2.36,2.36,0,0,1,.466,1.02,8.464,8.464,0,0,1,.075,1.382v2a21.277,21.277,0,0,0,.1,2.643,3.335,3.335,0,0,0,.379,1.062H59.759A3.176,3.176,0,0,1,59.46,86.046ZM59.335,82.7a11.014,11.014,0,0,1-2.447.565,5.7,5.7,0,0,0-1.307.3,1.3,1.3,0,0,0-.591.487,1.325,1.325,0,0,0,.246,1.711,1.955,1.955,0,0,0,1.328.4,3.086,3.086,0,0,0,1.54-.379,2.335,2.335,0,0,0,.99-1.036,3.618,3.618,0,0,0,.242-1.5V82.7Z" transform="translate(-7.002 -10.633)"/><path class="cls-1" d="M66.444,85.8l0.216,1.323a5.548,5.548,0,0,1-1.132.133A2.563,2.563,0,0,1,64.263,87a1.444,1.444,0,0,1-.633-0.679,5.357,5.357,0,0,1-.183-1.769V79.462h-1.1V78.3h1.1V76.108l1.49-.9V78.3h1.507v1.165H64.937v5.169a2.61,2.61,0,0,0,.079.824,0.625,0.625,0,0,0,.258.292,1.006,1.006,0,0,0,.512.107A4.985,4.985,0,0,0,66.444,85.8Z" transform="translate(-7.002 -10.633)"/><path class="cls-1" d="M67.917,76.658V74.934h1.5v1.724h-1.5Zm0,10.479V78.3h1.5v8.84h-1.5Z" transform="translate(-7.002 -10.633)"/><path class="cls-1" d="M71.138,82.717A4.557,4.557,0,0,1,72.5,79.08a4.116,4.116,0,0,1,2.78-.982,3.968,3.968,0,0,1,2.98,1.194,4.547,4.547,0,0,1,1.157,3.3,5.849,5.849,0,0,1-.512,2.685,3.627,3.627,0,0,1-1.49,1.52,4.344,4.344,0,0,1-2.135.541,3.976,3.976,0,0,1-3-1.19A4.754,4.754,0,0,1,71.138,82.717Zm1.54,0a3.767,3.767,0,0,0,.741,2.543,2.467,2.467,0,0,0,3.721,0,3.855,3.855,0,0,0,.741-2.589,3.654,3.654,0,0,0-.745-2.485,2.47,2.47,0,0,0-3.717,0A3.751,3.751,0,0,0,72.678,82.717Z" transform="translate(-7.002 -10.633)"/><path class="cls-1" d="M81.176,87.137V78.3h1.349v1.257A3.179,3.179,0,0,1,85.339,78.1a3.692,3.692,0,0,1,1.469.287,2.311,2.311,0,0,1,1,.754,2.889,2.889,0,0,1,.466,1.106A8.635,8.635,0,0,1,88.36,81.7v5.436h-1.5V81.76a4.029,4.029,0,0,0-.175-1.369,1.442,1.442,0,0,0-.62-0.725,1.97,1.97,0,0,0-1.045-.271A2.427,2.427,0,0,0,83.37,80a3,3,0,0,0-.695,2.306v4.828h-1.5Z" transform="translate(-7.002 -10.633)"/><path class="cls-1" d="M567.7,66.681v-12.2h4.6a11.049,11.049,0,0,1,1.856.117,3.686,3.686,0,0,1,1.507.569,2.989,2.989,0,0,1,.979,1.179,3.971,3.971,0,0,1-.621,4.3q-0.99,1.078-3.579,1.078h-3.13v4.961H567.7Zm1.614-6.4h3.155a3.352,3.352,0,0,0,2.223-.582,2.077,2.077,0,0,0,.657-1.641,2.207,2.207,0,0,0-.387-1.311,1.813,1.813,0,0,0-1.02-.72,6.894,6.894,0,0,0-1.507-.108h-3.122V60.28Z" transform="translate(-7.002 -10.633)"/><path class="cls-1" d="M584.931,63.835l1.549,0.191a3.776,3.776,0,0,1-1.356,2.105,4.594,4.594,0,0,1-5.606-.445,4.665,4.665,0,0,1-1.137-3.35,4.881,4.881,0,0,1,1.149-3.463,3.888,3.888,0,0,1,2.979-1.232,3.779,3.779,0,0,1,2.9,1.207,4.8,4.8,0,0,1,1.124,3.4c0,0.089,0,.222-0.009.4h-6.592a3.391,3.391,0,0,0,.824,2.23,2.449,2.449,0,0,0,1.848.774,2.294,2.294,0,0,0,1.406-.433A2.873,2.873,0,0,0,584.931,63.835Zm-4.919-2.423h4.937a3,3,0,0,0-.566-1.673,2.3,2.3,0,0,0-1.856-.865,2.381,2.381,0,0,0-1.735.69A2.736,2.736,0,0,0,580.012,61.412Z" transform="translate(-7.002 -10.633)"/><path class="cls-1" d="M588.345,66.681v-8.84h1.349v1.34a3.663,3.663,0,0,1,.952-1.24,1.671,1.671,0,0,1,.962-0.3,2.92,2.92,0,0,1,1.54.483l-0.517,1.39a2.139,2.139,0,0,0-1.1-.324,1.43,1.43,0,0,0-.882.295,1.6,1.6,0,0,0-.558.82,5.817,5.817,0,0,0-.25,1.748v4.628h-1.5Z" transform="translate(-7.002 -10.633)"/><path class="cls-1" d="M594.4,66.681V59.006h-1.323V57.841H594.4V56.9a4.125,4.125,0,0,1,.158-1.324,1.92,1.92,0,0,1,.762-0.944,2.747,2.747,0,0,1,1.527-.362,7.282,7.282,0,0,1,1.4.15l-0.225,1.307a5,5,0,0,0-.882-0.083,1.313,1.313,0,0,0-.966.291,1.579,1.579,0,0,0-.283,1.09v0.816h1.723v1.165h-1.723v7.675H594.4Z" transform="translate(-7.002 -10.633)"/><path class="cls-1" d="M604.825,63.835l1.549,0.191a3.776,3.776,0,0,1-1.356,2.105,4.594,4.594,0,0,1-5.606-.445,4.665,4.665,0,0,1-1.137-3.35,4.881,4.881,0,0,1,1.149-3.463,3.888,3.888,0,0,1,2.979-1.232,3.779,3.779,0,0,1,2.9,1.207,4.8,4.8,0,0,1,1.124,3.4c0,0.089,0,.222-0.009.4h-6.592a3.391,3.391,0,0,0,.824,2.23,2.449,2.449,0,0,0,1.848.774,2.294,2.294,0,0,0,1.406-.433A2.873,2.873,0,0,0,604.825,63.835Zm-4.919-2.423h4.937a3,3,0,0,0-.566-1.673,2.3,2.3,0,0,0-1.856-.865,2.381,2.381,0,0,0-1.735.69A2.736,2.736,0,0,0,599.906,61.412Z" transform="translate(-7.002 -10.633)"/><path class="cls-1" d="M614.025,63.443l1.473,0.191a3.821,3.821,0,0,1-1.235,2.385,3.6,3.6,0,0,1-2.443.862,3.8,3.8,0,0,1-2.918-1.187,4.812,4.812,0,0,1-1.1-3.4,6.155,6.155,0,0,1,.475-2.506,3.31,3.31,0,0,1,1.444-1.61,4.279,4.279,0,0,1,2.109-.537,3.674,3.674,0,0,1,2.356.729,3.337,3.337,0,0,1,1.173,2.068l-1.456.225a2.418,2.418,0,0,0-.737-1.34,1.9,1.9,0,0,0-1.277-.449,2.326,2.326,0,0,0-1.84.812,3.851,3.851,0,0,0-.707,2.567,3.982,3.982,0,0,0,.683,2.589,2.222,2.222,0,0,0,1.781.808,2.1,2.1,0,0,0,1.474-.541A2.688,2.688,0,0,0,614.025,63.443Z" transform="translate(-7.002 -10.633)"/><path class="cls-1" d="M620.051,65.341l0.216,1.323a5.548,5.548,0,0,1-1.132.133,2.566,2.566,0,0,1-1.266-.258,1.437,1.437,0,0,1-.632-0.679,5.326,5.326,0,0,1-.184-1.769V59.006h-1.1V57.841h1.1V55.652l1.49-.9v3.089h1.507v1.165h-1.507v5.169a2.61,2.61,0,0,0,.079.824,0.627,0.627,0,0,0,.258.292,1.006,1.006,0,0,0,.512.107A4.992,4.992,0,0,0,620.051,65.341Z" transform="translate(-7.002 -10.633)"/><path class="cls-1" d="M561.721,82.86l1.614,0.407a5.428,5.428,0,0,1-1.827,3.034,5.029,5.029,0,0,1-3.226,1.045,5.8,5.8,0,0,1-3.209-.8,5.022,5.022,0,0,1-1.881-2.327,8.307,8.307,0,0,1-.646-3.271,7.194,7.194,0,0,1,.729-3.325,4.989,4.989,0,0,1,2.073-2.156,6.061,6.061,0,0,1,2.959-.736,5,5,0,0,1,3.08.933,4.838,4.838,0,0,1,1.739,2.622l-1.59.374a3.775,3.775,0,0,0-1.231-1.939,3.291,3.291,0,0,0-2.031-.607,3.946,3.946,0,0,0-2.352.674,3.57,3.57,0,0,0-1.328,1.811,7.3,7.3,0,0,0-.383,2.344,7.443,7.443,0,0,0,.454,2.718,3.375,3.375,0,0,0,1.41,1.735,3.96,3.96,0,0,0,2.073.574,3.473,3.473,0,0,0,2.3-.782A4,4,0,0,0,561.721,82.86Z" transform="translate(-7.002 -10.633)"/><path class="cls-1" d="M564.576,82.718a4.554,4.554,0,0,1,1.365-3.638,4.114,4.114,0,0,1,2.779-.982,3.968,3.968,0,0,1,2.98,1.194,4.545,4.545,0,0,1,1.157,3.3,5.855,5.855,0,0,1-.512,2.685,3.634,3.634,0,0,1-1.49,1.52,4.345,4.345,0,0,1-2.136.541,3.974,3.974,0,0,1-3-1.19A4.752,4.752,0,0,1,564.576,82.718Zm1.54,0a3.765,3.765,0,0,0,.74,2.543,2.467,2.467,0,0,0,3.721,0,3.855,3.855,0,0,0,.741-2.589,3.657,3.657,0,0,0-.745-2.485,2.47,2.47,0,0,0-3.717,0A3.748,3.748,0,0,0,566.116,82.718Z" transform="translate(-7.002 -10.633)"/><path class="cls-1" d="M574.6,87.138V78.3h1.349v1.34a3.663,3.663,0,0,1,.952-1.24,1.671,1.671,0,0,1,.962-0.3,2.92,2.92,0,0,1,1.54.483l-0.517,1.39a2.139,2.139,0,0,0-1.1-.324,1.43,1.43,0,0,0-.882.295,1.6,1.6,0,0,0-.558.82,5.817,5.817,0,0,0-.25,1.748v4.628h-1.5Z" transform="translate(-7.002 -10.633)"/><path class="cls-1" d="M580.275,87.138V78.3h1.349v1.34a3.663,3.663,0,0,1,.952-1.24,1.671,1.671,0,0,1,.962-0.3,2.92,2.92,0,0,1,1.54.483l-0.517,1.39a2.139,2.139,0,0,0-1.1-.324,1.43,1.43,0,0,0-.882.295,1.6,1.6,0,0,0-.558.82,5.817,5.817,0,0,0-.25,1.748v4.628h-1.5Z" transform="translate(-7.002 -10.633)"/><path class="cls-1" d="M592.02,84.292l1.549,0.191a3.776,3.776,0,0,1-1.356,2.105,4.594,4.594,0,0,1-5.606-.445,4.665,4.665,0,0,1-1.137-3.35,4.881,4.881,0,0,1,1.149-3.463A3.888,3.888,0,0,1,589.6,78.1a3.779,3.779,0,0,1,2.9,1.207,4.8,4.8,0,0,1,1.124,3.4c0,0.089,0,.222-0.009.4h-6.592a3.391,3.391,0,0,0,.824,2.23,2.449,2.449,0,0,0,1.848.774,2.294,2.294,0,0,0,1.406-.433A2.873,2.873,0,0,0,592.02,84.292ZM587.1,81.869h4.937a3,3,0,0,0-.566-1.673,2.3,2.3,0,0,0-1.856-.865,2.381,2.381,0,0,0-1.735.69A2.736,2.736,0,0,0,587.1,81.869Z" transform="translate(-7.002 -10.633)"/><path class="cls-1" d="M595.416,87.138v-12.2h1.5v12.2h-1.5Z" transform="translate(-7.002 -10.633)"/><path class="cls-1" d="M605.005,86.047a5.6,5.6,0,0,1-1.6,1,4.631,4.631,0,0,1-1.652.292,3.212,3.212,0,0,1-2.239-.712,2.35,2.35,0,0,1-.782-1.819A2.46,2.46,0,0,1,599.8,82.76a3.62,3.62,0,0,1,1.078-.491,10.615,10.615,0,0,1,1.332-.226,13.637,13.637,0,0,0,2.672-.516c0-.205.008-0.336,0.008-0.392a1.657,1.657,0,0,0-.424-1.29,2.512,2.512,0,0,0-1.707-.508,2.646,2.646,0,0,0-1.561.371,2.259,2.259,0,0,0-.745,1.311l-1.465-.2a3.63,3.63,0,0,1,.657-1.519,2.886,2.886,0,0,1,1.324-.891,5.9,5.9,0,0,1,2.006-.312,5.306,5.306,0,0,1,1.84.267,2.427,2.427,0,0,1,1.04.67,2.365,2.365,0,0,1,.466,1.02,8.336,8.336,0,0,1,.075,1.382v2a21.277,21.277,0,0,0,.1,2.643,3.335,3.335,0,0,0,.379,1.062H605.3A3.144,3.144,0,0,1,605.005,86.047ZM604.88,82.7a11.008,11.008,0,0,1-2.447.565,5.686,5.686,0,0,0-1.307.3,1.3,1.3,0,0,0-.592.487,1.325,1.325,0,0,0,.246,1.711,1.956,1.956,0,0,0,1.327.4,3.085,3.085,0,0,0,1.54-.379,2.332,2.332,0,0,0,.991-1.036,3.635,3.635,0,0,0,.241-1.5V82.7Z" transform="translate(-7.002 -10.633)"/><path class="cls-1" d="M611.989,85.8l0.216,1.323a5.548,5.548,0,0,1-1.132.133A2.566,2.566,0,0,1,609.808,87a1.437,1.437,0,0,1-.632-0.679,5.326,5.326,0,0,1-.184-1.769V79.463h-1.1V78.3h1.1V76.109l1.49-.9V78.3h1.507v1.165h-1.507v5.169a2.61,2.61,0,0,0,.079.824,0.627,0.627,0,0,0,.258.292,1.006,1.006,0,0,0,.512.107A4.992,4.992,0,0,0,611.989,85.8Z" transform="translate(-7.002 -10.633)"/><path class="cls-1" d="M613.462,76.659V74.935h1.5v1.724h-1.5Zm0,10.479V78.3h1.5v8.84h-1.5Z" transform="translate(-7.002 -10.633)"/><path class="cls-1" d="M616.684,82.718a4.554,4.554,0,0,1,1.365-3.638,4.114,4.114,0,0,1,2.779-.982,3.968,3.968,0,0,1,2.98,1.194,4.545,4.545,0,0,1,1.157,3.3,5.855,5.855,0,0,1-.512,2.685,3.634,3.634,0,0,1-1.49,1.52,4.345,4.345,0,0,1-2.136.541,3.974,3.974,0,0,1-3-1.19A4.752,4.752,0,0,1,616.684,82.718Zm1.54,0a3.765,3.765,0,0,0,.74,2.543,2.467,2.467,0,0,0,3.721,0,3.855,3.855,0,0,0,.741-2.589,3.657,3.657,0,0,0-.745-2.485,2.47,2.47,0,0,0-3.717,0A3.748,3.748,0,0,0,618.224,82.718Z" transform="translate(-7.002 -10.633)"/><path class="cls-1" d="M626.723,87.138V78.3h1.349v1.257a3.178,3.178,0,0,1,2.813-1.457,3.69,3.69,0,0,1,1.469.287,2.314,2.314,0,0,1,1,.754,2.9,2.9,0,0,1,.466,1.106,8.553,8.553,0,0,1,.084,1.457v5.436h-1.5V81.761a4.017,4.017,0,0,0-.175-1.369,1.44,1.44,0,0,0-.62-0.725,1.967,1.967,0,0,0-1.044-.271,2.425,2.425,0,0,0-1.652.607,3,3,0,0,0-.7,2.306v4.828h-1.5Z" transform="translate(-7.002 -10.633)"/><path class="cls-1" d="M314.091,66.681v-12.2h1.656l6.409,9.581V54.478h1.549v12.2h-1.657l-6.409-9.589v9.589h-1.548Z" transform="translate(-7.002 -10.633)"/><path class="cls-1" d="M325.67,62.261a4.554,4.554,0,0,1,1.365-3.638,4.114,4.114,0,0,1,2.779-.982,3.968,3.968,0,0,1,2.98,1.194,4.545,4.545,0,0,1,1.157,3.3,5.855,5.855,0,0,1-.512,2.685,3.634,3.634,0,0,1-1.49,1.52,4.345,4.345,0,0,1-2.136.541,3.974,3.974,0,0,1-3-1.19A4.752,4.752,0,0,1,325.67,62.261Zm1.54,0a3.765,3.765,0,0,0,.74,2.543,2.467,2.467,0,0,0,3.721,0,3.855,3.855,0,0,0,.741-2.589,3.657,3.657,0,0,0-.745-2.485,2.47,2.47,0,0,0-3.717,0A3.748,3.748,0,0,0,327.21,62.261Z" transform="translate(-7.002 -10.633)"/><path class="cls-1" d="M292.02,82.86l1.615,0.407a5.43,5.43,0,0,1-1.827,3.034,5.029,5.029,0,0,1-3.225,1.045,5.8,5.8,0,0,1-3.209-.8,5.02,5.02,0,0,1-1.881-2.327,8.3,8.3,0,0,1-.645-3.271,7.194,7.194,0,0,1,.728-3.325,4.994,4.994,0,0,1,2.073-2.156,6.067,6.067,0,0,1,2.959-.736,5,5,0,0,1,3.08.933,4.839,4.839,0,0,1,1.74,2.622l-1.59.374a3.772,3.772,0,0,0-1.232-1.939,3.287,3.287,0,0,0-2.031-.607,3.946,3.946,0,0,0-2.352.674,3.564,3.564,0,0,0-1.328,1.811,7.291,7.291,0,0,0-.383,2.344,7.454,7.454,0,0,0,.454,2.718,3.379,3.379,0,0,0,1.411,1.735,3.958,3.958,0,0,0,2.073.574,3.475,3.475,0,0,0,2.3-.782A4.006,4.006,0,0,0,292.02,82.86Z" transform="translate(-7.002 -10.633)"/><path class="cls-1" d="M294.875,82.718a4.557,4.557,0,0,1,1.365-3.638,4.115,4.115,0,0,1,2.78-.982A3.97,3.97,0,0,1,302,79.293a4.545,4.545,0,0,1,1.156,3.3,5.843,5.843,0,0,1-.512,2.685,3.628,3.628,0,0,1-1.49,1.52,4.341,4.341,0,0,1-2.135.541,3.975,3.975,0,0,1-3-1.19A4.754,4.754,0,0,1,294.875,82.718Zm1.54,0a3.767,3.767,0,0,0,.741,2.543,2.467,2.467,0,0,0,3.72,0,3.855,3.855,0,0,0,.742-2.589,3.657,3.657,0,0,0-.746-2.485,2.47,2.47,0,0,0-3.716,0A3.751,3.751,0,0,0,296.415,82.718Z" transform="translate(-7.002 -10.633)"/><path class="cls-1" d="M304.9,87.138V78.3h1.349v1.34a3.663,3.663,0,0,1,.952-1.24,1.671,1.671,0,0,1,.962-0.3,2.92,2.92,0,0,1,1.54.483l-0.517,1.39a2.139,2.139,0,0,0-1.1-.324,1.43,1.43,0,0,0-.882.295,1.6,1.6,0,0,0-.558.82,5.817,5.817,0,0,0-.25,1.748v4.628h-1.5Z" transform="translate(-7.002 -10.633)"/><path class="cls-1" d="M310.574,87.138V78.3h1.349v1.34a3.663,3.663,0,0,1,.952-1.24,1.671,1.671,0,0,1,.962-0.3,2.92,2.92,0,0,1,1.54.483l-0.517,1.39a2.139,2.139,0,0,0-1.1-.324,1.43,1.43,0,0,0-.882.295,1.6,1.6,0,0,0-.558.82,5.817,5.817,0,0,0-.25,1.748v4.628h-1.5Z" transform="translate(-7.002 -10.633)"/><path class="cls-1" d="M322.32,84.292l1.549,0.191a3.776,3.776,0,0,1-1.356,2.105,4.594,4.594,0,0,1-5.606-.445,4.665,4.665,0,0,1-1.137-3.35,4.881,4.881,0,0,1,1.149-3.463A3.888,3.888,0,0,1,319.9,78.1a3.779,3.779,0,0,1,2.9,1.207,4.8,4.8,0,0,1,1.124,3.4c0,0.089,0,.222-0.009.4h-6.592a3.391,3.391,0,0,0,.824,2.23,2.449,2.449,0,0,0,1.848.774,2.294,2.294,0,0,0,1.406-.433A2.873,2.873,0,0,0,322.32,84.292ZM317.4,81.869h4.937a3,3,0,0,0-.566-1.673,2.3,2.3,0,0,0-1.856-.865,2.381,2.381,0,0,0-1.735.69A2.736,2.736,0,0,0,317.4,81.869Z" transform="translate(-7.002 -10.633)"/><path class="cls-1" d="M325.716,87.138v-12.2h1.5v12.2h-1.5Z" transform="translate(-7.002 -10.633)"/><path class="cls-1" d="M335.3,86.047a5.6,5.6,0,0,1-1.6,1,4.631,4.631,0,0,1-1.652.292,3.212,3.212,0,0,1-2.239-.712,2.35,2.35,0,0,1-.782-1.819A2.46,2.46,0,0,1,330.1,82.76a3.62,3.62,0,0,1,1.078-.491,10.615,10.615,0,0,1,1.332-.226,13.637,13.637,0,0,0,2.672-.516c0-.205.008-0.336,0.008-0.392a1.657,1.657,0,0,0-.424-1.29,2.512,2.512,0,0,0-1.707-.508,2.646,2.646,0,0,0-1.561.371,2.259,2.259,0,0,0-.745,1.311l-1.465-.2a3.63,3.63,0,0,1,.657-1.519,2.886,2.886,0,0,1,1.324-.891,5.9,5.9,0,0,1,2.006-.312,5.306,5.306,0,0,1,1.84.267,2.427,2.427,0,0,1,1.04.67,2.365,2.365,0,0,1,.466,1.02,8.336,8.336,0,0,1,.075,1.382v2a21.277,21.277,0,0,0,.1,2.643,3.335,3.335,0,0,0,.379,1.062H335.6A3.144,3.144,0,0,1,335.3,86.047ZM335.18,82.7a11.008,11.008,0,0,1-2.447.565,5.686,5.686,0,0,0-1.307.3,1.3,1.3,0,0,0-.592.487,1.325,1.325,0,0,0,.246,1.711,1.956,1.956,0,0,0,1.327.4,3.085,3.085,0,0,0,1.54-.379,2.332,2.332,0,0,0,.991-1.036,3.635,3.635,0,0,0,.241-1.5V82.7Z" transform="translate(-7.002 -10.633)"/><path class="cls-1" d="M342.289,85.8l0.216,1.323a5.548,5.548,0,0,1-1.132.133A2.566,2.566,0,0,1,340.108,87a1.437,1.437,0,0,1-.632-0.679,5.326,5.326,0,0,1-.184-1.769V79.463h-1.1V78.3h1.1V76.109l1.49-.9V78.3h1.507v1.165h-1.507v5.169a2.61,2.61,0,0,0,.079.824,0.627,0.627,0,0,0,.258.292,1.006,1.006,0,0,0,.512.107A4.992,4.992,0,0,0,342.289,85.8Z" transform="translate(-7.002 -10.633)"/><path class="cls-1" d="M343.762,76.659V74.935h1.5v1.724h-1.5Zm0,10.479V78.3h1.5v8.84h-1.5Z" transform="translate(-7.002 -10.633)"/><path class="cls-1" d="M346.984,82.718a4.554,4.554,0,0,1,1.365-3.638,4.114,4.114,0,0,1,2.779-.982,3.968,3.968,0,0,1,2.98,1.194,4.545,4.545,0,0,1,1.157,3.3,5.855,5.855,0,0,1-.512,2.685,3.634,3.634,0,0,1-1.49,1.52,4.345,4.345,0,0,1-2.136.541,3.974,3.974,0,0,1-3-1.19A4.752,4.752,0,0,1,346.984,82.718Zm1.54,0a3.765,3.765,0,0,0,.74,2.543,2.467,2.467,0,0,0,3.721,0,3.855,3.855,0,0,0,.741-2.589,3.657,3.657,0,0,0-.745-2.485,2.47,2.47,0,0,0-3.717,0A3.748,3.748,0,0,0,348.524,82.718Z" transform="translate(-7.002 -10.633)"/><path class="cls-1" d="M357.023,87.138V78.3h1.349v1.257a3.178,3.178,0,0,1,2.813-1.457,3.69,3.69,0,0,1,1.469.287,2.314,2.314,0,0,1,1,.754,2.9,2.9,0,0,1,.466,1.106,8.553,8.553,0,0,1,.084,1.457v5.436h-1.5V81.761a4.017,4.017,0,0,0-.175-1.369,1.44,1.44,0,0,0-.62-0.725,1.967,1.967,0,0,0-1.044-.271,2.425,2.425,0,0,0-1.652.607,3,3,0,0,0-.7,2.306v4.828h-1.5Z" transform="translate(-7.002 -10.633)"/><path class="cls-4" d="M335.833,222.724v-12.2h1.614v10.763h6.01v1.44h-7.624Z" transform="translate(-7.002 -10.633)"/><path class="cls-4" d="M345.315,222.724v-12.2h4.578a5.665,5.665,0,0,1,2.243.371,2.886,2.886,0,0,1,1.323,1.14,3.007,3.007,0,0,1,.479,1.611,2.762,2.762,0,0,1-.425,1.473,3.018,3.018,0,0,1-1.281,1.115,3.192,3.192,0,0,1,1.7,1.107,2.966,2.966,0,0,1,.595,1.848,3.567,3.567,0,0,1-.361,1.595,3.092,3.092,0,0,1-.9,1.136,3.716,3.716,0,0,1-1.336.6,8.132,8.132,0,0,1-1.969.2h-4.652Zm1.614-7.075h2.639a5.87,5.87,0,0,0,1.54-.142,1.712,1.712,0,0,0,.928-0.607,1.746,1.746,0,0,0,.313-1.065,1.965,1.965,0,0,0-.291-1.07,1.472,1.472,0,0,0-.833-0.632,6.924,6.924,0,0,0-1.855-.171h-2.439v3.688Zm0,5.635h3.038a6.988,6.988,0,0,0,1.1-.058,2.633,2.633,0,0,0,.933-0.333,1.768,1.768,0,0,0,.616-0.679,2.122,2.122,0,0,0,.241-1.028,2.026,2.026,0,0,0-.35-1.186,1.85,1.85,0,0,0-.97-0.708,6.017,6.017,0,0,0-1.785-.2h-2.822v4.2Z" transform="translate(-7.002 -10.633)"/><path class="cls-4" d="M355.436,222.932l3.538-12.619h1.2l-3.529,12.619h-1.207Z" transform="translate(-7.002 -10.633)"/><path class="cls-4" d="M361.421,222.724v-12.2H366a5.665,5.665,0,0,1,2.243.371,2.886,2.886,0,0,1,1.323,1.14,3.007,3.007,0,0,1,.479,1.611,2.762,2.762,0,0,1-.425,1.473,3.018,3.018,0,0,1-1.281,1.115,3.192,3.192,0,0,1,1.7,1.107,2.966,2.966,0,0,1,.595,1.848,3.567,3.567,0,0,1-.361,1.595,3.092,3.092,0,0,1-.9,1.136,3.716,3.716,0,0,1-1.336.6,8.132,8.132,0,0,1-1.969.2h-4.652Zm1.614-7.075h2.639a5.87,5.87,0,0,0,1.54-.142,1.712,1.712,0,0,0,.928-0.607,1.746,1.746,0,0,0,.313-1.065,1.965,1.965,0,0,0-.291-1.07,1.472,1.472,0,0,0-.833-0.632,6.924,6.924,0,0,0-1.855-.171h-2.439v3.688Zm0,5.635h3.038a6.988,6.988,0,0,0,1.1-.058,2.633,2.633,0,0,0,.933-0.333,1.768,1.768,0,0,0,.616-0.679,2.122,2.122,0,0,0,.241-1.028,2.026,2.026,0,0,0-.35-1.186,1.85,1.85,0,0,0-.97-0.708,6.017,6.017,0,0,0-1.785-.2h-2.822v4.2Z" transform="translate(-7.002 -10.633)"/><path class="cls-4" d="M378.435,221.633a5.6,5.6,0,0,1-1.6,1,4.631,4.631,0,0,1-1.652.292,3.212,3.212,0,0,1-2.239-.712,2.35,2.35,0,0,1-.782-1.819,2.46,2.46,0,0,1,1.069-2.047,3.62,3.62,0,0,1,1.078-.491,10.615,10.615,0,0,1,1.332-.226,13.637,13.637,0,0,0,2.672-.516c0-.205.008-0.336,0.008-0.392a1.657,1.657,0,0,0-.424-1.29,2.512,2.512,0,0,0-1.707-.508,2.646,2.646,0,0,0-1.561.371,2.259,2.259,0,0,0-.745,1.311l-1.465-.2a3.63,3.63,0,0,1,.657-1.519A2.886,2.886,0,0,1,374.4,214a5.9,5.9,0,0,1,2.006-.312,5.306,5.306,0,0,1,1.84.267,2.427,2.427,0,0,1,1.04.67,2.365,2.365,0,0,1,.466,1.02,8.336,8.336,0,0,1,.075,1.382v2a21.277,21.277,0,0,0,.1,2.643,3.335,3.335,0,0,0,.379,1.062h-1.564A3.144,3.144,0,0,1,378.435,221.633Zm-0.125-3.346a11.008,11.008,0,0,1-2.447.565,5.686,5.686,0,0,0-1.307.3,1.3,1.3,0,0,0-.592.487,1.325,1.325,0,0,0,.246,1.711,1.956,1.956,0,0,0,1.327.4,3.085,3.085,0,0,0,1.54-.379,2.332,2.332,0,0,0,.991-1.036,3.635,3.635,0,0,0,.241-1.5v-0.549Z" transform="translate(-7.002 -10.633)"/><path class="cls-4" d="M382.131,222.724v-8.84h1.349v1.34a3.663,3.663,0,0,1,.952-1.24,1.671,1.671,0,0,1,.962-0.3,2.92,2.92,0,0,1,1.54.483l-0.517,1.39a2.139,2.139,0,0,0-1.1-.324,1.43,1.43,0,0,0-.882.295,1.6,1.6,0,0,0-.558.82,5.817,5.817,0,0,0-.25,1.748v4.628h-1.5Z" transform="translate(-7.002 -10.633)"/><path class="cls-4" d="M398.462,217.938v-1.432l5.169-.009v4.528a9.13,9.13,0,0,1-2.455,1.428,7.282,7.282,0,0,1-2.6.479,6.936,6.936,0,0,1-3.267-.77,5.1,5.1,0,0,1-2.219-2.227,7.02,7.02,0,0,1-.749-3.255,7.546,7.546,0,0,1,.745-3.325,4.955,4.955,0,0,1,2.144-2.294,6.72,6.72,0,0,1,3.222-.749,6.374,6.374,0,0,1,2.393.429,3.973,3.973,0,0,1,1.678,1.194,5.314,5.314,0,0,1,.924,2l-1.457.4a4.493,4.493,0,0,0-.683-1.465,2.8,2.8,0,0,0-1.165-.854,4.287,4.287,0,0,0-1.682-.32,4.95,4.95,0,0,0-1.914.337,3.565,3.565,0,0,0-1.3.887,4.219,4.219,0,0,0-.771,1.207,6.39,6.39,0,0,0-.466,2.455,5.965,5.965,0,0,0,.562,2.73,3.6,3.6,0,0,0,1.636,1.632,5.061,5.061,0,0,0,2.281.532,5.4,5.4,0,0,0,2.047-.4,5.319,5.319,0,0,0,1.516-.861v-2.272h-3.588Z" transform="translate(-7.002 -10.633)"/><path class="cls-4" d="M414.719,218.446l1.614,0.407a5.428,5.428,0,0,1-1.827,3.034,5.029,5.029,0,0,1-3.226,1.045,5.8,5.8,0,0,1-3.209-.8,5.022,5.022,0,0,1-1.881-2.327,8.307,8.307,0,0,1-.646-3.271,7.194,7.194,0,0,1,.729-3.325,4.989,4.989,0,0,1,2.073-2.156,6.061,6.061,0,0,1,2.959-.736,5,5,0,0,1,3.08.933,4.838,4.838,0,0,1,1.739,2.622l-1.59.374A3.775,3.775,0,0,0,413.3,212.3a3.291,3.291,0,0,0-2.031-.607,3.946,3.946,0,0,0-2.352.674,3.57,3.57,0,0,0-1.328,1.811,7.3,7.3,0,0,0-.383,2.344,7.443,7.443,0,0,0,.454,2.718,3.375,3.375,0,0,0,1.41,1.735,3.96,3.96,0,0,0,2.073.574,3.473,3.473,0,0,0,2.3-.782A4,4,0,0,0,414.719,218.446Z" transform="translate(-7.002 -10.633)"/><path class="cls-4" d="M334.584,225.155v-1.249h82.424v1.249H334.584Z" transform="translate(-7.002 -10.633)"/><path class="cls-4" d="M560.836,218.8l1.523-.133a3.36,3.36,0,0,0,.5,1.5,2.747,2.747,0,0,0,1.228.949,4.65,4.65,0,0,0,1.873.362,4.494,4.494,0,0,0,1.631-.274,2.269,2.269,0,0,0,1.054-.754,1.749,1.749,0,0,0,.345-1.044,1.585,1.585,0,0,0-.333-1,2.469,2.469,0,0,0-1.1-.72,21.286,21.286,0,0,0-2.172-.595,11.165,11.165,0,0,1-2.356-.762,3.315,3.315,0,0,1-1.3-1.137,2.787,2.787,0,0,1-.428-1.519,3.1,3.1,0,0,1,.524-1.728,3.252,3.252,0,0,1,1.531-1.22,5.811,5.811,0,0,1,2.239-.416,6.1,6.1,0,0,1,2.393.438,3.448,3.448,0,0,1,1.595,1.286,3.692,3.692,0,0,1,.6,1.923l-1.548.116a2.5,2.5,0,0,0-.845-1.748,3.288,3.288,0,0,0-2.127-.591,3.415,3.415,0,0,0-2.135.536,1.611,1.611,0,0,0-.671,1.295,1.387,1.387,0,0,0,.475,1.082,6.428,6.428,0,0,0,2.435.87,16.032,16.032,0,0,1,2.7.778,3.691,3.691,0,0,1,1.573,1.244,3.029,3.029,0,0,1,.508,1.735,3.318,3.318,0,0,1-.558,1.836,3.666,3.666,0,0,1-1.6,1.34,5.574,5.574,0,0,1-2.351.479,7.032,7.032,0,0,1-2.776-.482A3.9,3.9,0,0,1,561.506,221,4.125,4.125,0,0,1,560.836,218.8Z" transform="translate(-7.002 -10.633)"/><path class="cls-4" d="M579.54,221.284a5.1,5.1,0,0,1-1.615,1.236,4.381,4.381,0,0,1-1.89.412,3.734,3.734,0,0,1-2.972-1.266,3.44,3.44,0,0,1-.891-2.306,3.192,3.192,0,0,1,.729-2.043,6.081,6.081,0,0,1,2.177-1.6,7.269,7.269,0,0,1-1.1-1.54,2.7,2.7,0,0,1-.275-1.141,2.543,2.543,0,0,1,.862-1.91,3.037,3.037,0,0,1,2.168-.812,2.829,2.829,0,0,1,2.044.766,2.467,2.467,0,0,1,.795,1.84q0,1.74-2.306,2.972l2.188,2.788a6.908,6.908,0,0,0,.583-1.7l1.557,0.333a8.489,8.489,0,0,1-1.082,2.63,8.673,8.673,0,0,0,1.906,1.873l-1.008,1.19A8.717,8.717,0,0,1,579.54,221.284ZM578.6,220.1l-2.746-3.4a5.263,5.263,0,0,0-1.641,1.344,2.176,2.176,0,0,0-.424,1.229,2.612,2.612,0,0,0,.591,1.54,1.958,1.958,0,0,0,1.673.8,2.768,2.768,0,0,0,1.395-.421A3.38,3.38,0,0,0,578.6,220.1Zm-2.105-5.178a3.986,3.986,0,0,0,1.261-1.007,1.7,1.7,0,0,0,.287-0.957,1.381,1.381,0,0,0-.4-1.021,1.341,1.341,0,0,0-.986-0.395,1.394,1.394,0,0,0-1.011.391,1.281,1.281,0,0,0-.4.957,1.4,1.4,0,0,0,.146.6,3.1,3.1,0,0,0,.437.662Z" transform="translate(-7.002 -10.633)"/><path class="cls-4" d="M584.127,222.724v-12.2h4.6a11.049,11.049,0,0,1,1.856.117,3.686,3.686,0,0,1,1.507.569,2.989,2.989,0,0,1,.979,1.179,3.971,3.971,0,0,1-.621,4.3q-0.99,1.078-3.579,1.078h-3.13v4.961h-1.614Zm1.614-6.4H588.9a3.352,3.352,0,0,0,2.223-.582,2.077,2.077,0,0,0,.657-1.641,2.207,2.207,0,0,0-.387-1.311,1.813,1.813,0,0,0-1.02-.72,6.894,6.894,0,0,0-1.507-.108h-3.122v4.361Z" transform="translate(-7.002 -10.633)"/><path class="cls-4" d="M599.319,219.528l1.573-.133a2.816,2.816,0,0,0,.812,1.727,2.2,2.2,0,0,0,1.535.579,2.391,2.391,0,0,0,1.831-.816,3.071,3.071,0,0,0,.75-2.164,2.777,2.777,0,0,0-.721-2.022,2.509,2.509,0,0,0-1.885-.741,2.609,2.609,0,0,0-1.308.329,2.536,2.536,0,0,0-.915.854l-1.407-.184,1.183-6.268h6.067v1.432h-4.869l-0.657,3.279a3.969,3.969,0,0,1,2.306-.766,3.65,3.65,0,0,1,2.7,1.107,3.864,3.864,0,0,1,1.1,2.847,4.444,4.444,0,0,1-.966,2.863,3.869,3.869,0,0,1-3.205,1.481,3.946,3.946,0,0,1-2.718-.933A3.634,3.634,0,0,1,599.319,219.528Z" transform="translate(-7.002 -10.633)"/><path class="cls-4" d="M608.8,216.706a11.14,11.14,0,0,1,.445-3.483,4.326,4.326,0,0,1,1.323-2.035,3.381,3.381,0,0,1,2.21-.716,3.605,3.605,0,0,1,1.723.4,3.286,3.286,0,0,1,1.224,1.141,6.114,6.114,0,0,1,.758,1.814,12.084,12.084,0,0,1,.274,2.884,11.169,11.169,0,0,1-.441,3.467,4.332,4.332,0,0,1-1.319,2.04,3.384,3.384,0,0,1-2.218.72,3.349,3.349,0,0,1-2.772-1.266Q608.8,220.145,608.8,216.706Zm1.539,0q0,3.006.7,4a2.009,2.009,0,0,0,3.471,0q0.7-1,.7-4,0-3.013-.7-4a2.087,2.087,0,0,0-1.752-.99,1.92,1.92,0,0,0-1.648.874A7.744,7.744,0,0,0,610.338,216.706Z" transform="translate(-7.002 -10.633)"/><path class="cls-4" d="M618.28,216.706a11.14,11.14,0,0,1,.445-3.483,4.326,4.326,0,0,1,1.323-2.035,3.381,3.381,0,0,1,2.21-.716,3.605,3.605,0,0,1,1.723.4,3.286,3.286,0,0,1,1.224,1.141,6.114,6.114,0,0,1,.758,1.814,12.084,12.084,0,0,1,.274,2.884,11.169,11.169,0,0,1-.441,3.467,4.332,4.332,0,0,1-1.319,2.04,3.384,3.384,0,0,1-2.218.72,3.349,3.349,0,0,1-2.772-1.266Q618.279,220.145,618.28,216.706Zm1.539,0q0,3.006.7,4a2.009,2.009,0,0,0,3.471,0q0.7-1,.7-4,0-3.013-.7-4a2.087,2.087,0,0,0-1.752-.99,1.92,1.92,0,0,0-1.648.874A7.744,7.744,0,0,0,619.82,216.706Z" transform="translate(-7.002 -10.633)"/><path class="cls-4" d="M560.07,225.155v-1.249h66.982v1.249H560.07Z" transform="translate(-7.002 -10.633)"/><line class="cls-5" x1="364.542" y1="195.009" x2="364.372" y2="169.873"/><polygon class="cls-5" points="359.949 169.903 364.32 162.213 368.794 169.843 359.949 169.903"/><line class="cls-5" x1="586.557" y1="193.925" x2="586.387" y2="168.788"/><polygon class="cls-5" points="581.964 168.818 586.335 161.128 590.81 168.758 581.964 168.818"/></svg>