<svg id="Layer_1" data-name="Layer 1" xmlns="http://www.w3.org/2000/svg" viewBox="0 0 400.561 277.859"><defs><style>.cls-1,.cls-3{fill:#fff;}.cls-1{stroke:#28538c;stroke-miterlimit:10;}.cls-2{fill:#28538c;}.cls-4{fill:#231f20;}.cls-5{fill:#28548c;}</style></defs><title>Strategic_Asset_Allocation</title><rect class="cls-1" x="0.665" y="0.5" width="152.55" height="127.61"/><rect class="cls-2" x="0.665" y="0.5" width="152.55" height="45.897"/><path class="cls-3" d="M28.493,33.984L30.2,34.414a5.74,5.74,0,0,1-1.929,3.2,5.316,5.316,0,0,1-3.406,1.1,6.12,6.12,0,0,1-3.388-.848,5.3,5.3,0,0,1-1.986-2.457,8.765,8.765,0,0,1-.681-3.454,7.592,7.592,0,0,1,.769-3.511,5.269,5.269,0,0,1,2.188-2.276A6.394,6.394,0,0,1,24.89,25.4a5.282,5.282,0,0,1,3.252.984,5.112,5.112,0,0,1,1.837,2.769l-1.679.4A3.982,3.982,0,0,0,27,27.5a3.466,3.466,0,0,0-2.145-.642,4.166,4.166,0,0,0-2.483.712,3.759,3.759,0,0,0-1.4,1.912,7.7,7.7,0,0,0-.4,2.474,7.862,7.862,0,0,0,.479,2.87,3.568,3.568,0,0,0,1.49,1.833,4.178,4.178,0,0,0,2.188.606,3.667,3.667,0,0,0,2.426-.826A4.228,4.228,0,0,0,28.493,33.984Z" transform="translate(-8.661 -9.529)"/><path class="cls-3" d="M32.062,38.5V25.617h1.582V38.5H32.062Z" transform="translate(-8.661 -9.529)"/><path class="cls-3" d="M36.1,27.436V25.617h1.582v1.819H36.1Zm0,11.065V29.167h1.582V38.5H36.1Z" transform="translate(-8.661 -9.529)"/><path class="cls-3" d="M46.485,35.5l1.635,0.2a3.989,3.989,0,0,1-1.433,2.224,4.853,4.853,0,0,1-5.919-.47,4.928,4.928,0,0,1-1.2-3.538,5.158,5.158,0,0,1,1.213-3.656,4.106,4.106,0,0,1,3.146-1.3,3.99,3.99,0,0,1,3.059,1.274,5.064,5.064,0,0,1,1.187,3.586q0,0.141-.009.422H41.2a3.587,3.587,0,0,0,.87,2.355,2.59,2.59,0,0,0,1.951.817,2.421,2.421,0,0,0,1.485-.457A3.034,3.034,0,0,0,46.485,35.5ZM41.29,32.938H46.5a3.162,3.162,0,0,0-.6-1.767,2.425,2.425,0,0,0-1.96-.914,2.513,2.513,0,0,0-1.833.729A2.887,2.887,0,0,0,41.29,32.938Z" transform="translate(-8.661 -9.529)"/><path class="cls-3" d="M50.106,38.5V29.167h1.424v1.327A3.355,3.355,0,0,1,54.5,28.956a3.9,3.9,0,0,1,1.551.3,2.44,2.44,0,0,1,1.059.8,3.053,3.053,0,0,1,.492,1.169,9.059,9.059,0,0,1,.088,1.538V38.5H56.109V32.824a4.262,4.262,0,0,0-.185-1.446,1.521,1.521,0,0,0-.655-0.765,2.083,2.083,0,0,0-1.1-.286,2.563,2.563,0,0,0-1.745.642,3.165,3.165,0,0,0-.734,2.435v5.1H50.106Z" transform="translate(-8.661 -9.529)"/><path class="cls-3" d="M63.57,37.086l0.229,1.4a5.868,5.868,0,0,1-1.2.141,2.706,2.706,0,0,1-1.336-.272,1.526,1.526,0,0,1-.668-0.716,5.664,5.664,0,0,1-.193-1.868V30.4h-1.16v-1.23h1.16V26.856l1.573-.949v3.261H63.57V30.4H61.98v5.458a2.757,2.757,0,0,0,.083.87,0.659,0.659,0,0,0,.272.308,1.052,1.052,0,0,0,.541.114A5.146,5.146,0,0,0,63.57,37.086Z" transform="translate(-8.661 -9.529)"/><path class="cls-3" d="M76.35,33.448V31.936l5.458-.009v4.781a9.638,9.638,0,0,1-2.593,1.507,7.69,7.69,0,0,1-2.742.505,7.317,7.317,0,0,1-3.45-.813,5.374,5.374,0,0,1-2.342-2.351,7.4,7.4,0,0,1-.791-3.437,7.974,7.974,0,0,1,.787-3.511,5.231,5.231,0,0,1,2.263-2.421,7.092,7.092,0,0,1,3.4-.791,6.739,6.739,0,0,1,2.527.453,4.189,4.189,0,0,1,1.771,1.261,5.594,5.594,0,0,1,.976,2.109l-1.538.422a4.76,4.76,0,0,0-.721-1.547,2.957,2.957,0,0,0-1.23-.9,4.513,4.513,0,0,0-1.775-.338,5.228,5.228,0,0,0-2.021.356,3.773,3.773,0,0,0-1.375.936,4.464,4.464,0,0,0-.813,1.274,6.743,6.743,0,0,0-.492,2.593,6.291,6.291,0,0,0,.593,2.883,3.8,3.8,0,0,0,1.727,1.723,5.347,5.347,0,0,0,2.408.563,5.721,5.721,0,0,0,2.162-.426,5.58,5.58,0,0,0,1.6-.91v-2.4H76.35Z" transform="translate(-8.661 -9.529)"/><path class="cls-3" d="M83.53,33.834a4.811,4.811,0,0,1,1.441-3.841,4.343,4.343,0,0,1,2.936-1.037,4.188,4.188,0,0,1,3.146,1.261A4.8,4.8,0,0,1,92.276,33.7a6.175,6.175,0,0,1-.541,2.834,3.826,3.826,0,0,1-1.573,1.6,4.58,4.58,0,0,1-2.254.571,4.2,4.2,0,0,1-3.168-1.257A5.02,5.02,0,0,1,83.53,33.834Zm1.626,0a3.976,3.976,0,0,0,.782,2.685,2.6,2.6,0,0,0,3.929,0,4.07,4.07,0,0,0,.782-2.733,3.856,3.856,0,0,0-.787-2.624,2.608,2.608,0,0,0-3.924,0A3.958,3.958,0,0,0,85.156,33.834Z" transform="translate(-8.661 -9.529)"/><path class="cls-3" d="M100.221,37.35A5.891,5.891,0,0,1,98.529,38.4a4.889,4.889,0,0,1-1.745.308,3.393,3.393,0,0,1-2.364-.751,2.48,2.48,0,0,1-.826-1.92,2.554,2.554,0,0,1,.312-1.252,2.583,2.583,0,0,1,.817-0.91,3.844,3.844,0,0,1,1.138-.519,11.3,11.3,0,0,1,1.406-.237,14.46,14.46,0,0,0,2.821-.545q0.009-.325.009-0.413A1.747,1.747,0,0,0,99.65,30.8a2.648,2.648,0,0,0-1.8-.536,2.794,2.794,0,0,0-1.648.391,2.39,2.39,0,0,0-.787,1.384l-1.547-.211a3.833,3.833,0,0,1,.694-1.6,3.043,3.043,0,0,1,1.4-.94,6.233,6.233,0,0,1,2.118-.33,5.606,5.606,0,0,1,1.942.281,2.559,2.559,0,0,1,1.1.708,2.488,2.488,0,0,1,.492,1.077,8.908,8.908,0,0,1,.079,1.459V34.59a22.389,22.389,0,0,0,.1,2.791,3.521,3.521,0,0,0,.4,1.121h-1.652A3.354,3.354,0,0,1,100.221,37.35Zm-0.132-3.533a11.607,11.607,0,0,1-2.584.6,5.977,5.977,0,0,0-1.38.316,1.376,1.376,0,0,0-.624.514,1.4,1.4,0,0,0,.259,1.806,2.061,2.061,0,0,0,1.4.422,3.263,3.263,0,0,0,1.626-.4,2.463,2.463,0,0,0,1.046-1.094,3.822,3.822,0,0,0,.255-1.582v-0.58Z" transform="translate(-8.661 -9.529)"/><path class="cls-3" d="M104.106,38.5V25.617h1.582V38.5h-1.582Z" transform="translate(-8.661 -9.529)"/><path class="cls-3" d="M107.507,35.715l1.564-.246a2.187,2.187,0,0,0,.734,1.441,2.558,2.558,0,0,0,1.683.5,2.473,2.473,0,0,0,1.617-.444,1.327,1.327,0,0,0,.527-1.042,0.961,0.961,0,0,0-.466-0.844,6.861,6.861,0,0,0-1.617-.536,14.757,14.757,0,0,1-2.413-.76,2.3,2.3,0,0,1-1.367-2.14,2.4,2.4,0,0,1,.286-1.156,2.561,2.561,0,0,1,.778-0.883,3.261,3.261,0,0,1,1.006-.461,4.785,4.785,0,0,1,1.367-.189,5.4,5.4,0,0,1,1.929.316,2.624,2.624,0,0,1,1.226.857,3.349,3.349,0,0,1,.545,1.446l-1.547.211a1.692,1.692,0,0,0-.611-1.125,2.234,2.234,0,0,0-1.428-.4,2.586,2.586,0,0,0-1.556.36,1.049,1.049,0,0,0-.466.844,0.873,0.873,0,0,0,.193.554,1.4,1.4,0,0,0,.606.422q0.237,0.088,1.4.4a19.454,19.454,0,0,1,2.342.734,2.376,2.376,0,0,1,1.042.831,2.318,2.318,0,0,1,.378,1.354,2.656,2.656,0,0,1-.461,1.49,2.982,2.982,0,0,1-1.332,1.081,4.847,4.847,0,0,1-1.969.382,4.386,4.386,0,0,1-2.773-.756A3.515,3.515,0,0,1,107.507,35.715Z" transform="translate(-8.661 -9.529)"/><path class="cls-3" d="M17.911,41.068V39.749h98.042v1.318H17.911Z" transform="translate(-8.661 -9.529)"/><path class="cls-4" d="M36.7,75.041a2.228,2.228,0,0,1,2.224-2.224,2.158,2.158,0,0,1,1.578.65A2.226,2.226,0,1,1,36.7,75.041Z" transform="translate(-8.661 -9.529)"/><path class="cls-4" d="M53.461,81.351V68.467h5.713a7.6,7.6,0,0,1,2.619.347,2.864,2.864,0,0,1,1.433,1.226,3.658,3.658,0,0,1,.536,1.942,3.24,3.24,0,0,1-.888,2.312,4.492,4.492,0,0,1-2.742,1.2,4.422,4.422,0,0,1,1.028.642,8.86,8.86,0,0,1,1.415,1.714l2.241,3.507H62.672l-1.705-2.681q-0.747-1.16-1.23-1.775a3.869,3.869,0,0,0-.866-0.861,2.559,2.559,0,0,0-.778-0.343,5.122,5.122,0,0,0-.949-0.062H55.166v5.722H53.461Zm1.705-7.2h3.665a5.5,5.5,0,0,0,1.828-.242,1.945,1.945,0,0,0,1-.773A2.092,2.092,0,0,0,62,71.982a1.92,1.92,0,0,0-.664-1.5,3.1,3.1,0,0,0-2.1-.589H55.166v4.263Z" transform="translate(-8.661 -9.529)"/><path class="cls-4" d="M72.621,78.346l1.635,0.2a3.989,3.989,0,0,1-1.433,2.224A4.853,4.853,0,0,1,66.9,80.3a4.928,4.928,0,0,1-1.2-3.538,5.158,5.158,0,0,1,1.213-3.656,4.106,4.106,0,0,1,3.146-1.3,3.99,3.99,0,0,1,3.059,1.274,5.064,5.064,0,0,1,1.187,3.586q0,0.141-.009.422H67.339a3.587,3.587,0,0,0,.87,2.355,2.59,2.59,0,0,0,1.951.817,2.421,2.421,0,0,0,1.485-.457A3.034,3.034,0,0,0,72.621,78.346Zm-5.194-2.558h5.212a3.162,3.162,0,0,0-.6-1.767,2.425,2.425,0,0,0-1.96-.914,2.513,2.513,0,0,0-1.833.729A2.887,2.887,0,0,0,67.426,75.788Z" transform="translate(-8.661 -9.529)"/><path class="cls-4" d="M79.7,79.936l0.229,1.4a5.868,5.868,0,0,1-1.2.141,2.706,2.706,0,0,1-1.336-.272,1.526,1.526,0,0,1-.668-0.716,5.664,5.664,0,0,1-.193-1.868v-5.37h-1.16v-1.23h1.16V69.706l1.573-.949v3.261H79.7v1.23H78.105v5.458a2.757,2.757,0,0,0,.083.87,0.659,0.659,0,0,0,.272.308A1.052,1.052,0,0,0,79,80,5.146,5.146,0,0,0,79.7,79.936Z" transform="translate(-8.661 -9.529)"/><path class="cls-4" d="M87.36,81.351V79.98A3.416,3.416,0,0,1,84.4,81.562a3.774,3.774,0,0,1-1.542-.316,2.541,2.541,0,0,1-1.063-.8,2.981,2.981,0,0,1-.488-1.173,8.033,8.033,0,0,1-.1-1.477V72.017H82.79v5.177a9.225,9.225,0,0,0,.1,1.67,1.65,1.65,0,0,0,.633.98,1.961,1.961,0,0,0,1.2.356,2.6,2.6,0,0,0,1.336-.365,2.028,2.028,0,0,0,.883-0.993,4.984,4.984,0,0,0,.259-1.824v-5h1.582v9.334H87.36Z" transform="translate(-8.661 -9.529)"/><path class="cls-4" d="M91.236,81.351V72.017H92.66v1.415a3.861,3.861,0,0,1,1.006-1.31,1.757,1.757,0,0,1,1.015-.316,3.086,3.086,0,0,1,1.626.51l-0.545,1.468a2.264,2.264,0,0,0-1.16-.343,1.507,1.507,0,0,0-.932.312,1.69,1.69,0,0,0-.589.866,6.162,6.162,0,0,0-.264,1.846v4.887H91.236Z" transform="translate(-8.661 -9.529)"/><path class="cls-4" d="M97.248,81.351V72.017h1.424v1.327a3.355,3.355,0,0,1,2.971-1.538,3.9,3.9,0,0,1,1.551.3,2.44,2.44,0,0,1,1.059.8,3.053,3.053,0,0,1,.492,1.169,9.059,9.059,0,0,1,.088,1.538v5.739h-1.582V75.674a4.262,4.262,0,0,0-.185-1.446,1.521,1.521,0,0,0-.655-0.765,2.083,2.083,0,0,0-1.1-.286,2.563,2.563,0,0,0-1.745.642,3.165,3.165,0,0,0-.734,2.435v5.1H97.248Z" transform="translate(-8.661 -9.529)"/><path class="cls-4" d="M36.7,96.641a2.228,2.228,0,0,1,2.224-2.224,2.158,2.158,0,0,1,1.578.65A2.226,2.226,0,1,1,36.7,96.641Z" transform="translate(-8.661 -9.529)"/><path class="cls-4" d="M56.387,102.952V91.587H52.142V90.067H62.355v1.521H58.092v11.364H56.387Z" transform="translate(-8.661 -9.529)"/><path class="cls-4" d="M63.243,91.886V90.067h1.582v1.819H63.243Zm0,11.065V93.618h1.582v9.334H63.243Z" transform="translate(-8.661 -9.529)"/><path class="cls-4" d="M67.233,102.952V93.618h1.415v1.31a3.327,3.327,0,0,1,1.169-1.1,3.284,3.284,0,0,1,1.661-.417,3.07,3.07,0,0,1,1.7.431,2.3,2.3,0,0,1,.936,1.2A3.351,3.351,0,0,1,77,93.407a2.841,2.841,0,0,1,2.136.769,3.287,3.287,0,0,1,.747,2.369v6.407H78.307v-5.88a4.329,4.329,0,0,0-.154-1.367,1.324,1.324,0,0,0-.558-0.672,1.742,1.742,0,0,0-.949-0.255,2.209,2.209,0,0,0-1.635.655,2.884,2.884,0,0,0-.65,2.1v5.423H72.779V96.887a2.668,2.668,0,0,0-.387-1.582,1.464,1.464,0,0,0-1.266-.527,2.3,2.3,0,0,0-1.235.352,1.994,1.994,0,0,0-.822,1.028,5.788,5.788,0,0,0-.255,1.951v4.843H67.233Z" transform="translate(-8.661 -9.529)"/><path class="cls-4" d="M88.617,99.946l1.635,0.2a3.989,3.989,0,0,1-1.433,2.224,4.853,4.853,0,0,1-5.919-.47,4.928,4.928,0,0,1-1.2-3.538,5.158,5.158,0,0,1,1.213-3.656,4.106,4.106,0,0,1,3.146-1.3,3.99,3.99,0,0,1,3.059,1.274A5.064,5.064,0,0,1,90.3,98.267q0,0.141-.009.422H83.335a3.587,3.587,0,0,0,.87,2.355,2.59,2.59,0,0,0,1.951.817,2.421,2.421,0,0,0,1.485-.457A3.034,3.034,0,0,0,88.617,99.946Zm-5.194-2.558h5.212a3.162,3.162,0,0,0-.6-1.767,2.425,2.425,0,0,0-1.96-.914,2.513,2.513,0,0,0-1.833.729A2.887,2.887,0,0,0,83.423,97.388Z" transform="translate(-8.661 -9.529)"/><rect class="cls-1" x="0.5" y="149.748" width="152.55" height="127.61"/><rect class="cls-2" x="0.5" y="149.748" width="152.55" height="45.897"/><path class="cls-3" d="M19.187,176.75V163.865h1.705v5.291h6.7v-5.291h1.705V176.75H27.59v-6.073h-6.7v6.073H19.187Z" transform="translate(-8.661 -9.529)"/><path class="cls-3" d="M31.94,165.684v-1.819h1.582v1.819H31.94Zm0,11.065v-9.334h1.582v9.334H31.94Z" transform="translate(-8.661 -9.529)"/><path class="cls-3" d="M35.3,173.964l1.564-.246a2.187,2.187,0,0,0,.734,1.441,2.558,2.558,0,0,0,1.683.5,2.473,2.473,0,0,0,1.617-.444,1.327,1.327,0,0,0,.527-1.042,0.961,0.961,0,0,0-.466-0.844,6.861,6.861,0,0,0-1.617-.536,14.757,14.757,0,0,1-2.413-.76,2.3,2.3,0,0,1-1.367-2.14,2.4,2.4,0,0,1,.286-1.156,2.561,2.561,0,0,1,.778-0.883,3.261,3.261,0,0,1,1.006-.461A4.785,4.785,0,0,1,39,167.2a5.4,5.4,0,0,1,1.929.316,2.624,2.624,0,0,1,1.226.857,3.349,3.349,0,0,1,.545,1.446l-1.547.211a1.692,1.692,0,0,0-.611-1.125,2.234,2.234,0,0,0-1.428-.4,2.586,2.586,0,0,0-1.556.36,1.049,1.049,0,0,0-.466.844,0.873,0.873,0,0,0,.193.554,1.4,1.4,0,0,0,.606.422q0.237,0.088,1.4.4a19.454,19.454,0,0,1,2.342.734,2.376,2.376,0,0,1,1.042.831,2.318,2.318,0,0,1,.378,1.354,2.656,2.656,0,0,1-.461,1.49,2.982,2.982,0,0,1-1.332,1.081,4.847,4.847,0,0,1-1.969.382,4.386,4.386,0,0,1-2.773-.756A3.515,3.515,0,0,1,35.3,173.964Z" transform="translate(-8.661 -9.529)"/><path class="cls-3" d="M48.384,175.335l0.229,1.4a5.868,5.868,0,0,1-1.2.141,2.706,2.706,0,0,1-1.336-.272,1.526,1.526,0,0,1-.668-0.716,5.664,5.664,0,0,1-.193-1.868v-5.37H44.06v-1.23h1.16V165.1l1.573-.949v3.261h1.591v1.23H46.794V174.1a2.757,2.757,0,0,0,.083.87,0.659,0.659,0,0,0,.272.308,1.052,1.052,0,0,0,.541.114A5.146,5.146,0,0,0,48.384,175.335Z" transform="translate(-8.661 -9.529)"/><path class="cls-3" d="M49.342,172.083a4.811,4.811,0,0,1,1.441-3.841,4.343,4.343,0,0,1,2.936-1.037,4.188,4.188,0,0,1,3.146,1.261,4.8,4.8,0,0,1,1.222,3.485,6.175,6.175,0,0,1-.541,2.834,3.826,3.826,0,0,1-1.573,1.6,4.58,4.58,0,0,1-2.254.571,4.2,4.2,0,0,1-3.168-1.257A5.02,5.02,0,0,1,49.342,172.083Zm1.626,0a3.976,3.976,0,0,0,.782,2.685,2.6,2.6,0,0,0,3.929,0,4.07,4.07,0,0,0,.782-2.733,3.856,3.856,0,0,0-.787-2.624,2.608,2.608,0,0,0-3.924,0A3.958,3.958,0,0,0,50.968,172.083Z" transform="translate(-8.661 -9.529)"/><path class="cls-3" d="M59.924,176.75v-9.334h1.424v1.415a3.861,3.861,0,0,1,1.006-1.31,1.757,1.757,0,0,1,1.015-.316,3.086,3.086,0,0,1,1.626.51l-0.545,1.468a2.264,2.264,0,0,0-1.16-.343,1.507,1.507,0,0,0-.932.312,1.69,1.69,0,0,0-.589.866,6.162,6.162,0,0,0-.264,1.846v4.887H59.924Z" transform="translate(-8.661 -9.529)"/><path class="cls-3" d="M65.866,180.345l-0.176-1.485A3.525,3.525,0,0,0,66.6,179a1.737,1.737,0,0,0,.844-0.176,1.437,1.437,0,0,0,.519-0.492,7.76,7.76,0,0,0,.483-1.178q0.044-.132.141-0.387l-3.542-9.352h1.705l1.942,5.405q0.378,1.028.677,2.162a21.286,21.286,0,0,1,.65-2.127l2-5.44h1.582l-3.551,9.492a18.632,18.632,0,0,1-.888,2.118,3.124,3.124,0,0,1-.967,1.147,2.284,2.284,0,0,1-1.3.365A3.168,3.168,0,0,1,65.866,180.345Z" transform="translate(-8.661 -9.529)"/><path class="cls-3" d="M79.348,172.083a4.811,4.811,0,0,1,1.441-3.841,4.343,4.343,0,0,1,2.936-1.037,4.188,4.188,0,0,1,3.146,1.261,4.8,4.8,0,0,1,1.222,3.485,6.175,6.175,0,0,1-.541,2.834,3.826,3.826,0,0,1-1.573,1.6,4.58,4.58,0,0,1-2.254.571,4.2,4.2,0,0,1-3.168-1.257A5.02,5.02,0,0,1,79.348,172.083Zm1.626,0a3.976,3.976,0,0,0,.782,2.685,2.6,2.6,0,0,0,3.929,0,4.07,4.07,0,0,0,.782-2.733,3.856,3.856,0,0,0-.787-2.624,2.608,2.608,0,0,0-3.924,0A3.958,3.958,0,0,0,80.974,172.083Z" transform="translate(-8.661 -9.529)"/><path class="cls-3" d="M90.326,176.75v-8.1h-1.4v-1.23h1.4v-0.993a4.349,4.349,0,0,1,.167-1.4,2.023,2.023,0,0,1,.8-1,2.9,2.9,0,0,1,1.613-.382,7.744,7.744,0,0,1,1.477.158l-0.237,1.38a5.309,5.309,0,0,0-.932-0.088,1.386,1.386,0,0,0-1.02.308,1.667,1.667,0,0,0-.3,1.151v0.861h1.819v1.23H91.9v8.1H90.326Z" transform="translate(-8.661 -9.529)"/><path class="cls-3" d="M17.746,179.316V178H93.762v1.318H17.746Z" transform="translate(-8.661 -9.529)"/><path class="cls-3" d="M17.719,198.35l4.948-12.885H24.5l5.273,12.885H27.836l-1.5-3.9H20.945l-1.415,3.9H17.719Zm3.718-5.291h4.368l-1.345-3.568q-0.615-1.626-.914-2.672a16.425,16.425,0,0,1-.694,2.461Z" transform="translate(-8.661 -9.529)"/><path class="cls-3" d="M30.305,195.564l1.564-.246a2.187,2.187,0,0,0,.734,1.441,2.558,2.558,0,0,0,1.683.5,2.473,2.473,0,0,0,1.617-.444,1.327,1.327,0,0,0,.527-1.042,0.961,0.961,0,0,0-.466-0.844,6.861,6.861,0,0,0-1.617-.536,14.757,14.757,0,0,1-2.413-.76,2.3,2.3,0,0,1-1.367-2.14,2.4,2.4,0,0,1,.286-1.156,2.561,2.561,0,0,1,.778-0.883,3.261,3.261,0,0,1,1.006-.461,4.785,4.785,0,0,1,1.367-.189,5.4,5.4,0,0,1,1.929.316,2.624,2.624,0,0,1,1.226.857,3.349,3.349,0,0,1,.545,1.446l-1.547.211a1.692,1.692,0,0,0-.611-1.125,2.234,2.234,0,0,0-1.428-.4,2.586,2.586,0,0,0-1.556.36,1.049,1.049,0,0,0-.466.844,0.873,0.873,0,0,0,.193.554,1.4,1.4,0,0,0,.606.422q0.237,0.088,1.4.4a19.454,19.454,0,0,1,2.342.734,2.376,2.376,0,0,1,1.042.831,2.318,2.318,0,0,1,.378,1.354,2.656,2.656,0,0,1-.461,1.49,2.982,2.982,0,0,1-1.332,1.081,4.847,4.847,0,0,1-1.969.382,4.386,4.386,0,0,1-2.773-.756A3.515,3.515,0,0,1,30.305,195.564Z" transform="translate(-8.661 -9.529)"/><path class="cls-3" d="M39.305,195.564l1.564-.246a2.187,2.187,0,0,0,.734,1.441,2.558,2.558,0,0,0,1.683.5,2.473,2.473,0,0,0,1.617-.444,1.327,1.327,0,0,0,.527-1.042,0.961,0.961,0,0,0-.466-0.844,6.861,6.861,0,0,0-1.617-.536,14.757,14.757,0,0,1-2.413-.76,2.3,2.3,0,0,1-1.367-2.14,2.4,2.4,0,0,1,.286-1.156,2.561,2.561,0,0,1,.778-0.883,3.261,3.261,0,0,1,1.006-.461,4.785,4.785,0,0,1,1.367-.189,5.4,5.4,0,0,1,1.929.316,2.624,2.624,0,0,1,1.226.857,3.349,3.349,0,0,1,.545,1.446l-1.547.211a1.692,1.692,0,0,0-.611-1.125,2.234,2.234,0,0,0-1.428-.4,2.586,2.586,0,0,0-1.556.36,1.049,1.049,0,0,0-.466.844,0.873,0.873,0,0,0,.193.554,1.4,1.4,0,0,0,.606.422q0.237,0.088,1.4.4a19.454,19.454,0,0,1,2.342.734,2.376,2.376,0,0,1,1.042.831,2.318,2.318,0,0,1,.378,1.354,2.656,2.656,0,0,1-.461,1.49,2.982,2.982,0,0,1-1.332,1.081,4.847,4.847,0,0,1-1.969.382,4.386,4.386,0,0,1-2.773-.756A3.515,3.515,0,0,1,39.305,195.564Z" transform="translate(-8.661 -9.529)"/><path class="cls-3" d="M55.328,195.344l1.635,0.2a3.989,3.989,0,0,1-1.433,2.224,4.853,4.853,0,0,1-5.919-.47,4.928,4.928,0,0,1-1.2-3.538,5.158,5.158,0,0,1,1.213-3.656,4.106,4.106,0,0,1,3.146-1.3,3.99,3.99,0,0,1,3.059,1.274,5.064,5.064,0,0,1,1.187,3.586q0,0.141-.009.422H50.046a3.587,3.587,0,0,0,.87,2.355,2.59,2.59,0,0,0,1.951.817,2.421,2.421,0,0,0,1.485-.457A3.034,3.034,0,0,0,55.328,195.344Zm-5.194-2.558h5.212a3.162,3.162,0,0,0-.6-1.767,2.425,2.425,0,0,0-1.96-.914,2.513,2.513,0,0,0-1.833.729A2.887,2.887,0,0,0,50.133,192.787Z" transform="translate(-8.661 -9.529)"/><path class="cls-3" d="M62.4,196.935l0.229,1.4a5.868,5.868,0,0,1-1.2.141A2.706,2.706,0,0,1,60.1,198.2a1.526,1.526,0,0,1-.668-0.716,5.664,5.664,0,0,1-.193-1.868v-5.37h-1.16v-1.23h1.16V186.7l1.573-.949v3.261H62.4v1.23H60.812V195.7a2.757,2.757,0,0,0,.083.87,0.659,0.659,0,0,0,.272.308,1.052,1.052,0,0,0,.541.114A5.146,5.146,0,0,0,62.4,196.935Z" transform="translate(-8.661 -9.529)"/><path class="cls-3" d="M78.346,193.832l1.705,0.431a5.74,5.74,0,0,1-1.929,3.2,5.316,5.316,0,0,1-3.406,1.1,6.12,6.12,0,0,1-3.388-.848,5.3,5.3,0,0,1-1.986-2.457,8.765,8.765,0,0,1-.681-3.454,7.592,7.592,0,0,1,.769-3.511,5.269,5.269,0,0,1,2.188-2.276,6.394,6.394,0,0,1,3.125-.778,5.282,5.282,0,0,1,3.252.984A5.112,5.112,0,0,1,79.832,189l-1.679.4a3.982,3.982,0,0,0-1.3-2.048,3.466,3.466,0,0,0-2.145-.642,4.166,4.166,0,0,0-2.483.712,3.759,3.759,0,0,0-1.4,1.912,7.7,7.7,0,0,0-.4,2.474,7.862,7.862,0,0,0,.479,2.87,3.568,3.568,0,0,0,1.49,1.833,4.178,4.178,0,0,0,2.188.606A3.667,3.667,0,0,0,77,196.285,4.228,4.228,0,0,0,78.346,193.832Z" transform="translate(-8.661 -9.529)"/><path class="cls-3" d="M81.915,198.35V185.465H83.5V198.35H81.915Z" transform="translate(-8.661 -9.529)"/><path class="cls-3" d="M92.04,197.2a5.891,5.891,0,0,1-1.692,1.055,4.889,4.889,0,0,1-1.745.308,3.393,3.393,0,0,1-2.364-.751,2.48,2.48,0,0,1-.826-1.92,2.554,2.554,0,0,1,.312-1.252,2.583,2.583,0,0,1,.817-0.91,3.844,3.844,0,0,1,1.138-.519,11.3,11.3,0,0,1,1.406-.237,14.46,14.46,0,0,0,2.821-.545q0.009-.325.009-0.413a1.747,1.747,0,0,0-.448-1.362,2.648,2.648,0,0,0-1.8-.536,2.794,2.794,0,0,0-1.648.391,2.39,2.39,0,0,0-.787,1.384l-1.547-.211a3.833,3.833,0,0,1,.694-1.6,3.043,3.043,0,0,1,1.4-.94,6.233,6.233,0,0,1,2.118-.33,5.606,5.606,0,0,1,1.942.281,2.559,2.559,0,0,1,1.1.708,2.488,2.488,0,0,1,.492,1.077,8.908,8.908,0,0,1,.079,1.459v2.109a22.389,22.389,0,0,0,.1,2.791,3.521,3.521,0,0,0,.4,1.121H92.356A3.354,3.354,0,0,1,92.04,197.2Zm-0.132-3.533a11.607,11.607,0,0,1-2.584.6,5.977,5.977,0,0,0-1.38.316,1.376,1.376,0,0,0-.624.514,1.4,1.4,0,0,0,.259,1.806,2.061,2.061,0,0,0,1.4.422,3.263,3.263,0,0,0,1.626-.4,2.463,2.463,0,0,0,1.046-1.094,3.822,3.822,0,0,0,.255-1.582v-0.58Z" transform="translate(-8.661 -9.529)"/><path class="cls-3" d="M95.327,195.564l1.564-.246a2.187,2.187,0,0,0,.734,1.441,2.558,2.558,0,0,0,1.683.5,2.473,2.473,0,0,0,1.617-.444,1.327,1.327,0,0,0,.527-1.042,0.961,0.961,0,0,0-.466-0.844,6.861,6.861,0,0,0-1.617-.536,14.757,14.757,0,0,1-2.413-.76,2.3,2.3,0,0,1-1.367-2.14,2.4,2.4,0,0,1,.286-1.156,2.561,2.561,0,0,1,.778-0.883,3.261,3.261,0,0,1,1.006-.461,4.785,4.785,0,0,1,1.367-.189,5.4,5.4,0,0,1,1.929.316,2.624,2.624,0,0,1,1.226.857,3.349,3.349,0,0,1,.545,1.446l-1.547.211a1.692,1.692,0,0,0-.611-1.125,2.234,2.234,0,0,0-1.428-.4,2.586,2.586,0,0,0-1.556.36,1.049,1.049,0,0,0-.466.844,0.873,0.873,0,0,0,.193.554,1.4,1.4,0,0,0,.606.422q0.237,0.088,1.4.4a19.454,19.454,0,0,1,2.342.734,2.376,2.376,0,0,1,1.042.831,2.318,2.318,0,0,1,.378,1.354,2.656,2.656,0,0,1-.461,1.49,2.982,2.982,0,0,1-1.332,1.081,4.847,4.847,0,0,1-1.969.382,4.386,4.386,0,0,1-2.773-.756A3.515,3.515,0,0,1,95.327,195.564Z" transform="translate(-8.661 -9.529)"/><path class="cls-3" d="M104.327,195.564l1.564-.246a2.187,2.187,0,0,0,.734,1.441,2.558,2.558,0,0,0,1.683.5,2.473,2.473,0,0,0,1.617-.444,1.327,1.327,0,0,0,.527-1.042,0.961,0.961,0,0,0-.466-0.844,6.861,6.861,0,0,0-1.617-.536,14.757,14.757,0,0,1-2.413-.76,2.3,2.3,0,0,1-1.367-2.14,2.4,2.4,0,0,1,.286-1.156,2.561,2.561,0,0,1,.778-0.883,3.261,3.261,0,0,1,1.006-.461,4.785,4.785,0,0,1,1.367-.189,5.4,5.4,0,0,1,1.929.316,2.624,2.624,0,0,1,1.226.857,3.349,3.349,0,0,1,.545,1.446l-1.547.211a1.692,1.692,0,0,0-.611-1.125,2.234,2.234,0,0,0-1.428-.4,2.586,2.586,0,0,0-1.556.36,1.049,1.049,0,0,0-.466.844,0.873,0.873,0,0,0,.193.554,1.4,1.4,0,0,0,.606.422q0.237,0.088,1.4.4a19.454,19.454,0,0,1,2.342.734,2.376,2.376,0,0,1,1.042.831,2.318,2.318,0,0,1,.378,1.354,2.656,2.656,0,0,1-.461,1.49,2.982,2.982,0,0,1-1.332,1.081,4.847,4.847,0,0,1-1.969.382,4.386,4.386,0,0,1-2.773-.756A3.515,3.515,0,0,1,104.327,195.564Z" transform="translate(-8.661 -9.529)"/><path class="cls-3" d="M120.349,195.344l1.635,0.2a3.989,3.989,0,0,1-1.433,2.224,4.853,4.853,0,0,1-5.919-.47,4.928,4.928,0,0,1-1.2-3.538,5.158,5.158,0,0,1,1.213-3.656,4.106,4.106,0,0,1,3.146-1.3,3.99,3.99,0,0,1,3.059,1.274,5.064,5.064,0,0,1,1.187,3.586q0,0.141-.009.422h-6.961a3.587,3.587,0,0,0,.87,2.355,2.59,2.59,0,0,0,1.951.817,2.421,2.421,0,0,0,1.485-.457A3.034,3.034,0,0,0,120.349,195.344Zm-5.194-2.558h5.212a3.162,3.162,0,0,0-.6-1.767,2.425,2.425,0,0,0-1.96-.914,2.513,2.513,0,0,0-1.833.729A2.887,2.887,0,0,0,115.155,192.787Z" transform="translate(-8.661 -9.529)"/><path class="cls-3" d="M123.338,195.564l1.564-.246a2.187,2.187,0,0,0,.734,1.441,2.558,2.558,0,0,0,1.683.5,2.473,2.473,0,0,0,1.617-.444,1.327,1.327,0,0,0,.527-1.042,0.961,0.961,0,0,0-.466-0.844,6.861,6.861,0,0,0-1.617-.536,14.757,14.757,0,0,1-2.413-.76,2.3,2.3,0,0,1-1.367-2.14,2.4,2.4,0,0,1,.286-1.156,2.561,2.561,0,0,1,.778-0.883,3.261,3.261,0,0,1,1.006-.461,4.785,4.785,0,0,1,1.367-.189,5.4,5.4,0,0,1,1.929.316,2.624,2.624,0,0,1,1.226.857,3.349,3.349,0,0,1,.545,1.446l-1.547.211a1.692,1.692,0,0,0-.611-1.125,2.234,2.234,0,0,0-1.428-.4,2.586,2.586,0,0,0-1.556.36,1.049,1.049,0,0,0-.466.844,0.873,0.873,0,0,0,.193.554,1.4,1.4,0,0,0,.606.422q0.237,0.088,1.4.4a19.454,19.454,0,0,1,2.342.734,2.376,2.376,0,0,1,1.042.831,2.318,2.318,0,0,1,.378,1.354,2.656,2.656,0,0,1-.461,1.49,2.982,2.982,0,0,1-1.332,1.081,4.847,4.847,0,0,1-1.969.382,4.386,4.386,0,0,1-2.773-.756A3.515,3.515,0,0,1,123.338,195.564Z" transform="translate(-8.661 -9.529)"/><path class="cls-3" d="M17.746,200.916V199.6H131.784v1.318H17.746Z" transform="translate(-8.661 -9.529)"/><path class="cls-4" d="M36.534,224.289a2.228,2.228,0,0,1,2.224-2.224,2.158,2.158,0,0,1,1.578.65A2.226,2.226,0,1,1,36.534,224.289Z" transform="translate(-8.661 -9.529)"/><path class="cls-4" d="M52.689,226.46l1.608-.141a3.552,3.552,0,0,0,.532,1.586,2.9,2.9,0,0,0,1.3,1,4.909,4.909,0,0,0,1.978.382,4.739,4.739,0,0,0,1.723-.29,2.39,2.39,0,0,0,1.112-.8,1.845,1.845,0,0,0,.365-1.1,1.677,1.677,0,0,0-.352-1.059,2.6,2.6,0,0,0-1.16-.76,22.676,22.676,0,0,0-2.294-.628,11.721,11.721,0,0,1-2.487-.8,3.488,3.488,0,0,1-1.375-1.2,2.94,2.94,0,0,1-.453-1.6,3.275,3.275,0,0,1,.554-1.824,3.429,3.429,0,0,1,1.617-1.288,6.135,6.135,0,0,1,2.364-.439,6.459,6.459,0,0,1,2.527.461,3.644,3.644,0,0,1,1.683,1.358,3.9,3.9,0,0,1,.633,2.03l-1.635.123a2.638,2.638,0,0,0-.892-1.846A3.472,3.472,0,0,0,57.786,219a3.6,3.6,0,0,0-2.254.567,1.7,1.7,0,0,0-.708,1.367,1.465,1.465,0,0,0,.5,1.143,6.788,6.788,0,0,0,2.571.918,17,17,0,0,1,2.852.822,3.906,3.906,0,0,1,1.661,1.314,3.2,3.2,0,0,1,.536,1.833,3.5,3.5,0,0,1-.589,1.938,3.877,3.877,0,0,1-1.692,1.415,5.894,5.894,0,0,1-2.483.505,7.414,7.414,0,0,1-2.931-.51,4.105,4.105,0,0,1-1.854-1.534A4.348,4.348,0,0,1,52.689,226.46Z" transform="translate(-8.661 -9.529)"/><path class="cls-4" d="M68.527,229.185l0.229,1.4a5.868,5.868,0,0,1-1.2.141,2.706,2.706,0,0,1-1.336-.272,1.526,1.526,0,0,1-.668-0.716,5.664,5.664,0,0,1-.193-1.868V222.5H64.2v-1.23h1.16v-2.312l1.573-.949v3.261h1.591v1.23H66.936v5.458a2.757,2.757,0,0,0,.083.87,0.659,0.659,0,0,0,.272.308,1.052,1.052,0,0,0,.541.114A5.146,5.146,0,0,0,68.527,229.185Z" transform="translate(-8.661 -9.529)"/><path class="cls-4" d="M69.485,225.933a4.811,4.811,0,0,1,1.441-3.841,4.343,4.343,0,0,1,2.936-1.037,4.188,4.188,0,0,1,3.146,1.261A4.8,4.8,0,0,1,78.23,225.8a6.175,6.175,0,0,1-.541,2.834,3.826,3.826,0,0,1-1.573,1.6,4.58,4.58,0,0,1-2.254.571,4.2,4.2,0,0,1-3.168-1.257A5.02,5.02,0,0,1,69.485,225.933Zm1.626,0a3.976,3.976,0,0,0,.782,2.685,2.6,2.6,0,0,0,3.929,0,4.07,4.07,0,0,0,.782-2.733,3.856,3.856,0,0,0-.787-2.624,2.608,2.608,0,0,0-3.924,0A3.958,3.958,0,0,0,71.111,225.933Z" transform="translate(-8.661 -9.529)"/><path class="cls-4" d="M86.175,227.181l1.556,0.2a4.035,4.035,0,0,1-1.305,2.518,3.8,3.8,0,0,1-2.58.91,4.008,4.008,0,0,1-3.081-1.252,5.082,5.082,0,0,1-1.165-3.59,6.5,6.5,0,0,1,.5-2.646,3.493,3.493,0,0,1,1.525-1.7,4.524,4.524,0,0,1,2.228-.567,3.873,3.873,0,0,1,2.487.769,3.526,3.526,0,0,1,1.239,2.184l-1.538.237a2.554,2.554,0,0,0-.778-1.415,2.013,2.013,0,0,0-1.349-.475,2.456,2.456,0,0,0-1.942.857,4.068,4.068,0,0,0-.747,2.711,4.205,4.205,0,0,0,.721,2.733,2.345,2.345,0,0,0,1.881.853,2.217,2.217,0,0,0,1.556-.571A2.835,2.835,0,0,0,86.175,227.181Z" transform="translate(-8.661 -9.529)"/><path class="cls-4" d="M89.093,230.6V217.715h1.582v7.348l3.744-3.8h2.048L92.9,224.729l3.929,5.871H94.876l-3.085-4.772L90.675,226.9v3.7H89.093Z" transform="translate(-8.661 -9.529)"/><path class="cls-4" d="M97.451,227.814l1.564-.246a2.187,2.187,0,0,0,.734,1.441,2.558,2.558,0,0,0,1.683.5,2.473,2.473,0,0,0,1.617-.444,1.327,1.327,0,0,0,.527-1.042,0.961,0.961,0,0,0-.466-0.844,6.861,6.861,0,0,0-1.617-.536,14.757,14.757,0,0,1-2.413-.76,2.3,2.3,0,0,1-1.367-2.14A2.4,2.4,0,0,1,98,222.589a2.561,2.561,0,0,1,.778-0.883,3.261,3.261,0,0,1,1.006-.461,4.785,4.785,0,0,1,1.367-.189,5.4,5.4,0,0,1,1.929.316,2.624,2.624,0,0,1,1.226.857,3.349,3.349,0,0,1,.545,1.446l-1.547.211a1.692,1.692,0,0,0-.611-1.125,2.234,2.234,0,0,0-1.428-.4,2.586,2.586,0,0,0-1.556.36,1.049,1.049,0,0,0-.466.844,0.873,0.873,0,0,0,.193.554,1.4,1.4,0,0,0,.606.422q0.237,0.088,1.4.4a19.454,19.454,0,0,1,2.342.734,2.376,2.376,0,0,1,1.042.831,2.318,2.318,0,0,1,.378,1.354,2.656,2.656,0,0,1-.461,1.49,2.982,2.982,0,0,1-1.332,1.081,4.847,4.847,0,0,1-1.969.382,4.386,4.386,0,0,1-2.773-.756A3.515,3.515,0,0,1,97.451,227.814Z" transform="translate(-8.661 -9.529)"/><path class="cls-4" d="M36.534,245.89a2.228,2.228,0,0,1,2.224-2.224,2.158,2.158,0,0,1,1.578.65A2.226,2.226,0,1,1,36.534,245.89Z" transform="translate(-8.661 -9.529)"/><path class="cls-4" d="M53.2,252.2V239.316h4.834a5.984,5.984,0,0,1,2.369.391,3.046,3.046,0,0,1,1.4,1.2,3.176,3.176,0,0,1,.505,1.7,2.922,2.922,0,0,1-.448,1.556,3.2,3.2,0,0,1-1.354,1.178,3.365,3.365,0,0,1,1.8,1.169,3.131,3.131,0,0,1,.628,1.951,3.762,3.762,0,0,1-.382,1.683,3.261,3.261,0,0,1-.945,1.2,3.943,3.943,0,0,1-1.411.637,8.577,8.577,0,0,1-2.079.216H53.2ZM54.9,244.73H57.69a6.217,6.217,0,0,0,1.626-.149,1.807,1.807,0,0,0,.98-0.642,1.848,1.848,0,0,0,.33-1.125,2.074,2.074,0,0,0-.308-1.13,1.557,1.557,0,0,0-.879-0.668,7.346,7.346,0,0,0-1.96-.18H54.9v3.894Zm0,5.95h3.208a7.384,7.384,0,0,0,1.16-.062,2.78,2.78,0,0,0,.984-0.352,1.868,1.868,0,0,0,.65-0.717,2.24,2.24,0,0,0,.255-1.085,2.143,2.143,0,0,0-.369-1.253,1.947,1.947,0,0,0-1.024-.747,6.351,6.351,0,0,0-1.885-.215H54.9v4.43Z" transform="translate(-8.661 -9.529)"/><path class="cls-4" d="M64.484,247.534a4.811,4.811,0,0,1,1.441-3.841,4.343,4.343,0,0,1,2.936-1.037,4.187,4.187,0,0,1,3.146,1.261,4.8,4.8,0,0,1,1.222,3.485,6.173,6.173,0,0,1-.541,2.834,3.827,3.827,0,0,1-1.573,1.6,4.58,4.58,0,0,1-2.254.571,4.2,4.2,0,0,1-3.168-1.257A5.02,5.02,0,0,1,64.484,247.534Zm1.626,0a3.974,3.974,0,0,0,.782,2.685,2.6,2.6,0,0,0,3.929,0,4.07,4.07,0,0,0,.782-2.733,3.858,3.858,0,0,0-.787-2.624,2.609,2.609,0,0,0-3.924,0A3.958,3.958,0,0,0,66.11,247.534Z" transform="translate(-8.661 -9.529)"/><path class="cls-4" d="M75.083,252.2v-9.334h1.424v1.327a3.355,3.355,0,0,1,2.971-1.538,3.9,3.9,0,0,1,1.551.3,2.441,2.441,0,0,1,1.059.8,3.053,3.053,0,0,1,.492,1.169,9.059,9.059,0,0,1,.088,1.538V252.2H81.086v-5.678a4.265,4.265,0,0,0-.185-1.446,1.521,1.521,0,0,0-.655-0.765,2.083,2.083,0,0,0-1.1-.285,2.563,2.563,0,0,0-1.745.642,3.165,3.165,0,0,0-.734,2.435v5.1H75.083Z" transform="translate(-8.661 -9.529)"/><path class="cls-4" d="M91.15,252.2v-1.178a2.9,2.9,0,0,1-2.61,1.389,3.66,3.66,0,0,1-2.052-.615,4.047,4.047,0,0,1-1.45-1.719,5.936,5.936,0,0,1-.514-2.535,6.639,6.639,0,0,1,.466-2.536,3.673,3.673,0,0,1,1.4-1.744,3.736,3.736,0,0,1,2.083-.606,3.109,3.109,0,0,1,2.575,1.283v-4.623h1.573V252.2H91.15Zm-5-4.658a4.054,4.054,0,0,0,.756,2.681,2.279,2.279,0,0,0,1.784.888,2.238,2.238,0,0,0,1.762-.849,3.909,3.909,0,0,0,.725-2.588,4.389,4.389,0,0,0-.738-2.812,2.271,2.271,0,0,0-1.819-.9,2.192,2.192,0,0,0-1.762.861A4.251,4.251,0,0,0,86.149,247.542Z" transform="translate(-8.661 -9.529)"/><path class="cls-4" d="M94.472,249.414l1.564-.246a2.187,2.187,0,0,0,.734,1.441,2.558,2.558,0,0,0,1.683.5,2.473,2.473,0,0,0,1.617-.444,1.326,1.326,0,0,0,.527-1.041,0.961,0.961,0,0,0-.466-0.844,6.861,6.861,0,0,0-1.617-.536,14.745,14.745,0,0,1-2.413-.761,2.3,2.3,0,0,1-1.367-2.14,2.406,2.406,0,0,1,.286-1.156,2.56,2.56,0,0,1,.778-0.883,3.261,3.261,0,0,1,1.006-.462,4.786,4.786,0,0,1,1.367-.188,5.4,5.4,0,0,1,1.929.316,2.623,2.623,0,0,1,1.226.856,3.351,3.351,0,0,1,.545,1.446l-1.547.211a1.692,1.692,0,0,0-.611-1.125,2.234,2.234,0,0,0-1.428-.4,2.586,2.586,0,0,0-1.556.36,1.049,1.049,0,0,0-.466.844,0.873,0.873,0,0,0,.193.554,1.4,1.4,0,0,0,.606.422q0.237,0.088,1.4.4a19.477,19.477,0,0,1,2.342.733,2.377,2.377,0,0,1,1.042.831,2.318,2.318,0,0,1,.378,1.354,2.655,2.655,0,0,1-.461,1.489,2.982,2.982,0,0,1-1.332,1.081,4.847,4.847,0,0,1-1.969.383,4.386,4.386,0,0,1-2.773-.756A3.515,3.515,0,0,1,94.472,249.414Z" transform="translate(-8.661 -9.529)"/><path class="cls-4" d="M36.534,267.49a2.228,2.228,0,0,1,2.224-2.224,2.158,2.158,0,0,1,1.578.65A2.227,2.227,0,1,1,36.534,267.49Z" transform="translate(-8.661 -9.529)"/><path class="cls-4" d="M62.462,269.283l1.705,0.431a5.741,5.741,0,0,1-1.929,3.2,5.315,5.315,0,0,1-3.406,1.1,6.12,6.12,0,0,1-3.388-.848,5.3,5.3,0,0,1-1.986-2.457,8.765,8.765,0,0,1-.681-3.454,7.59,7.59,0,0,1,.769-3.511,5.269,5.269,0,0,1,2.188-2.276,6.4,6.4,0,0,1,3.125-.778,5.282,5.282,0,0,1,3.252.984,5.112,5.112,0,0,1,1.837,2.769l-1.679.4a3.982,3.982,0,0,0-1.3-2.048,3.466,3.466,0,0,0-2.145-.642,4.166,4.166,0,0,0-2.483.712,3.761,3.761,0,0,0-1.4,1.912,7.693,7.693,0,0,0-.4,2.474,7.865,7.865,0,0,0,.479,2.87,3.567,3.567,0,0,0,1.49,1.832,4.178,4.178,0,0,0,2.188.606,3.667,3.667,0,0,0,2.426-.826A4.228,4.228,0,0,0,62.462,269.283Z" transform="translate(-8.661 -9.529)"/><path class="cls-4" d="M72.156,272.649a5.891,5.891,0,0,1-1.692,1.055,4.889,4.889,0,0,1-1.745.308,3.393,3.393,0,0,1-2.364-.751,2.481,2.481,0,0,1-.826-1.921,2.552,2.552,0,0,1,.312-1.252,2.585,2.585,0,0,1,.817-0.91,3.844,3.844,0,0,1,1.138-.519,11.3,11.3,0,0,1,1.406-.237,14.46,14.46,0,0,0,2.821-.545q0.009-.325.009-0.413a1.747,1.747,0,0,0-.448-1.362,2.648,2.648,0,0,0-1.8-.536,2.794,2.794,0,0,0-1.648.392,2.388,2.388,0,0,0-.787,1.384l-1.547-.211a3.831,3.831,0,0,1,.694-1.6,3.043,3.043,0,0,1,1.4-.94,6.233,6.233,0,0,1,2.118-.33,5.606,5.606,0,0,1,1.942.281,2.56,2.56,0,0,1,1.1.708,2.486,2.486,0,0,1,.492,1.076,8.908,8.908,0,0,1,.079,1.459v2.109a22.4,22.4,0,0,0,.1,2.791,3.518,3.518,0,0,0,.4,1.12H72.473A3.354,3.354,0,0,1,72.156,272.649Zm-0.132-3.533a11.607,11.607,0,0,1-2.584.6,5.977,5.977,0,0,0-1.38.316,1.377,1.377,0,0,0-.624.515,1.4,1.4,0,0,0,.259,1.806,2.061,2.061,0,0,0,1.4.422,3.262,3.262,0,0,0,1.626-.4,2.464,2.464,0,0,0,1.046-1.095,3.822,3.822,0,0,0,.255-1.582v-0.58Z" transform="translate(-8.661 -9.529)"/><path class="cls-4" d="M75.444,271.014l1.564-.246a2.187,2.187,0,0,0,.734,1.441,2.558,2.558,0,0,0,1.683.5,2.473,2.473,0,0,0,1.617-.443,1.328,1.328,0,0,0,.527-1.042,0.961,0.961,0,0,0-.466-0.844,6.861,6.861,0,0,0-1.617-.536,14.769,14.769,0,0,1-2.413-.76,2.3,2.3,0,0,1-1.367-2.141,2.4,2.4,0,0,1,.286-1.155,2.563,2.563,0,0,1,.778-0.884,3.261,3.261,0,0,1,1.006-.461,4.785,4.785,0,0,1,1.367-.189,5.4,5.4,0,0,1,1.929.316,2.625,2.625,0,0,1,1.226.857,3.346,3.346,0,0,1,.545,1.445l-1.547.211a1.692,1.692,0,0,0-.611-1.125,2.234,2.234,0,0,0-1.428-.4,2.586,2.586,0,0,0-1.556.36,1.049,1.049,0,0,0-.466.844,0.873,0.873,0,0,0,.193.554,1.4,1.4,0,0,0,.606.422q0.237,0.088,1.4.4a19.431,19.431,0,0,1,2.342.734,2.375,2.375,0,0,1,1.042.83,2.318,2.318,0,0,1,.378,1.354,2.658,2.658,0,0,1-.461,1.49,2.982,2.982,0,0,1-1.332,1.081,4.847,4.847,0,0,1-1.969.382,4.386,4.386,0,0,1-2.773-.756A3.515,3.515,0,0,1,75.444,271.014Z" transform="translate(-8.661 -9.529)"/><path class="cls-4" d="M85.076,273.8V260.915h1.582v4.623a3.534,3.534,0,0,1,2.795-1.283,3.769,3.769,0,0,1,1.8.409,2.4,2.4,0,0,1,1.094,1.129,5.206,5.206,0,0,1,.33,2.092V273.8H91.1v-5.915a2.443,2.443,0,0,0-.514-1.727,1.912,1.912,0,0,0-1.455-.541,2.565,2.565,0,0,0-1.323.365,2.059,2.059,0,0,0-.883.988,4.541,4.541,0,0,0-.264,1.723V273.8H85.076Z" transform="translate(-8.661 -9.529)"/><rect class="cls-1" x="233.045" y="74.305" width="167.016" height="127.61"/><rect class="cls-2" x="233.045" y="74.305" width="167.016" height="45.897"/><path class="cls-3" d="M251.679,112.307V99.422h4.86a11.735,11.735,0,0,1,1.96.123,3.883,3.883,0,0,1,1.591.6,3.158,3.158,0,0,1,1.032,1.244,4.192,4.192,0,0,1-.654,4.54q-1.046,1.138-3.779,1.138h-3.3v5.238h-1.705Zm1.705-6.759h3.331a3.533,3.533,0,0,0,2.347-.615,2.192,2.192,0,0,0,.694-1.731,2.329,2.329,0,0,0-.409-1.384,1.909,1.909,0,0,0-1.076-.76,7.285,7.285,0,0,0-1.591-.114h-3.3v4.605Z" transform="translate(-8.661 -9.529)"/><path class="cls-3" d="M262.894,107.64a4.811,4.811,0,0,1,1.441-3.841,4.343,4.343,0,0,1,2.936-1.037,4.188,4.188,0,0,1,3.146,1.261,4.8,4.8,0,0,1,1.222,3.485,6.174,6.174,0,0,1-.541,2.834,3.826,3.826,0,0,1-1.573,1.6,4.579,4.579,0,0,1-2.254.571,4.2,4.2,0,0,1-3.169-1.257A5.02,5.02,0,0,1,262.894,107.64Zm1.626,0a3.976,3.976,0,0,0,.782,2.685,2.6,2.6,0,0,0,3.929,0,4.07,4.07,0,0,0,.782-2.733,3.857,3.857,0,0,0-.787-2.624,2.608,2.608,0,0,0-3.924,0A3.958,3.958,0,0,0,264.52,107.64Z" transform="translate(-8.661 -9.529)"/><path class="cls-3" d="M273.476,112.307v-9.334H274.9v1.415a3.861,3.861,0,0,1,1.006-1.31,1.758,1.758,0,0,1,1.016-.316,3.086,3.086,0,0,1,1.626.51L278,104.739a2.264,2.264,0,0,0-1.16-.343,1.507,1.507,0,0,0-.932.312,1.69,1.69,0,0,0-.589.866,6.162,6.162,0,0,0-.264,1.846v4.887h-1.582Z" transform="translate(-8.661 -9.529)"/><path class="cls-3" d="M282.942,110.892l0.229,1.4a5.868,5.868,0,0,1-1.2.141,2.706,2.706,0,0,1-1.336-.272,1.526,1.526,0,0,1-.668-0.716,5.664,5.664,0,0,1-.193-1.868V104.2h-1.16v-1.23h1.16v-2.312l1.573-.949v3.261h1.591v1.23h-1.591v5.458a2.762,2.762,0,0,0,.083.87,0.659,0.659,0,0,0,.272.308,1.054,1.054,0,0,0,.541.114A5.146,5.146,0,0,0,282.942,110.892Z" transform="translate(-8.661 -9.529)"/><path class="cls-3" d="M284.867,112.307v-8.1h-1.4v-1.23h1.4v-0.993a4.349,4.349,0,0,1,.167-1.4,2.022,2.022,0,0,1,.8-1,2.9,2.9,0,0,1,1.613-.382,7.744,7.744,0,0,1,1.477.158l-0.237,1.38a5.309,5.309,0,0,0-.932-0.088,1.386,1.386,0,0,0-1.02.308,1.667,1.667,0,0,0-.3,1.151v0.861h1.819v1.23H286.44v8.1h-1.573Z" transform="translate(-8.661 -9.529)"/><path class="cls-3" d="M288.9,107.64a4.811,4.811,0,0,1,1.441-3.841,4.343,4.343,0,0,1,2.936-1.037,4.188,4.188,0,0,1,3.146,1.261,4.8,4.8,0,0,1,1.222,3.485,6.174,6.174,0,0,1-.541,2.834,3.826,3.826,0,0,1-1.573,1.6,4.579,4.579,0,0,1-2.254.571,4.2,4.2,0,0,1-3.169-1.257A5.02,5.02,0,0,1,288.9,107.64Zm1.626,0a3.976,3.976,0,0,0,.782,2.685,2.6,2.6,0,0,0,3.929,0,4.07,4.07,0,0,0,.782-2.733,3.857,3.857,0,0,0-.787-2.624,2.608,2.608,0,0,0-3.924,0A3.958,3.958,0,0,0,290.527,107.64Z" transform="translate(-8.661 -9.529)"/><path class="cls-3" d="M299.465,112.307V99.422h1.582v12.885h-1.582Z" transform="translate(-8.661 -9.529)"/><path class="cls-3" d="M303.508,101.241V99.422h1.582v1.819h-1.582Zm0,11.065v-9.334h1.582v9.334h-1.582Z" transform="translate(-8.661 -9.529)"/><path class="cls-3" d="M306.91,107.64a4.811,4.811,0,0,1,1.441-3.841,4.343,4.343,0,0,1,2.936-1.037,4.188,4.188,0,0,1,3.146,1.261,4.8,4.8,0,0,1,1.222,3.485,6.174,6.174,0,0,1-.541,2.834,3.826,3.826,0,0,1-1.573,1.6,4.579,4.579,0,0,1-2.254.571,4.2,4.2,0,0,1-3.169-1.257A5.02,5.02,0,0,1,306.91,107.64Zm1.626,0a3.976,3.976,0,0,0,.782,2.685,2.6,2.6,0,0,0,3.929,0,4.07,4.07,0,0,0,.782-2.733,3.857,3.857,0,0,0-.787-2.624,2.608,2.608,0,0,0-3.924,0A3.958,3.958,0,0,0,308.536,107.64Z" transform="translate(-8.661 -9.529)"/><path class="cls-3" d="M320.3,112.307l4.948-12.885h1.837l5.273,12.885h-1.942l-1.5-3.9H323.53l-1.415,3.9H320.3Zm3.718-5.291h4.368l-1.345-3.568q-0.615-1.626-.914-2.672a16.425,16.425,0,0,1-.694,2.461Z" transform="translate(-8.661 -9.529)"/><path class="cls-3" d="M332.89,109.52l1.564-.246a2.186,2.186,0,0,0,.733,1.441,2.559,2.559,0,0,0,1.684.5,2.473,2.473,0,0,0,1.617-.444,1.327,1.327,0,0,0,.527-1.042,0.961,0.961,0,0,0-.466-0.844,6.861,6.861,0,0,0-1.617-.536,14.767,14.767,0,0,1-2.413-.76,2.3,2.3,0,0,1-1.366-2.14,2.4,2.4,0,0,1,.285-1.156,2.563,2.563,0,0,1,.778-0.883,3.258,3.258,0,0,1,1.006-.461,4.789,4.789,0,0,1,1.367-.189,5.4,5.4,0,0,1,1.929.316,2.626,2.626,0,0,1,1.227.857,3.349,3.349,0,0,1,.545,1.446l-1.547.211a1.692,1.692,0,0,0-.611-1.125,2.233,2.233,0,0,0-1.428-.4,2.586,2.586,0,0,0-1.556.36,1.049,1.049,0,0,0-.466.844,0.873,0.873,0,0,0,.193.554,1.4,1.4,0,0,0,.606.422q0.237,0.088,1.4.4a19.438,19.438,0,0,1,2.342.734,2.378,2.378,0,0,1,1.042.831,2.318,2.318,0,0,1,.378,1.354,2.657,2.657,0,0,1-.462,1.49,2.981,2.981,0,0,1-1.331,1.081,4.847,4.847,0,0,1-1.969.382,4.387,4.387,0,0,1-2.773-.756A3.515,3.515,0,0,1,332.89,109.52Z" transform="translate(-8.661 -9.529)"/><path class="cls-3" d="M341.89,109.52l1.564-.246a2.186,2.186,0,0,0,.733,1.441,2.559,2.559,0,0,0,1.684.5,2.473,2.473,0,0,0,1.617-.444,1.327,1.327,0,0,0,.527-1.042,0.961,0.961,0,0,0-.466-0.844,6.861,6.861,0,0,0-1.617-.536,14.767,14.767,0,0,1-2.413-.76,2.3,2.3,0,0,1-1.366-2.14,2.4,2.4,0,0,1,.285-1.156,2.563,2.563,0,0,1,.778-0.883,3.258,3.258,0,0,1,1.006-.461,4.789,4.789,0,0,1,1.367-.189,5.4,5.4,0,0,1,1.929.316,2.626,2.626,0,0,1,1.227.857,3.349,3.349,0,0,1,.545,1.446l-1.547.211a1.692,1.692,0,0,0-.611-1.125,2.233,2.233,0,0,0-1.428-.4,2.586,2.586,0,0,0-1.556.36,1.049,1.049,0,0,0-.466.844,0.873,0.873,0,0,0,.193.554,1.4,1.4,0,0,0,.606.422q0.237,0.088,1.4.4a19.438,19.438,0,0,1,2.342.734,2.378,2.378,0,0,1,1.042.831,2.318,2.318,0,0,1,.378,1.354,2.657,2.657,0,0,1-.462,1.49,2.981,2.981,0,0,1-1.331,1.081,4.847,4.847,0,0,1-1.969.382,4.387,4.387,0,0,1-2.773-.756A3.515,3.515,0,0,1,341.89,109.52Z" transform="translate(-8.661 -9.529)"/><path class="cls-3" d="M357.913,109.3l1.635,0.2a3.989,3.989,0,0,1-1.433,2.224,4.854,4.854,0,0,1-5.92-.47,4.928,4.928,0,0,1-1.2-3.538,5.158,5.158,0,0,1,1.213-3.656,4.106,4.106,0,0,1,3.146-1.3,3.99,3.99,0,0,1,3.059,1.274,5.064,5.064,0,0,1,1.187,3.586q0,0.141-.009.422h-6.961a3.587,3.587,0,0,0,.87,2.355,2.59,2.59,0,0,0,1.951.817,2.421,2.421,0,0,0,1.485-.457A3.034,3.034,0,0,0,357.913,109.3Zm-5.194-2.558h5.212a3.162,3.162,0,0,0-.6-1.767,2.425,2.425,0,0,0-1.96-.914,2.514,2.514,0,0,0-1.833.729A2.887,2.887,0,0,0,352.718,106.743Z" transform="translate(-8.661 -9.529)"/><path class="cls-3" d="M364.988,110.892l0.229,1.4a5.868,5.868,0,0,1-1.2.141,2.706,2.706,0,0,1-1.336-.272,1.526,1.526,0,0,1-.668-0.716,5.664,5.664,0,0,1-.193-1.868V104.2h-1.16v-1.23h1.16v-2.312l1.573-.949v3.261h1.591v1.23H363.4v5.458a2.762,2.762,0,0,0,.083.87,0.659,0.659,0,0,0,.272.308,1.054,1.054,0,0,0,.541.114A5.146,5.146,0,0,0,364.988,110.892Z" transform="translate(-8.661 -9.529)"/><path class="cls-3" d="M371.685,112.307V99.422h2.566l3.05,9.123q0.422,1.274.615,1.907,0.22-.7.686-2.065l3.085-8.965h2.294v12.885h-1.644V101.522l-3.744,10.784h-1.538l-3.727-10.969v10.969h-1.644Z" transform="translate(-8.661 -9.529)"/><path class="cls-3" d="M386.539,101.241V99.422h1.582v1.819h-1.582Zm0,11.065v-9.334h1.582v9.334h-1.582Z" transform="translate(-8.661 -9.529)"/><path class="cls-3" d="M389.474,112.307l3.41-4.852-3.155-4.482h1.978l1.433,2.188q0.4,0.624.65,1.046,0.387-.58.712-1.028l1.573-2.206h1.89l-3.226,4.395,3.472,4.939h-1.942l-1.916-2.9-0.51-.782-2.452,3.683h-1.916Z" transform="translate(-8.661 -9.529)"/><path class="cls-3" d="M250.291,114.873v-1.318H398.342v1.318H250.291Z" transform="translate(-8.661 -9.529)"/><path class="cls-4" d="M269.079,148.846a2.235,2.235,0,1,1,.654,1.578A2.135,2.135,0,0,1,269.079,148.846Z" transform="translate(-8.661 -9.529)"/><path class="cls-4" d="M285.233,151.017l1.608-.141a3.551,3.551,0,0,0,.531,1.586,2.9,2.9,0,0,0,1.3,1,4.909,4.909,0,0,0,1.978.382,4.739,4.739,0,0,0,1.723-.29,2.388,2.388,0,0,0,1.111-.8,1.845,1.845,0,0,0,.365-1.1,1.677,1.677,0,0,0-.352-1.059,2.6,2.6,0,0,0-1.16-.76,22.676,22.676,0,0,0-2.294-.628,11.721,11.721,0,0,1-2.487-.8,3.489,3.489,0,0,1-1.376-1.2,2.94,2.94,0,0,1-.452-1.6,3.275,3.275,0,0,1,.554-1.824,3.429,3.429,0,0,1,1.617-1.288,6.135,6.135,0,0,1,2.364-.439,6.456,6.456,0,0,1,2.526.461,3.646,3.646,0,0,1,1.684,1.358,3.9,3.9,0,0,1,.633,2.03l-1.635.123a2.638,2.638,0,0,0-.893-1.846,3.471,3.471,0,0,0-2.245-.624,3.605,3.605,0,0,0-2.255.567,1.7,1.7,0,0,0-.707,1.367,1.465,1.465,0,0,0,.5,1.143,6.785,6.785,0,0,0,2.57.918,17.014,17.014,0,0,1,2.853.822,3.906,3.906,0,0,1,1.661,1.314,3.2,3.2,0,0,1,.536,1.833,3.5,3.5,0,0,1-.589,1.938,3.879,3.879,0,0,1-1.692,1.415,5.892,5.892,0,0,1-2.482.505,7.416,7.416,0,0,1-2.932-.51,4.105,4.105,0,0,1-1.854-1.534A4.348,4.348,0,0,1,285.233,151.017Z" transform="translate(-8.661 -9.529)"/><path class="cls-4" d="M301.071,153.742l0.229,1.4a5.868,5.868,0,0,1-1.2.141,2.706,2.706,0,0,1-1.336-.272,1.526,1.526,0,0,1-.668-0.716,5.664,5.664,0,0,1-.193-1.868v-5.37h-1.16v-1.23h1.16v-2.312l1.573-.949v3.261h1.591v1.23H299.48v5.458a2.762,2.762,0,0,0,.083.87,0.659,0.659,0,0,0,.272.308,1.054,1.054,0,0,0,.541.114A5.146,5.146,0,0,0,301.071,153.742Z" transform="translate(-8.661 -9.529)"/><path class="cls-4" d="M302.029,150.49a4.811,4.811,0,0,1,1.441-3.841,4.343,4.343,0,0,1,2.936-1.037,4.188,4.188,0,0,1,3.146,1.261,4.8,4.8,0,0,1,1.222,3.485,6.174,6.174,0,0,1-.541,2.834,3.826,3.826,0,0,1-1.573,1.6,4.579,4.579,0,0,1-2.254.571,4.2,4.2,0,0,1-3.169-1.257A5.02,5.02,0,0,1,302.029,150.49Zm1.626,0a3.976,3.976,0,0,0,.782,2.685,2.6,2.6,0,0,0,3.929,0,4.07,4.07,0,0,0,.782-2.733,3.857,3.857,0,0,0-.787-2.624,2.608,2.608,0,0,0-3.924,0A3.958,3.958,0,0,0,303.655,150.49Z" transform="translate(-8.661 -9.529)"/><path class="cls-4" d="M318.719,151.738l1.556,0.2a4.035,4.035,0,0,1-1.306,2.518,3.8,3.8,0,0,1-2.579.91,4.009,4.009,0,0,1-3.081-1.252,5.081,5.081,0,0,1-1.164-3.59,6.5,6.5,0,0,1,.5-2.646,3.492,3.492,0,0,1,1.524-1.7,4.526,4.526,0,0,1,2.229-.567,3.873,3.873,0,0,1,2.487.769,3.526,3.526,0,0,1,1.239,2.184l-1.538.237a2.555,2.555,0,0,0-.778-1.415,2.011,2.011,0,0,0-1.349-.475,2.456,2.456,0,0,0-1.942.857,4.068,4.068,0,0,0-.747,2.711,4.205,4.205,0,0,0,.721,2.733,2.345,2.345,0,0,0,1.881.853,2.217,2.217,0,0,0,1.556-.571A2.835,2.835,0,0,0,318.719,151.738Z" transform="translate(-8.661 -9.529)"/><path class="cls-4" d="M321.637,155.157V142.272h1.582v7.348l3.744-3.8h2.048l-3.568,3.463,3.929,5.871h-1.951l-3.085-4.772-1.116,1.072v3.7h-1.582Z" transform="translate(-8.661 -9.529)"/><path class="cls-4" d="M330,152.371l1.564-.246a2.186,2.186,0,0,0,.733,1.441,2.559,2.559,0,0,0,1.684.5,2.473,2.473,0,0,0,1.617-.444,1.327,1.327,0,0,0,.527-1.042,0.961,0.961,0,0,0-.466-0.844,6.861,6.861,0,0,0-1.617-.536,14.767,14.767,0,0,1-2.413-.76,2.3,2.3,0,0,1-1.366-2.14,2.4,2.4,0,0,1,.285-1.156,2.563,2.563,0,0,1,.778-0.883,3.258,3.258,0,0,1,1.006-.461,4.789,4.789,0,0,1,1.367-.189,5.4,5.4,0,0,1,1.929.316,2.626,2.626,0,0,1,1.227.857,3.349,3.349,0,0,1,.545,1.446l-1.547.211a1.692,1.692,0,0,0-.611-1.125,2.233,2.233,0,0,0-1.428-.4,2.586,2.586,0,0,0-1.556.36,1.049,1.049,0,0,0-.466.844,0.873,0.873,0,0,0,.193.554,1.4,1.4,0,0,0,.606.422q0.237,0.088,1.4.4a19.438,19.438,0,0,1,2.342.734,2.378,2.378,0,0,1,1.042.831,2.318,2.318,0,0,1,.378,1.354,2.657,2.657,0,0,1-.462,1.49,2.981,2.981,0,0,1-1.331,1.081,4.847,4.847,0,0,1-1.969.382,4.387,4.387,0,0,1-2.773-.756A3.515,3.515,0,0,1,330,152.371Z" transform="translate(-8.661 -9.529)"/><path class="cls-4" d="M269.079,170.446a2.235,2.235,0,1,1,.654,1.578A2.135,2.135,0,0,1,269.079,170.446Z" transform="translate(-8.661 -9.529)"/><path class="cls-4" d="M285.743,176.757V163.872h4.834a5.98,5.98,0,0,1,2.368.391,3.046,3.046,0,0,1,1.4,1.2,3.175,3.175,0,0,1,.506,1.7,2.922,2.922,0,0,1-.448,1.556,3.2,3.2,0,0,1-1.354,1.178,3.364,3.364,0,0,1,1.8,1.169,3.131,3.131,0,0,1,.629,1.951,3.764,3.764,0,0,1-.383,1.683,3.258,3.258,0,0,1-.944,1.2,3.946,3.946,0,0,1-1.411.637,8.575,8.575,0,0,1-2.078.215h-4.913Zm1.705-7.471h2.786a6.217,6.217,0,0,0,1.626-.149,1.806,1.806,0,0,0,.979-0.642,1.848,1.848,0,0,0,.33-1.125,2.072,2.072,0,0,0-.308-1.129,1.557,1.557,0,0,0-.879-0.668,7.34,7.34,0,0,0-1.96-.18h-2.575v3.894Zm0,5.95h3.208a7.384,7.384,0,0,0,1.16-.062,2.78,2.78,0,0,0,.984-0.352,1.867,1.867,0,0,0,.65-0.716,2.242,2.242,0,0,0,.255-1.085,2.141,2.141,0,0,0-.369-1.252,1.948,1.948,0,0,0-1.024-.747,6.345,6.345,0,0,0-1.885-.215h-2.979v4.43Z" transform="translate(-8.661 -9.529)"/><path class="cls-4" d="M297.028,172.09a4.811,4.811,0,0,1,1.441-3.841,4.343,4.343,0,0,1,2.936-1.037,4.188,4.188,0,0,1,3.146,1.261,4.8,4.8,0,0,1,1.222,3.485,6.174,6.174,0,0,1-.541,2.834,3.826,3.826,0,0,1-1.573,1.6,4.579,4.579,0,0,1-2.254.571,4.2,4.2,0,0,1-3.169-1.257A5.02,5.02,0,0,1,297.028,172.09Zm1.626,0a3.976,3.976,0,0,0,.782,2.685,2.6,2.6,0,0,0,3.929,0,4.07,4.07,0,0,0,.782-2.733,3.857,3.857,0,0,0-.787-2.624,2.608,2.608,0,0,0-3.924,0A3.958,3.958,0,0,0,298.654,172.09Z" transform="translate(-8.661 -9.529)"/><path class="cls-4" d="M307.628,176.757v-9.334h1.424v1.327a3.355,3.355,0,0,1,2.971-1.538,3.9,3.9,0,0,1,1.551.3,2.442,2.442,0,0,1,1.06.8,3.053,3.053,0,0,1,.492,1.169,9.059,9.059,0,0,1,.088,1.538v5.739h-1.582v-5.678a4.262,4.262,0,0,0-.185-1.446,1.522,1.522,0,0,0-.655-0.765,2.081,2.081,0,0,0-1.1-.286,2.564,2.564,0,0,0-1.745.642,3.165,3.165,0,0,0-.733,2.435v5.1h-1.582Z" transform="translate(-8.661 -9.529)"/><path class="cls-4" d="M323.694,176.757v-1.178a2.9,2.9,0,0,1-2.61,1.389,3.662,3.662,0,0,1-2.053-.615,4.046,4.046,0,0,1-1.45-1.718,5.939,5.939,0,0,1-.514-2.536,6.637,6.637,0,0,1,.466-2.536,3.674,3.674,0,0,1,1.4-1.745,3.736,3.736,0,0,1,2.083-.606,3.113,3.113,0,0,1,2.575,1.283v-4.623h1.573v12.885h-1.468Zm-5-4.658a4.054,4.054,0,0,0,.756,2.681,2.279,2.279,0,0,0,1.784.888,2.236,2.236,0,0,0,1.762-.848,3.91,3.91,0,0,0,.726-2.588,4.389,4.389,0,0,0-.738-2.812,2.271,2.271,0,0,0-1.819-.9,2.193,2.193,0,0,0-1.763.861A4.251,4.251,0,0,0,318.693,172.1Z" transform="translate(-8.661 -9.529)"/><path class="cls-4" d="M327.016,173.971l1.564-.246a2.186,2.186,0,0,0,.733,1.441,2.559,2.559,0,0,0,1.684.5,2.473,2.473,0,0,0,1.617-.444,1.327,1.327,0,0,0,.527-1.042,0.961,0.961,0,0,0-.466-0.844,6.861,6.861,0,0,0-1.617-.536,14.767,14.767,0,0,1-2.413-.76,2.3,2.3,0,0,1-1.366-2.14,2.4,2.4,0,0,1,.285-1.156,2.563,2.563,0,0,1,.778-0.883,3.258,3.258,0,0,1,1.006-.461,4.789,4.789,0,0,1,1.367-.189,5.4,5.4,0,0,1,1.929.316,2.626,2.626,0,0,1,1.227.857,3.349,3.349,0,0,1,.545,1.446l-1.547.211a1.692,1.692,0,0,0-.611-1.125,2.233,2.233,0,0,0-1.428-.4,2.586,2.586,0,0,0-1.556.36,1.049,1.049,0,0,0-.466.844,0.873,0.873,0,0,0,.193.554,1.4,1.4,0,0,0,.606.422q0.237,0.088,1.4.4a19.438,19.438,0,0,1,2.342.734,2.378,2.378,0,0,1,1.042.831,2.318,2.318,0,0,1,.378,1.354,2.657,2.657,0,0,1-.462,1.49,2.981,2.981,0,0,1-1.331,1.081,4.847,4.847,0,0,1-1.969.382,4.387,4.387,0,0,1-2.773-.756A3.515,3.515,0,0,1,327.016,173.971Z" transform="translate(-8.661 -9.529)"/><path class="cls-4" d="M269.079,192.046a2.235,2.235,0,1,1,.654,1.578A2.135,2.135,0,0,1,269.079,192.046Z" transform="translate(-8.661 -9.529)"/><path class="cls-4" d="M295.007,193.839l1.705,0.431a5.74,5.74,0,0,1-1.93,3.2,5.314,5.314,0,0,1-3.405,1.1,6.122,6.122,0,0,1-3.389-.848A5.3,5.3,0,0,1,286,195.272a8.765,8.765,0,0,1-.681-3.454,7.592,7.592,0,0,1,.769-3.511,5.269,5.269,0,0,1,2.188-2.276,6.4,6.4,0,0,1,3.125-.778,5.282,5.282,0,0,1,3.252.984,5.112,5.112,0,0,1,1.837,2.769l-1.679.4a3.982,3.982,0,0,0-1.3-2.048,3.466,3.466,0,0,0-2.145-.642,4.167,4.167,0,0,0-2.483.712,3.759,3.759,0,0,0-1.4,1.912,7.7,7.7,0,0,0-.4,2.474,7.863,7.863,0,0,0,.479,2.87,3.569,3.569,0,0,0,1.49,1.833,4.178,4.178,0,0,0,2.188.606,3.667,3.667,0,0,0,2.426-.826A4.228,4.228,0,0,0,295.007,193.839Z" transform="translate(-8.661 -9.529)"/><path class="cls-4" d="M304.7,197.205a5.893,5.893,0,0,1-1.692,1.055,4.886,4.886,0,0,1-1.744.308,3.393,3.393,0,0,1-2.364-.751,2.48,2.48,0,0,1-.826-1.92,2.554,2.554,0,0,1,.312-1.252,2.583,2.583,0,0,1,.817-0.91,3.846,3.846,0,0,1,1.139-.519,11.3,11.3,0,0,1,1.406-.237,14.46,14.46,0,0,0,2.821-.545q0.009-.325.009-0.413a1.747,1.747,0,0,0-.448-1.362,2.648,2.648,0,0,0-1.8-.536,2.8,2.8,0,0,0-1.648.391,2.389,2.389,0,0,0-.786,1.384l-1.547-.211a3.833,3.833,0,0,1,.694-1.6,3.043,3.043,0,0,1,1.4-.94,6.233,6.233,0,0,1,2.118-.33,5.606,5.606,0,0,1,1.942.281,2.559,2.559,0,0,1,1.1.708,2.488,2.488,0,0,1,.492,1.077,8.908,8.908,0,0,1,.079,1.459v2.109a22.428,22.428,0,0,0,.1,2.791,3.522,3.522,0,0,0,.4,1.121h-1.652A3.354,3.354,0,0,1,304.7,197.205Zm-0.132-3.533a11.607,11.607,0,0,1-2.584.6,5.977,5.977,0,0,0-1.38.316,1.376,1.376,0,0,0-.624.514,1.4,1.4,0,0,0,.259,1.806,2.062,2.062,0,0,0,1.4.422,3.263,3.263,0,0,0,1.626-.4,2.463,2.463,0,0,0,1.046-1.094,3.822,3.822,0,0,0,.255-1.582v-0.58Z" transform="translate(-8.661 -9.529)"/><path class="cls-4" d="M307.988,195.571l1.564-.246a2.186,2.186,0,0,0,.733,1.441,2.559,2.559,0,0,0,1.684.5,2.473,2.473,0,0,0,1.617-.444,1.327,1.327,0,0,0,.527-1.042,0.961,0.961,0,0,0-.466-0.844,6.861,6.861,0,0,0-1.617-.536,14.767,14.767,0,0,1-2.413-.76,2.3,2.3,0,0,1-1.366-2.14,2.4,2.4,0,0,1,.285-1.156,2.563,2.563,0,0,1,.778-0.883,3.258,3.258,0,0,1,1.006-.461,4.789,4.789,0,0,1,1.367-.189,5.4,5.4,0,0,1,1.929.316,2.626,2.626,0,0,1,1.227.857,3.349,3.349,0,0,1,.545,1.446l-1.547.211a1.692,1.692,0,0,0-.611-1.125,2.233,2.233,0,0,0-1.428-.4,2.586,2.586,0,0,0-1.556.36,1.049,1.049,0,0,0-.466.844,0.873,0.873,0,0,0,.193.554,1.4,1.4,0,0,0,.606.422q0.237,0.088,1.4.4a19.438,19.438,0,0,1,2.342.734,2.378,2.378,0,0,1,1.042.831,2.318,2.318,0,0,1,.378,1.354,2.657,2.657,0,0,1-.462,1.49,2.981,2.981,0,0,1-1.331,1.081,4.847,4.847,0,0,1-1.969.382,4.387,4.387,0,0,1-2.773-.756A3.515,3.515,0,0,1,307.988,195.571Z" transform="translate(-8.661 -9.529)"/><path class="cls-4" d="M317.621,198.357V185.472H319.2V190.1A3.534,3.534,0,0,1,322,188.812a3.769,3.769,0,0,1,1.8.409,2.4,2.4,0,0,1,1.094,1.129,5.205,5.205,0,0,1,.33,2.092v5.915h-1.582v-5.915a2.444,2.444,0,0,0-.515-1.727,1.911,1.911,0,0,0-1.454-.541,2.567,2.567,0,0,0-1.323.365,2.059,2.059,0,0,0-.883.989,4.541,4.541,0,0,0-.264,1.723v5.106h-1.582Z" transform="translate(-8.661 -9.529)"/><polygon class="cls-5" points="153.546 4.858 228.546 138.443 153.546 272.028 153.546 4.858"/><path class="cls-3" d="M183.351,154.157V141.272h5.713a7.6,7.6,0,0,1,2.619.347,2.864,2.864,0,0,1,1.433,1.226,3.658,3.658,0,0,1,.536,1.942,3.24,3.24,0,0,1-.888,2.312,4.492,4.492,0,0,1-2.742,1.2,4.422,4.422,0,0,1,1.028.642,8.86,8.86,0,0,1,1.415,1.714l2.241,3.507h-2.145l-1.705-2.681q-0.747-1.16-1.23-1.775a3.869,3.869,0,0,0-.866-0.861,2.559,2.559,0,0,0-.778-0.343,5.122,5.122,0,0,0-.949-0.062h-1.978v5.722h-1.705Zm1.705-7.2h3.665a5.5,5.5,0,0,0,1.828-.242,1.945,1.945,0,0,0,1-.773,2.092,2.092,0,0,0,.343-1.156,1.92,1.92,0,0,0-.664-1.5,3.1,3.1,0,0,0-2.1-.589h-4.078v4.263Z" transform="translate(-8.661 -9.529)"/><path class="cls-3" d="M196.13,143.091v-1.819h1.582v1.819H196.13Zm0,11.065v-9.334h1.582v9.334H196.13Z" transform="translate(-8.661 -9.529)"/><path class="cls-3" d="M199.487,151.371l1.564-.246a2.187,2.187,0,0,0,.734,1.441,2.558,2.558,0,0,0,1.683.5,2.473,2.473,0,0,0,1.617-.444,1.327,1.327,0,0,0,.527-1.042,0.961,0.961,0,0,0-.466-0.844,6.861,6.861,0,0,0-1.617-.536,14.757,14.757,0,0,1-2.413-.76,2.3,2.3,0,0,1-1.367-2.14,2.4,2.4,0,0,1,.286-1.156,2.561,2.561,0,0,1,.778-0.883,3.261,3.261,0,0,1,1.006-.461,4.785,4.785,0,0,1,1.367-.189,5.4,5.4,0,0,1,1.929.316,2.624,2.624,0,0,1,1.226.857,3.349,3.349,0,0,1,.545,1.446l-1.547.211a1.692,1.692,0,0,0-.611-1.125,2.234,2.234,0,0,0-1.428-.4,2.586,2.586,0,0,0-1.556.36,1.049,1.049,0,0,0-.466.844,0.873,0.873,0,0,0,.193.554,1.4,1.4,0,0,0,.606.422q0.237,0.088,1.4.4a19.454,19.454,0,0,1,2.342.734,2.376,2.376,0,0,1,1.042.831,2.318,2.318,0,0,1,.378,1.354,2.656,2.656,0,0,1-.461,1.49,2.982,2.982,0,0,1-1.332,1.081,4.847,4.847,0,0,1-1.969.382,4.386,4.386,0,0,1-2.773-.756A3.515,3.515,0,0,1,199.487,151.371Z" transform="translate(-8.661 -9.529)"/><path class="cls-3" d="M209.13,154.157V141.272h1.582v7.348l3.744-3.8H216.5l-3.568,3.463,3.929,5.871h-1.951l-3.085-4.772-1.116,1.072v3.7H209.13Z" transform="translate(-8.661 -9.529)"/></svg>