<svg id="Layer_1" data-name="Layer 1" xmlns="http://www.w3.org/2000/svg" viewBox="0 0 408.82 277.859"><defs><style>.cls-1,.cls-3{fill:#fff;}.cls-1{stroke:#28538c;}.cls-1,.cls-7{stroke-miterlimit:10;}.cls-2{fill:#28538c;}.cls-4{fill:#231f20;}.cls-5{fill:#28548c;}.cls-6{fill:#939393;}.cls-7{fill:none;stroke:#939393;}</style></defs><title>Tactical_Asset_Allocation</title><rect class="cls-1" x="23.39" y="0.5" width="152.55" height="127.61"/><rect class="cls-2" x="23.39" y="0.5" width="152.55" height="45.897"/><path class="cls-3" d="M39.464,25.106V12.221h5.713a7.6,7.6,0,0,1,2.619.347,2.864,2.864,0,0,1,1.433,1.226,3.658,3.658,0,0,1,.536,1.942,3.24,3.24,0,0,1-.888,2.312,4.492,4.492,0,0,1-2.742,1.2,4.422,4.422,0,0,1,1.028.642A8.86,8.86,0,0,1,48.579,21.6l2.241,3.507H48.675L46.97,22.425q-0.747-1.16-1.23-1.775a3.869,3.869,0,0,0-.866-0.861,2.559,2.559,0,0,0-.778-0.343,5.122,5.122,0,0,0-.949-0.062H41.169v5.722H39.464Zm1.705-7.2h3.665a5.5,5.5,0,0,0,1.828-.242,1.945,1.945,0,0,0,1-.773,2.092,2.092,0,0,0,.343-1.156,1.92,1.92,0,0,0-.664-1.5,3.1,3.1,0,0,0-2.1-.589H41.169v4.263Z" transform="translate(-8.074 -6.133)"/><path class="cls-3" d="M58.625,22.1l1.635,0.2a3.989,3.989,0,0,1-1.433,2.224,4.853,4.853,0,0,1-5.919-.47,4.928,4.928,0,0,1-1.2-3.538,5.158,5.158,0,0,1,1.213-3.656,4.106,4.106,0,0,1,3.146-1.3,3.99,3.99,0,0,1,3.059,1.274,5.064,5.064,0,0,1,1.187,3.586q0,0.141-.009.422H53.342a3.587,3.587,0,0,0,.87,2.355,2.59,2.59,0,0,0,1.951.817,2.421,2.421,0,0,0,1.485-.457A3.034,3.034,0,0,0,58.625,22.1ZM53.43,19.542h5.212a3.162,3.162,0,0,0-.6-1.767,2.425,2.425,0,0,0-1.96-.914,2.513,2.513,0,0,0-1.833.729A2.887,2.887,0,0,0,53.43,19.542Z" transform="translate(-8.074 -6.133)"/><path class="cls-3" d="M62.21,25.106V12.221h1.582V25.106H62.21Z" transform="translate(-8.074 -6.133)"/><path class="cls-3" d="M72.335,23.955a5.891,5.891,0,0,1-1.692,1.055,4.889,4.889,0,0,1-1.745.308,3.393,3.393,0,0,1-2.364-.751,2.48,2.48,0,0,1-.826-1.92,2.554,2.554,0,0,1,.312-1.252,2.583,2.583,0,0,1,.817-0.91,3.844,3.844,0,0,1,1.138-.519,11.3,11.3,0,0,1,1.406-.237,14.46,14.46,0,0,0,2.821-.545q0.009-.325.009-0.413a1.747,1.747,0,0,0-.448-1.362,2.648,2.648,0,0,0-1.8-.536,2.794,2.794,0,0,0-1.648.391,2.39,2.39,0,0,0-.787,1.384l-1.547-.211a3.833,3.833,0,0,1,.694-1.6,3.043,3.043,0,0,1,1.4-.94,6.233,6.233,0,0,1,2.118-.33,5.606,5.606,0,0,1,1.942.281,2.559,2.559,0,0,1,1.1.708,2.488,2.488,0,0,1,.492,1.077,8.908,8.908,0,0,1,.079,1.459v2.109a22.389,22.389,0,0,0,.1,2.791,3.521,3.521,0,0,0,.4,1.121H72.652A3.354,3.354,0,0,1,72.335,23.955ZM72.2,20.421a11.607,11.607,0,0,1-2.584.6,5.977,5.977,0,0,0-1.38.316,1.376,1.376,0,0,0-.624.514,1.4,1.4,0,0,0,.259,1.806,2.061,2.061,0,0,0,1.4.422,3.263,3.263,0,0,0,1.626-.4,2.463,2.463,0,0,0,1.046-1.094A3.822,3.822,0,0,0,72.2,21v-0.58Z" transform="translate(-8.074 -6.133)"/><path class="cls-3" d="M79.709,23.691l0.229,1.4a5.868,5.868,0,0,1-1.2.141,2.706,2.706,0,0,1-1.336-.272,1.526,1.526,0,0,1-.668-0.716,5.664,5.664,0,0,1-.193-1.868V17h-1.16v-1.23h1.16V13.46l1.573-.949v3.261h1.591V17H78.119V22.46a2.757,2.757,0,0,0,.083.87,0.659,0.659,0,0,0,.272.308,1.052,1.052,0,0,0,.541.114A5.146,5.146,0,0,0,79.709,23.691Z" transform="translate(-8.074 -6.133)"/><path class="cls-3" d="M81.265,14.041V12.221h1.582v1.819H81.265Zm0,11.065V15.772h1.582v9.334H81.265Z" transform="translate(-8.074 -6.133)"/><path class="cls-3" d="M87.848,25.106L84.3,15.772h1.67l2,5.59q0.325,0.905.6,1.881,0.211-.738.589-1.775l2.074-5.7h1.626l-3.533,9.334H87.848Z" transform="translate(-8.074 -6.133)"/><path class="cls-3" d="M100.645,22.1l1.635,0.2a3.989,3.989,0,0,1-1.433,2.224,4.853,4.853,0,0,1-5.919-.47,4.928,4.928,0,0,1-1.2-3.538,5.158,5.158,0,0,1,1.213-3.656,4.106,4.106,0,0,1,3.146-1.3,3.99,3.99,0,0,1,3.059,1.274,5.064,5.064,0,0,1,1.187,3.586q0,0.141-.009.422H95.363a3.587,3.587,0,0,0,.87,2.355,2.59,2.59,0,0,0,1.951.817,2.421,2.421,0,0,0,1.485-.457A3.034,3.034,0,0,0,100.645,22.1Zm-5.194-2.558h5.212a3.162,3.162,0,0,0-.6-1.767,2.425,2.425,0,0,0-1.96-.914,2.513,2.513,0,0,0-1.833.729A2.887,2.887,0,0,0,95.451,19.542Z" transform="translate(-8.074 -6.133)"/><path class="cls-3" d="M109.417,25.106V12.221h2.566l3.05,9.123q0.422,1.274.615,1.907,0.22-.7.686-2.065l3.085-8.965h2.294V25.106h-1.644V14.322l-3.744,10.784h-1.538L111.06,14.137V25.106h-1.644Z" transform="translate(-8.074 -6.133)"/><path class="cls-3" d="M130.352,23.955a5.891,5.891,0,0,1-1.692,1.055,4.889,4.889,0,0,1-1.745.308,3.393,3.393,0,0,1-2.364-.751,2.48,2.48,0,0,1-.826-1.92,2.554,2.554,0,0,1,.312-1.252,2.583,2.583,0,0,1,.817-0.91,3.844,3.844,0,0,1,1.138-.519,11.3,11.3,0,0,1,1.406-.237,14.46,14.46,0,0,0,2.821-.545q0.009-.325.009-0.413a1.747,1.747,0,0,0-.448-1.362,2.648,2.648,0,0,0-1.8-.536,2.794,2.794,0,0,0-1.648.391,2.39,2.39,0,0,0-.787,1.384L124,18.435a3.833,3.833,0,0,1,.694-1.6,3.043,3.043,0,0,1,1.4-.94,6.233,6.233,0,0,1,2.118-.33,5.606,5.606,0,0,1,1.942.281,2.559,2.559,0,0,1,1.1.708,2.488,2.488,0,0,1,.492,1.077,8.908,8.908,0,0,1,.079,1.459v2.109a22.389,22.389,0,0,0,.1,2.791,3.521,3.521,0,0,0,.4,1.121h-1.652A3.354,3.354,0,0,1,130.352,23.955Zm-0.132-3.533a11.607,11.607,0,0,1-2.584.6,5.977,5.977,0,0,0-1.38.316,1.376,1.376,0,0,0-.624.514,1.4,1.4,0,0,0,.259,1.806,2.061,2.061,0,0,0,1.4.422,3.263,3.263,0,0,0,1.626-.4,2.463,2.463,0,0,0,1.046-1.094A3.822,3.822,0,0,0,130.22,21v-0.58Z" transform="translate(-8.074 -6.133)"/><path class="cls-3" d="M134.254,25.106V15.772h1.424v1.415a3.861,3.861,0,0,1,1.006-1.31,1.757,1.757,0,0,1,1.015-.316,3.086,3.086,0,0,1,1.626.51l-0.545,1.468a2.264,2.264,0,0,0-1.16-.343,1.507,1.507,0,0,0-.932.312,1.69,1.69,0,0,0-.589.866,6.162,6.162,0,0,0-.264,1.846v4.887h-1.582Z" transform="translate(-8.074 -6.133)"/><path class="cls-3" d="M140.275,25.106V12.221h1.582v7.348l3.744-3.8h2.048l-3.568,3.463,3.929,5.871h-1.951l-3.085-4.772-1.116,1.072v3.7h-1.582Z" transform="translate(-8.074 -6.133)"/><path class="cls-3" d="M155.656,22.1l1.635,0.2a3.989,3.989,0,0,1-1.433,2.224,4.853,4.853,0,0,1-5.919-.47,4.928,4.928,0,0,1-1.2-3.538,5.158,5.158,0,0,1,1.213-3.656,4.106,4.106,0,0,1,3.146-1.3,3.99,3.99,0,0,1,3.059,1.274,5.064,5.064,0,0,1,1.187,3.586q0,0.141-.009.422h-6.961a3.587,3.587,0,0,0,.87,2.355,2.59,2.59,0,0,0,1.951.817,2.421,2.421,0,0,0,1.485-.457A3.034,3.034,0,0,0,155.656,22.1Zm-5.194-2.558h5.212a3.162,3.162,0,0,0-.6-1.767,2.425,2.425,0,0,0-1.96-.914,2.513,2.513,0,0,0-1.833.729A2.887,2.887,0,0,0,150.461,19.542Z" transform="translate(-8.074 -6.133)"/><path class="cls-3" d="M162.731,23.691l0.229,1.4a5.868,5.868,0,0,1-1.2.141,2.706,2.706,0,0,1-1.336-.272,1.526,1.526,0,0,1-.668-0.716,5.664,5.664,0,0,1-.193-1.868V17h-1.16v-1.23h1.16V13.46l1.573-.949v3.261h1.591V17H161.14V22.46a2.757,2.757,0,0,0,.083.87,0.659,0.659,0,0,0,.272.308,1.052,1.052,0,0,0,.541.114A5.146,5.146,0,0,0,162.731,23.691Z" transform="translate(-8.074 -6.133)"/><path class="cls-3" d="M43.121,46.706L38.128,33.821h1.846l3.349,9.36q0.4,1.125.677,2.109,0.3-1.055.694-2.109l3.48-9.36h1.74L44.87,46.706H43.121Z" transform="translate(-8.074 -6.133)"/><path class="cls-3" d="M56,45.555A5.891,5.891,0,0,1,54.3,46.609a4.889,4.889,0,0,1-1.745.308,3.393,3.393,0,0,1-2.364-.751,2.48,2.48,0,0,1-.826-1.92,2.554,2.554,0,0,1,.312-1.252,2.583,2.583,0,0,1,.817-0.91,3.844,3.844,0,0,1,1.138-.519,11.3,11.3,0,0,1,1.406-.237,14.46,14.46,0,0,0,2.821-.545q0.009-.325.009-0.413a1.747,1.747,0,0,0-.448-1.362,2.648,2.648,0,0,0-1.8-.536,2.794,2.794,0,0,0-1.648.391,2.39,2.39,0,0,0-.787,1.384l-1.547-.211a3.833,3.833,0,0,1,.694-1.6,3.043,3.043,0,0,1,1.4-.94,6.233,6.233,0,0,1,2.118-.33,5.606,5.606,0,0,1,1.942.281,2.559,2.559,0,0,1,1.1.708,2.488,2.488,0,0,1,.492,1.077,8.908,8.908,0,0,1,.079,1.459v2.109a22.389,22.389,0,0,0,.1,2.791,3.521,3.521,0,0,0,.4,1.121H56.313A3.354,3.354,0,0,1,56,45.555Zm-0.132-3.533a11.607,11.607,0,0,1-2.584.6,5.977,5.977,0,0,0-1.38.316,1.376,1.376,0,0,0-.624.514,1.4,1.4,0,0,0,.259,1.806,2.061,2.061,0,0,0,1.4.422,3.263,3.263,0,0,0,1.626-.4,2.463,2.463,0,0,0,1.046-1.094,3.822,3.822,0,0,0,.255-1.582v-0.58Z" transform="translate(-8.074 -6.133)"/><path class="cls-3" d="M59.881,46.706V33.821h1.582V46.706H59.881Z" transform="translate(-8.074 -6.133)"/><path class="cls-3" d="M70.033,46.706V45.335a3.416,3.416,0,0,1-2.962,1.582,3.774,3.774,0,0,1-1.542-.316,2.541,2.541,0,0,1-1.063-.8,2.981,2.981,0,0,1-.488-1.173,8.033,8.033,0,0,1-.1-1.477V37.372h1.582v5.177a9.225,9.225,0,0,0,.1,1.67,1.65,1.65,0,0,0,.633.98,1.961,1.961,0,0,0,1.2.356,2.6,2.6,0,0,0,1.336-.365,2.028,2.028,0,0,0,.883-0.993,4.984,4.984,0,0,0,.259-1.824v-5h1.582v9.334H70.033Z" transform="translate(-8.074 -6.133)"/><path class="cls-3" d="M80.017,45.555a5.891,5.891,0,0,1-1.692,1.055,4.889,4.889,0,0,1-1.745.308,3.393,3.393,0,0,1-2.364-.751,2.48,2.48,0,0,1-.826-1.92,2.554,2.554,0,0,1,.312-1.252,2.583,2.583,0,0,1,.817-0.91,3.844,3.844,0,0,1,1.138-.519,11.3,11.3,0,0,1,1.406-.237,14.46,14.46,0,0,0,2.821-.545q0.009-.325.009-0.413a1.747,1.747,0,0,0-.448-1.362,2.648,2.648,0,0,0-1.8-.536A2.794,2.794,0,0,0,76,38.862a2.39,2.39,0,0,0-.787,1.384l-1.547-.211a3.833,3.833,0,0,1,.694-1.6,3.043,3.043,0,0,1,1.4-.94,6.233,6.233,0,0,1,2.118-.33,5.606,5.606,0,0,1,1.942.281,2.559,2.559,0,0,1,1.1.708,2.488,2.488,0,0,1,.492,1.077,8.908,8.908,0,0,1,.079,1.459v2.109a22.389,22.389,0,0,0,.1,2.791,3.521,3.521,0,0,0,.4,1.121H80.333A3.354,3.354,0,0,1,80.017,45.555Zm-0.132-3.533a11.607,11.607,0,0,1-2.584.6,5.977,5.977,0,0,0-1.38.316,1.376,1.376,0,0,0-.624.514,1.4,1.4,0,0,0,.259,1.806,2.061,2.061,0,0,0,1.4.422,3.263,3.263,0,0,0,1.626-.4,2.463,2.463,0,0,0,1.046-1.094,3.822,3.822,0,0,0,.255-1.582v-0.58Z" transform="translate(-8.074 -6.133)"/><path class="cls-3" d="M87.391,45.291l0.229,1.4a5.868,5.868,0,0,1-1.2.141,2.706,2.706,0,0,1-1.336-.272,1.526,1.526,0,0,1-.668-0.716,5.664,5.664,0,0,1-.193-1.868V38.6h-1.16v-1.23h1.16V35.061l1.573-.949v3.261h1.591V38.6H85.8v5.458a2.757,2.757,0,0,0,.083.87,0.659,0.659,0,0,0,.272.308,1.052,1.052,0,0,0,.541.114A5.146,5.146,0,0,0,87.391,45.291Z" transform="translate(-8.074 -6.133)"/><path class="cls-3" d="M88.947,35.641V33.821h1.582v1.819H88.947Zm0,11.065V37.372h1.582v9.334H88.947Z" transform="translate(-8.074 -6.133)"/><path class="cls-3" d="M92.348,42.039A4.811,4.811,0,0,1,93.79,38.2a4.343,4.343,0,0,1,2.936-1.037,4.188,4.188,0,0,1,3.146,1.261,4.8,4.8,0,0,1,1.222,3.485,6.175,6.175,0,0,1-.541,2.834,3.826,3.826,0,0,1-1.573,1.6,4.58,4.58,0,0,1-2.254.571,4.2,4.2,0,0,1-3.168-1.257A5.02,5.02,0,0,1,92.348,42.039Zm1.626,0a3.976,3.976,0,0,0,.782,2.685,2.6,2.6,0,0,0,3.929,0,4.07,4.07,0,0,0,.782-2.733,3.856,3.856,0,0,0-.787-2.624,2.608,2.608,0,0,0-3.924,0A3.958,3.958,0,0,0,93.974,42.039Z" transform="translate(-8.074 -6.133)"/><path class="cls-3" d="M102.948,46.706V37.372h1.424V38.7a3.355,3.355,0,0,1,2.971-1.538,3.9,3.9,0,0,1,1.551.3,2.44,2.44,0,0,1,1.059.8,3.053,3.053,0,0,1,.492,1.169,9.059,9.059,0,0,1,.088,1.538v5.739h-1.582V41.028a4.262,4.262,0,0,0-.185-1.446,1.521,1.521,0,0,0-.655-0.765,2.083,2.083,0,0,0-1.1-.286,2.563,2.563,0,0,0-1.745.642,3.165,3.165,0,0,0-.734,2.435v5.1h-1.582Z" transform="translate(-8.074 -6.133)"/><path class="cls-4" d="M58.838,71.646a2.228,2.228,0,0,1,2.224-2.224,2.158,2.158,0,0,1,1.578.65A2.226,2.226,0,1,1,58.838,71.646Z" transform="translate(-8.074 -6.133)"/><path class="cls-4" d="M74.992,73.817l1.608-.141a3.552,3.552,0,0,0,.532,1.586,2.9,2.9,0,0,0,1.3,1,4.909,4.909,0,0,0,1.978.382,4.739,4.739,0,0,0,1.723-.29,2.39,2.39,0,0,0,1.112-.8,1.845,1.845,0,0,0,.365-1.1,1.677,1.677,0,0,0-.352-1.059,2.6,2.6,0,0,0-1.16-.76,22.676,22.676,0,0,0-2.294-.628,11.721,11.721,0,0,1-2.487-.8,3.488,3.488,0,0,1-1.375-1.2,2.94,2.94,0,0,1-.453-1.6,3.275,3.275,0,0,1,.554-1.824,3.429,3.429,0,0,1,1.617-1.288,6.135,6.135,0,0,1,2.364-.439,6.459,6.459,0,0,1,2.527.461,3.644,3.644,0,0,1,1.683,1.358,3.9,3.9,0,0,1,.633,2.03l-1.635.123a2.638,2.638,0,0,0-.892-1.846,3.472,3.472,0,0,0-2.246-.624,3.6,3.6,0,0,0-2.254.567,1.7,1.7,0,0,0-.708,1.367,1.465,1.465,0,0,0,.5,1.143,6.788,6.788,0,0,0,2.571.918,17,17,0,0,1,2.852.822,3.906,3.906,0,0,1,1.661,1.314,3.2,3.2,0,0,1,.536,1.833,3.5,3.5,0,0,1-.589,1.938,3.877,3.877,0,0,1-1.692,1.415,5.894,5.894,0,0,1-2.483.505,7.414,7.414,0,0,1-2.931-.51A4.105,4.105,0,0,1,75.7,76.133,4.348,4.348,0,0,1,74.992,73.817Z" transform="translate(-8.074 -6.133)"/><path class="cls-4" d="M90.83,76.542l0.229,1.4a5.868,5.868,0,0,1-1.2.141,2.706,2.706,0,0,1-1.336-.272,1.526,1.526,0,0,1-.668-0.716,5.664,5.664,0,0,1-.193-1.868v-5.37h-1.16v-1.23h1.16V66.311l1.573-.949v3.261H90.83v1.23H89.239v5.458a2.757,2.757,0,0,0,.083.87,0.659,0.659,0,0,0,.272.308,1.052,1.052,0,0,0,.541.114A5.146,5.146,0,0,0,90.83,76.542Z" transform="translate(-8.074 -6.133)"/><path class="cls-4" d="M91.788,73.29a4.811,4.811,0,0,1,1.441-3.841,4.343,4.343,0,0,1,2.936-1.037,4.188,4.188,0,0,1,3.146,1.261,4.8,4.8,0,0,1,1.222,3.485,6.175,6.175,0,0,1-.541,2.834,3.826,3.826,0,0,1-1.573,1.6,4.58,4.58,0,0,1-2.254.571A4.2,4.2,0,0,1,93,76.911,5.02,5.02,0,0,1,91.788,73.29Zm1.626,0a3.976,3.976,0,0,0,.782,2.685,2.6,2.6,0,0,0,3.929,0,4.07,4.07,0,0,0,.782-2.733,3.856,3.856,0,0,0-.787-2.624,2.608,2.608,0,0,0-3.924,0A3.958,3.958,0,0,0,93.414,73.29Z" transform="translate(-8.074 -6.133)"/><path class="cls-4" d="M108.479,74.538l1.556,0.2a4.035,4.035,0,0,1-1.305,2.518,3.8,3.8,0,0,1-2.58.91,4.008,4.008,0,0,1-3.081-1.252,5.082,5.082,0,0,1-1.165-3.59,6.5,6.5,0,0,1,.5-2.646,3.493,3.493,0,0,1,1.525-1.7,4.524,4.524,0,0,1,2.228-.567,3.873,3.873,0,0,1,2.487.769,3.526,3.526,0,0,1,1.239,2.184l-1.538.237a2.554,2.554,0,0,0-.778-1.415,2.013,2.013,0,0,0-1.349-.475,2.456,2.456,0,0,0-1.942.857,4.068,4.068,0,0,0-.747,2.711,4.205,4.205,0,0,0,.721,2.733,2.345,2.345,0,0,0,1.881.853,2.217,2.217,0,0,0,1.556-.571A2.835,2.835,0,0,0,108.479,74.538Z" transform="translate(-8.074 -6.133)"/><path class="cls-4" d="M111.4,77.957V65.072h1.582v7.348l3.744-3.8h2.048L115.2,72.085l3.929,5.871H117.18l-3.085-4.772-1.116,1.072v3.7H111.4Z" transform="translate(-8.074 -6.133)"/><path class="cls-4" d="M119.755,75.17l1.564-.246a2.187,2.187,0,0,0,.734,1.441,2.558,2.558,0,0,0,1.683.5,2.473,2.473,0,0,0,1.617-.444,1.327,1.327,0,0,0,.527-1.042,0.961,0.961,0,0,0-.466-0.844A6.861,6.861,0,0,0,123.8,74a14.757,14.757,0,0,1-2.413-.76,2.3,2.3,0,0,1-1.367-2.14,2.4,2.4,0,0,1,.286-1.156,2.561,2.561,0,0,1,.778-0.883,3.261,3.261,0,0,1,1.006-.461,4.785,4.785,0,0,1,1.367-.189,5.4,5.4,0,0,1,1.929.316,2.624,2.624,0,0,1,1.226.857,3.349,3.349,0,0,1,.545,1.446l-1.547.211A1.692,1.692,0,0,0,125,70.117a2.234,2.234,0,0,0-1.428-.4,2.586,2.586,0,0,0-1.556.36,1.049,1.049,0,0,0-.466.844,0.873,0.873,0,0,0,.193.554,1.4,1.4,0,0,0,.606.422q0.237,0.088,1.4.4a19.454,19.454,0,0,1,2.342.734,2.376,2.376,0,0,1,1.042.831,2.318,2.318,0,0,1,.378,1.354,2.656,2.656,0,0,1-.461,1.49,2.982,2.982,0,0,1-1.332,1.081,4.847,4.847,0,0,1-1.969.382,4.386,4.386,0,0,1-2.773-.756A3.515,3.515,0,0,1,119.755,75.17Z" transform="translate(-8.074 -6.133)"/><path class="cls-4" d="M58.838,93.246a2.228,2.228,0,0,1,2.224-2.224,2.158,2.158,0,0,1,1.578.65A2.226,2.226,0,1,1,58.838,93.246Z" transform="translate(-8.074 -6.133)"/><path class="cls-4" d="M75.5,99.557V86.672h4.834a5.983,5.983,0,0,1,2.369.391,3.046,3.046,0,0,1,1.4,1.2,3.174,3.174,0,0,1,.505,1.7,2.922,2.922,0,0,1-.448,1.556A3.2,3.2,0,0,1,82.806,92.7a3.365,3.365,0,0,1,1.8,1.169,3.131,3.131,0,0,1,.628,1.951,3.764,3.764,0,0,1-.382,1.683,3.259,3.259,0,0,1-.945,1.2,3.943,3.943,0,0,1-1.411.637,8.58,8.58,0,0,1-2.079.215H75.5Zm1.705-7.471h2.786a6.217,6.217,0,0,0,1.626-.149,1.807,1.807,0,0,0,.98-0.642,1.848,1.848,0,0,0,.33-1.125,2.072,2.072,0,0,0-.308-1.129,1.557,1.557,0,0,0-.879-0.668,7.34,7.34,0,0,0-1.96-.18H77.207v3.894Zm0,5.95h3.208a7.384,7.384,0,0,0,1.16-.062,2.78,2.78,0,0,0,.984-0.352,1.867,1.867,0,0,0,.65-0.716,2.242,2.242,0,0,0,.255-1.085,2.141,2.141,0,0,0-.369-1.252,1.947,1.947,0,0,0-1.024-.747,6.349,6.349,0,0,0-1.885-.215H77.207v4.43Z" transform="translate(-8.074 -6.133)"/><path class="cls-4" d="M86.787,94.89a4.811,4.811,0,0,1,1.441-3.841,4.343,4.343,0,0,1,2.936-1.037,4.188,4.188,0,0,1,3.146,1.261,4.8,4.8,0,0,1,1.222,3.485,6.175,6.175,0,0,1-.541,2.834,3.826,3.826,0,0,1-1.573,1.6,4.58,4.58,0,0,1-2.254.571A4.2,4.2,0,0,1,88,98.511,5.02,5.02,0,0,1,86.787,94.89Zm1.626,0a3.976,3.976,0,0,0,.782,2.685,2.6,2.6,0,0,0,3.929,0,4.07,4.07,0,0,0,.782-2.733,3.856,3.856,0,0,0-.787-2.624,2.608,2.608,0,0,0-3.924,0A3.958,3.958,0,0,0,88.413,94.89Z" transform="translate(-8.074 -6.133)"/><path class="cls-4" d="M97.387,99.557V90.223h1.424V91.55a3.355,3.355,0,0,1,2.971-1.538,3.9,3.9,0,0,1,1.551.3,2.44,2.44,0,0,1,1.059.8,3.053,3.053,0,0,1,.492,1.169,9.059,9.059,0,0,1,.088,1.538v5.739H103.39V93.879a4.262,4.262,0,0,0-.185-1.446,1.521,1.521,0,0,0-.655-0.765,2.083,2.083,0,0,0-1.1-.286,2.563,2.563,0,0,0-1.745.642,3.165,3.165,0,0,0-.734,2.435v5.1H97.387Z" transform="translate(-8.074 -6.133)"/><path class="cls-4" d="M113.453,99.557V98.379a2.9,2.9,0,0,1-2.61,1.389,3.66,3.66,0,0,1-2.052-.615,4.046,4.046,0,0,1-1.45-1.718,5.939,5.939,0,0,1-.514-2.536,6.637,6.637,0,0,1,.466-2.536,3.674,3.674,0,0,1,1.4-1.745,3.736,3.736,0,0,1,2.083-.606,3.113,3.113,0,0,1,2.575,1.283V86.672h1.573V99.557h-1.468Zm-5-4.658a4.054,4.054,0,0,0,.756,2.681,2.279,2.279,0,0,0,1.784.888,2.237,2.237,0,0,0,1.762-.848,3.91,3.91,0,0,0,.725-2.588,4.389,4.389,0,0,0-.738-2.812,2.271,2.271,0,0,0-1.819-.9,2.192,2.192,0,0,0-1.762.861A4.251,4.251,0,0,0,108.452,94.9Z" transform="translate(-8.074 -6.133)"/><path class="cls-4" d="M116.775,96.771l1.564-.246a2.187,2.187,0,0,0,.734,1.441,2.558,2.558,0,0,0,1.683.5,2.473,2.473,0,0,0,1.617-.444,1.327,1.327,0,0,0,.527-1.042,0.961,0.961,0,0,0-.466-0.844,6.861,6.861,0,0,0-1.617-.536,14.757,14.757,0,0,1-2.413-.76,2.3,2.3,0,0,1-1.367-2.14,2.4,2.4,0,0,1,.286-1.156,2.561,2.561,0,0,1,.778-0.883,3.261,3.261,0,0,1,1.006-.461,4.785,4.785,0,0,1,1.367-.189,5.4,5.4,0,0,1,1.929.316,2.624,2.624,0,0,1,1.226.857,3.349,3.349,0,0,1,.545,1.446l-1.547.211a1.692,1.692,0,0,0-.611-1.125,2.234,2.234,0,0,0-1.428-.4,2.586,2.586,0,0,0-1.556.36,1.049,1.049,0,0,0-.466.844,0.873,0.873,0,0,0,.193.554,1.4,1.4,0,0,0,.606.422q0.237,0.088,1.4.4a19.454,19.454,0,0,1,2.342.734,2.376,2.376,0,0,1,1.042.831,2.318,2.318,0,0,1,.378,1.354,2.656,2.656,0,0,1-.461,1.49,2.982,2.982,0,0,1-1.332,1.081,4.847,4.847,0,0,1-1.969.382,4.386,4.386,0,0,1-2.773-.756A3.515,3.515,0,0,1,116.775,96.771Z" transform="translate(-8.074 -6.133)"/><path class="cls-4" d="M58.838,114.846a2.228,2.228,0,0,1,2.224-2.224,2.158,2.158,0,0,1,1.578.65A2.226,2.226,0,1,1,58.838,114.846Z" transform="translate(-8.074 -6.133)"/><path class="cls-4" d="M84.766,116.639l1.705,0.431a5.74,5.74,0,0,1-1.929,3.2,5.316,5.316,0,0,1-3.406,1.1,6.12,6.12,0,0,1-3.388-.848,5.3,5.3,0,0,1-1.986-2.457,8.765,8.765,0,0,1-.681-3.454,7.592,7.592,0,0,1,.769-3.511,5.269,5.269,0,0,1,2.188-2.276,6.394,6.394,0,0,1,3.125-.778,5.282,5.282,0,0,1,3.252.984,5.112,5.112,0,0,1,1.837,2.769l-1.679.4a3.982,3.982,0,0,0-1.3-2.048,3.466,3.466,0,0,0-2.145-.642,4.166,4.166,0,0,0-2.483.712,3.759,3.759,0,0,0-1.4,1.912,7.7,7.7,0,0,0-.4,2.474,7.862,7.862,0,0,0,.479,2.87,3.568,3.568,0,0,0,1.49,1.833,4.178,4.178,0,0,0,2.188.606,3.667,3.667,0,0,0,2.426-.826A4.228,4.228,0,0,0,84.766,116.639Z" transform="translate(-8.074 -6.133)"/><path class="cls-4" d="M94.46,120.005a5.891,5.891,0,0,1-1.692,1.055,4.889,4.889,0,0,1-1.745.308,3.393,3.393,0,0,1-2.364-.751,2.48,2.48,0,0,1-.826-1.92,2.554,2.554,0,0,1,.312-1.252,2.583,2.583,0,0,1,.817-0.91,3.844,3.844,0,0,1,1.138-.519,11.3,11.3,0,0,1,1.406-.237,14.46,14.46,0,0,0,2.821-.545q0.009-.325.009-0.413a1.747,1.747,0,0,0-.448-1.362,2.648,2.648,0,0,0-1.8-.536,2.794,2.794,0,0,0-1.648.391,2.39,2.39,0,0,0-.787,1.384l-1.547-.211a3.833,3.833,0,0,1,.694-1.6,3.043,3.043,0,0,1,1.4-.94,6.233,6.233,0,0,1,2.118-.33,5.606,5.606,0,0,1,1.942.281,2.559,2.559,0,0,1,1.1.708,2.488,2.488,0,0,1,.492,1.077,8.908,8.908,0,0,1,.079,1.459v2.109a22.389,22.389,0,0,0,.1,2.791,3.521,3.521,0,0,0,.4,1.121H94.776A3.354,3.354,0,0,1,94.46,120.005Zm-0.132-3.533a11.607,11.607,0,0,1-2.584.6,5.977,5.977,0,0,0-1.38.316,1.376,1.376,0,0,0-.624.514A1.4,1.4,0,0,0,90,119.707a2.061,2.061,0,0,0,1.4.422,3.263,3.263,0,0,0,1.626-.4,2.463,2.463,0,0,0,1.046-1.094,3.822,3.822,0,0,0,.255-1.582v-0.58Z" transform="translate(-8.074 -6.133)"/><path class="cls-4" d="M97.747,118.371l1.564-.246a2.187,2.187,0,0,0,.734,1.441,2.558,2.558,0,0,0,1.683.5,2.473,2.473,0,0,0,1.617-.444,1.327,1.327,0,0,0,.527-1.042,0.961,0.961,0,0,0-.466-0.844,6.861,6.861,0,0,0-1.617-.536,14.757,14.757,0,0,1-2.413-.76,2.3,2.3,0,0,1-1.367-2.14,2.4,2.4,0,0,1,.286-1.156,2.561,2.561,0,0,1,.778-0.883,3.261,3.261,0,0,1,1.006-.461,4.785,4.785,0,0,1,1.367-.189,5.4,5.4,0,0,1,1.929.316,2.624,2.624,0,0,1,1.226.857,3.349,3.349,0,0,1,.545,1.446l-1.547.211a1.692,1.692,0,0,0-.611-1.125,2.234,2.234,0,0,0-1.428-.4,2.586,2.586,0,0,0-1.556.36,1.049,1.049,0,0,0-.466.844,0.873,0.873,0,0,0,.193.554,1.4,1.4,0,0,0,.606.422q0.237,0.088,1.4.4a19.454,19.454,0,0,1,2.342.734,2.376,2.376,0,0,1,1.042.831,2.318,2.318,0,0,1,.378,1.354,2.656,2.656,0,0,1-.461,1.49,2.982,2.982,0,0,1-1.332,1.081,4.847,4.847,0,0,1-1.969.382,4.386,4.386,0,0,1-2.773-.756A3.515,3.515,0,0,1,97.747,118.371Z" transform="translate(-8.074 -6.133)"/><path class="cls-4" d="M107.38,121.157V108.272h1.582V112.9a3.534,3.534,0,0,1,2.795-1.283,3.769,3.769,0,0,1,1.8.409,2.4,2.4,0,0,1,1.094,1.129,5.206,5.206,0,0,1,.33,2.092v5.915H113.4v-5.915a2.444,2.444,0,0,0-.514-1.727,1.912,1.912,0,0,0-1.455-.541,2.565,2.565,0,0,0-1.323.365,2.06,2.06,0,0,0-.883.989,4.541,4.541,0,0,0-.264,1.723v5.106H107.38Z" transform="translate(-8.074 -6.133)"/><rect class="cls-1" x="23.225" y="149.748" width="152.55" height="127.61"/><rect class="cls-2" x="23.225" y="149.748" width="152.55" height="45.897"/><path class="cls-3" d="M39.325,173.354V160.47H41.03v5.291h6.7V160.47h1.705v12.885H47.728v-6.073h-6.7v6.073H39.325Z" transform="translate(-8.074 -6.133)"/><path class="cls-3" d="M52.078,162.289V160.47H53.66v1.819H52.078Zm0,11.065v-9.334H53.66v9.334H52.078Z" transform="translate(-8.074 -6.133)"/><path class="cls-3" d="M55.436,170.568L57,170.322a2.187,2.187,0,0,0,.734,1.441,2.558,2.558,0,0,0,1.683.5,2.473,2.473,0,0,0,1.617-.444,1.327,1.327,0,0,0,.527-1.042,0.961,0.961,0,0,0-.466-0.844,6.861,6.861,0,0,0-1.617-.536,14.757,14.757,0,0,1-2.413-.76A2.3,2.3,0,0,1,55.7,166.5a2.4,2.4,0,0,1,.286-1.156,2.561,2.561,0,0,1,.778-0.883A3.261,3.261,0,0,1,57.769,164a4.785,4.785,0,0,1,1.367-.189,5.4,5.4,0,0,1,1.929.316,2.624,2.624,0,0,1,1.226.857,3.349,3.349,0,0,1,.545,1.446l-1.547.211a1.692,1.692,0,0,0-.611-1.125,2.234,2.234,0,0,0-1.428-.4,2.586,2.586,0,0,0-1.556.36,1.049,1.049,0,0,0-.466.844,0.873,0.873,0,0,0,.193.554,1.4,1.4,0,0,0,.606.422q0.237,0.088,1.4.4a19.454,19.454,0,0,1,2.342.734,2.376,2.376,0,0,1,1.042.831,2.318,2.318,0,0,1,.378,1.354,2.656,2.656,0,0,1-.461,1.49,2.982,2.982,0,0,1-1.332,1.081,4.847,4.847,0,0,1-1.969.382,4.386,4.386,0,0,1-2.773-.756A3.515,3.515,0,0,1,55.436,170.568Z" transform="translate(-8.074 -6.133)"/><path class="cls-3" d="M68.522,171.939l0.229,1.4a5.868,5.868,0,0,1-1.2.141,2.706,2.706,0,0,1-1.336-.272,1.526,1.526,0,0,1-.668-0.716,5.664,5.664,0,0,1-.193-1.868v-5.37H64.2v-1.23h1.16v-2.312l1.573-.949v3.261h1.591v1.23H66.932v5.458a2.757,2.757,0,0,0,.083.87,0.659,0.659,0,0,0,.272.308,1.052,1.052,0,0,0,.541.114A5.146,5.146,0,0,0,68.522,171.939Z" transform="translate(-8.074 -6.133)"/><path class="cls-3" d="M69.48,168.688a4.811,4.811,0,0,1,1.441-3.841,4.343,4.343,0,0,1,2.936-1.037A4.188,4.188,0,0,1,77,165.071a4.8,4.8,0,0,1,1.222,3.485,6.175,6.175,0,0,1-.541,2.834,3.826,3.826,0,0,1-1.573,1.6,4.58,4.58,0,0,1-2.254.571,4.2,4.2,0,0,1-3.168-1.257A5.02,5.02,0,0,1,69.48,168.688Zm1.626,0a3.976,3.976,0,0,0,.782,2.685,2.6,2.6,0,0,0,3.929,0,4.07,4.07,0,0,0,.782-2.733,3.856,3.856,0,0,0-.787-2.624,2.608,2.608,0,0,0-3.924,0A3.958,3.958,0,0,0,71.106,168.688Z" transform="translate(-8.074 -6.133)"/><path class="cls-3" d="M80.063,173.354v-9.334h1.424v1.415a3.861,3.861,0,0,1,1.006-1.31,1.757,1.757,0,0,1,1.015-.316,3.086,3.086,0,0,1,1.626.51l-0.545,1.468a2.264,2.264,0,0,0-1.16-.343,1.507,1.507,0,0,0-.932.312,1.69,1.69,0,0,0-.589.866,6.162,6.162,0,0,0-.264,1.846v4.887H80.063Z" transform="translate(-8.074 -6.133)"/><path class="cls-3" d="M86,176.949l-0.176-1.485a3.525,3.525,0,0,0,.905.141,1.737,1.737,0,0,0,.844-0.176,1.437,1.437,0,0,0,.519-0.492,7.76,7.76,0,0,0,.483-1.178q0.044-.132.141-0.387l-3.542-9.352h1.705l1.942,5.405q0.378,1.028.677,2.162a21.286,21.286,0,0,1,.65-2.127l2-5.44h1.582l-3.551,9.492a18.632,18.632,0,0,1-.888,2.118,3.124,3.124,0,0,1-.967,1.147,2.284,2.284,0,0,1-1.3.365A3.168,3.168,0,0,1,86,176.949Z" transform="translate(-8.074 -6.133)"/><path class="cls-3" d="M99.486,168.688a4.811,4.811,0,0,1,1.441-3.841,4.343,4.343,0,0,1,2.936-1.037,4.188,4.188,0,0,1,3.146,1.261,4.8,4.8,0,0,1,1.222,3.485,6.175,6.175,0,0,1-.541,2.834,3.826,3.826,0,0,1-1.573,1.6,4.58,4.58,0,0,1-2.254.571,4.2,4.2,0,0,1-3.168-1.257A5.02,5.02,0,0,1,99.486,168.688Zm1.626,0a3.976,3.976,0,0,0,.782,2.685,2.6,2.6,0,0,0,3.929,0,4.07,4.07,0,0,0,.782-2.733,3.856,3.856,0,0,0-.787-2.624,2.608,2.608,0,0,0-3.924,0A3.958,3.958,0,0,0,101.112,168.688Z" transform="translate(-8.074 -6.133)"/><path class="cls-3" d="M110.464,173.354v-8.1h-1.4v-1.23h1.4v-0.993a4.349,4.349,0,0,1,.167-1.4,2.023,2.023,0,0,1,.8-1,2.9,2.9,0,0,1,1.613-.382,7.744,7.744,0,0,1,1.477.158l-0.237,1.38a5.309,5.309,0,0,0-.932-0.088,1.386,1.386,0,0,0-1.02.308,1.667,1.667,0,0,0-.3,1.151v0.861h1.819v1.23h-1.819v8.1h-1.573Z" transform="translate(-8.074 -6.133)"/><path class="cls-3" d="M37.857,194.955l4.948-12.885h1.837l5.273,12.885H47.974l-1.5-3.9H41.083l-1.415,3.9H37.857Zm3.718-5.291h4.368L44.6,186.1q-0.615-1.626-.914-2.672a16.425,16.425,0,0,1-.694,2.461Z" transform="translate(-8.074 -6.133)"/><path class="cls-3" d="M50.443,192.168l1.564-.246a2.187,2.187,0,0,0,.734,1.441,2.558,2.558,0,0,0,1.683.5,2.473,2.473,0,0,0,1.617-.444,1.327,1.327,0,0,0,.527-1.042,0.961,0.961,0,0,0-.466-0.844A6.861,6.861,0,0,0,54.486,191a14.757,14.757,0,0,1-2.413-.76,2.3,2.3,0,0,1-1.367-2.14,2.4,2.4,0,0,1,.286-1.156,2.561,2.561,0,0,1,.778-0.883,3.261,3.261,0,0,1,1.006-.461,4.785,4.785,0,0,1,1.367-.189,5.4,5.4,0,0,1,1.929.316,2.624,2.624,0,0,1,1.226.857,3.349,3.349,0,0,1,.545,1.446l-1.547.211a1.692,1.692,0,0,0-.611-1.125,2.234,2.234,0,0,0-1.428-.4,2.586,2.586,0,0,0-1.556.36,1.049,1.049,0,0,0-.466.844,0.873,0.873,0,0,0,.193.554,1.4,1.4,0,0,0,.606.422q0.237,0.088,1.4.4a19.454,19.454,0,0,1,2.342.734,2.376,2.376,0,0,1,1.042.831,2.318,2.318,0,0,1,.378,1.354,2.656,2.656,0,0,1-.461,1.49,2.982,2.982,0,0,1-1.332,1.081,4.847,4.847,0,0,1-1.969.382,4.386,4.386,0,0,1-2.773-.756A3.515,3.515,0,0,1,50.443,192.168Z" transform="translate(-8.074 -6.133)"/><path class="cls-3" d="M59.443,192.168l1.564-.246a2.187,2.187,0,0,0,.734,1.441,2.558,2.558,0,0,0,1.683.5,2.473,2.473,0,0,0,1.617-.444,1.327,1.327,0,0,0,.527-1.042,0.961,0.961,0,0,0-.466-0.844A6.861,6.861,0,0,0,63.486,191a14.757,14.757,0,0,1-2.413-.76,2.3,2.3,0,0,1-1.367-2.14,2.4,2.4,0,0,1,.286-1.156,2.561,2.561,0,0,1,.778-0.883,3.261,3.261,0,0,1,1.006-.461,4.785,4.785,0,0,1,1.367-.189,5.4,5.4,0,0,1,1.929.316,2.624,2.624,0,0,1,1.226.857,3.349,3.349,0,0,1,.545,1.446l-1.547.211a1.692,1.692,0,0,0-.611-1.125,2.234,2.234,0,0,0-1.428-.4,2.586,2.586,0,0,0-1.556.36,1.049,1.049,0,0,0-.466.844,0.873,0.873,0,0,0,.193.554,1.4,1.4,0,0,0,.606.422q0.237,0.088,1.4.4a19.454,19.454,0,0,1,2.342.734,2.376,2.376,0,0,1,1.042.831,2.318,2.318,0,0,1,.378,1.354,2.656,2.656,0,0,1-.461,1.49,2.982,2.982,0,0,1-1.332,1.081,4.847,4.847,0,0,1-1.969.382,4.386,4.386,0,0,1-2.773-.756A3.515,3.515,0,0,1,59.443,192.168Z" transform="translate(-8.074 -6.133)"/><path class="cls-3" d="M75.466,191.949l1.635,0.2a3.989,3.989,0,0,1-1.433,2.224,4.853,4.853,0,0,1-5.919-.47,4.928,4.928,0,0,1-1.2-3.538,5.158,5.158,0,0,1,1.213-3.656,4.106,4.106,0,0,1,3.146-1.3,3.99,3.99,0,0,1,3.059,1.274,5.064,5.064,0,0,1,1.187,3.586q0,0.141-.009.422H70.184a3.587,3.587,0,0,0,.87,2.355,2.59,2.59,0,0,0,1.951.817,2.421,2.421,0,0,0,1.485-.457A3.034,3.034,0,0,0,75.466,191.949Zm-5.194-2.558h5.212a3.162,3.162,0,0,0-.6-1.767,2.425,2.425,0,0,0-1.96-.914,2.513,2.513,0,0,0-1.833.729A2.887,2.887,0,0,0,70.271,189.391Z" transform="translate(-8.074 -6.133)"/><path class="cls-3" d="M82.541,193.54l0.229,1.4a5.868,5.868,0,0,1-1.2.141,2.706,2.706,0,0,1-1.336-.272,1.526,1.526,0,0,1-.668-0.716,5.664,5.664,0,0,1-.193-1.868v-5.37h-1.16v-1.23h1.16v-2.312l1.573-.949v3.261h1.591v1.23H80.95v5.458a2.757,2.757,0,0,0,.083.87,0.659,0.659,0,0,0,.272.308,1.052,1.052,0,0,0,.541.114A5.146,5.146,0,0,0,82.541,193.54Z" transform="translate(-8.074 -6.133)"/><path class="cls-3" d="M98.484,190.437l1.705,0.431a5.74,5.74,0,0,1-1.929,3.2,5.316,5.316,0,0,1-3.406,1.1,6.12,6.12,0,0,1-3.388-.848,5.3,5.3,0,0,1-1.986-2.457,8.765,8.765,0,0,1-.681-3.454,7.592,7.592,0,0,1,.769-3.511,5.269,5.269,0,0,1,2.188-2.276,6.394,6.394,0,0,1,3.125-.778,5.282,5.282,0,0,1,3.252.984A5.112,5.112,0,0,1,99.97,185.6l-1.679.4a3.982,3.982,0,0,0-1.3-2.048,3.466,3.466,0,0,0-2.145-.642,4.166,4.166,0,0,0-2.483.712,3.759,3.759,0,0,0-1.4,1.912,7.7,7.7,0,0,0-.4,2.474,7.862,7.862,0,0,0,.479,2.87,3.568,3.568,0,0,0,1.49,1.833,4.178,4.178,0,0,0,2.188.606,3.667,3.667,0,0,0,2.426-.826A4.228,4.228,0,0,0,98.484,190.437Z" transform="translate(-8.074 -6.133)"/><path class="cls-3" d="M102.053,194.955V182.07h1.582v12.885h-1.582Z" transform="translate(-8.074 -6.133)"/><path class="cls-3" d="M112.178,193.8a5.891,5.891,0,0,1-1.692,1.055,4.889,4.889,0,0,1-1.745.308,3.393,3.393,0,0,1-2.364-.751,2.48,2.48,0,0,1-.826-1.92,2.554,2.554,0,0,1,.312-1.252,2.583,2.583,0,0,1,.817-0.91,3.844,3.844,0,0,1,1.138-.519,11.3,11.3,0,0,1,1.406-.237,14.46,14.46,0,0,0,2.821-.545q0.009-.325.009-0.413a1.747,1.747,0,0,0-.448-1.362,2.648,2.648,0,0,0-1.8-.536,2.794,2.794,0,0,0-1.648.391,2.39,2.39,0,0,0-.787,1.384l-1.547-.211a3.833,3.833,0,0,1,.694-1.6,3.043,3.043,0,0,1,1.4-.94,6.233,6.233,0,0,1,2.118-.33,5.606,5.606,0,0,1,1.942.281,2.559,2.559,0,0,1,1.1.708,2.488,2.488,0,0,1,.492,1.077,8.908,8.908,0,0,1,.079,1.459v2.109a22.389,22.389,0,0,0,.1,2.791,3.521,3.521,0,0,0,.4,1.121h-1.652A3.354,3.354,0,0,1,112.178,193.8Zm-0.132-3.533a11.607,11.607,0,0,1-2.584.6,5.977,5.977,0,0,0-1.38.316,1.376,1.376,0,0,0-.624.514,1.4,1.4,0,0,0,.259,1.806,2.061,2.061,0,0,0,1.4.422,3.263,3.263,0,0,0,1.626-.4,2.463,2.463,0,0,0,1.046-1.094,3.822,3.822,0,0,0,.255-1.582v-0.58Z" transform="translate(-8.074 -6.133)"/><path class="cls-3" d="M115.465,192.168l1.564-.246a2.187,2.187,0,0,0,.734,1.441,2.558,2.558,0,0,0,1.683.5,2.473,2.473,0,0,0,1.617-.444,1.327,1.327,0,0,0,.527-1.042,0.961,0.961,0,0,0-.466-0.844,6.861,6.861,0,0,0-1.617-.536,14.757,14.757,0,0,1-2.413-.76,2.3,2.3,0,0,1-1.367-2.14,2.4,2.4,0,0,1,.286-1.156,2.561,2.561,0,0,1,.778-0.883,3.261,3.261,0,0,1,1.006-.461,4.785,4.785,0,0,1,1.367-.189,5.4,5.4,0,0,1,1.929.316,2.624,2.624,0,0,1,1.226.857,3.349,3.349,0,0,1,.545,1.446l-1.547.211a1.692,1.692,0,0,0-.611-1.125,2.234,2.234,0,0,0-1.428-.4,2.586,2.586,0,0,0-1.556.36,1.049,1.049,0,0,0-.466.844,0.873,0.873,0,0,0,.193.554,1.4,1.4,0,0,0,.606.422q0.237,0.088,1.4.4a19.454,19.454,0,0,1,2.342.734,2.376,2.376,0,0,1,1.042.831,2.318,2.318,0,0,1,.378,1.354,2.656,2.656,0,0,1-.461,1.49,2.982,2.982,0,0,1-1.332,1.081,4.847,4.847,0,0,1-1.969.382,4.386,4.386,0,0,1-2.773-.756A3.515,3.515,0,0,1,115.465,192.168Z" transform="translate(-8.074 -6.133)"/><path class="cls-3" d="M124.465,192.168l1.564-.246a2.187,2.187,0,0,0,.734,1.441,2.558,2.558,0,0,0,1.683.5,2.473,2.473,0,0,0,1.617-.444,1.327,1.327,0,0,0,.527-1.042,0.961,0.961,0,0,0-.466-0.844,6.861,6.861,0,0,0-1.617-.536,14.757,14.757,0,0,1-2.413-.76,2.3,2.3,0,0,1-1.367-2.14,2.4,2.4,0,0,1,.286-1.156,2.561,2.561,0,0,1,.778-0.883,3.261,3.261,0,0,1,1.006-.461,4.785,4.785,0,0,1,1.367-.189,5.4,5.4,0,0,1,1.929.316,2.624,2.624,0,0,1,1.226.857,3.349,3.349,0,0,1,.545,1.446l-1.547.211a1.692,1.692,0,0,0-.611-1.125,2.234,2.234,0,0,0-1.428-.4,2.586,2.586,0,0,0-1.556.36,1.049,1.049,0,0,0-.466.844,0.873,0.873,0,0,0,.193.554,1.4,1.4,0,0,0,.606.422q0.237,0.088,1.4.4a19.454,19.454,0,0,1,2.342.734,2.376,2.376,0,0,1,1.042.831,2.318,2.318,0,0,1,.378,1.354,2.656,2.656,0,0,1-.461,1.49,2.982,2.982,0,0,1-1.332,1.081,4.847,4.847,0,0,1-1.969.382,4.386,4.386,0,0,1-2.773-.756A3.515,3.515,0,0,1,124.465,192.168Z" transform="translate(-8.074 -6.133)"/><path class="cls-3" d="M140.487,191.949l1.635,0.2a3.989,3.989,0,0,1-1.433,2.224,4.853,4.853,0,0,1-5.919-.47,4.928,4.928,0,0,1-1.2-3.538,5.158,5.158,0,0,1,1.213-3.656,4.106,4.106,0,0,1,3.146-1.3,3.99,3.99,0,0,1,3.059,1.274,5.064,5.064,0,0,1,1.187,3.586q0,0.141-.009.422h-6.961a3.587,3.587,0,0,0,.87,2.355,2.59,2.59,0,0,0,1.951.817,2.421,2.421,0,0,0,1.485-.457A3.034,3.034,0,0,0,140.487,191.949Zm-5.194-2.558H140.5a3.162,3.162,0,0,0-.6-1.767,2.425,2.425,0,0,0-1.96-.914,2.513,2.513,0,0,0-1.833.729A2.887,2.887,0,0,0,135.293,189.391Z" transform="translate(-8.074 -6.133)"/><path class="cls-3" d="M143.476,192.168l1.564-.246a2.187,2.187,0,0,0,.734,1.441,2.558,2.558,0,0,0,1.683.5,2.473,2.473,0,0,0,1.617-.444,1.327,1.327,0,0,0,.527-1.042,0.961,0.961,0,0,0-.466-0.844,6.861,6.861,0,0,0-1.617-.536,14.757,14.757,0,0,1-2.413-.76,2.3,2.3,0,0,1-1.367-2.14,2.4,2.4,0,0,1,.286-1.156,2.561,2.561,0,0,1,.778-0.883,3.261,3.261,0,0,1,1.006-.461,4.785,4.785,0,0,1,1.367-.189,5.4,5.4,0,0,1,1.929.316,2.624,2.624,0,0,1,1.226.857,3.349,3.349,0,0,1,.545,1.446l-1.547.211a1.692,1.692,0,0,0-.611-1.125,2.234,2.234,0,0,0-1.428-.4,2.586,2.586,0,0,0-1.556.36,1.049,1.049,0,0,0-.466.844,0.873,0.873,0,0,0,.193.554,1.4,1.4,0,0,0,.606.422q0.237,0.088,1.4.4a19.454,19.454,0,0,1,2.342.734,2.376,2.376,0,0,1,1.042.831,2.318,2.318,0,0,1,.378,1.354,2.656,2.656,0,0,1-.461,1.49,2.982,2.982,0,0,1-1.332,1.081,4.847,4.847,0,0,1-1.969.382,4.386,4.386,0,0,1-2.773-.756A3.515,3.515,0,0,1,143.476,192.168Z" transform="translate(-8.074 -6.133)"/><path class="cls-4" d="M58.672,220.894A2.228,2.228,0,0,1,60.9,218.67a2.158,2.158,0,0,1,1.578.65A2.226,2.226,0,1,1,58.672,220.894Z" transform="translate(-8.074 -6.133)"/><path class="cls-4" d="M74.827,223.065l1.608-.141a3.552,3.552,0,0,0,.532,1.586,2.9,2.9,0,0,0,1.3,1,4.909,4.909,0,0,0,1.978.382,4.739,4.739,0,0,0,1.723-.29,2.39,2.39,0,0,0,1.112-.8,1.845,1.845,0,0,0,.365-1.1,1.677,1.677,0,0,0-.352-1.059,2.6,2.6,0,0,0-1.16-.76,22.676,22.676,0,0,0-2.294-.628,11.721,11.721,0,0,1-2.487-.8,3.488,3.488,0,0,1-1.375-1.2,2.94,2.94,0,0,1-.453-1.6,3.275,3.275,0,0,1,.554-1.824,3.429,3.429,0,0,1,1.617-1.288,6.135,6.135,0,0,1,2.364-.439,6.459,6.459,0,0,1,2.527.461,3.644,3.644,0,0,1,1.683,1.358,3.9,3.9,0,0,1,.633,2.03l-1.635.123a2.638,2.638,0,0,0-.892-1.846,3.472,3.472,0,0,0-2.246-.624,3.6,3.6,0,0,0-2.254.567,1.7,1.7,0,0,0-.708,1.367,1.465,1.465,0,0,0,.5,1.143,6.788,6.788,0,0,0,2.571.918,17,17,0,0,1,2.852.822,3.906,3.906,0,0,1,1.661,1.314,3.2,3.2,0,0,1,.536,1.833,3.5,3.5,0,0,1-.589,1.938,3.877,3.877,0,0,1-1.692,1.415,5.894,5.894,0,0,1-2.483.505,7.414,7.414,0,0,1-2.931-.51,4.105,4.105,0,0,1-1.854-1.534A4.348,4.348,0,0,1,74.827,223.065Z" transform="translate(-8.074 -6.133)"/><path class="cls-4" d="M90.665,225.79l0.229,1.4a5.868,5.868,0,0,1-1.2.141,2.706,2.706,0,0,1-1.336-.272,1.526,1.526,0,0,1-.668-0.716,5.664,5.664,0,0,1-.193-1.868V219.1H86.34v-1.23H87.5v-2.312l1.573-.949v3.261h1.591v1.23H89.074v5.458a2.757,2.757,0,0,0,.083.87,0.659,0.659,0,0,0,.272.308,1.052,1.052,0,0,0,.541.114A5.146,5.146,0,0,0,90.665,225.79Z" transform="translate(-8.074 -6.133)"/><path class="cls-4" d="M91.623,222.538a4.811,4.811,0,0,1,1.441-3.841A4.343,4.343,0,0,1,96,217.66a4.188,4.188,0,0,1,3.146,1.261,4.8,4.8,0,0,1,1.222,3.485,6.175,6.175,0,0,1-.541,2.834,3.826,3.826,0,0,1-1.573,1.6,4.58,4.58,0,0,1-2.254.571,4.2,4.2,0,0,1-3.168-1.257A5.02,5.02,0,0,1,91.623,222.538Zm1.626,0a3.976,3.976,0,0,0,.782,2.685,2.6,2.6,0,0,0,3.929,0,4.07,4.07,0,0,0,.782-2.733,3.856,3.856,0,0,0-.787-2.624,2.608,2.608,0,0,0-3.924,0A3.958,3.958,0,0,0,93.249,222.538Z" transform="translate(-8.074 -6.133)"/><path class="cls-4" d="M108.313,223.786l1.556,0.2a4.035,4.035,0,0,1-1.305,2.518,3.8,3.8,0,0,1-2.58.91,4.008,4.008,0,0,1-3.081-1.252,5.082,5.082,0,0,1-1.165-3.59,6.5,6.5,0,0,1,.5-2.646,3.493,3.493,0,0,1,1.525-1.7,4.524,4.524,0,0,1,2.228-.567,3.873,3.873,0,0,1,2.487.769,3.526,3.526,0,0,1,1.239,2.184l-1.538.237a2.554,2.554,0,0,0-.778-1.415,2.013,2.013,0,0,0-1.349-.475,2.456,2.456,0,0,0-1.942.857,4.068,4.068,0,0,0-.747,2.711,4.205,4.205,0,0,0,.721,2.733,2.345,2.345,0,0,0,1.881.853,2.217,2.217,0,0,0,1.556-.571A2.835,2.835,0,0,0,108.313,223.786Z" transform="translate(-8.074 -6.133)"/><path class="cls-4" d="M111.231,227.2V214.32h1.582v7.348l3.744-3.8H118.6l-3.568,3.463,3.929,5.871h-1.951l-3.085-4.772-1.116,1.072v3.7h-1.582Z" transform="translate(-8.074 -6.133)"/><path class="cls-4" d="M119.589,224.418l1.564-.246a2.187,2.187,0,0,0,.734,1.441,2.558,2.558,0,0,0,1.683.5,2.473,2.473,0,0,0,1.617-.444,1.327,1.327,0,0,0,.527-1.042,0.961,0.961,0,0,0-.466-0.844,6.861,6.861,0,0,0-1.617-.536,14.757,14.757,0,0,1-2.413-.76,2.3,2.3,0,0,1-1.367-2.14,2.4,2.4,0,0,1,.286-1.156,2.561,2.561,0,0,1,.778-0.883,3.261,3.261,0,0,1,1.006-.461,4.785,4.785,0,0,1,1.367-.189,5.4,5.4,0,0,1,1.929.316,2.624,2.624,0,0,1,1.226.857,3.349,3.349,0,0,1,.545,1.446l-1.547.211a1.692,1.692,0,0,0-.611-1.125,2.234,2.234,0,0,0-1.428-.4,2.586,2.586,0,0,0-1.556.36,1.049,1.049,0,0,0-.466.844,0.873,0.873,0,0,0,.193.554,1.4,1.4,0,0,0,.606.422q0.237,0.088,1.4.4a19.454,19.454,0,0,1,2.342.734,2.376,2.376,0,0,1,1.042.831,2.318,2.318,0,0,1,.378,1.354,2.656,2.656,0,0,1-.461,1.49,2.982,2.982,0,0,1-1.332,1.081,4.847,4.847,0,0,1-1.969.382,4.386,4.386,0,0,1-2.773-.756A3.515,3.515,0,0,1,119.589,224.418Z" transform="translate(-8.074 -6.133)"/><path class="cls-4" d="M58.672,242.494a2.228,2.228,0,0,1,2.224-2.224,2.158,2.158,0,0,1,1.578.65A2.226,2.226,0,1,1,58.672,242.494Z" transform="translate(-8.074 -6.133)"/><path class="cls-4" d="M75.336,248.8V235.92H80.17a5.983,5.983,0,0,1,2.369.391,3.046,3.046,0,0,1,1.4,1.2,3.174,3.174,0,0,1,.505,1.7,2.922,2.922,0,0,1-.448,1.556,3.2,3.2,0,0,1-1.354,1.178,3.365,3.365,0,0,1,1.8,1.169,3.131,3.131,0,0,1,.628,1.951,3.764,3.764,0,0,1-.382,1.683,3.259,3.259,0,0,1-.945,1.2,3.943,3.943,0,0,1-1.411.637,8.58,8.58,0,0,1-2.079.215H75.336Zm1.705-7.471h2.786a6.217,6.217,0,0,0,1.626-.149,1.807,1.807,0,0,0,.98-0.642,1.848,1.848,0,0,0,.33-1.125,2.072,2.072,0,0,0-.308-1.129,1.557,1.557,0,0,0-.879-0.668,7.34,7.34,0,0,0-1.96-.18H77.042v3.894Zm0,5.95H80.25a7.384,7.384,0,0,0,1.16-.062,2.78,2.78,0,0,0,.984-0.352,1.867,1.867,0,0,0,.65-0.716,2.242,2.242,0,0,0,.255-1.085,2.141,2.141,0,0,0-.369-1.252,1.947,1.947,0,0,0-1.024-.747,6.349,6.349,0,0,0-1.885-.215H77.042v4.43Z" transform="translate(-8.074 -6.133)"/><path class="cls-4" d="M86.622,244.138a4.811,4.811,0,0,1,1.441-3.841A4.343,4.343,0,0,1,91,239.26a4.188,4.188,0,0,1,3.146,1.261,4.8,4.8,0,0,1,1.222,3.485,6.175,6.175,0,0,1-.541,2.834,3.826,3.826,0,0,1-1.573,1.6,4.58,4.58,0,0,1-2.254.571,4.2,4.2,0,0,1-3.168-1.257A5.02,5.02,0,0,1,86.622,244.138Zm1.626,0a3.976,3.976,0,0,0,.782,2.685,2.6,2.6,0,0,0,3.929,0,4.07,4.07,0,0,0,.782-2.733,3.856,3.856,0,0,0-.787-2.624,2.608,2.608,0,0,0-3.924,0A3.958,3.958,0,0,0,88.248,244.138Z" transform="translate(-8.074 -6.133)"/><path class="cls-4" d="M97.221,248.8v-9.334h1.424V240.8a3.355,3.355,0,0,1,2.971-1.538,3.9,3.9,0,0,1,1.551.3,2.44,2.44,0,0,1,1.059.8,3.053,3.053,0,0,1,.492,1.169,9.059,9.059,0,0,1,.088,1.538V248.8h-1.582v-5.678a4.262,4.262,0,0,0-.185-1.446,1.521,1.521,0,0,0-.655-0.765,2.083,2.083,0,0,0-1.1-.286,2.563,2.563,0,0,0-1.745.642,3.165,3.165,0,0,0-.734,2.435v5.1H97.221Z" transform="translate(-8.074 -6.133)"/><path class="cls-4" d="M113.288,248.8v-1.178a2.9,2.9,0,0,1-2.61,1.389,3.66,3.66,0,0,1-2.052-.615,4.046,4.046,0,0,1-1.45-1.718,5.939,5.939,0,0,1-.514-2.536,6.637,6.637,0,0,1,.466-2.536,3.674,3.674,0,0,1,1.4-1.745,3.736,3.736,0,0,1,2.083-.606,3.113,3.113,0,0,1,2.575,1.283V235.92h1.573V248.8h-1.468Zm-5-4.658a4.054,4.054,0,0,0,.756,2.681,2.279,2.279,0,0,0,1.784.888,2.237,2.237,0,0,0,1.762-.848,3.91,3.91,0,0,0,.725-2.588,4.389,4.389,0,0,0-.738-2.812,2.271,2.271,0,0,0-1.819-.9,2.192,2.192,0,0,0-1.762.861A4.251,4.251,0,0,0,108.287,244.146Z" transform="translate(-8.074 -6.133)"/><path class="cls-4" d="M116.61,246.019l1.564-.246a2.187,2.187,0,0,0,.734,1.441,2.558,2.558,0,0,0,1.683.5,2.473,2.473,0,0,0,1.617-.444,1.327,1.327,0,0,0,.527-1.042,0.961,0.961,0,0,0-.466-0.844,6.861,6.861,0,0,0-1.617-.536,14.757,14.757,0,0,1-2.413-.76,2.3,2.3,0,0,1-1.367-2.14,2.4,2.4,0,0,1,.286-1.156,2.561,2.561,0,0,1,.778-0.883,3.261,3.261,0,0,1,1.006-.461,4.785,4.785,0,0,1,1.367-.189,5.4,5.4,0,0,1,1.929.316,2.624,2.624,0,0,1,1.226.857,3.349,3.349,0,0,1,.545,1.446l-1.547.211a1.692,1.692,0,0,0-.611-1.125,2.234,2.234,0,0,0-1.428-.4,2.586,2.586,0,0,0-1.556.36,1.049,1.049,0,0,0-.466.844,0.873,0.873,0,0,0,.193.554,1.4,1.4,0,0,0,.606.422q0.237,0.088,1.4.4a19.454,19.454,0,0,1,2.342.734,2.376,2.376,0,0,1,1.042.831,2.318,2.318,0,0,1,.378,1.354,2.656,2.656,0,0,1-.461,1.49,2.982,2.982,0,0,1-1.332,1.081,4.847,4.847,0,0,1-1.969.382,4.386,4.386,0,0,1-2.773-.756A3.515,3.515,0,0,1,116.61,246.019Z" transform="translate(-8.074 -6.133)"/><path class="cls-4" d="M58.672,264.094a2.228,2.228,0,0,1,2.224-2.224,2.158,2.158,0,0,1,1.578.65A2.226,2.226,0,1,1,58.672,264.094Z" transform="translate(-8.074 -6.133)"/><path class="cls-4" d="M84.6,265.887l1.705,0.431a5.74,5.74,0,0,1-1.929,3.2,5.316,5.316,0,0,1-3.406,1.1,6.12,6.12,0,0,1-3.388-.848A5.3,5.3,0,0,1,75.6,267.32a8.765,8.765,0,0,1-.681-3.454,7.592,7.592,0,0,1,.769-3.511,5.269,5.269,0,0,1,2.188-2.276A6.394,6.394,0,0,1,81,257.3a5.282,5.282,0,0,1,3.252.984,5.112,5.112,0,0,1,1.837,2.769l-1.679.4a3.982,3.982,0,0,0-1.3-2.048,3.466,3.466,0,0,0-2.145-.642,4.166,4.166,0,0,0-2.483.712,3.759,3.759,0,0,0-1.4,1.912,7.7,7.7,0,0,0-.4,2.474,7.862,7.862,0,0,0,.479,2.87,3.568,3.568,0,0,0,1.49,1.833,4.178,4.178,0,0,0,2.188.606,3.667,3.667,0,0,0,2.426-.826A4.228,4.228,0,0,0,84.6,265.887Z" transform="translate(-8.074 -6.133)"/><path class="cls-4" d="M94.294,269.253a5.891,5.891,0,0,1-1.692,1.055,4.889,4.889,0,0,1-1.745.308,3.393,3.393,0,0,1-2.364-.751,2.48,2.48,0,0,1-.826-1.92,2.554,2.554,0,0,1,.312-1.252,2.583,2.583,0,0,1,.817-0.91,3.844,3.844,0,0,1,1.138-.519,11.3,11.3,0,0,1,1.406-.237,14.46,14.46,0,0,0,2.821-.545q0.009-.325.009-0.413a1.747,1.747,0,0,0-.448-1.362,2.648,2.648,0,0,0-1.8-.536,2.794,2.794,0,0,0-1.648.391,2.39,2.39,0,0,0-.787,1.384l-1.547-.211a3.833,3.833,0,0,1,.694-1.6,3.043,3.043,0,0,1,1.4-.94,6.233,6.233,0,0,1,2.118-.33,5.606,5.606,0,0,1,1.942.281,2.559,2.559,0,0,1,1.1.708,2.488,2.488,0,0,1,.492,1.077,8.908,8.908,0,0,1,.079,1.459v2.109a22.389,22.389,0,0,0,.1,2.791,3.521,3.521,0,0,0,.4,1.121H94.611A3.354,3.354,0,0,1,94.294,269.253Zm-0.132-3.533a11.607,11.607,0,0,1-2.584.6,5.977,5.977,0,0,0-1.38.316,1.376,1.376,0,0,0-.624.514,1.4,1.4,0,0,0,.259,1.806,2.061,2.061,0,0,0,1.4.422,3.263,3.263,0,0,0,1.626-.4,2.463,2.463,0,0,0,1.046-1.094,3.822,3.822,0,0,0,.255-1.582v-0.58Z" transform="translate(-8.074 -6.133)"/><path class="cls-4" d="M97.582,267.619l1.564-.246a2.187,2.187,0,0,0,.734,1.441,2.558,2.558,0,0,0,1.683.5,2.473,2.473,0,0,0,1.617-.444,1.327,1.327,0,0,0,.527-1.042,0.961,0.961,0,0,0-.466-0.844,6.861,6.861,0,0,0-1.617-.536,14.757,14.757,0,0,1-2.413-.76,2.3,2.3,0,0,1-1.367-2.14,2.4,2.4,0,0,1,.286-1.156,2.561,2.561,0,0,1,.778-0.883,3.261,3.261,0,0,1,1.006-.461,4.785,4.785,0,0,1,1.367-.189,5.4,5.4,0,0,1,1.929.316,2.624,2.624,0,0,1,1.226.857,3.349,3.349,0,0,1,.545,1.446l-1.547.211a1.692,1.692,0,0,0-.611-1.125,2.234,2.234,0,0,0-1.428-.4,2.586,2.586,0,0,0-1.556.36,1.049,1.049,0,0,0-.466.844,0.873,0.873,0,0,0,.193.554,1.4,1.4,0,0,0,.606.422q0.237,0.088,1.4.4a19.454,19.454,0,0,1,2.342.734,2.376,2.376,0,0,1,1.042.831,2.318,2.318,0,0,1,.378,1.354,2.656,2.656,0,0,1-.461,1.49,2.982,2.982,0,0,1-1.332,1.081,4.847,4.847,0,0,1-1.969.382,4.386,4.386,0,0,1-2.773-.756A3.515,3.515,0,0,1,97.582,267.619Z" transform="translate(-8.074 -6.133)"/><path class="cls-4" d="M107.214,270.4V257.52H108.8v4.623a3.534,3.534,0,0,1,2.795-1.283,3.769,3.769,0,0,1,1.8.409,2.4,2.4,0,0,1,1.094,1.129,5.206,5.206,0,0,1,.33,2.092V270.4h-1.582V264.49a2.444,2.444,0,0,0-.514-1.727,1.912,1.912,0,0,0-1.455-.541,2.565,2.565,0,0,0-1.323.365,2.06,2.06,0,0,0-.883.989,4.541,4.541,0,0,0-.264,1.723V270.4h-1.582Z" transform="translate(-8.074 -6.133)"/><rect class="cls-1" x="255.769" y="74.305" width="152.55" height="127.61"/><rect class="cls-2" x="255.77" y="74.305" width="152.55" height="45.897"/><path class="cls-3" d="M270.4,98.647l4.948-12.885h1.837l5.273,12.885h-1.942l-1.5-3.9h-5.388l-1.415,3.9H270.4Zm3.718-5.291h4.368l-1.345-3.568q-0.615-1.626-.914-2.672a16.425,16.425,0,0,1-.694,2.461Z" transform="translate(-8.074 -6.133)"/><path class="cls-3" d="M283.621,102.225V89.313h1.441v1.213a3.553,3.553,0,0,1,1.151-1.068,3.164,3.164,0,0,1,1.556-.356,3.688,3.688,0,0,1,2.109.615,3.776,3.776,0,0,1,1.38,1.736,6.338,6.338,0,0,1,.466,2.457,6.239,6.239,0,0,1-.514,2.58,3.876,3.876,0,0,1-1.494,1.758,3.836,3.836,0,0,1-2.061.611,2.977,2.977,0,0,1-1.419-.334,3.232,3.232,0,0,1-1.033-.844v4.544h-1.582Zm1.433-8.191a4.06,4.06,0,0,0,.729,2.663,2.237,2.237,0,0,0,1.767.861,2.287,2.287,0,0,0,1.806-.892,4.232,4.232,0,0,0,.751-2.764,4.124,4.124,0,0,0-.734-2.672,2.209,2.209,0,0,0-1.753-.888,2.278,2.278,0,0,0-1.789.945A4.227,4.227,0,0,0,285.054,94.033Z" transform="translate(-8.074 -6.133)"/><path class="cls-3" d="M293.632,102.225V89.313h1.441v1.213a3.553,3.553,0,0,1,1.151-1.068,3.164,3.164,0,0,1,1.556-.356,3.688,3.688,0,0,1,2.109.615,3.776,3.776,0,0,1,1.38,1.736,6.338,6.338,0,0,1,.466,2.457,6.239,6.239,0,0,1-.514,2.58,3.876,3.876,0,0,1-1.494,1.758,3.836,3.836,0,0,1-2.061.611,2.977,2.977,0,0,1-1.419-.334,3.232,3.232,0,0,1-1.033-.844v4.544h-1.582Zm1.433-8.191a4.06,4.06,0,0,0,.729,2.663,2.237,2.237,0,0,0,1.767.861,2.287,2.287,0,0,0,1.806-.892,4.232,4.232,0,0,0,.751-2.764,4.124,4.124,0,0,0-.734-2.672,2.209,2.209,0,0,0-1.753-.888,2.278,2.278,0,0,0-1.789.945A4.227,4.227,0,0,0,295.064,94.033Z" transform="translate(-8.074 -6.133)"/><path class="cls-3" d="M303.625,98.647V89.313h1.424v1.415a3.861,3.861,0,0,1,1.006-1.31,1.757,1.757,0,0,1,1.015-.316,3.086,3.086,0,0,1,1.626.51l-0.545,1.468a2.264,2.264,0,0,0-1.16-.343,1.507,1.507,0,0,0-.932.312,1.69,1.69,0,0,0-.589.866,6.162,6.162,0,0,0-.264,1.846v4.887h-1.582Z" transform="translate(-8.074 -6.133)"/><path class="cls-3" d="M309.048,93.98a4.811,4.811,0,0,1,1.441-3.841,4.343,4.343,0,0,1,2.936-1.037,4.188,4.188,0,0,1,3.146,1.261,4.8,4.8,0,0,1,1.222,3.485,6.175,6.175,0,0,1-.54,2.834,3.826,3.826,0,0,1-1.573,1.6,4.582,4.582,0,0,1-2.255.571,4.2,4.2,0,0,1-3.168-1.257A5.02,5.02,0,0,1,309.048,93.98Zm1.626,0a3.976,3.976,0,0,0,.782,2.685,2.6,2.6,0,0,0,3.929,0,4.07,4.07,0,0,0,.782-2.733,3.856,3.856,0,0,0-.786-2.624,2.609,2.609,0,0,0-3.925,0A3.958,3.958,0,0,0,310.674,93.98Z" transform="translate(-8.074 -6.133)"/><path class="cls-3" d="M319.647,102.225V89.313h1.441v1.213a3.553,3.553,0,0,1,1.151-1.068A3.164,3.164,0,0,1,323.8,89.1a3.688,3.688,0,0,1,2.109.615,3.776,3.776,0,0,1,1.38,1.736,6.338,6.338,0,0,1,.466,2.457,6.239,6.239,0,0,1-.514,2.58,3.909,3.909,0,0,1-3.556,2.369,2.975,2.975,0,0,1-1.419-.334,3.234,3.234,0,0,1-1.033-.844v4.544h-1.582Zm1.433-8.191a4.06,4.06,0,0,0,.729,2.663,2.237,2.237,0,0,0,1.767.861,2.288,2.288,0,0,0,1.807-.892,4.233,4.233,0,0,0,.751-2.764,4.124,4.124,0,0,0-.733-2.672,2.21,2.21,0,0,0-1.754-.888,2.277,2.277,0,0,0-1.788.945A4.227,4.227,0,0,0,321.08,94.033Z" transform="translate(-8.074 -6.133)"/><path class="cls-3" d="M329.641,98.647V89.313h1.424v1.415a3.861,3.861,0,0,1,1.007-1.31,1.755,1.755,0,0,1,1.015-.316,3.086,3.086,0,0,1,1.626.51l-0.545,1.468a2.264,2.264,0,0,0-1.16-.343,1.507,1.507,0,0,0-.932.312,1.69,1.69,0,0,0-.589.866,6.162,6.162,0,0,0-.264,1.846v4.887h-1.582Z" transform="translate(-8.074 -6.133)"/><path class="cls-3" d="M335.661,87.582V85.763h1.582v1.819h-1.582Zm0,11.065V89.313h1.582v9.334h-1.582Z" transform="translate(-8.074 -6.133)"/><path class="cls-3" d="M345.742,97.5a5.889,5.889,0,0,1-1.691,1.055,4.892,4.892,0,0,1-1.745.308,3.393,3.393,0,0,1-2.364-.751,2.48,2.48,0,0,1-.826-1.92,2.554,2.554,0,0,1,.313-1.252,2.583,2.583,0,0,1,.817-0.91,3.841,3.841,0,0,1,1.138-.519,11.3,11.3,0,0,1,1.406-.237,14.46,14.46,0,0,0,2.821-.545q0.009-.325.009-0.413a1.747,1.747,0,0,0-.448-1.362,2.648,2.648,0,0,0-1.8-.536,2.792,2.792,0,0,0-1.647.391,2.39,2.39,0,0,0-.787,1.384l-1.547-.211a3.833,3.833,0,0,1,.694-1.6,3.043,3.043,0,0,1,1.4-.94,6.233,6.233,0,0,1,2.118-.33,5.606,5.606,0,0,1,1.942.281,2.559,2.559,0,0,1,1.1.708,2.488,2.488,0,0,1,.492,1.077,8.908,8.908,0,0,1,.079,1.459v2.109a22.35,22.35,0,0,0,.1,2.791,3.52,3.52,0,0,0,.4,1.121h-1.652A3.354,3.354,0,0,1,345.742,97.5Zm-0.132-3.533a11.607,11.607,0,0,1-2.584.6,5.977,5.977,0,0,0-1.38.316,1.376,1.376,0,0,0-.624.514,1.4,1.4,0,0,0,.26,1.806,2.06,2.06,0,0,0,1.4.422,3.263,3.263,0,0,0,1.626-.4,2.463,2.463,0,0,0,1.046-1.094,3.822,3.822,0,0,0,.255-1.582v-0.58Z" transform="translate(-8.074 -6.133)"/><path class="cls-3" d="M353.116,97.232l0.229,1.4a5.868,5.868,0,0,1-1.2.141,2.706,2.706,0,0,1-1.336-.272,1.526,1.526,0,0,1-.668-0.716,5.664,5.664,0,0,1-.193-1.868v-5.37h-1.16v-1.23h1.16V87l1.573-.949v3.261h1.591v1.23h-1.591V96a2.752,2.752,0,0,0,.084.87,0.659,0.659,0,0,0,.272.308,1.05,1.05,0,0,0,.54.114A5.146,5.146,0,0,0,353.116,97.232Z" transform="translate(-8.074 -6.133)"/><path class="cls-3" d="M361.053,95.642l1.635,0.2a3.989,3.989,0,0,1-1.433,2.224,4.853,4.853,0,0,1-5.919-.47,4.928,4.928,0,0,1-1.2-3.538,5.158,5.158,0,0,1,1.213-3.656,4.106,4.106,0,0,1,3.146-1.3,3.99,3.99,0,0,1,3.059,1.274,5.064,5.064,0,0,1,1.187,3.586q0,0.141-.009.422h-6.961a3.587,3.587,0,0,0,.87,2.355,2.59,2.59,0,0,0,1.951.817,2.421,2.421,0,0,0,1.485-.457A3.034,3.034,0,0,0,361.053,95.642Zm-5.194-2.558h5.212a3.162,3.162,0,0,0-.6-1.767,2.425,2.425,0,0,0-1.96-.914,2.512,2.512,0,0,0-1.832.729A2.888,2.888,0,0,0,355.858,93.084Z" transform="translate(-8.074 -6.133)"/><path class="cls-3" d="M367.469,98.647l4.948-12.885h1.837l5.273,12.885h-1.942l-1.5-3.9h-5.388l-1.415,3.9h-1.811Zm3.718-5.291h4.368l-1.345-3.568q-0.615-1.626-.914-2.672a16.425,16.425,0,0,1-.694,2.461Z" transform="translate(-8.074 -6.133)"/><path class="cls-3" d="M380.055,95.861l1.564-.246a2.187,2.187,0,0,0,.734,1.441,2.556,2.556,0,0,0,1.683.5,2.473,2.473,0,0,0,1.617-.444,1.327,1.327,0,0,0,.527-1.042,0.961,0.961,0,0,0-.466-0.844,6.861,6.861,0,0,0-1.617-.536,14.747,14.747,0,0,1-2.412-.76,2.3,2.3,0,0,1-1.367-2.14,2.4,2.4,0,0,1,.286-1.156,2.56,2.56,0,0,1,.777-0.883,3.264,3.264,0,0,1,1.007-.461,4.782,4.782,0,0,1,1.366-.189,5.405,5.405,0,0,1,1.93.316,2.622,2.622,0,0,1,1.226.857,3.349,3.349,0,0,1,.545,1.446l-1.547.211a1.691,1.691,0,0,0-.61-1.125,2.236,2.236,0,0,0-1.429-.4,2.586,2.586,0,0,0-1.556.36,1.049,1.049,0,0,0-.466.844,0.873,0.873,0,0,0,.193.554,1.4,1.4,0,0,0,.606.422q0.237,0.088,1.4.4a19.47,19.47,0,0,1,2.343.734,2.375,2.375,0,0,1,1.041.831,2.318,2.318,0,0,1,.378,1.354,2.656,2.656,0,0,1-.461,1.49,2.984,2.984,0,0,1-1.332,1.081,4.847,4.847,0,0,1-1.969.382,4.384,4.384,0,0,1-2.772-.756A3.515,3.515,0,0,1,380.055,95.861Z" transform="translate(-8.074 -6.133)"/><path class="cls-3" d="M389.055,95.861l1.564-.246a2.187,2.187,0,0,0,.734,1.441,2.556,2.556,0,0,0,1.683.5,2.473,2.473,0,0,0,1.617-.444,1.327,1.327,0,0,0,.527-1.042,0.961,0.961,0,0,0-.466-0.844,6.861,6.861,0,0,0-1.617-.536,14.747,14.747,0,0,1-2.412-.76,2.3,2.3,0,0,1-1.367-2.14,2.4,2.4,0,0,1,.286-1.156,2.56,2.56,0,0,1,.777-0.883,3.264,3.264,0,0,1,1.007-.461,4.782,4.782,0,0,1,1.366-.189,5.405,5.405,0,0,1,1.93.316,2.622,2.622,0,0,1,1.226.857,3.349,3.349,0,0,1,.545,1.446l-1.547.211a1.691,1.691,0,0,0-.61-1.125,2.236,2.236,0,0,0-1.429-.4,2.586,2.586,0,0,0-1.556.36,1.049,1.049,0,0,0-.466.844,0.873,0.873,0,0,0,.193.554,1.4,1.4,0,0,0,.606.422q0.237,0.088,1.4.4a19.47,19.47,0,0,1,2.343.734,2.375,2.375,0,0,1,1.041.831,2.318,2.318,0,0,1,.378,1.354,2.656,2.656,0,0,1-.461,1.49,2.984,2.984,0,0,1-1.332,1.081,4.847,4.847,0,0,1-1.969.382,4.384,4.384,0,0,1-2.772-.756A3.515,3.515,0,0,1,389.055,95.861Z" transform="translate(-8.074 -6.133)"/><path class="cls-3" d="M405.077,95.642l1.635,0.2a3.989,3.989,0,0,1-1.433,2.224,4.853,4.853,0,0,1-5.919-.47,4.928,4.928,0,0,1-1.2-3.538,5.158,5.158,0,0,1,1.213-3.656,4.106,4.106,0,0,1,3.146-1.3,3.99,3.99,0,0,1,3.059,1.274,5.064,5.064,0,0,1,1.187,3.586q0,0.141-.009.422h-6.961a3.587,3.587,0,0,0,.87,2.355,2.59,2.59,0,0,0,1.951.817A2.421,2.421,0,0,0,404.1,97.1,3.034,3.034,0,0,0,405.077,95.642Zm-5.194-2.558h5.212a3.162,3.162,0,0,0-.6-1.767,2.425,2.425,0,0,0-1.96-.914,2.512,2.512,0,0,0-1.832.729A2.888,2.888,0,0,0,399.883,93.084Z" transform="translate(-8.074 -6.133)"/><path class="cls-3" d="M412.152,97.232l0.229,1.4a5.868,5.868,0,0,1-1.2.141,2.706,2.706,0,0,1-1.336-.272,1.526,1.526,0,0,1-.668-0.716,5.664,5.664,0,0,1-.193-1.868v-5.37h-1.16v-1.23h1.16V87l1.573-.949v3.261h1.591v1.23h-1.591V96a2.752,2.752,0,0,0,.084.87,0.659,0.659,0,0,0,.272.308,1.05,1.05,0,0,0,.54.114A5.146,5.146,0,0,0,412.152,97.232Z" transform="translate(-8.074 -6.133)"/><path class="cls-3" d="M271.765,120.248V107.363h2.566l3.05,9.123q0.422,1.274.615,1.907,0.22-.7.686-2.065l3.085-8.965h2.294v12.885h-1.644V109.463l-3.744,10.784h-1.538l-3.727-10.969v10.969h-1.644Z" transform="translate(-8.074 -6.133)"/><path class="cls-3" d="M286.618,109.182v-1.819H288.2v1.819h-1.582Zm0,11.065v-9.334H288.2v9.334h-1.582Z" transform="translate(-8.074 -6.133)"/><path class="cls-3" d="M289.554,120.248l3.41-4.852-3.155-4.482h1.978l1.433,2.188q0.4,0.624.65,1.046,0.387-.58.712-1.028l1.573-2.206h1.89l-3.226,4.395,3.472,4.939h-1.942l-1.916-2.9-0.51-.782-2.452,3.683h-1.916Z" transform="translate(-8.074 -6.133)"/><path class="cls-4" d="M291.217,145.451a2.228,2.228,0,0,1,2.224-2.224,2.158,2.158,0,0,1,1.578.65A2.226,2.226,0,1,1,291.217,145.451Z" transform="translate(-8.074 -6.133)"/><path class="cls-4" d="M307.371,147.622l1.608-.141a3.552,3.552,0,0,0,.532,1.586,2.9,2.9,0,0,0,1.3,1,4.909,4.909,0,0,0,1.978.382,4.739,4.739,0,0,0,1.723-.29,2.391,2.391,0,0,0,1.112-.8,1.844,1.844,0,0,0,.364-1.1,1.677,1.677,0,0,0-.352-1.059,2.6,2.6,0,0,0-1.16-.76,22.676,22.676,0,0,0-2.294-.628,11.721,11.721,0,0,1-2.487-.8,3.486,3.486,0,0,1-1.375-1.2,2.941,2.941,0,0,1-.453-1.6,3.275,3.275,0,0,1,.554-1.824,3.429,3.429,0,0,1,1.617-1.288,6.135,6.135,0,0,1,2.364-.439,6.461,6.461,0,0,1,2.527.461,3.643,3.643,0,0,1,1.683,1.358,3.9,3.9,0,0,1,.633,2.03l-1.635.123a2.637,2.637,0,0,0-.892-1.846,3.474,3.474,0,0,0-2.246-.624,3.6,3.6,0,0,0-2.254.567,1.7,1.7,0,0,0-.708,1.367,1.465,1.465,0,0,0,.5,1.143,6.792,6.792,0,0,0,2.571.918,17,17,0,0,1,2.852.822,3.906,3.906,0,0,1,1.661,1.314,3.2,3.2,0,0,1,.536,1.833,3.5,3.5,0,0,1-.589,1.938,3.876,3.876,0,0,1-1.691,1.415,5.9,5.9,0,0,1-2.483.505,7.411,7.411,0,0,1-2.931-.51,4.105,4.105,0,0,1-1.854-1.534A4.349,4.349,0,0,1,307.371,147.622Z" transform="translate(-8.074 -6.133)"/><path class="cls-4" d="M323.209,150.347l0.229,1.4a5.868,5.868,0,0,1-1.2.141,2.706,2.706,0,0,1-1.336-.272,1.526,1.526,0,0,1-.668-0.716,5.664,5.664,0,0,1-.193-1.868v-5.37h-1.16v-1.23h1.16v-2.312l1.573-.949v3.261h1.591v1.23h-1.591v5.458a2.752,2.752,0,0,0,.084.87,0.659,0.659,0,0,0,.272.308,1.05,1.05,0,0,0,.54.114A5.146,5.146,0,0,0,323.209,150.347Z" transform="translate(-8.074 -6.133)"/><path class="cls-4" d="M324.167,147.095a4.811,4.811,0,0,1,1.441-3.841,4.343,4.343,0,0,1,2.936-1.037,4.188,4.188,0,0,1,3.146,1.261,4.8,4.8,0,0,1,1.222,3.485,6.175,6.175,0,0,1-.54,2.834,3.826,3.826,0,0,1-1.573,1.6,4.582,4.582,0,0,1-2.255.571,4.2,4.2,0,0,1-3.168-1.257A5.02,5.02,0,0,1,324.167,147.095Zm1.626,0a3.976,3.976,0,0,0,.782,2.685,2.6,2.6,0,0,0,3.929,0,4.07,4.07,0,0,0,.782-2.733,3.856,3.856,0,0,0-.786-2.624,2.609,2.609,0,0,0-3.925,0A3.958,3.958,0,0,0,325.793,147.095Z" transform="translate(-8.074 -6.133)"/><path class="cls-4" d="M340.857,148.343l1.556,0.2a4.034,4.034,0,0,1-1.3,2.518,3.8,3.8,0,0,1-2.58.91,4.007,4.007,0,0,1-3.08-1.252,5.082,5.082,0,0,1-1.165-3.59,6.5,6.5,0,0,1,.5-2.646,3.494,3.494,0,0,1,1.525-1.7,4.523,4.523,0,0,1,2.228-.567,3.873,3.873,0,0,1,2.487.769,3.526,3.526,0,0,1,1.239,2.184l-1.538.237a2.554,2.554,0,0,0-.777-1.415,2.014,2.014,0,0,0-1.35-.475,2.456,2.456,0,0,0-1.942.857,4.068,4.068,0,0,0-.747,2.711,4.205,4.205,0,0,0,.721,2.733,2.345,2.345,0,0,0,1.881.853,2.217,2.217,0,0,0,1.556-.571A2.835,2.835,0,0,0,340.857,148.343Z" transform="translate(-8.074 -6.133)"/><path class="cls-4" d="M343.775,151.762V138.877h1.582v7.348l3.744-3.8h2.048l-3.568,3.463,3.929,5.871h-1.951l-3.085-4.772-1.116,1.072v3.7h-1.582Z" transform="translate(-8.074 -6.133)"/><path class="cls-4" d="M352.134,148.976l1.564-.246a2.187,2.187,0,0,0,.734,1.441,2.556,2.556,0,0,0,1.683.5,2.473,2.473,0,0,0,1.617-.444,1.327,1.327,0,0,0,.527-1.042,0.961,0.961,0,0,0-.466-0.844,6.861,6.861,0,0,0-1.617-.536,14.747,14.747,0,0,1-2.412-.76,2.3,2.3,0,0,1-1.367-2.14,2.4,2.4,0,0,1,.286-1.156,2.56,2.56,0,0,1,.777-0.883,3.264,3.264,0,0,1,1.007-.461,4.782,4.782,0,0,1,1.366-.189,5.405,5.405,0,0,1,1.93.316,2.622,2.622,0,0,1,1.226.857,3.349,3.349,0,0,1,.545,1.446l-1.547.211a1.691,1.691,0,0,0-.61-1.125,2.236,2.236,0,0,0-1.429-.4,2.586,2.586,0,0,0-1.556.36,1.049,1.049,0,0,0-.466.844,0.873,0.873,0,0,0,.193.554,1.4,1.4,0,0,0,.606.422q0.237,0.088,1.4.4a19.47,19.47,0,0,1,2.343.734,2.375,2.375,0,0,1,1.041.831,2.318,2.318,0,0,1,.378,1.354,2.656,2.656,0,0,1-.461,1.49,2.984,2.984,0,0,1-1.332,1.081,4.847,4.847,0,0,1-1.969.382,4.384,4.384,0,0,1-2.772-.756A3.515,3.515,0,0,1,352.134,148.976Z" transform="translate(-8.074 -6.133)"/><path class="cls-4" d="M291.217,167.051a2.228,2.228,0,0,1,2.224-2.224,2.158,2.158,0,0,1,1.578.65A2.226,2.226,0,1,1,291.217,167.051Z" transform="translate(-8.074 -6.133)"/><path class="cls-4" d="M307.881,173.362V160.477h4.834a5.986,5.986,0,0,1,2.369.391,3.046,3.046,0,0,1,1.4,1.2,3.174,3.174,0,0,1,.5,1.7,2.922,2.922,0,0,1-.448,1.556,3.2,3.2,0,0,1-1.354,1.178,3.367,3.367,0,0,1,1.8,1.169,3.13,3.13,0,0,1,.628,1.951,3.763,3.763,0,0,1-.382,1.683,3.26,3.26,0,0,1-.945,1.2,3.941,3.941,0,0,1-1.41.637,8.584,8.584,0,0,1-2.079.215h-4.913Zm1.705-7.471h2.786a6.217,6.217,0,0,0,1.626-.149,1.809,1.809,0,0,0,.98-0.642,1.848,1.848,0,0,0,.329-1.125,2.072,2.072,0,0,0-.308-1.129,1.557,1.557,0,0,0-.879-0.668,7.34,7.34,0,0,0-1.96-.18h-2.575v3.894Zm0,5.95h3.208a7.384,7.384,0,0,0,1.16-.062,2.78,2.78,0,0,0,.984-0.352,1.867,1.867,0,0,0,.65-0.716,2.242,2.242,0,0,0,.255-1.085,2.141,2.141,0,0,0-.369-1.252,1.946,1.946,0,0,0-1.023-.747,6.352,6.352,0,0,0-1.886-.215h-2.979v4.43Z" transform="translate(-8.074 -6.133)"/><path class="cls-4" d="M319.166,168.695a4.811,4.811,0,0,1,1.441-3.841,4.343,4.343,0,0,1,2.936-1.037,4.188,4.188,0,0,1,3.146,1.261,4.8,4.8,0,0,1,1.222,3.485,6.175,6.175,0,0,1-.54,2.834A3.826,3.826,0,0,1,325.8,173a4.582,4.582,0,0,1-2.255.571,4.2,4.2,0,0,1-3.168-1.257A5.02,5.02,0,0,1,319.166,168.695Zm1.626,0a3.976,3.976,0,0,0,.782,2.685,2.6,2.6,0,0,0,3.929,0,4.07,4.07,0,0,0,.782-2.733,3.856,3.856,0,0,0-.786-2.624,2.609,2.609,0,0,0-3.925,0A3.958,3.958,0,0,0,320.792,168.695Z" transform="translate(-8.074 -6.133)"/><path class="cls-4" d="M329.766,173.362v-9.334h1.424v1.327a3.355,3.355,0,0,1,2.971-1.538,3.9,3.9,0,0,1,1.552.3,2.438,2.438,0,0,1,1.059.8,3.053,3.053,0,0,1,.492,1.169,9.059,9.059,0,0,1,.088,1.538v5.739h-1.582v-5.678a4.262,4.262,0,0,0-.185-1.446,1.52,1.52,0,0,0-.654-0.765,2.085,2.085,0,0,0-1.1-.286,2.562,2.562,0,0,0-1.744.642,3.165,3.165,0,0,0-.734,2.435v5.1h-1.582Z" transform="translate(-8.074 -6.133)"/><path class="cls-4" d="M345.832,173.362v-1.178a2.9,2.9,0,0,1-2.61,1.389,3.659,3.659,0,0,1-2.052-.615,4.046,4.046,0,0,1-1.45-1.718,5.939,5.939,0,0,1-.515-2.536,6.637,6.637,0,0,1,.466-2.536,3.674,3.674,0,0,1,1.4-1.745,3.736,3.736,0,0,1,2.083-.606,3.113,3.113,0,0,1,2.575,1.283v-4.623H347.3v12.885h-1.468Zm-5-4.658a4.054,4.054,0,0,0,.756,2.681,2.279,2.279,0,0,0,1.784.888,2.238,2.238,0,0,0,1.763-.848,3.91,3.91,0,0,0,.725-2.588,4.389,4.389,0,0,0-.738-2.812,2.271,2.271,0,0,0-1.819-.9,2.191,2.191,0,0,0-1.762.861A4.251,4.251,0,0,0,340.831,168.7Z" transform="translate(-8.074 -6.133)"/><path class="cls-4" d="M349.154,170.576l1.564-.246a2.187,2.187,0,0,0,.734,1.441,2.556,2.556,0,0,0,1.683.5,2.473,2.473,0,0,0,1.617-.444,1.327,1.327,0,0,0,.527-1.042,0.961,0.961,0,0,0-.466-0.844,6.861,6.861,0,0,0-1.617-.536,14.747,14.747,0,0,1-2.412-.76,2.3,2.3,0,0,1-1.367-2.14,2.4,2.4,0,0,1,.286-1.156,2.56,2.56,0,0,1,.777-0.883,3.264,3.264,0,0,1,1.007-.461,4.782,4.782,0,0,1,1.366-.189,5.405,5.405,0,0,1,1.93.316,2.622,2.622,0,0,1,1.226.857,3.349,3.349,0,0,1,.545,1.446l-1.547.211a1.691,1.691,0,0,0-.61-1.125,2.236,2.236,0,0,0-1.429-.4,2.586,2.586,0,0,0-1.556.36,1.049,1.049,0,0,0-.466.844,0.873,0.873,0,0,0,.193.554,1.4,1.4,0,0,0,.606.422q0.237,0.088,1.4.4a19.47,19.47,0,0,1,2.343.734,2.375,2.375,0,0,1,1.041.831,2.318,2.318,0,0,1,.378,1.354,2.656,2.656,0,0,1-.461,1.49,2.984,2.984,0,0,1-1.332,1.081,4.847,4.847,0,0,1-1.969.382,4.384,4.384,0,0,1-2.772-.756A3.515,3.515,0,0,1,349.154,170.576Z" transform="translate(-8.074 -6.133)"/><path class="cls-4" d="M291.217,188.651a2.228,2.228,0,0,1,2.224-2.224,2.158,2.158,0,0,1,1.578.65A2.226,2.226,0,1,1,291.217,188.651Z" transform="translate(-8.074 -6.133)"/><path class="cls-4" d="M317.145,190.444l1.705,0.431a5.739,5.739,0,0,1-1.929,3.2,5.317,5.317,0,0,1-3.406,1.1,6.118,6.118,0,0,1-3.388-.848,5.3,5.3,0,0,1-1.986-2.457,8.765,8.765,0,0,1-.682-3.454,7.593,7.593,0,0,1,.77-3.511,5.269,5.269,0,0,1,2.188-2.276,6.392,6.392,0,0,1,3.124-.778,5.282,5.282,0,0,1,3.252.984,5.112,5.112,0,0,1,1.837,2.769l-1.679.4a3.982,3.982,0,0,0-1.3-2.048,3.466,3.466,0,0,0-2.145-.642,4.164,4.164,0,0,0-2.482.712,3.76,3.76,0,0,0-1.4,1.912,7.7,7.7,0,0,0-.4,2.474,7.862,7.862,0,0,0,.479,2.87,3.567,3.567,0,0,0,1.489,1.833,4.178,4.178,0,0,0,2.188.606,3.667,3.667,0,0,0,2.426-.826A4.228,4.228,0,0,0,317.145,190.444Z" transform="translate(-8.074 -6.133)"/><path class="cls-4" d="M326.839,193.811a5.889,5.889,0,0,1-1.691,1.055,4.892,4.892,0,0,1-1.745.308,3.393,3.393,0,0,1-2.364-.751,2.48,2.48,0,0,1-.826-1.92,2.554,2.554,0,0,1,.313-1.252,2.583,2.583,0,0,1,.817-0.91,3.841,3.841,0,0,1,1.138-.519,11.3,11.3,0,0,1,1.406-.237,14.46,14.46,0,0,0,2.821-.545q0.009-.325.009-0.413a1.747,1.747,0,0,0-.448-1.362,2.648,2.648,0,0,0-1.8-.536,2.792,2.792,0,0,0-1.647.391,2.39,2.39,0,0,0-.787,1.384l-1.547-.211a3.833,3.833,0,0,1,.694-1.6,3.043,3.043,0,0,1,1.4-.94,6.233,6.233,0,0,1,2.118-.33,5.606,5.606,0,0,1,1.942.281,2.559,2.559,0,0,1,1.1.708,2.488,2.488,0,0,1,.492,1.077,8.908,8.908,0,0,1,.079,1.459v2.109a22.35,22.35,0,0,0,.1,2.791,3.52,3.52,0,0,0,.4,1.121h-1.652A3.354,3.354,0,0,1,326.839,193.811Zm-0.132-3.533a11.607,11.607,0,0,1-2.584.6,5.977,5.977,0,0,0-1.38.316,1.376,1.376,0,0,0-.624.514,1.4,1.4,0,0,0,.26,1.806,2.06,2.06,0,0,0,1.4.422,3.263,3.263,0,0,0,1.626-.4,2.463,2.463,0,0,0,1.046-1.094,3.822,3.822,0,0,0,.255-1.582v-0.58Z" transform="translate(-8.074 -6.133)"/><path class="cls-4" d="M330.126,192.176l1.564-.246a2.187,2.187,0,0,0,.734,1.441,2.556,2.556,0,0,0,1.683.5,2.473,2.473,0,0,0,1.617-.444,1.327,1.327,0,0,0,.527-1.042,0.961,0.961,0,0,0-.466-0.844,6.861,6.861,0,0,0-1.617-.536,14.747,14.747,0,0,1-2.412-.76,2.3,2.3,0,0,1-1.367-2.14,2.4,2.4,0,0,1,.286-1.156,2.56,2.56,0,0,1,.777-0.883,3.264,3.264,0,0,1,1.007-.461,4.782,4.782,0,0,1,1.366-.189,5.405,5.405,0,0,1,1.93.316,2.622,2.622,0,0,1,1.226.857,3.349,3.349,0,0,1,.545,1.446l-1.547.211a1.691,1.691,0,0,0-.61-1.125,2.236,2.236,0,0,0-1.429-.4,2.586,2.586,0,0,0-1.556.36,1.049,1.049,0,0,0-.466.844,0.873,0.873,0,0,0,.193.554,1.4,1.4,0,0,0,.606.422q0.237,0.088,1.4.4a19.47,19.47,0,0,1,2.343.734,2.375,2.375,0,0,1,1.041.831,2.318,2.318,0,0,1,.378,1.354,2.656,2.656,0,0,1-.461,1.49,2.984,2.984,0,0,1-1.332,1.081,4.847,4.847,0,0,1-1.969.382,4.384,4.384,0,0,1-2.772-.756A3.515,3.515,0,0,1,330.126,192.176Z" transform="translate(-8.074 -6.133)"/><path class="cls-4" d="M339.759,194.962V182.077h1.582V186.7a3.534,3.534,0,0,1,2.795-1.283,3.769,3.769,0,0,1,1.8.409,2.4,2.4,0,0,1,1.095,1.129,5.208,5.208,0,0,1,.329,2.092v5.915h-1.582v-5.915a2.444,2.444,0,0,0-.514-1.727,1.913,1.913,0,0,0-1.455-.541,2.563,2.563,0,0,0-1.322.365,2.061,2.061,0,0,0-.884.989,4.541,4.541,0,0,0-.264,1.723v5.106h-1.582Z" transform="translate(-8.074 -6.133)"/><polygon class="cls-5" points="176.27 4.858 251.27 138.443 176.27 272.028 176.27 4.858"/><path class="cls-6" d="M18.1,208.924l0.5-1.989a6.7,6.7,0,0,1,3.737,2.251,6.2,6.2,0,0,1,1.286,3.973,7.134,7.134,0,0,1-.989,3.953,6.166,6.166,0,0,1-2.866,2.317,10.211,10.211,0,0,1-4.029.795,8.854,8.854,0,0,1-4.1-.9,6.142,6.142,0,0,1-2.655-2.553,7.456,7.456,0,0,1-.908-3.646,6.169,6.169,0,0,1,1.148-3.794,5.969,5.969,0,0,1,3.23-2.143l0.461,1.958a4.648,4.648,0,0,0-2.389,1.518,4.044,4.044,0,0,0-.748,2.5,4.858,4.858,0,0,0,.83,2.9,4.382,4.382,0,0,0,2.23,1.636,8.978,8.978,0,0,0,2.887.472,9.173,9.173,0,0,0,3.348-.559,4.165,4.165,0,0,0,2.138-1.738,4.875,4.875,0,0,0,.708-2.553,4.274,4.274,0,0,0-.965-2.83A4.928,4.928,0,0,0,18.1,208.924Z" transform="translate(-8.074 -6.133)"/><path class="cls-6" d="M23.373,204.566H8.341v-1.989H21.6v-7.4h1.773v9.393Z" transform="translate(-8.074 -6.133)"/><path class="cls-6" d="M23.373,192.467H8.341v-1.989H23.373v1.989Z" transform="translate(-8.074 -6.133)"/><path class="cls-6" d="M23.373,186.93H8.341V176.061h1.774v8.88h4.6v-8.316h1.764v8.316H21.6v-9.229h1.773V186.93Z" transform="translate(-8.074 -6.133)"/><path class="cls-6" d="M23.373,172.984H8.341v-2.041l11.8-7.9H8.341v-1.907H23.373v2.041l-11.812,7.9H23.373v1.907Z" transform="translate(-8.074 -6.133)"/><path class="cls-6" d="M23.373,153.974H10.115v4.953H8.341V147.011h1.774v4.973H23.373v1.989Z" transform="translate(-8.074 -6.133)"/><path class="cls-6" d="M17.477,132.481H15.713l-0.01-6.368h5.578a11.258,11.258,0,0,1,1.759,3.025,8.981,8.981,0,0,1,.589,3.2,8.528,8.528,0,0,1-.948,4.024,6.261,6.261,0,0,1-2.743,2.733,8.631,8.631,0,0,1-4.009.923,9.306,9.306,0,0,1-4.1-.917,6.1,6.1,0,0,1-2.824-2.641,8.275,8.275,0,0,1-.924-3.968,7.871,7.871,0,0,1,.528-2.948,4.893,4.893,0,0,1,1.472-2.066,6.527,6.527,0,0,1,2.461-1.138l0.492,1.794a5.554,5.554,0,0,0-1.8.841,3.445,3.445,0,0,0-1.051,1.436,5.256,5.256,0,0,0-.395,2.071,6.09,6.09,0,0,0,.415,2.358,4.39,4.39,0,0,0,1.092,1.6,5.2,5.2,0,0,0,1.487.949,7.865,7.865,0,0,0,3.024.574,7.346,7.346,0,0,0,3.363-.692,4.432,4.432,0,0,0,2.01-2.015,6.238,6.238,0,0,0,.656-2.81,6.684,6.684,0,0,0-.5-2.522,6.521,6.521,0,0,0-1.062-1.866h-2.8v4.419Z" transform="translate(-8.074 -6.133)"/><path class="cls-6" d="M16.052,123.786a8.17,8.17,0,0,1-5.86-2.01,6.835,6.835,0,0,1-2.117-5.188,7.207,7.207,0,0,1,.994-3.753,6.5,6.5,0,0,1,2.774-2.548,9.013,9.013,0,0,1,4.034-.876,8.857,8.857,0,0,1,4.092.923,6.3,6.3,0,0,1,2.732,2.615,7.465,7.465,0,0,1,.928,3.65,7.1,7.1,0,0,1-1.025,3.794,6.592,6.592,0,0,1-2.8,2.533A8.484,8.484,0,0,1,16.052,123.786Zm0.03-2.051a6.018,6.018,0,0,0,4.281-1.461,5.1,5.1,0,0,0-.016-7.362,6.384,6.384,0,0,0-4.48-1.451,7.7,7.7,0,0,0-3.2.621A4.77,4.77,0,0,0,10.54,113.9a4.926,4.926,0,0,0-.753,2.682,5.086,5.086,0,0,0,1.45,3.635Q12.689,121.736,16.082,121.735Z" transform="translate(-8.074 -6.133)"/><path class="cls-6" d="M23.373,108.5L8.341,102.725v-2.143l15.032-6.152V96.7L18.82,98.449v6.286l4.553,1.651V108.5ZM17.2,104.16v-5.1l-4.163,1.569q-1.9.718-3.117,1.066a19.163,19.163,0,0,1,2.871.81Z" transform="translate(-8.074 -6.133)"/><path class="cls-6" d="M23.373,92.922H8.341V90.933H21.6v-7.4h1.773v9.393Z" transform="translate(-8.074 -6.133)"/><path class="cls-6" d="M18.543,81.837L18.379,79.96a4.127,4.127,0,0,0,1.852-.62A3.386,3.386,0,0,0,21.4,77.827a5.73,5.73,0,0,0,.446-2.307,5.528,5.528,0,0,0-.339-2.01,2.788,2.788,0,0,0-.928-1.3,2.151,2.151,0,0,0-1.287-.426,1.955,1.955,0,0,0-1.235.41,3.034,3.034,0,0,0-.887,1.354,26.351,26.351,0,0,0-.733,2.676,13.687,13.687,0,0,1-.938,2.9,4.068,4.068,0,0,1-1.4,1.6,3.428,3.428,0,0,1-1.872.528,3.812,3.812,0,0,1-2.127-.646,3.987,3.987,0,0,1-1.5-1.887,7.152,7.152,0,0,1-.514-2.758,7.529,7.529,0,0,1,.539-2.948,4.256,4.256,0,0,1,1.584-1.964,4.567,4.567,0,0,1,2.369-.738l0.143,1.908a3.074,3.074,0,0,0-2.152,1.04,4.053,4.053,0,0,0-.729,2.62,4.206,4.206,0,0,0,.661,2.63,1.983,1.983,0,0,0,1.595.825,1.709,1.709,0,0,0,1.333-.584,7.914,7.914,0,0,0,1.071-3,19.861,19.861,0,0,1,.959-3.327A4.556,4.556,0,0,1,16.99,70.5a3.733,3.733,0,0,1,2.138-.626,4.087,4.087,0,0,1,2.261.688,4.527,4.527,0,0,1,1.651,1.974,6.889,6.889,0,0,1,.589,2.9,8.662,8.662,0,0,1-.594,3.419,4.789,4.789,0,0,1-1.79,2.164A5.074,5.074,0,0,1,18.543,81.837Z" transform="translate(-8.074 -6.133)"/><line class="cls-7" x1="9.013" y1="54.176" x2="9.013" y2="0.5"/><line class="cls-7" x1="9.013" y1="277.359" x2="9.013" y2="223.683"/></svg>