<svg id="Layer_1" data-name="Layer 1" xmlns="http://www.w3.org/2000/svg" viewBox="0 0 880.32 189.116"><defs><style>.cls-1{fill:none;stroke:#b7b7b7;}.cls-1,.cls-12,.cls-3,.cls-8{stroke-miterlimit:10;}.cls-12,.cls-2{fill:#5997c1;}.cls-3{fill:#45b64b;}.cls-3,.cls-5{stroke:#45b64b;}.cls-4{fill:#fff;}.cls-10,.cls-13,.cls-5{fill:#828282;stroke-width:3px;}.cls-6{fill:#45b64c;}.cls-7{fill:#af6f29;}.cls-11,.cls-8{fill:#8c4343;}.cls-10,.cls-8{stroke:#8c4343;}.cls-9{fill:#144268;}.cls-12,.cls-13{stroke:#5997c1;}</style></defs><title>The_Impact_of_Time</title><rect class="cls-1" x="83.011" y="0.5" width="796.808" height="82.581"/><rect class="cls-2" x="325.087" y="17.231" width="148.21" height="47.073"/><polygon class="cls-3" points="316.884 42.199 298.681 24.41 298.858 60.168 316.884 42.199"/><path class="cls-4" d="M372.21,52.4h-4.725V51.508l4.494-6.718h1.515v6.52h1.433V52.4h-1.433v2.9H372.21V52.4Zm0-1.086V48.264c0-.56.05-1.465,0.083-2.025h-0.066c-0.264.51-.56,0.971-0.856,1.481l-2.453,3.589h3.293Z" transform="translate(-9.493 -10.009)"/><path class="cls-4" d="M375.8,54.059l0.659-.889a3.573,3.573,0,0,0,2.65,1.2,2.267,2.267,0,0,0,2.306-2.4,2.111,2.111,0,0,0-2.239-2.305,2.957,2.957,0,0,0-1.795.642l-0.725-.461L377,44.79h5.252v1.169h-4.066l-0.28,3.112a3.23,3.23,0,0,1,1.614-.428,3.024,3.024,0,0,1,3.26,3.292,3.435,3.435,0,0,1-3.54,3.557A4.6,4.6,0,0,1,375.8,54.059Z" transform="translate(-9.493 -10.009)"/><path class="cls-4" d="M390.094,51.112l-3.243-6.618h1.466l1.4,3.045c0.346,0.791.675,1.548,1.037,2.354h0.065c0.379-.807.758-1.564,1.087-2.354l1.383-3.045h1.433l-3.243,6.618v4.182h-1.384V51.112Z" transform="translate(-9.493 -10.009)"/><path class="cls-4" d="M395.464,51.31c0-2.618,1.761-4.215,3.589-4.215,2.041,0,3.194,1.465,3.194,3.754a5.2,5.2,0,0,1-.05.774h-5.4a2.653,2.653,0,0,0,2.667,2.782,3.617,3.617,0,0,0,1.992-.625l0.478,0.889a4.767,4.767,0,0,1-2.634.823C397.16,55.492,395.464,53.928,395.464,51.31Zm5.6-.659c0-1.613-.725-2.486-1.976-2.486a2.471,2.471,0,0,0-2.306,2.486h4.281Z" transform="translate(-9.493 -10.009)"/><path class="cls-4" d="M403.731,53.22c0-1.745,1.5-2.618,4.906-3,0-1.021-.329-2.009-1.646-2.009a4.356,4.356,0,0,0-2.388.856l-0.526-.938a5.94,5.94,0,0,1,3.145-1.037c1.959,0,2.782,1.3,2.782,3.293v4.906h-1.119l-0.115-.955h-0.05a4.266,4.266,0,0,1-2.65,1.153A2.177,2.177,0,0,1,403.731,53.22Zm4.906,0.115V51.112c-2.667.33-3.59,0.988-3.59,2.009a1.239,1.239,0,0,0,1.416,1.284A3.243,3.243,0,0,0,408.637,53.335Z" transform="translate(-9.493 -10.009)"/><path class="cls-4" d="M412.524,47.293h1.12l0.115,1.449h0.049A2.739,2.739,0,0,1,416.08,47.1a1.99,1.99,0,0,1,.856.165l-0.264,1.186a2.234,2.234,0,0,0-.773-0.132c-0.676,0-1.482.494-2.025,1.844v5.137h-1.351v-8Z" transform="translate(-9.493 -10.009)"/><path class="cls-4" d="M417.349,54.389l0.675-.905a3.6,3.6,0,0,0,2.354.955,1.341,1.341,0,0,0,1.581-1.251c0-.823-0.955-1.186-1.828-1.515-1.136-.412-2.387-0.955-2.387-2.305,0-1.284,1.021-2.272,2.749-2.272A3.993,3.993,0,0,1,422.98,48l-0.643.856a2.969,2.969,0,0,0-1.827-.708,1.24,1.24,0,0,0-1.465,1.152c0,0.757.872,1.038,1.777,1.383,1.153,0.428,2.438.905,2.438,2.42,0,1.3-1.038,2.388-2.931,2.388A4.816,4.816,0,0,1,417.349,54.389Z" transform="translate(-9.493 -10.009)"/><path class="cls-4" d="M427.938,49.845c0-3.458,1.894-5.548,4.609-5.548s4.627,2.107,4.627,5.548c0,3.474-1.91,5.647-4.627,5.647S427.938,53.319,427.938,49.845Zm7.8,0c0-2.684-1.268-4.347-3.194-4.347s-3.193,1.663-3.193,4.347c0,2.7,1.268,4.445,3.193,4.445S435.742,52.545,435.742,49.845Z" transform="translate(-9.493 -10.009)"/><path class="cls-4" d="M439.366,53.681V43.572h1.351V53.78c0,0.428.181,0.593,0.379,0.593a1.124,1.124,0,0,0,.3-0.033l0.182,1.021a1.826,1.826,0,0,1-.774.132C439.778,55.492,439.366,54.85,439.366,53.681Z" transform="translate(-9.493 -10.009)"/><path class="cls-4" d="M442.989,51.31c0-2.6,1.646-4.215,3.475-4.215a3.3,3.3,0,0,1,2.239.922l-0.066-1.366V43.572H450V55.294h-1.119l-0.115-.938h-0.05a3.607,3.607,0,0,1-2.42,1.136C444.289,55.492,442.989,53.977,442.989,51.31Zm5.647,1.943V49.071a2.785,2.785,0,0,0-1.942-.839c-1.284,0-2.306,1.235-2.306,3.062,0,1.91.808,3.063,2.207,3.063A2.708,2.708,0,0,0,448.636,53.253Z" transform="translate(-9.493 -10.009)"/><line class="cls-5" x1="252.02" y1="42.522" x2="298.769" y2="42.289"/><rect class="cls-6" x="104.279" y="18.516" width="148.21" height="47.073"/><path class="cls-4" d="M146.461,55.057c3.161-3.145,4.939-5.038,4.939-6.734a1.86,1.86,0,0,0-1.992-2.058,3.094,3.094,0,0,0-2.239,1.268l-0.774-.773a4.123,4.123,0,0,1,3.178-1.6,2.918,2.918,0,0,1,3.145,3.1c0,1.976-1.794,3.935-4.281,6.536,0.576-.049,1.218-0.1,1.762-0.1h3.046v1.169h-6.783V55.057Z" transform="translate(-9.493 -10.009)"/><path class="cls-4" d="M154.4,54.629l0.659-.889a3.572,3.572,0,0,0,2.65,1.2,2.267,2.267,0,0,0,2.305-2.4,2.111,2.111,0,0,0-2.239-2.305,2.955,2.955,0,0,0-1.794.642l-0.725-.461L155.6,45.36h5.252v1.169h-4.067l-0.28,3.112a3.228,3.228,0,0,1,1.613-.428,3.024,3.024,0,0,1,3.26,3.292,3.435,3.435,0,0,1-3.54,3.557A4.6,4.6,0,0,1,154.4,54.629Z" transform="translate(-9.493 -10.009)"/><path class="cls-4" d="M168.691,51.682l-3.244-6.619h1.465l1.4,3.046c0.346,0.791.675,1.548,1.038,2.354h0.065c0.379-.807.758-1.564,1.087-2.354l1.383-3.046h1.433l-3.244,6.619v4.182h-1.383V51.682Z" transform="translate(-9.493 -10.009)"/><path class="cls-4" d="M174.06,51.88c0-2.618,1.762-4.215,3.589-4.215,2.042,0,3.194,1.465,3.194,3.754a5.27,5.27,0,0,1-.049.774h-5.4a2.654,2.654,0,0,0,2.667,2.782,3.618,3.618,0,0,0,1.992-.625l0.478,0.889a4.768,4.768,0,0,1-2.634.823C175.756,56.062,174.06,54.5,174.06,51.88Zm5.6-.659c0-1.613-.724-2.486-1.976-2.486a2.471,2.471,0,0,0-2.3,2.486h4.28Z" transform="translate(-9.493 -10.009)"/><path class="cls-4" d="M182.327,53.789c0-1.745,1.5-2.618,4.907-3,0-1.021-.33-2.009-1.646-2.009a4.354,4.354,0,0,0-2.388.856l-0.527-.938a5.941,5.941,0,0,1,3.145-1.037c1.959,0,2.782,1.3,2.782,3.293v4.906h-1.12l-0.115-.955h-0.049a4.267,4.267,0,0,1-2.651,1.153A2.178,2.178,0,0,1,182.327,53.789Zm4.907,0.115V51.682c-2.667.33-3.589,0.988-3.589,2.009a1.239,1.239,0,0,0,1.416,1.284A3.243,3.243,0,0,0,187.234,53.9Z" transform="translate(-9.493 -10.009)"/><path class="cls-4" d="M191.12,47.863h1.12l0.115,1.449H192.4a2.737,2.737,0,0,1,2.272-1.646,1.99,1.99,0,0,1,.856.165l-0.264,1.186a2.233,2.233,0,0,0-.774-0.132c-0.675,0-1.481.494-2.025,1.844v5.137h-1.35v-8Z" transform="translate(-9.493 -10.009)"/><path class="cls-4" d="M195.946,54.958l0.675-.905a3.6,3.6,0,0,0,2.354.955,1.34,1.34,0,0,0,1.581-1.251c0-.823-0.955-1.186-1.827-1.515-1.136-.412-2.388-0.955-2.388-2.305,0-1.284,1.021-2.272,2.75-2.272a3.994,3.994,0,0,1,2.486.906l-0.642.856a2.972,2.972,0,0,0-1.828-.708,1.24,1.24,0,0,0-1.465,1.152c0,0.757.873,1.038,1.778,1.383,1.152,0.428,2.437.905,2.437,2.42,0,1.3-1.037,2.388-2.931,2.388A4.815,4.815,0,0,1,195.946,54.958Z" transform="translate(-9.493 -10.009)"/><path class="cls-4" d="M206.534,50.414c0-3.458,1.894-5.548,4.61-5.548s4.626,2.107,4.626,5.548c0,3.474-1.91,5.647-4.626,5.647S206.534,53.889,206.534,50.414Zm7.8,0c0-2.684-1.268-4.347-3.194-4.347s-3.194,1.663-3.194,4.347c0,2.7,1.268,4.445,3.194,4.445S214.338,53.115,214.338,50.414Z" transform="translate(-9.493 -10.009)"/><path class="cls-4" d="M217.962,54.251V44.141h1.35V54.349c0,0.428.181,0.593,0.378,0.593a1.124,1.124,0,0,0,.3-0.033l0.181,1.021a1.822,1.822,0,0,1-.774.132C218.374,56.062,217.962,55.42,217.962,54.251Z" transform="translate(-9.493 -10.009)"/><path class="cls-4" d="M221.585,51.88c0-2.6,1.646-4.215,3.474-4.215a3.3,3.3,0,0,1,2.239.922l-0.066-1.366V44.141H228.6V55.864h-1.12l-0.115-.938h-0.049a3.609,3.609,0,0,1-2.42,1.136C222.886,56.062,221.585,54.547,221.585,51.88Zm5.647,1.943V49.64a2.785,2.785,0,0,0-1.943-.839c-1.284,0-2.3,1.235-2.3,3.062,0,1.91.807,3.063,2.206,3.063A2.707,2.707,0,0,0,227.232,53.823Z" transform="translate(-9.493 -10.009)"/><path class="cls-7" d="M10.069,55.69l1.383-1.663a4.35,4.35,0,0,0,2.65,1.12c1,0,1.5-.4,1.5-1.037,0-.675-0.609-0.889-1.548-1.284l-1.4-.593A3.129,3.129,0,0,1,10.5,49.3c0-1.778,1.581-3.194,3.82-3.194a4.97,4.97,0,0,1,3.458,1.416l-1.235,1.531a3.481,3.481,0,0,0-2.223-.856,1.124,1.124,0,0,0-1.367.971c0,0.659.708,0.889,1.63,1.268L15.963,51a2.96,2.96,0,0,1,2.124,2.914c0,1.778-1.482,3.326-4.05,3.326A5.877,5.877,0,0,1,10.069,55.69Z" transform="translate(-9.493 -10.009)"/><path class="cls-7" d="M19.242,52.957a4.1,4.1,0,0,1,4.248-4.281,3.608,3.608,0,0,1,2.388.873l-1.136,1.564a1.673,1.673,0,0,0-1.1-.478c-1.169,0-1.91.906-1.91,2.322s0.774,2.321,1.828,2.321a2.5,2.5,0,0,0,1.465-.593l0.955,1.581a4.078,4.078,0,0,1-2.7.972A3.933,3.933,0,0,1,19.242,52.957Z" transform="translate(-9.493 -10.009)"/><path class="cls-7" d="M26.932,52.957a4.011,4.011,0,0,1,3.853-4.281c2.321,0,3.474,1.7,3.474,3.918a5.316,5.316,0,0,1-.1,1.07H29.27a1.975,1.975,0,0,0,2.124,1.729,3.29,3.29,0,0,0,1.762-.543l0.807,1.465a5.34,5.34,0,0,1-2.9.922A3.981,3.981,0,0,1,26.932,52.957Zm5.269-.889a1.319,1.319,0,0,0-1.367-1.548,1.617,1.617,0,0,0-1.581,1.548H32.2Z" transform="translate(-9.493 -10.009)"/><path class="cls-7" d="M35.939,48.874h1.976l0.165,1.038h0.066a3.763,3.763,0,0,1,2.618-1.235c1.778,0,2.536,1.251,2.536,3.293V57.04h-2.42V52.282c0-1.185-.312-1.547-1-1.547a2.067,2.067,0,0,0-1.515.79V57.04h-2.42V48.874Z" transform="translate(-9.493 -10.009)"/><path class="cls-7" d="M44.98,54.768c0-1.712,1.367-2.651,4.594-2.98A1.129,1.129,0,0,0,48.289,50.6a4.342,4.342,0,0,0-2.157.741l-0.873-1.6a6.75,6.75,0,0,1,3.491-1.07c2.091,0,3.243,1.186,3.243,3.688V57.04H50.018l-0.165-.84H49.787a3.552,3.552,0,0,1-2.371,1.038A2.351,2.351,0,0,1,44.98,54.768Zm4.594-.1V53.237c-1.712.23-2.272,0.725-2.272,1.35a0.781,0.781,0,0,0,.938.774A1.816,1.816,0,0,0,49.574,54.67Z" transform="translate(-9.493 -10.009)"/><path class="cls-7" d="M54.037,48.874h1.976l0.165,1.433h0.066a2.735,2.735,0,0,1,2.321-1.63,2.351,2.351,0,0,1,.972.165l-0.4,2.091a3.061,3.061,0,0,0-.889-0.131,2.021,2.021,0,0,0-1.795,1.5V57.04h-2.42V48.874Z" transform="translate(-9.493 -10.009)"/><path class="cls-7" d="M60.393,46.4a1.406,1.406,0,1,1,1.4,1.268A1.281,1.281,0,0,1,60.393,46.4Zm0.2,2.469h2.42V57.04h-2.42V48.874Z" transform="translate(-9.493 -10.009)"/><path class="cls-7" d="M64.659,52.957a3.987,3.987,0,1,1,7.952,0A3.987,3.987,0,1,1,64.659,52.957Zm5.482,0c0-1.416-.51-2.322-1.5-2.322-1,0-1.5.906-1.5,2.322s0.494,2.321,1.5,2.321C69.631,55.279,70.141,54.373,70.141,52.957Z" transform="translate(-9.493 -10.009)"/><path class="cls-7" d="M79.759,46.306h2.915L86.032,57.04H83.463L82.8,54.489H79.528L78.869,57.04H76.4Zm0.264,6.29h2.289l-0.247-.988c-0.3-1.07-.593-2.338-0.873-3.458H81.125c-0.264,1.136-.543,2.387-0.84,3.458Z" transform="translate(-9.493 -10.009)"/><path class="cls-7" d="M9.493,59.1V58.275H85.935V59.1H9.493Z" transform="translate(-9.493 -10.009)"/><polygon class="cls-8" points="758.566 44.897 740.363 27.109 740.54 62.866 758.566 44.897"/><path class="cls-9" d="M783.807,60.781a7.012,7.012,0,0,1-3.728-1.61l1.355-2.1a5.035,5.035,0,0,0,3.028,1.229c1.187,0,1.716-.487,1.716-1.461,0-2.182-5.592-2.139-5.592-5.951a3.784,3.784,0,0,1,3.22-3.918V44.79h2.054V46.93a5.251,5.251,0,0,1,3.156,1.736l-1.567,1.779a3.245,3.245,0,0,0-2.309-1.059,1.291,1.291,0,0,0-1.567,1.355c0,2.012,5.592,1.843,5.592,5.888a3.914,3.914,0,0,1-3.3,4.066v2.2h-2.054V60.781Z" transform="translate(-9.493 -10.009)"/><path class="cls-9" d="M791.3,54.151c0-5.02,2.605-7.286,5.443-7.286a5.342,5.342,0,0,1,3.918,1.61l-1.631,1.864a3.086,3.086,0,0,0-2.1-.953c-1.482,0-2.669,1.059-2.774,4.193a3.786,3.786,0,0,1,2.689-1.419c2.309,0,4,1.313,4,4.151a4.326,4.326,0,0,1-4.469,4.511C793.78,60.823,791.3,58.874,791.3,54.151Zm6.714,2.161a1.656,1.656,0,0,0-1.758-1.949,2.38,2.38,0,0,0-2.033,1.334c0.275,2.118,1.165,2.8,2.1,2.8S798.015,57.837,798.015,56.312Z" transform="translate(-9.493 -10.009)"/><path class="cls-9" d="M802.523,59.213l1.651-1.864a2.994,2.994,0,0,0,2.076.953c1.5,0,2.668-1.059,2.774-4.193a3.787,3.787,0,0,1-2.69,1.419c-2.287,0-4-1.313-4-4.151a4.326,4.326,0,0,1,4.469-4.511c2.605,0,5.1,1.949,5.1,6.671,0,5.02-2.626,7.286-5.443,7.286A5.477,5.477,0,0,1,802.523,59.213Zm6.438-7.222c-0.275-2.118-1.145-2.8-2.1-2.8-0.911,0-1.7.656-1.7,2.181a1.671,1.671,0,0,0,1.779,1.949A2.329,2.329,0,0,0,808.961,51.991Z" transform="translate(-9.493 -10.009)"/><path class="cls-9" d="M813.279,58.938l1.4-1.97a4.324,4.324,0,0,0,2.9,1.334,2,2,0,0,0,2.267-2.1,1.936,1.936,0,0,0-2.118-2.076,3.183,3.183,0,0,0-1.99.678l-1.4-.89,0.382-6.8h7.624v2.626h-4.935l-0.233,2.521a3.374,3.374,0,0,1,1.5-.318,3.936,3.936,0,0,1,4.278,4.172,4.642,4.642,0,0,1-4.935,4.7A6.383,6.383,0,0,1,813.279,58.938Z" transform="translate(-9.493 -10.009)"/><path class="cls-9" d="M824.945,63.025c1.566-.55,2.414-1.524,2.393-2.583h-0.169a1.757,1.757,0,0,1-1.885-1.758,1.806,1.806,0,0,1,1.948-1.779c1.4,0,2.16,1.1,2.16,2.944a4.852,4.852,0,0,1-3.812,4.829Z" transform="translate(-9.493 -10.009)"/><path class="cls-9" d="M831.1,53.791c0-4.575,1.928-6.926,4.809-6.926s4.808,2.351,4.808,6.926-1.928,7.032-4.808,7.032S831.1,58.366,831.1,53.791Zm6.672,0c0-3.685-.8-4.511-1.863-4.511-1.038,0-1.864.826-1.864,4.511,0,3.664.826,4.617,1.864,4.617C836.972,58.409,837.777,57.455,837.777,53.791Z" transform="translate(-9.493 -10.009)"/><path class="cls-9" d="M841.967,58.917l1.44-1.97a4.261,4.261,0,0,0,2.943,1.355c1.313,0,2.182-.572,2.182-1.588,0-1.186-.7-1.927-3.621-1.927v-2.2c2.414,0,3.177-.72,3.177-1.8a1.433,1.433,0,0,0-1.652-1.482,3.736,3.736,0,0,0-2.521,1.186l-1.566-1.906a6.314,6.314,0,0,1,4.235-1.716c2.774,0,4.639,1.334,4.639,3.686a3.168,3.168,0,0,1-2.245,2.986v0.085a3.339,3.339,0,0,1,2.668,3.283c0,2.5-2.287,3.918-5,3.918A5.854,5.854,0,0,1,841.967,58.917Z" transform="translate(-9.493 -10.009)"/><path class="cls-9" d="M853.592,59.213l1.651-1.864a2.994,2.994,0,0,0,2.076.953c1.5,0,2.668-1.059,2.774-4.193a3.787,3.787,0,0,1-2.69,1.419c-2.287,0-4-1.313-4-4.151a4.326,4.326,0,0,1,4.469-4.511c2.605,0,5.1,1.949,5.1,6.671,0,5.02-2.626,7.286-5.443,7.286A5.477,5.477,0,0,1,853.592,59.213Zm6.438-7.222c-0.275-2.118-1.145-2.8-2.1-2.8-0.91,0-1.693.656-1.693,2.181a1.67,1.67,0,0,0,1.778,1.949A2.329,2.329,0,0,0,860.031,51.991Z" transform="translate(-9.493 -10.009)"/><line class="cls-10" x1="693.702" y1="45.22" x2="740.451" y2="44.988"/><rect class="cls-11" x="545.961" y="17.686" width="148.21" height="47.073"/><path class="cls-4" d="M588.142,55.4c3.161-3.145,4.939-5.038,4.939-6.734a1.86,1.86,0,0,0-1.992-2.058,3.1,3.1,0,0,0-2.239,1.268l-0.773-.773a4.121,4.121,0,0,1,3.178-1.6,2.918,2.918,0,0,1,3.145,3.1c0,1.976-1.795,3.935-4.28,6.536,0.576-.049,1.218-0.1,1.761-0.1h3.046V56.21h-6.783V55.4Z" transform="translate(-9.493 -10.009)"/><path class="cls-4" d="M596.079,54.975l0.659-.889a3.573,3.573,0,0,0,2.65,1.2,2.267,2.267,0,0,0,2.306-2.4,2.111,2.111,0,0,0-2.239-2.305,2.957,2.957,0,0,0-1.795.642l-0.725-.461,0.346-5.055h5.252v1.169h-4.066l-0.28,3.112a3.23,3.23,0,0,1,1.614-.428,3.024,3.024,0,0,1,3.26,3.292,3.435,3.435,0,0,1-3.54,3.557A4.6,4.6,0,0,1,596.079,54.975Z" transform="translate(-9.493 -10.009)"/><path class="cls-4" d="M610.372,52.028l-3.243-6.619H608.6l1.4,3.046c0.346,0.791.675,1.548,1.037,2.354H611.1c0.379-.807.758-1.564,1.087-2.354l1.383-3.046H615l-3.243,6.619V56.21h-1.384V52.028Z" transform="translate(-9.493 -10.009)"/><path class="cls-4" d="M615.743,52.225c0-2.618,1.761-4.215,3.589-4.215,2.041,0,3.194,1.465,3.194,3.754a5.2,5.2,0,0,1-.05.774h-5.4a2.653,2.653,0,0,0,2.667,2.782,3.617,3.617,0,0,0,1.992-.625l0.478,0.889a4.767,4.767,0,0,1-2.634.823C617.438,56.408,615.743,54.843,615.743,52.225Zm5.6-.659c0-1.613-.725-2.486-1.976-2.486a2.471,2.471,0,0,0-2.306,2.486h4.281Z" transform="translate(-9.493 -10.009)"/><path class="cls-4" d="M624.009,54.135c0-1.745,1.5-2.618,4.906-3,0-1.021-.329-2.009-1.646-2.009a4.356,4.356,0,0,0-2.388.856l-0.526-.938a5.936,5.936,0,0,1,3.145-1.037c1.959,0,2.782,1.3,2.782,3.293V56.21h-1.119l-0.115-.955H629a4.266,4.266,0,0,1-2.65,1.153A2.177,2.177,0,0,1,624.009,54.135Zm4.906,0.115V52.028c-2.667.33-3.59,0.988-3.59,2.009a1.239,1.239,0,0,0,1.416,1.284A3.243,3.243,0,0,0,628.915,54.25Z" transform="translate(-9.493 -10.009)"/><path class="cls-4" d="M632.8,48.208h1.12l0.115,1.449h0.05a2.736,2.736,0,0,1,2.271-1.646,1.99,1.99,0,0,1,.856.165l-0.264,1.186a2.234,2.234,0,0,0-.773-0.132c-0.676,0-1.482.494-2.025,1.844V56.21H632.8v-8Z" transform="translate(-9.493 -10.009)"/><path class="cls-4" d="M637.627,55.3L638.3,54.4a3.6,3.6,0,0,0,2.354.955,1.341,1.341,0,0,0,1.581-1.251c0-.823-0.955-1.186-1.828-1.515-1.136-.412-2.387-0.955-2.387-2.305,0-1.284,1.021-2.272,2.749-2.272a3.993,3.993,0,0,1,2.486.906l-0.643.856a2.969,2.969,0,0,0-1.827-.708,1.24,1.24,0,0,0-1.465,1.152c0,0.757.872,1.038,1.777,1.383,1.153,0.428,2.438.905,2.438,2.42,0,1.3-1.038,2.388-2.931,2.388A4.816,4.816,0,0,1,637.627,55.3Z" transform="translate(-9.493 -10.009)"/><path class="cls-4" d="M648.216,50.76c0-3.458,1.894-5.548,4.609-5.548s4.627,2.107,4.627,5.548c0,3.474-1.91,5.647-4.627,5.647S648.216,54.234,648.216,50.76Zm7.8,0c0-2.684-1.268-4.347-3.194-4.347s-3.193,1.663-3.193,4.347c0,2.7,1.268,4.445,3.193,4.445S656.02,53.46,656.02,50.76Z" transform="translate(-9.493 -10.009)"/><path class="cls-4" d="M659.644,54.6V44.487h1.351V54.7c0,0.428.181,0.593,0.379,0.593a1.124,1.124,0,0,0,.3-0.033l0.182,1.021a1.826,1.826,0,0,1-.774.132C660.056,56.408,659.644,55.765,659.644,54.6Z" transform="translate(-9.493 -10.009)"/><path class="cls-4" d="M663.267,52.225c0-2.6,1.646-4.215,3.475-4.215a3.3,3.3,0,0,1,2.239.922l-0.066-1.366V44.487h1.366V56.21h-1.119l-0.115-.938H669a3.607,3.607,0,0,1-2.42,1.136C664.568,56.408,663.267,54.892,663.267,52.225Zm5.647,1.943V49.986a2.785,2.785,0,0,0-1.942-.839c-1.284,0-2.306,1.235-2.306,3.062,0,1.91.808,3.063,2.207,3.063A2.708,2.708,0,0,0,668.914,54.168Z" transform="translate(-9.493 -10.009)"/><polygon class="cls-12" points="537.893 42.315 519.689 24.527 519.867 60.284 537.893 42.315"/><line class="cls-13" x1="473.028" y1="42.638" x2="519.778" y2="42.406"/><rect class="cls-1" x="83.011" y="106.036" width="796.808" height="82.581"/><rect class="cls-2" x="325.086" y="122.767" width="148.21" height="47.073"/><path class="cls-4" d="M372.21,157.932h-4.725v-0.889l4.494-6.718h1.515v6.52h1.433v1.087h-1.433v2.9H372.21v-2.9Zm0-1.087V153.8c0-.56.05-1.465,0.083-2.025h-0.066c-0.264.51-.56,0.971-0.856,1.481l-2.453,3.589h3.293Z" transform="translate(-9.493 -10.009)"/><path class="cls-4" d="M375.8,159.6l0.659-.889a3.573,3.573,0,0,0,2.65,1.2,2.267,2.267,0,0,0,2.306-2.4,2.111,2.111,0,0,0-2.239-2.305,2.957,2.957,0,0,0-1.795.642l-0.725-.461L377,150.326h5.252v1.169h-4.066l-0.28,3.112a3.23,3.23,0,0,1,1.614-.428,3.024,3.024,0,0,1,3.26,3.292,3.435,3.435,0,0,1-3.54,3.557A4.6,4.6,0,0,1,375.8,159.6Z" transform="translate(-9.493 -10.009)"/><path class="cls-4" d="M390.094,156.648l-3.243-6.619h1.466l1.4,3.046c0.346,0.791.675,1.548,1.037,2.354h0.065c0.379-.807.758-1.564,1.087-2.354l1.383-3.046h1.433l-3.243,6.619v4.182h-1.384v-4.182Z" transform="translate(-9.493 -10.009)"/><path class="cls-4" d="M395.464,156.846c0-2.618,1.761-4.215,3.589-4.215,2.041,0,3.194,1.465,3.194,3.754a5.2,5.2,0,0,1-.05.774h-5.4a2.653,2.653,0,0,0,2.667,2.782,3.617,3.617,0,0,0,1.992-.625l0.478,0.889a4.767,4.767,0,0,1-2.634.823C397.16,161.028,395.464,159.463,395.464,156.846Zm5.6-.659c0-1.613-.725-2.486-1.976-2.486a2.471,2.471,0,0,0-2.306,2.486h4.281Z" transform="translate(-9.493 -10.009)"/><path class="cls-4" d="M403.731,158.755c0-1.745,1.5-2.618,4.906-3,0-1.021-.329-2.009-1.646-2.009a4.356,4.356,0,0,0-2.388.856l-0.526-.938a5.936,5.936,0,0,1,3.145-1.037c1.959,0,2.782,1.3,2.782,3.293v4.906h-1.119l-0.115-.955h-0.05a4.266,4.266,0,0,1-2.65,1.153A2.177,2.177,0,0,1,403.731,158.755Zm4.906,0.115v-2.223c-2.667.33-3.59,0.988-3.59,2.009a1.239,1.239,0,0,0,1.416,1.284A3.243,3.243,0,0,0,408.637,158.87Z" transform="translate(-9.493 -10.009)"/><path class="cls-4" d="M412.524,152.828h1.12l0.115,1.449h0.049a2.739,2.739,0,0,1,2.272-1.646,1.99,1.99,0,0,1,.856.165l-0.264,1.186a2.234,2.234,0,0,0-.773-0.132c-0.676,0-1.482.494-2.025,1.844v5.137h-1.351v-8Z" transform="translate(-9.493 -10.009)"/><path class="cls-4" d="M417.349,159.924l0.675-.905a3.6,3.6,0,0,0,2.354.955,1.341,1.341,0,0,0,1.581-1.251c0-.823-0.955-1.186-1.828-1.515-1.136-.412-2.387-0.955-2.387-2.305,0-1.284,1.021-2.272,2.749-2.272a3.993,3.993,0,0,1,2.486.906l-0.643.856a2.969,2.969,0,0,0-1.827-.708,1.24,1.24,0,0,0-1.465,1.152c0,0.757.872,1.038,1.777,1.383,1.153,0.428,2.438.905,2.438,2.42,0,1.3-1.038,2.388-2.931,2.388A4.816,4.816,0,0,1,417.349,159.924Z" transform="translate(-9.493 -10.009)"/><path class="cls-4" d="M427.938,155.38c0-3.458,1.894-5.548,4.609-5.548s4.627,2.107,4.627,5.548c0,3.474-1.91,5.647-4.627,5.647S427.938,158.854,427.938,155.38Zm7.8,0c0-2.684-1.268-4.347-3.194-4.347s-3.193,1.663-3.193,4.347c0,2.7,1.268,4.445,3.193,4.445S435.742,158.08,435.742,155.38Z" transform="translate(-9.493 -10.009)"/><path class="cls-4" d="M439.366,159.217V149.107h1.351v10.208c0,0.428.181,0.593,0.379,0.593a1.124,1.124,0,0,0,.3-0.033l0.182,1.021a1.826,1.826,0,0,1-.774.132C439.778,161.028,439.366,160.386,439.366,159.217Z" transform="translate(-9.493 -10.009)"/><path class="cls-4" d="M442.989,156.846c0-2.6,1.646-4.215,3.475-4.215a3.3,3.3,0,0,1,2.239.922l-0.066-1.366v-3.079H450V160.83h-1.119l-0.115-.938h-0.05a3.607,3.607,0,0,1-2.42,1.136C444.289,161.028,442.989,159.513,442.989,156.846Zm5.647,1.943v-4.182a2.785,2.785,0,0,0-1.942-.839c-1.284,0-2.306,1.235-2.306,3.062,0,1.91.808,3.063,2.207,3.063A2.708,2.708,0,0,0,448.636,158.788Z" transform="translate(-9.493 -10.009)"/><path class="cls-7" d="M10.069,161.226l1.383-1.663a4.35,4.35,0,0,0,2.65,1.12c1,0,1.5-.4,1.5-1.037,0-.675-0.609-0.889-1.548-1.284l-1.4-.593a3.129,3.129,0,0,1-2.157-2.931c0-1.778,1.581-3.194,3.82-3.194a4.97,4.97,0,0,1,3.458,1.416l-1.235,1.531a3.481,3.481,0,0,0-2.223-.856,1.124,1.124,0,0,0-1.367.971c0,0.659.708,0.889,1.63,1.268l1.383,0.56a2.96,2.96,0,0,1,2.124,2.914c0,1.778-1.482,3.326-4.05,3.326A5.877,5.877,0,0,1,10.069,161.226Z" transform="translate(-9.493 -10.009)"/><path class="cls-7" d="M19.242,158.493a4.1,4.1,0,0,1,4.248-4.281,3.608,3.608,0,0,1,2.388.873l-1.136,1.564a1.673,1.673,0,0,0-1.1-.478c-1.169,0-1.91.906-1.91,2.322s0.774,2.321,1.828,2.321a2.5,2.5,0,0,0,1.465-.593l0.955,1.581a4.078,4.078,0,0,1-2.7.972A3.933,3.933,0,0,1,19.242,158.493Z" transform="translate(-9.493 -10.009)"/><path class="cls-7" d="M26.932,158.493a4.011,4.011,0,0,1,3.853-4.281c2.321,0,3.474,1.7,3.474,3.918a5.316,5.316,0,0,1-.1,1.07H29.27a1.975,1.975,0,0,0,2.124,1.729,3.29,3.29,0,0,0,1.762-.543l0.807,1.465a5.34,5.34,0,0,1-2.9.922A3.981,3.981,0,0,1,26.932,158.493ZM32.2,157.6a1.319,1.319,0,0,0-1.367-1.548,1.617,1.617,0,0,0-1.581,1.548H32.2Z" transform="translate(-9.493 -10.009)"/><path class="cls-7" d="M35.939,154.41h1.976l0.165,1.037h0.066a3.763,3.763,0,0,1,2.618-1.235c1.778,0,2.536,1.251,2.536,3.293v5.071h-2.42v-4.758c0-1.185-.312-1.547-1-1.547a2.067,2.067,0,0,0-1.515.79v5.516h-2.42V154.41Z" transform="translate(-9.493 -10.009)"/><path class="cls-7" d="M44.98,160.3c0-1.712,1.367-2.651,4.594-2.98a1.129,1.129,0,0,0-1.284-1.186,4.342,4.342,0,0,0-2.157.741l-0.873-1.6a6.75,6.75,0,0,1,3.491-1.07c2.091,0,3.243,1.186,3.243,3.688v4.676H50.018l-0.165-.84H49.787a3.552,3.552,0,0,1-2.371,1.038A2.351,2.351,0,0,1,44.98,160.3Zm4.594-.1v-1.432c-1.712.23-2.272,0.725-2.272,1.35a0.781,0.781,0,0,0,.938.774A1.815,1.815,0,0,0,49.574,160.2Z" transform="translate(-9.493 -10.009)"/><path class="cls-7" d="M54.037,154.41h1.976l0.165,1.432h0.066a2.735,2.735,0,0,1,2.321-1.63,2.351,2.351,0,0,1,.972.165l-0.4,2.091a3.061,3.061,0,0,0-.889-0.131,2.021,2.021,0,0,0-1.795,1.5v4.742h-2.42V154.41Z" transform="translate(-9.493 -10.009)"/><path class="cls-7" d="M60.393,151.94a1.406,1.406,0,1,1,1.4,1.268A1.281,1.281,0,0,1,60.393,151.94Zm0.2,2.47h2.42v8.166h-2.42V154.41Z" transform="translate(-9.493 -10.009)"/><path class="cls-7" d="M64.659,158.493a3.987,3.987,0,1,1,3.984,4.281A4,4,0,0,1,64.659,158.493Zm5.482,0c0-1.416-.51-2.322-1.5-2.322-1,0-1.5.906-1.5,2.322s0.494,2.321,1.5,2.321C69.631,160.814,70.141,159.909,70.141,158.493Z" transform="translate(-9.493 -10.009)"/><path class="cls-7" d="M77.766,151.841h3.672c2.223,0,3.951.609,3.951,2.667a2.487,2.487,0,0,1-1.4,2.321V156.9a2.431,2.431,0,0,1,1.926,2.519c0,2.19-1.844,3.161-4.166,3.161H77.766V151.841Zm3.557,4.3c1.185,0,1.7-.494,1.7-1.268,0-.84-0.543-1.153-1.68-1.153H80.187v2.42h1.136Zm0.23,4.561c1.317,0,1.992-.461,1.992-1.449,0-.938-0.659-1.317-1.992-1.317H80.187V160.7h1.367Z" transform="translate(-9.493 -10.009)"/><path class="cls-7" d="M9.493,164.634v-0.823H86.462v0.823H9.493Z" transform="translate(-9.493 -10.009)"/><polygon class="cls-8" points="758.566 150.433 740.363 132.644 740.54 168.402 758.566 150.433"/><path class="cls-9" d="M783.807,166.316a7.012,7.012,0,0,1-3.728-1.61l1.355-2.1a5.035,5.035,0,0,0,3.028,1.229c1.187,0,1.716-.487,1.716-1.461,0-2.182-5.592-2.139-5.592-5.951a3.784,3.784,0,0,1,3.22-3.918v-2.181h2.054v2.139a5.254,5.254,0,0,1,3.156,1.737l-1.567,1.779a3.245,3.245,0,0,0-2.309-1.059,1.291,1.291,0,0,0-1.567,1.355c0,2.012,5.592,1.843,5.592,5.888a3.914,3.914,0,0,1-3.3,4.066v2.2h-2.054v-2.118Z" transform="translate(-9.493 -10.009)"/><path class="cls-9" d="M797.4,155.282h-6.036v-2.626h9.361v1.906c-3.113,3.77-3.558,6.29-3.791,11.542H793.8C794.055,161.636,794.86,158.8,797.4,155.282Z" transform="translate(-9.493 -10.009)"/><path class="cls-9" d="M802.395,164.325c3.432-3.24,5.846-5.549,5.846-7.455a1.807,1.807,0,0,0-1.906-2.033,3.433,3.433,0,0,0-2.393,1.377l-1.694-1.673a5.7,5.7,0,0,1,4.511-2.139,4.126,4.126,0,0,1,4.447,4.278c0,2.266-2.117,4.681-4.3,6.968a20.849,20.849,0,0,1,2.245-.169h2.711V166.1h-9.468v-1.779Z" transform="translate(-9.493 -10.009)"/><path class="cls-9" d="M813.766,168.561c1.567-.551,2.414-1.525,2.393-2.584H815.99a1.757,1.757,0,0,1-1.885-1.758,1.806,1.806,0,0,1,1.948-1.779c1.4,0,2.16,1.1,2.16,2.944a4.852,4.852,0,0,1-3.812,4.829Z" transform="translate(-9.493 -10.009)"/><path class="cls-9" d="M819.926,159.327c0-4.575,1.928-6.926,4.808-6.926s4.809,2.351,4.809,6.926-1.928,7.031-4.809,7.031S819.926,163.9,819.926,159.327Zm6.672,0c0-3.685-.8-4.511-1.864-4.511-1.037,0-1.863.826-1.863,4.511,0,3.664.826,4.617,1.863,4.617C825.793,163.944,826.6,162.991,826.6,159.327Z" transform="translate(-9.493 -10.009)"/><path class="cls-9" d="M830.809,164.473l1.4-1.97a4.324,4.324,0,0,0,2.9,1.334,2,2,0,0,0,2.267-2.1,1.936,1.936,0,0,0-2.118-2.076,3.183,3.183,0,0,0-1.99.678l-1.4-.89,0.382-6.8h7.624v2.626h-4.935l-0.233,2.521a3.374,3.374,0,0,1,1.5-.318,3.936,3.936,0,0,1,4.278,4.172,4.641,4.641,0,0,1-4.935,4.7A6.383,6.383,0,0,1,830.809,164.473Z" transform="translate(-9.493 -10.009)"/><path class="cls-9" d="M842.285,164.325c3.432-3.24,5.846-5.549,5.846-7.455a1.807,1.807,0,0,0-1.906-2.033,3.433,3.433,0,0,0-2.393,1.377l-1.694-1.673a5.694,5.694,0,0,1,4.511-2.139,4.126,4.126,0,0,1,4.447,4.278c0,2.266-2.117,4.681-4.3,6.968a20.849,20.849,0,0,1,2.245-.169h2.711V166.1h-9.468v-1.779Z" transform="translate(-9.493 -10.009)"/><line class="cls-10" x1="693.702" y1="150.756" x2="740.451" y2="150.523"/><rect class="cls-11" x="545.96" y="123.222" width="148.21" height="47.073"/><path class="cls-4" d="M588.142,160.939c3.161-3.145,4.939-5.038,4.939-6.734a1.86,1.86,0,0,0-1.992-2.058,3.1,3.1,0,0,0-2.239,1.268l-0.773-.773a4.121,4.121,0,0,1,3.178-1.6,2.918,2.918,0,0,1,3.145,3.1c0,1.976-1.795,3.935-4.28,6.536,0.576-.049,1.218-0.1,1.761-0.1h3.046v1.169h-6.783v-0.807Z" transform="translate(-9.493 -10.009)"/><path class="cls-4" d="M596.079,160.511l0.659-.889a3.573,3.573,0,0,0,2.65,1.2,2.267,2.267,0,0,0,2.306-2.4,2.111,2.111,0,0,0-2.239-2.305,2.957,2.957,0,0,0-1.795.642l-0.725-.461,0.346-5.055h5.252v1.169h-4.066l-0.28,3.112a3.23,3.23,0,0,1,1.614-.428,3.024,3.024,0,0,1,3.26,3.292,3.435,3.435,0,0,1-3.54,3.557A4.6,4.6,0,0,1,596.079,160.511Z" transform="translate(-9.493 -10.009)"/><path class="cls-4" d="M610.372,157.563l-3.243-6.618H608.6l1.4,3.045c0.346,0.791.675,1.548,1.037,2.354H611.1c0.379-.807.758-1.564,1.087-2.354l1.383-3.045H615l-3.243,6.618v4.182h-1.384v-4.182Z" transform="translate(-9.493 -10.009)"/><path class="cls-4" d="M615.743,157.761c0-2.618,1.761-4.215,3.589-4.215,2.041,0,3.194,1.465,3.194,3.754a5.2,5.2,0,0,1-.05.774h-5.4a2.653,2.653,0,0,0,2.667,2.782,3.617,3.617,0,0,0,1.992-.625l0.478,0.889a4.767,4.767,0,0,1-2.634.823C617.438,161.943,615.743,160.379,615.743,157.761Zm5.6-.659c0-1.613-.725-2.486-1.976-2.486a2.471,2.471,0,0,0-2.306,2.486h4.281Z" transform="translate(-9.493 -10.009)"/><path class="cls-4" d="M624.009,159.671c0-1.745,1.5-2.618,4.906-3,0-1.021-.329-2.009-1.646-2.009a4.356,4.356,0,0,0-2.388.856l-0.526-.938a5.94,5.94,0,0,1,3.145-1.037c1.959,0,2.782,1.3,2.782,3.293v4.906h-1.119l-0.115-.955H629a4.266,4.266,0,0,1-2.65,1.153A2.177,2.177,0,0,1,624.009,159.671Zm4.906,0.115v-2.223c-2.667.33-3.59,0.988-3.59,2.009a1.239,1.239,0,0,0,1.416,1.284A3.243,3.243,0,0,0,628.915,159.786Z" transform="translate(-9.493 -10.009)"/><path class="cls-4" d="M632.8,153.744h1.12l0.115,1.449h0.05a2.736,2.736,0,0,1,2.271-1.646,1.99,1.99,0,0,1,.856.165l-0.264,1.186a2.234,2.234,0,0,0-.773-0.132c-0.676,0-1.482.494-2.025,1.844v5.137H632.8v-8Z" transform="translate(-9.493 -10.009)"/><path class="cls-4" d="M637.627,160.84l0.675-.905a3.6,3.6,0,0,0,2.354.955,1.341,1.341,0,0,0,1.581-1.251c0-.823-0.955-1.186-1.828-1.515-1.136-.412-2.387-0.955-2.387-2.305,0-1.284,1.021-2.272,2.749-2.272a3.993,3.993,0,0,1,2.486.906l-0.643.856a2.969,2.969,0,0,0-1.827-.708,1.24,1.24,0,0,0-1.465,1.152c0,0.757.872,1.038,1.777,1.383,1.153,0.428,2.438.905,2.438,2.42,0,1.3-1.038,2.388-2.931,2.388A4.816,4.816,0,0,1,637.627,160.84Z" transform="translate(-9.493 -10.009)"/><path class="cls-4" d="M648.216,156.3c0-3.458,1.894-5.548,4.609-5.548s4.627,2.107,4.627,5.548c0,3.474-1.91,5.647-4.627,5.647S648.216,159.77,648.216,156.3Zm7.8,0c0-2.684-1.268-4.347-3.194-4.347s-3.193,1.663-3.193,4.347c0,2.7,1.268,4.445,3.193,4.445S656.02,159,656.02,156.3Z" transform="translate(-9.493 -10.009)"/><path class="cls-4" d="M659.644,160.132V150.023h1.351v10.208c0,0.428.181,0.593,0.379,0.593a1.124,1.124,0,0,0,.3-0.033l0.182,1.021a1.826,1.826,0,0,1-.774.132C660.056,161.943,659.644,161.3,659.644,160.132Z" transform="translate(-9.493 -10.009)"/><path class="cls-4" d="M663.267,157.761c0-2.6,1.646-4.215,3.475-4.215a3.3,3.3,0,0,1,2.239.922l-0.066-1.366v-3.079h1.366v11.723h-1.119l-0.115-.938H669a3.607,3.607,0,0,1-2.42,1.136C664.568,161.943,663.267,160.429,663.267,157.761Zm5.647,1.943v-4.182a2.785,2.785,0,0,0-1.942-.839c-1.284,0-2.306,1.235-2.306,3.062,0,1.91.808,3.063,2.207,3.063A2.708,2.708,0,0,0,668.914,159.7Z" transform="translate(-9.493 -10.009)"/><polygon class="cls-12" points="537.892 147.851 519.689 130.062 519.866 165.82 537.892 147.851"/><line class="cls-13" x1="473.028" y1="148.173" x2="519.778" y2="147.941"/></svg>