<svg id="Layer_1" data-name="Layer 1" xmlns="http://www.w3.org/2000/svg" viewBox="0 0 620.888 367.593"><defs><style>.cls-1{fill:#e2d8a8;}.cls-2{fill:#231f20;}.cls-3{fill:none;stroke:#a09f9f;stroke-miterlimit:10;}.cls-4{fill:#478cca;}</style></defs><title>The_Next_Level</title><rect class="cls-1" x="65.296" y="49.843" width="555.373" height="270.718"/><path class="cls-2" d="M7.832,21.406V9.972H12.9a6.753,6.753,0,0,1,2.324.308A2.545,2.545,0,0,1,16.5,11.369a3.246,3.246,0,0,1,.476,1.723,2.876,2.876,0,0,1-.788,2.051A3.983,3.983,0,0,1,13.751,16.2a3.936,3.936,0,0,1,.912.569,7.865,7.865,0,0,1,1.256,1.521l1.989,3.112H16l-1.513-2.379Q13.829,18,13.4,17.452a3.44,3.44,0,0,0-.768-0.764,2.277,2.277,0,0,0-.69-0.3,4.52,4.52,0,0,0-.842-0.055H9.344v5.077H7.832Zm1.513-6.387H12.6a4.874,4.874,0,0,0,1.622-.215,1.723,1.723,0,0,0,.889-0.686,1.857,1.857,0,0,0,.3-1.026,1.7,1.7,0,0,0-.589-1.333,2.757,2.757,0,0,0-1.86-.522H9.344v3.783Z" transform="translate(-7.832 -9.777)"/><path class="cls-2" d="M19.171,11.587V9.972h1.4v1.615h-1.4Zm0,9.819V13.123h1.4v8.283h-1.4Z" transform="translate(-7.832 -9.777)"/><path class="cls-2" d="M22.15,18.933l1.388-.218a1.942,1.942,0,0,0,.651,1.279,2.269,2.269,0,0,0,1.494.444,2.194,2.194,0,0,0,1.435-.394,1.178,1.178,0,0,0,.468-0.924,0.852,0.852,0,0,0-.414-0.749,6.069,6.069,0,0,0-1.435-.476,13.067,13.067,0,0,1-2.141-.674,2.043,2.043,0,0,1-1.213-1.9,2.131,2.131,0,0,1,.254-1.026,2.269,2.269,0,0,1,.69-0.784,2.906,2.906,0,0,1,.893-0.41,4.263,4.263,0,0,1,1.213-.167,4.8,4.8,0,0,1,1.712.281,2.327,2.327,0,0,1,1.088.76,2.973,2.973,0,0,1,.483,1.283l-1.373.187a1.5,1.5,0,0,0-.542-1,1.984,1.984,0,0,0-1.268-.359,2.293,2.293,0,0,0-1.38.32,0.932,0.932,0,0,0-.413.749,0.775,0.775,0,0,0,.171.491,1.234,1.234,0,0,0,.538.375q0.211,0.078,1.24.359a17.387,17.387,0,0,1,2.078.651,2.114,2.114,0,0,1,.924.737,2.057,2.057,0,0,1,.335,1.2,2.358,2.358,0,0,1-.41,1.322,2.65,2.65,0,0,1-1.181.959,4.3,4.3,0,0,1-1.747.339,3.893,3.893,0,0,1-2.461-.67A3.122,3.122,0,0,1,22.15,18.933Z" transform="translate(-7.832 -9.777)"/><path class="cls-2" d="M30.706,21.406V9.972h1.4v6.52l3.323-3.369h1.817L34.083,16.2l3.486,5.21H35.837L33.1,17.171l-0.991.952v3.283h-1.4Z" transform="translate(-7.832 -9.777)"/><path class="cls-2" d="M37.631,21.6L40.946,9.777h1.123L38.762,21.6H37.631Z" transform="translate(-7.832 -9.777)"/><path class="cls-2" d="M43.325,21.406V9.972h5.069a6.753,6.753,0,0,1,2.324.308,2.545,2.545,0,0,1,1.271,1.088,3.246,3.246,0,0,1,.476,1.723,2.876,2.876,0,0,1-.788,2.051A3.983,3.983,0,0,1,49.244,16.2a3.936,3.936,0,0,1,.912.569,7.865,7.865,0,0,1,1.256,1.521L53.4,21.406H51.5l-1.513-2.379Q49.322,18,48.893,17.452a3.44,3.44,0,0,0-.768-0.764,2.277,2.277,0,0,0-.69-0.3,4.52,4.52,0,0,0-.842-0.055H44.837v5.077H43.325Zm1.513-6.387H48.09a4.874,4.874,0,0,0,1.622-.215,1.723,1.723,0,0,0,.889-0.686,1.857,1.857,0,0,0,.3-1.026,1.7,1.7,0,0,0-.589-1.333,2.757,2.757,0,0,0-1.86-.522H44.837v3.783Z" transform="translate(-7.832 -9.777)"/><path class="cls-2" d="M60.326,18.738l1.451,0.18a3.541,3.541,0,0,1-1.271,1.973,4.308,4.308,0,0,1-5.253-.417,4.374,4.374,0,0,1-1.064-3.139,4.578,4.578,0,0,1,1.076-3.244,3.644,3.644,0,0,1,2.792-1.154,3.542,3.542,0,0,1,2.714,1.131,4.494,4.494,0,0,1,1.053,3.182c0,0.083,0,.208-0.008.374H55.639a3.18,3.18,0,0,0,.772,2.09,2.3,2.3,0,0,0,1.731.725,2.146,2.146,0,0,0,1.318-.405A2.7,2.7,0,0,0,60.326,18.738Zm-4.609-2.27h4.625a2.809,2.809,0,0,0-.53-1.567,2.152,2.152,0,0,0-1.739-.811,2.23,2.23,0,0,0-1.626.647A2.56,2.56,0,0,0,55.717,16.469Z" transform="translate(-7.832 -9.777)"/><path class="cls-2" d="M65.068,21.406l-2.535-8.283h1.451L65.3,17.9l0.491,1.778q0.031-.133.429-1.708l1.318-4.851h1.443l1.24,4.8,0.413,1.583,0.476-1.6,1.419-4.789H73.9l-2.589,8.283H69.849l-1.318-4.96-0.32-1.412-1.677,6.372H65.068Z" transform="translate(-7.832 -9.777)"/><path class="cls-2" d="M80.479,20.384a5.221,5.221,0,0,1-1.5.936,4.335,4.335,0,0,1-1.548.273,3.012,3.012,0,0,1-2.1-.667,2.2,2.2,0,0,1-.733-1.7,2.265,2.265,0,0,1,.277-1.111A2.29,2.29,0,0,1,75.6,17.3a3.407,3.407,0,0,1,1.01-.46,10,10,0,0,1,1.248-.21,12.853,12.853,0,0,0,2.5-.483c0-.192.008-0.315,0.008-0.367a1.55,1.55,0,0,0-.4-1.209,2.351,2.351,0,0,0-1.6-.476,2.478,2.478,0,0,0-1.462.347,2.119,2.119,0,0,0-.7,1.228l-1.373-.187a3.4,3.4,0,0,1,.616-1.423,2.7,2.7,0,0,1,1.24-.834,5.532,5.532,0,0,1,1.879-.292,4.972,4.972,0,0,1,1.724.25,2.274,2.274,0,0,1,.975.628,2.211,2.211,0,0,1,.437.956,7.884,7.884,0,0,1,.07,1.294v1.872a19.952,19.952,0,0,0,.089,2.477,3.116,3.116,0,0,0,.355.994H80.76A2.976,2.976,0,0,1,80.479,20.384Zm-0.117-3.135a10.3,10.3,0,0,1-2.293.53,5.3,5.3,0,0,0-1.225.281,1.219,1.219,0,0,0-.554.456,1.242,1.242,0,0,0,.23,1.6,1.829,1.829,0,0,0,1.244.374,2.894,2.894,0,0,0,1.443-.355,2.183,2.183,0,0,0,.928-0.971,3.388,3.388,0,0,0,.227-1.4V17.249Z" transform="translate(-7.832 -9.777)"/><path class="cls-2" d="M83.942,21.406V13.123h1.264v1.256a3.425,3.425,0,0,1,.893-1.162,1.56,1.56,0,0,1,.9-0.281,2.74,2.74,0,0,1,1.442.452l-0.483,1.3a2,2,0,0,0-1.029-.3,1.336,1.336,0,0,0-.827.277,1.5,1.5,0,0,0-.522.768,5.458,5.458,0,0,0-.234,1.638v4.336h-1.4Z" transform="translate(-7.832 -9.777)"/><path class="cls-2" d="M94.65,21.406V20.361a2.576,2.576,0,0,1-2.316,1.232,3.249,3.249,0,0,1-1.821-.546,3.59,3.59,0,0,1-1.287-1.524,5.278,5.278,0,0,1-.456-2.25,5.883,5.883,0,0,1,.414-2.25,3.259,3.259,0,0,1,1.24-1.548,3.315,3.315,0,0,1,1.849-.538,2.763,2.763,0,0,1,2.285,1.139v-4.1h1.4V21.406h-1.3Zm-4.437-4.133a3.6,3.6,0,0,0,.671,2.378,2.021,2.021,0,0,0,1.583.788,1.984,1.984,0,0,0,1.563-.752,3.468,3.468,0,0,0,.644-2.3,3.893,3.893,0,0,0-.655-2.5,2.014,2.014,0,0,0-1.614-.8,1.945,1.945,0,0,0-1.563.764A3.771,3.771,0,0,0,90.212,17.272Z" transform="translate(-7.832 -9.777)"/><path class="cls-2" d="M102.8,21.406V9.972h5.069a6.753,6.753,0,0,1,2.324.308,2.545,2.545,0,0,1,1.271,1.088,3.246,3.246,0,0,1,.476,1.723,2.876,2.876,0,0,1-.788,2.051A3.983,3.983,0,0,1,108.72,16.2a3.936,3.936,0,0,1,.912.569,7.865,7.865,0,0,1,1.256,1.521l1.989,3.112h-1.9l-1.513-2.379Q108.8,18,108.369,17.452a3.44,3.44,0,0,0-.768-0.764,2.277,2.277,0,0,0-.69-0.3,4.52,4.52,0,0,0-.842-0.055h-1.755v5.077H102.8Zm1.513-6.387h3.252a4.874,4.874,0,0,0,1.622-.215,1.723,1.723,0,0,0,.889-0.686,1.857,1.857,0,0,0,.3-1.026,1.7,1.7,0,0,0-.589-1.333,2.757,2.757,0,0,0-1.86-.522h-3.619v3.783Z" transform="translate(-7.832 -9.777)"/><path class="cls-2" d="M119.8,18.738l1.451,0.18a3.541,3.541,0,0,1-1.271,1.973,4.308,4.308,0,0,1-5.253-.417,4.374,4.374,0,0,1-1.064-3.139,4.578,4.578,0,0,1,1.076-3.244,3.644,3.644,0,0,1,2.792-1.154,3.542,3.542,0,0,1,2.714,1.131,4.494,4.494,0,0,1,1.053,3.182c0,0.083,0,.208-0.008.374h-6.177a3.18,3.18,0,0,0,.772,2.09,2.3,2.3,0,0,0,1.731.725,2.146,2.146,0,0,0,1.318-.405A2.7,2.7,0,0,0,119.8,18.738Zm-4.609-2.27h4.625a2.809,2.809,0,0,0-.53-1.567,2.152,2.152,0,0,0-1.739-.811,2.23,2.23,0,0,0-1.626.647A2.56,2.56,0,0,0,115.193,16.469Z" transform="translate(-7.832 -9.777)"/><path class="cls-2" d="M122.984,21.406V9.972h1.4V21.406h-1.4Z" transform="translate(-7.832 -9.777)"/><path class="cls-2" d="M131.968,20.384a5.221,5.221,0,0,1-1.5.936,4.335,4.335,0,0,1-1.548.273,3.012,3.012,0,0,1-2.1-.667,2.2,2.2,0,0,1-.733-1.7,2.265,2.265,0,0,1,.277-1.111,2.29,2.29,0,0,1,.725-0.807,3.407,3.407,0,0,1,1.01-.46,10,10,0,0,1,1.248-.21,12.853,12.853,0,0,0,2.5-.483c0-.192.008-0.315,0.008-0.367a1.55,1.55,0,0,0-.4-1.209,2.351,2.351,0,0,0-1.6-.476,2.478,2.478,0,0,0-1.462.347,2.119,2.119,0,0,0-.7,1.228l-1.373-.187a3.4,3.4,0,0,1,.616-1.423,2.7,2.7,0,0,1,1.24-.834,5.532,5.532,0,0,1,1.879-.292,4.972,4.972,0,0,1,1.724.25,2.274,2.274,0,0,1,.975.628,2.211,2.211,0,0,1,.437.956,7.884,7.884,0,0,1,.07,1.294v1.872a19.952,19.952,0,0,0,.089,2.477,3.116,3.116,0,0,0,.355.994h-1.466A2.976,2.976,0,0,1,131.968,20.384Zm-0.117-3.135a10.3,10.3,0,0,1-2.293.53,5.3,5.3,0,0,0-1.225.281,1.219,1.219,0,0,0-.554.456,1.242,1.242,0,0,0,.23,1.6,1.829,1.829,0,0,0,1.244.374,2.894,2.894,0,0,0,1.443-.355,2.183,2.183,0,0,0,.928-0.971,3.388,3.388,0,0,0,.227-1.4V17.249Z" transform="translate(-7.832 -9.777)"/><path class="cls-2" d="M138.512,20.15l0.2,1.24a5.227,5.227,0,0,1-1.061.125,2.4,2.4,0,0,1-1.185-.242,1.349,1.349,0,0,1-.593-0.635,5.014,5.014,0,0,1-.172-1.657V14.215h-1.029V13.123H135.7V11.072l1.4-.842v2.893h1.412v1.092H137.1v4.843a2.452,2.452,0,0,0,.074.772,0.586,0.586,0,0,0,.242.273,0.938,0.938,0,0,0,.48.1A4.525,4.525,0,0,0,138.512,20.15Z" transform="translate(-7.832 -9.777)"/><path class="cls-2" d="M139.892,11.587V9.972h1.4v1.615h-1.4Zm0,9.819V13.123h1.4v8.283h-1.4Z" transform="translate(-7.832 -9.777)"/><path class="cls-2" d="M142.91,17.265a4.268,4.268,0,0,1,1.279-3.408,3.851,3.851,0,0,1,2.6-.92,3.716,3.716,0,0,1,2.792,1.119,4.258,4.258,0,0,1,1.084,3.092,5.477,5.477,0,0,1-.48,2.515,3.393,3.393,0,0,1-1.4,1.423,4.065,4.065,0,0,1-2,.507,3.723,3.723,0,0,1-2.812-1.115A4.454,4.454,0,0,1,142.91,17.265Zm1.443,0a3.526,3.526,0,0,0,.694,2.382,2.311,2.311,0,0,0,3.486,0,3.61,3.61,0,0,0,.694-2.425,3.422,3.422,0,0,0-.7-2.328,2.314,2.314,0,0,0-3.482,0A3.512,3.512,0,0,0,144.353,17.265Z" transform="translate(-7.832 -9.777)"/><path class="cls-2" d="M152.316,21.406V13.123h1.264V14.3a2.977,2.977,0,0,1,2.636-1.365,3.463,3.463,0,0,1,1.377.269,2.161,2.161,0,0,1,.939.706,2.712,2.712,0,0,1,.437,1.037,8.072,8.072,0,0,1,.078,1.365v5.093h-1.4V16.368a3.782,3.782,0,0,0-.164-1.283,1.35,1.35,0,0,0-.581-0.678,1.849,1.849,0,0,0-.979-0.253,2.275,2.275,0,0,0-1.548.569,2.808,2.808,0,0,0-.651,2.16v4.523h-1.4Z" transform="translate(-7.832 -9.777)"/><path class="cls-2" d="M160.638,18.933l1.388-.218a1.942,1.942,0,0,0,.651,1.279,2.269,2.269,0,0,0,1.494.444,2.194,2.194,0,0,0,1.435-.394,1.178,1.178,0,0,0,.468-0.924,0.852,0.852,0,0,0-.414-0.749,6.069,6.069,0,0,0-1.435-.476,13.067,13.067,0,0,1-2.141-.674,2.043,2.043,0,0,1-1.213-1.9,2.131,2.131,0,0,1,.254-1.026,2.269,2.269,0,0,1,.69-0.784,2.906,2.906,0,0,1,.893-0.41,4.263,4.263,0,0,1,1.213-.167,4.8,4.8,0,0,1,1.712.281,2.327,2.327,0,0,1,1.088.76,2.973,2.973,0,0,1,.483,1.283l-1.373.187a1.5,1.5,0,0,0-.542-1,1.984,1.984,0,0,0-1.268-.359,2.293,2.293,0,0,0-1.38.32,0.932,0.932,0,0,0-.413.749,0.775,0.775,0,0,0,.171.491,1.234,1.234,0,0,0,.538.375q0.211,0.078,1.24.359a17.387,17.387,0,0,1,2.078.651,2.114,2.114,0,0,1,.924.737,2.057,2.057,0,0,1,.335,1.2,2.358,2.358,0,0,1-.41,1.322,2.65,2.65,0,0,1-1.181.959,4.3,4.3,0,0,1-1.747.339,3.893,3.893,0,0,1-2.461-.67A3.122,3.122,0,0,1,160.638,18.933Z" transform="translate(-7.832 -9.777)"/><path class="cls-2" d="M169.186,21.406V9.972h1.4v4.1a3.136,3.136,0,0,1,2.48-1.139,3.346,3.346,0,0,1,1.6.363,2.129,2.129,0,0,1,.971,1,4.614,4.614,0,0,1,.292,1.856v5.249h-1.4V16.157a2.169,2.169,0,0,0-.456-1.533,1.7,1.7,0,0,0-1.291-.479,2.275,2.275,0,0,0-1.174.324,1.831,1.831,0,0,0-.784.877,4.037,4.037,0,0,0-.234,1.529v4.531h-1.4Z" transform="translate(-7.832 -9.777)"/><path class="cls-2" d="M178.077,11.587V9.972h1.4v1.615h-1.4Zm0,9.819V13.123h1.4v8.283h-1.4Z" transform="translate(-7.832 -9.777)"/><path class="cls-2" d="M181.617,24.58V13.123H182.9V14.2a3.148,3.148,0,0,1,1.021-.948,2.808,2.808,0,0,1,1.38-.316,3.276,3.276,0,0,1,1.872.546,3.351,3.351,0,0,1,1.224,1.541,5.616,5.616,0,0,1,.414,2.18,5.536,5.536,0,0,1-.457,2.289,3.468,3.468,0,0,1-3.154,2.1,2.639,2.639,0,0,1-1.26-.3,2.865,2.865,0,0,1-.917-0.749V24.58h-1.4Zm1.271-7.269a3.605,3.605,0,0,0,.647,2.363,1.985,1.985,0,0,0,1.568.764,2.028,2.028,0,0,0,1.6-.792,3.753,3.753,0,0,0,.667-2.453,3.66,3.66,0,0,0-.651-2.371,1.961,1.961,0,0,0-1.556-.788,2.023,2.023,0,0,0-1.587.838A3.753,3.753,0,0,0,182.889,17.311Z" transform="translate(-7.832 -9.777)"/><path class="cls-2" d="M195.055,21.406V9.972h4.29a5.315,5.315,0,0,1,2.1.347,2.707,2.707,0,0,1,1.24,1.068,2.82,2.82,0,0,1,.448,1.509,2.591,2.591,0,0,1-.4,1.38,2.843,2.843,0,0,1-1.2,1.045,2.984,2.984,0,0,1,1.595,1.037,2.779,2.779,0,0,1,.558,1.731,3.332,3.332,0,0,1-.339,1.493,2.886,2.886,0,0,1-.838,1.065,3.5,3.5,0,0,1-1.251.565,7.614,7.614,0,0,1-1.845.191h-4.359Zm1.513-6.629h2.473a5.524,5.524,0,0,0,1.443-.132,1.6,1.6,0,0,0,.87-0.569,1.641,1.641,0,0,0,.292-1,1.837,1.837,0,0,0-.273-1,1.382,1.382,0,0,0-.78-0.593,6.521,6.521,0,0,0-1.739-.16h-2.285v3.455Zm0,5.28h2.847a6.527,6.527,0,0,0,1.03-.055,2.471,2.471,0,0,0,.874-0.312,1.657,1.657,0,0,0,.577-0.636,1.992,1.992,0,0,0,.226-0.963,1.9,1.9,0,0,0-.328-1.111,1.729,1.729,0,0,0-.909-0.663,5.631,5.631,0,0,0-1.673-.191h-2.644v3.931Z" transform="translate(-7.832 -9.777)"/><path class="cls-2" d="M211.261,18.738l1.451,0.18a3.541,3.541,0,0,1-1.271,1.973,4.308,4.308,0,0,1-5.253-.417,4.374,4.374,0,0,1-1.064-3.139A4.578,4.578,0,0,1,206.2,14.09a3.644,3.644,0,0,1,2.792-1.154,3.542,3.542,0,0,1,2.714,1.131,4.494,4.494,0,0,1,1.053,3.182c0,0.083,0,.208-0.008.374h-6.177a3.18,3.18,0,0,0,.772,2.09,2.3,2.3,0,0,0,1.731.725,2.146,2.146,0,0,0,1.318-.405A2.7,2.7,0,0,0,211.261,18.738Zm-4.609-2.27h4.625a2.809,2.809,0,0,0-.53-1.567,2.152,2.152,0,0,0-1.739-.811,2.23,2.23,0,0,0-1.626.647A2.56,2.56,0,0,0,206.652,16.469Z" transform="translate(-7.832 -9.777)"/><path class="cls-2" d="M217.54,20.15l0.2,1.24a5.227,5.227,0,0,1-1.061.125,2.4,2.4,0,0,1-1.185-.242,1.349,1.349,0,0,1-.593-0.635,5.014,5.014,0,0,1-.172-1.657V14.215H213.7V13.123h1.029V11.072l1.4-.842v2.893h1.412v1.092h-1.412v4.843a2.452,2.452,0,0,0,.074.772,0.586,0.586,0,0,0,.242.273,0.938,0.938,0,0,0,.48.1A4.525,4.525,0,0,0,217.54,20.15Z" transform="translate(-7.832 -9.777)"/><path class="cls-2" d="M220.441,21.406l-2.535-8.283h1.451l1.318,4.781,0.491,1.778q0.031-.133.429-1.708l1.318-4.851h1.443l1.24,4.8,0.413,1.583,0.476-1.6,1.419-4.789h1.365l-2.589,8.283h-1.458l-1.318-4.96-0.32-1.412-1.677,6.372h-1.466Z" transform="translate(-7.832 -9.777)"/><path class="cls-2" d="M236.117,18.738l1.451,0.18a3.541,3.541,0,0,1-1.271,1.973,4.308,4.308,0,0,1-5.253-.417,4.374,4.374,0,0,1-1.064-3.139,4.578,4.578,0,0,1,1.076-3.244,3.644,3.644,0,0,1,2.792-1.154,3.542,3.542,0,0,1,2.714,1.131,4.494,4.494,0,0,1,1.053,3.182c0,0.083,0,.208-0.008.374H231.43a3.18,3.18,0,0,0,.772,2.09,2.3,2.3,0,0,0,1.731.725,2.146,2.146,0,0,0,1.318-.405A2.7,2.7,0,0,0,236.117,18.738Zm-4.609-2.27h4.625a2.809,2.809,0,0,0-.53-1.567,2.152,2.152,0,0,0-1.739-.811,2.23,2.23,0,0,0-1.626.647A2.56,2.56,0,0,0,231.508,16.469Z" transform="translate(-7.832 -9.777)"/><path class="cls-2" d="M245,18.738l1.451,0.18a3.541,3.541,0,0,1-1.271,1.973,4.308,4.308,0,0,1-5.253-.417,4.374,4.374,0,0,1-1.064-3.139,4.578,4.578,0,0,1,1.076-3.244,3.644,3.644,0,0,1,2.792-1.154,3.542,3.542,0,0,1,2.714,1.131,4.494,4.494,0,0,1,1.053,3.182c0,0.083,0,.208-0.008.374h-6.177a3.18,3.18,0,0,0,.772,2.09,2.3,2.3,0,0,0,1.731.725,2.146,2.146,0,0,0,1.318-.405A2.7,2.7,0,0,0,245,18.738Zm-4.609-2.27h4.625a2.809,2.809,0,0,0-.53-1.567,2.152,2.152,0,0,0-1.739-.811,2.23,2.23,0,0,0-1.626.647A2.56,2.56,0,0,0,240.391,16.469Z" transform="translate(-7.832 -9.777)"/><path class="cls-2" d="M248.213,21.406V13.123h1.264V14.3a2.977,2.977,0,0,1,2.636-1.365,3.463,3.463,0,0,1,1.377.269,2.161,2.161,0,0,1,.939.706,2.712,2.712,0,0,1,.437,1.037,8.072,8.072,0,0,1,.078,1.365v5.093h-1.4V16.368a3.782,3.782,0,0,0-.164-1.283,1.35,1.35,0,0,0-.581-0.678,1.849,1.849,0,0,0-.979-0.253,2.275,2.275,0,0,0-1.548.569,2.808,2.808,0,0,0-.651,2.16v4.523h-1.4Z" transform="translate(-7.832 -9.777)"/><path class="cls-2" d="M259.577,21.406l4.391-11.434h1.63l4.679,11.434h-1.724l-1.333-3.463h-4.781l-1.256,3.463h-1.606Zm3.3-4.695h3.876l-1.193-3.167q-0.546-1.443-.811-2.371a14.563,14.563,0,0,1-.616,2.184Z" transform="translate(-7.832 -9.777)"/><path class="cls-2" d="M270.745,18.933l1.388-.218a1.942,1.942,0,0,0,.651,1.279,2.269,2.269,0,0,0,1.494.444,2.194,2.194,0,0,0,1.435-.394,1.178,1.178,0,0,0,.468-0.924,0.852,0.852,0,0,0-.414-0.749,6.069,6.069,0,0,0-1.435-.476,13.067,13.067,0,0,1-2.141-.674,2.043,2.043,0,0,1-1.213-1.9,2.131,2.131,0,0,1,.254-1.026,2.269,2.269,0,0,1,.69-0.784,2.906,2.906,0,0,1,.893-0.41,4.263,4.263,0,0,1,1.213-.167,4.8,4.8,0,0,1,1.712.281,2.327,2.327,0,0,1,1.088.76,2.973,2.973,0,0,1,.483,1.283l-1.373.187a1.5,1.5,0,0,0-.542-1,1.984,1.984,0,0,0-1.268-.359,2.293,2.293,0,0,0-1.38.32,0.932,0.932,0,0,0-.413.749,0.775,0.775,0,0,0,.171.491,1.234,1.234,0,0,0,.538.375q0.211,0.078,1.24.359a17.387,17.387,0,0,1,2.078.651,2.114,2.114,0,0,1,.924.737,2.056,2.056,0,0,1,.335,1.2,2.357,2.357,0,0,1-.409,1.322,2.65,2.65,0,0,1-1.181.959,4.3,4.3,0,0,1-1.747.339,3.893,3.893,0,0,1-2.461-.67A3.122,3.122,0,0,1,270.745,18.933Z" transform="translate(-7.832 -9.777)"/><path class="cls-2" d="M278.731,18.933l1.389-.218a1.94,1.94,0,0,0,.651,1.279,2.267,2.267,0,0,0,1.493.444,2.192,2.192,0,0,0,1.435-.394,1.178,1.178,0,0,0,.469-0.924,0.854,0.854,0,0,0-.414-0.749,6.078,6.078,0,0,0-1.435-.476,13.057,13.057,0,0,1-2.141-.674,2.041,2.041,0,0,1-1.213-1.9,2.135,2.135,0,0,1,.253-1.026,2.275,2.275,0,0,1,.69-0.784,2.908,2.908,0,0,1,.893-0.41,4.263,4.263,0,0,1,1.213-.167,4.8,4.8,0,0,1,1.712.281,2.324,2.324,0,0,1,1.088.76,2.973,2.973,0,0,1,.484,1.283l-1.373.187a1.5,1.5,0,0,0-.542-1,1.983,1.983,0,0,0-1.268-.359,2.292,2.292,0,0,0-1.38.32,0.93,0.93,0,0,0-.414.749,0.775,0.775,0,0,0,.172.491,1.237,1.237,0,0,0,.538.375q0.211,0.078,1.24.359a17.357,17.357,0,0,1,2.078.651,2.115,2.115,0,0,1,.925.737,2.064,2.064,0,0,1,.335,1.2,2.361,2.361,0,0,1-.409,1.322,2.654,2.654,0,0,1-1.182.959,4.3,4.3,0,0,1-1.747.339,3.893,3.893,0,0,1-2.461-.67A3.12,3.12,0,0,1,278.731,18.933Z" transform="translate(-7.832 -9.777)"/><path class="cls-2" d="M292.949,18.738l1.451,0.18a3.547,3.547,0,0,1-1.271,1.973,4.308,4.308,0,0,1-5.253-.417,4.372,4.372,0,0,1-1.064-3.139,4.575,4.575,0,0,1,1.076-3.244,3.644,3.644,0,0,1,2.792-1.154,3.539,3.539,0,0,1,2.714,1.131,4.492,4.492,0,0,1,1.053,3.182c0,0.083,0,.208-0.008.374h-6.177a3.186,3.186,0,0,0,.772,2.09,2.3,2.3,0,0,0,1.731.725,2.149,2.149,0,0,0,1.318-.405A2.7,2.7,0,0,0,292.949,18.738Zm-4.609-2.27h4.625a2.809,2.809,0,0,0-.53-1.567,2.153,2.153,0,0,0-1.739-.811,2.23,2.23,0,0,0-1.626.647A2.562,2.562,0,0,0,288.34,16.469Z" transform="translate(-7.832 -9.777)"/><path class="cls-2" d="M299.228,20.15l0.2,1.24a5.211,5.211,0,0,1-1.061.125,2.4,2.4,0,0,1-1.186-.242,1.352,1.352,0,0,1-.593-0.635,5.036,5.036,0,0,1-.171-1.657V14.215h-1.029V13.123h1.029V11.072l1.4-.842v2.893h1.412v1.092h-1.412v4.843a2.437,2.437,0,0,0,.074.772,0.587,0.587,0,0,0,.242.273,0.934,0.934,0,0,0,.479.1A4.531,4.531,0,0,0,299.228,20.15Z" transform="translate(-7.832 -9.777)"/><path class="cls-2" d="M313.374,17.4l1.514,0.382a5.093,5.093,0,0,1-1.712,2.843,4.719,4.719,0,0,1-3.022.979,5.431,5.431,0,0,1-3.007-.752,4.7,4.7,0,0,1-1.762-2.18,7.772,7.772,0,0,1-.6-3.065,6.734,6.734,0,0,1,.682-3.116,4.674,4.674,0,0,1,1.942-2.02,5.671,5.671,0,0,1,2.772-.69,4.691,4.691,0,0,1,2.886.874,4.535,4.535,0,0,1,1.63,2.457l-1.489.351a3.539,3.539,0,0,0-1.154-1.817,3.075,3.075,0,0,0-1.9-.569,3.7,3.7,0,0,0-2.2.631,3.34,3.34,0,0,0-1.244,1.7,6.83,6.83,0,0,0-.358,2.2,6.982,6.982,0,0,0,.425,2.546,3.164,3.164,0,0,0,1.322,1.626,3.7,3.7,0,0,0,1.941.538,3.25,3.25,0,0,0,2.152-.733A3.748,3.748,0,0,0,313.374,17.4Z" transform="translate(-7.832 -9.777)"/><path class="cls-2" d="M316.541,21.406V9.972h1.4V21.406h-1.4Z" transform="translate(-7.832 -9.777)"/><path class="cls-2" d="M325.526,20.384a5.223,5.223,0,0,1-1.5.936,4.333,4.333,0,0,1-1.548.273,3.01,3.01,0,0,1-2.1-.667,2.2,2.2,0,0,1-.733-1.7,2.264,2.264,0,0,1,.276-1.111,2.292,2.292,0,0,1,.726-0.807,3.4,3.4,0,0,1,1.01-.46,10.025,10.025,0,0,1,1.248-.21,12.861,12.861,0,0,0,2.5-.483c0-.192.008-0.315,0.008-0.367a1.549,1.549,0,0,0-.4-1.209,2.35,2.35,0,0,0-1.6-.476,2.477,2.477,0,0,0-1.462.347,2.119,2.119,0,0,0-.7,1.228l-1.372-.187a3.4,3.4,0,0,1,.615-1.423,2.7,2.7,0,0,1,1.24-.834,5.535,5.535,0,0,1,1.88-.292,4.974,4.974,0,0,1,1.724.25,2.277,2.277,0,0,1,.975.628,2.2,2.2,0,0,1,.437.956,7.884,7.884,0,0,1,.07,1.294v1.872a19.912,19.912,0,0,0,.09,2.477,3.115,3.115,0,0,0,.354.994h-1.466A2.965,2.965,0,0,1,325.526,20.384Zm-0.117-3.135a10.305,10.305,0,0,1-2.293.53,5.3,5.3,0,0,0-1.225.281,1.219,1.219,0,0,0-.554.456,1.24,1.24,0,0,0,.23,1.6,1.827,1.827,0,0,0,1.243.374,2.893,2.893,0,0,0,1.443-.355,2.183,2.183,0,0,0,.928-0.971,3.38,3.38,0,0,0,.227-1.4V17.249Z" transform="translate(-7.832 -9.777)"/><path class="cls-2" d="M328.442,18.933l1.389-.218a1.94,1.94,0,0,0,.651,1.279,2.267,2.267,0,0,0,1.493.444,2.192,2.192,0,0,0,1.435-.394,1.178,1.178,0,0,0,.469-0.924,0.854,0.854,0,0,0-.414-0.749,6.078,6.078,0,0,0-1.435-.476,13.057,13.057,0,0,1-2.141-.674,2.041,2.041,0,0,1-1.213-1.9,2.135,2.135,0,0,1,.253-1.026,2.275,2.275,0,0,1,.69-0.784,2.908,2.908,0,0,1,.893-0.41,4.263,4.263,0,0,1,1.213-.167,4.8,4.8,0,0,1,1.712.281,2.324,2.324,0,0,1,1.088.76,2.973,2.973,0,0,1,.484,1.283l-1.373.187a1.5,1.5,0,0,0-.542-1,1.983,1.983,0,0,0-1.268-.359,2.292,2.292,0,0,0-1.38.32,0.93,0.93,0,0,0-.414.749,0.775,0.775,0,0,0,.172.491,1.237,1.237,0,0,0,.538.375q0.211,0.078,1.24.359a17.357,17.357,0,0,1,2.078.651,2.115,2.115,0,0,1,.925.737,2.064,2.064,0,0,1,.335,1.2,2.361,2.361,0,0,1-.409,1.322,2.654,2.654,0,0,1-1.182.959,4.3,4.3,0,0,1-1.747.339,3.893,3.893,0,0,1-2.461-.67A3.12,3.12,0,0,1,328.442,18.933Z" transform="translate(-7.832 -9.777)"/><path class="cls-2" d="M336.429,18.933l1.389-.218a1.94,1.94,0,0,0,.651,1.279,2.267,2.267,0,0,0,1.493.444,2.192,2.192,0,0,0,1.435-.394,1.178,1.178,0,0,0,.469-0.924,0.854,0.854,0,0,0-.414-0.749,6.078,6.078,0,0,0-1.435-.476,13.057,13.057,0,0,1-2.141-.674,2.041,2.041,0,0,1-1.213-1.9,2.135,2.135,0,0,1,.253-1.026,2.275,2.275,0,0,1,.69-0.784,2.908,2.908,0,0,1,.893-0.41,4.263,4.263,0,0,1,1.213-.167,4.8,4.8,0,0,1,1.712.281,2.324,2.324,0,0,1,1.088.76A2.973,2.973,0,0,1,343,15.26l-1.373.187a1.5,1.5,0,0,0-.542-1,1.983,1.983,0,0,0-1.268-.359,2.292,2.292,0,0,0-1.38.32,0.93,0.93,0,0,0-.414.749,0.775,0.775,0,0,0,.172.491,1.237,1.237,0,0,0,.538.375q0.211,0.078,1.24.359a17.357,17.357,0,0,1,2.078.651,2.115,2.115,0,0,1,.925.737,2.064,2.064,0,0,1,.335,1.2,2.361,2.361,0,0,1-.409,1.322,2.654,2.654,0,0,1-1.182.959,4.3,4.3,0,0,1-1.747.339,3.893,3.893,0,0,1-2.461-.67A3.12,3.12,0,0,1,336.429,18.933Z" transform="translate(-7.832 -9.777)"/><path class="cls-2" d="M350.646,18.738l1.451,0.18a3.547,3.547,0,0,1-1.271,1.973,4.308,4.308,0,0,1-5.253-.417,4.372,4.372,0,0,1-1.064-3.139,4.575,4.575,0,0,1,1.076-3.244,3.644,3.644,0,0,1,2.792-1.154,3.539,3.539,0,0,1,2.714,1.131,4.492,4.492,0,0,1,1.053,3.182c0,0.083,0,.208-0.008.374h-6.177a3.186,3.186,0,0,0,.772,2.09,2.3,2.3,0,0,0,1.731.725,2.149,2.149,0,0,0,1.318-.405A2.7,2.7,0,0,0,350.646,18.738Zm-4.609-2.27h4.625a2.809,2.809,0,0,0-.53-1.567,2.153,2.153,0,0,0-1.739-.811,2.23,2.23,0,0,0-1.626.647A2.562,2.562,0,0,0,346.037,16.469Z" transform="translate(-7.832 -9.777)"/><path class="cls-2" d="M353.3,18.933l1.389-.218a1.94,1.94,0,0,0,.651,1.279,2.267,2.267,0,0,0,1.493.444,2.192,2.192,0,0,0,1.435-.394,1.178,1.178,0,0,0,.469-0.924,0.854,0.854,0,0,0-.414-0.749,6.078,6.078,0,0,0-1.435-.476,13.057,13.057,0,0,1-2.141-.674,2.041,2.041,0,0,1-1.213-1.9,2.135,2.135,0,0,1,.253-1.026,2.275,2.275,0,0,1,.69-0.784,2.908,2.908,0,0,1,.893-0.41,4.263,4.263,0,0,1,1.213-.167,4.8,4.8,0,0,1,1.712.281,2.324,2.324,0,0,1,1.088.76,2.973,2.973,0,0,1,.484,1.283l-1.373.187a1.5,1.5,0,0,0-.542-1,1.983,1.983,0,0,0-1.268-.359,2.292,2.292,0,0,0-1.38.32,0.93,0.93,0,0,0-.414.749,0.775,0.775,0,0,0,.172.491,1.237,1.237,0,0,0,.538.375q0.211,0.078,1.24.359a17.357,17.357,0,0,1,2.078.651,2.115,2.115,0,0,1,.925.737,2.064,2.064,0,0,1,.335,1.2,2.361,2.361,0,0,1-.409,1.322,2.654,2.654,0,0,1-1.182.959,4.3,4.3,0,0,1-1.747.339,3.893,3.893,0,0,1-2.461-.67A3.12,3.12,0,0,1,353.3,18.933Z" transform="translate(-7.832 -9.777)"/><path class="cls-2" d="M12.526,40.573h-1.4V31.627a7.258,7.258,0,0,1-1.33.967,9.414,9.414,0,0,1-1.478.726V31.962a8.462,8.462,0,0,0,2.059-1.341,5.281,5.281,0,0,0,1.248-1.528h0.9v11.48Z" transform="translate(-7.832 -9.777)"/><path class="cls-2" d="M16.333,37.929l1.349-.125a2.342,2.342,0,0,0,.655,1.38,1.8,1.8,0,0,0,1.24.429,2.138,2.138,0,0,0,1.135-.3,2.415,2.415,0,0,0,.8-0.792,4.671,4.671,0,0,0,.522-1.337,7.059,7.059,0,0,0,.21-1.716c0-.062,0-0.156-0.008-0.281a3.21,3.21,0,0,1-1.15,1.088,3.126,3.126,0,0,1-1.579.417,3.194,3.194,0,0,1-2.4-1.03,3.766,3.766,0,0,1-.982-2.714,3.858,3.858,0,0,1,1.025-2.8,3.427,3.427,0,0,1,2.57-1.061,3.666,3.666,0,0,1,2.04.6,3.751,3.751,0,0,1,1.4,1.711,8.432,8.432,0,0,1,.479,3.217,10.422,10.422,0,0,1-.476,3.49,4.091,4.091,0,0,1-1.416,1.977,3.666,3.666,0,0,1-2.2.678A3.02,3.02,0,0,1,16.333,37.929Zm5.748-5.046a2.75,2.75,0,0,0-.644-1.918,2.018,2.018,0,0,0-1.548-.709,2.137,2.137,0,0,0-1.63.764A2.832,2.832,0,0,0,17.565,33a2.447,2.447,0,0,0,.659,1.774,2.172,2.172,0,0,0,1.626.682,2.083,2.083,0,0,0,1.6-.682A2.689,2.689,0,0,0,22.081,32.883Z" transform="translate(-7.832 -9.777)"/><path class="cls-2" d="M25.216,37.929l1.349-.125a2.342,2.342,0,0,0,.655,1.38,1.8,1.8,0,0,0,1.24.429,2.138,2.138,0,0,0,1.135-.3,2.415,2.415,0,0,0,.8-0.792,4.671,4.671,0,0,0,.522-1.337,7.059,7.059,0,0,0,.21-1.716c0-.062,0-0.156-0.008-0.281a3.21,3.21,0,0,1-1.15,1.088,3.126,3.126,0,0,1-1.579.417,3.194,3.194,0,0,1-2.4-1.03,3.766,3.766,0,0,1-.982-2.714,3.858,3.858,0,0,1,1.025-2.8,3.427,3.427,0,0,1,2.57-1.061,3.666,3.666,0,0,1,2.04.6,3.751,3.751,0,0,1,1.4,1.711,8.432,8.432,0,0,1,.479,3.217,10.422,10.422,0,0,1-.476,3.49,4.091,4.091,0,0,1-1.416,1.977,3.666,3.666,0,0,1-2.2.678A3.02,3.02,0,0,1,25.216,37.929Zm5.748-5.046a2.75,2.75,0,0,0-.644-1.918,2.018,2.018,0,0,0-1.548-.709,2.137,2.137,0,0,0-1.63.764A2.832,2.832,0,0,0,26.448,33a2.447,2.447,0,0,0,.659,1.774,2.172,2.172,0,0,0,1.626.682,2.083,2.083,0,0,0,1.6-.682A2.689,2.689,0,0,0,30.964,32.883Z" transform="translate(-7.832 -9.777)"/><path class="cls-2" d="M39.176,40.573h-1.4V31.627a7.258,7.258,0,0,1-1.33.967,9.414,9.414,0,0,1-1.478.726V31.962a8.462,8.462,0,0,0,2.059-1.341,5.281,5.281,0,0,0,1.248-1.528h0.9v11.48Z" transform="translate(-7.832 -9.777)"/><path class="cls-2" d="M42.616,37.141V35.729h4.313v1.412H42.616Z" transform="translate(-7.832 -9.777)"/><path class="cls-2" d="M55.469,39.224v1.349H47.911a2.487,2.487,0,0,1,.164-0.975A5.153,5.153,0,0,1,49,38.077a14.5,14.5,0,0,1,1.837-1.731,15.563,15.563,0,0,0,2.519-2.421,2.9,2.9,0,0,0,.655-1.688,1.876,1.876,0,0,0-.6-1.408,2.152,2.152,0,0,0-1.556-.573,2.194,2.194,0,0,0-1.622.608,2.3,2.3,0,0,0-.616,1.685L48.176,32.4a3.551,3.551,0,0,1,1.115-2.46,3.8,3.8,0,0,1,2.6-.846,3.626,3.626,0,0,1,2.6.912,3,3,0,0,1,.959,2.262,3.433,3.433,0,0,1-.281,1.35,5.247,5.247,0,0,1-.932,1.4,22.776,22.776,0,0,1-2.164,2.012q-1.263,1.061-1.623,1.438a4.635,4.635,0,0,0-.593.761h5.608Z" transform="translate(-7.832 -9.777)"/><path class="cls-2" d="M56.974,34.934a10.457,10.457,0,0,1,.417-3.264,4.06,4.06,0,0,1,1.24-1.907,3.171,3.171,0,0,1,2.07-.67,3.384,3.384,0,0,1,1.615.37,3.092,3.092,0,0,1,1.146,1.069,5.731,5.731,0,0,1,.709,1.7,11.279,11.279,0,0,1,.257,2.7,10.5,10.5,0,0,1-.413,3.248,4.065,4.065,0,0,1-1.236,1.911,3.17,3.17,0,0,1-2.079.674,3.137,3.137,0,0,1-2.6-1.185A7.535,7.535,0,0,1,56.974,34.934Zm1.443,0a7.17,7.17,0,0,0,.659,3.748,1.883,1.883,0,0,0,3.252,0,7.177,7.177,0,0,0,.659-3.744,7.173,7.173,0,0,0-.659-3.751,1.956,1.956,0,0,0-1.642-.928,1.8,1.8,0,0,0-1.544.819A7.252,7.252,0,0,0,58.417,34.934Z" transform="translate(-7.832 -9.777)"/><path class="cls-2" d="M71.145,40.573h-1.4V31.627a7.258,7.258,0,0,1-1.33.967,9.414,9.414,0,0,1-1.478.726V31.962a8.462,8.462,0,0,0,2.059-1.341,5.281,5.281,0,0,0,1.248-1.528h0.9v11.48Z" transform="translate(-7.832 -9.777)"/><path class="cls-2" d="M74.741,37.578l1.474-.125a2.642,2.642,0,0,0,.761,1.618,2.062,2.062,0,0,0,1.439.542,2.241,2.241,0,0,0,1.716-.764,2.881,2.881,0,0,0,.7-2.028,2.6,2.6,0,0,0-.675-1.9,2.352,2.352,0,0,0-1.766-.694,2.45,2.45,0,0,0-1.225.308,2.381,2.381,0,0,0-.858.8l-1.318-.172L76.1,29.3h5.686v1.341H77.221L76.6,33.709a3.723,3.723,0,0,1,2.16-.717,3.422,3.422,0,0,1,2.527,1.037,3.625,3.625,0,0,1,1.03,2.667,4.164,4.164,0,0,1-.9,2.683,3.623,3.623,0,0,1-3,1.388,3.7,3.7,0,0,1-2.546-.874A3.4,3.4,0,0,1,74.741,37.578Z" transform="translate(-7.832 -9.777)"/><path class="cls-2" d="M39.687,117.979h-1.4v-8.945a7.258,7.258,0,0,1-1.33.967,9.414,9.414,0,0,1-1.478.726v-1.357a8.462,8.462,0,0,0,2.059-1.341,5.281,5.281,0,0,0,1.248-1.528h0.9v11.48Z" transform="translate(-7.832 -9.777)"/><path class="cls-2" d="M43.283,114.984l1.474-.125a2.642,2.642,0,0,0,.761,1.618,2.062,2.062,0,0,0,1.439.542,2.241,2.241,0,0,0,1.716-.764,2.881,2.881,0,0,0,.7-2.028,2.6,2.6,0,0,0-.675-1.9,2.352,2.352,0,0,0-1.766-.694,2.45,2.45,0,0,0-1.225.308,2.381,2.381,0,0,0-.858.8l-1.318-.172L44.64,106.7h5.686v1.341H45.763l-0.616,3.073a3.723,3.723,0,0,1,2.16-.717,3.422,3.422,0,0,1,2.527,1.037,3.625,3.625,0,0,1,1.03,2.667,4.164,4.164,0,0,1-.9,2.683,3.623,3.623,0,0,1-3,1.388,3.7,3.7,0,0,1-2.546-.874A3.4,3.4,0,0,1,43.283,114.984Z" transform="translate(-7.832 -9.777)"/><path class="cls-2" d="M52.431,109.291a3.474,3.474,0,0,1,.616-2.083,2.062,2.062,0,0,1,1.786-.858,2.318,2.318,0,0,1,1.782.768,3.911,3.911,0,0,1-.008,4.493,2.285,2.285,0,0,1-1.759.784,2.221,2.221,0,0,1-1.728-.772A3.411,3.411,0,0,1,52.431,109.291Zm2.441-1.973a1.057,1.057,0,0,0-.87.452,2.866,2.866,0,0,0-.347,1.661,2.576,2.576,0,0,0,.351,1.548,1.069,1.069,0,0,0,1.743,0,2.847,2.847,0,0,0,.347-1.653,2.6,2.6,0,0,0-.351-1.556A1.069,1.069,0,0,0,54.872,107.318ZM54.88,118.4l6.255-12.05h1.139L56.042,118.4H54.88Zm4.945-3.1a3.471,3.471,0,0,1,.616-2.086,2.074,2.074,0,0,1,1.794-.854,2.318,2.318,0,0,1,1.782.768,3.91,3.91,0,0,1-.008,4.492,2.3,2.3,0,0,1-1.767.784,2.215,2.215,0,0,1-1.728-.776A3.411,3.411,0,0,1,59.825,115.3Zm2.449-1.974a1.063,1.063,0,0,0-.877.453,2.866,2.866,0,0,0-.347,1.661,2.579,2.579,0,0,0,.351,1.544,1.06,1.06,0,0,0,.866.452,1.07,1.07,0,0,0,.885-0.452,2.853,2.853,0,0,0,.347-1.654,2.593,2.593,0,0,0-.351-1.556A1.07,1.07,0,0,0,62.273,113.323Z" transform="translate(-7.832 -9.777)"/><path class="cls-2" d="M43.291,321.488l1.4-.187a3.088,3.088,0,0,0,.823,1.72,2.031,2.031,0,0,0,1.416.526,2.268,2.268,0,0,0,1.673-.686,2.317,2.317,0,0,0,.682-1.7,2.156,2.156,0,0,0-.631-1.6,2.185,2.185,0,0,0-1.607-.627,4.025,4.025,0,0,0-.99.156l0.156-1.232a2.166,2.166,0,0,0,.226.015,2.891,2.891,0,0,0,1.615-.468,1.6,1.6,0,0,0,.717-1.443,1.707,1.707,0,0,0-.522-1.279,1.857,1.857,0,0,0-1.349-.507,1.911,1.911,0,0,0-1.365.515,2.583,2.583,0,0,0-.7,1.544l-1.4-.25A3.61,3.61,0,0,1,44.6,313.8a3.38,3.38,0,0,1,2.27-.776,3.742,3.742,0,0,1,1.724.4,2.912,2.912,0,0,1,1.205,1.1A2.818,2.818,0,0,1,50.216,316a2.412,2.412,0,0,1-.4,1.349,2.721,2.721,0,0,1-1.178.967,2.653,2.653,0,0,1,1.575.971,2.956,2.956,0,0,1,.562,1.845,3.375,3.375,0,0,1-1.092,2.539,3.842,3.842,0,0,1-2.761,1.042,3.588,3.588,0,0,1-2.5-.9A3.465,3.465,0,0,1,43.291,321.488Z" transform="translate(-7.832 -9.777)"/><path class="cls-2" d="M52.431,315.818a3.474,3.474,0,0,1,.616-2.083,2.062,2.062,0,0,1,1.786-.858,2.318,2.318,0,0,1,1.782.768,3.911,3.911,0,0,1-.008,4.493,2.285,2.285,0,0,1-1.759.784,2.221,2.221,0,0,1-1.728-.772A3.411,3.411,0,0,1,52.431,315.818Zm2.441-1.973a1.057,1.057,0,0,0-.87.452,2.866,2.866,0,0,0-.347,1.661,2.576,2.576,0,0,0,.351,1.548,1.069,1.069,0,0,0,1.743,0,2.847,2.847,0,0,0,.347-1.653,2.6,2.6,0,0,0-.351-1.556A1.069,1.069,0,0,0,54.872,313.845Zm0.008,11.082,6.255-12.049h1.139l-6.231,12.049H54.88Zm4.945-3.1a3.471,3.471,0,0,1,.616-2.086,2.074,2.074,0,0,1,1.794-.854,2.318,2.318,0,0,1,1.782.768,3.909,3.909,0,0,1-.008,4.492,2.292,2.292,0,0,1-1.767.784,2.215,2.215,0,0,1-1.728-.776A3.409,3.409,0,0,1,59.825,321.823Zm2.449-1.974a1.063,1.063,0,0,0-.877.453,2.866,2.866,0,0,0-.347,1.661,2.579,2.579,0,0,0,.351,1.544,1.061,1.061,0,0,0,.866.452,1.072,1.072,0,0,0,.885-0.452,2.853,2.853,0,0,0,.347-1.654,2.593,2.593,0,0,0-.351-1.556A1.07,1.07,0,0,0,62.273,319.849Z" transform="translate(-7.832 -9.777)"/><path class="cls-2" d="M39.687,73.719h-1.4V64.774a7.258,7.258,0,0,1-1.33.967,9.414,9.414,0,0,1-1.478.726V65.109a8.462,8.462,0,0,0,2.059-1.341,5.281,5.281,0,0,0,1.248-1.528h0.9v11.48Z" transform="translate(-7.832 -9.777)"/><path class="cls-2" d="M45.443,67.519a2.64,2.64,0,0,1-1.294-.913,2.386,2.386,0,0,1-.421-1.419,2.775,2.775,0,0,1,.9-2.1,3.774,3.774,0,0,1,4.8.02,2.814,2.814,0,0,1,.913,2.117,2.331,2.331,0,0,1-.417,1.384,2.634,2.634,0,0,1-1.267.909,3.078,3.078,0,0,1,1.6,1.107,3.042,3.042,0,0,1,.55,1.825,3.284,3.284,0,0,1-1.037,2.464,4.226,4.226,0,0,1-5.459,0,3.334,3.334,0,0,1-1.037-2.5,3.022,3.022,0,0,1,.565-1.868A2.833,2.833,0,0,1,45.443,67.519Zm-0.733,2.9a2.538,2.538,0,0,0,.285,1.162,2.005,2.005,0,0,0,.846.869,2.469,2.469,0,0,0,1.208.308,2.264,2.264,0,0,0,1.661-.647,2.214,2.214,0,0,0,.655-1.646,2.253,2.253,0,0,0-.675-1.677A2.313,2.313,0,0,0,47,68.127,2.232,2.232,0,0,0,44.71,70.42Zm0.452-5.28a1.781,1.781,0,0,0,.522,1.326,1.852,1.852,0,0,0,1.357.515,1.817,1.817,0,0,0,1.33-.511,1.69,1.69,0,0,0,.519-1.252,1.751,1.751,0,0,0-.534-1.3,1.819,1.819,0,0,0-1.33-.526,1.837,1.837,0,0,0-1.333.515A1.657,1.657,0,0,0,45.162,65.14Z" transform="translate(-7.832 -9.777)"/><path class="cls-2" d="M52.431,65.031a3.474,3.474,0,0,1,.616-2.083,2.062,2.062,0,0,1,1.786-.858,2.318,2.318,0,0,1,1.782.768,3.911,3.911,0,0,1-.008,4.493,2.285,2.285,0,0,1-1.759.784,2.221,2.221,0,0,1-1.728-.772A3.411,3.411,0,0,1,52.431,65.031Zm2.441-1.973a1.057,1.057,0,0,0-.87.452,2.866,2.866,0,0,0-.347,1.661,2.576,2.576,0,0,0,.351,1.548,1.069,1.069,0,0,0,1.743,0,2.847,2.847,0,0,0,.347-1.653,2.6,2.6,0,0,0-.351-1.556A1.069,1.069,0,0,0,54.872,63.058ZM54.88,74.141l6.255-12.05h1.139l-6.231,12.05H54.88Zm4.945-3.1a3.471,3.471,0,0,1,.616-2.086,2.074,2.074,0,0,1,1.794-.854,2.318,2.318,0,0,1,1.782.768,3.91,3.91,0,0,1-.008,4.492,2.3,2.3,0,0,1-1.767.784,2.215,2.215,0,0,1-1.728-.776A3.411,3.411,0,0,1,59.825,71.037Zm2.449-1.974a1.063,1.063,0,0,0-.877.453,2.866,2.866,0,0,0-.347,1.661,2.579,2.579,0,0,0,.351,1.544,1.06,1.06,0,0,0,.866.452,1.07,1.07,0,0,0,.885-0.452,2.853,2.853,0,0,0,.347-1.654,2.593,2.593,0,0,0-.351-1.556A1.07,1.07,0,0,0,62.273,69.063Z" transform="translate(-7.832 -9.777)"/><path class="cls-2" d="M39.687,171.474h-1.4v-8.945a7.258,7.258,0,0,1-1.33.967,9.414,9.414,0,0,1-1.478.726v-1.357a8.462,8.462,0,0,0,2.059-1.341,5.281,5.281,0,0,0,1.248-1.528h0.9v11.48Z" transform="translate(-7.832 -9.777)"/><path class="cls-2" d="M50.661,170.125v1.349H43.1a2.487,2.487,0,0,1,.164-0.975,5.153,5.153,0,0,1,.924-1.521,14.5,14.5,0,0,1,1.837-1.731,15.563,15.563,0,0,0,2.519-2.421,2.9,2.9,0,0,0,.655-1.688,1.876,1.876,0,0,0-.6-1.408,2.152,2.152,0,0,0-1.556-.573,2.194,2.194,0,0,0-1.622.608,2.3,2.3,0,0,0-.616,1.685l-1.443-.148a3.551,3.551,0,0,1,1.115-2.46,3.8,3.8,0,0,1,2.6-.846,3.626,3.626,0,0,1,2.6.912,3,3,0,0,1,.959,2.262,3.433,3.433,0,0,1-.281,1.35,5.247,5.247,0,0,1-.932,1.4,22.776,22.776,0,0,1-2.164,2.012q-1.263,1.061-1.623,1.438a4.635,4.635,0,0,0-.593.761h5.608Z" transform="translate(-7.832 -9.777)"/><path class="cls-2" d="M52.431,162.786a3.474,3.474,0,0,1,.616-2.083,2.062,2.062,0,0,1,1.786-.858,2.318,2.318,0,0,1,1.782.768,3.911,3.911,0,0,1-.008,4.493,2.285,2.285,0,0,1-1.759.784,2.221,2.221,0,0,1-1.728-.772A3.411,3.411,0,0,1,52.431,162.786Zm2.441-1.973a1.057,1.057,0,0,0-.87.452,2.866,2.866,0,0,0-.347,1.661,2.576,2.576,0,0,0,.351,1.548,1.069,1.069,0,0,0,1.743,0,2.847,2.847,0,0,0,.347-1.653,2.6,2.6,0,0,0-.351-1.556A1.069,1.069,0,0,0,54.872,160.813ZM54.88,171.9l6.255-12.05h1.139L56.042,171.9H54.88Zm4.945-3.1a3.471,3.471,0,0,1,.616-2.086,2.074,2.074,0,0,1,1.794-.854,2.318,2.318,0,0,1,1.782.768,3.91,3.91,0,0,1-.008,4.492,2.3,2.3,0,0,1-1.767.784,2.215,2.215,0,0,1-1.728-.776A3.411,3.411,0,0,1,59.825,168.791Zm2.449-1.974a1.063,1.063,0,0,0-.877.453,2.866,2.866,0,0,0-.347,1.661,2.579,2.579,0,0,0,.351,1.544,1.06,1.06,0,0,0,.866.452,1.07,1.07,0,0,0,.885-0.452,2.853,2.853,0,0,0,.347-1.654,2.593,2.593,0,0,0-.351-1.556A1.07,1.07,0,0,0,62.273,166.818Z" transform="translate(-7.832 -9.777)"/><path class="cls-2" d="M43.493,222.75l1.349-.125a2.342,2.342,0,0,0,.655,1.38,1.8,1.8,0,0,0,1.24.429,2.138,2.138,0,0,0,1.135-.3,2.415,2.415,0,0,0,.8-0.792,4.671,4.671,0,0,0,.522-1.337,7.059,7.059,0,0,0,.21-1.716c0-.062,0-0.156-0.008-0.281a3.21,3.21,0,0,1-1.15,1.088,3.126,3.126,0,0,1-1.579.417,3.194,3.194,0,0,1-2.4-1.03,3.766,3.766,0,0,1-.982-2.714,3.858,3.858,0,0,1,1.025-2.8,3.427,3.427,0,0,1,2.57-1.061,3.666,3.666,0,0,1,2.04.6,3.751,3.751,0,0,1,1.4,1.711,8.432,8.432,0,0,1,.479,3.217,10.422,10.422,0,0,1-.476,3.49,4.091,4.091,0,0,1-1.416,1.977,3.666,3.666,0,0,1-2.2.678A3.02,3.02,0,0,1,43.493,222.75Zm5.748-5.046a2.75,2.75,0,0,0-.644-1.918,2.018,2.018,0,0,0-1.548-.709,2.137,2.137,0,0,0-1.63.764,2.832,2.832,0,0,0-.694,1.981,2.447,2.447,0,0,0,.659,1.774,2.172,2.172,0,0,0,1.626.682,2.083,2.083,0,0,0,1.6-.682A2.689,2.689,0,0,0,49.241,217.7Z" transform="translate(-7.832 -9.777)"/><path class="cls-2" d="M52.431,216.706a3.474,3.474,0,0,1,.616-2.083,2.062,2.062,0,0,1,1.786-.858,2.318,2.318,0,0,1,1.782.768,3.911,3.911,0,0,1-.008,4.493,2.285,2.285,0,0,1-1.759.784,2.221,2.221,0,0,1-1.728-.772A3.411,3.411,0,0,1,52.431,216.706Zm2.441-1.973a1.057,1.057,0,0,0-.87.452,2.866,2.866,0,0,0-.347,1.661,2.576,2.576,0,0,0,.351,1.548,1.069,1.069,0,0,0,1.743,0,2.847,2.847,0,0,0,.347-1.653,2.6,2.6,0,0,0-.351-1.556A1.069,1.069,0,0,0,54.872,214.733Zm0.008,11.083,6.255-12.05h1.139l-6.231,12.05H54.88Zm4.945-3.1a3.471,3.471,0,0,1,.616-2.086,2.074,2.074,0,0,1,1.794-.854,2.318,2.318,0,0,1,1.782.768,3.91,3.91,0,0,1-.008,4.492,2.3,2.3,0,0,1-1.767.784,2.215,2.215,0,0,1-1.728-.776A3.411,3.411,0,0,1,59.825,222.711Zm2.449-1.974a1.063,1.063,0,0,0-.877.453,2.866,2.866,0,0,0-.347,1.661A2.579,2.579,0,0,0,61.4,224.4a1.06,1.06,0,0,0,.866.452,1.07,1.07,0,0,0,.885-0.452,2.853,2.853,0,0,0,.347-1.654,2.593,2.593,0,0,0-.351-1.556A1.07,1.07,0,0,0,62.273,220.738Z" transform="translate(-7.832 -9.777)"/><path class="cls-2" d="M50.567,269.557l-1.4.109a2.653,2.653,0,0,0-.53-1.2,1.86,1.86,0,0,0-1.4-.6,1.929,1.929,0,0,0-1.178.374,3.2,3.2,0,0,0-1.045,1.412,7.372,7.372,0,0,0-.4,2.644,3.253,3.253,0,0,1,1.24-1.146,3.333,3.333,0,0,1,1.536-.375,3.184,3.184,0,0,1,2.391,1.034,3.708,3.708,0,0,1,.986,2.671,4.4,4.4,0,0,1-.464,2,3.381,3.381,0,0,1-1.275,1.416,3.48,3.48,0,0,1-1.84.491,3.6,3.6,0,0,1-2.862-1.291,6.517,6.517,0,0,1-1.107-4.254q0-3.314,1.225-4.82a3.519,3.519,0,0,1,2.877-1.31A3.062,3.062,0,0,1,50.567,269.557Zm-5.732,4.929a3.254,3.254,0,0,0,.308,1.388,2.3,2.3,0,0,0,.862,1.01,2.154,2.154,0,0,0,1.162.347,1.979,1.979,0,0,0,1.528-.717,2.825,2.825,0,0,0,.64-1.95A2.642,2.642,0,0,0,48.7,272.7a2.076,2.076,0,0,0-1.591-.682,2.166,2.166,0,0,0-1.614.682A2.461,2.461,0,0,0,44.834,274.485Z" transform="translate(-7.832 -9.777)"/><path class="cls-2" d="M52.431,269.5a3.474,3.474,0,0,1,.616-2.083,2.062,2.062,0,0,1,1.786-.858,2.318,2.318,0,0,1,1.782.768,3.911,3.911,0,0,1-.008,4.493,2.285,2.285,0,0,1-1.759.784,2.221,2.221,0,0,1-1.728-.772A3.411,3.411,0,0,1,52.431,269.5Zm2.441-1.973a1.057,1.057,0,0,0-.87.452,2.866,2.866,0,0,0-.347,1.661,2.576,2.576,0,0,0,.351,1.548,1.069,1.069,0,0,0,1.743,0,2.847,2.847,0,0,0,.347-1.653,2.6,2.6,0,0,0-.351-1.556A1.069,1.069,0,0,0,54.872,267.529Zm0.008,11.083,6.255-12.05h1.139l-6.231,12.05H54.88Zm4.945-3.1a3.471,3.471,0,0,1,.616-2.086,2.074,2.074,0,0,1,1.794-.854,2.318,2.318,0,0,1,1.782.768,3.91,3.91,0,0,1-.008,4.492,2.3,2.3,0,0,1-1.767.784,2.215,2.215,0,0,1-1.728-.776A3.411,3.411,0,0,1,59.825,275.507Zm2.449-1.974a1.063,1.063,0,0,0-.877.453,2.866,2.866,0,0,0-.347,1.661,2.579,2.579,0,0,0,.351,1.544,1.06,1.06,0,0,0,.866.452,1.07,1.07,0,0,0,.885-0.452,2.853,2.853,0,0,0,.347-1.654,2.593,2.593,0,0,0-.351-1.556A1.07,1.07,0,0,0,62.273,273.534Z" transform="translate(-7.832 -9.777)"/><path class="cls-2" d="M258.858,350.879h-1.4v-8.945a7.258,7.258,0,0,1-1.33.967,9.457,9.457,0,0,1-1.478.726v-1.357a8.5,8.5,0,0,0,2.059-1.341,5.284,5.284,0,0,0,1.248-1.529h0.9v11.48Z" transform="translate(-7.832 -9.777)"/><path class="cls-2" d="M269.832,349.529v1.35h-7.558a2.483,2.483,0,0,1,.164-0.975,5.169,5.169,0,0,1,.924-1.521,14.5,14.5,0,0,1,1.837-1.731,15.565,15.565,0,0,0,2.519-2.421,2.9,2.9,0,0,0,.655-1.688,1.879,1.879,0,0,0-.6-1.408,2.154,2.154,0,0,0-1.556-.573,2.194,2.194,0,0,0-1.622.608,2.3,2.3,0,0,0-.616,1.685l-1.443-.148a3.551,3.551,0,0,1,1.115-2.46,3.8,3.8,0,0,1,2.6-.847,3.624,3.624,0,0,1,2.6.913,3,3,0,0,1,.959,2.262,3.43,3.43,0,0,1-.281,1.349,5.249,5.249,0,0,1-.932,1.4,22.785,22.785,0,0,1-2.164,2.012q-1.263,1.061-1.623,1.439a4.65,4.65,0,0,0-.593.76h5.608Z" transform="translate(-7.832 -9.777)"/><path class="cls-2" d="M271.6,342.19a3.474,3.474,0,0,1,.616-2.082,2.061,2.061,0,0,1,1.786-.857,2.317,2.317,0,0,1,1.782.768,3.91,3.91,0,0,1-.008,4.492,2.285,2.285,0,0,1-1.759.784,2.222,2.222,0,0,1-1.728-.772A3.41,3.41,0,0,1,271.6,342.19Zm2.441-1.973a1.055,1.055,0,0,0-.87.452,2.866,2.866,0,0,0-.347,1.661,2.574,2.574,0,0,0,.351,1.548,1.067,1.067,0,0,0,1.743,0,2.845,2.845,0,0,0,.347-1.653,2.592,2.592,0,0,0-.351-1.556A1.069,1.069,0,0,0,274.043,340.218Zm0.008,11.082,6.255-12.049h1.139L275.213,351.3h-1.162ZM279,348.2a3.477,3.477,0,0,1,.615-2.087,2.077,2.077,0,0,1,1.795-.854,2.314,2.314,0,0,1,1.781.769,3.9,3.9,0,0,1-.008,4.492,2.291,2.291,0,0,1-1.766.783,2.221,2.221,0,0,1-1.729-.775A3.419,3.419,0,0,1,279,348.2Zm2.449-1.974a1.069,1.069,0,0,0-.879.452,2.877,2.877,0,0,0-.346,1.662,2.591,2.591,0,0,0,.35,1.544,1.075,1.075,0,0,0,1.752,0,2.854,2.854,0,0,0,.348-1.653,2.594,2.594,0,0,0-.352-1.557A1.07,1.07,0,0,0,281.445,346.223Z" transform="translate(-7.832 -9.777)"/><path class="cls-2" d="M71.794,345.24a10.459,10.459,0,0,1,.417-3.264,4.06,4.06,0,0,1,1.24-1.907,3.169,3.169,0,0,1,2.07-.671,3.378,3.378,0,0,1,1.615.371,3.087,3.087,0,0,1,1.146,1.068,5.731,5.731,0,0,1,.709,1.7,11.276,11.276,0,0,1,.257,2.7,10.5,10.5,0,0,1-.413,3.248A4.068,4.068,0,0,1,77.6,350.4a3.173,3.173,0,0,1-2.079.675,3.137,3.137,0,0,1-2.6-1.186A7.536,7.536,0,0,1,71.794,345.24Zm1.443,0a7.167,7.167,0,0,0,.659,3.747,1.882,1.882,0,0,0,3.252,0,10.987,10.987,0,0,0,0-7.494,1.956,1.956,0,0,0-1.642-.929,1.8,1.8,0,0,0-1.544.819A7.251,7.251,0,0,0,73.237,345.24Z" transform="translate(-7.832 -9.777)"/><path class="cls-2" d="M80.943,342.19a3.474,3.474,0,0,1,.616-2.082,2.061,2.061,0,0,1,1.786-.857,2.317,2.317,0,0,1,1.782.768,3.91,3.91,0,0,1-.008,4.492,2.285,2.285,0,0,1-1.759.784,2.222,2.222,0,0,1-1.728-.772A3.41,3.41,0,0,1,80.943,342.19Zm2.441-1.973a1.055,1.055,0,0,0-.87.452,2.866,2.866,0,0,0-.347,1.661,2.574,2.574,0,0,0,.351,1.548,1.067,1.067,0,0,0,1.743,0,2.845,2.845,0,0,0,.347-1.653,2.592,2.592,0,0,0-.351-1.556A1.069,1.069,0,0,0,83.384,340.218ZM83.392,351.3l6.255-12.049h1.139L84.554,351.3H83.392Zm4.945-3.1a3.474,3.474,0,0,1,.616-2.087,2.073,2.073,0,0,1,1.794-.854,2.315,2.315,0,0,1,1.782.769,3.91,3.91,0,0,1-.008,4.492,2.294,2.294,0,0,1-1.767.783,2.218,2.218,0,0,1-1.728-.775A3.414,3.414,0,0,1,88.336,348.2Zm2.449-1.974a1.065,1.065,0,0,0-.877.452,2.867,2.867,0,0,0-.347,1.662,2.579,2.579,0,0,0,.351,1.544,1.058,1.058,0,0,0,.866.452,1.069,1.069,0,0,0,.885-0.452,2.851,2.851,0,0,0,.347-1.653,2.6,2.6,0,0,0-.351-1.557A1.069,1.069,0,0,0,90.785,346.223Z" transform="translate(-7.832 -9.777)"/><path class="cls-2" d="M306.9,350.879h-1.4v-8.945a7.246,7.246,0,0,1-1.33.967,9.412,9.412,0,0,1-1.478.726v-1.357a8.482,8.482,0,0,0,2.059-1.341A5.27,5.27,0,0,0,306,339.4h0.9v11.48Z" transform="translate(-7.832 -9.777)"/><path class="cls-2" d="M310.5,347.884l1.474-.124a2.647,2.647,0,0,0,.761,1.618,2.063,2.063,0,0,0,1.438.542,2.241,2.241,0,0,0,1.716-.765,2.881,2.881,0,0,0,.7-2.027,2.6,2.6,0,0,0-.675-1.9,2.351,2.351,0,0,0-1.767-.694,2.437,2.437,0,0,0-1.224.309,2.377,2.377,0,0,0-.858.8l-1.318-.171,1.107-5.873h5.686v1.342h-4.562l-0.615,3.072a3.717,3.717,0,0,1,2.16-.718,3.423,3.423,0,0,1,2.526,1.038A3.623,3.623,0,0,1,318.079,347a4.161,4.161,0,0,1-.9,2.683,3.624,3.624,0,0,1-3,1.389,3.693,3.693,0,0,1-2.546-.874A3.407,3.407,0,0,1,310.5,347.884Z" transform="translate(-7.832 -9.777)"/><path class="cls-2" d="M319.646,342.19a3.481,3.481,0,0,1,.616-2.082,2.062,2.062,0,0,1,1.786-.857,2.317,2.317,0,0,1,1.782.768,3.908,3.908,0,0,1-.008,4.492,2.286,2.286,0,0,1-1.759.784,2.221,2.221,0,0,1-1.728-.772A3.41,3.41,0,0,1,319.646,342.19Zm2.441-1.973a1.053,1.053,0,0,0-.869.452,2.865,2.865,0,0,0-.348,1.661,2.57,2.57,0,0,0,.352,1.548,1.067,1.067,0,0,0,1.742,0,2.844,2.844,0,0,0,.348-1.653,2.588,2.588,0,0,0-.352-1.556A1.067,1.067,0,0,0,322.088,340.218ZM322.1,351.3l6.255-12.049h1.139L323.258,351.3H322.1Zm4.944-3.1a3.477,3.477,0,0,1,.616-2.087,2.074,2.074,0,0,1,1.794-.854,2.315,2.315,0,0,1,1.782.769,3.908,3.908,0,0,1-.008,4.492,2.293,2.293,0,0,1-1.767.783,2.218,2.218,0,0,1-1.728-.775A3.414,3.414,0,0,1,327.04,348.2Zm2.449-1.974a1.066,1.066,0,0,0-.878.452,2.876,2.876,0,0,0-.347,1.662,2.583,2.583,0,0,0,.351,1.544,1.074,1.074,0,0,0,1.751,0,2.846,2.846,0,0,0,.348-1.653,2.594,2.594,0,0,0-.352-1.557A1.067,1.067,0,0,0,329.489,346.223Z" transform="translate(-7.832 -9.777)"/><path class="cls-2" d="M205.922,348.235l1.349-.125a2.336,2.336,0,0,0,.655,1.38,1.8,1.8,0,0,0,1.24.43,2.134,2.134,0,0,0,1.135-.3,2.418,2.418,0,0,0,.8-0.791,4.675,4.675,0,0,0,.522-1.338,7.062,7.062,0,0,0,.21-1.716c0-.062,0-0.156-0.008-0.28a3.222,3.222,0,0,1-1.15,1.088A3.135,3.135,0,0,1,209.1,347a3.2,3.2,0,0,1-2.4-1.029,3.767,3.767,0,0,1-.982-2.715,3.86,3.86,0,0,1,1.025-2.8,3.427,3.427,0,0,1,2.57-1.061,3.666,3.666,0,0,1,2.04.6,3.755,3.755,0,0,1,1.4,1.712,8.433,8.433,0,0,1,.479,3.218,10.413,10.413,0,0,1-.476,3.489,4.088,4.088,0,0,1-1.416,1.978,3.666,3.666,0,0,1-2.2.679A3.02,3.02,0,0,1,205.922,348.235Zm5.748-5.046a2.75,2.75,0,0,0-.644-1.919,2.02,2.02,0,0,0-1.548-.71,2.137,2.137,0,0,0-1.63.765,2.832,2.832,0,0,0-.694,1.98,2.446,2.446,0,0,0,.659,1.774,2.171,2.171,0,0,0,1.626.683,2.082,2.082,0,0,0,1.6-.683A2.687,2.687,0,0,0,211.67,343.189Z" transform="translate(-7.832 -9.777)"/><path class="cls-2" d="M214.86,342.19a3.474,3.474,0,0,1,.616-2.082,2.061,2.061,0,0,1,1.786-.857,2.317,2.317,0,0,1,1.782.768,3.91,3.91,0,0,1-.008,4.492,2.285,2.285,0,0,1-1.759.784,2.222,2.222,0,0,1-1.728-.772A3.41,3.41,0,0,1,214.86,342.19Zm2.441-1.973a1.055,1.055,0,0,0-.87.452,2.866,2.866,0,0,0-.347,1.661,2.574,2.574,0,0,0,.351,1.548,1.067,1.067,0,0,0,1.743,0,2.845,2.845,0,0,0,.347-1.653,2.592,2.592,0,0,0-.351-1.556A1.069,1.069,0,0,0,217.3,340.218Zm0.008,11.082,6.255-12.049H224.7L218.471,351.3h-1.162Zm4.945-3.1a3.474,3.474,0,0,1,.616-2.087,2.073,2.073,0,0,1,1.794-.854,2.315,2.315,0,0,1,1.782.769,3.91,3.91,0,0,1-.008,4.492,2.294,2.294,0,0,1-1.767.783,2.218,2.218,0,0,1-1.728-.775A3.414,3.414,0,0,1,222.253,348.2Zm2.449-1.974a1.065,1.065,0,0,0-.877.452,2.867,2.867,0,0,0-.347,1.662,2.579,2.579,0,0,0,.351,1.544,1.058,1.058,0,0,0,.866.452,1.069,1.069,0,0,0,.885-0.452,2.851,2.851,0,0,0,.347-1.653,2.6,2.6,0,0,0-.351-1.557A1.069,1.069,0,0,0,224.7,346.223Z" transform="translate(-7.832 -9.777)"/><path class="cls-2" d="M165.5,342.245l-1.4.109a2.653,2.653,0,0,0-.53-1.2,1.859,1.859,0,0,0-1.4-.6,1.927,1.927,0,0,0-1.178.375,3.2,3.2,0,0,0-1.045,1.411,7.371,7.371,0,0,0-.4,2.644,3.257,3.257,0,0,1,1.24-1.146,3.339,3.339,0,0,1,1.536-.374,3.185,3.185,0,0,1,2.391,1.033,3.712,3.712,0,0,1,.986,2.672,4.4,4.4,0,0,1-.464,2,3.385,3.385,0,0,1-1.275,1.416,3.485,3.485,0,0,1-1.84.491,3.6,3.6,0,0,1-2.862-1.291,6.516,6.516,0,0,1-1.107-4.255q0-3.313,1.225-4.819a3.521,3.521,0,0,1,2.877-1.311A3.063,3.063,0,0,1,165.5,342.245Zm-5.732,4.93a3.25,3.25,0,0,0,.308,1.388,2.3,2.3,0,0,0,.862,1.01,2.155,2.155,0,0,0,1.162.348,1.979,1.979,0,0,0,1.528-.718,2.825,2.825,0,0,0,.64-1.95,2.641,2.641,0,0,0-.632-1.867,2.075,2.075,0,0,0-1.591-.683,2.165,2.165,0,0,0-1.614.683A2.461,2.461,0,0,0,159.766,347.175Z" transform="translate(-7.832 -9.777)"/><path class="cls-2" d="M167.363,342.19a3.474,3.474,0,0,1,.616-2.082,2.061,2.061,0,0,1,1.786-.857,2.317,2.317,0,0,1,1.782.768,3.91,3.91,0,0,1-.008,4.492,2.285,2.285,0,0,1-1.759.784,2.222,2.222,0,0,1-1.728-.772A3.41,3.41,0,0,1,167.363,342.19Zm2.441-1.973a1.055,1.055,0,0,0-.87.452,2.866,2.866,0,0,0-.347,1.661,2.574,2.574,0,0,0,.351,1.548,1.067,1.067,0,0,0,1.743,0,2.845,2.845,0,0,0,.347-1.653,2.592,2.592,0,0,0-.351-1.556A1.069,1.069,0,0,0,169.8,340.218Zm0.008,11.082,6.255-12.049h1.139L170.974,351.3h-1.162Zm4.945-3.1a3.474,3.474,0,0,1,.616-2.087,2.073,2.073,0,0,1,1.794-.854,2.315,2.315,0,0,1,1.782.769,3.91,3.91,0,0,1-.008,4.492,2.294,2.294,0,0,1-1.767.783,2.218,2.218,0,0,1-1.728-.775A3.414,3.414,0,0,1,174.756,348.2Zm2.449-1.974a1.065,1.065,0,0,0-.877.452,2.867,2.867,0,0,0-.347,1.662,2.579,2.579,0,0,0,.351,1.544,1.058,1.058,0,0,0,.866.452,1.069,1.069,0,0,0,.885-0.452,2.851,2.851,0,0,0,.347-1.653,2.6,2.6,0,0,0-.351-1.557A1.069,1.069,0,0,0,177.205,346.223Z" transform="translate(-7.832 -9.777)"/><path class="cls-2" d="M110.845,347.86l1.4-.187a3.094,3.094,0,0,0,.823,1.72,2.033,2.033,0,0,0,1.416.526,2.271,2.271,0,0,0,1.673-.687,2.318,2.318,0,0,0,.682-1.7,2.153,2.153,0,0,0-.631-1.595,2.183,2.183,0,0,0-1.607-.628,4.006,4.006,0,0,0-.99.156l0.156-1.232c0.094,0.01.169,0.016,0.226,0.016a2.9,2.9,0,0,0,1.615-.468,1.6,1.6,0,0,0,.717-1.443,1.71,1.71,0,0,0-.522-1.279,1.857,1.857,0,0,0-1.349-.507,1.913,1.913,0,0,0-1.365.515,2.586,2.586,0,0,0-.7,1.545l-1.4-.25a3.609,3.609,0,0,1,1.17-2.187,3.381,3.381,0,0,1,2.27-.776,3.73,3.73,0,0,1,1.724.4,2.906,2.906,0,0,1,1.205,1.1,2.818,2.818,0,0,1,.417,1.474,2.416,2.416,0,0,1-.4,1.35,2.723,2.723,0,0,1-1.178.967,2.655,2.655,0,0,1,1.575.971,2.955,2.955,0,0,1,.562,1.845,3.372,3.372,0,0,1-1.092,2.538,3.84,3.84,0,0,1-2.761,1.042,3.588,3.588,0,0,1-2.5-.9A3.464,3.464,0,0,1,110.845,347.86Z" transform="translate(-7.832 -9.777)"/><path class="cls-2" d="M119.986,342.19a3.474,3.474,0,0,1,.616-2.082,2.061,2.061,0,0,1,1.786-.857,2.317,2.317,0,0,1,1.782.768,3.91,3.91,0,0,1-.008,4.492,2.285,2.285,0,0,1-1.759.784,2.222,2.222,0,0,1-1.728-.772A3.41,3.41,0,0,1,119.986,342.19Zm2.441-1.973a1.055,1.055,0,0,0-.87.452,2.866,2.866,0,0,0-.347,1.661,2.574,2.574,0,0,0,.351,1.548,1.067,1.067,0,0,0,1.743,0,2.845,2.845,0,0,0,.347-1.653,2.592,2.592,0,0,0-.351-1.556A1.069,1.069,0,0,0,122.427,340.218Zm0.008,11.082,6.255-12.049h1.139L123.6,351.3h-1.162Zm4.945-3.1a3.474,3.474,0,0,1,.616-2.087,2.073,2.073,0,0,1,1.794-.854,2.315,2.315,0,0,1,1.782.769,3.91,3.91,0,0,1-.008,4.492,2.294,2.294,0,0,1-1.767.783,2.218,2.218,0,0,1-1.728-.775A3.414,3.414,0,0,1,127.379,348.2Zm2.449-1.974a1.065,1.065,0,0,0-.877.452,2.867,2.867,0,0,0-.347,1.662,2.579,2.579,0,0,0,.351,1.544,1.058,1.058,0,0,0,.866.452,1.069,1.069,0,0,0,.885-0.452,2.851,2.851,0,0,0,.347-1.653,2.6,2.6,0,0,0-.351-1.557A1.069,1.069,0,0,0,129.828,346.223Z" transform="translate(-7.832 -9.777)"/><path class="cls-2" d="M517.593,349.529v1.35h-7.558a2.465,2.465,0,0,1,.164-0.975,5.169,5.169,0,0,1,.924-1.521,14.5,14.5,0,0,1,1.837-1.731,15.637,15.637,0,0,0,2.52-2.421,2.9,2.9,0,0,0,.654-1.688,1.875,1.875,0,0,0-.6-1.408,2.152,2.152,0,0,0-1.556-.573,2.193,2.193,0,0,0-1.622.608,2.3,2.3,0,0,0-.616,1.685L510.3,342.7a3.547,3.547,0,0,1,1.115-2.46,3.8,3.8,0,0,1,2.6-.847,3.622,3.622,0,0,1,2.6.913,3,3,0,0,1,.96,2.262,3.422,3.422,0,0,1-.281,1.349,5.234,5.234,0,0,1-.932,1.4,22.785,22.785,0,0,1-2.164,2.012q-1.264,1.061-1.622,1.439a4.6,4.6,0,0,0-.593.76h5.607Z" transform="translate(-7.832 -9.777)"/><path class="cls-2" d="M519.191,340.943v-1.35h7.4v1.092a15.567,15.567,0,0,0-2.165,3.089,18.839,18.839,0,0,0-1.657,3.962,14.754,14.754,0,0,0-.538,3.143H520.79a14.011,14.011,0,0,1,.53-3.26,17.114,17.114,0,0,1,1.454-3.686,15.759,15.759,0,0,1,2.017-2.99h-5.6Z" transform="translate(-7.832 -9.777)"/><path class="cls-2" d="M528.245,342.19a3.481,3.481,0,0,1,.616-2.082,2.062,2.062,0,0,1,1.786-.857,2.317,2.317,0,0,1,1.782.768,3.908,3.908,0,0,1-.008,4.492,2.286,2.286,0,0,1-1.759.784,2.221,2.221,0,0,1-1.728-.772A3.41,3.41,0,0,1,528.245,342.19Zm2.441-1.973a1.053,1.053,0,0,0-.869.452,2.865,2.865,0,0,0-.348,1.661,2.57,2.57,0,0,0,.352,1.548,1.067,1.067,0,0,0,1.742,0,2.844,2.844,0,0,0,.348-1.653,2.588,2.588,0,0,0-.352-1.556A1.067,1.067,0,0,0,530.687,340.218Zm0.008,11.082,6.255-12.049h1.139L531.856,351.3h-1.162Zm4.944-3.1a3.477,3.477,0,0,1,.616-2.087,2.074,2.074,0,0,1,1.794-.854,2.315,2.315,0,0,1,1.782.769,3.908,3.908,0,0,1-.008,4.492,2.293,2.293,0,0,1-1.767.783,2.218,2.218,0,0,1-1.728-.775A3.414,3.414,0,0,1,535.639,348.2Zm2.449-1.974a1.066,1.066,0,0,0-.878.452,2.876,2.876,0,0,0-.347,1.662,2.583,2.583,0,0,0,.351,1.544,1.074,1.074,0,0,0,1.751,0,2.846,2.846,0,0,0,.348-1.653,2.594,2.594,0,0,0-.352-1.557A1.067,1.067,0,0,0,538.088,346.223Z" transform="translate(-7.832 -9.777)"/><path class="cls-2" d="M561.916,347.86l1.4-.187a3.1,3.1,0,0,0,.823,1.72,2.033,2.033,0,0,0,1.415.526,2.271,2.271,0,0,0,1.673-.687,2.316,2.316,0,0,0,.683-1.7,2.15,2.15,0,0,0-.632-1.595,2.181,2.181,0,0,0-1.606-.628,4.006,4.006,0,0,0-.99.156l0.156-1.232c0.093,0.01.169,0.016,0.226,0.016a2.9,2.9,0,0,0,1.614-.468,1.6,1.6,0,0,0,.718-1.443,1.708,1.708,0,0,0-.522-1.279,1.857,1.857,0,0,0-1.35-.507,1.911,1.911,0,0,0-1.364.515,2.589,2.589,0,0,0-.7,1.545l-1.4-.25a3.608,3.608,0,0,1,1.169-2.187,3.382,3.382,0,0,1,2.27-.776,3.727,3.727,0,0,1,1.724.4,2.9,2.9,0,0,1,1.205,1.1,2.814,2.814,0,0,1,.418,1.474,2.413,2.413,0,0,1-.4,1.35,2.712,2.712,0,0,1-1.178.967,2.659,2.659,0,0,1,1.576.971,2.958,2.958,0,0,1,.562,1.845,3.372,3.372,0,0,1-1.093,2.538,3.838,3.838,0,0,1-2.761,1.042,3.589,3.589,0,0,1-2.5-.9A3.466,3.466,0,0,1,561.916,347.86Z" transform="translate(-7.832 -9.777)"/><path class="cls-2" d="M570.791,345.24a10.459,10.459,0,0,1,.417-3.264,4.06,4.06,0,0,1,1.24-1.907,3.169,3.169,0,0,1,2.07-.671,3.378,3.378,0,0,1,1.614.371,3.083,3.083,0,0,1,1.146,1.068,5.731,5.731,0,0,1,.71,1.7,11.273,11.273,0,0,1,.258,2.7,10.492,10.492,0,0,1-.414,3.248A4.067,4.067,0,0,1,576.6,350.4a3.176,3.176,0,0,1-2.079.675,3.137,3.137,0,0,1-2.6-1.186A7.536,7.536,0,0,1,570.791,345.24Zm1.442,0a7.165,7.165,0,0,0,.659,3.747,1.882,1.882,0,0,0,3.252,0,10.98,10.98,0,0,0,0-7.494,1.955,1.955,0,0,0-1.642-.929,1.8,1.8,0,0,0-1.544.819A7.25,7.25,0,0,0,572.233,345.24Z" transform="translate(-7.832 -9.777)"/><path class="cls-2" d="M579.938,342.19a3.481,3.481,0,0,1,.616-2.082,2.062,2.062,0,0,1,1.786-.857,2.317,2.317,0,0,1,1.782.768,3.908,3.908,0,0,1-.008,4.492,2.286,2.286,0,0,1-1.759.784,2.221,2.221,0,0,1-1.728-.772A3.41,3.41,0,0,1,579.938,342.19Zm2.441-1.973a1.053,1.053,0,0,0-.869.452,2.865,2.865,0,0,0-.348,1.661,2.57,2.57,0,0,0,.352,1.548,1.067,1.067,0,0,0,1.742,0,2.844,2.844,0,0,0,.348-1.653,2.588,2.588,0,0,0-.352-1.556A1.067,1.067,0,0,0,582.38,340.218Zm0.008,11.082,6.255-12.049h1.139L583.55,351.3h-1.162Zm4.944-3.1a3.477,3.477,0,0,1,.616-2.087,2.074,2.074,0,0,1,1.794-.854,2.315,2.315,0,0,1,1.782.769,3.908,3.908,0,0,1-.008,4.492,2.293,2.293,0,0,1-1.767.783,2.218,2.218,0,0,1-1.728-.775A3.414,3.414,0,0,1,587.332,348.2Zm2.449-1.974a1.066,1.066,0,0,0-.878.452,2.876,2.876,0,0,0-.347,1.662,2.583,2.583,0,0,0,.351,1.544,1.074,1.074,0,0,0,1.751,0,2.846,2.846,0,0,0,.348-1.653,2.594,2.594,0,0,0-.352-1.557A1.067,1.067,0,0,0,589.781,346.223Z" transform="translate(-7.832 -9.777)"/><path class="cls-2" d="M464.074,349.529v1.35h-7.558a2.465,2.465,0,0,1,.164-0.975,5.169,5.169,0,0,1,.924-1.521,14.5,14.5,0,0,1,1.837-1.731,15.637,15.637,0,0,0,2.52-2.421,2.9,2.9,0,0,0,.654-1.688,1.875,1.875,0,0,0-.6-1.408,2.152,2.152,0,0,0-1.556-.573,2.193,2.193,0,0,0-1.622.608,2.3,2.3,0,0,0-.616,1.685l-1.442-.148a3.547,3.547,0,0,1,1.115-2.46,3.8,3.8,0,0,1,2.6-.847,3.622,3.622,0,0,1,2.6.913,3,3,0,0,1,.96,2.262,3.422,3.422,0,0,1-.281,1.349,5.234,5.234,0,0,1-.932,1.4,22.785,22.785,0,0,1-2.164,2.012q-1.264,1.061-1.622,1.439a4.6,4.6,0,0,0-.593.76h5.607Z" transform="translate(-7.832 -9.777)"/><path class="cls-2" d="M470.079,350.879v-2.737h-4.96v-1.287l5.217-7.409h1.146v7.409h1.545v1.287h-1.545v2.737h-1.4Zm0-4.024V341.7l-3.58,5.155h3.58Z" transform="translate(-7.832 -9.777)"/><path class="cls-2" d="M474.727,342.19a3.481,3.481,0,0,1,.616-2.082,2.062,2.062,0,0,1,1.786-.857,2.317,2.317,0,0,1,1.782.768,3.908,3.908,0,0,1-.008,4.492,2.286,2.286,0,0,1-1.759.784,2.221,2.221,0,0,1-1.728-.772A3.41,3.41,0,0,1,474.727,342.19Zm2.441-1.973a1.053,1.053,0,0,0-.869.452,2.865,2.865,0,0,0-.348,1.661,2.57,2.57,0,0,0,.352,1.548,1.067,1.067,0,0,0,1.742,0,2.844,2.844,0,0,0,.348-1.653,2.588,2.588,0,0,0-.352-1.556A1.067,1.067,0,0,0,477.168,340.218Zm0.008,11.082,6.255-12.049h1.139L478.338,351.3h-1.162Zm4.944-3.1a3.477,3.477,0,0,1,.616-2.087,2.074,2.074,0,0,1,1.794-.854,2.315,2.315,0,0,1,1.782.769,3.908,3.908,0,0,1-.008,4.492,2.293,2.293,0,0,1-1.767.783,2.218,2.218,0,0,1-1.728-.775A3.414,3.414,0,0,1,482.12,348.2Zm2.449-1.974a1.066,1.066,0,0,0-.878.452,2.876,2.876,0,0,0-.347,1.662,2.583,2.583,0,0,0,.351,1.544,1.074,1.074,0,0,0,1.751,0,2.846,2.846,0,0,0,.348-1.653,2.594,2.594,0,0,0-.352-1.557A1.067,1.067,0,0,0,484.569,346.223Z" transform="translate(-7.832 -9.777)"/><path class="cls-2" d="M411.164,349.529v1.35h-7.558a2.465,2.465,0,0,1,.164-0.975,5.169,5.169,0,0,1,.924-1.521,14.5,14.5,0,0,1,1.837-1.731,15.637,15.637,0,0,0,2.52-2.421,2.9,2.9,0,0,0,.654-1.688,1.875,1.875,0,0,0-.6-1.408,2.152,2.152,0,0,0-1.556-.573,2.193,2.193,0,0,0-1.622.608,2.3,2.3,0,0,0-.616,1.685l-1.442-.148a3.547,3.547,0,0,1,1.115-2.46,3.8,3.8,0,0,1,2.6-.847,3.622,3.622,0,0,1,2.6.913,3,3,0,0,1,.96,2.262,3.422,3.422,0,0,1-.281,1.349,5.234,5.234,0,0,1-.932,1.4,22.785,22.785,0,0,1-2.164,2.012q-1.264,1.061-1.622,1.439a4.6,4.6,0,0,0-.593.76h5.607Z" transform="translate(-7.832 -9.777)"/><path class="cls-2" d="M417.956,350.879h-1.4v-8.945a7.246,7.246,0,0,1-1.33.967,9.412,9.412,0,0,1-1.478.726v-1.357a8.482,8.482,0,0,0,2.059-1.341,5.27,5.27,0,0,0,1.248-1.529h0.9v11.48Z" transform="translate(-7.832 -9.777)"/><path class="cls-2" d="M421.816,342.19a3.481,3.481,0,0,1,.616-2.082,2.062,2.062,0,0,1,1.786-.857,2.317,2.317,0,0,1,1.782.768,3.908,3.908,0,0,1-.008,4.492,2.286,2.286,0,0,1-1.759.784,2.221,2.221,0,0,1-1.728-.772A3.41,3.41,0,0,1,421.816,342.19Zm2.441-1.973a1.053,1.053,0,0,0-.869.452,2.865,2.865,0,0,0-.348,1.661,2.57,2.57,0,0,0,.352,1.548,1.067,1.067,0,0,0,1.742,0,2.844,2.844,0,0,0,.348-1.653,2.588,2.588,0,0,0-.352-1.556A1.067,1.067,0,0,0,424.258,340.218Zm0.008,11.082,6.255-12.049h1.139L425.428,351.3h-1.162Zm4.944-3.1a3.477,3.477,0,0,1,.616-2.087,2.074,2.074,0,0,1,1.794-.854,2.315,2.315,0,0,1,1.782.769,3.908,3.908,0,0,1-.008,4.492,2.293,2.293,0,0,1-1.767.783,2.218,2.218,0,0,1-1.728-.775A3.414,3.414,0,0,1,429.21,348.2Zm2.449-1.974a1.066,1.066,0,0,0-.878.452,2.876,2.876,0,0,0-.347,1.662,2.583,2.583,0,0,0,.351,1.544,1.074,1.074,0,0,0,1.751,0,2.846,2.846,0,0,0,.348-1.653,2.594,2.594,0,0,0-.352-1.557A1.067,1.067,0,0,0,431.659,346.223Z" transform="translate(-7.832 -9.777)"/><path class="cls-2" d="M359.813,350.879h-1.4v-8.945a7.246,7.246,0,0,1-1.33.967,9.412,9.412,0,0,1-1.478.726v-1.357a8.482,8.482,0,0,0,2.059-1.341,5.27,5.27,0,0,0,1.248-1.529h0.9v11.48Z" transform="translate(-7.832 -9.777)"/><path class="cls-2" d="M365.568,344.679a2.649,2.649,0,0,1-1.295-.912,2.391,2.391,0,0,1-.421-1.42,2.775,2.775,0,0,1,.9-2.1,3.773,3.773,0,0,1,4.8.02,2.814,2.814,0,0,1,.912,2.117,2.333,2.333,0,0,1-.417,1.385,2.627,2.627,0,0,1-1.268.908,2.918,2.918,0,0,1,2.153,2.933,3.284,3.284,0,0,1-1.038,2.464,4.222,4.222,0,0,1-5.459,0,3.332,3.332,0,0,1-1.037-2.5,3.023,3.023,0,0,1,.565-1.868A2.826,2.826,0,0,1,365.568,344.679Zm-0.733,2.9a2.534,2.534,0,0,0,.285,1.162,2.007,2.007,0,0,0,.846.869,2.469,2.469,0,0,0,1.209.309,2.264,2.264,0,0,0,1.661-.647,2.217,2.217,0,0,0,.655-1.646,2.25,2.25,0,0,0-.675-1.677,2.31,2.31,0,0,0-1.688-.663A2.233,2.233,0,0,0,364.835,347.58Zm0.452-5.28a1.781,1.781,0,0,0,.523,1.326,1.85,1.85,0,0,0,1.356.515,1.814,1.814,0,0,0,1.33-.511,1.69,1.69,0,0,0,.519-1.252,1.756,1.756,0,0,0-.534-1.3,1.963,1.963,0,0,0-2.663-.012A1.655,1.655,0,0,0,365.287,342.3Z" transform="translate(-7.832 -9.777)"/><path class="cls-2" d="M372.556,342.19a3.481,3.481,0,0,1,.616-2.082,2.062,2.062,0,0,1,1.786-.857,2.317,2.317,0,0,1,1.782.768,3.908,3.908,0,0,1-.008,4.492,2.286,2.286,0,0,1-1.759.784,2.221,2.221,0,0,1-1.728-.772A3.41,3.41,0,0,1,372.556,342.19ZM375,340.218a1.053,1.053,0,0,0-.869.452,2.865,2.865,0,0,0-.348,1.661,2.57,2.57,0,0,0,.352,1.548,1.067,1.067,0,0,0,1.742,0,2.844,2.844,0,0,0,.348-1.653,2.588,2.588,0,0,0-.352-1.556A1.067,1.067,0,0,0,375,340.218ZM375,351.3l6.255-12.049H382.4L376.167,351.3H375Zm4.944-3.1a3.477,3.477,0,0,1,.616-2.087,2.074,2.074,0,0,1,1.794-.854,2.315,2.315,0,0,1,1.782.769,3.908,3.908,0,0,1-.008,4.492,2.293,2.293,0,0,1-1.767.783,2.218,2.218,0,0,1-1.728-.775A3.414,3.414,0,0,1,379.949,348.2Zm2.449-1.974a1.066,1.066,0,0,0-.878.452,2.876,2.876,0,0,0-.347,1.662,2.583,2.583,0,0,0,.351,1.544,1.074,1.074,0,0,0,1.751,0,2.846,2.846,0,0,0,.348-1.653,2.594,2.594,0,0,0-.352-1.557A1.067,1.067,0,0,0,382.4,346.223Z" transform="translate(-7.832 -9.777)"/><path class="cls-2" d="M261.079,374.009V362.575h5.069a6.728,6.728,0,0,1,2.324.309,2.539,2.539,0,0,1,1.271,1.088,3.248,3.248,0,0,1,.476,1.724,2.877,2.877,0,0,1-.788,2.051A3.983,3.983,0,0,1,267,368.807a3.953,3.953,0,0,1,.912.569,7.854,7.854,0,0,1,1.256,1.521l1.989,3.111h-1.9l-1.513-2.379q-0.663-1.03-1.092-1.575a3.433,3.433,0,0,0-.768-0.765,2.288,2.288,0,0,0-.69-0.3,4.564,4.564,0,0,0-.842-0.055h-1.755v5.077h-1.513Zm1.513-6.388h3.252a4.891,4.891,0,0,0,1.622-.214,1.729,1.729,0,0,0,.889-0.687,1.857,1.857,0,0,0,.3-1.025,1.7,1.7,0,0,0-.589-1.334,2.754,2.754,0,0,0-1.86-.522h-3.619v3.782Z" transform="translate(-7.832 -9.777)"/><path class="cls-2" d="M272.418,364.189v-1.614h1.4v1.614h-1.4Zm0,9.819v-8.282h1.4v8.282h-1.4Z" transform="translate(-7.832 -9.777)"/><path class="cls-2" d="M275.4,371.536l1.388-.218a1.938,1.938,0,0,0,.651,1.278,2.268,2.268,0,0,0,1.493.445,2.2,2.2,0,0,0,1.436-.395,1.175,1.175,0,0,0,.469-0.924,0.855,0.855,0,0,0-.414-0.749,6.166,6.166,0,0,0-1.436-.476,13.013,13.013,0,0,1-2.141-.675,2.042,2.042,0,0,1-1.213-1.9,2.127,2.127,0,0,1,.254-1.025,2.271,2.271,0,0,1,.69-0.784,2.884,2.884,0,0,1,.893-0.409,4.222,4.222,0,0,1,1.212-.168,4.816,4.816,0,0,1,1.713.28,2.342,2.342,0,0,1,1.088.761,2.991,2.991,0,0,1,.484,1.283l-1.373.188a1.5,1.5,0,0,0-.543-1,1.981,1.981,0,0,0-1.268-.358,2.3,2.3,0,0,0-1.38.319,0.932,0.932,0,0,0-.413.749,0.776,0.776,0,0,0,.171.491,1.239,1.239,0,0,0,.538.375q0.211,0.078,1.24.358a17.093,17.093,0,0,1,2.078.651,2.118,2.118,0,0,1,.926.736,2.068,2.068,0,0,1,.334,1.2,2.368,2.368,0,0,1-.408,1.322,2.652,2.652,0,0,1-1.182.959,4.3,4.3,0,0,1-1.748.34,3.891,3.891,0,0,1-2.46-.671A3.122,3.122,0,0,1,275.4,371.536Z" transform="translate(-7.832 -9.777)"/><path class="cls-2" d="M283.952,374.009V362.575h1.4V369.1l3.322-3.369H290.5l-3.167,3.072,3.486,5.21h-1.731l-2.737-4.235-0.99.952v3.283h-1.4Z" transform="translate(-7.832 -9.777)"/><path class="cls-2" d="M299.051,377.37a14.026,14.026,0,0,1-1.965-3.432,10.765,10.765,0,0,1-.2-7.627,14.936,14.936,0,0,1,2.168-3.931h1.007Q299.113,364,298.81,364.7a12.617,12.617,0,0,0-.749,2.247,13.033,13.033,0,0,0-.335,2.932,14.075,14.075,0,0,0,2.332,7.5h-1.007Z" transform="translate(-7.832 -9.777)"/><path class="cls-2" d="M301.353,370.336l1.427-.125a3.147,3.147,0,0,0,.472,1.407,2.578,2.578,0,0,0,1.15.89,4.371,4.371,0,0,0,1.755.339,4.225,4.225,0,0,0,1.529-.257,2.126,2.126,0,0,0,.986-0.706A1.636,1.636,0,0,0,309,370.9a1.487,1.487,0,0,0-.312-0.939,2.322,2.322,0,0,0-1.029-.675,20.526,20.526,0,0,0-2.036-.558,10.4,10.4,0,0,1-2.207-.713,3.1,3.1,0,0,1-1.221-1.065,2.606,2.606,0,0,1-.4-1.423,2.909,2.909,0,0,1,.491-1.618,3.04,3.04,0,0,1,1.436-1.143,5.446,5.446,0,0,1,2.1-.39,5.723,5.723,0,0,1,2.242.409A3.231,3.231,0,0,1,309.549,364a3.453,3.453,0,0,1,.562,1.8l-1.45.108a2.339,2.339,0,0,0-.792-1.638,3.08,3.08,0,0,0-1.992-.554,3.2,3.2,0,0,0-2,.5,1.512,1.512,0,0,0-.628,1.213,1.3,1.3,0,0,0,.445,1.014,6.009,6.009,0,0,0,2.281.815,15.073,15.073,0,0,1,2.53.729,3.455,3.455,0,0,1,1.474,1.166,2.84,2.84,0,0,1,.477,1.626,3.115,3.115,0,0,1-.522,1.72,3.443,3.443,0,0,1-1.5,1.255,5.216,5.216,0,0,1-2.2.449,6.574,6.574,0,0,1-2.6-.453,3.637,3.637,0,0,1-1.646-1.36A3.85,3.85,0,0,1,301.353,370.336Z" transform="translate(-7.832 -9.777)"/><path class="cls-2" d="M315.406,372.753l0.2,1.24a5.211,5.211,0,0,1-1.061.125,2.4,2.4,0,0,1-1.186-.242,1.355,1.355,0,0,1-.593-0.636,5.03,5.03,0,0,1-.171-1.657v-4.765h-1.029v-1.092H312.6v-2.052l1.4-.842v2.894h1.412v1.092h-1.412v4.843a2.434,2.434,0,0,0,.074.772,0.583,0.583,0,0,0,.242.272,0.924,0.924,0,0,0,.479.1A4.454,4.454,0,0,0,315.406,372.753Z" transform="translate(-7.832 -9.777)"/><path class="cls-2" d="M322.184,372.987a5.233,5.233,0,0,1-1.5.936,4.344,4.344,0,0,1-1.548.273,3.01,3.01,0,0,1-2.1-.667,2.2,2.2,0,0,1-.733-1.7,2.266,2.266,0,0,1,.276-1.111,2.293,2.293,0,0,1,.726-0.808,3.44,3.44,0,0,1,1.01-.46,10.291,10.291,0,0,1,1.248-.211,12.787,12.787,0,0,0,2.5-.483c0-.192.008-0.314,0.008-0.366a1.549,1.549,0,0,0-.4-1.209,2.347,2.347,0,0,0-1.6-.476,2.478,2.478,0,0,0-1.462.347,2.122,2.122,0,0,0-.7,1.229l-1.372-.187a3.4,3.4,0,0,1,.615-1.423,2.7,2.7,0,0,1,1.24-.835,5.548,5.548,0,0,1,1.88-.292,4.962,4.962,0,0,1,1.724.25,2.271,2.271,0,0,1,.975.627,2.212,2.212,0,0,1,.437.956,7.889,7.889,0,0,1,.07,1.294v1.872a19.9,19.9,0,0,0,.09,2.477,3.119,3.119,0,0,0,.354.994h-1.466A2.965,2.965,0,0,1,322.184,372.987Zm-0.117-3.136a10.305,10.305,0,0,1-2.293.53,5.316,5.316,0,0,0-1.225.281,1.216,1.216,0,0,0-.554.456,1.239,1.239,0,0,0,.23,1.6,1.824,1.824,0,0,0,1.243.375,2.888,2.888,0,0,0,1.443-.355,2.18,2.18,0,0,0,.928-0.971,3.382,3.382,0,0,0,.227-1.4v-0.515Z" transform="translate(-7.832 -9.777)"/><path class="cls-2" d="M325.661,374.009v-8.282h1.264V366.9a2.977,2.977,0,0,1,2.636-1.365,3.457,3.457,0,0,1,1.377.27,2.163,2.163,0,0,1,.939.705,2.717,2.717,0,0,1,.437,1.037,7.971,7.971,0,0,1,.078,1.365v5.093h-1.4v-5.038a3.776,3.776,0,0,0-.164-1.283,1.351,1.351,0,0,0-.581-0.679,1.848,1.848,0,0,0-.979-0.253,2.274,2.274,0,0,0-1.549.569,2.811,2.811,0,0,0-.65,2.16v4.523h-1.4Z" transform="translate(-7.832 -9.777)"/><path class="cls-2" d="M339.918,374.009v-1.045A2.578,2.578,0,0,1,337.6,374.2a3.254,3.254,0,0,1-1.821-.546,3.593,3.593,0,0,1-1.287-1.525,5.275,5.275,0,0,1-.456-2.25,5.9,5.9,0,0,1,.413-2.25,3.261,3.261,0,0,1,1.24-1.548,3.317,3.317,0,0,1,1.849-.538,2.766,2.766,0,0,1,1.333.315,2.8,2.8,0,0,1,.952.823v-4.1h1.4v11.434h-1.3Zm-4.438-4.134a3.6,3.6,0,0,0,.671,2.379,2.023,2.023,0,0,0,1.583.788,1.987,1.987,0,0,0,1.564-.753,3.472,3.472,0,0,0,.644-2.3,3.894,3.894,0,0,0-.655-2.5,2.013,2.013,0,0,0-1.614-.8,1.947,1.947,0,0,0-1.564.765A3.773,3.773,0,0,0,335.479,369.875Z" transform="translate(-7.832 -9.777)"/><path class="cls-2" d="M348.832,372.987a5.233,5.233,0,0,1-1.5.936,4.344,4.344,0,0,1-1.548.273,3.01,3.01,0,0,1-2.1-.667,2.2,2.2,0,0,1-.733-1.7,2.266,2.266,0,0,1,.276-1.111,2.293,2.293,0,0,1,.726-0.808,3.44,3.44,0,0,1,1.01-.46,10.291,10.291,0,0,1,1.248-.211,12.787,12.787,0,0,0,2.5-.483c0-.192.008-0.314,0.008-0.366a1.549,1.549,0,0,0-.4-1.209,2.347,2.347,0,0,0-1.6-.476,2.478,2.478,0,0,0-1.462.347,2.122,2.122,0,0,0-.7,1.229l-1.372-.187a3.4,3.4,0,0,1,.615-1.423,2.7,2.7,0,0,1,1.24-.835,5.548,5.548,0,0,1,1.88-.292,4.962,4.962,0,0,1,1.724.25,2.271,2.271,0,0,1,.975.627,2.212,2.212,0,0,1,.437.956,7.889,7.889,0,0,1,.07,1.294v1.872a19.9,19.9,0,0,0,.09,2.477,3.119,3.119,0,0,0,.354.994h-1.466A2.965,2.965,0,0,1,348.832,372.987Zm-0.117-3.136a10.305,10.305,0,0,1-2.293.53,5.316,5.316,0,0,0-1.225.281,1.216,1.216,0,0,0-.554.456,1.239,1.239,0,0,0,.23,1.6,1.824,1.824,0,0,0,1.243.375,2.888,2.888,0,0,0,1.443-.355,2.18,2.18,0,0,0,.928-0.971,3.382,3.382,0,0,0,.227-1.4v-0.515Z" transform="translate(-7.832 -9.777)"/><path class="cls-2" d="M352.294,374.009v-8.282h1.264v1.255a3.442,3.442,0,0,1,.893-1.162,1.565,1.565,0,0,1,.9-0.28,2.735,2.735,0,0,1,1.442.452l-0.483,1.3a2.005,2.005,0,0,0-1.029-.3,1.34,1.34,0,0,0-.827.277,1.5,1.5,0,0,0-.522.769,5.49,5.49,0,0,0-.233,1.638v4.336h-1.4Z" transform="translate(-7.832 -9.777)"/><path class="cls-2" d="M363,374.009v-1.045a2.578,2.578,0,0,1-2.316,1.232,3.254,3.254,0,0,1-1.821-.546,3.593,3.593,0,0,1-1.287-1.525,5.275,5.275,0,0,1-.456-2.25,5.9,5.9,0,0,1,.413-2.25,3.261,3.261,0,0,1,1.24-1.548,3.317,3.317,0,0,1,1.849-.538,2.766,2.766,0,0,1,1.333.315,2.8,2.8,0,0,1,.952.823v-4.1h1.4v11.434H363Zm-4.438-4.134a3.6,3.6,0,0,0,.671,2.379,2.023,2.023,0,0,0,1.583.788,1.987,1.987,0,0,0,1.564-.753,3.472,3.472,0,0,0,.644-2.3,3.894,3.894,0,0,0-.655-2.5,2.013,2.013,0,0,0-1.614-.8,1.947,1.947,0,0,0-1.564.765A3.773,3.773,0,0,0,358.564,369.875Z" transform="translate(-7.832 -9.777)"/><path class="cls-2" d="M371.129,374.009V362.575h3.938a9.535,9.535,0,0,1,2.035.164,3.865,3.865,0,0,1,1.677.819,4.641,4.641,0,0,1,1.354,1.953,7.673,7.673,0,0,1,.448,2.718,8.01,8.01,0,0,1-.3,2.309,5.6,5.6,0,0,1-.78,1.665,4.14,4.14,0,0,1-1.041,1.037,4.224,4.224,0,0,1-1.365.573,7.79,7.79,0,0,1-1.836.2h-4.126Zm1.513-1.35h2.441a5.923,5.923,0,0,0,1.774-.21,2.541,2.541,0,0,0,1.025-.593,3.612,3.612,0,0,0,.838-1.447,7.069,7.069,0,0,0,.3-2.2,5.322,5.322,0,0,0-.589-2.757A2.97,2.97,0,0,0,377,364.158a5.933,5.933,0,0,0-1.957-.233h-2.4v8.734Z" transform="translate(-7.832 -9.777)"/><path class="cls-2" d="M388.154,371.342l1.451,0.179a3.546,3.546,0,0,1-1.271,1.974,4.307,4.307,0,0,1-5.253-.417,4.373,4.373,0,0,1-1.064-3.14,4.575,4.575,0,0,1,1.076-3.244,3.644,3.644,0,0,1,2.792-1.154,3.539,3.539,0,0,1,2.714,1.131,4.492,4.492,0,0,1,1.053,3.182c0,0.084,0,.208-0.008.375h-6.177a3.186,3.186,0,0,0,.772,2.09,2.3,2.3,0,0,0,1.731.726,2.149,2.149,0,0,0,1.318-.406A2.688,2.688,0,0,0,388.154,371.342Zm-4.609-2.27h4.625a2.8,2.8,0,0,0-.53-1.567,2.152,2.152,0,0,0-1.739-.812,2.23,2.23,0,0,0-1.626.647A2.563,2.563,0,0,0,383.545,369.072Z" transform="translate(-7.832 -9.777)"/><path class="cls-2" d="M393.668,374.009l-3.15-8.282H392l1.778,4.96q0.289,0.8.53,1.669,0.188-.655.522-1.575l1.841-5.054h1.442l-3.135,8.282h-1.311Z" transform="translate(-7.832 -9.777)"/><path class="cls-2" d="M399.361,364.189v-1.614h1.4v1.614h-1.4Zm0,9.819v-8.282h1.4v8.282h-1.4Z" transform="translate(-7.832 -9.777)"/><path class="cls-2" d="M408.308,372.987a5.233,5.233,0,0,1-1.5.936,4.344,4.344,0,0,1-1.548.273,3.01,3.01,0,0,1-2.1-.667,2.2,2.2,0,0,1-.733-1.7,2.266,2.266,0,0,1,.276-1.111,2.293,2.293,0,0,1,.726-0.808,3.44,3.44,0,0,1,1.01-.46,10.291,10.291,0,0,1,1.248-.211,12.787,12.787,0,0,0,2.5-.483c0-.192.008-0.314,0.008-0.366a1.549,1.549,0,0,0-.4-1.209,2.347,2.347,0,0,0-1.6-.476,2.478,2.478,0,0,0-1.462.347,2.122,2.122,0,0,0-.7,1.229l-1.372-.187a3.4,3.4,0,0,1,.615-1.423,2.7,2.7,0,0,1,1.24-.835,5.548,5.548,0,0,1,1.88-.292,4.962,4.962,0,0,1,1.724.25,2.271,2.271,0,0,1,.975.627,2.212,2.212,0,0,1,.437.956,7.889,7.889,0,0,1,.07,1.294v1.872a19.9,19.9,0,0,0,.09,2.477,3.119,3.119,0,0,0,.354.994h-1.466A2.965,2.965,0,0,1,408.308,372.987Zm-0.117-3.136a10.305,10.305,0,0,1-2.293.53,5.316,5.316,0,0,0-1.225.281,1.216,1.216,0,0,0-.554.456,1.239,1.239,0,0,0,.23,1.6,1.824,1.824,0,0,0,1.243.375,2.888,2.888,0,0,0,1.443-.355,2.18,2.18,0,0,0,.928-0.971,3.382,3.382,0,0,0,.227-1.4v-0.515Z" transform="translate(-7.832 -9.777)"/><path class="cls-2" d="M414.851,372.753l0.2,1.24a5.211,5.211,0,0,1-1.061.125,2.4,2.4,0,0,1-1.186-.242,1.355,1.355,0,0,1-.593-0.636,5.03,5.03,0,0,1-.171-1.657v-4.765h-1.029v-1.092h1.029v-2.052l1.4-.842v2.894h1.412v1.092h-1.412v4.843a2.434,2.434,0,0,0,.074.772,0.583,0.583,0,0,0,.242.272,0.924,0.924,0,0,0,.479.1A4.454,4.454,0,0,0,414.851,372.753Z" transform="translate(-7.832 -9.777)"/><path class="cls-2" d="M416.23,364.189v-1.614h1.4v1.614h-1.4Zm0,9.819v-8.282h1.4v8.282h-1.4Z" transform="translate(-7.832 -9.777)"/><path class="cls-2" d="M419.249,369.867a4.271,4.271,0,0,1,1.279-3.408,3.853,3.853,0,0,1,2.6-.92,3.716,3.716,0,0,1,2.792,1.119,4.259,4.259,0,0,1,1.084,3.093,5.469,5.469,0,0,1-.479,2.515,3.393,3.393,0,0,1-1.4,1.424,4.068,4.068,0,0,1-2,.507,3.725,3.725,0,0,1-2.812-1.115A4.456,4.456,0,0,1,419.249,369.867Zm1.443,0a3.527,3.527,0,0,0,.693,2.383,2.311,2.311,0,0,0,3.486,0,3.611,3.611,0,0,0,.694-2.426,3.418,3.418,0,0,0-.7-2.327,2.314,2.314,0,0,0-3.482,0A3.508,3.508,0,0,0,420.692,369.867Z" transform="translate(-7.832 -9.777)"/><path class="cls-2" d="M428.654,374.009v-8.282h1.264V366.9a2.977,2.977,0,0,1,2.636-1.365,3.457,3.457,0,0,1,1.377.27,2.163,2.163,0,0,1,.939.705,2.717,2.717,0,0,1,.437,1.037,7.971,7.971,0,0,1,.078,1.365v5.093h-1.4v-5.038a3.776,3.776,0,0,0-.164-1.283,1.351,1.351,0,0,0-.581-0.679,1.848,1.848,0,0,0-.979-0.253,2.274,2.274,0,0,0-1.549.569,2.811,2.811,0,0,0-.65,2.16v4.523h-1.4Z" transform="translate(-7.832 -9.777)"/><path class="cls-2" d="M438.458,377.37h-1.007a14.075,14.075,0,0,0,2.332-7.5,12.812,12.812,0,0,0-.335-2.909,12.231,12.231,0,0,0-.741-2.246,26.376,26.376,0,0,0-1.256-2.339h1.007a14.992,14.992,0,0,1,2.168,3.931,10.739,10.739,0,0,1-.207,7.627A14.307,14.307,0,0,1,438.458,377.37Z" transform="translate(-7.832 -9.777)"/><path class="cls-2" d="M26.309,217.694H14.875v-5.069a6.753,6.753,0,0,1,.308-2.324,2.545,2.545,0,0,1,1.088-1.271,3.246,3.246,0,0,1,1.723-.476,2.876,2.876,0,0,1,2.051.788,3.983,3.983,0,0,1,1.061,2.433,3.936,3.936,0,0,1,.569-0.912,7.865,7.865,0,0,1,1.521-1.256l3.112-1.989v1.9l-2.379,1.513q-1.029.663-1.575,1.092a3.44,3.44,0,0,0-.764.768,2.277,2.277,0,0,0-.3.69,4.52,4.52,0,0,0-.055.842v1.755h5.077v1.513Zm-6.387-1.513v-3.252a4.874,4.874,0,0,0-.215-1.622,1.723,1.723,0,0,0-.686-0.889,1.857,1.857,0,0,0-1.026-.3,1.7,1.7,0,0,0-1.333.589,2.757,2.757,0,0,0-.522,1.86v3.619h3.783Z" transform="translate(-7.832 -9.777)"/><path class="cls-2" d="M23.641,200.693l0.18-1.451a3.541,3.541,0,0,1,1.973,1.271,4.308,4.308,0,0,1-.417,5.253,4.374,4.374,0,0,1-3.139,1.064,4.578,4.578,0,0,1-3.244-1.076,3.644,3.644,0,0,1-1.154-2.792,3.542,3.542,0,0,1,1.131-2.714,4.494,4.494,0,0,1,3.182-1.053c0.083,0,.208,0,0.374.008v6.177a3.18,3.18,0,0,0,2.09-.772,2.3,2.3,0,0,0,.725-1.731,2.146,2.146,0,0,0-.405-1.318A2.7,2.7,0,0,0,23.641,200.693Zm-2.27,4.609v-4.625a2.809,2.809,0,0,0-1.567.53,2.152,2.152,0,0,0-.811,1.739,2.23,2.23,0,0,0,.647,1.626A2.56,2.56,0,0,0,21.372,205.3Z" transform="translate(-7.832 -9.777)"/><path class="cls-2" d="M25.053,194.414l1.24-.2a5.227,5.227,0,0,1,.125,1.061,2.4,2.4,0,0,1-.242,1.185,1.349,1.349,0,0,1-.635.593,5.014,5.014,0,0,1-1.657.172H19.118v1.029H18.026v-1.029H15.975l-0.842-1.4h2.893v-1.412h1.092v1.412h4.843a2.452,2.452,0,0,0,.772-0.074,0.586,0.586,0,0,0,.273-0.242,0.938,0.938,0,0,0,.1-0.48A4.525,4.525,0,0,0,25.053,194.414Z" transform="translate(-7.832 -9.777)"/><path class="cls-2" d="M26.309,187.614H25.092a3.031,3.031,0,0,1,1.4,2.628,3.344,3.344,0,0,1-.281,1.369,2.25,2.25,0,0,1-.706.943,2.639,2.639,0,0,1-1.041.433,7.136,7.136,0,0,1-1.311.086H18.026v-1.4H22.62a8.192,8.192,0,0,0,1.482-.086,1.464,1.464,0,0,0,.87-0.562,1.741,1.741,0,0,0,.316-1.061,2.31,2.31,0,0,0-.324-1.186,1.8,1.8,0,0,0-.881-0.784,4.421,4.421,0,0,0-1.618-.23H18.026v-1.4h8.283v1.256Z" transform="translate(-7.832 -9.777)"/><path class="cls-2" d="M26.309,184.174H18.026v-1.264h1.256a3.425,3.425,0,0,1-1.162-.893,1.56,1.56,0,0,1-.281-0.9,2.74,2.74,0,0,1,.452-1.442l1.3,0.483a2,2,0,0,0-.3,1.029,1.336,1.336,0,0,0,.277.827,1.5,1.5,0,0,0,.768.522,5.458,5.458,0,0,0,1.638.234h4.336v1.4Z" transform="translate(-7.832 -9.777)"/><path class="cls-2" d="M26.309,178.84H18.026v-1.264H19.2a2.977,2.977,0,0,1-1.365-2.636,3.463,3.463,0,0,1,.269-1.377,2.161,2.161,0,0,1,.706-0.939,2.712,2.712,0,0,1,1.037-.437,8.072,8.072,0,0,1,1.365-.078h5.093v1.4H21.271a3.782,3.782,0,0,0-1.283.164,1.35,1.35,0,0,0-.678.581,1.849,1.849,0,0,0-.253.979,2.275,2.275,0,0,0,.569,1.548,2.808,2.808,0,0,0,2.16.651h4.523v1.4Z" transform="translate(-7.832 -9.777)"/><line class="cls-3" x1="65.296" y1="320.562" x2="620.668" y2="49.843"/><line class="cls-3" x1="65.296" y1="265.031" x2="620.668" y2="265.031"/><line class="cls-3" x1="65.296" y1="104.82" x2="620.668" y2="104.82"/><line class="cls-3" x1="65.296" y1="158.316" x2="620.668" y2="158.316"/><line class="cls-3" x1="65.296" y1="212.235" x2="620.668" y2="212.235"/><line class="cls-3" x1="113.886" y1="49.843" x2="113.886" y2="320.562"/><line class="cls-3" x1="309.105" y1="49.843" x2="309.105" y2="320.562"/><line class="cls-3" x1="362.015" y1="49.843" x2="362.015" y2="320.562"/><line class="cls-3" x1="261.06" y1="49.843" x2="261.06" y2="320.562"/><line class="cls-3" x1="411.276" y1="49.843" x2="411.276" y2="320.562"/><line class="cls-3" x1="464.186" y1="49.843" x2="464.186" y2="320.562"/><line class="cls-3" x1="517.704" y1="49.843" x2="517.704" y2="320.562"/><line class="cls-3" x1="569.398" y1="49.843" x2="569.398" y2="320.562"/><line class="cls-3" x1="208.759" y1="49.843" x2="208.759" y2="320.562"/><line class="cls-3" x1="161.262" y1="49.843" x2="161.262" y2="320.562"/><path class="cls-2" d="M85.4,321.964l1.513,0.382a5.089,5.089,0,0,1-1.712,2.842,4.712,4.712,0,0,1-3.022.979,5.429,5.429,0,0,1-3.006-.753,4.7,4.7,0,0,1-1.763-2.18,7.78,7.78,0,0,1-.6-3.065,6.734,6.734,0,0,1,.683-3.116,4.671,4.671,0,0,1,1.942-2.02,5.669,5.669,0,0,1,2.772-.69,4.689,4.689,0,0,1,2.886.874,4.537,4.537,0,0,1,1.63,2.457l-1.49.351a3.533,3.533,0,0,0-1.154-1.817,3.074,3.074,0,0,0-1.9-.569,3.7,3.7,0,0,0-2.2.631,3.338,3.338,0,0,0-1.244,1.7,6.83,6.83,0,0,0-.358,2.2,6.982,6.982,0,0,0,.425,2.546,3.166,3.166,0,0,0,1.322,1.626,3.713,3.713,0,0,0,1.942.538,3.251,3.251,0,0,0,2.152-.733A3.751,3.751,0,0,0,85.4,321.964Z" transform="translate(-7.832 -9.777)"/><path class="cls-2" d="M88.781,325.973V314.539h4.313a10.413,10.413,0,0,1,1.739.109,3.452,3.452,0,0,1,1.412.534,2.806,2.806,0,0,1,.917,1.1,3.721,3.721,0,0,1-.581,4.028,4.452,4.452,0,0,1-3.354,1.01H90.294v4.648H88.781Zm1.513-6H93.25a3.132,3.132,0,0,0,2.082-.546,1.945,1.945,0,0,0,.616-1.536,2.068,2.068,0,0,0-.362-1.229,1.7,1.7,0,0,0-.956-0.675,6.487,6.487,0,0,0-1.412-.1H90.294v4.086Z" transform="translate(-7.832 -9.777)"/><path class="cls-2" d="M99.692,325.973V314.539H101.2v11.434H99.692Z" transform="translate(-7.832 -9.777)"/><path class="cls-4" d="M92.909,291.586l2.122-.234a1.535,1.535,0,0,0,.405.959,1.2,1.2,0,0,0,.866.312A1.411,1.411,0,0,0,97.456,292a5.313,5.313,0,0,0,.608-2.589A2.616,2.616,0,0,1,96,290.37a3.087,3.087,0,0,1-2.328-1.042,3.794,3.794,0,0,1-.979-2.71,3.852,3.852,0,0,1,1.034-2.8,3.74,3.74,0,0,1,5.486.281,6.95,6.95,0,0,1,1.115,4.426,7.034,7.034,0,0,1-1.162,4.523,3.758,3.758,0,0,1-3.026,1.388,3.2,3.2,0,0,1-2.168-.713A3.446,3.446,0,0,1,92.909,291.586Zm4.96-4.789a2.5,2.5,0,0,0-.487-1.646,1.44,1.44,0,0,0-1.127-.585,1.263,1.263,0,0,0-1.01.48,2.447,2.447,0,0,0-.4,1.571,2.5,2.5,0,0,0,.437,1.626,1.37,1.37,0,0,0,1.092.519,1.354,1.354,0,0,0,1.064-.5A2.179,2.179,0,0,0,97.87,286.8Z" transform="translate(-7.832 -9.777)"/><path class="cls-4" d="M107.354,294.23h-2.191v-8.259a7.549,7.549,0,0,1-2.831,1.661v-1.989a6.339,6.339,0,0,0,1.864-1.064,4.042,4.042,0,0,0,1.38-1.829h1.778v11.48Z" transform="translate(-7.832 -9.777)"/><path class="cls-4" d="M110.848,291.181v-2.191h4.305v2.191h-4.305Z" transform="translate(-7.832 -9.777)"/><path class="cls-4" d="M116.424,282.8h4.219a8.237,8.237,0,0,1,2.176.219,3.824,3.824,0,0,1,1.724,1.053,5,5,0,0,1,1.092,1.852,8.442,8.442,0,0,1,.375,2.7,7.516,7.516,0,0,1-.351,2.433,5.042,5.042,0,0,1-1.224,2.02,4.06,4.06,0,0,1-1.623.913,6.983,6.983,0,0,1-2.043.242h-4.344V282.8Zm2.309,1.935V292.3h1.724a6.291,6.291,0,0,0,1.4-.109,2.125,2.125,0,0,0,.932-0.476,2.418,2.418,0,0,0,.6-1.1,7.449,7.449,0,0,0,.234-2.094,6.823,6.823,0,0,0-.234-2.036,2.616,2.616,0,0,0-.655-1.107,2.2,2.2,0,0,0-1.069-.538,10.478,10.478,0,0,0-1.9-.109h-1.037Z" transform="translate(-7.832 -9.777)"/><path class="cls-4" d="M129.588,288.474l-1.989-.358a3.1,3.1,0,0,1,1.154-1.778,4.223,4.223,0,0,1,2.433-.577,5.245,5.245,0,0,1,2.184.347,2.177,2.177,0,0,1,1.01.881,4.52,4.52,0,0,1,.292,1.961l-0.023,2.558a8.863,8.863,0,0,0,.105,1.61,4.7,4.7,0,0,0,.394,1.111h-2.168q-0.086-.218-0.21-0.647c-0.037-.13-0.062-0.215-0.078-0.257a3.943,3.943,0,0,1-1.2.819,3.435,3.435,0,0,1-1.365.273,2.823,2.823,0,0,1-2.016-.694,2.308,2.308,0,0,1-.737-1.755,2.357,2.357,0,0,1,.335-1.252,2.2,2.2,0,0,1,.939-0.842,7.353,7.353,0,0,1,1.743-.511,11.941,11.941,0,0,0,2.129-.538v-0.218a1.134,1.134,0,0,0-.312-0.9,1.871,1.871,0,0,0-1.178-.269,1.569,1.569,0,0,0-.913.23A1.6,1.6,0,0,0,129.588,288.474Zm2.933,1.778a13.622,13.622,0,0,1-1.334.335,4.005,4.005,0,0,0-1.193.382,0.913,0.913,0,0,0-.429.772,1.074,1.074,0,0,0,.343.8,1.2,1.2,0,0,0,.874.335,1.9,1.9,0,0,0,1.131-.39,1.371,1.371,0,0,0,.522-0.725,4.331,4.331,0,0,0,.086-1.068v-0.437Z" transform="translate(-7.832 -9.777)"/><path class="cls-4" d="M135.8,285.947h2.332l1.981,5.881,1.934-5.881h2.27l-2.924,7.971-0.522,1.443a5.911,5.911,0,0,1-.55,1.107,2.4,2.4,0,0,1-.6.62,2.633,2.633,0,0,1-.834.371,4.339,4.339,0,0,1-1.119.132,5.808,5.808,0,0,1-1.24-.132l-0.195-1.716a4.862,4.862,0,0,0,.928.1,1.375,1.375,0,0,0,1.131-.448,3.108,3.108,0,0,0,.562-1.143Z" transform="translate(-7.832 -9.777)"/><path class="cls-4" d="M98.15,313.4v-9.5H94.758v-1.935h9.086V303.9h-3.385v9.5H98.15Z" transform="translate(-7.832 -9.777)"/><path class="cls-4" d="M104.187,310.348v-2.191h4.305v2.191h-4.305Z" transform="translate(-7.832 -9.777)"/><path class="cls-4" d="M109.778,301.963h4.57a13.23,13.23,0,0,1,2.024.113,2.981,2.981,0,0,1,1.193.472,2.932,2.932,0,0,1,.877.956,2.59,2.59,0,0,1,.351,1.337,2.712,2.712,0,0,1-1.606,2.48,3.009,3.009,0,0,1,1.606,1.037,2.753,2.753,0,0,1,.562,1.724,3.4,3.4,0,0,1-.363,1.517,3.051,3.051,0,0,1-.99,1.178,3.269,3.269,0,0,1-1.548.542q-0.577.063-2.784,0.078h-3.892V301.963Zm2.309,1.9v2.644H113.6q1.349,0,1.677-.039a1.528,1.528,0,0,0,.932-0.41,1.208,1.208,0,0,0,.339-0.893,1.256,1.256,0,0,0-.292-0.862,1.323,1.323,0,0,0-.87-0.4q-0.344-.04-1.973-0.039h-1.326Zm0,4.547v3.057h2.137a10.43,10.43,0,0,0,1.583-.07,1.433,1.433,0,0,0,.838-0.456,1.406,1.406,0,0,0,.323-0.971,1.491,1.491,0,0,0-.25-0.874,1.414,1.414,0,0,0-.721-0.522,7.84,7.84,0,0,0-2.047-.164h-1.864Z" transform="translate(-7.832 -9.777)"/><path class="cls-4" d="M121.29,303.991v-2.028h2.191v2.028H121.29Zm0,9.406v-8.283h2.191V313.4H121.29Z" transform="translate(-7.832 -9.777)"/><path class="cls-4" d="M125.727,313.4V301.963h2.191V313.4h-2.191Z" transform="translate(-7.832 -9.777)"/><path class="cls-4" d="M130.165,313.4V301.963h2.191V313.4h-2.191Z" transform="translate(-7.832 -9.777)"/><path class="cls-4" d="M133.83,311.034l2.2-.335a1.61,1.61,0,0,0,.569.971,1.921,1.921,0,0,0,1.2.332,2.168,2.168,0,0,0,1.279-.312,0.7,0.7,0,0,0,.289-0.585,0.576,0.576,0,0,0-.156-0.413,1.75,1.75,0,0,0-.733-0.289,11.814,11.814,0,0,1-3.361-1.069,2.133,2.133,0,0,1-.982-1.864,2.3,2.3,0,0,1,.85-1.81,3.971,3.971,0,0,1,2.636-.733,4.6,4.6,0,0,1,2.527.554,2.83,2.83,0,0,1,1.139,1.638l-2.066.382a1.279,1.279,0,0,0-.5-0.741,1.837,1.837,0,0,0-1.057-.258,2.379,2.379,0,0,0-1.24.242,0.519,0.519,0,0,0-.25.444,0.485,0.485,0,0,0,.219.4,8.226,8.226,0,0,0,2.047.616,6.1,6.1,0,0,1,2.445.975,2.026,2.026,0,0,1,.686,1.63,2.5,2.5,0,0,1-.951,1.958,4.213,4.213,0,0,1-2.815.819,4.62,4.62,0,0,1-2.679-.686A3.162,3.162,0,0,1,133.83,311.034Z" transform="translate(-7.832 -9.777)"/><path class="cls-4" d="M401.233,289.88V278.447h8.478v1.935h-6.169v2.535h5.74v1.926h-5.74v3.112h6.388v1.926h-8.7Z" transform="translate(-7.832 -9.777)"/><path class="cls-4" d="M422.2,289.88h-2.512l-1-2.6h-4.57l-0.943,2.6h-2.449l4.453-11.434h2.441Zm-4.251-4.523-1.575-4.243-1.544,4.243h3.119Z" transform="translate(-7.832 -9.777)"/><path class="cls-4" d="M423.438,289.88V278.447h7.838v1.935h-5.529v2.706h4.772v1.934h-4.772v4.859h-2.309Z" transform="translate(-7.832 -9.777)"/><path class="cls-4" d="M433.179,289.88V278.447h8.478v1.935h-6.169v2.535h5.74v1.926h-5.74v3.112h6.388v1.926h-8.7Z" transform="translate(-7.832 -9.777)"/><path class="cls-4" d="M347.873,234.442l2.246-.218a2.734,2.734,0,0,0,.823,1.661,2.487,2.487,0,0,0,1.673.53,2.572,2.572,0,0,0,1.681-.472,1.4,1.4,0,0,0,.565-1.1,1.044,1.044,0,0,0-.238-0.69,1.9,1.9,0,0,0-.831-0.5q-0.4-.141-1.848-0.5a6.271,6.271,0,0,1-2.605-1.131,2.978,2.978,0,0,1-1.053-2.3,2.939,2.939,0,0,1,.5-1.634,3.1,3.1,0,0,1,1.428-1.158,5.719,5.719,0,0,1,2.25-.4,4.828,4.828,0,0,1,3.24.944A3.328,3.328,0,0,1,356.842,230l-2.309.1a1.958,1.958,0,0,0-.636-1.268,2.326,2.326,0,0,0-1.462-.386,2.637,2.637,0,0,0-1.575.414,0.831,0.831,0,0,0-.367.709,0.877,0.877,0,0,0,.344.694,6.061,6.061,0,0,0,2.121.764,11.206,11.206,0,0,1,2.492.823,3.21,3.21,0,0,1,1.263,1.162,3.594,3.594,0,0,1-.09,3.662,3.265,3.265,0,0,1-1.544,1.275,6.481,6.481,0,0,1-2.487.417,4.951,4.951,0,0,1-3.33-1A4.354,4.354,0,0,1,347.873,234.442Z" transform="translate(-7.832 -9.777)"/><path class="cls-4" d="M369.227,236.766l-1.326,1.692a7.741,7.741,0,0,1-1.871-1.31,4.7,4.7,0,0,1-1.475.92,5.219,5.219,0,0,1-1.855.3,4.1,4.1,0,0,1-3.214-1.2,3.105,3.105,0,0,1-.834-2.137,3.218,3.218,0,0,1,.655-1.977,5.35,5.35,0,0,1,1.957-1.524,6.208,6.208,0,0,1-.881-1.322,2.783,2.783,0,0,1-.3-1.189,2.245,2.245,0,0,1,.831-1.758,3.5,3.5,0,0,1,2.367-.722,3.323,3.323,0,0,1,2.315.756,2.4,2.4,0,0,1,.835,1.849,2.347,2.347,0,0,1-.413,1.318,5.6,5.6,0,0,1-1.669,1.412l1.591,2.1a5.376,5.376,0,0,0,.483-1.3l1.98,0.453a12.128,12.128,0,0,1-.515,1.54,4.11,4.11,0,0,1-.468.815,8.917,8.917,0,0,0,.948.752A7.134,7.134,0,0,0,369.227,236.766ZM362.4,232.93a2.973,2.973,0,0,0-1.131.92,1.911,1.911,0,0,0-.374,1.1,1.538,1.538,0,0,0,.464,1.158,1.713,1.713,0,0,0,1.244.449,2.5,2.5,0,0,0,.99-0.2,4.294,4.294,0,0,0,1.037-.67Zm0.858-2.379,0.593-.452a1.363,1.363,0,0,0,.654-1.006,0.945,0.945,0,0,0-.315-0.717,1.4,1.4,0,0,0-1.673-.035,0.788,0.788,0,0,0-.3.6,1.655,1.655,0,0,0,.5.982Z" transform="translate(-7.832 -9.777)"/><path class="cls-4" d="M370.646,238.162V226.729h3.7a13.445,13.445,0,0,1,2.746.172,3,3,0,0,1,1.646,1.119,3.553,3.553,0,0,1,.662,2.227,3.729,3.729,0,0,1-.382,1.771,3.134,3.134,0,0,1-.971,1.127,3.349,3.349,0,0,1-1.2.542,13.21,13.21,0,0,1-2.395.164h-1.5v4.313h-2.309Zm2.309-9.5v3.244h1.264a5.966,5.966,0,0,0,1.824-.179,1.515,1.515,0,0,0,.722-0.562,1.54,1.54,0,0,0,.262-0.889,1.477,1.477,0,0,0-.367-1.029,1.6,1.6,0,0,0-.928-0.507,11.142,11.142,0,0,0-1.661-.078h-1.115Z" transform="translate(-7.832 -9.777)"/><path class="cls-4" d="M385,235.222l2.184-.226a1.874,1.874,0,0,0,.554,1.174,1.5,1.5,0,0,0,1.061.433,1.473,1.473,0,0,0,1.162-.558,2.535,2.535,0,0,0,.476-1.681,2.3,2.3,0,0,0-.472-1.579,1.573,1.573,0,0,0-1.229-.526,2.233,2.233,0,0,0-1.692.834l-1.778-.257,1.123-5.951h5.795v2.051h-4.134l-0.343,1.942a3.35,3.35,0,0,1,3.97.694,3.821,3.821,0,0,1,1.014,2.753,4.128,4.128,0,0,1-.818,2.519,3.632,3.632,0,0,1-3.1,1.513,3.84,3.84,0,0,1-2.581-.85A3.5,3.5,0,0,1,385,235.222Z" transform="translate(-7.832 -9.777)"/><path class="cls-4" d="M397.553,226.683a3.126,3.126,0,0,1,2.6,1.185q1.115,1.4,1.115,4.656t-1.123,4.664a3.12,3.12,0,0,1-2.59,1.17,3.271,3.271,0,0,1-2.69-1.283q-1.022-1.283-1.021-4.574a7.551,7.551,0,0,1,1.123-4.648A3.116,3.116,0,0,1,397.553,226.683Zm0,1.817a1.1,1.1,0,0,0-.71.253,1.7,1.7,0,0,0-.483.909,18.625,18.625,0,0,0-.023,5.627,1.951,1.951,0,0,0,.511,1,1.122,1.122,0,0,0,1.416,0,1.7,1.7,0,0,0,.483-0.909,18.49,18.49,0,0,0,.023-5.619,1.97,1.97,0,0,0-.511-1.006A1.079,1.079,0,0,0,397.553,228.5Z" transform="translate(-7.832 -9.777)"/><path class="cls-4" d="M406.436,226.683a3.126,3.126,0,0,1,2.6,1.185q1.115,1.4,1.115,4.656t-1.123,4.664a3.12,3.12,0,0,1-2.59,1.17,3.271,3.271,0,0,1-2.69-1.283q-1.022-1.283-1.021-4.574a7.551,7.551,0,0,1,1.123-4.648A3.116,3.116,0,0,1,406.436,226.683Zm0,1.817a1.1,1.1,0,0,0-.71.253,1.7,1.7,0,0,0-.483.909,18.625,18.625,0,0,0-.023,5.627,1.951,1.951,0,0,0,.511,1,1.122,1.122,0,0,0,1.416,0,1.7,1.7,0,0,0,.483-0.909,18.49,18.49,0,0,0,.023-5.619,1.97,1.97,0,0,0-.511-1.006A1.079,1.079,0,0,0,406.436,228.5Z" transform="translate(-7.832 -9.777)"/><path class="cls-4" d="M545.087,217.064V205.63h2.246l4.68,7.635V205.63h2.145v11.434h-2.316l-4.609-7.456v7.456h-2.145Z" transform="translate(-7.832 -9.777)"/><path class="cls-4" d="M566.909,217.064H564.4l-1-2.6h-4.57l-0.943,2.6h-2.449l4.453-11.434h2.441Zm-4.251-4.523-1.575-4.243-1.544,4.243h3.119Z" transform="translate(-7.832 -9.777)"/><path class="cls-4" d="M567.549,213.344l2.246-.218a2.734,2.734,0,0,0,.823,1.661,2.487,2.487,0,0,0,1.673.53,2.572,2.572,0,0,0,1.681-.472,1.4,1.4,0,0,0,.565-1.1,1.044,1.044,0,0,0-.238-0.69,1.9,1.9,0,0,0-.831-0.5q-0.4-.141-1.848-0.5a6.271,6.271,0,0,1-2.605-1.131,2.978,2.978,0,0,1-1.053-2.3,2.939,2.939,0,0,1,.5-1.634,3.1,3.1,0,0,1,1.428-1.158,5.719,5.719,0,0,1,2.25-.4,4.828,4.828,0,0,1,3.24.944,3.328,3.328,0,0,1,1.143,2.519l-2.309.1a1.958,1.958,0,0,0-.636-1.268,2.326,2.326,0,0,0-1.462-.386,2.637,2.637,0,0,0-1.575.414,0.831,0.831,0,0,0-.367.709,0.877,0.877,0,0,0,.344.694,6.061,6.061,0,0,0,2.121.764,11.206,11.206,0,0,1,2.492.823,3.21,3.21,0,0,1,1.263,1.162,3.594,3.594,0,0,1-.09,3.662,3.265,3.265,0,0,1-1.544,1.275,6.481,6.481,0,0,1-2.487.417,4.951,4.951,0,0,1-3.33-1A4.354,4.354,0,0,1,567.549,213.344Z" transform="translate(-7.832 -9.777)"/><path class="cls-4" d="M578.779,205.63H583a8.242,8.242,0,0,1,2.177.219A3.83,3.83,0,0,1,586.9,206.9a5.015,5.015,0,0,1,1.092,1.852,8.457,8.457,0,0,1,.374,2.7,7.53,7.53,0,0,1-.351,2.433,5.042,5.042,0,0,1-1.225,2.02,4.058,4.058,0,0,1-1.622.913,6.993,6.993,0,0,1-2.044.242h-4.344V205.63Zm2.309,1.935v7.573h1.724a6.286,6.286,0,0,0,1.4-.109,2.126,2.126,0,0,0,.933-0.476,2.422,2.422,0,0,0,.6-1.1,7.488,7.488,0,0,0,.233-2.094,6.858,6.858,0,0,0-.233-2.036,2.627,2.627,0,0,0-.655-1.107,2.2,2.2,0,0,0-1.068-.538,10.488,10.488,0,0,0-1.9-.109h-1.037Z" transform="translate(-7.832 -9.777)"/><path class="cls-4" d="M600.633,217.064h-2.512l-1-2.6h-4.57l-0.943,2.6H589.16l4.453-11.434h2.441Zm-4.251-4.523-1.575-4.243-1.544,4.243h3.119Z" transform="translate(-7.832 -9.777)"/><path class="cls-4" d="M611.061,215.613a7.538,7.538,0,0,0,1.848.967l-0.85,1.63a5.23,5.23,0,0,1-1.021-.429q-0.11-.054-1.537-1.014a6.137,6.137,0,0,1-2.487.491,5.462,5.462,0,0,1-4.13-1.552,7.1,7.1,0,0,1,0-8.715,5.374,5.374,0,0,1,4.063-1.556,5.318,5.318,0,0,1,4.032,1.556,6.042,6.042,0,0,1,1.489,4.355,7.529,7.529,0,0,1-.413,2.6A5.424,5.424,0,0,1,611.061,215.613Zm-1.856-1.3a3.465,3.465,0,0,0,.667-1.264,5.949,5.949,0,0,0,.222-1.7,4.334,4.334,0,0,0-.873-2.959,3.157,3.157,0,0,0-4.574,0,4.321,4.321,0,0,0-.877,2.956,4.423,4.423,0,0,0,.877,3,2.832,2.832,0,0,0,2.219.994,2.71,2.71,0,0,0,.943-0.164,6.694,6.694,0,0,0-1.427-.718l0.647-1.318A7.836,7.836,0,0,1,609.2,214.311Z" transform="translate(-7.832 -9.777)"/><path class="cls-4" d="M183.11,247.844V236.5h2.308v9.414h5.74v1.926H183.11Z" transform="translate(-7.832 -9.777)"/><path class="cls-4" d="M192.812,236.411h4.57a13.23,13.23,0,0,1,2.024.113A2.981,2.981,0,0,1,200.6,237a2.932,2.932,0,0,1,.877.956,2.59,2.59,0,0,1,.351,1.337,2.712,2.712,0,0,1-1.606,2.48,3.009,3.009,0,0,1,1.606,1.037,2.753,2.753,0,0,1,.562,1.724,3.4,3.4,0,0,1-.363,1.517,3.051,3.051,0,0,1-.99,1.178,3.269,3.269,0,0,1-1.548.542q-0.577.063-2.784,0.078h-3.892V236.411Zm2.309,1.9v2.644h1.513q1.349,0,1.677-.039a1.528,1.528,0,0,0,.932-0.41,1.208,1.208,0,0,0,.339-0.893,1.256,1.256,0,0,0-.292-0.862,1.323,1.323,0,0,0-.87-0.4q-0.344-.04-1.973-0.039H195.12Zm0,4.547v3.057h2.137a10.43,10.43,0,0,0,1.583-.07,1.433,1.433,0,0,0,.838-0.456A1.406,1.406,0,0,0,200,244.42a1.491,1.491,0,0,0-.25-0.874,1.414,1.414,0,0,0-.721-0.522,7.84,7.84,0,0,0-2.047-.164H195.12Z" transform="translate(-7.832 -9.777)"/><path class="cls-4" d="M203.153,248.039l2.831-11.823h1.646l-2.862,11.823h-1.614Z" transform="translate(-7.832 -9.777)"/><path class="cls-4" d="M208.784,236.411h4.57a13.23,13.23,0,0,1,2.024.113,2.981,2.981,0,0,1,1.193.472,2.932,2.932,0,0,1,.877.956,2.59,2.59,0,0,1,.351,1.337,2.712,2.712,0,0,1-1.606,2.48,3.009,3.009,0,0,1,1.606,1.037,2.753,2.753,0,0,1,.562,1.724,3.4,3.4,0,0,1-.363,1.517,3.051,3.051,0,0,1-.99,1.178,3.269,3.269,0,0,1-1.548.542q-0.577.063-2.784,0.078h-3.892V236.411Zm2.309,1.9v2.644H212.6q1.349,0,1.677-.039a1.528,1.528,0,0,0,.932-0.41,1.208,1.208,0,0,0,.339-0.893,1.256,1.256,0,0,0-.292-0.862,1.323,1.323,0,0,0-.87-0.4q-0.344-.04-1.973-0.039h-1.326Zm0,4.547v3.057h2.137a10.43,10.43,0,0,0,1.583-.07,1.433,1.433,0,0,0,.838-0.456,1.406,1.406,0,0,0,.323-0.971,1.491,1.491,0,0,0-.25-0.874,1.414,1.414,0,0,0-.721-0.522,7.84,7.84,0,0,0-2.047-.164h-1.864Z" transform="translate(-7.832 -9.777)"/><path class="cls-4" d="M221.933,242.088l-1.989-.358a3.1,3.1,0,0,1,1.154-1.778,4.223,4.223,0,0,1,2.433-.577,5.245,5.245,0,0,1,2.184.347,2.177,2.177,0,0,1,1.01.881,4.52,4.52,0,0,1,.292,1.961l-0.023,2.558a8.863,8.863,0,0,0,.105,1.61,4.7,4.7,0,0,0,.394,1.111h-2.168q-0.086-.218-0.21-0.647c-0.037-.13-0.062-0.215-0.078-0.257a3.943,3.943,0,0,1-1.2.819,3.435,3.435,0,0,1-1.365.273,2.823,2.823,0,0,1-2.016-.694,2.308,2.308,0,0,1-.737-1.755,2.357,2.357,0,0,1,.335-1.252,2.2,2.2,0,0,1,.939-0.842,7.353,7.353,0,0,1,1.743-.511,11.941,11.941,0,0,0,2.129-.538v-0.218a1.134,1.134,0,0,0-.312-0.9,1.871,1.871,0,0,0-1.178-.269,1.569,1.569,0,0,0-.913.23A1.6,1.6,0,0,0,221.933,242.088Zm2.933,1.778a13.622,13.622,0,0,1-1.334.335,4.005,4.005,0,0,0-1.193.382,0.913,0.913,0,0,0-.429.772,1.074,1.074,0,0,0,.343.8,1.2,1.2,0,0,0,.874.335,1.9,1.9,0,0,0,1.131-.39,1.371,1.371,0,0,0,.522-0.725,4.331,4.331,0,0,0,.086-1.068v-0.437Z" transform="translate(-7.832 -9.777)"/><path class="cls-4" d="M231.276,247.844h-2.192v-8.283h2.036v1.178a3.536,3.536,0,0,1,.94-1.1,1.727,1.727,0,0,1,.947-0.265,2.778,2.778,0,0,1,1.443.414l-0.678,1.911a1.924,1.924,0,0,0-1.03-.359,1.217,1.217,0,0,0-.78.253,1.731,1.731,0,0,0-.5.917,13.031,13.031,0,0,0-.183,2.776v2.558Z" transform="translate(-7.832 -9.777)"/><path class="cls-4" d="M239.91,247.844V236.5h2.308v9.414h5.74v1.926H239.91Z" transform="translate(-7.832 -9.777)"/><path class="cls-4" d="M250.992,247.844v-9.5H247.6v-1.935h9.086v1.935H253.3v9.5h-2.309Z" transform="translate(-7.832 -9.777)"/><path class="cls-4" d="M182.447,262.808v-1.926h4.976v4.555a6.262,6.262,0,0,1-2.1,1.236,7.655,7.655,0,0,1-2.788.534,6.255,6.255,0,0,1-3.127-.752,4.785,4.785,0,0,1-2-2.152,6.957,6.957,0,0,1-.671-3.046,6.575,6.575,0,0,1,.749-3.174,5.041,5.041,0,0,1,2.191-2.129,5.914,5.914,0,0,1,2.737-.569,5.461,5.461,0,0,1,3.326.893,4.032,4.032,0,0,1,1.541,2.468l-2.293.429a2.422,2.422,0,0,0-.909-1.33,2.747,2.747,0,0,0-1.665-.487,3.127,3.127,0,0,0-2.406.959,4.039,4.039,0,0,0-.893,2.847,4.475,4.475,0,0,0,.9,3.053,3.021,3.021,0,0,0,2.371,1.018,3.972,3.972,0,0,0,1.455-.285,4.972,4.972,0,0,0,1.252-.69v-1.451h-2.644Z" transform="translate(-7.832 -9.777)"/><path class="cls-4" d="M189.029,262.753a4.478,4.478,0,0,1,.538-2.113,3.7,3.7,0,0,1,1.524-1.56,4.525,4.525,0,0,1,2.2-.538,4.135,4.135,0,0,1,3.081,1.221,4.218,4.218,0,0,1,1.2,3.084,4.269,4.269,0,0,1-1.212,3.116,4.1,4.1,0,0,1-3.053,1.236,4.809,4.809,0,0,1-2.172-.515,3.532,3.532,0,0,1-1.571-1.509A5.028,5.028,0,0,1,189.029,262.753Zm2.246,0.117a2.743,2.743,0,0,0,.585,1.887,1.912,1.912,0,0,0,2.882,0,2.782,2.782,0,0,0,.581-1.9,2.733,2.733,0,0,0-.581-1.872,1.913,1.913,0,0,0-2.882,0A2.744,2.744,0,0,0,191.275,262.87Z" transform="translate(-7.832 -9.777)"/><path class="cls-4" d="M201.57,267.011l-3.338-8.283h2.3l1.56,4.227,0.452,1.412q0.179-.538.227-0.709,0.109-.351.234-0.7l1.575-4.227h2.254l-3.291,8.283H201.57Z" transform="translate(-7.832 -9.777)"/><path class="cls-4" d="M211.974,258.728v1.747h-1.5v3.338A8.259,8.259,0,0,0,210.52,265a0.479,0.479,0,0,0,.195.277,0.619,0.619,0,0,0,.371.109,2.845,2.845,0,0,0,.881-0.21l0.187,1.7a4.352,4.352,0,0,1-1.731.328,2.741,2.741,0,0,1-1.068-.2,1.559,1.559,0,0,1-.7-0.515,2.033,2.033,0,0,1-.308-0.854,10.632,10.632,0,0,1-.07-1.544v-3.611h-1.006v-1.747h1.006v-1.646l2.2-1.279v2.924h1.5Z" transform="translate(-7.832 -9.777)"/><path class="cls-4" d="M212.325,267.206l2.831-11.823H216.8l-2.862,11.823h-1.614Z" transform="translate(-7.832 -9.777)"/><path class="cls-4" d="M225.263,262.808l2.238,0.709a5.021,5.021,0,0,1-1.712,2.781,5.388,5.388,0,0,1-6.781-.647,5.954,5.954,0,0,1-1.466-4.254,6.251,6.251,0,0,1,1.474-4.434,5.054,5.054,0,0,1,3.876-1.58,4.755,4.755,0,0,1,3.408,1.24,4.507,4.507,0,0,1,1.17,2.105l-2.285.546a2.362,2.362,0,0,0-2.41-1.918,2.6,2.6,0,0,0-2.063.913,4.473,4.473,0,0,0-.792,2.956,4.8,4.8,0,0,0,.78,3.089,2.533,2.533,0,0,0,2.028.92,2.311,2.311,0,0,0,1.583-.585A3.4,3.4,0,0,0,225.263,262.808Z" transform="translate(-7.832 -9.777)"/><path class="cls-4" d="M231.565,267.011h-2.192v-8.283h2.036v1.178a3.536,3.536,0,0,1,.94-1.1,1.727,1.727,0,0,1,.947-0.265,2.778,2.778,0,0,1,1.443.414l-0.678,1.911a1.924,1.924,0,0,0-1.03-.359,1.217,1.217,0,0,0-.78.253,1.731,1.731,0,0,0-.5.917,13.031,13.031,0,0,0-.183,2.776v2.558Z" transform="translate(-7.832 -9.777)"/><path class="cls-4" d="M240.479,264.375l2.184,0.367a3.583,3.583,0,0,1-1.33,1.829,3.908,3.908,0,0,1-2.273.627,3.7,3.7,0,0,1-3.2-1.412,4.741,4.741,0,0,1-.819-2.854,4.574,4.574,0,0,1,1.076-3.225,3.545,3.545,0,0,1,2.722-1.166,3.676,3.676,0,0,1,2.917,1.221,5.4,5.4,0,0,1,1.022,3.739h-5.491a2.217,2.217,0,0,0,.53,1.517,1.659,1.659,0,0,0,1.264.542,1.343,1.343,0,0,0,.866-0.281A1.734,1.734,0,0,0,240.479,264.375Zm0.125-2.215a2.111,2.111,0,0,0-.492-1.447,1.582,1.582,0,0,0-2.324.027,2.024,2.024,0,0,0-.46,1.419H240.6Z" transform="translate(-7.832 -9.777)"/><path class="cls-4" d="M252.162,267.011h-2.036v-1.217a3.288,3.288,0,0,1-1.2,1.057,3.075,3.075,0,0,1-1.392.347,3.155,3.155,0,0,1-2.445-1.15,4.677,4.677,0,0,1-1.018-3.209,4.626,4.626,0,0,1,.99-3.2,3.229,3.229,0,0,1,2.5-1.1,3.1,3.1,0,0,1,2.4,1.154v-4.118h2.191v11.434Zm-5.849-4.321a3.8,3.8,0,0,0,.366,1.919,1.656,1.656,0,0,0,1.482.857,1.614,1.614,0,0,0,1.287-.643,2.97,2.97,0,0,0,.53-1.922,3.253,3.253,0,0,0-.515-2.055,1.692,1.692,0,0,0-2.625-.008A2.8,2.8,0,0,0,246.313,262.69Z" transform="translate(-7.832 -9.777)"/><path class="cls-4" d="M254.322,257.605v-2.028h2.191v2.028h-2.191Zm0,9.406v-8.283h2.191v8.283h-2.191Z" transform="translate(-7.832 -9.777)"/><path class="cls-4" d="M262.558,258.728v1.747h-1.5v3.338A8.259,8.259,0,0,0,261.1,265a0.479,0.479,0,0,0,.195.277,0.619,0.619,0,0,0,.371.109,2.845,2.845,0,0,0,.881-0.21l0.187,1.7a4.352,4.352,0,0,1-1.731.328,2.741,2.741,0,0,1-1.068-.2,1.559,1.559,0,0,1-.7-0.515,2.033,2.033,0,0,1-.308-0.854,10.632,10.632,0,0,1-.07-1.544v-3.611h-1.006v-1.747h1.006v-1.646l2.2-1.279v2.924h1.5Z" transform="translate(-7.832 -9.777)"/></svg>