<svg id="Layer_1" data-name="Layer 1" xmlns="http://www.w3.org/2000/svg" viewBox="0 0 528.525 394.79"><defs><style>.cls-1{fill:#fcf6ae;}.cls-10,.cls-11,.cls-13,.cls-2,.cls-3,.cls-4,.cls-7,.cls-8,.cls-9{fill:none;}.cls-2,.cls-3,.cls-7{stroke:#ed1c24;}.cls-10,.cls-11,.cls-12,.cls-13,.cls-2,.cls-3,.cls-4,.cls-7,.cls-8,.cls-9{stroke-miterlimit:10;}.cls-3{stroke-dasharray:11.696 11.696;}.cls-4{stroke:#000;}.cls-5{fill:#af6f29;}.cls-6{fill:#231f20;}.cls-7{stroke-dasharray:11.879 11.879;}.cls-10,.cls-8,.cls-9{stroke:#f26522;}.cls-9{stroke-dasharray:12.394 12.394;}.cls-10{stroke-dasharray:12.921 12.921;}.cls-11,.cls-13{stroke:#3c57a6;}.cls-11{stroke-width:2px;}.cls-12{fill:#3d57a7;stroke:#3d57a7;}</style></defs><title>Understanding_Security_Market_Line</title><rect class="cls-1" x="56.952" y="137.163" width="350.779" height="129.541"/><line class="cls-2" x1="56.542" y1="137.163" x2="62.542" y2="137.163"/><line class="cls-3" x1="74.238" y1="137.163" x2="395.884" y2="137.163"/><line class="cls-2" x1="401.732" y1="137.163" x2="407.732" y2="137.163"/><line class="cls-4" x1="56.542" y1="374.863" x2="56.542" y2="41.854"/><path class="cls-5" d="M74.746,62.521V50.889H79.9a6.865,6.865,0,0,1,2.365.313,2.586,2.586,0,0,1,1.293,1.107,3.3,3.3,0,0,1,.484,1.753,2.926,2.926,0,0,1-.8,2.087,4.055,4.055,0,0,1-2.476,1.079,4,4,0,0,1,.929.579,8.029,8.029,0,0,1,1.277,1.547L85,62.521H83.062l-1.54-2.42q-0.675-1.047-1.111-1.6a3.5,3.5,0,0,0-.781-0.778,2.331,2.331,0,0,0-.7-0.31,4.673,4.673,0,0,0-.857-0.055H76.286v5.165h-1.54Zm1.54-6.5h3.309a4.958,4.958,0,0,0,1.65-.218,1.758,1.758,0,0,0,.9-0.7,1.891,1.891,0,0,0,.31-1.043,1.734,1.734,0,0,0-.6-1.357,2.806,2.806,0,0,0-1.893-.531H76.286v3.848Z" transform="translate(-9.856 -9.032)"/><path class="cls-5" d="M92.043,59.807l1.476,0.182A3.6,3.6,0,0,1,92.226,62a4.382,4.382,0,0,1-5.344-.425A4.447,4.447,0,0,1,85.8,58.379a4.656,4.656,0,0,1,1.095-3.3,3.707,3.707,0,0,1,2.84-1.174,3.6,3.6,0,0,1,2.761,1.15,4.57,4.57,0,0,1,1.071,3.237c0,0.084,0,.211-0.008.381H87.274A3.236,3.236,0,0,0,88.06,60.8a2.338,2.338,0,0,0,1.761.738,2.182,2.182,0,0,0,1.341-.413A2.738,2.738,0,0,0,92.043,59.807ZM87.354,57.5h4.7A2.858,2.858,0,0,0,91.52,55.9a2.189,2.189,0,0,0-1.77-.825,2.269,2.269,0,0,0-1.654.659A2.6,2.6,0,0,0,87.354,57.5Z" transform="translate(-9.856 -9.032)"/><path class="cls-5" d="M98.43,61.243L98.636,62.5a5.3,5.3,0,0,1-1.079.126,2.447,2.447,0,0,1-1.206-.246,1.378,1.378,0,0,1-.6-0.647,5.118,5.118,0,0,1-.174-1.686V55.205H94.526V54.094h1.047V52.008l1.42-.857v2.943H98.43v1.111H96.994v4.927a2.492,2.492,0,0,0,.075.786,0.593,0.593,0,0,0,.246.277,0.948,0.948,0,0,0,.488.1A4.639,4.639,0,0,0,98.43,61.243Z" transform="translate(-9.856 -9.032)"/><path class="cls-5" d="M105.349,62.521V61.283a3.084,3.084,0,0,1-2.674,1.428,3.408,3.408,0,0,1-1.393-.286,2.291,2.291,0,0,1-.96-0.718,2.693,2.693,0,0,1-.44-1.059,7.266,7.266,0,0,1-.087-1.333V54.094h1.428v4.673a8.343,8.343,0,0,0,.087,1.507,1.488,1.488,0,0,0,.571.885,1.77,1.77,0,0,0,1.079.321,2.348,2.348,0,0,0,1.206-.329,1.83,1.83,0,0,0,.8-0.9,4.5,4.5,0,0,0,.234-1.646V54.094h1.428v8.426h-1.277Z" transform="translate(-9.856 -9.032)"/><path class="cls-5" d="M108.848,62.521V54.094h1.286v1.277a3.48,3.48,0,0,1,.908-1.182,1.586,1.586,0,0,1,.917-0.286,2.782,2.782,0,0,1,1.468.46l-0.492,1.325a2.045,2.045,0,0,0-1.047-.309,1.361,1.361,0,0,0-.841.281,1.524,1.524,0,0,0-.531.782,5.561,5.561,0,0,0-.238,1.666v4.412h-1.428Z" transform="translate(-9.856 -9.032)"/><path class="cls-5" d="M114.275,62.521V54.094h1.285v1.2a3.029,3.029,0,0,1,2.682-1.389,3.516,3.516,0,0,1,1.4.274,2.2,2.2,0,0,1,.956.718,2.75,2.75,0,0,1,.444,1.055,8.14,8.14,0,0,1,.08,1.389v5.181h-1.428V57.4a3.853,3.853,0,0,0-.167-1.305,1.374,1.374,0,0,0-.591-0.69,1.879,1.879,0,0,0-1-.258,2.316,2.316,0,0,0-1.575.579,2.858,2.858,0,0,0-.662,2.2v4.6h-1.428Z" transform="translate(-9.856 -9.032)"/><path class="cls-5" d="M73.469,64.837v-1.19h48.772v1.19H73.469Z" transform="translate(-9.856 -9.032)"/><path class="cls-5" d="M20.828,151.854l1.761-8.426h1.27L23.5,145.15a5.853,5.853,0,0,1,1.273-1.444,2.1,2.1,0,0,1,1.273-.468,2.5,2.5,0,0,1,1.055.31l-0.587,1.333a1.366,1.366,0,0,0-.817-0.27,2.215,2.215,0,0,0-1.547.841,6.4,6.4,0,0,0-1.246,3.023l-0.714,3.38H20.828Z" transform="translate(-9.856 -9.032)"/><path class="cls-5" d="M26.009,157.266l1.027-4.913h0.837l-0.171.81a3.353,3.353,0,0,1,.835-0.722,1.654,1.654,0,0,1,.8-0.2,1.2,1.2,0,0,1,.766.243,1.152,1.152,0,0,1,.4.678,2.742,2.742,0,0,1,.789-0.691,1.774,1.774,0,0,1,.872-0.229,1.3,1.3,0,0,1,.923.292,1.074,1.074,0,0,1,.308.818,4.326,4.326,0,0,1-.106.75l-0.662,3.164H31.791l0.676-3.247a3.086,3.086,0,0,0,.088-0.569,0.487,0.487,0,0,0-.153-0.379,0.615,0.615,0,0,0-.43-0.139,1.506,1.506,0,0,0-.763.227,1.636,1.636,0,0,0-.6.594,3.971,3.971,0,0,0-.377,1.131l-0.5,2.382H28.891l0.694-3.316a2.6,2.6,0,0,0,.074-0.481,0.519,0.519,0,0,0-.15-0.388,0.533,0.533,0,0,0-.391-0.148,1.491,1.491,0,0,0-.747.227,1.779,1.779,0,0,0-.636.631,3.767,3.767,0,0,0-.4,1.154l-0.486,2.322H26.009Z" transform="translate(-9.856 -9.032)"/><path class="cls-6" d="M40.978,145.547a2.689,2.689,0,0,1-1.317-.928,2.429,2.429,0,0,1-.429-1.444,2.824,2.824,0,0,1,.913-2.134,3.84,3.84,0,0,1,4.879.02,2.862,2.862,0,0,1,.929,2.154,2.373,2.373,0,0,1-.425,1.409,2.676,2.676,0,0,1-1.289.924,3.131,3.131,0,0,1,1.63,1.126,3.094,3.094,0,0,1,.56,1.856,3.341,3.341,0,0,1-1.056,2.507,4.3,4.3,0,0,1-5.554,0,3.391,3.391,0,0,1-1.055-2.543,3.071,3.071,0,0,1,.575-1.9A2.879,2.879,0,0,1,40.978,145.547ZM40.232,148.5a2.581,2.581,0,0,0,.29,1.183,2.039,2.039,0,0,0,.861.884,2.51,2.51,0,0,0,1.23.313,2.3,2.3,0,0,0,1.69-.658,2.254,2.254,0,0,0,.667-1.674,2.292,2.292,0,0,0-.687-1.706,2.354,2.354,0,0,0-1.718-.674A2.272,2.272,0,0,0,40.232,148.5Zm0.46-5.371a1.811,1.811,0,0,0,.532,1.349A1.883,1.883,0,0,0,42.6,145a1.847,1.847,0,0,0,1.353-.52,1.719,1.719,0,0,0,.528-1.273,1.782,1.782,0,0,0-.544-1.321,1.848,1.848,0,0,0-1.353-.536,1.87,1.87,0,0,0-1.357.523A1.685,1.685,0,0,0,40.692,143.127Z" transform="translate(-9.856 -9.032)"/><path class="cls-6" d="M48.087,143.016a3.534,3.534,0,0,1,.626-2.118,2.1,2.1,0,0,1,1.817-.873,2.356,2.356,0,0,1,1.813.782,3.976,3.976,0,0,1-.008,4.57,2.323,2.323,0,0,1-1.789.8,2.259,2.259,0,0,1-1.757-.785A3.468,3.468,0,0,1,48.087,143.016Zm2.483-2.007a1.073,1.073,0,0,0-.885.46,2.915,2.915,0,0,0-.353,1.69,2.622,2.622,0,0,0,.357,1.575,1.087,1.087,0,0,0,1.773,0,2.9,2.9,0,0,0,.353-1.682,2.64,2.64,0,0,0-.357-1.583A1.089,1.089,0,0,0,50.57,141.008Zm0.008,11.274,6.363-12.258H58.1L51.76,152.283H50.578Zm5.03-3.158A3.532,3.532,0,0,1,56.235,147a2.109,2.109,0,0,1,1.825-.869,2.356,2.356,0,0,1,1.813.782,3.976,3.976,0,0,1-.008,4.57,2.333,2.333,0,0,1-1.8.8,2.256,2.256,0,0,1-1.757-.789A3.471,3.471,0,0,1,55.608,149.125Zm2.491-2.007a1.081,1.081,0,0,0-.893.46,2.915,2.915,0,0,0-.353,1.69,2.62,2.62,0,0,0,.357,1.571,1.077,1.077,0,0,0,.88.46,1.088,1.088,0,0,0,.9-0.46,2.9,2.9,0,0,0,.354-1.682,2.637,2.637,0,0,0-.357-1.583A1.088,1.088,0,0,0,58.1,147.118Z" transform="translate(-9.856 -9.032)"/><path class="cls-5" d="M20.288,154.047v-0.942H25.7v0.942H20.288Z" transform="translate(-9.856 -9.032)"/><path class="cls-5" d="M25.7,159.458v-0.942h7.892v0.942H25.7Z" transform="translate(-9.856 -9.032)"/><path class="cls-5" d="M23.749,236.553v-8.426h1.286V229.4a3.48,3.48,0,0,1,.908-1.182,1.586,1.586,0,0,1,.917-0.286,2.782,2.782,0,0,1,1.468.46l-0.492,1.325a2.045,2.045,0,0,0-1.047-.309,1.361,1.361,0,0,0-.841.281,1.524,1.524,0,0,0-.531.782,5.561,5.561,0,0,0-.238,1.666v4.412H23.749Z" transform="translate(-9.856 -9.032)"/><path class="cls-5" d="M28.733,236.141v-0.958h0.833v0.958H28.733Zm0,5.824v-4.913h0.833v4.913H28.733Z" transform="translate(-9.856 -9.032)"/><path class="cls-6" d="M38.779,233.506l1.5-.127a2.69,2.69,0,0,0,.774,1.646,2.1,2.1,0,0,0,1.464.551,2.279,2.279,0,0,0,1.746-.777,2.931,2.931,0,0,0,.714-2.063,2.65,2.65,0,0,0-.687-1.928,2.393,2.393,0,0,0-1.8-.706,2.488,2.488,0,0,0-1.246.313,2.414,2.414,0,0,0-.873.813l-1.341-.175,1.127-5.975h5.784v1.365H41.3l-0.627,3.126a3.784,3.784,0,0,1,2.2-.73,3.481,3.481,0,0,1,2.571,1.055,3.688,3.688,0,0,1,1.047,2.713,4.238,4.238,0,0,1-.92,2.729,3.687,3.687,0,0,1-3.055,1.412,3.762,3.762,0,0,1-2.591-.889A3.468,3.468,0,0,1,38.779,233.506Z" transform="translate(-9.856 -9.032)"/><path class="cls-6" d="M48.086,227.714a3.534,3.534,0,0,1,.626-2.118,2.1,2.1,0,0,1,1.817-.873,2.356,2.356,0,0,1,1.813.782,3.976,3.976,0,0,1-.008,4.57,2.323,2.323,0,0,1-1.789.8,2.259,2.259,0,0,1-1.757-.785A3.468,3.468,0,0,1,48.086,227.714Zm2.483-2.007a1.073,1.073,0,0,0-.885.46,2.915,2.915,0,0,0-.353,1.69,2.622,2.622,0,0,0,.357,1.575,1.087,1.087,0,0,0,1.773,0,2.9,2.9,0,0,0,.353-1.682,2.64,2.64,0,0,0-.357-1.583A1.089,1.089,0,0,0,50.569,225.707Zm0.008,11.274,6.363-12.258H58.1l-6.339,12.258H50.577Zm5.03-3.158a3.532,3.532,0,0,1,.627-2.123,2.109,2.109,0,0,1,1.825-.869,2.356,2.356,0,0,1,1.813.782,3.976,3.976,0,0,1-.008,4.57,2.333,2.333,0,0,1-1.8.8,2.256,2.256,0,0,1-1.757-.789A3.471,3.471,0,0,1,55.607,233.824Zm2.491-2.007a1.081,1.081,0,0,0-.893.46,2.915,2.915,0,0,0-.353,1.69,2.62,2.62,0,0,0,.357,1.571,1.077,1.077,0,0,0,.88.46,1.088,1.088,0,0,0,.9-0.46,2.9,2.9,0,0,0,.354-1.682,2.637,2.637,0,0,0-.357-1.583A1.088,1.088,0,0,0,58.1,231.816Z" transform="translate(-9.856 -9.032)"/><path class="cls-5" d="M22.693,238.746V237.8H28.1v0.942H22.693Z" transform="translate(-9.856 -9.032)"/><path class="cls-5" d="M28.1,244.157v-0.942h2.1v0.942H28.1Z" transform="translate(-9.856 -9.032)"/><path class="cls-5" d="M173.647,394.856a10.645,10.645,0,0,1,.425-3.321,4.129,4.129,0,0,1,1.261-1.939,3.227,3.227,0,0,1,2.106-.682,3.434,3.434,0,0,1,1.643.377,3.143,3.143,0,0,1,1.167,1.087,5.834,5.834,0,0,1,.722,1.73,11.473,11.473,0,0,1,.262,2.749,10.679,10.679,0,0,1-.421,3.3,4.128,4.128,0,0,1-1.257,1.943,3.224,3.224,0,0,1-2.115.687,3.19,3.19,0,0,1-2.642-1.206Q173.647,398.133,173.647,394.856Zm1.468,0a7.3,7.3,0,0,0,.67,3.813,1.915,1.915,0,0,0,3.309,0,11.176,11.176,0,0,0,0-7.625,1.99,1.99,0,0,0-1.67-.944,1.83,1.83,0,0,0-1.571.833A7.376,7.376,0,0,0,175.115,394.856Z" transform="translate(-9.856 -9.032)"/><path class="cls-5" d="M183.485,400.593v-1.627h1.627v1.627h-1.627Z" transform="translate(-9.856 -9.032)"/><path class="cls-5" d="M194.7,399.22v1.373h-7.688a2.527,2.527,0,0,1,.167-0.992,5.238,5.238,0,0,1,.94-1.547,14.78,14.78,0,0,1,1.869-1.762,15.83,15.83,0,0,0,2.563-2.463,2.951,2.951,0,0,0,.667-1.718,1.91,1.91,0,0,0-.607-1.433,2.189,2.189,0,0,0-1.583-.583,2.232,2.232,0,0,0-1.65.619,2.343,2.343,0,0,0-.627,1.714l-1.468-.151a3.611,3.611,0,0,1,1.135-2.5,3.87,3.87,0,0,1,2.642-.861,3.688,3.688,0,0,1,2.65.928,3.049,3.049,0,0,1,.976,2.3,3.493,3.493,0,0,1-.286,1.373,5.337,5.337,0,0,1-.948,1.42,23.142,23.142,0,0,1-2.2,2.047q-1.285,1.08-1.65,1.464a4.707,4.707,0,0,0-.6.773h5.7Z" transform="translate(-9.856 -9.032)"/><path class="cls-5" d="M196.236,397.546l1.5-.127a2.687,2.687,0,0,0,.774,1.646,2.1,2.1,0,0,0,1.464.552,2.28,2.28,0,0,0,1.746-.778,2.928,2.928,0,0,0,.714-2.062,2.648,2.648,0,0,0-.687-1.928,2.393,2.393,0,0,0-1.8-.706,2.488,2.488,0,0,0-1.246.313,2.416,2.416,0,0,0-.873.813l-1.341-.174,1.127-5.975H203.4v1.365h-4.641l-0.627,3.126a3.786,3.786,0,0,1,2.2-.729,3.483,3.483,0,0,1,2.571,1.055,3.69,3.69,0,0,1,1.047,2.714,4.237,4.237,0,0,1-.92,2.729,3.687,3.687,0,0,1-3.055,1.412,3.762,3.762,0,0,1-2.591-.889A3.467,3.467,0,0,1,196.236,397.546Z" transform="translate(-9.856 -9.032)"/><path class="cls-5" d="M172.973,402.909V401.72H204.6v1.189H172.973Z" transform="translate(-9.856 -9.032)"/><path class="cls-5" d="M419.123,400.593H417.7v-9.1a7.322,7.322,0,0,1-1.354.983,9.565,9.565,0,0,1-1.5.738v-1.381a8.607,8.607,0,0,0,2.095-1.364,5.376,5.376,0,0,0,1.27-1.555h0.92v11.679Z" transform="translate(-9.856 -9.032)"/><path class="cls-5" d="M413.069,402.909V401.72h9.037v1.189h-9.037Z" transform="translate(-9.856 -9.032)"/><path class="cls-5" d="M460.851,400.593V388.961h4.363a5.413,5.413,0,0,1,2.139.353,2.755,2.755,0,0,1,1.262,1.087,2.869,2.869,0,0,1,.456,1.535,2.64,2.64,0,0,1-.4,1.4,2.9,2.9,0,0,1-1.223,1.063,3.035,3.035,0,0,1,1.623,1.055,2.831,2.831,0,0,1,.567,1.762,3.392,3.392,0,0,1-.346,1.52,2.944,2.944,0,0,1-.853,1.083,3.565,3.565,0,0,1-1.273.575,7.733,7.733,0,0,1-1.877.194h-4.435Zm1.539-6.744H464.9a5.627,5.627,0,0,0,1.469-.135,1.632,1.632,0,0,0,.884-0.579,1.663,1.663,0,0,0,.3-1.016,1.872,1.872,0,0,0-.277-1.02,1.407,1.407,0,0,0-.794-0.6,6.629,6.629,0,0,0-1.77-.163H462.39v3.515Zm0,5.371h2.9a6.7,6.7,0,0,0,1.048-.055,2.524,2.524,0,0,0,.889-0.317,1.685,1.685,0,0,0,.587-0.647,2.022,2.022,0,0,0,.23-0.979,1.931,1.931,0,0,0-.334-1.131,1.756,1.756,0,0,0-.924-0.674,5.727,5.727,0,0,0-1.7-.194H462.39v4Z" transform="translate(-9.856 -9.032)"/><path class="cls-5" d="M477.337,397.879l1.477,0.183a3.605,3.605,0,0,1-1.294,2.008,4.382,4.382,0,0,1-5.344-.425,4.449,4.449,0,0,1-1.083-3.193,4.654,4.654,0,0,1,1.1-3.3,3.7,3.7,0,0,1,2.84-1.174,3.6,3.6,0,0,1,2.762,1.15,4.571,4.571,0,0,1,1.07,3.237c0,0.084,0,.211-0.008.381h-6.283a3.239,3.239,0,0,0,.785,2.126,2.337,2.337,0,0,0,1.762.738,2.185,2.185,0,0,0,1.341-.413A2.738,2.738,0,0,0,477.337,397.879Zm-4.688-2.309h4.705a2.849,2.849,0,0,0-.54-1.595,2.19,2.19,0,0,0-1.77-.825,2.272,2.272,0,0,0-1.654.658A2.612,2.612,0,0,0,472.648,395.57Z" transform="translate(-9.856 -9.032)"/><path class="cls-5" d="M483.725,399.315l0.206,1.262a5.347,5.347,0,0,1-1.079.127,2.443,2.443,0,0,1-1.206-.246,1.38,1.38,0,0,1-.6-0.646,5.092,5.092,0,0,1-.175-1.687v-4.848H479.82v-1.11h1.048V390.08l1.42-.857v2.944h1.437v1.11h-1.437V398.2a2.505,2.505,0,0,0,.075.786,0.6,0.6,0,0,0,.246.277,0.946,0.946,0,0,0,.488.1A4.652,4.652,0,0,0,483.725,399.315Z" transform="translate(-9.856 -9.032)"/><path class="cls-5" d="M490.619,399.554a5.328,5.328,0,0,1-1.527.952,4.424,4.424,0,0,1-1.575.277,3.064,3.064,0,0,1-2.134-.679,2.238,2.238,0,0,1-.746-1.733,2.3,2.3,0,0,1,.282-1.131,2.341,2.341,0,0,1,.737-0.821,3.472,3.472,0,0,1,1.027-.468,10.129,10.129,0,0,1,1.27-.214,13.06,13.06,0,0,0,2.547-.492c0.006-.2.009-0.32,0.009-0.373a1.576,1.576,0,0,0-.405-1.229,2.387,2.387,0,0,0-1.626-.484,2.525,2.525,0,0,0-1.488.354,2.153,2.153,0,0,0-.71,1.249l-1.4-.19a3.454,3.454,0,0,1,.627-1.447,2.741,2.741,0,0,1,1.262-.85,5.629,5.629,0,0,1,1.912-.3,5.043,5.043,0,0,1,1.753.254,2.3,2.3,0,0,1,.992.639,2.241,2.241,0,0,1,.444.972,8.02,8.02,0,0,1,.071,1.317v1.9a20.016,20.016,0,0,0,.092,2.519,3.172,3.172,0,0,0,.36,1.012h-1.491A3.033,3.033,0,0,1,490.619,399.554Zm-0.119-3.189a10.542,10.542,0,0,1-2.332.539,5.365,5.365,0,0,0-1.246.286,1.241,1.241,0,0,0-.563.464,1.262,1.262,0,0,0,.234,1.63,1.86,1.86,0,0,0,1.266.381,2.951,2.951,0,0,0,1.468-.36,2.226,2.226,0,0,0,.944-0.988,3.451,3.451,0,0,0,.229-1.428v-0.523Z" transform="translate(-9.856 -9.032)"/><path class="cls-5" d="M497.419,403.822l2.079-9.87a17.442,17.442,0,0,1,.821-2.944,3.73,3.73,0,0,1,1.3-1.6,3.573,3.573,0,0,1,2.139-.646,2.846,2.846,0,0,1,2.07.738,2.55,2.55,0,0,1,.8,1.944,2.6,2.6,0,0,1-.667,1.817,3.251,3.251,0,0,1-1.626.976,3.081,3.081,0,0,1,1.968,2.849,3.89,3.89,0,0,1-.968,2.531,3.369,3.369,0,0,1-2.746,1.166,3.256,3.256,0,0,1-1.654-.369,3.677,3.677,0,0,1-1.13-1.075l-0.984,4.483h-1.4Zm4.832-10.037a3.552,3.552,0,0,0,2.285-.69,2.083,2.083,0,0,0,.77-1.65,1.436,1.436,0,0,0-.444-1.079,1.467,1.467,0,0,0-1.055-.429,2.149,2.149,0,0,0-1.643.817,5.443,5.443,0,0,0-1.071,2.523l-0.548,2.61a8.56,8.56,0,0,0-.206,1.65,2.106,2.106,0,0,0,.683,1.666,2.224,2.224,0,0,0,1.507.6,2.174,2.174,0,0,0,1.71-.817,2.9,2.9,0,0,0,.7-1.96q0-2.285-2.9-2.285Z" transform="translate(-9.856 -9.032)"/><path class="cls-5" d="M459.66,402.909V401.72H497.6v1.189H459.66Z" transform="translate(-9.856 -9.032)"/><path class="cls-5" d="M497.6,402.909V401.72h9.283v1.189H497.6Z" transform="translate(-9.856 -9.032)"/><polygon points="53.029 41.854 56.542 35.769 60.055 41.854 53.029 41.854"/><polygon points="489.469 370.746 495.554 374.259 489.469 377.772 489.469 370.746"/><line class="cls-2" x1="407.732" y1="374.862" x2="407.732" y2="368.862"/><line class="cls-7" x1="407.732" y1="356.984" x2="407.732" y2="149.102"/><line class="cls-2" x1="407.732" y1="143.163" x2="407.732" y2="137.163"/><line class="cls-8" x1="56.316" y1="221.373" x2="62.316" y2="221.373"/><line class="cls-9" x1="74.71" y1="221.373" x2="167.663" y2="221.373"/><line class="cls-8" x1="173.86" y1="221.373" x2="179.86" y2="221.373"/><line class="cls-8" x1="179.86" y1="374.862" x2="179.86" y2="368.862"/><line class="cls-10" x1="179.86" y1="355.942" x2="179.86" y2="233.197"/><line class="cls-8" x1="179.86" y1="226.736" x2="179.86" y2="220.736"/><path class="cls-5" d="M22.088,280.531V272.1h1.286v1.277a3.48,3.48,0,0,1,.908-1.182,1.586,1.586,0,0,1,.917-0.286,2.782,2.782,0,0,1,1.468.46L26.175,273.7a2.045,2.045,0,0,0-1.047-.309,1.361,1.361,0,0,0-.841.281,1.524,1.524,0,0,0-.531.782,5.561,5.561,0,0,0-.238,1.666v4.412H22.088Z" transform="translate(-9.856 -9.032)"/><path class="cls-5" d="M27.268,285.942v-4.265H26.532v-0.648h0.735v-0.522a2.292,2.292,0,0,1,.088-0.736,1.064,1.064,0,0,1,.423-0.525,1.528,1.528,0,0,1,.849-0.2,4.067,4.067,0,0,1,.777.083l-0.125.726a2.8,2.8,0,0,0-.49-0.046,0.73,0.73,0,0,0-.537.162,0.877,0.877,0,0,0-.157.606v0.453h0.958v0.648H28.1v4.265H27.268Z" transform="translate(-9.856 -9.032)"/><path class="cls-6" d="M43.358,280.531v-2.785H38.312v-1.309L43.62,268.9h1.167v7.538h1.571v1.309H44.786v2.785H43.358Zm0-4.094v-5.245l-3.642,5.245h3.642Z" transform="translate(-9.856 -9.032)"/><path class="cls-6" d="M48.087,271.692a3.534,3.534,0,0,1,.626-2.118,2.1,2.1,0,0,1,1.817-.873,2.356,2.356,0,0,1,1.813.782,3.976,3.976,0,0,1-.008,4.57,2.323,2.323,0,0,1-1.789.8,2.259,2.259,0,0,1-1.757-.785A3.468,3.468,0,0,1,48.087,271.692Zm2.483-2.007a1.073,1.073,0,0,0-.885.46,2.915,2.915,0,0,0-.353,1.69,2.622,2.622,0,0,0,.357,1.575,1.087,1.087,0,0,0,1.773,0,2.9,2.9,0,0,0,.353-1.682,2.64,2.64,0,0,0-.357-1.583A1.089,1.089,0,0,0,50.57,269.685Zm0.008,11.274L56.941,268.7H58.1L51.76,280.959H50.578Zm5.03-3.158a3.532,3.532,0,0,1,.627-2.123,2.109,2.109,0,0,1,1.825-.869,2.356,2.356,0,0,1,1.813.782,3.976,3.976,0,0,1-.008,4.57,2.333,2.333,0,0,1-1.8.8,2.256,2.256,0,0,1-1.757-.789A3.471,3.471,0,0,1,55.608,277.8Zm2.491-2.007a1.081,1.081,0,0,0-.893.46,2.915,2.915,0,0,0-.353,1.69,2.62,2.62,0,0,0,.357,1.571,1.077,1.077,0,0,0,.88.46,1.088,1.088,0,0,0,.9-0.46,2.9,2.9,0,0,0,.354-1.682,2.637,2.637,0,0,0-.357-1.583A1.088,1.088,0,0,0,58.1,275.794Z" transform="translate(-9.856 -9.032)"/><path class="cls-5" d="M21.033,282.724v-0.942h5.411v0.942H21.033Z" transform="translate(-9.856 -9.032)"/><path class="cls-5" d="M26.444,288.135v-0.942h2.632v0.942H26.444Z" transform="translate(-9.856 -9.032)"/><path class="cls-5" d="M58.035,394.856a10.645,10.645,0,0,1,.425-3.321,4.129,4.129,0,0,1,1.261-1.939,3.227,3.227,0,0,1,2.106-.682,3.434,3.434,0,0,1,1.643.377,3.143,3.143,0,0,1,1.167,1.087,5.834,5.834,0,0,1,.722,1.73,11.473,11.473,0,0,1,.262,2.749,10.679,10.679,0,0,1-.421,3.3,4.128,4.128,0,0,1-1.257,1.943,3.224,3.224,0,0,1-2.115.687,3.19,3.19,0,0,1-2.642-1.206Q58.036,398.133,58.035,394.856Zm1.468,0a7.3,7.3,0,0,0,.67,3.813,1.915,1.915,0,0,0,3.309,0,11.176,11.176,0,0,0,0-7.625,1.99,1.99,0,0,0-1.67-.944,1.83,1.83,0,0,0-1.571.833A7.376,7.376,0,0,0,59.5,394.856Z" transform="translate(-9.856 -9.032)"/><path class="cls-5" d="M57.361,402.909V401.72H66.4v1.189H57.361Z" transform="translate(-9.856 -9.032)"/><line class="cls-11" x1="56.542" y1="266.704" x2="489.469" y2="107.877"/><line class="cls-4" x1="489.469" y1="374.259" x2="55.874" y2="374.259"/><path class="cls-5" d="M361.441,94.472l1.452-.127a3.219,3.219,0,0,0,.48,1.432,2.622,2.622,0,0,0,1.17.9,4.435,4.435,0,0,0,1.785.345,4.285,4.285,0,0,0,1.556-.262,2.163,2.163,0,0,0,1-.718,1.67,1.67,0,0,0,.329-1A1.517,1.517,0,0,0,368.9,94.1a2.35,2.35,0,0,0-1.048-.687,20.507,20.507,0,0,0-2.07-.567,10.581,10.581,0,0,1-2.246-.726,3.148,3.148,0,0,1-1.241-1.083,2.653,2.653,0,0,1-.409-1.448,2.959,2.959,0,0,1,.5-1.646,3.1,3.1,0,0,1,1.46-1.162,5.538,5.538,0,0,1,2.135-.4,5.831,5.831,0,0,1,2.281.417,3.294,3.294,0,0,1,1.52,1.226,3.537,3.537,0,0,1,.571,1.833l-1.477.111a2.383,2.383,0,0,0-.8-1.667,3.137,3.137,0,0,0-2.027-.563,3.251,3.251,0,0,0-2.035.512,1.535,1.535,0,0,0-.639,1.234,1.321,1.321,0,0,0,.452,1.031,6.113,6.113,0,0,0,2.32.829,15.412,15.412,0,0,1,2.575.742,3.525,3.525,0,0,1,1.5,1.187,2.886,2.886,0,0,1,.484,1.654,3.171,3.171,0,0,1-.531,1.75,3.506,3.506,0,0,1-1.527,1.277,5.323,5.323,0,0,1-2.242.456,6.691,6.691,0,0,1-2.646-.46,3.7,3.7,0,0,1-1.674-1.385A3.923,3.923,0,0,1,361.441,94.472Z" transform="translate(-9.856 -9.032)"/><path class="cls-5" d="M378.389,95.5l1.477,0.182a3.6,3.6,0,0,1-1.294,2.008,4.382,4.382,0,0,1-5.344-.425,4.449,4.449,0,0,1-1.083-3.193,4.654,4.654,0,0,1,1.1-3.3,3.706,3.706,0,0,1,2.84-1.174,3.606,3.606,0,0,1,2.762,1.15,4.572,4.572,0,0,1,1.07,3.237c0,0.084,0,.211-0.008.381h-6.283a3.238,3.238,0,0,0,.785,2.126,2.338,2.338,0,0,0,1.762.738,2.185,2.185,0,0,0,1.341-.413A2.737,2.737,0,0,0,378.389,95.5ZM373.7,93.187h4.705a2.85,2.85,0,0,0-.54-1.595,2.189,2.189,0,0,0-1.77-.825,2.271,2.271,0,0,0-1.654.659A2.61,2.61,0,0,0,373.7,93.187Z" transform="translate(-9.856 -9.032)"/><path class="cls-5" d="M387.156,95.123l1.4,0.183a3.642,3.642,0,0,1-1.178,2.273,3.433,3.433,0,0,1-2.329.821,3.615,3.615,0,0,1-2.78-1.131,4.585,4.585,0,0,1-1.052-3.241,5.863,5.863,0,0,1,.452-2.389,3.156,3.156,0,0,1,1.377-1.535,4.081,4.081,0,0,1,2.011-.512,3.5,3.5,0,0,1,2.246.694,3.187,3.187,0,0,1,1.118,1.972l-1.389.214a2.3,2.3,0,0,0-.7-1.277,1.816,1.816,0,0,0-1.218-.429,2.216,2.216,0,0,0-1.753.773,3.671,3.671,0,0,0-.675,2.448,3.8,3.8,0,0,0,.65,2.468,2.117,2.117,0,0,0,1.7.77,2,2,0,0,0,1.4-.516A2.558,2.558,0,0,0,387.156,95.123Z" transform="translate(-9.856 -9.032)"/><path class="cls-5" d="M395.306,98.209V96.971a3.085,3.085,0,0,1-2.674,1.428,3.4,3.4,0,0,1-1.393-.286,2.288,2.288,0,0,1-.96-0.718,2.678,2.678,0,0,1-.44-1.059A7.2,7.2,0,0,1,389.751,95V89.783h1.429v4.673a8.3,8.3,0,0,0,.087,1.507,1.488,1.488,0,0,0,.571.885,1.769,1.769,0,0,0,1.079.321,2.349,2.349,0,0,0,1.206-.329,1.831,1.831,0,0,0,.8-0.9,4.52,4.52,0,0,0,.233-1.646V89.783h1.429v8.426h-1.277Z" transform="translate(-9.856 -9.032)"/><path class="cls-5" d="M398.8,98.209V89.783h1.285V91.06A3.493,3.493,0,0,1,401,89.878a1.584,1.584,0,0,1,.916-0.286,2.788,2.788,0,0,1,1.469.46l-0.492,1.325a2.047,2.047,0,0,0-1.048-.309,1.363,1.363,0,0,0-.841.281,1.521,1.521,0,0,0-.531.782,5.546,5.546,0,0,0-.238,1.666v4.412H398.8Z" transform="translate(-9.856 -9.032)"/><path class="cls-5" d="M404.239,88.22V86.577h1.428V88.22h-1.428Zm0,9.989V89.783h1.428v8.426h-1.428Z" transform="translate(-9.856 -9.032)"/><path class="cls-5" d="M410.96,96.932l0.206,1.262a5.308,5.308,0,0,1-1.079.126,2.449,2.449,0,0,1-1.206-.246,1.377,1.377,0,0,1-.6-0.647,5.086,5.086,0,0,1-.175-1.686V90.894h-1.048V89.783H408.1V87.7l1.42-.857v2.943h1.437v1.111h-1.437v4.927a2.508,2.508,0,0,0,.075.786,0.6,0.6,0,0,0,.246.277,0.951,0.951,0,0,0,.488.1A4.652,4.652,0,0,0,410.96,96.932Z" transform="translate(-9.856 -9.032)"/><path class="cls-5" d="M412.293,101.454l-0.159-1.341a3.2,3.2,0,0,0,.817.127,1.572,1.572,0,0,0,.762-0.159,1.3,1.3,0,0,0,.469-0.444,7.064,7.064,0,0,0,.436-1.063c0.026-.079.069-0.2,0.127-0.349l-3.2-8.442h1.539l1.754,4.88q0.341,0.928.61,1.952a19.215,19.215,0,0,1,.588-1.92l1.8-4.912h1.428l-3.205,8.569a16.8,16.8,0,0,1-.8,1.913,2.819,2.819,0,0,1-.872,1.035,2.062,2.062,0,0,1-1.175.329A2.861,2.861,0,0,1,412.293,101.454Z" transform="translate(-9.856 -9.032)"/><path class="cls-5" d="M425.131,98.209V86.577h2.316l2.754,8.236q0.381,1.151.555,1.722,0.2-.634.619-1.864l2.785-8.093h2.07V98.209h-1.483V88.474l-3.38,9.735h-1.389l-3.364-9.9v9.9h-1.483Z" transform="translate(-9.856 -9.032)"/><path class="cls-5" d="M444.03,97.169a5.306,5.306,0,0,1-1.527.952,4.413,4.413,0,0,1-1.575.278,3.064,3.064,0,0,1-2.134-.678,2.241,2.241,0,0,1-.746-1.734,2.3,2.3,0,0,1,.282-1.13,2.329,2.329,0,0,1,.737-0.821,3.473,3.473,0,0,1,1.027-.468,10.3,10.3,0,0,1,1.27-.214,13.03,13.03,0,0,0,2.547-.492c0.006-.2.009-0.32,0.009-0.373a1.577,1.577,0,0,0-.405-1.229,2.39,2.39,0,0,0-1.626-.484,2.529,2.529,0,0,0-1.488.353,2.158,2.158,0,0,0-.71,1.25l-1.4-.19a3.461,3.461,0,0,1,.627-1.448,2.748,2.748,0,0,1,1.262-.849,5.629,5.629,0,0,1,1.912-.3,5.066,5.066,0,0,1,1.753.254,2.314,2.314,0,0,1,.992.639,2.248,2.248,0,0,1,.444.972,8.012,8.012,0,0,1,.071,1.317v1.9a20.02,20.02,0,0,0,.092,2.519,3.172,3.172,0,0,0,.36,1.012h-1.491A3.036,3.036,0,0,1,444.03,97.169Zm-0.119-3.189a10.482,10.482,0,0,1-2.332.54,5.371,5.371,0,0,0-1.246.286,1.248,1.248,0,0,0-.563.464A1.262,1.262,0,0,0,440,96.9a1.86,1.86,0,0,0,1.266.381,2.941,2.941,0,0,0,1.468-.361,2.22,2.22,0,0,0,.944-0.988,3.449,3.449,0,0,0,.229-1.428V93.98Z" transform="translate(-9.856 -9.032)"/><path class="cls-5" d="M447.554,98.209V89.783h1.285V91.06a3.493,3.493,0,0,1,.908-1.182,1.584,1.584,0,0,1,.916-0.286,2.788,2.788,0,0,1,1.469.46l-0.492,1.325a2.047,2.047,0,0,0-1.048-.309,1.363,1.363,0,0,0-.841.281,1.521,1.521,0,0,0-.531.782,5.546,5.546,0,0,0-.238,1.666v4.412h-1.428Z" transform="translate(-9.856 -9.032)"/><path class="cls-5" d="M452.988,98.209V86.577h1.428V93.21l3.381-3.428h1.849l-3.222,3.126,3.547,5.3h-1.762L455.424,93.9l-1.008.968v3.34h-1.428Z" transform="translate(-9.856 -9.032)"/><path class="cls-5" d="M466.873,95.5l1.477,0.182a3.6,3.6,0,0,1-1.294,2.008,4.382,4.382,0,0,1-5.344-.425,4.449,4.449,0,0,1-1.083-3.193,4.654,4.654,0,0,1,1.1-3.3,3.706,3.706,0,0,1,2.84-1.174,3.606,3.606,0,0,1,2.762,1.15,4.572,4.572,0,0,1,1.07,3.237c0,0.084,0,.211-0.008.381h-6.283a3.238,3.238,0,0,0,.785,2.126,2.338,2.338,0,0,0,1.762.738,2.185,2.185,0,0,0,1.341-.413A2.737,2.737,0,0,0,466.873,95.5Zm-4.688-2.309h4.705a2.85,2.85,0,0,0-.54-1.595,2.189,2.189,0,0,0-1.77-.825,2.271,2.271,0,0,0-1.654.659A2.61,2.61,0,0,0,462.185,93.187Z" transform="translate(-9.856 -9.032)"/><path class="cls-5" d="M473.261,96.932l0.206,1.262a5.308,5.308,0,0,1-1.079.126,2.449,2.449,0,0,1-1.206-.246,1.377,1.377,0,0,1-.6-0.647,5.086,5.086,0,0,1-.175-1.686V90.894h-1.048V89.783H470.4V87.7l1.42-.857v2.943h1.437v1.111h-1.437v4.927a2.508,2.508,0,0,0,.075.786,0.6,0.6,0,0,0,.246.277,0.951,0.951,0,0,0,.488.1A4.652,4.652,0,0,0,473.261,96.932Z" transform="translate(-9.856 -9.032)"/><path class="cls-5" d="M479.291,98.209V86.577h1.539V96.836h5.729v1.373h-7.268Z" transform="translate(-9.856 -9.032)"/><path class="cls-5" d="M488.217,88.22V86.577h1.428V88.22h-1.428Zm0,9.989V89.783h1.428v8.426h-1.428Z" transform="translate(-9.856 -9.032)"/><path class="cls-5" d="M491.819,98.209V89.783H493.1v1.2a3.029,3.029,0,0,1,2.682-1.389,3.516,3.516,0,0,1,1.4.274,2.2,2.2,0,0,1,.956.718,2.742,2.742,0,0,1,.444,1.055,8.207,8.207,0,0,1,.079,1.389v5.181h-1.428V93.083a3.838,3.838,0,0,0-.167-1.305,1.369,1.369,0,0,0-.591-0.69,1.882,1.882,0,0,0-1-.258,2.315,2.315,0,0,0-1.574.579,2.854,2.854,0,0,0-.663,2.2v4.6h-1.428Z" transform="translate(-9.856 -9.032)"/><path class="cls-5" d="M506.624,95.5l1.477,0.182a3.6,3.6,0,0,1-1.294,2.008,4.382,4.382,0,0,1-5.344-.425,4.449,4.449,0,0,1-1.083-3.193,4.654,4.654,0,0,1,1.1-3.3,3.706,3.706,0,0,1,2.84-1.174,3.606,3.606,0,0,1,2.762,1.15,4.572,4.572,0,0,1,1.07,3.237c0,0.084,0,.211-0.008.381h-6.283a3.238,3.238,0,0,0,.785,2.126,2.338,2.338,0,0,0,1.762.738,2.185,2.185,0,0,0,1.341-.413A2.737,2.737,0,0,0,506.624,95.5Zm-4.688-2.309h4.705a2.85,2.85,0,0,0-.54-1.595,2.189,2.189,0,0,0-1.77-.825,2.271,2.271,0,0,0-1.654.659A2.61,2.61,0,0,0,501.936,93.187Z" transform="translate(-9.856 -9.032)"/><path class="cls-5" d="M360.712,100.526v-1.19h148.11v1.19H360.712Z" transform="translate(-9.856 -9.032)"/><path class="cls-5" d="M303.019,124.8V113.171h2.316l2.754,8.236q0.381,1.151.555,1.722,0.2-.634.619-1.864l2.785-8.093h2.07V124.8h-1.483v-9.735l-3.38,9.735h-1.389l-3.364-9.9v9.9h-1.483Z" transform="translate(-9.856 -9.032)"/><path class="cls-5" d="M321.918,123.764a5.306,5.306,0,0,1-1.527.952,4.413,4.413,0,0,1-1.575.278,3.064,3.064,0,0,1-2.134-.678,2.241,2.241,0,0,1-.746-1.734,2.3,2.3,0,0,1,.282-1.13,2.329,2.329,0,0,1,.737-0.821,3.473,3.473,0,0,1,1.027-.468,10.3,10.3,0,0,1,1.27-.214,13.03,13.03,0,0,0,2.547-.492c0.006-.2.009-0.32,0.009-0.373a1.577,1.577,0,0,0-.405-1.229,2.39,2.39,0,0,0-1.626-.484,2.529,2.529,0,0,0-1.488.353,2.158,2.158,0,0,0-.71,1.25l-1.4-.19a3.461,3.461,0,0,1,.627-1.448,2.748,2.748,0,0,1,1.262-.849,5.629,5.629,0,0,1,1.912-.3,5.066,5.066,0,0,1,1.753.254,2.314,2.314,0,0,1,.992.639,2.248,2.248,0,0,1,.444.972,8.012,8.012,0,0,1,.071,1.317v1.9a20.02,20.02,0,0,0,.092,2.519,3.172,3.172,0,0,0,.36,1.012H322.2A3.036,3.036,0,0,1,321.918,123.764Zm-0.119-3.189a10.482,10.482,0,0,1-2.332.54,5.371,5.371,0,0,0-1.246.286,1.248,1.248,0,0,0-.563.464,1.262,1.262,0,0,0,.234,1.63,1.86,1.86,0,0,0,1.266.381,2.941,2.941,0,0,0,1.468-.361,2.22,2.22,0,0,0,.944-0.988,3.449,3.449,0,0,0,.229-1.428v-0.524Z" transform="translate(-9.856 -9.032)"/><path class="cls-5" d="M325.441,124.8v-8.426h1.285v1.277a3.493,3.493,0,0,1,.908-1.182,1.584,1.584,0,0,1,.916-0.286,2.788,2.788,0,0,1,1.469.46l-0.492,1.325a2.047,2.047,0,0,0-1.048-.309,1.363,1.363,0,0,0-.841.281,1.521,1.521,0,0,0-.531.782,5.546,5.546,0,0,0-.238,1.666V124.8h-1.428Z" transform="translate(-9.856 -9.032)"/><path class="cls-5" d="M330.876,124.8V113.171H332.3V119.8l3.381-3.428h1.849l-3.222,3.126,3.547,5.3H336.1l-2.785-4.308-1.008.968v3.34h-1.428Z" transform="translate(-9.856 -9.032)"/><path class="cls-5" d="M344.761,122.09l1.477,0.182a3.6,3.6,0,0,1-1.294,2.008,4.382,4.382,0,0,1-5.344-.425,4.449,4.449,0,0,1-1.083-3.193,4.654,4.654,0,0,1,1.1-3.3,3.706,3.706,0,0,1,2.84-1.174,3.606,3.606,0,0,1,2.762,1.15,4.572,4.572,0,0,1,1.07,3.237c0,0.084,0,.211-0.008.381h-6.283a3.238,3.238,0,0,0,.785,2.126,2.338,2.338,0,0,0,1.762.738,2.185,2.185,0,0,0,1.341-.413A2.737,2.737,0,0,0,344.761,122.09Zm-4.688-2.309h4.705a2.85,2.85,0,0,0-.54-1.595,2.189,2.189,0,0,0-1.77-.825,2.271,2.271,0,0,0-1.654.659A2.61,2.61,0,0,0,340.072,119.781Z" transform="translate(-9.856 -9.032)"/><path class="cls-5" d="M351.148,123.526l0.206,1.262a5.308,5.308,0,0,1-1.079.126,2.449,2.449,0,0,1-1.206-.246,1.377,1.377,0,0,1-.6-0.647,5.086,5.086,0,0,1-.175-1.686v-4.848h-1.048v-1.111h1.048v-2.086l1.42-.857v2.943h1.437v1.111h-1.437v4.927a2.508,2.508,0,0,0,.075.786,0.6,0.6,0,0,0,.246.277,0.951,0.951,0,0,0,.488.1A4.652,4.652,0,0,0,351.148,123.526Z" transform="translate(-9.856 -9.032)"/><path class="cls-5" d="M357.242,124.8V113.171h4.388a10.566,10.566,0,0,1,1.769.111,3.505,3.505,0,0,1,1.437.543,2.857,2.857,0,0,1,.933,1.123,3.788,3.788,0,0,1-.592,4.1,4.527,4.527,0,0,1-3.411,1.027h-2.983V124.8h-1.539Zm1.539-6.1h3.007a3.188,3.188,0,0,0,2.118-.555,1.979,1.979,0,0,0,.627-1.563,2.109,2.109,0,0,0-.368-1.25,1.725,1.725,0,0,0-.973-0.686,6.565,6.565,0,0,0-1.436-.1h-2.976V118.7Z" transform="translate(-9.856 -9.032)"/><path class="cls-5" d="M367.365,120.59a4.344,4.344,0,0,1,1.3-3.467,3.918,3.918,0,0,1,2.65-.937,3.781,3.781,0,0,1,2.84,1.139,4.332,4.332,0,0,1,1.1,3.146,5.574,5.574,0,0,1-.488,2.559,3.455,3.455,0,0,1-1.42,1.448,4.139,4.139,0,0,1-2.035.516,3.785,3.785,0,0,1-2.86-1.135A4.53,4.53,0,0,1,367.365,120.59Zm1.469,0a3.585,3.585,0,0,0,.706,2.424,2.351,2.351,0,0,0,3.546,0,3.675,3.675,0,0,0,.706-2.468,3.479,3.479,0,0,0-.71-2.368,2.354,2.354,0,0,0-3.542,0A3.57,3.57,0,0,0,368.834,120.59Z" transform="translate(-9.856 -9.032)"/><path class="cls-5" d="M376.919,124.8v-8.426H378.2v1.277a3.493,3.493,0,0,1,.908-1.182,1.584,1.584,0,0,1,.916-0.286,2.788,2.788,0,0,1,1.469.46L381,117.972a2.047,2.047,0,0,0-1.048-.309,1.363,1.363,0,0,0-.841.281,1.521,1.521,0,0,0-.531.782,5.546,5.546,0,0,0-.238,1.666V124.8h-1.428Z" transform="translate(-9.856 -9.032)"/><path class="cls-5" d="M385.464,123.526l0.206,1.262a5.308,5.308,0,0,1-1.079.126,2.449,2.449,0,0,1-1.206-.246,1.377,1.377,0,0,1-.6-0.647,5.086,5.086,0,0,1-.175-1.686v-4.848H381.56v-1.111h1.048v-2.086l1.42-.857v2.943h1.437v1.111h-1.437v4.927a2.508,2.508,0,0,0,.075.786,0.6,0.6,0,0,0,.246.277,0.951,0.951,0,0,0,.488.1A4.652,4.652,0,0,0,385.464,123.526Z" transform="translate(-9.856 -9.032)"/><path class="cls-5" d="M387.2,124.8v-7.315h-1.262v-1.111H387.2v-0.9a3.923,3.923,0,0,1,.151-1.262,1.82,1.82,0,0,1,.726-0.9,2.619,2.619,0,0,1,1.456-.345,7,7,0,0,1,1.333.143l-0.215,1.246a4.8,4.8,0,0,0-.841-0.08,1.251,1.251,0,0,0-.92.278,1.507,1.507,0,0,0-.27,1.04v0.777h1.642v1.111h-1.642V124.8H387.2Z" transform="translate(-9.856 -9.032)"/><path class="cls-5" d="M390.843,120.59a4.344,4.344,0,0,1,1.3-3.467,3.918,3.918,0,0,1,2.65-.937,3.781,3.781,0,0,1,2.84,1.139,4.332,4.332,0,0,1,1.1,3.146,5.574,5.574,0,0,1-.488,2.559,3.455,3.455,0,0,1-1.42,1.448,4.139,4.139,0,0,1-2.035.516,3.785,3.785,0,0,1-2.86-1.135A4.53,4.53,0,0,1,390.843,120.59Zm1.469,0a3.585,3.585,0,0,0,.706,2.424,2.351,2.351,0,0,0,3.546,0,3.675,3.675,0,0,0,.706-2.468,3.479,3.479,0,0,0-.71-2.368,2.354,2.354,0,0,0-3.542,0A3.57,3.57,0,0,0,392.312,120.59Z" transform="translate(-9.856 -9.032)"/><path class="cls-5" d="M400.38,124.8V113.171h1.429V124.8H400.38Z" transform="translate(-9.856 -9.032)"/><path class="cls-5" d="M404.03,114.814v-1.643h1.428v1.643H404.03Zm0,9.989v-8.426h1.428V124.8H404.03Z" transform="translate(-9.856 -9.032)"/><path class="cls-5" d="M407.1,120.59a4.344,4.344,0,0,1,1.3-3.467,3.918,3.918,0,0,1,2.65-.937,3.781,3.781,0,0,1,2.84,1.139,4.332,4.332,0,0,1,1.1,3.146,5.574,5.574,0,0,1-.488,2.559,3.455,3.455,0,0,1-1.42,1.448,4.139,4.139,0,0,1-2.035.516,3.785,3.785,0,0,1-2.86-1.135A4.53,4.53,0,0,1,407.1,120.59Zm1.469,0a3.585,3.585,0,0,0,.706,2.424,2.351,2.351,0,0,0,3.546,0,3.675,3.675,0,0,0,.706-2.468,3.479,3.479,0,0,0-.71-2.368,2.354,2.354,0,0,0-3.542,0A3.57,3.57,0,0,0,408.569,120.59Z" transform="translate(-9.856 -9.032)"/><path class="cls-5" d="M301.813,127.12v-1.19H415.6v1.19H301.813Z" transform="translate(-9.856 -9.032)"/><path class="cls-5" d="M453.816,206.463V194.831h2.316l2.754,8.236q0.381,1.151.555,1.722,0.2-.634.619-1.864l2.785-8.093h2.07v11.632h-1.483v-9.735l-3.38,9.735h-1.389l-3.364-9.9v9.9h-1.483Z" transform="translate(-9.856 -9.032)"/><path class="cls-5" d="M472.716,205.423a5.306,5.306,0,0,1-1.527.952,4.413,4.413,0,0,1-1.575.278,3.064,3.064,0,0,1-2.134-.678,2.241,2.241,0,0,1-.746-1.734,2.3,2.3,0,0,1,.282-1.13,2.329,2.329,0,0,1,.737-0.821,3.473,3.473,0,0,1,1.027-.468,10.3,10.3,0,0,1,1.27-.214,13.03,13.03,0,0,0,2.547-.492c0.006-.2.009-0.32,0.009-0.373a1.577,1.577,0,0,0-.405-1.229,2.39,2.39,0,0,0-1.626-.484,2.529,2.529,0,0,0-1.488.353,2.158,2.158,0,0,0-.71,1.25l-1.4-.19a3.461,3.461,0,0,1,.627-1.448,2.748,2.748,0,0,1,1.262-.849,5.629,5.629,0,0,1,1.912-.3,5.066,5.066,0,0,1,1.753.254,2.314,2.314,0,0,1,.992.639,2.248,2.248,0,0,1,.444.972,8.012,8.012,0,0,1,.071,1.317v1.9a20.02,20.02,0,0,0,.092,2.519,3.172,3.172,0,0,0,.36,1.012H473A3.036,3.036,0,0,1,472.716,205.423Zm-0.119-3.189a10.482,10.482,0,0,1-2.332.54,5.371,5.371,0,0,0-1.246.286,1.248,1.248,0,0,0-.563.464,1.262,1.262,0,0,0,.234,1.63,1.86,1.86,0,0,0,1.266.381,2.941,2.941,0,0,0,1.468-.361,2.22,2.22,0,0,0,.944-0.988,3.449,3.449,0,0,0,.229-1.428v-0.524Z" transform="translate(-9.856 -9.032)"/><path class="cls-5" d="M476.239,206.463v-8.426h1.285v1.277a3.493,3.493,0,0,1,.908-1.182,1.584,1.584,0,0,1,.916-0.286,2.788,2.788,0,0,1,1.469.46l-0.492,1.325a2.047,2.047,0,0,0-1.048-.309,1.363,1.363,0,0,0-.841.281,1.521,1.521,0,0,0-.531.782,5.546,5.546,0,0,0-.238,1.666v4.412h-1.428Z" transform="translate(-9.856 -9.032)"/><path class="cls-5" d="M481.674,206.463V194.831H483.1v6.633l3.381-3.428h1.849l-3.222,3.126,3.547,5.3h-1.762l-2.785-4.308-1.008.968v3.34h-1.428Z" transform="translate(-9.856 -9.032)"/><path class="cls-5" d="M495.559,203.75l1.477,0.182a3.6,3.6,0,0,1-1.294,2.008,4.382,4.382,0,0,1-5.344-.425,4.449,4.449,0,0,1-1.083-3.193,4.654,4.654,0,0,1,1.1-3.3,3.706,3.706,0,0,1,2.84-1.174,3.606,3.606,0,0,1,2.762,1.15,4.572,4.572,0,0,1,1.07,3.237c0,0.084,0,.211-0.008.381h-6.283a3.238,3.238,0,0,0,.785,2.126,2.338,2.338,0,0,0,1.762.738,2.185,2.185,0,0,0,1.341-.413A2.737,2.737,0,0,0,495.559,203.75Zm-4.688-2.309h4.705a2.85,2.85,0,0,0-.54-1.595,2.189,2.189,0,0,0-1.77-.825,2.271,2.271,0,0,0-1.654.659A2.61,2.61,0,0,0,490.87,201.44Z" transform="translate(-9.856 -9.032)"/><path class="cls-5" d="M501.946,205.186l0.206,1.262a5.308,5.308,0,0,1-1.079.126,2.449,2.449,0,0,1-1.206-.246,1.377,1.377,0,0,1-.6-0.647A5.086,5.086,0,0,1,499.09,204v-4.848h-1.048v-1.111h1.048V195.95l1.42-.857v2.943h1.437v1.111H500.51v4.927a2.508,2.508,0,0,0,.075.786,0.6,0.6,0,0,0,.246.277,0.951,0.951,0,0,0,.488.1A4.652,4.652,0,0,0,501.946,205.186Z" transform="translate(-9.856 -9.032)"/><path class="cls-5" d="M508.063,206.463V194.831h5.157a6.858,6.858,0,0,1,2.364.313,2.588,2.588,0,0,1,1.294,1.107,3.306,3.306,0,0,1,.483,1.753,2.925,2.925,0,0,1-.8,2.087,4.058,4.058,0,0,1-2.476,1.079,3.977,3.977,0,0,1,.928.579,7.958,7.958,0,0,1,1.277,1.547l2.023,3.166h-1.936l-1.539-2.42q-0.675-1.047-1.111-1.6a3.509,3.509,0,0,0-.781-0.778,2.326,2.326,0,0,0-.7-0.31,4.672,4.672,0,0,0-.857-0.055H509.6v5.165h-1.539Zm1.539-6.5h3.309a4.958,4.958,0,0,0,1.65-.218,1.757,1.757,0,0,0,.9-0.7,1.883,1.883,0,0,0,.31-1.043,1.734,1.734,0,0,0-.6-1.357,2.806,2.806,0,0,0-1.893-.531H509.6v3.848Z" transform="translate(-9.856 -9.032)"/><path class="cls-5" d="M519.6,196.474v-1.643h1.428v1.643H519.6Zm0,9.989v-8.426h1.428v8.426H519.6Z" transform="translate(-9.856 -9.032)"/><path class="cls-5" d="M522.631,203.948l1.412-.222a1.974,1.974,0,0,0,.662,1.3,2.311,2.311,0,0,0,1.52.452,2.229,2.229,0,0,0,1.46-.4,1.2,1.2,0,0,0,.477-0.94,0.868,0.868,0,0,0-.421-0.762,6.2,6.2,0,0,0-1.46-.484,13.3,13.3,0,0,1-2.178-.687,2.079,2.079,0,0,1-1.233-1.932,2.169,2.169,0,0,1,.258-1.043,2.3,2.3,0,0,1,.7-0.8,2.944,2.944,0,0,1,.908-0.417,4.337,4.337,0,0,1,1.233-.17,4.881,4.881,0,0,1,1.742.286,2.369,2.369,0,0,1,1.106.773,3.023,3.023,0,0,1,.492,1.305l-1.4.19a1.524,1.524,0,0,0-.552-1.015,2.013,2.013,0,0,0-1.289-.365,2.334,2.334,0,0,0-1.4.325,0.949,0.949,0,0,0-.421.762,0.789,0.789,0,0,0,.175.5,1.259,1.259,0,0,0,.548.381q0.214,0.079,1.261.365a17.612,17.612,0,0,1,2.115.663,2.137,2.137,0,0,1,.939.75,2.093,2.093,0,0,1,.342,1.222,2.393,2.393,0,0,1-.417,1.345,2.684,2.684,0,0,1-1.2.976,4.377,4.377,0,0,1-1.777.345,3.961,3.961,0,0,1-2.5-.682A3.17,3.17,0,0,1,522.631,203.948Z" transform="translate(-9.856 -9.032)"/><path class="cls-5" d="M531.335,206.463V194.831h1.428v6.633l3.381-3.428h1.849l-3.222,3.126,3.547,5.3h-1.762l-2.785-4.308-1.008.968v3.34h-1.428Z" transform="translate(-9.856 -9.032)"/><path class="cls-5" d="M452.61,208.78v-1.19h85.771v1.19H452.61Z" transform="translate(-9.856 -9.032)"/><path class="cls-5" d="M453.864,225.962V214.331h4.388a10.566,10.566,0,0,1,1.769.111,3.505,3.505,0,0,1,1.437.543,2.857,2.857,0,0,1,.933,1.123,3.788,3.788,0,0,1-.592,4.1,4.527,4.527,0,0,1-3.411,1.027H455.4v4.729h-1.539Zm1.539-6.1h3.007a3.188,3.188,0,0,0,2.118-.555,1.979,1.979,0,0,0,.627-1.563,2.109,2.109,0,0,0-.368-1.25,1.725,1.725,0,0,0-.973-0.686,6.565,6.565,0,0,0-1.436-.1H455.4v4.157Z" transform="translate(-9.856 -9.032)"/><path class="cls-5" d="M464.5,225.962v-8.426h1.285v1.277a3.493,3.493,0,0,1,.908-1.182,1.584,1.584,0,0,1,.916-0.286,2.788,2.788,0,0,1,1.469.46l-0.492,1.325a2.047,2.047,0,0,0-1.048-.309,1.363,1.363,0,0,0-.841.281,1.521,1.521,0,0,0-.531.782,5.546,5.546,0,0,0-.238,1.666v4.412H464.5Z" transform="translate(-9.856 -9.032)"/><path class="cls-5" d="M475.7,223.249l1.477,0.182a3.6,3.6,0,0,1-1.294,2.008,4.382,4.382,0,0,1-5.344-.425,4.449,4.449,0,0,1-1.083-3.193,4.654,4.654,0,0,1,1.1-3.3,3.706,3.706,0,0,1,2.84-1.174,3.606,3.606,0,0,1,2.762,1.15,4.572,4.572,0,0,1,1.07,3.237c0,0.084,0,.211-0.008.381h-6.283a3.238,3.238,0,0,0,.785,2.126,2.338,2.338,0,0,0,1.762.738,2.185,2.185,0,0,0,1.341-.413A2.737,2.737,0,0,0,475.7,223.249Zm-4.688-2.309h4.705a2.85,2.85,0,0,0-.54-1.595,2.189,2.189,0,0,0-1.77-.825,2.271,2.271,0,0,0-1.654.659A2.61,2.61,0,0,0,471.01,220.94Z" transform="translate(-9.856 -9.032)"/><path class="cls-5" d="M478.968,225.962v-8.426h1.277v1.182a3.009,3.009,0,0,1,1.055-1,2.971,2.971,0,0,1,1.5-.377,2.775,2.775,0,0,1,1.535.389,2.076,2.076,0,0,1,.845,1.087,3.026,3.026,0,0,1,2.6-1.476,2.567,2.567,0,0,1,1.929.694,2.969,2.969,0,0,1,.674,2.138v5.784h-1.42v-5.308a3.934,3.934,0,0,0-.139-1.234,1.2,1.2,0,0,0-.5-0.607,1.574,1.574,0,0,0-.857-0.23,2,2,0,0,0-1.476.591,2.6,2.6,0,0,0-.587,1.892v4.9h-1.428v-5.475a2.411,2.411,0,0,0-.35-1.428,1.321,1.321,0,0,0-1.143-.476,2.073,2.073,0,0,0-1.114.317,1.8,1.8,0,0,0-.742.928,5.229,5.229,0,0,0-.23,1.762v4.372h-1.428Z" transform="translate(-9.856 -9.032)"/><path class="cls-5" d="M492.512,215.973v-1.643h1.428v1.643h-1.428Zm0,9.989v-8.426h1.428v8.426h-1.428Z" transform="translate(-9.856 -9.032)"/><path class="cls-5" d="M501.637,225.962v-1.238a3.085,3.085,0,0,1-2.674,1.428,3.4,3.4,0,0,1-1.393-.286,2.288,2.288,0,0,1-.96-0.718,2.678,2.678,0,0,1-.44-1.059,7.2,7.2,0,0,1-.088-1.333v-5.221h1.429v4.673a8.3,8.3,0,0,0,.087,1.507,1.488,1.488,0,0,0,.571.885,1.769,1.769,0,0,0,1.079.321,2.349,2.349,0,0,0,1.206-.329,1.831,1.831,0,0,0,.8-0.9,4.52,4.52,0,0,0,.233-1.646v-4.515h1.429v8.426h-1.277Z" transform="translate(-9.856 -9.032)"/><path class="cls-5" d="M505.151,225.962v-8.426h1.277v1.182a3.009,3.009,0,0,1,1.055-1,2.971,2.971,0,0,1,1.5-.377,2.775,2.775,0,0,1,1.535.389,2.076,2.076,0,0,1,.845,1.087,3.026,3.026,0,0,1,2.6-1.476,2.567,2.567,0,0,1,1.929.694,2.969,2.969,0,0,1,.674,2.138v5.784h-1.42v-5.308a3.934,3.934,0,0,0-.139-1.234,1.2,1.2,0,0,0-.5-0.607,1.574,1.574,0,0,0-.857-0.23,2,2,0,0,0-1.476.591,2.6,2.6,0,0,0-.587,1.892v4.9h-1.428v-5.475a2.411,2.411,0,0,0-.35-1.428,1.321,1.321,0,0,0-1.143-.476,2.073,2.073,0,0,0-1.114.317,1.8,1.8,0,0,0-.742.928,5.229,5.229,0,0,0-.23,1.762v4.372h-1.428Z" transform="translate(-9.856 -9.032)"/><path class="cls-5" d="M452.61,228.279v-1.19h65.006v1.19H452.61Z" transform="translate(-9.856 -9.032)"/><circle cx="186.262" cy="166.727" r="3.142"/><circle cx="260.819" cy="252.87" r="3.142"/><circle cx="179.86" cy="221.17" r="3.142"/><circle cx="407.732" cy="137.163" r="3.142"/><circle cx="56.542" cy="266.797" r="3.142"/><line class="cls-12" x1="449.805" y1="92.649" x2="445.508" y2="112.147"/><polygon class="cls-12" points="448.939 112.903 444.198 118.09 442.077 111.391 448.939 112.903"/><line class="cls-12" x1="380.951" y1="118.09" x2="397.674" y2="128.998"/><polygon class="cls-12" points="399.594 126.056 402.771 132.322 395.755 131.941 399.594 126.056"/><path class="cls-5" d="M118.017,219.643l4.467-11.632h1.658l4.76,11.632h-1.753l-1.356-3.523h-4.864l-1.277,3.523h-1.635Zm3.356-4.776h3.943l-1.214-3.221q-0.556-1.468-.825-2.412a14.908,14.908,0,0,1-.627,2.222Z" transform="translate(-9.856 -9.032)"/><path class="cls-5" d="M129.379,217.127l1.412-.222a1.976,1.976,0,0,0,.663,1.3,2.31,2.31,0,0,0,1.52.452,2.23,2.23,0,0,0,1.46-.4,1.2,1.2,0,0,0,.476-0.94,0.868,0.868,0,0,0-.421-0.762,6.2,6.2,0,0,0-1.46-.484,13.32,13.32,0,0,1-2.178-.687,2.079,2.079,0,0,1-1.234-1.932,2.169,2.169,0,0,1,.258-1.043,2.311,2.311,0,0,1,.7-0.8,2.952,2.952,0,0,1,.909-0.417,4.333,4.333,0,0,1,1.234-.17,4.874,4.874,0,0,1,1.741.286,2.368,2.368,0,0,1,1.107.773,3.029,3.029,0,0,1,.492,1.305l-1.4.19a1.526,1.526,0,0,0-.552-1.015,2.015,2.015,0,0,0-1.289-.365,2.335,2.335,0,0,0-1.4.325,0.947,0.947,0,0,0-.42.762,0.788,0.788,0,0,0,.174.5,1.26,1.26,0,0,0,.547.381q0.215,0.079,1.262.365a17.611,17.611,0,0,1,2.114.663,2.145,2.145,0,0,1,.94.75,2.093,2.093,0,0,1,.341,1.222,2.4,2.4,0,0,1-.417,1.345,2.692,2.692,0,0,1-1.2.976,4.379,4.379,0,0,1-1.777.345,3.963,3.963,0,0,1-2.5-.682A3.174,3.174,0,0,1,129.379,217.127Z" transform="translate(-9.856 -9.032)"/><path class="cls-5" d="M137.5,217.127l1.412-.222a1.976,1.976,0,0,0,.663,1.3,2.31,2.31,0,0,0,1.52.452,2.23,2.23,0,0,0,1.46-.4,1.2,1.2,0,0,0,.476-0.94,0.868,0.868,0,0,0-.421-0.762,6.2,6.2,0,0,0-1.46-.484,13.32,13.32,0,0,1-2.178-.687,2.079,2.079,0,0,1-1.234-1.932,2.169,2.169,0,0,1,.258-1.043,2.311,2.311,0,0,1,.7-0.8,2.952,2.952,0,0,1,.909-0.417,4.333,4.333,0,0,1,1.234-.17,4.874,4.874,0,0,1,1.741.286,2.368,2.368,0,0,1,1.107.773,3.029,3.029,0,0,1,.492,1.305l-1.4.19a1.526,1.526,0,0,0-.552-1.015,2.015,2.015,0,0,0-1.289-.365,2.335,2.335,0,0,0-1.4.325,0.947,0.947,0,0,0-.42.762,0.788,0.788,0,0,0,.174.5,1.26,1.26,0,0,0,.547.381q0.215,0.079,1.262.365a17.611,17.611,0,0,1,2.114.663,2.145,2.145,0,0,1,.94.75,2.093,2.093,0,0,1,.341,1.222,2.4,2.4,0,0,1-.417,1.345,2.692,2.692,0,0,1-1.2.976,4.379,4.379,0,0,1-1.777.345,3.963,3.963,0,0,1-2.5-.682A3.174,3.174,0,0,1,137.5,217.127Z" transform="translate(-9.856 -9.032)"/><path class="cls-5" d="M151.968,216.929l1.476,0.182a3.6,3.6,0,0,1-1.293,2.008,4.382,4.382,0,0,1-5.344-.425,4.447,4.447,0,0,1-1.083-3.193,4.656,4.656,0,0,1,1.095-3.3,3.707,3.707,0,0,1,2.84-1.174,3.6,3.6,0,0,1,2.761,1.15,4.57,4.57,0,0,1,1.071,3.237c0,0.084,0,.211-0.008.381H147.2a3.236,3.236,0,0,0,.786,2.126,2.338,2.338,0,0,0,1.761.738,2.182,2.182,0,0,0,1.341-.413A2.738,2.738,0,0,0,151.968,216.929Zm-4.689-2.309h4.7a2.858,2.858,0,0,0-.539-1.595,2.189,2.189,0,0,0-1.77-.825,2.269,2.269,0,0,0-1.654.659A2.6,2.6,0,0,0,147.279,214.62Z" transform="translate(-9.856 -9.032)"/><path class="cls-5" d="M158.355,218.365l0.206,1.262a5.3,5.3,0,0,1-1.079.126,2.447,2.447,0,0,1-1.206-.246,1.378,1.378,0,0,1-.6-0.647,5.118,5.118,0,0,1-.174-1.686v-4.848h-1.047v-1.111H155.5V209.13l1.42-.857v2.943h1.436v1.111h-1.436v4.927a2.492,2.492,0,0,0,.075.786,0.593,0.593,0,0,0,.246.277,0.948,0.948,0,0,0,.488.1A4.639,4.639,0,0,0,158.355,218.365Z" transform="translate(-9.856 -9.032)"/><path class="cls-5" d="M118.041,221.959v-1.19H158.68v1.19H118.041Z" transform="translate(-9.856 -9.032)"/><line class="cls-12" x1="150.297" y1="207.585" x2="168.837" y2="214.997"/><polygon class="cls-12" points="170.141 211.735 174.487 217.256 167.533 218.259 170.141 211.735"/><path d="M276.666,259.125l4.467-11.632h1.658l4.76,11.632H285.8l-1.356-3.523h-4.864l-1.277,3.523h-1.635Zm3.356-4.776h3.943l-1.214-3.221q-0.556-1.468-.825-2.412a14.908,14.908,0,0,1-.627,2.222Z" transform="translate(-9.856 -9.032)"/><path d="M202.875,177V165.365h4.364a5.411,5.411,0,0,1,2.138.353,2.754,2.754,0,0,1,1.261,1.087,2.865,2.865,0,0,1,.457,1.535,2.635,2.635,0,0,1-.4,1.4,2.888,2.888,0,0,1-1.222,1.063,3.043,3.043,0,0,1,1.623,1.056,2.827,2.827,0,0,1,.567,1.761,3.4,3.4,0,0,1-.345,1.52,2.95,2.95,0,0,1-.853,1.083,3.56,3.56,0,0,1-1.273.575,7.759,7.759,0,0,1-1.876.194h-4.436Zm1.54-6.744h2.515a5.618,5.618,0,0,0,1.468-.135,1.631,1.631,0,0,0,.885-0.579,1.67,1.67,0,0,0,.3-1.016,1.867,1.867,0,0,0-.278-1.02,1.4,1.4,0,0,0-.793-0.6,6.627,6.627,0,0,0-1.769-.163h-2.325v3.515Zm0,5.372h2.9a6.655,6.655,0,0,0,1.047-.056,2.508,2.508,0,0,0,.889-0.317,1.686,1.686,0,0,0,.587-0.646,2.026,2.026,0,0,0,.23-0.98,1.934,1.934,0,0,0-.333-1.131,1.76,1.76,0,0,0-.924-0.674,5.739,5.739,0,0,0-1.7-.194h-2.689v4Z" transform="translate(-9.856 -9.032)"/><path class="cls-13" d="M421.26,149.28c35.212,32.968,35.831,89.416,1.385,126.206" transform="translate(-9.856 -9.032)"/><path class="cls-6" d="M9.856,18.519l1.7-.148a3.752,3.752,0,0,0,.563,1.679,3.069,3.069,0,0,0,1.372,1.06,5.19,5.19,0,0,0,2.093.4,5.014,5.014,0,0,0,1.823-.307,2.527,2.527,0,0,0,1.177-.842,1.951,1.951,0,0,0,.386-1.167,1.774,1.774,0,0,0-.372-1.121,2.758,2.758,0,0,0-1.228-.8,24.042,24.042,0,0,0-2.427-.665,12.405,12.405,0,0,1-2.632-.851,3.69,3.69,0,0,1-1.456-1.27,3.111,3.111,0,0,1-.479-1.7,3.464,3.464,0,0,1,.586-1.93A3.626,3.626,0,0,1,12.674,9.5a6.49,6.49,0,0,1,2.5-.465,6.833,6.833,0,0,1,2.674.488,3.853,3.853,0,0,1,1.781,1.437,4.132,4.132,0,0,1,.669,2.148l-1.73.13a2.791,2.791,0,0,0-.944-1.953,3.677,3.677,0,0,0-2.376-.66,3.814,3.814,0,0,0-2.386.6,1.8,1.8,0,0,0-.749,1.446,1.551,1.551,0,0,0,.53,1.209,7.186,7.186,0,0,0,2.72.972,18.017,18.017,0,0,1,3.018.87,4.13,4.13,0,0,1,1.758,1.391,3.385,3.385,0,0,1,.567,1.939,3.707,3.707,0,0,1-.623,2.051A4.1,4.1,0,0,1,18.3,22.6a6.237,6.237,0,0,1-2.627.535,7.84,7.84,0,0,1-3.1-.54A4.341,4.341,0,0,1,10.6,20.97,4.6,4.6,0,0,1,9.856,18.519Z" transform="translate(-9.856 -9.032)"/><path class="cls-6" d="M29.722,19.719l1.73,0.214a4.222,4.222,0,0,1-1.516,2.353,4.556,4.556,0,0,1-2.827.837,4.518,4.518,0,0,1-3.437-1.334,5.214,5.214,0,0,1-1.27-3.744,5.459,5.459,0,0,1,1.283-3.869,4.346,4.346,0,0,1,3.33-1.376,4.223,4.223,0,0,1,3.237,1.349,5.359,5.359,0,0,1,1.255,3.794q0,0.149-.009.447H24.132a3.8,3.8,0,0,0,.921,2.493,2.74,2.74,0,0,0,2.065.865,2.563,2.563,0,0,0,1.572-.483A3.214,3.214,0,0,0,29.722,19.719Zm-5.5-2.707h5.515a3.346,3.346,0,0,0-.632-1.87,2.567,2.567,0,0,0-2.074-.967,2.659,2.659,0,0,0-1.939.772A3.055,3.055,0,0,0,24.226,17.012Z" transform="translate(-9.856 -9.032)"/><path class="cls-6" d="M40,19.281L41.646,19.5a4.27,4.27,0,0,1-1.381,2.665,4.024,4.024,0,0,1-2.729.962,4.24,4.24,0,0,1-3.26-1.325A5.377,5.377,0,0,1,33.043,18a6.875,6.875,0,0,1,.53-2.8,3.694,3.694,0,0,1,1.613-1.8,4.789,4.789,0,0,1,2.358-.6,4.1,4.1,0,0,1,2.632.814,3.732,3.732,0,0,1,1.311,2.311l-1.627.251a2.7,2.7,0,0,0-.823-1.5,2.129,2.129,0,0,0-1.428-.5,2.6,2.6,0,0,0-2.055.907,4.3,4.3,0,0,0-.791,2.87,4.446,4.446,0,0,0,.763,2.892,2.481,2.481,0,0,0,1.99.9,2.343,2.343,0,0,0,1.646-.6A3,3,0,0,0,40,19.281Z" transform="translate(-9.856 -9.032)"/><path class="cls-6" d="M49.552,22.9V21.449a3.616,3.616,0,0,1-3.134,1.674,3.987,3.987,0,0,1-1.632-.335,2.686,2.686,0,0,1-1.125-.841,3.151,3.151,0,0,1-.516-1.242,8.483,8.483,0,0,1-.1-1.562v-6.12h1.674V18.5a9.8,9.8,0,0,0,.1,1.767,1.745,1.745,0,0,0,.67,1.037,2.072,2.072,0,0,0,1.265.377,2.757,2.757,0,0,0,1.414-.386,2.148,2.148,0,0,0,.935-1.051,5.28,5.28,0,0,0,.274-1.93V13.022h1.674V22.9h-1.5Z" transform="translate(-9.856 -9.032)"/><path class="cls-6" d="M53.653,22.9V13.022H55.16v1.5a4.081,4.081,0,0,1,1.065-1.386A1.86,1.86,0,0,1,57.3,12.8a3.265,3.265,0,0,1,1.721.54l-0.577,1.553a2.4,2.4,0,0,0-1.228-.363,1.6,1.6,0,0,0-.986.33,1.789,1.789,0,0,0-.624.916,6.522,6.522,0,0,0-.279,1.953V22.9H53.653Z" transform="translate(-9.856 -9.032)"/><path class="cls-6" d="M60.024,11.19V9.265H61.7V11.19H60.024Zm0,11.709V13.022H61.7V22.9H60.024Z" transform="translate(-9.856 -9.032)"/><path class="cls-6" d="M67.9,21.4l0.242,1.479a6.222,6.222,0,0,1-1.265.149,2.859,2.859,0,0,1-1.414-.289,1.612,1.612,0,0,1-.707-0.758,6,6,0,0,1-.2-1.977V14.324H63.326v-1.3h1.228V10.576l1.665-1v3.451H67.9v1.3H66.219V20.1a2.908,2.908,0,0,0,.088.92,0.694,0.694,0,0,0,.288.326,1.113,1.113,0,0,0,.572.121A5.446,5.446,0,0,0,67.9,21.4Z" transform="translate(-9.856 -9.032)"/><path class="cls-6" d="M69.464,26.7l-0.186-1.572a3.734,3.734,0,0,0,.958.149,1.84,1.84,0,0,0,.893-0.186,1.52,1.52,0,0,0,.548-0.521,8.229,8.229,0,0,0,.512-1.247c0.031-.093.081-0.229,0.149-0.409l-3.748-9.9h1.8l2.055,5.72q0.4,1.088.716,2.288a22.577,22.577,0,0,1,.688-2.25l2.111-5.757H77.64L73.882,23.067a19.777,19.777,0,0,1-.939,2.241,3.311,3.311,0,0,1-1.023,1.214,2.417,2.417,0,0,1-1.376.386A3.358,3.358,0,0,1,69.464,26.7Z" transform="translate(-9.856 -9.032)"/><path class="cls-6" d="M84.513,22.9V9.265h2.716l3.228,9.654q0.446,1.348.651,2.018,0.232-.744.726-2.186L95.1,9.265h2.427V22.9H95.785V11.487L91.823,22.9H90.2L86.252,11.292V22.9H84.513Z" transform="translate(-9.856 -9.032)"/><path class="cls-6" d="M106.667,21.681a6.237,6.237,0,0,1-1.791,1.116,5.168,5.168,0,0,1-1.846.326,3.593,3.593,0,0,1-2.5-.795,2.624,2.624,0,0,1-.874-2.032,2.753,2.753,0,0,1,1.195-2.288,4.072,4.072,0,0,1,1.2-.549,11.939,11.939,0,0,1,1.488-.251,15.3,15.3,0,0,0,2.985-.577c0.006-.229.009-0.375,0.009-0.437a1.85,1.85,0,0,0-.474-1.442,2.8,2.8,0,0,0-1.907-.567,2.957,2.957,0,0,0-1.744.414,2.531,2.531,0,0,0-.833,1.465l-1.637-.223a4.057,4.057,0,0,1,.735-1.7,3.225,3.225,0,0,1,1.479-1A6.6,6.6,0,0,1,104.4,12.8a5.927,5.927,0,0,1,2.056.3,2.705,2.705,0,0,1,1.162.749,2.633,2.633,0,0,1,.521,1.139,9.436,9.436,0,0,1,.084,1.544v2.232a23.69,23.69,0,0,0,.107,2.953,3.706,3.706,0,0,0,.423,1.186H107A3.549,3.549,0,0,1,106.667,21.681Zm-0.14-3.739a12.265,12.265,0,0,1-2.734.633,6.349,6.349,0,0,0-1.46.334,1.458,1.458,0,0,0-.66.544,1.48,1.48,0,0,0,.274,1.911,2.18,2.18,0,0,0,1.483.446,3.452,3.452,0,0,0,1.721-.423,2.608,2.608,0,0,0,1.107-1.158,4.044,4.044,0,0,0,.27-1.674V17.942Z" transform="translate(-9.856 -9.032)"/><path class="cls-6" d="M110.8,22.9V13.022H112.3v1.5a4.081,4.081,0,0,1,1.065-1.386,1.86,1.86,0,0,1,1.074-.335,3.265,3.265,0,0,1,1.721.54l-0.577,1.553a2.4,2.4,0,0,0-1.228-.363,1.6,1.6,0,0,0-.986.33,1.789,1.789,0,0,0-.624.916,6.522,6.522,0,0,0-.279,1.953V22.9H110.8Z" transform="translate(-9.856 -9.032)"/><path class="cls-6" d="M117.168,22.9V9.265h1.674V17.04l3.962-4.018h2.167l-3.776,3.665,4.158,6.213h-2.065l-3.265-5.05-1.181,1.135V22.9h-1.674Z" transform="translate(-9.856 -9.032)"/><path class="cls-6" d="M133.444,19.719l1.73,0.214a4.222,4.222,0,0,1-1.516,2.353,5.136,5.136,0,0,1-6.264-.5,5.214,5.214,0,0,1-1.27-3.744,5.459,5.459,0,0,1,1.283-3.869,4.346,4.346,0,0,1,3.33-1.376,4.223,4.223,0,0,1,3.237,1.349,5.359,5.359,0,0,1,1.255,3.794q0,0.149-.009.447h-7.366a3.8,3.8,0,0,0,.921,2.493,2.74,2.74,0,0,0,2.065.865,2.563,2.563,0,0,0,1.572-.483A3.214,3.214,0,0,0,133.444,19.719Zm-5.5-2.707h5.515a3.346,3.346,0,0,0-.632-1.87,2.567,2.567,0,0,0-2.074-.967,2.659,2.659,0,0,0-1.939.772A3.055,3.055,0,0,0,127.947,17.012Z" transform="translate(-9.856 -9.032)"/><path class="cls-6" d="M140.931,21.4l0.242,1.479a6.222,6.222,0,0,1-1.265.149,2.859,2.859,0,0,1-1.414-.289,1.612,1.612,0,0,1-.707-0.758,6,6,0,0,1-.2-1.977V14.324h-1.228v-1.3h1.228V10.576l1.665-1v3.451h1.683v1.3h-1.683V20.1a2.908,2.908,0,0,0,.088.92,0.694,0.694,0,0,0,.288.326,1.113,1.113,0,0,0,.572.121A5.446,5.446,0,0,0,140.931,21.4Z" transform="translate(-9.856 -9.032)"/><path class="cls-6" d="M148,22.9V9.265h1.8V21.291h6.715V22.9H148Z" transform="translate(-9.856 -9.032)"/><path class="cls-6" d="M158.463,11.19V9.265h1.674V11.19h-1.674Zm0,11.709V13.022h1.674V22.9h-1.674Z" transform="translate(-9.856 -9.032)"/><path class="cls-6" d="M162.685,22.9V13.022h1.507v1.4a3.551,3.551,0,0,1,3.144-1.627,4.125,4.125,0,0,1,1.642.321,2.584,2.584,0,0,1,1.121.842,3.238,3.238,0,0,1,.521,1.237,9.588,9.588,0,0,1,.093,1.628V22.9h-1.674V16.891a4.5,4.5,0,0,0-.2-1.53,1.609,1.609,0,0,0-.693-0.809,2.2,2.2,0,0,0-1.167-.3,2.711,2.711,0,0,0-1.846.679,3.348,3.348,0,0,0-.777,2.576V22.9h-1.674Z" transform="translate(-9.856 -9.032)"/><path class="cls-6" d="M180.041,19.719l1.73,0.214a4.222,4.222,0,0,1-1.516,2.353,5.136,5.136,0,0,1-6.264-.5,5.214,5.214,0,0,1-1.27-3.744A5.459,5.459,0,0,1,174,14.175a4.346,4.346,0,0,1,3.33-1.376,4.223,4.223,0,0,1,3.237,1.349,5.359,5.359,0,0,1,1.255,3.794q0,0.149-.009.447h-7.366a3.8,3.8,0,0,0,.921,2.493,2.74,2.74,0,0,0,2.065.865,2.563,2.563,0,0,0,1.572-.483A3.214,3.214,0,0,0,180.041,19.719Zm-5.5-2.707h5.515a3.346,3.346,0,0,0-.632-1.87,2.567,2.567,0,0,0-2.074-.967,2.659,2.659,0,0,0-1.939.772A3.055,3.055,0,0,0,174.544,17.012Z" transform="translate(-9.856 -9.032)"/><path class="cls-6" d="M195.758,17.551v-1.6l5.776-.009V21a10.194,10.194,0,0,1-2.744,1.6,8.139,8.139,0,0,1-2.9.535,7.74,7.74,0,0,1-3.65-.86,5.682,5.682,0,0,1-2.479-2.488,7.833,7.833,0,0,1-.837-3.637,8.434,8.434,0,0,1,.833-3.715,5.533,5.533,0,0,1,2.4-2.562,7.5,7.5,0,0,1,3.6-.837,7.134,7.134,0,0,1,2.674.479,4.436,4.436,0,0,1,1.874,1.334,5.922,5.922,0,0,1,1.032,2.232l-1.627.447a5.044,5.044,0,0,0-.763-1.637,3.137,3.137,0,0,0-1.3-.953,4.775,4.775,0,0,0-1.879-.358,5.535,5.535,0,0,0-2.139.376,4,4,0,0,0-1.456.991,4.74,4.74,0,0,0-.86,1.349,7.137,7.137,0,0,0-.521,2.744,6.65,6.65,0,0,0,.628,3.05,4.016,4.016,0,0,0,1.827,1.823,5.659,5.659,0,0,0,2.549.6,6.052,6.052,0,0,0,2.288-.451,5.916,5.916,0,0,0,1.693-.962v-2.54h-4.009Z" transform="translate(-9.856 -9.032)"/><path class="cls-6" d="M203.962,22.9V13.022h1.507v1.5a4.081,4.081,0,0,1,1.065-1.386,1.86,1.86,0,0,1,1.074-.335,3.265,3.265,0,0,1,1.721.54l-0.577,1.553a2.4,2.4,0,0,0-1.228-.363,1.6,1.6,0,0,0-.986.33,1.789,1.789,0,0,0-.624.916,6.522,6.522,0,0,0-.279,1.953V22.9h-1.674Z" transform="translate(-9.856 -9.032)"/><path class="cls-6" d="M216.769,21.681a6.237,6.237,0,0,1-1.791,1.116,5.168,5.168,0,0,1-1.846.326,3.593,3.593,0,0,1-2.5-.795,2.624,2.624,0,0,1-.874-2.032,2.753,2.753,0,0,1,1.195-2.288,4.072,4.072,0,0,1,1.2-.549,11.939,11.939,0,0,1,1.488-.251,15.3,15.3,0,0,0,2.985-.577c0.006-.229.009-0.375,0.009-0.437a1.85,1.85,0,0,0-.474-1.442,2.8,2.8,0,0,0-1.907-.567,2.957,2.957,0,0,0-1.744.414,2.531,2.531,0,0,0-.833,1.465l-1.637-.223a4.057,4.057,0,0,1,.735-1.7,3.225,3.225,0,0,1,1.479-1A6.6,6.6,0,0,1,214.5,12.8a5.927,5.927,0,0,1,2.056.3,2.705,2.705,0,0,1,1.162.749,2.633,2.633,0,0,1,.521,1.139,9.436,9.436,0,0,1,.084,1.544v2.232a23.69,23.69,0,0,0,.107,2.953,3.706,3.706,0,0,0,.423,1.186H217.1A3.549,3.549,0,0,1,216.769,21.681Zm-0.14-3.739a12.265,12.265,0,0,1-2.734.633,6.349,6.349,0,0,0-1.46.334,1.458,1.458,0,0,0-.66.544,1.48,1.48,0,0,0,.274,1.911,2.18,2.18,0,0,0,1.483.446,3.452,3.452,0,0,0,1.721-.423,2.608,2.608,0,0,0,1.107-1.158,4.044,4.044,0,0,0,.27-1.674V17.942Z" transform="translate(-9.856 -9.032)"/><path class="cls-6" d="M220.917,26.685V13.022h1.525v1.284a3.761,3.761,0,0,1,1.219-1.13,3.347,3.347,0,0,1,1.646-.376,3.907,3.907,0,0,1,2.232.651A4,4,0,0,1,229,15.287a6.708,6.708,0,0,1,.493,2.6,6.6,6.6,0,0,1-.544,2.73,4.1,4.1,0,0,1-1.581,1.86,4.058,4.058,0,0,1-2.181.646,3.149,3.149,0,0,1-1.5-.354,3.418,3.418,0,0,1-1.093-.893v4.808h-1.674Zm1.516-8.668a4.3,4.3,0,0,0,.772,2.818,2.367,2.367,0,0,0,1.87.912,2.42,2.42,0,0,0,1.911-.944,4.479,4.479,0,0,0,.8-2.925A4.363,4.363,0,0,0,227,15.05a2.337,2.337,0,0,0-1.855-.939,2.412,2.412,0,0,0-1.893,1A4.475,4.475,0,0,0,222.433,18.017Z" transform="translate(-9.856 -9.032)"/><path class="cls-6" d="M231.51,22.9V9.265h1.674v4.892a3.74,3.74,0,0,1,2.958-1.358,3.985,3.985,0,0,1,1.907.433,2.54,2.54,0,0,1,1.158,1.195,5.514,5.514,0,0,1,.349,2.214V22.9h-1.674V16.64a2.586,2.586,0,0,0-.544-1.828,2.023,2.023,0,0,0-1.539-.572,2.713,2.713,0,0,0-1.4.386,2.177,2.177,0,0,0-.935,1.046,4.8,4.8,0,0,0-.279,1.823v5.4H231.51Z" transform="translate(-9.856 -9.032)"/></svg>