<svg id="Layer_1" data-name="Layer 1" xmlns="http://www.w3.org/2000/svg" viewBox="0 0 541.904 419.003"><defs><style>.cls-1,.cls-2,.cls-4,.cls-5{fill:none;stroke-miterlimit:10;}.cls-1{stroke:#000;}.cls-2{stroke:#ed1f24;stroke-width:2px;}.cls-3{fill:#af6f29;}.cls-4{stroke:#6cbe45;}.cls-5{stroke:#6bbd45;}</style></defs><title>Understanding_Alpha</title><line class="cls-1" x1="40.691" y1="380.544" x2="40.691" y2="40.063"/><path d="M20.469,15.273V3.381h5.273a7.025,7.025,0,0,1,2.417.32,2.644,2.644,0,0,1,1.322,1.132,3.373,3.373,0,0,1,.5,1.792,2.991,2.991,0,0,1-.82,2.134,4.144,4.144,0,0,1-2.531,1.1,4.1,4.1,0,0,1,.949.592,8.19,8.19,0,0,1,1.306,1.582l2.068,3.237H28.971L27.4,12.8q-0.689-1.071-1.136-1.639a3.568,3.568,0,0,0-.8-0.795,2.365,2.365,0,0,0-.718-0.316,4.7,4.7,0,0,0-.876-0.057H22.043v5.281H20.469Zm1.574-6.644h3.383a5.07,5.07,0,0,0,1.688-.223,1.8,1.8,0,0,0,.925-0.714,1.93,1.93,0,0,0,.316-1.067,1.774,1.774,0,0,0-.613-1.387,2.868,2.868,0,0,0-1.935-.543H22.043V8.629Z" transform="translate(-4.756 -3.381)"/><path d="M38.154,12.5l1.509,0.187a3.681,3.681,0,0,1-1.323,2.052,3.974,3.974,0,0,1-2.466.73,3.942,3.942,0,0,1-3-1.164,4.55,4.55,0,0,1-1.107-3.266,4.759,4.759,0,0,1,1.12-3.375,3.79,3.79,0,0,1,2.9-1.2A3.682,3.682,0,0,1,38.616,7.64a4.673,4.673,0,0,1,1.1,3.31c0,0.086,0,.216-0.008.389H33.278a3.311,3.311,0,0,0,.8,2.174,2.39,2.39,0,0,0,1.8.754,2.234,2.234,0,0,0,1.371-.422A2.8,2.8,0,0,0,38.154,12.5Zm-4.794-2.361H38.17a2.919,2.919,0,0,0-.552-1.63,2.239,2.239,0,0,0-1.809-.844,2.32,2.32,0,0,0-1.691.673A2.666,2.666,0,0,0,33.359,10.138Z" transform="translate(-4.756 -3.381)"/><path d="M47.118,14.211a5.426,5.426,0,0,1-1.562.973,4.508,4.508,0,0,1-1.61.284,3.132,3.132,0,0,1-2.182-.694A2.29,2.29,0,0,1,41,13a2.357,2.357,0,0,1,.288-1.156,2.381,2.381,0,0,1,.754-0.84,3.54,3.54,0,0,1,1.051-.479,10.432,10.432,0,0,1,1.3-.219,13.336,13.336,0,0,0,2.6-.5C47,9.606,47,9.479,47,9.424a1.614,1.614,0,0,0-.414-1.257,2.446,2.446,0,0,0-1.663-.495,2.581,2.581,0,0,0-1.521.361,2.205,2.205,0,0,0-.726,1.278l-1.428-.195a3.539,3.539,0,0,1,.641-1.48,2.811,2.811,0,0,1,1.29-.868,5.755,5.755,0,0,1,1.955-.3,5.165,5.165,0,0,1,1.792.26,2.36,2.36,0,0,1,1.014.653,2.3,2.3,0,0,1,.454.994,8.2,8.2,0,0,1,.073,1.347v1.947a20.709,20.709,0,0,0,.093,2.576,3.239,3.239,0,0,0,.369,1.034H47.41A3.091,3.091,0,0,1,47.118,14.211ZM47,10.95a10.687,10.687,0,0,1-2.385.551,5.522,5.522,0,0,0-1.274.292,1.265,1.265,0,0,0-.576.475A1.29,1.29,0,0,0,43,13.935a1.9,1.9,0,0,0,1.294.389,3.01,3.01,0,0,0,1.5-.369,2.273,2.273,0,0,0,.965-1.01A3.523,3.523,0,0,0,47,11.485V10.95Z" transform="translate(-4.756 -3.381)"/><path d="M50.7,15.273V3.381h1.46V15.273H50.7Z" transform="translate(-4.756 -3.381)"/><path d="M54.435,5.06V3.381H55.9V5.06h-1.46Zm0,10.213V6.658H55.9v8.615h-1.46Z" transform="translate(-4.756 -3.381)"/><path d="M57.347,15.273V14.089l5.484-6.295q-0.933.048-1.647,0.049H57.671V6.658h7.042V7.624l-4.665,5.468-0.9,1q0.981-.073,1.841-0.073h3.983v1.257H57.347Z" transform="translate(-4.756 -3.381)"/><path d="M72.322,12.5l1.509,0.187a3.681,3.681,0,0,1-1.323,2.052,4.479,4.479,0,0,1-5.463-.434,4.55,4.55,0,0,1-1.107-3.266,4.759,4.759,0,0,1,1.12-3.375,3.79,3.79,0,0,1,2.9-1.2A3.682,3.682,0,0,1,72.785,7.64a4.673,4.673,0,0,1,1.1,3.31c0,0.086,0,.216-0.008.389H67.447a3.311,3.311,0,0,0,.8,2.174,2.39,2.39,0,0,0,1.8.754,2.234,2.234,0,0,0,1.371-.422A2.8,2.8,0,0,0,72.322,12.5Zm-4.794-2.361h4.811a2.919,2.919,0,0,0-.552-1.63,2.239,2.239,0,0,0-1.809-.844,2.32,2.32,0,0,0-1.691.673A2.666,2.666,0,0,0,67.528,10.138Z" transform="translate(-4.756 -3.381)"/><path d="M81.254,15.273V14.187a2.68,2.68,0,0,1-2.409,1.282A3.381,3.381,0,0,1,76.95,14.9a3.735,3.735,0,0,1-1.338-1.586,5.481,5.481,0,0,1-.475-2.34,6.118,6.118,0,0,1,.43-2.341,3.387,3.387,0,0,1,1.29-1.61,3.446,3.446,0,0,1,1.923-.56,2.871,2.871,0,0,1,1.387.329,2.908,2.908,0,0,1,.99.856V3.381h1.452V15.273H81.254Zm-4.616-4.3a3.743,3.743,0,0,0,.7,2.474,2.1,2.1,0,0,0,1.647.819,2.065,2.065,0,0,0,1.626-.783,3.609,3.609,0,0,0,.669-2.389A4.05,4.05,0,0,0,80.6,8.5a2.1,2.1,0,0,0-1.679-.827,2.022,2.022,0,0,0-1.626.795A3.923,3.923,0,0,0,76.638,10.974Z" transform="translate(-4.756 -3.381)"/><path d="M89.739,15.273V3.381h8.6v1.4H91.313V8.427h6.579v1.4H91.313V13.87h7.3v1.4H89.739Z" transform="translate(-4.756 -3.381)"/><path d="M99.628,15.273l3.147-4.478L99.863,6.658h1.825l1.322,2.02q0.374,0.576.6,0.965,0.357-.535.657-0.949l1.452-2.036h1.744l-2.977,4.056,3.2,4.559H105.9L104.13,12.6l-0.471-.722-2.263,3.4H99.628Z" transform="translate(-4.756 -3.381)"/><path d="M114.53,12.118l1.436,0.187a3.724,3.724,0,0,1-1.2,2.324,3.508,3.508,0,0,1-2.381.84,3.7,3.7,0,0,1-2.844-1.156A4.691,4.691,0,0,1,108.462,11a6,6,0,0,1,.462-2.441,3.221,3.221,0,0,1,1.408-1.57,4.172,4.172,0,0,1,2.056-.523,3.576,3.576,0,0,1,2.3.71,3.257,3.257,0,0,1,1.144,2.016l-1.42.219a2.359,2.359,0,0,0-.718-1.306,1.859,1.859,0,0,0-1.245-.438,2.266,2.266,0,0,0-1.793.791,3.753,3.753,0,0,0-.689,2.5,3.881,3.881,0,0,0,.665,2.523,2.164,2.164,0,0,0,1.736.787,2.046,2.046,0,0,0,1.436-.527A2.617,2.617,0,0,0,114.53,12.118Z" transform="translate(-4.756 -3.381)"/><path d="M123.113,12.5l1.509,0.187a3.681,3.681,0,0,1-1.323,2.052,4.479,4.479,0,0,1-5.463-.434,4.55,4.55,0,0,1-1.107-3.266,4.759,4.759,0,0,1,1.12-3.375,3.79,3.79,0,0,1,2.9-1.2,3.682,3.682,0,0,1,2.823,1.176,4.673,4.673,0,0,1,1.1,3.31c0,0.086,0,.216-0.008.389h-6.425a3.311,3.311,0,0,0,.8,2.174,2.39,2.39,0,0,0,1.8.754,2.234,2.234,0,0,0,1.371-.422A2.8,2.8,0,0,0,123.113,12.5Zm-4.794-2.361h4.811a2.919,2.919,0,0,0-.552-1.63,2.239,2.239,0,0,0-1.809-.844,2.32,2.32,0,0,0-1.691.673A2.666,2.666,0,0,0,118.319,10.138Z" transform="translate(-4.756 -3.381)"/><path d="M125.872,12.7l1.444-.227a2.017,2.017,0,0,0,.677,1.331,2.362,2.362,0,0,0,1.554.462,2.284,2.284,0,0,0,1.493-.41,1.226,1.226,0,0,0,.487-0.961,0.888,0.888,0,0,0-.43-0.779,6.34,6.34,0,0,0-1.493-.495,13.636,13.636,0,0,1-2.227-.7,2.125,2.125,0,0,1-1.262-1.976,2.221,2.221,0,0,1,.264-1.067,2.364,2.364,0,0,1,.718-0.815,3.019,3.019,0,0,1,.929-0.426,4.418,4.418,0,0,1,1.261-.174,5,5,0,0,1,1.781.292,2.425,2.425,0,0,1,1.132.791,3.1,3.1,0,0,1,.5,1.334l-1.428.195a1.563,1.563,0,0,0-.564-1.039,2.064,2.064,0,0,0-1.318-.373A2.389,2.389,0,0,0,127.956,8a0.969,0.969,0,0,0-.43.779,0.808,0.808,0,0,0,.178.511,1.287,1.287,0,0,0,.56.389q0.219,0.081,1.29.374a17.864,17.864,0,0,1,2.162.677,2.193,2.193,0,0,1,.961.767,2.141,2.141,0,0,1,.349,1.249,2.451,2.451,0,0,1-.426,1.375,2.752,2.752,0,0,1-1.229,1,4.473,4.473,0,0,1-1.817.353,4.046,4.046,0,0,1-2.559-.7A3.244,3.244,0,0,1,125.872,12.7Z" transform="translate(-4.756 -3.381)"/><path d="M134.179,12.7l1.444-.227a2.017,2.017,0,0,0,.677,1.331,2.362,2.362,0,0,0,1.554.462,2.284,2.284,0,0,0,1.493-.41,1.226,1.226,0,0,0,.487-0.961,0.888,0.888,0,0,0-.43-0.779,6.34,6.34,0,0,0-1.493-.495,13.636,13.636,0,0,1-2.227-.7,2.125,2.125,0,0,1-1.262-1.976,2.221,2.221,0,0,1,.264-1.067,2.364,2.364,0,0,1,.718-0.815,3.019,3.019,0,0,1,.929-0.426,4.418,4.418,0,0,1,1.261-.174,5,5,0,0,1,1.781.292,2.425,2.425,0,0,1,1.132.791,3.1,3.1,0,0,1,.5,1.334l-1.428.195a1.563,1.563,0,0,0-.564-1.039,2.064,2.064,0,0,0-1.318-.373A2.389,2.389,0,0,0,136.263,8a0.969,0.969,0,0,0-.43.779,0.808,0.808,0,0,0,.178.511,1.287,1.287,0,0,0,.56.389q0.219,0.081,1.29.374a17.864,17.864,0,0,1,2.162.677,2.193,2.193,0,0,1,.961.767,2.141,2.141,0,0,1,.349,1.249,2.451,2.451,0,0,1-.426,1.375,2.752,2.752,0,0,1-1.229,1,4.473,4.473,0,0,1-1.817.353,4.046,4.046,0,0,1-2.559-.7A3.244,3.244,0,0,1,134.179,12.7Z" transform="translate(-4.756 -3.381)"/><path d="M4.756,35.21V23.318h5.273a7.025,7.025,0,0,1,2.417.32,2.644,2.644,0,0,1,1.322,1.132,3.373,3.373,0,0,1,.5,1.792,2.991,2.991,0,0,1-.82,2.134,4.144,4.144,0,0,1-2.531,1.1,4.1,4.1,0,0,1,.949.592,8.19,8.19,0,0,1,1.306,1.582l2.068,3.237H13.257l-1.574-2.474q-0.689-1.071-1.136-1.639a3.568,3.568,0,0,0-.8-0.795,2.365,2.365,0,0,0-.718-0.316,4.7,4.7,0,0,0-.876-0.057H6.33V35.21H4.756ZM6.33,28.566H9.712a5.07,5.07,0,0,0,1.687-.223,1.8,1.8,0,0,0,.925-0.714,1.93,1.93,0,0,0,.316-1.067,1.774,1.774,0,0,0-.613-1.387,2.868,2.868,0,0,0-1.935-.543H6.33v3.935Z" transform="translate(-4.756 -3.381)"/><path d="M22.44,32.436l1.509,0.187a3.681,3.681,0,0,1-1.323,2.052,3.974,3.974,0,0,1-2.466.73,3.942,3.942,0,0,1-3-1.164,4.55,4.55,0,0,1-1.107-3.266,4.759,4.759,0,0,1,1.12-3.375,3.79,3.79,0,0,1,2.9-1.2A3.682,3.682,0,0,1,22.9,27.577a4.673,4.673,0,0,1,1.1,3.31c0,0.086,0,.216-0.008.389H17.565a3.311,3.311,0,0,0,.8,2.174,2.39,2.39,0,0,0,1.8.754,2.234,2.234,0,0,0,1.371-.422A2.8,2.8,0,0,0,22.44,32.436Zm-4.794-2.361h4.811a2.919,2.919,0,0,0-.552-1.63A2.239,2.239,0,0,0,20.1,27.6a2.32,2.32,0,0,0-1.691.673A2.666,2.666,0,0,0,17.646,30.075Z" transform="translate(-4.756 -3.381)"/><path d="M28.971,33.9l0.211,1.29a5.425,5.425,0,0,1-1.1.13,2.5,2.5,0,0,1-1.233-.251,1.408,1.408,0,0,1-.616-0.661,5.225,5.225,0,0,1-.179-1.724V27.731H24.979V26.6H26.05V24.461l1.452-.876V26.6h1.468v1.136H27.5v5.038a2.549,2.549,0,0,0,.077.8,0.6,0.6,0,0,0,.251.284,0.967,0.967,0,0,0,.5.105A4.709,4.709,0,0,0,28.971,33.9Z" transform="translate(-4.756 -3.381)"/><path d="M36.044,35.21V33.945a3.153,3.153,0,0,1-2.734,1.46,3.487,3.487,0,0,1-1.423-.292,2.347,2.347,0,0,1-.982-0.734,2.752,2.752,0,0,1-.45-1.083,7.4,7.4,0,0,1-.089-1.363V26.6h1.46v4.778a8.5,8.5,0,0,0,.089,1.541,1.523,1.523,0,0,0,.584.9,1.811,1.811,0,0,0,1.1.329,2.4,2.4,0,0,0,1.233-.337,1.868,1.868,0,0,0,.815-0.917,4.6,4.6,0,0,0,.24-1.684V26.6h1.46V35.21H36.044Z" transform="translate(-4.756 -3.381)"/><path d="M39.622,35.21V26.6h1.314V27.9a3.57,3.57,0,0,1,.929-1.209A1.626,1.626,0,0,1,42.8,26.4a2.851,2.851,0,0,1,1.5.471l-0.5,1.354a2.089,2.089,0,0,0-1.071-.316,1.39,1.39,0,0,0-.86.288,1.557,1.557,0,0,0-.543.8,5.675,5.675,0,0,0-.244,1.7v4.51h-1.46Z" transform="translate(-4.756 -3.381)"/><path d="M45.171,35.21V26.6h1.314V27.82a3.1,3.1,0,0,1,2.742-1.42,3.6,3.6,0,0,1,1.432.28,2.252,2.252,0,0,1,.978.734,2.824,2.824,0,0,1,.455,1.079,8.4,8.4,0,0,1,.081,1.419v5.3h-1.46V29.97a3.93,3.93,0,0,0-.17-1.334,1.4,1.4,0,0,0-.6-0.706,1.923,1.923,0,0,0-1.018-.264,2.364,2.364,0,0,0-1.61.592,2.92,2.92,0,0,0-.678,2.247V35.21h-1.46Z" transform="translate(-4.756 -3.381)"/><path d="M58.483,30.9a4.441,4.441,0,0,1,1.33-3.545,4.01,4.01,0,0,1,2.71-.958,3.865,3.865,0,0,1,2.9,1.164,4.429,4.429,0,0,1,1.128,3.217,5.7,5.7,0,0,1-.5,2.616,3.534,3.534,0,0,1-1.452,1.48,4.228,4.228,0,0,1-2.081.527,3.873,3.873,0,0,1-2.925-1.16A4.633,4.633,0,0,1,58.483,30.9Zm1.5,0a3.671,3.671,0,0,0,.722,2.479,2.4,2.4,0,0,0,3.626,0,3.756,3.756,0,0,0,.722-2.523,3.56,3.56,0,0,0-.726-2.421,2.407,2.407,0,0,0-3.622,0A3.652,3.652,0,0,0,59.983,30.9Z" transform="translate(-4.756 -3.381)"/><path d="M68.266,35.21V26.6H69.58V27.82a3.1,3.1,0,0,1,2.742-1.42,3.6,3.6,0,0,1,1.432.28,2.252,2.252,0,0,1,.978.734,2.824,2.824,0,0,1,.455,1.079,8.4,8.4,0,0,1,.081,1.419v5.3h-1.46V29.97a3.93,3.93,0,0,0-.17-1.334,1.4,1.4,0,0,0-.6-0.706,1.923,1.923,0,0,0-1.018-.264,2.364,2.364,0,0,0-1.61.592,2.92,2.92,0,0,0-.678,2.247V35.21h-1.46Z" transform="translate(-4.756 -3.381)"/><path d="M82.308,35.21V23.318h4.486a10.847,10.847,0,0,1,1.809.113,3.592,3.592,0,0,1,1.468.556,2.924,2.924,0,0,1,.953,1.148,3.872,3.872,0,0,1-.6,4.19q-0.965,1.05-3.488,1.05h-3.05V35.21H82.308Zm1.574-6.238h3.075a3.262,3.262,0,0,0,2.166-.568,2.023,2.023,0,0,0,.641-1.6,2.151,2.151,0,0,0-.377-1.278,1.766,1.766,0,0,0-.994-0.7,6.729,6.729,0,0,0-1.469-.105H83.882v4.251Z" transform="translate(-4.756 -3.381)"/><path d="M92.66,30.9a4.441,4.441,0,0,1,1.33-3.545A4.01,4.01,0,0,1,96.7,26.4a3.865,3.865,0,0,1,2.9,1.164,4.429,4.429,0,0,1,1.128,3.217,5.7,5.7,0,0,1-.5,2.616,3.534,3.534,0,0,1-1.452,1.48,4.228,4.228,0,0,1-2.081.527,3.873,3.873,0,0,1-2.925-1.16A4.633,4.633,0,0,1,92.66,30.9Zm1.5,0a3.671,3.671,0,0,0,.722,2.479,2.4,2.4,0,0,0,3.626,0,3.756,3.756,0,0,0,.722-2.523,3.56,3.56,0,0,0-.726-2.421,2.407,2.407,0,0,0-3.622,0A3.652,3.652,0,0,0,94.16,30.9Z" transform="translate(-4.756 -3.381)"/><path d="M102.427,35.21V26.6h1.314V27.9a3.57,3.57,0,0,1,.929-1.209,1.626,1.626,0,0,1,.937-0.292,2.851,2.851,0,0,1,1.5.471l-0.5,1.354a2.089,2.089,0,0,0-1.071-.316,1.39,1.39,0,0,0-.86.288,1.557,1.557,0,0,0-.543.8,5.675,5.675,0,0,0-.244,1.7v4.51h-1.46Z" transform="translate(-4.756 -3.381)"/><path d="M111.164,33.9l0.211,1.29a5.425,5.425,0,0,1-1.1.13,2.5,2.5,0,0,1-1.233-.251,1.408,1.408,0,0,1-.616-0.661,5.225,5.225,0,0,1-.179-1.724V27.731h-1.071V26.6h1.071V24.461l1.452-.876V26.6h1.468v1.136H109.7v5.038a2.549,2.549,0,0,0,.077.8,0.6,0.6,0,0,0,.251.284,0.967,0.967,0,0,0,.5.105A4.709,4.709,0,0,0,111.164,33.9Z" transform="translate(-4.756 -3.381)"/><path d="M112.94,35.21V27.731h-1.29V26.6h1.29V25.679a4,4,0,0,1,.154-1.29,1.87,1.87,0,0,1,.742-0.921,2.674,2.674,0,0,1,1.489-.353,7.128,7.128,0,0,1,1.363.146l-0.219,1.273a4.886,4.886,0,0,0-.86-0.081,1.28,1.28,0,0,0-.941.284,1.538,1.538,0,0,0-.276,1.063V26.6h1.679v1.136h-1.679V35.21H112.94Z" transform="translate(-4.756 -3.381)"/><path d="M116.664,30.9a4.441,4.441,0,0,1,1.33-3.545,4.01,4.01,0,0,1,2.71-.958,3.865,3.865,0,0,1,2.9,1.164,4.429,4.429,0,0,1,1.128,3.217,5.7,5.7,0,0,1-.5,2.616,3.534,3.534,0,0,1-1.452,1.48,4.228,4.228,0,0,1-2.081.527,3.873,3.873,0,0,1-2.925-1.16A4.633,4.633,0,0,1,116.664,30.9Zm1.5,0a3.671,3.671,0,0,0,.722,2.479,2.4,2.4,0,0,0,3.626,0,3.756,3.756,0,0,0,.722-2.523,3.56,3.56,0,0,0-.726-2.421,2.407,2.407,0,0,0-3.622,0A3.652,3.652,0,0,0,118.164,30.9Z" transform="translate(-4.756 -3.381)"/><path d="M126.414,35.21V23.318h1.46V35.21h-1.46Z" transform="translate(-4.756 -3.381)"/><path d="M130.146,25V23.318h1.46V25h-1.46Zm0,10.213V26.6h1.46V35.21h-1.46Z" transform="translate(-4.756 -3.381)"/><path d="M133.285,30.9a4.441,4.441,0,0,1,1.33-3.545,4.01,4.01,0,0,1,2.71-.958,3.865,3.865,0,0,1,2.9,1.164,4.429,4.429,0,0,1,1.128,3.217,5.7,5.7,0,0,1-.5,2.616,3.534,3.534,0,0,1-1.452,1.48,4.228,4.228,0,0,1-2.081.527,3.873,3.873,0,0,1-2.925-1.16A4.633,4.633,0,0,1,133.285,30.9Zm1.5,0a3.671,3.671,0,0,0,.722,2.479,2.4,2.4,0,0,0,3.626,0,3.756,3.756,0,0,0,.722-2.523,3.56,3.56,0,0,0-.726-2.421,2.407,2.407,0,0,0-3.622,0A3.652,3.652,0,0,0,134.786,30.9Z" transform="translate(-4.756 -3.381)"/><path d="M402.862,402.253V390.36h5.273a7.02,7.02,0,0,1,2.417.32,2.646,2.646,0,0,1,1.323,1.132,3.381,3.381,0,0,1,.494,1.792,2.988,2.988,0,0,1-.819,2.134,4.145,4.145,0,0,1-2.531,1.1,4.073,4.073,0,0,1,.949.593,8.174,8.174,0,0,1,1.307,1.582l2.068,3.236h-1.979l-1.573-2.475q-0.69-1.071-1.136-1.639a3.59,3.59,0,0,0-.8-0.795,2.341,2.341,0,0,0-.718-0.315,4.649,4.649,0,0,0-.876-0.058h-1.825v5.281h-1.574Zm1.574-6.644h3.383a5.07,5.07,0,0,0,1.688-.223,1.8,1.8,0,0,0,.925-0.714,1.93,1.93,0,0,0,.316-1.067,1.774,1.774,0,0,0-.612-1.387,2.872,2.872,0,0,0-1.936-.543h-3.764v3.935Z" transform="translate(-4.756 -3.381)"/><path d="M420.548,399.479l1.509,0.187a3.685,3.685,0,0,1-1.322,2.053,4.481,4.481,0,0,1-5.464-.435,4.546,4.546,0,0,1-1.107-3.265,4.761,4.761,0,0,1,1.119-3.375,3.792,3.792,0,0,1,2.9-1.2,3.682,3.682,0,0,1,2.823,1.176,4.672,4.672,0,0,1,1.1,3.31q0,0.13-.009.39h-6.425a3.308,3.308,0,0,0,.8,2.174,2.389,2.389,0,0,0,1.8.755,2.236,2.236,0,0,0,1.371-.422A2.806,2.806,0,0,0,420.548,399.479Zm-4.795-2.361h4.811a2.915,2.915,0,0,0-.552-1.63,2.236,2.236,0,0,0-1.809-.844,2.32,2.32,0,0,0-1.691.673A2.665,2.665,0,0,0,415.753,397.117Z" transform="translate(-4.756 -3.381)"/><path d="M429.512,401.19a5.442,5.442,0,0,1-1.562.974,4.529,4.529,0,0,1-1.61.283,3.128,3.128,0,0,1-2.182-.693,2.287,2.287,0,0,1-.763-1.772,2.4,2.4,0,0,1,1.042-2,3.56,3.56,0,0,1,1.051-.479,10.511,10.511,0,0,1,1.3-.219,13.358,13.358,0,0,0,2.6-.5c0-.2.008-0.327,0.008-0.381a1.611,1.611,0,0,0-.414-1.257,2.446,2.446,0,0,0-1.663-.495,2.577,2.577,0,0,0-1.521.361,2.208,2.208,0,0,0-.727,1.278l-1.428-.195a3.545,3.545,0,0,1,.641-1.48,2.813,2.813,0,0,1,1.29-.868,5.76,5.76,0,0,1,1.955-.3,5.17,5.17,0,0,1,1.793.26,2.365,2.365,0,0,1,1.015.653,2.31,2.31,0,0,1,.454.994,8.232,8.232,0,0,1,.072,1.347v1.947a20.562,20.562,0,0,0,.094,2.576,3.267,3.267,0,0,0,.369,1.034H429.8A3.091,3.091,0,0,1,429.512,401.19Zm-0.121-3.262a10.687,10.687,0,0,1-2.386.552,5.589,5.589,0,0,0-1.273.292,1.275,1.275,0,0,0-.576.475,1.293,1.293,0,0,0,.239,1.667,1.9,1.9,0,0,0,1.294.39,3.01,3.01,0,0,0,1.5-.369,2.277,2.277,0,0,0,.966-1.01,3.536,3.536,0,0,0,.235-1.46v-0.536Z" transform="translate(-4.756 -3.381)"/><path d="M433.1,402.253V390.36h1.46v11.893H433.1Z" transform="translate(-4.756 -3.381)"/><path d="M436.83,392.04V390.36h1.46v1.679h-1.46Zm0,10.213v-8.615h1.46v8.615h-1.46Z" transform="translate(-4.756 -3.381)"/><path d="M439.742,402.253v-1.185l5.484-6.295q-0.933.048-1.647,0.049h-3.512v-1.185h7.041V394.6l-4.664,5.467-0.9,1q0.981-.073,1.842-0.073h3.983v1.258h-7.626Z" transform="translate(-4.756 -3.381)"/><path d="M454.718,399.479l1.509,0.187a3.685,3.685,0,0,1-1.322,2.053,4.481,4.481,0,0,1-5.464-.435,4.546,4.546,0,0,1-1.107-3.265,4.761,4.761,0,0,1,1.119-3.375,3.792,3.792,0,0,1,2.9-1.2,3.682,3.682,0,0,1,2.823,1.176,4.672,4.672,0,0,1,1.1,3.31q0,0.13-.009.39h-6.425a3.308,3.308,0,0,0,.8,2.174,2.389,2.389,0,0,0,1.8.755,2.236,2.236,0,0,0,1.371-.422A2.806,2.806,0,0,0,454.718,399.479Zm-4.795-2.361h4.811a2.915,2.915,0,0,0-.552-1.63,2.236,2.236,0,0,0-1.809-.844,2.32,2.32,0,0,0-1.691.673A2.665,2.665,0,0,0,449.923,397.117Z" transform="translate(-4.756 -3.381)"/><path d="M463.649,402.253v-1.087a2.679,2.679,0,0,1-2.409,1.281,3.383,3.383,0,0,1-1.895-.567,3.736,3.736,0,0,1-1.339-1.586,5.482,5.482,0,0,1-.475-2.341,6.119,6.119,0,0,1,.431-2.34,3.388,3.388,0,0,1,1.29-1.61,3.444,3.444,0,0,1,1.922-.56,2.871,2.871,0,0,1,2.377,1.185V390.36H465v11.893h-1.354Zm-4.616-4.3a3.738,3.738,0,0,0,.7,2.475,2.1,2.1,0,0,0,1.646.819,2.065,2.065,0,0,0,1.627-.783,3.613,3.613,0,0,0,.669-2.389,4.053,4.053,0,0,0-.682-2.6,2.1,2.1,0,0,0-1.679-.827,2.023,2.023,0,0,0-1.627.795A3.922,3.922,0,0,0,459.033,397.953Z" transform="translate(-4.756 -3.381)"/><path d="M472.136,402.253V390.36h8.6v1.4h-7.025v3.643h6.579v1.4h-6.579v4.048h7.3v1.4h-8.875Z" transform="translate(-4.756 -3.381)"/><path d="M482.024,402.253l3.147-4.478-2.912-4.138h1.825l1.322,2.02q0.372,0.576.6,0.965,0.357-.535.657-0.949l1.452-2.036h1.744l-2.977,4.056,3.2,4.56h-1.793l-1.769-2.677-0.471-.723-2.263,3.4h-1.769Z" transform="translate(-4.756 -3.381)"/><path d="M496.926,399.1l1.437,0.187a3.729,3.729,0,0,1-1.205,2.324,3.511,3.511,0,0,1-2.381.839,3.7,3.7,0,0,1-2.844-1.155,4.692,4.692,0,0,1-1.074-3.314,5.99,5.99,0,0,1,.462-2.441,3.225,3.225,0,0,1,1.407-1.57,4.172,4.172,0,0,1,2.057-.523,3.576,3.576,0,0,1,2.3.71,3.252,3.252,0,0,1,1.144,2.016l-1.419.219a2.36,2.36,0,0,0-.719-1.306,1.855,1.855,0,0,0-1.245-.438,2.267,2.267,0,0,0-1.793.791,3.759,3.759,0,0,0-.689,2.5,3.874,3.874,0,0,0,.666,2.522,2.164,2.164,0,0,0,1.735.787,2.049,2.049,0,0,0,1.437-.527A2.617,2.617,0,0,0,496.926,399.1Z" transform="translate(-4.756 -3.381)"/><path d="M505.509,399.479l1.509,0.187a3.685,3.685,0,0,1-1.322,2.053,4.481,4.481,0,0,1-5.464-.435,4.546,4.546,0,0,1-1.107-3.265,4.761,4.761,0,0,1,1.119-3.375,3.792,3.792,0,0,1,2.9-1.2,3.682,3.682,0,0,1,2.823,1.176,4.672,4.672,0,0,1,1.1,3.31q0,0.13-.009.39h-6.425a3.308,3.308,0,0,0,.8,2.174,2.389,2.389,0,0,0,1.8.755,2.236,2.236,0,0,0,1.371-.422A2.806,2.806,0,0,0,505.509,399.479Zm-4.795-2.361h4.811a2.915,2.915,0,0,0-.552-1.63,2.236,2.236,0,0,0-1.809-.844,2.32,2.32,0,0,0-1.691.673A2.665,2.665,0,0,0,500.714,397.117Z" transform="translate(-4.756 -3.381)"/><path d="M508.267,399.682l1.444-.228a2.012,2.012,0,0,0,.678,1.33,2.357,2.357,0,0,0,1.553.463,2.281,2.281,0,0,0,1.493-.41,1.223,1.223,0,0,0,.486-0.961,0.884,0.884,0,0,0-.43-0.778,6.325,6.325,0,0,0-1.492-.5,13.546,13.546,0,0,1-2.228-.7,2.123,2.123,0,0,1-1.261-1.975,2.221,2.221,0,0,1,.264-1.067,2.344,2.344,0,0,1,.718-0.815,3,3,0,0,1,.929-0.426,4.417,4.417,0,0,1,1.262-.174,4.992,4.992,0,0,1,1.78.292,2.425,2.425,0,0,1,1.132.791,3.091,3.091,0,0,1,.5,1.334l-1.428.195a1.564,1.564,0,0,0-.564-1.039,2.061,2.061,0,0,0-1.317-.373,2.39,2.39,0,0,0-1.437.333,0.97,0.97,0,0,0-.43.779,0.805,0.805,0,0,0,.179.511,1.283,1.283,0,0,0,.56.389q0.218,0.081,1.29.374a18.006,18.006,0,0,1,2.162.677,2.195,2.195,0,0,1,.961.767,2.14,2.14,0,0,1,.349,1.249A2.447,2.447,0,0,1,515,401.1a2.748,2.748,0,0,1-1.229,1,4.468,4.468,0,0,1-1.816.353,4.049,4.049,0,0,1-2.56-.7A3.242,3.242,0,0,1,508.267,399.682Z" transform="translate(-4.756 -3.381)"/><path d="M516.573,399.682l1.444-.228a2.012,2.012,0,0,0,.678,1.33,2.357,2.357,0,0,0,1.553.463,2.281,2.281,0,0,0,1.493-.41,1.223,1.223,0,0,0,.486-0.961,0.884,0.884,0,0,0-.43-0.778,6.325,6.325,0,0,0-1.492-.5,13.546,13.546,0,0,1-2.228-.7,2.123,2.123,0,0,1-1.261-1.975,2.221,2.221,0,0,1,.264-1.067,2.344,2.344,0,0,1,.718-0.815,3,3,0,0,1,.929-0.426,4.417,4.417,0,0,1,1.262-.174,4.992,4.992,0,0,1,1.78.292,2.425,2.425,0,0,1,1.132.791,3.091,3.091,0,0,1,.5,1.334l-1.428.195a1.564,1.564,0,0,0-.564-1.039,2.061,2.061,0,0,0-1.317-.373,2.39,2.39,0,0,0-1.437.333,0.97,0.97,0,0,0-.43.779,0.805,0.805,0,0,0,.179.511,1.283,1.283,0,0,0,.56.389q0.218,0.081,1.29.374a18.006,18.006,0,0,1,2.162.677,2.195,2.195,0,0,1,.961.767,2.14,2.14,0,0,1,.349,1.249,2.447,2.447,0,0,1-.426,1.375,2.748,2.748,0,0,1-1.229,1,4.468,4.468,0,0,1-1.816.353,4.049,4.049,0,0,1-2.56-.7A3.242,3.242,0,0,1,516.573,399.682Z" transform="translate(-4.756 -3.381)"/><path d="M402.862,422.189V410.3h5.273a7.008,7.008,0,0,1,2.417.32,2.646,2.646,0,0,1,1.323,1.132,3.384,3.384,0,0,1,.494,1.793,2.985,2.985,0,0,1-.819,2.133,4.139,4.139,0,0,1-2.531,1.1,4.041,4.041,0,0,1,.949.593,8.174,8.174,0,0,1,1.307,1.582l2.068,3.236h-1.979l-1.573-2.475q-0.69-1.071-1.136-1.639a3.59,3.59,0,0,0-.8-0.795,2.368,2.368,0,0,0-.718-0.316,4.8,4.8,0,0,0-.876-0.057h-1.825v5.281h-1.574Zm1.574-6.644h3.383a5.081,5.081,0,0,0,1.688-.224,1.8,1.8,0,0,0,.925-0.714,1.93,1.93,0,0,0,.316-1.066,1.773,1.773,0,0,0-.612-1.388,2.869,2.869,0,0,0-1.936-.543h-3.764v3.935Z" transform="translate(-4.756 -3.381)"/><path d="M420.548,419.415l1.509,0.187a3.685,3.685,0,0,1-1.322,2.053,4.481,4.481,0,0,1-5.464-.435,4.546,4.546,0,0,1-1.107-3.265,4.763,4.763,0,0,1,1.119-3.375,3.79,3.79,0,0,1,2.9-1.2,3.682,3.682,0,0,1,2.823,1.176,4.672,4.672,0,0,1,1.1,3.31q0,0.13-.009.39h-6.425a3.308,3.308,0,0,0,.8,2.174,2.389,2.389,0,0,0,1.8.755,2.236,2.236,0,0,0,1.371-.422A2.806,2.806,0,0,0,420.548,419.415Zm-4.795-2.36h4.811a2.917,2.917,0,0,0-.552-1.631,2.236,2.236,0,0,0-1.809-.844,2.318,2.318,0,0,0-1.691.674A2.664,2.664,0,0,0,415.753,417.055Z" transform="translate(-4.756 -3.381)"/><path d="M427.078,420.884l0.211,1.289a5.388,5.388,0,0,1-1.1.13,2.5,2.5,0,0,1-1.232-.251,1.415,1.415,0,0,1-.617-0.661,5.23,5.23,0,0,1-.178-1.724V414.71h-1.071v-1.136h1.071V411.44l1.452-.876v3.01h1.468v1.136H425.61v5.038a2.573,2.573,0,0,0,.076.8,0.611,0.611,0,0,0,.252.284,0.97,0.97,0,0,0,.5.105A4.866,4.866,0,0,0,427.078,420.884Z" transform="translate(-4.756 -3.381)"/><path d="M434.152,422.189v-1.266a3.153,3.153,0,0,1-2.733,1.46,3.472,3.472,0,0,1-1.424-.292,2.338,2.338,0,0,1-.981-0.733,2.743,2.743,0,0,1-.45-1.083,7.4,7.4,0,0,1-.09-1.363v-5.338h1.46v4.778a8.481,8.481,0,0,0,.09,1.541,1.52,1.52,0,0,0,.584.9,1.8,1.8,0,0,0,1.1.329,2.4,2.4,0,0,0,1.232-.337,1.868,1.868,0,0,0,.815-0.917A4.583,4.583,0,0,0,434,418.19v-4.616h1.461v8.615h-1.307Z" transform="translate(-4.756 -3.381)"/><path d="M437.73,422.189v-8.615h1.314v1.306a3.557,3.557,0,0,1,.929-1.208,1.614,1.614,0,0,1,.937-0.292,2.85,2.85,0,0,1,1.5.47l-0.5,1.355a2.091,2.091,0,0,0-1.071-.316,1.388,1.388,0,0,0-.859.288,1.56,1.56,0,0,0-.544.8,5.688,5.688,0,0,0-.243,1.7v4.511h-1.46Z" transform="translate(-4.756 -3.381)"/><path d="M443.278,422.189v-8.615h1.314V414.8a3.1,3.1,0,0,1,2.742-1.419,3.6,3.6,0,0,1,1.432.279,2.249,2.249,0,0,1,.978.734,2.8,2.8,0,0,1,.454,1.079,8.3,8.3,0,0,1,.081,1.42v5.3h-1.46v-5.24a3.948,3.948,0,0,0-.17-1.335,1.409,1.409,0,0,0-.6-0.706,1.934,1.934,0,0,0-1.019-.264,2.368,2.368,0,0,0-1.61.593,2.922,2.922,0,0,0-.677,2.247v4.705h-1.461Z" transform="translate(-4.756 -3.381)"/><path d="M456.592,417.882a4.44,4.44,0,0,1,1.33-3.545,4.008,4.008,0,0,1,2.71-.957,3.864,3.864,0,0,1,2.9,1.164,4.429,4.429,0,0,1,1.127,3.216,5.69,5.69,0,0,1-.5,2.616,3.529,3.529,0,0,1-1.451,1.48,4.231,4.231,0,0,1-2.081.527,3.872,3.872,0,0,1-2.925-1.16A4.632,4.632,0,0,1,456.592,417.882Zm1.5,0a3.669,3.669,0,0,0,.722,2.479,2.4,2.4,0,0,0,3.626,0,3.757,3.757,0,0,0,.723-2.523,3.56,3.56,0,0,0-.727-2.422,2.407,2.407,0,0,0-3.622,0A3.654,3.654,0,0,0,458.093,417.882Z" transform="translate(-4.756 -3.381)"/><path d="M466.375,422.189v-8.615h1.314V414.8a3.1,3.1,0,0,1,2.742-1.419,3.6,3.6,0,0,1,1.432.279,2.249,2.249,0,0,1,.978.734,2.8,2.8,0,0,1,.454,1.079,8.3,8.3,0,0,1,.081,1.42v5.3h-1.46v-5.24a3.948,3.948,0,0,0-.17-1.335,1.409,1.409,0,0,0-.6-0.706,1.934,1.934,0,0,0-1.019-.264,2.368,2.368,0,0,0-1.61.593,2.922,2.922,0,0,0-.677,2.247v4.705h-1.461Z" transform="translate(-4.756 -3.381)"/><path d="M480.37,422.189V410.3h2.368l2.815,8.421q0.39,1.176.567,1.76,0.2-.649.633-1.906L489.6,410.3h2.117v11.893H490.2v-9.954l-3.456,9.954h-1.42l-3.439-10.124v10.124H480.37Z" transform="translate(-4.756 -3.381)"/><path d="M499.693,421.127a5.442,5.442,0,0,1-1.562.974,4.529,4.529,0,0,1-1.61.283,3.128,3.128,0,0,1-2.182-.693,2.287,2.287,0,0,1-.763-1.772,2.4,2.4,0,0,1,1.042-2,3.56,3.56,0,0,1,1.051-.479,10.511,10.511,0,0,1,1.3-.219,13.4,13.4,0,0,0,2.6-.5c0-.2.008-0.327,0.008-0.381a1.611,1.611,0,0,0-.414-1.258,2.443,2.443,0,0,0-1.663-.5,2.58,2.58,0,0,0-1.521.361,2.209,2.209,0,0,0-.727,1.277l-1.428-.194a3.545,3.545,0,0,1,.641-1.48,2.813,2.813,0,0,1,1.29-.868,5.749,5.749,0,0,1,1.955-.3,5.184,5.184,0,0,1,1.793.259,2.379,2.379,0,0,1,1.015.653,2.31,2.31,0,0,1,.454.994,8.228,8.228,0,0,1,.072,1.347v1.946a20.562,20.562,0,0,0,.094,2.576,3.267,3.267,0,0,0,.369,1.034h-1.525A3.091,3.091,0,0,1,499.693,421.127Zm-0.121-3.262a10.687,10.687,0,0,1-2.386.552,5.589,5.589,0,0,0-1.273.292,1.275,1.275,0,0,0-.576.475,1.293,1.293,0,0,0,.239,1.667,1.9,1.9,0,0,0,1.294.39,3.01,3.01,0,0,0,1.5-.369,2.277,2.277,0,0,0,.966-1.01,3.536,3.536,0,0,0,.235-1.46v-0.536Z" transform="translate(-4.756 -3.381)"/><path d="M503.3,422.189v-8.615h1.314v1.306a3.557,3.557,0,0,1,.929-1.208,1.614,1.614,0,0,1,.937-0.292,2.85,2.85,0,0,1,1.5.47l-0.5,1.355a2.091,2.091,0,0,0-1.071-.316,1.388,1.388,0,0,0-.859.288,1.56,1.56,0,0,0-.544.8,5.688,5.688,0,0,0-.243,1.7v4.511H503.3Z" transform="translate(-4.756 -3.381)"/><path d="M508.853,422.189V410.3h1.46v6.782l3.456-3.5h1.89l-3.293,3.2,3.626,5.419h-1.8l-2.848-4.405-1.03.99v3.415h-1.46Z" transform="translate(-4.756 -3.381)"/><path d="M523.049,419.415l1.509,0.187a3.685,3.685,0,0,1-1.322,2.053,4.481,4.481,0,0,1-5.464-.435,4.546,4.546,0,0,1-1.107-3.265,4.763,4.763,0,0,1,1.119-3.375,3.79,3.79,0,0,1,2.9-1.2,3.682,3.682,0,0,1,2.823,1.176,4.672,4.672,0,0,1,1.1,3.31q0,0.13-.009.39h-6.425a3.308,3.308,0,0,0,.8,2.174,2.389,2.389,0,0,0,1.8.755,2.236,2.236,0,0,0,1.371-.422A2.806,2.806,0,0,0,523.049,419.415Zm-4.795-2.36h4.811a2.917,2.917,0,0,0-.552-1.631,2.236,2.236,0,0,0-1.809-.844,2.318,2.318,0,0,0-1.691.674A2.664,2.664,0,0,0,518.254,417.055Z" transform="translate(-4.756 -3.381)"/><path d="M529.579,420.884l0.211,1.289a5.388,5.388,0,0,1-1.1.13,2.5,2.5,0,0,1-1.232-.251,1.415,1.415,0,0,1-.617-0.661,5.23,5.23,0,0,1-.178-1.724V414.71h-1.071v-1.136h1.071V411.44l1.452-.876v3.01h1.468v1.136h-1.468v5.038a2.573,2.573,0,0,0,.076.8,0.611,0.611,0,0,0,.252.284,0.97,0.97,0,0,0,.5.105A4.866,4.866,0,0,0,529.579,420.884Z" transform="translate(-4.756 -3.381)"/><path d="M36.9,395.133a10.877,10.877,0,0,1,.434-3.4,4.222,4.222,0,0,1,1.29-1.983,3.3,3.3,0,0,1,2.154-.7,3.516,3.516,0,0,1,1.679.385,3.216,3.216,0,0,1,1.192,1.111,5.98,5.98,0,0,1,.738,1.769,11.768,11.768,0,0,1,.268,2.811,10.916,10.916,0,0,1-.43,3.379,4.224,4.224,0,0,1-1.286,1.987,3.3,3.3,0,0,1-2.162.7,3.263,3.263,0,0,1-2.7-1.233Q36.9,398.484,36.9,395.133Zm1.5,0q0,2.93.686,3.9a1.958,1.958,0,0,0,3.383,0q0.686-.973.686-3.894,0-2.936-.686-3.9a2.035,2.035,0,0,0-1.708-.965,1.87,1.87,0,0,0-1.606.852A7.543,7.543,0,0,0,38.4,395.133Z" transform="translate(-4.756 -3.381)"/><line class="cls-2" x1="40.691" y1="244.848" x2="442.778" y2="40.063"/><line class="cls-1" x1="483.332" y1="379.927" x2="40.007" y2="379.927"/><path class="cls-3" d="M393.817,130.113l1.484-.13a3.278,3.278,0,0,0,.491,1.464,2.677,2.677,0,0,0,1.2.925,4.531,4.531,0,0,0,1.825.353,4.373,4.373,0,0,0,1.591-.268,2.2,2.2,0,0,0,1.025-.734,1.7,1.7,0,0,0,.337-1.018,1.549,1.549,0,0,0-.324-0.978,2.4,2.4,0,0,0-1.071-.7,20.854,20.854,0,0,0-2.117-.58,10.791,10.791,0,0,1-2.3-.743,3.222,3.222,0,0,1-1.27-1.107,2.717,2.717,0,0,1-.418-1.48,3.023,3.023,0,0,1,.512-1.684,3.164,3.164,0,0,1,1.492-1.188,5.661,5.661,0,0,1,2.183-.406,5.956,5.956,0,0,1,2.332.426,3.359,3.359,0,0,1,1.554,1.253,3.6,3.6,0,0,1,.584,1.874l-1.509.114a2.436,2.436,0,0,0-.823-1.7,3.208,3.208,0,0,0-2.073-.576,3.325,3.325,0,0,0-2.08.523,1.569,1.569,0,0,0-.653,1.262,1.353,1.353,0,0,0,.462,1.054,6.265,6.265,0,0,0,2.373.848,15.694,15.694,0,0,1,2.633.758,3.605,3.605,0,0,1,1.533,1.213,2.953,2.953,0,0,1,.5,1.691,3.235,3.235,0,0,1-.544,1.789,3.577,3.577,0,0,1-1.562,1.306,5.439,5.439,0,0,1-2.292.466,6.845,6.845,0,0,1-2.705-.47,3.79,3.79,0,0,1-1.712-1.416A4.011,4.011,0,0,1,393.817,130.113Z" transform="translate(-4.756 -3.381)"/><path class="cls-3" d="M405.215,133.934V122.041h1.46v11.893h-1.46Z" transform="translate(-4.756 -3.381)"/><path class="cls-3" d="M408.4,129.626a4.441,4.441,0,0,1,1.33-3.545,4.011,4.011,0,0,1,2.71-.958,3.866,3.866,0,0,1,2.9,1.164,4.433,4.433,0,0,1,1.127,3.217,5.7,5.7,0,0,1-.5,2.616,3.532,3.532,0,0,1-1.451,1.48,4.231,4.231,0,0,1-2.081.527,3.872,3.872,0,0,1-2.925-1.16A4.635,4.635,0,0,1,408.4,129.626Zm1.5,0a3.671,3.671,0,0,0,.722,2.479,2.4,2.4,0,0,0,3.626,0,3.756,3.756,0,0,0,.723-2.523,3.557,3.557,0,0,0-.727-2.421,2.407,2.407,0,0,0-3.622,0A3.652,3.652,0,0,0,409.9,129.626Z" transform="translate(-4.756 -3.381)"/><path class="cls-3" d="M418.179,137.235V125.318h1.331v1.12a3.278,3.278,0,0,1,1.063-.986,2.916,2.916,0,0,1,1.436-.329,3.407,3.407,0,0,1,1.947.568,3.483,3.483,0,0,1,1.273,1.6,5.845,5.845,0,0,1,.431,2.268,5.756,5.756,0,0,1-.475,2.381,3.575,3.575,0,0,1-1.38,1.623,3.537,3.537,0,0,1-1.9.564,2.746,2.746,0,0,1-1.31-.309,2.966,2.966,0,0,1-.953-0.779v4.194h-1.461Zm1.322-7.561a3.746,3.746,0,0,0,.674,2.458,2.066,2.066,0,0,0,1.631.795,2.112,2.112,0,0,0,1.667-.823,3.911,3.911,0,0,0,.693-2.552,3.8,3.8,0,0,0-.678-2.466,2.037,2.037,0,0,0-1.618-.819,2.1,2.1,0,0,0-1.65.872A3.9,3.9,0,0,0,419.5,129.675Z" transform="translate(-4.756 -3.381)"/><path class="cls-3" d="M433.317,131.159l1.509,0.187A3.68,3.68,0,0,1,433.5,133.4a4.479,4.479,0,0,1-5.464-.434,4.55,4.55,0,0,1-1.107-3.266,4.761,4.761,0,0,1,1.119-3.375,3.792,3.792,0,0,1,2.9-1.2,3.682,3.682,0,0,1,2.823,1.176,4.673,4.673,0,0,1,1.1,3.31q0,0.13-.009.389h-6.425a3.308,3.308,0,0,0,.8,2.174,2.388,2.388,0,0,0,1.8.754,2.236,2.236,0,0,0,1.371-.422A2.8,2.8,0,0,0,433.317,131.159Zm-4.795-2.361h4.811a2.916,2.916,0,0,0-.552-1.63,2.236,2.236,0,0,0-1.809-.844,2.32,2.32,0,0,0-1.691.673A2.666,2.666,0,0,0,428.522,128.8Z" transform="translate(-4.756 -3.381)"/><path class="cls-3" d="M448.958,126.941h-7.853v-1.363h7.853v1.363Zm0,3.61h-7.853v-1.363h7.853v1.363Z" transform="translate(-4.756 -3.381)"/><path class="cls-3" d="M455.716,133.934V122.041h4.462a5.524,5.524,0,0,1,2.187.361,2.809,2.809,0,0,1,1.289,1.111,2.926,2.926,0,0,1,.467,1.57,2.692,2.692,0,0,1-.414,1.436,2.948,2.948,0,0,1-1.249,1.087,3.106,3.106,0,0,1,1.659,1.079,2.889,2.889,0,0,1,.58,1.8,3.487,3.487,0,0,1-.353,1.554,3.01,3.01,0,0,1-.872,1.107,3.637,3.637,0,0,1-1.3.588,7.922,7.922,0,0,1-1.918.2h-4.535Zm1.574-6.9h2.571a5.75,5.75,0,0,0,1.5-.138,1.669,1.669,0,0,0,.9-0.592,1.7,1.7,0,0,0,.3-1.039,1.912,1.912,0,0,0-.283-1.042,1.439,1.439,0,0,0-.812-0.616,6.77,6.77,0,0,0-1.809-.167H457.29v3.594Zm0,5.492h2.961a6.769,6.769,0,0,0,1.07-.057,2.568,2.568,0,0,0,.909-0.324,1.716,1.716,0,0,0,.6-0.661,2.066,2.066,0,0,0,.235-1,1.973,1.973,0,0,0-.341-1.156,1.8,1.8,0,0,0-.944-0.69,5.87,5.87,0,0,0-1.74-.2h-2.75v4.089Z" transform="translate(-4.756 -3.381)"/><path class="cls-3" d="M472.573,131.159l1.509,0.187a3.68,3.68,0,0,1-1.322,2.052,4.479,4.479,0,0,1-5.464-.434,4.55,4.55,0,0,1-1.107-3.266,4.761,4.761,0,0,1,1.119-3.375,3.792,3.792,0,0,1,2.9-1.2,3.682,3.682,0,0,1,2.823,1.176,4.673,4.673,0,0,1,1.1,3.31q0,0.13-.009.389H467.7a3.308,3.308,0,0,0,.8,2.174,2.388,2.388,0,0,0,1.8.754,2.236,2.236,0,0,0,1.371-.422A2.8,2.8,0,0,0,472.573,131.159Zm-4.795-2.361h4.811a2.916,2.916,0,0,0-.552-1.63,2.236,2.236,0,0,0-1.809-.844,2.32,2.32,0,0,0-1.691.673A2.666,2.666,0,0,0,467.778,128.8Z" transform="translate(-4.756 -3.381)"/><path class="cls-3" d="M479.1,132.627l0.211,1.29a5.422,5.422,0,0,1-1.1.13,2.5,2.5,0,0,1-1.232-.251,1.413,1.413,0,0,1-.617-0.661,5.234,5.234,0,0,1-.178-1.724v-4.957h-1.071v-1.136h1.071v-2.134l1.452-.876v3.01H479.1v1.136h-1.468v5.038a2.574,2.574,0,0,0,.076.8,0.608,0.608,0,0,0,.252.284,0.966,0.966,0,0,0,.5.105A4.7,4.7,0,0,0,479.1,132.627Z" transform="translate(-4.756 -3.381)"/><path class="cls-3" d="M486.153,132.871a5.439,5.439,0,0,1-1.562.973,4.508,4.508,0,0,1-1.61.284,3.13,3.13,0,0,1-2.182-.694,2.288,2.288,0,0,1-.763-1.772,2.352,2.352,0,0,1,.288-1.156,2.38,2.38,0,0,1,.754-0.84,3.545,3.545,0,0,1,1.051-.479,10.4,10.4,0,0,1,1.3-.219,13.358,13.358,0,0,0,2.6-.5c0-.2.008-0.327,0.008-0.381a1.611,1.611,0,0,0-.414-1.257,2.446,2.446,0,0,0-1.663-.495,2.577,2.577,0,0,0-1.521.361,2.208,2.208,0,0,0-.727,1.278l-1.428-.195a3.545,3.545,0,0,1,.641-1.48,2.813,2.813,0,0,1,1.29-.868,5.76,5.76,0,0,1,1.955-.3,5.17,5.17,0,0,1,1.793.26,2.365,2.365,0,0,1,1.015.653,2.31,2.31,0,0,1,.454.994,8.232,8.232,0,0,1,.072,1.347v1.947a20.568,20.568,0,0,0,.094,2.576,3.263,3.263,0,0,0,.369,1.034h-1.525A3.091,3.091,0,0,1,486.153,132.871Zm-0.121-3.261a10.691,10.691,0,0,1-2.386.551,5.53,5.53,0,0,0-1.273.292,1.268,1.268,0,0,0-.576.475,1.293,1.293,0,0,0,.239,1.667,1.905,1.905,0,0,0,1.294.389,3.01,3.01,0,0,0,1.5-.369,2.274,2.274,0,0,0,.966-1.01,3.539,3.539,0,0,0,.235-1.46V129.61Z" transform="translate(-4.756 -3.381)"/><path class="cls-3" d="M393.071,136.3v-1.217h95.605V136.3H393.071Z" transform="translate(-4.756 -3.381)"/><path class="cls-3" d="M76.607,332.107V320.215h1.574v11.893H76.607Z" transform="translate(-4.756 -3.381)"/><path class="cls-3" d="M80.769,332.107v-8.615h1.314v1.225a3.1,3.1,0,0,1,2.742-1.42,3.6,3.6,0,0,1,1.432.28,2.252,2.252,0,0,1,.978.734,2.824,2.824,0,0,1,.455,1.079,8.4,8.4,0,0,1,.081,1.419v5.3h-1.46v-5.241a3.93,3.93,0,0,0-.17-1.334,1.4,1.4,0,0,0-.6-0.706,1.923,1.923,0,0,0-1.018-.264,2.364,2.364,0,0,0-1.61.592,2.92,2.92,0,0,0-.678,2.247v4.705h-1.46Z" transform="translate(-4.756 -3.381)"/><path class="cls-3" d="M93.2,330.8l0.211,1.29a5.425,5.425,0,0,1-1.1.13,2.5,2.5,0,0,1-1.233-.251,1.408,1.408,0,0,1-.616-0.661,5.225,5.225,0,0,1-.179-1.724v-4.957H89.205v-1.136h1.071v-2.134l1.452-.876v3.01H93.2v1.136H91.728v5.038a2.549,2.549,0,0,0,.077.8,0.6,0.6,0,0,0,.251.284,0.967,0.967,0,0,0,.5.105A4.709,4.709,0,0,0,93.2,330.8Z" transform="translate(-4.756 -3.381)"/><path class="cls-3" d="M100.521,329.333l1.509,0.187a3.681,3.681,0,0,1-1.323,2.052,4.479,4.479,0,0,1-5.463-.434,4.55,4.55,0,0,1-1.107-3.266,4.759,4.759,0,0,1,1.12-3.375,3.79,3.79,0,0,1,2.9-1.2,3.682,3.682,0,0,1,2.823,1.176,4.673,4.673,0,0,1,1.1,3.31c0,0.086,0,.216-0.008.389H95.646a3.311,3.311,0,0,0,.8,2.174,2.39,2.39,0,0,0,1.8.754,2.234,2.234,0,0,0,1.371-.422A2.8,2.8,0,0,0,100.521,329.333Zm-4.794-2.361h4.811a2.919,2.919,0,0,0-.552-1.63,2.239,2.239,0,0,0-1.809-.844,2.32,2.32,0,0,0-1.691.673A2.666,2.666,0,0,0,95.727,326.972Z" transform="translate(-4.756 -3.381)"/><path class="cls-3" d="M103.848,332.107v-8.615h1.314V324.8a3.57,3.57,0,0,1,.929-1.209,1.626,1.626,0,0,1,.937-0.292,2.851,2.851,0,0,1,1.5.471l-0.5,1.354a2.089,2.089,0,0,0-1.071-.316,1.39,1.39,0,0,0-.86.288,1.557,1.557,0,0,0-.543.8,5.675,5.675,0,0,0-.244,1.7v4.51h-1.46Z" transform="translate(-4.756 -3.381)"/><path class="cls-3" d="M115.018,328.952l1.436,0.187a3.724,3.724,0,0,1-1.2,2.324,3.508,3.508,0,0,1-2.381.84,3.7,3.7,0,0,1-2.844-1.156,4.691,4.691,0,0,1-1.075-3.314,6,6,0,0,1,.462-2.441,3.221,3.221,0,0,1,1.408-1.57,4.172,4.172,0,0,1,2.056-.523,3.576,3.576,0,0,1,2.3.71,3.257,3.257,0,0,1,1.144,2.016l-1.42.219a2.359,2.359,0,0,0-.718-1.306,1.859,1.859,0,0,0-1.245-.438,2.266,2.266,0,0,0-1.793.791,3.753,3.753,0,0,0-.689,2.5,3.881,3.881,0,0,0,.665,2.523,2.164,2.164,0,0,0,1.736.787,2.046,2.046,0,0,0,1.436-.527A2.617,2.617,0,0,0,115.018,328.952Z" transform="translate(-4.756 -3.381)"/><path class="cls-3" d="M123.6,329.333l1.509,0.187a3.681,3.681,0,0,1-1.323,2.052,4.479,4.479,0,0,1-5.463-.434,4.55,4.55,0,0,1-1.107-3.266,4.759,4.759,0,0,1,1.12-3.375,3.79,3.79,0,0,1,2.9-1.2,3.682,3.682,0,0,1,2.823,1.176,4.673,4.673,0,0,1,1.1,3.31c0,0.086,0,.216-0.008.389h-6.425a3.311,3.311,0,0,0,.8,2.174,2.39,2.39,0,0,0,1.8.754,2.234,2.234,0,0,0,1.371-.422A2.8,2.8,0,0,0,123.6,329.333Zm-4.794-2.361h4.811a2.919,2.919,0,0,0-.552-1.63,2.239,2.239,0,0,0-1.809-.844,2.32,2.32,0,0,0-1.691.673A2.666,2.666,0,0,0,118.807,326.972Z" transform="translate(-4.756 -3.381)"/><path class="cls-3" d="M126.943,335.409V323.492h1.331v1.12a3.273,3.273,0,0,1,1.063-.986,2.918,2.918,0,0,1,1.436-.329,3.405,3.405,0,0,1,1.947.568,3.486,3.486,0,0,1,1.273,1.6,5.853,5.853,0,0,1,.43,2.268,5.756,5.756,0,0,1-.475,2.381,3.576,3.576,0,0,1-1.379,1.623,3.541,3.541,0,0,1-1.9.564,2.746,2.746,0,0,1-1.31-.309,2.978,2.978,0,0,1-.954-0.779v4.194h-1.46Zm1.322-7.561a3.747,3.747,0,0,0,.673,2.458,2.065,2.065,0,0,0,1.63.795,2.112,2.112,0,0,0,1.667-.823,3.908,3.908,0,0,0,.693-2.552,3.808,3.808,0,0,0-.677-2.466,2.039,2.039,0,0,0-1.619-.819,2.1,2.1,0,0,0-1.651.872A3.9,3.9,0,0,0,128.266,327.849Z" transform="translate(-4.756 -3.381)"/><path class="cls-3" d="M139.371,330.8l0.211,1.29a5.425,5.425,0,0,1-1.1.13,2.5,2.5,0,0,1-1.233-.251,1.408,1.408,0,0,1-.616-0.661,5.225,5.225,0,0,1-.179-1.724v-4.957H135.38v-1.136h1.071v-2.134l1.452-.876v3.01h1.468v1.136H137.9v5.038a2.549,2.549,0,0,0,.077.8,0.6,0.6,0,0,0,.251.284,0.967,0.967,0,0,0,.5.105A4.709,4.709,0,0,0,139.371,330.8Z" transform="translate(-4.756 -3.381)"/><path class="cls-3" d="M153.1,325.115h-7.853v-1.363H153.1v1.363Zm0,3.61h-7.853v-1.363H153.1v1.363Z" transform="translate(-4.756 -3.381)"/><path class="cls-3" d="M166.125,323.492h1.493a37.329,37.329,0,0,0-1.046,4.308,25,25,0,0,0,1.046,4.308h-1.452a9.37,9.37,0,0,1-.527-1.574,2.706,2.706,0,0,1-2.815,1.769,3.2,3.2,0,0,1-2.612-1.217,5.084,5.084,0,0,1-.99-3.3,4.982,4.982,0,0,1,.994-3.314,3.28,3.28,0,0,1,2.633-1.172,3.027,3.027,0,0,1,1.655.41,4.171,4.171,0,0,1,1.192,1.245Q165.752,324.669,166.125,323.492Zm-3.034,1.014a1.934,1.934,0,0,0-1.655.844,4.123,4.123,0,0,0-.608,2.434,4.428,4.428,0,0,0,.576,2.434,1.817,1.817,0,0,0,1.606.884,2.045,2.045,0,0,0,1.679-.872,4.043,4.043,0,0,0,.673-2.511,3.872,3.872,0,0,0-.629-2.4A1.981,1.981,0,0,0,163.091,324.506Z" transform="translate(-4.756 -3.381)"/><path class="cls-3" d="M75.058,334.476v-1.217h83.58v1.217H75.058Z" transform="translate(-4.756 -3.381)"/><path class="cls-3" d="M158.637,334.476v-1.217h9.6v1.217h-9.6Z" transform="translate(-4.756 -3.381)"/><path class="cls-4" d="M45.446,274.043c30.3,28.371,30.3,77.518,0,109.882" transform="translate(-4.756 -3.381)"/><path class="cls-3" d="M470.176,51.763V39.871h5.273a7.02,7.02,0,0,1,2.417.32,2.646,2.646,0,0,1,1.323,1.132,3.381,3.381,0,0,1,.494,1.792,2.988,2.988,0,0,1-.819,2.134,4.145,4.145,0,0,1-2.531,1.1,4.074,4.074,0,0,1,.949.592,8.174,8.174,0,0,1,1.307,1.582l2.068,3.237h-1.979L477.1,49.289q-0.69-1.071-1.136-1.639a3.579,3.579,0,0,0-.8-0.795,2.368,2.368,0,0,0-.718-0.316,4.7,4.7,0,0,0-.876-0.057H471.75v5.281h-1.574Zm1.574-6.644h3.383a5.07,5.07,0,0,0,1.688-.223,1.8,1.8,0,0,0,.925-0.714,1.93,1.93,0,0,0,.316-1.067,1.774,1.774,0,0,0-.612-1.387,2.872,2.872,0,0,0-1.936-.543H471.75v3.935Z" transform="translate(-4.756 -3.381)"/><path class="cls-3" d="M485.744,45.412V46.23h-4.583a1.52,1.52,0,0,1,.1-0.591,3.124,3.124,0,0,1,.561-0.922,8.822,8.822,0,0,1,1.113-1.05,9.468,9.468,0,0,0,1.528-1.468,1.76,1.76,0,0,0,.4-1.024,1.138,1.138,0,0,0-.361-0.854,1.306,1.306,0,0,0-.943-0.348,1.33,1.33,0,0,0-.984.369,1.4,1.4,0,0,0-.373,1.021l-0.875-.09A2.154,2.154,0,0,1,482,39.782a2.31,2.31,0,0,1,1.575-.513,2.2,2.2,0,0,1,1.58.553,1.817,1.817,0,0,1,.581,1.372,2.083,2.083,0,0,1-.17.818,3.161,3.161,0,0,1-.565.847,13.621,13.621,0,0,1-1.312,1.22q-0.766.643-.983,0.873a2.838,2.838,0,0,0-.359.461h3.4Z" transform="translate(-4.756 -3.381)"/><path class="cls-3" d="M499.648,44.771H491.8V43.408h7.853v1.363Zm0,3.61H491.8V47.018h7.853V48.38Z" transform="translate(-4.756 -3.381)"/><path class="cls-3" d="M504.938,55.065V54.01h9.679v1.055h-9.679Z" transform="translate(-4.756 -3.381)"/><path class="cls-3" d="M514.178,55.065V54.01h9.679v1.055h-9.679Z" transform="translate(-4.756 -3.381)"/><path class="cls-3" d="M523.418,55.065V54.01H533.1v1.055h-9.679Z" transform="translate(-4.756 -3.381)"/><path class="cls-3" d="M533.876,42.726a3.612,3.612,0,0,1,.641-2.166,2.144,2.144,0,0,1,1.857-.893,2.409,2.409,0,0,1,1.854.8,3.359,3.359,0,0,1,.734,2.349,3.331,3.331,0,0,1-.742,2.324,2.377,2.377,0,0,1-1.829.815,2.309,2.309,0,0,1-1.8-.8A3.548,3.548,0,0,1,533.876,42.726Zm2.539-2.052a1.1,1.1,0,0,0-.905.47,2.986,2.986,0,0,0-.36,1.728,2.673,2.673,0,0,0,.365,1.61,1.111,1.111,0,0,0,1.813,0,2.959,2.959,0,0,0,.361-1.72,2.7,2.7,0,0,0-.365-1.618A1.111,1.111,0,0,0,536.415,40.674ZM536.423,52.2l6.506-12.534h1.185L537.632,52.2h-1.209Zm5.144-3.229a3.606,3.606,0,0,1,.641-2.17,2.156,2.156,0,0,1,1.865-.889,2.411,2.411,0,0,1,1.854.8,4.067,4.067,0,0,1-.009,4.672,2.383,2.383,0,0,1-1.837.815,2.3,2.3,0,0,1-1.8-.807A3.549,3.549,0,0,1,541.566,48.973Zm2.547-2.053a1.107,1.107,0,0,0-.913.471,2.986,2.986,0,0,0-.36,1.728,2.674,2.674,0,0,0,.365,1.606,1.1,1.1,0,0,0,.9.471,1.113,1.113,0,0,0,.921-0.471,2.965,2.965,0,0,0,.36-1.72,2.691,2.691,0,0,0-.365-1.618A1.111,1.111,0,0,0,544.113,46.92Z" transform="translate(-4.756 -3.381)"/><line class="cls-5" x1="383.467" y1="136.606" x2="383.467" y2="74.086"/><line class="cls-5" x1="383.467" y1="140.11" x2="267.044" y2="140.11"/><circle cx="96.488" cy="220.238" r="2.365" transform="translate(-136.914 291.259) rotate(-84.367)"/><circle cx="118.101" cy="239.87" r="2.365" transform="translate(-136.96 330.473) rotate(-84.367)"/><circle cx="142.748" cy="257.209" r="2.365" transform="translate(-131.987 370.638) rotate(-84.367)"/><circle cx="120.549" cy="215.05" r="2.365" transform="translate(-110.052 310.525) rotate(-84.367)"/><circle cx="138.55" cy="222.011" r="2.365" transform="translate(-100.745 334.717) rotate(-84.367)"/><circle cx="175.014" cy="227.984" r="2.365" transform="translate(-73.805 376.392) rotate(-84.367)"/><circle cx="212.127" cy="224.083" r="2.365" transform="translate(-36.453 409.808) rotate(-84.367)"/><circle cx="142.114" cy="209.972" r="2.365" transform="translate(-85.55 327.407) rotate(-84.367)"/><circle cx="121.717" cy="203.207" r="2.365" transform="translate(-97.212 301.008) rotate(-84.367)"/><circle cx="146.769" cy="192.358" r="2.365" transform="translate(-63.824 316.155) rotate(-84.367)"/><circle cx="172.446" cy="205.834" r="2.365" transform="translate(-54.078 353.861) rotate(-84.367)"/><circle cx="200.359" cy="205.399" r="2.365" transform="translate(-28.472 381.247) rotate(-84.367)"/><circle cx="184.623" cy="198.469" r="2.365" transform="translate(-35.767 359.337) rotate(-84.367)"/><circle cx="185.319" cy="191.408" r="2.365" transform="translate(-28.112 353.662) rotate(-84.367)"/><circle cx="164.431" cy="191.724" r="2.365" transform="translate(-47.264 333.159) rotate(-84.367)"/><circle cx="168.178" cy="177.831" r="2.365" transform="translate(-30.059 324.359) rotate(-84.367)"/><circle cx="217.647" cy="192.22" r="2.365" transform="translate(0.234 386.566) rotate(-84.367)"/><circle cx="195.699" cy="178.169" r="2.365" transform="translate(-5.576 352.053) rotate(-84.367)"/><circle cx="193.26" cy="159.093" r="2.365" transform="translate(11.208 332.422) rotate(-84.367)"/><circle cx="213.355" cy="163.452" r="2.365" transform="translate(24.992 356.351) rotate(-84.367)"/><circle cx="217.598" cy="168.624" r="2.365" transform="translate(23.672 365.237) rotate(-84.367)"/><circle cx="223.98" cy="176.206" r="2.365" transform="translate(21.882 378.425) rotate(-84.367)"/><circle cx="235.38" cy="189.213" r="2.365" transform="translate(19.22 401.502) rotate(-84.367)"/><circle cx="226.227" cy="129.332" r="2.365" transform="translate(70.557 338.389) rotate(-84.367)"/><circle cx="241.005" cy="156.283" r="2.365" transform="translate(57.063 377.402) rotate(-84.367)"/><circle cx="249.873" cy="134.041" r="2.365" transform="translate(87.195 366.168) rotate(-84.367)"/><circle cx="251.355" cy="167.201" r="2.365" transform="translate(55.532 397.548) rotate(-84.367)"/><circle cx="260.354" cy="179.794" r="2.365" transform="translate(51.116 417.86) rotate(-84.367)"/><circle cx="270.04" cy="156.771" r="2.365" transform="translate(82.762 406.736) rotate(-84.367)"/><circle cx="281.537" cy="160.281" r="2.365" transform="translate(89.637 421.344) rotate(-84.367)"/><circle cx="276.696" cy="144.032" r="2.365" transform="translate(101.442 401.872) rotate(-84.367)"/><circle cx="277.878" cy="132.05" r="2.365" transform="translate(114.432 392.242) rotate(-84.367)"/><circle cx="334.951" cy="160.989" r="2.365" transform="translate(137.103 475.138) rotate(-84.367)"/><circle cx="297.294" cy="114.136" r="2.365" transform="translate(149.77 395.409) rotate(-84.367)"/><circle cx="311.181" cy="109.367" r="2.365" transform="translate(-5.338 -1.709) rotate(-0.307)"/><circle cx="311.25" cy="122.221" r="2.365" transform="translate(-5.407 -1.709) rotate(-0.307)"/><circle cx="311.262" cy="124.586" r="2.365" transform="translate(-5.42 -1.709) rotate(-0.307)"/><circle cx="311.337" cy="138.561" r="2.365" transform="translate(-5.495 -1.708) rotate(-0.307)"/><circle cx="322.14" cy="137.895" r="2.365" transform="translate(-5.491 -1.65) rotate(-0.307)"/><circle cx="327.185" cy="126.866" r="2.365" transform="translate(-5.432 -1.623) rotate(-0.307)"/><circle cx="340.11" cy="91.264" r="2.365" transform="translate(-5.241 -1.554) rotate(-0.307)"/><circle cx="340.25" cy="117.426" r="2.365" transform="translate(-5.381 -1.553) rotate(-0.307)"/><circle cx="344.936" cy="109.186" r="2.365" transform="translate(-5.337 -1.528) rotate(-0.307)"/><circle cx="353.44" cy="131.24" r="2.365" transform="translate(-5.455 -1.482) rotate(-0.307)"/><circle cx="369.459" cy="111.42" r="2.365" transform="translate(-5.348 -1.397) rotate(-0.307)"/><circle cx="367.011" cy="95.849" r="2.365" transform="translate(-5.265 -1.41) rotate(-0.307)"/><circle cx="373.976" cy="71.572" r="2.365" transform="translate(-5.135 -1.373) rotate(-0.307)"/><circle cx="389.266" cy="76.22" r="2.365" transform="translate(-5.159 -1.291) rotate(-0.307)"/><circle cx="398.666" cy="90.949" r="2.365" transform="translate(-5.238 -1.24) rotate(-0.307)"/><circle cx="398.775" cy="111.262" r="2.365" transform="translate(-5.347 -1.239) rotate(-0.307)"/></svg>