<svg id="Layer_1" data-name="Layer 1" xmlns="http://www.w3.org/2000/svg" viewBox="0 0 576.574 470.792"><defs><style>.cls-1{fill:none;stroke:#154168;}.cls-1,.cls-5,.cls-9{stroke-miterlimit:10;}.cls-2{fill:#25659f;}.cls-3{fill:#367cbc;}.cls-4{fill:#64a6da;}.cls-5{fill:#9ac5e6;}.cls-5,.cls-7{stroke:#9ac5e6;}.cls-6{fill:#fff;}.cls-7{fill:#828282;}.cls-7,.cls-8{stroke-width:3px;}.cls-8,.cls-9{fill:#9ac5e5;stroke:#9ac5e5;}.cls-10{fill:#9ac5e7;}.cls-11{fill:#154168;}</style></defs><title>Identifying_Skip_Persons_02</title><rect class="cls-1" x="1.102" y="321.512" width="574.972" height="148.78"/><rect class="cls-1" x="0.5" y="0.5" width="574.972" height="311.642"/><rect class="cls-2" x="343.878" y="350.173" width="193.371" height="104.882"/><rect class="cls-3" x="343.678" y="193.373" width="193.571" height="103.777"/><rect class="cls-4" x="343.035" y="45.57" width="157.93" height="50.16"/><polygon class="cls-5" points="334.294 69.668 314.897 50.713 315.086 88.815 334.294 69.668"/><path class="cls-6" d="M387.627,82.457v-9.5H384.08V71.69h8.534V72.96h-3.562v9.5Z" transform="translate(-5.926 -9.5)"/><path class="cls-6" d="M400.861,80.716V77.764h-2.931V76.53h2.931V73.6h1.248v2.93h2.931v1.234h-2.931v2.952Z" transform="translate(-5.926 -9.5)"/><path class="cls-6" d="M405.878,82.64,409,71.506h1.058L406.942,82.64Z" transform="translate(-5.926 -9.5)"/><path class="cls-6" d="M410.534,79.225V77.9H414.6v1.329Z" transform="translate(-5.926 -9.5)"/><path class="cls-6" d="M424.848,82.457h-1.322V74.033a6.832,6.832,0,0,1-1.252.911,8.879,8.879,0,0,1-1.392.683V74.349a7.969,7.969,0,0,0,1.938-1.263A4.976,4.976,0,0,0,424,71.646h.852Z" transform="translate(-5.926 -9.5)"/><path class="cls-6" d="M435.182,81.186v1.271h-7.117a2.345,2.345,0,0,1,.154-.918,4.879,4.879,0,0,1,.87-1.432,13.638,13.638,0,0,1,1.729-1.63,14.677,14.677,0,0,0,2.373-2.28,2.731,2.731,0,0,0,.616-1.59,1.765,1.765,0,0,0-.562-1.326,2.027,2.027,0,0,0-1.465-.54,2.066,2.066,0,0,0-1.528.573,2.168,2.168,0,0,0-.58,1.586l-1.358-.14a3.345,3.345,0,0,1,1.05-2.317,3.584,3.584,0,0,1,2.446-.8,3.414,3.414,0,0,1,2.453.859,2.825,2.825,0,0,1,.9,2.13,3.237,3.237,0,0,1-.265,1.271,4.935,4.935,0,0,1-.878,1.315,21.4,21.4,0,0,1-2.038,1.895q-1.189,1-1.527,1.355a4.384,4.384,0,0,0-.559.716Z" transform="translate(-5.926 -9.5)"/><path class="cls-6" d="M445.757,82.457h-1.322V74.033a6.832,6.832,0,0,1-1.252.911,8.879,8.879,0,0,1-1.392.683V74.349a7.969,7.969,0,0,0,1.938-1.263,4.976,4.976,0,0,0,1.176-1.439h.852Z" transform="translate(-5.926 -9.5)"/><path class="cls-6" d="M448.519,82.64l3.121-11.134H452.7L449.583,82.64Z" transform="translate(-5.926 -9.5)"/><path class="cls-6" d="M460.27,81.186v1.271h-7.117a2.345,2.345,0,0,1,.154-.918,4.879,4.879,0,0,1,.87-1.432,13.638,13.638,0,0,1,1.729-1.63,14.677,14.677,0,0,0,2.373-2.28,2.731,2.731,0,0,0,.616-1.59,1.765,1.765,0,0,0-.562-1.326,2.027,2.027,0,0,0-1.465-.54,2.066,2.066,0,0,0-1.528.573,2.168,2.168,0,0,0-.58,1.586l-1.358-.14a3.345,3.345,0,0,1,1.05-2.317,3.584,3.584,0,0,1,2.446-.8,3.414,3.414,0,0,1,2.453.859,2.825,2.825,0,0,1,.9,2.13,3.237,3.237,0,0,1-.265,1.271,4.935,4.935,0,0,1-.878,1.315,21.4,21.4,0,0,1-2.038,1.895q-1.189,1-1.527,1.355a4.384,4.384,0,0,0-.559.716Z" transform="translate(-5.926 -9.5)"/><path class="cls-6" d="M466.174,85.46l-.146-1.241a2.948,2.948,0,0,0,.756.117,1.453,1.453,0,0,0,.705-.146,1.2,1.2,0,0,0,.434-.412,6.522,6.522,0,0,0,.4-.984c.024-.074.063-.181.117-.323l-2.96-7.814h1.425l1.623,4.517q.316.859.565,1.807a17.838,17.838,0,0,1,.544-1.777l1.667-4.546h1.322l-2.968,7.932a15.751,15.751,0,0,1-.741,1.77,2.621,2.621,0,0,1-.808.958,1.911,1.911,0,0,1-1.088.305A2.658,2.658,0,0,1,466.174,85.46Z" transform="translate(-5.926 -9.5)"/><path class="cls-6" d="M473.738,82.457v-7.8h1.19v1.183a3.207,3.207,0,0,1,.841-1.094,1.465,1.465,0,0,1,.848-.264,2.581,2.581,0,0,1,1.359.426l-.456,1.227a1.892,1.892,0,0,0-.969-.287,1.261,1.261,0,0,0-.779.261,1.413,1.413,0,0,0-.491.724,5.128,5.128,0,0,0-.221,1.542v4.083Z" transform="translate(-5.926 -9.5)"/><path class="cls-6" d="M478.233,80.128l1.307-.206a1.833,1.833,0,0,0,.613,1.2,2.142,2.142,0,0,0,1.407.418,2.062,2.062,0,0,0,1.351-.371,1.109,1.109,0,0,0,.441-.87.8.8,0,0,0-.39-.705,5.741,5.741,0,0,0-1.352-.448,12.361,12.361,0,0,1-2.016-.635,1.924,1.924,0,0,1-1.143-1.789,2.009,2.009,0,0,1,.239-.966,2.148,2.148,0,0,1,.649-.738,2.737,2.737,0,0,1,.841-.386,4,4,0,0,1,1.143-.158,4.515,4.515,0,0,1,1.612.264,2.2,2.2,0,0,1,1.024.716,2.8,2.8,0,0,1,.455,1.208l-1.293.176a1.416,1.416,0,0,0-.51-.94,1.87,1.87,0,0,0-1.193-.337,2.159,2.159,0,0,0-1.3.3.877.877,0,0,0-.39.705.732.732,0,0,0,.161.463,1.175,1.175,0,0,0,.507.353q.2.073,1.168.338a16.147,16.147,0,0,1,1.957.613,1.978,1.978,0,0,1,.87.694,1.935,1.935,0,0,1,.316,1.131,2.222,2.222,0,0,1-.386,1.245,2.492,2.492,0,0,1-1.112.9,4.055,4.055,0,0,1-1.646.319A3.663,3.663,0,0,1,479.25,82,2.933,2.933,0,0,1,478.233,80.128Z" transform="translate(-5.926 -9.5)"/><line class="cls-7" x1="265.176" y1="70.012" x2="314.992" y2="69.764"/><line class="cls-8" x1="263.923" y1="79.51" x2="346.795" y2="174.698"/><polygon class="cls-9" points="359.595 189.188 332.476 188.869 359.558 162.067 359.595 189.188"/><rect class="cls-10" x="107.746" y="44.432" width="157.93" height="50.16"/><path class="cls-11" d="M161.85,84.316v-9.5H158.3V73.549h8.534V74.82h-3.562v9.5Z" transform="translate(-5.926 -9.5)"/><path class="cls-11" d="M168.114,84.316v-7.8h1.19V77.7a3.231,3.231,0,0,1,.841-1.094,1.469,1.469,0,0,1,.849-.264,2.577,2.577,0,0,1,1.358.426l-.455,1.227a1.893,1.893,0,0,0-.97-.287,1.258,1.258,0,0,0-.778.261,1.412,1.412,0,0,0-.492.724,5.143,5.143,0,0,0-.22,1.542v4.083Z" transform="translate(-5.926 -9.5)"/><path class="cls-11" d="M178.227,83.354a4.931,4.931,0,0,1-1.414.881,4.1,4.1,0,0,1-1.458.257,2.836,2.836,0,0,1-1.976-.628,2.072,2.072,0,0,1-.69-1.6,2.134,2.134,0,0,1,.261-1.047,2.16,2.16,0,0,1,.683-.76,3.215,3.215,0,0,1,.951-.433,9.436,9.436,0,0,1,1.175-.2,12.09,12.09,0,0,0,2.357-.456q.007-.271.007-.345a1.459,1.459,0,0,0-.375-1.138,2.214,2.214,0,0,0-1.505-.448,2.334,2.334,0,0,0-1.377.327,1.994,1.994,0,0,0-.657,1.157l-1.293-.176a3.2,3.2,0,0,1,.581-1.34,2.54,2.54,0,0,1,1.167-.786,5.209,5.209,0,0,1,1.77-.275,4.684,4.684,0,0,1,1.623.235,2.137,2.137,0,0,1,.918.591,2.075,2.075,0,0,1,.411.9,7.392,7.392,0,0,1,.066,1.219v1.763a18.627,18.627,0,0,0,.084,2.332,2.938,2.938,0,0,0,.334.937h-1.381A2.806,2.806,0,0,1,178.227,83.354Zm-.11-2.953a9.711,9.711,0,0,1-2.159.5,5,5,0,0,0-1.153.264,1.148,1.148,0,0,0-.521.43A1.168,1.168,0,0,0,174.5,83.1a1.72,1.72,0,0,0,1.171.353,2.727,2.727,0,0,0,1.358-.334,2.059,2.059,0,0,0,.874-.915,3.19,3.19,0,0,0,.213-1.322Z" transform="translate(-5.926 -9.5)"/><path class="cls-11" d="M181.5,84.316v-7.8h1.189v1.109a2.8,2.8,0,0,1,2.482-1.285,3.257,3.257,0,0,1,1.3.253,2.038,2.038,0,0,1,.885.665,2.546,2.546,0,0,1,.411.977,7.526,7.526,0,0,1,.074,1.285v4.8h-1.322V79.572a3.572,3.572,0,0,0-.154-1.208,1.274,1.274,0,0,0-.547-.639,1.74,1.74,0,0,0-.922-.239,2.141,2.141,0,0,0-1.458.536,2.643,2.643,0,0,0-.613,2.034v4.26Z" transform="translate(-5.926 -9.5)"/><path class="cls-11" d="M189.339,81.988l1.307-.206a1.827,1.827,0,0,0,.613,1.2,2.139,2.139,0,0,0,1.406.418,2.066,2.066,0,0,0,1.352-.371,1.109,1.109,0,0,0,.44-.87.8.8,0,0,0-.389-.705,5.732,5.732,0,0,0-1.352-.448,12.361,12.361,0,0,1-2.016-.635,1.925,1.925,0,0,1-1.142-1.789,2.009,2.009,0,0,1,.239-.966,2.135,2.135,0,0,1,.65-.738,2.726,2.726,0,0,1,.841-.386,3.99,3.99,0,0,1,1.142-.158,4.513,4.513,0,0,1,1.612.264,2.2,2.2,0,0,1,1.025.716,2.8,2.8,0,0,1,.455,1.208l-1.292.176a1.416,1.416,0,0,0-.51-.94,1.869,1.869,0,0,0-1.194-.337,2.161,2.161,0,0,0-1.3.3.878.878,0,0,0-.389.705A.729.729,0,0,0,191,78.9a1.163,1.163,0,0,0,.507.353q.2.073,1.167.338a16.252,16.252,0,0,1,1.958.613,1.984,1.984,0,0,1,.87.694,1.938,1.938,0,0,1,.316,1.131,2.222,2.222,0,0,1-.386,1.245,2.49,2.49,0,0,1-1.113.9,4.049,4.049,0,0,1-1.645.319,3.663,3.663,0,0,1-2.317-.632A2.934,2.934,0,0,1,189.339,81.988Z" transform="translate(-5.926 -9.5)"/><path class="cls-11" d="M197.7,84.316V77.544h-1.167V76.516H197.7v-.83a3.629,3.629,0,0,1,.14-1.168,1.692,1.692,0,0,1,.672-.833,2.423,2.423,0,0,1,1.348-.319,6.45,6.45,0,0,1,1.234.132l-.2,1.153a4.45,4.45,0,0,0-.778-.073,1.158,1.158,0,0,0-.852.257,1.393,1.393,0,0,0-.25.962v.72h1.52v1.028h-1.52v6.771Z" transform="translate(-5.926 -9.5)"/><path class="cls-11" d="M206.906,81.8l1.366.169a3.333,3.333,0,0,1-1.2,1.858,4.055,4.055,0,0,1-4.946-.393,4.118,4.118,0,0,1-1-2.956,4.309,4.309,0,0,1,1.014-3.055,3.429,3.429,0,0,1,2.629-1.087,3.337,3.337,0,0,1,2.556,1.064,4.233,4.233,0,0,1,.991,3c0,.079,0,.2-.007.353h-5.816a2.994,2.994,0,0,0,.727,1.968,2.163,2.163,0,0,0,1.63.683,2.024,2.024,0,0,0,1.241-.382A2.534,2.534,0,0,0,206.906,81.8Zm-4.34-2.137h4.355a2.642,2.642,0,0,0-.5-1.476,2.027,2.027,0,0,0-1.638-.764,2.1,2.1,0,0,0-1.531.609A2.412,2.412,0,0,0,202.566,79.667Z" transform="translate(-5.926 -9.5)"/><path class="cls-11" d="M209.917,84.316v-7.8h1.19V77.7a3.231,3.231,0,0,1,.841-1.094,1.469,1.469,0,0,1,.849-.264,2.577,2.577,0,0,1,1.358.426l-.455,1.227a1.893,1.893,0,0,0-.97-.287,1.258,1.258,0,0,0-.778.261,1.412,1.412,0,0,0-.492.724,5.143,5.143,0,0,0-.22,1.542v4.083Z" transform="translate(-5.926 -9.5)"/><path class="cls-11" d="M214.449,80.416a4.02,4.02,0,0,1,1.2-3.209,3.628,3.628,0,0,1,2.453-.866,3.5,3.5,0,0,1,2.629,1.054,4.012,4.012,0,0,1,1.021,2.912,5.163,5.163,0,0,1-.452,2.368,3.2,3.2,0,0,1-1.315,1.34,3.826,3.826,0,0,1-1.884.478,3.506,3.506,0,0,1-2.647-1.05A4.194,4.194,0,0,1,214.449,80.416Zm1.358,0a3.32,3.32,0,0,0,.654,2.244,2.176,2.176,0,0,0,3.283,0,3.4,3.4,0,0,0,.654-2.284,3.224,3.224,0,0,0-.657-2.192,2.18,2.18,0,0,0-3.279,0A3.306,3.306,0,0,0,215.807,80.416Z" transform="translate(-5.926 -9.5)"/><path class="cls-11" d="M223.291,84.316v-7.8h1.19V77.7a3.231,3.231,0,0,1,.841-1.094,1.469,1.469,0,0,1,.849-.264,2.577,2.577,0,0,1,1.358.426l-.455,1.227a1.893,1.893,0,0,0-.97-.287,1.258,1.258,0,0,0-.778.261,1.412,1.412,0,0,0-.492.724,5.143,5.143,0,0,0-.22,1.542v4.083Z" transform="translate(-5.926 -9.5)"/><path class="cls-6" d="M366.248,225.777a5.85,5.85,0,0,1,1.439-4.2,4.892,4.892,0,0,1,3.716-1.517,5.151,5.151,0,0,1,2.688.712,4.646,4.646,0,0,1,1.825,1.986,6.449,6.449,0,0,1,.628,2.89,6.333,6.333,0,0,1-.661,2.93,4.513,4.513,0,0,1-1.872,1.958,5.357,5.357,0,0,1-2.615.665,5.089,5.089,0,0,1-2.717-.734,4.727,4.727,0,0,1-1.814-2A6.078,6.078,0,0,1,366.248,225.777Zm1.469.022a4.314,4.314,0,0,0,1.046,3.066,3.651,3.651,0,0,0,5.273-.011,4.575,4.575,0,0,0,1.039-3.209,5.519,5.519,0,0,0-.444-2.295,3.412,3.412,0,0,0-1.3-1.521,3.525,3.525,0,0,0-1.921-.54,3.645,3.645,0,0,0-2.6,1.039A4.644,4.644,0,0,0,367.717,225.8Z" transform="translate(-5.926 -9.5)"/><path class="cls-6" d="M380.378,231.021l-2.967-7.8h1.395l1.675,4.671q.272.756.5,1.571.177-.617.492-1.483l1.733-4.759h1.358l-2.952,7.8Z" transform="translate(-5.926 -9.5)"/><path class="cls-6" d="M391.071,228.509l1.365.169a3.331,3.331,0,0,1-1.2,1.858,4.055,4.055,0,0,1-4.946-.393,4.116,4.116,0,0,1-1-2.956,4.309,4.309,0,0,1,1.014-3.055,3.43,3.43,0,0,1,2.629-1.087,3.336,3.336,0,0,1,2.556,1.064,4.231,4.231,0,0,1,.992,3c0,.079,0,.2-.008.353h-5.816a3,3,0,0,0,.727,1.968,2.165,2.165,0,0,0,1.631.683,2.025,2.025,0,0,0,1.241-.382A2.538,2.538,0,0,0,391.071,228.509Zm-4.341-2.137h4.355a2.639,2.639,0,0,0-.5-1.476,2.025,2.025,0,0,0-1.638-.764,2.1,2.1,0,0,0-1.531.609A2.41,2.41,0,0,0,386.73,226.372Z" transform="translate(-5.926 -9.5)"/><path class="cls-6" d="M394.082,231.021v-7.8h1.19V224.4a3.207,3.207,0,0,1,.841-1.094,1.465,1.465,0,0,1,.848-.264,2.581,2.581,0,0,1,1.359.426l-.456,1.227a1.892,1.892,0,0,0-.969-.287,1.261,1.261,0,0,0-.779.261,1.413,1.413,0,0,0-.491.724,5.128,5.128,0,0,0-.221,1.542v4.083Z" transform="translate(-5.926 -9.5)"/><path class="cls-6" d="M407.9,231.021h-1.322V222.6a6.832,6.832,0,0,1-1.252.911,8.879,8.879,0,0,1-1.392.683v-1.278a7.969,7.969,0,0,0,1.938-1.263,4.976,4.976,0,0,0,1.176-1.439h.852Z" transform="translate(-5.926 -9.5)"/><path class="cls-6" d="M418.23,229.75v1.271h-7.117a2.345,2.345,0,0,1,.154-.918,4.879,4.879,0,0,1,.87-1.432,13.638,13.638,0,0,1,1.729-1.63,14.677,14.677,0,0,0,2.373-2.28,2.731,2.731,0,0,0,.616-1.59,1.765,1.765,0,0,0-.562-1.326,2.027,2.027,0,0,0-1.465-.54,2.066,2.066,0,0,0-1.528.573,2.168,2.168,0,0,0-.58,1.586l-1.358-.14a3.345,3.345,0,0,1,1.05-2.317,3.584,3.584,0,0,1,2.446-.8,3.414,3.414,0,0,1,2.453.859,2.825,2.825,0,0,1,.9,2.13,3.237,3.237,0,0,1-.265,1.271,4.935,4.935,0,0,1-.878,1.315,21.4,21.4,0,0,1-2.038,1.895q-1.189,1-1.527,1.355a4.384,4.384,0,0,0-.559.716Z" transform="translate(-5.926 -9.5)"/><path class="cls-6" d="M428.806,231.021h-1.322V222.6a6.832,6.832,0,0,1-1.252.911,8.879,8.879,0,0,1-1.392.683v-1.278a7.969,7.969,0,0,0,1.938-1.263,4.976,4.976,0,0,0,1.176-1.439h.852Z" transform="translate(-5.926 -9.5)"/><path class="cls-6" d="M431.567,231.2l3.121-11.134h1.058L432.632,231.2Z" transform="translate(-5.926 -9.5)"/><path class="cls-6" d="M443.318,229.75v1.271H436.2a2.345,2.345,0,0,1,.154-.918,4.879,4.879,0,0,1,.87-1.432,13.638,13.638,0,0,1,1.729-1.63,14.677,14.677,0,0,0,2.373-2.28,2.731,2.731,0,0,0,.616-1.59,1.765,1.765,0,0,0-.562-1.326,2.027,2.027,0,0,0-1.465-.54,2.066,2.066,0,0,0-1.528.573,2.168,2.168,0,0,0-.58,1.586l-1.358-.14a3.345,3.345,0,0,1,1.05-2.317,3.584,3.584,0,0,1,2.446-.8,3.414,3.414,0,0,1,2.453.859,2.825,2.825,0,0,1,.9,2.13,3.237,3.237,0,0,1-.265,1.271,4.935,4.935,0,0,1-.878,1.315,21.4,21.4,0,0,1-2.038,1.895q-1.189,1-1.527,1.355a4.384,4.384,0,0,0-.559.716Z" transform="translate(-5.926 -9.5)"/><path class="cls-6" d="M449.223,234.025l-.146-1.241a2.948,2.948,0,0,0,.756.117,1.453,1.453,0,0,0,.705-.146,1.2,1.2,0,0,0,.434-.412,6.522,6.522,0,0,0,.4-.984c.024-.074.063-.181.117-.323l-2.96-7.814h1.425l1.623,4.517q.316.859.565,1.807a17.838,17.838,0,0,1,.544-1.777l1.667-4.546h1.322l-2.968,7.932a15.751,15.751,0,0,1-.741,1.77,2.621,2.621,0,0,1-.808.958,1.911,1.911,0,0,1-1.088.305A2.658,2.658,0,0,1,449.223,234.025Z" transform="translate(-5.926 -9.5)"/><path class="cls-6" d="M462.142,228.509l1.365.169a3.331,3.331,0,0,1-1.2,1.858,4.055,4.055,0,0,1-4.946-.393,4.116,4.116,0,0,1-1-2.956,4.309,4.309,0,0,1,1.014-3.055A3.43,3.43,0,0,1,460,223.045a3.336,3.336,0,0,1,2.556,1.064,4.231,4.231,0,0,1,.992,3c0,.079,0,.2-.008.353h-5.816a3,3,0,0,0,.727,1.968,2.165,2.165,0,0,0,1.631.683,2.025,2.025,0,0,0,1.241-.382A2.538,2.538,0,0,0,462.142,228.509Zm-4.341-2.137h4.355a2.639,2.639,0,0,0-.5-1.476,2.025,2.025,0,0,0-1.638-.764,2.1,2.1,0,0,0-1.531.609A2.41,2.41,0,0,0,457.8,226.372Z" transform="translate(-5.926 -9.5)"/><path class="cls-6" d="M470.257,230.059a4.92,4.92,0,0,1-1.414.881,4.1,4.1,0,0,1-1.458.257,2.838,2.838,0,0,1-1.976-.628,2.073,2.073,0,0,1-.689-1.6,2.134,2.134,0,0,1,.26-1.047,2.166,2.166,0,0,1,.684-.76,3.215,3.215,0,0,1,.951-.433,9.436,9.436,0,0,1,1.175-.2,12.082,12.082,0,0,0,2.357-.456c0-.181.008-.3.008-.345a1.459,1.459,0,0,0-.375-1.138,2.215,2.215,0,0,0-1.506-.448,2.338,2.338,0,0,0-1.377.327,2,2,0,0,0-.657,1.157l-1.292-.176a3.2,3.2,0,0,1,.58-1.34,2.536,2.536,0,0,1,1.168-.786,5.2,5.2,0,0,1,1.77-.275,4.682,4.682,0,0,1,1.623.235,2.14,2.14,0,0,1,.918.591,2.07,2.07,0,0,1,.411.9,7.448,7.448,0,0,1,.066,1.219v1.763a18.872,18.872,0,0,0,.084,2.332,2.94,2.94,0,0,0,.335.937h-1.381A2.785,2.785,0,0,1,470.257,230.059Zm-.11-2.953a9.7,9.7,0,0,1-2.159.5,5.015,5.015,0,0,0-1.153.264,1.158,1.158,0,0,0-.521.43,1.168,1.168,0,0,0,.217,1.509,1.722,1.722,0,0,0,1.172.353,2.727,2.727,0,0,0,1.358-.334,2.061,2.061,0,0,0,.874-.915,3.2,3.2,0,0,0,.213-1.322Z" transform="translate(-5.926 -9.5)"/><path class="cls-6" d="M473.517,231.021v-7.8h1.19V224.4a3.207,3.207,0,0,1,.841-1.094,1.465,1.465,0,0,1,.848-.264,2.581,2.581,0,0,1,1.359.426L477.3,224.7a1.892,1.892,0,0,0-.969-.287,1.261,1.261,0,0,0-.779.261,1.413,1.413,0,0,0-.491.724,5.128,5.128,0,0,0-.221,1.542v4.083Z" transform="translate(-5.926 -9.5)"/><path class="cls-6" d="M478.012,228.693l1.307-.206a1.833,1.833,0,0,0,.613,1.2,2.142,2.142,0,0,0,1.407.418,2.062,2.062,0,0,0,1.351-.371,1.109,1.109,0,0,0,.441-.87.8.8,0,0,0-.39-.705,5.741,5.741,0,0,0-1.352-.448,12.361,12.361,0,0,1-2.016-.635,1.924,1.924,0,0,1-1.143-1.789,2.009,2.009,0,0,1,.239-.966,2.148,2.148,0,0,1,.649-.738,2.737,2.737,0,0,1,.841-.386,4,4,0,0,1,1.143-.158,4.515,4.515,0,0,1,1.612.264,2.2,2.2,0,0,1,1.024.716,2.8,2.8,0,0,1,.455,1.208l-1.293.176a1.416,1.416,0,0,0-.51-.94,1.87,1.87,0,0,0-1.193-.337,2.159,2.159,0,0,0-1.3.3.877.877,0,0,0-.39.705.732.732,0,0,0,.161.463,1.175,1.175,0,0,0,.507.353q.2.073,1.168.338a16.147,16.147,0,0,1,1.957.613,1.978,1.978,0,0,1,.87.694,1.935,1.935,0,0,1,.316,1.131,2.222,2.222,0,0,1-.386,1.245,2.492,2.492,0,0,1-1.112.9,4.055,4.055,0,0,1-1.646.319,3.663,3.663,0,0,1-2.317-.632A2.933,2.933,0,0,1,478.012,228.693Z" transform="translate(-5.926 -9.5)"/><path class="cls-6" d="M366.453,252.074l-.146-1.241a2.948,2.948,0,0,0,.756.117,1.453,1.453,0,0,0,.705-.146,1.2,1.2,0,0,0,.434-.412,6.522,6.522,0,0,0,.4-.984c.024-.074.063-.181.117-.323l-2.96-7.814h1.425l1.623,4.517q.316.859.565,1.807a17.838,17.838,0,0,1,.544-1.777l1.667-4.546h1.322l-2.968,7.932a15.751,15.751,0,0,1-.741,1.77,2.621,2.621,0,0,1-.808.958,1.911,1.911,0,0,1-1.088.305A2.658,2.658,0,0,1,366.453,252.074Z" transform="translate(-5.926 -9.5)"/><path class="cls-6" d="M373.54,245.17a4.018,4.018,0,0,1,1.205-3.209,3.63,3.63,0,0,1,2.453-.866,3.5,3.5,0,0,1,2.629,1.054,4.009,4.009,0,0,1,1.021,2.912,5.164,5.164,0,0,1-.451,2.368,3.2,3.2,0,0,1-1.314,1.34,3.831,3.831,0,0,1-1.884.478,3.509,3.509,0,0,1-2.648-1.05A4.2,4.2,0,0,1,373.54,245.17Zm1.359,0a3.322,3.322,0,0,0,.653,2.244,2.177,2.177,0,0,0,3.283,0,3.4,3.4,0,0,0,.653-2.284,3.222,3.222,0,0,0-.657-2.192,2.18,2.18,0,0,0-3.279,0A3.308,3.308,0,0,0,374.9,245.17Z" transform="translate(-5.926 -9.5)"/><path class="cls-6" d="M387.51,249.07v-1.146a2.856,2.856,0,0,1-2.476,1.322,3.165,3.165,0,0,1-1.289-.264,2.125,2.125,0,0,1-.889-.665,2.484,2.484,0,0,1-.407-.98,6.716,6.716,0,0,1-.081-1.234v-4.833h1.322V245.6a7.619,7.619,0,0,0,.081,1.4,1.374,1.374,0,0,0,.528.819,1.637,1.637,0,0,0,1,.3,2.172,2.172,0,0,0,1.116-.305,1.694,1.694,0,0,0,.738-.83,4.161,4.161,0,0,0,.217-1.524v-4.179h1.321v7.8Z" transform="translate(-5.926 -9.5)"/><path class="cls-6" d="M390.763,249.07v-7.8h1.19v1.109a2.8,2.8,0,0,1,2.482-1.285,3.256,3.256,0,0,1,1.3.253,2.038,2.038,0,0,1,.885.665,2.539,2.539,0,0,1,.411.977,7.593,7.593,0,0,1,.073,1.285v4.8h-1.321v-4.744a3.572,3.572,0,0,0-.154-1.208,1.271,1.271,0,0,0-.547-.639,1.742,1.742,0,0,0-.922-.239,2.14,2.14,0,0,0-1.458.536,2.643,2.643,0,0,0-.613,2.034v4.26Z" transform="translate(-5.926 -9.5)"/><path class="cls-6" d="M398.885,249.717l1.285.191a1.225,1.225,0,0,0,.448.867,2.2,2.2,0,0,0,1.344.367,2.363,2.363,0,0,0,1.418-.367,1.812,1.812,0,0,0,.676-1.028,8.483,8.483,0,0,0,.095-1.7,2.717,2.717,0,0,1-2.159,1.021,2.942,2.942,0,0,1-2.489-1.16,4.468,4.468,0,0,1-.882-2.784,5.178,5.178,0,0,1,.4-2.06,3.24,3.24,0,0,1,1.171-1.458,3.168,3.168,0,0,1,1.8-.514,2.8,2.8,0,0,1,2.276,1.116v-.94h1.22v6.742a6.4,6.4,0,0,1-.371,2.582,2.711,2.711,0,0,1-1.176,1.2,4.068,4.068,0,0,1-1.979.441,3.734,3.734,0,0,1-2.255-.628A2.123,2.123,0,0,1,398.885,249.717Zm1.095-4.686a3.385,3.385,0,0,0,.609,2.24,2.01,2.01,0,0,0,3.055,0,3.268,3.268,0,0,0,.617-2.2,3.2,3.2,0,0,0-.635-2.159,1.965,1.965,0,0,0-1.531-.727,1.91,1.91,0,0,0-1.5.716A3.181,3.181,0,0,0,399.979,245.031Z" transform="translate(-5.926 -9.5)"/><path class="cls-6" d="M412.832,246.559l1.365.169a3.331,3.331,0,0,1-1.2,1.858,4.055,4.055,0,0,1-4.946-.393,4.116,4.116,0,0,1-1-2.956,4.309,4.309,0,0,1,1.014-3.055,3.43,3.43,0,0,1,2.629-1.087,3.336,3.336,0,0,1,2.556,1.064,4.231,4.231,0,0,1,.992,3c0,.079,0,.2-.008.353h-5.816a3,3,0,0,0,.727,1.968,2.165,2.165,0,0,0,1.631.683,2.025,2.025,0,0,0,1.241-.382A2.538,2.538,0,0,0,412.832,246.559Zm-4.341-2.137h4.355a2.639,2.639,0,0,0-.5-1.476,2.025,2.025,0,0,0-1.638-.764,2.1,2.1,0,0,0-1.531.609A2.41,2.41,0,0,0,408.491,244.421Z" transform="translate(-5.926 -9.5)"/><path class="cls-6" d="M415.843,249.07v-7.8h1.19v1.183a3.207,3.207,0,0,1,.841-1.094,1.465,1.465,0,0,1,.848-.264,2.581,2.581,0,0,1,1.359.426l-.456,1.227a1.892,1.892,0,0,0-.969-.287,1.261,1.261,0,0,0-.779.261,1.413,1.413,0,0,0-.491.724,5.128,5.128,0,0,0-.221,1.542v4.083Z" transform="translate(-5.926 -9.5)"/><path class="cls-6" d="M421.212,249.07v-1.505h1.5v1.505a2.679,2.679,0,0,1-.293,1.34,1.917,1.917,0,0,1-.933.79l-.368-.565a1.255,1.255,0,0,0,.617-.54,2.291,2.291,0,0,0,.221-1.024Z" transform="translate(-5.926 -9.5)"/><path class="cls-6" d="M430.443,249.07h-1.227V238.3h1.321v3.841a2.617,2.617,0,0,1,2.138-1.05,3.276,3.276,0,0,1,1.362.29,2.777,2.777,0,0,1,1.058.815,3.937,3.937,0,0,1,.649,1.267,5.208,5.208,0,0,1,.235,1.586,4.455,4.455,0,0,1-.991,3.1,3.1,3.1,0,0,1-2.38,1.094,2.483,2.483,0,0,1-2.166-1.153Zm-.015-3.958a4.044,4.044,0,0,0,.382,2.027,1.889,1.889,0,0,0,3.188.268,3.421,3.421,0,0,0,.631-2.244,3.477,3.477,0,0,0-.605-2.254,1.845,1.845,0,0,0-1.465-.727,1.9,1.9,0,0,0-1.5.752A3.306,3.306,0,0,0,430.429,245.112Z" transform="translate(-5.926 -9.5)"/><path class="cls-6" d="M442.7,249.07v-1.146a2.856,2.856,0,0,1-2.476,1.322,3.165,3.165,0,0,1-1.289-.264,2.125,2.125,0,0,1-.889-.665,2.484,2.484,0,0,1-.407-.98,6.716,6.716,0,0,1-.081-1.234v-4.833h1.322V245.6a7.619,7.619,0,0,0,.081,1.4,1.374,1.374,0,0,0,.528.819,1.637,1.637,0,0,0,1,.3,2.172,2.172,0,0,0,1.116-.305,1.694,1.694,0,0,0,.738-.83,4.161,4.161,0,0,0,.217-1.524v-4.179h1.321v7.8Z" transform="translate(-5.926 -9.5)"/><path class="cls-6" d="M448.841,247.888l.19,1.168a4.919,4.919,0,0,1-1,.118,2.263,2.263,0,0,1-1.117-.228,1.273,1.273,0,0,1-.558-.6,4.734,4.734,0,0,1-.162-1.561V242.3h-.969v-1.028h.969v-1.931l1.315-.793v2.725h1.329V242.3h-1.329v4.561a2.3,2.3,0,0,0,.069.727.551.551,0,0,0,.228.257.877.877,0,0,0,.452.1A4.254,4.254,0,0,0,448.841,247.888Z" transform="translate(-5.926 -9.5)"/><path class="cls-6" d="M454.282,249.07V238.3H455.6V249.07Z" transform="translate(-5.926 -9.5)"/><path class="cls-6" d="M462.993,246.559l1.365.169a3.331,3.331,0,0,1-1.2,1.858,4.055,4.055,0,0,1-4.946-.393,4.116,4.116,0,0,1-1-2.956,4.309,4.309,0,0,1,1.014-3.055,3.43,3.43,0,0,1,2.629-1.087,3.336,3.336,0,0,1,2.556,1.064,4.231,4.231,0,0,1,.992,3c0,.079,0,.2-.008.353h-5.816a3,3,0,0,0,.727,1.968,2.165,2.165,0,0,0,1.631.683,2.025,2.025,0,0,0,1.241-.382A2.538,2.538,0,0,0,462.993,246.559Zm-4.341-2.137h4.355a2.639,2.639,0,0,0-.5-1.476,2.025,2.025,0,0,0-1.638-.764,2.1,2.1,0,0,0-1.531.609A2.41,2.41,0,0,0,458.652,244.421Z" transform="translate(-5.926 -9.5)"/><path class="cls-6" d="M465.49,246.742l1.307-.206a1.833,1.833,0,0,0,.613,1.2,2.142,2.142,0,0,0,1.407.418,2.062,2.062,0,0,0,1.351-.371,1.109,1.109,0,0,0,.441-.87.8.8,0,0,0-.39-.705,5.741,5.741,0,0,0-1.352-.448,12.361,12.361,0,0,1-2.016-.635,1.924,1.924,0,0,1-1.143-1.789,2.009,2.009,0,0,1,.239-.966,2.148,2.148,0,0,1,.649-.738,2.737,2.737,0,0,1,.841-.386,4,4,0,0,1,1.143-.158,4.515,4.515,0,0,1,1.612.264,2.2,2.2,0,0,1,1.024.716,2.8,2.8,0,0,1,.455,1.208l-1.293.176a1.416,1.416,0,0,0-.51-.94,1.87,1.87,0,0,0-1.193-.337,2.159,2.159,0,0,0-1.3.3.877.877,0,0,0-.39.705.732.732,0,0,0,.161.463,1.175,1.175,0,0,0,.507.353q.2.073,1.168.338a16.147,16.147,0,0,1,1.957.613,1.978,1.978,0,0,1,.87.694,1.935,1.935,0,0,1,.316,1.131,2.222,2.222,0,0,1-.386,1.245,2.492,2.492,0,0,1-1.112.9,4.055,4.055,0,0,1-1.646.319,3.663,3.663,0,0,1-2.317-.632A2.933,2.933,0,0,1,465.49,246.742Z" transform="translate(-5.926 -9.5)"/><path class="cls-6" d="M473.011,246.742l1.307-.206a1.833,1.833,0,0,0,.613,1.2,2.142,2.142,0,0,0,1.407.418,2.062,2.062,0,0,0,1.351-.371,1.109,1.109,0,0,0,.441-.87.8.8,0,0,0-.39-.705,5.741,5.741,0,0,0-1.352-.448,12.361,12.361,0,0,1-2.016-.635,1.924,1.924,0,0,1-1.143-1.789,2.009,2.009,0,0,1,.239-.966,2.148,2.148,0,0,1,.649-.738,2.737,2.737,0,0,1,.841-.386,4,4,0,0,1,1.143-.158,4.515,4.515,0,0,1,1.612.264,2.2,2.2,0,0,1,1.024.716,2.8,2.8,0,0,1,.455,1.208l-1.293.176a1.416,1.416,0,0,0-.51-.94,1.87,1.87,0,0,0-1.193-.337,2.159,2.159,0,0,0-1.3.3.877.877,0,0,0-.39.705.732.732,0,0,0,.161.463,1.175,1.175,0,0,0,.507.353q.2.073,1.168.338a16.147,16.147,0,0,1,1.957.613,1.978,1.978,0,0,1,.87.694,1.935,1.935,0,0,1,.316,1.131,2.222,2.222,0,0,1-.386,1.245,2.492,2.492,0,0,1-1.112.9,4.055,4.055,0,0,1-1.646.319,3.663,3.663,0,0,1-2.317-.632A2.933,2.933,0,0,1,473.011,246.742Z" transform="translate(-5.926 -9.5)"/><path class="cls-6" d="M488.125,247.888l.19,1.168a4.919,4.919,0,0,1-1,.118,2.263,2.263,0,0,1-1.117-.228,1.273,1.273,0,0,1-.558-.6,4.734,4.734,0,0,1-.162-1.561V242.3h-.969v-1.028h.969v-1.931l1.315-.793v2.725h1.329V242.3H486.8v4.561a2.3,2.3,0,0,0,.069.727.551.551,0,0,0,.228.257.877.877,0,0,0,.452.1A4.254,4.254,0,0,0,488.125,247.888Z" transform="translate(-5.926 -9.5)"/><path class="cls-6" d="M489.417,249.07V238.3h1.322v3.863a2.955,2.955,0,0,1,2.335-1.072,3.15,3.15,0,0,1,1.506.341,2.005,2.005,0,0,1,.914.944,4.349,4.349,0,0,1,.275,1.748v4.943h-1.321v-4.943a2.044,2.044,0,0,0-.43-1.443,1.6,1.6,0,0,0-1.216-.452,2.146,2.146,0,0,0-1.105.3,1.719,1.719,0,0,0-.737.826,3.783,3.783,0,0,0-.221,1.439v4.267Z" transform="translate(-5.926 -9.5)"/><path class="cls-6" d="M502.872,248.108a4.92,4.92,0,0,1-1.414.881,4.1,4.1,0,0,1-1.458.257,2.838,2.838,0,0,1-1.976-.628,2.073,2.073,0,0,1-.689-1.6,2.134,2.134,0,0,1,.26-1.047,2.166,2.166,0,0,1,.684-.76,3.215,3.215,0,0,1,.951-.433,9.436,9.436,0,0,1,1.175-.2,12.082,12.082,0,0,0,2.357-.456c0-.181.008-.3.008-.345a1.459,1.459,0,0,0-.375-1.138,2.215,2.215,0,0,0-1.506-.448,2.338,2.338,0,0,0-1.377.327,2,2,0,0,0-.657,1.157l-1.292-.176a3.2,3.2,0,0,1,.58-1.34,2.536,2.536,0,0,1,1.168-.786,5.2,5.2,0,0,1,1.77-.275,4.682,4.682,0,0,1,1.623.235,2.14,2.14,0,0,1,.918.591,2.07,2.07,0,0,1,.411.9,7.448,7.448,0,0,1,.066,1.219V245.8a18.872,18.872,0,0,0,.084,2.332,2.94,2.94,0,0,0,.335.937h-1.381A2.785,2.785,0,0,1,502.872,248.108Zm-.11-2.953a9.7,9.7,0,0,1-2.159.5,5.015,5.015,0,0,0-1.153.264,1.158,1.158,0,0,0-.521.43,1.168,1.168,0,0,0,.217,1.509,1.722,1.722,0,0,0,1.172.353,2.727,2.727,0,0,0,1.358-.334,2.061,2.061,0,0,0,.874-.915,3.2,3.2,0,0,0,.213-1.322Z" transform="translate(-5.926 -9.5)"/><path class="cls-6" d="M506.147,249.07v-7.8h1.19v1.109a2.8,2.8,0,0,1,2.482-1.285,3.256,3.256,0,0,1,1.3.253,2.038,2.038,0,0,1,.885.665,2.539,2.539,0,0,1,.411.977,7.593,7.593,0,0,1,.073,1.285v4.8h-1.321v-4.744a3.572,3.572,0,0,0-.154-1.208,1.271,1.271,0,0,0-.547-.639,1.742,1.742,0,0,0-.922-.239,2.14,2.14,0,0,0-1.458.536,2.643,2.643,0,0,0-.613,2.034v4.26Z" transform="translate(-5.926 -9.5)"/><path class="cls-6" d="M366.02,263.219a4.018,4.018,0,0,1,1.205-3.209,3.63,3.63,0,0,1,2.453-.866,3.5,3.5,0,0,1,2.629,1.054,4.009,4.009,0,0,1,1.021,2.912,5.164,5.164,0,0,1-.451,2.368,3.2,3.2,0,0,1-1.314,1.34,3.831,3.831,0,0,1-1.884.478,3.509,3.509,0,0,1-2.648-1.05A4.2,4.2,0,0,1,366.02,263.219Zm1.359,0a3.322,3.322,0,0,0,.653,2.244,2.177,2.177,0,0,0,3.283,0,3.4,3.4,0,0,0,.653-2.284,3.222,3.222,0,0,0-.657-2.192,2.18,2.18,0,0,0-3.279,0A3.308,3.308,0,0,0,367.379,263.219Z" transform="translate(-5.926 -9.5)"/><path class="cls-6" d="M374.862,267.119v-7.8h1.19V260.5a3.207,3.207,0,0,1,.841-1.094,1.465,1.465,0,0,1,.848-.264,2.581,2.581,0,0,1,1.359.426l-.456,1.227a1.892,1.892,0,0,0-.969-.287,1.261,1.261,0,0,0-.779.261,1.413,1.413,0,0,0-.491.724,5.128,5.128,0,0,0-.221,1.542v4.083Z" transform="translate(-5.926 -9.5)"/><path class="cls-6" d="M389.4,264.607l1.365.169a3.331,3.331,0,0,1-1.2,1.858,4.055,4.055,0,0,1-4.946-.393,4.116,4.116,0,0,1-1-2.956,4.309,4.309,0,0,1,1.014-3.055,3.43,3.43,0,0,1,2.629-1.087,3.336,3.336,0,0,1,2.556,1.064,4.231,4.231,0,0,1,.992,3c0,.079,0,.2-.008.353H384.99a3,3,0,0,0,.727,1.968,2.165,2.165,0,0,0,1.631.683,2.025,2.025,0,0,0,1.241-.382A2.538,2.538,0,0,0,389.4,264.607Zm-4.341-2.137h4.355a2.639,2.639,0,0,0-.5-1.476,2.025,2.025,0,0,0-1.638-.764,2.1,2.1,0,0,0-1.531.609A2.41,2.41,0,0,0,385.063,262.47Z" transform="translate(-5.926 -9.5)"/><path class="cls-6" d="M397.4,270.108v-3.819a2.372,2.372,0,0,1-.863.72,2.535,2.535,0,0,1-1.179.287,3.116,3.116,0,0,1-2.391-1.109,4.369,4.369,0,0,1-1-3.041,5.22,5.22,0,0,1,.408-2.108,3.041,3.041,0,0,1,1.183-1.414,3.16,3.16,0,0,1,1.7-.481,2.613,2.613,0,0,1,2.276,1.219v-1.043h1.189v10.789Zm-4.076-6.911a3.442,3.442,0,0,0,.632,2.258,1.913,1.913,0,0,0,1.513.753,1.852,1.852,0,0,0,1.454-.716,3.3,3.3,0,0,0,.609-2.177,3.636,3.636,0,0,0-.643-2.343,1.906,1.906,0,0,0-1.509-.786,1.82,1.82,0,0,0-1.458.731A3.567,3.567,0,0,0,393.326,263.2Z" transform="translate(-5.926 -9.5)"/><path class="cls-6" d="M405.907,267.119v-1.146a2.856,2.856,0,0,1-2.476,1.322,3.165,3.165,0,0,1-1.289-.264,2.125,2.125,0,0,1-.889-.665,2.484,2.484,0,0,1-.407-.98,6.716,6.716,0,0,1-.081-1.234v-4.833h1.322v4.326a7.619,7.619,0,0,0,.081,1.4,1.374,1.374,0,0,0,.528.819,1.637,1.637,0,0,0,1,.3,2.172,2.172,0,0,0,1.116-.305,1.694,1.694,0,0,0,.738-.83,4.161,4.161,0,0,0,.217-1.524v-4.179h1.321v7.8Z" transform="translate(-5.926 -9.5)"/><path class="cls-6" d="M414.249,266.157a4.92,4.92,0,0,1-1.414.881,4.1,4.1,0,0,1-1.458.257,2.838,2.838,0,0,1-1.976-.628,2.073,2.073,0,0,1-.689-1.6,2.134,2.134,0,0,1,.26-1.047,2.166,2.166,0,0,1,.684-.76,3.215,3.215,0,0,1,.951-.433,9.436,9.436,0,0,1,1.175-.2,12.082,12.082,0,0,0,2.357-.456c0-.181.008-.3.008-.345a1.459,1.459,0,0,0-.375-1.138,2.215,2.215,0,0,0-1.506-.448,2.338,2.338,0,0,0-1.377.327,2,2,0,0,0-.657,1.157l-1.292-.176a3.2,3.2,0,0,1,.58-1.34,2.536,2.536,0,0,1,1.168-.786,5.2,5.2,0,0,1,1.77-.275,4.682,4.682,0,0,1,1.623.235,2.14,2.14,0,0,1,.918.591,2.07,2.07,0,0,1,.411.9,7.448,7.448,0,0,1,.066,1.219v1.763a18.872,18.872,0,0,0,.084,2.332,2.94,2.94,0,0,0,.335.937h-1.381A2.785,2.785,0,0,1,414.249,266.157Zm-.11-2.953a9.7,9.7,0,0,1-2.159.5,5.015,5.015,0,0,0-1.153.264,1.158,1.158,0,0,0-.521.43,1.168,1.168,0,0,0,.217,1.509,1.722,1.722,0,0,0,1.172.353,2.727,2.727,0,0,0,1.358-.334,2.061,2.061,0,0,0,.874-.915,3.2,3.2,0,0,0,.213-1.322Z" transform="translate(-5.926 -9.5)"/><path class="cls-6" d="M417.5,267.119V256.353h1.322v10.767Z" transform="translate(-5.926 -9.5)"/><path class="cls-6" d="M427.932,265.937l.19,1.168a4.919,4.919,0,0,1-1,.118,2.263,2.263,0,0,1-1.117-.228,1.273,1.273,0,0,1-.558-.6,4.734,4.734,0,0,1-.162-1.561v-4.487h-.969v-1.028h.969v-1.931l1.315-.793v2.725h1.329v1.028H426.6v4.561a2.3,2.3,0,0,0,.069.727.551.551,0,0,0,.228.257.877.877,0,0,0,.452.1A4.254,4.254,0,0,0,427.932,265.937Z" transform="translate(-5.926 -9.5)"/><path class="cls-6" d="M428.731,263.219a4.018,4.018,0,0,1,1.205-3.209,3.63,3.63,0,0,1,2.453-.866,3.5,3.5,0,0,1,2.629,1.054,4.009,4.009,0,0,1,1.021,2.912,5.164,5.164,0,0,1-.451,2.368,3.2,3.2,0,0,1-1.314,1.34,3.831,3.831,0,0,1-1.884.478,3.509,3.509,0,0,1-2.648-1.05A4.2,4.2,0,0,1,428.731,263.219Zm1.359,0a3.322,3.322,0,0,0,.653,2.244,2.177,2.177,0,0,0,3.283,0,3.4,3.4,0,0,0,.653-2.284,3.222,3.222,0,0,0-.657-2.192,2.18,2.18,0,0,0-3.279,0A3.308,3.308,0,0,0,430.091,263.219Z" transform="translate(-5.926 -9.5)"/><path class="cls-6" d="M441.408,264.277l1.321-.176a2.915,2.915,0,0,0,.775,1.62,1.912,1.912,0,0,0,1.333.5,2.136,2.136,0,0,0,1.575-.646,2.179,2.179,0,0,0,.643-1.6,2.028,2.028,0,0,0-.595-1.5,2.057,2.057,0,0,0-1.513-.591,3.776,3.776,0,0,0-.933.147l.146-1.161a2.023,2.023,0,0,0,.213.015,2.726,2.726,0,0,0,1.521-.44,1.509,1.509,0,0,0,.676-1.359,1.607,1.607,0,0,0-.492-1.2,1.75,1.75,0,0,0-1.271-.477,1.8,1.8,0,0,0-1.285.484,2.433,2.433,0,0,0-.661,1.455l-1.322-.235a3.4,3.4,0,0,1,1.1-2.06,3.187,3.187,0,0,1,2.138-.73,3.527,3.527,0,0,1,1.623.378,2.744,2.744,0,0,1,1.135,1.032,2.652,2.652,0,0,1,.393,1.388,2.27,2.27,0,0,1-.375,1.271,2.55,2.55,0,0,1-1.108.911,2.5,2.5,0,0,1,1.483.915,2.784,2.784,0,0,1,.528,1.737,3.18,3.18,0,0,1-1.027,2.391,3.617,3.617,0,0,1-2.6.98,3.38,3.38,0,0,1-2.354-.845A3.265,3.265,0,0,1,441.408,264.277Z" transform="translate(-5.926 -9.5)"/><path class="cls-6" d="M449.854,257.763v-1.271h6.97v1.028a14.723,14.723,0,0,0-2.038,2.909,17.732,17.732,0,0,0-1.561,3.73,13.969,13.969,0,0,0-.507,2.96h-1.358a13.19,13.19,0,0,1,.5-3.07,16.076,16.076,0,0,1,1.369-3.47,14.86,14.86,0,0,1,1.9-2.816Z" transform="translate(-5.926 -9.5)"/><path class="cls-6" d="M467.289,267.119h-1.322V258.7a6.832,6.832,0,0,1-1.252.911,8.879,8.879,0,0,1-1.392.683v-1.278a7.969,7.969,0,0,0,1.938-1.263,4.976,4.976,0,0,0,1.176-1.439h.852Z" transform="translate(-5.926 -9.5)"/><path class="cls-6" d="M470.051,267.3l3.121-11.134h1.058L471.115,267.3Z" transform="translate(-5.926 -9.5)"/><path class="cls-6" d="M481.8,265.849v1.271h-7.117a2.345,2.345,0,0,1,.154-.918,4.879,4.879,0,0,1,.87-1.432,13.638,13.638,0,0,1,1.729-1.63,14.677,14.677,0,0,0,2.373-2.28,2.731,2.731,0,0,0,.616-1.59,1.765,1.765,0,0,0-.562-1.326,2.027,2.027,0,0,0-1.465-.54,2.066,2.066,0,0,0-1.528.573,2.168,2.168,0,0,0-.58,1.586l-1.358-.14a3.345,3.345,0,0,1,1.05-2.317,3.584,3.584,0,0,1,2.446-.8,3.414,3.414,0,0,1,2.453.859,2.825,2.825,0,0,1,.9,2.13,3.237,3.237,0,0,1-.265,1.271,4.935,4.935,0,0,1-.878,1.315,21.4,21.4,0,0,1-2.038,1.895q-1.189,1-1.527,1.355a4.384,4.384,0,0,0-.559.716Z" transform="translate(-5.926 -9.5)"/><path class="cls-6" d="M487.706,270.123l-.146-1.241a2.948,2.948,0,0,0,.756.117,1.453,1.453,0,0,0,.705-.146,1.2,1.2,0,0,0,.434-.412,6.522,6.522,0,0,0,.4-.984c.024-.074.063-.181.117-.323l-2.96-7.814h1.425l1.623,4.517q.316.859.565,1.807a17.838,17.838,0,0,1,.544-1.777l1.667-4.546h1.322l-2.968,7.932a15.751,15.751,0,0,1-.741,1.77,2.621,2.621,0,0,1-.808.958,1.911,1.911,0,0,1-1.088.305A2.658,2.658,0,0,1,487.706,270.123Z" transform="translate(-5.926 -9.5)"/><path class="cls-6" d="M500.625,264.607l1.365.169a3.331,3.331,0,0,1-1.2,1.858,4.055,4.055,0,0,1-4.946-.393,4.116,4.116,0,0,1-1-2.956,4.309,4.309,0,0,1,1.014-3.055,3.43,3.43,0,0,1,2.629-1.087,3.336,3.336,0,0,1,2.556,1.064,4.231,4.231,0,0,1,.992,3c0,.079,0,.2-.008.353h-5.816a3,3,0,0,0,.727,1.968,2.165,2.165,0,0,0,1.631.683,2.025,2.025,0,0,0,1.241-.382A2.538,2.538,0,0,0,500.625,264.607Zm-4.341-2.137h4.355a2.639,2.639,0,0,0-.5-1.476,2.025,2.025,0,0,0-1.638-.764,2.1,2.1,0,0,0-1.531.609A2.41,2.41,0,0,0,496.284,262.47Z" transform="translate(-5.926 -9.5)"/><path class="cls-6" d="M508.74,266.157a4.92,4.92,0,0,1-1.414.881,4.1,4.1,0,0,1-1.458.257,2.838,2.838,0,0,1-1.976-.628,2.073,2.073,0,0,1-.689-1.6,2.134,2.134,0,0,1,.26-1.047,2.166,2.166,0,0,1,.684-.76,3.215,3.215,0,0,1,.951-.433,9.436,9.436,0,0,1,1.175-.2,12.082,12.082,0,0,0,2.357-.456c0-.181.008-.3.008-.345a1.459,1.459,0,0,0-.375-1.138,2.215,2.215,0,0,0-1.506-.448,2.338,2.338,0,0,0-1.377.327,2,2,0,0,0-.657,1.157l-1.292-.176a3.2,3.2,0,0,1,.58-1.34,2.536,2.536,0,0,1,1.168-.786,5.2,5.2,0,0,1,1.77-.275,4.682,4.682,0,0,1,1.623.235,2.14,2.14,0,0,1,.918.591,2.07,2.07,0,0,1,.411.9,7.448,7.448,0,0,1,.066,1.219v1.763a18.872,18.872,0,0,0,.084,2.332,2.94,2.94,0,0,0,.335.937H509A2.785,2.785,0,0,1,508.74,266.157Zm-.11-2.953a9.7,9.7,0,0,1-2.159.5,5.015,5.015,0,0,0-1.153.264,1.158,1.158,0,0,0-.521.43,1.168,1.168,0,0,0,.217,1.509,1.722,1.722,0,0,0,1.172.353,2.727,2.727,0,0,0,1.358-.334,2.061,2.061,0,0,0,.874-.915,3.2,3.2,0,0,0,.213-1.322Z" transform="translate(-5.926 -9.5)"/><path class="cls-6" d="M512,267.119v-7.8h1.19V260.5a3.207,3.207,0,0,1,.841-1.094,1.465,1.465,0,0,1,.848-.264,2.581,2.581,0,0,1,1.359.426l-.456,1.227a1.892,1.892,0,0,0-.969-.287,1.261,1.261,0,0,0-.779.261,1.413,1.413,0,0,0-.491.724,5.128,5.128,0,0,0-.221,1.542v4.083Z" transform="translate(-5.926 -9.5)"/><path class="cls-6" d="M516.5,264.791l1.307-.206a1.833,1.833,0,0,0,.613,1.2,2.142,2.142,0,0,0,1.407.418,2.062,2.062,0,0,0,1.351-.371,1.109,1.109,0,0,0,.441-.87.8.8,0,0,0-.39-.705,5.741,5.741,0,0,0-1.352-.448,12.361,12.361,0,0,1-2.016-.635,1.924,1.924,0,0,1-1.143-1.789,2.009,2.009,0,0,1,.239-.966,2.148,2.148,0,0,1,.649-.738,2.737,2.737,0,0,1,.841-.386,4,4,0,0,1,1.143-.158,4.515,4.515,0,0,1,1.612.264,2.2,2.2,0,0,1,1.024.716,2.8,2.8,0,0,1,.455,1.208l-1.293.176a1.416,1.416,0,0,0-.51-.94,1.87,1.87,0,0,0-1.193-.337,2.159,2.159,0,0,0-1.3.3.877.877,0,0,0-.39.705.732.732,0,0,0,.161.463,1.175,1.175,0,0,0,.507.353q.2.073,1.168.338a16.147,16.147,0,0,1,1.957.613,1.978,1.978,0,0,1,.87.694,1.935,1.935,0,0,1,.316,1.131,2.222,2.222,0,0,1-.386,1.245,2.492,2.492,0,0,1-1.112.9,4.055,4.055,0,0,1-1.646.319,3.663,3.663,0,0,1-2.317-.632A2.933,2.933,0,0,1,516.5,264.791Z" transform="translate(-5.926 -9.5)"/><path class="cls-6" d="M366.453,288.172l-.146-1.241a2.948,2.948,0,0,0,.756.117,1.453,1.453,0,0,0,.705-.146,1.2,1.2,0,0,0,.434-.412,6.522,6.522,0,0,0,.4-.984c.024-.074.063-.181.117-.323l-2.96-7.814h1.425l1.623,4.517q.316.859.565,1.807a17.838,17.838,0,0,1,.544-1.777l1.667-4.546h1.322l-2.968,7.932a15.751,15.751,0,0,1-.741,1.77,2.621,2.621,0,0,1-.808.958,1.911,1.911,0,0,1-1.088.305A2.658,2.658,0,0,1,366.453,288.172Z" transform="translate(-5.926 -9.5)"/><path class="cls-6" d="M373.54,281.269a4.018,4.018,0,0,1,1.205-3.209,3.63,3.63,0,0,1,2.453-.866,3.5,3.5,0,0,1,2.629,1.054,4.009,4.009,0,0,1,1.021,2.912,5.164,5.164,0,0,1-.451,2.368,3.2,3.2,0,0,1-1.314,1.34,3.831,3.831,0,0,1-1.884.478,3.509,3.509,0,0,1-2.648-1.05A4.2,4.2,0,0,1,373.54,281.269Zm1.359,0a3.322,3.322,0,0,0,.653,2.244,2.177,2.177,0,0,0,3.283,0,3.4,3.4,0,0,0,.653-2.284,3.222,3.222,0,0,0-.657-2.192,2.18,2.18,0,0,0-3.279,0A3.308,3.308,0,0,0,374.9,281.269Z" transform="translate(-5.926 -9.5)"/><path class="cls-6" d="M387.51,285.168v-1.146a2.856,2.856,0,0,1-2.476,1.322,3.165,3.165,0,0,1-1.289-.264,2.125,2.125,0,0,1-.889-.665,2.484,2.484,0,0,1-.407-.98,6.716,6.716,0,0,1-.081-1.234v-4.833h1.322v4.326a7.619,7.619,0,0,0,.081,1.4,1.374,1.374,0,0,0,.528.819,1.637,1.637,0,0,0,1,.3,2.172,2.172,0,0,0,1.116-.305,1.694,1.694,0,0,0,.738-.83,4.161,4.161,0,0,0,.217-1.524v-4.179h1.321v7.8Z" transform="translate(-5.926 -9.5)"/><path class="cls-6" d="M390.763,285.168v-7.8h1.19v1.109a2.8,2.8,0,0,1,2.482-1.285,3.256,3.256,0,0,1,1.3.253,2.038,2.038,0,0,1,.885.665,2.539,2.539,0,0,1,.411.977,7.593,7.593,0,0,1,.073,1.285v4.8h-1.321v-4.744a3.572,3.572,0,0,0-.154-1.208,1.271,1.271,0,0,0-.547-.639,1.742,1.742,0,0,0-.922-.239,2.14,2.14,0,0,0-1.458.536,2.643,2.643,0,0,0-.613,2.034v4.26Z" transform="translate(-5.926 -9.5)"/><path class="cls-6" d="M398.885,285.815l1.285.191a1.225,1.225,0,0,0,.448.867,2.2,2.2,0,0,0,1.344.367,2.363,2.363,0,0,0,1.418-.367,1.812,1.812,0,0,0,.676-1.028,8.483,8.483,0,0,0,.095-1.7,2.717,2.717,0,0,1-2.159,1.021,2.942,2.942,0,0,1-2.489-1.16,4.468,4.468,0,0,1-.882-2.784,5.178,5.178,0,0,1,.4-2.06,3.24,3.24,0,0,1,1.171-1.458,3.168,3.168,0,0,1,1.8-.514,2.8,2.8,0,0,1,2.276,1.116v-.94h1.22v6.742a6.4,6.4,0,0,1-.371,2.582,2.711,2.711,0,0,1-1.176,1.2,4.068,4.068,0,0,1-1.979.441,3.734,3.734,0,0,1-2.255-.628A2.123,2.123,0,0,1,398.885,285.815Zm1.095-4.686a3.385,3.385,0,0,0,.609,2.24,2.01,2.01,0,0,0,3.055,0,3.268,3.268,0,0,0,.617-2.2,3.2,3.2,0,0,0-.635-2.159,1.965,1.965,0,0,0-1.531-.727,1.91,1.91,0,0,0-1.5.716A3.181,3.181,0,0,0,399.979,281.129Z" transform="translate(-5.926 -9.5)"/><path class="cls-6" d="M412.832,282.657l1.365.169a3.331,3.331,0,0,1-1.2,1.858,4.055,4.055,0,0,1-4.946-.393,4.116,4.116,0,0,1-1-2.956,4.309,4.309,0,0,1,1.014-3.055,3.43,3.43,0,0,1,2.629-1.087,3.336,3.336,0,0,1,2.556,1.064,4.231,4.231,0,0,1,.992,3c0,.079,0,.2-.008.353h-5.816a3,3,0,0,0,.727,1.968,2.165,2.165,0,0,0,1.631.683,2.025,2.025,0,0,0,1.241-.382A2.538,2.538,0,0,0,412.832,282.657Zm-4.341-2.137h4.355a2.639,2.639,0,0,0-.5-1.476,2.025,2.025,0,0,0-1.638-.764,2.1,2.1,0,0,0-1.531.609A2.41,2.41,0,0,0,408.491,280.52Z" transform="translate(-5.926 -9.5)"/><path class="cls-6" d="M415.843,285.168v-7.8h1.19v1.183a3.207,3.207,0,0,1,.841-1.094,1.465,1.465,0,0,1,.848-.264,2.581,2.581,0,0,1,1.359.426l-.456,1.227a1.892,1.892,0,0,0-.969-.287,1.261,1.261,0,0,0-.779.261,1.413,1.413,0,0,0-.491.724,5.128,5.128,0,0,0-.221,1.542v4.083Z" transform="translate(-5.926 -9.5)"/><path class="cls-6" d="M357.247,383.446a5.85,5.85,0,0,1,1.439-4.2,4.892,4.892,0,0,1,3.716-1.517,5.151,5.151,0,0,1,2.688.712,4.646,4.646,0,0,1,1.825,1.986,6.449,6.449,0,0,1,.628,2.89,6.333,6.333,0,0,1-.661,2.93,4.513,4.513,0,0,1-1.872,1.958,5.357,5.357,0,0,1-2.615.665,5.089,5.089,0,0,1-2.717-.734,4.727,4.727,0,0,1-1.814-2A6.078,6.078,0,0,1,357.247,383.446Zm1.469.022a4.314,4.314,0,0,0,1.046,3.066,3.651,3.651,0,0,0,5.273-.011,4.575,4.575,0,0,0,1.039-3.209,5.519,5.519,0,0,0-.444-2.295,3.412,3.412,0,0,0-1.3-1.521,3.525,3.525,0,0,0-1.921-.54,3.645,3.645,0,0,0-2.6,1.039A4.644,4.644,0,0,0,358.716,383.468Z" transform="translate(-5.926 -9.5)"/><path class="cls-6" d="M371.377,388.69l-2.967-7.8H369.8l1.675,4.671q.272.756.5,1.571.177-.617.492-1.483l1.733-4.759h1.358l-2.952,7.8Z" transform="translate(-5.926 -9.5)"/><path class="cls-6" d="M382.07,386.178l1.365.169a3.331,3.331,0,0,1-1.2,1.858,4.055,4.055,0,0,1-4.946-.393,4.116,4.116,0,0,1-1-2.956A4.309,4.309,0,0,1,377.3,381.8a3.43,3.43,0,0,1,2.629-1.087,3.336,3.336,0,0,1,2.556,1.064,4.231,4.231,0,0,1,.992,3c0,.079,0,.2-.008.353h-5.816a3,3,0,0,0,.727,1.968,2.165,2.165,0,0,0,1.631.683,2.025,2.025,0,0,0,1.241-.382A2.538,2.538,0,0,0,382.07,386.178Zm-4.341-2.137h4.355a2.639,2.639,0,0,0-.5-1.476,2.025,2.025,0,0,0-1.638-.764,2.1,2.1,0,0,0-1.531.609A2.41,2.41,0,0,0,377.729,384.041Z" transform="translate(-5.926 -9.5)"/><path class="cls-6" d="M385.081,388.69v-7.8h1.19v1.183a3.207,3.207,0,0,1,.841-1.094,1.465,1.465,0,0,1,.848-.264,2.581,2.581,0,0,1,1.359.426l-.456,1.227a1.892,1.892,0,0,0-.969-.287,1.261,1.261,0,0,0-.779.261,1.413,1.413,0,0,0-.491.724,5.128,5.128,0,0,0-.221,1.542v4.083Z" transform="translate(-5.926 -9.5)"/><path class="cls-6" d="M393.924,385.848l1.321-.176a2.915,2.915,0,0,0,.775,1.62,1.912,1.912,0,0,0,1.333.5,2.136,2.136,0,0,0,1.575-.646,2.179,2.179,0,0,0,.643-1.6,2.028,2.028,0,0,0-.595-1.5,2.057,2.057,0,0,0-1.513-.591,3.776,3.776,0,0,0-.933.147l.146-1.161a2.023,2.023,0,0,0,.213.015,2.726,2.726,0,0,0,1.521-.44,1.509,1.509,0,0,0,.676-1.359,1.607,1.607,0,0,0-.492-1.2,1.75,1.75,0,0,0-1.271-.477,1.8,1.8,0,0,0-1.285.484,2.433,2.433,0,0,0-.661,1.455l-1.322-.235a3.4,3.4,0,0,1,1.1-2.06,3.187,3.187,0,0,1,2.138-.73,3.527,3.527,0,0,1,1.623.378,2.744,2.744,0,0,1,1.135,1.032,2.652,2.652,0,0,1,.393,1.388,2.27,2.27,0,0,1-.375,1.271,2.55,2.55,0,0,1-1.108.911,2.5,2.5,0,0,1,1.483.915,2.784,2.784,0,0,1,.528,1.737,3.18,3.18,0,0,1-1.027,2.391,3.617,3.617,0,0,1-2.6.98,3.38,3.38,0,0,1-2.354-.845A3.265,3.265,0,0,1,393.924,385.848Z" transform="translate(-5.926 -9.5)"/><path class="cls-6" d="M402.369,379.333v-1.271h6.97v1.028A14.723,14.723,0,0,0,407.3,382a17.732,17.732,0,0,0-1.561,3.73,13.969,13.969,0,0,0-.507,2.96h-1.358a13.19,13.19,0,0,1,.5-3.07,16.076,16.076,0,0,1,1.369-3.47,14.86,14.86,0,0,1,1.9-2.816Z" transform="translate(-5.926 -9.5)"/><path class="cls-6" d="M419.8,388.69h-1.322v-8.424a6.832,6.832,0,0,1-1.252.911,8.879,8.879,0,0,1-1.392.683v-1.278a7.969,7.969,0,0,0,1.938-1.263,4.976,4.976,0,0,0,1.176-1.439h.852Z" transform="translate(-5.926 -9.5)"/><path class="cls-6" d="M422.566,388.874l3.121-11.134h1.058l-3.114,11.134Z" transform="translate(-5.926 -9.5)"/><path class="cls-6" d="M434.317,387.419v1.271H427.2a2.345,2.345,0,0,1,.154-.918,4.879,4.879,0,0,1,.87-1.432,13.638,13.638,0,0,1,1.729-1.63,14.677,14.677,0,0,0,2.373-2.28,2.731,2.731,0,0,0,.616-1.59,1.765,1.765,0,0,0-.562-1.326,2.027,2.027,0,0,0-1.465-.54,2.066,2.066,0,0,0-1.528.573,2.168,2.168,0,0,0-.58,1.586l-1.358-.14a3.345,3.345,0,0,1,1.05-2.317,3.584,3.584,0,0,1,2.446-.8,3.414,3.414,0,0,1,2.453.859,2.825,2.825,0,0,1,.9,2.13,3.237,3.237,0,0,1-.265,1.271,4.935,4.935,0,0,1-.878,1.315,21.4,21.4,0,0,1-2.038,1.895q-1.189,1-1.527,1.355a4.384,4.384,0,0,0-.559.716Z" transform="translate(-5.926 -9.5)"/><path class="cls-6" d="M440.222,391.694l-.146-1.241a2.948,2.948,0,0,0,.756.117,1.453,1.453,0,0,0,.705-.146,1.2,1.2,0,0,0,.434-.412,6.522,6.522,0,0,0,.4-.984c.024-.074.063-.181.117-.323l-2.96-7.814h1.425l1.623,4.517q.316.859.565,1.807a17.838,17.838,0,0,1,.544-1.777l1.667-4.546h1.322l-2.968,7.932a15.751,15.751,0,0,1-.741,1.77,2.621,2.621,0,0,1-.808.958,1.911,1.911,0,0,1-1.088.305A2.658,2.658,0,0,1,440.222,391.694Z" transform="translate(-5.926 -9.5)"/><path class="cls-6" d="M453.141,386.178l1.365.169a3.331,3.331,0,0,1-1.2,1.858,4.055,4.055,0,0,1-4.946-.393,4.116,4.116,0,0,1-1-2.956,4.309,4.309,0,0,1,1.014-3.055A3.43,3.43,0,0,1,451,380.714a3.336,3.336,0,0,1,2.556,1.064,4.231,4.231,0,0,1,.992,3c0,.079,0,.2-.008.353h-5.816a3,3,0,0,0,.727,1.968,2.165,2.165,0,0,0,1.631.683,2.025,2.025,0,0,0,1.241-.382A2.538,2.538,0,0,0,453.141,386.178Zm-4.341-2.137h4.355a2.639,2.639,0,0,0-.5-1.476,2.025,2.025,0,0,0-1.638-.764,2.1,2.1,0,0,0-1.531.609A2.41,2.41,0,0,0,448.8,384.041Z" transform="translate(-5.926 -9.5)"/><path class="cls-6" d="M461.256,387.728a4.92,4.92,0,0,1-1.414.881,4.1,4.1,0,0,1-1.458.257,2.838,2.838,0,0,1-1.976-.628,2.073,2.073,0,0,1-.689-1.6,2.134,2.134,0,0,1,.26-1.047,2.166,2.166,0,0,1,.684-.76,3.215,3.215,0,0,1,.951-.433,9.436,9.436,0,0,1,1.175-.2,12.082,12.082,0,0,0,2.357-.456c0-.181.008-.3.008-.345a1.459,1.459,0,0,0-.375-1.138,2.215,2.215,0,0,0-1.506-.448,2.338,2.338,0,0,0-1.377.327,2,2,0,0,0-.657,1.157l-1.292-.176a3.2,3.2,0,0,1,.58-1.34,2.536,2.536,0,0,1,1.168-.786,5.2,5.2,0,0,1,1.77-.275,4.682,4.682,0,0,1,1.623.235,2.14,2.14,0,0,1,.918.591,2.07,2.07,0,0,1,.411.9,7.448,7.448,0,0,1,.066,1.219v1.763a18.872,18.872,0,0,0,.084,2.332,2.94,2.94,0,0,0,.335.937h-1.381A2.785,2.785,0,0,1,461.256,387.728Zm-.11-2.953a9.7,9.7,0,0,1-2.159.5,5.015,5.015,0,0,0-1.153.264,1.158,1.158,0,0,0-.521.43,1.168,1.168,0,0,0,.217,1.509,1.722,1.722,0,0,0,1.172.353,2.727,2.727,0,0,0,1.358-.334,2.061,2.061,0,0,0,.874-.915,3.2,3.2,0,0,0,.213-1.322Z" transform="translate(-5.926 -9.5)"/><path class="cls-6" d="M464.516,388.69v-7.8h1.19v1.183a3.207,3.207,0,0,1,.841-1.094,1.465,1.465,0,0,1,.848-.264,2.581,2.581,0,0,1,1.359.426l-.456,1.227a1.892,1.892,0,0,0-.969-.287,1.261,1.261,0,0,0-.779.261,1.413,1.413,0,0,0-.491.724,5.128,5.128,0,0,0-.221,1.542v4.083Z" transform="translate(-5.926 -9.5)"/><path class="cls-6" d="M469.011,386.362l1.307-.206a1.833,1.833,0,0,0,.613,1.2,2.142,2.142,0,0,0,1.407.418,2.062,2.062,0,0,0,1.351-.371,1.109,1.109,0,0,0,.441-.87.8.8,0,0,0-.39-.705,5.741,5.741,0,0,0-1.352-.448,12.361,12.361,0,0,1-2.016-.635,1.924,1.924,0,0,1-1.143-1.789,2.009,2.009,0,0,1,.239-.966,2.148,2.148,0,0,1,.649-.738,2.737,2.737,0,0,1,.841-.386,4,4,0,0,1,1.143-.158,4.515,4.515,0,0,1,1.612.264,2.2,2.2,0,0,1,1.024.716,2.8,2.8,0,0,1,.455,1.208l-1.293.176a1.416,1.416,0,0,0-.51-.94,1.87,1.87,0,0,0-1.193-.337,2.159,2.159,0,0,0-1.3.3.877.877,0,0,0-.39.705.732.732,0,0,0,.161.463,1.175,1.175,0,0,0,.507.353q.2.073,1.168.338a16.147,16.147,0,0,1,1.957.613,1.978,1.978,0,0,1,.87.694,1.935,1.935,0,0,1,.316,1.131,2.222,2.222,0,0,1-.386,1.245,2.492,2.492,0,0,1-1.112.9,4.055,4.055,0,0,1-1.646.319,3.663,3.663,0,0,1-2.317-.632A2.933,2.933,0,0,1,469.011,386.362Z" transform="translate(-5.926 -9.5)"/><path class="cls-6" d="M481.18,391.694l-.146-1.241a2.948,2.948,0,0,0,.756.117,1.453,1.453,0,0,0,.705-.146,1.2,1.2,0,0,0,.434-.412,6.522,6.522,0,0,0,.4-.984c.024-.074.063-.181.117-.323l-2.96-7.814h1.425l1.623,4.517q.316.859.565,1.807a17.838,17.838,0,0,1,.544-1.777l1.667-4.546h1.322l-2.968,7.932a15.751,15.751,0,0,1-.741,1.77,2.621,2.621,0,0,1-.808.958,1.911,1.911,0,0,1-1.088.305A2.658,2.658,0,0,1,481.18,391.694Z" transform="translate(-5.926 -9.5)"/><path class="cls-6" d="M488.267,384.79a4.018,4.018,0,0,1,1.205-3.209,3.63,3.63,0,0,1,2.453-.866,3.5,3.5,0,0,1,2.629,1.054,4.009,4.009,0,0,1,1.021,2.912,5.164,5.164,0,0,1-.451,2.368,3.2,3.2,0,0,1-1.314,1.34,3.831,3.831,0,0,1-1.884.478,3.509,3.509,0,0,1-2.648-1.05A4.2,4.2,0,0,1,488.267,384.79Zm1.359,0a3.322,3.322,0,0,0,.653,2.244,2.177,2.177,0,0,0,3.283,0,3.4,3.4,0,0,0,.653-2.284,3.222,3.222,0,0,0-.657-2.192,2.18,2.18,0,0,0-3.279,0A3.308,3.308,0,0,0,489.626,384.79Z" transform="translate(-5.926 -9.5)"/><path class="cls-6" d="M502.236,388.69v-1.146a2.856,2.856,0,0,1-2.476,1.322,3.165,3.165,0,0,1-1.289-.264,2.125,2.125,0,0,1-.889-.665,2.484,2.484,0,0,1-.407-.98,6.716,6.716,0,0,1-.081-1.234V380.89h1.322v4.326a7.619,7.619,0,0,0,.081,1.4,1.374,1.374,0,0,0,.528.819,1.637,1.637,0,0,0,1,.3,2.172,2.172,0,0,0,1.116-.305,1.694,1.694,0,0,0,.738-.83,4.161,4.161,0,0,0,.217-1.524V380.89h1.321v7.8Z" transform="translate(-5.926 -9.5)"/><path class="cls-6" d="M505.489,388.69v-7.8h1.19V382a2.8,2.8,0,0,1,2.482-1.285,3.256,3.256,0,0,1,1.3.253,2.038,2.038,0,0,1,.885.665,2.539,2.539,0,0,1,.411.977,7.593,7.593,0,0,1,.073,1.285v4.8h-1.321v-4.744a3.572,3.572,0,0,0-.154-1.208,1.271,1.271,0,0,0-.547-.639,1.742,1.742,0,0,0-.922-.239,2.14,2.14,0,0,0-1.458.536,2.643,2.643,0,0,0-.613,2.034v4.26Z" transform="translate(-5.926 -9.5)"/><path class="cls-6" d="M513.612,389.336l1.285.191a1.225,1.225,0,0,0,.448.867,2.2,2.2,0,0,0,1.344.367,2.363,2.363,0,0,0,1.418-.367,1.812,1.812,0,0,0,.676-1.028,8.483,8.483,0,0,0,.095-1.7,2.717,2.717,0,0,1-2.159,1.021,2.942,2.942,0,0,1-2.489-1.16,4.468,4.468,0,0,1-.882-2.784,5.178,5.178,0,0,1,.4-2.06,3.24,3.24,0,0,1,1.171-1.458,3.168,3.168,0,0,1,1.8-.514A2.8,2.8,0,0,1,519,381.831v-.94h1.22v6.742a6.4,6.4,0,0,1-.371,2.582,2.711,2.711,0,0,1-1.176,1.2,4.068,4.068,0,0,1-1.979.441,3.734,3.734,0,0,1-2.255-.628A2.123,2.123,0,0,1,513.612,389.336Zm1.095-4.686a3.385,3.385,0,0,0,.609,2.24,2.01,2.01,0,0,0,3.055,0,3.268,3.268,0,0,0,.617-2.2,3.2,3.2,0,0,0-.635-2.159,1.965,1.965,0,0,0-1.531-.727,1.91,1.91,0,0,0-1.5.716A3.181,3.181,0,0,0,514.707,384.65Z" transform="translate(-5.926 -9.5)"/><path class="cls-6" d="M527.56,386.178l1.365.169a3.331,3.331,0,0,1-1.2,1.858,4.055,4.055,0,0,1-4.946-.393,4.116,4.116,0,0,1-1-2.956,4.309,4.309,0,0,1,1.014-3.055,3.43,3.43,0,0,1,2.629-1.087,3.336,3.336,0,0,1,2.556,1.064,4.231,4.231,0,0,1,.992,3c0,.079,0,.2-.008.353h-5.816a3,3,0,0,0,.727,1.968,2.165,2.165,0,0,0,1.631.683,2.025,2.025,0,0,0,1.241-.382A2.538,2.538,0,0,0,527.56,386.178Zm-4.341-2.137h4.355a2.639,2.639,0,0,0-.5-1.476,2.025,2.025,0,0,0-1.638-.764,2.1,2.1,0,0,0-1.531.609A2.41,2.41,0,0,0,523.219,384.041Z" transform="translate(-5.926 -9.5)"/><path class="cls-6" d="M530.57,388.69v-7.8h1.19v1.183a3.207,3.207,0,0,1,.841-1.094,1.465,1.465,0,0,1,.848-.264,2.581,2.581,0,0,1,1.359.426l-.456,1.227a1.892,1.892,0,0,0-.969-.287,1.261,1.261,0,0,0-.779.261,1.413,1.413,0,0,0-.491.724,5.128,5.128,0,0,0-.221,1.542v4.083Z" transform="translate(-5.926 -9.5)"/><path class="cls-6" d="M535.939,388.69v-1.505h1.5v1.505a2.679,2.679,0,0,1-.293,1.34,1.917,1.917,0,0,1-.933.79l-.368-.565a1.255,1.255,0,0,0,.617-.54,2.291,2.291,0,0,0,.221-1.024Z" transform="translate(-5.926 -9.5)"/><path class="cls-6" d="M358.73,406.739H357.5V395.973h1.321v3.841a2.616,2.616,0,0,1,2.138-1.05,3.276,3.276,0,0,1,1.362.29,2.773,2.773,0,0,1,1.058.815,3.934,3.934,0,0,1,.649,1.267,5.2,5.2,0,0,1,.235,1.586,4.455,4.455,0,0,1-.991,3.1,3.1,3.1,0,0,1-2.38,1.094,2.483,2.483,0,0,1-2.166-1.152Zm-.015-3.959a4.045,4.045,0,0,0,.382,2.027,1.89,1.89,0,0,0,3.188.269,3.423,3.423,0,0,0,.631-2.244,3.479,3.479,0,0,0-.605-2.255,1.846,1.846,0,0,0-1.465-.727,1.9,1.9,0,0,0-1.5.753A3.3,3.3,0,0,0,358.716,402.78Z" transform="translate(-5.926 -9.5)"/><path class="cls-6" d="M370.988,406.739v-1.146a2.856,2.856,0,0,1-2.476,1.321,3.164,3.164,0,0,1-1.289-.264,2.133,2.133,0,0,1-.889-.665,2.487,2.487,0,0,1-.407-.98,6.721,6.721,0,0,1-.081-1.233v-4.833h1.322v4.326a7.625,7.625,0,0,0,.081,1.4,1.374,1.374,0,0,0,.528.818,1.64,1.64,0,0,0,1,.3,2.176,2.176,0,0,0,1.116-.3,1.7,1.7,0,0,0,.738-.83,4.163,4.163,0,0,0,.217-1.524v-4.179h1.321v7.8Z" transform="translate(-5.926 -9.5)"/><path class="cls-6" d="M377.128,405.557l.19,1.168a4.915,4.915,0,0,1-1,.117,2.269,2.269,0,0,1-1.117-.228,1.275,1.275,0,0,1-.558-.6,4.736,4.736,0,0,1-.162-1.561v-4.487h-.969v-1.028h.969v-1.932l1.315-.793v2.725h1.329v1.028H375.8v4.561a2.3,2.3,0,0,0,.069.728.551.551,0,0,0,.228.257.882.882,0,0,0,.452.1A4.334,4.334,0,0,0,377.128,405.557Z" transform="translate(-5.926 -9.5)"/><path class="cls-6" d="M382.569,406.739V395.973h1.322v10.767Z" transform="translate(-5.926 -9.5)"/><path class="cls-6" d="M391.28,404.228l1.365.169a3.336,3.336,0,0,1-1.2,1.858,3.6,3.6,0,0,1-2.233.66,3.564,3.564,0,0,1-2.713-1.054,4.114,4.114,0,0,1-1-2.956,4.309,4.309,0,0,1,1.014-3.055,3.43,3.43,0,0,1,2.629-1.087,3.334,3.334,0,0,1,2.556,1.064,4.232,4.232,0,0,1,.992,3c0,.078,0,.2-.008.353h-5.816a3,3,0,0,0,.727,1.968,2.167,2.167,0,0,0,1.631.683,2.022,2.022,0,0,0,1.241-.382A2.531,2.531,0,0,0,391.28,404.228Zm-4.341-2.137h4.355a2.64,2.64,0,0,0-.5-1.477,2.027,2.027,0,0,0-1.638-.764,2.1,2.1,0,0,0-1.531.609A2.411,2.411,0,0,0,386.939,402.091Z" transform="translate(-5.926 -9.5)"/><path class="cls-6" d="M393.777,404.411l1.307-.206a1.833,1.833,0,0,0,.613,1.205,2.139,2.139,0,0,0,1.407.418,2.065,2.065,0,0,0,1.351-.37,1.109,1.109,0,0,0,.441-.871.8.8,0,0,0-.39-.7,5.686,5.686,0,0,0-1.352-.448,12.349,12.349,0,0,1-2.016-.636A1.922,1.922,0,0,1,394,401.011a2.008,2.008,0,0,1,.239-.966,2.154,2.154,0,0,1,.649-.738,2.749,2.749,0,0,1,.841-.386,4.033,4.033,0,0,1,1.143-.157,4.526,4.526,0,0,1,1.612.264,2.2,2.2,0,0,1,1.024.717,2.8,2.8,0,0,1,.455,1.208l-1.293.176a1.411,1.411,0,0,0-.51-.939,1.867,1.867,0,0,0-1.193-.338,2.163,2.163,0,0,0-1.3.3.877.877,0,0,0-.39.705.73.73,0,0,0,.161.463,1.175,1.175,0,0,0,.507.353q.2.073,1.168.338a16.238,16.238,0,0,1,1.957.613,1.984,1.984,0,0,1,.87.693,1.936,1.936,0,0,1,.316,1.132,2.218,2.218,0,0,1-.386,1.244,2.489,2.489,0,0,1-1.112.9,4.055,4.055,0,0,1-1.646.319,3.667,3.667,0,0,1-2.317-.631A2.936,2.936,0,0,1,393.777,404.411Z" transform="translate(-5.926 -9.5)"/><path class="cls-6" d="M401.3,404.411l1.307-.206a1.833,1.833,0,0,0,.613,1.205,2.139,2.139,0,0,0,1.407.418,2.065,2.065,0,0,0,1.351-.37,1.109,1.109,0,0,0,.441-.871.8.8,0,0,0-.39-.7,5.686,5.686,0,0,0-1.352-.448,12.349,12.349,0,0,1-2.016-.636,1.922,1.922,0,0,1-1.143-1.788,2.008,2.008,0,0,1,.239-.966,2.154,2.154,0,0,1,.649-.738,2.749,2.749,0,0,1,.841-.386,4.033,4.033,0,0,1,1.143-.157,4.526,4.526,0,0,1,1.612.264,2.2,2.2,0,0,1,1.024.717,2.8,2.8,0,0,1,.455,1.208l-1.293.176a1.411,1.411,0,0,0-.51-.939,1.867,1.867,0,0,0-1.193-.338,2.163,2.163,0,0,0-1.3.3.877.877,0,0,0-.39.705.73.73,0,0,0,.161.463,1.175,1.175,0,0,0,.507.353q.2.073,1.168.338a16.238,16.238,0,0,1,1.957.613,1.984,1.984,0,0,1,.87.693,1.936,1.936,0,0,1,.316,1.132,2.218,2.218,0,0,1-.386,1.244,2.489,2.489,0,0,1-1.112.9,4.055,4.055,0,0,1-1.646.319,3.667,3.667,0,0,1-2.317-.631A2.936,2.936,0,0,1,401.3,404.411Z" transform="translate(-5.926 -9.5)"/><path class="cls-6" d="M416.412,405.557l.19,1.168a4.915,4.915,0,0,1-1,.117,2.269,2.269,0,0,1-1.117-.228,1.275,1.275,0,0,1-.558-.6,4.736,4.736,0,0,1-.162-1.561v-4.487H412.8v-1.028h.969v-1.932l1.315-.793v2.725h1.329v1.028h-1.329v4.561a2.3,2.3,0,0,0,.069.728.551.551,0,0,0,.228.257.882.882,0,0,0,.452.1A4.334,4.334,0,0,0,416.412,405.557Z" transform="translate(-5.926 -9.5)"/><path class="cls-6" d="M417.7,406.739V395.973h1.322v3.863a2.954,2.954,0,0,1,2.335-1.072,3.15,3.15,0,0,1,1.506.341,2.011,2.011,0,0,1,.914.944,4.351,4.351,0,0,1,.275,1.748v4.942h-1.321V401.8a2.043,2.043,0,0,0-.43-1.443,1.6,1.6,0,0,0-1.216-.452,2.147,2.147,0,0,0-1.105.306,1.719,1.719,0,0,0-.737.826,3.782,3.782,0,0,0-.221,1.439v4.267Z" transform="translate(-5.926 -9.5)"/><path class="cls-6" d="M431.159,405.777a4.907,4.907,0,0,1-1.414.881,4.074,4.074,0,0,1-1.458.257,2.836,2.836,0,0,1-1.976-.628,2.071,2.071,0,0,1-.689-1.6,2.13,2.13,0,0,1,.26-1.046,2.163,2.163,0,0,1,.684-.761,3.214,3.214,0,0,1,.951-.433,9.4,9.4,0,0,1,1.175-.2,12.016,12.016,0,0,0,2.357-.455c0-.181.008-.3.008-.345a1.459,1.459,0,0,0-.375-1.139,2.212,2.212,0,0,0-1.506-.448,2.338,2.338,0,0,0-1.377.327,2,2,0,0,0-.657,1.156l-1.292-.176a3.2,3.2,0,0,1,.58-1.341,2.539,2.539,0,0,1,1.168-.785,5.2,5.2,0,0,1,1.77-.275,4.7,4.7,0,0,1,1.623.234,2.149,2.149,0,0,1,.918.592,2.07,2.07,0,0,1,.411.9,7.45,7.45,0,0,1,.066,1.219v1.763a18.877,18.877,0,0,0,.084,2.332,2.936,2.936,0,0,0,.335.937h-1.381A2.788,2.788,0,0,1,431.159,405.777Zm-.11-2.952a9.7,9.7,0,0,1-2.159.5,4.957,4.957,0,0,0-1.153.265,1.155,1.155,0,0,0-.521.43,1.168,1.168,0,0,0,.217,1.509,1.722,1.722,0,0,0,1.172.353,2.727,2.727,0,0,0,1.358-.334,2.06,2.06,0,0,0,.874-.914,3.2,3.2,0,0,0,.213-1.322Z" transform="translate(-5.926 -9.5)"/><path class="cls-6" d="M434.434,406.739v-7.8h1.19v1.109a2.8,2.8,0,0,1,2.482-1.285,3.256,3.256,0,0,1,1.3.253,2.038,2.038,0,0,1,.885.665,2.542,2.542,0,0,1,.411.977,7.589,7.589,0,0,1,.073,1.285v4.8H439.45V402a3.565,3.565,0,0,0-.154-1.208,1.269,1.269,0,0,0-.547-.64,1.742,1.742,0,0,0-.922-.238,2.14,2.14,0,0,0-1.458.536,2.643,2.643,0,0,0-.613,2.034v4.26Z" transform="translate(-5.926 -9.5)"/><path class="cls-6" d="M446.485,402.84a4.019,4.019,0,0,1,1.205-3.21,3.632,3.632,0,0,1,2.453-.866,3.5,3.5,0,0,1,2.629,1.054,4.008,4.008,0,0,1,1.021,2.912,5.162,5.162,0,0,1-.451,2.368,3.2,3.2,0,0,1-1.314,1.341,3.83,3.83,0,0,1-1.884.477,3.508,3.508,0,0,1-2.648-1.05A4.2,4.2,0,0,1,446.485,402.84Zm1.359,0a3.323,3.323,0,0,0,.653,2.243,2.177,2.177,0,0,0,3.283,0,3.4,3.4,0,0,0,.653-2.284,3.22,3.22,0,0,0-.657-2.191,2.178,2.178,0,0,0-3.279,0A3.308,3.308,0,0,0,447.845,402.84Z" transform="translate(-5.926 -9.5)"/><path class="cls-6" d="M455.328,406.739v-7.8h1.19v1.183a3.22,3.22,0,0,1,.841-1.095,1.468,1.468,0,0,1,.848-.264,2.581,2.581,0,0,1,1.359.426l-.456,1.227a1.887,1.887,0,0,0-.969-.286,1.261,1.261,0,0,0-.779.261,1.411,1.411,0,0,0-.491.723,5.136,5.136,0,0,0-.221,1.543v4.083Z" transform="translate(-5.926 -9.5)"/><path class="cls-6" d="M469.87,404.228l1.365.169a3.336,3.336,0,0,1-1.2,1.858,3.6,3.6,0,0,1-2.233.66,3.564,3.564,0,0,1-2.713-1.054,4.114,4.114,0,0,1-1-2.956,4.309,4.309,0,0,1,1.014-3.055,3.43,3.43,0,0,1,2.629-1.087,3.334,3.334,0,0,1,2.556,1.064,4.232,4.232,0,0,1,.992,3c0,.078,0,.2-.008.353h-5.816a3,3,0,0,0,.727,1.968,2.167,2.167,0,0,0,1.631.683,2.022,2.022,0,0,0,1.241-.382A2.531,2.531,0,0,0,469.87,404.228Zm-4.341-2.137h4.355a2.64,2.64,0,0,0-.5-1.477,2.027,2.027,0,0,0-1.638-.764,2.1,2.1,0,0,0-1.531.609A2.411,2.411,0,0,0,465.529,402.091Z" transform="translate(-5.926 -9.5)"/><path class="cls-6" d="M477.868,409.729v-3.819a2.367,2.367,0,0,1-.863.72,2.528,2.528,0,0,1-1.179.286,3.115,3.115,0,0,1-2.391-1.108,4.369,4.369,0,0,1-1-3.041,5.217,5.217,0,0,1,.408-2.107,3.042,3.042,0,0,1,1.183-1.414,3.163,3.163,0,0,1,1.7-.48A2.613,2.613,0,0,1,478,399.982v-1.043h1.189v10.789Zm-4.076-6.911a3.443,3.443,0,0,0,.632,2.259,1.912,1.912,0,0,0,1.513.752,1.852,1.852,0,0,0,1.454-.716,3.3,3.3,0,0,0,.609-2.178,3.639,3.639,0,0,0-.643-2.343,1.906,1.906,0,0,0-1.509-.785,1.82,1.82,0,0,0-1.458.73A3.566,3.566,0,0,0,473.792,402.817Z" transform="translate(-5.926 -9.5)"/><path class="cls-6" d="M486.373,406.739v-1.146a2.856,2.856,0,0,1-2.476,1.321,3.164,3.164,0,0,1-1.289-.264,2.133,2.133,0,0,1-.889-.665,2.487,2.487,0,0,1-.407-.98,6.721,6.721,0,0,1-.081-1.233v-4.833h1.322v4.326a7.625,7.625,0,0,0,.081,1.4,1.374,1.374,0,0,0,.528.818,1.64,1.64,0,0,0,1,.3,2.176,2.176,0,0,0,1.116-.3,1.7,1.7,0,0,0,.738-.83,4.163,4.163,0,0,0,.217-1.524v-4.179h1.321v7.8Z" transform="translate(-5.926 -9.5)"/><path class="cls-6" d="M494.716,405.777a4.907,4.907,0,0,1-1.414.881,4.074,4.074,0,0,1-1.458.257,2.836,2.836,0,0,1-1.976-.628,2.071,2.071,0,0,1-.689-1.6,2.13,2.13,0,0,1,.26-1.046,2.163,2.163,0,0,1,.684-.761,3.214,3.214,0,0,1,.951-.433,9.4,9.4,0,0,1,1.175-.2,12.016,12.016,0,0,0,2.357-.455c0-.181.008-.3.008-.345a1.459,1.459,0,0,0-.375-1.139,2.212,2.212,0,0,0-1.506-.448,2.338,2.338,0,0,0-1.377.327,2,2,0,0,0-.657,1.156l-1.292-.176a3.2,3.2,0,0,1,.58-1.341,2.539,2.539,0,0,1,1.168-.785,5.2,5.2,0,0,1,1.77-.275,4.7,4.7,0,0,1,1.623.234,2.149,2.149,0,0,1,.918.592,2.07,2.07,0,0,1,.411.9,7.45,7.45,0,0,1,.066,1.219v1.763a18.877,18.877,0,0,0,.084,2.332,2.936,2.936,0,0,0,.335.937H494.98A2.788,2.788,0,0,1,494.716,405.777Zm-.11-2.952a9.7,9.7,0,0,1-2.159.5,4.957,4.957,0,0,0-1.153.265,1.155,1.155,0,0,0-.521.43,1.168,1.168,0,0,0,.217,1.509,1.722,1.722,0,0,0,1.172.353,2.727,2.727,0,0,0,1.358-.334,2.06,2.06,0,0,0,.874-.914,3.2,3.2,0,0,0,.213-1.322Z" transform="translate(-5.926 -9.5)"/><path class="cls-6" d="M497.962,406.739V395.973h1.322v10.767Z" transform="translate(-5.926 -9.5)"/><path class="cls-6" d="M508.4,405.557l.19,1.168a4.915,4.915,0,0,1-1,.117,2.269,2.269,0,0,1-1.117-.228,1.275,1.275,0,0,1-.558-.6,4.736,4.736,0,0,1-.162-1.561v-4.487h-.969v-1.028h.969v-1.932l1.315-.793v2.725H508.4v1.028h-1.329v4.561a2.3,2.3,0,0,0,.069.728.551.551,0,0,0,.228.257.882.882,0,0,0,.452.1A4.334,4.334,0,0,0,508.4,405.557Z" transform="translate(-5.926 -9.5)"/><path class="cls-6" d="M509.2,402.84a4.019,4.019,0,0,1,1.205-3.21,3.632,3.632,0,0,1,2.453-.866,3.5,3.5,0,0,1,2.629,1.054,4.008,4.008,0,0,1,1.021,2.912,5.162,5.162,0,0,1-.451,2.368,3.2,3.2,0,0,1-1.314,1.341,3.83,3.83,0,0,1-1.884.477,3.508,3.508,0,0,1-2.648-1.05A4.2,4.2,0,0,1,509.2,402.84Zm1.359,0a3.323,3.323,0,0,0,.653,2.243,2.177,2.177,0,0,0,3.283,0,3.4,3.4,0,0,0,.653-2.284,3.22,3.22,0,0,0-.657-2.191,2.178,2.178,0,0,0-3.279,0A3.308,3.308,0,0,0,510.558,402.84Z" transform="translate(-5.926 -9.5)"/><path class="cls-6" d="M364,416.658l-1.314.1a2.5,2.5,0,0,0-.5-1.131,1.749,1.749,0,0,0-1.322-.565,1.811,1.811,0,0,0-1.108.353,3,3,0,0,0-.984,1.329,6.942,6.942,0,0,0-.375,2.49,3.066,3.066,0,0,1,1.168-1.08,3.136,3.136,0,0,1,1.447-.353,3,3,0,0,1,2.251.973,3.5,3.5,0,0,1,.929,2.516,4.13,4.13,0,0,1-.437,1.884,3.185,3.185,0,0,1-1.2,1.333,3.279,3.279,0,0,1-1.733.463,3.387,3.387,0,0,1-2.7-1.216,6.134,6.134,0,0,1-1.043-4.006,7.184,7.184,0,0,1,1.153-4.539,3.316,3.316,0,0,1,2.71-1.233A2.882,2.882,0,0,1,364,416.658Zm-5.4,4.642a3.065,3.065,0,0,0,.29,1.307,2.157,2.157,0,0,0,.812.951,2.029,2.029,0,0,0,1.094.327,1.865,1.865,0,0,0,1.439-.676,2.66,2.66,0,0,0,.6-1.836,2.489,2.489,0,0,0-.595-1.759,1.954,1.954,0,0,0-1.5-.643,2.038,2.038,0,0,0-1.521.643A2.317,2.317,0,0,0,358.605,421.3Z" transform="translate(-5.926 -9.5)"/><path class="cls-6" d="M372.457,423.518v1.271H365.34a2.345,2.345,0,0,1,.154-.918,4.894,4.894,0,0,1,.87-1.433,13.71,13.71,0,0,1,1.729-1.63,14.7,14.7,0,0,0,2.373-2.28,2.73,2.73,0,0,0,.616-1.59,1.766,1.766,0,0,0-.562-1.326,2.03,2.03,0,0,0-1.465-.54,2.066,2.066,0,0,0-1.528.573,2.168,2.168,0,0,0-.58,1.586l-1.358-.139a3.346,3.346,0,0,1,1.05-2.317,3.584,3.584,0,0,1,2.446-.8,3.412,3.412,0,0,1,2.453.859,2.822,2.822,0,0,1,.9,2.13,3.239,3.239,0,0,1-.265,1.271,4.934,4.934,0,0,1-.878,1.314,21.4,21.4,0,0,1-2.038,1.895q-1.189,1-1.527,1.355a4.341,4.341,0,0,0-.559.716Z" transform="translate(-5.926 -9.5)"/><path class="cls-6" d="M383.032,424.788H381.71v-8.424a6.832,6.832,0,0,1-1.252.911,8.915,8.915,0,0,1-1.392.683V416.68A7.982,7.982,0,0,0,381,415.417a4.97,4.97,0,0,0,1.176-1.439h.852Z" transform="translate(-5.926 -9.5)"/><path class="cls-6" d="M385.794,424.972l3.121-11.134h1.058l-3.114,11.134Z" transform="translate(-5.926 -9.5)"/><path class="cls-6" d="M397.545,423.518v1.271h-7.117a2.345,2.345,0,0,1,.154-.918,4.894,4.894,0,0,1,.87-1.433,13.71,13.71,0,0,1,1.729-1.63,14.7,14.7,0,0,0,2.373-2.28,2.73,2.73,0,0,0,.616-1.59,1.766,1.766,0,0,0-.562-1.326,2.03,2.03,0,0,0-1.465-.54,2.066,2.066,0,0,0-1.528.573,2.168,2.168,0,0,0-.58,1.586l-1.358-.139a3.346,3.346,0,0,1,1.05-2.317,3.584,3.584,0,0,1,2.446-.8,3.412,3.412,0,0,1,2.453.859,2.822,2.822,0,0,1,.9,2.13,3.239,3.239,0,0,1-.265,1.271,4.934,4.934,0,0,1-.878,1.314,21.4,21.4,0,0,1-2.038,1.895q-1.189,1-1.527,1.355a4.341,4.341,0,0,0-.559.716Z" transform="translate(-5.926 -9.5)"/><path class="cls-6" d="M403.449,427.792l-.146-1.241a2.948,2.948,0,0,0,.756.117,1.453,1.453,0,0,0,.705-.146,1.2,1.2,0,0,0,.434-.411,6.609,6.609,0,0,0,.4-.984c.024-.073.063-.182.117-.323l-2.96-7.814h1.425l1.623,4.517q.316.86.565,1.807a17.917,17.917,0,0,1,.544-1.777l1.667-4.546h1.322l-2.968,7.932a15.688,15.688,0,0,1-.741,1.771,2.621,2.621,0,0,1-.808.958,1.91,1.91,0,0,1-1.088.3A2.656,2.656,0,0,1,403.449,427.792Z" transform="translate(-5.926 -9.5)"/><path class="cls-6" d="M416.368,422.276l1.365.169a3.336,3.336,0,0,1-1.2,1.858,3.6,3.6,0,0,1-2.233.66,3.564,3.564,0,0,1-2.713-1.054,4.114,4.114,0,0,1-1-2.956A4.309,4.309,0,0,1,411.6,417.9a3.43,3.43,0,0,1,2.629-1.087,3.334,3.334,0,0,1,2.556,1.064,4.232,4.232,0,0,1,.992,3c0,.078,0,.2-.008.353h-5.816a3,3,0,0,0,.727,1.968,2.167,2.167,0,0,0,1.631.683,2.022,2.022,0,0,0,1.241-.382A2.531,2.531,0,0,0,416.368,422.276Zm-4.341-2.137h4.355a2.64,2.64,0,0,0-.5-1.477,2.027,2.027,0,0,0-1.638-.764,2.1,2.1,0,0,0-1.531.609A2.411,2.411,0,0,0,412.027,420.14Z" transform="translate(-5.926 -9.5)"/><path class="cls-6" d="M424.483,423.826a4.907,4.907,0,0,1-1.414.881,4.074,4.074,0,0,1-1.458.257,2.836,2.836,0,0,1-1.976-.628,2.071,2.071,0,0,1-.689-1.6,2.13,2.13,0,0,1,.26-1.046,2.163,2.163,0,0,1,.684-.761,3.214,3.214,0,0,1,.951-.433,9.4,9.4,0,0,1,1.175-.2,12.016,12.016,0,0,0,2.357-.455c0-.181.008-.3.008-.345a1.459,1.459,0,0,0-.375-1.139,2.212,2.212,0,0,0-1.506-.448,2.338,2.338,0,0,0-1.377.327,2,2,0,0,0-.657,1.156l-1.292-.176a3.2,3.2,0,0,1,.58-1.341,2.539,2.539,0,0,1,1.168-.785,5.2,5.2,0,0,1,1.77-.275,4.7,4.7,0,0,1,1.623.234,2.149,2.149,0,0,1,.918.592,2.07,2.07,0,0,1,.411.9,7.45,7.45,0,0,1,.066,1.219v1.763a18.877,18.877,0,0,0,.084,2.332,2.936,2.936,0,0,0,.335.937h-1.381A2.788,2.788,0,0,1,424.483,423.826Zm-.11-2.952a9.7,9.7,0,0,1-2.159.5,4.957,4.957,0,0,0-1.153.265,1.155,1.155,0,0,0-.521.43,1.168,1.168,0,0,0,.217,1.509,1.722,1.722,0,0,0,1.172.353,2.727,2.727,0,0,0,1.358-.334,2.06,2.06,0,0,0,.874-.914,3.2,3.2,0,0,0,.213-1.322Z" transform="translate(-5.926 -9.5)"/><path class="cls-6" d="M427.743,424.788v-7.8h1.19v1.183a3.22,3.22,0,0,1,.841-1.095,1.468,1.468,0,0,1,.848-.264,2.581,2.581,0,0,1,1.359.426l-.456,1.227a1.887,1.887,0,0,0-.969-.286,1.261,1.261,0,0,0-.779.261,1.411,1.411,0,0,0-.491.723,5.136,5.136,0,0,0-.221,1.543v4.083Z" transform="translate(-5.926 -9.5)"/><path class="cls-6" d="M432.238,422.46l1.307-.206a1.833,1.833,0,0,0,.613,1.205,2.139,2.139,0,0,0,1.407.418,2.065,2.065,0,0,0,1.351-.37,1.109,1.109,0,0,0,.441-.871.8.8,0,0,0-.39-.7,5.686,5.686,0,0,0-1.352-.448,12.349,12.349,0,0,1-2.016-.636,1.922,1.922,0,0,1-1.143-1.788,2.008,2.008,0,0,1,.239-.966,2.154,2.154,0,0,1,.649-.738,2.749,2.749,0,0,1,.841-.386,4.033,4.033,0,0,1,1.143-.157,4.526,4.526,0,0,1,1.612.264,2.2,2.2,0,0,1,1.024.717,2.8,2.8,0,0,1,.455,1.208l-1.293.176a1.411,1.411,0,0,0-.51-.939,1.867,1.867,0,0,0-1.193-.338,2.163,2.163,0,0,0-1.3.3.877.877,0,0,0-.39.705.73.73,0,0,0,.161.463,1.175,1.175,0,0,0,.507.353q.2.073,1.168.338a16.238,16.238,0,0,1,1.957.613,1.984,1.984,0,0,1,.87.693,1.936,1.936,0,0,1,.316,1.132,2.218,2.218,0,0,1-.386,1.244,2.489,2.489,0,0,1-1.112.9,4.055,4.055,0,0,1-1.646.319,3.667,3.667,0,0,1-2.317-.631A2.936,2.936,0,0,1,432.238,422.46Z" transform="translate(-5.926 -9.5)"/><path class="cls-6" d="M444.407,427.792l-.146-1.241a2.948,2.948,0,0,0,.756.117,1.453,1.453,0,0,0,.705-.146,1.2,1.2,0,0,0,.434-.411,6.609,6.609,0,0,0,.4-.984c.024-.073.063-.182.117-.323l-2.96-7.814h1.425l1.623,4.517q.316.86.565,1.807a17.917,17.917,0,0,1,.544-1.777l1.667-4.546h1.322L447.9,424.92a15.688,15.688,0,0,1-.741,1.771,2.621,2.621,0,0,1-.808.958,1.91,1.91,0,0,1-1.088.3A2.656,2.656,0,0,1,444.407,427.792Z" transform="translate(-5.926 -9.5)"/><path class="cls-6" d="M451.494,420.889a4.019,4.019,0,0,1,1.205-3.21,3.632,3.632,0,0,1,2.453-.866,3.5,3.5,0,0,1,2.629,1.054,4.008,4.008,0,0,1,1.021,2.912,5.162,5.162,0,0,1-.451,2.368,3.2,3.2,0,0,1-1.314,1.341,3.83,3.83,0,0,1-1.884.477,3.508,3.508,0,0,1-2.648-1.05A4.2,4.2,0,0,1,451.494,420.889Zm1.359,0a3.323,3.323,0,0,0,.653,2.243,2.177,2.177,0,0,0,3.283,0,3.4,3.4,0,0,0,.653-2.284,3.22,3.22,0,0,0-.657-2.191,2.178,2.178,0,0,0-3.279,0A3.308,3.308,0,0,0,452.854,420.889Z" transform="translate(-5.926 -9.5)"/><path class="cls-6" d="M465.464,424.788v-1.146a2.856,2.856,0,0,1-2.476,1.321,3.164,3.164,0,0,1-1.289-.264,2.133,2.133,0,0,1-.889-.665,2.487,2.487,0,0,1-.407-.98,6.721,6.721,0,0,1-.081-1.233v-4.833h1.322v4.326a7.625,7.625,0,0,0,.081,1.4,1.374,1.374,0,0,0,.528.818,1.64,1.64,0,0,0,1,.3,2.176,2.176,0,0,0,1.116-.3,1.7,1.7,0,0,0,.738-.83,4.163,4.163,0,0,0,.217-1.524v-4.179h1.321v7.8Z" transform="translate(-5.926 -9.5)"/><path class="cls-6" d="M468.717,424.788v-7.8h1.19V418.1a2.8,2.8,0,0,1,2.482-1.285,3.256,3.256,0,0,1,1.3.253,2.038,2.038,0,0,1,.885.665,2.542,2.542,0,0,1,.411.977,7.589,7.589,0,0,1,.073,1.285v4.8h-1.321v-4.744a3.565,3.565,0,0,0-.154-1.208,1.269,1.269,0,0,0-.547-.64,1.742,1.742,0,0,0-.922-.238,2.14,2.14,0,0,0-1.458.536,2.643,2.643,0,0,0-.613,2.034v4.26Z" transform="translate(-5.926 -9.5)"/><path class="cls-6" d="M476.84,425.435l1.285.19a1.226,1.226,0,0,0,.448.867,2.206,2.206,0,0,0,1.344.367,2.366,2.366,0,0,0,1.418-.367,1.812,1.812,0,0,0,.676-1.028,8.48,8.48,0,0,0,.095-1.7,2.717,2.717,0,0,1-2.159,1.021,2.942,2.942,0,0,1-2.489-1.16,4.467,4.467,0,0,1-.882-2.784,5.174,5.174,0,0,1,.4-2.06,3.24,3.24,0,0,1,1.171-1.458,3.165,3.165,0,0,1,1.8-.514,2.8,2.8,0,0,1,2.276,1.116v-.94h1.22v6.742a6.4,6.4,0,0,1-.371,2.582,2.717,2.717,0,0,1-1.176,1.2,4.068,4.068,0,0,1-1.979.44,3.731,3.731,0,0,1-2.255-.628A2.121,2.121,0,0,1,476.84,425.435Zm1.095-4.686a3.381,3.381,0,0,0,.609,2.239,2.01,2.01,0,0,0,3.055,0,3.266,3.266,0,0,0,.617-2.2,3.2,3.2,0,0,0-.635-2.159,1.964,1.964,0,0,0-1.531-.728,1.911,1.911,0,0,0-1.5.717A3.178,3.178,0,0,0,477.935,420.749Z" transform="translate(-5.926 -9.5)"/><path class="cls-6" d="M490.787,422.276l1.365.169a3.336,3.336,0,0,1-1.2,1.858,3.6,3.6,0,0,1-2.233.66,3.564,3.564,0,0,1-2.713-1.054,4.114,4.114,0,0,1-1-2.956,4.309,4.309,0,0,1,1.014-3.055,3.43,3.43,0,0,1,2.629-1.087,3.334,3.334,0,0,1,2.556,1.064,4.232,4.232,0,0,1,.992,3c0,.078,0,.2-.008.353h-5.816a3,3,0,0,0,.727,1.968,2.167,2.167,0,0,0,1.631.683,2.022,2.022,0,0,0,1.241-.382A2.531,2.531,0,0,0,490.787,422.276Zm-4.341-2.137H490.8a2.64,2.64,0,0,0-.5-1.477,2.027,2.027,0,0,0-1.638-.764,2.1,2.1,0,0,0-1.531.609A2.411,2.411,0,0,0,486.446,420.14Z" transform="translate(-5.926 -9.5)"/><path class="cls-6" d="M493.8,424.788v-7.8h1.19v1.183a3.22,3.22,0,0,1,.841-1.095,1.468,1.468,0,0,1,.848-.264,2.581,2.581,0,0,1,1.359.426l-.456,1.227a1.887,1.887,0,0,0-.969-.286,1.261,1.261,0,0,0-.779.261,1.411,1.411,0,0,0-.491.723,5.136,5.136,0,0,0-.221,1.543v4.083Z" transform="translate(-5.926 -9.5)"/><line class="cls-8" x1="242.236" y1="94.013" x2="334.941" y2="319.57"/><polygon class="cls-9" points="342.252 337.582 316.937 327.85 351.652 312.142 342.252 337.582"/><path class="cls-11" d="M23.284,70.539l1.344-.118a2.968,2.968,0,0,0,.444,1.326,2.427,2.427,0,0,0,1.083.837,4.1,4.1,0,0,0,1.652.319,3.968,3.968,0,0,0,1.439-.242A2,2,0,0,0,30.176,72a1.54,1.54,0,0,0,.3-.921,1.4,1.4,0,0,0-.294-.885,2.178,2.178,0,0,0-.969-.635,19.013,19.013,0,0,0-1.917-.525,9.79,9.79,0,0,1-2.078-.672,2.912,2.912,0,0,1-1.149-1,2.454,2.454,0,0,1-.378-1.34,2.736,2.736,0,0,1,.463-1.524,2.864,2.864,0,0,1,1.351-1.076,5.129,5.129,0,0,1,1.976-.367,5.391,5.391,0,0,1,2.111.386A3.045,3.045,0,0,1,31,64.567a3.263,3.263,0,0,1,.529,1.7l-1.366.1a2.2,2.2,0,0,0-.746-1.542,2.9,2.9,0,0,0-1.876-.521,3.01,3.01,0,0,0-1.884.474,1.42,1.42,0,0,0-.591,1.142,1.225,1.225,0,0,0,.418.955,5.664,5.664,0,0,0,2.148.768,14.237,14.237,0,0,1,2.383.687,3.267,3.267,0,0,1,1.388,1.1,2.675,2.675,0,0,1,.448,1.531,2.929,2.929,0,0,1-.492,1.62,3.24,3.24,0,0,1-1.414,1.182,4.92,4.92,0,0,1-2.075.422,6.2,6.2,0,0,1-2.449-.426,3.431,3.431,0,0,1-1.549-1.282A3.629,3.629,0,0,1,23.284,70.539Z" transform="translate(-5.926 -9.5)"/><path class="cls-11" d="M38.721,73.036a4.931,4.931,0,0,1-1.414.881,4.1,4.1,0,0,1-1.458.257,2.836,2.836,0,0,1-1.976-.628,2.072,2.072,0,0,1-.69-1.6,2.134,2.134,0,0,1,.261-1.047,2.16,2.16,0,0,1,.683-.76,3.215,3.215,0,0,1,.951-.433,9.436,9.436,0,0,1,1.175-.2,12.09,12.09,0,0,0,2.357-.456q.007-.271.007-.345a1.459,1.459,0,0,0-.375-1.138,2.214,2.214,0,0,0-1.505-.448,2.334,2.334,0,0,0-1.377.327A1.994,1.994,0,0,0,34.7,68.6l-1.293-.176a3.2,3.2,0,0,1,.581-1.34,2.54,2.54,0,0,1,1.167-.786,5.209,5.209,0,0,1,1.77-.275,4.684,4.684,0,0,1,1.623.235,2.137,2.137,0,0,1,.918.591,2.075,2.075,0,0,1,.411.9,7.392,7.392,0,0,1,.066,1.219v1.763a18.627,18.627,0,0,0,.084,2.332,2.938,2.938,0,0,0,.334.937H38.985A2.806,2.806,0,0,1,38.721,73.036Zm-.11-2.953a9.711,9.711,0,0,1-2.159.5,5,5,0,0,0-1.153.264,1.148,1.148,0,0,0-.521.43,1.168,1.168,0,0,0,.217,1.509,1.72,1.72,0,0,0,1.171.353,2.727,2.727,0,0,0,1.358-.334,2.059,2.059,0,0,0,.874-.915,3.19,3.19,0,0,0,.213-1.322Z" transform="translate(-5.926 -9.5)"/><path class="cls-11" d="M42,74V66.2h1.182v1.095a2.772,2.772,0,0,1,.977-.922,2.744,2.744,0,0,1,1.388-.349,2.564,2.564,0,0,1,1.421.36,1.926,1.926,0,0,1,.782,1.006,2.8,2.8,0,0,1,2.409-1.366,2.373,2.373,0,0,1,1.785.643,2.746,2.746,0,0,1,.624,1.979V74H51.25V69.084a3.625,3.625,0,0,0-.128-1.142,1.109,1.109,0,0,0-.466-.562,1.456,1.456,0,0,0-.793-.213,1.847,1.847,0,0,0-1.366.547,2.411,2.411,0,0,0-.543,1.752V74H46.631V68.93a2.231,2.231,0,0,0-.323-1.322,1.225,1.225,0,0,0-1.058-.44,1.923,1.923,0,0,0-1.032.294,1.667,1.667,0,0,0-.687.859,4.838,4.838,0,0,0-.213,1.63V74Z" transform="translate(-5.926 -9.5)"/><path class="cls-11" d="M59.865,71.486l1.366.169a3.333,3.333,0,0,1-1.2,1.858,4.055,4.055,0,0,1-4.946-.393,4.118,4.118,0,0,1-1-2.956A4.309,4.309,0,0,1,55.1,67.109a3.429,3.429,0,0,1,2.629-1.087,3.337,3.337,0,0,1,2.556,1.064,4.233,4.233,0,0,1,.991,3c0,.079,0,.2-.007.353H55.451a2.994,2.994,0,0,0,.727,1.968,2.163,2.163,0,0,0,1.63.683,2.024,2.024,0,0,0,1.241-.382A2.534,2.534,0,0,0,59.865,71.486Zm-4.34-2.137h4.355a2.642,2.642,0,0,0-.5-1.476,2.027,2.027,0,0,0-1.638-.764,2.1,2.1,0,0,0-1.531.609A2.412,2.412,0,0,0,55.524,69.349Z" transform="translate(-5.926 -9.5)"/><path class="cls-11" d="M28.807,87.824V86.561l4.561-.007v4A8.048,8.048,0,0,1,31.2,91.808a6.422,6.422,0,0,1-2.292.422,6.115,6.115,0,0,1-2.882-.679,4.494,4.494,0,0,1-1.958-1.965,6.187,6.187,0,0,1-.661-2.872,6.663,6.663,0,0,1,.658-2.934,4.367,4.367,0,0,1,1.891-2.023A5.923,5.923,0,0,1,28.8,81.1a5.626,5.626,0,0,1,2.111.378,3.5,3.5,0,0,1,1.48,1.054,4.684,4.684,0,0,1,.815,1.763l-1.285.353a3.986,3.986,0,0,0-.6-1.293A2.477,2.477,0,0,0,30.29,82.6a3.771,3.771,0,0,0-1.483-.283,4.371,4.371,0,0,0-1.689.3,3.151,3.151,0,0,0-1.149.782,3.74,3.74,0,0,0-.679,1.065,5.628,5.628,0,0,0-.411,2.167,5.255,5.255,0,0,0,.5,2.409,3.171,3.171,0,0,0,1.443,1.439,4.469,4.469,0,0,0,2.013.47,4.775,4.775,0,0,0,1.807-.356,4.667,4.667,0,0,0,1.336-.76V87.824Z" transform="translate(-5.926 -9.5)"/><path class="cls-11" d="M40.638,89.535,42,89.7a3.333,3.333,0,0,1-1.2,1.858,4.055,4.055,0,0,1-4.946-.393,4.118,4.118,0,0,1-1-2.956,4.309,4.309,0,0,1,1.014-3.055A3.429,3.429,0,0,1,38.5,84.071a3.337,3.337,0,0,1,2.556,1.064,4.233,4.233,0,0,1,.991,3c0,.079,0,.2-.007.353H36.224a2.994,2.994,0,0,0,.727,1.968,2.163,2.163,0,0,0,1.63.683,2.024,2.024,0,0,0,1.241-.382A2.534,2.534,0,0,0,40.638,89.535ZM36.3,87.4h4.355a2.642,2.642,0,0,0-.5-1.476,2.027,2.027,0,0,0-1.638-.764,2.1,2.1,0,0,0-1.531.609A2.412,2.412,0,0,0,36.3,87.4Z" transform="translate(-5.926 -9.5)"/><path class="cls-11" d="M43.664,92.047v-7.8h1.189v1.109a2.8,2.8,0,0,1,2.482-1.285,3.257,3.257,0,0,1,1.3.253,2.038,2.038,0,0,1,.885.665,2.546,2.546,0,0,1,.411.977A7.526,7.526,0,0,1,50,87.251v4.8H48.68V87.3a3.572,3.572,0,0,0-.154-1.208,1.274,1.274,0,0,0-.547-.639,1.74,1.74,0,0,0-.922-.239,2.141,2.141,0,0,0-1.458.536,2.643,2.643,0,0,0-.613,2.034v4.26Z" transform="translate(-5.926 -9.5)"/><path class="cls-11" d="M57.368,89.535l1.366.169a3.333,3.333,0,0,1-1.2,1.858,4.055,4.055,0,0,1-4.946-.393,4.118,4.118,0,0,1-1-2.956A4.309,4.309,0,0,1,52.6,85.158a3.429,3.429,0,0,1,2.629-1.087,3.337,3.337,0,0,1,2.556,1.064,4.233,4.233,0,0,1,.991,3c0,.079,0,.2-.007.353H52.955a2.994,2.994,0,0,0,.727,1.968,2.163,2.163,0,0,0,1.63.683,2.024,2.024,0,0,0,1.241-.382A2.534,2.534,0,0,0,57.368,89.535ZM53.028,87.4h4.355a2.642,2.642,0,0,0-.5-1.476,2.027,2.027,0,0,0-1.638-.764,2.1,2.1,0,0,0-1.531.609A2.412,2.412,0,0,0,53.028,87.4Z" transform="translate(-5.926 -9.5)"/><path class="cls-11" d="M60.379,92.047v-7.8h1.19V85.43a3.231,3.231,0,0,1,.841-1.094,1.469,1.469,0,0,1,.849-.264,2.577,2.577,0,0,1,1.358.426l-.455,1.227a1.893,1.893,0,0,0-.97-.287,1.258,1.258,0,0,0-.778.261,1.412,1.412,0,0,0-.492.724,5.143,5.143,0,0,0-.22,1.542v4.083Z" transform="translate(-5.926 -9.5)"/><path class="cls-11" d="M70.492,91.085a4.931,4.931,0,0,1-1.414.881,4.1,4.1,0,0,1-1.458.257,2.836,2.836,0,0,1-1.976-.628,2.072,2.072,0,0,1-.69-1.6,2.134,2.134,0,0,1,.261-1.047,2.16,2.16,0,0,1,.683-.76,3.215,3.215,0,0,1,.951-.433,9.436,9.436,0,0,1,1.175-.2,12.09,12.09,0,0,0,2.357-.456q.007-.271.007-.345a1.459,1.459,0,0,0-.375-1.138,2.214,2.214,0,0,0-1.505-.448,2.334,2.334,0,0,0-1.377.327,1.994,1.994,0,0,0-.657,1.157l-1.293-.176a3.2,3.2,0,0,1,.581-1.34,2.54,2.54,0,0,1,1.167-.786,5.209,5.209,0,0,1,1.77-.275,4.684,4.684,0,0,1,1.623.235,2.137,2.137,0,0,1,.918.591,2.075,2.075,0,0,1,.411.9,7.392,7.392,0,0,1,.066,1.219v1.763A18.627,18.627,0,0,0,71.8,91.11a2.938,2.938,0,0,0,.334.937H70.756A2.806,2.806,0,0,1,70.492,91.085Zm-.11-2.953a9.711,9.711,0,0,1-2.159.5,5,5,0,0,0-1.153.264,1.148,1.148,0,0,0-.521.43,1.168,1.168,0,0,0,.217,1.509,1.72,1.72,0,0,0,1.171.353,2.727,2.727,0,0,0,1.358-.334,2.059,2.059,0,0,0,.874-.915,3.19,3.19,0,0,0,.213-1.322Z" transform="translate(-5.926 -9.5)"/><path class="cls-11" d="M76.654,90.864l.191,1.168a4.92,4.92,0,0,1-1,.118,2.259,2.259,0,0,1-1.116-.228,1.269,1.269,0,0,1-.558-.6,4.725,4.725,0,0,1-.162-1.561V85.275h-.97V84.247h.97V82.316l1.314-.793v2.725h1.33v1.028h-1.33v4.561a2.308,2.308,0,0,0,.07.727.551.551,0,0,0,.228.257.877.877,0,0,0,.452.1A4.253,4.253,0,0,0,76.654,90.864Z" transform="translate(-5.926 -9.5)"/><path class="cls-11" d="M77.954,82.8V81.28h1.322V82.8Zm0,9.247v-7.8h1.322v7.8Z" transform="translate(-5.926 -9.5)"/><path class="cls-11" d="M80.8,88.147A4.02,4.02,0,0,1,82,84.938a3.628,3.628,0,0,1,2.453-.866,3.5,3.5,0,0,1,2.629,1.054A4.012,4.012,0,0,1,88.1,88.037a5.163,5.163,0,0,1-.452,2.368,3.2,3.2,0,0,1-1.315,1.34,3.826,3.826,0,0,1-1.884.478,3.506,3.506,0,0,1-2.647-1.05A4.194,4.194,0,0,1,80.8,88.147Zm1.358,0a3.32,3.32,0,0,0,.654,2.244,2.176,2.176,0,0,0,3.283,0,3.4,3.4,0,0,0,.654-2.284,3.224,3.224,0,0,0-.657-2.192,2.18,2.18,0,0,0-3.279,0A3.306,3.306,0,0,0,82.155,88.147Z" transform="translate(-5.926 -9.5)"/><path class="cls-11" d="M89.653,92.047v-7.8h1.189v1.109a2.8,2.8,0,0,1,2.482-1.285,3.257,3.257,0,0,1,1.3.253,2.038,2.038,0,0,1,.885.665,2.546,2.546,0,0,1,.411.977,7.526,7.526,0,0,1,.074,1.285v4.8H94.669V87.3a3.572,3.572,0,0,0-.154-1.208,1.274,1.274,0,0,0-.547-.639,1.74,1.74,0,0,0-.922-.239,2.141,2.141,0,0,0-1.458.536,2.643,2.643,0,0,0-.613,2.034v4.26Z" transform="translate(-5.926 -9.5)"/><path class="cls-11" d="M23.753,243.184V232.417h1.462l5.655,8.453v-8.453h1.366v10.767H30.775l-5.655-8.46v8.46Z" transform="translate(-5.926 -9.5)"/><path class="cls-11" d="M39.8,240.672l1.366.169a3.333,3.333,0,0,1-1.2,1.858,4.055,4.055,0,0,1-4.946-.393,4.118,4.118,0,0,1-1-2.956,4.309,4.309,0,0,1,1.014-3.055,3.429,3.429,0,0,1,2.629-1.087,3.337,3.337,0,0,1,2.556,1.064,4.233,4.233,0,0,1,.991,3c0,.079,0,.2-.007.353H35.387a2.994,2.994,0,0,0,.727,1.968,2.163,2.163,0,0,0,1.63.683,2.024,2.024,0,0,0,1.241-.382A2.534,2.534,0,0,0,39.8,240.672Zm-4.34-2.137h4.355a2.642,2.642,0,0,0-.5-1.476,2.027,2.027,0,0,0-1.638-.764,2.1,2.1,0,0,0-1.531.609A2.412,2.412,0,0,0,35.46,238.535Z" transform="translate(-5.926 -9.5)"/><path class="cls-11" d="M41.945,243.184l2.85-4.054-2.637-3.746h1.652l1.2,1.829q.338.521.543.874.323-.485.595-.859l1.314-1.844H49.04l-2.7,3.672,2.9,4.127H47.622l-1.6-2.424-.426-.653-2.049,3.077Z" transform="translate(-5.926 -9.5)"/><path class="cls-11" d="M53.233,242l.191,1.168a4.92,4.92,0,0,1-1,.118,2.259,2.259,0,0,1-1.116-.228,1.269,1.269,0,0,1-.558-.6,4.725,4.725,0,0,1-.162-1.561v-4.487h-.97v-1.028h.97v-1.931l1.314-.793v2.725h1.33v1.028H51.9v4.561a2.308,2.308,0,0,0,.07.727.551.551,0,0,0,.228.257.877.877,0,0,0,.452.1A4.253,4.253,0,0,0,53.233,242Z" transform="translate(-5.926 -9.5)"/><path class="cls-11" d="M28.807,257.01v-1.263l4.561-.007v4a8.048,8.048,0,0,1-2.167,1.259,6.422,6.422,0,0,1-2.292.422,6.115,6.115,0,0,1-2.882-.679,4.494,4.494,0,0,1-1.958-1.965,6.187,6.187,0,0,1-.661-2.872,6.663,6.663,0,0,1,.658-2.934,4.367,4.367,0,0,1,1.891-2.023,5.923,5.923,0,0,1,2.842-.661,5.626,5.626,0,0,1,2.111.378,3.5,3.5,0,0,1,1.48,1.054,4.684,4.684,0,0,1,.815,1.763l-1.285.353a3.986,3.986,0,0,0-.6-1.293,2.477,2.477,0,0,0-1.028-.752,3.771,3.771,0,0,0-1.483-.283,4.371,4.371,0,0,0-1.689.3,3.151,3.151,0,0,0-1.149.782,3.74,3.74,0,0,0-.679,1.065,5.628,5.628,0,0,0-.411,2.167,5.255,5.255,0,0,0,.5,2.409,3.171,3.171,0,0,0,1.443,1.439,4.469,4.469,0,0,0,2.013.47,4.775,4.775,0,0,0,1.807-.356,4.667,4.667,0,0,0,1.336-.76V257.01Z" transform="translate(-5.926 -9.5)"/><path class="cls-11" d="M40.638,258.722l1.366.169a3.333,3.333,0,0,1-1.2,1.858,4.055,4.055,0,0,1-4.946-.393,4.118,4.118,0,0,1-1-2.956,4.309,4.309,0,0,1,1.014-3.055,3.429,3.429,0,0,1,2.629-1.087,3.337,3.337,0,0,1,2.556,1.064,4.233,4.233,0,0,1,.991,3c0,.079,0,.2-.007.353H36.224a2.994,2.994,0,0,0,.727,1.968,2.163,2.163,0,0,0,1.63.683,2.024,2.024,0,0,0,1.241-.382A2.534,2.534,0,0,0,40.638,258.722Zm-4.34-2.137h4.355a2.642,2.642,0,0,0-.5-1.476,2.027,2.027,0,0,0-1.638-.764,2.1,2.1,0,0,0-1.531.609A2.412,2.412,0,0,0,36.3,256.584Z" transform="translate(-5.926 -9.5)"/><path class="cls-11" d="M43.664,261.233v-7.8h1.189v1.109a2.8,2.8,0,0,1,2.482-1.285,3.257,3.257,0,0,1,1.3.253,2.038,2.038,0,0,1,.885.665,2.546,2.546,0,0,1,.411.977A7.526,7.526,0,0,1,50,256.438v4.8H48.68v-4.744a3.572,3.572,0,0,0-.154-1.208,1.274,1.274,0,0,0-.547-.639,1.74,1.74,0,0,0-.922-.239,2.141,2.141,0,0,0-1.458.536,2.643,2.643,0,0,0-.613,2.034v4.26Z" transform="translate(-5.926 -9.5)"/><path class="cls-11" d="M57.368,258.722l1.366.169a3.333,3.333,0,0,1-1.2,1.858,4.055,4.055,0,0,1-4.946-.393,4.118,4.118,0,0,1-1-2.956,4.309,4.309,0,0,1,1.014-3.055,3.429,3.429,0,0,1,2.629-1.087,3.337,3.337,0,0,1,2.556,1.064,4.233,4.233,0,0,1,.991,3c0,.079,0,.2-.007.353H52.955a2.994,2.994,0,0,0,.727,1.968,2.163,2.163,0,0,0,1.63.683,2.024,2.024,0,0,0,1.241-.382A2.534,2.534,0,0,0,57.368,258.722Zm-4.34-2.137h4.355a2.642,2.642,0,0,0-.5-1.476,2.027,2.027,0,0,0-1.638-.764,2.1,2.1,0,0,0-1.531.609A2.412,2.412,0,0,0,53.028,256.584Z" transform="translate(-5.926 -9.5)"/><path class="cls-11" d="M60.379,261.233v-7.8h1.19v1.183a3.231,3.231,0,0,1,.841-1.094,1.469,1.469,0,0,1,.849-.264,2.577,2.577,0,0,1,1.358.426l-.455,1.227a1.893,1.893,0,0,0-.97-.287,1.258,1.258,0,0,0-.778.261,1.412,1.412,0,0,0-.492.724,5.143,5.143,0,0,0-.22,1.542v4.083Z" transform="translate(-5.926 -9.5)"/><path class="cls-11" d="M70.492,260.271a4.931,4.931,0,0,1-1.414.881,4.1,4.1,0,0,1-1.458.257,2.836,2.836,0,0,1-1.976-.628,2.072,2.072,0,0,1-.69-1.6,2.134,2.134,0,0,1,.261-1.047,2.16,2.16,0,0,1,.683-.76,3.215,3.215,0,0,1,.951-.433,9.436,9.436,0,0,1,1.175-.2,12.09,12.09,0,0,0,2.357-.456q.007-.271.007-.345a1.459,1.459,0,0,0-.375-1.138,2.214,2.214,0,0,0-1.505-.448,2.334,2.334,0,0,0-1.377.327,1.994,1.994,0,0,0-.657,1.157l-1.293-.176a3.2,3.2,0,0,1,.581-1.34,2.54,2.54,0,0,1,1.167-.786,5.209,5.209,0,0,1,1.77-.275,4.684,4.684,0,0,1,1.623.235,2.137,2.137,0,0,1,.918.591,2.075,2.075,0,0,1,.411.9,7.392,7.392,0,0,1,.066,1.219v1.763A18.627,18.627,0,0,0,71.8,260.3a2.938,2.938,0,0,0,.334.937H70.756A2.806,2.806,0,0,1,70.492,260.271Zm-.11-2.953a9.711,9.711,0,0,1-2.159.5,5,5,0,0,0-1.153.264,1.148,1.148,0,0,0-.521.43,1.168,1.168,0,0,0,.217,1.509,1.72,1.72,0,0,0,1.171.353,2.727,2.727,0,0,0,1.358-.334,2.059,2.059,0,0,0,.874-.915,3.19,3.19,0,0,0,.213-1.322Z" transform="translate(-5.926 -9.5)"/><path class="cls-11" d="M76.654,260.051l.191,1.168a4.92,4.92,0,0,1-1,.118,2.259,2.259,0,0,1-1.116-.228,1.269,1.269,0,0,1-.558-.6,4.725,4.725,0,0,1-.162-1.561v-4.487h-.97v-1.028h.97V251.5l1.314-.793v2.725h1.33v1.028h-1.33v4.561a2.308,2.308,0,0,0,.07.727.551.551,0,0,0,.228.257.877.877,0,0,0,.452.1A4.253,4.253,0,0,0,76.654,260.051Z" transform="translate(-5.926 -9.5)"/><path class="cls-11" d="M77.954,251.987v-1.52h1.322v1.52Zm0,9.247v-7.8h1.322v7.8Z" transform="translate(-5.926 -9.5)"/><path class="cls-11" d="M80.8,257.333a4.02,4.02,0,0,1,1.2-3.209,3.628,3.628,0,0,1,2.453-.866,3.5,3.5,0,0,1,2.629,1.054,4.012,4.012,0,0,1,1.021,2.912,5.163,5.163,0,0,1-.452,2.368,3.2,3.2,0,0,1-1.315,1.34,3.826,3.826,0,0,1-1.884.478,3.506,3.506,0,0,1-2.647-1.05A4.194,4.194,0,0,1,80.8,257.333Zm1.358,0a3.32,3.32,0,0,0,.654,2.244,2.176,2.176,0,0,0,3.283,0,3.4,3.4,0,0,0,.654-2.284,3.224,3.224,0,0,0-.657-2.192,2.18,2.18,0,0,0-3.279,0A3.306,3.306,0,0,0,82.155,257.333Z" transform="translate(-5.926 -9.5)"/><path class="cls-11" d="M89.653,261.233v-7.8h1.189v1.109a2.8,2.8,0,0,1,2.482-1.285,3.257,3.257,0,0,1,1.3.253,2.038,2.038,0,0,1,.885.665,2.546,2.546,0,0,1,.411.977,7.526,7.526,0,0,1,.074,1.285v4.8H94.669v-4.744a3.572,3.572,0,0,0-.154-1.208,1.274,1.274,0,0,0-.547-.639,1.74,1.74,0,0,0-.922-.239,2.141,2.141,0,0,0-1.458.536,2.643,2.643,0,0,0-.613,2.034v4.26Z" transform="translate(-5.926 -9.5)"/><path class="cls-11" d="M23.754,386.539V375.772h1.462l5.655,8.453v-8.453h1.366v10.767H30.776l-5.655-8.46v8.46Z" transform="translate(-5.926 -9.5)"/><path class="cls-11" d="M39.8,384.027l1.366.169a3.333,3.333,0,0,1-1.2,1.858,4.055,4.055,0,0,1-4.946-.393,4.118,4.118,0,0,1-1-2.956,4.309,4.309,0,0,1,1.014-3.055,3.429,3.429,0,0,1,2.629-1.087,3.337,3.337,0,0,1,2.556,1.064,4.233,4.233,0,0,1,.991,3c0,.079,0,.2-.007.353H35.388a2.994,2.994,0,0,0,.727,1.968,2.163,2.163,0,0,0,1.63.683,2.024,2.024,0,0,0,1.241-.382A2.534,2.534,0,0,0,39.8,384.027Zm-4.34-2.137h4.355a2.642,2.642,0,0,0-.5-1.476,2.027,2.027,0,0,0-1.638-.764,2.1,2.1,0,0,0-1.531.609A2.412,2.412,0,0,0,35.461,381.89Z" transform="translate(-5.926 -9.5)"/><path class="cls-11" d="M41.946,386.539l2.85-4.054-2.637-3.746h1.652l1.2,1.829q.338.521.543.874.323-.485.595-.859l1.314-1.844h1.579l-2.7,3.672,2.9,4.127H47.623l-1.6-2.424-.426-.653-2.049,3.077Z" transform="translate(-5.926 -9.5)"/><path class="cls-11" d="M53.234,385.356l.191,1.168a4.92,4.92,0,0,1-1,.118,2.259,2.259,0,0,1-1.116-.228,1.269,1.269,0,0,1-.558-.6,4.725,4.725,0,0,1-.162-1.561v-4.487h-.97v-1.028h.97v-1.931l1.314-.793v2.725h1.33v1.028H51.9v4.561a2.308,2.308,0,0,0,.07.727.551.551,0,0,0,.228.257.877.877,0,0,0,.452.1A4.253,4.253,0,0,0,53.234,385.356Z" transform="translate(-5.926 -9.5)"/><path class="cls-11" d="M28.808,400.365V399.1l4.561-.007v4a8.089,8.089,0,0,1-2.167,1.26,6.432,6.432,0,0,1-2.292.422,6.109,6.109,0,0,1-2.882-.68,4.489,4.489,0,0,1-1.958-1.964,6.192,6.192,0,0,1-.661-2.872,6.661,6.661,0,0,1,.658-2.934,4.367,4.367,0,0,1,1.891-2.023,5.923,5.923,0,0,1,2.842-.661,5.626,5.626,0,0,1,2.111.378,3.5,3.5,0,0,1,1.48,1.054,4.684,4.684,0,0,1,.815,1.763l-1.285.353a3.984,3.984,0,0,0-.6-1.293,2.477,2.477,0,0,0-1.028-.752,3.771,3.771,0,0,0-1.483-.283,4.371,4.371,0,0,0-1.689.3,3.151,3.151,0,0,0-1.149.782A3.735,3.735,0,0,0,25.29,397a5.625,5.625,0,0,0-.411,2.166,5.257,5.257,0,0,0,.5,2.409,3.178,3.178,0,0,0,1.443,1.439,4.468,4.468,0,0,0,2.013.47,4.784,4.784,0,0,0,1.807-.356,4.656,4.656,0,0,0,1.336-.76v-2Z" transform="translate(-5.926 -9.5)"/><path class="cls-11" d="M40.639,402.076l1.366.169a3.337,3.337,0,0,1-1.2,1.858,4.058,4.058,0,0,1-4.946-.394,4.116,4.116,0,0,1-1-2.956,4.309,4.309,0,0,1,1.014-3.055,3.429,3.429,0,0,1,2.629-1.087,3.337,3.337,0,0,1,2.556,1.064,4.234,4.234,0,0,1,.991,3c0,.078,0,.2-.007.353H36.225a2.994,2.994,0,0,0,.727,1.968,2.164,2.164,0,0,0,1.63.683,2.021,2.021,0,0,0,1.241-.382A2.527,2.527,0,0,0,40.639,402.076Zm-4.34-2.137h4.355a2.644,2.644,0,0,0-.5-1.477,2.028,2.028,0,0,0-1.638-.764,2.1,2.1,0,0,0-1.531.609A2.413,2.413,0,0,0,36.3,399.939Z" transform="translate(-5.926 -9.5)"/><path class="cls-11" d="M43.665,404.588v-7.8h1.189V397.9a2.8,2.8,0,0,1,2.482-1.285,3.257,3.257,0,0,1,1.3.253,2.038,2.038,0,0,1,.885.665,2.549,2.549,0,0,1,.411.977A7.522,7.522,0,0,1,50,399.792v4.8H48.681v-4.744a3.565,3.565,0,0,0-.154-1.208,1.272,1.272,0,0,0-.547-.64,1.74,1.74,0,0,0-.922-.238,2.141,2.141,0,0,0-1.458.536,2.643,2.643,0,0,0-.613,2.034v4.26Z" transform="translate(-5.926 -9.5)"/><path class="cls-11" d="M57.369,402.076l1.366.169a3.337,3.337,0,0,1-1.2,1.858,4.058,4.058,0,0,1-4.946-.394,4.116,4.116,0,0,1-1-2.956A4.309,4.309,0,0,1,52.6,397.7a3.429,3.429,0,0,1,2.629-1.087,3.337,3.337,0,0,1,2.556,1.064,4.234,4.234,0,0,1,.991,3c0,.078,0,.2-.007.353H52.956a2.994,2.994,0,0,0,.727,1.968,2.164,2.164,0,0,0,1.63.683,2.021,2.021,0,0,0,1.241-.382A2.527,2.527,0,0,0,57.369,402.076Zm-4.34-2.137h4.355a2.644,2.644,0,0,0-.5-1.477,2.028,2.028,0,0,0-1.638-.764,2.1,2.1,0,0,0-1.531.609A2.413,2.413,0,0,0,53.029,399.939Z" transform="translate(-5.926 -9.5)"/><path class="cls-11" d="M60.38,404.588v-7.8h1.19v1.183a3.237,3.237,0,0,1,.841-1.094,1.469,1.469,0,0,1,.849-.264,2.577,2.577,0,0,1,1.358.426l-.455,1.227a1.888,1.888,0,0,0-.97-.286,1.258,1.258,0,0,0-.778.261,1.409,1.409,0,0,0-.492.723,5.152,5.152,0,0,0-.22,1.543v4.083Z" transform="translate(-5.926 -9.5)"/><path class="cls-11" d="M70.493,403.626a4.918,4.918,0,0,1-1.414.881,4.076,4.076,0,0,1-1.458.257,2.833,2.833,0,0,1-1.976-.628,2.07,2.07,0,0,1-.69-1.6,2.131,2.131,0,0,1,.261-1.046,2.157,2.157,0,0,1,.683-.761,3.214,3.214,0,0,1,.951-.433,9.4,9.4,0,0,1,1.175-.2,12.023,12.023,0,0,0,2.357-.455c0-.181.007-.3.007-.345a1.459,1.459,0,0,0-.375-1.139,2.212,2.212,0,0,0-1.505-.448,2.334,2.334,0,0,0-1.377.327,1.994,1.994,0,0,0-.657,1.156l-1.293-.176a3.2,3.2,0,0,1,.581-1.341,2.543,2.543,0,0,1,1.167-.785,5.209,5.209,0,0,1,1.77-.275,4.684,4.684,0,0,1,1.623.235,2.141,2.141,0,0,1,.918.591,2.075,2.075,0,0,1,.411.9,7.393,7.393,0,0,1,.066,1.219v1.763a18.632,18.632,0,0,0,.084,2.332,2.934,2.934,0,0,0,.334.937H70.757A2.809,2.809,0,0,1,70.493,403.626Zm-.11-2.952a9.716,9.716,0,0,1-2.159.5,4.939,4.939,0,0,0-1.153.265,1.145,1.145,0,0,0-.521.43,1.168,1.168,0,0,0,.217,1.509,1.72,1.72,0,0,0,1.171.353,2.727,2.727,0,0,0,1.358-.334,2.057,2.057,0,0,0,.874-.914,3.193,3.193,0,0,0,.213-1.322Z" transform="translate(-5.926 -9.5)"/><path class="cls-11" d="M76.655,403.405l.191,1.168a4.917,4.917,0,0,1-1,.117,2.264,2.264,0,0,1-1.116-.228,1.271,1.271,0,0,1-.558-.6,4.727,4.727,0,0,1-.162-1.561v-4.487h-.97v-1.028h.97v-1.931l1.314-.793v2.725h1.33v1.028h-1.33v4.561a2.31,2.31,0,0,0,.07.728.551.551,0,0,0,.228.257.882.882,0,0,0,.452.1A4.334,4.334,0,0,0,76.655,403.405Z" transform="translate(-5.926 -9.5)"/><path class="cls-11" d="M77.955,395.341v-1.52h1.322v1.52Zm0,9.247v-7.8h1.322v7.8Z" transform="translate(-5.926 -9.5)"/><path class="cls-11" d="M80.8,400.688a4.021,4.021,0,0,1,1.2-3.21,3.628,3.628,0,0,1,2.453-.866,3.5,3.5,0,0,1,2.629,1.054,4.01,4.01,0,0,1,1.021,2.912,5.162,5.162,0,0,1-.452,2.368,3.2,3.2,0,0,1-1.315,1.341,3.825,3.825,0,0,1-1.884.477,3.505,3.505,0,0,1-2.647-1.05A4.194,4.194,0,0,1,80.8,400.688Zm1.358,0a3.321,3.321,0,0,0,.654,2.243,2.177,2.177,0,0,0,3.283,0,3.4,3.4,0,0,0,.654-2.284,3.223,3.223,0,0,0-.657-2.191,2.178,2.178,0,0,0-3.279,0A3.305,3.305,0,0,0,82.156,400.688Z" transform="translate(-5.926 -9.5)"/><path class="cls-11" d="M89.654,404.588v-7.8h1.189V397.9a2.8,2.8,0,0,1,2.482-1.285,3.257,3.257,0,0,1,1.3.253,2.038,2.038,0,0,1,.885.665,2.549,2.549,0,0,1,.411.977,7.522,7.522,0,0,1,.074,1.285v4.8H94.67v-4.744a3.565,3.565,0,0,0-.154-1.208,1.272,1.272,0,0,0-.547-.64,1.74,1.74,0,0,0-.922-.238,2.141,2.141,0,0,0-1.458.536,2.643,2.643,0,0,0-.613,2.034v4.26Z" transform="translate(-5.926 -9.5)"/></svg>