<svg id="Layer_1" data-name="Layer 1" xmlns="http://www.w3.org/2000/svg" viewBox="0 0 423.108 364.901"><defs><style>.cls-1{fill:none;stroke:#154168;}.cls-1,.cls-10,.cls-4,.cls-9{stroke-miterlimit:10;}.cls-11,.cls-2,.cls-5{fill:#828282;stroke-width:3px;}.cls-2,.cls-9{stroke:#4d98cc;}.cls-3{fill:#64a6da;}.cls-4{fill:#9ac5e6;}.cls-4,.cls-5{stroke:#9ac5e6;}.cls-6{fill:#9ac5e7;}.cls-7{fill:#1b587a;}.cls-8{fill:#154168;}.cls-13,.cls-9{fill:#4d98cc;}.cls-10,.cls-14{fill:#2c77aa;}.cls-10,.cls-11{stroke:#2c77aa;}.cls-12{fill:#fff;}</style></defs><title>Predeceased_Parents</title><rect class="cls-1" x="0.5" y="0.5" width="422.108" height="209.443"/><line class="cls-2" x1="214.921" y1="76.673" x2="215.826" y2="204.208"/><rect class="cls-1" x="0.5" y="215.393" width="422.108" height="149.008"/><rect class="cls-3" x="41.442" y="150.482" width="137.329" height="43.617"/><polygon class="cls-4" points="110.406 143.51 126.888 126.644 93.756 126.808 110.406 143.51"/><line class="cls-5" x1="110.107" y1="83.409" x2="110.322" y2="126.726"/><rect class="cls-6" x="93.756" y="39.791" width="256.385" height="43.617"/><path class="cls-7" d="M199.322,76.507V68.25h-3.084v-1.1h7.421v1.1h-3.1v8.257Z" transform="translate(-8.088 -10.295)"/><path class="cls-7" d="M204.77,76.507V69.725H205.8v1.028a2.809,2.809,0,0,1,.731-.952,1.276,1.276,0,0,1,.737-.23,2.242,2.242,0,0,1,1.182.371l-.4,1.066a1.644,1.644,0,0,0-.843-.249,1.1,1.1,0,0,0-.677.227,1.227,1.227,0,0,0-.428.629,4.469,4.469,0,0,0-.191,1.341v3.551Z" transform="translate(-8.088 -10.295)"/><path class="cls-7" d="M213.563,75.67a4.282,4.282,0,0,1-1.229.766,3.556,3.556,0,0,1-1.268.224,2.468,2.468,0,0,1-1.718-.546,1.8,1.8,0,0,1-.6-1.4,1.86,1.86,0,0,1,.227-.91,1.886,1.886,0,0,1,.594-.661,2.791,2.791,0,0,1,.827-.376,8.192,8.192,0,0,1,1.022-.172,10.509,10.509,0,0,0,2.05-.4q.007-.237.006-.3a1.268,1.268,0,0,0-.326-.99,1.923,1.923,0,0,0-1.309-.39,2.029,2.029,0,0,0-1.2.284,1.736,1.736,0,0,0-.572,1.006l-1.124-.153a2.788,2.788,0,0,1,.5-1.166,2.208,2.208,0,0,1,1.015-.683,4.528,4.528,0,0,1,1.539-.24,4.076,4.076,0,0,1,1.412.2,1.856,1.856,0,0,1,.8.514,1.81,1.81,0,0,1,.358.782,6.5,6.5,0,0,1,.058,1.06v1.533a16.3,16.3,0,0,0,.073,2.027,2.561,2.561,0,0,0,.291.814h-1.2A2.439,2.439,0,0,1,213.563,75.67Zm-.1-2.567a8.421,8.421,0,0,1-1.877.434,4.361,4.361,0,0,0-1,.23,1,1,0,0,0-.454.374,1.016,1.016,0,0,0,.188,1.313,1.5,1.5,0,0,0,1.019.307,2.367,2.367,0,0,0,1.181-.291,1.791,1.791,0,0,0,.76-.8,2.774,2.774,0,0,0,.185-1.149Z" transform="translate(-8.088 -10.295)"/><path class="cls-7" d="M216.412,76.507V69.725h1.034v.964a2.439,2.439,0,0,1,2.159-1.118,2.84,2.84,0,0,1,1.127.22,1.778,1.778,0,0,1,.77.578,2.229,2.229,0,0,1,.357.85,6.587,6.587,0,0,1,.064,1.117v4.17h-1.149V72.381a3.1,3.1,0,0,0-.134-1.05,1.1,1.1,0,0,0-.476-.556,1.512,1.512,0,0,0-.8-.208,1.863,1.863,0,0,0-1.268.466,2.3,2.3,0,0,0-.533,1.769v3.7Z" transform="translate(-8.088 -10.295)"/><path class="cls-7" d="M223.226,74.482l1.137-.179a1.59,1.59,0,0,0,.533,1.047,1.858,1.858,0,0,0,1.223.364,1.8,1.8,0,0,0,1.175-.322.965.965,0,0,0,.383-.757.7.7,0,0,0-.338-.613,5,5,0,0,0-1.175-.39,10.648,10.648,0,0,1-1.753-.552,1.674,1.674,0,0,1-.993-1.555,1.746,1.746,0,0,1,.208-.839,1.861,1.861,0,0,1,.565-.642,2.377,2.377,0,0,1,.731-.335,3.487,3.487,0,0,1,.993-.137,3.925,3.925,0,0,1,1.4.23,1.91,1.91,0,0,1,.891.623,2.437,2.437,0,0,1,.4,1.051l-1.124.153a1.231,1.231,0,0,0-.444-.817A1.625,1.625,0,0,0,226,70.517a1.881,1.881,0,0,0-1.13.262.763.763,0,0,0-.338.613.634.634,0,0,0,.141.4,1.014,1.014,0,0,0,.44.307q.173.064,1.016.293a14.2,14.2,0,0,1,1.7.533,1.729,1.729,0,0,1,.757.6,1.685,1.685,0,0,1,.275.983,1.929,1.929,0,0,1-.335,1.083,2.166,2.166,0,0,1-.968.786,3.522,3.522,0,0,1-1.43.278,3.187,3.187,0,0,1-2.015-.549A2.554,2.554,0,0,1,223.226,74.482Z" transform="translate(-8.088 -10.295)"/><path class="cls-7" d="M230.5,76.507V70.619h-1.016v-.894H230.5V69a3.151,3.151,0,0,1,.122-1.015,1.468,1.468,0,0,1,.584-.725,2.107,2.107,0,0,1,1.172-.278,5.632,5.632,0,0,1,1.073.115l-.173,1a3.864,3.864,0,0,0-.677-.064,1.007,1.007,0,0,0-.741.224,1.209,1.209,0,0,0-.217.836v.626h1.322v.894h-1.322v5.888Z" transform="translate(-8.088 -10.295)"/><path class="cls-7" d="M238.5,74.323l1.188.147a2.9,2.9,0,0,1-1.041,1.616,3.527,3.527,0,0,1-4.3-.342,3.581,3.581,0,0,1-.872-2.57,3.748,3.748,0,0,1,.881-2.657,2.984,2.984,0,0,1,2.286-.945,2.9,2.9,0,0,1,2.223.926,3.679,3.679,0,0,1,.862,2.605q0,.1-.006.307h-5.058a2.605,2.605,0,0,0,.632,1.711,1.882,1.882,0,0,0,1.418.594,1.756,1.756,0,0,0,1.079-.332A2.206,2.206,0,0,0,238.5,74.323Zm-3.774-1.858h3.787a2.3,2.3,0,0,0-.434-1.284,1.762,1.762,0,0,0-1.424-.664,1.826,1.826,0,0,0-1.332.53A2.1,2.1,0,0,0,234.727,72.464Z" transform="translate(-8.088 -10.295)"/><path class="cls-7" d="M241.12,76.507V69.725h1.035v1.028a2.809,2.809,0,0,1,.731-.952,1.276,1.276,0,0,1,.737-.23,2.242,2.242,0,0,1,1.182.371l-.4,1.066a1.644,1.644,0,0,0-.843-.249,1.1,1.1,0,0,0-.677.227,1.227,1.227,0,0,0-.428.629,4.469,4.469,0,0,0-.191,1.341v3.551Z" transform="translate(-8.088 -10.295)"/><path class="cls-7" d="M245.06,73.116a3.5,3.5,0,0,1,1.047-2.791,3.157,3.157,0,0,1,2.133-.754,3.043,3.043,0,0,1,2.286.917,3.487,3.487,0,0,1,.888,2.532,4.49,4.49,0,0,1-.393,2.06,2.781,2.781,0,0,1-1.144,1.166,3.33,3.33,0,0,1-1.638.415,3.047,3.047,0,0,1-2.3-.913A3.648,3.648,0,0,1,245.06,73.116Zm1.182,0a2.889,2.889,0,0,0,.568,1.951,1.893,1.893,0,0,0,2.854,0,2.956,2.956,0,0,0,.568-1.986,2.8,2.8,0,0,0-.571-1.906,1.895,1.895,0,0,0-2.852,0A2.876,2.876,0,0,0,246.242,73.116Z" transform="translate(-8.088 -10.295)"/><path class="cls-7" d="M252.749,76.507V69.725h1.035v1.028a2.809,2.809,0,0,1,.731-.952,1.276,1.276,0,0,1,.737-.23,2.242,2.242,0,0,1,1.182.371l-.4,1.066a1.644,1.644,0,0,0-.843-.249,1.1,1.1,0,0,0-.677.227,1.227,1.227,0,0,0-.428.629,4.469,4.469,0,0,0-.191,1.341v3.551Z" transform="translate(-8.088 -10.295)"/><path class="cls-8" d="M19.267,34.517V25.154h1.271L25.456,32.5V25.154h1.188v9.362H25.373L20.455,27.16v7.357Z" transform="translate(-8.088 -10.295)"/><path class="cls-8" d="M28.15,31.125A3.5,3.5,0,0,1,29.2,28.335a3.157,3.157,0,0,1,2.133-.754,3.043,3.043,0,0,1,2.286.917A3.487,3.487,0,0,1,34.5,31.03a4.49,4.49,0,0,1-.393,2.06,2.781,2.781,0,0,1-1.144,1.166,3.33,3.33,0,0,1-1.638.415,3.047,3.047,0,0,1-2.3-.913A3.648,3.648,0,0,1,28.15,31.125Zm1.182,0a2.889,2.889,0,0,0,.568,1.951,1.893,1.893,0,0,0,2.854,0,2.956,2.956,0,0,0,.568-1.986,2.8,2.8,0,0,0-.571-1.906,1.895,1.895,0,0,0-2.852,0A2.876,2.876,0,0,0,29.332,31.125Z" transform="translate(-8.088 -10.295)"/><path class="cls-8" d="M35.853,34.517V27.734h1.034V28.7a2.439,2.439,0,0,1,2.159-1.118,2.84,2.84,0,0,1,1.127.22,1.778,1.778,0,0,1,.77.578,2.229,2.229,0,0,1,.357.85,6.587,6.587,0,0,1,.064,1.117v4.17H40.214V30.391a3.1,3.1,0,0,0-.134-1.05,1.1,1.1,0,0,0-.476-.556,1.512,1.512,0,0,0-.8-.208,1.863,1.863,0,0,0-1.268.466A2.3,2.3,0,0,0,37,30.813v3.7Z" transform="translate(-8.088 -10.295)"/><path class="cls-8" d="M42.679,31.707V30.551H46.21v1.156Z" transform="translate(-8.088 -10.295)"/><path class="cls-8" d="M47.207,31.509l1.169-.1a2.577,2.577,0,0,0,.386,1.152,2.106,2.106,0,0,0,.942.728,3.562,3.562,0,0,0,1.437.278,3.449,3.449,0,0,0,1.251-.21,1.74,1.74,0,0,0,.808-.578,1.339,1.339,0,0,0,.265-.8,1.218,1.218,0,0,0-.256-.77,1.893,1.893,0,0,0-.843-.553A16.578,16.578,0,0,0,50.7,30.2a8.514,8.514,0,0,1-1.807-.584,2.532,2.532,0,0,1-1-.872,2.135,2.135,0,0,1-.329-1.166,2.377,2.377,0,0,1,.4-1.325,2.491,2.491,0,0,1,1.175-.936,4.458,4.458,0,0,1,1.718-.319,4.692,4.692,0,0,1,1.836.335,2.647,2.647,0,0,1,1.223.987,2.835,2.835,0,0,1,.46,1.475l-1.188.089a1.919,1.919,0,0,0-.648-1.341,2.525,2.525,0,0,0-1.632-.453,2.62,2.62,0,0,0-1.638.412,1.236,1.236,0,0,0-.514.993,1.064,1.064,0,0,0,.364.83,4.922,4.922,0,0,0,1.868.667,12.379,12.379,0,0,1,2.072.6,2.841,2.841,0,0,1,1.207.955,2.331,2.331,0,0,1,.389,1.332,2.547,2.547,0,0,1-.428,1.408A2.812,2.812,0,0,1,53,34.309a4.285,4.285,0,0,1-1.8.367,5.382,5.382,0,0,1-2.13-.371,2.979,2.979,0,0,1-1.348-1.114A3.16,3.16,0,0,1,47.207,31.509Z" transform="translate(-8.088 -10.295)"/><path class="cls-8" d="M56.211,34.517V25.154h1.149v5.339l2.721-2.759h1.488L58.977,30.25l2.854,4.266H60.414l-2.242-3.468-.811.779v2.688Z" transform="translate(-8.088 -10.295)"/><path class="cls-8" d="M62.751,26.477V25.154H63.9v1.322Zm0,8.04V27.734H63.9v6.782Z" transform="translate(-8.088 -10.295)"/><path class="cls-8" d="M65.65,37.116V27.734H66.7v.881a2.576,2.576,0,0,1,.836-.776,2.3,2.3,0,0,1,1.13-.259,2.682,2.682,0,0,1,1.533.447,2.741,2.741,0,0,1,1,1.261,4.606,4.606,0,0,1,.338,1.785,4.534,4.534,0,0,1-.374,1.875,2.816,2.816,0,0,1-1.085,1.277,2.788,2.788,0,0,1-1.5.444,2.164,2.164,0,0,1-1.031-.243,2.342,2.342,0,0,1-.75-.613v3.3Zm1.041-5.952a2.948,2.948,0,0,0,.53,1.935,1.625,1.625,0,0,0,1.284.626,1.662,1.662,0,0,0,1.313-.648,3.077,3.077,0,0,0,.546-2.009,3,3,0,0,0-.533-1.941,1.606,1.606,0,0,0-1.274-.645,1.656,1.656,0,0,0-1.3.687A3.072,3.072,0,0,0,66.691,31.164Z" transform="translate(-8.088 -10.295)"/><path class="cls-8" d="M76.7,34.517V25.154h3.532a8.537,8.537,0,0,1,1.424.089,2.826,2.826,0,0,1,1.156.438,2.3,2.3,0,0,1,.75.9,3.046,3.046,0,0,1-.476,3.3,3.643,3.643,0,0,1-2.746.827h-2.4v3.806Zm1.239-4.911h2.42a2.568,2.568,0,0,0,1.705-.447,1.594,1.594,0,0,0,.5-1.258,1.694,1.694,0,0,0-.3-1.006,1.39,1.39,0,0,0-.782-.552,5.311,5.311,0,0,0-1.156-.083H77.944Z" transform="translate(-8.088 -10.295)"/><path class="cls-8" d="M89.924,32.333l1.188.147A2.9,2.9,0,0,1,90.071,34.1a3.527,3.527,0,0,1-4.3-.342,3.581,3.581,0,0,1-.872-2.57,3.748,3.748,0,0,1,.881-2.657,2.984,2.984,0,0,1,2.286-.945,2.9,2.9,0,0,1,2.223.926,3.679,3.679,0,0,1,.862,2.605q0,.1-.006.307H86.086a2.605,2.605,0,0,0,.632,1.711,1.882,1.882,0,0,0,1.418.594,1.756,1.756,0,0,0,1.079-.332A2.206,2.206,0,0,0,89.924,32.333Zm-3.774-1.858h3.787A2.3,2.3,0,0,0,89.5,29.19a1.762,1.762,0,0,0-1.424-.664,1.826,1.826,0,0,0-1.332.53A2.1,2.1,0,0,0,86.149,30.474Z" transform="translate(-8.088 -10.295)"/><path class="cls-8" d="M92.542,34.517V27.734h1.035v1.028a2.809,2.809,0,0,1,.731-.952,1.276,1.276,0,0,1,.737-.23,2.242,2.242,0,0,1,1.182.371l-.4,1.066a1.644,1.644,0,0,0-.843-.249,1.1,1.1,0,0,0-.677.227,1.227,1.227,0,0,0-.428.629,4.469,4.469,0,0,0-.191,1.341v3.551Z" transform="translate(-8.088 -10.295)"/><path class="cls-8" d="M96.451,32.492l1.137-.179a1.59,1.59,0,0,0,.533,1.047,1.858,1.858,0,0,0,1.223.364,1.8,1.8,0,0,0,1.175-.322.965.965,0,0,0,.383-.757.7.7,0,0,0-.338-.613,5,5,0,0,0-1.175-.39,10.648,10.648,0,0,1-1.753-.552,1.674,1.674,0,0,1-.993-1.555,1.746,1.746,0,0,1,.208-.839,1.861,1.861,0,0,1,.565-.642,2.377,2.377,0,0,1,.731-.335,3.487,3.487,0,0,1,.993-.137,3.925,3.925,0,0,1,1.4.23,1.91,1.91,0,0,1,.891.623,2.437,2.437,0,0,1,.4,1.051l-1.124.153a1.231,1.231,0,0,0-.444-.817,1.625,1.625,0,0,0-1.038-.294,1.881,1.881,0,0,0-1.13.262.763.763,0,0,0-.338.613.634.634,0,0,0,.141.4,1.014,1.014,0,0,0,.44.307q.173.064,1.016.293a14.2,14.2,0,0,1,1.7.533,1.729,1.729,0,0,1,.757.6,1.685,1.685,0,0,1,.275.983,1.929,1.929,0,0,1-.335,1.083,2.166,2.166,0,0,1-.968.786,3.522,3.522,0,0,1-1.43.278,3.187,3.187,0,0,1-2.015-.549A2.554,2.554,0,0,1,96.451,32.492Z" transform="translate(-8.088 -10.295)"/><path class="cls-8" d="M103.022,31.125a3.5,3.5,0,0,1,1.047-2.791,3.157,3.157,0,0,1,2.133-.754,3.043,3.043,0,0,1,2.286.917,3.487,3.487,0,0,1,.888,2.532,4.49,4.49,0,0,1-.393,2.06,2.781,2.781,0,0,1-1.144,1.166,3.33,3.33,0,0,1-1.638.415,3.047,3.047,0,0,1-2.3-.913A3.648,3.648,0,0,1,103.022,31.125Zm1.182,0a2.889,2.889,0,0,0,.568,1.951,1.893,1.893,0,0,0,2.854,0,2.956,2.956,0,0,0,.568-1.986,2.8,2.8,0,0,0-.571-1.906,1.895,1.895,0,0,0-2.852,0A2.876,2.876,0,0,0,104.2,31.125Z" transform="translate(-8.088 -10.295)"/><path class="cls-8" d="M110.724,34.517V27.734h1.034V28.7a2.439,2.439,0,0,1,2.159-1.118,2.84,2.84,0,0,1,1.127.22,1.778,1.778,0,0,1,.77.578,2.229,2.229,0,0,1,.357.85,6.587,6.587,0,0,1,.064,1.117v4.17h-1.149V30.391a3.1,3.1,0,0,0-.134-1.05,1.1,1.1,0,0,0-.476-.556,1.512,1.512,0,0,0-.8-.208,1.863,1.863,0,0,0-1.268.466,2.3,2.3,0,0,0-.533,1.769v3.7Z" transform="translate(-8.088 -10.295)"/><path class="cls-8" d="M117.538,32.492l1.137-.179a1.59,1.59,0,0,0,.533,1.047,1.858,1.858,0,0,0,1.223.364,1.8,1.8,0,0,0,1.175-.322.965.965,0,0,0,.383-.757.7.7,0,0,0-.338-.613,5,5,0,0,0-1.175-.39,10.648,10.648,0,0,1-1.753-.552,1.674,1.674,0,0,1-.993-1.555,1.746,1.746,0,0,1,.208-.839,1.861,1.861,0,0,1,.565-.642,2.377,2.377,0,0,1,.731-.335,3.487,3.487,0,0,1,.993-.137,3.925,3.925,0,0,1,1.4.23,1.91,1.91,0,0,1,.891.623,2.437,2.437,0,0,1,.4,1.051l-1.124.153a1.231,1.231,0,0,0-.444-.817,1.625,1.625,0,0,0-1.038-.294,1.881,1.881,0,0,0-1.13.262.763.763,0,0,0-.338.613.634.634,0,0,0,.141.4,1.014,1.014,0,0,0,.44.307q.173.064,1.016.293a14.2,14.2,0,0,1,1.7.533,1.729,1.729,0,0,1,.757.6,1.685,1.685,0,0,1,.275.983,1.929,1.929,0,0,1-.335,1.083,2.166,2.166,0,0,1-.968.786,3.522,3.522,0,0,1-1.43.278,3.187,3.187,0,0,1-2.015-.549A2.554,2.554,0,0,1,117.538,32.492Z" transform="translate(-8.088 -10.295)"/><path class="cls-8" d="M26.625,247l1.169-.1a2.577,2.577,0,0,0,.386,1.152,2.106,2.106,0,0,0,.942.728,3.562,3.562,0,0,0,1.437.278,3.449,3.449,0,0,0,1.251-.21,1.74,1.74,0,0,0,.808-.578,1.339,1.339,0,0,0,.265-.8,1.218,1.218,0,0,0-.256-.77,1.893,1.893,0,0,0-.843-.553,16.578,16.578,0,0,0-1.667-.457,8.514,8.514,0,0,1-1.807-.584,2.532,2.532,0,0,1-1-.872,2.135,2.135,0,0,1-.329-1.166,2.377,2.377,0,0,1,.4-1.325,2.491,2.491,0,0,1,1.175-.936,4.458,4.458,0,0,1,1.718-.319,4.692,4.692,0,0,1,1.836.335,2.647,2.647,0,0,1,1.223.987,2.835,2.835,0,0,1,.46,1.475l-1.188.089a1.919,1.919,0,0,0-.648-1.341,2.525,2.525,0,0,0-1.632-.453,2.62,2.62,0,0,0-1.638.412,1.236,1.236,0,0,0-.514.993,1.064,1.064,0,0,0,.364.83,4.922,4.922,0,0,0,1.868.667,12.379,12.379,0,0,1,2.072.6,2.841,2.841,0,0,1,1.207.955,2.331,2.331,0,0,1,.389,1.332,2.547,2.547,0,0,1-.428,1.408A2.812,2.812,0,0,1,32.42,249.8a4.285,4.285,0,0,1-1.8.367,5.382,5.382,0,0,1-2.13-.371,2.979,2.979,0,0,1-1.348-1.114A3.16,3.16,0,0,1,26.625,247Z" transform="translate(-8.088 -10.295)"/><path class="cls-8" d="M35.629,250v-9.362h1.149v5.339l2.721-2.759h1.488l-2.593,2.516L41.249,250H39.832l-2.242-3.468-.811.779V250Z" transform="translate(-8.088 -10.295)"/><path class="cls-8" d="M42.169,241.964v-1.322h1.149v1.322Zm0,8.04v-6.782h1.149V250Z" transform="translate(-8.088 -10.295)"/><path class="cls-8" d="M45.068,252.6v-9.381h1.047v.881a2.576,2.576,0,0,1,.836-.776,2.3,2.3,0,0,1,1.13-.259,2.682,2.682,0,0,1,1.533.447,2.741,2.741,0,0,1,1,1.261,4.606,4.606,0,0,1,.338,1.785,4.534,4.534,0,0,1-.374,1.875,2.816,2.816,0,0,1-1.085,1.277,2.788,2.788,0,0,1-1.5.444,2.164,2.164,0,0,1-1.031-.243,2.342,2.342,0,0,1-.75-.613v3.3Zm1.041-5.952a2.948,2.948,0,0,0,.53,1.935,1.625,1.625,0,0,0,1.284.626,1.662,1.662,0,0,0,1.313-.648,3.077,3.077,0,0,0,.546-2.009,3,3,0,0,0-.533-1.941,1.606,1.606,0,0,0-1.274-.645,1.656,1.656,0,0,0-1.3.687A3.072,3.072,0,0,0,46.109,246.651Z" transform="translate(-8.088 -10.295)"/><path class="cls-8" d="M56.122,250v-9.362h3.532a8.537,8.537,0,0,1,1.424.089,2.826,2.826,0,0,1,1.156.438,2.3,2.3,0,0,1,.75.9,3.046,3.046,0,0,1-.476,3.3,3.643,3.643,0,0,1-2.746.827h-2.4V250Zm1.239-4.911h2.42a2.568,2.568,0,0,0,1.705-.447,1.594,1.594,0,0,0,.5-1.258,1.694,1.694,0,0,0-.3-1.006,1.39,1.39,0,0,0-.782-.552,5.311,5.311,0,0,0-1.156-.083H57.361Z" transform="translate(-8.088 -10.295)"/><path class="cls-8" d="M69.342,247.82l1.188.147a2.9,2.9,0,0,1-1.041,1.616,3.527,3.527,0,0,1-4.3-.342,3.581,3.581,0,0,1-.872-2.57,3.748,3.748,0,0,1,.881-2.657,2.984,2.984,0,0,1,2.286-.945,2.9,2.9,0,0,1,2.223.926,3.679,3.679,0,0,1,.862,2.605q0,.1-.006.307H65.5a2.605,2.605,0,0,0,.632,1.711,1.882,1.882,0,0,0,1.418.594,1.756,1.756,0,0,0,1.079-.332A2.206,2.206,0,0,0,69.342,247.82Zm-3.774-1.858h3.787a2.3,2.3,0,0,0-.434-1.284,1.762,1.762,0,0,0-1.424-.664,1.826,1.826,0,0,0-1.332.53A2.1,2.1,0,0,0,65.567,245.961Z" transform="translate(-8.088 -10.295)"/><path class="cls-8" d="M71.96,250v-6.782h1.035v1.028a2.809,2.809,0,0,1,.731-.952,1.276,1.276,0,0,1,.737-.23,2.242,2.242,0,0,1,1.182.371l-.4,1.066a1.644,1.644,0,0,0-.843-.249,1.1,1.1,0,0,0-.677.227,1.227,1.227,0,0,0-.428.629,4.469,4.469,0,0,0-.191,1.341V250Z" transform="translate(-8.088 -10.295)"/><path class="cls-8" d="M75.869,247.979l1.137-.179a1.59,1.59,0,0,0,.533,1.047,1.858,1.858,0,0,0,1.223.364,1.8,1.8,0,0,0,1.175-.322.965.965,0,0,0,.383-.757.7.7,0,0,0-.338-.613,5,5,0,0,0-1.175-.39,10.648,10.648,0,0,1-1.753-.552,1.674,1.674,0,0,1-.993-1.555,1.746,1.746,0,0,1,.208-.839,1.861,1.861,0,0,1,.565-.642,2.377,2.377,0,0,1,.731-.335,3.487,3.487,0,0,1,.993-.137,3.925,3.925,0,0,1,1.4.23,1.91,1.91,0,0,1,.891.623,2.437,2.437,0,0,1,.4,1.051l-1.124.153a1.231,1.231,0,0,0-.444-.817,1.625,1.625,0,0,0-1.038-.294,1.881,1.881,0,0,0-1.13.262.763.763,0,0,0-.338.613.634.634,0,0,0,.141.4,1.014,1.014,0,0,0,.44.307q.173.064,1.016.293a14.2,14.2,0,0,1,1.7.533,1.729,1.729,0,0,1,.757.6,1.685,1.685,0,0,1,.275.983,1.929,1.929,0,0,1-.335,1.083,2.166,2.166,0,0,1-.968.786,3.522,3.522,0,0,1-1.43.278,3.187,3.187,0,0,1-2.015-.549A2.554,2.554,0,0,1,75.869,247.979Z" transform="translate(-8.088 -10.295)"/><path class="cls-8" d="M82.44,246.613a3.5,3.5,0,0,1,1.047-2.791,3.157,3.157,0,0,1,2.133-.754,3.043,3.043,0,0,1,2.286.917,3.487,3.487,0,0,1,.888,2.532,4.49,4.49,0,0,1-.393,2.06,2.781,2.781,0,0,1-1.144,1.166,3.33,3.33,0,0,1-1.638.415,3.047,3.047,0,0,1-2.3-.913A3.648,3.648,0,0,1,82.44,246.613Zm1.182,0a2.889,2.889,0,0,0,.568,1.951,1.893,1.893,0,0,0,2.854,0,2.956,2.956,0,0,0,.568-1.986,2.8,2.8,0,0,0-.571-1.906,1.895,1.895,0,0,0-2.852,0A2.876,2.876,0,0,0,83.622,246.613Z" transform="translate(-8.088 -10.295)"/><path class="cls-8" d="M90.142,250v-6.782h1.034v.964a2.439,2.439,0,0,1,2.159-1.118,2.84,2.84,0,0,1,1.127.22,1.778,1.778,0,0,1,.77.578,2.229,2.229,0,0,1,.357.85,6.587,6.587,0,0,1,.064,1.117V250H94.5v-4.125a3.1,3.1,0,0,0-.134-1.05,1.1,1.1,0,0,0-.476-.556,1.512,1.512,0,0,0-.8-.208,1.863,1.863,0,0,0-1.268.466,2.3,2.3,0,0,0-.533,1.769V250Z" transform="translate(-8.088 -10.295)"/><path class="cls-8" d="M96.956,247.979l1.137-.179a1.59,1.59,0,0,0,.533,1.047,1.858,1.858,0,0,0,1.223.364,1.8,1.8,0,0,0,1.175-.322.965.965,0,0,0,.383-.757.7.7,0,0,0-.338-.613,5,5,0,0,0-1.175-.39,10.648,10.648,0,0,1-1.753-.552,1.674,1.674,0,0,1-.993-1.555,1.746,1.746,0,0,1,.208-.839,1.861,1.861,0,0,1,.565-.642,2.377,2.377,0,0,1,.731-.335,3.487,3.487,0,0,1,.993-.137,3.925,3.925,0,0,1,1.4.23,1.91,1.91,0,0,1,.891.623,2.437,2.437,0,0,1,.4,1.051l-1.124.153a1.231,1.231,0,0,0-.444-.817,1.625,1.625,0,0,0-1.038-.294,1.881,1.881,0,0,0-1.13.262.763.763,0,0,0-.338.613.634.634,0,0,0,.141.4,1.014,1.014,0,0,0,.44.307q.173.064,1.016.293a14.2,14.2,0,0,1,1.7.533,1.729,1.729,0,0,1,.757.6,1.685,1.685,0,0,1,.275.983,1.929,1.929,0,0,1-.335,1.083,2.166,2.166,0,0,1-.968.786,3.522,3.522,0,0,1-1.43.278,3.187,3.187,0,0,1-2.015-.549A2.554,2.554,0,0,1,96.956,247.979Z" transform="translate(-8.088 -10.295)"/><polygon class="cls-9" points="216.999 222.141 233.482 205.274 200.35 205.438 216.999 222.141"/><polygon class="cls-10" points="324.683 300.749 341.166 283.882 308.033 284.046 324.683 300.749"/><line class="cls-11" x1="324.599" y1="82.811" x2="324.599" y2="283.88"/><path class="cls-12" d="M111.712,184.578l1.239.313a4.175,4.175,0,0,1-1.4,2.328,3.865,3.865,0,0,1-2.475.8,4.447,4.447,0,0,1-2.461-.616,3.844,3.844,0,0,1-1.443-1.785,6.366,6.366,0,0,1-.5-2.51,5.518,5.518,0,0,1,.559-2.551,3.829,3.829,0,0,1,1.59-1.654,4.645,4.645,0,0,1,2.271-.565,3.84,3.84,0,0,1,2.363.715,3.714,3.714,0,0,1,1.334,2.012l-1.22.288a2.9,2.9,0,0,0-.945-1.488,2.521,2.521,0,0,0-1.559-.466,3.027,3.027,0,0,0-1.8.518,2.73,2.73,0,0,0-1.019,1.389,5.6,5.6,0,0,0-.293,1.8,5.7,5.7,0,0,0,.348,2.085,2.589,2.589,0,0,0,1.083,1.332,3.033,3.033,0,0,0,1.59.441,2.664,2.664,0,0,0,1.763-.6A3.071,3.071,0,0,0,111.712,184.578Z" transform="translate(-8.088 -10.295)"/><path class="cls-12" d="M114.331,187.861V178.5h1.149v3.359a2.568,2.568,0,0,1,2.031-.933,2.74,2.74,0,0,1,1.309.3,1.742,1.742,0,0,1,.795.821,3.783,3.783,0,0,1,.24,1.52v4.3h-1.149v-4.3a1.776,1.776,0,0,0-.374-1.255,1.39,1.39,0,0,0-1.057-.393,1.865,1.865,0,0,0-.961.265,1.5,1.5,0,0,0-.642.719,3.3,3.3,0,0,0-.191,1.251v3.71Z" transform="translate(-8.088 -10.295)"/><path class="cls-12" d="M121.611,179.821V178.5h1.149v1.322Zm0,8.04v-6.782h1.149v6.782Z" transform="translate(-8.088 -10.295)"/><path class="cls-12" d="M124.485,187.861V178.5h1.15v9.362Z" transform="translate(-8.088 -10.295)"/><path class="cls-12" d="M131.816,187.861V187a2.11,2.11,0,0,1-1.9,1.009,2.656,2.656,0,0,1-1.491-.447,2.935,2.935,0,0,1-1.054-1.249,4.315,4.315,0,0,1-.374-1.842,4.814,4.814,0,0,1,.338-1.842,2.668,2.668,0,0,1,1.015-1.268,2.714,2.714,0,0,1,1.514-.441,2.263,2.263,0,0,1,1.871.933V178.5h1.143v9.362Zm-3.634-3.385a2.944,2.944,0,0,0,.549,1.948,1.656,1.656,0,0,0,1.3.645,1.624,1.624,0,0,0,1.28-.616,2.839,2.839,0,0,0,.527-1.881,3.191,3.191,0,0,0-.536-2.043,1.651,1.651,0,0,0-1.322-.651,1.592,1.592,0,0,0-1.28.626A3.088,3.088,0,0,0,128.182,184.476Z" transform="translate(-8.088 -10.295)"/><rect class="cls-13" x="148.251" y="227.987" width="137.329" height="43.617"/><path class="cls-12" d="M200.68,260.6v-1.1l3.966-.006v3.474a7,7,0,0,1-1.884,1.1,5.589,5.589,0,0,1-1.992.367,5.314,5.314,0,0,1-2.507-.591,3.9,3.9,0,0,1-1.7-1.708,5.378,5.378,0,0,1-.575-2.5,5.8,5.8,0,0,1,.571-2.551,3.8,3.8,0,0,1,1.645-1.76,5.158,5.158,0,0,1,2.472-.575,4.9,4.9,0,0,1,1.836.329A3.044,3.044,0,0,1,203.8,256a4.064,4.064,0,0,1,.709,1.533l-1.118.306a3.464,3.464,0,0,0-.523-1.124,2.154,2.154,0,0,0-.894-.655,3.279,3.279,0,0,0-1.29-.246,3.8,3.8,0,0,0-1.469.259,2.742,2.742,0,0,0-1,.68,3.246,3.246,0,0,0-.591.926,4.894,4.894,0,0,0-.358,1.884,4.575,4.575,0,0,0,.431,2.095,2.759,2.759,0,0,0,1.255,1.251,3.885,3.885,0,0,0,1.75.409,4.155,4.155,0,0,0,1.571-.31,4.051,4.051,0,0,0,1.163-.661V260.6Z" transform="translate(-8.088 -10.295)"/><path class="cls-12" d="M206.313,264.276v-6.782h1.035v1.028a2.809,2.809,0,0,1,.731-.952,1.276,1.276,0,0,1,.737-.23,2.242,2.242,0,0,1,1.182.371l-.4,1.066a1.644,1.644,0,0,0-.843-.249,1.1,1.1,0,0,0-.677.227,1.227,1.227,0,0,0-.428.629,4.469,4.469,0,0,0-.191,1.341v3.551Z" transform="translate(-8.088 -10.295)"/><path class="cls-12" d="M215.106,263.439a4.282,4.282,0,0,1-1.229.766,3.556,3.556,0,0,1-1.268.224,2.468,2.468,0,0,1-1.718-.546,1.8,1.8,0,0,1-.6-1.4,1.86,1.86,0,0,1,.227-.91,1.886,1.886,0,0,1,.594-.661,2.791,2.791,0,0,1,.827-.376,8.192,8.192,0,0,1,1.022-.172,10.509,10.509,0,0,0,2.05-.4q.007-.237.006-.3a1.268,1.268,0,0,0-.326-.99,1.923,1.923,0,0,0-1.309-.39,2.029,2.029,0,0,0-1.2.284,1.736,1.736,0,0,0-.572,1.006l-1.124-.153a2.788,2.788,0,0,1,.5-1.166,2.208,2.208,0,0,1,1.015-.683,4.528,4.528,0,0,1,1.539-.24,4.076,4.076,0,0,1,1.412.2,1.856,1.856,0,0,1,.8.514,1.81,1.81,0,0,1,.358.782,6.5,6.5,0,0,1,.058,1.06v1.533a16.3,16.3,0,0,0,.073,2.027,2.561,2.561,0,0,0,.291.814h-1.2A2.439,2.439,0,0,1,215.106,263.439Zm-.1-2.567a8.421,8.421,0,0,1-1.877.434,4.361,4.361,0,0,0-1,.23,1,1,0,0,0-.454.374,1.016,1.016,0,0,0,.188,1.313,1.5,1.5,0,0,0,1.019.307,2.367,2.367,0,0,0,1.181-.291,1.791,1.791,0,0,0,.76-.8,2.774,2.774,0,0,0,.185-1.149Z" transform="translate(-8.088 -10.295)"/><path class="cls-12" d="M217.955,264.276v-6.782h1.034v.964a2.439,2.439,0,0,1,2.159-1.118,2.84,2.84,0,0,1,1.127.22,1.778,1.778,0,0,1,.77.578,2.229,2.229,0,0,1,.357.85,6.587,6.587,0,0,1,.064,1.117v4.17h-1.149V260.15a3.1,3.1,0,0,0-.134-1.05,1.1,1.1,0,0,0-.476-.556,1.512,1.512,0,0,0-.8-.208,1.863,1.863,0,0,0-1.268.466,2.3,2.3,0,0,0-.533,1.769v3.7Z" transform="translate(-8.088 -10.295)"/><path class="cls-12" d="M229.628,264.276v-.856a2.11,2.11,0,0,1-1.9,1.009,2.656,2.656,0,0,1-1.491-.447,2.935,2.935,0,0,1-1.054-1.249,4.315,4.315,0,0,1-.374-1.842,4.814,4.814,0,0,1,.338-1.842,2.668,2.668,0,0,1,1.015-1.268,2.714,2.714,0,0,1,1.514-.441,2.263,2.263,0,0,1,1.871.933v-3.359h1.143v9.362Zm-3.634-3.385a2.944,2.944,0,0,0,.549,1.948,1.656,1.656,0,0,0,1.3.645,1.624,1.624,0,0,0,1.28-.616,2.839,2.839,0,0,0,.527-1.881,3.191,3.191,0,0,0-.536-2.043,1.651,1.651,0,0,0-1.322-.651,1.592,1.592,0,0,0-1.28.626A3.088,3.088,0,0,0,225.995,260.891Z" transform="translate(-8.088 -10.295)"/><path class="cls-12" d="M236.928,261.792l1.13.147a2.931,2.931,0,0,1-.948,1.83,2.761,2.761,0,0,1-1.875.661,2.912,2.912,0,0,1-2.238-.91,3.692,3.692,0,0,1-.846-2.609,4.719,4.719,0,0,1,.364-1.922,2.536,2.536,0,0,1,1.108-1.236,3.285,3.285,0,0,1,1.619-.412,2.814,2.814,0,0,1,1.807.559,2.562,2.562,0,0,1,.9,1.587l-1.118.172a1.858,1.858,0,0,0-.565-1.028,1.463,1.463,0,0,0-.98-.345,1.784,1.784,0,0,0-1.411.623,2.953,2.953,0,0,0-.543,1.97,3.056,3.056,0,0,0,.523,1.986,1.705,1.705,0,0,0,1.367.619,1.61,1.61,0,0,0,1.13-.415A2.059,2.059,0,0,0,236.928,261.792Z" transform="translate(-8.088 -10.295)"/><path class="cls-12" d="M239.042,264.276v-9.362h1.149v3.359a2.568,2.568,0,0,1,2.031-.933,2.74,2.74,0,0,1,1.309.3,1.742,1.742,0,0,1,.795.821,3.783,3.783,0,0,1,.24,1.52v4.3h-1.149v-4.3a1.776,1.776,0,0,0-.374-1.255,1.39,1.39,0,0,0-1.057-.393,1.865,1.865,0,0,0-.961.265,1.5,1.5,0,0,0-.642.719,3.3,3.3,0,0,0-.191,1.251v3.71Z" transform="translate(-8.088 -10.295)"/><path class="cls-12" d="M246.322,256.236v-1.322h1.149v1.322Zm0,8.04v-6.782h1.149v6.782Z" transform="translate(-8.088 -10.295)"/><path class="cls-12" d="M249.2,264.276v-9.362h1.15v9.362Z" transform="translate(-8.088 -10.295)"/><path class="cls-12" d="M256.527,264.276v-.856a2.11,2.11,0,0,1-1.9,1.009,2.656,2.656,0,0,1-1.491-.447,2.935,2.935,0,0,1-1.054-1.249,4.315,4.315,0,0,1-.374-1.842,4.814,4.814,0,0,1,.338-1.842,2.668,2.668,0,0,1,1.015-1.268,2.714,2.714,0,0,1,1.514-.441,2.263,2.263,0,0,1,1.871.933v-3.359h1.143v9.362Zm-3.634-3.385a2.944,2.944,0,0,0,.549,1.948,1.656,1.656,0,0,0,1.3.645,1.624,1.624,0,0,0,1.28-.616,2.839,2.839,0,0,0,.527-1.881,3.191,3.191,0,0,0-.536-2.043,1.651,1.651,0,0,0-1.322-.651,1.592,1.592,0,0,0-1.28.626A3.088,3.088,0,0,0,252.894,260.891Z" transform="translate(-8.088 -10.295)"/><rect class="cls-14" x="255.934" y="306.479" width="137.329" height="43.617"/><path class="cls-12" d="M280.723,339.1V338l3.965-.006v3.474a6.986,6.986,0,0,1-1.884,1.1,5.587,5.587,0,0,1-1.992.367,5.314,5.314,0,0,1-2.507-.591,3.9,3.9,0,0,1-1.7-1.708,5.378,5.378,0,0,1-.575-2.5,5.8,5.8,0,0,1,.571-2.551,3.8,3.8,0,0,1,1.645-1.76,5.158,5.158,0,0,1,2.472-.575,4.9,4.9,0,0,1,1.836.329,3.052,3.052,0,0,1,1.287.917,4.056,4.056,0,0,1,.708,1.533l-1.117.306a3.474,3.474,0,0,0-.523-1.124,2.155,2.155,0,0,0-.894-.655,3.283,3.283,0,0,0-1.291-.246,3.8,3.8,0,0,0-1.469.259,2.742,2.742,0,0,0-1,.68,3.246,3.246,0,0,0-.591.926,4.894,4.894,0,0,0-.358,1.884,4.575,4.575,0,0,0,.431,2.095,2.759,2.759,0,0,0,1.255,1.251,3.885,3.885,0,0,0,1.75.409,4.151,4.151,0,0,0,1.57-.31,4.055,4.055,0,0,0,1.163-.661V339.1Z" transform="translate(-8.088 -10.295)"/><path class="cls-12" d="M286.355,342.768v-6.782h1.034v1.028a2.8,2.8,0,0,1,.731-.952,1.277,1.277,0,0,1,.737-.23,2.242,2.242,0,0,1,1.182.371l-.4,1.066a1.648,1.648,0,0,0-.844-.249,1.1,1.1,0,0,0-.677.227,1.227,1.227,0,0,0-.428.629,4.469,4.469,0,0,0-.191,1.341v3.551Z" transform="translate(-8.088 -10.295)"/><path class="cls-12" d="M295.366,340.584l1.188.147a2.9,2.9,0,0,1-1.041,1.616,3.526,3.526,0,0,1-4.3-.342,3.581,3.581,0,0,1-.872-2.57,3.746,3.746,0,0,1,.882-2.657,2.984,2.984,0,0,1,2.286-.945,2.9,2.9,0,0,1,2.223.926,3.681,3.681,0,0,1,.862,2.605c0,.068,0,.17-.007.307h-5.058a2.6,2.6,0,0,0,.632,1.711,1.882,1.882,0,0,0,1.418.594,1.755,1.755,0,0,0,1.079-.332A2.206,2.206,0,0,0,295.366,340.584Zm-3.774-1.858h3.787a2.289,2.289,0,0,0-.435-1.284,1.761,1.761,0,0,0-1.424-.664,1.823,1.823,0,0,0-1.331.53A2.093,2.093,0,0,0,291.592,338.726Z" transform="translate(-8.088 -10.295)"/><path class="cls-12" d="M302.424,341.932a4.283,4.283,0,0,1-1.229.766,3.553,3.553,0,0,1-1.268.224,2.465,2.465,0,0,1-1.718-.546,1.8,1.8,0,0,1-.6-1.4,1.855,1.855,0,0,1,.227-.91,1.882,1.882,0,0,1,.594-.661,2.791,2.791,0,0,1,.827-.376,8.2,8.2,0,0,1,1.021-.172,10.514,10.514,0,0,0,2.051-.4q.006-.237.006-.3a1.27,1.27,0,0,0-.325-.99,1.925,1.925,0,0,0-1.31-.39,2.029,2.029,0,0,0-1.2.284,1.733,1.733,0,0,0-.571,1.006l-1.124-.153a2.775,2.775,0,0,1,.5-1.166,2.215,2.215,0,0,1,1.016-.683,4.528,4.528,0,0,1,1.539-.24,4.069,4.069,0,0,1,1.411.2,1.862,1.862,0,0,1,.8.514,1.816,1.816,0,0,1,.357.782,6.5,6.5,0,0,1,.058,1.06v1.533a16.3,16.3,0,0,0,.073,2.027,2.539,2.539,0,0,0,.291.814h-1.2A2.439,2.439,0,0,1,302.424,341.932Zm-.1-2.567a8.447,8.447,0,0,1-1.878.434,4.373,4.373,0,0,0-1,.23,1,1,0,0,0-.453.374,1.015,1.015,0,0,0,.188,1.313,1.5,1.5,0,0,0,1.019.307,2.371,2.371,0,0,0,1.182-.291,1.792,1.792,0,0,0,.76-.8,2.78,2.78,0,0,0,.186-1.149Z" transform="translate(-8.088 -10.295)"/><path class="cls-12" d="M307.781,341.74l.166,1.016a4.288,4.288,0,0,1-.869.1,1.97,1.97,0,0,1-.971-.2,1.113,1.113,0,0,1-.485-.521,4.15,4.15,0,0,1-.14-1.357v-3.9h-.844v-.894h.844v-1.68l1.143-.689v2.369h1.156v.894h-1.156v3.966a2.017,2.017,0,0,0,.061.632.48.48,0,0,0,.2.224.767.767,0,0,0,.393.083A3.755,3.755,0,0,0,307.781,341.74Z" transform="translate(-8.088 -10.295)"/><path class="cls-12" d="M317.066,339.1V338l3.966-.006v3.474a6.986,6.986,0,0,1-1.884,1.1,5.593,5.593,0,0,1-1.992.367,5.316,5.316,0,0,1-2.507-.591,3.911,3.911,0,0,1-1.7-1.708,5.384,5.384,0,0,1-.574-2.5,5.8,5.8,0,0,1,.571-2.551,3.8,3.8,0,0,1,1.645-1.76,5.157,5.157,0,0,1,2.472-.575,4.9,4.9,0,0,1,1.836.329,3.052,3.052,0,0,1,1.287.917,4.056,4.056,0,0,1,.708,1.533l-1.117.306a3.474,3.474,0,0,0-.523-1.124,2.152,2.152,0,0,0-.895-.655,3.274,3.274,0,0,0-1.29-.246,3.8,3.8,0,0,0-1.469.259,2.737,2.737,0,0,0-1,.68,3.235,3.235,0,0,0-.591.926,4.9,4.9,0,0,0-.357,1.884,4.575,4.575,0,0,0,.431,2.095,2.759,2.759,0,0,0,1.255,1.251,3.888,3.888,0,0,0,1.75.409,4.161,4.161,0,0,0,1.571-.31,4.061,4.061,0,0,0,1.162-.661V339.1Z" transform="translate(-8.088 -10.295)"/><path class="cls-12" d="M322.7,342.768v-6.782h1.034v1.028a2.8,2.8,0,0,1,.731-.952,1.277,1.277,0,0,1,.737-.23,2.242,2.242,0,0,1,1.182.371l-.4,1.066a1.648,1.648,0,0,0-.844-.249,1.1,1.1,0,0,0-.677.227,1.227,1.227,0,0,0-.428.629,4.469,4.469,0,0,0-.191,1.341v3.551Z" transform="translate(-8.088 -10.295)"/><path class="cls-12" d="M331.493,341.932a4.283,4.283,0,0,1-1.229.766,3.553,3.553,0,0,1-1.268.224,2.465,2.465,0,0,1-1.718-.546,1.8,1.8,0,0,1-.6-1.4,1.855,1.855,0,0,1,.227-.91,1.882,1.882,0,0,1,.594-.661,2.791,2.791,0,0,1,.827-.376,8.2,8.2,0,0,1,1.021-.172,10.514,10.514,0,0,0,2.051-.4q.006-.237.006-.3a1.27,1.27,0,0,0-.325-.99,1.925,1.925,0,0,0-1.31-.39,2.029,2.029,0,0,0-1.2.284,1.733,1.733,0,0,0-.571,1.006l-1.124-.153a2.775,2.775,0,0,1,.5-1.166,2.215,2.215,0,0,1,1.016-.683,4.528,4.528,0,0,1,1.539-.24,4.069,4.069,0,0,1,1.411.2,1.862,1.862,0,0,1,.8.514,1.816,1.816,0,0,1,.357.782,6.5,6.5,0,0,1,.058,1.06v1.533a16.3,16.3,0,0,0,.073,2.027,2.539,2.539,0,0,0,.291.814h-1.2A2.439,2.439,0,0,1,331.493,341.932Zm-.1-2.567a8.447,8.447,0,0,1-1.878.434,4.373,4.373,0,0,0-1,.23,1,1,0,0,0-.453.374,1.015,1.015,0,0,0,.188,1.313,1.5,1.5,0,0,0,1.019.307,2.371,2.371,0,0,0,1.182-.291,1.792,1.792,0,0,0,.76-.8,2.78,2.78,0,0,0,.186-1.149Z" transform="translate(-8.088 -10.295)"/><path class="cls-12" d="M334.342,342.768v-6.782h1.034v.964a2.438,2.438,0,0,1,2.159-1.118,2.839,2.839,0,0,1,1.127.22,1.778,1.778,0,0,1,.77.578,2.229,2.229,0,0,1,.357.85,6.549,6.549,0,0,1,.063,1.117v4.17H338.7v-4.125a3.085,3.085,0,0,0-.134-1.05,1.106,1.106,0,0,0-.476-.556,1.513,1.513,0,0,0-.8-.208,1.864,1.864,0,0,0-1.268.466,2.3,2.3,0,0,0-.533,1.769v3.7Z" transform="translate(-8.088 -10.295)"/><path class="cls-12" d="M346.016,342.768v-.856a2.111,2.111,0,0,1-1.9,1.009,2.661,2.661,0,0,1-1.491-.447,2.938,2.938,0,0,1-1.054-1.249,4.315,4.315,0,0,1-.373-1.842,4.823,4.823,0,0,1,.338-1.842,2.669,2.669,0,0,1,1.016-1.268,2.714,2.714,0,0,1,1.514-.441,2.263,2.263,0,0,1,1.871.933v-3.359h1.144v9.362Zm-3.634-3.385a2.944,2.944,0,0,0,.549,1.948,1.655,1.655,0,0,0,1.3.645,1.626,1.626,0,0,0,1.281-.616,2.844,2.844,0,0,0,.526-1.881,3.191,3.191,0,0,0-.536-2.043,1.651,1.651,0,0,0-1.322-.651,1.592,1.592,0,0,0-1.28.626A3.088,3.088,0,0,0,342.382,339.383Z" transform="translate(-8.088 -10.295)"/><path class="cls-12" d="M353.315,340.284l1.13.147a2.928,2.928,0,0,1-.948,1.83,2.762,2.762,0,0,1-1.874.661,2.909,2.909,0,0,1-2.238-.91,3.69,3.69,0,0,1-.847-2.609,4.711,4.711,0,0,1,.364-1.922,2.535,2.535,0,0,1,1.108-1.236,3.28,3.28,0,0,1,1.618-.412,2.816,2.816,0,0,1,1.808.559,2.564,2.564,0,0,1,.9,1.587l-1.117.172a1.856,1.856,0,0,0-.565-1.028,1.463,1.463,0,0,0-.98-.345,1.783,1.783,0,0,0-1.411.623,2.953,2.953,0,0,0-.543,1.97,3.059,3.059,0,0,0,.523,1.986,1.706,1.706,0,0,0,1.367.619,1.608,1.608,0,0,0,1.13-.415A2.059,2.059,0,0,0,353.315,340.284Z" transform="translate(-8.088 -10.295)"/><path class="cls-12" d="M355.429,342.768v-9.362h1.149v3.359a2.567,2.567,0,0,1,2.03-.933,2.74,2.74,0,0,1,1.31.3,1.744,1.744,0,0,1,.795.821,3.776,3.776,0,0,1,.239,1.52v4.3H359.8v-4.3a1.776,1.776,0,0,0-.373-1.255,1.389,1.389,0,0,0-1.057-.393,1.871,1.871,0,0,0-.962.265,1.5,1.5,0,0,0-.642.719,3.3,3.3,0,0,0-.191,1.251v3.71Z" transform="translate(-8.088 -10.295)"/><path class="cls-12" d="M362.708,334.728v-1.322h1.149v1.322Zm0,8.04v-6.782h1.149v6.782Z" transform="translate(-8.088 -10.295)"/><path class="cls-12" d="M365.583,342.768v-9.362h1.149v9.362Z" transform="translate(-8.088 -10.295)"/><path class="cls-12" d="M372.914,342.768v-.856a2.111,2.111,0,0,1-1.9,1.009,2.661,2.661,0,0,1-1.491-.447,2.938,2.938,0,0,1-1.054-1.249,4.315,4.315,0,0,1-.373-1.842,4.823,4.823,0,0,1,.338-1.842,2.669,2.669,0,0,1,1.016-1.268,2.714,2.714,0,0,1,1.514-.441,2.263,2.263,0,0,1,1.871.933v-3.359h1.144v9.362Zm-3.634-3.385a2.944,2.944,0,0,0,.549,1.948,1.655,1.655,0,0,0,1.3.645,1.626,1.626,0,0,0,1.281-.616,2.844,2.844,0,0,0,.526-1.881,3.191,3.191,0,0,0-.536-2.043,1.651,1.651,0,0,0-1.322-.651,1.592,1.592,0,0,0-1.28.626A3.088,3.088,0,0,0,369.28,339.383Z" transform="translate(-8.088 -10.295)"/><path class="cls-12" d="M375.775,342.768v-6.782h1.034v1.028a2.8,2.8,0,0,1,.731-.952,1.277,1.277,0,0,1,.737-.23,2.242,2.242,0,0,1,1.182.371l-.4,1.066a1.648,1.648,0,0,0-.844-.249,1.1,1.1,0,0,0-.677.227,1.227,1.227,0,0,0-.428.629,4.469,4.469,0,0,0-.191,1.341v3.551Z" transform="translate(-8.088 -10.295)"/><path class="cls-12" d="M384.786,340.584l1.188.147a2.9,2.9,0,0,1-1.041,1.616,3.526,3.526,0,0,1-4.3-.342,3.581,3.581,0,0,1-.872-2.57,3.746,3.746,0,0,1,.882-2.657,2.984,2.984,0,0,1,2.286-.945,2.9,2.9,0,0,1,2.223.926,3.681,3.681,0,0,1,.862,2.605c0,.068,0,.17-.007.307h-5.058a2.6,2.6,0,0,0,.632,1.711,1.882,1.882,0,0,0,1.418.594,1.755,1.755,0,0,0,1.079-.332A2.206,2.206,0,0,0,384.786,340.584Zm-3.774-1.858H384.8a2.289,2.289,0,0,0-.435-1.284,1.761,1.761,0,0,0-1.424-.664,1.823,1.823,0,0,0-1.331.53A2.093,2.093,0,0,0,381.012,338.726Z" transform="translate(-8.088 -10.295)"/><path class="cls-12" d="M387.417,342.768v-6.782h1.034v.964a2.438,2.438,0,0,1,2.159-1.118,2.839,2.839,0,0,1,1.127.22,1.778,1.778,0,0,1,.77.578,2.229,2.229,0,0,1,.357.85,6.549,6.549,0,0,1,.063,1.117v4.17h-1.149v-4.125a3.085,3.085,0,0,0-.134-1.05,1.106,1.106,0,0,0-.476-.556,1.513,1.513,0,0,0-.8-.208,1.864,1.864,0,0,0-1.268.466,2.3,2.3,0,0,0-.533,1.769v3.7Z" transform="translate(-8.088 -10.295)"/></svg>