<svg id="Layer_1" data-name="Layer 1" xmlns="http://www.w3.org/2000/svg" viewBox="0 0 423.108 371.697"><defs><style>.cls-1{fill:none;stroke:#154168;}.cls-1,.cls-13,.cls-4,.cls-9{stroke-miterlimit:10;}.cls-14,.cls-2,.cls-5{fill:#828282;stroke-width:3px;}.cls-2,.cls-9{stroke:#2c77aa;}.cls-3{fill:#64a6da;}.cls-4{fill:#9ac5e6;}.cls-4,.cls-5{stroke:#9ac5e6;}.cls-6{fill:#9ac5e7;}.cls-7{fill:#1b587a;}.cls-8{fill:#154168;}.cls-12,.cls-9{fill:#2c77aa;}.cls-10{fill:#fff;}.cls-11,.cls-13{fill:#4d98cc;}.cls-13,.cls-14{stroke:#4d98cc;}.cls-15{fill:#231f20;}</style></defs><title>Predeceased_Parents2</title><rect class="cls-1" x="0.5" y="215.393" width="422.108" height="113.141"/><rect class="cls-1" x="0.5" y="0.5" width="422.108" height="209.443"/><line class="cls-2" x1="349.667" y1="44.664" x2="349.667" y2="245.734"/><rect class="cls-3" x="41.442" y="150.482" width="137.329" height="43.617"/><polygon class="cls-4" points="110.406 143.51 126.888 126.644 93.756 126.808 110.406 143.51"/><line class="cls-5" x1="110.107" y1="83.409" x2="110.322" y2="126.726"/><rect class="cls-6" x="93.756" y="39.791" width="307.561" height="43.617"/><path class="cls-7" d="M223.694,83.261V75H220.61V73.9h7.421V75h-3.1v8.257Z" transform="translate(-7.392 -17.049)"/><path class="cls-7" d="M229.143,83.261V76.479h1.034v1.028a2.8,2.8,0,0,1,.731-.952,1.277,1.277,0,0,1,.737-.23,2.242,2.242,0,0,1,1.182.371l-.4,1.066a1.648,1.648,0,0,0-.844-.249,1.1,1.1,0,0,0-.677.227,1.227,1.227,0,0,0-.428.629,4.469,4.469,0,0,0-.191,1.341v3.551Z" transform="translate(-7.392 -17.049)"/><path class="cls-7" d="M237.937,82.424a4.283,4.283,0,0,1-1.229.766,3.553,3.553,0,0,1-1.268.224,2.465,2.465,0,0,1-1.718-.546,1.8,1.8,0,0,1-.6-1.4,1.855,1.855,0,0,1,.227-.91,1.882,1.882,0,0,1,.594-.661,2.791,2.791,0,0,1,.827-.376,8.2,8.2,0,0,1,1.021-.172,10.514,10.514,0,0,0,2.051-.4q.006-.237.006-.3a1.27,1.27,0,0,0-.325-.99,1.925,1.925,0,0,0-1.31-.39,2.029,2.029,0,0,0-1.2.284,1.733,1.733,0,0,0-.571,1.006l-1.124-.153a2.775,2.775,0,0,1,.5-1.166,2.215,2.215,0,0,1,1.016-.683,4.528,4.528,0,0,1,1.539-.24,4.069,4.069,0,0,1,1.411.2,1.862,1.862,0,0,1,.8.514,1.816,1.816,0,0,1,.357.782,6.5,6.5,0,0,1,.058,1.06v1.533a16.3,16.3,0,0,0,.073,2.027,2.539,2.539,0,0,0,.291.814h-1.2A2.439,2.439,0,0,1,237.937,82.424Zm-.1-2.567a8.447,8.447,0,0,1-1.878.434,4.373,4.373,0,0,0-1,.23,1,1,0,0,0-.453.374,1.015,1.015,0,0,0,.188,1.313,1.5,1.5,0,0,0,1.019.307,2.371,2.371,0,0,0,1.182-.291,1.792,1.792,0,0,0,.76-.8,2.78,2.78,0,0,0,.186-1.149Z" transform="translate(-7.392 -17.049)"/><path class="cls-7" d="M240.784,83.261V76.479h1.034v.964a2.438,2.438,0,0,1,2.159-1.118,2.839,2.839,0,0,1,1.127.22,1.778,1.778,0,0,1,.77.578,2.229,2.229,0,0,1,.357.85,6.549,6.549,0,0,1,.063,1.117v4.17h-1.149V79.135a3.085,3.085,0,0,0-.134-1.05,1.106,1.106,0,0,0-.476-.556,1.513,1.513,0,0,0-.8-.208,1.864,1.864,0,0,0-1.268.466,2.3,2.3,0,0,0-.533,1.769v3.7Z" transform="translate(-7.392 -17.049)"/><path class="cls-7" d="M247.6,81.236l1.137-.179a1.586,1.586,0,0,0,.533,1.047,1.859,1.859,0,0,0,1.223.364,1.8,1.8,0,0,0,1.176-.322.966.966,0,0,0,.383-.757.7.7,0,0,0-.339-.613,4.988,4.988,0,0,0-1.175-.39,10.664,10.664,0,0,1-1.753-.552,1.672,1.672,0,0,1-.993-1.555A1.741,1.741,0,0,1,248,77.44a1.853,1.853,0,0,1,.564-.642,2.391,2.391,0,0,1,.731-.335,3.485,3.485,0,0,1,.993-.137,3.927,3.927,0,0,1,1.4.23,1.906,1.906,0,0,1,.891.623,2.437,2.437,0,0,1,.4,1.051l-1.124.153a1.23,1.23,0,0,0-.443-.817,1.625,1.625,0,0,0-1.038-.294,1.879,1.879,0,0,0-1.13.262.763.763,0,0,0-.339.613.634.634,0,0,0,.141.4,1.014,1.014,0,0,0,.44.307q.173.064,1.016.293a14.241,14.241,0,0,1,1.7.533,1.735,1.735,0,0,1,.757.6,1.688,1.688,0,0,1,.274.983,1.929,1.929,0,0,1-.336,1.083,2.163,2.163,0,0,1-.967.786,3.526,3.526,0,0,1-1.431.278,3.185,3.185,0,0,1-2.015-.549A2.555,2.555,0,0,1,247.6,81.236Z" transform="translate(-7.392 -17.049)"/><path class="cls-7" d="M254.872,83.261V77.373h-1.016v-.894h1.016v-.722a3.154,3.154,0,0,1,.121-1.015,1.473,1.473,0,0,1,.585-.725,2.1,2.1,0,0,1,1.172-.278,5.623,5.623,0,0,1,1.072.115l-.172,1a3.881,3.881,0,0,0-.677-.064,1.008,1.008,0,0,0-.741.224,1.212,1.212,0,0,0-.217.836v.626h1.321v.894h-1.321v5.888Z" transform="translate(-7.392 -17.049)"/><path class="cls-7" d="M262.874,81.077l1.188.147a2.9,2.9,0,0,1-1.041,1.616,3.526,3.526,0,0,1-4.3-.342,3.581,3.581,0,0,1-.872-2.57,3.746,3.746,0,0,1,.882-2.657,2.984,2.984,0,0,1,2.286-.945,2.9,2.9,0,0,1,2.223.926,3.681,3.681,0,0,1,.862,2.605c0,.068,0,.17-.007.307h-5.058a2.6,2.6,0,0,0,.632,1.711,1.882,1.882,0,0,0,1.418.594,1.755,1.755,0,0,0,1.079-.332A2.206,2.206,0,0,0,262.874,81.077ZM259.1,79.218h3.787a2.289,2.289,0,0,0-.435-1.284,1.761,1.761,0,0,0-1.424-.664,1.823,1.823,0,0,0-1.331.53A2.093,2.093,0,0,0,259.1,79.218Z" transform="translate(-7.392 -17.049)"/><path class="cls-7" d="M265.492,83.261V76.479h1.034v1.028a2.8,2.8,0,0,1,.731-.952,1.277,1.277,0,0,1,.737-.23,2.242,2.242,0,0,1,1.182.371l-.4,1.066a1.648,1.648,0,0,0-.844-.249,1.1,1.1,0,0,0-.677.227,1.227,1.227,0,0,0-.428.629,4.469,4.469,0,0,0-.191,1.341v3.551Z" transform="translate(-7.392 -17.049)"/><path class="cls-7" d="M269.433,79.87a3.5,3.5,0,0,1,1.047-2.791,3.155,3.155,0,0,1,2.133-.754,3.043,3.043,0,0,1,2.286.917,3.487,3.487,0,0,1,.888,2.532,4.49,4.49,0,0,1-.393,2.06A2.779,2.779,0,0,1,274.251,83a3.336,3.336,0,0,1-1.639.415,3.047,3.047,0,0,1-2.3-.913A3.646,3.646,0,0,1,269.433,79.87Zm1.181,0a2.889,2.889,0,0,0,.568,1.951,1.894,1.894,0,0,0,2.855,0,2.956,2.956,0,0,0,.568-1.986,2.8,2.8,0,0,0-.572-1.906,1.895,1.895,0,0,0-2.852,0A2.876,2.876,0,0,0,270.613,79.87Z" transform="translate(-7.392 -17.049)"/><path class="cls-7" d="M277.122,83.261V76.479h1.034v1.028a2.8,2.8,0,0,1,.731-.952,1.277,1.277,0,0,1,.737-.23,2.242,2.242,0,0,1,1.182.371l-.4,1.066a1.648,1.648,0,0,0-.844-.249,1.1,1.1,0,0,0-.677.227,1.227,1.227,0,0,0-.428.629,4.469,4.469,0,0,0-.191,1.341v3.551Z" transform="translate(-7.392 -17.049)"/><path class="cls-8" d="M18.571,41.271V31.908h1.271l4.917,7.351V31.908h1.188v9.362H24.677l-4.918-7.357v7.357Z" transform="translate(-7.392 -17.049)"/><path class="cls-8" d="M27.455,37.879A3.5,3.5,0,0,1,28.5,35.089a3.155,3.155,0,0,1,2.133-.754,3.043,3.043,0,0,1,2.286.917,3.487,3.487,0,0,1,.888,2.532,4.49,4.49,0,0,1-.393,2.06,2.779,2.779,0,0,1-1.143,1.166,3.336,3.336,0,0,1-1.639.415,3.047,3.047,0,0,1-2.3-.913A3.646,3.646,0,0,1,27.455,37.879Zm1.181,0a2.889,2.889,0,0,0,.568,1.951,1.894,1.894,0,0,0,2.855,0,2.956,2.956,0,0,0,.568-1.986,2.8,2.8,0,0,0-.572-1.906,1.895,1.895,0,0,0-2.852,0A2.876,2.876,0,0,0,28.636,37.879Z" transform="translate(-7.392 -17.049)"/><path class="cls-8" d="M35.156,41.271V34.488H36.19v.964a2.438,2.438,0,0,1,2.159-1.118,2.839,2.839,0,0,1,1.127.22,1.778,1.778,0,0,1,.77.578,2.229,2.229,0,0,1,.357.85,6.549,6.549,0,0,1,.063,1.117v4.17H39.518V37.145a3.085,3.085,0,0,0-.134-1.05,1.106,1.106,0,0,0-.476-.556,1.513,1.513,0,0,0-.8-.208,1.864,1.864,0,0,0-1.268.466,2.3,2.3,0,0,0-.533,1.769v3.7Z" transform="translate(-7.392 -17.049)"/><path class="cls-8" d="M41.983,38.46V37.3h3.531V38.46Z" transform="translate(-7.392 -17.049)"/><path class="cls-8" d="M46.512,38.263l1.168-.1a2.583,2.583,0,0,0,.387,1.152,2.108,2.108,0,0,0,.942.728,3.556,3.556,0,0,0,1.437.278,3.454,3.454,0,0,0,1.252-.21,1.741,1.741,0,0,0,.808-.578,1.339,1.339,0,0,0,.265-.8,1.22,1.22,0,0,0-.255-.77,1.9,1.9,0,0,0-.843-.553A16.7,16.7,0,0,0,50,36.95a8.511,8.511,0,0,1-1.808-.584,2.524,2.524,0,0,1-1-.872,2.132,2.132,0,0,1-.329-1.166,2.377,2.377,0,0,1,.4-1.325,2.491,2.491,0,0,1,1.175-.936,4.459,4.459,0,0,1,1.718-.319A4.687,4.687,0,0,1,52,32.084a2.652,2.652,0,0,1,1.224.987,2.826,2.826,0,0,1,.459,1.475l-1.187.089a1.917,1.917,0,0,0-.648-1.341,2.522,2.522,0,0,0-1.631-.453,2.621,2.621,0,0,0-1.639.412,1.236,1.236,0,0,0-.514.993,1.065,1.065,0,0,0,.363.83,4.933,4.933,0,0,0,1.868.667,12.349,12.349,0,0,1,2.072.6,2.841,2.841,0,0,1,1.207.955,2.328,2.328,0,0,1,.39,1.332,2.547,2.547,0,0,1-.428,1.408,2.815,2.815,0,0,1-1.229,1.028,4.285,4.285,0,0,1-1.8.367,5.382,5.382,0,0,1-2.13-.371,2.979,2.979,0,0,1-1.348-1.114A3.159,3.159,0,0,1,46.512,38.263Z" transform="translate(-7.392 -17.049)"/><path class="cls-8" d="M55.516,41.271V31.908h1.149v5.339l2.721-2.759h1.488L58.281,37l2.854,4.266H59.718L57.477,37.8l-.812.779v2.688Z" transform="translate(-7.392 -17.049)"/><path class="cls-8" d="M62.055,33.23V31.908H63.2V33.23Zm0,8.04V34.488H63.2v6.782Z" transform="translate(-7.392 -17.049)"/><path class="cls-8" d="M64.954,43.87V34.488H66v.881a2.587,2.587,0,0,1,.837-.776,2.3,2.3,0,0,1,1.13-.259,2.684,2.684,0,0,1,1.533.447,2.751,2.751,0,0,1,1,1.261,4.606,4.606,0,0,1,.338,1.785,4.534,4.534,0,0,1-.373,1.875,2.817,2.817,0,0,1-1.086,1.277,2.787,2.787,0,0,1-1.5.444,2.166,2.166,0,0,1-1.031-.243,2.346,2.346,0,0,1-.75-.613v3.3ZM66,37.918a2.948,2.948,0,0,0,.53,1.935,1.622,1.622,0,0,0,1.283.626,1.662,1.662,0,0,0,1.313-.648,3.074,3.074,0,0,0,.546-2.009,3,3,0,0,0-.533-1.941,1.607,1.607,0,0,0-1.274-.645,1.654,1.654,0,0,0-1.3.687A3.072,3.072,0,0,0,66,37.918Z" transform="translate(-7.392 -17.049)"/><path class="cls-8" d="M76.009,41.271V31.908h3.532A8.534,8.534,0,0,1,80.965,32a2.829,2.829,0,0,1,1.156.437,2.3,2.3,0,0,1,.75.9,3.047,3.047,0,0,1-.476,3.3,3.644,3.644,0,0,1-2.746.827h-2.4v3.806Zm1.239-4.911h2.42a2.566,2.566,0,0,0,1.705-.447,1.591,1.591,0,0,0,.5-1.258,1.69,1.69,0,0,0-.3-1.006A1.39,1.39,0,0,0,80.8,33.1a5.308,5.308,0,0,0-1.156-.083H77.248Z" transform="translate(-7.392 -17.049)"/><path class="cls-8" d="M89.229,39.086l1.188.147a2.9,2.9,0,0,1-1.041,1.616,3.526,3.526,0,0,1-4.3-.342,3.581,3.581,0,0,1-.872-2.57,3.746,3.746,0,0,1,.882-2.657,2.984,2.984,0,0,1,2.286-.945,2.9,2.9,0,0,1,2.223.926,3.681,3.681,0,0,1,.862,2.605c0,.068,0,.17-.007.307H85.391a2.6,2.6,0,0,0,.632,1.711,1.882,1.882,0,0,0,1.418.594,1.755,1.755,0,0,0,1.079-.332A2.206,2.206,0,0,0,89.229,39.086Zm-3.774-1.858h3.787a2.289,2.289,0,0,0-.435-1.284,1.761,1.761,0,0,0-1.424-.664,1.823,1.823,0,0,0-1.331.53A2.093,2.093,0,0,0,85.454,37.228Z" transform="translate(-7.392 -17.049)"/><path class="cls-8" d="M91.847,41.271V34.488h1.034v1.028a2.8,2.8,0,0,1,.731-.952,1.277,1.277,0,0,1,.737-.23,2.242,2.242,0,0,1,1.182.371l-.4,1.066a1.648,1.648,0,0,0-.844-.249,1.1,1.1,0,0,0-.677.227,1.227,1.227,0,0,0-.428.629A4.469,4.469,0,0,0,93,37.72v3.551Z" transform="translate(-7.392 -17.049)"/><path class="cls-8" d="M95.755,39.246l1.137-.179a1.586,1.586,0,0,0,.533,1.047,1.859,1.859,0,0,0,1.223.364,1.8,1.8,0,0,0,1.176-.322.966.966,0,0,0,.383-.757.7.7,0,0,0-.339-.613,4.988,4.988,0,0,0-1.175-.39,10.664,10.664,0,0,1-1.753-.552,1.672,1.672,0,0,1-.993-1.555,1.741,1.741,0,0,1,.208-.839,1.853,1.853,0,0,1,.564-.642,2.391,2.391,0,0,1,.731-.335,3.485,3.485,0,0,1,.993-.137,3.927,3.927,0,0,1,1.4.23,1.906,1.906,0,0,1,.891.623,2.437,2.437,0,0,1,.4,1.051l-1.124.153a1.23,1.23,0,0,0-.443-.817,1.625,1.625,0,0,0-1.038-.294,1.879,1.879,0,0,0-1.13.262.763.763,0,0,0-.339.613.634.634,0,0,0,.141.4,1.014,1.014,0,0,0,.44.307q.173.064,1.016.293a14.241,14.241,0,0,1,1.7.533,1.735,1.735,0,0,1,.757.6,1.688,1.688,0,0,1,.274.983,1.929,1.929,0,0,1-.336,1.083,2.163,2.163,0,0,1-.967.786,3.526,3.526,0,0,1-1.431.278,3.185,3.185,0,0,1-2.015-.549A2.555,2.555,0,0,1,95.755,39.246Z" transform="translate(-7.392 -17.049)"/><path class="cls-8" d="M102.326,37.879a3.5,3.5,0,0,1,1.047-2.791,3.155,3.155,0,0,1,2.133-.754,3.043,3.043,0,0,1,2.286.917,3.487,3.487,0,0,1,.888,2.532,4.49,4.49,0,0,1-.393,2.06,2.779,2.779,0,0,1-1.143,1.166,3.336,3.336,0,0,1-1.639.415,3.047,3.047,0,0,1-2.3-.913A3.646,3.646,0,0,1,102.326,37.879Zm1.181,0a2.889,2.889,0,0,0,.568,1.951,1.894,1.894,0,0,0,2.855,0,2.956,2.956,0,0,0,.568-1.986,2.8,2.8,0,0,0-.572-1.906,1.895,1.895,0,0,0-2.852,0A2.876,2.876,0,0,0,103.507,37.879Z" transform="translate(-7.392 -17.049)"/><path class="cls-8" d="M110.028,41.271V34.488h1.034v.964a2.438,2.438,0,0,1,2.159-1.118,2.839,2.839,0,0,1,1.127.22,1.778,1.778,0,0,1,.77.578,2.229,2.229,0,0,1,.357.85,6.549,6.549,0,0,1,.063,1.117v4.17H114.39V37.145a3.085,3.085,0,0,0-.134-1.05,1.106,1.106,0,0,0-.476-.556,1.513,1.513,0,0,0-.8-.208,1.864,1.864,0,0,0-1.268.466,2.3,2.3,0,0,0-.533,1.769v3.7Z" transform="translate(-7.392 -17.049)"/><path class="cls-8" d="M116.842,39.246l1.137-.179a1.586,1.586,0,0,0,.533,1.047,1.859,1.859,0,0,0,1.223.364,1.8,1.8,0,0,0,1.176-.322.966.966,0,0,0,.383-.757.7.7,0,0,0-.339-.613,4.988,4.988,0,0,0-1.175-.39,10.664,10.664,0,0,1-1.753-.552,1.672,1.672,0,0,1-.993-1.555,1.741,1.741,0,0,1,.208-.839,1.853,1.853,0,0,1,.564-.642,2.391,2.391,0,0,1,.731-.335,3.485,3.485,0,0,1,.993-.137,3.927,3.927,0,0,1,1.4.23,1.906,1.906,0,0,1,.891.623,2.437,2.437,0,0,1,.4,1.051l-1.124.153a1.23,1.23,0,0,0-.443-.817,1.625,1.625,0,0,0-1.038-.294,1.879,1.879,0,0,0-1.13.262.763.763,0,0,0-.339.613.634.634,0,0,0,.141.4,1.014,1.014,0,0,0,.44.307q.173.064,1.016.293a14.241,14.241,0,0,1,1.7.533,1.735,1.735,0,0,1,.757.6,1.688,1.688,0,0,1,.274.983,1.929,1.929,0,0,1-.336,1.083,2.163,2.163,0,0,1-.967.786,3.526,3.526,0,0,1-1.431.278,3.185,3.185,0,0,1-2.015-.549A2.555,2.555,0,0,1,116.842,39.246Z" transform="translate(-7.392 -17.049)"/><path class="cls-8" d="M25.93,253.75l1.168-.1a2.589,2.589,0,0,0,.387,1.152,2.107,2.107,0,0,0,.942.728,3.556,3.556,0,0,0,1.437.278,3.443,3.443,0,0,0,1.252-.211,1.745,1.745,0,0,0,.808-.578,1.337,1.337,0,0,0,.265-.8,1.217,1.217,0,0,0-.255-.77,1.887,1.887,0,0,0-.843-.553,16.793,16.793,0,0,0-1.667-.457,8.575,8.575,0,0,1-1.808-.584,2.532,2.532,0,0,1-1-.872,2.131,2.131,0,0,1-.329-1.165,2.383,2.383,0,0,1,.4-1.326,2.494,2.494,0,0,1,1.175-.936,4.459,4.459,0,0,1,1.718-.318,4.687,4.687,0,0,1,1.836.335,2.647,2.647,0,0,1,1.224.987,2.824,2.824,0,0,1,.459,1.475l-1.188.09a1.918,1.918,0,0,0-.648-1.342,2.519,2.519,0,0,0-1.631-.453A2.614,2.614,0,0,0,28,248.74a1.234,1.234,0,0,0-.514.992,1.064,1.064,0,0,0,.363.83,4.922,4.922,0,0,0,1.868.668,12.337,12.337,0,0,1,2.072.6,2.833,2.833,0,0,1,1.207.954,2.326,2.326,0,0,1,.39,1.331,2.545,2.545,0,0,1-.428,1.408,2.817,2.817,0,0,1-1.229,1.029,4.292,4.292,0,0,1-1.8.367,5.381,5.381,0,0,1-2.13-.371,2.976,2.976,0,0,1-1.348-1.114A3.159,3.159,0,0,1,25.93,253.75Z" transform="translate(-7.392 -17.049)"/><path class="cls-8" d="M34.934,256.758V247.4h1.149v5.339l2.721-2.759h1.488L37.7,252.492l2.854,4.266H39.136l-2.241-3.468-.812.779v2.688Z" transform="translate(-7.392 -17.049)"/><path class="cls-8" d="M41.473,248.718V247.4h1.149v1.322Zm0,8.04v-6.782h1.149v6.782Z" transform="translate(-7.392 -17.049)"/><path class="cls-8" d="M44.373,259.357v-9.382H45.42v.882a2.583,2.583,0,0,1,.837-.776,2.293,2.293,0,0,1,1.13-.259,2.684,2.684,0,0,1,1.533.447,2.752,2.752,0,0,1,1,1.262,4.6,4.6,0,0,1,.338,1.784,4.528,4.528,0,0,1-.373,1.874,2.842,2.842,0,0,1-2.584,1.722,2.161,2.161,0,0,1-1.031-.243,2.327,2.327,0,0,1-.75-.613v3.3Zm1.041-5.952a2.949,2.949,0,0,0,.53,1.935,1.621,1.621,0,0,0,1.283.626,1.663,1.663,0,0,0,1.313-.647,3.076,3.076,0,0,0,.546-2.01,3,3,0,0,0-.533-1.941,1.606,1.606,0,0,0-1.274-.645,1.652,1.652,0,0,0-1.3.687A3.072,3.072,0,0,0,45.414,253.405Z" transform="translate(-7.392 -17.049)"/><path class="cls-8" d="M55.427,256.758V247.4h3.532a8.653,8.653,0,0,1,1.424.089,2.835,2.835,0,0,1,1.156.438,2.309,2.309,0,0,1,.75.9,3.048,3.048,0,0,1-.476,3.3,3.648,3.648,0,0,1-2.746.826h-2.4v3.807Zm1.239-4.911h2.42a2.572,2.572,0,0,0,1.705-.446,1.593,1.593,0,0,0,.5-1.259,1.689,1.689,0,0,0-.3-1.006,1.389,1.389,0,0,0-.782-.552,5.258,5.258,0,0,0-1.156-.084H56.666Z" transform="translate(-7.392 -17.049)"/><path class="cls-8" d="M68.646,254.574l1.188.146a2.9,2.9,0,0,1-1.041,1.615,3.524,3.524,0,0,1-4.3-.342,3.579,3.579,0,0,1-.872-2.57,3.745,3.745,0,0,1,.882-2.656,2.984,2.984,0,0,1,2.286-.945,2.9,2.9,0,0,1,2.223.926,3.682,3.682,0,0,1,.862,2.605c0,.068,0,.171-.007.307H64.809a2.6,2.6,0,0,0,.632,1.712,1.883,1.883,0,0,0,1.418.594,1.755,1.755,0,0,0,1.079-.332A2.212,2.212,0,0,0,68.646,254.574Zm-3.774-1.859h3.787a2.288,2.288,0,0,0-.435-1.283,1.76,1.76,0,0,0-1.424-.664,1.823,1.823,0,0,0-1.331.53A2.091,2.091,0,0,0,64.872,252.715Z" transform="translate(-7.392 -17.049)"/><path class="cls-8" d="M71.266,256.758v-6.782H72.3V251a2.8,2.8,0,0,1,.731-.951,1.27,1.27,0,0,1,.737-.23,2.234,2.234,0,0,1,1.182.371l-.4,1.066a1.649,1.649,0,0,0-.844-.25,1.1,1.1,0,0,0-.677.227,1.232,1.232,0,0,0-.428.63,4.471,4.471,0,0,0-.191,1.341v3.551Z" transform="translate(-7.392 -17.049)"/><path class="cls-8" d="M75.173,254.733l1.137-.179a1.584,1.584,0,0,0,.533,1.047,1.856,1.856,0,0,0,1.223.364,1.8,1.8,0,0,0,1.176-.322.966.966,0,0,0,.383-.757.7.7,0,0,0-.339-.613,4.988,4.988,0,0,0-1.175-.39,10.676,10.676,0,0,1-1.753-.552,1.673,1.673,0,0,1-.993-1.556,1.739,1.739,0,0,1,.208-.839,1.851,1.851,0,0,1,.564-.643,2.391,2.391,0,0,1,.731-.336,3.5,3.5,0,0,1,.993-.137,3.906,3.906,0,0,1,1.4.23,1.9,1.9,0,0,1,.891.622,2.44,2.44,0,0,1,.4,1.051l-1.124.153a1.23,1.23,0,0,0-.443-.817,1.622,1.622,0,0,0-1.038-.294,1.882,1.882,0,0,0-1.13.262.763.763,0,0,0-.339.613.635.635,0,0,0,.141.4,1.018,1.018,0,0,0,.44.307q.173.064,1.016.293a14.428,14.428,0,0,1,1.7.533,1.735,1.735,0,0,1,.757.6,1.69,1.69,0,0,1,.274.984,1.928,1.928,0,0,1-.336,1.082,2.162,2.162,0,0,1-.967.785,3.518,3.518,0,0,1-1.431.278,3.179,3.179,0,0,1-2.015-.55A2.551,2.551,0,0,1,75.173,254.733Z" transform="translate(-7.392 -17.049)"/><path class="cls-8" d="M81.745,253.367a3.5,3.5,0,0,1,1.047-2.791,3.157,3.157,0,0,1,2.133-.754,3.044,3.044,0,0,1,2.286.916,3.488,3.488,0,0,1,.888,2.533,4.485,4.485,0,0,1-.393,2.059,2.78,2.78,0,0,1-1.143,1.166,3.336,3.336,0,0,1-1.639.415,3.045,3.045,0,0,1-2.3-.913A3.647,3.647,0,0,1,81.745,253.367Zm1.181,0a2.891,2.891,0,0,0,.568,1.951,1.894,1.894,0,0,0,2.855,0,2.955,2.955,0,0,0,.568-1.986,2.805,2.805,0,0,0-.572-1.906,1.895,1.895,0,0,0-2.852,0A2.877,2.877,0,0,0,82.926,253.367Z" transform="translate(-7.392 -17.049)"/><path class="cls-8" d="M89.446,256.758v-6.782H90.48v.964a2.44,2.44,0,0,1,2.159-1.117,2.84,2.84,0,0,1,1.127.221,1.775,1.775,0,0,1,.77.578,2.226,2.226,0,0,1,.357.85,6.546,6.546,0,0,1,.063,1.117v4.17H93.808v-4.125a3.089,3.089,0,0,0-.134-1.051,1.1,1.1,0,0,0-.476-.556,1.513,1.513,0,0,0-.8-.208,1.864,1.864,0,0,0-1.268.467,2.3,2.3,0,0,0-.533,1.769v3.7Z" transform="translate(-7.392 -17.049)"/><path class="cls-8" d="M96.261,254.733l1.137-.179a1.584,1.584,0,0,0,.533,1.047,1.856,1.856,0,0,0,1.223.364,1.8,1.8,0,0,0,1.176-.322.966.966,0,0,0,.383-.757.7.7,0,0,0-.339-.613,4.988,4.988,0,0,0-1.175-.39,10.676,10.676,0,0,1-1.753-.552,1.673,1.673,0,0,1-.993-1.556,1.739,1.739,0,0,1,.208-.839,1.851,1.851,0,0,1,.564-.643,2.391,2.391,0,0,1,.731-.336,3.5,3.5,0,0,1,.993-.137,3.906,3.906,0,0,1,1.4.23,1.9,1.9,0,0,1,.891.622,2.44,2.44,0,0,1,.4,1.051l-1.124.153a1.23,1.23,0,0,0-.443-.817,1.622,1.622,0,0,0-1.038-.294,1.882,1.882,0,0,0-1.13.262.763.763,0,0,0-.339.613.635.635,0,0,0,.141.4,1.018,1.018,0,0,0,.44.307q.173.064,1.016.293a14.428,14.428,0,0,1,1.7.533,1.735,1.735,0,0,1,.757.6,1.69,1.69,0,0,1,.274.984,1.928,1.928,0,0,1-.336,1.082,2.162,2.162,0,0,1-.967.785,3.518,3.518,0,0,1-1.431.278,3.179,3.179,0,0,1-2.015-.55A2.551,2.551,0,0,1,96.261,254.733Z" transform="translate(-7.392 -17.049)"/><polygon class="cls-9" points="349.751 262.602 366.234 245.735 333.101 245.899 349.751 262.602"/><path class="cls-10" d="M111.018,191.332l1.238.313a4.171,4.171,0,0,1-1.4,2.328,3.858,3.858,0,0,1-2.475.8,4.45,4.45,0,0,1-2.462-.616,3.842,3.842,0,0,1-1.443-1.785,6.366,6.366,0,0,1-.5-2.51,5.52,5.52,0,0,1,.559-2.551,3.826,3.826,0,0,1,1.591-1.654,4.641,4.641,0,0,1,2.27-.565,3.842,3.842,0,0,1,2.363.716,3.714,3.714,0,0,1,1.335,2.012l-1.22.287a2.9,2.9,0,0,0-.945-1.488,2.522,2.522,0,0,0-1.559-.467,3.033,3.033,0,0,0-1.8.518,2.735,2.735,0,0,0-1.019,1.389,5.591,5.591,0,0,0-.294,1.8,5.72,5.72,0,0,0,.348,2.084,2.587,2.587,0,0,0,1.083,1.332,3.033,3.033,0,0,0,1.59.441,2.665,2.665,0,0,0,1.763-.6A3.069,3.069,0,0,0,111.018,191.332Z" transform="translate(-7.392 -17.049)"/><path class="cls-10" d="M113.636,194.615v-9.363h1.149v3.359a2.567,2.567,0,0,1,2.03-.932,2.735,2.735,0,0,1,1.31.3,1.736,1.736,0,0,1,.795.82,3.775,3.775,0,0,1,.239,1.52v4.3H118.01v-4.3a1.774,1.774,0,0,0-.373-1.254,1.389,1.389,0,0,0-1.057-.393,1.875,1.875,0,0,0-.962.264,1.507,1.507,0,0,0-.642.719,3.3,3.3,0,0,0-.191,1.252v3.711Z" transform="translate(-7.392 -17.049)"/><path class="cls-10" d="M120.915,186.574v-1.322h1.149v1.322Zm0,8.041v-6.783h1.149v6.783Z" transform="translate(-7.392 -17.049)"/><path class="cls-10" d="M123.79,194.615v-9.363h1.149v9.363Z" transform="translate(-7.392 -17.049)"/><path class="cls-10" d="M131.121,194.615v-.856a2.11,2.11,0,0,1-1.9,1.009,2.657,2.657,0,0,1-1.491-.447,2.928,2.928,0,0,1-1.054-1.248,4.314,4.314,0,0,1-.373-1.842,4.824,4.824,0,0,1,.338-1.843,2.669,2.669,0,0,1,1.016-1.268,2.714,2.714,0,0,1,1.514-.44,2.265,2.265,0,0,1,1.092.258,2.293,2.293,0,0,1,.779.674v-3.359h1.144v9.363Zm-3.634-3.385a2.944,2.944,0,0,0,.549,1.947,1.656,1.656,0,0,0,1.3.645,1.628,1.628,0,0,0,1.281-.615,2.846,2.846,0,0,0,.526-1.881,3.193,3.193,0,0,0-.536-2.044,1.65,1.65,0,0,0-1.322-.651,1.593,1.593,0,0,0-1.28.626A3.089,3.089,0,0,0,127.487,191.23Z" transform="translate(-7.392 -17.049)"/><rect class="cls-11" x="195.118" y="150.482" width="137.329" height="43.617"/><path class="cls-10" d="M246.851,189.854v-1.1l3.966-.006v3.475a7.023,7.023,0,0,1-1.884,1.095,5.583,5.583,0,0,1-1.992.367,5.31,5.31,0,0,1-2.507-.591,3.909,3.909,0,0,1-1.7-1.708,5.382,5.382,0,0,1-.574-2.5,5.792,5.792,0,0,1,.571-2.551,3.8,3.8,0,0,1,1.645-1.76,5.157,5.157,0,0,1,2.472-.575,4.906,4.906,0,0,1,1.836.329,3.055,3.055,0,0,1,1.287.916,4.062,4.062,0,0,1,.708,1.533l-1.117.307a3.477,3.477,0,0,0-.523-1.124,2.153,2.153,0,0,0-.895-.655,3.274,3.274,0,0,0-1.29-.246,3.789,3.789,0,0,0-1.469.26,2.725,2.725,0,0,0-1,.68,3.242,3.242,0,0,0-.591.926,4.9,4.9,0,0,0-.357,1.885,4.571,4.571,0,0,0,.431,2.094,2.757,2.757,0,0,0,1.255,1.252,3.888,3.888,0,0,0,1.75.408,4.17,4.17,0,0,0,1.571-.309,4.072,4.072,0,0,0,1.162-.662v-1.742Z" transform="translate(-7.392 -17.049)"/><path class="cls-10" d="M252.483,193.525v-6.783h1.034v1.029a2.8,2.8,0,0,1,.731-.952,1.276,1.276,0,0,1,.737-.229,2.241,2.241,0,0,1,1.182.37l-.4,1.066a1.648,1.648,0,0,0-.844-.249,1.1,1.1,0,0,0-.677.227,1.229,1.229,0,0,0-.428.629,4.473,4.473,0,0,0-.191,1.342v3.551Z" transform="translate(-7.392 -17.049)"/><path class="cls-10" d="M261.277,192.688a4.286,4.286,0,0,1-1.229.767,3.564,3.564,0,0,1-1.268.223,2.467,2.467,0,0,1-1.718-.545,1.806,1.806,0,0,1-.6-1.4,1.856,1.856,0,0,1,.227-.91,1.883,1.883,0,0,1,.594-.66,2.792,2.792,0,0,1,.827-.377,8.124,8.124,0,0,1,1.021-.172,10.544,10.544,0,0,0,2.051-.4c0-.158.006-.258.006-.3a1.269,1.269,0,0,0-.325-.989,1.925,1.925,0,0,0-1.31-.39,2.029,2.029,0,0,0-1.2.284,1.732,1.732,0,0,0-.571,1.006l-1.124-.153a2.786,2.786,0,0,1,.5-1.166,2.218,2.218,0,0,1,1.016-.683,4.54,4.54,0,0,1,1.539-.239,4.082,4.082,0,0,1,1.411.2,1.854,1.854,0,0,1,.8.515,1.812,1.812,0,0,1,.357.781,6.506,6.506,0,0,1,.058,1.061v1.533a16.31,16.31,0,0,0,.073,2.027,2.539,2.539,0,0,0,.291.814h-1.2A2.442,2.442,0,0,1,261.277,192.688Zm-.1-2.567a8.479,8.479,0,0,1-1.878.434,4.368,4.368,0,0,0-1,.23,1.011,1.011,0,0,0-.453.373,1.015,1.015,0,0,0,.188,1.313,1.492,1.492,0,0,0,1.019.307,2.365,2.365,0,0,0,1.182-.29,1.793,1.793,0,0,0,.76-.8,2.777,2.777,0,0,0,.186-1.148Z" transform="translate(-7.392 -17.049)"/><path class="cls-10" d="M264.126,193.525v-6.783h1.034v.965a2.438,2.438,0,0,1,2.159-1.117,2.839,2.839,0,0,1,1.127.22,1.782,1.782,0,0,1,.77.578,2.233,2.233,0,0,1,.357.85,6.546,6.546,0,0,1,.063,1.117v4.171h-1.149V189.4a3.082,3.082,0,0,0-.134-1.05,1.11,1.11,0,0,0-.476-.557,1.513,1.513,0,0,0-.8-.207,1.864,1.864,0,0,0-1.268.466,2.3,2.3,0,0,0-.533,1.769v3.705Z" transform="translate(-7.392 -17.049)"/><path class="cls-10" d="M275.8,193.525v-.856a2.11,2.11,0,0,1-1.9,1.009,2.657,2.657,0,0,1-1.491-.447,2.928,2.928,0,0,1-1.054-1.248,4.314,4.314,0,0,1-.373-1.842,4.824,4.824,0,0,1,.338-1.843,2.669,2.669,0,0,1,1.016-1.268,2.714,2.714,0,0,1,1.514-.44,2.265,2.265,0,0,1,1.092.258,2.293,2.293,0,0,1,.779.674v-3.359h1.144v9.363Zm-3.634-3.385a2.944,2.944,0,0,0,.549,1.947,1.656,1.656,0,0,0,1.3.645,1.628,1.628,0,0,0,1.281-.615,2.846,2.846,0,0,0,.526-1.881,3.193,3.193,0,0,0-.536-2.044,1.65,1.65,0,0,0-1.322-.651,1.593,1.593,0,0,0-1.28.626A3.089,3.089,0,0,0,272.166,190.141Z" transform="translate(-7.392 -17.049)"/><path class="cls-10" d="M283.1,191.041l1.13.146a2.932,2.932,0,0,1-.948,1.83,2.763,2.763,0,0,1-1.874.66,2.907,2.907,0,0,1-2.238-.91,3.687,3.687,0,0,1-.847-2.608,4.712,4.712,0,0,1,.364-1.922A2.527,2.527,0,0,1,279.795,187a3.275,3.275,0,0,1,1.618-.412,2.813,2.813,0,0,1,1.808.559,2.565,2.565,0,0,1,.9,1.587l-1.117.173a1.859,1.859,0,0,0-.565-1.029,1.465,1.465,0,0,0-.98-.344,1.783,1.783,0,0,0-1.411.622,2.952,2.952,0,0,0-.543,1.97,3.056,3.056,0,0,0,.523,1.986,1.7,1.7,0,0,0,1.367.619,1.61,1.61,0,0,0,1.13-.414A2.062,2.062,0,0,0,283.1,191.041Z" transform="translate(-7.392 -17.049)"/><path class="cls-10" d="M285.213,193.525v-9.363h1.149v3.359a2.567,2.567,0,0,1,2.03-.932,2.735,2.735,0,0,1,1.31.3,1.736,1.736,0,0,1,.795.82,3.775,3.775,0,0,1,.239,1.52v4.3h-1.149v-4.3a1.774,1.774,0,0,0-.373-1.254,1.389,1.389,0,0,0-1.057-.393,1.875,1.875,0,0,0-.962.264,1.507,1.507,0,0,0-.642.719,3.3,3.3,0,0,0-.191,1.252v3.711Z" transform="translate(-7.392 -17.049)"/><path class="cls-10" d="M292.492,185.484v-1.322h1.149v1.322Zm0,8.041v-6.783h1.149v6.783Z" transform="translate(-7.392 -17.049)"/><path class="cls-10" d="M295.367,193.525v-9.363h1.149v9.363Z" transform="translate(-7.392 -17.049)"/><path class="cls-10" d="M302.7,193.525v-.856a2.11,2.11,0,0,1-1.9,1.009,2.657,2.657,0,0,1-1.491-.447,2.928,2.928,0,0,1-1.054-1.248,4.314,4.314,0,0,1-.373-1.842,4.824,4.824,0,0,1,.338-1.843,2.669,2.669,0,0,1,1.016-1.268,2.714,2.714,0,0,1,1.514-.44,2.265,2.265,0,0,1,1.092.258,2.293,2.293,0,0,1,.779.674v-3.359h1.144v9.363Zm-3.634-3.385a2.944,2.944,0,0,0,.549,1.947,1.656,1.656,0,0,0,1.3.645,1.628,1.628,0,0,0,1.281-.615,2.846,2.846,0,0,0,.526-1.881,3.193,3.193,0,0,0-.536-2.044,1.65,1.65,0,0,0-1.322-.651,1.593,1.593,0,0,0-1.28.626A3.089,3.089,0,0,0,299.064,190.141Z" transform="translate(-7.392 -17.049)"/><rect class="cls-12" x="255.934" y="268.332" width="137.329" height="43.617"/><path class="cls-10" d="M280.027,307.7v-1.1l3.966-.007v3.475a7,7,0,0,1-1.884,1.1,5.6,5.6,0,0,1-1.992.367,5.31,5.31,0,0,1-2.507-.592,3.907,3.907,0,0,1-1.7-1.707,5.389,5.389,0,0,1-.574-2.5,5.8,5.8,0,0,1,.571-2.551,3.8,3.8,0,0,1,1.645-1.76,5.156,5.156,0,0,1,2.472-.574,4.906,4.906,0,0,1,1.836.328,3.057,3.057,0,0,1,1.287.917,4.057,4.057,0,0,1,.708,1.532l-1.117.307a3.461,3.461,0,0,0-.523-1.123,2.145,2.145,0,0,0-.895-.655,3.274,3.274,0,0,0-1.29-.246,3.808,3.808,0,0,0-1.469.259,2.737,2.737,0,0,0-1,.68,3.242,3.242,0,0,0-.591.926,4.907,4.907,0,0,0-.357,1.885,4.575,4.575,0,0,0,.431,2.095,2.755,2.755,0,0,0,1.255,1.251,3.876,3.876,0,0,0,1.75.409,4.152,4.152,0,0,0,1.571-.31,4.073,4.073,0,0,0,1.162-.661V307.7Z" transform="translate(-7.392 -17.049)"/><path class="cls-10" d="M285.66,311.375v-6.782h1.034v1.028a2.8,2.8,0,0,1,.731-.951,1.27,1.27,0,0,1,.737-.23,2.234,2.234,0,0,1,1.182.371l-.4,1.066a1.649,1.649,0,0,0-.844-.25,1.1,1.1,0,0,0-.677.227,1.232,1.232,0,0,0-.428.63,4.471,4.471,0,0,0-.191,1.341v3.551Z" transform="translate(-7.392 -17.049)"/><path class="cls-10" d="M294.671,309.191l1.188.146a2.9,2.9,0,0,1-1.041,1.615,3.524,3.524,0,0,1-4.3-.342,3.579,3.579,0,0,1-.872-2.57,3.745,3.745,0,0,1,.882-2.656,2.984,2.984,0,0,1,2.286-.945,2.9,2.9,0,0,1,2.223.926,3.682,3.682,0,0,1,.862,2.605c0,.068,0,.171-.007.307h-5.058a2.6,2.6,0,0,0,.632,1.712,1.883,1.883,0,0,0,1.418.594,1.755,1.755,0,0,0,1.079-.332A2.212,2.212,0,0,0,294.671,309.191Zm-3.774-1.859h3.787a2.288,2.288,0,0,0-.435-1.283,1.76,1.76,0,0,0-1.424-.664,1.823,1.823,0,0,0-1.331.53A2.091,2.091,0,0,0,290.9,307.332Z" transform="translate(-7.392 -17.049)"/><path class="cls-10" d="M301.729,310.539a4.281,4.281,0,0,1-1.229.766,3.564,3.564,0,0,1-1.268.224,2.467,2.467,0,0,1-1.718-.546,1.8,1.8,0,0,1-.6-1.4,1.853,1.853,0,0,1,.227-.91,1.878,1.878,0,0,1,.594-.661,2.817,2.817,0,0,1,.827-.377,8.31,8.31,0,0,1,1.021-.172,10.47,10.47,0,0,0,2.051-.4c0-.157.006-.258.006-.3a1.269,1.269,0,0,0-.325-.989,1.925,1.925,0,0,0-1.31-.391,2.029,2.029,0,0,0-1.2.285,1.732,1.732,0,0,0-.571,1.006l-1.124-.154a2.776,2.776,0,0,1,.5-1.165,2.211,2.211,0,0,1,1.016-.683,4.516,4.516,0,0,1,1.539-.24,4.057,4.057,0,0,1,1.411.205,1.853,1.853,0,0,1,.8.514,1.816,1.816,0,0,1,.357.782,6.5,6.5,0,0,1,.058,1.06v1.533a16.31,16.31,0,0,0,.073,2.027,2.539,2.539,0,0,0,.291.814h-1.2A2.443,2.443,0,0,1,301.729,310.539Zm-.1-2.568a8.415,8.415,0,0,1-1.878.435,4.433,4.433,0,0,0-1,.229,1.013,1.013,0,0,0-.453.374,1.015,1.015,0,0,0,.188,1.313,1.5,1.5,0,0,0,1.019.307,2.376,2.376,0,0,0,1.182-.29,1.793,1.793,0,0,0,.76-.8,2.779,2.779,0,0,0,.186-1.149Z" transform="translate(-7.392 -17.049)"/><path class="cls-10" d="M307.086,310.347l.166,1.016a4.327,4.327,0,0,1-.869.1,1.97,1.97,0,0,1-.971-.2,1.111,1.111,0,0,1-.485-.521,4.152,4.152,0,0,1-.14-1.357v-3.9h-.844v-.894h.844v-1.68l1.143-.689v2.369h1.156v.894H305.93v3.967a2.013,2.013,0,0,0,.061.632.478.478,0,0,0,.2.224.772.772,0,0,0,.393.083A3.676,3.676,0,0,0,307.086,310.347Z" transform="translate(-7.392 -17.049)"/><path class="cls-10" d="M316.371,307.7v-1.1l3.966-.007v3.475a7,7,0,0,1-1.884,1.1,5.6,5.6,0,0,1-1.992.367,5.31,5.31,0,0,1-2.507-.592,3.907,3.907,0,0,1-1.7-1.707,5.389,5.389,0,0,1-.574-2.5,5.8,5.8,0,0,1,.571-2.551,3.8,3.8,0,0,1,1.645-1.76,5.156,5.156,0,0,1,2.472-.574,4.906,4.906,0,0,1,1.836.328,3.057,3.057,0,0,1,1.287.917,4.057,4.057,0,0,1,.708,1.532l-1.117.307a3.461,3.461,0,0,0-.523-1.123,2.145,2.145,0,0,0-.895-.655,3.274,3.274,0,0,0-1.29-.246,3.808,3.808,0,0,0-1.469.259,2.737,2.737,0,0,0-1,.68,3.242,3.242,0,0,0-.591.926,4.907,4.907,0,0,0-.357,1.885,4.575,4.575,0,0,0,.431,2.095,2.755,2.755,0,0,0,1.255,1.251,3.876,3.876,0,0,0,1.75.409,4.152,4.152,0,0,0,1.571-.31,4.073,4.073,0,0,0,1.162-.661V307.7Z" transform="translate(-7.392 -17.049)"/><path class="cls-10" d="M322,311.375v-6.782h1.034v1.028a2.8,2.8,0,0,1,.731-.951,1.27,1.27,0,0,1,.737-.23,2.234,2.234,0,0,1,1.182.371l-.4,1.066a1.649,1.649,0,0,0-.844-.25,1.1,1.1,0,0,0-.677.227,1.232,1.232,0,0,0-.428.63,4.471,4.471,0,0,0-.191,1.341v3.551Z" transform="translate(-7.392 -17.049)"/><path class="cls-10" d="M330.8,310.539a4.281,4.281,0,0,1-1.229.766,3.564,3.564,0,0,1-1.268.224,2.467,2.467,0,0,1-1.718-.546,1.8,1.8,0,0,1-.6-1.4,1.853,1.853,0,0,1,.227-.91,1.878,1.878,0,0,1,.594-.661,2.817,2.817,0,0,1,.827-.377,8.31,8.31,0,0,1,1.021-.172,10.47,10.47,0,0,0,2.051-.4c0-.157.006-.258.006-.3a1.269,1.269,0,0,0-.325-.989,1.925,1.925,0,0,0-1.31-.391,2.029,2.029,0,0,0-1.2.285,1.732,1.732,0,0,0-.571,1.006l-1.124-.154a2.776,2.776,0,0,1,.5-1.165,2.211,2.211,0,0,1,1.016-.683,4.516,4.516,0,0,1,1.539-.24,4.057,4.057,0,0,1,1.411.205,1.853,1.853,0,0,1,.8.514,1.816,1.816,0,0,1,.357.782,6.5,6.5,0,0,1,.058,1.06v1.533a16.31,16.31,0,0,0,.073,2.027,2.539,2.539,0,0,0,.291.814h-1.2A2.443,2.443,0,0,1,330.8,310.539Zm-.1-2.568a8.415,8.415,0,0,1-1.878.435,4.433,4.433,0,0,0-1,.229,1.013,1.013,0,0,0-.453.374,1.015,1.015,0,0,0,.188,1.313,1.5,1.5,0,0,0,1.019.307,2.376,2.376,0,0,0,1.182-.29,1.793,1.793,0,0,0,.76-.8,2.779,2.779,0,0,0,.186-1.149Z" transform="translate(-7.392 -17.049)"/><path class="cls-10" d="M333.646,311.375v-6.782h1.034v.964a2.44,2.44,0,0,1,2.159-1.117,2.84,2.84,0,0,1,1.127.221,1.775,1.775,0,0,1,.77.578,2.226,2.226,0,0,1,.357.85,6.546,6.546,0,0,1,.063,1.117v4.17h-1.149V307.25a3.089,3.089,0,0,0-.134-1.051,1.1,1.1,0,0,0-.476-.556,1.513,1.513,0,0,0-.8-.208,1.864,1.864,0,0,0-1.268.467,2.3,2.3,0,0,0-.533,1.769v3.7Z" transform="translate(-7.392 -17.049)"/><path class="cls-10" d="M345.32,311.375v-.855a2.112,2.112,0,0,1-1.9,1.009,2.664,2.664,0,0,1-1.491-.447,2.937,2.937,0,0,1-1.054-1.249,4.311,4.311,0,0,1-.373-1.842,4.819,4.819,0,0,1,.338-1.842,2.664,2.664,0,0,1,1.016-1.268,2.707,2.707,0,0,1,1.514-.441,2.255,2.255,0,0,1,1.092.259,2.293,2.293,0,0,1,.779.674v-3.359h1.144v9.362Zm-3.634-3.385a2.942,2.942,0,0,0,.549,1.947,1.654,1.654,0,0,0,1.3.646,1.626,1.626,0,0,0,1.281-.616,2.843,2.843,0,0,0,.526-1.881,3.188,3.188,0,0,0-.536-2.043,1.651,1.651,0,0,0-1.322-.652,1.592,1.592,0,0,0-1.28.627A3.084,3.084,0,0,0,341.687,307.99Z" transform="translate(-7.392 -17.049)"/><path class="cls-10" d="M352.62,308.891l1.13.146a2.929,2.929,0,0,1-.948,1.83,2.759,2.759,0,0,1-1.874.661,2.911,2.911,0,0,1-2.238-.91,3.689,3.689,0,0,1-.847-2.608,4.709,4.709,0,0,1,.364-1.922,2.534,2.534,0,0,1,1.108-1.236,3.275,3.275,0,0,1,1.618-.412,2.819,2.819,0,0,1,1.808.559,2.568,2.568,0,0,1,.9,1.588l-1.117.172a1.856,1.856,0,0,0-.565-1.028,1.466,1.466,0,0,0-.98-.345,1.78,1.78,0,0,0-1.411.623,2.95,2.95,0,0,0-.543,1.97,3.059,3.059,0,0,0,.523,1.986,1.7,1.7,0,0,0,1.367.619,1.606,1.606,0,0,0,1.13-.415A2.062,2.062,0,0,0,352.62,308.891Z" transform="translate(-7.392 -17.049)"/><path class="cls-10" d="M354.733,311.375v-9.362h1.149v3.359a2.565,2.565,0,0,1,2.03-.933,2.746,2.746,0,0,1,1.31.3,1.745,1.745,0,0,1,.795.82,3.78,3.78,0,0,1,.239,1.521v4.3h-1.149v-4.3a1.775,1.775,0,0,0-.373-1.255,1.389,1.389,0,0,0-1.057-.393,1.866,1.866,0,0,0-.962.265,1.5,1.5,0,0,0-.642.719,3.293,3.293,0,0,0-.191,1.251v3.711Z" transform="translate(-7.392 -17.049)"/><path class="cls-10" d="M362.013,303.335v-1.322h1.149v1.322Zm0,8.04v-6.782h1.149v6.782Z" transform="translate(-7.392 -17.049)"/><path class="cls-10" d="M364.888,311.375v-9.362h1.149v9.362Z" transform="translate(-7.392 -17.049)"/><path class="cls-10" d="M372.219,311.375v-.855a2.112,2.112,0,0,1-1.9,1.009,2.664,2.664,0,0,1-1.491-.447,2.937,2.937,0,0,1-1.054-1.249,4.311,4.311,0,0,1-.373-1.842,4.819,4.819,0,0,1,.338-1.842,2.664,2.664,0,0,1,1.016-1.268,2.707,2.707,0,0,1,1.514-.441,2.255,2.255,0,0,1,1.092.259,2.293,2.293,0,0,1,.779.674v-3.359h1.144v9.362Zm-3.634-3.385a2.942,2.942,0,0,0,.549,1.947,1.654,1.654,0,0,0,1.3.646,1.626,1.626,0,0,0,1.281-.616,2.843,2.843,0,0,0,.526-1.881,3.188,3.188,0,0,0-.536-2.043,1.651,1.651,0,0,0-1.322-.652,1.592,1.592,0,0,0-1.28.627A3.084,3.084,0,0,0,368.585,307.99Z" transform="translate(-7.392 -17.049)"/><path class="cls-10" d="M375.08,311.375v-6.782h1.034v1.028a2.8,2.8,0,0,1,.731-.951,1.27,1.27,0,0,1,.737-.23,2.234,2.234,0,0,1,1.182.371l-.4,1.066a1.649,1.649,0,0,0-.844-.25,1.1,1.1,0,0,0-.677.227,1.232,1.232,0,0,0-.428.63,4.471,4.471,0,0,0-.191,1.341v3.551Z" transform="translate(-7.392 -17.049)"/><path class="cls-10" d="M384.091,309.191l1.188.146a2.9,2.9,0,0,1-1.041,1.615,3.524,3.524,0,0,1-4.3-.342,3.579,3.579,0,0,1-.872-2.57,3.745,3.745,0,0,1,.882-2.656,2.984,2.984,0,0,1,2.286-.945,2.9,2.9,0,0,1,2.223.926,3.682,3.682,0,0,1,.862,2.605c0,.068,0,.171-.007.307h-5.058a2.6,2.6,0,0,0,.632,1.712,1.883,1.883,0,0,0,1.418.594,1.755,1.755,0,0,0,1.079-.332A2.212,2.212,0,0,0,384.091,309.191Zm-3.774-1.859H384.1a2.288,2.288,0,0,0-.435-1.283,1.76,1.76,0,0,0-1.424-.664,1.823,1.823,0,0,0-1.331.53A2.091,2.091,0,0,0,380.316,307.332Z" transform="translate(-7.392 -17.049)"/><path class="cls-10" d="M386.722,311.375v-6.782h1.034v.964a2.44,2.44,0,0,1,2.159-1.117,2.84,2.84,0,0,1,1.127.221,1.775,1.775,0,0,1,.77.578,2.226,2.226,0,0,1,.357.85,6.546,6.546,0,0,1,.063,1.117v4.17h-1.149V307.25a3.089,3.089,0,0,0-.134-1.051,1.1,1.1,0,0,0-.476-.556,1.513,1.513,0,0,0-.8-.208,1.864,1.864,0,0,0-1.268.467,2.3,2.3,0,0,0-.533,1.769v3.7Z" transform="translate(-7.392 -17.049)"/><polygon class="cls-13" points="263.866 142.913 280.348 126.047 247.216 126.211 263.866 142.913"/><line class="cls-14" x1="263.567" y1="82.811" x2="263.782" y2="126.129"/><path class="cls-15" d="M22.408,369V358.979h1.36l5.264,7.868v-7.868H30.3V369h-1.36l-5.264-7.875V369Z" transform="translate(-7.392 -17.049)"/><path class="cls-15" d="M31.917,365.37a3.741,3.741,0,0,1,1.121-2.987,3.376,3.376,0,0,1,2.283-.807,3.259,3.259,0,0,1,2.447.98,3.734,3.734,0,0,1,.95,2.711,4.806,4.806,0,0,1-.42,2.205,2.974,2.974,0,0,1-1.224,1.247,3.567,3.567,0,0,1-1.753.444,3.264,3.264,0,0,1-2.464-.978A3.905,3.905,0,0,1,31.917,365.37Zm1.265,0a3.093,3.093,0,0,0,.608,2.089,2.026,2.026,0,0,0,3.056,0,3.165,3.165,0,0,0,.608-2.126,3,3,0,0,0-.612-2.04,2.028,2.028,0,0,0-3.052,0A3.077,3.077,0,0,0,33.182,365.37Z" transform="translate(-7.392 -17.049)"/><path class="cls-15" d="M42.848,367.9l.178,1.087a4.54,4.54,0,0,1-.93.109,2.1,2.1,0,0,1-1.039-.212,1.187,1.187,0,0,1-.52-.558,4.4,4.4,0,0,1-.15-1.452V362.7h-.9v-.957h.9v-1.8l1.224-.738v2.536h1.237v.957H41.61v4.245a2.142,2.142,0,0,0,.065.677.512.512,0,0,0,.212.239.816.816,0,0,0,.42.089A3.948,3.948,0,0,0,42.848,367.9Z" transform="translate(-7.392 -17.049)"/><path class="cls-15" d="M49.021,366.662l1.271.157a3.1,3.1,0,0,1-1.114,1.729,3.776,3.776,0,0,1-4.6-.365,3.834,3.834,0,0,1-.933-2.752,4.011,4.011,0,0,1,.943-2.844,3.192,3.192,0,0,1,2.447-1.012,3.1,3.1,0,0,1,2.379.991,3.939,3.939,0,0,1,.923,2.789q0,.11-.007.328H44.912a2.787,2.787,0,0,0,.677,1.832,2.015,2.015,0,0,0,1.518.636,1.88,1.88,0,0,0,1.155-.355A2.363,2.363,0,0,0,49.021,366.662Zm-4.04-1.989h4.054a2.46,2.46,0,0,0-.465-1.374,1.887,1.887,0,0,0-1.524-.711,1.957,1.957,0,0,0-1.425.567A2.244,2.244,0,0,0,44.98,364.673Z" transform="translate(-7.392 -17.049)"/><path class="cls-15" d="M58.413,367.9l.178,1.087a4.54,4.54,0,0,1-.93.109,2.1,2.1,0,0,1-1.039-.212,1.187,1.187,0,0,1-.52-.558,4.4,4.4,0,0,1-.15-1.452V362.7h-.9v-.957h.9v-1.8l1.224-.738v2.536h1.237v.957H57.176v4.245a2.142,2.142,0,0,0,.065.677.512.512,0,0,0,.212.239.816.816,0,0,0,.42.089A3.948,3.948,0,0,0,58.413,367.9Z" transform="translate(-7.392 -17.049)"/><path class="cls-15" d="M59.616,369V358.979h1.23v3.6a2.75,2.75,0,0,1,2.174-1,2.921,2.921,0,0,1,1.4.318,1.86,1.86,0,0,1,.851.878,4.05,4.05,0,0,1,.256,1.627V369H64.3v-4.6a1.9,1.9,0,0,0-.4-1.343,1.483,1.483,0,0,0-1.131-.421,1.992,1.992,0,0,0-1.029.284,1.6,1.6,0,0,0-.687.769,3.532,3.532,0,0,0-.205,1.34V369Z" transform="translate(-7.392 -17.049)"/><path class="cls-15" d="M72.14,368.1a4.568,4.568,0,0,1-1.316.82,3.81,3.81,0,0,1-1.357.239,2.644,2.644,0,0,1-1.839-.584,1.932,1.932,0,0,1-.643-1.494,2.022,2.022,0,0,1,.878-1.682,2.983,2.983,0,0,1,.885-.4,8.918,8.918,0,0,1,1.094-.185,11.217,11.217,0,0,0,2.194-.424c0-.169.007-.275.007-.321a1.359,1.359,0,0,0-.349-1.06,2.058,2.058,0,0,0-1.4-.417,2.179,2.179,0,0,0-1.282.3,1.862,1.862,0,0,0-.612,1.077l-1.2-.164a2.981,2.981,0,0,1,.54-1.247,2.369,2.369,0,0,1,1.087-.732,4.873,4.873,0,0,1,1.647-.256,4.368,4.368,0,0,1,1.511.219,1.982,1.982,0,0,1,.854.551,1.933,1.933,0,0,1,.383.837,6.931,6.931,0,0,1,.062,1.135v1.641a17.469,17.469,0,0,0,.079,2.171,2.741,2.741,0,0,0,.311.871H72.386A2.614,2.614,0,0,1,72.14,368.1Zm-.1-2.748a9.032,9.032,0,0,1-2.01.465,4.681,4.681,0,0,0-1.073.246,1.071,1.071,0,0,0-.485.4,1.088,1.088,0,0,0,.2,1.405,1.6,1.6,0,0,0,1.09.328,2.531,2.531,0,0,0,1.265-.312,1.912,1.912,0,0,0,.813-.851,2.972,2.972,0,0,0,.2-1.23Z" transform="translate(-7.392 -17.049)"/><path class="cls-15" d="M77.875,367.9l.178,1.087a4.54,4.54,0,0,1-.93.109,2.1,2.1,0,0,1-1.039-.212,1.187,1.187,0,0,1-.52-.558,4.4,4.4,0,0,1-.15-1.452V362.7h-.9v-.957h.9v-1.8l1.224-.738v2.536h1.237v.957H76.638v4.245a2.142,2.142,0,0,0,.065.677.512.512,0,0,0,.212.239.816.816,0,0,0,.42.089A3.948,3.948,0,0,0,77.875,367.9Z" transform="translate(-7.392 -17.049)"/><path class="cls-15" d="M85.654,367.9l.178,1.087a4.54,4.54,0,0,1-.93.109,2.1,2.1,0,0,1-1.039-.212,1.187,1.187,0,0,1-.52-.558,4.4,4.4,0,0,1-.15-1.452V362.7h-.9v-.957h.9v-1.8l1.224-.738v2.536h1.237v.957H84.417v4.245a2.142,2.142,0,0,0,.065.677.512.512,0,0,0,.212.239.816.816,0,0,0,.42.089A3.948,3.948,0,0,0,85.654,367.9Z" transform="translate(-7.392 -17.049)"/><path class="cls-15" d="M86.857,369V358.979h1.23v3.6a2.75,2.75,0,0,1,2.174-1,2.921,2.921,0,0,1,1.4.318,1.86,1.86,0,0,1,.851.878,4.05,4.05,0,0,1,.256,1.627V369H91.54v-4.6a1.9,1.9,0,0,0-.4-1.343,1.483,1.483,0,0,0-1.131-.421,1.992,1.992,0,0,0-1.029.284,1.6,1.6,0,0,0-.687.769,3.532,3.532,0,0,0-.205,1.34V369Z" transform="translate(-7.392 -17.049)"/><path class="cls-15" d="M99.613,366.662l1.271.157a3.1,3.1,0,0,1-1.114,1.729,3.776,3.776,0,0,1-4.6-.365,3.834,3.834,0,0,1-.933-2.752,4.011,4.011,0,0,1,.943-2.844,3.192,3.192,0,0,1,2.447-1.012,3.1,3.1,0,0,1,2.379.991,3.939,3.939,0,0,1,.923,2.789q0,.11-.007.328H95.5a2.787,2.787,0,0,0,.677,1.832,2.015,2.015,0,0,0,1.518.636,1.88,1.88,0,0,0,1.155-.355A2.363,2.363,0,0,0,99.613,366.662Zm-4.04-1.989h4.054a2.46,2.46,0,0,0-.465-1.374,1.887,1.887,0,0,0-1.524-.711,1.957,1.957,0,0,0-1.425.567A2.244,2.244,0,0,0,95.573,364.673Z" transform="translate(-7.392 -17.049)"/><path class="cls-15" d="M111.166,365.069v-1.176l4.245-.007v3.719a7.485,7.485,0,0,1-2.017,1.172,5.969,5.969,0,0,1-2.133.394,5.7,5.7,0,0,1-2.683-.632,4.182,4.182,0,0,1-1.822-1.829,5.759,5.759,0,0,1-.615-2.673,6.2,6.2,0,0,1,.612-2.73,4.068,4.068,0,0,1,1.76-1.884,5.516,5.516,0,0,1,2.646-.615,5.228,5.228,0,0,1,1.965.353,3.258,3.258,0,0,1,1.377.98,4.351,4.351,0,0,1,.759,1.641l-1.2.328a3.706,3.706,0,0,0-.561-1.2,2.3,2.3,0,0,0-.957-.7,3.521,3.521,0,0,0-1.381-.263,4.084,4.084,0,0,0-1.572.276,2.947,2.947,0,0,0-1.07.729,3.471,3.471,0,0,0-.632.991,5.243,5.243,0,0,0-.383,2.017,4.892,4.892,0,0,0,.461,2.242,2.955,2.955,0,0,0,1.343,1.34,4.155,4.155,0,0,0,1.873.438,4.438,4.438,0,0,0,1.682-.332,4.327,4.327,0,0,0,1.244-.707v-1.866Z" transform="translate(-7.392 -17.049)"/><path class="cls-15" d="M117.2,369v-7.26H118.3v1.1a3.009,3.009,0,0,1,.783-1.019,1.366,1.366,0,0,1,.79-.246,2.4,2.4,0,0,1,1.265.4l-.424,1.142a1.761,1.761,0,0,0-.9-.267,1.175,1.175,0,0,0-.725.242,1.317,1.317,0,0,0-.458.674,4.793,4.793,0,0,0-.205,1.436V369Z" transform="translate(-7.392 -17.049)"/><path class="cls-15" d="M126.608,368.1a4.568,4.568,0,0,1-1.316.82,3.81,3.81,0,0,1-1.357.239,2.644,2.644,0,0,1-1.839-.584,1.932,1.932,0,0,1-.643-1.494,2.022,2.022,0,0,1,.878-1.682,2.983,2.983,0,0,1,.885-.4,8.918,8.918,0,0,1,1.094-.185,11.217,11.217,0,0,0,2.194-.424c0-.169.007-.275.007-.321a1.359,1.359,0,0,0-.349-1.06,2.058,2.058,0,0,0-1.4-.417,2.179,2.179,0,0,0-1.282.3,1.862,1.862,0,0,0-.612,1.077l-1.2-.164a2.981,2.981,0,0,1,.54-1.247,2.369,2.369,0,0,1,1.087-.732,4.873,4.873,0,0,1,1.647-.256,4.368,4.368,0,0,1,1.511.219,1.982,1.982,0,0,1,.854.551,1.933,1.933,0,0,1,.383.837,6.931,6.931,0,0,1,.062,1.135v1.641a17.469,17.469,0,0,0,.079,2.171,2.741,2.741,0,0,0,.311.871h-1.285A2.614,2.614,0,0,1,126.608,368.1Zm-.1-2.748a9.032,9.032,0,0,1-2.01.465,4.681,4.681,0,0,0-1.073.246,1.071,1.071,0,0,0-.485.4,1.088,1.088,0,0,0,.2,1.405,1.6,1.6,0,0,0,1.09.328,2.531,2.531,0,0,0,1.265-.312,1.912,1.912,0,0,0,.813-.851,2.972,2.972,0,0,0,.2-1.23Z" transform="translate(-7.392 -17.049)"/><path class="cls-15" d="M129.657,369v-7.26h1.107v1.032a2.609,2.609,0,0,1,2.311-1.2,3.014,3.014,0,0,1,1.207.236,1.892,1.892,0,0,1,.824.618,2.375,2.375,0,0,1,.383.909,7.063,7.063,0,0,1,.068,1.2V369h-1.23v-4.416a3.322,3.322,0,0,0-.144-1.125,1.18,1.18,0,0,0-.509-.594,1.617,1.617,0,0,0-.858-.223,1.992,1.992,0,0,0-1.357.5,2.463,2.463,0,0,0-.571,1.894V369Z" transform="translate(-7.392 -17.049)"/><path class="cls-15" d="M142.153,369v-.916a2.259,2.259,0,0,1-2.03,1.08,2.845,2.845,0,0,1-1.6-.479,3.151,3.151,0,0,1-1.128-1.336,4.621,4.621,0,0,1-.4-1.973,5.164,5.164,0,0,1,.362-1.973,2.86,2.86,0,0,1,1.087-1.356,2.905,2.905,0,0,1,1.62-.472,2.41,2.41,0,0,1,1.169.277,2.437,2.437,0,0,1,.834.721v-3.6h1.224V369Zm-3.89-3.623a3.151,3.151,0,0,0,.588,2.085,1.774,1.774,0,0,0,1.388.69,1.739,1.739,0,0,0,1.371-.66,3.039,3.039,0,0,0,.564-2.013,3.415,3.415,0,0,0-.574-2.187,1.766,1.766,0,0,0-1.415-.7,1.706,1.706,0,0,0-1.371.67A3.306,3.306,0,0,0,138.264,365.377Z" transform="translate(-7.392 -17.049)"/><path class="cls-15" d="M149.967,366.341l1.21.157a3.143,3.143,0,0,1-1.015,1.959,2.961,2.961,0,0,1-2.006.707,3.114,3.114,0,0,1-2.4-.975,3.949,3.949,0,0,1-.906-2.792,5.052,5.052,0,0,1,.39-2.058,2.712,2.712,0,0,1,1.186-1.322,3.508,3.508,0,0,1,1.733-.441,3.014,3.014,0,0,1,1.935.6,2.745,2.745,0,0,1,.964,1.7l-1.2.185a1.986,1.986,0,0,0-.6-1.1,1.566,1.566,0,0,0-1.049-.369,1.913,1.913,0,0,0-1.511.666,3.168,3.168,0,0,0-.581,2.109,3.272,3.272,0,0,0,.561,2.126,1.823,1.823,0,0,0,1.463.663,1.726,1.726,0,0,0,1.21-.444A2.2,2.2,0,0,0,149.967,366.341Z" transform="translate(-7.392 -17.049)"/><path class="cls-15" d="M152.229,369V358.979h1.23v3.6a2.75,2.75,0,0,1,2.174-1,2.921,2.921,0,0,1,1.4.318,1.86,1.86,0,0,1,.851.878,4.05,4.05,0,0,1,.256,1.627V369h-1.23v-4.6a1.9,1.9,0,0,0-.4-1.343,1.483,1.483,0,0,0-1.131-.421,1.992,1.992,0,0,0-1.029.284,1.6,1.6,0,0,0-.687.769,3.532,3.532,0,0,0-.205,1.34V369Z" transform="translate(-7.392 -17.049)"/><path class="cls-15" d="M160.022,360.394v-1.415h1.23v1.415Zm0,8.606v-7.26h1.23V369Z" transform="translate(-7.392 -17.049)"/><path class="cls-15" d="M163.1,369V358.979h1.23V369Z" transform="translate(-7.392 -17.049)"/><path class="cls-15" d="M170.946,369v-.916a2.259,2.259,0,0,1-2.03,1.08,2.845,2.845,0,0,1-1.6-.479,3.151,3.151,0,0,1-1.128-1.336,4.621,4.621,0,0,1-.4-1.973,5.164,5.164,0,0,1,.362-1.973,2.86,2.86,0,0,1,1.087-1.356,2.905,2.905,0,0,1,1.62-.472,2.41,2.41,0,0,1,1.169.277,2.437,2.437,0,0,1,.834.721v-3.6h1.224V369Zm-3.89-3.623a3.151,3.151,0,0,0,.588,2.085,1.774,1.774,0,0,0,1.388.69,1.739,1.739,0,0,0,1.371-.66,3.039,3.039,0,0,0,.564-2.013,3.415,3.415,0,0,0-.574-2.187,1.766,1.766,0,0,0-1.415-.7,1.706,1.706,0,0,0-1.371.67A3.306,3.306,0,0,0,167.057,365.377Z" transform="translate(-7.392 -17.049)"/><path class="cls-15" d="M177.919,360.394v-1.415h1.23v1.415Zm0,8.606v-7.26h1.23V369Z" transform="translate(-7.392 -17.049)"/><path class="cls-15" d="M180.53,366.833l1.217-.191a1.7,1.7,0,0,0,.571,1.121,1.989,1.989,0,0,0,1.309.39,1.922,1.922,0,0,0,1.258-.346,1.031,1.031,0,0,0,.41-.81.746.746,0,0,0-.362-.656,5.35,5.35,0,0,0-1.258-.417,11.369,11.369,0,0,1-1.876-.592,1.788,1.788,0,0,1-1.063-1.664,1.87,1.87,0,0,1,.222-.9,1.987,1.987,0,0,1,.6-.687,2.542,2.542,0,0,1,.783-.359,3.734,3.734,0,0,1,1.063-.146,4.2,4.2,0,0,1,1.5.246,2.047,2.047,0,0,1,.954.666,2.612,2.612,0,0,1,.424,1.125l-1.2.164a1.315,1.315,0,0,0-.475-.875,1.736,1.736,0,0,0-1.111-.314,2.015,2.015,0,0,0-1.21.28.815.815,0,0,0-.362.656.681.681,0,0,0,.15.431,1.089,1.089,0,0,0,.472.328q.185.069,1.087.314a15.277,15.277,0,0,1,1.822.57,1.852,1.852,0,0,1,.81.646,1.8,1.8,0,0,1,.294,1.053,2.062,2.062,0,0,1-.359,1.158,2.321,2.321,0,0,1-1.036.842,3.785,3.785,0,0,1-1.531.3,3.414,3.414,0,0,1-2.157-.588A2.732,2.732,0,0,1,180.53,366.833Z" transform="translate(-7.392 -17.049)"/><path class="cls-15" d="M191.912,369v-7.26h1.107v1.032a2.609,2.609,0,0,1,2.311-1.2,3.014,3.014,0,0,1,1.207.236,1.892,1.892,0,0,1,.824.618,2.375,2.375,0,0,1,.383.909,7.063,7.063,0,0,1,.068,1.2V369h-1.23v-4.416a3.322,3.322,0,0,0-.144-1.125,1.18,1.18,0,0,0-.509-.594,1.617,1.617,0,0,0-.858-.223,1.992,1.992,0,0,0-1.357.5,2.463,2.463,0,0,0-.571,1.894V369Z" transform="translate(-7.392 -17.049)"/><path class="cls-15" d="M199.24,365.37a3.741,3.741,0,0,1,1.121-2.987,3.376,3.376,0,0,1,2.283-.807,3.259,3.259,0,0,1,2.447.98,3.734,3.734,0,0,1,.95,2.711,4.806,4.806,0,0,1-.42,2.205,2.974,2.974,0,0,1-1.224,1.247,3.567,3.567,0,0,1-1.753.444,3.264,3.264,0,0,1-2.464-.978A3.905,3.905,0,0,1,199.24,365.37Zm1.265,0a3.093,3.093,0,0,0,.608,2.089,2.026,2.026,0,0,0,3.056,0,3.165,3.165,0,0,0,.608-2.126,3,3,0,0,0-.612-2.04,2.028,2.028,0,0,0-3.052,0A3.077,3.077,0,0,0,200.5,365.37Z" transform="translate(-7.392 -17.049)"/><path class="cls-15" d="M208.824,369l-2.222-7.26h1.271l1.155,4.19.431,1.559q.027-.116.376-1.5l1.155-4.252h1.265l1.087,4.211.362,1.388.417-1.4,1.244-4.2h1.2l-2.27,7.26h-1.278l-1.155-4.348-.28-1.237L210.109,369Z" transform="translate(-7.392 -17.049)"/><path class="cls-15" d="M221.026,365.37a3.743,3.743,0,0,1,1.121-2.987,3.376,3.376,0,0,1,2.283-.807,3.26,3.26,0,0,1,2.447.98,3.732,3.732,0,0,1,.95,2.711,4.793,4.793,0,0,1-.421,2.205,2.969,2.969,0,0,1-1.223,1.247,3.569,3.569,0,0,1-1.754.444,3.266,3.266,0,0,1-2.465-.978A3.907,3.907,0,0,1,221.026,365.37Zm1.265,0a3.1,3.1,0,0,0,.608,2.089,2.026,2.026,0,0,0,3.056,0,3.168,3.168,0,0,0,.608-2.126,3,3,0,0,0-.611-2.04,2.029,2.029,0,0,0-3.053,0A3.079,3.079,0,0,0,222.291,365.37Z" transform="translate(-7.392 -17.049)"/><path class="cls-15" d="M229.271,369v-7.26h1.107v1.032a2.609,2.609,0,0,1,2.311-1.2,3.01,3.01,0,0,1,1.206.236,1.894,1.894,0,0,1,.824.618,2.375,2.375,0,0,1,.383.909,7.011,7.011,0,0,1,.068,1.2V369h-1.23v-4.416a3.322,3.322,0,0,0-.144-1.125,1.182,1.182,0,0,0-.509-.594,1.62,1.62,0,0,0-.858-.223,1.989,1.989,0,0,0-1.356.5,2.461,2.461,0,0,0-.571,1.894V369Z" transform="translate(-7.392 -17.049)"/><path class="cls-15" d="M237.029,369V358.979h1.23V369Z" transform="translate(-7.392 -17.049)"/><path class="cls-15" d="M240.112,371.8l-.137-1.155a2.728,2.728,0,0,0,.7.109,1.355,1.355,0,0,0,.656-.137,1.113,1.113,0,0,0,.4-.383,6.052,6.052,0,0,0,.376-.916c.022-.068.06-.169.109-.3l-2.755-7.273H240.8l1.511,4.2q.294.8.526,1.682a16.556,16.556,0,0,1,.506-1.654l1.552-4.231h1.23l-2.762,7.383a14.4,14.4,0,0,1-.69,1.647,2.429,2.429,0,0,1-.752.892,1.774,1.774,0,0,1-1.012.284A2.455,2.455,0,0,1,240.112,371.8Z" transform="translate(-7.392 -17.049)"/><path class="cls-15" d="M250.6,365.37a3.743,3.743,0,0,1,1.121-2.987,3.376,3.376,0,0,1,2.283-.807,3.26,3.26,0,0,1,2.447.98,3.732,3.732,0,0,1,.95,2.711,4.793,4.793,0,0,1-.421,2.205,2.969,2.969,0,0,1-1.223,1.247,3.569,3.569,0,0,1-1.754.444,3.266,3.266,0,0,1-2.465-.978A3.907,3.907,0,0,1,250.6,365.37Zm1.265,0a3.1,3.1,0,0,0,.608,2.089,2.026,2.026,0,0,0,3.056,0,3.168,3.168,0,0,0,.608-2.126,3,3,0,0,0-.611-2.04,2.029,2.029,0,0,0-3.053,0A3.079,3.079,0,0,0,251.863,365.37Z" transform="translate(-7.392 -17.049)"/><path class="cls-15" d="M258.843,369v-7.26h1.107v1.032a2.609,2.609,0,0,1,2.311-1.2,3.01,3.01,0,0,1,1.206.236,1.894,1.894,0,0,1,.824.618,2.375,2.375,0,0,1,.383.909,7.011,7.011,0,0,1,.068,1.2V369h-1.23v-4.416a3.322,3.322,0,0,0-.144-1.125,1.182,1.182,0,0,0-.509-.594,1.62,1.62,0,0,0-.858-.223,1.989,1.989,0,0,0-1.356.5,2.461,2.461,0,0,0-.571,1.894V369Z" transform="translate(-7.392 -17.049)"/><path class="cls-15" d="M271.6,366.662l1.271.157a3.1,3.1,0,0,1-1.114,1.729,3.776,3.776,0,0,1-4.6-.365,3.838,3.838,0,0,1-.933-2.752,4.011,4.011,0,0,1,.943-2.844,3.192,3.192,0,0,1,2.447-1.012,3.1,3.1,0,0,1,2.379.991,3.939,3.939,0,0,1,.923,2.789c0,.073,0,.183-.007.328H267.49a2.792,2.792,0,0,0,.677,1.832,2.013,2.013,0,0,0,1.518.636,1.881,1.881,0,0,0,1.155-.355A2.357,2.357,0,0,0,271.6,366.662Zm-4.04-1.989h4.054a2.464,2.464,0,0,0-.465-1.374,1.887,1.887,0,0,0-1.524-.711,1.954,1.954,0,0,0-1.425.567A2.242,2.242,0,0,0,267.559,364.673Z" transform="translate(-7.392 -17.049)"/><path class="cls-15" d="M278.079,369.6l1.2.178a1.141,1.141,0,0,0,.417.807,2.052,2.052,0,0,0,1.251.342,2.2,2.2,0,0,0,1.319-.342,1.683,1.683,0,0,0,.629-.957,7.863,7.863,0,0,0,.089-1.579,2.531,2.531,0,0,1-2.01.95,2.741,2.741,0,0,1-2.317-1.08,4.159,4.159,0,0,1-.82-2.591,4.813,4.813,0,0,1,.376-1.917,3.01,3.01,0,0,1,1.091-1.357,2.939,2.939,0,0,1,1.678-.479,2.6,2.6,0,0,1,2.119,1.039v-.875h1.135v6.275a5.939,5.939,0,0,1-.346,2.4,2.513,2.513,0,0,1-1.094,1.118,3.785,3.785,0,0,1-1.842.41,3.467,3.467,0,0,1-2.1-.585A1.973,1.973,0,0,1,278.079,369.6Zm1.019-4.361a3.152,3.152,0,0,0,.567,2.085,1.871,1.871,0,0,0,2.844,0,3.044,3.044,0,0,0,.574-2.047,2.975,2.975,0,0,0-.592-2.01,1.827,1.827,0,0,0-1.425-.677,1.774,1.774,0,0,0-1.395.667A2.957,2.957,0,0,0,279.1,365.24Z" transform="translate(-7.392 -17.049)"/><path class="cls-15" d="M291.061,366.662l1.271.157a3.1,3.1,0,0,1-1.114,1.729,3.776,3.776,0,0,1-4.6-.365,3.838,3.838,0,0,1-.933-2.752,4.011,4.011,0,0,1,.943-2.844,3.192,3.192,0,0,1,2.447-1.012,3.1,3.1,0,0,1,2.379.991,3.939,3.939,0,0,1,.923,2.789c0,.073,0,.183-.007.328h-5.414a2.792,2.792,0,0,0,.677,1.832,2.013,2.013,0,0,0,1.518.636,1.881,1.881,0,0,0,1.155-.355A2.357,2.357,0,0,0,291.061,366.662Zm-4.04-1.989h4.054a2.464,2.464,0,0,0-.465-1.374,1.887,1.887,0,0,0-1.524-.711,1.954,1.954,0,0,0-1.425.567A2.242,2.242,0,0,0,287.021,364.673Z" transform="translate(-7.392 -17.049)"/><path class="cls-15" d="M293.877,369v-7.26h1.107v1.032a2.609,2.609,0,0,1,2.311-1.2,3.01,3.01,0,0,1,1.206.236,1.894,1.894,0,0,1,.824.618,2.375,2.375,0,0,1,.383.909,7.011,7.011,0,0,1,.068,1.2V369h-1.23v-4.416a3.322,3.322,0,0,0-.144-1.125,1.182,1.182,0,0,0-.509-.594,1.62,1.62,0,0,0-.858-.223,1.989,1.989,0,0,0-1.356.5,2.461,2.461,0,0,0-.571,1.894V369Z" transform="translate(-7.392 -17.049)"/><path class="cls-15" d="M306.633,366.662l1.271.157a3.1,3.1,0,0,1-1.114,1.729,3.776,3.776,0,0,1-4.6-.365,3.838,3.838,0,0,1-.933-2.752,4.011,4.011,0,0,1,.943-2.844,3.192,3.192,0,0,1,2.447-1.012,3.1,3.1,0,0,1,2.379.991,3.939,3.939,0,0,1,.923,2.789c0,.073,0,.183-.007.328h-5.414a2.792,2.792,0,0,0,.677,1.832,2.013,2.013,0,0,0,1.518.636,1.881,1.881,0,0,0,1.155-.355A2.357,2.357,0,0,0,306.633,366.662Zm-4.04-1.989h4.054a2.464,2.464,0,0,0-.465-1.374,1.887,1.887,0,0,0-1.524-.711,1.954,1.954,0,0,0-1.425.567A2.242,2.242,0,0,0,302.593,364.673Z" transform="translate(-7.392 -17.049)"/><path class="cls-15" d="M309.436,369v-7.26h1.107v1.1a3.015,3.015,0,0,1,.782-1.019,1.37,1.37,0,0,1,.79-.246,2.4,2.4,0,0,1,1.265.4l-.424,1.142a1.761,1.761,0,0,0-.9-.267,1.175,1.175,0,0,0-.725.242,1.317,1.317,0,0,0-.458.674,4.793,4.793,0,0,0-.205,1.436V369Z" transform="translate(-7.392 -17.049)"/><path class="cls-15" d="M318.849,368.1a4.569,4.569,0,0,1-1.316.82,3.8,3.8,0,0,1-1.356.239,2.644,2.644,0,0,1-1.839-.584,1.93,1.93,0,0,1-.643-1.494,2.018,2.018,0,0,1,.879-1.682,2.975,2.975,0,0,1,.885-.4,8.918,8.918,0,0,1,1.094-.185,11.232,11.232,0,0,0,2.194-.424c0-.169.007-.275.007-.321a1.359,1.359,0,0,0-.349-1.06,2.057,2.057,0,0,0-1.4-.417,2.175,2.175,0,0,0-1.281.3,1.857,1.857,0,0,0-.612,1.077l-1.2-.164a2.975,2.975,0,0,1,.54-1.247,2.374,2.374,0,0,1,1.087-.732,4.873,4.873,0,0,1,1.647-.256,4.368,4.368,0,0,1,1.511.219,1.982,1.982,0,0,1,.854.551,1.933,1.933,0,0,1,.383.837,6.931,6.931,0,0,1,.062,1.135v1.641a17.328,17.328,0,0,0,.079,2.171,2.717,2.717,0,0,0,.311.871h-1.285A2.592,2.592,0,0,1,318.849,368.1Zm-.1-2.748a9.018,9.018,0,0,1-2.01.465,4.688,4.688,0,0,0-1.073.246,1.071,1.071,0,0,0-.485.4,1.088,1.088,0,0,0,.2,1.405,1.6,1.6,0,0,0,1.09.328,2.532,2.532,0,0,0,1.265-.312,1.909,1.909,0,0,0,.813-.851,2.98,2.98,0,0,0,.2-1.23Z" transform="translate(-7.392 -17.049)"/><path class="cls-15" d="M324.584,367.9l.178,1.087a4.544,4.544,0,0,1-.93.109,2.1,2.1,0,0,1-1.039-.212,1.189,1.189,0,0,1-.52-.558,4.39,4.39,0,0,1-.15-1.452V362.7h-.9v-.957h.9v-1.8l1.224-.738v2.536h1.237v.957h-1.237v4.245a2.122,2.122,0,0,0,.065.677.51.51,0,0,0,.211.239.818.818,0,0,0,.421.089A3.954,3.954,0,0,0,324.584,367.9Z" transform="translate(-7.392 -17.049)"/><path class="cls-15" d="M325.794,360.394v-1.415h1.23v1.415Zm0,8.606v-7.26h1.23V369Z" transform="translate(-7.392 -17.049)"/><path class="cls-15" d="M328.439,365.37a3.743,3.743,0,0,1,1.121-2.987,3.376,3.376,0,0,1,2.283-.807,3.26,3.26,0,0,1,2.447.98,3.732,3.732,0,0,1,.95,2.711,4.793,4.793,0,0,1-.421,2.205,2.969,2.969,0,0,1-1.223,1.247,3.569,3.569,0,0,1-1.754.444,3.266,3.266,0,0,1-2.465-.978A3.907,3.907,0,0,1,328.439,365.37Zm1.265,0a3.1,3.1,0,0,0,.608,2.089,2.026,2.026,0,0,0,3.056,0,3.168,3.168,0,0,0,.608-2.126,3,3,0,0,0-.611-2.04,2.029,2.029,0,0,0-3.053,0A3.079,3.079,0,0,0,329.7,365.37Z" transform="translate(-7.392 -17.049)"/><path class="cls-15" d="M336.684,369v-7.26h1.107v1.032a2.609,2.609,0,0,1,2.311-1.2,3.01,3.01,0,0,1,1.206.236,1.894,1.894,0,0,1,.824.618,2.375,2.375,0,0,1,.383.909,7.011,7.011,0,0,1,.068,1.2V369h-1.23v-4.416a3.322,3.322,0,0,0-.144-1.125,1.182,1.182,0,0,0-.509-.594,1.62,1.62,0,0,0-.858-.223,1.989,1.989,0,0,0-1.356.5,2.461,2.461,0,0,0-.571,1.894V369Z" transform="translate(-7.392 -17.049)"/><path class="cls-15" d="M23.4,385.8H22.258V375.778h1.23v3.575a2.436,2.436,0,0,1,1.989-.978,3.051,3.051,0,0,1,1.268.27,2.593,2.593,0,0,1,.984.76,3.668,3.668,0,0,1,.6,1.179,4.854,4.854,0,0,1,.219,1.477,4.146,4.146,0,0,1-.923,2.885,2.888,2.888,0,0,1-2.215,1.019,2.311,2.311,0,0,1-2.017-1.073Zm-.014-3.685A3.771,3.771,0,0,0,23.741,384a1.758,1.758,0,0,0,2.967.249,3.182,3.182,0,0,0,.588-2.088,3.238,3.238,0,0,0-.564-2.1,1.717,1.717,0,0,0-1.364-.677,1.769,1.769,0,0,0-1.395.7A3.074,3.074,0,0,0,23.386,382.115Z" transform="translate(-7.392 -17.049)"/><path class="cls-15" d="M35.021,383.462l1.271.157a3.1,3.1,0,0,1-1.114,1.729,3.776,3.776,0,0,1-4.6-.365,3.834,3.834,0,0,1-.933-2.752,4.011,4.011,0,0,1,.943-2.844,3.192,3.192,0,0,1,2.447-1.012,3.1,3.1,0,0,1,2.379.991,3.939,3.939,0,0,1,.923,2.789q0,.11-.007.328H30.912a2.787,2.787,0,0,0,.677,1.832,2.015,2.015,0,0,0,1.518.636,1.88,1.88,0,0,0,1.155-.355A2.363,2.363,0,0,0,35.021,383.462Zm-4.04-1.989h4.054a2.46,2.46,0,0,0-.465-1.374,1.887,1.887,0,0,0-1.524-.711,1.957,1.957,0,0,0-1.425.567A2.244,2.244,0,0,0,30.98,381.473Z" transform="translate(-7.392 -17.049)"/><path class="cls-15" d="M37.81,385.8V375.778h1.23V385.8Z" transform="translate(-7.392 -17.049)"/><path class="cls-15" d="M40.489,382.17a3.741,3.741,0,0,1,1.121-2.987,3.376,3.376,0,0,1,2.283-.807,3.259,3.259,0,0,1,2.447.98,3.734,3.734,0,0,1,.95,2.711,4.806,4.806,0,0,1-.42,2.205,2.974,2.974,0,0,1-1.224,1.247,3.567,3.567,0,0,1-1.753.444,3.264,3.264,0,0,1-2.464-.978A3.905,3.905,0,0,1,40.489,382.17Zm1.265,0a3.093,3.093,0,0,0,.608,2.089,2.026,2.026,0,0,0,3.056,0,3.165,3.165,0,0,0,.608-2.126,3,3,0,0,0-.612-2.04,2.028,2.028,0,0,0-3.052,0A3.077,3.077,0,0,0,41.754,382.17Z" transform="translate(-7.392 -17.049)"/><path class="cls-15" d="M50.073,385.8l-2.222-7.26h1.271l1.155,4.19.431,1.559q.027-.116.376-1.5l1.155-4.252H53.5l1.087,4.211.362,1.388.417-1.4,1.244-4.2h1.2l-2.27,7.26H54.264l-1.155-4.348-.28-1.237-1.47,5.585Z" transform="translate(-7.392 -17.049)"/><path class="cls-15" d="M65.42,384.7l.178,1.087a4.54,4.54,0,0,1-.93.109,2.1,2.1,0,0,1-1.039-.212,1.187,1.187,0,0,1-.52-.558,4.4,4.4,0,0,1-.15-1.452V379.5h-.9v-.957h.9v-1.8L64.183,376v2.536H65.42v.957H64.183v4.245a2.142,2.142,0,0,0,.065.677.512.512,0,0,0,.212.239.816.816,0,0,0,.42.089A3.948,3.948,0,0,0,65.42,384.7Z" transform="translate(-7.392 -17.049)"/><path class="cls-15" d="M66.623,385.8V375.778h1.23v3.6a2.75,2.75,0,0,1,2.174-1,2.921,2.921,0,0,1,1.4.318,1.86,1.86,0,0,1,.851.878,4.05,4.05,0,0,1,.256,1.627v4.6h-1.23v-4.6a1.9,1.9,0,0,0-.4-1.343,1.483,1.483,0,0,0-1.131-.421,1.992,1.992,0,0,0-1.029.284,1.6,1.6,0,0,0-.687.769,3.532,3.532,0,0,0-.205,1.34V385.8Z" transform="translate(-7.392 -17.049)"/><path class="cls-15" d="M79.379,383.462l1.271.157a3.1,3.1,0,0,1-1.114,1.729,3.776,3.776,0,0,1-4.6-.365A3.834,3.834,0,0,1,74,382.231a4.011,4.011,0,0,1,.943-2.844,3.192,3.192,0,0,1,2.447-1.012,3.1,3.1,0,0,1,2.379.991,3.939,3.939,0,0,1,.923,2.789q0,.11-.007.328H75.271a2.787,2.787,0,0,0,.677,1.832,2.015,2.015,0,0,0,1.518.636,1.88,1.88,0,0,0,1.155-.355A2.363,2.363,0,0,0,79.379,383.462Zm-4.04-1.989h4.054a2.46,2.46,0,0,0-.465-1.374,1.887,1.887,0,0,0-1.524-.711,1.957,1.957,0,0,0-1.425.567A2.244,2.244,0,0,0,75.339,381.473Z" transform="translate(-7.392 -17.049)"/><path class="cls-15" d="M88.539,385.8v-8.839h-3.3v-1.183h7.943v1.183H89.865V385.8Z" transform="translate(-7.392 -17.049)"/><path class="cls-15" d="M93.851,385.8v-7.26h1.107v1.1a3.009,3.009,0,0,1,.783-1.019,1.366,1.366,0,0,1,.79-.246,2.4,2.4,0,0,1,1.265.4l-.424,1.142a1.761,1.761,0,0,0-.9-.267,1.175,1.175,0,0,0-.725.242,1.317,1.317,0,0,0-.458.674A4.793,4.793,0,0,0,95.081,382v3.8Z" transform="translate(-7.392 -17.049)"/><path class="cls-15" d="M103.264,384.9a4.568,4.568,0,0,1-1.316.82,3.81,3.81,0,0,1-1.357.239,2.644,2.644,0,0,1-1.839-.584,1.932,1.932,0,0,1-.643-1.494,2.022,2.022,0,0,1,.878-1.682,2.983,2.983,0,0,1,.885-.4,8.918,8.918,0,0,1,1.094-.185,11.217,11.217,0,0,0,2.194-.424c0-.169.007-.275.007-.321a1.359,1.359,0,0,0-.349-1.06,2.058,2.058,0,0,0-1.4-.417,2.179,2.179,0,0,0-1.282.3,1.862,1.862,0,0,0-.612,1.077l-1.2-.164a2.981,2.981,0,0,1,.54-1.247,2.369,2.369,0,0,1,1.087-.732,4.873,4.873,0,0,1,1.647-.256,4.368,4.368,0,0,1,1.511.219,1.982,1.982,0,0,1,.854.551,1.933,1.933,0,0,1,.383.837,6.931,6.931,0,0,1,.062,1.135v1.641a17.469,17.469,0,0,0,.079,2.171,2.741,2.741,0,0,0,.311.871H103.51A2.614,2.614,0,0,1,103.264,384.9Zm-.1-2.748a9.032,9.032,0,0,1-2.01.465,4.681,4.681,0,0,0-1.073.246,1.071,1.071,0,0,0-.485.4,1.088,1.088,0,0,0,.2,1.405,1.6,1.6,0,0,0,1.09.328,2.531,2.531,0,0,0,1.265-.312,1.912,1.912,0,0,0,.813-.851,2.972,2.972,0,0,0,.2-1.23Z" transform="translate(-7.392 -17.049)"/><path class="cls-15" d="M106.313,385.8v-7.26h1.107v1.032a2.609,2.609,0,0,1,2.311-1.2,3.014,3.014,0,0,1,1.207.236,1.892,1.892,0,0,1,.824.618,2.375,2.375,0,0,1,.383.909,7.063,7.063,0,0,1,.068,1.2V385.8h-1.23v-4.416a3.322,3.322,0,0,0-.144-1.125,1.18,1.18,0,0,0-.509-.594,1.617,1.617,0,0,0-.858-.223,1.992,1.992,0,0,0-1.357.5,2.463,2.463,0,0,0-.571,1.894V385.8Z" transform="translate(-7.392 -17.049)"/><path class="cls-15" d="M113.606,383.633l1.217-.191a1.7,1.7,0,0,0,.571,1.121,1.989,1.989,0,0,0,1.309.39,1.922,1.922,0,0,0,1.258-.346,1.031,1.031,0,0,0,.41-.81.746.746,0,0,0-.362-.656,5.35,5.35,0,0,0-1.258-.417,11.369,11.369,0,0,1-1.876-.592,1.788,1.788,0,0,1-1.063-1.664,1.87,1.87,0,0,1,.222-.9,1.987,1.987,0,0,1,.6-.687,2.542,2.542,0,0,1,.783-.359,3.734,3.734,0,0,1,1.063-.146,4.2,4.2,0,0,1,1.5.246,2.047,2.047,0,0,1,.954.666,2.612,2.612,0,0,1,.424,1.125l-1.2.164a1.315,1.315,0,0,0-.475-.875,1.736,1.736,0,0,0-1.111-.314,2.015,2.015,0,0,0-1.21.28.815.815,0,0,0-.362.656.681.681,0,0,0,.15.431,1.089,1.089,0,0,0,.472.328q.185.069,1.087.314a15.277,15.277,0,0,1,1.822.57,1.852,1.852,0,0,1,.81.646,1.8,1.8,0,0,1,.294,1.053,2.062,2.062,0,0,1-.359,1.158,2.321,2.321,0,0,1-1.036.842,3.785,3.785,0,0,1-1.531.3,3.414,3.414,0,0,1-2.157-.588A2.732,2.732,0,0,1,113.606,383.633Z" transform="translate(-7.392 -17.049)"/><path class="cls-15" d="M121.393,385.8v-6.3h-1.087v-.957h1.087v-.772a3.39,3.39,0,0,1,.13-1.087,1.568,1.568,0,0,1,.625-.775,2.246,2.246,0,0,1,1.254-.3,6.026,6.026,0,0,1,1.148.123l-.185,1.073a4.1,4.1,0,0,0-.725-.068,1.08,1.08,0,0,0-.793.239,1.3,1.3,0,0,0-.232.9v.67h1.415v.957h-1.415v6.3Z" transform="translate(-7.392 -17.049)"/><path class="cls-15" d="M129.958,383.462l1.271.157a3.1,3.1,0,0,1-1.114,1.729,3.776,3.776,0,0,1-4.6-.365,3.834,3.834,0,0,1-.933-2.752,4.011,4.011,0,0,1,.943-2.844,3.192,3.192,0,0,1,2.447-1.012,3.1,3.1,0,0,1,2.379.991,3.939,3.939,0,0,1,.923,2.789q0,.11-.007.328H125.85a2.787,2.787,0,0,0,.677,1.832,2.015,2.015,0,0,0,1.518.636,1.88,1.88,0,0,0,1.155-.355A2.363,2.363,0,0,0,129.958,383.462Zm-4.04-1.989h4.054a2.46,2.46,0,0,0-.465-1.374,1.887,1.887,0,0,0-1.524-.711,1.957,1.957,0,0,0-1.425.567A2.244,2.244,0,0,0,125.918,381.473Z" transform="translate(-7.392 -17.049)"/><path class="cls-15" d="M132.761,385.8v-7.26h1.107v1.1a3.009,3.009,0,0,1,.783-1.019,1.366,1.366,0,0,1,.79-.246,2.4,2.4,0,0,1,1.265.4l-.424,1.142a1.761,1.761,0,0,0-.9-.267,1.175,1.175,0,0,0-.725.242,1.317,1.317,0,0,0-.458.674,4.793,4.793,0,0,0-.205,1.436v3.8Z" transform="translate(-7.392 -17.049)"/><path class="cls-15" d="M136.979,382.17a3.741,3.741,0,0,1,1.121-2.987,3.376,3.376,0,0,1,2.283-.807,3.259,3.259,0,0,1,2.447.98,3.734,3.734,0,0,1,.95,2.711,4.806,4.806,0,0,1-.42,2.205,2.974,2.974,0,0,1-1.224,1.247,3.567,3.567,0,0,1-1.753.444,3.264,3.264,0,0,1-2.464-.978A3.905,3.905,0,0,1,136.979,382.17Zm1.265,0a3.093,3.093,0,0,0,.608,2.089,2.026,2.026,0,0,0,3.056,0,3.165,3.165,0,0,0,.608-2.126,3,3,0,0,0-.612-2.04,2.028,2.028,0,0,0-3.052,0A3.077,3.077,0,0,0,138.243,382.17Z" transform="translate(-7.392 -17.049)"/><path class="cls-15" d="M145.209,385.8v-7.26h1.107v1.1a3.009,3.009,0,0,1,.783-1.019,1.366,1.366,0,0,1,.79-.246,2.4,2.4,0,0,1,1.265.4l-.424,1.142a1.761,1.761,0,0,0-.9-.267,1.175,1.175,0,0,0-.725.242,1.317,1.317,0,0,0-.458.674,4.793,4.793,0,0,0-.205,1.436v3.8Z" transform="translate(-7.392 -17.049)"/><path class="cls-15" d="M149.434,385.8v-1.4h1.4v1.4a2.494,2.494,0,0,1-.273,1.248,1.781,1.781,0,0,1-.868.734l-.342-.526a1.168,1.168,0,0,0,.574-.5,2.137,2.137,0,0,0,.205-.953Z" transform="translate(-7.392 -17.049)"/><path class="cls-15" d="M161.629,384.9a4.568,4.568,0,0,1-1.316.82,3.81,3.81,0,0,1-1.357.239,2.644,2.644,0,0,1-1.839-.584,1.932,1.932,0,0,1-.643-1.494,2.022,2.022,0,0,1,.878-1.682,2.983,2.983,0,0,1,.885-.4,8.918,8.918,0,0,1,1.094-.185,11.217,11.217,0,0,0,2.194-.424c0-.169.007-.275.007-.321a1.359,1.359,0,0,0-.349-1.06,2.058,2.058,0,0,0-1.4-.417,2.179,2.179,0,0,0-1.282.3,1.862,1.862,0,0,0-.612,1.077l-1.2-.164a2.981,2.981,0,0,1,.54-1.247,2.369,2.369,0,0,1,1.087-.732,4.873,4.873,0,0,1,1.647-.256,4.368,4.368,0,0,1,1.511.219,1.982,1.982,0,0,1,.854.551,1.933,1.933,0,0,1,.383.837,6.931,6.931,0,0,1,.062,1.135v1.641a17.469,17.469,0,0,0,.079,2.171,2.741,2.741,0,0,0,.311.871h-1.285A2.614,2.614,0,0,1,161.629,384.9Zm-.1-2.748a9.032,9.032,0,0,1-2.01.465,4.681,4.681,0,0,0-1.073.246,1.071,1.071,0,0,0-.485.4,1.088,1.088,0,0,0,.2,1.405,1.6,1.6,0,0,0,1.09.328,2.531,2.531,0,0,0,1.265-.312,1.912,1.912,0,0,0,.813-.851,2.972,2.972,0,0,0,.2-1.23Z" transform="translate(-7.392 -17.049)"/><path class="cls-15" d="M164.678,385.8v-7.26h1.107v1.032a2.609,2.609,0,0,1,2.311-1.2,3.014,3.014,0,0,1,1.207.236,1.892,1.892,0,0,1,.824.618,2.375,2.375,0,0,1,.383.909,7.063,7.063,0,0,1,.068,1.2V385.8h-1.23v-4.416a3.322,3.322,0,0,0-.144-1.125,1.18,1.18,0,0,0-.509-.594,1.617,1.617,0,0,0-.858-.223,1.992,1.992,0,0,0-1.357.5,2.463,2.463,0,0,0-.571,1.894V385.8Z" transform="translate(-7.392 -17.049)"/><path class="cls-15" d="M177.174,385.8v-.916a2.259,2.259,0,0,1-2.03,1.08,2.845,2.845,0,0,1-1.6-.479,3.151,3.151,0,0,1-1.128-1.336,4.621,4.621,0,0,1-.4-1.973,5.164,5.164,0,0,1,.362-1.973,2.86,2.86,0,0,1,1.087-1.356,2.905,2.905,0,0,1,1.62-.472,2.41,2.41,0,0,1,1.169.277,2.437,2.437,0,0,1,.834.721v-3.6h1.224V385.8Zm-3.89-3.623a3.151,3.151,0,0,0,.588,2.085,1.774,1.774,0,0,0,1.388.69,1.739,1.739,0,0,0,1.371-.66,3.039,3.039,0,0,0,.564-2.013,3.415,3.415,0,0,0-.574-2.187,1.766,1.766,0,0,0-1.415-.7,1.706,1.706,0,0,0-1.371.67A3.306,3.306,0,0,0,173.284,382.177Z" transform="translate(-7.392 -17.049)"/><path class="cls-15" d="M184.146,377.193v-1.415h1.23v1.415Zm0,8.606v-7.26h1.23v7.26Z" transform="translate(-7.392 -17.049)"/><path class="cls-15" d="M186.758,383.633l1.217-.191a1.7,1.7,0,0,0,.571,1.121,1.989,1.989,0,0,0,1.309.39,1.922,1.922,0,0,0,1.258-.346,1.031,1.031,0,0,0,.41-.81.746.746,0,0,0-.362-.656,5.35,5.35,0,0,0-1.258-.417,11.369,11.369,0,0,1-1.876-.592,1.788,1.788,0,0,1-1.063-1.664,1.87,1.87,0,0,1,.222-.9,1.987,1.987,0,0,1,.6-.687,2.542,2.542,0,0,1,.783-.359,3.734,3.734,0,0,1,1.063-.146,4.2,4.2,0,0,1,1.5.246,2.047,2.047,0,0,1,.954.666,2.612,2.612,0,0,1,.424,1.125l-1.2.164a1.315,1.315,0,0,0-.475-.875,1.736,1.736,0,0,0-1.111-.314,2.015,2.015,0,0,0-1.21.28.815.815,0,0,0-.362.656.681.681,0,0,0,.15.431,1.089,1.089,0,0,0,.472.328q.185.069,1.087.314a15.277,15.277,0,0,1,1.822.57,1.852,1.852,0,0,1,.81.646,1.8,1.8,0,0,1,.294,1.053,2.062,2.062,0,0,1-.359,1.158,2.321,2.321,0,0,1-1.036.842,3.785,3.785,0,0,1-1.531.3,3.414,3.414,0,0,1-2.157-.588A2.732,2.732,0,0,1,186.758,383.633Z" transform="translate(-7.392 -17.049)"/><path class="cls-15" d="M198.14,385.8v-7.26h1.107v1.032a2.609,2.609,0,0,1,2.311-1.2,3.014,3.014,0,0,1,1.207.236,1.892,1.892,0,0,1,.824.618,2.375,2.375,0,0,1,.383.909,7.063,7.063,0,0,1,.068,1.2V385.8h-1.23v-4.416a3.322,3.322,0,0,0-.144-1.125,1.18,1.18,0,0,0-.509-.594,1.617,1.617,0,0,0-.858-.223,1.992,1.992,0,0,0-1.357.5,2.463,2.463,0,0,0-.571,1.894V385.8Z" transform="translate(-7.392 -17.049)"/><path class="cls-15" d="M205.468,382.17a3.741,3.741,0,0,1,1.121-2.987,3.376,3.376,0,0,1,2.283-.807,3.259,3.259,0,0,1,2.447.98,3.734,3.734,0,0,1,.95,2.711,4.806,4.806,0,0,1-.42,2.205,2.974,2.974,0,0,1-1.224,1.247,3.567,3.567,0,0,1-1.753.444,3.264,3.264,0,0,1-2.464-.978A3.905,3.905,0,0,1,205.468,382.17Zm1.265,0a3.093,3.093,0,0,0,.608,2.089,2.026,2.026,0,0,0,3.056,0,3.165,3.165,0,0,0,.608-2.126,3,3,0,0,0-.612-2.04,2.028,2.028,0,0,0-3.052,0A3.077,3.077,0,0,0,206.732,382.17Z" transform="translate(-7.392 -17.049)"/><path class="cls-15" d="M217.574,385.8V375.778h1.23V385.8Z" transform="translate(-7.392 -17.049)"/><path class="cls-15" d="M220.254,382.17a3.74,3.74,0,0,1,1.121-2.987,3.376,3.376,0,0,1,2.283-.807,3.26,3.26,0,0,1,2.447.98,3.732,3.732,0,0,1,.95,2.711,4.793,4.793,0,0,1-.421,2.205,2.969,2.969,0,0,1-1.223,1.247,3.569,3.569,0,0,1-1.754.444,3.266,3.266,0,0,1-2.465-.978A3.907,3.907,0,0,1,220.254,382.17Zm1.265,0a3.1,3.1,0,0,0,.608,2.089,2.026,2.026,0,0,0,3.056,0,3.168,3.168,0,0,0,.608-2.126,3,3,0,0,0-.611-2.04,2.029,2.029,0,0,0-3.053,0A3.079,3.079,0,0,0,221.519,382.17Z" transform="translate(-7.392 -17.049)"/><path class="cls-15" d="M228.5,385.8v-7.26h1.107v1.032a2.609,2.609,0,0,1,2.311-1.2,3.01,3.01,0,0,1,1.206.236,1.894,1.894,0,0,1,.824.618,2.375,2.375,0,0,1,.383.909,7.011,7.011,0,0,1,.068,1.2V385.8h-1.23v-4.416a3.322,3.322,0,0,0-.144-1.125,1.182,1.182,0,0,0-.509-.594,1.62,1.62,0,0,0-.858-.223,1.989,1.989,0,0,0-1.356.5,2.461,2.461,0,0,0-.571,1.894V385.8Z" transform="translate(-7.392 -17.049)"/><path class="cls-15" d="M236.059,386.4l1.2.178a1.141,1.141,0,0,0,.417.807,2.052,2.052,0,0,0,1.251.342,2.2,2.2,0,0,0,1.319-.342,1.683,1.683,0,0,0,.629-.957,7.863,7.863,0,0,0,.089-1.579,2.531,2.531,0,0,1-2.01.95,2.741,2.741,0,0,1-2.317-1.08,4.159,4.159,0,0,1-.82-2.591,4.813,4.813,0,0,1,.376-1.917,3.01,3.01,0,0,1,1.091-1.357,2.939,2.939,0,0,1,1.678-.479,2.6,2.6,0,0,1,2.119,1.039v-.875h1.135v6.275a5.939,5.939,0,0,1-.346,2.4,2.513,2.513,0,0,1-1.094,1.118,3.785,3.785,0,0,1-1.842.41,3.467,3.467,0,0,1-2.1-.585A1.973,1.973,0,0,1,236.059,386.4Zm1.019-4.361a3.152,3.152,0,0,0,.567,2.085,1.871,1.871,0,0,0,2.844,0,3.044,3.044,0,0,0,.574-2.047,2.975,2.975,0,0,0-.592-2.01,1.827,1.827,0,0,0-1.425-.677,1.774,1.774,0,0,0-1.395.667A2.957,2.957,0,0,0,237.077,382.04Z" transform="translate(-7.392 -17.049)"/><path class="cls-15" d="M249.04,383.462l1.271.157a3.1,3.1,0,0,1-1.114,1.729,3.776,3.776,0,0,1-4.6-.365,3.838,3.838,0,0,1-.933-2.752,4.011,4.011,0,0,1,.943-2.844,3.192,3.192,0,0,1,2.447-1.012,3.1,3.1,0,0,1,2.379.991,3.939,3.939,0,0,1,.923,2.789c0,.073,0,.183-.007.328h-5.414a2.792,2.792,0,0,0,.677,1.832,2.013,2.013,0,0,0,1.518.636,1.881,1.881,0,0,0,1.155-.355A2.357,2.357,0,0,0,249.04,383.462ZM245,381.473h4.054a2.464,2.464,0,0,0-.465-1.374,1.887,1.887,0,0,0-1.524-.711,1.954,1.954,0,0,0-1.425.567A2.242,2.242,0,0,0,245,381.473Z" transform="translate(-7.392 -17.049)"/><path class="cls-15" d="M251.843,385.8v-7.26h1.107v1.1a3.015,3.015,0,0,1,.782-1.019,1.37,1.37,0,0,1,.79-.246,2.4,2.4,0,0,1,1.265.4l-.424,1.142a1.761,1.761,0,0,0-.9-.267,1.175,1.175,0,0,0-.725.242,1.317,1.317,0,0,0-.458.674,4.793,4.793,0,0,0-.205,1.436v3.8Z" transform="translate(-7.392 -17.049)"/><path class="cls-15" d="M265.146,384.9a4.569,4.569,0,0,1-1.316.82,3.8,3.8,0,0,1-1.356.239,2.644,2.644,0,0,1-1.839-.584,1.93,1.93,0,0,1-.643-1.494,2.018,2.018,0,0,1,.879-1.682,2.975,2.975,0,0,1,.885-.4,8.918,8.918,0,0,1,1.094-.185,11.232,11.232,0,0,0,2.194-.424c0-.169.007-.275.007-.321a1.359,1.359,0,0,0-.349-1.06,2.057,2.057,0,0,0-1.4-.417,2.175,2.175,0,0,0-1.281.3,1.857,1.857,0,0,0-.612,1.077l-1.2-.164a2.975,2.975,0,0,1,.54-1.247,2.374,2.374,0,0,1,1.087-.732,4.873,4.873,0,0,1,1.647-.256,4.368,4.368,0,0,1,1.511.219,1.982,1.982,0,0,1,.854.551,1.933,1.933,0,0,1,.383.837,6.931,6.931,0,0,1,.062,1.135v1.641a17.328,17.328,0,0,0,.079,2.171,2.717,2.717,0,0,0,.311.871h-1.285A2.592,2.592,0,0,1,265.146,384.9Zm-.1-2.748a9.018,9.018,0,0,1-2.01.465,4.688,4.688,0,0,0-1.073.246,1.071,1.071,0,0,0-.485.4,1.088,1.088,0,0,0,.2,1.405,1.6,1.6,0,0,0,1.09.328,2.532,2.532,0,0,0,1.265-.312,1.909,1.909,0,0,0,.813-.851,2.98,2.98,0,0,0,.2-1.23Z" transform="translate(-7.392 -17.049)"/><path class="cls-15" d="M273.048,377.46v1.429h-1.319v-1.128a2.985,2.985,0,0,1,.219-1.326,1.838,1.838,0,0,1,.909-.827l.3.479a1.1,1.1,0,0,0-.554.468,2.008,2.008,0,0,0-.2.906Zm2.119,0v1.429h-1.319v-1.128a2.985,2.985,0,0,1,.219-1.326,1.838,1.838,0,0,1,.909-.827l.3.479a1.1,1.1,0,0,0-.554.468,2.008,2.008,0,0,0-.2.906Z" transform="translate(-7.392 -17.049)"/><path class="cls-15" d="M276.254,383.633l1.217-.191a1.7,1.7,0,0,0,.571,1.121,1.987,1.987,0,0,0,1.309.39,1.921,1.921,0,0,0,1.258-.346,1.031,1.031,0,0,0,.41-.81.747.747,0,0,0-.362-.656,5.358,5.358,0,0,0-1.258-.417,11.327,11.327,0,0,1-1.876-.592,1.79,1.79,0,0,1-1.063-1.664,1.875,1.875,0,0,1,.222-.9,2,2,0,0,1,.605-.687,2.54,2.54,0,0,1,.783-.359,3.73,3.73,0,0,1,1.063-.146,4.2,4.2,0,0,1,1.5.246,2.044,2.044,0,0,1,.954.666,2.606,2.606,0,0,1,.424,1.125l-1.2.164a1.314,1.314,0,0,0-.476-.875,1.734,1.734,0,0,0-1.11-.314,2.013,2.013,0,0,0-1.21.28.816.816,0,0,0-.362.656.679.679,0,0,0,.15.431,1.094,1.094,0,0,0,.472.328q.185.069,1.087.314a15.261,15.261,0,0,1,1.821.57,1.853,1.853,0,0,1,.811.646,1.8,1.8,0,0,1,.294,1.053,2.069,2.069,0,0,1-.358,1.158,2.328,2.328,0,0,1-1.036.842,3.787,3.787,0,0,1-1.531.3,3.416,3.416,0,0,1-2.157-.588A2.733,2.733,0,0,1,276.254,383.633Z" transform="translate(-7.392 -17.049)"/><path class="cls-15" d="M283.753,385.8V375.778h1.23v5.715l2.912-2.953h1.593l-2.775,2.693,3.056,4.566h-1.518l-2.4-3.712-.868.834V385.8Z" transform="translate(-7.392 -17.049)"/><path class="cls-15" d="M290.753,377.193v-1.415h1.23v1.415Zm0,8.606v-7.26h1.23v7.26Z" transform="translate(-7.392 -17.049)"/><path class="cls-15" d="M293.856,388.582V378.54h1.121v.943a2.751,2.751,0,0,1,.9-.83,2.452,2.452,0,0,1,1.21-.277,2.865,2.865,0,0,1,1.641.479,2.942,2.942,0,0,1,1.073,1.35,4.943,4.943,0,0,1,.362,1.911,4.873,4.873,0,0,1-.4,2.007,3.031,3.031,0,0,1-1.162,1.367,2.989,2.989,0,0,1-1.6.475,2.316,2.316,0,0,1-1.1-.26,2.508,2.508,0,0,1-.8-.656v3.534Zm1.114-6.371a3.159,3.159,0,0,0,.567,2.071,1.74,1.74,0,0,0,1.374.67,1.778,1.778,0,0,0,1.4-.693,3.288,3.288,0,0,0,.585-2.15,3.205,3.205,0,0,0-.571-2.078,1.718,1.718,0,0,0-1.363-.69,1.769,1.769,0,0,0-1.391.735A3.279,3.279,0,0,0,294.971,382.211Z" transform="translate(-7.392 -17.049)"/><path class="cls-15" d="M305.689,385.8V375.778h3.78a9.163,9.163,0,0,1,1.524.1,3.017,3.017,0,0,1,1.237.469,2.449,2.449,0,0,1,.8.967,3.264,3.264,0,0,1-.51,3.531,3.9,3.9,0,0,1-2.939.885h-2.57V385.8Zm1.326-5.257h2.591a2.747,2.747,0,0,0,1.825-.479,1.7,1.7,0,0,0,.54-1.347,1.816,1.816,0,0,0-.317-1.076,1.488,1.488,0,0,0-.838-.592,5.647,5.647,0,0,0-1.237-.089h-2.563Z" transform="translate(-7.392 -17.049)"/><path class="cls-15" d="M319.84,383.462l1.271.157A3.1,3.1,0,0,1,320,385.349a3.776,3.776,0,0,1-4.6-.365,3.838,3.838,0,0,1-.933-2.752,4.011,4.011,0,0,1,.943-2.844,3.192,3.192,0,0,1,2.447-1.012,3.1,3.1,0,0,1,2.379.991,3.939,3.939,0,0,1,.923,2.789c0,.073,0,.183-.007.328h-5.414a2.792,2.792,0,0,0,.677,1.832,2.013,2.013,0,0,0,1.518.636,1.881,1.881,0,0,0,1.155-.355A2.357,2.357,0,0,0,319.84,383.462Zm-4.04-1.989h4.054a2.464,2.464,0,0,0-.465-1.374,1.887,1.887,0,0,0-1.524-.711,1.954,1.954,0,0,0-1.425.567A2.242,2.242,0,0,0,315.8,381.473Z" transform="translate(-7.392 -17.049)"/><path class="cls-15" d="M322.643,385.8v-7.26h1.107v1.1a3.015,3.015,0,0,1,.782-1.019,1.37,1.37,0,0,1,.79-.246,2.4,2.4,0,0,1,1.265.4l-.424,1.142a1.761,1.761,0,0,0-.9-.267,1.175,1.175,0,0,0-.725.242,1.317,1.317,0,0,0-.458.674,4.793,4.793,0,0,0-.205,1.436v3.8Z" transform="translate(-7.392 -17.049)"/><path class="cls-15" d="M326.826,383.633l1.217-.191a1.7,1.7,0,0,0,.571,1.121,1.987,1.987,0,0,0,1.309.39,1.921,1.921,0,0,0,1.258-.346,1.031,1.031,0,0,0,.41-.81.747.747,0,0,0-.362-.656,5.358,5.358,0,0,0-1.258-.417,11.327,11.327,0,0,1-1.876-.592,1.79,1.79,0,0,1-1.063-1.664,1.875,1.875,0,0,1,.222-.9,2,2,0,0,1,.605-.687,2.54,2.54,0,0,1,.783-.359,3.73,3.73,0,0,1,1.063-.146,4.2,4.2,0,0,1,1.5.246,2.044,2.044,0,0,1,.954.666,2.606,2.606,0,0,1,.424,1.125l-1.2.164a1.314,1.314,0,0,0-.476-.875,1.734,1.734,0,0,0-1.11-.314,2.013,2.013,0,0,0-1.21.28.816.816,0,0,0-.362.656.679.679,0,0,0,.15.431,1.094,1.094,0,0,0,.472.328q.185.069,1.087.314a15.261,15.261,0,0,1,1.821.57,1.853,1.853,0,0,1,.811.646,1.8,1.8,0,0,1,.294,1.053,2.069,2.069,0,0,1-.358,1.158,2.328,2.328,0,0,1-1.036.842,3.787,3.787,0,0,1-1.531.3,3.416,3.416,0,0,1-2.157-.588A2.733,2.733,0,0,1,326.826,383.633Z" transform="translate(-7.392 -17.049)"/><path class="cls-15" d="M333.86,382.17a3.743,3.743,0,0,1,1.121-2.987,3.376,3.376,0,0,1,2.283-.807,3.26,3.26,0,0,1,2.447.98,3.732,3.732,0,0,1,.95,2.711,4.793,4.793,0,0,1-.421,2.205,2.969,2.969,0,0,1-1.223,1.247,3.569,3.569,0,0,1-1.754.444,3.266,3.266,0,0,1-2.465-.978A3.907,3.907,0,0,1,333.86,382.17Zm1.265,0a3.1,3.1,0,0,0,.608,2.089,2.026,2.026,0,0,0,3.056,0,3.168,3.168,0,0,0,.608-2.126,3,3,0,0,0-.611-2.04,2.029,2.029,0,0,0-3.053,0A3.079,3.079,0,0,0,335.125,382.17Z" transform="translate(-7.392 -17.049)"/><path class="cls-15" d="M342.1,385.8v-7.26h1.107v1.032a2.609,2.609,0,0,1,2.311-1.2,3.01,3.01,0,0,1,1.206.236,1.894,1.894,0,0,1,.824.618,2.375,2.375,0,0,1,.383.909,7.011,7.011,0,0,1,.068,1.2V385.8h-1.23v-4.416a3.322,3.322,0,0,0-.144-1.125,1.182,1.182,0,0,0-.509-.594,1.62,1.62,0,0,0-.858-.223,1.989,1.989,0,0,0-1.356.5,2.461,2.461,0,0,0-.571,1.894V385.8Z" transform="translate(-7.392 -17.049)"/><path class="cls-15" d="M350.239,385.8v-1.4h1.4v1.4Z" transform="translate(-7.392 -17.049)"/><path class="cls-15" d="M353.452,377.1v-1.429h1.319V376.8a3.011,3.011,0,0,1-.212,1.319,1.864,1.864,0,0,1-.916.834l-.3-.485a1.069,1.069,0,0,0,.55-.475,1.992,1.992,0,0,0,.2-.893Zm2.119,0v-1.429h1.319V376.8a3.011,3.011,0,0,1-.212,1.319,1.864,1.864,0,0,1-.916.834l-.3-.485a1.069,1.069,0,0,0,.55-.475,1.992,1.992,0,0,0,.2-.893Z" transform="translate(-7.392 -17.049)"/></svg>