<svg id="Layer_1" data-name="Layer 1" xmlns="http://www.w3.org/2000/svg" viewBox="0 0 504.457 336.651"><defs><style>.cls-1{fill:none;stroke:#231f20;}.cls-2{fill:#2977b3;}.cls-3{fill:#4b8fcc;}.cls-4{fill:#25659f;}.cls-5{fill:#367cbc;}.cls-6{fill:#64a6da;}.cls-7{fill:#fff;}.cls-8{fill:#9ac5e7;}.cls-9{fill:#154168;}.cls-10{fill:#16385e;}</style></defs><title>Review_Exercise</title><line class="cls-1" x1="79.945" y1="240.725" x2="138.699" y2="299.48"/><line class="cls-1" x1="424.728" y1="240.725" x2="483.483" y2="299.48"/><line class="cls-1" x1="422.146" y1="240.725" x2="363.391" y2="299.48"/><line class="cls-1" x1="76.406" y1="240.725" x2="17.651" y2="299.48"/><line class="cls-1" x1="347.584" y1="46.026" x2="402.79" y2="101.232"/><line class="cls-1" x1="155.438" y1="46.026" x2="100.232" y2="101.232"/><rect class="cls-2" x="5.631" y="193.519" width="148.628" height="47.206"/><rect class="cls-3" x="179.256" y="97.305" width="148.628" height="47.206"/><rect class="cls-4" y="289.397" width="74.314" height="47.206"/><rect class="cls-5" x="179.903" y="193.519" width="148.628" height="47.206"/><rect class="cls-6" x="350.414" y="97.305" width="148.628" height="47.206"/><path class="cls-7" d="M380.374,131.694l1.209-.166a2.59,2.59,0,0,0,.436,1.589,1.369,1.369,0,0,0,1.071.429,1.6,1.6,0,0,0,.871-.231,1.186,1.186,0,0,0,.5-.629,4.18,4.18,0,0,0,.139-1.269v-6.98h1.341v6.9a5.029,5.029,0,0,1-.308,1.97,2.192,2.192,0,0,1-.975,1.064,3.2,3.2,0,0,1-1.565.366,2.64,2.64,0,0,1-2.042-.767A3.164,3.164,0,0,1,380.374,131.694Z" transform="translate(-5 -8.943)"/><path class="cls-7" d="M392.766,133.664a4.636,4.636,0,0,1-1.33.829,3.84,3.84,0,0,1-1.372.242,2.667,2.667,0,0,1-1.859-.591,1.947,1.947,0,0,1-.649-1.51,2,2,0,0,1,.245-.985,2.029,2.029,0,0,1,.643-.716,3.022,3.022,0,0,1,.9-.408,8.918,8.918,0,0,1,1.105-.187,11.385,11.385,0,0,0,2.219-.428c0-.17.007-.279.007-.325a1.372,1.372,0,0,0-.353-1.071,2.082,2.082,0,0,0-1.417-.421,2.2,2.2,0,0,0-1.3.308,1.882,1.882,0,0,0-.618,1.088l-1.217-.166a3.018,3.018,0,0,1,.546-1.261,2.4,2.4,0,0,1,1.1-.74,4.907,4.907,0,0,1,1.665-.259,4.406,4.406,0,0,1,1.527.221,2.014,2.014,0,0,1,.864.556,1.95,1.95,0,0,1,.387.847,6.934,6.934,0,0,1,.063,1.147v1.659a17.4,17.4,0,0,0,.08,2.194,2.745,2.745,0,0,0,.314.881h-1.3A2.646,2.646,0,0,1,392.766,133.664Zm-.1-2.779a9.1,9.1,0,0,1-2.032.47,4.685,4.685,0,0,0-1.085.249,1.071,1.071,0,0,0-.49.4,1.1,1.1,0,0,0,.2,1.42,1.621,1.621,0,0,0,1.1.332,2.571,2.571,0,0,0,1.279-.314,1.941,1.941,0,0,0,.822-.86,3,3,0,0,0,.2-1.244Z" transform="translate(-5 -8.943)"/><path class="cls-7" d="M395.849,134.569v-7.34h1.12v1.044a2.638,2.638,0,0,1,2.336-1.209,3.057,3.057,0,0,1,1.22.238,1.923,1.923,0,0,1,.833.625,2.407,2.407,0,0,1,.388.919,7.164,7.164,0,0,1,.068,1.209v4.513h-1.244V130.1a3.36,3.36,0,0,0-.145-1.137,1.2,1.2,0,0,0-.516-.6,1.634,1.634,0,0,0-.867-.225,2.017,2.017,0,0,0-1.372.5,2.489,2.489,0,0,0-.577,1.915v4.009Z" transform="translate(-5 -8.943)"/><path class="cls-7" d="M408.746,132.205l1.285.159a3.136,3.136,0,0,1-1.126,1.749,3.816,3.816,0,0,1-4.655-.37,3.875,3.875,0,0,1-.943-2.782,4.051,4.051,0,0,1,.954-2.875,3.226,3.226,0,0,1,2.474-1.023,3.139,3.139,0,0,1,2.405,1,3.983,3.983,0,0,1,.934,2.82c0,.074,0,.185-.007.332h-5.475a2.819,2.819,0,0,0,.685,1.852,2.037,2.037,0,0,0,1.534.643,1.905,1.905,0,0,0,1.168-.359A2.392,2.392,0,0,0,408.746,132.205Zm-4.085-2.011h4.1a2.49,2.49,0,0,0-.47-1.389,1.907,1.907,0,0,0-1.542-.719,1.974,1.974,0,0,0-1.44.573A2.268,2.268,0,0,0,404.661,130.194Z" transform="translate(-5 -8.943)"/><path class="cls-7" d="M415.042,131.528v-1.251h3.822v1.251Z" transform="translate(-5 -8.943)"/><path class="cls-7" d="M424.331,134.569V124.437h3.49a8.482,8.482,0,0,1,1.8.145,3.435,3.435,0,0,1,1.485.726,4.115,4.115,0,0,1,1.2,1.731,6.8,6.8,0,0,1,.4,2.409,7.077,7.077,0,0,1-.27,2.046,4.958,4.958,0,0,1-.691,1.476,3.656,3.656,0,0,1-.922.919,3.766,3.766,0,0,1-1.21.508,6.9,6.9,0,0,1-1.628.173Zm1.341-1.2h2.164a5.25,5.25,0,0,0,1.572-.187,2.245,2.245,0,0,0,.908-.525,3.182,3.182,0,0,0,.743-1.282,6.255,6.255,0,0,0,.267-1.952,4.706,4.706,0,0,0-.522-2.443,2.629,2.629,0,0,0-1.268-1.144,5.25,5.25,0,0,0-1.735-.207h-2.129Z" transform="translate(-5 -8.943)"/><path class="cls-7" d="M439.42,132.205l1.285.159a3.136,3.136,0,0,1-1.126,1.749,3.816,3.816,0,0,1-4.655-.37,3.875,3.875,0,0,1-.943-2.782,4.051,4.051,0,0,1,.954-2.875,3.226,3.226,0,0,1,2.474-1.023,3.139,3.139,0,0,1,2.405,1,3.983,3.983,0,0,1,.934,2.82c0,.074,0,.185-.007.332h-5.475a2.819,2.819,0,0,0,.685,1.852,2.037,2.037,0,0,0,1.534.643,1.905,1.905,0,0,0,1.168-.359A2.392,2.392,0,0,0,439.42,132.205Zm-4.085-2.011h4.1a2.49,2.49,0,0,0-.47-1.389,1.907,1.907,0,0,0-1.542-.719,1.974,1.974,0,0,0-1.44.573A2.268,2.268,0,0,0,435.335,130.194Z" transform="translate(-5 -8.943)"/><path class="cls-7" d="M447.057,131.88l1.224.159a3.174,3.174,0,0,1-1.026,1.98,2.991,2.991,0,0,1-2.028.715,3.153,3.153,0,0,1-2.423-.985,4,4,0,0,1-.916-2.824,5.106,5.106,0,0,1,.395-2.08,2.743,2.743,0,0,1,1.2-1.337,3.552,3.552,0,0,1,1.752-.446,3.048,3.048,0,0,1,1.956.6,2.778,2.778,0,0,1,.975,1.718l-1.21.187a2.012,2.012,0,0,0-.611-1.113,1.583,1.583,0,0,0-1.062-.373,1.932,1.932,0,0,0-1.527.674,3.2,3.2,0,0,0-.587,2.132,3.306,3.306,0,0,0,.566,2.149,1.845,1.845,0,0,0,1.479.67,1.743,1.743,0,0,0,1.224-.449A2.232,2.232,0,0,0,447.057,131.88Z" transform="translate(-5 -8.943)"/><path class="cls-7" d="M454.369,132.205l1.285.159a3.136,3.136,0,0,1-1.126,1.749,3.816,3.816,0,0,1-4.655-.37,3.875,3.875,0,0,1-.943-2.782,4.051,4.051,0,0,1,.954-2.875,3.226,3.226,0,0,1,2.474-1.023,3.139,3.139,0,0,1,2.405,1,3.983,3.983,0,0,1,.934,2.82c0,.074,0,.185-.007.332h-5.475a2.819,2.819,0,0,0,.685,1.852,2.037,2.037,0,0,0,1.534.643,1.905,1.905,0,0,0,1.168-.359A2.392,2.392,0,0,0,454.369,132.205Zm-4.085-2.011h4.1a2.49,2.49,0,0,0-.47-1.389,1.907,1.907,0,0,0-1.542-.719,1.974,1.974,0,0,0-1.44.573A2.268,2.268,0,0,0,450.284,130.194Z" transform="translate(-5 -8.943)"/><path class="cls-7" d="M462.007,133.664a4.636,4.636,0,0,1-1.33.829,3.84,3.84,0,0,1-1.372.242,2.667,2.667,0,0,1-1.859-.591,1.947,1.947,0,0,1-.649-1.51,2,2,0,0,1,.245-.985,2.029,2.029,0,0,1,.643-.716,3.022,3.022,0,0,1,.9-.408,8.918,8.918,0,0,1,1.105-.187,11.385,11.385,0,0,0,2.219-.428c0-.17.007-.279.007-.325a1.372,1.372,0,0,0-.353-1.071,2.082,2.082,0,0,0-1.417-.421,2.2,2.2,0,0,0-1.3.308,1.882,1.882,0,0,0-.618,1.088l-1.217-.166a3.018,3.018,0,0,1,.546-1.261,2.4,2.4,0,0,1,1.1-.74,4.907,4.907,0,0,1,1.665-.259,4.406,4.406,0,0,1,1.527.221,2.014,2.014,0,0,1,.864.556,1.95,1.95,0,0,1,.387.847,6.934,6.934,0,0,1,.063,1.147v1.659a17.4,17.4,0,0,0,.08,2.194,2.745,2.745,0,0,0,.314.881h-1.3A2.646,2.646,0,0,1,462.007,133.664Zm-.1-2.779a9.1,9.1,0,0,1-2.032.47,4.685,4.685,0,0,0-1.085.249,1.071,1.071,0,0,0-.49.4,1.1,1.1,0,0,0,.2,1.42,1.621,1.621,0,0,0,1.1.332,2.571,2.571,0,0,0,1.279-.314,1.941,1.941,0,0,0,.822-.86,3,3,0,0,0,.2-1.244Z" transform="translate(-5 -8.943)"/><path class="cls-7" d="M464.592,132.378l1.23-.193a1.713,1.713,0,0,0,.577,1.133,2.011,2.011,0,0,0,1.323.394,1.942,1.942,0,0,0,1.271-.349,1.044,1.044,0,0,0,.415-.819.755.755,0,0,0-.366-.664,5.39,5.39,0,0,0-1.271-.422,11.62,11.62,0,0,1-1.9-.6,1.813,1.813,0,0,1-1.075-1.683,1.894,1.894,0,0,1,.225-.909,2.007,2.007,0,0,1,.612-.695,2.568,2.568,0,0,1,.791-.363,3.762,3.762,0,0,1,1.075-.148,4.257,4.257,0,0,1,1.517.249,2.062,2.062,0,0,1,.964.674,2.625,2.625,0,0,1,.429,1.137l-1.216.166a1.333,1.333,0,0,0-.48-.885,1.759,1.759,0,0,0-1.123-.318,2.033,2.033,0,0,0-1.224.283.825.825,0,0,0-.366.664.691.691,0,0,0,.151.436,1.1,1.1,0,0,0,.478.332q.186.069,1.1.318a15.329,15.329,0,0,1,1.842.577,1.873,1.873,0,0,1,.819.653,1.823,1.823,0,0,1,.3,1.064,2.093,2.093,0,0,1-.362,1.171,2.346,2.346,0,0,1-1.048.85,3.813,3.813,0,0,1-1.548.3,3.447,3.447,0,0,1-2.181-.595A2.76,2.76,0,0,1,464.592,132.378Z" transform="translate(-5 -8.943)"/><path class="cls-7" d="M477.191,132.205l1.285.159a3.136,3.136,0,0,1-1.126,1.749,3.816,3.816,0,0,1-4.655-.37,3.875,3.875,0,0,1-.943-2.782,4.051,4.051,0,0,1,.954-2.875,3.226,3.226,0,0,1,2.474-1.023,3.139,3.139,0,0,1,2.405,1,3.983,3.983,0,0,1,.934,2.82c0,.074,0,.185-.007.332h-5.475a2.819,2.819,0,0,0,.685,1.852,2.037,2.037,0,0,0,1.534.643,1.905,1.905,0,0,0,1.168-.359A2.392,2.392,0,0,0,477.191,132.205Zm-4.085-2.011h4.1a2.49,2.49,0,0,0-.47-1.389,1.907,1.907,0,0,0-1.542-.719,1.974,1.974,0,0,0-1.44.573A2.268,2.268,0,0,0,473.106,130.194Z" transform="translate(-5 -8.943)"/><path class="cls-7" d="M484.8,134.569v-.926a2.283,2.283,0,0,1-2.053,1.092,2.884,2.884,0,0,1-1.614-.484,3.187,3.187,0,0,1-1.141-1.351,4.672,4.672,0,0,1-.4-1.994,5.2,5.2,0,0,1,.367-1.994,2.889,2.889,0,0,1,1.1-1.372,2.937,2.937,0,0,1,1.638-.477,2.445,2.445,0,0,1,1.182.28,2.475,2.475,0,0,1,.844.729v-3.635h1.237v10.132Zm-3.933-3.663a3.192,3.192,0,0,0,.594,2.108,1.793,1.793,0,0,0,1.4.7,1.758,1.758,0,0,0,1.386-.667,3.077,3.077,0,0,0,.57-2.036,3.453,3.453,0,0,0-.58-2.211,1.786,1.786,0,0,0-1.431-.705,1.721,1.721,0,0,0-1.386.677A3.342,3.342,0,0,0,480.869,130.906Z" transform="translate(-5 -8.943)"/><path class="cls-7" d="M237.909,131.694l1.209-.166a2.586,2.586,0,0,0,.436,1.589,1.369,1.369,0,0,0,1.071.429,1.6,1.6,0,0,0,.871-.231,1.189,1.189,0,0,0,.5-.629,4.2,4.2,0,0,0,.138-1.269v-6.98h1.341v6.9a5.029,5.029,0,0,1-.308,1.97,2.19,2.19,0,0,1-.975,1.064,3.2,3.2,0,0,1-1.565.366,2.644,2.644,0,0,1-2.042-.767A3.166,3.166,0,0,1,237.909,131.694Z" transform="translate(-5 -8.943)"/><path class="cls-7" d="M250.3,133.664a4.629,4.629,0,0,1-1.33.829,3.838,3.838,0,0,1-1.372.242,2.668,2.668,0,0,1-1.859-.591,1.949,1.949,0,0,1-.65-1.51,2.008,2.008,0,0,1,.246-.985,2.033,2.033,0,0,1,.643-.716,3.031,3.031,0,0,1,.9-.408,8.946,8.946,0,0,1,1.106-.187,11.393,11.393,0,0,0,2.219-.428q.007-.256.007-.325a1.372,1.372,0,0,0-.353-1.071,2.083,2.083,0,0,0-1.417-.421,2.2,2.2,0,0,0-1.3.308,1.877,1.877,0,0,0-.618,1.088l-1.217-.166a3.012,3.012,0,0,1,.546-1.261,2.391,2.391,0,0,1,1.1-.74,4.915,4.915,0,0,1,1.666-.259,4.408,4.408,0,0,1,1.527.221,2.009,2.009,0,0,1,.864.556,1.961,1.961,0,0,1,.387.847,7.006,7.006,0,0,1,.062,1.147v1.659a17.542,17.542,0,0,0,.08,2.194,2.757,2.757,0,0,0,.314.881h-1.3A2.646,2.646,0,0,1,250.3,133.664Zm-.1-2.779a9.105,9.105,0,0,1-2.032.47,4.692,4.692,0,0,0-1.085.249,1.078,1.078,0,0,0-.491.4,1.1,1.1,0,0,0,.2,1.42,1.62,1.62,0,0,0,1.1.332,2.567,2.567,0,0,0,1.279-.314,1.939,1.939,0,0,0,.823-.86,3.012,3.012,0,0,0,.2-1.244Z" transform="translate(-5 -8.943)"/><path class="cls-7" d="M253.384,134.569v-7.34H254.5v1.03a2.616,2.616,0,0,1,.919-.867,2.585,2.585,0,0,1,1.307-.328,2.417,2.417,0,0,1,1.337.338,1.814,1.814,0,0,1,.736.947,2.635,2.635,0,0,1,2.267-1.285,2.236,2.236,0,0,1,1.68.6,2.586,2.586,0,0,1,.587,1.863v5.039h-1.237v-4.624a3.41,3.41,0,0,0-.121-1.075,1.045,1.045,0,0,0-.439-.529,1.373,1.373,0,0,0-.747-.2,1.739,1.739,0,0,0-1.286.515,2.269,2.269,0,0,0-.511,1.648v4.265h-1.244V129.8a2.1,2.1,0,0,0-.3-1.244,1.152,1.152,0,0,0-1-.415,1.808,1.808,0,0,0-.971.276,1.571,1.571,0,0,0-.646.809,4.563,4.563,0,0,0-.2,1.535v3.808Z" transform="translate(-5 -8.943)"/><path class="cls-7" d="M270.2,132.206l1.285.159a3.137,3.137,0,0,1-1.126,1.749,3.816,3.816,0,0,1-4.655-.37,3.875,3.875,0,0,1-.943-2.782,4.055,4.055,0,0,1,.954-2.875,3.228,3.228,0,0,1,2.475-1.023,3.137,3.137,0,0,1,2.4,1,3.983,3.983,0,0,1,.933,2.82c0,.074,0,.185-.007.332h-5.474a2.821,2.821,0,0,0,.685,1.852,2.036,2.036,0,0,0,1.534.643,1.905,1.905,0,0,0,1.168-.359A2.386,2.386,0,0,0,270.2,132.206Zm-4.085-2.011h4.1a2.482,2.482,0,0,0-.47-1.389,1.9,1.9,0,0,0-1.541-.719,1.976,1.976,0,0,0-1.441.573A2.271,2.271,0,0,0,266.116,130.194Z" transform="translate(-5 -8.943)"/><path class="cls-7" d="M272.55,132.378l1.23-.193a1.722,1.722,0,0,0,.577,1.133,2.012,2.012,0,0,0,1.324.394,1.945,1.945,0,0,0,1.272-.349,1.044,1.044,0,0,0,.415-.819.755.755,0,0,0-.366-.664,5.388,5.388,0,0,0-1.272-.422,11.627,11.627,0,0,1-1.9-.6,1.813,1.813,0,0,1-1.075-1.683,1.894,1.894,0,0,1,.225-.909,2.021,2.021,0,0,1,.612-.695,2.577,2.577,0,0,1,.792-.363,3.761,3.761,0,0,1,1.075-.148,4.256,4.256,0,0,1,1.517.249,2.066,2.066,0,0,1,.964.674,2.637,2.637,0,0,1,.428,1.137l-1.216.166a1.329,1.329,0,0,0-.48-.885,1.757,1.757,0,0,0-1.123-.318,2.033,2.033,0,0,0-1.223.283.825.825,0,0,0-.367.664.686.686,0,0,0,.152.436,1.1,1.1,0,0,0,.477.332q.187.069,1.1.318a15.329,15.329,0,0,1,1.842.577,1.87,1.87,0,0,1,.819.653,1.826,1.826,0,0,1,.3,1.064,2.086,2.086,0,0,1-.363,1.171,2.346,2.346,0,0,1-1.047.85,3.815,3.815,0,0,1-1.548.3,3.448,3.448,0,0,1-2.181-.595A2.762,2.762,0,0,1,272.55,132.378Z" transform="translate(-5 -8.943)"/><rect class="cls-8" x="154.258" width="196.156" height="47.206"/><path class="cls-9" d="M185.981,34.009l1.265-.11a2.788,2.788,0,0,0,.418,1.247,2.277,2.277,0,0,0,1.02.788,3.855,3.855,0,0,0,1.555.3,3.73,3.73,0,0,0,1.354-.228,1.882,1.882,0,0,0,.875-.625,1.454,1.454,0,0,0,.287-.868,1.319,1.319,0,0,0-.276-.833,2.052,2.052,0,0,0-.912-.6,17.917,17.917,0,0,0-1.8-.494,9.2,9.2,0,0,1-1.956-.632,2.742,2.742,0,0,1-1.082-.943,2.312,2.312,0,0,1-.356-1.261,2.575,2.575,0,0,1,.436-1.435,2.7,2.7,0,0,1,1.271-1.012,4.824,4.824,0,0,1,1.859-.346,5.08,5.08,0,0,1,1.987.363,2.863,2.863,0,0,1,1.324,1.068,3.067,3.067,0,0,1,.5,1.6l-1.285.1a2.077,2.077,0,0,0-.7-1.452,2.732,2.732,0,0,0-1.766-.491,2.837,2.837,0,0,0-1.773.446,1.338,1.338,0,0,0-.556,1.075,1.153,1.153,0,0,0,.394.9,5.339,5.339,0,0,0,2.021.722,13.4,13.4,0,0,1,2.243.646,3.075,3.075,0,0,1,1.307,1.034,2.518,2.518,0,0,1,.421,1.441,2.757,2.757,0,0,1-.463,1.524,3.053,3.053,0,0,1-1.331,1.113,4.639,4.639,0,0,1-1.953.4,5.835,5.835,0,0,1-2.305-.4,3.228,3.228,0,0,1-1.458-1.206A3.421,3.421,0,0,1,185.981,34.009Z" transform="translate(-5 -8.943)"/><path class="cls-9" d="M200.509,36.359a4.629,4.629,0,0,1-1.33.829,3.838,3.838,0,0,1-1.372.242,2.668,2.668,0,0,1-1.859-.591,1.949,1.949,0,0,1-.65-1.51,2.008,2.008,0,0,1,.246-.985,2.033,2.033,0,0,1,.643-.716,3.031,3.031,0,0,1,.9-.408,8.946,8.946,0,0,1,1.106-.187,11.393,11.393,0,0,0,2.219-.428q.007-.256.007-.325a1.372,1.372,0,0,0-.353-1.071,2.083,2.083,0,0,0-1.417-.421,2.2,2.2,0,0,0-1.3.308,1.877,1.877,0,0,0-.618,1.088l-1.217-.166a3.012,3.012,0,0,1,.546-1.261,2.391,2.391,0,0,1,1.1-.74,4.915,4.915,0,0,1,1.666-.259,4.408,4.408,0,0,1,1.527.221,2.009,2.009,0,0,1,.864.556,1.961,1.961,0,0,1,.387.847,7.006,7.006,0,0,1,.062,1.147v1.659a17.542,17.542,0,0,0,.08,2.194,2.757,2.757,0,0,0,.314.881h-1.3A2.646,2.646,0,0,1,200.509,36.359Zm-.1-2.779a9.105,9.105,0,0,1-2.032.47,4.692,4.692,0,0,0-1.085.249,1.078,1.078,0,0,0-.491.4,1.1,1.1,0,0,0,.2,1.42,1.62,1.62,0,0,0,1.1.332,2.567,2.567,0,0,0,1.279-.314,1.939,1.939,0,0,0,.823-.86,3.012,3.012,0,0,0,.2-1.244Z" transform="translate(-5 -8.943)"/><path class="cls-9" d="M203.592,37.265v-7.34H204.7v1.03a2.616,2.616,0,0,1,.919-.867,2.585,2.585,0,0,1,1.307-.328,2.417,2.417,0,0,1,1.337.338,1.814,1.814,0,0,1,.736.947,2.635,2.635,0,0,1,2.267-1.285,2.236,2.236,0,0,1,1.68.6,2.586,2.586,0,0,1,.587,1.863v5.039H212.3V32.641a3.41,3.41,0,0,0-.121-1.075,1.045,1.045,0,0,0-.439-.529,1.373,1.373,0,0,0-.747-.2,1.739,1.739,0,0,0-1.286.515A2.269,2.269,0,0,0,209.2,33v4.265h-1.244V32.5a2.1,2.1,0,0,0-.3-1.244,1.152,1.152,0,0,0-1-.415,1.808,1.808,0,0,0-.971.276,1.571,1.571,0,0,0-.646.809,4.563,4.563,0,0,0-.2,1.535v3.808Z" transform="translate(-5 -8.943)"/><path class="cls-9" d="M224.105,36.359a4.629,4.629,0,0,1-1.33.829,3.838,3.838,0,0,1-1.372.242,2.668,2.668,0,0,1-1.859-.591,1.949,1.949,0,0,1-.65-1.51,2.008,2.008,0,0,1,.246-.985,2.033,2.033,0,0,1,.643-.716,3.031,3.031,0,0,1,.9-.408,8.946,8.946,0,0,1,1.106-.187A11.393,11.393,0,0,0,224,32.606q.007-.256.007-.325a1.372,1.372,0,0,0-.353-1.071,2.083,2.083,0,0,0-1.417-.421,2.2,2.2,0,0,0-1.3.308,1.877,1.877,0,0,0-.618,1.088l-1.217-.166a3.012,3.012,0,0,1,.546-1.261,2.391,2.391,0,0,1,1.1-.74,4.915,4.915,0,0,1,1.666-.259,4.408,4.408,0,0,1,1.527.221,2.009,2.009,0,0,1,.864.556,1.961,1.961,0,0,1,.387.847,7.006,7.006,0,0,1,.062,1.147v1.659a17.542,17.542,0,0,0,.08,2.194,2.757,2.757,0,0,0,.314.881h-1.3A2.646,2.646,0,0,1,224.105,36.359Zm-.1-2.779a9.105,9.105,0,0,1-2.032.47,4.692,4.692,0,0,0-1.085.249,1.078,1.078,0,0,0-.491.4,1.1,1.1,0,0,0,.2,1.42,1.62,1.62,0,0,0,1.1.332,2.567,2.567,0,0,0,1.279-.314,1.939,1.939,0,0,0,.823-.86,3.012,3.012,0,0,0,.2-1.244Z" transform="translate(-5 -8.943)"/><path class="cls-9" d="M227.188,37.265v-7.34h1.12v1.044a2.639,2.639,0,0,1,2.336-1.209,3.063,3.063,0,0,1,1.22.238,1.922,1.922,0,0,1,.833.625,2.4,2.4,0,0,1,.387.919,7.135,7.135,0,0,1,.069,1.209v4.513h-1.244V32.8a3.357,3.357,0,0,0-.145-1.137,1.2,1.2,0,0,0-.515-.6,1.636,1.636,0,0,0-.867-.225,2.015,2.015,0,0,0-1.372.5,2.489,2.489,0,0,0-.577,1.915v4.009Z" transform="translate(-5 -8.943)"/><path class="cls-9" d="M239.823,37.265v-.926a2.284,2.284,0,0,1-2.053,1.092,2.882,2.882,0,0,1-1.614-.484,3.183,3.183,0,0,1-1.14-1.351,4.672,4.672,0,0,1-.4-1.994,5.22,5.22,0,0,1,.366-1.994,2.887,2.887,0,0,1,1.1-1.372,2.937,2.937,0,0,1,1.638-.477,2.448,2.448,0,0,1,2.025,1.009V27.132h1.237V37.265ZM235.89,33.6a3.186,3.186,0,0,0,.594,2.108,1.792,1.792,0,0,0,1.4.7,1.758,1.758,0,0,0,1.386-.667,3.074,3.074,0,0,0,.57-2.036,3.45,3.45,0,0,0-.581-2.211,1.785,1.785,0,0,0-1.431-.705,1.724,1.724,0,0,0-1.386.677A3.343,3.343,0,0,0,235.89,33.6Z" transform="translate(-5 -8.943)"/><path class="cls-9" d="M246.568,34.009l1.265-.11a2.788,2.788,0,0,0,.418,1.247,2.277,2.277,0,0,0,1.02.788,3.855,3.855,0,0,0,1.555.3,3.73,3.73,0,0,0,1.354-.228,1.882,1.882,0,0,0,.875-.625,1.454,1.454,0,0,0,.287-.868,1.319,1.319,0,0,0-.276-.833,2.052,2.052,0,0,0-.912-.6,17.917,17.917,0,0,0-1.8-.494,9.2,9.2,0,0,1-1.956-.632,2.742,2.742,0,0,1-1.082-.943,2.312,2.312,0,0,1-.356-1.261,2.575,2.575,0,0,1,.436-1.435,2.7,2.7,0,0,1,1.271-1.012,4.824,4.824,0,0,1,1.859-.346,5.08,5.08,0,0,1,1.987.363,2.863,2.863,0,0,1,1.324,1.068,3.067,3.067,0,0,1,.5,1.6l-1.285.1a2.077,2.077,0,0,0-.7-1.452,2.732,2.732,0,0,0-1.766-.491,2.837,2.837,0,0,0-1.773.446,1.338,1.338,0,0,0-.556,1.075,1.153,1.153,0,0,0,.394.9,5.339,5.339,0,0,0,2.021.722,13.4,13.4,0,0,1,2.243.646,3.075,3.075,0,0,1,1.307,1.034,2.518,2.518,0,0,1,.421,1.441,2.757,2.757,0,0,1-.463,1.524,3.053,3.053,0,0,1-1.331,1.113,4.639,4.639,0,0,1-1.953.4,5.835,5.835,0,0,1-2.305-.4,3.228,3.228,0,0,1-1.458-1.206A3.421,3.421,0,0,1,246.568,34.009Z" transform="translate(-5 -8.943)"/><path class="cls-9" d="M261.1,36.359a4.629,4.629,0,0,1-1.33.829,3.838,3.838,0,0,1-1.372.242,2.668,2.668,0,0,1-1.859-.591,1.949,1.949,0,0,1-.65-1.51,2.008,2.008,0,0,1,.246-.985,2.033,2.033,0,0,1,.643-.716,3.031,3.031,0,0,1,.9-.408,8.946,8.946,0,0,1,1.106-.187,11.393,11.393,0,0,0,2.219-.428q.007-.256.007-.325a1.372,1.372,0,0,0-.353-1.071,2.083,2.083,0,0,0-1.417-.421,2.2,2.2,0,0,0-1.3.308,1.877,1.877,0,0,0-.618,1.088l-1.217-.166a3.012,3.012,0,0,1,.546-1.261,2.391,2.391,0,0,1,1.1-.74,4.915,4.915,0,0,1,1.666-.259,4.408,4.408,0,0,1,1.527.221,2.009,2.009,0,0,1,.864.556,1.961,1.961,0,0,1,.387.847,7.006,7.006,0,0,1,.062,1.147v1.659a17.542,17.542,0,0,0,.08,2.194,2.757,2.757,0,0,0,.314.881h-1.3A2.646,2.646,0,0,1,261.1,36.359Zm-.1-2.779a9.105,9.105,0,0,1-2.032.47,4.692,4.692,0,0,0-1.085.249,1.078,1.078,0,0,0-.491.4,1.1,1.1,0,0,0,.2,1.42,1.62,1.62,0,0,0,1.1.332,2.567,2.567,0,0,0,1.279-.314,1.939,1.939,0,0,0,.823-.86,3.012,3.012,0,0,0,.2-1.244Z" transform="translate(-5 -8.943)"/><path class="cls-9" d="M264.166,37.265v-7.34h1.12v1.113a3.042,3.042,0,0,1,.791-1.03,1.385,1.385,0,0,1,.8-.249,2.424,2.424,0,0,1,1.279.4l-.429,1.154a1.779,1.779,0,0,0-.912-.27,1.184,1.184,0,0,0-.732.246,1.33,1.33,0,0,0-.463.681,4.849,4.849,0,0,0-.207,1.452v3.843Z" transform="translate(-5 -8.943)"/><path class="cls-9" d="M273.683,36.359a4.629,4.629,0,0,1-1.33.829,3.838,3.838,0,0,1-1.372.242,2.668,2.668,0,0,1-1.859-.591,1.949,1.949,0,0,1-.65-1.51,2.008,2.008,0,0,1,.246-.985,2.033,2.033,0,0,1,.643-.716,3.031,3.031,0,0,1,.9-.408,8.946,8.946,0,0,1,1.106-.187,11.393,11.393,0,0,0,2.219-.428q.007-.256.007-.325a1.372,1.372,0,0,0-.353-1.071,2.083,2.083,0,0,0-1.417-.421,2.2,2.2,0,0,0-1.3.308,1.877,1.877,0,0,0-.618,1.088l-1.217-.166a3.012,3.012,0,0,1,.546-1.261,2.391,2.391,0,0,1,1.1-.74A4.915,4.915,0,0,1,272,29.759a4.408,4.408,0,0,1,1.527.221,2.009,2.009,0,0,1,.864.556,1.961,1.961,0,0,1,.387.847,7.006,7.006,0,0,1,.062,1.147v1.659a17.542,17.542,0,0,0,.08,2.194,2.757,2.757,0,0,0,.314.881h-1.3A2.646,2.646,0,0,1,273.683,36.359Zm-.1-2.779a9.105,9.105,0,0,1-2.032.47,4.692,4.692,0,0,0-1.085.249,1.078,1.078,0,0,0-.491.4,1.1,1.1,0,0,0,.2,1.42,1.62,1.62,0,0,0,1.1.332,2.567,2.567,0,0,0,1.279-.314,1.939,1.939,0,0,0,.823-.86,3.012,3.012,0,0,0,.2-1.244Z" transform="translate(-5 -8.943)"/><path class="cls-9" d="M276.765,37.265V27.132h1.244v3.635a2.78,2.78,0,0,1,2.2-1.009,2.962,2.962,0,0,1,1.417.321,1.887,1.887,0,0,1,.86.888,4.094,4.094,0,0,1,.259,1.645v4.651H281.5V32.613a1.923,1.923,0,0,0-.4-1.358,1.5,1.5,0,0,0-1.144-.425,2.019,2.019,0,0,0-1.04.287,1.625,1.625,0,0,0-.695.778,3.571,3.571,0,0,0-.207,1.354v4.016Z" transform="translate(-5 -8.943)"/><path class="cls-9" d="M288.729,37.265V27.132h3.822a9.24,9.24,0,0,1,1.542.1,3.052,3.052,0,0,1,1.251.474,2.483,2.483,0,0,1,.812.978,3.3,3.3,0,0,1-.515,3.57,3.946,3.946,0,0,1-2.972.9h-2.6v4.119Zm1.341-5.315h2.619a2.778,2.778,0,0,0,1.846-.484,1.724,1.724,0,0,0,.546-1.362,1.83,1.83,0,0,0-.321-1.088,1.5,1.5,0,0,0-.847-.6,5.723,5.723,0,0,0-1.251-.09H290.07Z" transform="translate(-5 -8.943)"/><path class="cls-9" d="M302.8,36.359a4.629,4.629,0,0,1-1.33.829,3.838,3.838,0,0,1-1.372.242,2.668,2.668,0,0,1-1.859-.591,1.949,1.949,0,0,1-.65-1.51,2.008,2.008,0,0,1,.246-.985,2.033,2.033,0,0,1,.643-.716,3.031,3.031,0,0,1,.9-.408,8.946,8.946,0,0,1,1.106-.187,11.393,11.393,0,0,0,2.219-.428q.007-.256.007-.325a1.372,1.372,0,0,0-.353-1.071,2.083,2.083,0,0,0-1.417-.421,2.2,2.2,0,0,0-1.3.308,1.877,1.877,0,0,0-.618,1.088l-1.217-.166a3.012,3.012,0,0,1,.546-1.261,2.391,2.391,0,0,1,1.1-.74,4.915,4.915,0,0,1,1.666-.259,4.408,4.408,0,0,1,1.527.221,2.009,2.009,0,0,1,.864.556,1.961,1.961,0,0,1,.387.847,7.006,7.006,0,0,1,.062,1.147v1.659a17.542,17.542,0,0,0,.08,2.194,2.757,2.757,0,0,0,.314.881h-1.3A2.646,2.646,0,0,1,302.8,36.359Zm-.1-2.779a9.105,9.105,0,0,1-2.032.47,4.692,4.692,0,0,0-1.085.249,1.078,1.078,0,0,0-.491.4,1.1,1.1,0,0,0,.2,1.42,1.62,1.62,0,0,0,1.1.332,2.567,2.567,0,0,0,1.279-.314,1.939,1.939,0,0,0,.823-.86,3.012,3.012,0,0,0,.2-1.244Z" transform="translate(-5 -8.943)"/><path class="cls-9" d="M305.87,37.265v-7.34h1.12v1.113a3.042,3.042,0,0,1,.791-1.03,1.385,1.385,0,0,1,.8-.249,2.424,2.424,0,0,1,1.279.4l-.429,1.154a1.779,1.779,0,0,0-.912-.27,1.184,1.184,0,0,0-.732.246,1.33,1.33,0,0,0-.463.681,4.849,4.849,0,0,0-.207,1.452v3.843Z" transform="translate(-5 -8.943)"/><path class="cls-9" d="M310.6,37.265V27.132h1.244V32.91l2.944-2.986h1.61L313.6,32.647l3.089,4.617h-1.534l-2.426-3.753-.878.843v2.91Z" transform="translate(-5 -8.943)"/><path class="cls-9" d="M322.7,34.9l1.285.159a3.137,3.137,0,0,1-1.126,1.749,3.816,3.816,0,0,1-4.655-.37,3.875,3.875,0,0,1-.943-2.782,4.055,4.055,0,0,1,.954-2.875,3.228,3.228,0,0,1,2.475-1.023,3.137,3.137,0,0,1,2.4,1,3.983,3.983,0,0,1,.933,2.82c0,.074,0,.185-.007.332h-5.474a2.821,2.821,0,0,0,.685,1.852,2.036,2.036,0,0,0,1.534.643,1.905,1.905,0,0,0,1.168-.359A2.386,2.386,0,0,0,322.7,34.9Zm-4.085-2.011h4.1a2.482,2.482,0,0,0-.47-1.389,1.9,1.9,0,0,0-1.541-.719,1.976,1.976,0,0,0-1.441.573A2.271,2.271,0,0,0,318.615,32.89Z" transform="translate(-5 -8.943)"/><path class="cls-9" d="M325.534,37.265v-7.34h1.12v1.113a3.042,3.042,0,0,1,.791-1.03,1.384,1.384,0,0,1,.8-.249,2.425,2.425,0,0,1,1.278.4l-.429,1.154a1.78,1.78,0,0,0-.912-.27,1.186,1.186,0,0,0-.732.246,1.326,1.326,0,0,0-.463.681,4.833,4.833,0,0,0-.208,1.452v3.843Z" transform="translate(-5 -8.943)"/><path class="cls-7" d="M237.237,229.9V219.772h1.341v4.161h5.267v-4.161h1.341V229.9h-1.341v-4.776h-5.267V229.9Z" transform="translate(-5 -8.943)"/><path class="cls-7" d="M247.266,221.2v-1.431h1.244V221.2Zm0,8.7v-7.34h1.244v7.34Z" transform="translate(-5 -8.943)"/><path class="cls-7" d="M250.376,229.9V219.772h1.244V229.9Z" transform="translate(-5 -8.943)"/><path class="cls-7" d="M253.521,229.9V219.772h1.244V229.9Z" transform="translate(-5 -8.943)"/><path class="cls-7" d="M261.483,229a4.629,4.629,0,0,1-1.33.829,3.838,3.838,0,0,1-1.372.242,2.668,2.668,0,0,1-1.859-.591,1.949,1.949,0,0,1-.65-1.51,2.008,2.008,0,0,1,.246-.985,2.033,2.033,0,0,1,.643-.716,3.031,3.031,0,0,1,.9-.408,8.946,8.946,0,0,1,1.106-.187,11.393,11.393,0,0,0,2.219-.428q.007-.256.007-.325a1.372,1.372,0,0,0-.353-1.071,2.083,2.083,0,0,0-1.417-.421,2.2,2.2,0,0,0-1.3.308,1.877,1.877,0,0,0-.618,1.088l-1.217-.166a3.012,3.012,0,0,1,.546-1.261,2.391,2.391,0,0,1,1.1-.74,4.915,4.915,0,0,1,1.666-.259,4.408,4.408,0,0,1,1.527.221,2.009,2.009,0,0,1,.864.556,1.961,1.961,0,0,1,.387.847,7.006,7.006,0,0,1,.062,1.147v1.659a17.542,17.542,0,0,0,.08,2.194,2.757,2.757,0,0,0,.314.881h-1.3A2.646,2.646,0,0,1,261.483,229Zm-.1-2.779a9.105,9.105,0,0,1-2.032.47,4.692,4.692,0,0,0-1.085.249,1.078,1.078,0,0,0-.491.4,1.1,1.1,0,0,0,.2,1.42,1.62,1.62,0,0,0,1.1.332,2.567,2.567,0,0,0,1.279-.314,1.939,1.939,0,0,0,.823-.86,3.012,3.012,0,0,0,.2-1.244Z" transform="translate(-5 -8.943)"/><path class="cls-7" d="M264.552,229.9v-7.34h1.12v1.113a3.042,3.042,0,0,1,.791-1.03,1.385,1.385,0,0,1,.8-.249,2.424,2.424,0,0,1,1.279.4l-.429,1.154a1.779,1.779,0,0,0-.912-.27,1.184,1.184,0,0,0-.732.246,1.33,1.33,0,0,0-.463.681,4.849,4.849,0,0,0-.207,1.452V229.9Z" transform="translate(-5 -8.943)"/><path class="cls-7" d="M269.224,232.731l-.138-1.168a2.769,2.769,0,0,0,.712.111,1.368,1.368,0,0,0,.663-.138,1.134,1.134,0,0,0,.408-.387,6.159,6.159,0,0,0,.38-.926q.034-.1.111-.3l-2.786-7.354h1.341l1.527,4.251q.3.809.532,1.7a16.8,16.8,0,0,1,.512-1.673l1.569-4.278H275.3l-2.792,7.465a14.716,14.716,0,0,1-.7,1.666,2.454,2.454,0,0,1-.76.9,1.8,1.8,0,0,1-1.023.287A2.485,2.485,0,0,1,269.224,232.731Z" transform="translate(-5 -8.943)"/><path class="cls-7" d="M31.027,229.9l3.891-10.132h1.444L40.509,229.9H38.982L37.8,226.835H33.563L32.45,229.9Zm2.923-4.161h3.435l-1.058-2.806q-.483-1.279-.719-2.1a12.93,12.93,0,0,1-.546,1.935Z" transform="translate(-5 -8.943)"/><path class="cls-7" d="M41.394,229.9V219.772h1.244V229.9Z" transform="translate(-5 -8.943)"/><path class="cls-7" d="M44.539,229.9V219.772h1.244V229.9Z" transform="translate(-5 -8.943)"/><path class="cls-7" d="M52.736,227.541l1.285.159a3.137,3.137,0,0,1-1.126,1.749,3.816,3.816,0,0,1-4.655-.37A3.875,3.875,0,0,1,47.3,226.3a4.055,4.055,0,0,1,.954-2.875,3.228,3.228,0,0,1,2.475-1.023,3.137,3.137,0,0,1,2.4,1,3.983,3.983,0,0,1,.933,2.82c0,.074,0,.185-.007.332H48.582a2.821,2.821,0,0,0,.685,1.852,2.036,2.036,0,0,0,1.534.643,1.905,1.905,0,0,0,1.168-.359A2.386,2.386,0,0,0,52.736,227.541Zm-4.085-2.011h4.1a2.482,2.482,0,0,0-.47-1.389,1.9,1.9,0,0,0-1.541-.719,1.976,1.976,0,0,0-1.441.573A2.271,2.271,0,0,0,48.651,225.529Z" transform="translate(-5 -8.943)"/><path class="cls-7" d="M55.583,229.9v-7.34H56.7v1.044a2.639,2.639,0,0,1,2.336-1.209,3.063,3.063,0,0,1,1.22.238,1.922,1.922,0,0,1,.833.625,2.4,2.4,0,0,1,.387.919,7.135,7.135,0,0,1,.069,1.209V229.9H60.3v-4.465a3.357,3.357,0,0,0-.145-1.137,1.2,1.2,0,0,0-.515-.6,1.636,1.636,0,0,0-.867-.225,2.015,2.015,0,0,0-1.372.5,2.489,2.489,0,0,0-.577,1.915V229.9Z" transform="translate(-5 -8.943)"/><path class="cls-7" d="M66.9,226.863v-1.251h3.822v1.251Z" transform="translate(-5 -8.943)"/><path class="cls-7" d="M76.194,229.9V219.772h3.491a8.472,8.472,0,0,1,1.8.145,3.436,3.436,0,0,1,1.486.726,4.123,4.123,0,0,1,1.2,1.731,6.793,6.793,0,0,1,.4,2.409,7.077,7.077,0,0,1-.27,2.046,4.97,4.97,0,0,1-.691,1.476,3.675,3.675,0,0,1-.923.919,3.758,3.758,0,0,1-1.209.508,6.9,6.9,0,0,1-1.628.173Zm1.341-1.2H79.7a5.245,5.245,0,0,0,1.572-.187A2.249,2.249,0,0,0,82.18,228a3.193,3.193,0,0,0,.743-1.282,6.256,6.256,0,0,0,.266-1.952,4.717,4.717,0,0,0-.521-2.443,2.631,2.631,0,0,0-1.269-1.144,5.245,5.245,0,0,0-1.735-.207H77.535Z" transform="translate(-5 -8.943)"/><path class="cls-7" d="M91.282,227.541l1.285.159a3.137,3.137,0,0,1-1.126,1.749,3.816,3.816,0,0,1-4.655-.37,3.875,3.875,0,0,1-.943-2.782,4.055,4.055,0,0,1,.954-2.875,3.228,3.228,0,0,1,2.475-1.023,3.137,3.137,0,0,1,2.4,1,3.983,3.983,0,0,1,.933,2.82c0,.074,0,.185-.007.332H87.128a2.821,2.821,0,0,0,.685,1.852,2.036,2.036,0,0,0,1.534.643,1.905,1.905,0,0,0,1.168-.359A2.386,2.386,0,0,0,91.282,227.541ZM87.2,225.529h4.1a2.482,2.482,0,0,0-.47-1.389,1.9,1.9,0,0,0-1.541-.719,1.976,1.976,0,0,0-1.441.573A2.271,2.271,0,0,0,87.2,225.529Z" transform="translate(-5 -8.943)"/><path class="cls-7" d="M98.919,227.216l1.224.159a3.176,3.176,0,0,1-1.026,1.98,2.993,2.993,0,0,1-2.029.715,3.152,3.152,0,0,1-2.422-.985,4,4,0,0,1-.916-2.824,5.106,5.106,0,0,1,.394-2.08,2.745,2.745,0,0,1,1.2-1.337,3.555,3.555,0,0,1,1.752-.446,3.047,3.047,0,0,1,1.956.6,2.773,2.773,0,0,1,.975,1.718l-1.209.187a2.01,2.01,0,0,0-.612-1.113,1.581,1.581,0,0,0-1.061-.373,1.931,1.931,0,0,0-1.528.674,3.2,3.2,0,0,0-.587,2.132,3.306,3.306,0,0,0,.567,2.149,1.844,1.844,0,0,0,1.479.67A1.744,1.744,0,0,0,98.3,228.6,2.229,2.229,0,0,0,98.919,227.216Z" transform="translate(-5 -8.943)"/><path class="cls-7" d="M106.232,227.541l1.285.159a3.137,3.137,0,0,1-1.126,1.749,3.816,3.816,0,0,1-4.655-.37,3.875,3.875,0,0,1-.943-2.782,4.055,4.055,0,0,1,.954-2.875,3.228,3.228,0,0,1,2.475-1.023,3.137,3.137,0,0,1,2.4,1,3.983,3.983,0,0,1,.933,2.82c0,.074,0,.185-.007.332h-5.474a2.821,2.821,0,0,0,.685,1.852,2.036,2.036,0,0,0,1.534.643,1.905,1.905,0,0,0,1.168-.359A2.386,2.386,0,0,0,106.232,227.541Zm-4.085-2.011h4.1a2.482,2.482,0,0,0-.47-1.389,1.9,1.9,0,0,0-1.541-.719,1.976,1.976,0,0,0-1.441.573A2.271,2.271,0,0,0,102.147,225.529Z" transform="translate(-5 -8.943)"/><path class="cls-7" d="M113.869,229a4.629,4.629,0,0,1-1.33.829,3.838,3.838,0,0,1-1.372.242,2.668,2.668,0,0,1-1.859-.591,1.949,1.949,0,0,1-.65-1.51,2.008,2.008,0,0,1,.246-.985,2.033,2.033,0,0,1,.643-.716,3.031,3.031,0,0,1,.9-.408,8.946,8.946,0,0,1,1.106-.187,11.393,11.393,0,0,0,2.219-.428q.007-.256.007-.325a1.372,1.372,0,0,0-.353-1.071,2.083,2.083,0,0,0-1.417-.421,2.2,2.2,0,0,0-1.3.308,1.877,1.877,0,0,0-.618,1.088l-1.217-.166a3.012,3.012,0,0,1,.546-1.261,2.391,2.391,0,0,1,1.1-.74,4.915,4.915,0,0,1,1.666-.259,4.408,4.408,0,0,1,1.527.221,2.009,2.009,0,0,1,.864.556,1.961,1.961,0,0,1,.387.847,7.006,7.006,0,0,1,.062,1.147v1.659a17.542,17.542,0,0,0,.08,2.194,2.757,2.757,0,0,0,.314.881h-1.3A2.646,2.646,0,0,1,113.869,229Zm-.1-2.779a9.105,9.105,0,0,1-2.032.47,4.692,4.692,0,0,0-1.085.249,1.078,1.078,0,0,0-.491.4,1.1,1.1,0,0,0,.2,1.42,1.62,1.62,0,0,0,1.1.332,2.567,2.567,0,0,0,1.279-.314,1.939,1.939,0,0,0,.823-.86,3.012,3.012,0,0,0,.2-1.244Z" transform="translate(-5 -8.943)"/><path class="cls-7" d="M116.455,227.713l1.23-.193a1.722,1.722,0,0,0,.577,1.133,2.012,2.012,0,0,0,1.324.394,1.945,1.945,0,0,0,1.272-.349,1.044,1.044,0,0,0,.415-.819.755.755,0,0,0-.366-.664,5.388,5.388,0,0,0-1.272-.422,11.627,11.627,0,0,1-1.9-.6,1.813,1.813,0,0,1-1.075-1.683,1.894,1.894,0,0,1,.225-.909,2.021,2.021,0,0,1,.612-.695,2.577,2.577,0,0,1,.792-.363,3.761,3.761,0,0,1,1.075-.148,4.256,4.256,0,0,1,1.517.249,2.066,2.066,0,0,1,.964.674,2.637,2.637,0,0,1,.428,1.137l-1.216.166a1.329,1.329,0,0,0-.48-.885,1.757,1.757,0,0,0-1.123-.318,2.033,2.033,0,0,0-1.223.283.825.825,0,0,0-.367.664.686.686,0,0,0,.152.436,1.1,1.1,0,0,0,.477.332q.187.069,1.1.318a15.329,15.329,0,0,1,1.842.577,1.87,1.87,0,0,1,.819.653,1.826,1.826,0,0,1,.3,1.064,2.086,2.086,0,0,1-.363,1.171,2.346,2.346,0,0,1-1.047.85,3.815,3.815,0,0,1-1.548.3,3.448,3.448,0,0,1-2.181-.595A2.762,2.762,0,0,1,116.455,227.713Z" transform="translate(-5 -8.943)"/><path class="cls-7" d="M129.054,227.541l1.285.159a3.137,3.137,0,0,1-1.126,1.749,3.816,3.816,0,0,1-4.655-.37,3.875,3.875,0,0,1-.943-2.782,4.055,4.055,0,0,1,.954-2.875,3.228,3.228,0,0,1,2.475-1.023,3.137,3.137,0,0,1,2.4,1,3.983,3.983,0,0,1,.933,2.82c0,.074,0,.185-.007.332H124.9a2.821,2.821,0,0,0,.685,1.852,2.036,2.036,0,0,0,1.534.643,1.905,1.905,0,0,0,1.168-.359A2.386,2.386,0,0,0,129.054,227.541Zm-4.085-2.011h4.1a2.482,2.482,0,0,0-.47-1.389,1.9,1.9,0,0,0-1.541-.719,1.976,1.976,0,0,0-1.441.573A2.271,2.271,0,0,0,124.969,225.529Z" transform="translate(-5 -8.943)"/><path class="cls-7" d="M136.664,229.9v-.926a2.284,2.284,0,0,1-2.053,1.092,2.882,2.882,0,0,1-1.614-.484,3.183,3.183,0,0,1-1.14-1.351,4.672,4.672,0,0,1-.4-1.994,5.22,5.22,0,0,1,.366-1.994,2.887,2.887,0,0,1,1.1-1.372,2.937,2.937,0,0,1,1.638-.477,2.448,2.448,0,0,1,2.025,1.009v-3.635h1.237V229.9Zm-3.933-3.663a3.186,3.186,0,0,0,.594,2.108,1.792,1.792,0,0,0,1.4.7,1.758,1.758,0,0,0,1.386-.667,3.074,3.074,0,0,0,.57-2.036,3.45,3.45,0,0,0-.581-2.211,1.785,1.785,0,0,0-1.431-.705,1.724,1.724,0,0,0-1.386.677A3.343,3.343,0,0,0,132.731,226.241Z" transform="translate(-5 -8.943)"/><path class="cls-7" d="M27.082,328.007l3.891-10.133h1.444l4.147,10.133H35.037l-1.182-3.068H29.618l-1.113,3.068Zm2.923-4.161H33.44l-1.058-2.806q-.483-1.279-.719-2.1a12.9,12.9,0,0,1-.546,1.936Z" transform="translate(-5 -8.943)"/><path class="cls-7" d="M37.477,328.007v-7.34H38.6v1.043a2.64,2.64,0,0,1,2.336-1.209,3.063,3.063,0,0,1,1.22.238,1.915,1.915,0,0,1,.833.626,2.4,2.4,0,0,1,.387.919,7.136,7.136,0,0,1,.069,1.209v4.514H42.2v-4.465a3.352,3.352,0,0,0-.145-1.137,1.2,1.2,0,0,0-.515-.6,1.641,1.641,0,0,0-.867-.225,2.013,2.013,0,0,0-1.372.5A2.488,2.488,0,0,0,38.721,324v4.009Z" transform="translate(-5 -8.943)"/><path class="cls-7" d="M45.349,328.007v-7.34h1.12v1.043A2.64,2.64,0,0,1,48.8,320.5a3.063,3.063,0,0,1,1.22.238,1.915,1.915,0,0,1,.833.626,2.4,2.4,0,0,1,.387.919,7.136,7.136,0,0,1,.069,1.209v4.514H50.07v-4.465a3.352,3.352,0,0,0-.145-1.137,1.2,1.2,0,0,0-.515-.6,1.641,1.641,0,0,0-.867-.225,2.013,2.013,0,0,0-1.372.5A2.488,2.488,0,0,0,46.593,324v4.009Z" transform="translate(-5 -8.943)"/><path class="cls-7" d="M58.247,325.643l1.285.159a3.138,3.138,0,0,1-1.126,1.749,3.816,3.816,0,0,1-4.655-.37,3.874,3.874,0,0,1-.943-2.781,4.059,4.059,0,0,1,.954-2.876,3.229,3.229,0,0,1,2.475-1.022,3.137,3.137,0,0,1,2.4,1,3.982,3.982,0,0,1,.933,2.82c0,.073,0,.184-.007.331H54.092a2.822,2.822,0,0,0,.685,1.853,2.035,2.035,0,0,0,1.534.643,1.9,1.9,0,0,0,1.168-.359A2.383,2.383,0,0,0,58.247,325.643Zm-4.085-2.011h4.1a2.488,2.488,0,0,0-.47-1.39,1.908,1.908,0,0,0-1.541-.719,1.975,1.975,0,0,0-1.441.574A2.267,2.267,0,0,0,54.162,323.632Z" transform="translate(-5 -8.943)"/><rect class="cls-10" x="179.007" y="289.445" width="148.628" height="47.206"/><rect class="cls-10" x="5.631" y="97.305" width="148.628" height="47.206"/><rect class="cls-10" x="350.414" y="193.52" width="148.628" height="47.206"/><path class="cls-7" d="M70.074,132.9l1.209-.166a2.586,2.586,0,0,0,.436,1.589,1.369,1.369,0,0,0,1.071.429,1.6,1.6,0,0,0,.871-.231,1.189,1.189,0,0,0,.5-.629,4.2,4.2,0,0,0,.138-1.269v-6.98h1.341v6.9a5.029,5.029,0,0,1-.308,1.97,2.19,2.19,0,0,1-.975,1.064,3.2,3.2,0,0,1-1.565.366,2.644,2.644,0,0,1-2.042-.767A3.166,3.166,0,0,1,70.074,132.9Z" transform="translate(-5 -8.943)"/><path class="cls-7" d="M82.467,134.866a4.629,4.629,0,0,1-1.33.829,3.838,3.838,0,0,1-1.372.242,2.668,2.668,0,0,1-1.859-.591,1.949,1.949,0,0,1-.65-1.51,2.008,2.008,0,0,1,.246-.985,2.033,2.033,0,0,1,.643-.716,3.031,3.031,0,0,1,.9-.408,8.946,8.946,0,0,1,1.106-.187,11.393,11.393,0,0,0,2.219-.428q.007-.256.007-.325a1.372,1.372,0,0,0-.353-1.071A2.083,2.083,0,0,0,80.6,129.3a2.2,2.2,0,0,0-1.3.308,1.877,1.877,0,0,0-.618,1.088l-1.217-.166a3.012,3.012,0,0,1,.546-1.261,2.391,2.391,0,0,1,1.1-.74,4.915,4.915,0,0,1,1.666-.259,4.408,4.408,0,0,1,1.527.221,2.009,2.009,0,0,1,.864.556,1.961,1.961,0,0,1,.387.847,7.006,7.006,0,0,1,.062,1.147V132.7a17.542,17.542,0,0,0,.08,2.194,2.757,2.757,0,0,0,.314.881h-1.3A2.646,2.646,0,0,1,82.467,134.866Zm-.1-2.779a9.105,9.105,0,0,1-2.032.47,4.692,4.692,0,0,0-1.085.249,1.078,1.078,0,0,0-.491.4,1.1,1.1,0,0,0,.2,1.42,1.62,1.62,0,0,0,1.1.332,2.567,2.567,0,0,0,1.279-.314,1.939,1.939,0,0,0,.823-.86,3.012,3.012,0,0,0,.2-1.244Z" transform="translate(-5 -8.943)"/><path class="cls-7" d="M90.339,133.083l1.224.159a3.176,3.176,0,0,1-1.026,1.98,2.993,2.993,0,0,1-2.029.715,3.152,3.152,0,0,1-2.422-.985,4,4,0,0,1-.916-2.824,5.106,5.106,0,0,1,.394-2.08,2.745,2.745,0,0,1,1.2-1.337,3.555,3.555,0,0,1,1.752-.446,3.047,3.047,0,0,1,1.956.6,2.773,2.773,0,0,1,.975,1.718l-1.209.187a2.01,2.01,0,0,0-.612-1.113,1.581,1.581,0,0,0-1.061-.373,1.931,1.931,0,0,0-1.528.674,3.2,3.2,0,0,0-.587,2.132,3.306,3.306,0,0,0,.567,2.149,1.844,1.844,0,0,0,1.479.67,1.744,1.744,0,0,0,1.223-.449A2.229,2.229,0,0,0,90.339,133.083Z" transform="translate(-5 -8.943)"/><path class="cls-7" d="M92.634,135.771V125.639h1.244v5.778l2.944-2.986h1.61l-2.806,2.723,3.089,4.617H97.182l-2.426-3.753-.878.843v2.91Z" transform="translate(-5 -8.943)"/><path class="cls-7" d="M411.959,225.55l1.209-.166a2.59,2.59,0,0,0,.436,1.589,1.369,1.369,0,0,0,1.071.429,1.6,1.6,0,0,0,.871-.231,1.186,1.186,0,0,0,.5-.629,4.18,4.18,0,0,0,.139-1.269v-6.98h1.341v6.9a5.029,5.029,0,0,1-.308,1.97,2.192,2.192,0,0,1-.975,1.064,3.2,3.2,0,0,1-1.565.366,2.64,2.64,0,0,1-2.042-.767A3.164,3.164,0,0,1,411.959,225.55Z" transform="translate(-5 -8.943)"/><path class="cls-7" d="M419.1,224.755a3.783,3.783,0,0,1,1.134-3.021,3.415,3.415,0,0,1,2.309-.815,3.3,3.3,0,0,1,2.475.992,3.776,3.776,0,0,1,.96,2.74,4.857,4.857,0,0,1-.425,2.229,3.007,3.007,0,0,1-1.237,1.262,3.6,3.6,0,0,1-1.772.449,3.3,3.3,0,0,1-2.492-.988A3.952,3.952,0,0,1,419.1,224.755Zm1.279,0a3.126,3.126,0,0,0,.615,2.111,2.047,2.047,0,0,0,3.089,0,3.2,3.2,0,0,0,.615-2.149,3.035,3.035,0,0,0-.618-2.063,2.052,2.052,0,0,0-3.086,0A3.114,3.114,0,0,0,420.377,224.755Z" transform="translate(-5 -8.943)"/><path class="cls-7" d="M427.379,231.251l-.139-1.168a2.781,2.781,0,0,0,.712.111,1.373,1.373,0,0,0,.664-.138,1.124,1.124,0,0,0,.407-.387,6.177,6.177,0,0,0,.381-.926c.022-.069.06-.17.11-.3l-2.785-7.354h1.341l1.527,4.251q.3.809.532,1.7a16.926,16.926,0,0,1,.511-1.673l1.569-4.278h1.244l-2.792,7.465a14.692,14.692,0,0,1-.7,1.666,2.455,2.455,0,0,1-.761.9,1.791,1.791,0,0,1-1.022.287A2.485,2.485,0,0,1,427.379,231.251Z" transform="translate(-5 -8.943)"/><path class="cls-7" d="M439.3,225.736l1.224.159a3.174,3.174,0,0,1-1.026,1.98,2.991,2.991,0,0,1-2.028.715,3.153,3.153,0,0,1-2.423-.985,4,4,0,0,1-.916-2.824,5.106,5.106,0,0,1,.395-2.08,2.743,2.743,0,0,1,1.2-1.337,3.552,3.552,0,0,1,1.752-.446,3.048,3.048,0,0,1,1.956.6,2.778,2.778,0,0,1,.975,1.718l-1.21.187a2.012,2.012,0,0,0-.611-1.113,1.583,1.583,0,0,0-1.062-.373,1.932,1.932,0,0,0-1.527.674,3.2,3.2,0,0,0-.587,2.132,3.306,3.306,0,0,0,.566,2.149,1.845,1.845,0,0,0,1.479.67,1.743,1.743,0,0,0,1.224-.449A2.232,2.232,0,0,0,439.3,225.736Z" transform="translate(-5 -8.943)"/><path class="cls-7" d="M446.613,226.061l1.285.159a3.136,3.136,0,0,1-1.126,1.749,3.816,3.816,0,0,1-4.655-.37,3.875,3.875,0,0,1-.943-2.782,4.051,4.051,0,0,1,.954-2.875,3.226,3.226,0,0,1,2.474-1.023,3.139,3.139,0,0,1,2.405,1,3.983,3.983,0,0,1,.934,2.82c0,.074,0,.185-.007.332h-5.475a2.819,2.819,0,0,0,.685,1.852,2.037,2.037,0,0,0,1.534.643,1.905,1.905,0,0,0,1.168-.359A2.392,2.392,0,0,0,446.613,226.061Zm-4.085-2.011h4.1a2.49,2.49,0,0,0-.47-1.389,1.907,1.907,0,0,0-1.542-.719,1.974,1.974,0,0,0-1.44.573A2.268,2.268,0,0,0,442.528,224.05Z" transform="translate(-5 -8.943)"/><path class="cls-7" d="M237.782,326.673V316.54h1.341V320.7h5.267V316.54h1.341v10.133H244.39V321.9h-5.267v4.776Z" transform="translate(-5 -8.943)"/><path class="cls-7" d="M252.593,325.768a4.629,4.629,0,0,1-1.33.829,3.849,3.849,0,0,1-1.372.242,2.67,2.67,0,0,1-1.859-.591,1.952,1.952,0,0,1-.65-1.511,2.006,2.006,0,0,1,.246-.984,2.029,2.029,0,0,1,.643-.716,3.017,3.017,0,0,1,.9-.407,8.853,8.853,0,0,1,1.106-.187,11.385,11.385,0,0,0,2.219-.429q.007-.256.007-.325a1.372,1.372,0,0,0-.353-1.071,2.081,2.081,0,0,0-1.417-.422,2.2,2.2,0,0,0-1.3.308,1.879,1.879,0,0,0-.618,1.089l-1.217-.166a3.01,3.01,0,0,1,.546-1.261,2.392,2.392,0,0,1,1.1-.74,4.9,4.9,0,0,1,1.666-.259,4.409,4.409,0,0,1,1.527.221,2.01,2.01,0,0,1,.864.557,1.961,1.961,0,0,1,.387.847,7.011,7.011,0,0,1,.062,1.147V323.6a17.553,17.553,0,0,0,.08,2.194,2.766,2.766,0,0,0,.314.881h-1.3A2.643,2.643,0,0,1,252.593,325.768Zm-.1-2.778a9.165,9.165,0,0,1-2.032.47,4.641,4.641,0,0,0-1.085.249,1.078,1.078,0,0,0-.491.4,1.1,1.1,0,0,0,.2,1.42,1.618,1.618,0,0,0,1.1.332,2.562,2.562,0,0,0,1.279-.314,1.939,1.939,0,0,0,.823-.86,3.014,3.014,0,0,0,.2-1.244Z" transform="translate(-5 -8.943)"/><path class="cls-7" d="M255.663,326.673v-7.34h1.12v1.112a3.028,3.028,0,0,1,.791-1.029,1.382,1.382,0,0,1,.8-.249,2.432,2.432,0,0,1,1.279.4l-.429,1.154a1.778,1.778,0,0,0-.912-.27,1.186,1.186,0,0,0-.732.245,1.33,1.33,0,0,0-.463.682,4.845,4.845,0,0,0-.207,1.451v3.843Z" transform="translate(-5 -8.943)"/><path class="cls-7" d="M259.927,323a3.783,3.783,0,0,1,1.133-3.021,3.415,3.415,0,0,1,2.309-.815,3.293,3.293,0,0,1,2.474.991,3.776,3.776,0,0,1,.961,2.741,4.849,4.849,0,0,1-.425,2.229,3.007,3.007,0,0,1-1.237,1.262,3.608,3.608,0,0,1-1.772.449,3.3,3.3,0,0,1-2.492-.988A3.948,3.948,0,0,1,259.927,323Zm1.278,0a3.127,3.127,0,0,0,.615,2.111,2.048,2.048,0,0,0,3.089,0,3.2,3.2,0,0,0,.615-2.149,3.031,3.031,0,0,0-.619-2.062,2.05,2.05,0,0,0-3.086,0A3.113,3.113,0,0,0,261.206,323Z" transform="translate(-5 -8.943)"/><path class="cls-7" d="M268.234,326.673V316.54h1.244v10.133Z" transform="translate(-5 -8.943)"/><path class="cls-7" d="M276.169,326.673v-.926a2.285,2.285,0,0,1-2.053,1.092,2.875,2.875,0,0,1-1.614-.484,3.178,3.178,0,0,1-1.14-1.351,4.671,4.671,0,0,1-.4-1.994,5.222,5.222,0,0,1,.366-1.994,2.889,2.889,0,0,1,1.1-1.372,2.941,2.941,0,0,1,1.638-.477,2.45,2.45,0,0,1,1.182.279,2.479,2.479,0,0,1,.843.729V316.54h1.237v10.133Zm-3.933-3.663a3.189,3.189,0,0,0,.594,2.108,1.792,1.792,0,0,0,1.4.7,1.757,1.757,0,0,0,1.386-.667,3.073,3.073,0,0,0,.57-2.035,3.454,3.454,0,0,0-.581-2.212,1.787,1.787,0,0,0-1.431-.705,1.726,1.726,0,0,0-1.386.678A3.341,3.341,0,0,0,272.237,323.01Z" transform="translate(-5 -8.943)"/><rect class="cls-4" x="84.396" y="289.397" width="74.314" height="47.206"/><rect class="cls-4" x="430.144" y="289.397" width="74.314" height="47.206"/><rect class="cls-4" x="346.006" y="289.397" width="74.314" height="47.206"/><path class="cls-7" d="M373.24,327.049v-8.937H369.9v-1.2h8.031v1.2h-3.353v8.937Z" transform="translate(-5 -8.943)"/><path class="cls-7" d="M384.175,324.685l1.285.159a3.138,3.138,0,0,1-1.126,1.749,3.816,3.816,0,0,1-4.655-.37,3.874,3.874,0,0,1-.943-2.781,4.054,4.054,0,0,1,.954-2.876,3.228,3.228,0,0,1,2.474-1.022,3.139,3.139,0,0,1,2.405,1,3.983,3.983,0,0,1,.934,2.82c0,.073,0,.184-.007.331h-5.475a2.82,2.82,0,0,0,.685,1.853,2.036,2.036,0,0,0,1.534.643,1.9,1.9,0,0,0,1.168-.359A2.39,2.39,0,0,0,384.175,324.685Zm-4.085-2.011h4.1a2.5,2.5,0,0,0-.47-1.39,1.91,1.91,0,0,0-1.542-.719,1.973,1.973,0,0,0-1.44.574A2.265,2.265,0,0,0,380.09,322.674Z" transform="translate(-5 -8.943)"/><path class="cls-7" d="M387.008,327.049v-7.34h1.12v1.112a3.028,3.028,0,0,1,.791-1.029,1.381,1.381,0,0,1,.8-.249,2.433,2.433,0,0,1,1.278.4l-.429,1.154a1.779,1.779,0,0,0-.912-.27,1.188,1.188,0,0,0-.732.245,1.327,1.327,0,0,0-.463.682,4.83,4.83,0,0,0-.208,1.451v3.843Z" transform="translate(-5 -8.943)"/><path class="cls-7" d="M396.761,324.685l1.285.159a3.138,3.138,0,0,1-1.126,1.749,3.816,3.816,0,0,1-4.655-.37,3.874,3.874,0,0,1-.943-2.781,4.054,4.054,0,0,1,.954-2.876,3.228,3.228,0,0,1,2.474-1.022,3.139,3.139,0,0,1,2.405,1,3.983,3.983,0,0,1,.934,2.82c0,.073,0,.184-.007.331h-5.475a2.82,2.82,0,0,0,.685,1.853,2.036,2.036,0,0,0,1.534.643,1.9,1.9,0,0,0,1.168-.359A2.39,2.39,0,0,0,396.761,324.685Zm-4.085-2.011h4.1a2.5,2.5,0,0,0-.47-1.39,1.91,1.91,0,0,0-1.542-.719,1.973,1.973,0,0,0-1.44.574A2.265,2.265,0,0,0,392.676,322.674Z" transform="translate(-5 -8.943)"/><path class="cls-7" d="M399.11,324.857l1.23-.193a1.713,1.713,0,0,0,.577,1.134,2.01,2.01,0,0,0,1.323.394,1.945,1.945,0,0,0,1.271-.349,1.044,1.044,0,0,0,.415-.819.756.756,0,0,0-.366-.663,5.438,5.438,0,0,0-1.271-.422,11.62,11.62,0,0,1-1.9-.6,1.813,1.813,0,0,1-1.075-1.683,1.894,1.894,0,0,1,.225-.909,1.993,1.993,0,0,1,.612-.694,2.557,2.557,0,0,1,.791-.363,3.779,3.779,0,0,1,1.075-.148,4.246,4.246,0,0,1,1.517.249,2.049,2.049,0,0,1,.964.674,2.62,2.62,0,0,1,.429,1.137l-1.216.166a1.333,1.333,0,0,0-.48-.885,1.759,1.759,0,0,0-1.123-.318,2.036,2.036,0,0,0-1.224.283.826.826,0,0,0-.366.664.691.691,0,0,0,.151.436,1.1,1.1,0,0,0,.478.332q.186.069,1.1.317a15.421,15.421,0,0,1,1.842.577,1.866,1.866,0,0,1,.819.653,1.821,1.821,0,0,1,.3,1.064,2.093,2.093,0,0,1-.362,1.171,2.338,2.338,0,0,1-1.048.851,3.813,3.813,0,0,1-1.548.3,3.447,3.447,0,0,1-2.181-.595A2.761,2.761,0,0,1,399.11,324.857Z" transform="translate(-5 -8.943)"/><path class="cls-7" d="M411.476,326.144a4.636,4.636,0,0,1-1.33.829,3.851,3.851,0,0,1-1.372.242,2.67,2.67,0,0,1-1.859-.591,1.95,1.95,0,0,1-.649-1.511,2,2,0,0,1,.245-.984,2.025,2.025,0,0,1,.643-.716,3.009,3.009,0,0,1,.9-.407,8.825,8.825,0,0,1,1.105-.187,11.377,11.377,0,0,0,2.219-.429c0-.171.007-.279.007-.325a1.372,1.372,0,0,0-.353-1.071,2.08,2.08,0,0,0-1.417-.422,2.2,2.2,0,0,0-1.3.308,1.884,1.884,0,0,0-.618,1.089l-1.217-.166a3.016,3.016,0,0,1,.546-1.261,2.4,2.4,0,0,1,1.1-.74,4.9,4.9,0,0,1,1.665-.259,4.407,4.407,0,0,1,1.527.221,2.015,2.015,0,0,1,.864.557,1.95,1.95,0,0,1,.387.847,6.938,6.938,0,0,1,.063,1.147v1.659a17.414,17.414,0,0,0,.08,2.194,2.755,2.755,0,0,0,.314.881h-1.3A2.643,2.643,0,0,1,411.476,326.144Zm-.1-2.778a9.158,9.158,0,0,1-2.032.47,4.634,4.634,0,0,0-1.085.249,1.071,1.071,0,0,0-.49.4,1.1,1.1,0,0,0,.2,1.42,1.619,1.619,0,0,0,1.1.332,2.566,2.566,0,0,0,1.279-.314,1.941,1.941,0,0,0,.822-.86,3.005,3.005,0,0,0,.2-1.244Z" transform="translate(-5 -8.943)"/><path class="cls-7" d="M457.684,326.82V316.688h7.326v1.2h-5.985v3.1h5.6v1.188h-5.6v3.449h6.22v1.2Z" transform="translate(-5 -8.943)"/><path class="cls-7" d="M466.91,326.82V316.688h1.244V326.82Z" transform="translate(-5 -8.943)"/><path class="cls-7" d="M470.055,326.82V316.688H471.3V326.82Z" transform="translate(-5 -8.943)"/><path class="cls-7" d="M478.252,324.456l1.285.159a3.138,3.138,0,0,1-1.126,1.749,3.816,3.816,0,0,1-4.655-.37,3.874,3.874,0,0,1-.943-2.781,4.054,4.054,0,0,1,.954-2.876,3.228,3.228,0,0,1,2.474-1.022,3.139,3.139,0,0,1,2.405,1,3.983,3.983,0,0,1,.934,2.82c0,.073,0,.184-.007.331H474.1a2.82,2.82,0,0,0,.685,1.853,2.036,2.036,0,0,0,1.534.643,1.9,1.9,0,0,0,1.168-.359A2.39,2.39,0,0,0,478.252,324.456Zm-4.085-2.011h4.1a2.5,2.5,0,0,0-.47-1.39,1.91,1.91,0,0,0-1.542-.719,1.973,1.973,0,0,0-1.44.574A2.265,2.265,0,0,0,474.167,322.445Z" transform="translate(-5 -8.943)"/><path class="cls-7" d="M481.1,326.82v-7.34h1.12v1.043a2.639,2.639,0,0,1,2.336-1.209,3.057,3.057,0,0,1,1.22.238,1.917,1.917,0,0,1,.833.626,2.4,2.4,0,0,1,.388.919,7.165,7.165,0,0,1,.068,1.209v4.514H485.82v-4.465a3.354,3.354,0,0,0-.145-1.137,1.194,1.194,0,0,0-.516-.6,1.638,1.638,0,0,0-.867-.225,2.015,2.015,0,0,0-1.372.5,2.488,2.488,0,0,0-.577,1.914v4.009Z" transform="translate(-5 -8.943)"/><path class="cls-7" d="M114.6,322.745l1.265-.11a2.794,2.794,0,0,0,.418,1.248,2.291,2.291,0,0,0,1.02.788,3.863,3.863,0,0,0,1.555.3,3.72,3.72,0,0,0,1.354-.228,1.879,1.879,0,0,0,.875-.626,1.451,1.451,0,0,0,.287-.867,1.321,1.321,0,0,0-.276-.833,2.048,2.048,0,0,0-.912-.6,18.056,18.056,0,0,0-1.8-.494,9.224,9.224,0,0,1-1.956-.633,2.734,2.734,0,0,1-1.082-.943,2.31,2.31,0,0,1-.356-1.261,2.576,2.576,0,0,1,.436-1.435,2.7,2.7,0,0,1,1.271-1.013,4.824,4.824,0,0,1,1.859-.346,5.071,5.071,0,0,1,1.987.363,2.868,2.868,0,0,1,1.324,1.067,3.071,3.071,0,0,1,.5,1.6l-1.285.1a2.077,2.077,0,0,0-.7-1.451,2.732,2.732,0,0,0-1.766-.49,2.837,2.837,0,0,0-1.773.445,1.338,1.338,0,0,0-.556,1.075,1.152,1.152,0,0,0,.394.9,5.341,5.341,0,0,0,2.021.722,13.479,13.479,0,0,1,2.243.646,3.078,3.078,0,0,1,1.307,1.033,2.52,2.52,0,0,1,.421,1.441,2.76,2.76,0,0,1-.463,1.524,3.052,3.052,0,0,1-1.331,1.112,4.639,4.639,0,0,1-1.953.4,5.826,5.826,0,0,1-2.305-.4,3.222,3.222,0,0,1-1.458-1.206A3.418,3.418,0,0,1,114.6,322.745Z" transform="translate(-5 -8.943)"/><path class="cls-7" d="M129.145,326v-1.078a2.687,2.687,0,0,1-2.329,1.244,2.966,2.966,0,0,1-1.213-.249,2,2,0,0,1-.836-.625,2.353,2.353,0,0,1-.384-.923,6.309,6.309,0,0,1-.076-1.161v-4.548h1.244v4.07a7.238,7.238,0,0,0,.076,1.313,1.3,1.3,0,0,0,.5.771,1.543,1.543,0,0,0,.94.28,2.046,2.046,0,0,0,1.051-.287,1.592,1.592,0,0,0,.694-.781,3.906,3.906,0,0,0,.2-1.434v-3.933h1.244V326Z" transform="translate(-5 -8.943)"/><path class="cls-7" d="M137.231,323.637l1.285.159a3.138,3.138,0,0,1-1.126,1.749,3.816,3.816,0,0,1-4.655-.37,3.874,3.874,0,0,1-.943-2.781,4.059,4.059,0,0,1,.954-2.876,3.229,3.229,0,0,1,2.475-1.022,3.137,3.137,0,0,1,2.4,1,3.982,3.982,0,0,1,.933,2.82c0,.073,0,.184-.007.331h-5.474a2.822,2.822,0,0,0,.685,1.853,2.035,2.035,0,0,0,1.534.643,1.9,1.9,0,0,0,1.168-.359A2.383,2.383,0,0,0,137.231,323.637Zm-4.085-2.011h4.1a2.488,2.488,0,0,0-.47-1.39,1.908,1.908,0,0,0-1.541-.719,1.975,1.975,0,0,0-1.441.574A2.267,2.267,0,0,0,133.146,321.626Z" transform="translate(-5 -8.943)"/><line class="cls-1" x1="252.498" y1="47.206" x2="252.498" y2="97.305"/><line class="cls-1" x1="253.57" y1="144.511" x2="253.57" y2="194.61"/><line class="cls-1" x1="253.57" y1="240.725" x2="253.57" y2="290.825"/><line class="cls-1" x1="424.728" y1="144.511" x2="424.728" y2="193.52"/><line class="cls-1" x1="79.945" y1="144.511" x2="79.945" y2="194.61"/></svg>