<svg xmlns="http://www.w3.org/2000/svg" viewBox="0 0 437.88 390.001"><defs><style>.cls-1{fill:#231f20;}.cls-2{fill:#dcdbdb;}.cls-3{fill:none;}.cls-3,.cls-4,.cls-5,.cls-7{stroke:#231f20;stroke-miterlimit:10;}.cls-4{fill:#7abee9;}.cls-5{fill:#3288b7;}.cls-6{fill:#fff;}.cls-7{fill:#7bbee9;}</style></defs><title>Case_Study_3</title><g id="Layer_1" data-name="Layer 1"><path class="cls-1" d="M194.366,25.641l3.5-9.041h1.3l3.735,9.041H201.53L200.466,22.9H196.65l-1,2.738ZM197,21.929h3.094l-.953-2.5q-.436-1.14-.647-1.875A11.464,11.464,0,0,1,198,19.277Z" transform="translate(-14.875 -16.44)"/><path class="cls-1" d="M208.016,25.641v-.826a2.061,2.061,0,0,1-1.849.974,2.61,2.61,0,0,1-1.453-.432,2.841,2.841,0,0,1-1.027-1.206,4.135,4.135,0,0,1-.364-1.779,4.612,4.612,0,0,1,.33-1.779,2.58,2.58,0,0,1,.99-1.224,2.664,2.664,0,0,1,1.475-.426,2.212,2.212,0,0,1,1.824.9V16.6h1.114v9.041Zm-3.542-3.269a2.825,2.825,0,0,0,.535,1.881,1.619,1.619,0,0,0,1.264.623,1.589,1.589,0,0,0,1.248-.6,2.725,2.725,0,0,0,.514-1.816,3.059,3.059,0,0,0-.523-1.974,1.614,1.614,0,0,0-1.289-.629,1.558,1.558,0,0,0-1.248.6A2.962,2.962,0,0,0,204.475,22.373Z" transform="translate(-14.875 -16.44)"/><path class="cls-1" d="M212.654,25.641l-2.515-6.549h1.183l1.419,3.922q.23.635.423,1.32.149-.519.417-1.246l1.469-4H216.2l-2.5,6.549Z" transform="translate(-14.875 -16.44)"/><path class="cls-1" d="M221.5,24.833a4.19,4.19,0,0,1-1.2.74,3.486,3.486,0,0,1-1.235.216,2.417,2.417,0,0,1-1.674-.527,1.732,1.732,0,0,1-.585-1.347,1.778,1.778,0,0,1,.221-.879,1.816,1.816,0,0,1,.579-.638,2.723,2.723,0,0,1,.806-.364,8.039,8.039,0,0,1,1-.167,10.327,10.327,0,0,0,2-.382c0-.152.006-.249.006-.29a1.22,1.22,0,0,0-.317-.956,1.89,1.89,0,0,0-1.276-.376,1.992,1.992,0,0,0-1.167.274,1.676,1.676,0,0,0-.557.971L217,20.96a2.675,2.675,0,0,1,.492-1.125,2.156,2.156,0,0,1,.99-.66,4.445,4.445,0,0,1,1.5-.231,4.008,4.008,0,0,1,1.375.2,1.821,1.821,0,0,1,.778.5,1.751,1.751,0,0,1,.349.755,6.236,6.236,0,0,1,.056,1.024V22.9a15.526,15.526,0,0,0,.072,1.958,2.443,2.443,0,0,0,.283.786h-1.17A2.335,2.335,0,0,1,221.5,24.833Zm-.093-2.479a8.256,8.256,0,0,1-1.83.419A4.282,4.282,0,0,0,218.6,23a.97.97,0,0,0-.442.361.974.974,0,0,0,.184,1.267,1.469,1.469,0,0,0,.993.3,2.327,2.327,0,0,0,1.151-.28,1.732,1.732,0,0,0,.741-.768,2.653,2.653,0,0,0,.181-1.11Z" transform="translate(-14.875 -16.44)"/><path class="cls-1" d="M224.281,25.641V19.092h1.008v.931a2.383,2.383,0,0,1,2.1-1.079,2.778,2.778,0,0,1,1.1.213,1.723,1.723,0,0,1,.75.558,2.132,2.132,0,0,1,.349.82,6.3,6.3,0,0,1,.062,1.079v4.027h-1.12V21.657a2.956,2.956,0,0,0-.131-1.014,1.069,1.069,0,0,0-.464-.537,1.483,1.483,0,0,0-.781-.2,1.827,1.827,0,0,0-1.236.45,2.208,2.208,0,0,0-.52,1.708v3.577Z" transform="translate(-14.875 -16.44)"/><path class="cls-1" d="M233.817,24.648l.162.98a4.215,4.215,0,0,1-.846.1,1.932,1.932,0,0,1-.946-.191,1.075,1.075,0,0,1-.473-.5,3.941,3.941,0,0,1-.137-1.311V19.955h-.822v-.863h.822V17.47l1.114-.666v2.288h1.126v.863h-1.126v3.83a1.915,1.915,0,0,0,.059.611.46.46,0,0,0,.193.216.753.753,0,0,0,.383.08A3.67,3.67,0,0,0,233.817,24.648Z" transform="translate(-14.875 -16.44)"/><path class="cls-1" d="M239.227,24.833a4.186,4.186,0,0,1-1.2.74,3.5,3.5,0,0,1-1.236.216,2.417,2.417,0,0,1-1.674-.527,1.732,1.732,0,0,1-.585-1.347,1.778,1.778,0,0,1,.221-.879,1.816,1.816,0,0,1,.579-.638,2.723,2.723,0,0,1,.806-.364,8.044,8.044,0,0,1,1-.167,10.343,10.343,0,0,0,2-.382q.006-.229.006-.29a1.222,1.222,0,0,0-.316-.956,1.888,1.888,0,0,0-1.275-.376,1.994,1.994,0,0,0-1.168.274,1.676,1.676,0,0,0-.557.971l-1.1-.148a2.675,2.675,0,0,1,.492-1.125,2.156,2.156,0,0,1,.99-.66,4.441,4.441,0,0,1,1.5-.231,4.021,4.021,0,0,1,1.377.2,1.823,1.823,0,0,1,.777.5,1.741,1.741,0,0,1,.35.755,6.268,6.268,0,0,1,.055,1.024V22.9a15.689,15.689,0,0,0,.072,1.958,2.443,2.443,0,0,0,.283.786h-1.17A2.314,2.314,0,0,1,239.227,24.833Zm-.094-2.479a8.236,8.236,0,0,1-1.83.419,4.283,4.283,0,0,0-.977.222.97.97,0,0,0-.442.361.974.974,0,0,0,.184,1.267,1.469,1.469,0,0,0,.993.3,2.331,2.331,0,0,0,1.152-.28,1.736,1.736,0,0,0,.74-.768,2.679,2.679,0,0,0,.18-1.11Z" transform="translate(-14.875 -16.44)"/><path class="cls-1" d="M241.8,26.184l1.09.161a1.024,1.024,0,0,0,.379.728,1.88,1.88,0,0,0,1.14.309,2.014,2.014,0,0,0,1.2-.309,1.515,1.515,0,0,0,.572-.863,7,7,0,0,0,.081-1.425,2.312,2.312,0,0,1-1.83.857,2.5,2.5,0,0,1-2.109-.974,3.729,3.729,0,0,1-.747-2.337,4.327,4.327,0,0,1,.342-1.73,2.618,2.618,0,0,1,2.521-1.656,2.378,2.378,0,0,1,1.93.938v-.79H247.4v5.661a5.337,5.337,0,0,1-.314,2.168,2.3,2.3,0,0,1-1,1.008,3.479,3.479,0,0,1-1.678.37,3.191,3.191,0,0,1-1.911-.527A1.777,1.777,0,0,1,241.8,26.184Zm.928-3.934a2.821,2.821,0,0,0,.517,1.881,1.714,1.714,0,0,0,2.589,0,2.731,2.731,0,0,0,.523-1.847,2.672,2.672,0,0,0-.538-1.813,1.673,1.673,0,0,0-1.3-.61,1.624,1.624,0,0,0-1.271.6A2.653,2.653,0,0,0,242.725,22.25Z" transform="translate(-14.875 -16.44)"/><path class="cls-1" d="M253.617,23.532l1.158.142a2.792,2.792,0,0,1-1.015,1.56,3.072,3.072,0,0,1-1.893.555,3.039,3.039,0,0,1-2.3-.885,3.439,3.439,0,0,1-.85-2.482,3.6,3.6,0,0,1,.859-2.565,2.921,2.921,0,0,1,2.229-.913,2.839,2.839,0,0,1,2.166.895,3.533,3.533,0,0,1,.84,2.516q0,.1-.006.3h-4.93a2.5,2.5,0,0,0,.616,1.652,1.841,1.841,0,0,0,1.382.574,1.727,1.727,0,0,0,1.052-.321A2.128,2.128,0,0,0,253.617,23.532Zm-3.679-1.795h3.691a2.2,2.2,0,0,0-.423-1.239,1.725,1.725,0,0,0-1.389-.642,1.789,1.789,0,0,0-1.3.512A2.02,2.02,0,0,0,249.938,21.737Z" transform="translate(-14.875 -16.44)"/><path class="cls-1" d="M259.5,21.238a4.883,4.883,0,0,1,1.22-3.524,4.168,4.168,0,0,1,3.15-1.273,4.4,4.4,0,0,1,2.277.6,3.914,3.914,0,0,1,1.547,1.668,5.368,5.368,0,0,1,.532,2.427,5.292,5.292,0,0,1-.56,2.46,3.81,3.81,0,0,1-1.588,1.644,4.567,4.567,0,0,1-2.216.558,4.344,4.344,0,0,1-2.3-.617,3.98,3.98,0,0,1-1.538-1.684A5.062,5.062,0,0,1,259.5,21.238Zm1.245.019a3.6,3.6,0,0,0,.887,2.575,3.115,3.115,0,0,0,4.47-.009,3.818,3.818,0,0,0,.881-2.695,4.6,4.6,0,0,0-.377-1.927,2.874,2.874,0,0,0-1.1-1.276,3.008,3.008,0,0,0-1.628-.453,3.1,3.1,0,0,0-2.207.873A3.874,3.874,0,0,0,260.745,21.256Z" transform="translate(-14.875 -16.44)"/><path class="cls-1" d="M271.477,25.641l-2.515-6.549h1.183l1.419,3.922q.23.635.423,1.32.149-.519.418-1.246l1.469-4h1.151l-2.5,6.549Z" transform="translate(-14.875 -16.44)"/><path class="cls-1" d="M280.539,23.532l1.158.142a2.792,2.792,0,0,1-1.015,1.56,3.072,3.072,0,0,1-1.893.555,3.039,3.039,0,0,1-2.3-.885,3.439,3.439,0,0,1-.85-2.482,3.6,3.6,0,0,1,.859-2.565,2.921,2.921,0,0,1,2.229-.913,2.839,2.839,0,0,1,2.166.895,3.533,3.533,0,0,1,.84,2.516q0,.1-.006.3H276.8a2.5,2.5,0,0,0,.616,1.652,1.841,1.841,0,0,0,1.382.574,1.727,1.727,0,0,0,1.052-.321A2.128,2.128,0,0,0,280.539,23.532Zm-3.679-1.795h3.691a2.2,2.2,0,0,0-.423-1.239,1.725,1.725,0,0,0-1.389-.642,1.789,1.789,0,0,0-1.3.512A2.02,2.02,0,0,0,276.86,21.737Z" transform="translate(-14.875 -16.44)"/><path class="cls-1" d="M283.092,25.641V19.092H284.1v.993a2.718,2.718,0,0,1,.713-.919,1.254,1.254,0,0,1,.719-.222,2.205,2.205,0,0,1,1.152.358l-.387,1.03a1.615,1.615,0,0,0-.821-.241,1.075,1.075,0,0,0-.66.219,1.189,1.189,0,0,0-.417.607,4.3,4.3,0,0,0-.187,1.295v3.429Z" transform="translate(-14.875 -16.44)"/><path class="cls-1" d="M293.126,25.641V17.667h-3.007V16.6h7.233v1.067h-3.02v7.974Z" transform="translate(-14.875 -16.44)"/><path class="cls-1" d="M297.981,17.877V16.6h1.12v1.276Zm0,7.764V19.092h1.12v6.549Z" transform="translate(-14.875 -16.44)"/><path class="cls-1" d="M300.807,25.641V19.092h1v.919a2.333,2.333,0,0,1,2-1.067,2.191,2.191,0,0,1,1.2.3,1.618,1.618,0,0,1,.663.845,2.38,2.38,0,0,1,2.042-1.147,2.025,2.025,0,0,1,1.513.54,2.294,2.294,0,0,1,.529,1.662v4.5H308.65V21.516a3.018,3.018,0,0,0-.109-.959.927.927,0,0,0-.4-.472,1.242,1.242,0,0,0-.672-.179,1.574,1.574,0,0,0-1.158.459,2.015,2.015,0,0,0-.46,1.471v3.8h-1.121V21.386a1.859,1.859,0,0,0-.273-1.11,1.042,1.042,0,0,0-.9-.37,1.637,1.637,0,0,0-.874.247,1.4,1.4,0,0,0-.582.721,4.009,4.009,0,0,0-.181,1.369v3.4Z" transform="translate(-14.875 -16.44)"/><path class="cls-1" d="M315.951,23.532l1.158.142a2.792,2.792,0,0,1-1.015,1.56,3.072,3.072,0,0,1-1.893.555,3.039,3.039,0,0,1-2.3-.885,3.439,3.439,0,0,1-.85-2.482,3.6,3.6,0,0,1,.859-2.565,2.921,2.921,0,0,1,2.229-.913,2.839,2.839,0,0,1,2.166.895,3.533,3.533,0,0,1,.84,2.516q0,.1-.006.3h-4.93a2.5,2.5,0,0,0,.616,1.652,1.841,1.841,0,0,0,1.382.574,1.727,1.727,0,0,0,1.052-.321A2.128,2.128,0,0,0,315.951,23.532Zm-3.679-1.795h3.691a2.2,2.2,0,0,0-.423-1.239,1.725,1.725,0,0,0-1.389-.642,1.789,1.789,0,0,0-1.3.512A2.02,2.02,0,0,0,312.272,21.737Z" transform="translate(-14.875 -16.44)"/><rect class="cls-2" x="44.929" y="41.824" width="392.451" height="304.914"/><path class="cls-1" d="M235.471,406.293v-3.83l-3.484-5.211h1.455l1.782,2.727q.494.765.919,1.529.407-.709.987-1.6l1.751-2.658h1.395l-3.608,5.211v3.83Z" transform="translate(-14.875 -16.44)"/><path class="cls-1" d="M244.53,404.184l1.147.143a2.8,2.8,0,0,1-1,1.56,3.022,3.022,0,0,1-1.875.556,2.991,2.991,0,0,1-2.278-.886,3.455,3.455,0,0,1-.842-2.481,3.617,3.617,0,0,1,.851-2.565,2.882,2.882,0,0,1,2.208-.913,2.8,2.8,0,0,1,2.146.895,3.549,3.549,0,0,1,.833,2.516q0,.1-.006.3h-4.885a2.522,2.522,0,0,0,.61,1.653,1.819,1.819,0,0,0,1.369.573,1.7,1.7,0,0,0,1.042-.32A2.125,2.125,0,0,0,244.53,404.184Zm-3.645-1.794h3.657a2.233,2.233,0,0,0-.419-1.24,1.705,1.705,0,0,0-1.376-.641,1.758,1.758,0,0,0-1.285.512A2.025,2.025,0,0,0,240.886,402.39Z" transform="translate(-14.875 -16.44)"/><path class="cls-1" d="M251.346,405.485a4.152,4.152,0,0,1-1.187.74,3.434,3.434,0,0,1-1.224.216,2.382,2.382,0,0,1-1.659-.527,1.74,1.74,0,0,1-.58-1.348,1.8,1.8,0,0,1,.219-.879,1.824,1.824,0,0,1,.574-.639,2.686,2.686,0,0,1,.8-.363,7.921,7.921,0,0,1,.986-.167,10.162,10.162,0,0,0,1.979-.382q.006-.229.006-.29a1.226,1.226,0,0,0-.314-.956,1.855,1.855,0,0,0-1.264-.376,1.961,1.961,0,0,0-1.156.274,1.68,1.68,0,0,0-.553.972l-1.085-.148a2.676,2.676,0,0,1,.487-1.125,2.13,2.13,0,0,1,.98-.66,4.371,4.371,0,0,1,1.486-.231,3.923,3.923,0,0,1,1.362.2,1.8,1.8,0,0,1,.771.5,1.745,1.745,0,0,1,.345.755,6.233,6.233,0,0,1,.056,1.023v1.48a15.559,15.559,0,0,0,.071,1.958,2.464,2.464,0,0,0,.28.786h-1.159A2.341,2.341,0,0,1,251.346,405.485Zm-.093-2.479a8.125,8.125,0,0,1-1.813.42,4.193,4.193,0,0,0-.968.222.96.96,0,0,0-.437.36.981.981,0,0,0,.182,1.268,1.445,1.445,0,0,0,.983.3,2.293,2.293,0,0,0,1.141-.28,1.734,1.734,0,0,0,.734-.768,2.685,2.685,0,0,0,.179-1.11Z" transform="translate(-14.875 -16.44)"/><path class="cls-1" d="M254.084,406.293v-6.549h1v.992a2.722,2.722,0,0,1,.706-.919,1.236,1.236,0,0,1,.712-.222,2.17,2.17,0,0,1,1.142.357l-.383,1.03a1.591,1.591,0,0,0-.814-.24,1.054,1.054,0,0,0-.653.219,1.183,1.183,0,0,0-.413.607,4.331,4.331,0,0,0-.185,1.295v3.429Z" transform="translate(-14.875 -16.44)"/><path class="cls-1" d="M257.858,404.338l1.1-.173a1.535,1.535,0,0,0,.515,1.012,1.8,1.8,0,0,0,1.181.352,1.732,1.732,0,0,0,1.135-.312.929.929,0,0,0,.37-.73.673.673,0,0,0-.326-.592,4.77,4.77,0,0,0-1.135-.377,10.274,10.274,0,0,1-1.693-.533,1.619,1.619,0,0,1-.959-1.5,1.687,1.687,0,0,1,.2-.811,1.8,1.8,0,0,1,.545-.62,2.292,2.292,0,0,1,.706-.323,3.347,3.347,0,0,1,.959-.133,3.8,3.8,0,0,1,1.354.222,1.841,1.841,0,0,1,.86.6,2.348,2.348,0,0,1,.383,1.015l-1.085.147a1.19,1.19,0,0,0-.429-.789,1.574,1.574,0,0,0-1-.283,1.809,1.809,0,0,0-1.091.253.735.735,0,0,0-.327.592.612.612,0,0,0,.136.389.982.982,0,0,0,.426.3q.166.062.98.283a13.656,13.656,0,0,1,1.644.516,1.664,1.664,0,0,1,.73.582,1.627,1.627,0,0,1,.266.95,1.864,1.864,0,0,1-.324,1.045,2.09,2.09,0,0,1-.935.759,3.4,3.4,0,0,1-1.381.269,3.073,3.073,0,0,1-1.946-.531A2.466,2.466,0,0,1,257.858,404.338Z" transform="translate(-14.875 -16.44)"/><path class="cls-1" d="M43.245,55.743H40.112l-.316,2.11a4.377,4.377,0,0,1,.669-.05,3.471,3.471,0,0,1,1.769.442,2.341,2.341,0,0,1,1.175,2.11,2.849,2.849,0,0,1-3.058,2.805,4.021,4.021,0,0,1-2.046-.505l.278-.847a3.678,3.678,0,0,0,1.756.455,1.812,1.812,0,0,0,1.945-1.782c-.012-1.061-.72-1.819-2.362-1.819a8.546,8.546,0,0,0-1.137.088l.531-3.942h3.929Z" transform="translate(-14.875 -16.44)"/><path class="cls-1" d="M50.28,58.826c0,2.792-1.036,4.333-2.855,4.333-1.6,0-2.691-1.5-2.717-4.22,0-2.754,1.188-4.27,2.855-4.27C49.294,54.669,50.28,56.21,50.28,58.826Zm-4.459.126c0,2.135.657,3.348,1.667,3.348,1.137,0,1.68-1.327,1.68-3.424,0-2.021-.518-3.348-1.667-3.348C46.527,55.528,45.82,56.716,45.82,58.952Z" transform="translate(-14.875 -16.44)"/><path class="cls-1" d="M41.779,93.332V91.1H37.964v-.733l3.664-5.243h1.2v5.1h1.15V91.1h-1.15v2.236Zm0-3.108V87.482q0-.645.038-1.289h-.038c-.252.48-.455.833-.682,1.213L39.088,90.2v.025Z" transform="translate(-14.875 -16.44)"/><path class="cls-1" d="M49.724,86.055H46.591l-.316,2.11a4.377,4.377,0,0,1,.669-.05,3.471,3.471,0,0,1,1.769.442,2.342,2.342,0,0,1,1.175,2.11,2.849,2.849,0,0,1-3.057,2.805,4.022,4.022,0,0,1-2.047-.505l.278-.847a3.678,3.678,0,0,0,1.756.455,1.812,1.812,0,0,0,1.945-1.782c-.013-1.061-.72-1.819-2.362-1.819a8.546,8.546,0,0,0-1.137.088l.531-3.942h3.929Z" transform="translate(-14.875 -16.44)"/><path class="cls-1" d="M41.779,123.643v-2.236H37.964v-.733l3.664-5.243h1.2v5.1h1.15v.872h-1.15v2.236Zm0-3.108v-2.742q0-.645.038-1.289h-.038c-.252.48-.455.833-.682,1.213l-2.009,2.792v.025Z" transform="translate(-14.875 -16.44)"/><path class="cls-1" d="M50.28,119.448c0,2.792-1.036,4.334-2.855,4.334-1.6,0-2.691-1.5-2.717-4.22,0-2.754,1.188-4.27,2.855-4.27C49.294,115.292,50.28,116.833,50.28,119.448Zm-4.459.126c0,2.135.657,3.348,1.667,3.348,1.137,0,1.68-1.327,1.68-3.424,0-2.021-.518-3.348-1.667-3.348C46.527,116.151,45.82,117.338,45.82,119.575Z" transform="translate(-14.875 -16.44)"/><path class="cls-1" d="M38.608,152.678a3.715,3.715,0,0,0,1.819.518c1.428,0,1.87-.91,1.857-1.592-.012-1.149-1.048-1.642-2.123-1.642h-.619v-.834h.619c.809,0,1.832-.417,1.832-1.39,0-.657-.417-1.238-1.44-1.238a3.017,3.017,0,0,0-1.642.543l-.291-.809a3.905,3.905,0,0,1,2.147-.631c1.617,0,2.35.96,2.35,1.958a2.039,2.039,0,0,1-1.516,1.933v.025a2.139,2.139,0,0,1,1.832,2.11c0,1.314-1.023,2.464-2.994,2.464a4.171,4.171,0,0,1-2.135-.556Z" transform="translate(-14.875 -16.44)"/><path class="cls-1" d="M49.724,146.677H46.591l-.316,2.11a4.377,4.377,0,0,1,.669-.05,3.471,3.471,0,0,1,1.769.442,2.342,2.342,0,0,1,1.175,2.11,2.849,2.849,0,0,1-3.057,2.805,4.022,4.022,0,0,1-2.047-.505l.278-.847a3.678,3.678,0,0,0,1.756.455,1.812,1.812,0,0,0,1.945-1.782c-.013-1.061-.72-1.819-2.362-1.819a8.546,8.546,0,0,0-1.137.088l.531-3.942h3.929Z" transform="translate(-14.875 -16.44)"/><path class="cls-1" d="M38.608,182.989a3.716,3.716,0,0,0,1.819.518c1.428,0,1.87-.909,1.857-1.592-.012-1.149-1.048-1.643-2.123-1.643h-.619v-.833h.619c.809,0,1.832-.417,1.832-1.39,0-.657-.417-1.238-1.44-1.238a3.017,3.017,0,0,0-1.642.543l-.291-.809a3.9,3.9,0,0,1,2.147-.631c1.617,0,2.35.96,2.35,1.958a2.039,2.039,0,0,1-1.516,1.933v.025a2.139,2.139,0,0,1,1.832,2.11c0,1.314-1.023,2.464-2.994,2.464a4.176,4.176,0,0,1-2.135-.556Z" transform="translate(-14.875 -16.44)"/><path class="cls-1" d="M50.28,180.07c0,2.792-1.036,4.334-2.855,4.334-1.6,0-2.691-1.5-2.717-4.22,0-2.754,1.188-4.27,2.855-4.27C49.294,175.914,50.28,177.455,50.28,180.07Zm-4.459.126c0,2.135.657,3.348,1.667,3.348,1.137,0,1.68-1.327,1.68-3.424,0-2.021-.518-3.348-1.667-3.348C46.527,176.773,45.82,177.96,45.82,180.2Z" transform="translate(-14.875 -16.44)"/><path class="cls-1" d="M38.343,214.576v-.682l.872-.847c2.1-2,3.045-3.058,3.058-4.3a1.465,1.465,0,0,0-1.63-1.6,2.8,2.8,0,0,0-1.744.695l-.354-.784a3.605,3.605,0,0,1,2.325-.833,2.31,2.31,0,0,1,2.514,2.388c0,1.516-1.1,2.742-2.83,4.409l-.657.606v.025h3.689v.922Z" transform="translate(-14.875 -16.44)"/><path class="cls-1" d="M49.724,207.3H46.591l-.316,2.11a4.377,4.377,0,0,1,.669-.05,3.471,3.471,0,0,1,1.769.442,2.342,2.342,0,0,1,1.175,2.11,2.849,2.849,0,0,1-3.057,2.805,4.022,4.022,0,0,1-2.047-.505l.278-.847a3.678,3.678,0,0,0,1.756.455,1.812,1.812,0,0,0,1.945-1.782c-.013-1.061-.72-1.819-2.362-1.819a8.546,8.546,0,0,0-1.137.088l.531-3.942h3.929Z" transform="translate(-14.875 -16.44)"/><path class="cls-1" d="M38.343,244.888v-.682l.872-.847c2.1-2,3.045-3.058,3.058-4.3a1.465,1.465,0,0,0-1.63-1.6,2.8,2.8,0,0,0-1.744.695l-.354-.784a3.605,3.605,0,0,1,2.325-.833,2.31,2.31,0,0,1,2.514,2.388c0,1.516-1.1,2.742-2.83,4.409l-.657.606v.025h3.689v.922Z" transform="translate(-14.875 -16.44)"/><path class="cls-1" d="M50.28,240.693c0,2.792-1.036,4.333-2.855,4.333-1.6,0-2.691-1.5-2.717-4.22,0-2.754,1.188-4.27,2.855-4.27C49.294,236.537,50.28,238.078,50.28,240.693Zm-4.459.126c0,2.135.657,3.348,1.667,3.348,1.137,0,1.68-1.327,1.68-3.424,0-2.021-.518-3.348-1.667-3.348C46.527,237.4,45.82,238.583,45.82,240.819Z" transform="translate(-14.875 -16.44)"/><path class="cls-1" d="M40.756,268.022h-.025l-1.428.771-.215-.846,1.794-.96h.948V275.2H40.756Z" transform="translate(-14.875 -16.44)"/><path class="cls-1" d="M49.724,267.921H46.591l-.316,2.11a4.377,4.377,0,0,1,.669-.05,3.471,3.471,0,0,1,1.769.442,2.342,2.342,0,0,1,1.175,2.11,2.849,2.849,0,0,1-3.057,2.805,4.022,4.022,0,0,1-2.047-.505l.278-.847a3.679,3.679,0,0,0,1.756.455,1.812,1.812,0,0,0,1.945-1.781c-.013-1.061-.72-1.819-2.362-1.819a8.546,8.546,0,0,0-1.137.088l.531-3.942h3.929Z" transform="translate(-14.875 -16.44)"/><path class="cls-1" d="M40.756,298.333h-.025L39.3,299.1l-.215-.846,1.794-.96h.948v8.212H40.756Z" transform="translate(-14.875 -16.44)"/><path class="cls-1" d="M50.28,301.315c0,2.792-1.036,4.333-2.855,4.333-1.6,0-2.691-1.5-2.717-4.22,0-2.754,1.188-4.27,2.855-4.27C49.294,297.159,50.28,298.7,50.28,301.315Zm-4.459.126c0,2.135.657,3.348,1.667,3.348,1.137,0,1.68-1.327,1.68-3.424,0-2.021-.518-3.348-1.667-3.348C46.527,298.018,45.82,299.205,45.82,301.441Z" transform="translate(-14.875 -16.44)"/><path class="cls-1" d="M46.485,328.544H43.352l-.316,2.11a4.367,4.367,0,0,1,.669-.051,3.467,3.467,0,0,1,1.769.442,2.34,2.34,0,0,1,1.175,2.109,2.849,2.849,0,0,1-3.057,2.8,4.017,4.017,0,0,1-2.047-.5l.278-.847a3.678,3.678,0,0,0,1.756.455,1.812,1.812,0,0,0,1.945-1.781c-.013-1.062-.72-1.819-2.362-1.819a8.475,8.475,0,0,0-1.137.088l.531-3.941h3.929Z" transform="translate(-14.875 -16.44)"/><path class="cls-1" d="M47.041,361.938c0,2.792-1.036,4.333-2.855,4.333-1.6,0-2.691-1.5-2.717-4.22,0-2.754,1.188-4.271,2.855-4.271C46.055,357.78,47.041,359.322,47.041,361.938Zm-4.459.126c0,2.136.657,3.349,1.667,3.349,1.137,0,1.68-1.327,1.68-3.424,0-2.021-.518-3.349-1.667-3.349C43.288,358.64,42.581,359.827,42.581,362.063Z" transform="translate(-14.875 -16.44)"/><line class="cls-3" x1="41.957" y1="41.824" x2="437.38" y2="41.824"/><line class="cls-3" x1="437.38" y1="72.837" x2="41.957" y2="72.837"/><line class="cls-3" x1="41.957" y1="103.621" x2="437.38" y2="103.621"/><line class="cls-3" x1="41.957" y1="133.8" x2="437.38" y2="133.8"/><line class="cls-3" x1="41.957" y1="163.302" x2="437.38" y2="163.302"/><line class="cls-3" x1="41.957" y1="194.315" x2="437.38" y2="194.315"/><line class="cls-3" x1="41.957" y1="225.099" x2="437.38" y2="225.099"/><line class="cls-3" x1="41.957" y1="255.278" x2="437.38" y2="255.278"/><line class="cls-3" x1="41.957" y1="284.624" x2="437.38" y2="284.624"/><line class="cls-3" x1="41.957" y1="315.638" x2="437.38" y2="315.638"/><line class="cls-3" x1="41.957" y1="346.422" x2="437.38" y2="346.422"/><path class="cls-1" d="M23.916,230.837H14.875v-1.8l6.4-2.14q.894-.3,1.338-.432-.493-.154-1.449-.481l-6.29-2.165v-1.61h9.041v1.153H16.349l7.567,2.627v1.08l-7.7,2.615h7.7Z" transform="translate(-14.875 -16.44)"/><path class="cls-1" d="M16.152,220.416H14.875v-1.11h1.276Zm7.764,0H17.367v-1.11h6.549Z" transform="translate(-14.875 -16.44)"/><path class="cls-1" d="M23.916,217.641H14.875v-1.11h9.041Z" transform="translate(-14.875 -16.44)"/><path class="cls-1" d="M23.916,214.835H14.875v-1.11h9.041Z" transform="translate(-14.875 -16.44)"/><path class="cls-1" d="M16.152,212H14.875v-1.11h1.276Zm7.764,0H17.367v-1.11h6.549Z" transform="translate(-14.875 -16.44)"/><path class="cls-1" d="M20.642,209.612a3.375,3.375,0,0,1-2.695-1.011,3.047,3.047,0,0,1-.728-2.06,2.938,2.938,0,0,1,.885-2.208,3.366,3.366,0,0,1,2.445-.857,4.338,4.338,0,0,1,1.989.379,2.684,2.684,0,0,1,1.125,1.1,3.216,3.216,0,0,1,.4,1.582,2.945,2.945,0,0,1-.882,2.223A3.523,3.523,0,0,1,20.642,209.612Zm0-1.141a2.79,2.79,0,0,0,1.884-.549,1.828,1.828,0,0,0,0-2.757,2.857,2.857,0,0,0-1.918-.549,2.7,2.7,0,0,0-1.841.552,1.83,1.83,0,0,0,0,2.753A2.777,2.777,0,0,0,20.642,208.472Z" transform="translate(-14.875 -16.44)"/><path class="cls-1" d="M23.916,202.175H17.367v-1H18.3a2.355,2.355,0,0,1-1.079-2.084A2.731,2.731,0,0,1,17.432,198a1.709,1.709,0,0,1,.558-.743,2.15,2.15,0,0,1,.82-.345,6.367,6.367,0,0,1,1.079-.062h4.027v1.11H19.932a2.987,2.987,0,0,0-1.014.129,1.069,1.069,0,0,0-.537.459,1.461,1.461,0,0,0-.2.774,1.8,1.8,0,0,0,.45,1.224,2.222,2.222,0,0,0,1.708.515h3.577Z" transform="translate(-14.875 -16.44)"/><path class="cls-1" d="M21.961,195.6l-.172-1.1a1.535,1.535,0,0,0,1.011-.515,1.8,1.8,0,0,0,.352-1.181,1.736,1.736,0,0,0-.312-1.135.931.931,0,0,0-.73-.37.675.675,0,0,0-.592.327,4.8,4.8,0,0,0-.376,1.135,10.333,10.333,0,0,1-.534,1.693,1.614,1.614,0,0,1-1.5.958,1.686,1.686,0,0,1-.811-.2,1.8,1.8,0,0,1-.62-.546,2.281,2.281,0,0,1-.324-.706,3.357,3.357,0,0,1-.133-.959,3.793,3.793,0,0,1,.222-1.354,1.84,1.84,0,0,1,.6-.86,2.35,2.35,0,0,1,1.015-.382l.148,1.085a1.189,1.189,0,0,0-.79.429,1.568,1.568,0,0,0-.284,1,1.817,1.817,0,0,0,.253,1.092.737.737,0,0,0,.592.327.613.613,0,0,0,.388-.136.977.977,0,0,0,.3-.425q.062-.167.284-.981a13.656,13.656,0,0,1,.515-1.643,1.669,1.669,0,0,1,.583-.731,1.626,1.626,0,0,1,.95-.265,1.863,1.863,0,0,1,1.045.324,2.094,2.094,0,0,1,.759.934,3.4,3.4,0,0,1,.268,1.381,3.077,3.077,0,0,1-.53,1.946A2.464,2.464,0,0,1,21.961,195.6Z" transform="translate(-14.875 -16.44)"/><line class="cls-3" x1="47.347" y1="352.736" x2="47.347" y2="346.712"/><line class="cls-3" x1="76.255" y1="352.736" x2="76.255" y2="346.712"/><line class="cls-3" x1="105.987" y1="352.736" x2="105.987" y2="346.712"/><line class="cls-3" x1="135.114" y1="352.736" x2="135.114" y2="346.712"/><line class="cls-3" x1="164.616" y1="352.736" x2="164.616" y2="346.712"/><line class="cls-3" x1="194.576" y1="352.736" x2="194.576" y2="346.712"/><line class="cls-3" x1="225.36" y1="352.736" x2="225.36" y2="346.712"/><line class="cls-3" x1="255.54" y1="352.736" x2="255.54" y2="346.712"/><line class="cls-3" x1="284.885" y1="352.736" x2="284.885" y2="346.712"/><line class="cls-3" x1="315.899" y1="352.736" x2="315.899" y2="346.712"/><line class="cls-3" x1="346.683" y1="352.736" x2="346.683" y2="346.712"/><line class="cls-3" x1="375.583" y1="352.736" x2="375.583" y2="346.712"/><line class="cls-3" x1="406.596" y1="352.736" x2="406.596" y2="346.712"/><line class="cls-3" x1="437.38" y1="346.712" x2="437.38" y2="352.736"/><path class="cls-1" d="M57.357,379.711a8.277,8.277,0,0,1,.33-2.58,3.209,3.209,0,0,1,.98-1.508,2.508,2.508,0,0,1,1.637-.53,2.672,2.672,0,0,1,1.277.293,2.438,2.438,0,0,1,.906.845,4.513,4.513,0,0,1,.562,1.344,8.935,8.935,0,0,1,.2,2.137,8.306,8.306,0,0,1-.327,2.569,3.208,3.208,0,0,1-.978,1.511,2.507,2.507,0,0,1-1.644.533,2.48,2.48,0,0,1-2.053-.937A5.957,5.957,0,0,1,57.357,379.711Zm1.141,0a5.674,5.674,0,0,0,.521,2.964,1.489,1.489,0,0,0,2.572,0,8.685,8.685,0,0,0,0-5.926,1.548,1.548,0,0,0-1.3-.734,1.423,1.423,0,0,0-1.221.648A5.731,5.731,0,0,0,58.5,379.711Z" transform="translate(-14.875 -16.44)"/><path class="cls-1" d="M91.267,383.1v1.066H85.292a1.955,1.955,0,0,1,.129-.771,4.084,4.084,0,0,1,.731-1.2,11.476,11.476,0,0,1,1.452-1.369,12.338,12.338,0,0,0,1.992-1.914,2.294,2.294,0,0,0,.518-1.336,1.482,1.482,0,0,0-.472-1.112,1.7,1.7,0,0,0-1.23-.454,1.734,1.734,0,0,0-1.283.481,1.818,1.818,0,0,0-.487,1.332l-1.141-.117a2.809,2.809,0,0,1,.882-1.945,3.007,3.007,0,0,1,2.054-.669,2.866,2.866,0,0,1,2.06.721,2.369,2.369,0,0,1,.759,1.789,2.714,2.714,0,0,1-.222,1.066,4.143,4.143,0,0,1-.737,1.1,18.094,18.094,0,0,1-1.711,1.591q-1,.838-1.283,1.138a3.635,3.635,0,0,0-.469.6Z" transform="translate(-14.875 -16.44)"/><path class="cls-1" d="M120.577,384.17V382h-3.922v-1.017l4.126-5.859h.906v5.859h1.221V382h-1.221v2.165Zm0-3.182v-4.077l-2.831,4.077Z" transform="translate(-14.875 -16.44)"/><path class="cls-1" d="M150.855,377.343l-1.1.087a2.1,2.1,0,0,0-.419-.95,1.469,1.469,0,0,0-1.11-.475,1.525,1.525,0,0,0-.931.3,2.53,2.53,0,0,0-.827,1.116,5.843,5.843,0,0,0-.314,2.091,2.57,2.57,0,0,1,.98-.906,2.639,2.639,0,0,1,1.215-.3,2.519,2.519,0,0,1,1.89.816,2.934,2.934,0,0,1,.78,2.112,3.483,3.483,0,0,1-.367,1.582,2.676,2.676,0,0,1-1.008,1.119,2.757,2.757,0,0,1-1.456.389,2.843,2.843,0,0,1-2.263-1.021,5.152,5.152,0,0,1-.876-3.364,6.033,6.033,0,0,1,.968-3.812,2.784,2.784,0,0,1,2.276-1.035,2.421,2.421,0,0,1,2.565,2.25Zm-4.533,3.9a2.568,2.568,0,0,0,.244,1.1,1.81,1.81,0,0,0,.681.8,1.7,1.7,0,0,0,.919.274,1.563,1.563,0,0,0,1.208-.567,2.23,2.23,0,0,0,.506-1.541,2.092,2.092,0,0,0-.5-1.478,1.642,1.642,0,0,0-1.258-.539,1.714,1.714,0,0,0-1.277.539A1.948,1.948,0,0,0,146.323,381.24Z" transform="translate(-14.875 -16.44)"/><path class="cls-1" d="M178.389,379.268a2.093,2.093,0,0,1-1.024-.722,1.889,1.889,0,0,1-.333-1.122,2.194,2.194,0,0,1,.709-1.659,2.985,2.985,0,0,1,3.792.016,2.225,2.225,0,0,1,.722,1.674,1.845,1.845,0,0,1-.33,1.095,2.083,2.083,0,0,1-1,.719,2.431,2.431,0,0,1,1.267.875,2.407,2.407,0,0,1,.435,1.443,2.6,2.6,0,0,1-.82,1.949,3.34,3.34,0,0,1-4.317,0,2.633,2.633,0,0,1-.82-1.976,2.389,2.389,0,0,1,.447-1.478A2.238,2.238,0,0,1,178.389,379.268Zm-.58,2.294a2,2,0,0,0,.225.919,1.587,1.587,0,0,0,.669.688,1.959,1.959,0,0,0,.956.243,1.79,1.79,0,0,0,1.313-.512,1.75,1.75,0,0,0,.518-1.3,1.781,1.781,0,0,0-.534-1.326,1.827,1.827,0,0,0-1.335-.524,1.766,1.766,0,0,0-1.813,1.813Zm.357-4.175a1.407,1.407,0,0,0,.413,1.048,1.464,1.464,0,0,0,1.073.407,1.434,1.434,0,0,0,1.051-.4,1.333,1.333,0,0,0,.41-.989,1.386,1.386,0,0,0-.422-1.027,1.553,1.553,0,0,0-2.106-.009A1.309,1.309,0,0,0,178.167,377.387Z" transform="translate(-14.875 -16.44)"/><path class="cls-1" d="M205.43,384.17h-1.11V377.1a5.735,5.735,0,0,1-1.051.765,7.408,7.408,0,0,1-1.169.573v-1.073a6.657,6.657,0,0,0,1.628-1.061,4.163,4.163,0,0,0,.986-1.208h.715Z" transform="translate(-14.875 -16.44)"/><path class="cls-1" d="M208.273,379.711a8.277,8.277,0,0,1,.33-2.58,3.209,3.209,0,0,1,.98-1.508,2.508,2.508,0,0,1,1.637-.53,2.672,2.672,0,0,1,1.277.293,2.438,2.438,0,0,1,.906.845,4.513,4.513,0,0,1,.562,1.344,8.935,8.935,0,0,1,.2,2.137,8.306,8.306,0,0,1-.327,2.569,3.208,3.208,0,0,1-.978,1.511,2.507,2.507,0,0,1-1.644.533,2.48,2.48,0,0,1-2.053-.937A5.957,5.957,0,0,1,208.273,379.711Zm1.141,0a5.674,5.674,0,0,0,.521,2.964,1.489,1.489,0,0,0,2.572,0,8.685,8.685,0,0,0,0-5.926,1.548,1.548,0,0,0-1.3-.734,1.423,1.423,0,0,0-1.221.648A5.731,5.731,0,0,0,209.414,379.711Z" transform="translate(-14.875 -16.44)"/><path class="cls-1" d="M237.021,384.17h-1.11V377.1a5.735,5.735,0,0,1-1.051.765,7.408,7.408,0,0,1-1.169.573v-1.073a6.657,6.657,0,0,0,1.628-1.061,4.163,4.163,0,0,0,.986-1.208h.715Z" transform="translate(-14.875 -16.44)"/><path class="cls-1" d="M243.423,384.17V382H239.5v-1.017l4.126-5.859h.906v5.859h1.221V382h-1.221v2.165Zm0-3.182v-4.077l-2.83,4.077Z" transform="translate(-14.875 -16.44)"/><path class="cls-1" d="M265.105,384.17H264V377.1a5.757,5.757,0,0,1-1.052.765,7.388,7.388,0,0,1-1.169.573v-1.073A6.635,6.635,0,0,0,263.4,376.3a4.168,4.168,0,0,0,.987-1.208h.715Z" transform="translate(-14.875 -16.44)"/><path class="cls-1" d="M273.709,377.343l-1.1.087a2.1,2.1,0,0,0-.419-.95,1.469,1.469,0,0,0-1.11-.475,1.523,1.523,0,0,0-.931.3,2.526,2.526,0,0,0-.826,1.116,5.811,5.811,0,0,0-.314,2.091,2.563,2.563,0,0,1,.98-.906,2.634,2.634,0,0,1,1.215-.3,2.518,2.518,0,0,1,1.89.816,2.932,2.932,0,0,1,.78,2.112,3.471,3.471,0,0,1-.367,1.582,2.666,2.666,0,0,1-1.008,1.119,2.757,2.757,0,0,1-1.456.389,2.843,2.843,0,0,1-2.263-1.021,5.152,5.152,0,0,1-.876-3.364,6.033,6.033,0,0,1,.969-3.812,2.782,2.782,0,0,1,2.275-1.035,2.421,2.421,0,0,1,2.565,2.25Zm-4.533,3.9a2.561,2.561,0,0,0,.244,1.1,1.811,1.811,0,0,0,.682.8,1.7,1.7,0,0,0,.919.274,1.564,1.564,0,0,0,1.208-.567,2.232,2.232,0,0,0,.506-1.541,2.092,2.092,0,0,0-.5-1.478,1.643,1.643,0,0,0-1.259-.539,1.714,1.714,0,0,0-1.276.539A1.946,1.946,0,0,0,269.176,381.24Z" transform="translate(-14.875 -16.44)"/><path class="cls-1" d="M296.7,384.17h-1.109V377.1a5.757,5.757,0,0,1-1.052.765,7.388,7.388,0,0,1-1.169.573v-1.073A6.635,6.635,0,0,0,295,376.3a4.168,4.168,0,0,0,.987-1.208h.715Z" transform="translate(-14.875 -16.44)"/><path class="cls-1" d="M301.25,379.268a2.087,2.087,0,0,1-1.023-.722,1.882,1.882,0,0,1-.333-1.122,2.2,2.2,0,0,1,.709-1.659,2.986,2.986,0,0,1,3.793.016,2.226,2.226,0,0,1,.721,1.674,1.845,1.845,0,0,1-.329,1.095,2.088,2.088,0,0,1-1,.719,2.3,2.3,0,0,1,1.7,2.318,2.6,2.6,0,0,1-.82,1.949,3.34,3.34,0,0,1-4.316,0,2.633,2.633,0,0,1-.82-1.976,2.392,2.392,0,0,1,.447-1.478A2.238,2.238,0,0,1,301.25,379.268Zm-.58,2.294a2.005,2.005,0,0,0,.226.919,1.584,1.584,0,0,0,.669.688,1.958,1.958,0,0,0,.956.243,1.79,1.79,0,0,0,1.313-.512,1.748,1.748,0,0,0,.518-1.3,1.781,1.781,0,0,0-.533-1.326,1.827,1.827,0,0,0-1.335-.524,1.768,1.768,0,0,0-1.813,1.813Zm.358-4.175a1.407,1.407,0,0,0,.413,1.048,1.463,1.463,0,0,0,1.073.407,1.434,1.434,0,0,0,1.051-.4,1.333,1.333,0,0,0,.41-.989,1.388,1.388,0,0,0-.422-1.027,1.553,1.553,0,0,0-2.106-.009A1.311,1.311,0,0,0,301.028,377.387Z" transform="translate(-14.875 -16.44)"/><path class="cls-1" d="M329.944,383.1v1.066h-5.976a1.945,1.945,0,0,1,.129-.771,4.082,4.082,0,0,1,.73-1.2,11.529,11.529,0,0,1,1.453-1.369,12.279,12.279,0,0,0,1.991-1.914,2.292,2.292,0,0,0,.519-1.336,1.482,1.482,0,0,0-.472-1.112,1.7,1.7,0,0,0-1.23-.454,1.738,1.738,0,0,0-1.283.481,1.824,1.824,0,0,0-.487,1.332l-1.141-.117a2.809,2.809,0,0,1,.882-1.945,3.007,3.007,0,0,1,2.054-.669,2.868,2.868,0,0,1,2.06.721,2.369,2.369,0,0,1,.759,1.789,2.722,2.722,0,0,1-.222,1.066,4.169,4.169,0,0,1-.737,1.1,18.263,18.263,0,0,1-1.711,1.591q-1,.838-1.283,1.138a3.635,3.635,0,0,0-.469.6Z" transform="translate(-14.875 -16.44)"/><path class="cls-1" d="M331.135,379.711a8.246,8.246,0,0,1,.33-2.58,3.2,3.2,0,0,1,.98-1.508,2.506,2.506,0,0,1,1.637-.53,2.668,2.668,0,0,1,1.276.293,2.444,2.444,0,0,1,.907.845,4.526,4.526,0,0,1,.561,1.344,8.927,8.927,0,0,1,.2,2.137,8.3,8.3,0,0,1-.327,2.569,3.211,3.211,0,0,1-.978,1.511,2.752,2.752,0,0,1-3.7-.4A5.961,5.961,0,0,1,331.135,379.711Zm1.141,0a5.667,5.667,0,0,0,.521,2.964,1.489,1.489,0,0,0,2.571,0,8.693,8.693,0,0,0,0-5.926,1.548,1.548,0,0,0-1.3-.734,1.425,1.425,0,0,0-1.222.648A5.737,5.737,0,0,0,332.275,379.711Z" transform="translate(-14.875 -16.44)"/><path class="cls-1" d="M361.537,383.1v1.066h-5.976a1.945,1.945,0,0,1,.129-.771,4.082,4.082,0,0,1,.73-1.2,11.529,11.529,0,0,1,1.453-1.369,12.279,12.279,0,0,0,1.991-1.914,2.292,2.292,0,0,0,.519-1.336,1.482,1.482,0,0,0-.472-1.112,1.7,1.7,0,0,0-1.23-.454,1.738,1.738,0,0,0-1.283.481,1.824,1.824,0,0,0-.487,1.332l-1.141-.117a2.809,2.809,0,0,1,.882-1.945,3.007,3.007,0,0,1,2.054-.669,2.868,2.868,0,0,1,2.06.721,2.369,2.369,0,0,1,.759,1.789,2.722,2.722,0,0,1-.222,1.066,4.169,4.169,0,0,1-.737,1.1,18.263,18.263,0,0,1-1.711,1.591q-1,.838-1.283,1.138a3.635,3.635,0,0,0-.469.6Z" transform="translate(-14.875 -16.44)"/><path class="cls-1" d="M368.562,383.1v1.066h-5.976a1.945,1.945,0,0,1,.129-.771,4.082,4.082,0,0,1,.73-1.2,11.529,11.529,0,0,1,1.453-1.369,12.279,12.279,0,0,0,1.991-1.914,2.292,2.292,0,0,0,.519-1.336,1.482,1.482,0,0,0-.472-1.112,1.7,1.7,0,0,0-1.23-.454,1.738,1.738,0,0,0-1.283.481,1.824,1.824,0,0,0-.487,1.332l-1.141-.117a2.809,2.809,0,0,1,.882-1.945,3.007,3.007,0,0,1,2.054-.669,2.868,2.868,0,0,1,2.06.721,2.369,2.369,0,0,1,.759,1.789,2.722,2.722,0,0,1-.222,1.066,4.169,4.169,0,0,1-.737,1.1,18.263,18.263,0,0,1-1.711,1.591q-1,.838-1.283,1.138a3.635,3.635,0,0,0-.469.6Z" transform="translate(-14.875 -16.44)"/><path class="cls-1" d="M389.621,383.1v1.066h-5.976a1.945,1.945,0,0,1,.129-.771,4.082,4.082,0,0,1,.73-1.2,11.529,11.529,0,0,1,1.453-1.369,12.279,12.279,0,0,0,1.991-1.914,2.292,2.292,0,0,0,.519-1.336,1.482,1.482,0,0,0-.472-1.112,1.7,1.7,0,0,0-1.23-.454,1.738,1.738,0,0,0-1.283.481,1.824,1.824,0,0,0-.487,1.332l-1.141-.117a2.809,2.809,0,0,1,.882-1.945,3.007,3.007,0,0,1,2.054-.669,2.868,2.868,0,0,1,2.06.721,2.369,2.369,0,0,1,.759,1.789,2.722,2.722,0,0,1-.222,1.066,4.169,4.169,0,0,1-.737,1.1,18.263,18.263,0,0,1-1.711,1.591q-1,.838-1.283,1.138a3.635,3.635,0,0,0-.469.6Z" transform="translate(-14.875 -16.44)"/><path class="cls-1" d="M394.369,384.17V382h-3.922v-1.017l4.126-5.859h.906v5.859H396.7V382h-1.221v2.165Zm0-3.182v-4.077l-2.83,4.077Z" transform="translate(-14.875 -16.44)"/><path class="cls-1" d="M421.214,383.1v1.066h-5.976a1.945,1.945,0,0,1,.129-.771,4.082,4.082,0,0,1,.73-1.2,11.529,11.529,0,0,1,1.453-1.369,12.279,12.279,0,0,0,1.991-1.914,2.292,2.292,0,0,0,.519-1.336,1.482,1.482,0,0,0-.472-1.112,1.7,1.7,0,0,0-1.23-.454,1.738,1.738,0,0,0-1.283.481,1.824,1.824,0,0,0-.487,1.332l-1.141-.117a2.809,2.809,0,0,1,.882-1.945,3.007,3.007,0,0,1,2.054-.669,2.868,2.868,0,0,1,2.06.721,2.369,2.369,0,0,1,.759,1.789,2.722,2.722,0,0,1-.222,1.066,4.169,4.169,0,0,1-.737,1.1,18.263,18.263,0,0,1-1.711,1.591q-1,.838-1.283,1.138a3.635,3.635,0,0,0-.469.6Z" transform="translate(-14.875 -16.44)"/><path class="cls-1" d="M428.164,377.343l-1.1.087a2.1,2.1,0,0,0-.419-.95,1.469,1.469,0,0,0-1.11-.475,1.523,1.523,0,0,0-.931.3,2.526,2.526,0,0,0-.826,1.116,5.811,5.811,0,0,0-.314,2.091,2.563,2.563,0,0,1,.98-.906,2.634,2.634,0,0,1,1.215-.3,2.518,2.518,0,0,1,1.89.816,2.932,2.932,0,0,1,.78,2.112,3.471,3.471,0,0,1-.367,1.582,2.666,2.666,0,0,1-1.008,1.119,2.757,2.757,0,0,1-1.456.389,2.843,2.843,0,0,1-2.263-1.021,5.152,5.152,0,0,1-.876-3.364,6.033,6.033,0,0,1,.969-3.812,2.782,2.782,0,0,1,2.275-1.035,2.421,2.421,0,0,1,2.565,2.25Zm-4.533,3.9a2.561,2.561,0,0,0,.244,1.1,1.811,1.811,0,0,0,.682.8,1.7,1.7,0,0,0,.919.274,1.564,1.564,0,0,0,1.208-.567,2.232,2.232,0,0,0,.506-1.541,2.092,2.092,0,0,0-.5-1.478,1.643,1.643,0,0,0-1.259-.539,1.714,1.714,0,0,0-1.276.539A1.946,1.946,0,0,0,423.631,381.24Z" transform="translate(-14.875 -16.44)"/><path class="cls-1" d="M59.8,281.65" transform="translate(-14.875 -16.44)"/><line class="cls-3" x1="44.929" y1="346.422" x2="44.929" y2="41.358"/><line class="cls-3" x1="61.575" y1="352.736" x2="61.575" y2="346.712"/><line class="cls-3" x1="91.536" y1="352.736" x2="91.536" y2="346.712"/><line class="cls-3" x1="121.268" y1="352.736" x2="121.268" y2="346.712"/><line class="cls-3" x1="150.395" y1="352.736" x2="150.395" y2="346.712"/><line class="cls-3" x1="179.896" y1="352.736" x2="179.896" y2="346.712"/><line class="cls-3" x1="209.857" y1="352.736" x2="209.857" y2="346.712"/><line class="cls-3" x1="240.641" y1="352.736" x2="240.641" y2="346.712"/><line class="cls-3" x1="270.82" y1="352.736" x2="270.82" y2="346.712"/><line class="cls-3" x1="300.166" y1="352.736" x2="300.166" y2="346.712"/><line class="cls-3" x1="331.18" y1="352.736" x2="331.18" y2="346.712"/><line class="cls-3" x1="360.911" y1="352.736" x2="360.911" y2="346.712"/><line class="cls-3" x1="390.864" y1="352.736" x2="390.864" y2="346.712"/><line class="cls-3" x1="422.93" y1="352.736" x2="422.93" y2="346.712"/></g><g id="Layer_2" data-name="Layer 2"><path class="cls-4" d="M59.8,285.474s255.655-22.613,392.451-196.2v273.9L59.8,362.862Z" transform="translate(-14.875 -16.44)"/></g><g id="Layer_3" data-name="Layer 3"><path class="cls-5" d="M59.8,285.474S336.268,259.546,452.255,160.8v202.06L59.8,363.178Z" transform="translate(-14.875 -16.44)"/><rect class="cls-6" x="68.382" y="81.441" width="239.643" height="42.583"/><rect class="cls-5" x="185.624" y="93.312" width="19.933" height="19.933"/><rect class="cls-7" x="77.676" y="93.312" width="19.933" height="19.933"/><path class="cls-1" d="M118.632,123.978l-1.9-7.16h.972l1.089,4.693q.176.738.3,1.465.273-1.148.322-1.323l1.363-4.835h1.143l1.026,3.624a19.151,19.151,0,0,1,.557,2.535q.137-.678.356-1.558l1.124-4.6h.953l-1.963,7.16h-.914l-1.509-5.456q-.19-.684-.225-.84-.113.494-.21.84l-1.519,5.456Z" transform="translate(-14.875 -16.44)"/><path class="cls-1" d="M126.715,117.829v-1.011h.879v1.011Zm0,6.149v-5.187h.879v5.187Z" transform="translate(-14.875 -16.44)"/><path class="cls-1" d="M130.853,123.192l.127.776a3.254,3.254,0,0,1-.665.078,1.5,1.5,0,0,1-.742-.151.846.846,0,0,1-.371-.4,3.147,3.147,0,0,1-.107-1.038v-2.984h-.645v-.684h.645v-1.285l.874-.527v1.812h.884v.684h-.884v3.033a1.534,1.534,0,0,0,.046.483.364.364,0,0,0,.151.171.583.583,0,0,0,.3.064A2.922,2.922,0,0,0,130.853,123.192Z" transform="translate(-14.875 -16.44)"/><path class="cls-1" d="M131.712,123.978v-7.16h.879v2.569a1.965,1.965,0,0,1,1.553-.713,2.1,2.1,0,0,1,1,.227,1.335,1.335,0,0,1,.608.627,2.9,2.9,0,0,1,.183,1.163v3.287h-.879v-3.287a1.359,1.359,0,0,0-.286-.96,1.062,1.062,0,0,0-.808-.3,1.429,1.429,0,0,0-.735.2,1.145,1.145,0,0,0-.491.55,2.523,2.523,0,0,0-.146.957v2.838Z" transform="translate(-14.875 -16.44)"/><path class="cls-1" d="M140.216,123.978v-7.16h4.831v.845h-3.883v2.217h3.36v.845h-3.36v3.253Z" transform="translate(-14.875 -16.44)"/><path class="cls-1" d="M145.837,121.384a2.673,2.673,0,0,1,.8-2.134,2.413,2.413,0,0,1,1.631-.576,2.327,2.327,0,0,1,1.749.7,2.666,2.666,0,0,1,.679,1.937,3.432,3.432,0,0,1-.3,1.575,2.126,2.126,0,0,1-.875.892,2.545,2.545,0,0,1-1.252.317,2.332,2.332,0,0,1-1.761-.7A2.791,2.791,0,0,1,145.837,121.384Zm.9,0a2.207,2.207,0,0,0,.435,1.492,1.447,1.447,0,0,0,2.183,0,2.26,2.26,0,0,0,.435-1.519,2.144,2.144,0,0,0-.437-1.458,1.45,1.45,0,0,0-2.181,0A2.2,2.2,0,0,0,146.741,121.384Z" transform="translate(-14.875 -16.44)"/><path class="cls-1" d="M155.127,123.978v-.762a1.9,1.9,0,0,1-1.646.879,2.1,2.1,0,0,1-.857-.176,1.41,1.41,0,0,1-.591-.442,1.657,1.657,0,0,1-.271-.652,4.475,4.475,0,0,1-.054-.82v-3.214h.879v2.877a5.142,5.142,0,0,0,.054.928.914.914,0,0,0,.352.544,1.087,1.087,0,0,0,.665.2,1.446,1.446,0,0,0,.742-.2,1.124,1.124,0,0,0,.491-.552,2.765,2.765,0,0,0,.144-1.013v-2.779h.879v5.187Z" transform="translate(-14.875 -16.44)"/><path class="cls-1" d="M157.291,123.978v-5.187h.792v.737a1.864,1.864,0,0,1,1.651-.854,2.164,2.164,0,0,1,.862.168,1.358,1.358,0,0,1,.589.442,1.707,1.707,0,0,1,.273.649,5.022,5.022,0,0,1,.049.855v3.189h-.879v-3.155a2.368,2.368,0,0,0-.1-.8.844.844,0,0,0-.364-.425,1.16,1.16,0,0,0-.613-.159,1.427,1.427,0,0,0-.97.356,1.759,1.759,0,0,0-.408,1.353v2.833Z" transform="translate(-14.875 -16.44)"/><path class="cls-1" d="M166.219,123.978v-.654a1.613,1.613,0,0,1-1.45.771,2.033,2.033,0,0,1-1.141-.342,2.254,2.254,0,0,1-.806-.955,3.3,3.3,0,0,1-.286-1.409,3.69,3.69,0,0,1,.259-1.409,2.043,2.043,0,0,1,.777-.97,2.077,2.077,0,0,1,1.158-.337,1.729,1.729,0,0,1,1.431.713v-2.569h.875v7.16Zm-2.779-2.589a2.25,2.25,0,0,0,.42,1.49,1.266,1.266,0,0,0,.992.494,1.243,1.243,0,0,0,.979-.472,2.173,2.173,0,0,0,.4-1.438,2.441,2.441,0,0,0-.411-1.563,1.262,1.262,0,0,0-1.011-.5,1.219,1.219,0,0,0-.979.479A2.363,2.363,0,0,0,163.44,121.389Z" transform="translate(-14.875 -16.44)"/><path class="cls-1" d="M171.8,123.338a3.278,3.278,0,0,1-.94.586,2.722,2.722,0,0,1-.97.171,1.884,1.884,0,0,1-1.313-.417,1.379,1.379,0,0,1-.459-1.067,1.446,1.446,0,0,1,.628-1.2,2.142,2.142,0,0,1,.632-.288,6.343,6.343,0,0,1,.781-.132,8.017,8.017,0,0,0,1.568-.3c0-.121,0-.2,0-.229a.971.971,0,0,0-.249-.757,1.472,1.472,0,0,0-1-.3,1.557,1.557,0,0,0-.916.217,1.329,1.329,0,0,0-.437.77l-.86-.117a2.13,2.13,0,0,1,.386-.892,1.689,1.689,0,0,1,.776-.522,3.466,3.466,0,0,1,1.177-.183,3.1,3.1,0,0,1,1.079.156,1.424,1.424,0,0,1,.611.393,1.391,1.391,0,0,1,.273.6,4.957,4.957,0,0,1,.044.811V121.8a12.414,12.414,0,0,0,.056,1.551,1.959,1.959,0,0,0,.222.623h-.918A1.855,1.855,0,0,1,171.8,123.338Zm-.074-1.964a6.439,6.439,0,0,1-1.436.333,3.287,3.287,0,0,0-.767.176.76.76,0,0,0-.347.286.778.778,0,0,0,.144,1,1.145,1.145,0,0,0,.779.234,1.815,1.815,0,0,0,.9-.222,1.369,1.369,0,0,0,.581-.608,2.119,2.119,0,0,0,.142-.879Z" transform="translate(-14.875 -16.44)"/><path class="cls-1" d="M175.9,123.192l.127.776a3.254,3.254,0,0,1-.665.078,1.5,1.5,0,0,1-.742-.151.846.846,0,0,1-.371-.4,3.147,3.147,0,0,1-.107-1.038v-2.984H173.5v-.684h.645v-1.285l.874-.527v1.812h.884v.684h-.884v3.033a1.534,1.534,0,0,0,.046.483.364.364,0,0,0,.151.171.583.583,0,0,0,.3.064A2.922,2.922,0,0,0,175.9,123.192Z" transform="translate(-14.875 -16.44)"/><path class="cls-1" d="M176.764,117.829v-1.011h.879v1.011Zm0,6.149v-5.187h.879v5.187Z" transform="translate(-14.875 -16.44)"/><path class="cls-1" d="M178.654,121.384a2.673,2.673,0,0,1,.8-2.134,2.413,2.413,0,0,1,1.631-.576,2.327,2.327,0,0,1,1.749.7,2.666,2.666,0,0,1,.679,1.937,3.432,3.432,0,0,1-.3,1.575,2.126,2.126,0,0,1-.875.892,2.545,2.545,0,0,1-1.252.317,2.332,2.332,0,0,1-1.761-.7A2.791,2.791,0,0,1,178.654,121.384Zm.9,0a2.207,2.207,0,0,0,.435,1.492,1.447,1.447,0,0,0,2.183,0,2.26,2.26,0,0,0,.435-1.519,2.144,2.144,0,0,0-.437-1.458,1.45,1.45,0,0,0-2.181,0A2.2,2.2,0,0,0,179.558,121.384Z" transform="translate(-14.875 -16.44)"/><path class="cls-1" d="M184.544,123.978v-5.187h.792v.737a1.864,1.864,0,0,1,1.651-.854,2.164,2.164,0,0,1,.862.168,1.358,1.358,0,0,1,.589.442,1.707,1.707,0,0,1,.273.649,5.022,5.022,0,0,1,.049.855v3.189h-.879v-3.155a2.368,2.368,0,0,0-.1-.8.844.844,0,0,0-.364-.425,1.16,1.16,0,0,0-.613-.159,1.427,1.427,0,0,0-.97.356,1.759,1.759,0,0,0-.408,1.353v2.833Z" transform="translate(-14.875 -16.44)"/><path class="cls-1" d="M227.309,123.942l-1.9-7.16h.972l1.089,4.693q.176.738.3,1.465.273-1.148.322-1.323l1.363-4.835H230.6l1.026,3.624a19.151,19.151,0,0,1,.557,2.535q.137-.678.356-1.558l1.124-4.6h.953l-1.963,7.16h-.914l-1.509-5.456q-.19-.684-.225-.84-.113.494-.21.84l-1.519,5.456Z" transform="translate(-14.875 -16.44)"/><path class="cls-1" d="M235.392,117.792v-1.011h.879v1.011Zm0,6.149v-5.187h.879v5.187Z" transform="translate(-14.875 -16.44)"/><path class="cls-1" d="M239.529,123.156l.127.776a3.254,3.254,0,0,1-.664.078,1.5,1.5,0,0,1-.743-.151.839.839,0,0,1-.37-.4,3.133,3.133,0,0,1-.107-1.038v-2.984h-.646v-.684h.646V117.47l.874-.527v1.812h.884v.684h-.884v3.033a1.524,1.524,0,0,0,.046.483.364.364,0,0,0,.151.171.584.584,0,0,0,.3.064A2.923,2.923,0,0,0,239.529,123.156Z" transform="translate(-14.875 -16.44)"/><path class="cls-1" d="M240.389,123.942v-7.16h.879v2.569a1.967,1.967,0,0,1,1.554-.713,2.1,2.1,0,0,1,1,.227,1.336,1.336,0,0,1,.608.627,2.894,2.894,0,0,1,.184,1.163v3.287h-.88v-3.287a1.359,1.359,0,0,0-.285-.96,1.063,1.063,0,0,0-.809-.3,1.429,1.429,0,0,0-.735.2,1.144,1.144,0,0,0-.49.55,2.5,2.5,0,0,0-.147.957v2.838Z" transform="translate(-14.875 -16.44)"/><path class="cls-1" d="M245.625,121.348a2.673,2.673,0,0,1,.8-2.134,2.415,2.415,0,0,1,1.632-.576,2.325,2.325,0,0,1,1.748.7,2.665,2.665,0,0,1,.68,1.937,3.431,3.431,0,0,1-.3,1.575,2.125,2.125,0,0,1-.874.892,2.55,2.55,0,0,1-1.253.317,2.331,2.331,0,0,1-1.761-.7A2.789,2.789,0,0,1,245.625,121.348Zm.9,0a2.207,2.207,0,0,0,.436,1.492,1.446,1.446,0,0,0,2.183,0,2.26,2.26,0,0,0,.435-1.519,2.146,2.146,0,0,0-.437-1.458,1.45,1.45,0,0,0-2.181,0A2.2,2.2,0,0,0,246.528,121.348Z" transform="translate(-14.875 -16.44)"/><path class="cls-1" d="M254.915,123.942v-.762a1.9,1.9,0,0,1-1.646.879,2.1,2.1,0,0,1-.857-.176,1.407,1.407,0,0,1-.591-.442,1.665,1.665,0,0,1-.271-.652,4.431,4.431,0,0,1-.054-.82v-3.214h.879v2.877a5.19,5.19,0,0,0,.054.928.916.916,0,0,0,.353.544,1.086,1.086,0,0,0,.664.2,1.446,1.446,0,0,0,.742-.2,1.127,1.127,0,0,0,.491-.552,2.777,2.777,0,0,0,.144-1.013v-2.779h.88v5.187Z" transform="translate(-14.875 -16.44)"/><path class="cls-1" d="M259,123.156l.127.776a3.254,3.254,0,0,1-.664.078,1.5,1.5,0,0,1-.743-.151.851.851,0,0,1-.371-.4,3.16,3.16,0,0,1-.107-1.038v-2.984H256.6v-.684h.645V117.47l.875-.527v1.812H259v.684h-.884v3.033a1.524,1.524,0,0,0,.046.483.364.364,0,0,0,.151.171.584.584,0,0,0,.3.064A2.923,2.923,0,0,0,259,123.156Z" transform="translate(-14.875 -16.44)"/><path class="cls-1" d="M262.8,123.942v-7.16h4.831v.845h-3.883v2.217h3.36v.845h-3.36v3.253Z" transform="translate(-14.875 -16.44)"/><path class="cls-1" d="M268.421,121.348a2.673,2.673,0,0,1,.8-2.134,2.415,2.415,0,0,1,1.632-.576,2.325,2.325,0,0,1,1.748.7,2.665,2.665,0,0,1,.68,1.937,3.431,3.431,0,0,1-.3,1.575,2.125,2.125,0,0,1-.874.892,2.55,2.55,0,0,1-1.253.317,2.331,2.331,0,0,1-1.761-.7A2.789,2.789,0,0,1,268.421,121.348Zm.9,0a2.207,2.207,0,0,0,.436,1.492,1.446,1.446,0,0,0,2.183,0,2.26,2.26,0,0,0,.435-1.519,2.146,2.146,0,0,0-.437-1.458,1.45,1.45,0,0,0-2.181,0A2.2,2.2,0,0,0,269.324,121.348Z" transform="translate(-14.875 -16.44)"/><path class="cls-1" d="M277.711,123.942v-.762a1.9,1.9,0,0,1-1.646.879,2.1,2.1,0,0,1-.857-.176,1.407,1.407,0,0,1-.591-.442,1.665,1.665,0,0,1-.271-.652,4.431,4.431,0,0,1-.054-.82v-3.214h.879v2.877a5.19,5.19,0,0,0,.054.928.916.916,0,0,0,.353.544,1.086,1.086,0,0,0,.664.2,1.446,1.446,0,0,0,.742-.2,1.127,1.127,0,0,0,.491-.552,2.777,2.777,0,0,0,.144-1.013v-2.779h.88v5.187Z" transform="translate(-14.875 -16.44)"/><path class="cls-1" d="M279.875,123.942v-5.187h.791v.737a1.866,1.866,0,0,1,1.651-.854,2.17,2.17,0,0,1,.862.168,1.355,1.355,0,0,1,.588.442,1.684,1.684,0,0,1,.273.649,4.942,4.942,0,0,1,.05.855v3.189h-.88v-3.155a2.368,2.368,0,0,0-.1-.8.846.846,0,0,0-.363-.425,1.163,1.163,0,0,0-.613-.159,1.425,1.425,0,0,0-.97.356,1.761,1.761,0,0,0-.408,1.353v2.833Z" transform="translate(-14.875 -16.44)"/><path class="cls-1" d="M288.8,123.942v-.654a1.614,1.614,0,0,1-1.45.771,2.032,2.032,0,0,1-1.141-.342,2.249,2.249,0,0,1-.806-.955,3.3,3.3,0,0,1-.286-1.409,3.68,3.68,0,0,1,.259-1.409,2.045,2.045,0,0,1,.776-.97,2.08,2.08,0,0,1,1.158-.337,1.729,1.729,0,0,1,.835.2,1.751,1.751,0,0,1,.6.515v-2.569h.874v7.16Zm-2.779-2.589a2.25,2.25,0,0,0,.421,1.49,1.265,1.265,0,0,0,.991.494,1.244,1.244,0,0,0,.979-.472,2.173,2.173,0,0,0,.4-1.438,2.441,2.441,0,0,0-.41-1.563,1.262,1.262,0,0,0-1.011-.5,1.219,1.219,0,0,0-.979.479A2.365,2.365,0,0,0,286.024,121.353Z" transform="translate(-14.875 -16.44)"/><path class="cls-1" d="M294.387,123.3a3.265,3.265,0,0,1-.94.586,2.717,2.717,0,0,1-.969.171,1.888,1.888,0,0,1-1.314-.417,1.38,1.38,0,0,1-.459-1.067,1.412,1.412,0,0,1,.174-.7,1.43,1.43,0,0,1,.454-.506,2.139,2.139,0,0,1,.633-.288,6.309,6.309,0,0,1,.781-.132,8.011,8.011,0,0,0,1.567-.3c0-.121,0-.2,0-.229a.971.971,0,0,0-.249-.757,1.473,1.473,0,0,0-1-.3,1.556,1.556,0,0,0-.916.217,1.329,1.329,0,0,0-.437.77l-.859-.117a2.136,2.136,0,0,1,.386-.892,1.7,1.7,0,0,1,.777-.522,3.459,3.459,0,0,1,1.177-.183,3.107,3.107,0,0,1,1.079.156,1.416,1.416,0,0,1,.61.393,1.374,1.374,0,0,1,.273.6,4.815,4.815,0,0,1,.045.811v1.172a12.557,12.557,0,0,0,.056,1.551,1.936,1.936,0,0,0,.223.623h-.919A1.877,1.877,0,0,1,294.387,123.3Zm-.073-1.964a6.453,6.453,0,0,1-1.436.333,3.282,3.282,0,0,0-.767.176.765.765,0,0,0-.348.286.777.777,0,0,0,.145,1,1.147,1.147,0,0,0,.779.234,1.816,1.816,0,0,0,.9-.222,1.372,1.372,0,0,0,.581-.608,2.119,2.119,0,0,0,.142-.879Z" transform="translate(-14.875 -16.44)"/><path class="cls-1" d="M298.485,123.156l.127.776a3.254,3.254,0,0,1-.664.078,1.5,1.5,0,0,1-.743-.151.851.851,0,0,1-.371-.4,3.16,3.16,0,0,1-.107-1.038v-2.984h-.645v-.684h.645V117.47l.875-.527v1.812h.884v.684H297.6v3.033a1.524,1.524,0,0,0,.046.483.364.364,0,0,0,.151.171.584.584,0,0,0,.3.064A2.923,2.923,0,0,0,298.485,123.156Z" transform="translate(-14.875 -16.44)"/><path class="cls-1" d="M299.35,117.792v-1.011h.879v1.011Zm0,6.149v-5.187h.879v5.187Z" transform="translate(-14.875 -16.44)"/><path class="cls-1" d="M301.24,121.348a2.673,2.673,0,0,1,.8-2.134,2.415,2.415,0,0,1,1.632-.576,2.325,2.325,0,0,1,1.748.7,2.665,2.665,0,0,1,.68,1.937,3.431,3.431,0,0,1-.3,1.575,2.125,2.125,0,0,1-.874.892,2.55,2.55,0,0,1-1.253.317,2.331,2.331,0,0,1-1.761-.7A2.789,2.789,0,0,1,301.24,121.348Zm.9,0a2.207,2.207,0,0,0,.436,1.492,1.446,1.446,0,0,0,2.183,0,2.26,2.26,0,0,0,.435-1.519,2.146,2.146,0,0,0-.437-1.458,1.45,1.45,0,0,0-2.181,0A2.2,2.2,0,0,0,302.144,121.348Z" transform="translate(-14.875 -16.44)"/><path class="cls-1" d="M307.131,123.942v-5.187h.791v.737a1.866,1.866,0,0,1,1.651-.854,2.17,2.17,0,0,1,.862.168,1.355,1.355,0,0,1,.588.442,1.684,1.684,0,0,1,.273.649,4.942,4.942,0,0,1,.05.855v3.189h-.88v-3.155a2.368,2.368,0,0,0-.1-.8.846.846,0,0,0-.363-.425,1.163,1.163,0,0,0-.613-.159,1.425,1.425,0,0,0-.97.356,1.761,1.761,0,0,0-.408,1.353v2.833Z" transform="translate(-14.875 -16.44)"/></g></svg>