<svg id="Layer_1" data-name="Layer 1" xmlns="http://www.w3.org/2000/svg" viewBox="0 0 418.329 283.855"><defs><style>.cls-1,.cls-2,.cls-5,.cls-9{fill:none;}.cls-1{stroke:#000;}.cls-1,.cls-9{stroke-miterlimit:10;}.cls-2{stroke:#25408f;}.cls-3{fill:#25408f;}.cls-4{fill:#231f20;}.cls-5,.cls-7{stroke:#d2232a;}.cls-5,.cls-6,.cls-7,.cls-8{opacity:0.38;}.cls-6{fill:#b12229;}.cls-7{fill:#d2232a;}.cls-9{stroke:#24418f;}</style></defs><title>Defined_Benefit_Plans</title><rect class="cls-1" x="0.5" y="0.5" width="417.329" height="282.855"/><rect class="cls-2" x="11.684" y="54.448" width="180.212" height="29.177"/><rect class="cls-3" x="11.684" y="46.581" width="180.212" height="7.866"/><rect class="cls-2" x="11.684" y="46.581" width="180.212" height="7.866"/><path class="cls-4" d="M60.467,82.974v-8.19h2.821a6.849,6.849,0,0,1,1.458.117,2.775,2.775,0,0,1,1.2.587,3.333,3.333,0,0,1,.97,1.4,5.5,5.5,0,0,1,.321,1.947,5.712,5.712,0,0,1-.218,1.654,4.007,4.007,0,0,1-.559,1.193,2.962,2.962,0,0,1-.746.743,3.048,3.048,0,0,1-.978.411,5.572,5.572,0,0,1-1.315.14H60.467Zm1.084-.966H63.3a4.242,4.242,0,0,0,1.271-.151,1.82,1.82,0,0,0,.735-0.425,2.587,2.587,0,0,0,.6-1.036,5.081,5.081,0,0,0,.215-1.579,3.813,3.813,0,0,0-.422-1.975,2.121,2.121,0,0,0-1.025-.924,4.235,4.235,0,0,0-1.4-.168H61.551v6.258Z" transform="translate(-14.171 -10.362)"/><path class="cls-4" d="M72.664,81.063L73.7,81.191a2.537,2.537,0,0,1-.911,1.414,3.085,3.085,0,0,1-3.763-.3,3.134,3.134,0,0,1-.763-2.249,3.278,3.278,0,0,1,.771-2.324,2.611,2.611,0,0,1,2-.827,2.537,2.537,0,0,1,1.944.81A3.218,3.218,0,0,1,73.736,80c0,0.06,0,.149-0.006.269H69.306a2.28,2.28,0,0,0,.553,1.5,1.647,1.647,0,0,0,1.24.52,1.538,1.538,0,0,0,.944-0.291A1.928,1.928,0,0,0,72.664,81.063Zm-3.3-1.626h3.313a2.013,2.013,0,0,0-.38-1.123,1.542,1.542,0,0,0-1.246-.581,1.6,1.6,0,0,0-1.165.464A1.833,1.833,0,0,0,69.362,79.437Z" transform="translate(-14.171 -10.362)"/><path class="cls-4" d="M75.206,82.974V77.822H74.317V77.041h0.889V76.409a2.766,2.766,0,0,1,.106-0.889,1.282,1.282,0,0,1,.511-0.634,1.842,1.842,0,0,1,1.025-.243,4.937,4.937,0,0,1,.938.1l-0.151.877a3.388,3.388,0,0,0-.592-0.056,0.881,0.881,0,0,0-.648.2,1.059,1.059,0,0,0-.19.732v0.548h1.156v0.782H76.206v5.151h-1Z" transform="translate(-14.171 -10.362)"/><path class="cls-4" d="M78.15,75.939V74.783h1.006v1.156H78.15Zm0,7.034V77.041h1.006v5.933H78.15Z" transform="translate(-14.171 -10.362)"/><path class="cls-4" d="M80.687,82.974V77.041h0.9v0.843a2.134,2.134,0,0,1,1.889-.978,2.478,2.478,0,0,1,.986.193,1.551,1.551,0,0,1,.673.505,1.943,1.943,0,0,1,.313.743,5.781,5.781,0,0,1,.056.978v3.648H84.5V79.364a2.71,2.71,0,0,0-.118-0.919,0.967,0.967,0,0,0-.416-0.486,1.324,1.324,0,0,0-.7-0.182,1.628,1.628,0,0,0-1.109.408,2.013,2.013,0,0,0-.467,1.548v3.24H80.687Z" transform="translate(-14.171 -10.362)"/><path class="cls-4" d="M91.111,81.063l1.039,0.128A2.537,2.537,0,0,1,91.24,82.6a3.085,3.085,0,0,1-3.763-.3,3.134,3.134,0,0,1-.763-2.249,3.278,3.278,0,0,1,.771-2.324,2.611,2.611,0,0,1,2-.827,2.537,2.537,0,0,1,1.944.81A3.218,3.218,0,0,1,92.184,80c0,0.06,0,.149-0.006.269H87.753a2.28,2.28,0,0,0,.553,1.5,1.647,1.647,0,0,0,1.24.52,1.538,1.538,0,0,0,.944-0.291A1.928,1.928,0,0,0,91.111,81.063Zm-3.3-1.626h3.313a2.013,2.013,0,0,0-.38-1.123,1.542,1.542,0,0,0-1.246-.581,1.6,1.6,0,0,0-1.165.464A1.833,1.833,0,0,0,87.81,79.437Z" transform="translate(-14.171 -10.362)"/><path class="cls-4" d="M97.263,82.974V82.225a1.845,1.845,0,0,1-1.659.883,2.327,2.327,0,0,1-1.3-.391,2.577,2.577,0,0,1-.922-1.092,3.777,3.777,0,0,1-.327-1.612,4.221,4.221,0,0,1,.3-1.612,2.339,2.339,0,0,1,.889-1.109,2.375,2.375,0,0,1,1.324-.385,1.978,1.978,0,0,1,.956.226,2,2,0,0,1,.682.589V74.783h1v8.19H97.263Zm-3.179-2.961a2.578,2.578,0,0,0,.48,1.7,1.449,1.449,0,0,0,1.134.564,1.424,1.424,0,0,0,1.121-.539A2.486,2.486,0,0,0,97.28,80.1a2.789,2.789,0,0,0-.47-1.788,1.443,1.443,0,0,0-1.156-.57,1.394,1.394,0,0,0-1.12.547A2.7,2.7,0,0,0,94.084,80.013Z" transform="translate(-14.171 -10.362)"/><path class="cls-4" d="M103.04,82.974v-8.19h3.073a3.807,3.807,0,0,1,1.506.249,1.936,1.936,0,0,1,.888.766,2.015,2.015,0,0,1,.321,1.081,1.856,1.856,0,0,1-.285.989,2.036,2.036,0,0,1-.86.749,2.143,2.143,0,0,1,1.143.743,1.991,1.991,0,0,1,.4,1.24,2.39,2.39,0,0,1-.243,1.07,2.073,2.073,0,0,1-.6.763,2.51,2.51,0,0,1-.9.405,5.451,5.451,0,0,1-1.321.137H103.04Zm1.084-4.749h1.771a3.948,3.948,0,0,0,1.034-.095,1.148,1.148,0,0,0,.623-0.408,1.174,1.174,0,0,0,.209-0.715,1.316,1.316,0,0,0-.2-0.718,0.987,0.987,0,0,0-.559-0.425,4.67,4.67,0,0,0-1.246-.115h-1.637v2.475Zm0,3.783h2.039a4.648,4.648,0,0,0,.738-0.04,1.765,1.765,0,0,0,.625-0.223,1.186,1.186,0,0,0,.414-0.456,1.426,1.426,0,0,0,.162-0.69,1.358,1.358,0,0,0-.235-0.8,1.237,1.237,0,0,0-.651-0.475,4.033,4.033,0,0,0-1.2-.137h-1.894v2.816Z" transform="translate(-14.171 -10.362)"/><path class="cls-4" d="M114.649,81.063l1.039,0.128a2.537,2.537,0,0,1-.911,1.414,3.085,3.085,0,0,1-3.763-.3,3.134,3.134,0,0,1-.763-2.249,3.278,3.278,0,0,1,.771-2.324,2.611,2.611,0,0,1,2-.827,2.537,2.537,0,0,1,1.944.81A3.218,3.218,0,0,1,115.722,80c0,0.06,0,.149-0.006.269h-4.425a2.28,2.28,0,0,0,.553,1.5,1.647,1.647,0,0,0,1.24.52,1.538,1.538,0,0,0,.944-0.291A1.928,1.928,0,0,0,114.649,81.063Zm-3.3-1.626h3.313a2.013,2.013,0,0,0-.38-1.123,1.542,1.542,0,0,0-1.246-.581,1.6,1.6,0,0,0-1.165.464A1.833,1.833,0,0,0,111.348,79.437Z" transform="translate(-14.171 -10.362)"/><path class="cls-4" d="M116.951,82.974V77.041h0.9v0.843a2.134,2.134,0,0,1,1.889-.978,2.478,2.478,0,0,1,.986.193,1.551,1.551,0,0,1,.673.505,1.943,1.943,0,0,1,.313.743,5.781,5.781,0,0,1,.056.978v3.648h-1.005V79.364a2.71,2.71,0,0,0-.118-0.919,0.967,0.967,0,0,0-.416-0.486,1.324,1.324,0,0,0-.7-0.182,1.628,1.628,0,0,0-1.109.408,2.013,2.013,0,0,0-.467,1.548v3.24h-1.005Z" transform="translate(-14.171 -10.362)"/><path class="cls-4" d="M127.376,81.063l1.039,0.128A2.537,2.537,0,0,1,127.5,82.6a3.085,3.085,0,0,1-3.763-.3,3.134,3.134,0,0,1-.763-2.249,3.278,3.278,0,0,1,.771-2.324,2.611,2.611,0,0,1,2-.827,2.537,2.537,0,0,1,1.944.81A3.218,3.218,0,0,1,128.449,80c0,0.06,0,.149-0.006.269h-4.425a2.28,2.28,0,0,0,.553,1.5,1.647,1.647,0,0,0,1.24.52,1.538,1.538,0,0,0,.944-0.291A1.928,1.928,0,0,0,127.376,81.063Zm-3.3-1.626h3.313a2.013,2.013,0,0,0-.38-1.123,1.542,1.542,0,0,0-1.246-.581,1.6,1.6,0,0,0-1.165.464A1.833,1.833,0,0,0,124.074,79.437Z" transform="translate(-14.171 -10.362)"/><path class="cls-4" d="M129.918,82.974V77.822H129.03V77.041h0.889V76.409a2.766,2.766,0,0,1,.106-0.889,1.282,1.282,0,0,1,.511-0.634,1.842,1.842,0,0,1,1.025-.243,4.937,4.937,0,0,1,.938.1l-0.151.877a3.388,3.388,0,0,0-.592-0.056,0.881,0.881,0,0,0-.648.2,1.059,1.059,0,0,0-.19.732v0.548h1.156v0.782h-1.156v5.151h-1Z" transform="translate(-14.171 -10.362)"/><path class="cls-4" d="M132.862,75.939V74.783h1.006v1.156h-1.006Zm0,7.034V77.041h1.006v5.933h-1.006Z" transform="translate(-14.171 -10.362)"/><path class="cls-4" d="M137.595,82.074l0.146,0.888a3.735,3.735,0,0,1-.76.089,1.715,1.715,0,0,1-.849-0.173,0.969,0.969,0,0,1-.425-0.455,3.6,3.6,0,0,1-.123-1.187V77.822h-0.737V77.041h0.737v-1.47l1-.6v2.073h1.011v0.782h-1.011v3.47a1.745,1.745,0,0,0,.053.553,0.417,0.417,0,0,0,.173.2,0.669,0.669,0,0,0,.343.073A3.3,3.3,0,0,0,137.595,82.074Z" transform="translate(-14.171 -10.362)"/><path class="cls-4" d="M141.886,82.974v-8.19h3.089a7.455,7.455,0,0,1,1.246.078,2.467,2.467,0,0,1,1.011.383,2,2,0,0,1,.656.791,2.667,2.667,0,0,1-.416,2.886,3.189,3.189,0,0,1-2.4.724h-2.1v3.33h-1.084Zm1.084-4.3h2.117a2.246,2.246,0,0,0,1.492-.391,1.393,1.393,0,0,0,.441-1.1,1.479,1.479,0,0,0-.26-0.88,1.214,1.214,0,0,0-.685-0.483,4.631,4.631,0,0,0-1.011-.073H142.97v2.928Z" transform="translate(-14.171 -10.362)"/><path class="cls-4" d="M149.366,82.974v-8.19h1.005v8.19h-1.005Z" transform="translate(-14.171 -10.362)"/><path class="cls-4" d="M155.8,82.242a3.738,3.738,0,0,1-1.076.67,3.1,3.1,0,0,1-1.109.2,2.155,2.155,0,0,1-1.5-.478,1.576,1.576,0,0,1-.525-1.221,1.621,1.621,0,0,1,.2-0.8,1.644,1.644,0,0,1,.52-0.579,2.459,2.459,0,0,1,.724-0.33,7.329,7.329,0,0,1,.894-0.151,9.163,9.163,0,0,0,1.793-.346c0-.138.006-0.225,0.006-0.263a1.11,1.11,0,0,0-.285-0.866,1.683,1.683,0,0,0-1.145-.341,1.779,1.779,0,0,0-1.048.249,1.519,1.519,0,0,0-.5.88l-0.983-.134a2.443,2.443,0,0,1,.441-1.02,1.935,1.935,0,0,1,.889-0.6,3.961,3.961,0,0,1,1.346-.209,3.568,3.568,0,0,1,1.235.179,1.627,1.627,0,0,1,.7.45,1.582,1.582,0,0,1,.313.685,5.7,5.7,0,0,1,.05.927v1.341a14.327,14.327,0,0,0,.064,1.774,2.242,2.242,0,0,0,.254.712H156A2.128,2.128,0,0,1,155.8,82.242ZM155.718,80a7.335,7.335,0,0,1-1.643.38,3.842,3.842,0,0,0-.877.2,0.873,0.873,0,0,0-.4.327,0.889,0.889,0,0,0,.165,1.148,1.311,1.311,0,0,0,.891.268,2.075,2.075,0,0,0,1.034-.254,1.565,1.565,0,0,0,.665-0.7,2.431,2.431,0,0,0,.162-1.005V80Z" transform="translate(-14.171 -10.362)"/><path class="cls-4" d="M158.294,82.974V77.041h0.9v0.843a2.134,2.134,0,0,1,1.889-.978,2.478,2.478,0,0,1,.986.193,1.551,1.551,0,0,1,.673.505,1.943,1.943,0,0,1,.313.743,5.781,5.781,0,0,1,.056.978v3.648H162.11V79.364a2.71,2.71,0,0,0-.118-0.919,0.967,0.967,0,0,0-.416-0.486,1.324,1.324,0,0,0-.7-0.182,1.628,1.628,0,0,0-1.109.408,2.013,2.013,0,0,0-.467,1.548v3.24h-1.005Z" transform="translate(-14.171 -10.362)"/><path class="cls-4" d="M164.255,81.2l0.995-.157a1.388,1.388,0,0,0,.466.917,1.625,1.625,0,0,0,1.07.318A1.568,1.568,0,0,0,167.814,82a0.843,0.843,0,0,0,.335-0.662,0.611,0.611,0,0,0-.3-0.536,4.363,4.363,0,0,0-1.028-.341,9.345,9.345,0,0,1-1.534-.483,1.463,1.463,0,0,1-.869-1.36,1.527,1.527,0,0,1,.182-0.734,1.622,1.622,0,0,1,.495-0.562,2.065,2.065,0,0,1,.64-0.293,3.041,3.041,0,0,1,.869-0.12,3.428,3.428,0,0,1,1.226.2,1.669,1.669,0,0,1,.78.544,2.135,2.135,0,0,1,.346.919l-0.983.134a1.074,1.074,0,0,0-.388-0.715,1.42,1.42,0,0,0-.908-0.257,1.649,1.649,0,0,0-.989.229,0.668,0.668,0,0,0-.3.537,0.555,0.555,0,0,0,.123.352,0.886,0.886,0,0,0,.385.268q0.151,0.056.889,0.257a12.368,12.368,0,0,1,1.489.467,1.51,1.51,0,0,1,.662.528,1.473,1.473,0,0,1,.24.86,1.691,1.691,0,0,1-.293.947,1.9,1.9,0,0,1-.846.687,3.082,3.082,0,0,1-1.251.243,2.787,2.787,0,0,1-1.763-.48A2.235,2.235,0,0,1,164.255,81.2Z" transform="translate(-14.171 -10.362)"/><rect class="cls-5" x="11.684" y="102.647" width="180.212" height="29.177"/><rect class="cls-6" x="11.684" y="94.781" width="180.212" height="7.866"/><rect class="cls-7" x="11.684" y="94.781" width="180.212" height="7.866"/><g class="cls-8"><path class="cls-4" d="M47.649,131.173v-8.19H50.47a6.849,6.849,0,0,1,1.458.117,2.775,2.775,0,0,1,1.2.587,3.333,3.333,0,0,1,.97,1.4,5.5,5.5,0,0,1,.321,1.947,5.712,5.712,0,0,1-.218,1.654,4.007,4.007,0,0,1-.559,1.193,2.962,2.962,0,0,1-.746.743,3.048,3.048,0,0,1-.978.411,5.572,5.572,0,0,1-1.315.14H47.649Zm1.084-.966h1.749a4.242,4.242,0,0,0,1.271-.151,1.82,1.82,0,0,0,.735-0.425,2.587,2.587,0,0,0,.6-1.036,5.081,5.081,0,0,0,.215-1.579,3.813,3.813,0,0,0-.422-1.975,2.121,2.121,0,0,0-1.025-.924,4.235,4.235,0,0,0-1.4-.168H48.733v6.258Z" transform="translate(-14.171 -10.362)"/><path class="cls-4" d="M59.845,129.262l1.039,0.128a2.537,2.537,0,0,1-.911,1.414,3.085,3.085,0,0,1-3.763-.3,3.134,3.134,0,0,1-.763-2.249,3.278,3.278,0,0,1,.771-2.324,2.611,2.611,0,0,1,2-.827,2.537,2.537,0,0,1,1.944.81,3.218,3.218,0,0,1,.754,2.279c0,0.06,0,.149-0.006.269H56.487a2.28,2.28,0,0,0,.553,1.5,1.647,1.647,0,0,0,1.24.52,1.538,1.538,0,0,0,.944-0.291A1.928,1.928,0,0,0,59.845,129.262Zm-3.3-1.626h3.313a2.013,2.013,0,0,0-.38-1.123,1.542,1.542,0,0,0-1.246-.581,1.6,1.6,0,0,0-1.165.464A1.833,1.833,0,0,0,56.543,127.636Z" transform="translate(-14.171 -10.362)"/><path class="cls-4" d="M62.387,131.173v-5.151H61.5V125.24h0.889v-0.631a2.766,2.766,0,0,1,.106-0.889A1.282,1.282,0,0,1,63,123.086a1.842,1.842,0,0,1,1.025-.243,4.937,4.937,0,0,1,.938.1l-0.151.877a3.388,3.388,0,0,0-.592-0.056,0.881,0.881,0,0,0-.648.2,1.059,1.059,0,0,0-.19.732v0.548h1.156v0.782H63.387v5.151h-1Z" transform="translate(-14.171 -10.362)"/><path class="cls-4" d="M65.332,124.139v-1.156h1.006v1.156H65.332Zm0,7.034V125.24h1.006v5.933H65.332Z" transform="translate(-14.171 -10.362)"/><path class="cls-4" d="M67.868,131.173V125.24h0.9v0.843a2.134,2.134,0,0,1,1.889-.978,2.478,2.478,0,0,1,.986.193,1.551,1.551,0,0,1,.673.505,1.943,1.943,0,0,1,.313.743,5.781,5.781,0,0,1,.056.978v3.648H71.684v-3.609a2.71,2.71,0,0,0-.118-0.919,0.967,0.967,0,0,0-.416-0.486,1.324,1.324,0,0,0-.7-0.182,1.628,1.628,0,0,0-1.109.408,2.013,2.013,0,0,0-.467,1.548v3.24H67.868Z" transform="translate(-14.171 -10.362)"/><path class="cls-4" d="M78.293,129.262l1.039,0.128a2.537,2.537,0,0,1-.911,1.414,3.085,3.085,0,0,1-3.763-.3,3.134,3.134,0,0,1-.763-2.249,3.278,3.278,0,0,1,.771-2.324,2.611,2.611,0,0,1,2-.827,2.537,2.537,0,0,1,1.944.81,3.218,3.218,0,0,1,.754,2.279c0,0.06,0,.149-0.006.269H74.935a2.28,2.28,0,0,0,.553,1.5,1.647,1.647,0,0,0,1.24.52,1.538,1.538,0,0,0,.944-0.291A1.928,1.928,0,0,0,78.293,129.262Zm-3.3-1.626H78.3a2.013,2.013,0,0,0-.38-1.123,1.542,1.542,0,0,0-1.246-.581,1.6,1.6,0,0,0-1.165.464A1.833,1.833,0,0,0,74.991,127.636Z" transform="translate(-14.171 -10.362)"/><path class="cls-4" d="M84.444,131.173v-0.749a1.845,1.845,0,0,1-1.659.883,2.327,2.327,0,0,1-1.3-.391,2.577,2.577,0,0,1-.922-1.092,3.777,3.777,0,0,1-.327-1.612,4.221,4.221,0,0,1,.3-1.612,2.339,2.339,0,0,1,.889-1.109,2.374,2.374,0,0,1,1.324-.385,1.978,1.978,0,0,1,.956.226,2,2,0,0,1,.682.589v-2.938h1v8.19H84.444Zm-3.179-2.961a2.578,2.578,0,0,0,.48,1.7,1.449,1.449,0,0,0,1.134.564A1.424,1.424,0,0,0,84,129.941a2.486,2.486,0,0,0,.461-1.646,2.789,2.789,0,0,0-.47-1.788,1.443,1.443,0,0,0-1.156-.57,1.394,1.394,0,0,0-1.12.547A2.7,2.7,0,0,0,81.266,128.212Z" transform="translate(-14.171 -10.362)"/><path class="cls-4" d="M96.11,128.3l1.084,0.273a3.647,3.647,0,0,1-1.227,2.037,3.38,3.38,0,0,1-2.165.7,3.891,3.891,0,0,1-2.154-.539,3.365,3.365,0,0,1-1.263-1.562,5.574,5.574,0,0,1-.433-2.2,4.829,4.829,0,0,1,.489-2.232,3.351,3.351,0,0,1,1.391-1.447,4.06,4.06,0,0,1,1.986-.495,3.36,3.36,0,0,1,2.067.625,3.251,3.251,0,0,1,1.167,1.76l-1.067.251a2.528,2.528,0,0,0-.827-1.3,2.2,2.2,0,0,0-1.363-.408,2.646,2.646,0,0,0-1.578.453,2.391,2.391,0,0,0-.891,1.215,4.891,4.891,0,0,0-.257,1.573,5,5,0,0,0,.3,1.824A2.266,2.266,0,0,0,92.322,130a2.652,2.652,0,0,0,1.391.386,2.333,2.333,0,0,0,1.542-.525A2.689,2.689,0,0,0,96.11,128.3Z" transform="translate(-14.171 -10.362)"/><path class="cls-4" d="M98.026,128.206a3.057,3.057,0,0,1,.917-2.441,2.76,2.76,0,0,1,1.866-.659,2.661,2.661,0,0,1,2,.8,3.049,3.049,0,0,1,.777,2.215,3.928,3.928,0,0,1-.344,1.8,2.434,2.434,0,0,1-1,1.02,2.911,2.911,0,0,1-1.433.363,2.667,2.667,0,0,1-2.014-.8A3.19,3.19,0,0,1,98.026,128.206Zm1.034,0a2.527,2.527,0,0,0,.5,1.707,1.656,1.656,0,0,0,2.5,0,2.586,2.586,0,0,0,.5-1.737,2.451,2.451,0,0,0-.5-1.668,1.658,1.658,0,0,0-2.495,0A2.516,2.516,0,0,0,99.06,128.206Z" transform="translate(-14.171 -10.362)"/><path class="cls-4" d="M104.764,131.173V125.24h0.9v0.843a2.134,2.134,0,0,1,1.889-.978,2.478,2.478,0,0,1,.986.193,1.551,1.551,0,0,1,.673.505,1.943,1.943,0,0,1,.313.743,5.781,5.781,0,0,1,.056.978v3.648H108.58v-3.609a2.71,2.71,0,0,0-.118-0.919,0.967,0.967,0,0,0-.416-0.486,1.324,1.324,0,0,0-.7-0.182,1.628,1.628,0,0,0-1.109.408,2.013,2.013,0,0,0-.467,1.548v3.24h-1.005Z" transform="translate(-14.171 -10.362)"/><path class="cls-4" d="M113.323,130.273l0.146,0.888a3.735,3.735,0,0,1-.76.089,1.715,1.715,0,0,1-.849-0.173,0.969,0.969,0,0,1-.425-0.455,3.6,3.6,0,0,1-.123-1.187v-3.414h-0.737V125.24h0.737v-1.47l1-.6v2.073h1.011v0.782h-1.011v3.47a1.745,1.745,0,0,0,.053.553,0.417,0.417,0,0,0,.173.2,0.669,0.669,0,0,0,.343.073A3.3,3.3,0,0,0,113.323,130.273Z" transform="translate(-14.171 -10.362)"/><path class="cls-4" d="M114.3,131.173V125.24h0.9v0.9a2.449,2.449,0,0,1,.64-0.833,1.113,1.113,0,0,1,.645-0.2,1.96,1.96,0,0,1,1.034.324l-0.347.933a1.439,1.439,0,0,0-.737-0.218,0.961,0.961,0,0,0-.592.2,1.075,1.075,0,0,0-.374.55,3.918,3.918,0,0,0-.168,1.173v3.106H114.3Z" transform="translate(-14.171 -10.362)"/><path class="cls-4" d="M118.122,124.139v-1.156h1.006v1.156h-1.006Zm0,7.034V125.24h1.006v5.933h-1.006Z" transform="translate(-14.171 -10.362)"/><path class="cls-4" d="M121.586,131.173h-0.933v-8.19h1.006V125.9a1.989,1.989,0,0,1,1.625-.8,2.494,2.494,0,0,1,1.037.221,2.119,2.119,0,0,1,.8.62,3,3,0,0,1,.494.964,3.973,3.973,0,0,1,.179,1.207,3.392,3.392,0,0,1-.754,2.358,2.361,2.361,0,0,1-1.811.833,1.889,1.889,0,0,1-1.648-.877v0.743Zm-0.011-3.011a3.078,3.078,0,0,0,.291,1.542,1.438,1.438,0,0,0,2.425.2,2.6,2.6,0,0,0,.48-1.707,2.648,2.648,0,0,0-.461-1.715,1.4,1.4,0,0,0-1.115-.553,1.446,1.446,0,0,0-1.14.573A2.515,2.515,0,0,0,121.575,128.162Z" transform="translate(-14.171 -10.362)"/><path class="cls-4" d="M130.911,131.173V130.3a2.172,2.172,0,0,1-1.883,1.006,2.4,2.4,0,0,1-.98-0.2,1.613,1.613,0,0,1-.676-0.506,1.888,1.888,0,0,1-.31-0.746,5.105,5.105,0,0,1-.062-0.939V125.24h1.005v3.291a5.861,5.861,0,0,0,.062,1.062,1.051,1.051,0,0,0,.4.623,1.246,1.246,0,0,0,.76.226,1.652,1.652,0,0,0,.849-0.232,1.286,1.286,0,0,0,.562-0.631,3.165,3.165,0,0,0,.165-1.159V125.24h1.005v5.933h-0.9Z" transform="translate(-14.171 -10.362)"/><path class="cls-4" d="M135.581,130.273l0.146,0.888a3.735,3.735,0,0,1-.76.089,1.715,1.715,0,0,1-.849-0.173,0.969,0.969,0,0,1-.425-0.455,3.6,3.6,0,0,1-.123-1.187v-3.414h-0.737V125.24h0.737v-1.47l1-.6v2.073h1.011v0.782H134.57v3.47a1.745,1.745,0,0,0,.053.553,0.417,0.417,0,0,0,.173.2,0.669,0.669,0,0,0,.343.073A3.3,3.3,0,0,0,135.581,130.273Z" transform="translate(-14.171 -10.362)"/><path class="cls-4" d="M136.57,124.139v-1.156h1.006v1.156H136.57Zm0,7.034V125.24h1.006v5.933H136.57Z" transform="translate(-14.171 -10.362)"/><path class="cls-4" d="M138.732,128.206a3.057,3.057,0,0,1,.917-2.441,2.76,2.76,0,0,1,1.866-.659,2.661,2.661,0,0,1,2,.8,3.049,3.049,0,0,1,.777,2.215,3.928,3.928,0,0,1-.344,1.8,2.434,2.434,0,0,1-1,1.02,2.911,2.911,0,0,1-1.433.363,2.667,2.667,0,0,1-2.014-.8A3.19,3.19,0,0,1,138.732,128.206Zm1.034,0a2.527,2.527,0,0,0,.5,1.707,1.656,1.656,0,0,0,2.5,0,2.586,2.586,0,0,0,.5-1.737,2.451,2.451,0,0,0-.5-1.668,1.658,1.658,0,0,0-2.495,0A2.516,2.516,0,0,0,139.766,128.206Z" transform="translate(-14.171 -10.362)"/><path class="cls-4" d="M145.47,131.173V125.24h0.9v0.843a2.134,2.134,0,0,1,1.889-.978,2.478,2.478,0,0,1,.986.193,1.551,1.551,0,0,1,.673.505,1.943,1.943,0,0,1,.313.743,5.781,5.781,0,0,1,.056.978v3.648h-1.005v-3.609a2.71,2.71,0,0,0-.118-0.919,0.967,0.967,0,0,0-.416-0.486,1.324,1.324,0,0,0-.7-0.182,1.628,1.628,0,0,0-1.109.408,2.013,2.013,0,0,0-.467,1.548v3.24H145.47Z" transform="translate(-14.171 -10.362)"/><path class="cls-4" d="M155.141,131.173v-8.19h3.089a7.455,7.455,0,0,1,1.246.078,2.467,2.467,0,0,1,1.011.383,2,2,0,0,1,.656.791,2.667,2.667,0,0,1-.416,2.886,3.189,3.189,0,0,1-2.4.724h-2.1v3.33h-1.084Zm1.084-4.3h2.117a2.246,2.246,0,0,0,1.492-.391,1.393,1.393,0,0,0,.441-1.1,1.479,1.479,0,0,0-.26-0.88,1.214,1.214,0,0,0-.685-0.483,4.631,4.631,0,0,0-1.011-.073h-2.095v2.928Z" transform="translate(-14.171 -10.362)"/><path class="cls-4" d="M162.622,131.173v-8.19h1.005v8.19h-1.005Z" transform="translate(-14.171 -10.362)"/><path class="cls-4" d="M169.058,130.441a3.738,3.738,0,0,1-1.076.67,3.1,3.1,0,0,1-1.109.2,2.155,2.155,0,0,1-1.5-.478,1.576,1.576,0,0,1-.525-1.221,1.621,1.621,0,0,1,.2-0.8,1.644,1.644,0,0,1,.52-0.579,2.459,2.459,0,0,1,.724-0.33,7.329,7.329,0,0,1,.894-0.151,9.163,9.163,0,0,0,1.793-.346c0-.138.006-0.225,0.006-0.263a1.11,1.11,0,0,0-.285-0.866,1.683,1.683,0,0,0-1.145-.341,1.779,1.779,0,0,0-1.048.249,1.519,1.519,0,0,0-.5.88l-0.983-.134a2.443,2.443,0,0,1,.441-1.02,1.935,1.935,0,0,1,.889-0.6,3.961,3.961,0,0,1,1.346-.209,3.568,3.568,0,0,1,1.235.179,1.627,1.627,0,0,1,.7.45,1.582,1.582,0,0,1,.313.685,5.7,5.7,0,0,1,.05.927v1.341a14.327,14.327,0,0,0,.064,1.774,2.242,2.242,0,0,0,.254.712h-1.05A2.128,2.128,0,0,1,169.058,130.441Zm-0.084-2.246a7.335,7.335,0,0,1-1.643.38,3.842,3.842,0,0,0-.877.2,0.873,0.873,0,0,0-.4.327,0.889,0.889,0,0,0,.165,1.148,1.311,1.311,0,0,0,.891.268,2.075,2.075,0,0,0,1.034-.254,1.565,1.565,0,0,0,.665-0.7,2.431,2.431,0,0,0,.162-1.005v-0.369Z" transform="translate(-14.171 -10.362)"/><path class="cls-4" d="M171.55,131.173V125.24h0.9v0.843a2.134,2.134,0,0,1,1.889-.978,2.478,2.478,0,0,1,.986.193,1.551,1.551,0,0,1,.673.505,1.943,1.943,0,0,1,.313.743,5.781,5.781,0,0,1,.056.978v3.648h-1.005v-3.609a2.71,2.71,0,0,0-.118-0.919,0.967,0.967,0,0,0-.416-0.486,1.324,1.324,0,0,0-.7-0.182,1.628,1.628,0,0,0-1.109.408,2.013,2.013,0,0,0-.467,1.548v3.24H171.55Z" transform="translate(-14.171 -10.362)"/><path class="cls-4" d="M177.511,129.4l0.995-.157a1.388,1.388,0,0,0,.466.917,1.625,1.625,0,0,0,1.07.318,1.568,1.568,0,0,0,1.028-.282,0.843,0.843,0,0,0,.335-0.662,0.611,0.611,0,0,0-.3-0.536,4.363,4.363,0,0,0-1.028-.341,9.345,9.345,0,0,1-1.534-.483,1.463,1.463,0,0,1-.869-1.36,1.527,1.527,0,0,1,.182-0.734,1.622,1.622,0,0,1,.495-0.562,2.065,2.065,0,0,1,.64-0.293,3.041,3.041,0,0,1,.869-0.12,3.428,3.428,0,0,1,1.226.2,1.669,1.669,0,0,1,.78.544,2.135,2.135,0,0,1,.346.919l-0.983.134a1.074,1.074,0,0,0-.388-0.715,1.42,1.42,0,0,0-.908-0.257,1.649,1.649,0,0,0-.989.229,0.668,0.668,0,0,0-.3.537,0.555,0.555,0,0,0,.123.352,0.886,0.886,0,0,0,.385.268q0.151,0.056.889,0.257a12.368,12.368,0,0,1,1.489.467,1.51,1.51,0,0,1,.662.528,1.473,1.473,0,0,1,.24.86,1.691,1.691,0,0,1-.293.947,1.9,1.9,0,0,1-.846.687,3.082,3.082,0,0,1-1.251.243,2.787,2.787,0,0,1-1.763-.48A2.235,2.235,0,0,1,177.511,129.4Z" transform="translate(-14.171 -10.362)"/></g><path class="cls-4" d="M184.625,38.281a6.091,6.091,0,0,0,1.49.779l-0.685,1.313a4.23,4.23,0,0,1-.823-0.346q-0.089-.044-1.238-0.817a4.956,4.956,0,0,1-2,.4,4.4,4.4,0,0,1-3.328-1.251,4.858,4.858,0,0,1-1.2-3.513,4.855,4.855,0,0,1,1.207-3.511,4.332,4.332,0,0,1,3.275-1.254,4.288,4.288,0,0,1,3.25,1.254,4.871,4.871,0,0,1,1.2,3.511,6.062,6.062,0,0,1-.333,2.1A4.367,4.367,0,0,1,184.625,38.281Zm-1.5-1.05a2.779,2.779,0,0,0,.537-1.018,4.767,4.767,0,0,0,.179-1.37,3.492,3.492,0,0,0-.7-2.385,2.544,2.544,0,0,0-3.686,0,3.482,3.482,0,0,0-.707,2.382,3.562,3.562,0,0,0,.707,2.417,2.281,2.281,0,0,0,1.788.8A2.188,2.188,0,0,0,182,37.929a5.393,5.393,0,0,0-1.15-.578l0.521-1.062A6.326,6.326,0,0,1,183.129,37.231Z" transform="translate(-14.171 -10.362)"/><path class="cls-4" d="M191.6,39.45v-1a2.569,2.569,0,0,1-.958.842,2.684,2.684,0,0,1-1.254.308,2.455,2.455,0,0,1-1.207-.3,1.744,1.744,0,0,1-.773-0.83A3.7,3.7,0,0,1,187.17,37V32.775h1.766v3.067a8.46,8.46,0,0,0,.1,1.726,0.941,0.941,0,0,0,.355.5,1.092,1.092,0,0,0,.654.185,1.389,1.389,0,0,0,.811-0.248,1.263,1.263,0,0,0,.49-0.616,7.148,7.148,0,0,0,.132-1.8V32.775h1.766V39.45H191.6Z" transform="translate(-14.171 -10.362)"/><path class="cls-4" d="M196.391,34.812l-1.6-.289a2.5,2.5,0,0,1,.93-1.433,3.4,3.4,0,0,1,1.961-.465,4.224,4.224,0,0,1,1.76.28,1.749,1.749,0,0,1,.814.71,3.64,3.64,0,0,1,.236,1.581l-0.019,2.062a7.16,7.16,0,0,0,.084,1.3,3.8,3.8,0,0,0,.317.9h-1.747q-0.07-.176-0.17-0.521c-0.029-.1-0.05-0.174-0.062-0.208a3.178,3.178,0,0,1-.968.66,2.766,2.766,0,0,1-1.1.22,2.274,2.274,0,0,1-1.625-.56,1.858,1.858,0,0,1-.594-1.414,1.9,1.9,0,0,1,.27-1.009,1.766,1.766,0,0,1,.757-0.679,5.908,5.908,0,0,1,1.4-.412,9.664,9.664,0,0,0,1.716-.434V34.918a0.914,0.914,0,0,0-.251-0.726,1.506,1.506,0,0,0-.949-0.217,1.263,1.263,0,0,0-.735.186A1.286,1.286,0,0,0,196.391,34.812Zm2.363,1.433a11,11,0,0,1-1.075.271,3.23,3.23,0,0,0-.961.308,0.737,0.737,0,0,0-.346.623,0.866,0.866,0,0,0,.276.641,0.966,0.966,0,0,0,.7.27,1.529,1.529,0,0,0,.911-0.314,1.107,1.107,0,0,0,.421-0.585,3.5,3.5,0,0,0,.069-0.861V36.245Z" transform="translate(-14.171 -10.362)"/><path class="cls-4" d="M202.229,39.45V30.236H204V39.45h-1.766Z" transform="translate(-14.171 -10.362)"/><path class="cls-4" d="M205.806,31.87V30.236h1.766V31.87h-1.766Zm0,7.58V32.775h1.766V39.45h-1.766Z" transform="translate(-14.171 -10.362)"/><path class="cls-4" d="M208.609,32.775h0.98v-0.5a3.338,3.338,0,0,1,.179-1.257,1.415,1.415,0,0,1,.66-0.675,2.534,2.534,0,0,1,1.216-.261,4.915,4.915,0,0,1,1.477.227l-0.239,1.232a3.5,3.5,0,0,0-.811-0.1,0.723,0.723,0,0,0-.55.179,1.038,1.038,0,0,0-.167.688v0.472h1.32v1.389h-1.32V39.45H209.59V34.164h-0.98V32.775Z" transform="translate(-14.171 -10.362)"/><path class="cls-4" d="M213.669,31.87V30.236h1.766V31.87h-1.766Zm0,7.58V32.775h1.766V39.45h-1.766Z" transform="translate(-14.171 -10.362)"/><path class="cls-4" d="M221.111,37.326l1.76,0.3A2.885,2.885,0,0,1,221.8,39.1a3.147,3.147,0,0,1-1.832.506,2.987,2.987,0,0,1-2.577-1.138,3.822,3.822,0,0,1-.66-2.3,3.686,3.686,0,0,1,.867-2.6,2.856,2.856,0,0,1,2.193-.939,2.964,2.964,0,0,1,2.351.983,4.356,4.356,0,0,1,.823,3.014H218.54a1.787,1.787,0,0,0,.427,1.223,1.336,1.336,0,0,0,1.019.437,1.08,1.08,0,0,0,.7-0.227A1.4,1.4,0,0,0,221.111,37.326Zm0.1-1.785a1.7,1.7,0,0,0-.4-1.166,1.274,1.274,0,0,0-1.873.022,1.63,1.63,0,0,0-.371,1.144h2.64Z" transform="translate(-14.171 -10.362)"/><path class="cls-4" d="M230.526,39.45h-1.641V38.47a2.649,2.649,0,0,1-.965.852,2.473,2.473,0,0,1-1.122.28,2.542,2.542,0,0,1-1.971-.927,3.77,3.77,0,0,1-.82-2.586,3.727,3.727,0,0,1,.8-2.58,2.6,2.6,0,0,1,2.018-.883,2.5,2.5,0,0,1,1.936.93V30.236h1.766V39.45Zm-4.714-3.482a3.051,3.051,0,0,0,.3,1.546,1.334,1.334,0,0,0,1.194.691,1.3,1.3,0,0,0,1.037-.519,2.391,2.391,0,0,0,.428-1.549,2.621,2.621,0,0,0-.415-1.656,1.314,1.314,0,0,0-1.062-.506,1.327,1.327,0,0,0-1.053.5A2.258,2.258,0,0,0,225.813,35.968Z" transform="translate(-14.171 -10.362)"/><path class="cls-4" d="M235.856,39.45V30.236h2.985a10.856,10.856,0,0,1,2.212.138,2.415,2.415,0,0,1,1.326.9,2.858,2.858,0,0,1,.535,1.794,3.01,3.01,0,0,1-.308,1.427,2.533,2.533,0,0,1-.783.908,2.7,2.7,0,0,1-.965.437,10.575,10.575,0,0,1-1.929.132h-1.213V39.45h-1.86Zm1.86-7.655v2.614h1.018a4.806,4.806,0,0,0,1.471-.145,1.22,1.22,0,0,0,.581-0.452A1.238,1.238,0,0,0,241,33.1a1.189,1.189,0,0,0-.3-0.83,1.287,1.287,0,0,0-.748-0.409,9.018,9.018,0,0,0-1.339-.062h-0.9Z" transform="translate(-14.171 -10.362)"/><path class="cls-4" d="M244.429,39.45V30.236H246.2V39.45h-1.766Z" transform="translate(-14.171 -10.362)"/><path class="cls-4" d="M249.325,34.812l-1.6-.289a2.5,2.5,0,0,1,.93-1.433,3.4,3.4,0,0,1,1.961-.465,4.224,4.224,0,0,1,1.76.28,1.749,1.749,0,0,1,.814.71,3.64,3.64,0,0,1,.236,1.581L253.4,37.257a7.16,7.16,0,0,0,.084,1.3,3.8,3.8,0,0,0,.317.9H252.06q-0.07-.176-0.17-0.521c-0.029-.1-0.05-0.174-0.062-0.208a3.178,3.178,0,0,1-.968.66,2.766,2.766,0,0,1-1.1.22,2.274,2.274,0,0,1-1.625-.56,1.858,1.858,0,0,1-.594-1.414,1.9,1.9,0,0,1,.27-1.009,1.766,1.766,0,0,1,.757-0.679,5.908,5.908,0,0,1,1.4-.412,9.664,9.664,0,0,0,1.716-.434V34.918a0.914,0.914,0,0,0-.251-0.726,1.506,1.506,0,0,0-.949-0.217,1.263,1.263,0,0,0-.735.186A1.286,1.286,0,0,0,249.325,34.812Zm2.363,1.433a11,11,0,0,1-1.075.271,3.23,3.23,0,0,0-.961.308,0.737,0.737,0,0,0-.346.623,0.866,0.866,0,0,0,.276.641,0.966,0.966,0,0,0,.7.27,1.529,1.529,0,0,0,.911-0.314,1.107,1.107,0,0,0,.421-0.585,3.5,3.5,0,0,0,.069-0.861V36.245Z" transform="translate(-14.171 -10.362)"/><path class="cls-4" d="M261.236,39.45H259.47V36.043a5.253,5.253,0,0,0-.113-1.4,0.978,0.978,0,0,0-.368-0.493,1.053,1.053,0,0,0-.613-0.176,1.415,1.415,0,0,0-.823.251,1.267,1.267,0,0,0-.5.667,5.771,5.771,0,0,0-.135,1.533V39.45h-1.767V32.775h1.641v0.98a2.736,2.736,0,0,1,3.269-.921,1.791,1.791,0,0,1,.732.538,1.945,1.945,0,0,1,.346.741,5.518,5.518,0,0,1,.1,1.188V39.45Z" transform="translate(-14.171 -10.362)"/><path class="cls-4" d="M262.405,37.546l1.772-.271a1.3,1.3,0,0,0,.459.783,1.548,1.548,0,0,0,.968.267,1.749,1.749,0,0,0,1.031-.251,0.561,0.561,0,0,0,.232-0.471,0.466,0.466,0,0,0-.125-0.333,1.413,1.413,0,0,0-.591-0.232,9.537,9.537,0,0,1-2.709-.861,1.72,1.72,0,0,1-.792-1.5,1.851,1.851,0,0,1,.685-1.458,3.2,3.2,0,0,1,2.125-.591,3.7,3.7,0,0,1,2.036.446,2.281,2.281,0,0,1,.918,1.32l-1.666.308a1.03,1.03,0,0,0-.406-0.6,1.479,1.479,0,0,0-.852-0.208,1.92,1.92,0,0,0-1,.195,0.419,0.419,0,0,0-.2.358,0.39,0.39,0,0,0,.176.32,6.636,6.636,0,0,0,1.65.5,4.912,4.912,0,0,1,1.97.786,1.634,1.634,0,0,1,.553,1.313,2.016,2.016,0,0,1-.767,1.578,3.4,3.4,0,0,1-2.269.66,3.725,3.725,0,0,1-2.159-.553A2.549,2.549,0,0,1,262.405,37.546Z" transform="translate(-14.171 -10.362)"/><line class="cls-9" x1="191.896" y1="66.945" x2="210.021" y2="66.945"/><line class="cls-9" x1="210.021" y1="66.945" x2="210.021" y2="238.486"/><line class="cls-9" x1="210.021" y1="163.487" x2="228.145" y2="163.487"/><line class="cls-9" x1="210.021" y1="86.879" x2="228.145" y2="86.879"/><line class="cls-9" x1="210.021" y1="238.486" x2="228.145" y2="238.486"/><rect class="cls-2" x="228.145" y="76.224" width="180.212" height="29.177"/><rect class="cls-3" x="228.145" y="68.358" width="180.212" height="7.866"/><rect class="cls-2" x="228.145" y="68.358" width="180.212" height="7.866"/><path class="cls-4" d="M252.552,104.75V97.526h-2.7V96.56h6.492v0.966h-2.71v7.224h-1.083Z" transform="translate(-14.171 -10.362)"/><path class="cls-4" d="M257.318,104.75V98.817h0.9v0.9a2.449,2.449,0,0,1,.64-0.833,1.113,1.113,0,0,1,.645-0.2,1.96,1.96,0,0,1,1.034.324l-0.347.933a1.439,1.439,0,0,0-.737-0.218,0.961,0.961,0,0,0-.592.2,1.075,1.075,0,0,0-.374.55,3.918,3.918,0,0,0-.168,1.173v3.106h-1.005Z" transform="translate(-14.171 -10.362)"/><path class="cls-4" d="M265.011,104.018a3.738,3.738,0,0,1-1.076.67,3.1,3.1,0,0,1-1.109.2,2.155,2.155,0,0,1-1.5-.478,1.576,1.576,0,0,1-.525-1.221,1.621,1.621,0,0,1,.2-0.8,1.644,1.644,0,0,1,.52-0.579,2.459,2.459,0,0,1,.724-0.33,7.329,7.329,0,0,1,.894-0.151,9.163,9.163,0,0,0,1.793-.346c0-.138.006-0.225,0.006-0.263a1.11,1.11,0,0,0-.285-0.866,1.683,1.683,0,0,0-1.145-.341,1.779,1.779,0,0,0-1.048.249,1.519,1.519,0,0,0-.5.88l-0.983-.134a2.443,2.443,0,0,1,.441-1.02,1.935,1.935,0,0,1,.889-0.6,3.961,3.961,0,0,1,1.346-.209,3.568,3.568,0,0,1,1.235.179,1.627,1.627,0,0,1,.7.45,1.582,1.582,0,0,1,.313.685,5.7,5.7,0,0,1,.05.927v1.341a14.327,14.327,0,0,0,.064,1.774,2.242,2.242,0,0,0,.254.712h-1.05A2.128,2.128,0,0,1,265.011,104.018Zm-0.084-2.246a7.335,7.335,0,0,1-1.643.38,3.842,3.842,0,0,0-.877.2,0.873,0.873,0,0,0-.4.327,0.889,0.889,0,0,0,.165,1.148,1.311,1.311,0,0,0,.891.268,2.075,2.075,0,0,0,1.034-.254,1.565,1.565,0,0,0,.665-0.7,2.431,2.431,0,0,0,.162-1.005v-0.369Z" transform="translate(-14.171 -10.362)"/><path class="cls-4" d="M271.352,104.75V104a1.845,1.845,0,0,1-1.659.883,2.327,2.327,0,0,1-1.3-.391,2.577,2.577,0,0,1-.922-1.092,3.777,3.777,0,0,1-.327-1.612,4.221,4.221,0,0,1,.3-1.612,2.339,2.339,0,0,1,.889-1.109,2.374,2.374,0,0,1,1.324-.385,1.978,1.978,0,0,1,.956.226,2,2,0,0,1,.682.589V96.56h1v8.19h-0.933Zm-3.179-2.961a2.578,2.578,0,0,0,.48,1.7,1.449,1.449,0,0,0,1.134.564,1.424,1.424,0,0,0,1.121-.539,2.486,2.486,0,0,0,.461-1.646,2.789,2.789,0,0,0-.47-1.788,1.443,1.443,0,0,0-1.156-.57,1.394,1.394,0,0,0-1.12.547A2.7,2.7,0,0,0,268.173,101.789Z" transform="translate(-14.171 -10.362)"/><path class="cls-4" d="M273.872,97.716V96.56h1.006v1.156h-1.006Zm0,7.034V98.817h1.006v5.933h-1.006Z" transform="translate(-14.171 -10.362)"/><path class="cls-4" d="M278.6,103.851l0.146,0.888a3.735,3.735,0,0,1-.76.089,1.715,1.715,0,0,1-.849-0.173,0.969,0.969,0,0,1-.425-0.455,3.6,3.6,0,0,1-.123-1.187V99.6h-0.737V98.817h0.737v-1.47l1-.6v2.073H278.6V99.6h-1.011v3.47a1.745,1.745,0,0,0,.053.553,0.417,0.417,0,0,0,.173.2,0.669,0.669,0,0,0,.343.073A3.3,3.3,0,0,0,278.6,103.851Z" transform="translate(-14.171 -10.362)"/><path class="cls-4" d="M279.593,97.716V96.56H280.6v1.156h-1.006Zm0,7.034V98.817H280.6v5.933h-1.006Z" transform="translate(-14.171 -10.362)"/><path class="cls-4" d="M281.755,101.783a3.057,3.057,0,0,1,.917-2.441,2.76,2.76,0,0,1,1.866-.659,2.661,2.661,0,0,1,2,.8,3.049,3.049,0,0,1,.777,2.215,3.928,3.928,0,0,1-.344,1.8,2.434,2.434,0,0,1-1,1.02,2.911,2.911,0,0,1-1.433.363,2.667,2.667,0,0,1-2.014-.8A3.19,3.19,0,0,1,281.755,101.783Zm1.034,0a2.527,2.527,0,0,0,.5,1.707,1.656,1.656,0,0,0,2.5,0,2.586,2.586,0,0,0,.5-1.737,2.451,2.451,0,0,0-.5-1.668,1.658,1.658,0,0,0-2.495,0A2.516,2.516,0,0,0,282.789,101.783Z" transform="translate(-14.171 -10.362)"/><path class="cls-4" d="M288.493,104.75V98.817h0.9V99.66a2.134,2.134,0,0,1,1.889-.978,2.478,2.478,0,0,1,.986.193,1.551,1.551,0,0,1,.673.505,1.943,1.943,0,0,1,.313.743,5.781,5.781,0,0,1,.056.978v3.648h-1.005v-3.609a2.71,2.71,0,0,0-.118-0.919,0.967,0.967,0,0,0-.416-0.486,1.324,1.324,0,0,0-.7-0.182,1.628,1.628,0,0,0-1.109.408,2.013,2.013,0,0,0-.467,1.548v3.24h-1.005Z" transform="translate(-14.171 -10.362)"/><path class="cls-4" d="M298.728,104.018a3.738,3.738,0,0,1-1.076.67,3.1,3.1,0,0,1-1.109.2,2.155,2.155,0,0,1-1.5-.478,1.576,1.576,0,0,1-.525-1.221,1.621,1.621,0,0,1,.2-0.8,1.644,1.644,0,0,1,.52-0.579,2.459,2.459,0,0,1,.724-0.33,7.329,7.329,0,0,1,.894-0.151,9.163,9.163,0,0,0,1.793-.346c0-.138.006-0.225,0.006-0.263a1.11,1.11,0,0,0-.285-0.866,1.683,1.683,0,0,0-1.145-.341,1.779,1.779,0,0,0-1.048.249,1.519,1.519,0,0,0-.5.88l-0.983-.134a2.443,2.443,0,0,1,.441-1.02,1.935,1.935,0,0,1,.889-0.6,3.961,3.961,0,0,1,1.346-.209,3.568,3.568,0,0,1,1.235.179,1.627,1.627,0,0,1,.7.45,1.582,1.582,0,0,1,.313.685,5.7,5.7,0,0,1,.05.927v1.341a14.327,14.327,0,0,0,.064,1.774,2.242,2.242,0,0,0,.254.712h-1.05A2.128,2.128,0,0,1,298.728,104.018Zm-0.084-2.246a7.335,7.335,0,0,1-1.643.38,3.842,3.842,0,0,0-.877.2,0.873,0.873,0,0,0-.4.327,0.889,0.889,0,0,0,.165,1.148,1.311,1.311,0,0,0,.891.268,2.075,2.075,0,0,0,1.034-.254,1.565,1.565,0,0,0,.665-0.7,2.431,2.431,0,0,0,.162-1.005v-0.369Z" transform="translate(-14.171 -10.362)"/><path class="cls-4" d="M301.2,104.75V96.56H302.2v8.19H301.2Z" transform="translate(-14.171 -10.362)"/><path class="cls-4" d="M307.069,104.75V96.56h2.821a6.849,6.849,0,0,1,1.458.117,2.773,2.773,0,0,1,1.2.587,3.333,3.333,0,0,1,.97,1.4,5.5,5.5,0,0,1,.321,1.947,5.746,5.746,0,0,1-.218,1.654,4.031,4.031,0,0,1-.559,1.193,2.98,2.98,0,0,1-.746.743,3.046,3.046,0,0,1-.978.411,5.575,5.575,0,0,1-1.316.14h-2.955Zm1.084-.966H309.9a4.248,4.248,0,0,0,1.271-.151,1.815,1.815,0,0,0,.734-0.425,2.587,2.587,0,0,0,.6-1.036,5.064,5.064,0,0,0,.216-1.579,3.813,3.813,0,0,0-.422-1.975,2.122,2.122,0,0,0-1.025-.924,4.235,4.235,0,0,0-1.4-.168h-1.721v6.258Z" transform="translate(-14.171 -10.362)"/><path class="cls-4" d="M319.266,102.839l1.039,0.128a2.538,2.538,0,0,1-.911,1.414,3.085,3.085,0,0,1-3.763-.3,3.132,3.132,0,0,1-.763-2.249,3.276,3.276,0,0,1,.771-2.324,2.611,2.611,0,0,1,2-.827,2.538,2.538,0,0,1,1.944.81,3.218,3.218,0,0,1,.754,2.279c0,0.06,0,.149-0.006.269h-4.425a2.276,2.276,0,0,0,.554,1.5,1.645,1.645,0,0,0,1.24.52,1.536,1.536,0,0,0,.943-0.291A1.933,1.933,0,0,0,319.266,102.839Zm-3.3-1.626h3.313a2.017,2.017,0,0,0-.38-1.123,1.541,1.541,0,0,0-1.246-.581,1.6,1.6,0,0,0-1.165.464A1.84,1.84,0,0,0,315.963,101.213Z" transform="translate(-14.171 -10.362)"/><path class="cls-4" d="M321.808,104.75V99.6H320.92V98.817h0.888V98.186a2.777,2.777,0,0,1,.106-0.889,1.283,1.283,0,0,1,.512-0.634,1.837,1.837,0,0,1,1.024-.243,4.925,4.925,0,0,1,.938.1l-0.15.877a3.392,3.392,0,0,0-.592-0.056,0.882,0.882,0,0,0-.648.2,1.058,1.058,0,0,0-.19.732v0.548h1.157V99.6h-1.157v5.151h-1Z" transform="translate(-14.171 -10.362)"/><path class="cls-4" d="M324.752,97.716V96.56h1.006v1.156h-1.006Zm0,7.034V98.817h1.006v5.933h-1.006Z" transform="translate(-14.171 -10.362)"/><path class="cls-4" d="M327.288,104.75V98.817h0.905V99.66a2.134,2.134,0,0,1,1.889-.978,2.48,2.48,0,0,1,.986.193,1.552,1.552,0,0,1,.673.505,1.95,1.95,0,0,1,.313.743,5.752,5.752,0,0,1,.057.978v3.648H331.1v-3.609a2.712,2.712,0,0,0-.117-0.919,0.969,0.969,0,0,0-.417-0.486,1.323,1.323,0,0,0-.7-0.182,1.628,1.628,0,0,0-1.108.408,2.011,2.011,0,0,0-.467,1.548v3.24h-1.006Z" transform="translate(-14.171 -10.362)"/><path class="cls-4" d="M337.714,102.839l1.039,0.128a2.538,2.538,0,0,1-.911,1.414,3.085,3.085,0,0,1-3.763-.3,3.132,3.132,0,0,1-.763-2.249,3.276,3.276,0,0,1,.771-2.324,2.611,2.611,0,0,1,2-.827,2.538,2.538,0,0,1,1.944.81,3.218,3.218,0,0,1,.754,2.279c0,0.06,0,.149-0.006.269h-4.425a2.276,2.276,0,0,0,.554,1.5,1.645,1.645,0,0,0,1.24.52,1.536,1.536,0,0,0,.943-0.291A1.933,1.933,0,0,0,337.714,102.839Zm-3.3-1.626h3.313a2.017,2.017,0,0,0-.38-1.123,1.541,1.541,0,0,0-1.246-.581,1.6,1.6,0,0,0-1.165.464A1.84,1.84,0,0,0,334.411,101.213Z" transform="translate(-14.171 -10.362)"/><path class="cls-4" d="M343.864,104.75V104a1.846,1.846,0,0,1-1.659.883,2.327,2.327,0,0,1-1.3-.391,2.574,2.574,0,0,1-.922-1.092,3.777,3.777,0,0,1-.327-1.612,4.2,4.2,0,0,1,.3-1.612,2.337,2.337,0,0,1,.888-1.109,2.38,2.38,0,0,1,1.324-.385,1.975,1.975,0,0,1,1.637.815V96.56h1v8.19h-0.934Zm-3.179-2.961a2.578,2.578,0,0,0,.48,1.7,1.449,1.449,0,0,0,1.134.564,1.421,1.421,0,0,0,1.12-.539,2.484,2.484,0,0,0,.461-1.646,2.793,2.793,0,0,0-.469-1.788,1.445,1.445,0,0,0-1.157-.57,1.4,1.4,0,0,0-1.12.547A2.7,2.7,0,0,0,340.686,101.789Z" transform="translate(-14.171 -10.362)"/><path class="cls-4" d="M349.642,104.75V96.56h3.073a3.814,3.814,0,0,1,1.506.249,1.934,1.934,0,0,1,.888.766,2.019,2.019,0,0,1,.321,1.081,1.853,1.853,0,0,1-.285.989,2.031,2.031,0,0,1-.86.749,2.136,2.136,0,0,1,1.143.743,1.988,1.988,0,0,1,.4,1.24,2.39,2.39,0,0,1-.243,1.07,2.063,2.063,0,0,1-.6.763,2.507,2.507,0,0,1-.9.405,5.451,5.451,0,0,1-1.321.137h-3.123ZM350.726,100H352.5a3.946,3.946,0,0,0,1.033-.095,1.148,1.148,0,0,0,.623-0.408,1.174,1.174,0,0,0,.209-0.715,1.312,1.312,0,0,0-.2-0.718,0.986,0.986,0,0,0-.559-0.425,4.672,4.672,0,0,0-1.246-.115h-1.637V100Zm0,3.783h2.039a4.636,4.636,0,0,0,.737-0.04,1.768,1.768,0,0,0,.626-0.223,1.181,1.181,0,0,0,.413-0.456,1.421,1.421,0,0,0,.162-0.69,1.361,1.361,0,0,0-.234-0.8,1.236,1.236,0,0,0-.65-0.475,4.044,4.044,0,0,0-1.2-.137h-1.894v2.816Z" transform="translate(-14.171 -10.362)"/><path class="cls-4" d="M361.252,102.839l1.039,0.128a2.538,2.538,0,0,1-.911,1.414,3.085,3.085,0,0,1-3.763-.3,3.132,3.132,0,0,1-.763-2.249,3.276,3.276,0,0,1,.771-2.324,2.611,2.611,0,0,1,2-.827,2.538,2.538,0,0,1,1.944.81,3.218,3.218,0,0,1,.754,2.279c0,0.06,0,.149-0.006.269h-4.425a2.276,2.276,0,0,0,.554,1.5,1.645,1.645,0,0,0,1.24.52,1.536,1.536,0,0,0,.943-0.291A1.933,1.933,0,0,0,361.252,102.839Zm-3.3-1.626h3.313a2.017,2.017,0,0,0-.38-1.123,1.541,1.541,0,0,0-1.246-.581,1.6,1.6,0,0,0-1.165.464A1.84,1.84,0,0,0,357.949,101.213Z" transform="translate(-14.171 -10.362)"/><path class="cls-4" d="M363.553,104.75V98.817h0.905V99.66a2.134,2.134,0,0,1,1.889-.978,2.48,2.48,0,0,1,.986.193,1.552,1.552,0,0,1,.673.505,1.95,1.95,0,0,1,.313.743,5.752,5.752,0,0,1,.057.978v3.648h-1.006v-3.609a2.712,2.712,0,0,0-.117-0.919,0.969,0.969,0,0,0-.417-0.486,1.323,1.323,0,0,0-.7-0.182,1.628,1.628,0,0,0-1.108.408,2.011,2.011,0,0,0-.467,1.548v3.24h-1.006Z" transform="translate(-14.171 -10.362)"/><path class="cls-4" d="M373.979,102.839l1.039,0.128a2.538,2.538,0,0,1-.911,1.414,3.085,3.085,0,0,1-3.763-.3,3.132,3.132,0,0,1-.763-2.249,3.276,3.276,0,0,1,.771-2.324,2.611,2.611,0,0,1,2-.827,2.538,2.538,0,0,1,1.944.81,3.218,3.218,0,0,1,.754,2.279c0,0.06,0,.149-0.006.269H370.62a2.276,2.276,0,0,0,.554,1.5,1.645,1.645,0,0,0,1.24.52,1.536,1.536,0,0,0,.943-0.291A1.933,1.933,0,0,0,373.979,102.839Zm-3.3-1.626h3.313a2.017,2.017,0,0,0-.38-1.123,1.541,1.541,0,0,0-1.246-.581,1.6,1.6,0,0,0-1.165.464A1.84,1.84,0,0,0,370.676,101.213Z" transform="translate(-14.171 -10.362)"/><path class="cls-4" d="M376.52,104.75V99.6h-0.888V98.817h0.888V98.186a2.777,2.777,0,0,1,.106-0.889,1.283,1.283,0,0,1,.512-0.634,1.837,1.837,0,0,1,1.024-.243,4.925,4.925,0,0,1,.938.1l-0.15.877a3.392,3.392,0,0,0-.592-0.056,0.882,0.882,0,0,0-.648.2,1.058,1.058,0,0,0-.19.732v0.548h1.157V99.6H377.52v5.151h-1Z" transform="translate(-14.171 -10.362)"/><path class="cls-4" d="M379.465,97.716V96.56h1.006v1.156h-1.006Zm0,7.034V98.817h1.006v5.933h-1.006Z" transform="translate(-14.171 -10.362)"/><path class="cls-4" d="M384.2,103.851l0.145,0.888a3.723,3.723,0,0,1-.76.089,1.717,1.717,0,0,1-.849-0.173,0.969,0.969,0,0,1-.425-0.455,3.6,3.6,0,0,1-.123-1.187V99.6h-0.737V98.817h0.737v-1.47l1-.6v2.073H384.2V99.6h-1.012v3.47a1.725,1.725,0,0,0,.054.553,0.416,0.416,0,0,0,.173.2,0.669,0.669,0,0,0,.344.073A3.31,3.31,0,0,0,384.2,103.851Z" transform="translate(-14.171 -10.362)"/><path class="cls-4" d="M388.487,104.75V96.56h3.09a7.442,7.442,0,0,1,1.245.078,2.472,2.472,0,0,1,1.012.383,2.013,2.013,0,0,1,.656.791,2.664,2.664,0,0,1-.416,2.886,3.189,3.189,0,0,1-2.4.724h-2.1v3.33h-1.084Zm1.084-4.3h2.117a2.248,2.248,0,0,0,1.492-.391,1.394,1.394,0,0,0,.441-1.1,1.483,1.483,0,0,0-.26-0.88,1.219,1.219,0,0,0-.685-0.483,4.637,4.637,0,0,0-1.012-.073h-2.095v2.928Z" transform="translate(-14.171 -10.362)"/><path class="cls-4" d="M395.968,104.75V96.56h1.006v8.19h-1.006Z" transform="translate(-14.171 -10.362)"/><path class="cls-4" d="M402.4,104.018a3.742,3.742,0,0,1-1.075.67,3.111,3.111,0,0,1-1.109.2,2.157,2.157,0,0,1-1.5-.478,1.578,1.578,0,0,1-.525-1.221,1.627,1.627,0,0,1,.2-0.8,1.647,1.647,0,0,1,.521-0.579,2.453,2.453,0,0,1,.723-0.33,7.352,7.352,0,0,1,.895-0.151,9.172,9.172,0,0,0,1.793-.346c0-.138.006-0.225,0.006-0.263a1.108,1.108,0,0,0-.285-0.866,1.684,1.684,0,0,0-1.146-.341,1.775,1.775,0,0,0-1.047.249,1.514,1.514,0,0,0-.5.88l-0.983-.134a2.431,2.431,0,0,1,.441-1.02,1.932,1.932,0,0,1,.888-0.6,3.964,3.964,0,0,1,1.347-.209,3.561,3.561,0,0,1,1.234.179,1.627,1.627,0,0,1,.7.45,1.587,1.587,0,0,1,.313.685,5.715,5.715,0,0,1,.05.927v1.341a14.185,14.185,0,0,0,.064,1.774,2.231,2.231,0,0,0,.255.712h-1.051A2.117,2.117,0,0,1,402.4,104.018Zm-0.084-2.246a7.335,7.335,0,0,1-1.643.38,3.835,3.835,0,0,0-.877.2,0.875,0.875,0,0,0-.4.327,0.888,0.888,0,0,0,.165,1.148,1.308,1.308,0,0,0,.891.268,2.069,2.069,0,0,0,1.033-.254,1.565,1.565,0,0,0,.665-0.7,2.422,2.422,0,0,0,.162-1.005v-0.369Z" transform="translate(-14.171 -10.362)"/><path class="cls-4" d="M404.9,104.75V98.817H405.8V99.66a2.134,2.134,0,0,1,1.889-.978,2.48,2.48,0,0,1,.986.193,1.552,1.552,0,0,1,.673.505,1.95,1.95,0,0,1,.313.743,5.752,5.752,0,0,1,.057.978v3.648h-1.006v-3.609a2.712,2.712,0,0,0-.117-0.919,0.969,0.969,0,0,0-.417-0.486,1.323,1.323,0,0,0-.7-0.182,1.628,1.628,0,0,0-1.108.408,2.011,2.011,0,0,0-.467,1.548v3.24H404.9Z" transform="translate(-14.171 -10.362)"/><path class="cls-4" d="M410.857,102.979l1-.157a1.389,1.389,0,0,0,.466.917,1.628,1.628,0,0,0,1.07.318,1.571,1.571,0,0,0,1.028-.282,0.843,0.843,0,0,0,.335-0.662,0.611,0.611,0,0,0-.3-0.536,4.354,4.354,0,0,0-1.028-.341,9.3,9.3,0,0,1-1.533-.483,1.463,1.463,0,0,1-.869-1.36,1.527,1.527,0,0,1,.182-0.734A1.631,1.631,0,0,1,411.7,99.1a2.07,2.07,0,0,1,.64-0.293,3.045,3.045,0,0,1,.869-0.12,3.432,3.432,0,0,1,1.227.2,1.67,1.67,0,0,1,.779.544,2.142,2.142,0,0,1,.347.919l-0.983.134a1.078,1.078,0,0,0-.389-0.715,1.419,1.419,0,0,0-.908-0.257,1.644,1.644,0,0,0-.988.229,0.668,0.668,0,0,0-.3.537,0.554,0.554,0,0,0,.122.352,0.891,0.891,0,0,0,.386.268q0.151,0.056.889,0.257a12.353,12.353,0,0,1,1.488.467,1.51,1.51,0,0,1,.662.528,1.473,1.473,0,0,1,.24.86,1.691,1.691,0,0,1-.293.947,1.9,1.9,0,0,1-.847.687,3.078,3.078,0,0,1-1.251.243,2.787,2.787,0,0,1-1.763-.48A2.237,2.237,0,0,1,410.857,102.979Z" transform="translate(-14.171 -10.362)"/><rect class="cls-2" x="228.668" y="152.832" width="180.212" height="29.177"/><rect class="cls-3" x="228.668" y="144.965" width="180.212" height="7.866"/><rect class="cls-2" x="228.668" y="144.965" width="180.212" height="7.866"/><path class="cls-4" d="M296.714,180.643v-1.961H293.16V177.76l3.738-5.308h0.821v5.308h1.106v0.922h-1.106v1.961h-1.005Zm0-2.883v-3.693l-2.564,3.693h2.564Z" transform="translate(-14.171 -10.362)"/><path class="cls-4" d="M303.641,180.643h-1.005v-6.408a5.2,5.2,0,0,1-.953.693,6.749,6.749,0,0,1-1.059.52v-0.972a6.077,6.077,0,0,0,1.475-.961,3.78,3.78,0,0,0,.894-1.1h0.648v8.224Z" transform="translate(-14.171 -10.362)"/><path class="cls-4" d="M311.5,179.676v0.966h-5.414a1.775,1.775,0,0,1,.118-0.7,3.688,3.688,0,0,1,.662-1.089,10.339,10.339,0,0,1,1.315-1.241,11.129,11.129,0,0,0,1.8-1.734,2.081,2.081,0,0,0,.47-1.21,1.344,1.344,0,0,0-.428-1.008,1.543,1.543,0,0,0-1.114-.411,1.57,1.57,0,0,0-1.162.436,1.647,1.647,0,0,0-.441,1.207l-1.034-.106a2.543,2.543,0,0,1,.8-1.763,2.72,2.72,0,0,1,1.859-.606,2.6,2.6,0,0,1,1.866.654,2.147,2.147,0,0,1,.688,1.62,2.464,2.464,0,0,1-.2.967,3.736,3.736,0,0,1-.668,1,16.178,16.178,0,0,1-1.55,1.441q-0.905.76-1.162,1.031a3.307,3.307,0,0,0-.425.545H311.5Z" transform="translate(-14.171 -10.362)"/><path class="cls-4" d="M314.781,183.051a10.047,10.047,0,0,1-1.407-2.458,7.706,7.706,0,0,1-.146-5.464,10.7,10.7,0,0,1,1.553-2.816H315.5q-0.675,1.162-.894,1.659a9,9,0,0,0-.536,1.609,9.342,9.342,0,0,0-.24,2.1,10.086,10.086,0,0,0,1.67,5.369h-0.721Z" transform="translate(-14.171 -10.362)"/><path class="cls-4" d="M320.732,178.732l1.039,0.128a2.538,2.538,0,0,1-.911,1.414,3.085,3.085,0,0,1-3.763-.3,3.132,3.132,0,0,1-.763-2.249,3.276,3.276,0,0,1,.771-2.324,2.611,2.611,0,0,1,2-.827,2.538,2.538,0,0,1,1.944.81,3.218,3.218,0,0,1,.754,2.279c0,0.06,0,.149-0.006.269h-4.425a2.276,2.276,0,0,0,.554,1.5,1.645,1.645,0,0,0,1.24.52,1.536,1.536,0,0,0,.943-0.291A1.933,1.933,0,0,0,320.732,178.732Zm-3.3-1.626h3.313a2.017,2.017,0,0,0-.38-1.123,1.541,1.541,0,0,0-1.246-.581,1.6,1.6,0,0,0-1.165.464A1.84,1.84,0,0,0,317.43,177.106Z" transform="translate(-14.171 -10.362)"/><path class="cls-4" d="M323.692,183.051h-0.721a10.079,10.079,0,0,0,1.671-5.369,9.176,9.176,0,0,0-.24-2.084,8.751,8.751,0,0,0-.531-1.609,18.464,18.464,0,0,0-.9-1.676h0.721a10.708,10.708,0,0,1,1.554,2.816,7.7,7.7,0,0,1-.148,5.464A10.2,10.2,0,0,1,323.692,183.051Z" transform="translate(-14.171 -10.362)"/><path class="cls-4" d="M328.766,183.051a10.047,10.047,0,0,1-1.407-2.458,7.706,7.706,0,0,1-.146-5.464,10.7,10.7,0,0,1,1.553-2.816h0.721q-0.675,1.162-.894,1.659a9,9,0,0,0-.536,1.609,9.342,9.342,0,0,0-.24,2.1,10.086,10.086,0,0,0,1.67,5.369h-0.721Z" transform="translate(-14.171 -10.362)"/><path class="cls-4" d="M330.381,178.48l1.006-.134a2.215,2.215,0,0,0,.589,1.232,1.457,1.457,0,0,0,1.015.377,1.626,1.626,0,0,0,1.2-.492,1.658,1.658,0,0,0,.488-1.218,1.544,1.544,0,0,0-.452-1.143,1.566,1.566,0,0,0-1.15-.45,2.9,2.9,0,0,0-.71.112l0.111-.883a1.452,1.452,0,0,0,.162.011,2.075,2.075,0,0,0,1.157-.335,1.149,1.149,0,0,0,.514-1.034,1.225,1.225,0,0,0-.374-0.917,1.333,1.333,0,0,0-.967-0.363,1.367,1.367,0,0,0-.978.369,1.849,1.849,0,0,0-.5,1.106l-1.006-.179a2.587,2.587,0,0,1,.838-1.567,2.422,2.422,0,0,1,1.626-.556,2.675,2.675,0,0,1,1.234.288,2.082,2.082,0,0,1,.863.785,2.017,2.017,0,0,1,.3,1.056,1.724,1.724,0,0,1-.285.966,1.943,1.943,0,0,1-.843.693,1.9,1.9,0,0,1,1.128.7,2.114,2.114,0,0,1,.4,1.321,2.417,2.417,0,0,1-.782,1.818,2.751,2.751,0,0,1-1.978.746,2.576,2.576,0,0,1-1.791-.642A2.487,2.487,0,0,1,330.381,178.48Z" transform="translate(-14.171 -10.362)"/><path class="cls-4" d="M337.677,183.051h-0.721a10.079,10.079,0,0,0,1.671-5.369,9.176,9.176,0,0,0-.24-2.084,8.751,8.751,0,0,0-.531-1.609,18.464,18.464,0,0,0-.9-1.676h0.721a10.708,10.708,0,0,1,1.554,2.816,7.7,7.7,0,0,1-.148,5.464A10.2,10.2,0,0,1,337.677,183.051Z" transform="translate(-14.171 -10.362)"/><path class="cls-4" d="M344.136,180.643v-8.19h3.09a7.442,7.442,0,0,1,1.245.078,2.472,2.472,0,0,1,1.012.383,2.013,2.013,0,0,1,.656.791,2.664,2.664,0,0,1-.416,2.886,3.189,3.189,0,0,1-2.4.724h-2.1v3.33h-1.084Zm1.084-4.3h2.117a2.248,2.248,0,0,0,1.492-.391,1.394,1.394,0,0,0,.441-1.1,1.483,1.483,0,0,0-.26-0.88,1.219,1.219,0,0,0-.685-0.483,4.637,4.637,0,0,0-1.012-.073H345.22v2.928Z" transform="translate(-14.171 -10.362)"/><path class="cls-4" d="M351.616,180.643v-8.19h1.006v8.19h-1.006Z" transform="translate(-14.171 -10.362)"/><path class="cls-4" d="M358.053,179.911a3.742,3.742,0,0,1-1.075.67,3.111,3.111,0,0,1-1.109.2,2.157,2.157,0,0,1-1.5-.478,1.578,1.578,0,0,1-.525-1.221,1.627,1.627,0,0,1,.2-0.8,1.647,1.647,0,0,1,.521-0.579,2.453,2.453,0,0,1,.723-0.33,7.352,7.352,0,0,1,.895-0.151,9.172,9.172,0,0,0,1.793-.346c0-.138.006-0.225,0.006-0.263a1.108,1.108,0,0,0-.285-0.866,1.684,1.684,0,0,0-1.146-.341,1.775,1.775,0,0,0-1.047.249,1.514,1.514,0,0,0-.5.88l-0.983-.134a2.431,2.431,0,0,1,.441-1.02,1.932,1.932,0,0,1,.888-0.6,3.964,3.964,0,0,1,1.347-.209,3.561,3.561,0,0,1,1.234.179,1.627,1.627,0,0,1,.7.45,1.587,1.587,0,0,1,.313.685,5.715,5.715,0,0,1,.05.927v1.341a14.185,14.185,0,0,0,.064,1.774,2.231,2.231,0,0,0,.255.712h-1.051A2.117,2.117,0,0,1,358.053,179.911Zm-0.084-2.246a7.335,7.335,0,0,1-1.643.38,3.835,3.835,0,0,0-.877.2,0.875,0.875,0,0,0-.4.327,0.888,0.888,0,0,0,.165,1.148,1.308,1.308,0,0,0,.891.268,2.069,2.069,0,0,0,1.033-.254,1.565,1.565,0,0,0,.665-0.7,2.422,2.422,0,0,0,.162-1.005v-0.369Z" transform="translate(-14.171 -10.362)"/><path class="cls-4" d="M360.544,180.643v-5.933h0.905v0.843a2.134,2.134,0,0,1,1.889-.978,2.48,2.48,0,0,1,.986.193,1.552,1.552,0,0,1,.673.505,1.95,1.95,0,0,1,.313.743,5.752,5.752,0,0,1,.057.978v3.648H364.36v-3.609a2.712,2.712,0,0,0-.117-0.919,0.969,0.969,0,0,0-.417-0.486,1.323,1.323,0,0,0-.7-0.182,1.628,1.628,0,0,0-1.108.408,2.011,2.011,0,0,0-.467,1.548v3.24h-1.006Z" transform="translate(-14.171 -10.362)"/><path class="cls-4" d="M366.5,178.872l1-.157a1.389,1.389,0,0,0,.466.917,1.628,1.628,0,0,0,1.07.318,1.571,1.571,0,0,0,1.028-.282,0.843,0.843,0,0,0,.335-0.662,0.611,0.611,0,0,0-.3-0.536,4.354,4.354,0,0,0-1.028-.341,9.3,9.3,0,0,1-1.533-.483,1.463,1.463,0,0,1-.869-1.36,1.527,1.527,0,0,1,.182-0.734,1.631,1.631,0,0,1,.494-0.562,2.07,2.07,0,0,1,.64-0.293,3.045,3.045,0,0,1,.869-0.12,3.432,3.432,0,0,1,1.227.2,1.67,1.67,0,0,1,.779.544,2.142,2.142,0,0,1,.347.919l-0.983.134a1.078,1.078,0,0,0-.389-0.715,1.419,1.419,0,0,0-.908-0.257,1.644,1.644,0,0,0-.988.229,0.668,0.668,0,0,0-.3.537,0.554,0.554,0,0,0,.122.352,0.891,0.891,0,0,0,.386.268q0.151,0.056.889,0.257a12.353,12.353,0,0,1,1.488.467,1.51,1.51,0,0,1,.662.528,1.473,1.473,0,0,1,.24.86,1.691,1.691,0,0,1-.293.947,1.9,1.9,0,0,1-.847.687,3.078,3.078,0,0,1-1.251.243,2.787,2.787,0,0,1-1.763-.48A2.237,2.237,0,0,1,366.5,178.872Z" transform="translate(-14.171 -10.362)"/><rect class="cls-2" x="228.668" y="227.831" width="180.212" height="29.177"/><rect class="cls-3" x="228.668" y="219.964" width="180.212" height="7.866"/><rect class="cls-2" x="228.668" y="219.964" width="180.212" height="7.866"/><path class="cls-4" d="M288.3,253.485l1.084,0.273a3.647,3.647,0,0,1-1.227,2.037,3.38,3.38,0,0,1-2.165.7,3.891,3.891,0,0,1-2.154-.539,3.365,3.365,0,0,1-1.263-1.562,5.574,5.574,0,0,1-.433-2.2,4.829,4.829,0,0,1,.489-2.232,3.351,3.351,0,0,1,1.391-1.447,4.06,4.06,0,0,1,1.986-.495,3.36,3.36,0,0,1,2.067.625,3.251,3.251,0,0,1,1.167,1.76l-1.067.251a2.528,2.528,0,0,0-.827-1.3,2.2,2.2,0,0,0-1.363-.408,2.646,2.646,0,0,0-1.578.453,2.391,2.391,0,0,0-.891,1.215,4.891,4.891,0,0,0-.257,1.573,5,5,0,0,0,.3,1.824,2.266,2.266,0,0,0,.947,1.165,2.652,2.652,0,0,0,1.391.386,2.333,2.333,0,0,0,1.542-.525A2.689,2.689,0,0,0,288.3,253.485Z" transform="translate(-14.171 -10.362)"/><path class="cls-4" d="M294.462,255.625a3.738,3.738,0,0,1-1.076.67,3.1,3.1,0,0,1-1.109.2,2.155,2.155,0,0,1-1.5-.478,1.576,1.576,0,0,1-.525-1.221,1.621,1.621,0,0,1,.2-0.8,1.644,1.644,0,0,1,.52-0.579,2.459,2.459,0,0,1,.724-0.33,7.329,7.329,0,0,1,.894-0.151,9.163,9.163,0,0,0,1.793-.346c0-.138.006-0.225,0.006-0.263a1.11,1.11,0,0,0-.285-0.866,1.683,1.683,0,0,0-1.145-.341,1.779,1.779,0,0,0-1.048.249,1.519,1.519,0,0,0-.5.88l-0.983-.134a2.443,2.443,0,0,1,.441-1.02,1.935,1.935,0,0,1,.889-0.6,3.961,3.961,0,0,1,1.346-.209,3.568,3.568,0,0,1,1.235.179,1.627,1.627,0,0,1,.7.45,1.582,1.582,0,0,1,.313.685,5.7,5.7,0,0,1,.05.927v1.341a14.327,14.327,0,0,0,.064,1.774,2.242,2.242,0,0,0,.254.712h-1.05A2.128,2.128,0,0,1,294.462,255.625Zm-0.084-2.246a7.335,7.335,0,0,1-1.643.38,3.842,3.842,0,0,0-.877.2,0.873,0.873,0,0,0-.4.327,0.889,0.889,0,0,0,.165,1.148,1.311,1.311,0,0,0,.891.268,2.075,2.075,0,0,0,1.034-.254,1.565,1.565,0,0,0,.665-0.7,2.431,2.431,0,0,0,.162-1.005v-0.369Z" transform="translate(-14.171 -10.362)"/><path class="cls-4" d="M296.551,254.585l0.995-.157a1.388,1.388,0,0,0,.466.917,1.625,1.625,0,0,0,1.07.318,1.568,1.568,0,0,0,1.028-.282,0.843,0.843,0,0,0,.335-0.662,0.611,0.611,0,0,0-.3-0.536,4.363,4.363,0,0,0-1.028-.341,9.345,9.345,0,0,1-1.534-.483,1.463,1.463,0,0,1-.869-1.36,1.527,1.527,0,0,1,.182-0.734,1.622,1.622,0,0,1,.495-0.562,2.065,2.065,0,0,1,.64-0.293,3.041,3.041,0,0,1,.869-0.12,3.428,3.428,0,0,1,1.226.2,1.669,1.669,0,0,1,.78.544,2.135,2.135,0,0,1,.346.919l-0.983.134a1.074,1.074,0,0,0-.388-0.715,1.42,1.42,0,0,0-.908-0.257,1.649,1.649,0,0,0-.989.229,0.668,0.668,0,0,0-.3.537,0.555,0.555,0,0,0,.123.352,0.886,0.886,0,0,0,.385.268q0.151,0.056.889,0.257a12.368,12.368,0,0,1,1.489.467,1.51,1.51,0,0,1,.662.528,1.473,1.473,0,0,1,.24.86,1.691,1.691,0,0,1-.293.947,1.9,1.9,0,0,1-.846.687,3.082,3.082,0,0,1-1.251.243,2.787,2.787,0,0,1-1.763-.48A2.235,2.235,0,0,1,296.551,254.585Z" transform="translate(-14.171 -10.362)"/><path class="cls-4" d="M302.675,256.356v-8.19h1.005V251.1a2.247,2.247,0,0,1,1.777-.815,2.392,2.392,0,0,1,1.145.26,1.526,1.526,0,0,1,.7.718,3.312,3.312,0,0,1,.21,1.33v3.76H306.5V252.6a1.555,1.555,0,0,0-.327-1.1,1.215,1.215,0,0,0-.925-0.344,1.634,1.634,0,0,0-.841.232,1.309,1.309,0,0,0-.561.629,2.882,2.882,0,0,0-.168,1.095v3.246h-1.005Z" transform="translate(-14.171 -10.362)"/><path class="cls-4" d="M312.3,256.356v-8.19h3.073a3.814,3.814,0,0,1,1.506.249,1.934,1.934,0,0,1,.888.766,2.019,2.019,0,0,1,.321,1.081,1.853,1.853,0,0,1-.285.989,2.031,2.031,0,0,1-.86.749,2.136,2.136,0,0,1,1.143.743,1.988,1.988,0,0,1,.4,1.24,2.39,2.39,0,0,1-.243,1.07,2.063,2.063,0,0,1-.6.763,2.507,2.507,0,0,1-.9.405,5.451,5.451,0,0,1-1.321.137H312.3Zm1.084-4.749h1.771a3.946,3.946,0,0,0,1.033-.095,1.148,1.148,0,0,0,.623-0.408,1.174,1.174,0,0,0,.209-0.715,1.312,1.312,0,0,0-.2-0.718,0.986,0.986,0,0,0-.559-0.425,4.672,4.672,0,0,0-1.246-.115h-1.637v2.475Zm0,3.783h2.039a4.636,4.636,0,0,0,.737-0.04,1.768,1.768,0,0,0,.626-0.223,1.181,1.181,0,0,0,.413-0.456,1.421,1.421,0,0,0,.162-0.69,1.361,1.361,0,0,0-.234-0.8,1.236,1.236,0,0,0-.65-0.475,4.044,4.044,0,0,0-1.2-.137h-1.894v2.816Z" transform="translate(-14.171 -10.362)"/><path class="cls-4" d="M323.721,255.625a3.742,3.742,0,0,1-1.075.67,3.111,3.111,0,0,1-1.109.2,2.157,2.157,0,0,1-1.5-.478,1.578,1.578,0,0,1-.525-1.221,1.627,1.627,0,0,1,.2-0.8,1.647,1.647,0,0,1,.521-0.579,2.453,2.453,0,0,1,.723-0.33,7.352,7.352,0,0,1,.895-0.151,9.172,9.172,0,0,0,1.793-.346c0-.138.006-0.225,0.006-0.263a1.108,1.108,0,0,0-.285-0.866,1.684,1.684,0,0,0-1.146-.341,1.775,1.775,0,0,0-1.047.249,1.514,1.514,0,0,0-.5.88l-0.983-.134a2.431,2.431,0,0,1,.441-1.02,1.932,1.932,0,0,1,.888-0.6,3.964,3.964,0,0,1,1.347-.209,3.561,3.561,0,0,1,1.234.179,1.627,1.627,0,0,1,.7.45,1.587,1.587,0,0,1,.313.685,5.715,5.715,0,0,1,.05.927v1.341a14.185,14.185,0,0,0,.064,1.774,2.231,2.231,0,0,0,.255.712h-1.051A2.117,2.117,0,0,1,323.721,255.625Zm-0.084-2.246a7.335,7.335,0,0,1-1.643.38,3.835,3.835,0,0,0-.877.2,0.875,0.875,0,0,0-.4.327,0.888,0.888,0,0,0,.165,1.148,1.308,1.308,0,0,0,.891.268,2.069,2.069,0,0,0,1.033-.254,1.565,1.565,0,0,0,.665-0.7,2.422,2.422,0,0,0,.162-1.005v-0.369Z" transform="translate(-14.171 -10.362)"/><path class="cls-4" d="M326.189,256.356v-8.19H327.2v8.19h-1.006Z" transform="translate(-14.171 -10.362)"/><path class="cls-4" d="M332.626,255.625a3.742,3.742,0,0,1-1.075.67,3.111,3.111,0,0,1-1.109.2,2.157,2.157,0,0,1-1.5-.478,1.578,1.578,0,0,1-.525-1.221,1.627,1.627,0,0,1,.2-0.8,1.647,1.647,0,0,1,.521-0.579,2.453,2.453,0,0,1,.723-0.33,7.352,7.352,0,0,1,.895-0.151,9.172,9.172,0,0,0,1.793-.346c0-.138.006-0.225,0.006-0.263a1.108,1.108,0,0,0-.285-0.866,1.684,1.684,0,0,0-1.146-.341,1.775,1.775,0,0,0-1.047.249,1.514,1.514,0,0,0-.5.88l-0.983-.134a2.431,2.431,0,0,1,.441-1.02,1.932,1.932,0,0,1,.888-0.6,3.964,3.964,0,0,1,1.347-.209,3.561,3.561,0,0,1,1.234.179,1.627,1.627,0,0,1,.7.45,1.587,1.587,0,0,1,.313.685,5.715,5.715,0,0,1,.05.927v1.341a14.185,14.185,0,0,0,.064,1.774,2.231,2.231,0,0,0,.255.712h-1.051A2.117,2.117,0,0,1,332.626,255.625Zm-0.084-2.246a7.335,7.335,0,0,1-1.643.38,3.835,3.835,0,0,0-.877.2,0.875,0.875,0,0,0-.4.327,0.888,0.888,0,0,0,.165,1.148,1.308,1.308,0,0,0,.891.268,2.069,2.069,0,0,0,1.033-.254,1.565,1.565,0,0,0,.665-0.7,2.422,2.422,0,0,0,.162-1.005v-0.369Z" transform="translate(-14.171 -10.362)"/><path class="cls-4" d="M335.117,256.356v-5.933h0.905v0.843a2.134,2.134,0,0,1,1.889-.978,2.48,2.48,0,0,1,.986.193,1.552,1.552,0,0,1,.673.505,1.95,1.95,0,0,1,.313.743,5.752,5.752,0,0,1,.057.978v3.648h-1.006v-3.609a2.712,2.712,0,0,0-.117-0.919,0.969,0.969,0,0,0-.417-0.486,1.323,1.323,0,0,0-.7-0.182,1.628,1.628,0,0,0-1.108.408,2.011,2.011,0,0,0-.467,1.548v3.24h-1.006Z" transform="translate(-14.171 -10.362)"/><path class="cls-4" d="M345.354,254.183l0.989,0.128a2.565,2.565,0,0,1-.83,1.6,2.416,2.416,0,0,1-1.64.579,2.546,2.546,0,0,1-1.958-.8,3.227,3.227,0,0,1-.74-2.282,4.12,4.12,0,0,1,.318-1.682,2.219,2.219,0,0,1,.969-1.081,2.879,2.879,0,0,1,1.417-.36,2.466,2.466,0,0,1,1.581.489,2.243,2.243,0,0,1,.787,1.388l-0.978.151a1.623,1.623,0,0,0-.494-0.9,1.279,1.279,0,0,0-.857-0.3,1.561,1.561,0,0,0-1.235.545,2.587,2.587,0,0,0-.475,1.724,2.67,2.67,0,0,0,.458,1.737,1.491,1.491,0,0,0,1.2.542,1.409,1.409,0,0,0,.989-0.363A1.8,1.8,0,0,0,345.354,254.183Z" transform="translate(-14.171 -10.362)"/><path class="cls-4" d="M351.265,254.446l1.039,0.128a2.538,2.538,0,0,1-.911,1.414,3.085,3.085,0,0,1-3.763-.3,3.132,3.132,0,0,1-.763-2.249,3.276,3.276,0,0,1,.771-2.324,2.611,2.611,0,0,1,2-.827,2.538,2.538,0,0,1,1.944.81,3.218,3.218,0,0,1,.754,2.279c0,0.06,0,.149-0.006.269h-4.425a2.276,2.276,0,0,0,.554,1.5,1.645,1.645,0,0,0,1.24.52,1.536,1.536,0,0,0,.943-0.291A1.933,1.933,0,0,0,351.265,254.446Zm-3.3-1.626h3.313a2.017,2.017,0,0,0-.38-1.123,1.541,1.541,0,0,0-1.246-.581,1.6,1.6,0,0,0-1.165.464A1.84,1.84,0,0,0,347.962,252.82Z" transform="translate(-14.171 -10.362)"/><path class="cls-4" d="M356.873,256.356v-8.19h3.09a7.442,7.442,0,0,1,1.245.078,2.472,2.472,0,0,1,1.012.383,2.013,2.013,0,0,1,.656.791,2.664,2.664,0,0,1-.416,2.886,3.189,3.189,0,0,1-2.4.724h-2.1v3.33h-1.084Zm1.084-4.3h2.117a2.248,2.248,0,0,0,1.492-.391,1.394,1.394,0,0,0,.441-1.1,1.483,1.483,0,0,0-.26-0.88,1.219,1.219,0,0,0-.685-0.483,4.637,4.637,0,0,0-1.012-.073h-2.095v2.928Z" transform="translate(-14.171 -10.362)"/><path class="cls-4" d="M364.354,256.356v-8.19h1.006v8.19h-1.006Z" transform="translate(-14.171 -10.362)"/><path class="cls-4" d="M370.79,255.625a3.742,3.742,0,0,1-1.075.67,3.111,3.111,0,0,1-1.109.2,2.157,2.157,0,0,1-1.5-.478,1.578,1.578,0,0,1-.525-1.221,1.627,1.627,0,0,1,.2-0.8,1.647,1.647,0,0,1,.521-0.579,2.453,2.453,0,0,1,.723-0.33,7.352,7.352,0,0,1,.895-0.151,9.172,9.172,0,0,0,1.793-.346c0-.138.006-0.225,0.006-0.263a1.108,1.108,0,0,0-.285-0.866,1.684,1.684,0,0,0-1.146-.341,1.775,1.775,0,0,0-1.047.249,1.514,1.514,0,0,0-.5.88l-0.983-.134a2.431,2.431,0,0,1,.441-1.02,1.932,1.932,0,0,1,.888-0.6,3.964,3.964,0,0,1,1.347-.209,3.561,3.561,0,0,1,1.234.179,1.627,1.627,0,0,1,.7.45,1.587,1.587,0,0,1,.313.685,5.715,5.715,0,0,1,.05.927v1.341a14.185,14.185,0,0,0,.064,1.774,2.231,2.231,0,0,0,.255.712h-1.051A2.117,2.117,0,0,1,370.79,255.625Zm-0.084-2.246a7.335,7.335,0,0,1-1.643.38,3.835,3.835,0,0,0-.877.2,0.875,0.875,0,0,0-.4.327,0.888,0.888,0,0,0,.165,1.148,1.308,1.308,0,0,0,.891.268,2.069,2.069,0,0,0,1.033-.254,1.565,1.565,0,0,0,.665-0.7,2.422,2.422,0,0,0,.162-1.005v-0.369Z" transform="translate(-14.171 -10.362)"/><path class="cls-4" d="M373.282,256.356v-5.933h0.905v0.843a2.134,2.134,0,0,1,1.889-.978,2.48,2.48,0,0,1,.986.193,1.552,1.552,0,0,1,.673.505,1.95,1.95,0,0,1,.313.743,5.752,5.752,0,0,1,.057.978v3.648H377.1v-3.609a2.712,2.712,0,0,0-.117-0.919,0.969,0.969,0,0,0-.417-0.486,1.323,1.323,0,0,0-.7-0.182,1.628,1.628,0,0,0-1.108.408,2.011,2.011,0,0,0-.467,1.548v3.24h-1.006Z" transform="translate(-14.171 -10.362)"/><path class="cls-4" d="M379.243,254.585l1-.157a1.389,1.389,0,0,0,.466.917,1.628,1.628,0,0,0,1.07.318,1.571,1.571,0,0,0,1.028-.282,0.843,0.843,0,0,0,.335-0.662,0.611,0.611,0,0,0-.3-0.536,4.354,4.354,0,0,0-1.028-.341,9.3,9.3,0,0,1-1.533-.483,1.463,1.463,0,0,1-.869-1.36,1.527,1.527,0,0,1,.182-0.734,1.631,1.631,0,0,1,.494-0.562,2.07,2.07,0,0,1,.64-0.293,3.045,3.045,0,0,1,.869-0.12,3.432,3.432,0,0,1,1.227.2,1.67,1.67,0,0,1,.779.544,2.142,2.142,0,0,1,.347.919l-0.983.134a1.078,1.078,0,0,0-.389-0.715,1.419,1.419,0,0,0-.908-0.257,1.644,1.644,0,0,0-.988.229,0.668,0.668,0,0,0-.3.537,0.554,0.554,0,0,0,.122.352,0.891,0.891,0,0,0,.386.268q0.151,0.056.889,0.257a12.353,12.353,0,0,1,1.488.467,1.51,1.51,0,0,1,.662.528,1.473,1.473,0,0,1,.24.86,1.691,1.691,0,0,1-.293.947,1.9,1.9,0,0,1-.847.687,3.078,3.078,0,0,1-1.251.243,2.787,2.787,0,0,1-1.763-.48A2.237,2.237,0,0,1,379.243,254.585Z" transform="translate(-14.171 -10.362)"/></svg>