<svg id="Layer_1" data-name="Layer 1" xmlns="http://www.w3.org/2000/svg" xmlns:xlink="http://www.w3.org/1999/xlink" viewBox="0 0 267.814 181.854"><defs><style>.cls-1,.cls-10,.cls-11,.cls-2,.cls-6,.cls-8{fill:none;}.cls-2{stroke:#89c64d;}.cls-3{fill:#89c64d;}.cls-4{clip-path:url(#clip-path);}.cls-5{fill:#231f20;}.cls-6{stroke:#25408f;}.cls-7{fill:#25408f;}.cls-8{stroke:#b12229;}.cls-9{fill:#b12229;}.cls-10{stroke:#d2232a;}.cls-11{stroke:#231f20;stroke-miterlimit:10;}</style><clipPath id="clip-path" transform="translate(-8.507 -8.185)"><rect class="cls-1" x="46.852" y="47.089" width="189.722" height="131.335"/></clipPath></defs><title>IRAs_Established_Employers</title><rect class="cls-2" x="44.996" y="46.955" width="176.42" height="28.563"/><rect class="cls-3" x="44.996" y="39.254" width="176.42" height="7.701"/><g class="cls-4"><rect class="cls-2" x="44.996" y="39.254" width="176.42" height="7.701"/></g><path class="cls-5" d="M122.205,70.024l1.126-.1a2.488,2.488,0,0,0,.373,1.111,2.029,2.029,0,0,0,.908.7,3.43,3.43,0,0,0,1.384.268,3.321,3.321,0,0,0,1.206-.2,1.677,1.677,0,0,0,.778-0.557,1.293,1.293,0,0,0,.255-0.772,1.175,1.175,0,0,0-.246-0.742,1.826,1.826,0,0,0-.812-0.532,15.956,15.956,0,0,0-1.606-.44,8.2,8.2,0,0,1-1.741-.563,2.441,2.441,0,0,1-.963-0.84,2.057,2.057,0,0,1-.317-1.123,2.3,2.3,0,0,1,.388-1.277,2.4,2.4,0,0,1,1.132-.9,4.293,4.293,0,0,1,1.655-.308,4.521,4.521,0,0,1,1.769.323,2.548,2.548,0,0,1,1.178.951,2.73,2.73,0,0,1,.443,1.421l-1.145.086a1.847,1.847,0,0,0-.625-1.292,2.43,2.43,0,0,0-1.572-.437,2.521,2.521,0,0,0-1.578.4,1.191,1.191,0,0,0-.5.957,1.027,1.027,0,0,0,.351.8,4.752,4.752,0,0,0,1.8.643,11.93,11.93,0,0,1,2,.576,2.733,2.733,0,0,1,1.163.92,2.242,2.242,0,0,1,.375,1.283,2.454,2.454,0,0,1-.412,1.357,2.717,2.717,0,0,1-1.185.99,4.127,4.127,0,0,1-1.738.354A5.189,5.189,0,0,1,124,72.719a2.871,2.871,0,0,1-1.3-1.074A3.043,3.043,0,0,1,122.205,70.024Z" transform="translate(-8.507 -8.185)"/><path class="cls-5" d="M131.041,72.922V63.9h6.522v1.064h-5.329v2.763h4.99v1.059h-4.99v3.07h5.538v1.064h-6.731Z" transform="translate(-8.507 -8.185)"/><path class="cls-5" d="M139.422,72.922V63.9h3.4a8.191,8.191,0,0,1,1.372.086,2.721,2.721,0,0,1,1.114.421,2.213,2.213,0,0,1,.723.871,2.935,2.935,0,0,1-.458,3.178,3.511,3.511,0,0,1-2.646.8h-2.313v3.667h-1.194Zm1.194-4.732h2.332a2.469,2.469,0,0,0,1.643-.431,1.534,1.534,0,0,0,.486-1.212,1.633,1.633,0,0,0-.286-0.969,1.341,1.341,0,0,0-.754-0.532,5.107,5.107,0,0,0-1.114-.08h-2.307V68.19Z" transform="translate(-8.507 -8.185)"/><path class="cls-5" d="M151.531,72.922V63.9h1.194v9.021h-1.194Z" transform="translate(-8.507 -8.185)"/><path class="cls-5" d="M154.847,72.922V63.9h4a5.321,5.321,0,0,1,1.833.243,2,2,0,0,1,1,.858,2.562,2.562,0,0,1,.375,1.36,2.27,2.27,0,0,1-.622,1.618,3.146,3.146,0,0,1-1.92.837,3.09,3.09,0,0,1,.72.449,6.207,6.207,0,0,1,.991,1.2l1.569,2.455h-1.5L160.1,71.046q-0.523-.812-0.861-1.243a2.711,2.711,0,0,0-.606-0.6,1.786,1.786,0,0,0-.544-0.24,3.569,3.569,0,0,0-.665-0.043h-1.384v4.006h-1.194Zm1.194-5.04h2.565a3.848,3.848,0,0,0,1.28-.169,1.364,1.364,0,0,0,.7-0.542,1.463,1.463,0,0,0,.24-0.809,1.344,1.344,0,0,0-.464-1.052A2.173,2.173,0,0,0,158.9,64.9h-2.855v2.984Z" transform="translate(-8.507 -8.185)"/><path class="cls-5" d="M162.825,72.922l3.464-9.021h1.286l3.691,9.021h-1.36l-1.052-2.732h-3.772l-0.991,2.732h-1.268Zm2.6-3.7h3.058l-0.941-2.5q-0.431-1.138-.64-1.871a11.45,11.45,0,0,1-.486,1.723Z" transform="translate(-8.507 -8.185)"/><rect class="cls-6" x="44.996" y="94.14" width="176.42" height="28.563"/><rect class="cls-7" x="44.996" y="86.44" width="176.42" height="7.701"/><rect class="cls-6" x="44.996" y="86.44" width="176.42" height="7.701"/><path class="cls-5" d="M113,117.21l1.126-.1a2.488,2.488,0,0,0,.373,1.111,2.029,2.029,0,0,0,.908.7,3.43,3.43,0,0,0,1.384.268,3.321,3.321,0,0,0,1.206-.2,1.677,1.677,0,0,0,.778-0.557,1.293,1.293,0,0,0,.255-0.772,1.175,1.175,0,0,0-.246-0.742,1.826,1.826,0,0,0-.812-0.532,15.956,15.956,0,0,0-1.606-.44,8.2,8.2,0,0,1-1.741-.563,2.441,2.441,0,0,1-.963-0.84,2.057,2.057,0,0,1-.317-1.123,2.3,2.3,0,0,1,.388-1.277,2.4,2.4,0,0,1,1.132-.9,4.293,4.293,0,0,1,1.655-.308,4.521,4.521,0,0,1,1.769.323,2.548,2.548,0,0,1,1.178.951,2.73,2.73,0,0,1,.443,1.421l-1.145.086a1.847,1.847,0,0,0-.625-1.292,2.43,2.43,0,0,0-1.572-.437,2.521,2.521,0,0,0-1.578.4,1.191,1.191,0,0,0-.5.957,1.027,1.027,0,0,0,.351.8,4.752,4.752,0,0,0,1.8.643,11.93,11.93,0,0,1,2,.576,2.733,2.733,0,0,1,1.163.92,2.242,2.242,0,0,1,.375,1.283,2.454,2.454,0,0,1-.412,1.357,2.717,2.717,0,0,1-1.185.99,4.127,4.127,0,0,1-1.738.354,5.189,5.189,0,0,1-2.052-.357,2.871,2.871,0,0,1-1.3-1.074A3.043,3.043,0,0,1,113,117.21Z" transform="translate(-8.507 -8.185)"/><path class="cls-5" d="M122.015,120.108v-9.021h1.194v9.021h-1.194Z" transform="translate(-8.507 -8.185)"/><path class="cls-5" d="M125.276,120.108v-9.021h1.8l2.135,6.387q0.3,0.892.431,1.335,0.154-.492.48-1.446l2.16-6.276h1.606v9.021h-1.151v-7.55l-2.621,7.55h-1.077l-2.609-7.679v7.679h-1.151Z" transform="translate(-8.507 -8.185)"/><path class="cls-5" d="M135.81,120.108v-9.021h3.4a8.191,8.191,0,0,1,1.372.086,2.721,2.721,0,0,1,1.114.421,2.213,2.213,0,0,1,.723.871,2.935,2.935,0,0,1-.458,3.178,3.511,3.511,0,0,1-2.646.8H137v3.667H135.81ZM137,115.376h2.332a2.469,2.469,0,0,0,1.643-.431,1.534,1.534,0,0,0,.486-1.212,1.633,1.633,0,0,0-.286-0.969,1.341,1.341,0,0,0-.754-0.532,5.107,5.107,0,0,0-1.114-.08H137v3.224Z" transform="translate(-8.507 -8.185)"/><path class="cls-5" d="M144.165,120.108v-9.021h1.194v7.956H149.8v1.064h-5.636Z" transform="translate(-8.507 -8.185)"/><path class="cls-5" d="M151.247,120.108v-9.021h6.522v1.064h-5.329v2.763h4.99v1.059h-4.99v3.07h5.538v1.064h-6.731Z" transform="translate(-8.507 -8.185)"/><path class="cls-5" d="M163.332,120.108v-9.021h1.194v9.021h-1.194Z" transform="translate(-8.507 -8.185)"/><path class="cls-5" d="M166.649,120.108v-9.021h4a5.321,5.321,0,0,1,1.833.243,2,2,0,0,1,1,.858,2.562,2.562,0,0,1,.375,1.36,2.27,2.27,0,0,1-.622,1.618,3.146,3.146,0,0,1-1.92.837,3.09,3.09,0,0,1,.72.449,6.207,6.207,0,0,1,.991,1.2l1.569,2.455h-1.5l-1.194-1.876q-0.523-.812-0.861-1.243a2.711,2.711,0,0,0-.606-0.6,1.786,1.786,0,0,0-.544-0.24,3.569,3.569,0,0,0-.665-0.043h-1.384v4.006h-1.194Zm1.194-5.04h2.565a3.848,3.848,0,0,0,1.28-.169,1.364,1.364,0,0,0,.7-0.542,1.463,1.463,0,0,0,.24-0.809,1.344,1.344,0,0,0-.464-1.052,2.173,2.173,0,0,0-1.467-.412h-2.855v2.984Z" transform="translate(-8.507 -8.185)"/><path class="cls-5" d="M174.614,120.108l3.464-9.021h1.286l3.691,9.021H181.7l-1.052-2.732h-3.772l-0.991,2.732h-1.268Zm2.6-3.7h3.058l-0.941-2.5q-0.431-1.138-.64-1.871a11.45,11.45,0,0,1-.486,1.723Z" transform="translate(-8.507 -8.185)"/><g class="cls-4"><rect class="cls-8" x="44.996" y="141.326" width="176.42" height="28.563"/></g><rect class="cls-9" x="44.996" y="133.625" width="176.42" height="7.701"/><rect class="cls-10" x="44.996" y="133.625" width="176.42" height="7.701"/><path class="cls-5" d="M127.423,167.293v-6.535h0.991v0.917a2.332,2.332,0,0,1,.818-0.772,2.3,2.3,0,0,1,1.163-.292,2.152,2.152,0,0,1,1.19.3,1.615,1.615,0,0,1,.655.843,2.346,2.346,0,0,1,2.018-1.145,1.99,1.99,0,0,1,1.5.538,2.3,2.3,0,0,1,.523,1.659v4.485h-1.1v-4.116a3.048,3.048,0,0,0-.107-0.957,0.929,0.929,0,0,0-.391-0.471,1.222,1.222,0,0,0-.665-0.178,1.548,1.548,0,0,0-1.145.458,2.021,2.021,0,0,0-.455,1.468v3.8h-1.107v-4.246a1.866,1.866,0,0,0-.271-1.107,1.025,1.025,0,0,0-.886-0.369,1.61,1.61,0,0,0-.865.246,1.393,1.393,0,0,0-.575.72,4.049,4.049,0,0,0-.179,1.366v3.39h-1.107Z" transform="translate(-8.507 -8.185)"/><path class="cls-5" d="M137.87,169.81l-0.123-1.04a2.46,2.46,0,0,0,.634.1,1.216,1.216,0,0,0,.591-0.123,1.01,1.01,0,0,0,.363-0.345,5.514,5.514,0,0,0,.338-0.824q0.031-.092.1-0.271l-2.479-6.547h1.194l1.359,3.784q0.265,0.72.474,1.514a14.888,14.888,0,0,1,.455-1.489l1.4-3.809h1.107l-2.486,6.646a13.009,13.009,0,0,1-.622,1.483,2.185,2.185,0,0,1-.677.8,1.6,1.6,0,0,1-.911.255A2.216,2.216,0,0,1,137.87,169.81Z" transform="translate(-8.507 -8.185)"/><path class="cls-5" d="M144.381,167.293v-9.021h4a5.321,5.321,0,0,1,1.833.243,2,2,0,0,1,1,.858,2.562,2.562,0,0,1,.375,1.36,2.27,2.27,0,0,1-.622,1.618,3.146,3.146,0,0,1-1.92.837,3.09,3.09,0,0,1,.72.449,6.207,6.207,0,0,1,.991,1.2l1.569,2.455h-1.5l-1.194-1.876q-0.523-.812-0.861-1.243a2.711,2.711,0,0,0-.606-0.6,1.786,1.786,0,0,0-.544-0.24,3.569,3.569,0,0,0-.665-0.043h-1.384v4.006h-1.194Zm1.194-5.04h2.565a3.848,3.848,0,0,0,1.28-.169,1.364,1.364,0,0,0,.7-0.542,1.463,1.463,0,0,0,.24-0.809,1.344,1.344,0,0,0-.464-1.052,2.173,2.173,0,0,0-1.467-.412h-2.855v2.984Z" transform="translate(-8.507 -8.185)"/><path class="cls-5" d="M152.358,167.293l3.464-9.021h1.286l3.691,9.021h-1.36l-1.052-2.732h-3.772l-0.991,2.732h-1.268Zm2.6-3.7h3.058l-0.941-2.5q-0.431-1.138-.64-1.871a11.45,11.45,0,0,1-.486,1.723Z" transform="translate(-8.507 -8.185)"/><rect class="cls-11" x="0.5" y="0.5" width="266.814" height="180.854"/><path class="cls-5" d="M54.891,31.882V22.861h1.821v9.021H54.891Z" transform="translate(-8.507 -8.185)"/><path class="cls-5" d="M58.453,31.882V22.861h3.833a6.556,6.556,0,0,1,2.1.243,2.073,2.073,0,0,1,1.049.865,2.6,2.6,0,0,1,.394,1.421,2.407,2.407,0,0,1-.6,1.677,2.864,2.864,0,0,1-1.784.834,4.245,4.245,0,0,1,.975.757,10.255,10.255,0,0,1,1.037,1.464l1.1,1.76H64.385l-1.317-1.963a12.63,12.63,0,0,0-.96-1.326,1.39,1.39,0,0,0-.547-0.375,3,3,0,0,0-.917-0.1H60.275v3.766H58.453Zm1.821-5.206h1.348a6.935,6.935,0,0,0,1.637-.111,0.98,0.98,0,0,0,.511-0.381,1.175,1.175,0,0,0,.185-0.677,1.081,1.081,0,0,0-.243-0.735,1.117,1.117,0,0,0-.686-0.354Q62.8,24.387,61.7,24.387H60.275v2.289Z" transform="translate(-8.507 -8.185)"/><path class="cls-5" d="M75.682,31.882H73.7l-0.788-2.049H69.308l-0.745,2.049H66.631l3.513-9.021h1.926Zm-3.354-3.569-1.243-3.347-1.218,3.347h2.461Z" transform="translate(-8.507 -8.185)"/><path class="cls-5" d="M76.027,30.017l1.735-.265a1.273,1.273,0,0,0,.449.766,1.518,1.518,0,0,0,.948.261,1.711,1.711,0,0,0,1.009-.246,0.55,0.55,0,0,0,.228-0.461,0.454,0.454,0,0,0-.123-0.326,1.383,1.383,0,0,0-.579-0.228,9.324,9.324,0,0,1-2.652-.843,1.685,1.685,0,0,1-.775-1.471,1.813,1.813,0,0,1,.671-1.428,3.133,3.133,0,0,1,2.08-.578,3.626,3.626,0,0,1,1.994.437,2.232,2.232,0,0,1,.9,1.292l-1.631.3a1.007,1.007,0,0,0-.4-0.584,1.453,1.453,0,0,0-.834-0.2,1.879,1.879,0,0,0-.978.191,0.41,0.41,0,0,0-.2.351,0.383,0.383,0,0,0,.172.314,6.486,6.486,0,0,0,1.615.486,4.811,4.811,0,0,1,1.929.77,1.6,1.6,0,0,1,.542,1.286,1.974,1.974,0,0,1-.751,1.544,3.323,3.323,0,0,1-2.221.646,3.647,3.647,0,0,1-2.114-.541A2.5,2.5,0,0,1,76.027,30.017Z" transform="translate(-8.507 -8.185)"/><path class="cls-5" d="M83.976,27.076V25.347h1.729v1.729H83.976Zm0,4.806V30.153h1.729v1.729H83.976Z" transform="translate(-8.507 -8.185)"/><path class="cls-5" d="M91,28.984l1.126-.1A2.488,2.488,0,0,0,92.5,30a2.029,2.029,0,0,0,.908.7,3.43,3.43,0,0,0,1.384.268,3.321,3.321,0,0,0,1.206-.2,1.677,1.677,0,0,0,.778-0.557,1.293,1.293,0,0,0,.255-0.772,1.175,1.175,0,0,0-.246-0.742,1.826,1.826,0,0,0-.812-0.532,15.956,15.956,0,0,0-1.606-.44,8.2,8.2,0,0,1-1.741-.563,2.441,2.441,0,0,1-.963-0.84,2.057,2.057,0,0,1-.317-1.123,2.3,2.3,0,0,1,.388-1.277,2.4,2.4,0,0,1,1.132-.9,4.293,4.293,0,0,1,1.655-.308,4.521,4.521,0,0,1,1.769.323,2.548,2.548,0,0,1,1.178.951,2.73,2.73,0,0,1,.443,1.421l-1.145.086a1.847,1.847,0,0,0-.625-1.292,2.43,2.43,0,0,0-1.572-.437,2.521,2.521,0,0,0-1.578.4,1.191,1.191,0,0,0-.5.957,1.027,1.027,0,0,0,.351.8,4.752,4.752,0,0,0,1.8.643,11.93,11.93,0,0,1,2,.576,2.733,2.733,0,0,1,1.163.92,2.242,2.242,0,0,1,.375,1.283,2.454,2.454,0,0,1-.412,1.357,2.717,2.717,0,0,1-1.185.99,4.127,4.127,0,0,1-1.738.354,5.189,5.189,0,0,1-2.052-.357A2.871,2.871,0,0,1,91.5,30.6,3.043,3.043,0,0,1,91,28.984Z" transform="translate(-8.507 -8.185)"/><path class="cls-5" d="M99.673,34.386V25.347h1.009V26.2a2.484,2.484,0,0,1,.806-0.748,2.214,2.214,0,0,1,1.089-.249,2.582,2.582,0,0,1,1.477.431,2.646,2.646,0,0,1,.966,1.215,4.439,4.439,0,0,1,.326,1.72,4.371,4.371,0,0,1-.36,1.806,2.736,2.736,0,0,1-2.489,1.658A2.086,2.086,0,0,1,101.5,31.8a2.272,2.272,0,0,1-.723-0.591v3.181H99.673Zm1-5.735a2.842,2.842,0,0,0,.511,1.864,1.565,1.565,0,0,0,1.237.6,1.6,1.6,0,0,0,1.265-.625,2.963,2.963,0,0,0,.526-1.935,2.889,2.889,0,0,0-.514-1.871,1.548,1.548,0,0,0-1.228-.621,1.6,1.6,0,0,0-1.252.661A2.961,2.961,0,0,0,100.676,28.651Z" transform="translate(-8.507 -8.185)"/><path class="cls-5" d="M106.269,28.614a3.368,3.368,0,0,1,1.009-2.689,3.039,3.039,0,0,1,2.055-.726,2.933,2.933,0,0,1,2.2.883,3.361,3.361,0,0,1,.855,2.44,4.321,4.321,0,0,1-.378,1.984,2.676,2.676,0,0,1-1.1,1.123,3.209,3.209,0,0,1-1.579.4,2.935,2.935,0,0,1-2.218-.88A3.511,3.511,0,0,1,106.269,28.614Zm1.138,0a2.782,2.782,0,0,0,.548,1.879,1.824,1.824,0,0,0,2.75,0,2.851,2.851,0,0,0,.547-1.914,2.7,2.7,0,0,0-.551-1.837,1.826,1.826,0,0,0-2.747,0A2.771,2.771,0,0,0,107.407,28.614Z" transform="translate(-8.507 -8.185)"/><path class="cls-5" d="M113.689,31.882V25.347h1v0.929a2.349,2.349,0,0,1,2.08-1.077,2.727,2.727,0,0,1,1.086.212,1.711,1.711,0,0,1,.742.557,2.143,2.143,0,0,1,.344.818A6.341,6.341,0,0,1,119,27.864v4.018h-1.107V27.906a2.973,2.973,0,0,0-.129-1.012,1.064,1.064,0,0,0-.458-0.536,1.46,1.46,0,0,0-.772-0.2,1.792,1.792,0,0,0-1.221.449,2.214,2.214,0,0,0-.514,1.7v3.569h-1.107Z" transform="translate(-8.507 -8.185)"/><path class="cls-5" d="M120.255,29.931l1.1-.172a1.531,1.531,0,0,0,.514,1.009,1.791,1.791,0,0,0,1.178.351,1.732,1.732,0,0,0,1.132-.311,0.929,0.929,0,0,0,.369-0.729,0.673,0.673,0,0,0-.326-0.591,4.792,4.792,0,0,0-1.132-.375,10.316,10.316,0,0,1-1.689-.532,1.612,1.612,0,0,1-.957-1.5,1.682,1.682,0,0,1,.2-0.809,1.793,1.793,0,0,1,.545-0.619,2.289,2.289,0,0,1,.7-0.323,3.342,3.342,0,0,1,.957-0.132,3.787,3.787,0,0,1,1.351.221,1.838,1.838,0,0,1,.858.6,2.347,2.347,0,0,1,.381,1.012l-1.083.147a1.182,1.182,0,0,0-.427-0.787,1.564,1.564,0,0,0-1-.283,1.814,1.814,0,0,0-1.089.252,0.735,0.735,0,0,0-.326.591,0.611,0.611,0,0,0,.135.388,0.972,0.972,0,0,0,.424.3q0.166,0.062.979,0.283a13.591,13.591,0,0,1,1.64.514,1.667,1.667,0,0,1,.729.582,1.624,1.624,0,0,1,.264.947A1.86,1.86,0,0,1,125.359,31a2.088,2.088,0,0,1-.932.757,3.39,3.39,0,0,1-1.378.268,3.073,3.073,0,0,1-1.941-.529A2.463,2.463,0,0,1,120.255,29.931Z" transform="translate(-8.507 -8.185)"/><path class="cls-5" d="M126.586,28.614a3.368,3.368,0,0,1,1.009-2.689,3.039,3.039,0,0,1,2.055-.726,2.933,2.933,0,0,1,2.2.883,3.361,3.361,0,0,1,.855,2.44,4.321,4.321,0,0,1-.378,1.984,2.676,2.676,0,0,1-1.1,1.123,3.209,3.209,0,0,1-1.579.4,2.935,2.935,0,0,1-2.218-.88A3.511,3.511,0,0,1,126.586,28.614Zm1.138,0a2.782,2.782,0,0,0,.548,1.879,1.824,1.824,0,0,0,2.75,0,2.851,2.851,0,0,0,.547-1.914,2.7,2.7,0,0,0-.551-1.837,1.826,1.826,0,0,0-2.747,0A2.771,2.771,0,0,0,127.724,28.614Z" transform="translate(-8.507 -8.185)"/><path class="cls-5" d="M133.994,31.882V25.347h1v0.991a2.71,2.71,0,0,1,.7-0.917,1.232,1.232,0,0,1,.711-0.221,2.162,2.162,0,0,1,1.138.357l-0.381,1.027a1.588,1.588,0,0,0-.812-0.24,1.054,1.054,0,0,0-.652.218,1.183,1.183,0,0,0-.413.606,4.317,4.317,0,0,0-.185,1.292v3.421h-1.107Z" transform="translate(-8.507 -8.185)"/><path class="cls-5" d="M142.676,29.777l1.145,0.142a2.788,2.788,0,0,1-1,1.557,3.4,3.4,0,0,1-4.144-.329,3.449,3.449,0,0,1-.84-2.477,3.611,3.611,0,0,1,.849-2.56,2.874,2.874,0,0,1,2.2-.911,2.794,2.794,0,0,1,2.142.892,3.545,3.545,0,0,1,.831,2.51q0,0.1-.006.3h-4.873a2.509,2.509,0,0,0,.609,1.649,1.811,1.811,0,0,0,1.366.572,1.694,1.694,0,0,0,1.04-.32A2.122,2.122,0,0,0,142.676,29.777Zm-3.636-1.791h3.649a2.217,2.217,0,0,0-.418-1.237,1.7,1.7,0,0,0-1.372-.64,1.761,1.761,0,0,0-1.283.511A2.022,2.022,0,0,0,139.04,27.987Z" transform="translate(-8.507 -8.185)"/><path class="cls-5" d="M149.451,31.882V31.057a2.033,2.033,0,0,1-1.828.972,2.561,2.561,0,0,1-1.437-.431,2.834,2.834,0,0,1-1.016-1.2,4.16,4.16,0,0,1-.36-1.775,4.647,4.647,0,0,1,.326-1.775,2.572,2.572,0,0,1,.979-1.222,2.616,2.616,0,0,1,1.458-.424,2.177,2.177,0,0,1,1.8.9V22.861h1.1v9.021h-1.027Zm-3.5-3.261a2.838,2.838,0,0,0,.529,1.877,1.6,1.6,0,0,0,1.249.621,1.566,1.566,0,0,0,1.234-.594,2.736,2.736,0,0,0,.507-1.812,3.072,3.072,0,0,0-.517-1.969,1.59,1.59,0,0,0-1.274-.628,1.534,1.534,0,0,0-1.233.6A2.975,2.975,0,0,0,145.95,28.62Z" transform="translate(-8.507 -8.185)"/><path class="cls-5" d="M156.742,31.882h-1.027V22.861h1.107v3.218a2.192,2.192,0,0,1,1.791-.88,2.74,2.74,0,0,1,1.141.243,2.336,2.336,0,0,1,.886.683,3.3,3.3,0,0,1,.544,1.062,4.375,4.375,0,0,1,.2,1.329,3.734,3.734,0,0,1-.831,2.6,2.6,2.6,0,0,1-1.994.917,2.08,2.08,0,0,1-1.815-.966v0.818Zm-0.012-3.316a3.39,3.39,0,0,0,.32,1.7,1.583,1.583,0,0,0,2.67.225,2.864,2.864,0,0,0,.529-1.88,2.917,2.917,0,0,0-.508-1.889,1.547,1.547,0,0,0-1.228-.609,1.592,1.592,0,0,0-1.255.63A2.769,2.769,0,0,0,156.73,28.565Z" transform="translate(-8.507 -8.185)"/><path class="cls-5" d="M162.68,34.4l-0.123-1.04a2.46,2.46,0,0,0,.634.1,1.216,1.216,0,0,0,.591-0.123,1.01,1.01,0,0,0,.363-0.345,5.514,5.514,0,0,0,.338-0.824q0.031-.092.1-0.271L162.1,25.347H163.3l1.359,3.784q0.265,0.72.474,1.514a14.888,14.888,0,0,1,.455-1.489l1.4-3.809h1.107L165.6,31.992a13.009,13.009,0,0,1-.622,1.483,2.185,2.185,0,0,1-.677.8,1.6,1.6,0,0,1-.911.255A2.216,2.216,0,0,1,162.68,34.4Z" transform="translate(-8.507 -8.185)"/><path class="cls-5" d="M172.7,31.882V22.861h6.522v1.064h-5.329v2.763h4.99v1.059h-4.99v3.07h5.538v1.064H172.7Z" transform="translate(-8.507 -8.185)"/><path class="cls-5" d="M180.936,31.882V25.347h0.991v0.917a2.332,2.332,0,0,1,.818-0.772,2.3,2.3,0,0,1,1.163-.292,2.152,2.152,0,0,1,1.19.3,1.615,1.615,0,0,1,.655.843,2.346,2.346,0,0,1,2.018-1.145,1.99,1.99,0,0,1,1.5.538,2.3,2.3,0,0,1,.523,1.659v4.485h-1.1V27.765a3.048,3.048,0,0,0-.107-0.957,0.929,0.929,0,0,0-.391-0.471,1.222,1.222,0,0,0-.665-0.178,1.548,1.548,0,0,0-1.145.458,2.021,2.021,0,0,0-.455,1.468v3.8h-1.107V27.636a1.866,1.866,0,0,0-.271-1.107,1.025,1.025,0,0,0-.886-0.369,1.61,1.61,0,0,0-.865.246,1.393,1.393,0,0,0-.575.72,4.049,4.049,0,0,0-.179,1.366v3.39h-1.107Z" transform="translate(-8.507 -8.185)"/><path class="cls-5" d="M191.433,34.386V25.347h1.009V26.2a2.484,2.484,0,0,1,.806-0.748,2.214,2.214,0,0,1,1.089-.249,2.582,2.582,0,0,1,1.477.431,2.646,2.646,0,0,1,.966,1.215,4.439,4.439,0,0,1,.326,1.72,4.371,4.371,0,0,1-.36,1.806,2.736,2.736,0,0,1-2.489,1.658,2.086,2.086,0,0,1-.994-0.233,2.272,2.272,0,0,1-.723-0.591v3.181h-1.107Zm1-5.735a2.842,2.842,0,0,0,.511,1.864,1.565,1.565,0,0,0,1.237.6,1.6,1.6,0,0,0,1.265-.625,2.963,2.963,0,0,0,.526-1.935,2.889,2.889,0,0,0-.514-1.871,1.548,1.548,0,0,0-1.228-.621,1.6,1.6,0,0,0-1.252.661A2.961,2.961,0,0,0,192.436,28.651Z" transform="translate(-8.507 -8.185)"/><path class="cls-5" d="M198.417,31.882V22.861h1.107v9.021h-1.107Z" transform="translate(-8.507 -8.185)"/><path class="cls-5" d="M200.829,28.614a3.368,3.368,0,0,1,1.009-2.689,3.039,3.039,0,0,1,2.055-.726,2.933,2.933,0,0,1,2.2.883,3.361,3.361,0,0,1,.855,2.44,4.321,4.321,0,0,1-.378,1.984,2.676,2.676,0,0,1-1.1,1.123,3.209,3.209,0,0,1-1.579.4,2.935,2.935,0,0,1-2.218-.88A3.511,3.511,0,0,1,200.829,28.614Zm1.138,0a2.782,2.782,0,0,0,.548,1.879,1.824,1.824,0,0,0,2.75,0,2.851,2.851,0,0,0,.547-1.914,2.7,2.7,0,0,0-.551-1.837,1.826,1.826,0,0,0-2.747,0A2.771,2.771,0,0,0,201.967,28.614Z" transform="translate(-8.507 -8.185)"/><path class="cls-5" d="M208.2,34.4l-0.123-1.04a2.46,2.46,0,0,0,.634.1,1.216,1.216,0,0,0,.591-0.123,1.01,1.01,0,0,0,.363-0.345A5.514,5.514,0,0,0,210,32.165q0.031-.092.1-0.271l-2.479-6.547h1.194l1.359,3.784q0.265,0.72.474,1.514a14.888,14.888,0,0,1,.455-1.489l1.4-3.809h1.107l-2.486,6.646a13.009,13.009,0,0,1-.622,1.483,2.185,2.185,0,0,1-.677.8,1.6,1.6,0,0,1-.911.255A2.216,2.216,0,0,1,208.2,34.4Z" transform="translate(-8.507 -8.185)"/><path class="cls-5" d="M219.023,29.777l1.145,0.142a2.788,2.788,0,0,1-1,1.557,3.4,3.4,0,0,1-4.144-.329,3.449,3.449,0,0,1-.84-2.477,3.611,3.611,0,0,1,.849-2.56,2.874,2.874,0,0,1,2.2-.911,2.794,2.794,0,0,1,2.142.892,3.545,3.545,0,0,1,.831,2.51q0,0.1-.006.3h-4.873a2.509,2.509,0,0,0,.609,1.649,1.811,1.811,0,0,0,1.366.572,1.694,1.694,0,0,0,1.04-.32A2.122,2.122,0,0,0,219.023,29.777Zm-3.636-1.791h3.649a2.217,2.217,0,0,0-.418-1.237,1.7,1.7,0,0,0-1.372-.64,1.761,1.761,0,0,0-1.283.511A2.022,2.022,0,0,0,215.387,27.987Z" transform="translate(-8.507 -8.185)"/><path class="cls-5" d="M221.546,31.882V25.347h1v0.991a2.71,2.71,0,0,1,.7-0.917,1.232,1.232,0,0,1,.711-0.221,2.162,2.162,0,0,1,1.138.357l-0.381,1.027a1.588,1.588,0,0,0-.812-0.24,1.054,1.054,0,0,0-.652.218,1.183,1.183,0,0,0-.413.606,4.317,4.317,0,0,0-.185,1.292v3.421h-1.107Z" transform="translate(-8.507 -8.185)"/><path class="cls-5" d="M225.312,29.931l1.1-.172a1.531,1.531,0,0,0,.514,1.009,1.791,1.791,0,0,0,1.178.351,1.732,1.732,0,0,0,1.132-.311,0.929,0.929,0,0,0,.369-0.729,0.673,0.673,0,0,0-.326-0.591,4.792,4.792,0,0,0-1.132-.375,10.316,10.316,0,0,1-1.689-.532,1.612,1.612,0,0,1-.957-1.5,1.682,1.682,0,0,1,.2-0.809,1.793,1.793,0,0,1,.545-0.619,2.289,2.289,0,0,1,.7-0.323A3.342,3.342,0,0,1,227.9,25.2a3.787,3.787,0,0,1,1.351.221,1.838,1.838,0,0,1,.858.6,2.347,2.347,0,0,1,.381,1.012l-1.083.147a1.182,1.182,0,0,0-.427-0.787,1.564,1.564,0,0,0-1-.283,1.814,1.814,0,0,0-1.089.252,0.735,0.735,0,0,0-.326.591,0.611,0.611,0,0,0,.135.388,0.972,0.972,0,0,0,.424.3q0.166,0.062.979,0.283a13.591,13.591,0,0,1,1.64.514,1.667,1.667,0,0,1,.729.582,1.624,1.624,0,0,1,.264.947A1.86,1.86,0,0,1,230.416,31a2.088,2.088,0,0,1-.932.757,3.39,3.39,0,0,1-1.378.268,3.073,3.073,0,0,1-1.941-.529A2.463,2.463,0,0,1,225.312,29.931Z" transform="translate(-8.507 -8.185)"/></svg>