<svg id="Layer_1" data-name="Layer 1" xmlns="http://www.w3.org/2000/svg" viewBox="0 0 791.483 353.134"><defs><style>.cls-1,.cls-5{fill:#f7941e;}.cls-1,.cls-2,.cls-3,.cls-7{stroke:#58595b;stroke-miterlimit:10;}.cls-2{fill:#009444;}.cls-3,.cls-4{fill:#1c75bc;}.cls-6{fill:#231f20;}.cls-7{fill:none;}</style></defs><title>IRS_combined_income_table</title><line class="cls-1" x1="188.236" y1="137.586" x2="385.525" y2="137.586"/><line class="cls-1" x1="375.737" y1="127.635" x2="385.607" y2="137.505"/><line class="cls-1" x1="385.607" y1="137.505" x2="375.737" y2="147.375"/><line class="cls-1" x1="188.236" y1="127.635" x2="188.236" y2="147.375"/><line class="cls-2" x1="390.38" y1="137.668" x2="587.669" y2="137.668"/><line class="cls-2" x1="577.881" y1="127.717" x2="587.75" y2="137.586"/><line class="cls-2" x1="587.75" y1="137.586" x2="577.881" y2="147.456"/><line class="cls-2" x1="390.38" y1="127.717" x2="390.38" y2="147.456"/><line class="cls-3" x1="592.673" y1="137.668" x2="789.962" y2="137.668"/><line class="cls-3" x1="780.174" y1="127.717" x2="790.043" y2="137.586"/><line class="cls-3" x1="790.043" y1="137.586" x2="780.174" y2="147.456"/><line class="cls-3" x1="592.673" y1="127.717" x2="592.673" y2="147.456"/><path class="cls-4" d="M15.406,179.711l1.516,0.383a5.1,5.1,0,0,1-1.715,2.848,4.728,4.728,0,0,1-3.027.98,5.437,5.437,0,0,1-3.012-.754A4.707,4.707,0,0,1,7.4,180.984a7.788,7.788,0,0,1-.605-3.07,6.745,6.745,0,0,1,.684-3.121,4.684,4.684,0,0,1,1.945-2.023,5.682,5.682,0,0,1,2.777-.691,4.7,4.7,0,0,1,2.891.875,4.543,4.543,0,0,1,1.633,2.461l-1.492.352a3.542,3.542,0,0,0-1.156-1.82,3.084,3.084,0,0,0-1.906-.57,3.7,3.7,0,0,0-2.207.633,3.339,3.339,0,0,0-1.246,1.7,6.838,6.838,0,0,0-.359,2.2,6.983,6.983,0,0,0,.426,2.551,3.17,3.17,0,0,0,1.324,1.629,3.712,3.712,0,0,0,1.945.539,3.263,3.263,0,0,0,2.156-.734A3.758,3.758,0,0,0,15.406,179.711Z" transform="translate(-6.297 -16.644)"/><path class="cls-4" d="M18.086,179.578a4.275,4.275,0,0,1,1.281-3.414,3.861,3.861,0,0,1,2.609-.922,3.724,3.724,0,0,1,2.8,1.121,4.267,4.267,0,0,1,1.086,3.1,5.491,5.491,0,0,1-.48,2.52,3.4,3.4,0,0,1-1.4,1.426,4.07,4.07,0,0,1-2,.508A3.728,3.728,0,0,1,19.16,182.8,4.462,4.462,0,0,1,18.086,179.578Zm1.445,0a3.532,3.532,0,0,0,.7,2.387,2.315,2.315,0,0,0,3.492,0,3.618,3.618,0,0,0,.7-2.43,3.428,3.428,0,0,0-.7-2.332,2.318,2.318,0,0,0-3.488,0A3.517,3.517,0,0,0,19.531,179.578Z" transform="translate(-6.297 -16.644)"/><path class="cls-4" d="M27.508,183.727v-8.3h1.258v1.164a2.924,2.924,0,0,1,2.516-1.352,2.734,2.734,0,0,1,1.512.383,2.05,2.05,0,0,1,.832,1.07,2.979,2.979,0,0,1,2.563-1.453,2.525,2.525,0,0,1,1.9.684,2.923,2.923,0,0,1,.664,2.105v5.7h-1.4V178.5a3.857,3.857,0,0,0-.137-1.215,1.182,1.182,0,0,0-.5-0.6,1.547,1.547,0,0,0-.844-0.227,1.964,1.964,0,0,0-1.453.582,2.561,2.561,0,0,0-.578,1.863v4.82H32.438v-5.391a2.373,2.373,0,0,0-.344-1.406,1.3,1.3,0,0,0-1.125-.469,2.046,2.046,0,0,0-1.1.313,1.769,1.769,0,0,0-.73.914,5.14,5.14,0,0,0-.227,1.734v4.3H27.508Z" transform="translate(-6.297 -16.644)"/><path class="cls-4" d="M42.133,183.727h-1.3V172.273h1.406v4.086a2.782,2.782,0,0,1,2.273-1.117,3.478,3.478,0,0,1,1.449.309,2.968,2.968,0,0,1,1.125.867,4.2,4.2,0,0,1,.691,1.348,5.564,5.564,0,0,1,.25,1.688,4.74,4.74,0,0,1-1.055,3.3,3.3,3.3,0,0,1-2.531,1.164,2.642,2.642,0,0,1-2.3-1.227v1.039Zm-0.016-4.211a4.3,4.3,0,0,0,.406,2.156,2.01,2.01,0,0,0,3.391.285,3.64,3.64,0,0,0,.672-2.387,3.7,3.7,0,0,0-.645-2.4,1.963,1.963,0,0,0-1.559-.773,2.021,2.021,0,0,0-1.594.8A3.514,3.514,0,0,0,42.117,179.516Z" transform="translate(-6.297 -16.644)"/><path class="cls-4" d="M49.742,173.891v-1.617h1.406v1.617H49.742Zm0,9.836v-8.3h1.406v8.3H49.742Z" transform="translate(-6.297 -16.644)"/><path class="cls-4" d="M53.289,183.727v-8.3h1.266v1.18a2.983,2.983,0,0,1,2.641-1.367,3.465,3.465,0,0,1,1.379.27,2.169,2.169,0,0,1,.941.707,2.721,2.721,0,0,1,.438,1.039,8.087,8.087,0,0,1,.078,1.367v5.1H58.625V178.68a3.788,3.788,0,0,0-.164-1.285,1.351,1.351,0,0,0-.582-0.68,1.855,1.855,0,0,0-.98-0.254,2.279,2.279,0,0,0-1.551.57A2.812,2.812,0,0,0,54.7,179.2v4.531H53.289Z" transform="translate(-6.297 -16.644)"/><path class="cls-4" d="M67.867,181.055l1.453,0.18a3.549,3.549,0,0,1-1.273,1.977,4.314,4.314,0,0,1-5.262-.418,4.381,4.381,0,0,1-1.066-3.145A4.585,4.585,0,0,1,62.8,176.4a3.65,3.65,0,0,1,2.8-1.156,3.548,3.548,0,0,1,2.719,1.133,4.5,4.5,0,0,1,1.055,3.188c0,0.083,0,.208-0.008.375H63.172a3.186,3.186,0,0,0,.773,2.094,2.3,2.3,0,0,0,1.734.727,2.154,2.154,0,0,0,1.32-.406A2.7,2.7,0,0,0,67.867,181.055Zm-4.617-2.273h4.633a2.81,2.81,0,0,0-.531-1.57,2.155,2.155,0,0,0-1.742-.812,2.232,2.232,0,0,0-1.629.648A2.566,2.566,0,0,0,63.25,178.781Z" transform="translate(-6.297 -16.644)"/><path class="cls-4" d="M76.469,183.727V182.68a2.581,2.581,0,0,1-2.32,1.234,3.256,3.256,0,0,1-1.824-.547,3.6,3.6,0,0,1-1.289-1.527,5.279,5.279,0,0,1-.457-2.254,5.894,5.894,0,0,1,.414-2.254,3.262,3.262,0,0,1,1.242-1.551,3.32,3.32,0,0,1,1.852-.539,2.767,2.767,0,0,1,2.289,1.141v-4.109h1.4v11.453h-1.3Zm-4.445-4.141a3.6,3.6,0,0,0,.672,2.383,2.025,2.025,0,0,0,1.586.789A1.988,1.988,0,0,0,75.848,182a3.476,3.476,0,0,0,.645-2.3,3.9,3.9,0,0,0-.656-2.5,2.018,2.018,0,0,0-1.617-.8,1.947,1.947,0,0,0-1.566.766A3.779,3.779,0,0,0,72.023,179.586Z" transform="translate(-6.297 -16.644)"/><path class="cls-4" d="M84.867,183.727V172.273h1.516v11.453H84.867Z" transform="translate(-6.297 -16.644)"/><path class="cls-4" d="M88.875,183.727v-8.3h1.266v1.18a2.983,2.983,0,0,1,2.641-1.367,3.465,3.465,0,0,1,1.379.27,2.169,2.169,0,0,1,.941.707,2.721,2.721,0,0,1,.438,1.039,8.087,8.087,0,0,1,.078,1.367v5.1H94.211V178.68a3.788,3.788,0,0,0-.164-1.285,1.351,1.351,0,0,0-.582-0.68,1.855,1.855,0,0,0-.98-0.254,2.279,2.279,0,0,0-1.551.57,2.812,2.812,0,0,0-.652,2.164v4.531H88.875Z" transform="translate(-6.297 -16.644)"/><path class="cls-4" d="M103.188,180.688l1.383,0.18a3.59,3.59,0,0,1-1.16,2.238,3.38,3.38,0,0,1-2.293.809,3.562,3.562,0,0,1-2.738-1.113,4.515,4.515,0,0,1-1.035-3.191,5.776,5.776,0,0,1,.445-2.352,3.1,3.1,0,0,1,1.355-1.512,4.02,4.02,0,0,1,1.98-.5,3.442,3.442,0,0,1,2.211.684,3.136,3.136,0,0,1,1.1,1.941l-1.367.211a2.271,2.271,0,0,0-.691-1.258,1.79,1.79,0,0,0-1.2-.422,2.182,2.182,0,0,0-1.727.762,3.616,3.616,0,0,0-.664,2.41A3.737,3.737,0,0,0,99.43,182a2.085,2.085,0,0,0,1.672.758,1.97,1.97,0,0,0,1.383-.508A2.523,2.523,0,0,0,103.188,180.688Z" transform="translate(-6.297 -16.644)"/><path class="cls-4" d="M105.25,179.578a4.275,4.275,0,0,1,1.281-3.414,3.861,3.861,0,0,1,2.609-.922,3.724,3.724,0,0,1,2.8,1.121,4.267,4.267,0,0,1,1.086,3.1,5.491,5.491,0,0,1-.48,2.52,3.4,3.4,0,0,1-1.4,1.426,4.07,4.07,0,0,1-2,.508,3.728,3.728,0,0,1-2.816-1.117A4.462,4.462,0,0,1,105.25,179.578Zm1.445,0a3.532,3.532,0,0,0,.7,2.387,2.315,2.315,0,0,0,3.492,0,3.618,3.618,0,0,0,.7-2.43,3.428,3.428,0,0,0-.7-2.332,2.318,2.318,0,0,0-3.488,0A3.517,3.517,0,0,0,106.7,179.578Z" transform="translate(-6.297 -16.644)"/><path class="cls-4" d="M114.672,183.727v-8.3h1.258v1.164a2.924,2.924,0,0,1,2.516-1.352,2.734,2.734,0,0,1,1.512.383,2.05,2.05,0,0,1,.832,1.07,2.979,2.979,0,0,1,2.563-1.453,2.525,2.525,0,0,1,1.9.684,2.923,2.923,0,0,1,.664,2.105v5.7h-1.4V178.5a3.857,3.857,0,0,0-.137-1.215,1.182,1.182,0,0,0-.5-0.6,1.547,1.547,0,0,0-.844-0.227,1.964,1.964,0,0,0-1.453.582,2.561,2.561,0,0,0-.578,1.863v4.82H119.6v-5.391a2.373,2.373,0,0,0-.344-1.406,1.3,1.3,0,0,0-1.125-.469,2.046,2.046,0,0,0-1.1.313,1.769,1.769,0,0,0-.73.914,5.14,5.14,0,0,0-.227,1.734v4.3h-1.406Z" transform="translate(-6.297 -16.644)"/><path class="cls-4" d="M133.68,181.055l1.453,0.18a3.549,3.549,0,0,1-1.273,1.977,4.314,4.314,0,0,1-5.262-.418,4.381,4.381,0,0,1-1.066-3.145,4.585,4.585,0,0,1,1.078-3.25,3.65,3.65,0,0,1,2.8-1.156,3.548,3.548,0,0,1,2.719,1.133,4.5,4.5,0,0,1,1.055,3.188c0,0.083,0,.208-0.008.375h-6.187a3.186,3.186,0,0,0,.773,2.094,2.3,2.3,0,0,0,1.734.727,2.154,2.154,0,0,0,1.32-.406A2.7,2.7,0,0,0,133.68,181.055Zm-4.617-2.273H133.7a2.81,2.81,0,0,0-.531-1.57,2.155,2.155,0,0,0-1.742-.812,2.232,2.232,0,0,0-1.629.648A2.566,2.566,0,0,0,129.063,178.781Z" transform="translate(-6.297 -16.644)"/><path class="cls-5" d="M281.288,132.592a10.473,10.473,0,0,1,.418-3.27,4.065,4.065,0,0,1,1.242-1.91,3.173,3.173,0,0,1,2.074-.672,3.39,3.39,0,0,1,1.617.371,3.094,3.094,0,0,1,1.148,1.07,5.751,5.751,0,0,1,.711,1.7,11.312,11.312,0,0,1,.258,2.707,10.513,10.513,0,0,1-.414,3.254,4.072,4.072,0,0,1-1.238,1.914,3.178,3.178,0,0,1-2.082.676,3.141,3.141,0,0,1-2.6-1.187A7.546,7.546,0,0,1,281.288,132.592Zm1.445,0a7.178,7.178,0,0,0,.66,3.754,1.886,1.886,0,0,0,3.258,0,7.185,7.185,0,0,0,.66-3.75,7.181,7.181,0,0,0-.66-3.758,1.959,1.959,0,0,0-1.645-.93,1.8,1.8,0,0,0-1.547.82A7.265,7.265,0,0,0,282.733,132.592Z" transform="translate(-6.297 -16.644)"/><path class="cls-5" d="M290.452,129.537a3.481,3.481,0,0,1,.617-2.086,2.065,2.065,0,0,1,1.789-.859,2.322,2.322,0,0,1,1.785.77,3.916,3.916,0,0,1-.008,4.5,2.289,2.289,0,0,1-1.762.785,2.224,2.224,0,0,1-1.73-.773A3.415,3.415,0,0,1,290.452,129.537Zm2.445-1.977a1.058,1.058,0,0,0-.871.453,2.868,2.868,0,0,0-.348,1.664,2.581,2.581,0,0,0,.352,1.551,1.07,1.07,0,0,0,1.746,0,2.855,2.855,0,0,0,.348-1.656,2.6,2.6,0,0,0-.352-1.559A1.07,1.07,0,0,0,292.9,127.561Zm0.008,11.1,6.266-12.07h1.141l-6.242,12.07h-1.164Zm4.953-3.109a3.475,3.475,0,0,1,.617-2.09,2.077,2.077,0,0,1,1.8-.855,2.322,2.322,0,0,1,1.785.77,3.916,3.916,0,0,1-.008,4.5,2.3,2.3,0,0,1-1.77.785,2.218,2.218,0,0,1-1.73-.777A3.419,3.419,0,0,1,297.858,135.553Zm2.453-1.977a1.065,1.065,0,0,0-.879.453,2.868,2.868,0,0,0-.348,1.664,2.581,2.581,0,0,0,.352,1.547,1.062,1.062,0,0,0,.867.453,1.073,1.073,0,0,0,.887-0.453,2.855,2.855,0,0,0,.348-1.656,2.6,2.6,0,0,0-.352-1.559A1.07,1.07,0,0,0,300.312,133.576Z" transform="translate(-6.297 -16.644)"/><path class="cls-5" d="M479.854,135.24l1.477-.125a2.648,2.648,0,0,0,.762,1.621,2.067,2.067,0,0,0,1.441.543,2.244,2.244,0,0,0,1.719-.766,2.886,2.886,0,0,0,.7-2.031,2.61,2.61,0,0,0-.676-1.9,2.354,2.354,0,0,0-1.77-.7,2.448,2.448,0,0,0-1.227.309,2.384,2.384,0,0,0-.859.8l-1.32-.172,1.109-5.883h5.7v1.344h-4.57l-0.617,3.078a3.726,3.726,0,0,1,2.164-.719,3.429,3.429,0,0,1,2.531,1.039,3.63,3.63,0,0,1,1.031,2.672,4.169,4.169,0,0,1-.906,2.688,3.631,3.631,0,0,1-3.008,1.391,3.707,3.707,0,0,1-2.551-.875A3.412,3.412,0,0,1,479.854,135.24Z" transform="translate(-6.297 -16.644)"/><path class="cls-5" d="M488.752,132.592a10.487,10.487,0,0,1,.418-3.27,4.065,4.065,0,0,1,1.242-1.91,3.175,3.175,0,0,1,2.074-.672,3.39,3.39,0,0,1,1.617.371,3.086,3.086,0,0,1,1.148,1.07,5.751,5.751,0,0,1,.711,1.7,11.312,11.312,0,0,1,.258,2.707,10.5,10.5,0,0,1-.414,3.254,4.068,4.068,0,0,1-1.238,1.914,3.177,3.177,0,0,1-2.082.676,3.141,3.141,0,0,1-2.6-1.187A7.549,7.549,0,0,1,488.752,132.592Zm1.445,0a7.178,7.178,0,0,0,.66,3.754,1.886,1.886,0,0,0,3.258,0,7.18,7.18,0,0,0,.66-3.75,7.176,7.176,0,0,0-.66-3.758,1.959,1.959,0,0,0-1.645-.93,1.8,1.8,0,0,0-1.547.82A7.265,7.265,0,0,0,490.2,132.592Z" transform="translate(-6.297 -16.644)"/><path class="cls-5" d="M497.916,129.537a3.485,3.485,0,0,1,.617-2.086,2.065,2.065,0,0,1,1.789-.859,2.322,2.322,0,0,1,1.785.77,3.916,3.916,0,0,1-.008,4.5,2.288,2.288,0,0,1-1.762.785,2.225,2.225,0,0,1-1.73-.773A3.415,3.415,0,0,1,497.916,129.537Zm2.445-1.977a1.058,1.058,0,0,0-.871.453,2.872,2.872,0,0,0-.348,1.664,2.581,2.581,0,0,0,.352,1.551,1.07,1.07,0,0,0,1.746,0,2.855,2.855,0,0,0,.348-1.656,2.6,2.6,0,0,0-.352-1.559A1.07,1.07,0,0,0,500.361,127.561Zm0.008,11.1,6.266-12.07h1.141l-6.242,12.07h-1.164Zm4.953-3.109a3.478,3.478,0,0,1,.617-2.09,2.077,2.077,0,0,1,1.8-.855,2.322,2.322,0,0,1,1.785.77,3.916,3.916,0,0,1-.008,4.5,2.3,2.3,0,0,1-1.77.785,2.219,2.219,0,0,1-1.73-.777A3.419,3.419,0,0,1,505.322,135.553Zm2.453-1.977a1.065,1.065,0,0,0-.879.453,2.872,2.872,0,0,0-.348,1.664,2.581,2.581,0,0,0,.352,1.547,1.075,1.075,0,0,0,1.754,0,2.855,2.855,0,0,0,.348-1.656,2.6,2.6,0,0,0-.352-1.559A1.07,1.07,0,0,0,507.775,133.576Z" transform="translate(-6.297 -16.644)"/><path class="cls-5" d="M683.944,132.032a2.653,2.653,0,0,1-1.3-.914,2.391,2.391,0,0,1-.422-1.422,2.782,2.782,0,0,1,.9-2.1,3.781,3.781,0,0,1,4.8.02,2.821,2.821,0,0,1,.914,2.121,2.339,2.339,0,0,1-.418,1.387,2.636,2.636,0,0,1-1.27.91,3.079,3.079,0,0,1,1.605,1.109,3.048,3.048,0,0,1,.551,1.828,3.291,3.291,0,0,1-1.039,2.469,4.232,4.232,0,0,1-5.469,0,3.34,3.34,0,0,1-1.039-2.5,3.025,3.025,0,0,1,.566-1.871A2.836,2.836,0,0,1,683.944,132.032Zm-0.734,2.906a2.539,2.539,0,0,0,.285,1.164,2.016,2.016,0,0,0,.848.871,2.474,2.474,0,0,0,1.211.309,2.268,2.268,0,0,0,1.664-.648,2.219,2.219,0,0,0,.656-1.648,2.257,2.257,0,0,0-.676-1.68,2.317,2.317,0,0,0-1.691-.664A2.237,2.237,0,0,0,683.21,134.938Zm0.453-5.289a1.784,1.784,0,0,0,.523,1.328,1.853,1.853,0,0,0,1.359.516,1.82,1.82,0,0,0,1.332-.512,1.69,1.69,0,0,0,.52-1.254,1.755,1.755,0,0,0-.535-1.3,1.822,1.822,0,0,0-1.332-.527,1.842,1.842,0,0,0-1.336.516A1.658,1.658,0,0,0,683.663,129.649Z" transform="translate(-6.297 -16.644)"/><path class="cls-5" d="M690.679,135.243l1.477-.125a2.648,2.648,0,0,0,.762,1.621,2.067,2.067,0,0,0,1.441.543,2.244,2.244,0,0,0,1.719-.766,2.886,2.886,0,0,0,.7-2.031,2.61,2.61,0,0,0-.676-1.9,2.354,2.354,0,0,0-1.77-.7,2.448,2.448,0,0,0-1.227.309,2.384,2.384,0,0,0-.859.8l-1.32-.172,1.109-5.883h5.7v1.344h-4.57l-0.617,3.078a3.726,3.726,0,0,1,2.164-.719,3.429,3.429,0,0,1,2.531,1.039,3.63,3.63,0,0,1,1.031,2.672,4.169,4.169,0,0,1-.906,2.688,3.631,3.631,0,0,1-3.008,1.391,3.707,3.707,0,0,1-2.551-.875A3.412,3.412,0,0,1,690.679,135.243Z" transform="translate(-6.297 -16.644)"/><path class="cls-5" d="M699.843,129.54a3.485,3.485,0,0,1,.617-2.086,2.065,2.065,0,0,1,1.789-.859,2.322,2.322,0,0,1,1.785.77,3.916,3.916,0,0,1-.008,4.5,2.288,2.288,0,0,1-1.762.785,2.225,2.225,0,0,1-1.73-.773A3.415,3.415,0,0,1,699.843,129.54Zm2.445-1.977a1.058,1.058,0,0,0-.871.453,2.872,2.872,0,0,0-.348,1.664,2.581,2.581,0,0,0,.352,1.551,1.07,1.07,0,0,0,1.746,0,2.855,2.855,0,0,0,.348-1.656,2.6,2.6,0,0,0-.352-1.559A1.07,1.07,0,0,0,702.288,127.563Zm0.008,11.1,6.266-12.07H709.7l-6.242,12.07H702.3Zm4.953-3.109a3.478,3.478,0,0,1,.617-2.09,2.077,2.077,0,0,1,1.8-.855,2.322,2.322,0,0,1,1.785.77,3.916,3.916,0,0,1-.008,4.5,2.3,2.3,0,0,1-1.77.785,2.219,2.219,0,0,1-1.73-.777A3.419,3.419,0,0,1,707.249,135.556Zm2.453-1.977a1.065,1.065,0,0,0-.879.453,2.872,2.872,0,0,0-.348,1.664,2.581,2.581,0,0,0,.352,1.547,1.075,1.075,0,0,0,1.754,0,2.855,2.855,0,0,0,.348-1.656,2.6,2.6,0,0,0-.352-1.559A1.07,1.07,0,0,0,709.7,133.579Z" transform="translate(-6.297 -16.644)"/><path class="cls-4" d="M188.671,179.578a10.473,10.473,0,0,1,.418-3.27,4.065,4.065,0,0,1,1.242-1.91,3.173,3.173,0,0,1,2.074-.672,3.39,3.39,0,0,1,1.617.371,3.094,3.094,0,0,1,1.148,1.07,5.751,5.751,0,0,1,.711,1.7,11.312,11.312,0,0,1,.258,2.707,10.513,10.513,0,0,1-.414,3.254,4.072,4.072,0,0,1-1.238,1.914,3.178,3.178,0,0,1-2.082.676,3.141,3.141,0,0,1-2.6-1.187A7.546,7.546,0,0,1,188.671,179.578Zm1.445,0a7.178,7.178,0,0,0,.66,3.754,1.886,1.886,0,0,0,3.258,0,11,11,0,0,0,0-7.508,1.959,1.959,0,0,0-1.645-.93,1.8,1.8,0,0,0-1.547.82A7.265,7.265,0,0,0,190.116,179.578Z" transform="translate(-6.297 -16.644)"/><path class="cls-4" d="M376.183,182.2l1.406-.187a3.1,3.1,0,0,0,.824,1.723,2.035,2.035,0,0,0,1.418.527,2.274,2.274,0,0,0,1.676-.687,2.319,2.319,0,0,0,.684-1.7,2.157,2.157,0,0,0-.633-1.6,2.189,2.189,0,0,0-1.609-.629,4.02,4.02,0,0,0-.992.156l0.156-1.234a2.059,2.059,0,0,0,.227.016,2.9,2.9,0,0,0,1.617-.469,1.6,1.6,0,0,0,.719-1.445,1.712,1.712,0,0,0-.523-1.281,1.859,1.859,0,0,0-1.352-.508,1.915,1.915,0,0,0-1.367.516,2.587,2.587,0,0,0-.7,1.547l-1.406-.25A3.616,3.616,0,0,1,377.5,174.5a3.386,3.386,0,0,1,2.273-.777,3.742,3.742,0,0,1,1.727.4,2.906,2.906,0,0,1,1.207,1.1,2.824,2.824,0,0,1,.418,1.477,2.417,2.417,0,0,1-.4,1.352,2.72,2.72,0,0,1-1.18.969,2.659,2.659,0,0,1,1.578.973,2.961,2.961,0,0,1,.563,1.848,3.379,3.379,0,0,1-1.094,2.543,3.848,3.848,0,0,1-2.766,1.043,3.6,3.6,0,0,1-2.5-.9A3.473,3.473,0,0,1,376.183,182.2Z" transform="translate(-6.297 -16.644)"/><path class="cls-4" d="M392.464,183.876v1.352h-7.57a2.475,2.475,0,0,1,.164-0.977,5.152,5.152,0,0,1,.926-1.523,14.549,14.549,0,0,1,1.84-1.734,15.555,15.555,0,0,0,2.523-2.426,2.905,2.905,0,0,0,.656-1.691,1.879,1.879,0,0,0-.6-1.41,2.156,2.156,0,0,0-1.559-.574,2.2,2.2,0,0,0-1.625.609,2.3,2.3,0,0,0-.617,1.688l-1.445-.148a3.558,3.558,0,0,1,1.117-2.465,3.808,3.808,0,0,1,2.6-.848,3.631,3.631,0,0,1,2.609.914,3,3,0,0,1,.961,2.266,3.436,3.436,0,0,1-.281,1.352,5.253,5.253,0,0,1-.934,1.4,22.748,22.748,0,0,1-2.168,2.016q-1.266,1.062-1.625,1.441a4.669,4.669,0,0,0-.594.762h5.617Z" transform="translate(-6.297 -16.644)"/><path class="cls-4" d="M394.37,185.228V173.774h1.406v6.531l3.328-3.375h1.82l-3.172,3.078,3.492,5.219h-1.734l-2.742-4.242-0.992.953v3.289H394.37Z" transform="translate(-6.297 -16.644)"/><path class="cls-4" d="M581.015,185.227v-2.742h-4.969V181.2l5.227-7.422h1.148V181.2h1.547v1.289h-1.547v2.742h-1.406Zm0-4.031v-5.164l-3.586,5.164h3.586Z" transform="translate(-6.297 -16.644)"/><path class="cls-4" d="M589.913,185.227v-2.742h-4.969V181.2l5.227-7.422h1.148V181.2h1.547v1.289h-1.547v2.742h-1.406Zm0-4.031v-5.164l-3.586,5.164h3.586Z" transform="translate(-6.297 -16.644)"/><path class="cls-4" d="M594.7,185.227V173.773h1.406V180.3l3.328-3.375h1.82l-3.172,3.078,3.492,5.219h-1.734l-2.742-4.242-0.992.953v3.289H594.7Z" transform="translate(-6.297 -16.644)"/><path class="cls-6" d="M388.631,93.868V81.553h2.453L394,90.272q0.4,1.219.588,1.823,0.211-.672.655-1.974l2.949-8.569h2.191V93.868h-1.57V83.561l-3.578,10.308h-1.471L390.2,83.384V93.868h-1.571Z" transform="translate(-6.297 -16.644)"/><path class="cls-6" d="M408.642,92.768a5.615,5.615,0,0,1-1.617,1.008,4.671,4.671,0,0,1-1.668.294,3.246,3.246,0,0,1-2.26-.718,2.371,2.371,0,0,1-.789-1.835,2.437,2.437,0,0,1,.3-1.2,2.464,2.464,0,0,1,.781-0.87,3.687,3.687,0,0,1,1.088-.5,10.873,10.873,0,0,1,1.344-.227,13.846,13.846,0,0,0,2.7-.521c0-.207.008-0.339,0.008-0.4a1.673,1.673,0,0,0-.428-1.3A2.534,2.534,0,0,0,406.373,86a2.669,2.669,0,0,0-1.575.374,2.286,2.286,0,0,0-.752,1.323l-1.479-.2a3.659,3.659,0,0,1,.664-1.533,2.9,2.9,0,0,1,1.336-.9,5.955,5.955,0,0,1,2.024-.315,5.36,5.36,0,0,1,1.856.269,2.447,2.447,0,0,1,1.05.676,2.374,2.374,0,0,1,.471,1.029,8.479,8.479,0,0,1,.075,1.395V90.13a21.375,21.375,0,0,0,.1,2.667,3.356,3.356,0,0,0,.383,1.071h-1.579A3.2,3.2,0,0,1,408.642,92.768Zm-0.126-3.377a11.083,11.083,0,0,1-2.47.571,5.714,5.714,0,0,0-1.319.3,1.319,1.319,0,0,0-.6.492,1.336,1.336,0,0,0,.248,1.726,1.97,1.97,0,0,0,1.34.4,3.12,3.12,0,0,0,1.555-.382,2.356,2.356,0,0,0,1-1.046,3.64,3.64,0,0,0,.244-1.512V89.391Z" transform="translate(-6.297 -16.644)"/><path class="cls-6" d="M412.371,93.868V84.946h1.361V86.3a3.684,3.684,0,0,1,.962-1.251,1.678,1.678,0,0,1,.97-0.3,2.952,2.952,0,0,1,1.555.487l-0.521,1.4a2.159,2.159,0,0,0-1.108-.328,1.44,1.44,0,0,0-.891.3,1.61,1.61,0,0,0-.562.828,5.89,5.89,0,0,0-.252,1.764v4.671h-1.513Z" transform="translate(-6.297 -16.644)"/><path class="cls-6" d="M418.1,93.868V84.946h1.361V86.3a3.684,3.684,0,0,1,.962-1.251,1.678,1.678,0,0,1,.97-0.3,2.952,2.952,0,0,1,1.555.487l-0.521,1.4a2.159,2.159,0,0,0-1.108-.328,1.44,1.44,0,0,0-.891.3,1.61,1.61,0,0,0-.562.828,5.89,5.89,0,0,0-.252,1.764v4.671H418.1Z" transform="translate(-6.297 -16.644)"/><path class="cls-6" d="M423.855,83.292V81.553h1.512v1.739h-1.512Zm0,10.577V84.946h1.512v8.922h-1.512Z" transform="translate(-6.297 -16.644)"/><path class="cls-6" d="M433.776,91l1.563,0.193a3.807,3.807,0,0,1-1.369,2.125,4.641,4.641,0,0,1-5.658-.449,4.714,4.714,0,0,1-1.146-3.381,4.931,4.931,0,0,1,1.159-3.495,3.925,3.925,0,0,1,3.008-1.244,3.816,3.816,0,0,1,2.924,1.218,4.841,4.841,0,0,1,1.134,3.428c0,0.089,0,.224-0.009.4h-6.653a3.43,3.43,0,0,0,.832,2.251,2.476,2.476,0,0,0,1.865.781,2.314,2.314,0,0,0,1.419-.437A2.9,2.9,0,0,0,433.776,91Zm-4.965-2.445h4.982a3.025,3.025,0,0,0-.571-1.688,2.319,2.319,0,0,0-1.874-.874,2.4,2.4,0,0,0-1.751.7A2.76,2.76,0,0,0,428.812,88.55Z" transform="translate(-6.297 -16.644)"/><path class="cls-6" d="M443.026,93.868V92.743a2.776,2.776,0,0,1-2.5,1.327,3.5,3.5,0,0,1-1.961-.587,3.874,3.874,0,0,1-1.387-1.643,5.683,5.683,0,0,1-.491-2.424,6.342,6.342,0,0,1,.445-2.423,3.509,3.509,0,0,1,1.336-1.667,3.569,3.569,0,0,1,1.991-.58,2.974,2.974,0,0,1,2.461,1.227V81.553h1.5V93.868h-1.4Zm-4.779-4.453a3.876,3.876,0,0,0,.722,2.563,2.18,2.18,0,0,0,1.706.849,2.141,2.141,0,0,0,1.685-.811,3.737,3.737,0,0,0,.692-2.474,4.2,4.2,0,0,0-.705-2.688A2.172,2.172,0,0,0,440.607,86a2.1,2.1,0,0,0-1.685.823A4.061,4.061,0,0,0,438.247,89.416Z" transform="translate(-6.297 -16.644)"/><path class="cls-6" d="M451.864,93.868V81.553h8.309v1.453h-6.679V86.82h5.78v1.454h-5.78v5.595h-1.63Z" transform="translate(-6.297 -16.644)"/><path class="cls-6" d="M462.1,83.292V81.553h1.512v1.739H462.1Zm0,10.577V84.946h1.512v8.922H462.1Z" transform="translate(-6.297 -16.644)"/><path class="cls-6" d="M465.885,93.868V81.553H467.4V93.868h-1.512Z" transform="translate(-6.297 -16.644)"/><path class="cls-6" d="M469.707,93.868V81.553h1.512V93.868h-1.512Z" transform="translate(-6.297 -16.644)"/><path class="cls-6" d="M473.572,83.292V81.553h1.512v1.739h-1.512Zm0,10.577V84.946h1.512v8.922h-1.512Z" transform="translate(-6.297 -16.644)"/><path class="cls-6" d="M477.386,93.868V84.946h1.361v1.269a3.207,3.207,0,0,1,2.84-1.47,3.724,3.724,0,0,1,1.482.29,2.334,2.334,0,0,1,1.012.76,2.915,2.915,0,0,1,.471,1.117,8.7,8.7,0,0,1,.084,1.47v5.486h-1.512V88.441a4.062,4.062,0,0,0-.177-1.382,1.449,1.449,0,0,0-.626-0.73,1.988,1.988,0,0,0-1.054-.273,2.451,2.451,0,0,0-1.668.613A3.026,3.026,0,0,0,478.9,89v4.873h-1.513Z" transform="translate(-6.297 -16.644)"/><path class="cls-6" d="M486.677,94.607l1.471,0.219a1.4,1.4,0,0,0,.513.991,2.522,2.522,0,0,0,1.537.42,2.7,2.7,0,0,0,1.621-.42,2.069,2.069,0,0,0,.773-1.177,9.676,9.676,0,0,0,.108-1.94,3.11,3.11,0,0,1-2.47,1.167,3.367,3.367,0,0,1-2.848-1.327,5.114,5.114,0,0,1-1.008-3.184A5.917,5.917,0,0,1,486.837,87a3.7,3.7,0,0,1,1.34-1.667,3.617,3.617,0,0,1,2.063-.588,3.2,3.2,0,0,1,2.6,1.277V84.946h1.395v7.712a7.309,7.309,0,0,1-.425,2.953,3.1,3.1,0,0,1-1.344,1.374,4.661,4.661,0,0,1-2.265.5,4.27,4.27,0,0,1-2.578-.719A2.429,2.429,0,0,1,486.677,94.607Zm1.252-5.36a3.87,3.87,0,0,0,.7,2.563,2.3,2.3,0,0,0,3.5,0,3.742,3.742,0,0,0,.705-2.516,3.66,3.66,0,0,0-.727-2.47A2.247,2.247,0,0,0,490.349,86a2.184,2.184,0,0,0-1.714.819A3.637,3.637,0,0,0,487.929,89.248Z" transform="translate(-6.297 -16.644)"/><path class="cls-6" d="M500.665,90.374l1.47-.2a3.147,3.147,0,0,0,.529,1.932,1.666,1.666,0,0,0,1.3.521,1.936,1.936,0,0,0,1.059-.282,1.446,1.446,0,0,0,.613-0.764,5.1,5.1,0,0,0,.168-1.542V81.553h1.63v8.392a6.118,6.118,0,0,1-.374,2.395,2.659,2.659,0,0,1-1.185,1.293,3.89,3.89,0,0,1-1.9.445,3.21,3.21,0,0,1-2.482-.933A3.846,3.846,0,0,1,500.665,90.374Z" transform="translate(-6.297 -16.644)"/><path class="cls-6" d="M509.343,89.407a4.6,4.6,0,0,1,1.378-3.671,4.148,4.148,0,0,1,2.806-.992,4.006,4.006,0,0,1,3.008,1.206,4.587,4.587,0,0,1,1.167,3.331,5.9,5.9,0,0,1-.517,2.709,3.65,3.65,0,0,1-1.5,1.533,4.378,4.378,0,0,1-2.155.546,4.007,4.007,0,0,1-3.028-1.2A4.8,4.8,0,0,1,509.343,89.407Zm1.554,0a3.8,3.8,0,0,0,.748,2.566,2.489,2.489,0,0,0,3.755,0,3.888,3.888,0,0,0,.748-2.613,3.688,3.688,0,0,0-.752-2.508,2.493,2.493,0,0,0-3.751,0A3.784,3.784,0,0,0,510.9,89.407Z" transform="translate(-6.297 -16.644)"/><path class="cls-6" d="M519.482,83.292V81.553h1.512v1.739h-1.512Zm0,10.577V84.946h1.512v8.922h-1.512Z" transform="translate(-6.297 -16.644)"/><path class="cls-6" d="M523.3,93.868V84.946h1.361v1.269a3.207,3.207,0,0,1,2.84-1.47,3.724,3.724,0,0,1,1.482.29,2.334,2.334,0,0,1,1.012.76,2.915,2.915,0,0,1,.471,1.117,8.7,8.7,0,0,1,.084,1.47v5.486h-1.512V88.441a4.062,4.062,0,0,0-.177-1.382,1.449,1.449,0,0,0-.626-0.73,1.988,1.988,0,0,0-1.054-.273,2.451,2.451,0,0,0-1.668.613,3.026,3.026,0,0,0-.7,2.327v4.873H523.3Z" transform="translate(-6.297 -16.644)"/><path class="cls-6" d="M536.166,92.516l0.219,1.336a5.66,5.66,0,0,1-1.143.134,2.6,2.6,0,0,1-1.277-.26,1.465,1.465,0,0,1-.639-0.685,5.426,5.426,0,0,1-.185-1.786V86.123h-1.108V84.946h1.108V82.737l1.5-.907v3.117h1.521v1.176h-1.521v5.217a2.619,2.619,0,0,0,.08.832,0.628,0.628,0,0,0,.26.294,1.011,1.011,0,0,0,.518.109A4.93,4.93,0,0,0,536.166,92.516Z" transform="translate(-6.297 -16.644)"/><path class="cls-6" d="M537.611,93.868V81.553h1.512V93.868h-1.512Z" transform="translate(-6.297 -16.644)"/><path class="cls-6" d="M541.4,97.3l-0.169-1.419a3.4,3.4,0,0,0,.866.134,1.653,1.653,0,0,0,.806-0.168,1.37,1.37,0,0,0,.5-0.471,7.453,7.453,0,0,0,.462-1.125c0.028-.084.073-0.208,0.135-0.37l-3.386-8.938h1.63l1.856,5.167q0.36,0.983.646,2.067a20.337,20.337,0,0,1,.622-2.033l1.907-5.2h1.512l-3.394,9.073a17.931,17.931,0,0,1-.849,2.024,2.993,2.993,0,0,1-.924,1.1,2.185,2.185,0,0,1-1.244.349A3.027,3.027,0,0,1,541.4,97.3Z" transform="translate(-6.297 -16.644)"/><path class="cls-6" d="M557.74,97.489a15.1,15.1,0,0,1-2.117-3.7,11.605,11.605,0,0,1-.219-8.216,16.087,16.087,0,0,1,2.336-4.234h1.083q-1.017,1.748-1.344,2.5a13.649,13.649,0,0,0-.807,2.419,14.033,14.033,0,0,0-.361,3.159,15.159,15.159,0,0,0,2.512,8.074H557.74Z" transform="translate(-6.297 -16.644)"/><path class="cls-6" d="M568.106,92.415v1.453h-8.141a2.683,2.683,0,0,1,.177-1.05,5.567,5.567,0,0,1,1-1.638,15.649,15.649,0,0,1,1.979-1.865,16.779,16.779,0,0,0,2.714-2.608,3.12,3.12,0,0,0,.705-1.819,2.021,2.021,0,0,0-.643-1.517,2.315,2.315,0,0,0-1.676-.617,2.361,2.361,0,0,0-1.747.655,2.482,2.482,0,0,0-.664,1.814l-1.554-.16a3.827,3.827,0,0,1,1.2-2.65,4.1,4.1,0,0,1,2.8-.912,3.9,3.9,0,0,1,2.806.983,3.229,3.229,0,0,1,1.033,2.437,3.686,3.686,0,0,1-.3,1.453,5.625,5.625,0,0,1-1,1.5,24.42,24.42,0,0,1-2.331,2.167q-1.361,1.143-1.747,1.55a4.978,4.978,0,0,0-.639.819h6.04Z" transform="translate(-6.297 -16.644)"/><path class="cls-6" d="M569.728,87.794a11.294,11.294,0,0,1,.449-3.516,4.377,4.377,0,0,1,1.336-2.054,3.417,3.417,0,0,1,2.23-.723,3.64,3.64,0,0,1,1.739.4,3.316,3.316,0,0,1,1.234,1.151,6.158,6.158,0,0,1,.765,1.831,12.13,12.13,0,0,1,.277,2.911,11.3,11.3,0,0,1-.445,3.5,4.374,4.374,0,0,1-1.331,2.058,3.417,3.417,0,0,1-2.239.727,3.378,3.378,0,0,1-2.8-1.277Q569.728,91.264,569.728,87.794Zm1.555,0q0,3.033.71,4.037a2.028,2.028,0,0,0,3.5,0q0.709-1.008.71-4.032,0-3.041-.71-4.041a2.107,2.107,0,0,0-1.769-1,1.937,1.937,0,0,0-1.663.882A7.806,7.806,0,0,0,571.282,87.794Z" transform="translate(-6.297 -16.644)"/><path class="cls-6" d="M584.992,93.868h-1.513V84.232a7.817,7.817,0,0,1-1.432,1.042,10.125,10.125,0,0,1-1.593.781V84.594a9.146,9.146,0,0,0,2.218-1.445,5.7,5.7,0,0,0,1.345-1.647h0.975V93.868Z" transform="translate(-6.297 -16.644)"/><path class="cls-6" d="M588.864,90.642l1.588-.134a2.848,2.848,0,0,0,.819,1.743,2.225,2.225,0,0,0,1.55.584,2.417,2.417,0,0,0,1.849-.823,3.1,3.1,0,0,0,.756-2.185,2.8,2.8,0,0,0-.727-2.041,2.535,2.535,0,0,0-1.9-.748,2.634,2.634,0,0,0-1.318.332,2.565,2.565,0,0,0-.925.861l-1.42-.185,1.193-6.326h6.124v1.445h-4.914l-0.664,3.31A4.008,4.008,0,0,1,593.2,85.7a3.687,3.687,0,0,1,2.722,1.117,3.906,3.906,0,0,1,1.109,2.873,4.487,4.487,0,0,1-.975,2.89,3.9,3.9,0,0,1-3.234,1.5,3.983,3.983,0,0,1-2.743-.941A3.67,3.67,0,0,1,588.864,90.642Z" transform="translate(-6.297 -16.644)"/><path class="cls-6" d="M599.845,97.489h-1.083a15.167,15.167,0,0,0,2.512-8.074,13.83,13.83,0,0,0-.361-3.133,13.228,13.228,0,0,0-.8-2.419q-0.328-.756-1.353-2.521h1.083a16.087,16.087,0,0,1,2.336,4.234,11.579,11.579,0,0,1-.223,8.216A15.411,15.411,0,0,1,599.845,97.489Z" transform="translate(-6.297 -16.644)"/><line class="cls-7" x1="189.322" y1="321.933" x2="386.612" y2="321.933"/><line class="cls-7" x1="376.823" y1="311.983" x2="386.693" y2="321.852"/><line class="cls-7" x1="386.693" y1="321.852" x2="376.823" y2="331.722"/><line class="cls-7" x1="189.322" y1="311.983" x2="189.322" y2="331.722"/><line class="cls-7" x1="391.466" y1="322.015" x2="588.755" y2="322.015"/><line class="cls-7" x1="578.967" y1="312.064" x2="588.837" y2="321.933"/><line class="cls-7" x1="588.837" y1="321.933" x2="578.967" y2="331.803"/><line class="cls-7" x1="391.466" y1="312.064" x2="391.466" y2="331.803"/><line class="cls-7" x1="593.759" y1="322.015" x2="791.048" y2="322.015"/><line class="cls-7" x1="781.26" y1="312.064" x2="791.129" y2="321.933"/><line class="cls-7" x1="791.129" y1="321.933" x2="781.26" y2="331.803"/><line class="cls-7" x1="593.759" y1="312.064" x2="593.759" y2="331.803"/><path class="cls-5" d="M281.374,316.94a10.473,10.473,0,0,1,.418-3.27,4.065,4.065,0,0,1,1.242-1.91,3.173,3.173,0,0,1,2.074-.672,3.39,3.39,0,0,1,1.617.371,3.094,3.094,0,0,1,1.148,1.07,5.751,5.751,0,0,1,.711,1.7,11.312,11.312,0,0,1,.258,2.707,10.513,10.513,0,0,1-.414,3.254,4.072,4.072,0,0,1-1.238,1.914,3.178,3.178,0,0,1-2.082.676,3.141,3.141,0,0,1-2.6-1.187A7.546,7.546,0,0,1,281.374,316.94Zm1.445,0a7.178,7.178,0,0,0,.66,3.754,1.886,1.886,0,0,0,3.258,0,11,11,0,0,0,0-7.508,1.959,1.959,0,0,0-1.645-.93,1.8,1.8,0,0,0-1.547.82A7.265,7.265,0,0,0,282.819,316.94Z" transform="translate(-6.297 -16.644)"/><path class="cls-5" d="M290.538,313.886a3.481,3.481,0,0,1,.617-2.086,2.065,2.065,0,0,1,1.789-.859,2.322,2.322,0,0,1,1.785.77,3.916,3.916,0,0,1-.008,4.5,2.289,2.289,0,0,1-1.762.785,2.224,2.224,0,0,1-1.73-.773A3.415,3.415,0,0,1,290.538,313.886Zm2.445-1.977a1.058,1.058,0,0,0-.871.453,2.868,2.868,0,0,0-.348,1.664,2.581,2.581,0,0,0,.352,1.551,1.07,1.07,0,0,0,1.746,0,2.855,2.855,0,0,0,.348-1.656,2.6,2.6,0,0,0-.352-1.559A1.07,1.07,0,0,0,292.983,311.909Zm0.008,11.1,6.266-12.07H300.4l-6.242,12.07h-1.164Zm4.953-3.109a3.475,3.475,0,0,1,.617-2.09,2.077,2.077,0,0,1,1.8-.855,2.322,2.322,0,0,1,1.785.77,3.916,3.916,0,0,1-.008,4.5,2.3,2.3,0,0,1-1.77.785,2.218,2.218,0,0,1-1.73-.777A3.419,3.419,0,0,1,297.944,319.9Zm2.453-1.977a1.065,1.065,0,0,0-.879.453,2.868,2.868,0,0,0-.348,1.664,2.581,2.581,0,0,0,.352,1.547,1.062,1.062,0,0,0,.867.453,1.073,1.073,0,0,0,.887-0.453,2.855,2.855,0,0,0,.348-1.656,2.6,2.6,0,0,0-.352-1.559A1.07,1.07,0,0,0,300.4,317.925Z" transform="translate(-6.297 -16.644)"/><path class="cls-5" d="M479.94,319.588l1.477-.125a2.648,2.648,0,0,0,.762,1.621,2.067,2.067,0,0,0,1.441.543,2.244,2.244,0,0,0,1.719-.766,2.886,2.886,0,0,0,.7-2.031,2.61,2.61,0,0,0-.676-1.9,2.354,2.354,0,0,0-1.77-.7,2.448,2.448,0,0,0-1.227.309,2.384,2.384,0,0,0-.859.8l-1.32-.172,1.109-5.883H487v1.344h-4.57l-0.617,3.078a3.726,3.726,0,0,1,2.164-.719,3.429,3.429,0,0,1,2.531,1.039,3.63,3.63,0,0,1,1.031,2.672,4.169,4.169,0,0,1-.906,2.688,3.631,3.631,0,0,1-3.008,1.391,3.707,3.707,0,0,1-2.551-.875A3.412,3.412,0,0,1,479.94,319.588Z" transform="translate(-6.297 -16.644)"/><path class="cls-5" d="M488.839,316.939a10.487,10.487,0,0,1,.418-3.27,4.065,4.065,0,0,1,1.242-1.91,3.175,3.175,0,0,1,2.074-.672,3.39,3.39,0,0,1,1.617.371,3.086,3.086,0,0,1,1.148,1.07,5.751,5.751,0,0,1,.711,1.7,11.312,11.312,0,0,1,.258,2.707,10.5,10.5,0,0,1-.414,3.254,4.068,4.068,0,0,1-1.238,1.914,3.177,3.177,0,0,1-2.082.676,3.141,3.141,0,0,1-2.6-1.187A7.549,7.549,0,0,1,488.839,316.939Zm1.445,0a7.178,7.178,0,0,0,.66,3.754,1.886,1.886,0,0,0,3.258,0,11,11,0,0,0,0-7.508,1.959,1.959,0,0,0-1.645-.93,1.8,1.8,0,0,0-1.547.82A7.265,7.265,0,0,0,490.284,316.939Z" transform="translate(-6.297 -16.644)"/><path class="cls-5" d="M498,313.885a3.485,3.485,0,0,1,.617-2.086,2.065,2.065,0,0,1,1.789-.859,2.322,2.322,0,0,1,1.785.77,3.916,3.916,0,0,1-.008,4.5,2.288,2.288,0,0,1-1.762.785,2.225,2.225,0,0,1-1.73-.773A3.415,3.415,0,0,1,498,313.885Zm2.445-1.977a1.058,1.058,0,0,0-.871.453,2.872,2.872,0,0,0-.348,1.664,2.581,2.581,0,0,0,.352,1.551,1.07,1.07,0,0,0,1.746,0,2.855,2.855,0,0,0,.348-1.656,2.6,2.6,0,0,0-.352-1.559A1.07,1.07,0,0,0,500.448,311.908Zm0.008,11.1,6.266-12.07h1.141l-6.242,12.07h-1.164Zm4.953-3.109a3.478,3.478,0,0,1,.617-2.09,2.077,2.077,0,0,1,1.8-.855,2.322,2.322,0,0,1,1.785.77,3.916,3.916,0,0,1-.008,4.5,2.3,2.3,0,0,1-1.77.785,2.219,2.219,0,0,1-1.73-.777A3.419,3.419,0,0,1,505.409,319.9Zm2.453-1.977a1.065,1.065,0,0,0-.879.453,2.872,2.872,0,0,0-.348,1.664,2.581,2.581,0,0,0,.352,1.547,1.075,1.075,0,0,0,1.754,0,2.855,2.855,0,0,0,.348-1.656,2.6,2.6,0,0,0-.352-1.559A1.07,1.07,0,0,0,507.862,317.924Z" transform="translate(-6.297 -16.644)"/><path class="cls-5" d="M684.03,316.379a2.653,2.653,0,0,1-1.3-.914,2.391,2.391,0,0,1-.422-1.422,2.782,2.782,0,0,1,.9-2.1,3.781,3.781,0,0,1,4.8.02,2.821,2.821,0,0,1,.914,2.121,2.339,2.339,0,0,1-.418,1.387,2.636,2.636,0,0,1-1.27.91,3.079,3.079,0,0,1,1.605,1.109,3.048,3.048,0,0,1,.551,1.828,3.291,3.291,0,0,1-1.039,2.469,4.232,4.232,0,0,1-5.469,0,3.34,3.34,0,0,1-1.039-2.5,3.025,3.025,0,0,1,.566-1.871A2.836,2.836,0,0,1,684.03,316.379Zm-0.734,2.906a2.539,2.539,0,0,0,.285,1.164,2.016,2.016,0,0,0,.848.871,2.474,2.474,0,0,0,1.211.309,2.268,2.268,0,0,0,1.664-.648,2.219,2.219,0,0,0,.656-1.648,2.257,2.257,0,0,0-.676-1.68,2.317,2.317,0,0,0-1.691-.664A2.237,2.237,0,0,0,683.3,319.285ZM683.749,314a1.784,1.784,0,0,0,.523,1.328,1.853,1.853,0,0,0,1.359.516,1.82,1.82,0,0,0,1.332-.512,1.69,1.69,0,0,0,.52-1.254,1.755,1.755,0,0,0-.535-1.3,1.822,1.822,0,0,0-1.332-.527,1.842,1.842,0,0,0-1.336.516A1.658,1.658,0,0,0,683.749,314Z" transform="translate(-6.297 -16.644)"/><path class="cls-5" d="M690.765,319.59l1.477-.125a2.648,2.648,0,0,0,.762,1.621,2.067,2.067,0,0,0,1.441.543,2.244,2.244,0,0,0,1.719-.766,2.886,2.886,0,0,0,.7-2.031,2.61,2.61,0,0,0-.676-1.9,2.354,2.354,0,0,0-1.77-.7,2.448,2.448,0,0,0-1.227.309,2.384,2.384,0,0,0-.859.8l-1.32-.172,1.109-5.883h5.7v1.344h-4.57l-0.617,3.078A3.726,3.726,0,0,1,694.8,315a3.429,3.429,0,0,1,2.531,1.039,3.63,3.63,0,0,1,1.031,2.672,4.169,4.169,0,0,1-.906,2.688,3.631,3.631,0,0,1-3.008,1.391,3.707,3.707,0,0,1-2.551-.875A3.412,3.412,0,0,1,690.765,319.59Z" transform="translate(-6.297 -16.644)"/><path class="cls-5" d="M699.929,313.887a3.485,3.485,0,0,1,.617-2.086,2.065,2.065,0,0,1,1.789-.859,2.322,2.322,0,0,1,1.785.77,3.916,3.916,0,0,1-.008,4.5,2.288,2.288,0,0,1-1.762.785,2.225,2.225,0,0,1-1.73-.773A3.415,3.415,0,0,1,699.929,313.887Zm2.445-1.977a1.058,1.058,0,0,0-.871.453,2.872,2.872,0,0,0-.348,1.664,2.581,2.581,0,0,0,.352,1.551,1.07,1.07,0,0,0,1.746,0,2.855,2.855,0,0,0,.348-1.656,2.6,2.6,0,0,0-.352-1.559A1.07,1.07,0,0,0,702.374,311.91Zm0.008,11.1,6.266-12.07h1.141l-6.242,12.07h-1.164Zm4.953-3.109a3.478,3.478,0,0,1,.617-2.09,2.077,2.077,0,0,1,1.8-.855,2.322,2.322,0,0,1,1.785.77,3.916,3.916,0,0,1-.008,4.5,2.3,2.3,0,0,1-1.77.785,2.219,2.219,0,0,1-1.73-.777A3.419,3.419,0,0,1,707.335,319.9Zm2.453-1.977a1.065,1.065,0,0,0-.879.453,2.872,2.872,0,0,0-.348,1.664,2.581,2.581,0,0,0,.352,1.547,1.075,1.075,0,0,0,1.754,0,2.855,2.855,0,0,0,.348-1.656,2.6,2.6,0,0,0-.352-1.559A1.07,1.07,0,0,0,709.788,317.926Z" transform="translate(-6.297 -16.644)"/><path class="cls-4" d="M189.758,363.926a10.473,10.473,0,0,1,.418-3.27,4.065,4.065,0,0,1,1.242-1.91,3.173,3.173,0,0,1,2.074-.672,3.39,3.39,0,0,1,1.617.371,3.094,3.094,0,0,1,1.148,1.07,5.751,5.751,0,0,1,.711,1.7,11.312,11.312,0,0,1,.258,2.707,10.513,10.513,0,0,1-.414,3.254,4.072,4.072,0,0,1-1.238,1.914,3.178,3.178,0,0,1-2.082.676,3.141,3.141,0,0,1-2.6-1.187A7.546,7.546,0,0,1,189.758,363.926Zm1.445,0a7.178,7.178,0,0,0,.66,3.754,1.886,1.886,0,0,0,3.258,0,11,11,0,0,0,0-7.508,1.959,1.959,0,0,0-1.645-.93,1.8,1.8,0,0,0-1.547.82A7.265,7.265,0,0,0,191.2,363.926Z" transform="translate(-6.297 -16.644)"/><path class="cls-4" d="M384.649,368.224v1.352h-7.571a2.475,2.475,0,0,1,.164-0.977,5.152,5.152,0,0,1,.926-1.523,14.482,14.482,0,0,1,1.84-1.734,15.584,15.584,0,0,0,2.524-2.426,2.905,2.905,0,0,0,.656-1.691,1.879,1.879,0,0,0-.6-1.41,2.156,2.156,0,0,0-1.559-.574,2.2,2.2,0,0,0-1.625.609,2.3,2.3,0,0,0-.617,1.688l-1.445-.148a3.556,3.556,0,0,1,1.117-2.465,3.808,3.808,0,0,1,2.6-.848,3.631,3.631,0,0,1,2.61.914,3,3,0,0,1,.961,2.266,3.436,3.436,0,0,1-.281,1.352,5.253,5.253,0,0,1-.934,1.4,22.953,22.953,0,0,1-2.168,2.016q-1.266,1.062-1.625,1.441a4.643,4.643,0,0,0-.594.762h5.618Z" transform="translate(-6.297 -16.644)"/><path class="cls-4" d="M386.157,366.575l1.477-.125a2.648,2.648,0,0,0,.762,1.621,2.067,2.067,0,0,0,1.441.543,2.242,2.242,0,0,0,1.718-.766,2.886,2.886,0,0,0,.7-2.031,2.606,2.606,0,0,0-.676-1.9,2.354,2.354,0,0,0-1.769-.7,2.448,2.448,0,0,0-1.227.309,2.377,2.377,0,0,0-.859.8l-1.32-.172,1.109-5.883h5.694v1.344h-4.569l-0.617,3.078a3.723,3.723,0,0,1,2.164-.719,3.429,3.429,0,0,1,2.53,1.039,3.63,3.63,0,0,1,1.031,2.672,4.164,4.164,0,0,1-.906,2.688,3.63,3.63,0,0,1-3.007,1.391,3.7,3.7,0,0,1-2.551-.875A3.412,3.412,0,0,1,386.157,366.575Z" transform="translate(-6.297 -16.644)"/><path class="cls-4" d="M395.453,369.575V358.122h1.406v6.531l3.328-3.375h1.82l-3.172,3.078,3.492,5.219h-1.734l-2.742-4.242-0.992.953v3.289h-1.406Z" transform="translate(-6.297 -16.644)"/><path class="cls-4" d="M577.6,366.551l1.406-.187a3.1,3.1,0,0,0,.824,1.723,2.035,2.035,0,0,0,1.418.527,2.274,2.274,0,0,0,1.676-.687,2.319,2.319,0,0,0,.684-1.7,2.157,2.157,0,0,0-.633-1.6,2.188,2.188,0,0,0-1.609-.629,4.02,4.02,0,0,0-.992.156l0.156-1.234a2.059,2.059,0,0,0,.227.016,2.9,2.9,0,0,0,1.617-.469,1.6,1.6,0,0,0,.719-1.445,1.712,1.712,0,0,0-.523-1.281,1.858,1.858,0,0,0-1.352-.508,1.915,1.915,0,0,0-1.367.516,2.592,2.592,0,0,0-.7,1.547l-1.406-.25a3.616,3.616,0,0,1,1.172-2.191,3.386,3.386,0,0,1,2.273-.777,3.742,3.742,0,0,1,1.727.4,2.906,2.906,0,0,1,1.207,1.1,2.824,2.824,0,0,1,.418,1.477,2.417,2.417,0,0,1-.4,1.352,2.72,2.72,0,0,1-1.18.969,2.659,2.659,0,0,1,1.578.973,2.961,2.961,0,0,1,.563,1.848,3.379,3.379,0,0,1-1.094,2.543,3.848,3.848,0,0,1-2.766,1.043,3.6,3.6,0,0,1-2.5-.9A3.473,3.473,0,0,1,577.6,366.551Z" transform="translate(-6.297 -16.644)"/><path class="cls-4" d="M591,369.574v-2.742H586.03v-1.289l5.227-7.422h1.148v7.422h1.547v1.289h-1.547v2.742H591Zm0-4.031v-5.164l-3.586,5.164H591Z" transform="translate(-6.297 -16.644)"/><path class="cls-4" d="M595.788,369.574V358.121h1.406v6.531l3.328-3.375h1.82l-3.172,3.078,3.492,5.219h-1.734l-2.742-4.242-0.992.953v3.289h-1.406Z" transform="translate(-6.297 -16.644)"/><path class="cls-6" d="M358.713,276.084l1.537-.134a3.388,3.388,0,0,0,.508,1.516,2.768,2.768,0,0,0,1.239.958,4.7,4.7,0,0,0,1.89.365,4.514,4.514,0,0,0,1.646-.277,2.281,2.281,0,0,0,1.063-.76,1.765,1.765,0,0,0,.349-1.055,1.6,1.6,0,0,0-.336-1.012,2.473,2.473,0,0,0-1.109-.727,21.754,21.754,0,0,0-2.192-.6,11.172,11.172,0,0,1-2.377-.769,3.328,3.328,0,0,1-1.315-1.146,2.813,2.813,0,0,1-.433-1.533,3.135,3.135,0,0,1,.529-1.743,3.282,3.282,0,0,1,1.546-1.23,5.859,5.859,0,0,1,2.26-.42,6.175,6.175,0,0,1,2.415.44,3.482,3.482,0,0,1,1.609,1.3,3.731,3.731,0,0,1,.6,1.941l-1.562.117a2.52,2.52,0,0,0-.853-1.764,3.316,3.316,0,0,0-2.146-.6,3.443,3.443,0,0,0-2.155.542,1.623,1.623,0,0,0-.676,1.306,1.4,1.4,0,0,0,.479,1.093,6.5,6.5,0,0,0,2.458.878,16.24,16.24,0,0,1,2.726.785A3.733,3.733,0,0,1,368,274.812a3.063,3.063,0,0,1,.512,1.752,3.344,3.344,0,0,1-.563,1.852,3.7,3.7,0,0,1-1.617,1.353,5.628,5.628,0,0,1-2.373.483,7.08,7.08,0,0,1-2.8-.487,3.918,3.918,0,0,1-1.772-1.466A4.155,4.155,0,0,1,358.713,276.084Z" transform="translate(-6.297 -16.644)"/><path class="cls-6" d="M370.558,269.464v-1.738h1.512v1.738h-1.512Zm0,10.577v-8.922h1.512v8.922h-1.512Z" transform="translate(-6.297 -16.644)"/><path class="cls-6" d="M374.372,280.041v-8.922h1.361v1.269a3.208,3.208,0,0,1,2.839-1.47,3.725,3.725,0,0,1,1.483.29,2.328,2.328,0,0,1,1.012.76,2.923,2.923,0,0,1,.471,1.117,8.705,8.705,0,0,1,.084,1.471v5.485H380.11v-5.427a4.067,4.067,0,0,0-.177-1.382,1.457,1.457,0,0,0-.625-0.731,2,2,0,0,0-1.055-.272,2.448,2.448,0,0,0-1.667.613,3.024,3.024,0,0,0-.7,2.327v4.872h-1.512Z" transform="translate(-6.297 -16.644)"/><path class="cls-6" d="M383.664,280.78l1.47,0.219a1.4,1.4,0,0,0,.513.991,2.522,2.522,0,0,0,1.537.42,2.7,2.7,0,0,0,1.621-.42,2.069,2.069,0,0,0,.773-1.177,9.673,9.673,0,0,0,.108-1.94,3.108,3.108,0,0,1-2.469,1.168,3.37,3.37,0,0,1-2.849-1.327,5.113,5.113,0,0,1-1.008-3.185,5.936,5.936,0,0,1,.462-2.356,3.7,3.7,0,0,1,1.34-1.667,3.622,3.622,0,0,1,2.063-.588,3.2,3.2,0,0,1,2.6,1.276v-1.075h1.395v7.712a7.309,7.309,0,0,1-.425,2.953,3.1,3.1,0,0,1-1.344,1.374,4.66,4.66,0,0,1-2.264.5,4.271,4.271,0,0,1-2.579-.719A2.428,2.428,0,0,1,383.664,280.78Zm1.251-5.359a3.868,3.868,0,0,0,.7,2.562,2.214,2.214,0,0,0,1.748.807,2.237,2.237,0,0,0,1.747-.8,3.745,3.745,0,0,0,.705-2.517,3.659,3.659,0,0,0-.727-2.47,2.246,2.246,0,0,0-1.751-.832,2.184,2.184,0,0,0-1.714.819A3.638,3.638,0,0,0,384.915,275.421Z" transform="translate(-6.297 -16.644)"/><path class="cls-6" d="M393.476,280.041V267.726h1.512v12.315h-1.512Z" transform="translate(-6.297 -16.644)"/><path class="cls-6" d="M403.438,277.168L405,277.361a3.805,3.805,0,0,1-1.369,2.125,4.641,4.641,0,0,1-5.658-.449,4.713,4.713,0,0,1-1.146-3.381,4.933,4.933,0,0,1,1.159-3.5,3.924,3.924,0,0,1,3.008-1.243,3.817,3.817,0,0,1,2.924,1.218,4.842,4.842,0,0,1,1.134,3.428c0,0.09,0,.224-0.009.4H398.39a3.428,3.428,0,0,0,.832,2.251,2.473,2.473,0,0,0,1.865.781,2.313,2.313,0,0,0,1.419-.437A2.893,2.893,0,0,0,403.438,277.168Zm-4.965-2.444h4.982a3.022,3.022,0,0,0-.571-1.688,2.318,2.318,0,0,0-1.874-.874,2.4,2.4,0,0,0-1.751.7A2.761,2.761,0,0,0,398.474,274.724Z" transform="translate(-6.297 -16.644)"/><path class="cls-6" d="M411.117,275.58a4.6,4.6,0,0,1,1.378-3.671,4.148,4.148,0,0,1,2.806-.991,4,4,0,0,1,3.008,1.205,4.587,4.587,0,0,1,1.167,3.331,5.894,5.894,0,0,1-.517,2.709,3.651,3.651,0,0,1-1.5,1.533,4.378,4.378,0,0,1-2.155.546,4.009,4.009,0,0,1-3.028-1.2A4.8,4.8,0,0,1,411.117,275.58Zm1.554,0a3.8,3.8,0,0,0,.748,2.566,2.49,2.49,0,0,0,3.755,0,3.888,3.888,0,0,0,.748-2.613,3.686,3.686,0,0,0-.752-2.507,2.492,2.492,0,0,0-3.751,0A3.787,3.787,0,0,0,412.671,275.58Z" transform="translate(-6.297 -16.644)"/><path class="cls-6" d="M421.231,280.041v-8.922h1.361v1.353a3.692,3.692,0,0,1,.962-1.252,1.68,1.68,0,0,1,.97-0.3,2.948,2.948,0,0,1,1.555.487l-0.521,1.4a2.167,2.167,0,0,0-1.108-.327,1.443,1.443,0,0,0-.891.3,1.609,1.609,0,0,0-.562.828,5.885,5.885,0,0,0-.252,1.764v4.671h-1.513Z" transform="translate(-6.297 -16.644)"/><path class="cls-6" d="M432,280.041V267.726h1.63v5.057h6.4v-5.057h1.63v12.315h-1.63v-5.8h-6.4v5.8H432Z" transform="translate(-6.297 -16.644)"/><path class="cls-6" d="M450.29,277.168l1.563,0.193a3.805,3.805,0,0,1-1.369,2.125,4.641,4.641,0,0,1-5.658-.449,4.713,4.713,0,0,1-1.146-3.381,4.933,4.933,0,0,1,1.159-3.5,3.924,3.924,0,0,1,3.008-1.243,3.817,3.817,0,0,1,2.924,1.218,4.842,4.842,0,0,1,1.134,3.428c0,0.09,0,.224-0.009.4h-6.653a3.428,3.428,0,0,0,.832,2.251,2.473,2.473,0,0,0,1.865.781,2.313,2.313,0,0,0,1.419-.437A2.893,2.893,0,0,0,450.29,277.168Zm-4.965-2.444h4.982a3.022,3.022,0,0,0-.571-1.688,2.318,2.318,0,0,0-1.874-.874,2.4,2.4,0,0,0-1.751.7A2.761,2.761,0,0,0,445.325,274.724Z" transform="translate(-6.297 -16.644)"/><path class="cls-6" d="M459.573,278.94a5.615,5.615,0,0,1-1.617,1.008,4.671,4.671,0,0,1-1.668.294,3.246,3.246,0,0,1-2.26-.718,2.37,2.37,0,0,1-.789-1.836,2.438,2.438,0,0,1,.3-1.2,2.47,2.47,0,0,1,.781-0.869,3.649,3.649,0,0,1,1.088-.5,10.743,10.743,0,0,1,1.344-.228,13.853,13.853,0,0,0,2.7-.521c0-.207.008-0.339,0.008-0.395a1.672,1.672,0,0,0-.428-1.3,2.532,2.532,0,0,0-1.723-.513,2.673,2.673,0,0,0-1.575.374,2.291,2.291,0,0,0-.752,1.323l-1.479-.2a3.658,3.658,0,0,1,.664-1.533,2.9,2.9,0,0,1,1.336-.9,5.956,5.956,0,0,1,2.024-.314,5.372,5.372,0,0,1,1.856.269,2.443,2.443,0,0,1,1.05.677,2.373,2.373,0,0,1,.471,1.028,8.487,8.487,0,0,1,.075,1.395V276.3a21.38,21.38,0,0,0,.1,2.667,3.364,3.364,0,0,0,.383,1.071h-1.579A3.2,3.2,0,0,1,459.573,278.94Zm-0.126-3.377a11.138,11.138,0,0,1-2.47.571,5.708,5.708,0,0,0-1.319.3,1.312,1.312,0,0,0-.6.491,1.337,1.337,0,0,0,.248,1.727,1.972,1.972,0,0,0,1.34.4,3.12,3.12,0,0,0,1.555-.383,2.356,2.356,0,0,0,1-1.046,3.64,3.64,0,0,0,.244-1.512v-0.555Z" transform="translate(-6.297 -16.644)"/><path class="cls-6" d="M469.107,280.041v-1.126a2.775,2.775,0,0,1-2.5,1.327,3.493,3.493,0,0,1-1.961-.588,3.87,3.87,0,0,1-1.387-1.642,5.685,5.685,0,0,1-.491-2.424,6.344,6.344,0,0,1,.445-2.424,3.513,3.513,0,0,1,1.336-1.668,3.575,3.575,0,0,1,1.991-.579,2.971,2.971,0,0,1,2.461,1.227v-4.419h1.5v12.315h-1.4Zm-4.779-4.452a3.873,3.873,0,0,0,.722,2.562,2.179,2.179,0,0,0,1.706.849,2.139,2.139,0,0,0,1.685-.811,3.737,3.737,0,0,0,.692-2.474,4.2,4.2,0,0,0-.705-2.688,2.172,2.172,0,0,0-1.739-.857,2.1,2.1,0,0,0-1.685.824A4.061,4.061,0,0,0,464.328,275.589Z" transform="translate(-6.297 -16.644)"/><path class="cls-6" d="M477.105,275.58a4.6,4.6,0,0,1,1.378-3.671,4.148,4.148,0,0,1,2.806-.991,4,4,0,0,1,3.008,1.205,4.587,4.587,0,0,1,1.167,3.331,5.894,5.894,0,0,1-.517,2.709,3.651,3.651,0,0,1-1.5,1.533,4.378,4.378,0,0,1-2.155.546,4.009,4.009,0,0,1-3.028-1.2A4.8,4.8,0,0,1,477.105,275.58Zm1.554,0a3.8,3.8,0,0,0,.748,2.566,2.49,2.49,0,0,0,3.755,0,3.888,3.888,0,0,0,.748-2.613,3.686,3.686,0,0,0-.752-2.507,2.492,2.492,0,0,0-3.751,0A3.787,3.787,0,0,0,478.659,275.58Z" transform="translate(-6.297 -16.644)"/><path class="cls-6" d="M487.6,280.041V272.3h-1.336v-1.177H487.6V270.17a4.16,4.16,0,0,1,.16-1.336,1.93,1.93,0,0,1,.769-0.953,2.764,2.764,0,0,1,1.541-.365,7.352,7.352,0,0,1,1.412.151l-0.228,1.318a5.1,5.1,0,0,0-.891-0.084,1.325,1.325,0,0,0-.974.294,1.6,1.6,0,0,0-.286,1.1v0.823h1.739V272.3H489.1v7.745h-1.5Z" transform="translate(-6.297 -16.644)"/><path class="cls-6" d="M497.041,280.041V267.726h1.63v5.057h6.4v-5.057h1.63v12.315h-1.63v-5.8h-6.4v5.8h-1.63Z" transform="translate(-6.297 -16.644)"/><path class="cls-6" d="M508.659,275.58a4.6,4.6,0,0,1,1.378-3.671,4.148,4.148,0,0,1,2.806-.991,4,4,0,0,1,3.008,1.205,4.587,4.587,0,0,1,1.167,3.331,5.894,5.894,0,0,1-.517,2.709A3.651,3.651,0,0,1,515,279.7a4.378,4.378,0,0,1-2.155.546,4.009,4.009,0,0,1-3.028-1.2A4.8,4.8,0,0,1,508.659,275.58Zm1.554,0a3.8,3.8,0,0,0,.748,2.566,2.49,2.49,0,0,0,3.755,0,3.888,3.888,0,0,0,.748-2.613,3.686,3.686,0,0,0-.752-2.507,2.492,2.492,0,0,0-3.751,0A3.787,3.787,0,0,0,510.213,275.58Z" transform="translate(-6.297 -16.644)"/><path class="cls-6" d="M524.638,280.041V278.73a3.267,3.267,0,0,1-2.831,1.512,3.611,3.611,0,0,1-1.475-.3,2.423,2.423,0,0,1-1.017-.761,2.826,2.826,0,0,1-.466-1.121,7.592,7.592,0,0,1-.093-1.411v-5.528h1.512v4.948a8.819,8.819,0,0,0,.093,1.6,1.579,1.579,0,0,0,.6.937,1.878,1.878,0,0,0,1.143.34,2.489,2.489,0,0,0,1.277-.349,1.937,1.937,0,0,0,.844-0.949,4.745,4.745,0,0,0,.248-1.743v-4.78h1.513v8.922h-1.353Z" transform="translate(-6.297 -16.644)"/><path class="cls-6" d="M527.755,277.378l1.5-.235a2.093,2.093,0,0,0,.7,1.378,2.445,2.445,0,0,0,1.609.479,2.362,2.362,0,0,0,1.546-.424,1.269,1.269,0,0,0,.5-1,0.917,0.917,0,0,0-.445-0.806,6.527,6.527,0,0,0-1.546-.513,14.151,14.151,0,0,1-2.306-.727,2.2,2.2,0,0,1-1.307-2.046,2.291,2.291,0,0,1,.273-1.1,2.451,2.451,0,0,1,.743-0.845,3.127,3.127,0,0,1,.962-0.44,4.553,4.553,0,0,1,1.307-.181,5.176,5.176,0,0,1,1.844.3,2.509,2.509,0,0,1,1.172.819,3.2,3.2,0,0,1,.521,1.382l-1.479.2a1.616,1.616,0,0,0-.584-1.075,2.134,2.134,0,0,0-1.365-.387,2.464,2.464,0,0,0-1.486.345,1,1,0,0,0-.445.806,0.834,0.834,0,0,0,.185.529,1.326,1.326,0,0,0,.58.4q0.227,0.085,1.335.387a18.568,18.568,0,0,1,2.239.7,2.275,2.275,0,0,1,1,.794,2.214,2.214,0,0,1,.361,1.294,2.539,2.539,0,0,1-.44,1.424,2.847,2.847,0,0,1-1.273,1.033,4.621,4.621,0,0,1-1.882.365,4.2,4.2,0,0,1-2.65-.722A3.364,3.364,0,0,1,527.755,277.378Z" transform="translate(-6.297 -16.644)"/><path class="cls-6" d="M543.069,277.168l1.563,0.193a3.805,3.805,0,0,1-1.369,2.125,4.641,4.641,0,0,1-5.658-.449,4.713,4.713,0,0,1-1.146-3.381,4.933,4.933,0,0,1,1.159-3.5,3.924,3.924,0,0,1,3.008-1.243,3.817,3.817,0,0,1,2.924,1.218,4.842,4.842,0,0,1,1.134,3.428c0,0.09,0,.224-0.009.4h-6.653a3.428,3.428,0,0,0,.832,2.251,2.473,2.473,0,0,0,1.865.781,2.313,2.313,0,0,0,1.419-.437A2.893,2.893,0,0,0,543.069,277.168Zm-4.965-2.444h4.982a3.022,3.022,0,0,0-.571-1.688,2.318,2.318,0,0,0-1.874-.874,2.4,2.4,0,0,0-1.751.7A2.761,2.761,0,0,0,538.1,274.724Z" transform="translate(-6.297 -16.644)"/><path class="cls-6" d="M546.53,280.041V267.726h1.513v4.419a3.374,3.374,0,0,1,2.671-1.227,3.6,3.6,0,0,1,1.723.391,2.291,2.291,0,0,1,1.046,1.079,4.98,4.98,0,0,1,.314,2v5.653h-1.512v-5.653a2.339,2.339,0,0,0-.491-1.651,1.827,1.827,0,0,0-1.391-.517,2.454,2.454,0,0,0-1.265.349,1.971,1.971,0,0,0-.844.945,4.34,4.34,0,0,0-.252,1.646v4.881H546.53Z" transform="translate(-6.297 -16.644)"/><path class="cls-6" d="M555.536,275.58a4.6,4.6,0,0,1,1.378-3.671,4.148,4.148,0,0,1,2.806-.991,4,4,0,0,1,3.008,1.205,4.587,4.587,0,0,1,1.167,3.331,5.894,5.894,0,0,1-.517,2.709,3.651,3.651,0,0,1-1.5,1.533,4.378,4.378,0,0,1-2.155.546,4.009,4.009,0,0,1-3.028-1.2A4.8,4.8,0,0,1,555.536,275.58Zm1.554,0a3.8,3.8,0,0,0,.748,2.566,2.49,2.49,0,0,0,3.755,0,3.888,3.888,0,0,0,.748-2.613,3.686,3.686,0,0,0-.752-2.507,2.492,2.492,0,0,0-3.751,0A3.787,3.787,0,0,0,557.09,275.58Z" transform="translate(-6.297 -16.644)"/><path class="cls-6" d="M565.634,280.041V267.726h1.512v12.315h-1.512Z" transform="translate(-6.297 -16.644)"/><path class="cls-6" d="M575.277,280.041v-1.126a2.775,2.775,0,0,1-2.5,1.327,3.493,3.493,0,0,1-1.961-.588,3.87,3.87,0,0,1-1.387-1.642,5.685,5.685,0,0,1-.491-2.424,6.344,6.344,0,0,1,.445-2.424,3.513,3.513,0,0,1,1.336-1.668,3.575,3.575,0,0,1,1.991-.579,2.971,2.971,0,0,1,2.461,1.227v-4.419h1.5v12.315h-1.4Zm-4.779-4.452a3.873,3.873,0,0,0,.722,2.562,2.179,2.179,0,0,0,1.706.849,2.139,2.139,0,0,0,1.685-.811,3.737,3.737,0,0,0,.692-2.474,4.2,4.2,0,0,0-.705-2.688,2.172,2.172,0,0,0-1.739-.857,2.1,2.1,0,0,0-1.685.824A4.061,4.061,0,0,0,570.5,275.589Z" transform="translate(-6.297 -16.644)"/><path class="cls-6" d="M586.729,283.662a15.1,15.1,0,0,1-2.117-3.7,11.606,11.606,0,0,1-.219-8.217,16.082,16.082,0,0,1,2.336-4.233h1.083q-1.017,1.748-1.344,2.5a13.63,13.63,0,0,0-.807,2.419,14.037,14.037,0,0,0-.361,3.159,15.16,15.16,0,0,0,2.512,8.073h-1.083Z" transform="translate(-6.297 -16.644)"/><path class="cls-6" d="M597.095,278.588v1.453h-8.141a2.679,2.679,0,0,1,.177-1.05,5.563,5.563,0,0,1,1-1.639,15.718,15.718,0,0,1,1.979-1.865,16.758,16.758,0,0,0,2.714-2.608,3.118,3.118,0,0,0,.705-1.818,2.021,2.021,0,0,0-.643-1.517,2.318,2.318,0,0,0-1.676-.617,2.362,2.362,0,0,0-1.747.655,2.482,2.482,0,0,0-.664,1.814l-1.554-.159a3.824,3.824,0,0,1,1.2-2.65,4.1,4.1,0,0,1,2.8-.912,3.9,3.9,0,0,1,2.806.983,3.227,3.227,0,0,1,1.033,2.436,3.69,3.69,0,0,1-.3,1.454,5.629,5.629,0,0,1-1,1.5,24.347,24.347,0,0,1-2.331,2.168q-1.361,1.143-1.747,1.55a4.957,4.957,0,0,0-.639.819h6.04Z" transform="translate(-6.297 -16.644)"/><path class="cls-6" d="M598.716,273.967a11.294,11.294,0,0,1,.449-3.516A4.373,4.373,0,0,1,600.5,268.4a3.417,3.417,0,0,1,2.23-.723,3.634,3.634,0,0,1,1.739.4,3.319,3.319,0,0,1,1.234,1.15,6.17,6.17,0,0,1,.765,1.832,12.124,12.124,0,0,1,.277,2.91,11.3,11.3,0,0,1-.445,3.5,4.375,4.375,0,0,1-1.331,2.059,3.417,3.417,0,0,1-2.239.727,3.377,3.377,0,0,1-2.8-1.277Q598.716,277.437,598.716,273.967Zm1.555,0q0,3.034.71,4.037a2.028,2.028,0,0,0,3.5,0q0.709-1.009.71-4.033,0-3.041-.71-4.04a2.106,2.106,0,0,0-1.769-1,1.937,1.937,0,0,0-1.663.882A7.805,7.805,0,0,0,600.271,273.967Z" transform="translate(-6.297 -16.644)"/><path class="cls-6" d="M613.981,280.041h-1.513v-9.636a7.817,7.817,0,0,1-1.432,1.042,10.256,10.256,0,0,1-1.593.781v-1.462a9.1,9.1,0,0,0,2.218-1.445,5.69,5.69,0,0,0,1.345-1.646h0.975v12.366Z" transform="translate(-6.297 -16.644)"/><path class="cls-6" d="M617.854,276.815l1.588-.135a2.851,2.851,0,0,0,.819,1.743,2.223,2.223,0,0,0,1.55.584,2.417,2.417,0,0,0,1.849-.823,3.1,3.1,0,0,0,.756-2.185,2.8,2.8,0,0,0-.727-2.041,2.533,2.533,0,0,0-1.9-.748,2.639,2.639,0,0,0-1.318.332,2.562,2.562,0,0,0-.925.861l-1.42-.186,1.193-6.325h6.124v1.444h-4.914l-0.664,3.311a4.005,4.005,0,0,1,2.327-.773,3.686,3.686,0,0,1,2.722,1.118,3.9,3.9,0,0,1,1.109,2.873,4.487,4.487,0,0,1-.975,2.89,3.9,3.9,0,0,1-3.234,1.5,3.987,3.987,0,0,1-2.743-.94A3.674,3.674,0,0,1,617.854,276.815Z" transform="translate(-6.297 -16.644)"/><path class="cls-6" d="M628.833,283.662H627.75a15.168,15.168,0,0,0,2.512-8.073,13.834,13.834,0,0,0-.361-3.134,13.257,13.257,0,0,0-.8-2.42q-0.328-.756-1.353-2.52h1.083a16.082,16.082,0,0,1,2.336,4.233,11.58,11.58,0,0,1-.223,8.217A15.411,15.411,0,0,1,628.833,283.662Z" transform="translate(-6.297 -16.644)"/><path class="cls-6" d="M8.246,33.083V16.919h6.1a14.712,14.712,0,0,1,2.459.154,4.872,4.872,0,0,1,2,.755,3.962,3.962,0,0,1,1.3,1.56,5.26,5.26,0,0,1-.822,5.695q-1.312,1.428-4.741,1.428H10.385v6.572H8.246ZM10.385,24.6h4.179a4.431,4.431,0,0,0,2.944-.772,2.749,2.749,0,0,0,.871-2.172,2.922,2.922,0,0,0-.513-1.737,2.4,2.4,0,0,0-1.351-.954,9.127,9.127,0,0,0-2-.144H10.385V24.6Z" transform="translate(-6.297 -16.644)"/><path class="cls-6" d="M31.069,29.313l2.051,0.254a5,5,0,0,1-1.8,2.79,5.4,5.4,0,0,1-3.352.992A5.357,5.357,0,0,1,23.9,31.766a6.183,6.183,0,0,1-1.5-4.438,6.468,6.468,0,0,1,1.521-4.586,5.15,5.15,0,0,1,3.947-1.632,5,5,0,0,1,3.837,1.6,6.351,6.351,0,0,1,1.489,4.5q0,0.177-.011.529H24.443a4.5,4.5,0,0,0,1.091,2.955,3.249,3.249,0,0,0,2.448,1.025,3.037,3.037,0,0,0,1.864-.573A3.809,3.809,0,0,0,31.069,29.313ZM24.553,26.1h6.538a3.966,3.966,0,0,0-.75-2.216,3.043,3.043,0,0,0-2.459-1.146,3.151,3.151,0,0,0-2.3.915A3.622,3.622,0,0,0,24.553,26.1Z" transform="translate(-6.297 -16.644)"/><path class="cls-6" d="M35.59,33.083V21.374h1.787v1.775a4.846,4.846,0,0,1,1.262-1.643,2.207,2.207,0,0,1,1.273-.4,3.872,3.872,0,0,1,2.04.639L41.269,23.59a2.84,2.84,0,0,0-1.456-.43,1.892,1.892,0,0,0-1.169.391,2.123,2.123,0,0,0-.739,1.086,7.74,7.74,0,0,0-.331,2.315v6.13H35.59Z" transform="translate(-6.297 -16.644)"/><path class="cls-6" d="M50.773,28.794l1.952,0.253a5.06,5.06,0,0,1-1.637,3.159,4.77,4.77,0,0,1-3.236,1.141,5.027,5.027,0,0,1-3.864-1.571,6.374,6.374,0,0,1-1.461-4.5,8.15,8.15,0,0,1,.628-3.319,4.382,4.382,0,0,1,1.913-2.134,5.673,5.673,0,0,1,2.795-.711,4.861,4.861,0,0,1,3.121.964,4.425,4.425,0,0,1,1.554,2.74l-1.929.3a3.206,3.206,0,0,0-.976-1.775,2.524,2.524,0,0,0-1.692-.6A3.079,3.079,0,0,0,45.5,23.816a5.1,5.1,0,0,0-.937,3.4,5.273,5.273,0,0,0,.9,3.429,2.941,2.941,0,0,0,2.359,1.07A2.78,2.78,0,0,0,49.781,31,3.555,3.555,0,0,0,50.773,28.794Z" transform="translate(-6.297 -16.644)"/><path class="cls-6" d="M62.439,29.313l2.051,0.254a5,5,0,0,1-1.8,2.79,6.09,6.09,0,0,1-7.426-.59,6.183,6.183,0,0,1-1.5-4.438,6.468,6.468,0,0,1,1.521-4.586,5.15,5.15,0,0,1,3.947-1.632,5,5,0,0,1,3.837,1.6,6.351,6.351,0,0,1,1.489,4.5q0,0.177-.011.529H55.813A4.5,4.5,0,0,0,56.9,30.691a3.249,3.249,0,0,0,2.448,1.025,3.037,3.037,0,0,0,1.864-.573A3.809,3.809,0,0,0,62.439,29.313ZM55.923,26.1h6.538a3.966,3.966,0,0,0-.75-2.216,3.043,3.043,0,0,0-2.459-1.146,3.151,3.151,0,0,0-2.3.915A3.622,3.622,0,0,0,55.923,26.1Z" transform="translate(-6.297 -16.644)"/><path class="cls-6" d="M66.981,33.083V21.374h1.787v1.665a4.209,4.209,0,0,1,3.727-1.929,4.885,4.885,0,0,1,1.946.38,3.061,3.061,0,0,1,1.329,1,3.823,3.823,0,0,1,.617,1.467,11.333,11.333,0,0,1,.11,1.929v7.2H74.513V25.96a5.333,5.333,0,0,0-.232-1.813,1.909,1.909,0,0,0-.821-0.959,2.614,2.614,0,0,0-1.384-.358,3.215,3.215,0,0,0-2.188.805,3.971,3.971,0,0,0-.921,3.054v6.4H66.981Z" transform="translate(-6.297 -16.644)"/><path class="cls-6" d="M83.874,31.308l0.287,1.753a7.391,7.391,0,0,1-1.5.176,3.392,3.392,0,0,1-1.676-.342,1.913,1.913,0,0,1-.838-0.9,7.113,7.113,0,0,1-.242-2.343V22.917H78.449V21.374H79.9v-2.9l1.974-1.191v4.09h2v1.544h-2v6.847a3.463,3.463,0,0,0,.1,1.092,0.826,0.826,0,0,0,.342.386,1.32,1.32,0,0,0,.678.143A6.406,6.406,0,0,0,83.874,31.308Z" transform="translate(-6.297 -16.644)"/><path class="cls-6" d="M91.35,27.229a6.035,6.035,0,0,1,1.808-4.818,5.449,5.449,0,0,1,3.683-1.3,5.253,5.253,0,0,1,3.947,1.582,6.019,6.019,0,0,1,1.533,4.372,7.745,7.745,0,0,1-.678,3.556,4.8,4.8,0,0,1-1.974,2.012,5.744,5.744,0,0,1-2.828.717,5.264,5.264,0,0,1-3.975-1.577A6.3,6.3,0,0,1,91.35,27.229Zm2.04,0a4.988,4.988,0,0,0,.981,3.369,3.268,3.268,0,0,0,4.929-.005,5.109,5.109,0,0,0,.981-3.429,4.837,4.837,0,0,0-.987-3.292,3.272,3.272,0,0,0-4.923-.005A4.965,4.965,0,0,0,93.389,27.229Z" transform="translate(-6.297 -16.644)"/><path class="cls-6" d="M105.121,33.083V22.917h-1.753V21.374h1.753V20.128a5.444,5.444,0,0,1,.209-1.753,2.539,2.539,0,0,1,1.009-1.251,3.635,3.635,0,0,1,2.023-.479,9.754,9.754,0,0,1,1.853.2l-0.3,1.731a6.639,6.639,0,0,0-1.168-.11,1.742,1.742,0,0,0-1.279.386,2.092,2.092,0,0,0-.375,1.444v1.081h2.282v1.544h-2.282V33.083h-1.974Z" transform="translate(-6.297 -16.644)"/><path class="cls-6" d="M116.72,27.89l2.018-.176a4.453,4.453,0,0,0,.667,1.99,3.641,3.641,0,0,0,1.626,1.257,6.157,6.157,0,0,0,2.481.479,5.943,5.943,0,0,0,2.161-.364,3,3,0,0,0,1.395-1,2.314,2.314,0,0,0,.458-1.384,2.1,2.1,0,0,0-.441-1.329,3.265,3.265,0,0,0-1.456-.954,28.5,28.5,0,0,0-2.877-.788,14.665,14.665,0,0,1-3.121-1.009,4.369,4.369,0,0,1-1.726-1.5,3.685,3.685,0,0,1-.568-2.012,4.107,4.107,0,0,1,.695-2.288,4.3,4.3,0,0,1,2.029-1.615,7.7,7.7,0,0,1,2.966-.551,8.1,8.1,0,0,1,3.17.579,4.572,4.572,0,0,1,2.112,1.7,4.9,4.9,0,0,1,.793,2.547l-2.051.154a3.308,3.308,0,0,0-1.119-2.315,4.355,4.355,0,0,0-2.817-.783,4.519,4.519,0,0,0-2.828.711,2.133,2.133,0,0,0-.888,1.714,1.838,1.838,0,0,0,.628,1.434,8.511,8.511,0,0,0,3.225,1.152,21.337,21.337,0,0,1,3.578,1.031,4.907,4.907,0,0,1,2.084,1.648,4.018,4.018,0,0,1,.672,2.3,4.394,4.394,0,0,1-.739,2.431,4.862,4.862,0,0,1-2.123,1.775,7.392,7.392,0,0,1-3.115.634,9.3,9.3,0,0,1-3.677-.64,5.15,5.15,0,0,1-2.327-1.924A5.456,5.456,0,0,1,116.72,27.89Z" transform="translate(-6.297 -16.644)"/><path class="cls-6" d="M131.518,27.229a6.035,6.035,0,0,1,1.808-4.818,5.449,5.449,0,0,1,3.683-1.3,5.253,5.253,0,0,1,3.947,1.582,6.019,6.019,0,0,1,1.533,4.372,7.745,7.745,0,0,1-.678,3.556,4.8,4.8,0,0,1-1.974,2.012,5.744,5.744,0,0,1-2.828.717,5.264,5.264,0,0,1-3.975-1.577A6.3,6.3,0,0,1,131.518,27.229Zm2.04,0a4.988,4.988,0,0,0,.981,3.369,3.268,3.268,0,0,0,4.929-.005,5.109,5.109,0,0,0,.981-3.429,4.837,4.837,0,0,0-.987-3.292,3.272,3.272,0,0,0-4.923-.005A4.965,4.965,0,0,0,133.557,27.229Z" transform="translate(-6.297 -16.644)"/><path class="cls-6" d="M152.456,28.794l1.952,0.253a5.06,5.06,0,0,1-1.637,3.159,4.77,4.77,0,0,1-3.236,1.141,5.027,5.027,0,0,1-3.864-1.571,6.374,6.374,0,0,1-1.461-4.5,8.15,8.15,0,0,1,.628-3.319,4.382,4.382,0,0,1,1.913-2.134,5.673,5.673,0,0,1,2.795-.711,4.861,4.861,0,0,1,3.121.964,4.425,4.425,0,0,1,1.554,2.74l-1.929.3a3.206,3.206,0,0,0-.976-1.775,2.524,2.524,0,0,0-1.692-.6,3.079,3.079,0,0,0-2.437,1.075,5.1,5.1,0,0,0-.937,3.4,5.273,5.273,0,0,0,.9,3.429,2.941,2.941,0,0,0,2.359,1.07A2.78,2.78,0,0,0,151.463,31,3.555,3.555,0,0,0,152.456,28.794Z" transform="translate(-6.297 -16.644)"/><path class="cls-6" d="M156.117,19.2V16.919H158.1V19.2h-1.985Zm0,13.882V21.374H158.1v11.71h-1.985Z" transform="translate(-6.297 -16.644)"/><path class="cls-6" d="M168.763,31.639a7.387,7.387,0,0,1-2.122,1.323,6.145,6.145,0,0,1-2.189.386,4.257,4.257,0,0,1-2.966-.943A3.11,3.11,0,0,1,160.45,30a3.2,3.2,0,0,1,.392-1.571,3.236,3.236,0,0,1,1.025-1.141,4.817,4.817,0,0,1,1.428-.65,14.18,14.18,0,0,1,1.764-.3,18.128,18.128,0,0,0,3.54-.684q0.011-.408.011-0.518a2.192,2.192,0,0,0-.562-1.709,3.323,3.323,0,0,0-2.261-.673,3.5,3.5,0,0,0-2.067.491,3,3,0,0,0-.987,1.737l-1.94-.265a4.806,4.806,0,0,1,.871-2.012,3.819,3.819,0,0,1,1.753-1.18,7.829,7.829,0,0,1,2.658-.413,7.043,7.043,0,0,1,2.437.353,3.218,3.218,0,0,1,1.378.888,3.122,3.122,0,0,1,.617,1.351,11.137,11.137,0,0,1,.1,1.831v2.646a28.129,28.129,0,0,0,.126,3.5,4.413,4.413,0,0,0,.5,1.406H169.16A4.22,4.22,0,0,1,168.763,31.639ZM168.6,27.207a14.586,14.586,0,0,1-3.242.75,7.511,7.511,0,0,0-1.731.4,1.724,1.724,0,0,0-.783.645,1.755,1.755,0,0,0,.325,2.266,2.585,2.585,0,0,0,1.759.529,4.094,4.094,0,0,0,2.04-.5,3.089,3.089,0,0,0,1.312-1.373,4.8,4.8,0,0,0,.32-1.985V27.207Z" transform="translate(-6.297 -16.644)"/><path class="cls-6" d="M173.637,33.083V16.919h1.985V33.083h-1.985Z" transform="translate(-6.297 -16.644)"/><path class="cls-6" d="M184.5,27.89l2.018-.176a4.453,4.453,0,0,0,.667,1.99,3.641,3.641,0,0,0,1.626,1.257,6.157,6.157,0,0,0,2.481.479,5.943,5.943,0,0,0,2.161-.364,3,3,0,0,0,1.395-1A2.314,2.314,0,0,0,195.3,28.7a2.1,2.1,0,0,0-.441-1.329,3.265,3.265,0,0,0-1.456-.954,28.5,28.5,0,0,0-2.877-.788,14.665,14.665,0,0,1-3.121-1.009,4.369,4.369,0,0,1-1.726-1.5,3.685,3.685,0,0,1-.568-2.012,4.107,4.107,0,0,1,.695-2.288,4.3,4.3,0,0,1,2.029-1.615,7.7,7.7,0,0,1,2.966-.551,8.1,8.1,0,0,1,3.17.579,4.572,4.572,0,0,1,2.112,1.7,4.9,4.9,0,0,1,.793,2.547l-2.051.154a3.308,3.308,0,0,0-1.119-2.315,4.355,4.355,0,0,0-2.817-.783,4.519,4.519,0,0,0-2.828.711,2.133,2.133,0,0,0-.888,1.714,1.838,1.838,0,0,0,.628,1.434,8.511,8.511,0,0,0,3.225,1.152,21.337,21.337,0,0,1,3.578,1.031,4.907,4.907,0,0,1,2.084,1.648,4.018,4.018,0,0,1,.672,2.3,4.394,4.394,0,0,1-.739,2.431,4.862,4.862,0,0,1-2.123,1.775,7.392,7.392,0,0,1-3.115.634,9.3,9.3,0,0,1-3.677-.64,5.15,5.15,0,0,1-2.327-1.924A5.456,5.456,0,0,1,184.5,27.89Z" transform="translate(-6.297 -16.644)"/><path class="cls-6" d="M208.049,29.313l2.051,0.254a5,5,0,0,1-1.8,2.79,6.09,6.09,0,0,1-7.426-.59,6.183,6.183,0,0,1-1.5-4.438,6.468,6.468,0,0,1,1.521-4.586,5.15,5.15,0,0,1,3.947-1.632,5,5,0,0,1,3.837,1.6,6.351,6.351,0,0,1,1.489,4.5q0,0.177-.011.529h-8.732a4.5,4.5,0,0,0,1.091,2.955,3.249,3.249,0,0,0,2.448,1.025,3.037,3.037,0,0,0,1.864-.573A3.809,3.809,0,0,0,208.049,29.313ZM201.533,26.1h6.538a3.966,3.966,0,0,0-.75-2.216,3.043,3.043,0,0,0-2.459-1.146,3.151,3.151,0,0,0-2.3.915A3.622,3.622,0,0,0,201.533,26.1Z" transform="translate(-6.297 -16.644)"/><path class="cls-6" d="M220.233,28.794l1.952,0.253a5.06,5.06,0,0,1-1.637,3.159,4.77,4.77,0,0,1-3.236,1.141,5.027,5.027,0,0,1-3.864-1.571,6.374,6.374,0,0,1-1.461-4.5,8.15,8.15,0,0,1,.628-3.319,4.382,4.382,0,0,1,1.913-2.134,5.673,5.673,0,0,1,2.795-.711,4.861,4.861,0,0,1,3.121.964A4.425,4.425,0,0,1,222,24.814l-1.929.3a3.206,3.206,0,0,0-.976-1.775,2.524,2.524,0,0,0-1.692-.6,3.079,3.079,0,0,0-2.437,1.075,5.1,5.1,0,0,0-.937,3.4,5.273,5.273,0,0,0,.9,3.429,2.941,2.941,0,0,0,2.359,1.07A2.78,2.78,0,0,0,219.241,31,3.555,3.555,0,0,0,220.233,28.794Z" transform="translate(-6.297 -16.644)"/><path class="cls-6" d="M231.557,33.083v-1.72a4.286,4.286,0,0,1-3.716,1.985,4.735,4.735,0,0,1-1.935-.4,3.183,3.183,0,0,1-1.334-1,3.729,3.729,0,0,1-.612-1.472,10.057,10.057,0,0,1-.122-1.853V21.374h1.985v6.495a11.553,11.553,0,0,0,.121,2.095,2.068,2.068,0,0,0,.794,1.229,2.459,2.459,0,0,0,1.5.447,3.267,3.267,0,0,0,1.676-.458,2.547,2.547,0,0,0,1.108-1.246,6.253,6.253,0,0,0,.325-2.288V21.374h1.985v11.71h-1.775Z" transform="translate(-6.297 -16.644)"/><path class="cls-6" d="M236.419,33.083V21.374h1.787v1.775a4.846,4.846,0,0,1,1.262-1.643,2.207,2.207,0,0,1,1.273-.4,3.872,3.872,0,0,1,2.04.639L242.1,23.59a2.84,2.84,0,0,0-1.456-.43,1.892,1.892,0,0,0-1.169.391,2.123,2.123,0,0,0-.739,1.086,7.74,7.74,0,0,0-.331,2.315v6.13h-1.985Z" transform="translate(-6.297 -16.644)"/><path class="cls-6" d="M243.973,19.2V16.919h1.985V19.2h-1.985Zm0,13.882V21.374h1.985v11.71h-1.985Z" transform="translate(-6.297 -16.644)"/><path class="cls-6" d="M253.312,31.308l0.287,1.753a7.391,7.391,0,0,1-1.5.176,3.392,3.392,0,0,1-1.676-.342,1.913,1.913,0,0,1-.838-0.9,7.113,7.113,0,0,1-.242-2.343V22.917h-1.456V21.374h1.456v-2.9l1.974-1.191v4.09h2v1.544h-2v6.847a3.463,3.463,0,0,0,.1,1.092,0.826,0.826,0,0,0,.342.386,1.32,1.32,0,0,0,.678.143A6.406,6.406,0,0,0,253.312,31.308Z" transform="translate(-6.297 -16.644)"/><path class="cls-6" d="M255.164,37.593l-0.221-1.863a4.438,4.438,0,0,0,1.136.176,2.18,2.18,0,0,0,1.059-.221,1.8,1.8,0,0,0,.65-0.617,9.761,9.761,0,0,0,.606-1.478q0.055-.166.177-0.485l-4.444-11.732h2.139l2.437,6.781q0.475,1.29.849,2.712a26.842,26.842,0,0,1,.816-2.668l2.5-6.825h1.985L260.4,33.282a23.42,23.42,0,0,1-1.114,2.658,3.913,3.913,0,0,1-1.213,1.438,2.863,2.863,0,0,1-1.632.458A3.975,3.975,0,0,1,255.164,37.593Z" transform="translate(-6.297 -16.644)"/><path class="cls-6" d="M272.982,33.083V16.919h6.064a7.516,7.516,0,0,1,2.972.49,3.823,3.823,0,0,1,1.753,1.511,3.981,3.981,0,0,1,.634,2.134,3.665,3.665,0,0,1-.562,1.952,4.014,4.014,0,0,1-1.7,1.477A4.225,4.225,0,0,1,284.4,25.95a3.929,3.929,0,0,1,.789,2.448,4.725,4.725,0,0,1-.479,2.111,4.092,4.092,0,0,1-1.186,1.505,4.953,4.953,0,0,1-1.77.8,10.761,10.761,0,0,1-2.608.27h-6.164Zm2.139-9.372h3.5a7.8,7.8,0,0,0,2.04-.187,2.268,2.268,0,0,0,1.229-.805,2.319,2.319,0,0,0,.414-1.411,2.6,2.6,0,0,0-.386-1.417,1.956,1.956,0,0,0-1.1-.838,9.223,9.223,0,0,0-2.459-.226h-3.23v4.885Zm0,7.464h4.024A9.229,9.229,0,0,0,280.6,31.1a3.477,3.477,0,0,0,1.235-.441,2.34,2.34,0,0,0,.816-0.9,2.81,2.81,0,0,0,.32-1.362,2.688,2.688,0,0,0-.463-1.571,2.445,2.445,0,0,0-1.285-.937,7.961,7.961,0,0,0-2.365-.271h-3.738v5.557Z" transform="translate(-6.297 -16.644)"/><path class="cls-6" d="M295.9,29.313l2.051,0.254a5.01,5.01,0,0,1-1.8,2.79,6.088,6.088,0,0,1-7.425-.59,6.183,6.183,0,0,1-1.5-4.438,6.468,6.468,0,0,1,1.521-4.586,5.15,5.15,0,0,1,3.947-1.632,5,5,0,0,1,3.836,1.6,6.353,6.353,0,0,1,1.488,4.5c0,0.118,0,.294-0.01.529h-8.733a4.5,4.5,0,0,0,1.091,2.955,3.249,3.249,0,0,0,2.448,1.025,3.037,3.037,0,0,0,1.864-.573A3.824,3.824,0,0,0,295.9,29.313ZM289.378,26.1h6.539a3.962,3.962,0,0,0-.75-2.216,3.043,3.043,0,0,0-2.459-1.146,3.151,3.151,0,0,0-2.3.915A3.622,3.622,0,0,0,289.378,26.1Z" transform="translate(-6.297 -16.644)"/><path class="cls-6" d="M300.437,33.083V21.374h1.786v1.665a4.211,4.211,0,0,1,3.728-1.929,4.882,4.882,0,0,1,1.945.38,3.06,3.06,0,0,1,1.329,1,3.823,3.823,0,0,1,.617,1.467,11.386,11.386,0,0,1,.11,1.929v7.2h-1.984V25.96a5.348,5.348,0,0,0-.231-1.813,1.911,1.911,0,0,0-.821-0.959,2.615,2.615,0,0,0-1.384-.358,3.218,3.218,0,0,0-2.189.805,3.973,3.973,0,0,0-.92,3.054v6.4h-1.985Z" transform="translate(-6.297 -16.644)"/><path class="cls-6" d="M321.013,29.313l2.051,0.254a5.009,5.009,0,0,1-1.8,2.79,6.089,6.089,0,0,1-7.426-.59,6.185,6.185,0,0,1-1.5-4.438,6.468,6.468,0,0,1,1.521-4.586,5.151,5.151,0,0,1,3.947-1.632,5.006,5.006,0,0,1,3.837,1.6,6.353,6.353,0,0,1,1.488,4.5c0,0.118,0,.294-0.011.529h-8.732a4.5,4.5,0,0,0,1.092,2.955,3.248,3.248,0,0,0,2.447,1.025,3.036,3.036,0,0,0,1.863-.573A3.81,3.81,0,0,0,321.013,29.313ZM314.5,26.1h6.538a3.962,3.962,0,0,0-.75-2.216,3.041,3.041,0,0,0-2.458-1.146,3.153,3.153,0,0,0-2.3.915A3.624,3.624,0,0,0,314.5,26.1Z" transform="translate(-6.297 -16.644)"/><path class="cls-6" d="M326.029,33.083V22.917h-1.753V21.374h1.753V20.128a5.461,5.461,0,0,1,.209-1.753,2.541,2.541,0,0,1,1.009-1.251,3.636,3.636,0,0,1,2.023-.479,9.758,9.758,0,0,1,1.853.2l-0.3,1.731a6.631,6.631,0,0,0-1.169-.11,1.738,1.738,0,0,0-1.278.386A2.091,2.091,0,0,0,328,20.293v1.081h2.282v1.544H328V33.083h-1.974Z" transform="translate(-6.297 -16.644)"/><path class="cls-6" d="M331.84,19.2V16.919h1.984V19.2H331.84Zm0,13.882V21.374h1.984v11.71H331.84Z" transform="translate(-6.297 -16.644)"/><path class="cls-6" d="M341.179,31.308l0.286,1.753a7.39,7.39,0,0,1-1.5.176,3.4,3.4,0,0,1-1.677-.342,1.917,1.917,0,0,1-.838-0.9,7.127,7.127,0,0,1-.242-2.343V22.917h-1.456V21.374h1.456v-2.9l1.974-1.191v4.09h2v1.544h-2v6.847a3.479,3.479,0,0,0,.1,1.092,0.829,0.829,0,0,0,.342.386,1.32,1.32,0,0,0,.679.143A6.419,6.419,0,0,0,341.179,31.308Z" transform="translate(-6.297 -16.644)"/><path class="cls-6" d="M342.325,29.588l1.963-.309a2.743,2.743,0,0,0,.921,1.809,3.207,3.207,0,0,0,2.111.628,3.106,3.106,0,0,0,2.029-.557,1.666,1.666,0,0,0,.661-1.307,1.207,1.207,0,0,0-.584-1.059,8.618,8.618,0,0,0-2.029-.673,18.468,18.468,0,0,1-3.026-.954,2.889,2.889,0,0,1-1.715-2.685,3.012,3.012,0,0,1,.358-1.45,3.219,3.219,0,0,1,.976-1.108,4.088,4.088,0,0,1,1.263-.579,6,6,0,0,1,1.715-.237,6.785,6.785,0,0,1,2.42.4,3.294,3.294,0,0,1,1.538,1.075,4.2,4.2,0,0,1,.684,1.814l-1.94.265a2.123,2.123,0,0,0-.767-1.412,2.8,2.8,0,0,0-1.792-.507,3.245,3.245,0,0,0-1.951.452,1.316,1.316,0,0,0-.584,1.059,1.093,1.093,0,0,0,.242.695,1.749,1.749,0,0,0,.761.529q0.3,0.11,1.753.507a24.336,24.336,0,0,1,2.938.92,2.974,2.974,0,0,1,1.307,1.042,2.908,2.908,0,0,1,.475,1.7,3.334,3.334,0,0,1-.579,1.869,3.738,3.738,0,0,1-1.671,1.356,6.078,6.078,0,0,1-2.47.479,5.5,5.5,0,0,1-3.479-.948A4.41,4.41,0,0,1,342.325,29.588Z" transform="translate(-6.297 -16.644)"/><path class="cls-6" d="M361.3,33.083V16.919h2.139V33.083H361.3Z" transform="translate(-6.297 -16.644)"/><path class="cls-6" d="M366.957,33.083V21.374h1.786v1.665a4.211,4.211,0,0,1,3.728-1.929,4.882,4.882,0,0,1,1.945.38,3.06,3.06,0,0,1,1.329,1,3.823,3.823,0,0,1,.617,1.467,11.386,11.386,0,0,1,.11,1.929v7.2h-1.984V25.96a5.348,5.348,0,0,0-.231-1.813,1.911,1.911,0,0,0-.821-0.959,2.615,2.615,0,0,0-1.384-.358,3.218,3.218,0,0,0-2.189.805,3.973,3.973,0,0,0-.92,3.054v6.4h-1.985Z" transform="translate(-6.297 -16.644)"/><path class="cls-6" d="M387.158,28.794l1.951,0.253a5.062,5.062,0,0,1-1.637,3.159,4.773,4.773,0,0,1-3.236,1.141,5.03,5.03,0,0,1-3.865-1.571,6.376,6.376,0,0,1-1.461-4.5,8.15,8.15,0,0,1,.629-3.319,4.382,4.382,0,0,1,1.913-2.134,5.676,5.676,0,0,1,2.795-.711,4.859,4.859,0,0,1,3.12.964,4.424,4.424,0,0,1,1.555,2.74l-1.93.3a3.2,3.2,0,0,0-.976-1.775,2.525,2.525,0,0,0-1.692-.6,3.078,3.078,0,0,0-2.437,1.075,5.1,5.1,0,0,0-.937,3.4,5.276,5.276,0,0,0,.9,3.429,2.942,2.942,0,0,0,2.359,1.07A2.782,2.782,0,0,0,386.166,31,3.558,3.558,0,0,0,387.158,28.794Z" transform="translate(-6.297 -16.644)"/><path class="cls-6" d="M390.763,33.083V16.919h1.984V33.083h-1.984Z" transform="translate(-6.297 -16.644)"/><path class="cls-6" d="M403.5,33.083v-1.72a4.287,4.287,0,0,1-3.716,1.985,4.737,4.737,0,0,1-1.936-.4,3.186,3.186,0,0,1-1.334-1,3.736,3.736,0,0,1-.612-1.472,10.068,10.068,0,0,1-.121-1.853V21.374h1.984v6.495a11.524,11.524,0,0,0,.122,2.095,2.063,2.063,0,0,0,.794,1.229,2.455,2.455,0,0,0,1.5.447,3.263,3.263,0,0,0,1.676-.458,2.544,2.544,0,0,0,1.108-1.246,6.253,6.253,0,0,0,.325-2.288V21.374h1.984v11.71H403.5Z" transform="translate(-6.297 -16.644)"/><path class="cls-6" d="M415.98,33.083V31.606a3.644,3.644,0,0,1-3.275,1.742,4.589,4.589,0,0,1-2.574-.772,5.069,5.069,0,0,1-1.819-2.155,7.457,7.457,0,0,1-.646-3.181,8.326,8.326,0,0,1,.585-3.181A4.607,4.607,0,0,1,410,21.87a4.687,4.687,0,0,1,2.613-.761,3.907,3.907,0,0,1,1.886.446,3.951,3.951,0,0,1,1.345,1.163v-5.8h1.974V33.083H415.98Zm-6.274-5.844a5.086,5.086,0,0,0,.948,3.363,2.858,2.858,0,0,0,2.238,1.114,2.807,2.807,0,0,0,2.211-1.064,4.906,4.906,0,0,0,.909-3.247,5.51,5.51,0,0,0-.926-3.529,2.848,2.848,0,0,0-2.282-1.125,2.751,2.751,0,0,0-2.211,1.081A5.334,5.334,0,0,0,409.706,27.24Z" transform="translate(-6.297 -16.644)"/><path class="cls-6" d="M428.958,29.313l2.051,0.254a5.009,5.009,0,0,1-1.8,2.79,6.089,6.089,0,0,1-7.426-.59,6.185,6.185,0,0,1-1.5-4.438,6.468,6.468,0,0,1,1.521-4.586,5.151,5.151,0,0,1,3.947-1.632,5.006,5.006,0,0,1,3.837,1.6,6.353,6.353,0,0,1,1.488,4.5c0,0.118,0,.294-0.011.529h-8.732a4.5,4.5,0,0,0,1.092,2.955,3.248,3.248,0,0,0,2.447,1.025,3.036,3.036,0,0,0,1.863-.573A3.81,3.81,0,0,0,428.958,29.313ZM422.441,26.1h6.538a3.962,3.962,0,0,0-.75-2.216,3.041,3.041,0,0,0-2.458-1.146,3.153,3.153,0,0,0-2.3.915A3.624,3.624,0,0,0,422.441,26.1Z" transform="translate(-6.297 -16.644)"/><path class="cls-6" d="M441.1,33.083V31.606a3.644,3.644,0,0,1-3.275,1.742,4.589,4.589,0,0,1-2.574-.772,5.069,5.069,0,0,1-1.819-2.155,7.457,7.457,0,0,1-.646-3.181,8.326,8.326,0,0,1,.585-3.181,4.607,4.607,0,0,1,1.753-2.188,4.687,4.687,0,0,1,2.613-.761,3.907,3.907,0,0,1,1.886.446,3.951,3.951,0,0,1,1.345,1.163v-5.8h1.974V33.083H441.1Zm-6.274-5.844a5.086,5.086,0,0,0,.948,3.363,2.858,2.858,0,0,0,2.238,1.114,2.807,2.807,0,0,0,2.211-1.064,4.906,4.906,0,0,0,.909-3.247,5.51,5.51,0,0,0-.926-3.529,2.848,2.848,0,0,0-2.282-1.125,2.751,2.751,0,0,0-2.211,1.081A5.334,5.334,0,0,0,434.823,27.24Z" transform="translate(-6.297 -16.644)"/><path class="cls-6" d="M452.344,19.2V16.919h1.984V19.2h-1.984Zm0,13.882V21.374h1.984v11.71h-1.984Z" transform="translate(-6.297 -16.644)"/><path class="cls-6" d="M457.35,33.083V21.374h1.786v1.665a4.211,4.211,0,0,1,3.728-1.929,4.882,4.882,0,0,1,1.945.38,3.06,3.06,0,0,1,1.329,1,3.823,3.823,0,0,1,.617,1.467,11.386,11.386,0,0,1,.11,1.929v7.2h-1.984V25.96a5.348,5.348,0,0,0-.231-1.813,1.911,1.911,0,0,0-.821-0.959,2.615,2.615,0,0,0-1.384-.358,3.218,3.218,0,0,0-2.189.805,3.973,3.973,0,0,0-.92,3.054v6.4H457.35Z" transform="translate(-6.297 -16.644)"/><path class="cls-6" d="M476.8,33.083V16.919h2.139V33.083H476.8Z" transform="translate(-6.297 -16.644)"/><path class="cls-6" d="M482.456,33.083V21.374h1.786v1.665a4.211,4.211,0,0,1,3.728-1.929,4.882,4.882,0,0,1,1.945.38,3.06,3.06,0,0,1,1.329,1,3.823,3.823,0,0,1,.617,1.467,11.386,11.386,0,0,1,.11,1.929v7.2h-1.984V25.96a5.348,5.348,0,0,0-.231-1.813,1.911,1.911,0,0,0-.821-0.959,2.615,2.615,0,0,0-1.384-.358,3.218,3.218,0,0,0-2.189.805,3.973,3.973,0,0,0-.92,3.054v6.4h-1.985Z" transform="translate(-6.297 -16.644)"/><path class="cls-6" d="M502.656,28.794l1.951,0.253a5.062,5.062,0,0,1-1.637,3.159,4.773,4.773,0,0,1-3.236,1.141,5.03,5.03,0,0,1-3.865-1.571,6.376,6.376,0,0,1-1.461-4.5,8.15,8.15,0,0,1,.629-3.319,4.382,4.382,0,0,1,1.913-2.134,5.676,5.676,0,0,1,2.795-.711,4.859,4.859,0,0,1,3.12.964,4.424,4.424,0,0,1,1.555,2.74l-1.93.3a3.2,3.2,0,0,0-.976-1.775,2.525,2.525,0,0,0-1.692-.6,3.078,3.078,0,0,0-2.437,1.075,5.1,5.1,0,0,0-.937,3.4,5.276,5.276,0,0,0,.9,3.429,2.942,2.942,0,0,0,2.359,1.07A2.782,2.782,0,0,0,501.664,31,3.558,3.558,0,0,0,502.656,28.794Z" transform="translate(-6.297 -16.644)"/><path class="cls-6" d="M505.567,27.229a6.037,6.037,0,0,1,1.808-4.818,5.453,5.453,0,0,1,3.684-1.3,5.256,5.256,0,0,1,3.947,1.582,6.021,6.021,0,0,1,1.532,4.372,7.745,7.745,0,0,1-.678,3.556,4.8,4.8,0,0,1-1.974,2.012,5.746,5.746,0,0,1-2.828.717,5.264,5.264,0,0,1-3.976-1.577A6.3,6.3,0,0,1,505.567,27.229Zm2.04,0a4.988,4.988,0,0,0,.98,3.369,3.268,3.268,0,0,0,4.929-.005,5.106,5.106,0,0,0,.981-3.429,4.842,4.842,0,0,0-.986-3.292,3.273,3.273,0,0,0-4.924-.005A4.965,4.965,0,0,0,507.607,27.229Z" transform="translate(-6.297 -16.644)"/><path class="cls-6" d="M518.864,33.083V21.374h1.775v1.643a4.17,4.17,0,0,1,1.467-1.384,4.118,4.118,0,0,1,2.084-.523,3.852,3.852,0,0,1,2.133.54A2.893,2.893,0,0,1,527.5,23.16a4.2,4.2,0,0,1,3.616-2.051,3.566,3.566,0,0,1,2.68.964,4.123,4.123,0,0,1,.938,2.972v8.038h-1.974V25.707a5.418,5.418,0,0,0-.193-1.714,1.665,1.665,0,0,0-.7-0.844,2.188,2.188,0,0,0-1.19-.32,2.771,2.771,0,0,0-2.051.822,3.612,3.612,0,0,0-.816,2.629v6.8h-1.984V25.476a3.349,3.349,0,0,0-.485-1.985,1.837,1.837,0,0,0-1.588-.662,2.887,2.887,0,0,0-1.549.441,2.5,2.5,0,0,0-1.031,1.291,7.27,7.27,0,0,0-.319,2.448v6.075h-1.985Z" transform="translate(-6.297 -16.644)"/><path class="cls-6" d="M545.691,29.313l2.051,0.254a5.009,5.009,0,0,1-1.8,2.79,6.089,6.089,0,0,1-7.426-.59,6.185,6.185,0,0,1-1.5-4.438,6.468,6.468,0,0,1,1.521-4.586,5.151,5.151,0,0,1,3.947-1.632,5.006,5.006,0,0,1,3.837,1.6,6.353,6.353,0,0,1,1.488,4.5c0,0.118,0,.294-0.011.529h-8.732a4.5,4.5,0,0,0,1.092,2.955,3.248,3.248,0,0,0,2.447,1.025,3.036,3.036,0,0,0,1.863-.573A3.81,3.81,0,0,0,545.691,29.313ZM539.175,26.1h6.538a3.962,3.962,0,0,0-.75-2.216,3.041,3.041,0,0,0-2.458-1.146,3.153,3.153,0,0,0-2.3.915A3.624,3.624,0,0,0,539.175,26.1Z" transform="translate(-6.297 -16.644)"/><path class="cls-4" d="M14.906,365.28l1.516,0.383a5.1,5.1,0,0,1-1.715,2.848,4.728,4.728,0,0,1-3.027.98,5.437,5.437,0,0,1-3.012-.754A4.707,4.707,0,0,1,6.9,366.554a7.788,7.788,0,0,1-.605-3.07,6.745,6.745,0,0,1,.684-3.121,4.684,4.684,0,0,1,1.945-2.023,5.682,5.682,0,0,1,2.777-.691,4.7,4.7,0,0,1,2.891.875,4.543,4.543,0,0,1,1.633,2.461l-1.492.352a3.542,3.542,0,0,0-1.156-1.82,3.084,3.084,0,0,0-1.906-.57,3.7,3.7,0,0,0-2.207.633,3.339,3.339,0,0,0-1.246,1.7,6.838,6.838,0,0,0-.359,2.2,6.983,6.983,0,0,0,.426,2.551,3.17,3.17,0,0,0,1.324,1.629,3.712,3.712,0,0,0,1.945.539,3.263,3.263,0,0,0,2.156-.734A3.758,3.758,0,0,0,14.906,365.28Z" transform="translate(-6.297 -16.644)"/><path class="cls-4" d="M17.586,365.147a4.275,4.275,0,0,1,1.281-3.414,3.861,3.861,0,0,1,2.609-.922,3.724,3.724,0,0,1,2.8,1.121,4.267,4.267,0,0,1,1.086,3.1,5.491,5.491,0,0,1-.48,2.52,3.4,3.4,0,0,1-1.4,1.426,4.07,4.07,0,0,1-2,.508,3.728,3.728,0,0,1-2.816-1.117A4.462,4.462,0,0,1,17.586,365.147Zm1.445,0a3.532,3.532,0,0,0,.7,2.387,2.315,2.315,0,0,0,3.492,0,3.618,3.618,0,0,0,.7-2.43,3.428,3.428,0,0,0-.7-2.332,2.318,2.318,0,0,0-3.488,0A3.517,3.517,0,0,0,19.031,365.147Z" transform="translate(-6.297 -16.644)"/><path class="cls-4" d="M27.008,369.3V361h1.258v1.164a2.924,2.924,0,0,1,2.516-1.352,2.734,2.734,0,0,1,1.512.383,2.05,2.05,0,0,1,.832,1.07,2.979,2.979,0,0,1,2.563-1.453,2.525,2.525,0,0,1,1.9.684,2.923,2.923,0,0,1,.664,2.105v5.7h-1.4v-5.227a3.857,3.857,0,0,0-.137-1.215,1.182,1.182,0,0,0-.5-0.6,1.547,1.547,0,0,0-.844-0.227,1.964,1.964,0,0,0-1.453.582,2.561,2.561,0,0,0-.578,1.863v4.82H31.938v-5.391a2.373,2.373,0,0,0-.344-1.406,1.3,1.3,0,0,0-1.125-.469,2.046,2.046,0,0,0-1.1.313,1.769,1.769,0,0,0-.73.914,5.14,5.14,0,0,0-.227,1.734v4.3H27.008Z" transform="translate(-6.297 -16.644)"/><path class="cls-4" d="M41.633,369.3h-1.3V357.843h1.406v4.086a2.782,2.782,0,0,1,2.273-1.117,3.478,3.478,0,0,1,1.449.309,2.968,2.968,0,0,1,1.125.867,4.2,4.2,0,0,1,.691,1.348,5.564,5.564,0,0,1,.25,1.688,4.74,4.74,0,0,1-1.055,3.3,3.3,3.3,0,0,1-2.531,1.164,2.642,2.642,0,0,1-2.3-1.227V369.3Zm-0.016-4.211a4.3,4.3,0,0,0,.406,2.156,2.01,2.01,0,0,0,3.391.285,3.64,3.64,0,0,0,.672-2.387,3.7,3.7,0,0,0-.645-2.4,1.963,1.963,0,0,0-1.559-.773,2.021,2.021,0,0,0-1.594.8A3.514,3.514,0,0,0,41.617,365.085Z" transform="translate(-6.297 -16.644)"/><path class="cls-4" d="M49.242,359.46v-1.617h1.406v1.617H49.242Zm0,9.836V361h1.406v8.3H49.242Z" transform="translate(-6.297 -16.644)"/><path class="cls-4" d="M52.789,369.3V361h1.266v1.18a2.983,2.983,0,0,1,2.641-1.367,3.465,3.465,0,0,1,1.379.27,2.169,2.169,0,0,1,.941.707,2.721,2.721,0,0,1,.438,1.039,8.087,8.087,0,0,1,.078,1.367v5.1H58.125v-5.047a3.788,3.788,0,0,0-.164-1.285,1.351,1.351,0,0,0-.582-0.68,1.855,1.855,0,0,0-.98-0.254,2.279,2.279,0,0,0-1.551.57,2.812,2.812,0,0,0-.652,2.164V369.3H52.789Z" transform="translate(-6.297 -16.644)"/><path class="cls-4" d="M67.367,366.624l1.453,0.18a3.549,3.549,0,0,1-1.273,1.977,4.314,4.314,0,0,1-5.262-.418,4.381,4.381,0,0,1-1.066-3.145,4.585,4.585,0,0,1,1.078-3.25,3.65,3.65,0,0,1,2.8-1.156,3.548,3.548,0,0,1,2.719,1.133,4.5,4.5,0,0,1,1.055,3.188c0,0.083,0,.208-0.008.375H62.672a3.186,3.186,0,0,0,.773,2.094,2.3,2.3,0,0,0,1.734.727,2.154,2.154,0,0,0,1.32-.406A2.7,2.7,0,0,0,67.367,366.624Zm-4.617-2.273h4.633a2.81,2.81,0,0,0-.531-1.57,2.155,2.155,0,0,0-1.742-.812,2.232,2.232,0,0,0-1.629.648A2.566,2.566,0,0,0,62.75,364.351Z" transform="translate(-6.297 -16.644)"/><path class="cls-4" d="M75.969,369.3v-1.047a2.581,2.581,0,0,1-2.32,1.234,3.256,3.256,0,0,1-1.824-.547,3.6,3.6,0,0,1-1.289-1.527,5.279,5.279,0,0,1-.457-2.254,5.894,5.894,0,0,1,.414-2.254,3.262,3.262,0,0,1,1.242-1.551,3.32,3.32,0,0,1,1.852-.539,2.767,2.767,0,0,1,2.289,1.141v-4.109h1.4V369.3h-1.3Zm-4.445-4.141a3.6,3.6,0,0,0,.672,2.383,2.025,2.025,0,0,0,1.586.789,1.988,1.988,0,0,0,1.566-.754,3.476,3.476,0,0,0,.645-2.3,3.9,3.9,0,0,0-.656-2.5,2.018,2.018,0,0,0-1.617-.8,1.947,1.947,0,0,0-1.566.766A3.779,3.779,0,0,0,71.523,365.155Z" transform="translate(-6.297 -16.644)"/><path class="cls-4" d="M84.367,369.3V357.843h1.516V369.3H84.367Z" transform="translate(-6.297 -16.644)"/><path class="cls-4" d="M88.375,369.3V361h1.266v1.18a2.983,2.983,0,0,1,2.641-1.367,3.465,3.465,0,0,1,1.379.27,2.169,2.169,0,0,1,.941.707,2.721,2.721,0,0,1,.438,1.039,8.087,8.087,0,0,1,.078,1.367v5.1H93.711v-5.047a3.788,3.788,0,0,0-.164-1.285,1.351,1.351,0,0,0-.582-0.68,1.855,1.855,0,0,0-.98-0.254,2.279,2.279,0,0,0-1.551.57,2.812,2.812,0,0,0-.652,2.164V369.3H88.375Z" transform="translate(-6.297 -16.644)"/><path class="cls-4" d="M102.688,366.257l1.383,0.18a3.59,3.59,0,0,1-1.16,2.238,3.38,3.38,0,0,1-2.293.809,3.562,3.562,0,0,1-2.738-1.113,4.515,4.515,0,0,1-1.035-3.191,5.776,5.776,0,0,1,.445-2.352,3.1,3.1,0,0,1,1.355-1.512,4.02,4.02,0,0,1,1.98-.5,3.442,3.442,0,0,1,2.211.684,3.136,3.136,0,0,1,1.1,1.941l-1.367.211a2.271,2.271,0,0,0-.691-1.258,1.79,1.79,0,0,0-1.2-.422,2.182,2.182,0,0,0-1.727.762,3.616,3.616,0,0,0-.664,2.41,3.737,3.737,0,0,0,.641,2.43,2.085,2.085,0,0,0,1.672.758,1.97,1.97,0,0,0,1.383-.508A2.523,2.523,0,0,0,102.688,366.257Z" transform="translate(-6.297 -16.644)"/><path class="cls-4" d="M104.75,365.147a4.275,4.275,0,0,1,1.281-3.414,3.861,3.861,0,0,1,2.609-.922,3.724,3.724,0,0,1,2.8,1.121,4.267,4.267,0,0,1,1.086,3.1,5.491,5.491,0,0,1-.48,2.52,3.4,3.4,0,0,1-1.4,1.426,4.07,4.07,0,0,1-2,.508,3.728,3.728,0,0,1-2.816-1.117A4.462,4.462,0,0,1,104.75,365.147Zm1.445,0a3.532,3.532,0,0,0,.7,2.387,2.315,2.315,0,0,0,3.492,0,3.618,3.618,0,0,0,.7-2.43,3.428,3.428,0,0,0-.7-2.332,2.318,2.318,0,0,0-3.488,0A3.517,3.517,0,0,0,106.2,365.147Z" transform="translate(-6.297 -16.644)"/><path class="cls-4" d="M114.172,369.3V361h1.258v1.164a2.924,2.924,0,0,1,2.516-1.352,2.734,2.734,0,0,1,1.512.383,2.05,2.05,0,0,1,.832,1.07,2.979,2.979,0,0,1,2.563-1.453,2.525,2.525,0,0,1,1.9.684,2.923,2.923,0,0,1,.664,2.105v5.7h-1.4v-5.227a3.857,3.857,0,0,0-.137-1.215,1.182,1.182,0,0,0-.5-0.6,1.547,1.547,0,0,0-.844-0.227,1.964,1.964,0,0,0-1.453.582,2.561,2.561,0,0,0-.578,1.863v4.82H119.1v-5.391a2.373,2.373,0,0,0-.344-1.406,1.3,1.3,0,0,0-1.125-.469,2.046,2.046,0,0,0-1.1.313,1.769,1.769,0,0,0-.73.914,5.14,5.14,0,0,0-.227,1.734v4.3h-1.406Z" transform="translate(-6.297 -16.644)"/><path class="cls-4" d="M133.18,366.624l1.453,0.18a3.549,3.549,0,0,1-1.273,1.977,4.314,4.314,0,0,1-5.262-.418,4.381,4.381,0,0,1-1.066-3.145,4.585,4.585,0,0,1,1.078-3.25,3.65,3.65,0,0,1,2.8-1.156,3.548,3.548,0,0,1,2.719,1.133,4.5,4.5,0,0,1,1.055,3.188c0,0.083,0,.208-0.008.375h-6.187a3.186,3.186,0,0,0,.773,2.094,2.3,2.3,0,0,0,1.734.727,2.154,2.154,0,0,0,1.32-.406A2.7,2.7,0,0,0,133.18,366.624Zm-4.617-2.273H133.2a2.81,2.81,0,0,0-.531-1.57,2.155,2.155,0,0,0-1.742-.812,2.232,2.232,0,0,0-1.629.648A2.566,2.566,0,0,0,128.563,364.351Z" transform="translate(-6.297 -16.644)"/><path class="cls-5" d="M7.234,138.243V126.79h4.32a10.4,10.4,0,0,1,1.742.109,3.457,3.457,0,0,1,1.414.535,2.812,2.812,0,0,1,.918,1.105,3.728,3.728,0,0,1-.582,4.035,4.459,4.459,0,0,1-3.359,1.012H8.75v4.656H7.234Zm1.516-6.008h2.961a3.143,3.143,0,0,0,2.086-.547,1.95,1.95,0,0,0,.617-1.539,2.069,2.069,0,0,0-.363-1.23,1.7,1.7,0,0,0-.957-0.676,6.5,6.5,0,0,0-1.414-.1H8.75v4.094Z" transform="translate(-6.297 -16.644)"/><path class="cls-5" d="M23.406,135.571l1.453,0.18a3.549,3.549,0,0,1-1.273,1.977,3.829,3.829,0,0,1-2.375.7,3.8,3.8,0,0,1-2.887-1.121,4.381,4.381,0,0,1-1.066-3.145,4.585,4.585,0,0,1,1.078-3.25,3.65,3.65,0,0,1,2.8-1.156,3.548,3.548,0,0,1,2.719,1.133,4.5,4.5,0,0,1,1.055,3.188c0,0.083,0,.208-0.008.375H18.711a3.186,3.186,0,0,0,.773,2.094,2.3,2.3,0,0,0,1.734.727,2.154,2.154,0,0,0,1.32-.406A2.7,2.7,0,0,0,23.406,135.571ZM18.789,133.3h4.633a2.81,2.81,0,0,0-.531-1.57,2.155,2.155,0,0,0-1.742-.812,2.232,2.232,0,0,0-1.629.648A2.566,2.566,0,0,0,18.789,133.3Z" transform="translate(-6.297 -16.644)"/><path class="cls-5" d="M26.609,138.243v-8.3h1.266V131.2a3.427,3.427,0,0,1,.895-1.164,1.561,1.561,0,0,1,.9-0.281,2.747,2.747,0,0,1,1.445.453l-0.484,1.3a2.012,2.012,0,0,0-1.031-.3,1.34,1.34,0,0,0-.828.277,1.5,1.5,0,0,0-.523.77,5.478,5.478,0,0,0-.234,1.641v4.344H26.609Z" transform="translate(-6.297 -16.644)"/><path class="cls-5" d="M37.367,135.2l1.383,0.18a3.59,3.59,0,0,1-1.16,2.238,3.38,3.38,0,0,1-2.293.809,3.562,3.562,0,0,1-2.738-1.113,4.515,4.515,0,0,1-1.035-3.191,5.776,5.776,0,0,1,.445-2.352,3.1,3.1,0,0,1,1.355-1.512,4.02,4.02,0,0,1,1.98-.5,3.442,3.442,0,0,1,2.211.684,3.136,3.136,0,0,1,1.1,1.941l-1.367.211a2.271,2.271,0,0,0-.691-1.258,1.79,1.79,0,0,0-1.2-.422,2.182,2.182,0,0,0-1.727.762,3.616,3.616,0,0,0-.664,2.41,3.737,3.737,0,0,0,.641,2.43,2.085,2.085,0,0,0,1.672.758,1.97,1.97,0,0,0,1.383-.508A2.523,2.523,0,0,0,37.367,135.2Z" transform="translate(-6.297 -16.644)"/><path class="cls-5" d="M45.633,135.571l1.453,0.18a3.549,3.549,0,0,1-1.273,1.977,4.314,4.314,0,0,1-5.262-.418,4.381,4.381,0,0,1-1.066-3.145,4.585,4.585,0,0,1,1.078-3.25,3.65,3.65,0,0,1,2.8-1.156,3.548,3.548,0,0,1,2.719,1.133,4.5,4.5,0,0,1,1.055,3.188c0,0.083,0,.208-0.008.375H40.938a3.186,3.186,0,0,0,.773,2.094,2.3,2.3,0,0,0,1.734.727,2.154,2.154,0,0,0,1.32-.406A2.7,2.7,0,0,0,45.633,135.571ZM41.016,133.3h4.633a2.81,2.81,0,0,0-.531-1.57,2.155,2.155,0,0,0-1.742-.812,2.232,2.232,0,0,0-1.629.648A2.566,2.566,0,0,0,41.016,133.3Z" transform="translate(-6.297 -16.644)"/><path class="cls-5" d="M48.852,138.243v-8.3h1.266v1.18a2.983,2.983,0,0,1,2.641-1.367,3.465,3.465,0,0,1,1.379.27,2.169,2.169,0,0,1,.941.707,2.721,2.721,0,0,1,.438,1.039,8.087,8.087,0,0,1,.078,1.367v5.1H54.188V133.2a3.788,3.788,0,0,0-.164-1.285,1.351,1.351,0,0,0-.582-0.68,1.855,1.855,0,0,0-.98-0.254,2.279,2.279,0,0,0-1.551.57,2.812,2.812,0,0,0-.652,2.164v4.531H48.852Z" transform="translate(-6.297 -16.644)"/><path class="cls-5" d="M60.82,136.985l0.2,1.242a5.241,5.241,0,0,1-1.062.125,2.408,2.408,0,0,1-1.187-.242,1.354,1.354,0,0,1-.594-0.637,5.029,5.029,0,0,1-.172-1.66V131.04H56.977v-1.094h1.031v-2.055l1.4-.844v2.9H60.82v1.094H59.406v4.852a2.438,2.438,0,0,0,.074.773,0.583,0.583,0,0,0,.242.273,0.938,0.938,0,0,0,.48.1A4.631,4.631,0,0,0,60.82,136.985Z" transform="translate(-6.297 -16.644)"/><path class="cls-5" d="M66.117,134.095a4.275,4.275,0,0,1,1.281-3.414,3.861,3.861,0,0,1,2.609-.922,3.724,3.724,0,0,1,2.8,1.121,4.267,4.267,0,0,1,1.086,3.1,5.491,5.491,0,0,1-.48,2.52,3.4,3.4,0,0,1-1.4,1.426,4.07,4.07,0,0,1-2,.508,3.728,3.728,0,0,1-2.816-1.117A4.462,4.462,0,0,1,66.117,134.095Zm1.445,0a3.532,3.532,0,0,0,.7,2.387,2.315,2.315,0,0,0,3.492,0,3.618,3.618,0,0,0,.7-2.43,3.428,3.428,0,0,0-.7-2.332,2.318,2.318,0,0,0-3.488,0A3.517,3.517,0,0,0,67.563,134.095Z" transform="translate(-6.297 -16.644)"/><path class="cls-5" d="M75.875,138.243v-7.2H74.633v-1.094h1.242v-0.883a3.858,3.858,0,0,1,.148-1.242,1.8,1.8,0,0,1,.715-0.887,2.575,2.575,0,0,1,1.434-.34,6.889,6.889,0,0,1,1.313.141l-0.211,1.227a4.755,4.755,0,0,0-.828-0.078,1.23,1.23,0,0,0-.906.273,1.482,1.482,0,0,0-.266,1.023v0.766h1.617v1.094H77.273v7.2h-1.4Z" transform="translate(-6.297 -16.644)"/><path class="cls-5" d="M84.094,134.563l1.43-.125a3.15,3.15,0,0,0,.473,1.41,2.577,2.577,0,0,0,1.152.891,4.362,4.362,0,0,0,1.758.34,4.213,4.213,0,0,0,1.531-.258,2.124,2.124,0,0,0,.988-0.707,1.642,1.642,0,0,0,.324-0.98,1.493,1.493,0,0,0-.312-0.941,2.317,2.317,0,0,0-1.031-.676,20.209,20.209,0,0,0-2.039-.559,10.454,10.454,0,0,1-2.211-.715,3.094,3.094,0,0,1-1.223-1.066,2.611,2.611,0,0,1-.4-1.426,2.912,2.912,0,0,1,.492-1.621,3.047,3.047,0,0,1,1.438-1.145,5.446,5.446,0,0,1,2.1-.391,5.742,5.742,0,0,1,2.246.41,3.24,3.24,0,0,1,1.5,1.207,3.473,3.473,0,0,1,.563,1.8l-1.453.109a2.347,2.347,0,0,0-.793-1.641,3.086,3.086,0,0,0-2-.555,3.2,3.2,0,0,0-2,.5,1.511,1.511,0,0,0-.629,1.215,1.3,1.3,0,0,0,.445,1.016,6.026,6.026,0,0,0,2.285.816,15.13,15.13,0,0,1,2.535.73,3.474,3.474,0,0,1,1.477,1.168,2.849,2.849,0,0,1,.477,1.629,3.118,3.118,0,0,1-.523,1.723,3.451,3.451,0,0,1-1.5,1.258,5.236,5.236,0,0,1-2.207.449,6.594,6.594,0,0,1-2.605-.453,3.648,3.648,0,0,1-1.648-1.363A3.862,3.862,0,0,1,84.094,134.563Z" transform="translate(-6.297 -16.644)"/><path class="cls-5" d="M94.766,134.563l1.43-.125a3.15,3.15,0,0,0,.473,1.41,2.577,2.577,0,0,0,1.152.891,4.362,4.362,0,0,0,1.758.34,4.213,4.213,0,0,0,1.531-.258,2.124,2.124,0,0,0,.988-0.707,1.642,1.642,0,0,0,.324-0.98,1.493,1.493,0,0,0-.312-0.941,2.317,2.317,0,0,0-1.031-.676,20.209,20.209,0,0,0-2.039-.559,10.454,10.454,0,0,1-2.211-.715,3.094,3.094,0,0,1-1.223-1.066,2.611,2.611,0,0,1-.4-1.426,2.912,2.912,0,0,1,.492-1.621,3.047,3.047,0,0,1,1.438-1.145,5.446,5.446,0,0,1,2.1-.391,5.742,5.742,0,0,1,2.246.41,3.24,3.24,0,0,1,1.5,1.207,3.473,3.473,0,0,1,.563,1.8l-1.453.109a2.347,2.347,0,0,0-.793-1.641,3.086,3.086,0,0,0-2-.555,3.2,3.2,0,0,0-2,.5,1.511,1.511,0,0,0-.629,1.215,1.3,1.3,0,0,0,.445,1.016,6.026,6.026,0,0,0,2.285.816,15.13,15.13,0,0,1,2.535.73,3.474,3.474,0,0,1,1.477,1.168,2.849,2.849,0,0,1,.477,1.629,3.118,3.118,0,0,1-.523,1.723,3.451,3.451,0,0,1-1.5,1.258,5.236,5.236,0,0,1-2.207.449,6.594,6.594,0,0,1-2.605-.453,3.648,3.648,0,0,1-1.648-1.363A3.862,3.862,0,0,1,94.766,134.563Z" transform="translate(-6.297 -16.644)"/><path class="cls-5" d="M110.656,138.243V126.79h1.516v11.453h-1.516Z" transform="translate(-6.297 -16.644)"/><path class="cls-5" d="M114.664,138.243v-8.3h1.266v1.18a2.983,2.983,0,0,1,2.641-1.367,3.465,3.465,0,0,1,1.379.27,2.169,2.169,0,0,1,.941.707,2.721,2.721,0,0,1,.438,1.039,8.087,8.087,0,0,1,.078,1.367v5.1H120V133.2a3.788,3.788,0,0,0-.164-1.285,1.351,1.351,0,0,0-.582-0.68,1.855,1.855,0,0,0-.98-0.254,2.279,2.279,0,0,0-1.551.57,2.812,2.812,0,0,0-.652,2.164v4.531h-1.406Z" transform="translate(-6.297 -16.644)"/><path class="cls-5" d="M128.977,135.2l1.383,0.18a3.59,3.59,0,0,1-1.16,2.238,3.38,3.38,0,0,1-2.293.809,3.562,3.562,0,0,1-2.738-1.113,4.515,4.515,0,0,1-1.035-3.191,5.776,5.776,0,0,1,.445-2.352,3.1,3.1,0,0,1,1.355-1.512,4.02,4.02,0,0,1,1.98-.5,3.442,3.442,0,0,1,2.211.684,3.136,3.136,0,0,1,1.1,1.941l-1.367.211a2.271,2.271,0,0,0-.691-1.258,1.79,1.79,0,0,0-1.2-.422,2.182,2.182,0,0,0-1.727.762,3.616,3.616,0,0,0-.664,2.41,3.737,3.737,0,0,0,.641,2.43,2.085,2.085,0,0,0,1.672.758,1.97,1.97,0,0,0,1.383-.508A2.523,2.523,0,0,0,128.977,135.2Z" transform="translate(-6.297 -16.644)"/><path class="cls-5" d="M131.531,138.243V126.79h1.406v11.453h-1.406Z" transform="translate(-6.297 -16.644)"/><path class="cls-5" d="M140.555,138.243v-1.219a3.037,3.037,0,0,1-2.633,1.406,3.354,3.354,0,0,1-1.371-.281,2.252,2.252,0,0,1-.945-0.707,2.644,2.644,0,0,1-.434-1.043,7.116,7.116,0,0,1-.086-1.312v-5.141h1.406v4.6a8.167,8.167,0,0,0,.086,1.484,1.464,1.464,0,0,0,.563.871,1.742,1.742,0,0,0,1.063.316,2.318,2.318,0,0,0,1.188-.324,1.8,1.8,0,0,0,.785-0.883,4.437,4.437,0,0,0,.23-1.621v-4.445h1.406v8.3h-1.258Z" transform="translate(-6.297 -16.644)"/><path class="cls-5" d="M149.4,138.243V137.2a2.581,2.581,0,0,1-2.32,1.234,3.256,3.256,0,0,1-1.824-.547,3.6,3.6,0,0,1-1.289-1.527,5.279,5.279,0,0,1-.457-2.254,5.894,5.894,0,0,1,.414-2.254,3.262,3.262,0,0,1,1.242-1.551,3.32,3.32,0,0,1,1.852-.539A2.767,2.767,0,0,1,149.3,130.9V126.79h1.4v11.453h-1.3Zm-4.445-4.141a3.6,3.6,0,0,0,.672,2.383,2.025,2.025,0,0,0,1.586.789,1.988,1.988,0,0,0,1.566-.754,3.476,3.476,0,0,0,.645-2.3,3.9,3.9,0,0,0-.656-2.5,2.018,2.018,0,0,0-1.617-.8,1.947,1.947,0,0,0-1.566.766A3.779,3.779,0,0,0,144.953,134.1Z" transform="translate(-6.297 -16.644)"/><path class="cls-5" d="M158.594,135.571l1.453,0.18a3.549,3.549,0,0,1-1.273,1.977,4.314,4.314,0,0,1-5.262-.418,4.381,4.381,0,0,1-1.066-3.145,4.585,4.585,0,0,1,1.078-3.25,3.65,3.65,0,0,1,2.8-1.156,3.548,3.548,0,0,1,2.719,1.133,4.5,4.5,0,0,1,1.055,3.188c0,0.083,0,.208-0.008.375H153.9a3.186,3.186,0,0,0,.773,2.094,2.3,2.3,0,0,0,1.734.727,2.154,2.154,0,0,0,1.32-.406A2.7,2.7,0,0,0,158.594,135.571Zm-4.617-2.273h4.633a2.81,2.81,0,0,0-.531-1.57,2.155,2.155,0,0,0-1.742-.812,2.232,2.232,0,0,0-1.629.648A2.566,2.566,0,0,0,153.977,133.3Z" transform="translate(-6.297 -16.644)"/><path class="cls-5" d="M167.2,138.243V137.2a2.581,2.581,0,0,1-2.32,1.234,3.256,3.256,0,0,1-1.824-.547,3.6,3.6,0,0,1-1.289-1.527,5.279,5.279,0,0,1-.457-2.254,5.894,5.894,0,0,1,.414-2.254,3.262,3.262,0,0,1,1.242-1.551,3.32,3.32,0,0,1,1.852-.539A2.767,2.767,0,0,1,167.1,130.9V126.79h1.4v11.453h-1.3ZM162.75,134.1a3.6,3.6,0,0,0,.672,2.383,2.025,2.025,0,0,0,1.586.789,1.988,1.988,0,0,0,1.566-.754,3.476,3.476,0,0,0,.645-2.3,3.9,3.9,0,0,0-.656-2.5,2.018,2.018,0,0,0-1.617-.8,1.947,1.947,0,0,0-1.566.766A3.779,3.779,0,0,0,162.75,134.1Z" transform="translate(-6.297 -16.644)"/><path class="cls-5" d="M7.234,322.59V311.137h4.32a10.4,10.4,0,0,1,1.742.109,3.457,3.457,0,0,1,1.414.535,2.812,2.812,0,0,1,.918,1.105,3.728,3.728,0,0,1-.582,4.035,4.459,4.459,0,0,1-3.359,1.012H8.75v4.656H7.234Zm1.516-6.008h2.961a3.143,3.143,0,0,0,2.086-.547,1.95,1.95,0,0,0,.617-1.539,2.069,2.069,0,0,0-.363-1.23,1.7,1.7,0,0,0-.957-0.676,6.5,6.5,0,0,0-1.414-.1H8.75v4.094Z" transform="translate(-6.297 -16.644)"/><path class="cls-5" d="M23.406,319.918l1.453,0.18a3.549,3.549,0,0,1-1.273,1.977,3.829,3.829,0,0,1-2.375.7,3.8,3.8,0,0,1-2.887-1.121,4.381,4.381,0,0,1-1.066-3.145,4.585,4.585,0,0,1,1.078-3.25,3.65,3.65,0,0,1,2.8-1.156,3.548,3.548,0,0,1,2.719,1.133,4.5,4.5,0,0,1,1.055,3.188c0,0.083,0,.208-0.008.375H18.711a3.186,3.186,0,0,0,.773,2.094,2.3,2.3,0,0,0,1.734.727,2.154,2.154,0,0,0,1.32-.406A2.7,2.7,0,0,0,23.406,319.918Zm-4.617-2.273h4.633a2.81,2.81,0,0,0-.531-1.57,2.155,2.155,0,0,0-1.742-.812,2.232,2.232,0,0,0-1.629.648A2.566,2.566,0,0,0,18.789,317.645Z" transform="translate(-6.297 -16.644)"/><path class="cls-5" d="M26.609,322.59v-8.3h1.266v1.258a3.427,3.427,0,0,1,.895-1.164,1.561,1.561,0,0,1,.9-0.281,2.747,2.747,0,0,1,1.445.453l-0.484,1.3a2.012,2.012,0,0,0-1.031-.3,1.34,1.34,0,0,0-.828.277,1.5,1.5,0,0,0-.523.77,5.478,5.478,0,0,0-.234,1.641v4.344H26.609Z" transform="translate(-6.297 -16.644)"/><path class="cls-5" d="M37.367,319.551l1.383,0.18a3.59,3.59,0,0,1-1.16,2.238,3.38,3.38,0,0,1-2.293.809,3.562,3.562,0,0,1-2.738-1.113,4.515,4.515,0,0,1-1.035-3.191,5.776,5.776,0,0,1,.445-2.352,3.1,3.1,0,0,1,1.355-1.512,4.02,4.02,0,0,1,1.98-.5,3.442,3.442,0,0,1,2.211.684,3.136,3.136,0,0,1,1.1,1.941l-1.367.211a2.271,2.271,0,0,0-.691-1.258,1.79,1.79,0,0,0-1.2-.422,2.182,2.182,0,0,0-1.727.762,3.616,3.616,0,0,0-.664,2.41,3.737,3.737,0,0,0,.641,2.43,2.085,2.085,0,0,0,1.672.758,1.97,1.97,0,0,0,1.383-.508A2.523,2.523,0,0,0,37.367,319.551Z" transform="translate(-6.297 -16.644)"/><path class="cls-5" d="M45.633,319.918l1.453,0.18a3.549,3.549,0,0,1-1.273,1.977,4.314,4.314,0,0,1-5.262-.418,4.381,4.381,0,0,1-1.066-3.145,4.585,4.585,0,0,1,1.078-3.25,3.65,3.65,0,0,1,2.8-1.156,3.548,3.548,0,0,1,2.719,1.133,4.5,4.5,0,0,1,1.055,3.188c0,0.083,0,.208-0.008.375H40.938a3.186,3.186,0,0,0,.773,2.094,2.3,2.3,0,0,0,1.734.727,2.154,2.154,0,0,0,1.32-.406A2.7,2.7,0,0,0,45.633,319.918Zm-4.617-2.273h4.633a2.81,2.81,0,0,0-.531-1.57,2.155,2.155,0,0,0-1.742-.812,2.232,2.232,0,0,0-1.629.648A2.566,2.566,0,0,0,41.016,317.645Z" transform="translate(-6.297 -16.644)"/><path class="cls-5" d="M48.852,322.59v-8.3h1.266v1.18a2.983,2.983,0,0,1,2.641-1.367,3.465,3.465,0,0,1,1.379.27,2.169,2.169,0,0,1,.941.707,2.721,2.721,0,0,1,.438,1.039,8.087,8.087,0,0,1,.078,1.367v5.1H54.188v-5.047a3.788,3.788,0,0,0-.164-1.285,1.351,1.351,0,0,0-.582-0.68,1.855,1.855,0,0,0-.98-0.254,2.279,2.279,0,0,0-1.551.57,2.812,2.812,0,0,0-.652,2.164v4.531H48.852Z" transform="translate(-6.297 -16.644)"/><path class="cls-5" d="M60.82,321.332l0.2,1.242a5.241,5.241,0,0,1-1.062.125,2.408,2.408,0,0,1-1.187-.242,1.354,1.354,0,0,1-.594-0.637,5.029,5.029,0,0,1-.172-1.66v-4.773H56.977v-1.094h1.031v-2.055l1.4-.844v2.9H60.82v1.094H59.406v4.852a2.438,2.438,0,0,0,.074.773,0.583,0.583,0,0,0,.242.273,0.938,0.938,0,0,0,.48.1A4.631,4.631,0,0,0,60.82,321.332Z" transform="translate(-6.297 -16.644)"/><path class="cls-5" d="M66.117,318.441a4.275,4.275,0,0,1,1.281-3.414,3.861,3.861,0,0,1,2.609-.922,3.724,3.724,0,0,1,2.8,1.121,4.267,4.267,0,0,1,1.086,3.1,5.491,5.491,0,0,1-.48,2.52,3.4,3.4,0,0,1-1.4,1.426,4.07,4.07,0,0,1-2,.508,3.728,3.728,0,0,1-2.816-1.117A4.462,4.462,0,0,1,66.117,318.441Zm1.445,0a3.532,3.532,0,0,0,.7,2.387,2.315,2.315,0,0,0,3.492,0,3.618,3.618,0,0,0,.7-2.43,3.428,3.428,0,0,0-.7-2.332,2.318,2.318,0,0,0-3.488,0A3.517,3.517,0,0,0,67.563,318.441Z" transform="translate(-6.297 -16.644)"/><path class="cls-5" d="M75.875,322.59v-7.2H74.633v-1.094h1.242V313.41a3.858,3.858,0,0,1,.148-1.242,1.8,1.8,0,0,1,.715-0.887,2.575,2.575,0,0,1,1.434-.34,6.889,6.889,0,0,1,1.313.141l-0.211,1.227a4.755,4.755,0,0,0-.828-0.078,1.23,1.23,0,0,0-.906.273,1.482,1.482,0,0,0-.266,1.023v0.766h1.617v1.094H77.273v7.2h-1.4Z" transform="translate(-6.297 -16.644)"/><path class="cls-5" d="M84.094,318.91l1.43-.125A3.15,3.15,0,0,0,86,320.2a2.577,2.577,0,0,0,1.152.891,4.362,4.362,0,0,0,1.758.34,4.213,4.213,0,0,0,1.531-.258,2.124,2.124,0,0,0,.988-0.707,1.642,1.642,0,0,0,.324-0.98,1.493,1.493,0,0,0-.312-0.941,2.317,2.317,0,0,0-1.031-.676,20.209,20.209,0,0,0-2.039-.559,10.454,10.454,0,0,1-2.211-.715,3.094,3.094,0,0,1-1.223-1.066,2.611,2.611,0,0,1-.4-1.426,2.912,2.912,0,0,1,.492-1.621,3.047,3.047,0,0,1,1.438-1.145,5.446,5.446,0,0,1,2.1-.391,5.742,5.742,0,0,1,2.246.41,3.24,3.24,0,0,1,1.5,1.207,3.473,3.473,0,0,1,.563,1.8l-1.453.109a2.347,2.347,0,0,0-.793-1.641,3.086,3.086,0,0,0-2-.555,3.2,3.2,0,0,0-2,.5A1.511,1.511,0,0,0,85.992,314a1.3,1.3,0,0,0,.445,1.016,6.026,6.026,0,0,0,2.285.816,15.13,15.13,0,0,1,2.535.73,3.474,3.474,0,0,1,1.477,1.168,2.849,2.849,0,0,1,.477,1.629,3.118,3.118,0,0,1-.523,1.723,3.451,3.451,0,0,1-1.5,1.258,5.236,5.236,0,0,1-2.207.449,6.594,6.594,0,0,1-2.605-.453,3.648,3.648,0,0,1-1.648-1.363A3.862,3.862,0,0,1,84.094,318.91Z" transform="translate(-6.297 -16.644)"/><path class="cls-5" d="M94.766,318.91l1.43-.125a3.15,3.15,0,0,0,.473,1.41,2.577,2.577,0,0,0,1.152.891,4.362,4.362,0,0,0,1.758.34,4.213,4.213,0,0,0,1.531-.258,2.124,2.124,0,0,0,.988-0.707,1.642,1.642,0,0,0,.324-0.98,1.493,1.493,0,0,0-.312-0.941,2.317,2.317,0,0,0-1.031-.676,20.209,20.209,0,0,0-2.039-.559,10.454,10.454,0,0,1-2.211-.715,3.094,3.094,0,0,1-1.223-1.066,2.611,2.611,0,0,1-.4-1.426,2.912,2.912,0,0,1,.492-1.621,3.047,3.047,0,0,1,1.438-1.145,5.446,5.446,0,0,1,2.1-.391,5.742,5.742,0,0,1,2.246.41,3.24,3.24,0,0,1,1.5,1.207,3.473,3.473,0,0,1,.563,1.8l-1.453.109a2.347,2.347,0,0,0-.793-1.641,3.086,3.086,0,0,0-2-.555,3.2,3.2,0,0,0-2,.5A1.511,1.511,0,0,0,96.664,314a1.3,1.3,0,0,0,.445,1.016,6.026,6.026,0,0,0,2.285.816,15.13,15.13,0,0,1,2.535.73,3.474,3.474,0,0,1,1.477,1.168,2.849,2.849,0,0,1,.477,1.629,3.118,3.118,0,0,1-.523,1.723,3.451,3.451,0,0,1-1.5,1.258,5.236,5.236,0,0,1-2.207.449,6.594,6.594,0,0,1-2.605-.453,3.648,3.648,0,0,1-1.648-1.363A3.862,3.862,0,0,1,94.766,318.91Z" transform="translate(-6.297 -16.644)"/><path class="cls-5" d="M110.656,322.59V311.137h1.516V322.59h-1.516Z" transform="translate(-6.297 -16.644)"/><path class="cls-5" d="M114.664,322.59v-8.3h1.266v1.18a2.983,2.983,0,0,1,2.641-1.367,3.465,3.465,0,0,1,1.379.27,2.169,2.169,0,0,1,.941.707,2.721,2.721,0,0,1,.438,1.039,8.087,8.087,0,0,1,.078,1.367v5.1H120v-5.047a3.788,3.788,0,0,0-.164-1.285,1.351,1.351,0,0,0-.582-0.68,1.855,1.855,0,0,0-.98-0.254,2.279,2.279,0,0,0-1.551.57,2.812,2.812,0,0,0-.652,2.164v4.531h-1.406Z" transform="translate(-6.297 -16.644)"/><path class="cls-5" d="M128.977,319.551l1.383,0.18a3.59,3.59,0,0,1-1.16,2.238,3.38,3.38,0,0,1-2.293.809,3.562,3.562,0,0,1-2.738-1.113,4.515,4.515,0,0,1-1.035-3.191,5.776,5.776,0,0,1,.445-2.352,3.1,3.1,0,0,1,1.355-1.512,4.02,4.02,0,0,1,1.98-.5,3.442,3.442,0,0,1,2.211.684,3.136,3.136,0,0,1,1.1,1.941l-1.367.211a2.271,2.271,0,0,0-.691-1.258,1.79,1.79,0,0,0-1.2-.422,2.182,2.182,0,0,0-1.727.762,3.616,3.616,0,0,0-.664,2.41,3.737,3.737,0,0,0,.641,2.43,2.085,2.085,0,0,0,1.672.758,1.97,1.97,0,0,0,1.383-.508A2.523,2.523,0,0,0,128.977,319.551Z" transform="translate(-6.297 -16.644)"/><path class="cls-5" d="M131.531,322.59V311.137h1.406V322.59h-1.406Z" transform="translate(-6.297 -16.644)"/><path class="cls-5" d="M140.555,322.59v-1.219a3.037,3.037,0,0,1-2.633,1.406,3.354,3.354,0,0,1-1.371-.281,2.252,2.252,0,0,1-.945-0.707,2.644,2.644,0,0,1-.434-1.043,7.116,7.116,0,0,1-.086-1.312v-5.141h1.406v4.6a8.167,8.167,0,0,0,.086,1.484,1.464,1.464,0,0,0,.563.871,1.742,1.742,0,0,0,1.063.316,2.318,2.318,0,0,0,1.188-.324,1.8,1.8,0,0,0,.785-0.883,4.437,4.437,0,0,0,.23-1.621v-4.445h1.406v8.3h-1.258Z" transform="translate(-6.297 -16.644)"/><path class="cls-5" d="M149.4,322.59v-1.047a2.581,2.581,0,0,1-2.32,1.234,3.256,3.256,0,0,1-1.824-.547,3.6,3.6,0,0,1-1.289-1.527,5.279,5.279,0,0,1-.457-2.254,5.894,5.894,0,0,1,.414-2.254,3.262,3.262,0,0,1,1.242-1.551,3.32,3.32,0,0,1,1.852-.539,2.767,2.767,0,0,1,2.289,1.141v-4.109h1.4V322.59h-1.3Zm-4.445-4.141a3.6,3.6,0,0,0,.672,2.383,2.025,2.025,0,0,0,1.586.789,1.988,1.988,0,0,0,1.566-.754,3.476,3.476,0,0,0,.645-2.3,3.9,3.9,0,0,0-.656-2.5,2.018,2.018,0,0,0-1.617-.8,1.947,1.947,0,0,0-1.566.766A3.779,3.779,0,0,0,144.953,318.449Z" transform="translate(-6.297 -16.644)"/><path class="cls-5" d="M158.594,319.918l1.453,0.18a3.549,3.549,0,0,1-1.273,1.977,4.314,4.314,0,0,1-5.262-.418,4.381,4.381,0,0,1-1.066-3.145,4.585,4.585,0,0,1,1.078-3.25,3.65,3.65,0,0,1,2.8-1.156,3.548,3.548,0,0,1,2.719,1.133,4.5,4.5,0,0,1,1.055,3.188c0,0.083,0,.208-0.008.375H153.9a3.186,3.186,0,0,0,.773,2.094,2.3,2.3,0,0,0,1.734.727,2.154,2.154,0,0,0,1.32-.406A2.7,2.7,0,0,0,158.594,319.918Zm-4.617-2.273h4.633a2.81,2.81,0,0,0-.531-1.57,2.155,2.155,0,0,0-1.742-.812,2.232,2.232,0,0,0-1.629.648A2.566,2.566,0,0,0,153.977,317.645Z" transform="translate(-6.297 -16.644)"/><path class="cls-5" d="M167.2,322.59v-1.047a2.581,2.581,0,0,1-2.32,1.234,3.256,3.256,0,0,1-1.824-.547,3.6,3.6,0,0,1-1.289-1.527,5.279,5.279,0,0,1-.457-2.254,5.894,5.894,0,0,1,.414-2.254,3.262,3.262,0,0,1,1.242-1.551,3.32,3.32,0,0,1,1.852-.539,2.767,2.767,0,0,1,2.289,1.141v-4.109h1.4V322.59h-1.3Zm-4.445-4.141a3.6,3.6,0,0,0,.672,2.383,2.025,2.025,0,0,0,1.586.789,1.988,1.988,0,0,0,1.566-.754,3.476,3.476,0,0,0,.645-2.3,3.9,3.9,0,0,0-.656-2.5,2.018,2.018,0,0,0-1.617-.8,1.947,1.947,0,0,0-1.566.766A3.779,3.779,0,0,0,162.75,318.449Z" transform="translate(-6.297 -16.644)"/></svg>