<svg id="Layer_1" data-name="Layer 1" xmlns="http://www.w3.org/2000/svg" viewBox="0 0 301.454 173.138"><defs><style>.cls-1,.cls-4,.cls-7{fill:none;}.cls-1{stroke:#25408f;}.cls-2{fill:#25408f;}.cls-3{fill:#231f20;}.cls-4,.cls-6{stroke:#23a84a;}.cls-5{fill:#b12229;}.cls-6{fill:#23a84a;}.cls-7{stroke:#231f20;stroke-miterlimit:10;}</style></defs><title>Tax-Exempt_Organization</title><rect class="cls-1" x="52.396" y="59.972" width="198.664" height="32.165"/><rect class="cls-2" x="52.396" y="51.3" width="198.664" height="8.672"/><rect class="cls-1" x="52.396" y="51.3" width="198.664" height="8.672"/><path class="cls-3" d="M125.731,87.357v-2.3h-4.162v-1.08l4.378-6.217h0.962v6.217h1.3v1.08h-1.3v2.3h-1.178Zm0-3.376V79.655l-3,4.326h3Z" transform="translate(-8.171 -7.362)"/><path class="cls-3" d="M129.409,82.626a8.776,8.776,0,0,1,.35-2.738,3.4,3.4,0,0,1,1.041-1.6,2.662,2.662,0,0,1,1.737-.563,2.837,2.837,0,0,1,1.354.311,2.591,2.591,0,0,1,.962.9,4.818,4.818,0,0,1,.6,1.427,9.474,9.474,0,0,1,.216,2.267,8.8,8.8,0,0,1-.347,2.726,3.41,3.41,0,0,1-1.037,1.6,2.66,2.66,0,0,1-1.744.566,2.633,2.633,0,0,1-2.179-.995A6.323,6.323,0,0,1,129.409,82.626Zm1.211,0a6.016,6.016,0,0,0,.553,3.145,1.579,1.579,0,0,0,2.729,0,6.022,6.022,0,0,0,.553-3.141,6.018,6.018,0,0,0-.553-3.147,1.643,1.643,0,0,0-1.378-.779,1.509,1.509,0,0,0-1.3.687A6.086,6.086,0,0,0,130.62,82.626Z" transform="translate(-8.171 -7.362)"/><path class="cls-3" d="M136.869,84.825l1.178-.157a2.594,2.594,0,0,0,.69,1.443,1.7,1.7,0,0,0,1.188.442,1.9,1.9,0,0,0,1.4-.576,1.942,1.942,0,0,0,.573-1.426,1.807,1.807,0,0,0-.53-1.338,1.833,1.833,0,0,0-1.348-.527,3.376,3.376,0,0,0-.831.131l0.131-1.034a1.772,1.772,0,0,0,.19.013,2.426,2.426,0,0,0,1.354-.393,1.343,1.343,0,0,0,.6-1.21,1.431,1.431,0,0,0-.438-1.073,1.556,1.556,0,0,0-1.132-.425,1.607,1.607,0,0,0-1.146.432,2.172,2.172,0,0,0-.589,1.3l-1.178-.209a3.029,3.029,0,0,1,.981-1.835,2.837,2.837,0,0,1,1.9-.651,3.134,3.134,0,0,1,1.446.337,2.435,2.435,0,0,1,1.011.919,2.361,2.361,0,0,1,.35,1.236,2.024,2.024,0,0,1-.333,1.132,2.279,2.279,0,0,1-.988.812,2.225,2.225,0,0,1,1.322.814,2.479,2.479,0,0,1,.471,1.548,2.831,2.831,0,0,1-.916,2.13,3.221,3.221,0,0,1-2.316.874,3.011,3.011,0,0,1-2.1-.752A2.906,2.906,0,0,1,136.869,84.825Z" transform="translate(-8.171 -7.362)"/><path class="cls-3" d="M146.894,90.178a11.759,11.759,0,0,1-1.649-2.879,9.038,9.038,0,0,1-.17-6.4,12.536,12.536,0,0,1,1.819-3.3h0.844q-0.792,1.361-1.047,1.943a10.635,10.635,0,0,0-.628,1.885,10.95,10.95,0,0,0-.281,2.46,11.809,11.809,0,0,0,1.957,6.289h-0.844Z" transform="translate(-8.171 -7.362)"/><path class="cls-3" d="M150.192,87.357H149.1V77.764h1.178v3.422a2.331,2.331,0,0,1,1.9-.936,2.915,2.915,0,0,1,1.214.258,2.483,2.483,0,0,1,.942.726,3.514,3.514,0,0,1,.579,1.129,4.656,4.656,0,0,1,.209,1.414,3.971,3.971,0,0,1-.883,2.762,2.764,2.764,0,0,1-2.12.975,2.214,2.214,0,0,1-1.931-1.027v0.87Zm-0.013-3.527a3.6,3.6,0,0,0,.34,1.806,1.684,1.684,0,0,0,2.84.239,3.048,3.048,0,0,0,.563-2,3.1,3.1,0,0,0-.54-2.009,1.643,1.643,0,0,0-1.305-.648,1.693,1.693,0,0,0-1.335.671A2.942,2.942,0,0,0,150.179,83.83Z" transform="translate(-8.171 -7.362)"/><path class="cls-3" d="M157.332,90.178h-0.844a11.809,11.809,0,0,0,1.957-6.289,10.752,10.752,0,0,0-.281-2.441,10.308,10.308,0,0,0-.622-1.885,22.193,22.193,0,0,0-1.054-1.963h0.844a12.548,12.548,0,0,1,1.819,3.3,9.015,9.015,0,0,1-.173,6.4A11.975,11.975,0,0,1,157.332,90.178Z" transform="translate(-8.171 -7.362)"/><path class="cls-3" d="M164.9,87.357V77.764h3.619a8.746,8.746,0,0,1,1.459.091,2.893,2.893,0,0,1,1.185.448,2.359,2.359,0,0,1,.769.926,3.123,3.123,0,0,1-.488,3.38,3.735,3.735,0,0,1-2.813.847h-2.461v3.9H164.9Zm1.269-5.032h2.48a2.632,2.632,0,0,0,1.747-.458,1.633,1.633,0,0,0,.517-1.289,1.736,1.736,0,0,0-.3-1.031,1.422,1.422,0,0,0-.8-0.566,5.422,5.422,0,0,0-1.185-.085h-2.454v3.429Z" transform="translate(-8.171 -7.362)"/><path class="cls-3" d="M173.659,87.357V77.764h1.178v9.593h-1.178Z" transform="translate(-8.171 -7.362)"/><path class="cls-3" d="M181.2,86.5a4.392,4.392,0,0,1-1.26.786,3.648,3.648,0,0,1-1.3.229,2.525,2.525,0,0,1-1.76-.56,1.847,1.847,0,0,1-.615-1.43,1.938,1.938,0,0,1,.841-1.609,2.861,2.861,0,0,1,.847-0.386A8.424,8.424,0,0,1,179,83.353a10.753,10.753,0,0,0,2.1-.406q0.007-.242.006-0.308a1.3,1.3,0,0,0-.333-1.014,1.973,1.973,0,0,0-1.342-.4,2.08,2.08,0,0,0-1.227.292,1.779,1.779,0,0,0-.585,1.031l-1.152-.157a2.853,2.853,0,0,1,.517-1.194,2.265,2.265,0,0,1,1.041-.7,4.642,4.642,0,0,1,1.577-.245,4.188,4.188,0,0,1,1.446.209,1.91,1.91,0,0,1,.818.527,1.858,1.858,0,0,1,.366.8,6.6,6.6,0,0,1,.059,1.086v1.57a16.645,16.645,0,0,0,.075,2.078,2.619,2.619,0,0,0,.3.834h-1.23A2.494,2.494,0,0,1,181.2,86.5Zm-0.1-2.63a8.653,8.653,0,0,1-1.924.445,4.444,4.444,0,0,0-1.028.236,1.02,1.02,0,0,0-.464.383,1.041,1.041,0,0,0,.193,1.345,1.535,1.535,0,0,0,1.044.314,2.425,2.425,0,0,0,1.21-.3,1.832,1.832,0,0,0,.779-0.814,2.846,2.846,0,0,0,.19-1.178V83.87Z" transform="translate(-8.171 -7.362)"/><path class="cls-3" d="M184.116,87.357v-6.95h1.06V81.4a2.5,2.5,0,0,1,2.212-1.145,2.906,2.906,0,0,1,1.155.226,1.816,1.816,0,0,1,.789.592,2.274,2.274,0,0,1,.366.87,6.768,6.768,0,0,1,.065,1.146v4.273h-1.178V83.13a3.167,3.167,0,0,0-.138-1.076,1.13,1.13,0,0,0-.487-0.569,1.553,1.553,0,0,0-.821-0.213,1.906,1.906,0,0,0-1.3.478,2.356,2.356,0,0,0-.546,1.813v3.8h-1.178Z" transform="translate(-8.171 -7.362)"/><path class="cls-3" d="M191.1,85.283l1.165-.184a1.628,1.628,0,0,0,.546,1.073,1.9,1.9,0,0,0,1.253.373,1.839,1.839,0,0,0,1.2-.331,0.988,0.988,0,0,0,.393-0.775,0.714,0.714,0,0,0-.347-0.628,5.091,5.091,0,0,0-1.2-.4,11.02,11.02,0,0,1-1.8-.566,1.716,1.716,0,0,1-1.018-1.594,1.787,1.787,0,0,1,.213-0.86,1.912,1.912,0,0,1,.579-0.658,2.426,2.426,0,0,1,.75-0.343,3.562,3.562,0,0,1,1.018-.141,4.018,4.018,0,0,1,1.436.235,1.952,1.952,0,0,1,.913.638,2.492,2.492,0,0,1,.406,1.076l-1.152.157A1.262,1.262,0,0,0,195,81.52a1.667,1.667,0,0,0-1.063-.3,1.926,1.926,0,0,0-1.158.268,0.782,0.782,0,0,0-.347.628,0.651,0.651,0,0,0,.144.412,1.038,1.038,0,0,0,.452.314q0.177,0.065,1.041.3a14.54,14.54,0,0,1,1.744.546,1.774,1.774,0,0,1,.776.619,1.727,1.727,0,0,1,.281,1.008,1.977,1.977,0,0,1-.344,1.109,2.221,2.221,0,0,1-.991.805,3.614,3.614,0,0,1-1.466.285A3.265,3.265,0,0,1,192,86.952,2.617,2.617,0,0,1,191.1,85.283Z" transform="translate(-8.171 -7.362)"/><rect class="cls-4" x="52.396" y="113.106" width="198.664" height="32.165"/><rect class="cls-5" x="52.396" y="104.434" width="198.664" height="8.672"/><rect class="cls-6" x="52.396" y="104.434" width="198.664" height="8.672"/><path class="cls-3" d="M88.355,136.729V135.6l4.064-.007v3.56a7.164,7.164,0,0,1-1.931,1.122,5.723,5.723,0,0,1-2.042.376,5.443,5.443,0,0,1-2.568-.605,4,4,0,0,1-1.744-1.75,5.511,5.511,0,0,1-.589-2.559,5.942,5.942,0,0,1,.585-2.614,3.9,3.9,0,0,1,1.685-1.8,5.282,5.282,0,0,1,2.533-.589,5.02,5.02,0,0,1,1.881.337,3.117,3.117,0,0,1,1.318.939,4.17,4.17,0,0,1,.727,1.571l-1.145.314a3.554,3.554,0,0,0-.537-1.152,2.2,2.2,0,0,0-.917-0.671,3.367,3.367,0,0,0-1.322-.252,3.889,3.889,0,0,0-1.5.265,2.81,2.81,0,0,0-1.024.7,3.324,3.324,0,0,0-.6.949,5.014,5.014,0,0,0-.367,1.93,4.683,4.683,0,0,0,.442,2.146,2.827,2.827,0,0,0,1.286,1.283,3.981,3.981,0,0,0,1.793.419,4.262,4.262,0,0,0,1.61-.317,4.168,4.168,0,0,0,1.191-.677v-1.787h-2.82Z" transform="translate(-8.171 -7.362)"/><path class="cls-3" d="M93.7,137.017a3.583,3.583,0,0,1,1.073-2.86,3.234,3.234,0,0,1,2.186-.772,3.118,3.118,0,0,1,2.343.939,3.572,3.572,0,0,1,.91,2.595,4.6,4.6,0,0,1-.4,2.11,2.847,2.847,0,0,1-1.171,1.194,3.415,3.415,0,0,1-1.679.425,3.123,3.123,0,0,1-2.359-.936A3.738,3.738,0,0,1,93.7,137.017Zm1.211,0a2.961,2.961,0,0,0,.582,2,1.94,1.94,0,0,0,2.925,0A3.03,3.03,0,0,0,99,136.978a2.87,2.87,0,0,0-.586-1.953,1.941,1.941,0,0,0-2.922,0A2.948,2.948,0,0,0,94.912,137.017Z" transform="translate(-8.171 -7.362)"/><path class="cls-3" d="M103.524,140.492l-2.644-6.95h1.244l1.492,4.162q0.242,0.674.445,1.4,0.157-.55.438-1.322l1.544-4.241h1.21l-2.631,6.95h-1.1Z" transform="translate(-8.171 -7.362)"/><path class="cls-3" d="M113.052,138.254l1.217,0.15a2.969,2.969,0,0,1-1.066,1.655,3.612,3.612,0,0,1-4.407-.35,3.668,3.668,0,0,1-.894-2.634,3.84,3.84,0,0,1,.9-2.722,3.057,3.057,0,0,1,2.343-.968,2.969,2.969,0,0,1,2.277.949,3.768,3.768,0,0,1,.884,2.67q0,0.1-.007.314h-5.183a2.668,2.668,0,0,0,.648,1.754,1.928,1.928,0,0,0,1.453.608,1.8,1.8,0,0,0,1.106-.34A2.258,2.258,0,0,0,113.052,138.254Zm-3.867-1.9h3.88a2.353,2.353,0,0,0-.445-1.315,1.806,1.806,0,0,0-1.459-.681,1.872,1.872,0,0,0-1.364.543A2.15,2.15,0,0,0,109.185,136.35Z" transform="translate(-8.171 -7.362)"/><path class="cls-3" d="M115.734,140.492v-6.95h1.061V134.6a2.87,2.87,0,0,1,.749-0.975,1.306,1.306,0,0,1,.756-0.235,2.3,2.3,0,0,1,1.21.379l-0.406,1.093a1.682,1.682,0,0,0-.864-0.255,1.122,1.122,0,0,0-.693.232,1.256,1.256,0,0,0-.438.645,4.59,4.59,0,0,0-.2,1.375v3.638h-1.178Z" transform="translate(-8.171 -7.362)"/><path class="cls-3" d="M120.21,140.492v-6.95h1.06v0.988a2.5,2.5,0,0,1,2.212-1.145,2.906,2.906,0,0,1,1.155.226,1.816,1.816,0,0,1,.789.592,2.274,2.274,0,0,1,.366.87,6.768,6.768,0,0,1,.065,1.146v4.273H124.68v-4.228a3.167,3.167,0,0,0-.138-1.076,1.13,1.13,0,0,0-.487-0.569,1.553,1.553,0,0,0-.821-0.213,1.906,1.906,0,0,0-1.3.478,2.356,2.356,0,0,0-.546,1.813v3.8H120.21Z" transform="translate(-8.171 -7.362)"/><path class="cls-3" d="M127.664,140.492v-6.95h1.054v0.975a2.482,2.482,0,0,1,.87-0.821,2.448,2.448,0,0,1,1.237-.311,2.29,2.29,0,0,1,1.267.32,1.718,1.718,0,0,1,.7.9,2.5,2.5,0,0,1,2.146-1.217,2.114,2.114,0,0,1,1.59.572,2.446,2.446,0,0,1,.557,1.764v4.771H135.91v-4.378a3.228,3.228,0,0,0-.115-1.018,0.985,0.985,0,0,0-.416-0.5,1.3,1.3,0,0,0-.707-0.19,1.644,1.644,0,0,0-1.217.488,2.147,2.147,0,0,0-.484,1.561v4.038h-1.178v-4.515a1.988,1.988,0,0,0-.288-1.178,1.09,1.09,0,0,0-.942-0.393,1.714,1.714,0,0,0-.919.262,1.486,1.486,0,0,0-.612.766,4.314,4.314,0,0,0-.189,1.453v3.605h-1.178Z" transform="translate(-8.171 -7.362)"/><path class="cls-3" d="M143.585,138.254l1.217,0.15a2.969,2.969,0,0,1-1.066,1.655,3.612,3.612,0,0,1-4.407-.35,3.668,3.668,0,0,1-.894-2.634,3.84,3.84,0,0,1,.9-2.722,3.057,3.057,0,0,1,2.343-.968,2.969,2.969,0,0,1,2.277.949,3.768,3.768,0,0,1,.884,2.67q0,0.1-.007.314h-5.183a2.668,2.668,0,0,0,.648,1.754,1.928,1.928,0,0,0,1.453.608,1.8,1.8,0,0,0,1.106-.34A2.258,2.258,0,0,0,143.585,138.254Zm-3.867-1.9h3.88a2.353,2.353,0,0,0-.445-1.315,1.806,1.806,0,0,0-1.459-.681,1.872,1.872,0,0,0-1.364.543A2.15,2.15,0,0,0,139.718,136.35Z" transform="translate(-8.171 -7.362)"/><path class="cls-3" d="M146.282,140.492v-6.95h1.06v0.988a2.5,2.5,0,0,1,2.212-1.145,2.906,2.906,0,0,1,1.155.226,1.816,1.816,0,0,1,.789.592,2.274,2.274,0,0,1,.366.87,6.768,6.768,0,0,1,.065,1.146v4.273h-1.178v-4.228a3.167,3.167,0,0,0-.138-1.076,1.13,1.13,0,0,0-.487-0.569,1.553,1.553,0,0,0-.821-0.213,1.906,1.906,0,0,0-1.3.478,2.356,2.356,0,0,0-.546,1.813v3.8h-1.178Z" transform="translate(-8.171 -7.362)"/><path class="cls-3" d="M156.307,139.438l0.17,1.041a4.371,4.371,0,0,1-.89.1,2.013,2.013,0,0,1-.995-0.2,1.136,1.136,0,0,1-.5-0.533,4.23,4.23,0,0,1-.144-1.391v-4h-0.864v-0.916h0.864v-1.721l1.171-.707v2.428h1.185v0.916h-1.185v4.064a2.049,2.049,0,0,0,.063.648,0.492,0.492,0,0,0,.2.229,0.784,0.784,0,0,0,.4.085A3.794,3.794,0,0,0,156.307,139.438Z" transform="translate(-8.171 -7.362)"/><path class="cls-3" d="M164.631,140.492v-2.3h-4.162v-1.08l4.378-6.217h0.962v6.217h1.3v1.08h-1.3v2.3h-1.178Zm0-3.376V132.79l-3,4.326h3Z" transform="translate(-8.171 -7.362)"/><path class="cls-3" d="M168.309,137.979l1.237-.1a2.218,2.218,0,0,0,.638,1.358,1.732,1.732,0,0,0,1.207.455,1.88,1.88,0,0,0,1.44-.642,2.416,2.416,0,0,0,.589-1.7,2.184,2.184,0,0,0-.566-1.59,1.975,1.975,0,0,0-1.482-.583,2.053,2.053,0,0,0-1.027.259,1.994,1.994,0,0,0-.72.67l-1.106-.144,0.929-4.927h4.771v1.125H170.39l-0.517,2.578a3.123,3.123,0,0,1,1.813-.6,2.873,2.873,0,0,1,2.12.871,3.042,3.042,0,0,1,.864,2.238,3.494,3.494,0,0,1-.759,2.251,3.041,3.041,0,0,1-2.52,1.165,3.1,3.1,0,0,1-2.136-.733A2.859,2.859,0,0,1,168.309,137.979Z" transform="translate(-8.171 -7.362)"/><path class="cls-3" d="M175.84,132.155v-1.132h6.21v0.917a13.087,13.087,0,0,0-1.816,2.591,15.819,15.819,0,0,0-1.391,3.324,12.369,12.369,0,0,0-.451,2.637h-1.211a11.756,11.756,0,0,1,.445-2.735,14.349,14.349,0,0,1,1.22-3.092,13.242,13.242,0,0,1,1.692-2.51h-4.7Z" transform="translate(-8.171 -7.362)"/><path class="cls-3" d="M185.794,143.312a11.759,11.759,0,0,1-1.649-2.879,9.038,9.038,0,0,1-.17-6.4,12.536,12.536,0,0,1,1.819-3.3h0.844q-0.792,1.361-1.047,1.943a10.635,10.635,0,0,0-.628,1.885,10.95,10.95,0,0,0-.281,2.46,11.809,11.809,0,0,0,1.957,6.289h-0.844Z" transform="translate(-8.171 -7.362)"/><path class="cls-3" d="M189.092,140.492H188V130.9h1.178v3.422a2.331,2.331,0,0,1,1.9-.936,2.915,2.915,0,0,1,1.214.258,2.483,2.483,0,0,1,.942.726,3.514,3.514,0,0,1,.579,1.129,4.656,4.656,0,0,1,.209,1.414,3.971,3.971,0,0,1-.883,2.762,2.764,2.764,0,0,1-2.12.975,2.214,2.214,0,0,1-1.931-1.027v0.87Zm-0.013-3.527a3.6,3.6,0,0,0,.34,1.806,1.684,1.684,0,0,0,2.84.239,3.048,3.048,0,0,0,.563-2,3.1,3.1,0,0,0-.54-2.009,1.643,1.643,0,0,0-1.305-.648,1.693,1.693,0,0,0-1.335.671A2.942,2.942,0,0,0,189.079,136.964Z" transform="translate(-8.171 -7.362)"/><path class="cls-3" d="M196.231,143.312h-0.844a11.809,11.809,0,0,0,1.957-6.289,10.752,10.752,0,0,0-.281-2.441,10.308,10.308,0,0,0-.622-1.885,22.193,22.193,0,0,0-1.054-1.963h0.844a12.548,12.548,0,0,1,1.819,3.3,9.015,9.015,0,0,1-.173,6.4A11.975,11.975,0,0,1,196.231,143.312Z" transform="translate(-8.171 -7.362)"/><path class="cls-3" d="M203.8,140.492V130.9h3.619a8.746,8.746,0,0,1,1.459.091,2.893,2.893,0,0,1,1.185.448,2.359,2.359,0,0,1,.769.926,3.123,3.123,0,0,1-.488,3.38,3.735,3.735,0,0,1-2.813.847h-2.461v3.9H203.8Zm1.269-5.032h2.48a2.632,2.632,0,0,0,1.747-.458,1.633,1.633,0,0,0,.517-1.289,1.736,1.736,0,0,0-.3-1.031,1.422,1.422,0,0,0-.8-0.566,5.422,5.422,0,0,0-1.185-.085h-2.454v3.429Z" transform="translate(-8.171 -7.362)"/><path class="cls-3" d="M212.559,140.492V130.9h1.178v9.593h-1.178Z" transform="translate(-8.171 -7.362)"/><path class="cls-3" d="M220.1,139.634a4.392,4.392,0,0,1-1.26.786,3.648,3.648,0,0,1-1.3.229,2.525,2.525,0,0,1-1.76-.56,1.847,1.847,0,0,1-.615-1.43A1.938,1.938,0,0,1,216,137.05a2.861,2.861,0,0,1,.847-0.386,8.424,8.424,0,0,1,1.047-.177,10.753,10.753,0,0,0,2.1-.406q0.007-.242.006-0.308a1.3,1.3,0,0,0-.333-1.014,1.973,1.973,0,0,0-1.342-.4,2.08,2.08,0,0,0-1.227.292,1.779,1.779,0,0,0-.585,1.031l-1.152-.157a2.853,2.853,0,0,1,.517-1.194,2.265,2.265,0,0,1,1.041-.7,4.642,4.642,0,0,1,1.577-.245,4.188,4.188,0,0,1,1.446.209,1.91,1.91,0,0,1,.818.527,1.858,1.858,0,0,1,.366.8,6.6,6.6,0,0,1,.059,1.086v1.57a16.645,16.645,0,0,0,.075,2.078,2.619,2.619,0,0,0,.3.834h-1.23A2.494,2.494,0,0,1,220.1,139.634ZM220,137a8.653,8.653,0,0,1-1.924.445,4.444,4.444,0,0,0-1.028.236,1.02,1.02,0,0,0-.464.383,1.041,1.041,0,0,0,.193,1.345,1.535,1.535,0,0,0,1.044.314,2.425,2.425,0,0,0,1.21-.3,1.832,1.832,0,0,0,.779-0.814,2.846,2.846,0,0,0,.19-1.178V137Z" transform="translate(-8.171 -7.362)"/><path class="cls-3" d="M223.016,140.492v-6.95h1.06v0.988a2.5,2.5,0,0,1,2.212-1.145,2.906,2.906,0,0,1,1.155.226,1.816,1.816,0,0,1,.789.592,2.274,2.274,0,0,1,.366.87,6.768,6.768,0,0,1,.065,1.146v4.273h-1.178v-4.228a3.167,3.167,0,0,0-.138-1.076,1.13,1.13,0,0,0-.487-0.569,1.553,1.553,0,0,0-.821-0.213,1.906,1.906,0,0,0-1.3.478,2.356,2.356,0,0,0-.546,1.813v3.8h-1.178Z" transform="translate(-8.171 -7.362)"/><path class="cls-3" d="M230,138.417l1.165-.184a1.628,1.628,0,0,0,.546,1.073,1.9,1.9,0,0,0,1.253.373,1.839,1.839,0,0,0,1.2-.331,0.988,0.988,0,0,0,.393-0.775,0.714,0.714,0,0,0-.347-0.628,5.091,5.091,0,0,0-1.2-.4,11.02,11.02,0,0,1-1.8-.566,1.716,1.716,0,0,1-1.018-1.594,1.787,1.787,0,0,1,.213-0.86,1.912,1.912,0,0,1,.579-0.658,2.426,2.426,0,0,1,.75-0.343,3.562,3.562,0,0,1,1.018-.141,4.018,4.018,0,0,1,1.436.235,1.952,1.952,0,0,1,.913.638,2.492,2.492,0,0,1,.406,1.076l-1.152.157a1.262,1.262,0,0,0-.455-0.838,1.667,1.667,0,0,0-1.063-.3,1.926,1.926,0,0,0-1.158.268,0.782,0.782,0,0,0-.347.628,0.651,0.651,0,0,0,.144.412,1.038,1.038,0,0,0,.452.314q0.177,0.065,1.041.3a14.54,14.54,0,0,1,1.744.546,1.774,1.774,0,0,1,.776.619,1.727,1.727,0,0,1,.281,1.008,1.977,1.977,0,0,1-.344,1.109,2.221,2.221,0,0,1-.991.805,3.614,3.614,0,0,1-1.466.285,3.265,3.265,0,0,1-2.065-.563A2.617,2.617,0,0,1,230,138.417Z" transform="translate(-8.171 -7.362)"/><rect class="cls-7" x="0.5" y="0.5" width="300.454" height="172.138"/><path class="cls-3" d="M22.193,39.377V31.407H19.346V29.784H26.97v1.623h-2.84v7.971H22.193Z" transform="translate(-8.171 -7.362)"/><path class="cls-3" d="M29.581,34.548l-1.668-.3a2.6,2.6,0,0,1,.968-1.492,3.546,3.546,0,0,1,2.042-.484,4.4,4.4,0,0,1,1.832.291,1.829,1.829,0,0,1,.848.739,3.793,3.793,0,0,1,.246,1.646l-0.02,2.146a7.475,7.475,0,0,0,.088,1.351,3.938,3.938,0,0,0,.331.933H32.427q-0.072-.183-0.177-0.543c-0.03-.109-0.052-0.181-0.065-0.216a3.314,3.314,0,0,1-1.007.688,2.894,2.894,0,0,1-1.146.229,2.368,2.368,0,0,1-1.691-.583,1.936,1.936,0,0,1-.619-1.473A1.973,1.973,0,0,1,28,36.429a1.839,1.839,0,0,1,.789-0.707,6.151,6.151,0,0,1,1.462-.429,9.947,9.947,0,0,0,1.787-.452V34.659A0.954,0.954,0,0,0,31.78,33.9a1.57,1.57,0,0,0-.988-0.226,1.318,1.318,0,0,0-.766.193A1.346,1.346,0,0,0,29.581,34.548Zm2.461,1.492a11.463,11.463,0,0,1-1.119.281,3.391,3.391,0,0,0-1,.321,0.767,0.767,0,0,0-.36.648,0.9,0.9,0,0,0,.288.667,1,1,0,0,0,.733.281,1.591,1.591,0,0,0,.949-0.327,1.151,1.151,0,0,0,.438-0.608,3.636,3.636,0,0,0,.072-0.9V36.04Z" transform="translate(-8.171 -7.362)"/><path class="cls-3" d="M34.777,39.377l2.506-3.58-2.4-3.37h2.245l1.23,1.911,1.3-1.911h2.16l-2.356,3.292,2.572,3.658H39.77l-1.413-2.153L36.93,39.377H34.777Z" transform="translate(-8.171 -7.362)"/><path class="cls-3" d="M42.9,36.819V34.98h3.612v1.839H42.9Z" transform="translate(-8.171 -7.362)"/><path class="cls-3" d="M47.589,39.377V29.784H54.7v1.623H49.526v2.127h4.816V35.15H49.526v2.611h5.359v1.616h-7.3Z" transform="translate(-8.171 -7.362)"/><path class="cls-3" d="M55.632,39.377l2.506-3.58-2.4-3.37h2.245l1.23,1.911,1.3-1.911h2.16l-2.356,3.292,2.572,3.658H60.625l-1.413-2.153-1.427,2.153H55.632Z" transform="translate(-8.171 -7.362)"/><path class="cls-3" d="M67.993,37.166l1.833,0.308a3.006,3.006,0,0,1-1.116,1.535,3.279,3.279,0,0,1-1.908.527,3.11,3.11,0,0,1-2.683-1.185,3.979,3.979,0,0,1-.687-2.4,3.838,3.838,0,0,1,.9-2.706,2.975,2.975,0,0,1,2.284-.978,3.085,3.085,0,0,1,2.447,1.024,4.532,4.532,0,0,1,.857,3.138H65.317a1.861,1.861,0,0,0,.445,1.273,1.392,1.392,0,0,0,1.06.455,1.128,1.128,0,0,0,.727-0.235A1.454,1.454,0,0,0,67.993,37.166Zm0.1-1.858a1.771,1.771,0,0,0-.413-1.214,1.327,1.327,0,0,0-1.95.023,1.7,1.7,0,0,0-.386,1.191H68.1Z" transform="translate(-8.171 -7.362)"/><path class="cls-3" d="M71.285,32.428H72.98v0.949a2.728,2.728,0,0,1,2.166-1.105,2.334,2.334,0,0,1,1.158.274,2.116,2.116,0,0,1,.8.831,3.221,3.221,0,0,1,.988-0.831,2.425,2.425,0,0,1,1.132-.274,2.523,2.523,0,0,1,1.3.311,1.907,1.907,0,0,1,.792.913,3.96,3.96,0,0,1,.189,1.439v4.443H79.668V35.405a2.955,2.955,0,0,0-.19-1.335,0.872,0.872,0,0,0-.785-0.393,1.254,1.254,0,0,0-.727.235,1.305,1.305,0,0,0-.491.69,4.961,4.961,0,0,0-.15,1.437v3.337H75.486V35.569a5.281,5.281,0,0,0-.1-1.309,0.833,0.833,0,0,0-.3-0.438,0.959,0.959,0,0,0-.559-0.144,1.338,1.338,0,0,0-.766.229,1.256,1.256,0,0,0-.488.661A4.914,4.914,0,0,0,73.124,36v3.376H71.285v-6.95Z" transform="translate(-8.171 -7.362)"/><path class="cls-3" d="M83.287,32.428H85v1.021a2.56,2.56,0,0,1,.9-0.851,2.486,2.486,0,0,1,1.263-.327,2.648,2.648,0,0,1,2.055.949,3.839,3.839,0,0,1,.844,2.644,3.958,3.958,0,0,1-.851,2.706,2.651,2.651,0,0,1-2.062.965,2.345,2.345,0,0,1-1.043-.229,3.518,3.518,0,0,1-.985-0.786v3.5H83.287V32.428Zm1.819,3.357a2.678,2.678,0,0,0,.464,1.731,1.421,1.421,0,0,0,1.132.56,1.329,1.329,0,0,0,1.066-.514,2.646,2.646,0,0,0,.425-1.685,2.512,2.512,0,0,0-.438-1.623,1.356,1.356,0,0,0-1.086-.53,1.41,1.41,0,0,0-1.119.52A2.315,2.315,0,0,0,85.106,35.785Z" transform="translate(-8.171 -7.362)"/><path class="cls-3" d="M94.712,32.428v1.466H93.456v2.8a7.008,7.008,0,0,0,.036.992,0.4,0.4,0,0,0,.164.232,0.518,0.518,0,0,0,.311.092,2.383,2.383,0,0,0,.739-0.177l0.157,1.427a3.657,3.657,0,0,1-1.453.275,2.3,2.3,0,0,1-.9-0.167,1.311,1.311,0,0,1-.586-0.432,1.7,1.7,0,0,1-.258-0.716,8.935,8.935,0,0,1-.059-1.3v-3.03H90.766V32.428H91.61V31.047l1.846-1.073v2.454h1.256Z" transform="translate(-8.171 -7.362)"/><path class="cls-3" d="M99.333,34.64a6.1,6.1,0,0,1,.438-2.46,4.5,4.5,0,0,1,.893-1.315A3.732,3.732,0,0,1,101.9,30a5.267,5.267,0,0,1,2.068-.379,4.5,4.5,0,0,1,3.393,1.315,5.041,5.041,0,0,1,1.272,3.658,5.025,5.025,0,0,1-1.263,3.635,5.044,5.044,0,0,1-6.78.006A4.954,4.954,0,0,1,99.333,34.64Zm2-.065a3.593,3.593,0,0,0,.753,2.47,2.587,2.587,0,0,0,3.812.007,3.668,3.668,0,0,0,.743-2.5,3.606,3.606,0,0,0-.723-2.46,2.679,2.679,0,0,0-3.851.01A3.628,3.628,0,0,0,101.328,34.574Z" transform="translate(-8.171 -7.362)"/><path class="cls-3" d="M111.9,39.377h-1.839v-6.95h1.708v0.988a2.975,2.975,0,0,1,.789-0.923,1.454,1.454,0,0,1,.795-0.222,2.333,2.333,0,0,1,1.211.347l-0.569,1.6a1.614,1.614,0,0,0-.864-0.3,1.02,1.02,0,0,0-.654.212,1.454,1.454,0,0,0-.422.769,10.924,10.924,0,0,0-.154,2.33v2.146Z" transform="translate(-8.171 -7.362)"/><path class="cls-3" d="M115.182,39.835l2.1,0.255a0.715,0.715,0,0,0,.242.5,1.381,1.381,0,0,0,.824.2,2.144,2.144,0,0,0,1.08-.216,0.891,0.891,0,0,0,.367-0.465,2.8,2.8,0,0,0,.085-0.844V38.252a2.488,2.488,0,0,1-2.081,1.125,2.562,2.562,0,0,1-2.218-1.185,4.024,4.024,0,0,1-.641-2.33,3.833,3.833,0,0,1,.841-2.67,2.713,2.713,0,0,1,2.091-.922A2.544,2.544,0,0,1,120,33.4V32.428h1.721v6.236a6.214,6.214,0,0,1-.2,1.839,2.282,2.282,0,0,1-.569.956,2.526,2.526,0,0,1-.979.543,5.149,5.149,0,0,1-1.547.2,4.006,4.006,0,0,1-2.506-.6,1.9,1.9,0,0,1-.74-1.535C115.175,40,115.177,39.923,115.182,39.835Zm1.643-4.077a2.508,2.508,0,0,0,.428,1.62,1.326,1.326,0,0,0,1.057.514,1.462,1.462,0,0,0,1.139-.527,2.3,2.3,0,0,0,.464-1.561,2.435,2.435,0,0,0-.445-1.6,1.414,1.414,0,0,0-1.125-.523,1.358,1.358,0,0,0-1.09.514A2.409,2.409,0,0,0,116.824,35.759Z" transform="translate(-8.171 -7.362)"/><path class="cls-3" d="M124.912,34.548l-1.668-.3a2.6,2.6,0,0,1,.968-1.492,3.546,3.546,0,0,1,2.042-.484,4.4,4.4,0,0,1,1.832.291,1.829,1.829,0,0,1,.848.739,3.793,3.793,0,0,1,.246,1.646l-0.02,2.146a7.475,7.475,0,0,0,.088,1.351,3.938,3.938,0,0,0,.331.933h-1.819q-0.072-.183-0.177-0.543c-0.03-.109-0.052-0.181-0.065-0.216a3.314,3.314,0,0,1-1.007.688,2.894,2.894,0,0,1-1.146.229,2.368,2.368,0,0,1-1.691-.583,1.936,1.936,0,0,1-.619-1.473,1.973,1.973,0,0,1,.282-1.05,1.839,1.839,0,0,1,.789-0.707,6.151,6.151,0,0,1,1.462-.429,9.947,9.947,0,0,0,1.787-.452V34.659a0.954,0.954,0,0,0-.262-0.756,1.57,1.57,0,0,0-.988-0.226,1.318,1.318,0,0,0-.766.193A1.346,1.346,0,0,0,124.912,34.548Zm2.461,1.492a11.463,11.463,0,0,1-1.119.281,3.391,3.391,0,0,0-1,.321,0.767,0.767,0,0,0-.36.648,0.9,0.9,0,0,0,.288.667,1,1,0,0,0,.733.281,1.591,1.591,0,0,0,.949-0.327A1.151,1.151,0,0,0,127.3,37.3a3.636,3.636,0,0,0,.072-0.9V36.04Z" transform="translate(-8.171 -7.362)"/><path class="cls-3" d="M137.313,39.377h-1.839V35.831a5.481,5.481,0,0,0-.118-1.456,1.021,1.021,0,0,0-.383-0.514,1.1,1.1,0,0,0-.638-0.183,1.475,1.475,0,0,0-.857.262,1.319,1.319,0,0,0-.521.694,6,6,0,0,0-.141,1.6v3.147h-1.839v-6.95h1.708v1.021a2.85,2.85,0,0,1,3.4-.959,1.874,1.874,0,0,1,.763.56,2.039,2.039,0,0,1,.36.772,5.761,5.761,0,0,1,.1,1.237v4.319Z" transform="translate(-8.171 -7.362)"/><path class="cls-3" d="M139.178,31.485v-1.7h1.839v1.7h-1.839Zm0,7.892v-6.95h1.839v6.95h-1.839Z" transform="translate(-8.171 -7.362)"/><path class="cls-3" d="M142.162,39.377V37.944l2.6-2.991q0.641-.732.949-1.041-0.321.02-.844,0.026l-2.454.013V32.428h5.746v1.3l-2.657,3.063-0.936,1.015q0.765-.046.949-0.046h2.847v1.616h-6.2Z" transform="translate(-8.171 -7.362)"/><path class="cls-3" d="M150.977,34.548l-1.668-.3a2.6,2.6,0,0,1,.968-1.492,3.546,3.546,0,0,1,2.042-.484,4.4,4.4,0,0,1,1.832.291A1.829,1.829,0,0,1,155,33.3a3.793,3.793,0,0,1,.246,1.646l-0.02,2.146a7.475,7.475,0,0,0,.088,1.351,3.938,3.938,0,0,0,.331.933h-1.819q-0.072-.183-0.177-0.543c-0.03-.109-0.052-0.181-0.065-0.216a3.314,3.314,0,0,1-1.007.688,2.894,2.894,0,0,1-1.146.229,2.368,2.368,0,0,1-1.691-.583,1.936,1.936,0,0,1-.619-1.473,1.973,1.973,0,0,1,.282-1.05,1.839,1.839,0,0,1,.789-0.707,6.151,6.151,0,0,1,1.462-.429,9.947,9.947,0,0,0,1.787-.452V34.659a0.954,0.954,0,0,0-.262-0.756,1.57,1.57,0,0,0-.988-0.226,1.318,1.318,0,0,0-.766.193A1.346,1.346,0,0,0,150.977,34.548Zm2.461,1.492a11.463,11.463,0,0,1-1.119.281,3.391,3.391,0,0,0-1,.321,0.767,0.767,0,0,0-.36.648,0.9,0.9,0,0,0,.288.667,1,1,0,0,0,.733.281,1.591,1.591,0,0,0,.949-0.327,1.151,1.151,0,0,0,.438-0.608,3.636,3.636,0,0,0,.072-0.9V36.04Z" transform="translate(-8.171 -7.362)"/><path class="cls-3" d="M160.243,32.428v1.466h-1.256v2.8a7.008,7.008,0,0,0,.036.992,0.4,0.4,0,0,0,.164.232,0.518,0.518,0,0,0,.311.092,2.383,2.383,0,0,0,.739-0.177l0.157,1.427a3.657,3.657,0,0,1-1.453.275,2.3,2.3,0,0,1-.9-0.167,1.311,1.311,0,0,1-.586-0.432,1.7,1.7,0,0,1-.258-0.716,8.935,8.935,0,0,1-.059-1.3v-3.03H156.3V32.428h0.844V31.047l1.846-1.073v2.454h1.256Z" transform="translate(-8.171 -7.362)"/><path class="cls-3" d="M161.519,31.485v-1.7h1.839v1.7h-1.839Zm0,7.892v-6.95h1.839v6.95h-1.839Z" transform="translate(-8.171 -7.362)"/><path class="cls-3" d="M164.817,35.8a3.756,3.756,0,0,1,.452-1.773,3.1,3.1,0,0,1,1.279-1.309,3.8,3.8,0,0,1,1.849-.451,3.471,3.471,0,0,1,2.585,1.024,3.539,3.539,0,0,1,1.007,2.588,3.578,3.578,0,0,1-1.018,2.614,3.437,3.437,0,0,1-2.562,1.038,4.034,4.034,0,0,1-1.823-.432,2.962,2.962,0,0,1-1.318-1.266A4.215,4.215,0,0,1,164.817,35.8Zm1.885,0.1a2.3,2.3,0,0,0,.491,1.583,1.6,1.6,0,0,0,2.418,0,2.336,2.336,0,0,0,.487-1.6,2.294,2.294,0,0,0-.487-1.571,1.605,1.605,0,0,0-2.418,0A2.3,2.3,0,0,0,166.7,35.9Z" transform="translate(-8.171 -7.362)"/><path class="cls-3" d="M179.75,39.377h-1.839V35.831a5.481,5.481,0,0,0-.118-1.456,1.021,1.021,0,0,0-.383-0.514,1.1,1.1,0,0,0-.638-0.183,1.475,1.475,0,0,0-.857.262,1.319,1.319,0,0,0-.521.694,6,6,0,0,0-.141,1.6v3.147h-1.839v-6.95h1.708v1.021a2.85,2.85,0,0,1,3.4-.959,1.874,1.874,0,0,1,.763.56,2.039,2.039,0,0,1,.36.772,5.761,5.761,0,0,1,.1,1.237v4.319Z" transform="translate(-8.171 -7.362)"/><path class="cls-3" d="M180.967,37.395l1.846-.281a1.349,1.349,0,0,0,.478.814,1.613,1.613,0,0,0,1.008.278,1.821,1.821,0,0,0,1.073-.262,0.585,0.585,0,0,0,.242-0.491,0.483,0.483,0,0,0-.131-0.347,1.466,1.466,0,0,0-.615-0.242,9.915,9.915,0,0,1-2.82-.9,1.791,1.791,0,0,1-.825-1.564,1.928,1.928,0,0,1,.713-1.519,3.334,3.334,0,0,1,2.212-.615,3.861,3.861,0,0,1,2.12.464,2.378,2.378,0,0,1,.956,1.374l-1.734.321a1.073,1.073,0,0,0-.422-0.622,1.544,1.544,0,0,0-.887-0.216,2,2,0,0,0-1.041.2,0.436,0.436,0,0,0-.209.373,0.407,0.407,0,0,0,.183.334,6.9,6.9,0,0,0,1.718.517,5.113,5.113,0,0,1,2.052.818,1.7,1.7,0,0,1,.576,1.368,2.1,2.1,0,0,1-.8,1.642,3.532,3.532,0,0,1-2.362.688,3.874,3.874,0,0,1-2.248-.576A2.655,2.655,0,0,1,180.967,37.395Z" transform="translate(-8.171 -7.362)"/><path class="cls-3" d="M194.166,34.548l-1.668-.3a2.6,2.6,0,0,1,.968-1.492,3.546,3.546,0,0,1,2.042-.484,4.4,4.4,0,0,1,1.832.291,1.829,1.829,0,0,1,.848.739,3.793,3.793,0,0,1,.246,1.646l-0.02,2.146a7.475,7.475,0,0,0,.088,1.351,3.938,3.938,0,0,0,.331.933h-1.819q-0.072-.183-0.177-0.543c-0.03-.109-0.052-0.181-0.065-0.216a3.314,3.314,0,0,1-1.007.688,2.894,2.894,0,0,1-1.146.229,2.368,2.368,0,0,1-1.691-.583,1.936,1.936,0,0,1-.619-1.473,1.973,1.973,0,0,1,.282-1.05,1.839,1.839,0,0,1,.789-0.707,6.151,6.151,0,0,1,1.462-.429,9.947,9.947,0,0,0,1.787-.452V34.659a0.954,0.954,0,0,0-.262-0.756,1.57,1.57,0,0,0-.988-0.226,1.318,1.318,0,0,0-.766.193A1.346,1.346,0,0,0,194.166,34.548Zm2.461,1.492a11.463,11.463,0,0,1-1.119.281,3.391,3.391,0,0,0-1,.321,0.767,0.767,0,0,0-.36.648,0.9,0.9,0,0,0,.288.667,1,1,0,0,0,.733.281,1.591,1.591,0,0,0,.949-0.327,1.151,1.151,0,0,0,.438-0.608,3.636,3.636,0,0,0,.072-0.9V36.04Z" transform="translate(-8.171 -7.362)"/><path class="cls-3" d="M206.567,39.377h-1.839V35.831a5.481,5.481,0,0,0-.118-1.456,1.021,1.021,0,0,0-.383-0.514,1.1,1.1,0,0,0-.638-0.183,1.475,1.475,0,0,0-.857.262,1.319,1.319,0,0,0-.521.694,6,6,0,0,0-.141,1.6v3.147h-1.839v-6.95h1.708v1.021a2.85,2.85,0,0,1,3.4-.959,1.874,1.874,0,0,1,.763.56,2.039,2.039,0,0,1,.36.772,5.761,5.761,0,0,1,.1,1.237v4.319Z" transform="translate(-8.171 -7.362)"/><path class="cls-3" d="M214.806,39.377H213.1V38.356a2.758,2.758,0,0,1-1,.887,2.574,2.574,0,0,1-1.168.292,2.646,2.646,0,0,1-2.051-.965,3.926,3.926,0,0,1-.854-2.693,3.881,3.881,0,0,1,.831-2.687,2.708,2.708,0,0,1,2.1-.919,2.6,2.6,0,0,1,2.016.968V29.784h1.839v9.593ZM209.9,35.752a3.182,3.182,0,0,0,.308,1.61,1.389,1.389,0,0,0,1.243.72,1.354,1.354,0,0,0,1.08-.54,2.493,2.493,0,0,0,.445-1.613,2.725,2.725,0,0,0-.432-1.724,1.366,1.366,0,0,0-1.105-.527,1.382,1.382,0,0,0-1.1.52A2.352,2.352,0,0,0,209.9,35.752Z" transform="translate(-8.171 -7.362)"/><path class="cls-3" d="M224.818,35.85V34.234h4.175v3.822a5.254,5.254,0,0,1-1.763,1.037,6.421,6.421,0,0,1-2.34.448,5.252,5.252,0,0,1-2.624-.631,4.012,4.012,0,0,1-1.682-1.806,5.833,5.833,0,0,1-.563-2.556,5.519,5.519,0,0,1,.628-2.663,4.233,4.233,0,0,1,1.839-1.787,4.964,4.964,0,0,1,2.3-.478,4.584,4.584,0,0,1,2.791.749,3.384,3.384,0,0,1,1.292,2.071l-1.924.36a2.033,2.033,0,0,0-.763-1.116,2.305,2.305,0,0,0-1.4-.409,2.626,2.626,0,0,0-2.019.805,3.39,3.39,0,0,0-.749,2.389,3.754,3.754,0,0,0,.759,2.562,2.534,2.534,0,0,0,1.989.854,3.335,3.335,0,0,0,1.22-.239,4.164,4.164,0,0,0,1.05-.579V35.85h-2.218Z" transform="translate(-8.171 -7.362)"/><path class="cls-3" d="M230.341,35.8a3.756,3.756,0,0,1,.452-1.773,3.1,3.1,0,0,1,1.279-1.309,3.8,3.8,0,0,1,1.849-.451,3.471,3.471,0,0,1,2.585,1.024,3.539,3.539,0,0,1,1.007,2.588A3.578,3.578,0,0,1,236.5,38.5a3.437,3.437,0,0,1-2.562,1.038,4.034,4.034,0,0,1-1.823-.432,2.962,2.962,0,0,1-1.318-1.266A4.215,4.215,0,0,1,230.341,35.8Zm1.885,0.1a2.3,2.3,0,0,0,.491,1.583,1.6,1.6,0,0,0,2.418,0,2.336,2.336,0,0,0,.487-1.6,2.294,2.294,0,0,0-.487-1.571,1.605,1.605,0,0,0-2.418,0A2.3,2.3,0,0,0,232.226,35.9Z" transform="translate(-8.171 -7.362)"/><path class="cls-3" d="M240.864,39.377l-2.8-6.95h1.931l1.309,3.547,0.38,1.185q0.15-.452.189-0.6,0.092-.294.2-0.589l1.322-3.547h1.891l-2.762,6.95h-1.656Z" transform="translate(-8.171 -7.362)"/><path class="cls-3" d="M250.431,37.166l1.833,0.308a3.006,3.006,0,0,1-1.116,1.535,3.279,3.279,0,0,1-1.908.527,3.11,3.11,0,0,1-2.683-1.185,3.979,3.979,0,0,1-.687-2.4,3.838,3.838,0,0,1,.9-2.706,2.975,2.975,0,0,1,2.284-.978,3.085,3.085,0,0,1,2.447,1.024,4.532,4.532,0,0,1,.857,3.138h-4.607a1.861,1.861,0,0,0,.445,1.273,1.392,1.392,0,0,0,1.06.455,1.128,1.128,0,0,0,.727-0.235A1.454,1.454,0,0,0,250.431,37.166Zm0.1-1.858a1.771,1.771,0,0,0-.413-1.214,1.327,1.327,0,0,0-1.95.023,1.7,1.7,0,0,0-.386,1.191h2.749Z" transform="translate(-8.171 -7.362)"/><path class="cls-3" d="M255.62,39.377h-1.839v-6.95h1.708v0.988a2.975,2.975,0,0,1,.789-0.923,1.454,1.454,0,0,1,.795-0.222,2.333,2.333,0,0,1,1.211.347l-0.569,1.6a1.614,1.614,0,0,0-.864-0.3,1.02,1.02,0,0,0-.654.212,1.454,1.454,0,0,0-.422.769,10.924,10.924,0,0,0-.154,2.33v2.146Z" transform="translate(-8.171 -7.362)"/><path class="cls-3" d="M265.4,39.377h-1.839V35.831a5.481,5.481,0,0,0-.118-1.456,1.021,1.021,0,0,0-.383-0.514,1.1,1.1,0,0,0-.638-0.183,1.475,1.475,0,0,0-.857.262,1.319,1.319,0,0,0-.521.694,6,6,0,0,0-.141,1.6v3.147h-1.839v-6.95h1.708v1.021a2.85,2.85,0,0,1,3.4-.959,1.874,1.874,0,0,1,.763.56,2.039,2.039,0,0,1,.36.772,5.761,5.761,0,0,1,.1,1.237v4.319Z" transform="translate(-8.171 -7.362)"/><path class="cls-3" d="M267.125,32.428h1.695v0.949a2.728,2.728,0,0,1,2.166-1.105,2.334,2.334,0,0,1,1.158.274,2.116,2.116,0,0,1,.8.831,3.221,3.221,0,0,1,.988-0.831,2.425,2.425,0,0,1,1.132-.274,2.523,2.523,0,0,1,1.3.311,1.907,1.907,0,0,1,.792.913,3.96,3.96,0,0,1,.189,1.439v4.443h-1.838V35.405a2.955,2.955,0,0,0-.19-1.335,0.872,0.872,0,0,0-.785-0.393,1.254,1.254,0,0,0-.727.235,1.305,1.305,0,0,0-.491.69,4.961,4.961,0,0,0-.15,1.437v3.337h-1.839V35.569a5.281,5.281,0,0,0-.1-1.309,0.833,0.833,0,0,0-.3-0.438,0.959,0.959,0,0,0-.559-0.144,1.338,1.338,0,0,0-.766.229,1.256,1.256,0,0,0-.488.661A4.914,4.914,0,0,0,268.963,36v3.376h-1.839v-6.95Z" transform="translate(-8.171 -7.362)"/><path class="cls-3" d="M283.2,37.166l1.833,0.308a3.006,3.006,0,0,1-1.116,1.535,3.279,3.279,0,0,1-1.908.527,3.11,3.11,0,0,1-2.683-1.185,3.979,3.979,0,0,1-.687-2.4,3.838,3.838,0,0,1,.9-2.706,2.975,2.975,0,0,1,2.284-.978,3.085,3.085,0,0,1,2.447,1.024,4.532,4.532,0,0,1,.857,3.138h-4.607a1.861,1.861,0,0,0,.445,1.273,1.392,1.392,0,0,0,1.06.455,1.128,1.128,0,0,0,.727-0.235A1.454,1.454,0,0,0,283.2,37.166Zm0.1-1.858a1.771,1.771,0,0,0-.413-1.214,1.327,1.327,0,0,0-1.95.023,1.7,1.7,0,0,0-.386,1.191h2.749Z" transform="translate(-8.171 -7.362)"/><path class="cls-3" d="M292.953,39.377h-1.839V35.831A5.481,5.481,0,0,0,291,34.375a1.021,1.021,0,0,0-.383-0.514,1.1,1.1,0,0,0-.638-0.183,1.475,1.475,0,0,0-.857.262,1.319,1.319,0,0,0-.521.694,6,6,0,0,0-.141,1.6v3.147h-1.839v-6.95h1.708v1.021a2.85,2.85,0,0,1,3.4-.959,1.874,1.874,0,0,1,.763.56,2.039,2.039,0,0,1,.36.772,5.761,5.761,0,0,1,.1,1.237v4.319Z" transform="translate(-8.171 -7.362)"/><path class="cls-3" d="M298.005,32.428v1.466h-1.256v2.8a7.008,7.008,0,0,0,.036.992,0.4,0.4,0,0,0,.164.232,0.518,0.518,0,0,0,.311.092A2.383,2.383,0,0,0,298,37.833l0.157,1.427a3.657,3.657,0,0,1-1.453.275,2.3,2.3,0,0,1-.9-0.167,1.311,1.311,0,0,1-.586-0.432,1.7,1.7,0,0,1-.258-0.716,8.935,8.935,0,0,1-.059-1.3v-3.03h-0.844V32.428H294.9V31.047l1.846-1.073v2.454h1.256Z" transform="translate(-8.171 -7.362)"/></svg>