<svg id="Layer_1" data-name="Layer 1" xmlns="http://www.w3.org/2000/svg" viewBox="0 0 309.136 177.54"><defs><style>.cls-1,.cls-4,.cls-6,.cls-7{fill:none;}.cls-1{stroke:#25408f;}.cls-2{fill:#25408f;}.cls-3{fill:#231f20;}.cls-4{stroke:#b12229;}.cls-5{fill:#b12229;}.cls-6{stroke:#d2232a;}.cls-7{stroke:#231f20;stroke-miterlimit:10;}</style></defs><title>Types_of_Qualified_Plans</title><rect class="cls-1" x="53.723" y="61.492" width="203.744" height="32.987"/><rect class="cls-2" x="53.723" y="52.599" width="203.744" height="8.894"/><rect class="cls-1" x="53.723" y="52.599" width="203.744" height="8.894"/><path class="cls-3" d="M99.14,91.391V80.973h3.589a8.691,8.691,0,0,1,1.854.149,3.529,3.529,0,0,1,1.528.746,4.242,4.242,0,0,1,1.233,1.78,6.989,6.989,0,0,1,.409,2.477,7.266,7.266,0,0,1-.277,2.1,5.1,5.1,0,0,1-.71,1.517,3.783,3.783,0,0,1-.949.945,3.867,3.867,0,0,1-1.244.522,7.084,7.084,0,0,1-1.673.178H99.14Zm1.379-1.229h2.224a5.4,5.4,0,0,0,1.617-.192,2.308,2.308,0,0,0,.934-0.54,3.284,3.284,0,0,0,.764-1.318,6.453,6.453,0,0,0,.273-2.008,4.844,4.844,0,0,0-.537-2.512,2.7,2.7,0,0,0-1.3-1.176,5.394,5.394,0,0,0-1.784-.213h-2.188v7.958Z" transform="translate(-6.971 -9.362)"/><path class="cls-3" d="M114.652,88.96l1.322,0.164a3.226,3.226,0,0,1-1.158,1.8,3.924,3.924,0,0,1-4.786-.38,3.985,3.985,0,0,1-.97-2.86,4.17,4.17,0,0,1,.981-2.956,3.319,3.319,0,0,1,2.544-1.052,3.226,3.226,0,0,1,2.473,1.031,4.093,4.093,0,0,1,.959,2.9q0,0.114-.007.341h-5.628a2.9,2.9,0,0,0,.7,1.9,2.094,2.094,0,0,0,1.578.661,1.958,1.958,0,0,0,1.2-.369A2.456,2.456,0,0,0,114.652,88.96Zm-4.2-2.068h4.214a2.556,2.556,0,0,0-.483-1.428,1.96,1.96,0,0,0-1.584-.739,2.032,2.032,0,0,0-1.481.59A2.334,2.334,0,0,0,110.453,86.893Z" transform="translate(-6.971 -9.362)"/><path class="cls-3" d="M117.885,91.391V84.839h-1.129V83.844h1.129v-0.8a3.521,3.521,0,0,1,.135-1.13,1.634,1.634,0,0,1,.65-0.807,2.342,2.342,0,0,1,1.3-.309,6.29,6.29,0,0,1,1.194.128l-0.192,1.116a4.293,4.293,0,0,0-.753-0.071,1.12,1.12,0,0,0-.824.249,1.348,1.348,0,0,0-.242.931v0.7h1.471v0.995h-1.471v6.552h-1.272Z" transform="translate(-6.971 -9.362)"/><path class="cls-3" d="M121.63,82.444V80.973h1.279v1.471H121.63Zm0,8.946V83.844h1.279v7.546H121.63Z" transform="translate(-6.971 -9.362)"/><path class="cls-3" d="M124.856,91.391V83.844h1.151v1.073a2.713,2.713,0,0,1,2.4-1.244,3.157,3.157,0,0,1,1.254.245,1.978,1.978,0,0,1,.856.643,2.478,2.478,0,0,1,.4.945,7.318,7.318,0,0,1,.071,1.244v4.64h-1.279V86.8a3.445,3.445,0,0,0-.149-1.169,1.229,1.229,0,0,0-.529-0.618,1.682,1.682,0,0,0-.892-0.231,2.073,2.073,0,0,0-1.411.519,2.559,2.559,0,0,0-.593,1.968v4.122h-1.279Z" transform="translate(-6.971 -9.362)"/><path class="cls-3" d="M138.116,88.96l1.322,0.164a3.226,3.226,0,0,1-1.158,1.8,3.924,3.924,0,0,1-4.786-.38,3.985,3.985,0,0,1-.97-2.86,4.17,4.17,0,0,1,.981-2.956,3.319,3.319,0,0,1,2.544-1.052,3.226,3.226,0,0,1,2.473,1.031,4.093,4.093,0,0,1,.959,2.9q0,0.114-.007.341h-5.628a2.9,2.9,0,0,0,.7,1.9,2.094,2.094,0,0,0,1.578.661,1.958,1.958,0,0,0,1.2-.369A2.456,2.456,0,0,0,138.116,88.96Zm-4.2-2.068h4.214a2.556,2.556,0,0,0-.483-1.428,1.96,1.96,0,0,0-1.584-.739,2.032,2.032,0,0,0-1.481.59A2.334,2.334,0,0,0,133.916,86.893Z" transform="translate(-6.971 -9.362)"/><path class="cls-3" d="M145.94,91.391V90.438a2.347,2.347,0,0,1-2.111,1.123,2.96,2.96,0,0,1-1.659-.5A3.273,3.273,0,0,1,141,89.674a4.8,4.8,0,0,1-.416-2.05,5.369,5.369,0,0,1,.376-2.05,2.971,2.971,0,0,1,1.13-1.411,3.022,3.022,0,0,1,1.684-.49,2.518,2.518,0,0,1,1.215.288,2.546,2.546,0,0,1,.867.75V80.973h1.272V91.391H145.94ZM141.9,87.625a3.276,3.276,0,0,0,.611,2.167,1.842,1.842,0,0,0,1.442.717,1.81,1.81,0,0,0,1.425-.686,3.163,3.163,0,0,0,.586-2.093,3.549,3.549,0,0,0-.6-2.274,1.837,1.837,0,0,0-1.471-.725,1.771,1.771,0,0,0-1.424.7A3.435,3.435,0,0,0,141.9,87.625Z" transform="translate(-6.971 -9.362)"/><path class="cls-3" d="M153.288,91.391V80.973H157.2a4.835,4.835,0,0,1,1.915.316,2.462,2.462,0,0,1,1.13.974,2.565,2.565,0,0,1,.409,1.375,2.359,2.359,0,0,1-.362,1.257,2.588,2.588,0,0,1-1.094.953,2.72,2.72,0,0,1,1.453.945,2.533,2.533,0,0,1,.508,1.578,3.044,3.044,0,0,1-.309,1.361,2.632,2.632,0,0,1-.764.97,3.181,3.181,0,0,1-1.141.515,6.929,6.929,0,0,1-1.681.174h-3.972Zm1.378-6.04h2.253a5,5,0,0,0,1.314-.121,1.46,1.46,0,0,0,.792-0.519,1.5,1.5,0,0,0,.266-0.91,1.678,1.678,0,0,0-.249-0.913,1.261,1.261,0,0,0-.71-0.54,5.938,5.938,0,0,0-1.585-.146h-2.082v3.148Zm0,4.811h2.594a5.964,5.964,0,0,0,.938-0.05,2.239,2.239,0,0,0,.8-0.284,1.5,1.5,0,0,0,.526-0.579,1.814,1.814,0,0,0,.206-0.877,1.734,1.734,0,0,0-.3-1.013,1.576,1.576,0,0,0-.828-0.6,5.126,5.126,0,0,0-1.524-.174h-2.409v3.581Z" transform="translate(-6.971 -9.362)"/><path class="cls-3" d="M168.054,88.96l1.322,0.164a3.226,3.226,0,0,1-1.158,1.8,3.924,3.924,0,0,1-4.786-.38,3.985,3.985,0,0,1-.97-2.86,4.17,4.17,0,0,1,.981-2.956,3.319,3.319,0,0,1,2.544-1.052,3.226,3.226,0,0,1,2.473,1.031,4.093,4.093,0,0,1,.959,2.9q0,0.114-.007.341h-5.628a2.9,2.9,0,0,0,.7,1.9,2.094,2.094,0,0,0,1.578.661,1.958,1.958,0,0,0,1.2-.369A2.456,2.456,0,0,0,168.054,88.96Zm-4.2-2.068h4.214a2.556,2.556,0,0,0-.483-1.428A1.96,1.96,0,0,0,166,84.725a2.032,2.032,0,0,0-1.481.59A2.334,2.334,0,0,0,163.854,86.893Z" transform="translate(-6.971 -9.362)"/><path class="cls-3" d="M170.981,91.391V83.844h1.151v1.073a2.713,2.713,0,0,1,2.4-1.244,3.157,3.157,0,0,1,1.254.245,1.978,1.978,0,0,1,.856.643,2.478,2.478,0,0,1,.4.945,7.318,7.318,0,0,1,.071,1.244v4.64h-1.279V86.8a3.445,3.445,0,0,0-.149-1.169,1.229,1.229,0,0,0-.529-0.618,1.682,1.682,0,0,0-.892-0.231,2.073,2.073,0,0,0-1.411.519,2.559,2.559,0,0,0-.593,1.968v4.122h-1.279Z" transform="translate(-6.971 -9.362)"/><path class="cls-3" d="M184.241,88.96l1.322,0.164a3.226,3.226,0,0,1-1.158,1.8,3.924,3.924,0,0,1-4.786-.38,3.985,3.985,0,0,1-.97-2.86,4.17,4.17,0,0,1,.981-2.956,3.319,3.319,0,0,1,2.544-1.052,3.226,3.226,0,0,1,2.473,1.031,4.093,4.093,0,0,1,.959,2.9q0,0.114-.007.341H179.97a2.9,2.9,0,0,0,.7,1.9,2.094,2.094,0,0,0,1.578.661,1.958,1.958,0,0,0,1.2-.369A2.456,2.456,0,0,0,184.241,88.96Zm-4.2-2.068h4.214a2.556,2.556,0,0,0-.483-1.428,1.96,1.96,0,0,0-1.584-.739,2.032,2.032,0,0,0-1.481.59A2.334,2.334,0,0,0,180.041,86.893Z" transform="translate(-6.971 -9.362)"/><path class="cls-3" d="M187.474,91.391V84.839h-1.129V83.844h1.129v-0.8a3.521,3.521,0,0,1,.135-1.13,1.634,1.634,0,0,1,.65-0.807,2.342,2.342,0,0,1,1.3-.309,6.29,6.29,0,0,1,1.194.128l-0.192,1.116a4.293,4.293,0,0,0-.753-0.071,1.12,1.12,0,0,0-.824.249,1.348,1.348,0,0,0-.242.931v0.7h1.471v0.995h-1.471v6.552h-1.272Z" transform="translate(-6.971 -9.362)"/><path class="cls-3" d="M191.219,82.444V80.973H192.5v1.471h-1.279Zm0,8.946V83.844H192.5v7.546h-1.279Z" transform="translate(-6.971 -9.362)"/><path class="cls-3" d="M197.238,90.247l0.185,1.13a4.751,4.751,0,0,1-.966.114,2.192,2.192,0,0,1-1.08-.22,1.232,1.232,0,0,1-.54-0.579,4.588,4.588,0,0,1-.156-1.51V84.839h-0.938V83.844h0.938V81.975l1.272-.768v2.637h1.286v0.995h-1.286v4.413a2.229,2.229,0,0,0,.067.7,0.533,0.533,0,0,0,.22.249,0.852,0.852,0,0,0,.437.092A4.155,4.155,0,0,0,197.238,90.247Z" transform="translate(-6.971 -9.362)"/><path class="cls-3" d="M202.7,91.391V80.973h3.93a9.482,9.482,0,0,1,1.585.1,3.145,3.145,0,0,1,1.286.487,2.555,2.555,0,0,1,.835,1.005,3.393,3.393,0,0,1-.529,3.67,4.058,4.058,0,0,1-3.056.92h-2.672v4.235H202.7Zm1.379-5.464h2.693a2.858,2.858,0,0,0,1.9-.5,1.773,1.773,0,0,0,.562-1.4,1.882,1.882,0,0,0-.331-1.119,1.547,1.547,0,0,0-.871-0.615,5.893,5.893,0,0,0-1.286-.092h-2.665v3.724Z" transform="translate(-6.971 -9.362)"/><path class="cls-3" d="M212.21,91.391V80.973h1.279V91.391H212.21Z" transform="translate(-6.971 -9.362)"/><path class="cls-3" d="M220.4,90.46a4.774,4.774,0,0,1-1.368.853,3.961,3.961,0,0,1-1.411.249,2.743,2.743,0,0,1-1.912-.607,2.005,2.005,0,0,1-.668-1.553,2.062,2.062,0,0,1,.252-1.013,2.087,2.087,0,0,1,.661-0.735,3.124,3.124,0,0,1,.92-0.419,9.292,9.292,0,0,1,1.137-.192,11.7,11.7,0,0,0,2.281-.44q0.007-.263.007-0.334a1.413,1.413,0,0,0-.362-1.1,2.142,2.142,0,0,0-1.457-.433,2.261,2.261,0,0,0-1.333.316,1.935,1.935,0,0,0-.636,1.119l-1.25-.17a3.1,3.1,0,0,1,.562-1.3,2.461,2.461,0,0,1,1.13-.76,5.037,5.037,0,0,1,1.712-.267,4.537,4.537,0,0,1,1.57.228,2.068,2.068,0,0,1,.888.572,2.008,2.008,0,0,1,.4.87,7.168,7.168,0,0,1,.064,1.18v1.706a18.027,18.027,0,0,0,.082,2.256,2.837,2.837,0,0,0,.323.906h-1.336A2.712,2.712,0,0,1,220.4,90.46ZM220.29,87.6a9.4,9.4,0,0,1-2.089.483,4.825,4.825,0,0,0-1.116.256,1.112,1.112,0,0,0-.5.416,1.131,1.131,0,0,0,.209,1.46,1.669,1.669,0,0,0,1.133.341,2.636,2.636,0,0,0,1.315-.323,1.989,1.989,0,0,0,.846-0.885,3.091,3.091,0,0,0,.206-1.279V87.6Z" transform="translate(-6.971 -9.362)"/><path class="cls-3" d="M223.566,91.391V83.844h1.151v1.073a2.713,2.713,0,0,1,2.4-1.244,3.157,3.157,0,0,1,1.254.245,1.978,1.978,0,0,1,.856.643,2.478,2.478,0,0,1,.4.945,7.318,7.318,0,0,1,.071,1.244v4.64h-1.279V86.8a3.445,3.445,0,0,0-.149-1.169,1.229,1.229,0,0,0-.529-0.618,1.683,1.683,0,0,0-.892-0.231,2.073,2.073,0,0,0-1.411.519,2.559,2.559,0,0,0-.593,1.968v4.122h-1.279Z" transform="translate(-6.971 -9.362)"/><path class="cls-3" d="M231.148,89.138l1.265-.2a1.771,1.771,0,0,0,.593,1.166,2.069,2.069,0,0,0,1.361.4,2,2,0,0,0,1.308-.359,1.072,1.072,0,0,0,.426-0.842,0.777,0.777,0,0,0-.376-0.682,5.546,5.546,0,0,0-1.308-.434,11.9,11.9,0,0,1-1.951-.615,1.862,1.862,0,0,1-1.1-1.73,1.946,1.946,0,0,1,.231-0.935,2.076,2.076,0,0,1,.629-0.714,2.652,2.652,0,0,1,.814-0.373,3.877,3.877,0,0,1,1.1-.153,4.371,4.371,0,0,1,1.56.256,2.121,2.121,0,0,1,.991.693,2.713,2.713,0,0,1,.441,1.169l-1.251.17a1.366,1.366,0,0,0-.494-0.909,1.8,1.8,0,0,0-1.155-.327,2.09,2.09,0,0,0-1.258.292,0.848,0.848,0,0,0-.376.682,0.7,0.7,0,0,0,.156.448,1.126,1.126,0,0,0,.49.341q0.192,0.071,1.13.327a15.761,15.761,0,0,1,1.894.593,1.921,1.921,0,0,1,.842.671,1.876,1.876,0,0,1,.306,1.094,2.148,2.148,0,0,1-.373,1.2,2.415,2.415,0,0,1-1.077.874,3.92,3.92,0,0,1-1.592.309,3.548,3.548,0,0,1-2.242-.611A2.845,2.845,0,0,1,231.148,89.138Z" transform="translate(-6.971 -9.362)"/><rect class="cls-4" x="53.723" y="115.986" width="203.744" height="32.987"/><rect class="cls-5" x="53.723" y="107.092" width="203.744" height="8.894"/><rect class="cls-6" x="53.723" y="107.092" width="203.744" height="8.894"/><path class="cls-3" d="M82.224,145.884V135.466h3.589a8.691,8.691,0,0,1,1.854.149,3.529,3.529,0,0,1,1.528.746,4.242,4.242,0,0,1,1.233,1.78,6.989,6.989,0,0,1,.409,2.477,7.266,7.266,0,0,1-.277,2.1,5.1,5.1,0,0,1-.71,1.517,3.783,3.783,0,0,1-.949.945,3.867,3.867,0,0,1-1.244.522,7.084,7.084,0,0,1-1.673.178H82.224Zm1.379-1.229h2.224a5.4,5.4,0,0,0,1.617-.192,2.308,2.308,0,0,0,.934-0.54,3.284,3.284,0,0,0,.764-1.318,6.453,6.453,0,0,0,.273-2.008,4.844,4.844,0,0,0-.537-2.512,2.7,2.7,0,0,0-1.3-1.176,5.394,5.394,0,0,0-1.784-.213H83.6v7.958Z" transform="translate(-6.971 -9.362)"/><path class="cls-3" d="M97.737,143.454l1.322,0.164a3.226,3.226,0,0,1-1.158,1.8,3.924,3.924,0,0,1-4.786-.38,3.985,3.985,0,0,1-.97-2.86,4.17,4.17,0,0,1,.981-2.956,3.319,3.319,0,0,1,2.544-1.052,3.226,3.226,0,0,1,2.473,1.031,4.093,4.093,0,0,1,.959,2.9q0,0.114-.007.341H93.466a2.9,2.9,0,0,0,.7,1.9,2.094,2.094,0,0,0,1.578.661,1.958,1.958,0,0,0,1.2-.369A2.456,2.456,0,0,0,97.737,143.454Zm-4.2-2.068h4.214a2.556,2.556,0,0,0-.483-1.428,1.96,1.96,0,0,0-1.584-.739,2.032,2.032,0,0,0-1.481.59A2.334,2.334,0,0,0,93.537,141.386Z" transform="translate(-6.971 -9.362)"/><path class="cls-3" d="M100.97,145.884v-6.552H99.84v-0.995h1.129v-0.8a3.521,3.521,0,0,1,.135-1.13,1.634,1.634,0,0,1,.65-0.807,2.342,2.342,0,0,1,1.3-.309,6.29,6.29,0,0,1,1.194.128l-0.192,1.116a4.293,4.293,0,0,0-.753-0.071,1.12,1.12,0,0,0-.824.249,1.348,1.348,0,0,0-.242.931v0.7h1.471v0.995h-1.471v6.552H100.97Z" transform="translate(-6.971 -9.362)"/><path class="cls-3" d="M104.715,136.938v-1.471h1.279v1.471h-1.279Zm0,8.946v-7.546h1.279v7.546h-1.279Z" transform="translate(-6.971 -9.362)"/><path class="cls-3" d="M107.941,145.884v-7.546h1.151v1.073a2.713,2.713,0,0,1,2.4-1.244,3.157,3.157,0,0,1,1.254.245,1.978,1.978,0,0,1,.856.643,2.478,2.478,0,0,1,.4.945,7.318,7.318,0,0,1,.071,1.244v4.64h-1.279v-4.59a3.445,3.445,0,0,0-.149-1.169,1.229,1.229,0,0,0-.529-0.618,1.683,1.683,0,0,0-.892-0.231,2.073,2.073,0,0,0-1.411.519,2.559,2.559,0,0,0-.593,1.968v4.122h-1.279Z" transform="translate(-6.971 -9.362)"/><path class="cls-3" d="M121.2,143.454l1.322,0.164a3.226,3.226,0,0,1-1.158,1.8,3.924,3.924,0,0,1-4.786-.38,3.985,3.985,0,0,1-.97-2.86,4.17,4.17,0,0,1,.981-2.956,3.319,3.319,0,0,1,2.544-1.052,3.226,3.226,0,0,1,2.473,1.031,4.093,4.093,0,0,1,.959,2.9q0,0.114-.007.341H116.93a2.9,2.9,0,0,0,.7,1.9,2.094,2.094,0,0,0,1.578.661,1.958,1.958,0,0,0,1.2-.369A2.456,2.456,0,0,0,121.2,143.454Zm-4.2-2.068h4.214a2.556,2.556,0,0,0-.483-1.428,1.96,1.96,0,0,0-1.584-.739,2.032,2.032,0,0,0-1.481.59A2.334,2.334,0,0,0,117,141.386Z" transform="translate(-6.971 -9.362)"/><path class="cls-3" d="M129.024,145.884v-0.952a2.347,2.347,0,0,1-2.111,1.123,2.96,2.96,0,0,1-1.659-.5,3.273,3.273,0,0,1-1.172-1.39,4.8,4.8,0,0,1-.416-2.05,5.369,5.369,0,0,1,.376-2.05,2.971,2.971,0,0,1,1.13-1.411,3.022,3.022,0,0,1,1.684-.49,2.518,2.518,0,0,1,1.215.288,2.546,2.546,0,0,1,.867.75v-3.738h1.272v10.417h-1.187Zm-4.043-3.766a3.276,3.276,0,0,0,.611,2.167,1.842,1.842,0,0,0,1.442.717,1.81,1.81,0,0,0,1.425-.686,3.163,3.163,0,0,0,.586-2.093,3.549,3.549,0,0,0-.6-2.274,1.837,1.837,0,0,0-1.471-.725,1.771,1.771,0,0,0-1.424.7A3.435,3.435,0,0,0,124.981,142.118Z" transform="translate(-6.971 -9.362)"/><path class="cls-3" d="M143.862,142.231l1.378,0.348a4.641,4.641,0,0,1-1.56,2.59,4.3,4.3,0,0,1-2.753.892,4.946,4.946,0,0,1-2.74-.686,4.284,4.284,0,0,1-1.606-1.986,7.087,7.087,0,0,1-.551-2.793,6.137,6.137,0,0,1,.622-2.838,4.26,4.26,0,0,1,1.77-1.841,5.171,5.171,0,0,1,2.526-.629,4.273,4.273,0,0,1,2.629.8,4.134,4.134,0,0,1,1.485,2.238l-1.357.32a3.223,3.223,0,0,0-1.052-1.656,2.8,2.8,0,0,0-1.734-.519,3.367,3.367,0,0,0-2.007.576,3.041,3.041,0,0,0-1.134,1.545,6.228,6.228,0,0,0-.327,2,6.357,6.357,0,0,0,.387,2.32,2.887,2.887,0,0,0,1.2,1.481,3.38,3.38,0,0,0,1.77.49,2.964,2.964,0,0,0,1.961-.668A3.416,3.416,0,0,0,143.862,142.231Z" transform="translate(-6.971 -9.362)"/><path class="cls-3" d="M146.3,142.11a3.889,3.889,0,0,1,1.165-3.1,3.512,3.512,0,0,1,2.374-.839,3.387,3.387,0,0,1,2.544,1.02A3.879,3.879,0,0,1,153.37,142a4.989,4.989,0,0,1-.437,2.292,3.09,3.09,0,0,1-1.272,1.3,3.7,3.7,0,0,1-1.823.462,3.39,3.39,0,0,1-2.562-1.016A4.059,4.059,0,0,1,146.3,142.11Zm1.314,0a3.214,3.214,0,0,0,.632,2.171,2.106,2.106,0,0,0,3.176,0,3.289,3.289,0,0,0,.633-2.21,3.119,3.119,0,0,0-.636-2.121,2.109,2.109,0,0,0-3.173,0A3.2,3.2,0,0,0,147.614,142.11Z" transform="translate(-6.971 -9.362)"/><path class="cls-3" d="M154.869,145.884v-7.546h1.151v1.073a2.713,2.713,0,0,1,2.4-1.244,3.157,3.157,0,0,1,1.254.245,1.978,1.978,0,0,1,.856.643,2.478,2.478,0,0,1,.4.945,7.318,7.318,0,0,1,.071,1.244v4.64h-1.279v-4.59a3.445,3.445,0,0,0-.149-1.169,1.229,1.229,0,0,0-.529-0.618,1.682,1.682,0,0,0-.892-0.231,2.073,2.073,0,0,0-1.411.519,2.559,2.559,0,0,0-.593,1.968v4.122h-1.279Z" transform="translate(-6.971 -9.362)"/><path class="cls-3" d="M165.755,144.74l0.185,1.13a4.751,4.751,0,0,1-.966.114,2.192,2.192,0,0,1-1.08-.22,1.232,1.232,0,0,1-.54-0.579,4.588,4.588,0,0,1-.156-1.51v-4.342h-0.938v-0.995H163.2v-1.869l1.272-.768v2.637h1.286v0.995h-1.286v4.413a2.229,2.229,0,0,0,.067.7,0.533,0.533,0,0,0,.22.249,0.852,0.852,0,0,0,.437.092A4.155,4.155,0,0,0,165.755,144.74Z" transform="translate(-6.971 -9.362)"/><path class="cls-3" d="M166.992,145.884v-7.546h1.151v1.144a3.123,3.123,0,0,1,.814-1.059,1.42,1.42,0,0,1,.82-0.256,2.5,2.5,0,0,1,1.315.412l-0.441,1.187a1.826,1.826,0,0,0-.938-0.277,1.219,1.219,0,0,0-.753.252,1.365,1.365,0,0,0-.476.7,4.984,4.984,0,0,0-.213,1.492v3.951h-1.279Z" transform="translate(-6.971 -9.362)"/><path class="cls-3" d="M171.859,136.938v-1.471h1.279v1.471h-1.279Zm0,8.946v-7.546h1.279v7.546h-1.279Z" transform="translate(-6.971 -9.362)"/><path class="cls-3" d="M176.265,145.884h-1.187V135.466h1.279v3.716a2.531,2.531,0,0,1,2.068-1.016,3.169,3.169,0,0,1,1.318.281,2.7,2.7,0,0,1,1.023.789,3.815,3.815,0,0,1,.629,1.226,5.061,5.061,0,0,1,.228,1.535,4.311,4.311,0,0,1-.959,3,3,3,0,0,1-2.3,1.059,2.4,2.4,0,0,1-2.1-1.116v0.945Zm-0.014-3.83a3.921,3.921,0,0,0,.37,1.961,1.829,1.829,0,0,0,3.084.259,3.312,3.312,0,0,0,.611-2.171,3.365,3.365,0,0,0-.586-2.182,1.784,1.784,0,0,0-1.417-.7,1.839,1.839,0,0,0-1.45.729A3.2,3.2,0,0,0,176.251,142.054Z" transform="translate(-6.971 -9.362)"/><path class="cls-3" d="M188.125,145.884v-1.108a2.763,2.763,0,0,1-2.4,1.279,3.046,3.046,0,0,1-1.247-.256,2.051,2.051,0,0,1-.86-0.643,2.406,2.406,0,0,1-.394-0.949,6.47,6.47,0,0,1-.079-1.193v-4.676h1.279v4.185a7.445,7.445,0,0,0,.078,1.35,1.334,1.334,0,0,0,.512.792,1.584,1.584,0,0,0,.966.288,2.108,2.108,0,0,0,1.08-.295,1.64,1.64,0,0,0,.714-0.8,4.031,4.031,0,0,0,.209-1.475v-4.043h1.279v7.546h-1.144Z" transform="translate(-6.971 -9.362)"/><path class="cls-3" d="M194.066,144.74l0.185,1.13a4.751,4.751,0,0,1-.966.114,2.192,2.192,0,0,1-1.08-.22,1.232,1.232,0,0,1-.54-0.579,4.588,4.588,0,0,1-.156-1.51v-4.342H190.57v-0.995h0.938v-1.869l1.272-.768v2.637h1.286v0.995H192.78v4.413a2.229,2.229,0,0,0,.067.7,0.533,0.533,0,0,0,.22.249,0.852,0.852,0,0,0,.437.092A4.155,4.155,0,0,0,194.066,144.74Z" transform="translate(-6.971 -9.362)"/><path class="cls-3" d="M195.323,136.938v-1.471H196.6v1.471h-1.279Zm0,8.946v-7.546H196.6v7.546h-1.279Z" transform="translate(-6.971 -9.362)"/><path class="cls-3" d="M198.074,142.11a3.889,3.889,0,0,1,1.165-3.1,3.512,3.512,0,0,1,2.374-.839,3.387,3.387,0,0,1,2.544,1.02,3.879,3.879,0,0,1,.988,2.817,4.989,4.989,0,0,1-.437,2.292,3.09,3.09,0,0,1-1.272,1.3,3.7,3.7,0,0,1-1.823.462,3.39,3.39,0,0,1-2.562-1.016A4.059,4.059,0,0,1,198.074,142.11Zm1.314,0a3.214,3.214,0,0,0,.632,2.171,2.106,2.106,0,0,0,3.176,0,3.289,3.289,0,0,0,.633-2.21,3.119,3.119,0,0,0-.636-2.121,2.109,2.109,0,0,0-3.173,0A3.2,3.2,0,0,0,199.388,142.11Z" transform="translate(-6.971 -9.362)"/><path class="cls-3" d="M206.643,145.884v-7.546h1.151v1.073a2.713,2.713,0,0,1,2.4-1.244,3.157,3.157,0,0,1,1.254.245,1.978,1.978,0,0,1,.856.643,2.478,2.478,0,0,1,.4.945,7.318,7.318,0,0,1,.071,1.244v4.64H211.5v-4.59a3.445,3.445,0,0,0-.149-1.169,1.229,1.229,0,0,0-.529-0.618,1.683,1.683,0,0,0-.892-0.231,2.073,2.073,0,0,0-1.411.519,2.559,2.559,0,0,0-.593,1.968v4.122h-1.279Z" transform="translate(-6.971 -9.362)"/><path class="cls-3" d="M218.944,145.884V135.466h3.93a9.482,9.482,0,0,1,1.585.1,3.145,3.145,0,0,1,1.286.487,2.555,2.555,0,0,1,.835,1.005,3.393,3.393,0,0,1-.529,3.67,4.058,4.058,0,0,1-3.056.92h-2.672v4.235h-1.379Zm1.379-5.464h2.693a2.858,2.858,0,0,0,1.9-.5,1.773,1.773,0,0,0,.562-1.4,1.882,1.882,0,0,0-.331-1.119,1.547,1.547,0,0,0-.871-0.615,5.893,5.893,0,0,0-1.286-.092h-2.665v3.724Z" transform="translate(-6.971 -9.362)"/><path class="cls-3" d="M228.458,145.884V135.466h1.279v10.417h-1.279Z" transform="translate(-6.971 -9.362)"/><path class="cls-3" d="M236.645,144.953a4.775,4.775,0,0,1-1.368.853,3.961,3.961,0,0,1-1.411.249,2.743,2.743,0,0,1-1.912-.607,2.005,2.005,0,0,1-.668-1.553,2.062,2.062,0,0,1,.252-1.013,2.087,2.087,0,0,1,.661-0.735,3.124,3.124,0,0,1,.92-0.419,9.292,9.292,0,0,1,1.137-.192,11.7,11.7,0,0,0,2.281-.44q0.007-.263.007-0.334a1.413,1.413,0,0,0-.362-1.1,2.142,2.142,0,0,0-1.457-.433,2.261,2.261,0,0,0-1.333.316,1.935,1.935,0,0,0-.636,1.119l-1.25-.17a3.1,3.1,0,0,1,.562-1.3,2.461,2.461,0,0,1,1.13-.76,5.037,5.037,0,0,1,1.712-.267,4.537,4.537,0,0,1,1.57.228,2.068,2.068,0,0,1,.888.572,2.008,2.008,0,0,1,.4.87,7.168,7.168,0,0,1,.064,1.18v1.706a18.027,18.027,0,0,0,.082,2.256,2.837,2.837,0,0,0,.323.906H236.9A2.712,2.712,0,0,1,236.645,144.953Zm-0.106-2.857a9.4,9.4,0,0,1-2.089.483,4.825,4.825,0,0,0-1.116.256,1.112,1.112,0,0,0-.5.416,1.131,1.131,0,0,0,.209,1.46,1.669,1.669,0,0,0,1.133.341,2.636,2.636,0,0,0,1.315-.323,1.989,1.989,0,0,0,.846-0.885,3.091,3.091,0,0,0,.206-1.279V142.1Z" transform="translate(-6.971 -9.362)"/><path class="cls-3" d="M239.814,145.884v-7.546h1.151v1.073a2.713,2.713,0,0,1,2.4-1.244,3.157,3.157,0,0,1,1.254.245,1.978,1.978,0,0,1,.856.643,2.478,2.478,0,0,1,.4.945,7.318,7.318,0,0,1,.071,1.244v4.64h-1.279v-4.59a3.445,3.445,0,0,0-.149-1.169,1.229,1.229,0,0,0-.529-0.618,1.682,1.682,0,0,0-.892-0.231,2.073,2.073,0,0,0-1.411.519,2.559,2.559,0,0,0-.593,1.968v4.122h-1.279Z" transform="translate(-6.971 -9.362)"/><path class="cls-3" d="M247.4,143.631l1.265-.2a1.771,1.771,0,0,0,.593,1.166,2.069,2.069,0,0,0,1.361.4,2,2,0,0,0,1.308-.359,1.072,1.072,0,0,0,.426-0.842,0.777,0.777,0,0,0-.376-0.682,5.546,5.546,0,0,0-1.308-.434,11.9,11.9,0,0,1-1.951-.615,1.862,1.862,0,0,1-1.1-1.73,1.946,1.946,0,0,1,.231-0.935,2.076,2.076,0,0,1,.629-0.714,2.652,2.652,0,0,1,.814-0.373,3.877,3.877,0,0,1,1.1-.153,4.371,4.371,0,0,1,1.56.256,2.121,2.121,0,0,1,.991.693,2.713,2.713,0,0,1,.441,1.169l-1.251.17a1.366,1.366,0,0,0-.494-0.909,1.8,1.8,0,0,0-1.155-.327,2.09,2.09,0,0,0-1.258.292,0.848,0.848,0,0,0-.376.682,0.7,0.7,0,0,0,.156.448,1.126,1.126,0,0,0,.49.341q0.192,0.071,1.13.327a15.761,15.761,0,0,1,1.894.593,1.921,1.921,0,0,1,.842.671,1.876,1.876,0,0,1,.306,1.094,2.148,2.148,0,0,1-.373,1.2,2.415,2.415,0,0,1-1.077.874,3.92,3.92,0,0,1-1.592.309,3.548,3.548,0,0,1-2.242-.611A2.845,2.845,0,0,1,247.4,143.631Z" transform="translate(-6.971 -9.362)"/><rect class="cls-7" x="0.5" y="0.5" width="308.136" height="176.54"/><path class="cls-3" d="M118.929,40.862a6.859,6.859,0,0,0,1.684.881l-0.774,1.485a4.816,4.816,0,0,1-.931-0.391q-0.1-.05-1.4-0.924a5.6,5.6,0,0,1-2.267.448,4.976,4.976,0,0,1-3.763-1.414,5.5,5.5,0,0,1-1.361-3.972,5.49,5.49,0,0,1,1.364-3.969,4.9,4.9,0,0,1,3.7-1.418,4.848,4.848,0,0,1,3.674,1.418,5.506,5.506,0,0,1,1.357,3.969,6.857,6.857,0,0,1-.376,2.373A4.928,4.928,0,0,1,118.929,40.862Zm-1.691-1.187a3.15,3.15,0,0,0,.608-1.151,5.4,5.4,0,0,0,.2-1.549,3.949,3.949,0,0,0-.8-2.7,2.876,2.876,0,0,0-4.168,0,3.939,3.939,0,0,0-.8,2.693,4.03,4.03,0,0,0,.8,2.732,2.581,2.581,0,0,0,2.022.906,2.464,2.464,0,0,0,.859-0.149,6.079,6.079,0,0,0-1.3-.654l0.59-1.2A7.139,7.139,0,0,1,117.237,39.675Z" transform="translate(-6.971 -9.362)"/><path class="cls-3" d="M126.816,42.184v-1.13a2.909,2.909,0,0,1-1.083.952,3.041,3.041,0,0,1-1.418.348,2.772,2.772,0,0,1-1.364-.334,1.971,1.971,0,0,1-.874-0.938,4.181,4.181,0,0,1-.27-1.67V34.637h2V38.1a9.578,9.578,0,0,0,.11,1.95,1.062,1.062,0,0,0,.4.569,1.236,1.236,0,0,0,.739.209,1.572,1.572,0,0,0,.917-0.281,1.426,1.426,0,0,0,.554-0.7,8.077,8.077,0,0,0,.149-2.036V34.637h2v7.546h-1.854Z" transform="translate(-6.971 -9.362)"/><path class="cls-3" d="M132.231,36.939l-1.812-.327a2.824,2.824,0,0,1,1.052-1.62,3.85,3.85,0,0,1,2.217-.526,4.776,4.776,0,0,1,1.99.316,1.985,1.985,0,0,1,.92.8,4.118,4.118,0,0,1,.267,1.788L136.843,39.7a8.084,8.084,0,0,0,.1,1.467,4.275,4.275,0,0,0,.359,1.013h-1.976q-0.078-.2-0.192-0.59-0.05-.177-0.071-0.234a3.606,3.606,0,0,1-1.095.746,3.137,3.137,0,0,1-1.243.249,2.569,2.569,0,0,1-1.837-.632,2.1,2.1,0,0,1-.672-1.6,2.146,2.146,0,0,1,.306-1.141,2,2,0,0,1,.856-0.768,6.7,6.7,0,0,1,1.588-.465,10.89,10.89,0,0,0,1.94-.49v-0.2a1.034,1.034,0,0,0-.284-0.821,1.7,1.7,0,0,0-1.073-.245,1.427,1.427,0,0,0-.832.21A1.46,1.46,0,0,0,132.231,36.939Zm2.672,1.62a12.447,12.447,0,0,1-1.215.306,3.651,3.651,0,0,0-1.087.348,0.833,0.833,0,0,0-.391.7,0.979,0.979,0,0,0,.313.725,1.092,1.092,0,0,0,.8.306,1.729,1.729,0,0,0,1.03-.355,1.251,1.251,0,0,0,.476-0.661,3.94,3.94,0,0,0,.078-0.974v-0.4Z" transform="translate(-6.971 -9.362)"/><path class="cls-3" d="M138.832,42.184V31.766h2V42.184h-2Z" transform="translate(-6.971 -9.362)"/><path class="cls-3" d="M142.876,33.614V31.766h2v1.848h-2Zm0,8.57V34.637h2v7.546h-2Z" transform="translate(-6.971 -9.362)"/><path class="cls-3" d="M146.045,34.637h1.109V34.068a3.781,3.781,0,0,1,.2-1.421,1.6,1.6,0,0,1,.746-0.764,2.867,2.867,0,0,1,1.375-.295,5.559,5.559,0,0,1,1.67.256l-0.27,1.393a3.951,3.951,0,0,0-.917-0.114,0.816,0.816,0,0,0-.622.2,1.169,1.169,0,0,0-.188.778v0.533h1.492v1.57H149.15v5.976h-2V36.208h-1.109v-1.57Z" transform="translate(-6.971 -9.362)"/><path class="cls-3" d="M151.766,33.614V31.766h2v1.848h-2Zm0,8.57V34.637h2v7.546h-2Z" transform="translate(-6.971 -9.362)"/><path class="cls-3" d="M160.179,39.782l1.99,0.334a3.265,3.265,0,0,1-1.211,1.667,3.558,3.558,0,0,1-2.071.572,3.376,3.376,0,0,1-2.914-1.286,4.319,4.319,0,0,1-.746-2.6,4.167,4.167,0,0,1,.98-2.938,3.231,3.231,0,0,1,2.48-1.062,3.35,3.35,0,0,1,2.658,1.112,4.921,4.921,0,0,1,.931,3.407h-5a2.02,2.02,0,0,0,.483,1.382,1.511,1.511,0,0,0,1.151.494,1.224,1.224,0,0,0,.789-0.256A1.581,1.581,0,0,0,160.179,39.782Zm0.114-2.018a1.921,1.921,0,0,0-.448-1.318,1.441,1.441,0,0,0-2.117.025,1.842,1.842,0,0,0-.419,1.293h2.984Z" transform="translate(-6.971 -9.362)"/><path class="cls-3" d="M170.824,42.184h-1.854V41.075a3,3,0,0,1-1.091.963,2.8,2.8,0,0,1-1.269.316,2.874,2.874,0,0,1-2.228-1.048,4.265,4.265,0,0,1-.928-2.924,4.212,4.212,0,0,1,.9-2.917,2.942,2.942,0,0,1,2.281-1,2.826,2.826,0,0,1,2.189,1.052V31.766h2V42.184Zm-5.33-3.937A3.457,3.457,0,0,0,165.828,40a1.509,1.509,0,0,0,1.35.781,1.471,1.471,0,0,0,1.173-.586,2.708,2.708,0,0,0,.483-1.751,2.962,2.962,0,0,0-.469-1.873,1.541,1.541,0,0,0-2.391-.007A2.554,2.554,0,0,0,165.494,38.247Z" transform="translate(-6.971 -9.362)"/><path class="cls-3" d="M176.85,42.184V31.766h3.375a12.26,12.26,0,0,1,2.5.156,2.733,2.733,0,0,1,1.5,1.02,3.236,3.236,0,0,1,.6,2.029,3.394,3.394,0,0,1-.349,1.613,2.853,2.853,0,0,1-.884,1.027,3.058,3.058,0,0,1-1.091.494,12.049,12.049,0,0,1-2.182.149h-1.372v3.93h-2.1Zm2.1-8.655v2.956H180.1a5.444,5.444,0,0,0,1.663-.163,1.38,1.38,0,0,0,.657-0.512,1.4,1.4,0,0,0,.238-0.81,1.345,1.345,0,0,0-.334-0.938,1.452,1.452,0,0,0-.846-0.462,10.1,10.1,0,0,0-1.514-.071h-1.016Z" transform="translate(-6.971 -9.362)"/><path class="cls-3" d="M186.542,42.184V31.766h2V42.184h-2Z" transform="translate(-6.971 -9.362)"/><path class="cls-3" d="M192.078,36.939l-1.812-.327a2.824,2.824,0,0,1,1.052-1.62,3.85,3.85,0,0,1,2.217-.526,4.776,4.776,0,0,1,1.99.316,1.985,1.985,0,0,1,.92.8,4.118,4.118,0,0,1,.267,1.788L196.689,39.7a8.084,8.084,0,0,0,.1,1.467,4.275,4.275,0,0,0,.359,1.013h-1.976q-0.078-.2-0.192-0.59-0.05-.177-0.071-0.234a3.606,3.606,0,0,1-1.095.746,3.137,3.137,0,0,1-1.243.249,2.569,2.569,0,0,1-1.837-.632,2.1,2.1,0,0,1-.672-1.6,2.146,2.146,0,0,1,.306-1.141,2,2,0,0,1,.856-0.768,6.7,6.7,0,0,1,1.588-.465,10.89,10.89,0,0,0,1.94-.49v-0.2a1.034,1.034,0,0,0-.284-0.821,1.7,1.7,0,0,0-1.073-.245,1.427,1.427,0,0,0-.832.21A1.46,1.46,0,0,0,192.078,36.939Zm2.672,1.62a12.447,12.447,0,0,1-1.215.306,3.651,3.651,0,0,0-1.087.348,0.833,0.833,0,0,0-.391.7,0.979,0.979,0,0,0,.313.725,1.092,1.092,0,0,0,.8.306,1.729,1.729,0,0,0,1.03-.355,1.251,1.251,0,0,0,.476-0.661,3.94,3.94,0,0,0,.078-0.974v-0.4Z" transform="translate(-6.971 -9.362)"/><path class="cls-3" d="M205.544,42.184h-2V38.332a5.946,5.946,0,0,0-.128-1.581A1.1,1.1,0,0,0,203,36.193a1.187,1.187,0,0,0-.693-0.2,1.6,1.6,0,0,0-.931.284,1.434,1.434,0,0,0-.564.753,6.5,6.5,0,0,0-.153,1.734v3.418h-2V34.637h1.855v1.108a3.091,3.091,0,0,1,3.695-1.041,2.03,2.03,0,0,1,.828.607,2.2,2.2,0,0,1,.391.838,6.252,6.252,0,0,1,.11,1.343v4.69Z" transform="translate(-6.971 -9.362)"/><path class="cls-3" d="M206.866,40.03l2-.305a1.465,1.465,0,0,0,.519.884,1.75,1.75,0,0,0,1.094.3,1.977,1.977,0,0,0,1.166-.284,0.634,0.634,0,0,0,.263-0.533,0.525,0.525,0,0,0-.142-0.376,1.594,1.594,0,0,0-.668-0.263,10.766,10.766,0,0,1-3.062-.974,1.944,1.944,0,0,1-.9-1.7,2.094,2.094,0,0,1,.774-1.649,3.618,3.618,0,0,1,2.4-.668,4.191,4.191,0,0,1,2.3.5,2.578,2.578,0,0,1,1.037,1.492l-1.883.348a1.164,1.164,0,0,0-.458-0.675,1.677,1.677,0,0,0-.963-0.234,2.174,2.174,0,0,0-1.13.22,0.474,0.474,0,0,0-.228.405,0.441,0.441,0,0,0,.2.362,7.488,7.488,0,0,0,1.865.562,5.551,5.551,0,0,1,2.228.888,1.846,1.846,0,0,1,.625,1.485,2.28,2.28,0,0,1-.867,1.784,3.837,3.837,0,0,1-2.565.746,4.212,4.212,0,0,1-2.441-.625A2.882,2.882,0,0,1,206.866,40.03Z" transform="translate(-6.971 -9.362)"/></svg>