<svg id="Layer_1" data-name="Layer 1" xmlns="http://www.w3.org/2000/svg" viewBox="0 0 508.038 196.276"><defs><style>.cls-1{fill:#28538c;}.cls-2{fill:#9d9d9d;}.cls-3{fill:#fff;}</style></defs><title>Considering_All_Interests</title><rect class="cls-1" y="122.764" width="204.362" height="73.512"/><rect class="cls-1" x="153.507" width="204.362" height="73.512"/><rect class="cls-1" x="303.676" y="122.764" width="204.362" height="73.512"/><polygon class="cls-2" points="204.362 159.52 254.019 73.512 303.676 159.52 204.362 159.52"/><path class="cls-3" d="M59.426,154.469v-9.851h6.646v1.163H60.729v3.05h4.623v1.163H60.729v4.475Z" transform="translate(-6.962 -8.436)"/><path class="cls-3" d="M72.266,153.588a4.5,4.5,0,0,1-1.293.807,3.737,3.737,0,0,1-1.333.235,2.6,2.6,0,0,1-1.808-.574,1.9,1.9,0,0,1-.632-1.468,1.989,1.989,0,0,1,.864-1.653,2.924,2.924,0,0,1,.87-.4,8.551,8.551,0,0,1,1.075-.182,11.045,11.045,0,0,0,2.157-.417q.007-.248.007-.316a1.335,1.335,0,0,0-.343-1.042,2.026,2.026,0,0,0-1.377-.41,2.137,2.137,0,0,0-1.26.3,1.825,1.825,0,0,0-.6,1.058l-1.183-.161a2.926,2.926,0,0,1,.531-1.226,2.327,2.327,0,0,1,1.068-.719,4.767,4.767,0,0,1,1.62-.252,4.281,4.281,0,0,1,1.485.215,1.953,1.953,0,0,1,.84.541,1.9,1.9,0,0,1,.376.823,6.841,6.841,0,0,1,.061,1.115v1.613a17.072,17.072,0,0,0,.077,2.133,2.679,2.679,0,0,0,.306.857H72.508A2.571,2.571,0,0,1,72.266,153.588Zm-.1-2.7a8.877,8.877,0,0,1-1.976.457,4.583,4.583,0,0,0-1.055.242,1.053,1.053,0,0,0-.477.393,1.069,1.069,0,0,0,.2,1.381,1.572,1.572,0,0,0,1.071.323,2.5,2.5,0,0,0,1.243-.306,1.886,1.886,0,0,0,.8-.837,2.921,2.921,0,0,0,.195-1.209Z" transform="translate(-6.962 -8.436)"/><path class="cls-3" d="M75.263,154.469v-7.136h1.082v1a2.543,2.543,0,0,1,.894-.843,2.509,2.509,0,0,1,1.27-.319,2.348,2.348,0,0,1,1.3.329,1.765,1.765,0,0,1,.716.921,2.561,2.561,0,0,1,2.2-1.25,2.174,2.174,0,0,1,1.633.588,2.515,2.515,0,0,1,.571,1.811v4.9h-1.2v-4.5a3.3,3.3,0,0,0-.118-1.045,1.011,1.011,0,0,0-.427-.514,1.331,1.331,0,0,0-.726-.195,1.689,1.689,0,0,0-1.25.5,2.205,2.205,0,0,0-.5,1.6v4.146H79.5v-4.636a2.042,2.042,0,0,0-.3-1.209,1.12,1.12,0,0,0-.968-.4,1.76,1.76,0,0,0-.944.269,1.525,1.525,0,0,0-.628.786,4.428,4.428,0,0,0-.195,1.492v3.7Z" transform="translate(-6.962 -8.436)"/><path class="cls-3" d="M86.733,146.009v-1.391h1.209v1.391Zm0,8.46v-7.136h1.209v7.136Z" transform="translate(-6.962 -8.436)"/><path class="cls-3" d="M89.757,154.469v-9.851h1.209v9.851Z" transform="translate(-6.962 -8.436)"/><path class="cls-3" d="M92.787,157.217l-.135-1.135a2.715,2.715,0,0,0,.692.107,1.331,1.331,0,0,0,.645-.134,1.1,1.1,0,0,0,.4-.376,5.947,5.947,0,0,0,.37-.9c.022-.067.058-.166.107-.3l-2.708-7.15h1.3l1.485,4.133q.289.786.518,1.653a16.157,16.157,0,0,1,.5-1.626l1.525-4.16h1.209l-2.715,7.257a14.136,14.136,0,0,1-.679,1.619,2.389,2.389,0,0,1-.739.877,1.746,1.746,0,0,1-.995.279A2.419,2.419,0,0,1,92.787,157.217Z" transform="translate(-6.962 -8.436)"/><path class="cls-3" d="M103.659,154.469v-9.851h1.962l2.332,6.975q.323.974.471,1.458.168-.538.524-1.579l2.358-6.854h1.754v9.851H111.8v-8.245l-2.863,8.245h-1.176l-2.849-8.386v8.386Z" transform="translate(-6.962 -8.436)"/><path class="cls-3" d="M119.893,152.171l1.25.154a3.052,3.052,0,0,1-1.1,1.7,3.711,3.711,0,0,1-4.525-.359,3.767,3.767,0,0,1-.917-2.7,3.943,3.943,0,0,1,.927-2.8,3.139,3.139,0,0,1,2.406-.995,3.05,3.05,0,0,1,2.338.975,3.871,3.871,0,0,1,.907,2.741q0,.108-.006.323h-5.322a2.739,2.739,0,0,0,.665,1.8,1.981,1.981,0,0,0,1.492.625,1.852,1.852,0,0,0,1.136-.35A2.321,2.321,0,0,0,119.893,152.171Zm-3.971-1.956h3.985a2.417,2.417,0,0,0-.457-1.351,1.854,1.854,0,0,0-1.5-.7,1.922,1.922,0,0,0-1.4.558A2.21,2.21,0,0,0,115.922,150.215Z" transform="translate(-6.962 -8.436)"/><path class="cls-3" d="M122.662,154.469v-7.136h1.082v1a2.543,2.543,0,0,1,.894-.843,2.509,2.509,0,0,1,1.27-.319,2.348,2.348,0,0,1,1.3.329,1.765,1.765,0,0,1,.716.921,2.561,2.561,0,0,1,2.2-1.25,2.174,2.174,0,0,1,1.633.588,2.515,2.515,0,0,1,.571,1.811v4.9h-1.2v-4.5a3.3,3.3,0,0,0-.118-1.045,1.011,1.011,0,0,0-.427-.514,1.331,1.331,0,0,0-.726-.195,1.689,1.689,0,0,0-1.25.5,2.205,2.205,0,0,0-.5,1.6v4.146H126.9v-4.636a2.042,2.042,0,0,0-.3-1.209,1.12,1.12,0,0,0-.968-.4,1.76,1.76,0,0,0-.944.269,1.525,1.525,0,0,0-.628.786,4.428,4.428,0,0,0-.195,1.492v3.7Z" transform="translate(-6.962 -8.436)"/><path class="cls-3" d="M135.24,154.469h-1.122v-9.851h1.209v3.514a2.394,2.394,0,0,1,1.956-.961,2.989,2.989,0,0,1,1.246.266,2.541,2.541,0,0,1,.968.746,3.617,3.617,0,0,1,.595,1.159,4.79,4.79,0,0,1,.215,1.452,4.075,4.075,0,0,1-.907,2.835,2.836,2.836,0,0,1-2.177,1,2.273,2.273,0,0,1-1.982-1.055Zm-.013-3.622a3.7,3.7,0,0,0,.349,1.854,1.729,1.729,0,0,0,2.917.245,3.13,3.13,0,0,0,.578-2.053,3.184,3.184,0,0,0-.554-2.063,1.689,1.689,0,0,0-1.341-.665,1.74,1.74,0,0,0-1.371.688A3.025,3.025,0,0,0,135.227,150.847Z" transform="translate(-6.962 -8.436)"/><path class="cls-3" d="M146.663,152.171l1.25.154a3.052,3.052,0,0,1-1.1,1.7,3.711,3.711,0,0,1-4.525-.359,3.767,3.767,0,0,1-.917-2.7,3.943,3.943,0,0,1,.927-2.8,3.139,3.139,0,0,1,2.406-.995,3.05,3.05,0,0,1,2.338.975,3.871,3.871,0,0,1,.907,2.741q0,.108-.006.323h-5.322a2.739,2.739,0,0,0,.665,1.8,1.981,1.981,0,0,0,1.492.625,1.852,1.852,0,0,0,1.136-.35A2.321,2.321,0,0,0,146.663,152.171Zm-3.971-1.956h3.985a2.417,2.417,0,0,0-.457-1.351,1.854,1.854,0,0,0-1.5-.7,1.922,1.922,0,0,0-1.4.558A2.21,2.21,0,0,0,142.692,150.215Z" transform="translate(-6.962 -8.436)"/><path class="cls-3" d="M149.418,154.469v-7.136h1.089v1.082a2.947,2.947,0,0,1,.769-1,1.342,1.342,0,0,1,.776-.242,2.362,2.362,0,0,1,1.243.39l-.417,1.122a1.733,1.733,0,0,0-.887-.262,1.153,1.153,0,0,0-.712.238,1.3,1.3,0,0,0-.45.662,4.715,4.715,0,0,0-.2,1.411v3.736Z" transform="translate(-6.962 -8.436)"/><path class="cls-3" d="M153.53,152.339l1.2-.188a1.672,1.672,0,0,0,.562,1.1,1.954,1.954,0,0,0,1.287.383,1.891,1.891,0,0,0,1.236-.339,1.016,1.016,0,0,0,.4-.8.735.735,0,0,0-.356-.645,5.251,5.251,0,0,0-1.236-.41,11.251,11.251,0,0,1-1.844-.581,1.759,1.759,0,0,1-1.045-1.636,1.838,1.838,0,0,1,.218-.883,1.963,1.963,0,0,1,.595-.676,2.49,2.49,0,0,1,.77-.353,3.662,3.662,0,0,1,1.045-.145,4.122,4.122,0,0,1,1.475.242,2.006,2.006,0,0,1,.938.655,2.562,2.562,0,0,1,.417,1.105l-1.183.161a1.294,1.294,0,0,0-.467-.86,1.709,1.709,0,0,0-1.092-.309,1.977,1.977,0,0,0-1.189.275.8.8,0,0,0-.356.645.668.668,0,0,0,.148.423,1.069,1.069,0,0,0,.464.323q.181.067,1.068.309a14.912,14.912,0,0,1,1.791.561,1.816,1.816,0,0,1,.8.635,1.774,1.774,0,0,1,.289,1.035,2.029,2.029,0,0,1-.353,1.139,2.283,2.283,0,0,1-1.018.827,3.706,3.706,0,0,1-1.5.292,3.353,3.353,0,0,1-2.12-.578A2.686,2.686,0,0,1,153.53,152.339Z" transform="translate(-6.962 -8.436)"/><path class="cls-3" d="M50.778,173.878a12.093,12.093,0,0,1-1.693-2.957,9.275,9.275,0,0,1-.175-6.571,12.885,12.885,0,0,1,1.868-3.387h.867q-.813,1.4-1.075,2a10.884,10.884,0,0,0-.645,1.935,11.229,11.229,0,0,0-.289,2.526,12.126,12.126,0,0,0,2.009,6.458Z" transform="translate(-6.962 -8.436)"/><path class="cls-3" d="M53.056,162.522v-1.391h1.209v1.391Zm0,8.46v-7.136h1.209v7.136Z" transform="translate(-6.962 -8.436)"/><path class="cls-3" d="M56.106,170.982v-7.136h1.088v1.015a2.566,2.566,0,0,1,2.271-1.176,2.974,2.974,0,0,1,1.186.232,1.866,1.866,0,0,1,.81.608,2.343,2.343,0,0,1,.376.894,6.9,6.9,0,0,1,.067,1.176v4.388H60.7v-4.341a3.27,3.27,0,0,0-.141-1.105,1.165,1.165,0,0,0-.5-.584,1.594,1.594,0,0,0-.843-.218,1.959,1.959,0,0,0-1.334.491,2.419,2.419,0,0,0-.561,1.861v3.9Z" transform="translate(-6.962 -8.436)"/><path class="cls-3" d="M70.223,169.9l.175,1.068a4.485,4.485,0,0,1-.914.108,2.069,2.069,0,0,1-1.021-.208,1.162,1.162,0,0,1-.511-.547,4.332,4.332,0,0,1-.148-1.428v-4.105h-.887v-.941H67.8v-1.767l1.2-.726v2.493h1.216v.941H69.007v4.173a2.107,2.107,0,0,0,.064.665.5.5,0,0,0,.208.235.8.8,0,0,0,.413.087A3.885,3.885,0,0,0,70.223,169.9Z" transform="translate(-6.962 -8.436)"/><path class="cls-3" d="M71.406,170.982v-9.851h1.209v3.534a2.7,2.7,0,0,1,2.137-.981,2.879,2.879,0,0,1,1.377.313,1.836,1.836,0,0,1,.836.863,3.983,3.983,0,0,1,.252,1.6v4.522H76.008V166.46a1.869,1.869,0,0,0-.393-1.321,1.461,1.461,0,0,0-1.112-.413,1.963,1.963,0,0,0-1.011.279,1.575,1.575,0,0,0-.675.756,3.467,3.467,0,0,0-.2,1.317v3.9Z" transform="translate(-6.962 -8.436)"/><path class="cls-3" d="M83.944,168.685l1.25.154a3.052,3.052,0,0,1-1.1,1.7,3.711,3.711,0,0,1-4.525-.359,3.767,3.767,0,0,1-.917-2.7,3.943,3.943,0,0,1,.927-2.8,3.139,3.139,0,0,1,2.406-.995,3.05,3.05,0,0,1,2.338.975,3.871,3.871,0,0,1,.907,2.741q0,.108-.006.323H79.906a2.739,2.739,0,0,0,.665,1.8,1.981,1.981,0,0,0,1.492.625,1.852,1.852,0,0,0,1.136-.35A2.321,2.321,0,0,0,83.944,168.685Zm-3.971-1.956h3.985a2.417,2.417,0,0,0-.457-1.351,1.854,1.854,0,0,0-1.5-.7,1.922,1.922,0,0,0-1.4.558A2.21,2.21,0,0,0,79.973,166.729Z" transform="translate(-6.962 -8.436)"/><path class="cls-3" d="M91.651,170.982H90.529v-9.851h1.209v3.514a2.394,2.394,0,0,1,1.956-.961,2.989,2.989,0,0,1,1.246.266,2.541,2.541,0,0,1,.968.746,3.617,3.617,0,0,1,.595,1.159,4.79,4.79,0,0,1,.215,1.452,4.075,4.075,0,0,1-.907,2.835,2.836,2.836,0,0,1-2.177,1,2.273,2.273,0,0,1-1.982-1.055Zm-.013-3.622a3.7,3.7,0,0,0,.349,1.854,1.729,1.729,0,0,0,2.917.245,3.13,3.13,0,0,0,.578-2.053,3.184,3.184,0,0,0-.554-2.063,1.689,1.689,0,0,0-1.341-.665,1.74,1.74,0,0,0-1.371.688A3.025,3.025,0,0,0,91.638,167.361Z" transform="translate(-6.962 -8.436)"/><path class="cls-3" d="M102.866,170.982v-1.048a2.612,2.612,0,0,1-2.265,1.209,2.889,2.889,0,0,1-1.179-.242,1.935,1.935,0,0,1-.813-.608,2.272,2.272,0,0,1-.373-.9,6.138,6.138,0,0,1-.074-1.129v-4.421h1.209V167.8a7.06,7.06,0,0,0,.074,1.277,1.261,1.261,0,0,0,.484.749,1.5,1.5,0,0,0,.914.272,1.988,1.988,0,0,0,1.021-.279,1.546,1.546,0,0,0,.675-.759,3.806,3.806,0,0,0,.2-1.394v-3.824h1.209v7.136Z" transform="translate(-6.962 -8.436)"/><path class="cls-3" d="M105.358,168.853l1.2-.188a1.672,1.672,0,0,0,.562,1.1,1.954,1.954,0,0,0,1.287.383,1.891,1.891,0,0,0,1.236-.339,1.016,1.016,0,0,0,.4-.8.735.735,0,0,0-.356-.645,5.251,5.251,0,0,0-1.236-.41,11.251,11.251,0,0,1-1.844-.581,1.759,1.759,0,0,1-1.045-1.636,1.838,1.838,0,0,1,.218-.883,1.963,1.963,0,0,1,.595-.676,2.49,2.49,0,0,1,.77-.353,3.662,3.662,0,0,1,1.045-.145,4.122,4.122,0,0,1,1.475.242,2.006,2.006,0,0,1,.938.655,2.562,2.562,0,0,1,.417,1.105l-1.183.161a1.294,1.294,0,0,0-.467-.86,1.709,1.709,0,0,0-1.092-.309,1.977,1.977,0,0,0-1.189.275.8.8,0,0,0-.356.645.668.668,0,0,0,.148.423,1.069,1.069,0,0,0,.464.323q.181.067,1.068.309a14.912,14.912,0,0,1,1.791.561,1.816,1.816,0,0,1,.8.635,1.774,1.774,0,0,1,.289,1.035,2.029,2.029,0,0,1-.353,1.139,2.283,2.283,0,0,1-1.018.827,3.706,3.706,0,0,1-1.5.292,3.353,3.353,0,0,1-2.12-.578A2.686,2.686,0,0,1,105.358,168.853Z" transform="translate(-6.962 -8.436)"/><path class="cls-3" d="M112.73,162.522v-1.391h1.209v1.391Zm0,8.46v-7.136h1.209v7.136Z" transform="translate(-6.962 -8.436)"/><path class="cls-3" d="M115.78,170.982v-7.136h1.088v1.015a2.566,2.566,0,0,1,2.271-1.176,2.974,2.974,0,0,1,1.186.232,1.866,1.866,0,0,1,.81.608,2.343,2.343,0,0,1,.376.894,6.9,6.9,0,0,1,.067,1.176v4.388H120.37v-4.341a3.27,3.27,0,0,0-.141-1.105,1.165,1.165,0,0,0-.5-.584,1.594,1.594,0,0,0-.843-.218,1.959,1.959,0,0,0-1.334.491,2.419,2.419,0,0,0-.561,1.861v3.9Z" transform="translate(-6.962 -8.436)"/><path class="cls-3" d="M128.318,168.685l1.25.154a3.052,3.052,0,0,1-1.1,1.7,3.711,3.711,0,0,1-4.525-.359,3.767,3.767,0,0,1-.917-2.7,3.943,3.943,0,0,1,.927-2.8,3.139,3.139,0,0,1,2.406-.995,3.05,3.05,0,0,1,2.338.975,3.871,3.871,0,0,1,.907,2.741q0,.108-.006.323H124.28a2.739,2.739,0,0,0,.665,1.8,1.981,1.981,0,0,0,1.492.625,1.852,1.852,0,0,0,1.136-.35A2.321,2.321,0,0,0,128.318,168.685Zm-3.971-1.956h3.985a2.417,2.417,0,0,0-.457-1.351,1.854,1.854,0,0,0-1.5-.7,1.922,1.922,0,0,0-1.4.558A2.21,2.21,0,0,0,124.347,166.729Z" transform="translate(-6.962 -8.436)"/><path class="cls-3" d="M130.6,168.853l1.2-.188a1.672,1.672,0,0,0,.562,1.1,1.954,1.954,0,0,0,1.287.383,1.891,1.891,0,0,0,1.236-.339,1.016,1.016,0,0,0,.4-.8.735.735,0,0,0-.356-.645,5.251,5.251,0,0,0-1.236-.41,11.251,11.251,0,0,1-1.844-.581,1.759,1.759,0,0,1-1.045-1.636,1.838,1.838,0,0,1,.218-.883,1.963,1.963,0,0,1,.595-.676,2.49,2.49,0,0,1,.77-.353,3.662,3.662,0,0,1,1.045-.145,4.122,4.122,0,0,1,1.475.242,2.006,2.006,0,0,1,.938.655,2.562,2.562,0,0,1,.417,1.105l-1.183.161a1.294,1.294,0,0,0-.467-.86,1.709,1.709,0,0,0-1.092-.309,1.977,1.977,0,0,0-1.189.275.8.8,0,0,0-.356.645.668.668,0,0,0,.148.423,1.069,1.069,0,0,0,.464.323q.181.067,1.068.309a14.912,14.912,0,0,1,1.791.561,1.816,1.816,0,0,1,.8.635,1.774,1.774,0,0,1,.289,1.035,2.029,2.029,0,0,1-.353,1.139,2.283,2.283,0,0,1-1.018.827,3.706,3.706,0,0,1-1.5.292,3.353,3.353,0,0,1-2.12-.578A2.686,2.686,0,0,1,130.6,168.853Z" transform="translate(-6.962 -8.436)"/><path class="cls-3" d="M137.484,168.853l1.2-.188a1.672,1.672,0,0,0,.562,1.1,1.954,1.954,0,0,0,1.287.383,1.891,1.891,0,0,0,1.236-.339,1.016,1.016,0,0,0,.4-.8.735.735,0,0,0-.356-.645,5.251,5.251,0,0,0-1.236-.41,11.251,11.251,0,0,1-1.844-.581,1.759,1.759,0,0,1-1.045-1.636,1.838,1.838,0,0,1,.218-.883,1.963,1.963,0,0,1,.595-.676,2.49,2.49,0,0,1,.77-.353,3.662,3.662,0,0,1,1.045-.145,4.122,4.122,0,0,1,1.475.242,2.006,2.006,0,0,1,.938.655,2.562,2.562,0,0,1,.417,1.105l-1.183.161a1.294,1.294,0,0,0-.467-.86,1.709,1.709,0,0,0-1.092-.309,1.977,1.977,0,0,0-1.189.275.8.8,0,0,0-.356.645.668.668,0,0,0,.148.423,1.069,1.069,0,0,0,.464.323q.181.067,1.068.309a14.912,14.912,0,0,1,1.791.561,1.816,1.816,0,0,1,.8.635,1.774,1.774,0,0,1,.289,1.035,2.029,2.029,0,0,1-.353,1.139,2.283,2.283,0,0,1-1.018.827,3.706,3.706,0,0,1-1.5.292,3.353,3.353,0,0,1-2.12-.578A2.686,2.686,0,0,1,137.484,168.853Z" transform="translate(-6.962 -8.436)"/><path class="cls-3" d="M153.328,170.1a4.5,4.5,0,0,1-1.293.807,3.737,3.737,0,0,1-1.333.235,2.6,2.6,0,0,1-1.808-.574,1.9,1.9,0,0,1-.632-1.468,1.989,1.989,0,0,1,.864-1.653,2.924,2.924,0,0,1,.87-.4,8.551,8.551,0,0,1,1.075-.182,11.045,11.045,0,0,0,2.157-.417q.007-.248.007-.316a1.335,1.335,0,0,0-.343-1.042,2.026,2.026,0,0,0-1.377-.41,2.137,2.137,0,0,0-1.26.3,1.825,1.825,0,0,0-.6,1.058l-1.183-.161a2.926,2.926,0,0,1,.531-1.226,2.327,2.327,0,0,1,1.068-.719,4.767,4.767,0,0,1,1.62-.252,4.281,4.281,0,0,1,1.485.215,1.953,1.953,0,0,1,.84.541,1.9,1.9,0,0,1,.376.823,6.841,6.841,0,0,1,.061,1.115v1.613a17.072,17.072,0,0,0,.077,2.133,2.679,2.679,0,0,0,.306.857H153.57A2.571,2.571,0,0,1,153.328,170.1Zm-.1-2.7a8.877,8.877,0,0,1-1.976.457,4.583,4.583,0,0,0-1.055.242,1.053,1.053,0,0,0-.477.393,1.069,1.069,0,0,0,.2,1.381,1.572,1.572,0,0,0,1.071.323,2.5,2.5,0,0,0,1.243-.306,1.886,1.886,0,0,0,.8-.837,2.921,2.921,0,0,0,.195-1.209Z" transform="translate(-6.962 -8.436)"/><path class="cls-3" d="M156.325,170.982v-7.136h1.088v1.015a2.566,2.566,0,0,1,2.271-1.176,2.974,2.974,0,0,1,1.186.232,1.866,1.866,0,0,1,.81.608,2.343,2.343,0,0,1,.376.894,6.9,6.9,0,0,1,.067,1.176v4.388h-1.209v-4.341a3.27,3.27,0,0,0-.141-1.105,1.165,1.165,0,0,0-.5-.584,1.594,1.594,0,0,0-.843-.218,1.959,1.959,0,0,0-1.334.491,2.419,2.419,0,0,0-.561,1.861v3.9Z" transform="translate(-6.962 -8.436)"/><path class="cls-3" d="M168.608,170.982v-.9a2.219,2.219,0,0,1-2,1.062,2.8,2.8,0,0,1-1.569-.47,3.1,3.1,0,0,1-1.109-1.313,4.547,4.547,0,0,1-.393-1.939,5.069,5.069,0,0,1,.356-1.938,2.806,2.806,0,0,1,1.068-1.333,2.855,2.855,0,0,1,1.592-.464,2.382,2.382,0,0,1,1.149.272,2.406,2.406,0,0,1,.82.709v-3.534h1.2v9.851Zm-3.823-3.562a3.1,3.1,0,0,0,.578,2.05,1.743,1.743,0,0,0,1.364.679,1.711,1.711,0,0,0,1.347-.648,2.991,2.991,0,0,0,.555-1.979,3.358,3.358,0,0,0-.564-2.15,1.736,1.736,0,0,0-1.391-.685,1.675,1.675,0,0,0-1.347.658A3.249,3.249,0,0,0,164.785,167.421Z" transform="translate(-6.962 -8.436)"/><path class="cls-3" d="M50.381,187.5V180.36H51.47v1.015a2.566,2.566,0,0,1,2.271-1.176,2.974,2.974,0,0,1,1.186.232,1.866,1.866,0,0,1,.81.608,2.343,2.343,0,0,1,.376.894,6.9,6.9,0,0,1,.067,1.176V187.5H54.971v-4.341a3.27,3.27,0,0,0-.141-1.105,1.165,1.165,0,0,0-.5-.584,1.594,1.594,0,0,0-.843-.218,1.959,1.959,0,0,0-1.334.491,2.419,2.419,0,0,0-.561,1.861v3.9Z" transform="translate(-6.962 -8.436)"/><path class="cls-3" d="M57.584,183.928a3.678,3.678,0,0,1,1.1-2.937,3.32,3.32,0,0,1,2.244-.793,3.2,3.2,0,0,1,2.406.964,3.668,3.668,0,0,1,.934,2.664,4.722,4.722,0,0,1-.413,2.167,2.924,2.924,0,0,1-1.2,1.227,3.5,3.5,0,0,1-1.724.437,3.207,3.207,0,0,1-2.422-.961A3.835,3.835,0,0,1,57.584,183.928Zm1.243,0a3.041,3.041,0,0,0,.6,2.053,1.991,1.991,0,0,0,3,0,3.113,3.113,0,0,0,.6-2.09,2.95,2.95,0,0,0-.6-2.006,2,2,0,0,0-3,0A3.028,3.028,0,0,0,58.828,183.928Z" transform="translate(-6.962 -8.436)"/><path class="cls-3" d="M68.329,186.414l.175,1.068a4.485,4.485,0,0,1-.914.108,2.069,2.069,0,0,1-1.021-.208,1.162,1.162,0,0,1-.511-.547,4.332,4.332,0,0,1-.148-1.428V181.3h-.887v-.941h.887v-1.767l1.2-.726v2.493h1.216v.941H67.112v4.173a2.107,2.107,0,0,0,.064.665.5.5,0,0,0,.208.235.8.8,0,0,0,.413.087A3.885,3.885,0,0,0,68.329,186.414Z" transform="translate(-6.962 -8.436)"/><path class="cls-3" d="M73.341,179.036v-1.391h1.209v1.391Zm0,8.46V180.36h1.209V187.5Z" transform="translate(-6.962 -8.436)"/><path class="cls-3" d="M76.392,187.5V180.36H77.48v1.015a2.566,2.566,0,0,1,2.271-1.176,2.974,2.974,0,0,1,1.186.232,1.866,1.866,0,0,1,.81.608,2.343,2.343,0,0,1,.376.894,6.9,6.9,0,0,1,.067,1.176V187.5H80.981v-4.341a3.27,3.27,0,0,0-.141-1.105,1.165,1.165,0,0,0-.5-.584,1.594,1.594,0,0,0-.843-.218,1.959,1.959,0,0,0-1.334.491A2.419,2.419,0,0,0,77.6,183.6v3.9Z" transform="translate(-6.962 -8.436)"/><path class="cls-3" d="M90.509,186.414l.175,1.068a4.485,4.485,0,0,1-.914.108,2.069,2.069,0,0,1-1.021-.208,1.162,1.162,0,0,1-.511-.547,4.332,4.332,0,0,1-.148-1.428V181.3H87.2v-.941h.887v-1.767l1.2-.726v2.493h1.216v.941H89.292v4.173a2.107,2.107,0,0,0,.064.665.5.5,0,0,0,.208.235.8.8,0,0,0,.413.087A3.885,3.885,0,0,0,90.509,186.414Z" transform="translate(-6.962 -8.436)"/><path class="cls-3" d="M91.691,187.5v-9.851H92.9v3.534a2.7,2.7,0,0,1,2.137-.981,2.879,2.879,0,0,1,1.377.313,1.836,1.836,0,0,1,.836.863,3.983,3.983,0,0,1,.252,1.6V187.5H96.294v-4.522a1.869,1.869,0,0,0-.393-1.321,1.461,1.461,0,0,0-1.112-.413,1.963,1.963,0,0,0-1.011.279,1.575,1.575,0,0,0-.675.756,3.467,3.467,0,0,0-.2,1.317v3.9Z" transform="translate(-6.962 -8.436)"/><path class="cls-3" d="M104.229,185.2l1.25.154a3.052,3.052,0,0,1-1.1,1.7,3.711,3.711,0,0,1-4.525-.359,3.767,3.767,0,0,1-.917-2.7,3.943,3.943,0,0,1,.927-2.8,3.139,3.139,0,0,1,2.406-.995,3.05,3.05,0,0,1,2.338.975,3.871,3.871,0,0,1,.907,2.741q0,.108-.006.323h-5.322a2.739,2.739,0,0,0,.665,1.8,1.981,1.981,0,0,0,1.492.625,1.852,1.852,0,0,0,1.136-.35A2.321,2.321,0,0,0,104.229,185.2Zm-3.971-1.956h3.985a2.417,2.417,0,0,0-.457-1.351,1.854,1.854,0,0,0-1.5-.7,1.922,1.922,0,0,0-1.4.558A2.21,2.21,0,0,0,100.258,183.243Z" transform="translate(-6.962 -8.436)"/><path class="cls-3" d="M111.937,187.5h-1.122v-9.851h1.209v3.514a2.394,2.394,0,0,1,1.956-.961,2.989,2.989,0,0,1,1.246.266,2.541,2.541,0,0,1,.968.746,3.617,3.617,0,0,1,.595,1.159,4.79,4.79,0,0,1,.215,1.452,4.075,4.075,0,0,1-.907,2.835,2.836,2.836,0,0,1-2.177,1,2.273,2.273,0,0,1-1.982-1.055Zm-.013-3.622a3.7,3.7,0,0,0,.349,1.854,1.729,1.729,0,0,0,2.917.245,3.13,3.13,0,0,0,.578-2.053,3.184,3.184,0,0,0-.554-2.063,1.689,1.689,0,0,0-1.341-.665,1.74,1.74,0,0,0-1.371.688A3.025,3.025,0,0,0,111.923,183.875Z" transform="translate(-6.962 -8.436)"/><path class="cls-3" d="M123.151,187.5v-1.048a2.612,2.612,0,0,1-2.265,1.209,2.889,2.889,0,0,1-1.179-.242,1.935,1.935,0,0,1-.813-.608,2.272,2.272,0,0,1-.373-.9,6.138,6.138,0,0,1-.074-1.129V180.36h1.209v3.958a7.061,7.061,0,0,0,.074,1.277,1.261,1.261,0,0,0,.484.749,1.5,1.5,0,0,0,.914.272,1.988,1.988,0,0,0,1.021-.279,1.546,1.546,0,0,0,.675-.759,3.806,3.806,0,0,0,.2-1.394V180.36h1.209V187.5Z" transform="translate(-6.962 -8.436)"/><path class="cls-3" d="M125.644,185.366l1.2-.188a1.672,1.672,0,0,0,.562,1.1,1.954,1.954,0,0,0,1.287.383,1.891,1.891,0,0,0,1.236-.339,1.016,1.016,0,0,0,.4-.8.735.735,0,0,0-.356-.645,5.251,5.251,0,0,0-1.236-.41,11.251,11.251,0,0,1-1.844-.581,1.759,1.759,0,0,1-1.045-1.636,1.838,1.838,0,0,1,.218-.883,1.963,1.963,0,0,1,.595-.676,2.49,2.49,0,0,1,.77-.353,3.662,3.662,0,0,1,1.045-.145,4.122,4.122,0,0,1,1.475.242,2.006,2.006,0,0,1,.938.655,2.562,2.562,0,0,1,.417,1.105l-1.183.161a1.294,1.294,0,0,0-.467-.86,1.709,1.709,0,0,0-1.092-.309,1.977,1.977,0,0,0-1.189.275.8.8,0,0,0-.356.645.668.668,0,0,0,.148.423,1.069,1.069,0,0,0,.464.323q.181.067,1.068.309a14.912,14.912,0,0,1,1.791.561,1.816,1.816,0,0,1,.8.635,1.774,1.774,0,0,1,.289,1.035,2.029,2.029,0,0,1-.353,1.139,2.283,2.283,0,0,1-1.018.827,3.706,3.706,0,0,1-1.5.292,3.353,3.353,0,0,1-2.12-.578A2.686,2.686,0,0,1,125.644,185.366Z" transform="translate(-6.962 -8.436)"/><path class="cls-3" d="M133.016,179.036v-1.391h1.209v1.391Zm0,8.46V180.36h1.209V187.5Z" transform="translate(-6.962 -8.436)"/><path class="cls-3" d="M136.066,187.5V180.36h1.088v1.015a2.566,2.566,0,0,1,2.271-1.176,2.974,2.974,0,0,1,1.186.232,1.866,1.866,0,0,1,.81.608,2.343,2.343,0,0,1,.376.894,6.9,6.9,0,0,1,.067,1.176V187.5h-1.209v-4.341a3.27,3.27,0,0,0-.141-1.105,1.165,1.165,0,0,0-.5-.584,1.594,1.594,0,0,0-.843-.218,1.959,1.959,0,0,0-1.334.491,2.419,2.419,0,0,0-.561,1.861v3.9Z" transform="translate(-6.962 -8.436)"/><path class="cls-3" d="M148.6,185.2l1.25.154a3.052,3.052,0,0,1-1.1,1.7,3.711,3.711,0,0,1-4.525-.359,3.767,3.767,0,0,1-.917-2.7,3.943,3.943,0,0,1,.927-2.8,3.139,3.139,0,0,1,2.406-.995,3.05,3.05,0,0,1,2.338.975,3.871,3.871,0,0,1,.907,2.741q0,.108-.006.323h-5.322a2.739,2.739,0,0,0,.665,1.8,1.981,1.981,0,0,0,1.492.625,1.852,1.852,0,0,0,1.136-.35A2.321,2.321,0,0,0,148.6,185.2Zm-3.971-1.956h3.985a2.417,2.417,0,0,0-.457-1.351,1.854,1.854,0,0,0-1.5-.7,1.922,1.922,0,0,0-1.4.558A2.21,2.21,0,0,0,144.633,183.243Z" transform="translate(-6.962 -8.436)"/><path class="cls-3" d="M150.889,185.366l1.2-.188a1.672,1.672,0,0,0,.562,1.1,1.954,1.954,0,0,0,1.287.383,1.891,1.891,0,0,0,1.236-.339,1.016,1.016,0,0,0,.4-.8.735.735,0,0,0-.356-.645,5.251,5.251,0,0,0-1.236-.41,11.251,11.251,0,0,1-1.844-.581,1.759,1.759,0,0,1-1.045-1.636,1.838,1.838,0,0,1,.218-.883,1.963,1.963,0,0,1,.595-.676,2.49,2.49,0,0,1,.77-.353,3.662,3.662,0,0,1,1.045-.145,4.122,4.122,0,0,1,1.475.242,2.006,2.006,0,0,1,.938.655,2.562,2.562,0,0,1,.417,1.105l-1.183.161a1.294,1.294,0,0,0-.467-.86,1.709,1.709,0,0,0-1.092-.309,1.977,1.977,0,0,0-1.189.275.8.8,0,0,0-.356.645.668.668,0,0,0,.148.423,1.069,1.069,0,0,0,.464.323q.181.067,1.068.309a14.912,14.912,0,0,1,1.791.561,1.816,1.816,0,0,1,.8.635,1.774,1.774,0,0,1,.289,1.035,2.029,2.029,0,0,1-.353,1.139,2.283,2.283,0,0,1-1.018.827,3.706,3.706,0,0,1-1.5.292,3.353,3.353,0,0,1-2.12-.578A2.686,2.686,0,0,1,150.889,185.366Z" transform="translate(-6.962 -8.436)"/><path class="cls-3" d="M157.77,185.366l1.2-.188a1.672,1.672,0,0,0,.562,1.1,1.954,1.954,0,0,0,1.287.383,1.891,1.891,0,0,0,1.236-.339,1.016,1.016,0,0,0,.4-.8.735.735,0,0,0-.356-.645,5.251,5.251,0,0,0-1.236-.41,11.251,11.251,0,0,1-1.844-.581,1.759,1.759,0,0,1-1.045-1.636,1.838,1.838,0,0,1,.218-.883,1.963,1.963,0,0,1,.595-.676,2.49,2.49,0,0,1,.77-.353,3.662,3.662,0,0,1,1.045-.145,4.122,4.122,0,0,1,1.475.242,2.006,2.006,0,0,1,.938.655,2.562,2.562,0,0,1,.417,1.105l-1.183.161a1.294,1.294,0,0,0-.467-.86,1.709,1.709,0,0,0-1.092-.309,1.977,1.977,0,0,0-1.189.275.8.8,0,0,0-.356.645.668.668,0,0,0,.148.423,1.069,1.069,0,0,0,.464.323q.181.067,1.068.309a14.912,14.912,0,0,1,1.791.561,1.816,1.816,0,0,1,.8.635,1.774,1.774,0,0,1,.289,1.035,2.029,2.029,0,0,1-.353,1.139,2.283,2.283,0,0,1-1.018.827,3.706,3.706,0,0,1-1.5.292,3.353,3.353,0,0,1-2.12-.578A2.686,2.686,0,0,1,157.77,185.366Z" transform="translate(-6.962 -8.436)"/><path class="cls-3" d="M165.927,190.392h-.867a12.126,12.126,0,0,0,2.009-6.458,11.027,11.027,0,0,0-.289-2.506,10.56,10.56,0,0,0-.638-1.935,22.658,22.658,0,0,0-1.082-2.016h.867a12.883,12.883,0,0,1,1.868,3.387,9.255,9.255,0,0,1-.178,6.571A12.327,12.327,0,0,1,165.927,190.392Z" transform="translate(-6.962 -8.436)"/><path class="cls-3" d="M213.561,49.393V39.542h3.7a4.579,4.579,0,0,1,1.811.3,2.332,2.332,0,0,1,1.068.921,2.427,2.427,0,0,1,.386,1.3,2.232,2.232,0,0,1-.343,1.189,2.445,2.445,0,0,1-1.035.9,2.574,2.574,0,0,1,1.374.894,2.394,2.394,0,0,1,.48,1.492,2.88,2.88,0,0,1-.292,1.287,2.489,2.489,0,0,1-.722.917,3.009,3.009,0,0,1-1.079.487,6.552,6.552,0,0,1-1.589.165Zm1.3-5.711h2.13a4.752,4.752,0,0,0,1.243-.114,1.384,1.384,0,0,0,.75-.491,1.413,1.413,0,0,0,.252-.86,1.584,1.584,0,0,0-.235-.863,1.189,1.189,0,0,0-.672-.511,5.618,5.618,0,0,0-1.5-.138h-1.969Zm0,4.549h2.453a5.66,5.66,0,0,0,.887-.047,2.125,2.125,0,0,0,.753-.269,1.425,1.425,0,0,0,.5-.547,1.714,1.714,0,0,0,.195-.83,1.639,1.639,0,0,0-.282-.958,1.489,1.489,0,0,0-.783-.571,4.853,4.853,0,0,0-1.441-.165h-2.278Z" transform="translate(-6.962 -8.436)"/><path class="cls-3" d="M227.315,49.393V48.345a2.612,2.612,0,0,1-2.265,1.209,2.889,2.889,0,0,1-1.179-.242,1.935,1.935,0,0,1-.813-.608,2.272,2.272,0,0,1-.373-.9,6.138,6.138,0,0,1-.074-1.129V42.257h1.209v3.958a7.061,7.061,0,0,0,.074,1.277,1.261,1.261,0,0,0,.484.749,1.5,1.5,0,0,0,.914.272,1.988,1.988,0,0,0,1.021-.279,1.546,1.546,0,0,0,.675-.759,3.806,3.806,0,0,0,.2-1.394V42.257H228.4v7.136Z" transform="translate(-6.962 -8.436)"/><path class="cls-3" d="M229.808,47.263l1.2-.188a1.672,1.672,0,0,0,.562,1.1,1.954,1.954,0,0,0,1.287.383,1.891,1.891,0,0,0,1.236-.339,1.016,1.016,0,0,0,.4-.8.735.735,0,0,0-.356-.645,5.251,5.251,0,0,0-1.236-.41,11.251,11.251,0,0,1-1.844-.581,1.759,1.759,0,0,1-1.045-1.636,1.838,1.838,0,0,1,.218-.883,1.963,1.963,0,0,1,.595-.676,2.49,2.49,0,0,1,.77-.353,3.662,3.662,0,0,1,1.045-.145,4.122,4.122,0,0,1,1.475.242,2.006,2.006,0,0,1,.938.655,2.562,2.562,0,0,1,.417,1.105l-1.183.161a1.294,1.294,0,0,0-.467-.86,1.709,1.709,0,0,0-1.092-.309,1.977,1.977,0,0,0-1.189.275.8.8,0,0,0-.356.645.668.668,0,0,0,.148.423,1.069,1.069,0,0,0,.464.323q.181.067,1.068.309a14.912,14.912,0,0,1,1.791.561,1.816,1.816,0,0,1,.8.635,1.774,1.774,0,0,1,.289,1.035,2.029,2.029,0,0,1-.353,1.139,2.283,2.283,0,0,1-1.018.827,3.706,3.706,0,0,1-1.5.292,3.353,3.353,0,0,1-2.12-.578A2.686,2.686,0,0,1,229.808,47.263Z" transform="translate(-6.962 -8.436)"/><path class="cls-3" d="M237.18,40.933V39.542h1.209v1.391Zm0,8.46V42.257h1.209v7.136Z" transform="translate(-6.962 -8.436)"/><path class="cls-3" d="M240.23,49.393V42.257h1.089v1.015A2.563,2.563,0,0,1,243.59,42.1a2.978,2.978,0,0,1,1.187.232,1.87,1.87,0,0,1,.81.608,2.336,2.336,0,0,1,.376.894,6.9,6.9,0,0,1,.067,1.176v4.388h-1.21V45.052a3.272,3.272,0,0,0-.141-1.105,1.159,1.159,0,0,0-.5-.584,1.591,1.591,0,0,0-.843-.218,1.959,1.959,0,0,0-1.334.491,2.419,2.419,0,0,0-.562,1.861v3.9Z" transform="translate(-6.962 -8.436)"/><path class="cls-3" d="M252.769,47.1l1.25.154a3.05,3.05,0,0,1-1.1,1.7,3.711,3.711,0,0,1-4.525-.359,3.769,3.769,0,0,1-.917-2.7,3.944,3.944,0,0,1,.928-2.8,3.138,3.138,0,0,1,2.405-.995,3.048,3.048,0,0,1,2.338.975,3.867,3.867,0,0,1,.907,2.741c0,.072,0,.179-.007.323H248.73a2.744,2.744,0,0,0,.665,1.8,1.98,1.98,0,0,0,1.492.625,1.849,1.849,0,0,0,1.135-.35A2.321,2.321,0,0,0,252.769,47.1ZM248.8,45.14h3.984a2.417,2.417,0,0,0-.457-1.351,1.854,1.854,0,0,0-1.5-.7,1.923,1.923,0,0,0-1.4.558A2.2,2.2,0,0,0,248.8,45.14Z" transform="translate(-6.962 -8.436)"/><path class="cls-3" d="M255.053,47.263l1.2-.188a1.674,1.674,0,0,0,.562,1.1,1.954,1.954,0,0,0,1.286.383,1.89,1.89,0,0,0,1.236-.339,1.013,1.013,0,0,0,.4-.8.734.734,0,0,0-.355-.645,5.269,5.269,0,0,0-1.236-.41,11.228,11.228,0,0,1-1.845-.581,1.761,1.761,0,0,1-1.045-1.636,1.827,1.827,0,0,1,.219-.883,1.97,1.97,0,0,1,.594-.676,2.506,2.506,0,0,1,.77-.353,3.664,3.664,0,0,1,1.045-.145,4.126,4.126,0,0,1,1.476.242,2,2,0,0,1,.937.655,2.556,2.556,0,0,1,.417,1.105l-1.183.161a1.292,1.292,0,0,0-.467-.86,1.709,1.709,0,0,0-1.092-.309,1.978,1.978,0,0,0-1.189.275.8.8,0,0,0-.356.645.668.668,0,0,0,.148.423,1.065,1.065,0,0,0,.463.323q.182.067,1.068.309a14.9,14.9,0,0,1,1.791.561,1.815,1.815,0,0,1,.8.635,1.767,1.767,0,0,1,.289,1.035,2.029,2.029,0,0,1-.353,1.139,2.282,2.282,0,0,1-1.018.827,3.71,3.71,0,0,1-1.506.292,3.355,3.355,0,0,1-2.12-.578A2.692,2.692,0,0,1,255.053,47.263Z" transform="translate(-6.962 -8.436)"/><path class="cls-3" d="M261.934,47.263l1.2-.188a1.674,1.674,0,0,0,.562,1.1,1.954,1.954,0,0,0,1.286.383,1.89,1.89,0,0,0,1.236-.339,1.013,1.013,0,0,0,.4-.8.734.734,0,0,0-.355-.645,5.269,5.269,0,0,0-1.236-.41,11.228,11.228,0,0,1-1.845-.581,1.761,1.761,0,0,1-1.045-1.636,1.827,1.827,0,0,1,.219-.883,1.97,1.97,0,0,1,.594-.676,2.506,2.506,0,0,1,.77-.353,3.664,3.664,0,0,1,1.045-.145,4.126,4.126,0,0,1,1.476.242,2,2,0,0,1,.937.655,2.556,2.556,0,0,1,.417,1.105l-1.183.161a1.292,1.292,0,0,0-.467-.86,1.709,1.709,0,0,0-1.092-.309,1.978,1.978,0,0,0-1.189.275.8.8,0,0,0-.356.645.668.668,0,0,0,.148.423,1.065,1.065,0,0,0,.463.323q.182.067,1.068.309a14.9,14.9,0,0,1,1.791.561,1.815,1.815,0,0,1,.8.635,1.767,1.767,0,0,1,.289,1.035,2.029,2.029,0,0,1-.353,1.139,2.282,2.282,0,0,1-1.018.827,3.71,3.71,0,0,1-1.506.292,3.355,3.355,0,0,1-2.12-.578A2.692,2.692,0,0,1,261.934,47.263Z" transform="translate(-6.962 -8.436)"/><path class="cls-3" d="M272.88,44.6a5.353,5.353,0,0,1,1.317-3.84,4.476,4.476,0,0,1,3.4-1.388,4.717,4.717,0,0,1,2.46.652,4.268,4.268,0,0,1,1.67,1.817,5.906,5.906,0,0,1,.574,2.644,5.814,5.814,0,0,1-.6,2.681,4.132,4.132,0,0,1-1.714,1.791,4.9,4.9,0,0,1-2.392.608,4.657,4.657,0,0,1-2.486-.672,4.321,4.321,0,0,1-1.66-1.834A5.563,5.563,0,0,1,272.88,44.6Zm1.344.021a3.945,3.945,0,0,0,.958,2.805,3.339,3.339,0,0,0,4.824-.01,4.183,4.183,0,0,0,.951-2.936,5.041,5.041,0,0,0-.407-2.1,3.119,3.119,0,0,0-1.188-1.391,3.226,3.226,0,0,0-1.758-.494,3.332,3.332,0,0,0-2.382.951A4.249,4.249,0,0,0,274.224,44.616Z" transform="translate(-6.962 -8.436)"/><path class="cls-3" d="M285.144,49.393l-2.185-7.136h1.25l1.136,4.119.423,1.532q.028-.114.37-1.472l1.136-4.18h1.243l1.068,4.139.355,1.364.41-1.377,1.223-4.126h1.176l-2.23,7.136h-1.257l-1.135-4.273-.276-1.216-1.444,5.49Z" transform="translate(-6.962 -8.436)"/><path class="cls-3" d="M293.765,49.393V42.257h1.089v1.015a2.563,2.563,0,0,1,2.271-1.176,2.978,2.978,0,0,1,1.187.232,1.87,1.87,0,0,1,.81.608,2.336,2.336,0,0,1,.376.894,6.9,6.9,0,0,1,.067,1.176v4.388h-1.21V45.052a3.272,3.272,0,0,0-.141-1.105,1.159,1.159,0,0,0-.5-.584,1.591,1.591,0,0,0-.843-.218,1.959,1.959,0,0,0-1.334.491,2.419,2.419,0,0,0-.562,1.861v3.9Z" transform="translate(-6.962 -8.436)"/><path class="cls-3" d="M306.3,47.1l1.25.154a3.05,3.05,0,0,1-1.1,1.7,3.711,3.711,0,0,1-4.525-.359,3.769,3.769,0,0,1-.917-2.7,3.944,3.944,0,0,1,.928-2.8,3.138,3.138,0,0,1,2.405-.995,3.048,3.048,0,0,1,2.338.975,3.867,3.867,0,0,1,.907,2.741c0,.072,0,.179-.007.323h-5.321a2.744,2.744,0,0,0,.665,1.8,1.98,1.98,0,0,0,1.492.625,1.849,1.849,0,0,0,1.135-.35A2.321,2.321,0,0,0,306.3,47.1Zm-3.971-1.956h3.984a2.417,2.417,0,0,0-.457-1.351,1.854,1.854,0,0,0-1.5-.7,1.923,1.923,0,0,0-1.4.558A2.2,2.2,0,0,0,302.332,45.14Z" transform="translate(-6.962 -8.436)"/><path class="cls-3" d="M309.058,49.393V42.257h1.089v1.082a2.941,2.941,0,0,1,.77-1,1.337,1.337,0,0,1,.775-.242,2.358,2.358,0,0,1,1.243.39l-.416,1.122a1.736,1.736,0,0,0-.888-.262,1.155,1.155,0,0,0-.712.238,1.293,1.293,0,0,0-.45.662,4.7,4.7,0,0,0-.2,1.411v3.736Z" transform="translate(-6.962 -8.436)"/><path class="cls-3" d="M379.87,154.469v-9.851h7.122v1.163h-5.818V148.8h5.449v1.156h-5.449v3.353h6.047v1.163Z" transform="translate(-6.962 -8.436)"/><path class="cls-3" d="M388.867,154.469v-7.136h1.082v1a2.537,2.537,0,0,1,.894-.843,2.509,2.509,0,0,1,1.27-.319,2.354,2.354,0,0,1,1.3.329,1.764,1.764,0,0,1,.715.921,2.562,2.562,0,0,1,2.2-1.25,2.173,2.173,0,0,1,1.633.588,2.513,2.513,0,0,1,.571,1.811v4.9h-1.2v-4.5a3.314,3.314,0,0,0-.118-1.045,1.011,1.011,0,0,0-.427-.514,1.333,1.333,0,0,0-.726-.195,1.691,1.691,0,0,0-1.25.5,2.207,2.207,0,0,0-.5,1.6v4.146h-1.209v-4.636a2.038,2.038,0,0,0-.3-1.209,1.119,1.119,0,0,0-.968-.4,1.762,1.762,0,0,0-.944.269,1.524,1.524,0,0,0-.628.786,4.426,4.426,0,0,0-.2,1.492v3.7Z" transform="translate(-6.962 -8.436)"/><path class="cls-3" d="M400.33,157.2v-9.871h1.1v.927a2.719,2.719,0,0,1,.881-.816,2.417,2.417,0,0,1,1.189-.272,2.821,2.821,0,0,1,1.612.47,2.89,2.89,0,0,1,1.055,1.327,4.849,4.849,0,0,1,.356,1.878,4.762,4.762,0,0,1-.394,1.972,2.986,2.986,0,0,1-2.718,1.811,2.273,2.273,0,0,1-1.085-.255,2.47,2.47,0,0,1-.79-.645V157.2Zm1.095-6.263a3.1,3.1,0,0,0,.559,2.036,1.709,1.709,0,0,0,1.351.659,1.751,1.751,0,0,0,1.381-.682,3.237,3.237,0,0,0,.574-2.113,3.154,3.154,0,0,0-.562-2.043,1.688,1.688,0,0,0-1.34-.678,1.743,1.743,0,0,0-1.368.722A3.231,3.231,0,0,0,401.425,150.941Z" transform="translate(-6.962 -8.436)"/><path class="cls-3" d="M407.956,154.469v-9.851h1.21v9.851Z" transform="translate(-6.962 -8.436)"/><path class="cls-3" d="M410.591,150.9a3.679,3.679,0,0,1,1.1-2.937,3.324,3.324,0,0,1,2.244-.793,3.2,3.2,0,0,1,2.406.964,3.67,3.67,0,0,1,.934,2.664,4.722,4.722,0,0,1-.413,2.167,2.925,2.925,0,0,1-1.2,1.227,3.5,3.5,0,0,1-1.724.437,3.208,3.208,0,0,1-2.422-.961A3.835,3.835,0,0,1,410.591,150.9Zm1.243,0a3.041,3.041,0,0,0,.6,2.053,1.991,1.991,0,0,0,3,0,3.113,3.113,0,0,0,.6-2.09,2.947,2.947,0,0,0-.6-2.006,1.995,1.995,0,0,0-3,0A3.028,3.028,0,0,0,411.834,150.9Z" transform="translate(-6.962 -8.436)"/><path class="cls-3" d="M418.641,157.217l-.135-1.135a2.715,2.715,0,0,0,.692.107,1.329,1.329,0,0,0,.645-.134,1.092,1.092,0,0,0,.4-.376,5.876,5.876,0,0,0,.37-.9c.022-.067.058-.166.107-.3l-2.708-7.15h1.3l1.485,4.133q.289.786.517,1.653a16.035,16.035,0,0,1,.5-1.626l1.524-4.16h1.21l-2.715,7.257a14.228,14.228,0,0,1-.679,1.619,2.381,2.381,0,0,1-.739.877,1.744,1.744,0,0,1-.994.279A2.415,2.415,0,0,1,418.641,157.217Z" transform="translate(-6.962 -8.436)"/><path class="cls-3" d="M430.46,152.171l1.25.154a3.05,3.05,0,0,1-1.1,1.7,3.711,3.711,0,0,1-4.525-.359,3.769,3.769,0,0,1-.917-2.7,3.944,3.944,0,0,1,.928-2.8,3.138,3.138,0,0,1,2.405-.995,3.048,3.048,0,0,1,2.338.975,3.867,3.867,0,0,1,.907,2.741c0,.072,0,.179-.007.323h-5.321a2.744,2.744,0,0,0,.665,1.8,1.98,1.98,0,0,0,1.492.625,1.849,1.849,0,0,0,1.135-.35A2.321,2.321,0,0,0,430.46,152.171Zm-3.971-1.956h3.984a2.417,2.417,0,0,0-.457-1.351,1.854,1.854,0,0,0-1.5-.7,1.923,1.923,0,0,0-1.4.558A2.2,2.2,0,0,0,426.489,150.215Z" transform="translate(-6.962 -8.436)"/><path class="cls-3" d="M438.113,152.171l1.25.154a3.05,3.05,0,0,1-1.1,1.7,3.711,3.711,0,0,1-4.525-.359,3.769,3.769,0,0,1-.917-2.7,3.944,3.944,0,0,1,.928-2.8,3.138,3.138,0,0,1,2.405-.995,3.048,3.048,0,0,1,2.338.975,3.867,3.867,0,0,1,.907,2.741c0,.072,0,.179-.007.323h-5.321a2.744,2.744,0,0,0,.665,1.8,1.98,1.98,0,0,0,1.492.625,1.849,1.849,0,0,0,1.135-.35A2.321,2.321,0,0,0,438.113,152.171Zm-3.971-1.956h3.984a2.417,2.417,0,0,0-.457-1.351,1.854,1.854,0,0,0-1.5-.7,1.923,1.923,0,0,0-1.4.558A2.2,2.2,0,0,0,434.143,150.215Z" transform="translate(-6.962 -8.436)"/><path class="cls-3" d="M440.4,152.339l1.2-.188a1.674,1.674,0,0,0,.562,1.1,1.954,1.954,0,0,0,1.286.383,1.89,1.89,0,0,0,1.236-.339,1.013,1.013,0,0,0,.4-.8.734.734,0,0,0-.355-.645,5.269,5.269,0,0,0-1.236-.41,11.228,11.228,0,0,1-1.845-.581,1.761,1.761,0,0,1-1.045-1.636,1.827,1.827,0,0,1,.219-.883,1.97,1.97,0,0,1,.594-.676,2.506,2.506,0,0,1,.77-.353,3.664,3.664,0,0,1,1.045-.145,4.126,4.126,0,0,1,1.476.242,2,2,0,0,1,.937.655,2.556,2.556,0,0,1,.417,1.105l-1.183.161a1.292,1.292,0,0,0-.467-.86,1.709,1.709,0,0,0-1.092-.309,1.978,1.978,0,0,0-1.189.275.8.8,0,0,0-.356.645.668.668,0,0,0,.148.423,1.065,1.065,0,0,0,.463.323q.182.067,1.068.309a14.9,14.9,0,0,1,1.791.561,1.815,1.815,0,0,1,.8.635,1.767,1.767,0,0,1,.289,1.035,2.029,2.029,0,0,1-.353,1.139,2.282,2.282,0,0,1-1.018.827,3.71,3.71,0,0,1-1.506.292,3.355,3.355,0,0,1-2.12-.578A2.692,2.692,0,0,1,440.4,152.339Z" transform="translate(-6.962 -8.436)"/><path class="cls-3" d="M354.461,173.878a12.062,12.062,0,0,1-1.693-2.957,9.275,9.275,0,0,1-.175-6.571,12.871,12.871,0,0,1,1.868-3.387h.866q-.813,1.4-1.074,2a10.925,10.925,0,0,0-.646,1.935,11.257,11.257,0,0,0-.289,2.526,12.129,12.129,0,0,0,2.009,6.458Z" transform="translate(-6.962 -8.436)"/><path class="cls-3" d="M356.739,170.982v-9.851h1.209v5.617l2.862-2.9h1.566l-2.729,2.647,3,4.489H361.16l-2.358-3.648-.854.819v2.829Z" transform="translate(-6.962 -8.436)"/><path class="cls-3" d="M368.5,168.685l1.25.154a3.05,3.05,0,0,1-1.1,1.7,3.711,3.711,0,0,1-4.525-.359,3.769,3.769,0,0,1-.917-2.7,3.944,3.944,0,0,1,.928-2.8,3.138,3.138,0,0,1,2.405-.995,3.048,3.048,0,0,1,2.338.975,3.867,3.867,0,0,1,.907,2.741c0,.072,0,.179-.007.323H364.46a2.744,2.744,0,0,0,.665,1.8,1.98,1.98,0,0,0,1.492.625,1.849,1.849,0,0,0,1.135-.35A2.321,2.321,0,0,0,368.5,168.685Zm-3.971-1.956h3.984a2.417,2.417,0,0,0-.457-1.351,1.854,1.854,0,0,0-1.5-.7,1.923,1.923,0,0,0-1.4.558A2.2,2.2,0,0,0,364.527,166.729Z" transform="translate(-6.962 -8.436)"/><path class="cls-3" d="M371.213,173.73l-.135-1.135a2.715,2.715,0,0,0,.692.107,1.329,1.329,0,0,0,.645-.134,1.092,1.092,0,0,0,.4-.376,5.876,5.876,0,0,0,.37-.9c.022-.067.058-.166.107-.3l-2.708-7.15h1.3l1.485,4.133q.289.786.517,1.653a16.035,16.035,0,0,1,.5-1.626l1.524-4.16h1.21L374.4,171.1a14.228,14.228,0,0,1-.679,1.619,2.381,2.381,0,0,1-.739.877,1.744,1.744,0,0,1-.994.279A2.415,2.415,0,0,1,371.213,173.73Z" transform="translate(-6.962 -8.436)"/><path class="cls-3" d="M386.855,168.685l1.25.154a3.05,3.05,0,0,1-1.1,1.7,3.711,3.711,0,0,1-4.525-.359,3.769,3.769,0,0,1-.917-2.7,3.944,3.944,0,0,1,.928-2.8,3.138,3.138,0,0,1,2.405-.995,3.048,3.048,0,0,1,2.338.975,3.867,3.867,0,0,1,.907,2.741c0,.072,0,.179-.007.323h-5.321a2.744,2.744,0,0,0,.665,1.8,1.98,1.98,0,0,0,1.492.625,1.849,1.849,0,0,0,1.135-.35A2.321,2.321,0,0,0,386.855,168.685Zm-3.971-1.956h3.984a2.417,2.417,0,0,0-.457-1.351,1.854,1.854,0,0,0-1.5-.7,1.923,1.923,0,0,0-1.4.558A2.2,2.2,0,0,0,382.885,166.729Z" transform="translate(-6.962 -8.436)"/><path class="cls-3" d="M389.624,170.982v-7.136h1.082v1A2.537,2.537,0,0,1,391.6,164a2.509,2.509,0,0,1,1.27-.319,2.354,2.354,0,0,1,1.3.329,1.764,1.764,0,0,1,.715.921,2.562,2.562,0,0,1,2.2-1.25,2.173,2.173,0,0,1,1.633.588,2.513,2.513,0,0,1,.571,1.811v4.9h-1.2v-4.5a3.314,3.314,0,0,0-.118-1.045,1.011,1.011,0,0,0-.427-.514,1.333,1.333,0,0,0-.726-.195,1.691,1.691,0,0,0-1.25.5,2.207,2.207,0,0,0-.5,1.6v4.146h-1.209v-4.636a2.038,2.038,0,0,0-.3-1.209,1.119,1.119,0,0,0-.968-.4,1.762,1.762,0,0,0-.944.269,1.524,1.524,0,0,0-.628.786,4.426,4.426,0,0,0-.2,1.492v3.7Z" transform="translate(-6.962 -8.436)"/><path class="cls-3" d="M401.087,173.717v-9.871h1.1v.927a2.719,2.719,0,0,1,.881-.816,2.417,2.417,0,0,1,1.189-.272,2.821,2.821,0,0,1,1.612.47,2.89,2.89,0,0,1,1.055,1.327,4.849,4.849,0,0,1,.356,1.878,4.762,4.762,0,0,1-.394,1.972,2.986,2.986,0,0,1-2.718,1.811,2.273,2.273,0,0,1-1.085-.255,2.47,2.47,0,0,1-.79-.645v3.474Zm1.095-6.263a3.1,3.1,0,0,0,.559,2.036,1.709,1.709,0,0,0,1.351.659,1.751,1.751,0,0,0,1.381-.682,3.237,3.237,0,0,0,.574-2.113,3.154,3.154,0,0,0-.562-2.043,1.688,1.688,0,0,0-1.34-.678,1.743,1.743,0,0,0-1.368.722A3.231,3.231,0,0,0,402.182,167.455Z" transform="translate(-6.962 -8.436)"/><path class="cls-3" d="M408.713,170.982v-9.851h1.21v9.851Z" transform="translate(-6.962 -8.436)"/><path class="cls-3" d="M411.348,167.415a3.679,3.679,0,0,1,1.1-2.937,3.324,3.324,0,0,1,2.244-.793,3.2,3.2,0,0,1,2.406.964,3.67,3.67,0,0,1,.934,2.664,4.722,4.722,0,0,1-.413,2.167,2.925,2.925,0,0,1-1.2,1.227,3.5,3.5,0,0,1-1.724.437,3.208,3.208,0,0,1-2.422-.961A3.835,3.835,0,0,1,411.348,167.415Zm1.243,0a3.041,3.041,0,0,0,.6,2.053,1.991,1.991,0,0,0,3,0,3.113,3.113,0,0,0,.6-2.09,2.947,2.947,0,0,0-.6-2.006,1.995,1.995,0,0,0-3,0A3.028,3.028,0,0,0,412.591,167.415Z" transform="translate(-6.962 -8.436)"/><path class="cls-3" d="M419.4,173.73l-.135-1.135a2.715,2.715,0,0,0,.692.107,1.329,1.329,0,0,0,.645-.134,1.092,1.092,0,0,0,.4-.376,5.876,5.876,0,0,0,.37-.9c.022-.067.058-.166.107-.3l-2.708-7.15h1.3l1.485,4.133q.289.786.517,1.653a16.035,16.035,0,0,1,.5-1.626l1.524-4.16h1.21l-2.715,7.257a14.228,14.228,0,0,1-.679,1.619,2.381,2.381,0,0,1-.739.877,1.744,1.744,0,0,1-.994.279A2.415,2.415,0,0,1,419.4,173.73Z" transform="translate(-6.962 -8.436)"/><path class="cls-3" d="M431.217,168.685l1.25.154a3.05,3.05,0,0,1-1.1,1.7,3.711,3.711,0,0,1-4.525-.359,3.769,3.769,0,0,1-.917-2.7,3.944,3.944,0,0,1,.928-2.8,3.138,3.138,0,0,1,2.405-.995,3.048,3.048,0,0,1,2.338.975,3.867,3.867,0,0,1,.907,2.741c0,.072,0,.179-.007.323h-5.321a2.744,2.744,0,0,0,.665,1.8,1.98,1.98,0,0,0,1.492.625,1.849,1.849,0,0,0,1.135-.35A2.321,2.321,0,0,0,431.217,168.685Zm-3.971-1.956h3.984a2.417,2.417,0,0,0-.457-1.351,1.854,1.854,0,0,0-1.5-.7,1.923,1.923,0,0,0-1.4.558A2.2,2.2,0,0,0,427.246,166.729Z" transform="translate(-6.962 -8.436)"/><path class="cls-3" d="M438.87,168.685l1.25.154a3.05,3.05,0,0,1-1.1,1.7,3.711,3.711,0,0,1-4.525-.359,3.769,3.769,0,0,1-.917-2.7,3.944,3.944,0,0,1,.928-2.8,3.138,3.138,0,0,1,2.405-.995,3.048,3.048,0,0,1,2.338.975,3.867,3.867,0,0,1,.907,2.741c0,.072,0,.179-.007.323h-5.321a2.744,2.744,0,0,0,.665,1.8,1.98,1.98,0,0,0,1.492.625,1.849,1.849,0,0,0,1.135-.35A2.321,2.321,0,0,0,438.87,168.685Zm-3.971-1.956h3.984a2.417,2.417,0,0,0-.457-1.351,1.854,1.854,0,0,0-1.5-.7,1.923,1.923,0,0,0-1.4.558A2.2,2.2,0,0,0,434.9,166.729Z" transform="translate(-6.962 -8.436)"/><path class="cls-3" d="M441.154,168.853l1.2-.188a1.674,1.674,0,0,0,.562,1.1,1.954,1.954,0,0,0,1.286.383,1.89,1.89,0,0,0,1.236-.339,1.013,1.013,0,0,0,.4-.8.734.734,0,0,0-.355-.645,5.269,5.269,0,0,0-1.236-.41,11.228,11.228,0,0,1-1.845-.581,1.761,1.761,0,0,1-1.045-1.636,1.827,1.827,0,0,1,.219-.883,1.97,1.97,0,0,1,.594-.676,2.506,2.506,0,0,1,.77-.353,3.664,3.664,0,0,1,1.045-.145,4.126,4.126,0,0,1,1.476.242,2,2,0,0,1,.937.655,2.556,2.556,0,0,1,.417,1.105l-1.183.161a1.292,1.292,0,0,0-.467-.86,1.709,1.709,0,0,0-1.092-.309,1.978,1.978,0,0,0-1.189.275.8.8,0,0,0-.356.645.668.668,0,0,0,.148.423,1.065,1.065,0,0,0,.463.323q.182.067,1.068.309a14.9,14.9,0,0,1,1.791.561,1.815,1.815,0,0,1,.8.635,1.767,1.767,0,0,1,.289,1.035,2.029,2.029,0,0,1-.353,1.139,2.282,2.282,0,0,1-1.018.827,3.71,3.71,0,0,1-1.506.292,3.355,3.355,0,0,1-2.12-.578A2.692,2.692,0,0,1,441.154,168.853Z" transform="translate(-6.962 -8.436)"/><path class="cls-3" d="M457,170.1a4.508,4.508,0,0,1-1.293.807,3.743,3.743,0,0,1-1.334.235,2.6,2.6,0,0,1-1.808-.574,1.9,1.9,0,0,1-.632-1.468,1.987,1.987,0,0,1,.863-1.653,2.936,2.936,0,0,1,.87-.4,8.551,8.551,0,0,1,1.075-.182,11.059,11.059,0,0,0,2.157-.417c0-.166.007-.271.007-.316a1.335,1.335,0,0,0-.343-1.042,2.028,2.028,0,0,0-1.378-.41,2.139,2.139,0,0,0-1.26.3,1.83,1.83,0,0,0-.6,1.058l-1.183-.161a2.945,2.945,0,0,1,.531-1.226,2.324,2.324,0,0,1,1.068-.719,4.766,4.766,0,0,1,1.619-.252,4.282,4.282,0,0,1,1.485.215,1.95,1.95,0,0,1,.84.541,1.9,1.9,0,0,1,.376.823,6.728,6.728,0,0,1,.061,1.115v1.613a17.278,17.278,0,0,0,.077,2.133,2.691,2.691,0,0,0,.306.857h-1.263A2.561,2.561,0,0,1,457,170.1Zm-.1-2.7a8.883,8.883,0,0,1-1.976.457,4.589,4.589,0,0,0-1.055.242,1.057,1.057,0,0,0-.478.393,1.04,1.04,0,0,0-.168.575,1.029,1.029,0,0,0,.366.806,1.575,1.575,0,0,0,1.072.323,2.5,2.5,0,0,0,1.243-.306,1.884,1.884,0,0,0,.8-.837,2.92,2.92,0,0,0,.2-1.209Z" transform="translate(-6.962 -8.436)"/><path class="cls-3" d="M460,170.982v-7.136h1.089v1.015a2.563,2.563,0,0,1,2.271-1.176,2.978,2.978,0,0,1,1.187.232,1.87,1.87,0,0,1,.81.608,2.336,2.336,0,0,1,.376.894,6.9,6.9,0,0,1,.067,1.176v4.388h-1.21v-4.341a3.272,3.272,0,0,0-.141-1.105,1.159,1.159,0,0,0-.5-.584,1.591,1.591,0,0,0-.843-.218,1.959,1.959,0,0,0-1.334.491,2.419,2.419,0,0,0-.562,1.861v3.9Z" transform="translate(-6.962 -8.436)"/><path class="cls-3" d="M472.279,170.982v-.9a2.22,2.22,0,0,1-2,1.062,2.8,2.8,0,0,1-1.569-.47,3.1,3.1,0,0,1-1.108-1.313,4.547,4.547,0,0,1-.393-1.939,5.079,5.079,0,0,1,.355-1.938,2.809,2.809,0,0,1,1.068-1.333,2.859,2.859,0,0,1,1.593-.464,2.385,2.385,0,0,1,1.149.272,2.409,2.409,0,0,1,.819.709v-3.534h1.2v9.851Zm-3.823-3.562a3.1,3.1,0,0,0,.577,2.05,1.744,1.744,0,0,0,1.364.679,1.713,1.713,0,0,0,1.348-.648,2.993,2.993,0,0,0,.554-1.979,3.352,3.352,0,0,0-.564-2.15,1.735,1.735,0,0,0-1.391-.685,1.678,1.678,0,0,0-1.348.658A3.252,3.252,0,0,0,468.456,167.421Z" transform="translate(-6.962 -8.436)"/><path class="cls-3" d="M353.073,188.087l1.176.175a1.118,1.118,0,0,0,.41.793,2.015,2.015,0,0,0,1.229.336,2.163,2.163,0,0,0,1.3-.336,1.653,1.653,0,0,0,.618-.941,7.723,7.723,0,0,0,.087-1.552,2.487,2.487,0,0,1-1.976.934,2.693,2.693,0,0,1-2.277-1.062,4.086,4.086,0,0,1-.807-2.547A4.729,4.729,0,0,1,353.2,182a2.959,2.959,0,0,1,1.071-1.334,2.893,2.893,0,0,1,1.649-.47A2.556,2.556,0,0,1,358,181.22v-.86h1.115v6.168a5.844,5.844,0,0,1-.339,2.362,2.483,2.483,0,0,1-1.075,1.1,3.721,3.721,0,0,1-1.811.4,3.418,3.418,0,0,1-2.063-.574A1.943,1.943,0,0,1,353.073,188.087Zm1-4.287a3.093,3.093,0,0,0,.558,2.049,1.84,1.84,0,0,0,2.8,0,3,3,0,0,0,.563-2.012,2.925,2.925,0,0,0-.581-1.976,1.8,1.8,0,0,0-1.4-.665,1.746,1.746,0,0,0-1.371.655A2.912,2.912,0,0,0,354.074,183.8Z" transform="translate(-6.962 -8.436)"/><path class="cls-3" d="M365.833,185.2l1.25.154a3.05,3.05,0,0,1-1.1,1.7,3.711,3.711,0,0,1-4.525-.359,3.769,3.769,0,0,1-.917-2.7,3.944,3.944,0,0,1,.928-2.8,3.138,3.138,0,0,1,2.405-.995,3.048,3.048,0,0,1,2.338.975,3.867,3.867,0,0,1,.907,2.741c0,.072,0,.179-.007.323h-5.321a2.744,2.744,0,0,0,.665,1.8,1.98,1.98,0,0,0,1.492.625,1.849,1.849,0,0,0,1.135-.35A2.321,2.321,0,0,0,365.833,185.2Zm-3.971-1.956h3.984a2.417,2.417,0,0,0-.457-1.351,1.854,1.854,0,0,0-1.5-.7,1.923,1.923,0,0,0-1.4.558A2.2,2.2,0,0,0,361.862,183.243Z" transform="translate(-6.962 -8.436)"/><path class="cls-3" d="M368.6,187.5V180.36h1.089v1.015a2.563,2.563,0,0,1,2.271-1.176,2.978,2.978,0,0,1,1.187.232,1.87,1.87,0,0,1,.81.608,2.336,2.336,0,0,1,.376.894,6.9,6.9,0,0,1,.067,1.176V187.5h-1.21v-4.341a3.272,3.272,0,0,0-.141-1.105,1.159,1.159,0,0,0-.5-.584,1.591,1.591,0,0,0-.843-.218,1.959,1.959,0,0,0-1.334.491,2.419,2.419,0,0,0-.562,1.861v3.9Z" transform="translate(-6.962 -8.436)"/><path class="cls-3" d="M381.14,185.2l1.25.154a3.05,3.05,0,0,1-1.1,1.7,3.711,3.711,0,0,1-4.525-.359,3.769,3.769,0,0,1-.917-2.7,3.944,3.944,0,0,1,.928-2.8,3.138,3.138,0,0,1,2.405-.995,3.048,3.048,0,0,1,2.338.975,3.867,3.867,0,0,1,.907,2.741c0,.072,0,.179-.007.323H377.1a2.744,2.744,0,0,0,.665,1.8,1.98,1.98,0,0,0,1.492.625,1.849,1.849,0,0,0,1.135-.35A2.321,2.321,0,0,0,381.14,185.2Zm-3.971-1.956h3.984a2.417,2.417,0,0,0-.457-1.351,1.854,1.854,0,0,0-1.5-.7,1.923,1.923,0,0,0-1.4.558A2.2,2.2,0,0,0,377.169,183.243Z" transform="translate(-6.962 -8.436)"/><path class="cls-3" d="M383.895,187.5V180.36h1.089v1.082a2.941,2.941,0,0,1,.77-1,1.337,1.337,0,0,1,.775-.242,2.358,2.358,0,0,1,1.243.39l-.416,1.122a1.736,1.736,0,0,0-.888-.262,1.155,1.155,0,0,0-.712.238,1.293,1.293,0,0,0-.45.662,4.7,4.7,0,0,0-.2,1.411V187.5Z" transform="translate(-6.962 -8.436)"/><path class="cls-3" d="M393.147,186.616a4.508,4.508,0,0,1-1.293.807,3.743,3.743,0,0,1-1.334.235,2.6,2.6,0,0,1-1.808-.574,1.9,1.9,0,0,1-.632-1.468,1.987,1.987,0,0,1,.863-1.653,2.936,2.936,0,0,1,.87-.4,8.551,8.551,0,0,1,1.075-.182,11.059,11.059,0,0,0,2.157-.417c0-.166.007-.271.007-.316a1.335,1.335,0,0,0-.343-1.042,2.028,2.028,0,0,0-1.378-.41,2.139,2.139,0,0,0-1.26.3,1.83,1.83,0,0,0-.6,1.058l-1.183-.161a2.945,2.945,0,0,1,.531-1.226,2.324,2.324,0,0,1,1.068-.719,4.766,4.766,0,0,1,1.619-.252,4.282,4.282,0,0,1,1.485.215,1.95,1.95,0,0,1,.84.541,1.9,1.9,0,0,1,.376.823,6.728,6.728,0,0,1,.061,1.115v1.613a17.278,17.278,0,0,0,.077,2.133,2.691,2.691,0,0,0,.306.857H393.39A2.561,2.561,0,0,1,393.147,186.616Zm-.1-2.7a8.883,8.883,0,0,1-1.976.457,4.589,4.589,0,0,0-1.055.242,1.057,1.057,0,0,0-.478.393,1.04,1.04,0,0,0-.168.575,1.029,1.029,0,0,0,.366.806,1.575,1.575,0,0,0,1.072.323,2.5,2.5,0,0,0,1.243-.306,1.884,1.884,0,0,0,.8-.837,2.92,2.92,0,0,0,.2-1.209Z" transform="translate(-6.962 -8.436)"/><path class="cls-3" d="M396.117,187.5v-9.851h1.21V187.5Z" transform="translate(-6.962 -8.436)"/><path class="cls-3" d="M407.91,185.2l1.25.154a3.05,3.05,0,0,1-1.1,1.7,3.711,3.711,0,0,1-4.525-.359,3.769,3.769,0,0,1-.917-2.7,3.944,3.944,0,0,1,.928-2.8,3.138,3.138,0,0,1,2.405-.995,3.048,3.048,0,0,1,2.338.975,3.867,3.867,0,0,1,.907,2.741c0,.072,0,.179-.007.323h-5.321a2.744,2.744,0,0,0,.665,1.8,1.98,1.98,0,0,0,1.492.625,1.849,1.849,0,0,0,1.135-.35A2.321,2.321,0,0,0,407.91,185.2Zm-3.971-1.956h3.984a2.417,2.417,0,0,0-.457-1.351,1.854,1.854,0,0,0-1.5-.7,1.923,1.923,0,0,0-1.4.558A2.2,2.2,0,0,0,403.939,183.243Z" transform="translate(-6.962 -8.436)"/><path class="cls-3" d="M410.679,187.5V180.36h1.082v1a2.537,2.537,0,0,1,.894-.843,2.509,2.509,0,0,1,1.27-.319,2.354,2.354,0,0,1,1.3.329,1.764,1.764,0,0,1,.715.921,2.562,2.562,0,0,1,2.2-1.25,2.173,2.173,0,0,1,1.633.588,2.513,2.513,0,0,1,.571,1.811v4.9h-1.2V183a3.314,3.314,0,0,0-.118-1.045,1.011,1.011,0,0,0-.427-.514,1.333,1.333,0,0,0-.726-.195,1.691,1.691,0,0,0-1.25.5,2.207,2.207,0,0,0-.5,1.6V187.5h-1.209V182.86a2.038,2.038,0,0,0-.3-1.209,1.119,1.119,0,0,0-.968-.4,1.762,1.762,0,0,0-.944.269,1.524,1.524,0,0,0-.628.786,4.426,4.426,0,0,0-.2,1.492v3.7Z" transform="translate(-6.962 -8.436)"/><path class="cls-3" d="M422.142,190.231V180.36h1.1v.927a2.719,2.719,0,0,1,.881-.816,2.417,2.417,0,0,1,1.189-.272,2.821,2.821,0,0,1,1.612.47A2.89,2.89,0,0,1,427.98,182a4.849,4.849,0,0,1,.356,1.878,4.762,4.762,0,0,1-.394,1.972,2.986,2.986,0,0,1-2.718,1.811,2.273,2.273,0,0,1-1.085-.255,2.47,2.47,0,0,1-.79-.645v3.474Zm1.095-6.263a3.1,3.1,0,0,0,.559,2.036,1.709,1.709,0,0,0,1.351.659,1.751,1.751,0,0,0,1.381-.682,3.237,3.237,0,0,0,.574-2.113,3.154,3.154,0,0,0-.562-2.043,1.688,1.688,0,0,0-1.34-.678,1.743,1.743,0,0,0-1.368.722A3.231,3.231,0,0,0,423.236,183.968Z" transform="translate(-6.962 -8.436)"/><path class="cls-3" d="M429.768,187.5v-9.851h1.21V187.5Z" transform="translate(-6.962 -8.436)"/><path class="cls-3" d="M432.4,183.928a3.679,3.679,0,0,1,1.1-2.937,3.324,3.324,0,0,1,2.244-.793,3.2,3.2,0,0,1,2.406.964,3.67,3.67,0,0,1,.934,2.664,4.722,4.722,0,0,1-.413,2.167,2.925,2.925,0,0,1-1.2,1.227,3.5,3.5,0,0,1-1.724.437,3.208,3.208,0,0,1-2.422-.961A3.835,3.835,0,0,1,432.4,183.928Zm1.243,0a3.041,3.041,0,0,0,.6,2.053,1.991,1.991,0,0,0,3,0,3.113,3.113,0,0,0,.6-2.09,2.947,2.947,0,0,0-.6-2.006,1.995,1.995,0,0,0-3,0A3.028,3.028,0,0,0,433.646,183.928Z" transform="translate(-6.962 -8.436)"/><path class="cls-3" d="M440.452,190.244l-.135-1.135a2.715,2.715,0,0,0,.692.107,1.329,1.329,0,0,0,.645-.134,1.092,1.092,0,0,0,.4-.376,5.876,5.876,0,0,0,.37-.9c.022-.067.058-.166.107-.3l-2.708-7.15h1.3l1.485,4.133q.289.786.517,1.653a16.035,16.035,0,0,1,.5-1.626l1.524-4.16h1.21l-2.715,7.257a14.228,14.228,0,0,1-.679,1.619,2.381,2.381,0,0,1-.739.877,1.744,1.744,0,0,1-.994.279A2.415,2.415,0,0,1,440.452,190.244Z" transform="translate(-6.962 -8.436)"/><path class="cls-3" d="M452.271,185.2l1.25.154a3.05,3.05,0,0,1-1.1,1.7,3.711,3.711,0,0,1-4.525-.359,3.769,3.769,0,0,1-.917-2.7,3.944,3.944,0,0,1,.928-2.8,3.138,3.138,0,0,1,2.405-.995,3.048,3.048,0,0,1,2.338.975,3.867,3.867,0,0,1,.907,2.741c0,.072,0,.179-.007.323h-5.321a2.744,2.744,0,0,0,.665,1.8,1.98,1.98,0,0,0,1.492.625,1.849,1.849,0,0,0,1.135-.35A2.321,2.321,0,0,0,452.271,185.2Zm-3.971-1.956h3.984a2.417,2.417,0,0,0-.457-1.351,1.854,1.854,0,0,0-1.5-.7,1.923,1.923,0,0,0-1.4.558A2.2,2.2,0,0,0,448.3,183.243Z" transform="translate(-6.962 -8.436)"/><path class="cls-3" d="M459.925,185.2l1.25.154a3.05,3.05,0,0,1-1.1,1.7,3.711,3.711,0,0,1-4.525-.359,3.769,3.769,0,0,1-.917-2.7,3.944,3.944,0,0,1,.928-2.8,3.138,3.138,0,0,1,2.405-.995,3.048,3.048,0,0,1,2.338.975,3.867,3.867,0,0,1,.907,2.741c0,.072,0,.179-.007.323h-5.321a2.744,2.744,0,0,0,.665,1.8,1.98,1.98,0,0,0,1.492.625,1.849,1.849,0,0,0,1.135-.35A2.321,2.321,0,0,0,459.925,185.2Zm-3.971-1.956h3.984a2.417,2.417,0,0,0-.457-1.351,1.854,1.854,0,0,0-1.5-.7,1.923,1.923,0,0,0-1.4.558A2.2,2.2,0,0,0,455.954,183.243Z" transform="translate(-6.962 -8.436)"/><path class="cls-3" d="M462.209,185.366l1.2-.188a1.674,1.674,0,0,0,.562,1.1,1.954,1.954,0,0,0,1.286.383,1.89,1.89,0,0,0,1.236-.339,1.013,1.013,0,0,0,.4-.8.734.734,0,0,0-.355-.645,5.269,5.269,0,0,0-1.236-.41,11.228,11.228,0,0,1-1.845-.581,1.761,1.761,0,0,1-1.045-1.636,1.827,1.827,0,0,1,.219-.883,1.97,1.97,0,0,1,.594-.676,2.506,2.506,0,0,1,.77-.353,3.664,3.664,0,0,1,1.045-.145,4.126,4.126,0,0,1,1.476.242,2,2,0,0,1,.937.655,2.556,2.556,0,0,1,.417,1.105l-1.183.161a1.292,1.292,0,0,0-.467-.86,1.709,1.709,0,0,0-1.092-.309,1.978,1.978,0,0,0-1.189.275.8.8,0,0,0-.356.645.668.668,0,0,0,.148.423,1.065,1.065,0,0,0,.463.323q.182.067,1.068.309a14.9,14.9,0,0,1,1.791.561,1.815,1.815,0,0,1,.8.635,1.767,1.767,0,0,1,.289,1.035,2.029,2.029,0,0,1-.353,1.139,2.282,2.282,0,0,1-1.018.827,3.71,3.71,0,0,1-1.506.292,3.355,3.355,0,0,1-2.12-.578A2.692,2.692,0,0,1,462.209,185.366Z" transform="translate(-6.962 -8.436)"/><path class="cls-3" d="M470.367,190.392H469.5a12.122,12.122,0,0,0,2.01-6.458,11.054,11.054,0,0,0-.289-2.506,10.524,10.524,0,0,0-.639-1.935,22.658,22.658,0,0,0-1.082-2.016h.867a12.9,12.9,0,0,1,1.868,3.387,9.263,9.263,0,0,1-.179,6.571A12.277,12.277,0,0,1,470.367,190.392Z" transform="translate(-6.962 -8.436)"/></svg>