<svg id="Layer_1" data-name="Layer 1" xmlns="http://www.w3.org/2000/svg" viewBox="0 0 624.643 271.403"><defs><style>.cls-1{fill:#edd017;}.cls-2,.cls-3,.cls-8{fill:none;}.cls-2,.cls-5{stroke:#df1f29;}.cls-2,.cls-3,.cls-4,.cls-5,.cls-8{stroke-miterlimit:10;}.cls-2,.cls-3,.cls-4,.cls-5{stroke-width:3px;}.cls-3{stroke:#34449b;}.cls-4{fill:#34469a;stroke:#34469a;}.cls-5{fill:#df1f29;}.cls-6{fill:#231f20;}.cls-7{fill:#de2129;}.cls-8{stroke:#231f20;}</style></defs><title>What_Happens_Required_Beginning_Date_02</title><rect class="cls-1" x="362.66" y="131.623" width="27.72" height="5.114" transform="translate(234.455 502.691) rotate(-90)"/><polygon class="cls-1" points="362.61 112.311 368.635 105.939 374.66 112.311 362.61 112.311"/><rect class="cls-1" x="535.755" y="131.623" width="27.72" height="5.114" transform="translate(407.551 675.786) rotate(-90)"/><polygon class="cls-1" points="535.706 112.311 541.731 105.939 547.756 112.311 535.706 112.311"/><line class="cls-2" x1="14.372" y1="37.094" x2="66.295" y2="37.094"/><line class="cls-3" x1="94.295" y1="37.094" x2="146.218" y2="37.094"/><polygon class="cls-4" points="108.109 37.094 101.202 49.057 94.295 37.094 108.109 37.094"/><polygon class="cls-5" points="28.186 37.094 21.279 49.057 14.372 37.094 28.186 37.094"/><path class="cls-6" d="M28.682,36.644v1.014H23a1.866,1.866,0,0,1,.123-.732,3.875,3.875,0,0,1,.694-1.143,10.878,10.878,0,0,1,1.38-1.3,11.7,11.7,0,0,0,1.893-1.819,2.178,2.178,0,0,0,.492-1.269,1.409,1.409,0,0,0-.448-1.058,1.617,1.617,0,0,0-1.169-.431,1.647,1.647,0,0,0-1.219.457,1.729,1.729,0,0,0-.463,1.266L23.2,31.517a2.668,2.668,0,0,1,.838-1.849,2.858,2.858,0,0,1,1.951-.636,2.723,2.723,0,0,1,1.957.686,2.251,2.251,0,0,1,.721,1.7,2.577,2.577,0,0,1-.211,1.014,3.934,3.934,0,0,1-.7,1.049,17.058,17.058,0,0,1-1.626,1.512q-.949.8-1.219,1.081a3.468,3.468,0,0,0-.445.571Z" transform="translate(-7.885 -8.009)"/><path class="cls-6" d="M29.813,33.421a7.86,7.86,0,0,1,.313-2.452,3.05,3.05,0,0,1,.932-1.433,2.382,2.382,0,0,1,1.556-.5,2.538,2.538,0,0,1,1.213.278,2.319,2.319,0,0,1,.861.8,4.306,4.306,0,0,1,.533,1.277,8.487,8.487,0,0,1,.193,2.03,7.882,7.882,0,0,1-.311,2.44,3.051,3.051,0,0,1-.929,1.436,2.382,2.382,0,0,1-1.562.507,2.357,2.357,0,0,1-1.951-.891A5.661,5.661,0,0,1,29.813,33.421Zm1.084,0a5.386,5.386,0,0,0,.5,2.815,1.414,1.414,0,0,0,2.443,0,5.388,5.388,0,0,0,.5-2.812,5.384,5.384,0,0,0-.5-2.818,1.47,1.47,0,0,0-1.233-.7,1.351,1.351,0,0,0-1.16.615A5.448,5.448,0,0,0,30.9,33.421Z" transform="translate(-7.885 -8.009)"/><path class="cls-6" d="M40.459,37.658H39.4V30.937a5.451,5.451,0,0,1-1,.727,7.082,7.082,0,0,1-1.11.545v-1.02a6.369,6.369,0,0,0,1.547-1.008,3.964,3.964,0,0,0,.938-1.148h.68Z" transform="translate(-7.885 -8.009)"/><path class="cls-6" d="M48.7,36.644v1.014H43.026a1.866,1.866,0,0,1,.123-.732,3.875,3.875,0,0,1,.694-1.143,10.878,10.878,0,0,1,1.38-1.3,11.7,11.7,0,0,0,1.893-1.819,2.178,2.178,0,0,0,.492-1.269,1.409,1.409,0,0,0-.448-1.058,1.617,1.617,0,0,0-1.169-.431,1.647,1.647,0,0,0-1.219.457,1.729,1.729,0,0,0-.463,1.266l-1.084-.111a2.668,2.668,0,0,1,.838-1.849,2.858,2.858,0,0,1,1.951-.636,2.723,2.723,0,0,1,1.957.686,2.251,2.251,0,0,1,.721,1.7,2.577,2.577,0,0,1-.211,1.014,3.934,3.934,0,0,1-.7,1.049,17.058,17.058,0,0,1-1.626,1.512q-.949.8-1.219,1.081a3.468,3.468,0,0,0-.445.571Z" transform="translate(-7.885 -8.009)"/><path class="cls-6" d="M107.964,37.181v1.014h-5.678a1.866,1.866,0,0,1,.123-.732,3.875,3.875,0,0,1,.694-1.143,10.878,10.878,0,0,1,1.38-1.3,11.7,11.7,0,0,0,1.893-1.819,2.178,2.178,0,0,0,.492-1.269,1.409,1.409,0,0,0-.448-1.058,1.617,1.617,0,0,0-1.169-.431,1.647,1.647,0,0,0-1.219.457,1.729,1.729,0,0,0-.463,1.266l-1.084-.111a2.668,2.668,0,0,1,.838-1.849,2.858,2.858,0,0,1,1.951-.636,2.723,2.723,0,0,1,1.957.686,2.251,2.251,0,0,1,.721,1.7,2.577,2.577,0,0,1-.211,1.014,3.934,3.934,0,0,1-.7,1.049,17.058,17.058,0,0,1-1.626,1.512q-.949.8-1.219,1.081a3.468,3.468,0,0,0-.445.571Z" transform="translate(-7.885 -8.009)"/><path class="cls-6" d="M109.095,33.958a7.86,7.86,0,0,1,.313-2.452,3.05,3.05,0,0,1,.932-1.433,2.382,2.382,0,0,1,1.556-.5,2.538,2.538,0,0,1,1.213.278,2.319,2.319,0,0,1,.861.8,4.306,4.306,0,0,1,.533,1.277,8.487,8.487,0,0,1,.193,2.03,7.882,7.882,0,0,1-.311,2.44,3.051,3.051,0,0,1-.929,1.436,2.382,2.382,0,0,1-1.562.507,2.357,2.357,0,0,1-1.951-.891A5.661,5.661,0,0,1,109.095,33.958Zm1.084,0a5.386,5.386,0,0,0,.5,2.815,1.414,1.414,0,0,0,2.443,0,5.388,5.388,0,0,0,.5-2.812,5.384,5.384,0,0,0-.5-2.818,1.47,1.47,0,0,0-1.233-.7,1.351,1.351,0,0,0-1.16.615A5.448,5.448,0,0,0,110.179,33.958Z" transform="translate(-7.885 -8.009)"/><path class="cls-6" d="M119.741,38.194h-1.055V31.474a5.451,5.451,0,0,1-1,.727,7.082,7.082,0,0,1-1.11.545v-1.02a6.369,6.369,0,0,0,1.547-1.008,3.964,3.964,0,0,0,.938-1.148h.68Z" transform="translate(-7.885 -8.009)"/><path class="cls-6" d="M122.448,35.927l1.055-.141a2.324,2.324,0,0,0,.618,1.292,1.527,1.527,0,0,0,1.063.4,1.7,1.7,0,0,0,1.257-.516,1.74,1.74,0,0,0,.513-1.277,1.618,1.618,0,0,0-.475-1.2,1.641,1.641,0,0,0-1.207-.472,3.028,3.028,0,0,0-.744.117l.117-.926a1.612,1.612,0,0,0,.17.012,2.172,2.172,0,0,0,1.213-.352,1.2,1.2,0,0,0,.539-1.084,1.282,1.282,0,0,0-.393-.961,1.4,1.4,0,0,0-1.014-.381,1.436,1.436,0,0,0-1.025.387,1.941,1.941,0,0,0-.527,1.16l-1.055-.187a2.711,2.711,0,0,1,.879-1.644,2.541,2.541,0,0,1,1.705-.583,2.809,2.809,0,0,1,1.295.3,2.183,2.183,0,0,1,.905.823,2.115,2.115,0,0,1,.313,1.107,1.813,1.813,0,0,1-.3,1.014,2.04,2.04,0,0,1-.885.727,1.993,1.993,0,0,1,1.184.729,2.22,2.22,0,0,1,.422,1.386,2.535,2.535,0,0,1-.82,1.907,2.885,2.885,0,0,1-2.074.782,2.7,2.7,0,0,1-1.878-.674A2.606,2.606,0,0,1,122.448,35.927Z" transform="translate(-7.885 -8.009)"/><line class="cls-2" x1="14.372" y1="141.094" x2="295.051" y2="141.094"/><line class="cls-3" x1="295.051" y1="141.031" x2="573.731" y2="141.031"/><polygon class="cls-4" points="567.749 137.578 573.731 141.031 567.749 144.485 567.749 137.578"/><path class="cls-6" d="M70.264,189.755l1.107-.094a1.986,1.986,0,0,0,.571,1.216,1.551,1.551,0,0,0,1.081.407,1.684,1.684,0,0,0,1.289-.574,2.164,2.164,0,0,0,.527-1.523,1.956,1.956,0,0,0-.507-1.424,1.767,1.767,0,0,0-1.327-.521,1.839,1.839,0,0,0-.92.231,1.786,1.786,0,0,0-.645.6l-.99-.129.832-4.412h4.271v1.008H72.127l-.463,2.309a2.8,2.8,0,0,1,1.623-.539,2.571,2.571,0,0,1,1.9.779,2.724,2.724,0,0,1,.773,2,3.128,3.128,0,0,1-.68,2.016,2.723,2.723,0,0,1-2.256,1.043,2.779,2.779,0,0,1-1.913-.656A2.561,2.561,0,0,1,70.264,189.755Z" transform="translate(-7.885 -8.009)"/><path class="cls-6" d="M76.44,192.152l2.49-8.883h.844l-2.484,8.883Z" transform="translate(-7.885 -8.009)"/><path class="cls-6" d="M84.245,192.005H83.19v-6.721a5.451,5.451,0,0,1-1,.727,7.082,7.082,0,0,1-1.11.545v-1.02a6.369,6.369,0,0,0,1.547-1.008,3.964,3.964,0,0,0,.938-1.148h.68Z" transform="translate(-7.885 -8.009)"/><path class="cls-6" d="M86.448,192.152l2.49-8.883h.844L87.3,192.152Z" transform="translate(-7.885 -8.009)"/><path class="cls-6" d="M95.823,190.992v1.014H90.145a1.866,1.866,0,0,1,.123-.732,3.875,3.875,0,0,1,.694-1.143,10.878,10.878,0,0,1,1.38-1.3,11.7,11.7,0,0,0,1.893-1.819,2.178,2.178,0,0,0,.492-1.269,1.409,1.409,0,0,0-.448-1.058,1.617,1.617,0,0,0-1.169-.431,1.647,1.647,0,0,0-1.219.457,1.729,1.729,0,0,0-.463,1.266l-1.084-.111a2.668,2.668,0,0,1,.838-1.849,2.858,2.858,0,0,1,1.951-.636,2.723,2.723,0,0,1,1.957.686,2.251,2.251,0,0,1,.721,1.7,2.577,2.577,0,0,1-.211,1.014,3.934,3.934,0,0,1-.7,1.049,17.058,17.058,0,0,1-1.626,1.512q-.949.8-1.219,1.081a3.468,3.468,0,0,0-.445.571Z" transform="translate(-7.885 -8.009)"/><path class="cls-6" d="M96.954,187.769a7.86,7.86,0,0,1,.313-2.452,3.05,3.05,0,0,1,.932-1.433,2.382,2.382,0,0,1,1.556-.5,2.538,2.538,0,0,1,1.213.278,2.319,2.319,0,0,1,.861.8,4.306,4.306,0,0,1,.533,1.277,8.487,8.487,0,0,1,.193,2.03,7.882,7.882,0,0,1-.311,2.44,3.051,3.051,0,0,1-.929,1.436,2.382,2.382,0,0,1-1.562.507,2.357,2.357,0,0,1-1.951-.891A5.661,5.661,0,0,1,96.954,187.769Zm1.084,0a5.386,5.386,0,0,0,.5,2.815,1.414,1.414,0,0,0,2.443,0,8.252,8.252,0,0,0,0-5.631,1.47,1.47,0,0,0-1.233-.7,1.351,1.351,0,0,0-1.16.615A5.448,5.448,0,0,0,98.038,187.769Z" transform="translate(-7.885 -8.009)"/><path class="cls-6" d="M107.6,192.005h-1.055v-6.721a5.451,5.451,0,0,1-1,.727,7.082,7.082,0,0,1-1.11.545v-1.02a6.369,6.369,0,0,0,1.547-1.008,3.964,3.964,0,0,0,.938-1.148h.68Z" transform="translate(-7.885 -8.009)"/><path class="cls-6" d="M115.844,190.992v1.014h-5.678a1.866,1.866,0,0,1,.123-.732,3.875,3.875,0,0,1,.694-1.143,10.878,10.878,0,0,1,1.38-1.3,11.7,11.7,0,0,0,1.893-1.819,2.178,2.178,0,0,0,.492-1.269,1.409,1.409,0,0,0-.448-1.058,1.617,1.617,0,0,0-1.169-.431,1.647,1.647,0,0,0-1.219.457,1.729,1.729,0,0,0-.463,1.266l-1.084-.111a2.668,2.668,0,0,1,.838-1.849,2.858,2.858,0,0,1,1.951-.636,2.723,2.723,0,0,1,1.957.686,2.251,2.251,0,0,1,.721,1.7,2.577,2.577,0,0,1-.211,1.014,3.934,3.934,0,0,1-.7,1.049,17.058,17.058,0,0,1-1.626,1.512q-.949.8-1.219,1.081a3.468,3.468,0,0,0-.445.571Z" transform="translate(-7.885 -8.009)"/><path class="cls-6" d="M60.421,198.94v-1.014h5.561v.82a11.718,11.718,0,0,0-1.626,2.32,14.132,14.132,0,0,0-1.245,2.977,11.063,11.063,0,0,0-.4,2.361H61.622a10.526,10.526,0,0,1,.4-2.449,12.861,12.861,0,0,1,1.093-2.769,11.868,11.868,0,0,1,1.515-2.247Z" transform="translate(-7.885 -8.009)"/><path class="cls-6" d="M67.024,202.169a7.86,7.86,0,0,1,.313-2.452,3.05,3.05,0,0,1,.932-1.433,2.382,2.382,0,0,1,1.556-.5,2.538,2.538,0,0,1,1.213.278,2.319,2.319,0,0,1,.861.8,4.306,4.306,0,0,1,.533,1.277,8.487,8.487,0,0,1,.193,2.03,7.882,7.882,0,0,1-.311,2.44,3.051,3.051,0,0,1-.929,1.436,2.382,2.382,0,0,1-1.562.507,2.357,2.357,0,0,1-1.951-.891A5.661,5.661,0,0,1,67.024,202.169Zm1.084,0a5.386,5.386,0,0,0,.5,2.815,1.414,1.414,0,0,0,2.443,0,8.252,8.252,0,0,0,0-5.631,1.47,1.47,0,0,0-1.233-.7,1.351,1.351,0,0,0-1.16.615A5.448,5.448,0,0,0,68.108,202.169Z" transform="translate(-7.885 -8.009)"/><path class="cls-6" d="M75,201.86l.089.543a2.272,2.272,0,0,1-.465.055,1.049,1.049,0,0,1-.519-.106.594.594,0,0,1-.26-.278,2.211,2.211,0,0,1-.075-.726V199.26h-.451v-.479h.451v-.9l.612-.369v1.267H75v.479h-.618v2.121a1.081,1.081,0,0,0,.032.338.259.259,0,0,0,.106.12.412.412,0,0,0,.21.044A2.059,2.059,0,0,0,75,201.86Z" transform="translate(-7.885 -8.009)"/><path class="cls-6" d="M75.6,202.41V197.4h.615v1.8a1.373,1.373,0,0,1,1.086-.5,1.465,1.465,0,0,1,.7.159.934.934,0,0,1,.425.439,2.022,2.022,0,0,1,.128.813v2.3h-.615v-2.3a.95.95,0,0,0-.2-.671.741.741,0,0,0-.565-.21,1,1,0,0,0-.514.142.8.8,0,0,0-.343.384,1.763,1.763,0,0,0-.1.669v1.985Z" transform="translate(-7.885 -8.009)"/><path class="cls-6" d="M83.248,206.405v-8.59H86.47a3.989,3.989,0,0,1,1.579.261,2.03,2.03,0,0,1,.932.8,2.116,2.116,0,0,1,.337,1.134,1.948,1.948,0,0,1-.3,1.037,2.134,2.134,0,0,1-.9.785,2.244,2.244,0,0,1,1.2.779,2.087,2.087,0,0,1,.419,1.3,2.509,2.509,0,0,1-.255,1.122,2.172,2.172,0,0,1-.63.8,2.629,2.629,0,0,1-.94.425,5.72,5.72,0,0,1-1.386.144Zm1.137-4.98h1.857a4.145,4.145,0,0,0,1.084-.1,1.2,1.2,0,0,0,.653-.428,1.232,1.232,0,0,0,.22-.75,1.381,1.381,0,0,0-.205-.753,1.038,1.038,0,0,0-.586-.445,4.894,4.894,0,0,0-1.307-.12H84.384Zm0,3.967h2.139a4.923,4.923,0,0,0,.773-.041,1.853,1.853,0,0,0,.656-.234,1.244,1.244,0,0,0,.434-.478,1.5,1.5,0,0,0,.17-.724,1.427,1.427,0,0,0-.246-.835,1.3,1.3,0,0,0-.683-.5,4.232,4.232,0,0,0-1.257-.144H84.384Z" transform="translate(-7.885 -8.009)"/><path class="cls-6" d="M91.169,199.028v-1.213h1.055v1.213Zm0,7.377v-6.223h1.055v6.223Z" transform="translate(-7.885 -8.009)"/><path class="cls-6" d="M93.818,206.405v-6.223h.949v.943a2.574,2.574,0,0,1,.671-.873,1.171,1.171,0,0,1,.677-.211,2.057,2.057,0,0,1,1.084.34l-.363.979a1.509,1.509,0,0,0-.773-.229,1,1,0,0,0-.621.208,1.127,1.127,0,0,0-.393.577,4.108,4.108,0,0,0-.176,1.23v3.258Z" transform="translate(-7.885 -8.009)"/><path class="cls-6" d="M100.128,205.462l.152.932a3.912,3.912,0,0,1-.8.094,1.8,1.8,0,0,1-.891-.182,1.017,1.017,0,0,1-.445-.478,3.776,3.776,0,0,1-.129-1.245V201h-.773v-.82h.773v-1.541l1.049-.633v2.174h1.061V201H99.068v3.639a1.838,1.838,0,0,0,.056.58.439.439,0,0,0,.182.205.7.7,0,0,0,.36.076A3.431,3.431,0,0,0,100.128,205.462Z" transform="translate(-7.885 -8.009)"/><path class="cls-6" d="M101.16,206.405v-8.59h1.055V200.9a2.356,2.356,0,0,1,1.863-.855,2.513,2.513,0,0,1,1.2.272,1.6,1.6,0,0,1,.729.753,3.471,3.471,0,0,1,.22,1.395v3.943h-1.055v-3.943a1.629,1.629,0,0,0-.343-1.151,1.275,1.275,0,0,0-.97-.36,1.71,1.71,0,0,0-.882.243,1.373,1.373,0,0,0-.589.659,3.028,3.028,0,0,0-.176,1.148v3.4Z" transform="translate(-7.885 -8.009)"/><path class="cls-6" d="M111.871,206.405v-.785a1.935,1.935,0,0,1-1.74.926,2.44,2.44,0,0,1-1.368-.41,2.7,2.7,0,0,1-.967-1.146,3.959,3.959,0,0,1-.343-1.69,4.424,4.424,0,0,1,.311-1.69,2.449,2.449,0,0,1,.932-1.163,2.491,2.491,0,0,1,1.389-.4,2.075,2.075,0,0,1,1.717.855v-3.082h1.049v8.59Zm-3.334-3.105a2.7,2.7,0,0,0,.5,1.787,1.519,1.519,0,0,0,1.189.592,1.492,1.492,0,0,0,1.175-.565,2.607,2.607,0,0,0,.483-1.726,2.926,2.926,0,0,0-.492-1.875,1.514,1.514,0,0,0-1.213-.6,1.461,1.461,0,0,0-1.175.574A2.834,2.834,0,0,0,108.537,203.3Z" transform="translate(-7.885 -8.009)"/><path class="cls-6" d="M118.568,205.638a3.927,3.927,0,0,1-1.128.7,3.259,3.259,0,0,1-1.163.205,2.262,2.262,0,0,1-1.576-.5,1.654,1.654,0,0,1-.551-1.28,1.7,1.7,0,0,1,.208-.835,1.722,1.722,0,0,1,.545-.606,2.562,2.562,0,0,1,.759-.346,7.536,7.536,0,0,1,.938-.158,9.64,9.64,0,0,0,1.881-.363q.006-.217.006-.275a1.164,1.164,0,0,0-.3-.908,1.765,1.765,0,0,0-1.2-.357,1.863,1.863,0,0,0-1.1.261,1.593,1.593,0,0,0-.524.923l-1.031-.141a2.555,2.555,0,0,1,.463-1.069,2.029,2.029,0,0,1,.932-.627,4.155,4.155,0,0,1,1.412-.22,3.738,3.738,0,0,1,1.295.188,1.706,1.706,0,0,1,.732.472,1.659,1.659,0,0,1,.328.718,5.938,5.938,0,0,1,.053.973V203.8a14.926,14.926,0,0,0,.067,1.86,2.347,2.347,0,0,0,.267.747h-1.1A2.236,2.236,0,0,1,118.568,205.638Zm-.088-2.355a7.738,7.738,0,0,1-1.723.4,3.985,3.985,0,0,0-.92.211.917.917,0,0,0-.416.343.932.932,0,0,0,.173,1.2,1.374,1.374,0,0,0,.935.281,2.175,2.175,0,0,0,1.084-.267,1.642,1.642,0,0,0,.7-.729,2.548,2.548,0,0,0,.17-1.055Z" transform="translate(-7.885 -8.009)"/><path class="cls-6" d="M121.134,208.8l-.117-.99a2.35,2.35,0,0,0,.6.094,1.158,1.158,0,0,0,.563-.117.958.958,0,0,0,.346-.328,5.174,5.174,0,0,0,.322-.785q.029-.088.094-.258l-2.361-6.234h1.137l1.295,3.6q.252.686.451,1.441a14.191,14.191,0,0,1,.434-1.418l1.33-3.627h1.055l-2.367,6.328a12.421,12.421,0,0,1-.592,1.412,2.083,2.083,0,0,1-.645.765,1.522,1.522,0,0,1-.867.243A2.112,2.112,0,0,1,121.134,208.8Z" transform="translate(-7.885 -8.009)"/><path class="cls-6" d="M236.531,192.006h-1.055v-6.721a5.451,5.451,0,0,1-1,.727,7.082,7.082,0,0,1-1.11.545v-1.02a6.369,6.369,0,0,0,1.547-1.008,3.964,3.964,0,0,0,.938-1.148h.68Z" transform="translate(-7.885 -8.009)"/><path class="cls-6" d="M242.314,192.006H241.26v-6.721a5.451,5.451,0,0,1-1,.727,7.082,7.082,0,0,1-1.11.545v-1.02a6.369,6.369,0,0,0,1.547-1.008,3.964,3.964,0,0,0,.938-1.148h.68Z" transform="translate(-7.885 -8.009)"/><path class="cls-6" d="M244.518,192.152l2.49-8.883h.844l-2.484,8.883Z" transform="translate(-7.885 -8.009)"/><path class="cls-6" d="M252.322,192.006h-1.055v-6.721a5.451,5.451,0,0,1-1,.727,7.082,7.082,0,0,1-1.11.545v-1.02a6.369,6.369,0,0,0,1.547-1.008,3.964,3.964,0,0,0,.938-1.148h.68Z" transform="translate(-7.885 -8.009)"/><path class="cls-6" d="M254.525,192.152l2.49-8.883h.844l-2.484,8.883Z" transform="translate(-7.885 -8.009)"/><path class="cls-6" d="M263.9,190.992v1.014h-5.678a1.866,1.866,0,0,1,.123-.732,3.875,3.875,0,0,1,.694-1.143,10.878,10.878,0,0,1,1.38-1.3,11.7,11.7,0,0,0,1.893-1.819,2.178,2.178,0,0,0,.492-1.269,1.409,1.409,0,0,0-.448-1.058,1.617,1.617,0,0,0-1.169-.431,1.647,1.647,0,0,0-1.219.457,1.729,1.729,0,0,0-.463,1.266l-1.084-.111a2.668,2.668,0,0,1,.838-1.849,2.858,2.858,0,0,1,1.951-.636,2.723,2.723,0,0,1,1.957.686,2.251,2.251,0,0,1,.721,1.7,2.577,2.577,0,0,1-.211,1.014,3.934,3.934,0,0,1-.7,1.049,17.058,17.058,0,0,1-1.626,1.512q-.949.8-1.219,1.081a3.468,3.468,0,0,0-.445.571Z" transform="translate(-7.885 -8.009)"/><path class="cls-6" d="M265.031,187.77a7.86,7.86,0,0,1,.313-2.452,3.05,3.05,0,0,1,.932-1.433,2.382,2.382,0,0,1,1.556-.5,2.538,2.538,0,0,1,1.213.278,2.319,2.319,0,0,1,.861.8,4.306,4.306,0,0,1,.533,1.277,8.487,8.487,0,0,1,.193,2.03,7.882,7.882,0,0,1-.311,2.44,3.051,3.051,0,0,1-.929,1.436,2.382,2.382,0,0,1-1.562.507,2.357,2.357,0,0,1-1.951-.891A5.661,5.661,0,0,1,265.031,187.77Zm1.084,0a5.386,5.386,0,0,0,.5,2.815,1.414,1.414,0,0,0,2.443,0,8.252,8.252,0,0,0,0-5.631,1.47,1.47,0,0,0-1.233-.7,1.351,1.351,0,0,0-1.16.615A5.448,5.448,0,0,0,266.115,187.77Z" transform="translate(-7.885 -8.009)"/><path class="cls-6" d="M275.678,192.006h-1.055v-6.721a5.451,5.451,0,0,1-1,.727,7.082,7.082,0,0,1-1.11.545v-1.02a6.369,6.369,0,0,0,1.547-1.008,3.964,3.964,0,0,0,.938-1.148h.68Z" transform="translate(-7.885 -8.009)"/><path class="cls-6" d="M283.922,190.992v1.014h-5.678a1.866,1.866,0,0,1,.123-.732,3.875,3.875,0,0,1,.694-1.143,10.878,10.878,0,0,1,1.38-1.3,11.7,11.7,0,0,0,1.893-1.819,2.178,2.178,0,0,0,.492-1.269,1.409,1.409,0,0,0-.448-1.058,1.617,1.617,0,0,0-1.169-.431,1.647,1.647,0,0,0-1.219.457,1.729,1.729,0,0,0-.463,1.266l-1.084-.111a2.668,2.668,0,0,1,.838-1.849,2.858,2.858,0,0,1,1.951-.636,2.723,2.723,0,0,1,1.957.686,2.251,2.251,0,0,1,.721,1.7,2.577,2.577,0,0,1-.211,1.014,3.934,3.934,0,0,1-.7,1.049,17.058,17.058,0,0,1-1.626,1.512q-.949.8-1.219,1.081a3.468,3.468,0,0,0-.445.571Z" transform="translate(-7.885 -8.009)"/><path class="cls-6" d="M213.492,206.406v-8.59h3.223a3.989,3.989,0,0,1,1.579.261,2.03,2.03,0,0,1,.932.8,2.116,2.116,0,0,1,.337,1.134,1.948,1.948,0,0,1-.3,1.037,2.134,2.134,0,0,1-.9.785,2.244,2.244,0,0,1,1.2.779,2.087,2.087,0,0,1,.419,1.3,2.509,2.509,0,0,1-.255,1.122,2.172,2.172,0,0,1-.63.8,2.629,2.629,0,0,1-.94.425,5.72,5.72,0,0,1-1.386.144Zm1.137-4.98h1.857a4.145,4.145,0,0,0,1.084-.1,1.2,1.2,0,0,0,.653-.428,1.232,1.232,0,0,0,.22-.75,1.381,1.381,0,0,0-.205-.753,1.038,1.038,0,0,0-.586-.445,4.894,4.894,0,0,0-1.307-.12h-1.717Zm0,3.967h2.139a4.923,4.923,0,0,0,.773-.041,1.853,1.853,0,0,0,.656-.234,1.244,1.244,0,0,0,.434-.478,1.5,1.5,0,0,0,.17-.724,1.427,1.427,0,0,0-.246-.835,1.3,1.3,0,0,0-.683-.5,4.232,4.232,0,0,0-1.257-.144h-1.986Z" transform="translate(-7.885 -8.009)"/><path class="cls-6" d="M221.414,199.029v-1.213h1.055v1.213Zm0,7.377v-6.223h1.055v6.223Z" transform="translate(-7.885 -8.009)"/><path class="cls-6" d="M224.051,206.406v-8.59h1.055v8.59Z" transform="translate(-7.885 -8.009)"/><path class="cls-6" d="M226.717,206.406v-8.59h1.055v8.59Z" transform="translate(-7.885 -8.009)"/><path class="cls-6" d="M236.8,205.638a3.927,3.927,0,0,1-1.128.7,3.259,3.259,0,0,1-1.163.205,2.262,2.262,0,0,1-1.576-.5,1.654,1.654,0,0,1-.551-1.28,1.7,1.7,0,0,1,.208-.835,1.722,1.722,0,0,1,.545-.606,2.562,2.562,0,0,1,.759-.346,7.536,7.536,0,0,1,.938-.158,9.64,9.64,0,0,0,1.881-.363q.006-.217.006-.275a1.164,1.164,0,0,0-.3-.908,1.765,1.765,0,0,0-1.2-.357,1.863,1.863,0,0,0-1.1.261,1.593,1.593,0,0,0-.524.923l-1.031-.141a2.555,2.555,0,0,1,.463-1.069,2.029,2.029,0,0,1,.932-.627,4.155,4.155,0,0,1,1.412-.22,3.738,3.738,0,0,1,1.295.188,1.706,1.706,0,0,1,.732.472,1.659,1.659,0,0,1,.328.718,5.938,5.938,0,0,1,.053.973V203.8a14.926,14.926,0,0,0,.067,1.86,2.347,2.347,0,0,0,.267.747h-1.1A2.236,2.236,0,0,1,236.8,205.638Zm-.088-2.355a7.738,7.738,0,0,1-1.723.4,3.985,3.985,0,0,0-.92.211.917.917,0,0,0-.416.343.932.932,0,0,0,.173,1.2,1.374,1.374,0,0,0,.935.281,2.175,2.175,0,0,0,1.084-.267,1.642,1.642,0,0,0,.7-.729,2.548,2.548,0,0,0,.17-1.055Z" transform="translate(-7.885 -8.009)"/><path class="cls-6" d="M241.717,205.462l.152.932a3.912,3.912,0,0,1-.8.094,1.8,1.8,0,0,1-.891-.182,1.017,1.017,0,0,1-.445-.478,3.776,3.776,0,0,1-.129-1.245V201h-.773v-.82h.773v-1.541l1.049-.633v2.174h1.061V201h-1.061v3.639a1.838,1.838,0,0,0,.056.58.439.439,0,0,0,.182.205.7.7,0,0,0,.36.076A3.431,3.431,0,0,0,241.717,205.462Z" transform="translate(-7.885 -8.009)"/><path class="cls-6" d="M245.051,205.462l.152.932a3.912,3.912,0,0,1-.8.094,1.8,1.8,0,0,1-.891-.182,1.017,1.017,0,0,1-.445-.478,3.776,3.776,0,0,1-.129-1.245V201h-.773v-.82h.773v-1.541l1.049-.633v2.174h1.061V201H243.99v3.639a1.838,1.838,0,0,0,.056.58.439.439,0,0,0,.182.205.7.7,0,0,0,.36.076A3.431,3.431,0,0,0,245.051,205.462Z" transform="translate(-7.885 -8.009)"/><path class="cls-6" d="M250.143,205.638a3.927,3.927,0,0,1-1.128.7,3.259,3.259,0,0,1-1.163.205,2.262,2.262,0,0,1-1.576-.5,1.654,1.654,0,0,1-.551-1.28,1.7,1.7,0,0,1,.208-.835,1.722,1.722,0,0,1,.545-.606,2.562,2.562,0,0,1,.759-.346,7.536,7.536,0,0,1,.938-.158,9.64,9.64,0,0,0,1.881-.363q.006-.217.006-.275a1.164,1.164,0,0,0-.3-.908,1.765,1.765,0,0,0-1.2-.357,1.863,1.863,0,0,0-1.1.261,1.593,1.593,0,0,0-.524.923l-1.031-.141a2.555,2.555,0,0,1,.463-1.069,2.029,2.029,0,0,1,.932-.627,4.155,4.155,0,0,1,1.412-.22,3.738,3.738,0,0,1,1.295.188,1.706,1.706,0,0,1,.732.472,1.659,1.659,0,0,1,.328.718,5.938,5.938,0,0,1,.053.973V203.8a14.926,14.926,0,0,0,.067,1.86,2.347,2.347,0,0,0,.267.747h-1.1A2.236,2.236,0,0,1,250.143,205.638Zm-.088-2.355a7.738,7.738,0,0,1-1.723.4,3.985,3.985,0,0,0-.92.211.917.917,0,0,0-.416.343.932.932,0,0,0,.173,1.2,1.374,1.374,0,0,0,.935.281,2.175,2.175,0,0,0,1.084-.267,1.642,1.642,0,0,0,.7-.729,2.548,2.548,0,0,0,.17-1.055Z" transform="translate(-7.885 -8.009)"/><path class="cls-6" d="M252.762,199.029v-1.213h1.055v1.213Zm0,7.377v-6.223h1.055v6.223Z" transform="translate(-7.885 -8.009)"/><path class="cls-6" d="M255.422,206.406v-6.223h.949v.885a2.237,2.237,0,0,1,1.98-1.025,2.6,2.6,0,0,1,1.034.2,1.627,1.627,0,0,1,.706.53,2.035,2.035,0,0,1,.328.779,6.039,6.039,0,0,1,.059,1.025v3.826h-1.055v-3.785a2.841,2.841,0,0,0-.123-.964,1.014,1.014,0,0,0-.437-.51,1.389,1.389,0,0,0-.735-.19,1.709,1.709,0,0,0-1.163.428,2.11,2.11,0,0,0-.489,1.623v3.4Z" transform="translate(-7.885 -8.009)"/><path class="cls-6" d="M261.674,204.548l1.043-.164a1.458,1.458,0,0,0,.489.961,1.705,1.705,0,0,0,1.122.334,1.648,1.648,0,0,0,1.078-.3.885.885,0,0,0,.352-.694.641.641,0,0,0-.311-.562,4.574,4.574,0,0,0-1.078-.357,9.838,9.838,0,0,1-1.608-.507,1.535,1.535,0,0,1-.911-1.427,1.6,1.6,0,0,1,.19-.771,1.708,1.708,0,0,1,.519-.589,2.174,2.174,0,0,1,.671-.308,3.19,3.19,0,0,1,.911-.126,3.6,3.6,0,0,1,1.286.211,1.749,1.749,0,0,1,.817.571,2.232,2.232,0,0,1,.363.964l-1.031.141a1.128,1.128,0,0,0-.407-.75,1.489,1.489,0,0,0-.952-.27,1.724,1.724,0,0,0-1.037.24.7.7,0,0,0-.311.563.582.582,0,0,0,.129.369.93.93,0,0,0,.4.281q.158.059.932.27a12.969,12.969,0,0,1,1.562.489,1.584,1.584,0,0,1,.694.554,1.546,1.546,0,0,1,.252.9,1.771,1.771,0,0,1-.308.993,1.988,1.988,0,0,1-.888.721,3.231,3.231,0,0,1-1.312.255,2.924,2.924,0,0,1-1.849-.5A2.343,2.343,0,0,1,261.674,204.548Z" transform="translate(-7.885 -8.009)"/><path class="cls-6" d="M271.207,198.941v-1.014h5.561v.82a11.718,11.718,0,0,0-1.626,2.32,14.132,14.132,0,0,0-1.245,2.977,11.063,11.063,0,0,0-.4,2.361h-1.084a10.526,10.526,0,0,1,.4-2.449,12.861,12.861,0,0,1,1.093-2.769,11.868,11.868,0,0,1,1.515-2.247Z" transform="translate(-7.885 -8.009)"/><path class="cls-6" d="M277.811,202.169a7.86,7.86,0,0,1,.313-2.452,3.05,3.05,0,0,1,.932-1.433,2.382,2.382,0,0,1,1.556-.5,2.538,2.538,0,0,1,1.213.278,2.319,2.319,0,0,1,.861.8,4.306,4.306,0,0,1,.533,1.277,8.487,8.487,0,0,1,.193,2.03,7.882,7.882,0,0,1-.311,2.44,3.051,3.051,0,0,1-.929,1.436,2.382,2.382,0,0,1-1.562.507,2.357,2.357,0,0,1-1.951-.891A5.661,5.661,0,0,1,277.811,202.169Zm1.084,0a5.386,5.386,0,0,0,.5,2.815,1.414,1.414,0,0,0,2.443,0,8.252,8.252,0,0,0,0-5.631,1.47,1.47,0,0,0-1.233-.7,1.351,1.351,0,0,0-1.16.615A5.448,5.448,0,0,0,278.895,202.169Z" transform="translate(-7.885 -8.009)"/><path class="cls-6" d="M291.791,206.406h-1.055v-6.721a5.451,5.451,0,0,1-1,.727,7.082,7.082,0,0,1-1.11.545v-1.02a6.369,6.369,0,0,0,1.547-1.008,3.964,3.964,0,0,0,.938-1.148h.68Z" transform="translate(-7.885 -8.009)"/><path class="cls-6" d="M293.994,206.552l2.49-8.883h.844l-2.484,8.883Z" transform="translate(-7.885 -8.009)"/><path class="cls-6" d="M303.369,205.392v1.014h-5.678a1.866,1.866,0,0,1,.123-.732,3.875,3.875,0,0,1,.694-1.143,10.878,10.878,0,0,1,1.38-1.3,11.7,11.7,0,0,0,1.893-1.819,2.178,2.178,0,0,0,.492-1.269,1.409,1.409,0,0,0-.448-1.058,1.617,1.617,0,0,0-1.169-.431,1.647,1.647,0,0,0-1.219.457,1.729,1.729,0,0,0-.463,1.266l-1.084-.111a2.668,2.668,0,0,1,.838-1.849,2.858,2.858,0,0,1,1.951-.636,2.723,2.723,0,0,1,1.957.686,2.251,2.251,0,0,1,.721,1.7,2.577,2.577,0,0,1-.211,1.014,3.934,3.934,0,0,1-.7,1.049,17.058,17.058,0,0,1-1.626,1.512q-.949.8-1.219,1.081a3.468,3.468,0,0,0-.445.571Z" transform="translate(-7.885 -8.009)"/><path class="cls-7" d="M408.062,192.006v-2.057h-3.727v-.967l3.92-5.566h.861v5.566h1.16v.967h-1.16v2.057Zm0-3.023v-3.873l-2.689,3.873Z" transform="translate(-7.885 -8.009)"/><path class="cls-7" d="M410.856,192.152l2.49-8.883h.844l-2.484,8.883Z" transform="translate(-7.885 -8.009)"/><path class="cls-7" d="M418.661,192.006h-1.055v-6.721a5.451,5.451,0,0,1-1,.727,7.082,7.082,0,0,1-1.11.545v-1.02a6.369,6.369,0,0,0,1.547-1.008,3.964,3.964,0,0,0,.938-1.148h.68Z" transform="translate(-7.885 -8.009)"/><path class="cls-7" d="M420.864,192.152l2.49-8.883h.844l-2.484,8.883Z" transform="translate(-7.885 -8.009)"/><path class="cls-7" d="M430.239,190.992v1.014h-5.678a1.866,1.866,0,0,1,.123-.732,3.875,3.875,0,0,1,.694-1.143,10.878,10.878,0,0,1,1.38-1.3,11.7,11.7,0,0,0,1.893-1.819,2.178,2.178,0,0,0,.492-1.269,1.409,1.409,0,0,0-.448-1.058,1.617,1.617,0,0,0-1.169-.431,1.647,1.647,0,0,0-1.219.457,1.729,1.729,0,0,0-.463,1.266l-1.084-.111a2.668,2.668,0,0,1,.838-1.849,2.858,2.858,0,0,1,1.951-.636,2.723,2.723,0,0,1,1.957.686,2.251,2.251,0,0,1,.721,1.7,2.577,2.577,0,0,1-.211,1.014,3.934,3.934,0,0,1-.7,1.049,17.058,17.058,0,0,1-1.626,1.512q-.949.8-1.219,1.081a3.468,3.468,0,0,0-.445.571Z" transform="translate(-7.885 -8.009)"/><path class="cls-7" d="M431.37,187.77a7.86,7.86,0,0,1,.313-2.452,3.05,3.05,0,0,1,.932-1.433,2.382,2.382,0,0,1,1.556-.5,2.538,2.538,0,0,1,1.213.278,2.319,2.319,0,0,1,.861.8,4.306,4.306,0,0,1,.533,1.277,8.487,8.487,0,0,1,.193,2.03,7.882,7.882,0,0,1-.311,2.44,3.051,3.051,0,0,1-.929,1.436,2.382,2.382,0,0,1-1.562.507,2.357,2.357,0,0,1-1.951-.891A5.661,5.661,0,0,1,431.37,187.77Zm1.084,0a5.386,5.386,0,0,0,.5,2.815,1.414,1.414,0,0,0,2.443,0,8.252,8.252,0,0,0,0-5.631,1.47,1.47,0,0,0-1.233-.7,1.351,1.351,0,0,0-1.16.615A5.448,5.448,0,0,0,432.454,187.77Z" transform="translate(-7.885 -8.009)"/><path class="cls-7" d="M442.017,192.006h-1.055v-6.721a5.451,5.451,0,0,1-1,.727,7.082,7.082,0,0,1-1.11.545v-1.02a6.369,6.369,0,0,0,1.547-1.008,3.964,3.964,0,0,0,.938-1.148h.68Z" transform="translate(-7.885 -8.009)"/><path class="cls-7" d="M444.724,189.738l1.055-.141a2.324,2.324,0,0,0,.618,1.292,1.527,1.527,0,0,0,1.063.4,1.7,1.7,0,0,0,1.257-.516,1.74,1.74,0,0,0,.513-1.277,1.618,1.618,0,0,0-.475-1.2,1.641,1.641,0,0,0-1.207-.472,3.028,3.028,0,0,0-.744.117l.117-.926a1.612,1.612,0,0,0,.17.012,2.172,2.172,0,0,0,1.213-.352,1.2,1.2,0,0,0,.539-1.084,1.282,1.282,0,0,0-.393-.961,1.4,1.4,0,0,0-1.014-.381,1.436,1.436,0,0,0-1.025.387,1.941,1.941,0,0,0-.527,1.16l-1.055-.187a2.711,2.711,0,0,1,.879-1.644,2.541,2.541,0,0,1,1.705-.583,2.809,2.809,0,0,1,1.295.3,2.183,2.183,0,0,1,.905.823,2.115,2.115,0,0,1,.313,1.107,1.813,1.813,0,0,1-.3,1.014,2.04,2.04,0,0,1-.885.727,1.993,1.993,0,0,1,1.184.729,2.22,2.22,0,0,1,.422,1.386,2.535,2.535,0,0,1-.82,1.907,2.885,2.885,0,0,1-2.074.782,2.7,2.7,0,0,1-1.878-.674A2.606,2.606,0,0,1,444.724,189.738Z" transform="translate(-7.885 -8.009)"/><path class="cls-7" d="M390.176,206.406v-8.59H393.4a3.989,3.989,0,0,1,1.579.261,2.03,2.03,0,0,1,.932.8,2.116,2.116,0,0,1,.337,1.134,1.948,1.948,0,0,1-.3,1.037,2.134,2.134,0,0,1-.9.785,2.244,2.244,0,0,1,1.2.779,2.087,2.087,0,0,1,.419,1.3,2.509,2.509,0,0,1-.255,1.122,2.172,2.172,0,0,1-.63.8,2.629,2.629,0,0,1-.94.425,5.72,5.72,0,0,1-1.386.144Zm1.137-4.98h1.857a4.145,4.145,0,0,0,1.084-.1,1.2,1.2,0,0,0,.653-.428,1.232,1.232,0,0,0,.22-.75,1.381,1.381,0,0,0-.205-.753,1.038,1.038,0,0,0-.586-.445,4.894,4.894,0,0,0-1.307-.12h-1.717Zm0,3.967h2.139a4.923,4.923,0,0,0,.773-.041,1.853,1.853,0,0,0,.656-.234,1.244,1.244,0,0,0,.434-.478,1.5,1.5,0,0,0,.17-.724,1.427,1.427,0,0,0-.246-.835,1.3,1.3,0,0,0-.683-.5,4.232,4.232,0,0,0-1.257-.144h-1.986Z" transform="translate(-7.885 -8.009)"/><path class="cls-7" d="M398.1,199.029v-1.213h1.055v1.213Zm0,7.377v-6.223h1.055v6.223Z" transform="translate(-7.885 -8.009)"/><path class="cls-7" d="M400.734,206.406v-8.59h1.055v8.59Z" transform="translate(-7.885 -8.009)"/><path class="cls-7" d="M403.4,206.406v-8.59h1.055v8.59Z" transform="translate(-7.885 -8.009)"/><path class="cls-7" d="M406.025,198.953v-1.225h1.131v.967a2.585,2.585,0,0,1-.182,1.131,1.6,1.6,0,0,1-.785.715l-.258-.416a.916.916,0,0,0,.472-.407,1.708,1.708,0,0,0,.173-.765Z" transform="translate(-7.885 -8.009)"/><path class="cls-7" d="M408.117,204.548l1.043-.164a1.458,1.458,0,0,0,.489.961,1.705,1.705,0,0,0,1.122.334,1.648,1.648,0,0,0,1.078-.3.885.885,0,0,0,.352-.694.641.641,0,0,0-.311-.562,4.574,4.574,0,0,0-1.078-.357,9.838,9.838,0,0,1-1.608-.507,1.535,1.535,0,0,1-.911-1.427,1.6,1.6,0,0,1,.19-.771,1.708,1.708,0,0,1,.519-.589,2.174,2.174,0,0,1,.671-.308,3.19,3.19,0,0,1,.911-.126,3.6,3.6,0,0,1,1.286.211,1.749,1.749,0,0,1,.817.571,2.232,2.232,0,0,1,.363.964l-1.031.141a1.128,1.128,0,0,0-.407-.75,1.489,1.489,0,0,0-.952-.27,1.724,1.724,0,0,0-1.037.24.7.7,0,0,0-.311.563.582.582,0,0,0,.129.369.93.93,0,0,0,.4.281q.158.059.932.27a12.969,12.969,0,0,1,1.562.489,1.584,1.584,0,0,1,.694.554,1.546,1.546,0,0,1,.252.9,1.771,1.771,0,0,1-.308.993,1.988,1.988,0,0,1-.888.721,3.231,3.231,0,0,1-1.312.255,2.924,2.924,0,0,1-1.849-.5A2.343,2.343,0,0,1,408.117,204.548Z" transform="translate(-7.885 -8.009)"/><path class="cls-7" d="M418.025,206.406v-8.59h3.809a5.069,5.069,0,0,1,1.746.231,1.909,1.909,0,0,1,.955.817,2.439,2.439,0,0,1,.357,1.295,2.16,2.16,0,0,1-.592,1.541,3,3,0,0,1-1.828.8,2.948,2.948,0,0,1,.686.428,5.906,5.906,0,0,1,.943,1.143l1.494,2.338h-1.43l-1.137-1.787q-.5-.773-.82-1.184a2.579,2.579,0,0,0-.577-.574,1.706,1.706,0,0,0-.519-.229,3.415,3.415,0,0,0-.633-.041h-1.318v3.814Zm1.137-4.8h2.443a3.664,3.664,0,0,0,1.219-.161,1.3,1.3,0,0,0,.668-.516,1.4,1.4,0,0,0,.229-.771,1.28,1.28,0,0,0-.442-1,2.07,2.07,0,0,0-1.4-.393h-2.719Z" transform="translate(-7.885 -8.009)"/><path class="cls-7" d="M430.8,204.4l1.09.135a2.659,2.659,0,0,1-.955,1.482,3.236,3.236,0,0,1-3.946-.313,3.285,3.285,0,0,1-.8-2.358A3.438,3.438,0,0,1,427,200.91a2.737,2.737,0,0,1,2.1-.867,2.66,2.66,0,0,1,2.039.85,3.376,3.376,0,0,1,.791,2.391q0,.094-.006.281h-4.641a2.391,2.391,0,0,0,.58,1.57,1.727,1.727,0,0,0,1.3.545,1.614,1.614,0,0,0,.99-.3A2.023,2.023,0,0,0,430.8,204.4Zm-3.463-1.705h3.475a2.108,2.108,0,0,0-.4-1.178,1.616,1.616,0,0,0-1.307-.609,1.675,1.675,0,0,0-1.222.486A1.925,1.925,0,0,0,427.336,202.7Z" transform="translate(-7.885 -8.009)"/><path class="cls-7" d="M437.18,208.791v-3.047a1.887,1.887,0,0,1-.688.574,2.021,2.021,0,0,1-.94.229,2.487,2.487,0,0,1-1.907-.885,3.484,3.484,0,0,1-.8-2.426,4.159,4.159,0,0,1,.325-1.682,2.426,2.426,0,0,1,.943-1.128,2.522,2.522,0,0,1,1.356-.384,2.084,2.084,0,0,1,1.816.973v-.832h.949v8.607Zm-3.252-5.514a2.75,2.75,0,0,0,.5,1.8,1.528,1.528,0,0,0,1.207.6,1.478,1.478,0,0,0,1.16-.571,2.631,2.631,0,0,0,.486-1.737,2.9,2.9,0,0,0-.513-1.869,1.52,1.52,0,0,0-1.2-.627,1.453,1.453,0,0,0-1.163.583A2.847,2.847,0,0,0,433.928,203.277Z" transform="translate(-7.885 -8.009)"/><path class="cls-7" d="M443.965,206.406v-.914a2.278,2.278,0,0,1-1.975,1.055,2.516,2.516,0,0,1-1.028-.211,1.694,1.694,0,0,1-.709-.53,1.987,1.987,0,0,1-.325-.782,5.356,5.356,0,0,1-.064-.984v-3.855h1.055v3.451a6.15,6.15,0,0,0,.064,1.113,1.1,1.1,0,0,0,.422.653,1.307,1.307,0,0,0,.8.237,1.736,1.736,0,0,0,.891-.243,1.352,1.352,0,0,0,.589-.662,3.322,3.322,0,0,0,.173-1.216v-3.334h1.055v6.223Z" transform="translate(-7.885 -8.009)"/><path class="cls-7" d="M446.566,199.029v-1.213h1.055v1.213Zm0,7.377v-6.223h1.055v6.223Z" transform="translate(-7.885 -8.009)"/><path class="cls-7" d="M449.215,206.406v-6.223h.949v.943a2.574,2.574,0,0,1,.671-.873,1.171,1.171,0,0,1,.677-.211,2.057,2.057,0,0,1,1.084.34l-.363.979a1.509,1.509,0,0,0-.773-.229,1,1,0,0,0-.621.208,1.127,1.127,0,0,0-.393.577,4.108,4.108,0,0,0-.176,1.23v3.258Z" transform="translate(-7.885 -8.009)"/><path class="cls-7" d="M457.482,204.4l1.09.135a2.659,2.659,0,0,1-.955,1.482,3.236,3.236,0,0,1-3.946-.313,3.285,3.285,0,0,1-.8-2.358,3.438,3.438,0,0,1,.809-2.437,2.737,2.737,0,0,1,2.1-.867,2.66,2.66,0,0,1,2.039.85,3.376,3.376,0,0,1,.791,2.391q0,.094-.006.281h-4.641a2.391,2.391,0,0,0,.58,1.57,1.727,1.727,0,0,0,1.3.545,1.614,1.614,0,0,0,.99-.3A2.023,2.023,0,0,0,457.482,204.4ZM454.02,202.7h3.475a2.108,2.108,0,0,0-.4-1.178,1.616,1.616,0,0,0-1.307-.609,1.675,1.675,0,0,0-1.222.486A1.925,1.925,0,0,0,454.02,202.7Z" transform="translate(-7.885 -8.009)"/><path class="cls-7" d="M463.934,206.406v-.785a1.935,1.935,0,0,1-1.74.926,2.44,2.44,0,0,1-1.368-.41,2.7,2.7,0,0,1-.967-1.146,3.959,3.959,0,0,1-.343-1.69,4.424,4.424,0,0,1,.311-1.69,2.449,2.449,0,0,1,.932-1.163,2.491,2.491,0,0,1,1.389-.4,2.075,2.075,0,0,1,1.717.855v-3.082h1.049v8.59ZM460.6,203.3a2.7,2.7,0,0,0,.5,1.787,1.519,1.519,0,0,0,1.189.592,1.492,1.492,0,0,0,1.175-.565,2.607,2.607,0,0,0,.483-1.726,2.926,2.926,0,0,0-.492-1.875,1.514,1.514,0,0,0-1.213-.6,1.461,1.461,0,0,0-1.175.574A2.834,2.834,0,0,0,460.6,203.3Z" transform="translate(-7.885 -8.009)"/><path class="cls-7" d="M387.387,220.806v-8.59h3.223a3.989,3.989,0,0,1,1.579.261,2.03,2.03,0,0,1,.932.8,2.116,2.116,0,0,1,.337,1.134,1.948,1.948,0,0,1-.3,1.037,2.134,2.134,0,0,1-.9.785,2.244,2.244,0,0,1,1.2.779,2.087,2.087,0,0,1,.419,1.3,2.509,2.509,0,0,1-.255,1.122,2.172,2.172,0,0,1-.63.8,2.629,2.629,0,0,1-.94.425,5.72,5.72,0,0,1-1.386.144Zm1.137-4.98h1.857a4.145,4.145,0,0,0,1.084-.1,1.2,1.2,0,0,0,.653-.428,1.232,1.232,0,0,0,.22-.75,1.381,1.381,0,0,0-.205-.753,1.038,1.038,0,0,0-.586-.445,4.894,4.894,0,0,0-1.307-.12h-1.717Zm0,3.967h2.139a4.923,4.923,0,0,0,.773-.041,1.853,1.853,0,0,0,.656-.234,1.244,1.244,0,0,0,.434-.478,1.5,1.5,0,0,0,.17-.724,1.427,1.427,0,0,0-.246-.835,1.3,1.3,0,0,0-.683-.5,4.232,4.232,0,0,0-1.257-.144h-1.986Z" transform="translate(-7.885 -8.009)"/><path class="cls-7" d="M399.563,218.8l1.09.135a2.659,2.659,0,0,1-.955,1.482,3.236,3.236,0,0,1-3.946-.313,3.285,3.285,0,0,1-.8-2.358,3.438,3.438,0,0,1,.809-2.437,2.737,2.737,0,0,1,2.1-.867,2.66,2.66,0,0,1,2.039.85,3.376,3.376,0,0,1,.791,2.391q0,.094-.006.281h-4.641a2.391,2.391,0,0,0,.58,1.57,1.727,1.727,0,0,0,1.3.545,1.614,1.614,0,0,0,.99-.3A2.023,2.023,0,0,0,399.563,218.8ZM396.1,217.1h3.475a2.108,2.108,0,0,0-.4-1.178,1.616,1.616,0,0,0-1.307-.609,1.675,1.675,0,0,0-1.222.486A1.925,1.925,0,0,0,396.1,217.1Z" transform="translate(-7.885 -8.009)"/><path class="cls-7" d="M401.783,221.322l1.025.152a.977.977,0,0,0,.357.691,1.756,1.756,0,0,0,1.072.293,1.883,1.883,0,0,0,1.131-.293,1.442,1.442,0,0,0,.539-.82,6.736,6.736,0,0,0,.076-1.354,2.169,2.169,0,0,1-1.723.814,2.349,2.349,0,0,1-1.986-.926,3.565,3.565,0,0,1-.7-2.221,4.133,4.133,0,0,1,.322-1.644,2.578,2.578,0,0,1,.935-1.163,2.523,2.523,0,0,1,1.438-.41,2.231,2.231,0,0,1,1.816.891v-.75h.973v5.379a5.1,5.1,0,0,1-.3,2.06,2.164,2.164,0,0,1-.937.958,3.249,3.249,0,0,1-1.579.352,2.978,2.978,0,0,1-1.8-.5A1.694,1.694,0,0,1,401.783,221.322Zm.873-3.738a2.7,2.7,0,0,0,.486,1.787,1.6,1.6,0,0,0,2.438,0,2.612,2.612,0,0,0,.492-1.755,2.552,2.552,0,0,0-.507-1.723,1.567,1.567,0,0,0-1.222-.58,1.522,1.522,0,0,0-1.2.571A2.537,2.537,0,0,0,402.656,217.583Z" transform="translate(-7.885 -8.009)"/><path class="cls-7" d="M408.656,213.429v-1.213h1.055v1.213Zm0,7.377v-6.223h1.055v6.223Z" transform="translate(-7.885 -8.009)"/><path class="cls-7" d="M411.316,220.806v-6.223h.949v.885a2.237,2.237,0,0,1,1.98-1.025,2.6,2.6,0,0,1,1.034.2,1.627,1.627,0,0,1,.706.53,2.035,2.035,0,0,1,.328.779,6.039,6.039,0,0,1,.059,1.025v3.826h-1.055v-3.785a2.841,2.841,0,0,0-.123-.964,1.014,1.014,0,0,0-.437-.51,1.389,1.389,0,0,0-.735-.19,1.709,1.709,0,0,0-1.163.428,2.11,2.11,0,0,0-.489,1.623v3.4Z" transform="translate(-7.885 -8.009)"/><path class="cls-7" d="M417.99,220.806v-6.223h.949v.885a2.237,2.237,0,0,1,1.98-1.025,2.6,2.6,0,0,1,1.034.2,1.627,1.627,0,0,1,.706.53,2.035,2.035,0,0,1,.328.779,6.039,6.039,0,0,1,.059,1.025v3.826h-1.055v-3.785a2.841,2.841,0,0,0-.123-.964,1.014,1.014,0,0,0-.437-.51,1.389,1.389,0,0,0-.735-.19,1.709,1.709,0,0,0-1.163.428,2.11,2.11,0,0,0-.489,1.623v3.4Z" transform="translate(-7.885 -8.009)"/><path class="cls-7" d="M424.67,213.429v-1.213h1.055v1.213Zm0,7.377v-6.223h1.055v6.223Z" transform="translate(-7.885 -8.009)"/><path class="cls-7" d="M427.33,220.806v-6.223h.949v.885a2.237,2.237,0,0,1,1.98-1.025,2.6,2.6,0,0,1,1.034.2,1.627,1.627,0,0,1,.706.53,2.035,2.035,0,0,1,.328.779,6.039,6.039,0,0,1,.059,1.025v3.826h-1.055v-3.785a2.841,2.841,0,0,0-.123-.964,1.014,1.014,0,0,0-.437-.51,1.389,1.389,0,0,0-.735-.19,1.709,1.709,0,0,0-1.163.428,2.11,2.11,0,0,0-.489,1.623v3.4Z" transform="translate(-7.885 -8.009)"/><path class="cls-7" d="M433.811,221.322l1.025.152a.977.977,0,0,0,.357.691,1.756,1.756,0,0,0,1.072.293,1.883,1.883,0,0,0,1.131-.293,1.442,1.442,0,0,0,.539-.82,6.736,6.736,0,0,0,.076-1.354,2.169,2.169,0,0,1-1.723.814,2.349,2.349,0,0,1-1.986-.926,3.565,3.565,0,0,1-.7-2.221,4.133,4.133,0,0,1,.322-1.644,2.578,2.578,0,0,1,.935-1.163,2.524,2.524,0,0,1,1.438-.41,2.231,2.231,0,0,1,1.816.891v-.75h.973v5.379a5.1,5.1,0,0,1-.3,2.06,2.164,2.164,0,0,1-.937.958,3.249,3.249,0,0,1-1.579.352,2.978,2.978,0,0,1-1.8-.5A1.694,1.694,0,0,1,433.811,221.322Zm.873-3.738a2.7,2.7,0,0,0,.486,1.787,1.6,1.6,0,0,0,2.438,0,2.612,2.612,0,0,0,.492-1.755,2.552,2.552,0,0,0-.507-1.723,1.567,1.567,0,0,0-1.222-.58,1.522,1.522,0,0,0-1.2.571A2.537,2.537,0,0,0,434.684,217.583Z" transform="translate(-7.885 -8.009)"/><path class="cls-7" d="M444.146,220.806v-8.59h2.959a7.177,7.177,0,0,1,1.529.123,2.909,2.909,0,0,1,1.26.615,3.5,3.5,0,0,1,1.017,1.468,5.762,5.762,0,0,1,.337,2.042,6,6,0,0,1-.229,1.734,4.208,4.208,0,0,1-.586,1.251,3.113,3.113,0,0,1-.782.779,3.188,3.188,0,0,1-1.025.431,5.852,5.852,0,0,1-1.38.146Zm1.137-1.014h1.834a4.451,4.451,0,0,0,1.333-.158,1.907,1.907,0,0,0,.771-.445,2.71,2.71,0,0,0,.63-1.087,5.314,5.314,0,0,0,.226-1.655,4,4,0,0,0-.442-2.071,2.226,2.226,0,0,0-1.075-.97,4.444,4.444,0,0,0-1.471-.176h-1.8Z" transform="translate(-7.885 -8.009)"/><path class="cls-7" d="M456.738,220.039a3.927,3.927,0,0,1-1.128.7,3.259,3.259,0,0,1-1.163.205,2.262,2.262,0,0,1-1.576-.5,1.654,1.654,0,0,1-.551-1.28,1.7,1.7,0,0,1,.208-.835,1.722,1.722,0,0,1,.545-.606,2.562,2.562,0,0,1,.759-.346,7.536,7.536,0,0,1,.938-.158,9.64,9.64,0,0,0,1.881-.363q.006-.217.006-.275a1.164,1.164,0,0,0-.3-.908,1.765,1.765,0,0,0-1.2-.357,1.863,1.863,0,0,0-1.1.261,1.593,1.593,0,0,0-.524.923l-1.031-.141a2.555,2.555,0,0,1,.463-1.069,2.029,2.029,0,0,1,.932-.627,4.155,4.155,0,0,1,1.412-.22,3.738,3.738,0,0,1,1.295.188,1.706,1.706,0,0,1,.732.472,1.659,1.659,0,0,1,.328.718,5.938,5.938,0,0,1,.053.973V218.2a14.926,14.926,0,0,0,.067,1.86,2.347,2.347,0,0,0,.267.747h-1.1A2.236,2.236,0,0,1,456.738,220.039Zm-.088-2.355a7.738,7.738,0,0,1-1.723.4,3.985,3.985,0,0,0-.92.211.917.917,0,0,0-.416.343.932.932,0,0,0,.173,1.2,1.374,1.374,0,0,0,.935.281,2.175,2.175,0,0,0,1.084-.267,1.642,1.642,0,0,0,.7-.729,2.548,2.548,0,0,0,.17-1.055Z" transform="translate(-7.885 -8.009)"/><path class="cls-7" d="M461.654,219.863l.152.932a3.912,3.912,0,0,1-.8.094,1.8,1.8,0,0,1-.891-.182,1.017,1.017,0,0,1-.445-.478,3.776,3.776,0,0,1-.129-1.245V215.4h-.773v-.82h.773v-1.541l1.049-.633v2.174h1.061v.82h-1.061v3.639a1.838,1.838,0,0,0,.056.58.439.439,0,0,0,.182.205.7.7,0,0,0,.36.076A3.431,3.431,0,0,0,461.654,219.863Z" transform="translate(-7.885 -8.009)"/><path class="cls-7" d="M466.945,218.8l1.09.135a2.659,2.659,0,0,1-.955,1.482,3.236,3.236,0,0,1-3.946-.313,3.285,3.285,0,0,1-.8-2.358,3.438,3.438,0,0,1,.809-2.437,2.737,2.737,0,0,1,2.1-.867,2.66,2.66,0,0,1,2.039.85,3.376,3.376,0,0,1,.791,2.391q0,.094-.006.281h-4.641a2.391,2.391,0,0,0,.58,1.57,1.727,1.727,0,0,0,1.3.545,1.614,1.614,0,0,0,.99-.3A2.023,2.023,0,0,0,466.945,218.8Zm-3.463-1.705h3.475a2.108,2.108,0,0,0-.4-1.178,1.616,1.616,0,0,0-1.307-.609,1.675,1.675,0,0,0-1.222.486A1.925,1.925,0,0,0,463.482,217.1Z" transform="translate(-7.885 -8.009)"/><path class="cls-7" d="M413.681,237.731a10.544,10.544,0,0,1-1.477-2.578,8.091,8.091,0,0,1-.152-5.73,11.231,11.231,0,0,1,1.629-2.953h.756q-.709,1.219-.937,1.74a9.507,9.507,0,0,0-.562,1.688,9.8,9.8,0,0,0-.252,2.2,10.574,10.574,0,0,0,1.752,5.631Z" transform="translate(-7.885 -8.009)"/><path class="cls-7" d="M415.813,235.206v-8.59h3.809a5.069,5.069,0,0,1,1.746.231,1.909,1.909,0,0,1,.955.817,2.439,2.439,0,0,1,.357,1.295,2.16,2.16,0,0,1-.592,1.541,3,3,0,0,1-1.828.8,2.948,2.948,0,0,1,.686.428,5.906,5.906,0,0,1,.943,1.143l1.494,2.338h-1.43l-1.137-1.787q-.5-.773-.82-1.184a2.579,2.579,0,0,0-.577-.574,1.706,1.706,0,0,0-.519-.229,3.415,3.415,0,0,0-.633-.041H416.95v3.814Zm1.137-4.8h2.443a3.664,3.664,0,0,0,1.219-.161,1.3,1.3,0,0,0,.668-.516,1.4,1.4,0,0,0,.229-.771,1.28,1.28,0,0,0-.442-1,2.07,2.07,0,0,0-1.4-.393H416.95Z" transform="translate(-7.885 -8.009)"/><path class="cls-7" d="M424.415,235.206v-8.59h3.223a3.989,3.989,0,0,1,1.579.261,2.03,2.03,0,0,1,.932.8,2.116,2.116,0,0,1,.337,1.134,1.948,1.948,0,0,1-.3,1.037,2.134,2.134,0,0,1-.9.785,2.244,2.244,0,0,1,1.2.779,2.087,2.087,0,0,1,.419,1.3,2.509,2.509,0,0,1-.255,1.122,2.172,2.172,0,0,1-.63.8,2.629,2.629,0,0,1-.94.425,5.72,5.72,0,0,1-1.386.144Zm1.137-4.98h1.857a4.145,4.145,0,0,0,1.084-.1,1.2,1.2,0,0,0,.653-.428,1.232,1.232,0,0,0,.22-.75,1.381,1.381,0,0,0-.205-.753,1.038,1.038,0,0,0-.586-.445,4.894,4.894,0,0,0-1.307-.12h-1.717Zm0,3.967h2.139a4.923,4.923,0,0,0,.773-.041,1.853,1.853,0,0,0,.656-.234,1.244,1.244,0,0,0,.434-.478,1.5,1.5,0,0,0,.17-.724,1.427,1.427,0,0,0-.246-.835,1.3,1.3,0,0,0-.683-.5,4.232,4.232,0,0,0-1.257-.144h-1.986Z" transform="translate(-7.885 -8.009)"/><path class="cls-7" d="M432.466,235.206v-8.59h2.959a7.177,7.177,0,0,1,1.529.123,2.909,2.909,0,0,1,1.26.615,3.5,3.5,0,0,1,1.017,1.468,5.762,5.762,0,0,1,.337,2.042,6,6,0,0,1-.229,1.734,4.208,4.208,0,0,1-.586,1.251,3.113,3.113,0,0,1-.782.779,3.188,3.188,0,0,1-1.025.431,5.852,5.852,0,0,1-1.38.146Zm1.137-1.014h1.834a4.451,4.451,0,0,0,1.333-.158,1.907,1.907,0,0,0,.771-.445,2.71,2.71,0,0,0,.63-1.087,5.314,5.314,0,0,0,.226-1.655,4,4,0,0,0-.442-2.071,2.226,2.226,0,0,0-1.075-.97,4.444,4.444,0,0,0-1.471-.176h-1.8Z" transform="translate(-7.885 -8.009)"/><path class="cls-7" d="M441.688,237.731h-.756a10.574,10.574,0,0,0,1.752-5.631,9.623,9.623,0,0,0-.252-2.186,9.186,9.186,0,0,0-.557-1.687,19.8,19.8,0,0,0-.943-1.758h.756a11.231,11.231,0,0,1,1.629,2.953,8.072,8.072,0,0,1-.155,5.73A10.73,10.73,0,0,1,441.688,237.731Z" transform="translate(-7.885 -8.009)"/><path class="cls-6" d="M335.268,86.976l-2.279-8.59h1.166l1.307,5.631q.211.885.363,1.758.328-1.377.387-1.588l1.635-5.8h1.371l1.23,4.348a23.036,23.036,0,0,1,.668,3.041q.164-.814.428-1.869l1.348-5.52h1.143l-2.355,8.59h-1.1l-1.811-6.545q-.229-.82-.27-1.008-.135.592-.252,1.008l-1.822,6.545Z" transform="translate(-7.885 -8.009)"/><path class="cls-6" d="M344.965,79.6V78.386h1.055V79.6Zm0,7.377V80.753h1.055v6.223Z" transform="translate(-7.885 -8.009)"/><path class="cls-6" d="M349.928,86.033l.152.932a3.912,3.912,0,0,1-.8.094,1.8,1.8,0,0,1-.891-.182,1.017,1.017,0,0,1-.445-.478,3.776,3.776,0,0,1-.129-1.245v-3.58h-.773v-.82h.773V79.212l1.049-.633v2.174h1.061v.82h-1.061v3.639a1.838,1.838,0,0,0,.056.58A.439.439,0,0,0,349.1,86a.7.7,0,0,0,.36.076A3.431,3.431,0,0,0,349.928,86.033Z" transform="translate(-7.885 -8.009)"/><path class="cls-6" d="M350.959,86.976v-8.59h1.055v3.082a2.356,2.356,0,0,1,1.863-.855,2.513,2.513,0,0,1,1.2.272,1.6,1.6,0,0,1,.729.753,3.471,3.471,0,0,1,.22,1.395v3.943h-1.055V83.033a1.629,1.629,0,0,0-.343-1.151,1.275,1.275,0,0,0-.97-.36,1.71,1.71,0,0,0-.882.243,1.373,1.373,0,0,0-.589.659,3.028,3.028,0,0,0-.176,1.148v3.4Z" transform="translate(-7.885 -8.009)"/><path class="cls-6" d="M361.67,86.976v-.785a1.935,1.935,0,0,1-1.74.926,2.44,2.44,0,0,1-1.368-.41,2.7,2.7,0,0,1-.967-1.146,3.959,3.959,0,0,1-.343-1.69,4.424,4.424,0,0,1,.311-1.69,2.449,2.449,0,0,1,.932-1.163,2.491,2.491,0,0,1,1.389-.4,2.075,2.075,0,0,1,1.717.855V78.386h1.049v8.59Zm-3.334-3.105a2.7,2.7,0,0,0,.5,1.787,1.519,1.519,0,0,0,1.189.592,1.492,1.492,0,0,0,1.175-.565,2.607,2.607,0,0,0,.483-1.726,2.926,2.926,0,0,0-.492-1.875,1.514,1.514,0,0,0-1.213-.6,1.461,1.461,0,0,0-1.175.574A2.834,2.834,0,0,0,358.336,83.871Z" transform="translate(-7.885 -8.009)"/><path class="cls-6" d="M364.295,86.976V80.753h.949V81.7a2.574,2.574,0,0,1,.671-.873,1.171,1.171,0,0,1,.677-.211,2.057,2.057,0,0,1,1.084.34l-.363.979a1.509,1.509,0,0,0-.773-.229,1,1,0,0,0-.621.208,1.127,1.127,0,0,0-.393.577,4.108,4.108,0,0,0-.176,1.23v3.258Z" transform="translate(-7.885 -8.009)"/><path class="cls-6" d="M372.363,86.208a3.927,3.927,0,0,1-1.128.7,3.259,3.259,0,0,1-1.163.205,2.262,2.262,0,0,1-1.576-.5,1.654,1.654,0,0,1-.551-1.28,1.7,1.7,0,0,1,.208-.835,1.722,1.722,0,0,1,.545-.606,2.562,2.562,0,0,1,.759-.346,7.536,7.536,0,0,1,.938-.158,9.64,9.64,0,0,0,1.881-.363q.006-.217.006-.275a1.164,1.164,0,0,0-.3-.908,1.765,1.765,0,0,0-1.2-.357,1.863,1.863,0,0,0-1.1.261,1.593,1.593,0,0,0-.524.923l-1.031-.141a2.555,2.555,0,0,1,.463-1.069,2.029,2.029,0,0,1,.932-.627,4.155,4.155,0,0,1,1.412-.22,3.738,3.738,0,0,1,1.295.188,1.706,1.706,0,0,1,.732.472,1.659,1.659,0,0,1,.328.718,5.938,5.938,0,0,1,.053.973v1.406a14.926,14.926,0,0,0,.067,1.86,2.347,2.347,0,0,0,.267.747h-1.1A2.236,2.236,0,0,1,372.363,86.208Zm-.088-2.355a7.738,7.738,0,0,1-1.723.4,3.985,3.985,0,0,0-.92.211.917.917,0,0,0-.416.343.932.932,0,0,0,.173,1.2,1.374,1.374,0,0,0,.935.281,2.175,2.175,0,0,0,1.084-.267,1.642,1.642,0,0,0,.7-.729,2.548,2.548,0,0,0,.17-1.055Z" transform="translate(-7.885 -8.009)"/><path class="cls-6" d="M376.125,86.976l-1.9-6.223h1.09l.99,3.592.369,1.336q.023-.1.322-1.283l.99-3.645h1.084L380,84.363l.311,1.189.357-1.2,1.066-3.6h1.025l-1.945,6.223h-1.1l-.99-3.727-.24-1.061-1.26,4.787Z" transform="translate(-7.885 -8.009)"/><path class="cls-6" d="M383.221,85.119l1.043-.164a1.458,1.458,0,0,0,.489.961,1.705,1.705,0,0,0,1.122.334,1.648,1.648,0,0,0,1.078-.3.885.885,0,0,0,.352-.694.641.641,0,0,0-.311-.562,4.574,4.574,0,0,0-1.078-.357,9.838,9.838,0,0,1-1.608-.507,1.535,1.535,0,0,1-.911-1.427,1.6,1.6,0,0,1,.19-.771,1.708,1.708,0,0,1,.519-.589,2.174,2.174,0,0,1,.671-.308,3.19,3.19,0,0,1,.911-.126,3.6,3.6,0,0,1,1.286.211,1.749,1.749,0,0,1,.817.571,2.232,2.232,0,0,1,.363.964l-1.031.141a1.128,1.128,0,0,0-.407-.75,1.489,1.489,0,0,0-.952-.27,1.724,1.724,0,0,0-1.037.24.7.7,0,0,0-.311.563.582.582,0,0,0,.129.369.93.93,0,0,0,.4.281q.158.059.932.27a12.969,12.969,0,0,1,1.562.489,1.584,1.584,0,0,1,.694.554,1.546,1.546,0,0,1,.252.9,1.771,1.771,0,0,1-.308.993,1.988,1.988,0,0,1-.888.721,3.231,3.231,0,0,1-1.312.255,2.924,2.924,0,0,1-1.849-.5A2.343,2.343,0,0,1,383.221,85.119Z" transform="translate(-7.885 -8.009)"/><path class="cls-6" d="M393.3,86.976v-8.59h1.137v8.59Z" transform="translate(-7.885 -8.009)"/><path class="cls-6" d="M396.311,86.976V80.753h.949v.885a2.237,2.237,0,0,1,1.98-1.025,2.6,2.6,0,0,1,1.034.2,1.627,1.627,0,0,1,.706.53,2.035,2.035,0,0,1,.328.779,6.039,6.039,0,0,1,.059,1.025v3.826h-1.055V83.191a2.841,2.841,0,0,0-.123-.964,1.014,1.014,0,0,0-.437-.51,1.389,1.389,0,0,0-.735-.19,1.709,1.709,0,0,0-1.163.428,2.11,2.11,0,0,0-.489,1.623v3.4Z" transform="translate(-7.885 -8.009)"/><path class="cls-6" d="M402.99,79.6V78.386h1.055V79.6Zm0,7.377V80.753h1.055v6.223Z" transform="translate(-7.885 -8.009)"/><path class="cls-6" d="M407.953,86.033l.152.932a3.912,3.912,0,0,1-.8.094,1.8,1.8,0,0,1-.891-.182,1.017,1.017,0,0,1-.445-.478,3.776,3.776,0,0,1-.129-1.245v-3.58h-.773v-.82h.773V79.212l1.049-.633v2.174h1.061v.82h-1.061v3.639a1.838,1.838,0,0,0,.056.58.439.439,0,0,0,.182.205.7.7,0,0,0,.36.076A3.431,3.431,0,0,0,407.953,86.033Z" transform="translate(-7.885 -8.009)"/><path class="cls-6" d="M408.99,79.6V78.386h1.055V79.6Zm0,7.377V80.753h1.055v6.223Z" transform="translate(-7.885 -8.009)"/><path class="cls-6" d="M415.711,86.208a3.927,3.927,0,0,1-1.128.7,3.259,3.259,0,0,1-1.163.205,2.262,2.262,0,0,1-1.576-.5,1.654,1.654,0,0,1-.551-1.28,1.7,1.7,0,0,1,.208-.835,1.722,1.722,0,0,1,.545-.606,2.562,2.562,0,0,1,.759-.346,7.536,7.536,0,0,1,.938-.158,9.64,9.64,0,0,0,1.881-.363q.006-.217.006-.275a1.164,1.164,0,0,0-.3-.908,1.765,1.765,0,0,0-1.2-.357,1.863,1.863,0,0,0-1.1.261,1.593,1.593,0,0,0-.524.923l-1.031-.141a2.555,2.555,0,0,1,.463-1.069,2.029,2.029,0,0,1,.932-.627,4.155,4.155,0,0,1,1.412-.22,3.738,3.738,0,0,1,1.295.188,1.706,1.706,0,0,1,.732.472,1.659,1.659,0,0,1,.328.718,5.938,5.938,0,0,1,.053.973v1.406a14.926,14.926,0,0,0,.067,1.86,2.347,2.347,0,0,0,.267.747h-1.1A2.236,2.236,0,0,1,415.711,86.208Zm-.088-2.355a7.738,7.738,0,0,1-1.723.4,3.985,3.985,0,0,0-.92.211.917.917,0,0,0-.416.343.932.932,0,0,0,.173,1.2,1.374,1.374,0,0,0,.935.281,2.175,2.175,0,0,0,1.084-.267,1.642,1.642,0,0,0,.7-.729,2.548,2.548,0,0,0,.17-1.055Z" transform="translate(-7.885 -8.009)"/><path class="cls-6" d="M418.3,86.976v-8.59h1.055v8.59Z" transform="translate(-7.885 -8.009)"/><path class="cls-6" d="M342.448,101.376v-8.59h3.809a5.069,5.069,0,0,1,1.746.231,1.909,1.909,0,0,1,.955.817,2.439,2.439,0,0,1,.357,1.295,2.16,2.16,0,0,1-.592,1.541,3,3,0,0,1-1.828.8,2.948,2.948,0,0,1,.686.428,5.906,5.906,0,0,1,.943,1.143l1.494,2.338h-1.43l-1.137-1.787q-.5-.773-.82-1.184a2.579,2.579,0,0,0-.577-.574,1.706,1.706,0,0,0-.519-.229,3.415,3.415,0,0,0-.633-.041h-1.318v3.814Zm1.137-4.8h2.443a3.664,3.664,0,0,0,1.219-.161,1.3,1.3,0,0,0,.668-.516,1.4,1.4,0,0,0,.229-.771,1.28,1.28,0,0,0-.442-1,2.07,2.07,0,0,0-1.4-.393h-2.719Z" transform="translate(-7.885 -8.009)"/><path class="cls-6" d="M351.062,101.376v-8.59h1.711l2.033,6.082q.281.85.41,1.271.146-.469.457-1.377l2.057-5.977h1.529v8.59h-1.1V94.187l-2.5,7.189h-1.025l-2.484-7.313v7.313Z" transform="translate(-7.885 -8.009)"/><path class="cls-6" d="M361.093,101.376v-8.59h2.959a7.177,7.177,0,0,1,1.529.123,2.909,2.909,0,0,1,1.26.615,3.5,3.5,0,0,1,1.017,1.468,5.762,5.762,0,0,1,.337,2.042,6,6,0,0,1-.229,1.734,4.208,4.208,0,0,1-.586,1.251,3.113,3.113,0,0,1-.782.779,3.188,3.188,0,0,1-1.025.431,5.852,5.852,0,0,1-1.38.146Zm1.137-1.014h1.834a4.451,4.451,0,0,0,1.333-.158,1.907,1.907,0,0,0,.771-.445,2.71,2.71,0,0,0,.63-1.087,5.314,5.314,0,0,0,.226-1.655,4,4,0,0,0-.442-2.071,2.226,2.226,0,0,0-1.075-.97,4.444,4.444,0,0,0-1.471-.176h-1.8Z" transform="translate(-7.885 -8.009)"/><path class="cls-6" d="M372.964,94V92.786h1.055V94Zm0,7.377V95.153h1.055v6.223Z" transform="translate(-7.885 -8.009)"/><path class="cls-6" d="M375.624,101.376V95.153h.949v.885a2.237,2.237,0,0,1,1.98-1.025,2.6,2.6,0,0,1,1.034.2,1.627,1.627,0,0,1,.706.53,2.035,2.035,0,0,1,.328.779,6.039,6.039,0,0,1,.059,1.025v3.826h-1.055V97.591a2.841,2.841,0,0,0-.123-.964,1.014,1.014,0,0,0-.437-.51,1.389,1.389,0,0,0-.735-.19,1.709,1.709,0,0,0-1.163.428,2.11,2.11,0,0,0-.489,1.623v3.4Z" transform="translate(-7.885 -8.009)"/><path class="cls-6" d="M390.882,100.362v1.014H385.2a1.866,1.866,0,0,1,.123-.732,3.875,3.875,0,0,1,.694-1.143,10.878,10.878,0,0,1,1.38-1.3,11.7,11.7,0,0,0,1.893-1.819,2.178,2.178,0,0,0,.492-1.269,1.409,1.409,0,0,0-.448-1.058,1.617,1.617,0,0,0-1.169-.431,1.647,1.647,0,0,0-1.219.457,1.729,1.729,0,0,0-.463,1.266l-1.084-.111a2.668,2.668,0,0,1,.838-1.849,2.858,2.858,0,0,1,1.951-.636,2.723,2.723,0,0,1,1.957.686,2.251,2.251,0,0,1,.721,1.7,2.577,2.577,0,0,1-.211,1.014,3.934,3.934,0,0,1-.7,1.049,17.058,17.058,0,0,1-1.626,1.512q-.949.8-1.219,1.081a3.468,3.468,0,0,0-.445.571Z" transform="translate(-7.885 -8.009)"/><path class="cls-6" d="M392.013,97.14a7.86,7.86,0,0,1,.313-2.452,3.05,3.05,0,0,1,.932-1.433,2.382,2.382,0,0,1,1.556-.5,2.538,2.538,0,0,1,1.213.278,2.319,2.319,0,0,1,.861.8,4.306,4.306,0,0,1,.533,1.277,8.487,8.487,0,0,1,.193,2.03,7.882,7.882,0,0,1-.311,2.44,3.051,3.051,0,0,1-.929,1.436,2.382,2.382,0,0,1-1.562.507,2.357,2.357,0,0,1-1.951-.891A5.661,5.661,0,0,1,392.013,97.14Zm1.084,0a5.386,5.386,0,0,0,.5,2.815,1.414,1.414,0,0,0,2.443,0,5.388,5.388,0,0,0,.5-2.812,5.384,5.384,0,0,0-.5-2.818,1.47,1.47,0,0,0-1.233-.7,1.351,1.351,0,0,0-1.16.615A5.448,5.448,0,0,0,393.1,97.14Z" transform="translate(-7.885 -8.009)"/><path class="cls-6" d="M402.659,101.376H401.6V94.655a5.451,5.451,0,0,1-1,.727,7.082,7.082,0,0,1-1.11.545v-1.02a6.369,6.369,0,0,0,1.547-1.008,3.964,3.964,0,0,0,.938-1.148h.68Z" transform="translate(-7.885 -8.009)"/><path class="cls-6" d="M405.366,99.108l1.055-.141a2.324,2.324,0,0,0,.618,1.292,1.527,1.527,0,0,0,1.063.4,1.7,1.7,0,0,0,1.257-.516,1.74,1.74,0,0,0,.513-1.277,1.618,1.618,0,0,0-.475-1.2,1.641,1.641,0,0,0-1.207-.472,3.028,3.028,0,0,0-.744.117l.117-.926a1.612,1.612,0,0,0,.17.012,2.172,2.172,0,0,0,1.213-.352,1.2,1.2,0,0,0,.539-1.084,1.282,1.282,0,0,0-.393-.961,1.4,1.4,0,0,0-1.014-.381,1.436,1.436,0,0,0-1.025.387,1.941,1.941,0,0,0-.527,1.16l-1.055-.187a2.711,2.711,0,0,1,.879-1.644,2.541,2.541,0,0,1,1.705-.583,2.809,2.809,0,0,1,1.295.3,2.183,2.183,0,0,1,.905.823,2.115,2.115,0,0,1,.313,1.107,1.813,1.813,0,0,1-.3,1.014,2.04,2.04,0,0,1-.885.727,1.993,1.993,0,0,1,1.184.729,2.22,2.22,0,0,1,.422,1.386,2.535,2.535,0,0,1-.82,1.907,2.885,2.885,0,0,1-2.074.782,2.7,2.7,0,0,1-1.878-.674A2.606,2.606,0,0,1,405.366,99.108Z" transform="translate(-7.885 -8.009)"/><rect class="cls-8" x="0.5" y="0.5" width="623.643" height="270.403"/><path class="cls-6" d="M524.037,86.976l-2.279-8.59h1.166l1.307,5.631q.211.885.363,1.758.328-1.377.387-1.588l1.635-5.8h1.371l1.23,4.348a23.036,23.036,0,0,1,.668,3.041q.164-.814.428-1.869l1.348-5.52H532.8l-2.355,8.59h-1.1l-1.811-6.545q-.229-.82-.27-1.008-.135.592-.252,1.008L525.2,86.976Z" transform="translate(-7.885 -8.009)"/><path class="cls-6" d="M533.734,79.6V78.386h1.055V79.6Zm0,7.377V80.753h1.055v6.223Z" transform="translate(-7.885 -8.009)"/><path class="cls-6" d="M538.7,86.033l.152.932a3.912,3.912,0,0,1-.8.094,1.8,1.8,0,0,1-.891-.182,1.017,1.017,0,0,1-.445-.478,3.776,3.776,0,0,1-.129-1.245v-3.58h-.773v-.82h.773V79.212l1.049-.633v2.174H538.7v.82h-1.061v3.639a1.838,1.838,0,0,0,.056.58.439.439,0,0,0,.182.205.7.7,0,0,0,.36.076A3.431,3.431,0,0,0,538.7,86.033Z" transform="translate(-7.885 -8.009)"/><path class="cls-6" d="M539.729,86.976v-8.59h1.055v3.082a2.356,2.356,0,0,1,1.863-.855,2.513,2.513,0,0,1,1.2.272,1.6,1.6,0,0,1,.729.753,3.471,3.471,0,0,1,.22,1.395v3.943h-1.055V83.033a1.629,1.629,0,0,0-.343-1.151,1.275,1.275,0,0,0-.97-.36,1.71,1.71,0,0,0-.882.243,1.373,1.373,0,0,0-.589.659,3.028,3.028,0,0,0-.176,1.148v3.4Z" transform="translate(-7.885 -8.009)"/><path class="cls-6" d="M550.439,86.976v-.785a1.935,1.935,0,0,1-1.74.926,2.44,2.44,0,0,1-1.368-.41,2.7,2.7,0,0,1-.967-1.146,3.959,3.959,0,0,1-.343-1.69,4.424,4.424,0,0,1,.311-1.69,2.449,2.449,0,0,1,.932-1.163,2.491,2.491,0,0,1,1.389-.4,2.075,2.075,0,0,1,1.717.855V78.386h1.049v8.59Zm-3.334-3.105a2.7,2.7,0,0,0,.5,1.787,1.519,1.519,0,0,0,1.189.592,1.492,1.492,0,0,0,1.175-.565,2.607,2.607,0,0,0,.483-1.726,2.926,2.926,0,0,0-.492-1.875,1.514,1.514,0,0,0-1.213-.6,1.461,1.461,0,0,0-1.175.574A2.834,2.834,0,0,0,547.105,83.871Z" transform="translate(-7.885 -8.009)"/><path class="cls-6" d="M553.064,86.976V80.753h.949V81.7a2.574,2.574,0,0,1,.671-.873,1.171,1.171,0,0,1,.677-.211,2.057,2.057,0,0,1,1.084.34l-.363.979a1.509,1.509,0,0,0-.773-.229,1,1,0,0,0-.621.208,1.127,1.127,0,0,0-.393.577,4.108,4.108,0,0,0-.176,1.23v3.258Z" transform="translate(-7.885 -8.009)"/><path class="cls-6" d="M561.133,86.208a3.927,3.927,0,0,1-1.128.7,3.259,3.259,0,0,1-1.163.205,2.262,2.262,0,0,1-1.576-.5,1.654,1.654,0,0,1-.551-1.28,1.7,1.7,0,0,1,.208-.835,1.722,1.722,0,0,1,.545-.606,2.562,2.562,0,0,1,.759-.346,7.536,7.536,0,0,1,.938-.158,9.64,9.64,0,0,0,1.881-.363q.006-.217.006-.275a1.164,1.164,0,0,0-.3-.908,1.765,1.765,0,0,0-1.2-.357,1.863,1.863,0,0,0-1.1.261,1.593,1.593,0,0,0-.524.923l-1.031-.141a2.555,2.555,0,0,1,.463-1.069,2.029,2.029,0,0,1,.932-.627,4.155,4.155,0,0,1,1.412-.22A3.738,3.738,0,0,1,561,80.8a1.706,1.706,0,0,1,.732.472,1.659,1.659,0,0,1,.328.718,5.938,5.938,0,0,1,.053.973v1.406a14.926,14.926,0,0,0,.067,1.86,2.347,2.347,0,0,0,.267.747h-1.1A2.236,2.236,0,0,1,561.133,86.208Zm-.088-2.355a7.738,7.738,0,0,1-1.723.4,3.985,3.985,0,0,0-.92.211.917.917,0,0,0-.416.343.932.932,0,0,0,.173,1.2,1.374,1.374,0,0,0,.935.281,2.175,2.175,0,0,0,1.084-.267,1.642,1.642,0,0,0,.7-.729,2.548,2.548,0,0,0,.17-1.055Z" transform="translate(-7.885 -8.009)"/><path class="cls-6" d="M564.895,86.976l-1.9-6.223h1.09l.99,3.592.369,1.336q.023-.1.322-1.283l.99-3.645h1.084l.932,3.609.311,1.189.357-1.2,1.066-3.6h1.025l-1.945,6.223h-1.1l-.99-3.727-.24-1.061L566,86.976Z" transform="translate(-7.885 -8.009)"/><path class="cls-6" d="M571.99,85.119l1.043-.164a1.458,1.458,0,0,0,.489.961,1.705,1.705,0,0,0,1.122.334,1.648,1.648,0,0,0,1.078-.3.885.885,0,0,0,.352-.694.641.641,0,0,0-.311-.562,4.574,4.574,0,0,0-1.078-.357,9.838,9.838,0,0,1-1.608-.507,1.535,1.535,0,0,1-.911-1.427,1.6,1.6,0,0,1,.19-.771,1.708,1.708,0,0,1,.519-.589,2.174,2.174,0,0,1,.671-.308,3.19,3.19,0,0,1,.911-.126,3.6,3.6,0,0,1,1.286.211,1.749,1.749,0,0,1,.817.571,2.232,2.232,0,0,1,.363.964l-1.031.141a1.128,1.128,0,0,0-.407-.75,1.489,1.489,0,0,0-.952-.27,1.724,1.724,0,0,0-1.037.24.7.7,0,0,0-.311.563.582.582,0,0,0,.129.369.93.93,0,0,0,.4.281q.158.059.932.27a12.969,12.969,0,0,1,1.562.489,1.584,1.584,0,0,1,.694.554,1.546,1.546,0,0,1,.252.9,1.771,1.771,0,0,1-.308.993,1.988,1.988,0,0,1-.888.721,3.231,3.231,0,0,1-1.312.255,2.924,2.924,0,0,1-1.849-.5A2.343,2.343,0,0,1,571.99,85.119Z" transform="translate(-7.885 -8.009)"/><path class="cls-6" d="M526.979,100.362v1.014H521.3a1.866,1.866,0,0,1,.123-.732,3.875,3.875,0,0,1,.694-1.143,10.878,10.878,0,0,1,1.38-1.3,11.7,11.7,0,0,0,1.893-1.819,2.178,2.178,0,0,0,.492-1.269,1.409,1.409,0,0,0-.448-1.058,1.617,1.617,0,0,0-1.169-.431,1.647,1.647,0,0,0-1.219.457,1.729,1.729,0,0,0-.463,1.266l-1.084-.111a2.668,2.668,0,0,1,.838-1.849,2.858,2.858,0,0,1,1.951-.636,2.723,2.723,0,0,1,1.957.686,2.251,2.251,0,0,1,.721,1.7,2.577,2.577,0,0,1-.211,1.014,3.934,3.934,0,0,1-.7,1.049,17.058,17.058,0,0,1-1.626,1.512q-.949.8-1.219,1.081a3.468,3.468,0,0,0-.445.571Z" transform="translate(-7.885 -8.009)"/><path class="cls-6" d="M528.109,97.14a7.86,7.86,0,0,1,.313-2.452,3.05,3.05,0,0,1,.932-1.433,2.382,2.382,0,0,1,1.556-.5,2.538,2.538,0,0,1,1.213.278,2.319,2.319,0,0,1,.861.8,4.306,4.306,0,0,1,.533,1.277,8.487,8.487,0,0,1,.193,2.03,7.882,7.882,0,0,1-.311,2.44,3.051,3.051,0,0,1-.929,1.436,2.382,2.382,0,0,1-1.562.507,2.357,2.357,0,0,1-1.951-.891A5.661,5.661,0,0,1,528.109,97.14Zm1.084,0a5.386,5.386,0,0,0,.5,2.815,1.414,1.414,0,0,0,2.443,0,5.388,5.388,0,0,0,.5-2.812,5.384,5.384,0,0,0-.5-2.818,1.47,1.47,0,0,0-1.233-.7,1.351,1.351,0,0,0-1.16.615A5.448,5.448,0,0,0,529.193,97.14Z" transform="translate(-7.885 -8.009)"/><path class="cls-6" d="M538.756,101.376H537.7V94.655a5.451,5.451,0,0,1-1,.727,7.082,7.082,0,0,1-1.11.545v-1.02a6.369,6.369,0,0,0,1.547-1.008,3.964,3.964,0,0,0,.938-1.148h.68Z" transform="translate(-7.885 -8.009)"/><path class="cls-6" d="M541.463,99.108l1.055-.141a2.324,2.324,0,0,0,.618,1.292,1.527,1.527,0,0,0,1.063.4,1.7,1.7,0,0,0,1.257-.516,1.74,1.74,0,0,0,.513-1.277,1.618,1.618,0,0,0-.475-1.2,1.641,1.641,0,0,0-1.207-.472,3.028,3.028,0,0,0-.744.117l.117-.926a1.612,1.612,0,0,0,.17.012,2.172,2.172,0,0,0,1.213-.352,1.2,1.2,0,0,0,.539-1.084,1.282,1.282,0,0,0-.393-.961,1.4,1.4,0,0,0-1.014-.381A1.436,1.436,0,0,0,543.15,94a1.941,1.941,0,0,0-.527,1.16l-1.055-.187a2.711,2.711,0,0,1,.879-1.644,2.541,2.541,0,0,1,1.705-.583,2.809,2.809,0,0,1,1.295.3,2.183,2.183,0,0,1,.905.823,2.115,2.115,0,0,1,.313,1.107,1.813,1.813,0,0,1-.3,1.014,2.04,2.04,0,0,1-.885.727,1.993,1.993,0,0,1,1.184.729,2.22,2.22,0,0,1,.422,1.386,2.535,2.535,0,0,1-.82,1.907,2.885,2.885,0,0,1-2.074.782,2.7,2.7,0,0,1-1.878-.674A2.606,2.606,0,0,1,541.463,99.108Z" transform="translate(-7.885 -8.009)"/><path class="cls-6" d="M551.91,101.376v-8.59h3.809a5.069,5.069,0,0,1,1.746.231,1.909,1.909,0,0,1,.955.817,2.439,2.439,0,0,1,.357,1.295,2.16,2.16,0,0,1-.592,1.541,3,3,0,0,1-1.828.8,2.948,2.948,0,0,1,.686.428,5.906,5.906,0,0,1,.943,1.143l1.494,2.338h-1.43l-1.137-1.787q-.5-.773-.82-1.184a2.579,2.579,0,0,0-.577-.574A1.706,1.706,0,0,0,555,97.6a3.415,3.415,0,0,0-.633-.041h-1.318v3.814Zm1.137-4.8h2.443a3.664,3.664,0,0,0,1.219-.161,1.3,1.3,0,0,0,.668-.516,1.4,1.4,0,0,0,.229-.771,1.28,1.28,0,0,0-.442-1,2.07,2.07,0,0,0-1.4-.393h-2.719Z" transform="translate(-7.885 -8.009)"/><path class="cls-6" d="M560.523,101.376v-8.59h1.711l2.033,6.082q.281.85.41,1.271.146-.469.457-1.377l2.057-5.977h1.529v8.59h-1.1V94.187l-2.5,7.189H564.1l-2.484-7.313v7.313Z" transform="translate(-7.885 -8.009)"/><path class="cls-6" d="M570.555,101.376v-8.59h2.959a7.177,7.177,0,0,1,1.529.123,2.909,2.909,0,0,1,1.26.615,3.5,3.5,0,0,1,1.017,1.468,5.762,5.762,0,0,1,.337,2.042,6,6,0,0,1-.229,1.734,4.208,4.208,0,0,1-.586,1.251,3.113,3.113,0,0,1-.782.779,3.188,3.188,0,0,1-1.025.431,5.852,5.852,0,0,1-1.38.146Zm1.137-1.014h1.834a4.451,4.451,0,0,0,1.333-.158,1.907,1.907,0,0,0,.771-.445,2.71,2.71,0,0,0,.63-1.087,5.314,5.314,0,0,0,.226-1.655,4,4,0,0,0-.442-2.071,2.226,2.226,0,0,0-1.075-.97A4.444,4.444,0,0,0,573.5,93.8h-1.8Z" transform="translate(-7.885 -8.009)"/><line class="cls-8" x1="85.237" y1="121.159" x2="85.237" y2="160.903"/><line class="cls-8" x1="250.423" y1="121.159" x2="250.423" y2="160.903"/><line class="cls-8" x1="419.654" y1="121.222" x2="419.654" y2="160.965"/><line class="cls-8" x1="577.346" y1="121.222" x2="577.346" y2="160.965"/><path d="M559.672,192.006h-1.055v-6.721a5.451,5.451,0,0,1-1,.727,7.082,7.082,0,0,1-1.11.545v-1.02a6.369,6.369,0,0,0,1.547-1.008,3.964,3.964,0,0,0,.938-1.148h.68Z" transform="translate(-7.885 -8.009)"/><path d="M567.916,190.992v1.014h-5.678a1.866,1.866,0,0,1,.123-.732,3.875,3.875,0,0,1,.694-1.143,10.878,10.878,0,0,1,1.38-1.3,11.7,11.7,0,0,0,1.893-1.819,2.178,2.178,0,0,0,.492-1.269,1.409,1.409,0,0,0-.448-1.058,1.617,1.617,0,0,0-1.169-.431,1.647,1.647,0,0,0-1.219.457,1.729,1.729,0,0,0-.463,1.266l-1.084-.111a2.668,2.668,0,0,1,.838-1.849,2.858,2.858,0,0,1,1.951-.636,2.723,2.723,0,0,1,1.957.686,2.251,2.251,0,0,1,.721,1.7,2.577,2.577,0,0,1-.211,1.014,3.934,3.934,0,0,1-.7,1.049,17.058,17.058,0,0,1-1.626,1.512q-.949.8-1.219,1.081a3.468,3.468,0,0,0-.445.571Z" transform="translate(-7.885 -8.009)"/><path d="M568.549,192.152l2.49-8.883h.844l-2.484,8.883Z" transform="translate(-7.885 -8.009)"/><path d="M572.387,189.738l1.055-.141a2.324,2.324,0,0,0,.618,1.292,1.527,1.527,0,0,0,1.063.4,1.7,1.7,0,0,0,1.257-.516,1.74,1.74,0,0,0,.513-1.277,1.618,1.618,0,0,0-.475-1.2,1.641,1.641,0,0,0-1.207-.472,3.028,3.028,0,0,0-.744.117l.117-.926a1.612,1.612,0,0,0,.17.012,2.172,2.172,0,0,0,1.213-.352,1.2,1.2,0,0,0,.539-1.084,1.282,1.282,0,0,0-.393-.961,1.4,1.4,0,0,0-1.014-.381,1.436,1.436,0,0,0-1.025.387,1.941,1.941,0,0,0-.527,1.16l-1.055-.187a2.711,2.711,0,0,1,.879-1.644,2.541,2.541,0,0,1,1.705-.583,2.809,2.809,0,0,1,1.295.3,2.183,2.183,0,0,1,.905.823,2.115,2.115,0,0,1,.313,1.107,1.813,1.813,0,0,1-.3,1.014,2.04,2.04,0,0,1-.885.727,1.993,1.993,0,0,1,1.184.729,2.22,2.22,0,0,1,.422,1.386,2.535,2.535,0,0,1-.82,1.907,2.885,2.885,0,0,1-2.074.782,2.7,2.7,0,0,1-1.878-.674A2.606,2.606,0,0,1,572.387,189.738Z" transform="translate(-7.885 -8.009)"/><path d="M583.027,192.006h-1.055v-6.721a5.451,5.451,0,0,1-1,.727,7.082,7.082,0,0,1-1.11.545v-1.02a6.369,6.369,0,0,0,1.547-1.008,3.964,3.964,0,0,0,.938-1.148h.68Z" transform="translate(-7.885 -8.009)"/><path d="M585.23,192.152l2.49-8.883h.844l-2.484,8.883Z" transform="translate(-7.885 -8.009)"/><path d="M594.605,190.992v1.014h-5.678a1.866,1.866,0,0,1,.123-.732,3.875,3.875,0,0,1,.694-1.143,10.878,10.878,0,0,1,1.38-1.3,11.7,11.7,0,0,0,1.893-1.819,2.178,2.178,0,0,0,.492-1.269,1.409,1.409,0,0,0-.448-1.058,1.617,1.617,0,0,0-1.169-.431,1.647,1.647,0,0,0-1.219.457,1.729,1.729,0,0,0-.463,1.266l-1.084-.111a2.668,2.668,0,0,1,.838-1.849,2.858,2.858,0,0,1,1.951-.636,2.723,2.723,0,0,1,1.957.686,2.251,2.251,0,0,1,.721,1.7,2.577,2.577,0,0,1-.211,1.014,3.934,3.934,0,0,1-.7,1.049,17.058,17.058,0,0,1-1.626,1.512q-.949.8-1.219,1.081a3.468,3.468,0,0,0-.445.571Z" transform="translate(-7.885 -8.009)"/><path d="M595.736,187.77a7.86,7.86,0,0,1,.313-2.452,3.05,3.05,0,0,1,.932-1.433,2.382,2.382,0,0,1,1.556-.5,2.538,2.538,0,0,1,1.213.278,2.319,2.319,0,0,1,.861.8,4.306,4.306,0,0,1,.533,1.277,8.487,8.487,0,0,1,.193,2.03,7.882,7.882,0,0,1-.311,2.44,3.051,3.051,0,0,1-.929,1.436,2.382,2.382,0,0,1-1.562.507,2.357,2.357,0,0,1-1.951-.891A5.661,5.661,0,0,1,595.736,187.77Zm1.084,0a5.386,5.386,0,0,0,.5,2.815,1.414,1.414,0,0,0,2.443,0,8.252,8.252,0,0,0,0-5.631,1.47,1.47,0,0,0-1.233-.7,1.351,1.351,0,0,0-1.16.615A5.448,5.448,0,0,0,596.82,187.77Z" transform="translate(-7.885 -8.009)"/><path d="M606.383,192.006h-1.055v-6.721a5.451,5.451,0,0,1-1,.727,7.082,7.082,0,0,1-1.11.545v-1.02a6.369,6.369,0,0,0,1.547-1.008,3.964,3.964,0,0,0,.938-1.148h.68Z" transform="translate(-7.885 -8.009)"/><path d="M609.09,189.738l1.055-.141a2.324,2.324,0,0,0,.618,1.292,1.527,1.527,0,0,0,1.063.4,1.7,1.7,0,0,0,1.257-.516,1.74,1.74,0,0,0,.513-1.277,1.618,1.618,0,0,0-.475-1.2,1.641,1.641,0,0,0-1.207-.472,3.028,3.028,0,0,0-.744.117l.117-.926a1.612,1.612,0,0,0,.17.012,2.172,2.172,0,0,0,1.213-.352,1.2,1.2,0,0,0,.539-1.084,1.282,1.282,0,0,0-.393-.961,1.4,1.4,0,0,0-1.014-.381,1.436,1.436,0,0,0-1.025.387,1.941,1.941,0,0,0-.527,1.16l-1.055-.187a2.711,2.711,0,0,1,.879-1.644,2.541,2.541,0,0,1,1.705-.583,2.809,2.809,0,0,1,1.295.3,2.183,2.183,0,0,1,.905.823,2.115,2.115,0,0,1,.313,1.107,1.813,1.813,0,0,1-.3,1.014,2.04,2.04,0,0,1-.885.727,1.993,1.993,0,0,1,1.184.729,2.22,2.22,0,0,1,.422,1.386,2.535,2.535,0,0,1-.82,1.907,2.885,2.885,0,0,1-2.074.782,2.7,2.7,0,0,1-1.878-.674A2.606,2.606,0,0,1,609.09,189.738Z" transform="translate(-7.885 -8.009)"/><path d="M553.8,206.406v-8.59h2.959a7.177,7.177,0,0,1,1.529.123,2.909,2.909,0,0,1,1.26.615,3.5,3.5,0,0,1,1.017,1.468,5.762,5.762,0,0,1,.337,2.042,6,6,0,0,1-.229,1.734,4.208,4.208,0,0,1-.586,1.251,3.113,3.113,0,0,1-.782.779,3.188,3.188,0,0,1-1.025.431,5.852,5.852,0,0,1-1.38.146Zm1.137-1.014h1.834a4.451,4.451,0,0,0,1.333-.158,1.907,1.907,0,0,0,.771-.445,2.71,2.71,0,0,0,.63-1.087,5.314,5.314,0,0,0,.226-1.655,4,4,0,0,0-.442-2.071,2.226,2.226,0,0,0-1.075-.97,4.444,4.444,0,0,0-1.471-.176h-1.8Z" transform="translate(-7.885 -8.009)"/><path d="M566.595,204.4l1.09.135a2.659,2.659,0,0,1-.955,1.482,3.236,3.236,0,0,1-3.946-.313,3.285,3.285,0,0,1-.8-2.358,3.438,3.438,0,0,1,.809-2.437,2.737,2.737,0,0,1,2.1-.867,2.66,2.66,0,0,1,2.039.85,3.376,3.376,0,0,1,.791,2.391q0,.094-.006.281h-4.641a2.391,2.391,0,0,0,.58,1.57,1.727,1.727,0,0,0,1.3.545,1.614,1.614,0,0,0,.99-.3A2.023,2.023,0,0,0,566.595,204.4Zm-3.463-1.705h3.475a2.108,2.108,0,0,0-.4-1.178,1.616,1.616,0,0,0-1.307-.609,1.675,1.675,0,0,0-1.222.486A1.925,1.925,0,0,0,563.132,202.7Z" transform="translate(-7.885 -8.009)"/><path d="M573.069,205.638a3.927,3.927,0,0,1-1.128.7,3.259,3.259,0,0,1-1.163.205,2.262,2.262,0,0,1-1.576-.5,1.654,1.654,0,0,1-.551-1.28,1.7,1.7,0,0,1,.208-.835,1.722,1.722,0,0,1,.545-.606,2.562,2.562,0,0,1,.759-.346,7.536,7.536,0,0,1,.938-.158,9.64,9.64,0,0,0,1.881-.363q.006-.217.006-.275a1.164,1.164,0,0,0-.3-.908,1.765,1.765,0,0,0-1.2-.357,1.863,1.863,0,0,0-1.1.261,1.593,1.593,0,0,0-.524.923l-1.031-.141a2.555,2.555,0,0,1,.463-1.069,2.029,2.029,0,0,1,.932-.627,4.155,4.155,0,0,1,1.412-.22,3.738,3.738,0,0,1,1.295.188,1.706,1.706,0,0,1,.732.472,1.659,1.659,0,0,1,.328.718,5.938,5.938,0,0,1,.053.973V203.8a14.926,14.926,0,0,0,.067,1.86,2.347,2.347,0,0,0,.267.747h-1.1A2.236,2.236,0,0,1,573.069,205.638Zm-.088-2.355a7.738,7.738,0,0,1-1.723.4,3.985,3.985,0,0,0-.92.211.917.917,0,0,0-.416.343.932.932,0,0,0,.173,1.2,1.374,1.374,0,0,0,.935.281,2.175,2.175,0,0,0,1.084-.267,1.642,1.642,0,0,0,.7-.729,2.548,2.548,0,0,0,.17-1.055Z" transform="translate(-7.885 -8.009)"/><path d="M579.72,206.406v-.785a1.935,1.935,0,0,1-1.74.926,2.44,2.44,0,0,1-1.368-.41,2.7,2.7,0,0,1-.967-1.146,3.959,3.959,0,0,1-.343-1.69,4.424,4.424,0,0,1,.311-1.69,2.449,2.449,0,0,1,.932-1.163,2.491,2.491,0,0,1,1.389-.4,2.075,2.075,0,0,1,1.717.855v-3.082H580.7v8.59Zm-3.334-3.105a2.7,2.7,0,0,0,.5,1.787,1.519,1.519,0,0,0,1.189.592,1.492,1.492,0,0,0,1.175-.565,2.607,2.607,0,0,0,.483-1.726,2.926,2.926,0,0,0-.492-1.875,1.514,1.514,0,0,0-1.213-.6,1.461,1.461,0,0,0-1.175.574A2.834,2.834,0,0,0,576.386,203.3Z" transform="translate(-7.885 -8.009)"/><path d="M582.333,206.406v-8.59h1.055v8.59Z" transform="translate(-7.885 -8.009)"/><path d="M585.028,199.029v-1.213h1.055v1.213Zm0,7.377v-6.223h1.055v6.223Z" transform="translate(-7.885 -8.009)"/><path d="M587.688,206.406v-6.223h.949v.885a2.237,2.237,0,0,1,1.98-1.025,2.6,2.6,0,0,1,1.034.2,1.627,1.627,0,0,1,.706.53,2.035,2.035,0,0,1,.328.779,6.039,6.039,0,0,1,.059,1.025v3.826H591.69v-3.785a2.841,2.841,0,0,0-.123-.964,1.014,1.014,0,0,0-.437-.51,1.389,1.389,0,0,0-.735-.19,1.709,1.709,0,0,0-1.163.428,2.11,2.11,0,0,0-.489,1.623v3.4Z" transform="translate(-7.885 -8.009)"/><path d="M598.622,204.4l1.09.135a2.659,2.659,0,0,1-.955,1.482,3.236,3.236,0,0,1-3.946-.313,3.285,3.285,0,0,1-.8-2.358,3.438,3.438,0,0,1,.809-2.437,2.737,2.737,0,0,1,2.1-.867,2.66,2.66,0,0,1,2.039.85,3.376,3.376,0,0,1,.791,2.391q0,.094-.006.281H595.1a2.391,2.391,0,0,0,.58,1.57,1.727,1.727,0,0,0,1.3.545,1.614,1.614,0,0,0,.99-.3A2.023,2.023,0,0,0,598.622,204.4Zm-3.463-1.705h3.475a2.108,2.108,0,0,0-.4-1.178,1.616,1.616,0,0,0-1.307-.609,1.675,1.675,0,0,0-1.222.486A1.925,1.925,0,0,0,595.159,202.7Z" transform="translate(-7.885 -8.009)"/><path d="M604.622,206.406V201h-.932v-.82h.932v-.662a2.9,2.9,0,0,1,.111-.932,1.349,1.349,0,0,1,.536-.665,1.932,1.932,0,0,1,1.075-.255,5.163,5.163,0,0,1,.984.105l-.158.92a3.539,3.539,0,0,0-.621-.059.924.924,0,0,0-.68.205,1.112,1.112,0,0,0-.2.768v.574h1.213V201h-1.213v5.4Z" transform="translate(-7.885 -8.009)"/><path d="M607.312,203.294a3.207,3.207,0,0,1,.961-2.561,2.9,2.9,0,0,1,1.957-.691,2.792,2.792,0,0,1,2.1.841,3.2,3.2,0,0,1,.814,2.323,4.117,4.117,0,0,1-.36,1.89,2.551,2.551,0,0,1-1.049,1.069,3.054,3.054,0,0,1-1.5.381,2.8,2.8,0,0,1-2.112-.838A3.347,3.347,0,0,1,607.312,203.294Zm1.084,0a2.65,2.65,0,0,0,.521,1.79,1.736,1.736,0,0,0,2.619,0,2.713,2.713,0,0,0,.521-1.822,2.571,2.571,0,0,0-.524-1.749,1.739,1.739,0,0,0-2.616,0A2.639,2.639,0,0,0,608.4,203.294Z" transform="translate(-7.885 -8.009)"/><path d="M614.366,206.406v-6.223h.949v.943a2.574,2.574,0,0,1,.671-.873,1.171,1.171,0,0,1,.677-.211,2.057,2.057,0,0,1,1.084.34l-.363.979a1.509,1.509,0,0,0-.773-.229,1,1,0,0,0-.621.208,1.127,1.127,0,0,0-.393.577,4.108,4.108,0,0,0-.176,1.23v3.258Z" transform="translate(-7.885 -8.009)"/><path d="M562.593,219.792v1.014h-5.678a1.866,1.866,0,0,1,.123-.732,3.875,3.875,0,0,1,.694-1.143,10.878,10.878,0,0,1,1.38-1.3A11.7,11.7,0,0,0,561,215.811a2.178,2.178,0,0,0,.492-1.269,1.409,1.409,0,0,0-.448-1.058,1.617,1.617,0,0,0-1.169-.431,1.647,1.647,0,0,0-1.219.457,1.729,1.729,0,0,0-.463,1.266l-1.084-.111a2.668,2.668,0,0,1,.838-1.849,2.858,2.858,0,0,1,1.951-.636,2.723,2.723,0,0,1,1.957.686,2.251,2.251,0,0,1,.721,1.7,2.577,2.577,0,0,1-.211,1.014,3.934,3.934,0,0,1-.7,1.049,17.058,17.058,0,0,1-1.626,1.512q-.949.8-1.219,1.081a3.468,3.468,0,0,0-.445.571Z" transform="translate(-7.885 -8.009)"/><path d="M563.724,216.57a7.86,7.86,0,0,1,.313-2.452,3.05,3.05,0,0,1,.932-1.433,2.382,2.382,0,0,1,1.556-.5,2.538,2.538,0,0,1,1.213.278,2.319,2.319,0,0,1,.861.8,4.306,4.306,0,0,1,.533,1.277,8.487,8.487,0,0,1,.193,2.03,7.882,7.882,0,0,1-.311,2.44,3.051,3.051,0,0,1-.929,1.436,2.382,2.382,0,0,1-1.562.507,2.357,2.357,0,0,1-1.951-.891A5.661,5.661,0,0,1,563.724,216.57Zm1.084,0a5.386,5.386,0,0,0,.5,2.815,1.414,1.414,0,0,0,2.443,0,8.252,8.252,0,0,0,0-5.631,1.47,1.47,0,0,0-1.233-.7,1.351,1.351,0,0,0-1.16.615A5.448,5.448,0,0,0,564.808,216.57Z" transform="translate(-7.885 -8.009)"/><path d="M574.37,220.806h-1.055v-6.721a5.451,5.451,0,0,1-1,.727,7.082,7.082,0,0,1-1.11.545v-1.02a6.369,6.369,0,0,0,1.547-1.008,3.964,3.964,0,0,0,.938-1.148h.68Z" transform="translate(-7.885 -8.009)"/><path d="M577.077,218.539l1.055-.141a2.324,2.324,0,0,0,.618,1.292,1.527,1.527,0,0,0,1.063.4,1.7,1.7,0,0,0,1.257-.516,1.74,1.74,0,0,0,.513-1.277,1.618,1.618,0,0,0-.475-1.2,1.641,1.641,0,0,0-1.207-.472,3.028,3.028,0,0,0-.744.117l.117-.926a1.612,1.612,0,0,0,.17.012,2.172,2.172,0,0,0,1.213-.352,1.2,1.2,0,0,0,.539-1.084,1.282,1.282,0,0,0-.393-.961,1.4,1.4,0,0,0-1.014-.381,1.436,1.436,0,0,0-1.025.387,1.941,1.941,0,0,0-.527,1.16l-1.055-.187a2.711,2.711,0,0,1,.879-1.644,2.541,2.541,0,0,1,1.705-.583,2.809,2.809,0,0,1,1.295.3,2.183,2.183,0,0,1,.905.823,2.115,2.115,0,0,1,.313,1.107,1.813,1.813,0,0,1-.3,1.014,2.04,2.04,0,0,1-.885.727,1.993,1.993,0,0,1,1.184.729,2.22,2.22,0,0,1,.422,1.386,2.535,2.535,0,0,1-.82,1.907,2.885,2.885,0,0,1-2.074.782,2.7,2.7,0,0,1-1.878-.674A2.606,2.606,0,0,1,577.077,218.539Z" transform="translate(-7.885 -8.009)"/><path d="M587.524,220.806v-8.59h3.809a5.069,5.069,0,0,1,1.746.231,1.909,1.909,0,0,1,.955.817,2.439,2.439,0,0,1,.357,1.295,2.16,2.16,0,0,1-.592,1.541,3,3,0,0,1-1.828.8,2.948,2.948,0,0,1,.686.428,5.906,5.906,0,0,1,.943,1.143l1.494,2.338h-1.43l-1.137-1.787q-.5-.773-.82-1.184a2.579,2.579,0,0,0-.577-.574,1.706,1.706,0,0,0-.519-.229,3.415,3.415,0,0,0-.633-.041h-1.318v3.814Zm1.137-4.8H591.1a3.664,3.664,0,0,0,1.219-.161,1.3,1.3,0,0,0,.668-.516,1.4,1.4,0,0,0,.229-.771,1.28,1.28,0,0,0-.442-1,2.07,2.07,0,0,0-1.4-.393h-2.719Z" transform="translate(-7.885 -8.009)"/><path d="M596.138,220.806v-8.59h1.711l2.033,6.082q.281.85.41,1.271.146-.469.457-1.377l2.057-5.977h1.529v8.59h-1.1v-7.189l-2.5,7.189h-1.025l-2.484-7.312v7.313Z" transform="translate(-7.885 -8.009)"/><path d="M606.169,220.806v-8.59h2.959a7.177,7.177,0,0,1,1.529.123,2.909,2.909,0,0,1,1.26.615,3.5,3.5,0,0,1,1.017,1.468,5.762,5.762,0,0,1,.337,2.042,6,6,0,0,1-.229,1.734,4.208,4.208,0,0,1-.586,1.251,3.113,3.113,0,0,1-.782.779,3.188,3.188,0,0,1-1.025.431,5.852,5.852,0,0,1-1.38.146Zm1.137-1.014h1.834a4.451,4.451,0,0,0,1.333-.158,1.907,1.907,0,0,0,.771-.445,2.71,2.71,0,0,0,.63-1.087,5.314,5.314,0,0,0,.226-1.655,4,4,0,0,0-.442-2.071,2.226,2.226,0,0,0-1.075-.97,4.444,4.444,0,0,0-1.471-.176h-1.8Z" transform="translate(-7.885 -8.009)"/></svg>