<svg id="Layer_1" data-name="Layer 1" xmlns="http://www.w3.org/2000/svg" viewBox="0 0 590.103 271.403"><defs><style>.cls-1,.cls-10,.cls-2,.cls-3{fill:none;}.cls-1,.cls-4{stroke:#299646;}.cls-1,.cls-10,.cls-2,.cls-3,.cls-4,.cls-5,.cls-6{stroke-miterlimit:10;}.cls-1,.cls-2,.cls-3,.cls-4,.cls-5,.cls-6{stroke-width:3px;}.cls-2,.cls-6{stroke:#df1f29;}.cls-3{stroke:#34449b;}.cls-4{fill:#299646;}.cls-5{fill:#34469a;stroke:#34469a;}.cls-6,.cls-8{fill:#df1f29;}.cls-7{fill:#231f20;}.cls-9{fill:#edd017;}.cls-10{stroke:#231f20;}</style></defs><title>When_Must_RMDs_Begin_01</title><line class="cls-1" x1="14.372" y1="37.094" x2="66.295" y2="37.094"/><line class="cls-2" x1="94.295" y1="37.094" x2="146.218" y2="37.094"/><line class="cls-3" x1="174.218" y1="37.094" x2="226.141" y2="37.094"/><polygon class="cls-4" points="28.186 37.094 21.279 49.057 14.372 37.094 28.186 37.094"/><polygon class="cls-5" points="188.032 37.094 181.125 49.057 174.218 37.094 188.032 37.094"/><polygon class="cls-6" points="108.109 37.094 101.202 49.057 94.295 37.094 108.109 37.094"/><path class="cls-7" d="M32.3,41.644v1.014H26.62a1.866,1.866,0,0,1,.123-.732,3.875,3.875,0,0,1,.694-1.143,10.878,10.878,0,0,1,1.38-1.3,11.7,11.7,0,0,0,1.893-1.819,2.178,2.178,0,0,0,.492-1.269,1.409,1.409,0,0,0-.448-1.058,1.617,1.617,0,0,0-1.169-.431,1.647,1.647,0,0,0-1.219.457,1.729,1.729,0,0,0-.463,1.266l-1.084-.111a2.668,2.668,0,0,1,.838-1.849,2.858,2.858,0,0,1,1.951-.636,2.723,2.723,0,0,1,1.957.686,2.251,2.251,0,0,1,.721,1.7,2.577,2.577,0,0,1-.211,1.014,3.934,3.934,0,0,1-.7,1.049,17.058,17.058,0,0,1-1.626,1.512q-.949.8-1.219,1.081a3.468,3.468,0,0,0-.445.571Z" transform="translate(-11.885 -13.009)"/><path class="cls-7" d="M33.428,38.421a7.86,7.86,0,0,1,.313-2.452,3.05,3.05,0,0,1,.932-1.433,2.382,2.382,0,0,1,1.556-.5,2.538,2.538,0,0,1,1.213.278,2.319,2.319,0,0,1,.861.8,4.306,4.306,0,0,1,.533,1.277,8.487,8.487,0,0,1,.193,2.03,7.882,7.882,0,0,1-.311,2.44,3.051,3.051,0,0,1-.929,1.436,2.382,2.382,0,0,1-1.562.507,2.357,2.357,0,0,1-1.951-.891A5.661,5.661,0,0,1,33.428,38.421Zm1.084,0a5.386,5.386,0,0,0,.5,2.815,1.414,1.414,0,0,0,2.443,0,5.388,5.388,0,0,0,.5-2.812,5.384,5.384,0,0,0-.5-2.818,1.47,1.47,0,0,0-1.233-.7,1.351,1.351,0,0,0-1.16.615A5.448,5.448,0,0,0,34.512,38.421Z" transform="translate(-11.885 -13.009)"/><path class="cls-7" d="M44.075,42.658H43.02V35.937a5.451,5.451,0,0,1-1,.727,7.082,7.082,0,0,1-1.11.545v-1.02a6.369,6.369,0,0,0,1.547-1.008,3.964,3.964,0,0,0,.938-1.148h.68Z" transform="translate(-11.885 -13.009)"/><path class="cls-7" d="M52.319,41.644v1.014H46.641a1.866,1.866,0,0,1,.123-.732,3.875,3.875,0,0,1,.694-1.143,10.878,10.878,0,0,1,1.38-1.3,11.7,11.7,0,0,0,1.893-1.819,2.178,2.178,0,0,0,.492-1.269,1.409,1.409,0,0,0-.448-1.058,1.617,1.617,0,0,0-1.169-.431,1.647,1.647,0,0,0-1.219.457,1.729,1.729,0,0,0-.463,1.266l-1.084-.111a2.668,2.668,0,0,1,.838-1.849,2.858,2.858,0,0,1,1.951-.636,2.723,2.723,0,0,1,1.957.686,2.251,2.251,0,0,1,.721,1.7,2.577,2.577,0,0,1-.211,1.014,3.934,3.934,0,0,1-.7,1.049,17.058,17.058,0,0,1-1.626,1.512q-.949.8-1.219,1.081a3.468,3.468,0,0,0-.445.571Z" transform="translate(-11.885 -13.009)"/><path class="cls-7" d="M112.6,41.644v1.014h-5.678a1.866,1.866,0,0,1,.123-.732,3.875,3.875,0,0,1,.694-1.143,10.878,10.878,0,0,1,1.38-1.3,11.7,11.7,0,0,0,1.893-1.819,2.178,2.178,0,0,0,.492-1.269,1.409,1.409,0,0,0-.448-1.058,1.617,1.617,0,0,0-1.169-.431,1.647,1.647,0,0,0-1.219.457,1.729,1.729,0,0,0-.463,1.266l-1.084-.111a2.668,2.668,0,0,1,.838-1.849,2.858,2.858,0,0,1,1.951-.636,2.723,2.723,0,0,1,1.957.686,2.251,2.251,0,0,1,.721,1.7,2.577,2.577,0,0,1-.211,1.014,3.934,3.934,0,0,1-.7,1.049,17.058,17.058,0,0,1-1.626,1.512q-.949.8-1.219,1.081a3.468,3.468,0,0,0-.445.571Z" transform="translate(-11.885 -13.009)"/><path class="cls-7" d="M113.736,38.421a7.86,7.86,0,0,1,.313-2.452,3.05,3.05,0,0,1,.932-1.433,2.382,2.382,0,0,1,1.556-.5,2.538,2.538,0,0,1,1.213.278,2.319,2.319,0,0,1,.861.8,4.306,4.306,0,0,1,.533,1.277,8.487,8.487,0,0,1,.193,2.03,7.882,7.882,0,0,1-.311,2.44A3.051,3.051,0,0,1,118.1,42.3a2.382,2.382,0,0,1-1.562.507,2.357,2.357,0,0,1-1.951-.891A5.661,5.661,0,0,1,113.736,38.421Zm1.084,0a5.386,5.386,0,0,0,.5,2.815,1.414,1.414,0,0,0,2.443,0,5.388,5.388,0,0,0,.5-2.812,5.384,5.384,0,0,0-.5-2.818,1.47,1.47,0,0,0-1.233-.7,1.351,1.351,0,0,0-1.16.615A5.448,5.448,0,0,0,114.82,38.421Z" transform="translate(-11.885 -13.009)"/><path class="cls-7" d="M124.382,42.658h-1.055V35.937a5.451,5.451,0,0,1-1,.727,7.082,7.082,0,0,1-1.11.545v-1.02a6.369,6.369,0,0,0,1.547-1.008,3.964,3.964,0,0,0,.938-1.148h.68Z" transform="translate(-11.885 -13.009)"/><path class="cls-7" d="M127.089,40.39l1.055-.141a2.324,2.324,0,0,0,.618,1.292,1.527,1.527,0,0,0,1.063.4,1.7,1.7,0,0,0,1.257-.516,1.74,1.74,0,0,0,.513-1.277,1.618,1.618,0,0,0-.475-1.2,1.641,1.641,0,0,0-1.207-.472,3.028,3.028,0,0,0-.744.117l.117-.926a1.612,1.612,0,0,0,.17.012,2.172,2.172,0,0,0,1.213-.352,1.2,1.2,0,0,0,.539-1.084,1.282,1.282,0,0,0-.393-.961A1.4,1.4,0,0,0,129.8,34.9a1.436,1.436,0,0,0-1.025.387,1.941,1.941,0,0,0-.527,1.16l-1.055-.187a2.711,2.711,0,0,1,.879-1.644,2.541,2.541,0,0,1,1.705-.583,2.809,2.809,0,0,1,1.295.3,2.183,2.183,0,0,1,.905.823,2.115,2.115,0,0,1,.313,1.107,1.813,1.813,0,0,1-.3,1.014,2.04,2.04,0,0,1-.885.727,1.993,1.993,0,0,1,1.184.729,2.22,2.22,0,0,1,.422,1.386,2.535,2.535,0,0,1-.82,1.907,2.885,2.885,0,0,1-2.074.782,2.7,2.7,0,0,1-1.878-.674A2.606,2.606,0,0,1,127.089,40.39Z" transform="translate(-11.885 -13.009)"/><path class="cls-7" d="M191.887,42.181v1.014h-5.678a1.866,1.866,0,0,1,.123-.732,3.875,3.875,0,0,1,.694-1.143,10.878,10.878,0,0,1,1.38-1.3A11.7,11.7,0,0,0,190.3,38.2a2.178,2.178,0,0,0,.492-1.269,1.409,1.409,0,0,0-.448-1.058,1.617,1.617,0,0,0-1.169-.431,1.647,1.647,0,0,0-1.219.457,1.729,1.729,0,0,0-.463,1.266l-1.084-.111a2.668,2.668,0,0,1,.838-1.849,2.858,2.858,0,0,1,1.951-.636,2.723,2.723,0,0,1,1.957.686,2.251,2.251,0,0,1,.721,1.7,2.577,2.577,0,0,1-.211,1.014,3.934,3.934,0,0,1-.7,1.049,17.058,17.058,0,0,1-1.626,1.512q-.949.8-1.219,1.081a3.468,3.468,0,0,0-.445.571Z" transform="translate(-11.885 -13.009)"/><path class="cls-7" d="M193.018,38.958a7.86,7.86,0,0,1,.313-2.452,3.05,3.05,0,0,1,.932-1.433,2.382,2.382,0,0,1,1.556-.5,2.538,2.538,0,0,1,1.213.278,2.319,2.319,0,0,1,.861.8,4.306,4.306,0,0,1,.533,1.277,8.487,8.487,0,0,1,.193,2.03,7.882,7.882,0,0,1-.311,2.44,3.051,3.051,0,0,1-.929,1.436,2.382,2.382,0,0,1-1.562.507,2.357,2.357,0,0,1-1.951-.891A5.661,5.661,0,0,1,193.018,38.958Zm1.084,0a5.386,5.386,0,0,0,.5,2.815,1.414,1.414,0,0,0,2.443,0,5.388,5.388,0,0,0,.5-2.812,5.384,5.384,0,0,0-.5-2.818,1.47,1.47,0,0,0-1.233-.7,1.351,1.351,0,0,0-1.16.615A5.448,5.448,0,0,0,194.1,38.958Z" transform="translate(-11.885 -13.009)"/><path class="cls-7" d="M203.665,43.194H202.61V36.474a5.451,5.451,0,0,1-1,.727,7.082,7.082,0,0,1-1.11.545v-1.02a6.369,6.369,0,0,0,1.547-1.008,3.964,3.964,0,0,0,.938-1.148h.68Z" transform="translate(-11.885 -13.009)"/><path class="cls-7" d="M209.747,43.194V41.138H206.02v-.967l3.92-5.566h.861v5.566h1.16v.967H210.8v2.057Zm0-3.023V36.3l-2.689,3.873Z" transform="translate(-11.885 -13.009)"/><line class="cls-1" x1="14.372" y1="141.094" x2="252.103" y2="141.094"/><line class="cls-2" x1="250.244" y1="141.094" x2="463.731" y2="141.094"/><line class="cls-3" x1="463.731" y1="141.031" x2="573.731" y2="141.031"/><polygon class="cls-4" points="28.186 141.094 21.279 153.057 14.372 141.094 28.186 141.094"/><polygon class="cls-5" points="477.545 141.031 470.638 152.995 463.731 141.031 477.545 141.031"/><polygon class="cls-6" points="264.058 141.094 257.151 153.057 250.244 141.094 264.058 141.094"/><line class="cls-1" x1="77.192" y1="141.094" x2="77.192" y2="167.145"/><line class="cls-1" x1="219.5" y1="141.094" x2="219.5" y2="167.145"/><line class="cls-2" x1="332.026" y1="140.031" x2="332.026" y2="166.083"/><polygon class="cls-5" points="567.749 137.578 573.731 141.031 567.749 144.485 567.749 137.578"/><path class="cls-7" d="M56.947,197.005v-8.59h1.711l2.033,6.082q.281.85.41,1.271.146-.469.457-1.377l2.057-5.977h1.529v8.59h-1.1v-7.189l-2.5,7.189H60.527l-2.484-7.312v7.313Z" transform="translate(-11.885 -13.009)"/><path class="cls-7" d="M70.9,196.238a3.927,3.927,0,0,1-1.128.7,3.259,3.259,0,0,1-1.163.205,2.262,2.262,0,0,1-1.576-.5,1.654,1.654,0,0,1-.551-1.28,1.7,1.7,0,0,1,.208-.835,1.722,1.722,0,0,1,.545-.606,2.562,2.562,0,0,1,.759-.346,7.536,7.536,0,0,1,.938-.158,9.64,9.64,0,0,0,1.881-.363q.006-.217.006-.275a1.164,1.164,0,0,0-.3-.908,1.765,1.765,0,0,0-1.2-.357,1.863,1.863,0,0,0-1.1.261,1.593,1.593,0,0,0-.524.923l-1.031-.141a2.555,2.555,0,0,1,.463-1.069,2.029,2.029,0,0,1,.932-.627,4.155,4.155,0,0,1,1.412-.22,3.738,3.738,0,0,1,1.295.188,1.706,1.706,0,0,1,.732.472,1.659,1.659,0,0,1,.328.718,5.938,5.938,0,0,1,.053.973V194.4a14.926,14.926,0,0,0,.067,1.86,2.347,2.347,0,0,0,.267.747h-1.1A2.236,2.236,0,0,1,70.9,196.238Zm-.088-2.355a7.738,7.738,0,0,1-1.723.4,3.985,3.985,0,0,0-.92.211.917.917,0,0,0-.416.343.932.932,0,0,0,.173,1.2,1.374,1.374,0,0,0,.935.281,2.175,2.175,0,0,0,1.084-.267,1.642,1.642,0,0,0,.7-.729,2.548,2.548,0,0,0,.17-1.055Z" transform="translate(-11.885 -13.009)"/><path class="cls-7" d="M73.47,199.4l-.117-.99a2.35,2.35,0,0,0,.6.094,1.158,1.158,0,0,0,.563-.117.958.958,0,0,0,.346-.328,5.174,5.174,0,0,0,.322-.785q.029-.088.094-.258l-2.361-6.234h1.137l1.295,3.6q.252.686.451,1.441a14.191,14.191,0,0,1,.434-1.418l1.33-3.627h1.055l-2.367,6.328a12.421,12.421,0,0,1-.592,1.412,2.083,2.083,0,0,1-.645.765,1.522,1.522,0,0,1-.867.243A2.112,2.112,0,0,1,73.47,199.4Z" transform="translate(-11.885 -13.009)"/><path class="cls-7" d="M88.031,190.519l-1.049.082a1.986,1.986,0,0,0-.4-.9,1.4,1.4,0,0,0-1.055-.451,1.449,1.449,0,0,0-.885.281,2.4,2.4,0,0,0-.785,1.061,5.542,5.542,0,0,0-.3,1.986,2.444,2.444,0,0,1,.932-.861,2.506,2.506,0,0,1,1.154-.281,2.391,2.391,0,0,1,1.8.776,2.787,2.787,0,0,1,.741,2.007,3.3,3.3,0,0,1-.349,1.5,2.54,2.54,0,0,1-.958,1.063,2.616,2.616,0,0,1-1.383.369,2.7,2.7,0,0,1-2.15-.97,4.9,4.9,0,0,1-.832-3.2,5.73,5.73,0,0,1,.92-3.621,2.645,2.645,0,0,1,2.162-.984,2.3,2.3,0,0,1,2.438,2.139Zm-4.307,3.7a2.447,2.447,0,0,0,.231,1.043,1.725,1.725,0,0,0,.647.759,1.619,1.619,0,0,0,.873.261,1.488,1.488,0,0,0,1.148-.539,2.122,2.122,0,0,0,.48-1.465,1.985,1.985,0,0,0-.475-1.4,1.56,1.56,0,0,0-1.2-.513,1.627,1.627,0,0,0-1.213.513A1.848,1.848,0,0,0,83.724,194.222Z" transform="translate(-11.885 -13.009)"/><path class="cls-7" d="M89.8,197.005v-1.2H91v1.2a2.132,2.132,0,0,1-.234,1.069,1.528,1.528,0,0,1-.744.63l-.293-.451a1,1,0,0,0,.492-.431,1.835,1.835,0,0,0,.176-.817Z" transform="translate(-11.885 -13.009)"/><path class="cls-7" d="M101.443,195.992v1.014H95.765a1.866,1.866,0,0,1,.123-.732,3.875,3.875,0,0,1,.694-1.143,10.878,10.878,0,0,1,1.38-1.3,11.7,11.7,0,0,0,1.893-1.819,2.178,2.178,0,0,0,.492-1.269,1.409,1.409,0,0,0-.448-1.058,1.617,1.617,0,0,0-1.169-.431,1.647,1.647,0,0,0-1.219.457,1.729,1.729,0,0,0-.463,1.266l-1.084-.111a2.668,2.668,0,0,1,.838-1.849,2.858,2.858,0,0,1,1.951-.636,2.723,2.723,0,0,1,1.957.686,2.251,2.251,0,0,1,.721,1.7,2.577,2.577,0,0,1-.211,1.014,3.934,3.934,0,0,1-.7,1.049,17.058,17.058,0,0,1-1.626,1.512q-.949.8-1.219,1.081a3.468,3.468,0,0,0-.445.571Z" transform="translate(-11.885 -13.009)"/><path class="cls-7" d="M102.574,192.769a7.86,7.86,0,0,1,.313-2.452,3.05,3.05,0,0,1,.932-1.433,2.382,2.382,0,0,1,1.556-.5,2.538,2.538,0,0,1,1.213.278,2.319,2.319,0,0,1,.861.8,4.306,4.306,0,0,1,.533,1.277,8.487,8.487,0,0,1,.193,2.03,7.882,7.882,0,0,1-.311,2.44,3.051,3.051,0,0,1-.929,1.436,2.382,2.382,0,0,1-1.562.507,2.357,2.357,0,0,1-1.951-.891A5.661,5.661,0,0,1,102.574,192.769Zm1.084,0a5.386,5.386,0,0,0,.5,2.815,1.414,1.414,0,0,0,2.443,0,8.252,8.252,0,0,0,0-5.631,1.47,1.47,0,0,0-1.233-.7,1.351,1.351,0,0,0-1.16.615A5.448,5.448,0,0,0,103.658,192.769Z" transform="translate(-11.885 -13.009)"/><path class="cls-7" d="M113.22,197.005h-1.055v-6.721a5.451,5.451,0,0,1-1,.727,7.082,7.082,0,0,1-1.11.545v-1.02a6.369,6.369,0,0,0,1.547-1.008,3.964,3.964,0,0,0,.938-1.148h.68Z" transform="translate(-11.885 -13.009)"/><path class="cls-7" d="M121.464,195.992v1.014h-5.678a1.866,1.866,0,0,1,.123-.732,3.875,3.875,0,0,1,.694-1.143,10.878,10.878,0,0,1,1.38-1.3,11.7,11.7,0,0,0,1.893-1.819,2.178,2.178,0,0,0,.492-1.269,1.409,1.409,0,0,0-.448-1.058,1.617,1.617,0,0,0-1.169-.431,1.647,1.647,0,0,0-1.219.457,1.729,1.729,0,0,0-.463,1.266l-1.084-.111a2.668,2.668,0,0,1,.838-1.849,2.858,2.858,0,0,1,1.951-.636,2.723,2.723,0,0,1,1.957.686,2.251,2.251,0,0,1,.721,1.7,2.577,2.577,0,0,1-.211,1.014,3.934,3.934,0,0,1-.7,1.049,17.058,17.058,0,0,1-1.626,1.512q-.949.8-1.219,1.081a3.468,3.468,0,0,0-.445.571Z" transform="translate(-11.885 -13.009)"/><path class="cls-7" d="M56.376,203.94v-1.014h5.561v.82a11.718,11.718,0,0,0-1.626,2.32,14.132,14.132,0,0,0-1.245,2.977,11.063,11.063,0,0,0-.4,2.361H57.577a10.526,10.526,0,0,1,.4-2.449,12.861,12.861,0,0,1,1.093-2.769,11.868,11.868,0,0,1,1.515-2.247Z" transform="translate(-11.885 -13.009)"/><path class="cls-7" d="M62.979,207.169a7.86,7.86,0,0,1,.313-2.452,3.05,3.05,0,0,1,.932-1.433,2.382,2.382,0,0,1,1.556-.5,2.538,2.538,0,0,1,1.213.278,2.319,2.319,0,0,1,.861.8,4.306,4.306,0,0,1,.533,1.277,8.487,8.487,0,0,1,.193,2.03,7.882,7.882,0,0,1-.311,2.44,3.051,3.051,0,0,1-.929,1.436,2.382,2.382,0,0,1-1.562.507,2.357,2.357,0,0,1-1.951-.891A5.661,5.661,0,0,1,62.979,207.169Zm1.084,0a5.386,5.386,0,0,0,.5,2.815,1.414,1.414,0,0,0,2.443,0,8.252,8.252,0,0,0,0-5.631,1.47,1.47,0,0,0-1.233-.7,1.351,1.351,0,0,0-1.16.615A5.448,5.448,0,0,0,64.063,207.169Z" transform="translate(-11.885 -13.009)"/><path class="cls-7" d="M70.959,206.86l.089.543a2.272,2.272,0,0,1-.465.055,1.049,1.049,0,0,1-.519-.106.594.594,0,0,1-.26-.278,2.211,2.211,0,0,1-.075-.726V204.26h-.451v-.479h.451v-.9l.612-.369v1.267h.618v.479h-.618v2.121a1.081,1.081,0,0,0,.032.338.259.259,0,0,0,.106.12.412.412,0,0,0,.21.044A2.059,2.059,0,0,0,70.959,206.86Z" transform="translate(-11.885 -13.009)"/><path class="cls-7" d="M71.56,207.41V202.4h.615v1.8a1.373,1.373,0,0,1,1.086-.5,1.465,1.465,0,0,1,.7.159.934.934,0,0,1,.425.439,2.022,2.022,0,0,1,.128.813v2.3H73.9v-2.3a.95.95,0,0,0-.2-.671.741.741,0,0,0-.565-.21,1,1,0,0,0-.514.142.8.8,0,0,0-.343.384,1.763,1.763,0,0,0-.1.669v1.985Z" transform="translate(-11.885 -13.009)"/><path class="cls-7" d="M79.2,211.405v-8.59h3.223a3.989,3.989,0,0,1,1.579.261,2.03,2.03,0,0,1,.932.8,2.116,2.116,0,0,1,.337,1.134,1.948,1.948,0,0,1-.3,1.037,2.134,2.134,0,0,1-.9.785,2.244,2.244,0,0,1,1.2.779,2.087,2.087,0,0,1,.419,1.3,2.509,2.509,0,0,1-.255,1.122,2.172,2.172,0,0,1-.63.8,2.629,2.629,0,0,1-.94.425,5.72,5.72,0,0,1-1.386.144Zm1.137-4.98H82.2a4.145,4.145,0,0,0,1.084-.1,1.2,1.2,0,0,0,.653-.428,1.232,1.232,0,0,0,.22-.75,1.381,1.381,0,0,0-.205-.753,1.038,1.038,0,0,0-.586-.445,4.894,4.894,0,0,0-1.307-.12H80.339Zm0,3.967h2.139a4.923,4.923,0,0,0,.773-.041,1.853,1.853,0,0,0,.656-.234,1.244,1.244,0,0,0,.434-.478,1.5,1.5,0,0,0,.17-.724,1.427,1.427,0,0,0-.246-.835,1.3,1.3,0,0,0-.683-.5,4.232,4.232,0,0,0-1.257-.144H80.339Z" transform="translate(-11.885 -13.009)"/><path class="cls-7" d="M87.125,204.028v-1.213h1.055v1.213Zm0,7.377v-6.223h1.055v6.223Z" transform="translate(-11.885 -13.009)"/><path class="cls-7" d="M89.773,211.405v-6.223h.949v.943a2.574,2.574,0,0,1,.671-.873,1.171,1.171,0,0,1,.677-.211,2.057,2.057,0,0,1,1.084.34l-.363.979a1.509,1.509,0,0,0-.773-.229,1,1,0,0,0-.621.208,1.127,1.127,0,0,0-.393.577,4.108,4.108,0,0,0-.176,1.23v3.258Z" transform="translate(-11.885 -13.009)"/><path class="cls-7" d="M96.083,210.462l.152.932a3.912,3.912,0,0,1-.8.094,1.8,1.8,0,0,1-.891-.182,1.017,1.017,0,0,1-.445-.478,3.776,3.776,0,0,1-.129-1.245V206H93.2v-.82h.773v-1.541l1.049-.633v2.174h1.061V206H95.023v3.639a1.838,1.838,0,0,0,.056.58.439.439,0,0,0,.182.205.7.7,0,0,0,.36.076A3.431,3.431,0,0,0,96.083,210.462Z" transform="translate(-11.885 -13.009)"/><path class="cls-7" d="M97.115,211.405v-8.59h1.055V205.9a2.356,2.356,0,0,1,1.863-.855,2.513,2.513,0,0,1,1.2.272,1.6,1.6,0,0,1,.729.753,3.471,3.471,0,0,1,.22,1.395v3.943h-1.055v-3.943a1.629,1.629,0,0,0-.343-1.151,1.275,1.275,0,0,0-.97-.36,1.71,1.71,0,0,0-.882.243,1.373,1.373,0,0,0-.589.659A3.028,3.028,0,0,0,98.169,208v3.4Z" transform="translate(-11.885 -13.009)"/><path class="cls-7" d="M107.826,211.405v-.785a1.935,1.935,0,0,1-1.74.926,2.44,2.44,0,0,1-1.368-.41,2.7,2.7,0,0,1-.967-1.146,3.959,3.959,0,0,1-.343-1.69,4.424,4.424,0,0,1,.311-1.69,2.449,2.449,0,0,1,.932-1.163,2.491,2.491,0,0,1,1.389-.4,2.075,2.075,0,0,1,1.717.855v-3.082H108.8v8.59Zm-3.334-3.105a2.7,2.7,0,0,0,.5,1.787,1.519,1.519,0,0,0,1.189.592,1.492,1.492,0,0,0,1.175-.565,2.607,2.607,0,0,0,.483-1.726,2.926,2.926,0,0,0-.492-1.875,1.514,1.514,0,0,0-1.213-.6,1.461,1.461,0,0,0-1.175.574A2.834,2.834,0,0,0,104.492,208.3Z" transform="translate(-11.885 -13.009)"/><path class="cls-7" d="M114.523,210.638a3.927,3.927,0,0,1-1.128.7,3.259,3.259,0,0,1-1.163.205,2.262,2.262,0,0,1-1.576-.5,1.654,1.654,0,0,1-.551-1.28,1.7,1.7,0,0,1,.208-.835,1.722,1.722,0,0,1,.545-.606,2.562,2.562,0,0,1,.759-.346,7.536,7.536,0,0,1,.938-.158,9.64,9.64,0,0,0,1.881-.363q.006-.217.006-.275a1.164,1.164,0,0,0-.3-.908,1.765,1.765,0,0,0-1.2-.357,1.863,1.863,0,0,0-1.1.261,1.593,1.593,0,0,0-.524.923l-1.031-.141a2.555,2.555,0,0,1,.463-1.069,2.029,2.029,0,0,1,.932-.627,4.155,4.155,0,0,1,1.412-.22,3.738,3.738,0,0,1,1.295.188,1.706,1.706,0,0,1,.732.472,1.659,1.659,0,0,1,.328.718,5.938,5.938,0,0,1,.053.973V208.8a14.926,14.926,0,0,0,.067,1.86,2.347,2.347,0,0,0,.267.747h-1.1A2.236,2.236,0,0,1,114.523,210.638Zm-.088-2.355a7.738,7.738,0,0,1-1.723.4,3.985,3.985,0,0,0-.92.211.917.917,0,0,0-.416.343.932.932,0,0,0,.173,1.2,1.374,1.374,0,0,0,.935.281,2.175,2.175,0,0,0,1.084-.267,1.642,1.642,0,0,0,.7-.729,2.548,2.548,0,0,0,.17-1.055Z" transform="translate(-11.885 -13.009)"/><path class="cls-7" d="M117.089,213.8l-.117-.99a2.35,2.35,0,0,0,.6.094,1.158,1.158,0,0,0,.563-.117.958.958,0,0,0,.346-.328,5.174,5.174,0,0,0,.322-.785q.029-.088.094-.258l-2.361-6.234h1.137l1.295,3.6q.252.686.451,1.441a14.191,14.191,0,0,1,.434-1.418l1.33-3.627h1.055l-2.367,6.328a12.421,12.421,0,0,1-.592,1.412,2.083,2.083,0,0,1-.645.765,1.522,1.522,0,0,1-.867.243A2.112,2.112,0,0,1,117.089,213.8Z" transform="translate(-11.885 -13.009)"/><path class="cls-7" d="M182.937,197.006v-8.59H184.1l4.512,6.744v-6.744h1.09v8.59h-1.166l-4.512-6.75v6.75Z" transform="translate(-11.885 -13.009)"/><path class="cls-7" d="M191.087,193.895a3.207,3.207,0,0,1,.961-2.561,2.9,2.9,0,0,1,1.957-.691,2.792,2.792,0,0,1,2.1.841,3.2,3.2,0,0,1,.814,2.323,4.117,4.117,0,0,1-.36,1.89,2.551,2.551,0,0,1-1.049,1.069,3.054,3.054,0,0,1-1.5.381,2.8,2.8,0,0,1-2.112-.838A3.347,3.347,0,0,1,191.087,193.895Zm1.084,0a2.65,2.65,0,0,0,.521,1.79,1.736,1.736,0,0,0,2.619,0,2.713,2.713,0,0,0,.521-1.822,2.571,2.571,0,0,0-.524-1.749,1.739,1.739,0,0,0-2.616,0A2.639,2.639,0,0,0,192.171,193.895Z" transform="translate(-11.885 -13.009)"/><path class="cls-7" d="M199.882,197.006l-2.367-6.223h1.113l1.336,3.727q.217.6.4,1.254.141-.492.393-1.184l1.383-3.8h1.084l-2.355,6.223Z" transform="translate(-11.885 -13.009)"/><path class="cls-7" d="M208.413,195l1.09.135a2.659,2.659,0,0,1-.955,1.482,3.236,3.236,0,0,1-3.946-.313,3.285,3.285,0,0,1-.8-2.358,3.438,3.438,0,0,1,.809-2.437,2.737,2.737,0,0,1,2.1-.867,2.66,2.66,0,0,1,2.039.85,3.376,3.376,0,0,1,.791,2.391q0,.094-.006.281h-4.641a2.391,2.391,0,0,0,.58,1.57,1.727,1.727,0,0,0,1.3.545,1.614,1.614,0,0,0,.99-.3A2.023,2.023,0,0,0,208.413,195ZM204.95,193.3h3.475a2.108,2.108,0,0,0-.4-1.178,1.616,1.616,0,0,0-1.307-.609A1.675,1.675,0,0,0,205.5,192,1.925,1.925,0,0,0,204.95,193.3Z" transform="translate(-11.885 -13.009)"/><path class="cls-7" d="M210.827,197.006v-6.223h.943v.873a2.218,2.218,0,0,1,.779-.735,2.189,2.189,0,0,1,1.107-.278,2.047,2.047,0,0,1,1.134.287,1.537,1.537,0,0,1,.624.8,2.234,2.234,0,0,1,1.922-1.09,1.894,1.894,0,0,1,1.424.513,2.191,2.191,0,0,1,.5,1.579v4.271H218.21v-3.92a2.886,2.886,0,0,0-.1-.911.883.883,0,0,0-.372-.448,1.161,1.161,0,0,0-.633-.17,1.473,1.473,0,0,0-1.09.437,1.923,1.923,0,0,0-.434,1.4v3.615h-1.055v-4.043a1.779,1.779,0,0,0-.258-1.055.976.976,0,0,0-.844-.352,1.533,1.533,0,0,0-.823.234,1.329,1.329,0,0,0-.548.686,3.859,3.859,0,0,0-.17,1.3v3.229Z" transform="translate(-11.885 -13.009)"/><path class="cls-7" d="M221.8,197.006h-.979v-8.59h1.055v3.064a2.087,2.087,0,0,1,1.705-.838,2.611,2.611,0,0,1,1.087.231,2.22,2.22,0,0,1,.844.65,3.144,3.144,0,0,1,.519,1.011,4.167,4.167,0,0,1,.188,1.266,3.555,3.555,0,0,1-.791,2.473,2.474,2.474,0,0,1-1.9.873,1.981,1.981,0,0,1-1.729-.92Zm-.012-3.158a3.23,3.23,0,0,0,.3,1.617,1.508,1.508,0,0,0,2.543.214,2.729,2.729,0,0,0,.5-1.79,2.776,2.776,0,0,0-.483-1.8,1.472,1.472,0,0,0-1.169-.58,1.517,1.517,0,0,0-1.2.6A2.637,2.637,0,0,0,221.784,193.848Z" transform="translate(-11.885 -13.009)"/><path class="cls-7" d="M231.757,195l1.09.135a2.659,2.659,0,0,1-.955,1.482,3.236,3.236,0,0,1-3.946-.313,3.285,3.285,0,0,1-.8-2.358,3.438,3.438,0,0,1,.809-2.437,2.737,2.737,0,0,1,2.1-.867,2.66,2.66,0,0,1,2.039.85,3.376,3.376,0,0,1,.791,2.391q0,.094-.006.281h-4.641a2.391,2.391,0,0,0,.58,1.57,1.727,1.727,0,0,0,1.3.545,1.614,1.614,0,0,0,.99-.3A2.023,2.023,0,0,0,231.757,195Zm-3.463-1.705h3.475a2.108,2.108,0,0,0-.4-1.178,1.616,1.616,0,0,0-1.307-.609,1.675,1.675,0,0,0-1.222.486A1.925,1.925,0,0,0,228.294,193.3Z" transform="translate(-11.885 -13.009)"/><path class="cls-7" d="M234.159,197.006v-6.223h.949v.943a2.574,2.574,0,0,1,.671-.873,1.171,1.171,0,0,1,.677-.211,2.057,2.057,0,0,1,1.084.34l-.363.979a1.509,1.509,0,0,0-.773-.229,1,1,0,0,0-.621.208,1.127,1.127,0,0,0-.393.577,4.108,4.108,0,0,0-.176,1.23v3.258Z" transform="translate(-11.885 -13.009)"/><path class="cls-7" d="M246.681,190.52l-1.049.082a1.986,1.986,0,0,0-.4-.9,1.4,1.4,0,0,0-1.055-.451,1.449,1.449,0,0,0-.885.281,2.4,2.4,0,0,0-.785,1.061,5.542,5.542,0,0,0-.3,1.986,2.444,2.444,0,0,1,.932-.861,2.506,2.506,0,0,1,1.154-.281,2.391,2.391,0,0,1,1.8.776,2.787,2.787,0,0,1,.741,2.007,3.3,3.3,0,0,1-.349,1.5,2.54,2.54,0,0,1-.958,1.063,2.616,2.616,0,0,1-1.383.369,2.7,2.7,0,0,1-2.15-.97,4.9,4.9,0,0,1-.832-3.2,5.73,5.73,0,0,1,.92-3.621,2.645,2.645,0,0,1,2.162-.984,2.3,2.3,0,0,1,2.438,2.139Zm-4.307,3.7a2.447,2.447,0,0,0,.231,1.043,1.725,1.725,0,0,0,.647.759,1.619,1.619,0,0,0,.873.261,1.488,1.488,0,0,0,1.148-.539,2.122,2.122,0,0,0,.48-1.465,1.985,1.985,0,0,0-.475-1.4,1.56,1.56,0,0,0-1.2-.513,1.627,1.627,0,0,0-1.213.513A1.848,1.848,0,0,0,242.374,194.223Z" transform="translate(-11.885 -13.009)"/><path class="cls-7" d="M248.45,197.006v-1.2h1.2v1.2a2.132,2.132,0,0,1-.234,1.069,1.528,1.528,0,0,1-.744.63l-.293-.451a1,1,0,0,0,.492-.431,1.835,1.835,0,0,0,.176-.817Z" transform="translate(-11.885 -13.009)"/><path class="cls-7" d="M260.093,195.992v1.014h-5.678a1.866,1.866,0,0,1,.123-.732,3.875,3.875,0,0,1,.694-1.143,10.878,10.878,0,0,1,1.38-1.3,11.7,11.7,0,0,0,1.893-1.819,2.178,2.178,0,0,0,.492-1.269,1.409,1.409,0,0,0-.448-1.058,1.617,1.617,0,0,0-1.169-.431,1.647,1.647,0,0,0-1.219.457,1.729,1.729,0,0,0-.463,1.266l-1.084-.111a2.668,2.668,0,0,1,.838-1.849,2.858,2.858,0,0,1,1.951-.636,2.723,2.723,0,0,1,1.957.686,2.251,2.251,0,0,1,.721,1.7,2.577,2.577,0,0,1-.211,1.014,3.934,3.934,0,0,1-.7,1.049,17.058,17.058,0,0,1-1.626,1.512q-.949.8-1.219,1.081a3.468,3.468,0,0,0-.445.571Z" transform="translate(-11.885 -13.009)"/><path class="cls-7" d="M261.224,192.77a7.86,7.86,0,0,1,.313-2.452,3.05,3.05,0,0,1,.932-1.433,2.382,2.382,0,0,1,1.556-.5,2.538,2.538,0,0,1,1.213.278,2.319,2.319,0,0,1,.861.8,4.306,4.306,0,0,1,.533,1.277,8.487,8.487,0,0,1,.193,2.03,7.882,7.882,0,0,1-.311,2.44,3.051,3.051,0,0,1-.929,1.436,2.382,2.382,0,0,1-1.562.507,2.357,2.357,0,0,1-1.951-.891A5.661,5.661,0,0,1,261.224,192.77Zm1.084,0a5.386,5.386,0,0,0,.5,2.815,1.414,1.414,0,0,0,2.443,0,8.252,8.252,0,0,0,0-5.631,1.47,1.47,0,0,0-1.233-.7,1.351,1.351,0,0,0-1.16.615A5.448,5.448,0,0,0,262.308,192.77Z" transform="translate(-11.885 -13.009)"/><path class="cls-7" d="M271.87,197.006h-1.055v-6.721a5.451,5.451,0,0,1-1,.727,7.082,7.082,0,0,1-1.11.545v-1.02a6.369,6.369,0,0,0,1.547-1.008,3.964,3.964,0,0,0,.938-1.148h.68Z" transform="translate(-11.885 -13.009)"/><path class="cls-7" d="M280.114,195.992v1.014h-5.678a1.866,1.866,0,0,1,.123-.732,3.875,3.875,0,0,1,.694-1.143,10.878,10.878,0,0,1,1.38-1.3,11.7,11.7,0,0,0,1.893-1.819,2.178,2.178,0,0,0,.492-1.269,1.409,1.409,0,0,0-.448-1.058,1.617,1.617,0,0,0-1.169-.431,1.647,1.647,0,0,0-1.219.457,1.729,1.729,0,0,0-.463,1.266l-1.084-.111a2.668,2.668,0,0,1,.838-1.849,2.858,2.858,0,0,1,1.951-.636,2.723,2.723,0,0,1,1.957.686,2.251,2.251,0,0,1,.721,1.7,2.577,2.577,0,0,1-.211,1.014,3.934,3.934,0,0,1-.7,1.049,17.058,17.058,0,0,1-1.626,1.512q-.949.8-1.219,1.081a3.468,3.468,0,0,0-.445.571Z" transform="translate(-11.885 -13.009)"/><path class="cls-7" d="M181.032,208.968l1.025-.141a2.2,2.2,0,0,0,.369,1.348,1.162,1.162,0,0,0,.908.363,1.353,1.353,0,0,0,.738-.2,1.008,1.008,0,0,0,.428-.533,3.561,3.561,0,0,0,.117-1.075v-5.918h1.137v5.854a4.264,4.264,0,0,1-.261,1.67,1.857,1.857,0,0,1-.826.9,2.714,2.714,0,0,1-1.327.311,2.24,2.24,0,0,1-1.731-.65A2.684,2.684,0,0,1,181.032,208.968Z" transform="translate(-11.885 -13.009)"/><path class="cls-7" d="M187.483,204.029v-1.213h1.055v1.213Zm0,7.377v-6.223h1.055v6.223Z" transform="translate(-11.885 -13.009)"/><path class="cls-7" d="M190.144,211.406v-6.223h.943v.873a2.218,2.218,0,0,1,.779-.735,2.189,2.189,0,0,1,1.107-.278,2.047,2.047,0,0,1,1.134.287,1.537,1.537,0,0,1,.624.8,2.234,2.234,0,0,1,1.922-1.09,1.894,1.894,0,0,1,1.424.513,2.191,2.191,0,0,1,.5,1.579v4.271h-1.049v-3.92a2.886,2.886,0,0,0-.1-.911.883.883,0,0,0-.372-.448,1.161,1.161,0,0,0-.633-.17,1.473,1.473,0,0,0-1.09.437,1.923,1.923,0,0,0-.434,1.4v3.615h-1.055v-4.043a1.779,1.779,0,0,0-.258-1.055.976.976,0,0,0-.844-.352,1.533,1.533,0,0,0-.823.234,1.329,1.329,0,0,0-.548.686,3.859,3.859,0,0,0-.17,1.3v3.229Z" transform="translate(-11.885 -13.009)"/><path class="cls-7" d="M207.534,210.638a3.927,3.927,0,0,1-1.128.7,3.259,3.259,0,0,1-1.163.205,2.262,2.262,0,0,1-1.576-.5,1.654,1.654,0,0,1-.551-1.28,1.7,1.7,0,0,1,.208-.835,1.722,1.722,0,0,1,.545-.606,2.562,2.562,0,0,1,.759-.346,7.536,7.536,0,0,1,.938-.158,9.64,9.64,0,0,0,1.881-.363q.006-.217.006-.275a1.164,1.164,0,0,0-.3-.908,1.765,1.765,0,0,0-1.2-.357,1.863,1.863,0,0,0-1.1.261,1.593,1.593,0,0,0-.524.923l-1.031-.141a2.555,2.555,0,0,1,.463-1.069,2.029,2.029,0,0,1,.932-.627,4.155,4.155,0,0,1,1.412-.22,3.738,3.738,0,0,1,1.295.188,1.706,1.706,0,0,1,.732.472,1.659,1.659,0,0,1,.328.718,5.938,5.938,0,0,1,.053.973V208.8a14.926,14.926,0,0,0,.067,1.86,2.347,2.347,0,0,0,.267.747h-1.1A2.236,2.236,0,0,1,207.534,210.638Zm-.088-2.355a7.738,7.738,0,0,1-1.723.4,3.985,3.985,0,0,0-.92.211.917.917,0,0,0-.416.343.932.932,0,0,0,.173,1.2,1.374,1.374,0,0,0,.935.281,2.175,2.175,0,0,0,1.084-.267,1.642,1.642,0,0,0,.7-.729,2.548,2.548,0,0,0,.17-1.055Z" transform="translate(-11.885 -13.009)"/><path class="cls-7" d="M212.45,210.462l.152.932a3.912,3.912,0,0,1-.8.094,1.8,1.8,0,0,1-.891-.182,1.017,1.017,0,0,1-.445-.478,3.776,3.776,0,0,1-.129-1.245V206h-.773v-.82h.773v-1.541l1.049-.633v2.174h1.061V206H211.39v3.639a1.838,1.838,0,0,0,.056.58.439.439,0,0,0,.182.205.7.7,0,0,0,.36.076A3.431,3.431,0,0,0,212.45,210.462Z" transform="translate(-11.885 -13.009)"/><path class="cls-7" d="M215.784,210.462l.152.932a3.912,3.912,0,0,1-.8.094,1.8,1.8,0,0,1-.891-.182,1.017,1.017,0,0,1-.445-.478,3.776,3.776,0,0,1-.129-1.245V206H212.9v-.82h.773v-1.541l1.049-.633v2.174h1.061V206h-1.061v3.639a1.838,1.838,0,0,0,.056.58.439.439,0,0,0,.182.205.7.7,0,0,0,.36.076A3.431,3.431,0,0,0,215.784,210.462Z" transform="translate(-11.885 -13.009)"/><path class="cls-7" d="M220.876,210.638a3.927,3.927,0,0,1-1.128.7,3.259,3.259,0,0,1-1.163.205,2.262,2.262,0,0,1-1.576-.5,1.654,1.654,0,0,1-.551-1.28,1.7,1.7,0,0,1,.208-.835,1.722,1.722,0,0,1,.545-.606,2.562,2.562,0,0,1,.759-.346,7.536,7.536,0,0,1,.938-.158,9.64,9.64,0,0,0,1.881-.363q.006-.217.006-.275a1.164,1.164,0,0,0-.3-.908,1.765,1.765,0,0,0-1.2-.357,1.863,1.863,0,0,0-1.1.261,1.593,1.593,0,0,0-.524.923l-1.031-.141a2.555,2.555,0,0,1,.463-1.069,2.029,2.029,0,0,1,.932-.627,4.155,4.155,0,0,1,1.412-.22,3.738,3.738,0,0,1,1.295.188,1.706,1.706,0,0,1,.732.472,1.659,1.659,0,0,1,.328.718,5.938,5.938,0,0,1,.053.973V208.8a14.926,14.926,0,0,0,.067,1.86,2.347,2.347,0,0,0,.267.747h-1.1A2.236,2.236,0,0,1,220.876,210.638Zm-.088-2.355a7.738,7.738,0,0,1-1.723.4,3.985,3.985,0,0,0-.92.211.917.917,0,0,0-.416.343.932.932,0,0,0,.173,1.2,1.374,1.374,0,0,0,.935.281,2.175,2.175,0,0,0,1.084-.267,1.642,1.642,0,0,0,.7-.729,2.548,2.548,0,0,0,.17-1.055Z" transform="translate(-11.885 -13.009)"/><path class="cls-7" d="M223.5,204.029v-1.213h1.055v1.213Zm0,7.377v-6.223h1.055v6.223Z" transform="translate(-11.885 -13.009)"/><path class="cls-7" d="M226.155,211.406v-6.223h.949v.885a2.237,2.237,0,0,1,1.98-1.025,2.6,2.6,0,0,1,1.034.2,1.627,1.627,0,0,1,.706.53,2.035,2.035,0,0,1,.328.779,6.039,6.039,0,0,1,.059,1.025v3.826h-1.055v-3.785a2.841,2.841,0,0,0-.123-.964,1.014,1.014,0,0,0-.437-.51,1.389,1.389,0,0,0-.735-.19,1.709,1.709,0,0,0-1.163.428,2.11,2.11,0,0,0-.489,1.623v3.4Z" transform="translate(-11.885 -13.009)"/><path class="cls-7" d="M237.089,209.4l1.09.135a2.659,2.659,0,0,1-.955,1.482,3.236,3.236,0,0,1-3.946-.313,3.285,3.285,0,0,1-.8-2.358,3.438,3.438,0,0,1,.809-2.437,2.737,2.737,0,0,1,2.1-.867,2.66,2.66,0,0,1,2.039.85,3.376,3.376,0,0,1,.791,2.391q0,.094-.006.281h-4.641a2.391,2.391,0,0,0,.58,1.57,1.727,1.727,0,0,0,1.3.545,1.614,1.614,0,0,0,.99-.3A2.023,2.023,0,0,0,237.089,209.4Zm-3.463-1.705H237.1a2.108,2.108,0,0,0-.4-1.178,1.616,1.616,0,0,0-1.307-.609,1.675,1.675,0,0,0-1.222.486A1.925,1.925,0,0,0,233.626,207.7Z" transform="translate(-11.885 -13.009)"/><path class="cls-7" d="M243.54,211.406v-.785a1.935,1.935,0,0,1-1.74.926,2.44,2.44,0,0,1-1.368-.41,2.7,2.7,0,0,1-.967-1.146,3.959,3.959,0,0,1-.343-1.69,4.424,4.424,0,0,1,.311-1.69,2.449,2.449,0,0,1,.932-1.163,2.491,2.491,0,0,1,1.389-.4,2.075,2.075,0,0,1,1.717.855v-3.082h1.049v8.59Zm-3.334-3.105a2.7,2.7,0,0,0,.5,1.787,1.519,1.519,0,0,0,1.189.592,1.492,1.492,0,0,0,1.175-.565,2.607,2.607,0,0,0,.483-1.726,2.926,2.926,0,0,0-.492-1.875,1.514,1.514,0,0,0-1.213-.6,1.461,1.461,0,0,0-1.175.574A2.834,2.834,0,0,0,240.206,208.3Z" transform="translate(-11.885 -13.009)"/><path class="cls-7" d="M249.288,203.941v-1.014h5.561v.82a11.718,11.718,0,0,0-1.626,2.32,14.132,14.132,0,0,0-1.245,2.977,11.063,11.063,0,0,0-.4,2.361h-1.084a10.526,10.526,0,0,1,.4-2.449,12.861,12.861,0,0,1,1.093-2.769,11.868,11.868,0,0,1,1.515-2.247Z" transform="translate(-11.885 -13.009)"/><path class="cls-7" d="M255.892,207.169a7.86,7.86,0,0,1,.313-2.452,3.05,3.05,0,0,1,.932-1.433,2.382,2.382,0,0,1,1.556-.5,2.538,2.538,0,0,1,1.213.278,2.319,2.319,0,0,1,.861.8,4.306,4.306,0,0,1,.533,1.277,8.487,8.487,0,0,1,.193,2.03,7.882,7.882,0,0,1-.311,2.44,3.051,3.051,0,0,1-.929,1.436,2.382,2.382,0,0,1-1.562.507,2.357,2.357,0,0,1-1.951-.891A5.661,5.661,0,0,1,255.892,207.169Zm1.084,0a5.386,5.386,0,0,0,.5,2.815,1.414,1.414,0,0,0,2.443,0,8.252,8.252,0,0,0,0-5.631,1.47,1.47,0,0,0-1.233-.7,1.351,1.351,0,0,0-1.16.615A5.448,5.448,0,0,0,256.976,207.169Z" transform="translate(-11.885 -13.009)"/><path class="cls-7" d="M269.872,211.406h-1.055v-6.721a5.451,5.451,0,0,1-1,.727,7.082,7.082,0,0,1-1.11.545v-1.02a6.369,6.369,0,0,0,1.547-1.008,3.964,3.964,0,0,0,.938-1.148h.68Z" transform="translate(-11.885 -13.009)"/><path class="cls-7" d="M272.075,211.552l2.49-8.883h.844l-2.484,8.883Z" transform="translate(-11.885 -13.009)"/><path class="cls-7" d="M281.45,210.392v1.014h-5.678a1.866,1.866,0,0,1,.123-.732,3.875,3.875,0,0,1,.694-1.143,10.878,10.878,0,0,1,1.38-1.3,11.7,11.7,0,0,0,1.893-1.819,2.178,2.178,0,0,0,.492-1.269,1.409,1.409,0,0,0-.448-1.058,1.617,1.617,0,0,0-1.169-.431,1.647,1.647,0,0,0-1.219.457,1.729,1.729,0,0,0-.463,1.266l-1.084-.111a2.668,2.668,0,0,1,.838-1.849,2.858,2.858,0,0,1,1.951-.636,2.723,2.723,0,0,1,1.957.686,2.251,2.251,0,0,1,.721,1.7,2.577,2.577,0,0,1-.211,1.014,3.934,3.934,0,0,1-.7,1.049,17.058,17.058,0,0,1-1.626,1.512q-.949.8-1.219,1.081a3.468,3.468,0,0,0-.445.571Z" transform="translate(-11.885 -13.009)"/><path class="cls-8" d="M310.2,197.006l3.3-8.59h1.225l3.516,8.59h-1.295l-1-2.6h-3.592l-.943,2.6Zm2.479-3.527h2.912l-.9-2.379q-.41-1.084-.609-1.781a10.95,10.95,0,0,1-.463,1.641Z" transform="translate(-11.885 -13.009)"/><path class="cls-8" d="M319.017,199.391v-8.607h.961v.809a2.369,2.369,0,0,1,.768-.712,2.109,2.109,0,0,1,1.037-.237,2.459,2.459,0,0,1,1.406.41,2.517,2.517,0,0,1,.92,1.157,4.225,4.225,0,0,1,.311,1.638,4.16,4.16,0,0,1-.343,1.72,2.584,2.584,0,0,1-1,1.172,2.558,2.558,0,0,1-1.374.407,1.985,1.985,0,0,1-.946-.223,2.155,2.155,0,0,1-.688-.562v3.029Zm.955-5.461a2.707,2.707,0,0,0,.486,1.775,1.491,1.491,0,0,0,1.178.574,1.525,1.525,0,0,0,1.2-.595,2.822,2.822,0,0,0,.5-1.843,2.749,2.749,0,0,0-.489-1.781,1.473,1.473,0,0,0-1.169-.592,1.519,1.519,0,0,0-1.192.63A2.818,2.818,0,0,0,319.972,193.93Z" transform="translate(-11.885 -13.009)"/><path class="cls-8" d="M325.679,197.006v-6.223h.949v.943a2.574,2.574,0,0,1,.671-.873,1.171,1.171,0,0,1,.677-.211,2.057,2.057,0,0,1,1.084.34l-.363.979a1.509,1.509,0,0,0-.773-.229,1,1,0,0,0-.621.208,1.127,1.127,0,0,0-.393.577,4.108,4.108,0,0,0-.176,1.23v3.258Z" transform="translate(-11.885 -13.009)"/><path class="cls-8" d="M329.692,189.629v-1.213h1.055v1.213Zm0,7.377v-6.223h1.055v6.223Z" transform="translate(-11.885 -13.009)"/><path class="cls-8" d="M332.329,197.006v-8.59h1.055v8.59Z" transform="translate(-11.885 -13.009)"/><path class="cls-8" d="M342.032,197.006h-1.055v-6.721a5.451,5.451,0,0,1-1,.727,7.082,7.082,0,0,1-1.11.545v-1.02a6.369,6.369,0,0,0,1.547-1.008,3.964,3.964,0,0,0,.938-1.148h.68Z" transform="translate(-11.885 -13.009)"/><path class="cls-8" d="M345.3,197.006v-1.2h1.2v1.2a2.132,2.132,0,0,1-.234,1.069,1.528,1.528,0,0,1-.744.63l-.293-.451a1,1,0,0,0,.492-.431,1.835,1.835,0,0,0,.176-.817Z" transform="translate(-11.885 -13.009)"/><path class="cls-8" d="M356.944,195.992v1.014h-5.678a1.866,1.866,0,0,1,.123-.732,3.875,3.875,0,0,1,.694-1.143,10.878,10.878,0,0,1,1.38-1.3,11.7,11.7,0,0,0,1.893-1.819,2.178,2.178,0,0,0,.492-1.269,1.409,1.409,0,0,0-.448-1.058,1.617,1.617,0,0,0-1.169-.431,1.647,1.647,0,0,0-1.219.457,1.729,1.729,0,0,0-.463,1.266l-1.084-.111a2.668,2.668,0,0,1,.838-1.849,2.858,2.858,0,0,1,1.951-.636,2.723,2.723,0,0,1,1.957.686,2.251,2.251,0,0,1,.721,1.7,2.577,2.577,0,0,1-.211,1.014,3.934,3.934,0,0,1-.7,1.049,17.058,17.058,0,0,1-1.626,1.512q-.949.8-1.219,1.081a3.468,3.468,0,0,0-.445.571Z" transform="translate(-11.885 -13.009)"/><path class="cls-8" d="M358.075,192.77a7.86,7.86,0,0,1,.313-2.452,3.05,3.05,0,0,1,.932-1.433,2.382,2.382,0,0,1,1.556-.5,2.538,2.538,0,0,1,1.213.278,2.319,2.319,0,0,1,.861.8,4.306,4.306,0,0,1,.533,1.277,8.487,8.487,0,0,1,.193,2.03,7.882,7.882,0,0,1-.311,2.44,3.051,3.051,0,0,1-.929,1.436,2.382,2.382,0,0,1-1.562.507,2.357,2.357,0,0,1-1.951-.891A5.661,5.661,0,0,1,358.075,192.77Zm1.084,0a5.386,5.386,0,0,0,.5,2.815,1.414,1.414,0,0,0,2.443,0,8.252,8.252,0,0,0,0-5.631,1.47,1.47,0,0,0-1.233-.7,1.351,1.351,0,0,0-1.16.615A5.448,5.448,0,0,0,359.159,192.77Z" transform="translate(-11.885 -13.009)"/><path class="cls-8" d="M368.722,197.006h-1.055v-6.721a5.451,5.451,0,0,1-1,.727,7.082,7.082,0,0,1-1.11.545v-1.02a6.369,6.369,0,0,0,1.547-1.008,3.964,3.964,0,0,0,.938-1.148h.68Z" transform="translate(-11.885 -13.009)"/><path class="cls-8" d="M371.429,194.738l1.055-.141a2.324,2.324,0,0,0,.618,1.292,1.527,1.527,0,0,0,1.063.4,1.7,1.7,0,0,0,1.257-.516,1.74,1.74,0,0,0,.513-1.277,1.618,1.618,0,0,0-.475-1.2,1.641,1.641,0,0,0-1.207-.472,3.028,3.028,0,0,0-.744.117l.117-.926a1.612,1.612,0,0,0,.17.012,2.172,2.172,0,0,0,1.213-.352,1.2,1.2,0,0,0,.539-1.084,1.282,1.282,0,0,0-.393-.961,1.4,1.4,0,0,0-1.014-.381,1.436,1.436,0,0,0-1.025.387,1.941,1.941,0,0,0-.527,1.16l-1.055-.187a2.711,2.711,0,0,1,.879-1.644,2.541,2.541,0,0,1,1.705-.583,2.809,2.809,0,0,1,1.295.3,2.183,2.183,0,0,1,.905.823,2.115,2.115,0,0,1,.313,1.107,1.813,1.813,0,0,1-.3,1.014,2.04,2.04,0,0,1-.885.727,1.993,1.993,0,0,1,1.184.729,2.22,2.22,0,0,1,.422,1.386,2.535,2.535,0,0,1-.82,1.907,2.885,2.885,0,0,1-2.074.782,2.7,2.7,0,0,1-1.878-.674A2.606,2.606,0,0,1,371.429,194.738Z" transform="translate(-11.885 -13.009)"/><path class="cls-8" d="M304.685,208.968l1.025-.141a2.2,2.2,0,0,0,.369,1.348,1.162,1.162,0,0,0,.908.363,1.353,1.353,0,0,0,.738-.2,1.008,1.008,0,0,0,.428-.533,3.561,3.561,0,0,0,.117-1.075v-5.918h1.137v5.854a4.264,4.264,0,0,1-.261,1.67,1.857,1.857,0,0,1-.826.9,2.714,2.714,0,0,1-1.327.311,2.24,2.24,0,0,1-1.731-.65A2.684,2.684,0,0,1,304.685,208.968Z" transform="translate(-11.885 -13.009)"/><path class="cls-8" d="M311.136,204.029v-1.213h1.055v1.213Zm0,7.377v-6.223h1.055v6.223Z" transform="translate(-11.885 -13.009)"/><path class="cls-8" d="M313.8,211.406v-6.223h.943v.873a2.218,2.218,0,0,1,.779-.735,2.189,2.189,0,0,1,1.107-.278,2.047,2.047,0,0,1,1.134.287,1.537,1.537,0,0,1,.624.8,2.234,2.234,0,0,1,1.922-1.09,1.894,1.894,0,0,1,1.424.513,2.191,2.191,0,0,1,.5,1.579v4.271h-1.049v-3.92a2.886,2.886,0,0,0-.1-.911.883.883,0,0,0-.372-.448,1.161,1.161,0,0,0-.633-.17,1.473,1.473,0,0,0-1.09.437,1.923,1.923,0,0,0-.434,1.4v3.615h-1.055v-4.043a1.779,1.779,0,0,0-.258-1.055.976.976,0,0,0-.844-.352,1.533,1.533,0,0,0-.823.234,1.329,1.329,0,0,0-.548.686,3.859,3.859,0,0,0-.17,1.3v3.229Z" transform="translate(-11.885 -13.009)"/><path class="cls-8" d="M323.728,203.953v-1.225h1.131v.967a2.585,2.585,0,0,1-.182,1.131,1.6,1.6,0,0,1-.785.715l-.258-.416a.916.916,0,0,0,.472-.407,1.708,1.708,0,0,0,.173-.765Z" transform="translate(-11.885 -13.009)"/><path class="cls-8" d="M325.819,209.548l1.043-.164a1.458,1.458,0,0,0,.489.961,1.705,1.705,0,0,0,1.122.334,1.648,1.648,0,0,0,1.078-.3.885.885,0,0,0,.352-.694.641.641,0,0,0-.311-.562,4.574,4.574,0,0,0-1.078-.357,9.838,9.838,0,0,1-1.608-.507,1.535,1.535,0,0,1-.911-1.427,1.6,1.6,0,0,1,.19-.771,1.708,1.708,0,0,1,.519-.589,2.174,2.174,0,0,1,.671-.308,3.19,3.19,0,0,1,.911-.126,3.6,3.6,0,0,1,1.286.211,1.749,1.749,0,0,1,.817.571,2.232,2.232,0,0,1,.363.964l-1.031.141a1.128,1.128,0,0,0-.407-.75,1.489,1.489,0,0,0-.952-.27,1.724,1.724,0,0,0-1.037.24.7.7,0,0,0-.311.563.582.582,0,0,0,.129.369.93.93,0,0,0,.4.281q.158.059.932.27a12.969,12.969,0,0,1,1.562.489,1.584,1.584,0,0,1,.694.554,1.546,1.546,0,0,1,.252.9,1.771,1.771,0,0,1-.308.993,1.988,1.988,0,0,1-.888.721,3.231,3.231,0,0,1-1.312.255,2.924,2.924,0,0,1-1.849-.5A2.343,2.343,0,0,1,325.819,209.548Z" transform="translate(-11.885 -13.009)"/><path class="cls-8" d="M335.728,211.406v-8.59h3.809a5.069,5.069,0,0,1,1.746.231,1.909,1.909,0,0,1,.955.817,2.439,2.439,0,0,1,.357,1.295A2.16,2.16,0,0,1,342,206.7a3,3,0,0,1-1.828.8,2.948,2.948,0,0,1,.686.428,5.906,5.906,0,0,1,.943,1.143l1.494,2.338h-1.43l-1.137-1.787q-.5-.773-.82-1.184a2.579,2.579,0,0,0-.577-.574,1.706,1.706,0,0,0-.519-.229,3.415,3.415,0,0,0-.633-.041h-1.318v3.814Zm1.137-4.8h2.443a3.664,3.664,0,0,0,1.219-.161,1.3,1.3,0,0,0,.668-.516,1.4,1.4,0,0,0,.229-.771,1.28,1.28,0,0,0-.442-1,2.07,2.07,0,0,0-1.4-.393h-2.719Z" transform="translate(-11.885 -13.009)"/><path class="cls-8" d="M348.5,209.4l1.09.135a2.659,2.659,0,0,1-.955,1.482,3.236,3.236,0,0,1-3.946-.313,3.285,3.285,0,0,1-.8-2.358,3.438,3.438,0,0,1,.809-2.437,2.737,2.737,0,0,1,2.1-.867,2.66,2.66,0,0,1,2.039.85,3.376,3.376,0,0,1,.791,2.391q0,.094-.006.281h-4.641a2.391,2.391,0,0,0,.58,1.57,1.727,1.727,0,0,0,1.3.545,1.614,1.614,0,0,0,.99-.3A2.023,2.023,0,0,0,348.5,209.4Zm-3.463-1.705h3.475a2.108,2.108,0,0,0-.4-1.178,1.616,1.616,0,0,0-1.307-.609,1.675,1.675,0,0,0-1.222.486A1.925,1.925,0,0,0,345.038,207.7Z" transform="translate(-11.885 -13.009)"/><path class="cls-8" d="M354.882,213.791v-3.047a1.887,1.887,0,0,1-.688.574,2.021,2.021,0,0,1-.94.229,2.487,2.487,0,0,1-1.907-.885,3.484,3.484,0,0,1-.8-2.426,4.159,4.159,0,0,1,.325-1.682,2.426,2.426,0,0,1,.943-1.128,2.522,2.522,0,0,1,1.356-.384,2.084,2.084,0,0,1,1.816.973v-.832h.949v8.607Zm-3.252-5.514a2.75,2.75,0,0,0,.5,1.8,1.528,1.528,0,0,0,1.207.6,1.478,1.478,0,0,0,1.16-.571,2.631,2.631,0,0,0,.486-1.737,2.9,2.9,0,0,0-.513-1.869,1.52,1.52,0,0,0-1.2-.627,1.453,1.453,0,0,0-1.163.583A2.847,2.847,0,0,0,351.63,208.277Z" transform="translate(-11.885 -13.009)"/><path class="cls-8" d="M361.667,211.406v-.914a2.278,2.278,0,0,1-1.975,1.055,2.516,2.516,0,0,1-1.028-.211,1.694,1.694,0,0,1-.709-.53,1.987,1.987,0,0,1-.325-.782,5.356,5.356,0,0,1-.064-.984v-3.855h1.055v3.451a6.15,6.15,0,0,0,.064,1.113,1.1,1.1,0,0,0,.422.653,1.307,1.307,0,0,0,.8.237,1.736,1.736,0,0,0,.891-.243,1.352,1.352,0,0,0,.589-.662,3.322,3.322,0,0,0,.173-1.216v-3.334h1.055v6.223Z" transform="translate(-11.885 -13.009)"/><path class="cls-8" d="M364.269,204.029v-1.213h1.055v1.213Zm0,7.377v-6.223h1.055v6.223Z" transform="translate(-11.885 -13.009)"/><path class="cls-8" d="M366.917,211.406v-6.223h.949v.943a2.574,2.574,0,0,1,.671-.873,1.171,1.171,0,0,1,.677-.211,2.057,2.057,0,0,1,1.084.34l-.363.979a1.509,1.509,0,0,0-.773-.229,1,1,0,0,0-.621.208,1.127,1.127,0,0,0-.393.577,4.108,4.108,0,0,0-.176,1.23v3.258Z" transform="translate(-11.885 -13.009)"/><path class="cls-8" d="M375.185,209.4l1.09.135a2.659,2.659,0,0,1-.955,1.482,3.236,3.236,0,0,1-3.946-.313,3.285,3.285,0,0,1-.8-2.358,3.438,3.438,0,0,1,.809-2.437,2.737,2.737,0,0,1,2.1-.867,2.66,2.66,0,0,1,2.039.85,3.376,3.376,0,0,1,.791,2.391q0,.094-.006.281h-4.641a2.391,2.391,0,0,0,.58,1.57,1.727,1.727,0,0,0,1.3.545,1.614,1.614,0,0,0,.99-.3A2.023,2.023,0,0,0,375.185,209.4Zm-3.463-1.705H375.2a2.108,2.108,0,0,0-.4-1.178,1.616,1.616,0,0,0-1.307-.609,1.675,1.675,0,0,0-1.222.486A1.925,1.925,0,0,0,371.722,207.7Z" transform="translate(-11.885 -13.009)"/><path class="cls-8" d="M381.636,211.406v-.785a1.935,1.935,0,0,1-1.74.926,2.44,2.44,0,0,1-1.368-.41,2.7,2.7,0,0,1-.967-1.146,3.959,3.959,0,0,1-.343-1.69,4.424,4.424,0,0,1,.311-1.69,2.449,2.449,0,0,1,.932-1.163,2.491,2.491,0,0,1,1.389-.4,2.075,2.075,0,0,1,1.717.855v-3.082h1.049v8.59ZM378.3,208.3a2.7,2.7,0,0,0,.5,1.787,1.519,1.519,0,0,0,1.189.592,1.492,1.492,0,0,0,1.175-.565,2.607,2.607,0,0,0,.483-1.726,2.926,2.926,0,0,0-.492-1.875,1.514,1.514,0,0,0-1.213-.6,1.461,1.461,0,0,0-1.175.574A2.834,2.834,0,0,0,378.3,208.3Z" transform="translate(-11.885 -13.009)"/><path class="cls-8" d="M303.759,225.806v-8.59h3.223a3.989,3.989,0,0,1,1.579.261,2.03,2.03,0,0,1,.932.8,2.116,2.116,0,0,1,.337,1.134,1.948,1.948,0,0,1-.3,1.037,2.134,2.134,0,0,1-.9.785,2.244,2.244,0,0,1,1.2.779,2.087,2.087,0,0,1,.419,1.3,2.509,2.509,0,0,1-.255,1.122,2.172,2.172,0,0,1-.63.8,2.629,2.629,0,0,1-.94.425,5.72,5.72,0,0,1-1.386.144Zm1.137-4.98h1.857a4.145,4.145,0,0,0,1.084-.1,1.2,1.2,0,0,0,.653-.428,1.232,1.232,0,0,0,.22-.75,1.381,1.381,0,0,0-.205-.753,1.038,1.038,0,0,0-.586-.445,4.894,4.894,0,0,0-1.307-.12H304.9Zm0,3.967h2.139a4.923,4.923,0,0,0,.773-.041,1.853,1.853,0,0,0,.656-.234,1.244,1.244,0,0,0,.434-.478,1.5,1.5,0,0,0,.17-.724,1.427,1.427,0,0,0-.246-.835,1.3,1.3,0,0,0-.683-.5,4.232,4.232,0,0,0-1.257-.144H304.9Z" transform="translate(-11.885 -13.009)"/><path class="cls-8" d="M315.935,223.8l1.09.135a2.659,2.659,0,0,1-.955,1.482,3.236,3.236,0,0,1-3.946-.313,3.285,3.285,0,0,1-.8-2.358,3.438,3.438,0,0,1,.809-2.437,2.737,2.737,0,0,1,2.1-.867,2.66,2.66,0,0,1,2.039.85,3.376,3.376,0,0,1,.791,2.391q0,.094-.006.281h-4.641a2.391,2.391,0,0,0,.58,1.57,1.727,1.727,0,0,0,1.3.545,1.614,1.614,0,0,0,.99-.3A2.023,2.023,0,0,0,315.935,223.8Zm-3.463-1.705h3.475a2.108,2.108,0,0,0-.4-1.178,1.616,1.616,0,0,0-1.307-.609,1.675,1.675,0,0,0-1.222.486A1.925,1.925,0,0,0,312.472,222.1Z" transform="translate(-11.885 -13.009)"/><path class="cls-8" d="M318.155,226.322l1.025.152a.977.977,0,0,0,.357.691,1.756,1.756,0,0,0,1.072.293,1.883,1.883,0,0,0,1.131-.293,1.442,1.442,0,0,0,.539-.82,6.736,6.736,0,0,0,.076-1.354,2.169,2.169,0,0,1-1.723.814,2.349,2.349,0,0,1-1.986-.926,3.565,3.565,0,0,1-.7-2.221,4.133,4.133,0,0,1,.322-1.644,2.578,2.578,0,0,1,.935-1.163,2.523,2.523,0,0,1,1.438-.41,2.231,2.231,0,0,1,1.816.891v-.75h.973v5.379a5.1,5.1,0,0,1-.3,2.06,2.164,2.164,0,0,1-.937.958,3.249,3.249,0,0,1-1.579.352,2.978,2.978,0,0,1-1.8-.5A1.694,1.694,0,0,1,318.155,226.322Zm.873-3.738a2.7,2.7,0,0,0,.486,1.787,1.6,1.6,0,0,0,2.438,0,2.612,2.612,0,0,0,.492-1.755,2.552,2.552,0,0,0-.507-1.723,1.567,1.567,0,0,0-1.222-.58,1.522,1.522,0,0,0-1.2.571A2.537,2.537,0,0,0,319.028,222.583Z" transform="translate(-11.885 -13.009)"/><path class="cls-8" d="M325.028,218.429v-1.213h1.055v1.213Zm0,7.377v-6.223h1.055v6.223Z" transform="translate(-11.885 -13.009)"/><path class="cls-8" d="M327.688,225.806v-6.223h.949v.885a2.237,2.237,0,0,1,1.98-1.025,2.6,2.6,0,0,1,1.034.2,1.627,1.627,0,0,1,.706.53,2.035,2.035,0,0,1,.328.779,6.039,6.039,0,0,1,.059,1.025v3.826H331.69v-3.785a2.841,2.841,0,0,0-.123-.964,1.014,1.014,0,0,0-.437-.51,1.389,1.389,0,0,0-.735-.19,1.709,1.709,0,0,0-1.163.428,2.11,2.11,0,0,0-.489,1.623v3.4Z" transform="translate(-11.885 -13.009)"/><path class="cls-8" d="M334.362,225.806v-6.223h.949v.885a2.237,2.237,0,0,1,1.98-1.025,2.6,2.6,0,0,1,1.034.2,1.627,1.627,0,0,1,.706.53,2.035,2.035,0,0,1,.328.779,6.039,6.039,0,0,1,.059,1.025v3.826h-1.055v-3.785a2.841,2.841,0,0,0-.123-.964,1.014,1.014,0,0,0-.437-.51,1.389,1.389,0,0,0-.735-.19,1.709,1.709,0,0,0-1.163.428,2.11,2.11,0,0,0-.489,1.623v3.4Z" transform="translate(-11.885 -13.009)"/><path class="cls-8" d="M341.042,218.429v-1.213H342.1v1.213Zm0,7.377v-6.223H342.1v6.223Z" transform="translate(-11.885 -13.009)"/><path class="cls-8" d="M343.7,225.806v-6.223h.949v.885a2.237,2.237,0,0,1,1.98-1.025,2.6,2.6,0,0,1,1.034.2,1.627,1.627,0,0,1,.706.53,2.035,2.035,0,0,1,.328.779,6.039,6.039,0,0,1,.059,1.025v3.826H347.7v-3.785a2.841,2.841,0,0,0-.123-.964,1.014,1.014,0,0,0-.437-.51,1.389,1.389,0,0,0-.735-.19,1.709,1.709,0,0,0-1.163.428,2.11,2.11,0,0,0-.489,1.623v3.4Z" transform="translate(-11.885 -13.009)"/><path class="cls-8" d="M350.183,226.322l1.025.152a.977.977,0,0,0,.357.691,1.756,1.756,0,0,0,1.072.293,1.883,1.883,0,0,0,1.131-.293,1.442,1.442,0,0,0,.539-.82,6.736,6.736,0,0,0,.076-1.354,2.169,2.169,0,0,1-1.723.814,2.349,2.349,0,0,1-1.986-.926,3.565,3.565,0,0,1-.7-2.221,4.133,4.133,0,0,1,.322-1.644,2.578,2.578,0,0,1,.935-1.163,2.524,2.524,0,0,1,1.438-.41,2.231,2.231,0,0,1,1.816.891v-.75h.973v5.379a5.1,5.1,0,0,1-.3,2.06,2.164,2.164,0,0,1-.937.958,3.249,3.249,0,0,1-1.579.352,2.978,2.978,0,0,1-1.8-.5A1.694,1.694,0,0,1,350.183,226.322Zm.873-3.738a2.7,2.7,0,0,0,.486,1.787,1.6,1.6,0,0,0,2.438,0,2.612,2.612,0,0,0,.492-1.755,2.552,2.552,0,0,0-.507-1.723,1.567,1.567,0,0,0-1.222-.58,1.522,1.522,0,0,0-1.2.571A2.537,2.537,0,0,0,351.056,222.583Z" transform="translate(-11.885 -13.009)"/><path class="cls-8" d="M360.519,225.806v-8.59h2.959a7.177,7.177,0,0,1,1.529.123,2.909,2.909,0,0,1,1.26.615,3.5,3.5,0,0,1,1.017,1.468,5.762,5.762,0,0,1,.337,2.042,6,6,0,0,1-.229,1.734,4.208,4.208,0,0,1-.586,1.251,3.113,3.113,0,0,1-.782.779,3.188,3.188,0,0,1-1.025.431,5.852,5.852,0,0,1-1.38.146Zm1.137-1.014h1.834a4.451,4.451,0,0,0,1.333-.158,1.907,1.907,0,0,0,.771-.445,2.71,2.71,0,0,0,.63-1.087,5.314,5.314,0,0,0,.226-1.655,4,4,0,0,0-.442-2.071,2.226,2.226,0,0,0-1.075-.97,4.444,4.444,0,0,0-1.471-.176h-1.8Z" transform="translate(-11.885 -13.009)"/><path class="cls-8" d="M373.11,225.039a3.927,3.927,0,0,1-1.128.7,3.259,3.259,0,0,1-1.163.205,2.262,2.262,0,0,1-1.576-.5,1.654,1.654,0,0,1-.551-1.28,1.7,1.7,0,0,1,.208-.835,1.722,1.722,0,0,1,.545-.606,2.562,2.562,0,0,1,.759-.346,7.536,7.536,0,0,1,.938-.158,9.64,9.64,0,0,0,1.881-.363q.006-.217.006-.275a1.164,1.164,0,0,0-.3-.908,1.765,1.765,0,0,0-1.2-.357,1.863,1.863,0,0,0-1.1.261,1.593,1.593,0,0,0-.524.923l-1.031-.141a2.555,2.555,0,0,1,.463-1.069,2.029,2.029,0,0,1,.932-.627,4.155,4.155,0,0,1,1.412-.22,3.738,3.738,0,0,1,1.295.188,1.706,1.706,0,0,1,.732.472,1.659,1.659,0,0,1,.328.718,5.938,5.938,0,0,1,.053.973V223.2a14.926,14.926,0,0,0,.067,1.86,2.347,2.347,0,0,0,.267.747h-1.1A2.236,2.236,0,0,1,373.11,225.039Zm-.088-2.355a7.738,7.738,0,0,1-1.723.4,3.985,3.985,0,0,0-.92.211.917.917,0,0,0-.416.343.932.932,0,0,0,.173,1.2,1.374,1.374,0,0,0,.935.281,2.175,2.175,0,0,0,1.084-.267,1.642,1.642,0,0,0,.7-.729,2.548,2.548,0,0,0,.17-1.055Z" transform="translate(-11.885 -13.009)"/><path class="cls-8" d="M378.026,224.863l.152.932a3.912,3.912,0,0,1-.8.094,1.8,1.8,0,0,1-.891-.182,1.017,1.017,0,0,1-.445-.478,3.776,3.776,0,0,1-.129-1.245V220.4h-.773v-.82h.773v-1.541l1.049-.633v2.174h1.061v.82h-1.061v3.639a1.838,1.838,0,0,0,.056.58.439.439,0,0,0,.182.205.7.7,0,0,0,.36.076A3.431,3.431,0,0,0,378.026,224.863Z" transform="translate(-11.885 -13.009)"/><path class="cls-8" d="M383.317,223.8l1.09.135a2.659,2.659,0,0,1-.955,1.482,3.236,3.236,0,0,1-3.946-.313,3.285,3.285,0,0,1-.8-2.358,3.438,3.438,0,0,1,.809-2.437,2.737,2.737,0,0,1,2.1-.867,2.66,2.66,0,0,1,2.039.85,3.376,3.376,0,0,1,.791,2.391q0,.094-.006.281H379.8a2.391,2.391,0,0,0,.58,1.57,1.727,1.727,0,0,0,1.3.545,1.614,1.614,0,0,0,.99-.3A2.023,2.023,0,0,0,383.317,223.8Zm-3.463-1.705h3.475a2.108,2.108,0,0,0-.4-1.178,1.616,1.616,0,0,0-1.307-.609,1.675,1.675,0,0,0-1.222.486A1.925,1.925,0,0,0,379.854,222.1Z" transform="translate(-11.885 -13.009)"/><path class="cls-7" d="M193.98,261.8a10.544,10.544,0,0,1-1.477-2.578,8.091,8.091,0,0,1-.152-5.73,11.231,11.231,0,0,1,1.629-2.953h.756q-.709,1.219-.937,1.74a9.507,9.507,0,0,0-.562,1.688,9.8,9.8,0,0,0-.252,2.2,10.574,10.574,0,0,0,1.752,5.631Z" transform="translate(-11.885 -13.009)"/><path class="cls-7" d="M195.515,256.84l1.025-.141a2.2,2.2,0,0,0,.369,1.348,1.162,1.162,0,0,0,.908.363,1.353,1.353,0,0,0,.738-.2,1.008,1.008,0,0,0,.428-.533,3.561,3.561,0,0,0,.117-1.075v-5.918h1.137v5.854a4.264,4.264,0,0,1-.261,1.67,1.857,1.857,0,0,1-.826.9,2.714,2.714,0,0,1-1.327.311,2.24,2.24,0,0,1-1.731-.65A2.684,2.684,0,0,1,195.515,256.84Z" transform="translate(-11.885 -13.009)"/><path class="cls-7" d="M201.966,251.9v-1.213h1.055V251.9Zm0,7.377v-6.223h1.055v6.223Z" transform="translate(-11.885 -13.009)"/><path class="cls-7" d="M204.626,259.278v-6.223h.943v.873a2.218,2.218,0,0,1,.779-.735,2.189,2.189,0,0,1,1.107-.278,2.047,2.047,0,0,1,1.134.287,1.537,1.537,0,0,1,.624.8,2.234,2.234,0,0,1,1.922-1.09,1.894,1.894,0,0,1,1.424.513,2.191,2.191,0,0,1,.5,1.579v4.271h-1.049v-3.92a2.886,2.886,0,0,0-.1-.911.883.883,0,0,0-.372-.448,1.161,1.161,0,0,0-.633-.17,1.473,1.473,0,0,0-1.09.437,1.923,1.923,0,0,0-.434,1.4v3.615h-1.055v-4.043a1.779,1.779,0,0,0-.258-1.055.976.976,0,0,0-.844-.352,1.533,1.533,0,0,0-.823.234,1.329,1.329,0,0,0-.548.686,3.859,3.859,0,0,0-.17,1.3v3.229Z" transform="translate(-11.885 -13.009)"/><path class="cls-7" d="M214.558,251.825V250.6h1.131v.967a2.585,2.585,0,0,1-.182,1.131,1.6,1.6,0,0,1-.785.715l-.258-.416a.916.916,0,0,0,.472-.407,1.708,1.708,0,0,0,.173-.765Z" transform="translate(-11.885 -13.009)"/><path class="cls-7" d="M216.65,257.42l1.043-.164a1.458,1.458,0,0,0,.489.961,1.705,1.705,0,0,0,1.122.334,1.648,1.648,0,0,0,1.078-.3.885.885,0,0,0,.352-.694.641.641,0,0,0-.311-.562,4.574,4.574,0,0,0-1.078-.357,9.838,9.838,0,0,1-1.608-.507,1.535,1.535,0,0,1-.911-1.427,1.6,1.6,0,0,1,.19-.771,1.708,1.708,0,0,1,.519-.589,2.174,2.174,0,0,1,.671-.308,3.19,3.19,0,0,1,.911-.126,3.6,3.6,0,0,1,1.286.211,1.749,1.749,0,0,1,.817.571,2.232,2.232,0,0,1,.363.964l-1.031.141a1.128,1.128,0,0,0-.407-.75,1.489,1.489,0,0,0-.952-.27,1.724,1.724,0,0,0-1.037.24.7.7,0,0,0-.311.563.582.582,0,0,0,.129.369.93.93,0,0,0,.4.281q.158.059.932.27a12.969,12.969,0,0,1,1.562.489,1.584,1.584,0,0,1,.694.554,1.546,1.546,0,0,1,.252.9,1.771,1.771,0,0,1-.308.993,1.988,1.988,0,0,1-.888.721,3.231,3.231,0,0,1-1.312.255,2.924,2.924,0,0,1-1.849-.5A2.343,2.343,0,0,1,216.65,257.42Z" transform="translate(-11.885 -13.009)"/><path class="cls-7" d="M226.558,259.278v-8.59h3.809a5.069,5.069,0,0,1,1.746.231,1.909,1.909,0,0,1,.955.817,2.439,2.439,0,0,1,.357,1.295,2.16,2.16,0,0,1-.592,1.541,3,3,0,0,1-1.828.8,2.948,2.948,0,0,1,.686.428,5.906,5.906,0,0,1,.943,1.143l1.494,2.338H232.7l-1.137-1.787q-.5-.773-.82-1.184a2.579,2.579,0,0,0-.577-.574,1.706,1.706,0,0,0-.519-.229,3.415,3.415,0,0,0-.633-.041h-1.318v3.814Zm1.137-4.8h2.443a3.664,3.664,0,0,0,1.219-.161,1.3,1.3,0,0,0,.668-.516,1.4,1.4,0,0,0,.229-.771,1.28,1.28,0,0,0-.442-1,2.07,2.07,0,0,0-1.4-.393h-2.719Z" transform="translate(-11.885 -13.009)"/><path class="cls-7" d="M235.16,259.278v-8.59h3.223a3.989,3.989,0,0,1,1.579.261,2.03,2.03,0,0,1,.932.8,2.116,2.116,0,0,1,.337,1.134,1.948,1.948,0,0,1-.3,1.037,2.134,2.134,0,0,1-.9.785,2.244,2.244,0,0,1,1.2.779,2.087,2.087,0,0,1,.419,1.3,2.509,2.509,0,0,1-.255,1.122,2.172,2.172,0,0,1-.63.8,2.629,2.629,0,0,1-.94.425,5.72,5.72,0,0,1-1.386.144Zm1.137-4.98h1.857a4.145,4.145,0,0,0,1.084-.1,1.2,1.2,0,0,0,.653-.428,1.232,1.232,0,0,0,.22-.75,1.381,1.381,0,0,0-.205-.753,1.038,1.038,0,0,0-.586-.445,4.894,4.894,0,0,0-1.307-.12H236.3Zm0,3.967h2.139a4.923,4.923,0,0,0,.773-.041,1.853,1.853,0,0,0,.656-.234,1.244,1.244,0,0,0,.434-.478,1.5,1.5,0,0,0,.17-.724,1.427,1.427,0,0,0-.246-.835,1.3,1.3,0,0,0-.683-.5,4.232,4.232,0,0,0-1.257-.144H236.3Z" transform="translate(-11.885 -13.009)"/><path class="cls-7" d="M243.21,259.278v-8.59h2.959a7.177,7.177,0,0,1,1.529.123,2.909,2.909,0,0,1,1.26.615,3.5,3.5,0,0,1,1.017,1.468,5.762,5.762,0,0,1,.337,2.042,6,6,0,0,1-.229,1.734,4.208,4.208,0,0,1-.586,1.251,3.113,3.113,0,0,1-.782.779,3.188,3.188,0,0,1-1.025.431,5.852,5.852,0,0,1-1.38.146Zm1.137-1.014h1.834a4.451,4.451,0,0,0,1.333-.158,1.907,1.907,0,0,0,.771-.445,2.71,2.71,0,0,0,.63-1.087,5.314,5.314,0,0,0,.226-1.655,4,4,0,0,0-.442-2.071,2.226,2.226,0,0,0-1.075-.97,4.444,4.444,0,0,0-1.471-.176h-1.8Z" transform="translate(-11.885 -13.009)"/><path class="cls-7" d="M255.082,251.9v-1.213h1.055V251.9Zm0,7.377v-6.223h1.055v6.223Z" transform="translate(-11.885 -13.009)"/><path class="cls-7" d="M257.32,257.42l1.043-.164a1.458,1.458,0,0,0,.489.961,1.705,1.705,0,0,0,1.122.334,1.648,1.648,0,0,0,1.078-.3.885.885,0,0,0,.352-.694.641.641,0,0,0-.311-.562,4.574,4.574,0,0,0-1.078-.357,9.838,9.838,0,0,1-1.608-.507,1.535,1.535,0,0,1-.911-1.427,1.6,1.6,0,0,1,.19-.771,1.708,1.708,0,0,1,.519-.589,2.174,2.174,0,0,1,.671-.308,3.19,3.19,0,0,1,.911-.126,3.6,3.6,0,0,1,1.286.211,1.749,1.749,0,0,1,.817.571,2.232,2.232,0,0,1,.363.964l-1.031.141a1.128,1.128,0,0,0-.407-.75,1.489,1.489,0,0,0-.952-.27,1.724,1.724,0,0,0-1.037.24.7.7,0,0,0-.311.563.582.582,0,0,0,.129.369.93.93,0,0,0,.4.281q.158.059.932.27a12.969,12.969,0,0,1,1.562.489,1.584,1.584,0,0,1,.694.554,1.546,1.546,0,0,1,.252.9,1.771,1.771,0,0,1-.308.993,1.988,1.988,0,0,1-.888.721,3.231,3.231,0,0,1-1.312.255,2.924,2.924,0,0,1-1.849-.5A2.343,2.343,0,0,1,257.32,257.42Z" transform="translate(-11.885 -13.009)"/><path class="cls-7" d="M268.048,259.278h-.979v-8.59h1.055v3.064a2.087,2.087,0,0,1,1.705-.838,2.611,2.611,0,0,1,1.087.231,2.22,2.22,0,0,1,.844.65,3.144,3.144,0,0,1,.519,1.011,4.167,4.167,0,0,1,.188,1.266,3.555,3.555,0,0,1-.791,2.473,2.474,2.474,0,0,1-1.9.873,1.981,1.981,0,0,1-1.729-.92Zm-.012-3.158a3.23,3.23,0,0,0,.3,1.617,1.508,1.508,0,0,0,2.543.214,2.729,2.729,0,0,0,.5-1.79,2.776,2.776,0,0,0-.483-1.8,1.472,1.472,0,0,0-1.169-.58,1.517,1.517,0,0,0-1.2.6A2.637,2.637,0,0,0,268.037,256.12Z" transform="translate(-11.885 -13.009)"/><path class="cls-7" d="M278.009,257.274l1.09.135a2.659,2.659,0,0,1-.955,1.482,3.236,3.236,0,0,1-3.946-.313,3.285,3.285,0,0,1-.8-2.358,3.438,3.438,0,0,1,.809-2.437,2.737,2.737,0,0,1,2.1-.867,2.66,2.66,0,0,1,2.039.85,3.376,3.376,0,0,1,.791,2.391q0,.094-.006.281h-4.641a2.391,2.391,0,0,0,.58,1.57,1.727,1.727,0,0,0,1.3.545,1.614,1.614,0,0,0,.99-.3A2.023,2.023,0,0,0,278.009,257.274Zm-3.463-1.705h3.475a2.108,2.108,0,0,0-.4-1.178,1.616,1.616,0,0,0-1.307-.609,1.675,1.675,0,0,0-1.222.486A1.925,1.925,0,0,0,274.546,255.569Z" transform="translate(-11.885 -13.009)"/><path class="cls-7" d="M282.726,258.334l.152.932a3.912,3.912,0,0,1-.8.094,1.8,1.8,0,0,1-.891-.182,1.017,1.017,0,0,1-.445-.478,3.776,3.776,0,0,1-.129-1.245v-3.58h-.773v-.82h.773v-1.541l1.049-.633v2.174h1.061v.82h-1.061v3.639a1.838,1.838,0,0,0,.056.58.439.439,0,0,0,.182.205.7.7,0,0,0,.36.076A3.431,3.431,0,0,0,282.726,258.334Z" transform="translate(-11.885 -13.009)"/><path class="cls-7" d="M284.906,259.278l-1.9-6.223h1.09l.99,3.592.369,1.336q.023-.1.322-1.283l.99-3.645h1.084l.932,3.609.311,1.189.357-1.2,1.066-3.6h1.025l-1.945,6.223h-1.1l-.99-3.727-.24-1.061-1.26,4.787Z" transform="translate(-11.885 -13.009)"/><path class="cls-7" d="M296.683,257.274l1.09.135a2.659,2.659,0,0,1-.955,1.482,3.236,3.236,0,0,1-3.946-.313,3.285,3.285,0,0,1-.8-2.358,3.438,3.438,0,0,1,.809-2.437,2.737,2.737,0,0,1,2.1-.867,2.66,2.66,0,0,1,2.039.85,3.376,3.376,0,0,1,.791,2.391q0,.094-.006.281h-4.641a2.391,2.391,0,0,0,.58,1.57,1.727,1.727,0,0,0,1.3.545,1.614,1.614,0,0,0,.99-.3A2.023,2.023,0,0,0,296.683,257.274Zm-3.463-1.705h3.475a2.108,2.108,0,0,0-.4-1.178,1.616,1.616,0,0,0-1.307-.609,1.675,1.675,0,0,0-1.222.486A1.925,1.925,0,0,0,293.22,255.569Z" transform="translate(-11.885 -13.009)"/><path class="cls-7" d="M303.357,257.274l1.09.135a2.659,2.659,0,0,1-.955,1.482,3.236,3.236,0,0,1-3.946-.313,3.285,3.285,0,0,1-.8-2.358,3.438,3.438,0,0,1,.809-2.437,2.737,2.737,0,0,1,2.1-.867,2.66,2.66,0,0,1,2.039.85,3.376,3.376,0,0,1,.791,2.391q0,.094-.006.281h-4.641a2.391,2.391,0,0,0,.58,1.57,1.727,1.727,0,0,0,1.3.545,1.614,1.614,0,0,0,.99-.3A2.023,2.023,0,0,0,303.357,257.274Zm-3.463-1.705h3.475a2.108,2.108,0,0,0-.4-1.178,1.616,1.616,0,0,0-1.307-.609,1.675,1.675,0,0,0-1.222.486A1.925,1.925,0,0,0,299.894,255.569Z" transform="translate(-11.885 -13.009)"/><path class="cls-7" d="M305.771,259.278v-6.223h.949v.885a2.235,2.235,0,0,1,1.98-1.025,2.6,2.6,0,0,1,1.034.2,1.627,1.627,0,0,1,.706.53,2.035,2.035,0,0,1,.328.779,6.039,6.039,0,0,1,.059,1.025v3.826h-1.055v-3.785a2.841,2.841,0,0,0-.123-.964,1.014,1.014,0,0,0-.437-.51,1.389,1.389,0,0,0-.735-.19,1.709,1.709,0,0,0-1.163.428,2.112,2.112,0,0,0-.489,1.623v3.4Z" transform="translate(-11.885 -13.009)"/><path class="cls-7" d="M319.458,259.278H318.4v-6.721a5.451,5.451,0,0,1-1,.727,7.082,7.082,0,0,1-1.11.545v-1.02a6.369,6.369,0,0,0,1.547-1.008,3.964,3.964,0,0,0,.938-1.148h.68Z" transform="translate(-11.885 -13.009)"/><path class="cls-7" d="M321.661,259.424l2.49-8.883H325l-2.484,8.883Z" transform="translate(-11.885 -13.009)"/><path class="cls-7" d="M329.466,259.278h-1.055v-6.721a5.451,5.451,0,0,1-1,.727,7.082,7.082,0,0,1-1.11.545v-1.02a6.369,6.369,0,0,0,1.547-1.008,3.964,3.964,0,0,0,.938-1.148h.68Z" transform="translate(-11.885 -13.009)"/><path class="cls-7" d="M331.669,259.424l2.49-8.883H335l-2.484,8.883Z" transform="translate(-11.885 -13.009)"/><path class="cls-7" d="M341.044,258.264v1.014h-5.678a1.866,1.866,0,0,1,.123-.732,3.875,3.875,0,0,1,.694-1.143,10.878,10.878,0,0,1,1.38-1.3,11.7,11.7,0,0,0,1.893-1.819,2.178,2.178,0,0,0,.492-1.269,1.409,1.409,0,0,0-.448-1.058,1.617,1.617,0,0,0-1.169-.431,1.647,1.647,0,0,0-1.219.457,1.729,1.729,0,0,0-.463,1.266l-1.084-.111a2.668,2.668,0,0,1,.838-1.849,2.858,2.858,0,0,1,1.951-.636,2.723,2.723,0,0,1,1.957.686,2.251,2.251,0,0,1,.721,1.7,2.577,2.577,0,0,1-.211,1.014,3.934,3.934,0,0,1-.7,1.049,17.058,17.058,0,0,1-1.626,1.512q-.949.8-1.219,1.081a3.468,3.468,0,0,0-.445.571Z" transform="translate(-11.885 -13.009)"/><path class="cls-7" d="M342.175,255.042a7.86,7.86,0,0,1,.313-2.452,3.05,3.05,0,0,1,.932-1.433,2.382,2.382,0,0,1,1.556-.5,2.538,2.538,0,0,1,1.213.278,2.319,2.319,0,0,1,.861.8,4.306,4.306,0,0,1,.533,1.277,8.487,8.487,0,0,1,.193,2.03,7.882,7.882,0,0,1-.311,2.44,3.051,3.051,0,0,1-.929,1.436,2.382,2.382,0,0,1-1.562.507,2.357,2.357,0,0,1-1.951-.891A5.661,5.661,0,0,1,342.175,255.042Zm1.084,0a5.386,5.386,0,0,0,.5,2.815,1.414,1.414,0,0,0,2.443,0,8.252,8.252,0,0,0,0-5.631,1.47,1.47,0,0,0-1.233-.7,1.351,1.351,0,0,0-1.16.615A5.448,5.448,0,0,0,343.259,255.042Z" transform="translate(-11.885 -13.009)"/><path class="cls-7" d="M352.821,259.278h-1.055v-6.721a5.451,5.451,0,0,1-1,.727,7.082,7.082,0,0,1-1.11.545v-1.02A6.369,6.369,0,0,0,351.2,251.8a3.964,3.964,0,0,0,.938-1.148h.68Z" transform="translate(-11.885 -13.009)"/><path class="cls-7" d="M361.065,258.264v1.014h-5.678a1.866,1.866,0,0,1,.123-.732,3.875,3.875,0,0,1,.694-1.143,10.878,10.878,0,0,1,1.38-1.3,11.7,11.7,0,0,0,1.893-1.819,2.178,2.178,0,0,0,.492-1.269,1.409,1.409,0,0,0-.448-1.058,1.617,1.617,0,0,0-1.169-.431,1.647,1.647,0,0,0-1.219.457,1.729,1.729,0,0,0-.463,1.266l-1.084-.111a2.668,2.668,0,0,1,.838-1.849,2.858,2.858,0,0,1,1.951-.636,2.723,2.723,0,0,1,1.957.686,2.251,2.251,0,0,1,.721,1.7,2.577,2.577,0,0,1-.211,1.014,3.934,3.934,0,0,1-.7,1.049,17.058,17.058,0,0,1-1.626,1.512q-.949.8-1.219,1.081a3.468,3.468,0,0,0-.445.571Z" transform="translate(-11.885 -13.009)"/><path class="cls-7" d="M365.413,256.7v-1.061h3.24V256.7Z" transform="translate(-11.885 -13.009)"/><path class="cls-7" d="M376.241,259.278v-2.057h-3.727v-.967l3.92-5.566h.861v5.566h1.16v.967H377.3v2.057Zm0-3.023v-3.873l-2.689,3.873Z" transform="translate(-11.885 -13.009)"/><path class="cls-7" d="M379.036,259.424l2.49-8.883h.844l-2.484,8.883Z" transform="translate(-11.885 -13.009)"/><path class="cls-7" d="M386.841,259.278h-1.055v-6.721a5.451,5.451,0,0,1-1,.727,7.082,7.082,0,0,1-1.11.545v-1.02a6.369,6.369,0,0,0,1.547-1.008,3.964,3.964,0,0,0,.938-1.148h.68Z" transform="translate(-11.885 -13.009)"/><path class="cls-7" d="M389.044,259.424l2.49-8.883h.844l-2.484,8.883Z" transform="translate(-11.885 -13.009)"/><path class="cls-7" d="M398.419,258.264v1.014h-5.678a1.866,1.866,0,0,1,.123-.732,3.875,3.875,0,0,1,.694-1.143,10.878,10.878,0,0,1,1.38-1.3,11.7,11.7,0,0,0,1.893-1.819,2.178,2.178,0,0,0,.492-1.269,1.409,1.409,0,0,0-.448-1.058,1.617,1.617,0,0,0-1.169-.431,1.647,1.647,0,0,0-1.219.457,1.729,1.729,0,0,0-.463,1.266l-1.084-.111a2.668,2.668,0,0,1,.838-1.849,2.858,2.858,0,0,1,1.951-.636,2.723,2.723,0,0,1,1.957.686,2.251,2.251,0,0,1,.721,1.7,2.577,2.577,0,0,1-.211,1.014,3.934,3.934,0,0,1-.7,1.049,17.058,17.058,0,0,1-1.626,1.512q-.949.8-1.219,1.081a3.468,3.468,0,0,0-.445.571Z" transform="translate(-11.885 -13.009)"/><path class="cls-7" d="M399.55,255.042a7.86,7.86,0,0,1,.313-2.452,3.05,3.05,0,0,1,.932-1.433,2.382,2.382,0,0,1,1.556-.5,2.538,2.538,0,0,1,1.213.278,2.319,2.319,0,0,1,.861.8,4.306,4.306,0,0,1,.533,1.277,8.487,8.487,0,0,1,.193,2.03,7.882,7.882,0,0,1-.311,2.44,3.051,3.051,0,0,1-.929,1.436,2.382,2.382,0,0,1-1.562.507,2.357,2.357,0,0,1-1.951-.891A5.661,5.661,0,0,1,399.55,255.042Zm1.084,0a5.386,5.386,0,0,0,.5,2.815,1.414,1.414,0,0,0,2.443,0,8.252,8.252,0,0,0,0-5.631,1.47,1.47,0,0,0-1.233-.7,1.351,1.351,0,0,0-1.16.615A5.448,5.448,0,0,0,400.634,255.042Z" transform="translate(-11.885 -13.009)"/><path class="cls-7" d="M410.2,259.278h-1.055v-6.721a5.451,5.451,0,0,1-1,.727,7.082,7.082,0,0,1-1.11.545v-1.02a6.369,6.369,0,0,0,1.547-1.008,3.964,3.964,0,0,0,.938-1.148h.68Z" transform="translate(-11.885 -13.009)"/><path class="cls-7" d="M412.9,257.01l1.055-.141a2.324,2.324,0,0,0,.618,1.292,1.527,1.527,0,0,0,1.063.4,1.7,1.7,0,0,0,1.257-.516,1.74,1.74,0,0,0,.513-1.277,1.618,1.618,0,0,0-.475-1.2,1.641,1.641,0,0,0-1.207-.472,3.028,3.028,0,0,0-.744.117l.117-.926a1.612,1.612,0,0,0,.17.012,2.172,2.172,0,0,0,1.213-.352,1.2,1.2,0,0,0,.539-1.084,1.282,1.282,0,0,0-.393-.961,1.4,1.4,0,0,0-1.014-.381,1.436,1.436,0,0,0-1.025.387,1.941,1.941,0,0,0-.527,1.16l-1.055-.187a2.711,2.711,0,0,1,.879-1.644,2.541,2.541,0,0,1,1.705-.583,2.809,2.809,0,0,1,1.295.3,2.183,2.183,0,0,1,.905.823,2.115,2.115,0,0,1,.313,1.107,1.813,1.813,0,0,1-.3,1.014,2.04,2.04,0,0,1-.885.727,1.993,1.993,0,0,1,1.184.729,2.22,2.22,0,0,1,.422,1.386,2.535,2.535,0,0,1-.82,1.907,2.885,2.885,0,0,1-2.074.782,2.7,2.7,0,0,1-1.878-.674A2.606,2.606,0,0,1,412.9,257.01Z" transform="translate(-11.885 -13.009)"/><path class="cls-7" d="M420.556,261.8H419.8a10.574,10.574,0,0,0,1.752-5.631,9.623,9.623,0,0,0-.252-2.186,9.186,9.186,0,0,0-.557-1.687,19.8,19.8,0,0,0-.943-1.758h.756a11.231,11.231,0,0,1,1.629,2.953,8.072,8.072,0,0,1-.155,5.73A10.73,10.73,0,0,1,420.556,261.8Z" transform="translate(-11.885 -13.009)"/><rect class="cls-9" x="14.372" y="75.893" width="287.485" height="24.499"/><polygon class="cls-9" points="301.857 59.28 332.38 88.142 301.857 117.005 301.857 59.28"/><path class="cls-7" d="M91.951,106.285V98.708h-2.83V97.695h6.809v1.014H93.087v7.576Z" transform="translate(-11.885 -13.009)"/><path class="cls-7" d="M96.521,98.908V97.695h1.055v1.213Zm0,7.377v-6.223h1.055v6.223Z" transform="translate(-11.885 -13.009)"/><path class="cls-7" d="M99.181,106.285v-6.223h.943v.873a2.218,2.218,0,0,1,.779-.735,2.189,2.189,0,0,1,1.107-.278,2.047,2.047,0,0,1,1.134.287,1.537,1.537,0,0,1,.624.8,2.234,2.234,0,0,1,1.922-1.09,1.894,1.894,0,0,1,1.424.513,2.191,2.191,0,0,1,.5,1.579v4.271h-1.049v-3.92a2.886,2.886,0,0,0-.1-.911.883.883,0,0,0-.372-.448,1.161,1.161,0,0,0-.633-.17,1.473,1.473,0,0,0-1.09.437,1.923,1.923,0,0,0-.434,1.4v3.615h-1.055v-4.043a1.779,1.779,0,0,0-.258-1.055.976.976,0,0,0-.844-.352,1.533,1.533,0,0,0-.823.234,1.329,1.329,0,0,0-.548.686,3.859,3.859,0,0,0-.17,1.3v3.229Z" transform="translate(-11.885 -13.009)"/><path class="cls-7" d="M113.437,104.281l1.09.135a2.659,2.659,0,0,1-.955,1.482,3.236,3.236,0,0,1-3.946-.313,3.285,3.285,0,0,1-.8-2.358,3.438,3.438,0,0,1,.809-2.437,2.737,2.737,0,0,1,2.1-.867,2.66,2.66,0,0,1,2.039.85,3.376,3.376,0,0,1,.791,2.391q0,.094-.006.281h-4.641a2.391,2.391,0,0,0,.58,1.57,1.727,1.727,0,0,0,1.3.545,1.614,1.614,0,0,0,.99-.3A2.023,2.023,0,0,0,113.437,104.281Zm-3.463-1.705h3.475a2.108,2.108,0,0,0-.4-1.178,1.616,1.616,0,0,0-1.307-.609,1.675,1.675,0,0,0-1.222.486A1.925,1.925,0,0,0,109.974,102.576Z" transform="translate(-11.885 -13.009)"/><path class="cls-7" d="M118.763,104.427l1.043-.164a1.458,1.458,0,0,0,.489.961,1.705,1.705,0,0,0,1.122.334,1.648,1.648,0,0,0,1.078-.3.885.885,0,0,0,.352-.694.641.641,0,0,0-.311-.562,4.574,4.574,0,0,0-1.078-.357,9.838,9.838,0,0,1-1.608-.507,1.535,1.535,0,0,1-.911-1.427,1.6,1.6,0,0,1,.19-.771,1.708,1.708,0,0,1,.519-.589,2.174,2.174,0,0,1,.671-.308,3.19,3.19,0,0,1,.911-.126,3.6,3.6,0,0,1,1.286.211,1.749,1.749,0,0,1,.817.571,2.232,2.232,0,0,1,.363.964l-1.031.141a1.128,1.128,0,0,0-.407-.75,1.489,1.489,0,0,0-.952-.27,1.724,1.724,0,0,0-1.037.24.7.7,0,0,0-.311.563.582.582,0,0,0,.129.369.93.93,0,0,0,.4.281q.158.059.932.27a12.969,12.969,0,0,1,1.562.489,1.584,1.584,0,0,1,.694.554,1.546,1.546,0,0,1,.252.9,1.771,1.771,0,0,1-.308.993,1.988,1.988,0,0,1-.888.721,3.231,3.231,0,0,1-1.312.255,2.924,2.924,0,0,1-1.849-.5A2.343,2.343,0,0,1,118.763,104.427Z" transform="translate(-11.885 -13.009)"/><path class="cls-7" d="M125.185,108.669v-8.607h.961v.809a2.369,2.369,0,0,1,.768-.712,2.109,2.109,0,0,1,1.037-.237,2.459,2.459,0,0,1,1.406.41,2.517,2.517,0,0,1,.92,1.157,4.225,4.225,0,0,1,.311,1.638,4.16,4.16,0,0,1-.343,1.72,2.584,2.584,0,0,1-1,1.172,2.558,2.558,0,0,1-1.374.407,1.985,1.985,0,0,1-.946-.223,2.155,2.155,0,0,1-.688-.562v3.029Zm.955-5.461a2.707,2.707,0,0,0,.486,1.775,1.491,1.491,0,0,0,1.178.574,1.525,1.525,0,0,0,1.2-.595,2.822,2.822,0,0,0,.5-1.843,2.749,2.749,0,0,0-.489-1.781,1.473,1.473,0,0,0-1.169-.592,1.519,1.519,0,0,0-1.192.63A2.818,2.818,0,0,0,126.14,103.208Z" transform="translate(-11.885 -13.009)"/><path class="cls-7" d="M135.919,105.517a3.927,3.927,0,0,1-1.128.7,3.259,3.259,0,0,1-1.163.205,2.262,2.262,0,0,1-1.576-.5,1.654,1.654,0,0,1-.551-1.28,1.7,1.7,0,0,1,.208-.835,1.722,1.722,0,0,1,.545-.606,2.562,2.562,0,0,1,.759-.346,7.536,7.536,0,0,1,.938-.158,9.64,9.64,0,0,0,1.881-.363q.006-.217.006-.275a1.164,1.164,0,0,0-.3-.908,1.765,1.765,0,0,0-1.2-.357,1.863,1.863,0,0,0-1.1.261,1.593,1.593,0,0,0-.524.923l-1.031-.141a2.555,2.555,0,0,1,.463-1.069,2.029,2.029,0,0,1,.932-.627,4.155,4.155,0,0,1,1.412-.22,3.738,3.738,0,0,1,1.295.187,1.706,1.706,0,0,1,.732.472,1.659,1.659,0,0,1,.328.718,5.938,5.938,0,0,1,.053.973v1.406a14.926,14.926,0,0,0,.067,1.86,2.347,2.347,0,0,0,.267.747h-1.1A2.236,2.236,0,0,1,135.919,105.517Zm-.088-2.355a7.738,7.738,0,0,1-1.723.4,3.985,3.985,0,0,0-.92.211.917.917,0,0,0-.416.343.932.932,0,0,0,.173,1.2,1.374,1.374,0,0,0,.935.281,2.175,2.175,0,0,0,1.084-.267,1.642,1.642,0,0,0,.7-.729,2.548,2.548,0,0,0,.17-1.055Z" transform="translate(-11.885 -13.009)"/><path class="cls-7" d="M138.533,106.285v-6.223h.949v.885a2.237,2.237,0,0,1,1.98-1.025,2.6,2.6,0,0,1,1.034.2,1.627,1.627,0,0,1,.706.53,2.035,2.035,0,0,1,.328.779,6.039,6.039,0,0,1,.059,1.025v3.826h-1.055V102.5a2.841,2.841,0,0,0-.123-.964,1.014,1.014,0,0,0-.437-.51,1.389,1.389,0,0,0-.735-.19,1.709,1.709,0,0,0-1.163.428,2.11,2.11,0,0,0-.489,1.623v3.4Z" transform="translate(-11.885 -13.009)"/><path class="cls-7" d="M150.843,105.341l.152.932a3.912,3.912,0,0,1-.8.094,1.8,1.8,0,0,1-.891-.182,1.017,1.017,0,0,1-.445-.478,3.776,3.776,0,0,1-.129-1.245v-3.58h-.773v-.82h.773V98.521l1.049-.633v2.174h1.061v.82h-1.061v3.639a1.838,1.838,0,0,0,.056.58.439.439,0,0,0,.182.205.7.7,0,0,0,.36.076A3.431,3.431,0,0,0,150.843,105.341Z" transform="translate(-11.885 -13.009)"/><path class="cls-7" d="M151.482,103.173a3.207,3.207,0,0,1,.961-2.561,2.9,2.9,0,0,1,1.957-.691,2.792,2.792,0,0,1,2.1.841,3.2,3.2,0,0,1,.814,2.323,4.117,4.117,0,0,1-.36,1.89,2.551,2.551,0,0,1-1.049,1.069,3.054,3.054,0,0,1-1.5.381,2.8,2.8,0,0,1-2.112-.838A3.347,3.347,0,0,1,151.482,103.173Zm1.084,0a2.65,2.65,0,0,0,.521,1.79,1.736,1.736,0,0,0,2.619,0,2.713,2.713,0,0,0,.521-1.822,2.571,2.571,0,0,0-.524-1.749,1.739,1.739,0,0,0-2.616,0A2.639,2.639,0,0,0,152.566,103.173Z" transform="translate(-11.885 -13.009)"/><path class="cls-7" d="M161.882,106.285v-6.223h.943v.873a2.218,2.218,0,0,1,.779-.735,2.189,2.189,0,0,1,1.107-.278,2.047,2.047,0,0,1,1.134.287,1.537,1.537,0,0,1,.624.8,2.234,2.234,0,0,1,1.922-1.09,1.894,1.894,0,0,1,1.424.513,2.191,2.191,0,0,1,.5,1.579v4.271h-1.049v-3.92a2.886,2.886,0,0,0-.1-.911.883.883,0,0,0-.372-.448,1.161,1.161,0,0,0-.633-.17,1.473,1.473,0,0,0-1.09.437,1.923,1.923,0,0,0-.434,1.4v3.615H165.58v-4.043a1.779,1.779,0,0,0-.258-1.055.976.976,0,0,0-.844-.352,1.533,1.533,0,0,0-.823.234,1.329,1.329,0,0,0-.548.686,3.859,3.859,0,0,0-.17,1.3v3.229Z" transform="translate(-11.885 -13.009)"/><path class="cls-7" d="M175.939,105.517a3.927,3.927,0,0,1-1.128.7,3.259,3.259,0,0,1-1.163.205,2.262,2.262,0,0,1-1.576-.5,1.654,1.654,0,0,1-.551-1.28,1.7,1.7,0,0,1,.208-.835,1.722,1.722,0,0,1,.545-.606,2.562,2.562,0,0,1,.759-.346,7.536,7.536,0,0,1,.938-.158,9.64,9.64,0,0,0,1.881-.363q.006-.217.006-.275a1.164,1.164,0,0,0-.3-.908,1.765,1.765,0,0,0-1.2-.357,1.863,1.863,0,0,0-1.1.261,1.593,1.593,0,0,0-.524.923l-1.031-.141a2.555,2.555,0,0,1,.463-1.069,2.029,2.029,0,0,1,.932-.627,4.155,4.155,0,0,1,1.412-.22,3.738,3.738,0,0,1,1.295.187,1.706,1.706,0,0,1,.732.472,1.659,1.659,0,0,1,.328.718,5.938,5.938,0,0,1,.053.973v1.406a14.926,14.926,0,0,0,.067,1.86,2.347,2.347,0,0,0,.267.747h-1.1A2.236,2.236,0,0,1,175.939,105.517Zm-.088-2.355a7.738,7.738,0,0,1-1.723.4,3.985,3.985,0,0,0-.92.211.917.917,0,0,0-.416.343.932.932,0,0,0,.173,1.2,1.374,1.374,0,0,0,.935.281,2.175,2.175,0,0,0,1.084-.267,1.642,1.642,0,0,0,.7-.729,2.548,2.548,0,0,0,.17-1.055Z" transform="translate(-11.885 -13.009)"/><path class="cls-7" d="M178.558,106.285v-8.59h1.055v4.9l2.5-2.531h1.365l-2.379,2.309,2.619,3.914h-1.3l-2.057-3.182-.744.715v2.467Z" transform="translate(-11.885 -13.009)"/><path class="cls-7" d="M188.812,104.281l1.09.135a2.659,2.659,0,0,1-.955,1.482,3.236,3.236,0,0,1-3.946-.313,3.285,3.285,0,0,1-.8-2.358,3.438,3.438,0,0,1,.809-2.437,2.737,2.737,0,0,1,2.1-.867,2.66,2.66,0,0,1,2.039.85,3.376,3.376,0,0,1,.791,2.391q0,.094-.006.281h-4.641a2.391,2.391,0,0,0,.58,1.57,1.727,1.727,0,0,0,1.3.545,1.614,1.614,0,0,0,.99-.3A2.023,2.023,0,0,0,188.812,104.281Zm-3.463-1.705h3.475a2.108,2.108,0,0,0-.4-1.178,1.616,1.616,0,0,0-1.307-.609,1.675,1.675,0,0,0-1.222.486A1.925,1.925,0,0,0,185.349,102.576Z" transform="translate(-11.885 -13.009)"/><path class="cls-7" d="M194.566,98.908V97.695h1.055v1.213Zm0,7.377v-6.223h1.055v6.223Z" transform="translate(-11.885 -13.009)"/><path class="cls-7" d="M197.226,106.285v-6.223h.949v.885a2.237,2.237,0,0,1,1.98-1.025,2.6,2.6,0,0,1,1.034.2,1.627,1.627,0,0,1,.706.53,2.035,2.035,0,0,1,.328.779,6.039,6.039,0,0,1,.059,1.025v3.826h-1.055V102.5a2.841,2.841,0,0,0-.123-.964,1.014,1.014,0,0,0-.437-.51,1.389,1.389,0,0,0-.735-.19,1.709,1.709,0,0,0-1.163.428,2.11,2.11,0,0,0-.489,1.623v3.4Z" transform="translate(-11.885 -13.009)"/><path class="cls-7" d="M203.906,98.908V97.695h1.055v1.213Zm0,7.377v-6.223h1.055v6.223Z" transform="translate(-11.885 -13.009)"/><path class="cls-7" d="M208.869,105.341l.152.932a3.912,3.912,0,0,1-.8.094,1.8,1.8,0,0,1-.891-.182,1.017,1.017,0,0,1-.445-.478,3.776,3.776,0,0,1-.129-1.245v-3.58h-.773v-.82h.773V98.521l1.049-.633v2.174h1.061v.82h-1.061v3.639a1.838,1.838,0,0,0,.056.58.439.439,0,0,0,.182.205.7.7,0,0,0,.36.076A3.431,3.431,0,0,0,208.869,105.341Z" transform="translate(-11.885 -13.009)"/><path class="cls-7" d="M209.906,98.908V97.695h1.055v1.213Zm0,7.377v-6.223h1.055v6.223Z" transform="translate(-11.885 -13.009)"/><path class="cls-7" d="M216.626,105.517a3.927,3.927,0,0,1-1.128.7,3.259,3.259,0,0,1-1.163.205,2.262,2.262,0,0,1-1.576-.5,1.654,1.654,0,0,1-.551-1.28,1.7,1.7,0,0,1,.208-.835,1.722,1.722,0,0,1,.545-.606,2.562,2.562,0,0,1,.759-.346,7.536,7.536,0,0,1,.938-.158,9.64,9.64,0,0,0,1.881-.363q.006-.217.006-.275a1.164,1.164,0,0,0-.3-.908,1.765,1.765,0,0,0-1.2-.357,1.863,1.863,0,0,0-1.1.261,1.593,1.593,0,0,0-.524.923l-1.031-.141a2.555,2.555,0,0,1,.463-1.069,2.029,2.029,0,0,1,.932-.627,4.155,4.155,0,0,1,1.412-.22,3.738,3.738,0,0,1,1.295.187,1.706,1.706,0,0,1,.732.472,1.659,1.659,0,0,1,.328.718,5.938,5.938,0,0,1,.053.973v1.406a14.926,14.926,0,0,0,.067,1.86,2.347,2.347,0,0,0,.267.747h-1.1A2.236,2.236,0,0,1,216.626,105.517Zm-.088-2.355a7.738,7.738,0,0,1-1.723.4,3.985,3.985,0,0,0-.92.211.917.917,0,0,0-.416.343.932.932,0,0,0,.173,1.2,1.374,1.374,0,0,0,.935.281,2.175,2.175,0,0,0,1.084-.267,1.642,1.642,0,0,0,.7-.729,2.548,2.548,0,0,0,.17-1.055Z" transform="translate(-11.885 -13.009)"/><path class="cls-7" d="M219.216,106.285v-8.59h1.055v8.59Z" transform="translate(-11.885 -13.009)"/><path class="cls-7" d="M225.392,106.285v-8.59H229.2a5.069,5.069,0,0,1,1.746.231,1.909,1.909,0,0,1,.955.817,2.439,2.439,0,0,1,.357,1.295,2.16,2.16,0,0,1-.592,1.541,3,3,0,0,1-1.828.8,2.948,2.948,0,0,1,.686.428,5.906,5.906,0,0,1,.943,1.143l1.494,2.338h-1.43L230.4,104.5q-.5-.773-.82-1.184a2.579,2.579,0,0,0-.577-.574,1.706,1.706,0,0,0-.519-.229,3.415,3.415,0,0,0-.633-.041h-1.318v3.814Zm1.137-4.8h2.443a3.664,3.664,0,0,0,1.219-.161,1.3,1.3,0,0,0,.668-.516,1.4,1.4,0,0,0,.229-.771,1.28,1.28,0,0,0-.442-1,2.07,2.07,0,0,0-1.4-.393h-2.719Z" transform="translate(-11.885 -13.009)"/><path class="cls-7" d="M234.005,106.285v-8.59h1.711l2.033,6.082q.281.85.41,1.271.146-.469.457-1.377l2.057-5.977H242.2v8.59h-1.1V99.1l-2.5,7.189h-1.025L235.1,98.972v7.313Z" transform="translate(-11.885 -13.009)"/><path class="cls-7" d="M244.037,106.285v-8.59H247a7.177,7.177,0,0,1,1.529.123,2.909,2.909,0,0,1,1.26.615A3.5,3.5,0,0,1,250.8,99.9a5.762,5.762,0,0,1,.337,2.042,6,6,0,0,1-.229,1.734,4.208,4.208,0,0,1-.586,1.251,3.113,3.113,0,0,1-.782.779,3.188,3.188,0,0,1-1.025.431,5.852,5.852,0,0,1-1.38.146Zm1.137-1.014h1.834a4.451,4.451,0,0,0,1.333-.158,1.907,1.907,0,0,0,.771-.445,2.71,2.71,0,0,0,.63-1.087,5.314,5.314,0,0,0,.226-1.655,4,4,0,0,0-.442-2.071,2.226,2.226,0,0,0-1.075-.97,4.444,4.444,0,0,0-1.471-.176h-1.8Z" transform="translate(-11.885 -13.009)"/><rect class="cls-10" x="0.5" y="0.5" width="589.103" height="270.403"/></svg>