<svg id="Layer_1" data-name="Layer 1" xmlns="http://www.w3.org/2000/svg" viewBox="0 0 705.193 165.173"><defs><style>.cls-1,.cls-2,.cls-8{fill:none;}.cls-1,.cls-9{stroke:#af6f29;}.cls-2{stroke:#231f20;}.cls-3{fill:#00a180;}.cls-4{fill:#9c2d2c;}.cls-5{fill:#fff;}.cls-6{fill:#29538c;}.cls-7{fill:#5e5f5f;}.cls-8{stroke:#000;stroke-width:3px;}.cls-9{fill:#af6f29;}</style></defs><title>Charitable_Remainder_Trusts</title><line class="cls-1" x1="172.846" y1="103.678" x2="172.846" y2="79.873"/><line class="cls-1" x1="343.535" y1="68.058" x2="343.535" y2="44.253"/><line class="cls-1" x1="358.663" y1="115.581" x2="358.663" y2="91.776"/><line class="cls-1" x1="529.157" y1="78.277" x2="529.157" y2="54.472"/><rect class="cls-2" x="0.5" y="0.5" width="704.193" height="164.173"/><rect class="cls-3" x="201.977" y="54.472" width="112.621" height="48.527"/><rect class="cls-4" x="387.599" y="54.472" width="112.621" height="48.527"/><polygon points="569.646 78.069 555.881 64.483 555.881 91.655 569.646 78.069"/><path class="cls-5" d="M250.476,88.352V79.395h3.085a7.485,7.485,0,0,1,1.595.128,3.035,3.035,0,0,1,1.314.642,3.644,3.644,0,0,1,1.06,1.531,6,6,0,0,1,.351,2.129,6.242,6.242,0,0,1-.238,1.808,4.379,4.379,0,0,1-.611,1.3,3.246,3.246,0,0,1-.815.813,3.316,3.316,0,0,1-1.069.449,6.1,6.1,0,0,1-1.439.153Zm1.186-1.057h1.912a4.628,4.628,0,0,0,1.39-.165,1.985,1.985,0,0,0,.8-.464,2.825,2.825,0,0,0,.657-1.133,5.543,5.543,0,0,0,.235-1.726,4.169,4.169,0,0,0-.461-2.16,2.324,2.324,0,0,0-1.121-1.011,4.641,4.641,0,0,0-1.534-.183h-1.882Z" transform="translate(-8.307 -7.004)"/><path class="cls-5" d="M258.963,85.107a3.345,3.345,0,0,1,1-2.67,3.021,3.021,0,0,1,2.041-.721,2.91,2.91,0,0,1,2.187.877,3.335,3.335,0,0,1,.85,2.423,4.291,4.291,0,0,1-.376,1.97,2.655,2.655,0,0,1-1.094,1.115,3.185,3.185,0,0,1-1.567.4,2.915,2.915,0,0,1-2.2-.874A3.488,3.488,0,0,1,258.963,85.107Zm1.13,0a2.762,2.762,0,0,0,.544,1.867,1.811,1.811,0,0,0,2.731,0,2.828,2.828,0,0,0,.544-1.9,2.683,2.683,0,0,0-.547-1.824,1.813,1.813,0,0,0-2.728,0A2.749,2.749,0,0,0,260.093,85.107Z" transform="translate(-8.307 -7.004)"/><path class="cls-5" d="M266.332,88.352V81.863h.99v.922a2.332,2.332,0,0,1,2.065-1.069,2.709,2.709,0,0,1,1.079.211,1.7,1.7,0,0,1,.736.553,2.124,2.124,0,0,1,.342.813,6.269,6.269,0,0,1,.061,1.069v3.99h-1.1V84.4a2.965,2.965,0,0,0-.128-1,1.057,1.057,0,0,0-.455-.532,1.448,1.448,0,0,0-.767-.2,1.781,1.781,0,0,0-1.213.446,2.2,2.2,0,0,0-.51,1.692v3.544Z" transform="translate(-8.307 -7.004)"/><path class="cls-5" d="M272.882,85.107a3.345,3.345,0,0,1,1-2.67,3.021,3.021,0,0,1,2.041-.721,2.91,2.91,0,0,1,2.187.877,3.335,3.335,0,0,1,.85,2.423,4.291,4.291,0,0,1-.376,1.97,2.655,2.655,0,0,1-1.094,1.115,3.185,3.185,0,0,1-1.567.4,2.915,2.915,0,0,1-2.2-.874A3.488,3.488,0,0,1,272.882,85.107Zm1.13,0a2.762,2.762,0,0,0,.544,1.867,1.811,1.811,0,0,0,2.731,0,2.828,2.828,0,0,0,.544-1.9,2.683,2.683,0,0,0-.547-1.824,1.813,1.813,0,0,0-2.728,0A2.749,2.749,0,0,0,274.012,85.107Z" transform="translate(-8.307 -7.004)"/><path class="cls-5" d="M280.238,88.352V81.863h.99v.983a2.689,2.689,0,0,1,.7-.91,1.223,1.223,0,0,1,.706-.22,2.146,2.146,0,0,1,1.13.354l-.379,1.021a1.576,1.576,0,0,0-.807-.238,1.047,1.047,0,0,0-.647.217,1.173,1.173,0,0,0-.41.6,4.287,4.287,0,0,0-.183,1.283v3.4Z" transform="translate(-8.307 -7.004)"/><path class="cls-5" d="M441.056,88.62v-7.9H438.1V79.662h7.1v1.057h-2.963v7.9Z" transform="translate(-8.307 -7.004)"/><path class="cls-5" d="M446.268,88.62V82.131h.99v.983a2.689,2.689,0,0,1,.7-.91,1.223,1.223,0,0,1,.706-.22,2.146,2.146,0,0,1,1.13.354l-.379,1.021a1.576,1.576,0,0,0-.807-.238,1.047,1.047,0,0,0-.647.217,1.173,1.173,0,0,0-.41.6,4.287,4.287,0,0,0-.183,1.283v3.4Z" transform="translate(-8.307 -7.004)"/><path class="cls-5" d="M454.7,88.62v-.953a2.375,2.375,0,0,1-2.059,1.1,2.623,2.623,0,0,1-1.072-.22,1.767,1.767,0,0,1-.74-.553,2.069,2.069,0,0,1-.339-.815,5.57,5.57,0,0,1-.067-1.026V82.131h1.1v3.6a6.416,6.416,0,0,0,.067,1.161,1.147,1.147,0,0,0,.44.681,1.363,1.363,0,0,0,.831.248,1.806,1.806,0,0,0,.929-.254,1.409,1.409,0,0,0,.614-.69,3.464,3.464,0,0,0,.18-1.268V82.131h1.1V88.62Z" transform="translate(-8.307 -7.004)"/><path class="cls-5" d="M456.966,86.683l1.088-.171a1.517,1.517,0,0,0,.51,1,1.776,1.776,0,0,0,1.17.348,1.716,1.716,0,0,0,1.124-.309.921.921,0,0,0,.367-.724.669.669,0,0,0-.324-.587,4.788,4.788,0,0,0-1.124-.373,10.277,10.277,0,0,1-1.677-.528,1.6,1.6,0,0,1-.95-1.488,1.671,1.671,0,0,1,.2-.8,1.782,1.782,0,0,1,.541-.614,2.279,2.279,0,0,1,.7-.321,3.33,3.33,0,0,1,.95-.131,3.758,3.758,0,0,1,1.341.22,1.824,1.824,0,0,1,.853.6,2.331,2.331,0,0,1,.379,1l-1.076.147a1.178,1.178,0,0,0-.424-.782,1.554,1.554,0,0,0-.993-.281,1.8,1.8,0,0,0-1.082.25.731.731,0,0,0-.324.587.607.607,0,0,0,.134.385.974.974,0,0,0,.422.293q.165.061.971.281a13.571,13.571,0,0,1,1.628.51,1.653,1.653,0,0,1,.724.578,1.61,1.61,0,0,1,.263.941,1.846,1.846,0,0,1-.321,1.036,2.074,2.074,0,0,1-.926.751,3.367,3.367,0,0,1-1.369.266,3.049,3.049,0,0,1-1.928-.525A2.445,2.445,0,0,1,456.966,86.683Z" transform="translate(-8.307 -7.004)"/><path class="cls-5" d="M466.064,87.636l.159.972a4.094,4.094,0,0,1-.831.1,1.878,1.878,0,0,1-.929-.189,1.055,1.055,0,0,1-.464-.5,3.926,3.926,0,0,1-.135-1.3V82.986h-.807v-.855h.807V80.524l1.094-.66v2.267h1.106v.855h-1.106V86.78a1.918,1.918,0,0,0,.058.6.454.454,0,0,0,.189.214.729.729,0,0,0,.376.08A3.535,3.535,0,0,0,466.064,87.636Z" transform="translate(-8.307 -7.004)"/><rect class="cls-6" x="16.213" y="54.472" width="112.621" height="48.527"/><rect class="cls-7" x="572.133" y="54.472" width="112.621" height="48.527"/><path class="cls-5" d="M72.206,88.4V79.438h1.186V88.4Z" transform="translate(-8.307 -7.004)"/><path class="cls-5" d="M75.5,88.4V79.438H79.47a5.277,5.277,0,0,1,1.821.242,1.99,1.99,0,0,1,1,.852,2.542,2.542,0,0,1,.373,1.351,2.254,2.254,0,0,1-.617,1.607,3.126,3.126,0,0,1-1.907.831,3.054,3.054,0,0,1,.715.446,6.166,6.166,0,0,1,.984,1.191L83.393,88.4H81.9l-1.186-1.864q-.519-.806-.855-1.234a2.7,2.7,0,0,0-.6-.6,1.788,1.788,0,0,0-.541-.238,3.583,3.583,0,0,0-.66-.042H76.684V88.4Zm1.185-5h2.548a3.812,3.812,0,0,0,1.271-.168,1.352,1.352,0,0,0,.7-.538,1.454,1.454,0,0,0,.238-.8,1.335,1.335,0,0,0-.461-1.045,2.158,2.158,0,0,0-1.457-.41H76.684Z" transform="translate(-8.307 -7.004)"/><path class="cls-5" d="M84.114,85.518l1.118-.1a2.476,2.476,0,0,0,.37,1.1,2.019,2.019,0,0,0,.9.7,3.412,3.412,0,0,0,1.375.266,3.3,3.3,0,0,0,1.2-.2,1.663,1.663,0,0,0,.773-.553,1.283,1.283,0,0,0,.253-.767,1.168,1.168,0,0,0-.244-.736,1.809,1.809,0,0,0-.807-.529,15.832,15.832,0,0,0-1.595-.437,8.182,8.182,0,0,1-1.729-.559,2.427,2.427,0,0,1-.957-.834,2.047,2.047,0,0,1-.314-1.115,2.279,2.279,0,0,1,.385-1.268,2.383,2.383,0,0,1,1.125-.9,4.265,4.265,0,0,1,1.644-.306,4.491,4.491,0,0,1,1.757.321,2.535,2.535,0,0,1,1.17.944,2.712,2.712,0,0,1,.44,1.411l-1.137.085a1.832,1.832,0,0,0-.62-1.283,2.411,2.411,0,0,0-1.561-.434,2.507,2.507,0,0,0-1.567.394,1.183,1.183,0,0,0-.492.95,1.02,1.02,0,0,0,.348.794,4.727,4.727,0,0,0,1.787.639,11.793,11.793,0,0,1,1.983.571,2.714,2.714,0,0,1,1.155.913,2.225,2.225,0,0,1,.373,1.274,2.438,2.438,0,0,1-.409,1.348,2.694,2.694,0,0,1-1.176.983,4.1,4.1,0,0,1-1.726.352,5.152,5.152,0,0,1-2.038-.354,2.853,2.853,0,0,1-1.289-1.066A3.017,3.017,0,0,1,84.114,85.518Z" transform="translate(-8.307 -7.004)"/><path class="cls-5" d="M624.479,85.524l1.186.3a3.991,3.991,0,0,1-1.341,2.227,3.7,3.7,0,0,1-2.368.767,4.258,4.258,0,0,1-2.355-.59,3.683,3.683,0,0,1-1.381-1.708,6.1,6.1,0,0,1-.474-2.4,5.278,5.278,0,0,1,.535-2.441A3.662,3.662,0,0,1,619.8,80.1a4.445,4.445,0,0,1,2.172-.541,3.675,3.675,0,0,1,2.261.685,3.556,3.556,0,0,1,1.277,1.925l-1.168.275a2.762,2.762,0,0,0-.9-1.424,2.407,2.407,0,0,0-1.49-.446,2.9,2.9,0,0,0-1.727.495,2.617,2.617,0,0,0-.975,1.329,5.347,5.347,0,0,0-.28,1.72,5.452,5.452,0,0,0,.333,2,2.475,2.475,0,0,0,1.035,1.274,2.9,2.9,0,0,0,1.521.422,2.549,2.549,0,0,0,1.687-.575A2.94,2.94,0,0,0,624.479,85.524Z" transform="translate(-8.307 -7.004)"/><path class="cls-5" d="M626.985,88.665V79.707h1.1v3.214a2.457,2.457,0,0,1,1.943-.892,2.618,2.618,0,0,1,1.252.284,1.666,1.666,0,0,1,.761.785,3.609,3.609,0,0,1,.229,1.454v4.112h-1.1V84.552a1.7,1.7,0,0,0-.357-1.2,1.331,1.331,0,0,0-1.012-.376,1.784,1.784,0,0,0-.92.253,1.433,1.433,0,0,0-.613.688,3.14,3.14,0,0,0-.184,1.2v3.55Z" transform="translate(-8.307 -7.004)"/><path class="cls-5" d="M638.179,87.864A4.106,4.106,0,0,1,637,88.6a3.4,3.4,0,0,1-1.213.214,2.357,2.357,0,0,1-1.644-.522,1.724,1.724,0,0,1-.574-1.335,1.808,1.808,0,0,1,.785-1.5,2.682,2.682,0,0,1,.791-.36,7.8,7.8,0,0,1,.978-.165,10.07,10.07,0,0,0,1.962-.379q.006-.226.006-.287a1.214,1.214,0,0,0-.312-.947,1.842,1.842,0,0,0-1.253-.373,1.941,1.941,0,0,0-1.146.272,1.663,1.663,0,0,0-.547.962l-1.075-.147a2.666,2.666,0,0,1,.482-1.115,2.114,2.114,0,0,1,.972-.654,4.33,4.33,0,0,1,1.473-.229,3.9,3.9,0,0,1,1.351.2,1.786,1.786,0,0,1,.764.492,1.733,1.733,0,0,1,.342.749,6.15,6.15,0,0,1,.055,1.014v1.466a15.56,15.56,0,0,0,.07,1.94,2.447,2.447,0,0,0,.278.779H638.4A2.32,2.32,0,0,1,638.179,87.864Zm-.092-2.457a8.047,8.047,0,0,1-1.8.416,4.16,4.16,0,0,0-.959.22.955.955,0,0,0-.434.357.971.971,0,0,0,.18,1.255,1.433,1.433,0,0,0,.975.293,2.273,2.273,0,0,0,1.131-.278,1.709,1.709,0,0,0,.727-.761,2.656,2.656,0,0,0,.178-1.1Z" transform="translate(-8.307 -7.004)"/><path class="cls-5" d="M640.892,88.665V82.176h.99v.983a2.677,2.677,0,0,1,.7-.91,1.223,1.223,0,0,1,.706-.22,2.144,2.144,0,0,1,1.13.354l-.379,1.021a1.573,1.573,0,0,0-.807-.238,1.047,1.047,0,0,0-.647.217,1.172,1.172,0,0,0-.409.6,4.287,4.287,0,0,0-.184,1.283v3.4Z" transform="translate(-8.307 -7.004)"/><path class="cls-5" d="M645.077,80.972V79.707h1.1v1.265Zm0,7.692V82.176h1.1v6.489Z" transform="translate(-8.307 -7.004)"/><path class="cls-5" d="M650.252,87.681l.158.972a4.09,4.09,0,0,1-.831.1,1.88,1.88,0,0,1-.929-.189,1.054,1.054,0,0,1-.464-.5,3.926,3.926,0,0,1-.135-1.3V83.031h-.807v-.855h.807V80.569l1.094-.66v2.267h1.106v.855h-1.106v3.794a1.9,1.9,0,0,0,.059.6.454.454,0,0,0,.188.214.73.73,0,0,0,.376.08A3.553,3.553,0,0,0,650.252,87.681Z" transform="translate(-8.307 -7.004)"/><path class="cls-5" d="M651.279,91.164l-.123-1.033a2.446,2.446,0,0,0,.63.1,1.211,1.211,0,0,0,.587-.122,1,1,0,0,0,.36-.342,5.441,5.441,0,0,0,.336-.818c.021-.062.053-.151.1-.269l-2.463-6.5h1.186l1.351,3.757q.262.716.471,1.5a14.521,14.521,0,0,1,.452-1.479l1.387-3.782h1.1l-2.468,6.6a13.162,13.162,0,0,1-.617,1.473,2.178,2.178,0,0,1-.673.8,1.586,1.586,0,0,1-.9.253A2.2,2.2,0,0,1,651.279,91.164Z" transform="translate(-8.307 -7.004)"/><line class="cls-8" x1="500.22" y1="78.069" x2="558.093" y2="78.069"/><polygon points="132.357 78.63 146.122 92.216 146.122 65.044 132.357 78.63"/><line class="cls-8" x1="201.783" y1="78.63" x2="143.91" y2="78.63"/><polygon points="384.024 68.058 370.259 54.472 370.259 81.644 384.024 68.058"/><line class="cls-8" x1="314.599" y1="68.058" x2="372.471" y2="68.058"/><polygon points="318.174 90.761 331.939 104.347 331.939 77.175 318.174 90.761"/><line class="cls-8" x1="387.599" y1="90.761" x2="329.727" y2="90.761"/><rect class="cls-9" x="160.432" y="103.678" width="24.828" height="24.828"/><rect class="cls-9" x="331.121" y="19.425" width="24.828" height="24.828"/><rect class="cls-9" x="346.249" y="116.092" width="24.828" height="24.828"/><rect class="cls-9" x="516.743" y="29.275" width="24.828" height="24.828"/><path class="cls-5" d="M184,125.038v1.595h-6.019a4.149,4.149,0,0,1,.586-1.714,11.423,11.423,0,0,1,1.931-2.148,12.069,12.069,0,0,0,1.423-1.466,1.888,1.888,0,0,0,.354-1.051,1.2,1.2,0,0,0-.309-.883,1.311,1.311,0,0,0-1.708.015,1.663,1.663,0,0,0-.367,1.075l-1.711-.171a2.807,2.807,0,0,1,.959-2.035,3.222,3.222,0,0,1,2.016-.617,2.914,2.914,0,0,1,2.083.715,2.344,2.344,0,0,1,.758,1.778,3.093,3.093,0,0,1-.217,1.151,4.69,4.69,0,0,1-.687,1.146,10.985,10.985,0,0,1-1.125,1.143q-.812.746-1.029.99a2.991,2.991,0,0,0-.352.477Z" transform="translate(-8.307 -7.004)"/><path class="cls-5" d="M177.673,128.616V127.3h6.959v1.314Z" transform="translate(-8.307 -7.004)"/><path class="cls-5" d="M353.287,42.636H351.57V36.165a5.918,5.918,0,0,1-2.218,1.3V35.909a4.974,4.974,0,0,0,1.46-.834,3.174,3.174,0,0,0,1.082-1.433h1.393Z" transform="translate(-8.307 -7.004)"/><path class="cls-5" d="M348.362,44.619V43.3h6.959v1.314Z" transform="translate(-8.307 -7.004)"/><path class="cls-5" d="M363.96,136.076l1.662-.2a1.576,1.576,0,0,0,.428.972,1.17,1.17,0,0,0,.843.336,1.157,1.157,0,0,0,.9-.4,1.564,1.564,0,0,0,.364-1.087,1.459,1.459,0,0,0-.348-1.026,1.11,1.11,0,0,0-.85-.379,2.981,2.981,0,0,0-.788.128l.189-1.4a1.5,1.5,0,0,0,1.063-.3,1.076,1.076,0,0,0,.367-.853.976.976,0,0,0-.269-.721.966.966,0,0,0-.715-.269,1.035,1.035,0,0,0-.751.305,1.439,1.439,0,0,0-.379.892l-1.583-.269a3.538,3.538,0,0,1,.5-1.3,2.245,2.245,0,0,1,.929-.764,3.118,3.118,0,0,1,1.335-.278,2.664,2.664,0,0,1,2.029.807,2.042,2.042,0,0,1-.66,3.373,2.086,2.086,0,0,1,1.231.74,2.145,2.145,0,0,1,.461,1.387,2.689,2.689,0,0,1-.862,2.01,3.217,3.217,0,0,1-4.161.131A2.748,2.748,0,0,1,363.96,136.076Z" transform="translate(-8.307 -7.004)"/><path class="cls-5" d="M363.49,140.436v-1.314h6.959v1.314Z" transform="translate(-8.307 -7.004)"/><path class="cls-5" d="M537.882,52.708v-1.8h-3.666V49.4l3.886-5.688h1.442V49.4h1.111v1.509h-1.111v1.8Zm0-3.312V46.335l-2.06,3.062Z" transform="translate(-8.307 -7.004)"/><path class="cls-5" d="M533.983,54.691V53.377h6.959v1.314Z" transform="translate(-8.307 -7.004)"/></svg>