<svg id="Layer_1" data-name="Layer 1" xmlns="http://www.w3.org/2000/svg" xmlns:xlink="http://www.w3.org/1999/xlink" viewBox="0 0 636.718 373.62"><defs><style>.cls-1,.cls-10,.cls-3,.cls-9{fill:none;}.cls-2{fill:#00a182;}.cls-3{stroke:#000;stroke-width:3px;}.cls-4{fill:#bcbec0;}.cls-5{fill:#fff;}.cls-6{fill:#231f20;}.cls-7{fill:#29538c;}.cls-8{clip-path:url(#clip-path);}.cls-10,.cls-9{stroke:#231f20;stroke-linecap:round;stroke-linejoin:round;stroke-width:2px;}.cls-9{stroke-dasharray:0 4.012;}</style><clipPath id="clip-path" transform="translate(-9.887 -7.031)"><rect class="cls-1" width="656.492" height="380.65"/></clipPath></defs><title>General_Power_Appointment_Marital_Trust</title><rect class="cls-2" x="498.299" y="78.767" width="138.418" height="65.913"/><line class="cls-3" x1="567.509" y1="22.411" x2="567.509" y2="62.371"/><line class="cls-3" x1="156.967" y1="25.444" x2="130.637" y2="61.684"/><line class="cls-3" x1="282.805" y1="26.308" x2="308.469" y2="61.631"/><rect class="cls-2" y="78.767" width="138.418" height="65.913"/><rect class="cls-4" y="144.68" width="178.461" height="228.94"/><rect class="cls-2" x="303.669" y="78.767" width="138.418" height="65.913"/><polygon points="318.413 75.318 321.978 51.817 294.96 71.446 318.413 75.318"/><polygon points="567.509 76.569 584.207 59.652 550.811 59.652 567.509 76.569"/><path class="cls-5" d="M30.44,114.891a3.148,3.148,0,0,1,2.36,1.068l-.62.7a2.268,2.268,0,0,0-1.727-.8c-1.648,0-2.729,1.345-2.729,3.494,0,2.175,1.042,3.546,2.676,3.546a2.53,2.53,0,0,0,1.991-.962l.62.672a3.339,3.339,0,0,1-2.637,1.252c-2.175,0-3.784-1.661-3.784-4.482C26.59,116.591,28.225,114.891,30.44,114.891Z" transform="translate(-9.887 -7.031)"/><path class="cls-5" d="M34.513,117.29h.9l.092,1.16h.04a2.192,2.192,0,0,1,1.819-1.318,1.591,1.591,0,0,1,.686.132l-.211.949a1.793,1.793,0,0,0-.62-.105c-.541,0-1.187.4-1.622,1.477V123.7H34.513Z" transform="translate(-9.887 -7.031)"/><path class="cls-5" d="M41.368,117.132c1.635,0,2.558,1.173,2.558,3.006a3.82,3.82,0,0,1-.04.593H39.562a2.132,2.132,0,0,0,2.136,2.254,2.9,2.9,0,0,0,1.6-.5l.382.712a3.816,3.816,0,0,1-2.109.659,3.389,3.389,0,0,1-.2-6.724Zm1.608,2.887c0-1.305-.58-2.03-1.582-2.03a2,2,0,0,0-1.846,2.03Z" transform="translate(-9.887 -7.031)"/><path class="cls-5" d="M47.827,117.132a2.64,2.64,0,0,1,1.793.738l-.053-1.094v-2.465h1.094V123.7h-.9l-.092-.751h-.04a2.891,2.891,0,0,1-1.938.91c-1.608,0-2.65-1.213-2.65-3.349C45.045,118.424,46.364,117.132,47.827,117.132Zm.105,5.814a2.168,2.168,0,0,0,1.635-.883v-3.349a2.23,2.23,0,0,0-1.556-.672c-1.028,0-1.846.989-1.846,2.452C46.166,122.023,46.812,122.946,47.933,122.946Z" transform="translate(-9.887 -7.031)"/><path class="cls-5" d="M52.625,115.273a.753.753,0,0,1,1.5,0,.753.753,0,0,1-1.5,0Zm.2,2.017H53.9V123.7H52.823Z" transform="translate(-9.887 -7.031)"/><path class="cls-5" d="M56.251,118.173H55.3v-.817l1-.066.132-1.793h.91v1.793h1.727v.883H57.345v3.56c0,.791.25,1.239.989,1.239a2.328,2.328,0,0,0,.725-.171l.211.817a3.955,3.955,0,0,1-1.187.237c-1.371,0-1.833-.87-1.833-2.136Z" transform="translate(-9.887 -7.031)"/><path class="cls-5" d="M63.316,121.812a3.387,3.387,0,0,0,2.386,1.081c1.134,0,1.806-.567,1.806-1.411,0-.883-.62-1.16-1.437-1.529l-1.239-.541a2.43,2.43,0,0,1-1.753-2.228,2.457,2.457,0,0,1,2.716-2.294,3.588,3.588,0,0,1,2.558,1.068l-.593.712a2.758,2.758,0,0,0-1.964-.817c-.962,0-1.608.488-1.608,1.266,0,.831.751,1.147,1.437,1.437l1.226.527a2.408,2.408,0,0,1,1.78,2.307c0,1.371-1.121,2.465-2.94,2.465a4.194,4.194,0,0,1-3.032-1.279Z" transform="translate(-9.887 -7.031)"/><path class="cls-5" d="M70.224,114.311H71.3v2.558l-.04,1.318a3.063,3.063,0,0,1,2.136-1.055c1.345,0,1.951.87,1.951,2.5V123.7H74.271v-3.916c0-1.2-.369-1.714-1.213-1.714-.659,0-1.107.343-1.753.989V123.7H70.224Z" transform="translate(-9.887 -7.031)"/><path class="cls-5" d="M79.794,117.132c1.635,0,2.558,1.173,2.558,3.006a3.82,3.82,0,0,1-.04.593H77.988a2.132,2.132,0,0,0,2.136,2.254,2.9,2.9,0,0,0,1.6-.5l.382.712a3.816,3.816,0,0,1-2.109.659,3.389,3.389,0,0,1-.2-6.724Zm1.608,2.887c0-1.305-.58-2.03-1.582-2.03a2,2,0,0,0-1.846,2.03Z" transform="translate(-9.887 -7.031)"/><path class="cls-5" d="M83.934,114.311h1.081v8.174c0,.343.145.475.3.475a.908.908,0,0,0,.237-.026l.145.817a1.455,1.455,0,0,1-.62.105c-.817,0-1.147-.514-1.147-1.45Z" transform="translate(-9.887 -7.031)"/><path class="cls-5" d="M87.48,118.173H86.53v-.817l1-.066.132-1.793h.91v1.793H90.3v.883H88.574v3.56c0,.791.25,1.239.989,1.239a2.328,2.328,0,0,0,.725-.171l.211.817a3.955,3.955,0,0,1-1.187.237c-1.371,0-1.833-.87-1.833-2.136Z" transform="translate(-9.887 -7.031)"/><path class="cls-5" d="M94.018,117.132c1.635,0,2.558,1.173,2.558,3.006a3.82,3.82,0,0,1-.04.593H92.212a2.132,2.132,0,0,0,2.136,2.254,2.9,2.9,0,0,0,1.6-.5l.382.712a3.816,3.816,0,0,1-2.109.659,3.389,3.389,0,0,1-.2-6.724Zm1.608,2.887c0-1.305-.58-2.03-1.582-2.03a2,2,0,0,0-1.846,2.03Z" transform="translate(-9.887 -7.031)"/><path class="cls-5" d="M98.157,117.29h.9l.092,1.16h.04A2.192,2.192,0,0,1,101,117.132a1.591,1.591,0,0,1,.686.132l-.211.949a1.793,1.793,0,0,0-.62-.105c-.541,0-1.187.4-1.622,1.477V123.7H98.157Z" transform="translate(-9.887 -7.031)"/><path class="cls-5" d="M107.293,115.972h-2.61v-.923h6.328v.923H108.4V123.7h-1.107Z" transform="translate(-9.887 -7.031)"/><path class="cls-5" d="M111.867,117.29h.9l.092,1.16h.04a2.192,2.192,0,0,1,1.819-1.318,1.591,1.591,0,0,1,.686.132l-.211.949a1.793,1.793,0,0,0-.62-.105c-.541,0-1.187.4-1.622,1.477V123.7h-1.081Z" transform="translate(-9.887 -7.031)"/><path class="cls-5" d="M116.349,117.29h1.094v3.916c0,1.2.356,1.714,1.2,1.714.659,0,1.121-.33,1.727-1.081V117.29h1.081V123.7h-.9l-.092-1h-.04a2.708,2.708,0,0,1-2.109,1.16c-1.358,0-1.964-.87-1.964-2.5Z" transform="translate(-9.887 -7.031)"/><path class="cls-5" d="M123.441,122.247a2.882,2.882,0,0,0,1.885.765c.844,0,1.266-.448,1.266-1,0-.659-.765-.949-1.463-1.213-.91-.33-1.912-.765-1.912-1.846,0-1.028.817-1.819,2.2-1.819a3.2,3.2,0,0,1,1.991.725l-.514.686a2.379,2.379,0,0,0-1.463-.567c-.8,0-1.173.435-1.173.923,0,.606.7.831,1.424,1.107.923.343,1.951.725,1.951,1.938,0,1.042-.831,1.912-2.347,1.912a3.857,3.857,0,0,1-2.386-.883Z" transform="translate(-9.887 -7.031)"/><path class="cls-5" d="M129.32,118.173h-.949v-.817l1-.066.132-1.793h.91v1.793h1.727v.883h-1.727v3.56c0,.791.25,1.239.989,1.239a2.328,2.328,0,0,0,.725-.171l.211.817a3.955,3.955,0,0,1-1.187.237c-1.371,0-1.833-.87-1.833-2.136Z" transform="translate(-9.887 -7.031)"/><path class="cls-5" d="M525.094,115.484h4.983v.923h-3.889v2.716h3.282v.936h-3.282V123.2h4.021v.936h-5.115Z" transform="translate(-9.887 -7.031)"/><path class="cls-5" d="M531.765,122.683a2.878,2.878,0,0,0,1.885.765c.844,0,1.266-.448,1.266-1,0-.659-.765-.949-1.463-1.213-.91-.33-1.912-.765-1.912-1.846,0-1.028.817-1.819,2.2-1.819a3.2,3.2,0,0,1,1.991.725l-.515.686a2.378,2.378,0,0,0-1.463-.567c-.8,0-1.174.435-1.174.923,0,.606.7.831,1.424,1.107.924.343,1.951.725,1.951,1.938,0,1.042-.83,1.912-2.346,1.912a3.857,3.857,0,0,1-2.387-.883Z" transform="translate(-9.887 -7.031)"/><path class="cls-5" d="M537.644,118.609h-.949v-.817l1-.066.132-1.793h.909v1.793h1.728v.883h-1.728v3.56c0,.791.251,1.239.989,1.239a2.334,2.334,0,0,0,.726-.171l.211.817a3.959,3.959,0,0,1-1.187.237c-1.371,0-1.832-.87-1.832-2.136Z" transform="translate(-9.887 -7.031)"/><path class="cls-5" d="M545.3,120.072c0-.817-.277-1.608-1.318-1.608a3.446,3.446,0,0,0-1.912.686l-.436-.751a4.759,4.759,0,0,1,2.519-.831c1.569,0,2.228,1.042,2.228,2.637v3.929h-.9l-.092-.765h-.026a3.482,3.482,0,0,1-2.122.923,1.747,1.747,0,0,1-1.886-1.819C541.361,121.074,542.574,120.375,545.3,120.072Zm-1.754,3.349a2.628,2.628,0,0,0,1.754-.857v-1.78c-2.149.264-2.875.791-2.875,1.608A.982.982,0,0,0,543.55,123.421Z" transform="translate(-9.887 -7.031)"/><path class="cls-5" d="M548.611,118.609h-.949v-.817l1-.066.132-1.793h.91v1.793h1.727v.883h-1.727v3.56c0,.791.25,1.239.988,1.239a2.322,2.322,0,0,0,.725-.171l.211.817a3.952,3.952,0,0,1-1.186.237c-1.371,0-1.833-.87-1.833-2.136Z" transform="translate(-9.887 -7.031)"/><path class="cls-5" d="M555.163,117.567c1.635,0,2.558,1.173,2.558,3.006a3.7,3.7,0,0,1-.04.593h-4.324a2.133,2.133,0,0,0,2.137,2.254,2.9,2.9,0,0,0,1.595-.5l.382.712a3.81,3.81,0,0,1-2.109.659,3.389,3.389,0,0,1-.2-6.724Zm1.608,2.887c0-1.305-.58-2.03-1.582-2.03a2,2,0,0,0-1.846,2.03Z" transform="translate(-9.887 -7.031)"/><path class="cls-5" d="M564.456,117.567a3.388,3.388,0,1,1-2.966,3.375A3.062,3.062,0,0,1,564.456,117.567Zm0,5.827c1.107,0,1.846-.989,1.846-2.452s-.738-2.479-1.846-2.479-1.846,1-1.846,2.479S563.362,123.395,564.456,123.395Z" transform="translate(-9.887 -7.031)"/><path class="cls-5" d="M572,115.629a1.794,1.794,0,0,0-.725-.158c-.606,0-.9.422-.9,1.239v1.015h1.357v.883h-1.357v5.524h-1.081v-5.524h-.87v-.817l.87-.066V116.71c0-1.305.593-2.123,1.872-2.123a2.91,2.91,0,0,1,1.068.211Z" transform="translate(-9.887 -7.031)"/><path class="cls-5" d="M575.754,122.248a3.387,3.387,0,0,0,2.386,1.081c1.135,0,1.807-.567,1.807-1.411,0-.883-.619-1.16-1.437-1.529l-1.238-.541a2.43,2.43,0,0,1-1.754-2.228,2.457,2.457,0,0,1,2.716-2.294,3.588,3.588,0,0,1,2.558,1.068l-.594.712a2.758,2.758,0,0,0-1.964-.817c-.962,0-1.608.488-1.608,1.266,0,.831.752,1.147,1.438,1.437l1.226.527a2.408,2.408,0,0,1,1.78,2.307c0,1.371-1.121,2.465-2.94,2.465a4.2,4.2,0,0,1-3.032-1.279Z" transform="translate(-9.887 -7.031)"/><path class="cls-5" d="M583.742,124.673v2.162h-1.081v-9.11h.9l.092.738h.04a3.316,3.316,0,0,1,2.044-.9c1.647,0,2.531,1.279,2.531,3.27,0,2.175-1.306,3.454-2.77,3.454a2.972,2.972,0,0,1-1.779-.738Zm1.569-1.292c1.055,0,1.832-.962,1.832-2.544,0-1.411-.475-2.36-1.687-2.36a2.7,2.7,0,0,0-1.714.87v3.362A2.537,2.537,0,0,0,585.312,123.381Z" transform="translate(-9.887 -7.031)"/><path class="cls-5" d="M592.47,117.567a3.388,3.388,0,1,1-2.967,3.375A3.062,3.062,0,0,1,592.47,117.567Zm0,5.827c1.107,0,1.846-.989,1.846-2.452s-.738-2.479-1.846-2.479-1.846,1-1.846,2.479S591.375,123.395,592.47,123.395Z" transform="translate(-9.887 -7.031)"/><path class="cls-5" d="M597.03,117.726h1.095v3.916c0,1.2.356,1.714,1.2,1.714.658,0,1.12-.33,1.727-1.081v-4.548h1.081v6.407h-.9l-.093-1H601.1a2.71,2.71,0,0,1-2.109,1.16c-1.357,0-1.965-.87-1.965-2.5Z" transform="translate(-9.887 -7.031)"/><path class="cls-5" d="M604.122,122.683a2.885,2.885,0,0,0,1.886.765c.844,0,1.266-.448,1.266-1,0-.659-.765-.949-1.464-1.213-.909-.33-1.911-.765-1.911-1.846,0-1.028.817-1.819,2.2-1.819a3.2,3.2,0,0,1,1.99.725l-.514.686a2.381,2.381,0,0,0-1.464-.567c-.8,0-1.173.435-1.173.923,0,.606.7.831,1.424,1.107.922.343,1.951.725,1.951,1.938,0,1.042-.831,1.912-2.348,1.912a3.856,3.856,0,0,1-2.386-.883Z" transform="translate(-9.887 -7.031)"/><path class="cls-5" d="M612.217,117.567c1.635,0,2.558,1.173,2.558,3.006a3.951,3.951,0,0,1-.039.593h-4.324a2.131,2.131,0,0,0,2.135,2.254,2.894,2.894,0,0,0,1.6-.5l.383.712a3.821,3.821,0,0,1-2.109.659,3.389,3.389,0,0,1-.2-6.724Zm1.608,2.887c0-1.305-.58-2.03-1.582-2.03a2,2,0,0,0-1.846,2.03Z" transform="translate(-9.887 -7.031)"/><path class="cls-5" d="M619.454,121.443H618.4v-.751h1.146l.237-1.951h-1.12v-.765h1.213l.3-2.413h.7l-.3,2.413h1.753l.316-2.413h.7l-.316,2.413h1.068v.765h-1.147l-.237,1.951h1.121v.751h-1.213l-.33,2.689h-.7l.316-2.689h-1.74l-.329,2.689h-.712Zm2.544-.751.237-1.951H620.5l-.237,1.951Z" transform="translate(-9.887 -7.031)"/><path class="cls-5" d="M625.017,123.487c2.531-2.518,3.955-4.034,3.955-5.392a1.49,1.49,0,0,0-1.6-1.648,2.48,2.48,0,0,0-1.793,1.015l-.619-.62a3.3,3.3,0,0,1,2.545-1.279,2.336,2.336,0,0,1,2.518,2.479c0,1.582-1.437,3.151-3.428,5.234.461-.04.976-.079,1.41-.079h2.439v.936h-5.432Z" transform="translate(-9.887 -7.031)"/><path class="cls-5" d="M353.166,107.087a3.315,3.315,0,0,1,2.479,1.068l-.62.7a2.361,2.361,0,0,0-1.846-.8c-1.74,0-2.86,1.345-2.86,3.494,0,2.175,1.028,3.546,2.874,3.546a2.372,2.372,0,0,0,1.556-.514v-2.254h-1.833v-.91h2.835v3.639a3.738,3.738,0,0,1-2.677,1c-2.268,0-3.889-1.661-3.889-4.482C349.185,108.788,350.858,107.087,353.166,107.087Z" transform="translate(-9.887 -7.031)"/><path class="cls-5" d="M360.113,109.328c1.635,0,2.558,1.173,2.558,3.006a3.951,3.951,0,0,1-.039.593h-4.324a2.131,2.131,0,0,0,2.135,2.254,2.894,2.894,0,0,0,1.6-.5l.383.712a3.821,3.821,0,0,1-2.109.659,3.389,3.389,0,0,1-.2-6.724Zm1.608,2.887c0-1.305-.58-2.03-1.582-2.03a2,2,0,0,0-1.846,2.03Z" transform="translate(-9.887 -7.031)"/><path class="cls-5" d="M364.252,109.486h.9l.093.923h.039a3.02,3.02,0,0,1,2.148-1.081c1.346,0,1.951.87,1.951,2.5v4.061H368.3v-3.916c0-1.2-.369-1.714-1.213-1.714-.66,0-1.107.343-1.754.989v4.641h-1.081Z" transform="translate(-9.887 -7.031)"/><path class="cls-5" d="M373.862,109.328c1.635,0,2.558,1.173,2.558,3.006a3.7,3.7,0,0,1-.04.593h-4.324a2.133,2.133,0,0,0,2.137,2.254,2.9,2.9,0,0,0,1.595-.5l.382.712a3.81,3.81,0,0,1-2.109.659,3.389,3.389,0,0,1-.2-6.724Zm1.608,2.887c0-1.305-.58-2.03-1.582-2.03a2,2,0,0,0-1.846,2.03Z" transform="translate(-9.887 -7.031)"/><path class="cls-5" d="M378,109.486h.9l.092,1.16h.04a2.192,2.192,0,0,1,1.819-1.318,1.59,1.59,0,0,1,.686.132l-.211.949a1.79,1.79,0,0,0-.619-.105c-.541,0-1.187.4-1.622,1.477v4.113H378Z" transform="translate(-9.887 -7.031)"/><path class="cls-5" d="M385.884,111.833c0-.817-.276-1.608-1.318-1.608a3.446,3.446,0,0,0-1.911.686l-.435-.751a4.752,4.752,0,0,1,2.518-.831c1.568,0,2.229,1.042,2.229,2.637v3.929h-.9l-.093-.765h-.026a3.482,3.482,0,0,1-2.123.923,1.747,1.747,0,0,1-1.885-1.819C381.942,112.835,383.155,112.136,385.884,111.833Zm-1.753,3.349a2.622,2.622,0,0,0,1.753-.857v-1.78c-2.148.264-2.873.791-2.873,1.608A.981.981,0,0,0,384.131,115.182Z" transform="translate(-9.887 -7.031)"/><path class="cls-5" d="M389.009,106.507h1.081v8.174c0,.343.146.475.3.475a.9.9,0,0,0,.236-.026l.146.817a1.456,1.456,0,0,1-.62.105c-.816,0-1.146-.514-1.146-1.45Z" transform="translate(-9.887 -7.031)"/><path class="cls-5" d="M395.139,107.245h2.649c1.912,0,3.191.646,3.191,2.544,0,1.819-1.293,2.676-3.191,2.676h-1.555v3.428h-1.095Zm2.519,4.324c1.5,0,2.228-.554,2.228-1.78,0-1.252-.738-1.661-2.228-1.661h-1.424v3.441Z" transform="translate(-9.887 -7.031)"/><path class="cls-5" d="M402.231,111.53c0-2.769,1.517-4.443,3.691-4.443s3.7,1.688,3.7,4.443c0,2.782-1.529,4.522-3.7,4.522S402.231,114.312,402.231,111.53Zm6.249,0c0-2.149-1.016-3.48-2.558-3.48s-2.558,1.332-2.558,3.48,1.016,3.56,2.558,3.56S408.48,113.692,408.48,111.53Z" transform="translate(-9.887 -7.031)"/><path class="cls-5" d="M415.308,113.257h-3.15l-.831,2.637h-1.12l2.926-8.648h1.24l2.926,8.648h-1.173Zm-.277-.883-.408-1.318c-.316-.962-.594-1.912-.87-2.914H413.7c-.264,1-.54,1.951-.856,2.914l-.409,1.318Z" transform="translate(-9.887 -7.031)"/><path class="cls-5" d="M349.369,123.064h1.292l1.674,4.641.633,1.767h.053l.607-1.767,1.66-4.641h1.293v8.648h-1.042v-4.759c0-.765.079-1.793.146-2.558h-.053l-.7,1.925-1.661,4.522h-.62l-1.674-4.522-.686-1.925h-.053c.053.765.145,1.793.145,2.558v4.759h-1.015Z" transform="translate(-9.887 -7.031)"/><path class="cls-5" d="M362.474,127.652c0-.817-.277-1.608-1.318-1.608a3.446,3.446,0,0,0-1.912.686l-.436-.751a4.759,4.759,0,0,1,2.519-.831c1.569,0,2.228,1.042,2.228,2.637v3.929h-.9l-.092-.765h-.026a3.482,3.482,0,0,1-2.122.923,1.747,1.747,0,0,1-1.886-1.819C358.531,128.654,359.744,127.956,362.474,127.652ZM360.72,131a2.628,2.628,0,0,0,1.754-.857v-1.78c-2.149.264-2.875.791-2.875,1.608A.982.982,0,0,0,360.72,131Z" transform="translate(-9.887 -7.031)"/><path class="cls-5" d="M365.6,125.306h.9l.092,1.16h.04a2.192,2.192,0,0,1,1.819-1.318,1.59,1.59,0,0,1,.686.132l-.211.949a1.79,1.79,0,0,0-.619-.105c-.541,0-1.187.4-1.622,1.477v4.113H365.6Z" transform="translate(-9.887 -7.031)"/><path class="cls-5" d="M369.974,123.289a.753.753,0,0,1,1.5,0,.753.753,0,0,1-1.5,0Zm.2,2.017h1.081v6.407h-1.081Z" transform="translate(-9.887 -7.031)"/><path class="cls-5" d="M373.6,126.189h-.949v-.817l1-.066.132-1.793h.909v1.793h1.728v.883h-1.728v3.56c0,.791.251,1.239.989,1.239a2.334,2.334,0,0,0,.726-.171l.211.817a3.959,3.959,0,0,1-1.187.237c-1.371,0-1.832-.87-1.832-2.136Z" transform="translate(-9.887 -7.031)"/><path class="cls-5" d="M381.257,127.652c0-.817-.276-1.608-1.318-1.608a3.446,3.446,0,0,0-1.911.686l-.435-.751a4.752,4.752,0,0,1,2.518-.831c1.568,0,2.229,1.042,2.229,2.637v3.929h-.9l-.093-.765h-.026a3.482,3.482,0,0,1-2.123.923,1.747,1.747,0,0,1-1.885-1.819C377.315,128.654,378.528,127.956,381.257,127.652ZM379.5,131a2.622,2.622,0,0,0,1.753-.857v-1.78c-2.148.264-2.873.791-2.873,1.608A.981.981,0,0,0,379.5,131Z" transform="translate(-9.887 -7.031)"/><path class="cls-5" d="M384.382,122.326h1.081V130.5c0,.343.146.475.3.475a.9.9,0,0,0,.236-.026l.146.817a1.456,1.456,0,0,1-.62.105c-.816,0-1.146-.514-1.146-1.45Z" transform="translate(-9.887 -7.031)"/><path class="cls-5" d="M392.3,123.987h-2.61v-.923h6.328v.923h-2.61v7.726H392.3Z" transform="translate(-9.887 -7.031)"/><path class="cls-5" d="M396.865,125.306h.9l.093,1.16h.039a2.192,2.192,0,0,1,1.819-1.318,1.593,1.593,0,0,1,.686.132l-.211.949a1.8,1.8,0,0,0-.62-.105c-.54,0-1.186.4-1.621,1.477v4.113h-1.081Z" transform="translate(-9.887 -7.031)"/><path class="cls-5" d="M401.347,125.306h1.095v3.916c0,1.2.356,1.714,1.2,1.714.658,0,1.12-.33,1.727-1.081v-4.548h1.081v6.407h-.9l-.093-1h-.039a2.71,2.71,0,0,1-2.109,1.16c-1.357,0-1.965-.87-1.965-2.5Z" transform="translate(-9.887 -7.031)"/><path class="cls-5" d="M408.439,130.263a2.885,2.885,0,0,0,1.886.765c.844,0,1.266-.448,1.266-1,0-.659-.765-.949-1.464-1.213-.909-.33-1.911-.765-1.911-1.846,0-1.028.817-1.819,2.2-1.819a3.2,3.2,0,0,1,1.99.725l-.514.686a2.381,2.381,0,0,0-1.464-.567c-.8,0-1.173.435-1.173.923,0,.606.7.831,1.424,1.107.922.343,1.951.725,1.951,1.938,0,1.042-.831,1.912-2.348,1.912a3.856,3.856,0,0,1-2.386-.883Z" transform="translate(-9.887 -7.031)"/><path class="cls-5" d="M414.318,126.189h-.949v-.817l1-.066.132-1.793h.91v1.793h1.727v.883h-1.727v3.56c0,.791.25,1.239.988,1.239a2.322,2.322,0,0,0,.725-.171l.211.817a3.952,3.952,0,0,1-1.186.237c-1.371,0-1.833-.87-1.833-2.136Z" transform="translate(-9.887 -7.031)"/><path class="cls-6" d="M34.553,54.738h4.983v.923H35.647v2.927h3.3v.923h-3.3v3.876H34.553Z" transform="translate(-9.887 -7.031)"/><path class="cls-6" d="M40.656,56.979h1.094V60.9c0,1.2.356,1.714,1.2,1.714.659,0,1.121-.33,1.727-1.081V56.979h1.081v6.407h-.9l-.092-1h-.04a2.708,2.708,0,0,1-2.109,1.16c-1.358,0-1.964-.87-1.964-2.5Z" transform="translate(-9.887 -7.031)"/><path class="cls-6" d="M47.92,56.979h.9l.092.923h.04A3.02,3.02,0,0,1,51.1,56.821c1.345,0,1.951.87,1.951,2.5v4.061H51.967V59.471c0-1.2-.369-1.714-1.213-1.714-.659,0-1.107.343-1.753.989v4.641H47.92Z" transform="translate(-9.887 -7.031)"/><path class="cls-6" d="M57.451,56.821a2.64,2.64,0,0,1,1.793.738l-.053-1.094V54h1.094v9.387h-.9l-.092-.751h-.04a2.891,2.891,0,0,1-1.938.91c-1.608,0-2.65-1.213-2.65-3.349C54.669,58.113,55.987,56.821,57.451,56.821Zm.105,5.814a2.168,2.168,0,0,0,1.635-.883V58.4a2.23,2.23,0,0,0-1.556-.672c-1.028,0-1.846.989-1.846,2.452C55.79,61.712,56.436,62.635,57.556,62.635Z" transform="translate(-9.887 -7.031)"/><path class="cls-6" d="M64.846,56.821c1.635,0,2.558,1.173,2.558,3.006a3.82,3.82,0,0,1-.04.593H63.04a2.132,2.132,0,0,0,2.136,2.254,2.9,2.9,0,0,0,1.6-.5l.382.712a3.816,3.816,0,0,1-2.109.659,3.389,3.389,0,0,1-.2-6.724Zm1.608,2.887c0-1.305-.58-2.03-1.582-2.03a2,2,0,0,0-1.846,2.03Z" transform="translate(-9.887 -7.031)"/><path class="cls-6" d="M71.306,56.821a2.64,2.64,0,0,1,1.793.738l-.053-1.094V54H74.14v9.387h-.9l-.092-.751h-.04a2.891,2.891,0,0,1-1.938.91c-1.608,0-2.65-1.213-2.65-3.349C68.524,58.113,69.842,56.821,71.306,56.821Zm.105,5.814a2.168,2.168,0,0,0,1.635-.883V58.4a2.23,2.23,0,0,0-1.556-.672c-1.028,0-1.846.989-1.846,2.452C69.645,61.712,70.291,62.635,71.411,62.635Z" transform="translate(-9.887 -7.031)"/><path class="cls-6" d="M11.048,70.557h1.094v5.1c0,2.083.883,2.742,2.017,2.742s2.043-.659,2.043-2.742v-5.1h1.055v5.076c0,2.782-1.332,3.731-3.1,3.731s-3.111-.949-3.111-3.731Z" transform="translate(-9.887 -7.031)"/><path class="cls-6" d="M20.566,79.746v2.162H19.485V72.8h.9l.092.738h.04a3.316,3.316,0,0,1,2.043-.9c1.648,0,2.531,1.279,2.531,3.27,0,2.175-1.305,3.454-2.769,3.454a2.971,2.971,0,0,1-1.78-.738Zm1.569-1.292c1.055,0,1.833-.962,1.833-2.544,0-1.411-.475-2.36-1.687-2.36a2.7,2.7,0,0,0-1.714.87v3.362A2.536,2.536,0,0,0,22.135,78.454Z" transform="translate(-9.887 -7.031)"/><path class="cls-6" d="M29.293,72.64a3.388,3.388,0,1,1-2.966,3.375A3.062,3.062,0,0,1,29.293,72.64Zm0,5.827c1.107,0,1.846-.989,1.846-2.452s-.738-2.479-1.846-2.479-1.846,1-1.846,2.479S28.2,78.467,29.293,78.467Z" transform="translate(-9.887 -7.031)"/><path class="cls-6" d="M33.946,72.8h.9l.092.923h.04a3.02,3.02,0,0,1,2.149-1.081c1.345,0,1.951.87,1.951,2.5v4.061H37.994V75.29c0-1.2-.369-1.714-1.213-1.714-.659,0-1.107.343-1.753.989v4.641H33.946Z" transform="translate(-9.887 -7.031)"/><path class="cls-6" d="M43.622,70.557h2.162c2.663,0,4.087,1.542,4.087,4.285s-1.424,4.364-4.034,4.364H43.622Zm2.083,7.752c2.017,0,3.032-1.279,3.032-3.467s-1.015-3.388-3.032-3.388h-.989v6.855Z" transform="translate(-9.887 -7.031)"/><path class="cls-6" d="M54.023,72.64c1.635,0,2.558,1.173,2.558,3.006a3.82,3.82,0,0,1-.04.593H52.217a2.132,2.132,0,0,0,2.136,2.254,2.9,2.9,0,0,0,1.6-.5l.382.712a3.816,3.816,0,0,1-2.109.659,3.389,3.389,0,0,1-.2-6.724Zm1.608,2.887c0-1.305-.58-2.03-1.582-2.03a2,2,0,0,0-1.846,2.03Z" transform="translate(-9.887 -7.031)"/><path class="cls-6" d="M61.617,75.145c0-.817-.277-1.608-1.318-1.608a3.446,3.446,0,0,0-1.912.686l-.435-.751a4.756,4.756,0,0,1,2.518-.831c1.569,0,2.228,1.042,2.228,2.637v3.929h-.9l-.092-.765h-.026a3.482,3.482,0,0,1-2.123.923,1.747,1.747,0,0,1-1.885-1.819C57.675,76.146,58.888,75.448,61.617,75.145Zm-1.753,3.349a2.625,2.625,0,0,0,1.753-.857v-1.78c-2.149.264-2.874.791-2.874,1.608A.982.982,0,0,0,59.863,78.493Z" transform="translate(-9.887 -7.031)"/><path class="cls-6" d="M64.925,73.681h-.949v-.817l1-.066L65.11,71h.91V72.8h1.727v.883H66.02v3.56c0,.791.25,1.239.989,1.239a2.328,2.328,0,0,0,.725-.171l.211.817a3.955,3.955,0,0,1-1.187.237c-1.371,0-1.833-.87-1.833-2.136Z" transform="translate(-9.887 -7.031)"/><path class="cls-6" d="M69.2,69.818h1.081v2.558l-.04,1.318a3.063,3.063,0,0,1,2.136-1.055c1.345,0,1.951.87,1.951,2.5v4.061H73.244V75.29c0-1.2-.369-1.714-1.213-1.714-.659,0-1.107.343-1.753.989v4.641H69.2Z" transform="translate(-9.887 -7.031)"/><rect class="cls-7" x="498.299" y="0.659" width="138.418" height="31.638"/><path class="cls-5" d="M550.391,25.744a3.387,3.387,0,0,0,2.386,1.081c1.135,0,1.807-.567,1.807-1.411,0-.883-.619-1.16-1.437-1.529l-1.238-.541a2.43,2.43,0,0,1-1.754-2.228,2.457,2.457,0,0,1,2.716-2.294,3.588,3.588,0,0,1,2.558,1.068l-.594.712a2.758,2.758,0,0,0-1.964-.817c-.962,0-1.608.488-1.608,1.266,0,.831.752,1.147,1.438,1.437l1.226.527a2.408,2.408,0,0,1,1.78,2.307c0,1.371-1.121,2.465-2.94,2.465a4.2,4.2,0,0,1-3.032-1.279Z" transform="translate(-9.887 -7.031)"/><path class="cls-5" d="M558.379,28.169v2.162H557.3v-9.11h.9l.092.738h.04a3.316,3.316,0,0,1,2.044-.9c1.647,0,2.531,1.279,2.531,3.27,0,2.175-1.306,3.454-2.77,3.454a2.972,2.972,0,0,1-1.779-.738Zm1.569-1.292c1.055,0,1.832-.962,1.832-2.544,0-1.411-.475-2.36-1.687-2.36a2.7,2.7,0,0,0-1.714.87v3.362A2.537,2.537,0,0,0,559.948,26.877Z" transform="translate(-9.887 -7.031)"/><path class="cls-5" d="M567.107,21.063a3.062,3.062,0,0,1,2.966,3.375,2.988,2.988,0,1,1-5.933,0A3.062,3.062,0,0,1,567.107,21.063Zm0,5.827c1.107,0,1.846-.989,1.846-2.452s-.738-2.479-1.846-2.479-1.846,1-1.846,2.479S566.012,26.891,567.107,26.891Z" transform="translate(-9.887 -7.031)"/><path class="cls-5" d="M571.667,21.222h1.095v3.916c0,1.2.356,1.714,1.2,1.714.658,0,1.12-.33,1.727-1.081V21.222h1.081v6.407h-.9l-.093-1h-.039a2.71,2.71,0,0,1-2.109,1.16c-1.357,0-1.965-.87-1.965-2.5Z" transform="translate(-9.887 -7.031)"/><path class="cls-5" d="M578.759,26.179a2.885,2.885,0,0,0,1.886.765c.844,0,1.266-.448,1.266-1,0-.659-.765-.949-1.464-1.213-.909-.33-1.911-.765-1.911-1.846,0-1.028.817-1.819,2.2-1.819a3.2,3.2,0,0,1,1.99.725l-.514.686a2.381,2.381,0,0,0-1.464-.567c-.8,0-1.173.435-1.173.923,0,.606.7.831,1.424,1.107.922.343,1.951.725,1.951,1.938,0,1.042-.831,1.912-2.348,1.912a3.856,3.856,0,0,1-2.386-.883Z" transform="translate(-9.887 -7.031)"/><path class="cls-5" d="M586.854,21.063c1.635,0,2.558,1.173,2.558,3.006a3.951,3.951,0,0,1-.039.593h-4.324a2.131,2.131,0,0,0,2.135,2.254,2.894,2.894,0,0,0,1.6-.5l.383.712a3.821,3.821,0,0,1-2.109.659,3.064,3.064,0,0,1-3.072-3.349A3.09,3.09,0,0,1,586.854,21.063Zm1.608,2.887c0-1.305-.58-2.03-1.582-2.03a2,2,0,0,0-1.846,2.03Z" transform="translate(-9.887 -7.031)"/><path class="cls-5" d="M594.091,24.939h-1.055v-.751h1.146l.237-1.951H593.3v-.765h1.213l.3-2.413h.7l-.3,2.413h1.753l.316-2.413h.7l-.316,2.413h1.068v.765h-1.147l-.237,1.951h1.121v.751h-1.213l-.33,2.689h-.7l.316-2.689H594.8l-.329,2.689h-.712Zm2.544-.751.237-1.951h-1.74l-.237,1.951Z" transform="translate(-9.887 -7.031)"/><path class="cls-5" d="M599.653,26.983c2.531-2.518,3.955-4.034,3.955-5.392a1.49,1.49,0,0,0-1.6-1.648,2.48,2.48,0,0,0-1.793,1.015l-.619-.62a3.3,3.3,0,0,1,2.545-1.279,2.336,2.336,0,0,1,2.518,2.479c0,1.582-1.437,3.151-3.428,5.234.461-.04.976-.079,1.41-.079h2.439v.936h-5.432Z" transform="translate(-9.887 -7.031)"/><g class="cls-8"><line class="cls-9" x1="220.426" y1="19.897" x2="220.426" y2="370.318"/><path class="cls-10" d="M230.313,379.552h0m0-357.031h0" transform="translate(-9.887 -7.031)"/></g><rect class="cls-4" x="263.626" y="144.68" width="178.461" height="228.94"/><path class="cls-5" d="M22.2,175.048a1.48,1.48,0,1,1,1.477,1.582A1.512,1.512,0,0,1,22.2,175.048Z" transform="translate(-9.887 -7.031)"/><path class="cls-5" d="M32.215,176.63a3.387,3.387,0,0,0,2.386,1.081c1.134,0,1.806-.567,1.806-1.411,0-.883-.62-1.16-1.437-1.529l-1.239-.541A2.43,2.43,0,0,1,31.978,172a2.457,2.457,0,0,1,2.716-2.294,3.588,3.588,0,0,1,2.558,1.068l-.593.712a2.758,2.758,0,0,0-1.964-.817c-.962,0-1.608.488-1.608,1.266,0,.831.751,1.147,1.437,1.437l1.226.527a2.408,2.408,0,0,1,1.78,2.307c0,1.371-1.121,2.465-2.94,2.465a4.194,4.194,0,0,1-3.032-1.279Z" transform="translate(-9.887 -7.031)"/><path class="cls-5" d="M40.2,179.056v2.162H39.123v-9.11h.9l.092.738h.04a3.316,3.316,0,0,1,2.043-.9c1.648,0,2.531,1.279,2.531,3.27,0,2.175-1.305,3.454-2.769,3.454a2.971,2.971,0,0,1-1.78-.738Zm1.569-1.292c1.055,0,1.833-.962,1.833-2.544,0-1.411-.475-2.36-1.687-2.36a2.7,2.7,0,0,0-1.714.87v3.362A2.536,2.536,0,0,0,41.773,177.764Z" transform="translate(-9.887 -7.031)"/><path class="cls-5" d="M48.931,171.95a3.388,3.388,0,1,1-2.966,3.375A3.062,3.062,0,0,1,48.931,171.95Zm0,5.827c1.107,0,1.846-.989,1.846-2.452s-.738-2.479-1.846-2.479-1.846,1-1.846,2.479S47.836,177.777,48.931,177.777Z" transform="translate(-9.887 -7.031)"/><path class="cls-5" d="M53.491,172.108h1.094v3.916c0,1.2.356,1.714,1.2,1.714.659,0,1.121-.33,1.727-1.081v-4.548h1.081v6.407h-.9l-.092-1h-.04a2.708,2.708,0,0,1-2.109,1.16c-1.358,0-1.964-.87-1.964-2.5Z" transform="translate(-9.887 -7.031)"/><path class="cls-5" d="M60.584,177.065a2.882,2.882,0,0,0,1.885.765c.844,0,1.266-.448,1.266-1,0-.659-.765-.949-1.463-1.213-.91-.33-1.912-.765-1.912-1.846,0-1.028.817-1.819,2.2-1.819a3.2,3.2,0,0,1,1.991.725l-.514.686a2.379,2.379,0,0,0-1.463-.567c-.8,0-1.173.435-1.173.923,0,.606.7.831,1.424,1.107.923.343,1.951.725,1.951,1.938,0,1.042-.831,1.912-2.347,1.912a3.857,3.857,0,0,1-2.386-.883Z" transform="translate(-9.887 -7.031)"/><path class="cls-5" d="M68.678,171.95c1.635,0,2.558,1.173,2.558,3.006a3.82,3.82,0,0,1-.04.593H66.872a2.132,2.132,0,0,0,2.136,2.254,2.9,2.9,0,0,0,1.6-.5l.382.712a3.816,3.816,0,0,1-2.109.659,3.389,3.389,0,0,1-.2-6.724Zm1.608,2.887c0-1.305-.58-2.03-1.582-2.03a2,2,0,0,0-1.846,2.03Z" transform="translate(-9.887 -7.031)"/><path class="cls-5" d="M75.915,175.826H74.86v-.751h1.147l.237-1.951H75.124v-.765h1.213l.3-2.413h.7l-.3,2.413h1.753l.316-2.413h.7l-.316,2.413h1.068v.765H79.408l-.237,1.951h1.121v.751H79.079l-.33,2.689h-.7l.316-2.689h-1.74l-.33,2.689h-.712Zm2.544-.751.237-1.951h-1.74l-.237,1.951Z" transform="translate(-9.887 -7.031)"/><path class="cls-5" d="M81.478,177.87c2.531-2.518,3.955-4.034,3.955-5.392a1.49,1.49,0,0,0-1.6-1.648,2.479,2.479,0,0,0-1.793,1.015l-.62-.62a3.3,3.3,0,0,1,2.544-1.279,2.336,2.336,0,0,1,2.518,2.479c0,1.582-1.437,3.151-3.428,5.234.461-.04.976-.079,1.411-.079h2.439v.936H81.478Z" transform="translate(-9.887 -7.031)"/><path class="cls-5" d="M91.246,172.108h.9l.092,1.16h.04a2.192,2.192,0,0,1,1.819-1.318,1.591,1.591,0,0,1,.686.132l-.211.949a1.793,1.793,0,0,0-.62-.105c-.541,0-1.187.4-1.622,1.477v4.113H91.246Z" transform="translate(-9.887 -7.031)"/><path class="cls-5" d="M98.088,171.95c1.635,0,2.558,1.173,2.558,3.006a3.82,3.82,0,0,1-.04.593H96.282a2.132,2.132,0,0,0,2.136,2.254,2.9,2.9,0,0,0,1.6-.5l.382.712a3.816,3.816,0,0,1-2.109.659,3.389,3.389,0,0,1-.2-6.724Zm1.608,2.887c0-1.305-.58-2.03-1.582-2.03a2,2,0,0,0-1.846,2.03Z" transform="translate(-9.887 -7.031)"/><path class="cls-5" d="M104.837,171.95a2.642,2.642,0,0,1,1.872.765l-.541.7a1.937,1.937,0,0,0-1.292-.567c-1.16,0-2,1-2,2.479s.8,2.452,1.978,2.452a2.285,2.285,0,0,0,1.5-.646l.488.712a3.173,3.173,0,0,1-2.083.831c-1.7,0-3.006-1.226-3.006-3.349A3.1,3.1,0,0,1,104.837,171.95Z" transform="translate(-9.887 -7.031)"/><path class="cls-5" d="M110.374,171.95c1.635,0,2.558,1.173,2.558,3.006a3.82,3.82,0,0,1-.04.593h-4.324A2.132,2.132,0,0,0,110.7,177.8a2.9,2.9,0,0,0,1.6-.5l.382.712a3.816,3.816,0,0,1-2.109.659,3.389,3.389,0,0,1-.2-6.724Zm1.608,2.887c0-1.305-.58-2.03-1.582-2.03a2,2,0,0,0-1.846,2.03Z" transform="translate(-9.887 -7.031)"/><path class="cls-5" d="M114.315,170.091a.753.753,0,0,1,1.5,0,.753.753,0,0,1-1.5,0Zm.2,2.017h1.081v6.407h-1.081Z" transform="translate(-9.887 -7.031)"/><path class="cls-5" d="M116.833,172.108h1.121l1.213,3.639c.185.633.4,1.279.593,1.885h.053c.185-.606.4-1.252.58-1.885l1.213-3.639h1.068l-2.268,6.407H119.14Z" transform="translate(-9.887 -7.031)"/><path class="cls-5" d="M126.258,171.95c1.635,0,2.558,1.173,2.558,3.006a3.82,3.82,0,0,1-.04.593h-4.324a2.132,2.132,0,0,0,2.136,2.254,2.9,2.9,0,0,0,1.6-.5l.382.712a3.816,3.816,0,0,1-2.109.659,3.389,3.389,0,0,1-.2-6.724Zm1.608,2.887c0-1.305-.58-2.03-1.582-2.03a2,2,0,0,0-1.846,2.03Z" transform="translate(-9.887 -7.031)"/><path class="cls-5" d="M130.226,177.065a2.882,2.882,0,0,0,1.885.765c.844,0,1.266-.448,1.266-1,0-.659-.765-.949-1.463-1.213-.91-.33-1.912-.765-1.912-1.846,0-1.028.817-1.819,2.2-1.819a3.2,3.2,0,0,1,1.991.725l-.514.686a2.379,2.379,0,0,0-1.463-.567c-.8,0-1.173.435-1.173.923,0,.606.7.831,1.424,1.107.923.343,1.951.725,1.951,1.938,0,1.042-.831,1.912-2.347,1.912a3.857,3.857,0,0,1-2.386-.883Z" transform="translate(-9.887 -7.031)"/><path class="cls-5" d="M33.2,185.911a.753.753,0,0,1,1.5,0,.753.753,0,0,1-1.5,0Zm.2,2.017h1.081v6.407H33.4Z" transform="translate(-9.887 -7.031)"/><path class="cls-5" d="M36.644,187.928h.9l.092.923h.04a3.02,3.02,0,0,1,2.149-1.081c1.345,0,1.951.87,1.951,2.5v4.061H40.691v-3.916c0-1.2-.369-1.714-1.213-1.714-.659,0-1.107.343-1.753.989v4.641H36.644Z" transform="translate(-9.887 -7.031)"/><path class="cls-5" d="M46.465,187.77a2.642,2.642,0,0,1,1.872.765l-.541.7a1.937,1.937,0,0,0-1.292-.567c-1.16,0-2,1-2,2.479s.8,2.452,1.978,2.452a2.285,2.285,0,0,0,1.5-.646l.488.712a3.173,3.173,0,0,1-2.083.831c-1.7,0-3.006-1.226-3.006-3.349A3.1,3.1,0,0,1,46.465,187.77Z" transform="translate(-9.887 -7.031)"/><path class="cls-5" d="M52.094,187.77a3.388,3.388,0,1,1-2.966,3.375A3.062,3.062,0,0,1,52.094,187.77Zm0,5.827c1.107,0,1.846-.989,1.846-2.452s-.738-2.479-1.846-2.479-1.846,1-1.846,2.479S51,193.6,52.094,193.6Z" transform="translate(-9.887 -7.031)"/><path class="cls-5" d="M56.748,187.928h.9l.092.923h.04a2.816,2.816,0,0,1,1.991-1.081A1.681,1.681,0,0,1,61.533,189a3.027,3.027,0,0,1,2.109-1.226c1.318,0,1.951.87,1.951,2.5v4.061H64.513v-3.916c0-1.2-.382-1.714-1.187-1.714a2.351,2.351,0,0,0-1.608.989v4.641H60.637v-3.916c0-1.2-.382-1.714-1.2-1.714a2.4,2.4,0,0,0-1.608.989v4.641H56.748Z" transform="translate(-9.887 -7.031)"/><path class="cls-5" d="M70.075,187.77c1.635,0,2.558,1.173,2.558,3.006a3.82,3.82,0,0,1-.04.593H68.269a2.132,2.132,0,0,0,2.136,2.254,2.9,2.9,0,0,0,1.6-.5l.382.712a3.816,3.816,0,0,1-2.109.659,3.389,3.389,0,0,1-.2-6.724Zm1.608,2.887c0-1.305-.58-2.03-1.582-2.03a2,2,0,0,0-1.846,2.03Z" transform="translate(-9.887 -7.031)"/><path class="cls-5" d="M22.2,222.506a1.48,1.48,0,1,1,1.477,1.582A1.512,1.512,0,0,1,22.2,222.506Z" transform="translate(-9.887 -7.031)"/><path class="cls-5" d="M32.189,217.325h2.65c1.912,0,3.19.646,3.19,2.544,0,1.819-1.292,2.676-3.19,2.676H33.283v3.428H32.189Zm2.518,4.324c1.5,0,2.228-.554,2.228-1.78,0-1.252-.738-1.661-2.228-1.661H33.283v3.441Z" transform="translate(-9.887 -7.031)"/><path class="cls-5" d="M39.676,219.566h.9l.092,1.16h.04a2.192,2.192,0,0,1,1.819-1.318,1.591,1.591,0,0,1,.686.132l-.211.949a1.793,1.793,0,0,0-.62-.105c-.541,0-1.187.4-1.622,1.477v4.113H39.676Z" transform="translate(-9.887 -7.031)"/><path class="cls-5" d="M44.053,217.549a.753.753,0,0,1,1.5,0,.753.753,0,0,1-1.5,0Zm.2,2.017h1.081v6.407H44.251Z" transform="translate(-9.887 -7.031)"/><path class="cls-5" d="M47.493,219.566h.9l.092.923h.04a3.02,3.02,0,0,1,2.149-1.081c1.345,0,1.951.87,1.951,2.5v4.061H51.541v-3.916c0-1.2-.369-1.714-1.213-1.714-.659,0-1.107.343-1.753.989v4.641H47.493Z" transform="translate(-9.887 -7.031)"/><path class="cls-5" d="M57.315,219.408a2.642,2.642,0,0,1,1.872.765l-.541.7a1.937,1.937,0,0,0-1.292-.567c-1.16,0-2,1-2,2.479s.8,2.452,1.978,2.452a2.285,2.285,0,0,0,1.5-.646l.488.712a3.173,3.173,0,0,1-2.083.831c-1.7,0-3.006-1.226-3.006-3.349A3.1,3.1,0,0,1,57.315,219.408Z" transform="translate(-9.887 -7.031)"/><path class="cls-5" d="M60.518,217.549a.753.753,0,0,1,1.5,0,.753.753,0,0,1-1.5,0Zm.2,2.017H61.8v6.407H60.715Z" transform="translate(-9.887 -7.031)"/><path class="cls-5" d="M65.039,226.514v2.162H63.958v-9.11h.9l.092.738h.04a3.316,3.316,0,0,1,2.043-.9c1.648,0,2.531,1.279,2.531,3.27,0,2.175-1.305,3.454-2.769,3.454a2.971,2.971,0,0,1-1.78-.738Zm1.569-1.292c1.055,0,1.833-.962,1.833-2.544,0-1.411-.475-2.36-1.687-2.36a2.7,2.7,0,0,0-1.714.87v3.362A2.536,2.536,0,0,0,66.608,225.222Z" transform="translate(-9.887 -7.031)"/><path class="cls-5" d="M74.715,221.913c0-.817-.277-1.608-1.318-1.608a3.446,3.446,0,0,0-1.912.686l-.435-.751a4.756,4.756,0,0,1,2.518-.831c1.569,0,2.228,1.042,2.228,2.637v3.929h-.9l-.092-.765h-.026a3.482,3.482,0,0,1-2.123.923,1.747,1.747,0,0,1-1.885-1.819C70.773,222.915,71.986,222.216,74.715,221.913Zm-1.753,3.349a2.625,2.625,0,0,0,1.753-.857v-1.78c-2.149.264-2.874.791-2.874,1.608A.982.982,0,0,0,72.962,225.262Z" transform="translate(-9.887 -7.031)"/><path class="cls-5" d="M77.839,216.587H78.92v8.174c0,.343.145.475.3.475a.908.908,0,0,0,.237-.026l.145.817a1.455,1.455,0,0,1-.62.105c-.817,0-1.147-.514-1.147-1.45Z" transform="translate(-9.887 -7.031)"/><path class="cls-5" d="M87.489,221.913c0-.817-.277-1.608-1.318-1.608a3.446,3.446,0,0,0-1.912.686l-.435-.751a4.756,4.756,0,0,1,2.518-.831c1.569,0,2.228,1.042,2.228,2.637v3.929h-.9l-.092-.765h-.026a3.482,3.482,0,0,1-2.123.923,1.747,1.747,0,0,1-1.885-1.819C83.547,222.915,84.76,222.216,87.489,221.913Zm-1.753,3.349a2.625,2.625,0,0,0,1.753-.857v-1.78c-2.149.264-2.874.791-2.874,1.608A.982.982,0,0,0,85.735,225.262Z" transform="translate(-9.887 -7.031)"/><path class="cls-5" d="M90.8,220.45h-.949v-.817l1-.066.132-1.793h.91v1.793h1.727v.883H91.892v3.56c0,.791.25,1.239.989,1.239a2.328,2.328,0,0,0,.725-.171l.211.817a3.955,3.955,0,0,1-1.187.237c-1.371,0-1.833-.87-1.833-2.136Z" transform="translate(-9.887 -7.031)"/><path class="cls-5" d="M99.63,218.248H97.02v-.923h6.328v.923h-2.61v7.726H99.63Z" transform="translate(-9.887 -7.031)"/><path class="cls-5" d="M104.2,219.566h.9l.092,1.16h.04a2.192,2.192,0,0,1,1.819-1.318,1.591,1.591,0,0,1,.686.132l-.211.949a1.793,1.793,0,0,0-.62-.105c-.541,0-1.187.4-1.622,1.477v4.113H104.2Z" transform="translate(-9.887 -7.031)"/><path class="cls-5" d="M108.686,219.566h1.094v3.916c0,1.2.356,1.714,1.2,1.714.659,0,1.121-.33,1.727-1.081v-4.548h1.081v6.407h-.9l-.092-1h-.04a2.708,2.708,0,0,1-2.109,1.16c-1.358,0-1.964-.87-1.964-2.5Z" transform="translate(-9.887 -7.031)"/><path class="cls-5" d="M115.778,224.523a2.882,2.882,0,0,0,1.885.765c.844,0,1.266-.448,1.266-1,0-.659-.765-.949-1.463-1.213-.91-.33-1.912-.765-1.912-1.846,0-1.028.817-1.819,2.2-1.819a3.2,3.2,0,0,1,1.991.725l-.514.686a2.379,2.379,0,0,0-1.463-.567c-.8,0-1.173.435-1.173.923,0,.606.7.831,1.424,1.107.923.343,1.951.725,1.951,1.938,0,1.042-.831,1.912-2.347,1.912a3.857,3.857,0,0,1-2.386-.883Z" transform="translate(-9.887 -7.031)"/><path class="cls-5" d="M121.657,220.45h-.949v-.817l1-.066.132-1.793h.91v1.793h1.727v.883h-1.727v3.56c0,.791.25,1.239.989,1.239a2.328,2.328,0,0,0,.725-.171l.211.817a3.955,3.955,0,0,1-1.187.237c-1.371,0-1.833-.87-1.833-2.136Z" transform="translate(-9.887 -7.031)"/><path class="cls-5" d="M128.2,219.408c1.635,0,2.558,1.173,2.558,3.006a3.82,3.82,0,0,1-.04.593H126.39a2.132,2.132,0,0,0,2.136,2.254,2.9,2.9,0,0,0,1.6-.5l.382.712a3.816,3.816,0,0,1-2.109.659,3.389,3.389,0,0,1-.2-6.724ZM129.8,222.3c0-1.305-.58-2.03-1.582-2.03a2,2,0,0,0-1.846,2.03Z" transform="translate(-9.887 -7.031)"/><path class="cls-5" d="M134.734,219.408c1.635,0,2.558,1.173,2.558,3.006a3.82,3.82,0,0,1-.04.593h-4.324a2.132,2.132,0,0,0,2.136,2.254,2.9,2.9,0,0,0,1.6-.5l.382.712a3.816,3.816,0,0,1-2.109.659,3.389,3.389,0,0,1-.2-6.724Zm1.608,2.887c0-1.305-.58-2.03-1.582-2.03a2,2,0,0,0-1.846,2.03Z" transform="translate(-9.887 -7.031)"/><path class="cls-5" d="M138.491,219.791a1.813,1.813,0,0,0,.989-1.648.29.29,0,0,1-.105.013.654.654,0,0,1-.7-.659.675.675,0,0,1,.7-.738c.514,0,.831.435.831,1.2a2.555,2.555,0,0,1-1.411,2.333Z" transform="translate(-9.887 -7.031)"/><path class="cls-5" d="M141.22,224.523a2.882,2.882,0,0,0,1.885.765c.844,0,1.266-.448,1.266-1,0-.659-.765-.949-1.463-1.213-.91-.33-1.912-.765-1.912-1.846,0-1.028.817-1.819,2.2-1.819a3.2,3.2,0,0,1,1.991.725l-.514.686a2.379,2.379,0,0,0-1.463-.567c-.8,0-1.173.435-1.173.923,0,.606.7.831,1.424,1.107.923.343,1.951.725,1.951,1.938,0,1.042-.831,1.912-2.347,1.912a3.857,3.857,0,0,1-2.386-.883Z" transform="translate(-9.887 -7.031)"/><path class="cls-5" d="M35.722,235.227a2.642,2.642,0,0,1,1.793.738l-.053-1.094v-2.466h1.094v9.387h-.9l-.092-.751h-.04a2.892,2.892,0,0,1-1.938.909c-1.608,0-2.65-1.213-2.65-3.349C32.94,236.519,34.258,235.227,35.722,235.227Zm.105,5.814a2.171,2.171,0,0,0,1.635-.884v-3.349a2.227,2.227,0,0,0-1.556-.672c-1.028,0-1.846.988-1.846,2.451C34.061,240.117,34.707,241.041,35.827,241.041Z" transform="translate(-9.887 -7.031)"/><path class="cls-5" d="M40.52,233.367a.753.753,0,0,1,1.5,0,.753.753,0,0,1-1.5,0Zm.2,2.018H41.8v6.407H40.718Z" transform="translate(-9.887 -7.031)"/><path class="cls-5" d="M43.789,240.342a2.882,2.882,0,0,0,1.885.765c.844,0,1.266-.448,1.266-1,0-.659-.765-.949-1.463-1.213-.91-.329-1.912-.765-1.912-1.846,0-1.028.817-1.819,2.2-1.819a3.2,3.2,0,0,1,1.991.725l-.514.686a2.382,2.382,0,0,0-1.463-.566c-.8,0-1.173.436-1.173.923,0,.606.7.831,1.424,1.107.923.343,1.951.726,1.951,1.938,0,1.041-.831,1.911-2.347,1.911a3.851,3.851,0,0,1-2.386-.884Z" transform="translate(-9.887 -7.031)"/><path class="cls-5" d="M52.094,235.227a2.64,2.64,0,0,1,1.872.765l-.541.7a1.938,1.938,0,0,0-1.292-.566c-1.16,0-2,1-2,2.479s.8,2.452,1.978,2.452a2.289,2.289,0,0,0,1.5-.646l.488.711a3.171,3.171,0,0,1-2.083.831c-1.7,0-3.006-1.226-3.006-3.349A3.1,3.1,0,0,1,52.094,235.227Z" transform="translate(-9.887 -7.031)"/><path class="cls-5" d="M55.5,235.385h.9l.092,1.16h.04a2.191,2.191,0,0,1,1.819-1.318,1.584,1.584,0,0,1,.686.132l-.211.949a1.8,1.8,0,0,0-.62-.105c-.541,0-1.187.4-1.622,1.477v4.113H55.5Z" transform="translate(-9.887 -7.031)"/><path class="cls-5" d="M62.337,235.227c1.635,0,2.558,1.174,2.558,3.006a3.822,3.822,0,0,1-.04.594H60.531a2.132,2.132,0,0,0,2.136,2.254,2.891,2.891,0,0,0,1.6-.5l.382.712a3.819,3.819,0,0,1-2.109.659,3.389,3.389,0,0,1-.2-6.724Zm1.608,2.887c0-1.3-.58-2.029-1.582-2.029a2,2,0,0,0-1.846,2.029Z" transform="translate(-9.887 -7.031)"/><path class="cls-5" d="M66.489,236.268H65.54v-.816l1-.066.132-1.793h.91v1.793h1.727v.883H67.584v3.561c0,.791.25,1.238.989,1.238a2.327,2.327,0,0,0,.725-.171l.211.817a3.94,3.94,0,0,1-1.187.237c-1.371,0-1.833-.87-1.833-2.136Z" transform="translate(-9.887 -7.031)"/><path class="cls-5" d="M70.563,233.367a.753.753,0,0,1,1.5,0,.753.753,0,0,1-1.5,0Zm.2,2.018h1.081v6.407H70.76Z" transform="translate(-9.887 -7.031)"/><path class="cls-5" d="M76.495,235.227a3.388,3.388,0,1,1-2.966,3.375A3.062,3.062,0,0,1,76.495,235.227Zm0,5.827c1.107,0,1.846-.989,1.846-2.452s-.738-2.479-1.846-2.479-1.846,1-1.846,2.479S75.4,241.054,76.495,241.054Z" transform="translate(-9.887 -7.031)"/><path class="cls-5" d="M81.148,235.385h.9l.092.923h.04a3.02,3.02,0,0,1,2.149-1.081c1.345,0,1.951.87,1.951,2.5v4.061H85.2v-3.915c0-1.2-.369-1.715-1.213-1.715-.659,0-1.107.344-1.753.989v4.641H81.148Z" transform="translate(-9.887 -7.031)"/><path class="cls-5" d="M22.2,269.965a1.48,1.48,0,1,1,1.477,1.582A1.513,1.513,0,0,1,22.2,269.965Z" transform="translate(-9.887 -7.031)"/><path class="cls-5" d="M32.189,264.783h1.134l3.125,5.432.936,1.793h.053c-.053-.87-.132-1.846-.132-2.756v-4.469h1.042v8.648H37.211l-3.138-5.445-.936-1.779h-.053c.066.87.145,1.793.145,2.7v4.521H32.189Z" transform="translate(-9.887 -7.031)"/><path class="cls-5" d="M43.1,266.866a3.388,3.388,0,1,1-2.966,3.375A3.062,3.062,0,0,1,43.1,266.866Zm0,5.827c1.107,0,1.846-.988,1.846-2.452s-.738-2.479-1.846-2.479-1.846,1-1.846,2.479S42.01,272.693,43.1,272.693Z" transform="translate(-9.887 -7.031)"/><path class="cls-5" d="M47.941,267.908h-.949v-.818l1-.065.132-1.793h.91v1.793h1.727v.884H49.036v3.559c0,.791.25,1.24.989,1.24a2.328,2.328,0,0,0,.725-.172l.211.817a3.971,3.971,0,0,1-1.187.237c-1.371,0-1.833-.87-1.833-2.136Z" transform="translate(-9.887 -7.031)"/><path class="cls-5" d="M54.678,265.008a.753.753,0,0,1,1.5,0,.753.753,0,0,1-1.5,0Zm.2,2.017h1.081v6.407H54.876Z" transform="translate(-9.887 -7.031)"/><path class="cls-5" d="M58.118,267.024h.9l.092.923h.04a3.02,3.02,0,0,1,2.149-1.081c1.345,0,1.951.87,1.951,2.5v4.061H62.166v-3.916c0-1.2-.369-1.713-1.213-1.713-.659,0-1.107.342-1.753.988v4.641H58.118Z" transform="translate(-9.887 -7.031)"/><path class="cls-5" d="M68.124,271.547a3.388,3.388,0,0,0,2.386,1.08c1.134,0,1.806-.566,1.806-1.41,0-.883-.62-1.16-1.437-1.529l-1.239-.541a2.429,2.429,0,0,1-1.753-2.228,2.457,2.457,0,0,1,2.716-2.294,3.589,3.589,0,0,1,2.558,1.068l-.593.711a2.761,2.761,0,0,0-1.964-.816c-.962,0-1.608.487-1.608,1.266,0,.83.751,1.146,1.437,1.437l1.226.527a2.407,2.407,0,0,1,1.78,2.308c0,1.371-1.121,2.465-2.94,2.465a4.192,4.192,0,0,1-3.032-1.279Z" transform="translate(-9.887 -7.031)"/><path class="cls-5" d="M76.113,273.973v2.162H75.032v-9.11h.9l.092.738h.04a3.318,3.318,0,0,1,2.043-.9c1.648,0,2.531,1.278,2.531,3.27,0,2.175-1.305,3.454-2.769,3.454a2.974,2.974,0,0,1-1.78-.738Zm1.569-1.293c1.055,0,1.833-.962,1.833-2.544,0-1.411-.475-2.36-1.687-2.36a2.7,2.7,0,0,0-1.714.871v3.361A2.532,2.532,0,0,0,77.682,272.68Z" transform="translate(-9.887 -7.031)"/><path class="cls-5" d="M84.839,266.866a3.388,3.388,0,1,1-2.966,3.375A3.062,3.062,0,0,1,84.839,266.866Zm0,5.827c1.107,0,1.846-.988,1.846-2.452s-.738-2.479-1.846-2.479-1.846,1-1.846,2.479S83.745,272.693,84.839,272.693Z" transform="translate(-9.887 -7.031)"/><path class="cls-5" d="M89.4,267.024h1.094v3.915c0,1.2.356,1.715,1.2,1.715.659,0,1.121-.33,1.727-1.082v-4.548H94.5v6.407h-.9l-.092-1h-.04a2.707,2.707,0,0,1-2.109,1.16c-1.358,0-1.964-.87-1.964-2.5Z" transform="translate(-9.887 -7.031)"/><path class="cls-5" d="M96.493,271.981a2.882,2.882,0,0,0,1.885.765c.844,0,1.266-.448,1.266-1,0-.659-.765-.949-1.463-1.213-.91-.33-1.912-.765-1.912-1.846,0-1.028.817-1.819,2.2-1.819a3.193,3.193,0,0,1,1.991.726l-.514.686a2.377,2.377,0,0,0-1.463-.567c-.8,0-1.173.435-1.173.923,0,.606.7.83,1.424,1.107.923.343,1.951.725,1.951,1.938,0,1.042-.831,1.912-2.347,1.912a3.862,3.862,0,0,1-2.386-.883Z" transform="translate(-9.887 -7.031)"/><path class="cls-5" d="M104.587,266.866c1.635,0,2.558,1.173,2.558,3.006a3.818,3.818,0,0,1-.04.593h-4.324a2.133,2.133,0,0,0,2.136,2.255,2.9,2.9,0,0,0,1.6-.5l.382.712a3.812,3.812,0,0,1-2.109.659,3.389,3.389,0,0,1-.2-6.724Zm1.608,2.888c0-1.306-.58-2.031-1.582-2.031a2,2,0,0,0-1.846,2.031Z" transform="translate(-9.887 -7.031)"/><path class="cls-5" d="M111.824,270.742h-1.055v-.752h1.147l.237-1.951h-1.121v-.764h1.213l.3-2.413h.7l-.3,2.413H114.7l.316-2.413h.7l-.316,2.413h1.068v.764h-1.147l-.237,1.951H116.2v.752h-1.213l-.33,2.689h-.7l.316-2.689h-1.74l-.33,2.689h-.712Zm2.544-.752.237-1.951h-1.74l-.237,1.951Z" transform="translate(-9.887 -7.031)"/><path class="cls-5" d="M117.387,272.785c2.531-2.518,3.955-4.033,3.955-5.392a1.49,1.49,0,0,0-1.6-1.647,2.476,2.476,0,0,0-1.793,1.015l-.62-.62a3.3,3.3,0,0,1,2.544-1.278,2.336,2.336,0,0,1,2.518,2.479c0,1.582-1.437,3.151-3.428,5.233.461-.039.976-.078,1.411-.078h2.439v.936h-5.432Z" transform="translate(-9.887 -7.031)"/><path class="cls-5" d="M124.242,267.248a1.811,1.811,0,0,0,.989-1.647.3.3,0,0,1-.105.013.653.653,0,0,1-.7-.658.675.675,0,0,1,.7-.738c.514,0,.831.435.831,1.2a2.555,2.555,0,0,1-1.411,2.334Z" transform="translate(-9.887 -7.031)"/><path class="cls-5" d="M126.957,271.981a2.882,2.882,0,0,0,1.885.765c.844,0,1.266-.448,1.266-1,0-.659-.765-.949-1.463-1.213-.91-.33-1.912-.765-1.912-1.846,0-1.028.817-1.819,2.2-1.819a3.193,3.193,0,0,1,1.991.726l-.514.686a2.377,2.377,0,0,0-1.463-.567c-.8,0-1.173.435-1.173.923,0,.606.7.83,1.424,1.107.923.343,1.951.725,1.951,1.938,0,1.042-.831,1.912-2.347,1.912a3.862,3.862,0,0,1-2.386-.883Z" transform="translate(-9.887 -7.031)"/><path class="cls-5" d="M137.714,266.866c1.635,0,2.558,1.173,2.558,3.006a3.818,3.818,0,0,1-.04.593h-4.324a2.133,2.133,0,0,0,2.136,2.255,2.9,2.9,0,0,0,1.6-.5l.382.712a3.812,3.812,0,0,1-2.109.659,3.389,3.389,0,0,1-.2-6.724Zm1.608,2.888c0-1.306-.58-2.031-1.582-2.031a2,2,0,0,0-1.846,2.031Z" transform="translate(-9.887 -7.031)"/><path class="cls-5" d="M141.682,271.981a2.882,2.882,0,0,0,1.885.765c.844,0,1.266-.448,1.266-1,0-.659-.765-.949-1.463-1.213-.91-.33-1.912-.765-1.912-1.846,0-1.028.817-1.819,2.2-1.819a3.193,3.193,0,0,1,1.991.726l-.514.686a2.377,2.377,0,0,0-1.463-.567c-.8,0-1.173.435-1.173.923,0,.606.7.83,1.424,1.107.923.343,1.951.725,1.951,1.938,0,1.042-.831,1.912-2.347,1.912a3.862,3.862,0,0,1-2.386-.883Z" transform="translate(-9.887 -7.031)"/><path class="cls-5" d="M147.561,267.908h-.949v-.818l1-.065.132-1.793h.91v1.793h1.727v.884h-1.727v3.559c0,.791.25,1.24.989,1.24a2.328,2.328,0,0,0,.725-.172l.211.817a3.971,3.971,0,0,1-1.187.237c-1.371,0-1.833-.87-1.833-2.136Z" transform="translate(-9.887 -7.031)"/><path class="cls-5" d="M155.221,269.371c0-.817-.277-1.608-1.318-1.608a3.446,3.446,0,0,0-1.912.686l-.435-.751a4.751,4.751,0,0,1,2.518-.831c1.569,0,2.228,1.042,2.228,2.637v3.929h-.9l-.092-.765h-.026a3.482,3.482,0,0,1-2.123.923,1.747,1.747,0,0,1-1.885-1.819C151.279,270.373,152.492,269.674,155.221,269.371Zm-1.753,3.349a2.628,2.628,0,0,0,1.753-.856v-1.78c-2.149.264-2.874.791-2.874,1.608A.982.982,0,0,0,153.467,272.72Z" transform="translate(-9.887 -7.031)"/><path class="cls-5" d="M158.529,267.908h-.949v-.818l1-.065.132-1.793h.91v1.793h1.727v.884h-1.727v3.559c0,.791.25,1.24.989,1.24a2.328,2.328,0,0,0,.725-.172l.211.817a3.971,3.971,0,0,1-1.187.237c-1.371,0-1.833-.87-1.833-2.136Z" transform="translate(-9.887 -7.031)"/><path class="cls-5" d="M165.068,266.866c1.635,0,2.558,1.173,2.558,3.006a3.818,3.818,0,0,1-.04.593h-4.324a2.133,2.133,0,0,0,2.136,2.255,2.9,2.9,0,0,0,1.6-.5l.382.712a3.812,3.812,0,0,1-2.109.659,3.389,3.389,0,0,1-.2-6.724Zm1.608,2.888c0-1.306-.58-2.031-1.582-2.031a2,2,0,0,0-1.846,2.031Z" transform="translate(-9.887 -7.031)"/><path class="cls-5" d="M22.2,301.6a1.48,1.48,0,1,1,1.477,1.582A1.512,1.512,0,0,1,22.2,301.6Z" transform="translate(-9.887 -7.031)"/><path class="cls-5" d="M32.189,296.421h1.134l3.125,5.432.936,1.793h.053c-.053-.87-.132-1.846-.132-2.755v-4.47h1.042v8.648H37.211l-3.138-5.444-.936-1.78h-.053c.066.87.145,1.793.145,2.7v4.522H32.189Z" transform="translate(-9.887 -7.031)"/><path class="cls-5" d="M43.1,298.5a3.388,3.388,0,1,1-2.966,3.375A3.062,3.062,0,0,1,43.1,298.5Zm0,5.827c1.107,0,1.846-.989,1.846-2.452S44.211,299.4,43.1,299.4s-1.846,1-1.846,2.479S42.01,304.331,43.1,304.331Z" transform="translate(-9.887 -7.031)"/><path class="cls-5" d="M52.819,298.5c1.635,0,2.558,1.174,2.558,3.006a3.822,3.822,0,0,1-.04.594H51.013a2.132,2.132,0,0,0,2.136,2.254,2.891,2.891,0,0,0,1.6-.5l.382.712a3.819,3.819,0,0,1-2.109.659,3.389,3.389,0,0,1-.2-6.724Zm1.608,2.887c0-1.3-.58-2.029-1.582-2.029A2,2,0,0,0,51,301.391Z" transform="translate(-9.887 -7.031)"/><path class="cls-5" d="M56.787,303.619a2.882,2.882,0,0,0,1.885.765c.844,0,1.266-.448,1.266-1,0-.659-.765-.949-1.463-1.213-.91-.329-1.912-.765-1.912-1.846,0-1.028.817-1.819,2.2-1.819a3.2,3.2,0,0,1,1.991.725l-.514.686a2.382,2.382,0,0,0-1.463-.566c-.8,0-1.173.436-1.173.923,0,.606.7.831,1.424,1.107.923.343,1.951.726,1.951,1.938,0,1.041-.831,1.911-2.347,1.911a3.851,3.851,0,0,1-2.386-.884Z" transform="translate(-9.887 -7.031)"/><path class="cls-5" d="M62.666,299.545h-.949v-.816l1-.066.132-1.793h.91v1.793h1.727v.883H63.76v3.561c0,.791.25,1.238.989,1.238a2.327,2.327,0,0,0,.725-.171l.211.817a3.94,3.94,0,0,1-1.187.237c-1.371,0-1.833-.87-1.833-2.136Z" transform="translate(-9.887 -7.031)"/><path class="cls-5" d="M70.326,301.009c0-.817-.277-1.608-1.318-1.608a3.446,3.446,0,0,0-1.912.686l-.435-.752a4.76,4.76,0,0,1,2.518-.83c1.569,0,2.228,1.041,2.228,2.637v3.929h-.9l-.092-.765h-.026a3.482,3.482,0,0,1-2.123.923,1.748,1.748,0,0,1-1.885-1.819C66.384,302.011,67.6,301.313,70.326,301.009Zm-1.753,3.349a2.621,2.621,0,0,0,1.753-.857v-1.779c-2.149.264-2.874.791-2.874,1.608A.982.982,0,0,0,68.572,304.357Z" transform="translate(-9.887 -7.031)"/><path class="cls-5" d="M73.634,299.545h-.949v-.816l1-.066.132-1.793h.91v1.793h1.727v.883H74.729v3.561c0,.791.25,1.238.989,1.238a2.327,2.327,0,0,0,.725-.171l.211.817a3.94,3.94,0,0,1-1.187.237c-1.371,0-1.833-.87-1.833-2.136Z" transform="translate(-9.887 -7.031)"/><path class="cls-5" d="M80.186,298.5c1.635,0,2.558,1.174,2.558,3.006a3.822,3.822,0,0,1-.04.594H78.38a2.132,2.132,0,0,0,2.136,2.254,2.891,2.891,0,0,0,1.6-.5l.382.712a3.819,3.819,0,0,1-2.109.659,3.389,3.389,0,0,1-.2-6.724Zm1.608,2.887c0-1.3-.58-2.029-1.582-2.029a2,2,0,0,0-1.846,2.029Z" transform="translate(-9.887 -7.031)"/><path class="cls-5" d="M87.172,299.545h-.949v-.816l1-.066.132-1.793h.91v1.793h1.727v.883H88.267v3.561c0,.791.25,1.238.989,1.238a2.327,2.327,0,0,0,.725-.171l.211.817a3.94,3.94,0,0,1-1.187.237c-1.371,0-1.833-.87-1.833-2.136Z" transform="translate(-9.887 -7.031)"/><path class="cls-5" d="M94.832,301.009c0-.817-.277-1.608-1.318-1.608a3.446,3.446,0,0,0-1.912.686l-.435-.752a4.76,4.76,0,0,1,2.518-.83c1.569,0,2.228,1.041,2.228,2.637v3.929h-.9l-.092-.765H94.9a3.482,3.482,0,0,1-2.123.923,1.748,1.748,0,0,1-1.885-1.819C90.89,302.011,92.1,301.313,94.832,301.009Zm-1.753,3.349a2.621,2.621,0,0,0,1.753-.857v-1.779c-2.149.264-2.874.791-2.874,1.608A.982.982,0,0,0,93.078,304.357Z" transform="translate(-9.887 -7.031)"/><path class="cls-5" d="M99.155,301.721l-1.938-3.059h1.173l.857,1.41c.2.344.409.713.633,1.068h.053c.185-.355.382-.725.58-1.068l.778-1.41h1.134l-1.938,3.178,2.083,3.229H101.4l-.936-1.489c-.224-.383-.461-.778-.7-1.147h-.053c-.224.369-.435.751-.646,1.147l-.87,1.489H97.059Z" transform="translate(-9.887 -7.031)"/><path class="cls-5" d="M106.011,298.5c1.635,0,2.558,1.174,2.558,3.006a3.822,3.822,0,0,1-.04.594H104.2a2.132,2.132,0,0,0,2.136,2.254,2.891,2.891,0,0,0,1.6-.5l.382.712a3.819,3.819,0,0,1-2.109.659,3.389,3.389,0,0,1-.2-6.724Zm1.608,2.887c0-1.3-.58-2.029-1.582-2.029a2,2,0,0,0-1.846,2.029Z" transform="translate(-9.887 -7.031)"/><path class="cls-5" d="M109.978,303.619a2.882,2.882,0,0,0,1.885.765c.844,0,1.266-.448,1.266-1,0-.659-.765-.949-1.463-1.213-.91-.329-1.912-.765-1.912-1.846,0-1.028.817-1.819,2.2-1.819a3.2,3.2,0,0,1,1.991.725l-.514.686a2.382,2.382,0,0,0-1.463-.566c-.8,0-1.173.436-1.173.923,0,.606.7.831,1.424,1.107.923.343,1.951.726,1.951,1.938,0,1.041-.831,1.911-2.347,1.911a3.851,3.851,0,0,1-2.386-.884Z" transform="translate(-9.887 -7.031)"/><path class="cls-5" d="M118.244,298.662h1.094v3.916c0,1.2.356,1.713,1.2,1.713.659,0,1.121-.329,1.727-1.08v-4.549h1.081v6.407h-.9l-.092-1h-.04a2.71,2.71,0,0,1-2.109,1.16c-1.358,0-1.964-.87-1.964-2.5Z" transform="translate(-9.887 -7.031)"/><path class="cls-5" d="M126.588,305.609v2.162h-1.081v-9.109h.9l.092.738h.04a3.313,3.313,0,0,1,2.043-.9c1.648,0,2.531,1.279,2.531,3.27,0,2.176-1.305,3.454-2.769,3.454a2.968,2.968,0,0,1-1.78-.738Zm1.569-1.291c1.055,0,1.833-.963,1.833-2.545,0-1.41-.475-2.359-1.687-2.359a2.7,2.7,0,0,0-1.714.869v3.362A2.54,2.54,0,0,0,128.157,304.318Z" transform="translate(-9.887 -7.031)"/><path class="cls-5" d="M135.315,298.5a3.388,3.388,0,1,1-2.966,3.375A3.062,3.062,0,0,1,135.315,298.5Zm0,5.827c1.107,0,1.846-.989,1.846-2.452s-.738-2.479-1.846-2.479-1.846,1-1.846,2.479S134.221,304.331,135.315,304.331Z" transform="translate(-9.887 -7.031)"/><path class="cls-5" d="M139.968,298.662h.9l.092.923H141a3.02,3.02,0,0,1,2.149-1.081c1.345,0,1.951.87,1.951,2.5v4.061h-1.081v-3.915c0-1.2-.369-1.715-1.213-1.715-.659,0-1.107.344-1.753.989v4.641h-1.081Z" transform="translate(-9.887 -7.031)"/><path class="cls-5" d="M152.729,296.566a1.8,1.8,0,0,0-.725-.158c-.606,0-.9.422-.9,1.238v1.016h1.358v.883h-1.358v5.524h-1.081v-5.524h-.87v-.816l.87-.066v-1.016c0-1.3.593-2.122,1.872-2.122a2.913,2.913,0,0,1,1.068.211Z" transform="translate(-9.887 -7.031)"/><path class="cls-5" d="M153.494,296.645a.753.753,0,0,1,1.5,0,.753.753,0,0,1-1.5,0Zm.2,2.018h1.081v6.407h-1.081Z" transform="translate(-9.887 -7.031)"/><path class="cls-5" d="M156.934,298.662h.9l.092,1.16h.04a2.191,2.191,0,0,1,1.819-1.318,1.584,1.584,0,0,1,.686.132l-.211.949a1.8,1.8,0,0,0-.62-.105c-.541,0-1.187.4-1.622,1.477v4.113h-1.081Z" transform="translate(-9.887 -7.031)"/><path class="cls-5" d="M161.205,303.619a2.882,2.882,0,0,0,1.885.765c.844,0,1.266-.448,1.266-1,0-.659-.765-.949-1.463-1.213-.91-.329-1.912-.765-1.912-1.846,0-1.028.817-1.819,2.2-1.819a3.2,3.2,0,0,1,1.991.725l-.514.686a2.382,2.382,0,0,0-1.463-.566c-.8,0-1.173.436-1.173.923,0,.606.7.831,1.424,1.107.923.343,1.951.726,1.951,1.938,0,1.041-.831,1.911-2.347,1.911a3.851,3.851,0,0,1-2.386-.884Z" transform="translate(-9.887 -7.031)"/><path class="cls-5" d="M167.085,299.545h-.949v-.816l1-.066.132-1.793h.91v1.793h1.727v.883h-1.727v3.561c0,.791.25,1.238.989,1.238a2.327,2.327,0,0,0,.725-.171l.211.817a3.94,3.94,0,0,1-1.187.237c-1.371,0-1.833-.87-1.833-2.136Z" transform="translate(-9.887 -7.031)"/><path class="cls-5" d="M35.722,314.322a2.642,2.642,0,0,1,1.793.738l-.053-1.094V311.5h1.094v9.387h-.9l-.092-.751h-.04a2.892,2.892,0,0,1-1.938.909c-1.608,0-2.65-1.213-2.65-3.349C32.94,315.614,34.258,314.322,35.722,314.322Zm.105,5.814a2.171,2.171,0,0,0,1.635-.884V315.9a2.227,2.227,0,0,0-1.556-.672c-1.028,0-1.846.988-1.846,2.451C34.061,319.213,34.707,320.137,35.827,320.137Z" transform="translate(-9.887 -7.031)"/><path class="cls-5" d="M43.117,314.322c1.635,0,2.558,1.174,2.558,3.006a3.822,3.822,0,0,1-.04.594H41.311a2.132,2.132,0,0,0,2.136,2.254,2.891,2.891,0,0,0,1.6-.5l.382.712a3.819,3.819,0,0,1-2.109.659,3.389,3.389,0,0,1-.2-6.724Zm1.608,2.887c0-1.3-.58-2.029-1.582-2.029a2,2,0,0,0-1.846,2.029Z" transform="translate(-9.887 -7.031)"/><path class="cls-5" d="M50.71,316.827c0-.817-.277-1.608-1.318-1.608a3.446,3.446,0,0,0-1.912.686l-.435-.752a4.76,4.76,0,0,1,2.518-.83c1.569,0,2.228,1.041,2.228,2.637v3.929h-.9l-.092-.765h-.026a3.482,3.482,0,0,1-2.123.923,1.748,1.748,0,0,1-1.885-1.819C46.768,317.829,47.981,317.131,50.71,316.827Zm-1.753,3.349a2.621,2.621,0,0,0,1.753-.857v-1.779c-2.149.264-2.874.791-2.874,1.608A.982.982,0,0,0,48.957,320.176Z" transform="translate(-9.887 -7.031)"/><path class="cls-5" d="M54.019,315.363h-.949v-.816l1-.066.132-1.793h.91v1.793H56.84v.883H55.113v3.561c0,.791.25,1.238.989,1.238a2.327,2.327,0,0,0,.725-.171l.211.817a3.94,3.94,0,0,1-1.187.237c-1.371,0-1.833-.87-1.833-2.136Z" transform="translate(-9.887 -7.031)"/><path class="cls-5" d="M58.29,311.5h1.081v2.558l-.04,1.318a3.063,3.063,0,0,1,2.136-1.055c1.345,0,1.951.87,1.951,2.5v4.061H62.337v-3.915c0-1.2-.369-1.715-1.213-1.715-.659,0-1.107.344-1.753.989v4.641H58.29Z" transform="translate(-9.887 -7.031)"/><path class="cls-5" d="M285.823,175.048a1.48,1.48,0,1,1,1.477,1.582A1.512,1.512,0,0,1,285.823,175.048Z" transform="translate(-9.887 -7.031)"/><path class="cls-5" d="M295.842,176.63a3.387,3.387,0,0,0,2.386,1.081c1.135,0,1.807-.567,1.807-1.411,0-.883-.619-1.16-1.437-1.529l-1.239-.541A2.43,2.43,0,0,1,295.6,172a2.457,2.457,0,0,1,2.716-2.294,3.588,3.588,0,0,1,2.558,1.068l-.594.712a2.758,2.758,0,0,0-1.964-.817c-.962,0-1.608.488-1.608,1.266,0,.831.751,1.147,1.437,1.437l1.226.527a2.408,2.408,0,0,1,1.78,2.307c0,1.371-1.121,2.465-2.94,2.465a4.194,4.194,0,0,1-3.032-1.279Z" transform="translate(-9.887 -7.031)"/><path class="cls-5" d="M303.83,179.056v2.162h-1.081v-9.11h.9l.092.738h.04a3.316,3.316,0,0,1,2.044-.9c1.647,0,2.531,1.279,2.531,3.27,0,2.175-1.306,3.454-2.77,3.454a2.972,2.972,0,0,1-1.779-.738Zm1.569-1.292c1.055,0,1.832-.962,1.832-2.544,0-1.411-.475-2.36-1.687-2.36a2.7,2.7,0,0,0-1.714.87v3.362A2.537,2.537,0,0,0,305.4,177.764Z" transform="translate(-9.887 -7.031)"/><path class="cls-5" d="M312.558,171.95a3.388,3.388,0,1,1-2.967,3.375A3.062,3.062,0,0,1,312.558,171.95Zm0,5.827c1.107,0,1.846-.989,1.846-2.452s-.738-2.479-1.846-2.479-1.846,1-1.846,2.479S311.463,177.777,312.558,177.777Z" transform="translate(-9.887 -7.031)"/><path class="cls-5" d="M317.118,172.108h1.095v3.916c0,1.2.356,1.714,1.2,1.714.658,0,1.12-.33,1.727-1.081v-4.548h1.081v6.407h-.9l-.093-1h-.039a2.71,2.71,0,0,1-2.109,1.16c-1.357,0-1.965-.87-1.965-2.5Z" transform="translate(-9.887 -7.031)"/><path class="cls-5" d="M324.21,177.065a2.885,2.885,0,0,0,1.886.765c.844,0,1.266-.448,1.266-1,0-.659-.765-.949-1.464-1.213-.909-.33-1.911-.765-1.911-1.846,0-1.028.817-1.819,2.2-1.819a3.2,3.2,0,0,1,1.99.725l-.514.686a2.381,2.381,0,0,0-1.464-.567c-.8,0-1.173.435-1.173.923,0,.606.7.831,1.424,1.107.922.343,1.951.725,1.951,1.938,0,1.042-.831,1.912-2.348,1.912a3.856,3.856,0,0,1-2.386-.883Z" transform="translate(-9.887 -7.031)"/><path class="cls-5" d="M332.3,171.95c1.635,0,2.558,1.173,2.558,3.006a3.951,3.951,0,0,1-.039.593H330.5a2.131,2.131,0,0,0,2.135,2.254,2.894,2.894,0,0,0,1.6-.5l.383.712a3.821,3.821,0,0,1-2.109.659,3.389,3.389,0,0,1-.2-6.724Zm1.608,2.887c0-1.305-.58-2.03-1.582-2.03a2,2,0,0,0-1.846,2.03Z" transform="translate(-9.887 -7.031)"/><path class="cls-5" d="M339.542,175.826h-1.055v-.751h1.146l.237-1.951h-1.12v-.765h1.213l.3-2.413h.7l-.3,2.413h1.753l.316-2.413h.7l-.316,2.413h1.068v.765h-1.147l-.237,1.951h1.121v.751h-1.213l-.33,2.689h-.7l.316-2.689h-1.74l-.329,2.689h-.712Zm2.544-.751.237-1.951h-1.74l-.237,1.951Z" transform="translate(-9.887 -7.031)"/><path class="cls-5" d="M345.1,177.87c2.531-2.518,3.955-4.034,3.955-5.392a1.49,1.49,0,0,0-1.6-1.648,2.48,2.48,0,0,0-1.793,1.015l-.619-.62a3.3,3.3,0,0,1,2.545-1.279,2.336,2.336,0,0,1,2.518,2.479c0,1.582-1.437,3.151-3.428,5.234.461-.04.976-.079,1.41-.079h2.439v.936H345.1Z" transform="translate(-9.887 -7.031)"/><path class="cls-5" d="M354.873,172.108h.9l.093,1.16h.039a2.192,2.192,0,0,1,1.819-1.318,1.593,1.593,0,0,1,.686.132l-.211.949a1.8,1.8,0,0,0-.62-.105c-.54,0-1.186.4-1.621,1.477v4.113h-1.081Z" transform="translate(-9.887 -7.031)"/><path class="cls-5" d="M361.715,171.95c1.635,0,2.558,1.173,2.558,3.006a3.951,3.951,0,0,1-.039.593h-4.324a2.131,2.131,0,0,0,2.135,2.254,2.894,2.894,0,0,0,1.6-.5l.383.712a3.821,3.821,0,0,1-2.109.659,3.389,3.389,0,0,1-.2-6.724Zm1.608,2.887c0-1.305-.58-2.03-1.582-2.03a2,2,0,0,0-1.846,2.03Z" transform="translate(-9.887 -7.031)"/><path class="cls-5" d="M368.464,171.95a2.641,2.641,0,0,1,1.872.765l-.54.7a1.939,1.939,0,0,0-1.293-.567c-1.16,0-2,1-2,2.479s.8,2.452,1.979,2.452a2.283,2.283,0,0,0,1.5-.646l.488.712a3.173,3.173,0,0,1-2.083.831c-1.7,0-3.006-1.226-3.006-3.349A3.1,3.1,0,0,1,368.464,171.95Z" transform="translate(-9.887 -7.031)"/><path class="cls-5" d="M374,171.95c1.635,0,2.558,1.173,2.558,3.006a3.7,3.7,0,0,1-.04.593h-4.324a2.133,2.133,0,0,0,2.137,2.254,2.9,2.9,0,0,0,1.595-.5l.382.712a3.81,3.81,0,0,1-2.109.659,3.389,3.389,0,0,1-.2-6.724Zm1.608,2.887c0-1.305-.58-2.03-1.582-2.03a2,2,0,0,0-1.846,2.03Z" transform="translate(-9.887 -7.031)"/><path class="cls-5" d="M377.942,170.091a.753.753,0,0,1,1.5,0,.753.753,0,0,1-1.5,0Zm.2,2.017h1.081v6.407H378.14Z" transform="translate(-9.887 -7.031)"/><path class="cls-5" d="M380.46,172.108h1.121l1.213,3.639c.184.633.395,1.279.593,1.885h.053c.185-.606.4-1.252.58-1.885l1.213-3.639H386.3l-2.268,6.407h-1.266Z" transform="translate(-9.887 -7.031)"/><path class="cls-5" d="M389.886,171.95c1.635,0,2.558,1.173,2.558,3.006a3.7,3.7,0,0,1-.04.593h-4.324a2.133,2.133,0,0,0,2.137,2.254,2.9,2.9,0,0,0,1.595-.5l.382.712a3.81,3.81,0,0,1-2.109.659,3.389,3.389,0,0,1-.2-6.724Zm1.608,2.887c0-1.305-.58-2.03-1.582-2.03a2,2,0,0,0-1.846,2.03Z" transform="translate(-9.887 -7.031)"/><path class="cls-5" d="M393.853,177.065a2.885,2.885,0,0,0,1.886.765c.844,0,1.266-.448,1.266-1,0-.659-.765-.949-1.464-1.213-.909-.33-1.911-.765-1.911-1.846,0-1.028.817-1.819,2.2-1.819a3.2,3.2,0,0,1,1.99.725l-.514.686a2.381,2.381,0,0,0-1.464-.567c-.8,0-1.173.435-1.173.923,0,.606.7.831,1.424,1.107.922.343,1.951.725,1.951,1.938,0,1.042-.831,1.912-2.348,1.912a3.856,3.856,0,0,1-2.386-.883Z" transform="translate(-9.887 -7.031)"/><path class="cls-5" d="M296.831,185.911a.753.753,0,0,1,1.5,0,.753.753,0,0,1-1.5,0Zm.2,2.017h1.081v6.407h-1.081Z" transform="translate(-9.887 -7.031)"/><path class="cls-5" d="M300.272,187.928h.9l.093.923h.039a3.02,3.02,0,0,1,2.148-1.081c1.346,0,1.951.87,1.951,2.5v4.061h-1.08v-3.916c0-1.2-.369-1.714-1.213-1.714-.66,0-1.107.343-1.754.989v4.641h-1.081Z" transform="translate(-9.887 -7.031)"/><path class="cls-5" d="M310.093,187.77a2.641,2.641,0,0,1,1.872.765l-.54.7a1.939,1.939,0,0,0-1.293-.567c-1.16,0-2,1-2,2.479s.8,2.452,1.979,2.452a2.283,2.283,0,0,0,1.5-.646l.488.712a3.173,3.173,0,0,1-2.083.831c-1.7,0-3.006-1.226-3.006-3.349A3.1,3.1,0,0,1,310.093,187.77Z" transform="translate(-9.887 -7.031)"/><path class="cls-5" d="M315.708,187.77a3.388,3.388,0,1,1-2.966,3.375A3.062,3.062,0,0,1,315.708,187.77Zm0,5.827c1.107,0,1.846-.989,1.846-2.452s-.738-2.479-1.846-2.479-1.846,1-1.846,2.479S314.614,193.6,315.708,193.6Z" transform="translate(-9.887 -7.031)"/><path class="cls-5" d="M320.361,187.928h.9l.093.923h.039a2.816,2.816,0,0,1,1.99-1.081A1.682,1.682,0,0,1,325.148,189a3.025,3.025,0,0,1,2.109-1.226c1.318,0,1.951.87,1.951,2.5v4.061h-1.082v-3.916c0-1.2-.382-1.714-1.186-1.714a2.352,2.352,0,0,0-1.609.989v4.641h-1.08v-3.916c0-1.2-.383-1.714-1.2-1.714a2.4,2.4,0,0,0-1.608.989v4.641h-1.081Z" transform="translate(-9.887 -7.031)"/><path class="cls-5" d="M333.69,187.77c1.635,0,2.558,1.173,2.558,3.006a3.951,3.951,0,0,1-.039.593h-4.324a2.131,2.131,0,0,0,2.135,2.254,2.894,2.894,0,0,0,1.6-.5l.383.712a3.821,3.821,0,0,1-2.109.659,3.389,3.389,0,0,1-.2-6.724Zm1.608,2.887c0-1.305-.58-2.03-1.582-2.03a2,2,0,0,0-1.846,2.03Z" transform="translate(-9.887 -7.031)"/><path class="cls-5" d="M285.823,222.506a1.48,1.48,0,1,1,1.477,1.582A1.512,1.512,0,0,1,285.823,222.506Z" transform="translate(-9.887 -7.031)"/><path class="cls-5" d="M295.842,224.088a3.387,3.387,0,0,0,2.386,1.081c1.135,0,1.807-.567,1.807-1.411,0-.883-.619-1.16-1.437-1.529l-1.239-.541a2.43,2.43,0,0,1-1.753-2.228,2.457,2.457,0,0,1,2.716-2.294,3.588,3.588,0,0,1,2.558,1.068l-.594.712a2.758,2.758,0,0,0-1.964-.817c-.962,0-1.608.488-1.608,1.266,0,.831.751,1.147,1.437,1.437l1.226.527a2.408,2.408,0,0,1,1.78,2.307c0,1.371-1.121,2.465-2.94,2.465a4.194,4.194,0,0,1-3.032-1.279Z" transform="translate(-9.887 -7.031)"/><path class="cls-5" d="M303.83,226.514v2.162h-1.081v-9.11h.9l.092.738h.04a3.316,3.316,0,0,1,2.044-.9c1.647,0,2.531,1.279,2.531,3.27,0,2.175-1.306,3.454-2.77,3.454a2.972,2.972,0,0,1-1.779-.738Zm1.569-1.292c1.055,0,1.832-.962,1.832-2.544,0-1.411-.475-2.36-1.687-2.36a2.7,2.7,0,0,0-1.714.87v3.362A2.537,2.537,0,0,0,305.4,225.222Z" transform="translate(-9.887 -7.031)"/><path class="cls-5" d="M312.558,219.408a3.388,3.388,0,1,1-2.967,3.375A3.062,3.062,0,0,1,312.558,219.408Zm0,5.827c1.107,0,1.846-.989,1.846-2.452s-.738-2.479-1.846-2.479-1.846,1-1.846,2.479S311.463,225.235,312.558,225.235Z" transform="translate(-9.887 -7.031)"/><path class="cls-5" d="M317.118,219.566h1.095v3.916c0,1.2.356,1.714,1.2,1.714.658,0,1.12-.33,1.727-1.081v-4.548h1.081v6.407h-.9l-.093-1h-.039a2.71,2.71,0,0,1-2.109,1.16c-1.357,0-1.965-.87-1.965-2.5Z" transform="translate(-9.887 -7.031)"/><path class="cls-5" d="M324.21,224.523a2.885,2.885,0,0,0,1.886.765c.844,0,1.266-.448,1.266-1,0-.659-.765-.949-1.464-1.213-.909-.33-1.911-.765-1.911-1.846,0-1.028.817-1.819,2.2-1.819a3.2,3.2,0,0,1,1.99.725l-.514.686a2.381,2.381,0,0,0-1.464-.567c-.8,0-1.173.435-1.173.923,0,.606.7.831,1.424,1.107.922.343,1.951.725,1.951,1.938,0,1.042-.831,1.912-2.348,1.912a3.856,3.856,0,0,1-2.386-.883Z" transform="translate(-9.887 -7.031)"/><path class="cls-5" d="M332.3,219.408c1.635,0,2.558,1.173,2.558,3.006a3.951,3.951,0,0,1-.039.593H330.5a2.131,2.131,0,0,0,2.135,2.254,2.894,2.894,0,0,0,1.6-.5l.383.712a3.821,3.821,0,0,1-2.109.659,3.389,3.389,0,0,1-.2-6.724Zm1.608,2.887c0-1.305-.58-2.03-1.582-2.03a2,2,0,0,0-1.846,2.03Z" transform="translate(-9.887 -7.031)"/><path class="cls-5" d="M339.542,223.284h-1.055v-.751h1.146l.237-1.951h-1.12v-.765h1.213l.3-2.413h.7l-.3,2.413h1.753l.316-2.413h.7l-.316,2.413h1.068v.765h-1.147l-.237,1.951h1.121v.751h-1.213l-.33,2.689h-.7l.316-2.689h-1.74l-.329,2.689h-.712Zm2.544-.751.237-1.951h-1.74l-.237,1.951Z" transform="translate(-9.887 -7.031)"/><path class="cls-5" d="M345.1,225.328c2.531-2.518,3.955-4.034,3.955-5.392a1.49,1.49,0,0,0-1.6-1.648,2.48,2.48,0,0,0-1.793,1.015l-.619-.62A3.3,3.3,0,0,1,347.6,217.4a2.336,2.336,0,0,1,2.518,2.479c0,1.582-1.437,3.151-3.428,5.234.461-.04.976-.079,1.41-.079h2.439v.936H345.1Z" transform="translate(-9.887 -7.031)"/><path class="cls-5" d="M354.873,216.587h1.081v2.558l-.039,1.318a3.06,3.06,0,0,1,2.135-1.055c1.346,0,1.951.87,1.951,2.5v4.061h-1.08v-3.916c0-1.2-.369-1.714-1.213-1.714-.66,0-1.107.343-1.754.989v4.641h-1.081Z" transform="translate(-9.887 -7.031)"/><path class="cls-5" d="M365.669,221.913c0-.817-.276-1.608-1.318-1.608a3.446,3.446,0,0,0-1.911.686l-.435-.751a4.752,4.752,0,0,1,2.518-.831c1.568,0,2.229,1.042,2.229,2.637v3.929h-.9l-.093-.765h-.026a3.482,3.482,0,0,1-2.123.923,1.747,1.747,0,0,1-1.885-1.819C361.728,222.915,362.94,222.216,365.669,221.913Zm-1.753,3.349a2.622,2.622,0,0,0,1.753-.857v-1.78c-2.148.264-2.873.791-2.873,1.608A.981.981,0,0,0,363.916,225.262Z" transform="translate(-9.887 -7.031)"/><path class="cls-5" d="M368.622,224.523a2.885,2.885,0,0,0,1.886.765c.844,0,1.266-.448,1.266-1,0-.659-.765-.949-1.464-1.213-.909-.33-1.911-.765-1.911-1.846,0-1.028.817-1.819,2.2-1.819a3.2,3.2,0,0,1,1.99.725l-.514.686a2.381,2.381,0,0,0-1.464-.567c-.8,0-1.173.435-1.173.923,0,.606.7.831,1.424,1.107.922.343,1.951.725,1.951,1.938,0,1.042-.831,1.912-2.348,1.912a3.856,3.856,0,0,1-2.386-.883Z" transform="translate(-9.887 -7.031)"/><path class="cls-5" d="M380.565,217.167a3.315,3.315,0,0,1,2.479,1.068l-.619.7a2.365,2.365,0,0,0-1.846-.8c-1.74,0-2.861,1.345-2.861,3.494,0,2.175,1.028,3.546,2.874,3.546a2.37,2.37,0,0,0,1.556-.514V222.4h-1.832v-.91h2.834v3.639a3.734,3.734,0,0,1-2.676,1c-2.268,0-3.89-1.661-3.89-4.482C376.584,218.868,378.259,217.167,380.565,217.167Z" transform="translate(-9.887 -7.031)"/><path class="cls-5" d="M387.513,219.408c1.635,0,2.558,1.173,2.558,3.006a3.7,3.7,0,0,1-.04.593h-4.324a2.133,2.133,0,0,0,2.137,2.254,2.9,2.9,0,0,0,1.595-.5l.382.712a3.81,3.81,0,0,1-2.109.659,3.389,3.389,0,0,1-.2-6.724Zm1.608,2.887c0-1.305-.58-2.03-1.582-2.03a2,2,0,0,0-1.846,2.03Z" transform="translate(-9.887 -7.031)"/><path class="cls-5" d="M391.652,219.566h.9l.093.923h.039a3.02,3.02,0,0,1,2.148-1.081c1.346,0,1.951.87,1.951,2.5v4.061H395.7v-3.916c0-1.2-.369-1.714-1.213-1.714-.66,0-1.107.343-1.754.989v4.641h-1.081Z" transform="translate(-9.887 -7.031)"/><path class="cls-5" d="M401.263,219.408c1.635,0,2.558,1.173,2.558,3.006a3.7,3.7,0,0,1-.04.593h-4.324a2.133,2.133,0,0,0,2.137,2.254,2.9,2.9,0,0,0,1.595-.5l.382.712a3.81,3.81,0,0,1-2.109.659,3.389,3.389,0,0,1-.2-6.724Zm1.608,2.887c0-1.305-.58-2.03-1.582-2.03a2,2,0,0,0-1.846,2.03Z" transform="translate(-9.887 -7.031)"/><path class="cls-5" d="M405.4,219.566h.9l.092,1.16h.04a2.192,2.192,0,0,1,1.819-1.318,1.59,1.59,0,0,1,.686.132l-.211.949a1.79,1.79,0,0,0-.619-.105c-.541,0-1.187.4-1.622,1.477v4.113H405.4Z" transform="translate(-9.887 -7.031)"/><path class="cls-5" d="M413.271,221.913c0-.817-.276-1.608-1.318-1.608a3.446,3.446,0,0,0-1.911.686l-.435-.751a4.752,4.752,0,0,1,2.518-.831c1.568,0,2.229,1.042,2.229,2.637v3.929h-.9l-.093-.765h-.026a3.482,3.482,0,0,1-2.123.923,1.747,1.747,0,0,1-1.885-1.819C409.329,222.915,410.542,222.216,413.271,221.913Zm-1.753,3.349a2.622,2.622,0,0,0,1.753-.857v-1.78c-2.148.264-2.873.791-2.873,1.608A.981.981,0,0,0,411.518,225.262Z" transform="translate(-9.887 -7.031)"/><path class="cls-5" d="M416.4,216.587h1.081v8.174c0,.343.146.475.3.475a.9.9,0,0,0,.236-.026l.146.817a1.456,1.456,0,0,1-.62.105c-.816,0-1.146-.514-1.146-1.45Z" transform="translate(-9.887 -7.031)"/><path class="cls-5" d="M297.134,233.144h2.65c1.911,0,3.189.646,3.189,2.544,0,1.82-1.291,2.677-3.189,2.677h-1.557v3.428h-1.094Zm2.518,4.324c1.5,0,2.229-.554,2.229-1.78,0-1.252-.738-1.66-2.229-1.66h-1.424v3.44Z" transform="translate(-9.887 -7.031)"/><path class="cls-5" d="M304.226,237.428c0-2.768,1.516-4.442,3.691-4.442s3.705,1.688,3.705,4.442c0,2.782-1.529,4.522-3.705,4.522S304.226,240.21,304.226,237.428Zm6.249,0c0-2.148-1.015-3.48-2.558-3.48s-2.558,1.332-2.558,3.48,1.015,3.561,2.558,3.561S310.475,239.59,310.475,237.428Z" transform="translate(-9.887 -7.031)"/><path class="cls-5" d="M317.316,239.155h-3.151l-.83,2.637h-1.121l2.928-8.648h1.238l2.928,8.648h-1.174Zm-.276-.884-.409-1.318c-.316-.962-.593-1.911-.87-2.913h-.053c-.264,1-.541,1.951-.857,2.913l-.408,1.318Z" transform="translate(-9.887 -7.031)"/><path class="cls-5" d="M285.823,269.965a1.48,1.48,0,1,1,1.477,1.582A1.513,1.513,0,0,1,285.823,269.965Z" transform="translate(-9.887 -7.031)"/><path class="cls-5" d="M302.9,275.4a3.988,3.988,0,0,1-1.24.2,3.3,3.3,0,0,1-3.189-2.043c-1.886-.264-3.151-1.938-3.151-4.482,0-2.77,1.516-4.443,3.691-4.443s3.7,1.688,3.7,4.443c0,2.491-1.226,4.152-3.059,4.469a2.252,2.252,0,0,0,2.123,1.134,3.239,3.239,0,0,0,.91-.132Zm-3.89-2.717c1.542,0,2.558-1.4,2.558-3.611,0-2.149-1.016-3.48-2.558-3.48s-2.558,1.331-2.558,3.48C296.448,271.283,297.463,272.68,299.006,272.68Z" transform="translate(-9.887 -7.031)"/><path class="cls-5" d="M304.37,267.024h1.095v3.915c0,1.2.356,1.715,1.2,1.715.658,0,1.12-.33,1.727-1.082v-4.548h1.081v6.407h-.9l-.093-1h-.039a2.708,2.708,0,0,1-2.109,1.16c-1.357,0-1.965-.87-1.965-2.5Z" transform="translate(-9.887 -7.031)"/><path class="cls-5" d="M315.261,269.371c0-.817-.277-1.608-1.318-1.608a3.446,3.446,0,0,0-1.912.686l-.436-.751a4.755,4.755,0,0,1,2.519-.831c1.569,0,2.228,1.042,2.228,2.637v3.929h-.9l-.092-.765h-.026a3.482,3.482,0,0,1-2.122.923,1.747,1.747,0,0,1-1.886-1.819C311.318,270.373,312.531,269.674,315.261,269.371Zm-1.754,3.349a2.631,2.631,0,0,0,1.754-.856v-1.78c-2.149.264-2.875.791-2.875,1.608A.982.982,0,0,0,313.507,272.72Z" transform="translate(-9.887 -7.031)"/><path class="cls-5" d="M318.384,264.045h1.081v8.174c0,.343.146.475.3.475a.9.9,0,0,0,.236-.026l.146.817a1.449,1.449,0,0,1-.62.105c-.816,0-1.146-.514-1.146-1.45Z" transform="translate(-9.887 -7.031)"/><path class="cls-5" d="M321.548,265.008a.753.753,0,0,1,1.5,0,.753.753,0,0,1-1.5,0Zm.2,2.017h1.081v6.407h-1.081Z" transform="translate(-9.887 -7.031)"/><path class="cls-5" d="M327.876,264.928a1.806,1.806,0,0,0-.726-.158c-.606,0-.9.422-.9,1.24v1.015h1.358v.884h-1.358v5.523h-1.081v-5.523h-.87v-.818l.87-.065V266.01c0-1.306.594-2.123,1.872-2.123a2.886,2.886,0,0,1,1.067.211Z" transform="translate(-9.887 -7.031)"/><path class="cls-5" d="M328.64,265.008a.753.753,0,0,1,1.5,0,.753.753,0,0,1-1.5,0Zm.2,2.017h1.081v6.407h-1.081Z" transform="translate(-9.887 -7.031)"/><path class="cls-5" d="M334.48,266.866c1.635,0,2.558,1.173,2.558,3.006a3.7,3.7,0,0,1-.04.593h-4.324a2.134,2.134,0,0,0,2.137,2.255,2.9,2.9,0,0,0,1.595-.5l.382.712a3.806,3.806,0,0,1-2.109.659,3.389,3.389,0,0,1-.2-6.724Zm1.608,2.888c0-1.306-.58-2.031-1.582-2.031a2,2,0,0,0-1.846,2.031Z" transform="translate(-9.887 -7.031)"/><path class="cls-5" d="M338.446,271.981a2.885,2.885,0,0,0,1.886.765c.844,0,1.266-.448,1.266-1,0-.659-.765-.949-1.464-1.213-.909-.33-1.911-.765-1.911-1.846,0-1.028.817-1.819,2.2-1.819a3.193,3.193,0,0,1,1.99.726l-.514.686a2.378,2.378,0,0,0-1.464-.567c-.8,0-1.173.435-1.173.923,0,.606.7.83,1.424,1.107.922.343,1.951.725,1.951,1.938,0,1.042-.831,1.912-2.348,1.912a3.862,3.862,0,0,1-2.386-.883Z" transform="translate(-9.887 -7.031)"/><path class="cls-5" d="M349.692,264.928a1.806,1.806,0,0,0-.726-.158c-.606,0-.9.422-.9,1.24v1.015h1.358v.884H348.07v5.523h-1.081v-5.523h-.87v-.818l.87-.065V266.01c0-1.306.594-2.123,1.872-2.123a2.886,2.886,0,0,1,1.067.211Z" transform="translate(-9.887 -7.031)"/><path class="cls-5" d="M353.015,266.866a3.388,3.388,0,1,1-2.967,3.375A3.061,3.061,0,0,1,353.015,266.866Zm0,5.827c1.107,0,1.846-.988,1.846-2.452s-.738-2.479-1.846-2.479-1.846,1-1.846,2.479S351.92,272.693,353.015,272.693Z" transform="translate(-9.887 -7.031)"/><path class="cls-5" d="M357.667,267.024h.9l.092,1.16h.04a2.193,2.193,0,0,1,1.819-1.318,1.6,1.6,0,0,1,.686.132l-.211.949a1.779,1.779,0,0,0-.619-.105c-.541,0-1.187.4-1.622,1.477v4.113h-1.081Z" transform="translate(-9.887 -7.031)"/><path class="cls-5" d="M365.01,264.783H366.3l1.674,4.641.633,1.767h.053l.607-1.767,1.66-4.641h1.293v8.648H371.18v-4.76c0-.764.079-1.793.146-2.557h-.053l-.7,1.924-1.661,4.522h-.62l-1.674-4.522-.686-1.924h-.053c.053.764.145,1.793.145,2.557v4.76H365.01Z" transform="translate(-9.887 -7.031)"/><path class="cls-5" d="M378.112,269.371c0-.817-.276-1.608-1.318-1.608a3.446,3.446,0,0,0-1.911.686l-.435-.751a4.748,4.748,0,0,1,2.518-.831c1.568,0,2.229,1.042,2.229,2.637v3.929h-.9l-.093-.765h-.026a3.482,3.482,0,0,1-2.123.923,1.747,1.747,0,0,1-1.885-1.819C374.171,270.373,375.384,269.674,378.112,269.371Zm-1.753,3.349a2.625,2.625,0,0,0,1.753-.856v-1.78c-2.148.264-2.873.791-2.873,1.608A.982.982,0,0,0,376.359,272.72Z" transform="translate(-9.887 -7.031)"/><path class="cls-5" d="M381.237,267.024h.9l.092,1.16h.04a2.193,2.193,0,0,1,1.819-1.318,1.6,1.6,0,0,1,.686.132l-.211.949a1.779,1.779,0,0,0-.619-.105c-.541,0-1.187.4-1.622,1.477v4.113h-1.081Z" transform="translate(-9.887 -7.031)"/><path class="cls-5" d="M385.614,265.008a.753.753,0,0,1,1.5,0,.753.753,0,0,1-1.5,0Zm.2,2.017h1.081v6.407h-1.081Z" transform="translate(-9.887 -7.031)"/><path class="cls-5" d="M389.238,267.908h-.949v-.818l1-.065.132-1.793h.91v1.793h1.727v.884h-1.727v3.559c0,.791.25,1.24.988,1.24a2.322,2.322,0,0,0,.725-.172l.211.817a3.967,3.967,0,0,1-1.186.237c-1.371,0-1.833-.87-1.833-2.136Z" transform="translate(-9.887 -7.031)"/><path class="cls-5" d="M396.9,269.371c0-.817-.276-1.608-1.318-1.608a3.446,3.446,0,0,0-1.911.686l-.435-.751a4.748,4.748,0,0,1,2.518-.831c1.568,0,2.229,1.042,2.229,2.637v3.929h-.9l-.093-.765h-.026a3.482,3.482,0,0,1-2.123.923,1.747,1.747,0,0,1-1.885-1.819C392.956,270.373,394.169,269.674,396.9,269.371Zm-1.753,3.349a2.625,2.625,0,0,0,1.753-.856v-1.78c-2.148.264-2.873.791-2.873,1.608A.982.982,0,0,0,395.145,272.72Z" transform="translate(-9.887 -7.031)"/><path class="cls-5" d="M400.023,264.045H401.1v8.174c0,.343.146.475.3.475a.9.9,0,0,0,.236-.026l.146.817a1.449,1.449,0,0,1-.62.105c-.816,0-1.146-.514-1.146-1.45Z" transform="translate(-9.887 -7.031)"/><path class="cls-5" d="M297.134,280.6H299.3c2.663,0,4.087,1.543,4.087,4.285s-1.424,4.363-4.034,4.363h-2.215Zm2.083,7.752c2.017,0,3.032-1.279,3.032-3.467s-1.016-3.389-3.032-3.389h-.989v6.855Z" transform="translate(-9.887 -7.031)"/><path class="cls-5" d="M307.535,282.685c1.635,0,2.558,1.173,2.558,3.006a3.949,3.949,0,0,1-.039.593H305.73a2.132,2.132,0,0,0,2.135,2.255,2.9,2.9,0,0,0,1.6-.5l.383.712a3.817,3.817,0,0,1-2.109.659,3.389,3.389,0,0,1-.2-6.724Zm1.608,2.888c0-1.306-.58-2.031-1.582-2.031a2,2,0,0,0-1.846,2.031Z" transform="translate(-9.887 -7.031)"/><path class="cls-5" d="M313.994,282.685a2.638,2.638,0,0,1,1.793.738l-.053-1.095v-2.465h1.095v9.387h-.9l-.093-.752h-.04a2.885,2.885,0,0,1-1.937.91c-1.608,0-2.65-1.213-2.65-3.349C311.212,283.977,312.53,282.685,313.994,282.685Zm.105,5.813a2.167,2.167,0,0,0,1.635-.883v-3.349a2.232,2.232,0,0,0-1.556-.673c-1.028,0-1.846.989-1.846,2.453C312.333,287.576,312.98,288.5,314.1,288.5Z" transform="translate(-9.887 -7.031)"/><path class="cls-5" d="M318.9,282.843h1.095v3.915c0,1.2.356,1.715,1.2,1.715.658,0,1.12-.33,1.727-1.082v-4.548H324v6.407h-.9l-.093-1h-.039a2.708,2.708,0,0,1-2.109,1.16c-1.357,0-1.965-.87-1.965-2.5Z" transform="translate(-9.887 -7.031)"/><path class="cls-5" d="M328.772,282.685a2.645,2.645,0,0,1,1.872.765l-.541.7a1.933,1.933,0,0,0-1.291-.567c-1.16,0-2,1-2,2.479s.8,2.452,1.977,2.452a2.282,2.282,0,0,0,1.5-.646l.487.713a3.175,3.175,0,0,1-2.083.83c-1.7,0-3.006-1.227-3.006-3.349A3.1,3.1,0,0,1,328.772,282.685Z" transform="translate(-9.887 -7.031)"/><path class="cls-5" d="M332.357,283.727h-.949v-.818l1-.065.132-1.793h.91v1.793h1.727v.884h-1.727v3.559c0,.791.25,1.24.988,1.24a2.322,2.322,0,0,0,.725-.172l.211.817a3.967,3.967,0,0,1-1.186.237c-1.371,0-1.833-.87-1.833-2.136Z" transform="translate(-9.887 -7.031)"/><path class="cls-5" d="M336.431,280.826a.754.754,0,0,1,1.5,0,.754.754,0,0,1-1.5,0Zm.2,2.017h1.081v6.407h-1.081Z" transform="translate(-9.887 -7.031)"/><path class="cls-5" d="M342.362,282.685a3.388,3.388,0,1,1-2.966,3.375A3.062,3.062,0,0,1,342.362,282.685Zm0,5.827c1.107,0,1.846-.988,1.846-2.452s-.738-2.479-1.846-2.479-1.846,1-1.846,2.479S341.269,288.512,342.362,288.512Z" transform="translate(-9.887 -7.031)"/><path class="cls-5" d="M347.017,282.843h.9l.092.923h.04a3.02,3.02,0,0,1,2.149-1.081c1.344,0,1.951.87,1.951,2.5v4.061h-1.082v-3.916c0-1.2-.369-1.713-1.213-1.713-.658,0-1.107.342-1.753.988v4.641h-1.081Z" transform="translate(-9.887 -7.031)"/><path class="cls-5" d="M285.823,317.42A1.48,1.48,0,1,1,287.3,319,1.512,1.512,0,0,1,285.823,317.42Z" transform="translate(-9.887 -7.031)"/><path class="cls-5" d="M295.815,312.239h1.094v8.648h-1.094Z" transform="translate(-9.887 -7.031)"/><path class="cls-5" d="M299.177,314.48h.9l.092.923h.04a3.02,3.02,0,0,1,2.149-1.081c1.344,0,1.951.87,1.951,2.5v4.061h-1.082v-3.915c0-1.2-.369-1.715-1.213-1.715-.658,0-1.107.344-1.753.989v4.641h-1.081Z" transform="translate(-9.887 -7.031)"/><path class="cls-5" d="M309,314.322a2.64,2.64,0,0,1,1.872.765l-.541.7a1.936,1.936,0,0,0-1.291-.566c-1.16,0-2,1-2,2.479s.8,2.452,1.977,2.452a2.29,2.29,0,0,0,1.5-.646l.487.711a3.171,3.171,0,0,1-2.083.831c-1.7,0-3.006-1.226-3.006-3.349A3.1,3.1,0,0,1,309,314.322Z" transform="translate(-9.887 -7.031)"/><path class="cls-5" d="M312.4,311.5h1.081v8.174c0,.343.145.475.3.475a.915.915,0,0,0,.238-.026l.145.817a1.462,1.462,0,0,1-.619.105c-.818,0-1.147-.515-1.147-1.45Z" transform="translate(-9.887 -7.031)"/><path class="cls-5" d="M315.669,314.48h1.094V318.4c0,1.2.355,1.713,1.2,1.713.66,0,1.121-.329,1.728-1.08V314.48h1.081v6.407h-.9l-.092-1h-.04a2.708,2.708,0,0,1-2.109,1.16c-1.358,0-1.964-.87-1.964-2.5Z" transform="translate(-9.887 -7.031)"/><path class="cls-5" d="M325.252,314.322a2.643,2.643,0,0,1,1.793.738l-.053-1.094V311.5h1.095v9.387h-.9l-.093-.751h-.04a2.888,2.888,0,0,1-1.937.909c-1.608,0-2.65-1.213-2.65-3.349C322.47,315.614,323.788,314.322,325.252,314.322Zm.105,5.814a2.171,2.171,0,0,0,1.635-.884V315.9a2.226,2.226,0,0,0-1.556-.672c-1.028,0-1.846.988-1.846,2.451C323.591,319.213,324.237,320.137,325.357,320.137Z" transform="translate(-9.887 -7.031)"/><path class="cls-5" d="M332.648,314.322c1.635,0,2.558,1.174,2.558,3.006a3.7,3.7,0,0,1-.04.594h-4.324a2.133,2.133,0,0,0,2.137,2.254,2.892,2.892,0,0,0,1.595-.5l.382.712a3.814,3.814,0,0,1-2.109.659,3.389,3.389,0,0,1-.2-6.724Zm1.608,2.887c0-1.3-.58-2.029-1.582-2.029a2,2,0,0,0-1.846,2.029Z" transform="translate(-9.887 -7.031)"/><path class="cls-5" d="M339.107,314.322a2.641,2.641,0,0,1,1.793.738l-.053-1.094V311.5h1.094v9.387h-.9l-.092-.751h-.039a2.9,2.9,0,0,1-1.938.909c-1.608,0-2.649-1.213-2.649-3.349C336.325,315.614,337.644,314.322,339.107,314.322Zm.105,5.814a2.17,2.17,0,0,0,1.635-.884V315.9a2.228,2.228,0,0,0-1.556-.672c-1.028,0-1.846.988-1.846,2.451C337.445,319.213,338.091,320.137,339.212,320.137Z" transform="translate(-9.887 -7.031)"/><path class="cls-5" d="M346.567,312.463a.754.754,0,0,1,1.5,0,.754.754,0,0,1-1.5,0Zm.2,2.018h1.081v6.407h-1.081Z" transform="translate(-9.887 -7.031)"/><path class="cls-5" d="M350.008,314.48h.9l.093.923h.039a3.02,3.02,0,0,1,2.148-1.081c1.346,0,1.951.87,1.951,2.5v4.061h-1.08v-3.915c0-1.2-.369-1.715-1.213-1.715-.66,0-1.107.344-1.754.989v4.641h-1.081Z" transform="translate(-9.887 -7.031)"/><path class="cls-5" d="M360.014,319a3.386,3.386,0,0,0,2.386,1.082c1.135,0,1.807-.567,1.807-1.411,0-.884-.619-1.16-1.437-1.529l-1.238-.54a2.431,2.431,0,0,1-1.754-2.229,2.457,2.457,0,0,1,2.716-2.294,3.587,3.587,0,0,1,2.558,1.067l-.594.713a2.754,2.754,0,0,0-1.964-.818c-.962,0-1.608.488-1.608,1.266,0,.831.752,1.147,1.438,1.438l1.226.527a2.408,2.408,0,0,1,1.78,2.307c0,1.371-1.121,2.466-2.94,2.466a4.2,4.2,0,0,1-3.032-1.278Z" transform="translate(-9.887 -7.031)"/><path class="cls-5" d="M368,321.428v2.162h-1.081V314.48h.9l.093.738h.039a3.313,3.313,0,0,1,2.043-.9c1.648,0,2.531,1.279,2.531,3.27,0,2.176-1.3,3.454-2.768,3.454a2.966,2.966,0,0,1-1.78-.738Zm1.568-1.291c1.055,0,1.833-.963,1.833-2.545,0-1.41-.475-2.359-1.687-2.359A2.7,2.7,0,0,0,368,316.1v3.362A2.539,2.539,0,0,0,369.571,320.137Z" transform="translate(-9.887 -7.031)"/><path class="cls-5" d="M376.73,314.322a3.388,3.388,0,1,1-2.967,3.375A3.062,3.062,0,0,1,376.73,314.322Zm0,5.827c1.107,0,1.846-.989,1.846-2.452s-.738-2.479-1.846-2.479-1.846,1-1.846,2.479S375.635,320.149,376.73,320.149Z" transform="translate(-9.887 -7.031)"/><path class="cls-5" d="M381.29,314.48h1.095V318.4c0,1.2.356,1.713,1.2,1.713.658,0,1.12-.329,1.727-1.08V314.48h1.081v6.407h-.9l-.093-1h-.039a2.711,2.711,0,0,1-2.109,1.16c-1.357,0-1.965-.87-1.965-2.5Z" transform="translate(-9.887 -7.031)"/><path class="cls-5" d="M388.382,319.438a2.885,2.885,0,0,0,1.886.765c.844,0,1.266-.448,1.266-1,0-.659-.765-.949-1.464-1.213-.909-.329-1.911-.765-1.911-1.846,0-1.028.817-1.819,2.2-1.819a3.2,3.2,0,0,1,1.99.725l-.514.686a2.383,2.383,0,0,0-1.464-.566c-.8,0-1.173.436-1.173.923,0,.606.7.831,1.424,1.107.922.343,1.951.726,1.951,1.938,0,1.041-.831,1.911-2.348,1.911a3.851,3.851,0,0,1-2.386-.884Z" transform="translate(-9.887 -7.031)"/><path class="cls-5" d="M396.477,314.322c1.635,0,2.558,1.174,2.558,3.006a3.954,3.954,0,0,1-.039.594h-4.324a2.131,2.131,0,0,0,2.135,2.254,2.89,2.89,0,0,0,1.6-.5l.383.712a3.825,3.825,0,0,1-2.109.659,3.389,3.389,0,0,1-.2-6.724Zm1.608,2.887c0-1.3-.58-2.029-1.582-2.029a2,2,0,0,0-1.846,2.029Z" transform="translate(-9.887 -7.031)"/><path class="cls-5" d="M403.714,318.2h-1.055v-.751h1.146l.237-1.951h-1.12v-.766h1.213l.3-2.412h.7l-.3,2.412h1.753l.316-2.412h.7l-.316,2.412h1.068v.766h-1.147l-.237,1.951h1.121v.751h-1.213l-.33,2.689h-.7l.316-2.689h-1.74l-.329,2.689h-.712Zm2.544-.751.237-1.951h-1.74l-.237,1.951Z" transform="translate(-9.887 -7.031)"/><path class="cls-5" d="M409.276,320.242c2.531-2.519,3.955-4.035,3.955-5.393a1.49,1.49,0,0,0-1.6-1.648,2.483,2.483,0,0,0-1.793,1.016l-.619-.619a3.3,3.3,0,0,1,2.545-1.279,2.336,2.336,0,0,1,2.518,2.479c0,1.582-1.437,3.15-3.428,5.234.461-.04.976-.08,1.41-.08h2.439v.937h-5.432Z" transform="translate(-9.887 -7.031)"/><path class="cls-5" d="M416.132,314.705a1.815,1.815,0,0,0,.988-1.648.281.281,0,0,1-.105.014.655.655,0,0,1-.7-.66.676.676,0,0,1,.7-.738c.514,0,.83.436.83,1.2a2.552,2.552,0,0,1-1.41,2.333Z" transform="translate(-9.887 -7.031)"/><path class="cls-5" d="M418.847,319.438a2.885,2.885,0,0,0,1.886.765c.844,0,1.266-.448,1.266-1,0-.659-.765-.949-1.464-1.213-.909-.329-1.911-.765-1.911-1.846,0-1.028.817-1.819,2.2-1.819a3.2,3.2,0,0,1,1.99.725l-.514.686a2.383,2.383,0,0,0-1.464-.566c-.8,0-1.173.436-1.173.923,0,.606.7.831,1.424,1.107.922.343,1.951.726,1.951,1.938,0,1.041-.831,1.911-2.348,1.911a3.851,3.851,0,0,1-2.386-.884Z" transform="translate(-9.887 -7.031)"/><path class="cls-5" d="M299.428,330.143c1.635,0,2.558,1.174,2.558,3.006a3.954,3.954,0,0,1-.039.594h-4.325A2.132,2.132,0,0,0,299.757,336a2.89,2.89,0,0,0,1.6-.5l.383.712a3.825,3.825,0,0,1-2.109.659,3.389,3.389,0,0,1-.2-6.724Zm1.608,2.887c0-1.3-.58-2.029-1.582-2.029a2,2,0,0,0-1.846,2.029Z" transform="translate(-9.887 -7.031)"/><path class="cls-5" d="M303.4,335.258a2.878,2.878,0,0,0,1.885.765c.844,0,1.266-.448,1.266-1,0-.659-.765-.949-1.463-1.213-.91-.329-1.912-.765-1.912-1.846,0-1.028.817-1.819,2.2-1.819a3.2,3.2,0,0,1,1.991.725l-.515.686a2.38,2.38,0,0,0-1.463-.566c-.8,0-1.174.436-1.174.923,0,.606.7.831,1.424,1.107.924.343,1.951.726,1.951,1.938,0,1.041-.83,1.911-2.346,1.911a3.852,3.852,0,0,1-2.387-.884Z" transform="translate(-9.887 -7.031)"/><path class="cls-5" d="M309.274,331.184h-.949v-.816l1-.066.132-1.793h.909V330.3H312.1v.883h-1.728v3.561c0,.791.251,1.238.989,1.238a2.333,2.333,0,0,0,.726-.171l.211.817a3.944,3.944,0,0,1-1.187.237c-1.371,0-1.832-.87-1.832-2.136Z" transform="translate(-9.887 -7.031)"/><path class="cls-5" d="M316.935,332.647c0-.817-.277-1.608-1.318-1.608a3.446,3.446,0,0,0-1.912.686l-.436-.752a4.763,4.763,0,0,1,2.519-.83c1.569,0,2.228,1.041,2.228,2.637v3.929h-.9l-.092-.765H317a3.482,3.482,0,0,1-2.122.923,1.747,1.747,0,0,1-1.886-1.819C312.992,333.649,314.205,332.951,316.935,332.647ZM315.181,336a2.624,2.624,0,0,0,1.754-.857v-1.779c-2.149.264-2.875.791-2.875,1.608A.982.982,0,0,0,315.181,336Z" transform="translate(-9.887 -7.031)"/><path class="cls-5" d="M320.242,331.184h-.949v-.816l1-.066.132-1.793h.91V330.3h1.727v.883h-1.727v3.561c0,.791.25,1.238.988,1.238a2.321,2.321,0,0,0,.725-.171l.211.817a3.937,3.937,0,0,1-1.186.237c-1.371,0-1.833-.87-1.833-2.136Z" transform="translate(-9.887 -7.031)"/><path class="cls-5" d="M326.795,330.143c1.635,0,2.558,1.174,2.558,3.006a3.954,3.954,0,0,1-.039.594h-4.324A2.131,2.131,0,0,0,327.124,336a2.89,2.89,0,0,0,1.6-.5l.383.712a3.825,3.825,0,0,1-2.109.659,3.389,3.389,0,0,1-.2-6.724Zm1.608,2.887c0-1.3-.58-2.029-1.582-2.029a2,2,0,0,0-1.846,2.029Z" transform="translate(-9.887 -7.031)"/><polygon points="120.693 75.371 117.128 51.869 144.146 71.498 120.693 75.371"/><line class="cls-3" x1="442.087" y1="114.799" x2="482.047" y2="114.799"/><polygon points="496.246 114.799 479.328 98.101 479.328 131.497 496.246 114.799"/><rect class="cls-7" x="150.118" width="138.418" height="31.638"/><path class="cls-5" d="M202.209,24.754a3.387,3.387,0,0,0,2.386,1.081c1.134,0,1.806-.567,1.806-1.411,0-.883-.62-1.16-1.437-1.529l-1.239-.541a2.43,2.43,0,0,1-1.753-2.228,2.457,2.457,0,0,1,2.716-2.294,3.588,3.588,0,0,1,2.558,1.068l-.593.712a2.758,2.758,0,0,0-1.964-.817c-.962,0-1.608.488-1.608,1.266,0,.831.751,1.147,1.437,1.437l1.226.527a2.408,2.408,0,0,1,1.78,2.307c0,1.371-1.121,2.465-2.94,2.465a4.194,4.194,0,0,1-3.032-1.279Z" transform="translate(-9.887 -7.031)"/><path class="cls-5" d="M210.2,27.18v2.162h-1.081v-9.11h.9l.092.738h.04a3.316,3.316,0,0,1,2.043-.9c1.648,0,2.531,1.279,2.531,3.27,0,2.175-1.305,3.454-2.769,3.454a2.971,2.971,0,0,1-1.78-.738Zm1.569-1.292c1.055,0,1.833-.962,1.833-2.544,0-1.411-.475-2.36-1.687-2.36a2.7,2.7,0,0,0-1.714.87v3.362A2.536,2.536,0,0,0,211.767,25.888Z" transform="translate(-9.887 -7.031)"/><path class="cls-5" d="M218.925,20.074a3.062,3.062,0,0,1,2.966,3.375,2.988,2.988,0,1,1-5.933,0A3.062,3.062,0,0,1,218.925,20.074Zm0,5.827c1.107,0,1.846-.989,1.846-2.452s-.738-2.479-1.846-2.479-1.846,1-1.846,2.479S217.831,25.9,218.925,25.9Z" transform="translate(-9.887 -7.031)"/><path class="cls-5" d="M223.485,20.232h1.094v3.916c0,1.2.356,1.714,1.2,1.714.659,0,1.121-.33,1.727-1.081V20.232h1.081V26.64h-.9l-.092-1h-.04a2.708,2.708,0,0,1-2.109,1.16c-1.358,0-1.964-.87-1.964-2.5Z" transform="translate(-9.887 -7.031)"/><path class="cls-5" d="M230.578,25.189a2.882,2.882,0,0,0,1.885.765c.844,0,1.266-.448,1.266-1,0-.659-.765-.949-1.463-1.213-.91-.33-1.912-.765-1.912-1.846,0-1.028.817-1.819,2.2-1.819a3.2,3.2,0,0,1,1.991.725l-.514.686a2.379,2.379,0,0,0-1.463-.567c-.8,0-1.173.435-1.173.923,0,.606.7.831,1.424,1.107.923.343,1.951.725,1.951,1.938,0,1.042-.831,1.912-2.347,1.912a3.857,3.857,0,0,1-2.386-.883Z" transform="translate(-9.887 -7.031)"/><path class="cls-5" d="M238.672,20.074c1.635,0,2.558,1.173,2.558,3.006a3.82,3.82,0,0,1-.04.593h-4.324A2.132,2.132,0,0,0,239,25.928a2.9,2.9,0,0,0,1.6-.5l.382.712a3.816,3.816,0,0,1-2.109.659,3.064,3.064,0,0,1-3.072-3.349A3.09,3.09,0,0,1,238.672,20.074Zm1.608,2.887c0-1.305-.58-2.03-1.582-2.03a2,2,0,0,0-1.846,2.03Z" transform="translate(-9.887 -7.031)"/><path class="cls-5" d="M245.909,23.95h-1.055V23.2H246l.237-1.951h-1.121v-.765h1.213l.3-2.413h.7l-.3,2.413h1.753l.316-2.413h.7l-.316,2.413h1.068v.765H249.4l-.237,1.951h1.121v.751h-1.213l-.33,2.689h-.7l.316-2.689h-1.74l-.33,2.689h-.712Zm2.544-.751.237-1.951h-1.74l-.237,1.951Z" transform="translate(-9.887 -7.031)"/><path class="cls-5" d="M251.986,25.743h1.925v-6.2h-1.529v-.7a5,5,0,0,0,1.78-.62h.831v7.515h1.74v.9h-4.746Z" transform="translate(-9.887 -7.031)"/></svg>