<svg id="Layer_1" data-name="Layer 1" xmlns="http://www.w3.org/2000/svg" xmlns:xlink="http://www.w3.org/1999/xlink" viewBox="0 0 672.848 394.82"><defs><style>.cls-1,.cls-2,.cls-5,.cls-6{fill:none;}.cls-2{stroke:#000;stroke-width:3px;}.cls-3{fill:#00a182;}.cls-4{clip-path:url(#clip-path);}.cls-5,.cls-6{stroke:#231f20;stroke-linecap:round;stroke-linejoin:round;stroke-width:2px;}.cls-5{stroke-dasharray:0 4.012;}.cls-7{fill:#bcbec0;}.cls-8{fill:#fff;}.cls-9{fill:#231f20;}.cls-10{fill:#29538c;}</style><clipPath id="clip-path" transform="translate(-10.448 -12.18)"><rect class="cls-1" y="4.75" width="693.744" height="402.25"/></clipPath></defs><title>Introducing_QTIP_Marital_Trust</title><line class="cls-2" x1="599.712" y1="23.682" x2="599.712" y2="65.91"/><rect class="cls-3" y="83.236" width="146.273" height="69.654"/><rect class="cls-3" x="526.575" y="83.236" width="146.273" height="69.654"/><g class="cls-4"><line class="cls-5" x1="232.934" y1="21.026" x2="232.934" y2="391.331"/><path class="cls-6" d="M243.382,405.839h0m0-377.291h0" transform="translate(-10.448 -12.18)"/></g><rect class="cls-7" y="152.89" width="188.587" height="241.93"/><rect class="cls-3" x="320.9" y="83.236" width="146.273" height="69.654"/><polygon points="336.481 79.592 340.248 54.757 311.697 75.5 336.481 79.592"/><polygon points="599.712 80.914 617.357 63.037 582.066 63.037 599.712 80.914"/><path class="cls-8" d="M32.168,126.16a3.326,3.326,0,0,1,2.494,1.128l-.655.738a2.4,2.4,0,0,0-1.825-.85c-1.741,0-2.884,1.421-2.884,3.692,0,2.3,1.1,3.748,2.828,3.748a2.672,2.672,0,0,0,2.1-1.017l.655.71a3.527,3.527,0,0,1-2.786,1.323c-2.3,0-4-1.755-4-4.736C28.1,127.958,29.827,126.16,32.168,126.16Z" transform="translate(-10.448 -12.18)"/><path class="cls-8" d="M36.472,128.7h.947l.1,1.226h.042a2.316,2.316,0,0,1,1.922-1.394,1.681,1.681,0,0,1,.725.14l-.223,1a1.889,1.889,0,0,0-.655-.111c-.571,0-1.253.418-1.713,1.56v4.347H36.472Z" transform="translate(-10.448 -12.18)"/><path class="cls-8" d="M43.716,128.528c1.728,0,2.7,1.24,2.7,3.177a4.037,4.037,0,0,1-.042.626h-4.57a2.254,2.254,0,0,0,2.257,2.382,3.06,3.06,0,0,0,1.686-.529l.4.752a4.033,4.033,0,0,1-2.229.7,3.581,3.581,0,0,1-.209-7.1Zm1.7,3.051c0-1.379-.613-2.146-1.672-2.146a2.113,2.113,0,0,0-1.95,2.146Z" transform="translate(-10.448 -12.18)"/><path class="cls-8" d="M50.542,128.528a2.791,2.791,0,0,1,1.895.78l-.056-1.156v-2.6h1.156v9.919H52.59l-.1-.794H52.45a3.056,3.056,0,0,1-2.048.961c-1.7,0-2.8-1.282-2.8-3.539C47.6,129.894,49,128.528,50.542,128.528Zm.111,6.144a2.291,2.291,0,0,0,1.728-.934V130.2a2.357,2.357,0,0,0-1.644-.71c-1.087,0-1.951,1.045-1.951,2.591C48.786,133.7,49.469,134.672,50.653,134.672Z" transform="translate(-10.448 -12.18)"/><path class="cls-8" d="M55.613,126.564a.8.8,0,0,1,1.588,0,.8.8,0,0,1-1.588,0Zm.209,2.131h1.142v6.771H55.822Z" transform="translate(-10.448 -12.18)"/><path class="cls-8" d="M59.443,129.629h-1v-.864L59.5,128.7l.139-1.895H60.6V128.7h1.825v.933H60.6v3.762c0,.836.265,1.31,1.045,1.31a2.46,2.46,0,0,0,.766-.181l.223.864a4.179,4.179,0,0,1-1.254.25c-1.449,0-1.937-.919-1.937-2.257Z" transform="translate(-10.448 -12.18)"/><path class="cls-8" d="M66.91,133.474a3.58,3.58,0,0,0,2.521,1.143c1.2,0,1.909-.6,1.909-1.491,0-.934-.655-1.226-1.519-1.616l-1.31-.571a2.567,2.567,0,0,1-1.853-2.354,2.6,2.6,0,0,1,2.87-2.424,3.793,3.793,0,0,1,2.7,1.128l-.627.752a2.915,2.915,0,0,0-2.076-.864c-1.017,0-1.7.516-1.7,1.337,0,.877.794,1.212,1.519,1.519l1.3.557a2.544,2.544,0,0,1,1.881,2.438c0,1.449-1.184,2.6-3.106,2.6a4.434,4.434,0,0,1-3.2-1.351Z" transform="translate(-10.448 -12.18)"/><path class="cls-8" d="M74.21,125.547h1.142v2.7l-.042,1.393a3.237,3.237,0,0,1,2.257-1.115c1.421,0,2.062.92,2.062,2.647v4.291H78.487v-4.138c0-1.268-.39-1.811-1.282-1.811-.7,0-1.17.362-1.853,1.045v4.9H74.21Z" transform="translate(-10.448 -12.18)"/><path class="cls-8" d="M84.323,128.528c1.728,0,2.7,1.24,2.7,3.177a4.037,4.037,0,0,1-.042.626h-4.57a2.254,2.254,0,0,0,2.257,2.382,3.06,3.06,0,0,0,1.686-.529l.4.752a4.033,4.033,0,0,1-2.229.7,3.581,3.581,0,0,1-.209-7.1Zm1.7,3.051c0-1.379-.613-2.146-1.672-2.146a2.113,2.113,0,0,0-1.95,2.146Z" transform="translate(-10.448 -12.18)"/><path class="cls-8" d="M88.7,125.547H89.84v8.637c0,.362.153.5.32.5a.962.962,0,0,0,.251-.028l.153.864a1.537,1.537,0,0,1-.655.111c-.864,0-1.212-.543-1.212-1.532Z" transform="translate(-10.448 -12.18)"/><path class="cls-8" d="M92.445,129.629h-1v-.864L92.5,128.7l.139-1.895H93.6V128.7h1.825v.933H93.6v3.762c0,.836.265,1.31,1.045,1.31a2.46,2.46,0,0,0,.766-.181l.223.864a4.179,4.179,0,0,1-1.254.25c-1.449,0-1.937-.919-1.937-2.257Z" transform="translate(-10.448 -12.18)"/><path class="cls-8" d="M99.354,128.528c1.728,0,2.7,1.24,2.7,3.177a4.036,4.036,0,0,1-.042.626h-4.57a2.254,2.254,0,0,0,2.257,2.382,3.06,3.06,0,0,0,1.686-.529l.4.752a4.033,4.033,0,0,1-2.229.7,3.581,3.581,0,0,1-.209-7.1Zm1.7,3.051c0-1.379-.613-2.146-1.672-2.146a2.113,2.113,0,0,0-1.95,2.146Z" transform="translate(-10.448 -12.18)"/><path class="cls-8" d="M103.728,128.7h.947l.1,1.226h.042a2.316,2.316,0,0,1,1.922-1.394,1.681,1.681,0,0,1,.725.14l-.223,1a1.889,1.889,0,0,0-.655-.111c-.571,0-1.253.418-1.713,1.56v4.347h-1.142Z" transform="translate(-10.448 -12.18)"/><path class="cls-8" d="M113.382,127.3h-2.758v-.976h6.687v.976h-2.758v8.164h-1.17Z" transform="translate(-10.448 -12.18)"/><path class="cls-8" d="M118.216,128.7h.947l.1,1.226h.042a2.316,2.316,0,0,1,1.922-1.394,1.681,1.681,0,0,1,.725.14l-.223,1a1.889,1.889,0,0,0-.655-.111c-.571,0-1.253.418-1.713,1.56v4.347h-1.142Z" transform="translate(-10.448 -12.18)"/><path class="cls-8" d="M122.952,128.7h1.156v4.138c0,1.268.376,1.811,1.268,1.811.7,0,1.184-.349,1.825-1.143V128.7h1.142v6.771H127.4l-.1-1.059h-.042a2.861,2.861,0,0,1-2.229,1.226c-1.435,0-2.076-.919-2.076-2.647Z" transform="translate(-10.448 -12.18)"/><path class="cls-8" d="M130.447,133.934a3.044,3.044,0,0,0,1.992.808c.892,0,1.337-.474,1.337-1.059,0-.7-.808-1-1.546-1.282-.961-.348-2.02-.808-2.02-1.95,0-1.087.864-1.923,2.326-1.923a3.38,3.38,0,0,1,2.1.767l-.543.724a2.516,2.516,0,0,0-1.546-.6c-.85,0-1.24.46-1.24.976,0,.641.738.877,1.5,1.17.975.362,2.062.766,2.062,2.048,0,1.1-.878,2.02-2.48,2.02a4.075,4.075,0,0,1-2.521-.933Z" transform="translate(-10.448 -12.18)"/><path class="cls-8" d="M136.659,129.629h-1v-.864l1.059-.069.139-1.895h.961V128.7h1.825v.933h-1.825v3.762c0,.836.265,1.31,1.045,1.31a2.46,2.46,0,0,0,.766-.181l.223.864a4.179,4.179,0,0,1-1.254.25c-1.449,0-1.937-.919-1.937-2.257Z" transform="translate(-10.448 -12.18)"/><path class="cls-8" d="M554.89,126.787h5.266v.976h-4.109v2.87h3.469v.989h-3.469v3.315H560.3v.989H554.89Z" transform="translate(-10.448 -12.18)"/><path class="cls-8" d="M561.939,134.394a3.045,3.045,0,0,0,1.992.808c.892,0,1.338-.474,1.338-1.059,0-.7-.809-1-1.547-1.282-.961-.348-2.02-.808-2.02-1.95,0-1.087.863-1.923,2.326-1.923a3.38,3.38,0,0,1,2.1.767l-.543.724a2.516,2.516,0,0,0-1.547-.6c-.85,0-1.239.46-1.239.976,0,.641.738.877,1.5,1.17.976.362,2.063.766,2.063,2.048,0,1.1-.878,2.02-2.479,2.02a4.079,4.079,0,0,1-2.522-.933Z" transform="translate(-10.448 -12.18)"/><path class="cls-8" d="M568.153,130.089h-1v-.864l1.06-.069.139-1.895h.962v1.895h1.824v.933h-1.824v3.762c0,.836.265,1.31,1.044,1.31a2.46,2.46,0,0,0,.767-.181l.223.864a4.176,4.176,0,0,1-1.254.25c-1.448,0-1.936-.919-1.936-2.257Z" transform="translate(-10.448 -12.18)"/><path class="cls-8" d="M576.246,131.635c0-.864-.293-1.7-1.394-1.7a3.639,3.639,0,0,0-2.02.724l-.46-.794a5.023,5.023,0,0,1,2.661-.878c1.657,0,2.354,1.1,2.354,2.787v4.151h-.947l-.1-.808h-.028a3.679,3.679,0,0,1-2.243.975,1.847,1.847,0,0,1-1.992-1.922C572.08,132.694,573.362,131.956,576.246,131.635Zm-1.853,3.539a2.775,2.775,0,0,0,1.853-.905v-1.881c-2.271.279-3.037.836-3.037,1.7A1.038,1.038,0,0,0,574.393,135.174Z" transform="translate(-10.448 -12.18)"/><path class="cls-8" d="M579.743,130.089h-1v-.864l1.06-.069.139-1.895h.962v1.895h1.824v.933H580.9v3.762c0,.836.265,1.31,1.044,1.31a2.46,2.46,0,0,0,.767-.181l.223.864a4.176,4.176,0,0,1-1.254.25c-1.448,0-1.936-.919-1.936-2.257Z" transform="translate(-10.448 -12.18)"/><path class="cls-8" d="M586.666,128.988c1.728,0,2.7,1.24,2.7,3.177a4.092,4.092,0,0,1-.042.626h-4.569a2.253,2.253,0,0,0,2.257,2.382,3.061,3.061,0,0,0,1.686-.529l.4.752a4.036,4.036,0,0,1-2.229.7,3.581,3.581,0,0,1-.209-7.1Zm1.7,3.051c0-1.379-.613-2.146-1.672-2.146a2.114,2.114,0,0,0-1.951,2.146Z" transform="translate(-10.448 -12.18)"/><path class="cls-8" d="M596.487,128.988c1.658,0,3.135,1.3,3.135,3.566a3.158,3.158,0,1,1-6.27,0C593.352,130.284,594.829,128.988,596.487,128.988Zm0,6.158c1.17,0,1.95-1.045,1.95-2.591s-.78-2.619-1.95-2.619-1.95,1.059-1.95,2.619S595.331,135.146,596.487,135.146Z" transform="translate(-10.448 -12.18)"/><path class="cls-8" d="M604.455,126.94a1.906,1.906,0,0,0-.767-.167c-.641,0-.947.446-.947,1.31v1.073h1.436v.933h-1.436v5.837H601.6v-5.837h-.919v-.864l.919-.069v-1.073c0-1.379.627-2.243,1.979-2.243a3.069,3.069,0,0,1,1.129.223Z" transform="translate(-10.448 -12.18)"/><path class="cls-8" d="M608.425,133.934a3.581,3.581,0,0,0,2.522,1.143c1.2,0,1.908-.6,1.908-1.491,0-.934-.655-1.226-1.519-1.616l-1.31-.571a2.568,2.568,0,0,1-1.853-2.354,2.6,2.6,0,0,1,2.869-2.424,3.794,3.794,0,0,1,2.7,1.128l-.627.752a2.915,2.915,0,0,0-2.076-.864c-1.017,0-1.7.516-1.7,1.337,0,.877.794,1.212,1.519,1.519l1.3.557a2.544,2.544,0,0,1,1.88,2.438c0,1.449-1.184,2.6-3.106,2.6a4.433,4.433,0,0,1-3.2-1.351Z" transform="translate(-10.448 -12.18)"/><path class="cls-8" d="M616.868,136.5v2.285h-1.143v-9.626h.947l.1.78h.041a3.506,3.506,0,0,1,2.16-.948c1.741,0,2.675,1.352,2.675,3.455,0,2.3-1.38,3.65-2.926,3.65a3.141,3.141,0,0,1-1.881-.78Zm1.657-1.365c1.114,0,1.937-1.017,1.937-2.689,0-1.491-.5-2.494-1.783-2.494a2.849,2.849,0,0,0-1.811.919v3.553A2.68,2.68,0,0,0,618.525,135.132Z" transform="translate(-10.448 -12.18)"/><path class="cls-8" d="M626.09,128.988c1.658,0,3.135,1.3,3.135,3.566a3.158,3.158,0,1,1-6.27,0C622.955,130.284,624.431,128.988,626.09,128.988Zm0,6.158c1.17,0,1.95-1.045,1.95-2.591s-.78-2.619-1.95-2.619-1.95,1.059-1.95,2.619S624.933,135.146,626.09,135.146Z" transform="translate(-10.448 -12.18)"/><path class="cls-8" d="M630.909,129.156h1.156v4.138c0,1.268.376,1.811,1.268,1.811.7,0,1.185-.349,1.825-1.143v-4.806H636.3v6.771h-.947l-.1-1.059h-.042a2.862,2.862,0,0,1-2.229,1.226c-1.436,0-2.076-.919-2.076-2.647Z" transform="translate(-10.448 -12.18)"/><path class="cls-8" d="M638.4,134.394a3.045,3.045,0,0,0,1.992.808c.892,0,1.338-.474,1.338-1.059,0-.7-.809-1-1.547-1.282-.961-.348-2.02-.808-2.02-1.95,0-1.087.863-1.923,2.326-1.923a3.38,3.38,0,0,1,2.1.767l-.543.724a2.516,2.516,0,0,0-1.547-.6c-.85,0-1.239.46-1.239.976,0,.641.738.877,1.5,1.17.976.362,2.063.766,2.063,2.048,0,1.1-.878,2.02-2.479,2.02a4.079,4.079,0,0,1-2.522-.933Z" transform="translate(-10.448 -12.18)"/><path class="cls-8" d="M646.957,128.988c1.728,0,2.7,1.24,2.7,3.177a4.092,4.092,0,0,1-.042.626h-4.569a2.253,2.253,0,0,0,2.257,2.382,3.061,3.061,0,0,0,1.686-.529l.4.752a4.036,4.036,0,0,1-2.229.7,3.581,3.581,0,0,1-.209-7.1Zm1.7,3.051c0-1.379-.613-2.146-1.672-2.146a2.114,2.114,0,0,0-1.951,2.146Z" transform="translate(-10.448 -12.18)"/><path class="cls-8" d="M654.605,133.084H653.49v-.794H654.7l.251-2.062h-1.184v-.808h1.281l.32-2.549h.738l-.32,2.549h1.853l.335-2.549h.738l-.334,2.549h1.128v.808H658.3l-.251,2.062h1.185v.794h-1.282l-.348,2.842h-.738l.334-2.842h-1.839l-.349,2.842h-.752Zm2.688-.794.251-2.062h-1.839l-.251,2.062Z" transform="translate(-10.448 -12.18)"/><path class="cls-8" d="M660.484,135.244c2.675-2.661,4.179-4.263,4.179-5.7a1.574,1.574,0,0,0-1.686-1.742,2.619,2.619,0,0,0-1.895,1.073l-.654-.655a3.488,3.488,0,0,1,2.688-1.351,2.469,2.469,0,0,1,2.661,2.619c0,1.671-1.519,3.33-3.623,5.53.488-.042,1.031-.083,1.491-.083h2.577v.989h-5.739Z" transform="translate(-10.448 -12.18)"/><path class="cls-8" d="M383.041,133.823a4.194,4.194,0,0,1-1.31.209,3.488,3.488,0,0,1-3.372-2.159c-1.992-.279-3.329-2.048-3.329-4.737,0-2.925,1.6-4.695,3.9-4.695s3.915,1.783,3.915,4.695c0,2.633-1.3,4.388-3.232,4.723a2.377,2.377,0,0,0,2.243,1.2,3.439,3.439,0,0,0,.961-.139Zm-4.11-2.87c1.63,0,2.7-1.477,2.7-3.817,0-2.271-1.073-3.678-2.7-3.678s-2.7,1.407-2.7,3.678C376.228,129.477,377.3,130.954,378.93,130.954Z" transform="translate(-10.448 -12.18)"/><path class="cls-8" d="M386.439,123.584H383.68v-.976h6.688v.976h-2.759v8.164h-1.17Z" transform="translate(-10.448 -12.18)"/><path class="cls-8" d="M392.011,122.608h1.156v9.139h-1.156Z" transform="translate(-10.448 -12.18)"/><path class="cls-8" d="M395.675,122.608h2.8c2.021,0,3.372.683,3.372,2.689,0,1.922-1.365,2.828-3.372,2.828h-1.644v3.622h-1.156Zm2.661,4.57c1.588,0,2.354-.585,2.354-1.881,0-1.323-.78-1.755-2.354-1.755h-1.5v3.636Z" transform="translate(-10.448 -12.18)"/><path class="cls-8" d="M408.407,123.584h-2.759v-.976h6.688v.976h-2.759v8.164h-1.17Z" transform="translate(-10.448 -12.18)"/><path class="cls-8" d="M413.241,124.977h.947l.1,1.226h.041a2.317,2.317,0,0,1,1.923-1.394,1.678,1.678,0,0,1,.725.14l-.223,1a1.894,1.894,0,0,0-.655-.111c-.571,0-1.254.418-1.713,1.56v4.347h-1.143Z" transform="translate(-10.448 -12.18)"/><path class="cls-8" d="M417.977,124.977h1.156v4.138c0,1.268.376,1.811,1.268,1.811.7,0,1.185-.349,1.825-1.143v-4.806h1.143v6.771h-.947l-.1-1.059h-.042a2.862,2.862,0,0,1-2.229,1.226c-1.436,0-2.076-.919-2.076-2.647Z" transform="translate(-10.448 -12.18)"/><path class="cls-8" d="M425.471,130.215a3.045,3.045,0,0,0,1.992.808c.892,0,1.338-.474,1.338-1.059,0-.7-.809-1-1.547-1.282-.961-.348-2.02-.808-2.02-1.95,0-1.087.863-1.923,2.326-1.923a3.38,3.38,0,0,1,2.1.767l-.543.724a2.516,2.516,0,0,0-1.547-.6c-.85,0-1.239.46-1.239.976,0,.641.738.877,1.5,1.17.976.362,2.063.766,2.063,2.048,0,1.1-.878,2.02-2.479,2.02a4.079,4.079,0,0,1-2.522-.933Z" transform="translate(-10.448 -12.18)"/><path class="cls-8" d="M431.684,125.91h-1v-.864l1.06-.069.139-1.895h.962v1.895h1.824v.933h-1.824v3.762c0,.836.265,1.31,1.044,1.31a2.46,2.46,0,0,0,.767-.181l.223.864a4.176,4.176,0,0,1-1.254.25c-1.448,0-1.937-.919-1.937-2.257Z" transform="translate(-10.448 -12.18)"/><path class="cls-9" d="M36.514,62.595H41.78v.976H37.67v3.093h3.483v.975H37.67v4.1H36.514Z" transform="translate(-10.448 -12.18)"/><path class="cls-9" d="M42.964,64.963H44.12V69.1c0,1.268.376,1.811,1.268,1.811.7,0,1.184-.349,1.825-1.143V64.963h1.142v6.771h-.947l-.1-1.059h-.042A2.861,2.861,0,0,1,45.039,71.9c-1.435,0-2.076-.919-2.076-2.647Z" transform="translate(-10.448 -12.18)"/><path class="cls-9" d="M50.639,64.963h.947l.1.975h.042A3.192,3.192,0,0,1,54,64.8c1.421,0,2.062.92,2.062,2.647v4.291H54.916V67.6c0-1.268-.39-1.811-1.282-1.811-.7,0-1.17.362-1.853,1.045v4.9H50.639Z" transform="translate(-10.448 -12.18)"/><path class="cls-9" d="M60.711,64.8a2.791,2.791,0,0,1,1.895.78L62.55,64.42v-2.6h1.156v9.919h-.947l-.1-.794H62.62a3.056,3.056,0,0,1-2.048.961c-1.7,0-2.8-1.282-2.8-3.539C57.772,66.161,59.165,64.8,60.711,64.8Zm.111,6.144a2.291,2.291,0,0,0,1.728-.934V66.468a2.357,2.357,0,0,0-1.644-.71c-1.086,0-1.95,1.045-1.95,2.591C58.956,69.965,59.638,70.94,60.823,70.94Z" transform="translate(-10.448 -12.18)"/><path class="cls-9" d="M68.526,64.8c1.728,0,2.7,1.24,2.7,3.177a4.037,4.037,0,0,1-.042.626h-4.57a2.254,2.254,0,0,0,2.257,2.382,3.06,3.06,0,0,0,1.686-.529l.4.752a4.033,4.033,0,0,1-2.229.7,3.581,3.581,0,0,1-.209-7.1Zm1.7,3.051c0-1.379-.613-2.146-1.672-2.146a2.113,2.113,0,0,0-1.95,2.146Z" transform="translate(-10.448 -12.18)"/><path class="cls-9" d="M75.352,64.8a2.791,2.791,0,0,1,1.895.78l-.056-1.156v-2.6h1.156v9.919H77.4l-.1-.794h-.042a3.056,3.056,0,0,1-2.048.961c-1.7,0-2.8-1.282-2.8-3.539C72.413,66.161,73.806,64.8,75.352,64.8Zm.111,6.144a2.291,2.291,0,0,0,1.728-.934V66.468a2.357,2.357,0,0,0-1.644-.71c-1.087,0-1.951,1.045-1.951,2.591C73.6,69.965,74.28,70.94,75.464,70.94Z" transform="translate(-10.448 -12.18)"/><path class="cls-9" d="M11.675,79.311h1.156V84.7c0,2.2.934,2.9,2.132,2.9s2.159-.7,2.159-2.9V79.311h1.114v5.364c0,2.939-1.407,3.942-3.273,3.942s-3.288-1-3.288-3.942Z" transform="translate(-10.448 -12.18)"/><path class="cls-9" d="M21.733,89.021v2.285H20.591V81.679h.947l.1.78h.042a3.5,3.5,0,0,1,2.159-.948c1.742,0,2.675,1.352,2.675,3.455,0,2.3-1.379,3.65-2.925,3.65a3.141,3.141,0,0,1-1.881-.78Zm1.658-1.365c1.115,0,1.937-1.017,1.937-2.689,0-1.491-.5-2.494-1.783-2.494a2.852,2.852,0,0,0-1.811.919v3.553A2.682,2.682,0,0,0,23.391,87.656Z" transform="translate(-10.448 -12.18)"/><path class="cls-9" d="M30.955,81.512c1.658,0,3.134,1.3,3.134,3.566a3.158,3.158,0,1,1-6.269,0C27.821,82.808,29.3,81.512,30.955,81.512Zm0,6.158c1.17,0,1.95-1.045,1.95-2.591s-.78-2.619-1.95-2.619-1.95,1.059-1.95,2.619S29.8,87.669,30.955,87.669Z" transform="translate(-10.448 -12.18)"/><path class="cls-9" d="M35.873,81.679h.947l.1.975h.042a3.192,3.192,0,0,1,2.271-1.143c1.421,0,2.062.92,2.062,2.647V88.45H40.15V84.312c0-1.268-.39-1.811-1.282-1.811-.7,0-1.17.362-1.853,1.045v4.9H35.873Z" transform="translate(-10.448 -12.18)"/><path class="cls-9" d="M46.1,79.311h2.285c2.814,0,4.319,1.63,4.319,4.528s-1.5,4.611-4.263,4.611H46.1ZM48.3,87.5c2.131,0,3.2-1.352,3.2-3.664s-1.073-3.58-3.2-3.58H47.254V87.5Z" transform="translate(-10.448 -12.18)"/><path class="cls-9" d="M57.089,81.512c1.728,0,2.7,1.24,2.7,3.177a4.037,4.037,0,0,1-.042.626H55.18A2.254,2.254,0,0,0,57.437,87.7a3.06,3.06,0,0,0,1.686-.529l.4.752a4.033,4.033,0,0,1-2.229.7,3.581,3.581,0,0,1-.209-7.1Zm1.7,3.051c0-1.379-.613-2.146-1.672-2.146a2.113,2.113,0,0,0-1.95,2.146Z" transform="translate(-10.448 -12.18)"/><path class="cls-9" d="M65.113,84.159c0-.864-.293-1.7-1.393-1.7a3.639,3.639,0,0,0-2.02.724l-.46-.794a5.023,5.023,0,0,1,2.661-.878c1.658,0,2.354,1.1,2.354,2.787V88.45h-.947l-.1-.808h-.028a3.679,3.679,0,0,1-2.243.975,1.846,1.846,0,0,1-1.992-1.922C60.948,85.218,62.229,84.479,65.113,84.159ZM63.26,87.7a2.774,2.774,0,0,0,1.853-.905V84.911c-2.271.279-3.037.836-3.037,1.7A1.037,1.037,0,0,0,63.26,87.7Z" transform="translate(-10.448 -12.18)"/><path class="cls-9" d="M68.609,82.612h-1v-.864l1.059-.069.139-1.895h.961v1.895h1.825v.933H69.765v3.762c0,.836.265,1.31,1.045,1.31a2.46,2.46,0,0,0,.766-.181l.223.864a4.179,4.179,0,0,1-1.254.25c-1.449,0-1.937-.919-1.937-2.257Z" transform="translate(-10.448 -12.18)"/><path class="cls-9" d="M73.123,78.531h1.142v2.7l-.042,1.393a3.237,3.237,0,0,1,2.257-1.115c1.421,0,2.062.92,2.062,2.647V88.45H77.4V84.312c0-1.268-.39-1.811-1.282-1.811-.7,0-1.17.362-1.853,1.045v4.9H73.123Z" transform="translate(-10.448 -12.18)"/><rect class="cls-10" x="526.575" y="0.697" width="146.273" height="33.434"/><path class="cls-8" d="M581.622,31.955a3.581,3.581,0,0,0,2.522,1.143c1.2,0,1.908-.6,1.908-1.491,0-.934-.655-1.226-1.519-1.616l-1.31-.571a2.568,2.568,0,0,1-1.853-2.354,2.6,2.6,0,0,1,2.869-2.424,3.794,3.794,0,0,1,2.7,1.128l-.627.752a2.915,2.915,0,0,0-2.076-.864c-1.017,0-1.7.516-1.7,1.337,0,.877.794,1.212,1.519,1.519l1.3.557a2.544,2.544,0,0,1,1.88,2.438c0,1.449-1.184,2.6-3.106,2.6a4.433,4.433,0,0,1-3.2-1.351Z" transform="translate(-10.448 -12.18)"/><path class="cls-8" d="M590.065,34.518V36.8h-1.143V27.176h.947l.1.78h.041a3.506,3.506,0,0,1,2.16-.948c1.741,0,2.675,1.352,2.675,3.455,0,2.3-1.38,3.65-2.926,3.65a3.141,3.141,0,0,1-1.881-.78Zm1.657-1.365c1.114,0,1.937-1.017,1.937-2.689,0-1.491-.5-2.494-1.783-2.494a2.849,2.849,0,0,0-1.811.919v3.553A2.68,2.68,0,0,0,591.722,33.153Z" transform="translate(-10.448 -12.18)"/><path class="cls-8" d="M599.286,27.009c1.658,0,3.135,1.3,3.135,3.566a3.158,3.158,0,1,1-6.27,0C596.151,28.3,597.628,27.009,599.286,27.009Zm0,6.158c1.17,0,1.95-1.045,1.95-2.591s-.78-2.619-1.95-2.619-1.95,1.059-1.95,2.619S598.13,33.167,599.286,33.167Z" transform="translate(-10.448 -12.18)"/><path class="cls-8" d="M604.106,27.176h1.156v4.138c0,1.268.376,1.811,1.268,1.811.7,0,1.185-.349,1.825-1.143V27.176H609.5v6.771h-.947l-.1-1.059h-.042a2.862,2.862,0,0,1-2.229,1.226c-1.436,0-2.076-.919-2.076-2.647Z" transform="translate(-10.448 -12.18)"/><path class="cls-8" d="M611.6,32.415a3.045,3.045,0,0,0,1.992.808c.892,0,1.338-.474,1.338-1.059,0-.7-.809-1-1.547-1.282-.961-.348-2.02-.808-2.02-1.95,0-1.087.863-1.923,2.326-1.923a3.38,3.38,0,0,1,2.1.767l-.543.724a2.516,2.516,0,0,0-1.547-.6c-.85,0-1.239.46-1.239.976,0,.641.738.877,1.5,1.17.976.362,2.063.766,2.063,2.048,0,1.1-.878,2.02-2.479,2.02a4.079,4.079,0,0,1-2.522-.933Z" transform="translate(-10.448 -12.18)"/><path class="cls-8" d="M620.154,27.009c1.728,0,2.7,1.24,2.7,3.177a4.092,4.092,0,0,1-.042.626h-4.569a2.253,2.253,0,0,0,2.257,2.382,3.061,3.061,0,0,0,1.686-.529l.4.752a4.036,4.036,0,0,1-2.229.7,3.238,3.238,0,0,1-3.246-3.539A3.266,3.266,0,0,1,620.154,27.009Zm1.7,3.051c0-1.379-.613-2.146-1.672-2.146a2.114,2.114,0,0,0-1.951,2.146Z" transform="translate(-10.448 -12.18)"/><path class="cls-8" d="M627.8,31.1h-1.115v-.794H627.9l.251-2.062h-1.184v-.808h1.281l.32-2.549h.738l-.32,2.549h1.853l.335-2.549h.738l-.334,2.549h1.128v.808h-1.212l-.251,2.062h1.185V31.1h-1.282l-.348,2.842h-.738l.334-2.842h-1.839l-.349,2.842h-.752Zm2.688-.794.251-2.062H628.9l-.251,2.062Z" transform="translate(-10.448 -12.18)"/><path class="cls-8" d="M633.68,33.264c2.675-2.661,4.179-4.263,4.179-5.7a1.574,1.574,0,0,0-1.686-1.742,2.619,2.619,0,0,0-1.895,1.073l-.654-.655a3.488,3.488,0,0,1,2.688-1.351,2.469,2.469,0,0,1,2.661,2.619c0,1.671-1.519,3.33-3.622,5.53.487-.042,1.03-.083,1.49-.083h2.577v.989H633.68Z" transform="translate(-10.448 -12.18)"/><line class="cls-2" x1="298.853" y1="27.801" x2="325.972" y2="65.128"/><rect class="cls-7" x="278.586" y="152.89" width="188.587" height="241.93"/><path class="cls-8" d="M23.456,189.73a1.564,1.564,0,1,1,1.561,1.672A1.6,1.6,0,0,1,23.456,189.73Z" transform="translate(-10.448 -12.18)"/><path class="cls-8" d="M34.043,191.4a3.58,3.58,0,0,0,2.521,1.143c1.2,0,1.909-.6,1.909-1.491,0-.933-.655-1.226-1.519-1.615l-1.31-.571a2.569,2.569,0,0,1-1.853-2.354,2.6,2.6,0,0,1,2.87-2.424,3.791,3.791,0,0,1,2.7,1.128l-.627.752a2.914,2.914,0,0,0-2.076-.863c-1.017,0-1.7.516-1.7,1.337,0,.878.794,1.213,1.519,1.519l1.3.558a2.545,2.545,0,0,1,1.881,2.438c0,1.448-1.184,2.6-3.107,2.6a4.432,4.432,0,0,1-3.2-1.352Z" transform="translate(-10.448 -12.18)"/><path class="cls-8" d="M42.485,193.966v2.284H41.343v-9.626h.947l.1.78h.042a3.5,3.5,0,0,1,2.159-.947c1.742,0,2.675,1.351,2.675,3.455,0,2.3-1.379,3.649-2.925,3.649a3.135,3.135,0,0,1-1.881-.78Zm1.658-1.365c1.115,0,1.937-1.018,1.937-2.688,0-1.491-.5-2.494-1.783-2.494a2.851,2.851,0,0,0-1.811.92v3.552A2.68,2.68,0,0,0,44.143,192.6Z" transform="translate(-10.448 -12.18)"/><path class="cls-8" d="M51.707,186.457c1.658,0,3.134,1.295,3.134,3.566a3.158,3.158,0,1,1-6.269,0C48.573,187.752,50.05,186.457,51.707,186.457Zm0,6.157c1.17,0,1.95-1.045,1.95-2.591s-.78-2.619-1.95-2.619-1.95,1.059-1.95,2.619S50.551,192.614,51.707,192.614Z" transform="translate(-10.448 -12.18)"/><path class="cls-8" d="M56.527,186.624h1.156v4.138c0,1.268.376,1.811,1.268,1.811.7,0,1.184-.348,1.825-1.142v-4.807h1.142v6.771h-.947l-.1-1.059h-.042a2.861,2.861,0,0,1-2.229,1.226c-1.435,0-2.076-.919-2.076-2.646Z" transform="translate(-10.448 -12.18)"/><path class="cls-8" d="M64.022,191.862a3.044,3.044,0,0,0,1.992.808c.892,0,1.337-.474,1.337-1.059,0-.7-.808-1-1.546-1.281-.961-.349-2.02-.809-2.02-1.951,0-1.086.864-1.922,2.326-1.922a3.38,3.38,0,0,1,2.1.766l-.543.725a2.518,2.518,0,0,0-1.546-.6c-.85,0-1.24.459-1.24.975,0,.642.738.878,1.5,1.171.975.362,2.062.766,2.062,2.048,0,1.1-.878,2.02-2.48,2.02a4.075,4.075,0,0,1-2.521-.934Z" transform="translate(-10.448 -12.18)"/><path class="cls-8" d="M72.575,186.457c1.728,0,2.7,1.239,2.7,3.176a4.039,4.039,0,0,1-.042.627h-4.57a2.254,2.254,0,0,0,2.257,2.383,3.06,3.06,0,0,0,1.686-.529l.4.752a4.033,4.033,0,0,1-2.229.7,3.581,3.581,0,0,1-.209-7.1Zm1.7,3.051c0-1.379-.613-2.146-1.672-2.146a2.113,2.113,0,0,0-1.95,2.146Z" transform="translate(-10.448 -12.18)"/><path class="cls-8" d="M80.222,190.553H79.108v-.794H80.32l.25-2.062H79.386v-.808h1.282l.32-2.55h.738l-.32,2.55H83.26l.334-2.55h.738L84,186.889h1.128v.808H83.914l-.251,2.063h1.184v.794H83.566l-.349,2.842h-.738l.334-2.842H80.975l-.348,2.842h-.752Zm2.689-.794.25-2.062H81.323l-.251,2.063Z" transform="translate(-10.448 -12.18)"/><path class="cls-8" d="M86.1,192.712c2.675-2.661,4.18-4.263,4.18-5.7a1.574,1.574,0,0,0-1.686-1.741,2.618,2.618,0,0,0-1.895,1.073l-.655-.655a3.491,3.491,0,0,1,2.689-1.352,2.469,2.469,0,0,1,2.661,2.619c0,1.672-1.519,3.33-3.622,5.531.488-.042,1.031-.084,1.491-.084h2.577v.989H86.1Z" transform="translate(-10.448 -12.18)"/><path class="cls-8" d="M103.25,193.562a7.17,7.17,0,0,1-2.1-1.045,3.84,3.84,0,0,1-2.633,1.045,2.553,2.553,0,0,1-2.786-2.535,3.282,3.282,0,0,1,1.8-2.633,4.914,4.914,0,0,1-.6-2.146,2.067,2.067,0,0,1,2.117-2.159,1.686,1.686,0,0,1,1.8,1.811c0,1.2-1.045,1.965-2.062,2.7a11.9,11.9,0,0,0,2.313,2.563,7.972,7.972,0,0,0,1.281-2.7h1.073a10.382,10.382,0,0,1-1.6,3.273,6.05,6.05,0,0,0,1.714.878Zm-4.611-.919a2.671,2.671,0,0,0,1.741-.738,13.867,13.867,0,0,1-2.4-2.717,2.408,2.408,0,0,0-1.143,1.77A1.685,1.685,0,0,0,98.639,192.643Zm-.292-4.807c.836-.558,1.56-1.114,1.56-1.923,0-.529-.25-1-.864-1a1.188,1.188,0,0,0-1.128,1.323A3.844,3.844,0,0,0,98.346,187.836Z" transform="translate(-10.448 -12.18)"/><path class="cls-8" d="M110.48,186.457a2.791,2.791,0,0,1,1.978.808l-.571.738a2.048,2.048,0,0,0-1.365-.6c-1.226,0-2.117,1.059-2.117,2.619s.85,2.591,2.089,2.591a2.414,2.414,0,0,0,1.588-.683l.515.752a3.349,3.349,0,0,1-2.2.878c-1.8,0-3.177-1.3-3.177-3.538A3.279,3.279,0,0,1,110.48,186.457Z" transform="translate(-10.448 -12.18)"/><path class="cls-8" d="M114.074,183.476h1.142v2.7l-.042,1.394a3.235,3.235,0,0,1,2.257-1.114c1.421,0,2.062.919,2.062,2.646v4.291h-1.142v-4.138c0-1.268-.39-1.811-1.282-1.811-.7,0-1.17.361-1.853,1.044v4.9h-1.142Z" transform="translate(-10.448 -12.18)"/><path class="cls-8" d="M121.443,184.492a.8.8,0,0,1,1.588,0,.8.8,0,0,1-1.588,0Zm.209,2.132h1.142v6.771h-1.142Z" transform="translate(-10.448 -12.18)"/><path class="cls-8" d="M125.079,183.476h1.142v8.638c0,.361.153.5.32.5a.978.978,0,0,0,.251-.027l.153.863a1.545,1.545,0,0,1-.655.111c-.864,0-1.212-.543-1.212-1.532Z" transform="translate(-10.448 -12.18)"/><path class="cls-8" d="M131.083,186.457a2.786,2.786,0,0,1,1.895.78l-.056-1.156v-2.605h1.156v9.919h-.947l-.1-.794h-.042a3.053,3.053,0,0,1-2.048.961c-1.7,0-2.8-1.281-2.8-3.538C128.143,187.822,129.536,186.457,131.083,186.457Zm.111,6.144a2.291,2.291,0,0,0,1.728-.934v-3.538a2.356,2.356,0,0,0-1.644-.711c-1.087,0-1.951,1.045-1.951,2.591C129.327,191.625,130.01,192.6,131.194,192.6Z" transform="translate(-10.448 -12.18)"/><path class="cls-8" d="M136.363,186.624h.947l.1,1.226h.042a2.316,2.316,0,0,1,1.922-1.393,1.7,1.7,0,0,1,.725.139l-.223,1a1.878,1.878,0,0,0-.655-.112c-.571,0-1.253.418-1.713,1.561v4.347h-1.142Z" transform="translate(-10.448 -12.18)"/><path class="cls-8" d="M143.592,186.457c1.728,0,2.7,1.239,2.7,3.176a4.039,4.039,0,0,1-.042.627h-4.57a2.254,2.254,0,0,0,2.257,2.383,3.06,3.06,0,0,0,1.686-.529l.4.752a4.033,4.033,0,0,1-2.229.7,3.581,3.581,0,0,1-.209-7.1Zm1.7,3.051c0-1.379-.613-2.146-1.672-2.146a2.113,2.113,0,0,0-1.95,2.146Z" transform="translate(-10.448 -12.18)"/><path class="cls-8" d="M147.967,186.624h.947l.1.976h.042a3.189,3.189,0,0,1,2.271-1.143c1.421,0,2.062.919,2.062,2.646v4.291h-1.142v-4.138c0-1.268-.39-1.811-1.282-1.811-.7,0-1.17.361-1.853,1.044v4.9h-1.142Z" transform="translate(-10.448 -12.18)"/><path class="cls-8" d="M158.4,186.624h.947l.1.976h.042a2.972,2.972,0,0,1,2.1-1.143,1.776,1.776,0,0,1,1.867,1.295,3.2,3.2,0,0,1,2.229-1.295c1.394,0,2.062.919,2.062,2.646v4.291h-1.143v-4.138c0-1.268-.4-1.811-1.253-1.811a2.483,2.483,0,0,0-1.7,1.044v4.9H162.51v-4.138c0-1.268-.4-1.811-1.268-1.811a2.54,2.54,0,0,0-1.7,1.044v4.9H158.4Z" transform="translate(-10.448 -12.18)"/><path class="cls-8" d="M173.78,189.1c0-.863-.293-1.7-1.393-1.7a3.64,3.64,0,0,0-2.02.725l-.46-.795a5.031,5.031,0,0,1,2.661-.877c1.658,0,2.354,1.1,2.354,2.786v4.151h-.947l-.1-.808h-.028a3.678,3.678,0,0,1-2.243.975,1.846,1.846,0,0,1-1.992-1.922C169.615,190.162,170.9,189.424,173.78,189.1Zm-1.853,3.539a2.771,2.771,0,0,0,1.853-.906v-1.88c-2.271.278-3.037.835-3.037,1.7A1.038,1.038,0,0,0,171.927,192.643Z" transform="translate(-10.448 -12.18)"/><path class="cls-8" d="M177.137,195.358c.766,0,1.253-.612,1.532-1.448l.153-.5-2.717-6.784h1.185l1.379,3.747c.209.586.446,1.282.655,1.909h.056c.2-.613.39-1.31.571-1.909l1.212-3.747h1.115l-2.549,7.328c-.474,1.337-1.17,2.354-2.536,2.354a2.258,2.258,0,0,1-.794-.14l.223-.905A2.022,2.022,0,0,0,177.137,195.358Z" transform="translate(-10.448 -12.18)"/><path class="cls-8" d="M35.041,200.193h1.142v2.7l-.028,1.227a3.342,3.342,0,0,1,2.118-.947c1.755,0,2.688,1.351,2.688,3.44,0,2.313-1.379,3.664-2.925,3.664a3.065,3.065,0,0,1-1.937-.836h-.042l-.1.669h-.919Zm2.8,9.125c1.115,0,1.937-1.018,1.937-2.688,0-1.491-.5-2.494-1.783-2.494a2.79,2.79,0,0,0-1.811.92v3.552A2.65,2.65,0,0,0,37.841,209.318Z" transform="translate(-10.448 -12.18)"/><path class="cls-8" d="M45.308,203.175c1.728,0,2.7,1.239,2.7,3.176a4.039,4.039,0,0,1-.042.627H43.4a2.254,2.254,0,0,0,2.257,2.383,3.06,3.06,0,0,0,1.686-.529l.4.752a4.033,4.033,0,0,1-2.229.7,3.581,3.581,0,0,1-.209-7.1Zm1.7,3.051c0-1.379-.613-2.146-1.672-2.146a2.113,2.113,0,0,0-1.95,2.146Z" transform="translate(-10.448 -12.18)"/><path class="cls-8" d="M52.5,200.193h1.142v2.7l-.028,1.227a3.342,3.342,0,0,1,2.118-.947c1.755,0,2.688,1.351,2.688,3.44,0,2.313-1.379,3.664-2.925,3.664a3.065,3.065,0,0,1-1.937-.836h-.042l-.1.669H52.5Zm2.8,9.125c1.115,0,1.937-1.018,1.937-2.688,0-1.491-.5-2.494-1.783-2.494a2.79,2.79,0,0,0-1.811.92v3.552A2.65,2.65,0,0,0,55.3,209.318Z" transform="translate(-10.448 -12.18)"/><path class="cls-8" d="M62.763,203.175c1.728,0,2.7,1.239,2.7,3.176a4.039,4.039,0,0,1-.042.627h-4.57a2.254,2.254,0,0,0,2.257,2.383,3.06,3.06,0,0,0,1.686-.529l.4.752a4.033,4.033,0,0,1-2.229.7,3.581,3.581,0,0,1-.209-7.1Zm1.7,3.051c0-1.379-.613-2.146-1.672-2.146a2.113,2.113,0,0,0-1.95,2.146Z" transform="translate(-10.448 -12.18)"/><path class="cls-8" d="M67.137,203.342h.947l.1.975h.042a3.191,3.191,0,0,1,2.271-1.142c1.421,0,2.062.919,2.062,2.646v4.291H71.414v-4.138c0-1.268-.39-1.811-1.282-1.811-.7,0-1.17.361-1.853,1.045v4.9H67.137Z" transform="translate(-10.448 -12.18)"/><path class="cls-8" d="M77.292,203.175c1.728,0,2.7,1.239,2.7,3.176a4.039,4.039,0,0,1-.042.627h-4.57a2.254,2.254,0,0,0,2.257,2.383,3.06,3.06,0,0,0,1.686-.529l.4.752a4.033,4.033,0,0,1-2.229.7,3.581,3.581,0,0,1-.209-7.1Zm1.7,3.051c0-1.379-.613-2.146-1.672-2.146a2.113,2.113,0,0,0-1.95,2.146Z" transform="translate(-10.448 -12.18)"/><path class="cls-8" d="M84.718,201.127a1.907,1.907,0,0,0-.766-.168c-.641,0-.947.446-.947,1.31v1.073h1.435v.934H83v5.837H81.862v-5.837h-.919v-.864l.919-.069v-1.073c0-1.379.627-2.242,1.978-2.242a3.074,3.074,0,0,1,1.128.223Z" transform="translate(-10.448 -12.18)"/><path class="cls-8" d="M85.525,201.21a.8.8,0,0,1,1.588,0,.8.8,0,0,1-1.588,0Zm.209,2.132h1.142v6.771H85.734Z" transform="translate(-10.448 -12.18)"/><path class="cls-8" d="M91.919,203.175a2.791,2.791,0,0,1,1.978.808l-.571.738a2.048,2.048,0,0,0-1.365-.6c-1.226,0-2.117,1.059-2.117,2.619s.85,2.591,2.089,2.591a2.414,2.414,0,0,0,1.588-.683l.516.752a3.351,3.351,0,0,1-2.2.878c-1.8,0-3.177-1.3-3.177-3.538A3.279,3.279,0,0,1,91.919,203.175Z" transform="translate(-10.448 -12.18)"/><path class="cls-8" d="M95.3,201.21a.8.8,0,0,1,1.588,0,.8.8,0,0,1-1.588,0Zm.209,2.132h1.142v6.771H95.513Z" transform="translate(-10.448 -12.18)"/><path class="cls-8" d="M102.771,205.821c0-.863-.293-1.7-1.393-1.7a3.64,3.64,0,0,0-2.02.725l-.46-.795a5.031,5.031,0,0,1,2.661-.877c1.658,0,2.354,1.1,2.354,2.786v4.151h-.947l-.1-.808h-.028a3.678,3.678,0,0,1-2.243.975,1.846,1.846,0,0,1-1.992-1.922C98.606,206.88,99.887,206.142,102.771,205.821Zm-1.853,3.539a2.771,2.771,0,0,0,1.853-.906v-1.88c-2.271.278-3.037.835-3.037,1.7A1.038,1.038,0,0,0,100.918,209.36Z" transform="translate(-10.448 -12.18)"/><path class="cls-8" d="M106.073,203.342h.947l.1,1.226h.042a2.316,2.316,0,0,1,1.922-1.393,1.7,1.7,0,0,1,.725.139l-.223,1a1.9,1.9,0,0,0-.655-.111c-.571,0-1.253.418-1.713,1.561v4.347h-1.142Z" transform="translate(-10.448 -12.18)"/><path class="cls-8" d="M110.7,201.21a.8.8,0,0,1,1.588,0,.8.8,0,0,1-1.588,0Zm.209,2.132h1.142v6.771h-1.142Z" transform="translate(-10.448 -12.18)"/><path class="cls-8" d="M116.868,203.175c1.728,0,2.7,1.239,2.7,3.176a4.039,4.039,0,0,1-.042.627h-4.57a2.254,2.254,0,0,0,2.257,2.383,3.06,3.06,0,0,0,1.686-.529l.4.752a4.033,4.033,0,0,1-2.229.7,3.581,3.581,0,0,1-.209-7.1Zm1.7,3.051c0-1.379-.613-2.146-1.672-2.146a2.113,2.113,0,0,0-1.95,2.146Z" transform="translate(-10.448 -12.18)"/><path class="cls-8" d="M121.061,208.58a3.044,3.044,0,0,0,1.992.808c.892,0,1.337-.474,1.337-1.059,0-.7-.808-1-1.546-1.281-.961-.349-2.02-.809-2.02-1.951,0-1.086.864-1.922,2.326-1.922a3.38,3.38,0,0,1,2.1.766l-.543.725a2.512,2.512,0,0,0-1.546-.6c-.85,0-1.24.459-1.24.975,0,.642.738.878,1.5,1.171.975.362,2.062.766,2.062,2.048,0,1.1-.878,2.02-2.48,2.02a4.075,4.075,0,0,1-2.521-.934Z" transform="translate(-10.448 -12.18)"/><path class="cls-8" d="M23.456,239.882a1.564,1.564,0,1,1,1.561,1.672A1.6,1.6,0,0,1,23.456,239.882Z" transform="translate(-10.448 -12.18)"/><path class="cls-8" d="M34.015,234.407h2.8c2.02,0,3.371.683,3.371,2.688,0,1.923-1.365,2.828-3.371,2.828H35.172v3.622H34.015Zm2.661,4.569c1.588,0,2.354-.585,2.354-1.881,0-1.323-.78-1.755-2.354-1.755h-1.5v3.636Z" transform="translate(-10.448 -12.18)"/><path class="cls-8" d="M41.928,236.775h.947l.1,1.226h.042a2.316,2.316,0,0,1,1.922-1.393,1.7,1.7,0,0,1,.725.139l-.223,1a1.9,1.9,0,0,0-.655-.111c-.571,0-1.253.418-1.713,1.561v4.347H41.928Z" transform="translate(-10.448 -12.18)"/><path class="cls-8" d="M46.553,234.644a.8.8,0,0,1,1.588,0,.8.8,0,0,1-1.588,0Zm.209,2.132H47.9v6.771H46.761Z" transform="translate(-10.448 -12.18)"/><path class="cls-8" d="M50.188,236.775h.947l.1.975h.042a3.191,3.191,0,0,1,2.271-1.142c1.421,0,2.062.919,2.062,2.646v4.291H54.465v-4.138c0-1.268-.39-1.811-1.282-1.811-.7,0-1.17.361-1.853,1.045v4.9H50.188Z" transform="translate(-10.448 -12.18)"/><path class="cls-8" d="M60.567,236.608a2.791,2.791,0,0,1,1.978.808l-.571.738a2.048,2.048,0,0,0-1.365-.6c-1.226,0-2.117,1.059-2.117,2.619s.85,2.591,2.089,2.591a2.414,2.414,0,0,0,1.588-.683l.516.752a3.351,3.351,0,0,1-2.2.878c-1.8,0-3.177-1.3-3.177-3.538A3.279,3.279,0,0,1,60.567,236.608Z" transform="translate(-10.448 -12.18)"/><path class="cls-8" d="M63.952,234.644a.8.8,0,0,1,1.588,0,.8.8,0,0,1-1.588,0Zm.209,2.132H65.3v6.771H64.161Z" transform="translate(-10.448 -12.18)"/><path class="cls-8" d="M68.73,244.117V246.4H67.588v-9.626h.947l.1.78h.042a3.5,3.5,0,0,1,2.159-.947c1.742,0,2.675,1.351,2.675,3.455,0,2.3-1.379,3.649-2.925,3.649a3.135,3.135,0,0,1-1.881-.78Zm1.658-1.365c1.115,0,1.937-1.018,1.937-2.688,0-1.491-.5-2.494-1.783-2.494a2.851,2.851,0,0,0-1.811.92v3.552A2.679,2.679,0,0,0,70.387,242.752Z" transform="translate(-10.448 -12.18)"/><path class="cls-8" d="M78.955,239.255c0-.863-.293-1.7-1.393-1.7a3.64,3.64,0,0,0-2.02.725l-.46-.795a5.031,5.031,0,0,1,2.661-.877c1.658,0,2.354,1.1,2.354,2.786v4.151H79.15l-.1-.808h-.028a3.678,3.678,0,0,1-2.243.975,1.846,1.846,0,0,1-1.992-1.922C74.789,240.313,76.071,239.575,78.955,239.255ZM77.1,242.794a2.771,2.771,0,0,0,1.853-.906v-1.88c-2.271.278-3.037.835-3.037,1.7A1.038,1.038,0,0,0,77.1,242.794Z" transform="translate(-10.448 -12.18)"/><path class="cls-8" d="M82.257,233.627H83.4v8.638c0,.361.153.5.32.5a.978.978,0,0,0,.251-.027l.153.863a1.545,1.545,0,0,1-.655.111c-.864,0-1.212-.543-1.212-1.532Z" transform="translate(-10.448 -12.18)"/><path class="cls-8" d="M92.453,239.255c0-.863-.292-1.7-1.393-1.7a3.643,3.643,0,0,0-2.021.725l-.459-.795a5.031,5.031,0,0,1,2.661-.877c1.658,0,2.354,1.1,2.354,2.786v4.151h-.947l-.1-.808h-.028a3.678,3.678,0,0,1-2.243.975,1.846,1.846,0,0,1-1.992-1.922C88.288,240.313,89.57,239.575,92.453,239.255ZM90.6,242.794a2.771,2.771,0,0,0,1.853-.906v-1.88c-2.271.278-3.037.835-3.037,1.7A1.037,1.037,0,0,0,90.6,242.794Z" transform="translate(-10.448 -12.18)"/><path class="cls-8" d="M95.95,237.709h-1v-.864l1.059-.069.139-1.895h.961v1.895h1.825v.934H97.106v3.761c0,.836.265,1.31,1.045,1.31a2.446,2.446,0,0,0,.766-.181l.223.863a4.164,4.164,0,0,1-1.254.251c-1.449,0-1.937-.919-1.937-2.257Z" transform="translate(-10.448 -12.18)"/><path class="cls-8" d="M105.283,235.382h-2.758v-.975h6.687v.975h-2.758v8.164h-1.17Z" transform="translate(-10.448 -12.18)"/><path class="cls-8" d="M110.117,236.775h.947l.1,1.226h.042a2.316,2.316,0,0,1,1.922-1.393,1.7,1.7,0,0,1,.725.139l-.223,1a1.9,1.9,0,0,0-.655-.111c-.571,0-1.253.418-1.713,1.561v4.347h-1.142Z" transform="translate(-10.448 -12.18)"/><path class="cls-8" d="M114.853,236.775h1.156v4.138c0,1.268.376,1.811,1.268,1.811.7,0,1.184-.348,1.825-1.142v-4.807h1.142v6.771H119.3l-.1-1.059h-.042a2.861,2.861,0,0,1-2.229,1.226c-1.435,0-2.076-.919-2.076-2.646Z" transform="translate(-10.448 -12.18)"/><path class="cls-8" d="M122.348,242.014a3.044,3.044,0,0,0,1.992.808c.892,0,1.337-.474,1.337-1.059,0-.7-.808-1-1.546-1.281-.961-.349-2.02-.809-2.02-1.951,0-1.086.864-1.922,2.326-1.922a3.38,3.38,0,0,1,2.1.766L126,238.1a2.512,2.512,0,0,0-1.546-.6c-.85,0-1.24.459-1.24.975,0,.642.738.878,1.5,1.171.975.362,2.062.766,2.062,2.048,0,1.1-.878,2.02-2.48,2.02a4.075,4.075,0,0,1-2.521-.934Z" transform="translate(-10.448 -12.18)"/><path class="cls-8" d="M128.561,237.709h-1v-.864l1.059-.069.139-1.895h.961v1.895h1.825v.934h-1.825v3.761c0,.836.265,1.31,1.045,1.31a2.446,2.446,0,0,0,.766-.181l.223.863a4.164,4.164,0,0,1-1.254.251c-1.449,0-1.937-.919-1.937-2.257Z" transform="translate(-10.448 -12.18)"/><path class="cls-8" d="M135.47,236.608c1.728,0,2.7,1.239,2.7,3.176a4.039,4.039,0,0,1-.042.627h-4.57a2.254,2.254,0,0,0,2.257,2.383,3.06,3.06,0,0,0,1.686-.529l.4.752a4.033,4.033,0,0,1-2.229.7,3.581,3.581,0,0,1-.209-7.1Zm1.7,3.051c0-1.379-.613-2.146-1.672-2.146a2.113,2.113,0,0,0-1.95,2.146Z" transform="translate(-10.448 -12.18)"/><path class="cls-8" d="M142.38,236.608c1.728,0,2.7,1.239,2.7,3.176a4.039,4.039,0,0,1-.042.627h-4.57a2.254,2.254,0,0,0,2.257,2.383,3.06,3.06,0,0,0,1.686-.529l.4.752a4.033,4.033,0,0,1-2.229.7,3.581,3.581,0,0,1-.209-7.1Zm1.7,3.051c0-1.379-.613-2.146-1.672-2.146a2.113,2.113,0,0,0-1.95,2.146Z" transform="translate(-10.448 -12.18)"/><path class="cls-8" d="M146.35,237.012a1.913,1.913,0,0,0,1.045-1.741.31.31,0,0,1-.111.014.691.691,0,0,1-.738-.7.714.714,0,0,1,.738-.78c.543,0,.878.46.878,1.269a2.7,2.7,0,0,1-1.491,2.466Z" transform="translate(-10.448 -12.18)"/><path class="cls-8" d="M149.234,242.014a3.044,3.044,0,0,0,1.992.808c.892,0,1.337-.474,1.337-1.059,0-.7-.808-1-1.546-1.281-.961-.349-2.02-.809-2.02-1.951,0-1.086.864-1.922,2.326-1.922a3.38,3.38,0,0,1,2.1.766l-.543.725a2.512,2.512,0,0,0-1.546-.6c-.85,0-1.24.459-1.24.975,0,.642.738.878,1.5,1.171.975.362,2.062.766,2.062,2.048,0,1.1-.878,2.02-2.48,2.02a4.075,4.075,0,0,1-2.521-.934Z" transform="translate(-10.448 -12.18)"/><path class="cls-8" d="M35.493,253.324a2.786,2.786,0,0,1,1.895.78l-.056-1.156v-2.605h1.156v9.919h-.947l-.1-.794H37.4a3.053,3.053,0,0,1-2.048.961c-1.7,0-2.8-1.281-2.8-3.538C32.553,254.689,33.947,253.324,35.493,253.324Zm.111,6.144a2.291,2.291,0,0,0,1.728-.934V255a2.356,2.356,0,0,0-1.644-.711c-1.087,0-1.951,1.045-1.951,2.591C33.738,258.492,34.42,259.468,35.6,259.468Z" transform="translate(-10.448 -12.18)"/><path class="cls-8" d="M40.564,251.359a.8.8,0,0,1,1.588,0,.8.8,0,0,1-1.588,0Zm.209,2.132h1.142v6.771H40.773Z" transform="translate(-10.448 -12.18)"/><path class="cls-8" d="M44.018,258.729a3.044,3.044,0,0,0,1.992.808c.892,0,1.337-.474,1.337-1.059,0-.7-.808-1-1.546-1.281-.961-.349-2.02-.809-2.02-1.951,0-1.086.864-1.922,2.326-1.922a3.38,3.38,0,0,1,2.1.766l-.543.725a2.518,2.518,0,0,0-1.546-.6c-.85,0-1.24.459-1.24.975,0,.642.738.878,1.5,1.171.975.362,2.062.766,2.062,2.048,0,1.1-.878,2.02-2.48,2.02a4.075,4.075,0,0,1-2.521-.934Z" transform="translate(-10.448 -12.18)"/><path class="cls-8" d="M52.795,253.324a2.791,2.791,0,0,1,1.978.808l-.571.738a2.048,2.048,0,0,0-1.365-.6c-1.226,0-2.117,1.059-2.117,2.619s.85,2.591,2.089,2.591A2.414,2.414,0,0,0,54.4,258.8l.515.752a3.349,3.349,0,0,1-2.2.878c-1.8,0-3.177-1.3-3.177-3.538A3.279,3.279,0,0,1,52.795,253.324Z" transform="translate(-10.448 -12.18)"/><path class="cls-8" d="M56.388,253.491h.947l.1,1.226h.042a2.316,2.316,0,0,1,1.922-1.393,1.7,1.7,0,0,1,.725.139l-.223,1a1.878,1.878,0,0,0-.655-.112c-.571,0-1.253.418-1.713,1.561v4.347H56.388Z" transform="translate(-10.448 -12.18)"/><path class="cls-8" d="M63.618,253.324c1.728,0,2.7,1.239,2.7,3.176a4.039,4.039,0,0,1-.042.627H61.71a2.254,2.254,0,0,0,2.257,2.383,3.06,3.06,0,0,0,1.686-.529l.4.752a4.033,4.033,0,0,1-2.229.7,3.581,3.581,0,0,1-.209-7.1Zm1.7,3.051c0-1.379-.613-2.146-1.672-2.146a2.113,2.113,0,0,0-1.95,2.146Z" transform="translate(-10.448 -12.18)"/><path class="cls-8" d="M68.006,254.425H67v-.864l1.059-.069L68.2,251.6h.961v1.895h1.825v.934H69.162v3.761c0,.836.265,1.31,1.045,1.31a2.446,2.446,0,0,0,.766-.181l.223.863a4.164,4.164,0,0,1-1.254.251c-1.449,0-1.937-.919-1.937-2.257Z" transform="translate(-10.448 -12.18)"/><path class="cls-8" d="M72.311,251.359a.8.8,0,0,1,1.588,0,.8.8,0,0,1-1.588,0Zm.209,2.132h1.142v6.771H72.52Z" transform="translate(-10.448 -12.18)"/><path class="cls-8" d="M78.579,253.324c1.658,0,3.134,1.295,3.134,3.566a3.158,3.158,0,1,1-6.269,0C75.445,254.619,76.922,253.324,78.579,253.324Zm0,6.157c1.17,0,1.95-1.045,1.95-2.591s-.78-2.619-1.95-2.619-1.95,1.059-1.95,2.619S77.423,259.481,78.579,259.481Z" transform="translate(-10.448 -12.18)"/><path class="cls-8" d="M83.5,253.491h.947l.1.976h.042a3.189,3.189,0,0,1,2.271-1.143c1.421,0,2.062.919,2.062,2.646v4.291H87.774v-4.138c0-1.268-.39-1.811-1.282-1.811-.7,0-1.17.361-1.853,1.044v4.9H83.5Z" transform="translate(-10.448 -12.18)"/><path class="cls-8" d="M23.456,290.032a1.564,1.564,0,1,1,1.561,1.672A1.6,1.6,0,0,1,23.456,290.032Z" transform="translate(-10.448 -12.18)"/><path class="cls-8" d="M34.015,284.558h1.2l3.3,5.739.989,1.895h.056c-.056-.919-.139-1.95-.139-2.911v-4.723h1.1V293.7h-1.2l-3.315-5.754-.989-1.881h-.056c.07.92.153,1.9.153,2.856V293.7h-1.1Z" transform="translate(-10.448 -12.18)"/><path class="cls-8" d="M45.55,286.759c1.658,0,3.135,1.295,3.135,3.566a3.158,3.158,0,1,1-6.27,0C42.415,288.054,43.892,286.759,45.55,286.759Zm0,6.157c1.17,0,1.95-1.045,1.95-2.591s-.78-2.619-1.95-2.619-1.95,1.059-1.95,2.619S44.393,292.916,45.55,292.916Z" transform="translate(-10.448 -12.18)"/><path class="cls-8" d="M50.662,287.859h-1V287l1.059-.069.139-1.895h.961v1.895h1.825v.934H51.818v3.761c0,.836.265,1.31,1.045,1.31a2.446,2.446,0,0,0,.766-.181l.223.863a4.164,4.164,0,0,1-1.254.251c-1.449,0-1.937-.919-1.937-2.257Z" transform="translate(-10.448 -12.18)"/><path class="cls-8" d="M57.781,284.794a.8.8,0,0,1,1.588,0,.8.8,0,0,1-1.588,0Zm.209,2.132h1.142V293.7H57.99Z" transform="translate(-10.448 -12.18)"/><path class="cls-8" d="M61.417,286.926h.947l.1.975H62.5a3.191,3.191,0,0,1,2.271-1.142c1.421,0,2.062.919,2.062,2.646V293.7H65.694v-4.138c0-1.268-.39-1.811-1.282-1.811-.7,0-1.17.361-1.853,1.045v4.9H61.417Z" transform="translate(-10.448 -12.18)"/><path class="cls-8" d="M71.99,291.7a3.58,3.58,0,0,0,2.521,1.143c1.2,0,1.909-.6,1.909-1.491,0-.933-.655-1.226-1.519-1.615l-1.31-.571a2.569,2.569,0,0,1-1.853-2.354,2.6,2.6,0,0,1,2.87-2.424,3.791,3.791,0,0,1,2.7,1.128l-.627.752a2.914,2.914,0,0,0-2.076-.863c-1.017,0-1.7.516-1.7,1.337,0,.878.794,1.213,1.519,1.519l1.3.558a2.545,2.545,0,0,1,1.881,2.438c0,1.448-1.184,2.6-3.107,2.6a4.432,4.432,0,0,1-3.2-1.352Z" transform="translate(-10.448 -12.18)"/><path class="cls-8" d="M80.431,294.268v2.284H79.289v-9.626h.947l.1.78h.042a3.5,3.5,0,0,1,2.159-.947c1.742,0,2.675,1.351,2.675,3.455,0,2.3-1.379,3.649-2.925,3.649a3.135,3.135,0,0,1-1.881-.78Zm1.658-1.365c1.115,0,1.937-1.018,1.937-2.688,0-1.491-.5-2.494-1.783-2.494a2.851,2.851,0,0,0-1.811.92v3.552A2.68,2.68,0,0,0,82.089,292.9Z" transform="translate(-10.448 -12.18)"/><path class="cls-8" d="M89.654,286.759c1.658,0,3.134,1.295,3.134,3.566a3.158,3.158,0,1,1-6.269,0C86.519,288.054,88,286.759,89.654,286.759Zm0,6.157c1.17,0,1.95-1.045,1.95-2.591s-.78-2.619-1.95-2.619-1.95,1.059-1.95,2.619S88.5,292.916,89.654,292.916Z" transform="translate(-10.448 -12.18)"/><path class="cls-8" d="M94.473,286.926H95.63v4.138c0,1.268.376,1.811,1.268,1.811.7,0,1.184-.348,1.825-1.142v-4.807h1.142V293.7h-.947l-.1-1.059h-.042a2.861,2.861,0,0,1-2.229,1.226c-1.435,0-2.076-.919-2.076-2.646Z" transform="translate(-10.448 -12.18)"/><path class="cls-8" d="M101.969,292.164a3.044,3.044,0,0,0,1.992.808c.892,0,1.337-.474,1.337-1.059,0-.7-.808-1-1.546-1.281-.961-.349-2.02-.809-2.02-1.951,0-1.086.864-1.922,2.326-1.922a3.38,3.38,0,0,1,2.1.766l-.543.725a2.512,2.512,0,0,0-1.546-.6c-.85,0-1.24.459-1.24.975,0,.642.738.878,1.5,1.171.975.362,2.062.766,2.062,2.048,0,1.1-.878,2.02-2.48,2.02a4.075,4.075,0,0,1-2.521-.934Z" transform="translate(-10.448 -12.18)"/><path class="cls-8" d="M110.521,286.759c1.728,0,2.7,1.239,2.7,3.176a4.039,4.039,0,0,1-.042.627h-4.57a2.254,2.254,0,0,0,2.257,2.383,3.06,3.06,0,0,0,1.686-.529l.4.752a4.033,4.033,0,0,1-2.229.7,3.581,3.581,0,0,1-.209-7.1Zm1.7,3.051c0-1.379-.613-2.146-1.672-2.146a2.113,2.113,0,0,0-1.95,2.146Z" transform="translate(-10.448 -12.18)"/><path class="cls-8" d="M118.169,290.854h-1.114v-.794h1.212l.25-2.062h-1.184v-.808h1.282l.32-2.55h.738l-.32,2.55h1.853l.334-2.55h.738l-.334,2.55h1.128V288h-1.212l-.251,2.063h1.184v.794h-1.281l-.349,2.842h-.738l.334-2.842h-1.839l-.349,2.842h-.752Zm2.689-.794.25-2.062H119.27l-.25,2.063Z" transform="translate(-10.448 -12.18)"/><path class="cls-8" d="M124.048,293.014c2.675-2.661,4.18-4.263,4.18-5.7a1.574,1.574,0,0,0-1.686-1.741,2.618,2.618,0,0,0-1.895,1.073l-.655-.655a3.491,3.491,0,0,1,2.689-1.352,2.469,2.469,0,0,1,2.661,2.619c0,1.672-1.519,3.33-3.622,5.531.488-.042,1.031-.084,1.491-.084h2.577v.989h-5.74Z" transform="translate(-10.448 -12.18)"/><path class="cls-8" d="M131.292,287.162a1.913,1.913,0,0,0,1.045-1.741.31.31,0,0,1-.111.014.691.691,0,0,1-.738-.7.714.714,0,0,1,.738-.78c.543,0,.878.46.878,1.269a2.7,2.7,0,0,1-1.491,2.466Z" transform="translate(-10.448 -12.18)"/><path class="cls-8" d="M134.161,292.164a3.044,3.044,0,0,0,1.992.808c.892,0,1.337-.474,1.337-1.059,0-.7-.808-1-1.546-1.281-.961-.349-2.02-.809-2.02-1.951,0-1.086.864-1.922,2.326-1.922a3.38,3.38,0,0,1,2.1.766l-.543.725a2.512,2.512,0,0,0-1.546-.6c-.85,0-1.24.459-1.24.975,0,.642.738.878,1.5,1.171.975.362,2.062.766,2.062,2.048,0,1.1-.878,2.02-2.48,2.02a4.075,4.075,0,0,1-2.521-.934Z" transform="translate(-10.448 -12.18)"/><path class="cls-8" d="M145.529,286.759c1.728,0,2.7,1.239,2.7,3.176a4.039,4.039,0,0,1-.042.627h-4.57a2.254,2.254,0,0,0,2.257,2.383,3.06,3.06,0,0,0,1.686-.529l.4.752a4.033,4.033,0,0,1-2.229.7,3.581,3.581,0,0,1-.209-7.1Zm1.7,3.051c0-1.379-.613-2.146-1.672-2.146a2.113,2.113,0,0,0-1.95,2.146Z" transform="translate(-10.448 -12.18)"/><path class="cls-8" d="M149.722,292.164a3.044,3.044,0,0,0,1.992.808c.892,0,1.337-.474,1.337-1.059,0-.7-.808-1-1.546-1.281-.961-.349-2.02-.809-2.02-1.951,0-1.086.864-1.922,2.326-1.922a3.38,3.38,0,0,1,2.1.766l-.543.725a2.512,2.512,0,0,0-1.546-.6c-.85,0-1.24.459-1.24.975,0,.642.738.878,1.5,1.171.975.362,2.062.766,2.062,2.048,0,1.1-.878,2.02-2.48,2.02a4.075,4.075,0,0,1-2.521-.934Z" transform="translate(-10.448 -12.18)"/><path class="cls-8" d="M155.935,287.859h-1V287l1.059-.069.139-1.895h.961v1.895h1.825v.934h-1.825v3.761c0,.836.265,1.31,1.045,1.31a2.446,2.446,0,0,0,.766-.181l.223.863a4.164,4.164,0,0,1-1.254.251c-1.449,0-1.937-.919-1.937-2.257Z" transform="translate(-10.448 -12.18)"/><path class="cls-8" d="M164.029,289.405c0-.863-.292-1.7-1.393-1.7a3.643,3.643,0,0,0-2.021.725l-.459-.795a5.031,5.031,0,0,1,2.661-.877c1.658,0,2.354,1.1,2.354,2.786V293.7h-.947l-.1-.808H164.1a3.678,3.678,0,0,1-2.243.975,1.846,1.846,0,0,1-1.992-1.922C159.863,290.464,161.145,289.726,164.029,289.405Zm-1.853,3.539a2.771,2.771,0,0,0,1.853-.906v-1.88c-2.271.278-3.037.835-3.037,1.7A1.037,1.037,0,0,0,162.176,292.944Z" transform="translate(-10.448 -12.18)"/><path class="cls-8" d="M167.525,287.859h-1V287l1.059-.069.139-1.895h.961v1.895h1.825v.934h-1.825v3.761c0,.836.265,1.31,1.045,1.31a2.446,2.446,0,0,0,.766-.181l.223.863a4.164,4.164,0,0,1-1.254.251c-1.449,0-1.937-.919-1.937-2.257Z" transform="translate(-10.448 -12.18)"/><path class="cls-8" d="M174.434,286.759c1.728,0,2.7,1.239,2.7,3.176a4.039,4.039,0,0,1-.042.627h-4.57a2.254,2.254,0,0,0,2.257,2.383,3.06,3.06,0,0,0,1.686-.529l.4.752a4.033,4.033,0,0,1-2.229.7,3.581,3.581,0,0,1-.209-7.1Zm1.7,3.051c0-1.379-.613-2.146-1.672-2.146a2.113,2.113,0,0,0-1.95,2.146Z" transform="translate(-10.448 -12.18)"/><path class="cls-8" d="M23.456,323.466a1.564,1.564,0,1,1,1.561,1.672A1.6,1.6,0,0,1,23.456,323.466Z" transform="translate(-10.448 -12.18)"/><path class="cls-8" d="M34.015,317.991h5.266v.975h-4.11v2.87H38.64v.989H35.172v3.315h4.249v.989H34.015Z" transform="translate(-10.448 -12.18)"/><path class="cls-8" d="M41.064,325.6a3.044,3.044,0,0,0,1.992.808c.892,0,1.337-.474,1.337-1.059,0-.7-.808-1-1.546-1.281-.961-.349-2.02-.809-2.02-1.951,0-1.086.864-1.922,2.326-1.922a3.38,3.38,0,0,1,2.1.766l-.543.725a2.512,2.512,0,0,0-1.546-.6c-.85,0-1.24.459-1.24.975,0,.642.738.878,1.5,1.171.975.362,2.062.766,2.062,2.048,0,1.1-.878,2.02-2.48,2.02a4.075,4.075,0,0,1-2.521-.934Z" transform="translate(-10.448 -12.18)"/><path class="cls-8" d="M49.841,320.192a2.791,2.791,0,0,1,1.978.808l-.571.738a2.048,2.048,0,0,0-1.365-.6c-1.226,0-2.117,1.059-2.117,2.619s.85,2.591,2.089,2.591a2.414,2.414,0,0,0,1.588-.683l.515.752a3.349,3.349,0,0,1-2.2.878c-1.8,0-3.177-1.3-3.177-3.538A3.279,3.279,0,0,1,49.841,320.192Z" transform="translate(-10.448 -12.18)"/><path class="cls-8" d="M57.14,322.839c0-.863-.293-1.7-1.393-1.7a3.64,3.64,0,0,0-2.02.725l-.46-.795a5.031,5.031,0,0,1,2.661-.877c1.658,0,2.354,1.1,2.354,2.786v4.151h-.947l-.1-.808H57.21a3.678,3.678,0,0,1-2.243.975,1.846,1.846,0,0,1-1.992-1.922C52.975,323.9,54.257,323.159,57.14,322.839Zm-1.853,3.539a2.771,2.771,0,0,0,1.853-.906v-1.88c-2.271.278-3.037.835-3.037,1.7A1.038,1.038,0,0,0,55.287,326.378Z" transform="translate(-10.448 -12.18)"/><path class="cls-8" d="M61.584,327.7v2.284H60.442v-9.626h.947l.1.78h.042a3.5,3.5,0,0,1,2.159-.947c1.742,0,2.675,1.351,2.675,3.455,0,2.3-1.379,3.649-2.925,3.649a3.135,3.135,0,0,1-1.881-.78Zm1.658-1.365c1.115,0,1.937-1.018,1.937-2.688,0-1.491-.5-2.494-1.783-2.494a2.851,2.851,0,0,0-1.811.92v3.552A2.68,2.68,0,0,0,63.241,326.336Z" transform="translate(-10.448 -12.18)"/><path class="cls-8" d="M70.708,320.192c1.728,0,2.7,1.239,2.7,3.176a4.039,4.039,0,0,1-.042.627H68.8a2.254,2.254,0,0,0,2.257,2.383,3.06,3.06,0,0,0,1.686-.529l.4.752a4.033,4.033,0,0,1-2.229.7,3.581,3.581,0,0,1-.209-7.1Zm1.7,3.051c0-1.379-.613-2.146-1.672-2.146a2.113,2.113,0,0,0-1.95,2.146Z" transform="translate(-10.448 -12.18)"/><path class="cls-8" d="M74.9,325.6a3.044,3.044,0,0,0,1.992.808c.892,0,1.337-.474,1.337-1.059,0-.7-.808-1-1.546-1.281-.961-.349-2.02-.809-2.02-1.951,0-1.086.864-1.922,2.326-1.922a3.38,3.38,0,0,1,2.1.766l-.543.725a2.512,2.512,0,0,0-1.546-.6c-.85,0-1.24.459-1.24.975,0,.642.738.878,1.5,1.171.975.362,2.062.766,2.062,2.048,0,1.1-.878,2.02-2.48,2.02a4.075,4.075,0,0,1-2.521-.934Z" transform="translate(-10.448 -12.18)"/><path class="cls-8" d="M86.268,320.192c1.728,0,2.7,1.239,2.7,3.176a4.039,4.039,0,0,1-.042.627H84.36a2.254,2.254,0,0,0,2.257,2.383,3.06,3.06,0,0,0,1.686-.529l.4.752a4.033,4.033,0,0,1-2.229.7,3.581,3.581,0,0,1-.209-7.1Zm1.7,3.051c0-1.379-.613-2.146-1.672-2.146a2.113,2.113,0,0,0-1.95,2.146Z" transform="translate(-10.448 -12.18)"/><path class="cls-8" d="M90.462,325.6a3.044,3.044,0,0,0,1.992.808c.892,0,1.337-.474,1.337-1.059,0-.7-.808-1-1.546-1.281-.961-.349-2.02-.809-2.02-1.951,0-1.086.864-1.922,2.326-1.922a3.38,3.38,0,0,1,2.1.766l-.543.725a2.512,2.512,0,0,0-1.546-.6c-.85,0-1.24.459-1.24.975,0,.642.738.878,1.5,1.171.975.362,2.062.766,2.062,2.048,0,1.1-.878,2.02-2.48,2.02a4.075,4.075,0,0,1-2.521-.934Z" transform="translate(-10.448 -12.18)"/><path class="cls-8" d="M96.675,321.293h-1v-.864l1.059-.069.139-1.895h.961v1.895h1.825v.934H97.831v3.761c0,.836.265,1.31,1.045,1.31a2.446,2.446,0,0,0,.766-.181l.223.863a4.164,4.164,0,0,1-1.254.251c-1.449,0-1.937-.919-1.937-2.257Z" transform="translate(-10.448 -12.18)"/><path class="cls-8" d="M104.768,322.839c0-.863-.293-1.7-1.393-1.7a3.64,3.64,0,0,0-2.02.725l-.46-.795a5.031,5.031,0,0,1,2.661-.877c1.658,0,2.354,1.1,2.354,2.786v4.151h-.947l-.1-.808h-.028a3.678,3.678,0,0,1-2.243.975,1.846,1.846,0,0,1-1.992-1.922C100.6,323.9,101.885,323.159,104.768,322.839Zm-1.853,3.539a2.771,2.771,0,0,0,1.853-.906v-1.88c-2.271.278-3.037.835-3.037,1.7A1.038,1.038,0,0,0,102.915,326.378Z" transform="translate(-10.448 -12.18)"/><path class="cls-8" d="M108.264,321.293h-1v-.864l1.059-.069.139-1.895h.961v1.895h1.825v.934h-1.825v3.761c0,.836.265,1.31,1.045,1.31a2.446,2.446,0,0,0,.766-.181l.223.863a4.164,4.164,0,0,1-1.254.251c-1.449,0-1.937-.919-1.937-2.257Z" transform="translate(-10.448 -12.18)"/><path class="cls-8" d="M115.188,320.192c1.728,0,2.7,1.239,2.7,3.176a4.039,4.039,0,0,1-.042.627h-4.57a2.254,2.254,0,0,0,2.257,2.383,3.06,3.06,0,0,0,1.686-.529l.4.752a4.033,4.033,0,0,1-2.229.7,3.581,3.581,0,0,1-.209-7.1Zm1.7,3.051c0-1.379-.613-2.146-1.672-2.146a2.113,2.113,0,0,0-1.95,2.146Z" transform="translate(-10.448 -12.18)"/><path class="cls-8" d="M122.571,321.293h-1v-.864l1.059-.069.139-1.895h.961v1.895h1.825v.934h-1.825v3.761c0,.836.265,1.31,1.045,1.31a2.446,2.446,0,0,0,.766-.181l.223.863a4.164,4.164,0,0,1-1.254.251c-1.449,0-1.937-.919-1.937-2.257Z" transform="translate(-10.448 -12.18)"/><path class="cls-8" d="M130.665,322.839c0-.863-.292-1.7-1.393-1.7a3.643,3.643,0,0,0-2.021.725l-.459-.795a5.031,5.031,0,0,1,2.661-.877c1.658,0,2.354,1.1,2.354,2.786v4.151h-.947l-.1-.808h-.028a3.678,3.678,0,0,1-2.243.975,1.846,1.846,0,0,1-1.992-1.922C126.5,323.9,127.782,323.159,130.665,322.839Zm-1.853,3.539a2.771,2.771,0,0,0,1.853-.906v-1.88c-2.271.278-3.037.835-3.037,1.7A1.037,1.037,0,0,0,128.812,326.378Z" transform="translate(-10.448 -12.18)"/><path class="cls-8" d="M135.234,323.592l-2.048-3.232h1.24l.906,1.49c.209.362.432.753.668,1.129h.056c.2-.376.4-.767.613-1.129l.822-1.49h1.2l-2.048,3.357,2.2,3.413H137.6l-.989-1.574c-.237-.4-.487-.822-.738-1.212h-.056c-.237.39-.459.794-.683,1.212l-.919,1.574h-1.2Z" transform="translate(-10.448 -12.18)"/><path class="cls-8" d="M142.492,320.192c1.728,0,2.7,1.239,2.7,3.176a4.039,4.039,0,0,1-.042.627h-4.57a2.254,2.254,0,0,0,2.257,2.383,3.06,3.06,0,0,0,1.686-.529l.4.752a4.033,4.033,0,0,1-2.229.7,3.581,3.581,0,0,1-.209-7.1Zm1.7,3.051c0-1.379-.613-2.146-1.672-2.146a2.113,2.113,0,0,0-1.95,2.146Z" transform="translate(-10.448 -12.18)"/><path class="cls-8" d="M146.685,325.6a3.044,3.044,0,0,0,1.992.808c.892,0,1.337-.474,1.337-1.059,0-.7-.808-1-1.546-1.281-.961-.349-2.02-.809-2.02-1.951,0-1.086.864-1.922,2.326-1.922a3.38,3.38,0,0,1,2.1.766l-.543.725a2.512,2.512,0,0,0-1.546-.6c-.85,0-1.24.459-1.24.975,0,.642.738.878,1.5,1.171.975.362,2.062.766,2.062,2.048,0,1.1-.878,2.02-2.48,2.02a4.075,4.075,0,0,1-2.521-.934Z" transform="translate(-10.448 -12.18)"/><path class="cls-8" d="M302.043,189.73a1.564,1.564,0,1,1,1.56,1.672A1.6,1.6,0,0,1,302.043,189.73Z" transform="translate(-10.448 -12.18)"/><path class="cls-8" d="M316.279,184.089a3.5,3.5,0,0,1,2.619,1.128l-.655.738a2.5,2.5,0,0,0-1.95-.85c-1.839,0-3.022,1.421-3.022,3.691,0,2.3,1.086,3.748,3.037,3.748a2.5,2.5,0,0,0,1.644-.544v-2.382h-1.937v-.961h3V192.5a3.945,3.945,0,0,1-2.828,1.059c-2.4,0-4.109-1.755-4.109-4.736C312.072,185.886,313.842,184.089,316.279,184.089Z" transform="translate(-10.448 -12.18)"/><path class="cls-8" d="M320.877,184.492a.8.8,0,0,1,1.588,0,.8.8,0,0,1-1.588,0Zm.209,2.132h1.143v6.771h-1.143Z" transform="translate(-10.448 -12.18)"/><path class="cls-8" d="M323.537,186.624h1.185L326,190.469c.2.669.418,1.352.627,1.992h.056c.2-.641.418-1.323.613-1.992l1.281-3.845h1.129l-2.4,6.771h-1.337Z" transform="translate(-10.448 -12.18)"/><path class="cls-8" d="M333.5,186.457c1.728,0,2.7,1.239,2.7,3.176a4.094,4.094,0,0,1-.042.627h-4.569a2.253,2.253,0,0,0,2.257,2.383,3.061,3.061,0,0,0,1.686-.529l.4.752a4.036,4.036,0,0,1-2.229.7,3.581,3.581,0,0,1-.209-7.1Zm1.7,3.051c0-1.379-.613-2.146-1.672-2.146a2.114,2.114,0,0,0-1.951,2.146Z" transform="translate(-10.448 -12.18)"/><path class="cls-8" d="M337.69,191.862a3.045,3.045,0,0,0,1.992.808c.892,0,1.338-.474,1.338-1.059,0-.7-.809-1-1.547-1.281-.961-.349-2.02-.809-2.02-1.951,0-1.086.863-1.922,2.326-1.922a3.379,3.379,0,0,1,2.1.766l-.543.725a2.518,2.518,0,0,0-1.547-.6c-.85,0-1.239.459-1.239.975,0,.642.738.878,1.5,1.171.976.362,2.063.766,2.063,2.048,0,1.1-.878,2.02-2.479,2.02a4.079,4.079,0,0,1-2.522-.934Z" transform="translate(-10.448 -12.18)"/><path class="cls-8" d="M346.661,191.4a3.581,3.581,0,0,0,2.522,1.143c1.2,0,1.908-.6,1.908-1.491,0-.933-.655-1.226-1.519-1.615l-1.31-.571a2.569,2.569,0,0,1-1.853-2.354,2.6,2.6,0,0,1,2.869-2.424,3.792,3.792,0,0,1,2.7,1.128l-.627.752a2.915,2.915,0,0,0-2.076-.863c-1.017,0-1.7.516-1.7,1.337,0,.878.794,1.213,1.519,1.519l1.3.558a2.544,2.544,0,0,1,1.88,2.438c0,1.448-1.184,2.6-3.106,2.6a4.431,4.431,0,0,1-3.2-1.352Z" transform="translate(-10.448 -12.18)"/><path class="cls-8" d="M355.1,193.966v2.284h-1.143v-9.626h.947l.1.78h.041a3.506,3.506,0,0,1,2.16-.947c1.741,0,2.675,1.351,2.675,3.455,0,2.3-1.38,3.649-2.926,3.649a3.135,3.135,0,0,1-1.881-.78Zm1.657-1.365c1.114,0,1.937-1.018,1.937-2.688,0-1.491-.5-2.494-1.783-2.494a2.848,2.848,0,0,0-1.811.92v3.552A2.678,2.678,0,0,0,356.761,192.6Z" transform="translate(-10.448 -12.18)"/><path class="cls-8" d="M364.326,186.457c1.658,0,3.135,1.295,3.135,3.566a3.158,3.158,0,1,1-6.27,0C361.191,187.752,362.668,186.457,364.326,186.457Zm0,6.157c1.17,0,1.95-1.045,1.95-2.591s-.78-2.619-1.95-2.619-1.95,1.059-1.95,2.619S363.17,192.614,364.326,192.614Z" transform="translate(-10.448 -12.18)"/><path class="cls-8" d="M369.145,186.624H370.3v4.138c0,1.268.376,1.811,1.268,1.811.7,0,1.185-.348,1.825-1.142v-4.807h1.143v6.771h-.947l-.1-1.059h-.042a2.862,2.862,0,0,1-2.229,1.226c-1.436,0-2.076-.919-2.076-2.646Z" transform="translate(-10.448 -12.18)"/><path class="cls-8" d="M376.639,191.862a3.045,3.045,0,0,0,1.992.808c.892,0,1.338-.474,1.338-1.059,0-.7-.809-1-1.547-1.281-.961-.349-2.02-.809-2.02-1.951,0-1.086.863-1.922,2.326-1.922a3.379,3.379,0,0,1,2.1.766l-.543.725a2.518,2.518,0,0,0-1.547-.6c-.85,0-1.239.459-1.239.975,0,.642.738.878,1.5,1.171.976.362,2.063.766,2.063,2.048,0,1.1-.878,2.02-2.479,2.02a4.079,4.079,0,0,1-2.522-.934Z" transform="translate(-10.448 -12.18)"/><path class="cls-8" d="M385.193,186.457c1.728,0,2.7,1.239,2.7,3.176a4.094,4.094,0,0,1-.042.627h-4.569a2.253,2.253,0,0,0,2.257,2.383,3.061,3.061,0,0,0,1.686-.529l.4.752a4.036,4.036,0,0,1-2.229.7,3.581,3.581,0,0,1-.209-7.1Zm1.7,3.051c0-1.379-.613-2.146-1.672-2.146a2.114,2.114,0,0,0-1.951,2.146Z" transform="translate(-10.448 -12.18)"/><path class="cls-8" d="M392.842,190.553h-1.115v-.794h1.212l.251-2.062h-1.184v-.808h1.281l.32-2.55h.738l-.32,2.55h1.853l.335-2.55h.738l-.334,2.55h1.128v.808h-1.212l-.251,2.063h1.185v.794h-1.282l-.348,2.842H395.1l.334-2.842h-1.839l-.349,2.842h-.752Zm2.688-.794.251-2.062h-1.839l-.251,2.063Z" transform="translate(-10.448 -12.18)"/><path class="cls-8" d="M399.263,192.447H401.3V185.9h-1.616v-.738a5.306,5.306,0,0,0,1.881-.654h.878v7.94h1.839v.947h-5.016Z" transform="translate(-10.448 -12.18)"/><path class="cls-8" d="M411.8,186.457a2.793,2.793,0,0,1,1.979.808l-.571.738a2.048,2.048,0,0,0-1.365-.6c-1.226,0-2.117,1.059-2.117,2.619s.85,2.591,2.09,2.591a2.414,2.414,0,0,0,1.588-.683l.516.752a3.351,3.351,0,0,1-2.2.878c-1.8,0-3.177-1.3-3.177-3.538A3.279,3.279,0,0,1,411.8,186.457Z" transform="translate(-10.448 -12.18)"/><path class="cls-8" d="M417.735,186.457c1.658,0,3.135,1.295,3.135,3.566a3.158,3.158,0,1,1-6.27,0C414.6,187.752,416.077,186.457,417.735,186.457Zm0,6.157c1.17,0,1.95-1.045,1.95-2.591s-.78-2.619-1.95-2.619-1.95,1.059-1.95,2.619S416.579,192.614,417.735,192.614Z" transform="translate(-10.448 -12.18)"/><path class="cls-8" d="M422.652,186.624h.947l.1.976h.042a3.187,3.187,0,0,1,2.271-1.143c1.421,0,2.062.919,2.062,2.646v4.291h-1.143v-4.138c0-1.268-.39-1.811-1.281-1.811-.7,0-1.17.361-1.853,1.044v4.9h-1.143Z" transform="translate(-10.448 -12.18)"/><path class="cls-8" d="M430.468,187.558h-1v-.864l1.06-.069.139-1.895h.962v1.895h1.824v.934h-1.824v3.761c0,.836.265,1.31,1.044,1.31a2.446,2.446,0,0,0,.767-.181l.223.863a4.161,4.161,0,0,1-1.254.251c-1.448,0-1.936-.919-1.936-2.257Z" transform="translate(-10.448 -12.18)"/><path class="cls-8" d="M434.981,186.624h.947l.1,1.226h.041a2.317,2.317,0,0,1,1.923-1.393,1.693,1.693,0,0,1,.725.139l-.223,1a1.882,1.882,0,0,0-.655-.112c-.571,0-1.254.418-1.713,1.561v4.347h-1.143Z" transform="translate(-10.448 -12.18)"/><path class="cls-8" d="M442.308,186.457c1.658,0,3.135,1.295,3.135,3.566a3.158,3.158,0,1,1-6.27,0C439.174,187.752,440.65,186.457,442.308,186.457Zm0,6.157c1.17,0,1.95-1.045,1.95-2.591s-.78-2.619-1.95-2.619-1.95,1.059-1.95,2.619S441.152,192.614,442.308,192.614Z" transform="translate(-10.448 -12.18)"/><path class="cls-8" d="M447.226,183.476h1.143v8.638c0,.361.152.5.32.5a.972.972,0,0,0,.25-.027l.153.863a1.541,1.541,0,0,1-.654.111c-.864,0-1.212-.543-1.212-1.532Z" transform="translate(-10.448 -12.18)"/><path class="cls-8" d="M317.678,201.127a1.907,1.907,0,0,0-.767-.168c-.641,0-.947.446-.947,1.31v1.073H317.4v.934h-1.436v5.837h-1.142v-5.837h-.92v-.864l.92-.069v-1.073c0-1.379.626-2.242,1.978-2.242a3.079,3.079,0,0,1,1.129.223Z" transform="translate(-10.448 -12.18)"/><path class="cls-8" d="M318.7,203.342h.947l.1,1.226h.042a2.315,2.315,0,0,1,1.922-1.393,1.693,1.693,0,0,1,.725.139l-.223,1a1.906,1.906,0,0,0-.655-.111c-.571,0-1.254.418-1.713,1.561v4.347H318.7Z" transform="translate(-10.448 -12.18)"/><path class="cls-8" d="M326.037,203.175c1.658,0,3.135,1.295,3.135,3.566a3.158,3.158,0,1,1-6.27,0C322.9,204.47,324.379,203.175,326.037,203.175Zm0,6.157c1.17,0,1.95-1.045,1.95-2.591s-.78-2.619-1.95-2.619-1.95,1.059-1.95,2.619S324.881,209.332,326.037,209.332Z" transform="translate(-10.448 -12.18)"/><path class="cls-8" d="M330.954,203.342h.947l.1.975h.041a2.977,2.977,0,0,1,2.1-1.142,1.776,1.776,0,0,1,1.866,1.295,3.2,3.2,0,0,1,2.229-1.295c1.393,0,2.062.919,2.062,2.646v4.291h-1.143v-4.138c0-1.268-.4-1.811-1.254-1.811a2.482,2.482,0,0,0-1.7,1.045v4.9h-1.143v-4.138c0-1.268-.4-1.811-1.268-1.811a2.536,2.536,0,0,0-1.7,1.045v4.9h-1.143Z" transform="translate(-10.448 -12.18)"/><path class="cls-8" d="M345.511,204.275h-1v-.864l1.06-.069.139-1.895h.962v1.895h1.824v.934h-1.824v3.761c0,.836.265,1.31,1.044,1.31a2.446,2.446,0,0,0,.767-.181l.223.863a4.161,4.161,0,0,1-1.254.251c-1.448,0-1.937-.919-1.937-2.257Z" transform="translate(-10.448 -12.18)"/><path class="cls-8" d="M350.025,200.193h1.143v2.7l-.042,1.394a3.235,3.235,0,0,1,2.257-1.114c1.421,0,2.062.919,2.062,2.646v4.291H354.3v-4.138c0-1.268-.39-1.811-1.281-1.811-.7,0-1.17.361-1.853,1.045v4.9h-1.143Z" transform="translate(-10.448 -12.18)"/><path class="cls-8" d="M360.138,203.175c1.728,0,2.7,1.239,2.7,3.176a4.094,4.094,0,0,1-.042.627H358.23a2.253,2.253,0,0,0,2.257,2.383,3.061,3.061,0,0,0,1.686-.529l.4.752a4.036,4.036,0,0,1-2.229.7,3.581,3.581,0,0,1-.209-7.1Zm1.7,3.051c0-1.379-.613-2.146-1.672-2.146a2.114,2.114,0,0,0-1.951,2.146Z" transform="translate(-10.448 -12.18)"/><path class="cls-8" d="M367.8,209.875v-.056a1.248,1.248,0,0,1-.6-1.1,1.586,1.586,0,0,1,.738-1.253v-.057a2.39,2.39,0,0,1,1.672-4.234,2.7,2.7,0,0,1,.962.167h2.354v.878h-1.394a1.961,1.961,0,0,1,.558,1.393,2.324,2.324,0,0,1-2.48,2.354,2.378,2.378,0,0,1-1.017-.236,1.024,1.024,0,0,0-.432.808c0,.432.278.738,1.2.738h1.31c1.574,0,2.368.487,2.368,1.616,0,1.254-1.324,2.34-3.428,2.34-1.657,0-2.8-.654-2.8-1.824A1.955,1.955,0,0,1,367.8,209.875Zm1.979,2.563c1.295,0,2.145-.668,2.145-1.379,0-.627-.487-.836-1.365-.836h-1.17a3.285,3.285,0,0,1-.878-.111,1.427,1.427,0,0,0-.7,1.143C367.814,211.979,368.553,212.438,369.779,212.438Zm1.268-6.854a1.441,1.441,0,1,0-2.87,0,1.445,1.445,0,1,0,2.87,0Z" transform="translate(-10.448 -12.18)"/><path class="cls-8" d="M374.347,203.342h.947l.1,1.226h.042a2.315,2.315,0,0,1,1.922-1.393,1.693,1.693,0,0,1,.725.139l-.223,1a1.906,1.906,0,0,0-.655-.111c-.571,0-1.254.418-1.713,1.561v4.347h-1.143Z" transform="translate(-10.448 -12.18)"/><path class="cls-8" d="M382.664,205.821c0-.863-.293-1.7-1.394-1.7a3.639,3.639,0,0,0-2.02.725l-.46-.795a5.031,5.031,0,0,1,2.661-.877c1.657,0,2.354,1.1,2.354,2.786v4.151h-.947l-.1-.808h-.028a3.678,3.678,0,0,1-2.243.975,1.846,1.846,0,0,1-1.992-1.922C378.5,206.88,379.78,206.142,382.664,205.821Zm-1.853,3.539a2.772,2.772,0,0,0,1.853-.906v-1.88c-2.271.278-3.037.835-3.037,1.7A1.038,1.038,0,0,0,380.811,209.36Z" transform="translate(-10.448 -12.18)"/><path class="cls-8" d="M384.99,203.342h1.185l1.281,3.845c.2.669.418,1.352.627,1.992h.056c.2-.641.418-1.323.613-1.992l1.281-3.845h1.129l-2.4,6.771h-1.337Z" transform="translate(-10.448 -12.18)"/><path class="cls-8" d="M394.951,203.175c1.728,0,2.7,1.239,2.7,3.176a4.094,4.094,0,0,1-.042.627h-4.569a2.253,2.253,0,0,0,2.257,2.383,3.061,3.061,0,0,0,1.686-.529l.4.752a4.036,4.036,0,0,1-2.229.7,3.581,3.581,0,0,1-.209-7.1Zm1.7,3.051c0-1.379-.613-2.146-1.672-2.146a2.114,2.114,0,0,0-1.951,2.146Z" transform="translate(-10.448 -12.18)"/><path class="cls-8" d="M302.043,239.882a1.564,1.564,0,1,1,1.56,1.672A1.6,1.6,0,0,1,302.043,239.882Z" transform="translate(-10.448 -12.18)"/><path class="cls-8" d="M312.629,241.554a3.581,3.581,0,0,0,2.522,1.143c1.2,0,1.908-.6,1.908-1.491,0-.933-.655-1.226-1.519-1.615l-1.31-.571a2.569,2.569,0,0,1-1.853-2.354,2.6,2.6,0,0,1,2.869-2.424,3.792,3.792,0,0,1,2.7,1.128l-.627.752a2.915,2.915,0,0,0-2.076-.863c-1.017,0-1.7.516-1.7,1.337,0,.878.794,1.213,1.519,1.519l1.3.558a2.544,2.544,0,0,1,1.88,2.438c0,1.448-1.184,2.6-3.106,2.6a4.431,4.431,0,0,1-3.2-1.352Z" transform="translate(-10.448 -12.18)"/><path class="cls-8" d="M321.072,244.117V246.4h-1.143v-9.626h.947l.1.78h.042a3.5,3.5,0,0,1,2.159-.947c1.741,0,2.675,1.351,2.675,3.455,0,2.3-1.38,3.649-2.926,3.649a3.135,3.135,0,0,1-1.881-.78Zm1.657-1.365c1.114,0,1.937-1.018,1.937-2.688,0-1.491-.5-2.494-1.783-2.494a2.848,2.848,0,0,0-1.811.92v3.552A2.678,2.678,0,0,0,322.729,242.752Z" transform="translate(-10.448 -12.18)"/><path class="cls-8" d="M330.294,236.608c1.658,0,3.135,1.295,3.135,3.566a3.158,3.158,0,1,1-6.27,0C327.159,237.9,328.636,236.608,330.294,236.608Zm0,6.157c1.17,0,1.95-1.045,1.95-2.591s-.78-2.619-1.95-2.619-1.95,1.059-1.95,2.619S329.137,242.766,330.294,242.766Z" transform="translate(-10.448 -12.18)"/><path class="cls-8" d="M335.113,236.775h1.156v4.138c0,1.268.376,1.811,1.268,1.811.7,0,1.185-.348,1.825-1.142v-4.807H340.5v6.771h-.947l-.1-1.059h-.042a2.862,2.862,0,0,1-2.229,1.226c-1.435,0-2.075-.919-2.075-2.646Z" transform="translate(-10.448 -12.18)"/><path class="cls-8" d="M342.607,242.014a3.045,3.045,0,0,0,1.992.808c.892,0,1.338-.474,1.338-1.059,0-.7-.809-1-1.547-1.281-.961-.349-2.02-.809-2.02-1.951,0-1.086.863-1.922,2.326-1.922a3.379,3.379,0,0,1,2.1.766l-.543.725a2.512,2.512,0,0,0-1.547-.6c-.85,0-1.239.459-1.239.975,0,.642.738.878,1.5,1.171.976.362,2.063.766,2.063,2.048,0,1.1-.878,2.02-2.479,2.02a4.079,4.079,0,0,1-2.522-.934Z" transform="translate(-10.448 -12.18)"/><path class="cls-8" d="M351.161,236.608c1.728,0,2.7,1.239,2.7,3.176a4.094,4.094,0,0,1-.042.627h-4.569a2.253,2.253,0,0,0,2.257,2.383,3.061,3.061,0,0,0,1.686-.529l.4.752a4.036,4.036,0,0,1-2.229.7,3.581,3.581,0,0,1-.209-7.1Zm1.7,3.051c0-1.379-.613-2.146-1.672-2.146a2.114,2.114,0,0,0-1.951,2.146Z" transform="translate(-10.448 -12.18)"/><path class="cls-8" d="M358.809,240.7h-1.115v-.794h1.212l.251-2.062h-1.184v-.808h1.281l.32-2.55h.738l-.32,2.55h1.853l.335-2.55h.738l-.334,2.55h1.128v.808H362.5l-.251,2.063h1.185v.794h-1.282l-.348,2.842h-.738l.334-2.842h-1.839l-.349,2.842h-.752Zm2.688-.794.251-2.062H359.91l-.251,2.063Z" transform="translate(-10.448 -12.18)"/><path class="cls-8" d="M364.688,242.863c2.675-2.661,4.179-4.263,4.179-5.7a1.574,1.574,0,0,0-1.686-1.741,2.618,2.618,0,0,0-1.895,1.073l-.654-.655a3.49,3.49,0,0,1,2.688-1.352,2.469,2.469,0,0,1,2.661,2.619c0,1.672-1.519,3.33-3.622,5.531.487-.042,1.03-.084,1.49-.084h2.577v.989h-5.739Z" transform="translate(-10.448 -12.18)"/><path class="cls-8" d="M375.011,236.775h.947l.1,1.226h.041a2.317,2.317,0,0,1,1.923-1.393,1.693,1.693,0,0,1,.725.139l-.223,1a1.906,1.906,0,0,0-.655-.111c-.571,0-1.254.418-1.713,1.561v4.347h-1.143Z" transform="translate(-10.448 -12.18)"/><path class="cls-8" d="M382.24,236.608c1.728,0,2.7,1.239,2.7,3.176a4.094,4.094,0,0,1-.042.627h-4.569a2.253,2.253,0,0,0,2.257,2.383,3.061,3.061,0,0,0,1.686-.529l.4.752a4.036,4.036,0,0,1-2.229.7,3.581,3.581,0,0,1-.209-7.1Zm1.7,3.051c0-1.379-.613-2.146-1.672-2.146a2.114,2.114,0,0,0-1.951,2.146Z" transform="translate(-10.448 -12.18)"/><path class="cls-8" d="M389.372,236.608a2.793,2.793,0,0,1,1.979.808l-.571.738a2.046,2.046,0,0,0-1.365-.6c-1.226,0-2.117,1.059-2.117,2.619s.85,2.591,2.09,2.591a2.414,2.414,0,0,0,1.588-.683l.516.752a3.351,3.351,0,0,1-2.2.878c-1.8,0-3.177-1.3-3.177-3.538A3.279,3.279,0,0,1,389.372,236.608Z" transform="translate(-10.448 -12.18)"/><path class="cls-8" d="M395.223,236.608c1.728,0,2.7,1.239,2.7,3.176a4.094,4.094,0,0,1-.042.627h-4.569a2.253,2.253,0,0,0,2.257,2.383,3.061,3.061,0,0,0,1.686-.529l.4.752a4.036,4.036,0,0,1-2.229.7,3.581,3.581,0,0,1-.209-7.1Zm1.7,3.051c0-1.379-.613-2.146-1.672-2.146a2.114,2.114,0,0,0-1.951,2.146Z" transform="translate(-10.448 -12.18)"/><path class="cls-8" d="M399.388,234.644a.8.8,0,0,1,1.588,0,.8.8,0,0,1-1.588,0Zm.209,2.132h1.143v6.771H399.6Z" transform="translate(-10.448 -12.18)"/><path class="cls-8" d="M402.049,236.775h1.185l1.281,3.845c.2.669.418,1.352.627,1.992h.056c.2-.641.418-1.323.613-1.992l1.281-3.845h1.129l-2.4,6.771h-1.337Z" transform="translate(-10.448 -12.18)"/><path class="cls-8" d="M412.01,236.608c1.728,0,2.7,1.239,2.7,3.176a4.094,4.094,0,0,1-.042.627H410.1a2.253,2.253,0,0,0,2.257,2.383,3.061,3.061,0,0,0,1.686-.529l.4.752a4.036,4.036,0,0,1-2.229.7,3.581,3.581,0,0,1-.209-7.1Zm1.7,3.051c0-1.379-.613-2.146-1.672-2.146a2.114,2.114,0,0,0-1.951,2.146Z" transform="translate(-10.448 -12.18)"/><path class="cls-8" d="M416.2,242.014a3.045,3.045,0,0,0,1.992.808c.892,0,1.338-.474,1.338-1.059,0-.7-.809-1-1.547-1.281-.961-.349-2.02-.809-2.02-1.951,0-1.086.863-1.922,2.326-1.922a3.379,3.379,0,0,1,2.1.766l-.543.725a2.512,2.512,0,0,0-1.547-.6c-.85,0-1.239.459-1.239.975,0,.642.738.878,1.5,1.171.976.362,2.063.766,2.063,2.048,0,1.1-.878,2.02-2.479,2.02a4.079,4.079,0,0,1-2.522-.934Z" transform="translate(-10.448 -12.18)"/><path class="cls-8" d="M312.419,251.359a.8.8,0,0,1,1.588,0,.8.8,0,0,1-1.588,0Zm.209,2.132h1.143v6.771h-1.143Z" transform="translate(-10.448 -12.18)"/><path class="cls-8" d="M316.054,253.491H317l.1.976h.042a3.187,3.187,0,0,1,2.271-1.143c1.421,0,2.062.919,2.062,2.646v4.291h-1.143v-4.138c0-1.268-.39-1.811-1.281-1.811-.7,0-1.17.361-1.853,1.044v4.9h-1.143Z" transform="translate(-10.448 -12.18)"/><path class="cls-8" d="M326.432,253.324a2.793,2.793,0,0,1,1.979.808l-.571.738a2.046,2.046,0,0,0-1.365-.6c-1.226,0-2.117,1.059-2.117,2.619s.85,2.591,2.09,2.591a2.414,2.414,0,0,0,1.588-.683l.516.752a3.351,3.351,0,0,1-2.2.878c-1.8,0-3.177-1.3-3.177-3.538A3.279,3.279,0,0,1,326.432,253.324Z" transform="translate(-10.448 -12.18)"/><path class="cls-8" d="M332.367,253.324c1.658,0,3.135,1.295,3.135,3.566a3.158,3.158,0,1,1-6.27,0C329.232,254.619,330.709,253.324,332.367,253.324Zm0,6.157c1.17,0,1.95-1.045,1.95-2.591s-.78-2.619-1.95-2.619-1.95,1.059-1.95,2.619S331.211,259.481,332.367,259.481Z" transform="translate(-10.448 -12.18)"/><path class="cls-8" d="M337.285,253.491h.947l.1.976h.042a2.971,2.971,0,0,1,2.1-1.143,1.776,1.776,0,0,1,1.866,1.295,3.2,3.2,0,0,1,2.229-1.295c1.393,0,2.062.919,2.062,2.646v4.291H345.49v-4.138c0-1.268-.4-1.811-1.254-1.811a2.483,2.483,0,0,0-1.7,1.044v4.9h-1.143v-4.138c0-1.268-.4-1.811-1.268-1.811a2.538,2.538,0,0,0-1.7,1.044v4.9h-1.143Z" transform="translate(-10.448 -12.18)"/><path class="cls-8" d="M351.368,253.324c1.728,0,2.7,1.239,2.7,3.176a4.094,4.094,0,0,1-.042.627H349.46a2.253,2.253,0,0,0,2.257,2.383,3.061,3.061,0,0,0,1.686-.529l.4.752a4.036,4.036,0,0,1-2.229.7,3.581,3.581,0,0,1-.209-7.1Zm1.7,3.051c0-1.379-.613-2.146-1.672-2.146a2.114,2.114,0,0,0-1.951,2.146Z" transform="translate(-10.448 -12.18)"/><path class="cls-8" d="M355.255,261.961a1.872,1.872,0,0,0,1.254-1.7.475.475,0,0,1-.139.014.767.767,0,0,1-.822-.794.8.8,0,0,1,.85-.808c.6,0,.962.516.962,1.351a2.769,2.769,0,0,1-1.825,2.605Zm.251-7.425a.83.83,0,1,1,.836.863A.832.832,0,0,1,355.506,254.536Z" transform="translate(-10.448 -12.18)"/><path class="cls-8" d="M362.136,251.123h2.8c2.021,0,3.372.683,3.372,2.688,0,1.923-1.365,2.828-3.372,2.828h-1.644v3.622h-1.156Zm2.661,4.569c1.588,0,2.354-.585,2.354-1.881,0-1.323-.78-1.755-2.354-1.755h-1.5v3.636Z" transform="translate(-10.448 -12.18)"/><path class="cls-8" d="M370.05,253.491H371l.1,1.226h.041a2.317,2.317,0,0,1,1.923-1.393,1.693,1.693,0,0,1,.725.139l-.223,1a1.882,1.882,0,0,0-.655-.112c-.571,0-1.254.418-1.713,1.561v4.347H370.05Z" transform="translate(-10.448 -12.18)"/><path class="cls-8" d="M374.674,251.359a.8.8,0,0,1,1.588,0,.8.8,0,0,1-1.588,0Zm.209,2.132h1.143v6.771h-1.143Z" transform="translate(-10.448 -12.18)"/><path class="cls-8" d="M378.309,253.491h.947l.1.976h.041a3.191,3.191,0,0,1,2.271-1.143c1.421,0,2.062.919,2.062,2.646v4.291h-1.143v-4.138c0-1.268-.39-1.811-1.281-1.811-.7,0-1.17.361-1.853,1.044v4.9h-1.143Z" transform="translate(-10.448 -12.18)"/><path class="cls-8" d="M388.687,253.324a2.793,2.793,0,0,1,1.979.808l-.571.738a2.048,2.048,0,0,0-1.365-.6c-1.226,0-2.117,1.059-2.117,2.619s.85,2.591,2.09,2.591a2.414,2.414,0,0,0,1.588-.683l.516.752a3.351,3.351,0,0,1-2.2.878c-1.8,0-3.177-1.3-3.177-3.538A3.279,3.279,0,0,1,388.687,253.324Z" transform="translate(-10.448 -12.18)"/><path class="cls-8" d="M392.073,251.359a.8.8,0,0,1,1.588,0,.8.8,0,0,1-1.588,0Zm.209,2.132h1.143v6.771h-1.143Z" transform="translate(-10.448 -12.18)"/><path class="cls-8" d="M396.851,260.833v2.284h-1.143v-9.626h.947l.1.78h.042a3.5,3.5,0,0,1,2.159-.947c1.741,0,2.675,1.351,2.675,3.455,0,2.3-1.38,3.649-2.926,3.649a3.135,3.135,0,0,1-1.881-.78Zm1.657-1.365c1.114,0,1.937-1.018,1.937-2.688,0-1.491-.5-2.494-1.783-2.494a2.848,2.848,0,0,0-1.811.92v3.552A2.678,2.678,0,0,0,398.509,259.468Z" transform="translate(-10.448 -12.18)"/><path class="cls-8" d="M407.076,255.971c0-.863-.293-1.7-1.394-1.7a3.639,3.639,0,0,0-2.02.725l-.46-.795a5.031,5.031,0,0,1,2.661-.877c1.657,0,2.354,1.1,2.354,2.786v4.151h-.947l-.1-.808h-.028a3.678,3.678,0,0,1-2.243.975,1.846,1.846,0,0,1-1.992-1.922C402.91,257.029,404.192,256.291,407.076,255.971Zm-1.853,3.539a2.772,2.772,0,0,0,1.853-.906v-1.88c-2.271.278-3.037.835-3.037,1.7A1.038,1.038,0,0,0,405.223,259.51Z" transform="translate(-10.448 -12.18)"/><path class="cls-8" d="M410.378,250.343h1.143v8.638c0,.361.152.5.32.5a.972.972,0,0,0,.25-.027l.153.863a1.541,1.541,0,0,1-.654.111c-.864,0-1.212-.543-1.212-1.532Z" transform="translate(-10.448 -12.18)"/><path class="cls-8" d="M420.575,255.971c0-.863-.293-1.7-1.394-1.7a3.639,3.639,0,0,0-2.02.725l-.46-.795a5.031,5.031,0,0,1,2.661-.877c1.657,0,2.354,1.1,2.354,2.786v4.151h-.947l-.1-.808h-.028a3.678,3.678,0,0,1-2.243.975,1.846,1.846,0,0,1-1.992-1.922C416.409,257.029,417.691,256.291,420.575,255.971Zm-1.854,3.539a2.772,2.772,0,0,0,1.854-.906v-1.88c-2.271.278-3.037.835-3.037,1.7A1.037,1.037,0,0,0,418.721,259.51Z" transform="translate(-10.448 -12.18)"/><path class="cls-8" d="M424.071,254.425h-1v-.864l1.06-.069.139-1.895h.962v1.895h1.824v.934h-1.824v3.761c0,.836.265,1.31,1.044,1.31a2.446,2.446,0,0,0,.767-.181l.223.863a4.161,4.161,0,0,1-1.254.251c-1.448,0-1.937-.919-1.937-2.257Z" transform="translate(-10.448 -12.18)"/><path class="cls-8" d="M312.634,268.815h-2.759v-.975h6.688v.975H313.8v8.164h-1.17Z" transform="translate(-10.448 -12.18)"/><path class="cls-8" d="M317.468,270.209h.947l.1,1.226h.041a2.317,2.317,0,0,1,1.923-1.393,1.693,1.693,0,0,1,.725.139l-.223,1a1.906,1.906,0,0,0-.655-.111c-.571,0-1.254.418-1.713,1.561v4.347h-1.143Z" transform="translate(-10.448 -12.18)"/><path class="cls-8" d="M322.2,270.209h1.156v4.138c0,1.268.376,1.811,1.268,1.811.7,0,1.185-.348,1.825-1.142v-4.807H327.6v6.771h-.947l-.1-1.059h-.042a2.862,2.862,0,0,1-2.229,1.226c-1.436,0-2.076-.919-2.076-2.646Z" transform="translate(-10.448 -12.18)"/><path class="cls-8" d="M329.7,275.447a3.045,3.045,0,0,0,1.992.808c.892,0,1.338-.474,1.338-1.059,0-.7-.809-1-1.547-1.281-.961-.349-2.02-.809-2.02-1.951,0-1.086.863-1.922,2.326-1.922a3.379,3.379,0,0,1,2.1.766l-.543.725a2.512,2.512,0,0,0-1.547-.6c-.85,0-1.239.459-1.239.975,0,.642.738.878,1.5,1.171.976.362,2.063.766,2.063,2.048,0,1.1-.878,2.02-2.479,2.02a4.079,4.079,0,0,1-2.522-.934Z" transform="translate(-10.448 -12.18)"/><path class="cls-8" d="M335.911,271.143h-1v-.864l1.06-.069.139-1.895h.962v1.895h1.824v.934h-1.824V274.9c0,.836.265,1.31,1.044,1.31a2.446,2.446,0,0,0,.767-.181l.223.863a4.161,4.161,0,0,1-1.254.251c-1.448,0-1.937-.919-1.937-2.257Z" transform="translate(-10.448 -12.18)"/><path class="cls-8" d="M342.835,270.042c1.728,0,2.7,1.239,2.7,3.176a4.094,4.094,0,0,1-.042.627h-4.569a2.253,2.253,0,0,0,2.257,2.383,3.061,3.061,0,0,0,1.686-.529l.4.752a4.036,4.036,0,0,1-2.229.7,3.581,3.581,0,0,1-.209-7.1Zm1.7,3.051c0-1.379-.613-2.146-1.672-2.146a2.114,2.114,0,0,0-1.951,2.146Z" transform="translate(-10.448 -12.18)"/><path class="cls-8" d="M349.744,270.042c1.728,0,2.7,1.239,2.7,3.176a4.094,4.094,0,0,1-.042.627h-4.569a2.253,2.253,0,0,0,2.257,2.383,3.061,3.061,0,0,0,1.686-.529l.4.752a4.036,4.036,0,0,1-2.229.7,3.581,3.581,0,0,1-.209-7.1Zm1.7,3.051c0-1.379-.613-2.146-1.672-2.146a2.114,2.114,0,0,0-1.951,2.146Z" transform="translate(-10.448 -12.18)"/><path class="cls-8" d="M353.715,270.445a1.914,1.914,0,0,0,1.045-1.741.314.314,0,0,1-.111.014.691.691,0,0,1-.739-.7.714.714,0,0,1,.739-.78c.543,0,.877.46.877,1.269a2.7,2.7,0,0,1-1.49,2.466Z" transform="translate(-10.448 -12.18)"/><path class="cls-8" d="M356.6,275.447a3.045,3.045,0,0,0,1.992.808c.892,0,1.338-.474,1.338-1.059,0-.7-.809-1-1.547-1.281-.961-.349-2.02-.809-2.02-1.951,0-1.086.863-1.922,2.326-1.922a3.379,3.379,0,0,1,2.1.766l-.543.725a2.512,2.512,0,0,0-1.547-.6c-.85,0-1.239.459-1.239.975,0,.642.738.878,1.5,1.171.976.362,2.063.766,2.063,2.048,0,1.1-.878,2.02-2.479,2.02a4.079,4.079,0,0,1-2.522-.934Z" transform="translate(-10.448 -12.18)"/><path class="cls-8" d="M367.883,270.042a2.789,2.789,0,0,1,1.895.78l-.056-1.156v-2.605h1.156v9.919h-.947l-.1-.794h-.042a3.053,3.053,0,0,1-2.048.961c-1.7,0-2.8-1.281-2.8-3.538C364.942,271.407,366.336,270.042,367.883,270.042Zm.111,6.144a2.292,2.292,0,0,0,1.728-.934v-3.538a2.357,2.357,0,0,0-1.645-.711c-1.086,0-1.95,1.045-1.95,2.591C366.127,275.21,366.809,276.186,367.994,276.186Z" transform="translate(-10.448 -12.18)"/><path class="cls-8" d="M372.953,268.077a.8.8,0,0,1,1.588,0,.8.8,0,0,1-1.588,0Zm.209,2.132H374.3v6.771h-1.143Z" transform="translate(-10.448 -12.18)"/><path class="cls-8" d="M376.407,275.447a3.045,3.045,0,0,0,1.992.808c.892,0,1.338-.474,1.338-1.059,0-.7-.809-1-1.547-1.281-.961-.349-2.02-.809-2.02-1.951,0-1.086.863-1.922,2.326-1.922a3.379,3.379,0,0,1,2.1.766l-.543.725a2.512,2.512,0,0,0-1.547-.6c-.85,0-1.239.459-1.239.975,0,.642.738.878,1.5,1.171.976.362,2.063.766,2.063,2.048,0,1.1-.878,2.02-2.479,2.02a4.079,4.079,0,0,1-2.522-.934Z" transform="translate(-10.448 -12.18)"/><path class="cls-8" d="M385.182,270.042a2.793,2.793,0,0,1,1.979.808l-.571.738a2.046,2.046,0,0,0-1.365-.6c-1.226,0-2.117,1.059-2.117,2.619s.85,2.591,2.09,2.591a2.414,2.414,0,0,0,1.588-.683l.516.752a3.351,3.351,0,0,1-2.2.878c-1.8,0-3.177-1.3-3.177-3.538A3.279,3.279,0,0,1,385.182,270.042Z" transform="translate(-10.448 -12.18)"/><path class="cls-8" d="M388.777,270.209h.947l.1,1.226h.042a2.315,2.315,0,0,1,1.922-1.393,1.693,1.693,0,0,1,.725.139l-.223,1a1.906,1.906,0,0,0-.655-.111c-.571,0-1.254.418-1.713,1.561v4.347h-1.143Z" transform="translate(-10.448 -12.18)"/><path class="cls-8" d="M396.021,270.042c1.728,0,2.7,1.239,2.7,3.176a4.094,4.094,0,0,1-.042.627h-4.569a2.253,2.253,0,0,0,2.257,2.383,3.061,3.061,0,0,0,1.686-.529l.4.752a4.036,4.036,0,0,1-2.229.7,3.581,3.581,0,0,1-.209-7.1Zm1.7,3.051c0-1.379-.613-2.146-1.672-2.146a2.114,2.114,0,0,0-1.951,2.146Z" transform="translate(-10.448 -12.18)"/><path class="cls-8" d="M400.409,271.143h-1v-.864l1.06-.069.139-1.895h.962v1.895h1.824v.934h-1.824V274.9c0,.836.265,1.31,1.044,1.31a2.446,2.446,0,0,0,.767-.181l.223.863a4.161,4.161,0,0,1-1.254.251c-1.448,0-1.936-.919-1.936-2.257Z" transform="translate(-10.448 -12.18)"/><path class="cls-8" d="M404.714,268.077a.8.8,0,0,1,1.588,0,.8.8,0,0,1-1.588,0Zm.209,2.132h1.143v6.771h-1.143Z" transform="translate(-10.448 -12.18)"/><path class="cls-8" d="M410.982,270.042c1.658,0,3.135,1.295,3.135,3.566a3.158,3.158,0,1,1-6.27,0C407.847,271.337,409.324,270.042,410.982,270.042Zm0,6.157c1.17,0,1.95-1.045,1.95-2.591s-.78-2.619-1.95-2.619-1.95,1.059-1.95,2.619S409.826,276.2,410.982,276.2Z" transform="translate(-10.448 -12.18)"/><path class="cls-8" d="M415.9,270.209h.947l.1.975h.042a3.19,3.19,0,0,1,2.271-1.142c1.421,0,2.062.919,2.062,2.646v4.291h-1.143v-4.138c0-1.268-.39-1.811-1.281-1.811-.7,0-1.17.361-1.853,1.045v4.9H415.9Z" transform="translate(-10.448 -12.18)"/><path class="cls-8" d="M302.043,306.749a1.564,1.564,0,1,1,1.56,1.672A1.6,1.6,0,0,1,302.043,306.749Z" transform="translate(-10.448 -12.18)"/><path class="cls-8" d="M312.629,308.421a3.581,3.581,0,0,0,2.522,1.143c1.2,0,1.908-.6,1.908-1.491,0-.933-.655-1.226-1.519-1.615l-1.31-.571a2.569,2.569,0,0,1-1.853-2.354,2.6,2.6,0,0,1,2.869-2.424,3.792,3.792,0,0,1,2.7,1.128l-.627.752a2.915,2.915,0,0,0-2.076-.863c-1.017,0-1.7.516-1.7,1.337,0,.878.794,1.213,1.519,1.519l1.3.558a2.544,2.544,0,0,1,1.88,2.438c0,1.448-1.184,2.6-3.106,2.6a4.431,4.431,0,0,1-3.2-1.352Z" transform="translate(-10.448 -12.18)"/><path class="cls-8" d="M321.072,310.984v2.284h-1.143v-9.626h.947l.1.78h.042a3.5,3.5,0,0,1,2.159-.947c1.741,0,2.675,1.351,2.675,3.455,0,2.3-1.38,3.649-2.926,3.649a3.135,3.135,0,0,1-1.881-.78Zm1.657-1.365c1.114,0,1.937-1.018,1.937-2.688,0-1.491-.5-2.494-1.783-2.494a2.848,2.848,0,0,0-1.811.92v3.552A2.678,2.678,0,0,0,322.729,309.619Z" transform="translate(-10.448 -12.18)"/><path class="cls-8" d="M330.294,303.476c1.658,0,3.135,1.295,3.135,3.566a3.158,3.158,0,1,1-6.27,0C327.159,304.771,328.636,303.476,330.294,303.476Zm0,6.157c1.17,0,1.95-1.045,1.95-2.591s-.78-2.619-1.95-2.619-1.95,1.059-1.95,2.619S329.137,309.633,330.294,309.633Z" transform="translate(-10.448 -12.18)"/><path class="cls-8" d="M335.113,303.643h1.156v4.138c0,1.268.376,1.811,1.268,1.811.7,0,1.185-.348,1.825-1.142v-4.807H340.5v6.771h-.947l-.1-1.059h-.042a2.862,2.862,0,0,1-2.229,1.226c-1.435,0-2.075-.919-2.075-2.646Z" transform="translate(-10.448 -12.18)"/><path class="cls-8" d="M342.607,308.881a3.045,3.045,0,0,0,1.992.808c.892,0,1.338-.474,1.338-1.059,0-.7-.809-1-1.547-1.281-.961-.349-2.02-.809-2.02-1.951,0-1.086.863-1.922,2.326-1.922a3.379,3.379,0,0,1,2.1.766l-.543.725a2.512,2.512,0,0,0-1.547-.6c-.85,0-1.239.459-1.239.975,0,.642.738.878,1.5,1.171.976.362,2.063.766,2.063,2.048,0,1.1-.878,2.02-2.479,2.02a4.079,4.079,0,0,1-2.522-.934Z" transform="translate(-10.448 -12.18)"/><path class="cls-8" d="M351.161,303.476c1.728,0,2.7,1.239,2.7,3.176a4.094,4.094,0,0,1-.042.627h-4.569a2.253,2.253,0,0,0,2.257,2.383,3.061,3.061,0,0,0,1.686-.529l.4.752a4.036,4.036,0,0,1-2.229.7,3.581,3.581,0,0,1-.209-7.1Zm1.7,3.051c0-1.379-.613-2.146-1.672-2.146a2.114,2.114,0,0,0-1.951,2.146Z" transform="translate(-10.448 -12.18)"/><path class="cls-8" d="M358.809,307.571h-1.115v-.794h1.212l.251-2.062h-1.184v-.808h1.281l.32-2.55h.738l-.32,2.55h1.853l.335-2.55h.738l-.334,2.55h1.128v.808H362.5l-.251,2.063h1.185v.794h-1.282l-.348,2.842h-.738l.334-2.842h-1.839l-.349,2.842h-.752Zm2.688-.794.251-2.062H359.91l-.251,2.063Z" transform="translate(-10.448 -12.18)"/><path class="cls-8" d="M364.688,309.73c2.675-2.661,4.179-4.263,4.179-5.7a1.574,1.574,0,0,0-1.686-1.741,2.618,2.618,0,0,0-1.895,1.073l-.654-.655a3.49,3.49,0,0,1,2.688-1.352,2.469,2.469,0,0,1,2.661,2.619c0,1.672-1.519,3.33-3.622,5.531.487-.042,1.03-.084,1.49-.084h2.577v.989h-5.739Z" transform="translate(-10.448 -12.18)"/><path class="cls-8" d="M375.011,303.643h.947l.1.975h.041a2.977,2.977,0,0,1,2.1-1.142,1.776,1.776,0,0,1,1.866,1.295,3.2,3.2,0,0,1,2.229-1.295c1.393,0,2.062.919,2.062,2.646v4.291h-1.143v-4.138c0-1.268-.4-1.811-1.254-1.811a2.482,2.482,0,0,0-1.7,1.045v4.9H379.12v-4.138c0-1.268-.4-1.811-1.268-1.811a2.536,2.536,0,0,0-1.7,1.045v4.9h-1.143Z" transform="translate(-10.448 -12.18)"/><path class="cls-8" d="M390.39,306.122c0-.863-.293-1.7-1.394-1.7a3.639,3.639,0,0,0-2.02.725l-.46-.795a5.031,5.031,0,0,1,2.661-.877c1.657,0,2.354,1.1,2.354,2.786v4.151h-.947l-.1-.808h-.028a3.678,3.678,0,0,1-2.243.975,1.846,1.846,0,0,1-1.992-1.922C386.224,307.181,387.507,306.442,390.39,306.122Zm-1.853,3.539a2.772,2.772,0,0,0,1.853-.906v-1.88c-2.271.278-3.037.835-3.037,1.7A1.038,1.038,0,0,0,388.538,309.661Z" transform="translate(-10.448 -12.18)"/><path class="cls-8" d="M393.747,312.377c.766,0,1.254-.612,1.532-1.448l.153-.5-2.717-6.784H393.9l1.379,3.747c.209.586.446,1.282.655,1.909h.056c.194-.613.39-1.31.571-1.909l1.212-3.747h1.114l-2.55,7.328c-.474,1.337-1.17,2.354-2.535,2.354a2.258,2.258,0,0,1-.794-.14l.223-.905A2.03,2.03,0,0,0,393.747,312.377Z" transform="translate(-10.448 -12.18)"/><path class="cls-8" d="M403.011,300.494h1.143v2.7l-.042,1.394a3.235,3.235,0,0,1,2.257-1.114c1.421,0,2.062.919,2.062,2.646v4.291h-1.143v-4.138c0-1.268-.39-1.811-1.281-1.811-.7,0-1.17.361-1.853,1.045v4.9h-1.143Z" transform="translate(-10.448 -12.18)"/><path class="cls-8" d="M414.421,306.122c0-.863-.293-1.7-1.394-1.7a3.639,3.639,0,0,0-2.02.725l-.46-.795a5.031,5.031,0,0,1,2.661-.877c1.657,0,2.354,1.1,2.354,2.786v4.151h-.947l-.1-.808h-.028a3.678,3.678,0,0,1-2.243.975,1.846,1.846,0,0,1-1.992-1.922C410.255,307.181,411.537,306.442,414.421,306.122Zm-1.854,3.539a2.772,2.772,0,0,0,1.854-.906v-1.88c-2.271.278-3.037.835-3.037,1.7A1.037,1.037,0,0,0,412.567,309.661Z" transform="translate(-10.448 -12.18)"/><path class="cls-8" d="M416.746,303.643h1.185l1.281,3.845c.2.669.418,1.352.627,1.992h.056c.2-.641.418-1.323.613-1.992l1.281-3.845h1.129l-2.4,6.771h-1.337Z" transform="translate(-10.448 -12.18)"/><path class="cls-8" d="M426.707,303.476c1.728,0,2.7,1.239,2.7,3.176a4.094,4.094,0,0,1-.042.627H424.8a2.253,2.253,0,0,0,2.257,2.383,3.061,3.061,0,0,0,1.686-.529l.4.752a4.036,4.036,0,0,1-2.229.7,3.581,3.581,0,0,1-.209-7.1Zm1.7,3.051c0-1.379-.613-2.146-1.672-2.146a2.114,2.114,0,0,0-1.951,2.146Z" transform="translate(-10.448 -12.18)"/><path class="cls-8" d="M314.628,317.211h1.143v8.638c0,.361.152.5.32.5a.972.972,0,0,0,.25-.027l.153.863a1.541,1.541,0,0,1-.654.111c-.864,0-1.212-.543-1.212-1.532Z" transform="translate(-10.448 -12.18)"/><path class="cls-8" d="M317.97,318.228a.8.8,0,0,1,1.588,0,.8.8,0,0,1-1.588,0Zm.209,2.132h1.143v6.771h-1.143Z" transform="translate(-10.448 -12.18)"/><path class="cls-8" d="M321.606,320.359h.947l.1.975h.041a2.977,2.977,0,0,1,2.1-1.142,1.776,1.776,0,0,1,1.866,1.295,3.2,3.2,0,0,1,2.229-1.295c1.393,0,2.062.919,2.062,2.646v4.291h-1.143v-4.138c0-1.268-.4-1.811-1.254-1.811a2.482,2.482,0,0,0-1.7,1.045v4.9h-1.143v-4.138c0-1.268-.4-1.811-1.268-1.811a2.536,2.536,0,0,0-1.7,1.045v4.9h-1.143Z" transform="translate(-10.448 -12.18)"/><path class="cls-8" d="M332.946,318.228a.8.8,0,0,1,1.588,0,.8.8,0,0,1-1.588,0Zm.209,2.132H334.3v6.771h-1.143Z" transform="translate(-10.448 -12.18)"/><path class="cls-8" d="M336.776,321.293h-1v-.864l1.06-.069.139-1.895h.962v1.895h1.824v.934h-1.824v3.761c0,.836.265,1.31,1.044,1.31a2.446,2.446,0,0,0,.767-.181l.223.863a4.161,4.161,0,0,1-1.254.251c-1.448,0-1.937-.919-1.937-2.257Z" transform="translate(-10.448 -12.18)"/><path class="cls-8" d="M343.7,320.192c1.728,0,2.7,1.239,2.7,3.176a4.094,4.094,0,0,1-.042.627h-4.569a2.253,2.253,0,0,0,2.257,2.383,3.061,3.061,0,0,0,1.686-.529l.4.752a4.036,4.036,0,0,1-2.229.7,3.581,3.581,0,0,1-.209-7.1Zm1.7,3.051c0-1.379-.613-2.146-1.672-2.146a2.114,2.114,0,0,0-1.951,2.146Z" transform="translate(-10.448 -12.18)"/><path class="cls-8" d="M350.527,320.192a2.789,2.789,0,0,1,1.895.78l-.056-1.156v-2.605h1.156v9.919h-.947l-.1-.794h-.042a3.053,3.053,0,0,1-2.048.961c-1.7,0-2.8-1.281-2.8-3.538C347.587,321.558,348.98,320.192,350.527,320.192Zm.111,6.144a2.292,2.292,0,0,0,1.728-.934v-3.538a2.357,2.357,0,0,0-1.645-.711c-1.086,0-1.95,1.045-1.95,2.591C348.771,325.36,349.454,326.336,350.638,326.336Z" transform="translate(-10.448 -12.18)"/><path class="cls-8" d="M358.731,317.991h2.8c2.021,0,3.372.683,3.372,2.688,0,1.923-1.365,2.828-3.372,2.828h-1.644v3.622h-1.156Zm2.661,4.569c1.588,0,2.354-.585,2.354-1.881,0-1.323-.78-1.755-2.354-1.755h-1.5v3.636Z" transform="translate(-10.448 -12.18)"/><path class="cls-8" d="M366.226,322.519c0-2.926,1.6-4.694,3.9-4.694s3.915,1.783,3.915,4.694c0,2.939-1.616,4.778-3.915,4.778S366.226,325.458,366.226,322.519Zm6.6,0c0-2.271-1.073-3.678-2.7-3.678s-2.7,1.407-2.7,3.678,1.072,3.762,2.7,3.762S372.83,324.8,372.83,322.519Z" transform="translate(-10.448 -12.18)"/><path class="cls-8" d="M380.046,324.344h-3.33l-.878,2.786h-1.184l3.093-9.139h1.31l3.093,9.139h-1.24Zm-.293-.934-.432-1.393c-.335-1.018-.627-2.021-.92-3.079h-.056c-.278,1.059-.571,2.062-.905,3.079l-.432,1.393Z" transform="translate(-10.448 -12.18)"/><path class="cls-8" d="M302.043,356.9a1.564,1.564,0,1,1,1.56,1.672A1.6,1.6,0,0,1,302.043,356.9Z" transform="translate(-10.448 -12.18)"/><path class="cls-8" d="M312.6,351.425h1.156v9.139H312.6Z" transform="translate(-10.448 -12.18)"/><path class="cls-8" d="M316.154,353.793h.947l.1.975h.042a3.19,3.19,0,0,1,2.271-1.142c1.421,0,2.062.919,2.062,2.646v4.291H320.43v-4.138c0-1.268-.39-1.811-1.281-1.811-.7,0-1.17.361-1.853,1.045v4.9h-1.143Z" transform="translate(-10.448 -12.18)"/><path class="cls-8" d="M326.532,353.626a2.793,2.793,0,0,1,1.979.808l-.571.738a2.046,2.046,0,0,0-1.365-.6c-1.226,0-2.117,1.059-2.117,2.619s.85,2.591,2.09,2.591a2.414,2.414,0,0,0,1.588-.683l.516.752a3.351,3.351,0,0,1-2.2.878c-1.8,0-3.177-1.3-3.177-3.538A3.279,3.279,0,0,1,326.532,353.626Z" transform="translate(-10.448 -12.18)"/><path class="cls-8" d="M330.127,350.645h1.143v8.638c0,.361.152.5.32.5a.972.972,0,0,0,.25-.027l.153.863a1.541,1.541,0,0,1-.654.111c-.864,0-1.212-.543-1.212-1.532Z" transform="translate(-10.448 -12.18)"/><path class="cls-8" d="M333.581,353.793h1.156v4.138c0,1.268.376,1.811,1.268,1.811.7,0,1.185-.348,1.825-1.142v-4.807h1.143v6.771h-.947l-.1-1.059h-.042a2.862,2.862,0,0,1-2.229,1.226c-1.436,0-2.076-.919-2.076-2.646Z" transform="translate(-10.448 -12.18)"/><path class="cls-8" d="M343.709,353.626a2.789,2.789,0,0,1,1.895.78l-.056-1.156v-2.605H346.7v9.919h-.947l-.1-.794h-.042a3.053,3.053,0,0,1-2.048.961c-1.7,0-2.8-1.281-2.8-3.538C340.768,354.991,342.162,353.626,343.709,353.626Zm.111,6.144a2.292,2.292,0,0,0,1.728-.934V355.3a2.357,2.357,0,0,0-1.645-.711c-1.086,0-1.95,1.045-1.95,2.591C341.953,358.794,342.636,359.77,343.82,359.77Z" transform="translate(-10.448 -12.18)"/><path class="cls-8" d="M351.523,353.626c1.728,0,2.7,1.239,2.7,3.176a4.094,4.094,0,0,1-.042.627h-4.569a2.253,2.253,0,0,0,2.257,2.383,3.061,3.061,0,0,0,1.686-.529l.4.752a4.036,4.036,0,0,1-2.229.7,3.581,3.581,0,0,1-.209-7.1Zm1.7,3.051c0-1.379-.613-2.146-1.672-2.146a2.114,2.114,0,0,0-1.951,2.146Z" transform="translate(-10.448 -12.18)"/><path class="cls-8" d="M358.349,353.626a2.789,2.789,0,0,1,1.895.78l-.056-1.156v-2.605h1.156v9.919H360.4l-.1-.794h-.042a3.053,3.053,0,0,1-2.048.961c-1.7,0-2.8-1.281-2.8-3.538C355.409,354.991,356.8,353.626,358.349,353.626Zm.111,6.144a2.292,2.292,0,0,0,1.728-.934V355.3a2.357,2.357,0,0,0-1.645-.711c-1.086,0-1.95,1.045-1.95,2.591C356.594,358.794,357.276,359.77,358.461,359.77Z" transform="translate(-10.448 -12.18)"/><path class="cls-8" d="M366.234,351.661a.8.8,0,0,1,1.588,0,.8.8,0,0,1-1.588,0Zm.209,2.132h1.143v6.771h-1.143Z" transform="translate(-10.448 -12.18)"/><path class="cls-8" d="M369.87,353.793h.947l.1.975h.041a3.194,3.194,0,0,1,2.271-1.142c1.421,0,2.062.919,2.062,2.646v4.291h-1.143v-4.138c0-1.268-.39-1.811-1.281-1.811-.7,0-1.17.361-1.853,1.045v4.9H369.87Z" transform="translate(-10.448 -12.18)"/><path class="cls-8" d="M379.495,353.793h1.171l1,3.915c.153.641.278,1.253.4,1.88h.056c.153-.627.292-1.254.459-1.88l1.045-3.915h1.115l1.059,3.915c.167.641.32,1.253.474,1.88h.056c.153-.627.278-1.239.418-1.88l.989-3.915h1.086l-1.811,6.771h-1.394l-.975-3.636c-.168-.642-.293-1.268-.46-1.951h-.056c-.153.684-.293,1.324-.474,1.965l-.947,3.622h-1.338Z" transform="translate(-10.448 -12.18)"/><path class="cls-8" d="M390.1,351.661a.8.8,0,0,1,1.588,0,.8.8,0,0,1-1.588,0Zm.209,2.132h1.143v6.771h-1.143Z" transform="translate(-10.448 -12.18)"/><path class="cls-8" d="M396.783,351.578a1.907,1.907,0,0,0-.767-.168c-.641,0-.947.446-.947,1.31v1.073H396.5v.934h-1.436v5.837h-1.143v-5.837h-.919v-.864l.919-.069V352.72c0-1.379.627-2.242,1.979-2.242a3.079,3.079,0,0,1,1.129.223Z" transform="translate(-10.448 -12.18)"/><path class="cls-8" d="M400.2,353.626c1.728,0,2.7,1.239,2.7,3.176a4.094,4.094,0,0,1-.042.627h-4.569a2.253,2.253,0,0,0,2.257,2.383,3.061,3.061,0,0,0,1.686-.529l.4.752a4.036,4.036,0,0,1-2.229.7,3.581,3.581,0,0,1-.209-7.1Zm1.7,3.051c0-1.379-.613-2.146-1.672-2.146a2.114,2.114,0,0,0-1.951,2.146Z" transform="translate(-10.448 -12.18)"/><path class="cls-8" d="M404.18,354.029a1.914,1.914,0,0,0,1.045-1.741.314.314,0,0,1-.111.014.691.691,0,0,1-.739-.7.714.714,0,0,1,.739-.78c.543,0,.877.46.877,1.269a2.7,2.7,0,0,1-1.49,2.466Z" transform="translate(-10.448 -12.18)"/><path class="cls-8" d="M407.05,359.031a3.045,3.045,0,0,0,1.992.808c.892,0,1.338-.474,1.338-1.059,0-.7-.809-1-1.547-1.281-.961-.349-2.02-.809-2.02-1.951,0-1.086.863-1.922,2.326-1.922a3.379,3.379,0,0,1,2.1.766l-.543.725a2.512,2.512,0,0,0-1.547-.6c-.85,0-1.239.459-1.239.975,0,.642.738.878,1.5,1.171.976.362,2.063.766,2.063,2.048,0,1.1-.878,2.02-2.479,2.02a4.079,4.079,0,0,1-2.522-.934Z" transform="translate(-10.448 -12.18)"/><path class="cls-8" d="M418.417,353.626c1.728,0,2.7,1.239,2.7,3.176a4.094,4.094,0,0,1-.042.627h-4.569a2.253,2.253,0,0,0,2.257,2.383,3.061,3.061,0,0,0,1.686-.529l.4.752a4.036,4.036,0,0,1-2.229.7,3.581,3.581,0,0,1-.209-7.1Zm1.7,3.051c0-1.379-.613-2.146-1.672-2.146a2.114,2.114,0,0,0-1.951,2.146Z" transform="translate(-10.448 -12.18)"/><path class="cls-8" d="M422.61,359.031a3.045,3.045,0,0,0,1.992.808c.892,0,1.338-.474,1.338-1.059,0-.7-.809-1-1.547-1.281-.961-.349-2.02-.809-2.02-1.951,0-1.086.863-1.922,2.326-1.922a3.379,3.379,0,0,1,2.1.766l-.543.725a2.512,2.512,0,0,0-1.547-.6c-.85,0-1.239.459-1.239.975,0,.642.738.878,1.5,1.171.976.362,2.063.766,2.063,2.048,0,1.1-.878,2.02-2.479,2.02a4.079,4.079,0,0,1-2.522-.934Z" transform="translate(-10.448 -12.18)"/><path class="cls-8" d="M428.823,354.727h-1v-.864l1.06-.069.139-1.895h.962v1.895H431.8v.934H429.98v3.761c0,.836.265,1.31,1.044,1.31a2.446,2.446,0,0,0,.767-.181l.223.863a4.161,4.161,0,0,1-1.254.251c-1.448,0-1.937-.919-1.937-2.257Z" transform="translate(-10.448 -12.18)"/><path class="cls-8" d="M436.917,356.272c0-.863-.293-1.7-1.394-1.7a3.639,3.639,0,0,0-2.02.725l-.46-.795a5.031,5.031,0,0,1,2.661-.877c1.657,0,2.354,1.1,2.354,2.786v4.151h-.947l-.1-.808h-.028a3.678,3.678,0,0,1-2.243.975,1.846,1.846,0,0,1-1.992-1.922C432.751,357.331,434.033,356.593,436.917,356.272Zm-1.854,3.539a2.772,2.772,0,0,0,1.854-.906v-1.88c-2.271.278-3.037.835-3.037,1.7A1.037,1.037,0,0,0,435.063,359.812Z" transform="translate(-10.448 -12.18)"/><path class="cls-8" d="M440.413,354.727h-1v-.864l1.06-.069.139-1.895h.962v1.895h1.824v.934H441.57v3.761c0,.836.265,1.31,1.044,1.31a2.446,2.446,0,0,0,.767-.181l.223.863a4.161,4.161,0,0,1-1.254.251c-1.448,0-1.937-.919-1.937-2.257Z" transform="translate(-10.448 -12.18)"/><path class="cls-8" d="M447.337,353.626c1.728,0,2.7,1.239,2.7,3.176a4.094,4.094,0,0,1-.042.627h-4.569a2.253,2.253,0,0,0,2.257,2.383,3.061,3.061,0,0,0,1.686-.529l.4.752a4.036,4.036,0,0,1-2.229.7,3.581,3.581,0,0,1-.209-7.1Zm1.7,3.051c0-1.379-.613-2.146-1.672-2.146a2.114,2.114,0,0,0-1.951,2.146Z" transform="translate(-10.448 -12.18)"/><line class="cls-2" x1="165.874" y1="26.888" x2="138.049" y2="65.185"/><polygon points="127.542 79.647 123.774 54.812 152.326 75.555 127.542 79.647"/><line class="cls-2" x1="467.173" y1="121.313" x2="509.401" y2="121.313"/><polygon points="524.405 121.313 506.527 103.668 506.527 138.959 524.405 121.313"/><rect class="cls-10" x="158.636" width="146.273" height="33.434"/><path class="cls-8" d="M213.684,30.91a3.58,3.58,0,0,0,2.521,1.143c1.2,0,1.909-.6,1.909-1.491,0-.934-.655-1.226-1.519-1.616l-1.31-.571a2.567,2.567,0,0,1-1.853-2.354A2.6,2.6,0,0,1,216.3,23.6a3.793,3.793,0,0,1,2.7,1.128l-.627.752a2.915,2.915,0,0,0-2.076-.864c-1.017,0-1.7.516-1.7,1.337,0,.877.794,1.212,1.519,1.519l1.3.557a2.544,2.544,0,0,1,1.881,2.438c0,1.449-1.184,2.6-3.106,2.6a4.434,4.434,0,0,1-3.2-1.351Z" transform="translate(-10.448 -12.18)"/><path class="cls-8" d="M222.126,33.473v2.285h-1.142V26.131h.947l.1.78h.042a3.5,3.5,0,0,1,2.159-.948c1.742,0,2.675,1.352,2.675,3.455,0,2.3-1.379,3.65-2.925,3.65a3.141,3.141,0,0,1-1.881-.78Zm1.658-1.365c1.115,0,1.937-1.017,1.937-2.689,0-1.491-.5-2.494-1.783-2.494a2.852,2.852,0,0,0-1.811.919V31.4A2.681,2.681,0,0,0,223.784,32.108Z" transform="translate(-10.448 -12.18)"/><path class="cls-8" d="M231.348,25.964c1.658,0,3.135,1.3,3.135,3.566a3.158,3.158,0,1,1-6.27,0C228.214,27.26,229.691,25.964,231.348,25.964Zm0,6.158c1.17,0,1.95-1.045,1.95-2.591s-.78-2.619-1.95-2.619-1.95,1.059-1.95,2.619S230.192,32.122,231.348,32.122Z" transform="translate(-10.448 -12.18)"/><path class="cls-8" d="M236.168,26.131h1.156v4.138c0,1.268.376,1.811,1.268,1.811.7,0,1.184-.349,1.825-1.143V26.131h1.142V32.9h-.947l-.1-1.059h-.042a2.861,2.861,0,0,1-2.229,1.226c-1.435,0-2.076-.919-2.076-2.647Z" transform="translate(-10.448 -12.18)"/><path class="cls-8" d="M243.663,31.37a3.044,3.044,0,0,0,1.992.808c.892,0,1.337-.474,1.337-1.059,0-.7-.808-1-1.546-1.282-.961-.348-2.02-.808-2.02-1.95,0-1.087.864-1.923,2.326-1.923a3.38,3.38,0,0,1,2.1.767l-.543.724a2.516,2.516,0,0,0-1.546-.6c-.85,0-1.24.46-1.24.976,0,.641.738.877,1.5,1.17.975.362,2.062.766,2.062,2.048,0,1.1-.878,2.02-2.48,2.02a4.075,4.075,0,0,1-2.521-.933Z" transform="translate(-10.448 -12.18)"/><path class="cls-8" d="M252.216,25.964c1.728,0,2.7,1.24,2.7,3.177a4.036,4.036,0,0,1-.042.626h-4.57a2.254,2.254,0,0,0,2.257,2.382,3.06,3.06,0,0,0,1.686-.529l.4.752a4.033,4.033,0,0,1-2.229.7,3.238,3.238,0,0,1-3.246-3.539A3.265,3.265,0,0,1,252.216,25.964Zm1.7,3.051c0-1.379-.613-2.146-1.672-2.146a2.113,2.113,0,0,0-1.95,2.146Z" transform="translate(-10.448 -12.18)"/><path class="cls-8" d="M259.864,30.06H258.75v-.794h1.212l.25-2.062h-1.184V26.4h1.282l.32-2.549h.738l-.32,2.549H262.9l.334-2.549h.738l-.334,2.549h1.128V27.2h-1.212l-.251,2.062h1.184v.794h-1.281l-.349,2.842h-.738l.334-2.842h-1.839l-.348,2.842h-.752Zm2.689-.794.25-2.062h-1.839l-.251,2.062Z" transform="translate(-10.448 -12.18)"/><path class="cls-8" d="M266.286,31.955h2.034V25.407H266.7v-.738a5.286,5.286,0,0,0,1.881-.655h.877v7.941H271.3V32.9h-5.015Z" transform="translate(-10.448 -12.18)"/></svg>