<svg id="Layer_1" data-name="Layer 1" xmlns="http://www.w3.org/2000/svg" viewBox="0 0 334.583 380.632"><defs><style>.cls-1{fill:#bcbec0;}.cls-2{fill:#fff;}.cls-3{fill:#231f20;}</style></defs><title>Planning_Minimize_Estate_Taxes_Simpler</title><rect class="cls-1" width="334.583" height="380.632"/><rect class="cls-2" x="110.995" y="235.832" width="167.691" height="79.853"/><rect class="cls-2" x="110.995" y="20.762" width="167.691" height="38.329"/><rect class="cls-2" x="186.856" y="59.091" width="15.971" height="45.516"/><polygon class="cls-2" points="194.841 121.642 215.07 101.147 174.611 101.147 194.841 121.642"/><rect class="cls-2" x="110.995" y="128.43" width="167.691" height="38.329"/><rect class="cls-2" x="186.856" y="166.759" width="15.971" height="45.516"/><polygon class="cls-2" points="194.841 229.311 215.07 208.815 174.611 208.815 194.841 229.311"/><path class="cls-3" d="M174.186,42.449a2.544,2.544,0,0,0-1.949-.911,1.469,1.469,0,0,0-1.6,1.534c0,2.317,4.457,1.678,4.457,5.112a2.68,2.68,0,0,1-2.476,2.78v1.614h-.958V51a4.855,4.855,0,0,1-2.716-1.23l.607-.911a3.818,3.818,0,0,0,2.476,1.07,1.559,1.559,0,0,0,1.773-1.646c0-2.588-4.458-2.029-4.458-5.145a2.612,2.612,0,0,1,2.317-2.668v-1.6h.958v1.582a3.522,3.522,0,0,1,2.269,1.214Z" transform="translate(-9 -6.368)"/><path class="cls-3" d="M177.139,48.712a3.46,3.46,0,0,0,2.6,1.214,1.9,1.9,0,0,0,2.109-1.869c0-1.214-.831-2.029-3.259-2.029V45.021c2.173,0,2.892-.831,2.892-1.9a1.569,1.569,0,0,0-1.757-1.614,3.088,3.088,0,0,0-2.172,1.039l-.7-.831a4.2,4.2,0,0,1,2.923-1.278c1.773,0,3.052.942,3.052,2.588a2.527,2.527,0,0,1-1.854,2.429v.063a2.631,2.631,0,0,1,2.205,2.588c0,1.805-1.486,2.908-3.355,2.908a4.33,4.33,0,0,1-3.355-1.438Z" transform="translate(-9 -6.368)"/><path class="cls-3" d="M184.741,52.77a2.148,2.148,0,0,0,1.438-1.949.538.538,0,0,1-.16.016.88.88,0,0,1-.942-.911.919.919,0,0,1,.975-.927c.687,0,1.1.591,1.1,1.55a3.174,3.174,0,0,1-2.093,2.987Z" transform="translate(-9 -6.368)"/><path class="cls-3" d="M193.75,41.762h-5.081V40.628h6.566v.815c-2.412,3.083-2.907,5.4-3.083,9.378h-1.358A15,15,0,0,1,193.75,41.762Z" transform="translate(-9 -6.368)"/><path class="cls-3" d="M196.606,45.692c0-3.419,1.229-5.256,3.274-5.256,2.029,0,3.26,1.837,3.26,5.256s-1.23,5.32-3.26,5.32C197.836,51.013,196.606,49.111,196.606,45.692Zm5.256,0c0-2.987-.8-4.2-1.981-4.2s-2,1.214-2,4.2.8,4.266,2,4.266S201.862,48.68,201.862,45.692Z" transform="translate(-9 -6.368)"/><path class="cls-3" d="M204.544,45.692c0-3.419,1.229-5.256,3.274-5.256,2.029,0,3.26,1.837,3.26,5.256s-1.23,5.32-3.26,5.32C205.773,51.013,204.544,49.111,204.544,45.692Zm5.256,0c0-2.987-.8-4.2-1.981-4.2s-2,1.214-2,4.2.8,4.266,2,4.266S209.8,48.68,209.8,45.692Z" transform="translate(-9 -6.368)"/><path class="cls-3" d="M212.529,52.77a2.148,2.148,0,0,0,1.438-1.949.535.535,0,0,1-.159.016.88.88,0,0,1-.943-.911.92.92,0,0,1,.975-.927c.688,0,1.1.591,1.1,1.55a3.174,3.174,0,0,1-2.093,2.987Z" transform="translate(-9 -6.368)"/><path class="cls-3" d="M216.458,45.692c0-3.419,1.229-5.256,3.274-5.256,2.029,0,3.26,1.837,3.26,5.256s-1.23,5.32-3.26,5.32C217.688,51.013,216.458,49.111,216.458,45.692Zm5.256,0c0-2.987-.8-4.2-1.981-4.2s-2,1.214-2,4.2.8,4.266,2,4.266S221.714,48.68,221.714,45.692Z" transform="translate(-9 -6.368)"/><path class="cls-3" d="M224.4,45.692c0-3.419,1.229-5.256,3.274-5.256,2.029,0,3.26,1.837,3.26,5.256s-1.23,5.32-3.26,5.32C225.625,51.013,224.4,49.111,224.4,45.692Zm5.256,0c0-2.987-.8-4.2-1.981-4.2s-2,1.214-2,4.2.8,4.266,2,4.266S229.651,48.68,229.651,45.692Z" transform="translate(-9 -6.368)"/><path class="cls-3" d="M232.332,45.692c0-3.419,1.229-5.256,3.274-5.256,2.029,0,3.26,1.837,3.26,5.256s-1.23,5.32-3.26,5.32C233.562,51.013,232.332,49.111,232.332,45.692Zm5.256,0c0-2.987-.8-4.2-1.981-4.2s-2,1.214-2,4.2.8,4.266,2,4.266S237.588,48.68,237.588,45.692Z" transform="translate(-9 -6.368)"/><path class="cls-3" d="M169.2,148.412h6.039v1.119h-4.713v3.546h3.994V154.2h-3.994v4.7H169.2Z" transform="translate(-9 -6.368)"/><path class="cls-3" d="M176.723,148.684a.913.913,0,0,1,1.821,0,.913.913,0,0,1-1.821,0Zm.24,2.444h1.31v7.764h-1.31Z" transform="translate(-9 -6.368)"/><path class="cls-3" d="M180.892,151.128h1.086l.112,1.406h.048a2.656,2.656,0,0,1,2.2-1.6,1.931,1.931,0,0,1,.831.16l-.256,1.15a2.167,2.167,0,0,0-.751-.128c-.655,0-1.437.479-1.965,1.79v4.984h-1.31Z" transform="translate(-9 -6.368)"/><path class="cls-3" d="M186.082,157.135a3.493,3.493,0,0,0,2.284.927c1.022,0,1.534-.543,1.534-1.214,0-.8-.926-1.15-1.773-1.47-1.1-.4-2.317-.927-2.317-2.237,0-1.246.991-2.2,2.668-2.2a3.875,3.875,0,0,1,2.413.879l-.623.831a2.884,2.884,0,0,0-1.773-.687c-.975,0-1.422.527-1.422,1.118,0,.735.847,1.007,1.726,1.342,1.118.415,2.364.878,2.364,2.348,0,1.262-1.006,2.317-2.844,2.317a4.672,4.672,0,0,1-2.892-1.071Z" transform="translate(-9 -6.368)"/><path class="cls-3" d="M193.205,152.2h-1.15v-.991l1.214-.08.16-2.173h1.1v2.173h2.093v1.07H194.53v4.313c0,.958.3,1.5,1.2,1.5a2.828,2.828,0,0,0,.879-.208l.256.991a4.8,4.8,0,0,1-1.438.288c-1.661,0-2.22-1.055-2.22-2.588Z" transform="translate(-9 -6.368)"/><path class="cls-3" d="M201.732,148.412h2.62c3.228,0,4.953,1.87,4.953,5.192,0,3.339-1.726,5.288-4.889,5.288h-2.685Zm2.524,9.394c2.444,0,3.675-1.55,3.675-4.2,0-2.636-1.23-4.106-3.675-4.106h-1.2v8.308Z" transform="translate(-9 -6.368)"/><path class="cls-3" d="M214.334,150.937c1.98,0,3.1,1.422,3.1,3.643a4.714,4.714,0,0,1-.048.719h-5.24a2.583,2.583,0,0,0,2.588,2.732,3.51,3.51,0,0,0,1.933-.607l.464.863a4.626,4.626,0,0,1-2.557.8,3.713,3.713,0,0,1-3.722-4.058C210.852,152.486,212.561,150.937,214.334,150.937Zm1.949,3.5c0-1.582-.7-2.46-1.917-2.46a2.423,2.423,0,0,0-2.237,2.46Z" transform="translate(-9 -6.368)"/><path class="cls-3" d="M223.533,153.972c0-.991-.335-1.949-1.6-1.949a4.18,4.18,0,0,0-2.316.831l-.527-.911a5.766,5.766,0,0,1,3.052-1.006c1.9,0,2.7,1.262,2.7,3.2v4.761h-1.087l-.111-.927h-.032a4.217,4.217,0,0,1-2.572,1.119,2.117,2.117,0,0,1-2.284-2.205C218.757,155.186,220.227,154.339,223.533,153.972Zm-2.125,4.058a3.179,3.179,0,0,0,2.125-1.039v-2.157c-2.6.32-3.482.959-3.482,1.949A1.189,1.189,0,0,0,221.408,158.03Z" transform="translate(-9 -6.368)"/><path class="cls-3" d="M227.541,152.2h-1.15v-.991l1.214-.08.16-2.173h1.1v2.173h2.093v1.07h-2.093v4.313c0,.958.3,1.5,1.2,1.5a2.828,2.828,0,0,0,.879-.208l.256.991a4.8,4.8,0,0,1-1.438.288c-1.661,0-2.22-1.055-2.22-2.588Z" transform="translate(-9 -6.368)"/><path class="cls-3" d="M232.715,147.518h1.311v3.1l-.048,1.6a3.71,3.71,0,0,1,2.588-1.278c1.63,0,2.364,1.055,2.364,3.036v4.92h-1.31v-4.745c0-1.454-.447-2.077-1.47-2.077-.8,0-1.342.416-2.125,1.2v5.624h-1.311Z" transform="translate(-9 -6.368)"/><path class="cls-3" d="M159.06,276.387a4.107,4.107,0,0,0,2.892,1.31c1.374,0,2.189-.687,2.189-1.709,0-1.07-.751-1.406-1.742-1.854l-1.5-.655a2.944,2.944,0,0,1-2.125-2.7c0-1.6,1.39-2.779,3.291-2.779a4.35,4.35,0,0,1,3.1,1.294l-.719.862a3.344,3.344,0,0,0-2.38-.99c-1.166,0-1.949.591-1.949,1.534,0,1.006.911,1.39,1.741,1.741l1.486.639c1.214.527,2.157,1.246,2.157,2.8,0,1.661-1.358,2.987-3.563,2.987a5.079,5.079,0,0,1-3.674-1.55Z" transform="translate(-9 -6.368)"/><path class="cls-3" d="M170.336,270.715c1.981,0,3.1,1.422,3.1,3.643a4.653,4.653,0,0,1-.048.719h-5.24a2.585,2.585,0,0,0,2.588,2.732,3.511,3.511,0,0,0,1.933-.607l.463.862a4.623,4.623,0,0,1-2.556.8,3.713,3.713,0,0,1-3.723-4.058C166.854,272.265,168.563,270.715,170.336,270.715Zm1.949,3.5c0-1.582-.7-2.461-1.917-2.461a2.423,2.423,0,0,0-2.236,2.461Z" transform="translate(-9 -6.368)"/><path class="cls-3" d="M178.513,270.715a3.2,3.2,0,0,1,2.269.927l-.655.847a2.348,2.348,0,0,0-1.566-.687c-1.406,0-2.428,1.215-2.428,3,0,1.773.975,2.972,2.4,2.972a2.766,2.766,0,0,0,1.821-.783l.591.863a3.845,3.845,0,0,1-2.524,1.006c-2.061,0-3.643-1.485-3.643-4.058A3.76,3.76,0,0,1,178.513,270.715Z" transform="translate(-9 -6.368)"/><path class="cls-3" d="M185.316,270.715c1.9,0,3.595,1.485,3.595,4.09,0,2.572-1.694,4.058-3.595,4.058s-3.595-1.485-3.595-4.058C181.722,272.2,183.415,270.715,185.316,270.715Zm0,7.062c1.342,0,2.236-1.2,2.236-2.972,0-1.789-.895-3-2.236-3-1.326,0-2.237,1.215-2.237,3C183.08,276.578,183.99,277.776,185.316,277.776Z" transform="translate(-9 -6.368)"/><path class="cls-3" d="M190.953,270.906h1.086l.111,1.119h.049a3.657,3.657,0,0,1,2.6-1.311c1.63,0,2.364,1.055,2.364,3.035v4.921h-1.31v-4.745c0-1.453-.447-2.076-1.47-2.076-.8,0-1.342.415-2.125,1.2v5.624h-1.31Z" transform="translate(-9 -6.368)"/><path class="cls-3" d="M202.5,270.715a3.2,3.2,0,0,1,2.173.895l-.064-1.326V267.3h1.326v11.375H204.85l-.112-.91h-.048a3.5,3.5,0,0,1-2.349,1.1c-1.949,0-3.211-1.47-3.211-4.058C199.13,272.28,200.728,270.715,202.5,270.715Zm.128,7.046a2.625,2.625,0,0,0,1.98-1.071v-4.058a2.7,2.7,0,0,0-1.885-.814c-1.246,0-2.237,1.2-2.237,2.972C200.487,276.642,201.271,277.761,202.629,277.761Z" transform="translate(-9 -6.368)"/><path class="cls-3" d="M211.905,268.19h2.62c3.228,0,4.953,1.869,4.953,5.192,0,3.339-1.726,5.288-4.889,5.288h-2.685Zm2.524,9.395c2.444,0,3.675-1.55,3.675-4.2,0-2.636-1.23-4.105-3.675-4.105h-1.2v8.308Z" transform="translate(-9 -6.368)"/><path class="cls-3" d="M224.508,270.715c1.98,0,3.1,1.422,3.1,3.643a4.714,4.714,0,0,1-.048.719h-5.24a2.584,2.584,0,0,0,2.588,2.732,3.511,3.511,0,0,0,1.933-.607l.464.862a4.622,4.622,0,0,1-2.557.8,3.712,3.712,0,0,1-3.722-4.058C221.025,272.265,222.734,270.715,224.508,270.715Zm1.949,3.5c0-1.582-.7-2.461-1.917-2.461a2.424,2.424,0,0,0-2.237,2.461Z" transform="translate(-9 -6.368)"/><path class="cls-3" d="M233.69,273.75c0-.99-.335-1.949-1.6-1.949a4.181,4.181,0,0,0-2.316.831l-.527-.91a5.762,5.762,0,0,1,3.052-1.007c1.9,0,2.7,1.262,2.7,3.2v4.761h-1.087l-.111-.927h-.032a4.217,4.217,0,0,1-2.572,1.118,2.117,2.117,0,0,1-2.284-2.2C228.914,274.965,230.384,274.118,233.69,273.75Zm-2.124,4.059a3.182,3.182,0,0,0,2.124-1.039v-2.156c-2.6.319-3.482.958-3.482,1.949A1.19,1.19,0,0,0,231.566,277.809Z" transform="translate(-9 -6.368)"/><path class="cls-3" d="M237.7,271.977h-1.149v-.99l1.214-.08.16-2.173h1.1v2.173h2.093v1.07h-2.093v4.313c0,.959.3,1.5,1.2,1.5a2.828,2.828,0,0,0,.879-.207l.256.99a4.8,4.8,0,0,1-1.438.287c-1.661,0-2.221-1.054-2.221-2.588Z" transform="translate(-9 -6.368)"/><path class="cls-3" d="M242.872,267.3h1.311v3.1l-.048,1.6a3.71,3.71,0,0,1,2.588-1.278c1.63,0,2.364,1.055,2.364,3.035v4.921h-1.31v-4.745c0-1.453-.447-2.076-1.47-2.076-.8,0-1.342.415-2.125,1.2v5.624h-1.311Z" transform="translate(-9 -6.368)"/><path class="cls-3" d="M174.2,289.465a2.545,2.545,0,0,0-1.949-.911,1.469,1.469,0,0,0-1.6,1.534c0,2.316,4.457,1.677,4.457,5.112a2.679,2.679,0,0,1-2.476,2.779v1.614h-.958v-1.582a4.855,4.855,0,0,1-2.716-1.23l.607-.91a3.818,3.818,0,0,0,2.476,1.07,1.559,1.559,0,0,0,1.773-1.646c0-2.588-4.458-2.029-4.458-5.145a2.612,2.612,0,0,1,2.317-2.668v-1.6h.958v1.582a3.518,3.518,0,0,1,2.269,1.214Z" transform="translate(-9 -6.368)"/><path class="cls-3" d="M177.156,295.728a3.461,3.461,0,0,0,2.6,1.214,1.9,1.9,0,0,0,2.109-1.869c0-1.214-.831-2.029-3.259-2.029v-1.006c2.173,0,2.892-.831,2.892-1.9a1.569,1.569,0,0,0-1.757-1.614,3.089,3.089,0,0,0-2.172,1.039l-.7-.831a4.2,4.2,0,0,1,2.923-1.278c1.773,0,3.052.943,3.052,2.589a2.526,2.526,0,0,1-1.854,2.428v.064a2.629,2.629,0,0,1,2.205,2.588c0,1.806-1.486,2.907-3.355,2.907a4.33,4.33,0,0,1-3.355-1.437Z" transform="translate(-9 -6.368)"/><path class="cls-3" d="M184.757,299.785a2.148,2.148,0,0,0,1.438-1.949.555.555,0,0,1-.16.016.879.879,0,0,1-.942-.91.919.919,0,0,1,.975-.927c.687,0,1.1.591,1.1,1.55a3.174,3.174,0,0,1-2.093,2.987Z" transform="translate(-9 -6.368)"/><path class="cls-3" d="M193.767,288.777h-5.081v-1.134h6.566v.814c-2.412,3.083-2.907,5.4-3.083,9.378h-1.358A15,15,0,0,1,193.767,288.777Z" transform="translate(-9 -6.368)"/><path class="cls-3" d="M196.623,292.708c0-3.419,1.229-5.257,3.274-5.257,2.029,0,3.26,1.838,3.26,5.257s-1.23,5.319-3.26,5.319C197.853,298.027,196.623,296.127,196.623,292.708Zm5.256,0c0-2.988-.8-4.2-1.981-4.2s-2,1.214-2,4.2.8,4.266,2,4.266S201.879,295.7,201.879,292.708Z" transform="translate(-9 -6.368)"/><path class="cls-3" d="M204.561,292.708c0-3.419,1.229-5.257,3.274-5.257,2.029,0,3.26,1.838,3.26,5.257s-1.23,5.319-3.26,5.319C205.79,298.027,204.561,296.127,204.561,292.708Zm5.256,0c0-2.988-.8-4.2-1.981-4.2s-2,1.214-2,4.2.8,4.266,2,4.266S209.816,295.7,209.816,292.708Z" transform="translate(-9 -6.368)"/><path class="cls-3" d="M212.546,299.785a2.148,2.148,0,0,0,1.438-1.949.551.551,0,0,1-.159.016.88.88,0,0,1-.943-.91.919.919,0,0,1,.975-.927c.688,0,1.1.591,1.1,1.55a3.174,3.174,0,0,1-2.093,2.987Z" transform="translate(-9 -6.368)"/><path class="cls-3" d="M216.475,292.708c0-3.419,1.229-5.257,3.274-5.257,2.029,0,3.26,1.838,3.26,5.257s-1.23,5.319-3.26,5.319C217.7,298.027,216.475,296.127,216.475,292.708Zm5.256,0c0-2.988-.8-4.2-1.981-4.2s-2,1.214-2,4.2.8,4.266,2,4.266S221.73,295.7,221.73,292.708Z" transform="translate(-9 -6.368)"/><path class="cls-3" d="M224.412,292.708c0-3.419,1.229-5.257,3.274-5.257,2.029,0,3.26,1.838,3.26,5.257s-1.23,5.319-3.26,5.319C225.642,298.027,224.412,296.127,224.412,292.708Zm5.256,0c0-2.988-.8-4.2-1.981-4.2s-2,1.214-2,4.2.8,4.266,2,4.266S229.668,295.7,229.668,292.708Z" transform="translate(-9 -6.368)"/><path class="cls-3" d="M232.349,292.708c0-3.419,1.229-5.257,3.274-5.257,2.029,0,3.26,1.838,3.26,5.257s-1.23,5.319-3.26,5.319C233.578,298.027,232.349,296.127,232.349,292.708Zm5.256,0c0-2.988-.8-4.2-1.981-4.2s-2,1.214-2,4.2.8,4.266,2,4.266S237.6,295.7,237.6,292.708Z" transform="translate(-9 -6.368)"/><path class="cls-3" d="M135.6,331.2h-3.163v-1.118h7.668V331.2h-3.163v9.362H135.6Z" transform="translate(-9 -6.368)"/><path class="cls-3" d="M145.1,335.637c0-.99-.336-1.949-1.6-1.949a4.178,4.178,0,0,0-2.316.831l-.527-.91a5.757,5.757,0,0,1,3.051-1.007c1.9,0,2.7,1.262,2.7,3.2v4.761h-1.086l-.112-.927h-.032a4.217,4.217,0,0,1-2.572,1.118,2.117,2.117,0,0,1-2.284-2.2C140.327,336.852,141.8,336,145.1,335.637Zm-2.125,4.059a3.182,3.182,0,0,0,2.125-1.039V336.5c-2.6.319-3.483.958-3.483,1.949A1.19,1.19,0,0,0,142.979,339.7Z" transform="translate(-9 -6.368)"/><path class="cls-3" d="M150.34,336.5l-2.348-3.707h1.422l1.038,1.71c.24.415.5.862.767,1.294h.064c.224-.432.463-.879.7-1.294l.943-1.71H154.3l-2.349,3.851,2.524,3.914h-1.422l-1.135-1.806c-.271-.463-.559-.942-.847-1.39h-.063c-.272.447-.527.911-.783,1.39l-1.054,1.806H147.8Z" transform="translate(-9 -6.368)"/><path class="cls-3" d="M160.244,335.637c0-.99-.335-1.949-1.6-1.949a4.181,4.181,0,0,0-2.317.831l-.527-.91a5.757,5.757,0,0,1,3.051-1.007c1.9,0,2.7,1.262,2.7,3.2v4.761h-1.086l-.112-.927h-.032a4.217,4.217,0,0,1-2.572,1.118,2.117,2.117,0,0,1-2.284-2.2C155.467,336.852,156.937,336,160.244,335.637Zm-2.125,4.059a3.182,3.182,0,0,0,2.125-1.039V336.5c-2.6.319-3.483.958-3.483,1.949A1.19,1.19,0,0,0,158.119,339.7Z" transform="translate(-9 -6.368)"/><path class="cls-3" d="M164.027,329.183h1.31v3.1l-.032,1.405a3.837,3.837,0,0,1,2.429-1.086c2.013,0,3.083,1.55,3.083,3.946,0,2.651-1.582,4.2-3.355,4.2a3.515,3.515,0,0,1-2.22-.958h-.048l-.112.767h-1.054Zm3.211,10.465c1.278,0,2.221-1.167,2.221-3.084,0-1.709-.575-2.859-2.045-2.859a3.2,3.2,0,0,0-2.077,1.055v4.073A3.042,3.042,0,0,0,167.238,339.647Z" transform="translate(-9 -6.368)"/><path class="cls-3" d="M172.891,329.183h1.31v9.905c0,.415.176.575.367.575a1.09,1.09,0,0,0,.288-.032l.176.99a1.761,1.761,0,0,1-.751.128c-.99,0-1.39-.623-1.39-1.757Z" transform="translate(-9 -6.368)"/><path class="cls-3" d="M179.871,332.6c1.981,0,3.1,1.422,3.1,3.643a4.653,4.653,0,0,1-.048.719h-5.24a2.585,2.585,0,0,0,2.588,2.732,3.511,3.511,0,0,0,1.933-.607l.463.862a4.623,4.623,0,0,1-2.556.8,3.713,3.713,0,0,1-3.723-4.058C176.388,334.151,178.1,332.6,179.871,332.6Zm1.949,3.5c0-1.582-.7-2.461-1.917-2.461a2.423,2.423,0,0,0-2.236,2.461Z" transform="translate(-9 -6.368)"/><path class="cls-3" d="M188.238,330.077h6.039V331.2h-4.713v3.291h3.979v1.135h-3.979v3.8h4.873v1.135h-6.2Z" transform="translate(-9 -6.368)"/><path class="cls-3" d="M196.318,338.8a3.487,3.487,0,0,0,2.284.927c1.022,0,1.534-.543,1.534-1.214,0-.8-.927-1.15-1.773-1.47-1.1-.4-2.316-.927-2.316-2.236,0-1.246.99-2.205,2.668-2.205a3.873,3.873,0,0,1,2.412.879l-.623.83a2.888,2.888,0,0,0-1.773-.687c-.975,0-1.422.527-1.422,1.118,0,.735.847,1.007,1.726,1.342,1.118.416,2.364.879,2.364,2.349,0,1.263-1.007,2.316-2.844,2.316a4.672,4.672,0,0,1-2.892-1.07Z" transform="translate(-9 -6.368)"/><path class="cls-3" d="M203.441,333.863h-1.149v-.99l1.214-.08.16-2.173h1.1v2.173h2.093v1.07h-2.093v4.313c0,.959.3,1.5,1.2,1.5a2.828,2.828,0,0,0,.879-.207l.256.99a4.8,4.8,0,0,1-1.438.287c-1.661,0-2.221-1.054-2.221-2.588Z" transform="translate(-9 -6.368)"/><path class="cls-3" d="M212.722,335.637c0-.99-.335-1.949-1.6-1.949a4.181,4.181,0,0,0-2.316.831l-.527-.91a5.762,5.762,0,0,1,3.052-1.007c1.9,0,2.7,1.262,2.7,3.2v4.761h-1.087l-.111-.927H212.8a4.217,4.217,0,0,1-2.572,1.118,2.117,2.117,0,0,1-2.284-2.2C207.945,336.852,209.415,336,212.722,335.637ZM210.6,339.7a3.182,3.182,0,0,0,2.124-1.039V336.5c-2.6.319-3.482.958-3.482,1.949A1.19,1.19,0,0,0,210.6,339.7Z" transform="translate(-9 -6.368)"/><path class="cls-3" d="M216.729,333.863h-1.149v-.99l1.214-.08.16-2.173h1.1v2.173h2.093v1.07h-2.093v4.313c0,.959.3,1.5,1.2,1.5a2.828,2.828,0,0,0,.879-.207l.256.99a4.8,4.8,0,0,1-1.438.287c-1.661,0-2.221-1.054-2.221-2.588Z" transform="translate(-9 -6.368)"/><path class="cls-3" d="M224.651,332.6c1.98,0,3.1,1.422,3.1,3.643a4.714,4.714,0,0,1-.048.719h-5.24a2.584,2.584,0,0,0,2.588,2.732,3.511,3.511,0,0,0,1.933-.607l.464.862a4.622,4.622,0,0,1-2.557.8,3.712,3.712,0,0,1-3.722-4.058C221.169,334.151,222.878,332.6,224.651,332.6Zm1.949,3.5c0-1.582-.7-2.461-1.917-2.461a2.424,2.424,0,0,0-2.237,2.461Z" transform="translate(-9 -6.368)"/><path class="cls-3" d="M135.6,350.36h-3.163v-1.118h7.668v1.118h-3.163v9.362H135.6Z" transform="translate(-9 -6.368)"/><path class="cls-3" d="M145.1,354.8c0-.99-.336-1.949-1.6-1.949a4.178,4.178,0,0,0-2.316.831l-.527-.91a5.757,5.757,0,0,1,3.051-1.007c1.9,0,2.7,1.262,2.7,3.2v4.761h-1.086l-.112-.927h-.032a4.217,4.217,0,0,1-2.572,1.118,2.117,2.117,0,0,1-2.284-2.2C140.327,356.017,141.8,355.17,145.1,354.8Zm-2.125,4.059a3.182,3.182,0,0,0,2.125-1.039v-2.156c-2.6.319-3.483.958-3.483,1.949A1.19,1.19,0,0,0,142.979,358.86Z" transform="translate(-9 -6.368)"/><path class="cls-3" d="M150.34,355.665l-2.348-3.707h1.422l1.038,1.71c.24.415.5.862.767,1.294h.064c.224-.432.463-.879.7-1.294l.943-1.71H154.3l-2.349,3.851,2.524,3.914h-1.422l-1.135-1.806c-.271-.463-.559-.942-.847-1.39h-.063c-.272.447-.527.911-.783,1.39l-1.054,1.806H147.8Z" transform="translate(-9 -6.368)"/><path class="cls-3" d="M160.244,354.8c0-.99-.335-1.949-1.6-1.949a4.181,4.181,0,0,0-2.317.831l-.527-.91a5.757,5.757,0,0,1,3.051-1.007c1.9,0,2.7,1.262,2.7,3.2v4.761h-1.086l-.112-.927h-.032a4.217,4.217,0,0,1-2.572,1.118,2.117,2.117,0,0,1-2.284-2.2C155.467,356.017,156.937,355.17,160.244,354.8Zm-2.125,4.059a3.182,3.182,0,0,0,2.125-1.039v-2.156c-2.6.319-3.483.958-3.483,1.949A1.19,1.19,0,0,0,158.119,358.86Z" transform="translate(-9 -6.368)"/><path class="cls-3" d="M164.027,348.348h1.31v3.1l-.032,1.405a3.837,3.837,0,0,1,2.429-1.086c2.013,0,3.083,1.55,3.083,3.946,0,2.651-1.582,4.2-3.355,4.2a3.515,3.515,0,0,1-2.22-.958h-.048l-.112.767h-1.054Zm3.211,10.465c1.278,0,2.221-1.167,2.221-3.084,0-1.709-.575-2.859-2.045-2.859a3.2,3.2,0,0,0-2.077,1.055V358A3.042,3.042,0,0,0,167.238,358.813Z" transform="translate(-9 -6.368)"/><path class="cls-3" d="M172.891,348.348h1.31v9.905c0,.415.176.575.367.575a1.09,1.09,0,0,0,.288-.032l.176.99a1.761,1.761,0,0,1-.751.128c-.99,0-1.39-.623-1.39-1.757Z" transform="translate(-9 -6.368)"/><path class="cls-3" d="M179.871,351.767c1.981,0,3.1,1.422,3.1,3.643a4.653,4.653,0,0,1-.048.719h-5.24a2.585,2.585,0,0,0,2.588,2.732,3.511,3.511,0,0,0,1.933-.607l.463.862a4.623,4.623,0,0,1-2.556.8,3.713,3.713,0,0,1-3.723-4.058C176.388,353.316,178.1,351.767,179.871,351.767Zm1.949,3.5c0-1.582-.7-2.461-1.917-2.461a2.423,2.423,0,0,0-2.236,2.461Z" transform="translate(-9 -6.368)"/><path class="cls-3" d="M188.238,349.242h3.211c2.316,0,3.866.783,3.866,3.084,0,2.2-1.566,3.243-3.866,3.243h-1.886v4.153h-1.326Zm3.051,5.24c1.821,0,2.7-.671,2.7-2.156,0-1.519-.895-2.014-2.7-2.014h-1.726v4.17Z" transform="translate(-9 -6.368)"/><path class="cls-3" d="M201.015,354.8c0-.99-.335-1.949-1.6-1.949a4.181,4.181,0,0,0-2.316.831l-.527-.91a5.762,5.762,0,0,1,3.052-1.007c1.9,0,2.7,1.262,2.7,3.2v4.761h-1.087l-.111-.927h-.032a4.217,4.217,0,0,1-2.572,1.118,2.117,2.117,0,0,1-2.284-2.2C196.238,356.017,197.708,355.17,201.015,354.8Zm-2.124,4.059a3.182,3.182,0,0,0,2.124-1.039v-2.156c-2.6.319-3.482.958-3.482,1.949A1.19,1.19,0,0,0,198.891,358.86Z" transform="translate(-9 -6.368)"/><path class="cls-3" d="M204.559,349.514a.913.913,0,1,1,.911.847A.858.858,0,0,1,204.559,349.514Zm.239,2.444h1.311v7.765H204.8Z" transform="translate(-9 -6.368)"/><path class="cls-3" d="M211.539,351.767a3.2,3.2,0,0,1,2.173.895l-.064-1.326v-2.987h1.326v11.375h-1.086l-.112-.91h-.048a3.5,3.5,0,0,1-2.349,1.1c-1.949,0-3.211-1.47-3.211-4.058C208.168,353.332,209.766,351.767,211.539,351.767Zm.128,7.046a2.625,2.625,0,0,0,1.98-1.071v-4.058a2.7,2.7,0,0,0-1.885-.814c-1.246,0-2.237,1.2-2.237,2.972C209.525,357.693,210.309,358.813,211.667,358.813Z" transform="translate(-9 -6.368)"/><path class="cls-3" d="M218.278,352.15a1,1,0,1,1-.959,1.006A.951.951,0,0,1,218.278,352.15Zm0,5.751a1.008,1.008,0,1,1-.959,1.022A.965.965,0,0,1,218.278,357.9Z" transform="translate(-9 -6.368)"/><path class="cls-3" d="M229.555,351.352a2.547,2.547,0,0,0-1.949-.911,1.469,1.469,0,0,0-1.6,1.534c0,2.316,4.457,1.677,4.457,5.112a2.68,2.68,0,0,1-2.477,2.779v1.614h-.958V359.9a4.852,4.852,0,0,1-2.716-1.23l.606-.91a3.82,3.82,0,0,0,2.477,1.07,1.559,1.559,0,0,0,1.773-1.646c0-2.588-4.457-2.029-4.457-5.145a2.612,2.612,0,0,1,2.316-2.668v-1.6h.958v1.582a3.518,3.518,0,0,1,2.269,1.214Z" transform="translate(-9 -6.368)"/><path class="cls-3" d="M232.971,358.014a2.235,2.235,0,0,0,1.678.814c1.438,0,2.651-1.118,2.7-4.378a3.194,3.194,0,0,1-2.4,1.311c-1.757,0-2.892-1.055-2.892-3.147a3.08,3.08,0,0,1,3-3.275c2.013,0,3.515,1.63,3.515,4.905,0,4.09-1.854,5.671-3.882,5.671a3.259,3.259,0,0,1-2.461-1.07Zm4.346-4.6c-.176-1.981-.959-3.035-2.253-3.035-.99,0-1.773.895-1.773,2.236,0,1.326.623,2.157,1.885,2.157A2.749,2.749,0,0,0,237.316,353.412Z" transform="translate(-9 -6.368)"/><path class="cls-3" d="M240.062,354.595c0-3.419,1.229-5.257,3.274-5.257,2.029,0,3.26,1.838,3.26,5.257s-1.23,5.319-3.26,5.319C241.291,359.914,240.062,358.014,240.062,354.595Zm5.256,0c0-2.988-.8-4.2-1.981-4.2s-2,1.214-2,4.2.8,4.266,2,4.266S245.317,357.582,245.317,354.595Z" transform="translate(-9 -6.368)"/><path class="cls-3" d="M248.046,361.672a2.148,2.148,0,0,0,1.438-1.949.551.551,0,0,1-.159.016.88.88,0,0,1-.943-.91.919.919,0,0,1,.975-.927c.688,0,1.1.591,1.1,1.55a3.174,3.174,0,0,1-2.093,2.987Z" transform="translate(-9 -6.368)"/><path class="cls-3" d="M251.975,354.595c0-3.419,1.229-5.257,3.274-5.257,2.029,0,3.26,1.838,3.26,5.257s-1.23,5.319-3.26,5.319C253.2,359.914,251.975,358.014,251.975,354.595Zm5.256,0c0-2.988-.8-4.2-1.981-4.2s-2,1.214-2,4.2.8,4.266,2,4.266S257.23,357.582,257.23,354.595Z" transform="translate(-9 -6.368)"/><path class="cls-3" d="M259.912,354.595c0-3.419,1.229-5.257,3.274-5.257,2.029,0,3.26,1.838,3.26,5.257s-1.23,5.319-3.26,5.319C261.142,359.914,259.912,358.014,259.912,354.595Zm5.256,0c0-2.988-.8-4.2-1.981-4.2s-2,1.214-2,4.2.8,4.266,2,4.266S265.168,357.582,265.168,354.595Z" transform="translate(-9 -6.368)"/><path class="cls-3" d="M267.85,354.595c0-3.419,1.229-5.257,3.274-5.257,2.029,0,3.26,1.838,3.26,5.257s-1.23,5.319-3.26,5.319C269.079,359.914,267.85,358.014,267.85,354.595Zm5.256,0c0-2.988-.8-4.2-1.981-4.2s-2,1.214-2,4.2.8,4.266,2,4.266S273.105,357.582,273.105,354.595Z" transform="translate(-9 -6.368)"/><path class="cls-3" d="M51.259,136.435h1.326v6.183c0,2.524,1.07,3.323,2.444,3.323,1.39,0,2.477-.8,2.477-3.323v-6.183h1.278v6.15c0,3.371-1.614,4.521-3.754,4.521s-3.77-1.15-3.77-4.521Z" transform="translate(-9 -6.368)"/><path class="cls-3" d="M61.48,139.15h1.086l.112,1.118h.048a3.66,3.66,0,0,1,2.6-1.31c1.629,0,2.365,1.054,2.365,3.036v4.92h-1.31V142.17c0-1.454-.448-2.077-1.47-2.077-.8,0-1.342.416-2.125,1.2v5.624H61.48Z" transform="translate(-9 -6.368)"/><path class="cls-3" d="M70.216,135.54h1.31v9.905c0,.416.176.575.367.575a1.09,1.09,0,0,0,.288-.032l.176.991a1.768,1.768,0,0,1-.751.128c-.99,0-1.39-.623-1.39-1.757Z" transform="translate(-9 -6.368)"/><path class="cls-3" d="M74.048,136.706a.913.913,0,0,1,1.821,0,.913.913,0,0,1-1.821,0Zm.24,2.444H75.6v7.764h-1.31Z" transform="translate(-9 -6.368)"/><path class="cls-3" d="M78.217,139.15H79.3l.112,1.118h.048a3.412,3.412,0,0,1,2.413-1.31,2.038,2.038,0,0,1,2.141,1.486,3.667,3.667,0,0,1,2.556-1.486c1.6,0,2.364,1.054,2.364,3.036v4.92h-1.31V142.17c0-1.454-.463-2.077-1.437-2.077a2.848,2.848,0,0,0-1.949,1.2v5.624H82.93V142.17c0-1.454-.463-2.077-1.454-2.077a2.913,2.913,0,0,0-1.949,1.2v5.624h-1.31Z" transform="translate(-9 -6.368)"/><path class="cls-3" d="M91.216,136.706a.913.913,0,0,1,1.821,0,.913.913,0,0,1-1.821,0Zm.24,2.444h1.31v7.764h-1.31Z" transform="translate(-9 -6.368)"/><path class="cls-3" d="M95.608,140.221h-1.15v-.991l1.214-.08.16-2.173h1.1v2.173h2.093v1.07H96.935v4.313c0,.958.3,1.5,1.2,1.5a2.822,2.822,0,0,0,.878-.208l.256.991a4.8,4.8,0,0,1-1.438.288c-1.662,0-2.221-1.055-2.221-2.588Z" transform="translate(-9 -6.368)"/><path class="cls-3" d="M103.531,138.958c1.981,0,3.1,1.422,3.1,3.643a4.653,4.653,0,0,1-.048.719h-5.24a2.584,2.584,0,0,0,2.588,2.732,3.511,3.511,0,0,0,1.933-.607l.463.863a4.627,4.627,0,0,1-2.556.8,3.713,3.713,0,0,1-3.723-4.058C100.048,140.508,101.757,138.958,103.531,138.958Zm1.949,3.5c0-1.582-.7-2.46-1.917-2.46a2.422,2.422,0,0,0-2.236,2.46Z" transform="translate(-9 -6.368)"/><path class="cls-3" d="M111.356,138.958a3.2,3.2,0,0,1,2.173.895l-.064-1.326V135.54h1.326v11.375H113.7l-.112-.911h-.048a3.5,3.5,0,0,1-2.349,1.1c-1.949,0-3.211-1.47-3.211-4.058C107.985,140.524,109.583,138.958,111.356,138.958Zm.128,7.045a2.627,2.627,0,0,0,1.981-1.07v-4.058a2.7,2.7,0,0,0-1.885-.814c-1.247,0-2.237,1.2-2.237,2.971C109.343,144.886,110.126,146,111.484,146Z" transform="translate(-9 -6.368)"/><path class="cls-3" d="M70.919,155.6h1.565l2.029,5.624.767,2.141h.064l.735-2.141,2.013-5.624h1.566v10.48H78.4v-5.767c0-.927.1-2.173.176-3.1h-.064l-.847,2.333-2.013,5.48H74.9l-2.029-5.48-.831-2.333h-.064c.064.927.176,2.173.176,3.1v5.767h-1.23Z" transform="translate(-9 -6.368)"/><path class="cls-3" d="M86.795,161.159c0-.991-.336-1.949-1.6-1.949a4.178,4.178,0,0,0-2.316.831l-.527-.911a5.761,5.761,0,0,1,3.051-1.006c1.9,0,2.7,1.262,2.7,3.2v4.761H87.019l-.112-.927h-.032a4.217,4.217,0,0,1-2.572,1.119,2.117,2.117,0,0,1-2.284-2.205C82.018,162.373,83.488,161.526,86.795,161.159Zm-2.125,4.058a3.179,3.179,0,0,0,2.125-1.039v-2.157c-2.6.32-3.483.959-3.483,1.949A1.19,1.19,0,0,0,84.67,165.216Z" transform="translate(-9 -6.368)"/><path class="cls-3" d="M90.578,158.315h1.086l.112,1.406h.048a2.656,2.656,0,0,1,2.2-1.6,1.931,1.931,0,0,1,.831.16l-.256,1.15a2.167,2.167,0,0,0-.751-.128c-.655,0-1.437.479-1.965,1.79v4.984h-1.31Z" transform="translate(-9 -6.368)"/><path class="cls-3" d="M95.88,155.871a.913.913,0,0,1,1.821,0,.913.913,0,0,1-1.821,0Zm.24,2.444h1.31v7.764H96.12Z" transform="translate(-9 -6.368)"/><path class="cls-3" d="M100.272,159.385h-1.15v-.991l1.214-.08.16-2.173h1.1v2.173h2.093v1.07H101.6V163.7c0,.958.3,1.5,1.2,1.5a2.822,2.822,0,0,0,.878-.208l.256.991a4.8,4.8,0,0,1-1.438.288c-1.662,0-2.221-1.055-2.221-2.588Z" transform="translate(-9 -6.368)"/><path class="cls-3" d="M109.552,161.159c0-.991-.335-1.949-1.6-1.949a4.181,4.181,0,0,0-2.317.831l-.527-.911a5.761,5.761,0,0,1,3.051-1.006c1.9,0,2.7,1.262,2.7,3.2v4.761h-1.086l-.112-.927h-.032a4.217,4.217,0,0,1-2.572,1.119,2.117,2.117,0,0,1-2.284-2.205C104.775,162.373,106.245,161.526,109.552,161.159Zm-2.125,4.058a3.179,3.179,0,0,0,2.125-1.039v-2.157c-2.6.32-3.483.959-3.483,1.949A1.189,1.189,0,0,0,107.427,165.216Z" transform="translate(-9 -6.368)"/><path class="cls-3" d="M113.336,154.7h1.31v9.905c0,.416.176.575.367.575a1.09,1.09,0,0,0,.288-.032l.176.991a1.768,1.768,0,0,1-.751.128c-.99,0-1.39-.623-1.39-1.757Z" transform="translate(-9 -6.368)"/><path class="cls-3" d="M48.209,174.765h2.62c3.227,0,4.952,1.87,4.952,5.192,0,3.339-1.725,5.288-4.889,5.288H48.209Zm2.524,9.394c2.444,0,3.675-1.55,3.675-4.2,0-2.636-1.23-4.106-3.675-4.106h-1.2v8.308Z" transform="translate(-9 -6.368)"/><path class="cls-3" d="M60.811,177.289c1.981,0,3.1,1.422,3.1,3.643a4.653,4.653,0,0,1-.048.719h-5.24a2.584,2.584,0,0,0,2.588,2.732,3.511,3.511,0,0,0,1.933-.607l.463.863a4.627,4.627,0,0,1-2.556.8,3.713,3.713,0,0,1-3.723-4.058C57.328,178.839,59.038,177.289,60.811,177.289Zm1.949,3.5c0-1.582-.7-2.46-1.917-2.46a2.422,2.422,0,0,0-2.236,2.46Z" transform="translate(-9 -6.368)"/><path class="cls-3" d="M68.636,177.289a3.2,3.2,0,0,1,2.173.895l-.064-1.326V173.87h1.326v11.375H70.985l-.112-.911h-.048a3.5,3.5,0,0,1-2.349,1.1c-1.949,0-3.211-1.47-3.211-4.058C65.266,178.854,66.863,177.289,68.636,177.289Zm.128,7.045a2.627,2.627,0,0,0,1.981-1.07v-4.058a2.7,2.7,0,0,0-1.885-.814c-1.247,0-2.237,1.2-2.237,2.971C66.624,183.216,67.406,184.334,68.764,184.334Z" transform="translate(-9 -6.368)"/><path class="cls-3" d="M74.576,177.481H75.9v4.745c0,1.454.431,2.077,1.454,2.077.8,0,1.358-.4,2.093-1.31v-5.512h1.31v7.764H79.672l-.112-1.214h-.048a3.282,3.282,0,0,1-2.556,1.406c-1.646,0-2.38-1.055-2.38-3.036Z" transform="translate(-9 -6.368)"/><path class="cls-3" d="M86.539,177.289a3.2,3.2,0,0,1,2.269.927l-.655.847a2.348,2.348,0,0,0-1.566-.687c-1.406,0-2.428,1.214-2.428,3,0,1.773.975,2.972,2.4,2.972a2.77,2.77,0,0,0,1.821-.783l.591.862a3.846,3.846,0,0,1-2.524,1.007c-2.061,0-3.643-1.486-3.643-4.058A3.76,3.76,0,0,1,86.539,177.289Z" transform="translate(-9 -6.368)"/><path class="cls-3" d="M90.882,178.551h-1.15v-.991l1.214-.08.16-2.173h1.1v2.173H94.3v1.07H92.208v4.313c0,.958.3,1.5,1.2,1.5a2.822,2.822,0,0,0,.878-.208l.256.991a4.8,4.8,0,0,1-1.438.288c-1.662,0-2.221-1.055-2.221-2.588Z" transform="translate(-9 -6.368)"/><path class="cls-3" d="M95.816,175.037a.913.913,0,0,1,1.821,0,.913.913,0,0,1-1.821,0Zm.24,2.444h1.31v7.764h-1.31Z" transform="translate(-9 -6.368)"/><path class="cls-3" d="M103,177.289c1.9,0,3.594,1.486,3.594,4.09,0,2.572-1.693,4.058-3.594,4.058s-3.595-1.486-3.595-4.058C99.41,178.775,101.1,177.289,103,177.289Zm0,7.062c1.342,0,2.236-1.2,2.236-2.972,0-1.789-.895-3-2.236-3-1.326,0-2.237,1.214-2.237,3C100.768,183.152,101.678,184.351,103,184.351Z" transform="translate(-9 -6.368)"/><path class="cls-3" d="M108.641,177.481h1.086l.112,1.118h.048a3.66,3.66,0,0,1,2.6-1.31c1.629,0,2.365,1.055,2.365,3.036v4.92h-1.31V180.5c0-1.454-.448-2.077-1.47-2.077-.8,0-1.342.416-2.125,1.2v5.624h-1.31Z" transform="translate(-9 -6.368)"/></svg>