<svg id="Layer_1" data-name="Layer 1" xmlns="http://www.w3.org/2000/svg" viewBox="0 0 378 337.2"><defs><style>.cls-1{fill:#bcbec0;}.cls-2{fill:#11675d;}.cls-3{fill:#00a182;}.cls-4{fill:#11675c;}.cls-5{fill:#fff;}.cls-6{fill:#231f20;}.cls-7{fill:#02a180;}.cls-8{fill:#29538c;}.cls-10,.cls-12,.cls-13,.cls-9{fill:none;}.cls-10,.cls-9{stroke:#fff;stroke-linecap:round;stroke-linejoin:round;stroke-width:2px;}.cls-9{stroke-dasharray:0 4.029;}.cls-11{fill:#e2f3f7;}.cls-12{stroke:#25408f;stroke-width:0.666px;}.cls-13{stroke:#000;stroke-width:3px;}</style></defs><title>Preserve_Applicable_Exclusion_Amount</title><rect class="cls-1" width="378" height="337.2"/><rect class="cls-2" x="34.5" y="68.4" width="126" height="28.8"/><rect class="cls-3" x="34.5" y="146.6" width="126" height="60"/><polygon points="97.5 144.2 112.7 128.8 82.3 128.8 97.5 144.2"/><rect class="cls-4" x="218.5" y="68.4" width="126" height="28.8"/><polygon points="281.5 206 296.7 190.6 266.3 190.6 281.5 206"/><path class="cls-5" d="M82.932,89.4a1.908,1.908,0,0,0-1.463-.684,1.1,1.1,0,0,0-1.2,1.151c0,1.738,3.346,1.259,3.346,3.838A2.013,2.013,0,0,1,81.756,95.8v1.211h-.72V95.819A3.647,3.647,0,0,1,79,94.9l.456-.684a2.863,2.863,0,0,0,1.859.8,1.17,1.17,0,0,0,1.331-1.235c0-1.942-3.346-1.522-3.346-3.861a1.961,1.961,0,0,1,1.739-2v-1.2h.72V87.9a2.642,2.642,0,0,1,1.7.912Z" transform="translate(-7.718 -9.487)"/><path class="cls-5" d="M85.285,94.872h1.751V89.235H85.645V88.6a4.568,4.568,0,0,0,1.619-.563h.756v6.836H89.6v.815H85.285Z" transform="translate(-7.718 -9.487)"/><path class="cls-5" d="M90.865,97.15a1.612,1.612,0,0,0,1.08-1.463.418.418,0,0,1-.12.012.66.66,0,0,1-.708-.684.69.69,0,0,1,.732-.7c.516,0,.827.443.827,1.163a2.384,2.384,0,0,1-1.571,2.243Z" transform="translate(-7.718 -9.487)"/><path class="cls-5" d="M95.221,91.669v-.048a2.173,2.173,0,0,1-1.068-1.764,2.172,2.172,0,0,1,4.33.072,2.518,2.518,0,0,1-1.056,1.847v.048a2.092,2.092,0,0,1-1.139,4.006,2.263,2.263,0,0,1-2.507-2.1A2.418,2.418,0,0,1,95.221,91.669Zm1.091,3.43a1.363,1.363,0,0,0,1.5-1.343c0-.983-.972-1.344-2.075-1.787a2.071,2.071,0,0,0-1.067,1.667A1.516,1.516,0,0,0,96.313,95.1Zm1.319-5.121A1.277,1.277,0,0,0,96.3,88.623a1.184,1.184,0,0,0-1.235,1.235c0,.912.84,1.3,1.763,1.655A2.064,2.064,0,0,0,97.632,89.978Z" transform="translate(-7.718 -9.487)"/><path class="cls-5" d="M100.034,94.14a2.6,2.6,0,0,0,1.931.875,1.651,1.651,0,0,0,1.679-1.751,1.537,1.537,0,0,0-1.631-1.679,2.153,2.153,0,0,0-1.307.468l-.528-.336.252-3.682h3.826v.852h-2.962l-.2,2.267a2.345,2.345,0,0,1,1.175-.312,2.2,2.2,0,0,1,2.375,2.4,2.5,2.5,0,0,1-2.579,2.59,3.356,3.356,0,0,1-2.507-1.043Z" transform="translate(-7.718 -9.487)"/><path class="cls-5" d="M105.746,91.837c0-2.566.923-3.946,2.458-3.946s2.447,1.38,2.447,3.946-.923,3.993-2.447,3.993S105.746,94.4,105.746,91.837Zm3.946,0c0-2.243-.6-3.154-1.487-3.154s-1.5.911-1.5,3.154.6,3.2,1.5,3.2S109.691,94.08,109.691,91.837Z" transform="translate(-7.718 -9.487)"/><path class="cls-5" d="M111.745,97.15a1.612,1.612,0,0,0,1.08-1.463.418.418,0,0,1-.12.012.66.66,0,0,1-.708-.684.69.69,0,0,1,.732-.7c.516,0,.827.443.827,1.163a2.384,2.384,0,0,1-1.571,2.243Z" transform="translate(-7.718 -9.487)"/><path class="cls-5" d="M114.7,91.837c0-2.566.923-3.946,2.458-3.946s2.447,1.38,2.447,3.946-.924,3.993-2.447,3.993S114.7,94.4,114.7,91.837Zm3.946,0c0-2.243-.6-3.154-1.487-3.154s-1.5.911-1.5,3.154.6,3.2,1.5,3.2S118.643,94.08,118.643,91.837Z" transform="translate(-7.718 -9.487)"/><path class="cls-5" d="M120.661,91.837c0-2.566.923-3.946,2.458-3.946s2.447,1.38,2.447,3.946-.924,3.993-2.447,3.993S120.661,94.4,120.661,91.837Zm3.946,0c0-2.243-.6-3.154-1.487-3.154s-1.5.911-1.5,3.154.6,3.2,1.5,3.2S124.607,94.08,124.607,91.837Z" transform="translate(-7.718 -9.487)"/><path class="cls-5" d="M126.625,91.837c0-2.566.923-3.946,2.458-3.946s2.447,1.38,2.447,3.946-.924,3.993-2.447,3.993S126.625,94.4,126.625,91.837Zm3.946,0c0-2.243-.6-3.154-1.487-3.154s-1.5.911-1.5,3.154.6,3.2,1.5,3.2S130.571,94.08,130.571,91.837Z" transform="translate(-7.718 -9.487)"/><path class="cls-5" d="M266.928,89.7a1.91,1.91,0,0,0-1.463-.684,1.1,1.1,0,0,0-1.2,1.151c0,1.738,3.346,1.259,3.346,3.838a2.013,2.013,0,0,1-1.858,2.087v1.211h-.72V96.119a3.647,3.647,0,0,1-2.039-.924l.456-.684a2.861,2.861,0,0,0,1.858.8,1.17,1.17,0,0,0,1.331-1.235c0-1.942-3.346-1.522-3.346-3.861a1.961,1.961,0,0,1,1.739-2v-1.2h.72V88.2a2.641,2.641,0,0,1,1.7.912Z" transform="translate(-7.718 -9.487)"/><path class="cls-5" d="M269.281,95.171h1.752V89.535h-1.392V88.9a4.575,4.575,0,0,0,1.619-.563h.756v6.836H273.6v.815h-4.318Z" transform="translate(-7.718 -9.487)"/><path class="cls-5" d="M274.861,97.45a1.613,1.613,0,0,0,1.08-1.463.418.418,0,0,1-.12.012.66.66,0,0,1-.708-.684.69.69,0,0,1,.732-.7c.516,0,.827.443.827,1.163a2.384,2.384,0,0,1-1.571,2.243Z" transform="translate(-7.718 -9.487)"/><path class="cls-5" d="M279.218,91.969v-.048a2.172,2.172,0,0,1-1.068-1.764,2.172,2.172,0,0,1,4.33.072,2.518,2.518,0,0,1-1.056,1.847v.048a2.092,2.092,0,0,1-1.139,4.006,2.263,2.263,0,0,1-2.507-2.1A2.418,2.418,0,0,1,279.218,91.969Zm1.091,3.43a1.362,1.362,0,0,0,1.5-1.343c0-.983-.972-1.344-2.074-1.787a2.07,2.07,0,0,0-1.067,1.667A1.516,1.516,0,0,0,280.309,95.4Zm1.319-5.121a1.277,1.277,0,0,0-1.331-1.355,1.184,1.184,0,0,0-1.235,1.235c0,.912.84,1.3,1.763,1.655A2.064,2.064,0,0,0,281.628,90.278Z" transform="translate(-7.718 -9.487)"/><path class="cls-5" d="M284.03,94.44a2.6,2.6,0,0,0,1.931.875,1.651,1.651,0,0,0,1.679-1.751,1.537,1.537,0,0,0-1.631-1.679,2.156,2.156,0,0,0-1.308.468l-.527-.336.252-3.682h3.826v.852h-2.963l-.2,2.267a2.348,2.348,0,0,1,1.176-.312,2.2,2.2,0,0,1,2.375,2.4,2.5,2.5,0,0,1-2.579,2.59,3.357,3.357,0,0,1-2.507-1.043Z" transform="translate(-7.718 -9.487)"/><path class="cls-5" d="M289.742,92.137c0-2.566.923-3.946,2.458-3.946s2.447,1.38,2.447,3.946-.924,3.993-2.447,3.993S289.742,94.7,289.742,92.137Zm3.945,0c0-2.243-.6-3.154-1.487-3.154s-1.5.911-1.5,3.154.6,3.2,1.5,3.2S293.688,94.379,293.688,92.137Z" transform="translate(-7.718 -9.487)"/><path class="cls-5" d="M295.741,97.45a1.613,1.613,0,0,0,1.08-1.463.418.418,0,0,1-.12.012.66.66,0,0,1-.708-.684.69.69,0,0,1,.732-.7c.516,0,.827.443.827,1.163a2.384,2.384,0,0,1-1.571,2.243Z" transform="translate(-7.718 -9.487)"/><path class="cls-5" d="M298.693,92.137c0-2.566.924-3.946,2.459-3.946s2.446,1.38,2.446,3.946-.924,3.993-2.446,3.993S298.693,94.7,298.693,92.137Zm3.946,0c0-2.243-.6-3.154-1.487-3.154s-1.5.911-1.5,3.154.6,3.2,1.5,3.2S302.64,94.379,302.64,92.137Z" transform="translate(-7.718 -9.487)"/><path class="cls-5" d="M304.657,92.137c0-2.566.924-3.946,2.459-3.946s2.446,1.38,2.446,3.946-.924,3.993-2.446,3.993S304.657,94.7,304.657,92.137Zm3.946,0c0-2.243-.6-3.154-1.487-3.154s-1.5.911-1.5,3.154.6,3.2,1.5,3.2S308.6,94.379,308.6,92.137Z" transform="translate(-7.718 -9.487)"/><path class="cls-5" d="M310.621,92.137c0-2.566.924-3.946,2.459-3.946s2.446,1.38,2.446,3.946-.924,3.993-2.446,3.993S310.621,94.7,310.621,92.137Zm3.945,0c0-2.243-.6-3.154-1.486-3.154s-1.5.911-1.5,3.154.6,3.2,1.5,3.2S314.566,94.379,314.566,92.137Z" transform="translate(-7.718 -9.487)"/><path class="cls-5" d="M60.924,175.479a2.864,2.864,0,0,1,2.147.972l-.563.636a2.062,2.062,0,0,0-1.571-.731c-1.5,0-2.482,1.223-2.482,3.178,0,1.979.947,3.227,2.435,3.227a2.3,2.3,0,0,0,1.811-.876l.563.612a3.036,3.036,0,0,1-2.4,1.139c-1.979,0-3.442-1.511-3.442-4.077C57.422,177.026,58.909,175.479,60.924,175.479Z" transform="translate(-7.718 -9.487)"/><path class="cls-5" d="M64.634,177.662h.815l.084,1.056h.036a1.994,1.994,0,0,1,1.655-1.2,1.448,1.448,0,0,1,.624.12l-.192.863a1.641,1.641,0,0,0-.564-.1c-.492,0-1.079.359-1.475,1.343v3.742h-.983Z" transform="translate(-7.718 -9.487)"/><path class="cls-5" d="M70.872,177.518c1.487,0,2.327,1.067,2.327,2.734a3.489,3.489,0,0,1-.036.54H69.229a1.94,1.94,0,0,0,1.943,2.051,2.632,2.632,0,0,0,1.451-.456l.348.647a3.469,3.469,0,0,1-1.919.6,3.083,3.083,0,0,1-.18-6.116Zm1.463,2.627c0-1.187-.528-1.848-1.439-1.848a1.819,1.819,0,0,0-1.679,1.848Z" transform="translate(-7.718 -9.487)"/><path class="cls-5" d="M76.752,177.518a2.4,2.4,0,0,1,1.631.672l-.048-1v-2.242h1v8.539h-.815l-.084-.684H78.4a2.63,2.63,0,0,1-1.763.827c-1.463,0-2.411-1.1-2.411-3.046C74.222,178.693,75.421,177.518,76.752,177.518Zm.1,5.289a1.971,1.971,0,0,0,1.487-.8v-3.046a2.026,2.026,0,0,0-1.415-.612c-.936,0-1.679.9-1.679,2.231C75.241,181.967,75.829,182.807,76.849,182.807Z" transform="translate(-7.718 -9.487)"/><path class="cls-5" d="M81.122,175.827a.685.685,0,0,1,1.367,0,.685.685,0,0,1-1.367,0Zm.18,1.835h.983v5.829H81.3Z" transform="translate(-7.718 -9.487)"/><path class="cls-5" d="M84.421,178.465h-.863v-.743l.911-.061.12-1.631h.828v1.631h1.571v.8H85.417V181.7c0,.72.228,1.128.9,1.128a2.112,2.112,0,0,0,.66-.156l.192.743a3.584,3.584,0,0,1-1.08.216c-1.247,0-1.667-.791-1.667-1.942Z" transform="translate(-7.718 -9.487)"/><path class="cls-5" d="M90.853,181.776a3.08,3.08,0,0,0,2.171.983c1.031,0,1.643-.516,1.643-1.283,0-.8-.564-1.056-1.308-1.392l-1.127-.491a2.212,2.212,0,0,1-1.595-2.027,2.235,2.235,0,0,1,2.47-2.087,3.264,3.264,0,0,1,2.327.972l-.54.647a2.506,2.506,0,0,0-1.787-.743c-.875,0-1.463.443-1.463,1.151,0,.755.684,1.043,1.307,1.307l1.116.48a2.189,2.189,0,0,1,1.619,2.1c0,1.247-1.019,2.242-2.674,2.242a3.813,3.813,0,0,1-2.758-1.163Z" transform="translate(-7.718 -9.487)"/><path class="cls-5" d="M97.141,174.952h.983v2.326l-.036,1.2a2.786,2.786,0,0,1,1.943-.959c1.223,0,1.775.792,1.775,2.278v3.694h-.983v-3.562c0-1.091-.336-1.559-1.1-1.559-.6,0-1.007.312-1.6.9v4.222h-.983Z" transform="translate(-7.718 -9.487)"/><path class="cls-5" d="M105.852,177.518c1.487,0,2.327,1.067,2.327,2.734a3.489,3.489,0,0,1-.036.54h-3.934a1.94,1.94,0,0,0,1.943,2.051,2.632,2.632,0,0,0,1.451-.456l.348.647a3.469,3.469,0,0,1-1.919.6,3.083,3.083,0,0,1-.18-6.116Zm1.463,2.627c0-1.187-.528-1.848-1.439-1.848a1.819,1.819,0,0,0-1.679,1.848Z" transform="translate(-7.718 -9.487)"/><path class="cls-5" d="M109.621,174.952h.983v7.436c0,.312.132.432.276.432a.844.844,0,0,0,.216-.023l.132.743a1.315,1.315,0,0,1-.563.1c-.744,0-1.043-.468-1.043-1.319Z" transform="translate(-7.718 -9.487)"/><path class="cls-5" d="M112.849,178.465h-.863v-.743l.911-.061.12-1.631h.828v1.631h1.571v.8h-1.571V181.7c0,.72.228,1.128.9,1.128a2.112,2.112,0,0,0,.66-.156l.192.743a3.584,3.584,0,0,1-1.08.216c-1.247,0-1.667-.791-1.667-1.942Z" transform="translate(-7.718 -9.487)"/><path class="cls-5" d="M118.8,177.518c1.487,0,2.327,1.067,2.327,2.734a3.489,3.489,0,0,1-.036.54h-3.934a1.94,1.94,0,0,0,1.943,2.051,2.632,2.632,0,0,0,1.451-.456l.348.647a3.469,3.469,0,0,1-1.919.6,3.083,3.083,0,0,1-.18-6.116Zm1.463,2.627c0-1.187-.528-1.848-1.439-1.848a1.819,1.819,0,0,0-1.679,1.848Z" transform="translate(-7.718 -9.487)"/><path class="cls-5" d="M122.568,177.662h.815l.084,1.056h.036a1.994,1.994,0,0,1,1.655-1.2,1.448,1.448,0,0,1,.624.12l-.192.863a1.641,1.641,0,0,0-.564-.1c-.492,0-1.079.359-1.475,1.343v3.742h-.983Z" transform="translate(-7.718 -9.487)"/><path class="cls-5" d="M130.883,176.462h-2.375v-.84h5.757v.84h-2.375v7.028h-1.007Z" transform="translate(-7.718 -9.487)"/><path class="cls-5" d="M135.048,177.662h.815l.084,1.056h.036a1.994,1.994,0,0,1,1.655-1.2,1.448,1.448,0,0,1,.624.12l-.192.863a1.641,1.641,0,0,0-.564-.1c-.492,0-1.079.359-1.475,1.343v3.742h-.983Z" transform="translate(-7.718 -9.487)"/><path class="cls-5" d="M139.128,177.662h1v3.563c0,1.091.324,1.559,1.091,1.559.6,0,1.02-.3,1.571-.983v-4.138h.983v5.829h-.815l-.084-.911h-.036a2.462,2.462,0,0,1-1.919,1.055c-1.235,0-1.787-.791-1.787-2.278Z" transform="translate(-7.718 -9.487)"/><path class="cls-5" d="M145.584,182.171a2.618,2.618,0,0,0,1.715.7c.768,0,1.151-.407,1.151-.911,0-.6-.7-.863-1.331-1.1-.828-.3-1.739-.7-1.739-1.679,0-.936.744-1.655,2-1.655a2.912,2.912,0,0,1,1.811.659l-.468.624a2.164,2.164,0,0,0-1.331-.516c-.732,0-1.067.4-1.067.84,0,.552.635.755,1.295,1.007.84.313,1.775.66,1.775,1.764,0,.947-.756,1.738-2.135,1.738a3.512,3.512,0,0,1-2.171-.8Z" transform="translate(-7.718 -9.487)"/><path class="cls-5" d="M150.936,178.465h-.863v-.743l.911-.061.12-1.631h.828v1.631H153.5v.8h-1.571V181.7c0,.72.228,1.128.9,1.128a2.112,2.112,0,0,0,.66-.156l.192.743a3.584,3.584,0,0,1-1.08.216c-1.247,0-1.667-.791-1.667-1.942Z" transform="translate(-7.718 -9.487)"/><path class="cls-5" d="M82.932,191.607a1.911,1.911,0,0,0-1.463-.684,1.1,1.1,0,0,0-1.2,1.151c0,1.738,3.346,1.259,3.346,3.838A2.013,2.013,0,0,1,81.756,198v1.211h-.72v-1.187A3.647,3.647,0,0,1,79,197.1l.456-.684a2.863,2.863,0,0,0,1.859.8,1.17,1.17,0,0,0,1.331-1.235c0-1.942-3.346-1.522-3.346-3.861a1.961,1.961,0,0,1,1.739-2v-1.2h.72v1.187a2.642,2.642,0,0,1,1.7.912Z" transform="translate(-7.718 -9.487)"/><path class="cls-5" d="M85.285,197.076h1.751v-5.637H85.645V190.8a4.568,4.568,0,0,0,1.619-.563h.756v6.836H89.6v.815H85.285Z" transform="translate(-7.718 -9.487)"/><path class="cls-5" d="M90.865,199.354a1.612,1.612,0,0,0,1.08-1.463.418.418,0,0,1-.12.012.66.66,0,0,1-.708-.684.69.69,0,0,1,.732-.7c.516,0,.827.443.827,1.163a2.384,2.384,0,0,1-1.571,2.243Z" transform="translate(-7.718 -9.487)"/><path class="cls-5" d="M95.221,193.874v-.048a2.173,2.173,0,0,1-1.068-1.764,2.172,2.172,0,0,1,4.33.072,2.518,2.518,0,0,1-1.056,1.847v.048a2.092,2.092,0,0,1-1.139,4.006,2.263,2.263,0,0,1-2.507-2.1A2.418,2.418,0,0,1,95.221,193.874Zm1.091,3.43a1.363,1.363,0,0,0,1.5-1.343c0-.983-.972-1.344-2.075-1.787a2.071,2.071,0,0,0-1.067,1.667A1.516,1.516,0,0,0,96.313,197.3Zm1.319-5.121a1.277,1.277,0,0,0-1.332-1.355,1.184,1.184,0,0,0-1.235,1.235c0,.912.84,1.3,1.763,1.655A2.064,2.064,0,0,0,97.632,192.182Z" transform="translate(-7.718 -9.487)"/><path class="cls-5" d="M100.034,196.344a2.6,2.6,0,0,0,1.931.875,1.651,1.651,0,0,0,1.679-1.751,1.537,1.537,0,0,0-1.631-1.679,2.153,2.153,0,0,0-1.307.468l-.528-.336.252-3.682h3.826v.852h-2.962l-.2,2.267a2.345,2.345,0,0,1,1.175-.312,2.2,2.2,0,0,1,2.375,2.4,2.5,2.5,0,0,1-2.579,2.59,3.356,3.356,0,0,1-2.507-1.043Z" transform="translate(-7.718 -9.487)"/><path class="cls-5" d="M105.746,194.042c0-2.566.923-3.946,2.458-3.946s2.447,1.38,2.447,3.946-.923,3.993-2.447,3.993S105.746,196.608,105.746,194.042Zm3.946,0c0-2.243-.6-3.154-1.487-3.154s-1.5.911-1.5,3.154.6,3.2,1.5,3.2S109.691,196.284,109.691,194.042Z" transform="translate(-7.718 -9.487)"/><path class="cls-5" d="M111.745,199.354a1.612,1.612,0,0,0,1.08-1.463.418.418,0,0,1-.12.012.66.66,0,0,1-.708-.684.69.69,0,0,1,.732-.7c.516,0,.827.443.827,1.163a2.384,2.384,0,0,1-1.571,2.243Z" transform="translate(-7.718 -9.487)"/><path class="cls-5" d="M114.7,194.042c0-2.566.923-3.946,2.458-3.946s2.447,1.38,2.447,3.946-.924,3.993-2.447,3.993S114.7,196.608,114.7,194.042Zm3.946,0c0-2.243-.6-3.154-1.487-3.154s-1.5.911-1.5,3.154.6,3.2,1.5,3.2S118.643,196.284,118.643,194.042Z" transform="translate(-7.718 -9.487)"/><path class="cls-5" d="M120.661,194.042c0-2.566.923-3.946,2.458-3.946s2.447,1.38,2.447,3.946-.924,3.993-2.447,3.993S120.661,196.608,120.661,194.042Zm3.946,0c0-2.243-.6-3.154-1.487-3.154s-1.5.911-1.5,3.154.6,3.2,1.5,3.2S124.607,196.284,124.607,194.042Z" transform="translate(-7.718 -9.487)"/><path class="cls-5" d="M126.625,194.042c0-2.566.923-3.946,2.458-3.946s2.447,1.38,2.447,3.946-.924,3.993-2.447,3.993S126.625,196.608,126.625,194.042Zm3.946,0c0-2.243-.6-3.154-1.487-3.154s-1.5.911-1.5,3.154.6,3.2,1.5,3.2S130.571,196.284,130.571,194.042Z" transform="translate(-7.718 -9.487)"/><path class="cls-6" d="M257.594,284.02h1.031l2.843,4.941.852,1.632h.048c-.048-.792-.12-1.68-.12-2.507V284.02h.947v7.868h-1.031l-2.854-4.953-.852-1.619h-.048c.061.791.132,1.631.132,2.459v4.113h-.947Z" transform="translate(-7.718 -9.487)"/><path class="cls-6" d="M267.528,285.915a3.082,3.082,0,1,1-2.7,3.07A2.785,2.785,0,0,1,267.528,285.915Zm0,5.3c1.008,0,1.679-.9,1.679-2.23s-.671-2.255-1.679-2.255-1.679.911-1.679,2.255S266.533,291.216,267.528,291.216Z" transform="translate(-7.718 -9.487)"/><path class="cls-6" d="M271.766,286.059h.815l.084.84h.036a2.747,2.747,0,0,1,1.955-.983c1.223,0,1.774.792,1.774,2.278v3.694h-.983v-3.562c0-1.091-.336-1.559-1.1-1.559-.6,0-1.007.312-1.595.9v4.222h-.983Z" transform="translate(-7.718 -9.487)"/><path class="cls-6" d="M277.838,288.506H280.6v.755h-2.758Z" transform="translate(-7.718 -9.487)"/><path class="cls-6" d="M282.229,286.862h-.864v-.743l.912-.061.12-1.631h.827v1.631H284.8v.8h-1.571V290.1c0,.72.228,1.128.9,1.128a2.114,2.114,0,0,0,.66-.156l.191.743a3.581,3.581,0,0,1-1.079.216c-1.247,0-1.667-.791-1.667-1.942Z" transform="translate(-7.718 -9.487)"/><path class="cls-6" d="M289.212,288.193c0-.743-.252-1.463-1.2-1.463a3.126,3.126,0,0,0-1.739.624l-.4-.684a4.321,4.321,0,0,1,2.291-.756c1.428,0,2.027.947,2.027,2.4v3.574h-.815l-.084-.7h-.024a3.169,3.169,0,0,1-1.931.839,1.589,1.589,0,0,1-1.715-1.654C285.626,289.105,286.729,288.47,289.212,288.193Zm-1.6,3.047a2.394,2.394,0,0,0,1.6-.779v-1.619c-1.955.239-2.615.719-2.615,1.463A.894.894,0,0,0,287.616,291.24Z" transform="translate(-7.718 -9.487)"/><path class="cls-6" d="M293.148,288.842l-1.763-2.783h1.067l.779,1.283c.181.313.372.648.576.972h.048c.168-.323.348-.659.527-.972l.708-1.283h1.031l-1.763,2.891,1.895,2.938h-1.067l-.852-1.355c-.2-.348-.42-.707-.636-1.043h-.048c-.2.336-.4.684-.588,1.043l-.791,1.355h-1.031Z" transform="translate(-7.718 -9.487)"/><path class="cls-6" d="M300.6,288.193c0-.743-.252-1.463-1.2-1.463a3.132,3.132,0,0,0-1.739.624l-.4-.684a4.321,4.321,0,0,1,2.291-.756c1.427,0,2.026.947,2.026,2.4v3.574h-.815l-.084-.7h-.023a3.174,3.174,0,0,1-1.932.839,1.589,1.589,0,0,1-1.715-1.654C297.014,289.105,298.117,288.47,300.6,288.193ZM299,291.24a2.39,2.39,0,0,0,1.595-.779v-1.619c-1.955.239-2.614.719-2.614,1.463A.893.893,0,0,0,299,291.24Z" transform="translate(-7.718 -9.487)"/><path class="cls-6" d="M303.445,283.349h.983v2.326l-.024,1.056a2.882,2.882,0,0,1,1.823-.815c1.511,0,2.314,1.163,2.314,2.962,0,1.991-1.187,3.154-2.519,3.154a2.641,2.641,0,0,1-1.667-.719h-.036l-.084.575h-.791Zm2.41,7.855c.96,0,1.667-.876,1.667-2.314,0-1.283-.432-2.147-1.535-2.147a2.4,2.4,0,0,0-1.559.792v3.059A2.282,2.282,0,0,0,305.855,291.2Z" transform="translate(-7.718 -9.487)"/><path class="cls-6" d="M310.105,283.349h.983v7.436c0,.312.132.432.275.432a.84.84,0,0,0,.216-.023l.132.743a1.315,1.315,0,0,1-.563.1c-.743,0-1.043-.468-1.043-1.319Z" transform="translate(-7.718 -9.487)"/><path class="cls-6" d="M315.348,285.915c1.487,0,2.326,1.067,2.326,2.734a3.429,3.429,0,0,1-.036.54H313.7a1.941,1.941,0,0,0,1.943,2.051,2.629,2.629,0,0,0,1.451-.456l.348.647a3.467,3.467,0,0,1-1.919.6,3.083,3.083,0,0,1-.18-6.116Zm1.463,2.627c0-1.187-.527-1.848-1.439-1.848a1.819,1.819,0,0,0-1.679,1.848Z" transform="translate(-7.718 -9.487)"/><path class="cls-6" d="M323.724,285.915c1.487,0,2.327,1.067,2.327,2.734a3.429,3.429,0,0,1-.036.54h-3.934a1.939,1.939,0,0,0,1.942,2.051,2.629,2.629,0,0,0,1.451-.456l.348.647a3.465,3.465,0,0,1-1.919.6,3.083,3.083,0,0,1-.18-6.116Zm1.464,2.627c0-1.187-.528-1.848-1.439-1.848a1.82,1.82,0,0,0-1.68,1.848Z" transform="translate(-7.718 -9.487)"/><path class="cls-6" d="M327.336,290.568a2.62,2.62,0,0,0,1.716.7c.768,0,1.151-.407,1.151-.911,0-.6-.7-.863-1.332-1.1-.827-.3-1.738-.7-1.738-1.679,0-.936.743-1.655,2-1.655a2.91,2.91,0,0,1,1.811.659l-.468.624a2.164,2.164,0,0,0-1.331-.516c-.731,0-1.067.4-1.067.84,0,.552.636.755,1.295,1.007.84.313,1.775.66,1.775,1.764,0,.947-.756,1.738-2.135,1.738a3.511,3.511,0,0,1-2.171-.8Z" transform="translate(-7.718 -9.487)"/><path class="cls-6" d="M332.688,286.862h-.863v-.743l.911-.061.12-1.631h.827v1.631h1.571v.8h-1.571V290.1c0,.72.229,1.128.9,1.128a2.114,2.114,0,0,0,.66-.156l.191.743a3.575,3.575,0,0,1-1.079.216c-1.247,0-1.667-.791-1.667-1.942Z" transform="translate(-7.718 -9.487)"/><path class="cls-6" d="M339.658,288.193c0-.743-.251-1.463-1.2-1.463a3.132,3.132,0,0,0-1.739.624l-.4-.684a4.321,4.321,0,0,1,2.291-.756c1.427,0,2.026.947,2.026,2.4v3.574h-.815l-.084-.7h-.023a3.171,3.171,0,0,1-1.931.839,1.589,1.589,0,0,1-1.716-1.654C336.072,289.105,337.176,288.47,339.658,288.193Zm-1.595,3.047a2.39,2.39,0,0,0,1.595-.779v-1.619c-1.954.239-2.614.719-2.614,1.463A.893.893,0,0,0,338.063,291.24Z" transform="translate(-7.718 -9.487)"/><path class="cls-6" d="M342.672,286.862h-.863v-.743l.911-.061.12-1.631h.827v1.631h1.571v.8h-1.571V290.1c0,.72.229,1.128.9,1.128a2.114,2.114,0,0,0,.66-.156l.191.743a3.575,3.575,0,0,1-1.079.216c-1.247,0-1.667-.791-1.667-1.942Z" transform="translate(-7.718 -9.487)"/><path class="cls-6" d="M348.623,285.915c1.487,0,2.327,1.067,2.327,2.734a3.429,3.429,0,0,1-.036.54H346.98a1.939,1.939,0,0,0,1.942,2.051,2.629,2.629,0,0,0,1.451-.456l.348.647a3.465,3.465,0,0,1-1.919.6,3.083,3.083,0,0,1-.18-6.116Zm1.464,2.627c0-1.187-.528-1.848-1.439-1.848a1.82,1.82,0,0,0-1.68,1.848Z" transform="translate(-7.718 -9.487)"/><path class="cls-6" d="M43.67,111.916H48.2v.839H44.665v2.663h3v.839h-3v3.526h-1Z" transform="translate(-7.718 -9.487)"/><path class="cls-6" d="M49.322,112.119a.685.685,0,0,1,1.367,0,.685.685,0,0,1-1.367,0Zm.18,1.835h.983v5.829H49.5Z" transform="translate(-7.718 -9.487)"/><path class="cls-6" d="M52.454,113.954h.815l.084,1.056h.036a1.994,1.994,0,0,1,1.655-1.2,1.448,1.448,0,0,1,.624.12l-.192.863a1.641,1.641,0,0,0-.564-.1c-.492,0-1.079.359-1.475,1.343v3.742h-.983Z" transform="translate(-7.718 -9.487)"/><path class="cls-6" d="M56.354,118.463a2.618,2.618,0,0,0,1.715.7c.768,0,1.151-.407,1.151-.911,0-.6-.7-.863-1.331-1.1-.828-.3-1.739-.7-1.739-1.679,0-.936.744-1.655,2-1.655a2.912,2.912,0,0,1,1.811.659l-.468.624a2.164,2.164,0,0,0-1.331-.516c-.732,0-1.067.4-1.067.84,0,.552.635.755,1.295,1.007.84.313,1.775.66,1.775,1.764,0,.947-.756,1.738-2.135,1.738a3.512,3.512,0,0,1-2.171-.8Z" transform="translate(-7.718 -9.487)"/><path class="cls-6" d="M61.705,114.757h-.863v-.743l.911-.061.12-1.631H62.7v1.631h1.571v.8H62.7V118c0,.72.228,1.128.9,1.128a2.112,2.112,0,0,0,.66-.156l.192.743a3.584,3.584,0,0,1-1.08.216c-1.247,0-1.667-.791-1.667-1.942Z" transform="translate(-7.718 -9.487)"/><path class="cls-6" d="M68.113,111.916H70.08c2.423,0,3.718,1.4,3.718,3.9s-1.295,3.97-3.67,3.97H68.113Zm1.895,7.052c1.835,0,2.759-1.163,2.759-3.154s-.923-3.082-2.759-3.082h-.9v6.236Z" transform="translate(-7.718 -9.487)"/><path class="cls-6" d="M77.58,113.81c1.487,0,2.327,1.067,2.327,2.734a3.489,3.489,0,0,1-.036.54H75.937a1.94,1.94,0,0,0,1.943,2.051,2.632,2.632,0,0,0,1.451-.456l.348.647a3.469,3.469,0,0,1-1.919.6,3.083,3.083,0,0,1-.18-6.116Zm1.463,2.627c0-1.187-.528-1.848-1.439-1.848a1.819,1.819,0,0,0-1.679,1.848Z" transform="translate(-7.718 -9.487)"/><path class="cls-6" d="M84.491,116.088c0-.743-.252-1.463-1.2-1.463a3.13,3.13,0,0,0-1.739.624l-.4-.684a4.329,4.329,0,0,1,2.291-.756c1.427,0,2.027.947,2.027,2.4v3.574h-.815l-.084-.7h-.024a3.171,3.171,0,0,1-1.931.839,1.589,1.589,0,0,1-1.715-1.654C80.905,117,82.008,116.365,84.491,116.088Zm-1.6,3.047a2.392,2.392,0,0,0,1.6-.779v-1.619c-1.955.239-2.615.719-2.615,1.463A.893.893,0,0,0,82.9,119.135Z" transform="translate(-7.718 -9.487)"/><path class="cls-6" d="M87.5,114.757h-.863v-.743l.911-.061.12-1.631H88.5v1.631h1.571v.8H88.5V118c0,.72.228,1.128.9,1.128a2.112,2.112,0,0,0,.66-.156l.192.743a3.584,3.584,0,0,1-1.08.216c-1.247,0-1.667-.791-1.667-1.942Z" transform="translate(-7.718 -9.487)"/><path class="cls-6" d="M91.393,111.244h.983v2.326l-.036,1.2a2.786,2.786,0,0,1,1.943-.959c1.223,0,1.775.791,1.775,2.278v3.694h-.983V116.22c0-1.091-.336-1.559-1.1-1.559-.6,0-1.007.312-1.6.9v4.222h-.983Z" transform="translate(-7.718 -9.487)"/><rect class="cls-7" x="218.5" y="208.4" width="126" height="60"/><path class="cls-5" d="M255.558,242.572a3.081,3.081,0,0,0,2.171.983c1.031,0,1.644-.516,1.644-1.283,0-.8-.564-1.056-1.308-1.392l-1.128-.491a2.212,2.212,0,0,1-1.595-2.027,2.235,2.235,0,0,1,2.471-2.087,3.265,3.265,0,0,1,2.327.972l-.54.647a2.507,2.507,0,0,0-1.787-.743c-.876,0-1.463.443-1.463,1.151,0,.755.684,1.043,1.307,1.307l1.115.48a2.189,2.189,0,0,1,1.619,2.1c0,1.247-1.019,2.242-2.674,2.242a3.814,3.814,0,0,1-2.759-1.163Z" transform="translate(-7.718 -9.487)"/><path class="cls-5" d="M264.028,238.314c1.487,0,2.327,1.067,2.327,2.734a3.429,3.429,0,0,1-.036.54h-3.934a1.94,1.94,0,0,0,1.943,2.051,2.634,2.634,0,0,0,1.451-.456l.348.647a3.47,3.47,0,0,1-1.919.6,3.083,3.083,0,0,1-.181-6.116Zm1.464,2.627c0-1.187-.528-1.848-1.439-1.848a1.819,1.819,0,0,0-1.679,1.848Z" transform="translate(-7.718 -9.487)"/><path class="cls-5" d="M270.172,238.314a2.406,2.406,0,0,1,1.7.7l-.491.636a1.763,1.763,0,0,0-1.176-.516c-1.055,0-1.822.911-1.822,2.255s.731,2.23,1.8,2.23a2.075,2.075,0,0,0,1.367-.588l.443.648a2.884,2.884,0,0,1-1.895.755,2.737,2.737,0,0,1-2.734-3.046A2.822,2.822,0,0,1,270.172,238.314Z" transform="translate(-7.718 -9.487)"/><path class="cls-5" d="M275.3,238.314a3.082,3.082,0,1,1-2.7,3.07A2.786,2.786,0,0,1,275.3,238.314Zm0,5.3c1.008,0,1.68-.9,1.68-2.23s-.672-2.255-1.68-2.255-1.679.911-1.679,2.255S274.3,243.615,275.3,243.615Z" transform="translate(-7.718 -9.487)"/><path class="cls-5" d="M279.533,238.458h.815l.084.84h.036a2.747,2.747,0,0,1,1.955-.983c1.224,0,1.775.791,1.775,2.278v3.694h-.983v-3.562c0-1.091-.336-1.559-1.1-1.559-.6,0-1.008.312-1.6.9v4.222h-.983Z" transform="translate(-7.718 -9.487)"/><path class="cls-5" d="M288.208,238.314a2.4,2.4,0,0,1,1.632.672l-.049-1v-2.242h1v8.539h-.815l-.084-.684h-.036a2.631,2.631,0,0,1-1.764.827c-1.463,0-2.41-1.1-2.41-3.046C285.678,239.49,286.877,238.314,288.208,238.314Zm.1,5.289a1.971,1.971,0,0,0,1.486-.8v-3.046a2.026,2.026,0,0,0-1.415-.612c-.936,0-1.679.9-1.679,2.231C286.7,242.764,287.285,243.6,288.3,243.6Z" transform="translate(-7.718 -9.487)"/><path class="cls-5" d="M295.277,236.42h1.967c2.423,0,3.718,1.4,3.718,3.9s-1.295,3.97-3.67,3.97h-2.015Zm1.895,7.052c1.836,0,2.759-1.163,2.759-3.154s-.923-3.082-2.759-3.082h-.9v6.236Z" transform="translate(-7.718 -9.487)"/><path class="cls-5" d="M304.744,238.314c1.487,0,2.327,1.067,2.327,2.734a3.551,3.551,0,0,1-.036.54H303.1a1.941,1.941,0,0,0,1.943,2.051,2.629,2.629,0,0,0,1.451-.456l.348.647a3.467,3.467,0,0,1-1.919.6,3.083,3.083,0,0,1-.18-6.116Zm1.463,2.627c0-1.187-.527-1.848-1.438-1.848a1.819,1.819,0,0,0-1.68,1.848Z" transform="translate(-7.718 -9.487)"/><path class="cls-5" d="M311.644,240.593c0-.743-.252-1.463-1.2-1.463a3.126,3.126,0,0,0-1.739.624l-.4-.684a4.329,4.329,0,0,1,2.291-.756c1.428,0,2.027.947,2.027,2.4v3.574h-.815l-.084-.7H311.7a3.169,3.169,0,0,1-1.931.839,1.589,1.589,0,0,1-1.715-1.654C308.058,241.5,309.16,240.869,311.644,240.593Zm-1.6,3.047a2.394,2.394,0,0,0,1.6-.779v-1.619c-1.955.239-2.615.719-2.615,1.463A.894.894,0,0,0,310.048,243.64Z" transform="translate(-7.718 -9.487)"/><path class="cls-5" d="M314.657,239.262h-.864v-.743l.912-.061.119-1.631h.828v1.631h1.571v.8h-1.571V242.5c0,.72.228,1.128.9,1.128a2.1,2.1,0,0,0,.659-.156l.192.743a3.587,3.587,0,0,1-1.079.216c-1.248,0-1.667-.791-1.667-1.942Z" transform="translate(-7.718 -9.487)"/><path class="cls-5" d="M318.545,235.748h.983v2.326l-.036,1.2a2.788,2.788,0,0,1,1.943-.959c1.224,0,1.774.791,1.774,2.278v3.694h-.983v-3.562c0-1.091-.335-1.559-1.1-1.559-.6,0-1.008.312-1.6.9v4.222h-.983Z" transform="translate(-7.718 -9.487)"/><path class="cls-5" d="M266.932,252.4a1.907,1.907,0,0,0-1.463-.684,1.1,1.1,0,0,0-1.2,1.151c0,1.738,3.346,1.259,3.346,3.838a2.013,2.013,0,0,1-1.858,2.087v1.211h-.72v-1.187A3.647,3.647,0,0,1,263,257.9l.456-.684a2.861,2.861,0,0,0,1.858.8,1.17,1.17,0,0,0,1.331-1.235c0-1.942-3.346-1.522-3.346-3.861a1.961,1.961,0,0,1,1.739-2v-1.2h.72V250.9a2.641,2.641,0,0,1,1.7.912Z" transform="translate(-7.718 -9.487)"/><path class="cls-5" d="M269.285,257.872h1.752v-5.637h-1.392V251.6a4.575,4.575,0,0,0,1.619-.563h.756v6.836H273.6v.815h-4.318Z" transform="translate(-7.718 -9.487)"/><path class="cls-5" d="M274.865,260.15a1.613,1.613,0,0,0,1.08-1.463.418.418,0,0,1-.12.012.66.66,0,0,1-.708-.684.69.69,0,0,1,.732-.7c.516,0,.827.443.827,1.163a2.384,2.384,0,0,1-1.571,2.243Z" transform="translate(-7.718 -9.487)"/><path class="cls-5" d="M279.222,254.67v-.048a2.172,2.172,0,0,1-1.068-1.764,2.172,2.172,0,0,1,4.33.072,2.518,2.518,0,0,1-1.056,1.847v.048a2.092,2.092,0,0,1-1.139,4.006,2.263,2.263,0,0,1-2.507-2.1A2.418,2.418,0,0,1,279.222,254.67Zm1.091,3.43a1.362,1.362,0,0,0,1.5-1.343c0-.983-.972-1.344-2.074-1.787a2.07,2.07,0,0,0-1.067,1.667A1.516,1.516,0,0,0,280.313,258.1Zm1.319-5.121a1.277,1.277,0,0,0-1.331-1.355,1.184,1.184,0,0,0-1.235,1.235c0,.912.84,1.3,1.763,1.655A2.064,2.064,0,0,0,281.632,252.979Z" transform="translate(-7.718 -9.487)"/><path class="cls-5" d="M284.034,257.141a2.6,2.6,0,0,0,1.931.875,1.651,1.651,0,0,0,1.679-1.751,1.537,1.537,0,0,0-1.631-1.679,2.156,2.156,0,0,0-1.308.468l-.527-.336.252-3.682h3.826v.852h-2.963l-.2,2.267a2.348,2.348,0,0,1,1.176-.312,2.2,2.2,0,0,1,2.375,2.4,2.5,2.5,0,0,1-2.579,2.59,3.357,3.357,0,0,1-2.507-1.043Z" transform="translate(-7.718 -9.487)"/><path class="cls-5" d="M289.746,254.838c0-2.566.923-3.946,2.458-3.946s2.447,1.38,2.447,3.946-.924,3.993-2.447,3.993S289.746,257.4,289.746,254.838Zm3.945,0c0-2.243-.6-3.154-1.487-3.154s-1.5.911-1.5,3.154.6,3.2,1.5,3.2S293.691,257.08,293.691,254.838Z" transform="translate(-7.718 -9.487)"/><path class="cls-5" d="M295.745,260.15a1.613,1.613,0,0,0,1.08-1.463.418.418,0,0,1-.12.012.66.66,0,0,1-.708-.684.69.69,0,0,1,.732-.7c.516,0,.827.443.827,1.163a2.384,2.384,0,0,1-1.571,2.243Z" transform="translate(-7.718 -9.487)"/><path class="cls-5" d="M298.7,254.838c0-2.566.924-3.946,2.459-3.946s2.446,1.38,2.446,3.946-.924,3.993-2.446,3.993S298.7,257.4,298.7,254.838Zm3.946,0c0-2.243-.6-3.154-1.487-3.154s-1.5.911-1.5,3.154.6,3.2,1.5,3.2S302.644,257.08,302.644,254.838Z" transform="translate(-7.718 -9.487)"/><path class="cls-5" d="M304.661,254.838c0-2.566.924-3.946,2.459-3.946s2.446,1.38,2.446,3.946-.924,3.993-2.446,3.993S304.661,257.4,304.661,254.838Zm3.946,0c0-2.243-.6-3.154-1.487-3.154s-1.5.911-1.5,3.154.6,3.2,1.5,3.2S308.607,257.08,308.607,254.838Z" transform="translate(-7.718 -9.487)"/><path class="cls-5" d="M310.625,254.838c0-2.566.924-3.946,2.459-3.946s2.446,1.38,2.446,3.946-.924,3.993-2.446,3.993S310.625,257.4,310.625,254.838Zm3.945,0c0-2.243-.6-3.154-1.486-3.154s-1.5.911-1.5,3.154.6,3.2,1.5,3.2S314.57,257.08,314.57,254.838Z" transform="translate(-7.718 -9.487)"/><path class="cls-6" d="M43.758,221.191h1.031l2.842,4.942.852,1.632h.048c-.048-.792-.12-1.68-.12-2.507v-4.067h.947v7.869H48.327l-2.854-4.953-.852-1.62h-.048c.06.791.132,1.631.132,2.459v4.113h-.947Z" transform="translate(-7.718 -9.487)"/><path class="cls-6" d="M53.692,223.086a3.082,3.082,0,1,1-2.7,3.071A2.786,2.786,0,0,1,53.692,223.086Zm0,5.3c1.008,0,1.679-.9,1.679-2.23S54.7,223.9,53.692,223.9s-1.679.912-1.679,2.255S52.7,228.388,53.692,228.388Z" transform="translate(-7.718 -9.487)"/><path class="cls-6" d="M62.536,223.086c1.487,0,2.327,1.068,2.327,2.735a3.489,3.489,0,0,1-.036.54H60.893a1.94,1.94,0,0,0,1.943,2.051,2.632,2.632,0,0,0,1.451-.456l.348.647a3.469,3.469,0,0,1-1.919.6,3.083,3.083,0,0,1-.18-6.117ZM64,225.714c0-1.187-.528-1.848-1.439-1.848a1.819,1.819,0,0,0-1.679,1.848Z" transform="translate(-7.718 -9.487)"/><path class="cls-6" d="M66.149,227.74a2.618,2.618,0,0,0,1.715.7c.768,0,1.151-.407,1.151-.911,0-.6-.7-.863-1.331-1.1-.828-.3-1.739-.7-1.739-1.679,0-.936.744-1.656,2-1.656a2.912,2.912,0,0,1,1.811.659l-.468.625a2.164,2.164,0,0,0-1.331-.516c-.732,0-1.067.4-1.067.84,0,.552.635.755,1.295,1.007.84.313,1.775.66,1.775,1.764,0,.947-.756,1.738-2.135,1.738a3.512,3.512,0,0,1-2.171-.8Z" transform="translate(-7.718 -9.487)"/><path class="cls-6" d="M71.5,224.034h-.863v-.744l.911-.061.12-1.631H72.5v1.631h1.571v.8H72.5v3.238c0,.72.228,1.128.9,1.128a2.112,2.112,0,0,0,.66-.156l.192.743a3.584,3.584,0,0,1-1.08.216c-1.247,0-1.667-.791-1.667-1.942Z" transform="translate(-7.718 -9.487)"/><path class="cls-6" d="M78.471,225.365c0-.743-.252-1.463-1.2-1.463a3.129,3.129,0,0,0-1.739.625l-.4-.684a4.321,4.321,0,0,1,2.291-.756c1.427,0,2.027.948,2.027,2.4v3.574h-.815l-.084-.7h-.024a3.171,3.171,0,0,1-1.931.839,1.589,1.589,0,0,1-1.715-1.654C74.885,226.277,75.988,225.642,78.471,225.365Zm-1.6,3.047a2.392,2.392,0,0,0,1.6-.779v-1.619c-1.955.239-2.615.719-2.615,1.463A.893.893,0,0,0,76.876,228.412Z" transform="translate(-7.718 -9.487)"/><path class="cls-6" d="M81.485,224.034h-.864v-.744l.912-.061.12-1.631h.828v1.631h1.571v.8H82.48v3.238c0,.72.228,1.128.9,1.128a2.112,2.112,0,0,0,.66-.156l.192.743a3.584,3.584,0,0,1-1.08.216c-1.247,0-1.667-.791-1.667-1.942Z" transform="translate(-7.718 -9.487)"/><path class="cls-6" d="M87.448,223.086c1.487,0,2.327,1.068,2.327,2.735a3.489,3.489,0,0,1-.036.54H85.8a1.94,1.94,0,0,0,1.943,2.051,2.632,2.632,0,0,0,1.451-.456l.348.647a3.469,3.469,0,0,1-1.919.6,3.083,3.083,0,0,1-.18-6.117Zm1.463,2.627c0-1.187-.528-1.848-1.439-1.848a1.82,1.82,0,0,0-1.679,1.848Z" transform="translate(-7.718 -9.487)"/><path class="cls-6" d="M93.809,224.034h-.863v-.744l.911-.061.12-1.631H94.8v1.631h1.571v.8H94.8v3.238c0,.72.228,1.128.9,1.128a2.112,2.112,0,0,0,.66-.156l.192.743a3.584,3.584,0,0,1-1.08.216c-1.247,0-1.667-.791-1.667-1.942Z" transform="translate(-7.718 -9.487)"/><path class="cls-6" d="M100.779,225.365c0-.743-.252-1.463-1.2-1.463a3.129,3.129,0,0,0-1.739.625l-.4-.684a4.321,4.321,0,0,1,2.291-.756c1.427,0,2.027.948,2.027,2.4v3.574h-.815l-.084-.7h-.024a3.171,3.171,0,0,1-1.931.839,1.589,1.589,0,0,1-1.715-1.654C97.193,226.277,98.3,225.642,100.779,225.365Zm-1.6,3.047a2.392,2.392,0,0,0,1.6-.779v-1.619c-1.955.239-2.615.719-2.615,1.463A.893.893,0,0,0,99.184,228.412Z" transform="translate(-7.718 -9.487)"/><path class="cls-6" d="M104.716,226.014l-1.763-2.784h1.067l.779,1.284c.18.313.372.648.576.972h.048c.167-.323.348-.659.527-.972l.708-1.284h1.032l-1.763,2.891,1.9,2.938h-1.067L105.9,227.7c-.2-.348-.42-.707-.636-1.043h-.048c-.2.336-.4.684-.588,1.043l-.792,1.355h-1.031Z" transform="translate(-7.718 -9.487)"/><rect class="cls-8" x="34.5" y="17.4" width="126" height="28.8"/><rect class="cls-8" x="218.5" y="17.4" width="126" height="28.8"/><path class="cls-5" d="M80.636,43.022a3.08,3.08,0,0,0,2.171.983c1.031,0,1.643-.516,1.643-1.283,0-.8-.564-1.056-1.308-1.392l-1.127-.491a2.212,2.212,0,0,1-1.595-2.027,2.235,2.235,0,0,1,2.471-2.087,3.264,3.264,0,0,1,2.327.972l-.54.647a2.506,2.506,0,0,0-1.787-.743c-.876,0-1.463.443-1.463,1.151,0,.755.684,1.043,1.307,1.307l1.115.48a2.189,2.189,0,0,1,1.619,2.1c0,1.247-1.019,2.242-2.674,2.242a3.813,3.813,0,0,1-2.758-1.163Z" transform="translate(-7.718 -9.487)"/><path class="cls-5" d="M87.907,45.229V47.2h-.983V38.908h.815l.084.672h.036a3.018,3.018,0,0,1,1.859-.815c1.5,0,2.3,1.163,2.3,2.975,0,1.979-1.187,3.142-2.519,3.142a2.706,2.706,0,0,1-1.619-.671Zm1.427-1.176c.959,0,1.667-.876,1.667-2.314,0-1.283-.432-2.147-1.535-2.147a2.457,2.457,0,0,0-1.559.792v3.059A2.309,2.309,0,0,0,89.334,44.053Z" transform="translate(-7.718 -9.487)"/><path class="cls-5" d="M95.85,38.764a2.785,2.785,0,0,1,2.7,3.07,2.718,2.718,0,1,1-5.4,0A2.785,2.785,0,0,1,95.85,38.764Zm0,5.3c1.008,0,1.679-.9,1.679-2.23s-.671-2.255-1.679-2.255-1.679.911-1.679,2.255S94.855,44.065,95.85,44.065Z" transform="translate(-7.718 -9.487)"/><path class="cls-5" d="M100,38.908h1V42.47c0,1.091.324,1.559,1.091,1.559.6,0,1.02-.3,1.571-.983V38.908h.983v5.829h-.815l-.084-.911h-.036a2.462,2.462,0,0,1-1.919,1.055c-1.235,0-1.787-.791-1.787-2.278Z" transform="translate(-7.718 -9.487)"/><path class="cls-5" d="M106.459,43.417a2.618,2.618,0,0,0,1.715.7c.768,0,1.151-.407,1.151-.911,0-.6-.7-.863-1.331-1.1-.828-.3-1.739-.7-1.739-1.679,0-.936.744-1.655,2-1.655a2.911,2.911,0,0,1,1.811.659l-.468.624a2.164,2.164,0,0,0-1.331-.516c-.732,0-1.067.4-1.067.84,0,.552.636.755,1.295,1.007.84.313,1.775.66,1.775,1.764,0,.947-.756,1.738-2.135,1.738a3.512,3.512,0,0,1-2.171-.8Z" transform="translate(-7.718 -9.487)"/><path class="cls-5" d="M113.826,38.764c1.487,0,2.327,1.067,2.327,2.734a3.489,3.489,0,0,1-.036.54h-3.934a1.94,1.94,0,0,0,1.943,2.051,2.632,2.632,0,0,0,1.451-.456l.348.647a3.469,3.469,0,0,1-1.919.6,2.787,2.787,0,0,1-2.794-3.046A2.811,2.811,0,0,1,113.826,38.764Zm1.463,2.627c0-1.187-.528-1.848-1.439-1.848a1.819,1.819,0,0,0-1.679,1.848Z" transform="translate(-7.718 -9.487)"/><path class="cls-5" d="M120.415,42.291h-.959v-.684H120.5l.216-1.775H119.7v-.7h1.1l.276-2.2h.635l-.275,2.2h1.595l.288-2.2h.636l-.288,2.2h.972v.7h-1.043l-.216,1.775H124.4v.684h-1.1l-.3,2.446h-.636l.288-2.446h-1.583l-.3,2.446h-.647Zm2.314-.684.216-1.775h-1.583l-.216,1.775Z" transform="translate(-7.718 -9.487)"/><path class="cls-5" d="M125.947,43.921H127.7V38.285h-1.392v-.636a4.568,4.568,0,0,0,1.619-.563h.756v6.836h1.583v.815h-4.318Z" transform="translate(-7.718 -9.487)"/><path class="cls-5" d="M264.632,43.322a3.081,3.081,0,0,0,2.171.983c1.031,0,1.644-.516,1.644-1.283,0-.8-.564-1.056-1.308-1.392l-1.128-.491a2.212,2.212,0,0,1-1.595-2.027,2.236,2.236,0,0,1,2.471-2.087,3.265,3.265,0,0,1,2.327.972l-.54.647a2.507,2.507,0,0,0-1.787-.743c-.876,0-1.463.443-1.463,1.151,0,.755.684,1.043,1.307,1.307l1.115.48a2.189,2.189,0,0,1,1.619,2.1c0,1.247-1.019,2.242-2.674,2.242a3.814,3.814,0,0,1-2.759-1.163Z" transform="translate(-7.718 -9.487)"/><path class="cls-5" d="M271.9,45.529V47.5h-.983V39.208h.815l.084.672h.036a3.021,3.021,0,0,1,1.859-.815c1.5,0,2.3,1.163,2.3,2.975,0,1.979-1.187,3.142-2.519,3.142a2.7,2.7,0,0,1-1.619-.671Zm1.428-1.176c.959,0,1.667-.876,1.667-2.314,0-1.283-.432-2.147-1.535-2.147a2.458,2.458,0,0,0-1.56.792v3.059A2.311,2.311,0,0,0,273.331,44.353Z" transform="translate(-7.718 -9.487)"/><path class="cls-5" d="M279.847,39.064a2.785,2.785,0,0,1,2.7,3.07,2.718,2.718,0,1,1-5.4,0A2.785,2.785,0,0,1,279.847,39.064Zm0,5.3c1.008,0,1.679-.9,1.679-2.23s-.671-2.255-1.679-2.255-1.679.911-1.679,2.255S278.852,44.365,279.847,44.365Z" transform="translate(-7.718 -9.487)"/><path class="cls-5" d="M284,39.208h1V42.77c0,1.091.324,1.559,1.092,1.559.6,0,1.02-.3,1.571-.983V39.208h.983v5.829h-.815l-.084-.911h-.036a2.463,2.463,0,0,1-1.919,1.055c-1.235,0-1.787-.791-1.787-2.278Z" transform="translate(-7.718 -9.487)"/><path class="cls-5" d="M290.456,43.717a2.617,2.617,0,0,0,1.715.7c.768,0,1.151-.407,1.151-.911,0-.6-.7-.863-1.331-1.1-.828-.3-1.739-.7-1.739-1.679,0-.936.743-1.655,2-1.655a2.91,2.91,0,0,1,1.811.659l-.468.624a2.164,2.164,0,0,0-1.331-.516c-.731,0-1.067.4-1.067.84,0,.552.636.755,1.295,1.007.84.313,1.775.66,1.775,1.764,0,.947-.756,1.738-2.135,1.738a3.513,3.513,0,0,1-2.171-.8Z" transform="translate(-7.718 -9.487)"/><path class="cls-5" d="M297.822,39.064c1.487,0,2.327,1.067,2.327,2.734a3.551,3.551,0,0,1-.036.54h-3.935a1.941,1.941,0,0,0,1.943,2.051,2.629,2.629,0,0,0,1.451-.456l.348.647a3.467,3.467,0,0,1-1.919.6,2.787,2.787,0,0,1-2.794-3.046A2.811,2.811,0,0,1,297.822,39.064Zm1.463,2.627c0-1.187-.527-1.848-1.438-1.848a1.819,1.819,0,0,0-1.68,1.848Z" transform="translate(-7.718 -9.487)"/><path class="cls-5" d="M304.411,42.59h-.959v-.684H304.5l.216-1.775h-1.02v-.7h1.1l.276-2.2h.635l-.275,2.2h1.595l.288-2.2h.636l-.288,2.2h.972v.7H307.59l-.216,1.775h1.019v.684h-1.1l-.3,2.446h-.636l.287-2.446h-1.583l-.3,2.446h-.647Zm2.314-.684.216-1.775h-1.583l-.216,1.775Z" transform="translate(-7.718 -9.487)"/><path class="cls-5" d="M309.476,44.449c2.3-2.291,3.6-3.67,3.6-4.905a1.355,1.355,0,0,0-1.451-1.5,2.254,2.254,0,0,0-1.631.924l-.563-.564a3,3,0,0,1,2.314-1.163,2.126,2.126,0,0,1,2.291,2.255c0,1.439-1.308,2.866-3.118,4.762.42-.036.888-.072,1.283-.072h2.219v.852h-4.941Z" transform="translate(-7.718 -9.487)"/><polygon points="217.017 224.459 207.744 204.909 197.347 233.475 217.017 224.459"/><line class="cls-9" x1="189.5" y1="14.429" x2="189.5" y2="189.686"/><path class="cls-10" d="M197.218,201.187h0m0-181.3h0" transform="translate(-7.718 -9.487)"/><rect class="cls-11" x="72.6" y="249.6" width="134.582" height="70.8"/><polygon class="cls-12" points="71.933 249.6 71.933 320.4 71.933 321.067 72.6 321.067 207.182 321.067 207.849 321.067 207.849 320.4 207.849 249.6 207.849 248.933 207.182 248.933 72.6 248.933 71.933 248.933 71.933 249.6"/><rect class="cls-12" x="73.267" y="250.267" width="133.248" height="69.466"/><path class="cls-6" d="M87.419,275.473a3.08,3.08,0,0,0,2.171.983c1.031,0,1.643-.516,1.643-1.283,0-.8-.564-1.056-1.308-1.392L88.8,273.29a2.212,2.212,0,0,1-1.595-2.027,2.235,2.235,0,0,1,2.47-2.087,3.264,3.264,0,0,1,2.327.972l-.54.647a2.506,2.506,0,0,0-1.787-.743c-.875,0-1.463.443-1.463,1.151,0,.755.684,1.043,1.307,1.307l1.116.48a2.19,2.19,0,0,1,1.619,2.1c0,1.247-1.019,2.242-2.674,2.242a3.813,3.813,0,0,1-2.758-1.163Z" transform="translate(-7.718 -9.487)"/><path class="cls-6" d="M93.623,271.358h1v3.563c0,1.091.324,1.559,1.091,1.559.6,0,1.02-.3,1.571-.983v-4.138h.983v5.829h-.815l-.084-.911h-.036a2.462,2.462,0,0,1-1.919,1.055c-1.235,0-1.787-.791-1.787-2.278Z" transform="translate(-7.718 -9.487)"/><path class="cls-6" d="M100.235,271.358h.815l.084,1.056h.036a1.994,1.994,0,0,1,1.655-1.2,1.448,1.448,0,0,1,.624.12l-.192.863a1.641,1.641,0,0,0-.564-.1c-.492,0-1.079.359-1.475,1.343v3.742h-.983Z" transform="translate(-7.718 -9.487)"/><path class="cls-6" d="M103.788,271.358h1.02l1.1,3.311c.168.575.36,1.163.54,1.715h.048c.168-.552.36-1.14.528-1.715l1.1-3.311h.972l-2.063,5.829h-1.151Z" transform="translate(-7.718 -9.487)"/><path class="cls-6" d="M110.051,269.523a.685.685,0,0,1,1.367,0,.685.685,0,0,1-1.367,0Zm.18,1.835h.983v5.829h-.983Z" transform="translate(-7.718 -9.487)"/><path class="cls-6" d="M112.343,271.358h1.02l1.1,3.311c.168.575.36,1.163.54,1.715h.048c.168-.552.36-1.14.528-1.715l1.1-3.311h.972l-2.063,5.829h-1.151Z" transform="translate(-7.718 -9.487)"/><path class="cls-6" d="M118.607,269.523a.685.685,0,0,1,1.367,0,.685.685,0,0,1-1.367,0Zm.18,1.835h.983v5.829h-.983Z" transform="translate(-7.718 -9.487)"/><path class="cls-6" d="M121.739,271.358h.815l.084.84h.036a2.747,2.747,0,0,1,1.955-.983c1.223,0,1.775.791,1.775,2.278v3.694h-.983v-3.562c0-1.091-.336-1.559-1.1-1.559-.6,0-1.007.312-1.6.9v4.222h-.983Z" transform="translate(-7.718 -9.487)"/><path class="cls-6" d="M128.71,276.983v-.048a1.075,1.075,0,0,1-.516-.947,1.363,1.363,0,0,1,.636-1.079v-.049a2.057,2.057,0,0,1,1.439-3.646,2.326,2.326,0,0,1,.828.144h2.027v.756h-1.2a1.69,1.69,0,0,1,.479,1.2,2,2,0,0,1-2.135,2.027,2.04,2.04,0,0,1-.875-.2.884.884,0,0,0-.372.7c0,.372.24.636,1.031.636h1.127c1.355,0,2.039.42,2.039,1.392,0,1.079-1.14,2.015-2.951,2.015-1.427,0-2.411-.563-2.411-1.571A1.684,1.684,0,0,1,128.71,276.983Zm1.7,2.207c1.115,0,1.847-.576,1.847-1.187,0-.54-.42-.72-1.175-.72h-1.008a2.826,2.826,0,0,1-.755-.1,1.227,1.227,0,0,0-.6.983C128.723,278.795,129.358,279.19,130.414,279.19Zm1.091-5.9a1.241,1.241,0,1,0-2.471,0,1.244,1.244,0,1,0,2.471,0Z" transform="translate(-7.718 -9.487)"/><path class="cls-6" d="M136.619,275.868a2.618,2.618,0,0,0,1.715.7c.768,0,1.151-.407,1.151-.911,0-.6-.7-.863-1.331-1.1-.828-.3-1.739-.7-1.739-1.679,0-.936.744-1.655,2-1.655a2.911,2.911,0,0,1,1.811.659l-.468.624a2.164,2.164,0,0,0-1.331-.516c-.732,0-1.067.4-1.067.84,0,.552.636.755,1.295,1.007.84.313,1.775.66,1.775,1.764,0,.947-.756,1.738-2.135,1.738a3.512,3.512,0,0,1-2.171-.8Z" transform="translate(-7.718 -9.487)"/><path class="cls-6" d="M142.786,277.68v1.967H141.8v-8.288h.815l.084.672h.036a3.018,3.018,0,0,1,1.859-.815c1.5,0,2.3,1.163,2.3,2.975,0,1.979-1.187,3.142-2.519,3.142a2.706,2.706,0,0,1-1.619-.671Zm1.427-1.176c.959,0,1.667-.876,1.667-2.314,0-1.283-.432-2.147-1.535-2.147a2.457,2.457,0,0,0-1.559.792v3.059A2.309,2.309,0,0,0,144.213,276.5Z" transform="translate(-7.718 -9.487)"/><path class="cls-6" d="M150.729,271.215a3.082,3.082,0,1,1-2.7,3.07A2.785,2.785,0,0,1,150.729,271.215Zm0,5.3c1.008,0,1.679-.9,1.679-2.23s-.671-2.255-1.679-2.255-1.679.911-1.679,2.255S149.734,276.516,150.729,276.516Z" transform="translate(-7.718 -9.487)"/><path class="cls-6" d="M154.882,271.358h1v3.563c0,1.091.324,1.559,1.091,1.559.6,0,1.02-.3,1.571-.983v-4.138h.983v5.829h-.815l-.084-.911h-.036a2.462,2.462,0,0,1-1.919,1.055c-1.235,0-1.787-.791-1.787-2.278Z" transform="translate(-7.718 -9.487)"/><path class="cls-6" d="M161.338,275.868a2.618,2.618,0,0,0,1.715.7c.768,0,1.151-.407,1.151-.911,0-.6-.7-.863-1.331-1.1-.828-.3-1.739-.7-1.739-1.679,0-.936.744-1.655,2-1.655a2.911,2.911,0,0,1,1.811.659l-.468.624a2.164,2.164,0,0,0-1.331-.516c-.732,0-1.067.4-1.067.84,0,.552.636.755,1.295,1.007.84.313,1.775.66,1.775,1.764,0,.947-.756,1.738-2.135,1.738a3.512,3.512,0,0,1-2.171-.8Z" transform="translate(-7.718 -9.487)"/><path class="cls-6" d="M168.705,271.215c1.487,0,2.327,1.067,2.327,2.734a3.489,3.489,0,0,1-.036.54h-3.934A1.94,1.94,0,0,0,169,276.54a2.632,2.632,0,0,0,1.451-.456l.348.647a3.469,3.469,0,0,1-1.919.6,3.083,3.083,0,0,1-.18-6.116Zm1.463,2.627c0-1.187-.528-1.848-1.439-1.848a1.819,1.819,0,0,0-1.679,1.848Z" transform="translate(-7.718 -9.487)"/><path class="cls-6" d="M87.3,285.759h.815l.084,1.056h.036a1.994,1.994,0,0,1,1.655-1.2,1.448,1.448,0,0,1,.624.12l-.192.863a1.641,1.641,0,0,0-.564-.1c-.492,0-1.079.359-1.475,1.343v3.742H87.3Z" transform="translate(-7.718 -9.487)"/><path class="cls-6" d="M93.538,285.615c1.487,0,2.327,1.067,2.327,2.734a3.489,3.489,0,0,1-.036.54H91.895a1.94,1.94,0,0,0,1.943,2.051,2.632,2.632,0,0,0,1.451-.456l.348.647a3.469,3.469,0,0,1-1.919.6,3.083,3.083,0,0,1-.18-6.116ZM95,288.242c0-1.187-.528-1.848-1.439-1.848a1.819,1.819,0,0,0-1.679,1.848Z" transform="translate(-7.718 -9.487)"/><path class="cls-6" d="M99.682,285.615a2.406,2.406,0,0,1,1.7.7l-.492.636a1.761,1.761,0,0,0-1.175-.516c-1.055,0-1.823.911-1.823,2.255s.731,2.23,1.8,2.23a2.075,2.075,0,0,0,1.367-.588l.444.648a2.885,2.885,0,0,1-1.9.755,2.737,2.737,0,0,1-2.734-3.046A2.823,2.823,0,0,1,99.682,285.615Z" transform="translate(-7.718 -9.487)"/><path class="cls-6" d="M104.722,285.615c1.487,0,2.327,1.067,2.327,2.734a3.489,3.489,0,0,1-.036.54h-3.934a1.94,1.94,0,0,0,1.943,2.051,2.632,2.632,0,0,0,1.451-.456l.348.647a3.469,3.469,0,0,1-1.919.6,3.083,3.083,0,0,1-.18-6.116Zm1.463,2.627c0-1.187-.528-1.848-1.439-1.848a1.819,1.819,0,0,0-1.679,1.848Z" transform="translate(-7.718 -9.487)"/><path class="cls-6" d="M108.311,283.924a.685.685,0,0,1,1.367,0,.685.685,0,0,1-1.367,0Zm.18,1.835h.983v5.829h-.983Z" transform="translate(-7.718 -9.487)"/><path class="cls-6" d="M110.6,285.759h1.02l1.1,3.311c.168.575.36,1.163.54,1.715h.048c.168-.552.36-1.14.528-1.715l1.1-3.311h.972l-2.063,5.829H112.7Z" transform="translate(-7.718 -9.487)"/><path class="cls-6" d="M119.193,285.615c1.487,0,2.327,1.067,2.327,2.734a3.489,3.489,0,0,1-.036.54H117.55a1.94,1.94,0,0,0,1.943,2.051,2.632,2.632,0,0,0,1.451-.456l.348.647a3.469,3.469,0,0,1-1.919.6,3.083,3.083,0,0,1-.18-6.116Zm1.463,2.627c0-1.187-.528-1.848-1.439-1.848a1.819,1.819,0,0,0-1.679,1.848Z" transform="translate(-7.718 -9.487)"/><path class="cls-6" d="M122.807,290.269a2.618,2.618,0,0,0,1.715.7c.768,0,1.151-.407,1.151-.911,0-.6-.7-.863-1.331-1.1-.828-.3-1.739-.7-1.739-1.679,0-.936.744-1.655,2-1.655a2.912,2.912,0,0,1,1.811.659l-.468.624a2.164,2.164,0,0,0-1.331-.516c-.732,0-1.067.4-1.067.84,0,.552.635.755,1.295,1.007.84.313,1.775.66,1.775,1.764,0,.947-.756,1.738-2.135,1.738a3.512,3.512,0,0,1-2.171-.8Z" transform="translate(-7.718 -9.487)"/><path class="cls-6" d="M130.234,283.924a.685.685,0,0,1,1.367,0,.685.685,0,0,1-1.367,0Zm.18,1.835h.983v5.829h-.983Z" transform="translate(-7.718 -9.487)"/><path class="cls-6" d="M133.366,285.759h.815l.084.84h.036a2.747,2.747,0,0,1,1.955-.983c1.223,0,1.775.791,1.775,2.278v3.694h-.983v-3.562c0-1.091-.336-1.559-1.1-1.559-.6,0-1.007.312-1.6.9v4.222h-.983Z" transform="translate(-7.718 -9.487)"/><path class="cls-6" d="M142.3,285.615a2.406,2.406,0,0,1,1.7.7l-.492.636a1.761,1.761,0,0,0-1.175-.516c-1.055,0-1.823.911-1.823,2.255s.731,2.23,1.8,2.23a2.075,2.075,0,0,0,1.367-.588l.444.648a2.885,2.885,0,0,1-1.9.755,2.737,2.737,0,0,1-2.734-3.046A2.823,2.823,0,0,1,142.3,285.615Z" transform="translate(-7.718 -9.487)"/><path class="cls-6" d="M147.417,285.615a3.082,3.082,0,1,1-2.7,3.07A2.785,2.785,0,0,1,147.417,285.615Zm0,5.3c1.008,0,1.679-.9,1.679-2.23s-.671-2.255-1.679-2.255-1.679.911-1.679,2.255S146.421,290.916,147.417,290.916Z" transform="translate(-7.718 -9.487)"/><path class="cls-6" d="M151.654,285.759h.815l.084.84h.036a2.561,2.561,0,0,1,1.811-.983,1.529,1.529,0,0,1,1.607,1.115,2.756,2.756,0,0,1,1.919-1.115c1.2,0,1.775.791,1.775,2.278v3.694h-.984v-3.562c0-1.091-.348-1.559-1.079-1.559a2.138,2.138,0,0,0-1.463.9v4.222h-.983v-3.562c0-1.091-.348-1.559-1.091-1.559a2.188,2.188,0,0,0-1.463.9v4.222h-.983Z" transform="translate(-7.718 -9.487)"/><path class="cls-6" d="M163.784,285.615c1.487,0,2.327,1.067,2.327,2.734a3.489,3.489,0,0,1-.036.54h-3.934a1.94,1.94,0,0,0,1.943,2.051,2.632,2.632,0,0,0,1.451-.456l.348.647a3.469,3.469,0,0,1-1.919.6,3.083,3.083,0,0,1-.18-6.116Zm1.463,2.627c0-1.187-.528-1.848-1.439-1.848a1.819,1.819,0,0,0-1.679,1.848Z" transform="translate(-7.718 -9.487)"/><path class="cls-6" d="M173.276,287.894c0-.743-.252-1.463-1.2-1.463a3.129,3.129,0,0,0-1.739.624l-.4-.684a4.329,4.329,0,0,1,2.291-.756c1.427,0,2.027.947,2.027,2.4v3.574h-.815l-.084-.7h-.024a3.171,3.171,0,0,1-1.931.839,1.589,1.589,0,0,1-1.715-1.654C169.69,288.806,170.793,288.17,173.276,287.894Zm-1.6,3.047a2.392,2.392,0,0,0,1.6-.779v-1.619c-1.955.239-2.615.719-2.615,1.463A.893.893,0,0,0,171.681,290.94Z" transform="translate(-7.718 -9.487)"/><path class="cls-6" d="M176.122,285.759h.815l.084.84h.036a2.747,2.747,0,0,1,1.955-.983c1.223,0,1.775.791,1.775,2.278v3.694H179.8v-3.562c0-1.091-.336-1.559-1.1-1.559-.6,0-1.007.312-1.6.9v4.222h-.983Z" transform="translate(-7.718 -9.487)"/><path class="cls-6" d="M184.8,285.615a2.4,2.4,0,0,1,1.631.672l-.048-1v-2.242h1v8.539h-.815l-.084-.684h-.036a2.63,2.63,0,0,1-1.763.827c-1.463,0-2.411-1.1-2.411-3.046C182.266,286.791,183.465,285.615,184.8,285.615Zm.1,5.289a1.971,1.971,0,0,0,1.487-.8v-3.046a2.026,2.026,0,0,0-1.415-.612c-.936,0-1.679.9-1.679,2.231C183.285,290.064,183.873,290.9,184.893,290.9Z" transform="translate(-7.718 -9.487)"/><path class="cls-6" d="M88.283,306.479v1.967H87.3v-8.288h.815l.084.672h.036a3.018,3.018,0,0,1,1.859-.815c1.5,0,2.3,1.163,2.3,2.975,0,1.979-1.187,3.142-2.519,3.142a2.706,2.706,0,0,1-1.619-.671ZM89.71,305.3c.959,0,1.667-.876,1.667-2.314,0-1.283-.432-2.147-1.535-2.147a2.457,2.457,0,0,0-1.559.792v3.059A2.309,2.309,0,0,0,89.71,305.3Z" transform="translate(-7.718 -9.487)"/><path class="cls-6" d="M93.959,300.158h.815l.084,1.056h.036a1.994,1.994,0,0,1,1.655-1.2,1.448,1.448,0,0,1,.624.12l-.192.863a1.641,1.641,0,0,0-.564-.1c-.492,0-1.079.359-1.475,1.343v3.742h-.983Z" transform="translate(-7.718 -9.487)"/><path class="cls-6" d="M97.943,298.323a.685.685,0,0,1,1.367,0,.685.685,0,0,1-1.367,0Zm.18,1.835h.983v5.829h-.983Z" transform="translate(-7.718 -9.487)"/><path class="cls-6" d="M101.075,300.158h.815l.084.84h.036a2.747,2.747,0,0,1,1.955-.983c1.223,0,1.775.792,1.775,2.278v3.694h-.983v-3.562c0-1.091-.336-1.559-1.1-1.559-.6,0-1.007.312-1.6.9v4.222h-.983Z" transform="translate(-7.718 -9.487)"/><path class="cls-6" d="M110.014,300.015a2.4,2.4,0,0,1,1.7.7l-.492.636a1.761,1.761,0,0,0-1.175-.516c-1.055,0-1.823.911-1.823,2.255s.731,2.23,1.8,2.23a2.075,2.075,0,0,0,1.367-.588l.444.648a2.885,2.885,0,0,1-1.9.755,2.737,2.737,0,0,1-2.734-3.046A2.823,2.823,0,0,1,110.014,300.015Z" transform="translate(-7.718 -9.487)"/><path class="cls-6" d="M112.931,298.323a.685.685,0,0,1,1.367,0,.685.685,0,0,1-1.367,0Zm.18,1.835h.983v5.829h-.983Z" transform="translate(-7.718 -9.487)"/><path class="cls-6" d="M117.046,306.479v1.967h-.983v-8.288h.815l.084.672H117a3.018,3.018,0,0,1,1.859-.815c1.5,0,2.3,1.163,2.3,2.975,0,1.979-1.187,3.142-2.519,3.142a2.706,2.706,0,0,1-1.619-.671Zm1.427-1.176c.959,0,1.667-.876,1.667-2.314,0-1.283-.432-2.147-1.535-2.147a2.457,2.457,0,0,0-1.559.792v3.059A2.309,2.309,0,0,0,118.473,305.3Z" transform="translate(-7.718 -9.487)"/><path class="cls-6" d="M125.853,302.293c0-.743-.252-1.463-1.2-1.463a3.129,3.129,0,0,0-1.739.624l-.4-.684a4.321,4.321,0,0,1,2.291-.756c1.427,0,2.027.947,2.027,2.4v3.574h-.815l-.084-.7h-.024a3.171,3.171,0,0,1-1.931.839,1.589,1.589,0,0,1-1.715-1.654C122.267,303.205,123.37,302.569,125.853,302.293Zm-1.6,3.047a2.392,2.392,0,0,0,1.6-.779v-1.619c-1.955.239-2.615.719-2.615,1.463A.893.893,0,0,0,124.258,305.34Z" transform="translate(-7.718 -9.487)"/><path class="cls-6" d="M128.7,297.448h.983v7.436c0,.312.132.432.276.432a.844.844,0,0,0,.216-.023l.132.743a1.319,1.319,0,0,1-.564.1c-.744,0-1.043-.468-1.043-1.319Z" transform="translate(-7.718 -9.487)"/><path class="cls-6" d="M137.48,302.293c0-.743-.252-1.463-1.2-1.463a3.13,3.13,0,0,0-1.739.624l-.4-.684a4.321,4.321,0,0,1,2.291-.756c1.427,0,2.027.947,2.027,2.4v3.574h-.815l-.084-.7h-.024a3.171,3.171,0,0,1-1.931.839,1.589,1.589,0,0,1-1.715-1.654C133.895,303.205,135,302.569,137.48,302.293Zm-1.6,3.047a2.392,2.392,0,0,0,1.6-.779v-1.619c-1.955.239-2.615.719-2.615,1.463A.893.893,0,0,0,135.885,305.34Z" transform="translate(-7.718 -9.487)"/><path class="cls-6" d="M140.494,300.962h-.863v-.743l.911-.061.12-1.631h.828v1.631h1.571v.8H141.49V304.2c0,.72.228,1.128.9,1.128a2.112,2.112,0,0,0,.66-.156l.192.743a3.584,3.584,0,0,1-1.08.216c-1.247,0-1.667-.791-1.667-1.942Z" transform="translate(-7.718 -9.487)"/><path class="cls-6" d="M148.533,298.959h-2.375v-.84h5.757v.84h-2.375v7.028h-1.007Z" transform="translate(-7.718 -9.487)"/><path class="cls-6" d="M152.7,300.158h.815l.084,1.056h.036a1.994,1.994,0,0,1,1.655-1.2,1.448,1.448,0,0,1,.624.12l-.192.863a1.641,1.641,0,0,0-.564-.1c-.492,0-1.079.359-1.475,1.343v3.742H152.7Z" transform="translate(-7.718 -9.487)"/><path class="cls-6" d="M156.778,300.158h1v3.563c0,1.091.324,1.559,1.091,1.559.6,0,1.02-.3,1.571-.983v-4.138h.983v5.829H160.6l-.084-.911h-.036a2.462,2.462,0,0,1-1.919,1.055c-1.235,0-1.787-.791-1.787-2.278Z" transform="translate(-7.718 -9.487)"/><path class="cls-6" d="M163.234,304.668a2.618,2.618,0,0,0,1.715.7c.768,0,1.151-.407,1.151-.911,0-.6-.7-.863-1.331-1.1-.828-.3-1.739-.7-1.739-1.679,0-.936.744-1.655,2-1.655a2.911,2.911,0,0,1,1.811.659l-.468.624a2.164,2.164,0,0,0-1.331-.516c-.732,0-1.067.4-1.067.84,0,.552.636.755,1.295,1.007.84.313,1.775.66,1.775,1.764,0,.947-.756,1.738-2.135,1.738a3.512,3.512,0,0,1-2.171-.8Z" transform="translate(-7.718 -9.487)"/><path class="cls-6" d="M168.585,300.962h-.864v-.743l.912-.061.12-1.631h.828v1.631h1.571v.8h-1.571V304.2c0,.72.228,1.128.9,1.128a2.112,2.112,0,0,0,.66-.156l.192.743a3.584,3.584,0,0,1-1.08.216c-1.247,0-1.667-.791-1.667-1.942Z" transform="translate(-7.718 -9.487)"/><path class="cls-6" d="M174.549,300.015c1.487,0,2.327,1.067,2.327,2.734a3.489,3.489,0,0,1-.036.54h-3.934a1.94,1.94,0,0,0,1.943,2.051,2.632,2.632,0,0,0,1.451-.456l.348.647a3.469,3.469,0,0,1-1.919.6,3.083,3.083,0,0,1-.18-6.116Zm1.463,2.627c0-1.187-.528-1.848-1.439-1.848a1.819,1.819,0,0,0-1.679,1.848Z" transform="translate(-7.718 -9.487)"/><path class="cls-6" d="M180.5,300.015c1.487,0,2.327,1.067,2.327,2.734a3.489,3.489,0,0,1-.036.54h-3.934a1.94,1.94,0,0,0,1.943,2.051,2.632,2.632,0,0,0,1.451-.456l.348.647a3.469,3.469,0,0,1-1.919.6,3.083,3.083,0,0,1-.18-6.116Zm1.463,2.627c0-1.187-.528-1.848-1.439-1.848a1.819,1.819,0,0,0-1.679,1.848Z" transform="translate(-7.718 -9.487)"/><path class="cls-6" d="M183.933,300.362a1.648,1.648,0,0,0,.9-1.5.271.271,0,0,1-.1.012.6.6,0,0,1-.636-.6.615.615,0,0,1,.636-.672c.468,0,.756.4.756,1.092a2.325,2.325,0,0,1-1.284,2.123Z" transform="translate(-7.718 -9.487)"/><path class="cls-6" d="M186.405,304.668a2.618,2.618,0,0,0,1.715.7c.768,0,1.151-.407,1.151-.911,0-.6-.7-.863-1.331-1.1-.828-.3-1.739-.7-1.739-1.679,0-.936.744-1.655,2-1.655a2.915,2.915,0,0,1,1.812.659l-.468.624a2.164,2.164,0,0,0-1.331-.516c-.732,0-1.068.4-1.068.84,0,.552.635.755,1.3,1.007.84.313,1.775.66,1.775,1.764,0,.947-.756,1.738-2.135,1.738a3.512,3.512,0,0,1-2.171-.8Z" transform="translate(-7.718 -9.487)"/><path class="cls-6" d="M89.41,314.415a2.4,2.4,0,0,1,1.631.672l-.048-1v-2.242h1v8.539h-.815l-.084-.684h-.036a2.63,2.63,0,0,1-1.763.827c-1.463,0-2.411-1.1-2.411-3.046C86.879,315.59,88.079,314.415,89.41,314.415Zm.1,5.289a1.971,1.971,0,0,0,1.487-.8v-3.046a2.027,2.027,0,0,0-1.415-.612c-.936,0-1.679.9-1.679,2.231C87.9,318.864,88.487,319.7,89.506,319.7Z" transform="translate(-7.718 -9.487)"/><path class="cls-6" d="M93.779,312.724a.685.685,0,0,1,1.367,0,.685.685,0,0,1-1.367,0Zm.18,1.835h.983v5.829h-.983Z" transform="translate(-7.718 -9.487)"/><path class="cls-6" d="M96.755,319.068a2.618,2.618,0,0,0,1.715.7c.768,0,1.151-.407,1.151-.911,0-.6-.7-.863-1.331-1.1-.828-.3-1.739-.7-1.739-1.679,0-.936.744-1.655,2-1.655a2.911,2.911,0,0,1,1.811.659l-.468.624a2.164,2.164,0,0,0-1.331-.516c-.732,0-1.067.4-1.067.84,0,.552.636.755,1.295,1.007.84.313,1.775.66,1.775,1.764,0,.947-.756,1.738-2.135,1.738a3.512,3.512,0,0,1-2.171-.8Z" transform="translate(-7.718 -9.487)"/><path class="cls-6" d="M104.313,314.415a2.406,2.406,0,0,1,1.7.7l-.492.636a1.761,1.761,0,0,0-1.175-.516c-1.055,0-1.823.911-1.823,2.255s.731,2.23,1.8,2.23a2.075,2.075,0,0,0,1.367-.588l.444.648a2.885,2.885,0,0,1-1.9.755,2.737,2.737,0,0,1-2.734-3.046A2.823,2.823,0,0,1,104.313,314.415Z" transform="translate(-7.718 -9.487)"/><path class="cls-6" d="M107.411,314.559h.815l.084,1.056h.036a1.994,1.994,0,0,1,1.655-1.2,1.448,1.448,0,0,1,.624.12l-.192.863a1.641,1.641,0,0,0-.564-.1c-.492,0-1.079.359-1.475,1.343v3.742h-.983Z" transform="translate(-7.718 -9.487)"/><path class="cls-6" d="M113.638,314.415c1.487,0,2.327,1.067,2.327,2.734a3.489,3.489,0,0,1-.036.54h-3.934a1.94,1.94,0,0,0,1.943,2.051,2.632,2.632,0,0,0,1.451-.456l.348.647a3.469,3.469,0,0,1-1.919.6,3.083,3.083,0,0,1-.18-6.116Zm1.463,2.627c0-1.187-.528-1.848-1.439-1.848a1.819,1.819,0,0,0-1.679,1.848Z" transform="translate(-7.718 -9.487)"/><path class="cls-6" d="M117.418,315.362h-.864v-.743l.912-.061.12-1.631h.828v1.631h1.571v.8h-1.571V318.6c0,.72.228,1.128.9,1.128a2.112,2.112,0,0,0,.66-.156l.192.743a3.584,3.584,0,0,1-1.08.216c-1.247,0-1.667-.791-1.667-1.942Z" transform="translate(-7.718 -9.487)"/><path class="cls-6" d="M121.127,312.724a.685.685,0,0,1,1.367,0,.685.685,0,0,1-1.367,0Zm.18,1.835h.983v5.829h-.983Z" transform="translate(-7.718 -9.487)"/><path class="cls-6" d="M126.525,314.415a3.082,3.082,0,1,1-2.7,3.07A2.785,2.785,0,0,1,126.525,314.415Zm0,5.3c1.008,0,1.679-.9,1.679-2.23s-.671-2.255-1.679-2.255-1.679.911-1.679,2.255S125.53,319.716,126.525,319.716Z" transform="translate(-7.718 -9.487)"/><path class="cls-6" d="M130.762,314.559h.815l.084.84h.036a2.747,2.747,0,0,1,1.955-.983c1.223,0,1.775.792,1.775,2.278v3.694h-.983v-3.562c0-1.091-.336-1.559-1.1-1.559-.6,0-1.007.312-1.6.9v4.222h-.983Z" transform="translate(-7.718 -9.487)"/><line class="cls-13" x1="281.5" y1="95.325" x2="281.5" y2="193.075"/><line class="cls-13" x1="97.5" y1="96.05" x2="97.5" y2="128.8"/><line class="cls-13" x1="154.888" y1="201.179" x2="206.67" y2="219.971"/></svg>