<svg id="Layer_1" data-name="Layer 1" xmlns="http://www.w3.org/2000/svg" viewBox="0 0 333.125 175.552"><defs><style>.cls-1,.cls-10,.cls-4,.cls-7{fill:none;}.cls-1,.cls-2{stroke:#89c64d;}.cls-2{fill:#89c64d;}.cls-10,.cls-2{stroke-miterlimit:10;}.cls-3{fill:#231f20;}.cls-4,.cls-6{stroke:#25408f;}.cls-5,.cls-6{fill:#25408f;}.cls-7{stroke:#b12229;}.cls-8{fill:#b12229;}.cls-9{fill:#d2232a;stroke:#d2232a;}.cls-10{stroke:#231f20;}</style></defs><title>The_Resources_of_Estate_Planning</title><rect class="cls-1" x="30.537" y="21.638" width="272.047" height="32.604"/><rect class="cls-2" x="30.537" y="12.848" width="272.047" height="8.79"/><path class="cls-3" d="M55.735,49.884l3.954-10.3h1.468l4.214,10.3H63.819l-1.2-3.119H58.313l-1.131,3.119Zm2.971-4.228H62.2L61.122,42.8q-.492-1.3-.73-2.135a13.143,13.143,0,0,1-.555,1.966Z" transform="translate(-4.413 -7.948)"/><path class="cls-3" d="M66.3,52.743V42.425H67.45v.969a2.841,2.841,0,0,1,.92-.854,2.53,2.53,0,0,1,1.243-.284,2.944,2.944,0,0,1,1.686.492,3.018,3.018,0,0,1,1.1,1.387,5.068,5.068,0,0,1,.372,1.963,4.988,4.988,0,0,1-.411,2.062,3.1,3.1,0,0,1-1.194,1.4,3.066,3.066,0,0,1-1.647.488,2.382,2.382,0,0,1-1.134-.267,2.586,2.586,0,0,1-.825-.674v3.631ZM67.443,46.2a3.245,3.245,0,0,0,.583,2.128,1.787,1.787,0,0,0,1.412.688,1.827,1.827,0,0,0,1.443-.713,3.382,3.382,0,0,0,.6-2.209,3.294,3.294,0,0,0-.586-2.135,1.764,1.764,0,0,0-1.4-.709A1.819,1.819,0,0,0,68.065,44,3.378,3.378,0,0,0,67.443,46.2Z" transform="translate(-4.413 -7.948)"/><path class="cls-3" d="M74.3,52.743V42.425H75.45v.969a2.841,2.841,0,0,1,.92-.854,2.53,2.53,0,0,1,1.243-.284,2.944,2.944,0,0,1,1.686.492,3.018,3.018,0,0,1,1.1,1.387,5.068,5.068,0,0,1,.372,1.963,4.988,4.988,0,0,1-.411,2.062,3.1,3.1,0,0,1-1.194,1.4,3.066,3.066,0,0,1-1.647.488,2.382,2.382,0,0,1-1.134-.267,2.586,2.586,0,0,1-.825-.674v3.631ZM75.443,46.2a3.245,3.245,0,0,0,.583,2.128,1.787,1.787,0,0,0,1.412.688,1.827,1.827,0,0,0,1.443-.713,3.382,3.382,0,0,0,.6-2.209,3.294,3.294,0,0,0-.586-2.135,1.764,1.764,0,0,0-1.4-.709A1.819,1.819,0,0,0,76.065,44,3.378,3.378,0,0,0,75.443,46.2Z" transform="translate(-4.413 -7.948)"/><path class="cls-3" d="M82.27,49.884v-10.3h1.265v10.3Z" transform="translate(-4.413 -7.948)"/><path class="cls-3" d="M85.5,41.042V39.588h1.264v1.454Zm0,8.843V42.425h1.264v7.459Z" transform="translate(-4.413 -7.948)"/><path class="cls-3" d="M93.557,47.152l1.243.161a3.223,3.223,0,0,1-1.043,2.012,3.037,3.037,0,0,1-2.062.727,3.2,3.2,0,0,1-2.461-1,4.059,4.059,0,0,1-.931-2.869,5.188,5.188,0,0,1,.4-2.114,2.792,2.792,0,0,1,1.218-1.359,3.619,3.619,0,0,1,1.781-.453,3.094,3.094,0,0,1,1.987.614,2.821,2.821,0,0,1,.991,1.746l-1.229.189a2.039,2.039,0,0,0-.622-1.131,1.608,1.608,0,0,0-1.078-.379,1.962,1.962,0,0,0-1.552.685,3.251,3.251,0,0,0-.6,2.167,3.361,3.361,0,0,0,.576,2.184,1.875,1.875,0,0,0,1.5.681,1.77,1.77,0,0,0,1.243-.457A2.266,2.266,0,0,0,93.557,47.152Z" transform="translate(-4.413 -7.948)"/><path class="cls-3" d="M100.749,48.964a4.713,4.713,0,0,1-1.352.843A3.914,3.914,0,0,1,98,50.053a2.711,2.711,0,0,1-1.889-.6,1.981,1.981,0,0,1-.661-1.535,2.08,2.08,0,0,1,.9-1.728,3.07,3.07,0,0,1,.91-.415,9.088,9.088,0,0,1,1.124-.189,11.539,11.539,0,0,0,2.254-.436q.007-.26.007-.33a1.4,1.4,0,0,0-.358-1.089,2.118,2.118,0,0,0-1.44-.428,2.231,2.231,0,0,0-1.317.313,1.91,1.91,0,0,0-.628,1.106l-1.236-.169a3.062,3.062,0,0,1,.555-1.282,2.432,2.432,0,0,1,1.117-.751,4.976,4.976,0,0,1,1.692-.263,4.479,4.479,0,0,1,1.552.225,2.045,2.045,0,0,1,.878.565,1.988,1.988,0,0,1,.394.86,7.143,7.143,0,0,1,.063,1.166v1.686a17.8,17.8,0,0,0,.081,2.23,2.809,2.809,0,0,0,.319.9H101A2.678,2.678,0,0,1,100.749,48.964Zm-.105-2.824a9.249,9.249,0,0,1-2.065.478,4.785,4.785,0,0,0-1.1.253,1.1,1.1,0,0,0-.5.411,1.117,1.117,0,0,0,.207,1.443,1.648,1.648,0,0,0,1.12.337,2.61,2.61,0,0,0,1.3-.319,1.971,1.971,0,0,0,.835-.875,3.055,3.055,0,0,0,.2-1.264Z" transform="translate(-4.413 -7.948)"/><path class="cls-3" d="M106.642,48.753l.183,1.117a4.67,4.67,0,0,1-.955.112,2.16,2.16,0,0,1-1.068-.218,1.218,1.218,0,0,1-.534-.572,4.528,4.528,0,0,1-.154-1.493V43.409h-.927v-.983h.927V40.578l1.257-.759v2.606h1.271v.983H105.37V47.77a2.2,2.2,0,0,0,.067.7.528.528,0,0,0,.218.246.839.839,0,0,0,.432.091A4.13,4.13,0,0,0,106.642,48.753Z" transform="translate(-4.413 -7.948)"/><path class="cls-3" d="M107.885,41.042V39.588h1.264v1.454Zm0,8.843V42.425h1.264v7.459Z" transform="translate(-4.413 -7.948)"/><path class="cls-3" d="M110.6,46.155a3.844,3.844,0,0,1,1.152-3.069,3.472,3.472,0,0,1,2.346-.829,3.346,3.346,0,0,1,2.514,1.008,3.834,3.834,0,0,1,.976,2.785,4.934,4.934,0,0,1-.432,2.265A3.056,3.056,0,0,1,115.9,49.6a3.662,3.662,0,0,1-1.8.457,3.351,3.351,0,0,1-2.532-1A4.01,4.01,0,0,1,110.6,46.155Zm1.3,0a3.178,3.178,0,0,0,.625,2.146,2.082,2.082,0,0,0,3.14,0,3.25,3.25,0,0,0,.625-2.184,3.083,3.083,0,0,0-.628-2.1,2.084,2.084,0,0,0-3.136,0A3.163,3.163,0,0,0,111.9,46.155Z" transform="translate(-4.413 -7.948)"/><path class="cls-3" d="M119.073,49.884V42.425h1.138v1.061a2.682,2.682,0,0,1,2.374-1.229,3.113,3.113,0,0,1,1.24.242,1.951,1.951,0,0,1,.846.636,2.439,2.439,0,0,1,.394.934,7.279,7.279,0,0,1,.07,1.229v4.586H123.87V45.347a3.4,3.4,0,0,0-.147-1.155,1.214,1.214,0,0,0-.523-.611,1.668,1.668,0,0,0-.882-.228,2.049,2.049,0,0,0-1.394.513,2.528,2.528,0,0,0-.586,1.945v4.074Z" transform="translate(-4.413 -7.948)"/><path class="cls-3" d="M138.578,46.274l1.362.344a4.585,4.585,0,0,1-1.542,2.56,4.247,4.247,0,0,1-2.722.882,4.892,4.892,0,0,1-2.708-.678,4.234,4.234,0,0,1-1.587-1.963,7.006,7.006,0,0,1-.544-2.76,6.067,6.067,0,0,1,.615-2.806,4.211,4.211,0,0,1,1.749-1.819,5.107,5.107,0,0,1,2.5-.622,4.22,4.22,0,0,1,2.6.787,4.086,4.086,0,0,1,1.468,2.212l-1.342.316a3.182,3.182,0,0,0-1.04-1.636,2.769,2.769,0,0,0-1.713-.513,3.328,3.328,0,0,0-1.984.569,3.006,3.006,0,0,0-1.12,1.528,6.15,6.15,0,0,0-.323,1.977,6.279,6.279,0,0,0,.383,2.293,2.85,2.85,0,0,0,1.19,1.464,3.338,3.338,0,0,0,1.749.485,2.932,2.932,0,0,0,1.938-.66A3.382,3.382,0,0,0,138.578,46.274Z" transform="translate(-4.413 -7.948)"/><path class="cls-3" d="M141.443,49.884V42.425h1.138v1.131a3.087,3.087,0,0,1,.8-1.046,1.4,1.4,0,0,1,.812-.253,2.468,2.468,0,0,1,1.3.407l-.436,1.173a1.809,1.809,0,0,0-.927-.274,1.2,1.2,0,0,0-.744.25,1.35,1.35,0,0,0-.471.692,4.916,4.916,0,0,0-.211,1.475v3.905Z" transform="translate(-4.413 -7.948)"/><path class="cls-3" d="M151.354,47.482l1.307.161a3.188,3.188,0,0,1-1.145,1.777,3.879,3.879,0,0,1-4.73-.376,3.938,3.938,0,0,1-.958-2.827A4.12,4.12,0,0,1,146.8,43.3a3.279,3.279,0,0,1,2.514-1.04,3.189,3.189,0,0,1,2.444,1.018,4.046,4.046,0,0,1,.948,2.866q0,.113-.007.337h-5.563a2.868,2.868,0,0,0,.7,1.882,2.071,2.071,0,0,0,1.56.653,1.935,1.935,0,0,0,1.187-.365A2.422,2.422,0,0,0,151.354,47.482ZM147.2,45.438h4.165a2.526,2.526,0,0,0-.478-1.412,1.937,1.937,0,0,0-1.566-.73,2.01,2.01,0,0,0-1.464.583A2.309,2.309,0,0,0,147.2,45.438Z" transform="translate(-4.413 -7.948)"/><path class="cls-3" d="M159.087,49.884v-.941A2.32,2.32,0,0,1,157,50.053a2.926,2.926,0,0,1-1.64-.492,3.232,3.232,0,0,1-1.159-1.373,4.745,4.745,0,0,1-.411-2.026,5.308,5.308,0,0,1,.372-2.026,2.939,2.939,0,0,1,1.117-1.394,2.989,2.989,0,0,1,1.665-.484,2.489,2.489,0,0,1,1.2.284,2.519,2.519,0,0,1,.857.741V39.588h1.257v10.3Zm-4-3.723a3.239,3.239,0,0,0,.6,2.143,1.822,1.822,0,0,0,1.426.709,1.787,1.787,0,0,0,1.408-.678,3.124,3.124,0,0,0,.58-2.068,3.51,3.51,0,0,0-.59-2.248,1.816,1.816,0,0,0-1.454-.716,1.751,1.751,0,0,0-1.408.688A3.4,3.4,0,0,0,155.09,46.162Z" transform="translate(-4.413 -7.948)"/><path class="cls-3" d="M162.254,41.042V39.588h1.264v1.454Zm0,8.843V42.425h1.264v7.459Z" transform="translate(-4.413 -7.948)"/><path class="cls-3" d="M168.2,48.753l.183,1.117a4.67,4.67,0,0,1-.955.112,2.16,2.16,0,0,1-1.068-.218,1.218,1.218,0,0,1-.534-.572,4.528,4.528,0,0,1-.154-1.493V43.409h-.927v-.983h.927V40.578l1.257-.759v2.606H168.2v.983h-1.271V47.77a2.2,2.2,0,0,0,.067.7.528.528,0,0,0,.218.246.839.839,0,0,0,.432.091A4.13,4.13,0,0,0,168.2,48.753Z" transform="translate(-4.413 -7.948)"/><path class="cls-3" d="M168.491,50.06l2.985-10.648h1.012L169.51,50.06Z" transform="translate(-4.413 -7.948)"/><path class="cls-3" d="M173.625,49.884v-10.3h7.445V40.8h-6.083v3.154h5.7v1.208h-5.7v3.5h6.321v1.215Z" transform="translate(-4.413 -7.948)"/><path class="cls-3" d="M182.187,49.884l2.725-3.877-2.521-3.582h1.58l1.145,1.749q.323.5.52.835.309-.464.569-.822l1.257-1.763h1.51l-2.578,3.512,2.774,3.947h-1.552l-1.531-2.318-.407-.625-1.959,2.943Z" transform="translate(-4.413 -7.948)"/><path class="cls-3" d="M195.089,47.152l1.243.161a3.223,3.223,0,0,1-1.043,2.012,3.037,3.037,0,0,1-2.062.727,3.2,3.2,0,0,1-2.461-1,4.059,4.059,0,0,1-.931-2.869,5.188,5.188,0,0,1,.4-2.114,2.792,2.792,0,0,1,1.218-1.359,3.619,3.619,0,0,1,1.781-.453,3.094,3.094,0,0,1,1.987.614,2.821,2.821,0,0,1,.991,1.746l-1.229.189a2.039,2.039,0,0,0-.622-1.131,1.608,1.608,0,0,0-1.078-.379,1.962,1.962,0,0,0-1.552.685,3.251,3.251,0,0,0-.6,2.167,3.361,3.361,0,0,0,.576,2.184,1.875,1.875,0,0,0,1.5.681,1.77,1.77,0,0,0,1.243-.457A2.266,2.266,0,0,0,195.089,47.152Z" transform="translate(-4.413 -7.948)"/><path class="cls-3" d="M197.386,49.884v-10.3h1.265v10.3Z" transform="translate(-4.413 -7.948)"/><path class="cls-3" d="M205.5,49.884v-1.1a2.73,2.73,0,0,1-2.367,1.264A3.011,3.011,0,0,1,201.9,49.8a2.033,2.033,0,0,1-.85-.635,2.379,2.379,0,0,1-.39-.938,6.384,6.384,0,0,1-.078-1.18V42.425h1.265v4.137a7.348,7.348,0,0,0,.077,1.334,1.318,1.318,0,0,0,.505.783,1.57,1.57,0,0,0,.956.285,2.081,2.081,0,0,0,1.067-.292,1.621,1.621,0,0,0,.706-.794,3.989,3.989,0,0,0,.207-1.457v-4h1.264v7.459Z" transform="translate(-4.413 -7.948)"/><path class="cls-3" d="M208.1,47.658l1.25-.2a1.744,1.744,0,0,0,.586,1.152,2.042,2.042,0,0,0,1.345.4,1.977,1.977,0,0,0,1.292-.354,1.061,1.061,0,0,0,.421-.833.767.767,0,0,0-.372-.674,5.464,5.464,0,0,0-1.292-.429,11.78,11.78,0,0,1-1.928-.607,1.84,1.84,0,0,1-1.092-1.71,1.918,1.918,0,0,1,.228-.923,2.052,2.052,0,0,1,.622-.706,2.61,2.61,0,0,1,.8-.369,3.827,3.827,0,0,1,1.092-.151,4.307,4.307,0,0,1,1.542.253,2.1,2.1,0,0,1,.98.685,2.681,2.681,0,0,1,.436,1.155l-1.236.168a1.351,1.351,0,0,0-.488-.9,1.785,1.785,0,0,0-1.141-.323,2.068,2.068,0,0,0-1.243.288.839.839,0,0,0-.372.674.7.7,0,0,0,.154.442,1.111,1.111,0,0,0,.485.337q.189.07,1.117.323a15.522,15.522,0,0,1,1.872.586,1.9,1.9,0,0,1,.833.664,1.854,1.854,0,0,1,.3,1.082,2.124,2.124,0,0,1-.369,1.19,2.384,2.384,0,0,1-1.064.864,3.876,3.876,0,0,1-1.573.305,3.506,3.506,0,0,1-2.216-.6A2.809,2.809,0,0,1,208.1,47.658Z" transform="translate(-4.413 -7.948)"/><path class="cls-3" d="M215.809,41.042V39.588h1.264v1.454Zm0,8.843V42.425h1.264v7.459Z" transform="translate(-4.413 -7.948)"/><path class="cls-3" d="M218.527,46.155a3.844,3.844,0,0,1,1.152-3.069,3.472,3.472,0,0,1,2.346-.829,3.346,3.346,0,0,1,2.514,1.008,3.834,3.834,0,0,1,.976,2.785,4.934,4.934,0,0,1-.432,2.265,3.056,3.056,0,0,1-1.257,1.282,3.662,3.662,0,0,1-1.8.457,3.351,3.351,0,0,1-2.532-1A4.01,4.01,0,0,1,218.527,46.155Zm1.3,0a3.178,3.178,0,0,0,.625,2.146,2.082,2.082,0,0,0,3.14,0,3.25,3.25,0,0,0,.625-2.184,3.083,3.083,0,0,0-.628-2.1,2.084,2.084,0,0,0-3.136,0A3.163,3.163,0,0,0,219.826,46.155Z" transform="translate(-4.413 -7.948)"/><path class="cls-3" d="M227,49.884V42.425h1.138v1.061a2.682,2.682,0,0,1,2.374-1.229,3.113,3.113,0,0,1,1.24.242,1.951,1.951,0,0,1,.846.636,2.439,2.439,0,0,1,.394.934,7.279,7.279,0,0,1,.07,1.229v4.586h-1.265V45.347a3.4,3.4,0,0,0-.147-1.155,1.214,1.214,0,0,0-.523-.611,1.668,1.668,0,0,0-.882-.228,2.049,2.049,0,0,0-1.394.513,2.528,2.528,0,0,0-.586,1.945v4.074Z" transform="translate(-4.413 -7.948)"/><path class="cls-3" d="M238.024,49.884l3.954-10.3h1.468l4.214,10.3h-1.552l-1.2-3.119H240.6l-1.131,3.119ZM241,45.656h3.491L243.412,42.8q-.492-1.3-.73-2.135a13.143,13.143,0,0,1-.555,1.966Z" transform="translate(-4.413 -7.948)"/><path class="cls-3" d="M248.588,49.884V42.425h1.131v1.046a2.658,2.658,0,0,1,.934-.881,2.627,2.627,0,0,1,1.328-.333,2.453,2.453,0,0,1,1.358.344,1.836,1.836,0,0,1,.748.962,2.679,2.679,0,0,1,2.3-1.306,2.27,2.27,0,0,1,1.707.614,2.626,2.626,0,0,1,.6,1.893v5.12h-1.257v-4.7a3.457,3.457,0,0,0-.123-1.092,1.057,1.057,0,0,0-.446-.537,1.389,1.389,0,0,0-.758-.2,1.767,1.767,0,0,0-1.307.523,2.3,2.3,0,0,0-.52,1.675v4.333H253.02V45.038a2.131,2.131,0,0,0-.309-1.264,1.171,1.171,0,0,0-1.012-.421,1.841,1.841,0,0,0-.987.281,1.6,1.6,0,0,0-.657.822,4.626,4.626,0,0,0-.2,1.559v3.87Z" transform="translate(-4.413 -7.948)"/><path class="cls-3" d="M260.1,46.155a3.843,3.843,0,0,1,1.152-3.069,3.469,3.469,0,0,1,2.346-.829,3.348,3.348,0,0,1,2.515,1.008,3.836,3.836,0,0,1,.976,2.785,4.934,4.934,0,0,1-.432,2.265A3.058,3.058,0,0,1,265.4,49.6a3.666,3.666,0,0,1-1.8.457,3.351,3.351,0,0,1-2.532-1A4.012,4.012,0,0,1,260.1,46.155Zm1.3,0a3.175,3.175,0,0,0,.625,2.146,2.082,2.082,0,0,0,3.14,0,3.256,3.256,0,0,0,.625-2.184,3.083,3.083,0,0,0-.629-2.1,2.084,2.084,0,0,0-3.136,0A3.161,3.161,0,0,0,261.4,46.155Z" transform="translate(-4.413 -7.948)"/><path class="cls-3" d="M273.459,49.884v-1.1a2.731,2.731,0,0,1-2.367,1.264,3.006,3.006,0,0,1-1.232-.253,2.036,2.036,0,0,1-.851-.635,2.393,2.393,0,0,1-.39-.938,6.394,6.394,0,0,1-.077-1.18V42.425h1.265v4.137a7.348,7.348,0,0,0,.077,1.334,1.315,1.315,0,0,0,.506.783,1.565,1.565,0,0,0,.955.285,2.08,2.08,0,0,0,1.067-.292,1.626,1.626,0,0,0,.706-.794,3.989,3.989,0,0,0,.207-1.457v-4h1.265v7.459Z" transform="translate(-4.413 -7.948)"/><path class="cls-3" d="M276.57,49.884V42.425h1.138v1.061a2.681,2.681,0,0,1,2.374-1.229,3.112,3.112,0,0,1,1.239.242,1.953,1.953,0,0,1,.847.636,2.439,2.439,0,0,1,.394.934,7.227,7.227,0,0,1,.07,1.229v4.586h-1.265V45.347a3.4,3.4,0,0,0-.147-1.155,1.215,1.215,0,0,0-.523-.611,1.664,1.664,0,0,0-.881-.228,2.048,2.048,0,0,0-1.395.513,2.53,2.53,0,0,0-.586,1.945v4.074Z" transform="translate(-4.413 -7.948)"/><path class="cls-3" d="M287.329,48.753l.183,1.117a4.663,4.663,0,0,1-.955.112,2.158,2.158,0,0,1-1.067-.218,1.215,1.215,0,0,1-.533-.572A4.505,4.505,0,0,1,284.8,47.7V43.409h-.927v-.983h.927V40.578l1.258-.759v2.606h1.271v.983h-1.271V47.77a2.189,2.189,0,0,0,.066.7.531.531,0,0,0,.218.246.837.837,0,0,0,.432.091A4.124,4.124,0,0,0,287.329,48.753Z" transform="translate(-4.413 -7.948)"/><rect class="cls-4" x="30.537" y="75.499" width="272.047" height="32.604"/><rect class="cls-5" x="48.917" y="66.709" width="201.38" height="8.79"/><rect class="cls-6" x="30.537" y="66.709" width="272.047" height="8.79"/><path class="cls-3" d="M100.16,103.746V93.45H107.6v1.215h-6.083v3.154h5.7v1.208h-5.7v3.5h6.321v1.215Z" transform="translate(-4.413 -7.948)"/><path class="cls-3" d="M109.059,101.52l1.25-.2a1.744,1.744,0,0,0,.586,1.152,2.042,2.042,0,0,0,1.345.4,1.977,1.977,0,0,0,1.292-.354,1.061,1.061,0,0,0,.421-.833.767.767,0,0,0-.372-.674,5.464,5.464,0,0,0-1.292-.429,11.78,11.78,0,0,1-1.928-.607,1.84,1.84,0,0,1-1.092-1.71,1.918,1.918,0,0,1,.228-.923,2.052,2.052,0,0,1,.622-.706,2.61,2.61,0,0,1,.8-.369,3.827,3.827,0,0,1,1.092-.151,4.307,4.307,0,0,1,1.542.253,2.1,2.1,0,0,1,.98.685,2.681,2.681,0,0,1,.436,1.155l-1.236.168a1.351,1.351,0,0,0-.488-.9,1.785,1.785,0,0,0-1.141-.323,2.068,2.068,0,0,0-1.243.288.839.839,0,0,0-.372.674.7.7,0,0,0,.154.442,1.111,1.111,0,0,0,.485.337q.189.07,1.117.323a15.522,15.522,0,0,1,1.872.586,1.9,1.9,0,0,1,.833.664,1.854,1.854,0,0,1,.3,1.082,2.124,2.124,0,0,1-.369,1.19,2.384,2.384,0,0,1-1.064.864,3.876,3.876,0,0,1-1.573.305,3.506,3.506,0,0,1-2.216-.6A2.809,2.809,0,0,1,109.059,101.52Z" transform="translate(-4.413 -7.948)"/><path class="cls-3" d="M119.517,102.615l.183,1.117a4.67,4.67,0,0,1-.955.112,2.16,2.16,0,0,1-1.068-.218,1.218,1.218,0,0,1-.534-.572,4.528,4.528,0,0,1-.154-1.493V97.271h-.927v-.983h.927V94.44l1.257-.759v2.606h1.271v.983h-1.271v4.361a2.2,2.2,0,0,0,.067.7.528.528,0,0,0,.218.246.839.839,0,0,0,.432.091A4.13,4.13,0,0,0,119.517,102.615Z" transform="translate(-4.413 -7.948)"/><path class="cls-3" d="M125.62,102.826a4.713,4.713,0,0,1-1.352.843,3.914,3.914,0,0,1-1.394.246,2.711,2.711,0,0,1-1.889-.6,1.981,1.981,0,0,1-.661-1.535,2.08,2.08,0,0,1,.9-1.728,3.07,3.07,0,0,1,.91-.415,9.088,9.088,0,0,1,1.124-.189,11.539,11.539,0,0,0,2.254-.436q.007-.26.007-.33a1.4,1.4,0,0,0-.358-1.089,2.118,2.118,0,0,0-1.44-.428,2.231,2.231,0,0,0-1.317.313,1.91,1.91,0,0,0-.628,1.106l-1.236-.169a3.062,3.062,0,0,1,.555-1.282,2.432,2.432,0,0,1,1.117-.751,4.976,4.976,0,0,1,1.692-.263,4.479,4.479,0,0,1,1.552.225,2.045,2.045,0,0,1,.878.565,1.988,1.988,0,0,1,.394.86,7.143,7.143,0,0,1,.063,1.166v1.686a17.8,17.8,0,0,0,.081,2.23,2.809,2.809,0,0,0,.319.9h-1.32A2.678,2.678,0,0,1,125.62,102.826ZM125.515,100a9.249,9.249,0,0,1-2.065.478,4.785,4.785,0,0,0-1.1.253,1.1,1.1,0,0,0-.5.411,1.117,1.117,0,0,0,.207,1.443,1.648,1.648,0,0,0,1.12.337,2.61,2.61,0,0,0,1.3-.319,1.971,1.971,0,0,0,.835-.875,3.055,3.055,0,0,0,.2-1.264Z" transform="translate(-4.413 -7.948)"/><path class="cls-3" d="M131.513,102.615l.183,1.117a4.67,4.67,0,0,1-.955.112,2.16,2.16,0,0,1-1.068-.218,1.218,1.218,0,0,1-.534-.572,4.528,4.528,0,0,1-.154-1.493V97.271h-.927v-.983h.927V94.44l1.257-.759v2.606h1.271v.983h-1.271v4.361a2.2,2.2,0,0,0,.067.7.528.528,0,0,0,.218.246.839.839,0,0,0,.432.091A4.13,4.13,0,0,0,131.513,102.615Z" transform="translate(-4.413 -7.948)"/><path class="cls-3" d="M137.855,101.344l1.307.161a3.188,3.188,0,0,1-1.145,1.777,3.879,3.879,0,0,1-4.73-.376,3.938,3.938,0,0,1-.958-2.827,4.12,4.12,0,0,1,.969-2.921,3.279,3.279,0,0,1,2.514-1.04,3.189,3.189,0,0,1,2.444,1.018A4.046,4.046,0,0,1,139.2,100q0,.113-.007.337h-5.563a2.868,2.868,0,0,0,.7,1.882,2.071,2.071,0,0,0,1.56.653,1.935,1.935,0,0,0,1.187-.365A2.422,2.422,0,0,0,137.855,101.344ZM133.7,99.3h4.165a2.526,2.526,0,0,0-.478-1.412,1.937,1.937,0,0,0-1.566-.73,2.01,2.01,0,0,0-1.464.583A2.309,2.309,0,0,0,133.7,99.3Z" transform="translate(-4.413 -7.948)"/><path class="cls-3" d="M147.527,103.746V94.665h-3.393V93.45H152.3v1.215H148.89v9.082Z" transform="translate(-4.413 -7.948)"/><path class="cls-3" d="M158.4,102.826a4.713,4.713,0,0,1-1.352.843,3.914,3.914,0,0,1-1.394.246,2.711,2.711,0,0,1-1.889-.6,1.981,1.981,0,0,1-.661-1.535,2.08,2.08,0,0,1,.9-1.728,3.07,3.07,0,0,1,.91-.415,9.088,9.088,0,0,1,1.124-.189,11.539,11.539,0,0,0,2.254-.436q.007-.26.007-.33a1.4,1.4,0,0,0-.358-1.089,2.118,2.118,0,0,0-1.44-.428,2.231,2.231,0,0,0-1.317.313,1.91,1.91,0,0,0-.628,1.106l-1.236-.169a3.062,3.062,0,0,1,.555-1.282,2.432,2.432,0,0,1,1.117-.751,4.976,4.976,0,0,1,1.692-.263,4.479,4.479,0,0,1,1.552.225,2.045,2.045,0,0,1,.878.565,1.988,1.988,0,0,1,.394.86,7.143,7.143,0,0,1,.063,1.166v1.686a17.8,17.8,0,0,0,.081,2.23,2.809,2.809,0,0,0,.319.9h-1.32A2.678,2.678,0,0,1,158.4,102.826ZM158.293,100a9.249,9.249,0,0,1-2.065.478,4.785,4.785,0,0,0-1.1.253,1.1,1.1,0,0,0-.5.411,1.117,1.117,0,0,0,.207,1.443,1.648,1.648,0,0,0,1.12.337,2.61,2.61,0,0,0,1.3-.319,1.971,1.971,0,0,0,.835-.875,3.055,3.055,0,0,0,.2-1.264Z" transform="translate(-4.413 -7.948)"/><path class="cls-3" d="M160.689,103.746l2.725-3.877-2.521-3.582h1.58l1.145,1.749q.323.5.52.835.309-.464.569-.822l1.257-1.763h1.51L164.9,99.8l2.774,3.947h-1.552l-1.531-2.318-.407-.625-1.959,2.943Z" transform="translate(-4.413 -7.948)"/><path class="cls-3" d="M172.882,103.746V93.45h3.547a8.582,8.582,0,0,1,1.833.147,3.489,3.489,0,0,1,1.51.737,4.19,4.19,0,0,1,1.218,1.759,6.9,6.9,0,0,1,.4,2.448,7.191,7.191,0,0,1-.274,2.079,5.042,5.042,0,0,1-.7,1.5,3.726,3.726,0,0,1-.937.934,3.82,3.82,0,0,1-1.229.516,7.007,7.007,0,0,1-1.654.176Zm1.362-1.215h2.2a5.331,5.331,0,0,0,1.6-.19,2.287,2.287,0,0,0,.924-.534,3.252,3.252,0,0,0,.755-1.3,6.373,6.373,0,0,0,.271-1.984,4.793,4.793,0,0,0-.53-2.483,2.669,2.669,0,0,0-1.289-1.162,5.32,5.32,0,0,0-1.763-.211h-2.164Z" transform="translate(-4.413 -7.948)"/><path class="cls-3" d="M188.214,101.344l1.307.161a3.188,3.188,0,0,1-1.145,1.777,3.879,3.879,0,0,1-4.73-.376,3.938,3.938,0,0,1-.958-2.827,4.12,4.12,0,0,1,.969-2.921,3.279,3.279,0,0,1,2.514-1.04,3.189,3.189,0,0,1,2.444,1.018,4.046,4.046,0,0,1,.948,2.866q0,.113-.007.337h-5.563a2.868,2.868,0,0,0,.7,1.882,2.071,2.071,0,0,0,1.56.653,1.935,1.935,0,0,0,1.187-.365A2.422,2.422,0,0,0,188.214,101.344ZM184.063,99.3h4.165a2.526,2.526,0,0,0-.478-1.412,1.937,1.937,0,0,0-1.566-.73,2.01,2.01,0,0,0-1.464.583A2.309,2.309,0,0,0,184.063,99.3Z" transform="translate(-4.413 -7.948)"/><path class="cls-3" d="M195.947,103.746v-.941a2.32,2.32,0,0,1-2.086,1.109,2.926,2.926,0,0,1-1.64-.492,3.232,3.232,0,0,1-1.159-1.373,4.745,4.745,0,0,1-.411-2.026A5.308,5.308,0,0,1,191.023,98,2.939,2.939,0,0,1,192.14,96.6a2.989,2.989,0,0,1,1.665-.484,2.489,2.489,0,0,1,1.2.284,2.519,2.519,0,0,1,.857.741V93.45h1.257v10.3Zm-4-3.723a3.239,3.239,0,0,0,.6,2.143,1.822,1.822,0,0,0,1.426.709,1.787,1.787,0,0,0,1.408-.678,3.124,3.124,0,0,0,.58-2.068,3.51,3.51,0,0,0-.59-2.248,1.816,1.816,0,0,0-1.454-.716,1.751,1.751,0,0,0-1.408.688A3.4,3.4,0,0,0,191.951,100.023Z" transform="translate(-4.413 -7.948)"/><path class="cls-3" d="M204,103.746v-1.1a2.73,2.73,0,0,1-2.367,1.264,3.011,3.011,0,0,1-1.233-.253,2.033,2.033,0,0,1-.85-.635,2.379,2.379,0,0,1-.39-.938,6.384,6.384,0,0,1-.078-1.18V96.287h1.265v4.137a7.348,7.348,0,0,0,.077,1.334,1.318,1.318,0,0,0,.505.783,1.57,1.57,0,0,0,.956.285,2.081,2.081,0,0,0,1.067-.292,1.621,1.621,0,0,0,.706-.794,3.989,3.989,0,0,0,.207-1.457v-4h1.264v7.459Z" transform="translate(-4.413 -7.948)"/><path class="cls-3" d="M211.975,101.014l1.243.161a3.223,3.223,0,0,1-1.043,2.012,3.037,3.037,0,0,1-2.062.727,3.2,3.2,0,0,1-2.461-1,4.059,4.059,0,0,1-.931-2.869,5.188,5.188,0,0,1,.4-2.114,2.792,2.792,0,0,1,1.218-1.359,3.619,3.619,0,0,1,1.781-.453,3.094,3.094,0,0,1,1.987.614,2.821,2.821,0,0,1,.991,1.746l-1.229.189a2.039,2.039,0,0,0-.622-1.131,1.608,1.608,0,0,0-1.078-.379,1.962,1.962,0,0,0-1.552.685,3.251,3.251,0,0,0-.6,2.167,3.361,3.361,0,0,0,.576,2.184,1.875,1.875,0,0,0,1.5.681,1.77,1.77,0,0,0,1.243-.457A2.266,2.266,0,0,0,211.975,101.014Z" transform="translate(-4.413 -7.948)"/><path class="cls-3" d="M217.06,102.615l.183,1.117a4.67,4.67,0,0,1-.955.112,2.16,2.16,0,0,1-1.068-.218,1.218,1.218,0,0,1-.534-.572,4.528,4.528,0,0,1-.154-1.493V97.271H213.6v-.983h.927V94.44l1.257-.759v2.606h1.271v.983h-1.271v4.361a2.2,2.2,0,0,0,.067.7.528.528,0,0,0,.218.246.839.839,0,0,0,.432.091A4.13,4.13,0,0,0,217.06,102.615Z" transform="translate(-4.413 -7.948)"/><path class="cls-3" d="M218.3,94.9V93.45h1.264V94.9Zm0,8.843V96.287h1.264v7.459Z" transform="translate(-4.413 -7.948)"/><path class="cls-3" d="M221.021,100.017a3.844,3.844,0,0,1,1.152-3.069,3.472,3.472,0,0,1,2.346-.829,3.346,3.346,0,0,1,2.514,1.008,3.834,3.834,0,0,1,.976,2.785,4.934,4.934,0,0,1-.432,2.265,3.056,3.056,0,0,1-1.257,1.282,3.662,3.662,0,0,1-1.8.457,3.351,3.351,0,0,1-2.532-1A4.01,4.01,0,0,1,221.021,100.017Zm1.3,0a3.178,3.178,0,0,0,.625,2.146,2.082,2.082,0,0,0,3.14,0,3.25,3.25,0,0,0,.625-2.184,3.083,3.083,0,0,0-.628-2.1,2.084,2.084,0,0,0-3.136,0A3.163,3.163,0,0,0,222.321,100.017Z" transform="translate(-4.413 -7.948)"/><path class="cls-3" d="M229.492,103.746V96.287h1.138v1.061A2.682,2.682,0,0,1,233,96.119a3.113,3.113,0,0,1,1.24.242,1.951,1.951,0,0,1,.846.636,2.439,2.439,0,0,1,.394.934,7.279,7.279,0,0,1,.07,1.229v4.586h-1.265V99.209a3.4,3.4,0,0,0-.147-1.155,1.214,1.214,0,0,0-.523-.611,1.668,1.668,0,0,0-.882-.228,2.049,2.049,0,0,0-1.394.513,2.528,2.528,0,0,0-.586,1.945v4.074Z" transform="translate(-4.413 -7.948)"/><path class="cls-3" d="M236.986,101.52l1.25-.2a1.744,1.744,0,0,0,.586,1.152,2.042,2.042,0,0,0,1.345.4,1.977,1.977,0,0,0,1.292-.354,1.061,1.061,0,0,0,.421-.833.767.767,0,0,0-.372-.674,5.464,5.464,0,0,0-1.292-.429,11.78,11.78,0,0,1-1.928-.607,1.84,1.84,0,0,1-1.092-1.71,1.918,1.918,0,0,1,.228-.923,2.052,2.052,0,0,1,.622-.706,2.61,2.61,0,0,1,.8-.369,3.827,3.827,0,0,1,1.092-.151,4.307,4.307,0,0,1,1.542.253,2.1,2.1,0,0,1,.98.685,2.681,2.681,0,0,1,.436,1.155l-1.236.168a1.351,1.351,0,0,0-.488-.9,1.785,1.785,0,0,0-1.141-.323,2.068,2.068,0,0,0-1.243.288.839.839,0,0,0-.372.674.7.7,0,0,0,.154.442,1.111,1.111,0,0,0,.485.337q.189.07,1.117.323a15.522,15.522,0,0,1,1.872.586,1.9,1.9,0,0,1,.833.664,1.854,1.854,0,0,1,.3,1.082,2.124,2.124,0,0,1-.369,1.19,2.384,2.384,0,0,1-1.064.864,3.876,3.876,0,0,1-1.573.305,3.506,3.506,0,0,1-2.216-.6A2.809,2.809,0,0,1,236.986,101.52Z" transform="translate(-4.413 -7.948)"/><rect class="cls-7" x="30.537" y="129.361" width="272.047" height="32.604"/><rect class="cls-8" x="48.917" y="120.57" width="201.38" height="8.79"/><rect class="cls-9" x="30.537" y="120.57" width="272.047" height="8.79"/><path class="cls-3" d="M115.517,153.568V152.36l4.362-.007v3.821a7.714,7.714,0,0,1-2.072,1.2,6.151,6.151,0,0,1-2.191.4,5.846,5.846,0,0,1-2.757-.65,4.3,4.3,0,0,1-1.872-1.879,5.916,5.916,0,0,1-.632-2.746,6.376,6.376,0,0,1,.628-2.806,4.181,4.181,0,0,1,1.809-1.935,5.669,5.669,0,0,1,2.718-.632,5.382,5.382,0,0,1,2.019.362,3.348,3.348,0,0,1,1.416,1.008,4.475,4.475,0,0,1,.78,1.686l-1.229.337a3.811,3.811,0,0,0-.576-1.236,2.363,2.363,0,0,0-.983-.72,3.608,3.608,0,0,0-1.419-.271,4.18,4.18,0,0,0-1.615.284,3.016,3.016,0,0,0-1.1.748,3.574,3.574,0,0,0-.65,1.019,5.389,5.389,0,0,0-.393,2.072,5.021,5.021,0,0,0,.474,2.3,3.034,3.034,0,0,0,1.38,1.377,4.271,4.271,0,0,0,1.924.449,4.573,4.573,0,0,0,1.728-.34,4.464,4.464,0,0,0,1.278-.727v-1.917Z" transform="translate(-4.413 -7.948)"/><path class="cls-3" d="M121.732,148.764V147.31H123v1.454Zm0,8.843v-7.459H123v7.459Z" transform="translate(-4.413 -7.948)"/><path class="cls-3" d="M125.223,157.606v-6.476h-1.117v-.983h1.117v-.794a3.463,3.463,0,0,1,.134-1.117,1.615,1.615,0,0,1,.643-.8,2.316,2.316,0,0,1,1.289-.306,6.174,6.174,0,0,1,1.18.126l-.189,1.1a4.293,4.293,0,0,0-.745-.07,1.107,1.107,0,0,0-.815.246,1.333,1.333,0,0,0-.239.92v.688h1.454v.983H126.48v6.476Z" transform="translate(-4.413 -7.948)"/><path class="cls-3" d="M131.678,156.476l.183,1.117a4.67,4.67,0,0,1-.955.112,2.16,2.16,0,0,1-1.068-.218,1.218,1.218,0,0,1-.534-.572,4.528,4.528,0,0,1-.154-1.493v-4.291h-.927v-.983h.927V148.3l1.257-.759v2.606h1.271v.983h-1.271v4.361a2.2,2.2,0,0,0,.067.7.528.528,0,0,0,.218.246.839.839,0,0,0,.432.091A4.13,4.13,0,0,0,131.678,156.476Z" transform="translate(-4.413 -7.948)"/><path class="cls-3" d="M139.692,157.606v-9.082H136.3V147.31h8.162v1.215h-3.406v9.082Z" transform="translate(-4.413 -7.948)"/><path class="cls-3" d="M150.564,156.687a4.713,4.713,0,0,1-1.352.843,3.914,3.914,0,0,1-1.394.246,2.711,2.711,0,0,1-1.889-.6,1.981,1.981,0,0,1-.661-1.535,2.08,2.08,0,0,1,.9-1.728,3.07,3.07,0,0,1,.91-.415,9.088,9.088,0,0,1,1.124-.189,11.539,11.539,0,0,0,2.254-.436q.007-.26.007-.33a1.4,1.4,0,0,0-.358-1.089,2.118,2.118,0,0,0-1.44-.428,2.231,2.231,0,0,0-1.317.313,1.91,1.91,0,0,0-.628,1.106l-1.236-.169a3.062,3.062,0,0,1,.555-1.282,2.432,2.432,0,0,1,1.117-.751,4.976,4.976,0,0,1,1.692-.263,4.479,4.479,0,0,1,1.552.225,2.045,2.045,0,0,1,.878.565,1.988,1.988,0,0,1,.394.86,7.143,7.143,0,0,1,.063,1.166v1.686a17.8,17.8,0,0,0,.081,2.23,2.809,2.809,0,0,0,.319.9h-1.32A2.678,2.678,0,0,1,150.564,156.687Zm-.105-2.824a9.249,9.249,0,0,1-2.065.478,4.785,4.785,0,0,0-1.1.253,1.1,1.1,0,0,0-.5.411,1.117,1.117,0,0,0,.207,1.443,1.648,1.648,0,0,0,1.12.337,2.61,2.61,0,0,0,1.3-.319,1.971,1.971,0,0,0,.835-.875,3.055,3.055,0,0,0,.2-1.264Z" transform="translate(-4.413 -7.948)"/><path class="cls-3" d="M152.854,157.606l2.725-3.877-2.521-3.582h1.58l1.145,1.749q.323.5.52.835.309-.464.569-.822l1.257-1.763h1.51l-2.578,3.512,2.774,3.947h-1.552l-1.531-2.318-.407-.625-1.959,2.943Z" transform="translate(-4.413 -7.948)"/><path class="cls-3" d="M165.075,157.606v-10.3h7.445v1.215h-6.083v3.154h5.7v1.208h-5.7v3.5h6.321v1.215Z" transform="translate(-4.413 -7.948)"/><path class="cls-3" d="M173.637,157.606l2.725-3.877-2.521-3.582h1.58l1.145,1.749q.323.5.52.835.309-.464.569-.822l1.257-1.763h1.51l-2.578,3.512,2.774,3.947h-1.552l-1.531-2.318-.407-.625-1.959,2.943Z" transform="translate(-4.413 -7.948)"/><path class="cls-3" d="M186.539,154.875l1.243.161a3.223,3.223,0,0,1-1.043,2.012,3.037,3.037,0,0,1-2.062.727,3.2,3.2,0,0,1-2.461-1,4.059,4.059,0,0,1-.931-2.869,5.188,5.188,0,0,1,.4-2.114,2.792,2.792,0,0,1,1.218-1.359,3.619,3.619,0,0,1,1.781-.453,3.094,3.094,0,0,1,1.987.614,2.821,2.821,0,0,1,.991,1.746l-1.229.189a2.039,2.039,0,0,0-.622-1.131,1.608,1.608,0,0,0-1.078-.379,1.962,1.962,0,0,0-1.552.685,3.251,3.251,0,0,0-.6,2.167,3.361,3.361,0,0,0,.576,2.184,1.875,1.875,0,0,0,1.5.681,1.77,1.77,0,0,0,1.243-.457A2.266,2.266,0,0,0,186.539,154.875Z" transform="translate(-4.413 -7.948)"/><path class="cls-3" d="M188.835,157.606v-10.3H190.1v10.3Z" transform="translate(-4.413 -7.948)"/><path class="cls-3" d="M196.948,157.606v-1.1a2.73,2.73,0,0,1-2.367,1.264,3.011,3.011,0,0,1-1.233-.253,2.033,2.033,0,0,1-.85-.635,2.379,2.379,0,0,1-.39-.938,6.384,6.384,0,0,1-.078-1.18v-4.622H193.3v4.137a7.348,7.348,0,0,0,.077,1.334,1.318,1.318,0,0,0,.505.783,1.57,1.57,0,0,0,.956.285,2.081,2.081,0,0,0,1.067-.292,1.621,1.621,0,0,0,.706-.794,3.989,3.989,0,0,0,.207-1.457v-4h1.264v7.459Z" transform="translate(-4.413 -7.948)"/><path class="cls-3" d="M199.554,155.38l1.25-.2a1.744,1.744,0,0,0,.586,1.152,2.042,2.042,0,0,0,1.345.4,1.977,1.977,0,0,0,1.292-.354,1.061,1.061,0,0,0,.421-.833.767.767,0,0,0-.372-.674,5.464,5.464,0,0,0-1.292-.429,11.78,11.78,0,0,1-1.928-.607,1.84,1.84,0,0,1-1.092-1.71,1.918,1.918,0,0,1,.228-.923,2.052,2.052,0,0,1,.622-.706,2.61,2.61,0,0,1,.8-.369,3.827,3.827,0,0,1,1.092-.151,4.307,4.307,0,0,1,1.542.253,2.1,2.1,0,0,1,.98.685,2.681,2.681,0,0,1,.436,1.155l-1.236.168a1.351,1.351,0,0,0-.488-.9,1.785,1.785,0,0,0-1.141-.323,2.068,2.068,0,0,0-1.243.288.839.839,0,0,0-.372.674.7.7,0,0,0,.154.442,1.111,1.111,0,0,0,.485.337q.189.07,1.117.323a15.522,15.522,0,0,1,1.872.586,1.9,1.9,0,0,1,.833.664,1.854,1.854,0,0,1,.3,1.082,2.124,2.124,0,0,1-.369,1.19,2.384,2.384,0,0,1-1.064.864,3.876,3.876,0,0,1-1.573.305,3.506,3.506,0,0,1-2.216-.6A2.809,2.809,0,0,1,199.554,155.38Z" transform="translate(-4.413 -7.948)"/><path class="cls-3" d="M207.258,148.764V147.31h1.264v1.454Zm0,8.843v-7.459h1.264v7.459Z" transform="translate(-4.413 -7.948)"/><path class="cls-3" d="M209.977,153.877a3.844,3.844,0,0,1,1.152-3.069,3.472,3.472,0,0,1,2.346-.829,3.346,3.346,0,0,1,2.514,1.008,3.834,3.834,0,0,1,.976,2.785,4.934,4.934,0,0,1-.432,2.265,3.056,3.056,0,0,1-1.257,1.282,3.662,3.662,0,0,1-1.8.457,3.351,3.351,0,0,1-2.532-1A4.01,4.01,0,0,1,209.977,153.877Zm1.3,0a3.178,3.178,0,0,0,.625,2.146,2.082,2.082,0,0,0,3.14,0,3.25,3.25,0,0,0,.625-2.184,3.083,3.083,0,0,0-.628-2.1,2.084,2.084,0,0,0-3.136,0A3.163,3.163,0,0,0,211.276,153.877Z" transform="translate(-4.413 -7.948)"/><path class="cls-3" d="M218.447,157.606v-7.459h1.138v1.061a2.682,2.682,0,0,1,2.374-1.229,3.113,3.113,0,0,1,1.24.242,1.951,1.951,0,0,1,.846.636,2.439,2.439,0,0,1,.394.934,7.279,7.279,0,0,1,.07,1.229v4.586h-1.265v-4.537a3.4,3.4,0,0,0-.147-1.155,1.214,1.214,0,0,0-.523-.611,1.668,1.668,0,0,0-.882-.228,2.049,2.049,0,0,0-1.394.513,2.528,2.528,0,0,0-.586,1.945v4.074Z" transform="translate(-4.413 -7.948)"/><path class="cls-3" d="M225.941,155.38l1.25-.2a1.744,1.744,0,0,0,.586,1.152,2.042,2.042,0,0,0,1.345.4,1.977,1.977,0,0,0,1.292-.354,1.061,1.061,0,0,0,.421-.833.767.767,0,0,0-.372-.674,5.464,5.464,0,0,0-1.292-.429,11.78,11.78,0,0,1-1.928-.607,1.84,1.84,0,0,1-1.092-1.71,1.918,1.918,0,0,1,.228-.923A2.052,2.052,0,0,1,227,150.5a2.61,2.61,0,0,1,.8-.369,3.827,3.827,0,0,1,1.092-.151,4.307,4.307,0,0,1,1.542.253,2.1,2.1,0,0,1,.98.685,2.681,2.681,0,0,1,.436,1.155l-1.236.168a1.351,1.351,0,0,0-.488-.9,1.785,1.785,0,0,0-1.141-.323,2.068,2.068,0,0,0-1.243.288.839.839,0,0,0-.372.674.7.7,0,0,0,.154.442,1.111,1.111,0,0,0,.485.337q.189.07,1.117.323a15.522,15.522,0,0,1,1.872.586,1.9,1.9,0,0,1,.833.664,1.854,1.854,0,0,1,.3,1.082,2.124,2.124,0,0,1-.369,1.19,2.384,2.384,0,0,1-1.064.864,3.876,3.876,0,0,1-1.573.305,3.506,3.506,0,0,1-2.216-.6A2.809,2.809,0,0,1,225.941,155.38Z" transform="translate(-4.413 -7.948)"/><rect class="cls-10" x="0.5" y="0.5" width="332.125" height="174.552"/></svg>